solid Created by Gmsh
facet normal 0.996218 0.00463552 -0.0867659
  outer loop
    vertex -7.77387715735626 -1.745671625655481 6.766469271136899
    vertex -8.117451974093086 1.549806172878563 2.997718948072059
    vertex -7.732374222076905 1.692817244615802 7.426695536823367
  endloop
endfacet
facet normal 0.997007 0.0179551 -0.075191
  outer loop
    vertex -8.035544329520077 -1.834060556385797 3.275744402997525
    vertex -8.117451974093086 1.549806172878563 2.997718948072059
    vertex -7.77387715735626 -1.745671625655481 6.766469271136899
  endloop
endfacet
facet normal 0.087787 0.990956 -0.101483
  outer loop
    vertex -2.058721956485841 -6.806206217645873 17.65208277099902
    vertex -2.394242661189467 -6.329774444641263 22.01407593097512
    vertex 1.078711226605124 -6.833556804072095 20.0990187780743
  endloop
endfacet
facet normal -0.605251 -0.785155 -0.13116
  outer loop
    vertex 5.702322051104725 4.398723668277261 16.4957918172313
    vertex 2.913031540810131 6.626018443291355 16.03415148950243
    vertex 5.217405321755745 5.353844160894056 13.01592149355957
  endloop
endfacet
facet normal -0.792627 0.604583 -0.0788736
  outer loop
    vertex 7.08297897401194 -3.185599179721196 9.321546389058678
    vertex 5.115684068387619 -6.145296827724995 6.404816602690421
    vertex 4.854357083900734 -5.905488717129248 10.8691613434259
  endloop
endfacet
facet normal -0.736933 -0.675932 -0.00676462
  outer loop
    vertex 6.88179807367728 3.574754373617259 9.467770368579412
    vertex 5.217405321755745 5.353844160894056 13.01592149355957
    vertex 4.203621372316408 6.491987397310199 9.731657401064176
  endloop
endfacet
facet normal 0.113592 -0.989642 -0.0877811
  outer loop
    vertex -2.575478894021413 6.149646117519494 23.28823404560721
    vertex -2.516108283977787 6.543750191036313 18.92194342250528
    vertex 1.001566274695223 6.864228943533423 19.86089243196908
  endloop
endfacet
facet normal 0.273607 0.956846 -0.0979047
  outer loop
    vertex -3.842921675332811 -6.884958516825834 7.816349747052293
    vertex -0.480147328209627 -7.949722176918054 6.807870818822529
    vertex -3.576348350718526 -7.426363871863371 3.270042865940262
  endloop
endfacet
facet normal 0.823851 0.565653 -0.0361427
  outer loop
    vertex -6.75536486586736 -2.512166904601304 16.42463764430962
    vertex -5.079070370132237 -4.74553590113238 19.68130259540987
    vertex -4.690683397645252 -5.596133934266137 15.22201435280487
  endloop
endfacet
facet normal -0.62407 -0.781368 0.000812528
  outer loop
    vertex 4.079542761631254 5.697387839402904 18.96596789287682
    vertex 2.913031540810131 6.626018443291355 16.03415148950243
    vertex 5.702322051104725 4.398723668277261 16.4957918172313
  endloop
endfacet
facet normal -0.580418 0.798877 -0.157834
  outer loop
    vertex 4.966513902964105 -3.608383566433341 30
    vertex 3.647322906941605 -5.293579605493962 26.32155816239277
    vertex 1.897039505333364 -5.838487254935691 30
  endloop
endfacet
facet normal -0.199097 -0.978335 -0.0567482
  outer loop
    vertex 2.496713332934617 7.578804757239499 6.614026408957809
    vertex 0.1768101451758364 8.256477665760739 3.07019239150738
    vertex 3.077934306507414 7.671987172127081 2.968401677572572
  endloop
endfacet
facet normal -0.0555596 -0.986768 -0.152325
  outer loop
    vertex -1.527046799436079 7.860757929338673 6.255163149793326
    vertex 0.1768101451758364 8.256477665760739 3.07019239150738
    vertex 2.496713332934617 7.578804757239499 6.614026408957809
  endloop
endfacet
facet normal -0.804622 0.591042 -0.0570423
  outer loop
    vertex 7.08297897401194 -3.185599179721196 9.321546389058678
    vertex 7.446852399227629 -3.021434070145303 5.889845871374565
    vertex 5.115684068387619 -6.145296827724995 6.404816602690421
  endloop
endfacet
facet normal -0.528899 -0.844406 -0.0851103
  outer loop
    vertex 3.077934306507414 7.671987172127081 2.968401677572572
    vertex 5.56490991315391 6.143050911368942 2.682713919198047
    vertex 5.486370765490238 5.821561979787955 6.360370528647103
  endloop
endfacet
facet normal 0.933257 0.31216 -0.177727
  outer loop
    vertex -6.651581864254025 0.0538801835770643 23.48360651313253
    vertex -5.282251158842146 -4.043635587206932 23.47718689715781
    vertex -6.688265447764789 -1.774809661934549 20.07906819755062
  endloop
endfacet
facet normal -0.819937 -0.563257 -0.102197
  outer loop
    vertex 6.88179807367728 3.574754373617259 9.467770368579412
    vertex 6.867907771761655 2.938994059302652 13.08318683177723
    vertex 5.217405321755745 5.353844160894056 13.01592149355957
  endloop
endfacet
facet normal -0.510512 -0.853654 -0.10321
  outer loop
    vertex 3.077934306507414 7.671987172127081 2.968401677572572
    vertex 5.486370765490238 5.821561979787955 6.360370528647103
    vertex 2.496713332934617 7.578804757239499 6.614026408957809
  endloop
endfacet
facet normal 0.5396 0.840418 -0.0502878
  outer loop
    vertex -5.079070370132237 -4.74553590113238 19.68130259540987
    vertex -2.394242661189467 -6.329774444641263 22.01407593097512
    vertex -2.058721956485841 -6.806206217645873 17.65208277099902
  endloop
endfacet
facet normal 0.633768 0.771585 -0.0547245
  outer loop
    vertex -3.842921675332811 -6.884958516825834 7.816349747052293
    vertex -3.576348350718526 -7.426363871863371 3.270042865940262
    vertex -6.338255444427195 -5.011109874420651 5.337939321930172
  endloop
endfacet
facet normal 0.220879 0.974059 -0.0492119
  outer loop
    vertex -3.576348350718526 -7.426363871863371 3.270042865940262
    vertex -0.480147328209627 -7.949722176918054 6.807870818822529
    vertex 0.02541945877180671 -8.244005613913833 3.252219138484751
  endloop
endfacet
facet normal 0.503595 0.855656 -0.119353
  outer loop
    vertex -4.690683397645252 -5.596133934266137 15.22201435280487
    vertex -5.079070370132237 -4.74553590113238 19.68130259540987
    vertex -2.058721956485841 -6.806206217645873 17.65208277099902
  endloop
endfacet
facet normal -0.768906 0.639135 -0.0170544
  outer loop
    vertex 4.966513902964105 -3.608383566433341 30
    vertex 5.729793586018769 -2.765902727232704 27.16016547560687
    vertex 3.647322906941605 -5.293579605493962 26.32155816239277
  endloop
endfacet
facet normal 0.93435 -0.341836 -0.100692
  outer loop
    vertex -6.971675345603887 4.185274350968377 4.682637822922516
    vertex -8.117451974093086 1.549806172878563 2.997718948072059
    vertex -7.658235377170581 3.688011782499204 0
  endloop
endfacet
facet normal 0.867118 0.484937 -0.113767
  outer loop
    vertex -6.688265447764789 -1.774809661934549 20.07906819755062
    vertex -5.079070370132237 -4.74553590113238 19.68130259540987
    vertex -6.75536486586736 -2.512166904601304 16.42463764430962
  endloop
endfacet
facet normal 0.783082 -0.619987 -0.0489758
  outer loop
    vertex -7.658235377170581 3.688011782499204 0
    vertex -5.512019505434862 6.17595550201396 2.821160118599451
    vertex -6.971675345603887 4.185274350968377 4.682637822922516
  endloop
endfacet
facet normal -0.472068 0.878382 -0.0748166
  outer loop
    vertex 4.854357083900734 -5.905488717129248 10.8691613434259
    vertex 5.115684068387619 -6.145296827724995 6.404816602690421
    vertex 2.272147240534957 -7.469567302141711 8.799020322666522
  endloop
endfacet
facet normal 0.114625 -0.989618 -0.0866984
  outer loop
    vertex 1.001566274695223 6.864228943533423 19.86089243196908
    vertex 1.114481172722974 6.535621701221082 23.76106347620094
    vertex -2.575478894021413 6.149646117519494 23.28823404560721
  endloop
endfacet
facet normal 0.947946 0.316738 0.0328026
  outer loop
    vertex -6.067854166578837 -2.027562988239865 26.71294877601985
    vertex -5.282251158842146 -4.043635587206932 23.47718689715781
    vertex -6.651581864254025 0.0538801835770643 23.48360651313253
  endloop
endfacet
facet normal 0.876153 0.480208 -0.0418982
  outer loop
    vertex -5.282251158842146 -4.043635587206932 23.47718689715781
    vertex -5.079070370132237 -4.74553590113238 19.68130259540987
    vertex -6.688265447764789 -1.774809661934549 20.07906819755062
  endloop
endfacet
facet normal -0.743808 -0.663021 -0.0845765
  outer loop
    vertex 5.780713895932963 3.157013852263935 24.31196528453247
    vertex 3.622536648042866 5.277293574397683 26.67052399492355
    vertex 3.951195972578206 5.467691925813431 22.28754142140019
  endloop
endfacet
facet normal -0.18997 -0.981207 -0.0338114
  outer loop
    vertex -0.2403061156765165 7.238427391729308 15.97912976174245
    vertex 2.913031540810131 6.626018443291355 16.03415148950243
    vertex 1.001566274695223 6.864228943533423 19.86089243196908
  endloop
endfacet
facet normal -0.382558 -0.921373 -0.068711
  outer loop
    vertex 3.622536648042866 5.277293574397683 26.67052399492355
    vertex 1.114481172722974 6.535621701221082 23.76106347620094
    vertex 3.951195972578206 5.467691925813431 22.28754142140019
  endloop
endfacet
facet normal 0.540849 -0.838341 -0.068315
  outer loop
    vertex -2.575478894021413 6.149646117519494 23.28823404560721
    vertex -4.750090870391102 4.937516112088556 20.94675676180055
    vertex -2.516108283977787 6.543750191036313 18.92194342250528
  endloop
endfacet
facet normal 0.899551 0.429739 -0.0783124
  outer loop
    vertex -8.035544329520077 -1.834060556385797 3.275744402997525
    vertex -7.77387715735626 -1.745671625655481 6.766469271136899
    vertex -6.338255444427195 -5.011109874420651 5.337939321930172
  endloop
endfacet
facet normal 0.637728 -0.770255 0.00322505
  outer loop
    vertex -3.827887448856237 5.127023338005146 26.70378874725313
    vertex -5.521607674741774 3.711177463947748 23.46971568824499
    vertex -2.575478894021413 6.149646117519494 23.28823404560721
  endloop
endfacet
facet normal 0.118888 0.991873 -0.0453227
  outer loop
    vertex 1.078711226605124 -6.833556804072095 20.0990187780743
    vertex -2.394242661189467 -6.329774444641263 22.01407593097512
    vertex 0.583184378029948 -6.610343778606675 23.68412351933055
  endloop
endfacet
facet normal 0.125557 -0.98287 -0.134917
  outer loop
    vertex 1.001566274695223 6.864228943533423 19.86089243196908
    vertex -2.516108283977787 6.543750191036313 18.92194342250528
    vertex -0.2403061156765165 7.238427391729308 15.97912976174245
  endloop
endfacet
facet normal 0.984634 0.00532264 -0.174549
  outer loop
    vertex -6.080888183984541 1.975800341566536 26.76150073106909
    vertex -6.067854166578837 -2.027562988239865 26.71294877601985
    vertex -6.651581864254025 0.0538801835770643 23.48360651313253
  endloop
endfacet
facet normal 0.313826 -0.949247 0.0210557
  outer loop
    vertex -1.897039505333393 5.838487254935681 30
    vertex -3.827887448856237 5.127023338005146 26.70378874725313
    vertex 3.230937161659842e-15 6.393824215276587 26.76150073106909
  endloop
endfacet
facet normal 0.312091 -0.935499 -0.165653
  outer loop
    vertex -3.827887448856237 5.127023338005146 26.70378874725313
    vertex -2.575478894021413 6.149646117519494 23.28823404560721
    vertex 3.230937161659842e-15 6.393824215276587 26.76150073106909
  endloop
endfacet
facet normal 0.9998 0.00301542 0.0197644
  outer loop
    vertex -6.138948795261445 8.93052715861759e-15 30
    vertex -6.067854166578837 -2.027562988239865 26.71294877601985
    vertex -6.080888183984541 1.975800341566536 26.76150073106909
  endloop
endfacet
facet normal 0.930309 -0.360178 -0.0692558
  outer loop
    vertex -7.732374222076905 1.692817244615802 7.426695536823367
    vertex -8.117451974093086 1.549806172878563 2.997718948072059
    vertex -6.971675345603887 4.185274350968377 4.682637822922516
  endloop
endfacet
facet normal -0.735155 -0.661508 -0.148171
  outer loop
    vertex 4.203621372316408 6.491987397310199 9.731657401064176
    vertex 5.486370765490238 5.821561979787955 6.360370528647103
    vertex 6.88179807367728 3.574754373617259 9.467770368579412
  endloop
endfacet
facet normal 0.0537284 0.996884 -0.0577473
  outer loop
    vertex -2.058721956485841 -6.806206217645873 17.65208277099902
    vertex 1.078711226605124 -6.833556804072095 20.0990187780743
    vertex 1.440217350224643 -7.075976594721856 16.2505058080325
  endloop
endfacet
facet normal -0.780636 -0.620945 -0.0709521
  outer loop
    vertex 5.486370765490238 5.821561979787955 6.360370528647103
    vertex 5.56490991315391 6.143050911368942 2.682713919198047
    vertex 7.106776244531228 4.036796325545044 4.151769808177743
  endloop
endfacet
facet normal -0.385456 -0.91269 -0.135722
  outer loop
    vertex 1.001566274695223 6.864228943533423 19.86089243196908
    vertex 2.913031540810131 6.626018443291355 16.03415148950243
    vertex 4.079542761631254 5.697387839402904 18.96596789287682
  endloop
endfacet
facet normal -0.278764 0.960311 0.00961395
  outer loop
    vertex 3.647322906941605 -5.293579605493962 26.32155816239277
    vertex -2.941669972056762e-14 -6.36093260776399 27.17942823022604
    vertex 1.897039505333364 -5.838487254935691 30
  endloop
endfacet
facet normal 0.898772 0.432126 -0.0739938
  outer loop
    vertex -6.338255444427195 -5.011109874420651 5.337939321930172
    vertex -6.500614419880497 -5.184067011240019 2.355756755117142
    vertex -8.035544329520077 -1.834060556385797 3.275744402997525
  endloop
endfacet
facet normal -0.803754 0.573983 -0.156597
  outer loop
    vertex 5.115684068387619 -6.145296827724995 6.404816602690421
    vertex 7.446852399227629 -3.021434070145303 5.889845871374565
    vertex 6.444006225574763 -5.138923482688389 3.275744402997496
  endloop
endfacet
facet normal -0.579638 -0.797803 -0.165924
  outer loop
    vertex 1.897039505333399 5.838487254935679 30
    vertex 3.622536648042866 5.277293574397683 26.67052399492355
    vertex 4.96651390296412 3.608383566433321 30
  endloop
endfacet
facet normal 0.579501 -0.797615 -0.167299
  outer loop
    vertex -4.966513902964116 3.608383566433327 30
    vertex -3.827887448856237 5.127023338005146 26.70378874725313
    vertex -1.897039505333393 5.838487254935681 30
  endloop
endfacet
facet normal 0.937598 0.304644 -0.167636
  outer loop
    vertex -4.966513902964127 -3.608383566433311 30
    vertex -6.067854166578837 -2.027562988239865 26.71294877601985
    vertex -6.138948795261445 8.93052715861759e-15 30
  endloop
endfacet
facet normal -0.824404 -0.564581 -0.0400805
  outer loop
    vertex 5.217405321755745 5.353844160894056 13.01592149355957
    vertex 6.867907771761655 2.938994059302652 13.08318683177723
    vertex 5.702322051104725 4.398723668277261 16.4957918172313
  endloop
endfacet
facet normal -0.76584 0.639574 -0.0665801
  outer loop
    vertex 4.248464262170613 -5.623556289402414 18.44983300405934
    vertex 6.100992424973071 -3.188080536277984 20.53644769279666
    vertex 6.436851351274043 -3.173097217580468 16.81714973225048
  endloop
endfacet
facet normal -0.750739 0.653543 -0.0962916
  outer loop
    vertex 4.248464262170613 -5.623556289402414 18.44983300405934
    vertex 3.808836838208858 -5.576359388111312 22.19772736351671
    vertex 6.100992424973071 -3.188080536277984 20.53644769279666
  endloop
endfacet
facet normal 0.941509 0.335686 -0.0295958
  outer loop
    vertex -6.427277080261595 -4.401077460014489 9.025260135302254
    vertex -7.652686546918734 -0.8652792447337266 10.1465501413426
    vertex -6.63132136110446 -3.504924584974079 12.69864963781005
  endloop
endfacet
facet normal -0.957776 -0.287515 0.000664859
  outer loop
    vertex 7.024342997038403 0 18.75
    vertex 6.030426921913523 3.315142936432207 20.56390362555811
    vertex 5.702322051104725 4.398723668277261 16.4957918172313
  endloop
endfacet
facet normal -0.461287 0.882531 -0.0913988
  outer loop
    vertex 1.932696650911217 -7.262733035067352 12.50937079510905
    vertex 4.854357083900734 -5.905488717129248 10.8691613434259
    vertex 2.272147240534957 -7.469567302141711 8.799020322666522
  endloop
endfacet
facet normal -0.984274 -0.148378 -0.0958598
  outer loop
    vertex 7.530019766231992 2.648256444856902 6.580114061465657
    vertex 7.998964078723119 2.271200620062803 2.348696816146006
    vertex 8.20486859940768 0 3.75
  endloop
endfacet
facet normal -0.916181 -0.395239 -0.066316
  outer loop
    vertex 7.106776244531228 4.036796325545044 4.151769808177743
    vertex 7.998964078723119 2.271200620062803 2.348696816146006
    vertex 7.530019766231992 2.648256444856902 6.580114061465657
  endloop
endfacet
facet normal -0.294338 -0.955663 0.00853969
  outer loop
    vertex 3.230937161659842e-15 6.393824215276587 26.76150073106909
    vertex 3.622536648042866 5.277293574397683 26.67052399492355
    vertex 1.897039505333399 5.838487254935679 30
  endloop
endfacet
facet normal 0.597049 -0.788911 -0.145433
  outer loop
    vertex -3.825736534313576 6.204352154104688 15.38658230373009
    vertex -2.516108283977787 6.543750191036313 18.92194342250528
    vertex -5.544018991190601 4.379557847734787 18.23120202936508
  endloop
endfacet
facet normal 0.715093 -0.698839 -0.0163487
  outer loop
    vertex -6.428200788643723 3.558746685338664 14.64330685163581
    vertex -3.825736534313576 6.204352154104688 15.38658230373009
    vertex -5.544018991190601 4.379557847734787 18.23120202936508
  endloop
endfacet
facet normal -0.504227 -0.8522 -0.139681
  outer loop
    vertex 4.203621372316408 6.491987397310199 9.731657401064176
    vertex 5.217405321755745 5.353844160894056 13.01592149355957
    vertex 2.210040368601879 7.149807621937278 12.91479151094538
  endloop
endfacet
facet normal -0.326189 -0.945262 -0.00894446
  outer loop
    vertex 0.6400503688901036 7.723619044336043 9.528460310044292
    vertex 4.203621372316408 6.491987397310199 9.731657401064176
    vertex 2.210040368601879 7.149807621937278 12.91479151094538
  endloop
endfacet
facet normal -0.0281596 -0.987623 -0.154297
  outer loop
    vertex 0.6400503688901036 7.723619044336043 9.528460310044292
    vertex 2.210040368601879 7.149807621937278 12.91479151094538
    vertex -1.678493259763775 7.327412071282049 12.48764834168756
  endloop
endfacet
facet normal -4.61456e-16 -0.985614 -0.169013
  outer loop
    vertex -1.897039505333393 5.838487254935681 30
    vertex 3.230937161659842e-15 6.393824215276587 26.76150073106909
    vertex 1.897039505333399 5.838487254935679 30
  endloop
endfacet
facet normal -0.781759 0.623432 -0.0136426
  outer loop
    vertex 5.299663315799263 -6.645567600978231 0
    vertex 6.444006225574763 -5.138923482688389 3.275744402997496
    vertex 7.658235377170568 -3.688011782499232 0
  endloop
endfacet
facet normal 0.46238 -0.875843 -0.138216
  outer loop
    vertex -2.912577885823318 7.227485066261903 8.992416687519796
    vertex -1.678493259763775 7.327412071282049 12.48764834168756
    vertex -5.014431550768786 5.668737059949835 11.83842237470623
  endloop
endfacet
facet normal 0.141483 -0.989704 -0.0216591
  outer loop
    vertex -2.912577885823318 7.227485066261903 8.992416687519796
    vertex 0.6400503688901036 7.723619044336043 9.528460310044292
    vertex -1.678493259763775 7.327412071282049 12.48764834168756
  endloop
endfacet
facet normal 0.80055 -0.575427 -0.167341
  outer loop
    vertex -6.080888183984541 1.975800341566536 26.76150073106909
    vertex -5.521607674741774 3.711177463947748 23.46971568824499
    vertex -3.827887448856237 5.127023338005146 26.70378874725313
  endloop
endfacet
facet normal 0.278789 -0.960288 -0.0110852
  outer loop
    vertex -0.2403061156765165 7.238427391729308 15.97912976174245
    vertex -2.516108283977787 6.543750191036313 18.92194342250528
    vertex -3.825736534313576 6.204352154104688 15.38658230373009
  endloop
endfacet
facet normal -0.433846 -0.90089 -0.0132046
  outer loop
    vertex 5.299663315799225 6.645567600978262 0
    vertex 3.077934306507414 7.671987172127081 2.968401677572572
    vertex 1.891427938628656 8.286887253545505 0
  endloop
endfacet
facet normal 0.813517 -0.581392 0.0131567
  outer loop
    vertex -6.080888183984541 1.975800341566536 26.76150073106909
    vertex -3.827887448856237 5.127023338005146 26.70378874725313
    vertex -4.966513902964116 3.608383566433327 30
  endloop
endfacet
facet normal -0.0682517 0.995755 -0.0617528
  outer loop
    vertex 1.932696650911217 -7.262733035067352 12.50937079510905
    vertex 2.272147240534957 -7.469567302141711 8.799020322666522
    vertex -1.115350395072114 -7.610862211915352 10.26465918801575
  endloop
endfacet
facet normal 0.803654 0.572704 -0.161711
  outer loop
    vertex -3.837881846199754 -5.098223484712304 26.92040691605058
    vertex -5.282251158842146 -4.043635587206932 23.47718689715781
    vertex -6.067854166578837 -2.027562988239865 26.71294877601985
  endloop
endfacet
facet normal 0.816775 -0.576536 -0.022016
  outer loop
    vertex -7.144652352806874 2.681409496094573 11.03848409067211
    vertex -5.014431550768786 5.668737059949835 11.83842237470623
    vertex -6.428200788643723 3.558746685338664 14.64330685163581
  endloop
endfacet
facet normal 0.7253 -0.673781 -0.141277
  outer loop
    vertex -5.014431550768786 5.668737059949835 11.83842237470623
    vertex -3.825736534313576 6.204352154104688 15.38658230373009
    vertex -6.428200788643723 3.558746685338664 14.64330685163581
  endloop
endfacet
facet normal 0.582248 -0.812869 -0.0151999
  outer loop
    vertex -6.064238145149547 4.983523616101269 8.26875184548781
    vertex -2.912577885823318 7.227485066261903 8.992416687519796
    vertex -5.014431550768786 5.668737059949835 11.83842237470623
  endloop
endfacet
facet normal 0.964316 -0.263791 -0.0225732
  outer loop
    vertex -7.418249937108699 0.01641775514704323 13.74470693228446
    vertex -6.428200788643723 3.558746685338664 14.64330685163581
    vertex -7.059384911822248 1.017372437321692 17.37804576335462
  endloop
endfacet
facet normal -6.57356e-15 0.999913 -0.0131842
  outer loop
    vertex -1.891427938628608 -8.286887253545515 0
    vertex 0.02541945877180671 -8.244005613913833 3.252219138484751
    vertex 1.891427938628715 -8.28688725354549 0
  endloop
endfacet
facet normal 0.962687 -0.235037 -0.134129
  outer loop
    vertex -7.418249937108699 0.01641775514704323 13.74470693228446
    vertex -7.144652352806874 2.681409496094573 11.03848409067211
    vertex -6.428200788643723 3.558746685338664 14.64330685163581
  endloop
endfacet
facet normal 0.808703 0.588098 0.0118707
  outer loop
    vertex -3.837881846199754 -5.098223484712304 26.92040691605058
    vertex -6.067854166578837 -2.027562988239865 26.71294877601985
    vertex -4.966513902964127 -3.608383566433311 30
  endloop
endfacet
facet normal 0.955422 -0.295166 0.00672129
  outer loop
    vertex -6.080888183984541 1.975800341566536 26.76150073106909
    vertex -6.651581864254025 0.0538801835770643 23.48360651313253
    vertex -5.521607674741774 3.711177463947748 23.46971568824499
  endloop
endfacet
facet normal 0.915554 -0.377298 -0.139309
  outer loop
    vertex -6.428200788643723 3.558746685338664 14.64330685163581
    vertex -5.544018991190601 4.379557847734787 18.23120202936508
    vertex -7.059384911822248 1.017372437321692 17.37804576335462
  endloop
endfacet
facet normal 0.578891 0.796775 -0.173306
  outer loop
    vertex -1.897039505333418 -5.838487254935673 30
    vertex -3.837881846199754 -5.098223484712304 26.92040691605058
    vertex -4.966513902964127 -3.608383566433311 30
  endloop
endfacet
facet normal 0.682843 0.729516 -0.0391442
  outer loop
    vertex -4.299546505265861 -6.258801979005928 11.52029961310566
    vertex -3.842921675332811 -6.884958516825834 7.816349747052293
    vertex -6.427277080261595 -4.401077460014489 9.025260135302254
  endloop
endfacet
facet normal 0.937374 -0.304571 -0.169013
  outer loop
    vertex -6.138948795261445 8.93052715861759e-15 30
    vertex -6.080888183984541 1.975800341566536 26.76150073106909
    vertex -4.966513902964116 3.608383566433327 30
  endloop
endfacet
facet normal 0.897321 -0.420736 -0.133406
  outer loop
    vertex -7.732374222076905 1.692817244615802 7.426695536823367
    vertex -6.971675345603887 4.185274350968377 4.682637822922516
    vertex -6.064238145149547 4.983523616101269 8.26875184548781
  endloop
endfacet
facet normal 0.158373 -0.97656 -0.145766
  outer loop
    vertex -2.912577885823318 7.227485066261903 8.992416687519796
    vertex -1.527046799436079 7.860757929338673 6.255163149793326
    vertex 0.6400503688901036 7.723619044336043 9.528460310044292
  endloop
endfacet
facet normal -0.0448599 -0.998969 -0.00698157
  outer loop
    vertex 2.210040368601879 7.149807621937278 12.91479151094538
    vertex -0.2403061156765165 7.238427391729308 15.97912976174245
    vertex -1.678493259763775 7.327412071282049 12.48764834168756
  endloop
endfacet
facet normal 0.662617 0.741326 -0.106648
  outer loop
    vertex -3.842921675332811 -6.884958516825834 7.816349747052293
    vertex -6.338255444427195 -5.011109874420651 5.337939321930172
    vertex -6.427277080261595 -4.401077460014489 9.025260135302254
  endloop
endfacet
facet normal 0.823489 -0.550673 -0.136476
  outer loop
    vertex -7.144652352806874 2.681409496094573 11.03848409067211
    vertex -6.064238145149547 4.983523616101269 8.26875184548781
    vertex -5.014431550768786 5.668737059949835 11.83842237470623
  endloop
endfacet
facet normal 0.730733 0.671452 -0.123216
  outer loop
    vertex -4.299546505265861 -6.258801979005928 11.52029961310566
    vertex -6.427277080261595 -4.401077460014489 9.025260135302254
    vertex -6.63132136110446 -3.504924584974079 12.69864963781005
  endloop
endfacet
facet normal 0.433851 -0.9009 -0.0123338
  outer loop
    vertex -1.89142793862869 8.286887253545498 0
    vertex -3.328218249097076 7.551970128738257 3.140526013033483
    vertex -5.299663315799259 6.645567600978236 0
  endloop
endfacet
facet normal 0.974837 0.2225 -0.0136426
  outer loop
    vertex -8.5 -5.935518276033327e-14 0
    vertex -8.035544329520077 -1.834060556385797 3.275744402997525
    vertex -7.658235377170531 -3.688011782499311 0
  endloop
endfacet
facet normal 0.894073 -0.447329 -0.0230468
  outer loop
    vertex -7.144652352806874 2.681409496094573 11.03848409067211
    vertex -7.732374222076905 1.692817244615802 7.426695536823367
    vertex -6.064238145149547 4.983523616101269 8.26875184548781
  endloop
endfacet
facet normal 0.447497 -0.894161 -0.0149405
  outer loop
    vertex -1.678493259763775 7.327412071282049 12.48764834168756
    vertex -3.825736534313576 6.204352154104688 15.38658230373009
    vertex -5.014431550768786 5.668737059949835 11.83842237470623
  endloop
endfacet
facet normal 0.421906 0.899139 -0.11638
  outer loop
    vertex -1.539231006362553 -7.241551717577837 13.93450644226665
    vertex -4.299546505265861 -6.258801979005928 11.52029961310566
    vertex -4.690683397645252 -5.596133934266137 15.22201435280487
  endloop
endfacet
facet normal 0.973765 0.225858 -0.0277598
  outer loop
    vertex -6.63132136110446 -3.504924584974079 12.69864963781005
    vertex -7.418249937108699 0.01641775514704323 13.74470693228446
    vertex -6.75536486586736 -2.512166904601304 16.42463764430962
  endloop
endfacet
facet normal 0.984196 0.11996 -0.130257
  outer loop
    vertex -7.418249937108699 0.01641775514704323 13.74470693228446
    vertex -7.059384911822248 1.017372437321692 17.37804576335462
    vertex -6.75536486586736 -2.512166904601304 16.42463764430962
  endloop
endfacet
facet normal 0.754659 0.655044 -0.0375236
  outer loop
    vertex -4.299546505265861 -6.258801979005928 11.52029961310566
    vertex -6.63132136110446 -3.504924584974079 12.69864963781005
    vertex -4.690683397645252 -5.596133934266137 15.22201435280487
  endloop
endfacet
facet normal 0.994687 0.0958349 -0.0376002
  outer loop
    vertex -7.059384911822248 1.017372437321692 17.37804576335462
    vertex -6.688265447764789 -1.774809661934549 20.07906819755062
    vertex -6.75536486586736 -2.512166904601304 16.42463764430962
  endloop
endfacet
facet normal 0.799883 0.586016 -0.12951
  outer loop
    vertex -6.63132136110446 -3.504924584974079 12.69864963781005
    vertex -6.75536486586736 -2.512166904601304 16.42463764430962
    vertex -4.690683397645252 -5.596133934266137 15.22201435280487
  endloop
endfacet
facet normal -0.96862 -0.236569 -0.076232
  outer loop
    vertex 7.614605798223042 0 11.25
    vertex 6.88179807367728 3.574754373617259 9.467770368579412
    vertex 7.909737198815361 0 7.5
  endloop
endfacet
facet normal -0.974872 0.209137 -0.0767241
  outer loop
    vertex 7.909737198815361 0 7.5
    vertex 7.08297897401194 -3.185599179721196 9.321546389058678
    vertex 7.614605798223042 0 11.25
  endloop
endfacet
facet normal 0.296361 -0.943831 -0.14613
  outer loop
    vertex -0.2403061156765165 7.238427391729308 15.97912976174245
    vertex -3.825736534313576 6.204352154104688 15.38658230373009
    vertex -1.678493259763775 7.327412071282049 12.48764834168756
  endloop
endfacet
facet normal -0.431706 0.896278 -0.101571
  outer loop
    vertex 4.581815038650332 -5.736605754401639 14.71663145117365
    vertex 1.932696650911217 -7.262733035067352 12.50937079510905
    vertex 1.440217350224643 -7.075976594721856 16.2505058080325
  endloop
endfacet
facet normal -0.783457 0.615942 -0.0825339
  outer loop
    vertex 6.755108964406874 -3.194866141691717 13.05527633170789
    vertex 4.854357083900734 -5.905488717129248 10.8691613434259
    vertex 4.581815038650332 -5.736605754401639 14.71663145117365
  endloop
endfacet
facet normal -0.0151898 0.99854 -0.0518464
  outer loop
    vertex 1.932696650911217 -7.262733035067352 12.50937079510905
    vertex -1.539231006362553 -7.241551717577837 13.93450644226665
    vertex 1.440217350224643 -7.075976594721856 16.2505058080325
  endloop
endfacet
facet normal -0.971046 0.226339 -0.076423
  outer loop
    vertex 7.319474397630723 0 15
    vertex 6.436851351274043 -3.173097217580468 16.81714973225048
    vertex 7.024342997038403 0 18.75
  endloop
endfacet
facet normal 0.031765 0.993215 -0.111871
  outer loop
    vertex -1.539231006362553 -7.241551717577837 13.93450644226665
    vertex -2.058721956485841 -6.806206217645873 17.65208277099902
    vertex 1.440217350224643 -7.075976594721856 16.2505058080325
  endloop
endfacet
facet normal -0.943904 -0.321757 -0.0742868
  outer loop
    vertex 7.024342997038403 0 18.75
    vertex 5.702322051104725 4.398723668277261 16.4957918172313
    vertex 7.319474397630723 0 15
  endloop
endfacet
facet normal 0.448955 0.892577 -0.0417884
  outer loop
    vertex -1.539231006362553 -7.241551717577837 13.93450644226665
    vertex -4.690683397645252 -5.596133934266137 15.22201435280487
    vertex -2.058721956485841 -6.806206217645873 17.65208277099902
  endloop
endfacet
facet normal -0.452787 0.888781 -0.0710865
  outer loop
    vertex 4.581815038650332 -5.736605754401639 14.71663145117365
    vertex 4.854357083900734 -5.905488717129248 10.8691613434259
    vertex 1.932696650911217 -7.262733035067352 12.50937079510905
  endloop
endfacet
facet normal -0.966124 -0.246623 -0.0760356
  outer loop
    vertex 6.434080195853765 0 26.25
    vertex 5.780713895932963 3.157013852263935 24.31196528453247
    vertex 6.729211596446084 0 22.5
  endloop
endfacet
facet normal 0.433844 0.900886 -0.0135292
  outer loop
    vertex -5.299663315799171 -6.645567600978304 0
    vertex -3.576348350718526 -7.426363871863371 3.270042865940262
    vertex -1.891427938628608 -8.286887253545515 0
  endloop
endfacet
facet normal -0.417946 0.906161 -0.0647604
  outer loop
    vertex 4.581815038650332 -5.736605754401639 14.71663145117365
    vertex 1.440217350224643 -7.075976594721856 16.2505058080325
    vertex 4.248464262170613 -5.623556289402414 18.44983300405934
  endloop
endfacet
facet normal -0.771376 0.63027 -0.0879649
  outer loop
    vertex 4.581815038650332 -5.736605754401639 14.71663145117365
    vertex 4.248464262170613 -5.623556289402414 18.44983300405934
    vertex 6.436851351274043 -3.173097217580468 16.81714973225048
  endloop
endfacet
facet normal -0.9667 0.24434 -0.076081
  outer loop
    vertex 6.729211596446084 0 22.5
    vertex 5.802200183389034 -3.133265583254958 24.21605674681581
    vertex 6.434080195853765 0 26.25
  endloop
endfacet
facet normal -0.780218 0.621623 -0.0696042
  outer loop
    vertex 6.755108964406874 -3.194866141691717 13.05527633170789
    vertex 4.581815038650332 -5.736605754401639 14.71663145117365
    vertex 6.436851351274043 -3.173097217580468 16.81714973225048
  endloop
endfacet
facet normal -0.336554 0.938467 -0.0775341
  outer loop
    vertex 3.808836838208858 -5.576359388111312 22.19772736351671
    vertex 0.583184378029948 -6.610343778606675 23.68412351933055
    vertex 3.647322906941605 -5.293579605493962 26.32155816239277
  endloop
endfacet
facet normal -0.741503 0.666771 -0.0747636
  outer loop
    vertex 3.808836838208858 -5.576359388111312 22.19772736351671
    vertex 3.647322906941605 -5.293579605493962 26.32155816239277
    vertex 5.802200183389034 -3.133265583254958 24.21605674681581
  endloop
endfacet
facet normal -0.743669 0.664843 -0.0702916
  outer loop
    vertex 6.100992424973071 -3.188080536277984 20.53644769279666
    vertex 3.808836838208858 -5.576359388111312 22.19772736351671
    vertex 5.802200183389034 -3.133265583254958 24.21605674681581
  endloop
endfacet
facet normal -0.787759 -0.613693 -0.0530786
  outer loop
    vertex 7.106776244531228 4.036796325545044 4.151769808177743
    vertex 5.56490991315391 6.143050911368942 2.682713919198047
    vertex 7.65823537717056 3.68801178249925 0
  endloop
endfacet
facet normal 0.560618 0.82787 0.0183904
  outer loop
    vertex -3.837881846199754 -5.098223484712304 26.92040691605058
    vertex -2.196907548799101 -6.163683345705716 24.85968673701756
    vertex -5.282251158842146 -4.043635587206932 23.47718689715781
  endloop
endfacet
facet normal 0.959892 0.251389 -0.124142
  outer loop
    vertex -6.63132136110446 -3.504924584974079 12.69864963781005
    vertex -7.652686546918734 -0.8652792447337266 10.1465501413426
    vertex -7.418249937108699 0.01641775514704323 13.74470693228446
  endloop
endfacet
facet normal 0.349846 0.929838 -0.114061
  outer loop
    vertex -4.299546505265861 -6.258801979005928 11.52029961310566
    vertex -1.115350395072114 -7.610862211915352 10.26465918801575
    vertex -3.842921675332811 -6.884958516825834 7.816349747052293
  endloop
endfacet
facet normal -0.0367326 0.993872 -0.10426
  outer loop
    vertex 1.932696650911217 -7.262733035067352 12.50937079510905
    vertex -1.115350395072114 -7.610862211915352 10.26465918801575
    vertex -1.539231006362553 -7.241551717577837 13.93450644226665
  endloop
endfacet
facet normal -0.973175 0.213819 -0.0849267
  outer loop
    vertex 7.08297897401194 -3.185599179721196 9.321546389058678
    vertex 6.755108964406874 -3.194866141691717 13.05527633170789
    vertex 7.614605798223042 0 11.25
  endloop
endfacet
facet normal -0.971377 0.222397 -0.0834662
  outer loop
    vertex 7.319474397630723 0 15
    vertex 6.755108964406874 -3.194866141691717 13.05527633170789
    vertex 6.436851351274043 -3.173097217580468 16.81714973225048
  endloop
endfacet
facet normal 0.985487 -0.108289 -0.130722
  outer loop
    vertex -7.144652352806874 2.681409496094573 11.03848409067211
    vertex -7.652686546918734 -0.8652792447337266 10.1465501413426
    vertex -7.732374222076905 1.692817244615802 7.426695536823367
  endloop
endfacet
facet normal -0.397714 0.912594 -0.0948436
  outer loop
    vertex 1.440217350224643 -7.075976594721856 16.2505058080325
    vertex 1.078711226605124 -6.833556804072095 20.0990187780743
    vertex 4.248464262170613 -5.623556289402414 18.44983300405934
  endloop
endfacet
facet normal -0.968834 0.232099 -0.0865523
  outer loop
    vertex 6.436851351274043 -3.173097217580468 16.81714973225048
    vertex 6.100992424973071 -3.188080536277984 20.53644769279666
    vertex 7.024342997038403 0 18.75
  endloop
endfacet
facet normal -0.967013 0.241128 -0.0821156
  outer loop
    vertex 6.729211596446084 0 22.5
    vertex 6.100992424973071 -3.188080536277984 20.53644769279666
    vertex 5.802200183389034 -3.133265583254958 24.21605674681581
  endloop
endfacet
facet normal -0.61244 0.777366 -0.143593
  outer loop
    vertex 5.299663315799263 -6.645567600978231 0
    vertex 3.516530407934719 -7.462459646951832 3.182873603065826
    vertex 6.444006225574763 -5.138923482688389 3.275744402997496
  endloop
endfacet
facet normal -0.965783 -0.247964 -0.0760088
  outer loop
    vertex 6.729211596446084 0 22.5
    vertex 6.030426921913523 3.315142936432207 20.56390362555811
    vertex 7.024342997038403 0 18.75
  endloop
endfacet
facet normal 0.620413 -0.76306 -0.181181
  outer loop
    vertex -5.521607674741774 3.711177463947748 23.46971568824499
    vertex -4.750090870391102 4.937516112088556 20.94675676180055
    vertex -2.575478894021413 6.149646117519494 23.28823404560721
  endloop
endfacet
facet normal 0.218485 0.965526 -0.141505
  outer loop
    vertex -1.891427938628608 -8.286887253545515 0
    vertex -3.576348350718526 -7.426363871863371 3.270042865940262
    vertex 0.02541945877180671 -8.244005613913833 3.252219138484751
  endloop
endfacet
facet normal -0.972839 0.218454 -0.0765641
  outer loop
    vertex 7.614605798223042 0 11.25
    vertex 6.755108964406874 -3.194866141691717 13.05527633170789
    vertex 7.319474397630723 0 15
  endloop
endfacet
facet normal -0.79031 0.608935 -0.0678881
  outer loop
    vertex 7.08297897401194 -3.185599179721196 9.321546389058678
    vertex 4.854357083900734 -5.905488717129248 10.8691613434259
    vertex 6.755108964406874 -3.194866141691717 13.05527633170789
  endloop
endfacet
facet normal -0.968332 0.23775 -0.0762094
  outer loop
    vertex 7.024342997038403 0 18.75
    vertex 6.100992424973071 -3.188080536277984 20.53644769279666
    vertex 6.729211596446084 0 22.5
  endloop
endfacet
facet normal 0.310367 0.950052 0.0327692
  outer loop
    vertex -1.897039505333418 -5.838487254935673 30
    vertex -2.941669972056762e-14 -6.36093260776399 27.17942823022604
    vertex -3.837881846199754 -5.098223484712304 26.92040691605058
  endloop
endfacet
facet normal 0.590557 0.802208 -0.0877763
  outer loop
    vertex -5.282251158842146 -4.043635587206932 23.47718689715781
    vertex -2.196907548799101 -6.163683345705716 24.85968673701756
    vertex -2.394242661189467 -6.329774444641263 22.01407593097512
  endloop
endfacet
facet normal 0.37356 0.926254 -0.0500649
  outer loop
    vertex -1.539231006362553 -7.241551717577837 13.93450644226665
    vertex -1.115350395072114 -7.610862211915352 10.26465918801575
    vertex -4.299546505265861 -6.258801979005928 11.52029961310566
  endloop
endfacet
facet normal 0.990487 -0.133901 -0.0317235
  outer loop
    vertex -7.418249937108699 0.01641775514704323 13.74470693228446
    vertex -7.652686546918734 -0.8652792447337266 10.1465501413426
    vertex -7.144652352806874 2.681409496094573 11.03848409067211
  endloop
endfacet
facet normal -0.747421 -0.659799 -0.0776332
  outer loop
    vertex 5.780713895932963 3.157013852263935 24.31196528453247
    vertex 3.951195972578206 5.467691925813431 22.28754142140019
    vertex 6.030426921913523 3.315142936432207 20.56390362555811
  endloop
endfacet
facet normal -0.433853 0.900906 -0.0118369
  outer loop
    vertex 1.891427938628715 -8.28688725354549 0
    vertex 3.516530407934719 -7.462459646951832 3.182873603065826
    vertex 5.299663315799263 -6.645567600978231 0
  endloop
endfacet
facet normal -0.726404 -0.676428 -0.121587
  outer loop
    vertex 6.030426921913523 3.315142936432207 20.56390362555811
    vertex 4.079542761631254 5.697387839402904 18.96596789287682
    vertex 5.702322051104725 4.398723668277261 16.4957918172313
  endloop
endfacet
facet normal -0.966045 -0.247311 -0.0747963
  outer loop
    vertex 5.780713895932963 3.157013852263935 24.31196528453247
    vertex 6.030426921913523 3.315142936432207 20.56390362555811
    vertex 6.729211596446084 0 22.5
  endloop
endfacet
facet normal 0.906583 0.419347 -0.0474897
  outer loop
    vertex -6.338255444427195 -5.011109874420651 5.337939321930172
    vertex -7.77387715735626 -1.745671625655481 6.766469271136899
    vertex -6.427277080261595 -4.401077460014489 9.025260135302254
  endloop
endfacet
facet normal -0.294561 -0.943145 -0.153984
  outer loop
    vertex 3.230937161659842e-15 6.393824215276587 26.76150073106909
    vertex 1.114481172722974 6.535621701221082 23.76106347620094
    vertex 3.622536648042866 5.277293574397683 26.67052399492355
  endloop
endfacet
facet normal -0.923206 -0.373312 -0.0912634
  outer loop
    vertex 7.65823537717056 3.68801178249925 0
    vertex 7.998964078723119 2.271200620062803 2.348696816146006
    vertex 7.106776244531228 4.036796325545044 4.151769808177743
  endloop
endfacet
facet normal 0.998656 -0.0493746 0.0157603
  outer loop
    vertex -6.688265447764789 -1.774809661934549 20.07906819755062
    vertex -6.497646580873913 2.253151338026271 20.61942377768194
    vertex -6.651581864254025 0.0538801835770643 23.48360651313253
  endloop
endfacet
facet normal -0.0703228 -0.997513 0.00476538
  outer loop
    vertex -1.527046799436079 7.860757929338673 6.255163149793326
    vertex 2.496713332934617 7.578804757239499 6.614026408957809
    vertex 0.6400503688901036 7.723619044336043 9.528460310044292
  endloop
endfacet
facet normal -0.621407 0.783398 -0.0118367
  outer loop
    vertex 3.516530407934719 -7.462459646951832 3.182873603065826
    vertex 5.115684068387619 -6.145296827724995 6.404816602690421
    vertex 6.444006225574763 -5.138923482688389 3.275744402997496
  endloop
endfacet
facet normal 0.376871 -0.917521 -0.126978
  outer loop
    vertex -1.527046799436079 7.860757929338673 6.255163149793326
    vertex -4.435204535415617 6.669466553984266 6.231811904552469
    vertex -3.328218249097076 7.551970128738257 3.140526013033483
  endloop
endfacet
facet normal -0.373224 -0.924427 -0.0783482
  outer loop
    vertex 3.951195972578206 5.467691925813431 22.28754142140019
    vertex 1.001566274695223 6.864228943533423 19.86089243196908
    vertex 4.079542761631254 5.697387839402904 18.96596789287682
  endloop
endfacet
facet normal 0.196711 -0.980321 -0.0165668
  outer loop
    vertex -3.328218249097076 7.551970128738257 3.140526013033483
    vertex 0.1768101451758364 8.256477665760739 3.07019239150738
    vertex -1.527046799436079 7.860757929338673 6.255163149793326
  endloop
endfacet
facet normal 0.986567 -0.0250321 -0.161431
  outer loop
    vertex -7.059384911822248 1.017372437321692 17.37804576335462
    vertex -6.497646580873913 2.253151338026271 20.61942377768194
    vertex -6.688265447764789 -1.774809661934549 20.07906819755062
  endloop
endfacet
facet normal -0.978572 0.19096 -0.0770153
  outer loop
    vertex 8.20486859940768 0 3.75
    vertex 7.446852399227629 -3.021434070145303 5.889845871374565
    vertex 7.909737198815361 0 7.5
  endloop
endfacet
facet normal -0.218975 0.965869 -0.138375
  outer loop
    vertex 0.02541945877180671 -8.244005613913833 3.252219138484751
    vertex 3.516530407934719 -7.462459646951832 3.182873603065826
    vertex 1.891427938628715 -8.28688725354549 0
  endloop
endfacet
facet normal -0.347508 0.931662 -0.106038
  outer loop
    vertex 3.808836838208858 -5.576359388111312 22.19772736351671
    vertex 1.078711226605124 -6.833556804072095 20.0990187780743
    vertex 0.583184378029948 -6.610343778606675 23.68412351933055
  endloop
endfacet
facet normal 0.999393 -0.00545538 -0.0344116
  outer loop
    vertex -7.652686546918734 -0.8652792447337266 10.1465501413426
    vertex -7.77387715735626 -1.745671625655481 6.766469271136899
    vertex -7.732374222076905 1.692817244615802 7.426695536823367
  endloop
endfacet
facet normal -0.74642 -0.661284 -0.0745715
  outer loop
    vertex 3.951195972578206 5.467691925813431 22.28754142140019
    vertex 4.079542761631254 5.697387839402904 18.96596789287682
    vertex 6.030426921913523 3.315142936432207 20.56390362555811
  endloop
endfacet
facet normal 0.290609 0.955992 -0.0403126
  outer loop
    vertex -1.115350395072114 -7.610862211915352 10.26465918801575
    vertex -0.480147328209627 -7.949722176918054 6.807870818822529
    vertex -3.842921675332811 -6.884958516825834 7.816349747052293
  endloop
endfacet
facet normal 0.57881 0.806848 -0.118213
  outer loop
    vertex -5.282251158842146 -4.043635587206932 23.47718689715781
    vertex -2.394242661189467 -6.329774444641263 22.01407593097512
    vertex -5.079070370132237 -4.74553590113238 19.68130259540987
  endloop
endfacet
facet normal -0.381531 0.922636 -0.0563721
  outer loop
    vertex 4.248464262170613 -5.623556289402414 18.44983300405934
    vertex 1.078711226605124 -6.833556804072095 20.0990187780743
    vertex 3.808836838208858 -5.576359388111312 22.19772736351671
  endloop
endfacet
facet normal 0.622035 0.77899 -0.0790444
  outer loop
    vertex -3.576348350718526 -7.426363871863371 3.270042865940262
    vertex -6.500614419880497 -5.184067011240019 2.355756755117142
    vertex -6.338255444427195 -5.011109874420651 5.337939321930172
  endloop
endfacet
facet normal -0.304406 0.945176 -0.118234
  outer loop
    vertex 0.583184378029948 -6.610343778606675 23.68412351933055
    vertex -2.941669972056762e-14 -6.36093260776399 27.17942823022604
    vertex 3.647322906941605 -5.293579605493962 26.32155816239277
  endloop
endfacet
facet normal -0.511792 -0.858626 -0.0288373
  outer loop
    vertex 5.217405321755745 5.353844160894056 13.01592149355957
    vertex 2.913031540810131 6.626018443291355 16.03415148950243
    vertex 2.210040368601879 7.149807621937278 12.91479151094538
  endloop
endfacet
facet normal -0.974348 -0.220976 -0.0426014
  outer loop
    vertex 7.614605798223042 0 11.25
    vertex 6.867907771761655 2.938994059302652 13.08318683177723
    vertex 6.88179807367728 3.574754373617259 9.467770368579412
  endloop
endfacet
facet normal -0.939422 -0.276476 -0.202601
  outer loop
    vertex 5.702322051104725 4.398723668277261 16.4957918172313
    vertex 6.867907771761655 2.938994059302652 13.08318683177723
    vertex 7.319474397630723 0 15
  endloop
endfacet
facet normal 0.974885 -0.222511 -0.00937086
  outer loop
    vertex -7.658235377170581 3.688011782499204 0
    vertex -8.117451974093086 1.549806172878563 2.997718948072059
    vertex -8.5 -5.935518276033327e-14 0
  endloop
endfacet
facet normal -0.200133 -0.972219 -0.121398
  outer loop
    vertex 3.077934306507414 7.671987172127081 2.968401677572572
    vertex 0.1768101451758364 8.256477665760739 3.07019239150738
    vertex 1.891427938628656 8.286887253545505 0
  endloop
endfacet
facet normal 0.192451 -0.971374 -0.139266
  outer loop
    vertex -1.89142793862869 8.286887253545498 0
    vertex 0.1768101451758364 8.256477665760739 3.07019239150738
    vertex -3.328218249097076 7.551970128738257 3.140526013033483
  endloop
endfacet
facet normal 0.924053 0.360538 -0.127039
  outer loop
    vertex -6.427277080261595 -4.401077460014489 9.025260135302254
    vertex -7.77387715735626 -1.745671625655481 6.766469271136899
    vertex -7.652686546918734 -0.8652792447337266 10.1465501413426
  endloop
endfacet
facet normal -0.314898 -0.936537 -0.154073
  outer loop
    vertex 0.6400503688901036 7.723619044336043 9.528460310044292
    vertex 2.496713332934617 7.578804757239499 6.614026408957809
    vertex 4.203621372316408 6.491987397310199 9.731657401064176
  endloop
endfacet
facet normal 0.706105 -0.707792 -0.0211236
  outer loop
    vertex -6.971675345603887 4.185274350968377 4.682637822922516
    vertex -4.435204535415617 6.669466553984266 6.231811904552469
    vertex -6.064238145149547 4.983523616101269 8.26875184548781
  endloop
endfacet
facet normal -0.751431 0.652211 -0.0998627
  outer loop
    vertex 3.647322906941605 -5.293579605493962 26.32155816239277
    vertex 5.729793586018769 -2.765902727232704 27.16016547560687
    vertex 5.802200183389034 -3.133265583254958 24.21605674681581
  endloop
endfacet
facet normal 0.379126 -0.925081 -0.0221164
  outer loop
    vertex -2.912577885823318 7.227485066261903 8.992416687519796
    vertex -4.435204535415617 6.669466553984266 6.231811904552469
    vertex -1.527046799436079 7.860757929338673 6.255163149793326
  endloop
endfacet
facet normal 0.781043 -0.622861 -0.0448907
  outer loop
    vertex -5.299663315799259 6.645567600978236 0
    vertex -5.512019505434862 6.17595550201396 2.821160118599451
    vertex -7.658235377170581 3.688011782499204 0
  endloop
endfacet
facet normal -0.0904207 0.989403 -0.113604
  outer loop
    vertex 2.272147240534957 -7.469567302141711 8.799020322666522
    vertex -0.480147328209627 -7.949722176918054 6.807870818822529
    vertex -1.115350395072114 -7.610862211915352 10.26465918801575
  endloop
endfacet
facet normal -0.972602 -0.219512 -0.0765455
  outer loop
    vertex 6.138948795261445 0 30
    vertex 5.73720038984021 2.728718932814668 27.27945523237269
    vertex 6.434080195853765 0 26.25
  endloop
endfacet
facet normal -0.971968 0.222322 -0.0764955
  outer loop
    vertex 6.434080195853765 0 26.25
    vertex 5.729793586018769 -2.765902727232704 27.16016547560687
    vertex 6.138948795261445 0 30
  endloop
endfacet
facet normal -0.982785 -0.167782 -0.0773469
  outer loop
    vertex 7.909737198815361 0 7.5
    vertex 7.530019766231992 2.648256444856902 6.580114061465657
    vertex 8.20486859940768 0 3.75
  endloop
endfacet
facet normal -0.937682 -0.304671 -0.167117
  outer loop
    vertex 4.96651390296412 3.608383566433321 30
    vertex 5.73720038984021 2.728718932814668 27.27945523237269
    vertex 6.138948795261445 0 30
  endloop
endfacet
facet normal -0.938527 0.304946 -0.161787
  outer loop
    vertex 6.138948795261445 0 30
    vertex 5.729793586018769 -2.765902727232704 27.16016547560687
    vertex 4.966513902964105 -3.608383566433341 30
  endloop
endfacet
facet normal -0.781223 -0.623004 -0.0394576
  outer loop
    vertex 7.65823537717056 3.68801178249925 0
    vertex 5.56490991315391 6.143050911368942 2.682713919198047
    vertex 5.299663315799225 6.645567600978262 0
  endloop
endfacet
facet normal -0.38167 -0.921894 -0.066624
  outer loop
    vertex 3.951195972578206 5.467691925813431 22.28754142140019
    vertex 1.114481172722974 6.535621701221082 23.76106347620094
    vertex 1.001566274695223 6.864228943533423 19.86089243196908
  endloop
endfacet
facet normal -0.974735 0.222477 -0.0199066
  outer loop
    vertex 7.658235377170568 -3.688011782499232 0
    vertex 7.821539369198851 -2.725653336484459 2.759106266682327
    vertex 8.5 0 0
  endloop
endfacet
facet normal 0.91182 -0.410589 -0.0014831
  outer loop
    vertex -5.544018991190601 4.379557847734787 18.23120202936508
    vertex -6.497646580873913 2.253151338026271 20.61942377768194
    vertex -7.059384911822248 1.017372437321692 17.37804576335462
  endloop
endfacet
facet normal -0.975398 0.199462 -0.0938825
  outer loop
    vertex 7.909737198815361 0 7.5
    vertex 7.446852399227629 -3.021434070145303 5.889845871374565
    vertex 7.08297897401194 -3.185599179721196 9.321546389058678
  endloop
endfacet
facet normal 0.734273 -0.665178 -0.135576
  outer loop
    vertex -6.971675345603887 4.185274350968377 4.682637822922516
    vertex -5.512019505434862 6.17595550201396 2.821160118599451
    vertex -4.435204535415617 6.669466553984266 6.231811904552469
  endloop
endfacet
facet normal 0.882435 0.445678 -0.150596
  outer loop
    vertex -8.035544329520077 -1.834060556385797 3.275744402997525
    vertex -6.500614419880497 -5.184067011240019 2.355756755117142
    vertex -7.658235377170531 -3.688011782499311 0
  endloop
endfacet
facet normal 0.630782 0.761192 -0.150671
  outer loop
    vertex -5.299663315799171 -6.645567600978304 0
    vertex -6.500614419880497 -5.184067011240019 2.355756755117142
    vertex -3.576348350718526 -7.426363871863371 3.270042865940262
  endloop
endfacet
facet normal -0.983023 0.166376 -0.0773656
  outer loop
    vertex 8.5 0 0
    vertex 7.821539369198851 -2.725653336484459 2.759106266682327
    vertex 8.20486859940768 0 3.75
  endloop
endfacet
facet normal 0.940821 -0.291338 -0.17314
  outer loop
    vertex -6.651581864254025 0.0538801835770643 23.48360651313253
    vertex -6.497646580873913 2.253151338026271 20.61942377768194
    vertex -5.521607674741774 3.711177463947748 23.46971568824499
  endloop
endfacet
facet normal 4.60361e-15 0.983275 -0.182129
  outer loop
    vertex 1.897039505333364 -5.838487254935691 30
    vertex -2.941669972056762e-14 -6.36093260776399 27.17942823022604
    vertex -1.897039505333418 -5.838487254935673 30
  endloop
endfacet
facet normal 0.991002 0.0130429 -0.133208
  outer loop
    vertex -8.5 -5.935518276033327e-14 0
    vertex -8.117451974093086 1.549806172878563 2.997718948072059
    vertex -8.035544329520077 -1.834060556385797 3.275744402997525
  endloop
endfacet
facet normal 1.87823e-15 -0.999951 -0.0099043
  outer loop
    vertex 1.891427938628656 8.286887253545505 0
    vertex 0.1768101451758364 8.256477665760739 3.07019239150738
    vertex -1.89142793862869 8.286887253545498 0
  endloop
endfacet
facet normal -0.768277 -0.640028 -0.010693
  outer loop
    vertex 3.622536648042866 5.277293574397683 26.67052399492355
    vertex 5.73720038984021 2.728718932814668 27.27945523237269
    vertex 4.96651390296412 3.608383566433321 30
  endloop
endfacet
facet normal -0.507991 -0.86108 -0.0220496
  outer loop
    vertex 2.496713332934617 7.578804757239499 6.614026408957809
    vertex 5.486370765490238 5.821561979787955 6.360370528647103
    vertex 4.203621372316408 6.491987397310199 9.731657401064176
  endloop
endfacet
facet normal 0.837753 -0.528769 -0.136283
  outer loop
    vertex -5.544018991190601 4.379557847734787 18.23120202936508
    vertex -4.750090870391102 4.937516112088556 20.94675676180055
    vertex -6.497646580873913 2.253151338026271 20.61942377768194
  endloop
endfacet
facet normal 0.838495 -0.544844 -0.0084227
  outer loop
    vertex -6.497646580873913 2.253151338026271 20.61942377768194
    vertex -4.750090870391102 4.937516112088556 20.94675676180055
    vertex -5.521607674741774 3.711177463947748 23.46971568824499
  endloop
endfacet
facet normal 0.105042 -0.994436 -0.00797923
  outer loop
    vertex -2.575478894021413 6.149646117519494 23.28823404560721
    vertex 1.114481172722974 6.535621701221082 23.76106347620094
    vertex 3.230937161659842e-15 6.393824215276587 26.76150073106909
  endloop
endfacet
facet normal -0.752888 -0.649748 -0.104817
  outer loop
    vertex 5.780713895932963 3.157013852263935 24.31196528453247
    vertex 5.73720038984021 2.728718932814668 27.27945523237269
    vertex 3.622536648042866 5.277293574397683 26.67052399492355
  endloop
endfacet
facet normal -0.976733 -0.200207 -0.0768706
  outer loop
    vertex 7.319474397630723 0 15
    vertex 6.867907771761655 2.938994059302652 13.08318683177723
    vertex 7.614605798223042 0 11.25
  endloop
endfacet
facet normal -0.187192 -0.974781 -0.121495
  outer loop
    vertex 2.210040368601879 7.149807621937278 12.91479151094538
    vertex 2.913031540810131 6.626018443291355 16.03415148950243
    vertex -0.2403061156765165 7.238427391729308 15.97912976174245
  endloop
endfacet
facet normal 0.318208 0.921417 -0.22301
  outer loop
    vertex -2.941669972056762e-14 -6.36093260776399 27.17942823022604
    vertex -2.196907548799101 -6.163683345705716 24.85968673701756
    vertex -3.837881846199754 -5.098223484712304 26.92040691605058
  endloop
endfacet
facet normal 0.581945 -0.813223 -0.00304828
  outer loop
    vertex -2.516108283977787 6.543750191036313 18.92194342250528
    vertex -4.750090870391102 4.937516112088556 20.94675676180055
    vertex -5.544018991190601 4.379557847734787 18.23120202936508
  endloop
endfacet
facet normal 0.597212 -0.783645 -0.170993
  outer loop
    vertex -6.064238145149547 4.983523616101269 8.26875184548781
    vertex -4.435204535415617 6.669466553984266 6.231811904552469
    vertex -2.912577885823318 7.227485066261903 8.992416687519796
  endloop
endfacet
facet normal -0.218656 0.975739 -0.0110912
  outer loop
    vertex 0.02541945877180671 -8.244005613913833 3.252219138484751
    vertex 2.275356062672039 -7.710183056098764 5.858629668109838
    vertex 3.516530407934719 -7.462459646951832 3.182873603065826
  endloop
endfacet
facet normal -0.974903 -0.222515 0.00720201
  outer loop
    vertex 8.5 0 0
    vertex 7.998964078723119 2.271200620062803 2.348696816146006
    vertex 7.65823537717056 3.68801178249925 0
  endloop
endfacet
facet normal -0.97951 0.174384 -0.100753
  outer loop
    vertex 8.20486859940768 0 3.75
    vertex 7.821539369198851 -2.725653336484459 2.759106266682327
    vertex 7.446852399227629 -3.021434070145303 5.889845871374565
  endloop
endfacet
facet normal 0.53749 -0.84191 -0.047875
  outer loop
    vertex -4.435204535415617 6.669466553984266 6.231811904552469
    vertex -5.512019505434862 6.17595550201396 2.821160118599451
    vertex -3.328218249097076 7.551970128738257 3.140526013033483
  endloop
endfacet
facet normal -0.119914 0.987855 -0.09881
  outer loop
    vertex -0.480147328209627 -7.949722176918054 6.807870818822529
    vertex 2.275356062672039 -7.710183056098764 5.858629668109838
    vertex 0.02541945877180671 -8.244005613913833 3.252219138484751
  endloop
endfacet
facet normal -0.987453 -0.13747 -0.0777142
  outer loop
    vertex 8.20486859940768 0 3.75
    vertex 7.998964078723119 2.271200620062803 2.348696816146006
    vertex 8.5 0 0
  endloop
endfacet
facet normal 0.781777 0.623447 0.0117621
  outer loop
    vertex -7.658235377170531 -3.688011782499311 0
    vertex -6.500614419880497 -5.184067011240019 2.355756755117142
    vertex -5.299663315799171 -6.645567600978304 0
  endloop
endfacet
facet normal -0.971958 -0.230308 -0.0474924
  outer loop
    vertex 6.434080195853765 0 26.25
    vertex 5.73720038984021 2.728718932814668 27.27945523237269
    vertex 5.780713895932963 3.157013852263935 24.31196528453247
  endloop
endfacet
facet normal -0.971738 0.230122 -0.0526131
  outer loop
    vertex 5.802200183389034 -3.133265583254958 24.21605674681581
    vertex 5.729793586018769 -2.765902727232704 27.16016547560687
    vertex 6.434080195853765 0 26.25
  endloop
endfacet
facet normal -0.873125 0.474059 -0.113671
  outer loop
    vertex 6.444006225574763 -5.138923482688389 3.275744402997496
    vertex 7.821539369198851 -2.725653336484459 2.759106266682327
    vertex 7.658235377170568 -3.688011782499232 0
  endloop
endfacet
facet normal 0.54077 -0.8354 -0.0983561
  outer loop
    vertex -3.328218249097076 7.551970128738257 3.140526013033483
    vertex -5.512019505434862 6.17595550201396 2.821160118599451
    vertex -5.299663315799259 6.645567600978236 0
  endloop
endfacet
facet normal -0.968798 -0.192948 -0.155569
  outer loop
    vertex 6.88179807367728 3.574754373617259 9.467770368579412
    vertex 7.530019766231992 2.648256444856902 6.580114061465657
    vertex 7.909737198815361 0 7.5
  endloop
endfacet
facet normal -0.458853 0.878729 -0.13149
  outer loop
    vertex 3.516530407934719 -7.462459646951832 3.182873603065826
    vertex 2.275356062672039 -7.710183056098764 5.858629668109838
    vertex 5.115684068387619 -6.145296827724995 6.404816602690421
  endloop
endfacet
facet normal -0.529561 -0.84171 -0.105307
  outer loop
    vertex 5.299663315799225 6.645567600978262 0
    vertex 5.56490991315391 6.143050911368942 2.682713919198047
    vertex 3.077934306507414 7.671987172127081 2.968401677572572
  endloop
endfacet
facet normal -0.823737 -0.542017 -0.166356
  outer loop
    vertex 7.106776244531228 4.036796325545044 4.151769808177743
    vertex 7.530019766231992 2.648256444856902 6.580114061465657
    vertex 5.486370765490238 5.821561979787955 6.360370528647103
  endloop
endfacet
facet normal -0.872327 0.485406 -0.0585408
  outer loop
    vertex 7.446852399227629 -3.021434070145303 5.889845871374565
    vertex 7.821539369198851 -2.725653336484459 2.759106266682327
    vertex 6.444006225574763 -5.138923482688389 3.275744402997496
  endloop
endfacet
facet normal -0.470563 0.879385 -0.0724747
  outer loop
    vertex 5.115684068387619 -6.145296827724995 6.404816602690421
    vertex 2.275356062672039 -7.710183056098764 5.858629668109838
    vertex 2.272147240534957 -7.469567302141711 8.799020322666522
  endloop
endfacet
facet normal -0.840183 -0.542104 -0.0146715
  outer loop
    vertex 5.486370765490238 5.821561979787955 6.360370528647103
    vertex 7.530019766231992 2.648256444856902 6.580114061465657
    vertex 6.88179807367728 3.574754373617259 9.467770368579412
  endloop
endfacet
facet normal -0.114031 0.990157 -0.0811502
  outer loop
    vertex 2.272147240534957 -7.469567302141711 8.799020322666522
    vertex 2.275356062672039 -7.710183056098764 5.858629668109838
    vertex -0.480147328209627 -7.949722176918054 6.807870818822529
  endloop
endfacet
facet normal 0.138876 0.989174 -0.0474124
  outer loop
    vertex 0.583184378029948 -6.610343778606675 23.68412351933055
    vertex -2.196907548799101 -6.163683345705716 24.85968673701756
    vertex -2.941669972056762e-14 -6.36093260776399 27.17942823022604
  endloop
endfacet
facet normal 0.130679 0.989172 -0.0667977
  outer loop
    vertex -2.394242661189467 -6.329774444641263 22.01407593097512
    vertex -2.196907548799101 -6.163683345705716 24.85968673701756
    vertex 0.583184378029948 -6.610343778606675 23.68412351933055
  endloop
endfacet
facet normal 0 0 -1
  outer loop
    vertex 1.418636592851676 -1.600740884023626 30
    vertex -2.889496947311632 -0.6879800777284701 30
    vertex -1.298486078613641 2.124521011010444 30
  endloop
endfacet
facet normal 0 -0 -1
  outer loop
    vertex 1.897039505333364 5.838487254935691 30
    vertex 2.461487321082315 1.850730316431039 30
    vertex -1.298486078613641 2.124521011010444 30
  endloop
endfacet
facet normal 0 0 -1
  outer loop
    vertex 1.418636592851676 -1.600740884023626 30
    vertex 2.461487321082315 1.850730316431039 30
    vertex 6.138948795261445 0 30
  endloop
endfacet
facet normal 0 0 -1
  outer loop
    vertex -1.298486078613641 2.124521011010444 30
    vertex 2.461487321082315 1.850730316431039 30
    vertex 1.418636592851676 -1.600740884023626 30
  endloop
endfacet
facet normal 0 0 -1
  outer loop
    vertex 4.96651390296412 -3.608383566433321 30
    vertex 1.418636592851676 -1.600740884023626 30
    vertex 6.138948795261445 0 30
  endloop
endfacet
facet normal 0 0 -1
  outer loop
    vertex 1.897039505333364 5.838487254935691 30
    vertex -1.298486078613641 2.124521011010444 30
    vertex -1.897039505333418 5.838487254935673 30
  endloop
endfacet
facet normal -0 0 -1
  outer loop
    vertex -1.298486078613641 2.124521011010444 30
    vertex -2.889496947311632 -0.6879800777284701 30
    vertex -4.966513902964127 3.608383566433311 30
  endloop
endfacet
facet normal 0 -0 -1
  outer loop
    vertex -4.966513902964127 3.608383566433311 30
    vertex -2.889496947311632 -0.6879800777284701 30
    vertex -6.138948795261445 -8.93052715861759e-15 30
  endloop
endfacet
facet normal -0 0 -1
  outer loop
    vertex 1.418636592851676 -1.600740884023626 30
    vertex -1.121193861537127 -3.120857724770775 30
    vertex -2.889496947311632 -0.6879800777284701 30
  endloop
endfacet
facet normal 0 0 -1
  outer loop
    vertex 6.138948795261445 0 30
    vertex 2.461487321082315 1.850730316431039 30
    vertex 4.966513902964105 3.608383566433341 30
  endloop
endfacet
facet normal -0 0 -1
  outer loop
    vertex 4.966513902964105 3.608383566433341 30
    vertex 2.461487321082315 1.850730316431039 30
    vertex 1.897039505333364 5.838487254935691 30
  endloop
endfacet
facet normal 0 0 -1
  outer loop
    vertex 1.897039505333399 -5.838487254935679 30
    vertex 1.418636592851676 -1.600740884023626 30
    vertex 4.96651390296412 -3.608383566433321 30
  endloop
endfacet
facet normal 0 -0 -1
  outer loop
    vertex -1.897039505333418 5.838487254935673 30
    vertex -1.298486078613641 2.124521011010444 30
    vertex -4.966513902964127 3.608383566433311 30
  endloop
endfacet
facet normal 0 0 -1
  outer loop
    vertex 1.897039505333399 -5.838487254935679 30
    vertex -1.121193861537127 -3.120857724770775 30
    vertex 1.418636592851676 -1.600740884023626 30
  endloop
endfacet
facet normal 0 0 -1
  outer loop
    vertex -1.897039505333393 -5.838487254935681 30
    vertex -1.121193861537127 -3.120857724770775 30
    vertex 1.897039505333399 -5.838487254935679 30
  endloop
endfacet
facet normal 0 0 -1
  outer loop
    vertex -4.966513902964116 -3.608383566433327 30
    vertex -1.121193861537127 -3.120857724770775 30
    vertex -1.897039505333393 -5.838487254935681 30
  endloop
endfacet
facet normal 0 0 -1
  outer loop
    vertex -6.138948795261445 -8.93052715861759e-15 30
    vertex -2.889496947311632 -0.6879800777284701 30
    vertex -4.966513902964116 -3.608383566433327 30
  endloop
endfacet
facet normal 0 -0 -1
  outer loop
    vertex -2.889496947311632 -0.6879800777284701 30
    vertex -1.121193861537127 -3.120857724770775 30
    vertex -4.966513902964116 -3.608383566433327 30
  endloop
endfacet
endsolid Created by Gmsh
