solid Created by Gmsh
facet normal 0.271143 0.949826 -0.155921
  outer loop
    vertex -3.636054288661558 -5.075735231904324 28.66881718602598
    vertex 0.09321334947935404 -6.337625862366359 27.46685903354385
    vertex -1.534582549944221 -6.419442512716159 24.13775990345767
  endloop
endfacet
facet normal 0.248609 0.96765 -0.0429702
  outer loop
    vertex -0.2500138339449554 -8.240993757971433 3.242809927057554
    vertex -3.753594910399548 -7.340928930622343 3.241093688282117
    vertex -2.935127412833275 -7.380908263471065 7.076131716873928
  endloop
endfacet
facet normal 0.124431 0.983214 -0.133444
  outer loop
    vertex -2.935127412833275 -7.380908263471065 7.076131716873928
    vertex 0.8432193187658702 -7.952955397131946 6.384461061104886
    vertex -0.2500138339449554 -8.240993757971433 3.242809927057554
  endloop
endfacet
facet normal -0.766955 -0.635347 -0.0900794
  outer loop
    vertex 4.460141993072563 5.996957154796672 13.04023338933022
    vertex 6.749102559334705 3.319609263281015 12.43536210956093
    vertex 6.58622736732095 3.01813288809165 15.94848616584764
  endloop
endfacet
facet normal 0.590254 0.806476 0.0345912
  outer loop
    vertex -3.636054288661558 -5.075735231904324 28.66881718602598
    vertex -1.534582549944221 -6.419442512716159 24.13775990345767
    vertex -5.385474119915509 -3.651912047758251 25.32469224406545
  endloop
endfacet
facet normal -0.788111 -0.613328 -0.0520604
  outer loop
    vertex 6.58622736732095 3.01813288809165 15.94848616584764
    vertex 4.557939448845938 5.5886144386987 16.3704549971662
    vertex 4.460141993072563 5.996957154796672 13.04023338933022
  endloop
endfacet
facet normal 0.0841677 -0.992661 -0.0868366
  outer loop
    vertex -2.391441176871712 6.034994967864461 25.51984172762871
    vertex -2.350817658462695 6.367457531969506 21.75871775961333
    vertex 1.258711941100602 6.629777011703656 22.25863932647864
  endloop
endfacet
facet normal -0.78286 -0.617239 -0.0783969
  outer loop
    vertex 4.90795337357229 6.276717212421227 6.76276167992679
    vertex 7.328767753922794 3.356598787722331 5.579701650493
    vertex 7.11468060880923 3.226999571950441 8.737914592355594
  endloop
endfacet
facet normal 0.999295 0.00204405 -0.0374961
  outer loop
    vertex -7.93514896868569 0.8514758956710052 6.598309936424432
    vertex -8.072269441529826 -1.84244282354827 2.797107176260873
    vertex -8.064395731095605 1.730701008103087 3.201732140607096
  endloop
endfacet
facet normal 0.962205 0.271668 0.0189292
  outer loop
    vertex -5.385474119915509 -3.651912047758251 25.32469224406545
    vertex -6.481282988081093 0.2095832313185806 25.60718648597298
    vertex -5.916248580815322 -2.002903544133776 28.6386626776067
  endloop
endfacet
facet normal 0.1022 -0.99253 -0.0666297
  outer loop
    vertex 1.258711941100602 6.629777011703656 22.25863932647864
    vertex 1.092201884428314 6.365717084570091 25.93672987279763
    vertex -2.391441176871712 6.034994967864461 25.51984172762871
  endloop
endfacet
facet normal 0.970942 0.177332 -0.1607
  outer loop
    vertex -7.23700945886118 -3.464575306026031 6.053686473608536
    vertex -8.072269441529826 -1.84244282354827 2.797107176260873
    vertex -7.93514896868569 0.8514758956710052 6.598309936424432
  endloop
endfacet
facet normal 0.939886 0.280923 -0.194157
  outer loop
    vertex -6.49870229510574 -1.636030502210455 22.85246465255064
    vertex -6.481282988081093 0.2095832313185806 25.60718648597298
    vertex -5.385474119915509 -3.651912047758251 25.32469224406545
  endloop
endfacet
facet normal -0.790149 -0.594282 -0.149975
  outer loop
    vertex 6.288629775987012 5.334407655401807 3.222558131223401
    vertex 7.328767753922794 3.356598787722331 5.579701650493
    vertex 4.90795337357229 6.276717212421227 6.76276167992679
  endloop
endfacet
facet normal -0.647133 -0.7529 -0.119833
  outer loop
    vertex 3.466421529375348 6.058436091013716 19.31313439836358
    vertex 4.557939448845938 5.5886144386987 16.3704549971662
    vertex 5.476670893014006 4.315029039550378 19.41087498379792
  endloop
endfacet
facet normal -0.800569 -0.598505 -0.0296847
  outer loop
    vertex 7.11468060880923 3.226999571950441 8.737914592355594
    vertex 5.297149938511711 5.586519196198957 10.18229675209779
    vertex 4.90795337357229 6.276717212421227 6.76276167992679
  endloop
endfacet
facet normal 0.999825 0.00124161 0.0186826
  outer loop
    vertex -5.981545381612207 3.526494494918653e-14 32
    vertex -5.916248580815322 -2.002903544133776 28.6386626776067
    vertex -5.924973451658162 1.925140574100846 28.84453625669912
  endloop
endfacet
facet normal 0.938269 0.304862 -0.16343
  outer loop
    vertex -4.839171866349272 -3.515864161229786 32
    vertex -5.916248580815322 -2.002903544133776 28.6386626776067
    vertex -5.981545381612207 3.526494494918653e-14 32
  endloop
endfacet
facet normal -0.170655 0.984846 -0.0309097
  outer loop
    vertex -0.2500138339449554 -8.240993757971433 3.242809927057554
    vertex 0.8432193187658702 -7.952955397131946 6.384461061104886
    vertex 3.010928004620223 -7.676287016922433 3.231572081395075
  endloop
endfacet
facet normal 0.0294226 0.998809 -0.0389334
  outer loop
    vertex 0.09321334947935404 -6.337625862366359 27.46685903354385
    vertex 1.137496962559451 -6.494912870826012 24.22095855271245
    vertex -1.534582549944221 -6.419442512716159 24.13775990345767
  endloop
endfacet
facet normal -0.295492 0.94778 -0.119991
  outer loop
    vertex 0.8432193187658702 -7.952955397131946 6.384461061104886
    vertex 3.731393350781965 -7.12370286028372 5.822068694734398
    vertex 3.010928004620223 -7.676287016922433 3.231572081395075
  endloop
endfacet
facet normal -0.6055 -0.795471 -0.0244109
  outer loop
    vertex 4.90795337357229 6.276717212421227 6.76276167992679
    vertex 3.47029812773945 7.479157032401323 3.239516624632614
    vertex 6.288629775987012 5.334407655401807 3.222558131223401
  endloop
endfacet
facet normal -0.746937 -0.659616 -0.0836108
  outer loop
    vertex 3.523496589089724 5.145798163495429 28.76015346044662
    vertex 3.813690158854414 5.335514239785283 24.67101200822943
    vertex 5.660961266150363 2.998121274474248 26.60840170342776
  endloop
endfacet
facet normal -0.65397 -0.75585 -0.0318468
  outer loop
    vertex 5.476670893014006 4.315029039550378 19.41087498379792
    vertex 4.177331698487823 5.333357905740719 21.92365934969352
    vertex 3.466421529375348 6.058436091013716 19.31313439836358
  endloop
endfacet
facet normal 0.618382 -0.785877 0.00132854
  outer loop
    vertex -3.673038133272946 5.032163066878392 28.84209124621905
    vertex -5.263788210455709 3.775135489465537 25.69721232713861
    vertex -2.391441176871712 6.034994967864461 25.51984172762871
  endloop
endfacet
facet normal -0.411515 -0.900668 -0.139469
  outer loop
    vertex 1.608624168431093 7.824723459724684 6.500944179343048
    vertex 3.47029812773945 7.479157032401323 3.239516624632614
    vertex 4.90795337357229 6.276717212421227 6.76276167992679
  endloop
endfacet
facet normal -0.767985 -0.626077 -0.135008
  outer loop
    vertex 4.460141993072563 5.996957154796672 13.04023338933022
    vertex 5.297149938511711 5.586519196198957 10.18229675209779
    vertex 6.749102559334705 3.319609263281015 12.43536210956093
  endloop
endfacet
facet normal -0.381407 -0.921766 -0.0698327
  outer loop
    vertex 3.523496589089724 5.145798163495429 28.76015346044662
    vertex 1.092201884428314 6.365717084570091 25.93672987279763
    vertex 3.813690158854414 5.335514239785283 24.67101200822943
  endloop
endfacet
facet normal 0.792827 0.586698 -0.164956
  outer loop
    vertex -5.385474119915509 -3.651912047758251 25.32469224406545
    vertex -5.916248580815322 -2.002903544133776 28.6386626776067
    vertex -3.636054288661558 -5.075735231904324 28.66881718602598
  endloop
endfacet
facet normal 0.802955 0.59594 0.0109449
  outer loop
    vertex -3.636054288661558 -5.075735231904324 28.66881718602598
    vertex -5.916248580815322 -2.002903544133776 28.6386626776067
    vertex -4.839171866349272 -3.515864161229786 32
  endloop
endfacet
facet normal -0.766475 0.635182 -0.0951881
  outer loop
    vertex 5.710063229231158 -2.904064013360406 26.60523185330121
    vertex 4.142802178180099 -5.082233800359607 24.69042181918255
    vertex 3.661834975565529 -5.040083456117407 28.8445362566991
  endloop
endfacet
facet normal -0.310082 0.946598 -0.0883261
  outer loop
    vertex 0.09321334947935404 -6.337625862366359 27.46685903354385
    vertex -0.02768745732901952 -6.128223610894007 30.13548166650449
    vertex 3.661834975565529 -5.040083456117407 28.8445362566991
  endloop
endfacet
facet normal 0.984468 0.0113689 -0.175197
  outer loop
    vertex -5.916248580815322 -2.002903544133776 28.6386626776067
    vertex -6.481282988081093 0.2095832313185806 25.60718648597298
    vertex -5.924973451658162 1.925140574100846 28.84453625669912
  endloop
endfacet
facet normal -0.786529 -0.6172 -0.0208682
  outer loop
    vertex 5.476670893014006 4.315029039550378 19.41087498379792
    vertex 4.557939448845938 5.5886144386987 16.3704549971662
    vertex 6.58622736732095 3.01813288809165 15.94848616584764
  endloop
endfacet
facet normal 0.317022 -0.934843 -0.159891
  outer loop
    vertex -3.673038133272946 5.032163066878392 28.84209124621905
    vertex -2.391441176871712 6.034994967864461 25.51984172762871
    vertex -0.1455552403297766 6.228362896027993 28.84227843884016
  endloop
endfacet
facet normal 0.797517 -0.578167 -0.172305
  outer loop
    vertex -5.924973451658162 1.925140574100846 28.84453625669912
    vertex -5.263788210455709 3.775135489465537 25.69721232713861
    vertex -3.673038133272946 5.032163066878392 28.84209124621905
  endloop
endfacet
facet normal 0.321125 -0.946969 0.0113577
  outer loop
    vertex -1.848399175543124 5.68878771269748 32
    vertex -3.673038133272946 5.032163066878392 28.84209124621905
    vertex -0.1455552403297766 6.228362896027993 28.84227843884016
  endloop
endfacet
facet normal -0.579632 -0.797795 -0.165979
  outer loop
    vertex 1.848399175543169 5.688787712697465 32
    vertex 3.523496589089724 5.145798163495429 28.76015346044662
    vertex 4.839171866349261 3.515864161229802 32
  endloop
endfacet
facet normal -0.741989 0.652405 -0.154338
  outer loop
    vertex 4.516880511022379 -5.501262506230087 17.55981900684808
    vertex 3.347904181663184 -5.945878577050593 21.30029290541079
    vertex 6.253131970794618 -3.070093787440532 19.48951292357609
  endloop
endfacet
facet normal 0.809578 -0.58676 0.0172181
  outer loop
    vertex -5.924973451658162 1.925140574100846 28.84453625669912
    vertex -3.673038133272946 5.032163066878392 28.84209124621905
    vertex -4.839171866349234 3.515864161229839 32
  endloop
endfacet
facet normal -0.501916 0.862328 -0.066862
  outer loop
    vertex 4.142802178180099 -5.082233800359607 24.69042181918255
    vertex 2.449782231254545 -5.918967706316854 26.60800692784914
    vertex 3.661834975565529 -5.040083456117407 28.8445362566991
  endloop
endfacet
facet normal -0.251713 0.9394 -0.232742
  outer loop
    vertex 3.661834975565529 -5.040083456117407 28.8445362566991
    vertex 2.449782231254545 -5.918967706316854 26.60800692784914
    vertex 0.09321334947935404 -6.337625862366359 27.46685903354385
  endloop
endfacet
facet normal -0.72563 0.683585 -0.0785725
  outer loop
    vertex 6.253131970794618 -3.070093787440532 19.48951292357609
    vertex 3.347904181663184 -5.945878577050593 21.30029290541079
    vertex 6.023340124648875 -2.909770001249897 23.00650452124165
  endloop
endfacet
facet normal -0.234852 -0.959171 -0.157593
  outer loop
    vertex 1.876735281039451 6.994615245056305 15.98421805188429
    vertex 3.466421529375348 6.058436091013716 19.31313439836358
    vertex -0.1510792833222301 7.009856354323211 18.91338617144594
  endloop
endfacet
facet normal -0.0333773 -0.999282 -0.0179071
  outer loop
    vertex -1.528835449221198 7.116830331231434 15.5118576685551
    vertex 1.876735281039451 6.994615245056305 15.98421805188429
    vertex -0.1510792833222301 7.009856354323211 18.91338617144594
  endloop
endfacet
facet normal 0.027391 0.993939 -0.106465
  outer loop
    vertex -1.500443612994196 -7.017719308633058 16.81881931270951
    vertex -1.92785153621124 -6.610065186988825 20.51466295992344
    vertex 1.39218776337728 -6.868290559564713 18.95807631239962
  endloop
endfacet
facet normal 0.447933 0.892848 -0.0466802
  outer loop
    vertex -4.541286560723903 -5.424515334338408 18.1126050584183
    vertex -1.92785153621124 -6.610065186988825 20.51466295992344
    vertex -1.500443612994196 -7.017719308633058 16.81881931270951
  endloop
endfacet
facet normal -0.781592 0.623299 -0.0247538
  outer loop
    vertex 5.299663315799263 -6.645567600978231 0
    vertex 5.935433201386005 -5.717957749340483 3.282946014454936
    vertex 7.658235377170568 -3.688011782499232 0
  endloop
endfacet
facet normal -0.781758 -0.623431 -0.0137424
  outer loop
    vertex 7.65823537717056 3.68801178249925 0
    vertex 6.288629775987012 5.334407655401807 3.222558131223401
    vertex 5.299663315799225 6.645567600978262 0
  endloop
endfacet
facet normal -0.34802 -0.923119 -0.163501
  outer loop
    vertex 2.813351436857939 7.204670153536822 9.726823081526838
    vertex 4.460141993072563 5.996957154796672 13.04023338933022
    vertex 0.7437879365595462 7.467727511564831 12.64677967292276
  endloop
endfacet
facet normal 0.302244 0.95128 -0.0609523
  outer loop
    vertex -3.636054288661558 -5.075735231904324 28.66881718602598
    vertex -0.02768745732901952 -6.128223610894007 30.13548166650449
    vertex 0.09321334947935404 -6.337625862366359 27.46685903354385
  endloop
endfacet
facet normal 0.922161 0.365922 -0.125377
  outer loop
    vertex -7.408080338266843 -0.9304146031903998 13.13466766561416
    vertex -6.228314726307215 -4.266948960810649 12.07404353221198
    vertex -7.513688607739801 -1.895218064600655 9.542058863062163
  endloop
endfacet
facet normal 0.692046 -0.721129 -0.0323237
  outer loop
    vertex -5.822486644759925 4.885377731332887 11.42867441904133
    vertex -6.615250025263538 4.284670790363537 7.857260584128792
    vertex -4.112484977498629 6.65149659840968 8.638155955194986
  endloop
endfacet
facet normal -0.282661 -0.959109 0.0145998
  outer loop
    vertex -0.1455552403297766 6.228362896027993 28.84227843884016
    vertex 3.523496589089724 5.145798163495429 28.76015346044662
    vertex 1.848399175543169 5.688787712697465 32
  endloop
endfacet
facet normal -6.57347e-15 0.9999 -0.014151
  outer loop
    vertex -1.891427938628608 -8.286887253545515 0
    vertex -0.2500138339449554 -8.240993757971433 3.242809927057554
    vertex 1.891427938628715 -8.28688725354549 0
  endloop
endfacet
facet normal 1.87817e-15 -0.999916 -0.0129301
  outer loop
    vertex 1.891427938628656 8.286887253545505 0
    vertex -0.02904728270762047 8.244996971242305 3.239470554522157
    vertex -1.89142793862869 8.286887253545498 0
  endloop
endfacet
facet normal -0.0168685 -0.99074 -0.13472
  outer loop
    vertex 0.7437879365595462 7.467727511564831 12.64677967292276
    vertex 1.876735281039451 6.994615245056305 15.98421805188429
    vertex -1.528835449221198 7.116830331231434 15.5118576685551
  endloop
endfacet
facet normal 0.58908 -0.794567 -0.147135
  outer loop
    vertex -3.644381778640438 6.043892191372628 18.32703938627034
    vertex -2.350817658462695 6.367457531969506 21.75871775961333
    vertex -5.338270156410376 4.277550418777444 21.08397263668491
  endloop
endfacet
facet normal 0.435936 -0.899847 -0.0153588
  outer loop
    vertex -4.793337312105813 5.54650524562572 14.85681008220622
    vertex -1.528835449221198 7.116830331231434 15.5118576685551
    vertex -3.644381778640438 6.043892191372628 18.32703938627034
  endloop
endfacet
facet normal -0.579329 0.797378 -0.169013
  outer loop
    vertex 4.839171866349252 -3.515864161229814 32
    vertex 3.661834975565529 -5.040083456117407 28.8445362566991
    vertex 1.848399175543141 -5.688787712697475 32
  endloop
endfacet
facet normal 0.994651 0.0999818 -0.0259277
  outer loop
    vertex -6.499916038168962 -2.554750637875044 19.26314915626438
    vertex -6.832509776127507 1.008904330445804 20.24610872964431
    vertex -6.49870229510574 -1.636030502210455 22.85246465255064
  endloop
endfacet
facet normal 0.286323 -0.946982 -0.145754
  outer loop
    vertex -1.528835449221198 7.116830331231434 15.5118576685551
    vertex -0.1510792833222301 7.009856354323211 18.91338617144594
    vertex -3.644381778640438 6.043892191372628 18.32703938627034
  endloop
endfacet
facet normal -0.367322 -0.930066 -0.00715185
  outer loop
    vertex 4.460141993072563 5.996957154796672 13.04023338933022
    vertex 1.876735281039451 6.994615245056305 15.98421805188429
    vertex 0.7437879365595462 7.467727511564831 12.64677967292276
  endloop
endfacet
facet normal 0.719775 -0.679763 -0.140879
  outer loop
    vertex -4.793337312105813 5.54650524562572 14.85681008220622
    vertex -3.644381778640438 6.043892191372628 18.32703938627034
    vertex -6.201453637621187 3.489530842972356 17.58771156705011
  endloop
endfacet
facet normal -4.026e-15 -0.985713 -0.168434
  outer loop
    vertex -1.848399175543124 5.68878771269748 32
    vertex -0.1455552403297766 6.228362896027993 28.84227843884016
    vertex 1.848399175543169 5.688787712697465 32
  endloop
endfacet
facet normal -0.786637 0.613914 -0.0656728
  outer loop
    vertex 4.516880511022379 -5.501262506230087 17.55981900684808
    vertex 6.253131970794618 -3.070093787440532 19.48951292357609
    vertex 6.582654700255437 -3.0276328112061 15.93937872622094
  endloop
endfacet
facet normal 0.893555 -0.430951 -0.125861
  outer loop
    vertex -7.476820869838424 1.724632878122572 10.50614363326135
    vertex -6.615250025263538 4.284670790363537 7.857260584128792
    vertex -5.822486644759925 4.885377731332887 11.42867441904133
  endloop
endfacet
facet normal 0.812172 -0.583062 -0.0204
  outer loop
    vertex -6.912519492652235 2.622381880489489 14.06287832796314
    vertex -4.793337312105813 5.54650524562572 14.85681008220622
    vertex -6.201453637621187 3.489530842972356 17.58771156705011
  endloop
endfacet
facet normal -0.55039 0.825255 -0.126592
  outer loop
    vertex 5.299663315799263 -6.645567600978231 0
    vertex 3.010928004620223 -7.676287016922433 3.231572081395075
    vertex 5.935433201386005 -5.717957749340483 3.282946014454936
  endloop
endfacet
facet normal -0.600453 -0.787954 -0.136322
  outer loop
    vertex 6.288629775987012 5.334407655401807 3.222558131223401
    vertex 3.47029812773945 7.479157032401323 3.239516624632614
    vertex 5.299663315799225 6.645567600978262 0
  endloop
endfacet
facet normal -0.254062 -0.967184 -0.00281938
  outer loop
    vertex 3.466421529375348 6.058436091013716 19.31313439836358
    vertex 1.258711941100602 6.629777011703656 22.25863932647864
    vertex -0.1510792833222301 7.009856354323211 18.91338617144594
  endloop
endfacet
facet normal 0.961506 -0.23928 -0.135099
  outer loop
    vertex -6.912519492652235 2.622381880489489 14.06287832796314
    vertex -6.201453637621187 3.489530842972356 17.58771156705011
    vertex -7.185448628908514 0.03569483368322952 16.70183233444372
  endloop
endfacet
facet normal 0.539647 0.824306 -0.171174
  outer loop
    vertex -5.385474119915509 -3.651912047758251 25.32469224406545
    vertex -1.534582549944221 -6.419442512716159 24.13775990345767
    vertex -4.858735995405497 -4.742323196373133 21.73430518875693
  endloop
endfacet
facet normal -0.407847 0.912853 -0.0189534
  outer loop
    vertex 1.39218776337728 -6.868290559564713 18.95807631239962
    vertex 3.347904181663184 -5.945878577050593 21.30029290541079
    vertex 4.516880511022379 -5.501262506230087 17.55981900684808
  endloop
endfacet
facet normal 0.982741 0.128439 -0.133129
  outer loop
    vertex -7.185448628908514 0.03569483368322952 16.70183233444372
    vertex -6.832509776127507 1.008904330445804 20.24610872964431
    vertex -6.499916038168962 -2.554750637875044 19.26314915626438
  endloop
endfacet
facet normal 0.134472 -0.990809 -0.014683
  outer loop
    vertex -2.855688842567607 6.987455910591642 12.09025122653107
    vertex 0.7437879365595462 7.467727511564831 12.64677967292276
    vertex -1.528835449221198 7.116830331231434 15.5118576685551
  endloop
endfacet
facet normal 0.973169 0.228166 -0.0297065
  outer loop
    vertex -6.402869025653938 -3.43682079701547 15.66746736261439
    vertex -7.185448628908514 0.03569483368322952 16.70183233444372
    vertex -6.499916038168962 -2.554750637875044 19.26314915626438
  endloop
endfacet
facet normal 0.781786 -0.623454 -0.0107295
  outer loop
    vertex -5.299663315799259 6.645567600978236 0
    vertex -6.513022851816896 5.070248353786822 3.126981724267829
    vertex -7.658235377170581 3.688011782499204 0
  endloop
endfacet
facet normal 0.781759 0.623432 -0.0136426
  outer loop
    vertex -7.658235377170531 -3.688011782499311 0
    vertex -6.444006225574712 -5.138923482688471 3.275744402997354
    vertex -5.299663315799171 -6.645567600978304 0
  endloop
endfacet
facet normal 0.579337 -0.797389 -0.168939
  outer loop
    vertex -4.839171866349234 3.515864161229839 32
    vertex -3.673038133272946 5.032163066878392 28.84209124621905
    vertex -1.848399175543124 5.68878771269748 32
  endloop
endfacet
facet normal -0.151885 -0.988223 -0.0186224
  outer loop
    vertex -0.6436540747663092 7.74487728565917 9.255487136652189
    vertex 2.813351436857939 7.204670153536822 9.726823081526838
    vertex 0.7437879365595462 7.467727511564831 12.64677967292276
  endloop
endfacet
facet normal 0.938868 0.342639 -0.0335475
  outer loop
    vertex -6.402869025653938 -3.43682079701547 15.66746736261439
    vertex -6.228314726307215 -4.266948960810649 12.07404353221198
    vertex -7.408080338266843 -0.9304146031903998 13.13466766561416
  endloop
endfacet
facet normal 0.896398 -0.419615 -0.142809
  outer loop
    vertex -6.513022851816896 5.070248353786822 3.126981724267829
    vertex -8.064395731095605 1.730701008103087 3.201732140607096
    vertex -7.658235377170581 3.688011782499204 0
  endloop
endfacet
facet normal 0.268098 -0.963337 -0.0102279
  outer loop
    vertex -0.1510792833222301 7.009856354323211 18.91338617144594
    vertex -2.350817658462695 6.367457531969506 21.75871775961333
    vertex -3.644381778640438 6.043892191372628 18.32703938627034
  endloop
endfacet
facet normal 0.708969 -0.705055 -0.016124
  outer loop
    vertex -3.644381778640438 6.043892191372628 18.32703938627034
    vertex -5.338270156410376 4.277550418777444 21.08397263668491
    vertex -6.201453637621187 3.489530842972356 17.58771156705011
  endloop
endfacet
facet normal -0.939851 -0.279379 -0.196538
  outer loop
    vertex 7.100858545340115 0 17.77777777777778
    vertex 5.476670893014006 4.315029039550378 19.41087498379792
    vertex 6.58622736732095 3.01813288809165 15.94848616584764
  endloop
endfacet
facet normal 0.882226 0.470632 -0.0135026
  outer loop
    vertex -6.49870229510574 -1.636030502210455 22.85246465255064
    vertex -5.385474119915509 -3.651912047758251 25.32469224406545
    vertex -4.858735995405497 -4.742323196373133 21.73430518875693
  endloop
endfacet
facet normal 0.990986 -0.131364 -0.026271
  outer loop
    vertex -7.408080338266843 -0.9304146031903998 13.13466766561416
    vertex -6.912519492652235 2.622381880489489 14.06287832796314
    vertex -7.185448628908514 0.03569483368322952 16.70183233444372
  endloop
endfacet
facet normal 0.8186 0.573221 -0.0362212
  outer loop
    vertex -6.499916038168962 -2.554750637875044 19.26314915626438
    vertex -4.858735995405497 -4.742323196373133 21.73430518875693
    vertex -4.541286560723903 -5.424515334338408 18.1126050584183
  endloop
endfacet
facet normal 0.857304 0.498663 -0.127927
  outer loop
    vertex -6.499916038168962 -2.554750637875044 19.26314915626438
    vertex -6.49870229510574 -1.636030502210455 22.85246465255064
    vertex -4.858735995405497 -4.742323196373133 21.73430518875693
  endloop
endfacet
facet normal 0.45209 -0.880594 -0.142018
  outer loop
    vertex -4.793337312105813 5.54650524562572 14.85681008220622
    vertex -2.855688842567607 6.987455910591642 12.09025122653107
    vertex -1.528835449221198 7.116830331231434 15.5118576685551
  endloop
endfacet
facet normal 0.962976 -0.268678 -0.0221178
  outer loop
    vertex -6.201453637621187 3.489530842972356 17.58771156705011
    vertex -6.832509776127507 1.008904330445804 20.24610872964431
    vertex -7.185448628908514 0.03569483368322952 16.70183233444372
  endloop
endfacet
facet normal 0.937374 -0.304571 -0.169013
  outer loop
    vertex -5.981545381612207 3.526494494918653e-14 32
    vertex -5.924973451658162 1.925140574100846 28.84453625669912
    vertex -4.839171866349234 3.515864161229839 32
  endloop
endfacet
facet normal 0.579799 0.798025 -0.164281
  outer loop
    vertex -1.848399175543173 -5.688787712697464 32
    vertex -3.636054288661558 -5.075735231904324 28.66881718602598
    vertex -4.839171866349272 -3.515864161229786 32
  endloop
endfacet
facet normal 0.958509 0.254352 -0.128709
  outer loop
    vertex -6.402869025653938 -3.43682079701547 15.66746736261439
    vertex -7.408080338266843 -0.9304146031903998 13.13466766561416
    vertex -7.185448628908514 0.03569483368322952 16.70183233444372
  endloop
endfacet
facet normal 0.795756 0.592799 -0.123944
  outer loop
    vertex -6.402869025653938 -3.43682079701547 15.66746736261439
    vertex -6.499916038168962 -2.554750637875044 19.26314915626438
    vertex -4.541286560723903 -5.424515334338408 18.1126050584183
  endloop
endfacet
facet normal 0.913617 -0.381899 -0.139485
  outer loop
    vertex -5.338270156410376 4.277550418777444 21.08397263668491
    vertex -6.832509776127507 1.008904330445804 20.24610872964431
    vertex -6.201453637621187 3.489530842972356 17.58771156705011
  endloop
endfacet
facet normal 0.498228 0.858962 -0.118125
  outer loop
    vertex -4.858735995405497 -4.742323196373133 21.73430518875693
    vertex -1.92785153621124 -6.610065186988825 20.51466295992344
    vertex -4.541286560723903 -5.424515334338408 18.1126050584183
  endloop
endfacet
facet normal 0.592943 -0.793214 -0.138675
  outer loop
    vertex -2.855688842567607 6.987455910591642 12.09025122653107
    vertex -5.822486644759925 4.885377731332887 11.42867441904133
    vertex -4.112484977498629 6.65149659840968 8.638155955194986
  endloop
endfacet
facet normal 0.420728 0.899391 -0.118679
  outer loop
    vertex -4.116046587289119 -6.099774169564706 14.50278397931234
    vertex -4.541286560723903 -5.424515334338408 18.1126050584183
    vertex -1.500443612994196 -7.017719308633058 16.81881931270951
  endloop
endfacet
facet normal 0.284071 0.957774 -0.0444095
  outer loop
    vertex -0.9486627448294526 -7.399594016941799 13.21244940399875
    vertex -0.3829346752204129 -7.734736030542021 9.603229119621592
    vertex -3.687530270667293 -6.695397840151982 10.88025492346776
  endloop
endfacet
facet normal 0.750566 0.659867 -0.0350186
  outer loop
    vertex -4.116046587289119 -6.099774169564706 14.50278397931234
    vertex -6.402869025653938 -3.43682079701547 15.66746736261439
    vertex -4.541286560723903 -5.424515334338408 18.1126050584183
  endloop
endfacet
facet normal 0.0924107 -0.98424 -0.150772
  outer loop
    vertex 1.258711941100602 6.629777011703656 22.25863932647864
    vertex -2.350817658462695 6.367457531969506 21.75871775961333
    vertex -0.1510792833222301 7.009856354323211 18.91338617144594
  endloop
endfacet
facet normal 0.152497 -0.978003 -0.142316
  outer loop
    vertex -2.855688842567607 6.987455910591642 12.09025122653107
    vertex -0.6436540747663092 7.74487728565917 9.255487136652189
    vertex 0.7437879365595462 7.467727511564831 12.64677967292276
  endloop
endfacet
facet normal 0.24649 0.959221 -0.138341
  outer loop
    vertex -1.891427938628608 -8.286887253545515 0
    vertex -3.753594910399548 -7.340928930622343 3.241093688282117
    vertex -0.2500138339449554 -8.240993757971433 3.242809927057554
  endloop
endfacet
facet normal 0.226994 -0.963347 -0.142956
  outer loop
    vertex -0.02904728270762047 8.244996971242305 3.239470554522157
    vertex -3.631147278633515 7.411307940359622 3.137888369128554
    vertex -1.89142793862869 8.286887253545498 0
  endloop
endfacet
facet normal -0.157766 0.986271 -0.048782
  outer loop
    vertex 2.38792682675427 -7.179824548228983 11.86111380544281
    vertex 2.965316523989169 -7.261789749617582 8.336601474544466
    vertex -0.3829346752204129 -7.734736030542021 9.603229119621592
  endloop
endfacet
facet normal 0.986056 -0.103491 -0.130323
  outer loop
    vertex -7.408080338266843 -0.9304146031903998 13.13466766561416
    vertex -7.476820869838424 1.724632878122572 10.50614363326135
    vertex -6.912519492652235 2.622381880489489 14.06287832796314
  endloop
endfacet
facet normal -0.973986 0.213251 -0.0766543
  outer loop
    vertex 7.380686836272092 0 14.22222222222222
    vertex 6.582654700255437 -3.0276328112061 15.93937872622094
    vertex 7.100858545340115 0 17.77777777777778
  endloop
endfacet
facet normal -0.971936 0.222463 -0.076493
  outer loop
    vertex 6.821030254408138 0 21.33333333333334
    vertex 6.023340124648875 -2.909770001249897 23.00650452124165
    vertex 6.541201963476161 0 24.88888888888889
  endloop
endfacet
facet normal -0.974134 -0.21257 -0.076666
  outer loop
    vertex 7.100858545340115 0 17.77777777777778
    vertex 6.58622736732095 3.01813288809165 15.94848616584764
    vertex 7.380686836272092 0 14.22222222222222
  endloop
endfacet
facet normal 0.254354 0.959314 -0.122563
  outer loop
    vertex -0.3829346752204129 -7.734736030542021 9.603229119621592
    vertex -2.935127412833275 -7.380908263471065 7.076131716873928
    vertex -3.687530270667293 -6.695397840151982 10.88025492346776
  endloop
endfacet
facet normal 0.364346 0.930282 -0.042761
  outer loop
    vertex -0.9486627448294526 -7.399594016941799 13.21244940399875
    vertex -4.116046587289119 -6.099774169564706 14.50278397931234
    vertex -1.500443612994196 -7.017719308633058 16.81881931270951
  endloop
endfacet
facet normal -0.971624 -0.218494 -0.0905948
  outer loop
    vertex 7.660515127204069 0 10.66666666666667
    vertex 6.749102559334705 3.319609263281015 12.43536210956093
    vertex 7.11468060880923 3.226999571950441 8.737914592355594
  endloop
endfacet
facet normal -0.969621 0.232403 -0.0763108
  outer loop
    vertex 6.541201963476161 0 24.88888888888889
    vertex 5.710063229231158 -2.904064013360406 26.60523185330121
    vertex 6.261373672544185 0 28.44444444444445
  endloop
endfacet
facet normal 0.999585 -0.00253619 -0.0287027
  outer loop
    vertex -7.408080338266843 -0.9304146031903998 13.13466766561416
    vertex -7.513688607739801 -1.895218064600655 9.542058863062163
    vertex -7.476820869838424 1.724632878122572 10.50614363326135
  endloop
endfacet
facet normal 0.992361 0.0222129 -0.121352
  outer loop
    vertex -7.513688607739801 -1.895218064600655 9.542058863062163
    vertex -7.93514896868569 0.8514758956710052 6.598309936424432
    vertex -7.476820869838424 1.724632878122572 10.50614363326135
  endloop
endfacet
facet normal 0.337165 0.934545 -0.113776
  outer loop
    vertex -0.9486627448294526 -7.399594016941799 13.21244940399875
    vertex -3.687530270667293 -6.695397840151982 10.88025492346776
    vertex -4.116046587289119 -6.099774169564706 14.50278397931234
  endloop
endfacet
facet normal -0.0439559 0.992753 -0.111847
  outer loop
    vertex 1.946428486197692 -7.018824704563399 15.45438377335449
    vertex -0.9486627448294526 -7.399594016941799 13.21244940399875
    vertex -1.500443612994196 -7.017719308633058 16.81881931270951
  endloop
endfacet
facet normal -0.817676 0.571828 -0.0664742
  outer loop
    vertex 7.201530436809427 -3.00153815670093 8.868875584183275
    vertex 5.262750315316022 -5.589682695883562 10.45326369672732
    vertex 6.875569318668712 -3.059012146972646 12.3840043903609
  endloop
endfacet
facet normal -0.438542 0.892233 -0.107706
  outer loop
    vertex 1.946428486197692 -7.018824704563399 15.45438377335449
    vertex 1.39218776337728 -6.868290559564713 18.95807631239962
    vertex 4.516880511022379 -5.501262506230087 17.55981900684808
  endloop
endfacet
facet normal 0.504826 0.85742 -0.0999079
  outer loop
    vertex -1.534582549944221 -6.419442512716159 24.13775990345767
    vertex -1.92785153621124 -6.610065186988825 20.51466295992344
    vertex -4.858735995405497 -4.742323196373133 21.73430518875693
  endloop
endfacet
facet normal -0.0177799 0.998796 -0.0457253
  outer loop
    vertex 1.946428486197692 -7.018824704563399 15.45438377335449
    vertex -1.500443612994196 -7.017719308633058 16.81881931270951
    vertex 1.39218776337728 -6.868290559564713 18.95807631239962
  endloop
endfacet
facet normal -0.970105 -0.230365 -0.0763489
  outer loop
    vertex 6.541201963476161 0 24.88888888888889
    vertex 5.971776175685358 3.005649625784816 23.05528484765054
    vertex 6.821030254408138 0 21.33333333333334
  endloop
endfacet
facet normal -0.404027 0.904622 -0.135721
  outer loop
    vertex 1.137496962559451 -6.494912870826012 24.22095855271245
    vertex 4.142802178180099 -5.082233800359607 24.69042181918255
    vertex 3.347904181663184 -5.945878577050593 21.30029290541079
  endloop
endfacet
facet normal -0.79303 0.602254 -0.0916218
  outer loop
    vertex 4.892683819293222 -5.552217895123924 13.97212187633426
    vertex 4.516880511022379 -5.501262506230087 17.55981900684808
    vertex 6.582654700255437 -3.0276328112061 15.93937872622094
  endloop
endfacet
facet normal 0.303448 -0.952683 -0.01776
  outer loop
    vertex -2.855688842567607 6.987455910591642 12.09025122653107
    vertex -4.112484977498629 6.65149659840968 8.638155955194986
    vertex -0.6436540747663092 7.74487728565917 9.255487136652189
  endloop
endfacet
facet normal -0.970075 0.227511 -0.0848079
  outer loop
    vertex 6.023340124648875 -2.909770001249897 23.00650452124165
    vertex 5.710063229231158 -2.904064013360406 26.60523185330121
    vertex 6.541201963476161 0 24.88888888888889
  endloop
endfacet
facet normal 0.593646 0.804255 -0.0275134
  outer loop
    vertex -2.935127412833275 -7.380908263471065 7.076131716873928
    vertex -5.901661394931346 -5.140556830161899 8.556955556148406
    vertex -3.687530270667293 -6.695397840151982 10.88025492346776
  endloop
endfacet
facet normal -0.977663 0.195587 -0.0769438
  outer loop
    vertex 7.940343418136046 0 7.111111111111114
    vertex 7.201530436809427 -3.00153815670093 8.868875584183275
    vertex 7.660515127204069 0 10.66666666666667
  endloop
endfacet
facet normal -0.974541 -0.210682 -0.0766981
  outer loop
    vertex 7.660515127204069 0 10.66666666666667
    vertex 7.11468060880923 3.226999571950441 8.737914592355594
    vertex 7.940343418136046 0 7.111111111111114
  endloop
endfacet
facet normal -0.469478 0.880787 -0.0616865
  outer loop
    vertex 4.892683819293222 -5.552217895123924 13.97212187633426
    vertex 1.946428486197692 -7.018824704563399 15.45438377335449
    vertex 4.516880511022379 -5.501262506230087 17.55981900684808
  endloop
endfacet
facet normal 0.936795 -0.34841 -0.0320236
  outer loop
    vertex -7.93514896868569 0.8514758956710052 6.598309936424432
    vertex -6.615250025263538 4.284670790363537 7.857260584128792
    vertex -7.476820869838424 1.724632878122572 10.50614363326135
  endloop
endfacet
facet normal 0.580608 -0.813999 -0.0173201
  outer loop
    vertex -4.793337312105813 5.54650524562572 14.85681008220622
    vertex -5.822486644759925 4.885377731332887 11.42867441904133
    vertex -2.855688842567607 6.987455910591642 12.09025122653107
  endloop
endfacet
facet normal -0.967675 -0.240428 -0.0761577
  outer loop
    vertex 6.261373672544185 0 28.44444444444445
    vertex 5.660961266150363 2.998121274474248 26.60840170342776
    vertex 6.541201963476161 0 24.88888888888889
  endloop
endfacet
facet normal 0.726294 0.676644 -0.121033
  outer loop
    vertex -4.116046587289119 -6.099774169564706 14.50278397931234
    vertex -6.228314726307215 -4.266948960810649 12.07404353221198
    vertex -6.402869025653938 -3.43682079701547 15.66746736261439
  endloop
endfacet
facet normal -0.109167 0.988045 -0.108858
  outer loop
    vertex -0.9486627448294526 -7.399594016941799 13.21244940399875
    vertex 2.38792682675427 -7.179824548228983 11.86111380544281
    vertex -0.3829346752204129 -7.734736030542021 9.603229119621592
  endloop
endfacet
facet normal 0.888728 -0.457727 -0.0254691
  outer loop
    vertex -7.476820869838424 1.724632878122572 10.50614363326135
    vertex -5.822486644759925 4.885377731332887 11.42867441904133
    vertex -6.912519492652235 2.622381880489489 14.06287832796314
  endloop
endfacet
facet normal -0.482663 0.870272 -0.0982973
  outer loop
    vertex 4.892683819293222 -5.552217895123924 13.97212187633426
    vertex 2.38792682675427 -7.179824548228983 11.86111380544281
    vertex 1.946428486197692 -7.018824704563399 15.45438377335449
  endloop
endfacet
facet normal -0.802299 0.592646 -0.0713292
  outer loop
    vertex 6.875569318668712 -3.059012146972646 12.3840043903609
    vertex 4.892683819293222 -5.552217895123924 13.97212187633426
    vertex 6.582654700255437 -3.0276328112061 15.93937872622094
  endloop
endfacet
facet normal -0.213755 -0.976712 -0.0185269
  outer loop
    vertex -0.02904728270762047 8.244996971242305 3.239470554522157
    vertex 3.47029812773945 7.479157032401323 3.239516624632614
    vertex 1.608624168431093 7.824723459724684 6.500944179343048
  endloop
endfacet
facet normal -0.433798 0.90079 -0.0199241
  outer loop
    vertex 1.891427938628715 -8.28688725354549 0
    vertex 3.010928004620223 -7.676287016922433 3.231572081395075
    vertex 5.299663315799263 -6.645567600978231 0
  endloop
endfacet
facet normal 0.974853 -0.222504 -0.0123566
  outer loop
    vertex -7.658235377170581 3.688011782499204 0
    vertex -8.064395731095605 1.730701008103087 3.201732140607096
    vertex -8.5 -5.935518276033327e-14 0
  endloop
endfacet
facet normal -0.433846 -0.900891 -0.0131779
  outer loop
    vertex 5.299663315799225 6.645567600978262 0
    vertex 3.47029812773945 7.479157032401323 3.239516624632614
    vertex 1.891427938628656 8.286887253545505 0
  endloop
endfacet
facet normal 0.891625 0.451818 -0.0294162
  outer loop
    vertex -6.228314726307215 -4.266948960810649 12.07404353221198
    vertex -5.901661394931346 -5.140556830161899 8.556955556148406
    vertex -7.513688607739801 -1.895218064600655 9.542058863062163
  endloop
endfacet
facet normal -0.942249 -0.326599 -0.0741566
  outer loop
    vertex 6.821030254408138 0 21.33333333333334
    vertex 5.476670893014006 4.315029039550378 19.41087498379792
    vertex 7.100858545340115 0 17.77777777777778
  endloop
endfacet
facet normal -0.304147 0.951239 -0.0513667
  outer loop
    vertex 3.347904181663184 -5.945878577050593 21.30029290541079
    vertex 0.7480913260212062 -6.765633863692784 21.5132909465614
    vertex 1.137496962559451 -6.494912870826012 24.22095855271245
  endloop
endfacet
facet normal -0.971145 -0.225909 -0.0764308
  outer loop
    vertex 7.380686836272092 0 14.22222222222222
    vertex 6.749102559334705 3.319609263281015 12.43536210956093
    vertex 7.660515127204069 0 10.66666666666667
  endloop
endfacet
facet normal -0.75484 -0.652436 -0.0674133
  outer loop
    vertex 5.660961266150363 2.998121274474248 26.60840170342776
    vertex 3.813690158854414 5.335514239785283 24.67101200822943
    vertex 5.971776175685358 3.005649625784816 23.05528484765054
  endloop
endfacet
facet normal -0.971792 0.224026 -0.0737069
  outer loop
    vertex 6.821030254408138 0 21.33333333333334
    vertex 6.253131970794618 -3.070093787440532 19.48951292357609
    vertex 6.023340124648875 -2.909770001249897 23.00650452124165
  endloop
endfacet
facet normal -0.971679 0.219481 -0.087566
  outer loop
    vertex 6.582654700255437 -3.0276328112061 15.93937872622094
    vertex 6.253131970794618 -3.070093787440532 19.48951292357609
    vertex 7.100858545340115 0 17.77777777777778
  endloop
endfacet
facet normal 0.819404 -0.556175 -0.13873
  outer loop
    vertex -6.912519492652235 2.622381880489489 14.06287832796314
    vertex -5.822486644759925 4.885377731332887 11.42867441904133
    vertex -4.793337312105813 5.54650524562572 14.85681008220622
  endloop
endfacet
facet normal -0.96816 -0.23539 -0.0851902
  outer loop
    vertex 6.541201963476161 0 24.88888888888889
    vertex 5.660961266150363 2.998121274474248 26.60840170342776
    vertex 5.971776175685358 3.005649625784816 23.05528484765054
  endloop
endfacet
facet normal -0.974202 0.21021 -0.0821163
  outer loop
    vertex 7.380686836272092 0 14.22222222222222
    vertex 6.875569318668712 -3.059012146972646 12.3840043903609
    vertex 6.582654700255437 -3.0276328112061 15.93937872622094
  endloop
endfacet
facet normal 0.433843 0.900885 -0.0136716
  outer loop
    vertex -5.299663315799171 -6.645567600978304 0
    vertex -3.753594910399548 -7.340928930622343 3.241093688282117
    vertex -1.891427938628608 -8.286887253545515 0
  endloop
endfacet
facet normal 0.433858 -0.900916 -0.0108454
  outer loop
    vertex -1.89142793862869 8.286887253545498 0
    vertex -3.631147278633515 7.411307940359622 3.137888369128554
    vertex -5.299663315799259 6.645567600978236 0
  endloop
endfacet
facet normal 0.987282 0.158833 0.00684994
  outer loop
    vertex -7.513688607739801 -1.895218064600655 9.542058863062163
    vertex -7.23700945886118 -3.464575306026031 6.053686473608536
    vertex -7.93514896868569 0.8514758956710052 6.598309936424432
  endloop
endfacet
facet normal -0.971226 0.225561 -0.0764371
  outer loop
    vertex 7.100858545340115 0 17.77777777777778
    vertex 6.253131970794618 -3.070093787440532 19.48951292357609
    vertex 6.821030254408138 0 21.33333333333334
  endloop
endfacet
facet normal -0.0879341 0.994586 -0.0553677
  outer loop
    vertex 1.946428486197692 -7.018824704563399 15.45438377335449
    vertex 2.38792682675427 -7.179824548228983 11.86111380544281
    vertex -0.9486627448294526 -7.399594016941799 13.21244940399875
  endloop
endfacet
facet normal 0.680566 0.731606 -0.0397867
  outer loop
    vertex -3.687530270667293 -6.695397840151982 10.88025492346776
    vertex -6.228314726307215 -4.266948960810649 12.07404353221198
    vertex -4.116046587289119 -6.099774169564706 14.50278397931234
  endloop
endfacet
facet normal -0.975289 0.207169 -0.0767569
  outer loop
    vertex 7.660515127204069 0 10.66666666666667
    vertex 6.875569318668712 -3.059012146972646 12.3840043903609
    vertex 7.380686836272092 0 14.22222222222222
  endloop
endfacet
facet normal 0.867921 0.475098 -0.144899
  outer loop
    vertex -7.513688607739801 -1.895218064600655 9.542058863062163
    vertex -5.901661394931346 -5.140556830161899 8.556955556148406
    vertex -7.23700945886118 -3.464575306026031 6.053686473608536
  endloop
endfacet
facet normal -0.282508 -0.944964 -0.165019
  outer loop
    vertex -0.1455552403297766 6.228362896027993 28.84227843884016
    vertex 1.092201884428314 6.365717084570091 25.93672987279763
    vertex 3.523496589089724 5.145798163495429 28.76015346044662
  endloop
endfacet
facet normal -0.806851 0.583693 -0.0910683
  outer loop
    vertex 6.875569318668712 -3.059012146972646 12.3840043903609
    vertex 5.262750315316022 -5.589682695883562 10.45326369672732
    vertex 4.892683819293222 -5.552217895123924 13.97212187633426
  endloop
endfacet
facet normal -0.975621 0.201404 -0.0871772
  outer loop
    vertex 7.201530436809427 -3.00153815670093 8.868875584183275
    vertex 6.875569318668712 -3.059012146972646 12.3840043903609
    vertex 7.660515127204069 0 10.66666666666667
  endloop
endfacet
facet normal 0.654382 0.745847 -0.124484
  outer loop
    vertex -3.687530270667293 -6.695397840151982 10.88025492346776
    vertex -5.901661394931346 -5.140556830161899 8.556955556148406
    vertex -6.228314726307215 -4.266948960810649 12.07404353221198
  endloop
endfacet
facet normal -0.423674 -0.905676 -0.0158579
  outer loop
    vertex 1.608624168431093 7.824723459724684 6.500944179343048
    vertex 4.90795337357229 6.276717212421227 6.76276167992679
    vertex 2.813351436857939 7.204670153536822 9.726823081526838
  endloop
endfacet
facet normal -0.169697 0.977422 -0.125895
  outer loop
    vertex -0.2500138339449554 -8.240993757971433 3.242809927057554
    vertex 3.010928004620223 -7.676287016922433 3.231572081395075
    vertex 1.891427938628715 -8.28688725354549 0
  endloop
endfacet
facet normal -0.211744 -0.967527 -0.138041
  outer loop
    vertex 1.891427938628656 8.286887253545505 0
    vertex 3.47029812773945 7.479157032401323 3.239516624632614
    vertex -0.02904728270762047 8.244996971242305 3.239470554522157
  endloop
endfacet
facet normal -0.973478 -0.219652 -0.0639816
  outer loop
    vertex 6.58622736732095 3.01813288809165 15.94848616584764
    vertex 6.749102559334705 3.319609263281015 12.43536210956093
    vertex 7.380686836272092 0 14.22222222222222
  endloop
endfacet
facet normal -0.957768 -0.286245 0.0272728
  outer loop
    vertex 5.971776175685358 3.005649625784816 23.05528484765054
    vertex 5.476670893014006 4.315029039550378 19.41087498379792
    vertex 6.821030254408138 0 21.33333333333334
  endloop
endfacet
facet normal -0.268592 0.962273 0.0434664
  outer loop
    vertex 3.661834975565529 -5.040083456117407 28.8445362566991
    vertex -0.02768745732901952 -6.128223610894007 30.13548166650449
    vertex 1.848399175543141 -5.688787712697475 32
  endloop
endfacet
facet normal 0.626604 0.767697 -0.134197
  outer loop
    vertex -6.444006225574712 -5.138923482688471 3.275744402997354
    vertex -3.753594910399548 -7.340928930622343 3.241093688282117
    vertex -5.299663315799171 -6.645567600978304 0
  endloop
endfacet
facet normal 0.624224 -0.767754 -0.144564
  outer loop
    vertex -5.299663315799259 6.645567600978236 0
    vertex -3.631147278633515 7.411307940359622 3.137888369128554
    vertex -6.513022851816896 5.070248353786822 3.126981724267829
  endloop
endfacet
facet normal -0.824289 0.55768 -0.0976764
  outer loop
    vertex 7.201530436809427 -3.00153815670093 8.868875584183275
    vertex 5.727917706174039 -5.520440187990043 6.923063821334235
    vertex 5.262750315316022 -5.589682695883562 10.45326369672732
  endloop
endfacet
facet normal -0.13446 -0.981208 -0.138385
  outer loop
    vertex -0.6436540747663092 7.74487728565917 9.255487136652189
    vertex 1.608624168431093 7.824723459724684 6.500944179343048
    vertex 2.813351436857939 7.204670153536822 9.726823081526838
  endloop
endfacet
facet normal -0.520202 0.847573 -0.104931
  outer loop
    vertex 2.38792682675427 -7.179824548228983 11.86111380544281
    vertex 5.262750315316022 -5.589682695883562 10.45326369672732
    vertex 2.965316523989169 -7.261789749617582 8.336601474544466
  endloop
endfacet
facet normal -0.974553 0.222435 -0.0277164
  outer loop
    vertex 7.658235377170568 -3.688011782499232 0
    vertex 7.760963894607242 -2.894751255014934 2.754135193291003
    vertex 8.5 0 0
  endloop
endfacet
facet normal -0.974796 -0.222491 -0.016449
  outer loop
    vertex 8.5 0 0
    vertex 7.844085136815719 2.673969200196588 2.702271193406087
    vertex 7.65823537717056 3.68801178249925 0
  endloop
endfacet
facet normal 0.946247 -0.323326 0.00873516
  outer loop
    vertex -5.924973451658162 1.925140574100846 28.84453625669912
    vertex -6.481282988081093 0.2095832313185806 25.60718648597298
    vertex -5.263788210455709 3.775135489465537 25.69721232713861
  endloop
endfacet
facet normal -0.978043 0.193668 -0.0769736
  outer loop
    vertex 8.220171709068023 0 3.555555555555561
    vertex 7.458570717530805 -3.074377029987294 5.497390471502371
    vertex 7.940343418136046 0 7.111111111111114
  endloop
endfacet
facet normal -0.974155 -0.212471 -0.0766677
  outer loop
    vertex 7.940343418136046 0 7.111111111111114
    vertex 7.328767753922794 3.356598787722331 5.579701650493
    vertex 8.220171709068023 0 3.555555555555561
  endloop
endfacet
facet normal -0.506302 0.860095 -0.0624034
  outer loop
    vertex 4.892683819293222 -5.552217895123924 13.97212187633426
    vertex 5.262750315316022 -5.589682695883562 10.45326369672732
    vertex 2.38792682675427 -7.179824548228983 11.86111380544281
  endloop
endfacet
facet normal -0.981172 0.177026 -0.0772199
  outer loop
    vertex 8.5 0 0
    vertex 7.760963894607242 -2.894751255014934 2.754135193291003
    vertex 8.220171709068023 0 3.555555555555561
  endloop
endfacet
facet normal -0.983578 -0.16304 -0.0774093
  outer loop
    vertex 8.220171709068023 0 3.555555555555561
    vertex 7.844085136815719 2.673969200196588 2.702271193406087
    vertex 8.5 0 0
  endloop
endfacet
facet normal -0.597967 0.797777 -0.0773773
  outer loop
    vertex 5.935433201386005 -5.717957749340483 3.282946014454936
    vertex 3.731393350781965 -7.12370286028372 5.822068694734398
    vertex 5.727917706174039 -5.520440187990043 6.923063821334235
  endloop
endfacet
facet normal 0.0313122 0.994095 -0.103896
  outer loop
    vertex 1.137496962559451 -6.494912870826012 24.22095855271245
    vertex 0.7480913260212062 -6.765633863692784 21.5132909465614
    vertex -1.534582549944221 -6.419442512716159 24.13775990345767
  endloop
endfacet
facet normal 0.147761 0.988965 -0.0107599
  outer loop
    vertex -0.3829346752204129 -7.734736030542021 9.603229119621592
    vertex 0.8432193187658702 -7.952955397131946 6.384461061104886
    vertex -2.935127412833275 -7.380908263471065 7.076131716873928
  endloop
endfacet
facet normal -0.45146 -0.887163 -0.0955237
  outer loop
    vertex 4.460141993072563 5.996957154796672 13.04023338933022
    vertex 4.557939448845938 5.5886144386987 16.3704549971662
    vertex 1.876735281039451 6.994615245056305 15.98421805188429
  endloop
endfacet
facet normal -0.528348 -0.841899 -0.109794
  outer loop
    vertex 4.90795337357229 6.276717212421227 6.76276167992679
    vertex 5.297149938511711 5.586519196198957 10.18229675209779
    vertex 2.813351436857939 7.204670153536822 9.726823081526838
  endloop
endfacet
facet normal 0.267135 0.963063 0.0338808
  outer loop
    vertex -1.848399175543173 -5.688787712697464 32
    vertex -0.02768745732901952 -6.128223610894007 30.13548166650449
    vertex -3.636054288661558 -5.075735231904324 28.66881718602598
  endloop
endfacet
facet normal -0.555986 0.830884 -0.0226076
  outer loop
    vertex 3.010928004620223 -7.676287016922433 3.231572081395075
    vertex 3.731393350781965 -7.12370286028372 5.822068694734398
    vertex 5.935433201386005 -5.717957749340483 3.282946014454936
  endloop
endfacet
facet normal -0.386501 -0.918507 -0.0834393
  outer loop
    vertex 3.813690158854414 5.335514239785283 24.67101200822943
    vertex 1.092201884428314 6.365717084570091 25.93672987279763
    vertex 1.258711941100602 6.629777011703656 22.25863932647864
  endloop
endfacet
facet normal 0.986509 -0.0334177 -0.160259
  outer loop
    vertex -6.832509776127507 1.008904330445804 20.24610872964431
    vertex -6.332663726741885 2.135135891235096 23.08817583956898
    vertex -6.49870229510574 -1.636030502210455 22.85246465255064
  endloop
endfacet
facet normal -0.552933 0.831305 -0.0565533
  outer loop
    vertex 5.262750315316022 -5.589682695883562 10.45326369672732
    vertex 5.727917706174039 -5.520440187990043 6.923063821334235
    vertex 2.965316523989169 -7.261789749617582 8.336601474544466
  endloop
endfacet
facet normal 0.895287 0.421116 -0.145335
  outer loop
    vertex -7.658235377170531 -3.688011782499311 0
    vertex -8.072269441529826 -1.84244282354827 2.797107176260873
    vertex -6.444006225574712 -5.138923482688471 3.275744402997354
  endloop
endfacet
facet normal -0.834557 0.545489 -0.0771753
  outer loop
    vertex 5.935433201386005 -5.717957749340483 3.282946014454936
    vertex 5.727917706174039 -5.520440187990043 6.923063821334235
    vertex 7.458570717530805 -3.074377029987294 5.497390471502371
  endloop
endfacet
facet normal 0.535905 0.837643 -0.10564
  outer loop
    vertex -3.753594910399548 -7.340928930622343 3.241093688282117
    vertex -5.388678259482877 -5.969119812007158 5.823802044604925
    vertex -2.935127412833275 -7.380908263471065 7.076131716873928
  endloop
endfacet
facet normal 0.080638 0.994869 -0.0610961
  outer loop
    vertex -1.534582549944221 -6.419442512716159 24.13775990345767
    vertex 0.7480913260212062 -6.765633863692784 21.5132909465614
    vertex -1.92785153621124 -6.610065186988825 20.51466295992344
  endloop
endfacet
facet normal 0.320821 -0.93598 -0.144968
  outer loop
    vertex -4.112484977498629 6.65149659840968 8.638155955194986
    vertex -2.021517484174386 7.760563729065744 6.104933623964655
    vertex -0.6436540747663092 7.74487728565917 9.255487136652189
  endloop
endfacet
facet normal 0.897126 0.441659 -0.0101037
  outer loop
    vertex -6.444006225574712 -5.138923482688471 3.275744402997354
    vertex -8.072269441529826 -1.84244282354827 2.797107176260873
    vertex -7.23700945886118 -3.464575306026031 6.053686473608536
  endloop
endfacet
facet normal -0.752676 0.658333 0.00877091
  outer loop
    vertex 3.347904181663184 -5.945878577050593 21.30029290541079
    vertex 4.142802178180099 -5.082233800359607 24.69042181918255
    vertex 6.023340124648875 -2.909770001249897 23.00650452124165
  endloop
endfacet
facet normal -0.80948 -0.583492 -0.0654211
  outer loop
    vertex 6.749102559334705 3.319609263281015 12.43536210956093
    vertex 5.297149938511711 5.586519196198957 10.18229675209779
    vertex 7.11468060880923 3.226999571950441 8.737914592355594
  endloop
endfacet
facet normal -0.307297 0.944589 -0.11541
  outer loop
    vertex 1.39218776337728 -6.868290559564713 18.95807631239962
    vertex 0.7480913260212062 -6.765633863692784 21.5132909465614
    vertex 3.347904181663184 -5.945878577050593 21.30029290541079
  endloop
endfacet
facet normal -0.97365 -0.214786 -0.0766279
  outer loop
    vertex 5.981545381612207 0 32
    vertex 5.609066570151929 2.601295141724221 29.44143212409858
    vertex 6.261373672544185 0 28.44444444444445
  endloop
endfacet
facet normal -0.936705 -0.304354 -0.17307
  outer loop
    vertex 4.839171866349261 3.515864161229802 32
    vertex 5.609066570151929 2.601295141724221 29.44143212409858
    vertex 5.981545381612207 0 32
  endloop
endfacet
facet normal 0.598451 -0.776217 -0.198354
  outer loop
    vertex -5.263788210455709 3.775135489465537 25.69721232713861
    vertex -4.198807447567977 5.157290728905648 23.50157636865463
    vertex -2.391441176871712 6.034994967864461 25.51984172762871
  endloop
endfacet
facet normal -0.936627 0.304328 -0.173536
  outer loop
    vertex 5.981545381612207 0 32
    vertex 5.610971369852393 -2.596062384710141 29.44741726615683
    vertex 4.839171866349252 -3.515864161229814 32
  endloop
endfacet
facet normal -0.973746 0.214349 -0.0766355
  outer loop
    vertex 6.261373672544185 0 28.44444444444445
    vertex 5.610971369852393 -2.596062384710141 29.44741726615683
    vertex 5.981545381612207 0 32
  endloop
endfacet
facet normal 0.0332012 -0.989004 -0.144114
  outer loop
    vertex 1.608624168431093 7.824723459724684 6.500944179343048
    vertex -2.021517484174386 7.760563729065744 6.104933623964655
    vertex -0.02904728270762047 8.244996971242305 3.239470554522157
  endloop
endfacet
facet normal 0.498753 -0.863834 -0.0709711
  outer loop
    vertex -2.391441176871712 6.034994967864461 25.51984172762871
    vertex -4.198807447567977 5.157290728905648 23.50157636865463
    vertex -2.350817658462695 6.367457531969506 21.75871775961333
  endloop
endfacet
facet normal 0.225686 -0.974169 -0.00776408
  outer loop
    vertex -0.02904728270762047 8.244996971242305 3.239470554522157
    vertex -2.021517484174386 7.760563729065744 6.104933623964655
    vertex -3.631147278633515 7.411307940359622 3.137888369128554
  endloop
endfacet
facet normal 0.802951 0.595302 -0.0297624
  outer loop
    vertex -5.901661394931346 -5.140556830161899 8.556955556148406
    vertex -5.388678259482877 -5.969119812007158 5.823802044604925
    vertex -7.23700945886118 -3.464575306026031 6.053686473608536
  endloop
endfacet
facet normal 0.998673 -0.0454798 0.0241556
  outer loop
    vertex -6.49870229510574 -1.636030502210455 22.85246465255064
    vertex -6.332663726741885 2.135135891235096 23.08817583956898
    vertex -6.481282988081093 0.2095832313185806 25.60718648597298
  endloop
endfacet
facet normal -0.977727 0.194548 -0.0787445
  outer loop
    vertex 7.940343418136046 0 7.111111111111114
    vertex 7.458570717530805 -3.074377029987294 5.497390471502371
    vertex 7.201530436809427 -3.00153815670093 8.868875584183275
  endloop
endfacet
facet normal -0.974483 -0.211652 -0.074743
  outer loop
    vertex 7.11468060880923 3.226999571950441 8.737914592355594
    vertex 7.328767753922794 3.356598787722331 5.579701650493
    vertex 7.940343418136046 0 7.111111111111114
  endloop
endfacet
facet normal 0.0191248 -0.999728 -0.0133416
  outer loop
    vertex -0.6436540747663092 7.74487728565917 9.255487136652189
    vertex -2.021517484174386 7.760563729065744 6.104933623964655
    vertex 1.608624168431093 7.824723459724684 6.500944179343048
  endloop
endfacet
facet normal 0.791516 0.596386 -0.13351
  outer loop
    vertex -7.23700945886118 -3.464575306026031 6.053686473608536
    vertex -5.388678259482877 -5.969119812007158 5.823802044604925
    vertex -6.444006225574712 -5.138923482688471 3.275744402997354
  endloop
endfacet
facet normal 0.989743 0.0139197 -0.142181
  outer loop
    vertex -8.064395731095605 1.730701008103087 3.201732140607096
    vertex -8.072269441529826 -1.84244282354827 2.797107176260873
    vertex -8.5 -5.935518276033327e-14 0
  endloop
endfacet
facet normal -0.834205 0.546275 -0.0754013
  outer loop
    vertex 7.458570717530805 -3.074377029987294 5.497390471502371
    vertex 5.727917706174039 -5.520440187990043 6.923063821334235
    vertex 7.201530436809427 -3.00153815670093 8.868875584183275
  endloop
endfacet
facet normal -0.410493 -0.910286 -0.0536187
  outer loop
    vertex 1.258711941100602 6.629777011703656 22.25863932647864
    vertex 4.177331698487823 5.333357905740719 21.92365934969352
    vertex 3.813690158854414 5.335514239785283 24.67101200822943
  endloop
endfacet
facet normal -0.415196 -0.899396 -0.136741
  outer loop
    vertex 3.466421529375348 6.058436091013716 19.31313439836358
    vertex 4.177331698487823 5.333357905740719 21.92365934969352
    vertex 1.258711941100602 6.629777011703656 22.25863932647864
  endloop
endfacet
facet normal -0.754077 -0.644006 -0.128937
  outer loop
    vertex 5.971776175685358 3.005649625784816 23.05528484765054
    vertex 4.177331698487823 5.333357905740719 21.92365934969352
    vertex 5.476670893014006 4.315029039550378 19.41087498379792
  endloop
endfacet
facet normal -0.772659 -0.634797 -0.0055893
  outer loop
    vertex 3.523496589089724 5.145798163495429 28.76015346044662
    vertex 5.609066570151929 2.601295141724221 29.44143212409858
    vertex 4.839171866349261 3.515864161229802 32
  endloop
endfacet
facet normal 0.974925 0.22252 -0.00251129
  outer loop
    vertex -8.5 -5.935518276033327e-14 0
    vertex -8.072269441529826 -1.84244282354827 2.797107176260873
    vertex -7.658235377170531 -3.688011782499311 0
  endloop
endfacet
facet normal -0.78009 0.621863 -0.0688945
  outer loop
    vertex 6.023340124648875 -2.909770001249897 23.00650452124165
    vertex 4.142802178180099 -5.082233800359607 24.69042181918255
    vertex 5.710063229231158 -2.904064013360406 26.60523185330121
  endloop
endfacet
facet normal -0.54062 -0.840425 -0.037636
  outer loop
    vertex 2.813351436857939 7.204670153536822 9.726823081526838
    vertex 5.297149938511711 5.586519196198957 10.18229675209779
    vertex 4.460141993072563 5.996957154796672 13.04023338933022
  endloop
endfacet
facet normal -0.755279 -0.647025 -0.104465
  outer loop
    vertex 5.660961266150363 2.998121274474248 26.60840170342776
    vertex 5.609066570151929 2.601295141724221 29.44143212409858
    vertex 3.523496589089724 5.145798163495429 28.76015346044662
  endloop
endfacet
facet normal 0.703085 -0.697052 -0.140679
  outer loop
    vertex -6.615250025263538 4.284670790363537 7.857260584128792
    vertex -5.205240480271168 6.142782930322682 5.697424308459471
    vertex -4.112484977498629 6.65149659840968 8.638155955194986
  endloop
endfacet
facet normal 0.0952761 -0.99543 -0.00646964
  outer loop
    vertex -2.391441176871712 6.034994967864461 25.51984172762871
    vertex 1.092201884428314 6.365717084570091 25.93672987279763
    vertex -0.1455552403297766 6.228362896027993 28.84227843884016
  endloop
endfacet
facet normal -0.460893 -0.886971 -0.0293455
  outer loop
    vertex 1.876735281039451 6.994615245056305 15.98421805188429
    vertex 4.557939448845938 5.5886144386987 16.3704549971662
    vertex 3.466421529375348 6.058436091013716 19.31313439836358
  endloop
endfacet
facet normal -0.18956 0.972106 -0.138116
  outer loop
    vertex 2.965316523989169 -7.261789749617582 8.336601474544466
    vertex 0.8432193187658702 -7.952955397131946 6.384461061104886
    vertex -0.3829346752204129 -7.734736030542021 9.603229119621592
  endloop
endfacet
facet normal 0.454466 -0.890641 -0.0148057
  outer loop
    vertex -4.112484977498629 6.65149659840968 8.638155955194986
    vertex -5.205240480271168 6.142782930322682 5.697424308459471
    vertex -2.021517484174386 7.760563729065744 6.104933623964655
  endloop
endfacet
facet normal 0.789254 -0.613931 -0.0129168
  outer loop
    vertex -6.615250025263538 4.284670790363537 7.857260584128792
    vertex -7.325845482147343 3.426170021680458 5.242097519658888
    vertex -5.205240480271168 6.142782930322682 5.697424308459471
  endloop
endfacet
facet normal 0.908943 -0.416886 0.00534078
  outer loop
    vertex -5.338270156410376 4.277550418777444 21.08397263668491
    vertex -6.332663726741885 2.135135891235096 23.08817583956898
    vertex -6.832509776127507 1.008904330445804 20.24610872964431
  endloop
endfacet
facet normal 0.952786 -0.283188 -0.10956
  outer loop
    vertex -8.064395731095605 1.730701008103087 3.201732140607096
    vertex -7.325845482147343 3.426170021680458 5.242097519658888
    vertex -7.93514896868569 0.8514758956710052 6.598309936424432
  endloop
endfacet
facet normal 0.814551 -0.579293 0.0304277
  outer loop
    vertex -6.332663726741885 2.135135891235096 23.08817583956898
    vertex -4.198807447567977 5.157290728905648 23.50157636865463
    vertex -5.263788210455709 3.775135489465537 25.69721232713861
  endloop
endfacet
facet normal -0.780479 0.62509 -0.0107396
  outer loop
    vertex 4.839171866349252 -3.515864161229814 32
    vertex 5.610971369852393 -2.596062384710141 29.44741726615683
    vertex 3.661834975565529 -5.040083456117407 28.8445362566991
  endloop
endfacet
facet normal -0.766619 0.634955 -0.0955366
  outer loop
    vertex 3.661834975565529 -5.040083456117407 28.8445362566991
    vertex 5.610971369852393 -2.596062384710141 29.44741726615683
    vertex 5.710063229231158 -2.904064013360406 26.60523185330121
  endloop
endfacet
facet normal -0.214575 0.969791 -0.116027
  outer loop
    vertex 0.09321334947935404 -6.337625862366359 27.46685903354385
    vertex 2.449782231254545 -5.918967706316854 26.60800692784914
    vertex 1.137496962559451 -6.494912870826012 24.22095855271245
  endloop
endfacet
facet normal 0.814649 -0.550058 -0.183799
  outer loop
    vertex -5.338270156410376 4.277550418777444 21.08397263668491
    vertex -4.198807447567977 5.157290728905648 23.50157636865463
    vertex -6.332663726741885 2.135135891235096 23.08817583956898
  endloop
endfacet
facet normal 0.9315 -0.313409 -0.184615
  outer loop
    vertex -6.481282988081093 0.2095832313185806 25.60718648597298
    vertex -6.332663726741885 2.135135891235096 23.08817583956898
    vertex -5.263788210455709 3.775135489465537 25.69721232713861
  endloop
endfacet
facet normal 0.633258 0.773874 -0.010136
  outer loop
    vertex -6.444006225574712 -5.138923482688471 3.275744402997354
    vertex -5.388678259482877 -5.969119812007158 5.823802044604925
    vertex -3.753594910399548 -7.340928930622343 3.241093688282117
  endloop
endfacet
facet normal 0.463023 -0.873847 -0.148329
  outer loop
    vertex -2.021517484174386 7.760563729065744 6.104933623964655
    vertex -5.205240480271168 6.142782930322682 5.697424308459471
    vertex -3.631147278633515 7.411307940359622 3.137888369128554
  endloop
endfacet
facet normal -0.843784 0.523269 -0.119242
  outer loop
    vertex 5.935433201386005 -5.717957749340483 3.282946014454936
    vertex 7.760963894607242 -2.894751255014934 2.754135193291003
    vertex 7.658235377170568 -3.688011782499232 0
  endloop
endfacet
facet normal -0.86705 -0.483137 -0.121668
  outer loop
    vertex 7.65823537717056 3.68801178249925 0
    vertex 7.844085136815719 2.673969200196588 2.702271193406087
    vertex 6.288629775987012 5.334407655401807 3.222558131223401
  endloop
endfacet
facet normal 0.939804 -0.304299 -0.15547
  outer loop
    vertex -7.93514896868569 0.8514758956710052 6.598309936424432
    vertex -7.325845482147343 3.426170021680458 5.242097519658888
    vertex -6.615250025263538 4.284670790363537 7.857260584128792
  endloop
endfacet
facet normal -0.763723 -0.637659 -0.100586
  outer loop
    vertex 3.813690158854414 5.335514239785283 24.67101200822943
    vertex 4.177331698487823 5.333357905740719 21.92365934969352
    vertex 5.971776175685358 3.005649625784816 23.05528484765054
  endloop
endfacet
facet normal 0.568159 -0.822318 0.0314485
  outer loop
    vertex -2.350817658462695 6.367457531969506 21.75871775961333
    vertex -4.198807447567977 5.157290728905648 23.50157636865463
    vertex -5.338270156410376 4.277550418777444 21.08397263668491
  endloop
endfacet
facet normal -0.973439 0.221494 -0.0579415
  outer loop
    vertex 5.710063229231158 -2.904064013360406 26.60523185330121
    vertex 5.610971369852393 -2.596062384710141 29.44741726615683
    vertex 6.261373672544185 0 28.44444444444445
  endloop
endfacet
facet normal -0.281783 0.958904 -0.0331893
  outer loop
    vertex 2.965316523989169 -7.261789749617582 8.336601474544466
    vertex 3.731393350781965 -7.12370286028372 5.822068694734398
    vertex 0.8432193187658702 -7.952955397131946 6.384461061104886
  endloop
endfacet
facet normal 0.791145 -0.591473 -0.155721
  outer loop
    vertex -5.205240480271168 6.142782930322682 5.697424308459471
    vertex -7.325845482147343 3.426170021680458 5.242097519658888
    vertex -6.513022851816896 5.070248353786822 3.126981724267829
  endloop
endfacet
facet normal -0.973085 -0.225097 -0.0493544
  outer loop
    vertex 6.261373672544185 0 28.44444444444445
    vertex 5.609066570151929 2.601295141724221 29.44143212409858
    vertex 5.660961266150363 2.998121274474248 26.60840170342776
  endloop
endfacet
facet normal 0.630507 -0.776177 0.00307752
  outer loop
    vertex -3.631147278633515 7.411307940359622 3.137888369128554
    vertex -5.205240480271168 6.142782930322682 5.697424308459471
    vertex -6.513022851816896 5.070248353786822 3.126981724267829
  endloop
endfacet
facet normal 0.0666743 0.997503 -0.0232684
  outer loop
    vertex -1.92785153621124 -6.610065186988825 20.51466295992344
    vertex 0.7480913260212062 -6.765633863692784 21.5132909465614
    vertex 1.39218776337728 -6.868290559564713 18.95807631239962
  endloop
endfacet
facet normal 0.548502 0.823196 -0.146606
  outer loop
    vertex -2.935127412833275 -7.380908263471065 7.076131716873928
    vertex -5.388678259482877 -5.969119812007158 5.823802044604925
    vertex -5.901661394931346 -5.140556830161899 8.556955556148406
  endloop
endfacet
facet normal -0.978638 0.181816 -0.0959716
  outer loop
    vertex 8.220171709068023 0 3.555555555555561
    vertex 7.760963894607242 -2.894751255014934 2.754135193291003
    vertex 7.458570717530805 -3.074377029987294 5.497390471502371
  endloop
endfacet
facet normal -0.974897 -0.17926 -0.132067
  outer loop
    vertex 7.328767753922794 3.356598787722331 5.579701650493
    vertex 7.844085136815719 2.673969200196588 2.702271193406087
    vertex 8.220171709068023 0 3.555555555555561
  endloop
endfacet
facet normal 0.906894 -0.420815 0.0214134
  outer loop
    vertex -6.513022851816896 5.070248353786822 3.126981724267829
    vertex -7.325845482147343 3.426170021680458 5.242097519658888
    vertex -8.064395731095605 1.730701008103087 3.201732140607096
  endloop
endfacet
facet normal 2.80619e-15 0.973333 -0.229398
  outer loop
    vertex 1.848399175543141 -5.688787712697475 32
    vertex -0.02768745732901952 -6.128223610894007 30.13548166650449
    vertex -1.848399175543173 -5.688787712697464 32
  endloop
endfacet
facet normal -0.843243 0.534398 -0.0579601
  outer loop
    vertex 7.458570717530805 -3.074377029987294 5.497390471502371
    vertex 7.760963894607242 -2.894751255014934 2.754135193291003
    vertex 5.935433201386005 -5.717957749340483 3.282946014454936
  endloop
endfacet
facet normal -0.865807 -0.499033 -0.0366684
  outer loop
    vertex 6.288629775987012 5.334407655401807 3.222558131223401
    vertex 7.844085136815719 2.673969200196588 2.702271193406087
    vertex 7.328767753922794 3.356598787722331 5.579701650493
  endloop
endfacet
facet normal -0.575773 0.807031 -0.131096
  outer loop
    vertex 5.727917706174039 -5.520440187990043 6.923063821334235
    vertex 3.731393350781965 -7.12370286028372 5.822068694734398
    vertex 2.965316523989169 -7.261789749617582 8.336601474544466
  endloop
endfacet
facet normal -0.427513 0.903851 0.0169457
  outer loop
    vertex 1.137496962559451 -6.494912870826012 24.22095855271245
    vertex 2.449782231254545 -5.918967706316854 26.60800692784914
    vertex 4.142802178180099 -5.082233800359607 24.69042181918255
  endloop
endfacet
facet normal -0 0 -1
  outer loop
    vertex 1.577766609344667 -1.842949813009466 32
    vertex -1.507540899355784 -2.470467408522181 32
    vertex -1.056218023618094 1.7965829193751 32
  endloop
endfacet
facet normal 0 -0 -1
  outer loop
    vertex 1.848399175543141 5.688787712697475 32
    vertex 2.456157156770339 1.723746326774703 32
    vertex -1.056218023618094 1.7965829193751 32
  endloop
endfacet
facet normal 0 0 -1
  outer loop
    vertex 1.577766609344667 -1.842949813009466 32
    vertex 2.456157156770339 1.723746326774703 32
    vertex 5.981545381612207 0 32
  endloop
endfacet
facet normal 0 0 -1
  outer loop
    vertex -1.056218023618094 1.7965829193751 32
    vertex 2.456157156770339 1.723746326774703 32
    vertex 1.577766609344667 -1.842949813009466 32
  endloop
endfacet
facet normal 0 0 -1
  outer loop
    vertex 4.839171866349261 -3.515864161229802 32
    vertex 1.577766609344667 -1.842949813009466 32
    vertex 5.981545381612207 0 32
  endloop
endfacet
facet normal 0 0 -1
  outer loop
    vertex 1.848399175543141 5.688787712697475 32
    vertex -1.056218023618094 1.7965829193751 32
    vertex -1.848399175543173 5.688787712697464 32
  endloop
endfacet
facet normal 0 0 -1
  outer loop
    vertex -1.848399175543124 -5.68878771269748 32
    vertex -1.507540899355784 -2.470467408522181 32
    vertex 1.848399175543169 -5.688787712697465 32
  endloop
endfacet
facet normal 0 0 -1
  outer loop
    vertex 1.848399175543169 -5.688787712697465 32
    vertex -1.507540899355784 -2.470467408522181 32
    vertex 1.577766609344667 -1.842949813009466 32
  endloop
endfacet
facet normal 0 0 -1
  outer loop
    vertex -1.507540899355784 -2.470467408522181 32
    vertex -3.229593786862309 -0.09930739576800983 32
    vertex -1.056218023618094 1.7965829193751 32
  endloop
endfacet
facet normal 0 0 -1
  outer loop
    vertex 5.981545381612207 0 32
    vertex 2.456157156770339 1.723746326774703 32
    vertex 4.839171866349252 3.515864161229814 32
  endloop
endfacet
facet normal -0 0 -1
  outer loop
    vertex 4.839171866349252 3.515864161229814 32
    vertex 2.456157156770339 1.723746326774703 32
    vertex 1.848399175543141 5.688787712697475 32
  endloop
endfacet
facet normal 0 -0 -1
  outer loop
    vertex -1.848399175543173 5.688787712697464 32
    vertex -1.056218023618094 1.7965829193751 32
    vertex -4.839171866349272 3.515864161229786 32
  endloop
endfacet
facet normal 0 0 -1
  outer loop
    vertex 1.848399175543169 -5.688787712697465 32
    vertex 1.577766609344667 -1.842949813009466 32
    vertex 4.839171866349261 -3.515864161229802 32
  endloop
endfacet
facet normal -0 0 -1
  outer loop
    vertex -1.056218023618094 1.7965829193751 32
    vertex -3.229593786862309 -0.09930739576800983 32
    vertex -4.839171866349272 3.515864161229786 32
  endloop
endfacet
facet normal 0 -0 -1
  outer loop
    vertex -4.839171866349272 3.515864161229786 32
    vertex -3.229593786862309 -0.09930739576800983 32
    vertex -5.981545381612207 -3.526494494918653e-14 32
  endloop
endfacet
facet normal 0 0 -1
  outer loop
    vertex -5.981545381612207 -3.526494494918653e-14 32
    vertex -3.229593786862309 -0.09930739576800983 32
    vertex -4.839171866349234 -3.515864161229839 32
  endloop
endfacet
facet normal 0 0 -1
  outer loop
    vertex -4.839171866349234 -3.515864161229839 32
    vertex -1.507540899355784 -2.470467408522181 32
    vertex -1.848399175543124 -5.68878771269748 32
  endloop
endfacet
facet normal 0 0 -1
  outer loop
    vertex -4.839171866349234 -3.515864161229839 32
    vertex -3.229593786862309 -0.09930739576800983 32
    vertex -1.507540899355784 -2.470467408522181 32
  endloop
endfacet
endsolid Created by Gmsh
