solid Created by Gmsh
facet normal -0.795579 0.591746 -0.129964
  outer loop
    vertex 8.166280959420966 -3.793437399692109 12.65093762022181
    vertex 7.224013849519404 -5.819264726426061 9.19515411822308
    vertex 5.975447912857043 -6.733111905122116 12.6774262015533
  endloop
endfacet
facet normal 0.217834 0.964166 -0.151432
  outer loop
    vertex -3.130204346258316 -7.680491940032697 21.67854730373205
    vertex -4.0082772115096 -6.961518529580776 24.99315419165018
    vertex 0.2835613634236875 -8.125353495946877 23.75679225257572
  endloop
endfacet
facet normal -0.00177674 -0.996732 -0.0807644
  outer loop
    vertex 1.912546523308106 9.242980010976341 7.13101270411245
    vertex -1.879607611357504 9.249150510180195 7.138284773180978
    vertex 1.899033628551271 9.547086757690696 3.378259073889232
  endloop
endfacet
facet normal 0.0365402 0.995056 -0.0923539
  outer loop
    vertex -1.976219972035896 -9.508913276304913 3.658122450518455
    vertex -2.255728504271666 -9.088992950639531 8.07191412195931
    vertex 1.529854601441881 -9.305646383923801 7.23538901632724
  endloop
endfacet
facet normal 0.993126 0.0145296 -0.116141
  outer loop
    vertex -7.491105346209778 1.573992289548906 29.80012843076539
    vertex -7.064267974806407 2.074256230619193 33.51260232416834
    vertex -7.046445750004512 -2.236818357338354 33.1256729291422
  endloop
endfacet
facet normal -0.00133119 -0.996768 -0.0803195
  outer loop
    vertex -1.879607611357504 9.249150510180195 7.138284773180978
    vertex -1.87352583631735 9.552152789628769 3.377914667735581
    vertex 1.899033628551271 9.547086757690696 3.378259073889232
  endloop
endfacet
facet normal -0.788902 -0.602671 -0.12009
  outer loop
    vertex 7.080697409888677 3.430565863032551 27.08992406820984
    vertex 7.090624087037928 2.778819321502126 30.29548714401388
    vertex 4.638547303637376 6.090996652070444 29.78166327854674
  endloop
endfacet
facet normal 0.27074 0.962044 0.0342232
  outer loop
    vertex 0.2835613634236875 -8.125353495946877 23.75679225257572
    vertex -4.0082772115096 -6.961518529580776 24.99315419165018
    vertex -1.395767665502485 -7.762660324309172 26.84636302393589
  endloop
endfacet
facet normal -0.389249 -0.918235 -0.0730081
  outer loop
    vertex 5.338505416622444 7.824135398565263 6.710250544838956
    vertex 1.912546523308106 9.242980010976341 7.13101270411245
    vertex 1.899033628551271 9.547086757690696 3.378259073889232
  endloop
endfacet
facet normal 0.722599 -0.683472 -0.103518
  outer loop
    vertex -8.061833442475882 4.948016278696697 6.871811772919308
    vertex -8.004049363614465 5.555007575244945 3.267537971097013
    vertex -5.359025567012438 7.776074744081948 7.066427522126176
  endloop
endfacet
facet normal 0.389871 -0.916515 -0.089446
  outer loop
    vertex -1.879607611357504 9.249150510180195 7.138284773180978
    vertex -5.359025567012438 7.776074744081948 7.066427522126176
    vertex -5.316033795727454 8.154793991401663 3.373242757511306
  endloop
endfacet
facet normal 0.695053 -0.715984 -0.0653299
  outer loop
    vertex -5.359025567012438 7.776074744081948 7.066427522126176
    vertex -8.004049363614465 5.555007575244945 3.267537971097013
    vertex -5.316033795727454 8.154793991401663 3.373242757511306
  endloop
endfacet
facet normal 0.375168 -0.92401 -0.0738479
  outer loop
    vertex -5.316033795727454 8.154793991401663 3.373242757511306
    vertex -1.87352583631735 9.552152789628769 3.377914667735581
    vertex -1.879607611357504 9.249150510180195 7.138284773180978
  endloop
endfacet
facet normal -0.383109 -0.920201 -0.0803624
  outer loop
    vertex 1.899033628551271 9.547086757690696 3.378259073889232
    vertex 5.44510785723263 8.094236509892021 3.109217308956367
    vertex 5.338505416622444 7.824135398565263 6.710250544838956
  endloop
endfacet
facet normal -0.872375 0.486538 -0.0473499
  outer loop
    vertex 8.166280959420966 -3.793437399692109 12.65093762022181
    vertex 8.766505576837945 -3.067648532617388 9.050139689512104
    vertex 7.224013849519404 -5.819264726426061 9.19515411822308
  endloop
endfacet
facet normal -0.782345 -0.614334 -0.102614
  outer loop
    vertex 4.638547303637376 6.090996652070444 29.78166327854674
    vertex 5.107446990334542 6.05192045660348 26.44065338138394
    vertex 7.080697409888677 3.430565863032551 27.08992406820984
  endloop
endfacet
facet normal 0.00122685 0.99832 -0.0579288
  outer loop
    vertex 1.529854601441881 -9.305646383923801 7.23538901632724
    vertex 1.968454034552577 -9.522168176566863 3.513235672537306
    vertex -1.976219972035896 -9.508913276304913 3.658122450518455
  endloop
endfacet
facet normal 0.910062 -0.41086 -0.0546022
  outer loop
    vertex -8.061833442475882 4.948016278696697 6.871811772919308
    vertex -9.452939404847136 2.336562022918995 3.336240465942083
    vertex -8.004049363614465 5.555007575244945 3.267537971097013
  endloop
endfacet
facet normal 0.939721 -0.312425 -0.138978
  outer loop
    vertex -9.426607206979162 0.902613544943728 6.737820909622407
    vertex -9.452939404847136 2.336562022918995 3.336240465942083
    vertex -8.061833442475882 4.948016278696697 6.871811772919308
  endloop
endfacet
facet normal 0.994763 0.0311113 -0.097359
  outer loop
    vertex -7.046445750004512 -2.236818357338354 33.1256729291422
    vertex -7.451210126979701 -1.989403709124672 29.06906520530162
    vertex -7.491105346209778 1.573992289548906 29.80012843076539
  endloop
endfacet
facet normal -0.948824 0.313 0.0419934
  outer loop
    vertex 5.943273822897353 -4.469306995288333 32.57604953604235
    vertex 6.551561750032853 -3.010639074459712 35.44783609175941
    vertex 7.424307776648849 0 32.72727272727273
  endloop
endfacet
facet normal -0.949572 -0.31105 0.0395185
  outer loop
    vertex 7.424307776648849 0 32.72727272727273
    vertex 6.551624081339431 3.010066915074888 35.45015178167115
    vertex 5.960639314495634 4.447622758692723 32.56463573299081
  endloop
endfacet
facet normal -0.694126 -0.714715 -0.0858565
  outer loop
    vertex 7.776353139284434 5.87648813750971 3.214166623951954
    vertex 7.656623156456387 5.544078830047211 6.949299842308896
    vertex 5.338505416622444 7.824135398565263 6.710250544838956
  endloop
endfacet
facet normal 0.99983 0.00249456 0.018259
  outer loop
    vertex -7.046445750004512 -2.236818357338354 33.1256729291422
    vertex -7.064267974806407 2.074256230619193 33.51260232416834
    vertex -7.115898689895092 -0.1006344897660531 36.6369404843182
  endloop
endfacet
facet normal 0.898544 0.437948 -0.0286453
  outer loop
    vertex -9.547086757690717 -1.899033628551166 3.378259073889232
    vertex -9.11437688947696 -2.566305867084051 6.749791959650082
    vertex -7.548084739876498 -5.84412442322788 5.767780045661681
  endloop
endfacet
facet normal -0.685564 -0.724179 -0.0746131
  outer loop
    vertex 5.44510785723263 8.094236509892021 3.109217308956367
    vertex 7.776353139284434 5.87648813750971 3.214166623951954
    vertex 5.338505416622444 7.824135398565263 6.710250544838956
  endloop
endfacet
facet normal 0.91328 0.388375 -0.122818
  outer loop
    vertex -7.548084739876498 -5.84412442322788 5.767780045661681
    vertex -8.143874415727458 -5.441562914486517 2.610432845887246
    vertex -9.547086757690717 -1.899033628551166 3.378259073889232
  endloop
endfacet
facet normal -0.352853 0.93077 -0.0957223
  outer loop
    vertex 1.529854601441881 -9.305646383923801 7.23538901632724
    vertex 5.005865254672201 -8.032953851212447 6.797276166187658
    vertex 1.968454034552577 -9.522168176566863 3.513235672537306
  endloop
endfacet
facet normal -0.923067 0.313429 -0.222956
  outer loop
    vertex 7.424307776648849 0 32.72727272727273
    vertex 7.191937088180992 -2.550418267380413 30.10397004714066
    vertex 5.943273822897353 -4.469306995288333 32.57604953604235
  endloop
endfacet
facet normal -0.862777 0.503588 -0.0448971
  outer loop
    vertex 7.191937088180992 -2.550418267380413 30.10397004714066
    vertex 5.66245838212768 -5.35599553252495 28.02688225903877
    vertex 5.943273822897353 -4.469306995288333 32.57604953604235
  endloop
endfacet
facet normal -0.92194 -0.311804 -0.229795
  outer loop
    vertex 5.960639314495634 4.447622758692723 32.56463573299081
    vertex 7.090624087037928 2.778819321502126 30.29548714401388
    vertex 7.424307776648849 0 32.72727272727273
  endloop
endfacet
facet normal -0.620977 0.775662 -0.112854
  outer loop
    vertex 5.943273822897353 -4.469306995288333 32.57604953604235
    vertex 5.66245838212768 -5.35599553252495 28.02688225903877
    vertex 3.553994574644078 -6.769623043930107 29.91260156347715
  endloop
endfacet
facet normal 0.829564 -0.535461 -0.158448
  outer loop
    vertex -4.818414023010644 5.573939036086092 33.44403626553123
    vertex -7.064267974806407 2.074256230619193 33.51260232416834
    vertex -6.11426643499403 4.574247457520641 30.03788579046638
  endloop
endfacet
facet normal -0.0942477 0.985685 -0.139793
  outer loop
    vertex -1.064596783857537 -7.290923779999233 33.43970277666616
    vertex 2.414168386284751 -6.966101531952166 33.38467113973386
    vertex 0.6180166269514329 -7.608932388277977 30.06301302662227
  endloop
endfacet
facet normal -0.81412 -0.56464 -0.135608
  outer loop
    vertex 5.658218258302046 6.250671175764063 19.93259687502585
    vertex 6.81795579857621 5.410493035483597 16.46845287319757
    vertex 7.837593486071909 3.103297724879251 19.95369408964735
  endloop
endfacet
facet normal -0.379333 0.922787 -0.0676114
  outer loop
    vertex 1.968454034552577 -9.522168176566863 3.513235672537306
    vertex 5.005865254672201 -8.032953851212447 6.797276166187658
    vertex 5.314612987400232 -8.161132944541377 3.315614168559904
  endloop
endfacet
facet normal -0.10834 -0.981482 -0.157973
  outer loop
    vertex 0.6087608585575507 7.609230924078496 30.06868189310153
    vertex 2.745903611997001 6.844949376961974 33.35146707600074
    vertex -1.20027395746309 7.273236065714025 33.39687314568329
  endloop
endfacet
facet normal -0.599266 -0.800494 -0.00944907
  outer loop
    vertex 2.745903611997001 6.844949376961974 33.35146707600074
    vertex 5.960639314495634 4.447622758692723 32.56463573299081
    vertex 4.657144919731476 5.374631747407908 36.69987756170472
  endloop
endfacet
facet normal -0.870938 0.485638 -0.0749875
  outer loop
    vertex 9.052695528155258 -3.115890512625786 5.413776204760012
    vertex 7.37563220061928 -6.025224467988195 6.05035194634884
    vertex 8.766505576837945 -3.067648532617388 9.050139689512104
  endloop
endfacet
facet normal 0.945154 0.28701 -0.155916
  outer loop
    vertex -7.115898689895092 -0.1006344897660531 36.6369404843182
    vertex -5.9678659205589 -3.875396414039406 36.64767195643217
    vertex -7.046445750004512 -2.236818357338354 33.1256729291422
  endloop
endfacet
facet normal -0.776626 -0.61659 -0.129106
  outer loop
    vertex 7.080697409888677 3.430565863032551 27.08992406820984
    vertex 5.107446990334542 6.05192045660348 26.44065338138394
    vertex 6.27588742870411 5.206753211114583 23.44838792908912
  endloop
endfacet
facet normal -0.805751 -0.5913 0.033615
  outer loop
    vertex 4.638547303637376 6.090996652070444 29.78166327854674
    vertex 7.090624087037928 2.778819321502126 30.29548714401388
    vertex 5.960639314495634 4.447622758692723 32.56463573299081
  endloop
endfacet
facet normal -0.577706 0.816244 -0.000979312
  outer loop
    vertex 4.657144919731497 -5.374631747407889 36.69987756170473
    vertex 5.943273822897353 -4.469306995288333 32.57604953604235
    vertex 2.414168386284751 -6.966101531952166 33.38467113973386
  endloop
endfacet
facet normal 0.371735 0.926091 -0.0645661
  outer loop
    vertex -1.976219972035896 -9.508913276304913 3.658122450518455
    vertex -4.880994636197389 -8.170357894224887 6.133380170653624
    vertex -2.255728504271666 -9.088992950639531 8.07191412195931
  endloop
endfacet
facet normal -0.852906 -0.516198 -0.0780463
  outer loop
    vertex 6.84283895975777 6.174726334055581 9.949922389192391
    vertex 8.705507569034106 3.225861728760712 9.098060068407317
    vertex 8.447380678280055 3.110200082176392 12.68391113769878
  endloop
endfacet
facet normal -0.884709 -0.465091 -0.0313236
  outer loop
    vertex 6.27588742870411 5.206753211114583 23.44838792908912
    vertex 7.824876628196186 2.249232280486619 23.61158037361657
    vertex 7.080697409888677 3.430565863032551 27.08992406820984
  endloop
endfacet
facet normal -0.351844 -0.935992 0.0111429
  outer loop
    vertex 0.6087608585575507 7.609230924078496 30.06868189310153
    vertex 4.638547303637376 6.090996652070444 29.78166327854674
    vertex 2.745903611997001 6.844949376961974 33.35146707600074
  endloop
endfacet
facet normal -0.276401 0.960353 -0.0363934
  outer loop
    vertex 0.6180166269514329 -7.608932388277977 30.06301302662227
    vertex 2.414168386284751 -6.966101531952166 33.38467113973386
    vertex 3.553994574644078 -6.769623043930107 29.91260156347715
  endloop
endfacet
facet normal 0.841651 -0.539833 0.0142848
  outer loop
    vertex -5.982706571865179 3.844852051586233 36.69987756170473
    vertex -7.064267974806407 2.074256230619193 33.51260232416834
    vertex -4.818414023010644 5.573939036086092 33.44403626553123
  endloop
endfacet
facet normal -0.871568 0.484693 -0.073764
  outer loop
    vertex 8.766505576837945 -3.067648532617388 9.050139689512104
    vertex 7.37563220061928 -6.025224467988195 6.05035194634884
    vertex 7.224013849519404 -5.819264726426061 9.19515411822308
  endloop
endfacet
facet normal 0.909244 -0.413389 -0.0488342
  outer loop
    vertex -6.11426643499403 4.574247457520641 30.03788579046638
    vertex -7.064267974806407 2.074256230619193 33.51260232416834
    vertex -7.491105346209778 1.573992289548906 29.80012843076539
  endloop
endfacet
facet normal -0.107851 -0.994159 0.0040785
  outer loop
    vertex -1.20027395746309 7.273236065714025 33.39687314568329
    vertex 2.745903611997001 6.844949376961974 33.35146707600074
    vertex 0.9059244470961555 7.058070972135572 36.64504358442783
  endloop
endfacet
facet normal -0.479934 -0.877201 -0.0134916
  outer loop
    vertex 5.658218258302046 6.250671175764063 19.93259687502585
    vertex 3.697628793537005 7.269531106282598 23.43163959934946
    vertex 2.246568301826372 8.115114997142976 20.07145708995013
  endloop
endfacet
facet normal -0.2523 0.9646 -0.0767559
  outer loop
    vertex 0.4405641724575898 -8.391828085292886 20.2869201405431
    vertex 3.621847757603616 -7.32801799328206 23.19892390494643
    vertex 3.739791185732807 -7.562939444340674 19.85895302027751
  endloop
endfacet
facet normal -0.401719 -0.900565 -0.166149
  outer loop
    vertex 0.9059244470961555 7.058070972135572 36.64504358442783
    vertex 2.745903611997001 6.844949376961974 33.35146707600074
    vertex 4.657144919731476 5.374631747407908 36.69987756170472
  endloop
endfacet
facet normal -0.406041 0.913735 0.0148002
  outer loop
    vertex 4.657144919731497 -5.374631747407889 36.69987756170473
    vertex 0.8450845759843862 -7.067367690243162 36.62291475330314
    vertex 2.846395307466102 -6.232736328877813 40
  endloop
endfacet
facet normal -0.409552 -0.912201 0.0124747
  outer loop
    vertex 2.846395307466067 6.232736328877828 40
    vertex 0.9059244470961555 7.058070972135572 36.64504358442783
    vertex 4.657144919731476 5.374631747407908 36.69987756170472
  endloop
endfacet
facet normal 0.990018 0.0887316 -0.1095
  outer loop
    vertex -9.426607206979162 0.902613544943728 6.737820909622407
    vertex -9.11437688947696 -2.566305867084051 6.749791959650082
    vertex -9.547086757690717 -1.899033628551166 3.378259073889232
  endloop
endfacet
facet normal 0.999602 -0.0223892 -0.0171763
  outer loop
    vertex -9.547086757690717 -1.899033628551166 3.378259073889232
    vertex -9.452939404847136 2.336562022918995 3.336240465942083
    vertex -9.426607206979162 0.902613544943728 6.737820909622407
  endloop
endfacet
facet normal -0.0931792 0.995551 -0.014017
  outer loop
    vertex 0.8450845759843862 -7.067367690243162 36.62291475330314
    vertex 2.414168386284751 -6.966101531952166 33.38467113973386
    vertex -1.064596783857537 -7.290923779999233 33.43970277666616
  endloop
endfacet
facet normal 0.956719 0.290983 0.0042678
  outer loop
    vertex -6.574380347757381 -1.930412244754955 40
    vertex -5.9678659205589 -3.875396414039406 36.64767195643217
    vertex -7.115898689895092 -0.1006344897660531 36.6369404843182
  endloop
endfacet
facet normal -0.868699 -0.493447 -0.0432763
  outer loop
    vertex 8.447380678280055 3.110200082176392 12.68391113769878
    vertex 7.083811703752405 5.416965054294773 13.75297594372773
    vertex 6.84283895975777 6.174726334055581 9.949922389192391
  endloop
endfacet
facet normal -0.882045 -0.468291 -0.051954
  outer loop
    vertex 6.81795579857621 5.410493035483597 16.46845287319757
    vertex 8.317154775290385 2.601768294346183 16.33254925924638
    vertex 7.837593486071909 3.103297724879251 19.95369408964735
  endloop
endfacet
facet normal -0.821813 -0.569224 -0.0246357
  outer loop
    vertex 7.837593486071909 3.103297724879251 19.95369408964735
    vertex 6.27588742870411 5.206753211114583 23.44838792908912
    vertex 5.658218258302046 6.250671175764063 19.93259687502585
  endloop
endfacet
facet normal -0.39754 0.902738 -0.164397
  outer loop
    vertex 4.657144919731497 -5.374631747407889 36.69987756170473
    vertex 2.414168386284751 -6.966101531952166 33.38467113973386
    vertex 0.8450845759843862 -7.067367690243162 36.62291475330314
  endloop
endfacet
facet normal -0.619626 -0.775454 -0.121391
  outer loop
    vertex 6.27588742870411 5.206753211114583 23.44838792908912
    vertex 3.697628793537005 7.269531106282598 23.43163959934946
    vertex 5.658218258302046 6.250671175764063 19.93259687502585
  endloop
endfacet
facet normal 0.645897 -0.745405 -0.16489
  outer loop
    vertex -2.95428908330846 6.468990743220234 36.69987756170568
    vertex -5.982706571865179 3.844852051586233 36.69987756170473
    vertex -4.818414023010644 5.573939036086092 33.44403626553123
  endloop
endfacet
facet normal 0.189149 -0.981851 -0.0137966
  outer loop
    vertex -3.329226663324056 7.439304687415724 23.50296753739006
    vertex 0.3307361202286307 8.144555791152793 23.49036307885195
    vertex -1.444227489177507 7.755815822575592 26.82106589603742
  endloop
endfacet
facet normal -0.244921 0.965788 -0.0852513
  outer loop
    vertex 0.2835613634236875 -8.125353495946877 23.75679225257572
    vertex 3.621847757603616 -7.32801799328206 23.19892390494643
    vertex 0.4405641724575898 -8.391828085292886 20.2869201405431
  endloop
endfacet
facet normal -0.801831 0.597525 -0.0056275
  outer loop
    vertex 5.975447912857043 -6.733111905122116 12.6774262015533
    vertex 6.960261666914428 -5.387577933708652 15.2248955530134
    vertex 8.166280959420966 -3.793437399692109 12.65093762022181
  endloop
endfacet
facet normal -0.805325 -0.579745 -0.123888
  outer loop
    vertex 5.960639314495634 4.447622758692723 32.56463573299081
    vertex 6.551624081339431 3.010066915074888 35.45015178167115
    vertex 4.657144919731476 5.374631747407908 36.69987756170472
  endloop
endfacet
facet normal -0.805326 0.579743 -0.123889
  outer loop
    vertex 4.657144919731497 -5.374631747407889 36.69987756170473
    vertex 6.551561750032853 -3.010639074459712 35.44783609175941
    vertex 5.943273822897353 -4.469306995288333 32.57604953604235
  endloop
endfacet
facet normal -0.0606417 -0.987196 -0.147536
  outer loop
    vertex -1.444227489177507 7.755815822575592 26.82106589603742
    vertex 0.3307361202286307 8.144555791152793 23.49036307885195
    vertex 2.351007759450846 7.540535144188654 26.70160222805366
  endloop
endfacet
facet normal -0.195034 0.980501 -0.0240802
  outer loop
    vertex -4.624589118372729e-14 -10 0
    vertex 1.968454034552577 -9.522168176566863 3.513235672537306
    vertex 3.826834323650859 -9.238795325112884 0
  endloop
endfacet
facet normal -0.615153 -0.771324 -0.163237
  outer loop
    vertex 4.638547303637376 6.090996652070444 29.78166327854674
    vertex 5.960639314495634 4.447622758692723 32.56463573299081
    vertex 2.745903611997001 6.844949376961974 33.35146707600074
  endloop
endfacet
facet normal -0.593708 0.790544 -0.150169
  outer loop
    vertex 2.414168386284751 -6.966101531952166 33.38467113973386
    vertex 5.943273822897353 -4.469306995288333 32.57604953604235
    vertex 3.553994574644078 -6.769623043930107 29.91260156347715
  endloop
endfacet
facet normal -0.358003 -0.918756 -0.166499
  outer loop
    vertex 0.6087608585575507 7.609230924078496 30.06868189310153
    vertex 2.351007759450846 7.540535144188654 26.70160222805366
    vertex 4.638547303637376 6.090996652070444 29.78166327854674
  endloop
endfacet
facet normal 0.654837 -0.755722 0.00858931
  outer loop
    vertex -4.487061039696221 5.178344486196201 40
    vertex -5.982706571865179 3.844852051586233 36.69987756170473
    vertex -2.95428908330846 6.468990743220234 36.69987756170568
  endloop
endfacet
facet normal -0.97403 -0.213048 -0.0766578
  outer loop
    vertex 7.138119751832055 0 36.36363636363636
    vertex 6.551624081339431 3.010066915074888 35.45015178167115
    vertex 7.424307776648849 0 32.72727272727273
  endloop
endfacet
facet normal -0.974022 0.213085 -0.0766572
  outer loop
    vertex 7.424307776648849 0 32.72727272727273
    vertex 6.551561750032853 -3.010639074459712 35.44783609175941
    vertex 7.138119751832055 0 36.36363636363636
  endloop
endfacet
facet normal -0.140521 0.977345 -0.158272
  outer loop
    vertex 2.846395307466102 -6.232736328877813 40
    vertex 0.8450845759843862 -7.067367690243162 36.62291475330314
    vertex -0.9751315555897325 -6.782188941703959 40
  endloop
endfacet
facet normal -0.140501 -0.977208 -0.159133
  outer loop
    vertex -0.9751315555897926 6.782188941703951 40
    vertex 0.9059244470961555 7.058070972135572 36.64504358442783
    vertex 2.846395307466067 6.232736328877828 40
  endloop
endfacet
facet normal 0.830496 0.533728 -0.159407
  outer loop
    vertex -4.487061039696167 -5.178344486196248 40
    vertex -5.9678659205589 -3.875396414039406 36.64767195643217
    vertex -6.574380347757381 -1.930412244754955 40
  endloop
endfacet
facet normal 0.186808 -0.972005 -0.142508
  outer loop
    vertex -1.572687211453975 8.262748547506591 20.18907344674976
    vertex 0.3307361202286307 8.144555791152793 23.49036307885195
    vertex -3.329226663324056 7.439304687415724 23.50296753739006
  endloop
endfacet
facet normal 0.961022 -0.27621 0.0120676
  outer loop
    vertex -7.115898689895092 -0.1006344897660531 36.6369404843182
    vertex -5.982706571865179 3.844852051586233 36.69987756170473
    vertex -6.574380347757399 1.930412244754893 40
  endloop
endfacet
facet normal -0.521535 0.847415 -0.0994395
  outer loop
    vertex 2.379329838747224 -7.530603666359228 26.71423571759621
    vertex 5.66245838212768 -5.35599553252495 28.02688225903877
    vertex 5.628175216946661 -5.710074298587421 25.18925966243833
  endloop
endfacet
facet normal 0.404032 -0.914651 -0.0131159
  outer loop
    vertex -3.329226663324056 7.439304687415724 23.50296753739006
    vertex -5.041464638452998 6.730081298542969 20.21626757503751
    vertex -1.572687211453975 8.262748547506591 20.18907344674976
  endloop
endfacet
facet normal -0.380147 0.916139 -0.12719
  outer loop
    vertex 3.826834323650859 -9.238795325112884 0
    vertex 1.968454034552577 -9.522168176566863 3.513235672537306
    vertex 5.314612987400232 -8.161132944541377 3.315614168559904
  endloop
endfacet
facet normal 0.462817 0.886022 -0.0276661
  outer loop
    vertex -3.130204346258316 -7.680491940032697 21.67854730373205
    vertex -2.147095390278595 -8.307885383005909 18.03201679669396
    vertex -5.424789197972157 -6.572442702678327 18.77913177117294
  endloop
endfacet
facet normal 0.439429 0.888071 -0.135031
  outer loop
    vertex -5.424789197972157 -6.572442702678327 18.77913177117294
    vertex -2.147095390278595 -8.307885383005909 18.03201679669396
    vertex -4.434418198827062 -7.603390433840761 15.22173961728003
  endloop
endfacet
facet normal -0.00158797 0.990994 -0.133894
  outer loop
    vertex -1.976219972035896 -9.508913276304913 3.658122450518455
    vertex 1.968454034552577 -9.522168176566863 3.513235672537306
    vertex -4.624589118372729e-14 -10 0
  endloop
endfacet
facet normal -0.629867 -0.765176 -0.133319
  outer loop
    vertex 3.928868123097172 7.744184533595916 16.72389469075763
    vertex 5.165074966611695 7.300914875872246 13.42753981329333
    vertex 6.81795579857621 5.410493035483597 16.46845287319757
  endloop
endfacet
facet normal 0.947563 -0.26941 -0.171881
  outer loop
    vertex -7.115898689895092 -0.1006344897660531 36.6369404843182
    vertex -7.064267974806407 2.074256230619193 33.51260232416834
    vertex -5.982706571865179 3.844852051586233 36.69987756170473
  endloop
endfacet
facet normal -0.409972 -0.911565 -0.031168
  outer loop
    vertex 2.06692808786208 8.689303830366709 13.57337851732617
    vertex 5.165074966611695 7.300914875872246 13.42753981329333
    vertex 3.928868123097172 7.744184533595916 16.72389469075763
  endloop
endfacet
facet normal 0.398982 -0.905546 -0.14422
  outer loop
    vertex -1.572687211453975 8.262748547506591 20.18907344674976
    vertex -5.041464638452998 6.730081298542969 20.21626757503751
    vertex -3.474446957615174 7.937027494059557 16.97307626766901
  endloop
endfacet
facet normal 0.992611 -0.119262 -0.0223593
  outer loop
    vertex -8.737541288320946 2.905171839589523 10.06511689040014
    vertex -8.924461593284299 0.7490996033062919 13.26724345959706
    vertex -9.194128758921527 -0.8371083271755267 9.756348951884192
  endloop
endfacet
facet normal 0.1467 -0.97619 -0.159789
  outer loop
    vertex -2.95428908330846 6.468990743220234 36.69987756170568
    vertex -1.20027395746309 7.273236065714025 33.39687314568329
    vertex 0.9059244470961555 7.058070972135572 36.64504358442783
  endloop
endfacet
facet normal -0.246237 -0.958738 -0.142086
  outer loop
    vertex 2.06692808786208 8.689303830366709 13.57337851732617
    vertex 3.928868123097172 7.744184533595916 16.72389469075763
    vertex 0.2347244690792286 8.666644441320241 16.9015081874768
  endloop
endfacet
facet normal 0.406905 -0.901868 -0.145132
  outer loop
    vertex -3.329226663324056 7.439304687415724 23.50296753739006
    vertex -1.444227489177507 7.755815822575592 26.82106589603742
    vertex -4.85433964531694 6.221428545410738 26.79504654598525
  endloop
endfacet
facet normal -0.394373 0.910977 -0.12079
  outer loop
    vertex 1.685385026440322 -8.477908927771068 17.23201959953977
    vertex 4.897750001522206 -7.212062221687781 16.29061331802896
    vertex 2.770967407560321 -8.487707228028901 13.61375762539071
  endloop
endfacet
facet normal -0.602298 0.798245 -0.00647131
  outer loop
    vertex 5.975447912857043 -6.733111905122116 12.6774262015533
    vertex 7.224013849519404 -5.819264726426061 9.19515411822308
    vertex 3.812126366888218 -8.38708380469169 10.00246342937091
  endloop
endfacet
facet normal -0.0965595 0.994823 -0.0316646
  outer loop
    vertex -0.8900100588894012 -8.815403353088733 14.48230977442192
    vertex 1.685385026440322 -8.477908927771068 17.23201959953977
    vertex 2.770967407560321 -8.487707228028901 13.61375762539071
  endloop
endfacet
facet normal 0.188456 -0.971896 -0.141074
  outer loop
    vertex -1.727284592552109 8.755552708263144 13.66800406601465
    vertex 0.2347244690792286 8.666644441320241 16.9015081874768
    vertex -3.474446957615174 7.937027494059557 16.97307626766901
  endloop
endfacet
facet normal -0.646351 -0.745929 -0.160689
  outer loop
    vertex 2.846395307466067 6.232736328877828 40
    vertex 4.657144919731476 5.374631747407908 36.69987756170472
    vertex 5.76421177206964 3.704433970043481 40
  endloop
endfacet
facet normal -0.646351 0.745929 -0.160689
  outer loop
    vertex 5.764211772069647 -3.704433970043469 40
    vertex 4.657144919731497 -5.374631747407889 36.69987756170473
    vertex 2.846395307466102 -6.232736328877813 40
  endloop
endfacet
facet normal -0.061669 0.998055 -0.00909049
  outer loop
    vertex 0.6180166269514329 -7.608932388277977 30.06301302662227
    vertex 2.379329838747224 -7.530603666359228 26.71423571759621
    vertex -1.395767665502485 -7.762660324309172 26.84636302393589
  endloop
endfacet
facet normal 0.150902 -0.988543 0.00331851
  outer loop
    vertex -2.95428908330846 6.468990743220234 36.69987756170568
    vertex 0.9059244470961555 7.058070972135572 36.64504358442783
    vertex -0.9751315555897926 6.782188941703951 40
  endloop
endfacet
facet normal 0.155585 0.987822 0.000441712
  outer loop
    vertex -0.9751315555897325 -6.782188941703959 40
    vertex 0.8450845759843862 -7.067367690243162 36.62291475330314
    vertex -2.954289083308398 -6.468990743220261 36.6998775617057
  endloop
endfacet
facet normal -0.479032 -0.865772 -0.144802
  outer loop
    vertex 3.928868123097172 7.744184533595916 16.72389469075763
    vertex 5.658218258302046 6.250671175764063 19.93259687502585
    vertex 2.246568301826372 8.115114997142976 20.07145708995013
  endloop
endfacet
facet normal -0.629406 -0.776756 -0.0223239
  outer loop
    vertex 3.928868123097172 7.744184533595916 16.72389469075763
    vertex 6.81795579857621 5.410493035483597 16.46845287319757
    vertex 5.658218258302046 6.250671175764063 19.93259687502585
  endloop
endfacet
facet normal -0.0178704 -0.999702 -0.0166444
  outer loop
    vertex -1.727284592552109 8.755552708263144 13.66800406601465
    vertex 2.06692808786208 8.689303830366709 13.57337851732617
    vertex 0.2347244690792286 8.666644441320241 16.9015081874768
  endloop
endfacet
facet normal -0.555448 0.831287 -0.0209502
  outer loop
    vertex 3.826834323650859 -9.238795325112884 0
    vertex 5.314612987400232 -8.161132944541377 3.315614168559904
    vertex 7.071067811865461 -7.071067811865489 0
  endloop
endfacet
facet normal -0.251478 -0.958728 -0.132664
  outer loop
    vertex 2.246568301826372 8.115114997142976 20.07145708995013
    vertex 3.697628793537005 7.269531106282598 23.43163959934946
    vertex 0.3307361202286307 8.144555791152793 23.49036307885195
  endloop
endfacet
facet normal -0.118106 0.984948 -0.12621
  outer loop
    vertex -0.8900100588894012 -8.815403353088733 14.48230977442192
    vertex 2.770967407560321 -8.487707228028901 13.61375762539071
    vertex 0.2580130521502472 -9.141275603809015 10.86487115291993
  endloop
endfacet
facet normal -0.195044 -0.980552 -0.0218189
  outer loop
    vertex 3.826834323650923 9.238795325112857 0
    vertex 1.899033628551271 9.547086757690696 3.378259073889232
    vertex 3.391901413832837e-14 10 0
  endloop
endfacet
facet normal 0.150462 0.975779 -0.158794
  outer loop
    vertex 0.8450845759843862 -7.067367690243162 36.62291475330314
    vertex -1.064596783857537 -7.290923779999233 33.43970277666616
    vertex -2.954289083308398 -6.468990743220261 36.6998775617057
  endloop
endfacet
facet normal -0.278609 0.952332 -0.124261
  outer loop
    vertex 0.6180166269514329 -7.608932388277977 30.06301302662227
    vertex 3.553994574644078 -6.769623043930107 29.91260156347715
    vertex 2.379329838747224 -7.530603666359228 26.71423571759621
  endloop
endfacet
facet normal -0.410608 -0.902899 -0.127178
  outer loop
    vertex 3.797764203569217 8.375249065386601 10.2148256614521
    vertex 5.165074966611695 7.300914875872246 13.42753981329333
    vertex 2.06692808786208 8.689303830366709 13.57337851732617
  endloop
endfacet
facet normal 0.981276 0.135704 -0.136681
  outer loop
    vertex -9.194128758921527 -0.8371083271755267 9.756348951884192
    vertex -8.924461593284299 0.7490996033062919 13.26724345959706
    vertex -8.462542233286539 -3.035832083739232 12.82563660850859
  endloop
endfacet
facet normal 0.171606 -0.985146 -0.00617867
  outer loop
    vertex -3.143176585549327 6.955613310345943 30.07772855188102
    vertex 0.6087608585575507 7.609230924078496 30.06868189310153
    vertex -1.20027395746309 7.273236065714025 33.39687314568329
  endloop
endfacet
facet normal 0.195023 0.980447 -0.0262638
  outer loop
    vertex -3.826834323650945 -9.238795325112848 0
    vertex -1.976219972035896 -9.508913276304913 3.658122450518455
    vertex -4.624589118372729e-14 -10 0
  endloop
endfacet
facet normal 0.570898 0.808502 -0.142827
  outer loop
    vertex -6.272443806000676 -5.349731979201747 22.31236712782182
    vertex -3.130204346258316 -7.680491940032697 21.67854730373205
    vertex -5.424789197972157 -6.572442702678327 18.77913177117294
  endloop
endfacet
facet normal 0.171602 0.98514 -0.00726863
  outer loop
    vertex -1.064596783857537 -7.290923779999233 33.43970277666616
    vertex 0.6180166269514329 -7.608932388277977 30.06301302662227
    vertex -3.137163703929425 -6.954370703871706 30.12355762015332
  endloop
endfacet
facet normal -0.374113 0.926889 -0.0302615
  outer loop
    vertex 1.685385026440322 -8.477908927771068 17.23201959953977
    vertex 3.739791185732807 -7.562939444340674 19.85895302027751
    vertex 4.897750001522206 -7.212062221687781 16.29061331802896
  endloop
endfacet
facet normal 0.195044 -0.980552 -0.0218234
  outer loop
    vertex 3.391901413832837e-14 10 0
    vertex -1.87352583631735 9.552152789628769 3.377914667735581
    vertex -3.826834323650852 9.238795325112886 0
  endloop
endfacet
facet normal 0.167373 0.974208 -0.151343
  outer loop
    vertex 0.6180166269514329 -7.608932388277977 30.06301302662227
    vertex -1.395767665502485 -7.762660324309172 26.84636302393589
    vertex -3.137163703929425 -6.954370703871706 30.12355762015332
  endloop
endfacet
facet normal 0.410017 -0.897811 -0.160689
  outer loop
    vertex -4.487061039696221 5.178344486196201 40
    vertex -2.95428908330846 6.468990743220234 36.69987756170568
    vertex -0.9751315555897926 6.782188941703951 40
  endloop
endfacet
facet normal 0.410017 0.897811 -0.160689
  outer loop
    vertex -0.9751315555897325 -6.782188941703959 40
    vertex -2.954289083308398 -6.468990743220261 36.6998775617057
    vertex -4.487061039696167 -5.178344486196248 40
  endloop
endfacet
facet normal -0.586787 -0.80947 -0.0209549
  outer loop
    vertex 3.797764203569217 8.375249065386601 10.2148256614521
    vertex 6.84283895975777 6.174726334055581 9.949922389192391
    vertex 5.165074966611695 7.300914875872246 13.42753981329333
  endloop
endfacet
facet normal 0.398948 -0.916831 -0.016164
  outer loop
    vertex -5.236558807593106 7.228996718285291 13.64186200336471
    vertex -1.727284592552109 8.755552708263144 13.66800406601465
    vertex -3.474446957615174 7.937027494059557 16.97307626766901
  endloop
endfacet
facet normal 0.296198 0.946104 -0.130973
  outer loop
    vertex -4.434418198827062 -7.603390433840761 15.22173961728003
    vertex -0.8900100588894012 -8.815403353088733 14.48230977442192
    vertex -3.402829383942325 -8.422953281223213 11.6344539402684
  endloop
endfacet
facet normal -0.0659309 0.986238 -0.151614
  outer loop
    vertex 2.379329838747224 -7.530603666359228 26.71423571759621
    vertex 0.2835613634236875 -8.125353495946877 23.75679225257572
    vertex -1.395767665502485 -7.762660324309172 26.84636302393589
  endloop
endfacet
facet normal 0.555437 -0.83127 -0.02192
  outer loop
    vertex -3.826834323650852 9.238795325112886 0
    vertex -5.316033795727454 8.154793991401663 3.373242757511306
    vertex -7.071067811865434 7.071067811865516 0
  endloop
endfacet
facet normal -0.50377 0.855264 -0.121409
  outer loop
    vertex 2.770967407560321 -8.487707228028901 13.61375762539071
    vertex 5.975447912857043 -6.733111905122116 12.6774262015533
    vertex 3.812126366888218 -8.38708380469169 10.00246342937091
  endloop
endfacet
facet normal -0.242904 -0.96994 -0.0145949
  outer loop
    vertex 3.928868123097172 7.744184533595916 16.72389469075763
    vertex 2.246568301826372 8.115114997142976 20.07145708995013
    vertex 0.2347244690792286 8.666644441320241 16.9015081874768
  endloop
endfacet
facet normal 0.319293 0.947392 -0.0223794
  outer loop
    vertex -4.434418198827062 -7.603390433840761 15.22173961728003
    vertex -2.147095390278595 -8.307885383005909 18.03201679669396
    vertex -0.8900100588894012 -8.815403353088733 14.48230977442192
  endloop
endfacet
facet normal 0.794409 0.60707 -0.0194967
  outer loop
    vertex -6.272443806000676 -5.349731979201747 22.31236712782182
    vertex -5.424789197972157 -6.572442702678327 18.77913177117294
    vertex -7.662354032770596 -3.625989652537695 19.35159381814142
  endloop
endfacet
facet normal 0.588831 -0.795618 -0.14237
  outer loop
    vertex -5.236558807593106 7.228996718285291 13.64186200336471
    vertex -3.474446957615174 7.937027494059557 16.97307626766901
    vertex -6.563286281029582 5.666609596243179 16.88584995673057
  endloop
endfacet
facet normal 0.899199 0.422825 -0.112517
  outer loop
    vertex -6.937020296927226 -3.877829853218776 26.08183645941722
    vertex -7.451210126979701 -1.989403709124672 29.06906520530162
    vertex -6.11634918439865 -4.572526804620288 30.02978673362817
  endloop
endfacet
facet normal 0.765212 -0.643666 -0.0120286
  outer loop
    vertex -7.520433747698883 3.785486635078285 20.0830224069136
    vertex -5.041464638452998 6.730081298542969 20.21626757503751
    vertex -6.350881090682602 5.112648573705844 23.4672247570563
  endloop
endfacet
facet normal 0.592451 -0.805493 -0.0135072
  outer loop
    vertex -3.474446957615174 7.937027494059557 16.97307626766901
    vertex -5.041464638452998 6.730081298542969 20.21626757503751
    vertex -6.563286281029582 5.666609596243179 16.88584995673057
  endloop
endfacet
facet normal 0.604634 -0.783002 -0.146029
  outer loop
    vertex -6.350881090682602 5.112648573705844 23.4672247570563
    vertex -5.041464638452998 6.730081298542969 20.21626757503751
    vertex -3.329226663324056 7.439304687415724 23.50296753739006
  endloop
endfacet
facet normal 0.982064 -0.187959 -0.0148997
  outer loop
    vertex -7.491105346209778 1.573992289548906 29.80012843076539
    vertex -7.918815017384239 -0.3852559561567291 26.32495682097773
    vertex -7.229161065348171 3.192401564988564 26.6491008967567
  endloop
endfacet
facet normal 0.760129 -0.633365 -0.145091
  outer loop
    vertex -6.563286281029582 5.666609596243179 16.88584995673057
    vertex -5.041464638452998 6.730081298542969 20.21626757503751
    vertex -7.520433747698883 3.785486635078285 20.0830224069136
  endloop
endfacet
facet normal 0.872584 0.468976 -0.136593
  outer loop
    vertex -7.921718598041034 -2.122898308287217 22.85542426798078
    vertex -6.272443806000676 -5.349731979201747 22.31236712782182
    vertex -7.662354032770596 -3.625989652537695 19.35159381814142
  endloop
endfacet
facet normal 0.169426 0.983205 -0.0678408
  outer loop
    vertex 0.2835613634236875 -8.125353495946877 23.75679225257572
    vertex 0.4405641724575898 -8.391828085292886 20.2869201405431
    vertex -3.130204346258316 -7.680491940032697 21.67854730373205
  endloop
endfacet
facet normal -0.0569155 -0.998338 -0.00908184
  outer loop
    vertex 0.6087608585575507 7.609230924078496 30.06868189310153
    vertex -1.444227489177507 7.755815822575592 26.82106589603742
    vertex 2.351007759450846 7.540535144188654 26.70160222805366
  endloop
endfacet
facet normal -0.215563 0.975864 -0.0349572
  outer loop
    vertex 2.770967407560321 -8.487707228028901 13.61375762539071
    vertex 3.812126366888218 -8.38708380469169 10.00246342937091
    vertex 0.2580130521502472 -9.141275603809015 10.86487115291993
  endloop
endfacet
facet normal 0.830321 -0.533615 -0.160689
  outer loop
    vertex -6.574380347757399 1.930412244754893 40
    vertex -5.982706571865179 3.844852051586233 36.69987756170473
    vertex -4.487061039696221 5.178344486196201 40
  endloop
endfacet
facet normal -0.486656 0.873098 -0.0294194
  outer loop
    vertex 4.897750001522206 -7.212062221687781 16.29061331802896
    vertex 5.975447912857043 -6.733111905122116 12.6774262015533
    vertex 2.770967407560321 -8.487707228028901 13.61375762539071
  endloop
endfacet
facet normal 0.55544 0.831274 -0.0216795
  outer loop
    vertex -7.07106781186552 -7.07106781186543 0
    vertex -5.408351832889478 -8.094170519624761 3.369989022951493
    vertex -3.826834323650945 -9.238795325112848 0
  endloop
endfacet
facet normal 0.373045 -0.91859 -0.130502
  outer loop
    vertex -3.826834323650852 9.238795325112886 0
    vertex -1.87352583631735 9.552152789628769 3.377914667735581
    vertex -5.316033795727454 8.154793991401663 3.373242757511306
  endloop
endfacet
facet normal 0.610135 -0.792229 -0.0104226
  outer loop
    vertex -6.350881090682602 5.112648573705844 23.4672247570563
    vertex -3.329226663324056 7.439304687415724 23.50296753739006
    vertex -4.85433964531694 6.221428545410738 26.79504654598525
  endloop
endfacet
facet normal 0.186536 0.982012 -0.0292645
  outer loop
    vertex -0.8900100588894012 -8.815403353088733 14.48230977442192
    vertex 0.2580130521502472 -9.141275603809015 10.86487115291993
    vertex -3.402829383942325 -8.422953281223213 11.6344539402684
  endloop
endfacet
facet normal 0.417996 -0.894411 -0.159089
  outer loop
    vertex -4.818414023010644 5.573939036086092 33.44403626553123
    vertex -3.143176585549327 6.955613310345943 30.07772855188102
    vertex -1.20027395746309 7.273236065714025 33.39687314568329
  endloop
endfacet
facet normal 0.888701 0.457952 -0.0221386
  outer loop
    vertex -7.921718598041034 -2.122898308287217 22.85542426798078
    vertex -6.937020296927226 -3.877829853218776 26.08183645941722
    vertex -6.272443806000676 -5.349731979201747 22.31236712782182
  endloop
endfacet
facet normal 0.400415 0.902493 -0.158663
  outer loop
    vertex -1.064596783857537 -7.290923779999233 33.43970277666616
    vertex -3.137163703929425 -6.954370703871706 30.12355762015332
    vertex -4.679662027937671 -5.697388448805025 33.38062778663257
  endloop
endfacet
facet normal 0.425161 -0.905102 0.00539343
  outer loop
    vertex -2.95428908330846 6.468990743220234 36.69987756170568
    vertex -4.818414023010644 5.573939036086092 33.44403626553123
    vertex -1.20027395746309 7.273236065714025 33.39687314568329
  endloop
endfacet
facet normal -0.212334 -0.97703 -0.0180656
  outer loop
    vertex 0.06252383340405732 9.184295764435024 10.36180090004111
    vertex 3.797764203569217 8.375249065386601 10.2148256614521
    vertex 2.06692808786208 8.689303830366709 13.57337851732617
  endloop
endfacet
facet normal 0.992154 0.123416 -0.0199899
  outer loop
    vertex -8.462542233286539 -3.035832083739232 12.82563660850859
    vertex -8.924461593284299 0.7490996033062919 13.26724345959706
    vertex -8.581918276309652 -1.504391593294015 16.35569541559559
  endloop
endfacet
facet normal 0.403311 0.915058 0.00307265
  outer loop
    vertex -1.064596783857537 -7.290923779999233 33.43970277666616
    vertex -4.679662027937671 -5.697388448805025 33.38062778663257
    vertex -2.954289083308398 -6.468990743220261 36.6998775617057
  endloop
endfacet
facet normal 0.781585 -0.605565 -0.149718
  outer loop
    vertex -7.229161065348171 3.192401564988564 26.6491008967567
    vertex -6.350881090682602 5.112648573705844 23.4672247570563
    vertex -4.85433964531694 6.221428545410738 26.79504654598525
  endloop
endfacet
facet normal 0.974346 -0.175001 -0.141505
  outer loop
    vertex -7.229161065348171 3.192401564988564 26.6491008967567
    vertex -7.918815017384239 -0.3852559561567291 26.32495682097773
    vertex -7.997519748372157 1.677931746117036 23.23145679777697
  endloop
endfacet
facet normal 0.901979 -0.431627 -0.0115157
  outer loop
    vertex -7.229161065348171 3.192401564988564 26.6491008967567
    vertex -7.997519748372157 1.677931746117036 23.23145679777697
    vertex -6.350881090682602 5.112648573705844 23.4672247570563
  endloop
endfacet
facet normal 0.0155303 0.99057 -0.136126
  outer loop
    vertex -0.8900100588894012 -8.815403353088733 14.48230977442192
    vertex -2.147095390278595 -8.307885383005909 18.03201679669396
    vertex 1.685385026440322 -8.477908927771068 17.23201959953977
  endloop
endfacet
facet normal 0.685403 0.727886 -0.0201296
  outer loop
    vertex -5.424789197972157 -6.572442702678327 18.77913177117294
    vertex -4.434418198827062 -7.603390433840761 15.22173961728003
    vertex -7.194297431382718 -4.987783976366405 15.82947194943423
  endloop
endfacet
facet normal 0.980552 0.195044 -0.0218189
  outer loop
    vertex -10 7.227892037515737e-14 0
    vertex -9.547086757690717 -1.899033628551166 3.378259073889232
    vertex -9.238795325112898 -3.826834323650822 0
  endloop
endfacet
facet normal 0.913168 0.384283 -0.135832
  outer loop
    vertex -8.462542233286539 -3.035832083739232 12.82563660850859
    vertex -8.581918276309652 -1.504391593294015 16.35569541559559
    vertex -7.194297431382718 -4.987783976366405 15.82947194943423
  endloop
endfacet
facet normal 0.787118 -0.616758 -0.00746274
  outer loop
    vertex -6.11426643499403 4.574247457520641 30.03788579046638
    vertex -7.229161065348171 3.192401564988564 26.6491008967567
    vertex -4.85433964531694 6.221428545410738 26.79504654598525
  endloop
endfacet
facet normal 0.989098 0.0339037 -0.143305
  outer loop
    vertex -7.997519748372157 1.677931746117036 23.23145679777697
    vertex -7.921718598041034 -2.122898308287217 22.85542426798078
    vertex -8.442395469608735 0.08977708039817232 19.78517694894536
  endloop
endfacet
facet normal 0.192716 -0.981146 -0.0145894
  outer loop
    vertex 0.2347244690792286 8.666644441320241 16.9015081874768
    vertex -1.572687211453975 8.262748547506591 20.18907344674976
    vertex -3.474446957615174 7.937027494059557 16.97307626766901
  endloop
endfacet
facet normal 0.904779 -0.404698 -0.132644
  outer loop
    vertex -6.11426643499403 4.574247457520641 30.03788579046638
    vertex -7.491105346209778 1.573992289548906 29.80012843076539
    vertex -7.229161065348171 3.192401564988564 26.6491008967567
  endloop
endfacet
facet normal 0.624552 0.780963 -0.00561397
  outer loop
    vertex -3.137163703929425 -6.954370703871706 30.12355762015332
    vertex -6.11634918439865 -4.572526804620288 30.02978673362817
    vertex -4.679662027937671 -5.697388448805025 33.38062778663257
  endloop
endfacet
facet normal 0.999713 0.0210641 -0.0113861
  outer loop
    vertex -7.997519748372157 1.677931746117036 23.23145679777697
    vertex -7.918815017384239 -0.3852559561567291 26.32495682097773
    vertex -7.921718598041034 -2.122898308287217 22.85542426798078
  endloop
endfacet
facet normal 0.9507 0.276962 -0.139506
  outer loop
    vertex -7.921718598041034 -2.122898308287217 22.85542426798078
    vertex -7.918815017384239 -0.3852559561567291 26.32495682097773
    vertex -6.937020296927226 -3.877829853218776 26.08183645941722
  endloop
endfacet
facet normal 0.987283 4.76959e-15 -0.158972
  outer loop
    vertex -6.574380347757381 -1.930412244754955 40
    vertex -7.115898689895092 -0.1006344897660531 36.6369404843182
    vertex -6.574380347757399 1.930412244754893 40
  endloop
endfacet
facet normal 0.745124 -0.666725 -0.0163708
  outer loop
    vertex -7.795199012823202 4.373153462597688 13.49274208985107
    vertex -5.236558807593106 7.228996718285291 13.64186200336471
    vertex -6.563286281029582 5.666609596243179 16.88584995673057
  endloop
endfacet
facet normal 0.441547 0.896876 -0.0255031
  outer loop
    vertex -3.402829383942325 -8.422953281223213 11.6344539402684
    vertex -2.255728504271666 -9.088992950639531 8.07191412195931
    vertex -5.654384441809491 -7.395918385791227 8.770302827663532
  endloop
endfacet
facet normal 0.970434 -0.240945 -0.014237
  outer loop
    vertex -7.997519748372157 1.677931746117036 23.23145679777697
    vertex -8.442395469608735 0.08977708039817232 19.78517694894536
    vertex -7.520433747698883 3.785486635078285 20.0830224069136
  endloop
endfacet
facet normal 0.978145 0.207266 -0.0165086
  outer loop
    vertex -7.921718598041034 -2.122898308287217 22.85542426798078
    vertex -7.662354032770596 -3.625989652537695 19.35159381814142
    vertex -8.442395469608735 0.08977708039817232 19.78517694894536
  endloop
endfacet
facet normal 0.566337 0.823784 -0.025344
  outer loop
    vertex -4.434418198827062 -7.603390433840761 15.22173961728003
    vertex -3.402829383942325 -8.422953281223213 11.6344539402684
    vertex -6.495211027890676 -6.276699820824409 12.2941880717147
  endloop
endfacet
facet normal -0.0390308 -0.99915 -0.0132676
  outer loop
    vertex 2.246568301826372 8.115114997142976 20.07145708995013
    vertex 0.3307361202286307 8.144555791152793 23.49036307885195
    vertex -1.572687211453975 8.262748547506591 20.18907344674976
  endloop
endfacet
facet normal 0.776308 0.615747 -0.134909
  outer loop
    vertex -5.424789197972157 -6.572442702678327 18.77913177117294
    vertex -7.194297431382718 -4.987783976366405 15.82947194943423
    vertex -7.662354032770596 -3.625989652537695 19.35159381814142
  endloop
endfacet
facet normal 0.896032 -0.419607 -0.145107
  outer loop
    vertex -7.997519748372157 1.677931746117036 23.23145679777697
    vertex -7.520433747698883 3.785486635078285 20.0830224069136
    vertex -6.350881090682602 5.112648573705844 23.4672247570563
  endloop
endfacet
facet normal 0.880523 -0.473762 -0.0151429
  outer loop
    vertex -8.378415424883629 2.300098106994182 16.66545683498873
    vertex -6.563286281029582 5.666609596243179 16.88584995673057
    vertex -7.520433747698883 3.785486635078285 20.0830224069136
  endloop
endfacet
facet normal -0.0207678 -0.989987 -0.139623
  outer loop
    vertex -1.727284592552109 8.755552708263144 13.66800406601465
    vertex 0.06252383340405732 9.184295764435024 10.36180090004111
    vertex 2.06692808786208 8.689303830366709 13.57337851732617
  endloop
endfacet
facet normal 0.652238 0.757986 0.00649678
  outer loop
    vertex -2.954289083308398 -6.468990743220261 36.6998775617057
    vertex -5.9678659205589 -3.875396414039406 36.64767195643217
    vertex -4.487061039696167 -5.178344486196248 40
  endloop
endfacet
facet normal 0.619508 -0.770403 -0.150627
  outer loop
    vertex -6.11426643499403 4.574247457520641 30.03788579046638
    vertex -4.85433964531694 6.221428545410738 26.79504654598525
    vertex -3.143176585549327 6.955613310345943 30.07772855188102
  endloop
endfacet
facet normal 0.741071 -0.656628 -0.140192
  outer loop
    vertex -7.795199012823202 4.373153462597688 13.49274208985107
    vertex -6.77804584652422 6.207790731919528 10.27649234591418
    vertex -5.236558807593106 7.228996718285291 13.64186200336471
  endloop
endfacet
facet normal 0.875203 -0.462628 -0.1414
  outer loop
    vertex -8.378415424883629 2.300098106994182 16.66545683498873
    vertex -7.795199012823202 4.373153462597688 13.49274208985107
    vertex -6.563286281029582 5.666609596243179 16.88584995673057
  endloop
endfacet
facet normal 0.86039 -0.509304 -0.0184189
  outer loop
    vertex -7.795199012823202 4.373153462597688 13.49274208985107
    vertex -8.737541288320946 2.905171839589523 10.06511689040014
    vertex -6.77804584652422 6.207790731919528 10.27649234591418
  endloop
endfacet
facet normal 0.855636 -0.498826 -0.138059
  outer loop
    vertex -8.737541288320946 2.905171839589523 10.06511689040014
    vertex -8.061833442475882 4.948016278696697 6.871811772919308
    vertex -6.77804584652422 6.207790731919528 10.27649234591418
  endloop
endfacet
facet normal 0.963018 -0.228771 -0.142335
  outer loop
    vertex -8.442395469608735 0.08977708039817232 19.78517694894536
    vertex -8.378415424883629 2.300098106994182 16.66545683498873
    vertex -7.520433747698883 3.785486635078285 20.0830224069136
  endloop
endfacet
facet normal -0.588088 -0.797772 -0.133091
  outer loop
    vertex 3.797764203569217 8.375249065386601 10.2148256614521
    vertex 5.338505416622444 7.824135398565263 6.710250544838956
    vertex 6.84283895975777 6.174726334055581 9.949922389192391
  endloop
endfacet
facet normal 0.665561 0.733858 -0.135943
  outer loop
    vertex -4.434418198827062 -7.603390433840761 15.22173961728003
    vertex -6.495211027890676 -6.276699820824409 12.2941880717147
    vertex -7.194297431382718 -4.987783976366405 15.82947194943423
  endloop
endfacet
facet normal 0.625463 -0.780203 -0.00896762
  outer loop
    vertex -4.818414023010644 5.573939036086092 33.44403626553123
    vertex -6.11426643499403 4.574247457520641 30.03788579046638
    vertex -3.143176585549327 6.955613310345943 30.07772855188102
  endloop
endfacet
facet normal -0.042674 -0.988525 -0.144907
  outer loop
    vertex 2.246568301826372 8.115114997142976 20.07145708995013
    vertex -1.572687211453975 8.262748547506591 20.18907344674976
    vertex 0.2347244690792286 8.666644441320241 16.9015081874768
  endloop
endfacet
facet normal 0.169302 -0.97393 -0.150984
  outer loop
    vertex -3.143176585549327 6.955613310345943 30.07772855188102
    vertex -1.444227489177507 7.755815822575592 26.82106589603742
    vertex 0.6087608585575507 7.609230924078496 30.06868189310153
  endloop
endfacet
facet normal 0.819477 0.548135 -0.167348
  outer loop
    vertex -6.11634918439865 -4.572526804620288 30.02978673362817
    vertex -7.046445750004512 -2.236818357338354 33.1256729291422
    vertex -4.679662027937671 -5.697388448805025 33.38062778663257
  endloop
endfacet
facet normal 0.853072 0.521355 -0.0213876
  outer loop
    vertex -6.495211027890676 -6.276699820824409 12.2941880717147
    vertex -8.462542233286539 -3.035832083739232 12.82563660850859
    vertex -7.194297431382718 -4.987783976366405 15.82947194943423
  endloop
endfacet
facet normal 0.947563 -0.319544 -0.00391541
  outer loop
    vertex -8.737541288320946 2.905171839589523 10.06511689040014
    vertex -9.426607206979162 0.902613544943728 6.737820909622407
    vertex -8.061833442475882 4.948016278696697 6.871811772919308
  endloop
endfacet
facet normal -0.979363 -0.186833 -0.0770776
  outer loop
    vertex 8.282871851099232 0 21.81818181818182
    vertex 7.837593486071909 3.103297724879251 19.95369408964735
    vertex 8.569059875916027 0 18.18181818181818
  endloop
endfacet
facet normal -0.980159 0.182584 -0.0771402
  outer loop
    vertex 8.569059875916027 0 18.18181818181818
    vertex 7.862421364555303 -3.03452317817868 19.97806118552853
    vertex 8.282871851099232 0 21.81818181818182
  endloop
endfacet
facet normal 0.545915 0.827298 -0.132498
  outer loop
    vertex -3.402829383942325 -8.422953281223213 11.6344539402684
    vertex -5.654384441809491 -7.395918385791227 8.770302827663532
    vertex -6.495211027890676 -6.276699820824409 12.2941880717147
  endloop
endfacet
facet normal 0.94802 -0.286831 -0.137791
  outer loop
    vertex -7.795199012823202 4.373153462597688 13.49274208985107
    vertex -8.924461593284299 0.7490996033062919 13.26724345959706
    vertex -8.737541288320946 2.905171839589523 10.06511689040014
  endloop
endfacet
facet normal 0.387139 0.913033 -0.128432
  outer loop
    vertex -3.826834323650945 -9.238795325112848 0
    vertex -5.408351832889478 -8.094170519624761 3.369989022951493
    vertex -1.976219972035896 -9.508913276304913 3.658122450518455
  endloop
endfacet
facet normal 0.645321 0.746559 -0.161896
  outer loop
    vertex -4.679662027937671 -5.697388448805025 33.38062778663257
    vertex -5.9678659205589 -3.875396414039406 36.64767195643217
    vertex -2.954289083308398 -6.468990743220261 36.6998775617057
  endloop
endfacet
facet normal -0.235095 0.963767 -0.126029
  outer loop
    vertex 3.812126366888218 -8.38708380469169 10.00246342937091
    vertex 1.529854601441881 -9.305646383923801 7.23538901632724
    vertex 0.2580130521502472 -9.141275603809015 10.86487115291993
  endloop
endfacet
facet normal 0.195882 -0.970933 -0.137551
  outer loop
    vertex 0.06252383340405732 9.184295764435024 10.36180090004111
    vertex -3.631522178559677 8.431524265277938 10.41482849741483
    vertex -1.879607611357504 9.249150510180195 7.138284773180978
  endloop
endfacet
facet normal 0.984388 -0.10868 -0.138452
  outer loop
    vertex -8.737541288320946 2.905171839589523 10.06511689040014
    vertex -9.194128758921527 -0.8371083271755267 9.756348951884192
    vertex -9.426607206979162 0.902613544943728 6.737820909622407
  endloop
endfacet
facet normal 0.825022 0.565008 0.0102097
  outer loop
    vertex -7.046445750004512 -2.236818357338354 33.1256729291422
    vertex -5.9678659205589 -3.875396414039406 36.64767195643217
    vertex -4.679662027937671 -5.697388448805025 33.38062778663257
  endloop
endfacet
facet normal 0.410371 -0.911864 -0.00997217
  outer loop
    vertex -4.85433964531694 6.221428545410738 26.79504654598525
    vertex -1.444227489177507 7.755815822575592 26.82106589603742
    vertex -3.143176585549327 6.955613310345943 30.07772855188102
  endloop
endfacet
facet normal -0.00131902 -0.991229 -0.13215
  outer loop
    vertex 1.899033628551271 9.547086757690696 3.378259073889232
    vertex -1.87352583631735 9.552152789628769 3.377914667735581
    vertex 3.391901413832837e-14 10 0
  endloop
endfacet
facet normal -0.976685 0.200443 -0.0768668
  outer loop
    vertex 7.996683826282438 0 25.45454545454545
    vertex 7.222356989531538 -3.09481181487894 27.22304817204642
    vertex 7.710495801465644 0 29.09090909090909
  endloop
endfacet
facet normal -0.971809 -0.22302 -0.076483
  outer loop
    vertex 7.710495801465644 0 29.09090909090909
    vertex 7.080697409888677 3.430565863032551 27.08992406820984
    vertex 7.996683826282438 0 25.45454545454545
  endloop
endfacet
facet normal -0.973584 0.21509 -0.0766227
  outer loop
    vertex 9.141435925549617 0 10.90909090909091
    vertex 8.166280959420966 -3.793437399692109 12.65093762022181
    vertex 8.855247900732822 0 14.54545454545455
  endloop
endfacet
facet normal -0.981542 -0.174954 -0.077249
  outer loop
    vertex 8.855247900732822 0 14.54545454545455
    vertex 8.447380678280055 3.110200082176392 12.68391113769878
    vertex 9.141435925549617 0 10.90909090909091
  endloop
endfacet
facet normal 0.956554 0.290894 -0.0196161
  outer loop
    vertex -8.462542233286539 -3.035832083739232 12.82563660850859
    vertex -8.076422244292665 -4.541092056311936 9.332280149042756
    vertex -9.194128758921527 -0.8371083271755267 9.756348951884192
  endloop
endfacet
facet normal 0.998508 -0.0520738 -0.0164166
  outer loop
    vertex -8.442395469608735 0.08977708039817232 19.78517694894536
    vertex -8.581918276309652 -1.504391593294015 16.35569541559559
    vertex -8.378415424883629 2.300098106994182 16.66545683498873
  endloop
endfacet
facet normal 0.927717 0.372704 -0.0208176
  outer loop
    vertex -7.194297431382718 -4.987783976366405 15.82947194943423
    vertex -8.581918276309652 -1.504391593294015 16.35569541559559
    vertex -7.662354032770596 -3.625989652537695 19.35159381814142
  endloop
endfacet
facet normal 0.723423 -0.690186 -0.0174003
  outer loop
    vertex -8.061833442475882 4.948016278696697 6.871811772919308
    vertex -5.359025567012438 7.776074744081948 7.066427522126176
    vertex -6.77804584652422 6.207790731919528 10.27649234591418
  endloop
endfacet
facet normal -0.983337 0.164494 -0.0773903
  outer loop
    vertex 9.713811975183205 0 3.636363636363633
    vertex 9.052695528155258 -3.115890512625786 5.413776204760012
    vertex 9.42762395036641 0 7.272727272727273
  endloop
endfacet
facet normal 0.577556 -0.816176 -0.0168811
  outer loop
    vertex -6.77804584652422 6.207790731919528 10.27649234591418
    vertex -3.631522178559677 8.431524265277938 10.41482849741483
    vertex -5.236558807593106 7.228996718285291 13.64186200336471
  endloop
endfacet
facet normal 0.199376 -0.979737 -0.0191188
  outer loop
    vertex -1.727284592552109 8.755552708263144 13.66800406601465
    vertex -3.631522178559677 8.431524265277938 10.41482849741483
    vertex 0.06252383340405732 9.184295764435024 10.36180090004111
  endloop
endfacet
facet normal 0.989279 -0.0415167 -0.140015
  outer loop
    vertex -8.581918276309652 -1.504391593294015 16.35569541559559
    vertex -8.924461593284299 0.7490996033062919 13.26724345959706
    vertex -8.378415424883629 2.300098106994182 16.66545683498873
  endloop
endfacet
facet normal -0.827177 0.557715 -0.0687874
  outer loop
    vertex 7.543106863129832 -3.064993188814144 23.60775355334945
    vertex 5.628175216946661 -5.710074298587421 25.18925966243833
    vertex 7.222356989531538 -3.09481181487894 27.22304817204642
  endloop
endfacet
facet normal 0.965431 0.21914 -0.141143
  outer loop
    vertex -7.662354032770596 -3.625989652537695 19.35159381814142
    vertex -8.581918276309652 -1.504391593294015 16.35569541559559
    vertex -8.442395469608735 0.08977708039817232 19.78517694894536
  endloop
endfacet
facet normal -0.55365 0.832733 0.00520888
  outer loop
    vertex 3.553994574644078 -6.769623043930107 29.91260156347715
    vertex 5.66245838212768 -5.35599553252495 28.02688225903877
    vertex 2.379329838747224 -7.530603666359228 26.71423571759621
  endloop
endfacet
facet normal 0.836835 0.530293 -0.136004
  outer loop
    vertex -6.495211027890676 -6.276699820824409 12.2941880717147
    vertex -8.076422244292665 -4.541092056311936 9.332280149042756
    vertex -8.462542233286539 -3.035832083739232 12.82563660850859
  endloop
endfacet
facet normal -0.981516 -0.170253 -0.0874111
  outer loop
    vertex 9.42762395036641 0 7.272727272727273
    vertex 8.705507569034106 3.225861728760712 9.098060068407317
    vertex 9.052695528160077 3.115890512609897 5.4137762047678
  endloop
endfacet
facet normal -0.533352 0.834153 -0.140446
  outer loop
    vertex 5.628175216946661 -5.710074298587421 25.18925966243833
    vertex 3.621847757603616 -7.32801799328206 23.19892390494643
    vertex 2.379329838747224 -7.530603666359228 26.71423571759621
  endloop
endfacet
facet normal 0.16457 0.977786 -0.129814
  outer loop
    vertex 0.2580130521502472 -9.141275603809015 10.86487115291993
    vertex -2.255728504271666 -9.088992950639531 8.07191412195931
    vertex -3.402829383942325 -8.422953281223213 11.6344539402684
  endloop
endfacet
facet normal -0.983337 -0.164494 -0.0773903
  outer loop
    vertex 9.42762395036641 0 7.272727272727273
    vertex 9.052695528160077 3.115890512609897 5.4137762047678
    vertex 9.713811975183205 0 3.636363636363633
  endloop
endfacet
facet normal -0.98136 -0.175977 -0.0772347
  outer loop
    vertex 9.141435925549617 0 10.90909090909091
    vertex 8.705507569034106 3.225861728760712 9.098060068407317
    vertex 9.42762395036641 0 7.272727272727273
  endloop
endfacet
facet normal 0.395782 -0.907411 -0.141288
  outer loop
    vertex -5.236558807593106 7.228996718285291 13.64186200336471
    vertex -3.631522178559677 8.431524265277938 10.41482849741483
    vertex -1.727284592552109 8.755552708263144 13.66800406601465
  endloop
endfacet
facet normal -0.978741 0.186871 -0.0845339
  outer loop
    vertex 7.862421364555303 -3.03452317817868 19.97806118552853
    vertex 7.543106863129832 -3.064993188814144 23.60775355334945
    vertex 8.282871851099232 0 21.81818181818182
  endloop
endfacet
facet normal -0.980333 0.178636 -0.0838784
  outer loop
    vertex 8.569059875916027 0 18.18181818181818
    vertex 8.173155954169852 -3.007793147545153 16.40326031695534
    vertex 7.862421364555303 -3.03452317817868 19.97806118552853
  endloop
endfacet
facet normal -0.385053 -0.922577 -0.0242035
  outer loop
    vertex 3.797764203569217 8.375249065386601 10.2148256614521
    vertex 1.912546523308106 9.242980010976341 7.13101270411245
    vertex 5.338505416622444 7.824135398565263 6.710250544838956
  endloop
endfacet
facet normal 0.954887 -0.296415 -0.0181485
  outer loop
    vertex -8.378415424883629 2.300098106994182 16.66545683498873
    vertex -8.924461593284299 0.7490996033062919 13.26724345959706
    vertex -7.795199012823202 4.373153462597688 13.49274208985107
  endloop
endfacet
facet normal 0.39015 -0.920509 -0.0210962
  outer loop
    vertex -3.631522178559677 8.431524265277938 10.41482849741483
    vertex -5.359025567012438 7.776074744081948 7.066427522126176
    vertex -1.879607611357504 9.249150510180195 7.138284773180978
  endloop
endfacet
facet normal 0.593401 0.80472 -0.0173542
  outer loop
    vertex -6.272443806000676 -5.349731979201747 22.31236712782182
    vertex -4.0082772115096 -6.961518529580776 24.99315419165018
    vertex -3.130204346258316 -7.680491940032697 21.67854730373205
  endloop
endfacet
facet normal 0.895952 0.43972 -0.0625785
  outer loop
    vertex -6.11634918439865 -4.572526804620288 30.02978673362817
    vertex -7.451210126979701 -1.989403709124672 29.06906520530162
    vertex -7.046445750004512 -2.236818357338354 33.1256729291422
  endloop
endfacet
facet normal 0.743359 0.656198 -0.129696
  outer loop
    vertex -5.654384441809491 -7.395918385791227 8.770302827663532
    vertex -7.548084739876498 -5.84412442322788 5.767780045661681
    vertex -8.076422244292665 -4.541092056311936 9.332280149042756
  endloop
endfacet
facet normal -0.976943 0.195826 -0.0850595
  outer loop
    vertex 7.996683826282438 0 25.45454545454545
    vertex 7.543106863129832 -3.064993188814144 23.60775355334945
    vertex 7.222356989531538 -3.09481181487894 27.22304817204642
  endloop
endfacet
facet normal -0.981555 0.174877 -0.0772501
  outer loop
    vertex 8.855247900732822 0 14.54545454545455
    vertex 8.173155954169852 -3.007793147545153 16.40326031695534
    vertex 8.569059875916027 0 18.18181818181818
  endloop
endfacet
facet normal -0.978523 0.191211 -0.0770114
  outer loop
    vertex 8.282871851099232 0 21.81818181818182
    vertex 7.543106863129832 -3.064993188814144 23.60775355334945
    vertex 7.996683826282438 0 25.45454545454545
  endloop
endfacet
facet normal -0.97947 0.197665 -0.0395916
  outer loop
    vertex 8.166280959420966 -3.793437399692109 12.65093762022181
    vertex 8.173155954169852 -3.007793147545153 16.40326031695534
    vertex 8.855247900732822 0 14.54545454545455
  endloop
endfacet
facet normal 0.759868 0.649596 -0.0250071
  outer loop
    vertex -5.654384441809491 -7.395918385791227 8.770302827663532
    vertex -8.076422244292665 -4.541092056311936 9.332280149042756
    vertex -6.495211027890676 -6.276699820824409 12.2941880717147
  endloop
endfacet
facet normal -0.982916 0.16701 -0.0773572
  outer loop
    vertex 9.42762395036641 0 7.272727272727273
    vertex 8.766505576837945 -3.067648532617388 9.050139689512104
    vertex 9.141435925549617 0 10.90909090909091
  endloop
endfacet
facet normal 0.0511014 0.99832 -0.0273047
  outer loop
    vertex 1.529854601441881 -9.305646383923801 7.23538901632724
    vertex -2.255728504271666 -9.088992950639531 8.07191412195931
    vertex 0.2580130521502472 -9.141275603809015 10.86487115291993
  endloop
endfacet
facet normal -0.973307 0.193625 -0.123215
  outer loop
    vertex 9.141435925549617 0 10.90909090909091
    vertex 8.766505576837945 -3.067648532617388 9.050139689512104
    vertex 8.166280959420966 -3.793437399692109 12.65093762022181
  endloop
endfacet
facet normal -0.823297 0.567504 -0.01103
  outer loop
    vertex 5.764211772069647 -3.704433970043469 40
    vertex 6.479536383967495 -2.708940158245085 37.82617290804641
    vertex 4.657144919731497 -5.374631747407889 36.69987756170473
  endloop
endfacet
facet normal -0.821741 -0.569721 -0.0126735
  outer loop
    vertex 4.657144919731476 5.374631747407908 36.69987756170472
    vertex 6.47447859491684 2.729234801026417 37.78561287385854
    vertex 5.76421177206964 3.704433970043481 40
  endloop
endfacet
facet normal -0.00166353 -0.999816 -0.0191133
  outer loop
    vertex 0.06252383340405732 9.184295764435024 10.36180090004111
    vertex -1.879607611357504 9.249150510180195 7.138284773180978
    vertex 1.912546523308106 9.242980010976341 7.13101270411245
  endloop
endfacet
facet normal -0.982955 0.165742 -0.0795596
  outer loop
    vertex 9.052695528155258 -3.115890512625786 5.413776204760012
    vertex 8.766505576837945 -3.067648532617388 9.050139689512104
    vertex 9.42762395036641 0 7.272727272727273
  endloop
endfacet
facet normal -0.83123 -0.55541 -0.0240272
  outer loop
    vertex 9.238795325112871 3.826834323650888 0
    vertex 7.776353139284434 5.87648813750971 3.214166623951954
    vertex 7.071067811865488 7.071067811865462 0
  endloop
endfacet
facet normal -0.801461 0.589782 -0.0990869
  outer loop
    vertex 4.657144919731497 -5.374631747407889 36.69987756170473
    vertex 6.479536383967495 -2.708940158245085 37.82617290804641
    vertex 6.551561750032853 -3.010639074459712 35.44783609175941
  endloop
endfacet
facet normal 0.575597 -0.805794 -0.139227
  outer loop
    vertex -6.77804584652422 6.207790731919528 10.27649234591418
    vertex -5.359025567012438 7.776074744081948 7.066427522126176
    vertex -3.631522178559677 8.431524265277938 10.41482849741483
  endloop
endfacet
facet normal -0.214868 -0.966471 -0.140593
  outer loop
    vertex 0.06252383340405732 9.184295764435024 10.36180090004111
    vertex 1.912546523308106 9.242980010976341 7.13101270411245
    vertex 3.797764203569217 8.375249065386601 10.2148256614521
  endloop
endfacet
facet normal 0.144855 0.980913 -0.129715
  outer loop
    vertex -3.130204346258316 -7.680491940032697 21.67854730373205
    vertex 0.4405641724575898 -8.391828085292886 20.2869201405431
    vertex -2.147095390278595 -8.307885383005909 18.03201679669396
  endloop
endfacet
facet normal -0.98152 -0.175482 -0.0763148
  outer loop
    vertex 8.447380678280055 3.110200082176392 12.68391113769878
    vertex 8.705507569034106 3.225861728760712 9.098060068407317
    vertex 9.141435925549617 0 10.90909090909091
  endloop
endfacet
facet normal -0.801199 -0.590408 -0.0974601
  outer loop
    vertex 6.551624081339431 3.010066915074888 35.45015178167115
    vertex 6.47447859491684 2.729234801026417 37.78561287385854
    vertex 4.657144919731476 5.374631747407908 36.69987756170472
  endloop
endfacet
facet normal -0.25185 -0.96748 -0.0235339
  outer loop
    vertex 0.3307361202286307 8.144555791152793 23.49036307885195
    vertex 3.697628793537005 7.269531106282598 23.43163959934946
    vertex 2.351007759450846 7.540535144188654 26.70160222805366
  endloop
endfacet
facet normal -0.831329 0.555476 -0.0184228
  outer loop
    vertex 7.071067811865461 -7.071067811865489 0
    vertex 7.97790623204185 -5.609680786353287 3.142017032498899
    vertex 9.238795325112864 -3.826834323650904 0
  endloop
endfacet
facet normal 0.831297 -0.555455 -0.0203573
  outer loop
    vertex -7.071067811865434 7.071067811865516 0
    vertex -8.004049363614465 5.555007575244945 3.267537971097013
    vertex -9.238795325112843 3.826834323650956 0
  endloop
endfacet
facet normal -0.555491 -0.831351 -0.0169154
  outer loop
    vertex 7.071067811865488 7.071067811865462 0
    vertex 5.44510785723263 8.094236509892021 3.109217308956367
    vertex 3.826834323650923 9.238795325112857 0
  endloop
endfacet
facet normal -0.384417 -0.913081 -0.136042
  outer loop
    vertex 3.826834323650923 9.238795325112857 0
    vertex 5.44510785723263 8.094236509892021 3.109217308956367
    vertex 1.899033628551271 9.547086757690696 3.378259073889232
  endloop
endfacet
facet normal 0.691816 -0.709933 -0.131858
  outer loop
    vertex -5.316033795727454 8.154793991401663 3.373242757511306
    vertex -8.004049363614465 5.555007575244945 3.267537971097013
    vertex -7.071067811865434 7.071067811865516 0
  endloop
endfacet
facet normal 0.989041 -0.0234301 -0.145769
  outer loop
    vertex -10 7.227892037515737e-14 0
    vertex -9.452939404847136 2.336562022918995 3.336240465942083
    vertex -9.547086757690717 -1.899033628551166 3.378259073889232
  endloop
endfacet
facet normal -0.346532 0.937693 -0.0254599
  outer loop
    vertex 3.812126366888218 -8.38708380469169 10.00246342937091
    vertex 5.005865254672201 -8.032953851212447 6.797276166187658
    vertex 1.529854601441881 -9.305646383923801 7.23538901632724
  endloop
endfacet
facet normal -0.478579 -0.876198 -0.056919
  outer loop
    vertex 2.351007759450846 7.540535144188654 26.70160222805366
    vertex 5.107446990334542 6.05192045660348 26.44065338138394
    vertex 4.638547303637376 6.090996652070444 29.78166327854674
  endloop
endfacet
facet normal 0.903716 -0.409504 -0.124915
  outer loop
    vertex -8.004049363614465 5.555007575244945 3.267537971097013
    vertex -9.452939404847136 2.336562022918995 3.336240465942083
    vertex -9.238795325112843 3.826834323650956 0
  endloop
endfacet
facet normal -0.257599 0.957201 -0.131939
  outer loop
    vertex 1.685385026440322 -8.477908927771068 17.23201959953977
    vertex 0.4405641724575898 -8.391828085292886 20.2869201405431
    vertex 3.739791185732807 -7.562939444340674 19.85895302027751
  endloop
endfacet
facet normal -0.236592 0.971215 -0.0276549
  outer loop
    vertex 2.379329838747224 -7.530603666359228 26.71423571759621
    vertex 3.621847757603616 -7.32801799328206 23.19892390494643
    vertex 0.2835613634236875 -8.125353495946877 23.75679225257572
  endloop
endfacet
facet normal 0.745357 0.665592 -0.0378191
  outer loop
    vertex -6.11634918439865 -4.572526804620288 30.02978673362817
    vertex -4.850492023572549 -6.107579385320427 27.96195963314501
    vertex -6.937020296927226 -3.877829853218776 26.08183645941722
  endloop
endfacet
facet normal -0.624464 -0.780705 -0.0233345
  outer loop
    vertex 6.27588742870411 5.206753211114583 23.44838792908912
    vertex 5.107446990334542 6.05192045660348 26.44065338138394
    vertex 3.697628793537005 7.269531106282598 23.43163959934946
  endloop
endfacet
facet normal 0.995668 0.0895315 -0.0250823
  outer loop
    vertex -9.194128758921527 -0.8371083271755267 9.756348951884192
    vertex -9.11437688947696 -2.566305867084051 6.749791959650082
    vertex -9.426607206979162 0.902613544943728 6.737820909622407
  endloop
endfacet
facet normal 0.688325 0.708577 -0.15533
  outer loop
    vertex -6.937020296927226 -3.877829853218776 26.08183645941722
    vertex -4.0082772115096 -6.961518529580776 24.99315419165018
    vertex -6.272443806000676 -5.349731979201747 22.31236712782182
  endloop
endfacet
facet normal 0.661817 0.742157 -0.105838
  outer loop
    vertex -7.548084739876498 -5.84412442322788 5.767780045661681
    vertex -4.880994636197389 -8.170357894224887 6.133380170653624
    vertex -5.408351832889478 -8.094170519624761 3.369989022951493
  endloop
endfacet
facet normal -0.688486 -0.718389 -0.0995151
  outer loop
    vertex 6.84283895975777 6.174726334055581 9.949922389192391
    vertex 7.083811703752405 5.416965054294773 13.75297594372773
    vertex 5.165074966611695 7.300914875872246 13.42753981329333
  endloop
endfacet
facet normal -0.979658 -0.170302 -0.106153
  outer loop
    vertex 7.837593486071909 3.103297724879251 19.95369408964735
    vertex 8.317154775290385 2.601768294346183 16.33254925924638
    vertex 8.569059875916027 0 18.18181818181818
  endloop
endfacet
facet normal 0.962569 0.270978 -0.00561684
  outer loop
    vertex -7.918815017384239 -0.3852559561567291 26.32495682097773
    vertex -7.451210126979701 -1.989403709124672 29.06906520530162
    vertex -6.937020296927226 -3.877829853218776 26.08183645941722
  endloop
endfacet
facet normal -0.984781 -0.163845 -0.05798
  outer loop
    vertex 8.855247900732822 0 14.54545454545455
    vertex 8.317154775290385 2.601768294346183 16.33254925924638
    vertex 8.447380678280055 3.110200082176392 12.68391113769878
  endloop
endfacet
facet normal -0.690218 0.711511 -0.131723
  outer loop
    vertex 5.314612987400232 -8.161132944541377 3.315614168559904
    vertex 7.97790623204185 -5.609680786353287 3.142017032498899
    vertex 7.071067811865461 -7.071067811865489 0
  endloop
endfacet
facet normal -0.831455 0.548301 -0.0897113
  outer loop
    vertex 7.543106863129832 -3.064993188814144 23.60775355334945
    vertex 5.985993332998001 -5.738113754370008 21.70158349605105
    vertex 5.628175216946661 -5.710074298587421 25.18925966243833
  endloop
endfacet
facet normal -0.982567 0.169062 -0.0773297
  outer loop
    vertex 7.710495801465644 0 29.09090909090909
    vertex 7.191937088180992 -2.550418267380413 30.10397004714066
    vertex 7.424307776648849 0 32.72727272727273
  endloop
endfacet
facet normal -0.979687 -0.185116 -0.0771031
  outer loop
    vertex 7.424307776648849 0 32.72727272727273
    vertex 7.090624087037928 2.778819321502126 30.29548714401388
    vertex 7.710495801465644 0 29.09090909090909
  endloop
endfacet
facet normal -0.857132 0.510224 -0.0706899
  outer loop
    vertex 8.173155954169852 -3.007793147545153 16.40326031695534
    vertex 6.463794827395485 -5.578002126408083 18.57847497877022
    vertex 7.862421364555303 -3.03452317817868 19.97806118552853
  endloop
endfacet
facet normal 0.701476 0.711475 -0.0416551
  outer loop
    vertex -5.408351832889478 -8.094170519624761 3.369989022951493
    vertex -8.143874415727458 -5.441562914486517 2.610432845887246
    vertex -7.548084739876498 -5.84412442322788 5.767780045661681
  endloop
endfacet
facet normal -0.877749 -0.465888 -0.11183
  outer loop
    vertex 7.837593486071909 3.103297724879251 19.95369408964735
    vertex 7.824876628196186 2.249232280486619 23.61158037361657
    vertex 6.27588742870411 5.206753211114583 23.44838792908912
  endloop
endfacet
facet normal 0.434301 0.900727 0.0086176
  outer loop
    vertex -1.395767665502485 -7.762660324309172 26.84636302393589
    vertex -4.850492023572549 -6.107579385320427 27.96195963314501
    vertex -3.137163703929425 -6.954370703871706 30.12355762015332
  endloop
endfacet
facet normal 0.980498 -0.195033 -0.0241843
  outer loop
    vertex -9.238795325112843 3.826834323650956 0
    vertex -9.452939404847136 2.336562022918995 3.336240465942083
    vertex -10 7.227892037515737e-14 0
  endloop
endfacet
facet normal 0.65919 0.751478 -0.0273666
  outer loop
    vertex -5.654384441809491 -7.395918385791227 8.770302827663532
    vertex -4.880994636197389 -8.170357894224887 6.133380170653624
    vertex -7.548084739876498 -5.84412442322788 5.767780045661681
  endloop
endfacet
facet normal 0.709049 0.691119 -0.140019
  outer loop
    vertex -7.07106781186552 -7.07106781186543 0
    vertex -8.143874415727458 -5.441562914486517 2.610432845887246
    vertex -5.408351832889478 -8.094170519624761 3.369989022951493
  endloop
endfacet
facet normal 0.909815 0.390712 -0.139932
  outer loop
    vertex -9.547086757690717 -1.899033628551166 3.378259073889232
    vertex -8.143874415727458 -5.441562914486517 2.610432845887246
    vertex -9.238795325112898 -3.826834323650822 0
  endloop
endfacet
facet normal 0.898822 0.437499 -0.0267063
  outer loop
    vertex -7.548084739876498 -5.84412442322788 5.767780045661681
    vertex -9.11437688947696 -2.566305867084051 6.749791959650082
    vertex -8.076422244292665 -4.541092056311936 9.332280149042756
  endloop
endfacet
facet normal -0.98508 -0.166801 -0.0423704
  outer loop
    vertex 8.282871851099232 0 21.81818181818182
    vertex 7.824876628196186 2.249232280486619 23.61158037361657
    vertex 7.837593486071909 3.103297724879251 19.95369408964735
  endloop
endfacet
facet normal -0.971103 -0.191205 -0.142826
  outer loop
    vertex 7.080697409888677 3.430565863032551 27.08992406820984
    vertex 7.824876628196186 2.249232280486619 23.61158037361657
    vertex 7.996683826282438 0 25.45454545454545
  endloop
endfacet
facet normal -0.980647 0.195063 -0.0167968
  outer loop
    vertex 9.238795325112864 -3.826834323650904 0
    vertex 9.427861896376006 -2.650120156872399 2.627026499116916
    vertex 10 0 0
  endloop
endfacet
facet normal -0.980647 -0.195063 -0.0167968
  outer loop
    vertex 10 0 0
    vertex 9.427861896375774 2.650120156872034 2.62702649912103
    vertex 9.238795325112871 3.826834323650888 0
  endloop
endfacet
facet normal -0.681556 -0.722057 -0.118807
  outer loop
    vertex 7.071067811865488 7.071067811865462 0
    vertex 7.776353139284434 5.87648813750971 3.214166623951954
    vertex 5.44510785723263 8.094236509892021 3.109217308956367
  endloop
endfacet
facet normal 0.384094 0.922052 -0.0478781
  outer loop
    vertex -5.408351832889478 -8.094170519624761 3.369989022951493
    vertex -4.880994636197389 -8.170357894224887 6.133380170653624
    vertex -1.976219972035896 -9.508913276304913 3.658122450518455
  endloop
endfacet
facet normal -0.480604 -0.867839 -0.125997
  outer loop
    vertex 3.697628793537005 7.269531106282598 23.43163959934946
    vertex 5.107446990334542 6.05192045660348 26.44065338138394
    vertex 2.351007759450846 7.540535144188654 26.70160222805366
  endloop
endfacet
facet normal -0.839709 0.53859 -0.0693504
  outer loop
    vertex 7.862421364555303 -3.03452317817868 19.97806118552853
    vertex 5.985993332998001 -5.738113754370008 21.70158349605105
    vertex 7.543106863129832 -3.064993188814144 23.60775355334945
  endloop
endfacet
facet normal -0.987632 0.13617 -0.0777283
  outer loop
    vertex 10 0 0
    vertex 9.427861896376006 -2.650120156872399 2.627026499116916
    vertex 9.713811975183205 0 3.636363636363633
  endloop
endfacet
facet normal -0.987632 -0.13617 -0.0777283
  outer loop
    vertex 9.713811975183205 0 3.636363636363633
    vertex 9.427861896375774 2.650120156872034 2.62702649912103
    vertex 10 0 0
  endloop
endfacet
facet normal 0.386708 0.909601 -0.151931
  outer loop
    vertex -4.0082772115096 -6.961518529580776 24.99315419165018
    vertex -4.850492023572549 -6.107579385320427 27.96195963314501
    vertex -1.395767665502485 -7.762660324309172 26.84636302393589
  endloop
endfacet
facet normal -0.616601 0.773969 -0.144134
  outer loop
    vertex 7.224013849519404 -5.819264726426061 9.19515411822308
    vertex 5.005865254672201 -8.032953851212447 6.797276166187658
    vertex 3.812126366888218 -8.38708380469169 10.00246342937091
  endloop
endfacet
facet normal -0.883208 -0.46379 -0.0695865
  outer loop
    vertex 9.052695528160077 3.115890512609897 5.4137762047678
    vertex 7.656623156456387 5.544078830047211 6.949299842308896
    vertex 7.776353139284434 5.87648813750971 3.214166623951954
  endloop
endfacet
facet normal -0.875847 -0.472713 -0.0971322
  outer loop
    vertex 8.317154775290385 2.601768294346183 16.33254925924638
    vertex 7.083811703752405 5.416965054294773 13.75297594372773
    vertex 8.447380678280055 3.110200082176392 12.68391113769878
  endloop
endfacet
facet normal -0.854752 -0.503514 -0.125988
  outer loop
    vertex 6.84283895975777 6.174726334055581 9.949922389192391
    vertex 7.656623156456387 5.544078830047211 6.949299842308896
    vertex 8.705507569034106 3.225861728760712 9.098060068407317
  endloop
endfacet
facet normal -0.883167 -0.463899 -0.0693784
  outer loop
    vertex 8.705507569034106 3.225861728760712 9.098060068407317
    vertex 7.656623156456387 5.544078830047211 6.949299842308896
    vertex 9.052695528160077 3.115890512609897 5.4137762047678
  endloop
endfacet
facet normal -0.865505 0.490764 -0.100263
  outer loop
    vertex 8.173155954169852 -3.007793147545153 16.40326031695534
    vertex 6.960261666914428 -5.387577933708652 15.2248955530134
    vertex 6.463794827395485 -5.578002126408083 18.57847497877022
  endloop
endfacet
facet normal -0.585501 0.807934 -0.0665649
  outer loop
    vertex 5.985993332998001 -5.738113754370008 21.70158349605105
    vertex 3.621847757603616 -7.32801799328206 23.19892390494643
    vertex 5.628175216946661 -5.710074298587421 25.18925966243833
  endloop
endfacet
facet normal -0.865204 0.491093 -0.101238
  outer loop
    vertex 8.166280959420966 -3.793437399692109 12.65093762022181
    vertex 6.960261666914428 -5.387577933708652 15.2248955530134
    vertex 8.173155954169852 -3.007793147545153 16.40326031695534
  endloop
endfacet
facet normal 0.94196 0.301218 -0.148257
  outer loop
    vertex -8.076422244292665 -4.541092056311936 9.332280149042756
    vertex -9.11437688947696 -2.566305867084051 6.749791959650082
    vertex -9.194128758921527 -0.8371083271755267 9.756348951884192
  endloop
endfacet
facet normal 0.0420197 0.999056 -0.011029
  outer loop
    vertex -2.147095390278595 -8.307885383005909 18.03201679669396
    vertex 0.4405641724575898 -8.391828085292886 20.2869201405431
    vertex 1.685385026440322 -8.477908927771068 17.23201959953977
  endloop
endfacet
facet normal -0.985554 -0.150553 -0.0775648
  outer loop
    vertex 8.569059875916027 0 18.18181818181818
    vertex 8.317154775290385 2.601768294346183 16.33254925924638
    vertex 8.855247900732822 0 14.54545454545455
  endloop
endfacet
facet normal -0.622217 0.772648 -0.12594
  outer loop
    vertex 3.739791185732807 -7.562939444340674 19.85895302027751
    vertex 6.463794827395485 -5.578002126408083 18.57847497877022
    vertex 4.897750001522206 -7.212062221687781 16.29061331802896
  endloop
endfacet
facet normal -0.69259 0.720192 -0.0405241
  outer loop
    vertex 5.314612987400232 -8.161132944541377 3.315614168559904
    vertex 7.37563220061928 -6.025224467988195 6.05035194634884
    vertex 7.97790623204185 -5.609680786353287 3.142017032498899
  endloop
endfacet
facet normal -0.589657 0.80394 -0.0773686
  outer loop
    vertex 3.739791185732807 -7.562939444340674 19.85895302027751
    vertex 3.621847757603616 -7.32801799328206 23.19892390494643
    vertex 5.985993332998001 -5.738113754370008 21.70158349605105
  endloop
endfacet
facet normal -0.892012 -0.43299 -0.12975
  outer loop
    vertex 9.238795325112871 3.826834323650888 0
    vertex 9.427861896375774 2.650120156872034 2.62702649912103
    vertex 7.776353139284434 5.87648813750971 3.214166623951954
  endloop
endfacet
facet normal -0.659663 0.746626 -0.0859852
  outer loop
    vertex 5.005865254672201 -8.032953851212447 6.797276166187658
    vertex 7.37563220061928 -6.025224467988195 6.05035194634884
    vertex 5.314612987400232 -8.161132944541377 3.315614168559904
  endloop
endfacet
facet normal -0.698623 -0.714408 -0.0393215
  outer loop
    vertex 5.338505416622444 7.824135398565263 6.710250544838956
    vertex 7.656623156456387 5.544078830047211 6.949299842308896
    vertex 6.84283895975777 6.174726334055581 9.949922389192391
  endloop
endfacet
facet normal -0.87132 0.47772 -0.112181
  outer loop
    vertex 7.97790623204185 -5.609680786353287 3.142017032498899
    vertex 7.37563220061928 -6.025224467988195 6.05035194634884
    vertex 9.052695528155258 -3.115890512625786 5.413776204760012
  endloop
endfacet
facet normal 0.831459 0.555563 -0.00509423
  outer loop
    vertex -9.238795325112898 -3.826834323650822 0
    vertex -8.143874415727458 -5.441562914486517 2.610432845887246
    vertex -7.07106781186552 -7.07106781186543 0
  endloop
endfacet
facet normal -0.98229 0.181945 -0.0447534
  outer loop
    vertex 7.222356989531538 -3.09481181487894 27.22304817204642
    vertex 7.191937088180992 -2.550418267380413 30.10397004714066
    vertex 7.710495801465644 0 29.09090909090909
  endloop
endfacet
facet normal -0.978681 -0.201839 -0.0380067
  outer loop
    vertex 7.710495801465644 0 29.09090909090909
    vertex 7.090624087037928 2.778819321502126 30.29548714401388
    vertex 7.080697409888677 3.430565863032551 27.08992406820984
  endloop
endfacet
facet normal 0.988644 0.0407449 -0.144649
  outer loop
    vertex -7.491105346209778 1.573992289548906 29.80012843076539
    vertex -7.451210126979701 -1.989403709124672 29.06906520530162
    vertex -7.918815017384239 -0.3852559561567291 26.32495682097773
  endloop
endfacet
facet normal -0.899485 0.419264 -0.123064
  outer loop
    vertex 7.97790623204185 -5.609680786353287 3.142017032498899
    vertex 9.427861896376006 -2.650120156872399 2.627026499116916
    vertex 9.238795325112864 -3.826834323650904 0
  endloop
endfacet
facet normal -0.943193 0.276946 -0.183543
  outer loop
    vertex 6.85193172701526 0 40
    vertex 6.479536383967495 -2.708940158245085 37.82617290804641
    vertex 5.764211772069647 -3.704433970043469 40
  endloop
endfacet
facet normal -0.880574 -0.465794 -0.0873218
  outer loop
    vertex 6.81795579857621 5.410493035483597 16.46845287319757
    vertex 7.083811703752405 5.416965054294773 13.75297594372773
    vertex 8.317154775290385 2.601768294346183 16.33254925924638
  endloop
endfacet
facet normal -0.943705 -0.277097 -0.180663
  outer loop
    vertex 5.76421177206964 3.704433970043481 40
    vertex 6.47447859491684 2.729234801026417 37.78561287385854
    vertex 6.85193172701526 0 40
  endloop
endfacet
facet normal -0.836014 0.537488 -0.110394
  outer loop
    vertex 7.222356989531538 -3.09481181487894 27.22304817204642
    vertex 5.66245838212768 -5.35599553252495 28.02688225903877
    vertex 7.191937088180992 -2.550418267380413 30.10397004714066
  endloop
endfacet
facet normal -0.98723 -0.139072 -0.0776967
  outer loop
    vertex 7.996683826282438 0 25.45454545454545
    vertex 7.824876628196186 2.249232280486619 23.61158037361657
    vertex 8.282871851099232 0 21.81818181818182
  endloop
endfacet
facet normal -0.690033 0.715214 -0.111009
  outer loop
    vertex 4.897750001522206 -7.212062221687781 16.29061331802896
    vertex 6.960261666914428 -5.387577933708652 15.2248955530134
    vertex 5.975447912857043 -6.733111905122116 12.6774262015533
  endloop
endfacet
facet normal 0.418091 0.897406 -0.140937
  outer loop
    vertex -2.255728504271666 -9.088992950639531 8.07191412195931
    vertex -4.880994636197389 -8.170357894224887 6.133380170653624
    vertex -5.654384441809491 -7.395918385791227 8.770302827663532
  endloop
endfacet
facet normal 0.726558 0.687052 0.00849411
  outer loop
    vertex -6.937020296927226 -3.877829853218776 26.08183645941722
    vertex -4.850492023572549 -6.107579385320427 27.96195963314501
    vertex -4.0082772115096 -6.961518529580776 24.99315419165018
  endloop
endfacet
facet normal -0.692882 -0.717689 -0.0695464
  outer loop
    vertex 5.165074966611695 7.300914875872246 13.42753981329333
    vertex 7.083811703752405 5.416965054294773 13.75297594372773
    vertex 6.81795579857621 5.410493035483597 16.46845287319757
  endloop
endfacet
facet normal -0.603864 0.795415 -0.0516063
  outer loop
    vertex 5.985993332998001 -5.738113754370008 21.70158349605105
    vertex 6.463794827395485 -5.578002126408083 18.57847497877022
    vertex 3.739791185732807 -7.562939444340674 19.85895302027751
  endloop
endfacet
facet normal -0.892559 -0.448661 -0.0451727
  outer loop
    vertex 7.776353139284434 5.87648813750971 3.214166623951954
    vertex 9.427861896375774 2.650120156872034 2.62702649912103
    vertex 9.052695528160077 3.115890512609897 5.4137762047678
  endloop
endfacet
facet normal 0.616764 0.763978 -0.189577
  outer loop
    vertex -3.137163703929425 -6.954370703871706 30.12355762015332
    vertex -4.850492023572549 -6.107579385320427 27.96195963314501
    vertex -6.11634918439865 -4.572526804620288 30.02978673362817
  endloop
endfacet
facet normal -0.900279 0.432557 -0.0489036
  outer loop
    vertex 9.052695528155258 -3.115890512625786 5.413776204760012
    vertex 9.427861896376006 -2.650120156872399 2.627026499116916
    vertex 7.97790623204185 -5.609680786353287 3.142017032498899
  endloop
endfacet
facet normal -0.846661 0.522115 -0.102763
  outer loop
    vertex 7.862421364555303 -3.03452317817868 19.97806118552853
    vertex 6.463794827395485 -5.578002126408083 18.57847497877022
    vertex 5.985993332998001 -5.738113754370008 21.70158349605105
  endloop
endfacet
facet normal -0.983227 0.147138 -0.107775
  outer loop
    vertex 9.713811975183205 0 3.636363636363633
    vertex 9.427861896376006 -2.650120156872399 2.627026499116916
    vertex 9.052695528155258 -3.115890512625786 5.413776204760012
  endloop
endfacet
facet normal -0.831371 0.552587 -0.0589076
  outer loop
    vertex 5.628175216946661 -5.710074298587421 25.18925966243833
    vertex 5.66245838212768 -5.35599553252495 28.02688225903877
    vertex 7.222356989531538 -3.09481181487894 27.22304817204642
  endloop
endfacet
facet normal -0.678298 0.732429 -0.0588268
  outer loop
    vertex 6.463794827395485 -5.578002126408083 18.57847497877022
    vertex 6.960261666914428 -5.387577933708652 15.2248955530134
    vertex 4.897750001522206 -7.212062221687781 16.29061331802896
  endloop
endfacet
facet normal -0.983227 -0.147138 -0.107775
  outer loop
    vertex 9.052695528160077 3.115890512609897 5.4137762047678
    vertex 9.427861896375774 2.650120156872034 2.62702649912103
    vertex 9.713811975183205 0 3.636363636363633
  endloop
endfacet
facet normal -0.977557 0.196122 -0.0769354
  outer loop
    vertex 7.138119751832055 0 36.36363636363636
    vertex 6.479536383967495 -2.708940158245085 37.82617290804641
    vertex 6.85193172701526 0 40
  endloop
endfacet
facet normal -0.977269 -0.19756 -0.0769127
  outer loop
    vertex 6.85193172701526 0 40
    vertex 6.47447859491684 2.729234801026417 37.78561287385854
    vertex 7.138119751832055 0 36.36363636363636
  endloop
endfacet
facet normal -0.659002 0.747795 -0.0807467
  outer loop
    vertex 7.224013849519404 -5.819264726426061 9.19515411822308
    vertex 7.37563220061928 -6.025224467988195 6.05035194634884
    vertex 5.005865254672201 -8.032953851212447 6.797276166187658
  endloop
endfacet
facet normal -0.976685 0.207282 -0.0558721
  outer loop
    vertex 6.551561750032853 -3.010639074459712 35.44783609175941
    vertex 6.479536383967495 -2.708940158245085 37.82617290804641
    vertex 7.138119751832055 0 36.36363636363636
  endloop
endfacet
facet normal -0.97653 -0.207638 -0.0572248
  outer loop
    vertex 7.138119751832055 0 36.36363636363636
    vertex 6.47447859491684 2.729234801026417 37.78561287385854
    vertex 6.551624081339431 3.010066915074888 35.45015178167115
  endloop
endfacet
facet normal -0 0 -1
  outer loop
    vertex 2.846395307466102 6.232736328877813 40
    vertex -0.7212020875840908 3.69074588076323 40
    vertex -0.9751315555897325 6.782188941703959 40
  endloop
endfacet
facet normal 0 0 -1
  outer loop
    vertex 2.150055893183678 2.60304171095827 40
    vertex -0.7212020875840908 3.69074588076323 40
    vertex 2.846395307466102 6.232736328877813 40
  endloop
endfacet
facet normal 0 0 -1
  outer loop
    vertex 2.846395307466067 -6.232736328877828 40
    vertex 2.343955571210102 -2.705068930572557 40
    vertex 5.76421177206964 -3.704433970043481 40
  endloop
endfacet
facet normal 0 0 -1
  outer loop
    vertex -6.574380347757399 -1.930412244754893 40
    vertex -3.094291399395949 -1.915160713057006 40
    vertex -4.487061039696221 -5.178344486196201 40
  endloop
endfacet
facet normal -0 0 -1
  outer loop
    vertex 5.764211772069647 3.704433970043469 40
    vertex 2.150055893183678 2.60304171095827 40
    vertex 2.846395307466102 6.232736328877813 40
  endloop
endfacet
facet normal 0 0 -1
  outer loop
    vertex -6.574380347757399 -1.930412244754893 40
    vertex -3.579150578427692 1.152443657432429 40
    vertex -3.094291399395949 -1.915160713057006 40
  endloop
endfacet
facet normal 0 -0 -1
  outer loop
    vertex -6.574380347757381 1.930412244754955 40
    vertex -3.579150578427692 1.152443657432429 40
    vertex -6.574380347757399 -1.930412244754893 40
  endloop
endfacet
facet normal -0 0 -1
  outer loop
    vertex 6.85193172701526 0 40
    vertex 3.808463081195526 -0.02354915482037636 40
    vertex 5.764211772069647 3.704433970043469 40
  endloop
endfacet
facet normal 0 0 -1
  outer loop
    vertex 5.76421177206964 -3.704433970043481 40
    vertex 3.808463081195526 -0.02354915482037636 40
    vertex 6.85193172701526 0 40
  endloop
endfacet
facet normal 0 0 -1
  outer loop
    vertex 5.764211772069647 3.704433970043469 40
    vertex 3.808463081195526 -0.02354915482037636 40
    vertex 2.150055893183678 2.60304171095827 40
  endloop
endfacet
facet normal 0 -0 -1
  outer loop
    vertex -3.094291399395949 -1.915160713057006 40
    vertex -0.548544478657697 -3.815210651177025 40
    vertex -4.487061039696221 -5.178344486196201 40
  endloop
endfacet
facet normal 0 0 -1
  outer loop
    vertex 2.343955571210102 -2.705068930572557 40
    vertex 3.808463081195526 -0.02354915482037636 40
    vertex 5.76421177206964 -3.704433970043481 40
  endloop
endfacet
facet normal 0 0 -1
  outer loop
    vertex -4.487061039696221 -5.178344486196201 40
    vertex -0.548544478657697 -3.815210651177025 40
    vertex -0.9751315555897926 -6.782188941703951 40
  endloop
endfacet
facet normal 0 0 -1
  outer loop
    vertex 2.846395307466067 -6.232736328877828 40
    vertex -0.548544478657697 -3.815210651177025 40
    vertex 2.343955571210102 -2.705068930572557 40
  endloop
endfacet
facet normal 0 0 -1
  outer loop
    vertex -0.9751315555897926 -6.782188941703951 40
    vertex -0.548544478657697 -3.815210651177025 40
    vertex 2.846395307466067 -6.232736328877828 40
  endloop
endfacet
facet normal 0 -0 -1
  outer loop
    vertex -4.487061039696167 5.178344486196248 40
    vertex -3.579150578427692 1.152443657432429 40
    vertex -6.574380347757381 1.930412244754955 40
  endloop
endfacet
facet normal 0 -0 -1
  outer loop
    vertex -0.9751315555897325 6.782188941703959 40
    vertex -0.7212020875840908 3.69074588076323 40
    vertex -4.487061039696167 5.178344486196248 40
  endloop
endfacet
facet normal -0 0 -1
  outer loop
    vertex -0.7212020875840908 3.69074588076323 40
    vertex -3.579150578427692 1.152443657432429 40
    vertex -4.487061039696167 5.178344486196248 40
  endloop
endfacet
facet normal -0 0 -1
  outer loop
    vertex 2.343955571210102 -2.705068930572557 40
    vertex -0.548544478657697 -3.815210651177025 40
    vertex -0.02358824837516467 -0.03926770930795875 40
  endloop
endfacet
facet normal 0 0 -1
  outer loop
    vertex -0.02358824837516467 -0.03926770930795875 40
    vertex 3.808463081195526 -0.02354915482037636 40
    vertex 2.343955571210102 -2.705068930572557 40
  endloop
endfacet
facet normal 0 0 -1
  outer loop
    vertex -0.02358824837516467 -0.03926770930795875 40
    vertex -0.548544478657697 -3.815210651177025 40
    vertex -3.094291399395949 -1.915160713057006 40
  endloop
endfacet
facet normal 0 -0 -1
  outer loop
    vertex 2.150055893183678 2.60304171095827 40
    vertex 3.808463081195526 -0.02354915482037636 40
    vertex -0.02358824837516467 -0.03926770930795875 40
  endloop
endfacet
facet normal -0 0 -1
  outer loop
    vertex 2.150055893183678 2.60304171095827 40
    vertex -0.02358824837516467 -0.03926770930795875 40
    vertex -0.7212020875840908 3.69074588076323 40
  endloop
endfacet
facet normal 0 0 -1
  outer loop
    vertex -0.02358824837516467 -0.03926770930795875 40
    vertex -3.579150578427692 1.152443657432429 40
    vertex -0.7212020875840908 3.69074588076323 40
  endloop
endfacet
facet normal 0 0 -1
  outer loop
    vertex -3.094291399395949 -1.915160713057006 40
    vertex -3.579150578427692 1.152443657432429 40
    vertex -0.02358824837516467 -0.03926770930795875 40
  endloop
endfacet
endsolid Created by Gmsh
