solid Created by Gmsh
facet normal 0.886978 -0.452732 -0.091119
  outer loop
    vertex -6.574280951499583 4.971315712715366 3.274665941480539
    vertex -6.219601248317179 5.006711640260412 6.551352758539259
    vertex -7.68010898001195 2.064205168116835 6.954441669139783
  endloop
endfacet
facet normal 0.913437 -0.404479 -0.045046
  outer loop
    vertex -6.574280951499583 4.971315712715366 3.274665941480539
    vertex -7.68010898001195 2.064205168116835 6.954441669139783
    vertex -8.105974861055468 1.519082583037352 3.213567165129341
  endloop
endfacet
facet normal -0.137141 0.984064 -0.113187
  outer loop
    vertex -0.05366589647803434 -8.237388699657725 3.33457174410232
    vertex -0.7380209956221866 -7.922643798200768 6.900179183009435
    vertex 2.9427691195737 -7.34543458285497 7.45875871243528
  endloop
endfacet
facet normal -0.221476 0.973898 -0.0497151
  outer loop
    vertex 2.9427691195737 -7.34543458285497 7.45875871243528
    vertex 3.540895050210915 -7.394866692555978 3.825815040738728
    vertex -0.05366589647803434 -8.237388699657725 3.33457174410232
  endloop
endfacet
facet normal -0.601721 0.780376 -0.170134
  outer loop
    vertex 5.475380840837731 -3.661835910150386 24.30671061280471
    vertex 4.294362488370672 -5.367586187920907 20.65968384610066
    vertex 2.364207891165039 -6.203166261187525 23.65349170240312
  endloop
endfacet
facet normal -0.661214 0.75017 -0.0064821
  outer loop
    vertex 6.010611331640039 -3.885960795502882 17.05955896113544
    vertex 3.156050839377087 -6.399624409760105 17.33718077095229
    vertex 4.294362488370672 -5.367586187920907 20.65968384610066
  endloop
endfacet
facet normal -0.791147 -0.605596 -0.0856714
  outer loop
    vertex 4.804528590520388 5.925297380446386 11.07459690871548
    vertex 5.181246504426104 6.080219509446261 6.500613586894442
    vertex 7.066931567385803 3.208000323596711 9.390158011229474
  endloop
endfacet
facet normal 0.0485396 -0.990585 -0.128008
  outer loop
    vertex 1.480646055244822 6.386243226369767 24.70543674702525
    vertex -1.934284728565282 6.342546875473884 23.74866573554577
    vertex 0.3602619030958481 6.880929656689792 20.45248855488847
  endloop
endfacet
facet normal -0.753145 0.654546 -0.0658942
  outer loop
    vertex 4.140412149769135 -6.42316939154982 10.90196206948912
    vertex 6.74258411824909 -3.201255101984288 13.1643270699783
    vertex 7.06693156738582 -3.208000323596677 9.39015801122946
  endloop
endfacet
facet normal 0.783486 -0.603566 -0.147846
  outer loop
    vertex -5.523405411128294 3.232735528654882 26.68443326516766
    vertex -3.627009804121501 4.99955424096999 29.52123076802367
    vertex -5.769058719331797 1.874480806635114 30.92757178232913
  endloop
endfacet
facet normal 0.221745 0.974137 -0.0434294
  outer loop
    vertex -0.05366589647803434 -8.237388699657725 3.33457174410232
    vertex -3.588391057031389 -7.451370809194668 2.917374447667509
    vertex -0.7380209956221866 -7.922643798200768 6.900179183009435
  endloop
endfacet
facet normal 0.977041 -0.212738 -0.0115335
  outer loop
    vertex -6.315709113883083 -0.452899865519624 27.54797905370382
    vertex -5.523405411128294 3.232735528654882 26.68443326516766
    vertex -5.769058719331797 1.874480806635114 30.92757178232913
  endloop
endfacet
facet normal 0.367514 0.917095 -0.154502
  outer loop
    vertex -0.7380209956221866 -7.922643798200768 6.900179183009435
    vertex -3.588391057031389 -7.451370809194668 2.917374447667509
    vertex -4.836216919002166 -6.372915244550931 6.350685992835228
  endloop
endfacet
facet normal -0.634669 0.772595 0.0170632
  outer loop
    vertex 2.364207891165039 -6.203166261187525 23.65349170240312
    vertex 3.667895112610734 -5.20763296585281 27.0682099001768
    vertex 5.475380840837731 -3.661835910150386 24.30671061280471
  endloop
endfacet
facet normal -0.473372 -0.878177 -0.0687315
  outer loop
    vertex 2.272352634595493 7.445637170847082 9.089119341205439
    vertex 5.181246504426104 6.080219509446261 6.500613586894442
    vertex 4.804528590520388 5.925297380446386 11.07459690871548
  endloop
endfacet
facet normal -0.787532 0.602988 -0.127273
  outer loop
    vertex 4.294362488370672 -5.367586187920907 20.65968384610066
    vertex 6.302909623577471 -2.728728855624712 20.73355971164664
    vertex 6.010611331640039 -3.885960795502882 17.05955896113544
  endloop
endfacet
facet normal -0.807032 -0.5877 -0.0575153
  outer loop
    vertex 5.181246504426104 6.080219509446261 6.500613586894442
    vertex 7.435071963150503 3.040318102023317 5.937957496737063
    vertex 7.066931567385803 3.208000323596711 9.390158011229474
  endloop
endfacet
facet normal -0.618126 0.784884 -0.0433286
  outer loop
    vertex 3.540895050210915 -7.394866692555978 3.825815040738728
    vertex 5.696514734322212 -5.500873339283286 7.382845184933348
    vertex 6.444006225574763 -5.138923482688389 3.275744402997496
  endloop
endfacet
facet normal -0.77038 0.637225 -0.0214042
  outer loop
    vertex 4.140412149769135 -6.42316939154982 10.90196206948912
    vertex 4.596415345997822 -5.753153167304644 14.43656985584184
    vertex 6.74258411824909 -3.201255101984288 13.1643270699783
  endloop
endfacet
facet normal -0.356309 -0.934251 -0.0148034
  outer loop
    vertex 0.3602619030958481 6.880929656689792 20.45248855488847
    vertex 3.932546777996295 5.491065120749409 22.1848412760579
    vertex 1.480646055244822 6.386243226369767 24.70543674702525
  endloop
endfacet
facet normal -0.433769 0.900731 -0.0229971
  outer loop
    vertex 1.891427938628715 -8.28688725354549 0
    vertex 3.540895050210915 -7.394866692555978 3.825815040738728
    vertex 5.299663315799263 -6.645567600978231 0
  endloop
endfacet
facet normal -0.795107 0.605915 -0.0259127
  outer loop
    vertex 5.475380840837731 -3.661835910150386 24.30671061280471
    vertex 6.302909623577471 -2.728728855624712 20.73355971164664
    vertex 4.294362488370672 -5.367586187920907 20.65968384610066
  endloop
endfacet
facet normal 0.168133 -0.98479 -0.0438099
  outer loop
    vertex -1.934284728565282 6.342546875473884 23.74866573554577
    vertex -2.562176426224175 6.366222616694229 20.80675075984162
    vertex 0.3602619030958481 6.880929656689792 20.45248855488847
  endloop
endfacet
facet normal -0.767967 0.615153 -0.178364
  outer loop
    vertex 7.06693156738582 -3.208000323596677 9.39015801122946
    vertex 5.696514734322212 -5.500873339283286 7.382845184933348
    vertex 4.140412149769135 -6.42316939154982 10.90196206948912
  endloop
endfacet
facet normal -0.660807 0.732206 -0.164949
  outer loop
    vertex 6.010611331640039 -3.885960795502882 17.05955896113544
    vertex 4.596415345997822 -5.753153167304644 14.43656985584184
    vertex 3.156050839377087 -6.399624409760105 17.33718077095229
  endloop
endfacet
facet normal 0.327391 -0.93516 -0.135247
  outer loop
    vertex -3.627009804121501 4.99955424096999 29.52123076802367
    vertex -0.8386746035249074 6.294439283748008 27.31749878890052
    vertex 1.384054089366486e-14 6.065947312789789 30.92757178232912
  endloop
endfacet
facet normal 0.98731 -0.00130089 -0.158802
  outer loop
    vertex -5.769058719331797 1.874480806635114 30.92757178232913
    vertex -5.772415073429275 -1.861623825717205 30.93731029574472
    vertex -6.315709113883083 -0.452899865519624 27.54797905370382
  endloop
endfacet
facet normal -0.555533 0.825129 -0.10269
  outer loop
    vertex 2.9427691195737 -7.34543458285497 7.45875871243528
    vertex 5.696514734322212 -5.500873339283286 7.382845184933348
    vertex 3.540895050210915 -7.394866692555978 3.825815040738728
  endloop
endfacet
facet normal -0.285108 0.94395 -0.166351
  outer loop
    vertex 0.01945747908572798 -6.418122564542553 26.45238617333767
    vertex 3.667895112610734 -5.20763296585281 27.0682099001768
    vertex 2.364207891165039 -6.203166261187525 23.65349170240312
  endloop
endfacet
facet normal -0.623835 0.769623 -0.13605
  outer loop
    vertex 5.299663315799263 -6.645567600978231 0
    vertex 3.540895050210915 -7.394866692555978 3.825815040738728
    vertex 6.444006225574763 -5.138923482688389 3.275744402997496
  endloop
endfacet
facet normal -0.208434 0.96854 -0.135959
  outer loop
    vertex -0.05366589647803434 -8.237388699657725 3.33457174410232
    vertex 3.540895050210915 -7.394866692555978 3.825815040738728
    vertex 1.891427938628715 -8.28688725354549 0
  endloop
endfacet
facet normal -0.276943 0.960803 0.0126526
  outer loop
    vertex 3.387344658236306 -5.039928256579209 30.84460031687464
    vertex -0.1535945546721058 -6.061999744469129 30.95301019860074
    vertex 1.799758845752893 -5.539088170459268 34
  endloop
endfacet
facet normal 0.523156 -0.843966 -0.118449
  outer loop
    vertex -4.780532273385997 4.665744472675378 23.12504505731264
    vertex -2.562176426224175 6.366222616694229 20.80675075984162
    vertex -1.934284728565282 6.342546875473884 23.74866573554577
  endloop
endfacet
facet normal -0.457631 -0.884219 -0.0934346
  outer loop
    vertex 2.272352634595493 7.445637170847082 9.089119341205439
    vertex 4.804528590520388 5.925297380446386 11.07459690871548
    vertex 1.89770706407746 7.251327808192989 12.76293612081339
  endloop
endfacet
facet normal -0.664023 -0.747464 0.0192382
  outer loop
    vertex 5.416929068369659 3.168211063941273 28.26618588403748
    vertex 3.552889397646881 4.897669466189655 31.12212752650813
    vertex 2.503607884424977 5.755860329778161 28.24867492407493
  endloop
endfacet
facet normal 0.507855 -0.861441 -0.00162686
  outer loop
    vertex -1.934284728565282 6.342546875473884 23.74866573554577
    vertex -3.54816662613143 5.386763009891018 26.04358081030063
    vertex -4.780532273385997 4.665744472675378 23.12504505731264
  endloop
endfacet
facet normal -0.448072 -0.891129 -0.0715504
  outer loop
    vertex 1.89770706407746 7.251327808192989 12.76293612081339
    vertex 4.804528590520388 5.925297380446386 11.07459690871548
    vertex 4.540524343744473 5.750601232698511 14.90364386773287
  endloop
endfacet
facet normal 0.862811 -0.490291 -0.123173
  outer loop
    vertex -5.10496535531012 4.773284068976176 19.20017428710256
    vertex -6.681079472883119 1.684160984254032 20.45595585170258
    vertex -6.707036917766066 2.554749621751309 16.80875017290887
  endloop
endfacet
facet normal 0.873042 -0.480123 -0.0853215
  outer loop
    vertex -4.780532273385997 4.665744472675378 23.12504505731264
    vertex -6.681079472883119 1.684160984254032 20.45595585170258
    vertex -5.10496535531012 4.773284068976176 19.20017428710256
  endloop
endfacet
facet normal -0.744349 0.662396 -0.0847143
  outer loop
    vertex 3.387344658236306 -5.039928256579209 30.84460031687464
    vertex 5.536042919995292 -2.955122731540205 28.26634817598919
    vertex 3.667895112610734 -5.20763296585281 27.0682099001768
  endloop
endfacet
facet normal 0.307012 -0.948961 -0.0722227
  outer loop
    vertex 1.384054089366486e-14 6.065947312789789 30.92757178232912
    vertex -3.487753460651402 4.843103291086681 32.16886398101806
    vertex -3.627009804121501 4.99955424096999 29.52123076802367
  endloop
endfacet
facet normal -0.151607 -0.988063 -0.0273168
  outer loop
    vertex -0.8386746035249074 6.294439283748008 27.31749878890052
    vertex 2.503607884424977 5.755860329778161 28.24867492407493
    vertex 1.384054089366486e-14 6.065947312789789 30.92757178232912
  endloop
endfacet
facet normal 2.91833e-15 0.985592 -0.169143
  outer loop
    vertex 1.799758845752893 -5.539088170459268 34
    vertex -0.1535945546721058 -6.061999744469129 30.95301019860074
    vertex -1.799758845752924 -5.539088170459258 34
  endloop
endfacet
facet normal 0.253479 -0.966643 -0.0367266
  outer loop
    vertex -0.6790260030830738 7.925047902698382 6.936513840256026
    vertex -3.7834890414443 7.195843283516483 4.702819658254199
    vertex -1.779665682060718e-14 8.242193324362905 3.275744402997518
  endloop
endfacet
facet normal -0.807309 -0.570882 -0.149485
  outer loop
    vertex 6.444006225574744 5.138923482688411 3.275744402997521
    vertex 7.435071963150503 3.040318102023317 5.937957496737063
    vertex 5.181246504426104 6.080219509446261 6.500613586894442
  endloop
endfacet
facet normal 0.999848 -0.000852852 0.0174052
  outer loop
    vertex -5.824141967962971 2.657763772795721e-14 34
    vertex -5.772415073429275 -1.861623825717205 30.93731029574472
    vertex -5.769058719331797 1.874480806635114 30.92757178232913
  endloop
endfacet
facet normal 0.814961 0.579365 0.0132141
  outer loop
    vertex -3.654681253016229 -4.840505862493316 30.93650058636878
    vertex -5.772415073429275 -1.861623825717205 30.93731029574472
    vertex -4.711829829734406 -3.423344756026279 34
  endloop
endfacet
facet normal -0.963107 -0.254875 -0.0863955
  outer loop
    vertex 6.418777086193422 0 26.44444444444444
    vertex 5.416929068369659 3.168211063941273 28.26618588403748
    vertex 5.752841415685747 3.178415925415718 24.49144558197048
  endloop
endfacet
facet normal -0.966092 -0.243522 -0.0858063
  outer loop
    vertex 5.752841415685747 3.178415925415718 24.49144558197048
    vertex 6.086646384397107 3.18554560075069 20.71290316481147
    vertex 6.716094645308647 0 22.66666666666667
  endloop
endfacet
facet normal 0.994637 -0.098779 -0.0306575
  outer loop
    vertex -6.707036917766066 2.554749621751309 16.80875017290887
    vertex -6.681079472883119 1.684160984254032 20.45595585170258
    vertex -7.025216711539393 -0.9799328400271684 17.87468400734409
  endloop
endfacet
facet normal -0.973507 -0.213615 -0.0815655
  outer loop
    vertex 7.608047322654324 0 11.33333333333334
    vertex 6.754312183509096 3.162147375897697 13.24144544677802
    vertex 7.066931567385803 3.208000323596711 9.390158011229474
  endloop
endfacet
facet normal 0.983044 -0.128066 -0.131235
  outer loop
    vertex -7.374941453427643 0.003601744924805894 14.29521305778678
    vertex -6.707036917766066 2.554749621751309 16.80875017290887
    vertex -7.025216711539393 -0.9799328400271684 17.87468400734409
  endloop
endfacet
facet normal 0.764375 0.628467 -0.144084
  outer loop
    vertex -5.954882259546282 -2.687177404096478 24.99168869897893
    vertex -3.577542567696281 -5.388226305710225 25.82218115409952
    vertex -4.655816194988496 -4.876792830665308 22.33263745829903
  endloop
endfacet
facet normal 0.917583 0.396789 -0.0245148
  outer loop
    vertex -5.584903330287923 -4.253246384922898 18.80441374490263
    vertex -7.025216711539393 -0.9799328400271684 17.87468400734409
    vertex -6.558249528904518 -1.838248862094631 21.4607100632679
  endloop
endfacet
facet normal -0.965522 -0.248986 -0.0759882
  outer loop
    vertex 6.418777086193422 0 26.44444444444444
    vertex 5.752841415685747 3.178415925415718 24.49144558197048
    vertex 6.716094645308647 0 22.66666666666667
  endloop
endfacet
facet normal 0.92046 0.366323 -0.136235
  outer loop
    vertex -6.420856181234912 -3.471160593834275 15.25932590296339
    vertex -7.025216711539393 -0.9799328400271684 17.87468400734409
    vertex -5.584903330287923 -4.253246384922898 18.80441374490263
  endloop
endfacet
facet normal -0.962422 -0.260782 -0.0757442
  outer loop
    vertex 6.121459527078197 0 30.22222222222222
    vertex 5.416929068369659 3.168211063941273 28.26618588403748
    vertex 6.418777086193422 0 26.44444444444444
  endloop
endfacet
facet normal 0.297263 0.941669 -0.157781
  outer loop
    vertex -1.428180607222886 -6.531963956126349 23.04558057301454
    vertex -3.577542567696281 -5.388226305710225 25.82218115409952
    vertex 0.01945747908572798 -6.418122564542553 26.45238617333767
  endloop
endfacet
facet normal -0.357592 -0.923829 -0.136632
  outer loop
    vertex 4.134424919593665 5.691976638361956 18.61382913409588
    vertex 0.3602619030958481 6.880929656689792 20.45248855488847
    vertex 1.396951022609368 7.06511995431279 16.49389921073964
  endloop
endfacet
facet normal -0.958038 0.252517 -0.135642
  outer loop
    vertex 7.310729763539098 0 15.11111111111111
    vertex 6.74258411824909 -3.201255101984288 13.1643270699783
    vertex 6.010611331640039 -3.885960795502882 17.05955896113544
  endloop
endfacet
facet normal 0.60286 0.797649 -0.0177819
  outer loop
    vertex -5.584903330287923 -4.253246384922898 18.80441374490263
    vertex -4.655816194988496 -4.876792830665308 22.33263745829903
    vertex -2.70725906225682 -6.410884214039028 19.57934214660574
  endloop
endfacet
facet normal -0.758836 -0.647753 -0.067712
  outer loop
    vertex 6.086646384397107 3.18554560075069 20.71290316481147
    vertex 4.134424919593665 5.691976638361956 18.61382913409588
    vertex 6.415063074553701 3.195078219278178 16.94120920251655
  endloop
endfacet
facet normal 0.97357 -0.226575 -0.0287342
  outer loop
    vertex -6.596644116610212 3.488773596387655 13.18409335783286
    vertex -6.707036917766066 2.554749621751309 16.80875017290887
    vertex -7.374941453427643 0.003601744924805894 14.29521305778678
  endloop
endfacet
facet normal 0.0764838 -0.996723 -0.026347
  outer loop
    vertex 0.3602619030958481 6.880929656689792 20.45248855488847
    vertex -2.158144106891219 6.755288782163216 17.89477197857496
    vertex 1.396951022609368 7.06511995431279 16.49389921073964
  endloop
endfacet
facet normal 0.985592 0.168925 -0.00852703
  outer loop
    vertex -6.561237375468081 0.8012898319669388 24.01491793675063
    vertex -6.315709113883083 -0.452899865519624 27.54797905370382
    vertex -5.954882259546282 -2.687177404096478 24.99168869897893
  endloop
endfacet
facet normal 0.458265 0.888743 -0.0113488
  outer loop
    vertex -4.655816194988496 -4.876792830665308 22.33263745829903
    vertex -3.577542567696281 -5.388226305710225 25.82218115409952
    vertex -1.428180607222886 -6.531963956126349 23.04558057301454
  endloop
endfacet
facet normal -0.954178 0.289664 -0.0750954
  outer loop
    vertex 6.716094645308647 0 22.66666666666667
    vertex 5.475380840837731 -3.661835910150386 24.30671061280471
    vertex 6.418777086193422 0 26.44444444444444
  endloop
endfacet
facet normal 0.849821 0.526743 -0.0185747
  outer loop
    vertex -6.558249528904518 -1.838248862094631 21.4607100632679
    vertex -5.954882259546282 -2.687177404096478 24.99168869897893
    vertex -4.655816194988496 -4.876792830665308 22.33263745829903
  endloop
endfacet
facet normal -0.968714 -0.233191 -0.0849392
  outer loop
    vertex 7.013412204423872 0 18.88888888888889
    vertex 6.086646384397107 3.18554560075069 20.71290316481147
    vertex 6.415063074553701 3.195078219278178 16.94120920251655
  endloop
endfacet
facet normal -0.427329 -0.898303 -0.102188
  outer loop
    vertex 1.396951022609368 7.06511995431279 16.49389921073964
    vertex 1.89770706407746 7.251327808192989 12.76293612081339
    vertex 4.540524343744473 5.750601232698511 14.90364386773287
  endloop
endfacet
facet normal 0.965679 0.258696 -0.0232675
  outer loop
    vertex -7.374941453427643 0.003601744924805894 14.29521305778678
    vertex -7.025216711539393 -0.9799328400271684 17.87468400734409
    vertex -6.420856181234912 -3.471160593834275 15.25932590296339
  endloop
endfacet
facet normal 0.856798 0.496898 -0.137803
  outer loop
    vertex -5.584903330287923 -4.253246384922898 18.80441374490263
    vertex -6.558249528904518 -1.838248862094631 21.4607100632679
    vertex -4.655816194988496 -4.876792830665308 22.33263745829903
  endloop
endfacet
facet normal 0.515454 -0.847924 -0.123823
  outer loop
    vertex -2.158144106891219 6.755288782163216 17.89477197857496
    vertex -5.10496535531012 4.773284068976176 19.20017428710256
    vertex -4.716676524008776 5.535595875990398 15.59633964806421
  endloop
endfacet
facet normal 0.723907 0.689648 -0.0185577
  outer loop
    vertex -6.420856181234912 -3.471160593834275 15.25932590296339
    vertex -5.584903330287923 -4.253246384922898 18.80441374490263
    vertex -3.904643289781761 -6.090293208895218 16.079772047813
  endloop
endfacet
facet normal -0.968256 -0.23806 -0.0762034
  outer loop
    vertex 6.716094645308647 0 22.66666666666667
    vertex 6.086646384397107 3.18554560075069 20.71290316481147
    vertex 7.013412204423872 0 18.88888888888889
  endloop
endfacet
facet normal 0.888894 0.457157 -0.0295725
  outer loop
    vertex -7.1011523141935 -2.652643835397247 11.68427442314305
    vertex -6.000880306629123 -4.960987481288726 9.072095348429933
    vertex -7.646777452587115 -1.822268362892256 8.120439607059335
  endloop
endfacet
facet normal -0.956388 0.282236 -0.0752693
  outer loop
    vertex 7.310729763539098 0 15.11111111111111
    vertex 6.010611331640039 -3.885960795502882 17.05955896113544
    vertex 7.013412204423872 0 18.88888888888889
  endloop
endfacet
facet normal -0.4105 -0.90993 -0.0593092
  outer loop
    vertex 4.134424919593665 5.691976638361956 18.61382913409588
    vertex 1.396951022609368 7.06511995431279 16.49389921073964
    vertex 4.540524343744473 5.750601232698511 14.90364386773287
  endloop
endfacet
facet normal -0.0869573 0.996205 0.00366128
  outer loop
    vertex -1.428180607222886 -6.531963956126349 23.04558057301454
    vertex 0.01945747908572798 -6.418122564542553 26.45238617333767
    vertex 2.364207891165039 -6.203166261187525 23.65349170240312
  endloop
endfacet
facet normal 0.964665 0.228454 -0.131261
  outer loop
    vertex -7.374941453427643 0.003601744924805894 14.29521305778678
    vertex -6.420856181234912 -3.471160593834275 15.25932590296339
    vertex -7.1011523141935 -2.652643835397247 11.68427442314305
  endloop
endfacet
facet normal 0.98181 0.132607 -0.135888
  outer loop
    vertex -6.558249528904518 -1.838248862094631 21.4607100632679
    vertex -6.561237375468081 0.8012898319669388 24.01491793675063
    vertex -5.954882259546282 -2.687177404096478 24.99168869897893
  endloop
endfacet
facet normal 0.824286 0.549091 -0.138027
  outer loop
    vertex -4.971910539373114 -5.631699928622527 12.54882984120274
    vertex -6.000880306629123 -4.960987481288726 9.072095348429933
    vertex -7.1011523141935 -2.652643835397247 11.68427442314305
  endloop
endfacet
facet normal 0.825539 -0.563533 -0.0302566
  outer loop
    vertex -5.10496535531012 4.773284068976176 19.20017428710256
    vertex -6.707036917766066 2.554749621751309 16.80875017290887
    vertex -4.716676524008776 5.535595875990398 15.59633964806421
  endloop
endfacet
facet normal 0.959176 -0.253908 -0.12455
  outer loop
    vertex -6.596644116610212 3.488773596387655 13.18409335783286
    vertex -7.374941453427643 0.003601744924805894 14.29521305778678
    vertex -7.606098514198826 0.9069687377538869 10.67343848502903
  endloop
endfacet
facet normal 0.78175 -0.623425 -0.0144558
  outer loop
    vertex -5.299663315799259 6.645567600978236 0
    vertex -6.574280951499583 4.971315712715366 3.274665941480539
    vertex -7.658235377170581 3.688011782499204 0
  endloop
endfacet
facet normal 0.781759 0.623432 -0.0136426
  outer loop
    vertex -7.658235377170531 -3.688011782499311 0
    vertex -6.444006225574707 -5.138923482688467 3.275744402997425
    vertex -5.299663315799171 -6.645567600978304 0
  endloop
endfacet
facet normal -0.972994 0.215004 -0.0840021
  outer loop
    vertex 7.06693156738582 -3.208000323596677 9.39015801122946
    vertex 6.74258411824909 -3.201255101984288 13.1643270699783
    vertex 7.608047322654324 0 11.33333333333334
  endloop
endfacet
facet normal 0.958304 -0.241715 -0.152403
  outer loop
    vertex -6.561237375468081 0.8012898319669388 24.01491793675063
    vertex -5.523405411128294 3.232735528654882 26.68443326516766
    vertex -6.315709113883083 -0.452899865519624 27.54797905370382
  endloop
endfacet
facet normal 0.476728 0.866903 -0.145636
  outer loop
    vertex -4.655816194988496 -4.876792830665308 22.33263745829903
    vertex -1.428180607222886 -6.531963956126349 23.04558057301454
    vertex -2.70725906225682 -6.410884214039028 19.57934214660574
  endloop
endfacet
facet normal -0.972677 0.21918 -0.0765513
  outer loop
    vertex 7.608047322654324 0 11.33333333333334
    vertex 6.74258411824909 -3.201255101984288 13.1643270699783
    vertex 7.310729763539098 0 15.11111111111111
  endloop
endfacet
facet normal 0.617889 0.773602 -0.140543
  outer loop
    vertex -5.584903330287923 -4.253246384922898 18.80441374490263
    vertex -2.70725906225682 -6.410884214039028 19.57934214660574
    vertex -3.904643289781761 -6.090293208895218 16.079772047813
  endloop
endfacet
facet normal -0.765607 -0.636425 -0.0938559
  outer loop
    vertex 4.134424919593665 5.691976638361956 18.61382913409588
    vertex 4.540524343744473 5.750601232698511 14.90364386773287
    vertex 6.415063074553701 3.195078219278178 16.94120920251655
  endloop
endfacet
facet normal 0.460073 -0.886911 -0.041486
  outer loop
    vertex -2.158144106891219 6.755288782163216 17.89477197857496
    vertex -4.716676524008776 5.535595875990398 15.59633964806421
    vertex -1.643065451336664 7.192598051476646 14.25787137801933
  endloop
endfacet
facet normal -0.970583 -0.228327 -0.0763866
  outer loop
    vertex 7.013412204423872 0 18.88888888888889
    vertex 6.415063074553701 3.195078219278178 16.94120920251655
    vertex 7.310729763539098 0 15.11111111111111
  endloop
endfacet
facet normal 0.990794 0.131936 -0.0303284
  outer loop
    vertex -7.374941453427643 0.003601744924805894 14.29521305778678
    vertex -7.1011523141935 -2.652643835397247 11.68427442314305
    vertex -7.606098514198826 0.9069687377538869 10.67343848502903
  endloop
endfacet
facet normal 0.933304 0.359088 -0.000354998
  outer loop
    vertex -5.772415073429275 -1.861623825717205 30.93731029574472
    vertex -5.048251945217843 -3.746576782739199 28.12356417516154
    vertex -6.315709113883083 -0.452899865519624 27.54797905370382
  endloop
endfacet
facet normal 0.974854 0.222504 -0.0123144
  outer loop
    vertex -8.5 -5.935518276033327e-14 0
    vertex -8.008663784795756 -1.976072329472833 3.19113933091041
    vertex -7.658235377170531 -3.688011782499311 0
  endloop
endfacet
facet normal -0.974509 0.210834 -0.0766955
  outer loop
    vertex 7.905364881769549 0 7.555555555555554
    vertex 7.06693156738582 -3.208000323596677 9.39015801122946
    vertex 7.608047322654324 0 11.33333333333334
  endloop
endfacet
facet normal -0.974509 -0.210834 -0.0766955
  outer loop
    vertex 7.608047322654324 0 11.33333333333334
    vertex 7.066931567385803 3.208000323596711 9.390158011229474
    vertex 7.905364881769549 0 7.555555555555554
  endloop
endfacet
facet normal -6.57341e-15 0.99989 -0.0148424
  outer loop
    vertex -1.891427938628608 -8.286887253545515 0
    vertex -0.05366589647803434 -8.237388699657725 3.33457174410232
    vertex 1.891427938628715 -8.28688725354549 0
  endloop
endfacet
facet normal 0.800403 -0.585939 -0.126611
  outer loop
    vertex -4.716676524008776 5.535595875990398 15.59633964806421
    vertex -6.707036917766066 2.554749621751309 16.80875017290887
    vertex -6.596644116610212 3.488773596387655 13.18409335783286
  endloop
endfacet
facet normal 1.87815e-15 -0.999907 -0.0136426
  outer loop
    vertex 1.891427938628656 8.286887253545505 0
    vertex -1.779665682060718e-14 8.242193324362905 3.275744402997518
    vertex -1.89142793862869 8.286887253545498 0
  endloop
endfacet
facet normal 0.735376 0.66386 -0.136055
  outer loop
    vertex -6.420856181234912 -3.471160593834275 15.25932590296339
    vertex -3.904643289781761 -6.090293208895218 16.079772047813
    vertex -4.971910539373114 -5.631699928622527 12.54882984120274
  endloop
endfacet
facet normal 0.816526 0.576837 -0.0233084
  outer loop
    vertex -6.420856181234912 -3.471160593834275 15.25932590296339
    vertex -4.971910539373114 -5.631699928622527 12.54882984120274
    vertex -7.1011523141935 -2.652643835397247 11.68427442314305
  endloop
endfacet
facet normal 0.0418119 -0.992665 -0.113439
  outer loop
    vertex -2.158144106891219 6.755288782163216 17.89477197857496
    vertex -1.643065451336664 7.192598051476646 14.25787137801933
    vertex 1.396951022609368 7.06511995431279 16.49389921073964
  endloop
endfacet
facet normal -0.781759 0.623432 -0.0136426
  outer loop
    vertex 5.299663315799263 -6.645567600978231 0
    vertex 6.444006225574763 -5.138923482688389 3.275744402997496
    vertex 7.658235377170568 -3.688011782499232 0
  endloop
endfacet
facet normal -0.781759 -0.623432 -0.0136426
  outer loop
    vertex 7.65823537717056 3.68801178249925 0
    vertex 6.444006225574744 5.138923482688411 3.275744402997521
    vertex 5.299663315799225 6.645567600978262 0
  endloop
endfacet
facet normal 0.758998 -0.649856 -0.0401086
  outer loop
    vertex -4.716676524008776 5.535595875990398 15.59633964806421
    vertex -6.596644116610212 3.488773596387655 13.18409335783286
    vertex -4.362992190879098 6.174362543698757 11.93975371351062
  endloop
endfacet
facet normal -0.119257 -0.982881 -0.140436
  outer loop
    vertex -0.8386746035249074 6.294439283748008 27.31749878890052
    vertex 1.480646055244822 6.386243226369767 24.70543674702525
    vertex 2.503607884424977 5.755860329778161 28.24867492407493
  endloop
endfacet
facet normal 0.942403 -0.332417 -0.0370726
  outer loop
    vertex -6.596644116610212 3.488773596387655 13.18409335783286
    vertex -7.606098514198826 0.9069687377538869 10.67343848502903
    vertex -6.462627649686512 4.271887620692099 9.568944071552078
  endloop
endfacet
facet normal 0.432355 -0.894414 -0.114425
  outer loop
    vertex -4.716676524008776 5.535595875990398 15.59633964806421
    vertex -4.362992190879098 6.174362543698757 11.93975371351062
    vertex -1.643065451336664 7.192598051476646 14.25787137801933
  endloop
endfacet
facet normal 0.00564537 0.990814 -0.13511
  outer loop
    vertex -1.735887707826046 -7.250012423566028 13.2788691472185
    vertex 1.786886665318597 -7.1899857928904 13.86626067671968
    vertex 0.6299602557227716 -7.655027333950314 10.40759556052258
  endloop
endfacet
facet normal 0.0181257 -0.999654 -0.0190397
  outer loop
    vertex -0.8386746035249074 6.294439283748008 27.31749878890052
    vertex -1.934284728565282 6.342546875473884 23.74866573554577
    vertex 1.480646055244822 6.386243226369767 24.70543674702525
  endloop
endfacet
facet normal 0.297436 0.954634 -0.0143156
  outer loop
    vertex -2.70725906225682 -6.410884214039028 19.57934214660574
    vertex -0.4073609428328723 -7.169826309648372 16.75453754794681
    vertex -3.904643289781761 -6.090293208895218 16.079772047813
  endloop
endfacet
facet normal 0.628017 0.778032 -0.0161412
  outer loop
    vertex -4.836216919002166 -6.372915244550931 6.350685992835228
    vertex -3.588391057031389 -7.451370809194668 2.917374447667509
    vertex -6.444006225574707 -5.138923482688467 3.275744402997425
  endloop
endfacet
facet normal 0.736194 -0.666563 -0.1171
  outer loop
    vertex -6.596644116610212 3.488773596387655 13.18409335783286
    vertex -6.462627649686512 4.271887620692099 9.568944071552078
    vertex -4.362992190879098 6.174362543698757 11.93975371351062
  endloop
endfacet
facet normal 0.991551 -0.00241933 -0.129697
  outer loop
    vertex -7.025216711539393 -0.9799328400271684 17.87468400734409
    vertex -6.681079472883119 1.684160984254032 20.45595585170258
    vertex -6.558249528904518 -1.838248862094631 21.4607100632679
  endloop
endfacet
facet normal 0.937374 -0.304571 -0.169013
  outer loop
    vertex -5.824141967962971 2.657763772795721e-14 34
    vertex -5.769058719331797 1.874480806635114 30.92757178232913
    vertex -4.711829829734381 3.423344756026313 34
  endloop
endfacet
facet normal 0.579335 0.797387 -0.168951
  outer loop
    vertex -1.799758845752924 -5.539088170459258 34
    vertex -3.654681253016229 -4.840505862493316 30.93650058636878
    vertex -4.711829829734406 -3.423344756026279 34
  endloop
endfacet
facet normal 0.925138 -0.356875 -0.129459
  outer loop
    vertex -7.606098514198826 0.9069687377538869 10.67343848502903
    vertex -7.68010898001195 2.064205168116835 6.954441669139783
    vertex -6.462627649686512 4.271887620692099 9.568944071552078
  endloop
endfacet
facet normal 0.986467 0.103923 -0.126815
  outer loop
    vertex -7.1011523141935 -2.652643835397247 11.68427442314305
    vertex -7.646777452587115 -1.822268362892256 8.120439607059335
    vertex -7.606098514198826 0.9069687377538869 10.67343848502903
  endloop
endfacet
facet normal 0.937329 0.304557 -0.169291
  outer loop
    vertex -4.711829829734406 -3.423344756026279 34
    vertex -5.772415073429275 -1.861623825717205 30.93731029574472
    vertex -5.824141967962971 2.657763772795721e-14 34
  endloop
endfacet
facet normal -0.0599236 0.985433 -0.159159
  outer loop
    vertex -1.428180607222886 -6.531963956126349 23.04558057301454
    vertex 2.364207891165039 -6.203166261187525 23.65349170240312
    vertex 0.9168792737520196 -6.849293298976127 20.19791347005377
  endloop
endfacet
facet normal 0.450861 0.892361 -0.0203794
  outer loop
    vertex -3.904643289781761 -6.090293208895218 16.079772047813
    vertex -1.735887707826046 -7.250012423566028 13.2788691472185
    vertex -4.971910539373114 -5.631699928622527 12.54882984120274
  endloop
endfacet
facet normal 0.999815 0.00287359 -0.0190028
  outer loop
    vertex -7.646777452587115 -1.822268362892256 8.120439607059335
    vertex -7.68010898001195 2.064205168116835 6.954441669139783
    vertex -7.606098514198826 0.9069687377538869 10.67343848502903
  endloop
endfacet
facet normal 0.38433 -0.922052 -0.0459351
  outer loop
    vertex -4.362992190879098 6.174362543698757 11.93975371351062
    vertex -1.152126752070895 7.580752004924276 10.57407029638978
    vertex -1.643065451336664 7.192598051476646 14.25787137801933
  endloop
endfacet
facet normal -0.0140872 0.999744 -0.0176802
  outer loop
    vertex -1.735887707826046 -7.250012423566028 13.2788691472185
    vertex -0.4073609428328723 -7.169826309648372 16.75453754794681
    vertex 1.786886665318597 -7.1899857928904 13.86626067671968
  endloop
endfacet
facet normal -0.328947 0.944197 -0.0169209
  outer loop
    vertex 1.786886665318597 -7.1899857928904 13.86626067671968
    vertex 4.140412149769135 -6.42316939154982 10.90196206948912
    vertex 0.6299602557227716 -7.655027333950314 10.40759556052258
  endloop
endfacet
facet normal 0.909997 -0.413961 0.023263
  outer loop
    vertex -6.561237375468081 0.8012898319669388 24.01491793675063
    vertex -4.780532273385997 4.665744472675378 23.12504505731264
    vertex -5.523405411128294 3.232735528654882 26.68443326516766
  endloop
endfacet
facet normal -0.309533 0.939908 -0.144091
  outer loop
    vertex 4.140412149769135 -6.42316939154982 10.90196206948912
    vertex 2.9427691195737 -7.34543458285497 7.45875871243528
    vertex 0.6299602557227716 -7.655027333950314 10.40759556052258
  endloop
endfacet
facet normal 0.467741 0.873011 -0.138095
  outer loop
    vertex -1.735887707826046 -7.250012423566028 13.2788691472185
    vertex -3.019032731812436 -7.116847849162045 9.774587904177537
    vertex -4.971910539373114 -5.631699928622527 12.54882984120274
  endloop
endfacet
facet normal 0.316974 0.937624 -0.14279
  outer loop
    vertex -3.904643289781761 -6.090293208895218 16.079772047813
    vertex -0.4073609428328723 -7.169826309648372 16.75453754794681
    vertex -1.735887707826046 -7.250012423566028 13.2788691472185
  endloop
endfacet
facet normal 0.121817 0.992499 -0.0102826
  outer loop
    vertex -1.428180607222886 -6.531963956126349 23.04558057301454
    vertex 0.9168792737520196 -6.849293298976127 20.19791347005377
    vertex -2.70725906225682 -6.410884214039028 19.57934214660574
  endloop
endfacet
facet normal 0.148756 0.98873 -0.016897
  outer loop
    vertex -1.735887707826046 -7.250012423566028 13.2788691472185
    vertex 0.6299602557227716 -7.655027333950314 10.40759556052258
    vertex -3.019032731812436 -7.116847849162045 9.774587904177537
  endloop
endfacet
facet normal 0.999269 0.0271699 -0.0269087
  outer loop
    vertex -6.558249528904518 -1.838248862094631 21.4607100632679
    vertex -6.681079472883119 1.684160984254032 20.45595585170258
    vertex -6.561237375468081 0.8012898319669388 24.01491793675063
  endloop
endfacet
facet normal 0.805867 -0.587059 -0.0770756
  outer loop
    vertex -3.627009804121501 4.99955424096999 29.52123076802367
    vertex -3.487753460651402 4.843103291086681 32.16886398101806
    vertex -5.769058719331797 1.874480806635114 30.92757178232913
  endloop
endfacet
facet normal 0.29291 -0.951252 -0.0965539
  outer loop
    vertex -3.953689499592546 6.774479676197163 8.337781496717792
    vertex -3.7834890414443 7.195843283516483 4.702819658254199
    vertex -0.6790260030830738 7.925047902698382 6.936513840256026
  endloop
endfacet
facet normal 0.886808 -0.440682 -0.139182
  outer loop
    vertex -6.561237375468081 0.8012898319669388 24.01491793675063
    vertex -6.681079472883119 1.684160984254032 20.45595585170258
    vertex -4.780532273385997 4.665744472675378 23.12504505731264
  endloop
endfacet
facet normal -0.40138 0.915906 -0.00314376
  outer loop
    vertex 2.364207891165039 -6.203166261187525 23.65349170240312
    vertex 4.294362488370672 -5.367586187920907 20.65968384610066
    vertex 0.9168792737520196 -6.849293298976127 20.19791347005377
  endloop
endfacet
facet normal -0.750166 -0.657794 -0.0675125
  outer loop
    vertex 5.752841415685747 3.178415925415718 24.49144558197048
    vertex 3.932546777996295 5.491065120749409 22.1848412760579
    vertex 6.086646384397107 3.18554560075069 20.71290316481147
  endloop
endfacet
facet normal 0.143367 0.978804 -0.146249
  outer loop
    vertex 0.9168792737520196 -6.849293298976127 20.19791347005377
    vertex -0.4073609428328723 -7.169826309648372 16.75453754794681
    vertex -2.70725906225682 -6.410884214039028 19.57934214660574
  endloop
endfacet
facet normal 0.329308 0.944089 0.0158912
  outer loop
    vertex -1.799758845752924 -5.539088170459258 34
    vertex -0.1535945546721058 -6.061999744469129 30.95301019860074
    vertex -3.654681253016229 -4.840505862493316 30.93650058636878
  endloop
endfacet
facet normal -2.1888e-15 -0.985614 -0.169013
  outer loop
    vertex -1.799758845752895 5.539088170459268 34
    vertex 1.384054089366486e-14 6.065947312789789 30.92757178232912
    vertex 1.79975884575292 5.53908817045926 34
  endloop
endfacet
facet normal -0.778812 -0.62379 -0.0658608
  outer loop
    vertex 4.540524343744473 5.750601232698511 14.90364386773287
    vertex 6.754312183509096 3.162147375897697 13.24144544677802
    vertex 6.415063074553701 3.195078219278178 16.94120920251655
  endloop
endfacet
facet normal -0.579685 0.797868 -0.165442
  outer loop
    vertex 4.71182982973439 -3.423344756026301 34
    vertex 3.387344658236306 -5.039928256579209 30.84460031687464
    vertex 1.799758845752893 -5.539088170459268 34
  endloop
endfacet
facet normal 0.905575 -0.399251 -0.143294
  outer loop
    vertex -6.574280951499583 4.971315712715366 3.274665941480539
    vertex -8.105974861055468 1.519082583037352 3.213567165129341
    vertex -7.658235377170581 3.688011782499204 0
  endloop
endfacet
facet normal 0.588631 0.808195 -0.0182981
  outer loop
    vertex -3.019032731812436 -7.116847849162045 9.774587904177537
    vertex -6.000880306629123 -4.960987481288726 9.072095348429933
    vertex -4.971910539373114 -5.631699928622527 12.54882984120274
  endloop
endfacet
facet normal -0.973263 -0.216547 -0.0765974
  outer loop
    vertex 7.310729763539098 0 15.11111111111111
    vertex 6.754312183509096 3.162147375897697 13.24144544677802
    vertex 7.608047322654324 0 11.33333333333334
  endloop
endfacet
facet normal -0.185774 0.971396 -0.147914
  outer loop
    vertex -0.4073609428328723 -7.169826309648372 16.75453754794681
    vertex 3.156050839377087 -6.399624409760105 17.33718077095229
    vertex 1.786886665318597 -7.1899857928904 13.86626067671968
  endloop
endfacet
facet normal 0.351694 0.935966 0.0167066
  outer loop
    vertex -0.7380209956221866 -7.922643798200768 6.900179183009435
    vertex -4.836216919002166 -6.372915244550931 6.350685992835228
    vertex -3.019032731812436 -7.116847849162045 9.774587904177537
  endloop
endfacet
facet normal -0.152548 0.988168 -0.0158997
  outer loop
    vertex 2.9427691195737 -7.34543458285497 7.45875871243528
    vertex -0.7380209956221866 -7.922643798200768 6.900179183009435
    vertex 0.6299602557227716 -7.655027333950314 10.40759556052258
  endloop
endfacet
facet normal -0.736252 0.668041 -0.107952
  outer loop
    vertex 3.667895112610734 -5.20763296585281 27.0682099001768
    vertex 5.536042919995292 -2.955122731540205 28.26634817598919
    vertex 5.475380840837731 -3.661835910150386 24.30671061280471
  endloop
endfacet
facet normal -0.787818 -0.611775 -0.071233
  outer loop
    vertex 6.754312183509096 3.162147375897697 13.24144544677802
    vertex 4.804528590520388 5.925297380446386 11.07459690871548
    vertex 7.066931567385803 3.208000323596711 9.390158011229474
  endloop
endfacet
facet normal -0.848668 0.517607 -0.108842
  outer loop
    vertex 6.444006225574763 -5.138923482688389 3.275744402997496
    vertex 5.696514734322212 -5.500873339283286 7.382845184933348
    vertex 7.529294191002149 -2.81120210394181 5.883163074753615
  endloop
endfacet
facet normal -0.225919 -0.963505 -0.143593
  outer loop
    vertex 1.891427938628656 8.286887253545505 0
    vertex 3.641865041359732 7.402101668636771 3.18287360306627
    vertex -1.779665682060718e-14 8.242193324362905 3.275744402997518
  endloop
endfacet
facet normal -0.782832 -0.61679 -0.082115
  outer loop
    vertex 4.540524343744473 5.750601232698511 14.90364386773287
    vertex 4.804528590520388 5.925297380446386 11.07459690871548
    vertex 6.754312183509096 3.162147375897697 13.24144544677802
  endloop
endfacet
facet normal 0.889387 0.436329 -0.13641
  outer loop
    vertex -7.658235377170531 -3.688011782499311 0
    vertex -8.008663784795756 -1.976072329472833 3.19113933091041
    vertex -6.444006225574707 -5.138923482688467 3.275744402997425
  endloop
endfacet
facet normal -0.00474839 -0.998714 -0.0504819
  outer loop
    vertex -1.643065451336664 7.192598051476646 14.25787137801933
    vertex 1.89770706407746 7.251327808192989 12.76293612081339
    vertex 1.396951022609368 7.06511995431279 16.49389921073964
  endloop
endfacet
facet normal -0.331287 -0.940805 -0.0716598
  outer loop
    vertex 4.134424919593665 5.691976638361956 18.61382913409588
    vertex 3.932546777996295 5.491065120749409 22.1848412760579
    vertex 0.3602619030958481 6.880929656689792 20.45248855488847
  endloop
endfacet
facet normal 0.69561 -0.717279 -0.0404601
  outer loop
    vertex -6.462627649686512 4.271887620692099 9.568944071552078
    vertex -3.953689499592546 6.774479676197163 8.337781496717792
    vertex -4.362992190879098 6.174362543698757 11.93975371351062
  endloop
endfacet
facet normal 0.168207 0.975752 -0.140055
  outer loop
    vertex 0.6299602557227716 -7.655027333950314 10.40759556052258
    vertex -0.7380209956221866 -7.922643798200768 6.900179183009435
    vertex -3.019032731812436 -7.116847849162045 9.774587904177537
  endloop
endfacet
facet normal 0.602187 0.784291 -0.149194
  outer loop
    vertex -4.836216919002166 -6.372915244550931 6.350685992835228
    vertex -6.000880306629123 -4.960987481288726 9.072095348429933
    vertex -3.019032731812436 -7.116847849162045 9.774587904177537
  endloop
endfacet
facet normal -0.299301 -0.9387 -0.17106
  outer loop
    vertex 2.503607884424977 5.755860329778161 28.24867492407493
    vertex 3.552889397646881 4.897669466189655 31.12212752650813
    vertex 1.384054089366486e-14 6.065947312789789 30.92757178232912
  endloop
endfacet
facet normal -0.0650236 -0.996119 -0.059316
  outer loop
    vertex -1.152126752070895 7.580752004924276 10.57407029638978
    vertex 2.272352634595493 7.445637170847082 9.089119341205439
    vertex 1.89770706407746 7.251327808192989 12.76293612081339
  endloop
endfacet
facet normal -0.971072 -0.222349 -0.0870632
  outer loop
    vertex 6.415063074553701 3.195078219278178 16.94120920251655
    vertex 6.754312183509096 3.162147375897697 13.24144544677802
    vertex 7.310729763539098 0 15.11111111111111
  endloop
endfacet
facet normal 0.746734 0.65258 -0.12856
  outer loop
    vertex -6.444006225574707 -5.138923482688467 3.275744402997425
    vertex -6.944826570701482 -4.017328755772733 6.060053999731899
    vertex -4.836216919002166 -6.372915244550931 6.350685992835228
  endloop
endfacet
facet normal 0.974828 -0.222498 -0.0143497
  outer loop
    vertex -7.658235377170581 3.688011782499204 0
    vertex -8.105974861055468 1.519082583037352 3.213567165129341
    vertex -8.5 -5.935518276033327e-14 0
  endloop
endfacet
facet normal -0.209628 0.977726 -0.0103957
  outer loop
    vertex 0.9168792737520196 -6.849293298976127 20.19791347005377
    vertex 3.156050839377087 -6.399624409760105 17.33718077095229
    vertex -0.4073609428328723 -7.169826309648372 16.75453754794681
  endloop
endfacet
facet normal -0.0293759 -0.99365 -0.108614
  outer loop
    vertex -1.152126752070895 7.580752004924276 10.57407029638978
    vertex 1.89770706407746 7.251327808192989 12.76293612081339
    vertex -1.643065451336664 7.192598051476646 14.25787137801933
  endloop
endfacet
facet normal -0.433853 -0.900906 -0.0118369
  outer loop
    vertex 5.299663315799225 6.645567600978262 0
    vertex 3.641865041359732 7.402101668636771 3.18287360306627
    vertex 1.891427938628656 8.286887253545505 0
  endloop
endfacet
facet normal 0.357597 -0.926917 -0.113797
  outer loop
    vertex -4.362992190879098 6.174362543698757 11.93975371351062
    vertex -3.953689499592546 6.774479676197163 8.337781496717792
    vertex -1.152126752070895 7.580752004924276 10.57407029638978
  endloop
endfacet
facet normal -0.379312 0.912452 -0.153472
  outer loop
    vertex 4.294362488370672 -5.367586187920907 20.65968384610066
    vertex 3.156050839377087 -6.399624409760105 17.33718077095229
    vertex 0.9168792737520196 -6.849293298976127 20.19791347005377
  endloop
endfacet
facet normal 0.31229 -0.948713 -0.0491795
  outer loop
    vertex -1.152126752070895 7.580752004924276 10.57407029638978
    vertex -3.953689499592546 6.774479676197163 8.337781496717792
    vertex -0.6790260030830738 7.925047902698382 6.936513840256026
  endloop
endfacet
facet normal 0.560542 -0.825251 -0.0689464
  outer loop
    vertex -5.10496535531012 4.773284068976176 19.20017428710256
    vertex -2.562176426224175 6.366222616694229 20.80675075984162
    vertex -4.780532273385997 4.665744472675378 23.12504505731264
  endloop
endfacet
facet normal -0.0845332 -0.990896 -0.104783
  outer loop
    vertex -1.152126752070895 7.580752004924276 10.57407029638978
    vertex -0.6790260030830738 7.925047902698382 6.936513840256026
    vertex 2.272352634595493 7.445637170847082 9.089119341205439
  endloop
endfacet
facet normal 0.930542 0.330552 -0.157564
  outer loop
    vertex -6.315709113883083 -0.452899865519624 27.54797905370382
    vertex -5.048251945217843 -3.746576782739199 28.12356417516154
    vertex -5.954882259546282 -2.687177404096478 24.99168869897893
  endloop
endfacet
facet normal -0.313328 -0.949419 0.0207342
  outer loop
    vertex 1.384054089366486e-14 6.065947312789789 30.92757178232912
    vertex 3.552889397646881 4.897669466189655 31.12212752650813
    vertex 1.79975884575292 5.53908817045926 34
  endloop
endfacet
facet normal -0.556839 0.830126 -0.0286655
  outer loop
    vertex 4.140412149769135 -6.42316939154982 10.90196206948912
    vertex 5.696514734322212 -5.500873339283286 7.382845184933348
    vertex 2.9427691195737 -7.34543458285497 7.45875871243528
  endloop
endfacet
facet normal -0.963036 0.267349 -0.0329625
  outer loop
    vertex 5.475380840837731 -3.661835910150386 24.30671061280471
    vertex 5.536042919995292 -2.955122731540205 28.26634817598919
    vertex 6.418777086193422 0 26.44444444444444
  endloop
endfacet
facet normal -0.627836 -0.77812 -0.0187186
  outer loop
    vertex 6.444006225574744 5.138923482688411 3.275744402997521
    vertex 5.181246504426104 6.080219509446261 6.500613586894442
    vertex 3.641865041359732 7.402101668636771 3.18287360306627
  endloop
endfacet
facet normal 0.990453 0.0284414 -0.134887
  outer loop
    vertex -8.5 -5.935518276033327e-14 0
    vertex -8.105974861055468 1.519082583037352 3.213567165129341
    vertex -8.008663784795756 -1.976072329472833 3.19113933091041
  endloop
endfacet
facet normal -0.981143 0.17719 -0.0772176
  outer loop
    vertex 8.202682440884775 0 3.777777777777779
    vertex 7.529294191002149 -2.81120210394181 5.883163074753615
    vertex 7.905364881769549 0 7.555555555555554
  endloop
endfacet
facet normal -0.978312 -0.192296 -0.0769948
  outer loop
    vertex 7.905364881769549 0 7.555555555555554
    vertex 7.435071963150503 3.040318102023317 5.937957496737063
    vertex 8.202682440884775 0 3.777777777777779
  endloop
endfacet
facet normal -0.954701 0.254175 -0.154729
  outer loop
    vertex 6.716094645308647 0 22.66666666666667
    vertex 6.302909623577471 -2.728728855624712 20.73355971164664
    vertex 5.475380840837731 -3.661835910150386 24.30671061280471
  endloop
endfacet
facet normal -0.619432 -0.77265 -0.138981
  outer loop
    vertex 6.444006225574744 5.138923482688411 3.275744402997521
    vertex 3.641865041359732 7.402101668636771 3.18287360306627
    vertex 5.299663315799225 6.645567600978262 0
  endloop
endfacet
facet normal -0.968054 0.250736 -0.00195946
  outer loop
    vertex 6.010611331640039 -3.885960795502882 17.05955896113544
    vertex 6.302909623577471 -2.728728855624712 20.73355971164664
    vertex 7.013412204423872 0 18.88888888888889
  endloop
endfacet
facet normal 0.802337 0.570441 -0.175649
  outer loop
    vertex -3.654681253016229 -4.840505862493316 30.93650058636878
    vertex -5.048251945217843 -3.746576782739199 28.12356417516154
    vertex -5.772415073429275 -1.861623825717205 30.93731029574472
  endloop
endfacet
facet normal -0.753152 -0.653047 -0.0793191
  outer loop
    vertex 6.086646384397107 3.18554560075069 20.71290316481147
    vertex 3.932546777996295 5.491065120749409 22.1848412760579
    vertex 4.134424919593665 5.691976638361956 18.61382913409588
  endloop
endfacet
facet normal -0.434041 0.893725 -0.113417
  outer loop
    vertex 1.786886665318597 -7.1899857928904 13.86626067671968
    vertex 4.596415345997822 -5.753153167304644 14.43656985584184
    vertex 4.140412149769135 -6.42316939154982 10.90196206948912
  endloop
endfacet
facet normal 0.783418 -0.620007 0.0429805
  outer loop
    vertex -5.769058719331797 1.874480806635114 30.92757178232913
    vertex -3.487753460651402 4.843103291086681 32.16886398101806
    vertex -4.711829829734381 3.423344756026313 34
  endloop
endfacet
facet normal -0.940115 0.305462 -0.151248
  outer loop
    vertex 5.824141967962971 0 34
    vertex 5.372260206942806 -2.766745422024943 31.22102590466052
    vertex 4.71182982973439 -3.423344756026301 34
  endloop
endfacet
facet normal 0.611783 0.777804 -0.144023
  outer loop
    vertex -6.444006225574707 -5.138923482688467 3.275744402997425
    vertex -3.588391057031389 -7.451370809194668 2.917374447667509
    vertex -5.299663315799171 -6.645567600978304 0
  endloop
endfacet
facet normal 0.230767 0.96267 -0.141471
  outer loop
    vertex -1.891427938628608 -8.286887253545515 0
    vertex -3.588391057031389 -7.451370809194668 2.917374447667509
    vertex -0.05366589647803434 -8.237388699657725 3.33457174410232
  endloop
endfacet
facet normal -0.96903 0.234869 -0.0762644
  outer loop
    vertex 6.121459527078197 0 30.22222222222222
    vertex 5.372260206942806 -2.766745422024943 31.22102590466052
    vertex 5.824141967962971 0 34
  endloop
endfacet
facet normal 0.726806 -0.684243 -0.0597073
  outer loop
    vertex -5.523405411128294 3.232735528654882 26.68443326516766
    vertex -3.54816662613143 5.386763009891018 26.04358081030063
    vertex -3.627009804121501 4.99955424096999 29.52123076802367
  endloop
endfacet
facet normal -0.971477 -0.224469 -0.0764569
  outer loop
    vertex 5.824141967962971 0 34
    vertex 5.42630770276162 2.649020189462205 31.27775277534463
    vertex 6.121459527078197 0 30.22222222222222
  endloop
endfacet
facet normal 0.893068 -0.448377 -0.0372612
  outer loop
    vertex -7.68010898001195 2.064205168116835 6.954441669139783
    vertex -6.219601248317179 5.006711640260412 6.551352758539259
    vertex -6.462627649686512 4.271887620692099 9.568944071552078
  endloop
endfacet
facet normal 0.641085 -0.765031 -0.0611291
  outer loop
    vertex -3.7834890414443 7.195843283516483 4.702819658254199
    vertex -6.219601248317179 5.006711640260412 6.551352758539259
    vertex -6.574280951499583 4.971315712715366 3.274665941480539
  endloop
endfacet
facet normal -0.938859 -0.305054 -0.159641
  outer loop
    vertex 4.711829829734397 3.423344756026293 34
    vertex 5.42630770276162 2.649020189462205 31.27775277534463
    vertex 5.824141967962971 0 34
  endloop
endfacet
facet normal -0.77316 0.633301 -0.0339666
  outer loop
    vertex 6.74258411824909 -3.201255101984288 13.1643270699783
    vertex 4.596415345997822 -5.753153167304644 14.43656985584184
    vertex 6.010611331640039 -3.885960795502882 17.05955896113544
  endloop
endfacet
facet normal 0.711291 -0.690833 -0.129677
  outer loop
    vertex -4.780532273385997 4.665744472675378 23.12504505731264
    vertex -3.54816662613143 5.386763009891018 26.04358081030063
    vertex -5.523405411128294 3.232735528654882 26.68443326516766
  endloop
endfacet
facet normal 0.159596 -0.981152 -0.108947
  outer loop
    vertex 0.3602619030958481 6.880929656689792 20.45248855488847
    vertex -2.562176426224175 6.366222616694229 20.80675075984162
    vertex -2.158144106891219 6.755288782163216 17.89477197857496
  endloop
endfacet
facet normal 0.343304 -0.938364 0.0401893
  outer loop
    vertex -1.799758845752895 5.539088170459268 34
    vertex -3.487753460651402 4.843103291086681 32.16886398101806
    vertex 1.384054089366486e-14 6.065947312789789 30.92757178232912
  endloop
endfacet
facet normal 0.229406 -0.968018 -0.101557
  outer loop
    vertex -3.7834890414443 7.195843283516483 4.702819658254199
    vertex -3.608311160118854 7.526779350593546 1.944119484493804
    vertex -1.779665682060718e-14 8.242193324362905 3.275744402997518
  endloop
endfacet
facet normal 0.89637 0.442973 -0.017209
  outer loop
    vertex -8.008663784795756 -1.976072329472833 3.19113933091041
    vertex -6.944826570701482 -4.017328755772733 6.060053999731899
    vertex -6.444006225574707 -5.138923482688467 3.275744402997425
  endloop
endfacet
facet normal 0.642323 -0.764197 -0.0585099
  outer loop
    vertex -3.953689499592546 6.774479676197163 8.337781496717792
    vertex -6.219601248317179 5.006711640260412 6.551352758539259
    vertex -3.7834890414443 7.195843283516483 4.702819658254199
  endloop
endfacet
facet normal 0.638485 -0.767904 -0.0515745
  outer loop
    vertex -6.574280951499583 4.971315712715366 3.274665941480539
    vertex -3.608311160118854 7.526779350593546 1.944119484493804
    vertex -3.7834890414443 7.195843283516483 4.702819658254199
  endloop
endfacet
facet normal 0.749586 0.661871 0.006893
  outer loop
    vertex -5.954882259546282 -2.687177404096478 24.99168869897893
    vertex -5.048251945217843 -3.746576782739199 28.12356417516154
    vertex -3.577542567696281 -5.388226305710225 25.82218115409952
  endloop
endfacet
facet normal -0.983307 -0.16468 -0.0773879
  outer loop
    vertex 8.202682440884775 0 3.777777777777779
    vertex 7.83247328507048 2.699202614433944 2.737886306252843
    vertex 8.5 0 0
  endloop
endfacet
facet normal -0.974764 -0.222484 -0.0183181
  outer loop
    vertex 8.5 0 0
    vertex 7.83247328507048 2.699202614433944 2.737886306252843
    vertex 7.65823537717056 3.68801178249925 0
  endloop
endfacet
facet normal 0.356246 -0.929508 -0.0954167
  outer loop
    vertex -3.627009804121501 4.99955424096999 29.52123076802367
    vertex -3.54816662613143 5.386763009891018 26.04358081030063
    vertex -0.8386746035249074 6.294439283748008 27.31749878890052
  endloop
endfacet
facet normal 0.433877 0.900954 -0.00565212
  outer loop
    vertex -5.299663315799171 -6.645567600978304 0
    vertex -3.588391057031389 -7.451370809194668 2.917374447667509
    vertex -1.891427938628608 -8.286887253545515 0
  endloop
endfacet
facet normal -0.97521 0.193896 -0.106633
  outer loop
    vertex 7.905364881769549 0 7.555555555555554
    vertex 7.529294191002149 -2.81120210394181 5.883163074753615
    vertex 7.06693156738582 -3.208000323596677 9.39015801122946
  endloop
endfacet
facet normal -0.975059 -0.200956 -0.0942187
  outer loop
    vertex 7.066931567385803 3.208000323596711 9.390158011229474
    vertex 7.435071963150503 3.040318102023317 5.937957496737063
    vertex 7.905364881769549 0 7.555555555555554
  endloop
endfacet
facet normal 0.59957 -0.782743 -0.166822
  outer loop
    vertex -5.299663315799259 6.645567600978236 0
    vertex -3.608311160118854 7.526779350593546 1.944119484493804
    vertex -6.574280951499583 4.971315712715366 3.274665941480539
  endloop
endfacet
facet normal 0.74641 0.664995 -0.0255782
  outer loop
    vertex -4.836216919002166 -6.372915244550931 6.350685992835228
    vertex -6.944826570701482 -4.017328755772733 6.060053999731899
    vertex -6.000880306629123 -4.960987481288726 9.072095348429933
  endloop
endfacet
facet normal -0.974737 0.222477 -0.019788
  outer loop
    vertex 7.658235377170568 -3.688011782499232 0
    vertex 7.822716675205658 -2.721785121997104 2.761141787727961
    vertex 8.5 0 0
  endloop
endfacet
facet normal -0.967284 0.242006 -0.0761269
  outer loop
    vertex 6.418777086193422 0 26.44444444444444
    vertex 5.536042919995292 -2.955122731540205 28.26634817598919
    vertex 6.121459527078197 0 30.22222222222222
  endloop
endfacet
facet normal -0.754256 -0.653807 -0.0602876
  outer loop
    vertex 5.752841415685747 3.178415925415718 24.49144558197048
    vertex 3.985517206729819 5.102877821416649 25.73194408513552
    vertex 3.932546777996295 5.491065120749409 22.1848412760579
  endloop
endfacet
facet normal 0.247091 -0.956398 -0.15572
  outer loop
    vertex -1.779665682060718e-14 8.242193324362905 3.275744402997518
    vertex -3.608311160118854 7.526779350593546 1.944119484493804
    vertex -1.89142793862869 8.286887253545498 0
  endloop
endfacet
facet normal -0.983063 0.166136 -0.0773687
  outer loop
    vertex 8.5 0 0
    vertex 7.822716675205658 -2.721785121997104 2.761141787727961
    vertex 8.202682440884775 0 3.777777777777779
  endloop
endfacet
facet normal 0.947494 0.282057 -0.15066
  outer loop
    vertex -8.008663784795756 -1.976072329472833 3.19113933091041
    vertex -8.032609478674857 -0.5606153085488894 5.69048567447738
    vertex -6.944826570701482 -4.017328755772733 6.060053999731899
  endloop
endfacet
facet normal 0.58512 0.810551 0.0253397
  outer loop
    vertex -3.654681253016229 -4.840505862493316 30.93650058636878
    vertex -2.06360942502412 -5.911264474487549 28.44776112095733
    vertex -5.048251945217843 -3.746576782739199 28.12356417516154
  endloop
endfacet
facet normal -0.324464 0.943468 0.0677572
  outer loop
    vertex 0.01945747908572798 -6.418122564542553 26.45238617333767
    vertex 1.596506430591955 -6.035511348926672 28.67670224397801
    vertex 3.667895112610734 -5.20763296585281 27.0682099001768
  endloop
endfacet
facet normal -0.650972 -0.734206 -0.192813
  outer loop
    vertex 2.503607884424977 5.755860329778161 28.24867492407493
    vertex 3.985517206729819 5.102877821416649 25.73194408513552
    vertex 5.416929068369659 3.168211063941273 28.26618588403748
  endloop
endfacet
facet normal -0.578714 -0.796531 -0.175008
  outer loop
    vertex 1.79975884575292 5.53908817045926 34
    vertex 3.552889397646881 4.897669466189655 31.12212752650813
    vertex 4.711829829734397 3.423344756026293 34
  endloop
endfacet
facet normal -0.760104 -0.640747 -0.108097
  outer loop
    vertex 5.416929068369659 3.168211063941273 28.26618588403748
    vertex 5.42630770276162 2.649020189462205 31.27775277534463
    vertex 3.552889397646881 4.897669466189655 31.12212752650813
  endloop
endfacet
facet normal -0.277302 0.93925 -0.202269
  outer loop
    vertex 3.387344658236306 -5.039928256579209 30.84460031687464
    vertex 1.596506430591955 -6.035511348926672 28.67670224397801
    vertex -0.1535945546721058 -6.061999744469129 30.95301019860074
  endloop
endfacet
facet normal -0.743729 0.663244 -0.0835117
  outer loop
    vertex 3.387344658236306 -5.039928256579209 30.84460031687464
    vertex 5.372260206942806 -2.766745422024943 31.22102590466052
    vertex 5.536042919995292 -2.955122731540205 28.26634817598919
  endloop
endfacet
facet normal -0.976311 0.202267 -0.0768374
  outer loop
    vertex 7.013412204423872 0 18.88888888888889
    vertex 6.302909623577471 -2.728728855624712 20.73355971164664
    vertex 6.716094645308647 0 22.66666666666667
  endloop
endfacet
facet normal 0.0316577 0.998852 0.0359627
  outer loop
    vertex -0.1535945546721058 -6.061999744469129 30.95301019860074
    vertex 1.596506430591955 -6.035511348926672 28.67670224397801
    vertex -2.06360942502412 -5.911264474487549 28.44776112095733
  endloop
endfacet
facet normal -0.451123 0.892106 -0.0251879
  outer loop
    vertex 3.156050839377087 -6.399624409760105 17.33718077095229
    vertex 4.596415345997822 -5.753153167304644 14.43656985584184
    vertex 1.786886665318597 -7.1899857928904 13.86626067671968
  endloop
endfacet
facet normal 0.590122 0.786145 -0.183663
  outer loop
    vertex -5.048251945217843 -3.746576782739199 28.12356417516154
    vertex -2.06360942502412 -5.911264474487549 28.44776112095733
    vertex -3.577542567696281 -5.388226305710225 25.82218115409952
  endloop
endfacet
facet normal -0.417395 0.905928 -0.0712397
  outer loop
    vertex 3.667895112610734 -5.20763296585281 27.0682099001768
    vertex 1.596506430591955 -6.035511348926672 28.67670224397801
    vertex 3.387344658236306 -5.039928256579209 30.84460031687464
  endloop
endfacet
facet normal -0.224868 -0.974381 -0.00399548
  outer loop
    vertex 3.641865041359732 7.402101668636771 3.18287360306627
    vertex 2.214042032158214 7.72025520304758 5.95338669192801
    vertex -1.779665682060718e-14 8.242193324362905 3.275744402997518
  endloop
endfacet
facet normal -0.756566 -0.650258 -0.0690844
  outer loop
    vertex 5.416929068369659 3.168211063941273 28.26618588403748
    vertex 3.985517206729819 5.102877821416649 25.73194408513552
    vertex 5.752841415685747 3.178415925415718 24.49144558197048
  endloop
endfacet
facet normal 0.0457775 0.978566 -0.200782
  outer loop
    vertex -2.06360942502412 -5.911264474487549 28.44776112095733
    vertex 1.596506430591955 -6.035511348926672 28.67670224397801
    vertex 0.01945747908572798 -6.418122564542553 26.45238617333767
  endloop
endfacet
facet normal -0.105772 -0.988801 -0.105283
  outer loop
    vertex -1.779665682060718e-14 8.242193324362905 3.275744402997518
    vertex 2.214042032158214 7.72025520304758 5.95338669192801
    vertex -0.6790260030830738 7.925047902698382 6.936513840256026
  endloop
endfacet
facet normal -0.472967 -0.878442 -0.0681362
  outer loop
    vertex 2.272352634595493 7.445637170847082 9.089119341205439
    vertex 2.214042032158214 7.72025520304758 5.95338669192801
    vertex 5.181246504426104 6.080219509446261 6.500613586894442
  endloop
endfacet
facet normal -0.423825 -0.901031 -0.0922777
  outer loop
    vertex 3.932546777996295 5.491065120749409 22.1848412760579
    vertex 3.985517206729819 5.102877821416649 25.73194408513552
    vertex 1.480646055244822 6.386243226369767 24.70543674702525
  endloop
endfacet
facet normal 0.991322 -0.0847319 -0.100506
  outer loop
    vertex -7.68010898001195 2.064205168116835 6.954441669139783
    vertex -8.032609478674857 -0.5606153085488894 5.69048567447738
    vertex -8.105974861055468 1.519082583037352 3.213567165129341
  endloop
endfacet
facet normal 0.669452 -0.732361 -0.124424
  outer loop
    vertex -6.462627649686512 4.271887620692099 9.568944071552078
    vertex -6.219601248317179 5.006711640260412 6.551352758539259
    vertex -3.953689499592546 6.774479676197163 8.337781496717792
  endloop
endfacet
facet normal 0.324132 0.926452 -0.191377
  outer loop
    vertex -0.1535945546721058 -6.061999744469129 30.95301019860074
    vertex -2.06360942502412 -5.911264474487549 28.44776112095733
    vertex -3.654681253016229 -4.840505862493316 30.93650058636878
  endloop
endfacet
facet normal 0.546737 -0.836534 -0.0359094
  outer loop
    vertex -2.158144106891219 6.755288782163216 17.89477197857496
    vertex -2.562176426224175 6.366222616694229 20.80675075984162
    vertex -5.10496535531012 4.773284068976176 19.20017428710256
  endloop
endfacet
facet normal 0.269158 0.962403 0.0365203
  outer loop
    vertex -3.577542567696281 -5.388226305710225 25.82218115409952
    vertex -2.06360942502412 -5.911264474487549 28.44776112095733
    vertex 0.01945747908572798 -6.418122564542553 26.45238617333767
  endloop
endfacet
facet normal -0.979332 -0.174028 -0.103068
  outer loop
    vertex 7.435071963150503 3.040318102023317 5.937957496737063
    vertex 7.83247328507048 2.699202614433944 2.737886306252843
    vertex 8.202682440884775 0 3.777777777777779
  endloop
endfacet
facet normal 0.893631 0.423967 -0.147229
  outer loop
    vertex -6.000880306629123 -4.960987481288726 9.072095348429933
    vertex -6.944826570701482 -4.017328755772733 6.060053999731899
    vertex -7.646777452587115 -1.822268362892256 8.120439607059335
  endloop
endfacet
facet normal -0.981616 0.16968 -0.0873972
  outer loop
    vertex 8.202682440884775 0 3.777777777777779
    vertex 7.822716675205658 -2.721785121997104 2.761141787727961
    vertex 7.529294191002149 -2.81120210394181 5.883163074753615
  endloop
endfacet
facet normal -0.837884 0.543649 -0.0489556
  outer loop
    vertex 7.529294191002149 -2.81120210394181 5.883163074753615
    vertex 5.696514734322212 -5.500873339283286 7.382845184933348
    vertex 7.06693156738582 -3.208000323596677 9.39015801122946
  endloop
endfacet
facet normal -0.459872 -0.877472 -0.136236
  outer loop
    vertex 5.181246504426104 6.080219509446261 6.500613586894442
    vertex 2.214042032158214 7.72025520304758 5.95338669192801
    vertex 3.641865041359732 7.402101668636771 3.18287360306627
  endloop
endfacet
facet normal -0.970179 -0.239354 -0.0382431
  outer loop
    vertex 6.121459527078197 0 30.22222222222222
    vertex 5.42630770276162 2.649020189462205 31.27775277534463
    vertex 5.416929068369659 3.168211063941273 28.26618588403748
  endloop
endfacet
facet normal 0.367603 -0.921507 -0.125274
  outer loop
    vertex -0.8386746035249074 6.294439283748008 27.31749878890052
    vertex -3.54816662613143 5.386763009891018 26.04358081030063
    vertex -1.934284728565282 6.342546875473884 23.74866573554577
  endloop
endfacet
facet normal -0.0990618 -0.991446 -0.0849857
  outer loop
    vertex -0.6790260030830738 7.925047902698382 6.936513840256026
    vertex 2.214042032158214 7.72025520304758 5.95338669192801
    vertex 2.272352634595493 7.445637170847082 9.089119341205439
  endloop
endfacet
facet normal -0.751198 0.659688 -0.0226568
  outer loop
    vertex 4.71182982973439 -3.423344756026301 34
    vertex 5.372260206942806 -2.766745422024943 31.22102590466052
    vertex 3.387344658236306 -5.039928256579209 30.84460031687464
  endloop
endfacet
facet normal -0.445866 -0.894582 -0.0304312
  outer loop
    vertex 1.480646055244822 6.386243226369767 24.70543674702525
    vertex 3.985517206729819 5.102877821416649 25.73194408513552
    vertex 2.503607884424977 5.755860329778161 28.24867492407493
  endloop
endfacet
facet normal 0.999592 0.0278702 -0.00620687
  outer loop
    vertex -8.105974861055468 1.519082583037352 3.213567165129341
    vertex -8.032609478674857 -0.5606153085488894 5.69048567447738
    vertex -8.008663784795756 -1.976072329472833 3.19113933091041
  endloop
endfacet
facet normal 0.953731 0.300624 0.00465168
  outer loop
    vertex -6.944826570701482 -4.017328755772733 6.060053999731899
    vertex -8.032609478674857 -0.5606153085488894 5.69048567447738
    vertex -7.646777452587115 -1.822268362892256 8.120439607059335
  endloop
endfacet
facet normal -0.873222 0.473849 -0.1138
  outer loop
    vertex 6.444006225574763 -5.138923482688389 3.275744402997496
    vertex 7.822716675205658 -2.721785121997104 2.761141787727961
    vertex 7.658235377170568 -3.688011782499232 0
  endloop
endfacet
facet normal -0.874031 -0.472093 -0.114877
  outer loop
    vertex 7.65823537717056 3.68801178249925 0
    vertex 7.83247328507048 2.699202614433944 2.737886306252843
    vertex 6.444006225574744 5.138923482688411 3.275744402997521
  endloop
endfacet
facet normal 0.433677 -0.900539 0.030896
  outer loop
    vertex -1.89142793862869 8.286887253545498 0
    vertex -3.608311160118854 7.526779350593546 1.944119484493804
    vertex -5.299663315799259 6.645567600978236 0
  endloop
endfacet
facet normal 0.572281 -0.787678 -0.228162
  outer loop
    vertex -4.711829829734381 3.423344756026313 34
    vertex -3.487753460651402 4.843103291086681 32.16886398101806
    vertex -1.799758845752895 5.539088170459268 34
  endloop
endfacet
facet normal 0.982681 -0.0454663 -0.179638
  outer loop
    vertex -7.646777452587115 -1.822268362892256 8.120439607059335
    vertex -8.032609478674857 -0.5606153085488894 5.69048567447738
    vertex -7.68010898001195 2.064205168116835 6.954441669139783
  endloop
endfacet
facet normal -0.872788 0.483313 -0.0681864
  outer loop
    vertex 7.529294191002149 -2.81120210394181 5.883163074753615
    vertex 7.822716675205658 -2.721785121997104 2.761141787727961
    vertex 6.444006225574763 -5.138923482688389 3.275744402997496
  endloop
endfacet
facet normal -0.873038 -0.484334 -0.0567902
  outer loop
    vertex 6.444006225574744 5.138923482688411 3.275744402997521
    vertex 7.83247328507048 2.699202614433944 2.737886306252843
    vertex 7.435071963150503 3.040318102023317 5.937957496737063
  endloop
endfacet
facet normal -0.968939 0.23752 -0.0688532
  outer loop
    vertex 5.536042919995292 -2.955122731540205 28.26634817598919
    vertex 5.372260206942806 -2.766745422024943 31.22102590466052
    vertex 6.121459527078197 0 30.22222222222222
  endloop
endfacet
facet normal -0.767503 -0.640758 -0.0191789
  outer loop
    vertex 3.552889397646881 4.897669466189655 31.12212752650813
    vertex 5.42630770276162 2.649020189462205 31.27775277534463
    vertex 4.711829829734397 3.423344756026293 34
  endloop
endfacet
facet normal 0 0 -1
  outer loop
    vertex 0.1880977447303504 -2.35472675594389 34
    vertex -2.60142435345587 -1.083263501849446 34
    vertex 0.1962039992257007 2.019710735726322 34
  endloop
endfacet
facet normal 0 0 -1
  outer loop
    vertex 4.71182982973439 3.423344756026301 34
    vertex 2.921314040345894 -0.04785943145965068 34
    vertex 0.1962039992257007 2.019710735726322 34
  endloop
endfacet
facet normal 0 0 -1
  outer loop
    vertex 0.1880977447303504 -2.35472675594389 34
    vertex 2.921314040345894 -0.04785943145965068 34
    vertex 4.711829829734397 -3.423344756026293 34
  endloop
endfacet
facet normal 0 -0 -1
  outer loop
    vertex 0.1962039992257007 2.019710735726322 34
    vertex 2.921314040345894 -0.04785943145965068 34
    vertex 0.1880977447303504 -2.35472675594389 34
  endloop
endfacet
facet normal 0 0 -1
  outer loop
    vertex 1.79975884575292 -5.53908817045926 34
    vertex 0.1880977447303504 -2.35472675594389 34
    vertex 4.711829829734397 -3.423344756026293 34
  endloop
endfacet
facet normal -0 0 -1
  outer loop
    vertex 4.71182982973439 3.423344756026301 34
    vertex 0.1962039992257007 2.019710735726322 34
    vertex 1.799758845752893 5.539088170459268 34
  endloop
endfacet
facet normal 0 0 -1
  outer loop
    vertex -4.711829829734381 -3.423344756026313 34
    vertex -2.60142435345587 -1.083263501849446 34
    vertex -1.799758845752895 -5.539088170459268 34
  endloop
endfacet
facet normal 0 0 -1
  outer loop
    vertex -1.799758845752895 -5.539088170459268 34
    vertex -2.60142435345587 -1.083263501849446 34
    vertex 0.1880977447303504 -2.35472675594389 34
  endloop
endfacet
facet normal 0 0 -1
  outer loop
    vertex -2.60142435345587 -1.083263501849446 34
    vertex -2.600876329254993 1.770126736345761 34
    vertex 0.1962039992257007 2.019710735726322 34
  endloop
endfacet
facet normal 0 0 -1
  outer loop
    vertex 4.711829829734397 -3.423344756026293 34
    vertex 2.921314040345894 -0.04785943145965068 34
    vertex 5.824141967962971 0 34
  endloop
endfacet
facet normal -0 0 -1
  outer loop
    vertex 5.824141967962971 0 34
    vertex 2.921314040345894 -0.04785943145965068 34
    vertex 4.71182982973439 3.423344756026301 34
  endloop
endfacet
facet normal 0 0 -1
  outer loop
    vertex -1.799758845752895 -5.539088170459268 34
    vertex 0.1880977447303504 -2.35472675594389 34
    vertex 1.79975884575292 -5.53908817045926 34
  endloop
endfacet
facet normal 0 0 -1
  outer loop
    vertex 1.799758845752893 5.539088170459268 34
    vertex 0.1962039992257007 2.019710735726322 34
    vertex -1.799758845752924 5.539088170459258 34
  endloop
endfacet
facet normal -0 0 -1
  outer loop
    vertex 0.1962039992257007 2.019710735726322 34
    vertex -2.600876329254993 1.770126736345761 34
    vertex -1.799758845752924 5.539088170459258 34
  endloop
endfacet
facet normal 0 0 -1
  outer loop
    vertex -1.799758845752924 5.539088170459258 34
    vertex -2.600876329254993 1.770126736345761 34
    vertex -4.711829829734406 3.423344756026279 34
  endloop
endfacet
facet normal 0 -0 -1
  outer loop
    vertex -4.711829829734406 3.423344756026279 34
    vertex -2.600876329254993 1.770126736345761 34
    vertex -5.824141967962971 -2.657763772795721e-14 34
  endloop
endfacet
facet normal 0 0 -1
  outer loop
    vertex -5.824141967962971 -2.657763772795721e-14 34
    vertex -2.60142435345587 -1.083263501849446 34
    vertex -4.711829829734381 -3.423344756026313 34
  endloop
endfacet
facet normal 0 0 -1
  outer loop
    vertex -5.824141967962971 -2.657763772795721e-14 34
    vertex -2.600876329254993 1.770126736345761 34
    vertex -2.60142435345587 -1.083263501849446 34
  endloop
endfacet
endsolid Created by Gmsh
