solid Created by Gmsh
facet normal 0.668822 -0.742802 -0.0303813
  outer loop
    vertex -4.750000000000005 8.227241335952163 0
    vertex -6.473286735471305 6.509365785194667 4.063989575373181
    vertex -7.685661446562003 5.583959896778492 0
  endloop
endfacet
facet normal -0.815704 0.562971 -0.133008
  outer loop
    vertex 5.461117198197214 -6.402611153132769 13.78245308681179
    vertex 7.91906125973544 -2.600784597473736 14.80014709503929
    vertex 7.894431793928342 -3.296738301751947 12.00549819764529
  endloop
endfacet
facet normal 0.992967 -0.108123 -0.0482284
  outer loop
    vertex -7.617651023779833 2.109359941021582 20.27525232472218
    vertex -8.117732817368518 -0.9557844249469908 16.85088825912316
    vertex -7.760286764590314 2.844227552913093 15.69104363188158
  endloop
endfacet
facet normal 0.486042 -0.859665 -0.157286
  outer loop
    vertex -2.437695619855833 8.898554504207736 3.47629694975026
    vertex -6.473286735471305 6.509365785194667 4.063989575373181
    vertex -4.750000000000005 8.227241335952163 0
  endloop
endfacet
facet normal -0.961992 0.271869 0.0256451
  outer loop
    vertex 6.886106106060956 -4.430355983092555 16.66808301269866
    vertex 7.363403262495482 -3.017656480897016 19.59600599523372
    vertex 8.15082788300654 0 17.14285714285714
  endloop
endfacet
facet normal -0.816657 0.560015 -0.139479
  outer loop
    vertex 7.894431793928342 -3.296738301751947 12.00549819764529
    vertex 6.555953853927233 -5.730498953201722 10.07069386883834
    vertex 5.461117198197214 -6.402611153132769 13.78245308681179
  endloop
endfacet
facet normal -0.929058 0.289849 -0.229866
  outer loop
    vertex 8.15082788300654 0 17.14285714285714
    vertex 7.91906125973544 -2.600784597473736 14.80014709503929
    vertex 6.886106106060956 -4.430355983092555 16.66808301269866
  endloop
endfacet
facet normal -0.27551 -0.953538 -0.121898
  outer loop
    vertex 3.964692865411183 7.284764284921271 15.32663644577435
    vertex 0.1426717092163583 8.137853121165172 17.29182732557586
    vertex 1.145913177465226 8.403051352040283 12.949848942743
  endloop
endfacet
facet normal -0.845061 0.531964 0.0537259
  outer loop
    vertex 6.886106106060956 -4.430355983092555 16.66808301269866
    vertex 7.91906125973544 -2.600784597473736 14.80014709503929
    vertex 5.461117198197214 -6.402611153132769 13.78245308681179
  endloop
endfacet
facet normal 0.868551 -0.484419 -0.104679
  outer loop
    vertex -7.760286764590314 2.844227552913093 15.69104363188158
    vertex -6.188385480012876 5.248166951193275 17.60894004872087
    vertex -7.617651023779833 2.109359941021582 20.27525232472218
  endloop
endfacet
facet normal 0.952963 0.282141 -0.110717
  outer loop
    vertex -8.549254438810799 -3.518386061536637 3.24092956308202
    vertex -8.934496827874357 -0.8895818965800071 6.6240729658631
    vertex -7.980156690736186 -4.116677953294077 6.614628152151138
  endloop
endfacet
facet normal 0.855261 0.496555 -0.148198
  outer loop
    vertex -7.613410527820181 -2.060401183773197 20.49148034034082
    vertex -5.559887406040446 -5.592588237044816 20.50749609917552
    vertex -6.821074212885414 -4.496548857489846 16.90150347926121
  endloop
endfacet
facet normal -0.415885 0.902575 -0.111343
  outer loop
    vertex 2.209684902539118 -8.658121206917162 7.170796923874406
    vertex 5.133387389728509 -7.324619038413713 7.059980178160789
    vertex 4.437061039869123 -8.094487501904339 3.420118047276262
  endloop
endfacet
facet normal 0.0977515 -0.994479 -0.0381544
  outer loop
    vertex 1.145913177465226 8.403051352040283 12.949848942743
    vertex 0.1426717092163583 8.137853121165172 17.29182732557586
    vertex -2.571426393213228 7.999575836796839 13.94245799009945
  endloop
endfacet
facet normal -0.648433 0.760383 -0.03678
  outer loop
    vertex 5.133387389728509 -7.324619038413713 7.059980178160789
    vertex 7.337572593986697 -5.633109043976563 3.170102739950362
    vertex 4.437061039869123 -8.094487501904339 3.420118047276262
  endloop
endfacet
facet normal 0.979219 0.198289 -0.0425716
  outer loop
    vertex -9.240102502215295 -0.09488898691621261 3.296120267287073
    vertex -8.934496827874357 -0.8895818965800071 6.6240729658631
    vertex -8.549254438810799 -3.518386061536637 3.24092956308202
  endloop
endfacet
facet normal -0.291667 0.956064 -0.0295364
  outer loop
    vertex 4.437061039869123 -8.094487501904339 3.420118047276262
    vertex 0.8597078611935903 -9.182702070404229 3.521419388800297
    vertex 2.209684902539118 -8.658121206917162 7.170796923874406
  endloop
endfacet
facet normal 0.384691 0.914379 -0.126188
  outer loop
    vertex -2.867622820732327 -8.784952928407044 3.289134966322258
    vertex -5.190248895205816 -7.277507116501817 7.131683024077127
    vertex -1.575211376519722 -8.799437729398257 7.124148151852918
  endloop
endfacet
facet normal 0.938821 0.343435 -0.0258487
  outer loop
    vertex -6.821074212885414 -4.496548857489846 16.90150347926121
    vertex -8.117732817368518 -0.9557844249469908 16.85088825912316
    vertex -7.613410527820181 -2.060401183773197 20.49148034034082
  endloop
endfacet
facet normal 0.981235 0.191193 -0.0249598
  outer loop
    vertex -8.492588501887083 0.4218824767598406 12.66731259990467
    vertex -8.117732817368518 -0.9557844249469908 16.85088825912316
    vertex -7.723703798291056 -3.45436377513838 13.20196563340996
  endloop
endfacet
facet normal -0.24944 0.956584 -0.150751
  outer loop
    vertex 0.06283085244624688 -8.140676700835543 17.2687593327808
    vertex 3.931420537732697 -7.124476260438451 17.31585530056376
    vertex 2.077408692162531 -8.144302342199426 13.9123398905829
  endloop
endfacet
facet normal 0.990264 -0.00620413 -0.139061
  outer loop
    vertex -7.613410527820181 -2.060401183773197 20.49148034034082
    vertex -8.117732817368518 -0.9557844249469908 16.85088825912316
    vertex -7.617651023779833 2.109359941021582 20.27525232472218
  endloop
endfacet
facet normal 0.501481 0.86442 -0.0359953
  outer loop
    vertex -6.176610047658145 -6.859820418148887 3.420524623648447
    vertex -5.190248895205816 -7.277507116501817 7.131683024077127
    vertex -2.867622820732327 -8.784952928407044 3.289134966322258
  endloop
endfacet
facet normal -0.713849 0.692638 -0.103307
  outer loop
    vertex 5.133387389728509 -7.324619038413713 7.059980178160789
    vertex 7.473687650534999 -4.941119909700733 6.869098585655596
    vertex 7.337572593986697 -5.633109043976563 3.170102739950362
  endloop
endfacet
facet normal 0.241963 -0.957575 -0.156537
  outer loop
    vertex 0.1426717092163583 8.137853121165172 17.29182732557586
    vertex -4.020381251434215 7.065550775249125 17.41643025405672
    vertex -2.571426393213228 7.999575836796839 13.94245799009945
  endloop
endfacet
facet normal -0.675195 0.737536 -0.012315
  outer loop
    vertex 5.569522663595344 -5.569522663595326 20.62859344101679
    vertex 6.886106106060956 -4.430355983092555 16.66808301269866
    vertex 3.931420537732697 -7.124476260438451 17.31585530056376
  endloop
endfacet
facet normal 0.50961 -0.860404 0.00155079
  outer loop
    vertex -4.089557169396532 7.927189591870158 7.370729300564058
    vertex -6.473286735471305 6.509365785194667 4.063989575373181
    vertex -2.437695619855833 8.898554504207736 3.47629694975026
  endloop
endfacet
facet normal 0.830453 -0.543096 -0.124074
  outer loop
    vertex -6.473286735471305 6.509365785194667 4.063989575373181
    vertex -8.511192550270028 3.78942706956453 2.329553811743754
    vertex -7.685661446562003 5.583959896778492 0
  endloop
endfacet
facet normal 0.864517 0.5026 -0.00181553
  outer loop
    vertex -6.591457077600601 -3.805579518104599 24
    vertex -5.559887406040446 -5.592588237044816 20.50749609917552
    vertex -7.613410527820181 -2.060401183773197 20.49148034034082
  endloop
endfacet
facet normal -0.0354055 0.990967 -0.12935
  outer loop
    vertex 2.209684902539118 -8.658121206917162 7.170796923874406
    vertex 0.8597078611935903 -9.182702070404229 3.521419388800297
    vertex -1.575211376519722 -8.799437729398257 7.124148151852918
  endloop
endfacet
facet normal -0.458103 0.888741 -0.0167567
  outer loop
    vertex 2.077408692162531 -8.144302342199426 13.9123398905829
    vertex 3.931420537732697 -7.124476260438451 17.31585530056376
    vertex 5.461117198197214 -6.402611153132769 13.78245308681179
  endloop
endfacet
facet normal 0.982382 -0.132602 -0.131689
  outer loop
    vertex -7.760286764590314 2.844227552913093 15.69104363188158
    vertex -8.117732817368518 -0.9557844249469908 16.85088825912316
    vertex -8.492588501887083 0.4218824767598406 12.66731259990467
  endloop
endfacet
facet normal 0.698978 0.698978 -0.151191
  outer loop
    vertex -3.805579518104564 -6.591457077600621 24
    vertex -5.559887406040446 -5.592588237044816 20.50749609917552
    vertex -6.591457077600601 -3.805579518104599 24
  endloop
endfacet
facet normal -0.254019 0.967193 -0.00350201
  outer loop
    vertex 2.091655411550636 -7.595761407999946 20.60323074571306
    vertex 3.931420537732697 -7.124476260438451 17.31585530056376
    vertex 0.06283085244624688 -8.140676700835543 17.2687593327808
  endloop
endfacet
facet normal -0.0124767 0.988013 -0.153868
  outer loop
    vertex 2.091655411550636 -7.595761407999946 20.60323074571306
    vertex 0.06283085244624688 -8.140676700835543 17.2687593327808
    vertex -1.892055021370217 -7.649939340087691 20.57837265120574
  endloop
endfacet
facet normal 0.108065 0.993607 -0.0326654
  outer loop
    vertex 0.8597078611935903 -9.182702070404229 3.521419388800297
    vertex -2.867622820732327 -8.784952928407044 3.289134966322258
    vertex -1.575211376519722 -8.799437729398257 7.124148151852918
  endloop
endfacet
facet normal -0.0135746 0.999901 -0.00382639
  outer loop
    vertex 1.21219871770089e-14 -7.611159036209155 24
    vertex 2.091655411550636 -7.595761407999946 20.60323074571306
    vertex -1.892055021370217 -7.649939340087691 20.57837265120574
  endloop
endfacet
facet normal 0.931443 0.33922 -0.131697
  outer loop
    vertex -7.723703798291056 -3.45436377513838 13.20196563340996
    vertex -8.117732817368518 -0.9557844249469908 16.85088825912316
    vertex -6.821074212885414 -4.496548857489846 16.90150347926121
  endloop
endfacet
facet normal 0.490925 -0.871172 0.00721259
  outer loop
    vertex -5.569522663595365 5.569522663595306 20.62859344101679
    vertex -1.863343390480156 7.657563548586442 20.57121077067096
    vertex -3.805579518104614 6.591457077600591 24
  endloop
endfacet
facet normal 0.249727 -0.968254 0.0109512
  outer loop
    vertex -1.863343390480156 7.657563548586442 20.57121077067096
    vertex -4.020381251434215 7.065550775249125 17.41643025405672
    vertex 0.1426717092163583 8.137853121165172 17.29182732557586
  endloop
endfacet
facet normal 0.860775 -0.508958 -0.00537403
  outer loop
    vertex -6.591457077600632 3.805579518104545 24
    vertex -7.617651023779833 2.109359941021582 20.27525232472218
    vertex -5.569522663595365 5.569522663595306 20.62859344101679
  endloop
endfacet
facet normal 0.240023 -0.960927 -0.13787
  outer loop
    vertex -2.437695619855833 8.898554504207736 3.47629694975026
    vertex -0.3504306176717525 8.9761513871613 6.569244809888332
    vertex -4.089557169396532 7.927189591870158 7.370729300564058
  endloop
endfacet
facet normal -0.291896 0.947248 -0.132358
  outer loop
    vertex 2.935661446562007 -9.035036904803956 0
    vertex 0.8597078611935903 -9.182702070404229 3.521419388800297
    vertex 4.437061039869123 -8.094487501904339 3.420118047276262
  endloop
endfacet
facet normal 0.753858 0.644483 -0.127826
  outer loop
    vertex -7.980156690736186 -4.116677953294077 6.614628152151138
    vertex -5.190248895205816 -7.277507116501817 7.131683024077127
    vertex -6.176610047658145 -6.859820418148887 3.420524623648447
  endloop
endfacet
facet normal -0.834611 0.53693 -0.12301
  outer loop
    vertex 5.569522663595344 -5.569522663595326 20.62859344101679
    vertex 7.363403262495482 -3.017656480897016 19.59600599523372
    vertex 6.886106106060956 -4.430355983092555 16.66808301269866
  endloop
endfacet
facet normal -0.978238 0.192674 -0.076989
  outer loop
    vertex 8.15082788300654 0 17.14285714285714
    vertex 7.363403262495482 -3.017656480897016 19.59600599523372
    vertex 7.880993459607848 0 20.57142857142857
  endloop
endfacet
facet normal -0.832699 0.544389 -0.101255
  outer loop
    vertex 5.569522663595344 -5.569522663595326 20.62859344101679
    vertex 7.294433604509048 -2.691955279472583 21.91431389167638
    vertex 7.363403262495482 -3.017656480897016 19.59600599523372
  endloop
endfacet
facet normal -0.683909 0.713934 -0.150226
  outer loop
    vertex 3.931420537732697 -7.124476260438451 17.31585530056376
    vertex 6.886106106060956 -4.430355983092555 16.66808301269866
    vertex 5.461117198197214 -6.402611153132769 13.78245308681179
  endloop
endfacet
facet normal -0.257017 -0.962934 -0.0818529
  outer loop
    vertex 3.964692865411183 7.284764284921271 15.32663644577435
    vertex 3.911909807114678 7.0352348058825 18.4278900020041
    vertex 0.1426717092163583 8.137853121165172 17.29182732557586
  endloop
endfacet
facet normal -0.104508 0.994325 -0.0199142
  outer loop
    vertex -0.9930204010426985 -9.447958005998597 0
    vertex 0.8597078611935903 -9.182702070404229 3.521419388800297
    vertex 2.935661446562007 -9.035036904803956 0
  endloop
endfacet
facet normal -0.609216 0.792176 -0.0362525
  outer loop
    vertex 5.461117198197214 -6.402611153132769 13.78245308681179
    vertex 6.555953853927233 -5.730498953201722 10.07069386883834
    vertex 3.93192121755756 -7.726273994031757 10.55610555897748
  endloop
endfacet
facet normal 0.48189 -0.859954 -0.168111
  outer loop
    vertex -5.569522663595365 5.569522663595306 20.62859344101679
    vertex -4.020381251434215 7.065550775249125 17.41643025405672
    vertex -1.863343390480156 7.657563548586442 20.57121077067096
  endloop
endfacet
facet normal -0.698881 -0.698881 -0.152087
  outer loop
    vertex 3.805579518104563 6.591457077600622 24
    vertex 5.422708943143483 5.717105151457908 20.58674162286158
    vertex 6.591457077600609 3.805579518104584 24
  endloop
endfacet
facet normal 0.859446 -0.496125 -0.123341
  outer loop
    vertex -7.617651023779833 2.109359941021582 20.27525232472218
    vertex -6.188385480012876 5.248166951193275 17.60894004872087
    vertex -5.569522663595365 5.569522663595306 20.62859344101679
  endloop
endfacet
facet normal 0.489154 0.872189 0.0037441
  outer loop
    vertex -1.892055021370217 -7.649939340087691 20.57837265120574
    vertex -5.559887406040446 -5.592588237044816 20.50749609917552
    vertex -3.805579518104564 -6.591457077600621 24
  endloop
endfacet
facet normal -0.457277 0.877695 -0.143353
  outer loop
    vertex 2.077408692162531 -8.144302342199426 13.9123398905829
    vertex 5.461117198197214 -6.402611153132769 13.78245308681179
    vertex 3.93192121755756 -7.726273994031757 10.55610555897748
  endloop
endfacet
facet normal -0.255765 0.954528 -0.153168
  outer loop
    vertex 3.805579518104584 -6.591457077600609 24
    vertex 2.091655411550636 -7.595761407999946 20.60323074571306
    vertex 1.21219871770089e-14 -7.611159036209155 24
  endloop
endfacet
facet normal -0.487854 -0.872893 -0.00753192
  outer loop
    vertex 2.038586781829041 7.608109445424406 20.62859344101678
    vertex 5.422708943143483 5.717105151457908 20.58674162286158
    vertex 3.805579518104563 6.591457077600622 24
  endloop
endfacet
facet normal 0.255814 -0.954711 -0.151941
  outer loop
    vertex -3.805579518104614 6.591457077600591 24
    vertex -1.863343390480156 7.657563548586442 20.57121077067096
    vertex -2.995425334432484e-14 7.611159036209155 24
  endloop
endfacet
facet normal -0.365308 -0.922108 -0.127543
  outer loop
    vertex 2.263483242682246 8.479094413509344 9.199131184108737
    vertex 4.745178946612846 7.141851833762774 11.75905857004936
    vertex 1.145913177465226 8.403051352040283 12.949848942743
  endloop
endfacet
facet normal 0.955482 -0.256021 -0.146652
  outer loop
    vertex -7.611159036209155 -2.948820426675009e-14 24
    vertex -7.617651023779833 2.109359941021582 20.27525232472218
    vertex -6.591457077600632 3.805579518104545 24
  endloop
endfacet
facet normal -0.698696 0.698696 -0.153775
  outer loop
    vertex 6.591457077600618 -3.805579518104569 24
    vertex 5.569522663595344 -5.569522663595326 20.62859344101679
    vertex 3.805579518104584 -6.591457077600609 24
  endloop
endfacet
facet normal 0.072667 -0.988872 -0.129817
  outer loop
    vertex -1.475986510932838 8.570632227473343 10.20566548842242
    vertex 1.145913177465226 8.403051352040283 12.949848942743
    vertex -2.571426393213228 7.999575836796839 13.94245799009945
  endloop
endfacet
facet normal -0.243721 0.969746 -0.013885
  outer loop
    vertex 2.077408692162531 -8.144302342199426 13.9123398905829
    vertex 3.93192121755756 -7.726273994031757 10.55610555897748
    vertex 0.1909991358451073 -8.666312306581357 10.56626650680896
  endloop
endfacet
facet normal -0.0160828 0.999813 -0.0107332
  outer loop
    vertex 0.06283085244624688 -8.140676700835543 17.2687593327808
    vertex 2.077408692162531 -8.144302342199426 13.9123398905829
    vertex -1.835978286786604 -8.208043328632581 13.8386654095511
  endloop
endfacet
facet normal 0.228098 0.97359 -0.00962976
  outer loop
    vertex 0.06283085244624688 -8.140676700835543 17.2687593327808
    vertex -3.722290378574083 -7.2556098543897 17.09351081938632
    vertex -1.892055021370217 -7.649939340087691 20.57837265120574
  endloop
endfacet
facet normal -0.417016 -0.906266 -0.0691389
  outer loop
    vertex 2.263483242682246 8.479094413509344 9.199131184108737
    vertex 5.056795973496377 7.275095422523092 8.13297568312939
    vertex 4.745178946612846 7.141851833762774 11.75905857004936
  endloop
endfacet
facet normal -0.415876 0.908605 -0.0385326
  outer loop
    vertex 3.93192121755756 -7.726273994031757 10.55610555897748
    vertex 5.133387389728509 -7.324619038413713 7.059980178160789
    vertex 2.209684902539118 -8.658121206917162 7.170796923874406
  endloop
endfacet
facet normal -0.499913 0.865875 -0.0186627
  outer loop
    vertex 2.935661446562007 -9.035036904803956 0
    vertex 4.437061039869123 -8.094487501904339 3.420118047276262
    vertex 6.356740760409149 -7.059875842035249 0
  endloop
endfacet
facet normal -0.503396 0.864055 -0.00146953
  outer loop
    vertex 5.569522663595344 -5.569522663595326 20.62859344101679
    vertex 2.091655411550636 -7.595761407999946 20.60323074571306
    vertex 3.805579518104584 -6.591457077600609 24
  endloop
endfacet
facet normal -0.499958 -0.865953 -0.0129129
  outer loop
    vertex 6.356740760409149 7.059875842035249 0
    vertex 4.536404332088619 8.063923095807658 3.146801853279428
    vertex 2.935661446561997 9.03503690480396 0
  endloop
endfacet
facet normal -0.255741 -0.954437 -0.153775
  outer loop
    vertex -2.995425334432484e-14 7.611159036209155 24
    vertex 2.038586781829041 7.608109445424406 20.62859344101678
    vertex 3.805579518104563 6.591457077600622 24
  endloop
endfacet
facet normal -0.855328 0.517954 -0.0117319
  outer loop
    vertex 6.591457077600618 -3.805579518104569 24
    vertex 7.294433604509048 -2.691955279472583 21.91431389167638
    vertex 5.569522663595344 -5.569522663595326 20.62859344101679
  endloop
endfacet
facet normal 0.364751 -0.922416 -0.126909
  outer loop
    vertex -4.089557169396532 7.927189591870158 7.370729300564058
    vertex -1.475986510932838 8.570632227473343 10.20566548842242
    vertex -4.929870606986445 7.072302142979778 11.16916605462248
  endloop
endfacet
facet normal -0.341361 -0.939202 -0.037057
  outer loop
    vertex 4.745178946612846 7.141851833762774 11.75905857004936
    vertex 3.964692865411183 7.284764284921271 15.32663644577435
    vertex 1.145913177465226 8.403051352040283 12.949848942743
  endloop
endfacet
facet normal -0.0325144 -0.999023 -0.0299425
  outer loop
    vertex -1.475986510932838 8.570632227473343 10.20566548842242
    vertex 2.263483242682246 8.479094413509344 9.199131184108737
    vertex 1.145913177465226 8.403051352040283 12.949848942743
  endloop
endfacet
facet normal -0.0125745 -0.999898 -0.00669894
  outer loop
    vertex -2.995425334432484e-14 7.611159036209155 24
    vertex -1.863343390480156 7.657563548586442 20.57121077067096
    vertex 2.038586781829041 7.608109445424406 20.62859344101678
  endloop
endfacet
facet normal 0.391804 -0.91969 -0.0256896
  outer loop
    vertex -1.475986510932838 8.570632227473343 10.20566548842242
    vertex -2.571426393213228 7.999575836796839 13.94245799009945
    vertex -4.929870606986445 7.072302142979778 11.16916605462248
  endloop
endfacet
facet normal -0.0103064 -0.988469 -0.151073
  outer loop
    vertex -1.863343390480156 7.657563548586442 20.57121077067096
    vertex 0.1426717092163583 8.137853121165172 17.29182732557586
    vertex 2.038586781829041 7.608109445424406 20.62859344101678
  endloop
endfacet
facet normal -0.0133468 0.989079 -0.146779
  outer loop
    vertex 2.077408692162531 -8.144302342199426 13.9123398905829
    vertex 0.1909991358451073 -8.666312306581357 10.56626650680896
    vertex -1.835978286786604 -8.208043328632581 13.8386654095511
  endloop
endfacet
facet normal 0.231662 0.961606 -0.147128
  outer loop
    vertex 0.06283085244624688 -8.140676700835543 17.2687593327808
    vertex -1.835978286786604 -8.208043328632581 13.8386654095511
    vertex -3.722290378574083 -7.2556098543897 17.09351081938632
  endloop
endfacet
facet normal 0.264954 -0.963924 -0.0254838
  outer loop
    vertex -4.089557169396532 7.927189591870158 7.370729300564058
    vertex -0.3504306176717525 8.9761513871613 6.569244809888332
    vertex -1.475986510932838 8.570632227473343 10.20566548842242
  endloop
endfacet
facet normal 0.729762 -0.670087 -0.135758
  outer loop
    vertex -7.03800746201772 5.3646845956469 8.265573126296426
    vertex -4.929870606986445 7.072302142979778 11.16916605462248
    vertex -7.514198997210118 4.096481660822698 11.9655445896319
  endloop
endfacet
facet normal -0.496443 0.854047 -0.155394
  outer loop
    vertex 5.569522663595344 -5.569522663595326 20.62859344101679
    vertex 3.931420537732697 -7.124476260438451 17.31585530056376
    vertex 2.091655411550636 -7.595761407999946 20.60323074571306
  endloop
endfacet
facet normal 0.651124 -0.758503 -0.0266653
  outer loop
    vertex -7.03800746201772 5.3646845956469 8.265573126296426
    vertex -4.089557169396532 7.927189591870158 7.370729300564058
    vertex -4.929870606986445 7.072302142979778 11.16916605462248
  endloop
endfacet
facet normal 0.485412 0.859959 -0.157628
  outer loop
    vertex -3.722290378574083 -7.2556098543897 17.09351081938632
    vertex -5.559887406040446 -5.592588237044816 20.50749609917552
    vertex -1.892055021370217 -7.649939340087691 20.57837265120574
  endloop
endfacet
facet normal 0.0586864 -0.989511 -0.131996
  outer loop
    vertex -0.9930204010427108 9.447958005998597 0
    vertex 1.306027806686993 9.152558799986927 3.236635146004829
    vertex -2.437695619855833 8.898554504207736 3.47629694975026
  endloop
endfacet
facet normal 0.308943 -0.950829 -0.0218814
  outer loop
    vertex -0.9930204010427108 9.447958005998597 0
    vertex -2.437695619855833 8.898554504207736 3.47629694975026
    vertex -4.750000000000005 8.227241335952163 0
  endloop
endfacet
facet normal 0.999874 0 -0.0158651
  outer loop
    vertex -9.292402206971154 1.975161062768714 0
    vertex -9.240102502215295 -0.09488898691621261 3.296120267287073
    vertex -9.292402206971154 -1.975161062768711 0
  endloop
endfacet
facet normal 0.669022 0.743024 -0.018007
  outer loop
    vertex -7.685661446561999 -5.583959896778497 0
    vertex -6.176610047658145 -6.859820418148887 3.420524623648447
    vertex -4.749999999999989 -8.227241335952172 0
  endloop
endfacet
facet normal 0.964894 -0.261526 -0.0241709
  outer loop
    vertex -7.514198997210118 4.096481660822698 11.9655445896319
    vertex -7.760286764590314 2.844227552913093 15.69104363188158
    vertex -8.492588501887083 0.4218824767598406 12.66731259990467
  endloop
endfacet
facet normal -0.241623 0.960022 -0.141335
  outer loop
    vertex 3.93192121755756 -7.726273994031757 10.55610555897748
    vertex 2.209684902539118 -8.658121206917162 7.170796923874406
    vertex 0.1909991358451073 -8.666312306581357 10.56626650680896
  endloop
endfacet
facet normal 0.95487 0.255857 -0.150866
  outer loop
    vertex -6.591457077600601 -3.805579518104599 24
    vertex -7.613410527820181 -2.060401183773197 20.49148034034082
    vertex -7.611159036209155 -2.948820426675009e-14 24
  endloop
endfacet
facet normal 0.698696 -0.698696 -0.153775
  outer loop
    vertex -6.591457077600632 3.805579518104545 24
    vertex -5.569522663595365 5.569522663595306 20.62859344101679
    vertex -3.805579518104614 6.591457077600591 24
  endloop
endfacet
facet normal 0.255801 0.954662 -0.15227
  outer loop
    vertex 1.21219871770089e-14 -7.611159036209155 24
    vertex -1.892055021370217 -7.649939340087691 20.57837265120574
    vertex -3.805579518104564 -6.591457077600621 24
  endloop
endfacet
facet normal 0.999999 0.000954615 -0.00120232
  outer loop
    vertex -7.613410527820181 -2.060401183773197 20.49148034034082
    vertex -7.617651023779833 2.109359941021582 20.27525232472218
    vertex -7.611159036209155 -2.948820426675009e-14 24
  endloop
endfacet
facet normal 0.950726 -0.27897 -0.135263
  outer loop
    vertex -8.593376292934929 1.857499160947297 8.998048593187942
    vertex -7.514198997210118 4.096481660822698 11.9655445896319
    vertex -8.492588501887083 0.4218824767598406 12.66731259990467
  endloop
endfacet
facet normal 0.912118 -0.409289 -0.022897
  outer loop
    vertex -8.593376292934929 1.857499160947297 8.998048593187942
    vertex -7.03800746201772 5.3646845956469 8.265573126296426
    vertex -7.514198997210118 4.096481660822698 11.9655445896319
  endloop
endfacet
facet normal 0.815744 0.57734 -0.0352195
  outer loop
    vertex -6.176610047658145 -6.859820418148887 3.420524623648447
    vertex -8.549254438810799 -3.518386061536637 3.24092956308202
    vertex -7.980156690736186 -4.116677953294077 6.614628152151138
  endloop
endfacet
facet normal 0.974855 0.174203 -0.138961
  outer loop
    vertex -8.455834329757769 -2.226568175771622 9.6050159582585
    vertex -8.492588501887083 0.4218824767598406 12.66731259990467
    vertex -7.723703798291056 -3.45436377513838 13.20196563340996
  endloop
endfacet
facet normal 0.999392 0.0314035 -0.0151647
  outer loop
    vertex -8.455834329757769 -2.226568175771622 9.6050159582585
    vertex -8.593376292934929 1.857499160947297 8.998048593187942
    vertex -8.492588501887083 0.4218824767598406 12.66731259990467
  endloop
endfacet
facet normal 0.43538 0.900178 -0.0110902
  outer loop
    vertex -1.835978286786604 -8.208043328632581 13.8386654095511
    vertex -5.359523649606351 -6.506823668071696 13.5968840734463
    vertex -3.722290378574083 -7.2556098543897 17.09351081938632
  endloop
endfacet
facet normal 0.885188 0.443768 -0.139683
  outer loop
    vertex -6.732941333518671 -5.52460306544585 10.04546005336722
    vertex -7.980156690736186 -4.116677953294077 6.614628152151138
    vertex -8.455834329757769 -2.226568175771622 9.6050159582585
  endloop
endfacet
facet normal 0.791419 0.594648 -0.141598
  outer loop
    vertex -5.359523649606351 -6.506823668071696 13.5968840734463
    vertex -6.732941333518671 -5.52460306544585 10.04546005336722
    vertex -7.723703798291056 -3.45436377513838 13.20196563340996
  endloop
endfacet
facet normal 0.887383 0.460437 -0.0234526
  outer loop
    vertex -6.732941333518671 -5.52460306544585 10.04546005336722
    vertex -8.455834329757769 -2.226568175771622 9.6050159582585
    vertex -7.723703798291056 -3.45436377513838 13.20196563340996
  endloop
endfacet
facet normal 0.629083 -0.767304 -0.124492
  outer loop
    vertex -7.03800746201772 5.3646845956469 8.265573126296426
    vertex -6.473286735471305 6.509365785194667 4.063989575373181
    vertex -4.089557169396532 7.927189591870158 7.370729300564058
  endloop
endfacet
facet normal 0.662414 0.733321 -0.153126
  outer loop
    vertex -5.359523649606351 -6.506823668071696 13.5968840734463
    vertex -6.821074212885414 -4.496548857489846 16.90150347926121
    vertex -3.722290378574083 -7.2556098543897 17.09351081938632
  endloop
endfacet
facet normal 0.791748 0.61048 -0.021198
  outer loop
    vertex -5.359523649606351 -6.506823668071696 13.5968840734463
    vertex -7.723703798291056 -3.45436377513838 13.20196563340996
    vertex -6.821074212885414 -4.496548857489846 16.90150347926121
  endloop
endfacet
facet normal -0.833526 -0.540907 -0.112491
  outer loop
    vertex 5.422708943143483 5.717105151457908 20.58674162286158
    vertex 6.095624022068141 5.430441712845341 16.97904323634562
    vertex 7.45607903620161 2.955593593527097 18.7986494380464
  endloop
endfacet
facet normal 0.196982 0.970559 -0.138612
  outer loop
    vertex -1.575211376519722 -8.799437729398257 7.124148151852918
    vertex -3.525592595382554 -7.929807245765518 10.44159970328055
    vertex 0.1909991358451073 -8.666312306581357 10.56626650680896
  endloop
endfacet
facet normal 0.665167 0.746673 -0.00568966
  outer loop
    vertex -6.821074212885414 -4.496548857489846 16.90150347926121
    vertex -5.559887406040446 -5.592588237044816 20.50749609917552
    vertex -3.722290378574083 -7.2556098543897 17.09351081938632
  endloop
endfacet
facet normal -0.0588502 -0.989947 -0.12861
  outer loop
    vertex -1.475986510932838 8.570632227473343 10.20566548842242
    vertex -0.3504306176717525 8.9761513871613 6.569244809888332
    vertex 2.263483242682246 8.479094413509344 9.199131184108737
  endloop
endfacet
facet normal 0.895882 -0.424615 -0.130759
  outer loop
    vertex -8.593376292934929 1.857499160947297 8.998048593187942
    vertex -8.52259929207573 3.126642847475403 5.361661351114936
    vertex -7.03800746201772 5.3646845956469 8.265573126296426
  endloop
endfacet
facet normal 0.0664178 -0.997596 -0.0197938
  outer loop
    vertex -2.437695619855833 8.898554504207736 3.47629694975026
    vertex 1.306027806686993 9.152558799986927 3.236635146004829
    vertex -0.3504306176717525 8.9761513871613 6.569244809888332
  endloop
endfacet
facet normal -0.0370622 0.99912 -0.0196241
  outer loop
    vertex 2.209684902539118 -8.658121206917162 7.170796923874406
    vertex -1.575211376519722 -8.799437729398257 7.124148151852918
    vertex 0.1909991358451073 -8.666312306581357 10.56626650680896
  endloop
endfacet
facet normal 0.749812 0.66165 -0.00105645
  outer loop
    vertex -6.732941333518671 -5.52460306544585 10.04546005336722
    vertex -5.190248895205816 -7.277507116501817 7.131683024077127
    vertex -7.980156690736186 -4.116677953294077 6.614628152151138
  endloop
endfacet
facet normal 0.600804 0.799317 -0.0112769
  outer loop
    vertex -5.359523649606351 -6.506823668071696 13.5968840734463
    vertex -3.525592595382554 -7.929807245765518 10.44159970328055
    vertex -6.732941333518671 -5.52460306544585 10.04546005336722
  endloop
endfacet
facet normal 0.849945 -0.526069 -0.0290841
  outer loop
    vertex -7.03800746201772 5.3646845956469 8.265573126296426
    vertex -8.52259929207573 3.126642847475403 5.361661351114936
    vertex -6.473286735471305 6.509365785194667 4.063989575373181
  endloop
endfacet
facet normal 0.194896 0.980683 -0.0166137
  outer loop
    vertex 0.1909991358451073 -8.666312306581357 10.56626650680896
    vertex -3.525592595382554 -7.929807245765518 10.44159970328055
    vertex -1.835978286786604 -8.208043328632581 13.8386654095511
  endloop
endfacet
facet normal -0.981799 -0.173494 -0.0772693
  outer loop
    vertex 8.420662306405232 0 13.71428571428572
    vertex 8.040437159195333 2.933243791722677 11.95945741709618
    vertex 8.690496729803924 0 10.28571428571428
  endloop
endfacet
facet normal -0.977596 0.195925 -0.0769385
  outer loop
    vertex 8.690496729803924 0 10.28571428571428
    vertex 7.894431793928342 -3.296738301751947 12.00549819764529
    vertex 8.420662306405232 0 13.71428571428572
  endloop
endfacet
facet normal -0.983551 0.163203 -0.0774072
  outer loop
    vertex 9.230165576601308 0 3.428571428571431
    vertex 8.610661705716588 -2.938478478910385 5.10471934565912
    vertex 8.960331153202617 0 6.857142857142854
  endloop
endfacet
facet normal -0.983551 -0.163203 -0.0774072
  outer loop
    vertex 8.960331153202617 0 6.857142857142854
    vertex 8.6106617057278 2.938478478873256 5.104719345676642
    vertex 9.230165576601308 0 3.428571428571431
  endloop
endfacet
facet normal -0.979327 -0.187024 -0.0770747
  outer loop
    vertex 7.880993459607848 0 20.57142857142857
    vertex 7.45607903620161 2.955593593527097 18.7986494380464
    vertex 8.15082788300654 0 17.14285714285714
  endloop
endfacet
facet normal 0.438244 0.887032 -0.145319
  outer loop
    vertex -1.835978286786604 -8.208043328632581 13.8386654095511
    vertex -3.525592595382554 -7.929807245765518 10.44159970328055
    vertex -5.359523649606351 -6.506823668071696 13.5968840734463
  endloop
endfacet
facet normal -0.982983 -0.166613 -0.0773624
  outer loop
    vertex 8.690496729803924 0 10.28571428571428
    vertex 8.331575043629385 2.907909960281287 8.58355764457283
    vertex 8.960331153202617 0 6.857142857142854
  endloop
endfacet
facet normal -0.808935 0.587726 -0.0142324
  outer loop
    vertex 6.356740760409149 -7.059875842035249 0
    vertex 7.337572593986697 -5.633109043976563 3.170102739950362
    vertex 8.678681847604709 -3.863998109220101 0
  endloop
endfacet
facet normal -0.808935 -0.587726 -0.0142324
  outer loop
    vertex 8.678681847604707 3.863998109220104 0
    vertex 7.337572593998756 5.63310904395947 3.170102739961091
    vertex 6.356740760409149 7.059875842035249 0
  endloop
endfacet
facet normal 0.308979 0.950941 -0.0155862
  outer loop
    vertex -4.749999999999989 -8.227241335952172 0
    vertex -2.867622820732327 -8.784952928407044 3.289134966322258
    vertex -0.9930204010426985 -9.447958005998597 0
  endloop
endfacet
facet normal 0.494047 0.858547 -0.137167
  outer loop
    vertex -6.176610047658145 -6.859820418148887 3.420524623648447
    vertex -2.867622820732327 -8.784952928407044 3.289134966322258
    vertex -4.749999999999989 -8.227241335952172 0
  endloop
endfacet
facet normal 0.113397 0.984497 -0.13382
  outer loop
    vertex -0.9930204010426985 -9.447958005998597 0
    vertex -2.867622820732327 -8.784952928407044 3.289134966322258
    vertex 0.8597078611935903 -9.182702070404229 3.521419388800297
  endloop
endfacet
facet normal -0.981114 -0.177351 -0.0772153
  outer loop
    vertex 8.15082788300654 0 17.14285714285714
    vertex 7.760417893584135 2.900391281559036 15.44177287350147
    vertex 8.420662306405232 0 13.71428571428572
  endloop
endfacet
facet normal -0.983039 -0.164874 -0.0803122
  outer loop
    vertex 8.960331153202617 0 6.857142857142854
    vertex 8.331575043629385 2.907909960281287 8.58355764457283
    vertex 8.6106617057278 2.938478478873256 5.104719345676642
  endloop
endfacet
facet normal -0.981199 -0.175381 -0.0805546
  outer loop
    vertex 8.420662306405232 0 13.71428571428572
    vertex 7.760417893584135 2.900391281559036 15.44177287350147
    vertex 8.040437159195333 2.933243791722677 11.95945741709618
  endloop
endfacet
facet normal -0.983661 0.162533 -0.0774158
  outer loop
    vertex 8.960331153202617 0 6.857142857142854
    vertex 8.354139593598706 -2.838239372979838 8.600716593658785
    vertex 8.690496729803924 0 10.28571428571428
  endloop
endfacet
facet normal 0.51836 -0.855053 -0.0136907
  outer loop
    vertex -4.020381251434215 7.065550775249125 17.41643025405672
    vertex -5.757319991138202 6.05913854168039 14.50765108615943
    vertex -2.571426393213228 7.999575836796839 13.94245799009945
  endloop
endfacet
facet normal 0.497504 -0.856629 -0.136663
  outer loop
    vertex -2.571426393213228 7.999575836796839 13.94245799009945
    vertex -5.757319991138202 6.05913854168039 14.50765108615943
    vertex -4.929870606986445 7.072302142979778 11.16916605462248
  endloop
endfacet
facet normal 0.818246 -0.559064 -0.133869
  outer loop
    vertex -7.514198997210118 4.096481660822698 11.9655445896319
    vertex -5.757319991138202 6.05913854168039 14.50765108615943
    vertex -7.760286764590314 2.844227552913093 15.69104363188158
  endloop
endfacet
facet normal -0.826244 -0.557887 -0.0779872
  outer loop
    vertex 7.45607903620161 2.955593593527097 18.7986494380464
    vertex 7.271372254050852 2.864691714472294 21.40581878158979
    vertex 5.422708943143483 5.717105151457908 20.58674162286158
  endloop
endfacet
facet normal -0.650955 -0.750759 -0.112336
  outer loop
    vertex 4.745178946612846 7.141851833762774 11.75905857004936
    vertex 6.563915552024643 5.287112086747881 13.61550540166577
    vertex 3.964692865411183 7.284764284921271 15.32663644577435
  endloop
endfacet
facet normal -0.104514 -0.994386 -0.0165164
  outer loop
    vertex 2.935661446561997 9.03503690480396 0
    vertex 1.306027806686993 9.152558799986927 3.236635146004829
    vertex -0.9930204010427108 9.447958005998597 0
  endloop
endfacet
facet normal -0.977767 0.179869 -0.107795
  outer loop
    vertex 8.690496729803924 0 10.28571428571428
    vertex 8.354139593598706 -2.838239372979838 8.600716593658785
    vertex 7.894431793928342 -3.296738301751947 12.00549819764529
  endloop
endfacet
facet normal 0.387957 0.921579 -0.0134953
  outer loop
    vertex -1.575211376519722 -8.799437729398257 7.124148151852918
    vertex -5.190248895205816 -7.277507116501817 7.131683024077127
    vertex -3.525592595382554 -7.929807245765518 10.44159970328055
  endloop
endfacet
facet normal -0.983649 0.16288 -0.0768463
  outer loop
    vertex 8.610661705716588 -2.938478478910385 5.10471934565912
    vertex 8.354139593598706 -2.838239372979838 8.600716593658785
    vertex 8.960331153202617 0 6.857142857142854
  endloop
endfacet
facet normal -0.283148 -0.959038 0.00862508
  outer loop
    vertex 0.1426717092163583 8.137853121165172 17.29182732557586
    vertex 3.911909807114678 7.0352348058825 18.4278900020041
    vertex 2.038586781829041 7.608109445424406 20.62859344101678
  endloop
endfacet
facet normal -0.615045 0.779017 -0.121866
  outer loop
    vertex 3.93192121755756 -7.726273994031757 10.55610555897748
    vertex 6.555953853927233 -5.730498953201722 10.07069386883834
    vertex 5.133387389728509 -7.324619038413713 7.059980178160789
  endloop
endfacet
facet normal -0.647772 0.749437 -0.136878
  outer loop
    vertex 4.437061039869123 -8.094487501904339 3.420118047276262
    vertex 7.337572593986697 -5.633109043976563 3.170102739950362
    vertex 6.356740760409149 -7.059875842035249 0
  endloop
endfacet
facet normal -0.648648 -0.748782 -0.136312
  outer loop
    vertex 6.356740760409149 7.059875842035249 0
    vertex 7.337572593998756 5.63310904395947 3.170102739961091
    vertex 4.536404332088619 8.063923095807658 3.146801853279428
  endloop
endfacet
facet normal -0.319937 -0.938889 -0.126996
  outer loop
    vertex 4.536404332088619 8.063923095807658 3.146801853279428
    vertex 1.306027806686993 9.152558799986927 3.236635146004829
    vertex 2.935661446561997 9.03503690480396 0
  endloop
endfacet
facet normal -0.981905 -0.170017 -0.0834037
  outer loop
    vertex 8.040437159195333 2.933243791722677 11.95945741709618
    vertex 8.331575043629385 2.907909960281287 8.58355764457283
    vertex 8.690496729803924 0 10.28571428571428
  endloop
endfacet
facet normal -0.8363 -0.547889 -0.0204731
  outer loop
    vertex 5.422708943143483 5.717105151457908 20.58674162286158
    vertex 7.271372254050852 2.864691714472294 21.40581878158979
    vertex 6.591457077600609 3.805579518104584 24
  endloop
endfacet
facet normal 0.604953 0.781978 -0.150141
  outer loop
    vertex -3.525592595382554 -7.929807245765518 10.44159970328055
    vertex -5.190248895205816 -7.277507116501817 7.131683024077127
    vertex -6.732941333518671 -5.52460306544585 10.04546005336722
  endloop
endfacet
facet normal 0.971716 0.198159 -0.128458
  outer loop
    vertex -9.240102502215295 -0.09488898691621261 3.296120267287073
    vertex -8.549254438810799 -3.518386061536637 3.24092956308202
    vertex -9.292402206971154 -1.975161062768711 0
  endloop
endfacet
facet normal 0.810327 0.56755 -0.145799
  outer loop
    vertex -7.685661446561999 -5.583959896778497 0
    vertex -8.549254438810799 -3.518386061536637 3.24092956308202
    vertex -6.176610047658145 -6.859820418148887 3.420524623648447
  endloop
endfacet
facet normal 0.994019 -0.107676 -0.0182332
  outer loop
    vertex -8.593376292934929 1.857499160947297 8.998048593187942
    vertex -8.934496827874357 -0.8895818965800071 6.6240729658631
    vertex -8.52259929207573 3.126642847475403 5.361661351114936
  endloop
endfacet
facet normal 0.98247 -0.139597 -0.123555
  outer loop
    vertex -8.52259929207573 3.126642847475403 5.361661351114936
    vertex -8.934496827874357 -0.8895818965800071 6.6240729658631
    vertex -9.240102502215295 -0.09488898691621261 3.296120267287073
  endloop
endfacet
facet normal -0.979515 -0.182175 -0.0858083
  outer loop
    vertex 7.45607903620161 2.955593593527097 18.7986494380464
    vertex 7.760417893584135 2.900391281559036 15.44177287350147
    vertex 8.15082788300654 0 17.14285714285714
  endloop
endfacet
facet normal -0.429458 -0.895939 -0.1134
  outer loop
    vertex 2.263483242682246 8.479094413509344 9.199131184108737
    vertex 3.145167784274447 8.463816717888452 5.980799779291356
    vertex 5.056795973496377 7.275095422523092 8.13297568312939
  endloop
endfacet
facet normal -0.858897 0.50996 -0.047294
  outer loop
    vertex 8.354139593598706 -2.838239372979838 8.600716593658785
    vertex 6.555953853927233 -5.730498953201722 10.07069386883834
    vertex 7.894431793928342 -3.296738301751947 12.00549819764529
  endloop
endfacet
facet normal 0.958582 0.283557 -0.026745
  outer loop
    vertex -7.980156690736186 -4.116677953294077 6.614628152151138
    vertex -8.934496827874357 -0.8895818965800071 6.6240729658631
    vertex -8.455834329757769 -2.226568175771622 9.6050159582585
  endloop
endfacet
facet normal -0.630912 -0.773912 -0.0548608
  outer loop
    vertex 3.964692865411183 7.284764284921271 15.32663644577435
    vertex 6.563915552024643 5.287112086747881 13.61550540166577
    vertex 6.095624022068141 5.430441712845341 16.97904323634562
  endloop
endfacet
facet normal -0.978147 -0.207912 -0.00121314
  outer loop
    vertex 9.5 0 0
    vertex 8.958759386894286 2.532232410052214 2.417269693309535
    vertex 8.678681847604707 3.863998109220104 0
  endloop
endfacet
facet normal -0.978147 0.207912 -0.00101088
  outer loop
    vertex 8.678681847604709 -3.863998109220101 0
    vertex 8.956840249237082 -2.543691674432905 2.40104038683695
    vertex 9.5 0 0
  endloop
endfacet
facet normal -0.984471 0.157522 -0.0774796
  outer loop
    vertex 8.420662306405232 0 13.71428571428572
    vertex 7.91906125973544 -2.600784597473736 14.80014709503929
    vertex 8.15082788300654 0 17.14285714285714
  endloop
endfacet
facet normal -0.9539 -0.255597 -0.157307
  outer loop
    vertex 6.591457077600609 3.805579518104584 24
    vertex 7.271372254050852 2.864691714472294 21.40581878158979
    vertex 7.611159036209155 0 24
  endloop
endfacet
facet normal 0.82905 -0.546918 -0.116431
  outer loop
    vertex -8.52259929207573 3.126642847475403 5.361661351114936
    vertex -8.511192550270028 3.78942706956453 2.329553811743754
    vertex -6.473286735471305 6.509365785194667 4.063989575373181
  endloop
endfacet
facet normal -0.887699 0.457375 -0.052898
  outer loop
    vertex 7.337572593986697 -5.633109043976563 3.170102739950362
    vertex 7.473687650534999 -4.941119909700733 6.869098585655596
    vertex 8.610661705716588 -2.938478478910385 5.10471934565912
  endloop
endfacet
facet normal 0.753254 -0.657603 -0.0128741
  outer loop
    vertex -4.929870606986445 7.072302142979778 11.16916605462248
    vertex -5.757319991138202 6.05913854168039 14.50765108615943
    vertex -7.514198997210118 4.096481660822698 11.9655445896319
  endloop
endfacet
facet normal 0.963729 -0.218855 -0.152738
  outer loop
    vertex -9.292402206971154 1.975161062768714 0
    vertex -8.511192550270028 3.78942706956453 2.329553811743754
    vertex -9.240102502215295 -0.09488898691621261 3.296120267287073
  endloop
endfacet
facet normal 0.913431 0.406686 -0.0158
  outer loop
    vertex -9.292402206971154 -1.975161062768711 0
    vertex -8.549254438810799 -3.518386061536637 3.24092956308202
    vertex -7.685661446561999 -5.583959896778497 0
  endloop
endfacet
facet normal 0.980325 -0.193574 -0.0386251
  outer loop
    vertex -9.240102502215295 -0.09488898691621261 3.296120267287073
    vertex -8.511192550270028 3.78942706956453 2.329553811743754
    vertex -8.52259929207573 3.126642847475403 5.361661351114936
  endloop
endfacet
facet normal -0.886238 -0.459698 -0.0570948
  outer loop
    vertex 8.6106617057278 2.938478478873256 5.104719345676642
    vertex 7.40241633914456 5.060097348303583 6.777179786256557
    vertex 7.337572593998756 5.63310904395947 3.170102739961091
  endloop
endfacet
facet normal -0.979522 -0.185994 -0.0770901
  outer loop
    vertex 7.611159036209155 0 24
    vertex 7.271372254050852 2.864691714472294 21.40581878158979
    vertex 7.880993459607848 0 20.57142857142857
  endloop
endfacet
facet normal -0.987449 0.137496 -0.0777139
  outer loop
    vertex 9.5 0 0
    vertex 8.956840249237082 -2.543691674432905 2.40104038683695
    vertex 9.230165576601308 0 3.428571428571431
  endloop
endfacet
facet normal -0.949404 0.254392 -0.184166
  outer loop
    vertex 7.611159036209155 0 24
    vertex 7.294433604509048 -2.691955279472583 21.91431389167638
    vertex 6.591457077600618 -3.805579518104569 24
  endloop
endfacet
facet normal -0.49034 -0.870358 -0.0451938
  outer loop
    vertex 3.145167784274447 8.463816717888452 5.980799779291356
    vertex 5.71285303372555 7.043423677388305 5.476552257093463
    vertex 5.056795973496377 7.275095422523092 8.13297568312939
  endloop
endfacet
facet normal -0.987533 -0.136884 -0.0777206
  outer loop
    vertex 9.230165576601308 0 3.428571428571431
    vertex 8.958759386894286 2.532232410052214 2.417269693309535
    vertex 9.5 0 0
  endloop
endfacet
facet normal -0.687919 -0.720721 -0.0856017
  outer loop
    vertex 5.056795973496377 7.275095422523092 8.13297568312939
    vertex 6.967957425467552 5.211435494583298 10.14927157344321
    vertex 4.745178946612846 7.141851833762774 11.75905857004936
  endloop
endfacet
facet normal -0.852062 -0.518911 -0.0687158
  outer loop
    vertex 7.45607903620161 2.955593593527097 18.7986494380464
    vertex 6.095624022068141 5.430441712845341 16.97904323634562
    vertex 7.760417893584135 2.900391281559036 15.44177287350147
  endloop
endfacet
facet normal -0.86751 -0.491825 -0.074398
  outer loop
    vertex 7.760417893584135 2.900391281559036 15.44177287350147
    vertex 6.563915552024643 5.287112086747881 13.61550540166577
    vertex 8.040437159195333 2.933243791722677 11.95945741709618
  endloop
endfacet
facet normal -0.891152 -0.433052 -0.135331
  outer loop
    vertex 8.678681847604707 3.863998109220104 0
    vertex 8.958759386894286 2.532232410052214 2.417269693309535
    vertex 7.337572593998756 5.63310904395947 3.170102739961091
  endloop
endfacet
facet normal -0.857637 -0.504852 -0.0978921
  outer loop
    vertex 6.095624022068141 5.430441712845341 16.97904323634562
    vertex 6.563915552024643 5.287112086747881 13.61550540166577
    vertex 7.760417893584135 2.900391281559036 15.44177287350147
  endloop
endfacet
facet normal -0.891025 0.433388 -0.135091
  outer loop
    vertex 7.337572593986697 -5.633109043976563 3.170102739950362
    vertex 8.956840249237082 -2.543691674432905 2.40104038683695
    vertex 8.678681847604709 -3.863998109220101 0
  endloop
endfacet
facet normal -0.680145 -0.730337 -0.0633361
  outer loop
    vertex 4.745178946612846 7.141851833762774 11.75905857004936
    vertex 6.967957425467552 5.211435494583298 10.14927157344321
    vertex 6.563915552024643 5.287112086747881 13.61550540166577
  endloop
endfacet
facet normal -0.889834 -0.453894 -0.046645
  outer loop
    vertex 7.337572593998756 5.63310904395947 3.170102739961091
    vertex 8.958759386894286 2.532232410052214 2.417269693309535
    vertex 8.6106617057278 2.938478478873256 5.104719345676642
  endloop
endfacet
facet normal -0.88953 0.454397 -0.0475449
  outer loop
    vertex 8.610661705716588 -2.938478478910385 5.10471934565912
    vertex 8.956840249237082 -2.543691674432905 2.40104038683695
    vertex 7.337572593986697 -5.633109043976563 3.170102739950362
  endloop
endfacet
facet normal -0.871188 -0.482439 -0.0910172
  outer loop
    vertex 6.563915552024643 5.287112086747881 13.61550540166577
    vertex 6.967957425467552 5.211435494583298 10.14927157344321
    vertex 8.040437159195333 2.933243791722677 11.95945741709618
  endloop
endfacet
facet normal 0.844824 -0.534577 -0.0223624
  outer loop
    vertex -5.757319991138202 6.05913854168039 14.50765108615943
    vertex -6.188385480012876 5.248166951193275 17.60894004872087
    vertex -7.760286764590314 2.844227552913093 15.69104363188158
  endloop
endfacet
facet normal -0.150959 -0.98786 -0.0366668
  outer loop
    vertex -0.3504306176717525 8.9761513871613 6.569244809888332
    vertex 3.145167784274447 8.463816717888452 5.980799779291356
    vertex 2.263483242682246 8.479094413509344 9.199131184108737
  endloop
endfacet
facet normal 0.988018 0.0103883 -0.153991
  outer loop
    vertex -8.455834329757769 -2.226568175771622 9.6050159582585
    vertex -8.934496827874357 -0.8895818965800071 6.6240729658631
    vertex -8.593376292934929 1.857499160947297 8.998048593187942
  endloop
endfacet
facet normal -0.481 -0.856667 -0.186443
  outer loop
    vertex 2.038586781829041 7.608109445424406 20.62859344101678
    vertex 3.911909807114678 7.0352348058825 18.4278900020041
    vertex 5.422708943143483 5.717105151457908 20.58674162286158
  endloop
endfacet
facet normal -0.879039 -0.471241 -0.072272
  outer loop
    vertex 8.040437159195333 2.933243791722677 11.95945741709618
    vertex 6.967957425467552 5.211435494583298 10.14927157344321
    vertex 8.331575043629385 2.907909960281287 8.58355764457283
  endloop
endfacet
facet normal -0.870574 0.473797 -0.132731
  outer loop
    vertex 8.354139593598706 -2.838239372979838 8.600716593658785
    vertex 7.473687650534999 -4.941119909700733 6.869098585655596
    vertex 6.555953853927233 -5.730498953201722 10.07069386883834
  endloop
endfacet
facet normal -0.613479 -0.78801 -0.0518129
  outer loop
    vertex 5.422708943143483 5.717105151457908 20.58674162286158
    vertex 3.911909807114678 7.0352348058825 18.4278900020041
    vertex 6.095624022068141 5.430441712845341 16.97904323634562
  endloop
endfacet
facet normal -0.890892 -0.447913 -0.0754068
  outer loop
    vertex 8.331575043629385 2.907909960281287 8.58355764457283
    vertex 7.40241633914456 5.060097348303583 6.777179786256557
    vertex 8.6106617057278 2.938478478873256 5.104719345676642
  endloop
endfacet
facet normal -0.319849 -0.94718 -0.0233643
  outer loop
    vertex 4.536404332088619 8.063923095807658 3.146801853279428
    vertex 3.145167784274447 8.463816717888452 5.980799779291356
    vertex 1.306027806686993 9.152558799986927 3.236635146004829
  endloop
endfacet
facet normal -0.983917 0.175171 -0.0349516
  outer loop
    vertex 7.894431793928342 -3.296738301751947 12.00549819764529
    vertex 7.91906125973544 -2.600784597473736 14.80014709503929
    vertex 8.420662306405232 0 13.71428571428572
  endloop
endfacet
facet normal 0.639062 -0.767574 -0.0492862
  outer loop
    vertex -5.569522663595365 5.569522663595306 20.62859344101679
    vertex -6.188385480012876 5.248166951193275 17.60894004872087
    vertex -4.020381251434215 7.065550775249125 17.41643025405672
  endloop
endfacet
facet normal -0.165771 -0.977002 -0.134112
  outer loop
    vertex 1.306027806686993 9.152558799986927 3.236635146004829
    vertex 3.145167784274447 8.463816717888452 5.980799779291356
    vertex -0.3504306176717525 8.9761513871613 6.569244809888332
  endloop
endfacet
facet normal 0.913496 -0.406715 0.0104126
  outer loop
    vertex -7.685661446562003 5.583959896778492 0
    vertex -8.511192550270028 3.78942706956453 2.329553811743754
    vertex -9.292402206971154 1.975161062768714 0
  endloop
endfacet
facet normal -0.88326 -0.459532 -0.0931753
  outer loop
    vertex 6.967957425467552 5.211435494583298 10.14927157344321
    vertex 7.40241633914456 5.060097348303583 6.777179786256557
    vertex 8.331575043629385 2.907909960281287 8.58355764457283
  endloop
endfacet
facet normal -0.714466 0.698916 -0.0324776
  outer loop
    vertex 6.555953853927233 -5.730498953201722 10.07069386883834
    vertex 7.473687650534999 -4.941119909700733 6.869098585655596
    vertex 5.133387389728509 -7.324619038413713 7.059980178160789
  endloop
endfacet
facet normal -0.498839 -0.857801 -0.123844
  outer loop
    vertex 4.536404332088619 8.063923095807658 3.146801853279428
    vertex 5.71285303372555 7.043423677388305 5.476552257093463
    vertex 3.145167784274447 8.463816717888452 5.980799779291356
  endloop
endfacet
facet normal -0.703138 -0.708619 -0.0587895
  outer loop
    vertex 5.056795973496377 7.275095422523092 8.13297568312939
    vertex 7.40241633914456 5.060097348303583 6.777179786256557
    vertex 6.967957425467552 5.211435494583298 10.14927157344321
  endloop
endfacet
facet normal -0.979548 -0.186348 -0.075894
  outer loop
    vertex 7.880993459607848 0 20.57142857142857
    vertex 7.271372254050852 2.864691714472294 21.40581878158979
    vertex 7.45607903620161 2.955593593527097 18.7986494380464
  endloop
endfacet
facet normal -0.89499 0.439168 -0.0782628
  outer loop
    vertex 8.610661705716588 -2.938478478910385 5.10471934565912
    vertex 7.473687650534999 -4.941119909700733 6.869098585655596
    vertex 8.354139593598706 -2.838239372979838 8.600716593658785
  endloop
endfacet
facet normal -0.726124 -0.680952 -0.095121
  outer loop
    vertex 7.40241633914456 5.060097348303583 6.777179786256557
    vertex 5.71285303372555 7.043423677388305 5.476552257093463
    vertex 7.337572593998756 5.63310904395947 3.170102739961091
  endloop
endfacet
facet normal 0.632453 -0.766386 -0.112498
  outer loop
    vertex -4.020381251434215 7.065550775249125 17.41643025405672
    vertex -6.188385480012876 5.248166951193275 17.60894004872087
    vertex -5.757319991138202 6.05913854168039 14.50765108615943
  endloop
endfacet
facet normal -0.981476 0.175324 -0.0772438
  outer loop
    vertex 7.880993459607848 0 20.57142857142857
    vertex 7.294433604509048 -2.691955279472583 21.91431389167638
    vertex 7.611159036209155 0 24
  endloop
endfacet
facet normal -0.983494 0.147827 -0.104341
  outer loop
    vertex 9.230165576601308 0 3.428571428571431
    vertex 8.956840249237082 -2.543691674432905 2.40104038683695
    vertex 8.610661705716588 -2.938478478910385 5.10471934565912
  endloop
endfacet
facet normal -0.983478 -0.147387 -0.105108
  outer loop
    vertex 8.6106617057278 2.938478478873256 5.104719345676642
    vertex 8.958759386894286 2.532232410052214 2.417269693309535
    vertex 9.230165576601308 0 3.428571428571431
  endloop
endfacet
facet normal -0.621719 -0.779801 -0.073325
  outer loop
    vertex 6.095624022068141 5.430441712845341 16.97904323634562
    vertex 3.911909807114678 7.0352348058825 18.4278900020041
    vertex 3.964692865411183 7.284764284921271 15.32663644577435
  endloop
endfacet
facet normal -0.655414 -0.75527 0.000132195
  outer loop
    vertex 7.337572593998756 5.63310904395947 3.170102739961091
    vertex 5.71285303372555 7.043423677388305 5.476552257093463
    vertex 4.536404332088619 8.063923095807658 3.146801853279428
  endloop
endfacet
facet normal -0.980963 0.186142 -0.0553349
  outer loop
    vertex 7.363403262495482 -3.017656480897016 19.59600599523372
    vertex 7.294433604509048 -2.691955279472583 21.91431389167638
    vertex 7.880993459607848 0 20.57142857142857
  endloop
endfacet
facet normal -0.716786 -0.687394 -0.117076
  outer loop
    vertex 5.056795973496377 7.275095422523092 8.13297568312939
    vertex 5.71285303372555 7.043423677388305 5.476552257093463
    vertex 7.40241633914456 5.060097348303583 6.777179786256557
  endloop
endfacet
facet normal -0 0 -1
  outer loop
    vertex -1.366647372750827 3.810531377385336 24
    vertex -4.232030769184266 2.355455075050286 24
    vertex -3.805579518104564 6.591457077600621 24
  endloop
endfacet
facet normal 0 0 -1
  outer loop
    vertex -3.805579518104564 6.591457077600621 24
    vertex -4.232030769184266 2.355455075050286 24
    vertex -6.591457077600601 3.805579518104599 24
  endloop
endfacet
facet normal 0 0 -1
  outer loop
    vertex -0.4600194818628363 -1.401495125224395 24
    vertex 0.8916646723099482 1.544408515755076 24
    vertex 3.491768817008054 -1.954544433765062 24
  endloop
endfacet
facet normal 0 0 -1
  outer loop
    vertex 4.158814638282079 1.49662434998211 24
    vertex 2.346811422257736 4.143293312506143 24
    vertex 6.591457077600618 3.805579518104569 24
  endloop
endfacet
facet normal 0 0 -1
  outer loop
    vertex -1.989228951906735 0.8993263830980568 24
    vertex -4.232030769184266 2.355455075050286 24
    vertex -1.366647372750827 3.810531377385336 24
  endloop
endfacet
facet normal 0 0 -1
  outer loop
    vertex 3.491768817008054 -1.954544433765062 24
    vertex 0.8916646723099482 1.544408515755076 24
    vertex 4.158814638282079 1.49662434998211 24
  endloop
endfacet
facet normal 0 0 -1
  outer loop
    vertex 6.591457077600618 3.805579518104569 24
    vertex 2.346811422257736 4.143293312506143 24
    vertex 3.805579518104584 6.591457077600609 24
  endloop
endfacet
facet normal 0 0 -1
  outer loop
    vertex -0.4600194818628363 -1.401495125224395 24
    vertex 3.491768817008054 -1.954544433765062 24
    vertex 0.9650562953426087 -4.245009989944617 24
  endloop
endfacet
facet normal 0 -0 -1
  outer loop
    vertex -4.028112658533717 -0.9741639058869259 24
    vertex -2.197152359200219 -3.805579518104568 24
    vertex -6.591457077600632 -3.805579518104545 24
  endloop
endfacet
facet normal 0 0 -1
  outer loop
    vertex 6.591457077600609 -3.805579518104584 24
    vertex 3.491768817008054 -1.954544433765062 24
    vertex 7.611159036209155 0 24
  endloop
endfacet
facet normal 0 0 -1
  outer loop
    vertex -3.805579518104614 -6.591457077600591 24
    vertex -2.197152359200219 -3.805579518104568 24
    vertex -2.995425334432484e-14 -7.611159036209155 24
  endloop
endfacet
facet normal 0 0 -1
  outer loop
    vertex -6.591457077600632 -3.805579518104545 24
    vertex -2.197152359200219 -3.805579518104568 24
    vertex -3.805579518104614 -6.591457077600591 24
  endloop
endfacet
facet normal -0 0 -1
  outer loop
    vertex 7.611159036209155 0 24
    vertex 3.491768817008054 -1.954544433765062 24
    vertex 4.158814638282079 1.49662434998211 24
  endloop
endfacet
facet normal 0 0 -1
  outer loop
    vertex 0.9650562953426087 -4.245009989944617 24
    vertex 3.491768817008054 -1.954544433765062 24
    vertex 3.805579518104563 -6.591457077600622 24
  endloop
endfacet
facet normal 0 0 -1
  outer loop
    vertex 3.805579518104563 -6.591457077600622 24
    vertex 3.491768817008054 -1.954544433765062 24
    vertex 6.591457077600609 -3.805579518104584 24
  endloop
endfacet
facet normal 0 0 -1
  outer loop
    vertex -2.995425334432484e-14 -7.611159036209155 24
    vertex 0.9650562953426087 -4.245009989944617 24
    vertex 3.805579518104563 -6.591457077600622 24
  endloop
endfacet
facet normal 0 0 -1
  outer loop
    vertex 1.21219871770089e-14 7.611159036209155 24
    vertex -1.366647372750827 3.810531377385336 24
    vertex -3.805579518104564 6.591457077600621 24
  endloop
endfacet
facet normal 0 0 -1
  outer loop
    vertex -2.995425334432484e-14 -7.611159036209155 24
    vertex -2.197152359200219 -3.805579518104568 24
    vertex 0.9650562953426087 -4.245009989944617 24
  endloop
endfacet
facet normal 0 0 -1
  outer loop
    vertex -7.611159036209155 2.948820426675009e-14 24
    vertex -4.028112658533717 -0.9741639058869259 24
    vertex -6.591457077600632 -3.805579518104545 24
  endloop
endfacet
facet normal 0 0 -1
  outer loop
    vertex 7.611159036209155 0 24
    vertex 4.158814638282079 1.49662434998211 24
    vertex 6.591457077600618 3.805579518104569 24
  endloop
endfacet
facet normal -0 0 -1
  outer loop
    vertex 3.805579518104584 6.591457077600609 24
    vertex 2.346811422257736 4.143293312506143 24
    vertex 1.21219871770089e-14 7.611159036209155 24
  endloop
endfacet
facet normal 0 -0 -1
  outer loop
    vertex 1.21219871770089e-14 7.611159036209155 24
    vertex 2.346811422257736 4.143293312506143 24
    vertex -1.366647372750827 3.810531377385336 24
  endloop
endfacet
facet normal 0 -0 -1
  outer loop
    vertex -6.591457077600601 3.805579518104599 24
    vertex -4.232030769184266 2.355455075050286 24
    vertex -7.611159036209155 2.948820426675009e-14 24
  endloop
endfacet
facet normal 0 0 -1
  outer loop
    vertex -7.611159036209155 2.948820426675009e-14 24
    vertex -4.232030769184266 2.355455075050286 24
    vertex -4.028112658533717 -0.9741639058869259 24
  endloop
endfacet
facet normal 0 0 -1
  outer loop
    vertex 0.8916646723099482 1.544408515755076 24
    vertex 2.346811422257736 4.143293312506143 24
    vertex 4.158814638282079 1.49662434998211 24
  endloop
endfacet
facet normal 0 0 -1
  outer loop
    vertex -4.028112658533717 -0.9741639058869259 24
    vertex -0.4600194818628363 -1.401495125224395 24
    vertex -2.197152359200219 -3.805579518104568 24
  endloop
endfacet
facet normal 0 0 -1
  outer loop
    vertex -2.197152359200219 -3.805579518104568 24
    vertex -0.4600194818628363 -1.401495125224395 24
    vertex 0.9650562953426087 -4.245009989944617 24
  endloop
endfacet
facet normal -0 0 -1
  outer loop
    vertex 0.8916646723099482 1.544408515755076 24
    vertex -1.989228951906735 0.8993263830980568 24
    vertex -1.366647372750827 3.810531377385336 24
  endloop
endfacet
facet normal 0 0 -1
  outer loop
    vertex -0.4600194818628363 -1.401495125224395 24
    vertex -1.989228951906735 0.8993263830980568 24
    vertex 0.8916646723099482 1.544408515755076 24
  endloop
endfacet
facet normal 0 0 -1
  outer loop
    vertex -4.028112658533717 -0.9741639058869259 24
    vertex -1.989228951906735 0.8993263830980568 24
    vertex -0.4600194818628363 -1.401495125224395 24
  endloop
endfacet
facet normal 0 0 -1
  outer loop
    vertex -1.366647372750827 3.810531377385336 24
    vertex 2.346811422257736 4.143293312506143 24
    vertex 0.8916646723099482 1.544408515755076 24
  endloop
endfacet
facet normal 0 0 -1
  outer loop
    vertex -4.028112658533717 -0.9741639058869259 24
    vertex -4.232030769184266 2.355455075050286 24
    vertex -1.989228951906735 0.8993263830980568 24
  endloop
endfacet
endsolid Created by Gmsh
