solid Created by Gmsh
facet normal -0.678742 0.7313 -0.0671574
  outer loop
    vertex 4.305668434647234 -7.328174945397415 12.71298505499325
    vertex 4.305702588476273 -6.994687444387806 16.34409979848014
    vertex 6.96905464149756 -4.837590312080871 12.91568459276347
  endloop
endfacet
facet normal -0.693349 0.715124 -0.0886829
  outer loop
    vertex 6.96905464149756 -4.837590312080871 12.91568459276347
    vertex 4.305702588476273 -6.994687444387806 16.34409979848014
    vertex 6.848673558820418 -4.495106435293669 16.61859332139126
  endloop
endfacet
facet normal 0.721131 0.690639 -0.0546642
  outer loop
    vertex -8.038537166172263 -5.062797668094903 0
    vertex -7.462014927121359 -5.337188576710206 4.138779158565999
    vertex -5.405152974387286 -7.812446564519482 0
  endloop
endfacet
facet normal 0.924132 0.378001 -0.0556254
  outer loop
    vertex -7.098232133321074 -4.663736488365246 12.79194028448878
    vertex -7.139263444234729 -5.226023504205008 8.289256233057934
    vertex -8.491558881300939 -1.5 11.14301499551362
  endloop
endfacet
facet normal 0.678807 0.727761 -0.0978994
  outer loop
    vertex -7.462014927121359 -5.337188576710206 4.138779158565999
    vertex -4.873053688860002 -7.819949599089928 3.63365187557164
    vertex -5.405152974387286 -7.812446564519482 0
  endloop
endfacet
facet normal -0.375735 0.924067 -0.070172
  outer loop
    vertex 1.660526296694032 -7.522466240895574 22.82592680465198
    vertex 4.29118918647947 -6.682818315497046 19.79706590186325
    vertex 1.559242168426863 -7.904594762342386 18.33615303341979
  endloop
endfacet
facet normal 0.675025 0.734258 -0.0721578
  outer loop
    vertex -7.139263444234729 -5.226023504205008 8.289256233057934
    vertex -4.629845645200901 -7.638893465143115 7.211761358438689
    vertex -7.462014927121359 -5.337188576710206 4.138779158565999
  endloop
endfacet
facet normal 0.918146 0.389397 -0.0733409
  outer loop
    vertex -8.491558881300939 -1.5 11.14301499551362
    vertex -7.139263444234729 -5.226023504205008 8.289256233057934
    vertex -8.788255946204908 -1.5 7.428699021999336
  endloop
endfacet
facet normal -0.0333886 0.995905 -0.0840092
  outer loop
    vertex 1.559242168426863 -7.904594762342386 18.33615303341979
    vertex -1.08657152906028 -7.821760168168873 20.3696867201188
    vertex 1.660526296694032 -7.522466240895574 22.82592680465198
  endloop
endfacet
facet normal -0.255699 0.965865 -0.0415001
  outer loop
    vertex 1.165884330311165 -8.849033290041397 7.299624799947527
    vertex 3.853831777790969 -8.221978555966331 5.332022648326522
    vertex 0.3576042769216435 -9.236669087095985 3.258011320718545
  endloop
endfacet
facet normal 0.693584 0.714019 -0.0954858
  outer loop
    vertex -7.098232133321074 -4.663736488365246 12.79194028448878
    vertex -4.674932547036662 -7.263551187192976 10.95339117283496
    vertex -7.139263444234729 -5.226023504205008 8.289256233057934
  endloop
endfacet
facet normal 0.681259 0.727309 -0.0831086
  outer loop
    vertex -4.629845645200901 -7.638893465143115 7.211761358438689
    vertex -4.873053688860002 -7.819949599089928 3.63365187557164
    vertex -7.462014927121359 -5.337188576710206 4.138779158565999
  endloop
endfacet
facet normal -0.696403 0.714359 -0.0686586
  outer loop
    vertex 6.848673558820418 -4.495106435293669 16.61859332139126
    vertex 4.29118918647947 -6.682818315497046 19.79706590186325
    vertex 6.528355351315354 -4.455099604550217 20.28382905141886
  endloop
endfacet
facet normal -0.695681 0.715171 -0.0675178
  outer loop
    vertex 4.305702588476273 -6.994687444387806 16.34409979848014
    vertex 4.29118918647947 -6.682818315497046 19.79706590186325
    vertex 6.848673558820418 -4.495106435293669 16.61859332139126
  endloop
endfacet
facet normal -0.223291 0.969807 -0.0980608
  outer loop
    vertex 3.853831777790969 -8.221978555966331 5.332022648326522
    vertex 3.654958986121038 -8.561207820573637 2.429940190354571
    vertex 0.3576042769216435 -9.236669087095985 3.258011320718545
  endloop
endfacet
facet normal -0.420076 0.900132 -0.115319
  outer loop
    vertex 4.726977894574278 -6.052540195320008 23.12929413742949
    vertex 4.29118918647947 -6.682818315497046 19.79706590186325
    vertex 1.660526296694032 -7.522466240895574 22.82592680465198
  endloop
endfacet
facet normal 0.311026 0.943993 -0.110187
  outer loop
    vertex -3.757939364925833 -6.957830954708445 20.23064321726964
    vertex -1.08657152906028 -7.821760168168873 20.3696867201188
    vertex -2.095775293856949 -7.901898386085027 16.83444119236754
  endloop
endfacet
facet normal 0.70708 0.704243 -0.0638737
  outer loop
    vertex -7.098232133321074 -4.663736488365246 12.79194028448878
    vertex -4.715858911222327 -6.887009512182668 14.65191614690873
    vertex -4.674932547036662 -7.263551187192976 10.95339117283496
  endloop
endfacet
facet normal 0.669436 0.742809 -0.0094942
  outer loop
    vertex -4.694706742402278 -6.076389571901292 23.14152281513017
    vertex -3.757939364925833 -6.957830954708445 20.23064321726964
    vertex -6.508577852654809 -4.47763207611863 20.32930459527396
  endloop
endfacet
facet normal 0.676889 0.733175 -0.065392
  outer loop
    vertex -4.674932547036662 -7.263551187192976 10.95339117283496
    vertex -4.629845645200901 -7.638893465143115 7.211761358438689
    vertex -7.139263444234729 -5.226023504205008 8.289256233057934
  endloop
endfacet
facet normal 0.712388 0.697332 -0.078934
  outer loop
    vertex -7.098232133321074 -4.663736488365246 12.79194028448878
    vertex -6.863468023556066 -4.462872797473786 16.68521949086777
    vertex -4.715858911222327 -6.887009512182668 14.65191614690873
  endloop
endfacet
facet normal 0.390867 0.916139 -0.0889457
  outer loop
    vertex -4.715858911222327 -6.887009512182668 14.65191614690873
    vertex -1.84436045236758 -8.280164816146366 12.92108245082826
    vertex -4.674932547036662 -7.263551187192976 10.95339117283496
  endloop
endfacet
facet normal 0.405092 0.912162 -0.0621446
  outer loop
    vertex -4.715858911222327 -6.887009512182668 14.65191614690873
    vertex -2.095775293856949 -7.901898386085027 16.83444119236754
    vertex -1.84436045236758 -8.280164816146366 12.92108245082826
  endloop
endfacet
facet normal 0.0104858 0.999814 -0.0161577
  outer loop
    vertex -3.257622122888526e-13 -7.453755622559919 26
    vertex 1.660526296694032 -7.522466240895574 22.82592680465198
    vertex -1.736360049765729 -7.482218132200301 23.11194672302349
  endloop
endfacet
facet normal 0.926077 0.369821 -0.0749223
  outer loop
    vertex -8.194549339183904 -1.5 14.85730694785475
    vertex -6.863468023556066 -4.462872797473786 16.68521949086777
    vertex -7.098232133321074 -4.663736488365246 12.79194028448878
  endloop
endfacet
facet normal 0.039323 0.994803 -0.0939222
  outer loop
    vertex -2.095775293856949 -7.901898386085027 16.83444119236754
    vertex 1.559242168426863 -7.904594762342386 18.33615303341979
    vertex 1.31868281480297 -8.237273714400288 14.71177558877154
  endloop
endfacet
facet normal -0.921933 0.377975 -0.0846968
  outer loop
    vertex 6.848673558820418 -4.495106435293669 16.61859332139126
    vertex 6.528355351315354 -4.455099604550217 20.28382905141886
    vertex 7.897192202403843 -1.5 18.57157052551642
  endloop
endfacet
facet normal 0.919792 0.385418 -0.0737336
  outer loop
    vertex -7.59944666851479 -1.5 22.28580251214828
    vertex -6.508577852654809 -4.47763207611863 20.32930459527396
    vertex -7.897192202403843 -1.5 18.57157052551642
  endloop
endfacet
facet normal -0.920529 0.383642 -0.0737927
  outer loop
    vertex 7.897192202403843 -1.5 18.57157052551642
    vertex 6.528355351315354 -4.455099604550217 20.28382905141886
    vertex 7.59944666851479 -1.5 22.28580251214828
  endloop
endfacet
facet normal 0.0113823 0.9996 -0.0259086
  outer loop
    vertex -2.095775293856949 -7.901898386085027 16.83444119236754
    vertex -1.08657152906028 -7.821760168168873 20.3696867201188
    vertex 1.559242168426863 -7.904594762342386 18.33615303341979
  endloop
endfacet
facet normal -0.223894 0.964792 -0.138016
  outer loop
    vertex 3.282721749094147 -6.691951195194708 26
    vertex 1.660526296694032 -7.522466240895574 22.82592680465198
    vertex -3.257622122888526e-13 -7.453755622559919 26
  endloop
endfacet
facet normal -0.925197 0.372188 -0.0740696
  outer loop
    vertex 8.194549339183904 -1.5 14.85730694785475
    vertex 6.848673558820418 -4.495106435293669 16.61859332139126
    vertex 7.897192202403843 -1.5 18.57157052551642
  endloop
endfacet
facet normal 0.039512 0.994824 -0.0936215
  outer loop
    vertex -2.095775293856949 -7.901898386085027 16.83444119236754
    vertex 1.31868281480297 -8.237273714400288 14.71177558877154
    vertex -1.84436045236758 -8.280164816146366 12.92108245082826
  endloop
endfacet
facet normal -0.923933 0.377008 -0.0649066
  outer loop
    vertex 8.194549339183904 -1.5 14.85730694785475
    vertex 6.96905464149756 -4.837590312080871 12.91568459276347
    vertex 6.848673558820418 -4.495106435293669 16.61859332139126
  endloop
endfacet
facet normal 0.660256 0.737829 -0.140252
  outer loop
    vertex -3.757939364925833 -6.957830954708445 20.23064321726964
    vertex -4.784951055379493 -6.569940981374725 17.43643256646066
    vertex -6.508577852654809 -4.47763207611863 20.32930459527396
  endloop
endfacet
facet normal 3.73168e-15 0.999765 -0.0216798
  outer loop
    vertex -1.903633457046846 -9.307318607483676 0
    vertex 0.3576042769216435 -9.236669087095985 3.258011320718545
    vertex 1.903633457046776 -9.30731860748369 0
  endloop
endfacet
facet normal -0.354208 0.9331 -0.0621388
  outer loop
    vertex 1.559242168426863 -7.904594762342386 18.33615303341979
    vertex 4.305702588476273 -6.994687444387806 16.34409979848014
    vertex 1.31868281480297 -8.237273714400288 14.71177558877154
  endloop
endfacet
facet normal -0.722063 0.691531 -0.0202475
  outer loop
    vertex 5.405152974387221 -7.812446564519528 0
    vertex 6.673630370101347 -6.391446101098014 3.296513936671591
    vertex 8.038537166172219 -5.062797668094973 0
  endloop
endfacet
facet normal 0.921695 0.377747 -0.0882321
  outer loop
    vertex -6.508577852654809 -4.47763207611863 20.32930459527396
    vertex -6.863468023556066 -4.462872797473786 16.68521949086777
    vertex -7.897192202403843 -1.5 18.57157052551642
  endloop
endfacet
facet normal 0.437093 0.8987 -0.0358968
  outer loop
    vertex -2.095775293856949 -7.901898386085027 16.83444119236754
    vertex -4.784951055379493 -6.569940981374725 17.43643256646066
    vertex -3.757939364925833 -6.957830954708445 20.23064321726964
  endloop
endfacet
facet normal 0.926332 0.369355 -0.0740732
  outer loop
    vertex -8.194549339183904 -1.5 14.85730694785475
    vertex -7.098232133321074 -4.663736488365246 12.79194028448878
    vertex -8.491558881300939 -1.5 11.14301499551362
  endloop
endfacet
facet normal 0.925966 0.370259 -0.0741311
  outer loop
    vertex -7.897192202403843 -1.5 18.57157052551642
    vertex -6.863468023556066 -4.462872797473786 16.68521949086777
    vertex -8.194549339183904 -1.5 14.85730694785475
  endloop
endfacet
facet normal -0.942381 0.325962 -0.0752768
  outer loop
    vertex 8.788255946204908 -1.5 7.428699021999336
    vertex 7.726672705879936 -4.164172915946059 9.182186511504643
    vertex 8.491558881300939 -1.5 11.14301499551362
  endloop
endfacet
facet normal -0.334233 0.939731 -0.0720646
  outer loop
    vertex 1.31868281480297 -8.237273714400288 14.71177558877154
    vertex 4.305668434647234 -7.328174945397415 12.71298505499325
    vertex 1.264760866635592 -8.539702973014217 11.01815026390648
  endloop
endfacet
facet normal -0.925981 0.356783 -0.123551
  outer loop
    vertex 7.726672705879936 -4.164172915946059 9.182186511504643
    vertex 6.96905464149756 -4.837590312080871 12.91568459276347
    vertex 8.491558881300939 -1.5 11.14301499551362
  endloop
endfacet
facet normal -0.342273 0.935663 -0.0859296
  outer loop
    vertex 1.31868281480297 -8.237273714400288 14.71177558877154
    vertex 4.305702588476273 -6.994687444387806 16.34409979848014
    vertex 4.305668434647234 -7.328174945397415 12.71298505499325
  endloop
endfacet
facet normal -0.326075 0.941258 -0.0877952
  outer loop
    vertex 4.305668434647234 -7.328174945397415 12.71298505499325
    vertex 4.261902430944516 -7.687815143593497 9.0198051635723
    vertex 1.264760866635592 -8.539702973014217 11.01815026390648
  endloop
endfacet
facet normal -0.315826 0.946208 -0.0703137
  outer loop
    vertex 4.261902430944516 -7.687815143593497 9.0198051635723
    vertex 1.165884330311165 -8.849033290041397 7.299624799947527
    vertex 1.264760866635592 -8.539702973014217 11.01815026390648
  endloop
endfacet
facet normal 0.0329377 0.996085 -0.082039
  outer loop
    vertex 1.31868281480297 -8.237273714400288 14.71177558877154
    vertex 1.264760866635592 -8.539702973014217 11.01815026390648
    vertex -1.84436045236758 -8.280164816146366 12.92108245082826
  endloop
endfacet
facet normal -0.921536 0.381237 -0.0736896
  outer loop
    vertex 8.491558881300939 -1.5 11.14301499551362
    vertex 6.96905464149756 -4.837590312080871 12.91568459276347
    vertex 8.194549339183904 -1.5 14.85730694785475
  endloop
endfacet
facet normal 0.424202 0.895501 -0.134651
  outer loop
    vertex -1.736360049765729 -7.482218132200301 23.11194672302349
    vertex -3.757939364925833 -6.957830954708445 20.23064321726964
    vertex -4.694706742402278 -6.076389571901292 23.14152281513017
  endloop
endfacet
facet normal 0.223702 0.963962 -0.143994
  outer loop
    vertex -3.257622122888526e-13 -7.453755622559919 26
    vertex -1.736360049765729 -7.482218132200301 23.11194672302349
    vertex -3.282721749094738 -6.691951195194418 26
  endloop
endfacet
facet normal 0.910595 0.35356 -0.214036
  outer loop
    vertex -7.139263444234729 -5.226023504205008 8.289256233057934
    vertex -8.158499993885075 -3.811744602543864 6.289222777799345
    vertex -8.788255946204908 -1.5 7.428699021999336
  endloop
endfacet
facet normal -0.625396 0.766941 -0.143812
  outer loop
    vertex 5.89442821705989 -4.56225699350352 26
    vertex 4.726977894574278 -6.052540195320008 23.12929413742949
    vertex 3.282721749094147 -6.691951195194708 26
  endloop
endfacet
facet normal 0.429002 0.903135 -0.0174252
  outer loop
    vertex -1.736360049765729 -7.482218132200301 23.11194672302349
    vertex -4.694706742402278 -6.076389571901292 23.14152281513017
    vertex -3.282721749094738 -6.691951195194418 26
  endloop
endfacet
facet normal -0.430931 0.902246 -0.015839
  outer loop
    vertex 4.726977894574278 -6.052540195320008 23.12929413742949
    vertex 1.660526296694032 -7.522466240895574 22.82592680465198
    vertex 3.282721749094147 -6.691951195194708 26
  endloop
endfacet
facet normal 0.6254 0.766946 -0.143766
  outer loop
    vertex -3.282721749094738 -6.691951195194418 26
    vertex -4.694706742402278 -6.076389571901292 23.14152281513017
    vertex -5.894428217060291 -4.562256993503002 26
  endloop
endfacet
facet normal -0.368465 0.925733 -0.0851602
  outer loop
    vertex 1.559242168426863 -7.904594762342386 18.33615303341979
    vertex 4.29118918647947 -6.682818315497046 19.79706590186325
    vertex 4.305702588476273 -6.994687444387806 16.34409979848014
  endloop
endfacet
facet normal 0.374055 0.923212 -0.0881048
  outer loop
    vertex -4.674932547036662 -7.263551187192976 10.95339117283496
    vertex -1.818504814335971 -8.570712987037036 9.383388178203859
    vertex -4.629845645200901 -7.638893465143115 7.211761358438689
  endloop
endfacet
facet normal 0.859079 0.505498 -0.0803432
  outer loop
    vertex -7.462014927121359 -5.337188576710206 4.138779158565999
    vertex -8.158499993885075 -3.811744602543864 6.289222777799345
    vertex -7.139263444234729 -5.226023504205008 8.289256233057934
  endloop
endfacet
facet normal 0.874318 0.476903 -0.0901729
  outer loop
    vertex -8.038537166172263 -5.062797668094903 0
    vertex -8.579511029331988 -3.608550138317007 2.445884786300223
    vertex -7.462014927121359 -5.337188576710206 4.138779158565999
  endloop
endfacet
facet normal 0.00144097 0.992462 -0.122544
  outer loop
    vertex 1.660526296694032 -7.522466240895574 22.82592680465198
    vertex -1.08657152906028 -7.821760168168873 20.3696867201188
    vertex -1.736360049765729 -7.482218132200301 23.11194672302349
  endloop
endfacet
facet normal -0.297842 0.94888 -0.104485
  outer loop
    vertex 4.261902430944516 -7.687815143593497 9.0198051635723
    vertex 3.853831777790969 -8.221978555966331 5.332022648326522
    vertex 1.165884330311165 -8.849033290041397 7.299624799947527
  endloop
endfacet
facet normal 0.0740475 0.991183 -0.109874
  outer loop
    vertex 0.3576042769216435 -9.236669087095985 3.258011320718545
    vertex -2.253218005399918 -8.754200924513224 5.850880502678205
    vertex 1.165884330311165 -8.849033290041397 7.299624799947527
  endloop
endfacet
facet normal 0.0343933 0.995892 -0.0837591
  outer loop
    vertex 1.165884330311165 -8.849033290041397 7.299624799947527
    vertex -1.818504814335971 -8.570712987037036 9.383388178203859
    vertex 1.264760866635592 -8.539702973014217 11.01815026390648
  endloop
endfacet
facet normal 0.38161 0.921445 -0.0728885
  outer loop
    vertex -1.84436045236758 -8.280164816146366 12.92108245082826
    vertex -1.818504814335971 -8.570712987037036 9.383388178203859
    vertex -4.674932547036662 -7.263551187192976 10.95339117283496
  endloop
endfacet
facet normal -0.945984 0.315301 -0.0754924
  outer loop
    vertex 9.084671242567831 -1.5 3.7143601497894
    vertex 8.038588036417378 -4.153618910445525 5.739592939921952
    vertex 8.788255946204908 -1.5 7.428699021999336
  endloop
endfacet
facet normal 0.389175 0.918273 -0.0729183
  outer loop
    vertex -4.629845645200901 -7.638893465143115 7.211761358438689
    vertex -2.253218005399918 -8.754200924513224 5.850880502678205
    vertex -4.873053688860002 -7.819949599089928 3.63365187557164
  endloop
endfacet
facet normal -0.700213 0.712625 -0.0432165
  outer loop
    vertex 6.528355351315354 -4.455099604550217 20.28382905141886
    vertex 4.29118918647947 -6.682818315497046 19.79706590186325
    vertex 4.726977894574278 -6.052540195320008 23.12929413742949
  endloop
endfacet
facet normal -0.932703 0.352785 -0.0748789
  outer loop
    vertex 7.59944666851479 -1.5 22.28580251214828
    vertex 6.621104025534488 -3.844452509698435 23.42650939289772
    vertex 7.301265156179565 -1.500000000000298 26
  endloop
endfacet
facet normal 0.932703 0.352785 -0.0748789
  outer loop
    vertex -7.301265156179824 -1.49999999999967 26
    vertex -6.621104025534706 -3.844452509698034 23.42650939289787
    vertex -7.59944666851479 -1.5 22.28580251214828
  endloop
endfacet
facet normal -0.935469 0.352441 -0.0261206
  outer loop
    vertex 8.038537166172219 -5.062797668094973 0
    vertex 8.31107589857637 -4.134939423400151 2.758876888119762
    vertex 9.380831519646819 -1.500000000000123 0
  endloop
endfacet
facet normal 0.425355 0.900342 -0.0919662
  outer loop
    vertex -4.715858911222327 -6.887009512182668 14.65191614690873
    vertex -4.784951055379493 -6.569940981374725 17.43643256646066
    vertex -2.095775293856949 -7.901898386085027 16.83444119236754
  endloop
endfacet
facet normal -0.666992 0.726663 -0.164565
  outer loop
    vertex 6.96905464149756 -4.837590312080871 12.91568459276347
    vertex 6.007620444155349 -6.246066659835218 10.59309219744146
    vertex 4.305668434647234 -7.328174945397415 12.71298505499325
  endloop
endfacet
facet normal 0.0332289 0.996114 -0.0815672
  outer loop
    vertex 1.264760866635592 -8.539702973014217 11.01815026390648
    vertex -1.818504814335971 -8.570712987037036 9.383388178203859
    vertex -1.84436045236758 -8.280164816146366 12.92108245082826
  endloop
endfacet
facet normal -0.899899 0.413424 -0.138791
  outer loop
    vertex 7.301265156179565 -1.500000000000298 26
    vertex 6.621104025534488 -3.844452509698435 23.42650939289772
    vertex 5.89442821705989 -4.56225699350352 26
  endloop
endfacet
facet normal -0.949001 0.306057 -0.0756675
  outer loop
    vertex 9.380831519646819 -1.500000000000123 0
    vertex 8.31107589857637 -4.134939423400151 2.758876888119762
    vertex 9.084671242567831 -1.5 3.7143601497894
  endloop
endfacet
facet normal 0.392442 0.919239 -0.0314553
  outer loop
    vertex -5.405152974387286 -7.812446564519482 0
    vertex -2.583920391476655 -8.927134166615136 2.622992653550153
    vertex -1.903633457046846 -9.307318607483676 0
  endloop
endfacet
facet normal 0.899899 0.413424 -0.138791
  outer loop
    vertex -5.894428217060291 -4.562256993503002 26
    vertex -6.621104025534706 -3.844452509698034 23.42650939289787
    vertex -7.301265156179824 -1.49999999999967 26
  endloop
endfacet
facet normal -0.230244 0.964387 -0.130171
  outer loop
    vertex 0.3576042769216435 -9.236669087095985 3.258011320718545
    vertex 3.654958986121038 -8.561207820573637 2.429940190354571
    vertex 1.903633457046776 -9.30731860748369 0
  endloop
endfacet
facet normal -0.550297 0.822656 -0.142865
  outer loop
    vertex 5.405152974387221 -7.812446564519528 0
    vertex 3.654958986121038 -8.561207820573637 2.429940190354571
    vertex 6.673630370101347 -6.391446101098014 3.296513936671591
  endloop
endfacet
facet normal 0.722223 0.688354 -0.0675479
  outer loop
    vertex -6.508577852654809 -4.47763207611863 20.32930459527396
    vertex -4.784951055379493 -6.569940981374725 17.43643256646066
    vertex -6.863468023556066 -4.462872797473786 16.68521949086777
  endloop
endfacet
facet normal 0.413549 0.908589 -0.0586825
  outer loop
    vertex -4.873053688860002 -7.819949599089928 3.63365187557164
    vertex -2.583920391476655 -8.927134166615136 2.622992653550153
    vertex -5.405152974387286 -7.812446564519482 0
  endloop
endfacet
facet normal 0.954997 0.282737 -0.0896653
  outer loop
    vertex -9.084671242567831 -1.5 3.7143601497894
    vertex -8.158499993885075 -3.811744602543864 6.289222777799345
    vertex -8.579511029331988 -3.608550138317007 2.445884786300223
  endloop
endfacet
facet normal -0.943525 0.320343 -0.0845057
  outer loop
    vertex 8.788255946204908 -1.5 7.428699021999336
    vertex 8.038588036417378 -4.153618910445525 5.739592939921952
    vertex 7.726672705879936 -4.164172915946059 9.182186511504643
  endloop
endfacet
facet normal -0.571984 0.818319 -0.056458
  outer loop
    vertex 6.673630370101347 -6.391446101098014 3.296513936671591
    vertex 3.654958986121038 -8.561207820573637 2.429940190354571
    vertex 3.853831777790969 -8.221978555966331 5.332022648326522
  endloop
endfacet
facet normal -0.572638 0.817764 -0.0578636
  outer loop
    vertex 3.853831777790969 -8.221978555966331 5.332022648326522
    vertex 6.16734161353625 -6.482648836290713 7.017989601274863
    vertex 6.673630370101347 -6.391446101098014 3.296513936671591
  endloop
endfacet
facet normal 0.40119 0.911569 -0.0899396
  outer loop
    vertex -2.253218005399918 -8.754200924513224 5.850880502678205
    vertex -2.583920391476655 -8.927134166615136 2.622992653550153
    vertex -4.873053688860002 -7.819949599089928 3.63365187557164
  endloop
endfacet
facet normal 0.0523208 0.996932 -0.0582219
  outer loop
    vertex 1.165884330311165 -8.849033290041397 7.299624799947527
    vertex -2.253218005399918 -8.754200924513224 5.850880502678205
    vertex -1.818504814335971 -8.570712987037036 9.383388178203859
  endloop
endfacet
facet normal 0.867224 0.493124 -0.0689273
  outer loop
    vertex -8.579511029331988 -3.608550138317007 2.445884786300223
    vertex -8.158499993885075 -3.811744602543864 6.289222777799345
    vertex -7.462014927121359 -5.337188576710206 4.138779158565999
  endloop
endfacet
facet normal -0.747734 0.655592 -0.105319
  outer loop
    vertex 4.726977894574278 -6.052540195320008 23.12929413742949
    vertex 6.621104025534488 -3.844452509698435 23.42650939289772
    vertex 6.528355351315354 -4.455099604550217 20.28382905141886
  endloop
endfacet
facet normal -0.800744 0.591515 -0.094441
  outer loop
    vertex 6.673630370101347 -6.391446101098014 3.296513936671591
    vertex 6.16734161353625 -6.482648836290713 7.017989601274863
    vertex 8.038588036417378 -4.153618910445525 5.739592939921952
  endloop
endfacet
facet normal -0.929378 0.366524 -0.0437901
  outer loop
    vertex 6.528355351315354 -4.455099604550217 20.28382905141886
    vertex 6.621104025534488 -3.844452509698435 23.42650939289772
    vertex 7.59944666851479 -1.5 22.28580251214828
  endloop
endfacet
facet normal 0.951925 0.296764 -0.0759664
  outer loop
    vertex -8.788255946204908 -1.5 7.428699021999336
    vertex -8.158499993885075 -3.811744602543864 6.289222777799345
    vertex -9.084671242567831 -1.5 3.7143601497894
  endloop
endfacet
facet normal 0.378137 0.920927 -0.0943693
  outer loop
    vertex -1.818504814335971 -8.570712987037036 9.383388178203859
    vertex -2.253218005399918 -8.754200924513224 5.850880502678205
    vertex -4.629845645200901 -7.638893465143115 7.211761358438689
  endloop
endfacet
facet normal 0.929076 0.367566 -0.041389
  outer loop
    vertex -7.59944666851479 -1.5 22.28580251214828
    vertex -6.621104025534706 -3.844452509698034 23.42650939289787
    vertex -6.508577852654809 -4.47763207611863 20.32930459527396
  endloop
endfacet
facet normal 0.745833 0.657434 -0.107306
  outer loop
    vertex -6.508577852654809 -4.47763207611863 20.32930459527396
    vertex -6.621104025534706 -3.844452509698034 23.42650939289787
    vertex -4.694706742402278 -6.076389571901292 23.14152281513017
  endloop
endfacet
facet normal 0.309495 0.94987 -0.0442752
  outer loop
    vertex -1.736360049765729 -7.482218132200301 23.11194672302349
    vertex -1.08657152906028 -7.821760168168873 20.3696867201188
    vertex -3.757939364925833 -6.957830954708445 20.23064321726964
  endloop
endfacet
facet normal 0.935786 0.35256 -0.00264684
  outer loop
    vertex -9.380831519646845 -1.500000000000042 0
    vertex -8.579511029331988 -3.608550138317007 2.445884786300223
    vertex -8.038537166172263 -5.062797668094903 0
  endloop
endfacet
facet normal 0.721331 0.689929 -0.0606628
  outer loop
    vertex -6.863468023556066 -4.462872797473786 16.68521949086777
    vertex -4.784951055379493 -6.569940981374725 17.43643256646066
    vertex -4.715858911222327 -6.887009512182668 14.65191614690873
  endloop
endfacet
facet normal -0.392636 0.919694 0.000592999
  outer loop
    vertex 1.903633457046776 -9.30731860748369 0
    vertex 3.654958986121038 -8.561207820573637 2.429940190354571
    vertex 5.405152974387221 -7.812446564519528 0
  endloop
endfacet
facet normal -0.793399 0.604012 -0.0754163
  outer loop
    vertex 6.16734161353625 -6.482648836290713 7.017989601274863
    vertex 6.007620444155349 -6.246066659835218 10.59309219744146
    vertex 7.726672705879936 -4.164172915946059 9.182186511504643
  endloop
endfacet
facet normal 0.958249 0.275539 -0.0764049
  outer loop
    vertex -9.084671242567831 -1.5 3.7143601497894
    vertex -8.579511029331988 -3.608550138317007 2.445884786300223
    vertex -9.380831519646845 -1.500000000000042 0
  endloop
endfacet
facet normal -0.94734 0.308833 -0.0846675
  outer loop
    vertex 9.084671242567831 -1.5 3.7143601497894
    vertex 8.31107589857637 -4.134939423400151 2.758876888119762
    vertex 8.038588036417378 -4.153618910445525 5.739592939921952
  endloop
endfacet
facet normal -0.786041 0.616281 -0.0483472
  outer loop
    vertex 7.726672705879936 -4.164172915946059 9.182186511504643
    vertex 6.007620444155349 -6.246066659835218 10.59309219744146
    vertex 6.96905464149756 -4.837590312080871 12.91568459276347
  endloop
endfacet
facet normal -0.816719 0.566486 -0.109839
  outer loop
    vertex 6.673630370101347 -6.391446101098014 3.296513936671591
    vertex 8.31107589857637 -4.134939423400151 2.758876888119762
    vertex 8.038537166172219 -5.062797668094973 0
  endloop
endfacet
facet normal -0.591185 0.802606 -0.0795242
  outer loop
    vertex 4.261902430944516 -7.687815143593497 9.0198051635723
    vertex 6.007620444155349 -6.246066659835218 10.59309219744146
    vertex 6.16734161353625 -6.482648836290713 7.017989601274863
  endloop
endfacet
facet normal -0.756536 0.653197 -0.0314315
  outer loop
    vertex 5.89442821705989 -4.56225699350352 26
    vertex 6.621104025534488 -3.844452509698435 23.42650939289772
    vertex 4.726977894574278 -6.052540195320008 23.12929413742949
  endloop
endfacet
facet normal -0.574213 0.816871 -0.0547817
  outer loop
    vertex 4.261902430944516 -7.687815143593497 9.0198051635723
    vertex 6.16734161353625 -6.482648836290713 7.017989601274863
    vertex 3.853831777790969 -8.221978555966331 5.332022648326522
  endloop
endfacet
facet normal 0.127439 0.985747 -0.109825
  outer loop
    vertex -1.903633457046846 -9.307318607483676 0
    vertex -2.583920391476655 -8.927134166615136 2.622992653550153
    vertex 0.3576042769216435 -9.236669087095985 3.258011320718545
  endloop
endfacet
facet normal -0.596489 0.799493 -0.0707856
  outer loop
    vertex 4.305668434647234 -7.328174945397415 12.71298505499325
    vertex 6.007620444155349 -6.246066659835218 10.59309219744146
    vertex 4.261902430944516 -7.687815143593497 9.0198051635723
  endloop
endfacet
facet normal 0.754754 0.655306 -0.03034
  outer loop
    vertex -4.694706742402278 -6.076389571901292 23.14152281513017
    vertex -6.621104025534706 -3.844452509698034 23.42650939289787
    vertex -5.894428217060291 -4.562256993503002 26
  endloop
endfacet
facet normal -0.796113 0.601052 -0.070289
  outer loop
    vertex 8.038588036417378 -4.153618910445525 5.739592939921952
    vertex 6.16734161353625 -6.482648836290713 7.017989601274863
    vertex 7.726672705879936 -4.164172915946059 9.182186511504643
  endloop
endfacet
facet normal -0.815277 0.574711 -0.0709285
  outer loop
    vertex 8.038588036417378 -4.153618910445525 5.739592939921952
    vertex 8.31107589857637 -4.134939423400151 2.758876888119762
    vertex 6.673630370101347 -6.391446101098014 3.296513936671591
  endloop
endfacet
facet normal 0.118342 0.99083 -0.0652077
  outer loop
    vertex 0.3576042769216435 -9.236669087095985 3.258011320718545
    vertex -2.583920391476655 -8.927134166615136 2.622992653550153
    vertex -2.253218005399918 -8.754200924513224 5.850880502678205
  endloop
endfacet
facet normal -7.56595e-16 -9.27835e-16 -1
  outer loop
    vertex -5.894428217060291 -4.562256993503002 26
    vertex -1.876151972952435 -4.009889178439526 26
    vertex -3.282721749094738 -6.691951195194418 26
  endloop
endfacet
facet normal -2.74046e-16 -1.1809e-15 -1
  outer loop
    vertex -3.282721749094738 -6.691951195194418 26
    vertex -1.876151972952435 -4.009889178439526 26
    vertex -3.257622122888526e-13 -7.453755622559919 26
  endloop
endfacet
facet normal -9.83167e-16 7.20392e-16 -1
  outer loop
    vertex -3.650632578089977 -1.5 26
    vertex -1.876151972952435 -4.009889178439526 26
    vertex -5.894428217060291 -4.562256993503002 26
  endloop
endfacet
facet normal 0 0 -1
  outer loop
    vertex 5.89442821705989 -4.56225699350352 26
    vertex 3.650632578089716 -1.5 26
    vertex 7.301265156179565 -1.500000000000298 26
  endloop
endfacet
facet normal 0 0 -1
  outer loop
    vertex -5.894428217060291 -4.562256993503002 26
    vertex -7.301265156179824 -1.49999999999967 26
    vertex -3.650632578089977 -1.5 26
  endloop
endfacet
facet normal -1.81063e-16 -1.13025e-15 -1
  outer loop
    vertex -3.257622122888526e-13 -7.453755622559919 26
    vertex -1.876151972952435 -4.009889178439526 26
    vertex 1.038926110124001 -4.476877811279993 26
  endloop
endfacet
facet normal 0 1.19344e-15 -1
  outer loop
    vertex 3.650632578089716 -1.5 26
    vertex 1.038926110124001 -4.476877811279993 26
    vertex -1.296740492762183e-13 -1.5 26
  endloop
endfacet
facet normal -1.17204e-16 1.29626e-15 -1
  outer loop
    vertex 3.650632578089716 -1.5 26
    vertex 3.47129501403243 -4.25695089612698 26
    vertex 1.038926110124001 -4.476877811279993 26
  endloop
endfacet
facet normal 3.01362e-16 -1.29861e-15 -1
  outer loop
    vertex -3.257622122888526e-13 -7.453755622559919 26
    vertex 1.038926110124001 -4.476877811279993 26
    vertex 3.282721749094147 -6.691951195194708 26
  endloop
endfacet
facet normal 1.61529e-15 1.18357e-15 -1
  outer loop
    vertex 5.89442821705989 -4.56225699350352 26
    vertex 3.47129501403243 -4.25695089612698 26
    vertex 3.650632578089716 -1.5 26
  endloop
endfacet
facet normal 0 1.41549e-15 -1
  outer loop
    vertex -1.296740492762183e-13 -1.5 26
    vertex -1.876151972952435 -4.009889178439526 26
    vertex -3.650632578089977 -1.5 26
  endloop
endfacet
facet normal 1.26994e-15 -1.55737e-15 -1
  outer loop
    vertex 3.282721749094147 -6.691951195194708 26
    vertex 3.47129501403243 -4.25695089612698 26
    vertex 5.89442821705989 -4.56225699350352 26
  endloop
endfacet
facet normal 2.02508e-16 1.26411e-15 -1
  outer loop
    vertex 1.038926110124001 -4.476877811279993 26
    vertex -1.876151972952435 -4.009889178439526 26
    vertex -1.296740492762183e-13 -1.5 26
  endloop
endfacet
facet normal 1.3285e-16 -1.46931e-15 -1
  outer loop
    vertex 1.038926110124001 -4.476877811279993 26
    vertex 3.47129501403243 -4.25695089612698 26
    vertex 3.282721749094147 -6.691951195194708 26
  endloop
endfacet
facet normal -1.15787e-15 -1 2.08536e-15
  outer loop
    vertex 1.671241794901277 -1.499999999999999 22.40285355777994
    vertex -1.590505853551953 -1.500000000000002 19.31407719916258
    vertex 1.698842729556228 -1.500000000000008 18.15907405251727
  endloop
endfacet
facet normal -7.56569e-15 -1 8.5628e-15
  outer loop
    vertex -5.628498911788112 -1.500000000000058 0
    vertex -5.197742109098644 -1.50000000000003 3.699806202789107
    vertex -9.084671242567831 -1.5 3.7143601497894
  endloop
endfacet
facet normal -4.31978e-15 -1 1.15831e-14
  outer loop
    vertex -9.380831519646845 -1.500000000000042 0
    vertex -5.628498911788112 -1.500000000000058 0
    vertex -9.084671242567831 -1.5 3.7143601497894
  endloop
endfacet
facet normal -1.15391e-15 -1 2.08118e-15
  outer loop
    vertex -1.92847983157942 -1.499999999999994 22.86090450666656
    vertex -1.590505853551953 -1.500000000000002 19.31407719916258
    vertex 1.671241794901277 -1.499999999999999 22.40285355777994
  endloop
endfacet
facet normal -1.16803e-15 -1 2.02557e-15
  outer loop
    vertex -1.306663950965845 -1.500000000000016 12.23212228159525
    vertex -1.462042512697416 -1.500000000000009 15.65039716351773
    vertex -4.897078900263701 -1.500000000000011 12.79263965852607
  endloop
endfacet
facet normal -1.18942e-15 -1 2.07412e-15
  outer loop
    vertex 2.226882058449368 -1.500000000000032 6.79492866815791
    vertex -2.604655564557112 -1.500000000000027 6.379443811632737
    vertex 0.07889282249997803 -1.500000000000037 3.100889704559364
  endloop
endfacet
facet normal -1.21565e-15 -1 2.08281e-15
  outer loop
    vertex -4.897078900263701 -1.500000000000011 12.79263965852607
    vertex -1.462042512697416 -1.500000000000009 15.65039716351773
    vertex -4.829224361086846 -1.500000000000004 16.45691991864132
  endloop
endfacet
facet normal -1.15943e-15 -1 2.08535e-15
  outer loop
    vertex 4.584407112956786 -1.500000000000007 20.1893295984139
    vertex 1.671241794901277 -1.499999999999999 22.40285355777994
    vertex 1.698842729556228 -1.500000000000008 18.15907405251727
  endloop
endfacet
facet normal -1.18713e-15 -1 2.04749e-15
  outer loop
    vertex -0.457421667028033 -1.500000000000024 9.142672914533634
    vertex -2.604655564557112 -1.500000000000027 6.379443811632737
    vertex 2.226882058449368 -1.500000000000032 6.79492866815791
  endloop
endfacet
facet normal -1.17409e-15 -1 2.08459e-15
  outer loop
    vertex -2.604655564557112 -1.500000000000027 6.379443811632737
    vertex -2.956384486151011 -1.500000000000019 9.909443839327082
    vertex -5.516102347940363 -1.500000000000018 9.000340530347724
  endloop
endfacet
facet normal -1.22797e-15 -1 2.07922e-15
  outer loop
    vertex -0.457421667028033 -1.500000000000024 9.142672914533634
    vertex -2.956384486151011 -1.500000000000019 9.909443839327082
    vertex -2.604655564557112 -1.500000000000027 6.379443811632737
  endloop
endfacet
facet normal -1.14051e-15 -1 2.04568e-15
  outer loop
    vertex 0.07889282249997803 -1.500000000000037 3.100889704559364
    vertex 3.59647155179355 -1.500000000000041 2.999690775146568
    vertex 2.226882058449368 -1.500000000000032 6.79492866815791
  endloop
endfacet
facet normal -1.13939e-15 -1 2.12313e-15
  outer loop
    vertex -5.516102347940363 -1.500000000000018 9.000340530347724
    vertex -6.25287652870786 -1.500000000000023 6.304104590639383
    vertex -2.604655564557112 -1.500000000000027 6.379443811632737
  endloop
endfacet
facet normal -1.17832e-15 -1 2.03511e-15
  outer loop
    vertex -4.829224361086846 -1.500000000000004 16.45691991864132
    vertex -1.590505853551953 -1.500000000000002 19.31407719916258
    vertex -4.693372940405544 -1.499999999999996 20.35431399585265
  endloop
endfacet
facet normal -1.21667e-15 -1 2.07858e-15
  outer loop
    vertex -1.462042512697416 -1.500000000000009 15.65039716351773
    vertex -1.590505853551953 -1.500000000000002 19.31407719916258
    vertex -4.829224361086846 -1.500000000000004 16.45691991864132
  endloop
endfacet
facet normal 3.23317e-15 -1 2.36588e-15
  outer loop
    vertex 4.584407112956786 -1.500000000000007 20.1893295984139
    vertex 4.840801391669585 -1.500000000000015 16.46024471174677
    vertex 7.897192202403843 -1.5 18.57157052551642
  endloop
endfacet
facet normal -1.14501e-15 -1 2.06486e-15
  outer loop
    vertex 4.584407112956786 -1.500000000000007 20.1893295984139
    vertex 1.698842729556228 -1.500000000000008 18.15907405251727
    vertex 4.840801391669585 -1.500000000000015 16.46024471174677
  endloop
endfacet
facet normal 2.16248e-15 -1 1.73352e-16
  outer loop
    vertex 7.59944666851479 -1.5 22.28580251214828
    vertex 4.584407112956786 -1.500000000000007 20.1893295984139
    vertex 7.897192202403843 -1.5 18.57157052551642
  endloop
endfacet
facet normal 2.11347e-16 -1 1.98667e-15
  outer loop
    vertex -4.829224361086846 -1.500000000000004 16.45691991864132
    vertex -4.693372940405544 -1.499999999999996 20.35431399585265
    vertex -7.897192202403843 -1.5 18.57157052551642
  endloop
endfacet
facet normal 1.3783e-15 -1 -1.10489e-16
  outer loop
    vertex -7.897192202403843 -1.5 18.57157052551642
    vertex -4.693372940405544 -1.499999999999996 20.35431399585265
    vertex -7.59944666851479 -1.5 22.28580251214828
  endloop
endfacet
facet normal -1.14493e-15 -1 2.06501e-15
  outer loop
    vertex 4.840801391669585 -1.500000000000015 16.46024471174677
    vertex 1.698842729556228 -1.500000000000008 18.15907405251727
    vertex 1.807768460014529 -1.500000000000016 14.34849741971263
  endloop
endfacet
facet normal 4.61242e-15 -1 3.69262e-16
  outer loop
    vertex 7.897192202403843 -1.5 18.57157052551642
    vertex 4.840801391669585 -1.500000000000015 16.46024471174677
    vertex 8.194549339183904 -1.5 14.85730694785475
  endloop
endfacet
facet normal 5.67271e-15 -1 2.58766e-15
  outer loop
    vertex 8.194549339183904 -1.5 14.85730694785475
    vertex 4.840801391669585 -1.500000000000015 16.46024471174677
    vertex 5.127228334941977 -1.500000000000023 12.74320843548792
  endloop
endfacet
facet normal -4.26061e-15 -1 1.46446e-14
  outer loop
    vertex 1.876166303929354 -1.50000000000009 0
    vertex 0.07889282249997803 -1.500000000000037 3.100889704559364
    vertex -1.876166303929379 -1.500000000000074 0
  endloop
endfacet
facet normal -1.14314e-15 -1 2.06244e-15
  outer loop
    vertex 4.840801391669585 -1.500000000000015 16.46024471174677
    vertex 1.807768460014529 -1.500000000000016 14.34849741971263
    vertex 5.127228334941977 -1.500000000000023 12.74320843548792
  endloop
endfacet
facet normal 7.06674e-15 -1 5.65084e-16
  outer loop
    vertex 8.194549339183904 -1.5 14.85730694785475
    vertex 5.127228334941977 -1.500000000000023 12.74320843548792
    vertex 8.491558881300939 -1.5 11.14301499551362
  endloop
endfacet
facet normal -1.09744e-15 -1 8.78593e-17
  outer loop
    vertex -8.194549339183904 -1.5 14.85730694785475
    vertex -4.829224361086846 -1.500000000000004 16.45691991864132
    vertex -7.897192202403843 -1.5 18.57157052551642
  endloop
endfacet
facet normal -3.20636e-15 -1 2.56393e-16
  outer loop
    vertex -8.491558881300939 -1.5 11.14301499551362
    vertex -4.897078900263701 -1.500000000000011 12.79263965852607
    vertex -8.194549339183904 -1.5 14.85730694785475
  endloop
endfacet
facet normal -2.05306e-15 -1 2.09832e-15
  outer loop
    vertex -8.194549339183904 -1.5 14.85730694785475
    vertex -4.897078900263701 -1.500000000000011 12.79263965852607
    vertex -4.829224361086846 -1.500000000000004 16.45691991864132
  endloop
endfacet
facet normal 8.20547e-15 -1 2.95921e-15
  outer loop
    vertex 5.127228334941977 -1.500000000000023 12.74320843548792
    vertex 5.456940068801929 -1.500000000000031 9.052663403375982
    vertex 8.491558881300939 -1.5 11.14301499551362
  endloop
endfacet
facet normal 9.70961e-15 -1 7.75597e-16
  outer loop
    vertex 8.491558881300939 -1.5 11.14301499551362
    vertex 5.456940068801929 -1.500000000000031 9.052663403375982
    vertex 8.788255946204908 -1.5 7.428699021999336
  endloop
endfacet
facet normal -1.19095e-15 -1 2.06734e-15
  outer loop
    vertex 1.807768460014529 -1.500000000000016 14.34849741971263
    vertex -1.306663950965845 -1.500000000000016 12.23212228159525
    vertex 2.065702914156419 -1.500000000000024 10.63047221421967
  endloop
endfacet
facet normal -5.78643e-15 -1 4.62216e-16
  outer loop
    vertex -8.788255946204908 -1.5 7.428699021999336
    vertex -5.516102347940363 -1.500000000000018 9.000340530347724
    vertex -8.491558881300939 -1.5 11.14301499551362
  endloop
endfacet
facet normal 1.28913e-14 -1 1.02876e-15
  outer loop
    vertex 8.788255946204908 -1.5 7.428699021999336
    vertex 5.914247427528822 -1.500000000000039 5.455281613786497
    vertex 9.084671242567831 -1.5 3.7143601497894
  endloop
endfacet
facet normal -1.16422e-15 -1 2.12362e-15
  outer loop
    vertex -1.306663950965845 -1.500000000000016 12.23212228159525
    vertex -0.457421667028033 -1.500000000000024 9.142672914533634
    vertex 2.065702914156419 -1.500000000000024 10.63047221421967
  endloop
endfacet
facet normal -4.26832e-15 -1 2.57037e-15
  outer loop
    vertex -5.516102347940363 -1.500000000000018 9.000340530347724
    vertex -4.897078900263701 -1.500000000000011 12.79263965852607
    vertex -8.491558881300939 -1.5 11.14301499551362
  endloop
endfacet
facet normal -1.17376e-15 -1 2.12127e-15
  outer loop
    vertex 2.065702914156419 -1.500000000000024 10.63047221421967
    vertex 5.456940068801929 -1.500000000000031 9.052663403375982
    vertex 5.127228334941977 -1.500000000000023 12.74320843548792
  endloop
endfacet
facet normal -1.13903e-15 -1 2.07094e-15
  outer loop
    vertex 1.807768460014529 -1.500000000000016 14.34849741971263
    vertex 2.065702914156419 -1.500000000000024 10.63047221421967
    vertex 5.127228334941977 -1.500000000000023 12.74320843548792
  endloop
endfacet
facet normal 1.11028e-14 -1 3.63347e-15
  outer loop
    vertex 8.788255946204908 -1.5 7.428699021999336
    vertex 5.456940068801929 -1.500000000000031 9.052663403375982
    vertex 5.914247427528822 -1.500000000000039 5.455281613786497
  endloop
endfacet
facet normal -1.18734e-15 -1 2.09208e-15
  outer loop
    vertex 2.065702914156419 -1.500000000000024 10.63047221421967
    vertex 2.226882058449368 -1.500000000000032 6.79492866815791
    vertex 5.456940068801929 -1.500000000000031 9.052663403375982
  endloop
endfacet
facet normal -1.14663e-15 -1 2.09379e-15
  outer loop
    vertex -0.457421667028033 -1.500000000000024 9.142672914533634
    vertex 2.226882058449368 -1.500000000000032 6.79492866815791
    vertex 2.065702914156419 -1.500000000000024 10.63047221421967
  endloop
endfacet
facet normal -1.17389e-15 -1 2.07283e-15
  outer loop
    vertex 5.456940068801929 -1.500000000000031 9.052663403375982
    vertex 2.226882058449368 -1.500000000000032 6.79492866815791
    vertex 5.914247427528822 -1.500000000000039 5.455281613786497
  endloop
endfacet
facet normal -1.19028e-15 -1 2.02772e-15
  outer loop
    vertex 2.226882058449368 -1.500000000000032 6.79492866815791
    vertex 3.59647155179355 -1.500000000000041 2.999690775146568
    vertex 5.914247427528822 -1.500000000000039 5.455281613786497
  endloop
endfacet
facet normal 0 -1 -1.98059e-15
  outer loop
    vertex -3.650632578089977 -1.5 26
    vertex -1.92847983157942 -1.499999999999994 22.86090450666656
    vertex -1.296740492762183e-13 -1.5 26
  endloop
endfacet
facet normal 0 -1 -3.0864e-16
  outer loop
    vertex -1.296740492762183e-13 -1.5 26
    vertex 1.671241794901277 -1.499999999999999 22.40285355777994
    vertex 3.650632578089716 -1.5 26
  endloop
endfacet
facet normal -1.54961e-15 -1 -1.02859e-15
  outer loop
    vertex -1.92847983157942 -1.499999999999994 22.86090450666656
    vertex 1.671241794901277 -1.499999999999999 22.40285355777994
    vertex -1.296740492762183e-13 -1.5 26
  endloop
endfacet
facet normal 1.11408e-15 -1 7.55224e-15
  outer loop
    vertex -5.628498911788112 -1.500000000000058 0
    vertex -2.662006751267674 -1.500000000000035 2.620115435047106
    vertex -5.197742109098644 -1.50000000000003 3.699806202789107
  endloop
endfacet
facet normal -7.60003e-15 -1 -6.06595e-16
  outer loop
    vertex -5.197742109098644 -1.50000000000003 3.699806202789107
    vertex -6.25287652870786 -1.500000000000023 6.304104590639383
    vertex -9.084671242567831 -1.5 3.7143601497894
  endloop
endfacet
facet normal -1.16273e-15 -1 2.02581e-15
  outer loop
    vertex 1.807768460014529 -1.500000000000016 14.34849741971263
    vertex -1.462042512697416 -1.500000000000009 15.65039716351773
    vertex -1.306663950965845 -1.500000000000016 12.23212228159525
  endloop
endfacet
facet normal -1.16317e-15 -1 2.08029e-15
  outer loop
    vertex -4.693372940405544 -1.499999999999996 20.35431399585265
    vertex -1.590505853551953 -1.500000000000002 19.31407719916258
    vertex -1.92847983157942 -1.499999999999994 22.86090450666656
  endloop
endfacet
facet normal -4.31978e-15 -1 1.87623e-14
  outer loop
    vertex 5.628498911788087 -1.500000000000106 0
    vertex 3.59647155179355 -1.500000000000041 2.999690775146568
    vertex 1.876166303929354 -1.50000000000009 0
  endloop
endfacet
facet normal -1.14714e-15 -1 2.06495e-15
  outer loop
    vertex 1.698842729556228 -1.500000000000008 18.15907405251727
    vertex -1.462042512697416 -1.500000000000009 15.65039716351773
    vertex 1.807768460014529 -1.500000000000016 14.34849741971263
  endloop
endfacet
facet normal -2.71122e-14 -1 9.09539e-14
  outer loop
    vertex -7.59944666851479 -1.5 22.28580251214828
    vertex -4.777429548343567 -1.49999999999999 23.24174976422944
    vertex -7.301265156179824 -1.49999999999967 26
  endloop
endfacet
facet normal -2.76132e-14 -1 -8.24452e-14
  outer loop
    vertex 7.301265156179565 -1.500000000000298 26
    vertex 4.777429548343428 -1.500000000000001 23.24174976422938
    vertex 7.59944666851479 -1.5 22.28580251214828
  endloop
endfacet
facet normal -9.0323e-14 -1 3.31151e-14
  outer loop
    vertex -7.301265156179824 -1.49999999999967 26
    vertex -4.777429548343567 -1.49999999999999 23.24174976422944
    vertex -3.650632578089977 -1.5 26
  endloop
endfacet
facet normal -8.16253e-14 -1 -3.30234e-14
  outer loop
    vertex 3.650632578089716 -1.5 26
    vertex 4.777429548343428 -1.500000000000001 23.24174976422938
    vertex 7.301265156179565 -1.500000000000298 26
  endloop
endfacet
facet normal -4.31978e-15 -1 1.37044e-14
  outer loop
    vertex -1.876166303929379 -1.500000000000074 0
    vertex -2.662006751267674 -1.500000000000035 2.620115435047106
    vertex -5.628498911788112 -1.500000000000058 0
  endloop
endfacet
facet normal -8.79678e-15 -1 7.02009e-16
  outer loop
    vertex -9.084671242567831 -1.5 3.7143601497894
    vertex -6.25287652870786 -1.500000000000023 6.304104590639383
    vertex -8.788255946204908 -1.5 7.428699021999336
  endloop
endfacet
facet normal -4.31978e-15 -1 2.44632e-14
  outer loop
    vertex 9.380831519646819 -1.500000000000123 0
    vertex 6.512032997287752 -1.500000000000046 2.643026738305764
    vertex 5.628498911788087 -1.500000000000106 0
  endloop
endfacet
facet normal 3.82484e-15 -1 3.33036e-14
  outer loop
    vertex 9.084671242567831 -1.5 3.7143601497894
    vertex 6.512032997287752 -1.500000000000046 2.643026738305764
    vertex 9.380831519646819 -1.500000000000123 0
  endloop
endfacet
facet normal -7.18989e-16 -1 1.66973e-14
  outer loop
    vertex 1.876166303929354 -1.50000000000009 0
    vertex 3.59647155179355 -1.500000000000041 2.999690775146568
    vertex 0.07889282249997803 -1.500000000000037 3.100889704559364
  endloop
endfacet
facet normal -1.1371e-15 -1 2.01187e-15
  outer loop
    vertex -2.604655564557112 -1.500000000000027 6.379443811632737
    vertex -6.25287652870786 -1.500000000000023 6.304104590639383
    vertex -5.197742109098644 -1.50000000000003 3.699806202789107
  endloop
endfacet
facet normal -1.19766e-15 -1 2.11834e-15
  outer loop
    vertex -1.92847983157942 -1.499999999999994 22.86090450666656
    vertex -4.777429548343567 -1.49999999999999 23.24174976422944
    vertex -4.693372940405544 -1.499999999999996 20.35431399585265
  endloop
endfacet
facet normal -1.1942e-15 -1 2.0396e-15
  outer loop
    vertex 4.584407112956786 -1.500000000000007 20.1893295984139
    vertex 4.777429548343428 -1.500000000000001 23.24174976422938
    vertex 1.671241794901277 -1.499999999999999 22.40285355777994
  endloop
endfacet
facet normal -1.16145e-15 -1 2.06772e-15
  outer loop
    vertex -4.897078900263701 -1.500000000000011 12.79263965852607
    vertex -2.956384486151011 -1.500000000000019 9.909443839327082
    vertex -1.306663950965845 -1.500000000000016 12.23212228159525
  endloop
endfacet
facet normal 9.59504e-16 -1 1.90341e-15
  outer loop
    vertex 7.59944666851479 -1.5 22.28580251214828
    vertex 4.777429548343428 -1.500000000000001 23.24174976422938
    vertex 4.584407112956786 -1.500000000000007 20.1893295984139
  endloop
endfacet
facet normal 2.93972e-15 -1 2.23879e-15
  outer loop
    vertex -4.693372940405544 -1.499999999999996 20.35431399585265
    vertex -4.777429548343567 -1.49999999999999 23.24174976422944
    vertex -7.59944666851479 -1.5 22.28580251214828
  endloop
endfacet
facet normal 1.31517e-15 -1 2.25795e-14
  outer loop
    vertex 5.628498911788087 -1.500000000000106 0
    vertex 6.512032997287752 -1.500000000000046 2.643026738305764
    vertex 3.59647155179355 -1.500000000000041 2.999690775146568
  endloop
endfacet
facet normal -1.15955e-15 -1 2.08059e-15
  outer loop
    vertex 1.698842729556228 -1.500000000000008 18.15907405251727
    vertex -1.590505853551953 -1.500000000000002 19.31407719916258
    vertex -1.462042512697416 -1.500000000000009 15.65039716351773
  endloop
endfacet
facet normal -1.88376e-15 -1 -3.01404e-15
  outer loop
    vertex -3.650632578089977 -1.5 26
    vertex -4.777429548343567 -1.49999999999999 23.24174976422944
    vertex -1.92847983157942 -1.499999999999994 22.86090450666656
  endloop
endfacet
facet normal -6.57757e-16 -1 5.33019e-17
  outer loop
    vertex 1.671241794901277 -1.499999999999999 22.40285355777994
    vertex 4.777429548343428 -1.500000000000001 23.24174976422938
    vertex 3.650632578089716 -1.5 26
  endloop
endfacet
facet normal -1.16681e-15 -1 2.06411e-15
  outer loop
    vertex -5.516102347940363 -1.500000000000018 9.000340530347724
    vertex -2.956384486151011 -1.500000000000019 9.909443839327082
    vertex -4.897078900263701 -1.500000000000011 12.79263965852607
  endloop
endfacet
facet normal 1.53787e-14 -1 5.5587e-15
  outer loop
    vertex 5.914247427528822 -1.500000000000039 5.455281613786497
    vertex 6.512032997287752 -1.500000000000046 2.643026738305764
    vertex 9.084671242567831 -1.5 3.7143601497894
  endloop
endfacet
facet normal -3.26925e-15 -1 1.40195e-14
  outer loop
    vertex 0.07889282249997803 -1.500000000000037 3.100889704559364
    vertex -2.662006751267674 -1.500000000000035 2.620115435047106
    vertex -1.876166303929379 -1.500000000000074 0
  endloop
endfacet
facet normal -7.40677e-15 -1 3.83575e-15
  outer loop
    vertex -8.788255946204908 -1.5 7.428699021999336
    vertex -6.25287652870786 -1.500000000000023 6.304104590639383
    vertex -5.516102347940363 -1.500000000000018 9.000340530347724
  endloop
endfacet
facet normal -1.21896e-15 -1 2.10857e-15
  outer loop
    vertex -1.306663950965845 -1.500000000000016 12.23212228159525
    vertex -2.956384486151011 -1.500000000000019 9.909443839327082
    vertex -0.457421667028033 -1.500000000000024 9.142672914533634
  endloop
endfacet
facet normal -1.19806e-15 -1 2.03506e-15
  outer loop
    vertex 3.59647155179355 -1.500000000000041 2.999690775146568
    vertex 6.512032997287752 -1.500000000000046 2.643026738305764
    vertex 5.914247427528822 -1.500000000000039 5.455281613786497
  endloop
endfacet
facet normal -1.17588e-15 -1 2.08521e-15
  outer loop
    vertex 0.07889282249997803 -1.500000000000037 3.100889704559364
    vertex -2.604655564557112 -1.500000000000027 6.379443811632737
    vertex -2.662006751267674 -1.500000000000035 2.620115435047106
  endloop
endfacet
facet normal -1.21348e-15 -1 2.08579e-15
  outer loop
    vertex -2.662006751267674 -1.500000000000035 2.620115435047106
    vertex -2.604655564557112 -1.500000000000027 6.379443811632737
    vertex -5.197742109098644 -1.50000000000003 3.699806202789107
  endloop
endfacet
endsolid Created by Gmsh
