solid Created by Gmsh
facet normal -0.65761 0.750726 -0.0629303
  outer loop
    vertex 5.670051270796641 -4.426241064477016 16.60538235696862
    vertex 6.055522051646039 -4.399334012439005 12.89827293435657
    vertex 3.577721007396261 -6.503581335648043 13.68823815506266
  endloop
endfacet
facet normal -0.00460603 0.989192 -0.146552
  outer loop
    vertex -1.826710875314237 -6.671817492692995 20.10920834691456
    vertex 1.896716724381104 -6.649507586499636 20.14277023304025
    vertex -0.02879238004345951 -7.204994836246025 16.45386976492151
  endloop
endfacet
facet normal -0.53766 0.826738 -0.165611
  outer loop
    vertex 5.329160587901358 -4.388050115589964 20.2885626293276
    vertex 3.249323573698873 -6.369281714964139 17.15039692549552
    vertex 1.896716724381104 -6.649507586499636 20.14277023304025
  endloop
endfacet
facet normal -0.550672 0.834458 0.0209853
  outer loop
    vertex 3.205582266580693 -5.860734670763215 23.12380084376362
    vertex 5.329160587901358 -4.388050115589964 20.2885626293276
    vertex 1.896716724381104 -6.649507586499636 20.14277023304025
  endloop
endfacet
facet normal -0.39079 0.919661 -0.0388218
  outer loop
    vertex 4.805207363806677 -6.689346374466036 3.350059216969143
    vertex 1.465576555573245 -8.112413667085585 3.256152939608256
    vertex 2.110079786904044 -7.698282881203444 6.578891424701151
  endloop
endfacet
facet normal -0.63567 0.766692 -0.090036
  outer loop
    vertex 3.577721007396261 -6.503581335648043 13.68823815506266
    vertex 3.249323573698873 -6.369281714964139 17.15039692549552
    vertex 5.670051270796641 -4.426241064477016 16.60538235696862
  endloop
endfacet
facet normal 0.546398 0.837163 0.0246285
  outer loop
    vertex -3.202602623368829 -5.862458481379124 23.12274094689325
    vertex -1.826710875314237 -6.671817492692995 20.10920834691456
    vertex -5.316416538907101 -4.400218324639724 20.31500723338181
  endloop
endfacet
facet normal 0.376664 0.922089 -0.0887423
  outer loop
    vertex -1.683721566918378 -8.066780112410472 3.295703226250264
    vertex -4.438679557059788 -6.995440047173169 2.734262822489999
    vertex -4.472551434611921 -6.606146288582734 6.635504799500133
  endloop
endfacet
facet normal -0.439715 0.893843 -0.0877276
  outer loop
    vertex 2.110079786904044 -7.698282881203444 6.578891424701151
    vertex 4.809063299469334 -6.309783811283274 7.19803350106903
    vertex 4.805207363806677 -6.689346374466036 3.350059216969143
  endloop
endfacet
facet normal 0.26747 0.963524 -0.00898412
  outer loop
    vertex -0.02879238004345951 -7.204994836246025 16.45386976492151
    vertex -3.401528290676742 -6.259096715861466 17.48791993604574
    vertex -1.826710875314237 -6.671817492692995 20.10920834691456
  endloop
endfacet
facet normal -0.633653 0.770742 -0.0666386
  outer loop
    vertex 5.670051270796641 -4.426241064477016 16.60538235696862
    vertex 3.249323573698873 -6.369281714964139 17.15039692549552
    vertex 5.329160587901358 -4.388050115589964 20.2885626293276
  endloop
endfacet
facet normal 0.341097 0.931977 -0.122767
  outer loop
    vertex -4.472551434611921 -6.606146288582734 6.635504799500133
    vertex -0.9669639219326732 -7.963991134577337 6.067475859930894
    vertex -1.683721566918378 -8.066780112410472 3.295703226250264
  endloop
endfacet
facet normal -0.243177 0.969794 -0.0191026
  outer loop
    vertex 1.896716724381104 -6.649507586499636 20.14277023304025
    vertex 3.249323573698873 -6.369281714964139 17.15039692549552
    vertex -0.02879238004345951 -7.204994836246025 16.45386976492151
  endloop
endfacet
facet normal 0.528166 0.828318 -0.186893
  outer loop
    vertex -1.826710875314237 -6.671817492692995 20.10920834691456
    vertex -3.401528290676742 -6.259096715861466 17.48791993604574
    vertex -5.316416538907101 -4.400218324639724 20.31500723338181
  endloop
endfacet
facet normal 0.898441 0.430049 -0.0886642
  outer loop
    vertex -6.876684835334968 -1.5 18.57164179294588
    vertex -5.316416538907101 -4.400218324639724 20.31500723338181
    vertex -5.670051270796567 -4.426241064477109 16.60538235696862
  endloop
endfacet
facet normal 0.658532 0.749377 -0.0690606
  outer loop
    vertex -4.472551434611921 -6.606146288582734 6.635504799500133
    vertex -4.438679557059788 -6.995440047173169 2.734262822489999
    vertex -6.224827649790894 -5.290893997675181 4.198383245201654
  endloop
endfacet
facet normal -0.24415 0.958615 -0.14645
  outer loop
    vertex -6.652284188770249e-14 -6.683254633629686 23.08393857859792
    vertex 3.205582266580693 -5.860734670763215 23.12380084376362
    vertex 1.896716724381104 -6.649507586499636 20.14277023304025
  endloop
endfacet
facet normal 0.895817 0.438513 -0.0722346
  outer loop
    vertex -6.577188013981764 -1.5 22.28584855205365
    vertex -5.316416538907101 -4.400218324639724 20.31500723338181
    vertex -6.876684835334968 -1.5 18.57164179294588
  endloop
endfacet
facet normal -0.8988 0.429509 -0.0876405
  outer loop
    vertex 5.670051270796641 -4.426241064477016 16.60538235696862
    vertex 5.329160587901358 -4.388050115589964 20.2885626293276
    vertex 6.876684835334968 -1.5 18.57164179294588
  endloop
endfacet
facet normal 0.659757 0.746328 -0.0878333
  outer loop
    vertex -6.037268867145052 -4.414942879477002 12.96887702301785
    vertex -3.509197006650188 -6.463896711613513 14.54825949035826
    vertex -3.818413003547692 -6.619603460824965 10.90253566150719
  endloop
endfacet
facet normal -0.224486 0.973397 -0.0458693
  outer loop
    vertex -0.49977624373281 -7.500431586220342 12.48938682488157
    vertex -0.02879238004345951 -7.204994836246025 16.45386976492151
    vertex 3.577721007396261 -6.503581335648043 13.68823815506266
  endloop
endfacet
facet normal -0.896384 0.437346 -0.0722803
  outer loop
    vertex 6.876684835334968 -1.5 18.57164179294588
    vertex 5.329160587901358 -4.388050115589964 20.2885626293276
    vertex 6.577188013981764 -1.5 22.28584855205365
  endloop
endfacet
facet normal 0.671763 0.737831 -0.0658767
  outer loop
    vertex -6.037268867145052 -4.414942879477002 12.96887702301785
    vertex -3.818413003547692 -6.619603460824965 10.90253566150719
    vertex -6.384142735298091 -4.428767197269568 9.276872569398304
  endloop
endfacet
facet normal 0.903867 0.421585 -0.0727396
  outer loop
    vertex -6.876684835334968 -1.5 18.57164179294588
    vertex -5.670051270796567 -4.426241064477109 16.60538235696862
    vertex -7.175593095269946 -1.5 14.85738792236603
  endloop
endfacet
facet normal -0.903867 0.421585 -0.0727396
  outer loop
    vertex 7.175593095269946 -1.5 14.85738792236603
    vertex 5.670051270796641 -4.426241064477016 16.60538235696862
    vertex 6.876684835334968 -1.5 18.57164179294588
  endloop
endfacet
facet normal 0.914153 0.395843 -0.0873693
  outer loop
    vertex -7.473983392395297 -1.5 11.14309257217081
    vertex -6.037268867145052 -4.414942879477002 12.96887702301785
    vertex -6.384142735298091 -4.428767197269568 9.276872569398304
  endloop
endfacet
facet normal 0.652018 0.75554 -0.063494
  outer loop
    vertex -5.670051270796567 -4.426241064477109 16.60538235696862
    vertex -3.509197006650188 -6.463896711613513 14.54825949035826
    vertex -6.037268867145052 -4.414942879477002 12.96887702301785
  endloop
endfacet
facet normal -0.191012 0.96909 -0.156138
  outer loop
    vertex -0.49977624373281 -7.500431586220342 12.48938682488157
    vertex 3.577721007396261 -6.503581335648043 13.68823815506266
    vertex 2.48533832225178 -7.289276094193347 10.14809028739933
  endloop
endfacet
facet normal 0.284917 0.956345 -0.0650105
  outer loop
    vertex -3.818413003547692 -6.619603460824965 10.90253566150719
    vertex -3.509197006650188 -6.463896711613513 14.54825949035826
    vertex -0.49977624373281 -7.500431586220342 12.48938682488157
  endloop
endfacet
facet normal 0.230139 0.973103 -0.0103402
  outer loop
    vertex -3.807532976448281 -7.599519236981961 0
    vertex -1.683721566918378 -8.066780112410472 3.295703226250264
    vertex -3.175949093871713e-14 -8.5 0
  endloop
endfacet
facet normal -0.641593 0.766851 -0.017273
  outer loop
    vertex 3.807532976448224 -7.59951923698199 0
    vertex 4.805207363806677 -6.689346374466036 3.350059216969143
    vertex 6.808334141167426 -5.088868854884551 0
  endloop
endfacet
facet normal 0.299343 0.948967 -0.0992753
  outer loop
    vertex -3.818413003547692 -6.619603460824965 10.90253566150719
    vertex -0.49977624373281 -7.500431586220342 12.48938682488157
    vertex -0.9262050201434094 -7.753578662327676 8.783765063769302
  endloop
endfacet
facet normal 0.260536 0.960008 -0.102493
  outer loop
    vertex -0.49977624373281 -7.500431586220342 12.48938682488157
    vertex -3.509197006650188 -6.463896711613513 14.54825949035826
    vertex -0.02879238004345951 -7.204994836246025 16.45386976492151
  endloop
endfacet
facet normal -0.906631 0.411931 -0.091283
  outer loop
    vertex 7.175593095269946 -1.5 14.85738792236603
    vertex 6.055522051646039 -4.399334012439005 12.89827293435657
    vertex 5.670051270796641 -4.426241064477016 16.60538235696862
  endloop
endfacet
facet normal -0.113121 0.992071 -0.0547551
  outer loop
    vertex -0.49977624373281 -7.500431586220342 12.48938682488157
    vertex 2.48533832225178 -7.289276094193347 10.14809028739933
    vertex -0.9262050201434094 -7.753578662327676 8.783765063769302
  endloop
endfacet
facet normal 0.24394 0.95872 -0.146112
  outer loop
    vertex -6.652284188770249e-14 -6.683254633629686 23.08393857859792
    vertex -1.826710875314237 -6.671817492692995 20.10920834691456
    vertex -3.202602623368829 -5.862458481379124 23.12274094689325
  endloop
endfacet
facet normal -0.248449 0.968619 -0.00712485
  outer loop
    vertex 1.704281238650407 -6.224659596741657 26
    vertex 3.205582266580693 -5.860734670763215 23.12380084376362
    vertex -6.652284188770249e-14 -6.683254633629686 23.08393857859792
  endloop
endfacet
facet normal 0.248177 0.968687 -0.0072948
  outer loop
    vertex -6.652284188770249e-14 -6.683254633629686 23.08393857859792
    vertex -3.202602623368829 -5.862458481379124 23.12274094689325
    vertex -1.704281238650525 -6.224659596741624 26
  endloop
endfacet
facet normal -0.667175 0.730046 -0.148021
  outer loop
    vertex 6.055522051646039 -4.399334012439005 12.89827293435657
    vertex 4.804098331745225 -5.9385172457957 10.94750522726667
    vertex 3.577721007396261 -6.503581335648043 13.68823815506266
  endloop
endfacet
facet normal 0.333796 0.941412 -0.0482022
  outer loop
    vertex -3.818413003547692 -6.619603460824965 10.90253566150719
    vertex -0.9262050201434094 -7.753578662327676 8.783765063769302
    vertex -4.472551434611921 -6.606146288582734 6.635504799500133
  endloop
endfacet
facet normal -0.921553 0.381151 -0.0739191
  outer loop
    vertex 7.771915434048987 -1.5 7.428759738653042
    vertex 6.461243597410862 -4.328900694115497 9.182239309899863
    vertex 7.473983392395297 -1.5 11.14309257217081
  endloop
endfacet
facet normal 0.918415 0.388698 -0.0736674
  outer loop
    vertex -7.473983392395297 -1.5 11.14309257217081
    vertex -6.384142735298091 -4.428767197269568 9.276872569398304
    vertex -7.771915434048987 -1.5 7.428759738653042
  endloop
endfacet
facet normal 0.682668 0.723522 -0.102372
  outer loop
    vertex -3.818413003547692 -6.619603460824965 10.90253566150719
    vertex -4.472551434611921 -6.606146288582734 6.635504799500133
    vertex -6.384142735298091 -4.428767197269568 9.276872569398304
  endloop
endfacet
facet normal 0.911992 0.403612 -0.0732655
  outer loop
    vertex -7.175593095269946 -1.5 14.85738792236603
    vertex -6.037268867145052 -4.414942879477002 12.96887702301785
    vertex -7.473983392395297 -1.5 11.14309257217081
  endloop
endfacet
facet normal 0.906489 0.412471 -0.0902565
  outer loop
    vertex -5.670051270796567 -4.426241064477109 16.60538235696862
    vertex -6.037268867145052 -4.414942879477002 12.96887702301785
    vertex -7.175593095269946 -1.5 14.85738792236603
  endloop
endfacet
facet normal -0.915375 0.391829 -0.0925152
  outer loop
    vertex 6.461243597410862 -4.328900694115497 9.182239309899863
    vertex 6.055522051646039 -4.399334012439005 12.89827293435657
    vertex 7.473983392395297 -1.5 11.14309257217081
  endloop
endfacet
facet normal 9.52413e-15 0.987859 -0.155356
  outer loop
    vertex 1.704281238650407 -6.224659596741657 26
    vertex -6.652284188770249e-14 -6.683254633629686 23.08393857859792
    vertex -1.704281238650525 -6.224659596741624 26
  endloop
endfacet
facet normal -0.093311 0.990226 -0.103663
  outer loop
    vertex 2.48533832225178 -7.289276094193347 10.14809028739933
    vertex 2.110079786904044 -7.698282881203444 6.578891424701151
    vertex -0.9262050201434094 -7.753578662327676 8.783765063769302
  endloop
endfacet
facet normal -0.00605968 0.999953 0.00756569
  outer loop
    vertex -6.652284188770249e-14 -6.683254633629686 23.08393857859792
    vertex 1.896716724381104 -6.649507586499636 20.14277023304025
    vertex -1.826710875314237 -6.671817492692995 20.10920834691456
  endloop
endfacet
facet normal 0.664646 0.745017 -0.0565249
  outer loop
    vertex -6.224827649790894 -5.290893997675181 4.198383245201654
    vertex -4.438679557059788 -6.995440047173169 2.734262822489999
    vertex -6.808334141167486 -5.08886885488447 0
  endloop
endfacet
facet normal -0.503238 0.850113 -0.155113
  outer loop
    vertex 4.637444186040193 -4.488326309114098 26
    vertex 3.205582266580693 -5.860734670763215 23.12380084376362
    vertex 1.704281238650407 -6.224659596741657 26
  endloop
endfacet
facet normal -0.912648 0.402116 -0.0733182
  outer loop
    vertex 7.473983392395297 -1.5 11.14309257217081
    vertex 6.055522051646039 -4.399334012439005 12.89827293435657
    vertex 7.175593095269946 -1.5 14.85738792236603
  endloop
endfacet
facet normal 0.503243 0.850122 -0.155045
  outer loop
    vertex -1.704281238650525 -6.224659596741624 26
    vertex -3.202602623368829 -5.862458481379124 23.12274094689325
    vertex -4.637444186040279 -4.48832630911401 26
  endloop
endfacet
facet normal 0.940323 0.327004 -0.0941329
  outer loop
    vertex -6.928037373996737 -3.973228628943247 6.524584152700054
    vertex -7.427824409717805 -3.736597268129464 2.354078831970067
    vertex -8.069439836851926 -1.5 3.714395192376713
  endloop
endfacet
facet normal 0.642615 0.763288 -0.0666142
  outer loop
    vertex -5.316416538907101 -4.400218324639724 20.31500723338181
    vertex -3.401528290676742 -6.259096715861466 17.48791993604574
    vertex -5.670051270796567 -4.426241064477109 16.60538235696862
  endloop
endfacet
facet normal 0.0128216 0.992215 -0.123876
  outer loop
    vertex -1.683721566918378 -8.066780112410472 3.295703226250264
    vertex 1.465576555573245 -8.112413667085585 3.256152939608256
    vertex -3.175949093871713e-14 -8.5 0
  endloop
endfacet
facet normal -0.385335 0.913095 -0.133322
  outer loop
    vertex 3.807532976448224 -7.59951923698199 0
    vertex 1.465576555573245 -8.112413667085585 3.256152939608256
    vertex 4.805207363806677 -6.689346374466036 3.350059216969143
  endloop
endfacet
facet normal 0.826056 0.559561 -0.0672443
  outer loop
    vertex -6.224827649790894 -5.290893997675181 4.198383245201654
    vertex -7.427824409717805 -3.736597268129464 2.354078831970067
    vertex -6.928037373996737 -3.973228628943247 6.524584152700054
  endloop
endfacet
facet normal 0.836566 0.540378 -0.0902661
  outer loop
    vertex -6.808334141167486 -5.08886885488447 0
    vertex -7.427824409717805 -3.736597268129464 2.354078831970067
    vertex -6.224827649790894 -5.290893997675181 4.198383245201654
  endloop
endfacet
facet normal -0.446692 0.892973 -0.0553646
  outer loop
    vertex 2.48533832225178 -7.289276094193347 10.14809028739933
    vertex 4.809063299469334 -6.309783811283274 7.19803350106903
    vertex 2.110079786904044 -7.698282881203444 6.578891424701151
  endloop
endfacet
facet normal -0.927445 0.366506 -0.0742893
  outer loop
    vertex 8.069439836851926 -1.5 3.714395192376713
    vertex 6.794245152004942 -4.308767756376271 5.777199633307173
    vertex 7.771915434048987 -1.5 7.428759738653042
  endloop
endfacet
facet normal 0.247476 0.965881 -0.076355
  outer loop
    vertex -3.509197006650188 -6.463896711613513 14.54825949035826
    vertex -3.401528290676742 -6.259096715861466 17.48791993604574
    vertex -0.02879238004345951 -7.204994836246025 16.45386976492151
  endloop
endfacet
facet normal -0.917168 0.398229 -0.0147138
  outer loop
    vertex 6.808334141167426 -5.088868854884551 0
    vertex 7.187643741314812 -4.112445300299719 2.783067059925497
    vertex 8.366600265340736 -1.500000000000048 0
  endloop
endfacet
facet normal -0.910272 0.407422 -0.0735662
  outer loop
    vertex 6.577188013981764 -1.5 22.28584855205365
    vertex 5.440972407695711 -3.839690165666439 23.38723796477565
    vertex 6.277018530777448 -1.50000000000005 26
  endloop
endfacet
facet normal -0.936422 0.342784 -0.074916
  outer loop
    vertex 8.366600265340736 -1.500000000000048 0
    vertex 7.187643741314812 -4.112445300299719 2.783067059925497
    vertex 8.069439836851926 -1.5 3.714395192376713
  endloop
endfacet
facet normal 0.910272 0.407422 -0.0735662
  outer loop
    vertex -6.277018530777506 -1.499999999999928 26
    vertex -5.440972407696025 -3.839690165666006 23.38723796477557
    vertex -6.577188013981764 -1.5 22.28584855205365
  endloop
endfacet
facet normal -0.234624 0.970239 -0.0598912
  outer loop
    vertex -0.02879238004345951 -7.204994836246025 16.45386976492151
    vertex 3.249323573698873 -6.369281714964139 17.15039692549552
    vertex 3.577721007396261 -6.503581335648043 13.68823815506266
  endloop
endfacet
facet normal -0.478843 0.873566 -0.0871331
  outer loop
    vertex 2.48533832225178 -7.289276094193347 10.14809028739933
    vertex 4.804098331745225 -5.9385172457957 10.94750522726667
    vertex 4.809063299469334 -6.309783811283274 7.19803350106903
  endloop
endfacet
facet normal -0.866986 0.47568 -0.148542
  outer loop
    vertex 6.277018530777448 -1.50000000000005 26
    vertex 5.440972407695711 -3.839690165666439 23.38723796477565
    vertex 4.637444186040193 -4.488326309114098 26
  endloop
endfacet
facet normal 0.866986 0.47568 -0.148542
  outer loop
    vertex -4.637444186040279 -4.48832630911401 26
    vertex -5.440972407696025 -3.839690165666006 23.38723796477557
    vertex -6.277018530777506 -1.499999999999928 26
  endloop
endfacet
facet normal 0.725244 0.669627 -0.160066
  outer loop
    vertex -6.224827649790894 -5.290893997675181 4.198383245201654
    vertex -6.928037373996737 -3.973228628943247 6.524584152700054
    vertex -4.472551434611921 -6.606146288582734 6.635504799500133
  endloop
endfacet
facet normal 0.641543 0.766791 -0.02132
  outer loop
    vertex -6.808334141167486 -5.08886885488447 0
    vertex -4.438679557059788 -6.995440047173169 2.734262822489999
    vertex -3.807532976448281 -7.599519236981961 0
  endloop
endfacet
facet normal -0.230134 0.973082 -0.012246
  outer loop
    vertex -3.175949093871713e-14 -8.5 0
    vertex 1.465576555573245 -8.112413667085585 3.256152939608256
    vertex 3.807532976448224 -7.59951923698199 0
  endloop
endfacet
facet normal 0.935079 0.346436 -0.0749007
  outer loop
    vertex -7.771915434048987 -1.5 7.428759738653042
    vertex -6.928037373996737 -3.973228628943247 6.524584152700054
    vertex -8.069439836851926 -1.5 3.714395192376713
  endloop
endfacet
facet normal 0.731617 0.680971 -0.0318695
  outer loop
    vertex -4.472551434611921 -6.606146288582734 6.635504799500133
    vertex -6.928037373996737 -3.973228628943247 6.524584152700054
    vertex -6.384142735298091 -4.428767197269568 9.276872569398304
  endloop
endfacet
facet normal 0.349145 0.933852 -0.0775782
  outer loop
    vertex -0.9262050201434094 -7.753578662327676 8.783765063769302
    vertex -0.9669639219326732 -7.963991134577337 6.067475859930894
    vertex -4.472551434611921 -6.606146288582734 6.635504799500133
  endloop
endfacet
facet normal -0.923529 0.37327 -0.0881111
  outer loop
    vertex 7.771915434048987 -1.5 7.428759738653042
    vertex 6.794245152004942 -4.308767756376271 5.777199633307173
    vertex 6.461243597410862 -4.328900694115497 9.182239309899863
  endloop
endfacet
facet normal 0.013966 0.999075 -0.0406614
  outer loop
    vertex -1.683721566918378 -8.066780112410472 3.295703226250264
    vertex -0.9669639219326732 -7.963991134577337 6.067475859930894
    vertex 1.465576555573245 -8.112413667085585 3.256152939608256
  endloop
endfacet
facet normal -0.492329 0.869441 -0.0410444
  outer loop
    vertex 3.577721007396261 -6.503581335648043 13.68823815506266
    vertex 4.804098331745225 -5.9385172457957 10.94750522726667
    vertex 2.48533832225178 -7.289276094193347 10.14809028739933
  endloop
endfacet
facet normal -0.731462 0.678661 -0.0662098
  outer loop
    vertex 4.805207363806677 -6.689346374466036 3.350059216969143
    vertex 4.809063299469334 -6.309783811283274 7.19803350106903
    vertex 6.794245152004942 -4.308767756376271 5.777199633307173
  endloop
endfacet
facet normal -0.659719 0.743739 -0.107811
  outer loop
    vertex 3.205582266580693 -5.860734670763215 23.12380084376362
    vertex 5.440972407695711 -3.839690165666439 23.38723796477565
    vertex 5.329160587901358 -4.388050115589964 20.2885626293276
  endloop
endfacet
facet normal -0.0672533 0.991593 -0.110543
  outer loop
    vertex 1.465576555573245 -8.112413667085585 3.256152939608256
    vertex -0.9669639219326732 -7.963991134577337 6.067475859930894
    vertex 2.110079786904044 -7.698282881203444 6.578891424701151
  endloop
endfacet
facet normal 0.659357 0.743888 -0.10899
  outer loop
    vertex -5.316416538907101 -4.400218324639724 20.31500723338181
    vertex -5.440972407696025 -3.839690165666006 23.38723796477557
    vertex -3.202602623368829 -5.862458481379124 23.12274094689325
  endloop
endfacet
facet normal 0.906104 0.42115 -0.0401031
  outer loop
    vertex -6.577188013981764 -1.5 22.28584855205365
    vertex -5.440972407696025 -3.839690165666006 23.38723796477557
    vertex -5.316416538907101 -4.400218324639724 20.31500723338181
  endloop
endfacet
facet normal -0.906332 0.420504 -0.041711
  outer loop
    vertex 5.329160587901358 -4.388050115589964 20.2885626293276
    vertex 5.440972407695711 -3.839690165666439 23.38723796477565
    vertex 6.577188013981764 -1.5 22.28584855205365
  endloop
endfacet
facet normal 0.917194 0.398241 0.012601
  outer loop
    vertex -8.366600265340784 -1.499999999999922 0
    vertex -7.427824409717805 -3.736597268129464 2.354078831970067
    vertex -6.808334141167486 -5.08886885488447 0
  endloop
endfacet
facet normal 0.644475 0.760779 -0.0766065
  outer loop
    vertex -5.670051270796567 -4.426241064477109 16.60538235696862
    vertex -3.401528290676742 -6.259096715861466 17.48791993604574
    vertex -3.509197006650188 -6.463896711613513 14.54825949035826
  endloop
endfacet
facet normal 0.945342 0.31719 -0.0756296
  outer loop
    vertex -8.069439836851926 -1.5 3.714395192376713
    vertex -7.427824409717805 -3.736597268129464 2.354078831970067
    vertex -8.366600265340784 -1.499999999999922 0
  endloop
endfacet
facet normal -0.742128 0.657614 -0.129574
  outer loop
    vertex 4.805207363806677 -6.689346374466036 3.350059216969143
    vertex 7.187643741314812 -4.112445300299719 2.783067059925497
    vertex 6.808334141167426 -5.088868854884551 0
  endloop
endfacet
facet normal -0.731528 0.678397 -0.0681425
  outer loop
    vertex 4.809063299469334 -6.309783811283274 7.19803350106903
    vertex 4.804098331745225 -5.9385172457957 10.94750522726667
    vertex 6.461243597410862 -4.328900694115497 9.182239309899863
  endloop
endfacet
facet normal -0.931504 0.34987 -0.0994495
  outer loop
    vertex 8.069439836851926 -1.5 3.714395192376713
    vertex 7.187643741314812 -4.112445300299719 2.783067059925497
    vertex 6.794245152004942 -4.308767756376271 5.777199633307173
  endloop
endfacet
facet normal -0.669109 0.742857 -0.0213584
  outer loop
    vertex 4.637444186040193 -4.488326309114098 26
    vertex 5.440972407695711 -3.839690165666439 23.38723796477565
    vertex 3.205582266580693 -5.860734670763215 23.12380084376362
  endloop
endfacet
facet normal 0.668935 0.743016 -0.0212654
  outer loop
    vertex -3.202602623368829 -5.862458481379124 23.12274094689325
    vertex -5.440972407696025 -3.839690165666006 23.38723796477557
    vertex -4.637444186040279 -4.48832630911401 26
  endloop
endfacet
facet normal 0.380298 0.917691 -0.114961
  outer loop
    vertex -3.807532976448281 -7.599519236981961 0
    vertex -4.438679557059788 -6.995440047173169 2.734262822489999
    vertex -1.683721566918378 -8.066780112410472 3.295703226250264
  endloop
endfacet
facet normal -0.730957 0.679133 -0.0669346
  outer loop
    vertex 6.461243597410862 -4.328900694115497 9.182239309899863
    vertex 4.804098331745225 -5.9385172457957 10.94750522726667
    vertex 6.055522051646039 -4.399334012439005 12.89827293435657
  endloop
endfacet
facet normal -0.0732497 0.994419 -0.0759317
  outer loop
    vertex 2.110079786904044 -7.698282881203444 6.578891424701151
    vertex -0.9669639219326732 -7.963991134577337 6.067475859930894
    vertex -0.9262050201434094 -7.753578662327676 8.783765063769302
  endloop
endfacet
facet normal 0.924617 0.360472 -0.123056
  outer loop
    vertex -6.384142735298091 -4.428767197269568 9.276872569398304
    vertex -6.928037373996737 -3.973228628943247 6.524584152700054
    vertex -7.771915434048987 -1.5 7.428759738653042
  endloop
endfacet
facet normal -0.731861 0.678096 -0.0675642
  outer loop
    vertex 6.794245152004942 -4.308767756376271 5.777199633307173
    vertex 4.809063299469334 -6.309783811283274 7.19803350106903
    vertex 6.461243597410862 -4.328900694115497 9.182239309899863
  endloop
endfacet
facet normal -0.739028 0.671582 -0.0530658
  outer loop
    vertex 6.794245152004942 -4.308767756376271 5.777199633307173
    vertex 7.187643741314812 -4.112445300299719 2.783067059925497
    vertex 4.805207363806677 -6.689346374466036 3.350059216969143
  endloop
endfacet
facet normal -2.13391e-16 1.27716e-15 -1
  outer loop
    vertex 1.704281238650407 -6.224659596741657 26
    vertex -1.032292906658703 -3.900162184745324 26
    vertex 1.582196011476976 -3.463327605874658 26
  endloop
endfacet
facet normal 1.47354e-29 1.52838e-15 -1
  outer loop
    vertex -1.704281238650525 -6.224659596741624 26
    vertex -1.032292906658703 -3.900162184745324 26
    vertex 1.704281238650407 -6.224659596741657 26
  endloop
endfacet
facet normal 0 0 -1
  outer loop
    vertex -4.637444186040279 -4.48832630911401 26
    vertex -6.277018530777506 -1.499999999999928 26
    vertex -3.138509265388768 -1.5 26
  endloop
endfacet
facet normal 0 0 -1
  outer loop
    vertex 3.138509265388709 -1.5 26
    vertex 6.277018530777448 -1.50000000000005 26
    vertex 4.637444186040193 -4.488326309114098 26
  endloop
endfacet
facet normal -1.39809e-15 -7.01279e-16 -1
  outer loop
    vertex 4.637444186040193 -4.488326309114098 26
    vertex 1.582196011476976 -3.463327605874658 26
    vertex 3.138509265388709 -1.5 26
  endloop
endfacet
facet normal 1.07329e-15 -5.38356e-16 -1
  outer loop
    vertex -3.138509265388768 -1.5 26
    vertex -1.032292906658703 -3.900162184745324 26
    vertex -4.637444186040279 -4.48832630911401 26
  endloop
endfacet
facet normal 7.72543e-16 1.30505e-15 -1
  outer loop
    vertex -4.637444186040279 -4.48832630911401 26
    vertex -1.032292906658703 -3.900162184745324 26
    vertex -1.704281238650525 -6.224659596741624 26
  endloop
endfacet
facet normal -7.42195e-16 1.25378e-15 -1
  outer loop
    vertex 1.704281238650407 -6.224659596741657 26
    vertex 1.582196011476976 -3.463327605874658 26
    vertex 4.637444186040193 -4.488326309114098 26
  endloop
endfacet
facet normal -0 -1.80954e-15 -1
  outer loop
    vertex 3.138509265388709 -1.5 26
    vertex 1.582196011476976 -3.463327605874658 26
    vertex -2.842170943040401e-14 -1.5 26
  endloop
endfacet
facet normal -0 -1.4802e-15 -1
  outer loop
    vertex -2.842170943040401e-14 -1.5 26
    vertex -1.032292906658703 -3.900162184745324 26
    vertex -3.138509265388768 -1.5 26
  endloop
endfacet
facet normal 2.66463e-16 -1.5948e-15 -1
  outer loop
    vertex 1.582196011476976 -3.463327605874658 26
    vertex -1.032292906658703 -3.900162184745324 26
    vertex -2.842170943040401e-14 -1.5 26
  endloop
endfacet
endsolid Created by Gmsh
