solid Created by Gmsh
facet normal -0.529398 0.844849 -0.0772564
  outer loop
    vertex 3.18097367098447 -8.682288591309819 9.572087107338991
    vertex 6.401607409132986 -6.622296862422448 10.03011192831892
    vertex 6.572167660087038 -6.809800151684741 6.810881618792433
  endloop
endfacet
facet normal -0.552256 0.825186 -0.118665
  outer loop
    vertex 6.572167660087038 -6.809800151684741 6.810881618792433
    vertex 3.967503348011378 -8.651611804708077 6.124960957655446
    vertex 3.18097367098447 -8.682288591309819 9.572087107338991
  endloop
endfacet
facet normal 0.0388336 0.994542 -0.0968358
  outer loop
    vertex -1.723478280176015 -9.605973867654415 3.057618686932539
    vertex -2.106336444313457 -9.231537720522832 6.749691306593608
    vertex 1.372681201051266 -9.374916605525485 6.672306352453564
  endloop
endfacet
facet normal -0.705748 0.708414 -0.00833304
  outer loop
    vertex 7.686763345876093 -4.752949049902826 12.22940631492766
    vertex 4.794208843207071 -7.630782524456611 12.55574904417029
    vertex 5.997010749132506 -6.396021457821334 15.65737414644765
  endloop
endfacet
facet normal -0.00611905 0.998265 -0.0585696
  outer loop
    vertex 1.372681201051266 -9.374916605525485 6.672306352453564
    vertex 1.831321191717647 -9.579221119915152 3.142207116979826
    vertex -1.723478280176015 -9.605973867654415 3.057618686932539
  endloop
endfacet
facet normal -0.641362 0.765628 -0.0496786
  outer loop
    vertex 6.572167660087038 -6.809800151684741 6.810881618792433
    vertex 7.444181634017063 -6.336374958772793 2.849236594015174
    vertex 4.955436681322395 -8.407660710667543 3.057618686932422
  endloop
endfacet
facet normal -0.704376 0.68831 -0.173446
  outer loop
    vertex 7.686763345876093 -4.752949049902826 12.22940631492766
    vertex 6.401607409132986 -6.622296862422448 10.03011192831892
    vertex 4.794208843207071 -7.630782524456611 12.55574904417029
  endloop
endfacet
facet normal 0.721604 0.692055 -0.0186579
  outer loop
    vertex -7.704049951237983 -4.718712052386188 12.27034492821111
    vertex -6.278645555343404 -6.111739324828508 15.7287562186021
    vertex -5.120683034618398 -7.400388378197229 12.71528093426175
  endloop
endfacet
facet normal -0.690115 0.71167 -0.131402
  outer loop
    vertex 7.048900876522884 -4.757080421275163 19.00937750455751
    vertex 5.997010749132506 -6.396021457821334 15.65737414644765
    vertex 4.617820478403733 -7.168068946084302 18.71940657261483
  endloop
endfacet
facet normal 0.775167 0.630901 -0.0328766
  outer loop
    vertex -8.748717852015968 -4.843545803006006 0
    vertex -7.253868997125236 -6.514514279920712 3.179801584142016
    vertex -6.519202405202851 -7.582875444051377 0
  endloop
endfacet
facet normal -0.553717 0.82504 -0.112725
  outer loop
    vertex 4.955436681322395 -8.407660710667543 3.057618686932422
    vertex 3.967503348011378 -8.651611804708077 6.124960957655446
    vertex 6.572167660087038 -6.809800151684741 6.810881618792433
  endloop
endfacet
facet normal 0.838908 0.532029 -0.114798
  outer loop
    vertex -8.748717852015968 -4.843545803006006 0
    vertex -8.971574414899615 -3.940029318500964 2.558759554542426
    vertex -7.253868997125236 -6.514514279920712 3.179801584142016
  endloop
endfacet
facet normal -0.805743 0.591159 -0.0361936
  outer loop
    vertex 7.048900876522884 -4.757080421275163 19.00937750455751
    vertex 7.895372394530006 -3.806491520452562 15.69139602650052
    vertex 5.997010749132506 -6.396021457821334 15.65737414644765
  endloop
endfacet
facet normal -0.183707 0.97421 -0.13102
  outer loop
    vertex -0.112243023947052 -8.275888965798112 21.89723682050104
    vertex 3.104931842724208 -7.67723626554514 21.8376717393156
    vertex 1.596334831208402 -8.368482415093091 18.81310020037127
  endloop
endfacet
facet normal -0.800661 0.588437 -0.112625
  outer loop
    vertex 5.997010749132506 -6.396021457821334 15.65737414644765
    vertex 7.895372394530006 -3.806491520452562 15.69139602650052
    vertex 7.686763345876093 -4.752949049902826 12.22940631492766
  endloop
endfacet
facet normal -0.811878 0.573335 -0.110191
  outer loop
    vertex 8.596473881776364 -4.247220463530142 5.229323724815906
    vertex 7.444181634017063 -6.336374958772793 2.849236594015174
    vertex 6.572167660087038 -6.809800151684741 6.810881618792433
  endloop
endfacet
facet normal -0.183358 0.982671 -0.0271442
  outer loop
    vertex 1.772846648793468 -7.840556848220118 24.923351247914
    vertex 3.104931842724208 -7.67723626554514 21.8376717393156
    vertex -0.112243023947052 -8.275888965798112 21.89723682050104
  endloop
endfacet
facet normal -0.176524 0.983873 -0.0288718
  outer loop
    vertex -2.061180067297498e-13 -10 0
    vertex 1.831321191717647 -9.579221119915152 3.142207116979826
    vertex 3.476438231831693 -9.376266699505669 0
  endloop
endfacet
facet normal -0.434949 0.889396 -0.140693
  outer loop
    vertex 5.106262006319886 -6.204615490855894 24.95983321139365
    vertex 3.104931842724208 -7.67723626554514 21.8376717393156
    vertex 1.772846648793468 -7.840556848220118 24.923351247914
  endloop
endfacet
facet normal -0.440493 0.897724 -0.00763425
  outer loop
    vertex 5.106262006319886 -6.204615490855894 24.95983321139365
    vertex 1.772846648793468 -7.840556848220118 24.923351247914
    vertex 3.454634153883551 -6.989178108204694 28
  endloop
endfacet
facet normal 0.822678 0.556796 -0.114798
  outer loop
    vertex -7.704049951237983 -4.718712052386188 12.27034492821111
    vertex -8.007072273506235 -3.563813509710456 15.70031880244162
    vertex -6.278645555343404 -6.111739324828508 15.7287562186021
  endloop
endfacet
facet normal -0.369822 0.928687 -0.0277854
  outer loop
    vertex 3.104931842724208 -7.67723626554514 21.8376717393156
    vertex 4.617820478403733 -7.168068946084302 18.71940657261483
    vertex 1.596334831208402 -8.368482415093091 18.81310020037127
  endloop
endfacet
facet normal 0.724781 0.676898 -0.128457
  outer loop
    vertex -5.120683034618398 -7.400388378197229 12.71528093426175
    vertex -5.978333089349137 -7.024897948377395 9.854861900489226
    vertex -7.704049951237983 -4.718712052386188 12.27034492821111
  endloop
endfacet
facet normal 0.438651 0.887449 -0.141492
  outer loop
    vertex -3.269441430452926 -7.606684624545107 21.86042827239701
    vertex -5.106262006320032 -6.204615490855774 24.95983321139363
    vertex -1.828277848531793 -7.824868380690046 24.95983321139363
  endloop
endfacet
facet normal 0.712415 0.689659 -0.12975
  outer loop
    vertex -7.175434264516594 -4.549168475883711 19.11030039243843
    vertex -4.850072037976614 -7.000797317238866 18.84697700427451
    vertex -6.278645555343404 -6.111739324828508 15.7287562186021
  endloop
endfacet
facet normal -0.351359 0.92799 -0.124017
  outer loop
    vertex 3.476438231831693 -9.376266699505669 0
    vertex 1.831321191717647 -9.579221119915152 3.142207116979826
    vertex 4.955436681322395 -8.407660710667543 3.057618686932422
  endloop
endfacet
facet normal 0.44309 0.896428 -0.00937939
  outer loop
    vertex -1.828277848531793 -7.824868380690046 24.95983321139363
    vertex -5.106262006320032 -6.204615490855774 24.95983321139363
    vertex -3.454634153883709 -6.989178108204616 28
  endloop
endfacet
facet normal -0.538212 0.842788 -0.00601088
  outer loop
    vertex 4.794208843207071 -7.630782524456611 12.55574904417029
    vertex 6.401607409132986 -6.622296862422448 10.03011192831892
    vertex 3.18097367098447 -8.682288591309819 9.572087107338991
  endloop
endfacet
facet normal -0.225164 0.963682 -0.143591
  outer loop
    vertex 3.454634153883551 -6.989178108204694 28
    vertex 1.772846648793468 -7.840556848220118 24.923351247914
    vertex -8.452678807868061e-14 -7.796352208910681 28
  endloop
endfacet
facet normal -0.00436281 0.991475 -0.130228
  outer loop
    vertex -1.723478280176015 -9.605973867654415 3.057618686932539
    vertex 1.831321191717647 -9.579221119915152 3.142207116979826
    vertex -2.061180067297498e-13 -10 0
  endloop
endfacet
facet normal 0.799438 0.596556 -0.0708527
  outer loop
    vertex -8.232019865488478 -4.355798192280734 8.724278405357428
    vertex -6.565506299040054 -6.814997520813891 6.822093874353488
    vertex -8.539591019959305 -4.354913689428775 5.261368168623985
  endloop
endfacet
facet normal 0.946095 0.312819 -0.083951
  outer loop
    vertex -9.329260017924641 -1.5 7.000116005255663
    vertex -8.232019865488478 -4.355798192280734 8.724278405357428
    vertex -8.539591019959305 -4.354913689428775 5.261368168623985
  endloop
endfacet
facet normal 0.00285088 0.989554 -0.144132
  outer loop
    vertex 1.772846648793468 -7.840556848220118 24.923351247914
    vertex -0.112243023947052 -8.275888965798112 21.89723682050104
    vertex -1.828277848531793 -7.824868380690046 24.95983321139363
  endloop
endfacet
facet normal 0.207584 0.977825 -0.0276882
  outer loop
    vertex -0.112243023947052 -8.275888965798112 21.89723682050104
    vertex -3.269441430452926 -7.606684624545107 21.86042827239701
    vertex -1.828277848531793 -7.824868380690046 24.95983321139363
  endloop
endfacet
facet normal 0.20705 0.969694 -0.129705
  outer loop
    vertex -0.112243023947052 -8.275888965798112 21.89723682050104
    vertex -1.920329017079595 -8.296729549530719 18.85516576079554
    vertex -3.269441430452926 -7.606684624545107 21.86042827239701
  endloop
endfacet
facet normal 0.00423538 0.99992 -0.0119261
  outer loop
    vertex -8.452678807868061e-14 -7.796352208910681 28
    vertex 1.772846648793468 -7.840556848220118 24.923351247914
    vertex -1.828277848531793 -7.824868380690046 24.95983321139363
  endloop
endfacet
facet normal 0.628791 0.764043 -0.144429
  outer loop
    vertex -3.454634153883709 -6.989178108204616 28
    vertex -5.106262006320032 -6.204615490855774 24.95983321139363
    vertex -6.193936023717269 -4.734792952124091 28
  endloop
endfacet
facet normal 0.225136 0.963563 -0.144429
  outer loop
    vertex -8.452678807868061e-14 -7.796352208910681 28
    vertex -1.828277848531793 -7.824868380690046 24.95983321139363
    vertex -3.454634153883709 -6.989178108204616 28
  endloop
endfacet
facet normal -0.628791 0.764043 -0.144429
  outer loop
    vertex 6.193936023717152 -4.734792952124245 28
    vertex 5.106262006319886 -6.204615490855894 24.95983321139365
    vertex 3.454634153883551 -6.989178108204694 28
  endloop
endfacet
facet normal 0.0201706 0.999619 -0.0188368
  outer loop
    vertex -0.112243023947052 -8.275888965798112 21.89723682050104
    vertex 1.596334831208402 -8.368482415093091 18.81310020037127
    vertex -1.920329017079595 -8.296729549530719 18.85516576079554
  endloop
endfacet
facet normal 0.224689 0.974212 -0.020652
  outer loop
    vertex -0.2253069133735732 -8.751992284584512 15.82059845616926
    vertex -3.636425370206531 -7.965689530831596 15.80052333088332
    vertex -1.920329017079595 -8.296729549530719 18.85516576079554
  endloop
endfacet
facet normal 0.402659 0.906027 -0.130307
  outer loop
    vertex -3.42108759052904 -8.565736636085258 9.864486086632574
    vertex -5.120683034618398 -7.400388378197229 12.71528093426175
    vertex -2.036465132745433 -8.759116017588612 12.79850057219988
  endloop
endfacet
facet normal 0.176532 0.983917 -0.0272893
  outer loop
    vertex -3.47643823183208 -9.376266699505525 0
    vertex -1.723478280176015 -9.605973867654415 3.057618686932539
    vertex -2.061180067297498e-13 -10 0
  endloop
endfacet
facet normal 0.0185513 0.990231 -0.138198
  outer loop
    vertex 1.596334831208402 -8.368482415093091 18.81310020037127
    vertex -0.2253069133735732 -8.751992284584512 15.82059845616926
    vertex -1.920329017079595 -8.296729549530719 18.85516576079554
  endloop
endfacet
facet normal -0.507573 0.861176 -0.0272893
  outer loop
    vertex 3.476438231831693 -9.376266699505669 0
    vertex 4.955436681322395 -8.407660710667543 3.057618686932422
    vertex 6.519202405202518 -7.582875444051663 0
  endloop
endfacet
facet normal -0.532706 0.836786 -0.126544
  outer loop
    vertex 5.997010749132506 -6.396021457821334 15.65737414644765
    vertex 4.794208843207071 -7.630782524456611 12.55574904417029
    vertex 3.243304339866277 -8.141673711489382 15.70618994352854
  endloop
endfacet
facet normal -0.535554 0.844023 -0.028414
  outer loop
    vertex 4.617820478403733 -7.168068946084302 18.71940657261483
    vertex 5.997010749132506 -6.396021457821334 15.65737414644765
    vertex 3.243304339866277 -8.141673711489382 15.70618994352854
  endloop
endfacet
facet normal -0.173907 0.984553 -0.0203141
  outer loop
    vertex 1.596334831208402 -8.368482415093091 18.81310020037127
    vertex 3.243304339866277 -8.141673711489382 15.70618994352854
    vertex -0.2253069133735732 -8.751992284584512 15.82059845616926
  endloop
endfacet
facet normal -0.352585 0.935524 -0.0218618
  outer loop
    vertex 3.243304339866277 -8.141673711489382 15.70618994352854
    vertex 4.794208843207071 -7.630782524456611 12.55574904417029
    vertex 1.484500740560202 -8.873783018633024 12.74308161018439
  endloop
endfacet
facet normal 0.0322016 0.999247 -0.021654
  outer loop
    vertex 1.484500740560202 -8.873783018633024 12.74308161018439
    vertex -2.036465132745433 -8.759116017588612 12.79850057219988
    vertex -0.2253069133735732 -8.751992284584512 15.82059845616926
  endloop
endfacet
facet normal -0.369593 0.920232 -0.128743
  outer loop
    vertex 1.596334831208402 -8.368482415093091 18.81310020037127
    vertex 4.617820478403733 -7.168068946084302 18.71940657261483
    vertex 3.243304339866277 -8.141673711489382 15.70618994352854
  endloop
endfacet
facet normal 0.57205 0.810371 -0.126721
  outer loop
    vertex -5.120683034618398 -7.400388378197229 12.71528093426175
    vertex -6.278645555343404 -6.111739324828508 15.7287562186021
    vertex -3.636425370206531 -7.965689530831596 15.80052333088332
  endloop
endfacet
facet normal 0.208177 0.977506 -0.033816
  outer loop
    vertex -0.3368912053455357 -9.226545376021608 9.749549359125506
    vertex -3.42108759052904 -8.565736636085258 9.864486086632574
    vertex -2.036465132745433 -8.759116017588612 12.79850057219988
  endloop
endfacet
facet normal 0.223292 0.965204 -0.136095
  outer loop
    vertex -2.036465132745433 -8.759116017588612 12.79850057219988
    vertex -3.636425370206531 -7.965689530831596 15.80052333088332
    vertex -0.2253069133735732 -8.751992284584512 15.82059845616926
  endloop
endfacet
facet normal -0.176035 0.974891 -0.136382
  outer loop
    vertex 3.243304339866277 -8.141673711489382 15.70618994352854
    vertex 1.484500740560202 -8.873783018633024 12.74308161018439
    vertex -0.2253069133735732 -8.751992284584512 15.82059845616926
  endloop
endfacet
facet normal -0.355052 0.925181 -0.134081
  outer loop
    vertex 1.484500740560202 -8.873783018633024 12.74308161018439
    vertex 4.794208843207071 -7.630782524456611 12.55574904417029
    vertex 3.18097367098447 -8.682288591309819 9.572087107338991
  endloop
endfacet
facet normal 0.403613 0.914543 -0.0266017
  outer loop
    vertex -5.120683034618398 -7.400388378197229 12.71528093426175
    vertex -3.636425370206531 -7.965689530831596 15.80052333088332
    vertex -2.036465132745433 -8.759116017588612 12.79850057219988
  endloop
endfacet
facet normal 0.0301282 0.990382 -0.135039
  outer loop
    vertex 1.484500740560202 -8.873783018633024 12.74308161018439
    vertex -0.3368912053455357 -9.226545376021608 9.749549359125506
    vertex -2.036465132745433 -8.759116017588612 12.79850057219988
  endloop
endfacet
facet normal 0.933933 0.34959 -0.0745366
  outer loop
    vertex -8.770821412808683 -1.5 14.00016402266388
    vertex -7.704049951237983 -4.718712052386188 12.27034492821111
    vertex -9.050155311453739 -1.5 10.50014844409077
  endloop
endfacet
facet normal -0.153973 0.987814 -0.0227217
  outer loop
    vertex 1.484500740560202 -8.873783018633024 12.74308161018439
    vertex 3.18097367098447 -8.682288591309819 9.572087107338991
    vertex -0.3368912053455357 -9.226545376021608 9.749549359125506
  endloop
endfacet
facet normal -0.933206 0.351537 -0.0744786
  outer loop
    vertex 9.050155311453736 -1.5 10.50014844409081
    vertex 7.686763345876093 -4.752949049902826 12.22940631492766
    vertex 8.770821412808679 -1.5 14.00016402266392
  endloop
endfacet
facet normal -0.158142 0.978142 -0.135018
  outer loop
    vertex 3.18097367098447 -8.682288591309819 9.572087107338991
    vertex 1.372681201051266 -9.374916605525485 6.672306352453564
    vertex -0.3368912053455357 -9.226545376021608 9.749549359125506
  endloop
endfacet
facet normal -0.950213 0.302262 -0.0757161
  outer loop
    vertex 9.608155667661325 -1.5 3.500066102697573
    vertex 8.596473881776364 -4.247220463530142 5.229323724815906
    vertex 9.329260017924636 -1.5 7.000116005255705
  endloop
endfacet
facet normal 0.948279 0.308314 -0.075562
  outer loop
    vertex -9.329260017924641 -1.5 7.000116005255663
    vertex -8.539591019959305 -4.354913689428775 5.261368168623985
    vertex -9.608155667661331 -1.5 3.500066102697517
  endloop
endfacet
facet normal 0.929298 0.361779 -0.074308
  outer loop
    vertex -8.2113729620882 -1.5 21.00013165433879
    vertex -7.175434264516594 -4.549168475883711 19.11030039243843
    vertex -8.491235875216802 -1.5 17.50015897028011
  endloop
endfacet
facet normal 0.404432 0.914129 -0.028339
  outer loop
    vertex -1.920329017079595 -8.296729549530719 18.85516576079554
    vertex -4.850072037976614 -7.000797317238866 18.84697700427451
    vertex -3.269441430452926 -7.606684624545107 21.86042827239701
  endloop
endfacet
facet normal -0.940571 0.331146 -0.0752924
  outer loop
    vertex 8.211372962088197 -1.5 21.00013165433884
    vertex 7.236534944645668 -3.892335522570747 22.65622628785727
    vertex 7.931203312905641 -1.5 24.50007976926727
  endloop
endfacet
facet normal 0.939352 0.33461 -0.0751948
  outer loop
    vertex -7.931203312905641 -1.5 24.50007976926727
    vertex -7.206677069131448 -3.944705791480164 22.67232165032193
    vertex -8.2113729620882 -1.5 21.00013165433879
  endloop
endfacet
facet normal -0.924086 0.374975 -0.0738912
  outer loop
    vertex 8.491235875216802 -1.5 17.50015897028011
    vertex 7.048900876522884 -4.757080421275163 19.00937750455751
    vertex 8.211372962088197 -1.5 21.00013165433884
  endloop
endfacet
facet normal -0.801578 0.594612 -0.0625327
  outer loop
    vertex 8.596473881776364 -4.247220463530142 5.229323724815906
    vertex 6.572167660087038 -6.809800151684741 6.810881618792433
    vertex 8.211019413736421 -4.40619427261273 8.658633892046218
  endloop
endfacet
facet normal 0.574664 0.817836 -0.0300958
  outer loop
    vertex -6.278645555343404 -6.111739324828508 15.7287562186021
    vertex -4.850072037976614 -7.000797317238866 18.84697700427451
    vertex -3.636425370206531 -7.965689530831596 15.80052333088332
  endloop
endfacet
facet normal 0.935535 0.349518 -0.0511063
  outer loop
    vertex -8.2113729620882 -1.5 21.00013165433879
    vertex -7.206677069131448 -3.944705791480164 22.67232165032193
    vertex -7.175434264516594 -4.549168475883711 19.11030039243843
  endloop
endfacet
facet normal -0.933976 0.355493 -0.0362408
  outer loop
    vertex 7.048900876522884 -4.757080421275163 19.00937750455751
    vertex 7.236534944645668 -3.892335522570747 22.65622628785727
    vertex 8.211372962088197 -1.5 21.00013165433884
  endloop
endfacet
facet normal -0.53598 0.842513 -0.053818
  outer loop
    vertex 5.106262006319886 -6.204615490855894 24.95983321139365
    vertex 5.752563510791009 -6.043357784976719 21.04770021323221
    vertex 3.104931842724208 -7.67723626554514 21.8376717393156
  endloop
endfacet
facet normal 0.401535 0.906954 -0.127293
  outer loop
    vertex -3.636425370206531 -7.965689530831596 15.80052333088332
    vertex -4.850072037976614 -7.000797317238866 18.84697700427451
    vertex -1.920329017079595 -8.296729549530719 18.85516576079554
  endloop
endfacet
facet normal 0.203605 0.971458 -0.121712
  outer loop
    vertex -0.3368912053455357 -9.226545376021608 9.749549359125506
    vertex -2.106336444313457 -9.231537720522832 6.749691306593608
    vertex -3.42108759052904 -8.565736636085258 9.864486086632574
  endloop
endfacet
facet normal -0.935821 0.336561 -0.104713
  outer loop
    vertex 9.050155311453736 -1.5 10.50014844409081
    vertex 8.211019413736421 -4.40619427261273 8.658633892046218
    vertex 7.686763345876093 -4.752949049902826 12.22940631492766
  endloop
endfacet
facet normal 0.827108 0.560639 -0.0397146
  outer loop
    vertex -6.278645555343404 -6.111739324828508 15.7287562186021
    vertex -8.007072273506235 -3.563813509710456 15.70031880244162
    vertex -7.175434264516594 -4.549168475883711 19.11030039243843
  endloop
endfacet
facet normal -0.945797 0.311495 -0.0918675
  outer loop
    vertex 8.596473881776364 -4.247220463530142 5.229323724815906
    vertex 8.211019413736421 -4.40619427261273 8.658633892046218
    vertex 9.329260017924636 -1.5 7.000116005255705
  endloop
endfacet
facet normal 0.945206 0.317656 -0.075374
  outer loop
    vertex -9.050155311453739 -1.5 10.50014844409077
    vertex -8.232019865488478 -4.355798192280734 8.724278405357428
    vertex -9.329260017924641 -1.5 7.000116005255663
  endloop
endfacet
facet normal -0.351786 0.935271 -0.0389198
  outer loop
    vertex 1.831321191717647 -9.579221119915152 3.142207116979826
    vertex 3.967503348011378 -8.651611804708077 6.124960957655446
    vertex 4.955436681322395 -8.407660710667543 3.057618686932422
  endloop
endfacet
facet normal -0.944295 0.320371 -0.0753013
  outer loop
    vertex 9.329260017924636 -1.5 7.000116005255705
    vertex 8.211019413736421 -4.40619427261273 8.658633892046218
    vertex 9.050155311453736 -1.5 10.50014844409081
  endloop
endfacet
facet normal 0.0405954 0.998847 -0.0256072
  outer loop
    vertex 1.372681201051266 -9.374916605525485 6.672306352453564
    vertex -2.106336444313457 -9.231537720522832 6.749691306593608
    vertex -0.3368912053455357 -9.226545376021608 9.749549359125506
  endloop
endfacet
facet normal -0.780799 0.616134 -0.103594
  outer loop
    vertex 7.236534944645668 -3.892335522570747 22.65622628785727
    vertex 5.752563510791009 -6.043357784976719 21.04770021323221
    vertex 5.106262006319886 -6.204615490855894 24.95983321139365
  endloop
endfacet
facet normal 0.93673 0.333839 -0.105303
  outer loop
    vertex -7.704049951237983 -4.718712052386188 12.27034492821111
    vertex -8.232019865488478 -4.355798192280734 8.724278405357428
    vertex -9.050155311453739 -1.5 10.50014844409077
  endloop
endfacet
facet normal 0.806993 0.581231 -0.104564
  outer loop
    vertex -6.565506299040054 -6.814997520813891 6.822093874353488
    vertex -7.253868997125236 -6.514514279920712 3.179801584142016
    vertex -8.539591019959305 -4.354913689428775 5.261368168623985
  endloop
endfacet
facet normal -0.285383 0.95396 -0.0922881
  outer loop
    vertex 1.372681201051266 -9.374916605525485 6.672306352453564
    vertex 3.967503348011378 -8.651611804708077 6.124960957655446
    vertex 1.831321191717647 -9.579221119915152 3.142207116979826
  endloop
endfacet
facet normal -0.278872 0.958746 -0.055098
  outer loop
    vertex 3.18097367098447 -8.682288591309819 9.572087107338991
    vertex 3.967503348011378 -8.651611804708077 6.124960957655446
    vertex 1.372681201051266 -9.374916605525485 6.672306352453564
  endloop
endfacet
facet normal 0.334499 0.94044 -0.0606892
  outer loop
    vertex -1.723478280176015 -9.605973867654415 3.057618686932539
    vertex -4.529481103571948 -8.51121947461745 4.556140553833263
    vertex -2.106336444313457 -9.231537720522832 6.749691306593608
  endloop
endfacet
facet normal 0.606455 0.793597 -0.0491445
  outer loop
    vertex -6.565506299040054 -6.814997520813891 6.822093874353488
    vertex -4.529481103571948 -8.51121947461745 4.556140553833263
    vertex -7.253868997125236 -6.514514279920712 3.179801584142016
  endloop
endfacet
facet normal -0.775356 0.631055 -0.0243652
  outer loop
    vertex 6.519202405202518 -7.582875444051663 0
    vertex 7.444181634017063 -6.336374958772793 2.849236594015174
    vertex 8.748717852015751 -4.843545803006398 0
  endloop
endfacet
facet normal 0.540569 0.839209 -0.0592695
  outer loop
    vertex -3.269441430452926 -7.606684624545107 21.86042827239701
    vertex -5.652867464536688 -6.1135363473514 21.26411212670476
    vertex -5.106262006320032 -6.204615490855774 24.95983321139363
  endloop
endfacet
facet normal -0.790279 0.610111 -0.0567804
  outer loop
    vertex 8.211019413736421 -4.40619427261273 8.658633892046218
    vertex 6.401607409132986 -6.622296862422448 10.03011192831892
    vertex 7.686763345876093 -4.752949049902826 12.22940631492766
  endloop
endfacet
facet normal -0.942428 0.332661 -0.0341569
  outer loop
    vertex 7.686763345876093 -4.752949049902826 12.22940631492766
    vertex 7.895372394530006 -3.806491520452562 15.69139602650052
    vertex 8.770821412808679 -1.5 14.00016402266392
  endloop
endfacet
facet normal -0.927687 0.347242 -0.137185
  outer loop
    vertex 8.491235875216802 -1.5 17.50015897028011
    vertex 7.895372394530006 -3.806491520452562 15.69139602650052
    vertex 7.048900876522884 -4.757080421275163 19.00937750455751
  endloop
endfacet
facet normal 0.773531 0.631742 -0.0505159
  outer loop
    vertex -7.704049951237983 -4.718712052386188 12.27034492821111
    vertex -5.978333089349137 -7.024897948377395 9.854861900489226
    vertex -8.232019865488478 -4.355798192280734 8.724278405357428
  endloop
endfacet
facet normal 0.777112 0.621428 -0.0996218
  outer loop
    vertex -5.106262006320032 -6.204615490855774 24.95983321139363
    vertex -5.652867464536688 -6.1135363473514 21.26411212670476
    vertex -7.206677069131448 -3.944705791480164 22.67232165032193
  endloop
endfacet
facet normal 0.944492 0.327439 -0.0268099
  outer loop
    vertex -8.770821412808683 -1.5 14.00016402266388
    vertex -8.007072273506235 -3.563813509710456 15.70031880244162
    vertex -7.704049951237983 -4.718712052386188 12.27034492821111
  endloop
endfacet
facet normal -0.946179 0.322079 -0.0317788
  outer loop
    vertex 8.748717852015751 -4.843545803006398 0
    vertex 8.965085948388269 -3.956144140727199 2.551715887594316
    vertex 9.88685996664255 -1.500000000000143 0
  endloop
endfacet
facet normal -0.956977 0.279979 -0.0762024
  outer loop
    vertex 9.88685996664255 -1.500000000000143 0
    vertex 8.965085948388269 -3.956144140727199 2.551715887594316
    vertex 9.608155667661325 -1.5 3.500066102697573
  endloop
endfacet
facet normal 0.933555 0.333519 -0.131304
  outer loop
    vertex -7.175434264516594 -4.549168475883711 19.11030039243843
    vertex -8.007072273506235 -3.563813509710456 15.70031880244162
    vertex -8.491235875216802 -1.5 17.50015897028011
  endloop
endfacet
facet normal 0.946193 0.322084 -0.0313209
  outer loop
    vertex -9.886859966642689 -1.499999999999692 0
    vertex -8.971574414899615 -3.940029318500964 2.558759554542426
    vertex -8.748717852015968 -4.843545803006006 0
  endloop
endfacet
facet normal 0.935741 0.344622 -0.0749973
  outer loop
    vertex -7.650693286584445 -1.499999999999694 28
    vertex -6.951912458703051 -3.953647597477949 25.44384935910978
    vertex -7.931203312905641 -1.5 24.50007976926727
  endloop
endfacet
facet normal -0.93576 0.344571 -0.0749988
  outer loop
    vertex 7.931203312905641 -1.5 24.50007976926727
    vertex 6.952292068677071 -3.95282794795727 25.44480450185293
    vertex 7.65069328658436 -1.499999999999911 28
  endloop
endfacet
facet normal 0.957222 0.279135 -0.076222
  outer loop
    vertex -9.608155667661331 -1.5 3.500066102697517
    vertex -8.971574414899615 -3.940029318500964 2.558759554542426
    vertex -9.886859966642689 -1.499999999999692 0
  endloop
endfacet
facet normal 0.902382 0.406379 -0.143397
  outer loop
    vertex -6.193936023717269 -4.734792952124091 28
    vertex -6.951912458703051 -3.953647597477949 25.44384935910978
    vertex -7.650693286584445 -1.499999999999694 28
  endloop
endfacet
facet normal -0.902375 0.406376 -0.143453
  outer loop
    vertex 7.65069328658436 -1.499999999999911 28
    vertex 6.952292068677071 -3.95282794795727 25.44480450185293
    vertex 6.193936023717152 -4.734792952124245 28
  endloop
endfacet
facet normal -0.640893 0.757647 -0.1234
  outer loop
    vertex 4.955436681322395 -8.407660710667543 3.057618686932422
    vertex 7.444181634017063 -6.336374958772793 2.849236594015174
    vertex 6.519202405202518 -7.582875444051663 0
  endloop
endfacet
facet normal 0.836321 0.545968 -0.0498642
  outer loop
    vertex -7.253868997125236 -6.514514279920712 3.179801584142016
    vertex -8.971574414899615 -3.940029318500964 2.558759554542426
    vertex -8.539591019959305 -4.354913689428775 5.261368168623985
  endloop
endfacet
facet normal -0.795154 0.601478 -0.0771616
  outer loop
    vertex 6.572167660087038 -6.809800151684741 6.810881618792433
    vertex 6.401607409132986 -6.622296862422448 10.03011192831892
    vertex 8.211019413736421 -4.40619427261273 8.658633892046218
  endloop
endfacet
facet normal 0.362186 0.921774 -0.138395
  outer loop
    vertex -3.47643823183208 -9.376266699505525 0
    vertex -4.998372598950009 -8.480508100499142 1.983193913215828
    vertex -1.723478280176015 -9.605973867654415 3.057618686932539
  endloop
endfacet
facet normal 0.515748 0.855695 -0.0423107
  outer loop
    vertex -3.42108759052904 -8.565736636085258 9.864486086632574
    vertex -5.978333089349137 -7.024897948377395 9.854861900489226
    vertex -5.120683034618398 -7.400388378197229 12.71528093426175
  endloop
endfacet
facet normal 0.51268 0.850116 -0.120258
  outer loop
    vertex -3.42108759052904 -8.565736636085258 9.864486086632574
    vertex -4.468461423640962 -8.302505121889221 7.26016310985176
    vertex -5.978333089349137 -7.024897948377395 9.854861900489226
  endloop
endfacet
facet normal 0.781773 0.613987 -0.108864
  outer loop
    vertex -8.232019865488478 -4.355798192280734 8.724278405357428
    vertex -5.978333089349137 -7.024897948377395 9.854861900489226
    vertex -6.565506299040054 -6.814997520813891 6.822093874353488
  endloop
endfacet
facet normal 0.585557 0.808596 -0.057406
  outer loop
    vertex -5.978333089349137 -7.024897948377395 9.854861900489226
    vertex -4.468461423640962 -8.302505121889221 7.26016310985176
    vertex -6.565506299040054 -6.814997520813891 6.822093874353488
  endloop
endfacet
facet normal 0.33941 0.939274 -0.0506424
  outer loop
    vertex -1.723478280176015 -9.605973867654415 3.057618686932539
    vertex -4.998372598950009 -8.480508100499142 1.983193913215828
    vertex -4.529481103571948 -8.51121947461745 4.556140553833263
  endloop
endfacet
facet normal -0.704179 0.710022 0.000211649
  outer loop
    vertex 4.617820478403733 -7.168068946084302 18.71940657261483
    vertex 5.752563510791009 -6.043357784976719 21.04770021323221
    vertex 7.048900876522884 -4.757080421275163 19.00937750455751
  endloop
endfacet
facet normal -0.949409 0.304747 -0.0758404
  outer loop
    vertex 8.770821412808679 -1.5 14.00016402266392
    vertex 7.895372394530006 -3.806491520452562 15.69139602650052
    vertex 8.491235875216802 -1.5 17.50015897028011
  endloop
endfacet
facet normal 0.777544 0.621055 -0.098571
  outer loop
    vertex -7.206677069131448 -3.944705791480164 22.67232165032193
    vertex -5.652867464536688 -6.1135363473514 21.26411212670476
    vertex -7.175434264516594 -4.549168475883711 19.11030039243843
  endloop
endfacet
facet normal 0.769356 0.637958 -0.0331811
  outer loop
    vertex -5.106262006320032 -6.204615490855774 24.95983321139363
    vertex -6.951912458703051 -3.953647597477949 25.44384935910978
    vertex -6.193936023717269 -4.734792952124091 28
  endloop
endfacet
facet normal -0.769406 0.6379 -0.0331355
  outer loop
    vertex 6.193936023717152 -4.734792952124245 28
    vertex 6.952292068677071 -3.95282794795727 25.44480450185293
    vertex 5.106262006319886 -6.204615490855894 24.95983321139365
  endloop
endfacet
facet normal 0.764254 0.641301 -0.0681828
  outer loop
    vertex -7.206677069131448 -3.944705791480164 22.67232165032193
    vertex -6.951912458703051 -3.953647597477949 25.44384935910978
    vertex -5.106262006320032 -6.204615490855774 24.95983321139363
  endloop
endfacet
facet normal -0.764943 0.640904 -0.0640684
  outer loop
    vertex 5.106262006319886 -6.204615490855894 24.95983321139365
    vertex 6.952292068677071 -3.95282794795727 25.44480450185293
    vertex 7.236534944645668 -3.892335522570747 22.65622628785727
  endloop
endfacet
facet normal -0.779549 0.617263 -0.106257
  outer loop
    vertex 7.048900876522884 -4.757080421275163 19.00937750455751
    vertex 5.752563510791009 -6.043357784976719 21.04770021323221
    vertex 7.236534944645668 -3.892335522570747 22.65622628785727
  endloop
endfacet
facet normal 0.936222 0.340983 -0.0849594
  outer loop
    vertex -7.931203312905641 -1.5 24.50007976926727
    vertex -6.951912458703051 -3.953647597477949 25.44384935910978
    vertex -7.206677069131448 -3.944705791480164 22.67232165032193
  endloop
endfacet
facet normal 0.953915 0.290239 -0.0762004
  outer loop
    vertex -8.491235875216802 -1.5 17.50015897028011
    vertex -8.007072273506235 -3.563813509710456 15.70031880244162
    vertex -8.770821412808683 -1.5 14.00016402266388
  endloop
endfacet
facet normal 0.58735 0.805808 -0.0754519
  outer loop
    vertex -6.565506299040054 -6.814997520813891 6.822093874353488
    vertex -4.468461423640962 -8.302505121889221 7.26016310985176
    vertex -4.529481103571948 -8.51121947461745 4.556140553833263
  endloop
endfacet
facet normal -0.936372 0.339779 -0.0880747
  outer loop
    vertex 7.236534944645668 -3.892335522570747 22.65622628785727
    vertex 6.952292068677071 -3.95282794795727 25.44480450185293
    vertex 7.931203312905641 -1.5 24.50007976926727
  endloop
endfacet
facet normal 0.724841 0.68881 -0.012103
  outer loop
    vertex -7.175434264516594 -4.549168475883711 19.11030039243843
    vertex -5.652867464536688 -6.1135363473514 21.26411212670476
    vertex -4.850072037976614 -7.000797317238866 18.84697700427451
  endloop
endfacet
facet normal -0.952441 0.28791 -0.0998194
  outer loop
    vertex 9.608155667661325 -1.5 3.500066102697573
    vertex 8.965085948388269 -3.956144140727199 2.551715887594316
    vertex 8.596473881776364 -4.247220463530142 5.229323724815906
  endloop
endfacet
facet normal 0.951079 0.289622 -0.107559
  outer loop
    vertex -8.539591019959305 -4.354913689428775 5.261368168623985
    vertex -8.971574414899615 -3.940029318500964 2.558759554542426
    vertex -9.608155667661331 -1.5 3.500066102697517
  endloop
endfacet
facet normal 0.615583 0.77896 -0.119493
  outer loop
    vertex -7.253868997125236 -6.514514279920712 3.179801584142016
    vertex -4.998372598950009 -8.480508100499142 1.983193913215828
    vertex -6.519202405202851 -7.582875444051377 0
  endloop
endfacet
facet normal -0.84369 0.525207 -0.11111
  outer loop
    vertex 7.444181634017063 -6.336374958772793 2.849236594015174
    vertex 8.965085948388269 -3.956144140727199 2.551715887594316
    vertex 8.748717852015751 -4.843545803006398 0
  endloop
endfacet
facet normal 0.507762 0.861497 0.000548446
  outer loop
    vertex -6.519202405202851 -7.582875444051377 0
    vertex -4.998372598950009 -8.480508100499142 1.983193913215828
    vertex -3.47643823183208 -9.376266699505525 0
  endloop
endfacet
facet normal -0.548707 0.825623 -0.131404
  outer loop
    vertex 3.104931842724208 -7.67723626554514 21.8376717393156
    vertex 5.752563510791009 -6.043357784976719 21.04770021323221
    vertex 4.617820478403733 -7.168068946084302 18.71940657261483
  endloop
endfacet
facet normal 0.548608 0.827213 -0.121439
  outer loop
    vertex -4.850072037976614 -7.000797317238866 18.84697700427451
    vertex -5.652867464536688 -6.1135363473514 21.26411212670476
    vertex -3.269441430452926 -7.606684624545107 21.86042827239701
  endloop
endfacet
facet normal 0.356381 0.933054 -0.0490165
  outer loop
    vertex -2.106336444313457 -9.231537720522832 6.749691306593608
    vertex -4.468461423640962 -8.302505121889221 7.26016310985176
    vertex -3.42108759052904 -8.565736636085258 9.864486086632574
  endloop
endfacet
facet normal -0.844522 0.532328 -0.0583927
  outer loop
    vertex 8.596473881776364 -4.247220463530142 5.229323724815906
    vertex 8.965085948388269 -3.956144140727199 2.551715887594316
    vertex 7.444181634017063 -6.336374958772793 2.849236594015174
  endloop
endfacet
facet normal 0.62158 0.776415 -0.104009
  outer loop
    vertex -4.529481103571948 -8.51121947461745 4.556140553833263
    vertex -4.998372598950009 -8.480508100499142 1.983193913215828
    vertex -7.253868997125236 -6.514514279920712 3.179801584142016
  endloop
endfacet
facet normal 0.349832 0.933395 -0.07994
  outer loop
    vertex -4.529481103571948 -8.51121947461745 4.556140553833263
    vertex -4.468461423640962 -8.302505121889221 7.26016310985176
    vertex -2.106336444313457 -9.231537720522832 6.749691306593608
  endloop
endfacet
facet normal -7.37681e-16 -8.96355e-16 -1
  outer loop
    vertex -6.193936023717269 -4.734792952124091 28
    vertex -1.990210066336442 -4.230855754696307 28
    vertex -3.454634153883709 -6.989178108204616 28
  endloop
endfacet
facet normal -2.67729e-16 -1.14586e-15 -1
  outer loop
    vertex -3.454634153883709 -6.989178108204616 28
    vertex -1.990210066336442 -4.230855754696307 28
    vertex -8.452678807868061e-14 -7.796352208910681 28
  endloop
endfacet
facet normal -9.26457e-16 6.78373e-16 -1
  outer loop
    vertex -3.825346643292244 -1.5 28
    vertex -1.990210066336442 -4.230855754696307 28
    vertex -6.193936023717269 -4.734792952124091 28
  endloop
endfacet
facet normal 0 0 -1
  outer loop
    vertex 3.825346643292159 -1.5 28
    vertex 7.65069328658436 -1.499999999999911 28
    vertex 6.193936023717152 -4.734792952124245 28
  endloop
endfacet
facet normal 0 0 -1
  outer loop
    vertex -6.193936023717269 -4.734792952124091 28
    vertex -7.650693286584445 -1.499999999999694 28
    vertex -3.825346643292244 -1.5 28
  endloop
endfacet
facet normal -1.46246e-16 -1.07805e-15 -1
  outer loop
    vertex -8.452678807868061e-14 -7.796352208910681 28
    vertex -1.990210066336442 -4.230855754696307 28
    vertex 1.086044773458575 -4.648176104455349 28
  endloop
endfacet
facet normal 0 1.1285e-15 -1
  outer loop
    vertex 3.825346643292159 -1.5 28
    vertex 1.086044773458575 -4.648176104455349 28
    vertex -4.263256414560601e-14 -1.5 28
  endloop
endfacet
facet normal -1.04788e-16 1.21968e-15 -1
  outer loop
    vertex 3.825346643292159 -1.5 28
    vertex 3.644452129845236 -4.428371304201334 28
    vertex 1.086044773458575 -4.648176104455349 28
  endloop
endfacet
facet normal 2.8679e-16 -1.22743e-15 -1
  outer loop
    vertex -8.452678807868061e-14 -7.796352208910681 28
    vertex 1.086044773458575 -4.648176104455349 28
    vertex 3.454634153883551 -6.989178108204694 28
  endloop
endfacet
facet normal 1.52797e-15 1.11882e-15 -1
  outer loop
    vertex 6.193936023717152 -4.734792952124245 28
    vertex 3.644452129845236 -4.428371304201334 28
    vertex 3.825346643292159 -1.5 28
  endloop
endfacet
facet normal 0 1.30095e-15 -1
  outer loop
    vertex -4.263256414560601e-14 -1.5 28
    vertex -1.990210066336442 -4.230855754696307 28
    vertex -3.825346643292244 -1.5 28
  endloop
endfacet
facet normal 1.21593e-15 -1.47747e-15 -1
  outer loop
    vertex 3.454634153883551 -6.989178108204694 28
    vertex 3.644452129845236 -4.428371304201334 28
    vertex 6.193936023717152 -4.734792952124245 28
  endloop
endfacet
facet normal 1.60607e-16 1.1839e-15 -1
  outer loop
    vertex 1.086044773458575 -4.648176104455349 28
    vertex -1.990210066336442 -4.230855754696307 28
    vertex -4.263256414560601e-14 -1.5 28
  endloop
endfacet
facet normal 1.19957e-16 -1.39623e-15 -1
  outer loop
    vertex 1.086044773458575 -4.648176104455349 28
    vertex 3.644452129845236 -4.428371304201334 28
    vertex 3.454634153883551 -6.989178108204694 28
  endloop
endfacet
facet normal 3.67524e-15 -1 1.13022e-14
  outer loop
    vertex 9.608155667661325 -1.5 3.500066102697573
    vertex 5.922225583022384 -1.500000000000002 4.561133219844022
    vertex 5.932115979985502 -1.500000000000053 0
  endloop
endfacet
facet normal 1.85644e-15 -1 -1.956e-15
  outer loop
    vertex 5.955143874564069 -1.500000000000009 8.452051959964743
    vertex 5.922225583022384 -1.500000000000002 4.561133219844022
    vertex 9.329260017924636 -1.5 7.000116005255705
  endloop
endfacet
facet normal -2.28516e-14 -1 3.91627e-14
  outer loop
    vertex 9.88685996664255 -1.500000000000143 0
    vertex 9.608155667661325 -1.5 3.500066102697573
    vertex 5.932115979985502 -1.500000000000053 0
  endloop
endfacet
facet normal -6.16782e-15 -1 -1.88144e-15
  outer loop
    vertex 2.083797258448246 -1.500000000000016 24.27250567136547
    vertex 2.640482653261693 -1.500000000000012 20.44123174733295
    vertex 5.2366938284061 -1.500000000000031 22.31583860114455
  endloop
endfacet
facet normal 4.31588e-16 -1 3.43904e-17
  outer loop
    vertex 9.329260017924636 -1.5 7.000116005255705
    vertex 5.922225583022384 -1.500000000000002 4.561133219844022
    vertex 9.608155667661325 -1.5 3.500066102697573
  endloop
endfacet
facet normal -6.12906e-15 -1 -1.8758e-15
  outer loop
    vertex -0.04629233280688518 -1.499999999999997 21.52584171742005
    vertex 2.640482653261693 -1.500000000000012 20.44123174733295
    vertex 2.083797258448246 -1.500000000000016 24.27250567136547
  endloop
endfacet
facet normal -6.13804e-15 -1 -1.88836e-15
  outer loop
    vertex 5.955143874564069 -1.500000000000009 8.452051959964743
    vertex 2.443067018510995 -1.499999999999984 6.345528595050324
    vertex 5.922225583022384 -1.500000000000002 4.561133219844022
  endloop
endfacet
facet normal -6.17276e-15 -1 -1.94027e-15
  outer loop
    vertex -3.299554051857829 -1.49999999999995 7.106729690161702
    vertex -3.05139559639412 -1.499999999999958 10.55152906935655
    vertex -6.142170377739236 -1.499999999999935 8.711599781372284
  endloop
endfacet
facet normal -6.1663e-15 -1 -1.94073e-15
  outer loop
    vertex -0.2302958945344428 -1.499999999999972 8.796043302998569
    vertex -3.05139559639412 -1.499999999999958 10.55152906935655
    vertex -3.299554051857829 -1.49999999999995 7.106729690161702
  endloop
endfacet
facet normal -6.16431e-15 -1 -1.91101e-15
  outer loop
    vertex -5.269882522761272 -1.499999999999967 22.48934961731067
    vertex -2.77993452569543 -1.499999999999978 20.49957681860652
    vertex -2.049497904760254 -1.49999999999999 24.41779981874048
  endloop
endfacet
facet normal -6.14072e-15 -1 -1.88389e-15
  outer loop
    vertex 5.955143874564069 -1.500000000000009 8.452051959964743
    vertex 2.922875122296781 -1.499999999999994 10.32120076002621
    vertex 2.443067018510995 -1.499999999999984 6.345528595050324
  endloop
endfacet
facet normal -6.18853e-15 -1 -1.9065e-15
  outer loop
    vertex -2.049497904760254 -1.49999999999999 24.41779981874048
    vertex -2.77993452569543 -1.499999999999978 20.49957681860652
    vertex -0.04629233280688518 -1.499999999999997 21.52584171742005
  endloop
endfacet
facet normal -6.17532e-15 -1 -1.93595e-15
  outer loop
    vertex -6.142170377739236 -1.499999999999935 8.711599781372284
    vertex -3.05139559639412 -1.499999999999958 10.55152906935655
    vertex -5.933108217991023 -1.499999999999943 12.28845182743123
  endloop
endfacet
facet normal -6.1415e-15 -1 -1.93559e-15
  outer loop
    vertex -5.652931280025918 -1.499999999999952 15.75142316672763
    vertex -2.655711204593838 -1.499999999999973 17.36897337999405
    vertex -5.479727031252693 -1.499999999999959 19.10223055987065
  endloop
endfacet
facet normal -6.15115e-15 -1 -1.93587e-15
  outer loop
    vertex 0.06637956507672432 -1.499999999999963 3.344949141855226
    vertex 3.080442170931215 -1.499999999999981 2.829197357808969
    vertex 2.443067018510995 -1.499999999999984 6.345528595050324
  endloop
endfacet
facet normal -6.13621e-15 -1 -1.87026e-15
  outer loop
    vertex -2.049497904760254 -1.49999999999999 24.41779981874048
    vertex -0.04629233280688518 -1.499999999999997 21.52584171742005
    vertex 2.083797258448246 -1.500000000000016 24.27250567136547
  endloop
endfacet
facet normal -6.04263e-15 -1 7.91818e-16
  outer loop
    vertex -4.263256414560601e-14 -1.5 28
    vertex -2.049497904760254 -1.49999999999999 24.41779981874048
    vertex 2.083797258448246 -1.500000000000016 24.27250567136547
  endloop
endfacet
facet normal -6.15903e-15 -1 -1.90893e-15
  outer loop
    vertex -5.933108217991023 -1.499999999999943 12.28845182743123
    vertex -3.05139559639412 -1.499999999999958 10.55152906935655
    vertex -2.800095242949684 -1.499999999999966 14.04452817276947
  endloop
endfacet
facet normal -6.17741e-15 -1 -1.86904e-15
  outer loop
    vertex -2.800095242949684 -1.499999999999966 14.04452817276947
    vertex -2.655711204593838 -1.499999999999973 17.36897337999405
    vertex -5.652931280025918 -1.499999999999952 15.75142316672763
  endloop
endfacet
facet normal -2.28516e-14 -1 -1.3188e-14
  outer loop
    vertex 1.977371993328454 -1.499999999999963 0
    vertex 0.06637956507672432 -1.499999999999963 3.344949141855226
    vertex -1.977371993328593 -1.499999999999872 0
  endloop
endfacet
facet normal -6.17947e-15 -1 -1.87247e-15
  outer loop
    vertex -2.800095242949684 -1.499999999999966 14.04452817276947
    vertex -5.652931280025918 -1.499999999999952 15.75142316672763
    vertex -5.933108217991023 -1.499999999999943 12.28845182743123
  endloop
endfacet
facet normal 0 -1 -2.66538e-15
  outer loop
    vertex -3.825346643292244 -1.5 28
    vertex -2.049497904760254 -1.49999999999999 24.41779981874048
    vertex -4.263256414560601e-14 -1.5 28
  endloop
endfacet
facet normal 0 -1 4.16986e-15
  outer loop
    vertex -4.263256414560601e-14 -1.5 28
    vertex 2.083797258448246 -1.500000000000016 24.27250567136547
    vertex 3.825346643292159 -1.5 28
  endloop
endfacet
facet normal -6.14e-15 -1 -1.93878e-15
  outer loop
    vertex -3.587267034316624 -1.49999999999994 3.207721747704001
    vertex -0.9215340794242353 -1.499999999999962 5.760194495553964
    vertex -3.299554051857829 -1.49999999999995 7.106729690161702
  endloop
endfacet
facet normal -6.13011e-15 -1 -1.88517e-15
  outer loop
    vertex 2.922875122296781 -1.499999999999994 10.32120076002621
    vertex -0.2302958945344428 -1.499999999999972 8.796043302998569
    vertex 2.443067018510995 -1.499999999999984 6.345528595050324
  endloop
endfacet
facet normal -6.13973e-15 -1 -1.86527e-15
  outer loop
    vertex 2.922875122296781 -1.499999999999994 10.32120076002621
    vertex 0.09685020670749145 -1.49999999999998 12.36182164140608
    vertex -0.2302958945344428 -1.499999999999972 8.796043302998569
  endloop
endfacet
facet normal -6.20393e-15 -1 -1.89407e-15
  outer loop
    vertex 2.443067018510995 -1.499999999999984 6.345528595050324
    vertex -0.9215340794242353 -1.499999999999962 5.760194495553964
    vertex 0.06637956507672432 -1.499999999999963 3.344949141855226
  endloop
endfacet
facet normal -6.14341e-15 -1 -1.96565e-15
  outer loop
    vertex 3.090012338518065 -1.500000000000002 13.85143687492725
    vertex 0.2185774452003891 -1.499999999999988 15.70913701934971
    vertex 0.09685020670749145 -1.49999999999998 12.36182164140608
  endloop
endfacet
facet normal -6.17148e-15 -1 -1.90924e-15
  outer loop
    vertex 2.922875122296781 -1.499999999999994 10.32120076002621
    vertex 3.090012338518065 -1.500000000000002 13.85143687492725
    vertex 0.09685020670749145 -1.49999999999998 12.36182164140608
  endloop
endfacet
facet normal -6.12427e-15 -1 -1.96635e-15
  outer loop
    vertex 0.2185774452003891 -1.499999999999988 15.70913701934971
    vertex -2.800095242949684 -1.499999999999966 14.04452817276947
    vertex 0.09685020670749145 -1.49999999999998 12.36182164140608
  endloop
endfacet
facet normal 1.90367e-14 -1 -1.51931e-15
  outer loop
    vertex -9.050155311453739 -1.5 10.50014844409077
    vertex -5.933108217991023 -1.499999999999943 12.28845182743123
    vertex -8.770821412808683 -1.5 14.00016402266388
  endloop
endfacet
facet normal 9.4482e-15 -1 7.55492e-16
  outer loop
    vertex 8.211372962088197 -1.5 21.00013165433884
    vertex 5.560432805139076 -1.500000000000027 18.88397673145244
    vertex 8.491235875216802 -1.5 17.50015897028011
  endloop
endfacet
facet normal 1.41694e-14 -1 -1.13301e-15
  outer loop
    vertex -8.491235875216802 -1.5 17.50015897028011
    vertex -5.479727031252693 -1.499999999999959 19.10223055987065
    vertex -8.2113729620882 -1.5 21.00013165433879
  endloop
endfacet
facet normal 2.79401e-15 -1 2.22804e-16
  outer loop
    vertex 9.050155311453736 -1.5 10.50014844409081
    vertex 5.955143874564069 -1.500000000000009 8.452051959964743
    vertex 9.329260017924636 -1.5 7.000116005255705
  endloop
endfacet
facet normal -6.1659e-15 -1 -1.92475e-15
  outer loop
    vertex 5.955143874564069 -1.500000000000009 8.452051959964743
    vertex 5.965379168735424 -1.500000000000016 12.11087558227867
    vertex 2.922875122296781 -1.499999999999994 10.32120076002621
  endloop
endfacet
facet normal -1.42093e-14 -1 1.12634e-14
  outer loop
    vertex 5.922225583022384 -1.500000000000002 4.561133219844022
    vertex 3.080442170931215 -1.499999999999981 2.829197357808969
    vertex 5.932115979985502 -1.500000000000053 0
  endloop
endfacet
facet normal -6.18876e-15 -1 -1.88786e-15
  outer loop
    vertex 0.06637956507672432 -1.499999999999963 3.344949141855226
    vertex -0.9215340794242353 -1.499999999999962 5.760194495553964
    vertex -3.587267034316624 -1.49999999999994 3.207721747704001
  endloop
endfacet
facet normal 2.01588e-14 -1 -3.47515e-15
  outer loop
    vertex -9.050155311453739 -1.5 10.50014844409077
    vertex -6.142170377739236 -1.499999999999935 8.711599781372284
    vertex -5.933108217991023 -1.499999999999943 12.28845182743123
  endloop
endfacet
facet normal 2.12538e-14 -1 -1.69485e-15
  outer loop
    vertex -9.329260017924641 -1.5 7.000116005255663
    vertex -6.142170377739236 -1.499999999999935 8.711599781372284
    vertex -9.050155311453739 -1.5 10.50014844409077
  endloop
endfacet
facet normal 1.17227e-14 -1 -9.38396e-16
  outer loop
    vertex -8.2113729620882 -1.5 21.00013165433879
    vertex -5.269882522761272 -1.499999999999967 22.48934961731067
    vertex -7.931203312905641 -1.5 24.50007976926727
  endloop
endfacet
facet normal 1.09113e-14 -1 8.73442e-16
  outer loop
    vertex 7.931203312905641 -1.5 24.50007976926727
    vertex 5.2366938284061 -1.500000000000031 22.31583860114455
    vertex 8.211372962088197 -1.5 21.00013165433884
  endloop
endfacet
facet normal 1.03561e-14 -1 -3.81798e-16
  outer loop
    vertex 8.211372962088197 -1.5 21.00013165433884
    vertex 5.2366938284061 -1.500000000000031 22.31583860114455
    vertex 5.560432805139076 -1.500000000000027 18.88397673145244
  endloop
endfacet
facet normal 1.2811e-14 -1 -3.08814e-15
  outer loop
    vertex -5.479727031252693 -1.499999999999959 19.10223055987065
    vertex -5.269882522761272 -1.499999999999967 22.48934961731067
    vertex -8.2113729620882 -1.5 21.00013165433879
  endloop
endfacet
facet normal 2.48797e-14 -1 -1.9825e-15
  outer loop
    vertex -9.608155667661331 -1.5 3.500066102697517
    vertex -6.503423260976793 -1.499999999999926 5.166655372871116
    vertex -9.329260017924641 -1.5 7.000116005255663
  endloop
endfacet
facet normal -6.17212e-15 -1 -1.93914e-15
  outer loop
    vertex -6.503423260976793 -1.499999999999926 5.166655372871116
    vertex -3.299554051857829 -1.49999999999995 7.106729690161702
    vertex -6.142170377739236 -1.499999999999935 8.711599781372284
  endloop
endfacet
facet normal 2.29803e-14 -1 -4.90996e-15
  outer loop
    vertex -6.503423260976793 -1.499999999999926 5.166655372871116
    vertex -6.142170377739236 -1.499999999999935 8.711599781372284
    vertex -9.329260017924641 -1.5 7.000116005255663
  endloop
endfacet
facet normal 4.23439e-15 -1 -1.95384e-15
  outer loop
    vertex 9.050155311453736 -1.5 10.50014844409081
    vertex 5.965379168735424 -1.500000000000016 12.11087558227867
    vertex 5.955143874564069 -1.500000000000009 8.452051959964743
  endloop
endfacet
facet normal -6.09365e-15 -1 -1.91363e-15
  outer loop
    vertex -2.800095242949684 -1.499999999999966 14.04452817276947
    vertex -3.05139559639412 -1.499999999999958 10.55152906935655
    vertex 0.09685020670749145 -1.49999999999998 12.36182164140608
  endloop
endfacet
facet normal -6.16356e-15 -1 -1.93812e-15
  outer loop
    vertex 2.443067018510995 -1.499999999999984 6.345528595050324
    vertex 3.080442170931215 -1.499999999999981 2.829197357808969
    vertex 5.922225583022384 -1.500000000000002 4.561133219844022
  endloop
endfacet
facet normal 1.76602e-14 -1 -3.80126e-15
  outer loop
    vertex -5.933108217991023 -1.499999999999943 12.28845182743123
    vertex -5.652931280025918 -1.499999999999952 15.75142316672763
    vertex -8.770821412808683 -1.5 14.00016402266388
  endloop
endfacet
facet normal 1.51828e-14 -1 -3.03785e-15
  outer loop
    vertex -8.491235875216802 -1.5 17.50015897028011
    vertex -5.652931280025918 -1.499999999999952 15.75142316672763
    vertex -5.479727031252693 -1.499999999999959 19.10223055987065
  endloop
endfacet
facet normal -6.17513e-15 -1 -1.90907e-15
  outer loop
    vertex 2.922875122296781 -1.499999999999994 10.32120076002621
    vertex 5.965379168735424 -1.500000000000016 12.11087558227867
    vertex 3.090012338518065 -1.500000000000002 13.85143687492725
  endloop
endfacet
facet normal -2.28516e-14 -1 -3.26507e-14
  outer loop
    vertex -1.977371993328593 -1.499999999999872 0
    vertex -3.587267034316624 -1.49999999999994 3.207721747704001
    vertex -5.932115979985641 -1.499999999999782 0
  endloop
endfacet
facet normal 5.48309e-15 -1 4.37602e-16
  outer loop
    vertex 8.770821412808679 -1.5 14.00016402266392
    vertex 5.965379168735424 -1.500000000000016 12.11087558227867
    vertex 9.050155311453736 -1.5 10.50014844409081
  endloop
endfacet
facet normal 8.94866e-15 -1 -3.02486e-16
  outer loop
    vertex 5.560432805139076 -1.500000000000027 18.88397673145244
    vertex 5.918968724618376 -1.500000000000022 15.54355644858262
    vertex 8.491235875216802 -1.5 17.50015897028011
  endloop
endfacet
facet normal -6.12786e-15 -1 -1.93678e-15
  outer loop
    vertex 5.2366938284061 -1.500000000000031 22.31583860114455
    vertex 2.640482653261693 -1.500000000000012 20.44123174733295
    vertex 5.560432805139076 -1.500000000000027 18.88397673145244
  endloop
endfacet
facet normal -2.28516e-14 -1 2.55241e-15
  outer loop
    vertex 5.932115979985502 -1.500000000000053 0
    vertex 3.080442170931215 -1.499999999999981 2.829197357808969
    vertex 1.977371993328454 -1.499999999999963 0
  endloop
endfacet
facet normal -5.363e-15 -1 -2.38735e-14
  outer loop
    vertex 0.06637956507672432 -1.499999999999963 3.344949141855226
    vertex -3.587267034316624 -1.49999999999994 3.207721747704001
    vertex -1.977371993328593 -1.499999999999872 0
  endloop
endfacet
facet normal -6.17385e-15 -1 -1.93628e-15
  outer loop
    vertex -6.503423260976793 -1.499999999999926 5.166655372871116
    vertex -3.587267034316624 -1.49999999999994 3.207721747704001
    vertex -3.299554051857829 -1.49999999999995 7.106729690161702
  endloop
endfacet
facet normal -7.99869e-14 -1 3.11535e-14
  outer loop
    vertex -7.650693286584445 -1.499999999999694 28
    vertex -5.167559399865412 -1.499999999999973 25.41627908304034
    vertex -3.825346643292244 -1.5 28
  endloop
endfacet
facet normal 2.31602e-14 -1 2.8338e-14
  outer loop
    vertex 3.825346643292159 -1.5 28
    vertex 5.345546865927294 -1.500000000000038 25.41768480835546
    vertex 7.65069328658436 -1.499999999999911 28
  endloop
endfacet
facet normal 6.93438e-15 -1 -1.71744e-15
  outer loop
    vertex 8.770821412808679 -1.5 14.00016402266392
    vertex 5.918968724618376 -1.500000000000022 15.54355644858262
    vertex 5.965379168735424 -1.500000000000016 12.11087558227867
  endloop
endfacet
facet normal -6.12044e-15 -1 -1.86704e-15
  outer loop
    vertex 0.09685020670749145 -1.49999999999998 12.36182164140608
    vertex -3.05139559639412 -1.499999999999958 10.55152906935655
    vertex -0.2302958945344428 -1.499999999999972 8.796043302998569
  endloop
endfacet
facet normal 1.62545e-14 -1 -1.29843e-15
  outer loop
    vertex -8.770821412808683 -1.5 14.00016402266388
    vertex -5.652931280025918 -1.499999999999952 15.75142316672763
    vertex -8.491235875216802 -1.5 17.50015897028011
  endloop
endfacet
facet normal -6.16634e-15 -1 -1.89456e-15
  outer loop
    vertex 5.965379168735424 -1.500000000000016 12.11087558227867
    vertex 5.918968724618376 -1.500000000000022 15.54355644858262
    vertex 3.090012338518065 -1.500000000000002 13.85143687492725
  endloop
endfacet
facet normal -2.28516e-14 -1 -6.75817e-14
  outer loop
    vertex -5.932115979985641 -1.499999999999782 0
    vertex -7.144175008504593 -1.499999999999917 2.407465434773933
    vertex -9.886859966642689 -1.499999999999692 0
  endloop
endfacet
facet normal -6.17795e-15 -1 -1.86901e-15
  outer loop
    vertex 0.2185774452003891 -1.499999999999988 15.70913701934971
    vertex -2.655711204593838 -1.499999999999973 17.36897337999405
    vertex -2.800095242949684 -1.499999999999966 14.04452817276947
  endloop
endfacet
facet normal -1.97867e-14 -1 8.901e-14
  outer loop
    vertex -7.931203312905641 -1.5 24.50007976926727
    vertex -5.167559399865412 -1.499999999999973 25.41627908304034
    vertex -7.650693286584445 -1.499999999999694 28
  endloop
endfacet
facet normal 2.4361e-14 -1 2.72661e-14
  outer loop
    vertex 7.65069328658436 -1.499999999999911 28
    vertex 5.345546865927294 -1.500000000000038 25.41768480835546
    vertex 7.931203312905641 -1.5 24.50007976926727
  endloop
endfacet
facet normal 8.21916e-15 -1 6.56561e-16
  outer loop
    vertex 8.491235875216802 -1.5 17.50015897028011
    vertex 5.918968724618376 -1.500000000000022 15.54355644858262
    vertex 8.770821412808679 -1.5 14.00016402266392
  endloop
endfacet
facet normal -6.19798e-15 -1 -1.93003e-15
  outer loop
    vertex 5.2366938284061 -1.500000000000031 22.31583860114455
    vertex 5.345546865927294 -1.500000000000038 25.41768480835546
    vertex 2.083797258448246 -1.500000000000016 24.27250567136547
  endloop
endfacet
facet normal -6.16575e-15 -1 -1.9086e-15
  outer loop
    vertex -2.049497904760254 -1.49999999999999 24.41779981874048
    vertex -5.167559399865412 -1.499999999999973 25.41627908304034
    vertex -5.269882522761272 -1.499999999999967 22.48934961731067
  endloop
endfacet
facet normal -5.18759e-15 -1 -8.77052e-14
  outer loop
    vertex -9.886859966642689 -1.499999999999692 0
    vertex -7.144175008504593 -1.499999999999917 2.407465434773933
    vertex -9.608155667661331 -1.5 3.500066102697517
  endloop
endfacet
facet normal -6.14465e-15 -1 -1.92249e-15
  outer loop
    vertex 5.560432805139076 -1.500000000000027 18.88397673145244
    vertex 2.959888084400641 -1.500000000000007 17.03196018163032
    vertex 5.918968724618376 -1.500000000000022 15.54355644858262
  endloop
endfacet
facet normal -9.97606e-15 -1 8.83084e-15
  outer loop
    vertex 2.083797258448246 -1.500000000000016 24.27250567136547
    vertex 5.345546865927294 -1.500000000000038 25.41768480835546
    vertex 3.825346643292159 -1.5 28
  endloop
endfacet
facet normal -7.61733e-15 -1 -6.44161e-15
  outer loop
    vertex -3.825346643292244 -1.5 28
    vertex -5.167559399865412 -1.499999999999973 25.41627908304034
    vertex -2.049497904760254 -1.49999999999999 24.41779981874048
  endloop
endfacet
facet normal 5.44501e-15 -1 -5.33355e-14
  outer loop
    vertex -3.587267034316624 -1.49999999999994 3.207721747704001
    vertex -7.144175008504593 -1.499999999999917 2.407465434773933
    vertex -5.932115979985641 -1.499999999999782 0
  endloop
endfacet
facet normal -6.11764e-15 -1 -1.92582e-15
  outer loop
    vertex 3.090012338518065 -1.500000000000002 13.85143687492725
    vertex 2.959888084400641 -1.500000000000007 17.03196018163032
    vertex 0.2185774452003891 -1.499999999999988 15.70913701934971
  endloop
endfacet
facet normal -6.19346e-15 -1 -1.95428e-15
  outer loop
    vertex -0.2302958945344428 -1.499999999999972 8.796043302998569
    vertex -0.9215340794242353 -1.499999999999962 5.760194495553964
    vertex 2.443067018510995 -1.499999999999984 6.345528595050324
  endloop
endfacet
facet normal -6.13285e-15 -1 -1.87526e-15
  outer loop
    vertex -6.503423260976793 -1.499999999999926 5.166655372871116
    vertex -7.144175008504593 -1.499999999999917 2.407465434773933
    vertex -3.587267034316624 -1.49999999999994 3.207721747704001
  endloop
endfacet
facet normal -6.16547e-15 -1 -1.91247e-15
  outer loop
    vertex -5.479727031252693 -1.499999999999959 19.10223055987065
    vertex -2.77993452569543 -1.499999999999978 20.49957681860652
    vertex -5.269882522761272 -1.499999999999967 22.48934961731067
  endloop
endfacet
facet normal -6.15388e-15 -1 -1.96329e-15
  outer loop
    vertex -3.299554051857829 -1.49999999999995 7.106729690161702
    vertex -0.9215340794242353 -1.499999999999962 5.760194495553964
    vertex -0.2302958945344428 -1.499999999999972 8.796043302998569
  endloop
endfacet
facet normal -6.47567e-15 -1 -3.83236e-15
  outer loop
    vertex 1.977371993328454 -1.499999999999963 0
    vertex 3.080442170931215 -1.499999999999981 2.829197357808969
    vertex 0.06637956507672432 -1.499999999999963 3.344949141855226
  endloop
endfacet
facet normal -6.13675e-15 -1 -1.88622e-15
  outer loop
    vertex 2.959888084400641 -1.500000000000007 17.03196018163032
    vertex 0.04837627598298274 -1.499999999999992 18.61726758098489
    vertex 0.2185774452003891 -1.499999999999988 15.70913701934971
  endloop
endfacet
facet normal -6.16913e-15 -1 -1.94569e-15
  outer loop
    vertex 2.640482653261693 -1.500000000000012 20.44123174733295
    vertex 0.04837627598298274 -1.499999999999992 18.61726758098489
    vertex 2.959888084400641 -1.500000000000007 17.03196018163032
  endloop
endfacet
facet normal 1.05482e-14 -1 -2.49291e-15
  outer loop
    vertex -5.269882522761272 -1.499999999999967 22.48934961731067
    vertex -5.167559399865412 -1.499999999999973 25.41627908304034
    vertex -7.931203312905641 -1.5 24.50007976926727
  endloop
endfacet
facet normal 1.37513e-14 -1 -2.63012e-15
  outer loop
    vertex 7.931203312905641 -1.5 24.50007976926727
    vertex 5.345546865927294 -1.500000000000038 25.41768480835546
    vertex 5.2366938284061 -1.500000000000031 22.31583860114455
  endloop
endfacet
facet normal -6.14693e-15 -1 -1.92702e-15
  outer loop
    vertex 5.918968724618376 -1.500000000000022 15.54355644858262
    vertex 2.959888084400641 -1.500000000000007 17.03196018163032
    vertex 3.090012338518065 -1.500000000000002 13.85143687492725
  endloop
endfacet
facet normal -6.16969e-15 -1 -1.95666e-15
  outer loop
    vertex -2.77993452569543 -1.499999999999978 20.49957681860652
    vertex 0.04837627598298274 -1.499999999999992 18.61726758098489
    vertex -0.04629233280688518 -1.499999999999997 21.52584171742005
  endloop
endfacet
facet normal -6.16313e-15 -1 -1.94681e-15
  outer loop
    vertex -2.655711204593838 -1.499999999999973 17.36897337999405
    vertex 0.04837627598298274 -1.499999999999992 18.61726758098489
    vertex -2.77993452569543 -1.499999999999978 20.49957681860652
  endloop
endfacet
facet normal -6.14801e-15 -1 -1.94621e-15
  outer loop
    vertex -2.655711204593838 -1.499999999999973 17.36897337999405
    vertex -2.77993452569543 -1.499999999999978 20.49957681860652
    vertex -5.479727031252693 -1.499999999999959 19.10223055987065
  endloop
endfacet
facet normal 2.92304e-14 -1 -1.00875e-14
  outer loop
    vertex -9.608155667661331 -1.5 3.500066102697517
    vertex -7.144175008504593 -1.499999999999917 2.407465434773933
    vertex -6.503423260976793 -1.499999999999926 5.166655372871116
  endloop
endfacet
facet normal -6.13069e-15 -1 -1.94209e-15
  outer loop
    vertex 5.560432805139076 -1.500000000000027 18.88397673145244
    vertex 2.640482653261693 -1.500000000000012 20.44123174733295
    vertex 2.959888084400641 -1.500000000000007 17.03196018163032
  endloop
endfacet
facet normal -6.18967e-15 -1 -1.88932e-15
  outer loop
    vertex 0.2185774452003891 -1.499999999999988 15.70913701934971
    vertex 0.04837627598298274 -1.499999999999992 18.61726758098489
    vertex -2.655711204593838 -1.499999999999973 17.36897337999405
  endloop
endfacet
facet normal -6.1616e-15 -1 -1.9564e-15
  outer loop
    vertex -0.04629233280688518 -1.499999999999997 21.52584171742005
    vertex 0.04837627598298274 -1.499999999999992 18.61726758098489
    vertex 2.640482653261693 -1.500000000000012 20.44123174733295
  endloop
endfacet
endsolid Created by Gmsh
