solid Created by Gmsh
facet normal 0.281859 -0.957896 -0.0546882
  outer loop
    vertex -0.4447684165599122 7.722324514584658 16.07179678256297
    vertex -3.474518834081438 6.684845336408465 18.62874461760637
    vertex -3.952922981742903 6.758785414057202 14.86797937843465
  endloop
endfacet
facet normal -0.215921 -0.975454 -0.04321
  outer loop
    vertex 0.1794769946722413 6.531318969479258 31.33623947466411
    vertex 2.886083957244939 6.004333579514932 29.7078139452586
    vertex 1.646836435494521 6.067764160511272 34.46843396097852
  endloop
endfacet
facet normal -0.542301 -0.830049 -0.130108
  outer loop
    vertex 1.646836435494521 6.067764160511272 34.46843396097852
    vertex 2.886083957244939 6.004333579514932 29.7078139452586
    vertex 4.726549656709804 4.414355011585199 32.18018690439169
  endloop
endfacet
facet normal -0.718184 -0.694846 -0.0374178
  outer loop
    vertex 7.584846902842179 4.844594664205191 0
    vertex 5.693899506609961 6.610788148076924 3.496109314957309
    vertex 5.092435961360636 7.420720718329251 0
  endloop
endfacet
facet normal -0.77152 -0.628316 -0.0998759
  outer loop
    vertex 7.584846902842179 4.844594664205191 0
    vertex 7.628644499919287 4.324561926029999 2.933183143999486
    vertex 5.693899506609961 6.610788148076924 3.496109314957309
  endloop
endfacet
facet normal 0.244785 -0.964281 -0.101208
  outer loop
    vertex -0.4447684165599122 7.722324514584658 16.07179678256297
    vertex 0.04278520075541871 7.401985937857968 20.30312268231487
    vertex -3.474518834081438 6.684845336408465 18.62874461760637
  endloop
endfacet
facet normal 0.311646 -0.936923 -0.158279
  outer loop
    vertex -3.952922981742903 6.758785414057202 14.86797937843465
    vertex -1.757299595341505 7.759169950426766 13.26936295546531
    vertex -0.4447684165599122 7.722324514584658 16.07179678256297
  endloop
endfacet
facet normal 0.648962 -0.750284 -0.126186
  outer loop
    vertex -3.056273407062187 6.020170983606394 28.56941809464974
    vertex -5.507851682039651 3.925935802878629 28.41322838697464
    vertex -5.018429996929594 4.933031491610205 24.942216401048
  endloop
endfacet
facet normal 0.541 -0.840028 -0.040885
  outer loop
    vertex -5.018429996929594 4.933031491610205 24.942216401048
    vertex -2.496664686152128 6.526848107614702 25.56403226939122
    vertex -3.056273407062187 6.020170983606394 28.56941809464974
  endloop
endfacet
facet normal 0.1985 -0.979801 -0.0242451
  outer loop
    vertex -1.63349711902783 8.345663761364804 6.301978380270459
    vertex -3.418839943884125 8.064101469219722 3.063560358136066
    vertex -1.501718711745305e-14 8.755741709905621 3.103595842447135
  endloop
endfacet
facet normal 0.719408 -0.69126 -0.0679107
  outer loop
    vertex -6.856555975154808 4.604215227530392 9.41523870785969
    vertex -7.183504609721531 4.607247743735589 5.920857465111638
    vertex -4.879035715256275 6.80522190456938 7.960033304312475
  endloop
endfacet
facet normal 0.224278 -0.973006 -0.0543919
  outer loop
    vertex 0.04278520075541871 7.401985937857968 20.30312268231487
    vertex -3.005500434735677 6.579671734156493 22.4441135457168
    vertex -3.474518834081438 6.684845336408465 18.62874461760637
  endloop
endfacet
facet normal -0.22873 -0.972342 -0.0472572
  outer loop
    vertex -0.4447684165599122 7.722324514584658 16.07179678256297
    vertex 3.495907461313285 6.667897432586471 18.69387833364693
    vertex 0.04278520075541871 7.401985937857968 20.30312268231487
  endloop
endfacet
facet normal 0.401835 -0.904495 -0.142891
  outer loop
    vertex -1.63349711902783 8.345663761364804 6.301978380270459
    vertex -4.860495797029317 7.07961884231342 5.241112594323418
    vertex -3.418839943884125 8.064101469219722 3.063560358136066
  endloop
endfacet
facet normal 0.318973 -0.932368 -0.170138
  outer loop
    vertex -3.680903837498894 4.750058501946171 38
    vertex -1.850929582701205 5.998862612210695 34.58729219346972
    vertex 3.906383862020864e-14 6.009335140664497 38
  endloop
endfacet
facet normal 0.718254 -0.692737 -0.0650142
  outer loop
    vertex -7.183504609721531 4.607247743735589 5.920857465111638
    vertex -4.860495797029317 7.07961884231342 5.241112594323418
    vertex -4.879035715256275 6.80522190456938 7.960033304312475
  endloop
endfacet
facet normal -0.22642 -0.9727 -0.0508728
  outer loop
    vertex 3.949758263500492 6.764656792265649 14.82385625835557
    vertex 3.495907461313285 6.667897432586471 18.69387833364693
    vertex -0.4447684165599122 7.722324514584658 16.07179678256297
  endloop
endfacet
facet normal -0.658467 -0.746476 -0.0958843
  outer loop
    vertex 6.203958146973812 4.502014974523711 16.95863046312747
    vertex 3.495907461313285 6.667897432586471 18.69387833364693
    vertex 3.949758263500492 6.764656792265649 14.82385625835557
  endloop
endfacet
facet normal 0.65043 -0.758684 -0.0365992
  outer loop
    vertex -4.729734357502898 4.411567435794032 32.17477196743485
    vertex -5.507851682039651 3.925935802878629 28.41322838697464
    vertex -3.056273407062187 6.020170983606394 28.56941809464974
  endloop
endfacet
facet normal 0.202844 -0.975441 -0.085845
  outer loop
    vertex 0.04278520075541871 7.401985937857968 20.30312268231487
    vertex 0.202128302314504 7.095661305899626 24.16034445468514
    vertex -3.005500434735677 6.579671734156493 22.4441135457168
  endloop
endfacet
facet normal -0.908414 -0.408441 -0.089215
  outer loop
    vertex 5.828206990488813 4.500797771352572 20.79021411336416
    vertex 6.203958146973812 4.502014974523711 16.95863046312747
    vertex 7.353190368518772 1.5 19.00053057506985
  endloop
endfacet
facet normal -0.696862 -0.71409 -0.066768
  outer loop
    vertex 6.529134880292171 4.557545971550375 13.18314913250922
    vertex 4.393735380894823 6.838652441621006 11.07379697570988
    vertex 6.885653079835084 4.564500972651355 9.387757778140472
  endloop
endfacet
facet normal -0.920544 -0.380788 -0.0871687
  outer loop
    vertex 6.529134880292171 4.557545971550375 13.18314913250922
    vertex 6.885653079835084 4.564500972651355 9.387757778140472
    vertex 7.962716347708785 1.5 11.4004116278518
  endloop
endfacet
facet normal -0.913721 -0.399671 -0.0733339
  outer loop
    vertex 7.353190368518772 1.5 19.00053057506985
    vertex 6.203958146973812 4.502014974523711 16.95863046312747
    vertex 7.658176323082074 1.5 15.20048897677918
  endloop
endfacet
facet normal 0.229089 -0.969343 -0.0888369
  outer loop
    vertex -3.056273407062187 6.020170983606394 28.56941809464974
    vertex -0.01681171130581577 6.83066871673559 27.56370455284398
    vertex 0.1794769946722413 6.531318969479258 31.33623947466411
  endloop
endfacet
facet normal -0.647932 -0.759023 -0.0637817
  outer loop
    vertex 5.828206990488813 4.500797771352572 20.79021411336416
    vertex 3.495907461313285 6.667897432586471 18.69387833364693
    vertex 6.203958146973812 4.502014974523711 16.95863046312747
  endloop
endfacet
facet normal -0.930757 -0.357986 -0.0744062
  outer loop
    vertex 8.266859773641604 1.5 7.600301737014647
    vertex 7.254310952436074 4.528530651920218 5.695415718086018
    vertex 8.570648762862128 1.5 3.800163410562192
  endloop
endfacet
facet normal -0.926475 -0.365696 -0.0889403
  outer loop
    vertex 8.266859773641604 1.5 7.600301737014647
    vertex 6.885653079835084 4.564500972651355 9.387757778140472
    vertex 7.254310952436074 4.528530651920218 5.695415718086018
  endloop
endfacet
facet normal 0.0104729 -0.995703 -0.0920054
  outer loop
    vertex -1.864493596753809 7.977751739809956 10.25731126706787
    vertex -1.63349711902783 8.345663761364804 6.301978380270459
    vertex 1.621160458210807 8.138697598546146 8.912286743932206
  endloop
endfacet
facet normal 0.676324 -0.734017 -0.0616883
  outer loop
    vertex -6.58284644821207 4.473488665366759 13.22692987940716
    vertex -3.952922981742903 6.758785414057202 14.86797937843465
    vertex -6.184584784471276 4.523814759811232 16.99448027720083
  endloop
endfacet
facet normal -0.719434 -0.691504 -0.0650945
  outer loop
    vertex 6.885653079835084 4.564500972651355 9.387757778140472
    vertex 4.819019078843455 6.903987157460944 7.375949357274113
    vertex 7.254310952436074 4.528530651920218 5.695415718086018
  endloop
endfacet
facet normal 0.622581 -0.776403 -0.0979352
  outer loop
    vertex -3.474518834081438 6.684845336408465 18.62874461760637
    vertex -3.005500434735677 6.579671734156493 22.4441135457168
    vertex -5.777932226257678 4.562650642947625 20.8099693973069
  endloop
endfacet
facet normal -0.356942 -0.928682 -0.100708
  outer loop
    vertex 1.126021171781164 7.927969215894028 12.61046126894604
    vertex 1.621160458210807 8.138697598546146 8.912286743932206
    vertex 4.393735380894823 6.838652441621006 11.07379697570988
  endloop
endfacet
facet normal 0.0142684 -0.988135 -0.152925
  outer loop
    vertex -1.850929582701205 5.998862612210695 34.58729219346972
    vertex 0.1794769946722413 6.531318969479258 31.33623947466411
    vertex 1.646836435494521 6.067764160511272 34.46843396097852
  endloop
endfacet
facet normal 0.923521 -0.376358 -0.0739144
  outer loop
    vertex -8.266859773641599 1.5 7.600301737014703
    vertex -6.856555975154808 4.604215227530392 9.41523870785969
    vertex -7.962716347708785 1.5 11.4004116278518
  endloop
endfacet
facet normal 0.915474 -0.391827 -0.0915393
  outer loop
    vertex -7.658176323082074 1.5 15.20048897677918
    vertex -6.58284644821207 4.473488665366759 13.22692987940716
    vertex -6.184584784471276 4.523814759811232 16.99448027720083
  endloop
endfacet
facet normal 0.903725 -0.421903 -0.0726523
  outer loop
    vertex -7.353190368518772 1.5 19.00053057506985
    vertex -5.777932226257678 4.562650642947625 20.8099693973069
    vertex -7.047700614395795 1.5 22.80053169319072
  endloop
endfacet
facet normal -0.915285 -0.393816 -0.0846246
  outer loop
    vertex 7.658176323082074 1.5 15.20048897677918
    vertex 6.203958146973812 4.502014974523711 16.95863046312747
    vertex 6.529134880292171 4.557545971550375 13.18314913250922
  endloop
endfacet
facet normal 0.921929 -0.379174 -0.079206
  outer loop
    vertex -6.856555975154808 4.604215227530392 9.41523870785969
    vertex -6.58284644821207 4.473488665366759 13.22692987940716
    vertex -7.962716347708785 1.5 11.4004116278518
  endloop
endfacet
facet normal 0.0194404 -0.999783 -0.00747576
  outer loop
    vertex 3.906383862020864e-14 6.009335140664497 38
    vertex -1.850929582701205 5.998862612210695 34.58729219346972
    vertex 1.646836435494521 6.067764160511272 34.46843396097852
  endloop
endfacet
facet normal -0.918776 -0.387852 -0.0736311
  outer loop
    vertex 7.658176323082074 1.5 15.20048897677918
    vertex 6.529134880292171 4.557545971550375 13.18314913250922
    vertex 7.962716347708785 1.5 11.4004116278518
  endloop
endfacet
facet normal -0.733065 -0.670429 -0.114637
  outer loop
    vertex 4.819019078843455 6.903987157460944 7.375949357274113
    vertex 5.693899506609961 6.610788148076924 3.496109314957309
    vertex 7.254310952436074 4.528530651920218 5.695415718086018
  endloop
endfacet
facet normal 0.886004 -0.447129 -0.12277
  outer loop
    vertex -7.047700614395795 1.5 22.80053169319072
    vertex -5.777932226257678 4.562650642947625 20.8099693973069
    vertex -5.018429996929594 4.933031491610205 24.942216401048
  endloop
endfacet
facet normal -0.0531971 -0.986688 -0.153677
  outer loop
    vertex -1.501718711745305e-14 8.755741709905621 3.103595842447135
    vertex 2.302479900003658 8.244846231506745 5.586794296057363
    vertex -1.63349711902783 8.345663761364804 6.301978380270459
  endloop
endfacet
facet normal -0.924641 -0.373582 -0.074004
  outer loop
    vertex 7.962716347708785 1.5 11.4004116278518
    vertex 6.885653079835084 4.564500972651355 9.387757778140472
    vertex 8.266859773641604 1.5 7.600301737014647
  endloop
endfacet
facet normal 0.0254588 -0.998245 -0.0534731
  outer loop
    vertex 1.126021171781164 7.927969215894028 12.61046126894604
    vertex -1.864493596753809 7.977751739809956 10.25731126706787
    vertex 1.621160458210807 8.138697598546146 8.912286743932206
  endloop
endfacet
facet normal -0.319292 -0.933299 -0.164333
  outer loop
    vertex 3.906383862020864e-14 6.009335140664497 38
    vertex 1.646836435494521 6.067764160511272 34.46843396097852
    vertex 3.680903837498961 4.750058501946119 38
  endloop
endfacet
facet normal -0.681403 -0.725718 -0.0949924
  outer loop
    vertex 6.529134880292171 4.557545971550375 13.18314913250922
    vertex 3.949758263500492 6.764656792265649 14.82385625835557
    vertex 4.393735380894823 6.838652441621006 11.07379697570988
  endloop
endfacet
facet normal -0.384699 -0.921056 -0.0605171
  outer loop
    vertex 1.621160458210807 8.138697598546146 8.912286743932206
    vertex 4.819019078843455 6.903987157460944 7.375949357274113
    vertex 4.393735380894823 6.838652441621006 11.07379697570988
  endloop
endfacet
facet normal 0.906618 -0.411702 -0.0924363
  outer loop
    vertex -6.184584784471276 4.523814759811232 16.99448027720083
    vertex -5.777932226257678 4.562650642947625 20.8099693973069
    vertex -7.353190368518772 1.5 19.00053057506985
  endloop
endfacet
facet normal 0.602931 -0.79682 -0.0393975
  outer loop
    vertex -5.777932226257678 4.562650642947625 20.8099693973069
    vertex -3.005500434735677 6.579671734156493 22.4441135457168
    vertex -5.018429996929594 4.933031491610205 24.942216401048
  endloop
endfacet
facet normal -0.340489 -0.938406 -0.0588277
  outer loop
    vertex 3.949758263500492 6.764656792265649 14.82385625835557
    vertex 1.126021171781164 7.927969215894028 12.61046126894604
    vertex 4.393735380894823 6.838652441621006 11.07379697570988
  endloop
endfacet
facet normal 0.655961 -0.748385 -0.0981583
  outer loop
    vertex -3.952922981742903 6.758785414057202 14.86797937843465
    vertex -3.474518834081438 6.684845336408465 18.62874461760637
    vertex -6.184584784471276 4.523814759811232 16.99448027720083
  endloop
endfacet
facet normal 0.921158 -0.382124 -0.073822
  outer loop
    vertex -7.962716347708785 1.5 11.4004116278518
    vertex -6.58284644821207 4.473488665366759 13.22692987940716
    vertex -7.658176323082074 1.5 15.20048897677918
  endloop
endfacet
facet normal -0.905993 -0.41698 -0.0728346
  outer loop
    vertex 7.047700614395793 1.5 22.80053169319075
    vertex 5.828206990488813 4.500797771352572 20.79021411336416
    vertex 7.353190368518772 1.5 19.00053057506985
  endloop
endfacet
facet normal 0.912951 -0.401436 -0.0732722
  outer loop
    vertex -7.658176323082074 1.5 15.20048897677918
    vertex -6.184584784471276 4.523814759811232 16.99448027720083
    vertex -7.353190368518772 1.5 19.00053057506985
  endloop
endfacet
facet normal 0.877392 -0.474542 -0.0706683
  outer loop
    vertex -7.047700614395795 1.5 22.80053169319072
    vertex -5.018429996929594 4.933031491610205 24.942216401048
    vertex -6.74163870418778 1.5 26.60048545448288
  endloop
endfacet
facet normal -0.904507 -0.419389 -0.0773316
  outer loop
    vertex 7.047700614395793 1.5 22.80053169319075
    vertex 5.586118598346674 4.331275646511294 24.54115591046076
    vertex 5.828206990488813 4.500797771352572 20.79021411336416
  endloop
endfacet
facet normal -0.903764 -0.421796 -0.0727924
  outer loop
    vertex 6.74163870418778 1.5 26.60048545448288
    vertex 5.586118598346674 4.331275646511294 24.54115591046076
    vertex 7.047700614395793 1.5 22.80053169319075
  endloop
endfacet
facet normal 0.644505 -0.762168 -0.0609332
  outer loop
    vertex -3.474518834081438 6.684845336408465 18.62874461760637
    vertex -5.777932226257678 4.562650642947625 20.8099693973069
    vertex -6.184584784471276 4.523814759811232 16.99448027720083
  endloop
endfacet
facet normal -0.889207 -0.451841 -0.0717739
  outer loop
    vertex 6.434922723518421 1.5 30.4003888332834
    vertex 5.101358590525975 4.445276292078422 28.38041757186451
    vertex 6.74163870418778 1.5 26.60048545448288
  endloop
endfacet
facet normal -0.893715 -0.43738 -0.0998567
  outer loop
    vertex 5.101358590525975 4.445276292078422 28.38041757186451
    vertex 5.586118598346674 4.331275646511294 24.54115591046076
    vertex 6.74163870418778 1.5 26.60048545448288
  endloop
endfacet
facet normal -0.256326 -0.951014 -0.172825
  outer loop
    vertex 3.949758263500492 6.764656792265649 14.82385625835557
    vertex -0.4447684165599122 7.722324514584658 16.07179678256297
    vertex 1.126021171781164 7.927969215894028 12.61046126894604
  endloop
endfacet
facet normal -0.673523 -0.735954 -0.0688342
  outer loop
    vertex 6.529134880292171 4.557545971550375 13.18314913250922
    vertex 6.203958146973812 4.502014974523711 16.95863046312747
    vertex 3.949758263500492 6.764656792265649 14.82385625835557
  endloop
endfacet
facet normal -0.878859 -0.471751 -0.0711138
  outer loop
    vertex 6.127454828320491 1.5 34.20023002817408
    vertex 4.726549656709804 4.414355011585199 32.18018690439169
    vertex 6.434922723518421 1.5 30.4003888332834
  endloop
endfacet
facet normal -0.704916 -0.703101 -0.093494
  outer loop
    vertex 4.393735380894823 6.838652441621006 11.07379697570988
    vertex 4.819019078843455 6.903987157460944 7.375949357274113
    vertex 6.885653079835084 4.564500972651355 9.387757778140472
  endloop
endfacet
facet normal 0.879016 -0.471458 -0.0711264
  outer loop
    vertex -6.434922723518424 1.5 30.40038883328336
    vertex -4.729734357502898 4.411567435794032 32.17477196743485
    vertex -6.127454828320493 1.5 34.20023002817405
  endloop
endfacet
facet normal -0.882339 -0.461774 -0.0907916
  outer loop
    vertex 6.434922723518421 1.5 30.4003888332834
    vertex 4.726549656709804 4.414355011585199 32.18018690439169
    vertex 5.101358590525975 4.445276292078422 28.38041757186451
  endloop
endfacet
facet normal 0.402167 -0.913499 -0.0614836
  outer loop
    vertex -1.864493596753809 7.977751739809956 10.25731126706787
    vertex -4.879035715256275 6.80522190456938 7.960033304312475
    vertex -1.63349711902783 8.345663761364804 6.301978380270459
  endloop
endfacet
facet normal 0.718535 -0.695185 -0.0206173
  outer loop
    vertex -5.092435961360659 7.420720718329234 0
    vertex -6.29264452900055 6.088155527105104 3.103595842447156
    vertex -7.584846902842194 4.844594664205167 0
  endloop
endfacet
facet normal 1.98185e-15 -0.999787 -0.0206173
  outer loop
    vertex 1.792242851007745 8.819742942002994 0
    vertex -1.501718711745305e-14 8.755741709905621 3.103595842447135
    vertex -1.792242851007776 8.819742942002987 0
  endloop
endfacet
facet normal -0.628298 -0.772921 -0.0885151
  outer loop
    vertex 5.586118598346674 4.331275646511294 24.54115591046076
    vertex 2.957646114594665 6.269871770481082 26.27062236722013
    vertex 3.286173095108683 6.454373761786171 22.32758643821892
  endloop
endfacet
facet normal -0.931919 -0.359236 -0.0497747
  outer loop
    vertex 8.874119674649437 1.49999999999996 0
    vertex 7.628644499919287 4.324561926029999 2.933183143999486
    vertex 7.584846902842179 4.844594664205191 0
  endloop
endfacet
facet normal 0.197999 -0.97095 -0.134362
  outer loop
    vertex -1.501718711745305e-14 8.755741709905621 3.103595842447135
    vertex -3.418839943884125 8.064101469219722 3.063560358136066
    vertex -1.792242851007776 8.819742942002987 0
  endloop
endfacet
facet normal -0.0325874 -0.998725 -0.0385554
  outer loop
    vertex -1.63349711902783 8.345663761364804 6.301978380270459
    vertex 2.302479900003658 8.244846231506745 5.586794296057363
    vertex 1.621160458210807 8.138697598546146 8.912286743932206
  endloop
endfacet
facet normal 0.390222 -0.920506 -0.0198587
  outer loop
    vertex -1.792242851007776 8.819742942002987 0
    vertex -3.418839943884125 8.064101469219722 3.063560358136066
    vertex -5.092435961360659 7.420720718329234 0
  endloop
endfacet
facet normal -0.238833 -0.968484 -0.0706952
  outer loop
    vertex 3.495907461313285 6.667897432586471 18.69387833364693
    vertex 3.286173095108683 6.454373761786171 22.32758643821892
    vertex 0.04278520075541871 7.401985937857968 20.30312268231487
  endloop
endfacet
facet normal -0.938831 -0.336117 -0.0749726
  outer loop
    vertex 8.570648762862128 1.5 3.800163410562192
    vertex 7.628644499919287 4.324561926029999 2.933183143999486
    vertex 8.874119674649437 1.49999999999996 0
  endloop
endfacet
facet normal -0.636001 -0.767961 -0.0757556
  outer loop
    vertex 5.586118598346674 4.331275646511294 24.54115591046076
    vertex 3.286173095108683 6.454373761786171 22.32758643821892
    vertex 5.828206990488813 4.500797771352572 20.79021411336416
  endloop
endfacet
facet normal 0.184103 -0.982325 -0.0338293
  outer loop
    vertex 0.1794769946722413 6.531318969479258 31.33623947466411
    vertex -2.525630606075481 6.023278359255436 31.3670173414415
    vertex -3.056273407062187 6.020170983606394 28.56941809464974
  endloop
endfacet
facet normal 0.928498 -0.363843 -0.0742256
  outer loop
    vertex -8.570648762862131 1.5 3.800163410562135
    vertex -7.183504609721531 4.607247743735589 5.920857465111638
    vertex -8.266859773641599 1.5 7.600301737014703
  endloop
endfacet
facet normal 0.561458 -0.820742 -0.105585
  outer loop
    vertex -3.056273407062187 6.020170983606394 28.56941809464974
    vertex -2.525630606075481 6.023278359255436 31.3670173414415
    vertex -4.729734357502898 4.411567435794032 32.17477196743485
  endloop
endfacet
facet normal -0.768997 -0.636688 -0.0571989
  outer loop
    vertex 5.693899506609961 6.610788148076924 3.496109314957309
    vertex 7.628644499919287 4.324561926029999 2.933183143999486
    vertex 7.254310952436074 4.528530651920218 5.695415718086018
  endloop
endfacet
facet normal -0.241097 -0.96819 -0.0669299
  outer loop
    vertex 0.04278520075541871 7.401985937857968 20.30312268231487
    vertex 3.286173095108683 6.454373761786171 22.32758643821892
    vertex 0.202128302314504 7.095661305899626 24.16034445468514
  endloop
endfacet
facet normal -0.637946 -0.765722 -0.081817
  outer loop
    vertex 5.828206990488813 4.500797771352572 20.79021411336416
    vertex 3.286173095108683 6.454373761786171 22.32758643821892
    vertex 3.495907461313285 6.667897432586471 18.69387833364693
  endloop
endfacet
facet normal -0.450875 -0.891929 -0.0342665
  outer loop
    vertex 4.819019078843455 6.903987157460944 7.375949357274113
    vertex 2.302479900003658 8.244846231506745 5.586794296057363
    vertex 5.693899506609961 6.610788148076924 3.496109314957309
  endloop
endfacet
facet normal 0.389212 -0.916754 -0.089866
  outer loop
    vertex -4.879035715256275 6.80522190456938 7.960033304312475
    vertex -4.860495797029317 7.07961884231342 5.241112594323418
    vertex -1.63349711902783 8.345663761364804 6.301978380270459
  endloop
endfacet
facet normal 0.560161 -0.817417 -0.134345
  outer loop
    vertex -5.092435961360659 7.420720718329234 0
    vertex -3.418839943884125 8.064101469219722 3.063560358136066
    vertex -6.29264452900055 6.088155527105104 3.103595842447156
  endloop
endfacet
facet normal 0.892785 -0.450458 -0.00481296
  outer loop
    vertex -5.018429996929594 4.933031491610205 24.942216401048
    vertex -5.507851682039651 3.925935802878629 28.41322838697464
    vertex -6.74163870418778 1.5 26.60048545448288
  endloop
endfacet
facet normal -0.240217 -0.968518 -0.0653332
  outer loop
    vertex 3.286173095108683 6.454373761786171 22.32758643821892
    vertex 2.957646114594665 6.269871770481082 26.27062236722013
    vertex 0.202128302314504 7.095661305899626 24.16034445468514
  endloop
endfacet
facet normal 0.887658 -0.442801 -0.126454
  outer loop
    vertex -6.434922723518424 1.5 30.40038883328336
    vertex -5.507851682039651 3.925935802878629 28.41322838697464
    vertex -4.729734357502898 4.411567435794032 32.17477196743485
  endloop
endfacet
facet normal -0.600319 -0.797058 -0.0657016
  outer loop
    vertex 4.726549656709804 4.414355011585199 32.18018690439169
    vertex 2.886083957244939 6.004333579514932 29.7078139452586
    vertex 5.101358590525975 4.445276292078422 28.38041757186451
  endloop
endfacet
facet normal 0.886854 -0.456411 -0.0719653
  outer loop
    vertex -6.127454828320493 1.5 34.20023002817405
    vertex -4.732969251929773 4.046423378829351 35.23531466550391
    vertex -5.819115811944728 1.500000000000007 38
  endloop
endfacet
facet normal -0.88111 -0.467475 -0.0714992
  outer loop
    vertex 5.819115811944772 1.499999999999922 38
    vertex 4.633657492870601 4.168289032371534 35.16303635405
    vertex 6.127454828320491 1.5 34.20023002817408
  endloop
endfacet
facet normal 0.688178 -0.718243 -0.102653
  outer loop
    vertex -6.58284644821207 4.473488665366759 13.22692987940716
    vertex -4.482566670449114 6.755805519706206 11.33812818453193
    vertex -3.952922981742903 6.758785414057202 14.86797937843465
  endloop
endfacet
facet normal 0.822484 -0.541112 -0.175268
  outer loop
    vertex -5.819115811944728 1.500000000000007 38
    vertex -4.732969251929773 4.046423378829351 35.23531466550391
    vertex -3.680903837498894 4.750058501946171 38
  endloop
endfacet
facet normal 0.0500727 -0.998076 -0.0365741
  outer loop
    vertex -0.4447684165599122 7.722324514584658 16.07179678256297
    vertex -1.757299595341505 7.759169950426766 13.26936295546531
    vertex 1.126021171781164 7.927969215894028 12.61046126894604
  endloop
endfacet
facet normal -0.823889 -0.542036 -0.165537
  outer loop
    vertex 3.680903837498961 4.750058501946119 38
    vertex 4.633657492870601 4.168289032371534 35.16303635405
    vertex 5.819115811944772 1.499999999999922 38
  endloop
endfacet
facet normal -0.485604 -0.866294 -0.117149
  outer loop
    vertex 5.693899506609961 6.610788148076924 3.496109314957309
    vertex 2.856636567925634 8.31237945072581 2.674139751609374
    vertex 5.092435961360636 7.420720718329251 0
  endloop
endfacet
facet normal 0.925153 -0.369518 -0.0868818
  outer loop
    vertex -8.266859773641599 1.5 7.600301737014703
    vertex -7.183504609721531 4.607247743735589 5.920857465111638
    vertex -6.856555975154808 4.604215227530392 9.41523870785969
  endloop
endfacet
facet normal -0.615613 -0.786169 -0.0543857
  outer loop
    vertex 5.101358590525975 4.445276292078422 28.38041757186451
    vertex 2.957646114594665 6.269871770481082 26.27062236722013
    vertex 5.586118598346674 4.331275646511294 24.54115591046076
  endloop
endfacet
facet normal 0.542771 -0.834033 -0.0989323
  outer loop
    vertex -1.850929582701205 5.998862612210695 34.58729219346972
    vertex -4.732969251929773 4.046423378829351 35.23531466550391
    vertex -4.729734357502898 4.411567435794032 32.17477196743485
  endloop
endfacet
facet normal -0.390226 -0.920516 -0.0193265
  outer loop
    vertex 5.092435961360636 7.420720718329251 0
    vertex 2.856636567925634 8.31237945072581 2.674139751609374
    vertex 1.792242851007745 8.819742942002994 0
  endloop
endfacet
facet normal -0.404217 -0.907806 -0.111792
  outer loop
    vertex 1.621160458210807 8.138697598546146 8.912286743932206
    vertex 2.302479900003658 8.244846231506745 5.586794296057363
    vertex 4.819019078843455 6.903987157460944 7.375949357274113
  endloop
endfacet
facet normal 0.549523 -0.829023 -0.103659
  outer loop
    vertex -3.005500434735677 6.579671734156493 22.4441135457168
    vertex -2.496664686152128 6.526848107614702 25.56403226939122
    vertex -5.018429996929594 4.933031491610205 24.942216401048
  endloop
endfacet
facet normal 0.709103 -0.698885 -0.0934473
  outer loop
    vertex -4.879035715256275 6.80522190456938 7.960033304312475
    vertex -4.482566670449114 6.755805519706206 11.33812818453193
    vertex -6.856555975154808 4.604215227530392 9.41523870785969
  endloop
endfacet
facet normal 0.945935 -0.315438 -0.0755398
  outer loop
    vertex -8.87411967464945 1.499999999999925 0
    vertex -7.829356381241315 3.999863415254722 2.644000009677356
    vertex -8.570648762862131 1.5 3.800163410562135
  endloop
endfacet
facet normal 0.702216 -0.708034 -0.0747075
  outer loop
    vertex -6.856555975154808 4.604215227530392 9.41523870785969
    vertex -4.482566670449114 6.755805519706206 11.33812818453193
    vertex -6.58284644821207 4.473488665366759 13.22692987940716
  endloop
endfacet
facet normal 0.560478 -0.828166 -0.00250751
  outer loop
    vertex -3.680903837498894 4.750058501946171 38
    vertex -4.732969251929773 4.046423378829351 35.23531466550391
    vertex -1.850929582701205 5.998862612210695 34.58729219346972
  endloop
endfacet
facet normal 0.932693 -0.359534 -0.0286147
  outer loop
    vertex -7.584846902842194 4.844594664205167 0
    vertex -7.829356381241315 3.999863415254722 2.644000009677356
    vertex -8.87411967464945 1.499999999999925 0
  endloop
endfacet
facet normal 0.401546 -0.913839 -0.0604954
  outer loop
    vertex -1.864493596753809 7.977751739809956 10.25731126706787
    vertex -4.482566670449114 6.755805519706206 11.33812818453193
    vertex -4.879035715256275 6.80522190456938 7.960033304312475
  endloop
endfacet
facet normal 0.379786 -0.923365 -0.0562063
  outer loop
    vertex -4.482566670449114 6.755805519706206 11.33812818453193
    vertex -1.757299595341505 7.759169950426766 13.26936295546531
    vertex -3.952922981742903 6.758785414057202 14.86797937843465
  endloop
endfacet
facet normal 0.556094 -0.822006 -0.122743
  outer loop
    vertex -4.729734357502898 4.411567435794032 32.17477196743485
    vertex -2.525630606075481 6.023278359255436 31.3670173414415
    vertex -1.850929582701205 5.998862612210695 34.58729219346972
  endloop
endfacet
facet normal -0.520261 -0.849637 -0.0862916
  outer loop
    vertex 4.726549656709804 4.414355011585199 32.18018690439169
    vertex 4.633657492870601 4.168289032371534 35.16303635405
    vertex 1.646836435494521 6.067764160511272 34.46843396097852
  endloop
endfacet
facet normal 0.700735 -0.698417 -0.145544
  outer loop
    vertex -6.29264452900055 6.088155527105104 3.103595842447156
    vertex -4.860495797029317 7.07961884231342 5.241112594323418
    vertex -7.183504609721531 4.607247743735589 5.920857465111638
  endloop
endfacet
facet normal 0.934685 -0.333755 -0.122358
  outer loop
    vertex -8.570648762862131 1.5 3.800163410562135
    vertex -7.829356381241315 3.999863415254722 2.644000009677356
    vertex -7.183504609721531 4.607247743735589 5.920857465111638
  endloop
endfacet
facet normal 0.910047 -0.407945 -0.0734561
  outer loop
    vertex -6.74163870418778 1.5 26.60048545448288
    vertex -5.507851682039651 3.925935802878629 28.41322838697464
    vertex -6.434922723518424 1.5 30.40038883328336
  endloop
endfacet
facet normal -0.228359 -0.971391 -0.0651979
  outer loop
    vertex -0.01681171130581577 6.83066871673559 27.56370455284398
    vertex 2.886083957244939 6.004333579514932 29.7078139452586
    vertex 0.1794769946722413 6.531318969479258 31.33623947466411
  endloop
endfacet
facet normal 0.394096 -0.91554 -0.0804651
  outer loop
    vertex -1.864493596753809 7.977751739809956 10.25731126706787
    vertex -1.757299595341505 7.759169950426766 13.26936295546531
    vertex -4.482566670449114 6.755805519706206 11.33812818453193
  endloop
endfacet
facet normal 0.182825 -0.982048 -0.0464446
  outer loop
    vertex 0.202128302314504 7.095661305899626 24.16034445468514
    vertex -2.496664686152128 6.526848107614702 25.56403226939122
    vertex -3.005500434735677 6.579671734156493 22.4441135457168
  endloop
endfacet
facet normal -0.535512 -0.844501 -0.00666433
  outer loop
    vertex 1.646836435494521 6.067764160511272 34.46843396097852
    vertex 4.633657492870601 4.168289032371534 35.16303635405
    vertex 3.680903837498961 4.750058501946119 38
  endloop
endfacet
facet normal 0.809721 -0.584573 -0.0512379
  outer loop
    vertex -7.183504609721531 4.607247743735589 5.920857465111638
    vertex -7.829356381241315 3.999863415254722 2.644000009677356
    vertex -6.29264452900055 6.088155527105104 3.103595842447156
  endloop
endfacet
facet normal -0.22212 -0.970868 -0.0898828
  outer loop
    vertex 2.957646114594665 6.269871770481082 26.27062236722013
    vertex -0.01681171130581577 6.83066871673559 27.56370455284398
    vertex 0.202128302314504 7.095661305899626 24.16034445468514
  endloop
endfacet
facet normal -0.934012 -0.342584 -0.101279
  outer loop
    vertex 7.254310952436074 4.528530651920218 5.695415718086018
    vertex 7.628644499919287 4.324561926029999 2.933183143999486
    vertex 8.570648762862128 1.5 3.800163410562192
  endloop
endfacet
facet normal 0.18388 -0.981873 -0.0459705
  outer loop
    vertex -1.850929582701205 5.998862612210695 34.58729219346972
    vertex -2.525630606075481 6.023278359255436 31.3670173414415
    vertex 0.1794769946722413 6.531318969479258 31.33623947466411
  endloop
endfacet
facet normal -0.486831 -0.866194 -0.112707
  outer loop
    vertex 2.302479900003658 8.244846231506745 5.586794296057363
    vertex 2.856636567925634 8.31237945072581 2.674139751609374
    vertex 5.693899506609961 6.610788148076924 3.496109314957309
  endloop
endfacet
facet normal 0.884928 -0.462557 -0.0542509
  outer loop
    vertex -4.729734357502898 4.411567435794032 32.17477196743485
    vertex -4.732969251929773 4.046423378829351 35.23531466550391
    vertex -6.127454828320493 1.5 34.20023002817405
  endloop
endfacet
facet normal -0.880639 -0.46915 -0.0661268
  outer loop
    vertex 6.127454828320491 1.5 34.20023002817408
    vertex 4.633657492870601 4.168289032371534 35.16303635405
    vertex 4.726549656709804 4.414355011585199 32.18018690439169
  endloop
endfacet
facet normal -0.169611 -0.978407 -0.118122
  outer loop
    vertex 1.792242851007745 8.819742942002994 0
    vertex 2.856636567925634 8.31237945072581 2.674139751609374
    vertex -1.501718711745305e-14 8.755741709905621 3.103595842447135
  endloop
endfacet
facet normal 0.0414719 -0.996412 -0.0737846
  outer loop
    vertex 1.126021171781164 7.927969215894028 12.61046126894604
    vertex -1.757299595341505 7.759169950426766 13.26936295546531
    vertex -1.864493596753809 7.977751739809956 10.25731126706787
  endloop
endfacet
facet normal -0.218028 -0.972684 -0.0796835
  outer loop
    vertex 2.957646114594665 6.269871770481082 26.27062236722013
    vertex 2.886083957244939 6.004333579514932 29.7078139452586
    vertex -0.01681171130581577 6.83066871673559 27.56370455284398
  endloop
endfacet
facet normal -0.603198 -0.79416 -0.0739109
  outer loop
    vertex 5.101358590525975 4.445276292078422 28.38041757186451
    vertex 2.886083957244939 6.004333579514932 29.7078139452586
    vertex 2.957646114594665 6.269871770481082 26.27062236722013
  endloop
endfacet
facet normal 0.811919 -0.573656 -0.108193
  outer loop
    vertex -6.29264452900055 6.088155527105104 3.103595842447156
    vertex -7.829356381241315 3.999863415254722 2.644000009677356
    vertex -7.584846902842194 4.844594664205167 0
  endloop
endfacet
facet normal -0.160995 -0.985505 -0.0534806
  outer loop
    vertex -1.501718711745305e-14 8.755741709905621 3.103595842447135
    vertex 2.856636567925634 8.31237945072581 2.674139751609374
    vertex 2.302479900003658 8.244846231506745 5.586794296057363
  endloop
endfacet
facet normal 0.17312 -0.982728 -0.0653803
  outer loop
    vertex -0.01681171130581577 6.83066871673559 27.56370455284398
    vertex -2.496664686152128 6.526848107614702 25.56403226939122
    vertex 0.202128302314504 7.095661305899626 24.16034445468514
  endloop
endfacet
facet normal 0.566591 -0.823995 0.00258135
  outer loop
    vertex -3.418839943884125 8.064101469219722 3.063560358136066
    vertex -4.860495797029317 7.07961884231342 5.241112594323418
    vertex -6.29264452900055 6.088155527105104 3.103595842447156
  endloop
endfacet
facet normal 0.217594 -0.968293 -0.122728
  outer loop
    vertex -3.056273407062187 6.020170983606394 28.56941809464974
    vertex -2.496664686152128 6.526848107614702 25.56403226939122
    vertex -0.01681171130581577 6.83066871673559 27.56370455284398
  endloop
endfacet
facet normal 0 -0 -1
  outer loop
    vertex 3.680903837498961 4.750058501946119 38
    vertex 5.819115811944772 1.499999999999922 38
    vertex 1.939705270648272 1.5 38
  endloop
endfacet
facet normal 0 -0 -1
  outer loop
    vertex -3.680903837498894 4.750058501946171 38
    vertex -1.939705270648229 1.5 38
    vertex -5.819115811944728 1.500000000000007 38
  endloop
endfacet
facet normal -0 0 -1
  outer loop
    vertex 3.680903837498961 4.750058501946119 38
    vertex 2.112173141200313e-14 3.337482284739774 38
    vertex 3.906383862020864e-14 6.009335140664497 38
  endloop
endfacet
facet normal 0 0 -1
  outer loop
    vertex 3.906383862020864e-14 6.009335140664497 38
    vertex 2.112173141200313e-14 3.337482284739774 38
    vertex -3.680903837498894 4.750058501946171 38
  endloop
endfacet
facet normal 0 0 -1
  outer loop
    vertex 1.939705270648272 1.5 38
    vertex 2.112173141200313e-14 3.337482284739774 38
    vertex 3.680903837498961 4.750058501946119 38
  endloop
endfacet
facet normal 0 0 -1
  outer loop
    vertex -3.680903837498894 4.750058501946171 38
    vertex 2.112173141200313e-14 3.337482284739774 38
    vertex -1.939705270648229 1.5 38
  endloop
endfacet
facet normal 0 0 -1
  outer loop
    vertex -1.939705270648229 1.5 38
    vertex 2.112173141200313e-14 3.337482284739774 38
    vertex 1.939705270648272 1.5 38
  endloop
endfacet
facet normal -4.71021e-16 1 -8.55819e-16
  outer loop
    vertex 0.7849953159809124 1.499999999999992 18.57872418683291
    vertex -3.13290098420257 1.499999999999991 19.95667781902085
    vertex 0.3824672881814813 1.499999999999995 22.43260369792043
  endloop
endfacet
facet normal -8.65744e-16 1 -1.10787e-14
  outer loop
    vertex -1.774823934929893 1.499999999999939 0
    vertex -4.039932807254748 1.499999999999977 3.564170967962495
    vertex -0.1133342307280858 1.499999999999978 3.397625402802966
  endloop
endfacet
facet normal 4.36595e-15 1 -1.40333e-14
  outer loop
    vertex -8.570648762862131 1.5 3.800163410562135
    vertex -4.039932807254748 1.499999999999977 3.564170967962495
    vertex -5.32447180478967 1.499999999999932 0
  endloop
endfacet
facet normal -4.67848e-16 1 -8.46796e-16
  outer loop
    vertex 0.7849953159809124 1.499999999999992 18.57872418683291
    vertex -1.470912882257672 1.499999999999989 16.41626818394537
    vertex -3.13290098420257 1.499999999999991 19.95667781902085
  endloop
endfacet
facet normal -2.00173e-15 1 -1.94727e-14
  outer loop
    vertex -8.87411967464945 1.499999999999925 0
    vertex -8.570648762862131 1.5 3.800163410562135
    vertex -5.32447180478967 1.499999999999932 0
  endloop
endfacet
facet normal -1.93917e-15 1 -1.17609e-14
  outer loop
    vertex -5.32447180478967 1.499999999999932 0
    vertex -4.039932807254748 1.499999999999977 3.564170967962495
    vertex -1.774823934929893 1.499999999999939 0
  endloop
endfacet
facet normal -4.78854e-16 1 -8.70352e-16
  outer loop
    vertex 1.814870013600013 1.499999999999982 6.928924155254748
    vertex 3.549647869859771 1.49999999999998 2.657912087527693
    vertex -0.1133342307280858 1.499999999999978 3.397625402802966
  endloop
endfacet
facet normal -4.23732e-16 1 -8.26086e-16
  outer loop
    vertex -3.13290098420257 1.499999999999991 19.95667781902085
    vertex -1.470912882257672 1.499999999999989 16.41626818394537
    vertex -4.578870724040998 1.499999999999987 16.12892450783846
  endloop
endfacet
facet normal -4.31481e-16 1 -8.40263e-16
  outer loop
    vertex -4.039932807254748 1.499999999999977 3.564170967962495
    vertex -1.813602785122333 1.49999999999998 6.649030411995783
    vertex -0.1133342307280858 1.499999999999978 3.397625402802966
  endloop
endfacet
facet normal 1.39272e-15 1 -1.12174e-16
  outer loop
    vertex -6.74163870418778 1.5 26.60048545448288
    vertex -3.095520288653463 1.499999999999995 24.3623076127007
    vertex -7.047700614395795 1.5 22.80053169319072
  endloop
endfacet
facet normal -4.42042e-16 1 -7.96247e-16
  outer loop
    vertex 0.004977665209060458 1.500000000000004 34.55371636693175
    vertex 0.05868851303658508 1.500000000000001 29.78320877925678
    vertex -2.991180851615239 1.500000000000001 32.03409519708376
  endloop
endfacet
facet normal -4.31908e-16 1 -7.96133e-16
  outer loop
    vertex 3.066405190664907 1.500000000000004 32.05615485762809
    vertex 0.05868851303658508 1.500000000000001 29.78320877925678
    vertex 0.004977665209060458 1.500000000000004 34.55371636693175
  endloop
endfacet
facet normal -4.62902e-16 1 -8.15216e-16
  outer loop
    vertex -2.039006678008734 1.499999999999986 12.78009300902755
    vertex -5.336622700771298 1.499999999999984 13.01832058373663
    vertex -4.578870724040998 1.499999999999987 16.12892450783846
  endloop
endfacet
facet normal -4.27238e-16 1 -7.88167e-16
  outer loop
    vertex -4.578870724040998 1.499999999999987 16.12892450783846
    vertex -1.470912882257672 1.499999999999989 16.41626818394537
    vertex -2.039006678008734 1.499999999999986 12.78009300902755
  endloop
endfacet
facet normal -4.73156e-16 1 -8.52789e-16
  outer loop
    vertex -3.13290098420257 1.499999999999991 19.95667781902085
    vertex -3.095520288653463 1.499999999999995 24.3623076127007
    vertex 0.3824672881814813 1.499999999999995 22.43260369792043
  endloop
endfacet
facet normal -4.50066e-16 1 -8.58659e-16
  outer loop
    vertex 5.563416047793353 1.499999999999983 5.48131565381556
    vertex 3.549647869859771 1.49999999999998 2.657912087527693
    vertex 1.814870013600013 1.499999999999982 6.928924155254748
  endloop
endfacet
facet normal -4.83828e-16 1 -8.67637e-16
  outer loop
    vertex -1.813602785122333 1.49999999999998 6.649030411995783
    vertex 1.814870013600013 1.499999999999982 6.928924155254748
    vertex -0.1133342307280858 1.499999999999978 3.397625402802966
  endloop
endfacet
facet normal 1.00085e-15 1 -7.50549e-16
  outer loop
    vertex -3.297469478736931 1.499999999999998 28.23481344386815
    vertex -3.095520288653463 1.499999999999995 24.3623076127007
    vertex -6.74163870418778 1.5 26.60048545448288
  endloop
endfacet
facet normal 1.69264e-15 1 -8.71165e-16
  outer loop
    vertex -7.047700614395795 1.5 22.80053169319072
    vertex -3.095520288653463 1.499999999999995 24.3623076127007
    vertex -3.13290098420257 1.499999999999991 19.95667781902085
  endloop
endfacet
facet normal -4.70537e-16 1 -8.27281e-16
  outer loop
    vertex -3.297469478736931 1.499999999999998 28.23481344386815
    vertex 0.196320252469274 1.499999999999998 26.24763234298111
    vertex -3.095520288653463 1.499999999999995 24.3623076127007
  endloop
endfacet
facet normal -4.74884e-16 1 -8.34924e-16
  outer loop
    vertex -3.297469478736931 1.499999999999998 28.23481344386815
    vertex 0.05868851303658508 1.500000000000001 29.78320877925678
    vertex 0.196320252469274 1.499999999999998 26.24763234298111
  endloop
endfacet
facet normal -1.50818e-16 1 -8.3945e-16
  outer loop
    vertex 3.616978512300451 1.499999999999998 24.51674917051682
    vertex 3.352492316029569 1.500000000000001 28.26743657302485
    vertex 6.74163870418778 1.5 26.60048545448288
  endloop
endfacet
facet normal -4.68212e-16 1 -8.88716e-16
  outer loop
    vertex -4.698954219260671 1.499999999999981 9.434336820367696
    vertex -5.336622700771298 1.499999999999984 13.01832058373663
    vertex -2.039006678008734 1.499999999999986 12.78009300902755
  endloop
endfacet
facet normal -4.64678e-16 1 -8.3751e-16
  outer loop
    vertex -3.095520288653463 1.499999999999995 24.3623076127007
    vertex 0.196320252469274 1.499999999999998 26.24763234298111
    vertex 0.3824672881814813 1.499999999999995 22.43260369792043
  endloop
endfacet
facet normal -4.87261e-16 1 -8.15892e-16
  outer loop
    vertex 4.941332669217783 1.499999999999986 9.243495996515774
    vertex 1.524626680725786 1.499999999999986 11.011847634296
    vertex 4.519730687604532 1.499999999999989 13.03322408245893
  endloop
endfacet
facet normal -5.95141e-15 1 -4.75765e-16
  outer loop
    vertex 8.570648762862128 1.5 3.800163410562192
    vertex 5.563416047793353 1.499999999999983 5.48131565381556
    vertex 8.266859773641604 1.5 7.600301737014647
  endloop
endfacet
facet normal -4.34906e-16 1 -8.59483e-16
  outer loop
    vertex 0.196320252469274 1.499999999999998 26.24763234298111
    vertex 3.352492316029569 1.500000000000001 28.26743657302485
    vertex 3.616978512300451 1.499999999999998 24.51674917051682
  endloop
endfacet
facet normal -4.67537e-16 1 -8.03677e-16
  outer loop
    vertex 1.274333648807364 1.499999999999989 14.70233461025314
    vertex 0.7849953159809124 1.499999999999992 18.57872418683291
    vertex 4.247522464560102 1.499999999999992 16.8406920432472
  endloop
endfacet
facet normal -3.85362e-15 1 -1.1904e-15
  outer loop
    vertex 7.962716347708785 1.5 11.4004116278518
    vertex 4.941332669217783 1.499999999999986 9.243495996515774
    vertex 4.519730687604532 1.499999999999989 13.03322408245893
  endloop
endfacet
facet normal -2.50553e-15 1 -2.0109e-16
  outer loop
    vertex 7.658176323082074 1.5 15.20048897677918
    vertex 4.247522464560102 1.499999999999992 16.8406920432472
    vertex 7.353190368518772 1.5 19.00053057506985
  endloop
endfacet
facet normal -5.06631e-15 1 -1.60499e-15
  outer loop
    vertex 5.563416047793353 1.499999999999983 5.48131565381556
    vertex 4.941332669217783 1.499999999999986 9.243495996515774
    vertex 8.266859773641604 1.5 7.600301737014647
  endloop
endfacet
facet normal 5.45195e-15 1 -4.36349e-16
  outer loop
    vertex -7.962716347708785 1.5 11.4004116278518
    vertex -4.698954219260671 1.499999999999981 9.434336820367696
    vertex -8.266859773641599 1.5 7.600301737014703
  endloop
endfacet
facet normal 0 1 1.2886e-15
  outer loop
    vertex 1.939705270648272 1.5 38
    vertex 0.004977665209060458 1.500000000000004 34.55371636693175
    vertex -1.939705270648229 1.5 38
  endloop
endfacet
facet normal -1.99443e-15 1 -9.36006e-16
  outer loop
    vertex 7.353190368518772 1.5 19.00053057506985
    vertex 4.247522464560102 1.499999999999992 16.8406920432472
    vertex 3.923612213255351 1.499999999999995 20.61480681162971
  endloop
endfacet
facet normal -2.90121e-15 1 -1.02387e-15
  outer loop
    vertex 4.519730687604532 1.499999999999989 13.03322408245893
    vertex 4.247522464560102 1.499999999999992 16.8406920432472
    vertex 7.658176323082074 1.5 15.20048897677918
  endloop
endfacet
facet normal -4.32515e-16 1 -8.71668e-16
  outer loop
    vertex 1.524626680725786 1.499999999999986 11.011847634296
    vertex -2.039006678008734 1.499999999999986 12.78009300902755
    vertex 1.274333648807364 1.499999999999989 14.70233461025314
  endloop
endfacet
facet normal -4.44922e-15 1 -3.56095e-16
  outer loop
    vertex 8.266859773641604 1.5 7.600301737014647
    vertex 4.941332669217783 1.499999999999986 9.243495996515774
    vertex 7.962716347708785 1.5 11.4004116278518
  endloop
endfacet
facet normal -4.68212e-16 1 -8.0502e-16
  outer loop
    vertex 4.247522464560102 1.499999999999992 16.8406920432472
    vertex 0.7849953159809124 1.499999999999992 18.57872418683291
    vertex 3.923612213255351 1.499999999999995 20.61480681162971
  endloop
endfacet
facet normal -4.37527e-16 1 -8.52321e-16
  outer loop
    vertex 0.7849953159809124 1.499999999999992 18.57872418683291
    vertex 0.3824672881814813 1.499999999999995 22.43260369792043
    vertex 3.923612213255351 1.499999999999995 20.61480681162971
  endloop
endfacet
facet normal 6.70374e-16 1 -5.41104e-17
  outer loop
    vertex -6.434922723518424 1.5 30.40038883328336
    vertex -3.297469478736931 1.499999999999998 28.23481344386815
    vertex -6.74163870418778 1.5 26.60048545448288
  endloop
endfacet
facet normal -1.61497e-15 1 -1.2983e-16
  outer loop
    vertex 7.353190368518772 1.5 19.00053057506985
    vertex 3.923612213255351 1.499999999999995 20.61480681162971
    vertex 7.047700614395793 1.5 22.80053169319075
  endloop
endfacet
facet normal 1.16702e-15 1 9.44302e-17
  outer loop
    vertex 6.434922723518421 1.5 30.4003888332834
    vertex 3.066405190664907 1.500000000000004 32.05615485762809
    vertex 6.127454828320491 1.5 34.20023002817408
  endloop
endfacet
facet normal 4.28602e-15 1 -3.4399e-16
  outer loop
    vertex -7.353190368518772 1.5 19.00053057506985
    vertex -4.578870724040998 1.499999999999987 16.12892450783846
    vertex -7.658176323082074 1.5 15.20048897677918
  endloop
endfacet
facet normal -3.41903e-15 1 -2.74003e-16
  outer loop
    vertex 7.962716347708785 1.5 11.4004116278518
    vertex 4.519730687604532 1.499999999999989 13.03322408245893
    vertex 7.658176323082074 1.5 15.20048897677918
  endloop
endfacet
facet normal 2.19718e-15 1 -1.76635e-16
  outer loop
    vertex -7.047700614395795 1.5 22.80053169319072
    vertex -3.13290098420257 1.499999999999991 19.95667781902085
    vertex -7.353190368518772 1.5 19.00053057506985
  endloop
endfacet
facet normal 2.60339e-15 1 -1.96961e-15
  outer loop
    vertex -7.353190368518772 1.5 19.00053057506985
    vertex -3.13290098420257 1.499999999999991 19.95667781902085
    vertex -4.578870724040998 1.499999999999987 16.12892450783846
  endloop
endfacet
facet normal -4.4887e-16 1 -8.72777e-16
  outer loop
    vertex 1.524626680725786 1.499999999999986 11.011847634296
    vertex 1.274333648807364 1.499999999999989 14.70233461025314
    vertex 4.519730687604532 1.499999999999989 13.03322408245893
  endloop
endfacet
facet normal -3.35258e-16 1 2.71277e-17
  outer loop
    vertex -6.127454828320493 1.5 34.20023002817405
    vertex -2.991180851615239 1.500000000000001 32.03409519708376
    vertex -6.434922723518424 1.5 30.40038883328336
  endloop
endfacet
facet normal 9.72145e-17 1 -8.84495e-16
  outer loop
    vertex -6.434922723518424 1.5 30.40038883328336
    vertex -2.991180851615239 1.500000000000001 32.03409519708376
    vertex -3.297469478736931 1.499999999999998 28.23481344386815
  endloop
endfacet
facet normal -4.35932e-16 1 -8.47621e-16
  outer loop
    vertex 1.274333648807364 1.499999999999989 14.70233461025314
    vertex 4.247522464560102 1.499999999999992 16.8406920432472
    vertex 4.519730687604532 1.499999999999989 13.03322408245893
  endloop
endfacet
facet normal -4.80493e-16 1 -8.16631e-16
  outer loop
    vertex -1.813602785122333 1.49999999999998 6.649030411995783
    vertex -5.59115008758387 1.499999999999978 6.424550554570683
    vertex -4.698954219260671 1.499999999999981 9.434336820367696
  endloop
endfacet
facet normal -4.76578e-16 1 -7.95251e-16
  outer loop
    vertex 4.941332669217783 1.499999999999986 9.243495996515774
    vertex 1.814870013600013 1.499999999999982 6.928924155254748
    vertex 1.524626680725786 1.499999999999986 11.011847634296
  endloop
endfacet
facet normal -2.00173e-15 1 -1.05232e-14
  outer loop
    vertex -1.774823934929893 1.499999999999939 0
    vertex -0.1133342307280858 1.499999999999978 3.397625402802966
    vertex 1.774823934929883 1.499999999999946 0
  endloop
endfacet
facet normal -4.84029e-16 1 -8.76141e-16
  outer loop
    vertex -2.039006678008734 1.499999999999986 12.78009300902755
    vertex -1.217830313681065 1.499999999999983 9.538648246822504
    vertex -4.698954219260671 1.499999999999981 9.434336820367696
  endloop
endfacet
facet normal -4.73232e-16 1 -8.38507e-16
  outer loop
    vertex -2.991180851615239 1.500000000000001 32.03409519708376
    vertex 0.05868851303658508 1.500000000000001 29.78320877925678
    vertex -3.297469478736931 1.499999999999998 28.23481344386815
  endloop
endfacet
facet normal 5.21594e-15 1 2.28527e-15
  outer loop
    vertex -8.570648762862131 1.5 3.800163410562135
    vertex -5.59115008758387 1.499999999999978 6.424550554570683
    vertex -4.039932807254748 1.499999999999977 3.564170967962495
  endloop
endfacet
facet normal -6.74397e-16 1 -5.43183e-17
  outer loop
    vertex 7.047700614395793 1.5 22.80053169319075
    vertex 3.616978512300451 1.499999999999998 24.51674917051682
    vertex 6.74163870418778 1.5 26.60048545448288
  endloop
endfacet
facet normal -4.22752e-16 1 -8.35464e-16
  outer loop
    vertex 0.196320252469274 1.499999999999998 26.24763234298111
    vertex 3.616978512300451 1.499999999999998 24.51674917051682
    vertex 0.3824672881814813 1.499999999999995 22.43260369792043
  endloop
endfacet
facet normal -4.81222e-16 1 -8.04366e-16
  outer loop
    vertex -4.039932807254748 1.499999999999977 3.564170967962495
    vertex -5.59115008758387 1.499999999999978 6.424550554570683
    vertex -1.813602785122333 1.49999999999998 6.649030411995783
  endloop
endfacet
facet normal -4.26159e-16 1 -8.30176e-16
  outer loop
    vertex 0.3824672881814813 1.499999999999995 22.43260369792043
    vertex 3.616978512300451 1.499999999999998 24.51674917051682
    vertex 3.923612213255351 1.499999999999995 20.61480681162971
  endloop
endfacet
facet normal 2.729e-16 1 2.20276e-17
  outer loop
    vertex 6.74163870418778 1.5 26.60048545448288
    vertex 3.352492316029569 1.500000000000001 28.26743657302485
    vertex 6.434922723518421 1.5 30.4003888332834
  endloop
endfacet
facet normal -4.6391e-16 1 -7.9435e-16
  outer loop
    vertex 1.814870013600013 1.499999999999982 6.928924155254748
    vertex -1.217830313681065 1.499999999999983 9.538648246822504
    vertex 1.524626680725786 1.499999999999986 11.011847634296
  endloop
endfacet
facet normal -4.43062e-16 1 -8.40524e-16
  outer loop
    vertex 5.563416047793353 1.499999999999983 5.48131565381556
    vertex 1.814870013600013 1.499999999999982 6.928924155254748
    vertex 4.941332669217783 1.499999999999986 9.243495996515774
  endloop
endfacet
facet normal 7.7486e-16 1 -7.03378e-16
  outer loop
    vertex 6.434922723518421 1.5 30.4003888332834
    vertex 3.352492316029569 1.500000000000001 28.26743657302485
    vertex 3.066405190664907 1.500000000000004 32.05615485762809
  endloop
endfacet
facet normal -1.08856e-15 1 -8.82231e-16
  outer loop
    vertex 3.923612213255351 1.499999999999995 20.61480681162971
    vertex 3.616978512300451 1.499999999999998 24.51674917051682
    vertex 7.047700614395793 1.5 22.80053169319075
  endloop
endfacet
facet normal -4.87377e-16 1 -8.21621e-16
  outer loop
    vertex -1.813602785122333 1.49999999999998 6.649030411995783
    vertex -1.217830313681065 1.499999999999983 9.538648246822504
    vertex 1.814870013600013 1.499999999999982 6.928924155254748
  endloop
endfacet
facet normal -4.85652e-16 1 -8.21976e-16
  outer loop
    vertex -4.698954219260671 1.499999999999981 9.434336820367696
    vertex -1.217830313681065 1.499999999999983 9.538648246822504
    vertex -1.813602785122333 1.49999999999998 6.649030411995783
  endloop
endfacet
facet normal 5.85742e-15 1 2.36751e-16
  outer loop
    vertex -7.962716347708785 1.5 11.4004116278518
    vertex -5.336622700771298 1.499999999999984 13.01832058373663
    vertex -4.698954219260671 1.499999999999981 9.434336820367696
  endloop
endfacet
facet normal 4.81581e-15 1 -2.10113e-15
  outer loop
    vertex -4.578870724040998 1.499999999999987 16.12892450783846
    vertex -5.336622700771298 1.499999999999984 13.01832058373663
    vertex -7.658176323082074 1.5 15.20048897677918
  endloop
endfacet
facet normal -4.33074e-16 1 -7.9459e-16
  outer loop
    vertex 3.066405190664907 1.500000000000004 32.05615485762809
    vertex 3.352492316029569 1.500000000000001 28.26743657302485
    vertex 0.05868851303658508 1.500000000000001 29.78320877925678
  endloop
endfacet
facet normal -4.86312e-16 1 -7.78938e-16
  outer loop
    vertex -2.039006678008734 1.499999999999986 12.78009300902755
    vertex -1.470912882257672 1.499999999999989 16.41626818394537
    vertex 1.274333648807364 1.499999999999989 14.70233461025314
  endloop
endfacet
facet normal 7.77641e-15 1 -6.21658e-16
  outer loop
    vertex -8.266859773641599 1.5 7.600301737014703
    vertex -5.59115008758387 1.499999999999978 6.424550554570683
    vertex -8.570648762862131 1.5 3.800163410562135
  endloop
endfacet
facet normal -4.51212e-16 1 -8.34003e-16
  outer loop
    vertex 0.05868851303658508 1.500000000000001 29.78320877925678
    vertex 3.352492316029569 1.500000000000001 28.26743657302485
    vertex 0.196320252469274 1.499999999999998 26.24763234298111
  endloop
endfacet
facet normal 2.01473e-14 1 1.28048e-14
  outer loop
    vertex 5.819115811944772 1.499999999999922 38
    vertex 3.3260189704484 1.500000000000007 35.29852948270097
    vertex 1.939705270648272 1.5 38
  endloop
endfacet
facet normal 1.83157e-15 1 3.8299e-16
  outer loop
    vertex -1.939705270648229 1.5 38
    vertex -3.313866863786374 1.500000000000004 35.29539619650218
    vertex -5.819115811944728 1.500000000000007 38
  endloop
endfacet
facet normal 1.07852e-14 1 2.14448e-14
  outer loop
    vertex 6.127454828320491 1.5 34.20023002817408
    vertex 3.3260189704484 1.500000000000007 35.29852948270097
    vertex 5.819115811944772 1.499999999999922 38
  endloop
endfacet
facet normal -5.52275e-16 1 -1.82515e-15
  outer loop
    vertex -5.819115811944728 1.500000000000007 38
    vertex -3.313866863786374 1.500000000000004 35.29539619650218
    vertex -6.127454828320493 1.5 34.20023002817405
  endloop
endfacet
facet normal -2.48209e-15 1 -1.07902e-14
  outer loop
    vertex -0.1133342307280858 1.499999999999978 3.397625402802966
    vertex 3.549647869859771 1.49999999999998 2.657912087527693
    vertex 1.774823934929883 1.499999999999946 0
  endloop
endfacet
facet normal -2.45067e-15 1 -1.05963e-14
  outer loop
    vertex 8.874119674649437 1.49999999999996 0
    vertex 6.221354867928325 1.499999999999981 2.520421157358859
    vertex 8.570648762862128 1.5 3.800163410562192
  endloop
endfacet
facet normal -2.00173e-15 1 -1.01238e-14
  outer loop
    vertex 5.32447180478966 1.499999999999953 0
    vertex 6.221354867928325 1.499999999999981 2.520421157358859
    vertex 8.874119674649437 1.49999999999996 0
  endloop
endfacet
facet normal -1.93917e-15 1 -1.11527e-14
  outer loop
    vertex 1.774823934929883 1.499999999999946 0
    vertex 3.549647869859771 1.49999999999998 2.657912087527693
    vertex 5.32447180478966 1.499999999999953 0
  endloop
endfacet
facet normal -4.77513e-16 1 -8.52033e-16
  outer loop
    vertex 0.004977665209060458 1.500000000000004 34.55371636693175
    vertex 3.3260189704484 1.500000000000007 35.29852948270097
    vertex 3.066405190664907 1.500000000000004 32.05615485762809
  endloop
endfacet
facet normal -4.4482e-16 1 -7.92944e-16
  outer loop
    vertex -2.991180851615239 1.500000000000001 32.03409519708376
    vertex -3.313866863786374 1.500000000000004 35.29539619650218
    vertex 0.004977665209060458 1.500000000000004 34.55371636693175
  endloop
endfacet
facet normal 6.31508e-15 1 -5.06093e-16
  outer loop
    vertex -7.658176323082074 1.5 15.20048897677918
    vertex -5.336622700771298 1.499999999999984 13.01832058373663
    vertex -7.962716347708785 1.5 11.4004116278518
  endloop
endfacet
facet normal -1.09553e-15 1 1.90363e-15
  outer loop
    vertex 1.939705270648272 1.5 38
    vertex 3.3260189704484 1.500000000000007 35.29852948270097
    vertex 0.004977665209060458 1.500000000000004 34.55371636693175
  endloop
endfacet
facet normal 2.32914e-17 1 1.30175e-15
  outer loop
    vertex 0.004977665209060458 1.500000000000004 34.55371636693175
    vertex -3.313866863786374 1.500000000000004 35.29539619650218
    vertex -1.939705270648229 1.5 38
  endloop
endfacet
facet normal 1.96705e-15 1 -1.04777e-15
  outer loop
    vertex 3.066405190664907 1.500000000000004 32.05615485762809
    vertex 3.3260189704484 1.500000000000007 35.29852948270097
    vertex 6.127454828320491 1.5 34.20023002817408
  endloop
endfacet
facet normal -9.35167e-16 1 -8.4146e-16
  outer loop
    vertex -6.127454828320493 1.5 34.20023002817405
    vertex -3.313866863786374 1.500000000000004 35.29539619650218
    vertex -2.991180851615239 1.500000000000001 32.03409519708376
  endloop
endfacet
facet normal -6.97058e-15 1 -2.29885e-15
  outer loop
    vertex 8.570648762862128 1.5 3.800163410562192
    vertex 6.221354867928325 1.499999999999981 2.520421157358859
    vertex 5.563416047793353 1.499999999999983 5.48131565381556
  endloop
endfacet
facet normal -5.04685e-16 1 -8.08366e-16
  outer loop
    vertex 1.274333648807364 1.499999999999989 14.70233461025314
    vertex -1.470912882257672 1.499999999999989 16.41626818394537
    vertex 0.7849953159809124 1.499999999999992 18.57872418683291
  endloop
endfacet
facet normal -4.27647e-16 1 -8.61858e-16
  outer loop
    vertex 1.524626680725786 1.499999999999986 11.011847634296
    vertex -1.217830313681065 1.499999999999983 9.538648246822504
    vertex -2.039006678008734 1.499999999999986 12.78009300902755
  endloop
endfacet
facet normal 6.74904e-15 1 -2.95969e-15
  outer loop
    vertex -4.698954219260671 1.499999999999981 9.434336820367696
    vertex -5.59115008758387 1.499999999999978 6.424550554570683
    vertex -8.266859773641599 1.5 7.600301737014703
  endloop
endfacet
facet normal -4.59394e-16 1 -8.52006e-16
  outer loop
    vertex 5.563416047793353 1.499999999999983 5.48131565381556
    vertex 6.221354867928325 1.499999999999981 2.520421157358859
    vertex 3.549647869859771 1.49999999999998 2.657912087527693
  endloop
endfacet
facet normal -9.55692e-16 1 -1.0496e-14
  outer loop
    vertex 3.549647869859771 1.49999999999998 2.657912087527693
    vertex 6.221354867928325 1.499999999999981 2.520421157358859
    vertex 5.32447180478966 1.499999999999953 0
  endloop
endfacet
endsolid Created by Gmsh
