solid Created by Gmsh
facet normal 0.339404 0.935474 -0.0984526
  outer loop
    vertex -1.418635912261406 -7.607762509347129 3.31758591897114
    vertex -3.99678535755972 -6.295731272940218 6.896337012432745
    vertex -0.8861396417449645 -7.343651618365731 7.662826113267375
  endloop
endfacet
facet normal 0.38891 0.906632 -0.163609
  outer loop
    vertex -0.6054586349838941 -5.922844609236383 26.00057365017831
    vertex -2.810218203101783 -5.511904952688031 23.03691030254227
    vertex -3.954134602527013 -4.401170943372986 26.47282577104803
  endloop
endfacet
facet normal 0.482559 0.875668 -0.0185093
  outer loop
    vertex -2.810218203101783 -5.511904952688031 23.03691030254227
    vertex -1.644564952322097 -6.220740010076433 19.89214614637783
    vertex -4.439555745165846 -4.686040367347642 19.62950712274834
  endloop
endfacet
facet normal 0.415389 0.909523 0.0148346
  outer loop
    vertex -1.816355601586018 -5.419186148626988 29.02756266569721
    vertex -0.6054586349838941 -5.922844609236383 26.00057365017831
    vertex -3.954134602527013 -4.401170943372986 26.47282577104803
  endloop
endfacet
facet normal -0.57777 0.814599 -0.0510983
  outer loop
    vertex 5.196733175537975 -4.320515931123053 15.77891627720733
    vertex 5.595782926656944 -4.252998590595305 12.34319992016626
    vertex 2.254476201394222 -6.517697083027667 14.02007545271859
  endloop
endfacet
facet normal 0.640289 0.758324 -0.122373
  outer loop
    vertex -4.439555745165846 -4.686040367347642 19.62950712274834
    vertex -4.962419692801435 -3.696185276675781 23.02769764811281
    vertex -2.810218203101783 -5.511904952688031 23.03691030254227
  endloop
endfacet
facet normal 0.405863 0.912954 -0.0423191
  outer loop
    vertex -1.418635912261406 -7.607762509347129 3.31758591897114
    vertex -4.763233518836548 -6.139584807770516 2.914254928485043
    vertex -3.99678535755972 -6.295731272940218 6.896337012432745
  endloop
endfacet
facet normal -0.0262551 0.998004 -0.0574428
  outer loop
    vertex -0.8861396417449645 -7.343651618365731 7.662826113267375
    vertex 1.533340076015085 -7.390177571682909 5.748631656325173
    vertex -1.418635912261406 -7.607762509347129 3.31758591897114
  endloop
endfacet
facet normal 0.615862 0.783935 -0.0784861
  outer loop
    vertex -2.821940951320333 -6.588729497121824 10.57645216342616
    vertex -5.829490060945711 -4.395769255868243 8.880644495643054
    vertex -5.63970434717909 -4.209665635386018 12.22868964784726
  endloop
endfacet
facet normal 0.63421 0.760017 -0.141956
  outer loop
    vertex -2.821940951320333 -6.588729497121824 10.57645216342616
    vertex -3.99678535755972 -6.295731272940218 6.896337012432745
    vertex -5.829490060945711 -4.395769255868243 8.880644495643054
  endloop
endfacet
facet normal -0.607479 0.778154 -0.159518
  outer loop
    vertex 5.595782926656944 -4.252998590595305 12.34319992016626
    vertex 3.382292900892632 -6.301050843837481 10.78193006927905
    vertex 2.254476201394222 -6.517697083027667 14.02007545271859
  endloop
endfacet
facet normal -0.553117 0.823532 -0.125924
  outer loop
    vertex 4.422424089168105 -3.920969467939916 26.55195147690619
    vertex 2.370100371554987 -5.560900531249218 24.8417175042833
    vertex 1.507070337149867 -5.527743087140326 28.84939972207921
  endloop
endfacet
facet normal -0.591222 0.806303 -0.0182307
  outer loop
    vertex 2.254476201394222 -6.517697083027667 14.02007545271859
    vertex 2.961969634403872 -5.919139524563757 17.54888527339969
    vertex 5.196733175537975 -4.320515931123053 15.77891627720733
  endloop
endfacet
facet normal -0.134949 0.990152 -0.0372525
  outer loop
    vertex 1.507070337149867 -5.527743087140326 28.84939972207921
    vertex 2.370100371554987 -5.560900531249218 24.8417175042833
    vertex -0.6054586349838941 -5.922844609236383 26.00057365017831
  endloop
endfacet
facet normal 0.205363 0.978537 -0.0170925
  outer loop
    vertex -0.6054586349838941 -5.922844609236383 26.00057365017831
    vertex 0.4730465083328242 -6.210080574829995 22.5144871803973
    vertex -2.810218203101783 -5.511904952688031 23.03691030254227
  endloop
endfacet
facet normal -0.564926 0.824739 -0.0257727
  outer loop
    vertex 2.666760540129964 -6.88227059382563 7.866776745109178
    vertex 3.382292900892632 -6.301050843837481 10.78193006927905
    vertex 5.317589496186612 -5.04680739000242 8.497450922818928
  endloop
endfacet
facet normal -0.53817 0.829174 -0.151144
  outer loop
    vertex 5.317589496186612 -5.04680739000242 8.497450922818928
    vertex 4.121200915400577 -6.321737057588919 5.763110628510407
    vertex 2.666760540129964 -6.88227059382563 7.866776745109178
  endloop
endfacet
facet normal 0.48664 0.862371 -0.139634
  outer loop
    vertex -1.644564952322097 -6.220740010076433 19.89214614637783
    vertex -2.99186166746148 -5.980753655001847 16.67879917521463
    vertex -4.439555745165846 -4.686040367347642 19.62950712274834
  endloop
endfacet
facet normal 0.0239653 0.987663 -0.15475
  outer loop
    vertex 1.507070337149867 -5.527743087140326 28.84939972207921
    vertex -0.6054586349838941 -5.922844609236383 26.00057365017831
    vertex -1.816355601586018 -5.419186148626988 29.02756266569721
  endloop
endfacet
facet normal 0.704144 0.701794 -0.108011
  outer loop
    vertex -3.99678535755972 -6.295731272940218 6.896337012432745
    vertex -4.763233518836548 -6.139584807770516 2.914254928485043
    vertex -6.277508988332215 -4.258983252455973 5.261489778076804
  endloop
endfacet
facet normal 0.325455 0.945123 -0.0286511
  outer loop
    vertex -0.8861396417449645 -7.343651618365731 7.662826113267375
    vertex -3.99678535755972 -6.295731272940218 6.896337012432745
    vertex -2.821940951320333 -6.588729497121824 10.57645216342616
  endloop
endfacet
facet normal 0.0326996 0.999465 0.000986338
  outer loop
    vertex 1.507070337149867 -5.527743087140326 28.84939972207921
    vertex -1.816355601586018 -5.419186148626988 29.02756266569721
    vertex -7.40357982692186e-14 -5.481545381612207 32
  endloop
endfacet
facet normal 0.228717 0.973216 -0.0232129
  outer loop
    vertex -1.644564952322097 -6.220740010076433 19.89214614637783
    vertex -0.05713734799703845 -6.663204210676516 16.98248830652567
    vertex -2.99186166746148 -5.980753655001847 16.67879917521463
  endloop
endfacet
facet normal 0.182505 0.97149 -0.151327
  outer loop
    vertex 0.4730465083328242 -6.210080574829995 22.5144871803973
    vertex -1.644564952322097 -6.220740010076433 19.89214614637783
    vertex -2.810218203101783 -5.511904952688031 23.03691030254227
  endloop
endfacet
facet normal -0.883118 0.460741 -0.0884315
  outer loop
    vertex 4.756877760081563 -3.958777779597323 23.01495411347665
    vertex 4.422424089168105 -3.920969467939916 26.55195147690619
    vertex 5.851985232431682 -1.5 24.88929902830218
  endloop
endfacet
facet normal 0.911603 0.399277 -0.0977576
  outer loop
    vertex -7.287546001118161 -1.5 7.1114385386945
    vertex -5.829490060945711 -4.395769255868243 8.880644495643054
    vertex -6.277508988332215 -4.258983252455973 5.261489778076804
  endloop
endfacet
facet normal -0.637315 0.770476 -0.0140423
  outer loop
    vertex 3.556792827583725 -7.165837339882128 0
    vertex 4.519866869222283 -6.314984334239993 2.975323554155576
    vertex 6.371849713531073 -4.837306195412276 0
  endloop
endfacet
facet normal -0.879625 0.470251 -0.0715804
  outer loop
    vertex 5.851985232431682 -1.5 24.88929902830218
    vertex 4.422424089168105 -3.920969467939916 26.55195147690619
    vertex 5.562661486420204 -1.5 28.44469121085666
  endloop
endfacet
facet normal 0.851745 0.519352 -0.0693116
  outer loop
    vertex -5.562661486420204 -1.5 28.44469121085666
    vertex -3.954134602527013 -4.401170943372986 26.47282577104803
    vertex -5.851985232431684 -1.5 24.88929902830215
  endloop
endfacet
facet normal 0.228296 0.973435 -0.017467
  outer loop
    vertex -3.556792827583664 -7.165837339882158 0
    vertex -1.418635912261406 -7.607762509347129 3.31758591897114
    vertex 3.405756062902819e-14 -8 0
  endloop
endfacet
facet normal -0.889507 0.451186 -0.0721641
  outer loop
    vertex 6.140433545093886 -1.5 21.33383522399694
    vertex 4.756877760081563 -3.958777779597323 23.01495411347665
    vertex 5.851985232431682 -1.5 24.88929902830218
  endloop
endfacet
facet normal 0.236992 0.963407 -0.125225
  outer loop
    vertex -0.05713734799703845 -6.663204210676516 16.98248830652567
    vertex -0.9692260621441935 -6.834851602371594 13.93577390421778
    vertex -2.99186166746148 -5.980753655001847 16.67879917521463
  endloop
endfacet
facet normal 0.645214 0.764002 0.000271762
  outer loop
    vertex -5.63970434717909 -4.209665635386018 12.22868964784726
    vertex -3.839688921193986 -5.730442118810576 14.00336688304529
    vertex -2.821940951320333 -6.588729497121824 10.57645216342616
  endloop
endfacet
facet normal 0.863986 0.498638 -0.0699083
  outer loop
    vertex -6.140433545093886 -1.5 21.33383522399694
    vertex -4.439555745165846 -4.686040367347642 19.62950712274834
    vertex -6.428124276577606 -1.5 17.77830888793078
  endloop
endfacet
facet normal 0.907371 0.413925 -0.0731004
  outer loop
    vertex -6.715154530225682 -1.5 14.22273095118055
    vertex -5.63970434717909 -4.209665635386018 12.22868964784726
    vertex -7.001605682605796 -1.5 10.66710563216434
  endloop
endfacet
facet normal -0.894297 0.441612 -0.0721937
  outer loop
    vertex 6.715154530225682 -1.5 14.22273095118055
    vertex 5.196733175537975 -4.320515931123053 15.77891627720733
    vertex 6.428124276577602 -1.5 17.77830888793081
  endloop
endfacet
facet normal -0.0971755 0.994902 -0.0269601
  outer loop
    vertex -0.05713734799703845 -6.663204210676516 16.98248830652567
    vertex 2.254476201394222 -6.517697083027667 14.02007545271859
    vertex -0.9692260621441935 -6.834851602371594 13.93577390421778
  endloop
endfacet
facet normal 0.147172 0.989073 -0.00870247
  outer loop
    vertex 0.7022561150302919 -7.110616741489565 10.86112949873269
    vertex -2.821940951320333 -6.588729497121824 10.57645216342616
    vertex -0.9692260621441935 -6.834851602371594 13.93577390421778
  endloop
endfacet
facet normal -0.883527 0.46296 -0.0710516
  outer loop
    vertex 7.287546001118161 -1.5 7.1114385386945
    vertex 5.317589496186612 -5.04680739000242 8.497450922818928
    vertex 7.001605682605796 -1.5 10.66710563216434
  endloop
endfacet
facet normal -0.0933514 0.985859 -0.139171
  outer loop
    vertex 2.254476201394222 -6.517697083027667 14.02007545271859
    vertex 0.7022561150302919 -7.110616741489565 10.86112949873269
    vertex -0.9692260621441935 -6.834851602371594 13.93577390421778
  endloop
endfacet
facet normal -0.31351 0.935372 -0.163681
  outer loop
    vertex 3.30340897394306 -4.374337540879371 32
    vertex 1.507070337149867 -5.527743087140326 28.84939972207921
    vertex -7.40357982692186e-14 -5.481545381612207 32
  endloop
endfacet
facet normal -0.128292 0.9917 -0.00854263
  outer loop
    vertex 0.7022561150302919 -7.110616741489565 10.86112949873269
    vertex 2.666760540129964 -6.88227059382563 7.866776745109178
    vertex -0.8861396417449645 -7.343651618365731 7.662826113267375
  endloop
endfacet
facet normal 0.91949 0.386118 -0.0738258
  outer loop
    vertex -7.287546001118161 -1.5 7.1114385386945
    vertex -6.277508988332215 -4.258983252455973 5.261489778076804
    vertex -7.573033134763 -1.5 3.555736892665465
  endloop
endfacet
facet normal -0.893763 0.438546 -0.0941545
  outer loop
    vertex 6.140433545093886 -1.5 21.33383522399694
    vertex 5.167172131630998 -3.899539888088955 19.39614231417513
    vertex 4.756877760081563 -3.958777779597323 23.01495411347665
  endloop
endfacet
facet normal 0.156617 0.976367 -0.148922
  outer loop
    vertex 0.7022561150302919 -7.110616741489565 10.86112949873269
    vertex -0.8861396417449645 -7.343651618365731 7.662826113267375
    vertex -2.821940951320333 -6.588729497121824 10.57645216342616
  endloop
endfacet
facet normal 0.313075 0.934076 -0.171714
  outer loop
    vertex -7.40357982692186e-14 -5.481545381612207 32
    vertex -1.816355601586018 -5.419186148626988 29.02756266569721
    vertex -3.303408973943178 -4.374337540879282 32
  endloop
endfacet
facet normal -0.0424628 0.989909 -0.135194
  outer loop
    vertex -1.418635912261406 -7.607762509347129 3.31758591897114
    vertex 2.012594577903674 -7.490439751259118 3.098930795792938
    vertex 3.405756062902819e-14 -8 0
  endloop
endfacet
facet normal -0.899258 0.433581 -0.0578096
  outer loop
    vertex 5.196733175537975 -4.320515931123053 15.77891627720733
    vertex 5.167172131630998 -3.899539888088955 19.39614231417513
    vertex 6.428124276577602 -1.5 17.77830888793081
  endloop
endfacet
facet normal -0.897565 0.43035 -0.0957928
  outer loop
    vertex 6.715154530225682 -1.5 14.22273095118055
    vertex 5.595782926656944 -4.252998590595305 12.34319992016626
    vertex 5.196733175537975 -4.320515931123053 15.77891627720733
  endloop
endfacet
facet normal 0.644573 0.763859 -0.0323367
  outer loop
    vertex -2.810218203101783 -5.511904952688031 23.03691030254227
    vertex -4.962419692801435 -3.696185276675781 23.02769764811281
    vertex -3.954134602527013 -4.401170943372986 26.47282577104803
  endloop
endfacet
facet normal -0.896696 0.441862 -0.0263406
  outer loop
    vertex 5.317589496186612 -5.04680739000242 8.497450922818928
    vertex 5.595782926656944 -4.252998590595305 12.34319992016626
    vertex 7.001605682605796 -1.5 10.66710563216434
  endloop
endfacet
facet normal 0.907993 0.412574 -0.0730191
  outer loop
    vertex -7.001605682605796 -1.5 10.66710563216434
    vertex -5.829490060945711 -4.395769255868243 8.880644495643054
    vertex -7.287546001118161 -1.5 7.1114385386945
  endloop
endfacet
facet normal -0.902281 0.424923 -0.0730069
  outer loop
    vertex 6.428124276577602 -1.5 17.77830888793081
    vertex 5.167172131630998 -3.899539888088955 19.39614231417513
    vertex 6.140433545093886 -1.5 21.33383522399694
  endloop
endfacet
facet normal -0.905518 0.41799 -0.0729511
  outer loop
    vertex 7.001605682605796 -1.5 10.66710563216434
    vertex 5.595782926656944 -4.252998590595305 12.34319992016626
    vertex 6.715154530225682 -1.5 14.22273095118055
  endloop
endfacet
facet normal -0.228315 0.973516 -0.0117972
  outer loop
    vertex 3.405756062902819e-14 -8 0
    vertex 2.012594577903674 -7.490439751259118 3.098930795792938
    vertex 3.556792827583725 -7.165837339882128 0
  endloop
endfacet
facet normal -0.379082 0.919572 -0.103361
  outer loop
    vertex 1.533340076015085 -7.390177571682909 5.748631656325173
    vertex 4.121200915400577 -6.321737057588919 5.763110628510407
    vertex 2.012594577903674 -7.490439751259118 3.098930795792938
  endloop
endfacet
facet normal 0.907566 0.413263 -0.0744174
  outer loop
    vertex -5.63970434717909 -4.209665635386018 12.22868964784726
    vertex -5.829490060945711 -4.395769255868243 8.880644495643054
    vertex -7.001605682605796 -1.5 10.66710563216434
  endloop
endfacet
facet normal 0.870902 0.486284 -0.0711219
  outer loop
    vertex -5.27231825392536 -1.499999999999928 32
    vertex -4.156024261337995 -3.885361142229736 29.35974222801219
    vertex -5.562661486420204 -1.5 28.44469121085666
  endloop
endfacet
facet normal -0.871108 0.485911 -0.0711388
  outer loop
    vertex 5.562661486420204 -1.5 28.44469121085666
    vertex 4.159467297016906 -3.882009566832991 29.35684162298023
    vertex 5.272318253925287 -1.500000000000055 32
  endloop
endfacet
facet normal -0.426124 0.902755 -0.058751
  outer loop
    vertex 2.012594577903674 -7.490439751259118 3.098930795792938
    vertex 4.121200915400577 -6.321737057588919 5.763110628510407
    vertex 4.519866869222283 -6.314984334239993 2.975323554155576
  endloop
endfacet
facet normal -0.426277 0.8968 -0.118477
  outer loop
    vertex 3.556792827583725 -7.165837339882128 0
    vertex 2.012594577903674 -7.490439751259118 3.098930795792938
    vertex 4.519866869222283 -6.314984334239993 2.975323554155576
  endloop
endfacet
facet normal 0.626288 0.77883 -0.0344623
  outer loop
    vertex -2.99186166746148 -5.980753655001847 16.67879917521463
    vertex -5.337007253271437 -4.128839940750246 15.91244117259395
    vertex -4.439555745165846 -4.686040367347642 19.62950712274834
  endloop
endfacet
facet normal -0.814396 0.557858 -0.159855
  outer loop
    vertex 5.272318253925287 -1.500000000000055 32
    vertex 4.159467297016906 -3.882009566832991 29.35684162298023
    vertex 3.30340897394306 -4.374337540879371 32
  endloop
endfacet
facet normal 0.814419 0.557874 -0.159681
  outer loop
    vertex -3.303408973943178 -4.374337540879282 32
    vertex -4.156024261337995 -3.885361142229736 29.35974222801219
    vertex -5.27231825392536 -1.499999999999928 32
  endloop
endfacet
facet normal -0.921347 0.381638 -0.0739749
  outer loop
    vertex 7.573033134762998 -1.5 3.555736892665493
    vertex 6.300874682050424 -4.179966497338034 5.574309492788153
    vertex 7.287546001118161 -1.5 7.1114385386945
  endloop
endfacet
facet normal 0.874649 0.46359 -0.141682
  outer loop
    vertex -4.439555745165846 -4.686040367347642 19.62950712274834
    vertex -5.337007253271437 -4.128839940750246 15.91244117259395
    vertex -6.428124276577606 -1.5 17.77830888793078
  endloop
endfacet
facet normal -0.216072 0.968849 -0.121016
  outer loop
    vertex -0.05713734799703845 -6.663204210676516 16.98248830652567
    vertex 2.961969634403872 -5.919139524563757 17.54888527339969
    vertex 2.254476201394222 -6.517697083027667 14.02007545271859
  endloop
endfacet
facet normal 0.687696 0.723696 -0.0577785
  outer loop
    vertex -5.829490060945711 -4.395769255868243 8.880644495643054
    vertex -3.99678535755972 -6.295731272940218 6.896337012432745
    vertex -6.277508988332215 -4.258983252455973 5.261489778076804
  endloop
endfacet
facet normal 0.903642 0.420076 -0.08347
  outer loop
    vertex -6.715154530225682 -1.5 14.22273095118055
    vertex -5.337007253271437 -4.128839940750246 15.91244117259395
    vertex -5.63970434717909 -4.209665635386018 12.22868964784726
  endloop
endfacet
facet normal 0.63736 0.77053 -0.00748802
  outer loop
    vertex -6.371849713531036 -4.837306195412324 0
    vertex -4.763233518836548 -6.139584807770516 2.914254928485043
    vertex -3.556792827583664 -7.165837339882158 0
  endloop
endfacet
facet normal -0.289972 0.956319 -0.0370125
  outer loop
    vertex 2.254476201394222 -6.517697083027667 14.02007545271859
    vertex 3.382292900892632 -6.301050843837481 10.78193006927905
    vertex 0.7022561150302919 -7.110616741489565 10.86112949873269
  endloop
endfacet
facet normal 0.863305 0.480505 -0.154336
  outer loop
    vertex -3.954134602527013 -4.401170943372986 26.47282577104803
    vertex -4.962419692801435 -3.696185276675781 23.02769764811281
    vertex -5.851985232431684 -1.5 24.88929902830215
  endloop
endfacet
facet normal 0.88178 0.471658 -0.00171314
  outer loop
    vertex -6.140433545093886 -1.5 21.33383522399694
    vertex -4.962419692801435 -3.696185276675781 23.02769764811281
    vertex -4.439555745165846 -4.686040367347642 19.62950712274834
  endloop
endfacet
facet normal -0.0369688 0.998327 -0.0444623
  outer loop
    vertex -1.418635912261406 -7.607762509347129 3.31758591897114
    vertex 1.533340076015085 -7.390177571682909 5.748631656325173
    vertex 2.012594577903674 -7.490439751259118 3.098930795792938
  endloop
endfacet
facet normal -0.276586 0.960056 -0.0423463
  outer loop
    vertex 2.370100371554987 -5.560900531249218 24.8417175042833
    vertex 3.154444107462564 -5.501037139340395 21.07594054545573
    vertex 0.4730465083328242 -6.210080574829995 22.5144871803973
  endloop
endfacet
facet normal -0.913403 0.406783 -0.0149191
  outer loop
    vertex 6.371849713531073 -4.837306195412276 0
    vertex 6.738541302414038 -3.918383826228589 2.605060738797086
    vertex 7.858116822750858 -1.499999999999994 0
  endloop
endfacet
facet normal 0.91341 0.406787 -0.0143643
  outer loop
    vertex -7.858116822750833 -1.500000000000059 0
    vertex -6.741817072871056 -3.915115900611301 2.589935626068506
    vertex -6.371849713531036 -4.837306195412324 0
  endloop
endfacet
facet normal -0.933219 0.351431 -0.0748215
  outer loop
    vertex 7.858116822750858 -1.499999999999994 0
    vertex 6.738541302414038 -3.918383826228589 2.605060738797086
    vertex 7.573033134762998 -1.5 3.555736892665493
  endloop
endfacet
facet normal 0.353568 0.926734 -0.1271
  outer loop
    vertex -2.821940951320333 -6.588729497121824 10.57645216342616
    vertex -3.839688921193986 -5.730442118810576 14.00336688304529
    vertex -0.9692260621441935 -6.834851602371594 13.93577390421778
  endloop
endfacet
facet normal -0.612913 0.781703 -0.115232
  outer loop
    vertex 4.756877760081563 -3.958777779597323 23.01495411347665
    vertex 3.154444107462564 -5.501037139340395 21.07594054545573
    vertex 2.370100371554987 -5.560900531249218 24.8417175042833
  endloop
endfacet
facet normal 0.933325 0.351149 -0.07483
  outer loop
    vertex -7.573033134763 -1.5 3.555736892665465
    vertex -6.741817072871056 -3.915115900611301 2.589935626068506
    vertex -7.858116822750833 -1.500000000000059 0
  endloop
endfacet
facet normal 0.412349 0.899256 -0.145968
  outer loop
    vertex -3.556792827583664 -7.165837339882158 0
    vertex -4.763233518836548 -6.139584807770516 2.914254928485043
    vertex -1.418635912261406 -7.607762509347129 3.31758591897114
  endloop
endfacet
facet normal -0.630758 0.767731 -0.112841
  outer loop
    vertex 5.317589496186612 -5.04680739000242 8.497450922818928
    vertex 3.382292900892632 -6.301050843837481 10.78193006927905
    vertex 5.595782926656944 -4.252998590595305 12.34319992016626
  endloop
endfacet
facet normal -0.888175 0.425913 -0.172462
  outer loop
    vertex 7.287546001118161 -1.5 7.1114385386945
    vertex 6.300874682050424 -4.179966497338034 5.574309492788153
    vertex 5.317589496186612 -5.04680739000242 8.497450922818928
  endloop
endfacet
facet normal 0.901803 0.42597 -0.0727997
  outer loop
    vertex -6.428124276577606 -1.5 17.77830888793078
    vertex -5.337007253271437 -4.128839940750246 15.91244117259395
    vertex -6.715154530225682 -1.5 14.22273095118055
  endloop
endfacet
facet normal -0.701758 0.71198 -0.0249235
  outer loop
    vertex 6.300874682050424 -4.179966497338034 5.574309492788153
    vertex 4.121200915400577 -6.321737057588919 5.763110628510407
    vertex 5.317589496186612 -5.04680739000242 8.497450922818928
  endloop
endfacet
facet normal -0.290341 0.949612 -0.118067
  outer loop
    vertex 0.7022561150302919 -7.110616741489565 10.86112949873269
    vertex 3.382292900892632 -6.301050843837481 10.78193006927905
    vertex 2.666760540129964 -6.88227059382563 7.866776745109178
  endloop
endfacet
facet normal -0.627869 0.772495 -0.0950348
  outer loop
    vertex 5.196733175537975 -4.320515931123053 15.77891627720733
    vertex 2.961969634403872 -5.919139524563757 17.54888527339969
    vertex 5.167172131630998 -3.899539888088955 19.39614231417513
  endloop
endfacet
facet normal -0.517896 0.853308 -0.0604049
  outer loop
    vertex 1.507070337149867 -5.527743087140326 28.84939972207921
    vertex 4.159467297016906 -3.882009566832991 29.35684162298023
    vertex 4.422424089168105 -3.920969467939916 26.55195147690619
  endloop
endfacet
facet normal 0.901272 0.42704 -0.0731185
  outer loop
    vertex -5.851985232431684 -1.5 24.88929902830215
    vertex -4.962419692801435 -3.696185276675781 23.02769764811281
    vertex -6.140433545093886 -1.5 21.33383522399694
  endloop
endfacet
facet normal 0.533567 0.838248 -0.112457
  outer loop
    vertex -3.954134602527013 -4.401170943372986 26.47282577104803
    vertex -4.156024261337995 -3.885361142229736 29.35974222801219
    vertex -1.816355601586018 -5.419186148626988 29.02756266569721
  endloop
endfacet
facet normal 0.684237 0.725682 -0.0721466
  outer loop
    vertex -5.337007253271437 -4.128839940750246 15.91244117259395
    vertex -3.839688921193986 -5.730442118810576 14.00336688304529
    vertex -5.63970434717909 -4.209665635386018 12.22868964784726
  endloop
endfacet
facet normal -0.589669 0.805076 -0.0643641
  outer loop
    vertex 4.756877760081563 -3.958777779597323 23.01495411347665
    vertex 2.370100371554987 -5.560900531249218 24.8417175042833
    vertex 4.422424089168105 -3.920969467939916 26.55195147690619
  endloop
endfacet
facet normal -0.170643 0.976284 -0.133233
  outer loop
    vertex -0.6054586349838941 -5.922844609236383 26.00057365017831
    vertex 2.370100371554987 -5.560900531249218 24.8417175042833
    vertex 0.4730465083328242 -6.210080574829995 22.5144871803973
  endloop
endfacet
facet normal 0.0500726 0.991094 -0.123395
  outer loop
    vertex -1.644564952322097 -6.220740010076433 19.89214614637783
    vertex 0.9696154045233903 -6.375453543703644 19.71031748830702
    vertex -0.05713734799703845 -6.663204210676516 16.98248830652567
  endloop
endfacet
facet normal 0.0556141 0.997251 -0.0489636
  outer loop
    vertex 0.4730465083328242 -6.210080574829995 22.5144871803973
    vertex 0.9696154045233903 -6.375453543703644 19.71031748830702
    vertex -1.644564952322097 -6.220740010076433 19.89214614637783
  endloop
endfacet
facet normal -0.872686 0.480198 -0.0884837
  outer loop
    vertex 4.422424089168105 -3.920969467939916 26.55195147690619
    vertex 4.159467297016906 -3.882009566832991 29.35684162298023
    vertex 5.562661486420204 -1.5 28.44469121085666
  endloop
endfacet
facet normal 0.865809 0.499551 -0.0287073
  outer loop
    vertex -5.562661486420204 -1.5 28.44469121085666
    vertex -4.156024261337995 -3.885361142229736 29.35974222801219
    vertex -3.954134602527013 -4.401170943372986 26.47282577104803
  endloop
endfacet
facet normal -0.926677 0.360955 -0.104793
  outer loop
    vertex 7.573033134762998 -1.5 3.555736892665493
    vertex 6.738541302414038 -3.918383826228589 2.605060738797086
    vertex 6.300874682050424 -4.179966497338034 5.574309492788153
  endloop
endfacet
facet normal -0.525565 0.850672 -0.0117681
  outer loop
    vertex 3.30340897394306 -4.374337540879371 32
    vertex 4.159467297016906 -3.882009566832991 29.35684162298023
    vertex 1.507070337149867 -5.527743087140326 28.84939972207921
  endloop
endfacet
facet normal -0.64917 0.758688 -0.0545102
  outer loop
    vertex 2.961969634403872 -5.919139524563757 17.54888527339969
    vertex 3.154444107462564 -5.501037139340395 21.07594054545573
    vertex 5.167172131630998 -3.899539888088955 19.39614231417513
  endloop
endfacet
facet normal 0.546028 0.837498 -0.0212234
  outer loop
    vertex -1.816355601586018 -5.419186148626988 29.02756266569721
    vertex -4.156024261337995 -3.885361142229736 29.35974222801219
    vertex -3.303408973943178 -4.374337540879282 32
  endloop
endfacet
facet normal -0.737528 0.662697 -0.129948
  outer loop
    vertex 4.519866869222283 -6.314984334239993 2.975323554155576
    vertex 6.738541302414038 -3.918383826228589 2.605060738797086
    vertex 6.371849713531073 -4.837306195412276 0
  endloop
endfacet
facet normal 0.358425 0.933189 -0.0262742
  outer loop
    vertex -0.9692260621441935 -6.834851602371594 13.93577390421778
    vertex -3.839688921193986 -5.730442118810576 14.00336688304529
    vertex -2.99186166746148 -5.980753655001847 16.67879917521463
  endloop
endfacet
facet normal 0.750338 0.649317 -0.124016
  outer loop
    vertex -6.371849713531036 -4.837306195412324 0
    vertex -6.741817072871056 -3.915115900611301 2.589935626068506
    vertex -4.763233518836548 -6.139584807770516 2.914254928485043
  endloop
endfacet
facet normal -0.318472 0.943217 -0.094431
  outer loop
    vertex 0.9696154045233903 -6.375453543703644 19.71031748830702
    vertex 3.154444107462564 -5.501037139340395 21.07594054545573
    vertex 2.961969634403872 -5.919139524563757 17.54888527339969
  endloop
endfacet
facet normal -0.65243 0.755341 -0.0616068
  outer loop
    vertex 5.167172131630998 -3.899539888088955 19.39614231417513
    vertex 3.154444107462564 -5.501037139340395 21.07594054545573
    vertex 4.756877760081563 -3.958777779597323 23.01495411347665
  endloop
endfacet
facet normal -0.117155 0.978131 -0.171855
  outer loop
    vertex 2.666760540129964 -6.88227059382563 7.866776745109178
    vertex 1.533340076015085 -7.390177571682909 5.748631656325173
    vertex -0.8861396417449645 -7.343651618365731 7.662826113267375
  endloop
endfacet
facet normal 0.92452 0.363728 -0.113862
  outer loop
    vertex -6.277508988332215 -4.258983252455973 5.261489778076804
    vertex -6.741817072871056 -3.915115900611301 2.589935626068506
    vertex -7.573033134763 -1.5 3.555736892665465
  endloop
endfacet
facet normal -0.381478 0.924212 -0.0174863
  outer loop
    vertex 2.666760540129964 -6.88227059382563 7.866776745109178
    vertex 4.121200915400577 -6.321737057588919 5.763110628510407
    vertex 1.533340076015085 -7.390177571682909 5.748631656325173
  endloop
endfacet
facet normal 0.640555 0.756445 -0.132215
  outer loop
    vertex -2.99186166746148 -5.980753655001847 16.67879917521463
    vertex -3.839688921193986 -5.730442118810576 14.00336688304529
    vertex -5.337007253271437 -4.128839940750246 15.91244117259395
  endloop
endfacet
facet normal -0.73671 0.674418 -0.0491765
  outer loop
    vertex 6.300874682050424 -4.179966497338034 5.574309492788153
    vertex 6.738541302414038 -3.918383826228589 2.605060738797086
    vertex 4.519866869222283 -6.314984334239993 2.975323554155576
  endloop
endfacet
facet normal 0.7497 0.660224 -0.0453153
  outer loop
    vertex -4.763233518836548 -6.139584807770516 2.914254928485043
    vertex -6.741817072871056 -3.915115900611301 2.589935626068506
    vertex -6.277508988332215 -4.258983252455973 5.261489778076804
  endloop
endfacet
facet normal -0.701793 0.705517 -0.0986506
  outer loop
    vertex 4.519866869222283 -6.314984334239993 2.975323554155576
    vertex 4.121200915400577 -6.321737057588919 5.763110628510407
    vertex 6.300874682050424 -4.179966497338034 5.574309492788153
  endloop
endfacet
facet normal -0.236918 0.971439 -0.0132984
  outer loop
    vertex -0.05713734799703845 -6.663204210676516 16.98248830652567
    vertex 0.9696154045233903 -6.375453543703644 19.71031748830702
    vertex 2.961969634403872 -5.919139524563757 17.54888527339969
  endloop
endfacet
facet normal -0.309032 0.944619 -0.110432
  outer loop
    vertex 0.4730465083328242 -6.210080574829995 22.5144871803973
    vertex 3.154444107462564 -5.501037139340395 21.07594054545573
    vertex 0.9696154045233903 -6.375453543703644 19.71031748830702
  endloop
endfacet
facet normal 0 0 -1
  outer loop
    vertex -3.303408973943178 -4.374337540879282 32
    vertex -5.27231825392536 -1.499999999999928 32
    vertex -1.757439417975144 -1.5 32
  endloop
endfacet
facet normal 0 0 -1
  outer loop
    vertex 1.757439417975071 -1.5 32
    vertex 5.272318253925287 -1.500000000000055 32
    vertex 3.30340897394306 -4.374337540879371 32
  endloop
endfacet
facet normal 0 0 -1
  outer loop
    vertex -3.303408973943178 -4.374337540879282 32
    vertex -3.633171082180404e-14 -3.102909058494313 32
    vertex -7.40357982692186e-14 -5.481545381612207 32
  endloop
endfacet
facet normal 0 0 -1
  outer loop
    vertex -7.40357982692186e-14 -5.481545381612207 32
    vertex -3.633171082180404e-14 -3.102909058494313 32
    vertex 3.30340897394306 -4.374337540879371 32
  endloop
endfacet
facet normal 0 -0 -1
  outer loop
    vertex -1.757439417975144 -1.5 32
    vertex -3.633171082180404e-14 -3.102909058494313 32
    vertex -3.303408973943178 -4.374337540879282 32
  endloop
endfacet
facet normal 0 0 -1
  outer loop
    vertex 3.30340897394306 -4.374337540879371 32
    vertex -3.633171082180404e-14 -3.102909058494313 32
    vertex 1.757439417975071 -1.5 32
  endloop
endfacet
facet normal -0 0 -1
  outer loop
    vertex 1.757439417975071 -1.5 32
    vertex -3.633171082180404e-14 -3.102909058494313 32
    vertex -1.757439417975144 -1.5 32
  endloop
endfacet
facet normal -3.58189e-15 -1 5.20338e-16
  outer loop
    vertex -7.287546001118161 -1.5 7.1114385386945
    vertex -3.871377217403816 -1.500000000000014 4.596957096293192
    vertex -3.854804774707238 -1.500000000000012 8.551622081556882
  endloop
endfacet
facet normal -5.4855e-15 -1 6.49307e-15
  outer loop
    vertex -3.92905841137541 -1.500000000000043 0
    vertex -3.871377217403816 -1.500000000000014 4.596957096293192
    vertex -7.573033134763 -1.5 3.555736892665465
  endloop
endfacet
facet normal 4.12548e-15 -1 1.63425e-14
  outer loop
    vertex -7.858116822750833 -1.500000000000059 0
    vertex -3.92905841137541 -1.500000000000043 0
    vertex -7.573033134763 -1.5 3.555736892665465
  endloop
endfacet
facet normal 9.94614e-16 -1 5.02086e-16
  outer loop
    vertex 3.195179418092143 -1.500000000000003 11.71431498784875
    vertex 0.1176706582941643 -1.500000000000005 13.83054918263429
    vertex -0.8557222263769372 -1.500000000000008 10.45187181094359
  endloop
endfacet
facet normal 9.85371e-16 -1 4.95533e-16
  outer loop
    vertex -3.33213599411343 -1.500000000000008 15.76149878380438
    vertex -3.802314516281638 -1.50000000000001 12.21552596555483
    vertex 0.1176706582941643 -1.500000000000005 13.83054918263429
  endloop
endfacet
facet normal 9.98468e-16 -1 4.89716e-16
  outer loop
    vertex -0.8557222263769372 -1.500000000000008 10.45187181094359
    vertex 1.599950269116296 -1.500000000000006 8.618975686154581
    vertex 3.195179418092143 -1.500000000000003 11.71431498784875
  endloop
endfacet
facet normal -3.74365e-15 -1 3.00577e-16
  outer loop
    vertex -7.573033134763 -1.5 3.555736892665465
    vertex -3.871377217403816 -1.500000000000014 4.596957096293192
    vertex -7.287546001118161 -1.5 7.1114385386945
  endloop
endfacet
facet normal 1.01761e-15 -1 5.01063e-16
  outer loop
    vertex -3.871377217403816 -1.500000000000014 4.596957096293192
    vertex -0.6051659895568999 -1.500000000000009 6.383392469940508
    vertex -3.854804774707238 -1.500000000000012 8.551622081556882
  endloop
endfacet
facet normal 9.81063e-16 -1 5.0599e-16
  outer loop
    vertex 0.1176706582941643 -1.500000000000005 13.83054918263429
    vertex -3.802314516281638 -1.50000000000001 12.21552596555483
    vertex -0.8557222263769372 -1.500000000000008 10.45187181094359
  endloop
endfacet
facet normal 1.00934e-15 -1 4.69053e-16
  outer loop
    vertex -2.197287423363421e-14 -1.499999999999998 28.67500035234328
    vertex 2.785755331069439e-15 -1.5 24.41450008534667
    vertex 2.801954784401179 -1.499999999999996 26.43268395788267
  endloop
endfacet
facet normal 9.71819e-16 -1 4.69053e-16
  outer loop
    vertex -2.80195478440119 -1.500000000000002 26.43268395788267
    vertex 2.785755331069439e-15 -1.5 24.41450008534667
    vertex -2.197287423363421e-14 -1.499999999999998 28.67500035234328
  endloop
endfacet
facet normal 9.70433e-16 -1 4.68845e-16
  outer loop
    vertex -3.33213599411343 -1.500000000000008 15.76149878380438
    vertex 0.1176706582941643 -1.500000000000005 13.83054918263429
    vertex -0.008863538056019336 -1.500000000000004 17.40765101016121
  endloop
endfacet
facet normal 9.60002e-16 -1 4.99574e-16
  outer loop
    vertex 3.39267272482191 -1.500000000000001 15.76026633189983
    vertex 3.153931969206722 -1.5 19.33031845542951
    vertex -0.008863538056019336 -1.500000000000004 17.40765101016121
  endloop
endfacet
facet normal 9.44678e-16 -1 4.67934e-16
  outer loop
    vertex -0.008863538056019336 -1.500000000000004 17.40765101016121
    vertex 0.1176706582941643 -1.500000000000005 13.83054918263429
    vertex 3.39267272482191 -1.500000000000001 15.76026633189983
  endloop
endfacet
facet normal 9.65995e-16 -1 4.89715e-16
  outer loop
    vertex 3.153931969206722 -1.5 19.33031845542951
    vertex -0.007537986729159719 -1.500000000000002 21.03236304454561
    vertex -0.008863538056019336 -1.500000000000004 17.40765101016121
  endloop
endfacet
facet normal 9.78397e-16 -1 4.42292e-16
  outer loop
    vertex -0.6051659895568999 -1.500000000000009 6.383392469940508
    vertex -0.8557222263769372 -1.500000000000008 10.45187181094359
    vertex -3.854804774707238 -1.500000000000012 8.551622081556882
  endloop
endfacet
facet normal 1.02552e-15 -1 4.75776e-16
  outer loop
    vertex 3.195179418092143 -1.500000000000003 11.71431498784875
    vertex 1.599950269116296 -1.500000000000006 8.618975686154581
    vertex 4.307568680911705 -1.500000000000004 8.383201496034337
  endloop
endfacet
facet normal 9.39144e-16 -1 4.37172e-16
  outer loop
    vertex 1.964529205687726 -1.500000000000008 3.402664397204045
    vertex 2.24194087809952 -1.500000000000007 6.362100262082105
    vertex -0.6051659895568999 -1.500000000000009 6.383392469940508
  endloop
endfacet
facet normal 9.9851e-16 -1 4.88352e-16
  outer loop
    vertex -0.6051659895568999 -1.500000000000009 6.383392469940508
    vertex -1.09046595257572 -1.500000000000012 2.828844601381949
    vertex 1.964529205687726 -1.500000000000008 3.402664397204045
  endloop
endfacet
facet normal 4.12548e-15 -1 3.09966e-15
  outer loop
    vertex 3.929058411375437 -1.500000000000011 0
    vertex 1.964529205687726 -1.500000000000008 3.402664397204045
    vertex 1.332267629550188e-14 -1.500000000000027 0
  endloop
endfacet
facet normal 9.56884e-16 -1 4.47218e-16
  outer loop
    vertex 3.39267272482191 -1.500000000000001 15.76026633189983
    vertex 0.1176706582941643 -1.500000000000005 13.83054918263429
    vertex 3.195179418092143 -1.500000000000003 11.71431498784875
  endloop
endfacet
facet normal -6.83346e-16 -1 5.5608e-17
  outer loop
    vertex -5.851985232431684 -1.5 24.88929902830215
    vertex -2.80195478440119 -1.500000000000002 26.43268395788267
    vertex -5.562661486420204 -1.5 28.44469121085666
  endloop
endfacet
facet normal -1.21484e-15 -1 -9.88586e-17
  outer loop
    vertex 5.562661486420204 -1.5 28.44469121085666
    vertex 2.801954784401179 -1.499999999999996 26.43268395788267
    vertex 5.851985232431682 -1.5 24.88929902830218
  endloop
endfacet
facet normal -9.67523e-16 -1 3.89884e-16
  outer loop
    vertex 5.851985232431682 -1.5 24.88929902830218
    vertex 2.801954784401179 -1.499999999999996 26.43268395788267
    vertex 2.971224806802963 -1.499999999999998 22.86613232407922
  endloop
endfacet
facet normal -9.29561e-16 -1 5.42177e-16
  outer loop
    vertex -2.971224806802967 -1.500000000000004 22.86613232407921
    vertex -2.80195478440119 -1.500000000000002 26.43268395788267
    vertex -5.851985232431684 -1.5 24.88929902830215
  endloop
endfacet
facet normal 1.23457e-15 -1 9.92815e-17
  outer loop
    vertex 7.001605682605796 -1.5 10.66710563216434
    vertex 4.307568680911705 -1.500000000000004 8.383201496034337
    vertex 7.287546001118161 -1.5 7.1114385386945
  endloop
endfacet
facet normal -3.48103e-15 -1 2.79938e-16
  outer loop
    vertex -7.287546001118161 -1.5 7.1114385386945
    vertex -3.854804774707238 -1.500000000000012 8.551622081556882
    vertex -7.001605682605796 -1.5 10.66710563216434
  endloop
endfacet
facet normal -6.56312e-16 -1 -5.32454e-17
  outer loop
    vertex 5.851985232431682 -1.5 24.88929902830218
    vertex 2.971224806802963 -1.499999999999998 22.86613232407922
    vertex 6.140433545093886 -1.5 21.33383522399694
  endloop
endfacet
facet normal -1.2397e-15 -1 1.00575e-16
  outer loop
    vertex -6.140433545093886 -1.5 21.33383522399694
    vertex -2.971224806802967 -1.500000000000004 22.86613232407921
    vertex -5.851985232431684 -1.5 24.88929902830215
  endloop
endfacet
facet normal 3.47122e-16 -1 2.80221e-17
  outer loop
    vertex 6.428124276577602 -1.5 17.77830888793081
    vertex 3.39267272482191 -1.500000000000001 15.76026633189983
    vertex 6.715154530225682 -1.5 14.22273095118055
  endloop
endfacet
facet normal -2.31666e-15 -1 1.87016e-16
  outer loop
    vertex -6.715154530225682 -1.5 14.22273095118055
    vertex -3.33213599411343 -1.500000000000008 15.76149878380438
    vertex -6.428124276577606 -1.5 17.77830888793078
  endloop
endfacet
facet normal 8.35189e-16 -1 6.72852e-17
  outer loop
    vertex 6.715154530225682 -1.5 14.22273095118055
    vertex 3.195179418092143 -1.500000000000003 11.71431498784875
    vertex 7.001605682605796 -1.5 10.66710563216434
  endloop
endfacet
facet normal 5.50297e-16 -1 4.67065e-16
  outer loop
    vertex 3.39267272482191 -1.500000000000001 15.76026633189983
    vertex 3.195179418092143 -1.500000000000003 11.71431498784875
    vertex 6.715154530225682 -1.5 14.22273095118055
  endloop
endfacet
facet normal 9.73955e-16 -1 4.61735e-16
  outer loop
    vertex -3.33213599411343 -1.500000000000008 15.76149878380438
    vertex -0.008863538056019336 -1.500000000000004 17.40765101016121
    vertex -3.190296351525659 -1.500000000000006 19.30944406817787
  endloop
endfacet
facet normal 9.39686e-16 -1 4.47114e-16
  outer loop
    vertex 7.001605682605796 -1.5 10.66710563216434
    vertex 3.195179418092143 -1.500000000000003 11.71431498784875
    vertex 4.307568680911705 -1.500000000000004 8.383201496034337
  endloop
endfacet
facet normal -1.85397e-15 -1 1.50012e-16
  outer loop
    vertex -6.428124276577606 -1.5 17.77830888793078
    vertex -3.190296351525659 -1.500000000000006 19.30944406817787
    vertex -6.140433545093886 -1.5 21.33383522399694
  endloop
endfacet
facet normal -1.41043e-16 -1 -1.14123e-17
  outer loop
    vertex 6.140433545093886 -1.5 21.33383522399694
    vertex 3.153931969206722 -1.5 19.33031845542951
    vertex 6.428124276577602 -1.5 17.77830888793081
  endloop
endfacet
facet normal -1.50763e-15 -1 6.54733e-16
  outer loop
    vertex -6.140433545093886 -1.5 21.33383522399694
    vertex -3.190296351525659 -1.500000000000006 19.30944406817787
    vertex -2.971224806802967 -1.500000000000004 22.86613232407921
  endloop
endfacet
facet normal -4.28739e-16 -1 4.17437e-16
  outer loop
    vertex 2.971224806802963 -1.499999999999998 22.86613232407922
    vertex 3.153931969206722 -1.5 19.33031845542951
    vertex 6.140433545093886 -1.5 21.33383522399694
  endloop
endfacet
facet normal -2.05872e-15 -1 5.82975e-16
  outer loop
    vertex -3.33213599411343 -1.500000000000008 15.76149878380438
    vertex -3.190296351525659 -1.500000000000006 19.30944406817787
    vertex -6.428124276577606 -1.5 17.77830888793078
  endloop
endfacet
facet normal 7.30561e-17 -1 4.40261e-16
  outer loop
    vertex 6.428124276577602 -1.5 17.77830888793081
    vertex 3.153931969206722 -1.5 19.33031845542951
    vertex 3.39267272482191 -1.500000000000001 15.76026633189983
  endloop
endfacet
facet normal 0 -1 -5.34243e-16
  outer loop
    vertex -1.757439417975144 -1.5 32
    vertex -2.197287423363421e-14 -1.499999999999998 28.67500035234328
    vertex 1.757439417975071 -1.5 32
  endloop
endfacet
facet normal 9.90675e-16 -1 4.89706e-16
  outer loop
    vertex -0.008863538056019336 -1.500000000000004 17.40765101016121
    vertex -0.007537986729159719 -1.500000000000002 21.03236304454561
    vertex -3.190296351525659 -1.500000000000006 19.30944406817787
  endloop
endfacet
facet normal 9.60162e-16 -1 4.71071e-16
  outer loop
    vertex -0.8557222263769372 -1.500000000000008 10.45187181094359
    vertex -3.802314516281638 -1.50000000000001 12.21552596555483
    vertex -3.854804774707238 -1.500000000000012 8.551622081556882
  endloop
endfacet
facet normal 9.65879e-16 -1 4.89501e-16
  outer loop
    vertex 2.971224806802963 -1.499999999999998 22.86613232407922
    vertex -0.007537986729159719 -1.500000000000002 21.03236304454561
    vertex 3.153931969206722 -1.5 19.33031845542951
  endloop
endfacet
facet normal 9.84433e-16 -1 5.01236e-16
  outer loop
    vertex -3.190296351525659 -1.500000000000006 19.30944406817787
    vertex -0.007537986729159719 -1.500000000000002 21.03236304454561
    vertex -2.971224806802967 -1.500000000000004 22.86613232407921
  endloop
endfacet
facet normal 4.76515e-15 -1 6.36444e-15
  outer loop
    vertex -3.92905841137541 -1.500000000000043 0
    vertex -1.09046595257572 -1.500000000000012 2.828844601381949
    vertex -3.871377217403816 -1.500000000000014 4.596957096293192
  endloop
endfacet
facet normal -3.3114e-15 -1 5.32266e-16
  outer loop
    vertex -3.854804774707238 -1.500000000000012 8.551622081556882
    vertex -3.802314516281638 -1.50000000000001 12.21552596555483
    vertex -7.001605682605796 -1.5 10.66710563216434
  endloop
endfacet
facet normal -2.67792e-15 -1 9.81267e-16
  outer loop
    vertex -6.715154530225682 -1.5 14.22273095118055
    vertex -3.802314516281638 -1.50000000000001 12.21552596555483
    vertex -3.33213599411343 -1.500000000000008 15.76149878380438
  endloop
endfacet
facet normal 1.02667e-15 -1 4.84508e-16
  outer loop
    vertex -3.871377217403816 -1.500000000000014 4.596957096293192
    vertex -1.09046595257572 -1.500000000000012 2.828844601381949
    vertex -0.6051659895568999 -1.500000000000009 6.383392469940508
  endloop
endfacet
facet normal -3.17769e-15 -1 2.56004e-16
  outer loop
    vertex -7.001605682605796 -1.5 10.66710563216434
    vertex -3.802314516281638 -1.50000000000001 12.21552596555483
    vertex -6.715154530225682 -1.5 14.22273095118055
  endloop
endfacet
facet normal 9.85661e-16 -1 4.57368e-16
  outer loop
    vertex 2.971224806802963 -1.499999999999998 22.86613232407922
    vertex 2.785755331069439e-15 -1.5 24.41450008534667
    vertex -0.007537986729159719 -1.500000000000002 21.03236304454561
  endloop
endfacet
facet normal 9.5733e-16 -1 4.57431e-16
  outer loop
    vertex -0.007537986729159719 -1.500000000000002 21.03236304454561
    vertex 2.785755331069439e-15 -1.5 24.41450008534667
    vertex -2.971224806802967 -1.500000000000004 22.86613232407921
  endloop
endfacet
facet normal 4.12548e-15 -1 -2.5125e-19
  outer loop
    vertex 7.858116822750858 -1.499999999999994 0
    vertex 5.167131726018378 -1.500000000000006 2.476134748619877
    vertex 3.929058411375437 -1.500000000000011 0
  endloop
endfacet
facet normal 2.90338e-15 -1 -1.32839e-15
  outer loop
    vertex 7.573033134762998 -1.5 3.555736892665493
    vertex 5.167131726018378 -1.500000000000006 2.476134748619877
    vertex 7.858116822750858 -1.499999999999994 0
  endloop
endfacet
facet normal 1.67739e-15 -1 1.34678e-16
  outer loop
    vertex 7.287546001118161 -1.5 7.1114385386945
    vertex 4.510921055514879 -1.500000000000005 5.422272453229837
    vertex 7.573033134762998 -1.5 3.555736892665493
  endloop
endfacet
facet normal 4.12548e-15 -1 7.00631e-15
  outer loop
    vertex 1.332267629550188e-14 -1.500000000000027 0
    vertex -1.09046595257572 -1.500000000000012 2.828844601381949
    vertex -3.92905841137541 -1.500000000000043 0
  endloop
endfacet
facet normal -7.13259e-15 -1 -1.61336e-14
  outer loop
    vertex 5.272318253925287 -1.500000000000055 32
    vertex 2.840616491523765 -1.499999999999995 29.34531118290186
    vertex 5.562661486420204 -1.5 28.44469121085666
  endloop
endfacet
facet normal -7.15373e-15 -1 2.08819e-14
  outer loop
    vertex -5.562661486420204 -1.5 28.44469121085666
    vertex -2.840616491523802 -1.500000000000001 29.34531118290187
    vertex -5.27231825392536 -1.499999999999928 32
  endloop
endfacet
facet normal -1.573e-14 -1 -8.25836e-15
  outer loop
    vertex 1.757439417975071 -1.5 32
    vertex 2.840616491523765 -1.499999999999995 29.34531118290186
    vertex 5.272318253925287 -1.500000000000055 32
  endloop
endfacet
facet normal -2.05311e-14 -1 8.62813e-15
  outer loop
    vertex -5.27231825392536 -1.499999999999928 32
    vertex -2.840616491523802 -1.500000000000001 29.34531118290187
    vertex -1.757439417975144 -1.5 32
  endloop
endfacet
facet normal 9.59898e-16 -1 4.52503e-16
  outer loop
    vertex -2.971224806802967 -1.500000000000004 22.86613232407921
    vertex 2.785755331069439e-15 -1.5 24.41450008534667
    vertex -2.80195478440119 -1.500000000000002 26.43268395788267
  endloop
endfacet
facet normal 9.99134e-16 -1 4.83222e-16
  outer loop
    vertex 2.801954784401179 -1.499999999999996 26.43268395788267
    vertex 2.785755331069439e-15 -1.5 24.41450008534667
    vertex 2.971224806802963 -1.499999999999998 22.86613232407922
  endloop
endfacet
facet normal 1.42602e-15 -1 5.47886e-16
  outer loop
    vertex 4.307568680911705 -1.500000000000004 8.383201496034337
    vertex 4.510921055514879 -1.500000000000005 5.422272453229837
    vertex 7.287546001118161 -1.5 7.1114385386945
  endloop
endfacet
facet normal 9.89511e-16 -1 4.44276e-16
  outer loop
    vertex 2.801954784401179 -1.499999999999996 26.43268395788267
    vertex 2.840616491523765 -1.499999999999995 29.34531118290186
    vertex -2.197287423363421e-14 -1.499999999999998 28.67500035234328
  endloop
endfacet
facet normal 9.70823e-16 -1 4.70298e-16
  outer loop
    vertex -2.197287423363421e-14 -1.499999999999998 28.67500035234328
    vertex -2.840616491523802 -1.500000000000001 29.34531118290187
    vertex -2.80195478440119 -1.500000000000002 26.43268395788267
  endloop
endfacet
facet normal -3.94326e-16 -1 4.52177e-16
  outer loop
    vertex -2.80195478440119 -1.500000000000002 26.43268395788267
    vertex -2.840616491523802 -1.500000000000001 29.34531118290187
    vertex -5.562661486420204 -1.5 28.44469121085666
  endloop
endfacet
facet normal -1.63607e-15 -1 4.79128e-16
  outer loop
    vertex 5.562661486420204 -1.5 28.44469121085666
    vertex 2.840616491523765 -1.499999999999995 29.34531118290186
    vertex 2.801954784401179 -1.499999999999996 26.43268395788267
  endloop
endfacet
facet normal 1.24814e-15 -1 1.43843e-15
  outer loop
    vertex 3.929058411375437 -1.500000000000011 0
    vertex 5.167131726018378 -1.500000000000006 2.476134748619877
    vertex 1.964529205687726 -1.500000000000008 3.402664397204045
  endloop
endfacet
facet normal 1.39432e-15 -1 -1.27122e-15
  outer loop
    vertex -2.197287423363421e-14 -1.499999999999998 28.67500035234328
    vertex 2.840616491523765 -1.499999999999995 29.34531118290186
    vertex 1.757439417975071 -1.5 32
  endloop
endfacet
facet normal 8.3834e-16 -1 -9.11355e-17
  outer loop
    vertex -1.757439417975144 -1.5 32
    vertex -2.840616491523802 -1.500000000000001 29.34531118290187
    vertex -2.197287423363421e-14 -1.499999999999998 28.67500035234328
  endloop
endfacet
facet normal 6.8021e-17 -1 5.44224e-15
  outer loop
    vertex 1.964529205687726 -1.500000000000008 3.402664397204045
    vertex -1.09046595257572 -1.500000000000012 2.828844601381949
    vertex 1.332267629550188e-14 -1.500000000000027 0
  endloop
endfacet
facet normal 9.62333e-16 -1 4.41303e-16
  outer loop
    vertex -0.6051659895568999 -1.500000000000009 6.383392469940508
    vertex 1.599950269116296 -1.500000000000006 8.618975686154581
    vertex -0.8557222263769372 -1.500000000000008 10.45187181094359
  endloop
endfacet
facet normal 2.0054e-15 -1 6.72778e-16
  outer loop
    vertex 4.510921055514879 -1.500000000000005 5.422272453229837
    vertex 5.167131726018378 -1.500000000000006 2.476134748619877
    vertex 7.573033134762998 -1.5 3.555736892665493
  endloop
endfacet
facet normal 9.9764e-16 -1 5.18466e-16
  outer loop
    vertex 4.307568680911705 -1.500000000000004 8.383201496034337
    vertex 2.24194087809952 -1.500000000000007 6.362100262082105
    vertex 4.510921055514879 -1.500000000000005 5.422272453229837
  endloop
endfacet
facet normal 9.59214e-16 -1 4.39756e-16
  outer loop
    vertex 1.964529205687726 -1.500000000000008 3.402664397204045
    vertex 5.167131726018378 -1.500000000000006 2.476134748619877
    vertex 4.510921055514879 -1.500000000000005 5.422272453229837
  endloop
endfacet
facet normal 1.02665e-15 -1 4.88813e-16
  outer loop
    vertex 1.599950269116296 -1.500000000000006 8.618975686154581
    vertex 2.24194087809952 -1.500000000000007 6.362100262082105
    vertex 4.307568680911705 -1.500000000000004 8.383201496034337
  endloop
endfacet
facet normal 9.6304e-16 -1 4.34932e-16
  outer loop
    vertex 4.510921055514879 -1.500000000000005 5.422272453229837
    vertex 2.24194087809952 -1.500000000000007 6.362100262082105
    vertex 1.964529205687726 -1.500000000000008 3.402664397204045
  endloop
endfacet
facet normal 9.39345e-16 -1 4.63978e-16
  outer loop
    vertex -0.6051659895568999 -1.500000000000009 6.383392469940508
    vertex 2.24194087809952 -1.500000000000007 6.362100262082105
    vertex 1.599950269116296 -1.500000000000006 8.618975686154581
  endloop
endfacet
endsolid Created by Gmsh
