solid Created by Gmsh
facet normal -0.53558 -0.833934 -0.133075
  outer loop
    vertex 1.509698993134369 6.041162039527768 22.52881432141833
    vertex 2.684580521562464 6.013296586590466 17.97495428656682
    vertex 4.699528546368903 4.34722151508197 20.30620273807892
  endloop
endfacet
facet normal -0.429038 -0.902821 -0.0289939
  outer loop
    vertex 1.769799550843755 7.546262437367317 3.1636267693859
    vertex 4.785751013713238 6.120549564884348 2.929263050348137
    vertex 3.159411134680819 6.772538382659201 6.693257475033182
  endloop
endfacet
facet normal -0.176605 -0.983487 -0.0395455
  outer loop
    vertex -0.1770502592197032 6.468915801478254 19.42348946729464
    vertex 2.684580521562464 6.013296586590466 17.97495428656682
    vertex 1.509698993134369 6.041162039527768 22.52881432141833
  endloop
endfacet
facet normal 0.638369 -0.766439 -0.0711057
  outer loop
    vertex -2.999394994828039 6.232717346958631 13.76242996011588
    vertex -2.929684091899698 5.857792967863068 18.42953799242039
    vertex -5.379491714375578 3.996572560710874 16.4976596520543
  endloop
endfacet
facet normal -0.18748 -0.972336 -0.139333
  outer loop
    vertex 3.159411134680819 6.772538382659201 6.693257475033182
    vertex -0.1022810943284916 7.559162870644462 5.592574915508752
    vertex 1.769799550843755 7.546262437367317 3.1636267693859
  endloop
endfacet
facet normal 0.237801 -0.967905 -0.081307
  outer loop
    vertex -0.1783747888815014 6.746960628829902 15.89141983194606
    vertex -2.929684091899698 5.857792967863068 18.42953799242039
    vertex -2.999394994828039 6.232717346958631 13.76242996011588
  endloop
endfacet
facet normal 0.650461 -0.758441 -0.0408281
  outer loop
    vertex -5.683820163236505 4.549666756133998 9.142464237370934
    vertex -6.210381947947904 4.275431348006704 5.847755120792453
    vertex -3.321242689648132 6.728424792060596 6.30876532877642
  endloop
endfacet
facet normal -0.658866 -0.73564 -0.157256
  outer loop
    vertex 3.159411134680819 6.772538382659201 6.693257475033182
    vertex 4.785751013713238 6.120549564884348 2.929263050348137
    vertex 6.2680967419279 4.231805658962171 5.554084126096363
  endloop
endfacet
facet normal 0.625004 -0.77689 -0.0762373
  outer loop
    vertex -3.321242689648132 6.728424792060596 6.30876532877642
    vertex -3.195918208662255 6.460309704655472 10.06839935085855
    vertex -5.683820163236505 4.549666756133998 9.142464237370934
  endloop
endfacet
facet normal 0.213199 -0.974004 -0.0765671
  outer loop
    vertex 0.2055126442714111 7.319025338388222 8.615949239113263
    vertex -3.195918208662255 6.460309704655472 10.06839935085855
    vertex -3.321242689648132 6.728424792060596 6.30876532877642
  endloop
endfacet
facet normal 0.624529 -0.777521 -0.0736574
  outer loop
    vertex -5.683820163236505 4.549666756133998 9.142464237370934
    vertex -3.195918208662255 6.460309704655472 10.06839935085855
    vertex -5.421435378935371 4.40606624565062 12.88301366503936
  endloop
endfacet
facet normal 0.594104 -0.794791 -0.123888
  outer loop
    vertex -4.960010440634624 4.047040311483173 20.30983951040394
    vertex -2.929684091899698 5.857792967863068 18.42953799242039
    vertex -2.00724816361354 5.878796037268711 22.71834221627997
  endloop
endfacet
facet normal 0.232024 -0.971662 -0.0451453
  outer loop
    vertex -2.00724816361354 5.878796037268711 22.71834221627997
    vertex -2.929684091899698 5.857792967863068 18.42953799242039
    vertex -0.1770502592197032 6.468915801478254 19.42348946729464
  endloop
endfacet
facet normal -0.318845 -0.933827 -0.162187
  outer loop
    vertex 7.968452129019374e-14 5.953755622559919 26
    vertex 1.509698993134369 6.041162039527768 22.52881432141833
    vertex 3.641192976163504 4.710511620142913 26
  endloop
endfacet
facet normal 0.618746 -0.781398 -0.08106
  outer loop
    vertex -3.195918208662255 6.460309704655472 10.06839935085855
    vertex -2.999394994828039 6.232717346958631 13.76242996011588
    vertex -5.421435378935371 4.40606624565062 12.88301366503936
  endloop
endfacet
facet normal -0.593734 -0.801941 -0.0661067
  outer loop
    vertex 5.419247596760239 4.408143502069515 12.88793151131205
    vertex 5.085056517268321 4.342940405511954 16.68043262265686
    vertex 2.647474484376054 6.330985200549804 14.45646620717561
  endloop
endfacet
facet normal 0.0371536 -0.987035 -0.156144
  outer loop
    vertex -2.00724816361354 5.878796037268711 22.71834221627997
    vertex -0.1770502592197032 6.468915801478254 19.42348946729464
    vertex 1.509698993134369 6.041162039527768 22.52881432141833
  endloop
endfacet
facet normal 0.227692 -0.968573 -0.100111
  outer loop
    vertex -3.321242689648132 6.728424792060596 6.30876532877642
    vertex -0.1022810943284916 7.559162870644462 5.592574915508752
    vertex 0.2055126442714111 7.319025338388222 8.615949239113263
  endloop
endfacet
facet normal -0.893424 -0.440845 -0.0863069
  outer loop
    vertex 6.663960662783278 1.5 14.85744962601305
    vertex 5.085056517268321 4.342940405511954 16.68043262265686
    vertex 5.419247596760239 4.408143502069515 12.88793151131205
  endloop
endfacet
facet normal 0.0458364 -0.998935 -0.00521846
  outer loop
    vertex -2.00724816361354 5.878796037268711 22.71834221627997
    vertex 1.509698993134369 6.041162039527768 22.52881432141833
    vertex 7.968452129019374e-14 5.953755622559919 26
  endloop
endfacet
facet normal 0.31823 -0.932028 -0.173358
  outer loop
    vertex -3.641192976163381 4.710511620143008 26
    vertex -2.00724816361354 5.878796037268711 22.71834221627997
    vertex 7.968452129019374e-14 5.953755622559919 26
  endloop
endfacet
facet normal -0.223159 -0.970671 -0.0894366
  outer loop
    vertex -0.01799550071483658 7.037689303317671 12.22702439543689
    vertex 0.2055126442714111 7.319025338388222 8.615949239113263
    vertex 3.062360973738279 6.461408907524324 10.79551171956919
  endloop
endfacet
facet normal -0.919809 -0.385352 -0.073859
  outer loop
    vertex 7.262043196436975 1.5 7.428806172946096
    vertex 6.2680967419279 4.231805658962171 5.554084126096363
    vertex 7.560301377973208 1.5 3.714421235813973
  endloop
endfacet
facet normal 0.219215 -0.973686 -0.0622908
  outer loop
    vertex -0.01799550071483658 7.037689303317671 12.22702439543689
    vertex -3.195918208662255 6.460309704655472 10.06839935085855
    vertex 0.2055126442714111 7.319025338388222 8.615949239113263
  endloop
endfacet
facet normal -0.622529 -0.779963 -0.0641555
  outer loop
    vertex 5.419247596760239 4.408143502069515 12.88793151131205
    vertex 3.062360973738279 6.461408907524324 10.79551171956919
    vertex 5.774414890877925 4.430347872540922 9.171640283147187
  endloop
endfacet
facet normal 0.901836 -0.425946 -0.0725379
  outer loop
    vertex -7.262043196436975 1.5 7.428806172946096
    vertex -5.683820163236505 4.549666756133998 9.142464237370934
    vertex -6.963285348310013 1.5 11.14315082519413
  endloop
endfacet
facet normal -0.910225 -0.401308 -0.102192
  outer loop
    vertex 7.262043196436975 1.5 7.428806172946096
    vertex 5.774414890877925 4.430347872540922 9.171640283147187
    vertex 6.2680967419279 4.231805658962171 5.554084126096363
  endloop
endfacet
facet normal -0.9008 -0.425093 -0.0886297
  outer loop
    vertex 5.419247596760239 4.408143502069515 12.88793151131205
    vertex 5.774414890877925 4.430347872540922 9.171640283147187
    vertex 6.963285348310009 1.5 11.14315082519418
  endloop
endfacet
facet normal -0.216385 -0.974735 -0.0553913
  outer loop
    vertex 0.2055126442714111 7.319025338388222 8.615949239113263
    vertex -0.1022810943284916 7.559162870644462 5.592574915508752
    vertex 3.159411134680819 6.772538382659201 6.693257475033182
  endloop
endfacet
facet normal -0.906135 -0.416663 -0.0728836
  outer loop
    vertex 6.963285348310009 1.5 11.14315082519418
    vertex 5.774414890877925 4.430347872540922 9.171640283147187
    vertex 7.262043196436975 1.5 7.428806172946096
  endloop
endfacet
facet normal 0.899507 -0.429595 -0.0795891
  outer loop
    vertex -5.683820163236505 4.549666756133998 9.142464237370934
    vertex -5.421435378935371 4.40606624565062 12.88301366503936
    vertex -6.963285348310013 1.5 11.14315082519413
  endloop
endfacet
facet normal -0.89825 -0.433483 -0.0723874
  outer loop
    vertex 6.663960662783278 1.5 14.85744962601305
    vertex 5.419247596760239 4.408143502069515 12.88793151131205
    vertex 6.963285348310009 1.5 11.14315082519418
  endloop
endfacet
facet normal -0.209798 -0.97599 -0.0585461
  outer loop
    vertex 2.647474484376054 6.330985200549804 14.45646620717561
    vertex -0.01799550071483658 7.037689303317671 12.22702439543689
    vertex 3.062360973738279 6.461408907524324 10.79551171956919
  endloop
endfacet
facet normal 0.898345 -0.433285 -0.072395
  outer loop
    vertex -6.963285348310013 1.5 11.14315082519413
    vertex -5.421435378935371 4.40606624565062 12.88301366503936
    vertex -6.663960662783282 1.5 14.85744962601301
  endloop
endfacet
facet normal -0.603658 -0.791369 -0.096604
  outer loop
    vertex 5.419247596760239 4.408143502069515 12.88793151131205
    vertex 2.647474484376054 6.330985200549804 14.45646620717561
    vertex 3.062360973738279 6.461408907524324 10.79551171956919
  endloop
endfacet
facet normal 0.637332 -0.770497 -0.0119003
  outer loop
    vertex -3.556792827583662 7.165837339882159 0
    vertex -4.940323477229339 5.972559850191899 3.163626769385921
    vertex -6.371849713531035 4.837306195412325 0
  endloop
endfacet
facet normal 0.90285 -0.425926 -0.0587285
  outer loop
    vertex -6.663960662783282 1.5 14.85744962601301
    vertex -5.421435378935371 4.40606624565062 12.88301366503936
    vertex -5.379491714375578 3.996572560710874 16.4976596520543
  endloop
endfacet
facet normal 0.905564 -0.417857 -0.0731355
  outer loop
    vertex -6.663960662783282 1.5 14.85744962601301
    vertex -5.379491714375578 3.996572560710874 16.4976596520543
    vertex -6.363989125402343 1.5 18.5716968317751
  endloop
endfacet
facet normal -0.228315 -0.973515 -0.0119003
  outer loop
    vertex 3.556792827583725 7.165837339882128 0
    vertex 1.769799550843755 7.546262437367317 3.1636267693859
    vertex 3.601699550766395e-14 8 0
  endloop
endfacet
facet normal 0.89352 -0.443158 -0.0723427
  outer loop
    vertex -6.363989125402343 1.5 18.5716968317751
    vertex -4.960010440634624 4.047040311483173 20.30983951040394
    vertex -6.063274872685653 1.5 22.28588344860185
  endloop
endfacet
facet normal -0.879406 -0.470718 -0.0711999
  outer loop
    vertex 6.063274872685653 1.5 22.28588344860185
    vertex 4.699528546368903 4.34722151508197 20.30620273807892
    vertex 6.36398912540234 1.5 18.57169683177514
  endloop
endfacet
facet normal -0.230843 -0.969777 -0.0790126
  outer loop
    vertex 0.2055126442714111 7.319025338388222 8.615949239113263
    vertex 3.159411134680819 6.772538382659201 6.693257475033182
    vertex 3.062360973738279 6.461408907524324 10.79551171956919
  endloop
endfacet
facet normal -0.642143 -0.765226 -0.0456343
  outer loop
    vertex 5.774414890877925 4.430347872540922 9.171640283147187
    vertex 3.159411134680819 6.772538382659201 6.693257475033182
    vertex 6.2680967419279 4.231805658962171 5.554084126096363
  endloop
endfacet
facet normal 0.897448 -0.431196 -0.0930442
  outer loop
    vertex -5.379491714375578 3.996572560710874 16.4976596520543
    vertex -4.960010440634624 4.047040311483173 20.30983951040394
    vertex -6.363989125402343 1.5 18.5716968317751
  endloop
endfacet
facet normal 0.00825422 -0.989178 -0.146489
  outer loop
    vertex 1.769799550843755 7.546262437367317 3.1636267693859
    vertex -1.875301990122533 7.526663492302636 3.090579281370676
    vertex 3.601699550766395e-14 8 0
  endloop
endfacet
facet normal -0.890827 -0.448611 -0.0719453
  outer loop
    vertex 6.36398912540234 1.5 18.57169683177514
    vertex 5.085056517268321 4.342940405511954 16.68043262265686
    vertex 6.663960662783278 1.5 14.85744962601305
  endloop
endfacet
facet normal -0.625704 -0.776571 -0.0737007
  outer loop
    vertex 3.062360973738279 6.461408907524324 10.79551171956919
    vertex 3.159411134680819 6.772538382659201 6.693257475033182
    vertex 5.774414890877925 4.430347872540922 9.171640283147187
  endloop
endfacet
facet normal 0.228319 -0.973529 -0.0105614
  outer loop
    vertex 3.601699550766395e-14 8 0
    vertex -1.875301990122533 7.526663492302636 3.090579281370676
    vertex -3.556792827583662 7.165837339882159 0
  endloop
endfacet
facet normal 0.653615 -0.740017 -0.158627
  outer loop
    vertex -3.321242689648132 6.728424792060596 6.30876532877642
    vertex -6.210381947947904 4.275431348006704 5.847755120792453
    vertex -4.940323477229339 5.972559850191899 3.163626769385921
  endloop
endfacet
facet normal -0.883272 -0.459469 -0.0933757
  outer loop
    vertex 4.699528546368903 4.34722151508197 20.30620273807892
    vertex 5.085056517268321 4.342940405511954 16.68043262265686
    vertex 6.36398912540234 1.5 18.57169683177514
  endloop
endfacet
facet normal 0.621223 -0.777815 -0.0953251
  outer loop
    vertex -5.421435378935371 4.40606624565062 12.88301366503936
    vertex -2.999394994828039 6.232717346958631 13.76242996011588
    vertex -5.379491714375578 3.996572560710874 16.4976596520543
  endloop
endfacet
facet normal 0.91794 -0.389813 -0.0737088
  outer loop
    vertex -7.560301377973208 1.5 3.714421235813973
    vertex -6.210381947947904 4.275431348006704 5.847755120792453
    vertex -7.262043196436975 1.5 7.428806172946096
  endloop
endfacet
facet normal -0.187627 -0.978482 -0.0858434
  outer loop
    vertex 2.647474484376054 6.330985200549804 14.45646620717561
    vertex -0.1783747888815014 6.746960628829902 15.89141983194606
    vertex -0.01799550071483658 7.037689303317671 12.22702439543689
  endloop
endfacet
facet normal 0.451812 -0.891927 -0.0182328
  outer loop
    vertex -1.875301990122533 7.526663492302636 3.090579281370676
    vertex -3.321242689648132 6.728424792060596 6.30876532877642
    vertex -4.940323477229339 5.972559850191899 3.163626769385921
  endloop
endfacet
facet normal 0.44521 -0.884579 -0.13895
  outer loop
    vertex -3.556792827583662 7.165837339882159 0
    vertex -1.875301990122533 7.526663492302636 3.090579281370676
    vertex -4.940323477229339 5.972559850191899 3.163626769385921
  endloop
endfacet
facet normal -0.913276 -0.406727 -0.0223759
  outer loop
    vertex 7.858116822750858 1.499999999999992 0
    vertex 6.673012493585113 4.011421132379414 2.720107595665535
    vertex 6.371849713531076 4.837306195412271 0
  endloop
endfacet
facet normal -0.93061 -0.358327 -0.0746146
  outer loop
    vertex 7.560301377973208 1.5 3.714421235813973
    vertex 6.673012493585113 4.011421132379414 2.720107595665535
    vertex 7.858116822750858 1.499999999999992 0
  endloop
endfacet
facet normal -0.637359 -0.77053 -0.00755735
  outer loop
    vertex 6.371849713531076 4.837306195412271 0
    vertex 4.785751013713238 6.120549564884348 2.929263050348137
    vertex 3.556792827583725 7.165837339882128 0
  endloop
endfacet
facet normal 0.225335 -0.971628 -0.0718507
  outer loop
    vertex -0.01799550071483658 7.037689303317671 12.22702439543689
    vertex -2.999394994828039 6.232717346958631 13.76242996011588
    vertex -3.195918208662255 6.460309704655472 10.06839935085855
  endloop
endfacet
facet normal -0.592397 -0.803254 -0.0620411
  outer loop
    vertex 4.699528546368903 4.34722151508197 20.30620273807892
    vertex 2.684580521562464 6.013296586590466 17.97495428656682
    vertex 5.085056517268321 4.342940405511954 16.68043262265686
  endloop
endfacet
facet normal -0.881993 -0.465789 -0.0716148
  outer loop
    vertex 5.761701659506874 1.49999999999993 26
    vertex 4.613201641948317 4.097359585123763 23.25123751857877
    vertex 6.063274872685653 1.5 22.28588344860185
  endloop
endfacet
facet normal -0.51407 -0.853277 -0.0874623
  outer loop
    vertex 4.699528546368903 4.34722151508197 20.30620273807892
    vertex 4.613201641948317 4.097359585123763 23.25123751857877
    vertex 1.509698993134369 6.041162039527768 22.52881432141833
  endloop
endfacet
facet normal -0.187875 -0.978389 -0.0863586
  outer loop
    vertex 2.647474484376054 6.330985200549804 14.45646620717561
    vertex 2.684580521562464 6.013296586590466 17.97495428656682
    vertex -0.1783747888815014 6.746960628829902 15.89141983194606
  endloop
endfacet
facet normal -0.822328 -0.543139 -0.169634
  outer loop
    vertex 3.641192976163504 4.710511620142913 26
    vertex 4.613201641948317 4.097359585123763 23.25123751857877
    vertex 5.761701659506874 1.49999999999993 26
  endloop
endfacet
facet normal 0.887053 -0.456014 -0.0720256
  outer loop
    vertex -6.063274872685653 1.5 22.28588344860185
    vertex -4.699626571641894 3.990589280821025 23.31169397035332
    vertex -5.761701659506802 1.500000000000066 26
  endloop
endfacet
facet normal 0.82109 -0.542321 -0.178045
  outer loop
    vertex -5.761701659506802 1.500000000000066 26
    vertex -4.699626571641894 3.990589280821025 23.31169397035332
    vertex -3.641192976163381 4.710511620143008 26
  endloop
endfacet
facet normal -0.531014 -0.847362 0.00124137
  outer loop
    vertex 1.509698993134369 6.041162039527768 22.52881432141833
    vertex 4.613201641948317 4.097359585123763 23.25123751857877
    vertex 3.641192976163504 4.710511620142913 26
  endloop
endfacet
facet normal 0.906726 -0.406836 -0.11105
  outer loop
    vertex -7.262043196436975 1.5 7.428806172946096
    vertex -6.210381947947904 4.275431348006704 5.847755120792453
    vertex -5.683820163236505 4.549666756133998 9.142464237370934
  endloop
endfacet
facet normal 0.913294 -0.406735 -0.0214551
  outer loop
    vertex -6.371849713531035 4.837306195412325 0
    vertex -6.677018552596493 4.010607926755124 2.681799001941886
    vertex -7.858116822750834 1.500000000000059 0
  endloop
endfacet
facet normal -0.432028 -0.891418 -0.136841
  outer loop
    vertex 3.556792827583725 7.165837339882128 0
    vertex 4.785751013713238 6.120549564884348 2.929263050348137
    vertex 1.769799550843755 7.546262437367317 3.1636267693859
  endloop
endfacet
facet normal 0.930687 -0.358126 -0.0746207
  outer loop
    vertex -7.858116822750834 1.500000000000059 0
    vertex -6.677018552596493 4.010607926755124 2.681799001941886
    vertex -7.560301377973208 1.5 3.714421235813973
  endloop
endfacet
facet normal -0.19462 -0.977859 -0.0769042
  outer loop
    vertex -0.1783747888815014 6.746960628829902 15.89141983194606
    vertex 2.684580521562464 6.013296586590466 17.97495428656682
    vertex -0.1770502592197032 6.468915801478254 19.42348946729464
  endloop
endfacet
facet normal -0.593709 -0.801957 -0.0661484
  outer loop
    vertex 5.085056517268321 4.342940405511954 16.68043262265686
    vertex 2.684580521562464 6.013296586590466 17.97495428656682
    vertex 2.647474484376054 6.330985200549804 14.45646620717561
  endloop
endfacet
facet normal 0.563448 -0.823641 -0.0643629
  outer loop
    vertex -2.00724816361354 5.878796037268711 22.71834221627997
    vertex -4.699626571641894 3.990589280821025 23.31169397035332
    vertex -4.960010440634624 4.047040311483173 20.30983951040394
  endloop
endfacet
facet normal 0.217687 -0.965675 -0.141719
  outer loop
    vertex -1.875301990122533 7.526663492302636 3.090579281370676
    vertex -0.1022810943284916 7.559162870644462 5.592574915508752
    vertex -3.321242689648132 6.728424792060596 6.30876532877642
  endloop
endfacet
facet normal 0.573246 -0.819359 -0.00627471
  outer loop
    vertex -3.641192976163381 4.710511620143008 26
    vertex -4.699626571641894 3.990589280821025 23.31169397035332
    vertex -2.00724816361354 5.878796037268711 22.71834221627997
  endloop
endfacet
facet normal 0.24226 -0.967212 -0.0762299
  outer loop
    vertex -0.1770502592197032 6.468915801478254 19.42348946729464
    vertex -2.929684091899698 5.857792967863068 18.42953799242039
    vertex -0.1783747888815014 6.746960628829902 15.89141983194606
  endloop
endfacet
facet normal 0.923716 -0.368309 -0.10534
  outer loop
    vertex -7.560301377973208 1.5 3.714421235813973
    vertex -6.677018552596493 4.010607926755124 2.681799001941886
    vertex -6.210381947947904 4.275431348006704 5.847755120792453
  endloop
endfacet
facet normal 0.0051899 -0.999943 0.00931086
  outer loop
    vertex 1.769799550843755 7.546262437367317 3.1636267693859
    vertex -0.1022810943284916 7.559162870644462 5.592574915508752
    vertex -1.875301990122533 7.526663492302636 3.090579281370676
  endloop
endfacet
facet normal 0.227721 -0.971411 -0.067104
  outer loop
    vertex -0.1783747888815014 6.746960628829902 15.89141983194606
    vertex -2.999394994828039 6.232717346958631 13.76242996011588
    vertex -0.01799550071483658 7.037689303317671 12.22702439543689
  endloop
endfacet
facet normal 0.633188 -0.771711 -0.0594579
  outer loop
    vertex -5.379491714375578 3.996572560710874 16.4976596520543
    vertex -2.929684091899698 5.857792967863068 18.42953799242039
    vertex -4.960010440634624 4.047040311483173 20.30983951040394
  endloop
endfacet
facet normal -0.881434 -0.467741 -0.0655212
  outer loop
    vertex 6.063274872685653 1.5 22.28588344860185
    vertex 4.613201641948317 4.097359585123763 23.25123751857877
    vertex 4.699528546368903 4.34722151508197 20.30620273807892
  endloop
endfacet
facet normal 0.888338 -0.451152 -0.0855394
  outer loop
    vertex -4.960010440634624 4.047040311483173 20.30983951040394
    vertex -4.699626571641894 3.990589280821025 23.31169397035332
    vertex -6.063274872685653 1.5 22.28588344860185
  endloop
endfacet
facet normal -0.924247 -0.367506 -0.103476
  outer loop
    vertex 6.2680967419279 4.231805658962171 5.554084126096363
    vertex 6.673012493585113 4.011421132379414 2.720107595665535
    vertex 7.560301377973208 1.5 3.714421235813973
  endloop
endfacet
facet normal 0.757565 -0.643074 -0.11203
  outer loop
    vertex -4.940323477229339 5.972559850191899 3.163626769385921
    vertex -6.677018552596493 4.010607926755124 2.681799001941886
    vertex -6.371849713531035 4.837306195412325 0
  endloop
endfacet
facet normal 0.754434 -0.65394 -0.0564972
  outer loop
    vertex -6.210381947947904 4.275431348006704 5.847755120792453
    vertex -6.677018552596493 4.010607926755124 2.681799001941886
    vertex -4.940323477229339 5.972559850191899 3.163626769385921
  endloop
endfacet
facet normal -0.745852 -0.655836 -0.116548
  outer loop
    vertex 6.371849713531076 4.837306195412271 0
    vertex 6.673012493585113 4.011421132379414 2.720107595665535
    vertex 4.785751013713238 6.120549564884348 2.929263050348137
  endloop
endfacet
facet normal -0.746793 -0.662765 -0.055161
  outer loop
    vertex 4.785751013713238 6.120549564884348 2.929263050348137
    vertex 6.673012493585113 4.011421132379414 2.720107595665535
    vertex 6.2680967419279 4.231805658962171 5.554084126096363
  endloop
endfacet
facet normal 0 -0 -1
  outer loop
    vertex 3.641192976163504 4.710511620142913 26
    vertex 5.761701659506874 1.49999999999993 26
    vertex 1.920567219835648 1.5 26
  endloop
endfacet
facet normal 0 0 -1
  outer loop
    vertex -1.920567219835576 1.5 26
    vertex -5.761701659506802 1.500000000000066 26
    vertex -3.641192976163381 4.710511620143008 26
  endloop
endfacet
facet normal -4.59313e-16 -1.34523e-15 -1
  outer loop
    vertex 3.641192976163504 4.710511620142913 26
    vertex 3.595596140844675e-14 3.312780276693297 26
    vertex 7.968452129019374e-14 5.953755622559919 26
  endloop
endfacet
facet normal 4.59313e-16 -1.34523e-15 -1
  outer loop
    vertex 7.968452129019374e-14 5.953755622559919 26
    vertex 3.595596140844675e-14 3.312780276693297 26
    vertex -3.641192976163381 4.710511620143008 26
  endloop
endfacet
facet normal -1.22842e-15 6.58353e-16 -1
  outer loop
    vertex 1.920567219835648 1.5 26
    vertex 3.595596140844675e-14 3.312780276693297 26
    vertex 3.641192976163504 4.710511620142913 26
  endloop
endfacet
facet normal 1.22842e-15 6.58353e-16 -1
  outer loop
    vertex -3.641192976163381 4.710511620143008 26
    vertex 3.595596140844675e-14 3.312780276693297 26
    vertex -1.920567219835576 1.5 26
  endloop
endfacet
facet normal 0 1.95981e-15 -1
  outer loop
    vertex -1.920567219835576 1.5 26
    vertex 3.595596140844675e-14 3.312780276693297 26
    vertex 1.920567219835648 1.5 26
  endloop
endfacet
facet normal 1.09275e-15 1 6.53409e-16
  outer loop
    vertex 4.356372765660735 1.500000000000005 4.132400325994052
    vertex 2.177036689432476 1.500000000000006 6.757606625223951
    vertex 7.262043196436975 1.5 7.428806172946096
  endloop
endfacet
facet normal 1.10637e-15 1 5.50244e-16
  outer loop
    vertex 7.262043196436975 1.5 7.428806172946096
    vertex 2.177036689432476 1.500000000000006 6.757606625223951
    vertex 4.105974272419694 1.500000000000002 9.739277030072927
  endloop
endfacet
facet normal 1.7449e-15 1 6.25556e-16
  outer loop
    vertex 3.929058411375435 1.500000000000009 0
    vertex 4.356372765660735 1.500000000000005 4.132400325994052
    vertex 7.560301377973208 1.5 3.714421235813973
  endloop
endfacet
facet normal 4.23851e-15 1 -1.81221e-15
  outer loop
    vertex 7.858116822750858 1.499999999999992 0
    vertex 3.929058411375435 1.500000000000009 0
    vertex 7.560301377973208 1.5 3.714421235813973
  endloop
endfacet
facet normal 1.6809e-15 1 1.34973e-16
  outer loop
    vertex 7.560301377973208 1.5 3.714421235813973
    vertex 4.356372765660735 1.500000000000005 4.132400325994052
    vertex 7.262043196436975 1.5 7.428806172946096
  endloop
endfacet
facet normal 1.07302e-15 1 6.36703e-16
  outer loop
    vertex -3.895947537684773 1.500000000000011 9.027246620457833
    vertex -3.393008612617254 1.500000000000008 12.71329339549698
    vertex 0.2847515836224267 1.500000000000006 10.35140285964988
  endloop
endfacet
facet normal 1.04066e-15 1 5.8632e-16
  outer loop
    vertex 0.2847515836224267 1.500000000000006 10.35140285964988
    vertex -3.393008612617254 1.500000000000008 12.71329339549698
    vertex 0.1122293997913034 1.500000000000004 14.44470404489485
  endloop
endfacet
facet normal 1.08845e-15 1 5.87982e-16
  outer loop
    vertex 0.2847515836224267 1.500000000000006 10.35140285964988
    vertex -1.186717831770052 1.50000000000001 6.277842190234611
    vertex -3.895947537684773 1.500000000000011 9.027246620457833
  endloop
endfacet
facet normal 1.07516e-15 1 5.77201e-16
  outer loop
    vertex 2.997052215516376 1.499999999999997 20.16836397271349
    vertex 0.0005637008776862613 1.500000000000002 18.05612982697836
    vertex 3.649397337908741e-14 1.499999999999999 22.67347999589342
  endloop
endfacet
facet normal 1.07313e-15 1 5.77201e-16
  outer loop
    vertex 3.649397337908741e-14 1.499999999999999 22.67347999589342
    vertex 0.0005637008776862613 1.500000000000002 18.05612982697836
    vertex -2.997794353455999 1.500000000000004 20.16842405893933
  endloop
endfacet
facet normal 1.05976e-15 1 5.47666e-16
  outer loop
    vertex 0.1122293997913034 1.500000000000004 14.44470404489485
    vertex -3.393008612617254 1.500000000000008 12.71329339549698
    vertex -3.231839110339191 1.500000000000006 16.45580639677219
  endloop
endfacet
facet normal 1.10274e-15 1 5.99167e-16
  outer loop
    vertex 2.177036689432476 1.500000000000006 6.757606625223951
    vertex 1.091680822364655 1.500000000000009 3.196324082769717
    vertex -1.186717831770052 1.50000000000001 6.277842190234611
  endloop
endfacet
facet normal 1.121e-15 1 6.49501e-16
  outer loop
    vertex -3.231839110339191 1.500000000000006 16.45580639677219
    vertex 0.0005637008776862613 1.500000000000002 18.05612982697836
    vertex 0.1122293997913034 1.500000000000004 14.44470404489485
  endloop
endfacet
facet normal 1.13581e-15 1 6.23617e-16
  outer loop
    vertex -1.186717831770052 1.50000000000001 6.277842190234611
    vertex 1.091680822364655 1.500000000000009 3.196324082769717
    vertex -2.153849094240901 1.500000000000013 3.054470923446004
  endloop
endfacet
facet normal 4.23851e-15 1 6.98699e-15
  outer loop
    vertex -3.929058411375411 1.500000000000042 0
    vertex -2.153849094240901 1.500000000000013 3.054470923446004
    vertex 1.243449787580175e-14 1.500000000000025 0
  endloop
endfacet
facet normal 0 1 -3.33749e-16
  outer loop
    vertex 1.920567219835648 1.5 26
    vertex 3.649397337908741e-14 1.499999999999999 22.67347999589342
    vertex -1.920567219835576 1.5 26
  endloop
endfacet
facet normal -1.88228e-15 1 1.52018e-16
  outer loop
    vertex -6.363989125402343 1.5 18.5716968317751
    vertex -3.231839110339191 1.500000000000006 16.45580639677219
    vertex -6.663960662783282 1.5 14.85744962601301
  endloop
endfacet
facet normal -8.91562e-16 1 -7.21842e-17
  outer loop
    vertex 6.36398912540234 1.5 18.57169683177514
    vertex 2.997052215516376 1.499999999999997 20.16836397271349
    vertex 6.063274872685653 1.5 22.28588344860185
  endloop
endfacet
facet normal 7.47567e-16 1 6.01295e-17
  outer loop
    vertex 7.262043196436975 1.5 7.428806172946096
    vertex 4.105974272419694 1.500000000000002 9.739277030072927
    vertex 6.963285348310009 1.5 11.14315082519418
  endloop
endfacet
facet normal -3.49782e-15 1 2.81342e-16
  outer loop
    vertex -6.963285348310013 1.5 11.14315082519413
    vertex -3.895947537684773 1.500000000000011 9.027246620457833
    vertex -7.262043196436975 1.5 7.428806172946096
  endloop
endfacet
facet normal 1.08483e-15 1 5.88182e-16
  outer loop
    vertex 0.2847515836224267 1.500000000000006 10.35140285964988
    vertex 0.1122293997913034 1.500000000000004 14.44470404489485
    vertex 3.632235209385241 1.500000000000001 12.86008480228874
  endloop
endfacet
facet normal 1.08255e-15 1 5.9123e-16
  outer loop
    vertex 4.105974272419694 1.500000000000002 9.739277030072927
    vertex 0.2847515836224267 1.500000000000006 10.35140285964988
    vertex 3.632235209385241 1.500000000000001 12.86008480228874
  endloop
endfacet
facet normal 5.27985e-16 1 5.07046e-16
  outer loop
    vertex 4.105974272419694 1.500000000000002 9.739277030072927
    vertex 3.632235209385241 1.500000000000001 12.86008480228874
    vertex 6.963285348310009 1.5 11.14315082519418
  endloop
endfacet
facet normal 2.78191e-16 1 2.24187e-17
  outer loop
    vertex 6.963285348310009 1.5 11.14315082519418
    vertex 3.632235209385241 1.500000000000001 12.86008480228874
    vertex 6.663960662783278 1.5 14.85744962601305
  endloop
endfacet
facet normal -2.13052e-15 1 6.85053e-16
  outer loop
    vertex -3.231839110339191 1.500000000000006 16.45580639677219
    vertex -3.393008612617254 1.500000000000008 12.71329339549698
    vertex -6.663960662783282 1.5 14.85744962601301
  endloop
endfacet
facet normal -2.45015e-15 1 1.97451e-16
  outer loop
    vertex -6.663960662783282 1.5 14.85744962601301
    vertex -3.393008612617254 1.500000000000008 12.71329339549698
    vertex -6.963285348310013 1.5 11.14315082519413
  endloop
endfacet
facet normal -2.88056e-15 1 1.17615e-15
  outer loop
    vertex -6.963285348310013 1.5 11.14315082519413
    vertex -3.393008612617254 1.500000000000008 12.71329339549698
    vertex -3.895947537684773 1.500000000000011 9.027246620457833
  endloop
endfacet
facet normal 1.08553e-15 1 5.89716e-16
  outer loop
    vertex 0.1122293997913034 1.500000000000004 14.44470404489485
    vertex 3.295005052292704 1.499999999999999 16.49307151744394
    vertex 3.632235209385241 1.500000000000001 12.86008480228874
  endloop
endfacet
facet normal -6.23447e-16 1 4.93197e-16
  outer loop
    vertex 6.36398912540234 1.5 18.57169683177514
    vertex 3.295005052292704 1.499999999999999 16.49307151744394
    vertex 2.997052215516376 1.499999999999997 20.16836397271349
  endloop
endfacet
facet normal -2.74395e-16 1 -2.21608e-17
  outer loop
    vertex 6.663960662783278 1.5 14.85744962601305
    vertex 3.295005052292704 1.499999999999999 16.49307151744394
    vertex 6.36398912540234 1.5 18.57169683177514
  endloop
endfacet
facet normal -2.74896e-17 1 4.864e-16
  outer loop
    vertex 3.632235209385241 1.500000000000001 12.86008480228874
    vertex 3.295005052292704 1.499999999999999 16.49307151744394
    vertex 6.663960662783278 1.5 14.85744962601305
  endloop
endfacet
facet normal -1.09756e-15 1 8.88626e-17
  outer loop
    vertex -6.063274872685653 1.5 22.28588344860185
    vertex -2.997794353455999 1.500000000000004 20.16842405893933
    vertex -6.363989125402343 1.5 18.5716968317751
  endloop
endfacet
facet normal -1.43887e-15 1 8.08404e-16
  outer loop
    vertex -6.363989125402343 1.5 18.5716968317751
    vertex -2.997794353455999 1.500000000000004 20.16842405893933
    vertex -3.231839110339191 1.500000000000006 16.45580639677219
  endloop
endfacet
facet normal 1.04849e-15 1 6.47259e-16
  outer loop
    vertex 0.1122293997913034 1.500000000000004 14.44470404489485
    vertex 0.0005637008776862613 1.500000000000002 18.05612982697836
    vertex 3.295005052292704 1.499999999999999 16.49307151744394
  endloop
endfacet
facet normal 1.0235e-15 1 7.00153e-16
  outer loop
    vertex 3.929058411375435 1.500000000000009 0
    vertex 1.091680822364655 1.500000000000009 3.196324082769717
    vertex 4.356372765660735 1.500000000000005 4.132400325994052
  endloop
endfacet
facet normal 1.1052e-15 1 5.81933e-16
  outer loop
    vertex 0.2847515836224267 1.500000000000006 10.35140285964988
    vertex 2.177036689432476 1.500000000000006 6.757606625223951
    vertex -1.186717831770052 1.50000000000001 6.277842190234611
  endloop
endfacet
facet normal 1.07884e-15 1 5.68053e-16
  outer loop
    vertex 4.105974272419694 1.500000000000002 9.739277030072927
    vertex 2.177036689432476 1.500000000000006 6.757606625223951
    vertex 0.2847515836224267 1.500000000000006 10.35140285964988
  endloop
endfacet
facet normal 4.23851e-15 1 1.23483e-14
  outer loop
    vertex -7.858116822750834 1.500000000000059 0
    vertex -5.182147971562977 1.500000000000017 2.480045146361016
    vertex -3.929058411375411 1.500000000000042 0
  endloop
endfacet
facet normal 1.03935e-15 1 6.27999e-16
  outer loop
    vertex 3.295005052292704 1.499999999999999 16.49307151744394
    vertex 0.0005637008776862613 1.500000000000002 18.05612982697836
    vertex 2.997052215516376 1.499999999999997 20.16836397271349
  endloop
endfacet
facet normal 1.11667e-15 1 6.15788e-16
  outer loop
    vertex -1.186717831770052 1.50000000000001 6.277842190234611
    vertex -4.40941415147451 1.500000000000014 5.631333572545099
    vertex -3.895947537684773 1.500000000000011 9.027246620457833
  endloop
endfacet
facet normal 1.14131e-15 1 1.56902e-14
  outer loop
    vertex -7.560301377973208 1.5 3.714421235813973
    vertex -5.182147971562977 1.500000000000017 2.480045146361016
    vertex -7.858116822750834 1.500000000000059 0
  endloop
endfacet
facet normal 1.12226e-15 1 6.46949e-16
  outer loop
    vertex -2.997794353455999 1.500000000000004 20.16842405893933
    vertex 0.0005637008776862613 1.500000000000002 18.05612982697836
    vertex -3.231839110339191 1.500000000000006 16.45580639677219
  endloop
endfacet
facet normal 1.11377e-15 1 6.30228e-16
  outer loop
    vertex -2.153849094240901 1.500000000000013 3.054470923446004
    vertex -4.40941415147451 1.500000000000014 5.631333572545099
    vertex -1.186717831770052 1.50000000000001 6.277842190234611
  endloop
endfacet
facet normal -4.66766e-15 1 3.74805e-16
  outer loop
    vertex -7.262043196436975 1.5 7.428806172946096
    vertex -4.40941415147451 1.500000000000014 5.631333572545099
    vertex -7.560301377973208 1.5 3.714421235813973
  endloop
endfacet
facet normal 4.23851e-15 1 3.55412e-15
  outer loop
    vertex 1.243449787580175e-14 1.500000000000025 0
    vertex 1.091680822364655 1.500000000000009 3.196324082769717
    vertex 3.929058411375435 1.500000000000009 0
  endloop
endfacet
facet normal 1.81514e-14 1 6.31046e-15
  outer loop
    vertex 5.761701659506874 1.49999999999993 26
    vertex 3.158492151365413 1.499999999999995 23.21333916250488
    vertex 1.920567219835648 1.5 26
  endloop
endfacet
facet normal 1.70531e-14 1 -6.85889e-15
  outer loop
    vertex -1.920567219835576 1.5 26
    vertex -3.15854788726414 1.500000000000002 23.213401330057
    vertex -5.761701659506802 1.500000000000066 26
  endloop
endfacet
facet normal 1.04764e-15 1 6.1596e-16
  outer loop
    vertex 4.356372765660735 1.500000000000005 4.132400325994052
    vertex 1.091680822364655 1.500000000000009 3.196324082769717
    vertex 2.177036689432476 1.500000000000006 6.757606625223951
  endloop
endfacet
facet normal 4.42674e-15 1 1.91316e-14
  outer loop
    vertex 6.063274872685653 1.5 22.28588344860185
    vertex 3.158492151365413 1.499999999999995 23.21333916250488
    vertex 5.761701659506874 1.49999999999993 26
  endloop
endfacet
facet normal 5.07509e-15 1 -1.80483e-14
  outer loop
    vertex -5.761701659506802 1.500000000000066 26
    vertex -3.15854788726414 1.500000000000002 23.213401330057
    vertex -6.063274872685653 1.5 22.28588344860185
  endloop
endfacet
facet normal -4.02587e-15 1 1.39335e-15
  outer loop
    vertex -3.895947537684773 1.500000000000011 9.027246620457833
    vertex -4.40941415147451 1.500000000000014 5.631333572545099
    vertex -7.262043196436975 1.5 7.428806172946096
  endloop
endfacet
facet normal 1.09284e-15 1 5.98354e-16
  outer loop
    vertex 3.649397337908741e-14 1.499999999999999 22.67347999589342
    vertex 3.158492151365413 1.499999999999995 23.21333916250488
    vertex 2.997052215516376 1.499999999999997 20.16836397271349
  endloop
endfacet
facet normal 1.08121e-15 1 5.67531e-16
  outer loop
    vertex -2.997794353455999 1.500000000000004 20.16842405893933
    vertex -3.15854788726414 1.500000000000002 23.213401330057
    vertex 3.649397337908741e-14 1.499999999999999 22.67347999589342
  endloop
endfacet
facet normal 1.38925e-15 1 -1.13584e-15
  outer loop
    vertex 1.920567219835648 1.5 26
    vertex 3.158492151365413 1.499999999999995 23.21333916250488
    vertex 3.649397337908741e-14 1.499999999999999 22.67347999589342
  endloop
endfacet
facet normal 1.02866e-15 1 2.6015e-16
  outer loop
    vertex 3.649397337908741e-14 1.499999999999999 22.67347999589342
    vertex -3.15854788726414 1.500000000000002 23.213401330057
    vertex -1.920567219835576 1.5 26
  endloop
endfacet
facet normal -1.44765e-15 1 7.33047e-16
  outer loop
    vertex 2.997052215516376 1.499999999999997 20.16836397271349
    vertex 3.158492151365413 1.499999999999995 23.21333916250488
    vertex 6.063274872685653 1.5 22.28588344860185
  endloop
endfacet
facet normal -8.36869e-16 1 4.6627e-16
  outer loop
    vertex -6.063274872685653 1.5 22.28588344860185
    vertex -3.15854788726414 1.500000000000002 23.213401330057
    vertex -2.997794353455999 1.500000000000004 20.16842405893933
  endloop
endfacet
facet normal -6.96174e-16 1 9.85495e-15
  outer loop
    vertex -3.929058411375411 1.500000000000042 0
    vertex -5.182147971562977 1.500000000000017 2.480045146361016
    vertex -2.153849094240901 1.500000000000013 3.054470923446004
  endloop
endfacet
facet normal 9.58763e-16 1 4.67429e-15
  outer loop
    vertex -2.153849094240901 1.500000000000013 3.054470923446004
    vertex 1.091680822364655 1.500000000000009 3.196324082769717
    vertex 1.243449787580175e-14 1.500000000000025 0
  endloop
endfacet
facet normal -5.82267e-15 1 2.27333e-15
  outer loop
    vertex -4.40941415147451 1.500000000000014 5.631333572545099
    vertex -5.182147971562977 1.500000000000017 2.480045146361016
    vertex -7.560301377973208 1.5 3.714421235813973
  endloop
endfacet
facet normal 1.06219e-15 1 5.85076e-16
  outer loop
    vertex -2.153849094240901 1.500000000000013 3.054470923446004
    vertex -5.182147971562977 1.500000000000017 2.480045146361016
    vertex -4.40941415147451 1.500000000000014 5.631333572545099
  endloop
endfacet
endsolid Created by Gmsh
