solid Created by Gmsh
facet normal -0.190758 -0.978317 -0.0806683
  outer loop
    vertex -0.03929741170758443 8.957539063106722 6.891524451119004
    vertex 3.44429044772286 8.576790853601917 3.271385949631973
    vertex 3.400144662661644 8.276595830823307 7.016439079205082
  endloop
endfacet
facet normal -0.18993 -0.978545 -0.0798473
  outer loop
    vertex 0.01479228857474829 9.244914824128603 3.241014102484847
    vertex 3.44429044772286 8.576790853601917 3.271385949631973
    vertex -0.03929741170758443 8.957539063106722 6.891524451119004
  endloop
endfacet
facet normal 0.213934 -0.971031 -0.106447
  outer loop
    vertex -3.747086218212447 8.119576310593215 7.083802676690656
    vertex -3.284534434823316 8.63862893484208 3.27853605653333
    vertex -0.03929741170758443 8.957539063106722 6.891524451119004
  endloop
endfacet
facet normal 0.179411 -0.980944 -0.0745637
  outer loop
    vertex -0.03929741170758443 8.957539063106722 6.891524451119004
    vertex -3.284534434823316 8.63862893484208 3.27853605653333
    vertex 0.01479228857474829 9.244914824128603 3.241014102484847
  endloop
endfacet
facet normal -0.542971 -0.835518 -0.0842167
  outer loop
    vertex 6.275957194788844 6.787625841483955 3.247312889675779
    vertex 6.173557675004945 6.441311373184957 7.343315781447366
    vertex 3.400144662661644 8.276595830823307 7.016439079205082
  endloop
endfacet
facet normal -0.533142 -0.842797 -0.0738413
  outer loop
    vertex 3.44429044772286 8.576790853601917 3.271385949631973
    vertex 6.275957194788844 6.787625841483955 3.247312889675779
    vertex 3.400144662661644 8.276595830823307 7.016439079205082
  endloop
endfacet
facet normal 0.513154 -0.856567 -0.0544621
  outer loop
    vertex -6.056008058705046 6.973540911153329 3.353192717766429
    vertex -3.284534434823316 8.63862893484208 3.27853605653333
    vertex -3.747086218212447 8.119576310593215 7.083802676690656
  endloop
endfacet
facet normal 0.561159 -0.822272 -0.0947086
  outer loop
    vertex -3.747086218212447 8.119576310593215 7.083802676690656
    vertex -6.200011624511405 6.419011079015779 7.314451724770269
    vertex -6.056008058705046 6.973540911153329 3.353192717766429
  endloop
endfacet
facet normal 0.628223 -0.768898 -0.118877
  outer loop
    vertex -6.142544407022061 4.960542728833813 20.38797797788254
    vertex -4.791582300687857 6.640440472111307 16.66172159051389
    vertex -3.700017357526154 7.000056192767136 20.10427201726561
  endloop
endfacet
facet normal 0.720743 -0.691369 -0.0503812
  outer loop
    vertex -6.816674385077726 4.520847824245828 16.77784861064736
    vertex -4.791582300687857 6.640440472111307 16.66172159051389
    vertex -6.142544407022061 4.960542728833813 20.38797797788254
  endloop
endfacet
facet normal 0.604764 -0.796314 -0.0120022
  outer loop
    vertex -3.448722289850512 7.709502918167567 13.395946905967
    vertex -4.791582300687857 6.640440472111307 16.66172159051389
    vertex -6.563338012021187 5.34804669057798 13.13382334777311
  endloop
endfacet
facet normal -0.656287 -0.754319 0.0170158
  outer loop
    vertex 7.157564903217513 4.537077095710848 13.0312222715464
    vertex 5.231943936869134 6.295239806047765 16.70162985744945
    vertex 3.65226991227839 7.59918427938601 13.57922835157368
  endloop
endfacet
facet normal -0.663191 -0.72832 -0.172416
  outer loop
    vertex 7.157564903217513 4.537077095710848 13.0312222715464
    vertex 3.65226991227839 7.59918427938601 13.57922835157368
    vertex 5.280662677203531 6.906473726409106 10.24182825902736
  endloop
endfacet
facet normal 0.605068 -0.780719 -0.156108
  outer loop
    vertex -6.563338012021187 5.34804669057798 13.13382334777311
    vertex -5.153591789107056 6.985464530868688 10.40897092912172
    vertex -3.448722289850512 7.709502918167567 13.395946905967
  endloop
endfacet
facet normal -0.4458 -0.894997 -0.0155852
  outer loop
    vertex 5.231943936869134 6.295239806047765 16.70162985744945
    vertex 3.395710933971766 7.150118799281458 20.13305256362799
    vertex 1.90177884752282 7.951931391067323 16.82068425335901
  endloop
endfacet
facet normal -0.619244 -0.772827 -0.138835
  outer loop
    vertex 6.268751539652114 4.794436822763754 20.43141113254104
    vertex 3.395710933971766 7.150118799281458 20.13305256362799
    vertex 5.231943936869134 6.295239806047765 16.70162985744945
  endloop
endfacet
facet normal 0.715973 -0.689905 -0.106834
  outer loop
    vertex -6.563338012021187 5.34804669057798 13.13382334777311
    vertex -4.791582300687857 6.640440472111307 16.66172159051389
    vertex -6.816674385077726 4.520847824245828 16.77784861064736
  endloop
endfacet
facet normal -0.444886 -0.883925 -0.144061
  outer loop
    vertex 3.65226991227839 7.59918427938601 13.57922835157368
    vertex 5.231943936869134 6.295239806047765 16.70162985744945
    vertex 1.90177884752282 7.951931391067323 16.82068425335901
  endloop
endfacet
facet normal -0.265352 -0.95204 -0.15234
  outer loop
    vertex 1.552754006199714 7.5030165085453 23.35395643604782
    vertex 3.826141186378707 6.330578642207405 26.72117147216391
    vertex 5.793915948653864e-14 7.396998196787397 26.72117147216391
  endloop
endfacet
facet normal 0.727057 -0.68564 -0.0358598
  outer loop
    vertex -7.468807545177455 4.585914619647707 9.34741510914159
    vertex -5.153591789107056 6.985464530868688 10.40897092912172
    vertex -6.563338012021187 5.34804669057798 13.13382334777311
  endloop
endfacet
facet normal -0.74729 -0.661841 -0.059358
  outer loop
    vertex 5.280662677203531 6.906473726409106 10.24182825902736
    vertex 7.601433252186768 4.371186356244183 9.292802506511538
    vertex 7.157564903217513 4.537077095710848 13.0312222715464
  endloop
endfacet
facet normal -0.268483 -0.963275 0.00412992
  outer loop
    vertex 5.793915948653864e-14 7.396998196787397 26.72117147216391
    vertex 3.826141186378707 6.330578642207405 26.72117147216391
    vertex 1.916706266330598 6.876832627741775 30
  endloop
endfacet
facet normal 0.511206 -0.84582 -0.152503
  outer loop
    vertex -5.197458655397512 4.893977260551823 30
    vertex -3.540384158488342 6.502651801530388 26.63256170318655
    vertex -1.91670626633049 6.876832627741805 30
  endloop
endfacet
facet normal -0.788644 -0.614216 -0.0279227
  outer loop
    vertex 5.231943936869134 6.295239806047765 16.70162985744945
    vertex 7.364296586549217 3.551874675764234 16.82169260890397
    vertex 6.268751539652114 4.794436822763754 20.43141113254104
  endloop
endfacet
facet normal 0.245754 -0.958586 -0.143938
  outer loop
    vertex -3.540384158488342 6.502651801530388 26.63256170318655
    vertex -1.559133940160205 7.500312785652266 23.37113105754679
    vertex 5.793915948653864e-14 7.396998196787397 26.72117147216391
  endloop
endfacet
facet normal 0.245152 -0.969428 -0.0104848
  outer loop
    vertex -1.91670626633049 6.876832627741805 30
    vertex -3.540384158488342 6.502651801530388 26.63256170318655
    vertex 5.793915948653864e-14 7.396998196787397 26.72117147216391
  endloop
endfacet
facet normal 0.000157087 -0.991816 -0.127674
  outer loop
    vertex -1.559133940160205 7.500312785652266 23.37113105754679
    vertex -0.02027222684554342 7.912449326099765 20.17141391960996
    vertex 1.552754006199714 7.5030165085453 23.35395643604782
  endloop
endfacet
facet normal 0.000696503 -0.999515 -0.031149
  outer loop
    vertex -1.559133940160205 7.500312785652266 23.37113105754679
    vertex 1.552754006199714 7.5030165085453 23.35395643604782
    vertex 5.793915948653864e-14 7.396998196787397 26.72117147216391
  endloop
endfacet
facet normal 0.24081 -0.970529 -0.00919344
  outer loop
    vertex -1.559133940160205 7.500312785652266 23.37113105754679
    vertex -3.700017357526154 7.000056192767136 20.10427201726561
    vertex -0.02027222684554342 7.912449326099765 20.17141391960996
  endloop
endfacet
facet normal -0.510867 -0.84526 -0.156684
  outer loop
    vertex 1.916706266330598 6.876832627741775 30
    vertex 3.826141186378707 6.330578642207405 26.72117147216391
    vertex 5.197458655397589 4.893977260551742 30
  endloop
endfacet
facet normal -7.7803e-15 -0.987649 -0.156684
  outer loop
    vertex -1.91670626633049 6.876832627741805 30
    vertex 5.793915948653864e-14 7.396998196787397 26.72117147216391
    vertex 1.916706266330598 6.876832627741775 30
  endloop
endfacet
facet normal 0.240596 -0.959608 -0.145831
  outer loop
    vertex -3.700017357526154 7.000056192767136 20.10427201726561
    vertex -1.702357931305096 7.993704795588292 16.86159239865035
    vertex -0.02027222684554342 7.912449326099765 20.17141391960996
  endloop
endfacet
facet normal 0.721821 -0.6913 -0.0328447
  outer loop
    vertex -5.405152974387287 7.812446564519481 0
    vertex -6.056008058705046 6.973540911153329 3.353192717766429
    vertex -8.038537166172263 5.062797668094905 0
  endloop
endfacet
facet normal -0.220327 -0.975341 -0.0128437
  outer loop
    vertex -0.02751027094240049 8.430275758506921 13.59156488520955
    vertex 3.65226991227839 7.59918427938601 13.57922835157368
    vertex 1.90177884752282 7.951931391067323 16.82068425335901
  endloop
endfacet
facet normal 4.19835e-15 -0.999815 -0.0192508
  outer loop
    vertex 1.90363345704677 9.307318607483692 0
    vertex 0.01479228857474829 9.244914824128603 3.241014102484847
    vertex -1.903633457046848 9.307318607483676 0
  endloop
endfacet
facet normal -0.0117981 -0.999758 -0.0185479
  outer loop
    vertex -1.702357931305096 7.993704795588292 16.86159239865035
    vertex 1.90177884752282 7.951931391067323 16.82068425335901
    vertex -0.02027222684554342 7.912449326099765 20.17141391960996
  endloop
endfacet
facet normal -0.416607 -0.898436 -0.138752
  outer loop
    vertex 3.400144662661644 8.276595830823307 7.016439079205082
    vertex 5.280662677203531 6.906473726409106 10.24182825902736
    vertex 1.831519088748688 8.491209983345209 10.33662415151586
  endloop
endfacet
facet normal -0.417797 -0.908411 -0.0153029
  outer loop
    vertex 5.280662677203531 6.906473726409106 10.24182825902736
    vertex 3.65226991227839 7.59918427938601 13.57922835157368
    vertex 1.831519088748688 8.491209983345209 10.33662415151586
  endloop
endfacet
facet normal -0.2185 -0.965322 -0.142866
  outer loop
    vertex 1.831519088748688 8.491209983345209 10.33662415151586
    vertex 3.65226991227839 7.59918427938601 13.57922835157368
    vertex -0.02751027094240049 8.430275758506921 13.59156488520955
  endloop
endfacet
facet normal -0.0130535 -0.990222 -0.138887
  outer loop
    vertex -1.702357931305096 7.993704795588292 16.86159239865035
    vertex -0.02751027094240049 8.430275758506921 13.59156488520955
    vertex 1.90177884752282 7.951931391067323 16.82068425335901
  endloop
endfacet
facet normal 0.207423 -0.977949 -0.0243247
  outer loop
    vertex -1.702357931305096 7.993704795588292 16.86159239865035
    vertex -3.448722289850512 7.709502918167567 13.395946905967
    vertex -0.02751027094240049 8.430275758506921 13.59156488520955
  endloop
endfacet
facet normal -8.83857e-05 -0.999824 -0.0187677
  outer loop
    vertex -1.819386011084661 8.49083767435692 10.3736521622854
    vertex 1.831519088748688 8.491209983345209 10.33662415151586
    vertex -0.02751027094240049 8.430275758506921 13.59156488520955
  endloop
endfacet
facet normal -0.392554 -0.919501 -0.0204591
  outer loop
    vertex 5.405152974387216 7.812446564519532 0
    vertex 3.44429044772286 8.576790853601917 3.271385949631973
    vertex 1.90363345704677 9.307318607483692 0
  endloop
endfacet
facet normal -0.92923 -0.361954 -0.0743077
  outer loop
    vertex 8.183113613332338 1.5 15.0002335557642
    vertex 7.157564903217513 4.537077095710848 13.0312222715464
    vertex 8.482991594394774 1.5 11.25021141236847
  endloop
endfacet
facet normal -0.193162 -0.980771 -0.0278633
  outer loop
    vertex -0.03929741170758443 8.957539063106722 6.891524451119004
    vertex 3.400144662661644 8.276595830823307 7.016439079205082
    vertex 1.831519088748688 8.491209983345209 10.33662415151586
  endloop
endfacet
facet normal 0.211679 -0.967818 -0.136087
  outer loop
    vertex -3.448722289850512 7.709502918167567 13.395946905967
    vertex -1.819386011084661 8.49083767435692 10.3736521622854
    vertex -0.02751027094240049 8.430275758506921 13.59156488520955
  endloop
endfacet
facet normal 0.924257 -0.374531 -0.0739983
  outer loop
    vertex -8.183113613332338 1.5 15.0002335557642
    vertex -6.816674385077726 4.520847824245828 16.77784861064736
    vertex -7.882879771792032 1.5 18.75022725614218
  endloop
endfacet
facet normal -0.00125259 -0.991052 -0.133469
  outer loop
    vertex -1.819386011084661 8.49083767435692 10.3736521622854
    vertex -0.03929741170758443 8.957539063106722 6.891524451119004
    vertex 1.831519088748688 8.491209983345209 10.33662415151586
  endloop
endfacet
facet normal 0.932832 -0.352522 -0.0745158
  outer loop
    vertex -8.78255024155372 1.5 7.50016272315473
    vertex -7.468807545177455 4.585914619647707 9.34741510914159
    vertex -8.482991594394774 1.5 11.25021141236847
  endloop
endfacet
facet normal 0.219489 -0.975439 -0.0185315
  outer loop
    vertex -1.819386011084661 8.49083767435692 10.3736521622854
    vertex -3.747086218212447 8.119576310593215 7.083802676690656
    vertex -0.03929741170758443 8.957539063106722 6.891524451119004
  endloop
endfacet
facet normal -0.217964 -0.975794 -0.0178032
  outer loop
    vertex -0.02027222684554342 7.912449326099765 20.17141391960996
    vertex 3.395710933971766 7.150118799281458 20.13305256362799
    vertex 1.552754006199714 7.5030165085453 23.35395643604782
  endloop
endfacet
facet normal -0.909818 -0.408549 -0.0729395
  outer loop
    vertex 7.582247802219785 1.5 22.50018918936374
    vertex 6.268751539652114 4.794436822763754 20.43141113254104
    vertex 7.882879771792032 1.5 18.75022725614218
  endloop
endfacet
facet normal 0.91898 -0.387338 -0.0737844
  outer loop
    vertex -7.582247802219785 1.5 22.50018918936374
    vertex -6.267729580748362 4.277227733096466 24.29311878355363
    vertex -7.281168431350141 1.5 26.25011505603835
  endloop
endfacet
facet normal -0.944015 -0.321184 -0.0753362
  outer loop
    vertex 8.782550241553714 1.5 7.500162723154759
    vertex 7.99751572495098 4.26196517307923 5.561979990316662
    vertex 9.081820943301881 1.5 3.750092682918876
  endloop
endfacet
facet normal -0.923451 -0.376485 -0.0741433
  outer loop
    vertex 7.281168431350141 1.5 26.25011505603835
    vertex 6.367347808203814 4.12920610194636 24.28110507324961
    vertex 7.582247802219785 1.5 22.50018918936374
  endloop
endfacet
facet normal -0.918026 -0.394008 -0.044573
  outer loop
    vertex 7.582247802219785 1.5 22.50018918936374
    vertex 6.367347808203814 4.12920610194636 24.28110507324961
    vertex 6.268751539652114 4.794436822763754 20.43141113254104
  endloop
endfacet
facet normal -0.217239 -0.966597 -0.136002
  outer loop
    vertex 1.90177884752282 7.951931391067323 16.82068425335901
    vertex 3.395710933971766 7.150118799281458 20.13305256362799
    vertex -0.02027222684554342 7.912449326099765 20.17141391960996
  endloop
endfacet
facet normal 0.916626 -0.398845 -0.0268136
  outer loop
    vertex -8.183113613332338 1.5 15.0002335557642
    vertex -6.563338012021187 5.34804669057798 13.13382334777311
    vertex -6.816674385077726 4.520847824245828 16.77784861064736
  endloop
endfacet
facet normal 0.50934 -0.852911 -0.114519
  outer loop
    vertex -5.405152974387287 7.812446564519481 0
    vertex -3.284534434823316 8.63862893484208 3.27853605653333
    vertex -6.056008058705046 6.973540911153329 3.353192717766429
  endloop
endfacet
facet normal 0.911707 -0.386142 -0.1403
  outer loop
    vertex -7.468807545177455 4.585914619647707 9.34741510914159
    vertex -6.563338012021187 5.34804669057798 13.13382334777311
    vertex -8.482991594394774 1.5 11.25021141236847
  endloop
endfacet
facet normal 0.908628 -0.399696 -0.12099
  outer loop
    vertex -6.816674385077726 4.520847824245828 16.77784861064736
    vertex -6.142544407022061 4.960542728833813 20.38797797788254
    vertex -7.882879771792032 1.5 18.75022725614218
  endloop
endfacet
facet normal -0.792731 -0.605421 -0.0710062
  outer loop
    vertex 7.99751572495098 4.26196517307923 5.561979990316662
    vertex 6.173557675004945 6.441311373184957 7.343315781447366
    vertex 6.275957194788844 6.787625841483955 3.247312889675779
  endloop
endfacet
facet normal 0.913212 -0.405351 -0.0416533
  outer loop
    vertex -7.582247802219785 1.5 22.50018918936374
    vertex -6.142544407022061 4.960542728833813 20.38797797788254
    vertex -6.267729580748362 4.277227733096466 24.29311878355363
  endloop
endfacet
facet normal -0.188536 -0.973607 -0.128624
  outer loop
    vertex 1.90363345704677 9.307318607483692 0
    vertex 3.44429044772286 8.576790853601917 3.271385949631973
    vertex 0.01479228857474829 9.244914824128603 3.241014102484847
  endloop
endfacet
facet normal 0.906198 -0.416598 -0.0724659
  outer loop
    vertex -8.482991594394774 1.5 11.25021141236847
    vertex -6.563338012021187 5.34804669057798 13.13382334777311
    vertex -8.183113613332338 1.5 15.0002335557642
  endloop
endfacet
facet normal 0.904386 -0.42051 -0.0725041
  outer loop
    vertex -7.882879771792032 1.5 18.75022725614218
    vertex -6.142544407022061 4.960542728833813 20.38797797788254
    vertex -7.582247802219785 1.5 22.50018918936374
  endloop
endfacet
facet normal 0.39254 -0.919467 -0.0221988
  outer loop
    vertex -1.903633457046848 9.307318607483676 0
    vertex -3.284534434823316 8.63862893484208 3.27853605653333
    vertex -5.405152974387287 7.812446564519481 0
  endloop
endfacet
facet normal -0.931603 -0.350831 -0.0950427
  outer loop
    vertex 7.157564903217513 4.537077095710848 13.0312222715464
    vertex 7.601433252186768 4.371186356244183 9.292802506511538
    vertex 8.482991594394774 1.5 11.25021141236847
  endloop
endfacet
facet normal -0.939578 -0.33027 -0.0900814
  outer loop
    vertex 8.782550241553714 1.5 7.500162723154759
    vertex 7.601433252186768 4.371186356244183 9.292802506511538
    vertex 7.99751572495098 4.26196517307923 5.561979990316662
  endloop
endfacet
facet normal 0.406462 -0.903457 -0.136213
  outer loop
    vertex -1.819386011084661 8.49083767435692 10.3736521622854
    vertex -5.153591789107056 6.985464530868688 10.40897092912172
    vertex -3.747086218212447 8.119576310593215 7.083802676690656
  endloop
endfacet
facet normal -0.395829 -0.916851 -0.0519952
  outer loop
    vertex 1.552754006199714 7.5030165085453 23.35395643604782
    vertex 4.482506625443778 6.272317034810571 22.75174810577167
    vertex 3.826141186378707 6.330578642207405 26.72117147216391
  endloop
endfacet
facet normal 0.17797 -0.976174 -0.12414
  outer loop
    vertex 0.01479228857474829 9.244914824128603 3.241014102484847
    vertex -3.284534434823316 8.63862893484208 3.27853605653333
    vertex -1.903633457046848 9.307318607483676 0
  endloop
endfacet
facet normal -0.781678 -0.612683 -0.116613
  outer loop
    vertex 7.157564903217513 4.537077095710848 13.0312222715464
    vertex 7.364296586549217 3.551874675764234 16.82169260890397
    vertex 5.231943936869134 6.295239806047765 16.70162985744945
  endloop
endfacet
facet normal 0.94297 -0.324259 -0.0752528
  outer loop
    vertex -9.081820943301878 1.5 3.750092682918932
    vertex -7.95554755877427 4.303011110464842 5.785104470818858
    vertex -8.78255024155372 1.5 7.50016272315473
  endloop
endfacet
facet normal -0.937796 -0.339008 -0.0749123
  outer loop
    vertex 8.482991594394774 1.5 11.25021141236847
    vertex 7.601433252186768 4.371186356244183 9.292802506511538
    vertex 8.782550241553714 1.5 7.500162723154759
  endloop
endfacet
facet normal -0.721992 -0.691464 -0.0246088
  outer loop
    vertex 8.038537166172217 5.062797668094977 0
    vertex 6.275957194788844 6.787625841483955 3.247312889675779
    vertex 5.405152974387216 7.812446564519532 0
  endloop
endfacet
facet normal -0.707598 -0.698505 -0.106753
  outer loop
    vertex 3.826141186378707 6.330578642207405 26.72117147216391
    vertex 4.482506625443778 6.272317034810571 22.75174810577167
    vertex 6.367347808203814 4.12920610194636 24.28110507324961
  endloop
endfacet
facet normal 0.411335 -0.911379 -0.0138599
  outer loop
    vertex -3.448722289850512 7.709502918167567 13.395946905967
    vertex -5.153591789107056 6.985464530868688 10.40897092912172
    vertex -1.819386011084661 8.49083767435692 10.3736521622854
  endloop
endfacet
facet normal 0.402787 -0.914729 -0.0321613
  outer loop
    vertex -3.700017357526154 7.000056192767136 20.10427201726561
    vertex -4.791582300687857 6.640440472111307 16.66172159051389
    vertex -1.702357931305096 7.993704795588292 16.86159239865035
  endloop
endfacet
facet normal -0.935519 -0.352459 -0.0240298
  outer loop
    vertex 9.38083151964682 1.500000000000122 0
    vertex 8.333593268362977 4.092895676087394 2.739123528446605
    vertex 8.038537166172217 5.062797668094977 0
  endloop
endfacet
facet normal 0.919355 -0.386419 -0.0739392
  outer loop
    vertex -7.281168431350141 1.5 26.25011505603835
    vertex -6.1090023437284 4.093970735865577 27.26821510460739
    vertex -6.979583791413685 1.500000000000036 30
  endloop
endfacet
facet normal -0.939147 -0.341459 -0.0375296
  outer loop
    vertex 8.183113613332338 1.5 15.0002335557642
    vertex 7.364296586549217 3.551874675764234 16.82169260890397
    vertex 7.157564903217513 4.537077095710848 13.0312222715464
  endloop
endfacet
facet normal -0.915935 -0.37231 -0.149826
  outer loop
    vertex 6.268751539652114 4.794436822763754 20.43141113254104
    vertex 7.364296586549217 3.551874675764234 16.82169260890397
    vertex 7.882879771792032 1.5 18.75022725614218
  endloop
endfacet
facet normal -0.919407 -0.386293 -0.0739434
  outer loop
    vertex 6.979583791413722 1.49999999999995 30
    vertex 6.109994689545017 4.092178942995157 27.27041153205735
    vertex 7.281168431350141 1.5 26.25011505603835
  endloop
endfacet
facet normal 0.874345 -0.459105 -0.157302
  outer loop
    vertex -6.979583791413685 1.500000000000036 30
    vertex -6.1090023437284 4.093970735865577 27.26821510460739
    vertex -5.197458655397512 4.893977260551823 30
  endloop
endfacet
facet normal -0.949784 -0.303605 -0.0757302
  outer loop
    vertex 9.081820943301881 1.5 3.750092682918876
    vertex 8.333593268362977 4.092895676087394 2.739123528446605
    vertex 9.38083151964682 1.500000000000122 0
  endloop
endfacet
facet normal -0.874325 -0.459095 -0.157442
  outer loop
    vertex 5.197458655397589 4.893977260551742 30
    vertex 6.109994689545017 4.092178942995157 27.27041153205735
    vertex 6.979583791413722 1.49999999999995 30
  endloop
endfacet
facet normal 0.935186 -0.352334 -0.0359015
  outer loop
    vertex -8.038537166172263 5.062797668094905 0
    vertex -8.205934093065455 4.333546364065101 2.796338255520858
    vertex -9.380831519646847 1.500000000000043 0
  endloop
endfacet
facet normal 0.788254 -0.612694 -0.0571146
  outer loop
    vertex -6.056008058705046 6.973540911153329 3.353192717766429
    vertex -6.200011624511405 6.419011079015779 7.314451724770269
    vertex -7.95554755877427 4.303011110464842 5.785104470818858
  endloop
endfacet
facet normal 0.94524 -0.317555 -0.0753679
  outer loop
    vertex -9.380831519646847 1.500000000000043 0
    vertex -8.205934093065455 4.333546364065101 2.796338255520858
    vertex -9.081820943301878 1.5 3.750092682918932
  endloop
endfacet
facet normal -0.530886 -0.838574 -0.122283
  outer loop
    vertex 5.405152974387216 7.812446564519532 0
    vertex 6.275957194788844 6.787625841483955 3.247312889675779
    vertex 3.44429044772286 8.576790853601917 3.271385949631973
  endloop
endfacet
facet normal 0.685239 -0.719234 -0.114678
  outer loop
    vertex -6.267729580748362 4.277227733096466 24.29311878355363
    vertex -4.241418864826355 6.415020222869659 22.99325855226935
    vertex -3.540384158488342 6.502651801530388 26.63256170318655
  endloop
endfacet
facet normal 0.935746 -0.337895 -0.101022
  outer loop
    vertex -8.78255024155372 1.5 7.50016272315473
    vertex -7.95554755877427 4.303011110464842 5.785104470818858
    vertex -7.468807545177455 4.585914619647707 9.34741510914159
  endloop
endfacet
facet normal 0.63804 -0.769152 -0.0361878
  outer loop
    vertex -3.700017357526154 7.000056192767136 20.10427201726561
    vertex -4.241418864826355 6.415020222869659 22.99325855226935
    vertex -6.142544407022061 4.960542728833813 20.38797797788254
  endloop
endfacet
facet normal 0.380765 -0.923258 -0.051115
  outer loop
    vertex -3.540384158488342 6.502651801530388 26.63256170318655
    vertex -4.241418864826355 6.415020222869659 22.99325855226935
    vertex -1.559133940160205 7.500312785652266 23.37113105754679
  endloop
endfacet
facet normal 0.682184 -0.731055 -0.0135413
  outer loop
    vertex -5.197458655397512 4.893977260551823 30
    vertex -6.1090023437284 4.093970735865577 27.26821510460739
    vertex -3.540384158488342 6.502651801530388 26.63256170318655
  endloop
endfacet
facet normal 0.671008 -0.736991 -0.081196
  outer loop
    vertex -3.540384158488342 6.502651801530388 26.63256170318655
    vertex -6.1090023437284 4.093970735865577 27.26821510460739
    vertex -6.267729580748362 4.277227733096466 24.29311878355363
  endloop
endfacet
facet normal 0.689784 -0.716611 -0.103279
  outer loop
    vertex -6.142544407022061 4.960542728833813 20.38797797788254
    vertex -4.241418864826355 6.415020222869659 22.99325855226935
    vertex -6.267729580748362 4.277227733096466 24.29311878355363
  endloop
endfacet
facet normal -0.634295 -0.77308 0.00410036
  outer loop
    vertex 6.268751539652114 4.794436822763754 20.43141113254104
    vertex 4.482506625443778 6.272317034810571 22.75174810577167
    vertex 3.395710933971766 7.150118799281458 20.13305256362799
  endloop
endfacet
facet normal -0.709633 -0.697107 -0.102286
  outer loop
    vertex 6.367347808203814 4.12920610194636 24.28110507324961
    vertex 4.482506625443778 6.272317034810571 22.75174810577167
    vertex 6.268751539652114 4.794436822763754 20.43141113254104
  endloop
endfacet
facet normal 0.566666 -0.822928 -0.0409823
  outer loop
    vertex -5.153591789107056 6.985464530868688 10.40897092912172
    vertex -6.200011624511405 6.419011079015779 7.314451724770269
    vertex -3.747086218212447 8.119576310593215 7.083802676690656
  endloop
endfacet
facet normal -0.6899 -0.720673 -0.068321
  outer loop
    vertex 6.367347808203814 4.12920610194636 24.28110507324961
    vertex 6.109994689545017 4.092178942995157 27.27041153205735
    vertex 3.826141186378707 6.330578642207405 26.72117147216391
  endloop
endfacet
facet normal -0.791149 -0.608032 -0.0661919
  outer loop
    vertex 7.601433252186768 4.371186356244183 9.292802506511538
    vertex 6.173557675004945 6.441311373184957 7.343315781447366
    vertex 7.99751572495098 4.26196517307923 5.561979990316662
  endloop
endfacet
facet normal 0.404888 -0.905106 -0.129803
  outer loop
    vertex -1.702357931305096 7.993704795588292 16.86159239865035
    vertex -4.791582300687857 6.640440472111307 16.66172159051389
    vertex -3.448722289850512 7.709502918167567 13.395946905967
  endloop
endfacet
facet normal -0.697022 -0.716697 -0.0224985
  outer loop
    vertex 3.826141186378707 6.330578642207405 26.72117147216391
    vertex 6.109994689545017 4.092178942995157 27.27041153205735
    vertex 5.197458655397589 4.893977260551742 30
  endloop
endfacet
facet normal -0.548648 -0.835322 -0.0349574
  outer loop
    vertex 3.400144662661644 8.276595830823307 7.016439079205082
    vertex 6.173557675004945 6.441311373184957 7.343315781447366
    vertex 5.280662677203531 6.906473726409106 10.24182825902736
  endloop
endfacet
facet normal 0.943995 -0.319519 -0.0823484
  outer loop
    vertex -9.081820943301878 1.5 3.750092682918932
    vertex -8.205934093065455 4.333546364065101 2.796338255520858
    vertex -7.95554755877427 4.303011110464842 5.785104470818858
  endloop
endfacet
facet normal 0.919278 -0.386803 -0.0728712
  outer loop
    vertex -6.267729580748362 4.277227733096466 24.29311878355363
    vertex -6.1090023437284 4.093970735865577 27.26821510460739
    vertex -7.281168431350141 1.5 26.25011505603835
  endloop
endfacet
facet normal -0.92007 -0.382654 -0.0839497
  outer loop
    vertex 7.281168431350141 1.5 26.25011505603835
    vertex 6.109994689545017 4.092178942995157 27.27041153205735
    vertex 6.367347808203814 4.12920610194636 24.28110507324961
  endloop
endfacet
facet normal 0.741691 -0.65795 -0.130367
  outer loop
    vertex -7.468807545177455 4.585914619647707 9.34741510914159
    vertex -6.200011624511405 6.419011079015779 7.314451724770269
    vertex -5.153591789107056 6.985464530868688 10.40897092912172
  endloop
endfacet
facet normal 0.781976 -0.612972 -0.113044
  outer loop
    vertex -6.056008058705046 6.973540911153329 3.353192717766429
    vertex -8.205934093065455 4.333546364065101 2.796338255520858
    vertex -8.038537166172263 5.062797668094905 0
  endloop
endfacet
facet normal 0.38631 -0.915423 -0.112983
  outer loop
    vertex -1.559133940160205 7.500312785652266 23.37113105754679
    vertex -4.241418864826355 6.415020222869659 22.99325855226935
    vertex -3.700017357526154 7.000056192767136 20.10427201726561
  endloop
endfacet
facet normal -0.407071 -0.903525 -0.133926
  outer loop
    vertex 3.395710933971766 7.150118799281458 20.13305256362799
    vertex 4.482506625443778 6.272317034810571 22.75174810577167
    vertex 1.552754006199714 7.5030165085453 23.35395643604782
  endloop
endfacet
facet normal -0.799817 -0.587724 -0.121953
  outer loop
    vertex 8.038537166172217 5.062797668094977 0
    vertex 8.333593268362977 4.092895676087394 2.739123528446605
    vertex 6.275957194788844 6.787625841483955 3.247312889675779
  endloop
endfacet
facet normal -0.947459 -0.310753 -0.0758559
  outer loop
    vertex 7.882879771792032 1.5 18.75022725614218
    vertex 7.364296586549217 3.551874675764234 16.82169260890397
    vertex 8.183113613332338 1.5 15.0002335557642
  endloop
endfacet
facet normal -0.755077 -0.642729 -0.129456
  outer loop
    vertex 5.280662677203531 6.906473726409106 10.24182825902736
    vertex 6.173557675004945 6.441311373184957 7.343315781447366
    vertex 7.601433252186768 4.371186356244183 9.292802506511538
  endloop
endfacet
facet normal -0.94616 -0.30972 -0.0940959
  outer loop
    vertex 7.99751572495098 4.26196517307923 5.561979990316662
    vertex 8.333593268362977 4.092895676087394 2.739123528446605
    vertex 9.081820943301881 1.5 3.750092682918876
  endloop
endfacet
facet normal 0.780763 -0.620694 -0.0717505
  outer loop
    vertex -7.95554755877427 4.303011110464842 5.785104470818858
    vertex -8.205934093065455 4.333546364065101 2.796338255520858
    vertex -6.056008058705046 6.973540911153329 3.353192717766429
  endloop
endfacet
facet normal 0.788875 -0.611694 -0.0592106
  outer loop
    vertex -7.95554755877427 4.303011110464842 5.785104470818858
    vertex -6.200011624511405 6.419011079015779 7.314451724770269
    vertex -7.468807545177455 4.585914619647707 9.34741510914159
  endloop
endfacet
facet normal -0.798752 -0.598738 -0.0592358
  outer loop
    vertex 6.275957194788844 6.787625841483955 3.247312889675779
    vertex 8.333593268362977 4.092895676087394 2.739123528446605
    vertex 7.99751572495098 4.26196517307923 5.561979990316662
  endloop
endfacet
facet normal 3.7978e-16 -2.24459e-15 -1
  outer loop
    vertex -1.91670626633049 6.876832627741805 30
    vertex 1.152573062864718 4.230568531787806 30.00000000000001
    vertex -1.771812173916275 3.735768674691514 30.00000000000001
  endloop
endfacet
facet normal -2.1152e-29 -2.68508e-15 -1
  outer loop
    vertex 1.916706266330598 6.876832627741775 30
    vertex 1.152573062864718 4.230568531787806 30.00000000000001
    vertex -1.91670626633049 6.876832627741805 30
  endloop
endfacet
facet normal 0 0 -1
  outer loop
    vertex -3.489791895706833 1.5 30
    vertex -6.979583791413685 1.500000000000036 30
    vertex -5.197458655397512 4.893977260551823 30
  endloop
endfacet
facet normal 0 -0 -1
  outer loop
    vertex 5.197458655397589 4.893977260551742 30
    vertex 6.979583791413722 1.49999999999995 30
    vertex 3.489791895706871 1.5 30
  endloop
endfacet
facet normal 2.49936e-15 1.25754e-15 -1
  outer loop
    vertex -5.197458655397512 4.893977260551823 30
    vertex -1.771812173916275 3.735768674691514 30.00000000000001
    vertex -3.489791895706833 1.5 30
  endloop
endfacet
facet normal -1.91464e-15 9.63346e-16 -1
  outer loop
    vertex 3.489791895706871 1.5 30
    vertex 1.152573062864718 4.230568531787806 30.00000000000001
    vertex 5.197458655397589 4.893977260551742 30
  endloop
endfacet
facet normal -1.3817e-15 -2.2861e-15 -1
  outer loop
    vertex 5.197458655397589 4.893977260551742 30
    vertex 1.152573062864718 4.230568531787806 30.00000000000001
    vertex 1.916706266330598 6.876832627741775 30
  endloop
endfacet
facet normal 1.33011e-15 -2.20075e-15 -1
  outer loop
    vertex -1.91670626633049 6.876832627741805 30
    vertex -1.771812173916275 3.735768674691514 30.00000000000001
    vertex -5.197458655397512 4.893977260551823 30
  endloop
endfacet
facet normal 0 3.17807e-15 -1
  outer loop
    vertex -3.489791895706833 1.5 30
    vertex -1.771812173916275 3.735768674691514 30.00000000000001
    vertex 1.77635683940025e-14 1.5 30
  endloop
endfacet
facet normal 0 2.60218e-15 -1
  outer loop
    vertex 1.77635683940025e-14 1.5 30
    vertex 1.152573062864718 4.230568531787806 30.00000000000001
    vertex 3.489791895706871 1.5 30
  endloop
endfacet
facet normal -4.74146e-16 2.80232e-15 -1
  outer loop
    vertex -1.771812173916275 3.735768674691514 30.00000000000001
    vertex 1.152573062864718 4.230568531787806 30.00000000000001
    vertex 1.77635683940025e-14 1.5 30
  endloop
endfacet
facet normal -1.06806e-15 1 1.70539e-15
  outer loop
    vertex -4.596253351800513 1.50000000000002 9.218201970921104
    vertex -1.385913411307007 1.500000000000018 12.40059285399179
    vertex -0.9423278827955259 1.500000000000025 8.902562527917656
  endloop
endfacet
facet normal -1.07785e-15 1 1.67014e-15
  outer loop
    vertex 1.573706274637787 1.500000000000005 22.28014066062438
    vertex 1.617252730429372 1.499999999999998 26.56262214852534
    vertex 4.25883679169516 1.500000000000004 24.14597154032456
  endloop
endfacet
facet normal -1.09356e-15 1 1.73112e-15
  outer loop
    vertex -5.043314129639032 1.500000000000013 13.42510715545777
    vertex -1.385913411307007 1.500000000000018 12.40059285399179
    vertex -4.596253351800513 1.50000000000002 9.218201970921104
  endloop
endfacet
facet normal -1.09732e-15 1 1.67034e-15
  outer loop
    vertex 1.573706274637787 1.500000000000005 22.28014066062438
    vertex -1.239445156467301 1.499999999999999 23.88834141655345
    vertex 1.617252730429372 1.499999999999998 26.56262214852534
  endloop
endfacet
facet normal -1.03567e-15 1 1.71223e-15
  outer loop
    vertex -4.760829249424833 1.500000000000006 17.32692787845119
    vertex -1.321128411937394 1.500000000000006 19.92620955084846
    vertex -1.59340058601886 1.500000000000012 15.87108658189454
  endloop
endfacet
facet normal -1.07349e-15 1 1.76228e-15
  outer loop
    vertex -4.541138983829344 1.5 20.98870317059995
    vertex -1.321128411937394 1.500000000000006 19.92620955084846
    vertex -4.760829249424833 1.500000000000006 17.32692787845119
  endloop
endfacet
facet normal -1.08657e-15 1 1.6967e-15
  outer loop
    vertex -4.496711923122382 1.499999999999994 24.6814813150484
    vertex -1.239445156467301 1.499999999999999 23.88834141655345
    vertex -4.541138983829344 1.5 20.98870317059995
  endloop
endfacet
facet normal -1.0928e-15 1 1.70378e-15
  outer loop
    vertex -4.541138983829344 1.5 20.98870317059995
    vertex -1.239445156467301 1.499999999999999 23.88834141655345
    vertex -1.321128411937394 1.500000000000006 19.92620955084846
  endloop
endfacet
facet normal -1.10761e-15 1 1.69627e-15
  outer loop
    vertex -4.596253351800513 1.50000000000002 9.218201970921104
    vertex -2.052849835543451 1.500000000000029 5.904697936571671
    vertex -5.684529671612666 1.500000000000026 5.365951672714528
  endloop
endfacet
facet normal -1.06609e-15 1 1.72814e-15
  outer loop
    vertex -0.9423278827955259 1.500000000000025 8.902562527917656
    vertex -2.052849835543451 1.500000000000029 5.904697936571671
    vertex -4.596253351800513 1.50000000000002 9.218201970921104
  endloop
endfacet
facet normal -1.095e-15 1 1.72599e-15
  outer loop
    vertex -1.59340058601886 1.500000000000012 15.87108658189454
    vertex -1.385913411307007 1.500000000000018 12.40059285399179
    vertex -5.043314129639032 1.500000000000013 13.42510715545777
  endloop
endfacet
facet normal -1.05517e-15 1 1.66981e-15
  outer loop
    vertex -5.043314129639032 1.500000000000013 13.42510715545777
    vertex -4.760829249424833 1.500000000000006 17.32692787845119
    vertex -1.59340058601886 1.500000000000012 15.87108658189454
  endloop
endfacet
facet normal -1.10995e-15 1 1.70659e-15
  outer loop
    vertex 1.939646991066784 1.500000000000032 6.550040599541096
    vertex 3.644796779323584 1.50000000000004 2.975094997078477
    vertex 0.06237451780552596 1.500000000000036 3.117210008295542
  endloop
endfacet
facet normal -1.1101e-15 1 1.70667e-15
  outer loop
    vertex 0.06237451780552596 1.500000000000036 3.117210008295542
    vertex -2.052849835543451 1.500000000000029 5.904697936571671
    vertex 1.939646991066784 1.500000000000032 6.550040599541096
  endloop
endfacet
facet normal -1.06653e-15 1 1.7273e-15
  outer loop
    vertex 5.874875575538231 1.500000000000038 5.509017671750602
    vertex 3.644796779323584 1.50000000000004 2.975094997078477
    vertex 1.939646991066784 1.500000000000032 6.550040599541096
  endloop
endfacet
facet normal -1.13355e-15 1 1.70905e-15
  outer loop
    vertex 1.617252730429372 1.499999999999998 26.56262214852534
    vertex -1.239445156467301 1.499999999999999 23.88834141655345
    vertex -1.81881744099468 1.499999999999993 27.01198293967015
  endloop
endfacet
facet normal -1.11659e-15 1 1.74684e-15
  outer loop
    vertex 1.939646991066784 1.500000000000032 6.550040599541096
    vertex -2.052849835543451 1.500000000000029 5.904697936571671
    vertex -0.9423278827955259 1.500000000000025 8.902562527917656
  endloop
endfacet
facet normal 2.31571e-15 1 1.97788e-15
  outer loop
    vertex 7.582247802219785 1.5 22.50018918936374
    vertex 4.506378054168319 1.500000000000011 20.3759706906669
    vertex 4.25883679169516 1.500000000000004 24.14597154032456
  endloop
endfacet
facet normal -1.07654e-15 1 1.68945e-15
  outer loop
    vertex 5.874875575538231 1.500000000000038 5.509017671750602
    vertex 1.939646991066784 1.500000000000032 6.550040599541096
    vertex 5.343742006737723 1.500000000000032 9.113468772773036
  endloop
endfacet
facet normal 9.52597e-15 1 7.60946e-16
  outer loop
    vertex 8.782550241553714 1.5 7.500162723154759
    vertex 5.343742006737723 1.500000000000032 9.113468772773036
    vertex 8.482991594394774 1.5 11.25021141236847
  endloop
endfacet
facet normal 1.39157e-15 1 1.11729e-16
  outer loop
    vertex 7.582247802219785 1.5 22.50018918936374
    vertex 4.25883679169516 1.500000000000004 24.14597154032456
    vertex 7.281168431350141 1.5 26.25011505603835
  endloop
endfacet
facet normal 2.05992e-15 1 -1.6539e-16
  outer loop
    vertex -7.281168431350141 1.5 26.25011505603835
    vertex -4.496711923122382 1.499999999999994 24.6814813150484
    vertex -7.582247802219785 1.5 22.50018918936374
  endloop
endfacet
facet normal 7.59237e-16 1 1.67449e-15
  outer loop
    vertex -7.582247802219785 1.5 22.50018918936374
    vertex -4.496711923122382 1.499999999999994 24.6814813150484
    vertex -4.541138983829344 1.5 20.98870317059995
  endloop
endfacet
facet normal -1.13428e-15 1 1.75135e-15
  outer loop
    vertex 4.506378054168319 1.500000000000011 20.3759706906669
    vertex 1.573706274637787 1.500000000000005 22.28014066062438
    vertex 4.25883679169516 1.500000000000004 24.14597154032456
  endloop
endfacet
facet normal 1.07813e-14 1 3.43677e-15
  outer loop
    vertex 5.874875575538231 1.500000000000038 5.509017671750602
    vertex 5.343742006737723 1.500000000000032 9.113468772773036
    vertex 8.782550241553714 1.5 7.500162723154759
  endloop
endfacet
facet normal 8.39043e-15 1 2.42925e-15
  outer loop
    vertex 8.482991594394774 1.5 11.25021141236847
    vertex 5.343742006737723 1.500000000000032 9.113468772773036
    vertex 5.07440135308404 1.500000000000025 12.87729081953768
  endloop
endfacet
facet normal -1.08787e-15 1 1.70188e-15
  outer loop
    vertex 5.07440135308404 1.500000000000025 12.87729081953768
    vertex 1.97251436542225 1.500000000000025 10.76403148728369
    vertex 1.727821850308463 1.500000000000018 14.52173442309859
  endloop
endfacet
facet normal -1.09006e-15 1 1.69743e-15
  outer loop
    vertex 5.07440135308404 1.500000000000025 12.87729081953768
    vertex 1.727821850308463 1.500000000000018 14.52173442309859
    vertex 4.820118272672946 1.500000000000018 16.6383722485044
  endloop
endfacet
facet normal 3.48851e-15 1 2.79671e-16
  outer loop
    vertex 7.882879771792032 1.5 18.75022725614218
    vertex 4.506378054168319 1.500000000000011 20.3759706906669
    vertex 7.582247802219785 1.5 22.50018918936374
  endloop
endfacet
facet normal 6.42233e-15 1 2.20533e-15
  outer loop
    vertex 5.07440135308404 1.500000000000025 12.87729081953768
    vertex 4.820118272672946 1.500000000000018 16.6383722485044
    vertex 8.183113613332338 1.5 15.0002335557642
  endloop
endfacet
facet normal 4.38939e-15 1 2.1507e-15
  outer loop
    vertex 7.882879771792032 1.5 18.75022725614218
    vertex 4.820118272672946 1.500000000000018 16.6383722485044
    vertex 4.506378054168319 1.500000000000011 20.3759706906669
  endloop
endfacet
facet normal -1.11952e-15 1 1.68828e-15
  outer loop
    vertex 4.506378054168319 1.500000000000011 20.3759706906669
    vertex 4.820118272672946 1.500000000000018 16.6383722485044
    vertex 1.589560032900371 1.500000000000012 18.31027205711592
  endloop
endfacet
facet normal -1.10414e-15 1 1.71799e-15
  outer loop
    vertex 4.820118272672946 1.500000000000018 16.6383722485044
    vertex 1.727821850308463 1.500000000000018 14.52173442309859
    vertex 1.589560032900371 1.500000000000012 18.31027205711592
  endloop
endfacet
facet normal -1.11977e-15 1 1.7487e-15
  outer loop
    vertex 5.07440135308404 1.500000000000025 12.87729081953768
    vertex 5.343742006737723 1.500000000000032 9.113468772773036
    vertex 1.97251436542225 1.500000000000025 10.76403148728369
  endloop
endfacet
facet normal -1.12032e-15 1 1.74758e-15
  outer loop
    vertex 5.343742006737723 1.500000000000032 9.113468772773036
    vertex 1.939646991066784 1.500000000000032 6.550040599541096
    vertex 1.97251436542225 1.500000000000025 10.76403148728369
  endloop
endfacet
facet normal 5.56513e-15 1 4.45558e-16
  outer loop
    vertex 8.183113613332338 1.5 15.0002335557642
    vertex 4.820118272672946 1.500000000000018 16.6383722485044
    vertex 7.882879771792032 1.5 18.75022725614218
  endloop
endfacet
facet normal -1.11601e-15 1 1.74755e-15
  outer loop
    vertex 1.939646991066784 1.500000000000032 6.550040599541096
    vertex -0.9423278827955259 1.500000000000025 8.902562527917656
    vertex 1.97251436542225 1.500000000000025 10.76403148728369
  endloop
endfacet
facet normal 1.24542e-14 1 9.93893e-16
  outer loop
    vertex 9.081820943301881 1.5 3.750092682918876
    vertex 5.874875575538231 1.500000000000038 5.509017671750602
    vertex 8.782550241553714 1.5 7.500162723154759
  endloop
endfacet
facet normal -7.88081e-15 1 6.28921e-16
  outer loop
    vertex -8.78255024155372 1.5 7.50016272315473
    vertex -5.684529671612666 1.500000000000026 5.365951672714528
    vertex -9.081820943301878 1.5 3.750092682918932
  endloop
endfacet
facet normal -6.16188e-15 1 3.12412e-15
  outer loop
    vertex -8.78255024155372 1.5 7.50016272315473
    vertex -4.596253351800513 1.50000000000002 9.218201970921104
    vertex -5.684529671612666 1.500000000000026 5.365951672714528
  endloop
endfacet
facet normal -4.54242e-15 1 1.36462e-15
  outer loop
    vertex -5.043314129639032 1.500000000000013 13.42510715545777
    vertex -4.596253351800513 1.50000000000002 9.218201970921104
    vertex -8.482991594394774 1.5 11.25021141236847
  endloop
endfacet
facet normal -7.02165e-17 1 5.62921e-18
  outer loop
    vertex -7.582247802219785 1.5 22.50018918936374
    vertex -4.541138983829344 1.5 20.98870317059995
    vertex -7.882879771792032 1.5 18.75022725614218
  endloop
endfacet
facet normal 7.5178e-15 1 6.01176e-16
  outer loop
    vertex 8.482991594394774 1.5 11.25021141236847
    vertex 5.07440135308404 1.500000000000025 12.87729081953768
    vertex 8.183113613332338 1.5 15.0002335557642
  endloop
endfacet
facet normal -3.87553e-15 1 3.09914e-16
  outer loop
    vertex -8.183113613332338 1.5 15.0002335557642
    vertex -5.043314129639032 1.500000000000013 13.42510715545777
    vertex -8.482991594394774 1.5 11.25021141236847
  endloop
endfacet
facet normal -5.04515e-15 1 4.03013e-16
  outer loop
    vertex -8.482991594394774 1.5 11.25021141236847
    vertex -4.596253351800513 1.50000000000002 9.218201970921104
    vertex -8.78255024155372 1.5 7.50016272315473
  endloop
endfacet
facet normal -1.10718e-15 1 1.71788e-15
  outer loop
    vertex 1.727821850308463 1.500000000000018 14.52173442309859
    vertex -1.59340058601886 1.500000000000012 15.87108658189454
    vertex 1.589560032900371 1.500000000000012 18.31027205711592
  endloop
endfacet
facet normal -4.26061e-15 1 1.50439e-14
  outer loop
    vertex -1.876166303929379 1.500000000000075 0
    vertex 0.06237451780552596 1.500000000000036 3.117210008295542
    vertex 1.876166303929354 1.500000000000091 0
  endloop
endfacet
facet normal -1.14858e-15 1 1.72932e-15
  outer loop
    vertex 4.506378054168319 1.500000000000011 20.3759706906669
    vertex 1.589560032900371 1.500000000000012 18.31027205711592
    vertex 1.573706274637787 1.500000000000005 22.28014066062438
  endloop
endfacet
facet normal -1.1041e-15 1 1.72545e-15
  outer loop
    vertex 1.727821850308463 1.500000000000018 14.52173442309859
    vertex -1.385913411307007 1.500000000000018 12.40059285399179
    vertex -1.59340058601886 1.500000000000012 15.87108658189454
  endloop
endfacet
facet normal -1.08752e-15 1 1.70293e-15
  outer loop
    vertex -0.9423278827955259 1.500000000000025 8.902562527917656
    vertex -1.385913411307007 1.500000000000018 12.40059285399179
    vertex 1.97251436542225 1.500000000000025 10.76403148728369
  endloop
endfacet
facet normal -1.08803e-15 1 1.70187e-15
  outer loop
    vertex 1.97251436542225 1.500000000000025 10.76403148728369
    vertex -1.385913411307007 1.500000000000018 12.40059285399179
    vertex 1.727821850308463 1.500000000000018 14.52173442309859
  endloop
endfacet
facet normal 0 1 -2.37797e-15
  outer loop
    vertex 1.77635683940025e-14 1.5 30
    vertex -1.81881744099468 1.499999999999993 27.01198293967015
    vertex -3.489791895706833 1.5 30
  endloop
endfacet
facet normal 0 1 -7.10568e-16
  outer loop
    vertex 3.489791895706871 1.5 30
    vertex 1.617252730429372 1.499999999999998 26.56262214852534
    vertex 1.77635683940025e-14 1.5 30
  endloop
endfacet
facet normal -1.54505e-15 1 -1.4375e-15
  outer loop
    vertex 1.77635683940025e-14 1.5 30
    vertex 1.617252730429372 1.499999999999998 26.56262214852534
    vertex -1.81881744099468 1.499999999999993 27.01198293967015
  endloop
endfacet
facet normal -3.11838e-15 1 1.81919e-15
  outer loop
    vertex -8.183113613332338 1.5 15.0002335557642
    vertex -4.760829249424833 1.500000000000006 17.32692787845119
    vertex -5.043314129639032 1.500000000000013 13.42510715545777
  endloop
endfacet
facet normal -1.25418e-15 1 1.77312e-15
  outer loop
    vertex -4.541138983829344 1.5 20.98870317059995
    vertex -4.760829249424833 1.500000000000006 17.32692787845119
    vertex -7.882879771792032 1.5 18.75022725614218
  endloop
endfacet
facet normal -4.20143e-15 1 1.24051e-14
  outer loop
    vertex -5.628498911788112 1.500000000000059 0
    vertex -3.577697546106507 1.500000000000033 2.806714805789415
    vertex -1.876166303929379 1.500000000000075 0
  endloop
endfacet
facet normal -4.20143e-15 1 1.94397e-14
  outer loop
    vertex 1.876166303929354 1.500000000000091 0
    vertex 3.644796779323584 1.50000000000004 2.975094997078477
    vertex 5.628498911788087 1.500000000000106 0
  endloop
endfacet
facet normal -1.10649e-15 1 1.71699e-15
  outer loop
    vertex -1.59340058601886 1.500000000000012 15.87108658189454
    vertex -1.321128411937394 1.500000000000006 19.92620955084846
    vertex 1.589560032900371 1.500000000000012 18.31027205711592
  endloop
endfacet
facet normal -1.07837e-15 1 1.70348e-15
  outer loop
    vertex -1.321128411937394 1.500000000000006 19.92620955084846
    vertex -1.239445156467301 1.499999999999999 23.88834141655345
    vertex 1.573706274637787 1.500000000000005 22.28014066062438
  endloop
endfacet
facet normal -6.43126e-15 1 1.19404e-14
  outer loop
    vertex -9.081820943301878 1.5 3.750092682918932
    vertex -6.487218375813543 1.50000000000003 2.674301702883625
    vertex -9.380831519646847 1.500000000000043 0
  endloop
endfacet
facet normal 2.64316e-15 1 3.28357e-14
  outer loop
    vertex 9.38083151964682 1.500000000000122 0
    vertex 6.548376843667076 1.500000000000044 2.615091833939946
    vertex 9.081820943301881 1.5 3.750092682918876
  endloop
endfacet
facet normal -4.26061e-15 1 9.59175e-15
  outer loop
    vertex -9.380831519646847 1.500000000000043 0
    vertex -6.487218375813543 1.50000000000003 2.674301702883625
    vertex -5.628498911788112 1.500000000000059 0
  endloop
endfacet
facet normal -4.26061e-15 1 2.53581e-14
  outer loop
    vertex 5.628498911788087 1.500000000000106 0
    vertex 6.548376843667076 1.500000000000044 2.615091833939946
    vertex 9.38083151964682 1.500000000000122 0
  endloop
endfacet
facet normal 1.02381e-14 1 -1.0416e-14
  outer loop
    vertex -6.979583791413685 1.500000000000036 30
    vertex -4.813214696517547 1.499999999999989 27.58871586215138
    vertex -7.281168431350141 1.5 26.25011505603835
  endloop
endfacet
facet normal 5.40574e-15 1 1.38763e-14
  outer loop
    vertex 7.281168431350141 1.5 26.25011505603835
    vertex 4.608374731756705 1.499999999999999 27.33935360809361
    vertex 6.979583791413722 1.49999999999995 30
  endloop
endfacet
facet normal -1.98989e-15 1 1.59316e-16
  outer loop
    vertex -7.882879771792032 1.5 18.75022725614218
    vertex -4.760829249424833 1.500000000000006 17.32692787845119
    vertex -8.183113613332338 1.5 15.0002335557642
  endloop
endfacet
facet normal 1.03076e-14 1 -1.03536e-14
  outer loop
    vertex -3.489791895706833 1.5 30
    vertex -4.813214696517547 1.499999999999989 27.58871586215138
    vertex -6.979583791413685 1.500000000000036 30
  endloop
endfacet
facet normal 1.44433e-14 1 5.82186e-15
  outer loop
    vertex 6.979583791413722 1.49999999999995 30
    vertex 4.608374731756705 1.499999999999999 27.33935360809361
    vertex 3.489791895706871 1.5 30
  endloop
endfacet
facet normal -2.08271e-15 1 1.36895e-14
  outer loop
    vertex -1.876166303929379 1.500000000000075 0
    vertex -3.577697546106507 1.500000000000033 2.806714805789415
    vertex 0.06237451780552596 1.500000000000036 3.117210008295542
  endloop
endfacet
facet normal -4.93913e-16 1 1.72356e-14
  outer loop
    vertex 0.06237451780552596 1.500000000000036 3.117210008295542
    vertex 3.644796779323584 1.50000000000004 2.975094997078477
    vertex 1.876166303929354 1.500000000000091 0
  endloop
endfacet
facet normal -1.07848e-15 1 1.71563e-15
  outer loop
    vertex -4.496711923122382 1.499999999999994 24.6814813150484
    vertex -4.813214696517547 1.499999999999989 27.58871586215138
    vertex -1.81881744099468 1.499999999999993 27.01198293967015
  endloop
endfacet
facet normal -1.03869e-15 1 1.71295e-15
  outer loop
    vertex 1.617252730429372 1.499999999999998 26.56262214852534
    vertex 4.608374731756705 1.499999999999999 27.33935360809361
    vertex 4.25883679169516 1.500000000000004 24.14597154032456
  endloop
endfacet
facet normal -1.11839e-15 1 1.76894e-15
  outer loop
    vertex -5.684529671612666 1.500000000000026 5.365951672714528
    vertex -2.052849835543451 1.500000000000029 5.904697936571671
    vertex -3.577697546106507 1.500000000000033 2.806714805789415
  endloop
endfacet
facet normal -1.0812e-15 1 1.71876e-15
  outer loop
    vertex -1.81881744099468 1.499999999999993 27.01198293967015
    vertex -1.239445156467301 1.499999999999999 23.88834141655345
    vertex -4.496711923122382 1.499999999999994 24.6814813150484
  endloop
endfacet
facet normal -1.09954e-15 1 1.72952e-15
  outer loop
    vertex 1.589560032900371 1.500000000000012 18.31027205711592
    vertex -1.321128411937394 1.500000000000006 19.92620955084846
    vertex 1.573706274637787 1.500000000000005 22.28014066062438
  endloop
endfacet
facet normal 3.3939e-15 1 2.20252e-15
  outer loop
    vertex -7.281168431350141 1.5 26.25011505603835
    vertex -4.813214696517547 1.499999999999989 27.58871586215138
    vertex -4.496711923122382 1.499999999999994 24.6814813150484
  endloop
endfacet
facet normal 3.85325e-16 1 1.55708e-15
  outer loop
    vertex 4.25883679169516 1.500000000000004 24.14597154032456
    vertex 4.608374731756705 1.499999999999999 27.33935360809361
    vertex 7.281168431350141 1.5 26.25011505603835
  endloop
endfacet
facet normal -1.54464e-15 1 1.04638e-14
  outer loop
    vertex -5.628498911788112 1.500000000000059 0
    vertex -6.487218375813543 1.50000000000003 2.674301702883625
    vertex -3.577697546106507 1.500000000000033 2.806714805789415
  endloop
endfacet
facet normal 1.5889e-15 1 2.33005e-14
  outer loop
    vertex 3.644796779323584 1.50000000000004 2.975094997078477
    vertex 6.548376843667076 1.500000000000044 2.615091833939946
    vertex 5.628498911788087 1.500000000000106 0
  endloop
endfacet
facet normal -2.09228e-15 1 -3.54803e-15
  outer loop
    vertex -1.81881744099468 1.499999999999993 27.01198293967015
    vertex -4.813214696517547 1.499999999999989 27.58871586215138
    vertex -3.489791895706833 1.5 30
  endloop
endfacet
facet normal -4.76807e-16 1 -4.50824e-16
  outer loop
    vertex 3.489791895706871 1.5 30
    vertex 4.608374731756705 1.499999999999999 27.33935360809361
    vertex 1.617252730429372 1.499999999999998 26.56262214852534
  endloop
endfacet
facet normal 1.49059e-14 1 5.46396e-15
  outer loop
    vertex 9.081820943301881 1.5 3.750092682918876
    vertex 6.548376843667076 1.500000000000044 2.615091833939946
    vertex 5.874875575538231 1.500000000000038 5.509017671750602
  endloop
endfacet
facet normal -9.61208e-15 1 4.26886e-15
  outer loop
    vertex -5.684529671612666 1.500000000000026 5.365951672714528
    vertex -6.487218375813543 1.50000000000003 2.674301702883625
    vertex -9.081820943301878 1.5 3.750092682918932
  endloop
endfacet
facet normal -1.06359e-15 1 1.74196e-15
  outer loop
    vertex -3.577697546106507 1.500000000000033 2.806714805789415
    vertex -2.052849835543451 1.500000000000029 5.904697936571671
    vertex 0.06237451780552596 1.500000000000036 3.117210008295542
  endloop
endfacet
facet normal -1.14783e-15 1 1.7447e-15
  outer loop
    vertex -3.577697546106507 1.500000000000033 2.806714805789415
    vertex -6.487218375813543 1.50000000000003 2.674301702883625
    vertex -5.684529671612666 1.500000000000026 5.365951672714528
  endloop
endfacet
facet normal -1.08397e-15 1 1.74265e-15
  outer loop
    vertex 5.874875575538231 1.500000000000038 5.509017671750602
    vertex 6.548376843667076 1.500000000000044 2.615091833939946
    vertex 3.644796779323584 1.50000000000004 2.975094997078477
  endloop
endfacet
endsolid Created by Gmsh
