# vtk DataFile Version 2.0
whisker_body, Created by Gmsh 4.13.1 
ASCII
DATASET UNSTRUCTURED_GRID
POINTS 580 double
9.5 0 0
7.768562449858393 0 22
12 0 0
4.916846385784335 0 90
9.211427074976399 0 3.666666666666667
8.922854149952798 0 7.333333333333334
8.634281224929197 0 11
8.345708299905596 0 14.66666666666667
8.057135374881994 0 18.33333333333333
8.678681847604707 3.863998109220104 0
6.356740760409149 7.059875842035249 0
2.935661446561997 9.03503690480396 0
-0.9930204010427108 9.447958005998597 0
-4.750000000000005 8.227241335952163 0
-7.685661446562003 5.583959896778492 0
-9.292402206971154 1.975161062768714 0
-9.292402206971154 -1.975161062768711 0
-7.685661446561999 -5.583959896778497 0
-4.749999999999989 -8.227241335952172 0
-0.9930204010426985 -9.447958005998597 0
2.935661446562007 -9.035036904803956 0
6.356740760409149 -7.059875842035249 0
8.678681847604709 -3.863998109220101 0
6.878720431890375 3.610230983918306 22
4.413046460543966 6.393401557420761 22
0.9363967280620796 7.711920882959348 22
-2.754770210014928 7.263732072933593 22
-5.814852491557433 5.151509782459716 22
-7.542822143853293 1.859138683247231 22
-7.54282214385329 -1.859138683247243 22
-5.814852491557425 -5.151509782459725 22
-2.754770210014915 -7.263732072933598 22
0.9363967280620914 -7.711920882959346 22
4.413046460543974 -6.393401557420757 22
6.878720431890378 -3.610230983918301 22
11.34980690040761 3.896393630456207 0
9.469686112756717 7.370552552276022 0
6.563377897469113 10.04599773915035 0
2.945825845689581 11.63280319127197 0
-0.9909521456679979 11.95901391608004 0
-4.820345095835646 10.98927991986068 0
-8.127378859508902 8.82868692807757 0
-10.55368501447787 5.71136871644487 0
-11.83633564083267 1.975135083368787 0
-11.83633564083267 -1.975135083368821 0
-10.55368501447786 -5.711368716444897 0
-8.12737885950888 -8.828686928077589 0
-4.820345095835619 -10.9892799198607 0
-0.9909521456679715 -11.95901391608004 0
2.945825845689616 -11.63280319127196 0
6.563377897469155 -10.04599773915032 0
9.469686112756747 -7.370552552275983 0
11.34980690040762 -3.896393630456205 0
3.476735421440674 3.476735421440667 90
1.012690292828946e-14 4.916846385784335 90
-3.476735421440661 3.47673542144068 90
-4.916846385784335 1.588676900374471e-14 90
-3.476735421440683 -3.476735421440658 90
-1.400432058674011e-14 -4.916846385784335 90
3.476735421440664 -3.476735421440678 90
11.69203679938193 0 3.91304347826087
11.38407359876386 0 7.826086956521739
11.07611039814578 0 11.73913043478261
10.76814719752771 0 15.65217391304348
10.46018399690964 0 19.56521739130435
10.15222079629157 0 23.47826086956522
9.844257595673493 0 27.39130434782609
9.536294395055421 0 31.30434782608696
9.228331194437349 0 35.21739130434783
8.920367993819276 0 39.1304347826087
8.612404793201204 0 43.04347826086957
8.304441592583132 0 46.95652173913044
7.996478391965059 0 50.8695652173913
7.688515191346986 0 54.78260869565218
7.380551990728914 0 58.69565217391305
7.072588790110841 0 62.60869565217391
6.764625589492769 0 66.52173913043478
6.456662388874697 0 70.43478260869566
6.148699188256625 0 74.34782608695652
5.840735987638553 0 78.26086956521739
5.532772787020479 0 82.17391304347827
5.224809586402407 0 86.08695652173914
-8.019202998645017 -6.140413918190689e-15 18.81530987192997
-4.555426520411015 6.599674685210872 18.81530987192997
-4.670604570641141 -6.539914621695591 18.59576932115223
1.183457643015521 -9.152563323731497 3.446447322115584
1.271144884001677 9.16692087733294 3.117672544201345
7.896287091541422 3.129076059098483 12.78660752628079
7.896287091538525 -3.129076059106641 12.78660752627682
-8.548178706478772 3.44999840485115 3.581547899547511
-6.635337906840332 -6.412622474018394 3.460595715318488
2.843648573505669 7.49808505712468 18.81530987192997
2.843648573505679 -7.498085057124676 18.81530987192997
8.511209064687488 -3.136050843526141 5.456247238310931
8.511209064688792 3.136050843522277 5.456247238312347
6.002459636251714 5.317715209434045 18.81530987192997
4.279037372742715 7.083950671890931 15.55213209121292
0.8592440723336079 8.229626141792293 15.57322248431461
3.127293797123853 7.942945047356444 12.24353696861039
-0.4801966387022234 8.5275247187835 12.18481472185756
1.738856793608674 8.617355890735578 9.008146671191135
-2.19475731499887 8.531052176915981 8.781913168749638
-4.145189442392318 7.493608482246207 11.8969634840995
-5.462646237110254 6.944664966252308 8.441248848375121
-7.007303218250244 4.98104233912808 11.47025023657939
5.603414720789066 6.766765158138205 9.076878876141118
-4.232950190284756 8.008503353993014 5.61149293814568
-7.989324269605013 3.866444360289089 7.932022804608897
-8.490096654024068 1.644531258524737 10.82692043756454
-8.921527804138007 0.3582705572549505 7.258818206791636
-8.388554816073734 -2.294315545621043 10.20751898028623
-7.809148077772539 3.010364030103116 14.36697947607486
-8.165118565657593 -3.751007982892738 6.537333973213584
-6.730929109428144 -5.602928969343723 9.431155330017075
-7.284825604931553 -4.334303745022896 13.00193691265145
-4.633985606888425 -7.181210938060421 12.11465936599465
-3.78228318183489 -7.981920467975351 8.478756099158758
-1.141577331547092 -8.55081966834407 11.09650319705188
-2.317106466764654 -7.991141095806209 14.98956600105834
1.672467225382492 -8.259033916197334 13.6379352287378
2.538336298806557 -8.337225993142873 9.973449702981171
5.01607970548213 -6.887024188723117 12.45076992099641
5.5571026387203 -6.839601213035801 8.734522160093963
-1.079247643692516 -7.952353779414076 18.73842117029409
-0.9666081077502116 7.960733979948633 18.81530987192997
-2.784997754230025 7.794144704900852 15.54262422210986
5.923128934823945 -5.414083356739126 18.74550748363466
-7.185442728697041 -3.570490271644139 18.75878266555752
-8.062984125265903 -1.85932445389308 15.57034047283147
-7.190755949743244 3.593420780987121 18.56840970097856
-9.229286067268703 -0.05572596721127418 3.437609041535019
7.551570836119835 4.486068741228423 9.103154792845261
8.262895460897266 -2.961302691149943 9.180052859202522
3.387216532284443 -8.341969799893256 6.309559450190347
6.408761221726599 -6.469232088800321 5.003490095328599
-0.1846790984881958 -8.908234611380465 7.494771093137606
-3.027226792631214 -8.640568141255402 4.377051874323
7.730424099791095 -2.750861153726014 16.4509201222678
7.586710572581371 3.125253380764704 16.45193275073708
3.620665478500457 8.274468812565386 5.947187074379555
-5.717452029708424 5.991047654020806 15.48353272996858
6.459056407296928 6.315752922698034 5.924615658540229
4.136208061026358 -7.135393699147283 15.91390201820949
-6.331528245522899 6.741371941652583 3.195889846939475
-5.158900900276996 -6.499397257492858 15.27314963347432
-8.462882230871445 -3.767917929571865 3.001486230665057
5.919055149238245 6.144857080933136 12.30000946825917
7.483484234533158 5.476709367738593 2.878585966387476
4.625955726055898 -8.030521142906926 2.95269819636864
4.826003369464795 7.923535201480464 2.826642739821922
-0.1460960459094096 8.992863328865386 6.428704636779591
-5.934770370501128 -6.743711075301092 6.565678216595176
0.9719949159790002 -8.134579135513615 16.6140640536656
6.491065228057627 -5.248358616525582 14.64508846623887
-2.80436765655091 8.864007720812518 2.578743299320195
7.512356109827619 2.68624529873459 19.336515072807
7.513973971266935 -2.680185077832117 19.34305396618623
7.535737901639546 -5.475034065443012 2.354659135472868
-8.453820369115618 -0.8107852992748262 12.80008337419672
6.911144016084999 -5.182419879609489 10.94808310427395
-6.917510952350622 5.80589071077411 5.958250678437527
8.900012696738489 -2.66939377577204 2.6465655330965
7.369387953301763 -5.022008721722615 7.396630854842091
8.917775985340196 2.622159099945823 2.601066198390367
6.472283347441337 5.230868262430434 14.9703899043411
-6.991361796056617 -4.376866736630825 15.90308613001701
-8.189390305386695 0.7465526256065169 16.22140009143912
-4.365560402890313 -0.02103332095592873 22
4.197089695271448 -1.03448969904404 22
-0.4859190974945484 -4.528548297567212 22
-0.5210438458022026 4.29118213996256 22
3.235587026498743 2.866479974033483 22
4.197089695271447 -3.718297008297931 22
1.620209352381557 -2.472494792817983 22
-1.341196794439194 -1.188196676835496 22
0.8787721856520261 0.6936152643787654 22
-3.384609786437291 -3.388173471299381 22
-1.962585617248059 1.305305397595029 22
-3.826939118561038 3.308305792540366 22
5.51998990087974 1.360555314726937 22
2.015996592325646 5.315746138594037 22
1.988359580588028 -5.242873327704467 22
-10.56436892390191 -7.938094626069869e-15 0
0.9743786863852381 -10.51870300453864 0
0.9743786863852173 10.51870300453864 0
5.716980593624634 -3.328109233970483 68.42103667344134
8.786540723377964 3.299035478523078 33.22083073714131
7.441782597214381 -3.324961142818976 48.90875898041639
9.071504544990017 -3.410508926409113 29.33319558118374
5.401195920060798 3.261651789176342 72.30314819219737
9.749158709010203 3.353034939562597 21.47789884144554
-11.09527489538307 3.809012682760124 3.419408766471423
-6.288710416120559 -9.871373019480705 3.756548685064529
10.07327899864523 -3.355695537491446 17.56612695366508
-2.879762434608167 11.37192468062311 3.419408766471418
-4.769669162408974 -1.939704282505346 87.05021404883644
5.020334099809054 -3.291775537788414 76.19537225846842
4.677600194425406 3.245052061619983 80.13796914691706
4.712243512000855 -10.74283313214681 3.41940876647142
6.422249044229519 -3.323595188621916 60.59219442990961
8.111539840237395 -3.335203565041361 41.03541898028804
6.088984370403172 3.295834611060506 64.49992465939698
6.801256627293292 3.254247543367081 56.67336474816921
7.45256228586219 3.311430526583626 48.85361858863952
8.122824354904379 3.310309223329537 41.0225538875324
10.38257026038666 3.404376777225371 13.64060837953971
7.945113376504878 8.630693833987415 3.419408766471512
-11.09527489538304 -3.809012682760148 3.419408766471706
10.71886229871806 -3.360370264523445 9.742374045642428
-2.126875078195381 4.720087125617858 86.69260512948058
4.311926756886884 -3.226424223996101 84.04647073103104
10.31700692552853 -5.583284939902463 3.41940876647138
11.08398570125286 3.178460198736792 5.962853411529511
6.067417898030437 -3.32934626076332 64.53677325643032
7.765166913722355 -3.350321649835772 45.01686388351295
9.097838897271011 3.34692504626865 29.30120027615035
7.212718061938229 6.254418330840584 31.17108754675774
7.555174322190355 6.327459554841324 27.25714383681504
4.772158905674766 8.462817191169581 29.02612467414263
4.378348164914823 8.327277757517868 32.93244095988123
5.20641705646671 8.566545286911108 25.09991823577932
1.793474247429333 9.727105197807674 26.79658649531448
2.218940038848779 9.953722456356049 22.89590710493802
-1.376873976152494 9.97842242030368 24.48525579935913
-0.962192882033422 10.33480089788298 20.59046323422586
-4.417853434966172 9.26126358979181 22.09589732427041
-4.819488807116537 8.711759242318948 25.97130032496412
-7.343174045429897 7.008498359257679 23.49474056984497
-7.580384058897461 6.285221794538481 27.35463521315781
-9.278161130985012 3.85911961039192 24.79317066280368
-9.274872084886992 2.996146017585407 28.62959906053607
5.654107041277709 -6.092667378382069 46.86034685005247
-9.22400797474268 4.697195839700219 20.95083094950797
-10.19840311237814 1.083718536090996 22.16189080970231
-4.044052579665262 9.762505389202429 18.20836189512272
-10.3714135834185 1.970670871941558 18.33534566177902
-10.31542130751347 -1.780602567427536 19.46624658344652
-9.811317139926986 -2.673312424895755 23.26507190422631
-8.924151056642597 -5.316012539456312 20.48856850344376
-8.069835054246257 -6.058572731132291 24.25598093560065
-6.339939857125023 -8.13758342965787 21.40017688494263
-0.5109828191902969 10.67375005894904 16.69628134320109
-5.180999398498895 -8.578979984093699 25.1321323446721
-7.414517116511509 -7.589836186588544 17.65648866173262
-4.186599610116268 -9.67803535561395 18.49056461814412
-7.764885640587965 5.548680047674805 31.21085673977117
-9.210063597249565 2.096386475564042 32.45622603264506
-7.929550898185188 4.745416906529825 35.055952705492
-9.064481766661022 1.207902335144744 36.28119377301125
-8.020999749134726 3.944534678296337 38.90075047934184
3.986672433902201 -5.864795649633419 62.36839442906614
-8.839603814769898 0.2922474415568761 40.09527384005336
-8.062968171111478 3.095075497457953 42.73598390642721
-8.684556818941441 -2.574813706042601 37.3789689469052
-8.06987087176214 -3.409058654547978 41.16310162450878
-6.812127769889174 -5.853035191328921 38.35667577422729
-6.121627214690808 6.235978091619296 41.44102482605786
-6.362313727735574 5.537988882815146 45.29827377297229
4.42115320829646 -5.932200255248516 58.4677785790124
1.063229809584734 -7.191309493266633 60.10691159455371
0.5797533981290379 -6.939298108464708 63.99512860633919
-2.502912352310925 -6.69840564626374 61.61557852476282
-2.949351480376836 -6.179792449389511 65.46848552075561
-2.068140021467778 -7.162476977803007 57.74863136493738
-5.155569071209178 -5.233041672751006 59.13389710998042
-8.034888464913886 2.217782818761208 46.56384375584553
-6.701668075379166 4.615479647103033 49.0807597723059
-10.73091641323773 -0.8906420881636148 15.65641227459686
-10.47616728528612 2.856452350758237 14.50274093931134
-3.489430832919046 7.799953117050267 43.90114838834448
-4.73466202017384 -5.999907513263318 55.36054700409926
-3.63805753421913 10.24586830948999 14.32506328998879
-0.07584634187876589 10.99270934605937 12.79551663327036
-5.429186787387275 -9.379670723400968 14.76927131662962
-1.776076732603595 -10.63047607350818 15.52923030743142
-0.402824789749403 -10.48011726422527 19.21360991802571
-5.7950361590013 -6.471135435849696 42.09999398425122
-3.708379698179459 -8.106806858508318 39.2020819398749
-7.019005400635616 -2.874898986726529 56.09851707908917
-6.987617113942193 -1.937565381940071 60.33830413946935
-7.415037237830485 0.8219746979027555 57.680361920586
-6.941417408257129 1.772058084203528 61.4467010769615
-5.905863672416424 4.426317144309226 58.69654611564003
2.102600513656777 -10.51850137013239 16.18016851109138
-4.937866623734079 -7.771013966836292 35.48681802221751
-1.303460878481908 -9.054163461186757 36.24435872707764
-3.073104443733361 8.298873016116698 40.02973932126017
0.7346849282068061 -10.99002269088867 12.52130120168719
3.433524597107857 -9.859149246960037 19.82270475343491
-4.991349316218311 5.037570490904566 62.3672303894958
-1.574178476948654 -7.597855352209579 53.88426082467059
3.068845603759223 10.36831669655439 15.08294924099903
-2.920930256439319 6.71304791158003 59.45250133094343
-4.319570466744382 -6.675110036277913 51.44951485299676
0.08028278231863524 -8.858255490245394 39.91502650541633
2.560032366360102 -8.73051021668152 36.87203025662596
1.203464097783706 -9.307124222454522 33.23169280440982
4.49992331177815 -10.0033192012885 13.10198301280269
-11.06788327579758 0.04001408636775264 11.84274687189945
-6.320758319879122 2.688281533400837 65.19952997288841
-3.860920348015334 5.598273504959976 66.06537723334613
-5.539552632468105 3.542401279685316 68.92669171331866
3.485656039961913 10.56037390661003 11.17180796609471
0.02870866806702995 8.663989630419367 42.3874264019113
-0.4121478199090174 8.352226026719666 46.2202334292984
-5.500764215544432 7.556093328256974 33.71870725204709
-7.1176593301113 -6.729767437563017 28.01146144551599
5.576910138064374 8.696086773612659 21.21016661568528
5.23373949720656 -6.056621417757217 50.76552040329324
-10.53607125908896 3.679801345746438 10.6708577518077
-10.34819139550866 -3.679969884578285 12.92165808298687
-2.753561158290581 5.901841857859837 69.72414726427282
-4.590703839841956 4.291657565322817 72.62438946351062
-6.289136113385752 0.9297288501620951 71.69493756378886
-5.767237391369576 1.876245258733616 75.41436460295124
-5.865770010663018 -1.841180493265692 74.35743406437572
-5.808280113606302 -0.6952525509103292 78.14642372978059
-4.90965723314382 3.042959647685182 79.08104078184857
2.29461672921454 -7.844429163513227 48.62477541880045
-4.203113738638539 -4.207363060268375 76.90931121625731
-3.74966925429998 -4.99747762352697 73.0888370261986
3.101214960450843 7.898941327919449 44.65064233450452
-4.597575279223725 6.065872498031988 55.76320328343585
-0.570514664545632 7.533972364631041 56.47218348521451
4.859045803713141 -7.978472702550257 33.77758828194234
3.628806933537294 -8.915590767783961 30.16708919757825
0.978576598951466 -10.15215829397386 22.88117804633834
4.696085194936365 -9.00360713006828 23.44661856939073
0.8628254465646745 7.218228547489828 60.10525002050814
0.17873501530772 6.742862519510422 66.76817083126123
-7.926042597961882 1.31752926449107 50.38262436928902
-8.101377936168232 -1.538344306641539 47.69731157621207
-3.214078057141291 10.70458763838844 10.4610914726328
-1.300253914428785 7.711956922619261 53.10174875554615
1.660304451281496 7.631723049088258 53.23598194098334
0.4599787998973642 8.958502779557428 38.49593858842268
-4.614938244638466 -3.260607595822786 80.67684770623498
-1.564584367423699 -5.540424506323579 79.32353515302555
-2.443092465727368 -4.88675421417502 83.05499648191996
-0.1801877520846415 -9.670862933734892 29.57316524067431
6.317646337807726 8.940327505993306 13.37655650504148
-6.452543030822727 8.987991358964781 11.88887092308393
-6.113059659497285 9.586533164372014 8.008140602183673
-9.626890315259494 -0.7430852339608859 29.78935975344012
-1.250715175092778 6.098663685043872 73.37081901147086
0.09742831377758279 -6.658338508979589 67.86318789614582
6.636745809280073 9.084538752065244 9.522459607224226
3.898599221669998 10.74318869918326 7.259057196426047
3.495110241336743 -10.70277491684443 9.415238168026237
-0.6474244134555609 -11.2852867393833 8.845519781831557
6.682308661728197 -9.006199262554778 9.980800889459633
7.69942295484489 -7.760348593132426 13.57284177336911
6.409890906261167 -8.225580820512047 19.9719013612788
7.724098604439757 -6.537865871899502 23.89332166878073
3.851531703655343 -7.926999263613854 40.49276793841751
-11.34246278846623 1.172309179780046 7.587074022516695
-7.680918085846375 -2.048119026275026 51.46908450619102
1.985044557259852 -8.357184477347014 43.33197874466382
2.736648808516197 7.706892061471502 48.55864928772764
-6.731817661779828 3.998671752118456 52.98662244030141
6.847176502264565 -6.712989691578254 30.63523228569059
7.380990618400129 -5.679824797117669 34.13648099809464
1.525133274968377 -5.361417995871966 81.64852334460002
1.056946033689075 -5.174336973872746 85.37065938514998
8.923337085401277 6.581618599088266 11.5881136538197
9.104548121264594 6.917334101040424 7.188405039158913
4.552607005159974 -3.414583860364724 80.16553049837536
10.64232785307013 3.605537518240488 9.7011247390724
5.039819681495067 3.257890743426709 76.22279286887505
2.284701350908681 5.401979773430071 77.94929399848378
2.171332924380455 5.118310053588687 81.83003303283274
1.6927880078412 4.899722985014376 86.60676533845216
-1.616960954380196 5.513792394803932 79.46465605312217
2.088982514927428 5.821846223673474 73.88296865170989
3.165304976699498 5.649209819579665 70.19481298617519
2.207432399927783 -5.446230185748071 77.80544059485601
2.819616096890738 -5.497828727147635 73.96660705403808
-0.9180309124704817 -5.987918677893823 75.50175054587467
-3.371414436264935 -5.610763679041898 69.30256357238098
-5.669519998563771 -3.652593193540616 66.7806487404452
-5.8296345010856 -2.743999892435117 70.60648177162592
4.394344187844588 3.117651145497576 84.01405595111754
5.740642708309748 3.290731180125158 68.39826684460235
8.651284891827 6.426284629376628 15.54078757877635
5.988111490179403 8.792360041864704 17.30822159473534
5.825198907681954 -7.966228846600639 27.07912175723026
6.43450164161062 3.301059767788826 60.58495610471189
4.213332112725147 5.715734902502742 62.24985143959434
3.589417441854641 5.75894858913291 66.25051621890448
4.531508050791264 5.841903067536959 58.53237429084714
-5.811578340067204 6.92441274485895 37.61013082528729
-5.156384691038935 8.157887962006807 29.84842974839389
-2.265988007115421 9.185588883394828 32.26157505925367
-2.675068477991783 8.753802138437777 36.16926607379033
7.141283277539189 3.255198111960705 52.75362215270549
7.786794660657894 3.315134244023251 44.94040697837053
-9.208613896825124 -1.643253574846165 33.61957436335442
8.462432770897786 3.286313054610388 37.12575414505533
6.465699843151413 6.17396585204747 38.88132134291664
6.718792551872975 -3.41252801882581 56.7236805872236
9.441193644968545 3.301159746903018 25.3909421730518
7.955655885851906 6.316781040709192 23.3990632461895
9.409820883022679 -3.394762154420589 25.3684922613864
9.733170913784917 -3.385492890031855 21.53507310672547
-9.683774166117125 -4.510949262079623 16.73546539902681
10.07971552490397 3.335865867111765 17.56790779317669
9.902061166405591 -4.613008248566998 13.67368823055085
3.482342898804639 8.07056016152127 40.7894083223896
-8.517721059519012 -4.365382408547774 30.860653379882
2.645664784022427 10.165382197336 19.0081669486723
-5.446217363012081 -4.468755583141379 62.96011467382795
-6.878514049508603 -0.999900069940565 64.15604552680978
-6.771452496393723 8.361089803782201 15.7658547163716
-7.078408352137418 7.69212819818211 19.65194532264498
0.4055977805395534 11.29239029740477 8.898510455191525
5.846035893375451 -8.943094565248744 16.71707217971176
0.8902983624521473 9.235123543521814 34.58707399075162
-9.953882264999006 0.170548497589595 25.97982746565868
-9.134738715071293 5.476876430111107 17.14316002250878
-9.214845148647704 -3.537982609491235 27.05533875683151
-6.066491388029696 -7.311333187012439 31.76022167281405
-7.698445552813875 -5.171538378711142 34.63451293517885
-3.895602746618701 7.260806450028532 47.77731049566786
1.49065469453152 -7.427003682753211 56.2234378322384
6.362088153482277 -6.466300222436884 37.21215717380733
-2.881443336510299 -9.839716669793679 22.19852608846849
-1.531869045998625 -9.843813362676453 25.89152075570684
2.34103620279498 -9.631477223001973 26.53179893943757
-3.128302646091925 -10.61477507498294 11.86565971769764
-6.572856502843815 -8.983613424546521 11.03678818384996
-8.378709291504475 -6.977304632205014 13.93279802631181
-10.93747965735017 -2.76303575674997 9.134709859406716
0.8085333001971484 11.57417922157618 5.052170443575964
-0.273102263807074 -6.347777900081732 71.74367831940573
-3.409361332444862 4.936671194291666 76.2430870753338
-3.758982978629631 4.006274367030707 82.67101863713459
-5.425669273295406 1.104062567250756 82.12195419738141
-4.884346316722424 1.791133656565959 86.37165706753538
-2.617332966731014 -9.064657819811517 32.59193481163602
-8.521220610328282 -0.6272626505770537 43.90913163041307
-1.622864537359014 6.838608240599739 63.16849937675617
-7.332496947201227 -4.22710317201744 44.93318073754911
-4.671846875572413 -6.972731534513549 45.82924484467515
-6.319578598579276 -5.17340732020628 48.70184973653127
-9.285962751478156 -6.266624886884903 10.13110822256091
-7.859437290811931 -8.294777392881631 7.2819020741478
-4.439288870013306 -10.45557941733169 8.144931369404606
-2.045871354180456 -11.41184844870803 5.161437812134263
8.287254904044941 6.39185218872595 19.49301030607161
4.802722487674982 -6.021959773429828 54.60356501420336
-6.653395333110464 -0.0212372159790496 67.93462287885342
1.365018140489415 9.486501895744164 30.69558105830964
-1.817054635773764 9.592039867404846 28.42849960915208
-3.941650127292444 -8.895208027176453 28.85063846622405
-8.77947318723265 7.052578392513731 9.385433837787591
-8.566593732858113 7.770464161778859 5.517631828405505
-8.992674143875153 6.255922081194695 13.28220336405191
3.932166836130047 8.206814857764407 36.84537842487174
-1.116377016051102 -7.984754788946921 50.03170518992634
6.866450336826914 6.183648430129733 35.06359158437908
-2.003793339052443 -8.389775657467696 42.87394059639691
2.10915193386366 -11.34493460601431 5.853407941899013
-9.219380892143649 -7.186589388951798 3.945471775375704
3.554230195821187 -5.778548354739627 66.27414292124682
3.175378576313695 -5.649121507710696 70.13314927835086
7.065061737893773 -3.394862509613757 52.87840564643524
7.983739988406651 -8.602990854984787 3.344770207887588
9.052215880680517 -7.04472520501855 6.728824188700371
4.712559026357229 10.74355243242771 3.409428593027145
-11.73666604211394 0.04718123912198326 3.344770207887467
6.096352240736662 6.106354556210483 42.83744930568281
5.408434606372823 -3.260119578712132 72.23445243878388
5.677383474717884 -6.466964099346061 43.13145004322043
-2.564320808240374 -4.497332073433459 86.69393424485727
2.028240017853708 -7.614912685422567 52.34452245592824
5.721162835370483 6.042313999811233 46.74443099467579
8.302528819343239 -3.640693895333567 37.28401253504221
-6.371033453172512 9.862379288833198 3.287924762586403
5.343833604363732 5.961178011889993 50.75162509260196
-7.671561473894053 1.090282420845946 54.01852811096143
-10.44967561791473 4.670806577753361 7.038549936961735
-0.6235127391977241 -8.342084459125529 46.18256099359166
4.832359632524628 6.005369915490685 54.53263767813257
10.96522349726178 -3.525336563371161 6.124500872113662
10.23355556339107 5.767975609077463 3.212942893686832
8.250445480664132 -6.753845190336923 16.99730803999624
6.324569918115909 -9.597854824933426 6.425489376686367
-2.572541180987726 11.1579665335918 6.979709784863774
9.000729455229347 -6.629111601261514 10.43849438639591
-10.16989720549422 -5.290632782731523 6.813679928444092
-0.7159848920081628 8.05040215442504 49.78064217134617
-0.8371683947284265 5.347456152642518 83.70097108264214
-4.468879435384776 6.569717028938419 51.51643156241278
-4.98577389343032 -2.125586085308445 83.60722860335787
0.6546232088404098 -11.77081431275984 2.680966016660206
-11.38007133730396 -1.823652816212765 6.032080151740833
-0.6742749854177792 5.94677254496203 76.42938673721719
8.072443015116438 -5.65305946074388 27.25455613181331
6.702569500371743 9.342675038681527 6.375193617103553
9.037453634538991 -2.5283021573747 33.23372856069496
1.46344284419461 6.805562652687478 64.02489825169494
3.424165679542937 -3.856638420720067 86.94372813304469
-9.314914204065044 7.250088740377167 2.492032199372612
4.315081948340458 2.79951163583439 87.11810989700997
2.529187716215778 7.121470479299682 56.45040304994809
-6.865008326916375 3.247930978055505 55.97637794444783
11.42395651398019 2.851827827667638 2.864788304020534
0.3216214950079429 6.418989028601598 70.81115357262543
6.486053078122627 -6.002231311777282 40.18749964266079
11.42505284540273 -2.848531659604395 2.861410277246407
-3.669370813258529 -7.299067284856925 48.67116767786944
-2.899486013414084 -11.45987722982877 2.274537341872404
-6.268809292168519 -4.695717925345237 52.95336737030953
8.493174932414995 -6.061879656433861 19.89058012419283
3.382587091582081 -7.689887388004681 45.73003734172033
0.9676696180883744 11.79356446532044 2.119435191124682
-5.546138591374803 10.1403049857522 5.617200901187043
0.5473750369420712 1.321480237890017 90
-0.7398602367303317 -1.78618061777492 90
2.201188615676791 -0.935382126248411 90
-2.217890441286627 0.8950603523447548 90
-0.6930238284312198 0.2975072279109368 30.67446360214388
-0.0306741150951062 0.02279156750339573 40.0375340493236
0.0626397146706601 -0.01258836266782204 49.25737899745443
0.01296749634931871 0.005742347306513351 56.78353266043639
-0.009693035012114493 0.0009342784451100705 64.13585766752934
3.000229537233347 -2.905967166672814 27.5943708940795
0.01310630922578593 -0.01474103927541327 70.58103068490688
2.110850220116959 3.834702444209035 27.38461483686279
3.083813778445091 1.541375359698078 35.15277603217822
-0.05805991213744566 0.03552026202276615 76.52443611648569
-0.1449736624629226 -3.375331153232596 35.2369247271628
-2.625429060044757 2.582914466859844 35.58721070657816
3.230961314245654 0.07876063739157813 44.5885898277899
-2.878225577862769 1.225145989301017 44.68143049527625
-4.804900788611152 -0.4973938276790105 27.32400523757093
-1.790403584429809 -4.635268983698108 26.96253896559892
0.06182547367428226 -0.005374737721696832 82.71159997936731
-2.947393557485125 4.221028781064649 27.52947308117158
4.675628101622858 0.8365891524653289 30.46180097526464
-0.6030104395957125 -3.444730424009832 43.93499888656241
0.9027766232626075 4.761827934480649 32.09316560490695
-4.331332960727746 -1.936959172941346 33.10521704844115
3.603663868877728 -3.431527257895076 32.29330567437022
0.2118427995163052 -3.12443172407261 53.02920601149518
-3.922675651015522 -2.015854712550589 37.9112608217461
2.4142644432453 2.026766399040411 53.03119561343242
1.210044062793076 3.972864469279109 42.54440316649973
5.641748476232916 0.2973528758631043 26.23556496531226
-0.6930238284312256 0.297507227910945 26.06244785427867
-2.726212394243872 2.106901981684272 53.28653064436403
3.692134945528415 -2.328466691469601 38.00889002462879
2.905391994261037 0.2151358536386825 60.46878330453466
-2.729800408024804 2.052354405034127 60.59345291151541
-0.3259666156173817 -5.410092654523481 31.18602740359098
0.8551651793321817 4.405209757898505 37.97898671390433
-0.6718104364148095 -2.655921337103536 60.45588050869075
-4.843259729575732 2.084713073829274 31.05116490451176
-3.989128980356202 2.318571574766063 40.36651310332032
0.03369977671397695 3.88824490062787 46.93071687499555
4.059264825357999 1.851072465746213 39.80502120276368
-0.540392636716384 -4.437188159226772 39.56900385067926
-3.423731760645971 -2.652000435647416 51.1955295583844
2.272005559574707 -3.285728046158282 47.2823238967135
-2.571633548984788 0.9541707544891409 67.36988461559231
4.299752915804203 0.4046494713885538 48.73059405789931
1.595682777611222 -5.95517254585768 25.74535638506823
1.022862597201759 -2.557832487151706 67.34862778954938
1.815165382398645 2.069425584647472 67.35707903769479
-4.187451574772153 -1.959599854064574 42.16659031020608
-3.971173897190778 1.356794779894641 48.79760979162232
3.46866313962679 -1.471239712425592 55.01070040540369
-4.741031048597376 -3.830541516844041 29.57802780322147
-0.3004894719272592 6.312046179076855 25.47808826712743
-3.838877947605071 -2.46307590854431 46.37896677994151
0.7921609093083505 3.733455057031313 62.47000880299167
5.551078736713158 -3.99116532322182 25.31348507618518
-3.676256160026938 -1.34268489489787 57.98287378055233
3.155928952046256 -3.279891400343626 42.06575421438467
5.305673210786878 3.950576660763695 25.40080823672315

CELLS 2916 13362
1 0
1 1
1 2
1 3
2 0 4
2 4 5
2 5 6
2 6 7
2 7 8
2 8 1
2 0 9
2 9 10
2 10 11
2 11 12
2 12 13
2 13 14
2 14 15
2 15 16
2 16 17
2 17 18
2 18 19
2 19 20
2 20 21
2 21 22
2 22 0
2 1 23
2 23 24
2 24 25
2 25 26
2 26 27
2 27 28
2 28 29
2 29 30
2 30 31
2 31 32
2 32 33
2 33 34
2 34 1
2 2 35
2 35 36
2 36 37
2 37 38
2 38 39
2 39 40
2 40 41
2 41 42
2 42 43
2 43 44
2 44 45
2 45 46
2 46 47
2 47 48
2 48 49
2 49 50
2 50 51
2 51 52
2 52 2
2 3 53
2 53 54
2 54 55
2 55 56
2 56 57
2 57 58
2 58 59
2 59 3
2 2 60
2 60 61
2 61 62
2 62 63
2 63 64
2 64 65
2 65 66
2 66 67
2 67 68
2 68 69
2 69 70
2 70 71
2 71 72
2 72 73
2 73 74
2 74 75
2 75 76
2 76 77
2 77 78
2 78 79
2 79 80
2 80 81
2 81 3
3 4 161 0
3 0 163 4
3 9 163 0
3 0 161 22
3 8 155 1
3 1 156 8
3 1 155 23
3 34 156 1
3 5 93 4
3 4 94 5
3 93 161 4
3 4 163 94
3 5 131 6
3 6 132 5
3 5 132 93
3 94 131 5
3 6 87 7
3 7 88 6
3 6 131 87
3 88 132 6
3 8 137 7
3 7 138 8
3 87 138 7
3 7 137 88
3 8 156 137
3 138 155 8
3 10 147 9
3 147 163 9
3 11 149 10
3 10 149 147
3 12 86 11
3 86 149 11
3 13 154 12
3 12 154 86
3 14 143 13
3 143 154 13
3 15 89 14
3 89 143 14
3 16 130 15
3 15 130 89
3 17 145 16
3 16 145 130
3 18 90 17
3 90 145 17
3 19 136 18
3 18 136 90
3 20 85 19
3 85 136 19
3 21 148 20
3 20 148 85
3 22 157 21
3 21 157 148
3 22 161 157
3 23 95 24
3 23 155 95
3 24 91 25
3 24 95 91
3 25 124 26
3 91 124 25
3 26 83 27
3 26 124 83
3 27 129 28
3 83 129 27
3 28 82 29
3 28 129 82
3 29 127 30
3 82 127 29
3 30 84 31
3 30 127 84
3 31 123 32
3 84 123 31
3 32 92 33
3 32 123 92
3 33 126 34
3 92 126 33
3 126 156 34
3 82 128 127
3 82 166 128
3 129 166 82
3 124 125 83
3 125 140 83
3 83 140 129
3 118 123 84
3 84 144 118
3 127 165 84
3 84 165 144
3 133 135 85
3 85 148 133
3 135 136 85
3 139 149 86
3 86 150 139
3 86 154 150
3 131 146 87
3 87 164 138
3 146 164 87
3 88 159 132
3 137 153 88
3 153 159 88
3 89 109 107
3 107 160 89
3 89 130 109
3 89 160 143
3 112 145 90
3 90 151 112
3 136 151 90
3 95 96 91
3 96 97 91
3 97 124 91
3 123 152 92
3 92 142 126
3 92 152 142
3 132 162 93
3 134 157 93
3 93 162 134
3 157 161 93
3 94 141 131
3 94 147 141
3 94 163 147
3 95 164 96
3 95 155 138
3 138 164 95
3 96 98 97
3 96 146 98
3 96 164 146
3 98 99 97
3 99 125 97
3 97 125 124
3 98 100 99
3 98 105 100
3 98 146 105
3 100 101 99
3 101 102 99
3 102 125 99
3 100 150 101
3 105 139 100
3 139 150 100
3 101 103 102
3 101 106 103
3 101 150 106
3 103 104 102
3 104 140 102
3 102 140 125
3 103 107 104
3 106 160 103
3 103 160 107
3 107 108 104
3 108 111 104
3 111 140 104
3 131 141 105
3 105 146 131
3 105 141 139
3 106 154 143
3 143 160 106
3 150 154 106
3 107 109 108
3 109 110 108
3 110 158 108
3 108 158 111
3 109 112 110
3 109 130 112
3 112 113 110
3 113 114 110
3 114 158 110
3 129 140 111
3 111 166 129
3 158 166 111
3 112 151 113
3 130 145 112
3 113 115 114
3 113 116 115
3 113 151 116
3 115 144 114
3 128 158 114
3 114 165 128
3 144 165 114
3 116 117 115
3 117 118 115
3 118 144 115
3 116 135 117
3 116 136 135
3 116 151 136
3 117 119 118
3 117 120 119
3 117 135 120
3 119 152 118
3 118 152 123
3 120 121 119
3 121 142 119
3 142 152 119
3 120 122 121
3 120 133 122
3 120 135 133
3 122 159 121
3 121 153 142
3 121 159 153
3 133 134 122
3 134 162 122
3 122 162 159
3 126 153 137
3 137 156 126
3 142 153 126
3 128 165 127
3 128 166 158
3 159 162 132
3 133 148 134
3 148 157 134
3 141 149 139
3 147 149 141
3 23 179 1
3 1 168 34
3 1 179 168
3 24 171 23
3 171 179 23
3 25 180 24
3 24 180 171
3 26 170 25
3 170 180 25
3 27 178 26
3 26 178 170
3 28 178 27
3 29 167 28
3 167 178 28
3 30 176 29
3 29 176 167
3 31 176 30
3 32 169 31
3 169 176 31
3 33 181 32
3 32 181 169
3 34 172 33
3 172 181 33
3 168 172 34
3 167 176 174
3 174 177 167
3 177 178 167
3 171 175 168
3 168 179 171
3 168 173 172
3 168 175 173
3 173 174 169
3 169 181 173
3 174 176 169
3 170 175 171
3 171 180 170
3 170 177 175
3 170 178 177
3 173 181 172
3 173 175 174
3 175 177 174
3 2 0 35
3 52 0 2
3 35 0 9
3 22 0 52
3 10 36 9
3 36 35 9
3 11 37 10
3 37 36 10
3 12 184 11
3 38 37 11
3 11 184 38
3 40 12 13
3 39 12 40
3 39 184 12
3 14 41 13
3 13 41 40
3 15 42 14
3 42 41 14
3 16 182 15
3 43 42 15
3 15 182 43
3 45 16 17
3 45 44 16
3 44 182 16
3 46 17 18
3 46 45 17
3 19 47 18
3 18 47 46
3 20 183 19
3 19 48 47
3 19 183 48
3 21 50 20
3 20 50 49
3 49 183 20
3 22 51 21
3 21 51 50
3 22 52 51
3 38 184 39
3 43 182 44
3 48 183 49
3 35 506 2
3 2 509 52
3 2 506 60
3 60 509 2
3 3 503 53
3 59 501 3
3 3 501 81
3 81 503 3
3 36 484 35
3 484 506 35
3 37 206 36
3 206 484 36
3 38 468 37
3 37 468 206
3 39 515 38
3 38 515 468
3 40 194 39
3 194 515 39
3 41 477 40
3 40 477 194
3 42 502 41
3 41 502 477
3 43 191 42
3 191 502 42
3 44 469 43
3 43 469 191
3 45 207 44
3 207 469 44
3 46 462 45
3 45 462 207
3 47 192 46
3 192 462 46
3 48 511 47
3 47 511 192
3 49 494 48
3 494 511 48
3 50 198 49
3 198 494 49
3 51 466 50
3 50 466 198
3 52 211 51
3 211 466 51
3 52 509 211
3 53 371 54
3 53 503 371
3 54 209 55
3 54 371 209
3 55 437 56
3 209 437 55
3 56 195 57
3 56 437 195
3 57 473 58
3 195 473 57
3 58 501 59
3 58 473 363
3 363 501 58
3 60 212 61
3 61 483 60
3 60 506 212
3 483 509 60
3 62 208 61
3 61 367 62
3 208 483 61
3 212 367 61
3 62 205 63
3 63 406 62
3 62 367 205
3 62 406 208
3 64 193 63
3 63 405 64
3 193 406 63
3 205 405 63
3 64 190 65
3 65 403 64
3 64 405 190
3 64 403 193
3 65 400 66
3 66 402 65
3 190 400 65
3 402 403 65
3 67 188 66
3 66 215 67
3 188 402 66
3 66 400 215
3 67 186 68
3 68 499 67
3 67 215 186
3 67 499 188
3 68 397 69
3 69 476 68
3 186 397 68
3 476 499 68
3 70 200 69
3 69 204 70
3 200 476 69
3 69 397 204
3 71 214 70
3 70 395 71
3 70 214 200
3 204 395 70
3 72 187 71
3 71 203 72
3 187 214 71
3 71 395 203
3 72 394 73
3 73 465 72
3 72 465 187
3 203 394 72
3 73 202 74
3 74 399 73
3 73 394 202
3 399 465 73
3 75 199 74
3 74 386 75
3 199 399 74
3 202 386 74
3 75 201 76
3 76 213 75
3 75 213 199
3 75 386 201
3 77 185 76
3 76 382 77
3 185 213 76
3 201 382 76
3 77 189 78
3 78 471 77
3 77 471 185
3 77 382 189
3 79 196 78
3 78 368 79
3 189 368 78
3 196 471 78
3 79 197 80
3 80 366 79
3 79 366 196
3 79 368 197
3 81 210 80
3 80 381 81
3 197 381 80
3 210 366 80
3 81 501 210
3 381 503 81
3 185 463 213
3 185 464 463
3 185 471 464
3 215 216 186
3 216 459 186
3 186 459 397
3 187 231 214
3 187 308 231
3 187 465 308
3 360 497 188
3 188 499 360
3 188 497 402
3 189 373 368
3 189 374 373
3 189 382 374
3 190 401 400
3 190 448 401
3 405 448 190
3 191 469 355
3 355 480 191
3 191 480 455
3 455 502 191
3 192 446 445
3 445 462 192
3 192 447 446
3 192 511 447
3 403 513 193
3 193 485 406
3 193 513 485
3 194 487 432
3 432 515 194
3 477 516 194
3 194 516 487
3 437 493 195
3 195 493 473
3 366 375 196
3 375 376 196
3 376 471 196
3 368 369 197
3 369 370 197
3 370 381 197
3 198 486 461
3 461 494 198
3 466 486 198
3 213 250 199
3 250 258 199
3 258 399 199
3 214 472 200
3 472 508 200
3 200 508 476
3 201 388 382
3 386 387 201
3 387 388 201
3 202 389 386
3 202 482 389
3 394 482 202
3 203 478 394
3 395 475 203
3 475 478 203
3 204 470 395
3 397 398 204
3 398 470 204
3 205 367 364
3 364 383 205
3 383 405 205
3 365 484 206
3 206 498 365
3 468 498 206
3 462 489 207
3 207 495 469
3 489 495 207
3 406 488 208
3 467 483 208
3 208 488 467
3 371 491 209
3 435 437 209
3 209 491 435
3 210 363 362
3 362 366 210
3 210 501 363
3 211 467 466
3 211 483 467
3 211 509 483
3 365 367 212
3 212 484 365
3 212 506 484
3 213 463 250
3 231 472 214
3 215 217 216
3 215 400 217
3 217 218 216
3 218 219 216
3 219 459 216
3 217 220 218
3 217 401 220
3 400 401 217
3 218 451 219
3 220 221 218
3 221 451 218
3 219 451 416
3 416 457 219
3 457 459 219
3 220 222 221
3 220 307 222
3 220 401 307
3 222 223 221
3 223 452 221
3 221 452 451
3 222 224 223
3 222 409 224
3 307 409 222
3 224 225 223
3 225 226 223
3 226 452 223
3 224 234 225
3 224 241 234
3 224 409 241
3 225 227 226
3 225 413 227
3 234 413 225
3 227 228 226
3 228 391 226
3 391 452 226
3 227 229 228
3 227 232 229
3 227 413 232
3 229 230 228
3 230 245 228
3 245 391 228
3 229 417 230
3 232 233 229
3 233 417 229
3 230 246 245
3 230 343 246
3 230 417 343
3 308 318 231
3 318 514 231
3 231 514 472
3 232 235 233
3 232 418 235
3 413 418 232
3 235 236 233
3 236 237 233
3 237 417 233
3 241 271 234
3 271 412 234
3 412 413 234
3 235 267 236
3 235 268 267
3 235 418 268
3 236 238 237
3 236 404 238
3 267 404 236
3 238 239 237
3 239 419 237
3 237 419 417
3 238 240 239
3 238 243 240
3 238 404 243
3 240 242 239
3 242 306 239
3 306 419 239
3 240 425 242
3 243 244 240
3 244 425 240
3 241 272 271
3 241 291 272
3 241 409 291
3 242 453 306
3 425 426 242
3 426 453 242
3 243 273 244
3 243 430 273
3 404 430 243
3 273 274 244
3 274 275 244
3 275 425 244
3 246 247 245
3 247 305 245
3 305 391 245
3 246 248 247
3 246 396 248
3 343 396 246
3 248 249 247
3 249 390 247
3 247 390 305
3 248 251 249
3 248 253 251
3 248 396 253
3 251 252 249
3 252 256 249
3 256 390 249
3 250 259 258
3 250 260 259
3 250 463 260
3 251 439 252
3 253 254 251
3 254 439 251
3 252 257 256
3 252 265 257
3 252 439 265
3 253 255 254
3 253 421 255
3 396 421 253
3 255 276 254
3 276 441 254
3 254 441 439
3 255 277 276
3 255 284 277
3 255 421 284
3 257 269 256
3 269 286 256
3 286 390 256
3 265 266 257
3 266 422 257
3 257 422 269
3 259 423 258
3 258 449 399
3 423 449 258
3 260 261 259
3 261 263 259
3 263 423 259
3 260 262 261
3 260 345 262
3 260 463 345
3 262 410 261
3 261 264 263
3 261 410 264
3 345 378 262
3 378 379 262
3 379 410 262
3 264 270 263
3 270 290 263
3 290 423 263
3 264 278 270
3 264 279 278
3 264 410 279
3 265 330 266
3 265 331 330
3 265 439 331
3 330 359 266
3 359 492 266
3 266 492 422
3 268 298 267
3 298 310 267
3 310 404 267
3 268 309 298
3 268 456 309
3 418 456 268
3 269 303 286
3 269 304 303
3 269 422 304
3 278 512 270
3 270 293 290
3 270 512 293
3 272 332 271
3 332 341 271
3 341 412 271
3 291 302 272
3 302 414 272
3 272 414 332
3 273 428 274
3 273 429 428
3 273 430 429
3 274 283 275
3 274 287 283
3 274 428 287
3 283 288 275
3 288 326 275
3 326 425 275
3 277 460 276
3 276 442 441
3 276 460 442
3 284 285 277
3 285 294 277
3 294 460 277
3 279 280 278
3 280 479 278
3 278 479 356
3 356 512 278
3 279 281 280
3 279 411 281
3 410 411 279
3 281 282 280
3 282 505 280
3 280 505 479
3 281 289 282
3 281 299 289
3 281 411 299
3 289 292 282
3 292 322 282
3 322 505 282
3 287 297 283
3 283 415 288
3 297 415 283
3 284 438 285
3 284 421 420
3 420 438 284
3 285 295 294
3 285 296 295
3 285 438 296
3 303 335 286
3 335 393 286
3 286 393 390
3 287 348 297
3 287 349 348
3 287 428 349
3 288 327 326
3 288 352 327
3 288 415 352
3 289 440 292
3 299 300 289
3 300 440 289
3 293 458 290
3 290 474 423
3 458 474 290
3 291 340 302
3 291 384 340
3 291 409 384
3 292 323 322
3 292 328 323
3 292 440 328
3 443 510 293
3 293 512 443
3 293 510 458
3 295 354 294
3 354 357 294
3 357 460 294
3 296 324 295
3 324 424 295
3 295 424 354
3 296 325 324
3 296 339 325
3 296 438 339
3 348 350 297
3 350 351 297
3 351 415 297
3 309 355 298
3 298 431 310
3 355 431 298
3 299 301 300
3 299 450 301
3 411 450 299
3 301 311 300
3 311 329 300
3 329 440 300
3 301 312 311
3 301 313 312
3 301 450 313
3 340 346 302
3 346 347 302
3 347 414 302
3 304 321 303
3 321 407 303
3 303 407 335
3 304 358 321
3 304 490 358
3 422 490 304
3 390 393 305
3 305 392 391
3 305 393 392
3 408 419 306
3 306 420 408
3 306 453 420
3 384 409 307
3 307 448 384
3 401 448 307
3 308 474 318
3 308 465 449
3 449 474 308
3 309 480 355
3 309 456 454
3 454 480 309
3 310 430 404
3 310 444 430
3 431 444 310
3 312 344 311
3 311 507 329
3 344 507 311
3 313 314 312
3 314 434 312
3 312 434 344
3 313 315 314
3 313 380 315
3 313 450 380
3 315 316 314
3 316 317 314
3 317 434 314
3 315 319 316
3 315 320 319
3 315 380 320
3 316 436 317
3 319 336 316
3 336 436 316
3 372 434 317
3 317 435 372
3 317 436 435
3 318 474 458
3 458 481 318
3 481 514 318
3 320 377 319
3 319 337 336
3 319 377 337
3 320 433 377
3 320 380 378
3 378 433 320
3 358 475 321
3 321 470 407
3 321 475 470
3 323 333 322
3 333 492 322
3 322 492 359
3 359 505 322
3 328 504 323
3 323 334 333
3 323 504 334
3 325 360 324
3 360 361 324
3 361 424 324
3 339 427 325
3 325 385 360
3 325 427 385
3 327 427 326
3 326 426 425
3 326 427 426
3 352 353 327
3 353 385 327
3 385 427 327
3 387 389 328
3 328 500 387
3 389 504 328
3 440 500 328
3 374 388 329
3 329 507 374
3 388 500 329
3 329 500 440
3 331 356 330
3 356 479 330
3 330 479 359
3 331 443 356
3 439 441 331
3 441 443 331
3 332 342 341
3 332 487 342
3 414 487 332
3 334 490 333
3 490 492 333
3 334 478 358
3 358 490 334
3 334 482 478
3 334 504 482
3 335 416 393
3 407 457 335
3 335 457 416
3 337 338 336
3 338 493 336
3 336 493 436
3 337 362 338
3 337 375 362
3 337 377 375
3 362 363 338
3 363 473 338
3 473 493 338
3 426 427 339
3 339 453 426
3 438 453 339
3 340 364 346
3 340 383 364
3 340 384 383
3 342 454 341
3 341 456 412
3 454 456 341
3 342 455 454
3 342 516 455
3 487 516 342
3 343 408 396
3 343 419 408
3 417 419 343
3 344 496 373
3 373 507 344
3 434 496 344
3 345 433 378
3 345 464 433
3 463 464 345
3 346 498 347
3 364 365 346
3 365 498 346
3 347 432 414
3 347 468 432
3 347 498 468
3 349 461 348
3 348 486 350
3 461 486 348
3 428 446 349
3 446 447 349
3 447 461 349
3 350 488 351
3 350 486 467
3 467 488 350
3 406 485 351
3 351 488 406
3 351 485 415
3 352 513 353
3 415 485 352
3 485 513 352
3 353 497 385
3 353 403 402
3 402 497 353
3 353 513 403
3 354 472 357
3 424 508 354
3 354 508 472
3 355 495 431
3 469 495 355
3 443 512 356
3 357 481 460
3 472 514 357
3 357 514 481
3 358 478 475
3 479 505 359
3 360 499 361
3 385 497 360
3 361 476 424
3 361 499 476
3 362 375 366
3 364 367 365
3 368 373 369
3 369 372 370
3 369 496 372
3 373 496 369
3 371 381 370
3 370 491 371
3 372 491 370
3 371 503 381
3 372 496 434
3 435 491 372
3 374 507 373
3 382 388 374
3 375 377 376
3 377 433 376
3 433 464 376
3 464 471 376
3 378 380 379
3 380 450 379
3 379 411 410
3 379 450 411
3 384 448 383
3 383 448 405
3 386 389 387
3 387 500 388
3 482 504 389
3 392 452 391
3 393 416 392
3 416 451 392
3 451 452 392
3 478 482 394
3 470 475 395
3 408 421 396
3 397 459 398
3 398 457 407
3 407 470 398
3 398 459 457
3 449 465 399
3 420 421 408
3 412 418 413
3 412 456 418
3 432 487 414
3 420 453 438
3 422 492 490
3 423 474 449
3 476 508 424
3 429 446 428
3 430 444 429
3 444 445 429
3 445 446 429
3 431 489 444
3 431 495 489
3 468 515 432
3 436 437 435
3 436 493 437
3 442 443 441
3 442 510 443
3 460 481 442
3 481 510 442
3 444 489 445
3 445 489 462
3 447 494 461
3 447 511 494
3 455 480 454
3 477 502 455
3 455 516 477
3 458 510 481
3 467 486 466
3 53 519 3
3 3 519 59
3 54 517 53
3 517 519 53
3 55 520 54
3 54 520 517
3 56 520 55
3 57 520 56
3 58 518 57
3 518 520 57
3 59 519 58
3 58 519 518
3 518 519 517
3 517 520 518
4 504 328 524 575
4 504 524 389 575
4 313 314 315 527
4 524 328 553 575
4 313 312 314 527
4 391 541 392 557
4 538 541 391 557
4 518 520 517 537
4 314 527 312 530
4 78 527 471 530
4 305 392 541 557
4 263 423 544 556
4 518 517 519 537
4 520 518 195 537
4 314 315 527 530
4 305 391 392 557
4 312 527 344 530
4 328 323 524 553
4 377 376 433 527
4 471 527 376 530
4 504 328 323 524
4 377 376 527 530
4 320 377 527 530
4 320 377 433 527
4 229 535 178 538
4 258 423 556 571
4 546 550 490 559
4 202 524 389 546
4 504 389 328 575
4 305 541 532 557
4 202 389 524 552
4 195 518 473 537
4 216 539 529 541
4 411 553 525 556
4 411 525 410 556
4 504 389 524 546
4 389 524 552 575
4 178 229 28 535
4 320 527 315 530
4 196 78 471 530
4 323 546 524 550
4 323 504 524 546
4 322 524 323 553
4 196 471 376 530
4 308 563 544 565
4 459 216 529 541
4 410 379 262 525
4 410 411 379 525
4 505 322 282 550
4 201 75 76 525
4 189 527 78 530
4 250 525 213 552
4 213 76 75 525
4 186 529 216 539
4 529 543 68 551
4 239 306 536 572
4 260 250 525 567
4 260 525 250 556
4 213 525 250 567
4 262 525 379 567
4 202 552 524 571
4 434 312 344 530
4 322 323 292 553
4 201 75 525 552
4 459 216 186 529
4 230 535 229 538
4 524 546 202 571
4 322 550 524 553
4 379 525 411 564
4 524 553 550 577
4 289 299 553 564
4 324 543 531 551
4 173 526 549 566
4 323 524 322 550
4 525 564 379 567
4 201 525 76 568
4 322 282 550 553
4 250 525 552 556
4 213 525 75 552
4 258 556 552 571
4 173 549 536 566
4 369 530 197 537
4 216 528 539 541
4 176 535 30 536
4 410 525 262 556
4 544 562 270 577
4 169 173 174 549
4 532 542 248 557
4 216 539 528 579
4 213 76 525 567
4 284 542 531 554
4 197 530 79 537
4 262 525 260 556
4 175 548 528 549
4 230 229 228 538
4 375 362 366 530
4 328 292 323 553
4 173 526 168 549
4 523 550 546 559
4 344 527 373 530
4 333 490 546 550
4 269 286 547 558
4 209 517 520 537
4 27 229 178 538
4 269 547 534 558
4 521 531 529 532
4 375 337 362 530
4 286 390 555 558
4 189 373 527 530
4 452 541 538 573
4 550 562 544 577
4 420 542 284 554
4 526 548 168 549
4 248 542 532 545
4 362 530 337 537
4 366 530 362 537
4 458 510 562 563
4 532 555 390 558
4 366 79 530 537
4 260 525 262 567
4 216 528 217 579
4 175 171 528 548
4 239 419 306 572
4 434 314 312 530
4 289 300 553 575
4 532 541 393 555
4 529 531 522 532
4 248 545 532 558
4 528 541 451 573
4 263 544 270 577
4 169 173 536 566
4 564 568 525 575
4 452 451 541 573
4 218 528 216 541
4 512 270 562 577
4 525 567 76 568
4 562 563 510 574
4 300 568 564 575
4 316 530 317 537
4 289 300 299 564
4 169 536 173 549
4 315 320 380 527
4 247 532 248 557
4 219 459 457 541
4 528 539 526 548
4 78 77 471 527
4 315 380 313 527
4 180 220 573 579
4 528 548 526 549
4 286 555 547 558
4 492 559 550 570
4 517 371 503 537
4 369 372 530 537
4 459 219 216 541
4 470 395 475 533
4 295 324 531 551
4 463 213 250 567
4 473 518 363 537
4 416 393 541 555
4 475 547 533 559
4 458 562 544 563
4 552 556 524 571
4 526 539 528 549
4 470 533 475 547
4 175 168 548 549
4 80 197 79 537
4 420 284 438 554
4 284 531 545 561
4 492 490 550 559
4 481 510 563 574
4 69 397 529 560
4 325 554 526 566
4 369 197 370 537
4 538 541 528 573
4 324 424 543 551
4 490 358 546 559
4 228 229 27 538
4 30 239 242 536
4 518 519 501 537
4 286 390 393 555
4 475 559 533 565
4 173 168 175 549
4 526 521 539 549
4 249 248 532 558
4 390 532 393 555
4 180 24 220 579
4 260 463 250 567
4 536 549 526 566
4 526 539 188 548
4 259 258 423 556
4 531 542 284 545
4 380 527 378 564
4 285 531 284 561
4 366 80 79 537
4 481 563 540 574
4 169 174 536 549
4 517 209 371 537
4 178 28 167 535
4 378 564 527 567
4 69 529 551 560
4 284 531 438 554
4 306 242 239 536
4 529 531 521 543
4 528 539 521 549
4 458 481 510 563
4 189 78 368 530
4 269 257 256 558
4 437 520 195 537
4 478 546 559 565
4 534 547 269 559
4 250 552 258 556
4 459 529 398 555
4 325 543 526 554
4 201 552 525 575
4 312 527 313 564
4 246 247 248 557
4 464 376 471 527
4 269 534 257 558
4 188 539 526 543
4 471 77 185 527
4 504 482 389 546
4 69 397 68 529
4 317 530 372 537
4 378 379 564 567
4 482 202 389 546
4 278 562 550 577
4 363 518 501 537
4 464 433 376 527
4 312 313 301 564
4 284 545 277 561
4 180 573 528 579
4 333 546 323 550
4 544 565 546 571
4 77 185 527 567
4 250 199 258 552
4 78 189 77 527
4 320 315 319 530
4 526 521 536 554
4 471 527 185 567
4 69 529 68 551
4 531 532 521 542
4 395 533 470 560
4 459 398 457 555
4 285 284 277 561
4 187 308 465 565
4 336 337 530 537
4 311 344 312 527
4 251 545 248 558
4 336 530 316 537
4 289 440 300 575
4 257 534 269 559
4 496 434 344 530
4 284 285 438 531
4 436 316 317 537
4 77 567 527 568
4 369 370 372 537
4 470 533 547 560
4 378 380 320 527
4 295 424 324 551
4 544 563 523 565
4 378 320 433 527
4 258 552 399 571
4 186 68 529 539
4 476 543 361 551
4 258 199 399 552
4 524 550 544 577
4 525 568 201 575
4 522 532 531 545
4 417 28 229 535
4 526 548 188 576
4 300 329 568 575
4 523 546 544 565
4 269 286 303 547
4 178 538 535 549
4 398 555 529 560
4 320 319 377 530
4 529 521 539 543
4 248 253 542 545
4 189 368 373 530
4 312 311 527 564
4 535 538 230 557
4 523 559 546 565
4 464 527 471 567
4 379 380 378 564
4 325 526 385 566
4 269 256 286 558
4 27 28 178 229
4 77 185 567 568
4 202 74 552 571
4 420 542 554 572
4 451 221 528 573
4 526 536 521 549
4 474 544 308 563
4 25 180 220 573
4 475 478 559 565
4 512 562 278 577
4 217 216 218 528
4 68 543 499 551
4 523 534 533 540
4 249 248 247 532
4 422 257 269 559
4 475 533 395 565
4 263 290 270 544
4 459 397 398 529
4 433 378 527 567
4 299 411 281 553
4 416 541 457 555
4 174 167 535 549
4 334 333 490 546
4 343 535 557 572
4 343 557 542 572
4 398 529 397 560
4 311 507 344 527
4 528 548 171 579
4 263 259 423 556
4 284 542 421 545
4 526 543 521 554
4 496 344 373 530
4 176 29 30 535
4 417 229 230 535
4 492 422 559 570
4 344 507 373 527
4 295 324 296 531
4 313 527 380 564
4 209 520 437 537
4 312 301 311 564
4 285 438 531 554
4 187 563 308 565
4 533 560 70 578
4 521 532 529 541
4 378 262 379 567
4 490 358 334 546
4 70 395 204 560
4 70 533 395 560
4 72 565 465 571
4 220 25 24 180
4 218 216 219 541
4 286 303 547 555
4 358 478 546 559
4 180 170 171 528
4 215 548 539 579
4 282 322 292 553
4 396 248 253 542
4 77 76 185 568
4 305 532 247 557
4 173 172 168 576
4 392 416 393 541
4 261 262 260 556
4 72 546 565 571
4 521 541 538 557
4 464 471 185 567
4 521 536 554 572
4 218 451 528 541
4 249 251 248 558
4 250 213 199 552
4 261 410 262 556
4 321 547 475 559
4 550 559 523 570
4 512 278 270 577
4 339 554 325 566
4 433 527 464 567
4 527 564 311 568
4 522 531 529 551
4 529 532 522 555
4 507 527 311 568
4 76 567 185 568
4 451 221 218 528
4 526 539 521 543
4 295 551 531 561
4 66 188 539 548
4 395 470 204 560
4 308 544 449 571
4 263 423 290 544
4 285 531 296 554
4 23 179 548 579
4 535 536 521 572
4 77 527 189 568
4 174 167 176 535
4 522 534 533 547
4 533 534 522 540
4 521 532 541 557
4 174 535 176 549
4 200 70 560 578
4 227 228 27 538
4 242 31 30 536
4 452 451 392 541
4 521 536 535 549
4 526 566 173 576
4 284 255 277 545
4 532 542 531 545
4 279 553 556 577
4 366 79 196 530
4 528 573 220 579
4 175 168 171 548
4 170 528 180 573
4 528 538 521 541
4 366 196 375 530
4 336 316 436 537
4 535 536 176 549
4 533 534 523 559
4 175 528 170 549
4 318 474 308 563
4 492 490 333 550
4 305 245 391 557
4 81 501 519 537
4 531 521 543 554
4 174 176 536 549
4 227 27 226 538
4 333 334 323 546
4 26 226 27 538
4 376 377 375 530
4 227 226 228 538
4 179 171 168 548
4 323 334 504 546
4 492 422 490 559
4 376 375 196 530
4 230 538 228 557
4 343 396 542 557
4 416 219 457 541
4 476 499 543 551
4 337 319 336 530
4 440 329 300 575
4 173 168 526 576
4 544 562 523 563
4 523 540 533 563
4 304 269 547 559
4 249 532 390 558
4 529 539 521 541
4 259 250 258 556
4 497 526 188 576
4 479 550 505 577
4 23 179 400 548
4 79 78 196 530
4 397 459 186 529
4 186 67 68 539
4 249 247 390 532
4 400 179 1 548
4 385 526 497 576
4 175 171 170 528
4 72 73 546 571
4 252 534 439 569
4 397 186 68 529
4 276 277 255 545
4 426 31 536 566
4 521 554 542 572
4 479 278 550 577
4 276 277 545 561
4 521 531 542 554
4 28 417 29 535
4 28 29 167 535
4 308 449 465 571
4 528 521 539 541
4 255 284 421 545
4 435 317 372 537
4 531 543 529 551
4 252 558 534 569
4 536 554 339 566
4 202 386 389 552
4 361 543 424 551
4 252 257 534 558
4 276 561 545 569
4 470 475 321 547
4 280 505 282 577
4 343 542 408 572
4 523 563 562 574
4 203 475 395 565
4 451 452 221 573
4 169 536 31 566
4 534 540 523 574
4 476 499 361 543
4 538 549 170 573
4 528 170 549 573
4 295 296 285 531
4 423 258 449 571
4 373 507 374 527
4 393 390 305 532
4 265 439 534 574
4 324 543 325 554
4 178 26 27 538
4 286 335 303 555
4 420 421 284 542
4 419 29 417 535
4 221 220 528 573
4 279 281 411 553
4 343 246 396 557
4 74 399 552 571
4 476 68 499 551
4 213 185 76 567
4 354 551 295 561
4 251 252 439 569
4 337 375 377 530
4 295 531 285 561
4 270 544 293 562
4 253 248 251 545
4 368 79 197 530
4 168 548 526 576
4 304 269 303 547
4 200 560 551 578
4 270 290 293 544
4 251 558 252 569
4 69 200 70 560
4 226 538 26 573
4 533 547 534 559
4 373 374 189 527
4 373 369 496 530
4 503 381 81 537
4 221 220 218 528
4 533 563 214 565
4 358 475 478 559
4 77 189 382 568
4 337 377 319 530
4 361 324 424 543
4 29 176 167 535
4 66 188 67 539
4 529 541 532 555
4 510 481 442 574
4 423 449 544 571
4 296 324 325 554
4 74 399 199 552
4 402 188 548 576
4 368 197 369 530
4 252 256 257 558
4 285 296 438 554
4 458 318 481 563
4 72 73 394 546
4 402 548 1 576
4 276 540 561 569
4 339 426 536 566
4 314 434 317 530
4 398 407 555 560
4 31 176 30 536
4 319 316 336 530
4 178 26 538 573
4 314 316 315 530
4 187 214 563 565
4 547 555 407 560
4 360 526 325 543
4 407 470 547 560
4 66 539 215 548
4 343 396 408 542
4 528 521 538 549
4 358 478 334 546
4 481 540 442 574
4 27 228 227 229
4 245 228 538 557
4 69 551 200 560
4 245 538 391 557
4 503 371 381 537
4 218 528 220 579
4 305 247 245 557
4 71 533 214 565
4 79 368 78 530
4 181 33 172 576
4 479 505 280 577
4 526 554 536 566
4 181 173 169 566
4 400 23 1 179
4 390 247 305 532
4 214 533 70 578
4 180 528 171 579
4 252 265 439 534
4 426 32 31 566
4 539 548 528 579
4 230 343 535 557
4 420 554 453 572
4 319 315 316 530
4 547 555 522 558
4 434 372 317 530
4 388 201 568 575
4 308 474 449 544
4 427 339 325 566
4 251 545 558 569
4 407 398 470 560
4 265 331 439 574
4 374 189 527 568
4 356 278 512 562
4 475 203 478 565
4 524 553 552 575
4 338 362 337 537
4 276 540 460 561
4 171 548 179 579
4 333 323 322 550
4 421 542 253 545
4 496 369 372 530
4 534 570 265 574
4 218 217 528 579
4 245 230 228 557
4 257 422 266 570
4 289 299 281 553
4 169 174 176 536
4 201 386 552 575
4 521 542 532 557
4 507 374 527 568
4 496 372 434 530
4 188 526 360 543
4 69 68 476 551
4 195 473 493 537
4 286 393 335 555
4 293 544 458 562
4 335 393 416 555
4 534 547 522 558
4 426 31 242 536
4 276 545 255 569
4 32 169 31 566
4 407 547 303 555
4 256 390 286 558
4 391 245 228 538
4 433 345 378 567
4 187 71 214 565
4 535 538 521 549
4 73 202 546 571
4 385 325 360 526
4 314 317 316 530
4 450 313 380 564
4 338 337 336 537
4 186 216 215 539
4 420 438 453 554
4 293 290 458 544
4 188 499 539 543
4 213 75 199 552
4 407 303 335 555
4 72 465 73 571
4 524 546 544 550
4 214 563 533 578
4 523 540 563 574
4 373 368 369 530
4 260 250 259 556
4 532 545 522 558
4 72 546 394 565
4 522 555 532 558
4 521 538 535 557
4 435 436 317 537
4 389 552 386 575
4 195 493 437 537
4 257 265 534 570
4 544 546 523 550
4 453 554 536 572
4 257 265 252 534
4 25 220 222 573
4 385 566 526 576
4 187 465 72 565
4 202 74 386 552
4 270 293 512 562
4 1 548 168 576
4 395 533 71 565
4 528 549 538 573
4 339 536 453 554
4 237 419 29 417
4 450 380 379 564
4 419 535 343 572
4 218 219 451 541
4 251 254 545 569
4 497 360 188 526
4 66 402 188 548
4 354 551 561 578
4 540 569 442 574
4 439 569 534 574
4 214 231 563 578
4 215 66 67 539
4 501 81 210 537
4 331 265 570 574
4 201 387 386 575
4 343 417 230 535
4 276 442 540 569
4 178 538 170 573
4 453 242 306 536
4 533 559 523 565
4 396 253 421 542
4 382 76 77 568
4 394 73 202 546
4 491 371 209 537
4 453 339 426 536
4 174 177 167 549
4 74 202 73 571
4 280 282 553 577
4 354 424 295 551
4 402 1 34 576
4 33 566 327 576
4 67 499 68 539
4 540 563 514 578
4 400 548 215 579
4 23 548 400 579
4 522 529 555 560
4 1 402 65 548
4 357 561 540 578
4 395 70 71 533
4 381 197 80 537
4 422 269 304 559
4 500 568 329 575
4 378 345 262 567
4 450 379 411 564
4 492 266 422 570
4 255 545 254 569
4 220 221 222 573
4 522 551 529 560
4 435 491 209 537
4 214 70 200 578
4 522 540 534 569
4 478 394 546 565
4 357 460 540 561
4 253 251 254 545
4 357 540 514 578
4 181 566 33 576
4 327 566 385 576
4 294 295 285 561
4 531 522 545 561
4 304 547 321 559
4 435 209 437 537
4 481 514 540 563
4 71 70 214 533
4 67 188 499 539
4 457 398 407 555
4 440 500 329 575
4 260 262 345 567
4 177 175 170 549
4 372 491 435 537
4 533 522 560 578
4 330 359 550 570
4 531 551 522 561
4 408 542 420 572
4 522 547 533 560
4 231 514 563 578
4 497 385 360 526
4 476 361 424 551
4 441 442 569 574
4 210 80 366 537
4 201 386 75 552
4 306 453 536 572
4 507 311 329 568
4 1 168 34 576
4 420 408 421 542
4 388 568 500 575
4 533 540 522 578
4 492 550 359 570
4 304 303 321 547
4 423 449 474 544
4 264 556 263 577
4 276 460 277 561
4 290 474 458 544
4 419 417 343 535
4 210 366 362 537
4 419 343 408 572
4 264 263 270 577
4 325 385 427 566
4 242 453 426 536
4 276 442 460 540
4 335 416 457 555
4 491 381 371 537
4 389 386 387 575
4 173 175 174 549
4 478 203 394 565
4 357 354 561 578
4 255 421 253 545
4 31 169 176 536
4 372 370 491 537
4 276 255 254 569
4 339 427 426 566
4 433 464 345 567
4 69 70 204 560
4 80 81 381 537
4 276 441 442 569
4 218 220 217 579
4 357 294 460 561
4 203 395 71 565
4 388 387 201 575
4 452 538 226 573
4 257 266 265 570
4 473 338 493 537
4 80 210 81 537
4 525 553 552 556
4 66 65 402 548
4 481 514 357 540
4 544 546 524 571
4 400 1 65 548
4 479 330 359 550
4 357 354 294 561
4 473 363 338 537
4 266 492 359 570
4 186 215 67 539
4 552 553 524 556
4 230 246 343 557
4 334 482 504 546
4 213 463 185 567
4 544 550 523 562
4 522 534 558 569
4 231 472 514 578
4 187 214 231 563
4 354 295 294 561
4 226 452 391 538
4 491 370 381 537
4 358 321 475 559
4 214 472 231 578
4 394 202 482 546
4 400 66 215 548
4 374 382 189 568
4 510 293 458 562
4 1 179 168 548
4 178 170 26 573
4 381 370 197 537
4 281 280 282 553
4 261 260 259 556
4 534 523 570 574
4 410 261 264 556
4 299 450 411 564
4 220 24 25 222
4 354 508 424 551
4 508 551 354 578
4 416 392 451 541
4 277 294 285 561
4 551 560 522 578
4 247 246 245 557
4 281 280 553 577
4 552 553 525 575
4 450 301 313 564
4 201 76 382 568
4 501 210 363 537
4 522 558 545 569
4 540 522 561 569
4 470 398 204 560
4 423 474 290 544
4 426 326 32 566
4 256 249 390 558
4 545 561 522 569
4 258 399 449 571
4 523 559 534 570
4 32 33 181 566
4 436 435 437 537
4 322 492 333 550
4 439 441 569 574
4 400 65 66 548
4 228 226 391 538
4 359 322 505 550
4 261 263 264 556
4 253 254 255 545
4 251 439 254 569
4 402 497 188 576
4 261 259 263 556
4 408 396 421 542
4 481 318 514 563
4 331 570 562 574
4 339 453 438 554
4 362 338 363 537
4 436 437 493 537
4 470 321 407 547
4 442 481 460 540
4 69 204 397 560
4 523 563 533 565
4 522 555 547 560
4 416 451 219 541
4 426 427 326 566
4 281 553 279 577
4 362 363 210 537
4 72 394 203 565
4 204 398 397 560
4 296 325 339 554
4 335 457 407 555
4 69 476 200 551
4 308 187 231 563
4 479 280 278 577
4 500 388 329 568
4 260 345 463 567
4 522 540 561 578
4 481 357 460 540
4 227 27 26 226
4 330 266 359 570
4 252 251 249 558
4 564 567 525 568
4 522 561 551 578
4 479 359 505 550
4 527 567 564 568
4 181 169 32 566
4 322 359 492 550
4 399 74 73 571
4 331 356 562 570
4 478 482 334 546
4 336 436 493 537
4 439 331 441 574
4 400 215 217 579
4 303 407 321 547
4 331 330 356 570
4 58 473 518 363
4 311 301 300 564
4 427 385 327 566
4 32 327 33 566
4 324 360 325 543
4 223 226 26 573
4 533 563 540 578
4 230 245 246 557
4 180 171 24 579
4 327 353 33 576
4 388 500 387 575
4 199 75 74 552
4 282 292 289 553
4 562 570 523 574
4 523 562 550 570
4 281 279 280 577
4 336 493 338 537
4 294 277 460 561
4 304 321 358 559
4 443 562 510 574
4 385 353 327 576
4 357 514 472 578
4 452 226 223 573
4 32 426 425 326
4 389 387 328 575
4 426 31 32 425
4 508 200 551 578
4 443 331 562 574
4 422 304 490 559
4 370 371 491 381
4 388 201 382 568
4 386 74 75 552
4 188 360 499 543
4 501 58 518 363
4 318 308 231 563
4 478 394 482 546
4 306 420 453 572
4 282 289 281 553
4 330 331 265 570
4 507 329 374 568
4 534 569 540 574
4 252 249 256 558
4 222 223 25 573
4 441 254 439 569
4 168 172 34 576
4 499 360 361 543
4 185 463 464 567
4 524 556 553 577
4 296 339 438 554
4 408 306 419 572
4 222 221 223 573
4 301 299 300 564
4 233 29 28 417
4 182 43 44 469
4 400 1 23 190
4 200 476 508 551
4 227 26 225 226
4 214 200 472 578
4 72 71 187 565
4 517 209 54 371
4 24 401 220 579
4 441 276 254 569
4 1 400 65 190
4 301 450 299 564
4 331 356 443 562
4 464 463 345 567
4 449 399 465 571
4 174 175 177 549
4 476 424 508 551
4 86 11 12 184
4 1 34 403 402
4 114 115 430 113
4 223 221 452 573
4 182 44 16 469
4 130 15 16 182
4 115 429 430 113
4 25 24 91 307
4 172 33 34 576
4 195 57 473 518
4 426 242 31 425
4 357 472 354 578
4 233 237 29 417
4 417 28 233 229
4 465 399 73 571
4 91 222 25 307
4 329 388 374 568
4 330 265 266 570
4 443 510 442 574
4 520 209 54 517
4 264 270 278 577
4 241 272 125 271
4 444 430 429 113
4 403 65 1 402
4 72 203 71 565
4 304 358 490 559
4 520 57 195 518
4 125 272 241 97
4 235 268 418 166
4 23 171 179 579
4 170 180 25 573
4 324 361 360 543
4 430 444 114 113
4 15 43 182 469
4 20 49 85 183
4 401 23 24 448
4 30 239 237 238
4 220 401 217 579
4 24 25 222 307
4 63 7 62 88
4 24 171 23 579
4 306 408 420 572
4 240 31 30 242
4 85 19 20 183
4 510 443 293 562
4 25 223 26 573
4 275 425 32 123
4 503 519 53 517
4 272 125 99 97
4 231 514 318 563
4 53 503 517 371
4 519 58 518 501
4 409 222 25 91
4 91 409 222 307
4 272 99 125 271
4 23 401 24 579
4 94 147 141 484
4 400 401 23 579
4 374 388 382 568
4 166 268 418 111
4 443 441 331 574
4 23 24 448 95
4 494 49 48 183
4 425 31 32 123
4 85 49 494 183
4 224 124 26 234
4 418 129 83 413
4 83 140 418 413
4 302 347 346 100
4 508 472 200 578
4 275 32 425 326
4 170 25 26 573
4 91 291 409 384
4 500 440 328 575
4 217 401 400 579
4 225 27 26 227
4 166 418 235 129
4 223 225 26 226
4 117 274 428 287
4 243 244 273 144
4 104 140 341 456
4 225 224 26 234
4 239 240 30 242
4 24 401 448 307
4 288 33 32 327
4 224 25 124 409
4 409 25 124 91
4 102 125 271 412
4 232 28 27 229
4 297 121 142 351
4 291 91 96 384
4 127 128 236 82
4 29 30 237 238
4 103 102 332 342
4 207 16 44 469
4 123 32 275 92
4 443 442 441 574
4 342 102 332 341
4 92 32 275 288
4 209 54 55 520
4 341 140 412 456
4 353 33 34 513
4 127 236 128 404
4 520 57 56 195
4 519 59 58 501
4 271 102 412 341
4 332 101 103 342
4 227 232 27 229
4 100 347 346 105
4 147 206 141 484
4 418 129 140 83
4 124 83 26 234
4 124 409 91 97
4 500 328 387 575
4 103 102 101 332
4 414 302 272 100
4 104 140 102 341
4 409 124 241 97
4 346 302 100 105
4 138 383 448 405
4 84 240 30 238
4 437 520 56 195
4 233 232 28 235
4 97 272 291 98
4 222 220 24 307
4 128 236 267 404
4 425 240 31 244
4 443 512 293 562
4 142 415 297 351
4 243 240 84 238
4 225 83 27 413
4 267 236 128 82
4 152 92 275 288
4 412 418 140 413
4 275 152 288 283
4 103 102 342 341
4 16 130 182 469
4 39 38 515 184
4 418 166 111 129
4 487 150 106 194
4 127 84 30 238
4 28 233 235 82
4 224 26 25 223
4 109 298 110 108
4 81 519 3 503
4 117 118 274 287
4 268 267 158 166
4 409 291 91 97
4 326 288 32 327
4 508 354 472 578
4 99 272 302 100
4 141 365 94 484
4 126 34 33 513
4 82 235 28 129
4 95 383 448 138
4 118 274 428 117
4 55 209 520 437
4 291 91 97 96
4 91 384 307 95
4 120 117 349 287
4 244 31 425 123
4 332 99 101 414
4 125 102 140 412
4 288 32 275 326
4 137 193 156 485
4 99 272 97 98
4 298 110 431 109
4 232 28 235 129
4 98 100 302 105
4 25 224 222 409
4 348 120 349 287
4 244 273 144 118
4 33 353 34 576
4 27 225 413 227
4 105 100 347 139
4 95 384 383 164
4 150 194 432 86
4 332 272 99 414
4 243 84 127 238
4 241 224 124 409
4 225 26 83 234
4 126 137 156 485
4 236 267 235 82
4 272 302 291 98
4 87 138 7 205
4 425 275 244 123
4 155 1 64 190
4 119 152 274 283
4 27 26 83 225
4 443 356 512 562
4 489 445 151 113
4 272 99 414 100
4 105 347 498 139
4 33 32 92 288
4 111 309 268 456
4 182 130 15 469
4 4 0 163 506
4 25 224 223 222
4 155 138 448 405
4 116 445 429 113
4 297 415 142 283
4 347 498 346 105
4 310 430 114 404
4 138 87 164 205
4 302 346 98 105
4 235 233 236 82
4 119 274 118 287
4 242 240 31 425
4 120 133 122 348
4 275 274 244 123
4 118 117 119 287
4 385 497 353 576
4 34 353 402 576
4 98 346 340 146
4 513 156 193 485
4 152 275 274 283
4 238 127 243 404
4 401 24 220 307
4 401 400 23 190
4 234 125 83 412
4 297 120 121 350
4 20 49 198 85
4 133 120 135 348
4 244 243 84 144
4 164 383 138 205
4 93 509 4 483
4 513 126 156 485
4 288 92 415 283
4 415 92 142 283
4 509 4 0 161
4 384 383 448 95
4 138 63 7 205
4 310 128 267 404
4 432 468 347 139
4 132 162 208 488
4 65 64 1 190
4 130 207 145 495
4 133 122 348 486
4 115 428 429 116
4 302 346 340 98
4 207 45 16 145
4 0 4 60 506
4 60 4 0 509
4 24 91 307 95
4 406 63 62 88
4 271 272 99 332
4 448 95 138 155
4 271 99 102 332
4 93 4 5 483
4 480 355 89 109
4 412 102 140 341
4 194 150 154 86
4 138 383 405 205
4 307 448 24 95
4 7 8 63 138
4 244 240 31 84
4 278 280 279 577
4 60 5 4 483
4 234 83 225 413
4 33 353 352 513
4 17 45 462 145
4 278 279 264 577
4 89 107 480 109
4 283 274 119 287
4 275 274 123 152
4 124 224 241 234
4 365 141 206 484
4 273 429 430 115
4 448 401 23 190
4 348 297 120 287
4 16 44 45 207
4 291 409 241 97
4 111 158 268 108
4 42 15 14 89
4 517 54 53 371
4 20 49 50 198
4 405 155 64 190
4 211 93 157 134
4 310 114 444 110
4 130 145 112 495
4 235 267 268 166
4 29 236 233 82
4 194 12 39 515
4 448 155 405 190
4 88 159 208 488
4 30 240 239 238
4 409 91 384 307
4 83 234 412 413
4 309 111 104 456
4 454 104 103 341
4 509 60 4 483
4 232 27 129 413
4 92 275 123 152
4 446 192 445 151
4 151 462 445 489
4 140 83 412 413
4 430 243 273 144
4 307 384 448 95
4 267 158 298 268
4 207 462 45 145
4 17 45 46 462
4 238 236 127 404
4 1 64 403 156
4 28 232 233 229
4 37 38 11 468
4 267 235 82 166
4 150 154 106 194
4 468 432 86 139
4 444 430 114 310
4 64 8 1 155
4 132 162 483 208
4 51 21 50 466
4 148 20 50 198
4 414 99 101 100
4 444 445 489 113
4 64 1 8 156
4 26 224 225 223
4 207 112 145 495
4 112 444 113 110
4 94 4 163 506
4 144 84 244 118
4 83 129 27 413
4 162 208 488 467
4 468 11 37 149
4 31 244 84 123
4 353 327 33 352
4 511 19 136 85
4 96 384 95 164
4 146 98 346 105
4 16 207 130 469
4 161 509 4 93
4 234 271 125 412
4 494 198 49 85
4 118 84 244 123
4 489 462 207 145
4 128 267 82 166
4 454 103 342 341
4 50 21 148 466
4 291 241 272 97
4 477 41 13 143
4 158 298 268 108
4 158 268 166 111
4 152 92 288 283
4 138 95 383 164
4 405 63 138 205
4 113 444 114 110
4 125 241 271 234
4 119 120 297 287
4 118 244 274 123
4 138 8 63 405
4 349 446 428 117
4 515 432 194 86
4 51 52 22 211
4 145 16 207 130
4 297 142 119 283
4 111 268 309 108
4 115 430 273 144
4 355 191 480 89
4 116 115 428 117
4 152 274 118 119
4 110 444 310 431
4 413 232 27 227
4 87 7 62 205
4 112 489 444 431
4 38 11 468 86
4 9 36 10 147
4 129 418 232 413
4 63 406 193 137
4 139 498 141 149
4 133 348 461 486
4 198 50 148 466
4 104 111 309 108
4 165 114 430 404
4 212 94 365 484
4 65 1 64 403
4 273 428 429 115
4 487 101 332 342
4 110 112 444 431
4 125 124 241 234
4 0 35 163 506
4 157 51 22 211
4 515 194 154 86
4 144 115 430 114
4 60 2 0 506
4 50 21 20 148
4 60 0 2 509
4 236 29 237 238
4 102 125 99 271
4 53 3 519 503
4 509 0 52 161
4 208 162 483 467
4 233 28 29 82
4 119 120 121 297
4 348 135 133 461
4 412 140 418 456
4 365 364 346 105
4 494 511 447 85
4 10 36 37 206
4 19 18 511 136
4 159 208 132 88
4 236 237 29 233
4 111 418 140 456
4 116 428 446 117
4 454 104 341 456
4 165 430 243 404
4 273 244 274 118
4 206 10 36 147
4 19 511 494 85
4 116 151 445 113
4 340 291 96 384
4 211 157 51 466
4 302 272 99 98
4 64 193 403 156
4 92 152 142 283
4 89 480 160 455
4 34 403 402 353
4 120 122 121 350
4 62 87 205 367
4 349 135 117 120
4 102 103 104 341
4 140 83 125 412
4 111 268 418 456
4 154 12 194 515
4 429 445 444 113
4 160 89 502 143
4 111 418 129 140
4 126 92 142 415
4 91 96 384 95
4 26 25 124 224
4 120 297 348 350
4 45 17 16 145
4 487 106 101 342
4 154 12 515 86
4 102 271 332 341
4 340 364 383 146
4 131 94 365 212
4 124 125 83 234
4 515 38 468 86
4 454 309 104 456
4 10 37 11 149
4 41 13 40 477
4 100 302 99 98
4 291 302 340 98
4 90 17 46 462
4 89 355 130 109
4 113 151 489 112
4 446 349 116 117
4 115 273 428 118
4 41 14 13 143
4 497 402 353 576
4 89 14 42 502
4 151 446 192 136
4 162 93 132 483
4 116 429 115 113
4 0 22 52 161
4 29 236 127 238
4 351 121 159 350
4 5 60 61 483
4 431 355 298 109
4 9 36 147 484
4 118 428 115 117
4 268 298 309 108
4 349 135 120 348
4 498 206 141 149
4 35 9 0 163
4 155 23 1 190
4 155 448 23 190
4 160 480 107 454
4 15 43 469 191
4 157 211 134 466
4 351 297 121 350
4 352 126 33 513
4 146 383 340 164
4 235 418 232 129
4 274 428 273 118
4 198 148 20 85
4 35 0 2 506
4 87 364 146 164
4 462 90 17 145
4 52 2 0 509
4 347 302 414 100
4 489 151 462 112
4 130 469 355 191
4 501 519 3 81
4 155 64 8 405
4 446 136 116 135
4 93 211 467 134
4 127 165 243 404
4 119 121 142 297
4 12 515 86 184
4 162 132 159 488
4 519 3 59 501
4 194 487 150 432
4 488 351 159 350
4 193 64 8 156
4 109 355 298 108
4 350 348 122 486
4 135 116 349 117
4 327 288 33 352
4 142 121 153 351
4 232 27 28 129
4 191 355 130 89
4 47 18 192 511
4 346 364 340 146
4 414 347 150 432
4 415 142 153 351
4 30 31 240 84
4 136 447 511 85
4 106 487 194 516
4 131 6 5 367
4 349 135 348 461
4 243 240 244 84
4 205 87 364 367
4 11 468 86 149
4 101 102 99 332
4 107 309 355 108
4 6 131 87 367
4 367 131 365 212
4 120 119 117 287
4 57 58 473 518
4 30 29 127 238
4 428 446 429 116
4 43 15 42 191
4 495 112 130 109
4 468 37 206 149
4 17 46 18 90
4 148 21 157 466
4 37 10 206 149
4 117 428 349 287
4 139 468 498 149
4 123 274 118 152
4 446 445 429 116
4 90 192 18 136
4 511 18 192 136
4 124 125 241 97
4 153 126 142 485
4 4 94 212 506
4 353 34 403 513
4 60 4 5 212
4 355 309 298 108
4 62 208 406 88
4 41 477 502 143
4 149 206 141 147
4 137 406 193 485
4 310 110 431 298
4 267 158 310 298
4 119 297 283 287
4 127 236 29 82
4 432 347 150 139
4 21 51 157 466
4 162 159 122 488
4 136 151 446 116
4 90 46 192 462
4 149 10 206 147
4 64 63 8 405
4 133 148 198 85
4 126 153 137 485
4 64 8 63 193
4 147 36 206 484
4 406 159 88 488
4 430 243 144 165
4 447 136 135 85
4 62 7 6 88
4 414 150 347 100
4 107 480 309 454
4 15 42 191 89
4 192 18 46 90
4 332 101 487 414
4 94 5 4 212
4 126 92 415 352
4 105 498 141 139
4 96 291 340 98
4 36 9 35 484
4 140 104 111 456
4 103 107 104 454
4 158 128 267 310
4 243 84 165 127
4 480 160 455 454
4 191 480 89 455
4 364 383 146 164
4 309 104 107 454
4 488 122 162 467
4 461 447 135 85
4 96 97 291 98
4 161 22 52 211
4 122 133 134 486
4 160 107 480 89
4 106 487 516 342
4 159 132 208 488
4 106 103 101 342
4 136 446 447 135
4 113 489 444 112
4 211 467 134 466
4 351 159 406 488
4 207 489 112 495
4 5 132 93 483
4 446 447 192 136
4 206 498 468 149
4 415 142 126 485
4 288 92 33 352
4 462 489 112 145
4 8 63 193 137
4 8 138 155 405
4 137 153 406 485
4 461 198 133 486
4 13 154 477 143
4 502 89 14 143
4 103 342 455 454
4 135 133 461 85
4 403 34 1 156
4 61 5 367 212
4 92 126 33 352
4 467 162 93 134
4 143 502 160 455
4 103 160 107 454
4 160 103 455 454
4 139 86 468 149
4 355 480 309 107
4 502 89 160 455
4 6 7 62 87
4 60 4 212 506
4 502 191 89 455
4 122 120 348 350
4 112 489 207 145
4 95 448 23 155
4 498 347 468 139
4 128 158 114 310
4 153 415 351 485
4 90 462 151 112
4 131 365 364 367
4 153 159 406 351
4 133 148 134 486
4 88 208 406 488
4 206 141 365 498
4 87 62 6 367
4 520 56 55 437
4 469 495 130 355
4 63 8 7 137
4 467 488 122 350
4 150 347 100 139
4 152 119 142 283
4 495 431 112 109
4 468 432 515 86
4 194 40 154 477
4 349 447 446 135
4 193 403 156 513
4 466 134 148 486
4 86 432 150 139
4 85 494 19 183
4 406 159 153 88
4 498 141 365 105
4 61 60 5 212
4 46 47 18 192
4 415 153 142 485
4 110 112 431 109
4 61 5 6 367
4 469 130 15 191
4 106 101 150 487
4 161 52 509 211
4 147 163 9 484
4 5 132 483 208
4 14 41 502 143
4 105 365 364 131
4 94 365 141 131
4 107 104 309 108
4 110 310 158 298
4 466 148 198 486
4 22 161 157 211
4 106 516 477 143
4 154 40 13 477
4 365 346 498 105
4 163 35 9 484
4 235 82 166 129
4 21 51 22 157
4 90 462 112 145
4 349 447 135 461
4 288 415 92 352
4 161 93 157 211
4 461 133 198 85
4 6 132 208 88
4 342 516 106 455
4 467 122 162 134
4 146 346 364 105
4 116 349 446 135
4 89 42 191 502
4 148 133 198 486
4 483 93 211 467
4 484 94 163 506
4 121 122 159 350
4 134 148 157 466
4 109 107 355 108
4 163 147 94 484
4 355 495 130 109
4 243 84 144 165
4 159 153 121 351
4 40 13 12 154
4 515 12 39 184
4 484 163 35 506
4 87 131 364 367
4 61 6 62 367
4 63 62 7 205
4 340 96 98 146
4 340 96 146 164
4 483 61 5 208
4 131 364 146 87
4 516 194 154 477
4 8 193 156 137
4 516 477 143 455
4 351 406 153 485
4 93 161 509 211
4 158 114 310 110
4 158 110 298 108
4 350 122 467 486
4 151 192 90 136
4 208 62 6 88
4 477 154 106 143
4 126 156 34 513
4 267 128 158 166
4 106 516 143 455
4 18 47 19 511
4 495 130 207 469
4 447 461 494 85
4 134 467 122 486
4 414 150 487 432
4 447 511 192 136
4 162 93 483 467
4 273 115 144 118
4 445 446 151 116
4 494 461 198 85
4 431 112 489 495
4 194 154 106 516
4 516 154 106 477
4 191 130 15 89
4 211 509 93 483
4 114 430 144 165
4 143 160 106 455
4 484 212 94 506
4 128 165 127 404
4 41 42 14 502
4 355 480 107 109
4 488 159 122 350
4 494 48 19 183
4 101 150 487 414
4 88 153 406 137
4 352 415 126 485
4 101 150 414 100
4 47 48 19 511
4 431 495 355 109
4 511 48 19 494
4 156 403 34 513
4 466 467 134 486
4 477 502 143 455
4 61 62 6 208
4 105 364 146 131
4 105 141 365 131
4 513 352 126 485
4 544 556 571 524
4 571 556 544 423
4 544 556 577 263
4 577 556 544 524
4 571 308 565 465
4 571 565 308 544
4 541 391 452 538
4 541 452 391 392
4 556 411 279 410
4 556 279 411 553
4 541 305 393 392
4 541 393 305 532
4 300 553 564 289
4 579 216 215 217
4 579 215 216 539
4 577 282 550 505
4 577 550 282 553
4 553 564 411 525
4 411 564 553 299
4 549 167 178 177
4 549 178 167 535
4 564 575 553 300
4 553 575 564 525
4 555 459 541 457
4 555 541 459 529
4 503 519 537 81
4 537 519 503 517
4 568 300 311 329
4 568 311 300 564
4 563 474 458 318
4 563 458 474 544
4 543 68 539 529
4 543 539 68 499
4 559 257 570 422
4 559 570 257 534
4 549 178 170 177
4 549 170 178 538
4 554 324 531 296
4 554 531 324 543
4 576 181 173 172
4 576 173 181 566
4 557 396 248 246
4 557 248 396 542
4 328 575 292 553
4 328 292 575 440
4 289 292 575 553
4 289 575 292 440
4 556 279 264 410
4 556 264 279 577
4 557 572 521 542
4 521 572 557 535
4 570 356 550 330
4 570 550 356 562
4 479 550 356 330
4 326 566 327 32
4 327 566 326 427
4 63 88 137 7
4 137 88 63 406
4 30 237 419 29
4 419 237 30 239
4 419 535 30 29
4 164 384 340 96
4 164 340 384 383
4 205 164 364 87
4 205 364 164 383
4 404 114 128 165
4 404 128 114 310
4 38 86 184 11
4 184 86 38 515
4 131 212 5 94
4 5 212 131 367
4 12 194 40 154
4 40 194 12 39
4 151 462 192 445
4 151 192 462 90
4 103 455 106 160
4 106 455 103 342
4 5 208 6 132
4 6 208 5 61
4 550 356 278 479
4 550 278 356 562
4 30 419 572 535
4 572 419 30 239
4 572 536 30 535
4 30 536 572 239

CELL_TYPES 2916
1
1
1
1
3
3
3
3
3
3
3
3
3
3
3
3
3
3
3
3
3
3
3
3
3
3
3
3
3
3
3
3
3
3
3
3
3
3
3
3
3
3
3
3
3
3
3
3
3
3
3
3
3
3
3
3
3
3
3
3
3
3
3
3
3
3
3
3
3
3
3
3
3
3
3
3
3
3
3
3
3
3
3
3
3
3
3
3
5
5
5
5
5
5
5
5
5
5
5
5
5
5
5
5
5
5
5
5
5
5
5
5
5
5
5
5
5
5
5
5
5
5
5
5
5
5
5
5
5
5
5
5
5
5
5
5
5
5
5
5
5
5
5
5
5
5
5
5
5
5
5
5
5
5
5
5
5
5
5
5
5
5
5
5
5
5
5
5
5
5
5
5
5
5
5
5
5
5
5
5
5
5
5
5
5
5
5
5
5
5
5
5
5
5
5
5
5
5
5
5
5
5
5
5
5
5
5
5
5
5
5
5
5
5
5
5
5
5
5
5
5
5
5
5
5
5
5
5
5
5
5
5
5
5
5
5
5
5
5
5
5
5
5
5
5
5
5
5
5
5
5
5
5
5
5
5
5
5
5
5
5
5
5
5
5
5
5
5
5
5
5
5
5
5
5
5
5
5
5
5
5
5
5
5
5
5
5
5
5
5
5
5
5
5
5
5
5
5
5
5
5
5
5
5
5
5
5
5
5
5
5
5
5
5
5
5
5
5
5
5
5
5
5
5
5
5
5
5
5
5
5
5
5
5
5
5
5
5
5
5
5
5
5
5
5
5
5
5
5
5
5
5
5
5
5
5
5
5
5
5
5
5
5
5
5
5
5
5
5
5
5
5
5
5
5
5
5
5
5
5
5
5
5
5
5
5
5
5
5
5
5
5
5
5
5
5
5
5
5
5
5
5
5
5
5
5
5
5
5
5
5
5
5
5
5
5
5
5
5
5
5
5
5
5
5
5
5
5
5
5
5
5
5
5
5
5
5
5
5
5
5
5
5
5
5
5
5
5
5
5
5
5
5
5
5
5
5
5
5
5
5
5
5
5
5
5
5
5
5
5
5
5
5
5
5
5
5
5
5
5
5
5
5
5
5
5
5
5
5
5
5
5
5
5
5
5
5
5
5
5
5
5
5
5
5
5
5
5
5
5
5
5
5
5
5
5
5
5
5
5
5
5
5
5
5
5
5
5
5
5
5
5
5
5
5
5
5
5
5
5
5
5
5
5
5
5
5
5
5
5
5
5
5
5
5
5
5
5
5
5
5
5
5
5
5
5
5
5
5
5
5
5
5
5
5
5
5
5
5
5
5
5
5
5
5
5
5
5
5
5
5
5
5
5
5
5
5
5
5
5
5
5
5
5
5
5
5
5
5
5
5
5
5
5
5
5
5
5
5
5
5
5
5
5
5
5
5
5
5
5
5
5
5
5
5
5
5
5
5
5
5
5
5
5
5
5
5
5
5
5
5
5
5
5
5
5
5
5
5
5
5
5
5
5
5
5
5
5
5
5
5
5
5
5
5
5
5
5
5
5
5
5
5
5
5
5
5
5
5
5
5
5
5
5
5
5
5
5
5
5
5
5
5
5
5
5
5
5
5
5
5
5
5
5
5
5
5
5
5
5
5
5
5
5
5
5
5
5
5
5
5
5
5
5
5
5
5
5
5
5
5
5
5
5
5
5
5
5
5
5
5
5
5
5
5
5
5
5
5
5
5
5
5
5
5
5
5
5
5
5
5
5
5
5
5
5
5
5
5
5
5
5
5
5
5
5
5
5
5
5
5
5
5
5
5
5
5
5
5
5
5
5
5
5
5
5
5
5
5
5
5
5
5
5
5
5
5
5
5
5
5
5
5
5
5
5
5
5
5
5
5
5
5
5
5
5
5
5
5
5
5
5
5
5
5
5
5
5
5
5
5
5
5
5
5
5
5
5
5
5
5
5
5
5
5
5
5
5
5
5
5
5
5
5
5
5
5
5
5
5
5
5
5
5
5
5
5
5
5
5
5
5
5
5
5
5
5
5
5
5
5
5
5
5
5
5
5
5
5
5
5
5
5
5
5
5
5
5
5
5
5
5
5
5
5
5
5
5
5
5
5
5
5
5
5
5
5
5
5
5
5
5
5
5
5
5
5
5
5
5
5
5
5
5
5
5
5
5
5
5
5
5
5
5
5
5
5
5
5
5
5
5
5
5
5
5
5
5
5
5
5
5
5
5
5
5
5
5
5
5
5
5
5
5
5
5
5
5
5
5
5
5
5
5
5
5
5
5
5
5
5
5
5
5
5
5
5
5
5
5
5
5
5
5
5
5
5
5
5
5
5
5
5
5
5
5
5
5
5
5
5
5
5
5
5
5
5
5
5
5
5
5
5
5
5
5
5
5
5
5
5
5
5
5
5
5
5
5
5
5
5
5
5
5
5
5
5
5
5
5
5
5
5
5
5
5
5
5
5
5
5
5
5
5
5
5
5
5
5
5
5
5
5
5
5
5
5
5
5
5
5
5
5
5
5
5
5
5
5
5
5
5
5
5
5
5
10
10
10
10
10
10
10
10
10
10
10
10
10
10
10
10
10
10
10
10
10
10
10
10
10
10
10
10
10
10
10
10
10
10
10
10
10
10
10
10
10
10
10
10
10
10
10
10
10
10
10
10
10
10
10
10
10
10
10
10
10
10
10
10
10
10
10
10
10
10
10
10
10
10
10
10
10
10
10
10
10
10
10
10
10
10
10
10
10
10
10
10
10
10
10
10
10
10
10
10
10
10
10
10
10
10
10
10
10
10
10
10
10
10
10
10
10
10
10
10
10
10
10
10
10
10
10
10
10
10
10
10
10
10
10
10
10
10
10
10
10
10
10
10
10
10
10
10
10
10
10
10
10
10
10
10
10
10
10
10
10
10
10
10
10
10
10
10
10
10
10
10
10
10
10
10
10
10
10
10
10
10
10
10
10
10
10
10
10
10
10
10
10
10
10
10
10
10
10
10
10
10
10
10
10
10
10
10
10
10
10
10
10
10
10
10
10
10
10
10
10
10
10
10
10
10
10
10
10
10
10
10
10
10
10
10
10
10
10
10
10
10
10
10
10
10
10
10
10
10
10
10
10
10
10
10
10
10
10
10
10
10
10
10
10
10
10
10
10
10
10
10
10
10
10
10
10
10
10
10
10
10
10
10
10
10
10
10
10
10
10
10
10
10
10
10
10
10
10
10
10
10
10
10
10
10
10
10
10
10
10
10
10
10
10
10
10
10
10
10
10
10
10
10
10
10
10
10
10
10
10
10
10
10
10
10
10
10
10
10
10
10
10
10
10
10
10
10
10
10
10
10
10
10
10
10
10
10
10
10
10
10
10
10
10
10
10
10
10
10
10
10
10
10
10
10
10
10
10
10
10
10
10
10
10
10
10
10
10
10
10
10
10
10
10
10
10
10
10
10
10
10
10
10
10
10
10
10
10
10
10
10
10
10
10
10
10
10
10
10
10
10
10
10
10
10
10
10
10
10
10
10
10
10
10
10
10
10
10
10
10
10
10
10
10
10
10
10
10
10
10
10
10
10
10
10
10
10
10
10
10
10
10
10
10
10
10
10
10
10
10
10
10
10
10
10
10
10
10
10
10
10
10
10
10
10
10
10
10
10
10
10
10
10
10
10
10
10
10
10
10
10
10
10
10
10
10
10
10
10
10
10
10
10
10
10
10
10
10
10
10
10
10
10
10
10
10
10
10
10
10
10
10
10
10
10
10
10
10
10
10
10
10
10
10
10
10
10
10
10
10
10
10
10
10
10
10
10
10
10
10
10
10
10
10
10
10
10
10
10
10
10
10
10
10
10
10
10
10
10
10
10
10
10
10
10
10
10
10
10
10
10
10
10
10
10
10
10
10
10
10
10
10
10
10
10
10
10
10
10
10
10
10
10
10
10
10
10
10
10
10
10
10
10
10
10
10
10
10
10
10
10
10
10
10
10
10
10
10
10
10
10
10
10
10
10
10
10
10
10
10
10
10
10
10
10
10
10
10
10
10
10
10
10
10
10
10
10
10
10
10
10
10
10
10
10
10
10
10
10
10
10
10
10
10
10
10
10
10
10
10
10
10
10
10
10
10
10
10
10
10
10
10
10
10
10
10
10
10
10
10
10
10
10
10
10
10
10
10
10
10
10
10
10
10
10
10
10
10
10
10
10
10
10
10
10
10
10
10
10
10
10
10
10
10
10
10
10
10
10
10
10
10
10
10
10
10
10
10
10
10
10
10
10
10
10
10
10
10
10
10
10
10
10
10
10
10
10
10
10
10
10
10
10
10
10
10
10
10
10
10
10
10
10
10
10
10
10
10
10
10
10
10
10
10
10
10
10
10
10
10
10
10
10
10
10
10
10
10
10
10
10
10
10
10
10
10
10
10
10
10
10
10
10
10
10
10
10
10
10
10
10
10
10
10
10
10
10
10
10
10
10
10
10
10
10
10
10
10
10
10
10
10
10
10
10
10
10
10
10
10
10
10
10
10
10
10
10
10
10
10
10
10
10
10
10
10
10
10
10
10
10
10
10
10
10
10
10
10
10
10
10
10
10
10
10
10
10
10
10
10
10
10
10
10
10
10
10
10
10
10
10
10
10
10
10
10
10
10
10
10
10
10
10
10
10
10
10
10
10
10
10
10
10
10
10
10
10
10
10
10
10
10
10
10
10
10
10
10
10
10
10
10
10
10
10
10
10
10
10
10
10
10
10
10
10
10
10
10
10
10
10
10
10
10
10
10
10
10
10
10
10
10
10
10
10
10
10
10
10
10
10
10
10
10
10
10
10
10
10
10
10
10
10
10
10
10
10
10
10
10
10
10
10
10
10
10
10
10
10
10
10
10
10
10
10
10
10
10
10
10
10
10
10
10
10
10
10
10
10
10
10
10
10
10
10
10
10
10
10
10
10
10
10
10
10
10
10
10
10
10
10
10
10
10
10
10
10
10
10
10
10
10
10
10
10
10
10
10
10
10
10
10
10
10
10
10
10
10
10
10
10
10
10
10
10
10
10
10
10
10
10
10
10
10
10
10
10
10
10
10
10
10
10
10
10
10
10
10
10
10
10
10
10
10
10
10
10
10
10
10
10
10
10
10
10
10
10
10
10
10
10
10
10
10
10
10
10
10
10
10
10
10
10
10
10
10
10
10
10
10
10
10
10
10
10
10
10
10
10
10
10
10
10
10
10
10
10
10
10
10
10
10
10
10
10
10
10
10
10
10
10
10
10
10
10
10
10
10
10
10
10
10
10
10
10
10
10
10
10
10
10
10
10
10
10
10
10
10
10
10
10
10
10
10
10
10
10
10
10
10
10
10
10
10
10
10
10
10
10
10
10
10
10
10
10
10
10
10
10
10
10
10
10
10
10
10
10
10
10
10
10
10
10
10
10
10
10
10
10
10
10
10
10
10
10
10
10
10
10
10
10
10
10
10
10
10
10
10
10
10
10
10
10
10
10
10
10
10
10
10
10
10
10
10
10
10
10
10
10
10
10
10
10
10
10
10
10
10
10
10
10
10
10
10
10
10
10
10
10
10
10
10
10
10
10
10
10
10
10
10
10
10
10
10
10
10
10
10
10
10
10
10
10
10
10
10
10
10
10
10
10
10
10
10
10
10
10
10
10
10
10
10
10
10
10
10
10
10
10
10
10
10
10
10
10
10
10
10
10
10
10
10
10
10
10
10
10
10
10
10
10
10
10
10
10
10
10
10
10
10
10
10
10
10
10
10
10
10
10
10
10
10
10
10
10
10
10
10
10
10
10
10
10
10
10
10
10
10
10
10
10
10
10
10
10
10
10
10
10
10
10
10
10
10
10
10
10
10
10
10
10
10
10
10
10
10
10
10
10
10
10
10
10
10
10
10
10
10
10
10
10
10
10
10
10
10
10
10
10
10
10
10
10
10
10
10
10
10
10
10
10
10
10
10
10
10
10
10
10
10
10
10
10
10
10
10
10
10
10
10
10
10
10
10
10
10
10
10
10
10
10
10
10
10
10
10
10
10
10
10
10
10
10
10
10
10
10
10
10
10
10
10
10
10
10
10
10
10
10
10
10
10
10
10
10
10
10
10
10
10
10
10
10
10
10
10
10
10
10
10
10
10
10
10
10
10
10
10
10
10
10
10
10
10
10
10
10
10
10
10
10
10
10
10
10
10
10
10
10
10
10
10
10
10
10
10
10
10
10
10
10
10
10
10
10
10
10
10
10
10
10
10
10
10
10
10
10
10
10
10
10
10
10
10
10
10
10
10
10
10
10
10
10
10
10
10
10
10
10
10
10
10
10
10
10
10
10
10
10
10
10
10
10
10
10
10
10
10
10
10
10
10
10
10
10
10
10
10
10
10
10
10
10
10
10
10
10
10
10
10
10
10
10
10
10
10
10
10
10
10
10
10
10
10
10
10
10
10
10
10
10
10
10
10
10
10
10
10
10
10
10
10
10
10
10
10
10
10
10
10
10
10
10
10
10
10
10
10
10
10
10
10
10
10
10
10
10
10
10
10
10
10
10
10
10
10
10
10
10
10
10
10
10
10
10
10
10
10
10
