# vtk DataFile Version 2.0
whisker_body, Created by Gmsh 4.13.1 
ASCII
DATASET UNSTRUCTURED_GRID
POINTS 603 double
10 0 0
6.85193172701526 0 40
12 0 0
5.70386345403052 0 80
9.713811975183205 0 3.636363636363637
9.42762395036641 0 7.272727272727273
9.141435925549617 0 10.90909090909091
8.855247900732822 0 14.54545454545455
8.569059875916027 0 18.18181818181818
8.282871851099232 0 21.81818181818182
7.996683826282438 0 25.45454545454545
7.710495801465644 0 29.09090909090909
7.424307776648849 0 32.72727272727273
7.138119751832054 0 36.36363636363637
9.238795325112871 3.826834323650888 0
7.071067811865488 7.071067811865462 0
3.826834323650923 9.238795325112857 0
3.391901413832837e-14 10 0
-3.826834323650852 9.238795325112886 0
-7.071067811865434 7.071067811865516 0
-9.238795325112843 3.826834323650956 0
-10 7.227892037515737e-14 0
-9.238795325112898 -3.826834323650822 0
-7.07106781186552 -7.07106781186543 0
-3.826834323650945 -9.238795325112848 0
-4.624589118372729e-14 -10 0
3.826834323650859 -9.238795325112884 0
7.071067811865461 -7.071067811865489 0
9.238795325112864 -3.826834323650904 0
5.76421177206964 3.704433970043481 40
2.846395307466067 6.232736328877828 40
-0.9751315555897926 6.782188941703951 40
-4.487061039696221 5.178344486196201 40
-6.574380347757399 1.930412244754893 40
-6.574380347757381 -1.930412244754955 40
-4.487061039696167 -5.178344486196248 40
-0.9751315555897325 -6.782188941703959 40
2.846395307466102 -6.232736328877813 40
5.764211772069647 -3.704433970043469 40
11.34980690040761 3.896393630456207 0
9.469686112756717 7.370552552276022 0
6.563377897469113 10.04599773915035 0
2.945825845689581 11.63280319127197 0
-0.9909521456679979 11.95901391608004 0
-4.820345095835646 10.98927991986068 0
-8.127378859508902 8.82868692807757 0
-10.55368501447787 5.71136871644487 0
-11.83633564083267 1.975135083368787 0
-11.83633564083267 -1.975135083368821 0
-10.55368501447786 -5.711368716444897 0
-8.12737885950888 -8.828686928077589 0
-4.820345095835619 -10.9892799198607 0
-0.9909521456679715 -11.95901391608004 0
2.945825845689616 -11.63280319127196 0
6.563377897469155 -10.04599773915032 0
9.469686112756747 -7.370552552275983 0
11.34980690040762 -3.896393630456205 0
4.369412903269498 3.666372755594688 80
0.9904654944534007 5.617208951652248 80
-2.851931727015263 4.939690650908082 80
-5.359878397722907 1.950836196057551 80
-5.359878397722898 -1.950836196057576 80
-2.851931727015253 -4.939690650908087 80
0.9904654944534206 -5.617208951652245 80
4.369412903269518 -3.666372755594664 80
11.70018397400145 0 3.80952380952381
11.40036794800291 0 7.61904761904762
11.10055192200436 0 11.42857142857143
10.80073589600581 0 15.23809523809524
10.50091987000727 0 19.04761904761905
10.20110384400872 0 22.85714285714286
9.901287818010173 0 26.66666666666667
9.601471792011626 0 30.47619047619048
9.301655766013079 0 34.28571428571429
9.001839740014532 0 38.0952380952381
8.702023714015986 0 41.90476190476191
8.402207688017439 0 45.71428571428572
8.102391662018892 0 49.52380952380953
7.802575636020347 0 53.33333333333334
7.502759610021799 0 57.14285714285715
7.202943584023253 0 60.95238095238096
6.903127558024707 0 64.76190476190476
6.603311532026159 0 68.57142857142858
6.303495506027613 0 72.38095238095238
6.003679480029065 0 76.1904761904762
-7.115602541966149 -0.05680708535829956 36.64686344984248
7.83759348606664 -3.103297724892843 19.95369408964599
7.837593486076865 3.103297724866656 19.95369408964771
-9.547086757690689 1.899033628551308 3.37825907388924
-5.089900403504204 -8.303759703163546 3.308889337432173
8.261595325621519 3.571209588090807 12.70091396215779
8.508593140500922 -2.933562400963583 12.70483135127471
-2.345360230541871 9.426104453812945 3.640276945125373
7.222356989533001 3.094811814875214 27.22304817204797
7.222356989531514 -3.094811814878991 27.22304817204644
-2.829605907199851 6.528996178300242 36.64736868844974
-2.954289083308471 -6.468990743220419 36.69987756170348
1.899033628551199 -9.547086757690709 3.378259073889252
5.316326463865121 8.149474915585294 3.427822964493145
4.424214791554649 -5.574442631199877 36.63520354163258
4.657144919731477 5.374631747407907 36.69987756170472
9.11469234061194 -2.927626358234444 5.421379423456147
9.052695528160136 3.115890512609621 5.413776204768238
1.092650225817711 7.030852005008222 36.65424030086426
-1.013218591927588 7.300784396400789 33.40769471797272
-4.814057608246443 5.586482451811179 33.3595490422219
-2.87128787453208 7.071748340397907 30.08288662871221
-5.940825473801769 4.818933795507793 29.86536948880702
-4.549472906332366 6.454329624468043 26.72640557293363
-7.04713763640852 3.612124884458413 26.44238700475139
-6.000045820548914 5.533298404770483 23.35424008708939
-7.870514888787863 2.263294046544155 23.00489839747385
-7.19543133651143 4.39261573016695 19.9454216925416
-8.422297299679736 0.8237065139335409 19.53603153764446
-8.090274371563453 -1.49590440210326 22.52289602517952
-7.9898094606863 -2.91479747133465 18.99721439594829
-6.627404246337967 -4.956518601140189 21.90750233550121
-6.037360719171628 -6.065203398056894 18.32453519440905
-7.68446401498696 -4.255971824155004 15.44667499355966
-5.256291816269294 -7.108108806368787 14.7332941070868
-4.078371342966181 -7.27731255828455 21.06427763901715
-8.133809272763227 3.09198605203691 16.49672250067768
-5.97130935723641 6.295096848974523 16.8143719553226
-2.776573795444222 7.663167448383534 23.49790641694958
-7.093470644170558 -3.690975151804855 25.45957365536091
-7.272604887207357 5.20957128484472 13.39269571300049
-4.428886953283422 7.749783677446472 13.64595805087947
-7.205490146665454 -5.502038252515862 11.86818583668638
-4.402835986701477 -7.993179744845441 11.11078453711275
-1.918093343105715 -8.697584291318591 13.89329878556948
-6.035481032138287 6.933774727127058 10.25873503291663
-2.687163599160398 8.775723517886291 10.44554728534352
-0.8112769390884838 8.87929131218924 13.77001419737356
1.11591862971078 9.108661383728736 10.46021272222938
0.8985243681490717 7.575546079145423 30.13090555836338
2.938561042223965 8.417438128075469 13.77826475285785
1.051771248346376 8.595578684672075 17.03027910354022
-0.9893458990590626 -9.139210903066234 10.25892993765856
1.732798800747682 -8.813675832506521 12.92985968155045
0.7577892168996855 -8.662178474560475 16.57826875876222
-8.775868605801088 -2.067830443056529 12.50041348202714
-8.622422836606466 -3.475918789198285 8.936577131642514
-7.570761538760917 1.26832279583116 29.52582895850027
-9.248957138415406 0.2761380001667246 9.490538450945495
4.122401019935547 -7.748187474045253 15.5448492387112
3.452489169563703 -7.717238435307076 19.63978374474422
4.543109220209864 7.970120249766889 10.49506044652658
2.611303334210805 -8.889913635066771 9.332721577494201
4.262525675284019 7.535619599765864 17.05633216559839
2.504249369117847 8.018720639022661 20.3214982594873
3.056467030972804 8.925851508339971 7.183321378445747
-4.271622832733886 8.429001850357185 6.993566581764038
-7.400944422623311 5.897239710843433 6.821187290336961
-3.469006490864848 -8.771468983160609 7.210355008124017
-5.997055108970122 3.833994885350402 36.62083261896394
2.938914386063102 6.76423175427279 33.35256075839622
4.861504036979142 5.917353054619219 29.754343793795
2.611781654970257 7.44928903889954 26.76081675235931
6.070290519839094 4.284050836347281 32.65783755019496
5.876193131666567 7.382899949211247 7.16713341593751
-1.067232256567572 8.336827000377381 20.26817730948894
-7.061779432130868 2.130109581653473 33.34046144232896
-7.126587698997167 -1.89924106427406 33.34970098927321
-7.232078412936456 -2.606865632600189 29.38223042843936
-5.760774706379055 -4.790095657868259 31.86590847943485
-5.9174068007047 -3.987682946026437 36.39517993239244
-9.445189817234066 -1.279182875986906 5.953905211120313
-8.318751342739512 -4.701001493980656 5.652257155023828
-3.005719266512578 -8.081268317962328 17.50740975276283
4.880563575549314 -7.639947419996052 11.87015906088641
5.635320870296473 -7.455835493573629 8.310803988406491
6.143428259379896 6.472629049238399 13.67268674871827
1.088164426031138 -7.032706952743489 36.639683448997
2.87102428117726 -6.795548543108215 33.32653944922003
-0.7944691299355684 -7.325827823101767 33.43280640048022
1.182990368074475 -7.532452361851495 30.18000266237645
4.821859055600846 -5.932860839906311 29.92050488396812
2.755000606600459 -7.391785739841771 26.82907679146199
-0.3838600386523534 -7.865499171580659 27.00245931208054
1.178956033000398 -8.055018500879871 23.62287971560235
4.704836307900083 -6.651947664540647 23.53657858838742
6.072529606122946 -4.240102148805931 32.95539496507121
8.157992863101768 3.10742323744798 16.13977152850145
8.153071419097143 -3.069774215148836 16.367674929998
-8.711862486338225 -0.6428241520037217 16.06640634665591
7.528454361532844 3.108176983001046 23.57206570634584
5.712666493147792 6.056351728868183 21.27653641536595
7.234652665332819 -3.730762329311001 23.63417553937746
8.766505576814971 3.067648532683442 9.0501396895104
8.852889885705929 -2.794383599167169 9.104771209251069
-4.494993353377094 7.108708410692261 20.19485796396738
-8.815659030230288 1.685714675529609 13.01900887419907
-5.045195365292136 -6.281105746876904 24.69522380186295
-6.574138922358666 -6.644048553815098 8.299683746777193
-0.2136307212630894 -8.405022331430112 20.23162192682145
-7.95401618866305 0.008928761349411883 25.99662551688095
-5.773171670887573 7.812595917575636 3.631116467979646
-8.296610159582627 4.018434204003121 9.929339851087096
0.5614103684572967 8.134424965029819 23.45850943965361
-2.661773386199084 8.246054175959349 16.96262053074403
6.405795419720864 -5.720199259846007 17.94030996767136
-1.643702340090212 -9.574879058149046 3.622026041500075
-0.6420538146318775 9.421743032354504 7.069803687322007
1.62694127951452 9.579240951981612 3.603240233294937
-5.541558677964123 -5.456956246328924 28.24138793184326
5.613450979145632 5.709160186585777 25.32878785861663
5.135139835898276 -8.284813409383123 3.212202520518839
-1.068521738381021 7.820613646298503 26.76852240715783
-2.889955388769232 -7.048962329994409 30.26135277949149
7.776924733742873 5.863373382295313 3.308762525057411
7.978127487990026 -5.609400616470538 3.141764856446322
0.2365289352410457 -9.451897733153505 6.926701387451621
6.842332479972539 -5.634524451135101 14.43791575265491
-9.033860029893862 2.833258461893656 6.763085160733279
7.214830326749891 5.654747227594409 10.58700341792347
-8.339847301948099 5.050949025602928 3.174831571428295
3.811439863926708 -8.723518720074539 6.101345564026412
-9.599114049652455 -1.909382500363631 2.704238534691507
7.361548468921892 -5.438290926764803 10.76910005021012
7.068259958653857 -2.819649094930008 30.36898151557661
6.546585072698138 2.995162065953075 35.58728118265347
6.1992330888546 -5.598127738479739 20.92946479644316
5.390367162555387 -5.804007646564841 26.41594145748115
6.6060080394805 5.502690599180233 17.81901874273666
6.536099841835376 -2.972841049574722 35.82620174011925
7.099192160481147 2.763026252226613 30.26708086063251
-2.029325391951346 -7.878682595161795 23.68647009003735
3.886860358155856 7.175928287093194 23.36693686975693
-8.160362947061127 -5.452580198894338 2.358461334451917
7.894056272981339 -5.16505254175521 7.196064851648152
-3.748774234560249 -6.307684796598345 33.82915361155217
9.371269418458269 2.82987900100509 2.678163560149333
9.427861896375099 -2.650120156875613 2.627026499116962
8.01702903864263 4.960775493397811 7.271410008004989
6.474048383221338 2.727864713665832 37.79741104172197
6.320829656202988 -7.171374933167791 5.598767439790415
-3.413179186753595 -7.084340227144574 27.14435330002676
-6.553401813074669 -6.960911478202536 5.585570669606579
2.150055893183679 -2.60304171095827 40
-3.094291399395948 1.915160713057005 40
2.343955571210102 2.705068930572557 40
-0.7212020875840903 -3.69074588076323 40
-0.023588248375164 0.03926770930795866 40
-3.579150578427691 -1.152443657432429 40
3.808463081195527 0.02354915482037625 40
-0.5485444786576964 3.815210651177025 40
-5.961406522715208 9.031957496229163 0
-5.96140652271524 -9.03195749622914 0
7.919057077849381 3.231786670674052 43.79672706561043
9.187129548667874 -3.278832745751793 28.52929266660576
9.193385683973851 3.261669051936942 28.52751348170485
6.612937118257128 -3.225043645425651 58.98938651523409
8.237262867761739 -3.251401695303358 39.95162451164187
6.281689079230153 3.217624949414411 62.79643657168579
-11.73088669374762 -1.940162152660214e-14 3.419408766471628
-2.863636660156425 11.36494893892237 3.555526058695627
-2.919238352357008 -11.36613418506413 3.366746952161425
10.22355843510831 2.97246232955057 17.19264642597498
10.13994097335968 -3.269426385055376 17.10264947107312
-4.804112195401304 -3.515901729947479 76.83137859369654
5.89609780855969 -3.297851236543466 66.63485829553791
8.557207529300037 3.255165659742704 36.14368486009403
5.610441168071022 3.199497478681087 70.40984790038137
7.561396671765543 -3.31243631172696 47.58325221713773
6.941724485140658 3.231594058343006 55.1821427996888
10.76679505192452 -3.273589817930735 9.485744271980062
10.44978408498199 4.174818602390863 9.4931785306824
4.712243512000809 10.7428331321468 3.419408766471708
4.777586889382111 -10.71008631663284 3.464050191231519
-9.257317901175377 7.20525973842184 3.419408766471709
-9.257317901175359 -7.205259738421862 3.419408766471709
-4.791502909196922 3.518682004891182 76.93970510702643
5.269589867767341 -3.188334815693412 74.21614216377735
2.889078700432327 5.216080535075843 76.71065779318276
10.31700692552853 -5.583284939902473 3.41940876647138
10.27840208762039 5.71261477666736 3.059258398216201
8.23726286776434 3.251401695296098 39.95162451164501
8.564640176641177 -3.221820346035465 36.2052629659402
8.85844653003381 -3.292364798754181 32.39460971492055
7.368458953497575 -6.178668239104322 30.28982639701489
6.284737367650717 6.031927922485282 41.79030097026101
6.616612476299446 -6.129139931948972 37.87469147597707
7.761934877450356 -6.170811704422655 26.4800547754293
5.0811814782959 -8.361709793225771 28.15049554107807
5.481327976700556 -8.465148920653695 24.3346010213304
2.24076291407218 -9.70417158618308 25.92680385638834
2.734795530749117 -9.888399014038985 22.1137861498222
-0.846239825869236 -10.10598614806938 23.61632601187277
-1.324729822594319 -9.752066413608105 27.42467344081008
-4.24313005035569 -9.087655910643138 25.03835409573206
-4.716775373541294 -8.51167800383897 28.82758992073576
-3.799254726469067 -9.604146714633208 21.24084576829314
-6.826660476603797 -7.609981423938812 22.57558149397515
-6.48080787102772 -8.288836031683994 18.78388283813854
-8.854110781488432 -5.499029693375149 20.04032030838469
-8.994271229413494 -4.651055389834158 23.81559673125026
-10.13393818331342 -2.011540576112979 21.19839244707962
-9.980780814397415 -1.058447093271514 24.94549103973801
-10.1083759477734 1.689288780248848 22.25416835822991
-9.603719293596393 2.625252911576215 25.97056287957654
-8.755506786569249 5.181885519370437 23.20117976898394
-7.885250040261267 5.960250704384464 26.88099395255347
-6.220450302000748 7.967545036093412 24.03755499040752
-5.018596042945318 8.443064932834442 27.67413480629179
-6.907712177797033 6.661283817715424 30.54176136327611
-7.313900133414501 7.387730764598865 20.38387825565351
-3.382238308793013 -10.07591248456262 17.4274348188568
-10.51617298145404 0.7370713831752063 18.52600544239128
-3.770277345293092 8.75986797832323 31.29810735635735
-5.825563793868949 7.261762585507586 34.18358771648111
-4.149973812464266 9.466245994304256 21.14361648873549
-5.416745311173453 9.137131542515583 17.50830165838675
-8.27172443963485 4.413202542499849 33.34893756512774
-7.438046553870612 5.219669299428343 37.01603033347973
-8.971481741656135 1.845333526817915 36.094540781087
-8.432335674239939 2.74648683853883 39.79149842273315
-8.902053331047343 -0.9037518356257773 38.78173889729853
-8.654984625617077 0.0530290068379842 42.50038603681215
-7.96521671281381 -3.600807062606727 41.40559083835564
-8.004392560310032 -2.697728491959493 45.14798072531939
-8.303904283067503 0.9905877226576889 46.21526119266467
-7.959738952795317 -1.764014427330718 48.88249790237204
-7.834140929842636 1.942978404713541 49.91646939339272
-7.817682350536245 -0.8089671410906726 52.61097440572923
-7.220438646456274 2.900706990226219 53.60349805662219
-7.563781251752636 0.2221562875769685 56.32605882849563
-6.677910336665816 -4.311477650112014 51.47545291435066
-6.049874135928711 5.235823536216082 50.81304640416724
-4.994081378765021 5.879252719152188 54.458245528496
-6.195376943730998 -5.87889082066966 43.9542048908479
-8.658943691887288 -6.320273384709209 16.26112022555697
-1.829436127409787 10.40835580056752 18.1964376094502
-0.3685914361315905 10.27843970261484 21.79054975284666
-5.903393417299964 -6.576737914089643 40.18184186354497
-6.484182688435889 5.947725649491504 40.6742476358731
5.932575681571454 5.965694559728172 45.57232593680593
-1.826284256046991 -9.365939481121632 31.2276084474593
-2.434480434379286 8.927310716891194 34.90012518099098
-3.270892362080126 -8.001597140977031 42.63793844999866
-3.206090454343382 10.36827754664412 14.57835672248596
0.5963629517581173 10.78741384682983 15.19807315171156
-6.618554076237997 8.673187886146369 13.84897926490571
-0.05119916575111026 9.486308871332962 31.9377185824523
-2.94370792488426 7.375788580351302 51.56793090180077
-9.059615559709506 -1.823571809701427 35.05231651977048
3.40751675510696 7.875413500853195 43.44270112443073
-1.576817442104859 7.494810818518507 55.1590768880698
-3.810180442265675 6.377421210000365 58.08097236582463
1.11235912521142 7.804455512158514 52.30727056743491
1.471889611901615 9.095003786632462 35.40792837654668
-0.8212499715824512 11.05684735248061 11.59689369809835
2.998907991732639 10.62874457422118 12.15074185566056
4.326799137901106 9.855406228987274 15.71282145336381
3.763828081663342 8.664788165137566 32.43951448615724
-0.1542704230427199 7.376296452336745 58.72922809363732
-2.51289728542592 6.68857800336454 61.68799848983636
4.563324835189283 -8.315223046112971 31.95500452162108
-2.812954102825103 -8.488264730139772 38.85274292149077
-5.550552325981172 -7.253993172426587 36.41661428185309
-4.303626297359661 7.004630264195147 48.0158176921883
6.29327513173677 -6.032603661556985 41.70606733187147
2.372493161948081 9.429314867964532 28.92943176878696
-3.715168928556287 -7.474326718927612 46.41909125180514
-0.2953518020310205 -8.455354137638494 44.97347197148886
-0.7846514852283129 -8.121865423559088 48.79589356667905
-0.960199854611115 8.931927634848959 38.32965073124814
6.447154131950006 8.922193561117249 12.60728477554416
5.928622742854316 -8.528226008124948 20.5015688593964
-5.606675701735058 4.523801934897056 60.93721147144628
-4.566683304618448 5.195110855756662 64.58666350849069
-6.668801739378027 2.077018133064838 63.72462193917097
-5.94284893089214 3.094087534192439 67.34209705076681
-6.7463781165685 -0.5887302069063063 66.42781606974829
-3.215496164428679 5.801544790763032 68.1935796456913
-6.881595131710919 -1.604048857621526 62.6915435705256
-5.503385359677958 -4.099160709679265 65.2814016312023
-5.201159053300036 -4.91892036728049 61.51379696492758
-2.679625696926394 -6.428616006358192 63.97914081793371
-3.123102506212065 -5.889635968378826 67.769153967478
-2.224558071380174 -6.914416975949261 60.1834736071127
-6.461872044244526 0.4840491139517885 70.13855028821291
0.8397975283752417 -7.028974004617203 62.52768722091679
-9.090784909489731 -3.739177652944803 27.57574764604048
3.209641504921495 -10.06107230434976 18.28888869868234
6.367906301367337 -8.583819141650119 16.67123149199032
3.66901922996612 -10.22413094607286 14.45292803977287
6.808234430666418 -8.627973960427026 12.82523706025163
4.124530562108312 -10.37381600730318 10.62641913136075
0.6327194000994858 -11.02453230359601 12.16398171898012
7.16479528534687 -8.716532748849973 9.106888419517704
-4.899230208955667 -5.62059284226694 57.73564417820332
-1.777060149466737 -7.350897339985655 56.38191164614672
4.705749734417684 7.879115844716408 35.86461912209642
3.783319507758391 -8.041646551869118 39.55240172562202
2.767039140833538 -7.805284163165127 47.25130249764334
2.269537751128517 -7.649483967807072 51.0908804273062
1.347086073075249 -11.25403558555948 8.457622901671671
-2.45490960866082 -10.95722517295339 9.798224372650324
1.60934548461008 11.21076020713176 8.567986358705078
1.551702045297713 6.956855806769534 61.90709128752745
3.916813407199593 6.22676382416233 59.00478289765125
5.598051154656073 7.907143877881617 29.37428162240018
4.588498216413656 8.843499556834212 25.88226402496212
2.934505057779692 7.751418848123598 47.16169891454486
5.573324526805868 5.896110824837964 49.38486747630347
-0.03921996170118901 8.457812636110784 45.00660243971163
7.255670716539955 7.923605557802049 15.96209961540607
5.722647517782542 8.788573238481623 19.21809957015016
8.945000634429391 6.378313942938676 12.8819351123624
8.291927558388984 7.609036323864495 9.4782752728776
-2.240257907965495 11.14997058947838 7.969320549560071
8.376250663875233 6.261483997538618 19.59418691425385
7.561401442070721 6.442139919543733 26.25638955484186
5.419484941384313 -6.030169242751581 49.45717654212972
5.055439136382962 -5.951455075269963 53.25430636213997
3.330152471520293 -7.915685919686535 43.35782054650233
-2.368439871603618 -8.932375015912539 35.05590335306412
-5.14582683952174 -7.902892287046674 32.64797994979927
4.25410793341538 7.784479919358079 39.75705508758189
2.103006764934898 10.31065438312273 18.76784788760875
0.704255255619758 -9.02878139373558 37.40444799782973
0.2689119073047616 -8.7506718898707 41.23413998081077
-1.261903346409554 -7.759194871140938 52.58921626960729
0.9444676422728365 9.957080517504581 25.38987602563033
2.217201613867864 7.285756606940198 55.70835913219838
-6.463510478443654 -5.118793015856896 47.71258115957305
6.740270948756446 7.670652263045238 22.727892704103
9.222799831076751 4.343400947777914 22.94271142489451
-8.979800354389793 3.574972470074754 29.66568990216434
1.343331924339463 -7.25846382206626 58.6807702790734
4.228079831046513 -5.839280376798299 60.87174907768799
3.455096572481772 9.643534369806771 22.31463115932673
7.232158677601953 -3.315671641929692 51.3840024895381
7.909423960003278 -3.252365883003508 43.81086970912447
8.525587705901025 4.052816240291425 32.5296573474184
7.286370139568112 3.196879377228066 51.37327880200132
6.900718441538568 -3.309238415681259 55.23174277064736
9.486797435640057 -3.325455104834287 24.74203414150513
9.810592110773312 -3.297875448960383 20.96450120011395
6.047060781297624 4.190302639805318 58.99479520157056
6.237111359497059 -3.292248443699449 62.86151421511636
10.45827933608276 -3.243596508958598 13.34498167236876
-7.879177521968979 -4.425996282674981 37.64601532490487
6.952228131774376 -6.200617087535113 34.10804162198468
-7.152562240257641 -6.882517196002783 26.3509318338019
0.3481304294832483 -6.770380608696951 66.33496454237873
-0.124055261237724 -6.477513990607333 70.15474514938376
-3.520513296261793 -5.305897529271369 71.56619538588701
-0.6164973569311993 -6.147270470797763 73.97416736263312
3.352164080641678 -5.691289458340517 68.54828676704049
5.981480416501139 3.145226780847351 66.60592948002846
3.539407162896917 5.604268787815766 68.25308531984244
3.034507094333589 5.550543394701176 72.0965228776944
4.609428418307296 -5.925059088091843 57.09058030945469
5.524062610043663 -3.335371831171727 70.48253457402498
-4.133432060820804 -6.906525068645686 50.20304516421944
-4.547745566746793 -6.278602314576726 53.968309408359
-6.842013343732459 -3.430308229959067 55.22411648620155
2.958200741154833 -5.567037818111009 72.37207747222047
2.746087943035219 -5.310848232129231 76.50653779977426
4.176044253530533 -8.181739284632243 35.75691492736307
-4.547794274347165 7.795372835714504 37.8012087024949
-6.882956608896387 -2.595709341179034 59.00583336608235
-0.2841931213629879 -10.43202128278472 19.87388138479412
-10.19597609869281 -2.980919967764797 17.49902546054109
-10.83223401172053 -0.273884794292459 14.79388572570331
-10.19648292933556 3.437617727639547 15.75104144430307
-10.77536361760671 2.462803411722786 12.02987167635323
-11.0595916442924 -1.263638578278046 11.03473523995868
-11.26381640726829 1.457651740183823 8.160658669133923
-10.06943604289731 5.073386827530738 9.207957791519984
-11.15586284605188 -2.488900701261389 7.24086781610435
-10.12580586416253 -4.820820134479363 9.976621842528889
-10.98569116708948 3.771995988121606 4.889077867367773
-9.518730580995182 4.348870979311535 19.50239386192031
-10.1911084119472 -3.921940849792691 13.72624383324538
-7.766717150228359 3.642377445233176 43.47565219001324
-5.61511874074442 6.399222930225577 44.30023480060392
-6.989664023982315 4.456887419270912 47.14373751508587
-2.387692406819916 8.393823567610859 41.58972302686318
-9.243691685371363 5.932211632264109 12.91603146587891
-7.748847914327064 8.100852318831425 10.03543516618704
-8.313077012470947 6.718750882260473 16.66131630741016
6.530665651320947 6.81269753158615 32.56231863813193
0.1637884868228529 -10.73994343320614 15.99466860140491
-1.462273877131263 9.654202087019499 28.40706130946393
-9.406402418408614 0.9149992305826168 32.39065078844663
-9.121303281458868 -2.784186510260827 31.29838060670709
-7.709573056616604 -5.264002473157843 33.85862347127578
5.237911242937252 3.235796098378461 74.24499422534223
-0.2443558402652752 6.140766644481857 74.3868686226495
-4.517114413690424 10.18305958935868 10.92766386460111
-0.1960511563745596 6.903954210115072 64.71603895400345
-6.461108706946601 3.795168827179206 57.26331803784711
1.699297753891768 -9.509551031590492 29.73016880004899
-2.911098954470389 -10.53327807691918 13.6191561585132
-5.754479297040378 -9.513816396914711 11.197267014082
-5.161570054357124 -10.19788394848978 7.246014854767219
-7.45227272088102 -6.095041758696952 30.14735375277155
-6.12120003041568 -8.92061937531825 15.00850654647416
1.819951702453696 -7.46297010863968 54.8695081393425
5.82558342342267 -6.063438034488067 45.63446217197834
7.601979892813962 3.215764404077893 47.59534707519539
-9.74314838565331 -0.08089701674491218 28.67175146058153
-7.193020336782458 1.088345695122539 60.03820335415706
-5.964260968338917 0.04464701141125519 76.68921258723348
-5.858025699036748 -2.102359104215909 73.39287296054678
-5.778098378953583 2.303079742420366 73.43961921254424
-2.816854126524581 9.648492479938563 24.76093347459354
3.759219842641184 -5.797668153622627 64.67771748363893
5.401385879268289 9.907607124140304 9.093705825638359
6.767721446414433 9.30925353631217 6.234786458586222
-0.6217152804593722 8.140109564722396 48.74332224071117
-0.03262142501762597 6.446518303946585 70.56262669860868
8.481856207148166 -6.213043040484628 18.88166644558152
8.107069653346294 -6.215523865224311 22.67367816248209
1.237262179642792 -9.279907364364862 33.51865974138139
8.860825503504232 -6.19738749168521 15.08175308151565
-11.07600844345857 -3.829803698146877 3.564806455453966
8.079160252575869 -8.504167087275341 3.430248362219724
0.8181273431224798 -11.70589172010881 3.37417786970278
1.230920874814761 11.66696126835859 3.40887623332634
-8.363164525103874 -7.160812930265384 12.5793373234166
-6.37984932243638 -9.851349068855669 3.34477020788756
-6.732682173931713 9.59874890608145 3.499969007093385
-5.837575831546506 9.823409118010728 7.280472238253172
4.70124291885715 6.266889327651104 52.93078012353481
9.208272599687685 -6.214874370699462 11.31718710990505
3.714539790737884 5.831147117748876 64.62680197308623
-5.739487868641858 -3.183517231994293 69.08021428306056
-3.612539977462388 5.169773504759411 72.33767850018572
-8.205196825186212 -7.780948472967686 8.794070107686366
4.663272305811178 -10.44775860898165 7.099832340078301
11.09987319674662 -3.128692215629423 5.941614034445701
9.271466217013016 -6.711511856269281 7.042811318149148
11.09987319675308 3.128692215598836 5.941614034472197
10.43397042014403 3.329149772748564 13.31339188388478
0.5835433893744609 8.706642221189544 41.59788233001171
6.750117314759438 5.926682498616487 38.33790116880236
-9.88011942374375 -5.86270879331395 6.497851206374331
-8.595537362412715 7.583711490647712 6.825685236931951
-1.22970396524999 -5.791926253682041 77.24065316773671
9.505078817285147 6.443510333259541 6.565755267294157
4.880486620481146 5.791212370255383 56.24452854731336
9.958188326231431 2.979228362783338 20.40244836197352
-1.165182839057506 -11.42899195056949 6.502610421560009
8.106783893057516 8.543881823900602 2.822623460589967
-5.558762034759852 3.282924313788571 70.44566770268578
-1.023836771916472 5.806466870825952 77.5581529881257
9.58246508855513 2.835555298554727 25.49883405252361
7.702378580674455 5.797145537121627 29.98405175943365
3.633269230961048 10.92428216468196 6.19265798804132
0.7177201283908705 6.631959088854926 67.71540066563107
5.188821879015653 -2.858789076210879 77.19992781071667
5.238191946232762 2.756733858476156 77.2624861141002
3.083556955235461 7.44189008071038 50.12043594964906
-7.769528749147205 -8.541958691009016 5.757326809855071
11.42161303753389 -2.865258955235403 2.85224460448703
11.43396464721201 2.820216538592482 2.83810148489461
-2.911919698305601 7.903809924376639 45.44816448030134
4.407702067089069 5.61663613044204 61.75674740022962
0.009833570315792276 11.51908512101702 6.110549580739201
7.100979959153684 -9.05453920125341 6.265512970045717
7.100392870173803 5.852051530416472 35.56212264950496
-3.319375315342378 -5.163807478248669 74.47537203368537
9.226638312228399 5.543090157664389 15.70899648393841
-11.20044635889881 3.833310611130587 2.055171828195397
2.35633332140612 -11.30125211922415 5.79035854970914
1.643473402638702 8.83347166919345 38.30849910308674
-2.827370305693218 5.381464917222685 75.23349415437686
1.861466232561885 -0.6775183007441694 80
-1.796581528936375 0.6539021999652996 80
1.425965863507625 2.469845325454036 80
-0.4952327472266952 -2.808604475826126 80
0.02961649481832573 -0.002216811788744125 48.18307524737714
0.0003668613779304053 0.0003698957783976886 55.77076371685598
-0.04186771183210736 -0.03502738826244922 62.78860409463608
0.0328446430596981 -0.007370722400594332 69.31448094031657
0.3642930615398505 0.6393039847482984 74.81855702321307
1.675991313010208 3.412639004008835 44.91182573175104
-3.48825453520806 1.525661864429682 44.97158046163617
-1.562460564472015 -2.822457951539955 51.97180047711316
-2.42164716625656 2.060277133383703 51.96682384936895
1.137825032211496 -3.617514477301055 44.83971216033229
3.100750433630336 -0.6807102411356701 51.98904645892523
-1.948785163817027 -2.371550649499577 59.2562062008035
-1.875980759079261 2.353178536179838 59.28047541110112
2.475293205780275 -1.413170459273447 59.28766504080495
-3.231992435870887 -2.911953679448972 45.5311993566186
3.935642337190609 -0.307525824426471 45.99790548999218
1.635644890818619 3.290534232405705 50.67668280251939
1.704726358369025 -3.767539662203886 49.3626909400217
1.253828862230112 -2.5564968730134 66.04788083487828
-2.6752451832756 0.6521014625513386 66.07926531351244
-4.11809142670423 -0.08695566037167611 48.79022758372958
-1.411630399952155 3.941267697986827 47.74201032285399
2.017872630658422 3.357663205318441 54.71478158862998
2.078433570656275 2.527118652889299 60.37786800471816
1.220552541451449 2.565752559539364 66.02655371026026
-3.855835814978724 -0.7063552269715507 54.61257627966859
2.198335362991463 -3.373418507882811 54.95725730666781
-1.784778452110768 3.45351057120341 55.54655731091253
-0.02181020038942449 0.01670321061356805 43.92322852006615

CELLS 3036 13850
1 0
1 1
1 2
1 3
2 0 4
2 4 5
2 5 6
2 6 7
2 7 8
2 8 9
2 9 10
2 10 11
2 11 12
2 12 13
2 13 1
2 0 14
2 14 15
2 15 16
2 16 17
2 17 18
2 18 19
2 19 20
2 20 21
2 21 22
2 22 23
2 23 24
2 24 25
2 25 26
2 26 27
2 27 28
2 28 0
2 1 29
2 29 30
2 30 31
2 31 32
2 32 33
2 33 34
2 34 35
2 35 36
2 36 37
2 37 38
2 38 1
2 2 39
2 39 40
2 40 41
2 41 42
2 42 43
2 43 44
2 44 45
2 45 46
2 46 47
2 47 48
2 48 49
2 49 50
2 50 51
2 51 52
2 52 53
2 53 54
2 54 55
2 55 56
2 56 2
2 3 57
2 57 58
2 58 59
2 59 60
2 60 61
2 61 62
2 62 63
2 63 64
2 64 3
2 2 65
2 65 66
2 66 67
2 67 68
2 68 69
2 69 70
2 70 71
2 71 72
2 72 73
2 73 74
2 74 75
2 75 76
2 76 77
2 77 78
2 78 79
2 79 80
2 80 81
2 81 82
2 82 83
2 83 84
2 84 3
3 0 231 4
3 4 232 0
3 14 231 0
3 0 232 28
3 1 224 13
3 13 234 1
3 1 234 29
3 38 224 1
3 5 101 4
3 4 102 5
3 101 232 4
3 4 231 102
3 5 188 6
3 6 189 5
3 5 189 101
3 102 188 5
3 6 90 7
3 7 91 6
3 6 188 90
3 91 189 6
3 7 182 8
3 8 183 7
3 90 182 7
3 7 183 91
3 9 86 8
3 8 87 9
3 86 183 8
3 8 182 87
3 9 185 10
3 10 187 9
3 9 187 86
3 87 185 9
3 10 93 11
3 11 94 10
3 10 185 93
3 94 187 10
3 12 219 11
3 11 225 12
3 93 225 11
3 11 219 94
3 12 220 13
3 13 224 12
3 158 220 12
3 12 225 158
3 181 219 12
3 12 224 181
3 220 234 13
3 15 209 14
3 209 231 14
3 16 98 15
3 98 209 15
3 17 203 16
3 16 203 98
3 18 92 17
3 92 203 17
3 19 196 18
3 18 196 92
3 20 215 19
3 19 215 196
3 21 88 20
3 88 215 20
3 22 217 21
3 21 217 88
3 23 228 22
3 22 228 217
3 24 89 23
3 89 228 23
3 25 201 24
3 24 201 89
3 26 97 25
3 97 201 25
3 27 206 26
3 26 206 97
3 28 210 27
3 27 210 206
3 28 232 210
3 29 100 30
3 29 234 100
3 30 103 31
3 100 103 30
3 31 95 32
3 31 103 95
3 32 154 33
3 95 154 32
3 33 85 34
3 33 154 85
3 34 165 35
3 85 165 34
3 35 96 36
3 35 165 96
3 36 172 37
3 96 172 36
3 37 99 38
3 37 172 99
3 99 224 38
3 154 161 85
3 161 162 85
3 162 165 85
3 86 200 183
3 187 221 86
3 86 221 200
3 182 223 87
3 87 186 185
3 87 223 186
3 166 213 88
3 88 217 166
3 213 215 88
3 89 201 153
3 153 237 89
3 89 237 228
3 171 182 90
3 90 214 171
3 188 214 90
3 183 212 91
3 91 218 189
3 212 218 91
3 92 196 151
3 151 202 92
3 202 203 92
3 93 205 156
3 156 225 93
3 185 205 93
3 94 219 176
3 176 222 94
3 94 222 187
3 103 104 95
3 104 105 95
3 105 154 95
3 165 230 96
3 96 174 172
3 96 230 174
3 97 211 201
3 206 216 97
3 97 216 211
3 150 159 98
3 98 203 150
3 159 209 98
3 172 173 99
3 173 181 99
3 181 224 99
3 100 155 103
3 100 158 155
3 100 220 158
3 100 234 220
3 189 229 101
3 101 229 210
3 210 232 101
3 102 233 188
3 102 231 209
3 209 233 102
3 103 155 104
3 104 106 105
3 104 134 106
3 104 155 134
3 106 107 105
3 107 161 105
3 105 161 154
3 106 108 107
3 106 207 108
3 134 207 106
3 108 109 107
3 109 142 107
3 142 161 107
3 108 110 109
3 108 123 110
3 108 207 123
3 110 111 109
3 111 195 109
3 109 195 142
3 110 112 111
3 110 190 112
3 123 190 110
3 112 113 111
3 113 114 111
3 114 195 111
3 112 121 113
3 112 122 121
3 112 190 122
3 113 115 114
3 113 184 115
3 121 184 113
3 115 116 114
3 116 124 114
3 124 195 114
3 115 117 116
3 115 118 117
3 115 184 118
3 117 120 116
3 120 192 116
3 116 192 124
3 118 119 117
3 119 168 117
3 117 168 120
3 118 127 119
3 118 140 127
3 118 184 140
3 127 128 119
3 128 129 119
3 129 168 119
3 168 194 120
3 120 226 192
3 194 226 120
3 122 125 121
3 125 191 121
3 121 191 184
3 122 126 125
3 122 199 126
3 190 199 122
3 160 190 123
3 123 198 160
3 123 207 198
3 163 195 124
3 124 204 163
3 192 204 124
3 126 130 125
3 130 197 125
3 125 197 191
3 126 131 130
3 126 132 131
3 126 199 132
3 127 193 128
3 140 141 127
3 141 193 127
3 128 137 129
3 128 153 137
3 128 193 153
3 137 138 129
3 138 139 129
3 139 168 129
3 131 151 130
3 151 152 130
3 152 197 130
3 132 133 131
3 133 202 131
3 131 202 151
3 132 135 133
3 132 136 135
3 132 199 136
3 135 146 133
3 146 150 133
3 150 202 133
3 155 156 134
3 156 157 134
3 157 207 134
3 136 148 135
3 135 171 146
3 148 171 135
3 136 149 148
3 136 160 149
3 136 199 160
3 137 147 138
3 137 211 147
3 153 211 137
3 138 144 139
3 138 169 144
3 147 169 138
3 144 145 139
3 145 194 139
3 139 194 168
3 140 143 141
3 140 191 143
3 184 191 140
3 143 166 141
3 166 167 141
3 167 193 141
3 142 162 161
3 142 163 162
3 142 195 163
3 143 213 166
3 191 197 143
3 197 213 143
3 144 200 145
3 169 212 144
3 144 212 200
3 145 180 179
3 179 194 145
3 145 221 180
3 200 221 145
3 146 159 150
3 146 214 159
3 171 214 146
3 147 170 169
3 147 216 170
3 211 216 147
3 149 186 148
3 148 223 171
3 186 223 148
3 160 198 149
3 149 227 186
3 198 227 149
3 150 203 202
3 151 196 152
3 196 215 152
3 152 213 197
3 152 215 213
3 193 237 153
3 201 211 153
3 155 158 156
3 156 205 157
3 158 225 156
3 198 207 157
3 157 227 198
3 205 227 157
3 159 233 209
3 214 233 159
3 160 199 190
3 163 164 162
3 164 165 162
3 163 204 164
3 164 230 165
3 204 208 164
3 208 230 164
3 166 217 167
3 167 237 193
3 217 228 167
3 228 237 167
3 170 218 169
3 169 218 212
3 216 235 170
3 170 229 218
3 170 235 229
3 171 223 182
3 172 174 173
3 174 175 173
3 175 176 173
3 176 181 173
3 174 208 175
3 174 230 208
3 175 177 176
3 175 178 177
3 175 208 178
3 177 222 176
3 176 219 181
3 178 179 177
3 179 180 177
3 180 222 177
3 178 226 179
3 208 236 178
3 178 236 226
3 179 226 194
3 180 221 187
3 187 222 180
3 200 212 183
3 186 205 185
3 186 227 205
3 188 233 214
3 218 229 189
3 192 236 204
3 226 236 192
3 204 236 208
3 210 235 206
3 206 235 216
3 229 235 210
3 29 244 1
3 1 244 38
3 30 240 29
3 240 244 29
3 31 245 30
3 30 245 240
3 32 245 31
3 33 239 32
3 239 245 32
3 34 243 33
3 33 243 239
3 35 243 34
3 36 241 35
3 241 243 35
3 37 241 36
3 38 238 37
3 238 241 37
3 38 244 238
3 238 242 241
3 238 244 242
3 239 243 242
3 242 245 239
3 242 244 240
3 240 245 242
3 242 243 241
3 2 0 39
3 56 0 2
3 39 0 14
3 28 0 56
3 15 40 14
3 40 39 14
3 16 41 15
3 15 41 40
3 17 42 16
3 42 41 16
3 18 43 17
3 43 42 17
3 19 246 18
3 44 43 18
3 18 246 44
3 20 46 19
3 46 45 19
3 45 246 19
3 21 47 20
3 47 46 20
3 21 22 48
3 48 47 21
3 49 22 23
3 48 22 49
3 24 247 23
3 50 49 23
3 23 247 50
3 25 52 24
3 24 52 51
3 51 247 24
3 26 53 25
3 25 53 52
3 27 54 26
3 26 54 53
3 28 55 27
3 27 55 54
3 28 56 55
3 44 246 45
3 50 247 51
3 39 558 2
3 2 557 56
3 65 557 2
3 2 558 65
3 3 554 57
3 64 553 3
3 3 553 84
3 84 554 3
3 40 275 39
3 275 558 39
3 41 546 40
3 40 546 275
3 42 267 41
3 267 546 41
3 43 521 42
3 42 521 267
3 44 255 43
3 255 521 43
3 45 524 44
3 44 524 255
3 46 269 45
3 269 524 45
3 47 566 46
3 46 566 269
3 48 254 47
3 254 566 47
3 49 518 48
3 48 518 254
3 50 270 49
3 270 518 49
3 51 523 50
3 50 523 270
3 52 256 51
3 256 523 51
3 53 520 52
3 52 520 256
3 54 268 53
3 268 520 53
3 55 519 54
3 54 519 268
3 56 274 55
3 274 519 55
3 56 557 274
3 57 273 58
3 57 554 273
3 58 548 59
3 273 548 58
3 59 271 60
3 59 548 271
3 60 505 61
3 271 505 60
3 61 259 62
3 61 505 259
3 62 541 63
3 259 541 62
3 63 459 64
3 63 541 459
3 459 553 64
3 66 533 65
3 65 535 66
3 533 557 65
3 65 558 535
3 67 265 66
3 66 266 67
3 265 533 66
3 66 535 266
3 68 441 67
3 67 536 68
3 67 441 265
3 266 536 67
3 68 257 69
3 69 258 68
3 68 536 257
3 258 441 68
3 70 438 69
3 69 544 70
3 257 544 69
3 69 438 258
3 71 437 70
3 70 549 71
3 70 544 427
3 427 549 70
3 437 438 70
3 72 249 71
3 71 250 72
3 249 437 71
3 71 549 250
3 73 278 72
3 72 434 73
3 72 278 249
3 250 434 72
3 73 261 74
3 74 277 73
3 73 434 261
3 277 278 73
3 75 252 74
3 74 276 75
3 252 277 74
3 261 276 74
3 75 248 76
3 76 433 75
3 75 276 248
3 75 433 252
3 77 263 76
3 76 502 77
3 248 502 76
3 263 433 76
3 78 432 77
3 77 435 78
3 77 432 263
3 77 502 435
3 78 264 79
3 79 436 78
3 78 435 264
3 78 436 432
3 80 251 79
3 79 439 80
3 251 436 79
3 264 439 79
3 80 253 81
3 81 440 80
3 80 440 251
3 80 439 253
3 82 260 81
3 81 450 82
3 253 450 81
3 260 440 81
3 82 262 83
3 83 454 82
3 82 454 260
3 82 450 262
3 84 272 83
3 83 489 84
3 262 489 83
3 272 454 83
3 84 553 272
3 489 554 84
3 276 280 248
3 280 335 248
3 335 502 248
3 278 279 249
3 279 282 249
3 282 437 249
3 250 549 412
3 412 550 250
3 250 550 434
3 251 440 430
3 430 453 251
3 251 453 436
3 252 281 277
3 252 360 281
3 252 433 360
3 439 560 253
3 253 528 450
3 253 560 528
3 254 471 469
3 469 473 254
3 254 518 471
3 473 566 254
3 255 525 410
3 410 561 255
3 255 561 521
3 524 525 255
3 497 523 256
3 256 545 497
3 520 545 256
3 411 544 257
3 257 565 411
3 536 565 257
3 438 514 258
3 258 517 441
3 514 517 258
3 505 506 259
3 506 564 259
3 259 564 541
3 260 509 440
3 260 454 449
3 449 509 260
3 261 538 276
3 434 563 261
3 261 563 538
3 450 451 262
3 451 452 262
3 452 489 262
3 263 432 413
3 413 501 263
3 263 501 433
3 435 526 264
3 264 543 439
3 526 543 264
3 441 527 265
3 527 534 265
3 265 534 533
3 266 409 408
3 408 536 266
3 266 542 409
3 535 542 266
3 511 546 267
3 267 551 511
3 521 551 267
3 519 562 268
3 268 567 520
3 268 562 532
3 532 567 268
3 473 540 269
3 269 566 473
3 269 540 524
3 270 539 518
3 523 556 270
3 270 556 539
3 271 507 505
3 271 569 507
3 548 569 271
3 272 458 454
3 272 459 458
3 272 553 459
3 273 489 452
3 452 490 273
3 273 554 489
3 490 548 273
3 274 534 519
3 533 534 274
3 274 557 533
3 275 542 535
3 535 558 275
3 275 546 542
3 276 538 280
3 277 443 278
3 281 443 277
3 278 443 279
3 279 283 282
3 279 356 283
3 279 443 356
3 280 345 335
3 280 418 345
3 280 538 418
3 360 393 281
3 393 460 281
3 281 460 443
3 283 284 282
3 284 515 282
3 282 515 437
3 283 285 284
3 283 494 285
3 356 494 283
3 285 286 284
3 286 367 284
3 367 515 284
3 285 287 286
3 285 288 287
3 285 494 288
3 287 463 286
3 286 383 367
3 286 463 383
3 288 289 287
3 289 291 287
3 291 463 287
3 288 290 289
3 288 336 290
3 288 494 336
3 290 444 289
3 289 292 291
3 289 444 292
3 336 417 290
3 417 498 290
3 290 498 444
3 292 293 291
3 293 306 291
3 306 463 291
3 292 294 293
3 292 295 294
3 292 444 295
3 294 330 293
3 293 499 306
3 330 499 293
3 295 296 294
3 296 464 294
3 294 464 330
3 295 297 296
3 295 382 297
3 295 444 382
3 297 298 296
3 298 307 296
3 307 464 296
3 297 299 298
3 297 503 299
3 382 503 297
3 299 300 298
3 300 474 298
3 298 474 307
3 299 301 300
3 299 428 301
3 299 503 428
3 301 302 300
3 302 305 300
3 305 474 300
3 301 303 302
3 301 304 303
3 301 428 304
3 303 508 302
3 302 310 305
3 302 508 310
3 304 308 303
3 308 485 303
3 485 508 303
3 304 309 308
3 304 312 309
3 304 428 312
3 310 311 305
3 311 482 305
3 305 482 474
3 306 484 463
3 306 495 484
3 306 499 495
3 307 465 464
3 307 466 465
3 307 474 466
3 309 337 308
3 337 342 308
3 342 485 308
3 312 313 309
3 313 461 309
3 309 461 337
3 310 331 311
3 310 332 331
3 310 508 332
3 331 339 311
3 339 341 311
3 341 482 311
3 312 314 313
3 312 486 314
3 428 486 312
3 314 315 313
3 315 334 313
3 334 461 313
3 314 316 315
3 314 344 316
3 314 486 344
3 316 317 315
3 317 476 315
3 315 476 334
3 316 318 317
3 316 442 318
3 344 442 316
3 318 319 317
3 319 320 317
3 320 476 317
3 318 329 319
3 318 333 329
3 318 442 333
3 319 321 320
3 319 425 321
3 329 425 319
3 321 322 320
3 322 478 320
3 320 478 476
3 321 323 322
3 321 326 323
3 321 425 326
3 323 324 322
3 324 327 322
3 327 478 322
3 323 325 324
3 323 457 325
3 326 457 323
3 325 493 324
3 324 328 327
3 324 493 328
3 457 462 325
3 462 504 325
3 325 504 493
3 425 455 326
3 455 456 326
3 456 457 326
3 328 343 327
3 343 359 327
3 359 478 327
3 328 346 343
3 328 347 346
3 328 493 347
3 333 338 329
3 338 362 329
3 362 425 329
3 464 475 330
3 475 522 330
3 330 522 499
3 332 419 331
3 331 340 339
3 331 419 340
3 332 431 419
3 423 431 332
3 332 508 423
3 333 357 338
3 333 358 357
3 333 442 358
3 334 479 461
3 476 477 334
3 477 479 334
3 345 403 335
3 403 404 335
3 404 502 335
3 416 417 336
3 336 516 416
3 494 516 336
3 337 349 342
3 337 365 349
3 337 461 365
3 357 421 338
3 338 363 362
3 338 421 363
3 340 350 339
3 339 491 341
3 350 491 339
3 340 351 350
3 340 352 351
3 340 419 352
3 341 481 480
3 480 482 341
3 341 491 481
3 349 353 342
3 353 361 342
3 361 485 342
3 346 348 343
3 348 512 343
3 343 512 359
3 344 488 442
3 486 487 344
3 487 488 344
3 345 405 403
3 345 537 405
3 418 537 345
3 347 354 346
3 346 424 348
3 354 424 346
3 347 355 354
3 347 368 355
3 347 493 368
3 424 526 348
3 348 555 512
3 526 555 348
3 349 392 353
3 365 568 349
3 349 568 392
3 351 398 350
3 398 410 350
3 410 491 350
3 352 366 351
3 366 510 351
3 351 510 398
3 352 406 366
3 352 407 406
3 352 419 407
3 353 401 361
3 392 483 353
3 353 483 401
3 355 399 354
3 399 400 354
3 400 424 354
3 368 369 355
3 369 492 355
3 355 492 399
3 443 460 356
3 460 516 356
3 356 516 494
3 358 416 357
3 416 420 357
3 420 421 357
3 358 417 416
3 358 488 417
3 442 488 358
3 477 478 359
3 359 559 477
3 512 559 359
3 360 415 393
3 360 501 415
3 433 501 360
3 401 402 361
3 402 423 361
3 423 485 361
3 363 364 362
3 364 455 362
3 362 455 425
3 363 394 364
3 363 415 394
3 363 421 415
3 394 395 364
3 395 422 364
3 422 455 364
3 461 479 365
3 479 537 365
3 537 568 365
3 406 408 366
3 408 409 366
3 409 510 366
3 383 384 367
3 384 514 367
3 514 515 367
3 368 370 369
3 368 504 370
3 493 504 368
3 370 371 369
3 371 373 369
3 373 492 369
3 370 372 371
3 370 374 372
3 370 504 374
3 372 380 371
3 371 547 373
3 380 547 371
3 374 375 372
3 375 529 372
3 372 529 380
3 373 552 492
3 373 530 513
3 513 552 373
3 373 547 530
3 374 376 375
3 374 462 376
3 374 504 462
3 376 377 375
3 377 378 375
3 378 529 375
3 376 379 377
3 376 390 379
3 376 462 390
3 377 445 378
3 379 381 377
3 381 445 377
3 445 446 378
3 446 447 378
3 447 529 378
3 379 429 381
3 390 391 379
3 391 429 379
3 506 507 380
3 380 529 506
3 507 547 380
3 429 430 381
3 430 509 381
3 381 509 445
3 444 498 382
3 382 498 487
3 487 503 382
3 383 385 384
3 383 484 385
3 463 484 383
3 385 386 384
3 386 517 384
3 384 517 514
3 385 387 386
3 385 388 387
3 385 484 388
3 387 389 386
3 389 527 386
3 386 527 517
3 388 396 387
3 387 532 389
3 396 532 387
3 388 397 396
3 388 495 397
3 484 495 388
3 389 534 527
3 532 562 389
3 389 562 534
3 390 456 391
3 390 457 456
3 390 462 457
3 391 456 422
3 422 500 391
3 391 500 429
3 418 538 392
3 392 568 418
3 392 563 483
3 538 563 392
3 415 421 393
3 393 421 420
3 420 460 393
3 394 413 395
3 394 501 413
3 415 501 394
3 413 414 395
3 414 500 395
3 395 500 422
3 397 545 396
3 396 567 532
3 545 567 396
3 495 496 397
3 496 497 397
3 497 545 397
3 398 561 410
3 510 551 398
3 551 561 398
3 399 560 400
3 492 528 399
3 528 560 399
3 400 543 424
3 439 543 400
3 400 560 439
3 401 412 402
3 401 550 412
3 483 550 401
3 412 426 402
3 402 431 423
3 426 431 402
3 403 555 404
3 405 512 403
3 512 555 403
3 435 502 404
3 404 526 435
3 404 555 526
3 405 537 479
3 479 559 405
3 405 559 512
3 407 411 406
3 406 565 408
3 411 565 406
3 407 426 411
3 419 431 407
3 407 431 426
3 408 565 536
3 409 511 510
3 409 542 511
3 410 525 491
3 426 427 411
3 427 544 411
3 412 427 426
3 412 549 427
3 413 432 414
3 432 436 414
3 436 453 414
3 453 500 414
3 416 516 420
3 488 498 417
3 418 568 537
3 420 516 460
3 422 456 455
3 423 508 485
3 424 543 526
3 428 503 486
3 429 453 430
3 429 500 453
3 440 509 430
3 434 550 483
3 483 563 434
3 437 515 438
3 438 515 514
3 517 527 441
3 445 449 446
3 445 509 449
3 446 448 447
3 446 458 448
3 449 458 446
3 448 564 447
3 506 529 447
3 447 564 506
3 458 459 448
3 459 541 448
3 541 564 448
3 454 458 449
3 450 528 451
3 451 513 452
3 451 552 513
3 528 552 451
3 452 513 490
3 465 475 464
3 466 467 465
3 467 468 465
3 468 475 465
3 466 480 467
3 474 482 466
3 466 482 480
3 467 469 468
3 467 470 469
3 467 480 470
3 469 471 468
3 471 472 468
3 472 475 468
3 470 473 469
3 470 540 473
3 480 481 470
3 481 540 470
3 471 539 472
3 518 539 471
3 472 522 475
3 472 531 522
3 472 539 531
3 476 478 477
3 477 559 479
3 491 525 481
3 525 540 481
3 486 503 487
3 487 498 488
3 513 530 490
3 530 569 490
3 490 569 548
3 492 552 528
3 495 499 496
3 496 531 497
3 499 522 496
3 522 531 496
3 497 556 523
3 531 556 497
3 505 507 506
3 530 547 507
3 507 569 530
3 511 551 510
3 542 546 511
3 534 562 519
3 520 567 545
3 521 561 551
3 524 540 525
3 539 556 531
3 57 572 3
3 3 570 64
3 3 572 570
3 58 572 57
3 59 572 58
3 60 571 59
3 571 572 59
3 61 571 60
3 62 573 61
3 61 573 571
3 63 573 62
3 64 573 63
3 570 573 64
3 570 572 571
3 571 573 570
4 272 83 454 577
4 272 83 577 578
4 81 587 576 597
4 581 585 575 599
4 575 585 581 600
4 581 585 391 600
4 391 585 581 599
4 458 272 577 578
4 245 579 559 580
4 458 272 454 577
4 458 577 448 578
4 502 589 77 590
4 576 585 374 586
4 447 448 577 578
4 262 577 83 578
4 77 589 584 590
4 377 376 375 576
4 374 375 376 576
4 440 576 81 587
4 79 584 575 596
4 447 577 506 578
4 375 377 576 592
4 504 370 374 586
4 374 576 376 585
4 381 587 576 592
4 455 588 581 591
4 79 575 584 600
4 376 576 377 585
4 375 592 576 593
4 448 458 446 577
4 455 364 588 591
4 430 587 381 592
4 79 575 587 596
4 81 576 253 597
4 489 262 83 578
4 375 576 374 593
4 377 576 381 585
4 576 586 355 597
4 502 77 435 590
4 559 580 579 595
4 504 374 585 586
4 390 585 391 599
4 447 564 448 578
4 79 587 575 600
4 440 81 576 592
4 456 391 581 599
4 77 584 435 590
4 381 585 576 587
4 506 577 507 578
4 79 596 587 597
4 447 506 564 578
4 509 430 381 592
4 248 579 244 589
4 447 448 446 577
4 456 390 391 599
4 81 80 587 597
4 377 381 576 592
4 504 586 585 599
4 530 577 513 578
4 81 253 576 598
4 581 588 455 594
4 253 597 576 598
4 452 577 262 578
4 425 455 588 594
4 507 577 530 578
4 245 559 477 580
4 317 580 319 588
4 38 238 583 589
4 81 576 592 598
4 244 248 29 579
4 576 587 440 592
4 244 29 240 579
4 504 585 462 599
4 38 583 433 589
4 34 580 317 588
4 380 507 506 577
4 504 462 325 599
4 362 455 364 588
4 369 370 586 593
4 83 262 82 577
4 577 592 378 593
4 355 369 576 598
4 489 452 262 578
4 584 589 263 591
4 369 355 576 586
4 425 326 455 594
4 34 317 319 588
4 583 588 364 591
4 326 581 455 594
4 440 81 80 587
4 547 530 507 577
4 369 586 576 593
4 83 82 454 577
4 263 584 77 589
4 375 378 592 593
4 245 477 32 580
4 429 585 381 587
4 81 592 82 598
4 360 501 433 583
4 587 596 575 597
4 530 513 490 578
4 369 370 368 586
4 449 446 458 577
4 513 577 452 578
4 432 584 263 591
4 38 244 238 589
4 454 577 82 592
4 380 547 507 577
4 369 593 576 598
4 263 432 77 584
4 360 433 38 583
4 82 592 577 598
4 446 378 577 592
4 449 458 454 577
4 82 577 262 598
4 391 585 429 600
4 79 439 596 597
4 375 378 377 592
4 459 272 458 578
4 34 243 580 588
4 529 577 378 593
4 574 581 588 591
4 541 564 259 578
4 264 584 79 596
4 380 506 529 577
4 459 458 448 578
4 81 253 80 597
4 354 596 597 601
4 378 447 446 577
4 447 529 506 577
4 245 32 239 580
4 585 587 429 600
4 571 259 505 578
4 433 583 501 589
4 338 583 241 588
4 377 381 379 585
4 38 433 244 589
4 446 577 449 592
4 79 584 436 600
4 505 259 506 578
4 582 590 348 601
4 564 541 448 578
4 355 399 492 597
4 335 579 248 589
4 564 506 259 578
4 430 429 381 587
4 574 588 581 594
4 81 260 82 592
4 553 459 570 578
4 354 597 586 601
4 81 82 450 598
4 29 248 280 579
4 541 459 448 578
4 583 589 238 602
4 454 449 577 592
4 502 335 248 589
4 403 579 404 590
4 335 280 248 579
4 504 368 370 586
4 501 263 589 591
4 391 422 581 600
4 363 583 338 588
4 454 82 260 592
4 502 435 404 590
4 355 492 369 598
4 501 589 583 591
4 343 582 348 601
4 245 477 559 479
4 513 452 490 578
4 590 596 348 601
4 450 82 262 598
4 529 447 378 577
4 422 395 581 600
4 581 594 326 599
4 241 338 36 583
4 584 589 574 590
4 363 36 338 583
4 547 373 530 577
4 323 326 594 599
4 238 360 38 583
4 451 262 452 577
4 244 238 589 602
4 586 599 493 601
4 478 327 594 595
4 579 580 245 602
4 262 577 451 598
4 379 381 429 585
4 554 84 570 578
4 541 259 573 578
4 581 582 575 584
4 570 84 553 578
4 83 272 84 578
4 348 582 343 590
4 318 329 34 588
4 395 591 581 600
4 75 76 248 589
4 264 78 79 584
4 505 506 507 578
4 513 530 373 577
4 354 596 400 597
4 575 590 582 596
4 477 245 32 479
4 238 37 360 583
4 29 280 240 579
4 584 590 575 596
4 318 34 319 588
4 79 78 436 584
4 244 589 579 602
4 574 589 579 590
4 462 504 374 585
4 575 584 582 590
4 280 30 240 579
4 405 31 537 579
4 435 590 584 596
4 319 580 320 594
4 373 577 547 593
4 547 577 380 593
4 451 577 513 598
4 319 588 580 594
4 35 338 241 588
4 582 594 327 595
4 244 579 240 602
4 391 500 422 600
4 574 582 581 584
4 363 338 362 588
4 492 597 399 598
4 272 459 553 578
4 422 500 395 600
4 380 577 529 593
4 239 32 476 580
4 34 329 35 588
4 375 529 378 593
4 501 413 263 591
4 83 84 489 578
4 440 260 81 592
4 543 400 596 597
4 335 404 403 579
4 320 319 317 580
4 570 459 573 578
4 573 459 541 578
4 579 590 403 595
4 259 571 573 578
4 248 1 75 589
4 413 432 263 591
4 451 452 513 577
4 318 319 329 588
4 79 439 264 596
4 318 35 34 329
4 79 436 587 600
4 559 579 405 595
4 245 30 31 579
4 571 505 271 578
4 343 348 346 601
4 248 244 1 589
4 76 75 433 589
4 245 31 32 479
4 501 360 415 583
4 323 322 582 594
4 30 537 31 579
4 373 513 577 598
4 84 272 553 578
4 435 584 264 596
4 462 585 390 599
4 81 450 253 598
4 369 368 355 586
4 322 324 323 582
4 33 239 476 580
4 456 391 422 581
4 239 245 580 602
4 585 586 575 599
4 323 594 582 599
4 577 593 373 598
4 363 421 36 583
4 35 329 338 588
4 582 584 574 590
4 456 457 390 599
4 364 394 583 591
4 376 377 379 585
4 1 433 75 589
4 362 425 455 588
4 574 588 583 591
4 429 587 453 600
4 582 596 590 601
4 507 271 505 578
4 436 251 587 600
4 322 478 327 594
4 478 594 580 595
4 238 37 38 360
4 343 590 582 595
4 354 424 400 596
4 243 34 35 588
4 415 360 37 583
4 1 244 433 589
4 462 390 457 599
4 280 345 30 579
4 30 345 537 579
4 543 596 439 597
4 414 584 432 591
4 324 493 599 601
4 422 581 395 591
4 280 335 345 579
4 346 348 596 601
4 364 394 363 583
4 323 582 324 599
4 379 429 391 585
4 575 587 585 600
4 33 32 476 239
4 574 589 584 591
4 36 421 37 583
4 415 421 363 583
4 580 588 243 602
4 241 588 583 602
4 537 345 405 579
4 378 445 377 592
4 555 403 590 595
4 584 591 414 600
4 271 548 571 578
4 501 583 394 591
4 528 597 253 598
4 343 512 590 595
4 377 445 381 592
4 30 29 280 240
4 414 591 395 600
4 243 588 241 602
4 415 37 421 583
4 456 581 326 599
4 324 599 582 601
4 424 596 354 601
4 446 445 378 592
4 322 327 582 594
4 414 432 413 591
4 555 512 403 595
4 528 399 597 598
4 528 560 253 597
4 454 260 449 592
4 243 239 33 580
4 555 590 512 595
4 433 501 263 589
4 327 343 582 595
4 372 375 374 593
4 477 580 559 595
4 435 78 264 584
4 33 476 317 580
4 35 241 243 588
4 425 321 326 594
4 575 586 585 587
4 586 587 575 597
4 435 526 590 596
4 32 477 476 580
4 436 251 79 587
4 321 588 319 594
4 478 359 327 595
4 575 599 586 601
4 391 429 500 600
4 569 530 490 578
4 321 319 320 594
4 457 456 326 599
4 555 403 404 590
4 462 374 376 585
4 453 429 430 587
4 569 507 530 578
4 572 554 570 578
4 554 489 84 578
4 373 552 513 598
4 348 343 512 590
4 320 317 476 580
4 436 584 414 600
4 405 579 403 595
4 414 436 432 584
4 543 439 400 597
4 585 586 576 587
4 453 587 251 600
4 582 594 581 599
4 478 320 580 594
4 245 240 30 579
4 364 422 395 591
4 543 264 439 596
4 450 262 451 598
4 502 248 76 589
4 371 373 547 593
4 451 513 552 598
4 322 327 324 582
4 324 582 328 601
4 478 580 477 595
4 425 588 321 594
4 321 425 319 588
4 576 587 586 597
4 501 394 413 591
4 436 453 251 600
4 248 29 1 244
4 240 579 245 602
4 239 580 243 602
4 574 590 579 595
4 581 584 575 600
4 323 326 321 594
4 271 569 548 578
4 433 1 38 244
4 36 37 241 583
4 325 324 493 599
4 271 507 569 578
4 362 338 329 588
4 324 328 493 601
4 373 593 369 598
4 328 582 343 601
4 372 374 370 593
4 581 591 584 600
4 478 477 359 595
4 435 77 78 584
4 528 399 560 597
4 440 509 260 592
4 375 372 529 593
4 371 547 380 593
4 575 582 581 599
4 548 572 571 578
4 523 51 50 247
4 581 582 574 594
4 241 35 36 338
4 452 489 273 578
4 405 403 512 595
4 319 317 34 318
4 327 359 343 595
4 390 379 391 585
4 582 575 596 601
4 574 584 581 591
4 452 273 490 578
4 478 322 320 594
4 436 78 432 584
4 432 78 77 584
4 77 502 76 589
4 435 264 526 596
4 524 45 44 246
4 446 449 445 592
4 455 326 456 581
4 493 368 504 586
4 500 414 395 600
4 424 543 400 596
4 239 242 245 602
4 583 589 574 591
4 424 346 348 596
4 380 529 372 593
4 324 327 328 582
4 579 595 580 602
4 242 240 245 602
4 580 574 588 602
4 573 571 570 578
4 554 273 489 578
4 346 424 354 601
4 327 343 328 582
4 580 588 574 594
4 579 574 595 602
4 580 595 574 602
4 583 588 574 602
4 242 244 240 602
4 37 238 241 583
4 241 583 238 602
4 354 586 347 601
4 455 456 422 581
4 528 253 450 598
4 320 476 478 580
4 394 501 415 583
4 462 457 325 599
4 490 273 548 578
4 263 77 76 589
4 346 596 424 601
4 403 345 335 579
4 239 243 242 602
4 328 343 346 601
4 196 18 19 246
4 509 381 445 592
4 457 326 323 599
4 345 403 405 579
4 554 572 273 578
4 373 369 492 598
4 493 347 586 601
4 36 363 338 421
4 477 559 359 595
4 440 251 430 587
4 574 594 582 595
4 348 512 555 590
4 238 244 242 602
4 433 263 76 589
4 242 243 241 602
4 453 430 251 587
4 576 593 592 598
4 548 273 572 578
4 395 414 413 591
4 394 415 363 583
4 548 569 490 578
4 592 593 577 598
4 582 590 574 595
4 404 435 526 590
4 84 570 3 554
4 574 579 589 602
4 528 492 399 598
4 241 238 242 602
4 574 580 594 595
4 323 321 322 594
4 574 589 583 602
4 505 571 61 259
4 347 368 493 586
4 247 24 23 89
4 31 479 405 537
4 347 354 355 586
4 429 453 500 600
4 476 477 478 580
4 371 380 372 593
4 570 571 572 578
4 399 354 400 597
4 440 80 251 587
4 462 376 390 585
4 575 582 599 601
4 348 590 526 596
4 347 355 368 586
4 64 570 553 459
4 364 395 394 591
4 390 376 379 585
4 559 405 512 595
4 322 321 320 594
4 253 439 80 597
4 3 570 84 553
4 346 354 347 601
4 325 323 324 599
4 425 329 319 588
4 492 552 373 598
4 60 271 571 505
4 359 512 343 595
4 425 362 329 588
4 493 328 347 601
4 59 271 548 571
4 373 371 369 593
4 79 251 80 587
4 526 264 543 596
4 369 371 370 593
4 259 571 61 573
4 371 372 370 593
4 260 509 449 592
4 277 74 13 252
4 424 348 526 596
4 395 413 394 591
4 570 64 573 459
4 453 436 414 600
4 509 445 449 592
4 404 526 555 590
4 359 559 512 595
4 399 400 560 597
4 560 439 253 597
4 573 64 63 459
4 348 555 526 590
4 457 323 325 599
4 328 346 347 601
4 259 62 541 573
4 32 334 476 477
4 63 541 573 459
4 571 61 60 505
4 453 414 500 600
4 554 570 3 572
4 248 75 1 276
4 248 1 29 276
4 75 433 1 252
4 50 23 523 247
4 259 61 62 573
4 571 548 59 572
4 451 528 450 598
4 6 188 90 536
4 424 526 543 596
4 524 44 18 246
4 119 168 499 129
4 33 32 334 476
4 38 1 433 252
4 74 1 13 252
4 168 306 499 129
4 3 57 554 572
4 296 114 116 115
4 18 196 524 246
4 306 495 499 129
4 295 116 294 296
4 296 116 294 115
4 13 224 277 252
4 295 114 116 296
4 392 563 155 483
4 23 523 247 89
4 6 188 536 266
4 329 318 35 333
4 65 4 5 535
4 333 35 329 338
4 306 291 463 168
4 474 113 112 111
4 111 474 113 298
4 469 166 88 213
4 294 292 293 116
4 293 117 294 116
4 356 494 175 283
4 357 96 36 420
4 155 563 158 483
4 271 59 60 571
4 160 310 199 190
4 128 193 496 127
4 417 290 498 208
4 102 5 4 535
4 229 189 218 527
4 291 194 463 168
4 19 45 524 246
4 115 184 307 113
4 68 441 258 183
4 168 293 117 119
4 65 5 4 533
4 298 297 111 299
4 208 290 498 204
4 115 464 296 307
4 402 227 423 431
4 499 293 168 119
4 193 531 496 127
4 199 331 310 160
4 288 178 336 175
4 311 199 310 190
4 117 330 115 118
4 337 309 308 105
4 196 151 92 524
4 344 161 486 314
4 294 117 330 115
4 115 184 464 307
4 350 132 351 340
4 307 296 115 113
4 172 36 96 420
4 125 480 341 481
4 339 199 132 340
4 318 442 35 333
4 199 331 311 310
4 101 4 5 533
4 133 351 510 398
4 339 331 199 340
4 438 69 258 86
4 336 208 178 288
4 69 8 258 86
4 8 68 258 183
4 129 168 306 484
4 465 184 466 307
4 528 552 492 598
4 418 392 103 568
4 133 351 132 135
4 572 548 58 273
4 451 552 528 598
4 154 33 32 313
4 24 52 25 201
4 119 522 118 127
4 510 351 133 146
4 341 130 125 481
4 563 100 392 155
4 119 522 330 118
4 85 442 316 344
4 351 132 350 133
4 308 104 337 105
4 119 128 522 127
4 464 294 330 115
4 125 191 480 197
4 131 126 132 339
4 191 466 184 121
4 309 154 313 312
4 85 442 34 316
4 461 309 154 313
4 190 123 302 110
4 441 68 7 183
4 111 300 474 298
4 423 227 198 431
4 178 208 336 175
4 400 439 560 597
4 496 499 495 128
4 156 353 401 361
4 290 444 498 204
4 357 96 358 333
4 224 13 1 252
4 157 402 227 423
4 184 465 466 191
4 416 174 420 516
4 192 292 444 295
4 116 294 292 295
4 125 480 466 482
4 198 157 227 423
4 191 480 466 125
4 9 438 437 187
4 255 92 151 524
4 496 531 522 127
4 247 523 51 89
4 339 132 350 340
4 350 131 132 339
4 307 184 466 121
4 199 132 340 136
4 121 122 482 112
4 161 344 85 314
4 461 309 95 154
4 111 114 297 298
4 96 357 416 420
4 184 140 118 475
4 184 464 465 475
4 131 410 350 133
4 402 205 401 157
4 494 288 336 175
4 118 464 184 475
4 466 121 125 482
4 204 444 498 382
4 340 132 351 135
4 234 261 276 74
4 361 207 485 423
4 100 563 158 155
4 515 367 221 514
4 289 292 444 192
4 339 350 131 491
4 442 35 34 318
4 168 129 139 484
4 421 36 37 420
4 383 194 463 286
4 303 302 508 108
4 298 111 300 299
4 112 300 474 111
4 189 229 265 527
4 85 33 154 314
4 221 86 515 514
4 491 151 131 130
4 191 467 480 197
4 524 196 19 246
4 230 417 336 416
4 291 120 194 168
4 68 8 7 183
4 480 466 467 191
4 126 199 311 122
4 102 188 5 535
4 105 95 309 154
4 306 293 291 168
4 121 191 466 125
4 465 464 184 307
4 154 309 105 312
4 296 295 114 297
4 103 337 365 349
4 36 35 357 338
4 123 302 310 190
4 293 117 330 294
4 129 306 495 484
4 100 418 392 103
4 420 174 172 516
4 282 94 222 279
4 258 183 517 514
4 51 24 247 89
4 353 156 134 361
4 515 86 438 514
4 464 296 294 115
4 388 138 129 484
4 166 254 469 88
4 140 127 472 141
4 172 416 174 420
4 292 192 116 295
4 472 127 140 475
4 431 402 227 426
4 340 331 199 136
4 68 69 8 258
4 133 410 350 398
4 188 90 536 266
4 199 331 339 311
4 278 219 249 279
4 115 330 464 118
4 289 236 290 288
4 138 387 385 388
4 129 495 388 484
4 350 351 133 398
4 282 222 283 279
4 466 474 307 121
4 91 441 183 517
4 482 474 121 112
4 168 194 463 139
4 522 127 472 475
4 97 53 268 520
4 499 293 306 168
4 385 387 169 386
4 174 416 336 516
4 357 35 96 333
4 118 330 464 475
4 333 357 35 338
4 4 0 65 557
4 236 289 226 288
4 474 307 113 298
4 48 49 22 518
4 340 419 331 136
4 292 289 291 120
4 302 305 310 190
4 339 131 126 491
4 10 9 437 187
4 35 358 96 333
4 7 6 90 536
4 332 508 310 123
4 207 485 508 303
4 108 303 302 301
4 311 339 126 341
4 91 183 212 517
4 113 307 296 298
4 57 554 572 273
4 305 474 482 112
4 142 487 162 486
4 388 385 138 484
4 332 310 331 160
4 416 336 230 174
4 66 5 6 188
4 444 289 236 290
4 310 305 311 190
4 110 301 302 300
4 65 0 4 558
4 431 149 419 407
4 297 195 111 299
4 123 508 302 108
4 438 70 9 437
4 111 113 114 298
4 420 37 421 393
4 114 296 297 298
4 384 386 212 517
4 140 465 468 475
4 331 332 160 419
4 110 302 305 300
4 356 175 176 283
4 410 131 202 133
4 258 438 86 514
4 229 218 170 389
4 466 474 121 482
4 229 210 101 274
4 122 125 121 482
4 46 19 45 269
4 303 304 106 308
4 308 304 106 105
4 536 67 6 266
4 308 106 104 105
4 172 96 416 420
4 140 468 465 191
4 95 337 365 103
4 127 118 140 475
4 423 198 332 431
4 330 117 119 118
4 109 301 300 299
4 340 351 352 135
4 37 360 393 281
4 222 283 284 282
4 118 522 330 475
4 53 26 25 97
4 280 248 29 276
4 292 289 120 192
4 473 152 215 269
4 491 126 339 341
4 473 470 213 152
4 482 122 311 305
4 181 356 279 443
4 180 284 515 282
4 299 109 301 428
4 55 56 28 274
4 351 366 352 135
4 18 196 92 524
4 358 165 442 333
4 108 302 123 110
4 496 497 193 128
4 491 130 341 481
4 495 137 128 129
4 296 114 115 113
4 205 156 401 157
4 161 312 107 428
4 302 310 508 123
4 300 474 305 112
4 254 471 166 469
4 503 487 142 486
4 467 465 468 191
4 30 418 103 568
4 213 88 469 473
4 287 226 289 288
4 26 53 54 268
4 190 305 122 112
4 47 21 20 88
4 4 0 557 232
4 184 307 113 121
4 157 207 361 423
4 313 315 33 334
4 522 330 499 119
4 108 109 301 110
4 172 37 36 420
4 91 218 189 527
4 508 485 207 423
4 120 291 293 168
4 300 110 109 111
4 58 59 548 572
4 387 147 170 532
4 515 187 180 282
4 126 199 339 311
4 418 100 30 103
4 382 124 444 295
4 468 140 143 191
4 358 230 417 488
4 338 357 36 421
4 289 291 226 287
4 358 96 357 416
4 183 441 258 517
4 208 498 417 164
4 170 387 532 389
4 434 250 72 225
4 351 510 366 146
4 117 294 116 115
4 468 140 141 143
4 164 208 498 204
4 344 316 85 314
4 510 133 150 146
4 384 200 367 514
4 467 466 465 191
4 147 138 137 388
4 341 125 126 122
4 261 276 538 234
4 397 495 137 128
4 517 183 200 514
4 464 184 115 118
4 255 17 43 521
4 531 193 539 141
4 474 113 121 112
4 96 416 174 172
4 303 508 207 108
4 199 311 122 190
4 293 292 291 120
4 367 180 286 284
4 66 5 188 535
4 431 149 332 419
4 302 305 190 110
4 480 125 341 482
4 156 550 93 412
4 465 184 140 191
4 494 285 177 283
4 32 461 334 479
4 336 290 417 208
4 143 467 191 197
4 183 258 8 86
4 113 307 474 121
4 130 125 126 341
4 1 38 224 252
4 34 165 442 85
4 194 226 291 287
4 95 365 31 103
4 137 495 397 388
4 305 190 110 112
4 525 255 151 524
4 110 300 112 111
4 308 309 304 105
4 386 169 218 389
4 305 482 122 112
4 195 114 297 111
4 472 140 468 475
4 521 92 17 203
4 539 472 531 141
4 340 352 419 136
4 476 315 33 317
4 382 163 124 195
4 137 397 396 388
4 123 207 508 108
4 207 106 303 108
4 295 382 124 297
4 126 491 130 341
4 130 152 197 481
4 187 222 180 282
4 353 342 155 349
4 463 194 291 287
4 342 485 106 308
4 52 24 256 201
4 212 91 517 527
4 138 129 137 388
4 86 183 258 514
4 172 420 516 460
4 357 36 421 420
4 288 287 178 285
4 183 7 441 91
4 510 133 398 150
4 200 384 517 514
4 54 206 268 519
4 89 256 201 153
4 132 131 350 133
4 155 353 156 134
4 55 27 54 519
4 154 313 312 314
4 179 286 145 180
4 311 341 122 482
4 301 302 108 110
4 313 33 32 334
4 517 91 441 527
4 218 212 169 386
4 386 387 169 389
4 522 118 127 475
4 208 336 290 288
4 133 202 410 398
4 147 170 169 387
4 165 358 35 333
4 210 55 28 274
4 140 184 465 475
4 438 9 86 187
4 149 186 148 407
4 393 420 172 460
4 150 203 551 98
4 198 332 508 423
4 382 297 503 195
4 128 497 193 153
4 229 265 527 534
4 287 463 194 286
4 285 177 283 284
4 105 161 312 107
4 144 383 385 384
4 386 144 385 384
4 226 178 236 288
4 104 95 337 105
4 567 532 216 396
4 151 410 255 525
4 89 497 256 153
4 289 120 192 226
4 97 567 216 211
4 105 309 304 312
4 126 311 341 122
4 524 45 19 269
4 360 37 38 281
4 25 52 53 520
4 8 69 9 86
4 132 126 199 339
4 169 170 218 389
4 285 179 177 284
4 207 106 485 303
4 516 494 175 356
4 494 177 175 283
4 156 157 134 361
4 151 202 92 410
4 317 316 34 318
4 267 551 203 98
4 385 383 139 484
4 189 101 5 533
4 570 3 64 553
4 438 9 69 86
4 42 16 41 267
4 124 114 116 295
4 65 5 66 535
4 155 342 104 349
4 316 442 34 318
4 50 49 270 228
4 296 114 113 298
4 138 139 129 484
4 19 46 215 269
4 487 162 163 142
4 497 193 531 496
4 261 434 73 220
4 136 132 340 135
4 65 0 2 557
4 396 387 147 388
4 255 44 18 524
4 417 230 358 416
4 284 367 180 515
4 303 106 485 308
4 315 316 33 317
4 337 95 104 103
4 460 516 173 356
4 173 181 99 443
4 463 139 383 484
4 173 460 356 443
4 176 222 94 279
4 32 334 477 479
4 85 165 442 344
4 129 495 137 388
4 200 183 86 514
4 17 16 42 203
4 211 567 216 396
4 433 360 38 252
4 147 216 532 396
4 491 131 126 130
4 497 256 523 89
4 267 42 16 203
4 26 53 268 97
4 152 473 470 540
4 202 92 410 561
4 255 92 17 521
4 361 402 157 423
4 97 25 53 520
4 10 9 70 437
4 336 494 175 516
4 122 341 125 482
4 397 497 496 128
4 124 192 444 295
4 127 531 522 472
4 2 0 65 558
4 109 300 111 299
4 495 397 496 128
4 231 4 0 558
4 54 27 26 206
4 101 274 533 534
4 145 144 200 384
4 124 116 192 295
4 0 56 557 232
4 163 382 503 195
4 252 360 38 281
4 195 297 503 299
4 19 46 20 215
4 383 145 194 286
4 494 288 178 285
4 210 534 235 519
4 255 18 92 524
4 109 301 110 300
4 396 147 137 388
4 179 285 286 284
4 170 169 387 389
4 535 188 66 266
4 104 342 337 349
4 216 147 211 396
4 291 120 226 194
4 274 101 229 534
4 303 106 304 107
4 161 312 428 486
4 419 160 331 136
4 285 286 287 179
4 35 34 165 442
4 91 212 218 527
4 342 353 134 361
4 410 92 151 255
4 162 161 142 486
4 402 401 205 412
4 224 277 252 281
4 527 386 218 389
4 337 342 104 308
4 208 174 336 175
4 52 25 201 520
4 442 165 35 333
4 27 55 28 210
4 31 30 103 568
4 487 163 498 382
4 172 99 393 460
4 473 152 269 540
4 231 0 39 558
4 316 34 33 317
4 309 337 95 105
4 134 157 207 361
4 387 169 138 385
4 518 270 49 228
4 282 249 94 279
4 261 13 73 74
4 160 332 310 123
4 175 177 176 283
4 107 312 304 428
4 386 212 144 384
4 95 32 461 154
4 160 199 331 136
4 202 92 561 203
4 417 230 336 208
4 134 485 342 361
4 153 137 397 211
4 212 144 169 386
4 106 303 108 107
4 128 137 397 153
4 93 205 156 412
4 65 66 5 533
4 460 173 99 443
4 382 487 163 503
4 305 122 311 190
4 186 149 431 407
4 96 36 35 357
4 150 551 511 98
4 544 8 9 87
4 207 485 134 361
4 567 97 520 211
4 254 469 88 473
4 470 480 197 481
4 42 267 521 203
4 176 94 219 279
4 180 286 145 367
4 517 386 212 527
4 289 291 120 226
4 138 147 387 388
4 103 104 337 349
4 101 189 229 533
4 356 181 173 443
4 419 149 160 136
4 206 54 27 519
4 167 539 193 141
4 367 145 200 384
4 397 497 128 153
4 510 409 366 146
4 56 0 28 232
4 205 427 185 426
4 520 97 201 211
4 181 278 277 443
4 151 131 410 491
4 9 69 8 544
4 305 110 300 112
4 159 511 542 209
4 546 542 511 209
4 96 358 35 165
4 525 152 151 130
4 165 488 442 344
4 71 437 249 94
4 104 103 155 349
4 49 50 23 228
4 135 133 351 146
4 161 312 486 314
4 130 525 152 481
4 427 205 412 426
4 265 229 533 534
4 189 229 533 265
4 9 70 544 185
4 154 32 461 313
4 230 358 165 488
4 139 194 463 383
4 176 356 283 279
4 42 43 17 521
4 295 124 114 297
4 358 165 488 442
4 367 383 145 384
4 143 469 467 197
4 415 37 360 393
4 180 177 179 284
4 30 345 280 418
4 6 189 265 91
4 174 336 230 208
4 72 12 73 434
4 278 181 279 443
4 105 161 154 312
4 356 176 181 279
4 56 2 0 557
4 157 156 401 361
4 6 5 66 189
4 444 204 124 382
4 286 145 194 179
4 218 212 386 527
4 37 415 421 393
4 203 551 561 150
4 535 4 102 558
4 187 438 437 515
4 138 147 169 387
4 149 160 332 419
4 0 2 39 558
4 367 221 180 515
4 105 304 106 107
4 515 437 187 282
4 139 144 145 383
4 497 545 256 153
4 13 73 74 277
4 524 19 196 269
4 497 556 237 89
4 52 24 51 256
4 207 157 198 423
4 467 468 143 191
4 71 72 11 249
4 7 67 441 91
4 310 160 123 190
4 471 468 141 143
4 227 186 149 431
4 286 383 145 367
4 561 202 203 150
4 120 293 117 168
4 67 265 441 91
4 151 196 152 525
4 6 7 67 536
4 468 140 472 141
4 485 342 106 134
4 350 410 131 491
4 91 189 265 527
4 20 47 88 566
4 208 290 236 288
4 498 417 164 488
4 189 5 66 533
4 516 175 173 356
4 32 31 95 461
4 152 470 197 481
4 162 344 161 486
4 99 393 460 281
4 7 8 68 257
4 534 210 274 519
4 252 38 224 281
4 175 174 336 516
4 207 485 106 134
4 14 40 15 209
4 15 41 16 98
4 312 304 105 107
4 521 17 42 203
4 222 176 283 279
4 223 411 87 257
4 155 104 342 134
4 164 230 165 488
4 503 487 163 142
4 0 39 14 231
4 151 491 525 130
4 225 550 93 156
4 154 161 85 314
4 89 270 237 228
4 182 171 223 565
4 16 267 203 98
4 544 70 427 185
4 426 186 431 407
4 304 301 107 428
4 434 12 73 220
4 297 124 114 195
4 409 408 214 266
4 68 67 7 536
4 334 315 33 476
4 284 180 222 282
4 136 340 352 135
4 13 261 234 74
4 219 249 72 278
4 97 201 25 520
4 206 27 210 519
4 274 210 55 519
4 194 139 145 383
4 183 200 212 517
4 443 99 460 281
4 461 32 31 479
4 470 480 467 197
4 488 164 498 487
4 297 382 124 195
4 211 137 397 396
4 91 265 441 527
4 366 171 352 135
4 532 387 147 396
4 401 156 205 412
4 274 229 210 534
4 204 163 124 382
4 221 86 187 515
4 209 14 40 275
4 11 71 249 94
4 277 224 73 278
4 392 100 103 155
4 111 195 109 299
4 85 162 344 161
4 141 472 468 471
4 461 31 365 479
4 544 87 411 257
4 99 38 37 281
4 401 402 157 361
4 85 34 33 316
4 534 229 210 235
4 196 215 152 269
4 65 4 535 558
4 19 215 196 269
4 123 508 207 198
4 523 556 497 89
4 186 205 185 426
4 135 351 366 146
4 301 109 108 107
4 169 144 138 385
4 128 496 522 127
4 535 102 542 275
4 198 508 207 423
4 201 256 545 153
4 178 226 287 288
4 187 86 438 515
4 173 176 181 356
4 397 545 153 211
4 345 30 537 418
4 268 206 26 97
4 257 223 411 565
4 178 208 236 288
4 332 508 123 198
4 401 550 156 412
4 352 419 148 407
4 383 139 144 385
4 143 469 468 467
4 198 149 332 431
4 178 288 494 175
4 532 268 216 562
4 312 161 154 314
4 159 98 511 209
4 149 332 160 198
4 7 67 68 441
4 51 523 256 89
4 10 70 71 437
4 185 544 9 87
4 212 200 144 384
4 538 29 280 418
4 142 161 107 428
4 444 289 192 236
4 521 561 92 203
4 212 200 384 517
4 265 67 6 91
4 538 29 30 100
4 139 138 385 484
4 471 166 518 254
4 144 145 383 384
4 299 503 142 428
4 545 201 153 211
4 146 409 366 214
4 385 169 144 386
4 503 142 428 486
4 231 102 4 558
4 182 90 171 565
4 516 173 172 460
4 101 557 4 533
4 21 47 48 254
4 155 342 353 134
4 147 216 170 532
4 309 95 337 461
4 278 12 219 181
4 572 58 57 273
4 172 99 37 393
4 249 219 94 279
4 437 249 94 282
4 551 267 511 98
4 141 166 471 143
4 227 186 431 426
4 186 185 427 426
4 518 22 48 217
4 69 70 9 438
4 285 178 494 177
4 434 72 12 225
4 237 556 531 539
4 163 204 498 382
4 174 173 172 516
4 104 342 106 308
4 175 176 173 356
4 67 7 6 91
4 520 545 567 211
4 104 106 342 134
4 487 488 162 344
4 256 24 51 89
4 194 287 286 179
4 139 138 144 385
4 201 256 52 520
4 93 250 11 71
4 201 545 520 211
4 192 120 292 116
4 95 31 365 461
4 14 39 40 275
4 206 26 54 268
4 250 72 11 71
4 397 545 211 396
4 135 366 171 146
4 213 473 152 215
4 43 44 18 255
4 299 142 109 428
4 123 160 332 198
4 557 65 4 533
4 151 131 202 410
4 130 491 525 481
4 93 11 10 71
4 344 162 487 486
4 206 216 268 562
4 407 186 148 223
4 420 172 37 393
4 175 173 174 516
4 224 12 73 278
4 30 29 538 418
4 556 237 270 539
4 406 366 171 352
4 542 159 209 233
4 182 223 87 257
4 185 549 427 412
4 180 145 221 367
4 283 177 222 284
4 8 69 68 257
4 180 179 286 284
4 233 188 102 535
4 220 434 12 158
4 536 90 408 266
4 4 557 101 232
4 107 301 109 428
4 538 563 261 234
4 189 66 6 265
4 158 156 155 483
4 255 410 92 561
4 365 337 95 461
4 437 71 10 94
4 87 185 427 186
4 213 469 470 473
4 278 224 12 181
4 48 518 217 254
4 518 539 270 167
4 290 236 444 204
4 237 497 89 153
4 285 287 178 179
4 155 156 353 483
4 29 30 280 418
4 412 205 402 426
4 87 544 8 257
4 71 11 10 94
4 167 518 539 471
4 538 280 29 276
4 467 469 470 197
4 546 511 267 98
4 549 185 93 412
4 93 250 549 412
4 211 147 137 396
4 562 268 206 519
4 204 192 444 124
4 398 133 202 150
4 155 353 392 483
4 216 206 235 562
4 227 149 198 431
4 232 28 56 274
4 562 235 534 519
4 250 93 550 412
4 163 503 142 195
4 276 75 1 74
4 167 228 518 217
4 98 546 511 209
4 172 173 99 460
4 268 567 97 520
4 546 542 209 275
4 406 411 407 223
4 469 468 471 143
4 537 30 31 568
4 409 146 159 214
4 195 142 109 299
4 518 49 22 228
4 539 472 141 471
4 205 185 427 412
4 74 75 1 252
4 393 99 37 281
4 409 408 366 214
4 443 277 224 281
4 257 182 223 565
4 12 13 73 220
4 267 16 41 98
4 41 546 267 98
4 511 150 98 159
4 166 469 143 213
4 94 10 437 187
4 27 55 210 519
4 549 427 70 185
4 135 171 352 148
4 261 73 13 220
4 28 232 210 274
4 488 165 164 162
4 217 518 167 166
4 397 545 497 153
4 275 535 102 558
4 171 406 223 565
4 215 46 566 269
4 367 200 221 514
4 200 221 145 367
4 313 32 461 334
4 8 7 182 257
4 410 151 491 525
4 406 411 223 565
4 531 193 237 539
4 525 196 152 540
4 7 90 182 536
4 155 103 392 349
4 224 38 99 281
4 69 8 544 257
4 186 427 87 411
4 533 66 189 265
4 236 289 192 226
4 24 256 201 89
4 155 392 353 349
4 568 392 103 349
4 158 220 563 100
4 521 551 561 203
4 21 47 254 88
4 533 229 101 534
4 56 557 232 274
4 408 90 214 266
4 269 152 196 540
4 148 419 149 407
4 540 152 525 481
4 235 534 170 562
4 225 12 434 158
4 549 70 10 185
4 30 538 100 418
4 195 503 142 299
4 9 70 69 544
4 182 87 8 257
4 418 538 100 392
4 428 142 161 486
4 426 427 186 411
4 469 143 213 197
4 142 107 109 428
4 41 15 546 98
4 177 178 494 175
4 518 167 166 471
4 165 85 162 344
4 567 216 268 97
4 230 358 96 165
4 398 561 551 150
4 231 275 102 558
4 103 365 31 568
4 102 209 542 275
4 532 216 268 567
4 30 537 418 568
4 233 188 535 266
4 235 206 210 519
4 406 352 148 407
4 205 227 402 426
4 398 551 510 150
4 401 353 156 483
4 237 193 497 153
4 236 192 444 204
4 287 194 226 179
4 92 255 561 521
4 226 178 287 179
4 205 93 185 412
4 146 366 171 214
4 146 510 409 159
4 534 170 229 235
4 151 196 525 524
4 563 261 234 220
4 15 40 41 546
4 249 72 11 219
4 21 48 22 217
4 222 187 94 282
4 352 136 135 148
4 511 542 409 159
4 70 9 10 185
4 136 419 149 148
4 234 276 1 74
4 180 222 177 284
4 538 563 234 100
4 221 187 180 515
4 73 13 12 224
4 541 62 63 573
4 352 171 406 148
4 219 278 181 279
4 566 88 20 215
4 141 167 539 471
4 164 417 230 488
4 196 524 269 540
4 214 233 409 266
4 90 408 171 565
4 22 518 228 217
4 534 229 170 389
4 510 511 409 159
4 209 14 275 231
4 214 90 188 266
4 228 518 270 167
4 237 270 539 167
4 148 171 406 223
4 417 230 208 164
4 488 165 162 344
4 163 498 164 487
4 352 419 136 148
4 535 542 233 266
4 202 561 398 150
4 47 254 88 566
4 193 237 539 167
4 210 232 101 274
4 219 72 12 278
4 177 222 176 283
4 550 250 434 225
4 233 209 542 102
4 66 67 6 265
4 566 473 215 269
4 72 73 12 278
4 216 206 268 97
4 549 10 70 71
4 167 141 166 471
4 196 525 524 540
4 498 164 204 163
4 187 437 94 282
4 86 221 200 514
4 411 186 426 407
4 96 358 230 416
4 427 544 87 411
4 233 542 409 266
4 233 409 159 214
4 224 99 443 281
4 511 510 551 150
4 230 96 416 174
4 470 152 540 481
4 166 217 518 254
4 73 13 224 277
4 254 217 21 88
4 562 534 170 389
4 171 366 406 408
4 234 1 13 74
4 473 213 88 215
4 278 277 224 181
4 402 227 205 157
4 261 563 434 220
4 93 549 250 71
4 181 277 224 443
4 23 22 49 228
4 254 166 217 88
4 220 234 563 100
4 267 551 521 203
4 557 101 232 274
4 72 12 11 219
4 176 219 181 279
4 31 365 537 568
4 427 544 185 87
4 213 470 197 152
4 214 188 233 266
4 47 20 46 566
4 469 471 166 143
4 39 275 231 558
4 562 170 532 389
4 10 549 185 93
4 10 549 93 71
4 275 102 209 231
4 235 170 216 562
4 275 14 39 231
4 236 290 208 204
4 11 72 250 225
4 545 256 201 520
4 156 225 550 158
4 566 20 46 215
4 72 11 12 225
4 11 249 219 94
4 206 235 562 519
4 270 237 228 167
4 557 101 274 533
4 532 216 170 562
4 178 285 179 177
4 566 254 88 473
4 29 538 234 100
4 162 164 488 487
4 470 469 213 197
4 217 21 48 254
4 102 542 233 535
4 209 40 546 275
4 568 103 365 349
4 163 164 162 487
4 411 87 186 223
4 99 181 224 443
4 408 171 366 214
4 146 150 510 159
4 93 250 550 225
4 98 15 546 209
4 234 261 13 220
4 182 257 536 565
4 276 1 29 234
4 546 15 40 209
4 227 205 186 426
4 411 186 407 223
4 407 148 406 223
4 11 250 93 225
4 276 29 538 234
4 220 563 434 158
4 90 182 536 565
4 158 563 434 483
4 536 408 90 565
4 561 410 202 398
4 545 567 211 396
4 538 563 100 392
4 159 542 409 233
4 31 365 479 537
4 511 510 150 159
4 406 171 408 565
4 158 550 156 483
4 90 171 408 214
4 401 156 550 483
4 225 434 550 158
4 158 434 550 483
4 88 566 473 215
4 586 593 374 576
4 374 593 586 370
4 592 430 440 509
4 592 440 430 587
4 599 504 493 325
4 599 493 504 586
4 591 455 422 581
4 591 422 455 364
4 598 355 597 576
4 598 597 355 492
4 479 405 579 31
4 579 405 479 559
4 579 245 479 31
4 479 245 579 559
4 580 34 33 243
4 580 33 34 317
4 590 589 404 502
4 590 404 589 579
4 335 404 589 502
4 335 589 404 579
4 597 601 575 586
4 575 601 597 596
4 588 363 364 362
4 588 364 363 583
4 355 597 354 399
4 354 597 355 586
4 597 79 80 587
4 597 80 79 439
4 293 116 120 117
4 120 116 293 292
4 125 481 197 480
4 197 481 125 130
4 313 33 314 154
4 313 314 33 315
4 314 33 316 85
4 314 316 33 315
4 119 293 330 499
4 119 330 293 117
4 303 107 301 108
4 301 107 303 304
4 499 129 128 119
4 128 129 499 495
4 17 255 18 92
4 18 255 17 43
4 484 168 463 139
4 484 463 168 306
4 6 266 66 188
4 66 266 6 67
4 128 499 522 496
4 522 499 128 119
4 531 141 127 193
4 127 141 531 472
4 527 229 389 218
4 527 389 229 534
4 89 228 523 270
4 89 523 228 23
4 50 523 228 270
4 50 228 523 23
4 237 531 497 193
4 237 497 531 556
4 7 257 536 182
4 536 257 7 68
4 89 556 270 523
4 89 270 556 237

CELL_TYPES 3036
1
1
1
1
3
3
3
3
3
3
3
3
3
3
3
3
3
3
3
3
3
3
3
3
3
3
3
3
3
3
3
3
3
3
3
3
3
3
3
3
3
3
3
3
3
3
3
3
3
3
3
3
3
3
3
3
3
3
3
3
3
3
3
3
3
3
3
3
3
3
3
3
3
3
3
3
3
3
3
3
3
3
3
3
3
3
3
3
3
3
3
5
5
5
5
5
5
5
5
5
5
5
5
5
5
5
5
5
5
5
5
5
5
5
5
5
5
5
5
5
5
5
5
5
5
5
5
5
5
5
5
5
5
5
5
5
5
5
5
5
5
5
5
5
5
5
5
5
5
5
5
5
5
5
5
5
5
5
5
5
5
5
5
5
5
5
5
5
5
5
5
5
5
5
5
5
5
5
5
5
5
5
5
5
5
5
5
5
5
5
5
5
5
5
5
5
5
5
5
5
5
5
5
5
5
5
5
5
5
5
5
5
5
5
5
5
5
5
5
5
5
5
5
5
5
5
5
5
5
5
5
5
5
5
5
5
5
5
5
5
5
5
5
5
5
5
5
5
5
5
5
5
5
5
5
5
5
5
5
5
5
5
5
5
5
5
5
5
5
5
5
5
5
5
5
5
5
5
5
5
5
5
5
5
5
5
5
5
5
5
5
5
5
5
5
5
5
5
5
5
5
5
5
5
5
5
5
5
5
5
5
5
5
5
5
5
5
5
5
5
5
5
5
5
5
5
5
5
5
5
5
5
5
5
5
5
5
5
5
5
5
5
5
5
5
5
5
5
5
5
5
5
5
5
5
5
5
5
5
5
5
5
5
5
5
5
5
5
5
5
5
5
5
5
5
5
5
5
5
5
5
5
5
5
5
5
5
5
5
5
5
5
5
5
5
5
5
5
5
5
5
5
5
5
5
5
5
5
5
5
5
5
5
5
5
5
5
5
5
5
5
5
5
5
5
5
5
5
5
5
5
5
5
5
5
5
5
5
5
5
5
5
5
5
5
5
5
5
5
5
5
5
5
5
5
5
5
5
5
5
5
5
5
5
5
5
5
5
5
5
5
5
5
5
5
5
5
5
5
5
5
5
5
5
5
5
5
5
5
5
5
5
5
5
5
5
5
5
5
5
5
5
5
5
5
5
5
5
5
5
5
5
5
5
5
5
5
5
5
5
5
5
5
5
5
5
5
5
5
5
5
5
5
5
5
5
5
5
5
5
5
5
5
5
5
5
5
5
5
5
5
5
5
5
5
5
5
5
5
5
5
5
5
5
5
5
5
5
5
5
5
5
5
5
5
5
5
5
5
5
5
5
5
5
5
5
5
5
5
5
5
5
5
5
5
5
5
5
5
5
5
5
5
5
5
5
5
5
5
5
5
5
5
5
5
5
5
5
5
5
5
5
5
5
5
5
5
5
5
5
5
5
5
5
5
5
5
5
5
5
5
5
5
5
5
5
5
5
5
5
5
5
5
5
5
5
5
5
5
5
5
5
5
5
5
5
5
5
5
5
5
5
5
5
5
5
5
5
5
5
5
5
5
5
5
5
5
5
5
5
5
5
5
5
5
5
5
5
5
5
5
5
5
5
5
5
5
5
5
5
5
5
5
5
5
5
5
5
5
5
5
5
5
5
5
5
5
5
5
5
5
5
5
5
5
5
5
5
5
5
5
5
5
5
5
5
5
5
5
5
5
5
5
5
5
5
5
5
5
5
5
5
5
5
5
5
5
5
5
5
5
5
5
5
5
5
5
5
5
5
5
5
5
5
5
5
5
5
5
5
5
5
5
5
5
5
5
5
5
5
5
5
5
5
5
5
5
5
5
5
5
5
5
5
5
5
5
5
5
5
5
5
5
5
5
5
5
5
5
5
5
5
5
5
5
5
5
5
5
5
5
5
5
5
5
5
5
5
5
5
5
5
5
5
5
5
5
5
5
5
5
5
5
5
5
5
5
5
5
5
5
5
5
5
5
5
5
5
5
5
5
5
5
5
5
5
5
5
5
5
5
5
5
5
5
5
5
5
5
5
5
5
5
5
5
5
5
5
5
5
5
5
5
5
5
5
5
5
5
5
5
5
5
5
5
5
5
5
5
5
5
5
5
5
5
5
5
5
5
5
5
5
5
5
5
5
5
5
5
5
5
5
5
5
5
5
5
5
5
5
5
5
5
5
5
5
5
5
5
5
5
5
5
5
5
5
5
5
5
5
5
5
5
5
5
5
5
5
5
5
5
5
5
5
5
5
5
5
5
5
5
5
5
5
5
5
5
5
5
5
5
5
5
5
5
5
5
5
5
5
5
5
5
5
5
5
5
5
5
5
5
5
5
5
5
5
5
5
5
5
5
5
5
5
5
5
5
5
5
5
5
5
5
5
5
5
5
5
5
5
5
5
5
5
5
5
5
5
5
5
5
5
5
5
5
5
5
5
5
5
5
5
5
5
5
5
5
5
5
5
5
5
5
5
5
5
5
5
5
5
5
5
5
5
5
5
5
5
5
5
5
5
5
5
5
5
5
5
5
5
5
5
5
5
5
5
5
5
5
5
5
5
5
5
5
5
5
5
5
5
5
5
5
5
5
5
5
5
5
5
5
5
5
5
5
5
5
5
5
5
5
5
5
5
5
5
5
5
5
5
5
5
5
5
5
5
5
5
5
5
5
5
5
5
5
5
5
5
5
5
5
5
5
5
5
5
5
5
5
5
5
5
5
5
5
5
5
5
5
5
5
5
5
5
5
5
5
5
5
5
5
5
5
5
5
5
5
5
5
5
5
5
5
5
5
10
10
10
10
10
10
10
10
10
10
10
10
10
10
10
10
10
10
10
10
10
10
10
10
10
10
10
10
10
10
10
10
10
10
10
10
10
10
10
10
10
10
10
10
10
10
10
10
10
10
10
10
10
10
10
10
10
10
10
10
10
10
10
10
10
10
10
10
10
10
10
10
10
10
10
10
10
10
10
10
10
10
10
10
10
10
10
10
10
10
10
10
10
10
10
10
10
10
10
10
10
10
10
10
10
10
10
10
10
10
10
10
10
10
10
10
10
10
10
10
10
10
10
10
10
10
10
10
10
10
10
10
10
10
10
10
10
10
10
10
10
10
10
10
10
10
10
10
10
10
10
10
10
10
10
10
10
10
10
10
10
10
10
10
10
10
10
10
10
10
10
10
10
10
10
10
10
10
10
10
10
10
10
10
10
10
10
10
10
10
10
10
10
10
10
10
10
10
10
10
10
10
10
10
10
10
10
10
10
10
10
10
10
10
10
10
10
10
10
10
10
10
10
10
10
10
10
10
10
10
10
10
10
10
10
10
10
10
10
10
10
10
10
10
10
10
10
10
10
10
10
10
10
10
10
10
10
10
10
10
10
10
10
10
10
10
10
10
10
10
10
10
10
10
10
10
10
10
10
10
10
10
10
10
10
10
10
10
10
10
10
10
10
10
10
10
10
10
10
10
10
10
10
10
10
10
10
10
10
10
10
10
10
10
10
10
10
10
10
10
10
10
10
10
10
10
10
10
10
10
10
10
10
10
10
10
10
10
10
10
10
10
10
10
10
10
10
10
10
10
10
10
10
10
10
10
10
10
10
10
10
10
10
10
10
10
10
10
10
10
10
10
10
10
10
10
10
10
10
10
10
10
10
10
10
10
10
10
10
10
10
10
10
10
10
10
10
10
10
10
10
10
10
10
10
10
10
10
10
10
10
10
10
10
10
10
10
10
10
10
10
10
10
10
10
10
10
10
10
10
10
10
10
10
10
10
10
10
10
10
10
10
10
10
10
10
10
10
10
10
10
10
10
10
10
10
10
10
10
10
10
10
10
10
10
10
10
10
10
10
10
10
10
10
10
10
10
10
10
10
10
10
10
10
10
10
10
10
10
10
10
10
10
10
10
10
10
10
10
10
10
10
10
10
10
10
10
10
10
10
10
10
10
10
10
10
10
10
10
10
10
10
10
10
10
10
10
10
10
10
10
10
10
10
10
10
10
10
10
10
10
10
10
10
10
10
10
10
10
10
10
10
10
10
10
10
10
10
10
10
10
10
10
10
10
10
10
10
10
10
10
10
10
10
10
10
10
10
10
10
10
10
10
10
10
10
10
10
10
10
10
10
10
10
10
10
10
10
10
10
10
10
10
10
10
10
10
10
10
10
10
10
10
10
10
10
10
10
10
10
10
10
10
10
10
10
10
10
10
10
10
10
10
10
10
10
10
10
10
10
10
10
10
10
10
10
10
10
10
10
10
10
10
10
10
10
10
10
10
10
10
10
10
10
10
10
10
10
10
10
10
10
10
10
10
10
10
10
10
10
10
10
10
10
10
10
10
10
10
10
10
10
10
10
10
10
10
10
10
10
10
10
10
10
10
10
10
10
10
10
10
10
10
10
10
10
10
10
10
10
10
10
10
10
10
10
10
10
10
10
10
10
10
10
10
10
10
10
10
10
10
10
10
10
10
10
10
10
10
10
10
10
10
10
10
10
10
10
10
10
10
10
10
10
10
10
10
10
10
10
10
10
10
10
10
10
10
10
10
10
10
10
10
10
10
10
10
10
10
10
10
10
10
10
10
10
10
10
10
10
10
10
10
10
10
10
10
10
10
10
10
10
10
10
10
10
10
10
10
10
10
10
10
10
10
10
10
10
10
10
10
10
10
10
10
10
10
10
10
10
10
10
10
10
10
10
10
10
10
10
10
10
10
10
10
10
10
10
10
10
10
10
10
10
10
10
10
10
10
10
10
10
10
10
10
10
10
10
10
10
10
10
10
10
10
10
10
10
10
10
10
10
10
10
10
10
10
10
10
10
10
10
10
10
10
10
10
10
10
10
10
10
10
10
10
10
10
10
10
10
10
10
10
10
10
10
10
10
10
10
10
10
10
10
10
10
10
10
10
10
10
10
10
10
10
10
10
10
10
10
10
10
10
10
10
10
10
10
10
10
10
10
10
10
10
10
10
10
10
10
10
10
10
10
10
10
10
10
10
10
10
10
10
10
10
10
10
10
10
10
10
10
10
10
10
10
10
10
10
10
10
10
10
10
10
10
10
10
10
10
10
10
10
10
10
10
10
10
10
10
10
10
10
10
10
10
10
10
10
10
10
10
10
10
10
10
10
10
10
10
10
10
10
10
10
10
10
10
10
10
10
10
10
10
10
10
10
10
10
10
10
10
10
10
10
10
10
10
10
10
10
10
10
10
10
10
10
10
10
10
10
10
10
10
10
10
10
10
10
10
10
10
10
10
10
10
10
10
10
10
10
10
10
10
10
10
10
10
10
10
10
10
10
10
10
10
10
10
10
10
10
10
10
10
10
10
10
10
10
10
10
10
10
10
10
10
10
10
10
10
10
10
10
10
10
10
10
10
10
10
10
10
10
10
10
10
10
10
10
10
10
10
10
10
10
10
10
10
10
10
10
10
10
10
10
10
10
10
10
10
10
10
10
10
10
10
10
10
10
10
10
10
10
10
10
10
10
10
10
10
10
10
10
10
10
10
10
10
10
10
10
10
10
10
10
10
10
10
10
10
10
10
10
10
10
10
10
10
10
10
10
10
10
10
10
10
10
10
10
10
10
10
10
10
10
10
10
10
10
10
10
10
10
10
10
10
10
10
10
10
10
10
10
10
10
10
10
10
10
10
10
10
10
10
10
10
10
10
10
10
10
10
10
10
10
10
10
10
10
10
10
10
10
10
10
10
10
10
10
10
10
10
10
10
10
10
10
10
10
10
10
10
10
10
10
10
10
10
10
10
10
10
10
10
10
10
10
10
10
10
10
10
10
10
10
10
10
10
10
10
10
10
10
10
10
10
10
10
10
10
10
10
10
10
10
10
10
10
10
10
10
10
10
10
10
10
10
10
10
10
10
10
10
10
10
10
10
10
10
10
10
10
10
10
10
10
10
10
10
10
10
10
10
10
10
10
10
10
10
10
10
10
10
10
10
10
10
10
10
10
10
10
10
10
10
10
10
10
10
10
10
10
10
10
10
10
10
10
10
10
10
10
10
10
10
10
10
10
10
10
10
10
10
10
10
10
10
10
10
10
10
10
10
10
10
10
10
10
10
10
10
10
10
10
10
10
10
10
10
10
10
10
10
10
10
10
10
10
10
10
10
10
10
10
10
10
10
10
10
10
10
10
10
10
10
10
10
10
10
10
10
10
10
10
10
10
10
10
10
10
10
10
10
10
10
10
10
10
10
10
10
10
10
10
10
10
10
10
10
10
10
10
10
10
10
10
10
10
10
10
10
10
10
10
10
10
10
10
10
10
10
10
10
10
10
10
10
10
10
10
10
10
10
10
10
10
10
10
10
10
10
10
10
10
10
10
10
10
10
10
10
10
10
10
10
10
10
10
10
10
10
10
10
10
10
10
10
10
10
10
10
10
10
10
10
10
10
10
10
10
10
10
10
10
10
10
10
10
10
10
10
10
10
10
10
10
10
10
10
10
10
10
10
10
10
10
10
10
10
10
10
10
10
10
10
10
10
10
10
10
10
10
10
10
10
10
10
10
10
10
10
10
10
10
10
10
10
10
10
10
10
10
10
10
10
10
10
10
10
10
10
10
10
10
10
10
10
10
10
10
10
10
10
10
10
10
10
10
10
10
10
10
10
10
10
10
10
10
10
10
10
10
10
10
10
10
10
10
10
10
10
10
10
10
10
10
10
10
10
10
10
10
10
10
10
10
10
10
10
10
10
10
10
10
10
10
10
10
10
10
10
10
10
10
10
10
10
10
10
10
10
10
10
10
10
10
10
10
10
10
10
10
10
10
10
10
10
10
10
10
10
10
10
10
10
10
10
10
10
10
10
10
10
10
10
10
10
10
10
10
10
