# vtk DataFile Version 2.0
whisker_body, Created by Gmsh 4.13.1 
ASCII
DATASET UNSTRUCTURED_GRID
POINTS 681 double
-8.874119674649524 -1.499999999999705 0
8.874119674649528 -1.499999999999699 0
-6.628755791818376 -1.499999999999906 28
6.628755791818378 -1.499999999999903 28
12 0 0
8.874119674649352 1.500000000000214 0
0 9 0
-8.87411967464935 1.500000000000212 0
5.70386345403052 0 80
6.628755791818366 1.499999999999928 28
0 6.796352208910681 28
-6.628755791818367 1.499999999999927 28
-7.584846902842285 -4.844594664205024 0
-5.092435961360746 -7.420720718329175 0
-1.792242851007811 -8.81974294200298 0
1.792242851007785 -8.819742942002986 0
5.092435961360731 -7.420720718329185 0
7.584846902842282 -4.844594664205029 0
-5.324471804789714 -1.5 0
-1.774823934929904 -1.5 0
1.774823934929906 -1.5 0
5.324471804789717 -1.5 0
-6.910885582282804 -1.5 24.50011808444513
-7.192500707380571 -1.5 21.00019383108852
-7.473659269704564 -1.5 17.5002327886836
-7.754410910022886 -1.5 14.00023907327058
-8.034798300302295 -1.5 10.50021578967237
-8.314858142193822 -1.5 7.000167672079073
-8.594622653156597 -1.5 3.500094601365006
-4.917608528178516 -4.691218361060485 28
-1.810517853117737 -6.550757853188212 28
1.810517853117744 -6.550757853188211 28
4.91760852817852 -4.691218361060481 28
8.594622653156597 -1.5 3.500094601365006
8.314858142193824 -1.5 7.00016767207903
8.034798300302299 -1.5 10.50021578967231
7.754410910022891 -1.5 14.00023907327054
7.473659269704568 -1.5 17.50023278868356
7.192500707380574 -1.5 21.00019383108848
6.910885582282804 -1.5 24.50011808444513
-3.314377895909187 -1.5 28
0 -1.5 28
3.314377895909189 -1.5 28
11.34980690040761 3.896393630456207 0
9.469686112756717 7.370552552276022 0
6.563377897469113 10.04599773915035 0
2.945825845689581 11.63280319127197 0
-0.9909521456679979 11.95901391608004 0
-4.820345095835646 10.98927991986068 0
-8.127378859508902 8.82868692807757 0
-10.55368501447787 5.71136871644487 0
-11.83633564083267 1.975135083368787 0
-11.83633564083267 -1.975135083368821 0
-10.55368501447786 -5.711368716444897 0
-8.12737885950888 -8.828686928077589 0
-4.820345095835619 -10.9892799198607 0
-0.9909521456679715 -11.95901391608004 0
2.945825845689616 -11.63280319127196 0
6.563377897469155 -10.04599773915032 0
9.469686112756747 -7.370552552275983 0
11.34980690040762 -3.896393630456205 0
7.818029843080671 4.458520984889497 0
5.809475019311043 6.873863542433829 0
3.093156003024702 8.451768213868164 0
5.324471804789612 1.5 0
1.774823934929872 1.5 0
-1.774823934929868 1.5 0
-5.324471804789608 1.5 0
-3.093156003024702 8.451768213868164 0
-5.809475019311038 6.873863542433833 0
-7.818029843080673 4.458520984889494 0
4.369412903269498 3.666372755594688 80
0.9904654944534007 5.617208951652248 80
-2.851931727015263 4.939690650908082 80
-5.359878397722907 1.950836196057551 80
-5.359878397722898 -1.950836196057576 80
-2.851931727015253 -4.939690650908087 80
0.9904654944534206 -5.617208951652245 80
4.369412903269518 -3.666372755594664 80
11.70018397400145 0 3.80952380952381
11.40036794800291 0 7.61904761904762
11.10055192200436 0 11.42857142857143
10.80073589600581 0 15.23809523809524
10.50091987000727 0 19.04761904761905
10.20110384400872 0 22.85714285714286
9.901287818010173 0 26.66666666666667
9.601471792011626 0 30.47619047619048
9.301655766013079 0 34.28571428571429
9.001839740014532 0 38.0952380952381
8.702023714015986 0 41.90476190476191
8.402207688017439 0 45.71428571428572
8.102391662018892 0 49.52380952380953
7.802575636020347 0 53.33333333333334
7.502759610021799 0 57.14285714285715
7.202943584023253 0 60.95238095238096
6.903127558024707 0 64.76190476190476
6.603311532026159 0 68.57142857142858
6.303495506027613 0 72.38095238095238
6.003679480029065 0 76.1904761904762
6.910885582282804 1.5 24.50011808444513
7.192500707380571 1.5 21.00019383108852
7.473659269704564 1.5 17.5002327886836
7.754410910022886 1.5 14.00023907327058
8.034798300302295 1.5 10.50021578967237
8.314858142193822 1.5 7.000167672079073
8.594622653156597 1.5 3.500094601365006
5.318854081553416 4.230862158793131 28
2.952623745844936 6.121471748120522 28
0 8.724544026113835 3.5
0 8.449088052227671 7
0 8.173632078341505 10.5
0 7.898176104455341 14
0 7.622720130569176 17.5
0 7.347264156683011 21
0 7.071808182796846 24.5
-8.594622653156597 1.5 3.500094601365006
-8.314858142193824 1.5 7.00016767207903
-8.034798300302299 1.5 10.50021578967231
-7.754410910022891 1.5 14.00023907327054
-7.473659269704568 1.5 17.50023278868356
-7.192500707380574 1.5 21.00019383108848
-6.910885582282804 1.5 24.50011808444513
3.314377895909184 1.5 28
0 1.5 28
-3.314377895909184 1.5 28
-2.952623745844938 6.121471748120521 28
-5.318854081553414 4.230862158793133 28
6.180629314930665 -4.236320145310134 19.14694643312734
6.696334589598581 -4.470505804352861 12.05209808107409
-6.853684124016674 -4.721504385424596 8.607244940416276
-6.460855346943899 -4.312152720228998 15.6577337350499
-1.273726035872935e-14 -8.755741709905614 3.103595842447225
2.264278469836312e-15 -7.040129900202626 24.90251074433257
7.038542438082229 -5.102137169040388 3.897417989526377
-5.814365833773309 -4.275912350742429 22.6505966358311
-6.292644529000639 -6.088155527105005 3.103595842447215
6.732082302496138 -4.999422297362887 7.809065026912664
4.384543764377726 -6.915273489273545 10.31597377350274
4.427509886685411 -6.552414190738031 13.87476462657256
1.648112895845961 -7.870735189988069 12.17966650523512
1.611226415047692 -7.59855168586626 15.66041203242539
-1.328515928282836 -7.798308506202921 13.8413541835764
-1.418169797486183 -7.498227933976018 17.39274066222469
-1.29507249983 -8.082067323680718 10.35338355170703
1.440176544480514 -7.355743633925409 19.1177118019848
4.342128934323739 -7.267069913322844 6.791692655290698
-4.175857930534764 -6.893107376482293 11.95240968877386
-1.434476503797271 -7.183694637368522 21.27633061966598
-4.504728964282222 -6.002136133900284 19.00153577014341
-4.423891004394515 -7.057848411894381 8.516867035107577
-1.85360118819783 -8.284905054551915 6.483614805483555
-3.164658708306208 -6.295788977851041 24.82259756697279
3.489734432598699 -6.120552278966647 24.83397385353442
5.814365833773094 -4.275912350742743 22.65059663583093
-6.587720655322819 -4.613263411103735 12.16741033004548
6.452067280034806 -4.322899533142658 15.67464934644802
4.588058778789013 -7.427977469838978 3.421773542242948
-3.368174195597105 -8.088801921544416 3.023590973436102
-4.070418869171593 -6.632191302132744 15.48044573342515
1.684689826150608 -8.128691858772292 8.876119029345094
4.275295936941836 -6.335290645724192 17.24347199197844
-7.470308771703509 -4.19740721354653 5.479355131242533
4.077730980529144 -6.136776700691496 20.73609998303077
-6.395536335201933 -3.900094740239515 19.17489863566674
1.408070519192148 -7.121456339449059 22.11736984324825
1.630127293442348 -8.398025190282164 5.657144667559895
-5.139941352399621 -6.846135123729029 5.579625161837424
-5.708774550525124 -4.051264908402306 25.40981905365935
5.796007854891526 -3.918649577556688 25.45823480035721
-3.828464809680046 -6.171821411190382 22.07299275445564
-7.844888087526108 -3.977156866517071 2.598978231380578
-5.635969669316554 -5.953273700940966 10.1916022879158
2.432407222166853 -8.459373391564927 2.51409695013009
7.702872272976617 -3.672668867383754 5.925869468718089
8.102483083351812 -3.481157669545655 2.304196016116321
0.08084490486560725 -1.5 2.919519030154765
4.861487999121113 -1.5 12.01356028263488
-4.30785544744707 -1.5 19.56540017156103
-4.720154635513297 -1.5 12.0455295977678
4.083998858129306 -1.5 22.53205023749914
-1.762132658246883 -1.5 25.18247311903806
5.599414460204219 -1.5 5.143378026383193
-5.423588777505417 -1.5 5.007848009044989
4.319069290325249 -1.5 19.01516252529169
1.516746196795335 -1.5 20.76204120880932
1.566111975381077 -1.5 17.0771240316025
4.610794513786761 -1.5 15.52432815786188
1.717642238196142 -1.5 13.54208804804234
1.960313192530604 -1.5 10.03314825666758
-1.446839565042975 -1.5 14.71910239957891
5.167271387718664 -1.5 8.536105144004466
1.893570778701577 -1.5 6.118067394790361
-0.9458746721176805 -1.5 8.041354523304824
-1.219943569641051 -1.5 11.54669297477309
-4.74307189432599 -1.5 8.304508619101526
-4.205123093523969 -1.5 22.86028170640305
1.532833653061624 -1.5 24.75537449134492
-4.491585088040614 -1.5 16.06848864564512
3.473773064202671 -1.5 2.778190668441357
-3.393206486141781 -1.5 2.621754470036035
-1.246590700512883 -1.5 18.58042784300882
-2.088554357753948 -1.5 5.502175341072083
-4.564255004356236 -1.5 25.70857458197725
-1.135153010749635 -1.5 22.28248783008043
4.363803463893735 -1.5 25.48055689543033
6.169512501725004 -1.5 2.488179559319825
-6.169512501724984 -1.5 2.48817955931984
-2.907261192899505 -1.5 9.984521428736809
-1.677063065850169 -3.599562970502608 28
1.092487226372924 -4.065382839656585 28
4.098470638881822 -9.479816147688613 0
-7.099295739719495 7.814668436628774e-14 0
7.099295739719569 1.698500362568311e-13 0
1.27675647831893e-15 -5.551115123125783e-17 0
3.549647869859776 -5.551115123125783e-17 0
-3.549647869859773 1.110223024625157e-16 0
-10.35522765774104 6.750155989720952e-14 0
-9.770542543260143 3.411256196175788 0
-9.712246808200572 -3.507774616004609 0
-8.077142184094621 6.468110042961442 0
7.177586718607229 -7.420466418490129 0
7.913792369210427 -3.244710419842963 43.79647059484031
9.193385683973643 -3.261669051937548 28.5275134817048
9.193385683973851 3.261669051936942 28.52751348170485
6.612937118257128 -3.225043645425651 58.98938651523409
8.253187507662092 3.21218940002029 39.94505889012949
7.274275197878736 3.226682359582617 51.3610384567302
6.331213523130235 3.123364412023011 62.77218803355282
-11.73125967677862 0.3670336794620083 3.341732751800358
-2.994523490686933 11.34507376309433 3.384661858542319
-2.879762434608137 -11.37192468062312 3.419408766471416
10.11648718915042 3.345716706788736 17.08501081990845
10.13994097335968 -3.269426385055376 17.10264947107312
-4.907925866749745 -3.416804305579417 76.489346768066
5.899495509997711 -3.295174150067938 66.61376970973406
8.557207529299856 -3.25516565974323 36.14368486009381
5.636118317434218 3.163168889254661 70.35317619362358
7.268329174017283 -3.237407055521221 51.37472730365649
10.33261033776433 -4.371261545726093 9.920826139509112
10.72925990859277 3.394744948810827 9.485154057924527
4.718245740499603 10.73561450636146 3.472731006495219
4.712243512000845 -10.74283313214679 3.419408766471715
-9.296243283197287 7.167500165524046 3.322231146069493
-9.257317901175359 -7.205259738421862 3.419408766471709
-4.569827600815137 3.834540654387728 76.67576704977438
5.269589867767341 -3.188334815693412 74.21614216377735
2.853750210127144 5.244461386269021 76.6105768172237
10.11169511114073 -5.948501730415679 3.410013769486985
10.31700692552852 5.583284939902489 3.419408766471419
8.224603312786346 -3.26983533697319 40.01490958956582
7.607593973128668 3.208334036982564 47.56636910363894
7.925224506469301 3.225897477332677 43.75240101181364
6.941591248572337 3.231835144596321 55.18238467646557
8.576036544614709 3.204897166193261 36.14516673573713
8.88763448727348 3.226679559314952 32.3342789898256
7.405168534732764 6.128637967565915 30.33833203308948
6.334095849377538 5.985873075329945 41.73972094029388
5.138672268295077 5.894425477963439 53.11371955946705
7.742597267633418 6.18905023901314 26.52772808920192
5.078909508692857 8.353540346753725 28.25419193216238
5.459442254902291 8.46978667367252 24.43600692043556
2.198115187116224 9.701534023008936 26.08030493165599
2.630155761199849 9.904236186407298 22.26740215358921
-0.8868602167735242 10.08532491749693 23.8337503359025
-1.319301174387683 9.735242871694979 27.64576985286367
-4.291456924861908 9.041372539539662 25.30888341261605
-4.66066864175365 8.51720315169773 29.10998001758201
-3.910799447577438 9.537028265708294 21.50235207406876
-6.893095524921002 7.515729374146148 22.89549076905327
-6.604085027387781 8.159639618236287 19.09340175520507
-8.914576131127768 5.344463476260596 20.40755752886106
-9.013123451780125 4.548535319433077 24.19490946961209
6.587383748510421 -5.68752715803802 41.89280900865889
-10.1257445614767 1.875782787854223 21.62567668064067
-9.952811461318683 0.9895645036289487 25.38846441352198
-10.0453929785494 -1.828052631726257 22.73937968281167
-9.542529939956276 -2.698073502090374 26.4717720670154
-8.643858375813728 -5.284248722804388 23.74638461767067
-7.797907766457785 -6.001697018669267 27.44402532023173
-6.074853272555623 -8.019393972757836 24.64313991750685
-4.933555927907106 -8.43580457930117 28.30241006633687
-6.855804420098845 -6.649033116006 31.12408440251998
-7.134450772144202 -7.49750556738533 20.97108307307536
-10.46260264558206 -0.942370926270333 18.99632516270689
-3.534297685954573 10.00249109460585 17.68019522573434
-3.937777089257708 -9.501433225291786 21.78984596125673
-5.161327333569478 -9.22724360636507 18.13596313797569
-3.719229856914239 -8.726350419237306 31.94496163103551
-5.819610547033901 -7.205501979319568 34.78788630717862
-8.239608104261558 -4.383735984272827 33.88513778484723
-7.455828150254042 -5.116632116000549 37.57685012995842
-8.958396581400532 -1.710943957004234 36.58983038186282
-8.441445843204161 -2.583178334658013 40.30607183554041
-8.845430901862237 1.092525258730494 39.22855161839145
-8.616333284265012 0.1951835909341811 42.96547576608331
-7.81956794205416 -3.423603177908331 44.01175860377141
-8.295262862391553 -0.7045832135862806 46.69362469525841
-7.88103144522676 2.949479096196586 45.55336070719158
-8.770352744071952 6.116631435944694 16.61175184609932
-1.750333734044874 9.36217950288051 31.45556191335285
-7.086291309491511 -4.215641919219577 47.70630011314838
-7.872242175651849 -1.595374457839458 50.41474607344787
-6.2351061937863 -4.940934811926329 51.39071956196783
-7.336752239559721 -2.465851111942564 54.12781235580346
-1.552772236315672 -10.39867804944238 18.88177626726102
-0.2104907436864858 -10.22703544280774 22.50013016687115
-4.438017741222231 -6.867036857435092 48.58447030386544
-3.232364392833307 -7.197460568052455 52.22288941896567
-2.8763892232893 -10.41009005957104 15.24533387417496
-6.3284372148206 -8.828021679668099 14.45963738431672
-7.749014608178572 1.087610712143403 53.04881116268344
-7.526221145895209 0.2614219773532085 56.78707844703347
0.9260249729285619 -10.70699097884402 15.92136573970247
-6.677074612226179 -3.300862142819892 57.8332597870574
-7.212298722834061 -0.5930611536163971 60.52421342483729
-6.663818639105776 3.04691933753573 59.37152766473491
-6.68605895679304 2.176685129680635 63.1313652710366
-6.780188112553505 -1.496008622574464 64.25185184757618
-4.689395713118124 -7.651931819164983 38.44202604174394
-6.605378853508127 1.316548461639714 66.8942961210949
-5.03288245619428 4.621699890519478 65.65284207414886
-5.012153675497614 7.96441477186457 32.90536572605239
-2.156645075779503 8.969028701281704 35.26387178369551
-6.195283117172354 -2.420911191348066 67.95923952233727
-0.4281282143648022 -11.02348596296318 12.30219044248515
3.362594143844626 -10.45650881532846 12.9110309967553
-4.9453483077771 -4.765899923389731 65.20745831696311
-3.872158625364161 -5.318637050401353 68.88200504731181
-0.8623778728745071 -8.072170825576547 49.32414587132655
1.089581768136831 -7.762824297967584 52.8715645978281
4.613472076845021 -9.656617032427382 16.4917198917321
-1.348376351587004 -9.619830680035848 29.0480419020818
-0.003491527369375056 -9.430643853923375 32.64675701969813
2.435112669658076 -9.352660365693652 29.67568997279115
-2.328339609637585 -8.072883471970567 45.71767406309819
-9.706713835565226 0.06980994996690246 29.13577387663265
4.74195756532173 5.838642090200086 56.90225400499459
2.025834484330572 7.420625060391044 54.73600283589251
2.472210625907846 7.599587770390824 50.93163922798632
1.578019083609627 7.221197870371563 58.55519453000602
-1.027400563899237 7.80448021146817 52.45357033956069
-0.596195525741443 8.148167605987151 48.66539833182549
-9.00086773700578 1.941782621776129 35.47649929416184
-7.760552174939771 4.572473153833179 38.02428779744167
6.261550000964326 -5.627723083454066 45.50188920797176
5.839224452799463 8.580166863363345 20.601554092661
1.37222328665129 9.243790230390156 33.73386573198599
6.73498832828378 -8.625748536033871 13.42212374963789
3.707337776224018 -8.621733974222279 33.22643761104339
0.9402066640605851 8.996477909525947 37.5408098220685
-1.640210432715491 -6.604993062050499 66.00107977275881
-2.942961947379519 -6.451718961786913 62.3716935705668
0.7288598523587453 -7.007372495969029 62.9570071741494
-0.2741733725431106 -6.515671329922096 69.61173985228079
-3.93431212373839 7.029831667099976 50.11468378106762
1.408184306413413 -9.041247672671192 36.20946011097206
-4.992138063544059 4.177313494295562 69.76556405480081
-2.449943825028924 6.17417080820019 68.07367965577964
3.031427294698864 10.10537295950501 18.42061616010843
6.214189286491351 8.686999603453295 16.76165533794216
3.435162717982972 10.293493340336 14.59231750653734
6.588920488529818 8.788134293671302 12.91128457639734
3.835394969722385 10.47330982932687 10.75585294440843
0.3616809848819355 11.0214712252028 12.35800267814725
6.893504663296939 8.92830077131987 9.150404214798943
-2.618108240196399 8.534431286347248 39.04639550268097
0.5274647209126213 8.729673521609664 41.35114572497793
-3.518437979161904 7.579053309685913 46.30238410083136
-4.332191232394317 6.440659705930714 53.84780355196555
-2.15867234644641 6.60299982851892 64.20567429421094
0.9717287428672909 6.695086387586684 66.51396401807746
0.6333301193927975 6.43016281322967 70.37614804717913
-1.709760197241041 -7.415023901760642 55.7854488135918
5.75047450673392 -9.637827517686148 9.872750904854543
2.962328551297241 7.741918589772845 47.14876108509327
1.938557763254051 -7.306006712454425 56.43055874687703
-7.382090127086816 6.14074753746261 30.46575332310596
4.287029038831466 8.111144092858334 35.90288677444082
0.9427826387131224 11.28052452926257 8.642086573860075
-2.769285554862323 10.86275057567717 10.03552569332122
3.624098023832631 -7.786903899719077 43.34157605443508
4.404085269316667 -7.974955614910323 36.71829276080229
2.837451358284064 -7.574829745131488 49.6961227649316
5.839034591988979 -7.650858399185788 30.18427653941233
4.724804245764034 -8.701440771621607 26.66451961070963
-5.353129246108366 -3.436351369150218 71.64810878855575
8.225005756057179 -6.797549357243422 16.89419316186186
6.010539739466829 -8.520408193284352 19.98587620328043
8.500760183226204 -5.975049159870345 20.44963016448261
8.473453366572425 -7.339492063097895 10.03594328811126
7.665702060290415 -8.526957597788714 6.783540880145921
1.373657670982764 6.931174330143756 62.6926326592646
9.281973740666553 -5.751066814749726 13.7323555891592
5.526174771756369 5.951918514012443 49.27696356037199
6.96860571255274 -7.376150501039063 23.53993121989108
8.934149593900623 -4.828838771540018 23.4350102969629
8.801004970402543 6.294160676673107 14.99229575271234
-0.5989965126361623 -7.297490172809892 59.43921305288783
-7.568403164463387 5.413113218856525 34.24356575373535
-9.045861048562831 2.898530045547067 31.7795038313592
2.659747001572506 -8.461303470235407 39.77685968201904
-0.1701700809879264 -8.663924558364972 42.36762534121342
-4.08125791810687 -6.150783372601087 58.68166142445728
2.488928042033159 -10.16449222799985 19.50679255681732
8.420913059144105 6.299003490504234 18.85421613812584
8.105622100918918 6.21575369352307 22.68649730160726
-7.883007018108414 3.70961713760829 41.77500044054159
3.65832310667512 -9.504024523734028 23.07699178596087
-8.947256389872598 -3.545492093583338 30.1882689715037
-7.863582843982734 2.024381376021308 49.30034422726762
-5.369452768134645 7.362274246003971 36.69164201045385
-5.7124795562647 6.710090923229458 40.50276745627115
8.882697477734318 -3.226248884261449 32.39511024017794
7.602712413135328 -3.205790188192448 47.63608070249043
7.649029087803546 -6.234434552069198 27.09066106111357
9.503652674557333 3.283584774222551 24.71463088203554
-2.671388174828331 -9.632987773685583 25.45640074074135
6.953486994354416 -3.192107686640795 55.25701598726145
4.665073679882394 -6.273706321106449 53.13638976705241
6.641688168804867 3.164996315892497 58.99164927198706
9.088441908431715 6.411203995838856 11.15351785066218
9.231203759652812 6.782427620873928 6.925201990554127
6.264098097904649 -3.243503582586222 62.84459639511611
4.395695585458479 -5.710123926617196 60.91247084684107
10.44785260317089 3.293019896428319 13.28402746935419
6.001611629809035 3.109261010074645 66.59061993513221
-7.152276277515019 6.844205479665348 26.69059960783941
5.628274951196777 -3.153474826632603 70.5003472801701
3.095536022934001 -5.515607391095808 72.10907475587024
2.86065934795401 -5.268199785260474 76.30364633407035
-0.6562382432992002 -6.17455412845224 73.57745058301036
-9.066386713887628 3.718156296127445 27.96398806700935
-1.436033438469762 7.43878379658466 56.21063934480871
-1.827396515980348 7.039900947173733 60.05956177443596
-6.599892906205909 -5.751255540869858 41.24215564040303
-5.542986103317842 -6.395636495287458 44.936972681756
-2.435275697075296 -8.872794444333849 35.56560060785407
3.537755062266574 -5.600225120058116 68.30773540834608
-10.22971002503424 2.75644435684954 17.85765781355581
-10.80105115302043 -0.01745779408618757 15.23391025177777
-10.06423379015544 -3.689277159558106 16.27510327115986
-10.64906294026733 -2.810768689257533 12.53133690643481
-11.064553733678 0.8707792490454414 11.45126423250933
-11.11293651201657 -2.0733395152274 8.834707003833984
-9.821410956188801 -5.447843239024199 9.768951233792768
-11.32082253258904 1.557656442144227 7.274546742240136
-10.26679659126562 4.458526384759351 10.25258996834327
-9.387291121616652 -4.536937544774049 19.99739643933504
-10.29841337879578 3.547311073205395 14.07551765906685
-0.4603626916553241 10.4142098834503 20.02014852681431
6.805240474174711 -6.410828840770254 33.67991976926349
-6.601209977314234 3.804301674530957 55.66628036666716
-4.812045785592691 5.255462168908323 61.93379422264112
-0.06020953317247715 10.72386148605541 16.21272958855921
-9.002473023072946 -6.211009891401961 13.50483949648819
-7.507365378152866 -8.264138618331136 10.6100809622541
-5.195241134376031 -5.638113650911108 55.05932705444627
-9.369327460170027 -0.8697454334252963 32.91402985723707
9.821070115208887 3.281102462522041 20.90598526400152
-8.102055294911377 -6.903644142861633 17.22432159087876
7.064382630117286 6.072518526028373 34.10814055640821
-3.157097165487301 10.44203214846961 13.86420665250251
-6.011365310395375 9.32483306744135 11.50484170899122
-5.250275984919766 10.14103920797359 7.375343280508571
1.163665287654783 -9.876788607001275 26.10994428807968
4.70709574508276 8.227810924410255 32.03087973470144
-6.336541147710232 8.740375515381302 15.30280068369338
-5.859379869156052 -4.110986366599957 61.52736874569858
-10.55823135457426 -4.614518967064032 6.066094385939497
5.947474433743186 5.952243400774551 45.55972537261542
1.786246139428841 9.482477238782117 29.86909478952417
6.703367286960268 6.030122081213515 37.90879762273706
-4.203951958186326 -10.25737136233846 11.62064429321896
-1.828435124827226 -11.16934100292782 8.665502836169701
2.022918840216599 -11.08739395600125 9.270114839559678
0.9594339609229126 -11.51591447647342 5.643938844809016
-5.483986185076513 -10.08395898397725 6.623866525362504
-1.065104691373268 5.871573226571076 76.65149604642895
-3.237905966066917 5.306470153505194 73.4885954394518
-5.655368433932111 2.589665766844411 73.44067763413415
-5.965486261095914 -1.516468711486807e-14 76.67576704977436
5.265630041300382 3.193465365752134 74.22540097917361
4.386355557679124 5.742088130414803 60.66239739761966
3.963663650718439 -5.67537394591844 64.51622011107496
3.852334158892609 7.997745016245538 39.67913369058128
3.459655166898617 7.853047906145108 43.43806129280405
-8.64885542472188 6.777456909072472 12.8584026401722
8.032278181008602 8.550960858344061 3.407103840970377
0.7022764527293637 11.71144737005002 3.399107159959879
-11.06350600920951 3.916443798417783 3.351189406064252
-6.529099972244133 9.752810356612168 3.347530619191805
-8.30940708943991 -7.880672269659241 6.961370544026143
-0.04056263141745711 8.455918593684308 45.03058778998263
-3.139502048418032 8.04531499146383 42.74141398810254
-10.01982871216889 5.596017419090243 6.650410500118349
-8.276755424335589 7.662419084581542 9.160325570766773
-6.107713704330102 5.935708035876652 44.25757028684374
4.349831375409877 10.5815291110657 7.106483223055921
-6.370525979454614 5.200906554754456 47.97951419104832
1.292802248471444 -8.235981160252093 46.54499647989114
-6.572336835472517 4.433392596773 51.74175130384286
7.868507587184578 -8.728701648362309 3.154306647248228
-1.230196842871421 -8.851459624771691 38.92496802568494
-6.450211176968584 -9.82108105803945 3.178520725775633
-6.448374691068511 0.3411688758599525 70.42549144156996
-4.551684340934945 5.907758772230596 57.71355818297332
-3.70131916560732 -7.852476752851752 42.17087354431163
11.08042297207353 -3.190378912925435 5.964537970448736
11.09987319675308 3.128692215598836 5.941614034472197
4.156969517133838 5.52807020422866 64.59016986595149
4.75534993991146 -5.82167943823902 56.96190270464214
-1.212706802695997 -5.813420834673387 77.01787119396805
3.73881636980416 5.471941000177766 68.26683625334732
5.791354038240324 -5.687424385197557 49.33749738918824
0.01088122215109387 6.209882047856463 73.57030301491713
9.945251011154959 -2.878795719721827 20.92044688124973
4.360965941604121 -10.59934175866527 6.843351401291497
9.765691563302722 -5.91549975067599 7.399938255283664
-11.17124598605108 -3.708449780715297 2.913555324922936
-1.368547565195249 11.39582615347986 6.63635172695682
6.961327052935236 -5.727886317184013 37.92905638388199
-6.202678797797807 -0.3902583223834481 73.50610911136265
-3.215276139860284 -5.298394017425101 73.72572988723991
10.54711490500053 -2.934814228651625 13.36921181620983
3.367922599635485 5.393715079196743 71.67751526019279
0.9746610285491257 -11.76240937045701 2.506659120504761
-7.957853735127626 8.32946756269536 6.100596366921048
7.943538891088356 -5.404992746435004 30.39318043073274
5.179388772661354 -2.904284112032768 77.02384664199261
5.235205843908304 2.763747951101447 77.25449429224169
1.422077267820624 -6.65262495373111 66.03516063854484
11.42161303753389 -2.865258955235403 2.85224460448703
11.43396464721201 2.820216538592482 2.83810148489461
6.919069490308682 9.206484793097243 6.141732923428973
-11.40739737442431 -1.766967016808789 5.801210733433693
2.196540875376852 -6.994782148928861 59.31815695621918
4.097963695209462 -7.184802063970145 47.37740788053883
5.155235228523776 -7.236713453728619 39.5775061433799
-2.396699479651302 -5.920807704720889 71.31359793061608
-2.041182077899476 6.095277527734003 70.79932027887966
9.611079759137287 -2.618889368950648 25.90162806609115
1.942308591746494 11.36480011919528 5.977236610639744
7.124552989611859 4.292900812943576 8.666297118066815
6.535176505306454 4.199684902824409 15.65072278415061
2.579780541998994 8.189057104393951 5.262937924727398
4.369932193528881 5.469276248088756 25.4039783485599
2.816309264845866 7.531617947843023 12.18589364400249
6.755388806333396 5.617658137566788 2.719442449965966
2.82157184729088 6.938002237806996 19.18887756487295
2.730622515199222 7.856151818526215 8.676098410005386
6.885544310564068 4.158877026184493 12.14630831432672
2.631312709783454 7.307022021972591 15.67485806894689
6.139252145362752 4.295079130472545 19.15412422968573
5.8394568522874 4.249034186407853 22.5949187264887
2.917995726208796 6.605478288039891 22.60064180636999
5.424097849009784 6.544436534258723 6.352738353445089
4.417984229931256 7.605437004319588 2.598103628135896
7.476304277752905 4.181682638068599 5.510607090464535
5.196248460986729 6.335855609681328 10.23931822803468
5.045764598885189 6.099438422509584 13.77365959535902
4.829599100740659 5.919128490905719 17.28749898567113
6.003417270702359 3.574386551184058 25.57841835660174
2.17460109234263 6.631471034630021 25.68028027575176
4.621020632258042 5.754973267724844 20.57617605372929
2.169472995497902 8.540730906253787 2.389232598540442
7.996979243509027 3.708975677004701 2.347799218989952
-0.0808449048656108 1.5 2.91951903015476
-4.861487999121113 1.5 12.01356028263488
4.30785544744707 1.5 19.56540017156103
4.720154635513296 1.5 12.0455295977678
-4.083998858129304 1.5 22.53205023749914
1.762132658246884 1.5 25.18247311903806
-5.599414460204223 1.5 5.143378026383189
5.423588777505417 1.5 5.007848009044989
-4.319069290325249 1.5 19.01516252529169
-1.516746196795333 1.5 20.76204120880932
-1.566111975381077 1.5 17.0771240316025
-4.610794513786761 1.5 15.52432815786189
-1.717642238196142 1.5 13.54208804804234
-1.960313192530606 1.5 10.03314825666758
1.446839565042975 1.5 14.71910239957891
-5.167271387718664 1.5 8.536105144004466
-1.893570778701587 1.5 6.118067394790356
0.945874672117661 1.5 8.041354523304829
1.219943569641051 1.5 11.54669297477309
4.743071894325984 1.5 8.304508619101522
4.205123093523969 1.5 22.86028170640305
-1.532833653061619 1.5 24.75537449134491
4.491585088040613 1.5 16.06848864564513
-3.473773064202648 1.5 2.778190668441352
3.393206486141752 1.5 2.621754470036028
1.246590700512883 1.5 18.58042784300882
2.088554357753937 1.5 5.502175341072079
4.564255004356235 1.5 25.70857458197725
1.135153010749637 1.5 22.28248783008043
-4.363803463893737 1.5 25.48055689543032
-6.169512501724991 1.5 2.488179559319807
6.169512501724977 1.5 2.488179559319823
2.907261192899499 1.5 9.98452142873681
-7.124552989611494 4.292900812944219 8.666297118066579
-6.534047370201038 4.201424028893991 15.65084245857893
-2.99274871160853 8.051942115718852 5.207904509288936
-4.369932193528881 5.469276248088756 25.4039783485599
-2.98592370125301 7.464376813345588 12.20501982772072
-6.755388806333396 5.617658137566789 2.719442449965966
-2.977516438905062 6.871419812626524 19.20171081029023
-2.988578298408844 7.759272521393148 8.70475474447527
-6.88548334525472 4.158976849107257 12.1463156139197
-2.98200321320007 7.168622147623618 15.70340380983168
-6.139267781089751 4.295030989081535 19.15431209273942
-5.839522987208749 4.248923999235376 22.59506298077129
-2.91799572627101 6.605478288013966 22.60064180635188
-5.60588807186474 6.390140960348076 6.34571615450146
-4.417984229930813 7.605437004318839 2.598103628146969
-7.478044271758467 4.192770233345199 5.422481953830932
-5.312717475183873 6.238627736976318 10.23824934635705
-5.045764598882423 6.099438422511906 13.77365959535868
-4.866351360516566 5.888624984320306 17.29068396650062
-6.002361866848172 3.562877679910196 25.6646719432176
-2.183962085460434 6.634827958854613 25.60263196836162
-4.64550862438728 5.730303230264971 20.62475695747976
-2.43351786162199 8.472644409901484 2.348134425770168
-7.97293621679957 3.747670855636514 2.416595586001084
1.861466232561885 -0.6775183007441694 80
-1.796581528936375 0.6539021999652996 80
1.425965863507625 2.469845325454036 80
-0.4952327472266952 -2.808604475826126 80
0.9481475602007088 4.14817610445534 28
-1.699376416089873 3.755643522949332 28
3.133500820877061 4.000127502842249 28
0.0004006276918283876 -2.220446049250313e-16 36.94037850269053
0.1608405510634547 0.09027683583071777 45.89741675756373
0.1690002678315474 0.1108653457185538 53.53442778198665
0.04037032039102062 -0.01082084338633305 61.33894675827448
-0.009946480073752983 0.002522773580376558 67.97593928903594
2.011224101345863 3.637223317128315 33.35838431002595
-0.0276319683391808 -0.04074326900203262 74.13806578239203
-2.882797162471432 -2.851637823948543 33.27728489249906
-3.254255089833797 -0.7189370559603521 41.48633348306829
3.294559274324984 1.19794891424886 41.44299772025492
-3.207572246486801 2.484132987411139 33.25324487771195
3.84534273685144 -1.471758857562718 33.40230486189488
1.115634689038306 -3.520890071232186 40.67690584449797
-1.025385115130871 3.785118632186316 40.29948856554906
-2.070143110463548 -2.47413386348909 49.72525142007528
0.1920862089639204 3.324430024889766 49.70720208899257
3.209532066968729 -0.5744693216738281 49.71448910534046
-0.6928960143296764 -2.832990348406788 57.37859071612829
-4.717749864828441 0.2642563905309987 37.12079378928085
2.786977780149499 0.7527636994501119 57.49185237019311
0.9006553433650009 -4.41034111768201 35.58895845381615
4.248074825359643 1.814777677683142 36.96559663994819
-2.670236770678032 1.529545347622566 57.19828483135662
-4.116622526548491 0.9555028727809052 47.03126721904641
-2.725248427827442 -3.631190500090645 38.11430629216442
0.06266687632820288 0 32.01732987990233
1.036224650591081 4.172051199547424 44.26202846972583
-1.553286814111088 -3.815799384805618 44.33931412239177
3.561799916631685 -2.300542741433617 44.21746438161057
-2.86366498291701 0.5288428863003298 64.63454591867381
-1.057962757199216 4.884549538136721 36.125451754728
2.360367815878795 -1.612829504967234 64.67845651080796
0.8461412493939401 2.749498164148502 64.74672928426519
-1.258105514604986 5.504252135040192 31.44581414585
-3.435805664661447 1.375112613977724 51.35566147280386
4.205330691746005 1.670521235659978 45.55699868625577
4.122167035481976 -2.452863316264469 37.73690417200753
2.572883997917811 -4.984100632858945 31.71183946946105
4.971566843863794 2.384691548969075 31.31403936302833
1.331225110110838 -3.901071155148158 47.522241639928
-5.764722853535947 7.993605777301127e-15 31.55113511948985
3.706277023085971 2.073070969668929 52.97712458938212
-0.3105996166333108 4.13043760677045 54.09247165237257
-3.488731826159127 2.876153065752387 43.45658080693613
-3.222612731475767 -2.260569025499764 53.69760203180222
2.790936445028532 -2.660209854145316 55.14610807493909
-1.308201562516895 -3.133105701342744 63.97679148555939
-0.1626037723087204 2.554828241017349 71.07466213778029
2.531351887745666 -0.6144170499261784 71.06014169900075
-3.382941519449087 -1.448133963706439 59.94340820944765
1.329416741451289 -3.625515382784931 51.53039552703677

CELLS 3551 16197
1 0
1 1
1 2
1 3
1 4
1 5
1 6
1 7
1 8
1 9
1 10
1 11
2 0 12
2 12 13
2 13 14
2 14 15
2 15 16
2 16 17
2 17 1
2 0 18
2 18 19
2 19 20
2 20 21
2 21 1
2 2 22
2 22 23
2 23 24
2 24 25
2 25 26
2 26 27
2 27 28
2 28 0
2 2 29
2 29 30
2 30 31
2 31 32
2 32 3
2 1 33
2 33 34
2 34 35
2 35 36
2 36 37
2 37 38
2 38 39
2 39 3
2 2 40
2 40 41
2 41 42
2 42 3
2 4 43
2 43 44
2 44 45
2 45 46
2 46 47
2 47 48
2 48 49
2 49 50
2 50 51
2 51 52
2 52 53
2 53 54
2 54 55
2 55 56
2 56 57
2 57 58
2 58 59
2 59 60
2 60 4
2 5 61
2 61 62
2 62 63
2 63 6
2 5 64
2 64 65
2 65 66
2 66 67
2 67 7
2 6 68
2 68 69
2 69 70
2 70 7
2 8 71
2 71 72
2 72 73
2 73 74
2 74 75
2 75 76
2 76 77
2 77 78
2 78 8
2 4 79
2 79 80
2 80 81
2 81 82
2 82 83
2 83 84
2 84 85
2 85 86
2 86 87
2 87 88
2 88 89
2 89 90
2 90 91
2 91 92
2 92 93
2 93 94
2 94 95
2 95 96
2 96 97
2 97 98
2 98 8
2 9 99
2 99 100
2 100 101
2 101 102
2 102 103
2 103 104
2 104 105
2 105 5
2 9 106
2 106 107
2 107 10
2 6 108
2 108 109
2 109 110
2 110 111
2 111 112
2 112 113
2 113 114
2 114 10
2 7 115
2 115 116
2 116 117
2 117 118
2 118 119
2 119 120
2 120 121
2 121 11
2 9 122
2 122 123
2 123 124
2 124 11
2 10 125
2 125 126
2 126 11
3 12 170 0
3 0 170 28
3 1 174 17
3 33 174 1
3 22 167 2
3 2 167 29
3 32 168 3
3 3 168 39
3 13 135 12
3 135 170 12
3 14 157 13
3 13 157 135
3 15 131 14
3 131 157 14
3 16 172 15
3 15 172 131
3 17 133 16
3 133 156 16
3 156 172 16
3 17 174 133
3 23 134 22
3 134 167 22
3 24 163 23
3 23 163 134
3 25 130 24
3 130 163 24
3 26 154 25
3 25 154 130
3 27 129 26
3 129 154 26
3 28 161 27
3 27 161 129
3 28 170 161
3 29 151 30
3 29 167 151
3 30 132 31
3 30 151 132
3 31 152 32
3 132 152 31
3 152 168 32
3 34 173 33
3 173 174 33
3 35 136 34
3 136 173 34
3 36 128 35
3 128 136 35
3 37 155 36
3 36 155 128
3 38 127 37
3 127 155 37
3 39 153 38
3 38 153 127
3 39 168 153
3 153 162 127
3 127 160 155
3 127 162 160
3 128 137 136
3 128 138 137
3 128 155 138
3 129 166 149
3 149 171 129
3 129 171 154
3 161 166 129
3 130 158 148
3 148 163 130
3 154 158 130
3 150 157 131
3 131 165 150
3 131 172 165
3 132 151 147
3 147 164 132
3 132 164 152
3 136 145 133
3 133 173 136
3 145 156 133
3 133 174 173
3 134 163 148
3 148 169 134
3 151 167 134
3 134 169 151
3 157 166 135
3 135 166 161
3 161 170 135
3 137 145 136
3 138 139 137
3 139 159 137
3 137 159 145
3 138 140 139
3 138 160 140
3 155 160 138
3 140 141 139
3 141 143 139
3 143 159 139
3 140 142 141
3 140 144 142
3 140 160 144
3 142 158 141
3 141 146 143
3 141 158 146
3 144 147 142
3 147 148 142
3 148 158 142
3 146 149 143
3 149 150 143
3 150 159 143
3 144 164 147
3 160 162 144
3 162 164 144
3 145 165 156
3 159 165 145
3 146 171 149
3 146 158 154
3 154 171 146
3 147 169 148
3 151 169 147
3 149 166 150
3 150 166 157
3 150 165 159
3 152 162 153
3 153 168 152
3 152 164 162
3 165 172 156
3 0 206 18
3 28 206 0
3 21 205 1
3 1 205 33
3 2 202 22
3 40 202 2
3 39 204 3
3 3 204 42
3 18 199 19
3 18 206 199
3 19 175 20
3 19 199 175
3 20 198 21
3 175 198 20
3 198 205 21
3 22 195 23
3 22 202 195
3 23 177 24
3 23 195 177
3 24 197 25
3 177 197 24
3 25 178 26
3 25 197 178
3 26 194 27
3 178 194 26
3 27 182 28
3 27 194 182
3 182 206 28
3 33 181 34
3 33 205 181
3 34 190 35
3 181 190 34
3 35 176 36
3 35 190 176
3 36 186 37
3 176 186 36
3 37 183 38
3 37 186 183
3 38 179 39
3 38 183 179
3 179 204 39
3 41 180 40
3 180 202 40
3 42 196 41
3 41 196 180
3 42 204 196
3 191 198 175
3 175 201 191
3 199 201 175
3 176 187 186
3 176 188 187
3 176 190 188
3 195 203 177
3 177 200 197
3 177 203 200
3 189 193 178
3 178 197 189
3 193 207 178
3 178 207 194
3 183 184 179
3 184 196 179
3 196 204 179
3 195 202 180
3 180 203 195
3 196 203 180
3 181 191 190
3 181 198 191
3 181 205 198
3 194 201 182
3 182 201 199
3 199 206 182
3 183 185 184
3 183 186 185
3 185 200 184
3 184 203 196
3 200 203 184
3 186 187 185
3 187 189 185
3 189 200 185
3 188 193 187
3 187 193 189
3 190 191 188
3 191 192 188
3 192 193 188
3 197 200 189
3 191 201 192
3 192 207 193
3 192 201 194
3 194 207 192
3 40 2 29
3 32 3 42
3 30 208 29
3 29 208 40
3 31 209 30
3 30 209 208
3 32 209 31
3 42 209 32
3 40 208 41
3 41 209 42
3 208 209 41
3 7 211 0
3 0 216 7
3 12 218 0
3 0 211 18
3 52 216 0
3 0 218 52
3 4 1 5
3 4 60 1
3 1 212 5
3 1 60 17
3 21 212 1
3 43 4 5
3 61 43 5
3 5 212 64
3 47 46 6
3 46 63 6
3 68 47 6
3 7 216 51
3 51 217 7
3 67 211 7
3 7 217 70
3 12 13 54
3 53 12 54
3 53 218 12
3 55 13 14
3 54 13 55
3 15 56 14
3 14 56 55
3 16 210 15
3 15 57 56
3 15 210 57
3 17 220 16
3 58 210 16
3 16 220 58
3 17 60 59
3 59 220 17
3 18 215 19
3 18 211 67
3 67 215 18
3 19 213 20
3 66 213 19
3 19 215 66
3 20 214 21
3 20 213 65
3 65 214 20
3 64 212 21
3 21 214 64
3 44 43 61
3 45 44 62
3 62 44 61
3 45 63 46
3 62 63 45
3 48 47 68
3 49 48 69
3 69 48 68
3 49 219 50
3 69 219 49
3 50 217 51
3 70 217 50
3 50 219 70
3 51 216 52
3 52 218 53
3 57 210 58
3 58 220 59
3 64 214 65
3 65 213 66
3 66 215 67
3 70 219 69
3 43 532 4
3 4 531 60
3 79 531 4
3 4 532 79
3 8 529 71
3 78 528 8
3 8 528 98
3 98 529 8
3 44 248 43
3 248 532 43
3 45 487 44
3 44 487 248
3 46 240 45
3 240 487 45
3 47 488 46
3 46 488 240
3 48 229 47
3 229 488 47
3 49 490 48
3 48 490 229
3 50 242 49
3 242 490 49
3 51 489 50
3 50 489 242
3 52 228 51
3 228 489 51
3 53 518 52
3 52 518 228
3 54 243 53
3 243 518 53
3 55 503 54
3 54 503 243
3 56 230 55
3 230 503 55
3 57 525 56
3 56 525 230
3 58 241 57
3 241 525 57
3 59 501 58
3 58 501 241
3 60 247 59
3 247 501 59
3 60 531 247
3 71 246 72
3 71 529 246
3 72 477 73
3 246 477 72
3 73 244 74
3 73 477 244
3 74 480 75
3 244 480 74
3 75 233 76
3 75 480 233
3 76 511 77
3 233 511 76
3 77 429 78
3 77 511 429
3 429 528 78
3 80 507 79
3 79 508 80
3 507 531 79
3 79 532 508
3 81 238 80
3 80 239 81
3 238 507 80
3 80 508 239
3 81 424 82
3 82 523 81
3 81 523 238
3 239 424 81
3 82 231 83
3 83 232 82
3 82 424 231
3 232 523 82
3 83 458 84
3 84 515 83
3 231 458 83
3 83 515 232
3 84 415 85
3 85 540 84
3 395 515 84
3 84 540 395
3 84 458 415
3 86 222 85
3 85 223 86
3 222 540 85
3 85 415 223
3 86 254 87
3 87 412 86
3 86 412 222
3 223 254 86
3 88 235 87
3 87 253 88
3 235 412 87
3 87 254 253
3 88 225 89
3 89 249 88
3 88 253 225
3 88 249 235
3 90 221 89
3 89 251 90
3 221 249 89
3 225 251 89
3 90 250 91
3 91 413 90
3 90 413 221
3 90 251 250
3 91 226 92
3 92 237 91
3 91 250 226
3 237 413 91
3 92 252 93
3 93 417 92
3 226 252 92
3 92 417 237
3 94 224 93
3 93 419 94
3 224 417 93
3 252 419 93
3 94 227 95
3 95 422 94
3 94 422 224
3 94 419 227
3 96 234 95
3 95 425 96
3 227 425 95
3 234 422 95
3 96 236 97
3 97 427 96
3 96 427 234
3 96 425 236
3 98 245 97
3 97 481 98
3 236 481 97
3 245 427 97
3 98 528 245
3 481 529 98
3 221 272 249
3 221 344 272
3 221 413 344
3 412 527 222
3 222 527 414
3 414 540 222
3 223 255 254
3 223 258 255
3 223 415 258
3 224 510 417
3 422 423 224
3 423 510 224
3 225 256 251
3 253 471 225
3 225 471 256
3 250 393 226
3 226 257 252
3 226 393 257
3 419 482 227
3 227 509 425
3 482 509 227
3 445 489 228
3 228 534 445
3 518 534 228
3 229 490 463
3 463 519 229
3 229 519 488
3 230 475 473
3 473 476 230
3 230 525 475
3 476 503 230
3 396 404 231
3 231 424 396
3 404 458 231
3 232 388 386
3 386 392 232
3 232 515 388
3 392 523 232
3 233 521 385
3 385 522 233
3 480 521 233
3 233 522 511
3 234 483 422
3 427 437 234
3 437 483 234
3 249 520 235
3 235 450 412
3 235 520 450
3 425 512 236
3 236 524 481
3 512 524 236
3 237 513 413
3 417 418 237
3 418 513 237
3 238 392 389
3 389 517 238
3 238 523 392
3 238 517 507
3 239 421 420
3 420 424 239
3 239 508 421
3 240 533 487
3 488 541 240
3 497 533 240
3 240 541 497
3 241 501 390
3 390 516 241
3 241 516 475
3 475 525 241
3 489 494 242
3 242 526 490
3 494 526 242
3 243 491 468
3 468 518 243
3 243 503 491
3 477 478 244
3 478 479 244
3 479 480 244
3 245 428 427
3 245 429 428
3 245 528 429
3 246 514 477
3 481 524 246
3 246 529 481
3 246 524 514
3 390 501 247
3 247 517 390
3 507 517 247
3 247 531 507
3 248 487 421
3 421 508 248
3 508 532 248
3 272 520 249
3 251 469 250
3 250 469 393
3 256 469 251
3 257 336 252
3 336 419 252
3 254 460 253
3 460 471 253
3 255 460 254
3 258 259 255
3 259 465 255
3 255 465 460
3 256 485 469
3 471 484 256
3 484 485 256
3 257 337 336
3 257 338 337
3 257 393 338
3 258 260 259
3 258 405 260
3 258 415 405
3 260 261 259
3 261 470 259
3 259 470 465
3 260 262 261
3 260 345 262
3 260 405 345
3 262 263 261
3 263 264 261
3 264 470 261
3 262 449 263
3 345 358 262
3 358 449 262
3 263 265 264
3 263 267 265
3 263 449 267
3 265 266 264
3 266 299 264
3 299 470 264
3 265 426 266
3 267 268 265
3 268 426 265
3 266 321 299
3 266 376 321
3 266 426 376
3 267 269 268
3 267 284 269
3 267 449 284
3 269 270 268
3 270 271 268
3 271 426 268
3 269 298 270
3 284 466 269
3 269 466 298
3 270 273 271
3 270 438 273
3 298 438 270
3 273 274 271
3 274 431 271
3 271 431 426
3 344 380 272
3 380 537 272
3 272 537 520
3 273 275 274
3 273 283 275
3 273 438 283
3 275 276 274
3 276 335 274
3 335 431 274
3 275 277 276
3 275 447 277
3 283 447 275
3 277 278 276
3 278 408 276
3 276 408 335
3 277 279 278
3 277 282 279
3 277 447 282
3 279 280 278
3 280 281 278
3 281 408 278
3 279 416 280
3 282 285 279
3 285 416 279
3 280 287 281
3 280 331 287
3 280 416 331
3 287 288 281
3 288 289 281
3 289 408 281
3 282 286 285
3 282 459 286
3 447 459 282
3 438 439 283
3 439 440 283
3 440 447 283
3 449 453 284
3 453 461 284
3 461 466 284
3 286 304 285
3 304 305 285
3 305 416 285
3 286 308 304
3 286 309 308
3 286 459 309
3 287 436 288
3 331 332 287
3 332 436 287
3 288 290 289
3 288 318 290
3 288 436 318
3 290 291 289
3 291 457 289
3 289 457 408
3 290 292 291
3 290 434 292
3 318 434 290
3 292 293 291
3 293 342 291
3 342 457 291
3 292 294 293
3 292 295 294
3 292 434 295
3 294 406 293
3 293 343 342
3 293 406 343
3 295 296 294
3 296 297 294
3 297 406 294
3 295 300 296
3 295 435 300
3 434 435 295
3 296 409 297
3 300 301 296
3 301 409 296
3 297 496 406
3 409 498 297
3 297 498 496
3 298 448 438
3 298 486 448
3 466 486 298
3 321 322 299
3 322 346 299
3 346 470 299
3 300 302 301
3 300 306 302
3 300 435 306
3 302 303 301
3 303 310 301
3 310 409 301
3 302 456 303
3 306 307 302
3 307 456 302
3 303 311 310
3 303 313 311
3 303 456 313
3 304 403 305
3 308 312 304
3 312 403 304
3 403 407 305
3 407 464 305
3 305 464 416
3 306 328 307
3 306 334 328
3 306 435 334
3 328 329 307
3 329 372 307
3 372 456 307
3 309 472 308
3 308 324 312
3 308 472 324
3 454 455 309
3 309 459 454
3 455 472 309
3 311 451 310
3 310 500 409
3 451 500 310
3 313 314 311
3 314 315 311
3 315 451 311
3 324 325 312
3 325 330 312
3 330 403 312
3 313 467 314
3 313 456 402
3 402 467 313
3 314 316 315
3 314 317 316
3 314 467 317
3 316 452 315
3 315 505 451
3 452 505 315
3 317 319 316
3 319 320 316
3 320 452 316
3 317 323 319
3 317 326 323
3 317 467 326
3 318 506 434
3 436 502 318
3 502 506 318
3 319 356 320
3 323 504 319
3 319 504 356
3 356 357 320
3 357 369 320
3 369 452 320
3 321 410 322
3 376 398 321
3 398 410 321
3 322 349 346
3 322 365 349
3 322 410 365
3 326 327 323
3 327 385 323
3 385 504 323
3 324 474 325
3 472 473 324
3 473 474 324
3 325 347 330
3 325 373 347
3 325 474 373
3 326 350 327
3 326 351 350
3 326 467 351
3 350 353 327
3 353 538 327
3 327 538 385
3 328 382 329
3 334 499 328
3 328 499 382
3 329 375 372
3 329 418 375
3 382 418 329
3 347 386 330
3 386 387 330
3 387 403 330
3 331 333 332
3 331 464 333
3 416 464 331
3 333 348 332
3 348 355 332
3 355 436 332
3 333 383 348
3 333 384 383
3 333 464 384
3 401 499 334
3 334 506 401
3 435 506 334
3 399 431 335
3 335 457 399
3 408 457 335
3 337 339 336
3 339 482 336
3 336 482 419
3 338 340 337
3 337 432 339
3 340 432 337
3 338 341 340
3 338 374 341
3 338 393 374
3 339 433 391
3 391 482 339
3 432 433 339
3 341 354 340
3 354 368 340
3 368 432 340
3 341 367 354
3 341 492 367
3 374 492 341
3 343 398 342
3 398 399 342
3 399 457 342
3 343 410 398
3 406 411 343
3 343 411 410
3 344 536 380
3 413 513 344
3 513 536 344
3 345 359 358
3 345 404 359
3 345 405 404
3 349 377 346
3 377 465 346
3 465 470 346
3 373 389 347
3 347 392 386
3 389 392 347
3 348 381 355
3 348 450 381
3 383 450 348
3 365 366 349
3 366 484 349
3 349 484 377
3 351 352 350
3 352 530 350
3 350 530 353
3 351 397 352
3 351 402 397
3 351 467 402
3 397 535 352
3 423 483 352
3 352 535 423
3 483 530 352
3 428 430 353
3 353 437 428
3 430 538 353
3 353 530 437
3 367 498 354
3 354 500 368
3 498 500 354
3 381 400 355
3 400 502 355
3 355 502 436
3 356 539 357
3 356 479 478
3 478 539 356
3 356 504 479
3 357 370 369
3 357 371 370
3 357 539 371
3 359 360 358
3 360 453 358
3 358 453 449
3 359 361 360
3 359 396 361
3 359 404 396
3 361 362 360
3 362 363 360
3 363 453 360
3 361 364 362
3 361 420 364
3 396 420 361
3 362 378 363
3 364 497 362
3 362 497 378
3 378 379 363
3 379 461 363
3 363 461 453
3 420 421 364
3 421 533 364
3 364 533 497
3 365 493 366
3 410 411 365
3 411 493 365
3 366 485 484
3 366 492 485
3 366 493 492
3 492 493 367
3 493 496 367
3 496 498 367
3 368 505 432
3 368 500 451
3 451 505 368
3 370 391 369
3 391 433 369
3 433 452 369
3 371 512 370
3 370 509 391
3 370 512 509
3 371 524 512
3 514 524 371
3 371 539 514
3 375 397 372
3 397 402 372
3 402 456 372
3 373 390 389
3 373 516 390
3 474 516 373
3 393 469 374
3 469 485 374
3 485 492 374
3 375 535 397
3 418 510 375
3 510 535 375
3 376 399 398
3 376 431 399
3 426 431 376
3 460 465 377
3 377 471 460
3 377 484 471
3 378 519 379
3 497 541 378
3 378 541 519
3 379 462 461
3 379 463 462
3 379 519 463
3 380 401 400
3 400 537 380
3 380 499 401
3 380 536 499
3 381 537 400
3 450 520 381
3 520 537 381
3 382 513 418
3 499 536 382
3 382 536 513
3 384 414 383
3 414 527 383
3 383 527 450
3 384 407 394
3 394 414 384
3 384 464 407
3 385 521 504
3 385 538 522
3 386 388 387
3 388 394 387
3 394 407 387
3 387 407 403
3 388 395 394
3 388 515 395
3 390 517 389
3 391 509 482
3 395 414 394
3 395 540 414
3 396 424 420
3 401 502 400
3 401 506 502
3 405 458 404
3 415 458 405
3 406 496 411
3 409 500 498
3 411 496 493
3 450 527 412
3 417 510 418
3 487 533 421
3 422 483 423
3 423 535 510
3 509 512 425
3 428 437 427
3 429 430 428
3 429 511 430
3 511 522 430
3 522 538 430
3 432 505 433
3 433 505 452
3 434 506 435
3 437 530 483
3 438 448 439
3 439 441 440
3 439 442 441
3 439 448 442
3 441 454 440
3 440 459 447
3 454 459 440
3 442 443 441
3 443 444 441
3 444 454 441
3 442 445 443
3 442 446 445
3 442 448 446
3 443 468 444
3 445 534 443
3 443 534 468
3 444 455 454
3 444 491 455
3 468 491 444
3 446 494 445
3 445 494 489
3 448 486 446
3 486 495 446
3 446 495 494
3 455 476 472
3 455 491 476
3 462 466 461
3 463 495 462
3 462 486 466
3 462 495 486
3 490 526 463
3 463 526 495
3 468 534 518
3 472 476 473
3 473 475 474
3 475 516 474
3 491 503 476
3 477 514 478
3 514 539 478
3 479 521 480
3 504 521 479
3 519 541 488
3 495 526 494
3 61 5 565
3 5 105 565
3 6 63 564
3 108 6 564
3 99 9 561
3 9 106 561
3 107 10 562
3 10 114 562
3 62 61 547
3 547 61 565
3 63 62 556
3 62 547 556
3 63 556 564
3 100 99 553
3 553 99 561
3 101 100 552
3 552 100 553
3 102 101 543
3 543 101 552
3 103 102 550
3 102 543 550
3 104 103 542
3 542 103 550
3 105 104 557
3 104 542 557
3 105 557 565
3 106 107 545
3 106 545 561
3 545 107 562
3 109 108 544
3 544 108 564
3 110 109 549
3 109 544 549
3 111 110 546
3 546 110 549
3 112 111 551
3 111 546 551
3 113 112 548
3 548 112 551
3 114 113 554
3 113 548 554
3 114 554 562
3 542 550 558
3 542 555 557
3 555 542 558
3 550 543 559
3 543 552 560
3 559 543 560
3 549 544 555
3 555 544 556
3 556 544 564
3 553 545 554
3 545 553 561
3 554 545 562
3 546 549 558
3 551 546 559
3 546 558 559
3 547 555 556
3 555 547 557
3 557 547 565
3 548 551 560
3 554 548 563
3 548 560 563
3 549 555 558
3 558 550 559
3 551 559 560
3 552 553 563
3 560 552 563
3 553 554 563
3 5 64 597
3 105 5 597
3 67 7 596
3 7 115 596
3 9 99 593
3 122 9 593
3 121 11 595
3 11 124 595
3 64 65 590
3 64 590 597
3 65 66 566
3 65 566 590
3 66 67 589
3 566 66 589
3 589 67 596
3 99 100 586
3 99 586 593
3 100 101 568
3 100 568 586
3 101 102 588
3 568 101 588
3 102 103 569
3 102 569 588
3 103 104 585
3 569 103 585
3 104 105 573
3 104 573 585
3 573 105 597
3 115 116 572
3 115 572 596
3 116 117 581
3 572 116 581
3 117 118 567
3 117 567 581
3 118 119 577
3 567 118 577
3 119 120 574
3 119 574 577
3 120 121 570
3 120 570 574
3 570 121 595
3 123 122 571
3 571 122 593
3 124 123 587
3 123 571 587
3 124 587 595
3 582 566 589
3 566 582 592
3 590 566 592
3 567 577 578
3 567 578 579
3 567 579 581
3 586 568 594
3 568 588 591
3 568 591 594
3 580 569 584
3 569 580 588
3 584 569 598
3 569 585 598
3 574 570 575
3 575 570 587
3 587 570 595
3 586 571 593
3 571 586 594
3 587 571 594
3 572 581 582
3 572 582 589
3 572 589 596
3 585 573 592
3 573 590 592
3 590 573 597
3 574 575 576
3 574 576 577
3 576 575 591
3 575 587 594
3 591 575 594
3 577 576 578
3 578 576 580
3 580 576 591
3 579 578 584
3 578 580 584
3 581 579 582
3 582 579 583
3 583 579 584
3 588 580 591
3 582 583 592
3 583 584 598
3 583 585 592
3 585 583 598
3 68 6 621
3 6 108 621
3 7 70 622
3 115 7 622
3 114 10 619
3 10 125 619
3 11 121 618
3 126 11 618
3 69 68 613
3 613 68 621
3 70 69 604
3 604 69 613
3 70 604 622
3 108 109 601
3 108 601 621
3 109 110 606
3 601 109 606
3 110 111 603
3 110 603 606
3 111 112 608
3 603 111 608
3 112 113 605
3 112 605 608
3 113 114 611
3 605 113 611
3 611 114 619
3 116 115 614
3 614 115 622
3 117 116 599
3 599 116 614
3 118 117 607
3 117 599 607
3 119 118 600
3 600 118 607
3 120 119 609
3 119 600 609
3 121 120 610
3 120 609 610
3 121 610 618
3 125 126 602
3 125 602 619
3 602 126 618
3 607 599 615
3 612 599 614
3 599 612 615
3 600 607 616
3 609 600 617
3 600 616 617
3 601 606 612
3 601 612 613
3 601 613 621
3 602 610 611
3 610 602 618
3 602 611 619
3 606 603 615
3 603 608 616
3 615 603 616
3 612 604 613
3 604 612 614
3 604 614 622
3 608 605 617
3 605 611 620
3 617 605 620
3 612 606 615
3 607 615 616
3 616 608 617
3 610 609 620
3 609 617 620
3 611 610 620
3 71 625 8
3 8 623 78
3 8 625 623
3 72 625 71
3 73 625 72
3 74 624 73
3 624 625 73
3 75 624 74
3 76 626 75
3 75 626 624
3 77 626 76
3 78 626 77
3 623 626 78
3 623 625 624
3 624 626 623
3 122 106 9
3 10 107 627
3 125 10 628
3 10 627 628
3 124 11 126
3 107 106 629
3 106 122 629
3 627 107 629
3 122 123 627
3 122 627 629
3 123 124 628
3 627 123 628
3 124 126 628
3 126 125 628
4 339 649 633 652
4 484 651 643 660
4 30 637 287 667
4 422 94 224 633
4 332 287 637 667
4 538 634 636 678
4 332 30 287 667
4 482 633 339 649
4 94 224 633 649
4 339 633 433 652
4 484 377 651 660
4 639 643 484 651
4 391 339 482 633
4 343 643 406 648
4 406 648 643 673
4 633 647 535 676
4 107 635 629 668
4 343 411 406 643
4 391 433 339 633
4 647 649 224 675
4 343 643 648 660
4 208 637 30 667
4 422 224 423 633
4 482 227 633 649
4 422 94 633 661
4 423 633 224 649
4 423 647 633 649
4 538 634 385 636
4 227 94 633 649
4 645 653 367 673
4 645 367 656 673
4 385 636 634 677
4 343 410 643 660
4 227 633 94 661
4 332 637 650 667
4 227 482 633 662
4 406 643 411 673
4 385 634 504 677
4 423 224 647 649
4 106 107 629 668
4 635 651 377 660
4 410 411 343 643
4 484 643 639 656
4 256 639 484 651
4 391 633 482 662
4 433 452 633 662
4 423 647 224 675
4 436 332 287 637
4 538 353 634 678
4 300 295 653 657
4 465 107 635 663
4 629 107 627 635
4 256 484 471 651
4 436 332 637 650
4 649 652 339 672
4 433 633 391 662
4 530 350 634 676
4 484 639 256 656
4 422 633 423 661
4 385 504 636 677
4 484 349 377 660
4 535 633 423 647
4 638 653 295 657
4 406 638 648 673
4 425 236 512 634
4 327 323 634 676
4 327 634 350 676
4 433 633 452 652
4 465 470 107 663
4 633 661 227 662
4 425 236 634 678
4 452 633 659 679
4 289 290 637 648
4 425 634 96 678
4 452 659 633 662
4 327 385 538 634
4 423 661 633 676
4 96 634 425 661
4 631 639 638 643
4 643 648 638 673
4 452 652 633 679
4 300 653 644 657
4 484 643 349 660
4 425 96 236 678
4 323 659 634 676
4 208 655 637 667
4 485 484 256 656
4 629 627 122 635
4 529 98 623 636
4 289 648 637 670
4 471 484 377 651
4 482 419 227 649
4 353 530 350 634
4 290 637 648 654
4 294 295 638 653
4 393 646 645 665
4 638 639 631 642
4 343 398 410 640
4 327 353 350 634
4 433 369 452 662
4 512 425 634 662
4 452 659 316 679
4 527 3 32 641
4 521 636 504 677
4 530 634 661 676
4 374 393 645 665
4 289 291 648 670
4 465 635 107 668
4 353 327 538 634
4 425 661 634 662
4 356 357 634 659
4 236 512 634 677
4 638 639 630 643
4 630 639 638 642
4 287 30 29 637
4 430 538 636 678
4 634 659 357 662
4 289 291 290 648
4 86 3 641 668
4 432 339 652 672
4 249 658 639 666
4 236 677 634 678
4 89 639 249 658
4 293 406 638 648
4 250 646 393 665
4 227 419 94 649
4 530 634 437 661
4 29 281 637 670
4 452 315 652 679
4 639 643 631 656
4 315 452 316 679
4 122 629 635 668
4 645 646 393 671
4 343 398 640 648
4 250 226 393 646
4 374 645 656 665
4 327 323 385 634
4 631 643 638 673
4 527 412 3 641
4 30 208 29 637
4 294 296 295 653
4 289 637 281 670
4 367 341 645 656
4 89 639 88 666
4 29 408 281 670
4 437 530 353 634
4 510 423 224 675
4 504 385 323 634
4 366 643 484 656
4 289 281 408 670
4 287 29 281 637
4 434 654 638 657
4 87 651 253 668
4 641 651 87 668
4 432 339 433 652
4 226 393 646 671
4 623 98 528 636
4 296 300 295 653
4 354 653 645 664
4 336 649 339 672
4 107 627 635 663
4 327 326 323 676
4 306 300 644 657
4 300 435 295 657
4 323 319 634 659
4 376 126 640 670
4 504 634 356 677
4 376 126 125 663
4 32 527 641 667
4 95 227 94 661
4 3 412 86 641
4 477 624 244 636
4 353 437 634 678
4 504 323 319 634
4 631 656 643 673
4 126 376 640 663
4 89 249 639 666
4 521 385 504 636
4 639 651 88 666
4 256 225 639 651
4 86 641 87 668
4 87 651 641 666
4 356 320 357 659
4 288 436 637 654
4 366 484 485 656
4 538 385 522 636
4 436 650 637 654
4 498 653 354 664
4 256 471 225 651
4 521 504 479 677
4 538 430 353 678
4 221 89 249 658
4 521 479 636 677
4 249 272 658 666
4 434 506 654 657
4 370 357 662 677
4 208 30 209 667
4 634 662 357 677
4 288 637 290 654
4 512 370 662 677
4 225 88 89 639
4 96 634 661 678
4 88 639 225 651
4 89 88 249 666
4 630 643 651 660
4 434 638 295 657
4 288 289 290 637
4 437 661 634 678
4 294 653 638 673
4 356 634 357 677
4 96 661 234 678
4 234 661 437 678
4 376 399 126 670
4 512 662 634 677
4 356 634 319 659
4 293 343 406 648
4 356 504 319 634
4 465 635 346 663
4 377 635 460 651
4 42 32 3 641
4 332 31 30 667
4 433 391 369 662
4 372 674 647 680
4 376 640 399 670
4 410 365 643 660
4 306 435 300 657
4 107 470 10 663
4 376 125 321 663
4 95 227 661 662
4 642 654 506 657
4 95 425 227 662
4 321 640 376 663
4 287 288 436 637
4 368 451 664 672
4 365 411 410 643
4 529 481 98 636
4 289 457 291 670
4 92 671 646 675
4 380 658 657 669
4 369 659 452 662
4 293 406 294 638
4 372 647 675 680
4 311 310 652 674
4 642 657 380 658
4 528 429 623 636
4 254 87 253 668
4 638 642 631 657
4 465 346 470 663
4 310 664 652 674
4 631 642 639 658
4 98 636 481 678
4 253 651 460 668
4 374 469 393 665
4 98 481 97 678
4 123 655 627 663
4 306 657 644 669
4 95 661 425 662
4 642 658 272 666
4 98 245 636 678
4 87 86 412 641
4 434 295 435 657
4 625 529 623 636
4 624 480 244 636
4 460 651 635 668
4 484 366 349 643
4 336 671 649 672
4 430 538 522 636
4 506 642 502 654
4 652 664 451 672
4 342 640 398 648
4 430 428 353 678
4 357 659 320 662
4 482 339 336 649
4 256 656 639 665
4 91 90 413 665
4 334 657 306 669
4 42 122 641 668
4 87 641 235 666
4 630 643 639 651
4 301 644 300 653
4 627 655 635 663
4 42 641 3 668
4 400 642 537 650
4 641 650 450 666
4 346 635 377 660
4 647 676 633 679
4 29 637 40 670
4 93 671 92 675
4 410 640 321 660
4 292 648 638 654
4 323 326 659 676
4 451 652 310 664
4 122 655 641 668
4 537 650 642 666
4 42 641 122 655
4 256 469 656 665
4 512 371 370 677
4 528 98 245 636
4 471 377 460 651
4 413 658 646 665
4 367 653 498 673
4 292 638 434 654
4 91 413 646 665
4 400 502 642 650
4 292 290 648 654
4 450 650 641 667
4 343 342 398 648
4 246 481 636 677
4 124 40 655 670
4 237 92 646 675
4 502 642 650 654
4 2 408 29 670
4 351 397 402 679
4 367 492 341 656
4 376 125 266 321
4 625 624 477 636
4 374 645 341 656
4 96 425 95 661
4 40 637 208 655
4 32 641 42 667
4 428 636 245 678
4 93 649 671 675
4 338 645 393 671
4 98 97 245 678
4 328 334 306 669
4 227 509 482 662
4 89 639 658 665
4 630 648 643 660
4 42 655 41 667
4 122 635 655 668
4 357 370 371 677
4 311 310 451 652
4 354 367 341 645
4 477 244 478 636
4 40 208 41 655
4 479 244 480 636
4 293 638 292 648
4 40 637 655 670
4 481 636 677 678
4 311 652 313 674
4 89 658 90 665
4 328 306 644 669
4 631 645 644 646
4 399 640 342 670
4 410 398 321 640
4 374 656 469 665
4 640 648 342 670
4 646 658 413 669
4 644 645 631 653
4 397 647 402 679
4 293 294 292 638
4 427 234 437 678
4 126 399 11 670
4 372 675 329 680
4 313 674 652 679
4 354 664 645 672
4 376 398 399 640
4 124 123 628 655
4 288 287 281 637
4 637 655 650 667
4 294 638 406 673
4 321 660 640 663
4 644 645 632 646
4 266 321 125 663
4 126 640 628 663
4 624 233 480 636
4 381 450 650 666
4 639 658 642 666
4 630 640 637 648
4 332 30 31 331
4 123 628 655 663
4 246 514 481 677
4 372 307 674 680
4 354 368 664 672
4 450 641 527 667
4 645 653 644 664
4 623 429 626 636
4 430 636 428 678
4 398 342 399 640
4 640 655 628 663
4 124 628 640 655
4 638 643 630 648
4 257 338 393 671
4 126 124 628 640
4 499 380 657 669
4 29 208 40 637
4 400 537 381 650
4 221 249 272 658
4 321 398 376 640
4 294 297 653 673
4 631 653 638 657
4 209 42 41 667
4 256 639 251 665
4 428 429 245 636
4 90 658 413 665
4 107 10 627 663
4 246 636 514 677
4 635 630 640 655
4 630 651 635 660
4 250 91 226 646
4 635 640 630 660
4 124 655 640 670
4 381 650 537 666
4 124 640 126 670
4 524 481 514 677
4 644 653 301 664
4 295 434 292 638
4 422 95 94 661
4 86 9 3 668
4 253 460 254 668
4 349 346 377 660
4 641 655 42 667
4 637 640 630 655
4 635 641 630 655
4 412 527 450 641
4 630 641 635 651
4 375 372 647 675
4 493 656 367 673
4 338 645 671 672
4 337 336 339 672
4 479 504 356 677
4 380 642 401 657
4 506 401 502 642
4 460 635 465 668
4 244 479 478 636
4 513 646 413 669
4 246 481 529 636
4 635 660 346 663
4 427 96 234 678
4 353 428 437 678
4 631 644 653 657
4 354 645 340 672
4 522 521 233 636
4 89 221 90 658
4 291 292 290 648
4 313 647 674 679
4 522 385 521 636
4 634 677 636 678
4 338 671 257 672
4 245 429 528 636
4 2 29 40 670
4 292 434 290 654
4 485 256 469 656
4 89 251 639 665
4 631 657 642 658
4 301 300 296 653
4 375 329 372 675
4 630 640 648 660
4 478 514 477 636
4 400 355 502 650
4 413 658 344 669
4 505 432 433 652
4 502 650 436 654
4 356 319 320 659
4 638 654 642 657
4 632 645 644 664
4 349 643 365 660
4 281 289 288 637
4 313 652 311 679
4 295 292 294 638
4 125 126 628 663
4 469 256 251 665
4 401 642 506 657
4 31 332 333 667
4 644 664 301 674
4 630 639 642 666
4 433 452 505 652
4 381 348 650 667
4 351 352 397 676
4 338 374 393 645
4 478 636 479 677
4 381 650 450 667
4 480 521 479 636
4 513 413 344 669
4 31 209 30 667
4 511 522 233 636
4 493 492 367 656
4 365 349 366 643
4 492 374 341 656
4 233 624 626 636
4 315 316 314 679
4 643 656 493 673
4 288 318 436 654
4 625 477 246 636
4 313 647 456 674
4 91 646 250 665
4 332 287 30 331
4 625 246 529 636
4 659 676 317 679
4 493 643 366 656
4 302 644 301 674
4 637 648 640 670
4 626 429 511 636
4 645 631 656 665
4 321 322 660 663
4 369 357 320 662
4 332 650 348 667
4 467 317 676 679
4 428 430 429 636
4 311 303 310 674
4 300 301 302 644
4 631 638 653 673
4 482 336 419 649
4 630 642 638 654
4 31 332 331 333
4 272 642 380 658
4 294 297 296 653
4 272 537 642 666
4 478 514 636 677
4 637 630 650 655
4 354 340 368 672
4 93 649 252 671
4 122 3 9 668
4 465 460 377 635
4 93 92 417 675
4 522 511 430 636
4 652 674 647 679
4 514 246 477 636
4 377 346 465 635
4 402 456 313 647
4 256 225 251 639
4 237 675 646 680
4 253 87 88 651
4 93 252 92 671
4 650 655 641 667
4 332 355 348 650
4 674 675 647 680
4 254 86 87 668
4 635 651 641 668
4 372 329 307 680
4 645 646 631 665
4 317 314 316 659
4 511 233 626 636
4 338 257 337 672
4 251 225 89 639
4 630 648 637 654
4 89 90 251 665
4 316 659 314 679
4 641 650 630 655
4 509 227 425 662
4 317 314 659 679
4 436 355 332 650
4 252 649 336 671
4 235 641 450 666
4 224 649 93 675
4 123 627 628 663
4 381 450 348 667
4 380 401 499 657
4 42 3 122 668
4 40 41 123 655
4 124 126 11 670
4 310 301 664 674
4 226 91 92 671
4 511 429 430 636
4 434 435 506 657
4 91 646 92 671
4 509 391 482 662
4 346 660 322 663
4 500 368 451 664
4 630 651 639 666
4 496 367 498 673
4 310 303 301 674
4 632 647 674 675
4 327 350 326 676
4 94 93 224 649
4 460 465 255 668
4 632 675 674 680
4 410 321 322 660
4 311 313 303 674
4 369 320 659 662
4 123 124 40 655
4 41 122 123 655
4 505 452 315 652
4 492 493 366 656
4 409 301 653 664
4 632 652 649 672
4 226 646 91 671
4 625 623 624 636
4 480 233 521 636
4 323 326 317 659
4 272 537 380 642
4 633 649 647 652
4 640 655 637 670
4 237 417 92 675
4 381 520 450 666
4 626 624 623 636
4 318 506 502 654
4 481 677 524 678
4 42 122 41 655
4 369 320 452 659
4 498 354 500 664
4 307 644 674 680
4 411 643 493 673
4 630 637 650 654
4 96 95 234 661
4 354 368 500 664
4 502 355 436 650
4 635 655 640 663
4 314 311 315 679
4 402 647 313 679
4 318 434 506 654
4 400 381 355 650
4 471 460 253 651
4 630 638 648 654
4 328 644 307 680
4 535 375 647 675
4 326 467 317 676
4 30 29 280 287
4 524 246 514 481
4 647 649 632 652
4 306 334 435 657
4 87 412 235 641
4 338 341 374 645
4 300 302 306 644
4 632 664 652 672
4 535 510 375 675
4 409 653 498 664
4 641 655 635 668
4 631 646 644 669
4 288 290 318 654
4 630 650 642 654
4 311 652 315 679
4 652 664 632 674
4 502 436 318 654
4 91 250 90 665
4 469 250 393 665
4 297 294 406 673
4 432 652 505 672
4 646 658 631 665
4 513 646 669 680
4 644 646 632 680
4 372 456 647 674
4 328 669 644 680
4 646 671 632 675
4 413 90 221 658
4 483 530 661 676
4 297 498 653 673
4 280 29 281 287
4 340 645 338 672
4 513 237 646 680
4 224 93 417 675
4 481 524 236 678
4 412 450 235 641
4 401 400 502 642
4 649 671 632 672
4 341 340 354 645
4 252 419 336 649
4 641 651 630 666
4 493 411 365 643
4 297 496 498 673
4 642 650 630 666
4 631 658 646 669
4 380 537 400 642
4 237 418 675 680
4 631 644 657 669
4 293 292 291 648
4 634 661 659 662
4 107 259 465 255
4 641 630 650 666
4 237 92 91 646
4 326 317 659 676
4 483 422 423 661
4 481 236 97 678
4 419 93 94 649
4 409 498 500 664
4 236 524 512 677
4 499 536 380 669
4 659 661 633 662
4 402 372 456 647
4 512 509 425 662
4 306 307 328 644
4 369 370 357 662
4 536 513 344 669
4 493 365 366 643
4 235 450 520 666
4 659 661 634 676
4 266 125 376 126
4 500 451 310 664
4 289 408 457 670
4 368 432 505 672
4 302 301 303 674
4 409 301 296 653
4 640 660 635 663
4 639 656 631 665
4 341 338 340 645
4 383 527 32 667
4 351 467 676 679
4 646 675 632 680
4 513 237 413 646
4 254 9 86 668
4 483 352 530 676
4 73 244 477 624
4 380 400 401 642
4 257 393 226 671
4 431 11 126 399
4 524 677 236 678
4 478 479 356 677
4 633 661 659 676
4 351 402 467 679
4 253 88 225 651
4 349 322 346 660
4 107 106 259 255
4 337 339 432 672
4 106 9 223 668
4 639 631 658 665
4 346 299 470 663
4 632 646 645 671
4 299 346 322 663
4 427 437 428 678
4 290 434 318 654
4 302 307 644 674
4 356 357 539 677
4 381 348 355 650
4 106 223 255 668
4 252 93 419 649
4 647 652 632 674
4 306 302 307 644
4 485 469 374 656
4 125 10 299 663
4 175 65 20 213
4 213 66 19 566
4 343 293 342 648
4 334 499 401 657
4 372 307 456 674
4 483 530 437 661
4 499 657 334 669
4 409 310 301 664
4 253 225 471 651
4 496 493 367 673
4 272 249 520 666
4 328 499 334 669
4 383 450 527 667
4 513 418 237 680
4 320 316 452 659
4 413 237 91 646
4 22 275 121 120
4 527 222 3 412
4 105 33 1 79
4 275 22 23 120
4 633 652 647 679
4 344 272 380 658
4 521 522 233 385
4 496 411 493 673
4 257 252 336 671
4 431 126 376 399
4 272 520 537 666
4 117 27 443 116
4 213 175 65 566
4 19 175 213 566
4 299 264 10 125
4 266 125 299 663
4 328 307 329 680
4 631 657 658 669
4 41 180 123 571
4 98 623 8 529
4 105 1 33 212
4 332 348 333 667
4 105 1 5 79
4 115 534 27 116
4 644 669 646 680
4 624 74 244 480
4 217 51 7 115
4 27 28 534 115
4 321 299 322 663
4 254 223 9 668
4 632 671 645 672
4 357 371 539 677
4 632 649 647 675
4 28 0 115 211
4 340 338 337 672
4 513 669 382 680
4 121 22 11 274
4 121 195 22 120
4 38 99 586 39
4 328 382 669 680
4 254 255 223 668
4 10 470 299 663
4 195 23 22 120
4 99 38 586 100
4 632 671 649 675
4 496 406 411 673
4 223 9 86 254
4 234 483 437 661
4 574 119 24 120
4 101 37 38 183
4 492 366 485 656
4 118 119 24 577
4 633 676 659 679
4 275 121 120 273
4 314 313 311 679
4 645 664 632 672
4 317 467 314 679
4 5 1 105 212
4 249 88 235 666
4 52 28 0 216
4 399 342 457 670
4 38 39 586 179
4 121 570 195 120
4 567 118 25 577
4 266 299 321 663
4 323 317 319 659
4 216 28 0 115
4 115 0 7 211
4 410 322 365 660
4 460 255 254 668
4 268 610 602 618
4 215 19 66 199
4 20 65 590 214
4 34 33 105 79
4 26 117 118 567
4 539 478 356 677
4 313 456 303 674
4 216 52 28 228
4 413 221 344 658
4 602 426 268 618
4 22 2 11 274
4 291 342 293 648
4 402 397 372 647
4 222 86 3 412
4 202 22 11 121
4 598 584 188 176
4 567 193 207 579
4 39 9 99 593
4 26 27 443 117
4 632 674 644 680
4 329 675 418 680
4 216 0 7 115
4 322 349 365 660
4 237 418 417 675
4 333 383 31 667
4 36 102 176 186
4 397 535 375 647
4 451 315 311 652
4 36 37 102 186
4 438 119 600 609
4 115 614 489 116
4 587 123 180 571
4 41 180 571 196
4 520 381 537 666
4 438 119 609 120
4 397 375 372 647
4 624 477 73 625
4 512 370 509 662
4 66 215 199 589
4 590 20 214 198
4 3 9 39 593
4 41 123 122 571
4 125 299 264 266
4 443 445 117 116
4 480 624 75 233
4 24 25 118 577
4 37 101 102 186
4 180 40 41 123
4 265 125 426 602
4 326 351 467 676
4 595 202 11 121
4 632 664 644 674
4 408 2 335 670
4 465 259 107 470
4 32 42 209 667
4 31 383 32 667
4 105 104 34 79
4 97 236 96 678
4 623 528 78 429
4 115 445 534 116
4 335 11 399 670
4 2 124 11 670
4 1 4 5 79
4 122 42 41 571
4 375 418 329 675
4 119 438 283 120
4 11 2 22 202
4 180 40 123 124
4 593 39 3 204
4 25 26 118 567
4 485 374 492 656
4 115 206 28 211
4 40 124 2 670
4 33 597 105 212
4 111 110 603 363
4 270 438 609 120
4 566 201 175 592
4 401 506 334 657
4 618 268 610 271
4 408 335 457 670
4 528 623 8 98
4 524 371 512 677
4 199 19 66 566
4 175 20 65 590
4 428 245 427 678
4 112 449 113 548
4 379 603 110 363
4 260 553 563 405
4 139 140 141 312
4 207 178 193 567
4 584 598 569 176
4 297 406 496 673
4 275 121 273 274
4 100 99 415 553
4 422 234 95 661
4 39 9 85 99
4 618 426 268 271
4 561 553 545 405
4 228 216 7 115
4 348 383 333 667
4 28 216 228 115
4 563 553 260 554
4 119 283 24 120
4 614 494 489 116
4 286 147 304 142
4 23 24 283 120
4 510 224 417 675
4 27 115 116 572
4 116 117 27 581
4 3 9 593 122
4 27 28 115 572
4 405 545 561 258
4 609 600 438 298
4 206 115 596 211
4 597 33 205 212
4 36 103 176 102
4 120 610 270 271
4 569 187 176 186
4 577 178 567 578
4 39 9 3 85
4 99 9 415 561
4 498 409 297 653
4 105 33 34 181
4 334 506 435 657
4 513 382 418 680
4 304 285 147 286
4 105 104 573 181
4 409 296 297 653
4 217 489 51 115
4 345 260 563 405
4 409 500 310 664
4 567 25 178 577
4 176 102 569 186
4 581 117 26 567
4 566 175 65 590
4 19 199 175 566
4 593 122 571 204
4 534 28 228 115
4 328 329 382 680
4 584 578 193 187
4 119 24 439 118
4 127 37 38 515
4 142 286 147 148
4 139 141 324 312
4 28 27 182 572
4 265 426 125 266
4 2 22 276 274
4 275 22 121 274
4 595 11 202 124
4 273 120 270 271
4 589 199 66 566
4 590 175 20 198
4 461 111 603 363
4 100 415 458 553
4 431 618 121 271
4 195 202 180 595
4 586 593 571 204
4 120 438 283 273
4 572 194 182 582
4 264 619 125 265
4 344 221 272 658
4 361 396 559 550
4 251 250 469 665
4 233 624 75 626
4 189 178 577 578
4 187 569 580 186
4 335 11 2 274
4 302 456 307 674
4 85 9 415 99
4 139 159 137 325
4 193 579 584 188
4 415 9 223 561
4 38 37 101 83
4 101 100 38 83
4 449 112 358 548
4 11 618 121 431
4 451 505 315 652
4 603 379 461 363
4 7 51 216 228
4 78 626 623 429
4 118 117 448 607
4 108 47 621 488
4 201 566 582 592
4 592 201 175 191
4 470 107 10 261
4 117 442 26 118
4 286 285 147 148
4 6 47 621 108
4 402 313 467 679
4 554 562 260 261
4 391 370 369 662
4 251 90 250 665
4 259 545 107 562
4 120 121 610 271
4 562 10 107 261
4 358 548 551 560
4 584 187 188 176
4 579 567 193 578
4 245 97 427 678
4 347 138 160 386
4 202 11 2 124
4 330 138 160 347
4 532 105 5 79
4 585 573 104 181
4 560 559 359 543
4 33 1 79 531
4 121 120 273 271
4 422 483 234 661
4 105 565 557 248
4 105 34 104 181
4 453 111 608 461
4 101 552 458 231
4 119 439 438 118
4 2 40 202 124
4 599 117 446 116
4 606 110 109 379
4 25 24 197 577
4 102 101 588 186
4 37 36 102 82
4 551 360 359 559
4 201 182 194 582
4 599 446 494 116
4 379 110 109 378
4 139 159 325 474
4 348 450 383 667
4 182 27 194 572
4 228 445 534 115
4 571 42 41 196
4 587 180 123 124
4 104 557 542 508
4 331 30 31 464
4 122 106 629 668
4 26 27 117 581
4 579 193 192 188
4 579 583 584 188
4 335 399 457 670
4 70 50 622 219
4 102 101 37 82
4 111 608 112 453
4 137 373 325 474
4 242 622 50 219
4 427 97 96 678
4 24 25 439 118
4 545 259 260 562
4 259 545 106 107
4 605 112 284 449
4 563 260 345 554
4 120 270 438 273
4 49 604 242 219
4 222 3 32 527
4 443 445 442 117
4 382 513 536 669
4 415 223 9 85
4 404 552 543 231
4 404 563 345 560
4 486 600 616 298
4 226 92 252 671
4 560 404 563 552
4 441 454 25 440
4 405 458 553 552
4 416 30 331 464
4 442 26 443 117
4 458 100 552 101
4 2 276 335 274
4 572 116 27 581
4 215 67 18 596
4 597 64 21 214
4 449 267 605 113
4 140 144 142 312
4 403 160 144 387
4 242 50 49 219
4 266 426 125 126
4 453 608 112 284
4 263 267 113 611
4 201 199 589 566
4 592 175 590 198
4 146 158 308 141
4 392 36 155 523
4 132 30 416 464
4 265 125 264 266
4 25 26 442 118
4 22 23 134 275
4 405 260 545 258
4 26 25 178 567
4 569 103 102 176
4 340 432 368 672
4 287 280 30 331
4 127 232 37 515
4 552 404 458 231
4 187 584 569 176
4 567 178 193 578
4 391 509 370 662
4 115 489 445 116
4 11 335 2 670
4 383 31 32 384
4 113 263 114 262
4 101 543 552 231
4 459 447 163 440
4 199 201 175 566
4 175 566 592 590
4 607 448 600 486
4 117 446 448 607
4 132 31 30 464
4 298 438 609 270
4 583 579 192 188
4 404 405 563 552
4 222 32 3 168
4 140 139 138 325
4 139 324 143 474
4 361 559 558 550
4 144 304 142 312
4 140 139 325 312
4 533 544 556 555
4 302 303 456 674
4 559 396 359 543
4 325 159 137 474
4 551 359 358 560
4 26 178 581 567
4 190 103 569 176
4 571 122 42 204
4 461 608 453 284
4 449 263 267 113
4 553 458 100 552
4 470 259 107 261
4 319 316 320 659
4 547 487 555 557
4 51 52 216 228
4 360 361 359 559
4 205 597 21 214
4 206 215 18 596
4 190 569 598 176
4 178 207 581 567
4 439 448 438 118
4 260 553 545 554
4 542 557 421 508
4 543 550 396 424
4 448 438 600 298
4 278 281 29 408
4 155 36 232 523
4 126 426 125 602
4 544 240 533 556
4 557 547 487 248
4 592 582 201 191
4 78 77 626 429
4 477 72 73 625
4 325 139 324 312
4 570 574 177 120
4 274 11 121 431
4 622 217 7 115
4 10 264 299 470
4 605 112 449 113
4 132 147 305 416
4 587 195 180 595
4 204 571 586 196
4 278 29 2 408
4 103 36 176 35
4 358 112 453 551
4 319 317 316 659
4 151 29 279 280
4 408 2 278 276
4 114 264 10 261
4 259 260 562 261
4 103 104 34 190
4 458 405 404 552
4 147 151 285 416
4 138 155 160 386
4 2 167 278 276
4 204 586 39 179
4 195 595 570 121
4 260 545 553 405
4 29 279 280 278
4 619 125 265 602
4 147 132 151 416
4 189 178 197 577
4 569 588 580 186
4 121 274 431 271
4 363 360 111 546
4 550 543 102 424
4 137 138 139 325
4 405 561 415 258
4 231 102 543 424
4 25 197 178 577
4 588 569 102 186
4 283 24 439 119
4 466 616 600 298
4 466 603 616 462
4 198 573 592 181
4 169 151 285 147
4 147 305 304 144
4 173 174 33 507
4 223 561 106 258
4 333 31 383 384
4 431 335 11 399
4 466 486 616 298
4 86 3 9 85
4 190 585 104 181
4 242 614 604 526
4 129 26 27 443
4 598 188 190 176
4 207 581 567 579
4 259 106 545 258
4 532 5 4 79
4 599 446 607 495
4 554 113 114 262
4 104 105 508 79
4 510 418 375 675
4 305 304 144 403
4 305 147 285 416
4 392 155 138 347
4 110 362 363 546
4 561 9 223 106
4 561 223 415 258
4 499 328 382 669
4 615 599 607 495
4 373 137 159 474
4 218 28 0 518
4 360 551 546 559
4 79 1 4 531
4 442 439 25 118
4 562 107 259 261
4 403 304 144 312
4 405 563 345 404
4 553 415 458 405
4 263 611 619 265
4 396 361 420 550
4 590 573 592 198
4 201 199 182 589
4 231 543 396 424
4 162 144 160 387
4 79 34 33 507
4 190 104 34 181
4 445 443 27 116
4 220 133 156 501
4 130 25 454 440
4 572 27 194 581
4 262 554 260 261
4 620 268 269 270
4 438 283 439 119
4 265 268 611 602
4 114 264 263 619
4 194 572 581 582
4 190 191 585 181
4 167 279 29 278
4 562 114 10 261
4 333 331 31 464
4 200 197 574 576
4 185 588 591 183
4 144 140 403 312
4 277 22 134 275
4 546 361 360 559
4 209 31 32 667
4 561 415 553 405
4 115 28 206 572
4 249 235 520 666
4 105 597 33 181
4 262 263 114 261
4 585 104 103 190
4 267 605 284 449
4 600 617 616 466
4 129 444 26 443
4 113 267 605 611
4 28 182 206 572
4 604 49 69 219
4 453 360 358 551
4 109 108 601 519
4 573 597 105 181
4 228 7 51 115
4 455 146 149 171
4 125 628 10 663
4 77 511 626 429
4 308 309 158 146
4 82 101 37 83
4 130 459 163 440
4 595 587 195 570
4 179 204 586 196
4 137 138 325 347
4 445 489 494 116
4 244 73 74 624
4 489 217 622 115
4 165 159 150 475
4 163 447 24 440
4 220 58 59 501
4 619 264 263 265
4 151 279 29 167
4 376 426 266 126
4 547 565 61 248
4 360 453 111 551
4 601 606 109 519
4 350 351 326 676
4 59 247 220 501
4 284 608 617 466
4 486 448 600 298
4 529 623 8 625
4 27 26 194 581
4 101 458 100 83
4 135 12 54 243
4 257 226 252 671
4 488 6 46 564
4 604 612 490 526
4 17 59 247 220
4 241 156 58 210
4 109 541 549 544
4 466 461 603 462
4 76 511 233 626
4 147 305 144 164
4 117 445 446 116
4 608 605 112 284
4 159 139 143 474
4 83 38 37 515
4 140 142 141 312
4 43 61 565 248
4 405 553 563 552
4 392 155 128 138
4 75 74 624 480
4 308 141 142 312
4 575 177 195 570
4 179 586 568 184
4 617 284 466 269
4 23 24 447 283
4 448 442 117 118
4 263 264 114 261
4 612 604 614 526
4 144 140 160 330
4 625 477 72 246
4 12 54 13 135
4 229 108 621 488
4 487 421 555 557
4 578 189 193 187
4 578 584 580 187
4 33 597 205 181
4 596 115 206 572
4 350 530 352 676
4 106 259 255 258
4 359 404 345 560
4 38 127 388 153
4 114 10 264 619
4 466 600 617 298
4 403 144 305 164
4 6 47 108 488
4 156 16 58 210
4 121 273 274 271
4 285 282 279 169
4 84 39 38 515
4 600 118 448 607
4 340 337 432 672
4 24 23 447 163
4 70 50 217 622
4 113 114 263 611
4 508 105 557 248
4 51 50 489 217
4 497 240 533 544
4 468 28 27 161
4 519 606 109 379
4 546 362 361 558
4 364 558 555 542
4 611 114 263 619
4 431 426 618 271
4 112 453 284 449
4 35 103 190 176
4 37 232 127 155
4 84 38 39 99
4 362 360 363 546
4 152 132 164 407
4 518 28 52 228
4 99 84 38 100
4 314 467 313 679
4 487 421 557 248
4 604 622 242 219
4 596 115 7 211
4 205 33 1 212
4 549 497 364 555
4 52 0 28 518
4 255 223 106 258
4 267 268 269 620
4 363 362 110 378
4 519 109 108 541
4 111 453 360 363
4 330 140 138 325
4 620 610 268 270
4 207 194 178 581
4 585 569 598 190
4 180 587 595 124
4 42 571 204 196
4 515 39 38 395
4 614 599 494 116
4 345 563 548 560
4 609 610 270 120
4 105 597 5 212
4 464 132 152 407
4 111 603 608 461
4 358 345 262 548
4 223 86 9 85
4 441 439 25 442
4 26 178 194 581
4 569 585 103 190
4 597 590 64 214
4 199 215 18 206
4 345 554 262 548
4 167 29 2 278
4 275 277 22 276
4 620 269 609 270
4 495 446 607 486
4 396 404 543 231
4 588 185 186 183
4 574 197 577 576
4 109 519 379 378
4 387 160 127 386
4 146 308 472 141
4 122 9 106 668
4 549 362 110 546
4 611 268 610 602
4 155 138 347 386
4 628 627 10 663
4 129 468 27 161
4 558 420 361 550
4 61 43 44 248
4 269 617 609 298
4 265 426 268 602
4 260 259 545 258
4 27 28 468 534
4 112 111 453 551
4 378 362 110 549
4 151 285 279 169
4 488 108 564 544
4 155 232 392 523
4 0 28 206 211
4 14 13 55 157
4 347 160 330 386
4 388 515 38 153
4 262 554 113 548
4 171 149 491 129
4 175 20 19 213
4 65 66 213 566
4 363 111 110 546
4 169 285 282 148
4 364 420 558 542
4 609 269 298 270
4 449 263 113 262
4 192 582 583 191
4 495 607 615 486
4 396 359 361 559
4 285 169 147 148
4 350 352 351 676
4 325 324 139 474
4 616 607 600 486
4 478 539 514 677
4 239 104 542 508
4 231 458 101 83
4 0 52 218 518
4 222 32 168 414
4 588 568 591 183
4 200 197 177 574
4 80 34 104 79
4 282 459 447 163
4 617 605 284 269
4 25 26 441 442
4 461 453 111 363
4 46 240 488 564
4 611 263 267 265
4 274 335 11 431
4 277 167 22 276
4 445 494 446 116
4 174 531 33 507
4 218 0 28 170
4 130 163 24 440
4 169 282 279 134
4 551 111 360 546
4 308 324 141 312
4 553 99 415 561
4 22 275 276 274
4 592 191 198 181
4 541 109 108 544
4 360 362 361 546
4 358 360 359 551
4 470 10 264 261
4 112 453 449 358
4 542 550 103 239
4 85 86 3 222
4 162 164 403 407
4 568 588 101 183
4 24 177 197 574
4 329 418 382 680
4 619 10 264 125
4 589 201 566 582
4 175 592 191 198
4 105 565 248 532
4 144 140 330 403
4 283 24 447 440
4 75 76 233 626
4 275 23 447 283
4 518 218 28 170
4 415 84 99 100
4 559 359 551 560
4 510 417 418 675
4 555 421 364 542
4 596 67 18 211
4 21 597 212 64
4 36 103 102 81
4 112 358 548 551
4 267 268 611 265
4 277 278 167 276
4 605 284 269 267
4 283 439 24 440
4 420 364 421 542
4 229 621 47 488
4 242 604 490 526
4 164 403 144 162
4 446 448 442 117
4 243 503 135 166
4 362 364 361 558
4 447 134 282 163
4 267 269 605 620
4 424 103 550 239
4 464 132 31 152
4 596 215 67 589
4 21 205 214 198
4 241 58 57 210
4 549 541 497 544
4 384 464 31 152
4 269 466 617 298
4 552 560 404 543
4 447 23 134 163
4 82 102 101 231
4 284 461 608 466
4 161 243 468 170
4 101 82 231 83
4 8 71 529 625
4 554 345 563 548
4 580 185 187 186
4 578 577 189 576
4 325 373 137 347
4 606 603 110 379
4 573 590 597 198
4 182 199 206 589
4 239 542 421 508
4 309 308 472 146
4 441 25 454 154
4 330 160 144 403
4 189 193 178 578
4 569 580 584 187
4 582 192 201 191
4 592 583 582 191
4 3 540 222 168
4 12 53 54 243
4 103 34 35 190
4 25 24 439 440
4 30 29 151 280
4 247 133 220 501
4 347 137 128 389
4 38 127 515 388
4 454 459 309 130
4 309 454 130 154
4 414 152 168 394
4 550 542 420 239
4 541 378 109 549
4 44 45 62 487
4 547 61 44 248
4 268 267 611 620
4 607 616 615 486
4 620 609 610 270
4 167 279 278 277
4 543 101 102 231
4 133 16 17 220
4 18 206 596 211
4 597 21 212 205
4 605 608 617 284
4 533 497 544 555
4 515 127 232 388
4 110 379 363 378
4 601 612 463 490
4 187 193 584 188
4 193 579 578 584
4 490 49 604 242
4 407 162 152 394
4 192 201 194 582
4 583 592 585 191
4 571 594 586 196
4 195 180 203 587
4 618 126 426 431
4 279 285 151 416
4 379 606 603 462
4 280 151 30 416
4 45 46 63 240
4 587 203 195 570
4 179 586 594 196
4 362 497 364 549
4 580 576 189 185
4 403 330 160 387
4 544 497 549 555
4 488 108 6 564
4 126 376 426 431
4 214 20 21 198
4 215 66 67 589
4 612 601 613 490
4 154 441 26 444
4 486 616 615 462
4 389 373 137 390
4 138 128 392 347
4 494 599 614 612
4 103 34 104 80
4 240 46 63 564
4 586 594 568 184
4 195 203 177 575
4 280 279 151 416
4 503 13 54 135
4 14 56 15 131
4 516 156 145 390
4 575 195 203 570
4 594 586 179 184
4 550 420 424 239
4 606 612 615 463
4 16 133 156 220
4 247 133 17 220
4 489 228 51 115
4 364 362 549 558
4 162 403 144 387
4 518 53 218 170
4 152 384 464 407
4 260 345 554 262
4 270 610 268 271
4 556 487 533 555
4 550 396 559 543
4 167 2 22 276
4 242 494 614 526
4 558 549 364 555
4 128 138 137 347
4 612 613 604 490
4 286 282 285 148
4 280 281 29 278
4 232 37 36 155
4 445 446 442 117
4 519 108 601 229
4 519 601 606 463
4 575 574 177 570
4 184 568 179 183
4 18 19 215 199
4 590 65 64 214
4 403 140 330 312
4 164 305 403 407
4 277 134 282 447
4 304 308 286 142
4 231 82 102 424
4 622 489 614 242
4 445 27 534 116
4 84 415 458 100
4 616 486 466 462
4 612 463 490 526
4 168 32 152 414
4 232 127 155 386
4 142 304 308 312
4 217 50 489 622
4 331 280 30 416
4 459 282 148 163
4 81 102 36 82
4 442 448 439 118
4 146 309 158 154
4 395 39 38 153
4 156 145 165 516
4 444 441 26 443
4 445 228 489 115
4 497 533 364 555
4 441 25 439 440
4 276 408 2 335
4 240 63 45 556
4 550 420 396 424
4 612 615 463 495
4 62 44 487 547
4 446 448 607 486
4 82 37 36 232
4 384 152 414 394
4 47 6 46 488
4 31 333 464 384
4 347 392 155 386
4 546 549 362 558
4 463 615 606 462
4 487 45 62 556
4 600 609 617 298
4 268 611 610 620
4 162 160 127 387
4 539 371 514 677
4 47 68 621 229
4 597 64 5 212
4 596 7 67 211
4 205 1 21 212
4 52 53 218 518
4 612 494 599 495
4 142 147 304 144
4 16 58 220 501
4 491 455 149 171
4 503 55 13 157
4 461 379 603 462
4 387 162 403 407
4 130 454 25 154
4 131 56 15 525
4 604 69 49 490
4 607 117 446 599
4 488 519 108 541
4 32 222 527 414
4 248 508 105 532
4 134 282 279 277
4 84 39 515 395
4 562 260 545 554
4 454 441 154 444
4 146 455 309 154
4 207 193 192 579
4 598 584 583 188
4 108 488 541 544
4 516 241 156 390
4 279 151 169 134
4 206 18 0 211
4 463 229 601 490
4 495 612 494 526
4 185 580 588 186
4 577 197 189 576
4 305 132 416 464
4 518 468 28 534
4 162 153 152 394
4 540 3 39 168
4 497 378 541 549
4 152 32 384 414
4 220 156 16 501
4 555 556 487 547
4 518 468 243 170
4 155 36 392 128
4 487 421 533 555
4 168 540 222 414
4 325 330 140 312
4 5 43 565 532
4 491 468 129 161
4 143 141 324 139
4 384 31 32 152
4 84 39 85 99
4 559 546 361 558
4 189 578 580 187
4 174 173 247 507
4 69 48 49 490
4 232 82 37 83
4 100 84 38 83
4 565 105 5 532
4 243 135 12 170
4 162 152 164 407
4 387 330 160 386
4 37 232 83 515
4 347 373 137 389
4 518 243 53 170
4 611 619 265 602
4 12 53 243 170
4 455 146 171 154
4 514 371 524 677
4 407 387 162 394
4 499 382 536 669
4 390 241 156 501
4 606 615 603 462
4 615 463 495 462
4 45 487 240 556
4 5 43 61 565
4 135 54 503 243
4 564 63 240 556
4 487 533 240 556
4 135 503 13 157
4 286 459 282 148
4 110 109 378 549
4 547 44 487 248
4 241 156 165 516
4 614 604 622 242
4 145 137 373 390
4 612 614 494 526
4 130 158 309 154
4 389 137 136 390
4 103 36 35 81
4 576 574 200 575
4 591 184 185 183
4 395 38 515 153
4 282 169 148 134
4 497 362 378 549
4 158 286 308 142
4 32 383 384 414
4 542 421 420 239
4 58 156 241 501
4 121 618 610 271
4 364 420 361 558
4 576 200 189 185
4 591 576 580 185
4 373 159 516 474
4 162 388 153 394
4 454 459 130 440
4 622 604 70 219
4 36 81 82 523
4 229 601 519 463
4 622 50 489 242
4 138 160 140 330
4 473 150 159 475
4 104 105 557 508
4 48 69 613 490
4 468 491 243 161
4 155 127 160 386
4 80 104 508 79
4 468 444 491 129
4 587 575 203 570
4 196 594 179 184
4 491 503 243 166
4 325 138 330 347
4 58 16 156 501
4 472 476 455 149
4 407 152 384 394
4 474 473 159 475
4 286 309 459 158
4 454 309 455 154
4 57 172 241 210
4 279 167 134 277
4 53 12 218 170
4 131 172 165 475
4 618 11 126 431
4 102 103 550 424
4 79 80 34 507
4 459 286 158 148
4 163 148 459 130
4 189 580 185 187
4 189 578 576 580
4 47 68 6 621
4 443 441 26 442
4 200 189 197 576
4 588 591 580 185
4 232 36 82 523
4 134 148 282 163
4 622 614 489 115
4 534 28 518 228
4 85 3 39 540
4 63 46 6 564
4 608 616 617 466
4 347 128 392 389
4 127 232 388 386
4 43 5 4 532
4 82 81 102 424
4 174 17 60 247
4 39 84 540 395
4 26 25 441 154
4 128 36 392 523
4 285 147 305 304
4 308 324 472 141
4 108 621 601 229
4 26 154 444 129
4 44 62 61 547
4 508 557 421 248
4 103 35 34 80
4 379 519 606 463
4 248 565 43 532
4 489 494 614 242
4 606 379 463 462
4 149 146 472 143
4 444 154 171 129
4 491 455 171 129
4 154 171 455 444
4 151 279 167 134
4 172 131 525 475
4 230 131 150 475
4 582 579 192 583
4 188 192 583 191
4 373 159 145 516
4 591 575 200 184
4 136 173 34 238
4 141 324 472 143
4 241 165 172 475
4 35 36 128 523
4 136 128 137 389
4 84 85 415 99
4 574 177 200 575
4 184 591 568 183
4 153 168 152 394
4 69 604 613 490
4 507 80 34 238
4 132 30 151 416
4 13 54 55 503
4 8 623 528 78
4 230 14 55 157
4 165 150 131 475
4 472 146 141 143
4 127 388 387 386
4 59 60 17 247
4 463 612 495 526
4 420 558 542 550
4 127 388 153 162
4 60 4 1 531
4 56 14 230 131
4 247 531 174 507
4 35 34 80 238
4 137 145 136 390
4 458 84 100 83
4 150 473 230 475
4 269 609 617 620
4 240 497 541 544
4 103 102 81 424
4 603 615 616 462
4 27 534 443 445
4 617 605 269 620
4 611 267 605 620
4 615 612 599 495
4 305 147 132 164
4 286 308 309 158
4 68 47 48 229
4 33 1 531 174
4 486 615 495 462
4 150 149 473 143
4 229 519 108 488
4 390 156 133 501
4 62 487 556 547
4 525 241 172 475
4 158 309 459 130
4 149 472 473 143
4 594 591 568 184
4 203 200 177 575
4 71 529 625 246
4 388 162 387 394
4 12 0 218 170
4 135 243 161 170
4 24 25 130 440
4 172 156 241 210
4 106 561 545 258
4 324 473 143 474
4 173 136 517 238
4 172 57 15 210
4 134 167 22 277
4 444 171 455 129
4 159 145 137 373
4 129 166 491 161
4 136 133 173 517
4 148 158 459 130
4 157 166 476 150
4 383 32 527 414
4 60 1 17 174
4 84 38 83 515
4 217 7 70 622
4 473 476 472 149
4 229 613 601 490
4 165 241 516 475
4 200 576 591 185
4 104 542 103 239
4 63 62 45 556
4 156 165 172 241
4 565 547 557 248
4 515 388 395 153
4 494 446 599 495
4 1 60 531 174
4 141 158 308 142
4 14 55 56 230
4 34 35 136 238
4 146 472 455 149
4 534 468 27 443
4 533 421 364 555
4 157 230 14 131
4 103 104 239 80
4 557 421 555 542
4 155 392 232 386
4 131 230 56 525
4 531 79 33 507
4 575 203 200 184
4 591 594 575 184
4 149 166 491 129
4 612 606 601 463
4 80 81 35 238
4 173 33 34 507
4 127 388 162 387
4 131 157 230 150
4 48 613 229 490
4 126 426 602 618
4 36 35 81 523
4 168 395 540 414
4 392 238 128 523
4 128 238 35 523
4 57 15 56 525
4 473 150 143 159
4 613 601 621 229
4 142 158 286 148
4 156 133 145 390
4 203 594 196 184
4 203 575 587 594
4 507 173 247 517
4 48 69 68 613
4 532 508 105 79
4 476 473 230 150
4 184 200 591 185
4 200 576 575 591
4 84 85 39 540
4 238 35 136 128
4 136 238 128 389
4 157 476 230 150
4 473 476 149 150
4 544 564 240 556
4 241 172 57 525
4 159 143 473 474
4 414 168 395 394
4 476 491 455 149
4 517 133 247 390
4 503 135 166 157
4 390 133 247 501
4 35 103 81 80
4 154 455 454 444
4 153 395 39 168
4 424 81 103 239
4 540 85 3 222
4 395 540 39 168
4 128 238 392 389
4 131 230 525 475
4 172 15 57 525
4 156 172 16 210
4 472 455 309 146
4 174 60 531 247
4 133 17 174 247
4 238 81 35 523
4 55 503 230 157
4 625 72 71 246
4 239 81 103 80
4 168 153 395 394
4 166 476 503 157
4 159 165 145 516
4 203 575 594 184
4 455 491 444 129
4 247 173 133 517
4 517 136 133 390
4 172 131 15 525
4 378 109 519 541
4 69 70 604 219
4 516 145 373 390
4 476 503 491 166
4 145 133 136 390
4 174 173 133 247
4 172 15 16 210
4 476 230 503 157
4 149 476 166 150
4 491 476 166 149
4 508 239 104 80
4 324 473 472 143
4 76 77 511 626
4 238 136 517 389
4 388 395 153 394
4 136 517 389 390
4 676 535 423 352
4 676 423 535 633
4 673 645 631 656
4 673 631 645 653
4 535 676 397 352
4 397 676 535 647
4 660 343 640 648
4 660 640 343 410
4 653 354 367 498
4 653 367 354 645
4 675 535 423 647
4 675 423 535 510
4 255 107 668 465
4 255 668 107 106
4 679 397 676 351
4 679 676 397 647
4 666 87 88 235
4 666 88 87 651
4 655 627 122 123
4 655 122 627 635
4 672 451 505 368
4 672 505 451 652
4 670 291 342 457
4 670 342 291 648
4 41 667 208 209
4 208 667 41 655
4 672 257 336 671
4 672 336 257 337
4 676 483 423 661
4 676 423 483 352
4 344 669 380 536
4 380 669 344 658
4 120 177 24 574
4 120 24 177 23
4 438 118 600 119
4 600 118 438 448
4 195 120 177 23
4 177 120 195 570
4 568 183 38 179
4 568 586 38 100
4 38 586 568 179
4 548 449 262 358
4 548 262 449 113
4 571 594 203 587
4 203 594 571 196
4 203 180 571 587
4 571 180 203 196
4 554 261 114 562
4 114 261 554 262
4 603 466 608 461
4 608 466 603 616
4 192 207 582 194
4 192 582 207 579
4 581 582 207 194
4 581 207 582 579
4 190 598 191 188
4 190 191 598 585
4 583 191 598 188
4 583 598 191 585
4 592 181 585 191
4 585 181 592 573
4 582 182 589 201
4 582 589 182 572
4 120 275 283 23
4 283 275 120 273
4 358 560 345 548
4 345 560 358 359
4 407 132 305 464
4 407 305 132 164
4 443 129 468 27
4 443 468 129 444
4 134 275 447 277
4 447 275 134 23
4 359 543 404 560
4 404 543 359 396
4 544 488 240 564
4 544 240 488 541
4 577 24 574 119
4 577 574 24 197
4 186 101 183 37
4 186 183 101 588
4 202 121 195 22
4 195 121 202 595
4 593 39 586 99
4 593 586 39 204
4 204 122 3 593
4 204 3 122 42
4 202 124 180 595
4 180 124 202 40
4 238 173 507 517
4 238 507 173 34
4 170 468 28 518
4 170 28 468 161
4 166 243 161 135
4 166 161 243 491
4 597 198 214 205
4 214 198 597 590
4 206 589 215 596
4 215 589 206 199
4 68 229 613 621
4 613 229 68 48
4 475 159 516 165
4 475 516 159 474
4 597 181 198 205
4 198 181 597 573
4 572 206 589 182
4 572 589 206 596
4 38 568 101 183
4 101 568 38 100

CELL_TYPES 3551
1
1
1
1
1
1
1
1
1
1
1
1
3
3
3
3
3
3
3
3
3
3
3
3
3
3
3
3
3
3
3
3
3
3
3
3
3
3
3
3
3
3
3
3
3
3
3
3
3
3
3
3
3
3
3
3
3
3
3
3
3
3
3
3
3
3
3
3
3
3
3
3
3
3
3
3
3
3
3
3
3
3
3
3
3
3
3
3
3
3
3
3
3
3
3
3
3
3
3
3
3
3
3
3
3
3
3
3
3
3
3
3
3
3
3
3
3
3
3
3
3
3
3
3
3
3
3
3
3
3
3
3
3
3
3
3
3
3
3
3
3
3
3
3
3
5
5
5
5
5
5
5
5
5
5
5
5
5
5
5
5
5
5
5
5
5
5
5
5
5
5
5
5
5
5
5
5
5
5
5
5
5
5
5
5
5
5
5
5
5
5
5
5
5
5
5
5
5
5
5
5
5
5
5
5
5
5
5
5
5
5
5
5
5
5
5
5
5
5
5
5
5
5
5
5
5
5
5
5
5
5
5
5
5
5
5
5
5
5
5
5
5
5
5
5
5
5
5
5
5
5
5
5
5
5
5
5
5
5
5
5
5
5
5
5
5
5
5
5
5
5
5
5
5
5
5
5
5
5
5
5
5
5
5
5
5
5
5
5
5
5
5
5
5
5
5
5
5
5
5
5
5
5
5
5
5
5
5
5
5
5
5
5
5
5
5
5
5
5
5
5
5
5
5
5
5
5
5
5
5
5
5
5
5
5
5
5
5
5
5
5
5
5
5
5
5
5
5
5
5
5
5
5
5
5
5
5
5
5
5
5
5
5
5
5
5
5
5
5
5
5
5
5
5
5
5
5
5
5
5
5
5
5
5
5
5
5
5
5
5
5
5
5
5
5
5
5
5
5
5
5
5
5
5
5
5
5
5
5
5
5
5
5
5
5
5
5
5
5
5
5
5
5
5
5
5
5
5
5
5
5
5
5
5
5
5
5
5
5
5
5
5
5
5
5
5
5
5
5
5
5
5
5
5
5
5
5
5
5
5
5
5
5
5
5
5
5
5
5
5
5
5
5
5
5
5
5
5
5
5
5
5
5
5
5
5
5
5
5
5
5
5
5
5
5
5
5
5
5
5
5
5
5
5
5
5
5
5
5
5
5
5
5
5
5
5
5
5
5
5
5
5
5
5
5
5
5
5
5
5
5
5
5
5
5
5
5
5
5
5
5
5
5
5
5
5
5
5
5
5
5
5
5
5
5
5
5
5
5
5
5
5
5
5
5
5
5
5
5
5
5
5
5
5
5
5
5
5
5
5
5
5
5
5
5
5
5
5
5
5
5
5
5
5
5
5
5
5
5
5
5
5
5
5
5
5
5
5
5
5
5
5
5
5
5
5
5
5
5
5
5
5
5
5
5
5
5
5
5
5
5
5
5
5
5
5
5
5
5
5
5
5
5
5
5
5
5
5
5
5
5
5
5
5
5
5
5
5
5
5
5
5
5
5
5
5
5
5
5
5
5
5
5
5
5
5
5
5
5
5
5
5
5
5
5
5
5
5
5
5
5
5
5
5
5
5
5
5
5
5
5
5
5
5
5
5
5
5
5
5
5
5
5
5
5
5
5
5
5
5
5
5
5
5
5
5
5
5
5
5
5
5
5
5
5
5
5
5
5
5
5
5
5
5
5
5
5
5
5
5
5
5
5
5
5
5
5
5
5
5
5
5
5
5
5
5
5
5
5
5
5
5
5
5
5
5
5
5
5
5
5
5
5
5
5
5
5
5
5
5
5
5
5
5
5
5
5
5
5
5
5
5
5
5
5
5
5
5
5
5
5
5
5
5
5
5
5
5
5
5
5
5
5
5
5
5
5
5
5
5
5
5
5
5
5
5
5
5
5
5
5
5
5
5
5
5
5
5
5
5
5
5
5
5
5
5
5
5
5
5
5
5
5
5
5
5
5
5
5
5
5
5
5
5
5
5
5
5
5
5
5
5
5
5
5
5
5
5
5
5
5
5
5
5
5
5
5
5
5
5
5
5
5
5
5
5
5
5
5
5
5
5
5
5
5
5
5
5
5
5
5
5
5
5
5
5
5
5
5
5
5
5
5
5
5
5
5
5
5
5
5
5
5
5
5
5
5
5
5
5
5
5
5
5
5
5
5
5
5
5
5
5
5
5
5
5
5
5
5
5
5
5
5
5
5
5
5
5
5
5
5
5
5
5
5
5
5
5
5
5
5
5
5
5
5
5
5
5
5
5
5
5
5
5
5
5
5
5
5
5
5
5
5
5
5
5
5
5
5
5
5
5
5
5
5
5
5
5
5
5
5
5
5
5
5
5
5
5
5
5
5
5
5
5
5
5
5
5
5
5
5
5
5
5
5
5
5
5
5
5
5
5
5
5
5
5
5
5
5
5
5
5
5
5
5
5
5
5
5
5
5
5
5
5
5
5
5
5
5
5
5
5
5
5
5
5
5
5
5
5
5
5
5
5
5
5
5
5
5
5
5
5
5
5
5
5
5
5
5
5
5
5
5
5
5
5
5
5
5
5
5
5
5
5
5
5
5
5
5
5
5
5
5
5
5
5
5
5
5
5
5
5
5
5
5
5
5
5
5
5
5
5
5
5
5
5
5
5
5
5
5
5
5
5
5
5
5
5
5
5
5
5
5
5
5
5
5
5
5
5
5
5
5
5
5
5
5
5
5
5
5
5
5
5
5
5
5
5
5
5
5
5
5
5
5
5
5
5
5
5
5
5
5
5
5
5
5
5
5
5
5
5
5
5
5
5
5
5
5
5
5
5
5
5
5
5
5
5
5
5
5
5
5
5
5
5
5
5
5
5
5
5
5
5
5
5
5
5
5
5
5
5
5
5
5
5
5
5
5
5
5
5
5
5
5
5
5
5
5
5
5
5
5
5
5
5
5
5
5
5
5
5
5
5
5
5
5
5
5
5
5
5
5
5
5
5
5
5
5
5
5
5
5
5
5
5
5
5
5
5
5
5
5
5
5
5
5
5
5
5
5
5
5
5
5
5
5
5
5
5
5
5
5
5
5
5
5
5
5
5
5
5
5
5
5
5
5
5
5
5
5
5
5
5
5
5
5
5
5
5
5
5
5
5
5
5
5
5
5
5
5
5
5
5
5
5
5
5
5
5
5
10
10
10
10
10
10
10
10
10
10
10
10
10
10
10
10
10
10
10
10
10
10
10
10
10
10
10
10
10
10
10
10
10
10
10
10
10
10
10
10
10
10
10
10
10
10
10
10
10
10
10
10
10
10
10
10
10
10
10
10
10
10
10
10
10
10
10
10
10
10
10
10
10
10
10
10
10
10
10
10
10
10
10
10
10
10
10
10
10
10
10
10
10
10
10
10
10
10
10
10
10
10
10
10
10
10
10
10
10
10
10
10
10
10
10
10
10
10
10
10
10
10
10
10
10
10
10
10
10
10
10
10
10
10
10
10
10
10
10
10
10
10
10
10
10
10
10
10
10
10
10
10
10
10
10
10
10
10
10
10
10
10
10
10
10
10
10
10
10
10
10
10
10
10
10
10
10
10
10
10
10
10
10
10
10
10
10
10
10
10
10
10
10
10
10
10
10
10
10
10
10
10
10
10
10
10
10
10
10
10
10
10
10
10
10
10
10
10
10
10
10
10
10
10
10
10
10
10
10
10
10
10
10
10
10
10
10
10
10
10
10
10
10
10
10
10
10
10
10
10
10
10
10
10
10
10
10
10
10
10
10
10
10
10
10
10
10
10
10
10
10
10
10
10
10
10
10
10
10
10
10
10
10
10
10
10
10
10
10
10
10
10
10
10
10
10
10
10
10
10
10
10
10
10
10
10
10
10
10
10
10
10
10
10
10
10
10
10
10
10
10
10
10
10
10
10
10
10
10
10
10
10
10
10
10
10
10
10
10
10
10
10
10
10
10
10
10
10
10
10
10
10
10
10
10
10
10
10
10
10
10
10
10
10
10
10
10
10
10
10
10
10
10
10
10
10
10
10
10
10
10
10
10
10
10
10
10
10
10
10
10
10
10
10
10
10
10
10
10
10
10
10
10
10
10
10
10
10
10
10
10
10
10
10
10
10
10
10
10
10
10
10
10
10
10
10
10
10
10
10
10
10
10
10
10
10
10
10
10
10
10
10
10
10
10
10
10
10
10
10
10
10
10
10
10
10
10
10
10
10
10
10
10
10
10
10
10
10
10
10
10
10
10
10
10
10
10
10
10
10
10
10
10
10
10
10
10
10
10
10
10
10
10
10
10
10
10
10
10
10
10
10
10
10
10
10
10
10
10
10
10
10
10
10
10
10
10
10
10
10
10
10
10
10
10
10
10
10
10
10
10
10
10
10
10
10
10
10
10
10
10
10
10
10
10
10
10
10
10
10
10
10
10
10
10
10
10
10
10
10
10
10
10
10
10
10
10
10
10
10
10
10
10
10
10
10
10
10
10
10
10
10
10
10
10
10
10
10
10
10
10
10
10
10
10
10
10
10
10
10
10
10
10
10
10
10
10
10
10
10
10
10
10
10
10
10
10
10
10
10
10
10
10
10
10
10
10
10
10
10
10
10
10
10
10
10
10
10
10
10
10
10
10
10
10
10
10
10
10
10
10
10
10
10
10
10
10
10
10
10
10
10
10
10
10
10
10
10
10
10
10
10
10
10
10
10
10
10
10
10
10
10
10
10
10
10
10
10
10
10
10
10
10
10
10
10
10
10
10
10
10
10
10
10
10
10
10
10
10
10
10
10
10
10
10
10
10
10
10
10
10
10
10
10
10
10
10
10
10
10
10
10
10
10
10
10
10
10
10
10
10
10
10
10
10
10
10
10
10
10
10
10
10
10
10
10
10
10
10
10
10
10
10
10
10
10
10
10
10
10
10
10
10
10
10
10
10
10
10
10
10
10
10
10
10
10
10
10
10
10
10
10
10
10
10
10
10
10
10
10
10
10
10
10
10
10
10
10
10
10
10
10
10
10
10
10
10
10
10
10
10
10
10
10
10
10
10
10
10
10
10
10
10
10
10
10
10
10
10
10
10
10
10
10
10
10
10
10
10
10
10
10
10
10
10
10
10
10
10
10
10
10
10
10
10
10
10
10
10
10
10
10
10
10
10
10
10
10
10
10
10
10
10
10
10
10
10
10
10
10
10
10
10
10
10
10
10
10
10
10
10
10
10
10
10
10
10
10
10
10
10
10
10
10
10
10
10
10
10
10
10
10
10
10
10
10
10
10
10
10
10
10
10
10
10
10
10
10
10
10
10
10
10
10
10
10
10
10
10
10
10
10
10
10
10
10
10
10
10
10
10
10
10
10
10
10
10
10
10
10
10
10
10
10
10
10
10
10
10
10
10
10
10
10
10
10
10
10
10
10
10
10
10
10
10
10
10
10
10
10
10
10
10
10
10
10
10
10
10
10
10
10
10
10
10
10
10
10
10
10
10
10
10
10
10
10
10
10
10
10
10
10
10
10
10
10
10
10
10
10
10
10
10
10
10
10
10
10
10
10
10
10
10
10
10
10
10
10
10
10
10
10
10
10
10
10
10
10
10
10
10
10
10
10
10
10
10
10
10
10
10
10
10
10
10
10
10
10
10
10
10
10
10
10
10
10
10
10
10
10
10
10
10
10
10
10
10
10
10
10
10
10
10
10
10
10
10
10
10
10
10
10
10
10
10
10
10
10
10
10
10
10
10
10
10
10
10
10
10
10
10
10
10
10
10
10
10
10
10
10
10
10
10
10
10
10
10
10
10
10
10
10
10
10
10
10
10
10
10
10
10
10
10
10
10
10
10
10
10
10
10
10
10
10
10
10
10
10
10
10
10
10
10
10
10
10
10
10
10
10
10
10
10
10
10
10
10
10
10
10
10
10
10
10
10
10
10
10
10
10
10
10
10
10
10
10
10
10
10
10
10
10
10
10
10
10
10
10
10
10
10
10
10
10
10
10
10
10
10
10
10
10
10
10
10
10
10
10
10
10
10
10
10
10
10
10
10
10
10
10
10
10
10
10
10
10
10
10
10
10
10
10
10
10
10
10
10
10
10
10
10
10
10
10
10
10
10
10
10
10
10
10
10
10
10
10
10
10
10
10
10
10
10
10
10
10
10
10
10
10
10
10
10
10
10
10
10
10
10
10
10
10
10
10
10
10
10
10
10
10
10
10
10
10
10
10
10
10
10
10
10
10
10
10
10
10
10
10
10
10
10
10
10
10
10
10
10
10
10
10
10
10
10
10
10
10
10
10
10
10
10
10
10
10
10
10
10
10
10
10
10
10
10
10
10
10
10
10
10
10
10
10
10
10
10
10
10
10
10
10
10
10
10
10
10
10
10
10
10
10
10
10
10
10
10
10
10
10
10
10
10
10
10
10
10
10
10
10
10
10
10
10
10
10
10
10
10
10
10
10
10
10
10
10
10
10
10
10
10
10
10
10
10
10
10
10
10
10
10
10
10
10
10
10
10
10
10
10
10
10
10
10
10
10
10
10
10
10
10
10
10
10
10
10
10
10
10
10
10
10
10
10
10
10
10
10
10
10
10
10
10
10
10
10
10
10
10
10
10
10
10
10
10
10
10
10
10
10
10
10
10
10
10
10
10
10
10
10
10
10
10
10
10
10
10
10
10
10
10
10
10
10
10
10
10
10
10
10
10
10
10
10
10
10
10
10
10
10
10
10
10
10
10
10
10
10
10
10
10
10
10
10
10
10
10
10
10
10
10
10
10
10
10
10
10
10
10
10
10
10
10
10
10
10
10
10
10
10
10
10
10
10
10
10
10
10
10
10
10
10
10
10
10
10
10
10
10
10
10
10
10
10
10
10
10
10
10
10
10
10
10
10
10
10
10
10
10
10
10
10
10
10
10
10
10
10
10
10
10
10
10
10
10
10
10
10
10
10
10
10
10
10
10
10
10
10
10
10
10
10
10
10
10
10
10
10
10
10
10
10
10
10
10
10
10
10
10
10
10
10
10
10
10
10
10
10
10
10
10
10
10
10
10
10
10
10
10
10
10
10
10
10
10
10
10
10
10
10
10
10
10
10
10
10
10
10
10
10
10
10
10
10
10
10
10
10
10
10
10
10
10
10
10
10
10
10
10
10
10
10
10
10
10
10
10
10
10
10
10
10
10
10
10
10
10
10
10
10
10
10
10
10
10
10
10
10
10
10
10
10
10
10
10
10
10
10
10
10
10
10
10
10
10
10
10
10
10
10
10
10
10
10
10
10
10
10
10
10
10
10
10
10
10
10
10
10
10
10
10
10
10
10
10
10
10
10
10
10
10
10
10
10
10
10
10
10
10
10
10
10
10
10
10
10
10
10
10
10
10
10
10
10
10
10
10
10
10
10
10
10
10
10
10
10
10
10
10
10
10
10
10
10
10
10
10
10
10
10
10
10
10
10
10
10
10
10
10
10
10
10
10
10
10
10
10
10
10
10
10
10
10
10
10
10
10
10
10
10
10
10
10
10
10
10
10
10
10
10
10
10
10
10
10
10
10
10
10
10
10
10
10
10
10
10
10
10
10
10
10
10
10
10
10
10
10
10
10
10
10
10
10
10
10
10
10
10
10
10
10
10
10
10
10
10
10
10
10
10
10
10
10
10
10
10
10
10
10
10
10
10
10
10
10
10
10
10
10
10
10
10
10
10
10
10
10
10
10
10
10
10
10
10
10
10
10
10
10
10
10
10
10
10
10
10
10
10
10
10
10
10
10
10
10
10
10
10
10
10
10
10
10
10
10
10
10
10
10
10
10
10
10
10
10
10
10
10
10
10
10
10
10
10
10
10
10
10
10
10
10
10
10
10
10
10
10
10
10
10
10
10
10
10
10
10
10
10
10
10
10
10
10
10
10
10
10
10
10
10
10
10
10
10
10
10
10
10
10
10
10
10
10
10
10
10
10
10
10
10
10
10
10
10
10
10
10
10
10
10
10
10
10
10
10
10
10
10
10
10
10
10
10
10
10
10
10
10
10
10
10
10
