# vtk DataFile Version 2.0
whisker_body, Created by Gmsh 4.13.1 
ASCII
DATASET UNSTRUCTURED_GRID
POINTS 554 double
10 0 0
7.009335140664497 0 38
12 0 0
7.27789759052289 0 60
9.700933514066449 0 3.8
9.4018670281329 0 7.600000000000001
9.102800542199349 0 11.4
8.8037340562658 0 15.2
8.504667570332249 0 19
8.205601084398698 0 22.8
7.906534598465148 0 26.6
7.607468112531597 0 30.4
7.308401626598048 0 34.2
9.238795325112871 3.826834323650888 0
7.071067811865488 7.071067811865462 0
3.826834323650923 9.238795325112857 0
3.391901413832837e-14 10 0
-3.826834323650852 9.238795325112886 0
-7.071067811865434 7.071067811865516 0
-9.238795325112843 3.826834323650956 0
-10 7.227892037515737e-14 0
-9.238795325112898 -3.826834323650822 0
-7.07106781186552 -7.07106781186543 0
-3.826834323650945 -9.238795325112848 0
-4.624589118372729e-14 -10 0
3.826834323650859 -9.238795325112884 0
7.071067811865461 -7.071067811865489 0
9.238795325112864 -3.826834323650904 0
6.070262295454422 3.504667570332255 38
3.504667570332236 6.070262295454434 38
-2.602934789342349e-14 7.009335140664497 38
-3.504667570332282 6.070262295454406 38
-6.070262295454447 3.504667570332213 38
-7.009335140664497 -3.026930505750316e-14 38
-6.070262295454415 -3.504667570332268 38
-3.504667570332235 -6.070262295454434 38
1.738902664852697e-14 -7.009335140664497 38
3.50466757033226 -6.07026229545442 38
6.070262295454428 -3.504667570332246 38
11.34980690040761 3.896393630456207 0
9.469686112756717 7.370552552276022 0
6.563377897469113 10.04599773915035 0
2.945825845689581 11.63280319127197 0
-0.9909521456679979 11.95901391608004 0
-4.820345095835646 10.98927991986068 0
-8.127378859508902 8.82868692807757 0
-10.55368501447787 5.71136871644487 0
-11.83633564083267 1.975135083368787 0
-11.83633564083267 -1.975135083368821 0
-10.55368501447786 -5.711368716444897 0
-8.12737885950888 -8.828686928077589 0
-4.820345095835619 -10.9892799198607 0
-0.9909521456679715 -11.95901391608004 0
2.945825845689616 -11.63280319127196 0
6.563377897469155 -10.04599773915032 0
9.469686112756747 -7.370552552275983 0
11.34980690040762 -3.896393630456205 0
6.302844199534381 3.638948795261439 60
3.638948795261455 6.302844199534372 60
1.337378586081774e-14 7.27789759052289 60
-3.638948795261432 6.302844199534386 60
-6.302844199534364 3.63894879526147 60
-7.27789759052289 4.613978646370539e-14 60
-6.302844199534409 -3.638948795261393 60
-3.63894879526151 -6.302844199534341 60
-6.597764390521311e-14 -7.27789759052289 60
3.638948795261406 -6.302844199534401 60
6.302844199534367 -3.638948795261465 60
11.70486859940768 0 3.75
11.40973719881536 0 7.5
11.11460579822304 0 11.25
10.81947439763072 0 15
10.5243429970384 0 18.75
10.22921159644608 0 22.5
9.934080195853765 0 26.25
9.638948795261445 0 30
9.343817394669125 0 33.75
9.048685994076806 0 37.5
8.753554593484488 0 41.25
8.458423192892168 0 45
8.163291792299848 0 48.75
7.868160391707529 0 52.5
7.573028991115209 0 56.25
7.67807354645867 -3.270525205686798 21.02106202808531
7.707185466331325 3.23645521954934 20.84900531870153
-7.006526684849756 1.877393166952565 34.89517478810722
-9.597927605268726 -1.592630973943314 3.441261361821017
-5.412604034683822 8.101524122892776 3.262282211269075
-1.778053246607858 -9.580471449910034 3.251894814859811
-1.853544292431655 -7.015493618958138 34.86298799082007
7.030557874169808 3.290708070754632 28.42923496781768
8.348586634225748 3.244869352468757 13.25241059958012
8.417682968851638 -3.084260360302339 13.15175561469471
-2.02741598119544 6.963162847662316 34.91266607961757
6.765781168030393 -3.726686115837603 28.91618971345243
5.407990230489511 8.093629343389226 3.378259073889602
5.414034840788982 -8.107954869233797 3.18423677441115
5.129133517897137 5.129133517897154 34.89517478810721
5.119122456971285 -5.127036750209575 35.00393185003255
8.984571868551313 3.251737389435865 5.655389637243165
9.020528745208034 -3.140748319585804 5.6966798146385
7.386529054275115 3.227405547985907 24.63950857296054
5.713961523684392 5.913265789357255 22.58020865957134
6.065845011681242 5.980860523940315 18.82399913926041
3.164543804175496 7.769112759043748 20.47111235532489
3.589842781392566 7.907786183508995 16.7153683964762
0.1964896928781798 8.560673763587745 18.259725448965
-0.2576101068014909 8.264365988471525 22.00231798852138
-3.213607512431096 7.814819454428735 19.69749217772414
-3.640605364792539 7.300670257048139 23.40418305003257
-6.073884921298617 5.724379062194649 21.01234973058611
-5.79069091853412 6.408347483356904 17.31763775979741
-7.799977683888347 3.477620242997077 18.54964961864639
-7.820027307866309 2.631548507828666 22.22401935775398
-8.452020951657001 -0.05946367817914795 19.66628090848103
-8.109139909839147 -0.9617894969984487 23.3034649218862
-7.571274859705466 -3.578273872221545 20.6569728776757
-8.211353118216939 -2.748709213606768 17.03649564715651
-6.274604336191622 -5.863585447730231 17.9422338419103
-5.255135540980366 -6.431030911129132 21.53580597971474
-7.713534640055641 4.298608368101255 14.86068323483622
-7.193112522872324 -5.193712061747791 14.33035851716243
0.6346629580033092 8.83724152864936 14.48504836977798
-4.401181152623058 -7.62887174690806 15.15357492155564
-0.7239113215122562 7.943230601042274 25.71545949627946
-4.048367430257715 6.74687117370954 27.08629738518327
-5.546683367502697 -7.202653812813056 11.55159123415612
-2.152151979850816 -8.77224341459022 12.29469046496022
-0.8154994738015388 -8.713291042331528 15.86534602172171
1.60838827462335 -8.837691816330649 12.92403455938653
-8.017492493065035 -4.428125428908139 10.6850860257599
2.917015977842741 -8.202288227686342 16.44760978616264
-6.603918155428342 -6.657170533704379 7.914931986315977
0.542499499738382 -8.454854299274125 19.41201911613582
-7.768756613123224 1.752396492243574 25.87048955029405
-7.664973875173471 -1.837109093816625 26.91104012472755
4.021043041288706 8.031122009743344 12.94101089748407
1.067448229724873 9.093316113271337 10.72715395378175
-2.405249536375538 8.714863874577665 12.18918785400262
0.3612829742284825 -9.253366324927322 9.397299386074019
3.891471380850071 -8.379449352553584 9.669696887911059
-1.726788888458392 9.163112168695386 8.584319331805631
-4.942616925508971 7.791493233696228 9.822378316305478
-1.179691123002877 7.603244373771775 29.29773360992666
2.230703670231867 7.477032001656433 27.9194095141469
4.343328240656407 8.193715525620211 9.228542100228081
-3.999599894284707 6.402949139184475 31.13688564236181
-7.64263142275959 0.7579284399233989 29.47684760268183
-7.024422591471673 -2.914857665136054 30.42895199885564
-5.915485209989886 -5.101790269994924 27.806148919953
4.136525348661182 -7.346008495030695 19.94136909946333
1.923069253350834 -7.967657121871246 22.91630441495858
1.782668165517217 7.297136956295798 31.61644610776563
6.090979749178328 -6.169240059025003 16.90609861292736
-4.373147201886902 -6.11807636904522 31.50726937938787
-2.59018763313356 -7.30731833980878 28.55332964615384
5.22530330029566 -6.265438708899841 23.3997262123966
3.165305881134558 -7.261942545392612 26.40599008179032
-6.440066199903677 -3.485094957144207 34.01970642526352
2.423793190573595 -9.182661569083223 6.389188753885036
-8.825038460472635 -3.376822770439097 7.000691963282434
-9.188955191296516 -0.9241544106858721 9.716302136992466
-7.698501503642557 -5.858203912890172 4.142746487546571
-0.3885844697482046 -7.961047283289581 25.78692249658982
1.002027688458451 -7.627412687377435 29.31384625933932
4.029204959988602 -6.540353054968151 29.45497843131933
2.401797307587457 -7.034005455975229 32.61992675551668
7.337285325149788 -3.337046275269417 24.64370494417559
-6.524366792901412 4.216824105974952 28.35440671967874
8.032953218295905 3.230501823807809 17.04914721166129
8.666199867664385 3.251353300165429 9.452879284071475
8.674345239719811 -3.215637085627538 9.514484555865689
7.17225517479145 -6.087237448610452 7.532040826592697
-5.453655973160659 7.070571548518577 13.60243666662173
-4.019037023124003 -6.944126205579392 25.11619300245263
-3.158327302606338 -7.917902307344666 18.74717928939164
-1.754873348419177 -8.056262713054892 22.29713599155749
-6.318696563728886 4.997073572659027 24.70280631856012
5.090472288894442 -7.352743320512306 13.43152865542647
-2.819672082460439 8.276599712900905 15.96254069785912
-8.756787862793363 -1.829947130674939 13.39296177056778
-5.211212041931432 5.04922659563981 34.86417610548708
-8.698827652145974 0.8458690945100502 16.01163737813482
-6.792818818773876 -4.392808945983917 24.27587351325164
5.324631827789358 5.868196088258786 26.37996242143416
2.759758926477675 7.60691990790482 24.24262541011149
4.86578221620271 5.893433253756842 29.95439066456694
6.521340401036116 3.62796749379754 32.24103888665733
6.432257442926884 6.027634945856823 15.05534355163914
6.745349586127702 -3.198931556032311 32.20454488242462
-3.496815052585719 -8.631649281127942 8.728401467909364
6.762399114542295 6.597700353032844 7.017195451901745
6.727516467098263 6.155165212745268 11.20156849838471
-8.857391086148096 1.757890989330757 12.32314885306165
-8.906410584384563 2.745516236625729 8.640485817242702
-7.575584424540295 5.06760207328742 11.25416041139109
-6.695042412954732 3.357378304605983 31.89640619065802
-9.53380372660995 1.991079964640897 3.309997205232555
1.919442904109991 9.534700179010958 3.481700916416664
1.616112640385938 9.303315645013177 7.081895361290091
-1.921286938735639 9.549128012370895 3.297358585627267
1.78927686966056 7.032364446785349 34.86046273875395
-8.080715601658579 5.445459940135816 3.249226844010844
-6.77616840172077 6.628877867662363 6.615215021547812
7.766176510958325 -3.83226180780237 17.02328590760557
-4.765745446437553 -8.320838139467536 5.222411804304587
7.989222592674701 5.592055780239386 3.152922838747091
7.534530541902747 -6.173068925060552 3.29817966067277
-9.490017051675014 0.4201936471020798 6.361805534524698
1.905558880189683 -9.568404391732223 3.096419030045854
6.843011156824922 -6.05836147924477 10.93362991210625
-1.584870421356964 -7.343480172320118 31.60595781572765
-7.404420717956535 -0.3639575620098693 32.86637331740216
5.493164511196209 -5.70162058342937 26.46345788043724
-0.8873927754528725 -9.450394132615966 6.455186256091664
6.529870826549234 3.113228932739337 35.14479022505071
-4.566164072593246 -5.606872751618903 35.18390668956139
6.667589025748494 -2.797578704157949 35.18714557733011
-3.989289889382927 8.628538070962483 6.275483676232715
1.859901096578693 -6.941245389484692 35.75391309054785
-8.794555824008155 3.716798958583409 5.74686246037658
4.334140574888479 8.465248068984787 6.222633748177913
-0.81626593542944 7.421786673107959 32.19067172365451
9.382683631712307 2.766446906482207 2.769656072991337
9.387455800956847 -2.74757566174782 2.779062133105698
-5.231453414703861 -8.302799526358134 2.369835006014678
6.193035700985964 -5.740069362743734 19.77013869461361
-7.120838776359964 -1.097077300686618 35.5156952966417
5.251090932094695 -7.924302656451169 6.273862679043681
6.983431252626628 -5.472586181989645 14.32892722162729
4.048447705618137 6.231590727299842 32.63976850708224
5.170361888630177 -5.383650267786956 32.21864861051496
-0.8994442176434498 9.492429062753899 5.909061883193802
3.348155429463905 -1.25858485010587 38
-3.424538655541916 1.198343298997985 38
-0.9735187695367282 -3.769846287218908 38
0.8971355434587187 3.709604736111033 38
3.504667570332243 2.023420765151478 38
0.9390728452100694 0.5421739599706935 38
-0.8766149340458693 1.899392705076524 38
-1.112007426800433 -0.7563711933539721 38
-3.682388309721704 -2.150467341226938 38
-2.163157985319303 3.898600957772775 38
0.7198148560029831 -1.966328772196343 38
2.111563563619478 -3.92983748599538 38
-5.961406522715208 9.031957496229163 0
-5.96140652271524 -9.03195749622914 0
8.935881143994854 -3.209627415059868 31.83128104831302
8.622259865243404 3.210721483584408 35.56901948640535
9.560740229175035 3.210769427521803 24.32635413700642
9.70479363407347 -3.716355517672122 20.43117751032401
7.572575793799106 -4.09758946533286 43.0725261603211
-11.73088669374763 -1.940162152660217e-14 3.419408766471456
-2.93356341489342 11.36350050067426 3.353765747894174
-7.290541649137687 1.984803379761022 56.46779818220659
7.694330858993568 3.154194830285126 46.81285440877583
-2.550778283412737 -11.45591304092289 3.348636435899146
10.49497893106745 3.195253963268123 13.07967085456085
-1.949325425597162 -7.274981528814155 56.7762135102464
10.30028872730695 -3.761722649871375 13.14206888421812
-1.976212442307552 7.275357946767365 56.68260865122541
7.358006790879124 -3.190129739543207 50.57323636838945
7.525537753436183 9.008657493085222 3.324163033449048
4.712243512000845 -10.74283313214679 3.419408766471714
-9.257317901175377 7.20525973842184 3.419408766471709
-9.257317901175359 -7.205259738421862 3.419408766471709
7.037746588842867 3.184812749282433 54.32125868882564
11.10107250334919 -3.225331996075627 5.589093889147453
4.860641625241934 -5.775290174685608 56.56170290324955
11.10107250334962 3.22533199607392 5.589093889148325
8.302498260544249 3.219399699765722 39.32785339379618
6.767990550768168 6.028531846019131 37.31046639484082
7.1561374373903 6.029827549225469 33.57185725044894
4.459516505363632 8.07916914395812 35.2186546684297
4.03726469586814 7.96948964214527 38.96012839271994
4.877740297785107 8.178981872165188 31.4728916166187
7.520309771481806 6.052851286960895 29.81378956583192
5.277334135415425 8.280104071247269 27.71377373905037
1.923148430858776 9.49895701911773 29.32997136373502
2.464358994756387 9.680334675724991 25.55101784553294
-1.103463566948654 9.80808709383358 27.06466390609456
-0.5956968721073074 10.14822986869925 23.30701150773297
-3.982604614699079 9.229425708488868 24.75122265255619
-4.40212492057993 8.707793630796385 28.49655016365561
-3.553124035786846 9.718833925803832 20.99106814265381
-6.570573797032475 7.854840132300438 22.35463580261689
-6.253481667766271 8.480387363219215 18.59241302623172
-8.665669585966803 5.814376506269245 19.87816128611652
-8.8118071220996 5.018929650410747 23.622263861378
-10.04801131282863 2.447857024148282 21.06837938141427
-9.929237850984048 1.548383401381416 24.78673642794851
-10.18091864893847 -1.242852275936011 22.15327163310771
-9.737143862762657 -2.122814665780092 25.84623298060024
-9.015913597590666 -4.724573926518793 23.14033575231139
-8.222622840338536 -5.497644949143086 26.79498012324179
-9.197202449421399 -3.009072282229524 29.51735401381464
-9.712632359766667 -3.902713115655338 19.4735692795692
-7.659489634273101 -7.029596552183039 20.37696775713825
-3.108460018816291 10.18166752779877 17.20923716048111
-7.332394637012778 -6.204057620828051 30.43247349677862
-8.558227217383159 -3.862089403382325 33.17206625808665
-6.323319077861125 -6.84704837718311 34.04987777709021
-7.802784747782774 -4.688778697823762 36.80744187430816
-5.568695792453771 -8.09431811440656 27.63746084531024
-9.096661336310383 -1.22337936950202 35.84983521480454
-8.605894975505427 -2.241471304483646 39.47805456937944
-6.93250904852404 -5.449707920275151 40.42979322884231
-8.05187039335263 -3.033739004321929 43.14482714337586
-6.011723089674582 -6.057232799697049 44.03841944630597
-10.10124492618864 3.328350766599845 17.33808968193387
-8.663007553761998 0.5998598237039277 42.13693856384484
-8.588516489312555 -6.354532359063732 16.72443320626577
-5.844774745359044 -8.86427249187833 17.56308952470697
2.941860420317556 9.857248191706278 21.76726302345099
1.158669650468643 9.03210376952226 36.77023705870678
0.6933706929698074 8.78474499369918 40.50654184873146
-4.053644662027241 -7.759752545423802 41.23470420985013
-2.844165801744913 -7.982613764245725 44.80003447762223
-5.888564046916641 9.094015674331169 14.81499397023413
-7.382172758807954 -3.834128417944132 46.77821876145224
-6.969582184328739 -8.386510101814606 13.91935175143824
-3.665200507920996 -10.20588281799837 14.6875507943682
-2.350077137213913 -10.29472361075972 18.30259210460662
0.07553110968990209 -10.790865310309 15.36015418386934
-9.378847619607839 -5.690641384593466 13.08433190179717
-2.311248829162325 8.68984928207667 38.22076711079207
-2.639135406717508 10.62160768464617 13.41052532800753
1.435635350978262 -10.41164542148404 18.93024469472615
-0.4992510633867022 -8.686669944972206 41.9177071004563
3.79373459855749 -10.05438836810804 15.92966011599398
-2.757987307179771 8.249994504228161 41.94588238741866
0.2268866609168426 8.514846963692476 44.24466636791801
-3.191779749716208 7.77645302230333 45.66621804219201
-0.3424409564484934 8.224955519104729 47.87594907848778
0.8608134322278648 -8.380456574966457 45.43039258434479
2.495886955657835 -10.73870671259418 12.38932838377752
-3.694056164938622 7.232952242058065 49.27875684583398
-5.535450030340695 9.660184010117954 11.006765210722
-1.526336930167138 -8.052226267239824 48.33933574731471
0.4339958998891368 10.75222231364161 15.74327334070982
0.8872411807343293 11.02633383812585 11.91876990433474
3.899735232150885 10.16226858855371 14.16951202078918
-0.9954818056051791 -10.22920517479757 21.88605669909299
2.76310166827729 -9.8513478558078 22.47080313894162
-4.990185696266556 -9.94101287081771 11.14073637672548
-1.84588623745506 -8.787155483135971 38.38618284966641
1.886655669594991 -8.730264915261001 38.98521729892652
0.5410721387641145 -9.19155967954128 35.48244093734903
4.145568396504175 -8.175410302439332 36.00417561042057
2.950023836117683 -8.967850568601888 32.52022265272029
4.329004523104911 10.31183016319619 10.3726567507444
-8.270089244682614 7.295942834354392 12.34560694739109
-6.049435113366516 5.687507062443022 46.97208990597355
-5.428992488725052 7.03404349020901 39.57374848427829
-5.069747270990484 7.650882504657127 35.85507093009757
0.3716413363293406 -9.991023053004692 25.43867659330661
4.03324073990422 -9.10171135749216 25.98026041611122
5.982174370457127 -9.213810336214477 12.89073336617302
-8.926368026854707 4.161145818476097 27.33596197948327
-6.300501365310152 4.950362650008269 50.66420613310064
7.040122809903528 -8.070831683644185 16.39245551701516
2.198198588283567 -7.8478450458308 48.92025326624263
-0.818829390046811 -9.449261608988049 31.96025675374488
6.127522425289398 -8.146239110412097 22.95357159022817
7.111026085164046 -6.91872385323758 26.41031431670672
-7.549656475177702 5.042850996587743 37.11523124733927
-7.326574321198529 5.841928717013131 33.41059098966979
-7.822159920924947 2.486719779780418 48.18293683301264
1.358780479410735 11.28171290610576 8.090742999016728
6.9743612106411 8.525011746845724 12.52292840378263
6.562798032367787 8.468744823356717 16.34008388346227
3.12887778423924 7.735123082254223 46.45413632038139
2.099714689986831 7.76263522904963 50.2962590626429
5.010368951176321 -7.349413351349717 39.45515938593602
4.238420680522895 -7.258454086765489 45.67476929793043
4.927156738061048 -10.12718793168021 9.374829603413234
7.724279739093391 -8.149610525596739 9.802023923998254
1.18047787897672 -11.24083036530029 8.860729036336826
7.054616888814406 -5.803062735154809 36.40680156443097
-7.699837697730925 1.860065299637516 51.82451670827017
-0.3428510874283264 -7.913562912141503 51.82878249784659
-3.944806773720175 -6.927426028780874 51.18222809141462
7.486268535548584 8.468753366001522 8.852744863905293
3.371503342409563 -7.109057526627939 52.50178789568257
-8.125011275598029 7.883979281285977 8.62308171730044
-10.11000936921544 4.877092686233505 9.848611831787444
-5.113443496053126 10.22772513755488 7.182094268399173
-3.620614168645694 6.929570663550996 53.13192608227502
-5.230911528343735 5.427046204952969 56.70029261565299
-0.2764209289121197 7.800613248103184 53.2960574809453
1.816579166018117 7.315415645173059 56.70029261565298
5.056856414803113 -8.25682881401521 29.44911456719772
-8.930218856799199 2.511631928773117 34.60284784198793
-8.827055701852084 1.696372259440271 38.2637043724431
-7.750443780389103 4.117328639882669 40.96219950033299
6.474313839368746 -9.494828380337871 6.453402192066633
3.462750173233722 10.00262008976749 17.97878608577519
6.106301992634126 8.437765608772397 20.13287634160594
8.637159890356605 6.056929124173484 18.43337847764959
-3.347328415562879 -9.475274014786958 24.78789353244688
5.007461223649528 -9.191722646706621 19.47597515781388
5.699365468849359 8.357993765545501 23.93511693780794
-0.09916712240878499 10.46296064890472 19.52396554701501
7.924862414640606 -6.788065805585174 19.89004660729208
9.385186467205346 -5.092089630097272 16.80270890408975
5.879694935561798 -7.338292386419282 32.99467694286027
3.591089673844734 7.857163136165242 42.70657147691796
1.574023060690266 -9.585579553438988 29.04698050911528
-6.66057327018513 -7.605331416609971 24.01962713802963
8.939159099780769 3.201831944745365 31.82551795508443
7.977279881142592 3.242115591876951 43.06207537169645
7.665094419861371 -3.182708045379109 47.01808378493669
8.316348186140358 -3.169789971389326 39.38979460182681
7.369208621376822 3.164237160371063 50.5728871593084
2.084659053122953 -7.243572840188674 56.70038960242871
8.753290251111043 -6.585876031353457 13.28852259924919
-5.345356727469243 -5.306229458012984 56.77310623084348
-7.315382307578586 -1.816746427087778 56.70019150813178
-6.756053512940534 -3.88099370192657 53.47496043313234
-5.760160975062185 6.378327908988004 43.27313050817536
9.103581900824111 -3.615041720446022 28.01607553126607
9.543862853863963 -3.245777242835507 24.38709715418363
-6.933981761610343 7.131347321409828 26.0900482330313
3.077099808837167 -8.092545564478401 42.46643083408075
-4.655410230908504 -9.218889078357034 21.24897190123682
9.878638670053299 3.190145935112773 20.57172976301183
10.80596429120219 3.182970038162902 9.339095714118459
-9.737677903565029 0.6240718197189725 28.49169108418937
1.522364659214954 9.277103749593383 33.02109659154956
-1.86554288413902 9.09833692790696 34.46398730650069
-8.47531414603425 6.581642965062078 16.12736313122856
10.8023983141443 -3.225268777581443 9.229724530980288
7.864792131608759 6.09146869074313 26.07425478365716
-2.223438877486215 11.01755369025533 9.660915401282498
-9.46269295849685 -0.3017439701300796 32.17842913675231
-4.901866587110449 -6.634383711985187 47.66302087526135
-10.11893052210904 4.135984518513699 13.5757483365071
-11.04570229378027 1.417778117453126 10.97408873916896
-11.1241444567196 2.647147085938113 7.181921082719397
-11.28527931994659 -1.202941436116748 8.269054296552863
-10.8656181941605 -4.046164477190875 5.151995904481852
-8.847695656744817 -7.226128440774727 7.323848781406489
-6.939772849299122 -9.217087832009843 5.875931903523104
-10.82714394051288 0.5278252840059326 14.73917086308426
-3.115497476570217 -8.715448388138109 34.87143422231924
-5.229640263152236 -7.365231261708002 37.69883132096179
5.140043580034561 5.521525034236217 56.622763737726
-10.53955916729599 -0.3407720649125348 18.48667958375673
-10.29366463588529 -3.117544686562745 15.81414988758007
-1.294949615656123 -10.99434955358659 11.81234188937588
-8.389290466434943 -0.321119267333593 45.800353531327
9.251255925413759 3.207691907416395 28.06064660747617
-7.880977765812449 -1.786091514378094 49.79768210871775
6.059667810469477 5.927271619625639 44.76950999848624
5.481403254688127 6.062833914569921 48.62213112262966
6.380574006618952 6.009592391538848 41.10333985809993
8.227613386681865 6.107958874817013 22.27411661432084
5.299283605554569 5.8321892922704 52.34759739794782
7.03759725001755 -3.185082735785535 54.32157302866641
-4.386440564869988 -8.473881615827679 31.23333834518499
-2.153039029136757 -9.526522911724529 28.37560465105431
-7.11937660538018 6.525220326616389 29.76644410247238
-8.930190779802068 3.40979617710592 31.01548930385376
-11.07844094565738 3.830840236728569 3.531291521772172
9.480167587765068 -6.459705938411934 6.711869763525177
1.131937679155929 -11.68135689486795 3.35352546334882
-7.796539518917633 3.355283378519763 44.62582945454445
-6.433942319861685 9.815429035037143 3.351966923415254
4.488214955899196 10.84588135477766 3.330881111054233
0.8062451548362479 11.71199868361771 3.307214945615138
-4.771250776723305 8.174871654646743 32.20543957768486
-1.555418112633602 9.448706246322631 30.80143305507157
5.4448706571658 -6.018579708373646 49.35053740780478
10.21241057880971 3.107581119887502 16.83883671378939
-10.82904069505969 -2.18198203907798 12.11306243704524
9.282210415544268 6.140463112173986 11.06135220984365
8.933168127854586 6.139088784240783 14.74839696370825
-2.897317330173098 -10.95486373229127 8.493764356093445
9.672386059089398 6.067501565908564 7.395621358046155
-7.899979161008796 -7.912886612018402 10.40144731209247
10.2057721168325 -5.8146822200432 3.227485356437227
-6.553293041883128 -4.68613858002691 50.1082177617571
9.914881402607806 6.29262761858319 3.263337848972882
6.055163101500312 -6.126535124299131 43.02436214200029
8.733452378570876 -2.889738086058927 35.58857690392909
7.714595251605263 -5.79890128118807 29.84658859491528
8.033773104559421 -8.594522446817265 2.990223427871836
5.100719733101596 10.26435876927348 6.837623852811777
-6.291010219034097 4.55192957170541 53.80942920959694
-9.890750823364424 5.859543213562728 6.402168421973619
-10.21710604901414 -4.624394297428699 9.975473304131066
3.430126234234681 -10.96580552141809 6.483174171299474
-0.999779040201681 11.45536490015364 6.366945536215883
-6.345277297931435 -9.923592846785066 2.810553407270798
8.116102340362756 -6.168326294787622 22.94632728978354
-3.626286406178197 -6.820466480483968 54.32470733767266
-7.721740298503523 -0.8891513320684606 53.71212352649867
2.617716920624073 7.322551546312288 53.66608476339557
5.841543164577506 -5.29052961688291 52.33430258056747
-0.7472271538335833 -11.49132970280215 6.154905767394699
6.974283203917073 2.738681650490269 57.27029496481619
6.818876782247138 -3.132958185713934 57.12498708662163
10.42125197722616 -2.306573732326239 16.85527288830041
9.520320641007455 -5.85682461970829 10.44949298632567
11.46410595137761 2.734906707860012 2.721475900470036
11.46410595137739 -2.734906707861941 2.721475900467181
-0.3276914827224287 -7.692010784311012 54.64954284913402
-4.35530711485352 -10.68030404344423 5.918646620413151
7.78819945856058 -5.172834946989592 33.67703327991393
-7.815478025073531 8.512649027717144 5.638391453980566
-1.201845431813311 7.922886912290853 50.65297819566974
6.50475915709856 -5.323754050037014 45.67107836584796
6.929792522788655 -5.480450474366254 40.21503961159589
-6.286414415877529 -9.41340704443253 8.646483565153526
-11.19151833672801 -3.853912192044479 2.077470048225951
2.633898073030535 11.25369471867767 5.618506165343842
8.007198785866892 8.272761987146408 6.185353397973196
-3.701498499457172 0.7003160221705068 60
3.851738121937664 -0.931509262873081 60
-1.119158375460275 -3.801457693759516 60
1.269397997940749 3.570264453056938 60
2.100948066511433 -3.638948795261449 60
0.6201842895985421 -1.130840590299121 60
-1.762894954313782 -1.284003716926086 60
-3.967207069091672 -2.387823063885131 60
1.906222097854563 0.8343620008315338 60
4.041174800508617 2.235818364301867 60
-0.7050019238897451 1.138717118726257 60
-2.179815903366991 3.771498029878741 60
-0.4876666841246405 0.5266045384845852 45.58077290449156
0.5246755264409328 0.3350566803778547 52.90059838570973
0.5852620386171266 -3.536695715409703 42.79143399657898
-0.006925366327119153 -3.179797115413773 49.1497183998369
-1.778693991615293 -2.62907540586125 55.5852880714453
3.255516012262062 0.5043987815299359 48.79492752527302
3.764527338109538 0.4208652525767231 42.80984869733938
-0.4883714536515493 3.38734327645565 49.38815439489405
-0.6545162835692978 3.455885282318301 42.19512931875757
3.369322616750334 0.4916521623208275 56.03769920416193
-3.637927555230606 -1.4339956620876 42.66449180032672
-2.319996154038993 1.717481765467525 55.9530684690946
-3.460298749617334 -0.1721154245449237 50.38068384661931
3.056822856294721 -2.873105253934626 46.20111384858215
2.686482179825691 3.425076326831336 45.69100204988413
2.241620297676647 -3.247732390980954 54.38474482610405
-2.327372539573879 -3.94819556750489 45.75999572716364
1.094932481792823 3.687986293197126 55.07832149924742
-0.07081820154338136 -0.1318166930381726 41.49658775215888
-3.707435342794049 3.000832932573481 44.91601693751544
4.164762381307053 1.484684951853977 52.40465681921872
-4.418921601898262 -0.6095604605953518 46.51096750811321
3.1300986707668 4.114660308223204 41.9244421259774
4.103888072102953 -3.100540932298067 41.29388507580299
-2.96129457201636 3.128278250997467 52.38265236584803

CELLS 2819 12859
1 0
1 1
1 2
1 3
2 0 4
2 4 5
2 5 6
2 6 7
2 7 8
2 8 9
2 9 10
2 10 11
2 11 12
2 12 1
2 0 13
2 13 14
2 14 15
2 15 16
2 16 17
2 17 18
2 18 19
2 19 20
2 20 21
2 21 22
2 22 23
2 23 24
2 24 25
2 25 26
2 26 27
2 27 0
2 1 28
2 28 29
2 29 30
2 30 31
2 31 32
2 32 33
2 33 34
2 34 35
2 35 36
2 36 37
2 37 38
2 38 1
2 2 39
2 39 40
2 40 41
2 41 42
2 42 43
2 43 44
2 44 45
2 45 46
2 46 47
2 47 48
2 48 49
2 49 50
2 50 51
2 51 52
2 52 53
2 53 54
2 54 55
2 55 56
2 56 2
2 3 57
2 57 58
2 58 59
2 59 60
2 60 61
2 61 62
2 62 63
2 63 64
2 64 65
2 65 66
2 66 67
2 67 3
2 2 68
2 68 69
2 69 70
2 70 71
2 71 72
2 72 73
2 73 74
2 74 75
2 75 76
2 76 77
2 77 78
2 78 79
2 79 80
2 80 81
2 81 82
2 82 3
3 0 223 4
3 4 224 0
3 13 223 0
3 0 224 27
3 12 215 1
3 1 217 12
3 1 215 28
3 38 217 1
3 4 99 5
3 5 100 4
3 4 223 99
3 100 224 4
3 5 170 6
3 6 171 5
3 99 170 5
3 5 171 100
3 6 91 7
3 7 92 6
3 6 170 91
3 92 171 6
3 7 169 8
3 8 204 7
3 91 169 7
3 7 204 92
3 9 83 8
3 8 84 9
3 83 204 8
3 8 169 84
3 9 101 10
3 10 167 9
3 9 167 83
3 84 101 9
3 10 90 11
3 11 94 10
3 10 101 90
3 94 167 10
3 11 187 12
3 12 189 11
3 90 187 11
3 11 189 94
3 187 215 12
3 12 217 189
3 14 206 13
3 206 223 13
3 15 95 14
3 95 206 14
3 16 198 15
3 15 198 95
3 17 200 16
3 16 200 198
3 18 87 17
3 87 200 17
3 19 202 18
3 18 202 87
3 20 197 19
3 197 202 19
3 21 86 20
3 86 197 20
3 22 162 21
3 21 162 86
3 23 225 22
3 22 225 162
3 24 88 23
3 88 225 23
3 25 209 24
3 24 209 88
3 26 96 25
3 96 209 25
3 27 207 26
3 26 207 96
3 27 224 207
3 28 97 29
3 28 215 97
3 29 201 30
3 97 201 29
3 30 93 31
3 30 201 93
3 31 181 32
3 93 181 31
3 32 85 33
3 32 181 85
3 33 227 34
3 85 227 33
3 34 216 35
3 158 216 34
3 34 227 158
3 35 89 36
3 35 216 89
3 36 219 37
3 89 219 36
3 37 98 38
3 37 219 98
3 98 217 38
3 83 167 156
3 156 226 83
3 83 226 204
3 84 102 101
3 84 103 102
3 84 169 103
3 181 196 85
3 196 212 85
3 212 227 85
3 86 162 160
3 160 208 86
3 86 208 197
3 87 218 200
3 202 203 87
3 203 218 87
3 88 214 205
3 205 225 88
3 209 214 88
3 154 211 89
3 89 216 154
3 89 211 166
3 166 219 89
3 101 184 90
3 184 186 90
3 186 187 90
3 91 188 169
3 170 192 91
3 91 192 188
3 92 210 171
3 204 229 92
3 92 229 210
3 146 181 93
3 93 222 146
3 201 222 93
3 165 213 94
3 94 231 165
3 94 213 167
3 189 231 94
3 191 206 95
3 95 221 191
3 198 221 95
3 159 209 96
3 96 228 159
3 207 228 96
3 97 215 187
3 187 230 97
3 97 230 201
3 98 219 166
3 166 231 98
3 189 217 98
3 98 231 189
3 99 191 170
3 99 206 191
3 99 223 206
3 171 172 100
3 172 207 100
3 207 224 100
3 102 184 101
3 103 104 102
3 104 185 102
3 102 185 184
3 103 105 104
3 103 188 105
3 169 188 103
3 105 106 104
3 106 107 104
3 107 185 104
3 105 122 106
3 105 136 122
3 105 188 136
3 106 108 107
3 106 179 108
3 122 179 106
3 108 109 107
3 109 124 107
3 124 185 107
3 108 110 109
3 108 111 110
3 108 179 111
3 110 177 109
3 109 125 124
3 109 177 125
3 111 112 110
3 112 113 110
3 113 177 110
3 111 120 112
3 111 173 120
3 111 179 173
3 112 114 113
3 112 182 114
3 120 182 112
3 114 115 113
3 115 134 113
3 134 177 113
3 114 116 115
3 114 117 116
3 114 182 117
3 116 183 115
3 115 135 134
3 115 183 135
3 117 118 116
3 118 119 116
3 119 183 116
3 117 121 118
3 117 180 121
3 117 182 180
3 118 175 119
3 121 123 118
3 123 175 118
3 119 176 174
3 174 183 119
3 175 176 119
3 173 195 120
3 120 193 182
3 120 195 193
3 121 126 123
3 121 130 126
3 121 180 130
3 136 137 122
3 137 138 122
3 138 179 122
3 126 127 123
3 127 128 123
3 128 175 123
3 125 143 124
3 143 144 124
3 144 185 124
3 125 146 143
3 125 168 146
3 125 177 168
3 126 190 127
3 130 132 126
3 132 190 126
3 127 129 128
3 127 139 129
3 127 190 139
3 129 131 128
3 131 133 128
3 133 175 128
3 129 178 131
3 139 140 129
3 140 178 129
3 130 160 132
3 130 161 160
3 130 180 161
3 131 150 133
3 131 153 150
3 131 178 153
3 160 162 132
3 162 205 132
3 132 205 190
3 150 151 133
3 151 176 133
3 133 176 175
3 135 147 134
3 147 168 134
3 168 177 134
3 135 148 147
3 135 149 148
3 135 183 149
3 136 145 137
3 136 192 145
3 188 192 136
3 137 141 138
3 137 199 141
3 145 199 137
3 141 142 138
3 142 173 138
3 173 179 138
3 139 159 140
3 139 214 159
3 190 214 139
3 159 228 140
3 172 210 140
3 140 228 172
3 140 210 178
3 141 218 142
3 199 232 141
3 141 232 218
3 142 195 173
3 142 203 195
3 142 218 203
3 143 152 144
3 146 222 143
3 143 222 152
3 152 186 144
3 184 185 144
3 144 186 184
3 145 192 191
3 191 221 145
3 145 221 199
3 168 196 146
3 146 196 181
3 148 212 147
3 147 196 168
3 147 212 196
3 149 154 148
3 154 158 148
3 158 212 148
3 149 155 154
3 149 174 155
3 149 183 174
3 150 156 151
3 153 226 150
3 150 226 156
3 156 157 151
3 157 163 151
3 163 176 151
3 152 230 186
3 152 222 201
3 201 230 152
3 178 229 153
3 204 226 153
3 153 229 204
3 155 211 154
3 154 216 158
3 163 164 155
3 155 174 163
3 164 211 155
3 156 213 157
3 167 213 156
3 157 164 163
3 157 165 164
3 157 213 165
3 158 227 212
3 159 214 209
3 161 208 160
3 180 193 161
3 193 194 161
3 194 208 161
3 162 225 205
3 174 176 163
3 165 166 164
3 166 211 164
3 165 231 166
3 191 192 170
3 171 210 172
3 172 228 207
3 210 229 178
3 182 193 180
3 186 230 187
3 205 214 190
3 193 195 194
3 195 203 194
3 203 220 194
3 194 220 208
3 197 220 202
3 208 220 197
3 199 221 198
3 198 232 199
3 200 232 198
3 218 232 200
3 202 220 203
3 28 237 1
3 1 233 38
3 1 237 233
3 29 237 28
3 30 236 29
3 236 237 29
3 31 242 30
3 30 242 236
3 32 242 31
3 33 234 32
3 234 242 32
3 34 241 33
3 33 241 234
3 35 241 34
3 36 235 35
3 235 241 35
3 37 244 36
3 36 244 235
3 38 244 37
3 233 244 38
3 237 238 233
3 238 243 233
3 243 244 233
3 234 240 239
3 239 242 234
3 234 241 240
3 240 241 235
3 235 243 240
3 235 244 243
3 236 238 237
3 236 239 238
3 236 242 239
3 239 240 238
3 240 243 238
3 2 0 39
3 56 0 2
3 39 0 13
3 27 0 56
3 14 40 13
3 40 39 13
3 15 41 14
3 14 41 40
3 16 42 15
3 42 41 15
3 17 43 16
3 43 42 16
3 18 245 17
3 44 43 17
3 17 245 44
3 19 46 18
3 46 45 18
3 45 245 18
3 20 47 19
3 47 46 19
3 21 48 20
3 48 47 20
3 22 49 21
3 49 48 21
3 23 246 22
3 50 49 22
3 22 246 50
3 24 52 23
3 23 52 51
3 51 246 23
3 25 53 24
3 24 53 52
3 26 54 25
3 25 54 53
3 27 55 26
3 26 55 54
3 27 56 55
3 44 245 45
3 50 246 51
3 39 504 2
3 2 505 56
3 2 504 68
3 68 505 2
3 3 500 57
3 67 501 3
3 82 500 3
3 3 501 82
3 40 482 39
3 482 504 39
3 41 262 40
3 262 482 40
3 42 468 41
3 41 468 262
3 43 469 42
3 42 469 468
3 44 253 43
3 253 469 43
3 45 467 44
3 44 467 253
3 46 264 45
3 264 467 45
3 47 463 46
3 46 463 264
3 48 252 47
3 252 463 47
3 49 514 48
3 48 514 252
3 50 265 49
3 265 514 49
3 51 493 50
3 50 493 265
3 52 256 51
3 256 493 51
3 53 465 52
3 52 465 256
3 54 263 53
3 263 465 53
3 55 486 54
3 54 486 263
3 56 480 55
3 480 486 55
3 56 505 480
3 57 446 58
3 57 500 446
3 58 390 59
3 58 446 390
3 59 260 60
3 59 390 260
3 60 388 61
3 260 388 60
3 61 254 62
3 61 388 254
3 62 417 63
3 254 417 62
3 63 416 64
3 63 417 416
3 64 258 65
3 64 416 258
3 65 414 66
3 258 414 65
3 66 268 67
3 66 414 268
3 268 501 67
3 69 267 68
3 68 269 69
3 267 505 68
3 68 504 269
3 69 426 70
3 70 431 69
3 69 431 267
3 269 426 69
3 70 257 71
3 71 259 70
3 70 426 257
3 259 431 70
3 71 473 72
3 72 502 71
3 257 473 71
3 71 502 259
3 73 250 72
3 72 425 73
3 250 502 72
3 72 473 425
3 73 249 74
3 74 421 73
3 73 425 249
3 73 421 250
3 75 420 74
3 74 451 75
3 249 451 74
3 420 421 74
3 76 247 75
3 75 409 76
3 247 420 75
3 75 451 409
3 76 248 77
3 77 484 76
3 76 484 247
3 76 409 248
3 77 270 78
3 78 412 77
3 248 270 77
3 412 484 77
3 79 251 78
3 78 410 79
3 251 412 78
3 270 410 78
3 79 255 80
3 80 411 79
3 79 411 251
3 79 410 255
3 81 261 80
3 80 413 81
3 255 413 80
3 261 411 80
3 81 266 82
3 82 458 81
3 81 458 261
3 81 413 266
3 266 500 82
3 82 501 458
3 247 485 420
3 484 508 247
3 247 508 485
3 248 271 270
3 248 272 271
3 248 409 272
3 425 456 249
3 432 451 249
3 249 456 432
3 403 404 250
3 250 494 403
3 404 502 250
3 421 494 250
3 411 511 251
3 251 512 412
3 251 511 483
3 483 512 251
3 252 439 438
3 438 463 252
3 252 440 439
3 252 514 440
3 253 467 386
3 386 492 253
3 253 492 469
3 254 488 379
3 379 496 254
3 388 488 254
3 254 496 417
3 410 453 255
3 255 454 413
3 453 454 255
3 465 499 256
3 256 507 493
3 499 507 256
3 426 475 257
3 257 476 473
3 475 476 257
3 258 506 414
3 416 495 258
3 495 506 258
3 404 415 259
3 259 502 404
3 415 503 259
3 259 503 431
3 387 388 260
3 260 389 387
3 260 390 389
3 261 472 411
3 458 498 261
3 261 498 472
3 468 487 262
3 262 516 482
3 487 516 262
3 263 486 395
3 395 491 263
3 263 491 465
3 463 489 264
3 264 509 467
3 489 509 264
3 265 441 440
3 440 514 265
3 265 442 441
3 265 493 442
3 413 457 266
3 266 457 446
3 446 500 266
3 431 464 267
3 464 480 267
3 480 505 267
3 268 414 383
3 383 498 268
3 268 498 458
3 458 501 268
3 269 478 426
3 269 482 478
3 269 504 482
3 271 455 270
3 270 455 410
3 272 273 271
3 273 274 271
3 274 455 271
3 272 275 273
3 272 276 275
3 272 409 276
3 273 314 274
3 275 428 273
3 273 428 314
3 314 315 274
3 315 406 274
3 406 455 274
3 276 277 275
3 277 278 275
3 278 428 275
3 276 432 277
3 409 451 276
3 276 451 432
3 277 279 278
3 277 401 279
3 277 432 401
3 279 280 278
3 280 471 278
3 278 471 428
3 279 281 280
3 279 313 281
3 279 401 313
3 281 282 280
3 282 283 280
3 283 471 280
3 281 284 282
3 281 402 284
3 313 402 281
3 282 422 283
3 284 285 282
3 285 422 282
3 422 461 283
3 461 470 283
3 470 471 283
3 284 286 285
3 284 298 286
3 284 402 298
3 286 287 285
3 287 288 285
3 288 422 285
3 286 430 287
3 298 318 286
3 318 430 286
3 287 289 288
3 287 309 289
3 287 430 309
3 289 290 288
3 290 358 288
3 358 422 288
3 289 291 290
3 289 447 291
3 309 447 289
3 291 292 290
3 292 427 290
3 290 427 358
3 291 293 292
3 291 296 293
3 291 447 296
3 293 294 292
3 294 295 292
3 295 427 292
3 293 408 294
3 296 297 293
3 297 408 293
3 294 299 295
3 294 303 299
3 294 408 303
3 299 300 295
3 300 434 295
3 295 434 427
3 296 311 297
3 296 448 311
3 447 448 296
3 311 312 297
3 312 424 297
3 297 424 408
3 298 326 318
3 298 339 326
3 298 402 339
3 299 301 300
3 299 459 301
3 303 459 299
3 301 302 300
3 302 304 300
3 304 434 300
3 301 445 302
3 444 445 301
3 301 459 444
3 302 305 304
3 302 306 305
3 302 445 306
3 303 408 399
3 399 460 303
3 303 460 459
3 305 393 304
3 304 393 392
3 392 434 304
3 306 307 305
3 307 310 305
3 310 393 305
3 306 308 307
3 306 316 308
3 306 445 316
3 308 319 307
3 307 450 310
3 319 450 307
3 316 317 308
3 317 435 308
3 308 435 319
3 430 436 309
3 436 443 309
3 443 447 309
3 310 394 393
3 310 466 394
3 450 466 310
3 311 320 312
3 311 324 320
3 311 448 324
3 320 321 312
3 321 322 312
3 322 424 312
3 313 397 396
3 396 402 313
3 313 401 397
3 314 325 315
3 314 429 325
3 428 429 314
3 325 330 315
3 330 331 315
3 331 406 315
3 316 328 317
3 316 345 328
3 316 445 345
3 328 334 317
3 334 338 317
3 338 435 317
3 326 337 318
3 337 351 318
3 351 430 318
3 435 481 319
3 319 452 450
3 319 481 452
3 320 344 321
3 324 479 320
3 320 479 344
3 321 323 322
3 321 449 323
3 344 449 321
3 323 327 322
3 327 342 322
3 342 424 322
3 323 329 327
3 323 335 329
3 323 449 335
3 448 474 324
3 474 490 324
3 324 490 479
3 325 353 330
3 325 354 353
3 325 429 354
3 326 433 337
3 339 340 326
3 340 433 326
3 329 400 327
3 327 343 342
3 327 400 343
3 328 423 334
3 345 346 328
3 346 423 328
3 335 357 329
3 357 360 329
3 360 400 329
3 330 332 331
3 330 419 332
3 353 419 330
3 332 333 331
3 333 371 331
3 371 406 331
3 332 336 333
3 332 352 336
3 332 419 352
3 336 510 333
3 333 372 371
3 333 510 372
3 334 361 338
3 334 374 361
3 334 423 374
3 335 375 357
3 335 377 375
3 335 449 377
3 352 359 336
3 359 387 336
3 387 510 336
3 337 384 351
3 337 386 384
3 337 433 386
3 361 380 338
3 380 381 338
3 381 435 338
3 339 341 340
3 339 396 341
3 339 402 396
3 341 350 340
3 350 368 340
3 368 433 340
3 341 369 350
3 341 370 369
3 341 396 370
3 343 355 342
3 355 399 342
3 399 424 342
3 343 356 355
3 343 363 356
3 343 400 363
3 344 477 449
3 344 513 477
3 479 513 344
3 345 347 346
3 345 444 347
3 345 445 444
3 347 348 346
3 348 373 346
3 373 423 346
3 347 349 348
3 347 362 349
3 347 444 362
3 349 405 348
3 348 378 373
3 348 405 378
3 362 407 349
3 391 405 349
3 349 407 391
3 350 487 368
3 369 382 350
3 382 487 350
3 384 385 351
3 385 436 351
3 351 436 430
3 352 367 359
3 352 466 367
3 419 466 352
3 354 365 353
3 365 394 353
3 394 419 353
3 354 366 365
3 354 470 366
3 429 470 354
3 356 407 355
3 355 460 399
3 407 460 355
3 363 364 356
3 364 391 356
3 391 407 356
3 357 415 360
3 375 376 357
3 376 415 357
3 358 461 422
3 427 462 358
3 358 462 461
3 367 379 359
3 379 488 359
3 359 488 387
3 360 403 400
3 360 404 403
3 360 415 404
3 374 472 361
3 361 383 380
3 361 472 383
3 362 460 407
3 444 459 362
3 459 460 362
3 363 494 364
3 400 403 363
3 403 494 363
3 364 485 391
3 364 421 420
3 420 485 364
3 364 494 421
3 366 392 365
3 392 393 365
3 393 394 365
3 366 462 392
3 461 462 366
3 366 470 461
3 367 452 379
3 450 452 367
3 367 466 450
3 368 492 433
3 487 515 368
3 368 515 492
3 370 476 369
3 369 475 382
3 369 476 475
3 396 397 370
3 397 398 370
3 398 476 370
3 372 454 371
3 371 453 406
3 371 454 453
3 389 497 372
3 372 510 389
3 372 457 454
3 372 497 457
3 378 512 373
3 373 483 423
3 373 512 483
3 423 483 374
3 374 511 472
3 483 511 374
3 375 395 376
3 377 491 375
3 375 491 395
3 395 464 376
3 376 503 415
3 464 503 376
3 449 477 377
3 477 499 377
3 377 499 491
3 405 508 378
3 378 484 412
3 412 512 378
3 378 508 484
3 452 496 379
3 380 495 381
3 383 506 380
3 380 506 495
3 418 481 381
3 381 495 418
3 381 481 435
3 475 478 382
3 478 516 382
3 382 516 487
3 414 506 383
3 472 498 383
3 384 489 385
3 386 509 384
3 384 509 489
3 385 437 436
3 385 438 437
3 385 489 438
3 433 492 386
3 467 509 386
3 387 488 388
3 389 510 387
3 390 497 389
3 446 497 390
3 391 485 405
3 392 462 434
3 394 466 419
3 395 486 464
3 397 456 398
3 401 456 397
3 398 456 425
3 425 473 398
3 473 476 398
3 408 424 399
3 432 456 401
3 485 508 405
3 453 455 406
3 410 455 453
3 472 511 411
3 454 457 413
3 417 418 416
3 418 495 416
3 417 496 418
3 452 481 418
3 418 496 452
3 426 478 475
3 434 462 427
3 428 471 429
3 429 471 470
3 431 503 464
3 437 443 436
3 438 439 437
3 439 474 437
3 437 474 443
3 438 489 463
3 440 490 439
3 439 490 474
3 441 490 440
3 442 513 441
3 479 490 441
3 441 513 479
3 493 507 442
3 507 513 442
3 443 448 447
3 443 474 448
3 457 497 446
3 464 486 480
3 491 499 465
3 469 515 468
3 468 515 487
3 492 515 469
3 477 507 499
3 477 513 507
3 482 516 478
3 57 526 3
3 3 518 67
3 3 526 518
3 58 526 57
3 59 520 58
3 520 526 58
3 60 528 59
3 59 528 520
3 61 528 60
3 62 517 61
3 517 528 61
3 63 524 62
3 62 524 517
3 64 524 63
3 65 519 64
3 519 524 64
3 66 521 65
3 65 521 519
3 67 521 66
3 518 521 67
3 517 524 523
3 523 527 517
3 527 528 517
3 518 522 521
3 518 525 522
3 518 526 525
3 521 522 519
3 522 523 519
3 523 524 519
3 525 526 520
3 520 527 525
3 520 528 527
3 522 527 523
3 525 527 522
4 332 333 536 543
4 332 543 536 548
4 527 525 522 538
4 332 537 331 543
4 332 537 543 548
4 394 234 537 548
4 316 531 235 539
4 394 539 234 548
4 332 331 333 543
4 234 32 394 537
4 534 544 261 549
4 498 534 532 544
4 235 35 316 539
4 527 538 522 540
4 525 538 527 546
4 234 242 32 537
4 498 261 534 544
4 234 539 537 548
4 498 261 472 534
4 498 472 532 534
4 394 537 419 548
4 454 536 534 549
4 359 352 536 548
4 522 538 533 540
4 394 310 234 539
4 359 536 541 548
4 316 328 235 531
4 523 527 522 540
4 381 533 532 541
4 457 546 536 549
4 532 534 472 542
4 380 532 533 544
4 394 310 539 548
4 316 531 539 545
4 481 532 435 545
4 532 534 530 544
4 36 235 328 531
4 496 540 533 541
4 36 235 316 328
4 457 536 454 549
4 532 533 530 541
4 530 544 534 549
4 234 310 33 539
4 381 380 532 533
4 261 472 534 542
4 530 534 532 536
4 394 310 33 234
4 457 497 536 546
4 523 522 533 540
4 35 36 235 316
4 255 535 534 543
4 533 538 522 544
4 235 241 35 539
4 530 533 532 544
4 394 33 32 234
4 423 37 36 531
4 458 261 544 549
4 334 532 542 545
4 316 317 531 545
4 359 541 536 553
4 306 316 35 539
4 538 540 527 546
4 454 534 536 543
4 529 536 543 548
4 316 539 308 545
4 540 541 496 553
4 530 536 532 541
4 532 534 529 536
4 359 367 352 548
4 417 533 496 540
4 359 541 367 548
4 520 525 527 546
4 533 538 530 540
4 536 546 530 549
4 334 532 361 542
4 37 244 36 531
4 457 372 454 536
4 317 328 316 531
4 336 332 536 548
4 359 352 336 536
4 334 542 531 545
4 534 535 79 542
4 381 418 533 541
4 234 537 539 547
4 372 457 497 536
4 346 37 36 423
4 31 330 353 537
4 532 536 529 541
4 419 353 330 537
4 423 36 328 531
4 241 306 35 539
4 481 381 532 541
4 37 531 423 552
4 235 240 539 547
4 255 79 534 535
4 381 495 380 533
4 336 536 352 548
4 435 481 381 532
4 529 543 537 548
4 338 532 334 545
4 308 316 306 539
4 458 81 261 549
4 497 389 536 546
4 417 524 533 540
4 380 533 506 544
4 533 540 530 541
4 336 332 333 536
4 536 546 389 553
4 238 236 547 551
4 334 338 361 532
4 236 239 238 547
4 417 517 524 540
4 394 466 310 548
4 498 532 383 544
4 418 496 533 541
4 244 531 37 552
4 234 239 537 547
4 518 538 501 544
4 481 435 319 545
4 541 548 536 550
4 539 548 310 550
4 367 548 541 550
4 235 539 531 547
4 1 270 28 535
4 481 545 319 550
4 371 536 333 543
4 331 543 537 551
4 458 261 498 544
4 466 310 548 550
4 521 533 522 544
4 235 240 241 539
4 371 333 331 543
4 454 536 372 543
4 481 418 381 541
4 316 308 317 545
4 30 330 31 537
4 331 537 315 551
4 330 537 332 548
4 36 328 346 423
4 483 531 542 552
4 519 521 414 533
4 498 472 383 532
4 529 536 548 550
4 254 540 496 553
4 520 538 525 546
4 332 330 331 537
4 235 243 240 547
4 529 535 534 542
4 261 534 411 542
4 260 546 540 553
4 413 454 534 549
4 372 536 371 543
4 380 495 506 533
4 458 544 538 549
4 411 534 79 542
4 372 497 389 536
4 30 537 236 551
4 315 537 30 551
4 328 317 334 531
4 258 519 414 533
4 530 538 533 544
4 79 411 80 534
4 374 483 531 542
4 534 535 529 543
4 483 423 531 552
4 30 31 242 537
4 336 352 332 548
4 334 374 531 542
4 331 315 406 551
4 410 535 255 543
4 371 372 333 536
4 483 423 374 531
4 237 535 28 551
4 238 547 237 551
4 235 531 243 547
4 334 531 317 545
4 330 419 537 548
4 519 522 521 533
4 315 330 30 537
4 466 450 310 550
4 435 532 338 545
4 359 536 336 553
4 28 237 1 535
4 330 332 419 548
4 331 406 543 551
4 334 361 374 542
4 510 536 389 553
4 319 308 539 545
4 414 533 521 544
4 36 244 235 531
4 236 537 239 547
4 381 418 495 533
4 537 547 236 551
4 529 541 536 550
4 536 530 546 553
4 530 541 540 553
4 238 237 236 551
4 79 80 255 534
4 534 536 530 549
4 521 518 501 544
4 315 331 330 537
4 450 539 310 550
4 319 308 307 539
4 28 270 455 551
4 243 547 531 552
4 530 540 538 546
4 520 527 540 546
4 261 80 411 534
4 251 542 535 552
4 260 387 546 553
4 472 361 532 542
4 380 383 532 544
4 423 334 374 531
4 306 241 34 539
4 260 520 528 546
4 319 545 539 550
4 270 78 410 535
4 523 522 519 533
4 535 543 410 551
4 234 539 240 547
4 270 410 455 551
4 383 472 361 532
4 520 260 390 546
4 454 372 371 543
4 522 525 518 538
4 79 535 251 542
4 260 528 540 546
4 306 35 34 241
4 417 496 254 540
4 234 239 242 537
4 306 305 307 539
4 233 547 243 552
4 529 539 537 547
4 510 372 389 536
4 529 531 535 542
4 255 534 454 543
4 310 305 33 539
4 418 496 417 533
4 529 531 542 545
4 379 496 541 553
4 371 331 406 543
4 529 542 532 545
4 526 446 538 546
4 1 78 270 535
4 34 241 33 539
4 328 334 423 531
4 488 540 254 553
4 529 535 531 547
4 34 305 306 539
4 307 319 539 550
4 535 237 547 551
4 453 410 543 551
4 529 532 541 550
4 526 538 520 546
4 413 454 255 534
4 34 33 305 539
4 435 381 338 532
4 234 33 241 539
4 379 254 496 553
4 537 539 529 548
4 234 240 239 547
4 526 525 520 538
4 417 254 517 540
4 529 537 535 547
4 529 534 532 542
4 307 305 310 539
4 379 488 254 553
4 528 520 527 540
4 387 389 546 553
4 308 306 307 539
4 453 410 255 543
4 529 545 532 550
4 413 457 454 549
4 243 235 244 531
4 30 236 29 551
4 535 537 529 543
4 255 410 79 535
4 389 260 387 546
4 315 30 29 551
4 261 411 472 542
4 233 1 535 552
4 234 241 240 539
4 520 260 59 390
4 383 361 380 532
4 336 536 510 553
4 520 540 528 546
4 423 373 37 552
4 446 546 457 549
4 258 416 519 533
4 446 457 266 549
4 526 520 446 546
4 524 416 417 533
4 79 251 411 542
4 233 238 243 547
4 244 243 531 552
4 413 534 80 549
4 467 45 44 245
4 521 501 268 544
4 529 536 534 543
4 528 517 61 540
4 310 450 307 539
4 528 260 59 520
4 483 542 511 552
4 481 452 541 550
4 274 406 315 551
4 538 544 530 549
4 1 237 233 535
4 537 543 535 551
4 233 535 547 552
4 531 529 539 545
4 519 416 524 533
4 345 36 316 328
4 242 236 30 537
4 413 255 80 534
4 78 535 1 552
4 527 523 517 540
4 258 414 506 533
4 414 506 533 544
4 87 17 18 245
4 81 413 80 549
4 394 419 466 548
4 518 82 501 538
4 529 531 539 547
4 82 518 3 538
4 528 61 388 540
4 274 315 29 551
4 519 258 64 416
4 82 538 266 549
4 338 334 317 545
4 390 446 520 546
4 501 538 458 544
4 535 542 531 552
4 528 388 260 540
4 35 36 316 345
4 380 361 338 532
4 82 3 500 538
4 251 535 78 552
4 517 254 61 540
4 481 319 452 550
4 519 65 258 414
4 530 536 541 553
4 518 526 3 538
4 472 374 361 542
4 307 539 450 550
4 387 510 389 553
4 333 510 336 536
4 416 418 417 533
4 535 547 537 551
4 526 446 500 538
4 380 338 381 532
4 500 446 266 538
4 251 511 411 542
4 251 511 542 552
4 61 254 388 540
4 500 3 526 538
4 387 336 510 553
4 82 266 81 549
4 519 524 523 533
4 416 64 519 524
4 501 82 458 538
4 374 511 483 542
4 30 31 330 325
4 333 372 510 536
4 406 453 543 551
4 388 540 488 553
4 531 547 535 552
4 540 546 530 553
4 65 519 521 414
4 418 481 452 541
4 379 541 359 553
4 51 50 493 246
4 371 406 453 543
4 78 251 79 535
4 446 520 58 390
4 251 483 511 552
4 319 435 308 545
4 367 466 548 550
4 483 373 423 552
4 359 379 367 541
4 530 546 538 549
4 254 517 62 417
4 307 450 319 550
4 78 1 412 552
4 239 236 242 537
4 529 548 539 550
4 529 539 545 550
4 380 506 383 544
4 501 518 521 67
4 417 517 62 524
4 268 414 521 544
4 452 367 541 550
4 496 418 452 541
4 388 488 387 553
4 255 454 453 543
4 33 393 310 394
4 38 412 1 552
4 244 233 243 552
4 453 455 410 551
4 416 495 418 533
4 446 497 457 546
4 501 518 3 82
4 28 455 29 551
4 500 266 82 538
4 254 488 388 540
4 423 346 37 373
4 233 38 1 552
4 79 410 78 535
4 58 526 520 446
4 240 238 239 547
4 393 33 32 394
4 389 390 260 546
4 367 450 466 550
4 435 338 317 545
4 411 511 472 542
4 23 22 246 225
4 332 352 419 548
4 28 29 237 551
4 274 455 406 551
4 472 511 374 542
4 518 525 526 538
4 325 330 30 315
4 387 359 336 553
4 240 243 238 547
4 251 78 412 552
4 495 258 506 533
4 367 466 352 548
4 317 308 435 545
4 388 260 60 528
4 29 236 237 551
4 496 452 379 541
4 379 452 367 541
4 521 268 501 67
4 416 417 63 524
4 371 453 454 543
4 527 517 528 540
4 29 455 274 551
4 495 416 258 533
4 373 483 512 552
4 452 450 367 550
4 37 512 38 552
4 373 512 37 552
4 501 458 268 544
4 419 352 466 548
4 520 59 58 390
4 414 383 506 544
4 406 455 453 551
4 62 61 517 254
4 260 59 60 528
4 452 319 450 550
4 268 521 66 67
4 390 497 446 546
4 266 413 81 549
4 266 457 413 549
4 258 64 65 519
4 87 18 45 245
4 268 521 414 66
4 268 458 498 544
4 60 61 388 528
4 414 521 65 66
4 390 389 497 546
4 488 379 359 553
4 29 30 315 274
4 417 62 63 524
4 123 344 126 127
4 467 87 45 245
4 344 123 321 127
4 312 119 175 118
4 244 37 38 552
4 320 311 312 123
4 118 123 311 121
4 128 175 123 322
4 123 320 311 121
4 4 5 267 69
4 44 17 467 245
4 17 87 467 245
4 311 312 123 118
4 115 113 289 290
4 123 128 322 321
4 119 312 297 118
4 320 123 344 126
4 119 424 312 175
4 320 123 321 344
4 291 115 289 290
4 113 114 115 289
4 58 57 526 446
4 297 424 312 119
4 526 57 500 446
4 312 123 322 321
4 312 123 175 322
4 327 133 343 150
4 489 385 203 384
4 129 357 329 335
4 291 115 114 289
4 208 252 439 438
4 271 29 28 455
4 414 268 383 544
4 31 353 330 325
4 63 64 416 524
4 267 68 4 69
4 87 45 18 264
4 131 153 400 360
4 5 4 269 69
4 9 249 425 84
4 152 275 186 144
4 429 325 30 314
4 392 366 365 85
4 292 134 290 427
4 150 343 327 400
4 268 498 383 544
4 322 175 342 133
4 356 343 151 363
4 122 137 340 136
4 357 129 329 178
4 292 135 134 427
4 340 341 122 136
4 342 175 176 133
4 158 299 301 300
4 350 137 199 145
4 289 112 114 309
4 174 424 119 176
4 387 488 359 553
4 350 341 340 136
4 114 447 289 309
4 259 6 431 171
4 182 114 112 309
4 150 151 343 363
4 137 350 340 136
4 248 28 1 270
4 342 424 175 322
4 3 518 501 67
4 400 329 131 360
4 327 323 128 131
4 327 131 133 150
4 269 426 5 69
4 131 153 150 400
4 251 412 512 552
4 45 87 467 264
4 138 326 337 318
4 399 424 174 176
4 105 339 396 341
4 111 179 286 108
4 171 259 6 92
4 277 186 275 144
4 149 174 408 183
4 152 275 144 278
4 128 327 131 133
4 133 151 343 150
4 105 339 341 122
4 105 106 339 122
4 68 269 4 69
4 4 5 100 267
4 163 407 355 157
4 313 104 402 396
4 294 149 408 183
4 434 462 392 212
4 318 173 138 179
4 275 277 144 278
4 102 401 104 185
4 315 30 314 274
4 85 366 365 181
4 92 259 6 71
4 179 286 318 111
4 327 131 150 400
4 292 135 115 134
4 35 306 445 316
4 279 185 281 313
4 337 173 138 318
4 298 286 318 179
4 138 326 318 179
4 408 424 174 399
4 408 303 149 294
4 119 297 408 293
4 109 285 108 110
4 284 285 286 108
4 12 76 409 248
4 443 447 448 182
4 108 285 286 110
4 203 385 195 384
4 301 299 158 154
4 424 175 176 342
4 106 402 104 396
4 11 409 451 90
4 447 114 182 309
4 303 174 408 149
4 107 402 104 106
4 281 124 107 185
4 328 345 36 346
4 134 115 292 290
4 16 43 17 200
4 38 512 412 552
4 489 385 194 203
4 185 107 281 313
4 408 424 119 174
4 1 77 248 270
4 297 119 116 293
4 120 436 193 182
4 163 164 407 157
4 436 443 182 309
4 184 277 185 144
4 485 213 391 165
4 478 475 382 191
4 9 249 84 101
4 23 52 24 88
4 103 105 104 397
4 339 106 105 396
4 118 311 297 296
4 183 116 119 293
4 403 400 153 360
4 233 244 38 552
4 70 5 6 426
4 18 202 87 264
4 447 117 448 182
4 443 180 474 193
4 179 298 286 108
4 382 475 192 191
4 128 323 127 129
4 282 422 285 109
4 131 327 323 329
4 401 104 313 397
4 104 402 107 313
4 6 5 431 171
4 123 312 320 321
4 424 312 175 322
4 357 129 140 335
4 176 342 151 355
4 275 273 428 230
4 182 120 436 309
4 370 188 105 136
4 179 326 298 339
4 126 121 130 324
4 180 161 474 193
4 213 356 391 157
4 185 281 124 279
4 282 284 281 109
4 109 422 285 177
4 104 401 102 397
4 270 271 28 455
4 462 196 392 212
4 356 355 407 157
4 474 437 443 193
4 21 49 22 265
4 52 23 256 88
4 341 369 370 136
4 323 128 322 327
4 259 70 6 71
4 180 448 117 182
4 407 164 349 165
4 101 102 184 432
4 117 118 116 296
4 350 137 368 199
4 202 18 46 264
4 151 163 176 355
4 182 443 447 309
4 323 449 321 127
4 426 5 99 269
4 303 408 174 399
4 186 275 272 276
4 248 271 28 270
4 277 401 185 279
4 347 362 89 166
4 346 345 36 347
4 229 404 360 415
4 133 342 327 343
4 163 174 399 155
4 299 148 158 154
4 183 119 408 293
4 257 70 6 426
4 107 124 281 109
4 402 284 298 108
4 75 247 11 420
4 18 45 46 264
4 354 365 31 353
4 339 106 179 122
4 434 147 462 212
4 187 12 11 409
4 107 281 284 109
4 288 177 134 113
4 429 30 93 314
4 93 325 30 429
4 323 449 127 129
4 150 400 403 363
4 288 287 113 289
4 339 179 326 122
4 400 150 343 363
4 314 325 30 315
4 134 358 288 290
4 16 15 42 198
4 289 113 288 290
4 184 277 401 185
4 108 284 285 109
4 280 144 279 278
4 397 103 105 370
4 391 407 349 165
4 130 132 441 160
4 429 428 314 201
4 54 25 53 263
4 293 116 297 296
4 131 327 329 400
4 431 70 6 259
4 285 288 287 110
4 401 104 185 313
4 164 349 362 407
4 425 249 9 73
4 174 303 399 155
4 321 128 323 127
4 265 493 50 225
4 216 301 154 444
4 118 117 311 296
4 147 358 427 462
4 5 4 99 269
4 428 314 201 273
4 112 110 287 113
4 140 178 129 357
4 18 46 19 202
4 207 464 228 395
4 272 230 275 186
4 153 131 178 360
4 460 399 303 155
4 295 147 427 434
4 287 286 285 110
4 287 112 289 309
4 105 396 397 370
4 7 6 91 257
4 84 103 102 456
4 340 339 326 122
4 189 247 12 484
4 292 183 294 293
4 484 247 12 76
4 430 436 120 309
4 312 311 297 118
4 291 292 115 290
4 137 340 138 122
4 154 299 303 459
4 403 226 150 363
4 8 9 425 84
4 6 170 257 426
4 323 322 128 321
4 350 382 369 145
4 340 341 339 122
4 121 126 320 324
4 402 107 108 106
4 47 19 46 463
4 443 437 436 193
4 117 448 180 121
4 134 358 177 288
4 447 296 114 291
4 114 447 291 289
4 370 397 103 398
4 138 326 179 122
4 299 303 149 154
4 279 144 277 278
4 169 188 103 398
4 294 135 292 295
4 342 176 399 355
4 116 114 117 296
4 271 274 29 455
4 355 151 163 157
4 158 148 299 300
4 399 460 163 155
4 397 456 103 398
4 284 286 298 108
4 188 370 369 136
4 329 178 131 360
4 433 326 138 340
4 355 342 151 343
4 429 222 470 471
4 279 401 185 313
4 431 267 5 69
4 76 11 12 409
4 46 463 202 264
4 295 294 149 299
4 293 292 115 291
4 353 31 354 325
4 230 275 273 272
4 23 51 256 225
4 108 298 402 106
4 407 460 163 355
4 101 102 432 456
4 134 358 290 427
4 103 84 169 398
4 370 105 396 341
4 409 11 187 90
4 248 409 12 215
4 342 133 151 343
4 408 294 183 293
4 303 155 149 154
4 84 103 456 398
4 277 185 144 279
4 440 490 441 160
4 436 351 430 120
4 52 24 88 465
4 129 128 323 131
4 310 393 33 305
4 288 287 110 113
4 135 292 295 427
4 437 474 161 193
4 135 115 183 292
4 301 154 444 459
4 487 350 199 145
4 151 355 356 157
4 106 179 298 339
4 451 409 11 75
4 216 302 301 445
4 249 10 451 101
4 436 443 193 182
4 12 1 77 248
4 112 287 430 309
4 108 107 284 109
4 108 179 298 106
4 286 430 318 111
4 327 322 342 133
4 340 138 433 137
4 111 430 120 112
4 286 111 108 110
4 110 287 111 112
4 426 70 5 69
4 124 282 281 109
4 286 430 111 287
4 116 118 297 296
4 177 288 110 113
4 348 347 346 219
4 247 11 12 76
4 339 402 106 396
4 340 326 138 122
4 473 8 425 169
4 448 180 443 182
4 448 474 180 324
4 298 318 326 179
4 275 152 428 278
4 116 114 296 291
4 196 462 147 212
4 462 427 147 434
4 170 6 5 426
4 292 115 183 293
4 327 128 322 133
4 341 350 369 136
4 285 109 177 110
4 479 320 126 324
4 281 280 124 279
4 23 51 52 256
4 344 321 449 127
4 177 422 285 288
4 91 473 7 257
4 122 341 105 136
4 298 402 106 339
4 422 109 125 177
4 284 282 285 109
4 249 425 84 456
4 283 282 280 125
4 144 124 280 279
4 296 293 116 291
4 185 104 107 313
4 341 370 105 136
4 432 249 101 456
4 164 460 163 407
4 113 112 114 289
4 123 128 321 127
4 451 249 101 432
4 349 347 348 219
4 456 425 84 398
4 402 281 107 313
4 471 428 152 278
4 102 401 432 456
4 102 101 84 456
4 249 9 10 101
4 175 123 312 118
4 247 12 11 189
4 114 116 115 291
4 162 21 514 86
4 275 186 277 276
4 320 123 126 121
4 433 340 137 368
4 305 34 304 227
4 128 175 322 133
4 444 216 301 445
4 151 355 343 356
4 115 116 183 293
4 220 489 194 203
4 284 402 107 108
4 135 294 149 295
4 91 476 473 257
4 131 129 178 329
4 428 429 222 201
4 90 409 451 276
4 393 392 85 304
4 113 115 134 290
4 253 17 87 467
4 365 394 32 353
4 156 356 151 363
4 111 430 173 120
4 117 448 296 447
4 130 479 126 324
4 447 114 117 182
4 430 111 287 112
4 102 184 401 185
4 24 52 53 465
4 200 43 17 253
4 102 401 456 397
4 173 318 351 430
4 311 117 448 296
4 469 200 16 198
4 396 313 104 397
4 424 297 408 119
4 354 181 470 93
4 176 163 399 355
4 311 448 121 324
4 463 19 46 202
4 34 304 227 302
4 329 357 178 360
4 274 29 314 273
4 311 117 118 121
4 318 337 173 351
4 121 448 180 324
4 124 280 282 125
4 130 121 180 324
4 21 49 265 514
4 396 104 105 397
4 102 103 104 397
4 284 402 281 107
4 192 476 188 91
4 177 358 422 288
4 253 218 386 467
4 182 112 120 309
4 391 349 405 165
4 469 16 42 198
4 362 460 164 407
4 131 323 129 329
4 181 146 470 93
4 50 22 265 225
4 175 119 424 176
4 143 124 280 144
4 106 104 105 396
4 12 189 484 217
4 19 47 20 197
4 178 229 360 415
4 449 477 344 127
4 358 134 147 427
4 184 186 90 276
4 273 97 272 271
4 163 460 399 355
4 169 188 476 91
4 256 51 493 225
4 169 8 425 84
4 362 211 89 166
4 432 277 184 276
4 86 252 440 208
4 68 4 0 505
4 6 5 70 431
4 23 256 88 225
4 184 90 101 432
4 44 17 253 467
4 103 188 105 370
4 391 356 407 157
4 401 277 184 432
4 335 129 323 329
4 34 306 302 445
4 304 33 393 305
4 181 365 31 354
4 445 444 35 345
4 4 0 504 68
4 195 194 385 203
4 403 153 404 360
4 392 365 393 85
4 432 90 451 276
4 280 124 143 125
4 8 7 502 204
4 33 34 305 227
4 422 282 283 125
4 94 11 247 420
4 433 138 326 337
4 471 429 222 428
4 195 142 203 384
4 304 85 33 227
4 385 436 437 193
4 471 143 280 278
4 200 17 87 253
4 142 138 141 433
4 138 141 433 137
4 143 471 152 278
4 430 351 173 120
4 168 125 461 146
4 176 399 424 342
4 432 184 90 276
4 176 342 133 151
4 200 16 43 469
4 283 143 280 471
4 305 304 33 227
4 180 474 448 443
4 207 486 464 395
4 474 161 180 130
4 136 350 369 145
4 7 6 257 71
4 190 344 477 127
4 473 169 476 91
4 305 304 34 302
4 179 318 173 111
4 42 15 41 468
4 303 149 294 299
4 150 156 151 363
4 249 84 101 456
4 425 473 169 398
4 250 8 502 204
4 193 443 180 182
4 84 425 169 398
4 248 1 28 215
4 75 11 10 420
4 42 43 16 469
4 282 281 280 124
4 118 297 119 116
4 88 256 52 465
4 121 320 311 324
4 144 280 143 278
4 136 137 350 145
4 252 439 440 208
4 228 172 464 207
4 174 119 408 183
4 368 487 350 199
4 463 197 19 202
4 6 170 91 257
4 37 373 348 378
4 154 303 155 459
4 144 185 124 279
4 87 218 253 467
4 137 340 350 368
4 12 77 76 248
4 265 22 21 162
4 369 192 136 145
4 475 476 192 91
4 201 428 273 230
4 5 100 267 431
4 134 288 113 290
4 386 492 218 253
4 129 323 449 335
4 464 172 228 395
4 32 393 365 85
4 360 357 178 415
4 188 370 476 369
4 306 34 35 445
4 183 294 135 292
4 296 114 117 447
4 14 41 15 95
4 134 135 147 427
4 304 434 392 212
4 169 188 398 476
4 283 280 143 125
4 144 143 152 278
4 169 473 7 91
4 148 299 149 154
4 147 135 295 427
4 85 33 393 304
4 163 399 174 176
4 196 168 461 146
4 141 433 137 368
4 92 171 503 210
4 212 304 434 300
4 190 126 344 127
4 94 10 11 420
4 89 347 166 219
4 337 142 351 384
4 451 101 90 432
4 92 6 7 71
4 282 422 109 125
4 362 460 211 164
4 461 366 196 146
4 44 17 43 253
4 249 451 10 74
4 109 124 282 125
4 10 11 451 90
4 404 229 259 415
4 225 256 88 205
4 475 476 91 257
4 398 473 169 476
4 507 256 493 205
4 7 92 502 204
4 295 147 434 148
4 347 362 166 349
4 126 513 132 190
4 10 9 249 74
4 484 77 12 217
4 272 187 230 186
4 316 445 35 345
4 50 22 49 265
4 420 94 10 167
4 232 218 492 253
4 401 184 102 432
4 129 449 127 139
4 301 158 300 302
4 181 196 366 146
4 201 314 29 273
4 168 134 147 358
4 87 218 200 253
4 283 461 422 125
4 293 115 116 291
4 357 376 210 415
4 186 272 187 276
4 3 57 500 526
4 482 478 516 206
4 101 10 451 90
4 68 0 2 505
4 224 56 0 505
4 287 112 113 289
4 157 407 391 165
4 99 478 191 170
4 425 9 8 73
4 272 409 187 276
4 26 55 27 207
4 19 47 197 463
4 31 32 365 181
4 12 1 248 215
4 174 303 155 149
4 504 0 2 68
4 139 449 377 335
4 188 370 398 476
4 225 493 256 205
4 502 92 259 404
4 459 211 444 362
4 181 366 365 354
4 30 29 314 274
4 142 138 433 337
4 480 27 55 207
4 92 229 259 404
4 157 356 151 156
4 448 117 311 121
4 314 93 429 201
4 34 302 216 445
4 42 468 469 198
4 295 299 148 300
4 444 154 211 459
4 477 449 377 139
4 250 72 8 73
4 433 141 142 386
4 224 0 4 505
4 431 5 70 69
4 471 222 143 152
4 30 93 314 201
4 147 168 358 462
4 304 392 85 212
4 277 184 186 144
4 440 439 490 160
4 409 187 12 215
4 257 473 7 71
4 337 142 173 351
4 273 274 29 271
4 0 4 504 223
4 192 369 382 145
4 303 460 155 459
4 478 191 206 99
4 420 94 167 213
4 301 299 154 459
4 148 434 295 300
4 473 425 8 72
4 125 283 461 146
4 5 99 170 426
4 514 265 21 162
4 71 92 259 502
4 93 470 354 429
4 460 211 459 362
4 85 392 196 212
4 183 294 149 135
4 460 163 155 164
4 456 103 102 397
4 227 304 85 212
4 404 502 92 204
4 93 222 470 429
4 32 31 365 353
4 248 271 272 215
4 478 191 516 206
4 126 132 479 130
4 354 325 93 429
4 140 357 376 210
4 431 5 100 171
4 140 375 357 335
4 470 146 283 471
4 180 474 130 324
4 147 295 135 148
4 15 468 198 95
4 366 181 470 354
4 257 6 70 71
4 287 111 286 110
4 375 228 376 395
4 87 218 467 509
4 492 141 433 386
4 288 285 177 110
4 212 227 304 300
4 222 471 428 152
4 337 433 142 386
4 369 192 188 136
4 370 103 188 398
4 257 170 475 426
4 492 218 232 141
4 213 485 391 364
4 32 393 394 365
4 186 184 277 276
4 73 9 8 83
4 112 430 120 309
4 228 140 375 376
4 368 137 141 199
4 39 13 0 223
4 129 449 139 335
4 213 167 420 364
4 504 39 0 223
4 173 318 430 111
4 192 476 475 369
4 171 100 431 464
4 164 407 157 165
4 29 201 273 97
4 138 142 173 337
4 429 93 222 201
4 149 135 295 148
4 373 346 37 348
4 409 76 11 75
4 473 7 8 169
4 71 7 92 502
4 142 337 386 384
4 167 421 420 364
4 461 366 146 470
4 484 38 378 412
4 75 10 74 420
4 468 42 15 198
4 377 375 140 335
4 187 90 186 276
4 218 232 200 253
4 314 29 30 201
4 451 11 10 75
4 232 469 515 198
4 76 247 11 75
4 56 2 0 505
4 214 88 209 465
4 34 306 305 302
4 200 43 253 469
4 275 428 152 230
4 462 461 366 196
4 358 168 134 177
4 358 168 461 462
4 8 250 73 83
4 421 167 494 364
4 490 130 441 160
4 73 249 9 74
4 366 462 196 392
4 213 485 94 165
4 141 492 218 386
4 168 461 422 358
4 299 149 295 148
4 214 88 507 205
4 14 40 41 262
4 362 166 349 164
4 50 493 246 225
4 206 482 478 99
4 8 250 83 204
4 468 15 41 95
4 143 283 146 471
4 221 487 516 95
4 392 196 366 85
4 228 486 207 395
4 171 431 503 464
4 391 356 213 364
4 156 226 83 494
4 190 214 507 205
4 140 376 172 210
4 479 132 441 130
4 431 100 267 464
4 143 283 125 146
4 13 40 14 206
4 95 516 191 206
4 438 197 252 463
4 440 160 86 208
4 357 140 178 210
4 139 377 140 335
4 1 12 77 217
4 99 482 478 269
4 90 187 409 276
4 192 188 476 369
4 40 13 39 482
4 199 232 515 198
4 344 479 320 126
4 204 404 250 403
4 222 470 146 93
4 91 170 475 257
4 146 283 461 470
4 503 92 210 415
4 97 29 28 271
4 85 196 366 181
4 160 440 439 208
4 404 92 229 204
4 35 216 444 445
4 216 35 34 445
4 140 129 139 335
4 212 434 147 148
4 489 463 202 220
4 157 391 213 165
4 202 463 489 264
4 225 493 442 162
4 393 32 33 85
4 154 89 216 444
4 192 382 191 145
4 170 475 192 91
4 156 83 167 494
4 211 460 155 164
4 39 0 2 504
4 13 39 482 223
4 88 214 499 465
4 98 348 405 378
4 363 403 226 494
4 504 482 39 223
4 11 247 189 94
4 27 56 0 224
4 228 140 376 172
4 56 27 55 480
4 366 181 146 470
4 365 32 85 181
4 252 208 197 438
4 190 513 132 205
4 209 88 24 465
4 357 375 140 376
4 53 263 209 465
4 229 404 153 360
4 24 53 25 209
4 30 31 325 93
4 376 172 464 395
4 467 218 386 509
4 125 461 422 168
4 54 26 25 96
4 483 251 512 552
4 210 92 229 415
4 480 224 27 207
4 428 201 152 230
4 473 8 7 72
4 246 22 50 225
4 48 20 47 252
4 195 173 142 351
4 426 99 478 269
4 168 422 125 177
4 502 72 8 250
4 12 77 484 76
4 159 499 214 465
4 464 172 100 207
4 166 362 211 164
4 100 171 172 464
4 265 442 493 162
4 349 166 405 165
4 148 212 434 300
4 507 88 256 205
4 166 348 405 98
4 348 166 219 98
4 348 346 37 219
4 302 158 34 216
4 157 213 356 156
4 325 31 354 93
4 262 14 40 206
4 47 252 197 463
4 97 273 29 271
4 350 487 382 145
4 369 475 192 382
4 232 200 469 198
4 209 24 53 465
4 97 272 271 215
4 159 491 499 465
4 492 232 469 515
4 216 301 158 154
4 209 159 214 465
4 440 160 162 86
4 385 436 195 351
4 444 89 345 347
4 22 265 225 162
4 205 225 442 162
4 158 34 227 302
4 487 468 262 95
4 405 231 508 485
4 512 378 38 412
4 89 444 362 347
4 263 25 53 209
4 164 166 349 165
4 218 142 141 386
4 160 132 441 162
4 190 507 513 205
4 72 425 8 73
4 515 199 198 221
4 505 68 4 267
4 98 37 348 378
4 142 195 351 384
4 463 489 438 220
4 228 96 263 159
4 172 171 503 464
4 88 256 214 507
4 73 421 9 83
4 40 13 482 206
4 74 451 10 75
4 78 77 1 270
4 96 263 159 209
4 480 100 224 207
4 345 89 36 347
4 486 464 480 207
4 464 100 480 207
4 146 470 222 471
4 161 437 193 194
4 161 439 474 437
4 153 204 226 403
4 444 89 35 345
4 161 439 437 194
4 231 94 485 165
4 262 516 95 206
4 504 269 482 223
4 153 404 204 403
4 154 211 89 444
4 25 54 96 263
4 487 262 516 95
4 462 147 168 196
4 198 468 515 221
4 36 346 347 219
4 36 35 89 345
4 208 197 438 220
4 358 422 168 177
4 9 10 421 74
4 354 31 181 93
4 71 473 7 72
4 161 130 490 160
4 225 265 493 162
4 159 491 375 377
4 250 421 73 83
4 98 38 37 378
4 385 436 193 195
4 171 503 259 92
4 264 87 467 509
4 162 514 440 86
4 37 348 219 98
4 126 344 513 190
4 205 442 132 162
4 211 155 460 459
4 346 36 37 219
4 20 48 21 86
4 170 478 475 426
4 195 173 351 120
4 438 197 463 220
4 505 4 224 267
4 55 26 54 486
4 178 357 210 415
4 130 441 479 490
4 301 158 302 216
4 97 230 273 272
4 227 212 158 300
4 442 493 225 205
4 189 247 508 485
4 508 247 189 484
4 221 198 468 95
4 41 262 468 95
4 54 96 263 486
4 10 421 74 420
4 41 14 262 95
4 10 9 421 167
4 439 161 208 194
4 226 156 150 363
4 420 94 213 364
4 508 231 189 485
4 504 269 4 68
4 480 267 100 464
4 505 224 56 480
4 351 195 385 384
4 482 262 40 206
4 226 156 363 494
4 405 348 166 349
4 172 503 171 210
4 252 20 47 197
4 213 356 156 364
4 87 218 509 203
4 436 193 195 120
4 230 273 201 97
4 231 405 166 165
4 170 99 478 426
4 259 431 503 171
4 145 199 487 221
4 513 132 479 126
4 489 264 509 203
4 10 421 420 167
4 263 491 228 159
4 499 214 256 507
4 95 14 262 206
4 363 156 356 364
4 375 140 159 377
4 13 482 206 223
4 193 437 385 194
4 73 9 421 74
4 377 214 477 139
4 490 479 130 324
4 145 487 382 221
4 269 99 482 223
4 220 202 489 203
4 486 96 263 395
4 441 265 440 162
4 504 4 269 223
4 92 503 259 415
4 263 96 25 209
4 1 77 78 412
4 468 487 221 95
4 100 224 4 267
4 264 489 202 203
4 209 263 491 465
4 145 382 191 221
4 513 477 507 190
4 222 143 146 471
4 178 229 153 360
4 492 232 515 199
4 477 214 507 190
4 167 213 156 364
4 259 229 92 415
4 404 250 502 204
4 442 132 513 205
4 486 96 228 207
4 484 189 508 217
4 190 477 214 139
4 212 148 158 300
4 168 461 462 196
4 487 368 515 199
4 439 161 160 208
4 516 191 221 95
4 433 141 492 368
4 28 271 248 215
4 152 275 230 186
4 202 463 197 220
4 263 228 491 395
4 246 51 23 225
4 218 142 386 203
4 35 216 89 444
4 514 21 48 86
4 507 442 513 205
4 160 441 440 162
4 437 439 438 194
4 246 493 51 225
4 27 56 224 480
4 351 436 195 120
4 214 477 499 377
4 265 514 440 162
4 203 142 386 384
4 130 474 161 490
4 172 376 228 395
4 349 166 347 219
4 499 256 88 465
4 4 99 269 223
4 210 229 178 415
4 222 428 201 152
4 140 159 377 139
4 347 89 36 219
4 256 214 499 88
4 210 376 503 415
4 491 375 228 159
4 348 166 349 219
4 494 167 156 364
4 267 100 224 480
4 159 499 491 377
4 490 130 474 324
4 403 83 226 494
4 440 514 252 86
4 224 505 267 480
4 228 96 486 395
4 167 9 421 83
4 438 385 437 194
4 438 439 208 194
4 132 442 441 162
4 344 477 513 190
4 250 83 403 494
4 83 250 421 494
4 94 189 231 485
4 516 262 482 206
4 385 193 194 195
4 386 509 203 384
4 96 54 26 486
4 442 265 441 162
4 228 375 491 395
4 486 480 55 207
4 503 376 172 464
4 375 140 228 159
4 405 166 98 231
4 20 252 86 197
4 94 420 485 364
4 230 97 187 272
4 48 20 252 86
4 99 206 482 223
4 247 94 420 485
4 8 7 72 502
4 474 439 161 490
4 344 513 479 126
4 468 487 515 221
4 487 191 382 221
4 515 469 468 198
4 491 159 209 465
4 213 94 485 364
4 439 161 490 160
4 484 378 38 217
4 378 405 98 508
4 438 489 385 194
4 252 514 48 86
4 271 28 97 215
4 515 368 492 199
4 444 211 89 362
4 98 508 189 217
4 493 442 507 205
4 55 26 486 207
4 159 263 491 209
4 516 191 382 487
4 204 229 404 153
4 516 191 487 221
4 72 7 71 502
4 159 214 499 377
4 247 189 94 485
4 96 228 263 395
4 509 218 386 203
4 214 499 477 507
4 172 376 503 210
4 421 167 83 494
4 508 231 98 189
4 438 489 194 220
4 155 211 154 459
4 377 159 214 139
4 156 363 494 364
4 203 509 489 384
4 208 86 252 197
4 441 132 479 513
4 132 441 442 513
4 484 508 378 217
4 199 515 487 221
4 49 21 48 514
4 26 96 486 207
4 378 98 38 217
4 97 187 272 215
4 98 378 508 217
4 194 208 438 220
4 231 98 405 508
4 191 382 478 516
4 537 419 32 394
4 353 32 419 394
4 537 353 32 419
4 537 31 32 353
4 537 32 31 242
4 540 524 523 517
4 540 523 524 533
4 551 270 535 28
4 551 535 270 410
4 544 518 522 521
4 544 522 518 538
4 549 82 458 81
4 549 458 82 538
4 80 549 261 81
4 261 549 80 534
4 553 260 388 540
4 553 388 260 387
4 550 532 481 545
4 550 481 532 541
4 547 237 233 238
4 547 233 237 535
4 549 446 538 266
4 549 538 446 546
4 191 475 170 478
4 191 170 475 192
4 127 477 139 449
4 127 139 477 190
4 217 77 38 484
4 217 38 77 1
4 412 38 77 484
4 412 77 38 1
4 37 512 378 38
4 378 512 37 373
4 403 150 153 400
4 403 153 150 226
4 83 403 204 250
4 204 403 83 226
4 300 227 302 158
4 300 302 227 304
4 165 405 485 231
4 165 485 405 391
4 409 215 272 187
4 272 215 409 248
4 264 203 87 509
4 87 203 264 202
4 253 232 469 492
4 253 469 232 200
4 492 199 141 232
4 141 199 492 368

CELL_TYPES 2819
1
1
1
1
3
3
3
3
3
3
3
3
3
3
3
3
3
3
3
3
3
3
3
3
3
3
3
3
3
3
3
3
3
3
3
3
3
3
3
3
3
3
3
3
3
3
3
3
3
3
3
3
3
3
3
3
3
3
3
3
3
3
3
3
3
3
3
3
3
3
3
3
3
3
3
3
3
3
3
3
3
3
3
3
3
3
3
3
3
5
5
5
5
5
5
5
5
5
5
5
5
5
5
5
5
5
5
5
5
5
5
5
5
5
5
5
5
5
5
5
5
5
5
5
5
5
5
5
5
5
5
5
5
5
5
5
5
5
5
5
5
5
5
5
5
5
5
5
5
5
5
5
5
5
5
5
5
5
5
5
5
5
5
5
5
5
5
5
5
5
5
5
5
5
5
5
5
5
5
5
5
5
5
5
5
5
5
5
5
5
5
5
5
5
5
5
5
5
5
5
5
5
5
5
5
5
5
5
5
5
5
5
5
5
5
5
5
5
5
5
5
5
5
5
5
5
5
5
5
5
5
5
5
5
5
5
5
5
5
5
5
5
5
5
5
5
5
5
5
5
5
5
5
5
5
5
5
5
5
5
5
5
5
5
5
5
5
5
5
5
5
5
5
5
5
5
5
5
5
5
5
5
5
5
5
5
5
5
5
5
5
5
5
5
5
5
5
5
5
5
5
5
5
5
5
5
5
5
5
5
5
5
5
5
5
5
5
5
5
5
5
5
5
5
5
5
5
5
5
5
5
5
5
5
5
5
5
5
5
5
5
5
5
5
5
5
5
5
5
5
5
5
5
5
5
5
5
5
5
5
5
5
5
5
5
5
5
5
5
5
5
5
5
5
5
5
5
5
5
5
5
5
5
5
5
5
5
5
5
5
5
5
5
5
5
5
5
5
5
5
5
5
5
5
5
5
5
5
5
5
5
5
5
5
5
5
5
5
5
5
5
5
5
5
5
5
5
5
5
5
5
5
5
5
5
5
5
5
5
5
5
5
5
5
5
5
5
5
5
5
5
5
5
5
5
5
5
5
5
5
5
5
5
5
5
5
5
5
5
5
5
5
5
5
5
5
5
5
5
5
5
5
5
5
5
5
5
5
5
5
5
5
5
5
5
5
5
5
5
5
5
5
5
5
5
5
5
5
5
5
5
5
5
5
5
5
5
5
5
5
5
5
5
5
5
5
5
5
5
5
5
5
5
5
5
5
5
5
5
5
5
5
5
5
5
5
5
5
5
5
5
5
5
5
5
5
5
5
5
5
5
5
5
5
5
5
5
5
5
5
5
5
5
5
5
5
5
5
5
5
5
5
5
5
5
5
5
5
5
5
5
5
5
5
5
5
5
5
5
5
5
5
5
5
5
5
5
5
5
5
5
5
5
5
5
5
5
5
5
5
5
5
5
5
5
5
5
5
5
5
5
5
5
5
5
5
5
5
5
5
5
5
5
5
5
5
5
5
5
5
5
5
5
5
5
5
5
5
5
5
5
5
5
5
5
5
5
5
5
5
5
5
5
5
5
5
5
5
5
5
5
5
5
5
5
5
5
5
5
5
5
5
5
5
5
5
5
5
5
5
5
5
5
5
5
5
5
5
5
5
5
5
5
5
5
5
5
5
5
5
5
5
5
5
5
5
5
5
5
5
5
5
5
5
5
5
5
5
5
5
5
5
5
5
5
5
5
5
5
5
5
5
5
5
5
5
5
5
5
5
5
5
5
5
5
5
5
5
5
5
5
5
5
5
5
5
5
5
5
5
5
5
5
5
5
5
5
5
5
5
5
5
5
5
5
5
5
5
5
5
5
5
5
5
5
5
5
5
5
5
5
5
5
5
5
5
5
5
5
5
5
5
5
5
5
5
5
5
5
5
5
5
5
5
5
5
5
5
5
5
5
5
5
5
5
5
5
5
5
5
5
5
5
5
5
5
5
5
5
5
5
5
5
5
5
5
5
5
5
5
5
5
5
5
5
5
5
5
5
5
5
5
5
5
5
5
5
5
5
5
5
5
5
5
5
5
5
5
5
5
5
5
5
5
5
5
5
5
5
5
5
5
5
5
5
5
5
5
5
5
5
5
5
5
5
5
5
5
5
5
5
5
5
5
5
5
5
5
5
5
5
5
5
5
5
5
5
5
5
5
5
5
5
5
5
5
5
5
5
5
5
5
5
5
5
5
5
5
5
5
5
5
5
5
5
5
5
5
5
5
5
5
5
5
5
5
5
5
5
5
5
5
5
5
5
5
5
5
5
5
5
5
5
5
5
5
5
5
5
5
5
5
5
5
5
5
5
5
5
5
5
5
5
5
5
5
5
5
5
5
5
5
5
5
5
5
5
5
5
5
5
5
5
5
5
5
5
5
5
5
5
5
5
5
5
5
5
5
5
5
5
5
5
5
5
5
5
5
5
5
5
5
5
5
5
5
5
5
5
5
5
5
5
5
5
5
5
5
5
5
5
5
5
5
5
5
5
5
5
5
5
5
5
5
5
5
5
5
5
5
5
5
5
5
5
5
5
5
5
5
5
5
5
5
5
5
5
5
5
5
5
5
5
5
5
5
5
5
5
5
5
5
5
10
10
10
10
10
10
10
10
10
10
10
10
10
10
10
10
10
10
10
10
10
10
10
10
10
10
10
10
10
10
10
10
10
10
10
10
10
10
10
10
10
10
10
10
10
10
10
10
10
10
10
10
10
10
10
10
10
10
10
10
10
10
10
10
10
10
10
10
10
10
10
10
10
10
10
10
10
10
10
10
10
10
10
10
10
10
10
10
10
10
10
10
10
10
10
10
10
10
10
10
10
10
10
10
10
10
10
10
10
10
10
10
10
10
10
10
10
10
10
10
10
10
10
10
10
10
10
10
10
10
10
10
10
10
10
10
10
10
10
10
10
10
10
10
10
10
10
10
10
10
10
10
10
10
10
10
10
10
10
10
10
10
10
10
10
10
10
10
10
10
10
10
10
10
10
10
10
10
10
10
10
10
10
10
10
10
10
10
10
10
10
10
10
10
10
10
10
10
10
10
10
10
10
10
10
10
10
10
10
10
10
10
10
10
10
10
10
10
10
10
10
10
10
10
10
10
10
10
10
10
10
10
10
10
10
10
10
10
10
10
10
10
10
10
10
10
10
10
10
10
10
10
10
10
10
10
10
10
10
10
10
10
10
10
10
10
10
10
10
10
10
10
10
10
10
10
10
10
10
10
10
10
10
10
10
10
10
10
10
10
10
10
10
10
10
10
10
10
10
10
10
10
10
10
10
10
10
10
10
10
10
10
10
10
10
10
10
10
10
10
10
10
10
10
10
10
10
10
10
10
10
10
10
10
10
10
10
10
10
10
10
10
10
10
10
10
10
10
10
10
10
10
10
10
10
10
10
10
10
10
10
10
10
10
10
10
10
10
10
10
10
10
10
10
10
10
10
10
10
10
10
10
10
10
10
10
10
10
10
10
10
10
10
10
10
10
10
10
10
10
10
10
10
10
10
10
10
10
10
10
10
10
10
10
10
10
10
10
10
10
10
10
10
10
10
10
10
10
10
10
10
10
10
10
10
10
10
10
10
10
10
10
10
10
10
10
10
10
10
10
10
10
10
10
10
10
10
10
10
10
10
10
10
10
10
10
10
10
10
10
10
10
10
10
10
10
10
10
10
10
10
10
10
10
10
10
10
10
10
10
10
10
10
10
10
10
10
10
10
10
10
10
10
10
10
10
10
10
10
10
10
10
10
10
10
10
10
10
10
10
10
10
10
10
10
10
10
10
10
10
10
10
10
10
10
10
10
10
10
10
10
10
10
10
10
10
10
10
10
10
10
10
10
10
10
10
10
10
10
10
10
10
10
10
10
10
10
10
10
10
10
10
10
10
10
10
10
10
10
10
10
10
10
10
10
10
10
10
10
10
10
10
10
10
10
10
10
10
10
10
10
10
10
10
10
10
10
10
10
10
10
10
10
10
10
10
10
10
10
10
10
10
10
10
10
10
10
10
10
10
10
10
10
10
10
10
10
10
10
10
10
10
10
10
10
10
10
10
10
10
10
10
10
10
10
10
10
10
10
10
10
10
10
10
10
10
10
10
10
10
10
10
10
10
10
10
10
10
10
10
10
10
10
10
10
10
10
10
10
10
10
10
10
10
10
10
10
10
10
10
10
10
10
10
10
10
10
10
10
10
10
10
10
10
10
10
10
10
10
10
10
10
10
10
10
10
10
10
10
10
10
10
10
10
10
10
10
10
10
10
10
10
10
10
10
10
10
10
10
10
10
10
10
10
10
10
10
10
10
10
10
10
10
10
10
10
10
10
10
10
10
10
10
10
10
10
10
10
10
10
10
10
10
10
10
10
10
10
10
10
10
10
10
10
10
10
10
10
10
10
10
10
10
10
10
10
10
10
10
10
10
10
10
10
10
10
10
10
10
10
10
10
10
10
10
10
10
10
10
10
10
10
10
10
10
10
10
10
10
10
10
10
10
10
10
10
10
10
10
10
10
10
10
10
10
10
10
10
10
10
10
10
10
10
10
10
10
10
10
10
10
10
10
10
10
10
10
10
10
10
10
10
10
10
10
10
10
10
10
10
10
10
10
10
10
10
10
10
10
10
10
10
10
10
10
10
10
10
10
10
10
10
10
10
10
10
10
10
10
10
10
10
10
10
10
10
10
10
10
10
10
10
10
10
10
10
10
10
10
10
10
10
10
10
10
10
10
10
10
10
10
10
10
10
10
10
10
10
10
10
10
10
10
10
10
10
10
10
10
10
10
10
10
10
10
10
10
10
10
10
10
10
10
10
10
10
10
10
10
10
10
10
10
10
10
10
10
10
10
10
10
10
10
10
10
10
10
10
10
10
10
10
10
10
10
10
10
10
10
10
10
10
10
10
10
10
10
10
10
10
10
10
10
10
10
10
10
10
10
10
10
10
10
10
10
10
10
10
10
10
10
10
10
10
10
10
10
10
10
10
10
10
10
10
10
10
10
10
10
10
10
10
10
10
10
10
10
10
10
10
10
10
10
10
10
10
10
10
10
10
10
10
10
10
10
10
10
10
10
10
10
10
10
10
10
10
10
10
10
10
10
10
10
10
10
10
10
10
10
10
10
10
10
10
10
10
10
10
10
10
10
10
10
10
10
10
10
10
10
10
10
10
10
10
10
10
10
10
10
10
10
10
10
10
10
10
10
10
10
10
10
10
10
10
10
10
10
10
10
10
10
10
10
10
10
10
10
10
10
10
10
10
10
10
10
10
10
10
10
10
10
10
10
10
10
10
10
10
10
10
10
10
10
10
10
10
10
10
10
10
10
10
10
10
10
10
10
10
10
10
10
10
10
10
10
10
10
10
10
10
10
10
10
10
10
10
10
10
10
10
10
10
10
10
10
10
10
10
10
10
10
10
10
10
10
10
10
10
10
10
10
10
10
10
10
10
10
10
10
10
10
10
10
10
10
10
10
10
10
10
10
10
10
10
10
10
10
10
10
10
10
10
10
10
10
10
10
10
10
10
10
10
10
10
10
10
10
10
10
10
10
10
10
10
10
10
10
10
10
10
10
10
10
10
10
10
10
10
10
10
10
10
10
10
10
10
10
10
10
10
10
10
10
10
10
10
10
10
10
10
10
10
10
10
10
10
10
10
10
10
10
10
10
10
10
10
10
10
10
10
10
10
10
10
10
10
10
10
10
10
10
10
10
10
10
10
10
10
10
10
10
10
10
10
10
10
10
10
10
10
10
10
10
10
10
10
10
10
10
10
10
10
10
10
10
10
10
10
10
10
10
10
10
10
10
10
10
10
10
10
10
10
10
10
10
10
10
10
10
10
10
10
10
10
10
10
10
10
10
10
10
10
10
10
10
10
10
10
10
10
10
10
10
10
10
10
10
10
10
10
10
10
10
10
10
10
10
10
10
10
10
10
10
10
10
10
10
10
10
10
10
10
10
10
10
10
10
10
10
10
10
10
10
10
10
10
10
10
10
10
10
10
10
10
10
10
10
10
10
10
10
10
10
10
10
10
10
10
10
10
10
10
10
10
10
10
10
10
10
10
10
10
10
10
10
10
10
10
10
10
10
10
10
10
10
10
10
10
10
10
10
10
10
10
10
10
10
10
10
10
10
10
10
10
10
10
10
10
10
10
10
10
10
10
10
10
10
10
10
10
10
10
10
10
10
10
10
10
10
10
10
10
10
10
10
10
10
10
10
10
10
10
10
10
10
10
10
10
10
10
10
10
10
10
10
10
10
10
10
10
10
10
10
10
10
10
10
10
10
10
10
10
10
10
10
10
10
10
10
10
10
10
10
10
10
10
10
10
10
10
10
10
10
10
10
10
10
10
10
10
10
10
10
10
10
10
