# vtk DataFile Version 2.0
whisker_body, Created by Gmsh 4.13.1 
ASCII
DATASET UNSTRUCTURED_GRID
POINTS 562 double
8.5 0 0
5.509335140664497 0 38
12 0 0
5.70386345403052 0 80
8.200933514066449 0 3.8
7.9018670281329 0 7.600000000000001
7.602800542199349 0 11.4
7.303734056265799 0 15.2
7.004667570332249 0 19
6.705601084398698 0 22.8
6.406534598465148 0 26.6
6.107468112531597 0 30.4
5.808401626598048 0 34.2
7.65823537717056 3.68801178249925 0
5.299663315799225 6.645567600978262 0
1.891427938628656 8.286887253545505 0
-1.89142793862869 8.286887253545498 0
-5.299663315799259 6.645567600978236 0
-7.658235377170581 3.688011782499204 0
-8.5 -5.935518276033327e-14 0
-7.658235377170531 -3.688011782499311 0
-5.299663315799171 -6.645567600978304 0
-1.891427938628608 -8.286887253545515 0
1.891427938628715 -8.28688725354549 0
5.299663315799263 -6.645567600978231 0
7.658235377170568 -3.688011782499232 0
4.22039556978615 3.541332366029788 38
0.9566860073327644 5.425635960469002 38
-2.754667570332252 4.771224189777766 38
-5.177081577118924 1.884303594439208 38
-5.177081577118923 -1.884303594439214 38
-2.754667570332255 -4.771224189777764 38
0.9566860073327692 -5.425635960469001 38
4.220395569786153 -3.541332366029784 38
11.34980690040761 3.896393630456207 0
9.469686112756717 7.370552552276022 0
6.563377897469113 10.04599773915035 0
2.945825845689581 11.63280319127197 0
-0.9909521456679979 11.95901391608004 0
-4.820345095835646 10.98927991986068 0
-8.127378859508902 8.82868692807757 0
-10.55368501447787 5.71136871644487 0
-11.83633564083267 1.975135083368787 0
-11.83633564083267 -1.975135083368821 0
-10.55368501447786 -5.711368716444897 0
-8.12737885950888 -8.828686928077589 0
-4.820345095835619 -10.9892799198607 0
-0.9909521456679715 -11.95901391608004 0
2.945825845689616 -11.63280319127196 0
6.563377897469155 -10.04599773915032 0
9.469686112756747 -7.370552552275983 0
11.34980690040762 -3.896393630456205 0
4.369412903269498 3.666372755594688 80
0.9904654944534007 5.617208951652248 80
-2.851931727015263 4.939690650908082 80
-5.359878397722907 1.950836196057551 80
-5.359878397722898 -1.950836196057576 80
-2.851931727015253 -4.939690650908087 80
0.9904654944534206 -5.617208951652245 80
4.369412903269518 -3.666372755594664 80
11.70018397400145 0 3.80952380952381
11.40036794800291 0 7.61904761904762
11.10055192200436 0 11.42857142857143
10.80073589600581 0 15.23809523809524
10.50091987000727 0 19.04761904761905
10.20110384400872 0 22.85714285714286
9.901287818010173 0 26.66666666666667
9.601471792011626 0 30.47619047619048
9.301655766013079 0 34.28571428571429
9.001839740014532 0 38.0952380952381
8.702023714015986 0 41.90476190476191
8.402207688017439 0 45.71428571428572
8.102391662018892 0 49.52380952380953
7.802575636020347 0 53.33333333333334
7.502759610021799 0 57.14285714285715
7.202943584023253 0 60.95238095238096
6.903127558024707 0 64.76190476190476
6.603311532026159 0 68.57142857142858
6.303495506027613 0 72.38095238095238
6.003679480029065 0 76.1904761904762
6.065497145703564 -3.204635953419135 20.83785420602795
6.065497145706958 3.204635953412093 20.83785420603161
-8.03554432952007 -1.834060556385795 3.275744402997614
-5.762035391324629 -4.412069668266954e-15 34.7891388782297
-3.379428033851598 7.517972146910663 3.270589217275573
5.391941219994039 3.18498295365833 28.43191829082987
5.39194121999398 -3.184982953658433 28.43191829082986
6.727609899407986 -3.219222192671223 13.23785287252226
6.739353838675357 3.22160556971012 13.09016977641429
0.4783432227581481 -8.226365795259635 3.300292989164432
3.576153658104325 7.425959588484098 3.275744402997973
-1.086658389477928 -5.659686655152304 34.77609912655264
-0.9109160748050757 5.673654350222103 34.98890119684756
7.389181815472853 -3.19159085167121 5.730609575285854
7.379020350887165 3.231437073333061 5.647082552646321
5.731392602220376 -3.194225225183771 24.63228143188909
3.682023197551315 -5.628114941836368 22.54657239210587
4.101200187755516 -5.702532359364101 18.75242054286511
0.8175650956278471 -6.850015424871815 20.34730917313014
1.29664964258145 -7.076495201268277 16.59037483536718
-2.186633795447806 -6.732917594168588 18.05434514057449
-2.67246154562269 -6.237643379477635 21.77801396038334
-1.735487394586087 -7.16637493564803 14.31324327106033
-4.826680451170935 -5.432983456976203 15.66249786559182
-4.488989629293553 -6.08312351199267 11.94230338835031
-6.741143695045292 -3.202394214033014 13.17465047814756
-6.770835460151718 -2.367043404474216 16.86540434239733
-7.368407534440919 0.3383154652465001 14.27961141694156
-6.975345159985745 1.264205496364414 17.92869269827893
-6.244386033623826 3.782703942813374 15.23769370013392
-6.940241468713294 3.059272227663524 11.63130919641533
-4.666358620814091 5.895708158280994 12.46570237185833
-3.539748416516809 6.312316356536994 16.04706957461803
-1.290829635365313 7.350598944652786 13.17533236643096
0.09421852821455183 7.184734921481763 16.70417810366386
-2.266992704250034 6.576621764401992 19.6135635829538
-1.352117347482367 -7.550222131192131 10.54186308791559
-4.154268580635431 -6.664725096026223 8.215333270171664
-2.493944099004052 7.328495152561166 9.641122702571019
1.161588681331272 7.606430728725504 10.23340594147543
-6.724254434404584 -1.470146953703108 20.54478782380468
-6.449510097114013 2.163441222789284 21.56630561962013
-6.569573277820989 -0.5687813093458466 24.21612895971849
-5.784558170520416 3.002256900569262 25.19311810307264
-6.295395514252432 0.3770739098913851 27.86879635078978
-4.928430589794218 3.818100887201699 28.78760636200149
-3.176190930704829 5.617720352316285 26.00392870311055
-5.571747181713516 -3.135588923146877 26.76617445290648
-1.890040912779112 5.877815386170419 29.55186179618928
0.4740380143666766 6.385736165782242 26.64101262850176
1.477093386604709 6.749549808313903 20.21194285670326
3.902246084140111 6.002061979662593 17.03814066197117
-5.600662754319496 -2.343852662467939 30.85915667745142
-3.314935004501389 -5.248271903698445 29.12887630123288
-4.53821489982432 -3.563535409870691 34.68653058668122
-0.2870733300241685 7.965570758845528 6.724860043631288
1.984174292938092 5.815311057089158 29.92955824388286
2.381782685275133 5.263191064216849 34.59862165940439
3.385037550401778 7.170874407568869 7.246527306642845
4.565484912578054 6.147700704815349 10.70450442650276
-3.343978096511317 4.950837090470189 32.09129893335724
3.240074189883114 -5.551886227108162 26.32494604659643
2.832137733153976 -5.437367751279567 30.10430340565509
2.606577942027155 -5.152075681325505 34.63815236300034
5.283592633057723 3.947280339597805 24.20209470113189
7.0550847351737 -3.224208729108483 9.441780127980431
5.295433099754452 -5.885499080784353 7.406255168121699
4.890753560213298 -5.844519172632451 11.170226378494
4.487890991762862 -5.782915839714593 14.99255682136438
5.049491880756412 -3.17280636478341 32.22850398622597
7.055060002245741 3.22424898301439 9.44185335662722
5.883550537308485 4.075306152111066 17.06297881712811
6.391187530613602 -3.215842932260419 17.09437495068886
-3.113427636188054 -5.697391758194628 25.50658242680384
-5.394743513645762 -3.938193236435037 23.13459115553493
2.446975242820828 7.0040189901773 13.73334457186314
-5.154685854149345 -4.699687569994484 19.37038210064056
-6.59694134203899 -4.063287296144311 9.556349446447221
-6.561872129865974 -4.647023837748486 5.835849292087488
-3.608593364174658 -7.348245933187941 3.983486670918678
-7.835012954085928 -1.306627457649362 7.074593197166427
-7.90669762864874 1.831984041531689 4.877165458509747
5.033617864031519 3.21976464082848 32.0793731154827
-0.9324662716385134 6.609333612800178 23.19152753554645
-5.362474987285132 4.525575657629016 18.84449310125154
-4.344315983069025 5.141044016297156 22.48005688489386
-0.1697471025796032 -6.311180645958864 27.78258661174793
6.065950368299909 -5.555936255172279 3.483735568566932
0.309924734872011 -6.594145212584889 24.12368997560478
2.14472275371608 -7.48968340209427 9.012358800178971
1.764517071273172 -7.28260076297874 12.79112479149338
-7.63751935169631 -0.5714686753899353 10.68757943155379
2.638859719815105 6.09149398238291 23.65241129086635
-5.721192998664184 1.869582255801683 31.52512187520571
-0.6939113242860874 -7.940001142502814 6.730915866965512
-5.724215735391132 5.296548991778044 8.910571927362957
0.06897350391131858 8.258675934699838 3.062653391458424
-6.444357049543246 5.139203255467417 3.270042865940277
2.809568327655215 -7.562392641371384 5.496299479684231
-0.6362872065980639 -6.001342586445761 31.32105864293034
6.342106134064173 5.291282947028416 3.055345967319911
-7.588407044517294 1.973754942245841 8.374726601856356
-4.072658347427639 6.871320514460281 6.510788262472317
-6.483358843244083 -5.170306148062657 2.636191726718592
3.298885489911926 5.47780330200368 26.75356558828733
-4.345838928375678 3.719954450490389 35.31661080528711
5.866222915937599 5.313632619865011 7.433099334879819
-6.8716351065165 4.105877973921171 6.291493583697874
4.877099671540654 5.523301940711385 14.37864566186798
3.433245047475019 -7.556046467430584 2.548122596602068
-3.364453321296393 -4.929224110517678 32.17235259068593
4.897971560764659 2.982079018471028 35.14074810140757
5.027532895368914 -2.743311033879738 35.23063014260661
4.079640590111174 5.573892276749391 20.23629927547872
7.779358617306917 -2.823949807488267 2.845470562687005
7.812995698938869 2.74293309937655 2.789085955470347
-0.6682439713267033 5.942100727316861 32.02525507017542
-8.127426374681244 1.843789660251355 2.109943674271435
1.846678043039745 -7.401486830834377e-17 38
-1.91337201466555 -1.43215587042908e-15 38
-0.4783430036663876 2.712817980234497 38
-0.478343003666388 -2.7128179802345 38
-7.909740641739153 6.21840875699997 0
-7.909740641739112 -6.218408757000027 0
4.175073749396644 9.15281394623652 0
4.175073749396687 -9.152813946236499 0
7.852647972501897 3.36414767731799 43.92630108794973
9.187129548667874 -3.278832745751793 28.52929266660576
9.193385683973851 3.261669051936942 28.52751348170485
6.315693815576057 3.747663305890569 59.16127213825281
8.202598638317122 -3.339859944179266 39.94217221571743
7.258550611144684 -3.261603942001024 51.3625884277802
6.28168907922707 -3.217624949421028 62.79643657168234
-11.73088669374762 -1.940162152660214e-14 3.419408766471628
-2.858940525183844 11.36240770915753 3.60140782375581
-2.879762434608137 -11.37192468062312 3.419408766471416
10.22019901258657 2.983323608791865 17.19502836745328
10.13994097335968 -3.269426385055376 17.10264947107312
-4.569827600815146 3.834540654387735 76.67576704977424
5.450667959609136 4.023529128818872 66.39184880784762
8.556170864760963 3.26042061946302 36.13223697642573
5.61044116807096 -3.199497478681198 70.40984790038134
7.164186615473385 3.457827649537246 51.39650478584727
10.76679505192452 -3.273589817930735 9.485744271980062
10.44799619065241 4.180353730174583 9.488162967248714
4.49028386723253 10.84287601021214 3.356108953154178
4.760830161067659 -10.72916816123887 3.329074756097133
-9.257317901175377 7.20525973842184 3.419408766471709
-9.257317901175359 -7.205259738421862 3.419408766471709
-4.734710483815427 -3.606922258583172 76.84598676661814
5.174465279589285 3.349832671995456 74.15178871338107
2.887718507997581 -5.220182370260495 76.67342857979924
10.31700692552853 -5.583284939902473 3.41940876647138
10.26742582156673 5.731822287130231 3.062336497911574
8.254335837061502 3.20965508351747 39.9431356077598
6.941724485140153 -3.231594058344178 55.18214279968835
7.55442091123298 -3.325381040516056 47.59827547644049
7.89438733305947 -3.293044791867373 43.78960753009091
8.504276989594718 -3.379151809956674 36.1995655535712
8.85844653003381 -3.292364798754181 32.39460971492055
7.386665744908629 -6.155455027129658 30.30150176148513
6.24169309881289 -6.086106159310878 41.70475403649733
5.114798219822169 -5.916118930507204 53.10444231979357
7.765621487589446 -6.167498833624282 26.46956781329375
5.089167457022627 -8.356562844782834 28.15363034471178
5.521499711592031 -8.438633381984349 24.33851330945605
2.255952704267504 -9.700511213992653 25.92854161198906
7.055894148799437 5.626754329958217 37.80421028529809
1.757136485420454 -9.498188342802447 29.74073339027623
2.726189903559049 -9.891015108647458 22.11084505840078
-0.8184878821981257 -10.10801676771007 23.61955384802136
-0.3118634137517993 -10.43639518176641 19.80829036608681
-3.804568252200562 -9.602357330789919 21.23713341399902
-4.251338551667356 -9.08366850161295 25.04008318954758
-6.830915179052865 -7.606491623761736 22.57247033108098
-7.145433550362012 -6.88948706144586 26.35473177067224
-9.005736568246471 -4.630934062611647 23.80329335864789
-9.08627447496678 -3.753655374035769 27.55862620238734
-9.981339285539837 -1.068059057274556 24.92549779557185
-9.743569274561406 -0.1394979600202941 28.65798311906115
-9.096592676932794 -2.862530128802068 31.30357085058265
-10.12672720579998 -2.048808150229346 21.19518253324174
-10.11283510915453 1.668213659326754 22.24213669433174
-9.416685465687374 0.8211405146445629 32.37007773426669
-9.039688142145977 -1.927214787957137 35.0330206989824
-8.998372391320132 3.532879713417136 29.64288180990508
-6.485338717929331 -8.285488266951907 18.78191401458886
-10.51844847405989 0.7125391355283339 18.51859191437358
-9.517659704410804 4.353871603922512 19.48835085333862
-8.295051910776047 4.373757129529472 33.32193291246487
-6.943368837282562 6.626983124947664 30.51654932871442
-10.19565371758237 3.433036793817391 15.77961081547426
-8.320645564726354 6.707262697597397 16.67816626962047
-10.83403811428202 -0.2607652091993873 14.7750817500779
-7.316692511148797 7.387486485405568 20.3611189594715
-5.412363833523399 9.142616518434862 17.47671559886406
-4.14200816225489 9.471719362356259 21.12050519862427
-1.823452021540325 10.41159149118838 18.16908260163873
-0.4177863893119331 10.27841393952903 21.76698267746939
-5.866440701592366 7.231742501198966 34.15435876191387
-3.825557948607969 8.73818225847789 31.27116748668501
-6.607509531023925 8.684777835743359 13.81689615434375
-7.66395098537704 -5.326953726719163 33.88221229147457
-7.84209443216057 -4.494150906796136 37.62847276473675
-8.896827512940517 -0.9762579164725624 38.75100041290855
-7.972540247948755 -3.593454048429119 41.35921585108301
-8.658680569410015 0.01073793362511862 42.45540417305415
-8.011927774780878 -2.689407110731764 45.09094055314831
-8.313376834212555 0.9505557235520337 46.15473116540116
-7.965522831595041 -1.764046609717346 48.81065797718458
-7.849844893866682 1.903870480172942 49.84104652318626
-7.821600447933371 -0.8348292769311266 52.52711318837452
-7.255689021474994 2.829875083701707 53.5183123283945
-7.573012326685519 0.1339537283690059 56.23515978928911
-6.990298948889743 4.464887778356087 47.0822503307492
-6.414535473085713 -5.189325437084293 47.63836214229779
-5.512943501805979 -7.28526619163485 36.3897682065836
-6.5200286881924 3.705151722404004 57.1873045607578
-7.198635772434076 1.104345286503887 59.93704630298132
-6.898686842330408 -2.582853210806483 58.87619308455191
-6.878055609993906 -1.64698754197339 62.6098591511595
-6.680951244994481 2.062257100212319 63.63271885415471
-5.037851342538322 5.851431068746695 54.36544742477719
-6.744387424440411 -0.6822482437729882 66.34154717463052
-5.495383551614553 -4.128615214698995 65.13863427707172
-6.003669849034806 2.977947800894813 67.3218136524526
1.993536039403195 10.33373335742544 18.75094441189735
0.5933076947511098 10.78888804125383 15.18150738870785
3.491477907889306 9.634827664370631 22.26200339988673
3.20773184368005 -10.06264772362545 18.27718944059449
0.1717979531656355 -10.74098235585322 15.97987973940102
3.698137598447505 -10.21464043177736 14.44091245340418
-3.857605836847972 6.357526040406401 57.98670642180605
-1.634717055726509 7.489923127120005 55.06563142480727
-2.613172919712274 8.880316308823456 34.85542459311016
-0.5756136387943421 9.472708986100805 31.89026657789037
-4.687546263416813 7.714686999530366 37.77360672238763
-10.76364586155213 2.507774051079132 12.0464599352143
0.5953926556781067 -11.02271227298234 12.2134498410262
-11.06471475908397 -1.234957175457875 11.01094801959542
4.310865725015761 9.864035121228332 15.69362222805192
2.982512397088291 10.63402793052567 12.14253309469083
-1.205644896823899 8.891758849772064 38.46010564282693
-4.583097036266159 5.19064000594041 64.49142306236195
-3.317212804378991 5.752409445677421 68.10093736750702
7.091129446368416 6.041541524631016 34.10585073504763
4.725926187820281 -5.850638490420388 56.91201338052852
2.02632581386173 -7.420454927627982 54.73644388294052
1.56055646007691 -7.22677919876315 58.53299522878562
2.485710275822735 -7.594502421954108 50.93985723540808
-1.024763088285787 -7.804728949054108 52.45480511091282
-6.470586567544406 0.4569491664860978 70.05310272632831
-10.19927592343249 -3.913433217286198 13.66814677244821
-2.891242488447024 -10.53929861787892 13.61238106317213
-3.418578270473508 8.04763552622577 41.37606803921453
0.3082274693495712 8.689131631132755 41.99913040753665
-3.00235341525516 7.359542483891481 51.48051582511275
6.433789248700174 8.933487409279108 12.59025593047616
-5.125645864765908 -7.918430108534416 32.62201904671513
-2.323986137563196 -8.945372185416721 35.03956685629386
-2.800337393254084 -8.494959743483964 38.82228125913468
0.7163369603938471 -9.029710642151478 37.38063809316105
3.916008866206802 -10.49408585500747 10.1530729954149
6.833840950915993 -8.613431824706229 12.76825370000327
0.8520086170518875 7.856580713647602 52.06184662246269
-0.2129487552821542 7.382510118037352 58.63175590063087
-1.131971276609789 6.775778626607903 65.18686699777084
0.3138878721346205 6.58105666277226 68.75914465576408
-0.8311595401354492 11.05701947088567 11.58533039505145
0.2272916473346468 -8.756676372984169 41.17285913981785
-0.5487383183939208 -8.15110195559418 48.67045888967493
-10.14068930467603 -4.806359197325695 9.884643589833647
7.216684633987414 -8.638571578469692 9.44894618075665
-1.522844561923876 9.650349214582064 28.33783073418363
2.271966526263578 9.456658878241594 28.89707568703063
-7.914733510123622 5.923231674078305 26.8643331125572
-2.07392438451833 8.203454527428157 44.96027004827168
1.713596896555235 8.240052716994624 45.5346390792506
-3.26293458874715 -8.008222388946807 42.59820398351675
2.939418519328391 -7.751382283849158 47.14001302487563
8.123560547746109 -6.195961667958151 22.65821746728217
-2.250119302393951 -11.00153684010811 9.792857996022089
-8.45042337655698 2.700011148371409 39.75408053708896
-8.390674969795766 -7.142185165808361 12.46716552266424
4.256161495712179 8.139435276869802 35.76721080742623
1.612961057320964 11.20831718163195 8.59217634205679
-2.067108549546353 6.008141227548736 71.74184884733772
-8.07185028687165 -7.935486233411168 8.64902582490588
3.764146217164964 7.80500942380139 42.37171470079416
-1.398366895051208 5.803656351179128 76.6216528846046
-11.23993698699537 1.558214220490131 8.291661473531157
-10.02834528158982 5.145430687092321 9.258468959402382
7.158536234316098 8.019534354381623 15.88566816662869
5.151751967357229 6.611914472407516 45.97102044621416
8.913721244578763 6.423501393091118 12.87044427608741
8.281697111763595 7.622140384418028 9.461321181647879
-2.249205882353474 11.14906951062492 7.958104731412902
1.753018873843492 6.061071276181846 72.30478901311295
2.25751111008492 5.541662143221762 76.44252397572616
5.224264068129956 3.792581087428415 70.44647569570795
2.299482221209035 6.432780233979469 65.67305352358943
6.982908054216741 -6.154043313835363 34.20893227174557
5.358472174005067 7.838432137177104 31.82956649690543
5.455381531311837 8.105333754034852 28.33176544593834
-4.057616516083595 -6.962275556321806 50.08299563748992
-4.414067971957087 -6.385052641842626 53.84541773285764
1.225795746960485 -9.278030172967279 33.56147327149266
1.266928272204988 6.988967084378821 62.22393110766126
4.688369738372356 5.295049720734532 62.61152511180218
-4.720680742728192 -8.509641757818395 28.82615549886384
4.613619849925374 -8.279946419535051 32.03799912094067
-6.214830678753057 7.973441373544241 24.02240136196827
-0.6357752232128144 8.156408260039425 48.52309732127299
6.385734955233902 -8.57071103803295 16.66973541285778
5.971288116365369 -8.498513761042345 20.50046085950656
-7.794073819762683 3.586628403826123 43.45885588037581
5.485352864328401 -5.98695291026471 49.30140353223524
5.676885882321353 8.82016265760819 19.19714828423802
6.660422038478128 7.740171508660845 22.72707262372379
8.359053210601076 6.284558588165103 19.5931601396663
9.206009493044389 4.380529074806783 22.93368956135042
8.89355869761723 3.209675628130263 32.33703642862977
7.477588695828868 3.510608068578286 47.51266727939862
9.496108191789308 -3.299548054157022 24.73880420840919
6.968349721130855 3.173376062742921 55.18423825120583
4.808975436434563 5.803203285604041 56.71028334403021
6.588055593292503 -3.271010554190764 59.01517167686383
3.674920400015405 -8.085638237082978 39.62319545423523
-1.321678290909207 -9.75252719393947 27.42408488681303
-1.852731049040136 -9.359279979574584 31.24585385886261
-4.254006404718901 7.04446221550724 47.91156419440506
10.45827933608276 -3.243596508958598 13.34498167236876
-5.4539224192874 6.54200952809544 44.25282480963546
-9.205526215964497 5.979576443477752 12.99698991653198
-10.20421682834215 -2.967072023074016 17.44775427502216
-1.740021170735655 -7.371595664640457 56.23546425426022
-2.048148663944256 -6.983640103122294 60.00144148094715
1.064147377462677 -7.014304709560869 62.32943666051296
-2.491229813624106 -6.518023887965533 63.81203750000398
0.6171955535897359 -6.766147079919302 66.14547155424982
-5.164351748702 -4.974297182259173 61.36630700363924
-4.845349210710479 -5.683189286852185 57.5802447651873
-8.988795291577313 1.769545913149663 36.06888435685875
5.934824070817915 -3.223654087874168 66.65903919708769
-7.463439537524545 5.18811487039159 36.98109059135232
-6.528162464902876 5.90060091602939 40.66418954393206
-6.183453915998006 -5.897582417519409 43.90026769355845
-5.035577556729462 8.431767010589097 27.68701725942351
-3.350656577487041 -10.08557754514145 17.43805984632047
3.068436603845214 7.539501547298443 49.0461167006348
4.331201524868066 6.56583045149342 52.5311009625609
4.127975582109871 -8.20052297071201 35.82017623430502
0.8707238160897116 9.963575598889976 25.39271722040898
-8.836381343957401 -5.518364065513579 20.10167129743116
-9.593517492088241 2.651590490959923 26.00685575041171
-6.68652434541147 -4.310311643871845 51.3915115799026
-3.203696791966063 10.36779499542449 14.59319677209047
-7.429717211631678 -6.125263677140022 30.12514994742848
-5.63620214215871 4.498390645112666 60.84669131394386
-8.722397068879307 5.235165744090364 23.21595845572247
-2.561792060053389 6.678377999409106 61.58865989180894
-6.078064930407516 5.213016563756689 50.73082458154278
-5.708604011242621 -3.257904803687939 68.95872420935505
-5.789311414168028 -2.424279395670038 72.72517241285752
-3.579054858652639 -5.285323393474606 71.3691714020045
-5.970585136127424 -0.09420995689322052 76.60153614417673
-5.874515646604618 2.04888143575713 73.42200045543038
-3.101609711047647 -5.915250688819246 67.60863815695944
-0.09444488940552685 -6.493705892062674 69.95537403214163
-0.5768366577335649 -6.162793499478695 73.82647323963774
3.058473596511557 -5.524389239708949 72.24089867798909
-10.75001556783993 4.257844006615593 5.558599708861429
-11.22854346385638 -2.308894959125368 6.817237963633214
-3.548475569039251 -7.558635086482588 46.37601661821775
-4.537122236542735 10.17483831381733 10.91980100286221
-5.846931545540181 9.819152745048207 7.266178429526299
5.411198686789901 9.899444571144556 9.124997747009475
6.798800685018046 9.287000687704106 6.230471261111404
-0.1125749887956187 -8.461821498688657 44.94730591693916
5.265630041300644 -3.193465365751714 74.22540097917354
-8.647207003455856 -6.335228065449082 16.26933305970573
9.83075645554719 -3.250599236806467 20.91143596430127
6.554331352205882 -6.185962401372825 37.95962165860938
8.508915443059172 -6.174245613677521 18.89425823343464
-5.893089096781338 -6.589566139429478 40.14781169245325
-6.087767676558835 -8.939362440506221 15.05162975861531
-7.644099688342223 8.185100255487541 10.17169923649452
4.331997533570377 -5.777948035940932 60.71587452157729
3.909484719082602 -5.706447104885039 64.58314015052426
3.447052926912737 -5.647575769464646 68.4046081959344
3.306775649346906 -7.924622688532103 43.36787415149303
5.8747894199546 -6.031624756717244 45.4902894783724
-6.830963700445604 -3.466891416007864 55.14011726281455
-5.605101342154673 -9.613555194572198 11.07683009831708
-2.857630892608605 9.634155415921839 24.78942364997721
2.208275239350179 8.646021355320018 39.08970439561057
7.983739988406651 -8.602990854984787 3.344770207887593
-6.628115820612388 9.669030911060538 3.523223115243133
1.016226291055013 -11.69268318132344 3.344770207887584
2.577458584343551 -11.18172887316552 6.671461535402941
1.350263398680432 11.65284543617226 3.420321107842411
-11.08582684123438 -3.843080224988896 3.391726388713904
8.870825477295408 -6.182934959066029 15.08269959477902
-6.37984932243638 -9.851349068855669 3.34477020788756
-4.64702454998688 -10.48706498766037 6.72738211287827
9.193520006889354 -6.236005983361949 11.32197202389905
-0.9086153033074927 -11.44966041105999 6.535353781422685
11.09987319674662 -3.128692215629423 5.941614034445701
9.122826361639312 -6.92103948893295 6.974958836508009
11.09987319675308 3.128692215598836 5.941614034472197
1.962303814523036 7.378469276408951 55.46323261281708
10.43039419010439 3.340667860890737 13.31211121240182
7.47919258649926 6.031642311535468 30.38969314154361
-5.12975921299878 3.895001019694706 70.63479670911396
7.654874624076596 6.389288493783396 25.78135328251476
-8.521226698350516 7.661079911104133 6.876957047529299
0.9114772327041494 9.152484963790851 35.60584708139019
-10.04234374334578 -5.587477896969896 6.4533626951067
6.622940593803954 5.658600160687462 41.78955732834888
5.59630473872818 5.887375313724726 49.26454786252421
-1.027630762673255 -5.827983661628775 77.2805386533788
4.475336841739814 8.929830929093228 25.55828403065459
9.955290741670126 2.985748230707223 20.41394581435769
9.462748655682224 6.511038932915182 6.525986870641624
3.416476527984488 6.43989049090405 59.84587449428301
8.132364971260229 8.506723369147998 2.940347201548278
6.544853882971231 2.637159340854741 62.81714809091613
5.942920089619063 -9.834312352788992 6.473585512139939
9.581659391898594 2.841009391620978 25.48896768373129
3.697978121224714 10.89617638353585 6.269319594593276
-11.16591997596954 3.833265169558845 2.470355590065799
-3.810684340922273 4.886759864637739 73.73520497153196
5.009662314378178 3.179189516651631 77.08482478945091
5.235205843931424 -2.763747951056557 77.2544942922482
0.747253036118003 -11.25953285122227 9.093807850484421
11.42161303753389 -2.865258955235403 2.85224460448703
11.43396464721201 2.820216538592482 2.83810148489461
-7.772959482060533 -8.544253587525269 5.706423830937331
3.064424264806479 5.833802227325949 68.74457383422646
-3.242892998853706 -5.22220641510263 74.36715722052652
-3.605399407267842e-05 11.51964643995883 6.103470678916632
5.066299030561234 7.267189393117691 39.91194855125679
9.223265886199695 5.549810882748201 15.70171824783453
2.429539974508322 9.084352130410032 32.99010273990132
-0.7904331584863591 6.127167277498466 73.97626497621567
1.861466232561885 -0.6775183007441694 80
-1.796581528936375 0.6539021999652996 80
1.425965863507625 2.469845325454036 80
-0.4952327472266952 -2.808604475826126 80
0.05414212476550517 -0.002917808503929642 47.86673079463162
-0.0189893900481386 -0.01473522044052622 56.19434643628113
0.03035986035746419 0.06343477241732032 63.2091757510137
-0.01335137615390325 -0.01907145232530549 69.97873236126998
-2.447145100374225 1.923348064905709 43.23654365546599
3.3541266218713 -0.1172975338632329 43.40043319693934
-1.016223002612698 -3.244112838589905 43.70514992376687
-2.432381697692453 1.796827098412989 52.01158589252096
1.228176244529292 -2.745824236488658 52.03728589771795
1.058614338584019 -0.3875775774079567 74.9616116843408
2.471392990654403 2.000101105874139 51.65612306972939
1.354524756452505 3.622151413031705 45.28096731572819
-1.626023441652329 2.664568235327037 59.56119971930523
-4.152316483865786 -0.7724874363530634 46.42756218202281
2.310712582549329 -1.79864527969062 59.70585985891083
-2.252704489613053 -1.852118985951246 59.75257509463083
2.763227649170921 -3.364619901387188 47.06679108740448
-2.86231651845044 -2.305107504292174 50.38340212302238
-0.07860181792067822 2.78569154815411 66.62707280633825
-2.416601251669061 -1.350045680248448 66.56157059740727
-2.741933533119299 3.132120201210539 47.29006286806549
1.780036237309978 -2.397311308680101 66.21364589180122
4.292273968064936 0.6253752612284582 47.52830911693253
-4.539466335135913 -1.536305241717404 42.3855446370798
2.456161828648321 2.328613271730663 60.59549593819732
2.747923334088109 -4.012775173520605 42.26866606107674
3.896589132082004 -0.3940516242323984 54.77495986981853
-2.807839812130881 -2.61125382956318 54.52988619636849
-0.08907514453883947 4.750951502106424 41.764736022396
-2.005994247890633 3.514163002073897 55.63639441963544
1.287561209939259 -3.834405502855958 56.39465986068331
-1.054272533877464 -4.380777740192748 47.51475654176209
0.5994750848243058 4.417744095265157 49.10743205777181

CELLS 2827 12905
1 0
1 1
1 2
1 3
2 0 4
2 4 5
2 5 6
2 6 7
2 7 8
2 8 9
2 9 10
2 10 11
2 11 12
2 12 1
2 0 13
2 13 14
2 14 15
2 15 16
2 16 17
2 17 18
2 18 19
2 19 20
2 20 21
2 21 22
2 22 23
2 23 24
2 24 25
2 25 0
2 1 26
2 26 27
2 27 28
2 28 29
2 29 30
2 30 31
2 31 32
2 32 33
2 33 1
2 2 34
2 34 35
2 35 36
2 36 37
2 37 38
2 38 39
2 39 40
2 40 41
2 41 42
2 42 43
2 43 44
2 44 45
2 45 46
2 46 47
2 47 48
2 48 49
2 49 50
2 50 51
2 51 2
2 3 52
2 52 53
2 53 54
2 54 55
2 55 56
2 56 57
2 57 58
2 58 59
2 59 3
2 2 60
2 60 61
2 61 62
2 62 63
2 63 64
2 64 65
2 65 66
2 66 67
2 67 68
2 68 69
2 69 70
2 70 71
2 71 72
2 72 73
2 73 74
2 74 75
2 75 76
2 76 77
2 77 78
2 78 79
2 79 3
3 4 194 0
3 0 195 4
3 13 195 0
3 0 194 25
3 12 191 1
3 1 192 12
3 1 191 26
3 33 192 1
3 5 93 4
3 4 94 5
3 93 194 4
3 4 195 94
3 6 145 5
3 5 150 6
3 5 145 93
3 94 150 5
3 7 87 6
3 6 88 7
3 87 145 6
3 6 150 88
3 7 151 8
3 8 152 7
3 7 152 87
3 88 151 7
3 9 80 8
3 8 81 9
3 80 152 8
3 8 151 81
3 10 95 9
3 9 144 10
3 9 95 80
3 81 144 9
3 10 85 11
3 11 86 10
3 10 144 85
3 86 95 10
3 12 149 11
3 11 162 12
3 85 162 11
3 11 149 86
3 12 192 149
3 162 191 12
3 14 180 13
3 180 195 13
3 15 90 14
3 90 180 14
3 16 176 15
3 15 176 90
3 17 84 16
3 84 176 16
3 18 177 17
3 17 177 84
3 19 197 18
3 18 197 177
3 20 82 19
3 82 197 19
3 21 183 20
3 20 183 82
3 22 159 21
3 159 183 21
3 23 89 22
3 89 159 22
3 24 189 23
3 23 189 89
3 25 167 24
3 167 189 24
3 25 194 167
3 26 137 27
3 26 191 137
3 27 92 28
3 27 137 92
3 28 185 29
3 92 185 28
3 29 83 30
3 29 185 83
3 30 134 31
3 83 134 30
3 31 91 32
3 31 134 91
3 32 143 33
3 91 143 32
3 143 192 33
3 95 96 80
3 96 97 80
3 97 152 80
3 81 193 144
3 151 193 81
3 158 160 82
3 82 183 158
3 160 161 82
3 161 197 82
3 132 134 83
3 83 173 132
3 83 185 173
3 135 176 84
3 84 182 135
3 177 182 84
3 136 162 85
3 85 184 136
3 144 184 85
3 86 141 95
3 86 142 141
3 86 149 142
3 87 147 145
3 87 148 147
3 87 152 148
3 88 150 139
3 139 188 88
3 88 188 151
3 89 174 159
3 89 178 174
3 89 189 178
3 135 138 90
3 90 176 135
3 138 186 90
3 90 186 180
3 134 190 91
3 91 179 143
3 91 190 179
3 137 196 92
3 140 185 92
3 92 196 140
3 145 146 93
3 146 167 93
3 167 194 93
3 94 186 150
3 180 186 94
3 94 195 180
3 95 141 96
3 96 98 97
3 96 168 98
3 141 168 96
3 98 99 97
3 99 148 97
3 148 152 97
3 98 100 99
3 98 101 100
3 98 168 101
3 100 102 99
3 102 170 99
3 99 170 148
3 101 156 100
3 100 103 102
3 100 156 103
3 153 154 101
3 101 168 153
3 154 156 101
3 103 104 102
3 104 116 102
3 116 170 102
3 103 105 104
3 103 106 105
3 103 156 106
3 105 157 104
3 104 117 116
3 104 157 117
3 106 107 105
3 107 171 105
3 105 171 157
3 106 108 107
3 106 120 108
3 106 156 120
3 108 109 107
3 109 110 107
3 110 171 107
3 108 164 109
3 120 121 108
3 121 164 108
3 109 111 110
3 109 112 111
3 109 164 112
3 111 175 110
3 110 181 171
3 175 181 110
3 112 113 111
3 113 118 111
3 118 175 111
3 112 114 113
3 112 115 114
3 112 164 115
3 114 155 113
3 113 119 118
3 113 155 119
3 115 130 114
3 130 131 114
3 131 155 114
3 115 163 130
3 115 165 163
3 164 165 115
3 117 174 116
3 169 170 116
3 116 174 169
3 157 158 117
3 158 159 117
3 159 174 117
3 119 135 118
3 135 182 118
3 118 182 175
3 119 138 135
3 119 139 138
3 119 155 139
3 120 122 121
3 120 154 122
3 120 156 154
3 122 123 121
3 123 165 121
3 121 165 164
3 122 124 123
3 122 127 124
3 122 154 127
3 124 125 123
3 125 126 123
3 126 165 123
3 124 173 125
3 127 132 124
3 132 173 124
3 125 128 126
3 125 140 128
3 125 173 140
3 128 129 126
3 129 163 126
3 163 165 126
3 127 133 132
3 127 153 133
3 127 154 153
3 128 136 129
3 128 196 136
3 140 196 128
3 136 184 129
3 129 172 163
3 129 184 172
3 130 193 131
3 163 172 130
3 172 193 130
3 151 188 131
3 131 193 151
3 131 188 155
3 133 190 132
3 132 190 134
3 153 166 133
3 166 179 133
3 179 190 133
3 137 162 136
3 136 196 137
3 137 191 162
3 139 186 138
3 150 186 139
3 155 188 139
3 173 185 140
3 142 166 141
3 166 168 141
3 142 149 143
3 143 179 142
3 142 179 166
3 149 192 143
3 172 184 144
3 144 193 172
3 145 147 146
3 147 169 146
3 146 178 167
3 169 178 146
3 148 170 147
3 147 170 169
3 153 168 166
3 157 160 158
3 157 171 160
3 158 183 159
3 160 181 161
3 171 181 160
3 161 187 177
3 177 197 161
3 181 187 161
3 178 189 167
3 174 178 169
3 175 187 181
3 182 187 175
3 177 187 182
3 26 198 1
3 1 198 33
3 27 200 26
3 26 200 198
3 28 200 27
3 29 200 28
3 30 199 29
3 199 200 29
3 31 201 30
3 30 201 199
3 32 201 31
3 33 201 32
3 198 201 33
3 198 200 199
3 199 201 198
3 2 0 34
3 51 0 2
3 34 0 13
3 25 0 51
3 14 35 13
3 35 34 13
3 15 204 14
3 36 35 14
3 14 204 36
3 16 38 15
3 38 37 15
3 37 204 15
3 16 17 39
3 39 38 16
3 18 202 17
3 39 17 40
3 17 202 40
3 18 19 42
3 41 18 42
3 41 202 18
3 19 20 43
3 42 19 43
3 21 203 20
3 43 20 44
3 20 203 44
3 46 21 22
3 45 21 46
3 45 203 21
3 23 47 22
3 22 47 46
3 24 205 23
3 23 48 47
3 23 205 48
3 25 50 24
3 24 50 49
3 49 205 24
3 25 51 50
3 36 204 37
3 40 202 41
3 44 203 45
3 48 205 49
3 34 516 2
3 2 515 51
3 60 515 2
3 2 516 60
3 3 512 52
3 59 513 3
3 79 512 3
3 3 513 79
3 35 233 34
3 233 516 34
3 36 505 35
3 35 505 233
3 37 225 36
3 225 505 36
3 38 480 37
3 37 480 225
3 39 214 38
3 214 480 38
3 40 477 39
3 39 477 214
3 41 227 40
3 227 477 40
3 42 510 41
3 41 510 227
3 43 213 42
3 213 510 42
3 44 481 43
3 43 481 213
3 45 228 44
3 228 481 44
3 46 483 45
3 45 483 228
3 47 215 46
3 215 483 46
3 48 478 47
3 47 478 215
3 49 226 48
3 226 478 48
3 50 476 49
3 49 476 226
3 51 232 50
3 232 476 50
3 51 515 232
3 52 378 53
3 52 512 378
3 53 369 54
3 53 378 369
3 54 218 55
3 54 369 218
3 55 445 56
3 218 445 55
3 56 229 57
3 56 445 229
3 57 500 58
3 229 500 57
3 58 231 59
3 58 500 231
3 231 513 59
3 61 487 60
3 60 489 61
3 487 515 60
3 60 516 489
3 62 223 61
3 61 224 62
3 223 487 61
3 61 489 224
3 63 411 62
3 62 491 63
3 62 411 223
3 224 491 62
3 63 216 64
3 64 217 63
3 63 491 216
3 217 411 63
3 65 461 64
3 64 502 65
3 216 502 64
3 64 461 217
3 66 403 65
3 65 508 66
3 65 502 400
3 400 508 65
3 403 461 65
3 67 207 66
3 66 208 67
3 207 403 66
3 66 508 208
3 68 239 67
3 67 401 68
3 67 239 207
3 208 401 67
3 68 220 69
3 69 238 68
3 68 401 220
3 238 239 68
3 70 210 69
3 69 234 70
3 210 238 69
3 220 234 69
3 70 206 71
3 71 237 70
3 70 234 206
3 70 237 210
3 72 236 71
3 71 402 72
3 206 402 71
3 236 237 71
3 73 211 72
3 72 222 73
3 211 236 72
3 72 402 222
3 74 235 73
3 73 404 74
3 73 235 211
3 222 404 73
3 74 209 75
3 75 406 74
3 74 404 209
3 74 406 235
3 76 212 75
3 75 506 76
3 209 506 75
3 212 406 75
3 76 219 77
3 77 423 76
3 76 423 212
3 76 506 219
3 78 221 77
3 77 379 78
3 219 379 77
3 221 423 77
3 78 230 79
3 79 459 78
3 78 459 221
3 78 379 230
3 230 512 79
3 79 513 459
3 234 498 206
3 373 402 206
3 206 498 373
3 239 240 207
3 240 243 207
3 243 403 207
3 208 492 401
3 208 494 492
3 208 508 494
3 209 504 388
3 388 506 209
3 404 405 209
3 405 504 209
3 237 241 210
3 210 462 238
3 241 462 210
3 235 242 211
3 211 396 236
3 242 396 211
3 212 467 406
3 423 468 212
3 212 468 467
3 370 451 213
3 213 452 370
3 451 510 213
3 213 481 452
3 214 455 376
3 376 520 214
3 214 477 455
3 214 520 480
3 478 486 215
3 215 484 483
3 215 486 484
3 399 502 216
3 216 522 399
3 491 522 216
3 217 482 411
3 461 463 217
3 463 482 217
3 369 511 218
3 218 446 445
3 218 511 446
3 219 518 379
3 219 388 380
3 380 518 219
3 219 506 388
3 220 247 234
3 220 325 247
3 220 401 325
3 221 469 423
3 221 459 450
3 450 469 221
3 402 499 222
3 222 430 404
3 222 499 430
3 411 485 223
3 485 488 223
3 223 488 487
3 224 375 374
3 374 491 224
3 224 503 375
3 489 503 224
3 457 505 225
3 225 509 457
3 480 509 225
3 476 507 226
3 226 479 478
3 226 507 479
3 451 495 227
3 227 510 451
3 227 495 477
3 228 497 481
3 483 517 228
3 228 517 497
3 229 445 443
3 443 519 229
3 229 519 500
3 377 378 230
3 230 379 377
3 378 512 230
3 449 450 231
3 231 500 449
3 450 459 231
3 459 513 231
3 232 488 476
3 487 488 232
3 232 515 487
3 233 503 489
3 489 516 233
3 233 505 503
3 247 498 234
3 235 326 242
3 235 406 326
3 236 471 237
3 396 471 236
3 237 471 241
3 238 381 239
3 238 462 381
3 239 381 240
3 240 244 243
3 240 390 244
3 381 390 240
3 407 462 241
3 241 470 407
3 241 471 470
3 326 327 242
3 327 329 242
3 329 396 242
3 244 245 243
3 245 360 243
3 360 403 243
3 244 246 245
3 244 248 246
3 244 390 248
3 246 249 245
3 249 394 245
3 245 394 360
3 248 408 246
3 246 250 249
3 246 408 250
3 325 364 247
3 364 521 247
3 247 521 498
3 248 390 386
3 386 409 248
3 248 409 408
3 250 251 249
3 251 309 249
3 309 394 249
3 250 252 251
3 250 253 252
3 250 408 253
3 252 428 251
3 251 310 309
3 251 428 310
3 253 254 252
3 254 266 252
3 266 428 252
3 253 255 254
3 253 389 255
3 253 408 389
3 255 256 254
3 256 433 254
3 254 433 266
3 255 257 256
3 255 437 257
3 389 437 255
3 257 258 256
3 258 261 256
3 261 433 256
3 257 259 258
3 257 260 259
3 257 437 260
3 259 434 258
3 258 262 261
3 258 434 262
3 260 263 259
3 263 265 259
3 265 434 259
3 260 264 263
3 260 282 264
3 260 437 282
3 262 267 261
3 267 414 261
3 414 433 261
3 262 268 267
3 262 439 268
3 434 439 262
3 264 422 263
3 263 269 265
3 263 422 269
3 282 283 264
3 283 284 264
3 284 422 264
3 269 270 265
3 270 355 265
3 355 434 265
3 266 465 428
3 433 460 266
3 460 465 266
3 268 271 267
3 271 273 267
3 273 414 267
3 268 272 271
3 268 274 272
3 268 439 274
3 269 279 270
3 269 424 279
3 422 424 269
3 279 280 270
3 280 427 270
3 270 427 355
3 272 413 271
3 271 317 273
3 271 413 317
3 274 275 272
3 275 281 272
3 281 413 272
3 317 319 273
3 319 332 273
3 332 414 273
3 274 276 275
3 274 391 276
3 274 439 391
3 276 277 275
3 277 436 275
3 275 436 281
3 276 278 277
3 276 474 278
3 391 474 276
3 278 306 277
3 306 307 277
3 307 436 277
3 278 308 306
3 278 432 308
3 278 474 432
3 279 314 280
3 279 316 314
3 279 424 316
3 314 315 280
3 315 353 280
3 353 427 280
3 281 466 413
3 436 454 281
3 454 466 281
3 282 296 283
3 282 338 296
3 282 437 338
3 283 285 284
3 283 464 285
3 296 464 283
3 285 286 284
3 286 362 284
3 362 422 284
3 285 287 286
3 285 426 287
3 285 464 426
3 287 288 286
3 288 395 286
3 286 395 362
3 287 289 288
3 287 295 289
3 287 426 295
3 289 290 288
3 290 294 288
3 294 395 288
3 289 291 290
3 289 435 291
3 295 435 289
3 291 292 290
3 292 441 290
3 290 441 294
3 291 293 292
3 291 472 293
3 435 472 291
3 293 297 292
3 297 302 292
3 302 441 292
3 293 298 297
3 293 299 298
3 293 472 299
3 294 412 395
3 410 412 294
3 294 441 410
3 384 435 295
3 295 453 384
3 426 453 295
3 338 339 296
3 339 340 296
3 340 464 296
3 298 438 297
3 297 312 302
3 297 438 312
3 299 300 298
3 300 301 298
3 301 438 298
3 299 420 300
3 299 421 420
3 299 472 421
3 300 303 301
3 300 304 303
3 300 420 304
3 303 305 301
3 305 323 301
3 323 438 301
3 312 313 302
3 313 336 302
3 336 441 302
3 304 442 303
3 303 331 305
3 303 442 331
3 304 420 418
3 418 447 304
3 304 447 442
3 305 324 323
3 305 493 324
3 331 493 305
3 306 320 307
3 308 397 306
3 306 397 320
3 320 321 307
3 321 348 307
3 348 436 307
3 308 398 397
3 308 501 398
3 432 501 308
3 310 311 309
3 311 393 309
3 393 394 309
3 310 318 311
3 310 333 318
3 310 428 333
3 318 342 311
3 342 343 311
3 343 393 311
3 312 345 313
3 312 440 345
3 438 440 312
3 313 344 336
3 313 490 344
3 345 490 313
3 314 496 315
3 316 322 314
3 322 496 314
3 315 354 353
3 315 523 354
3 496 523 315
3 316 334 322
3 316 425 334
3 424 425 316
3 317 370 319
3 317 371 370
3 317 413 371
3 333 361 318
3 318 514 342
3 361 514 318
3 319 351 332
3 319 452 351
3 370 452 319
3 320 337 321
3 320 372 337
3 320 397 372
3 337 456 321
3 321 365 348
3 321 456 365
3 334 335 322
3 335 475 322
3 475 496 322
3 324 346 323
3 346 440 323
3 323 440 438
3 324 347 346
3 324 366 347
3 324 493 366
3 325 382 364
3 325 492 382
3 401 492 325
3 326 328 327
3 326 467 328
3 406 467 326
3 328 415 327
3 327 330 329
3 327 415 330
3 328 416 415
3 328 417 416
3 328 467 417
3 330 350 329
3 350 359 329
3 359 396 329
3 330 384 350
3 330 385 384
3 330 415 385
3 442 443 331
3 443 446 331
3 446 493 331
3 351 363 332
3 363 460 332
3 332 460 414
3 333 473 361
3 428 465 333
3 465 473 333
3 334 356 335
3 334 412 356
3 334 425 412
3 356 357 335
3 357 368 335
3 368 475 335
3 344 392 336
3 392 410 336
3 410 441 336
3 372 374 337
3 374 375 337
3 375 456 337
3 338 409 339
3 389 409 338
3 338 437 389
3 339 341 340
3 339 386 341
3 339 409 386
3 341 349 340
3 349 358 340
3 358 464 340
3 341 407 349
3 386 431 341
3 341 431 407
3 342 352 343
3 342 507 352
3 479 507 342
3 342 514 479
3 352 485 343
3 343 482 393
3 343 485 482
3 344 429 392
3 344 430 429
3 344 490 430
3 345 440 387
3 387 504 345
3 345 504 490
3 347 380 346
3 380 387 346
3 387 440 346
3 366 377 347
3 377 518 347
3 347 518 380
3 365 376 348
3 376 454 348
3 348 454 436
3 349 458 358
3 407 470 349
3 349 470 458
3 350 458 359
3 384 453 350
3 453 458 350
3 351 367 363
3 351 497 367
3 452 497 351
3 352 488 485
3 352 507 488
3 354 432 353
3 353 474 427
3 432 474 353
3 382 383 354
3 354 523 382
3 383 501 354
3 354 501 432
3 355 427 391
3 391 439 355
3 355 439 434
3 356 392 357
3 356 410 392
3 356 412 410
3 357 373 368
3 357 429 373
3 392 429 357
3 358 453 426
3 426 464 358
3 358 458 453
3 359 471 396
3 458 470 359
3 470 471 359
3 394 463 360
3 360 461 403
3 360 463 461
3 473 484 361
3 484 486 361
3 486 514 361
3 395 425 362
3 362 424 422
3 362 425 424
3 367 473 363
3 363 465 460
3 363 473 465
3 382 523 364
3 364 496 475
3 475 521 364
3 364 523 496
3 365 520 376
3 456 509 365
3 509 520 365
3 366 524 377
3 493 511 366
3 511 524 366
3 367 484 473
3 367 517 484
3 497 517 367
3 373 498 368
3 368 521 475
3 498 521 368
3 378 524 369
3 369 524 511
3 371 451 370
3 413 466 371
3 371 495 451
3 466 495 371
3 372 522 374
3 397 399 372
3 399 522 372
3 373 499 402
3 429 499 373
3 374 522 491
3 375 457 456
3 375 503 457
3 376 455 454
3 377 524 378
3 379 518 377
3 380 388 387
3 381 431 390
3 381 462 431
3 382 492 383
3 492 494 383
3 494 501 383
3 385 435 384
3 415 421 385
3 421 472 385
3 385 472 435
3 390 431 386
3 388 504 387
3 408 409 389
3 427 474 391
3 393 463 394
3 393 482 463
3 412 425 395
3 398 399 397
3 398 400 399
3 398 494 400
3 398 501 494
3 400 502 399
3 494 508 400
3 404 430 405
3 430 490 405
3 490 504 405
3 431 462 407
3 482 485 411
3 414 460 433
3 416 421 415
3 417 418 416
3 418 420 416
3 420 421 416
3 417 419 418
3 417 468 419
3 467 468 417
3 419 447 418
3 419 448 447
3 419 469 448
3 468 469 419
3 423 469 468
3 430 499 429
3 442 444 443
3 442 447 444
3 444 519 443
3 445 446 443
3 447 448 444
3 448 449 444
3 449 519 444
3 446 511 493
3 448 450 449
3 448 469 450
3 500 519 449
3 481 497 452
3 455 466 454
3 455 495 466
3 477 495 455
3 457 509 456
3 503 505 457
3 488 507 476
3 479 486 478
3 479 514 486
3 480 520 509
3 484 517 483
3 52 527 3
3 3 525 59
3 3 527 525
3 53 527 52
3 54 527 53
3 55 526 54
3 526 527 54
3 56 526 55
3 57 528 56
3 56 528 526
3 58 528 57
3 59 528 58
3 525 528 59
3 525 527 526
3 526 528 525
4 511 532 524 538
4 524 511 366 532
4 541 544 293 558
4 530 293 544 558
4 198 533 199 535
4 405 539 530 558
4 446 532 511 538
4 530 544 293 556
4 293 530 556 558
4 297 541 293 558
4 198 534 533 535
4 387 531 346 541
4 301 531 323 548
4 440 387 346 541
4 346 531 387 547
4 298 293 541 544
4 297 298 293 541
4 530 553 405 558
4 530 539 405 555
4 531 547 323 548
4 323 531 301 541
4 301 541 531 544
4 301 531 300 544
4 418 531 417 544
4 443 532 446 538
4 345 553 541 558
4 498 534 540 557
4 519 532 443 538
4 417 531 418 550
4 219 547 531 550
4 531 543 417 544
4 301 300 531 548
4 490 539 405 558
4 218 446 511 538
4 211 537 539 551
4 530 544 541 558
4 298 541 301 544
4 369 511 524 538
4 533 534 198 557
4 405 553 530 555
4 218 511 369 538
4 417 543 531 550
4 366 511 493 532
4 305 301 323 548
4 444 443 519 532
4 211 545 537 551
4 293 556 536 558
4 490 553 345 558
4 305 323 547 548
4 449 532 519 538
4 524 532 377 538
4 417 468 543 550
4 493 532 305 547
4 531 544 418 548
4 387 531 541 553
4 298 301 300 544
4 449 444 519 532
4 331 305 493 532
4 77 532 547 550
4 211 539 537 555
4 76 212 531 543
4 293 536 292 558
4 511 446 493 532
4 304 418 544 548
4 536 539 344 558
4 490 405 553 558
4 31 349 32 535
4 219 531 76 550
4 387 547 531 553
4 305 547 532 548
4 300 544 531 548
4 344 539 536 561
4 305 532 331 548
4 293 291 292 536
4 323 301 438 541
4 450 221 532 538
4 211 539 72 551
4 445 443 446 538
4 498 26 534 557
4 446 218 445 538
4 78 532 221 538
4 531 543 212 550
4 76 543 531 553
4 291 536 293 556
4 218 369 526 538
4 300 304 544 548
4 420 304 418 544
4 531 548 418 550
4 219 531 547 553
4 212 76 531 550
4 199 535 533 552
4 229 519 443 538
4 541 553 530 558
4 358 349 31 535
4 534 535 198 554
4 450 459 221 538
4 524 366 377 532
4 395 286 362 552
4 518 532 347 547
4 28 425 533 557
4 201 198 199 535
4 211 73 72 539
4 211 73 539 555
4 526 445 218 538
4 229 443 445 538
4 336 536 344 558
4 459 78 221 538
4 444 532 448 548
4 28 334 425 557
4 77 532 379 547
4 347 532 366 547
4 299 293 544 556
4 334 533 425 557
4 468 212 543 550
4 444 449 448 532
4 498 540 368 557
4 396 537 211 545
4 77 547 219 550
4 298 299 293 544
4 447 444 448 548
4 219 547 388 553
4 200 533 198 557
4 395 542 533 549
4 221 469 532 550
4 344 536 336 561
4 380 547 387 553
4 230 532 78 538
4 76 75 212 543
4 230 377 532 538
4 395 294 542 549
4 533 534 529 535
4 449 450 532 538
4 416 417 543 544
4 288 395 294 542
4 469 448 532 550
4 210 534 1 554
4 493 305 324 547
4 331 493 446 532
4 298 438 301 541
4 448 548 532 550
4 32 535 349 554
4 209 553 405 555
4 535 542 426 560
4 420 300 304 544
4 295 426 542 560
4 412 425 334 533
4 533 356 549 557
4 291 290 536 546
4 344 539 490 558
4 76 75 543 553
4 469 450 221 532
4 380 388 547 553
4 526 229 445 538
4 336 344 313 558
4 237 534 210 554
4 417 468 467 543
4 395 533 542 552
4 331 446 443 532
4 418 417 416 544
4 236 534 237 545
4 416 417 328 543
4 293 292 297 558
4 469 448 450 532
4 29 533 395 552
4 540 549 356 557
4 449 450 448 532
4 395 542 288 552
4 198 534 26 557
4 442 532 444 548
4 347 518 377 532
4 331 532 442 548
4 395 362 29 552
4 347 377 366 532
4 331 443 442 532
4 444 442 443 532
4 70 234 1 534
4 70 210 237 534
4 412 533 356 549
4 416 543 328 544
4 70 1 210 534
4 464 426 358 552
4 236 534 545 551
4 236 237 534 551
4 289 542 290 546
4 529 534 533 540
4 199 198 200 533
4 533 549 540 557
4 356 533 412 557
4 236 545 211 551
4 540 551 499 561
4 201 198 535 554
4 506 219 388 553
4 417 418 419 550
4 379 532 518 547
4 416 544 328 559
4 328 544 543 559
4 359 470 458 545
4 219 77 379 547
4 535 545 458 554
4 230 379 78 532
4 334 412 533 557
4 221 532 77 550
4 330 537 329 560
4 295 453 426 560
4 470 458 545 554
4 29 425 395 533
4 74 543 553 555
4 426 535 358 552
4 524 378 369 538
4 291 289 290 546
4 395 288 286 552
4 230 377 379 532
4 1 234 26 534
4 330 546 537 560
4 350 330 329 560
4 453 535 426 560
4 498 26 234 534
4 527 526 369 538
4 395 533 412 549
4 301 303 300 548
4 498 534 206 540
4 236 71 237 551
4 395 412 294 549
4 468 212 467 543
4 380 387 388 553
4 533 540 534 557
4 458 545 535 560
4 448 447 548 550
4 324 347 366 547
4 500 519 229 538
4 421 556 544 559
4 71 534 237 551
4 415 421 544 559
4 537 545 329 560
4 29 28 425 533
4 291 546 536 556
4 219 380 388 547
4 290 441 536 549
4 33 210 1 554
4 78 77 221 532
4 426 542 535 552
4 524 377 378 538
4 379 377 518 532
4 356 392 549 561
4 416 415 421 544
4 356 549 540 561
4 356 540 392 561
4 498 234 206 534
4 237 545 534 554
4 416 415 544 559
4 415 556 421 559
4 537 546 330 556
4 77 219 76 550
4 242 211 396 537
4 395 425 412 533
4 229 526 528 538
4 537 556 330 559
4 237 471 545 554
4 74 553 209 555
4 206 540 534 551
4 336 536 441 549
4 206 234 70 534
4 529 537 545 551
4 211 537 242 555
4 305 303 301 548
4 425 362 29 395
4 76 506 75 553
4 358 340 31 349
4 384 546 330 560
4 530 553 543 555
4 336 536 549 561
4 329 537 396 545
4 539 499 551 561
4 349 535 458 554
4 323 438 440 541
4 219 379 518 547
4 290 542 294 549
4 396 211 236 545
4 380 346 387 547
4 533 535 529 542
4 78 379 77 532
4 290 292 291 536
4 527 369 378 538
4 201 535 199 552
4 373 499 540 551
4 529 539 537 551
4 404 405 539 555
4 359 545 458 560
4 385 330 546 556
4 294 290 288 542
4 415 330 556 559
4 529 535 534 545
4 201 31 32 535
4 299 472 293 556
4 334 356 412 557
4 500 229 528 538
4 313 344 490 558
4 74 543 75 553
4 356 357 392 540
4 406 543 555 559
4 529 546 536 549
4 529 542 546 549
4 359 329 545 560
4 530 537 536 539
4 442 444 447 548
4 458 349 358 535
4 529 536 537 539
4 448 419 447 550
4 235 211 242 555
4 525 512 79 538
4 236 211 72 551
4 241 237 210 554
4 385 330 384 546
4 327 537 330 559
4 529 537 536 546
4 242 555 537 559
4 536 556 530 558
4 373 540 206 551
4 235 555 242 559
4 236 237 471 545
4 299 544 421 556
4 404 209 405 555
4 470 349 458 554
4 230 378 377 538
4 536 537 530 556
4 530 539 536 558
4 329 242 396 537
4 519 500 449 538
4 326 235 242 559
4 73 222 72 539
4 467 328 417 543
4 336 441 410 549
4 472 291 293 556
4 324 305 323 547
4 359 350 329 560
4 31 535 201 552
4 387 541 345 553
4 420 418 416 544
4 340 32 31 349
4 287 542 426 552
4 297 438 298 541
4 525 79 513 538
4 373 540 499 561
4 453 358 426 535
4 222 539 499 551
4 287 295 426 542
4 373 206 402 551
4 302 536 336 558
4 201 535 32 554
4 350 384 330 560
4 373 402 499 551
4 417 419 468 550
4 410 356 392 549
4 368 498 373 540
4 336 549 410 561
4 199 533 29 552
4 406 326 543 559
4 435 546 291 556
4 490 430 405 539
4 357 540 356 557
4 26 521 27 557
4 290 441 292 536
4 373 498 206 540
4 26 198 1 534
4 200 198 26 557
4 290 294 441 549
4 542 546 295 560
4 536 546 537 556
4 406 543 74 555
4 513 231 525 538
4 541 543 531 544
4 392 540 357 561
4 359 471 470 545
4 74 75 209 553
4 415 327 330 559
4 72 539 222 551
4 368 27 521 557
4 471 470 545 554
4 429 373 499 561
4 298 300 299 544
4 441 336 302 536
4 458 358 453 535
4 221 77 423 550
4 212 423 76 550
4 529 545 537 560
4 303 305 331 548
4 71 70 237 534
4 288 287 286 552
4 344 430 490 539
4 299 421 472 556
4 530 543 541 544
4 288 542 287 552
4 295 542 289 546
4 531 543 541 553
4 292 536 302 558
4 412 356 410 549
4 368 540 357 557
4 387 440 345 541
4 368 475 27 557
4 349 407 32 554
4 529 540 533 549
4 303 304 300 548
4 330 327 329 537
4 458 535 453 560
4 385 415 330 556
4 534 545 535 554
4 336 410 392 561
4 322 334 28 557
4 527 512 525 538
4 530 541 543 553
4 291 435 289 546
4 30 464 31 552
4 359 329 396 545
4 200 28 533 557
4 231 459 450 538
4 74 406 75 543
4 292 441 302 536
4 292 302 297 558
4 231 450 449 538
4 472 435 291 556
4 402 222 499 551
4 537 539 530 555
4 500 231 449 538
4 28 29 200 533
4 533 542 529 549
4 327 242 537 559
4 71 206 534 551
4 322 28 27 557
4 384 295 546 560
4 529 537 546 560
4 335 357 356 557
4 29 199 200 533
4 426 464 285 552
4 378 512 527 538
4 73 222 539 555
4 525 231 528 538
4 286 285 284 552
4 529 542 535 560
4 302 336 313 558
4 327 242 329 537
4 536 539 529 561
4 387 345 504 553
4 534 540 529 551
4 529 545 534 551
4 290 289 288 542
4 535 545 529 560
4 423 77 76 550
4 536 529 549 561
4 535 542 533 552
4 528 231 500 538
4 226 189 49 205
4 469 419 448 550
4 212 468 423 550
4 30 285 464 552
4 79 78 459 538
4 532 548 547 550
4 404 74 209 555
4 529 551 540 561
4 221 423 469 550
4 284 30 29 552
4 430 404 405 539
4 228 203 44 183
4 48 189 226 205
4 295 289 435 546
4 70 71 206 534
4 416 328 415 559
4 241 210 33 554
4 544 556 530 559
4 297 312 541 558
4 27 368 521 475
4 24 49 189 205
4 509 176 520 480
4 230 512 378 538
4 547 548 531 550
4 312 438 297 541
4 326 467 543 559
4 464 340 31 358
4 107 273 106 108
4 267 106 273 108
4 410 549 392 561
4 304 447 418 548
4 332 105 171 107
4 335 368 357 557
4 349 470 407 554
4 529 539 551 561
4 328 543 467 559
4 324 323 346 547
4 121 122 123 262
4 108 267 120 121
4 26 27 200 557
4 237 241 471 554
4 326 467 406 543
4 303 331 442 548
4 355 123 125 265
4 322 335 334 557
4 385 384 435 546
4 246 96 249 168
4 79 230 78 538
4 113 321 307 155
4 27 335 322 557
4 406 74 235 555
4 153 408 253 168
4 246 141 96 168
4 45 203 228 183
4 527 525 526 538
4 528 526 525 538
4 262 122 123 434
4 246 249 96 245
4 385 546 435 556
4 201 199 30 552
4 96 141 246 245
4 332 273 106 107
4 98 309 97 394
4 430 539 344 561
4 121 267 120 262
4 326 328 467 559
4 124 125 123 265
4 212 75 406 543
4 11 207 239 86
4 123 355 434 265
4 119 321 113 155
4 165 274 164 121
4 408 250 253 168
4 54 218 369 526
4 345 541 312 558
4 321 348 113 307
4 98 249 309 394
4 430 499 539 561
4 300 420 299 544
4 106 105 332 107
4 273 414 106 267
4 235 73 211 555
4 268 164 274 121
4 30 31 201 552
4 434 124 123 265
4 268 108 109 164
4 274 165 439 121
4 250 251 101 98
4 113 348 321 119
4 91 32 340 341
4 153 253 101 168
4 246 141 166 248
4 97 96 98 394
4 332 171 319 107
4 421 420 416 544
4 98 96 249 394
4 250 101 253 168
4 271 268 108 109
4 351 105 171 332
4 439 268 274 121
4 368 335 475 557
4 20 44 203 183
4 267 120 106 108
4 101 252 266 100
4 266 101 100 156
4 313 490 345 558
4 86 239 11 149
4 248 246 141 244
4 163 474 276 165
4 295 435 384 546
4 123 439 121 262
4 430 429 499 561
4 106 414 120 267
4 411 6 145 87
4 513 79 459 538
4 319 273 332 107
4 164 109 268 272
4 122 120 256 261
4 384 453 295 560
4 275 164 115 274
4 368 373 357 540
4 166 409 389 408
4 340 31 32 91
4 432 172 163 308
4 79 525 3 512
4 529 546 542 560
4 109 107 271 110
4 110 111 175 466
4 251 101 252 250
4 266 254 101 156
4 264 83 260 263
4 80 96 394 360
4 107 317 271 110
4 111 110 413 466
4 350 359 458 560
4 294 412 410 549
4 227 177 510 202
4 73 404 222 555
4 459 231 513 538
4 134 91 296 190
4 339 409 338 190
4 152 97 393 463
4 404 539 222 555
4 145 147 146 352
4 212 406 467 543
4 152 97 148 393
4 251 100 99 310
4 262 123 439 434
4 408 389 166 153
4 189 48 23 205
4 284 285 30 552
4 281 109 112 272
4 360 394 80 463
4 245 95 141 243
4 436 113 111 454
4 271 268 109 272
4 266 254 252 101
4 393 148 152 482
4 106 414 273 332
4 394 97 80 463
4 45 21 203 183
4 268 267 108 121
4 243 245 95 360
4 245 96 95 360
4 356 334 335 557
4 100 102 428 103
4 80 96 97 394
4 380 219 518 547
4 123 126 391 355
4 391 276 474 165
4 100 428 266 103
4 482 152 393 463
4 154 122 120 256
4 101 251 100 98
4 252 101 251 100
4 259 260 132 263
4 530 556 537 559
4 309 99 97 393
4 530 555 543 559
4 294 410 441 549
4 474 353 126 129
4 543 544 530 559
4 271 273 107 108
4 427 270 125 128
4 99 148 97 393
4 130 163 172 308
4 274 115 275 276
4 166 389 409 133
4 433 154 120 256
4 299 420 421 544
4 230 79 512 538
4 260 282 132 264
4 227 40 477 202
4 340 339 91 341
4 289 295 287 542
4 392 357 429 561
4 173 259 132 263
4 327 326 242 559
4 141 96 95 245
4 163 474 165 126
4 256 127 122 258
4 163 278 432 308
4 115 277 278 130
4 55 218 526 445
4 102 465 428 103
4 227 510 41 202
4 273 271 267 108
4 226 189 48 478
4 141 86 244 243
4 268 267 121 262
4 127 122 258 124
4 282 134 132 264
4 270 427 280 128
4 254 253 101 153
4 122 120 261 262
4 454 111 436 281
4 271 413 109 110
4 165 474 391 126
4 153 254 255 154
4 68 12 11 239
4 258 257 127 124
4 276 274 115 165
4 120 433 414 106
4 189 507 226 476
4 102 170 310 318
4 112 111 109 281
4 256 257 127 258
4 433 156 460 106
4 68 11 12 401
4 101 254 153 154
4 153 389 166 133
4 537 555 530 559
4 454 118 111 466
4 118 175 111 466
4 171 105 351 157
4 312 345 440 541
4 392 344 336 561
4 157 497 351 160
4 274 164 115 165
4 27 475 335 557
4 134 296 338 190
4 403 95 80 360
4 82 497 160 452
4 520 135 176 509
4 351 171 157 160
4 27 322 335 475
4 87 148 147 343
4 87 148 343 482
4 391 165 126 123
4 436 277 112 114
4 111 112 436 281
4 257 258 259 124
4 514 169 116 318
4 227 477 177 202
4 95 207 86 243
4 403 9 461 80
4 111 112 113 436
4 11 67 68 239
4 103 363 460 105
4 461 403 80 360
4 465 266 428 103
4 86 244 243 240
4 261 120 267 262
4 413 271 317 110
4 100 251 428 310
4 428 102 100 310
4 171 319 351 332
4 278 163 130 308
4 86 207 239 240
4 507 146 169 352
4 120 433 256 261
4 68 67 11 401
4 540 549 529 561
4 99 100 102 310
4 153 166 408 168
4 257 260 132 259
4 348 118 376 119
4 261 120 414 267
4 71 402 206 551
4 319 171 351 160
4 185 316 28 92
4 33 198 201 554
4 111 413 109 281
4 148 99 311 393
4 132 259 173 124
4 160 158 497 82
4 130 115 277 114
4 147 145 485 352
4 507 189 167 476
4 403 207 95 243
4 32 407 33 554
4 424 28 316 425
4 98 101 250 168
4 261 256 122 258
4 477 40 17 202
4 33 407 241 554
4 526 369 54 527
4 445 526 56 229
4 140 279 270 269
4 149 86 239 240
4 311 99 309 393
4 67 11 207 239
4 349 340 32 341
4 12 68 69 238
4 132 257 259 124
4 9 403 95 80
4 12 68 220 69
4 134 296 31 283
4 433 120 156 106
4 253 254 255 153
4 120 122 121 262
4 281 413 109 272
4 147 170 342 343
4 199 29 30 552
4 513 525 3 79
4 104 465 333 102
4 314 279 140 92
4 130 277 278 306
4 460 106 105 332
4 36 505 225 204
4 402 72 222 551
4 283 296 31 464
4 481 228 44 183
4 123 391 165 439
4 320 306 114 131
4 103 104 363 105
4 425 28 316 334
4 169 146 147 352
4 319 171 317 107
4 275 112 164 272
4 94 5 4 489
4 152 87 217 482
4 313 345 312 558
4 333 104 102 116
4 488 145 146 352
4 190 409 338 133
4 177 18 510 202
4 152 461 80 463
4 69 1 12 238
4 220 1 12 69
4 439 123 391 355
4 481 497 82 452
4 33 32 431 407
4 99 100 251 98
4 385 421 415 556
4 142 166 141 248
4 170 99 102 310
4 461 152 217 463
4 253 389 408 153
4 190 437 338 282
4 365 348 376 119
4 83 132 260 263
4 312 440 438 541
4 317 273 319 107
4 396 236 471 545
4 411 217 87 482
4 122 261 258 262
4 223 6 145 411
4 115 112 164 275
4 17 177 477 202
4 306 130 277 114
4 140 270 280 128
4 353 315 128 136
4 103 460 156 106
4 141 142 248 244
4 156 154 120 433
4 296 31 340 339
4 126 163 474 129
4 381 390 149 240
4 120 433 261 414
4 167 178 189 507
4 270 140 125 128
4 472 385 435 556
4 12 11 239 149
4 136 128 353 129
4 173 140 270 269
4 128 126 353 129
4 112 115 277 275
4 287 426 285 552
4 152 217 8 461
4 386 248 142 390
4 114 307 320 155
4 370 160 452 161
4 265 259 173 263
4 236 72 71 551
4 27 521 364 475
4 436 112 113 114
4 499 222 430 539
4 126 125 427 355
4 220 401 12 191
4 505 36 14 204
4 169 342 507 352
4 49 189 226 476
4 102 116 170 318
4 170 147 148 343
4 169 170 116 318
4 239 238 12 192
4 127 437 255 133
4 116 102 333 318
4 112 275 281 272
4 228 483 45 183
4 424 29 28 425
4 207 10 403 95
4 12 68 401 220
4 414 433 460 106
4 132 83 260 264
4 7 411 217 87
4 296 31 339 91
4 163 276 115 165
4 69 70 1 210
4 31 340 339 91
4 122 258 124 434
4 174 486 215 89
4 83 269 263 422
4 215 46 483 159
4 389 338 409 133
4 407 431 33 462
4 118 111 113 454
4 132 437 190 282
4 201 32 33 554
4 59 525 513 231
4 106 460 414 332
4 289 287 288 542
4 409 339 179 190
4 112 277 436 275
4 228 481 158 183
4 12 68 238 239
4 156 266 460 103
4 258 122 262 434
4 310 333 102 318
4 98 250 249 168
4 309 99 251 98
4 106 103 460 105
4 430 222 404 539
4 95 207 10 86
4 109 164 112 272
4 320 114 155 131
4 342 169 147 352
4 171 317 110 181
4 253 252 101 250
4 320 306 307 114
4 49 24 189 476
4 157 158 497 160
4 228 481 497 158
4 8 152 461 80
4 363 465 104 103
4 126 353 427 128
4 189 23 48 478
4 6 7 63 491
4 285 283 30 464
4 153 255 389 133
4 307 436 113 114
4 142 143 386 390
4 87 217 7 152
4 427 391 126 355
4 154 156 254 433
4 115 112 277 114
4 474 353 427 126
4 488 485 145 352
4 125 126 123 355
4 81 502 8 151
4 171 317 107 110
4 307 277 436 114
4 192 143 381 462
4 430 344 429 561
4 156 100 266 103
4 483 46 21 159
4 122 154 127 256
4 484 486 215 174
4 343 147 87 485
4 164 275 272 274
4 424 269 185 422
4 428 266 252 100
4 124 259 173 265
4 254 101 156 154
4 389 255 437 133
4 322 27 28 92
4 471 241 470 554
4 241 407 470 554
4 145 411 87 485
4 351 105 363 157
4 482 343 87 485
4 91 143 341 386
4 7 6 63 411
4 342 170 311 343
4 359 396 471 545
4 134 83 132 264
4 427 125 126 128
4 251 99 309 310
4 480 509 176 90
4 246 408 166 168
4 178 189 507 226
4 160 351 319 452
4 28 322 316 334
4 474 353 129 432
4 143 431 381 462
4 229 526 56 528
4 4 5 93 487
4 348 118 113 454
4 251 250 249 98
4 185 140 279 92
4 67 11 10 207
4 238 1 12 192
4 160 497 351 452
4 5 145 93 223
4 83 185 269 422
4 279 140 185 269
4 278 276 115 163
4 333 473 104 116
4 234 70 1 69
4 169 116 174 514
4 346 347 324 547
4 110 317 371 181
4 408 166 409 248
4 225 15 37 204
4 130 306 397 131
4 244 86 142 240
4 86 141 95 243
4 455 175 118 466
4 401 208 11 85
4 63 62 6 491
4 102 104 465 103
4 481 158 183 82
4 124 258 259 434
4 97 99 309 98
4 481 497 158 82
4 18 41 510 202
4 98 249 96 168
4 363 105 351 332
4 257 132 127 124
4 134 282 283 264
4 297 302 312 558
4 428 333 465 102
4 465 363 460 103
4 405 209 504 553
4 311 170 148 343
4 91 179 339 190
4 129 163 474 432
4 44 20 481 183
4 250 408 246 168
4 156 460 266 433
4 456 321 119 139
4 428 252 251 100
4 7 63 64 217
4 436 348 113 454
4 491 62 6 224
4 390 149 143 381
4 96 80 95 360
4 147 170 169 342
4 174 117 361 116
4 287 285 286 552
4 253 252 254 101
4 208 11 67 401
4 506 209 75 553
4 210 1 69 238
4 91 296 31 134
4 119 365 456 138
4 124 123 122 434
4 190 338 437 133
4 6 62 63 411
4 141 86 142 244
4 116 361 174 514
4 61 4 5 489
4 5 6 145 223
4 22 46 215 159
4 407 33 241 462
4 397 306 320 131
4 139 375 374 150
4 26 27 521 364
4 184 501 172 129
4 21 45 483 183
4 85 184 136 383
4 108 107 271 109
4 118 454 455 466
4 153 127 255 133
4 367 363 104 157
4 365 456 321 119
4 220 234 1 69
4 174 486 89 479
4 270 427 125 355
4 486 89 479 478
4 31 30 283 464
4 247 191 364 325
4 215 159 174 89
4 217 64 8 461
4 105 363 460 332
4 304 442 447 548
4 314 279 280 140
4 25 50 232 167
4 114 306 130 131
4 337 320 155 188
4 317 271 273 107
4 32 341 431 407
4 66 67 10 207
4 479 169 174 514
4 99 170 311 310
4 413 109 110 111
4 255 127 154 256
4 143 341 386 431
4 514 342 169 318
4 510 177 161 197
4 390 142 149 240
4 166 141 246 168
4 159 483 517 183
4 102 428 333 310
4 389 253 255 153
4 501 144 184 172
4 155 321 337 139
4 11 401 85 162
4 401 11 12 162
4 350 458 453 560
4 268 108 164 121
4 254 154 433 256
4 87 152 148 482
4 149 239 12 192
4 134 338 296 282
4 270 173 269 265
4 220 12 1 191
4 353 315 136 354
4 170 169 342 318
4 7 6 411 87
4 97 152 80 463
4 140 270 125 173
4 61 5 62 224
4 341 339 91 386
4 509 135 176 90
4 165 123 439 121
4 105 104 363 157
4 501 172 129 432
4 140 280 314 196
4 32 91 143 341
4 127 437 132 257
4 264 284 83 422
4 32 349 341 407
4 278 474 276 163
4 391 274 276 165
4 228 517 483 183
4 177 182 477 495
4 92 196 496 523
4 338 389 437 133
4 215 47 89 478
4 129 353 136 354
4 114 113 307 155
4 111 413 281 466
4 142 179 248 386
4 61 60 4 489
4 234 1 26 220
4 141 244 245 243
4 255 127 153 154
4 129 172 163 432
4 207 11 10 86
4 465 333 473 104
4 269 173 83 263
4 63 7 411 217
4 115 277 275 276
4 507 167 146 488
4 223 145 93 488
4 154 254 255 256
4 304 303 442 548
4 275 436 112 281
4 348 113 118 119
4 115 278 163 130
4 380 518 347 547
4 92 322 27 496
4 22 21 46 159
4 115 277 276 278
4 155 119 321 139
4 270 125 173 265
4 522 216 88 491
4 385 472 421 556
4 394 96 245 360
4 129 184 501 354
4 127 255 437 257
4 337 320 321 155
4 159 484 215 174
4 403 66 10 207
4 33 1 210 238
4 89 486 215 478
4 30 134 283 264
4 66 9 65 403
4 310 170 311 318
4 191 220 401 325
4 281 454 111 466
4 384 350 453 560
4 394 309 97 393
4 173 185 140 269
4 136 492 85 383
4 502 81 399 151
4 151 502 8 216
4 271 268 267 108
4 260 132 437 257
4 239 238 192 381
4 527 369 53 378
4 346 380 347 547
4 246 249 250 168
4 383 85 184 494
4 117 361 484 174
4 179 339 409 386
4 488 507 167 476
4 245 249 96 394
4 487 5 93 223
4 166 408 246 248
4 178 226 479 478
4 148 99 170 311
4 181 371 110 175
4 10 9 66 403
4 423 468 469 550
4 150 374 139 88
4 527 3 525 512
4 134 31 30 283
4 249 309 251 98
4 393 97 394 463
4 266 254 156 433
4 179 142 143 386
4 321 456 337 139
4 5 61 489 224
4 4 0 60 515
4 159 517 117 158
4 5 4 61 487
4 204 14 505 90
4 391 274 165 439
4 505 225 204 90
4 127 255 257 256
4 60 0 4 516
4 50 232 167 476
4 307 321 320 155
4 507 342 169 479
4 192 149 239 381
4 468 419 469 550
4 4 195 94 489
4 10 11 67 208
4 338 134 190 282
4 92 315 314 496
4 9 400 502 81
4 116 333 361 318
4 179 166 409 133
4 189 89 23 478
4 505 503 457 180
4 7 88 216 491
4 369 53 54 527
4 436 113 348 307
4 132 83 173 263
4 339 179 91 386
4 132 437 127 133
4 341 143 32 431
4 367 104 117 157
4 196 128 315 136
4 284 29 83 422
4 92 196 315 496
4 169 178 507 479
4 525 59 528 231
4 6 5 62 223
4 158 159 517 183
4 72 402 71 551
4 461 65 9 403
4 178 167 146 507
4 64 8 7 217
4 473 333 361 116
4 434 259 124 265
4 57 500 229 528
4 429 344 392 561
4 172 501 144 398
4 272 268 164 274
4 203 44 45 228
4 244 246 141 245
4 215 47 22 89
4 169 178 146 507
4 7 6 88 491
4 427 391 474 126
4 65 8 64 461
4 452 213 370 161
4 282 296 134 283
4 280 427 353 128
4 475 364 27 496
4 135 509 138 90
4 424 362 29 425
4 216 88 151 522
4 238 192 381 462
4 139 119 456 138
4 95 403 243 360
4 210 241 33 462
4 371 413 317 110
4 227 41 40 202
4 4 195 489 516
4 121 439 268 262
4 473 361 117 116
4 159 215 22 89
4 50 25 24 167
4 397 372 399 131
4 109 413 271 272
4 317 171 370 181
4 173 83 185 269
4 306 308 130 397
4 360 80 461 463
4 496 196 315 523
4 139 374 337 188
4 227 177 477 495
4 196 314 140 92
4 143 142 149 390
4 190 134 132 282
4 4 60 61 487
4 183 20 481 82
4 208 67 10 66
4 415 328 327 559
4 382 492 136 383
4 489 60 4 516
4 146 93 145 488
4 280 279 270 140
4 461 9 8 80
4 118 135 376 119
4 191 401 12 162
4 355 125 270 265
4 243 207 86 240
4 147 145 87 485
4 361 486 174 514
4 33 32 143 431
4 195 94 489 233
4 266 465 460 103
4 514 116 361 318
4 314 322 92 496
4 182 177 187 495
4 145 223 411 485
4 481 20 43 82
4 409 166 179 248
4 189 24 167 476
4 482 217 152 463
4 191 26 247 364
4 178 174 89 479
4 302 313 312 558
4 167 24 50 476
4 340 31 296 464
4 185 28 316 424
4 232 194 25 167
4 190 179 409 133
4 117 484 517 159
4 10 9 403 95
4 343 342 147 352
4 282 132 437 260
4 319 171 160 370
4 143 192 33 462
4 159 21 483 183
4 437 132 190 133
4 185 316 279 424
4 60 0 2 515
4 54 55 218 526
4 118 182 175 455
4 502 8 9 81
4 528 59 58 231
4 501 129 354 432
4 361 486 484 174
4 2 0 60 516
4 176 15 38 480
4 64 8 65 502
4 365 376 135 119
4 174 486 479 514
4 149 239 381 240
4 29 284 362 422
4 320 337 372 188
4 195 4 0 516
4 62 6 223 411
4 216 63 7 491
4 342 311 170 318
4 355 439 123 434
4 9 65 508 66
4 365 321 348 119
4 311 309 99 310
4 315 314 196 92
4 491 88 374 224
4 376 135 182 214
4 232 93 167 488
4 367 363 473 104
4 196 92 137 523
4 393 343 148 482
4 88 151 7 216
4 501 184 144 494
4 86 149 142 240
4 503 150 94 224
4 451 510 177 161
4 399 502 151 216
4 496 137 92 523
4 163 278 474 432
4 501 172 432 308
4 30 283 284 264
4 307 306 277 114
4 223 93 487 488
4 4 0 515 194
4 508 144 85 494
4 217 8 7 152
4 387 504 388 553
4 20 19 43 82
4 33 1 238 192
4 226 49 48 205
4 348 376 118 454
4 182 376 214 455
4 56 57 229 528
4 181 187 371 175
4 508 400 9 144
4 375 374 150 224
4 364 191 137 325
4 65 9 8 461
4 64 63 7 216
4 188 139 374 88
4 88 150 374 224
4 365 509 456 138
4 85 208 508 494
4 10 508 144 85
4 315 314 280 196
4 284 83 30 264
4 89 47 23 478
4 142 390 244 240
4 526 56 55 445
4 171 160 370 181
4 186 457 503 180
4 508 9 10 144
4 58 500 528 231
4 220 1 26 191
4 124 173 125 265
4 93 194 4 487
4 497 351 367 157
4 431 143 33 462
4 431 386 143 390
4 85 492 136 162
4 508 10 9 66
4 269 185 279 424
4 143 431 390 381
4 27 26 137 364
4 65 9 400 502
4 475 27 322 496
4 353 315 280 128
4 45 46 21 483
4 177 510 18 197
4 489 94 503 233
4 158 497 367 157
4 139 337 155 188
4 44 20 43 481
4 424 185 29 422
4 399 193 397 131
4 94 180 503 233
4 169 174 178 479
4 479 89 178 478
4 388 209 506 553
4 308 172 193 398
4 489 503 94 224
4 193 130 397 131
4 343 148 311 393
4 17 39 40 477
4 184 383 501 354
4 181 160 370 161
4 162 492 136 382
4 9 65 8 502
4 176 38 16 214
4 238 210 33 462
4 60 4 515 487
4 248 179 409 386
4 400 81 398 399
4 187 371 175 495
4 308 130 278 306
4 15 38 16 176
4 117 104 473 116
4 473 361 484 117
4 13 35 180 233
4 48 23 47 478
4 24 49 50 476
4 473 363 465 104
4 235 74 73 555
4 510 451 177 227
4 194 515 4 487
4 138 509 457 90
4 143 91 179 386
4 104 473 367 117
4 188 320 155 131
4 492 85 383 494
4 162 191 401 325
4 371 451 187 181
4 233 489 195 516
4 485 145 223 488
4 501 383 184 494
4 39 17 84 477
4 134 30 83 264
4 284 283 30 285
4 375 374 337 139
4 137 162 382 325
4 84 182 135 214
4 319 160 452 370
4 81 9 400 144
4 521 247 26 364
4 167 93 146 488
4 208 401 492 85
4 26 247 234 220
4 225 37 15 480
4 263 264 83 422
4 15 37 38 480
4 37 36 225 204
4 150 503 375 224
4 135 176 214 520
4 151 399 372 131
4 370 371 317 181
4 457 138 90 186
4 173 269 265 263
4 364 137 27 496
4 26 191 137 364
4 319 171 370 317
4 482 87 411 485
4 517 228 158 183
4 136 137 162 382
4 9 65 400 508
4 328 326 327 559
4 400 81 144 398
4 200 27 28 557
4 363 367 351 157
4 390 248 142 244
4 193 130 308 397
4 398 501 144 494
4 204 225 15 90
4 85 401 492 162
4 398 81 193 399
4 365 135 509 138
4 52 3 527 512
4 17 16 39 84
4 30 29 83 284
4 495 371 175 466
4 186 90 457 180
4 488 167 232 476
4 214 176 38 480
4 151 8 7 216
4 182 84 177 477
4 159 117 484 174
4 136 137 382 523
4 195 0 34 516
4 227 187 177 495
4 354 129 353 432
4 0 51 515 194
4 501 172 308 398
4 35 14 13 180
4 82 19 43 213
4 29 362 424 422
4 479 342 169 514
4 225 509 480 90
4 10 11 208 85
4 64 7 8 216
4 137 136 196 523
4 520 135 509 365
4 93 232 487 488
4 29 28 185 424
4 23 22 47 89
4 144 81 193 398
4 61 62 5 223
4 90 505 457 180
4 505 503 180 233
4 136 315 196 523
4 451 187 227 495
4 508 10 208 85
4 34 13 0 195
4 214 376 135 520
4 188 372 320 131
4 372 337 374 188
4 454 376 118 455
4 382 364 137 325
4 144 193 172 398
4 84 182 214 455
4 213 510 161 197
4 137 92 27 496
4 117 517 367 158
4 451 187 177 227
4 483 517 484 159
4 149 192 143 381
4 51 0 25 194
4 193 308 398 397
4 456 375 337 139
4 88 374 188 522
4 135 176 84 214
4 185 83 29 422
4 176 15 480 90
4 182 455 477 495
4 451 370 213 161
4 186 503 150 94
4 182 187 175 495
4 177 187 451 161
4 130 172 193 308
4 232 93 194 167
4 195 180 94 233
4 176 214 520 480
4 517 228 497 158
4 192 238 33 462
4 523 136 315 354
4 82 43 481 213
4 193 399 151 131
4 194 93 232 487
4 502 64 8 216
4 135 365 119 138
4 186 503 375 150
4 162 137 191 325
4 213 82 19 197
4 397 320 372 131
4 188 374 372 522
4 142 179 166 248
4 383 184 136 354
4 455 214 84 477
4 128 315 280 196
4 84 16 39 214
4 17 177 84 477
4 50 51 25 232
4 451 187 181 161
4 158 367 117 157
4 517 367 484 117
4 85 144 184 494
4 14 35 505 180
4 16 84 176 214
4 487 61 5 223
4 74 404 73 555
4 247 498 26 234
4 452 82 481 213
4 456 457 375 186
4 509 225 457 90
4 247 220 191 325
4 51 2 0 515
4 182 118 376 455
4 0 2 34 516
4 187 451 371 495
4 180 35 505 233
4 457 456 509 138
4 457 456 138 186
4 505 457 225 90
4 473 484 367 117
4 85 492 208 494
4 504 209 388 553
4 495 175 455 466
4 188 151 88 522
4 84 182 455 477
4 194 51 515 232
4 22 46 47 215
4 194 25 51 232
4 180 503 186 94
4 129 136 184 354
4 180 195 13 233
4 213 510 451 161
4 82 213 161 197
4 139 456 375 186
4 195 34 13 233
4 14 35 36 505
4 484 215 483 159
4 226 507 178 479
4 485 343 147 352
4 233 195 34 516
4 216 151 399 522
4 480 15 225 90
4 497 367 517 158
4 488 146 507 352
4 213 19 42 197
4 456 139 138 186
4 16 38 39 214
4 39 84 214 477
4 508 208 10 66
4 399 193 398 397
4 136 382 383 354
4 182 118 135 376
4 232 515 194 487
4 35 13 34 233
4 18 42 19 197
4 451 371 370 181
4 372 399 151 522
4 382 136 523 354
4 280 140 128 196
4 42 18 510 197
4 455 182 175 495
4 370 451 181 161
4 151 188 372 522
4 162 401 492 325
4 18 41 42 510
4 137 364 382 523
4 525 3 59 513
4 375 139 186 150
4 26 498 247 521
4 81 400 502 399
4 399 81 193 151
4 378 52 527 512
4 42 43 19 213
4 26 247 220 191
4 90 14 505 180
4 510 213 42 197
4 382 162 492 325
4 17 18 177 202
4 527 53 52 378
4 522 88 374 491
4 144 508 400 494
4 457 503 375 186
4 398 144 400 494
4 364 137 496 523
4 372 188 151 131
4 520 376 135 365
4 189 23 24 205
4 204 15 14 90
4 203 21 20 183
4 500 57 58 528
4 346 323 531 547
4 346 541 323 440
4 323 541 346 531
4 358 552 31 464
4 31 552 358 535
4 547 493 366 324
4 547 366 493 532
4 553 76 219 531
4 553 219 76 506
4 504 490 553 345
4 504 553 490 405
4 521 557 498 368
4 498 557 521 26
4 546 549 290 536
4 290 549 546 542
4 552 362 284 286
4 552 284 362 29
4 1 554 198 33
4 198 554 1 534
4 550 447 418 419
4 550 418 447 548
4 559 235 406 326
4 559 406 235 555
4 561 373 357 429
4 561 357 373 540
4 466 110 371 175
4 466 371 110 413
4 92 279 316 314
4 92 316 279 185
4 92 316 322 314
4 92 322 316 28
4 6 224 5 150
4 5 224 6 62
4 190 339 296 338
4 190 296 339 91
4 94 224 5 489
4 5 224 94 150
4 452 161 82 213
4 82 161 452 160
4 478 189 178 226
4 478 178 189 89
4 88 224 6 150
4 6 224 88 491

CELL_TYPES 2827
1
1
1
1
3
3
3
3
3
3
3
3
3
3
3
3
3
3
3
3
3
3
3
3
3
3
3
3
3
3
3
3
3
3
3
3
3
3
3
3
3
3
3
3
3
3
3
3
3
3
3
3
3
3
3
3
3
3
3
3
3
3
3
3
3
3
3
3
3
3
3
3
3
3
3
3
3
3
3
3
3
3
3
3
3
3
5
5
5
5
5
5
5
5
5
5
5
5
5
5
5
5
5
5
5
5
5
5
5
5
5
5
5
5
5
5
5
5
5
5
5
5
5
5
5
5
5
5
5
5
5
5
5
5
5
5
5
5
5
5
5
5
5
5
5
5
5
5
5
5
5
5
5
5
5
5
5
5
5
5
5
5
5
5
5
5
5
5
5
5
5
5
5
5
5
5
5
5
5
5
5
5
5
5
5
5
5
5
5
5
5
5
5
5
5
5
5
5
5
5
5
5
5
5
5
5
5
5
5
5
5
5
5
5
5
5
5
5
5
5
5
5
5
5
5
5
5
5
5
5
5
5
5
5
5
5
5
5
5
5
5
5
5
5
5
5
5
5
5
5
5
5
5
5
5
5
5
5
5
5
5
5
5
5
5
5
5
5
5
5
5
5
5
5
5
5
5
5
5
5
5
5
5
5
5
5
5
5
5
5
5
5
5
5
5
5
5
5
5
5
5
5
5
5
5
5
5
5
5
5
5
5
5
5
5
5
5
5
5
5
5
5
5
5
5
5
5
5
5
5
5
5
5
5
5
5
5
5
5
5
5
5
5
5
5
5
5
5
5
5
5
5
5
5
5
5
5
5
5
5
5
5
5
5
5
5
5
5
5
5
5
5
5
5
5
5
5
5
5
5
5
5
5
5
5
5
5
5
5
5
5
5
5
5
5
5
5
5
5
5
5
5
5
5
5
5
5
5
5
5
5
5
5
5
5
5
5
5
5
5
5
5
5
5
5
5
5
5
5
5
5
5
5
5
5
5
5
5
5
5
5
5
5
5
5
5
5
5
5
5
5
5
5
5
5
5
5
5
5
5
5
5
5
5
5
5
5
5
5
5
5
5
5
5
5
5
5
5
5
5
5
5
5
5
5
5
5
5
5
5
5
5
5
5
5
5
5
5
5
5
5
5
5
5
5
5
5
5
5
5
5
5
5
5
5
5
5
5
5
5
5
5
5
5
5
5
5
5
5
5
5
5
5
5
5
5
5
5
5
5
5
5
5
5
5
5
5
5
5
5
5
5
5
5
5
5
5
5
5
5
5
5
5
5
5
5
5
5
5
5
5
5
5
5
5
5
5
5
5
5
5
5
5
5
5
5
5
5
5
5
5
5
5
5
5
5
5
5
5
5
5
5
5
5
5
5
5
5
5
5
5
5
5
5
5
5
5
5
5
5
5
5
5
5
5
5
5
5
5
5
5
5
5
5
5
5
5
5
5
5
5
5
5
5
5
5
5
5
5
5
5
5
5
5
5
5
5
5
5
5
5
5
5
5
5
5
5
5
5
5
5
5
5
5
5
5
5
5
5
5
5
5
5
5
5
5
5
5
5
5
5
5
5
5
5
5
5
5
5
5
5
5
5
5
5
5
5
5
5
5
5
5
5
5
5
5
5
5
5
5
5
5
5
5
5
5
5
5
5
5
5
5
5
5
5
5
5
5
5
5
5
5
5
5
5
5
5
5
5
5
5
5
5
5
5
5
5
5
5
5
5
5
5
5
5
5
5
5
5
5
5
5
5
5
5
5
5
5
5
5
5
5
5
5
5
5
5
5
5
5
5
5
5
5
5
5
5
5
5
5
5
5
5
5
5
5
5
5
5
5
5
5
5
5
5
5
5
5
5
5
5
5
5
5
5
5
5
5
5
5
5
5
5
5
5
5
5
5
5
5
5
5
5
5
5
5
5
5
5
5
5
5
5
5
5
5
5
5
5
5
5
5
5
5
5
5
5
5
5
5
5
5
5
5
5
5
5
5
5
5
5
5
5
5
5
5
5
5
5
5
5
5
5
5
5
5
5
5
5
5
5
5
5
5
5
5
5
5
5
5
5
5
5
5
5
5
5
5
5
5
5
5
5
5
5
5
5
5
5
5
5
5
5
5
5
5
5
5
5
5
5
5
5
5
5
5
5
5
5
5
5
5
5
5
5
5
5
5
5
5
5
5
5
5
5
5
5
5
5
5
5
5
5
5
5
5
5
5
5
5
5
5
5
5
5
5
5
5
5
5
5
5
5
5
5
5
5
5
5
5
5
5
5
5
5
5
5
5
5
5
5
5
5
5
5
5
5
5
5
5
5
5
5
5
5
5
5
5
5
5
5
5
5
5
5
5
5
5
5
5
5
5
5
5
5
5
5
5
5
5
5
5
5
5
5
5
5
5
5
5
5
5
5
5
5
5
5
5
5
5
5
5
5
5
5
5
5
5
5
5
5
5
5
5
5
5
5
5
5
5
5
5
5
5
5
5
5
5
5
5
5
5
5
5
5
5
5
5
5
5
5
5
5
5
5
5
5
5
5
5
5
5
5
5
5
5
5
5
5
5
5
5
5
5
5
5
5
5
5
5
10
10
10
10
10
10
10
10
10
10
10
10
10
10
10
10
10
10
10
10
10
10
10
10
10
10
10
10
10
10
10
10
10
10
10
10
10
10
10
10
10
10
10
10
10
10
10
10
10
10
10
10
10
10
10
10
10
10
10
10
10
10
10
10
10
10
10
10
10
10
10
10
10
10
10
10
10
10
10
10
10
10
10
10
10
10
10
10
10
10
10
10
10
10
10
10
10
10
10
10
10
10
10
10
10
10
10
10
10
10
10
10
10
10
10
10
10
10
10
10
10
10
10
10
10
10
10
10
10
10
10
10
10
10
10
10
10
10
10
10
10
10
10
10
10
10
10
10
10
10
10
10
10
10
10
10
10
10
10
10
10
10
10
10
10
10
10
10
10
10
10
10
10
10
10
10
10
10
10
10
10
10
10
10
10
10
10
10
10
10
10
10
10
10
10
10
10
10
10
10
10
10
10
10
10
10
10
10
10
10
10
10
10
10
10
10
10
10
10
10
10
10
10
10
10
10
10
10
10
10
10
10
10
10
10
10
10
10
10
10
10
10
10
10
10
10
10
10
10
10
10
10
10
10
10
10
10
10
10
10
10
10
10
10
10
10
10
10
10
10
10
10
10
10
10
10
10
10
10
10
10
10
10
10
10
10
10
10
10
10
10
10
10
10
10
10
10
10
10
10
10
10
10
10
10
10
10
10
10
10
10
10
10
10
10
10
10
10
10
10
10
10
10
10
10
10
10
10
10
10
10
10
10
10
10
10
10
10
10
10
10
10
10
10
10
10
10
10
10
10
10
10
10
10
10
10
10
10
10
10
10
10
10
10
10
10
10
10
10
10
10
10
10
10
10
10
10
10
10
10
10
10
10
10
10
10
10
10
10
10
10
10
10
10
10
10
10
10
10
10
10
10
10
10
10
10
10
10
10
10
10
10
10
10
10
10
10
10
10
10
10
10
10
10
10
10
10
10
10
10
10
10
10
10
10
10
10
10
10
10
10
10
10
10
10
10
10
10
10
10
10
10
10
10
10
10
10
10
10
10
10
10
10
10
10
10
10
10
10
10
10
10
10
10
10
10
10
10
10
10
10
10
10
10
10
10
10
10
10
10
10
10
10
10
10
10
10
10
10
10
10
10
10
10
10
10
10
10
10
10
10
10
10
10
10
10
10
10
10
10
10
10
10
10
10
10
10
10
10
10
10
10
10
10
10
10
10
10
10
10
10
10
10
10
10
10
10
10
10
10
10
10
10
10
10
10
10
10
10
10
10
10
10
10
10
10
10
10
10
10
10
10
10
10
10
10
10
10
10
10
10
10
10
10
10
10
10
10
10
10
10
10
10
10
10
10
10
10
10
10
10
10
10
10
10
10
10
10
10
10
10
10
10
10
10
10
10
10
10
10
10
10
10
10
10
10
10
10
10
10
10
10
10
10
10
10
10
10
10
10
10
10
10
10
10
10
10
10
10
10
10
10
10
10
10
10
10
10
10
10
10
10
10
10
10
10
10
10
10
10
10
10
10
10
10
10
10
10
10
10
10
10
10
10
10
10
10
10
10
10
10
10
10
10
10
10
10
10
10
10
10
10
10
10
10
10
10
10
10
10
10
10
10
10
10
10
10
10
10
10
10
10
10
10
10
10
10
10
10
10
10
10
10
10
10
10
10
10
10
10
10
10
10
10
10
10
10
10
10
10
10
10
10
10
10
10
10
10
10
10
10
10
10
10
10
10
10
10
10
10
10
10
10
10
10
10
10
10
10
10
10
10
10
10
10
10
10
10
10
10
10
10
10
10
10
10
10
10
10
10
10
10
10
10
10
10
10
10
10
10
10
10
10
10
10
10
10
10
10
10
10
10
10
10
10
10
10
10
10
10
10
10
10
10
10
10
10
10
10
10
10
10
10
10
10
10
10
10
10
10
10
10
10
10
10
10
10
10
10
10
10
10
10
10
10
10
10
10
10
10
10
10
10
10
10
10
10
10
10
10
10
10
10
10
10
10
10
10
10
10
10
10
10
10
10
10
10
10
10
10
10
10
10
10
10
10
10
10
10
10
10
10
10
10
10
10
10
10
10
10
10
10
10
10
10
10
10
10
10
10
10
10
10
10
10
10
10
10
10
10
10
10
10
10
10
10
10
10
10
10
10
10
10
10
10
10
10
10
10
10
10
10
10
10
10
10
10
10
10
10
10
10
10
10
10
10
10
10
10
10
10
10
10
10
10
10
10
10
10
10
10
10
10
10
10
10
10
10
10
10
10
10
10
10
10
10
10
10
10
10
10
10
10
10
10
10
10
10
10
10
10
10
10
10
10
10
10
10
10
10
10
10
10
10
10
10
10
10
10
10
10
10
10
10
10
10
10
10
10
10
10
10
10
10
10
10
10
10
10
10
10
10
10
10
10
10
10
10
10
10
10
10
10
10
10
10
10
10
10
10
10
10
10
10
10
10
10
10
10
10
10
10
10
10
10
10
10
10
10
10
10
10
10
10
10
10
10
10
10
10
10
10
10
10
10
10
10
10
10
10
10
10
10
10
10
10
10
10
10
10
10
10
10
10
10
10
10
10
10
10
10
10
10
10
10
10
10
10
10
10
10
10
10
10
10
10
10
10
10
10
10
10
10
10
10
10
10
10
10
10
10
10
10
10
10
10
10
10
10
10
10
10
10
10
10
10
10
10
10
10
10
10
10
10
10
10
10
10
10
10
10
10
10
10
10
10
10
10
10
10
10
10
10
10
10
10
10
10
10
10
10
10
10
10
10
10
10
10
10
10
10
10
10
10
10
10
10
10
10
10
10
10
10
10
10
10
10
10
10
10
10
10
10
10
10
10
10
10
10
10
10
10
10
10
10
10
10
10
10
10
10
10
10
10
10
10
10
10
10
10
10
10
10
10
10
10
10
10
10
10
10
10
10
10
10
10
10
10
10
10
10
10
10
10
10
10
10
10
10
10
10
10
10
10
10
10
10
10
10
10
10
10
10
10
10
10
10
10
10
10
10
10
10
10
10
10
10
10
10
10
10
10
10
10
10
10
10
10
10
10
10
10
10
10
10
10
10
10
10
10
10
10
10
10
10
10
10
10
10
10
10
10
10
10
10
10
10
10
10
10
10
10
10
10
10
10
10
10
10
10
10
10
10
10
10
10
10
10
10
10
10
10
10
10
10
10
10
10
10
10
10
10
10
10
10
10
10
10
10
10
10
10
10
10
10
10
10
10
10
10
10
10
10
10
10
10
10
10
10
10
10
10
10
10
10
10
10
10
10
10
10
10
10
10
10
10
10
10
10
10
10
10
10
10
10
10
10
10
10
10
10
10
10
10
10
10
10
10
10
10
10
10
10
10
10
10
10
10
10
10
10
10
10
10
10
10
10
10
10
10
10
10
10
10
10
10
10
10
10
10
10
10
10
10
10
10
10
10
10
10
10
10
10
10
10
10
10
10
10
10
10
10
10
10
10
10
10
10
10
10
10
10
10
10
10
10
10
10
10
10
10
10
10
10
10
10
10
10
10
10
10
10
10
10
10
10
10
10
10
10
10
10
10
10
10
10
10
10
10
10
10
10
10
10
10
10
10
10
10
10
10
10
10
10
10
10
10
10
10
10
10
10
10
10
10
10
10
10
10
10
10
10
10
10
10
10
10
10
10
10
10
10
10
10
10
10
10
10
10
10
10
10
10
10
10
10
10
10
10
10
10
10
10
10
10
10
10
10
10
10
10
10
10
10
10
10
10
10
10
10
10
10
10
10
10
10
10
10
10
10
10
10
10
10
10
10
10
10
10
10
10
10
10
10
10
10
10
