# vtk DataFile Version 2.0
whisker_body, Created by Gmsh 4.13.1 
ASCII
DATASET UNSTRUCTURED_GRID
POINTS 502 double
9 0 0
7.42596586350763 0 20
12 0 0
7.27789759052289 0 60
8.737660977251272 0 3.333333333333333
8.475321954502544 0 6.666666666666667
8.212982931753814 0 10
7.950643909005087 0 13.33333333333333
7.688304886256358 0 16.66666666666667
8.221909118783412 3.660629787682195 0
6.022175457229734 6.688303429296539 0
2.781152949374546 8.559508646656376 0
-0.9407561694088541 8.950697058314462 0
-4.499999999999971 7.794228634059964 0
-7.281152949374503 5.290067270632291 0
-8.803328406604242 1.871205217359873 0
-8.803328406604258 -1.871205217359792 0
-7.281152949374553 -5.290067270632221 0
-4.500000000000045 -7.794228634059921 0
-0.9407561694089199 -8.950697058314455 0
2.781152949374503 -8.55950864665639 0
6.022175457229708 -6.688303429296562 0
8.221909118783401 -3.660629787682216 0
6.431075085433656 3.712982931753809 20
3.712982931753825 6.431075085433647 20
1.364587451706067e-14 7.42596586350763 20
-3.712982931753802 6.431075085433659 20
-6.431075085433638 3.712982931753841 20
-7.42596586350763 4.707849691031318e-14 20
-6.431075085433685 -3.712982931753759 20
-3.712982931753887 -6.431075085433611 20
-6.731995405277114e-14 -7.42596586350763 20
3.712982931753775 -6.431075085433675 20
6.43107508543364 -3.712982931753835 20
11.34980690040761 3.896393630456207 0
9.469686112756717 7.370552552276022 0
6.563377897469113 10.04599773915035 0
2.945825845689581 11.63280319127197 0
-0.9909521456679979 11.95901391608004 0
-4.820345095835646 10.98927991986068 0
-8.127378859508902 8.82868692807757 0
-10.55368501447787 5.71136871644487 0
-11.83633564083267 1.975135083368787 0
-11.83633564083267 -1.975135083368821 0
-10.55368501447786 -5.711368716444897 0
-8.12737885950888 -8.828686928077589 0
-4.820345095835619 -10.9892799198607 0
-0.9909521456679715 -11.95901391608004 0
2.945825845689616 -11.63280319127196 0
6.563377897469155 -10.04599773915032 0
9.469686112756747 -7.370552552275983 0
11.34980690040762 -3.896393630456205 0
6.302844199534381 3.638948795261439 60
3.638948795261455 6.302844199534372 60
1.337378586081774e-14 7.27789759052289 60
-3.638948795261432 6.302844199534386 60
-6.302844199534364 3.63894879526147 60
-7.27789759052289 4.613978646370539e-14 60
-6.302844199534409 -3.638948795261393 60
-3.63894879526151 -6.302844199534341 60
-6.597764390521311e-14 -7.27789759052289 60
3.638948795261406 -6.302844199534401 60
6.302844199534367 -3.638948795261465 60
11.70486859940768 0 3.75
11.40973719881536 0 7.5
11.11460579822304 0 11.25
10.81947439763072 0 15
10.5243429970384 0 18.75
10.22921159644608 0 22.5
9.934080195853765 0 26.25
9.638948795261445 0 30
9.343817394669125 0 33.75
9.048685994076806 0 37.5
8.753554593484488 0 41.25
8.458423192892168 0 45
8.163291792299848 0 48.75
7.868160391707529 0 52.5
7.573028991115209 0 56.25
-5.851525308307695 6.498777238246334 3.240497011877472
-5.851525308307758 -6.498777238246279 3.240497011877472
1.98707206266592 7.424557349265559 16.69767958900577
1.988984303131841 -7.422990474745235 16.7106258192859
-7.466525403784982 -1.871211610864478 16.55071623930685
7.844893262183208 2.852042429778519 8.294040783645144
7.872330198080286 -2.816016990724937 8.121382214231483
-5.354750405005603 5.517373401140365 16.66275891259732
-8.744967354205167 3.99064060528332e-14 3.240497011877475
1.16389911516366 -8.655865644474897 3.382821774816557
0.9140979988608866 8.697061508037795 3.240497011877471
7.28672916720212 2.845939953897625 14.95807204106259
7.286729167206937 -2.8459399538846 14.95807204106579
7.074827204806107 5.140162842580917 3.240497011877472
7.074827204806089 -5.140162842580938 3.240497011877483
-1.924509508890123 7.443996939929016 16.66105167224434
-3.957390524208462 6.88937994005673 13.40386996426179
-6.731309316520504 4.235927050745842 13.30068508795531
-5.620813119492411 5.978507091319718 10.09054504918272
-2.318125994379087 7.869864379973333 10.11192618330901
-7.723954418720336 2.811559131892917 9.913980264962355
-7.948500665733759 0.6437440108262508 13.02987920181519
-8.198064224319724 -0.8902114377540377 9.57722911702106
-7.440043671551536 -2.946753716331237 12.67634374443026
-7.037181725272978 -4.365106879705581 9.13489911274395
-5.198817388805828 -6.146935369118163 12.06298959277474
-4.285059636123846 -7.143145534581712 8.515167447116612
-1.997672296535418 -7.85795509214272 11.33511871993634
-2.982126328156472 -7.232534579242133 14.95251910146816
-0.7569904093509849 -8.36110199965289 7.683442731613932
1.803943630716301 -7.968850964441267 10.54000827526726
3.042188484488235 -7.888309219312341 6.929909993717337
5.089469684599099 -6.477415709801786 9.686005688075019
4.164163013775203 -6.791697394407507 13.13004049339295
0.008810516480888989 7.946148611462976 13.3903894413952
1.539613094452866 8.084622061032228 9.784841121195234
3.415391047548233 7.182054509782153 13.30611722220816
4.546130524150996 6.855565761553816 9.835368105014945
3.203432489798821 7.851786288381494 6.605632478883815
-7.417285856345298 2.045542831626557 16.59204180066622
-6.953673316643724 4.83675049646852 6.729167176667478
5.332912511012926 -5.541336533905812 16.63664694774087
-0.5760787537549559 8.449452183601048 6.746133584930835
-8.045980057983364 -2.73151738028876 6.391240951327255
5.304717918333673 5.565920841277445 16.65883748853103
-3.22184776501477 -8.054082539331375 4.134699056015146
7.645337523115369 -2.619001485853155 11.6708751606075
7.582537144132048 2.805500694080515 11.62737277154896
-8.363407930434731 1.403277829815401 6.603195256144794
4.35006814310336 -7.558866599703252 3.542324022031979
-4.186109361799456 7.357694290457739 6.795604143354215
4.461433395570227 7.520765759856809 3.246416923372517
-5.616032055606007 -5.246370659100982 16.70452906124756
-2.678620696193727 8.303865169830795 3.491613689715908
-8.005424244385273 3.517269501955001 3.252449773167271
6.279642155103637 5.703431251472903 6.567801260523624
6.183420142828059 -5.810524651829472 6.542455230644598
8.086860477413259 -2.933343519932757 5.051594973816804
8.121966217192741 2.839676297634814 5.030711417987616
-7.922305878847101 -3.707625367312461 3.215100285974803
0.5715547296596166 -7.900824538274588 13.70400997531247
6.166514668382571 5.041077832221841 13.15320005844694
-6.473329010347298 -5.517889724024497 6.277567611115183
6.105789036519064 -5.118245708904143 13.12231194354102
-0.4297589350670484 -7.645198271383013 17.06103091100519
7.127160153696761 2.694938988113037 17.53897478593328
7.166639349352307 -2.573704496650919 17.60105582776474
8.385861939513251 -2.65702845381795 2.582774362453302
8.393565525210057 2.635547963433118 2.571526754923265
6.81748230066353 -4.589501924914373 9.931560562305675
6.566998793062969 4.935910315787127 9.972469217585292
-3.628091201800602 -1.269572113836519 20
3.878798061432813 1.141927567495393 20
-0.6997538883513927 3.802456894757191 20
0.9504607479835953 -3.930101441098336 20
3.712982931753801 -2.143691695144558 20
1.124946241918946 -0.6828602631781857 20
1.258754394229665 1.709781517872712 20
2.430309430749763 4.037364976803397 20
-0.9027093129510517 -2.033983441680411 20
-1.203913276444862 0.6465486938794949 20
-3.85029704121532 2.220581915331286 20
-2.287399630659283 -4.133946812885044 20
-10.31983202371846 1.149080830487037e-14 0
0.9488176199968067 -10.27550570308071 0
0.9488176199968186 10.27550570308071 0
9.911860172928041 2.106830918111609 0
9.911860172928025 -2.106830918111621 0
8.935881143994854 -3.209627415059868 31.83128104831302
8.622259865243404 3.210721483584408 35.56901948640535
9.560740229175035 3.210769427521803 24.32635413700642
9.70479363407347 -3.716355517672122 20.43117751032401
7.572575793799106 -4.09758946533286 43.0725261603211
-11.73088669374763 -1.940162152660217e-14 3.419408766471456
-2.93356341489342 11.36350050067426 3.353765747894174
-7.290541649137687 1.984803379761022 56.46779818220659
7.694330858993568 3.154194830285126 46.81285440877583
-2.550778283412737 -11.45591304092289 3.348636435899146
10.49497893106745 3.195253963268123 13.07967085456085
-1.949325425597162 -7.274981528814155 56.7762135102464
10.30028872730695 -3.761722649871375 13.14206888421812
-1.976212442307552 7.275357946767365 56.68260865122541
7.358006790879124 -3.190129739543207 50.57323636838945
7.525537753436183 9.008657493085222 3.324163033449048
4.712243512000845 -10.74283313214679 3.419408766471714
-9.257317901175377 7.20525973842184 3.419408766471709
-9.257317901175359 -7.205259738421862 3.419408766471709
7.037746588842867 3.184812749282433 54.32125868882564
11.10107250334919 -3.225331996075627 5.589093889147453
4.860641625241934 -5.775290174685608 56.56170290324955
11.10107250334962 3.22533199607392 5.589093889148325
8.302498260544249 3.219399699765722 39.32785339379618
6.767990550768168 6.028531846019131 37.31046639484082
7.1561374373903 6.029827549225469 33.57185725044894
4.459516505363632 8.07916914395812 35.2186546684297
4.03726469586814 7.96948964214527 38.96012839271994
4.877740297785107 8.178981872165188 31.4728916166187
7.520309771481806 6.052851286960895 29.81378956583192
5.277334135415425 8.280104071247269 27.71377373905037
1.923148430858776 9.49895701911773 29.32997136373502
2.464358994756387 9.680334675724991 25.55101784553294
-1.103463566948654 9.80808709383358 27.06466390609456
-0.5956968721073074 10.14822986869925 23.30701150773297
-3.982604614699079 9.229425708488868 24.75122265255619
-4.40212492057993 8.707793630796385 28.49655016365561
-3.553124035786846 9.718833925803832 20.99106814265381
-6.570573797032475 7.854840132300438 22.35463580261689
-6.253481667766271 8.480387363219215 18.59241302623172
-8.665669585966803 5.814376506269245 19.87816128611652
-8.8118071220996 5.018929650410747 23.622263861378
-10.04801131282863 2.447857024148282 21.06837938141427
-9.929237850984048 1.548383401381416 24.78673642794851
-10.18091864893847 -1.242852275936011 22.15327163310771
-9.737143862762657 -2.122814665780092 25.84623298060024
-9.015913597590666 -4.724573926518793 23.14033575231139
-8.222622840338536 -5.497644949143086 26.79498012324179
-9.197202449421399 -3.009072282229524 29.51735401381464
-9.712632359766667 -3.902713115655338 19.4735692795692
-7.659489634273101 -7.029596552183039 20.37696775713825
-3.108460018816291 10.18166752779877 17.20923716048111
-7.332394637012778 -6.204057620828051 30.43247349677862
-8.558227217383159 -3.862089403382325 33.17206625808665
-6.323319077861125 -6.84704837718311 34.04987777709021
-7.802784747782774 -4.688778697823762 36.80744187430816
-5.568695792453771 -8.09431811440656 27.63746084531024
-9.096661336310383 -1.22337936950202 35.84983521480454
-8.605894975505427 -2.241471304483646 39.47805456937944
-6.93250904852404 -5.449707920275151 40.42979322884231
-8.05187039335263 -3.033739004321929 43.14482714337586
-6.011723089674582 -6.057232799697049 44.03841944630597
-10.10124492618864 3.328350766599845 17.33808968193387
-8.663007553761998 0.5998598237039277 42.13693856384484
-8.588516489312555 -6.354532359063732 16.72443320626577
-5.844774745359044 -8.86427249187833 17.56308952470697
2.941860420317556 9.857248191706278 21.76726302345099
1.158669650468643 9.03210376952226 36.77023705870678
0.6933706929698074 8.78474499369918 40.50654184873146
-4.053644662027241 -7.759752545423802 41.23470420985013
-2.844165801744913 -7.982613764245725 44.80003447762223
-5.888564046916641 9.094015674331169 14.81499397023413
-7.382172758807954 -3.834128417944132 46.77821876145224
-6.969582184328739 -8.386510101814606 13.91935175143824
-3.665200507920996 -10.20588281799837 14.6875507943682
-2.350077137213913 -10.29472361075972 18.30259210460662
0.07553110968990209 -10.790865310309 15.36015418386934
-9.378847619607839 -5.690641384593466 13.08433190179717
-2.311248829162325 8.68984928207667 38.22076711079207
-2.639135406717508 10.62160768464617 13.41052532800753
1.435635350978262 -10.41164542148404 18.93024469472615
-0.4992510633867022 -8.686669944972206 41.9177071004563
3.79373459855749 -10.05438836810804 15.92966011599398
-2.757987307179771 8.249994504228161 41.94588238741866
0.2268866609168426 8.514846963692476 44.24466636791801
-3.191779749716208 7.77645302230333 45.66621804219201
-0.3424409564484934 8.224955519104729 47.87594907848778
0.8608134322278648 -8.380456574966457 45.43039258434479
2.495886955657835 -10.73870671259418 12.38932838377752
-3.694056164938622 7.232952242058065 49.27875684583398
-5.535450030340695 9.660184010117954 11.006765210722
-1.526336930167138 -8.052226267239824 48.33933574731471
0.4339958998891368 10.75222231364161 15.74327334070982
0.8872411807343293 11.02633383812585 11.91876990433474
3.899735232150885 10.16226858855371 14.16951202078918
-0.9954818056051791 -10.22920517479757 21.88605669909299
2.76310166827729 -9.8513478558078 22.47080313894162
-4.990185696266556 -9.94101287081771 11.14073637672548
-1.84588623745506 -8.787155483135971 38.38618284966641
1.886655669594991 -8.730264915261001 38.98521729892652
0.5410721387641145 -9.19155967954128 35.48244093734903
4.145568396504175 -8.175410302439332 36.00417561042057
2.950023836117683 -8.967850568601888 32.52022265272029
4.329004523104911 10.31183016319619 10.3726567507444
-8.270089244682614 7.295942834354392 12.34560694739109
-6.049435113366516 5.687507062443022 46.97208990597355
-5.428992488725052 7.03404349020901 39.57374848427829
-5.069747270990484 7.650882504657127 35.85507093009757
0.3716413363293406 -9.991023053004692 25.43867659330661
4.03324073990422 -9.10171135749216 25.98026041611122
5.982174370457127 -9.213810336214477 12.89073336617302
-8.926368026854707 4.161145818476097 27.33596197948327
-6.300501365310152 4.950362650008269 50.66420613310064
7.040122809903528 -8.070831683644185 16.39245551701516
2.198198588283567 -7.8478450458308 48.92025326624263
-0.818829390046811 -9.449261608988049 31.96025675374488
6.127522425289398 -8.146239110412097 22.95357159022817
7.111026085164046 -6.91872385323758 26.41031431670672
-7.549656475177702 5.042850996587743 37.11523124733927
-7.326574321198529 5.841928717013131 33.41059098966979
-7.822159920924947 2.486719779780418 48.18293683301264
1.358780479410735 11.28171290610576 8.090742999016728
6.9743612106411 8.525011746845724 12.52292840378263
6.562798032367787 8.468744823356717 16.34008388346227
3.12887778423924 7.735123082254223 46.45413632038139
2.099714689986831 7.76263522904963 50.2962590626429
5.010368951176321 -7.349413351349717 39.45515938593602
4.238420680522895 -7.258454086765489 45.67476929793043
4.927156738061048 -10.12718793168021 9.374829603413234
7.724279739093391 -8.149610525596739 9.802023923998254
1.18047787897672 -11.24083036530029 8.860729036336826
7.054616888814406 -5.803062735154809 36.40680156443097
-7.699837697730925 1.860065299637516 51.82451670827017
-0.3428510874283264 -7.913562912141503 51.82878249784659
-3.944806773720175 -6.927426028780874 51.18222809141462
7.486268535548584 8.468753366001522 8.852744863905293
3.371503342409563 -7.109057526627939 52.50178789568257
-8.125011275598029 7.883979281285977 8.62308171730044
-10.11000936921544 4.877092686233505 9.848611831787444
-5.113443496053126 10.22772513755488 7.182094268399173
-3.620614168645694 6.929570663550996 53.13192608227502
-5.230911528343735 5.427046204952969 56.70029261565299
-0.2764209289121197 7.800613248103184 53.2960574809453
1.816579166018117 7.315415645173059 56.70029261565298
5.056856414803113 -8.25682881401521 29.44911456719772
-8.930218856799199 2.511631928773117 34.60284784198793
-8.827055701852084 1.696372259440271 38.2637043724431
-7.750443780389103 4.117328639882669 40.96219950033299
6.474313839368746 -9.494828380337871 6.453402192066633
3.462750173233722 10.00262008976749 17.97878608577519
6.106301992634126 8.437765608772397 20.13287634160594
8.637159890356605 6.056929124173484 18.43337847764959
-3.347328415562879 -9.475274014786958 24.78789353244688
5.007461223649528 -9.191722646706621 19.47597515781388
5.699365468849359 8.357993765545501 23.93511693780794
-0.09916712240878499 10.46296064890472 19.52396554701501
7.924862414640606 -6.788065805585174 19.89004660729208
9.385186467205346 -5.092089630097272 16.80270890408975
5.879694935561798 -7.338292386419282 32.99467694286027
3.591089673844734 7.857163136165242 42.70657147691796
1.574023060690266 -9.585579553438988 29.04698050911528
-6.66057327018513 -7.605331416609971 24.01962713802963
8.939159099780769 3.201831944745365 31.82551795508443
7.977279881142592 3.242115591876951 43.06207537169645
7.665094419861371 -3.182708045379109 47.01808378493669
8.316348186140358 -3.169789971389326 39.38979460182681
7.369208621376822 3.164237160371063 50.5728871593084
2.084659053122953 -7.243572840188674 56.70038960242871
8.753290251111043 -6.585876031353457 13.28852259924919
-5.345356727469243 -5.306229458012984 56.77310623084348
-7.315382307578586 -1.816746427087778 56.70019150813178
-6.756053512940534 -3.88099370192657 53.47496043313234
-5.760160975062185 6.378327908988004 43.27313050817536
9.103581900824111 -3.615041720446022 28.01607553126607
9.543862853863963 -3.245777242835507 24.38709715418363
-6.933981761610343 7.131347321409828 26.0900482330313
3.077099808837167 -8.092545564478401 42.46643083408075
-4.655410230908504 -9.218889078357034 21.24897190123682
9.878638670053299 3.190145935112773 20.57172976301183
10.80596429120219 3.182970038162902 9.339095714118459
-9.737677903565029 0.6240718197189725 28.49169108418937
1.522364659214954 9.277103749593383 33.02109659154956
-1.86554288413902 9.09833692790696 34.46398730650069
-8.47531414603425 6.581642965062078 16.12736313122856
10.8023983141443 -3.225268777581443 9.229724530980288
7.864792131608759 6.09146869074313 26.07425478365716
-2.223438877486215 11.01755369025533 9.660915401282498
-9.46269295849685 -0.3017439701300796 32.17842913675231
-4.901866587110449 -6.634383711985187 47.66302087526135
-10.11893052210904 4.135984518513699 13.5757483365071
-11.04570229378027 1.417778117453126 10.97408873916896
-11.1241444567196 2.647147085938113 7.181921082719397
-11.28527931994659 -1.202941436116748 8.269054296552863
-10.8656181941605 -4.046164477190875 5.151995904481852
-8.847695656744817 -7.226128440774727 7.323848781406489
-6.939772849299122 -9.217087832009843 5.875931903523104
-10.82714394051288 0.5278252840059326 14.73917086308426
-3.115497476570217 -8.715448388138109 34.87143422231924
-5.229640263152236 -7.365231261708002 37.69883132096179
5.140043580034561 5.521525034236217 56.622763737726
-10.53955916729599 -0.3407720649125348 18.48667958375673
-10.29366463588529 -3.117544686562745 15.81414988758007
-1.294949615656123 -10.99434955358659 11.81234188937588
-8.389290466434943 -0.321119267333593 45.800353531327
9.251255925413759 3.207691907416395 28.06064660747617
-7.880977765812449 -1.786091514378094 49.79768210871775
6.059667810469477 5.927271619625639 44.76950999848624
5.481403254688127 6.062833914569921 48.62213112262966
6.380574006618952 6.009592391538848 41.10333985809993
8.227613386681865 6.107958874817013 22.27411661432084
5.299283605554569 5.8321892922704 52.34759739794782
7.03759725001755 -3.185082735785535 54.32157302866641
-4.386440564869988 -8.473881615827679 31.23333834518499
-2.153039029136757 -9.526522911724529 28.37560465105431
-7.11937660538018 6.525220326616389 29.76644410247238
-8.930190779802068 3.40979617710592 31.01548930385376
-11.07844094565738 3.830840236728569 3.531291521772172
9.480167587765068 -6.459705938411934 6.711869763525177
1.131937679155929 -11.68135689486795 3.35352546334882
-7.796539518917633 3.355283378519763 44.62582945454445
-6.433942319861685 9.815429035037143 3.351966923415254
4.488214955899196 10.84588135477766 3.330881111054233
0.8062451548362479 11.71199868361771 3.307214945615138
-4.771250776723305 8.174871654646743 32.20543957768486
-1.555418112633602 9.448706246322631 30.80143305507157
5.4448706571658 -6.018579708373646 49.35053740780478
10.21241057880971 3.107581119887502 16.83883671378939
-10.82904069505969 -2.18198203907798 12.11306243704524
9.282210415544268 6.140463112173986 11.06135220984365
8.933168127854586 6.139088784240783 14.74839696370825
-2.897317330173098 -10.95486373229127 8.493764356093445
9.672386059089398 6.067501565908564 7.395621358046155
-7.899979161008796 -7.912886612018402 10.40144731209247
10.2057721168325 -5.8146822200432 3.227485356437227
-6.553293041883128 -4.68613858002691 50.1082177617571
9.914881402607806 6.29262761858319 3.263337848972882
6.055163101500312 -6.126535124299131 43.02436214200029
8.733452378570876 -2.889738086058927 35.58857690392909
7.714595251605263 -5.79890128118807 29.84658859491528
8.033773104559421 -8.594522446817265 2.990223427871836
5.100719733101596 10.26435876927348 6.837623852811777
-6.291010219034097 4.55192957170541 53.80942920959694
-9.890750823364424 5.859543213562728 6.402168421973619
-10.21710604901414 -4.624394297428699 9.975473304131066
3.430126234234681 -10.96580552141809 6.483174171299474
-0.999779040201681 11.45536490015364 6.366945536215883
-6.345277297931435 -9.923592846785066 2.810553407270798
8.116102340362756 -6.168326294787622 22.94632728978354
-3.626286406178197 -6.820466480483968 54.32470733767266
-7.721740298503523 -0.8891513320684606 53.71212352649867
2.617716920624073 7.322551546312288 53.66608476339557
5.841543164577506 -5.29052961688291 52.33430258056747
-0.7472271538335833 -11.49132970280215 6.154905767394699
6.974283203917073 2.738681650490269 57.27029496481619
6.818876782247138 -3.132958185713934 57.12498708662163
10.42125197722616 -2.306573732326239 16.85527288830041
9.520320641007455 -5.85682461970829 10.44949298632567
11.46410595137761 2.734906707860012 2.721475900470036
11.46410595137739 -2.734906707861941 2.721475900467181
-0.3276914827224287 -7.692010784311012 54.64954284913402
-4.35530711485352 -10.68030404344423 5.918646620413151
7.78819945856058 -5.172834946989592 33.67703327991393
-7.815478025073531 8.512649027717144 5.638391453980566
-1.201845431813311 7.922886912290853 50.65297819566974
6.50475915709856 -5.323754050037014 45.67107836584796
6.929792522788655 -5.480450474366254 40.21503961159589
-6.286414415877529 -9.41340704443253 8.646483565153526
-11.19151833672801 -3.853912192044479 2.077470048225951
2.633898073030535 11.25369471867767 5.618506165343842
8.007198785866892 8.272761987146408 6.185353397973196
-3.701498499457172 0.7003160221705068 60
3.851738121937664 -0.931509262873081 60
-1.119158375460275 -3.801457693759516 60
1.269397997940749 3.570264453056938 60
2.100948066511433 -3.638948795261449 60
0.6201842895985421 -1.130840590299121 60
-1.762894954313782 -1.284003716926086 60
-3.967207069091672 -2.387823063885131 60
1.906222097854563 0.8343620008315338 60
4.041174800508617 2.235818364301867 60
-0.7050019238897451 1.138717118726257 60
-2.179815903366991 3.771498029878741 60
-0.3820656276919827 -0.6182913595288619 28.9177848121853
0.01596464597945046 -0.002638814918833887 37.88167323217515
0.5246755264409328 0.3350566803778547 52.90059838570973
-0.2593530594159791 -0.8595009148658068 45.43213928162688
3.373158166049704 1.406017893962834 33.12392953603588
4.06155859386586 1.63956993112012 25.83606650331772
-2.325184115003132 2.782444491413754 33.28242238354201
0.8424404307329469 -3.730959672227337 33.58911778778875
-1.142266383665016 4.170417519585572 25.7584542410389
2.588120481343898 -3.734775941106731 25.34557001434222
0.3255097560620752 3.557798149698916 41.99115523497348
-4.585649172686403 -0.1490579792910296 25.34015528261313
-3.828649447429223 -1.904454156087641 34.94830679106359
-3.327630088527883 -1.852955178301805 41.37864389105552
2.163053527648326 -3.098260972856254 41.43753125948388
-0.382065627691984 -0.6182913595288697 24.13211758584256
-0.5849543534458523 3.188476668045539 48.79098336543978
-2.178762131399828 -4.608815665331288 26.52495119901393
2.192436089782097 4.523194553184243 29.43210915658122
4.278089200958066 -2.181750038947907 29.77619396845503
1.917324655809943 4.269157832432811 36.71623318118592
-5.029668418065547 0.1495360703540056 30.19013931903108
3.271154337751996 -0.8769373229841442 48.93521598563756
4.065059957463678 1.13443575958984 40.20029293551819
-1.778693991615293 -2.62907540586125 55.5852880714453
4.158882191968174 -1.890606658921601 36.47417492538771
-2.907391227286269 -1.295407887955272 49.65076432824817
-3.568041489626572 2.483232484468691 39.60666179474632
3.6233849066931 1.768187546087359 44.85982377299047
-2.94602124928153 -4.119566999648535 31.02497647021919
-0.3150712365829262 -4.534930339998588 37.90951409401259
-3.210666726696688 2.678355889789858 44.86665411381392
3.369322616750334 0.4916521623208275 56.03769920416193
-2.353264180879995 1.944870632165471 55.92156547900326
1.085690080047069 -5.213989571894728 29.4366969410046
-3.224504557315381 4.677817991619905 29.5076822051441
2.658701173432965 5.318425710774967 24.10108260428908
5.704641842290712 1.727091916286538 29.65971433178101
0.1686040392091788 -4.057785979884143 48.33321510376854
-4.839782921674102 3.749184283083101 23.86174293348378
-1.057522918490704 -4.466813094532168 43.61066337716168
-2.088171981107171 4.924656917366993 36.72167566729948
-5.187890472130148 1.773009212813146 35.96339968992393
3.766711140512472 -2.320397911943367 45.12984726174746
-5.16874272311559 -3.872544314335947 23.93969140304224
0.7255487646453371 5.358352465299616 33.05752040628196
-4.385014540138516 -1.332371360184212 45.3611875344827
-3.443124184537271 2.175066200630704 51.90187475416186
2.241620297676647 -3.247732390980954 54.38474482610405
6.015934240774268 -1.839494980610512 26.18356433731753
-5.412293394194553 -3.15926384406661 28.15805124724336
5.275258202652639 2.434080423018105 36.89118860817547
0.08815331335829013 -6.393261808861983 23.81795140159437
4.231679162217327 1.358866224069417 52.3502588283124

CELLS 2558 11726
1 0
1 1
1 2
1 3
2 0 4
2 4 5
2 5 6
2 6 7
2 7 8
2 8 1
2 0 9
2 9 10
2 10 11
2 11 12
2 12 13
2 13 14
2 14 15
2 15 16
2 16 17
2 17 18
2 18 19
2 19 20
2 20 21
2 21 22
2 22 0
2 1 23
2 23 24
2 24 25
2 25 26
2 26 27
2 27 28
2 28 29
2 29 30
2 30 31
2 31 32
2 32 33
2 33 1
2 2 34
2 34 35
2 35 36
2 36 37
2 37 38
2 38 39
2 39 40
2 40 41
2 41 42
2 42 43
2 43 44
2 44 45
2 45 46
2 46 47
2 47 48
2 48 49
2 49 50
2 50 51
2 51 2
2 3 52
2 52 53
2 53 54
2 54 55
2 55 56
2 56 57
2 57 58
2 58 59
2 59 60
2 60 61
2 61 62
2 62 3
2 2 63
2 63 64
2 64 65
2 65 66
2 66 67
2 67 68
2 68 69
2 69 70
2 70 71
2 71 72
2 72 73
2 73 74
2 74 75
2 75 76
2 76 77
2 77 3
3 4 145 0
3 0 146 4
3 9 146 0
3 0 145 22
3 8 143 1
3 1 144 8
3 1 143 23
3 33 144 1
3 5 135 4
3 4 136 5
3 135 145 4
3 4 146 136
3 5 83 6
3 6 84 5
3 5 136 83
3 84 135 5
3 7 124 6
3 6 125 7
3 83 125 6
3 6 124 84
3 7 89 8
3 8 90 7
3 7 125 89
3 90 124 7
3 89 143 8
3 8 144 90
3 10 91 9
3 91 146 9
3 11 129 10
3 10 129 91
3 12 88 11
3 88 129 11
3 13 131 12
3 12 131 88
3 14 78 13
3 78 131 13
3 15 132 14
3 14 132 78
3 16 86 15
3 86 132 15
3 17 137 16
3 16 137 86
3 18 79 17
3 79 137 17
3 19 123 18
3 18 123 79
3 20 87 19
3 87 123 19
3 21 127 20
3 20 127 87
3 22 92 21
3 92 127 21
3 22 145 92
3 23 122 24
3 23 143 122
3 24 80 25
3 24 122 80
3 25 93 26
3 80 93 25
3 26 85 27
3 26 93 85
3 27 117 28
3 85 117 27
3 28 82 29
3 28 117 82
3 29 130 30
3 82 130 29
3 30 142 31
3 30 130 106
3 106 142 30
3 31 81 32
3 31 142 81
3 32 119 33
3 81 119 32
3 119 144 33
3 118 128 78
3 78 132 118
3 128 131 78
3 123 140 79
3 79 140 137
3 80 112 93
3 80 114 112
3 80 122 114
3 111 119 81
3 81 138 111
3 81 142 138
3 99 101 82
3 82 117 99
3 101 130 82
3 83 148 125
3 83 136 133
3 133 148 83
3 124 147 84
3 134 135 84
3 84 147 134
3 93 94 85
3 94 95 85
3 95 117 85
3 121 126 86
3 86 137 121
3 126 132 86
3 87 109 107
3 107 123 87
3 87 127 109
3 88 120 116
3 116 129 88
3 88 131 120
3 89 139 122
3 122 143 89
3 125 139 89
3 119 141 90
3 90 144 119
3 90 141 124
3 129 133 91
3 133 136 91
3 136 146 91
3 92 134 127
3 92 135 134
3 92 145 135
3 93 112 94
3 94 96 95
3 94 97 96
3 94 112 97
3 96 98 95
3 98 99 95
3 99 117 95
3 97 128 96
3 96 118 98
3 96 128 118
3 112 113 97
3 113 120 97
3 120 128 97
3 98 100 99
3 98 126 100
3 118 126 98
3 100 101 99
3 100 102 101
3 100 121 102
3 100 126 121
3 102 103 101
3 103 130 101
3 102 104 103
3 102 140 104
3 121 140 102
3 104 105 103
3 105 106 103
3 106 130 103
3 104 107 105
3 104 123 107
3 104 140 123
3 105 138 106
3 107 108 105
3 108 138 105
3 138 142 106
3 107 109 108
3 109 110 108
3 110 111 108
3 111 138 108
3 109 134 110
3 127 134 109
3 110 141 111
3 134 147 110
3 110 147 141
3 111 141 119
3 112 114 113
3 114 115 113
3 115 116 113
3 116 120 113
3 114 139 115
3 122 139 114
3 115 133 116
3 115 148 133
3 139 148 115
3 116 133 129
3 118 132 126
3 120 131 128
3 137 140 121
3 141 147 124
3 125 148 139
3 23 150 1
3 1 153 33
3 150 153 1
3 24 156 23
3 23 156 150
3 25 156 24
3 26 151 25
3 151 156 25
3 27 159 26
3 26 159 151
3 28 159 27
3 29 149 28
3 149 159 28
3 30 160 29
3 29 160 149
3 31 160 30
3 32 152 31
3 152 160 31
3 33 153 32
3 32 153 152
3 157 158 149
3 149 160 157
3 158 159 149
3 150 154 153
3 150 155 154
3 150 156 155
3 155 156 151
3 151 158 155
3 151 159 158
3 153 154 152
3 154 157 152
3 157 160 152
3 155 158 154
3 154 158 157
3 0 164 2
3 2 165 0
3 9 164 0
3 0 165 22
3 2 164 34
3 51 165 2
3 10 35 9
3 35 34 9
3 34 164 9
3 11 36 10
3 36 35 10
3 12 163 11
3 37 36 11
3 11 163 37
3 39 12 13
3 38 12 39
3 38 163 12
3 14 40 13
3 40 39 13
3 15 41 14
3 14 41 40
3 16 161 15
3 42 41 15
3 15 161 42
3 16 17 44
3 44 43 16
3 43 161 16
3 45 17 18
3 44 17 45
3 19 46 18
3 18 46 45
3 20 162 19
3 19 47 46
3 19 162 47
3 21 49 20
3 20 49 48
3 48 162 20
3 22 50 21
3 21 50 49
3 22 51 50
3 22 165 51
3 37 163 38
3 42 161 43
3 47 162 48
3 34 423 2
3 2 424 51
3 2 423 63
3 63 424 2
3 3 419 52
3 62 420 3
3 77 419 3
3 3 420 77
3 35 401 34
3 401 423 34
3 36 181 35
3 181 401 35
3 37 387 36
3 36 387 181
3 38 388 37
3 37 388 387
3 39 172 38
3 172 388 38
3 40 386 39
3 39 386 172
3 41 183 40
3 183 386 40
3 42 382 41
3 41 382 183
3 43 171 42
3 171 382 42
3 44 433 43
3 43 433 171
3 45 184 44
3 184 433 44
3 46 412 45
3 45 412 184
3 47 175 46
3 175 412 46
3 48 384 47
3 47 384 175
3 49 182 48
3 182 384 48
3 50 405 49
3 49 405 182
3 51 399 50
3 399 405 50
3 51 424 399
3 52 365 53
3 52 419 365
3 53 309 54
3 53 365 309
3 54 179 55
3 54 309 179
3 55 307 56
3 179 307 55
3 56 173 57
3 56 307 173
3 57 336 58
3 173 336 57
3 58 335 59
3 58 336 335
3 59 177 60
3 59 335 177
3 60 333 61
3 177 333 60
3 61 187 62
3 61 333 187
3 187 420 62
3 64 186 63
3 63 188 64
3 186 424 63
3 63 423 188
3 64 345 65
3 65 350 64
3 64 350 186
3 188 345 64
3 65 176 66
3 66 178 65
3 65 345 176
3 178 350 65
3 66 392 67
3 67 421 66
3 176 392 66
3 66 421 178
3 68 169 67
3 67 344 68
3 169 421 67
3 67 392 344
3 68 168 69
3 69 340 68
3 68 344 168
3 68 340 169
3 70 339 69
3 69 370 70
3 168 370 69
3 339 340 69
3 71 166 70
3 70 328 71
3 166 339 70
3 70 370 328
3 71 167 72
3 72 403 71
3 71 403 166
3 71 328 167
3 72 189 73
3 73 331 72
3 167 189 72
3 331 403 72
3 74 170 73
3 73 329 74
3 170 331 73
3 189 329 73
3 74 174 75
3 75 330 74
3 74 330 170
3 74 329 174
3 76 180 75
3 75 332 76
3 174 332 75
3 180 330 75
3 76 185 77
3 77 377 76
3 76 377 180
3 76 332 185
3 185 419 77
3 77 420 377
3 166 404 339
3 403 427 166
3 166 427 404
3 167 190 189
3 167 191 190
3 167 328 191
3 344 375 168
3 351 370 168
3 168 375 351
3 322 323 169
3 169 413 322
3 323 421 169
3 340 413 169
3 330 430 170
3 170 431 331
3 170 430 402
3 402 431 170
3 171 358 357
3 357 382 171
3 171 359 358
3 171 433 359
3 172 386 305
3 305 411 172
3 172 411 388
3 173 407 298
3 298 415 173
3 307 407 173
3 173 415 336
3 329 372 174
3 174 373 332
3 372 373 174
3 384 418 175
3 175 426 412
3 418 426 175
3 345 394 176
3 176 395 392
3 394 395 176
3 177 425 333
3 335 414 177
3 414 425 177
3 323 334 178
3 178 421 323
3 334 422 178
3 178 422 350
3 306 307 179
3 179 308 306
3 179 309 308
3 180 391 330
3 377 417 180
3 180 417 391
3 387 406 181
3 181 435 401
3 406 435 181
3 182 405 314
3 314 410 182
3 182 410 384
3 382 408 183
3 183 428 386
3 408 428 183
3 184 360 359
3 359 433 184
3 184 361 360
3 184 412 361
3 332 376 185
3 185 376 365
3 365 419 185
3 350 383 186
3 383 399 186
3 399 424 186
3 187 333 302
3 302 417 187
3 187 417 377
3 377 420 187
3 188 397 345
3 188 401 397
3 188 423 401
3 190 374 189
3 189 374 329
3 191 192 190
3 192 193 190
3 193 374 190
3 191 194 192
3 191 195 194
3 191 328 195
3 192 233 193
3 194 347 192
3 192 347 233
3 233 234 193
3 234 325 193
3 325 374 193
3 195 196 194
3 196 197 194
3 197 347 194
3 195 351 196
3 328 370 195
3 195 370 351
3 196 198 197
3 196 320 198
3 196 351 320
3 198 199 197
3 199 390 197
3 197 390 347
3 198 200 199
3 198 232 200
3 198 320 232
3 200 201 199
3 201 202 199
3 202 390 199
3 200 203 201
3 200 321 203
3 232 321 200
3 201 341 202
3 203 204 201
3 204 341 201
3 341 380 202
3 380 389 202
3 389 390 202
3 203 205 204
3 203 217 205
3 203 321 217
3 205 206 204
3 206 207 204
3 207 341 204
3 205 349 206
3 217 237 205
3 237 349 205
3 206 208 207
3 206 228 208
3 206 349 228
3 208 209 207
3 209 277 207
3 277 341 207
3 208 210 209
3 208 366 210
3 228 366 208
3 210 211 209
3 211 346 209
3 209 346 277
3 210 212 211
3 210 215 212
3 210 366 215
3 212 213 211
3 213 214 211
3 214 346 211
3 212 327 213
3 215 216 212
3 216 327 212
3 213 218 214
3 213 222 218
3 213 327 222
3 218 219 214
3 219 353 214
3 214 353 346
3 215 230 216
3 215 367 230
3 366 367 215
3 230 231 216
3 231 343 216
3 216 343 327
3 217 245 237
3 217 258 245
3 217 321 258
3 218 220 219
3 218 378 220
3 222 378 218
3 220 221 219
3 221 223 219
3 223 353 219
3 220 364 221
3 363 364 220
3 220 378 363
3 221 224 223
3 221 225 224
3 221 364 225
3 222 327 318
3 318 379 222
3 222 379 378
3 224 312 223
3 223 312 311
3 311 353 223
3 225 226 224
3 226 229 224
3 229 312 224
3 225 227 226
3 225 235 227
3 225 364 235
3 227 238 226
3 226 369 229
3 238 369 226
3 235 236 227
3 236 354 227
3 227 354 238
3 349 355 228
3 355 362 228
3 362 366 228
3 229 313 312
3 229 385 313
3 369 385 229
3 230 239 231
3 230 243 239
3 230 367 243
3 239 240 231
3 240 241 231
3 241 343 231
3 232 316 315
3 315 321 232
3 232 320 316
3 233 244 234
3 233 348 244
3 347 348 233
3 244 249 234
3 249 250 234
3 250 325 234
3 235 247 236
3 235 264 247
3 235 364 264
3 247 253 236
3 253 257 236
3 257 354 236
3 245 256 237
3 256 270 237
3 270 349 237
3 354 400 238
3 238 371 369
3 238 400 371
3 239 263 240
3 243 398 239
3 239 398 263
3 240 242 241
3 240 368 242
3 263 368 240
3 242 246 241
3 246 261 241
3 261 343 241
3 242 248 246
3 242 254 248
3 242 368 254
3 367 393 243
3 393 409 243
3 243 409 398
3 244 272 249
3 244 273 272
3 244 348 273
3 245 352 256
3 258 259 245
3 259 352 245
3 248 319 246
3 246 262 261
3 246 319 262
3 247 342 253
3 264 265 247
3 265 342 247
3 254 276 248
3 276 279 248
3 279 319 248
3 249 251 250
3 249 338 251
3 272 338 249
3 251 252 250
3 252 290 250
3 290 325 250
3 251 255 252
3 251 271 255
3 251 338 271
3 255 429 252
3 252 291 290
3 252 429 291
3 253 280 257
3 253 293 280
3 253 342 293
3 254 294 276
3 254 296 294
3 254 368 296
3 271 278 255
3 278 306 255
3 306 429 255
3 256 303 270
3 256 305 303
3 256 352 305
3 280 299 257
3 299 300 257
3 300 354 257
3 258 260 259
3 258 315 260
3 258 321 315
3 260 269 259
3 269 287 259
3 287 352 259
3 260 288 269
3 260 289 288
3 260 315 289
3 262 274 261
3 274 318 261
3 318 343 261
3 262 275 274
3 262 282 275
3 262 319 282
3 263 396 368
3 263 432 396
3 398 432 263
3 264 266 265
3 264 363 266
3 264 364 363
3 266 267 265
3 267 292 265
3 292 342 265
3 266 268 267
3 266 281 268
3 266 363 281
3 268 324 267
3 267 297 292
3 267 324 297
3 281 326 268
3 310 324 268
3 268 326 310
3 269 406 287
3 288 301 269
3 301 406 269
3 303 304 270
3 304 355 270
3 270 355 349
3 271 286 278
3 271 385 286
3 338 385 271
3 273 284 272
3 284 313 272
3 313 338 272
3 273 285 284
3 273 389 285
3 348 389 273
3 275 326 274
3 274 379 318
3 326 379 274
3 282 283 275
3 283 310 275
3 310 326 275
3 276 334 279
3 294 295 276
3 295 334 276
3 277 380 341
3 346 381 277
3 277 381 380
3 286 298 278
3 298 407 278
3 278 407 306
3 279 322 319
3 279 323 322
3 279 334 323
3 293 391 280
3 280 302 299
3 280 391 302
3 281 379 326
3 363 378 281
3 378 379 281
3 282 413 283
3 319 322 282
3 322 413 282
3 283 404 310
3 283 340 339
3 339 404 283
3 283 413 340
3 285 311 284
3 311 312 284
3 312 313 284
3 285 381 311
3 380 381 285
3 285 389 380
3 286 371 298
3 369 371 286
3 286 385 369
3 287 411 352
3 406 434 287
3 287 434 411
3 289 395 288
3 288 394 301
3 288 395 394
3 315 316 289
3 316 317 289
3 317 395 289
3 291 373 290
3 290 372 325
3 290 373 372
3 308 416 291
3 291 429 308
3 291 376 373
3 291 416 376
3 297 431 292
3 292 402 342
3 292 431 402
3 342 402 293
3 293 430 391
3 402 430 293
3 294 314 295
3 296 410 294
3 294 410 314
3 314 383 295
3 295 422 334
3 383 422 295
3 368 396 296
3 396 418 296
3 296 418 410
3 324 427 297
3 297 403 331
3 331 431 297
3 297 427 403
3 371 415 298
3 299 414 300
3 302 425 299
3 299 425 414
3 337 400 300
3 300 414 337
3 300 400 354
3 394 397 301
3 397 435 301
3 301 435 406
3 333 425 302
3 391 417 302
3 303 408 304
3 305 428 303
3 303 428 408
3 304 356 355
3 304 357 356
3 304 408 357
3 352 411 305
3 386 428 305
3 306 407 307
3 308 429 306
3 309 416 308
3 365 416 309
3 310 404 324
3 311 381 353
3 313 385 338
3 314 405 383
3 316 375 317
3 320 375 316
3 317 375 344
3 344 392 317
3 392 395 317
3 327 343 318
3 351 375 320
3 404 427 324
3 372 374 325
3 329 374 372
3 391 430 330
3 373 376 332
3 336 337 335
3 337 414 335
3 336 415 337
3 371 400 337
3 337 415 371
3 345 397 394
3 353 381 346
3 347 390 348
3 348 390 389
3 350 422 383
3 356 362 355
3 357 358 356
3 358 393 356
3 356 393 362
3 357 408 382
3 359 409 358
3 358 409 393
3 360 409 359
3 361 432 360
3 398 409 360
3 360 432 398
3 412 426 361
3 426 432 361
3 362 367 366
3 362 393 367
3 376 416 365
3 383 405 399
3 410 418 384
3 388 434 387
3 387 434 406
3 411 434 388
3 396 426 418
3 396 432 426
3 401 435 397
3 52 445 3
3 3 437 62
3 3 445 437
3 53 445 52
3 54 439 53
3 439 445 53
3 55 447 54
3 54 447 439
3 56 447 55
3 57 436 56
3 436 447 56
3 58 443 57
3 57 443 436
3 59 443 58
3 60 438 59
3 438 443 59
3 61 440 60
3 60 440 438
3 62 440 61
3 437 440 62
3 436 443 442
3 442 446 436
3 446 447 436
3 437 441 440
3 437 444 441
3 437 445 444
3 440 441 438
3 441 442 438
3 442 443 438
3 444 445 439
3 439 446 444
3 439 447 446
3 441 446 442
3 444 446 441
4 309 450 480 481
4 449 454 452 455
4 452 454 448 455
4 309 450 416 480
4 290 250 458 464
4 364 460 461 478
4 448 455 454 460
4 458 464 250 479
4 453 155 463 484
4 290 464 458 476
4 454 455 449 460
4 456 463 155 484
4 458 461 449 462
4 309 480 439 481
4 446 444 441 480
4 309 416 450 481
4 251 250 464 479
4 439 444 446 480
4 155 150 453 463
4 155 154 150 463
4 251 250 252 464
4 427 467 455 473
4 451 461 458 462
4 373 470 464 476
4 277 469 459 483
4 363 455 460 478
4 290 252 250 464
4 277 483 459 487
4 464 470 373 501
4 455 460 448 477
4 166 467 427 473
4 224 461 460 490
4 403 71 166 473
4 458 468 193 471
4 374 458 193 471
4 363 460 455 477
4 150 154 153 463
4 416 480 450 501
4 155 456 151 463
4 308 450 416 481
4 416 450 308 464
4 427 324 455 467
4 221 460 224 461
4 309 308 416 481
4 450 464 416 501
4 448 460 454 469
4 153 457 453 463
4 150 153 453 463
4 299 486 472 496
4 26 200 201 456
4 308 464 450 495
4 71 467 452 485
4 446 480 441 481
4 448 460 469 477
4 363 460 364 478
4 448 454 452 466
4 168 375 23 453
4 351 375 168 453
4 300 474 472 486
4 235 364 461 478
4 224 475 461 490
4 151 456 155 484
4 375 453 351 484
4 309 416 365 480
4 23 453 375 484
4 291 416 464 501
4 155 453 150 484
4 23 1 168 453
4 300 472 299 486
4 199 466 390 483
4 472 486 474 496
4 191 466 452 493
4 324 427 455 473
4 308 450 481 495
4 458 462 449 471
4 158 155 151 463
4 462 471 458 476
4 235 364 225 461
4 381 469 454 490
4 292 473 267 478
4 403 166 427 473
4 351 466 453 485
4 381 454 285 490
4 221 224 225 461
4 199 456 466 483
4 324 455 267 473
4 1 453 150 497
4 351 196 453 466
4 197 199 198 466
4 25 200 26 456
4 267 473 455 478
4 191 452 466 485
4 456 459 448 483
4 244 234 249 458
4 351 195 466 485
4 454 469 381 483
4 285 454 381 483
4 168 1 68 453
4 244 458 249 489
4 168 453 68 497
4 351 453 196 484
4 451 462 458 476
4 459 469 448 483
4 150 453 153 497
4 191 194 466 493
4 244 234 458 489
4 220 460 363 477
4 373 174 470 476
4 452 468 191 493
4 453 466 196 484
4 332 373 174 470
4 332 373 470 501
4 290 373 464 476
4 461 475 229 479
4 193 374 325 458
4 448 454 466 483
4 199 197 390 466
4 374 325 458 476
4 324 455 467 482
4 308 309 179 481
4 461 475 460 490
4 363 220 364 460
4 462 473 292 478
4 460 461 449 475
4 249 458 338 475
4 458 475 249 489
4 23 150 1 453
4 452 454 449 468
4 234 468 458 489
4 374 458 471 476
4 453 457 153 497
4 166 467 71 485
4 310 467 457 482
4 290 458 325 476
4 152 463 157 500
4 338 458 249 479
4 458 476 464 479
4 365 480 416 501
4 191 466 195 485
4 415 472 474 495
4 448 456 453 463
4 68 453 1 497
4 309 365 439 480
4 338 475 458 479
4 192 191 468 493
4 26 456 201 487
4 363 455 281 477
4 464 479 474 495
4 277 346 459 469
4 458 451 476 479
4 33 457 413 497
4 452 448 466 485
4 452 466 454 493
4 453 456 448 466
4 441 480 472 481
4 351 195 196 466
4 32 282 413 457
4 291 416 308 464
4 452 455 448 467
4 311 469 381 490
4 453 466 448 485
4 474 486 450 496
4 374 372 325 476
4 191 468 452 499
4 455 467 452 473
4 160 157 463 500
4 291 376 416 501
4 193 458 234 468
4 429 464 308 495
4 1 150 153 497
4 472 474 450 496
4 461 479 229 494
4 464 476 451 479
4 25 200 456 484
4 449 455 452 473
4 324 267 297 473
4 449 461 460 478
4 311 381 285 490
4 224 312 475 490
4 449 461 458 475
4 439 480 446 481
4 151 159 158 487
4 453 463 456 484
4 452 473 71 499
4 462 471 331 473
4 458 461 451 479
4 229 461 224 475
4 353 460 469 490
4 32 413 33 457
4 452 467 448 485
4 200 199 456 484
4 160 463 465 500
4 363 266 455 478
4 200 198 199 484
4 156 155 150 484
4 290 250 325 458
4 191 194 195 466
4 286 474 479 495
4 219 469 460 477
4 235 478 461 488
4 150 453 23 484
4 160 465 463 492
4 486 488 354 494
4 453 457 448 463
4 381 469 277 483
4 448 457 453 467
4 453 448 467 485
4 341 483 277 487
4 448 466 456 483
4 313 229 475 479
4 158 459 149 463
4 439 179 309 481
4 202 341 201 456
4 458 475 461 479
4 290 325 372 476
4 170 471 462 491
4 149 160 157 463
4 266 281 363 455
4 224 460 223 490
4 415 481 472 495
4 202 341 456 483
4 324 268 455 482
4 313 385 229 479
4 324 467 310 482
4 247 462 265 478
4 209 459 28 487
4 292 462 431 473
4 267 455 266 478
4 302 470 391 486
4 390 483 466 493
4 353 460 219 469
4 308 481 306 495
4 469 477 219 498
4 278 286 271 495
4 389 454 348 489
4 389 348 454 493
4 302 470 486 496
4 26 151 25 456
4 415 472 337 474
4 342 293 462 488
4 460 475 449 490
4 193 325 234 458
4 459 483 456 487
4 167 328 71 452
4 249 475 272 489
4 342 265 247 462
4 210 459 211 492
4 458 468 449 489
4 431 462 331 473
4 331 462 170 471
4 306 429 308 495
4 253 486 293 488
4 448 459 456 463
4 229 224 312 475
4 247 478 235 488
4 277 346 209 459
4 293 488 486 491
4 353 223 460 490
4 324 297 427 473
4 293 462 488 491
4 470 496 180 501
4 429 291 308 464
4 380 381 277 483
4 210 28 209 459
4 341 201 456 487
4 336 472 415 481
4 265 292 267 478
4 210 209 211 459
4 341 456 483 487
4 310 283 457 467
4 458 449 475 489
4 167 191 328 452
4 247 462 478 488
4 33 153 457 497
4 166 71 70 485
4 275 274 482 500
4 281 477 455 482
4 389 454 483 493
4 28 459 210 492
4 167 452 71 499
4 275 457 282 500
4 275 310 457 482
4 328 71 452 485
4 201 200 199 456
4 168 69 453 497
4 465 492 160 500
4 474 486 354 494
4 275 482 457 500
4 168 68 69 497
4 389 273 454 489
4 286 479 474 494
4 353 469 311 490
4 348 489 454 493
4 191 328 452 485
4 194 191 192 493
4 326 275 274 482
4 277 459 209 487
4 302 417 391 470
4 151 456 26 487
4 282 457 32 500
4 198 196 466 484
4 233 468 234 489
4 285 454 273 489
4 25 456 151 484
4 302 417 470 496
4 292 297 267 473
4 160 152 157 500
4 389 273 285 454
4 374 471 329 476
4 1 153 33 497
4 224 221 223 460
4 377 180 496 501
4 389 483 390 493
4 470 476 75 491
4 208 209 28 487
4 285 489 273 490
4 191 452 167 499
4 300 414 299 472
4 191 190 468 499
4 285 454 489 490
4 454 448 469 483
4 244 249 272 489
4 351 453 370 485
4 472 480 441 496
4 159 149 158 459
4 255 271 251 479
4 324 404 310 467
4 342 253 293 488
4 192 191 190 468
4 353 223 219 460
4 379 477 281 482
4 255 251 464 479
4 324 268 267 455
4 281 455 268 482
4 389 348 273 489
4 452 454 468 493
4 214 469 219 498
4 266 268 281 455
4 354 488 227 494
4 370 351 168 453
4 203 201 26 200
4 201 199 202 456
4 265 462 292 478
4 219 477 218 498
4 436 472 336 481
4 373 291 290 464
4 170 73 471 491
4 219 460 220 477
4 449 468 454 489
4 222 379 465 477
4 197 198 196 466
4 332 174 75 470
4 179 439 447 481
4 379 465 477 482
4 454 460 449 490
4 318 492 465 500
4 211 459 346 498
4 202 456 199 483
4 180 470 417 496
4 275 282 262 500
4 266 267 268 455
4 336 436 443 472
4 370 168 69 453
4 221 364 220 460
4 308 179 306 481
4 449 460 455 478
4 457 463 152 500
4 466 483 454 493
4 331 471 72 473
4 346 459 469 498
4 71 473 72 499
4 451 470 464 474
4 166 70 467 485
4 389 454 285 483
4 255 464 271 479
4 272 249 338 475
4 379 326 274 482
4 229 479 385 494
4 380 277 341 483
4 244 233 234 489
4 449 489 454 490
4 338 249 251 479
4 189 471 374 499
4 207 209 208 487
4 379 378 281 477
4 456 463 459 487
4 390 466 197 493
4 450 486 470 496
4 449 468 458 471
4 154 157 152 463
4 380 285 381 483
4 370 453 69 485
4 189 374 190 499
4 72 71 403 473
4 222 378 379 477
4 247 264 235 478
4 449 462 461 478
4 389 390 348 493
4 400 354 238 474
4 310 404 283 467
4 208 28 27 487
4 337 472 300 474
4 151 155 156 484
4 452 468 449 499
4 299 472 425 496
4 153 32 33 457
4 363 281 378 477
4 342 462 247 488
4 262 282 32 500
4 448 459 463 465
4 377 180 417 496
4 211 209 346 459
4 452 449 473 499
4 324 310 268 482
4 374 329 372 476
4 453 467 457 497
4 464 470 451 476
4 448 463 457 465
4 174 75 470 476
4 427 404 324 467
4 255 464 429 495
4 72 473 471 499
4 313 475 338 479
4 149 160 463 492
4 235 264 364 478
4 448 467 455 482
4 365 416 376 501
4 464 470 450 474
4 311 353 381 469
4 149 463 459 492
4 451 462 476 491
4 156 150 23 484
4 235 461 227 488
4 277 381 346 469
4 170 331 431 462
4 457 467 283 497
4 438 440 333 472
4 436 442 443 472
4 354 238 474 494
4 73 331 170 471
4 342 293 402 462
4 377 76 180 501
4 73 329 471 476
4 265 267 266 478
4 351 370 195 485
4 449 473 462 478
4 74 75 476 491
4 342 292 265 462
4 437 480 420 496
4 459 465 448 498
4 225 227 235 461
4 363 364 264 478
4 227 354 236 488
4 69 485 453 497
4 202 199 390 483
4 299 414 425 472
4 391 293 486 491
4 320 375 351 484
4 391 486 470 491
4 290 372 373 476
4 449 455 473 478
4 451 474 464 479
4 442 472 436 481
4 449 475 489 490
4 454 469 460 490
4 472 480 450 481
4 149 459 28 492
4 27 207 208 487
4 449 471 462 473
4 402 462 293 491
4 413 282 283 457
4 306 255 429 495
4 191 195 328 485
4 440 472 441 496
4 340 1 33 497
4 461 462 451 488
4 438 333 177 472
4 28 459 159 487
4 471 476 462 491
4 299 302 486 496
4 456 466 453 484
4 310 283 275 457
4 252 290 291 464
4 214 353 219 469
4 461 478 462 488
4 255 251 252 464
4 297 292 431 473
4 219 220 218 477
4 448 465 457 482
4 224 223 312 490
4 212 210 211 492
4 450 474 472 495
4 233 193 234 468
4 445 439 365 480
4 438 441 440 472
4 413 457 283 497
4 470 474 451 486
4 459 448 469 498
4 214 219 218 498
4 353 311 223 490
4 448 457 467 482
4 26 25 203 200
4 226 461 229 494
4 450 474 470 486
4 23 375 24 484
4 249 234 250 458
4 152 32 457 500
4 318 30 492 500
4 220 363 378 477
4 222 477 465 498
4 300 337 414 472
4 451 488 486 494
4 365 185 480 501
4 26 201 204 487
4 33 413 340 497
4 313 338 385 479
4 450 470 464 501
4 318 327 465 492
4 440 437 420 496
4 448 455 477 482
4 379 318 465 500
4 363 264 266 478
4 152 32 153 457
4 327 222 318 465
4 173 336 415 481
4 257 253 236 488
4 474 479 451 494
4 320 24 375 484
4 159 28 149 459
4 234 325 250 458
4 166 404 427 467
4 457 465 463 500
4 257 486 253 488
4 75 330 470 491
4 227 488 461 494
4 463 465 459 492
4 300 354 474 486
4 76 75 180 470
4 157 158 149 463
4 226 224 229 461
4 28 210 29 492
4 283 467 404 497
4 285 273 284 490
4 333 472 440 496
4 158 154 155 463
4 379 274 318 500
4 221 220 219 460
4 25 232 200 484
4 441 444 437 480
4 442 441 438 472
4 400 337 300 474
4 222 218 477 498
4 327 222 465 492
4 194 197 466 493
4 29 210 212 492
4 229 312 313 475
4 300 354 400 474
4 1 23 168 344
4 348 233 489 493
4 173 481 415 495
4 391 293 280 486
4 194 347 197 493
4 377 480 77 501
4 225 226 227 461
4 73 74 329 476
4 415 336 337 472
4 247 265 264 478
4 371 286 474 494
4 448 465 477 498
4 318 30 327 492
4 436 336 173 481
4 302 391 280 486
4 211 492 459 498
4 211 346 214 498
4 198 200 232 484
4 467 485 70 497
4 468 489 233 493
4 468 471 449 499
4 451 479 461 494
4 331 73 72 471
4 390 197 347 493
4 282 275 283 457
4 227 461 226 494
4 340 68 1 497
4 222 218 378 477
4 275 326 310 482
4 76 470 180 501
4 377 77 76 501
4 277 209 207 487
4 238 354 227 494
4 377 496 480 501
4 72 471 189 499
4 369 229 385 494
4 448 477 469 498
4 465 492 222 498
4 346 469 214 498
4 415 474 298 495
4 174 74 75 476
4 76 75 470 501
4 332 470 75 501
4 471 473 449 499
4 273 489 284 490
4 365 376 185 501
4 439 179 54 309
4 170 74 73 491
4 457 482 465 500
4 486 488 451 491
4 221 219 223 460
4 445 444 439 480
4 332 376 373 501
4 417 180 391 470
4 320 351 196 484
4 450 472 481 495
4 75 74 330 491
4 213 222 492 498
4 284 272 475 489
4 374 189 329 471
4 166 70 339 467
4 448 477 465 482
4 380 389 285 483
4 225 224 226 461
4 253 280 293 486
4 339 467 70 497
4 391 430 293 491
4 451 486 474 494
4 284 489 475 490
4 330 391 470 491
4 196 195 194 466
4 342 402 292 462
4 298 474 286 495
4 253 342 247 488
4 446 442 436 481
4 373 372 174 476
4 447 179 54 439
4 192 468 233 493
4 149 28 29 492
4 30 327 343 318
4 447 439 446 481
4 470 450 496 501
4 313 272 338 475
4 177 335 438 472
4 415 371 298 474
4 443 335 336 472
4 379 318 222 465
4 302 280 299 486
4 328 70 71 485
4 379 281 326 482
4 300 257 354 486
4 27 28 159 487
4 402 431 292 462
4 440 420 187 496
4 69 70 485 497
4 297 431 331 473
4 454 489 468 493
4 341 204 201 487
4 450 480 472 496
4 438 177 59 335
4 344 168 1 68
4 167 71 72 499
4 213 492 211 498
4 371 369 286 494
4 307 306 179 481
4 371 400 238 474
4 306 481 407 495
4 415 337 371 474
4 264 265 266 478
4 202 380 341 483
4 298 371 286 474
4 438 335 443 472
4 30 160 492 500
4 284 475 312 490
4 327 213 222 492
4 180 330 391 470
4 438 60 177 333
4 346 353 214 469
4 177 333 425 472
4 73 189 72 471
4 326 281 268 482
4 23 24 156 484
4 403 331 72 473
4 339 404 467 497
4 330 430 391 491
4 437 77 420 480
4 284 313 312 475
4 436 56 447 481
4 252 291 429 464
4 77 437 3 480
4 402 170 431 462
4 157 154 158 463
4 255 252 429 464
4 220 378 218 477
4 371 474 238 494
4 307 407 306 481
4 236 235 227 488
4 347 192 233 493
4 192 190 193 468
4 208 210 28 209
4 24 232 25 484
4 197 196 194 466
4 462 451 488 491
4 407 481 173 495
4 194 192 347 493
4 284 273 272 489
4 370 69 70 485
4 381 353 346 469
4 191 167 190 499
4 453 485 467 497
4 77 3 419 480
4 337 400 371 474
4 297 403 427 473
4 437 445 3 480
4 166 339 404 467
4 447 56 307 481
4 333 425 472 496
4 348 233 244 489
4 284 272 313 475
4 335 337 336 472
4 25 151 156 484
4 170 462 402 491
4 335 59 438 443
4 445 365 419 480
4 173 56 436 481
4 180 75 330 470
4 464 474 450 495
4 451 476 470 491
4 26 204 201 203
4 348 347 233 493
4 207 341 277 487
4 306 278 255 495
4 419 365 185 480
4 326 268 310 482
4 251 271 338 479
4 298 173 415 495
4 192 193 233 468
4 151 26 159 487
4 389 202 390 483
4 369 226 229 494
4 76 332 75 501
4 420 480 377 496
4 60 438 440 333
4 419 3 445 480
4 286 385 271 479
4 470 486 451 491
4 196 198 320 484
4 77 480 185 501
4 390 347 348 493
4 447 307 179 481
4 298 407 173 495
4 365 439 53 309
4 320 232 24 484
4 375 24 320 316
4 299 257 300 486
4 420 77 377 480
4 173 307 56 481
4 169 1 33 340
4 297 331 403 473
4 213 212 211 492
4 438 443 442 472
4 23 168 344 375
4 173 436 57 336
4 204 207 27 487
4 216 212 327 492
4 339 283 404 497
4 461 488 451 494
4 117 206 349 228
4 73 329 189 471
4 459 492 465 498
4 236 247 235 488
4 274 275 262 500
4 77 185 76 501
4 198 232 320 484
4 253 257 280 486
4 31 262 32 500
4 30 261 31 500
4 27 206 117 228
4 227 226 238 494
4 349 85 206 117
4 62 440 437 420
4 436 57 336 443
4 164 4 0 63
4 4 0 63 165
4 206 85 27 117
4 174 372 329 476
4 340 69 68 497
4 204 27 26 487
4 216 29 212 492
4 338 271 385 479
4 37 388 163 88
4 371 238 369 494
4 311 285 284 490
4 420 437 3 77
4 11 37 163 88
4 5 4 63 186
4 253 247 236 488
4 282 322 32 413
4 430 402 293 491
4 152 31 32 500
4 69 339 70 497
4 24 25 156 484
4 299 425 302 496
4 53 445 439 365
4 187 333 440 496
4 63 424 4 165
4 340 169 1 68
4 30 216 327 492
4 217 205 237 93
4 164 423 4 63
4 213 218 222 498
4 6 5 83 64
4 211 214 213 498
4 322 33 32 413
4 4 5 135 186
4 341 207 204 487
4 413 283 340 497
4 174 329 74 476
4 335 414 337 472
4 299 280 257 486
4 480 496 450 501
4 24 315 316 289
4 203 217 25 93
4 188 5 4 63
4 119 319 248 279
4 93 205 237 85
4 419 185 77 480
4 370 328 195 485
4 389 380 202 483
4 16 433 86 161
4 433 16 43 161
4 64 6 5 84
4 95 237 270 349
4 164 0 2 63
4 63 0 2 165
4 136 5 4 188
4 64 5 83 188
4 349 95 237 85
4 207 204 27 206
4 348 244 273 489
4 273 244 272 489
4 105 240 368 138
4 96 304 98 270
4 230 367 101 243
4 167 72 189 499
4 203 26 217 93
4 152 160 31 500
4 362 367 393 99
4 186 64 5 84
4 80 93 321 258
4 64 83 6 345
4 278 298 286 495
4 203 25 217 321
4 98 95 96 270
4 315 24 122 289
4 261 262 31 500
4 29 216 30 492
4 162 19 47 384
4 261 318 274 500
4 217 237 245 93
4 307 179 55 447
4 63 64 5 186
4 242 368 240 138
4 256 128 96 303
4 121 86 358 126
4 83 394 148 125
4 319 81 119 248
4 100 356 98 126
4 120 131 128 305
4 375 23 24 316
4 25 26 203 93
4 173 407 307 481
4 274 262 261 500
4 187 440 62 420
4 167 189 190 499
4 95 98 304 270
4 437 444 445 480
4 132 408 382 126
4 95 94 237 85
4 128 97 120 352
4 311 312 223 490
4 316 122 24 289
4 367 82 230 101
4 335 336 58 443
4 215 212 29 210
4 162 48 87 384
4 160 149 29 492
4 355 95 349 117
4 237 94 95 270
4 23 122 316 317
4 122 24 23 316
4 349 355 117 228
4 294 276 108 254
4 2 424 63 165
4 130 239 230 243
4 20 48 87 162
4 97 352 245 259
4 204 205 26 206
4 94 245 237 93
4 141 323 90 119
4 414 177 425 472
4 164 2 423 63
4 345 64 83 188
4 232 24 25 315
4 330 74 170 491
4 188 64 5 63
4 345 125 6 65
4 276 111 110 294
4 141 323 119 334
4 12 38 388 163
4 260 289 80 114
4 108 110 111 294
4 26 27 204 206
4 276 108 111 294
4 125 83 394 345
4 162 47 48 384
4 276 110 141 295
4 245 112 97 259
4 80 24 122 315
4 27 205 85 206
4 131 120 411 305
4 388 38 37 163
4 97 128 96 256
4 208 28 366 228
4 15 42 161 171
4 111 119 248 279
4 82 230 29 215
4 125 7 6 65
4 269 260 259 114
4 232 320 24 316
4 289 80 315 260
4 322 319 119 279
4 446 436 447 481
4 33 169 340 413
4 279 119 323 334
4 90 323 141 334
4 118 304 98 96
4 7 125 176 65
4 132 118 408 126
4 213 327 212 492
4 93 321 25 80
4 82 367 362 99
4 246 32 31 262
4 317 392 143 395
4 143 89 122 395
4 27 159 26 487
4 161 43 433 171
4 89 143 392 395
4 317 143 122 395
4 113 269 259 114
4 130 103 239 243
4 321 25 217 93
4 27 26 205 206
4 136 397 401 91
4 397 136 133 91
4 334 276 141 295
4 254 111 138 248
4 370 70 328 485
4 161 86 15 171
4 352 120 128 305
4 306 407 278 495
4 214 218 213 498
4 368 107 105 108
4 414 335 177 472
4 144 323 33 119
4 262 246 32 319
4 20 49 127 182
4 433 86 161 171
4 125 345 176 65
4 125 139 89 176
4 96 118 304 303
4 279 141 119 334
4 119 323 33 322
4 31 160 30 500
4 114 288 289 139
4 439 54 53 309
4 245 217 93 258
4 117 366 28 228
4 163 388 12 88
4 316 375 23 317
4 232 25 321 315
4 45 17 184 79
4 259 97 352 113
4 125 6 83 345
4 258 80 112 260
4 122 80 315 289
4 26 27 205 85
4 6 64 350 84
4 122 80 289 114
4 7 178 124 65
4 80 25 24 315
4 287 352 120 113
4 93 112 245 258
4 5 136 83 188
4 238 226 369 494
4 49 21 20 127
4 29 28 215 210
4 304 355 95 270
4 128 256 305 303
4 362 366 82 117
4 110 147 141 295
4 334 141 147 295
4 56 173 436 57
4 179 54 55 447
4 319 119 32 322
4 171 358 86 126
4 8 7 66 90
4 4 146 423 164
4 240 263 239 103
4 357 382 408 126
4 97 120 352 113
4 304 355 98 95
4 89 66 7 176
4 178 66 7 90
4 108 368 107 296
4 276 111 108 254
4 358 86 121 171
4 165 424 4 145
4 92 50 22 399
4 111 119 81 248
4 85 349 95 117
4 279 276 141 334
4 217 321 93 258
4 26 205 217 93
4 7 8 66 89
4 345 394 125 176
4 187 440 61 62
4 248 276 111 279
4 78 40 14 183
4 148 397 394 83
4 27 207 206 208
4 388 37 387 88
4 355 362 117 228
4 14 41 132 183
4 420 377 187 496
4 206 27 208 228
4 78 128 386 428
4 408 118 132 183
4 93 26 205 85
4 258 321 80 315
4 259 112 97 113
4 35 10 9 91
4 63 4 424 186
4 5 135 186 84
4 60 177 59 438
4 10 35 181 91
4 392 344 143 67
4 101 130 230 243
4 183 118 78 428
4 352 287 259 113
4 237 94 93 85
4 50 22 21 92
4 394 288 301 148
4 131 39 13 386
4 37 11 387 88
4 333 302 425 496
4 230 82 367 215
4 64 186 350 84
4 94 112 245 93
4 162 87 19 384
4 78 128 131 386
4 340 283 339 497
4 30 327 216 343
4 183 408 118 428
4 101 393 367 99
4 13 12 39 131
4 98 356 357 126
4 230 216 29 215
4 334 147 422 295
4 78 132 118 183
4 311 284 312 490
4 100 358 356 126
4 92 134 127 405
4 187 440 333 61
4 254 138 242 248
4 125 89 7 176
4 85 205 349 206
4 128 97 352 305
4 83 397 394 345
4 355 362 99 117
4 217 205 26 203
4 99 356 355 98
4 132 382 86 126
4 447 55 307 56
4 256 96 94 270
4 288 395 289 139
4 304 96 303 270
4 368 108 138 254
4 382 15 41 132
4 117 362 366 228
4 66 8 392 89
4 333 440 60 61
4 260 112 258 259
4 14 13 40 78
4 114 289 122 139
4 17 44 184 137
4 82 130 230 101
4 119 32 81 319
4 305 131 128 386
4 345 6 64 65
4 58 336 57 443
4 141 111 276 279
4 19 18 46 175
4 7 66 178 65
4 321 203 25 200
4 124 6 7 65
4 260 288 289 114
4 185 376 332 501
4 128 78 118 428
4 17 45 18 79
4 430 330 170 491
4 254 276 111 248
4 80 321 25 315
4 304 355 356 98
4 108 105 368 138
4 4 136 188 423
4 97 128 256 305
4 387 434 88 129
4 46 412 175 123
4 289 316 122 317
4 139 395 89 176
4 11 36 387 129
4 113 259 112 114
4 143 344 1 67
4 88 434 120 116
4 423 188 4 63
4 430 170 402 491
4 102 398 103 243
4 124 350 6 65
4 136 4 146 423
4 352 411 120 305
4 111 110 141 276
4 411 120 131 88
4 78 13 40 386
4 131 411 172 305
4 231 106 30 241
4 260 80 112 114
4 31 261 246 262
4 15 14 41 132
4 245 97 94 256
4 116 88 434 129
4 215 28 82 366
4 200 25 321 232
4 240 263 106 105
4 94 237 256 270
4 175 18 46 123
4 382 86 15 132
4 94 112 97 245
4 134 92 383 405
4 119 323 322 279
4 210 28 215 366
4 49 20 48 182
4 392 66 89 176
4 355 99 98 95
4 182 87 48 384
4 106 240 105 138
4 36 11 10 129
4 368 263 240 105
4 259 260 112 114
4 132 41 382 183
4 319 32 262 282
4 81 138 111 248
4 254 368 108 296
4 178 7 124 90
4 113 287 269 116
4 242 241 142 240
4 119 33 32 322
4 8 392 143 67
4 136 401 397 188
4 115 301 288 148
4 87 48 20 182
4 42 43 161 171
4 17 184 79 137
4 185 332 76 501
4 53 52 445 365
4 143 344 392 317
4 95 355 99 117
4 15 41 42 382
4 405 134 127 314
4 187 377 417 496
4 445 52 419 365
4 81 32 246 319
4 19 18 175 123
4 412 46 18 123
4 78 14 132 183
4 84 422 147 383
4 434 387 116 129
4 82 367 366 362
4 246 81 319 248
4 103 130 101 243
4 134 147 295 383
4 428 118 128 303
4 301 115 116 133
4 120 411 434 88
4 388 172 12 88
4 108 109 294 296
4 32 319 322 282
4 94 96 95 270
4 367 82 101 99
4 382 171 86 126
4 112 93 80 258
4 386 40 78 183
4 80 258 315 260
4 169 67 421 144
4 41 14 40 183
4 171 15 42 382
4 421 8 66 90
4 12 38 172 388
4 36 37 11 387
4 181 435 133 91
4 184 412 45 79
4 58 59 335 443
4 50 51 22 399
4 315 232 24 316
4 13 78 131 386
4 175 47 19 384
4 169 1 67 144
4 121 86 359 171
4 49 21 127 405
4 99 362 82 117
4 30 160 29 492
4 260 269 288 114
4 401 35 9 91
4 131 12 39 172
4 130 230 29 82
4 288 394 139 148
4 433 359 137 86
4 295 147 422 383
4 138 242 368 254
4 246 31 32 81
4 29 28 82 215
4 17 44 45 184
4 124 6 350 84
4 245 352 97 256
4 410 107 418 296
4 305 172 131 386
4 110 109 134 314
4 49 127 182 405
4 128 305 386 428
4 66 178 421 90
4 410 109 107 296
4 107 396 368 105
4 171 86 15 382
4 121 359 358 171
4 109 110 294 314
4 110 134 295 314
4 401 9 34 146
4 172 411 131 88
4 350 64 6 65
4 133 129 181 91
4 405 383 134 314
4 408 304 118 303
4 115 288 269 114
4 39 131 172 386
4 395 392 89 176
4 172 131 12 88
4 124 178 350 65
4 62 437 3 420
4 111 141 119 279
4 241 31 261 246
4 118 96 128 303
4 104 426 361 123
4 84 135 186 383
4 107 368 396 296
4 411 172 388 88
4 412 18 45 79
4 395 122 289 139
4 256 352 97 305
4 301 397 394 148
4 139 115 288 148
4 240 106 242 138
4 237 245 94 256
4 16 433 137 86
4 84 147 134 383
4 83 136 397 188
4 406 269 287 116
4 146 4 0 164
4 434 411 388 88
4 143 1 8 67
4 145 22 51 399
4 401 181 35 91
4 212 29 216 215
4 205 349 237 85
4 433 184 44 137
4 116 406 301 133
4 333 187 302 496
4 4 0 165 145
4 110 276 294 295
4 356 393 100 99
4 23 344 143 317
4 97 96 94 256
4 418 87 410 384
4 146 34 401 423
4 270 355 95 349
4 345 83 397 188
4 81 246 242 248
4 434 287 120 116
4 134 147 110 295
4 81 242 138 248
4 357 171 382 126
4 108 109 110 294
4 176 66 7 65
4 409 102 360 121
4 254 108 294 296
4 366 28 82 117
4 82 367 215 366
4 323 169 33 322
4 92 21 50 405
4 165 0 22 145
4 418 175 123 87
4 187 417 302 496
4 0 9 146 164
4 356 358 357 126
4 375 344 23 317
4 323 33 169 144
4 295 294 110 314
4 112 245 258 259
4 382 408 132 183
4 399 135 92 383
4 406 181 435 129
4 115 406 301 116
4 360 398 104 102
4 111 138 108 254
4 142 30 106 241
4 84 186 350 383
4 181 435 129 133
4 145 51 424 399
4 11 387 88 129
4 90 178 323 334
4 1 23 344 143
4 383 92 399 405
4 241 231 106 240
4 146 401 9 91
4 87 175 19 384
4 96 256 303 270
4 359 137 86 121
4 133 136 397 83
4 204 26 205 203
4 418 123 107 87
4 171 357 358 126
4 355 362 356 99
4 22 145 92 399
4 100 356 99 98
4 240 106 263 103
4 398 102 409 243
4 122 289 317 395
4 360 398 432 104
4 67 8 421 144
4 124 422 178 334
4 135 134 92 383
4 397 301 133 148
4 147 422 350 124
4 368 396 263 105
4 13 39 40 386
4 366 210 28 208
4 184 359 140 137
4 124 141 178 90
4 129 10 181 91
4 106 263 103 105
4 399 92 50 405
4 104 396 426 107
4 115 113 269 116
4 399 145 135 186
4 66 392 8 67
4 269 301 288 115
4 84 350 422 383
4 406 435 301 133
4 144 90 323 119
4 1 8 67 144
4 359 409 360 121
4 86 15 16 161
4 100 102 409 121
4 181 36 10 129
4 230 29 216 130
4 34 35 9 401
4 127 21 92 405
4 10 35 36 181
4 163 12 11 88
4 123 175 19 87
4 410 87 127 182
4 239 106 240 103
4 115 269 113 114
4 2 51 424 165
4 123 104 426 107
4 123 361 104 140
4 361 432 426 104
4 169 67 1 68
4 19 46 47 175
4 134 135 84 383
4 12 38 39 172
4 104 263 396 105
4 394 395 288 139
4 148 133 397 83
4 350 147 124 84
4 165 22 51 145
4 231 230 216 130
4 127 134 109 314
4 123 79 361 140
4 127 410 182 314
4 259 287 269 113
4 103 101 102 243
4 186 135 399 383
4 383 295 134 314
4 339 69 340 497
4 143 392 8 89
4 127 109 87 410
4 114 115 288 139
4 357 304 356 98
4 51 424 165 145
4 399 424 145 186
4 410 127 109 314
4 356 362 393 99
4 127 87 20 182
4 418 175 87 384
4 169 33 1 144
4 30 343 231 241
4 113 120 287 116
4 269 406 301 115
4 184 361 79 140
4 239 106 231 240
4 394 139 148 125
4 123 426 418 107
4 178 141 124 334
4 141 178 90 334
4 407 298 278 495
4 269 406 115 116
4 361 412 184 79
4 181 406 387 129
4 410 294 109 296
4 231 239 230 130
4 128 305 428 303
4 242 142 241 246
4 36 181 387 129
4 109 108 107 296
4 140 79 184 137
4 360 184 359 140
4 89 122 395 139
4 432 398 263 104
4 434 387 406 116
4 23 143 122 317
4 178 350 422 124
4 146 9 34 164
4 323 421 178 90
4 323 169 421 144
4 34 2 423 164
4 136 401 146 91
4 120 411 352 287
4 433 359 86 171
4 432 396 426 104
4 398 239 103 243
4 358 100 121 126
4 419 3 52 445
4 104 360 102 140
4 423 146 34 164
4 116 387 406 129
4 396 418 426 107
4 169 33 322 413
4 418 175 426 123
4 90 421 8 144
4 428 408 118 303
4 367 393 101 243
4 142 31 30 241
4 182 410 87 384
4 301 115 133 148
4 216 30 343 231
4 120 411 287 434
4 127 182 405 314
4 435 181 401 91
4 242 142 106 240
4 67 344 1 68
4 409 358 100 121
4 412 18 79 123
4 231 216 30 130
4 87 19 20 162
4 231 106 239 130
4 434 388 387 88
4 140 360 102 121
4 100 358 393 356
4 241 106 142 240
4 231 30 106 130
4 107 104 396 105
4 359 140 137 121
4 361 360 432 140
4 147 350 422 84
4 142 31 241 246
4 242 142 246 81
4 103 104 398 102
4 361 184 360 140
4 79 361 412 123
4 359 358 409 121
4 106 142 242 138
4 21 49 50 405
4 393 101 100 99
4 398 263 104 103
4 263 396 432 104
4 104 432 360 140
4 92 145 135 399
4 104 361 432 140
4 263 398 239 103
4 409 102 101 243
4 101 100 102 409
4 406 287 434 116
4 140 359 360 121
4 29 30 216 130
4 263 104 103 105
4 100 101 393 409
4 426 175 412 123
4 426 412 361 123
4 239 106 103 130
4 78 386 183 428
4 421 66 8 67
4 44 16 43 433
4 184 433 359 137
4 45 46 18 412
4 90 323 421 144
4 102 360 398 409
4 393 358 100 409
4 109 294 410 314
4 142 242 138 81
4 246 142 31 81
4 396 418 107 296
4 397 301 435 133
4 409 101 393 243
4 461 221 364 225
4 461 364 221 460
4 467 71 473 166
4 467 473 71 452
4 193 471 499 374
4 499 471 193 468
4 499 190 193 374
4 193 190 499 468
4 151 463 487 158
4 487 463 151 456
4 479 250 249 251
4 479 249 250 458
4 501 291 373 464
4 501 373 291 376
4 487 158 459 159
4 487 459 158 463
4 271 495 255 278
4 255 495 271 464
4 479 495 271 286
4 271 495 479 464
4 484 199 466 198
4 484 466 199 456
4 441 481 442 446
4 442 481 441 472
4 463 153 152 154
4 463 152 153 457
4 500 379 482 465
4 500 482 379 274
4 476 73 491 471
4 476 491 73 74
4 496 437 441 440
4 496 441 437 480
4 488 257 354 236
4 488 354 257 486
4 385 494 286 369
4 286 494 385 479
4 318 30 261 343
4 261 30 318 500
4 228 28 27 208
4 228 27 28 117
4 139 176 394 395
4 394 176 139 125
4 107 410 87 109
4 87 410 107 418
4 261 30 241 343
4 261 241 30 31
4 91 397 435 133
4 91 435 397 401
4 137 44 16 17
4 137 16 44 433
4 334 147 124 422
4 334 124 147 141
4 406 133 129 435
4 129 133 406 116
4 126 408 98 118
4 126 98 408 357
4 304 98 408 118
4 304 408 98 357
4 186 145 4 424
4 186 4 145 135
4 136 423 401 188
4 401 423 136 146

CELL_TYPES 2558
1
1
1
1
3
3
3
3
3
3
3
3
3
3
3
3
3
3
3
3
3
3
3
3
3
3
3
3
3
3
3
3
3
3
3
3
3
3
3
3
3
3
3
3
3
3
3
3
3
3
3
3
3
3
3
3
3
3
3
3
3
3
3
3
3
3
3
3
3
3
3
3
3
3
3
3
3
3
3
3
3
3
3
3
5
5
5
5
5
5
5
5
5
5
5
5
5
5
5
5
5
5
5
5
5
5
5
5
5
5
5
5
5
5
5
5
5
5
5
5
5
5
5
5
5
5
5
5
5
5
5
5
5
5
5
5
5
5
5
5
5
5
5
5
5
5
5
5
5
5
5
5
5
5
5
5
5
5
5
5
5
5
5
5
5
5
5
5
5
5
5
5
5
5
5
5
5
5
5
5
5
5
5
5
5
5
5
5
5
5
5
5
5
5
5
5
5
5
5
5
5
5
5
5
5
5
5
5
5
5
5
5
5
5
5
5
5
5
5
5
5
5
5
5
5
5
5
5
5
5
5
5
5
5
5
5
5
5
5
5
5
5
5
5
5
5
5
5
5
5
5
5
5
5
5
5
5
5
5
5
5
5
5
5
5
5
5
5
5
5
5
5
5
5
5
5
5
5
5
5
5
5
5
5
5
5
5
5
5
5
5
5
5
5
5
5
5
5
5
5
5
5
5
5
5
5
5
5
5
5
5
5
5
5
5
5
5
5
5
5
5
5
5
5
5
5
5
5
5
5
5
5
5
5
5
5
5
5
5
5
5
5
5
5
5
5
5
5
5
5
5
5
5
5
5
5
5
5
5
5
5
5
5
5
5
5
5
5
5
5
5
5
5
5
5
5
5
5
5
5
5
5
5
5
5
5
5
5
5
5
5
5
5
5
5
5
5
5
5
5
5
5
5
5
5
5
5
5
5
5
5
5
5
5
5
5
5
5
5
5
5
5
5
5
5
5
5
5
5
5
5
5
5
5
5
5
5
5
5
5
5
5
5
5
5
5
5
5
5
5
5
5
5
5
5
5
5
5
5
5
5
5
5
5
5
5
5
5
5
5
5
5
5
5
5
5
5
5
5
5
5
5
5
5
5
5
5
5
5
5
5
5
5
5
5
5
5
5
5
5
5
5
5
5
5
5
5
5
5
5
5
5
5
5
5
5
5
5
5
5
5
5
5
5
5
5
5
5
5
5
5
5
5
5
5
5
5
5
5
5
5
5
5
5
5
5
5
5
5
5
5
5
5
5
5
5
5
5
5
5
5
5
5
5
5
5
5
5
5
5
5
5
5
5
5
5
5
5
5
5
5
5
5
5
5
5
5
5
5
5
5
5
5
5
5
5
5
5
5
5
5
5
5
5
5
5
5
5
5
5
5
5
5
5
5
5
5
5
5
5
5
5
5
5
5
5
5
5
5
5
5
5
5
5
5
5
5
5
5
5
5
5
5
5
5
5
5
5
5
5
5
5
5
5
5
5
5
5
5
5
5
5
5
5
5
5
5
5
5
5
5
5
5
5
5
5
5
5
5
5
5
5
5
5
5
5
5
5
5
5
5
5
5
5
5
5
5
5
5
5
5
5
5
5
5
5
5
5
5
5
5
5
5
5
5
5
5
5
5
5
5
5
5
5
5
5
5
5
5
5
5
5
5
5
5
5
5
5
5
5
5
5
5
5
5
5
5
5
5
5
5
5
5
5
5
5
5
5
5
5
5
5
5
5
5
5
5
5
5
5
5
5
5
5
5
5
5
5
5
5
5
5
5
5
5
5
5
5
5
5
5
5
5
5
5
5
5
5
5
5
5
5
5
5
5
5
5
5
5
5
5
5
5
5
5
5
5
5
5
5
5
5
5
5
5
5
5
5
5
5
5
5
5
5
5
5
5
5
5
5
5
5
5
5
5
5
5
5
5
5
5
5
5
5
5
5
5
5
5
5
5
5
5
5
5
5
5
5
5
5
5
5
5
5
5
5
5
5
5
5
5
5
5
5
5
5
5
5
5
5
5
5
5
5
5
5
5
5
5
5
5
5
5
5
5
5
5
5
5
5
5
5
5
5
5
5
5
5
5
5
5
5
5
5
5
5
5
5
5
5
5
5
5
5
5
5
5
5
5
5
5
5
5
5
5
5
5
5
5
5
5
5
5
5
5
5
5
5
5
5
5
5
5
5
5
5
5
5
5
5
5
5
5
5
5
5
10
10
10
10
10
10
10
10
10
10
10
10
10
10
10
10
10
10
10
10
10
10
10
10
10
10
10
10
10
10
10
10
10
10
10
10
10
10
10
10
10
10
10
10
10
10
10
10
10
10
10
10
10
10
10
10
10
10
10
10
10
10
10
10
10
10
10
10
10
10
10
10
10
10
10
10
10
10
10
10
10
10
10
10
10
10
10
10
10
10
10
10
10
10
10
10
10
10
10
10
10
10
10
10
10
10
10
10
10
10
10
10
10
10
10
10
10
10
10
10
10
10
10
10
10
10
10
10
10
10
10
10
10
10
10
10
10
10
10
10
10
10
10
10
10
10
10
10
10
10
10
10
10
10
10
10
10
10
10
10
10
10
10
10
10
10
10
10
10
10
10
10
10
10
10
10
10
10
10
10
10
10
10
10
10
10
10
10
10
10
10
10
10
10
10
10
10
10
10
10
10
10
10
10
10
10
10
10
10
10
10
10
10
10
10
10
10
10
10
10
10
10
10
10
10
10
10
10
10
10
10
10
10
10
10
10
10
10
10
10
10
10
10
10
10
10
10
10
10
10
10
10
10
10
10
10
10
10
10
10
10
10
10
10
10
10
10
10
10
10
10
10
10
10
10
10
10
10
10
10
10
10
10
10
10
10
10
10
10
10
10
10
10
10
10
10
10
10
10
10
10
10
10
10
10
10
10
10
10
10
10
10
10
10
10
10
10
10
10
10
10
10
10
10
10
10
10
10
10
10
10
10
10
10
10
10
10
10
10
10
10
10
10
10
10
10
10
10
10
10
10
10
10
10
10
10
10
10
10
10
10
10
10
10
10
10
10
10
10
10
10
10
10
10
10
10
10
10
10
10
10
10
10
10
10
10
10
10
10
10
10
10
10
10
10
10
10
10
10
10
10
10
10
10
10
10
10
10
10
10
10
10
10
10
10
10
10
10
10
10
10
10
10
10
10
10
10
10
10
10
10
10
10
10
10
10
10
10
10
10
10
10
10
10
10
10
10
10
10
10
10
10
10
10
10
10
10
10
10
10
10
10
10
10
10
10
10
10
10
10
10
10
10
10
10
10
10
10
10
10
10
10
10
10
10
10
10
10
10
10
10
10
10
10
10
10
10
10
10
10
10
10
10
10
10
10
10
10
10
10
10
10
10
10
10
10
10
10
10
10
10
10
10
10
10
10
10
10
10
10
10
10
10
10
10
10
10
10
10
10
10
10
10
10
10
10
10
10
10
10
10
10
10
10
10
10
10
10
10
10
10
10
10
10
10
10
10
10
10
10
10
10
10
10
10
10
10
10
10
10
10
10
10
10
10
10
10
10
10
10
10
10
10
10
10
10
10
10
10
10
10
10
10
10
10
10
10
10
10
10
10
10
10
10
10
10
10
10
10
10
10
10
10
10
10
10
10
10
10
10
10
10
10
10
10
10
10
10
10
10
10
10
10
10
10
10
10
10
10
10
10
10
10
10
10
10
10
10
10
10
10
10
10
10
10
10
10
10
10
10
10
10
10
10
10
10
10
10
10
10
10
10
10
10
10
10
10
10
10
10
10
10
10
10
10
10
10
10
10
10
10
10
10
10
10
10
10
10
10
10
10
10
10
10
10
10
10
10
10
10
10
10
10
10
10
10
10
10
10
10
10
10
10
10
10
10
10
10
10
10
10
10
10
10
10
10
10
10
10
10
10
10
10
10
10
10
10
10
10
10
10
10
10
10
10
10
10
10
10
10
10
10
10
10
10
10
10
10
10
10
10
10
10
10
10
10
10
10
10
10
10
10
10
10
10
10
10
10
10
10
10
10
10
10
10
10
10
10
10
10
10
10
10
10
10
10
10
10
10
10
10
10
10
10
10
10
10
10
10
10
10
10
10
10
10
10
10
10
10
10
10
10
10
10
10
10
10
10
10
10
10
10
10
10
10
10
10
10
10
10
10
10
10
10
10
10
10
10
10
10
10
10
10
10
10
10
10
10
10
10
10
10
10
10
10
10
10
10
10
10
10
10
10
10
10
10
10
10
10
10
10
10
10
10
10
10
10
10
10
10
10
10
10
10
10
10
10
10
10
10
10
10
10
10
10
10
10
10
10
10
10
10
10
10
10
10
10
10
10
10
10
10
10
10
10
10
10
10
10
10
10
10
10
10
10
10
10
10
10
10
10
10
10
10
10
10
10
10
10
10
10
10
10
10
10
10
10
10
10
10
10
10
10
10
10
10
10
10
10
10
10
10
10
10
10
10
10
10
10
10
10
10
10
10
10
10
10
10
10
10
10
10
10
10
10
10
10
10
10
10
10
10
10
10
10
10
10
10
10
10
10
10
10
10
10
10
10
10
10
10
10
10
10
10
10
10
10
10
10
10
10
10
10
10
10
10
10
10
10
10
10
10
10
10
10
10
10
10
10
10
10
10
10
10
10
10
10
10
10
10
10
10
10
10
10
10
10
10
10
10
10
10
10
10
10
10
10
10
10
10
10
10
10
10
10
10
10
10
10
10
10
10
10
10
10
10
10
10
10
10
10
10
10
10
10
10
10
10
10
10
10
10
10
10
10
10
10
10
10
10
10
10
10
10
10
10
10
10
10
10
10
10
10
10
10
10
10
10
10
10
10
10
10
10
10
10
10
10
10
10
10
10
10
10
10
10
10
10
10
10
10
10
10
10
10
10
10
10
10
10
10
10
10
10
10
10
10
10
10
10
10
10
10
10
10
10
10
10
10
10
10
10
10
10
10
10
10
10
10
10
10
10
10
10
10
10
10
10
10
10
10
10
10
10
10
10
10
10
10
10
10
10
10
10
10
10
10
10
10
10
10
10
10
10
10
10
10
10
10
10
10
10
10
10
10
10
10
10
10
10
10
10
10
10
10
10
10
10
10
10
10
10
10
10
10
10
10
10
10
10
10
10
10
10
10
10
10
10
10
10
10
10
10
10
10
10
10
10
10
10
10
10
10
10
10
10
10
10
10
10
10
10
10
10
10
10
10
10
10
10
10
10
10
10
10
10
10
10
10
10
10
10
10
10
10
10
10
10
10
10
10
10
10
10
10
10
10
10
10
10
10
10
10
10
10
10
10
10
10
10
10
10
10
10
10
10
10
10
10
10
10
10
10
10
10
10
10
10
10
10
10
10
10
10
10
10
10
10
10
10
10
10
10
10
10
10
10
10
10
10
10
10
10
10
10
10
10
10
10
10
10
10
10
10
10
10
10
10
10
10
10
10
10
10
10
10
10
10
10
10
10
10
10
10
10
10
10
10
10
10
10
10
10
10
10
10
10
10
10
10
10
10
10
10
10
10
10
10
10
10
10
10
10
10
10
10
10
10
10
10
10
10
10
10
10
10
10
10
10
10
10
10
10
10
10
10
10
10
10
10
10
10
10
10
10
10
10
10
10
10
10
10
10
10
10
10
10
10
10
10
10
10
10
10
10
10
10
10
10
10
10
10
10
10
10
10
10
10
10
10
10
10
10
10
10
10
10
10
10
10
10
10
10
10
10
10
10
10
10
10
10
10
10
10
10
10
10
10
10
10
10
10
10
10
10
10
10
10
10
10
10
10
