# vtk DataFile Version 2.0
whisker_body, Created by Gmsh 4.13.1 
ASCII
DATASET UNSTRUCTURED_GRID
POINTS 629 double
10 0 0
7.796352208910681 0 28
12 0 0
4.12982931753815 0 100
9.724544026113835 0 3.5
9.449088052227671 0 7
9.173632078341505 0 10.5
8.898176104455342 0 14
8.622720130569176 0 17.5
8.347264156683011 0 21
8.071808182796847 0 24.5
9.238795325112871 3.826834323650888 0
7.071067811865488 7.071067811865462 0
3.826834323650923 9.238795325112857 0
3.391901413832837e-14 10 0
-3.826834323650852 9.238795325112886 0
-7.071067811865434 7.071067811865516 0
-9.238795325112843 3.826834323650956 0
-10 7.227892037515737e-14 0
-9.238795325112898 -3.826834323650822 0
-7.07106781186552 -7.07106781186543 0
-3.826834323650945 -9.238795325112848 0
-4.624589118372729e-14 -10 0
3.826834323650859 -9.238795325112884 0
7.071067811865461 -7.071067811865489 0
9.238795325112864 -3.826834323650904 0
6.903327041494677 3.623145528895412 28
4.428832842981734 6.416272080757858 28
0.9397464133633515 7.739508023379599 28
-2.764624594384593 7.289715949027801 28
-5.835653424897138 5.169937801354362 28
-7.569804383013343 1.865789207895264 28
-7.569804383013365 -1.865789207895175 28
-5.835653424897198 -5.169937801354293 28
-2.764624594384662 -7.289715949027775 28
0.9397464133632878 -7.739508023379607 28
4.428832842981703 -6.416272080757881 28
6.903327041494664 -3.623145528895436 28
11.34980690040761 3.896393630456207 0
9.469686112756717 7.370552552276022 0
6.563377897469113 10.04599773915035 0
2.945825845689581 11.63280319127197 0
-0.9909521456679979 11.95901391608004 0
-4.820345095835646 10.98927991986068 0
-8.127378859508902 8.82868692807757 0
-10.55368501447787 5.71136871644487 0
-11.83633564083267 1.975135083368787 0
-11.83633564083267 -1.975135083368821 0
-10.55368501447786 -5.711368716444897 0
-8.12737885950888 -8.828686928077589 0
-4.820345095835619 -10.9892799198607 0
-0.9909521456679715 -11.95901391608004 0
2.945825845689616 -11.63280319127196 0
6.563377897469155 -10.04599773915032 0
9.469686112756747 -7.370552552275983 0
11.34980690040762 -3.896393630456205 0
2.574906462902252 3.228830577670782 100
-0.9189734768187546 4.026285874214754 100
-3.720847644852559 1.791865786210781 100
-3.720847644852582 -1.791865786210735 100
-0.9189734768187868 -4.026285874214746 100
2.574906462902235 -3.228830577670795 100
11.69730112759762 0 3.846153846153846
11.39460225519524 0 7.692307692307693
11.09190338279286 0 11.53846153846154
10.78920451039049 0 15.38461538461539
10.48650563798811 0 19.23076923076923
10.18380676558573 0 23.07692307692308
9.881107893183348 0 26.92307692307692
9.578409020780969 0 30.76923076923077
9.27571014837859 0 34.61538461538461
8.973011275976212 0 38.46153846153846
8.670312403573833 0 42.30769230769231
8.367613531171454 0 46.15384615384615
8.064914658769075 0 50
7.762215786366696 0 53.84615384615385
7.459516913964317 0 57.69230769230769
7.156818041561938 0 61.53846153846154
6.85411916915956 0 65.38461538461539
6.551420296757181 0 69.23076923076923
6.248721424354802 0 73.07692307692308
5.946022551952423 0 76.92307692307692
5.643323679550044 0 80.76923076923077
5.340624807147665 0 84.61538461538461
5.037925934745286 0 88.46153846153847
4.735227062342908 0 92.30769230769231
4.432528189940529 0 96.15384615384616
-4.468290062011928 6.69135807524933 24.82652413160739
-4.57172222585203 -6.623283090306279 24.80391757484972
-9.547086757690682 1.899033628551307 3.37825907388932
-1.899033628551202 9.54708675769071 3.378259073889234
-2.208339938623567 -9.48843016658247 3.277869335055922
-8.047898316102108 -0.02315449491703393 24.80338043469932
8.133934606259231 3.261974384270001 15.70945560219946
8.236171427096771 -2.994634942403852 15.70873852961289
8.818092010853331 2.999931090652489 8.71117896219422
8.818092010853235 -2.999931090652832 8.711178962193964
2.853820894214586 7.524907262447213 24.80391757484971
2.750330957799974 -7.566188756550388 24.76997084756215
-7.9051705375549 -5.672313282341258 3.434619618704639
5.407990230489528 8.093629343389249 3.378259073889239
5.664022587372518 -7.936196509817919 3.175334709239469
7.583133711348996 3.183610889709592 22.56226507991655
7.650091565525966 -2.988225251983166 22.70597075470867
-0.9842437874962005 -7.987976394614035 24.79761848854194
-2.933699392301326 -7.773572542770199 21.48960148277665
-6.163859627508533 -5.56599287845942 21.53669785800515
-4.682183632355581 -7.163226584530408 18.32584032764074
-7.314400183340751 -4.47006317718647 18.14243642380313
-6.192215476112279 -6.282117340621385 14.98170308418586
-3.016675390186285 -8.278458673752736 15.1080470216962
-8.284358154468109 -3.082360769038674 14.74930402261449
-4.75541427870424 -7.723844707739556 11.8119779876651
-1.200886051104407 -8.98805455900693 11.84314400620524
0.7103048290370894 -8.78475011136427 15.07693175129133
2.554876713362315 -8.704747337706605 11.79217228075723
-8.549446951085057 -0.8936628134651099 17.83917118399622
-8.848009238390079 0.603481400252908 14.37623607060067
-8.1429825461299 2.859644243086512 17.40100038740848
-7.809552421271738 4.282743338205008 13.89048487273771
-6.311412108331066 5.959660204671322 16.76555002778392
-5.441496643898732 7.113315595428998 13.26583922106925
-3.094461072930222 8.163957531691295 16.12742578537138
-2.041494350719854 8.779493610583341 12.53183401973487
0.5512201880820112 8.778916102437273 15.29567351097839
1.627462228251179 8.933089221472773 11.68808766763702
-8.960964922734492 -1.641492310456657 11.30762305471854
-7.313826279536408 5.557728915023253 10.34436560257311
-0.8694584555301965 8.473400383434818 18.83197668395417
2.79291732625893 8.119421434751574 17.96213719902914
4.14858717122487 -7.790980619350854 14.90853432288719
2.647183044831399 -8.147948076997258 18.20565771041547
0.6455577145981116 -9.299755042089405 8.613099891792123
5.166230877197698 -7.468420474238966 11.6751238319162
-1.064908951531309 9.230098707414566 9.004547098947835
2.541327273898483 9.005169661476799 8.171463921588082
5.036989111001922 7.645621109169996 10.72789101462309
-6.852764231134642 4.861137810238178 20.30645512977662
5.827594273843678 -6.303714723607582 17.98264735144011
-7.120366044635462 -3.752839443774595 24.7921611428706
3.980213915453179 -7.314894407448544 21.24919976154075
-7.99957916620053 -2.235824610711307 21.52236611079694
0.501519321131269 -8.300362384535939 21.40360409822485
4.012439288615378 7.913104240001378 14.3293739169282
6.010692392709831 6.24686785875987 16.91179721432412
5.387081950559738 6.401318350552605 20.75618812136448
6.794871837485928 5.820694198248703 13.37824521707767
5.945615837809935 7.332841318614339 7.110555476785149
7.596912999883678 3.789102458060364 19.19363949674225
-0.8488800570045121 8.005453441546134 24.77285169793637
-7.056573000323716 3.907773533730127 24.56942038254974
8.533233272164441 -2.968830148637248 12.26233311017954
-1.214505332438821 -8.475966235913289 18.26470885501565
7.950368147403278 -2.961218773834938 19.2634193871926
-2.913777376377855 7.761533470096381 21.72193889565616
5.898601849395525 5.478628967796514 24.77206490504121
5.898601849363243 -5.478628967828172 24.772064905068
9.121106166416601 2.961043804796696 5.213347838129172
9.115754958748912 -2.950839154103183 5.318012196107779
7.4968718860912 -5.772236668718498 6.841067849731427
-4.568695330364624 8.024515487434783 9.733592797886869
-6.433724131535933 6.941008736938977 6.808436370821071
-8.655218859834729 3.742677816781584 7.245534248126901
-8.89172479827123 2.141739083455348 10.85075139748131
-9.385577413394936 -0.1459806284037655 7.792555069088566
-8.528954867711937 -3.835880035996954 8.235561678569876
-9.472678969334378 -1.957320790077629 4.157672687204673
-6.272387620666374 -7.089265507641698 6.788216830987625
-7.520852898152883 -5.088402703193033 11.6836420138196
4.232264302676541 -8.314405541743353 8.518263842709013
-3.107373694896189 -8.788427498809781 8.619887506300341
2.804479168269205 -9.120773522103612 5.816879085278946
1.911131957571815 9.551689353843541 3.290832759387697
1.966871366578261 8.079712937519897 21.40145971864706
8.468632391217023 3.160829004110933 12.20711088110555
-5.42778614421137 -8.093851279141836 3.235997281682641
-8.046132815012614 5.48794676051921 3.309997205232566
-5.324789462742577 8.145568370366371 3.410587983815482
-8.13721637554649 1.650646694088134 21.56310595253119
7.75638580637965 -5.906586654940662 3.185161279426984
7.793914462382429 5.850170631835333 3.237100250243572
-3.385268299175321 8.86358390616771 6.504895770604207
6.644231675642369 -5.872887712846423 14.38686210642671
7.259493621402868 5.65078551267891 10.17074763794675
0.3235806776251516 9.526596421061768 5.94535755438197
-4.253430720504432 7.370080914706318 18.93996044452759
6.60370511604176 -5.123221028646198 20.86347342271509
7.061683595042302 -5.929917092923838 9.895066922415413
7.936589445460194 5.149859298039264 6.84865656384188
1.909028710500636 -9.59621638576342 2.7412263555415
-3.745653269075578 -8.789003780330136 5.668569986550592
7.562902187427943 -2.588097298182812 25.49524231456779
7.562902187441045 2.588097298130995 25.49524231462346
-0.4029468562758411 -9.535224081333537 5.797405357534904
9.388099712298953 -2.801496465789439 2.577031783739673
9.382147308942733 2.825828720579631 2.560693277346565
5.148591694176731 -8.027844193884302 5.883032856808547
-6.357831257916829 -6.704928495328938 9.656382521646917
3.594272147764093 8.874696761288025 5.401192078978111
-5.038356466386354 6.54988059611626 22.06390978353338
4.074824370617431 7.110184351806637 22.93400945605217
-3.809928574440155 1.834640696730001 28
4.212103555571236 -1.0381902832466 28
-2.464357283368577 -3.570237892212768 28
1.680250516779032 4.250800034104715 28
1.538333686661438 -4.056252568019661 28
5.463792592726022 1.346703922305057 28
2.592892007885057 1.441474656931347 28
-0.6376611701156505 1.681374321602053 28
0.457405442969969 -1.026209492141945 28
-1.427448485036223 4.589343728727021 28
-2.323606686294937 -0.6328325844475893 28
-4.928859122504596 -1.25639459688076 28
4.27064928167726 -3.783465115229894 28
4.212103555571243 3.731598127856712 28
-0.6877254444321282 -5.663928608159952 28
-5.961406522715208 9.031957496229163 0
-5.96140652271524 -9.03195749622914 0
5.883681420410992 3.213748543947563 67.28990840443682
4.481712651254909 -3.177432529221948 82.66912391067751
8.859469299602249 3.255777734886542 32.54357614990941
7.539213853236301 -3.270306209000254 48.05554335083141
9.125951363561477 -3.381487224715997 28.81400353754705
6.967813461011353 3.060389446300829 55.7766423929165
7.655042782553831 3.742231684529923 44.20746827000669
9.79849809678991 3.297515537196783 21.11161024500162
-11.09527489538307 3.809012682760124 3.419408766471425
-6.321123640611522 -9.884519843909363 3.39415530464385
4.376726030725946 2.817894544132044 86.33349174119634
10.03540916690687 -3.541985050372614 17.25327613747449
-3.092753940500487 11.3196219633247 3.373238523878331
3.752172511923079 -3.141425038482989 90.29533585463945
5.127823093208041 -10.5478718400244 3.45273673049206
5.150938985619188 -3.27094646601781 74.94446563161718
8.176650330765099 -3.319557848809732 40.34475574628594
4.86311312677706 3.164125686601179 78.75485642628907
5.515912149700756 -3.836472353513482 67.10255841062163
6.549351529824886 -3.253310064738898 59.55566450511531
10.30782679394296 3.669794963381804 13.44820196145923
-2.723844371020274 3.415592807225254 96.96476903409871
7.945113376504877 8.630693833987415 3.419408766471542
-11.09527489538304 -3.809012682760148 3.419408766471707
10.64571497628378 -3.625511188324249 9.578748179178493
-2.633579180006027 -3.523592931555294 96.57950772588465
10.31700692552853 -5.583284939902463 3.419408766471381
11.06555625010669 3.306234306775616 5.731422828050557
3.374681076347565 3.1132268918116 94.13560339841358
4.812366599042043 -3.224042144942172 78.873476585039
6.213887481933059 3.245444915275248 63.39923967603456
7.854154908482224 -3.29597773825231 44.24681280899749
0.8839995536723747 4.277270915254395 96.9780051014545
-0.6087510069504397 4.572291850264672 93.86533233342223
-3.967763370978763 2.380981615854184 93.67860409287384
-2.514782277294542 4.167909695589317 90.62303120156031
2.066990261246719 -5.261510892665558 80.64680223727419
-4.80108364624302 0.9237778919459773 90.35193927379757
-4.148411874349152 3.013742045850459 87.3225173675719
-5.124635680411549 -0.5869825869384447 86.93403556407078
-5.122782828649765 1.689962471480975 83.93290014234525
-4.102942731135807 -2.73176048741506 89.84349415526822
-3.450955103805575 -3.897373372224187 86.33062376829567
-2.74525964620429 4.619206734186632 84.19882538123187
-4.323373963597374 3.620907277386757 80.81942428518379
-5.663254032746599 0.1873336032435064 80.4766336746259
-5.37961283511469 2.441209115202028 77.4112834124462
3.829378504189165 5.70078908652215 65.2140595431384
3.428112131907595 5.599839637092569 69.04764450439538
0.4887954665235053 6.721468060586366 66.84457821158199
1.121262930929118 6.938250966554015 63.17183930214748
0.04235021281728917 6.438779606489308 70.66023524719105
-2.946657784613637 5.916565989821929 68.48986022909331
-2.753265683547489 5.205468042889199 77.65080134600056
-5.790428627986908 -1.334465356796285 76.9715180640716
-6.101211141251321 0.9881053621990269 73.94113796353074
-5.568038290200307 -2.775568813770978 73.42303853409744
-4.628925851986176 -3.355453354230358 79.83093658536049
-6.435164392552136 -0.5311196167612977 70.42992237761062
-5.247299051160188 -3.842791694981163 69.8341028507366
-6.451079321379671 -1.943402915319675 66.86703132273864
-4.023661084854305 -5.463286858366085 66.26180261067503
-6.127111939367729 -3.421004872982743 63.30914599902164
5.810829952541892 -6.032398455548297 46.04865135579522
5.454019384401317 -5.953232912717747 49.88626449313612
2.801103881044663 -7.749788513652135 47.76931229868062
2.433005193501527 -7.556024708681665 51.61165950530971
-0.6609278683851458 -8.093569449835766 49.29358683715584
-0.2753269105294331 -8.410812522686928 45.54770706127871
-3.566700569080592 -6.118978245032839 62.48146878709192
-5.627547856048996 -4.652197573809397 59.69981156434729
-7.150044831844977 -1.216089672784625 60.31985223745507
-7.06618283733709 -2.613305668683606 56.74662677875487
-3.690484198562376 -7.430991664144964 47.0517639534628
-3.335383957306124 -7.923473235190324 43.24083662785014
-7.399115471130189 1.186921468407975 57.25784099797168
-7.760759914406725 -0.3897871682212047 53.7403547646635
-6.203411231724494 -5.791051823728521 44.64481503870916
-5.968630744192239 -6.446617532365205 40.84523745278359
-7.975742133653394 -3.431885792431527 42.14954416661956
-7.918583106006131 -4.235985411151232 38.3676935631822
-8.859183261117758 -0.6821139576620858 39.57469211406194
-9.05360181351559 -1.530853542585224 35.8046358458669
-2.929933348496586 -8.400454304437661 39.43054314031117
-8.895382422834453 1.90153831085279 36.89430637743626
-9.301278199467443 1.267945255295055 33.19746049117637
-9.162634299525635 -2.428357927247287 32.03277877511204
-9.683080772088772 0.2507154243478746 29.39801548132555
-9.2136867095863 -3.276037674758725 28.22333628339261
-9.96941571471698 -0.4891722570896053 25.64862189077442
-9.201123923599489 -4.106722543920339 24.44669030185982
-7.442035754283288 -6.495396537363055 26.96308847224153
-8.440358238297771 2.489632950233599 40.66135722862101
-10.18796692771487 -1.367747165724492 21.86270497060855
-9.138643596255102 -4.913859877108749 20.63521345178835
-9.365895246216128 3.193534714277788 26.7416604544458
-7.599381081223902 5.380449668993758 34.16349760765138
-10.34524815085215 -2.210078917119235 18.05950029086364
-10.37805387353595 1.516967626644877 19.2075117109118
-9.041799227589991 -5.678643366158763 16.80864592345207
-6.937918363677275 -7.855364100539095 19.30672886097411
-6.676037375141314 -8.46793157252803 15.4621248423595
-3.911421407520016 -9.844821331275677 17.87278692427803
-3.517382629580203 -10.31349310248063 14.01756068454767
-10.76850109362723 0.6120061800224341 15.42688085896477
-9.82153506552514 4.249612977003077 16.49920914269991
-0.4201439241643284 -10.70530706117179 16.34591689577853
-0.8218664069541621 -10.37677372167279 20.21214391096736
-6.947750706992418 3.407873913423416 54.14711199203694
0.0006748605605225146 -11.01792054428744 12.47850236886299
-7.7745555673332 1.937969993222941 50.6665577435035
-5.954396402771398 5.322386137540464 50.99758692874594
-4.43559985689421 6.315879071754057 54.41014961848915
-2.738418614381613 7.488177183548608 51.16549200375402
-0.8490251220603393 7.662911565633189 54.51212554270819
1.072163257561654 7.896949077128633 51.21362688232406
-0.8705831516622675 8.184474183419089 47.89418433741798
-8.882264488514211 -6.45026578048036 12.99496211849589
3.119543919148639 -10.38259215152734 14.72503030702501
-6.736918172846541 2.58942451966827 60.76841040692662
-10.45134189055625 3.425144627517624 12.72805936539685
-8.585387200419367 6.747962441089274 13.724172757672
-7.659942377404819 7.363312504584088 17.46955863775424
-5.723250973687327 9.216762727121875 14.62278279314284
-4.528917535474075 9.536717562114196 18.32913982793049
-2.147961431323799 10.57093424040303 15.41320351121604
-0.8163342121746604 10.46681932337586 19.07703144406096
-3.271641642614342 9.732475725000482 22.01154040578488
0.5265208057886694 10.19833587254766 22.71973007340368
-1.966949128285707 9.783731487734105 25.6729691446707
1.858332090240625 9.751519390839288 26.33983468570525
1.802899274094733 10.58236801175685 16.07528214198871
-0.4180093385033037 9.687187086225451 29.2725341525633
0.3971673641403575 11.01250947794286 12.45628521486784
4.108007991497958 10.17317252897957 13.07102031605705
-2.54196148533146 -6.908323784294662 58.9421982266571
-6.856972773178907 8.78247892667363 10.89858937355366
2.835569149828082 10.89267433880355 9.457214545759433
5.305462538275783 9.278653599147646 16.66578457377023
3.153235722756777 9.113796440071814 29.93750145836185
0.9980666729912486 9.357293032503298 32.90436462118009
5.676913212092674 8.102355302937532 26.76936867095031
-4.322333621277565 8.741062386190329 28.57186412400353
-2.975323957660133 -5.526783870095705 72.72048054554459
6.33398102364132 9.252523938327755 10.00140025851189
-4.029955886549009 -6.907523478749334 50.86101817507517
3.520061540446031 -10.57575101278081 10.84880366805721
0.4081786503786002 -11.31558464633513 8.602809420339252
6.318228320155814 -8.974881535355149 13.01350848550479
5.968370293533401 -8.845496048510531 16.89011634263142
0.1177152900687875 -7.141495859639576 61.72082201360877
2.954666032383791 7.685506815265372 47.85287071102821
1.040502130745261 8.432499064760407 44.51680673541912
-2.769497497109294 8.030719218375244 44.53708545300141
-0.8726755074234278 8.710494764848997 41.24305922708278
2.789376138723679 8.330667519283375 40.84725504475918
6.690175940387691 -9.083270146938268 9.133908576039355
-11.08226267541083 -0.2549562409788591 11.62369933505906
-7.140429499961773 4.140870031285689 47.59434720857399
-7.898598373967748 -1.568975326122678 50.15239134749162
1.175220688577208 -7.340249894612732 58.01990127534501
4.46769776294068 8.232144387747436 33.46368782882576
-2.705854990106569 6.948563492034686 57.72655707073599
2.996450244430661 5.504355379608286 72.84329996013764
5.142303763685591 -5.825279248732815 53.74375775698145
4.657464653016247 6.478106068781878 51.0969090769597
0.8853633889809653 7.409821006335652 57.65405543112102
-0.8500103053265271 11.27217837727938 8.841210351246609
-4.367288606517372 7.592171156123207 41.18502256814708
-3.114239077273277 8.462649371908361 37.8965281578336
0.8117400765011502 11.50663374660943 5.905456729298114
-10.97655456081946 2.642555216221019 9.019296250941814
-1.523017162654828 -7.49690172689939 55.27147838543051
-3.180992203191417 5.480566104102182 71.95749595877129
1.979888415474979 -4.986428075485636 84.30424969060424
-6.523223693716246 1.613544622331932 67.0910549554031
-11.35387093900846 -1.177879191241927 7.43560107962342
2.387532150705101 8.809831078752179 36.49705772699577
5.512315063876668 7.206687265993259 37.18921989783397
6.437707827360297 5.969896897321587 40.91734323626697
-1.714684285248882 -4.682169777183954 89.11793074351316
-2.310489625791758 -4.106458645292604 92.60494920429589
5.904603289294545 5.740452272115601 47.83738941232055
1.254903866020898 4.690446735387388 90.78053429165655
-5.827844216186098 6.890779992484516 37.80378045631257
-5.46217808403787 7.542069798448632 34.15096110110651
-7.124876663343107 6.402281611396706 30.76448319835202
-7.952930922433622 -2.658036675564276 45.92835066283159
-0.981425048882092 5.011990212035081 87.58164002365606
7.930181237457241 4.309784348672977 37.7929410224499
-4.373797870819125 0.05949301263183673 96.89494471490113
2.425769257960733 -5.437810937582964 76.81741565136404
2.82027200399946 -5.587699571852098 72.94506308023425
-0.6805616705766129 6.097069356379583 74.52272551458579
-2.28720780664464 -4.997592158204522 82.6397327241758
8.698937937101356 -6.42202600039441 15.08639540346884
6.159055087524088 -6.114894438187474 42.19668184840133
6.557663234334478 -6.139986763947839 38.32889436246448
3.617059567717788 -8.074059986098751 40.0596794203086
4.018546156607024 -8.219860201464424 36.21801957081868
6.886376630063766 -6.227490249577648 34.50241414923185
4.420770529828754 -8.353721424266951 32.38376489855744
1.034306625644528 -9.265725093709401 34.01101929153396
1.455471181711378 -9.515127178311491 30.16706076394861
-2.081196685996104 -9.273555228590089 31.711886031363
-1.677915767373391 -9.661823163084154 27.87184663657475
1.896727057262915 -9.745115826842369 26.32746610118727
3.782142525560794 -6.155109641835102 60.68149130237217
2.3064230900129 -6.536899948076212 64.39685623619434
5.681053074920379 -4.124093121341181 63.27499176307369
2.903228322415236 -5.924721112562403 68.6413724542072
-0.7433903141448365 -6.705608572233539 66.74964226454995
9.208503740988455 3.149633466306311 28.81446833588597
6.780077027356854 6.799156489355296 30.4697638193337
7.252997213954829 -6.272680699543015 30.63229387876893
8.783625378920924 -3.424817003138144 32.68422501861779
7.650592383585349 -6.272655600497491 26.767912864926
-2.500771946410678 -8.85669387441474 35.53947713148045
-5.352627411904799 -7.716130355373731 33.15156592819336
-5.693208369560556 -7.080356596848776 37.03379947176597
-6.41516139442058 -5.08799213174902 48.43712658323305
-1.336082905341356 -5.659187500338486 78.59083090662011
2.767451965606174 -3.656060944166346 94.21187059484977
0.8502221189687292 -4.28245174500155 96.99870917382096
4.151595880050725 -3.10881660211555 86.57286023530499
8.264392316332444 -6.485840875475648 18.9889500898957
5.620047272972968 -8.710689752060224 20.7575924983292
9.700792425928149 -3.564035243356583 21.15859965850633
3.193893957489922 -7.922955680820285 43.9317928027663
4.48357570825921 3.182873906471004 82.60981160837999
2.073997266700022 5.274460263207301 80.4611004648701
1.614789335008934 5.119291401965853 84.26841963380122
8.885326631180359 -6.681369596832322 11.21841295671529
9.183088341081813 -6.844255360442125 6.949332170305009
2.719224994450698 -10.17951885791493 18.59615982359719
2.316360904704772 -9.967054559930244 22.45595182042055
5.230186812348898 3.144617887825967 74.93175104653113
-5.079409767513662 -1.934781934297503 83.41090433262684
6.549329588493538 3.253376719494234 59.5555374068739
4.228530187238268 5.797800543653904 61.29474697374359
7.022602621137494 3.690247845470636 51.67422247450335
6.894540833873587 -3.219816975596809 55.78874224950925
5.403186564082621 -3.44451109727355 71.05645023228901
5.25003549728119 -8.582831088977494 24.63471599935325
4.906025587067429 6.953957164101918 44.33979664187699
8.491107383545241 -3.341365620200755 36.53172843524582
9.52162597561184 3.181370801037347 24.91625971182517
7.378492405234397 7.002798177775055 23.2196047372298
8.151047244181116 6.627936321350681 18.98725753655535
5.735399446064398 8.640337047517235 20.70294677471676
8.701175659518253 6.413918075612778 15.12467223018841
-7.212277764080618 -7.182736279524391 23.1401146656074
9.415227463841347 -3.469064951183788 24.98054804332518
10.01689256168288 3.58874489030224 17.27588477653849
8.918070410106676 6.660053228645773 11.04789741477921
10.36818371707417 -3.501448111218678 13.4245812188811
-9.914539755082966 2.356929882646367 22.98755915515927
-8.314276816222918 5.752983877276264 24.00723511583531
-6.624074934461215 7.929483459274326 21.19096564900298
-5.443682663118766 8.441186758737064 24.84993425181579
2.725043734852846 7.217074904125035 54.45365652499188
0.6032741618312499 -9.00188270871949 37.83812846387185
0.1651112640531981 -8.717512320331224 41.68809462473727
-3.283277592899592 6.099228486953693 64.46117138660078
-1.237229813913186 -10.02985308113895 24.06715203683363
-4.466793796120466 6.920501369243548 47.81544066459565
-5.802550227963509 4.699192418838898 57.60070639649811
-4.524662044177692 5.604719388963197 60.94969105122838
-10.43938153723168 -3.061288040541094 14.24392977675857
-3.135860919017738 -10.74860129866172 10.20691543400448
-2.935034655767513 -11.12491700872894 6.28229244317184
-6.227295700650268 -9.533379415932805 7.788476226684874
-9.03219196132247 -7.200460439721529 5.704249278435475
1.068720916854326 -11.62242739225482 4.174494133606616
-5.876870770459358 6.138203635876188 44.49776450141589
-5.882104340959601 3.705706249411712 64.13991053283947
-9.07740655734626 5.077435568963179 20.31791723891753
-6.964201400287698 0.2882140857324346 63.91014212375671
-9.40705511416793 6.096589418697773 10.03960849707293
-8.113957184229729 8.058352070604055 7.171164219492057
-3.38174336431259 10.54508761527031 11.76503628390705
-8.589432514391156 -0.08420533470621727 43.33012440689709
-6.379064350149357 -4.516188123139361 53.16393017023162
-4.90148940319052 -5.794892315999174 56.03664356540731
-10.41127177942188 -4.072190016448212 10.4276622194667
-7.793611342624296 -5.045758616449146 34.5049870885456
-4.288730062997248 -9.353118064186887 21.73383179504635
-4.663359871001266 -8.83089369721978 25.58303572651014
4.867546262563958 -8.456233625845831 28.49881604988495
-7.621024034309489 -5.804409705313703 30.7524776474019
5.178078911130995 10.25770463290395 6.473028797525139
-4.993328072675585 -8.300778852722189 29.39057579526722
-4.821657449946455 10.298815767657 7.98418785636555
5.545316124772948 3.200633963616605 71.12041853286362
-6.348091242539321 -9.080379560016379 11.6982202938347
-3.935880582470612 -4.520599496703763 76.31458940344676
7.909821985732236 -6.429996934333652 22.95207473752704
10.65856818094448 3.603453651278087 9.514150629231441
8.138060097913923 -8.450692796680771 3.403959491999701
4.067125445045646 6.261634517498138 57.6027674630624
7.224872100554705 -3.23933175679278 51.868875598896
-11.73666604211394 0.04718123912198326 3.344770207887467
-5.949797687215063 10.08197956254045 3.726958034857577
-8.975822637120327 7.530439445422308 3.604086271596283
2.782706658833048 5.292653280000699 76.49641487974421
3.897184583458194 -10.75638332373884 7.107572426974606
-4.522928016685367 -1.116538227789206 93.27999296042566
-0.1466572697246059 -6.442930970736342 70.5880510842873
-8.940872070613558 -6.845110856428362 9.398565285688761
4.624680480820029 -5.890054643293817 57.32168334791353
2.594424111266467 10.13181602242501 19.58387491242161
10.22813237147914 5.778600291798614 3.206609444452352
8.835642696906353 7.3182731209992 6.698399096669463
11.08750541272907 -3.153571137335155 6.006695905738188
-5.657202652786991 3.062192770992701 70.73793305249328
-8.212731936570984 1.038235552706816 47.29125463173683
7.209528478687587 5.880507304918089 34.26053648306459
-10.19995866484992 5.273184666015069 6.576663225402136
4.300807579337978 10.94480575407274 3.05590783716278
-10.52422774782841 -4.527297058310068 6.903384479773399
-7.594598659751933 6.271511269558294 27.32654310852825
7.956958315830809 5.884249039971928 26.72951731667964
-3.224671097498177 8.922966546968645 31.92087115092011
-0.5155269688868627 -6.062175831912949 75.16918892446202
4.152225397643531 9.232777060478343 23.84325860972983
-2.89029243851477 -11.41350672568136 2.874381086551298
-1.508034142645382 5.429304582363539 80.87692083548143
8.257878026408314 2.993594578312977 40.86640769673176
0.675787463642481 -4.726761959406258 91.80453479411077
-8.927514502659676 3.503167906129625 30.61890570298381
2.053720169803783 -7.398135477348262 54.9174654244827
7.770422046461876 2.678231393665331 48.04183454673129
-7.736843726187792 3.537597894507838 44.37956138562829
-1.512941252080356 7.054711390433695 60.79767599490604
-4.329239788235686 4.287738596895608 75.05307980651777
0.9739532238519786 11.75386743807442 2.615566636583301
4.136490153060944 2.610269484400888 90.32558230896208
-9.30918205855296 -7.245627232442194 2.584327314864245
1.576871404464888 -4.839456285904425 87.8014217453687
6.498132335320623 -9.520370677706154 6.014745764104106
-1.594197738010065 9.103091075145898 35.04840811940173
5.320691086196843 5.632634301123059 54.02283135770032
-11.38249108411593 1.872381276445156 5.902497658346596
-0.7473606418377668 -7.835334115426699 52.46523693745093
-3.001768655560901 -5.837574127703696 69.06919574195754
6.773048162128942 8.639798501114694 12.98353315466331
3.150491641629034 -2.99878010852642 97.2086302191444
3.407052942739645 2.703714494624518 97.20891928206666
-6.807458801772011 5.471046683271027 41.50494514683182
0.1312676688643333 5.844406604986242 78.19550131087449
11.43916655721956 2.810293386194912 2.804058776005244
11.4227987832511 -2.859507460082605 2.855394504863018
-0.8183929021767927 -5.16345271735792 86.04760099369275
-5.137277792671655 4.330565809280175 67.10103004340861
-2.504477388026767 11.22703761269287 6.315109930115376
2.225690910328113 4.563570168337198 87.96012061743762
-0.01991481088990133 8.967684791755026 38.52893689225564
8.778627302485706 2.840585079853176 35.23727203571963
-0.05469789955032378 -4.565507725670101 94.46001779304729
-3.73822165857038 -6.815155133619844 53.70821882825879
-7.796097614462653 4.465675870828783 38.31544812873984
-1.283143961343574 -6.837560528676755 64.07844668488359
1.669099351502286 7.043931611306417 60.49446525361564
-6.661338147750939e-15 5.900042359436546e-15 100
-0.03897899735895549 -0.02294535556802457 36.97374134684393
-0.001969881829228193 -0.001533735946412484 47.32138605762825
-0.116163459931383 0.1882086065737392 55.45350134827288
0.008817702151385776 0.005016996226169468 63.36102615297067
-0.08749168866925849 0.0814421691272762 72.51238708812612
2.752386358279558 3.046191925161141 33.15077428467378
-0.826708936244096 -4.188610254820348 33.25509428711494
-0.1725088747724919 0.05627953523851303 78.30891156136433
-2.229346618171456 -2.126490581958289 42.29450985044422
-3.879040039331666 0.1116188145179862 32.99050326324033
2.827826521554385 0.9508340395771908 42.06592720590074
3.859371307206178 -2.418974339554046 32.82160622333526
0.09265999190466268 -0.03863515037637897 85.17479340037931
-1.915779192863167 3.169841496537561 42.6805784504214
2.024916633803627 -2.400103675201016 51.43477159838545
-2.782991123060867 1.387505129882973 51.31899741686603
-1.459292131744065 -1.257439469998581 67.93262513393597
-0.02432199889249276 -0.05283267324374297 90.05780947783451
0.05634350155732185 -2.862757208824747 59.46661671397635
2.723049759269431 -3.254056184337297 39.48283640496948
-2.39917344879385 4.494528194300377 34.40575479870625
1.955017615712979 2.465669635449723 51.67690940392835
1.432435509392367 2.369918839972457 59.43644039519372
-4.304600773004295 0.702242251554247 39.03148549660795
-2.149559971678006 -4.119507544038989 37.73387369080488
2.213765506776752 -3.212403753663668 44.45671725689682
-0.1307571101749794 0.06779108854410505 94.96497955225448
0.8868727186429425 4.265861278338603 38.93393774607586
4.65753486889994 0.3722779338503289 36.55769799063749
-3.170568102397807 0.4777799738551365 58.84141580932144
2.178068573195648 1.328214873990345 68.88634242506865
-2.335840897256295 -2.971183373537525 51.99977585683666
0.2816203742867164 -0.2492367119345631 32.16058059634646
1.635858021292865 3.922921782940087 45.52918498899756
-4.112910961763406 0.4223228872860743 45.50770919464941
-1.236168985940822 -4.048679787179225 48.00056945527505
3.410714658603233 -1.302584224581226 57.33853412596338
4.188197771844957 -0.5555195668238349 48.1890182166562
-1.451036110495732 4.05610427397326 48.36786076217366
2.273343779707869 -4.643656561800254 35.75203475059827
5.788994564637651 0.8823653884541174 31.89380718296433
0.1621988096231521 -3.826966898660391 55.06237766097206
-1.031530637909773 2.707751498653068 66.46914414574456
-1.950760100051291 0.6004719136647527 81.81350995205857
-4.381589531389407 -3.577373352752537 31.51572875158595
-3.239589555346175 2.645719288769415 55.36055715029573
1.836691713912571 -0.4492323089535323 81.65258296607897

CELLS 3162 14460
1 0
1 1
1 2
1 3
2 0 4
2 4 5
2 5 6
2 6 7
2 7 8
2 8 9
2 9 10
2 10 1
2 0 11
2 11 12
2 12 13
2 13 14
2 14 15
2 15 16
2 16 17
2 17 18
2 18 19
2 19 20
2 20 21
2 21 22
2 22 23
2 23 24
2 24 25
2 25 0
2 1 26
2 26 27
2 27 28
2 28 29
2 29 30
2 30 31
2 31 32
2 32 33
2 33 34
2 34 35
2 35 36
2 36 37
2 37 1
2 2 38
2 38 39
2 39 40
2 40 41
2 41 42
2 42 43
2 43 44
2 44 45
2 45 46
2 46 47
2 47 48
2 48 49
2 49 50
2 50 51
2 51 52
2 52 53
2 53 54
2 54 55
2 55 2
2 3 56
2 56 57
2 57 58
2 58 59
2 59 60
2 60 61
2 61 3
2 2 62
2 62 63
2 63 64
2 64 65
2 65 66
2 66 67
2 67 68
2 68 69
2 69 70
2 70 71
2 71 72
2 72 73
2 73 74
2 74 75
2 75 76
2 76 77
2 77 78
2 78 79
2 79 80
2 80 81
2 81 82
2 82 83
2 83 84
2 84 85
2 85 86
2 86 3
3 4 194 0
3 0 195 4
3 11 195 0
3 0 194 25
3 1 191 10
3 10 192 1
3 1 192 26
3 37 191 1
3 4 157 5
3 5 158 4
3 4 195 157
3 158 194 4
3 5 95 6
3 6 96 5
3 5 157 95
3 96 158 5
3 7 151 6
3 6 174 7
3 95 174 6
3 6 151 96
3 7 93 8
3 8 94 7
3 7 174 93
3 94 151 7
3 8 148 9
3 9 153 8
3 93 148 8
3 8 153 94
3 9 102 10
3 10 103 9
3 9 148 102
3 103 153 9
3 102 192 10
3 10 191 103
3 12 180 11
3 180 195 11
3 13 100 12
3 100 180 12
3 14 172 13
3 13 172 100
3 15 90 14
3 90 172 14
3 16 177 15
3 15 177 90
3 17 176 16
3 176 177 16
3 18 89 17
3 89 176 17
3 19 166 18
3 18 166 89
3 20 99 19
3 99 166 19
3 21 175 20
3 20 175 99
3 22 91 21
3 91 175 21
3 23 189 22
3 22 189 91
3 24 101 23
3 101 189 23
3 25 179 24
3 24 179 101
3 25 194 179
3 26 155 27
3 26 192 155
3 27 97 28
3 27 155 97
3 28 149 29
3 97 149 28
3 29 87 30
3 29 149 87
3 30 150 31
3 87 150 30
3 31 92 32
3 31 150 92
3 32 139 33
3 92 139 32
3 33 88 34
3 33 139 88
3 34 104 35
3 88 104 34
3 35 98 36
3 35 104 98
3 36 156 37
3 98 156 36
3 156 191 37
3 149 154 87
3 87 199 150
3 154 199 87
3 88 105 104
3 88 106 105
3 88 139 106
3 89 164 162
3 162 176 89
3 89 166 164
3 90 184 172
3 177 181 90
3 181 184 90
3 91 190 175
3 189 193 91
3 91 193 190
3 92 141 139
3 92 178 141
3 150 178 92
3 93 146 144
3 144 148 93
3 93 174 146
3 94 153 138
3 138 182 94
3 94 182 151
3 157 188 95
3 95 183 174
3 95 188 183
3 151 187 96
3 96 159 158
3 96 187 159
3 97 173 149
3 155 200 97
3 97 200 173
3 104 142 98
3 98 142 140
3 140 156 98
3 165 166 99
3 99 167 165
3 99 175 167
3 147 180 100
3 100 198 147
3 172 198 100
3 171 189 101
3 101 196 171
3 179 196 101
3 102 148 145
3 145 155 102
3 155 192 102
3 103 186 153
3 156 186 103
3 103 191 156
3 105 142 104
3 106 107 105
3 107 152 105
3 105 152 142
3 106 108 107
3 106 141 108
3 139 141 106
3 108 109 107
3 109 110 107
3 110 152 107
3 108 111 109
3 108 116 111
3 108 141 116
3 109 112 110
3 111 168 109
3 109 168 112
3 112 113 110
3 113 114 110
3 114 152 110
3 116 117 111
3 117 126 111
3 126 168 111
3 112 170 113
3 168 197 112
3 112 197 170
3 113 115 114
3 113 132 115
3 113 170 132
3 115 130 114
3 130 131 114
3 131 152 114
3 115 133 130
3 132 169 115
3 115 169 133
3 116 118 117
3 116 178 118
3 141 178 116
3 118 119 117
3 119 163 117
3 117 163 126
3 118 120 119
3 118 137 120
3 118 178 137
3 120 121 119
3 121 127 119
3 127 163 119
3 120 122 121
3 120 185 122
3 137 185 120
3 122 123 121
3 123 160 121
3 121 160 127
3 122 124 123
3 122 128 124
3 122 185 128
3 124 125 123
3 125 134 123
3 134 160 123
3 124 143 125
3 128 129 124
3 129 143 124
3 125 135 134
3 125 136 135
3 125 143 136
3 163 164 126
3 164 165 126
3 165 168 126
3 160 161 127
3 161 162 127
3 162 163 127
3 128 173 129
3 154 173 128
3 128 185 154
3 129 144 143
3 129 145 144
3 129 173 145
3 130 138 131
3 133 182 130
3 130 182 138
3 138 140 131
3 140 142 131
3 142 152 131
3 132 171 169
3 170 193 132
3 132 193 171
3 169 187 133
3 133 187 182
3 135 184 134
3 134 181 160
3 134 184 181
3 136 147 135
3 147 198 135
3 135 198 184
3 143 146 136
3 146 183 136
3 136 183 147
3 137 178 150
3 150 199 137
3 137 199 185
3 138 186 140
3 153 186 138
3 140 186 156
3 144 146 143
3 145 148 144
3 145 200 155
3 173 200 145
3 174 183 146
3 147 188 180
3 183 188 147
3 149 173 154
3 182 187 151
3 185 199 154
3 180 188 157
3 157 195 180
3 159 179 158
3 179 194 158
3 159 187 169
3 169 196 159
3 159 196 179
3 160 181 161
3 161 176 162
3 161 177 176
3 161 181 177
3 162 164 163
3 164 166 165
3 167 197 165
3 165 197 168
3 167 190 170
3 170 197 167
3 175 190 167
3 171 196 169
3 190 193 170
3 171 193 189
3 184 198 172
3 26 206 1
3 1 202 37
3 1 206 202
3 27 214 26
3 26 214 206
3 28 204 27
3 204 214 27
3 29 210 28
3 28 210 204
3 30 210 29
3 31 201 30
3 201 210 30
3 32 212 31
3 31 212 201
3 33 212 32
3 34 203 33
3 203 212 33
3 35 215 34
3 34 215 203
3 36 205 35
3 205 215 35
3 37 213 36
3 36 213 205
3 202 213 37
3 208 210 201
3 201 211 208
3 201 212 211
3 202 209 205
3 205 213 202
3 206 207 202
3 207 209 202
3 205 209 203
3 203 215 205
3 209 211 203
3 211 212 203
3 204 208 207
3 207 214 204
3 204 210 208
3 206 214 207
3 208 209 207
3 208 211 209
3 2 0 38
3 55 0 2
3 38 0 11
3 25 0 55
3 11 12 39
3 39 38 11
3 40 12 13
3 39 12 40
3 14 41 13
3 13 41 40
3 15 42 14
3 42 41 14
3 16 216 15
3 43 42 15
3 15 216 43
3 45 16 17
3 45 44 16
3 44 216 16
3 46 17 18
3 46 45 17
3 47 18 19
3 47 46 18
3 48 19 20
3 48 47 19
3 21 217 20
3 49 48 20
3 20 217 49
3 22 51 21
3 21 51 50
3 50 217 21
3 23 52 22
3 22 52 51
3 24 53 23
3 23 53 52
3 25 54 24
3 24 54 53
3 25 55 54
3 43 216 44
3 49 217 50
3 38 568 2
3 2 569 55
3 2 568 62
3 62 569 2
3 3 565 56
3 61 564 3
3 3 564 86
3 86 565 3
3 39 529 38
3 529 568 38
3 40 240 39
3 240 529 39
3 41 536 40
3 40 536 240
3 42 553 41
3 41 553 536
3 43 230 42
3 230 553 42
3 44 520 43
3 43 520 230
3 45 521 44
3 44 521 520
3 46 226 45
3 226 521 45
3 47 519 46
3 46 519 226
3 48 241 47
3 241 519 47
3 49 555 48
3 48 555 241
3 50 227 49
3 227 555 49
3 51 543 50
3 50 543 227
3 52 491 51
3 491 543 51
3 53 232 52
3 232 491 52
3 54 516 53
3 53 516 232
3 55 244 54
3 244 516 54
3 55 569 244
3 56 250 57
3 56 565 250
3 57 239 58
3 57 250 239
3 58 408 59
3 239 408 58
3 59 243 60
3 59 408 243
3 60 441 61
3 243 441 60
3 441 564 61
3 62 245 63
3 63 531 62
3 62 568 245
3 531 569 62
3 64 242 63
3 63 515 64
3 242 531 63
3 245 515 63
3 64 238 65
3 65 473 64
3 64 515 238
3 64 473 242
3 66 229 65
3 65 471 66
3 229 473 65
3 238 471 65
3 66 225 67
3 67 445 66
3 66 471 225
3 66 445 229
3 67 464 68
3 68 470 67
3 225 464 67
3 67 470 445
3 69 222 68
3 68 430 69
3 222 470 68
3 68 464 430
3 69 220 70
3 70 433 69
3 69 430 220
3 69 433 222
3 71 463 70
3 70 575 71
3 220 575 70
3 70 463 433
3 72 234 71
3 71 545 72
3 234 463 71
3 407 545 71
3 71 575 407
3 72 224 73
3 73 249 72
3 72 545 224
3 72 249 234
3 74 221 73
3 73 549 74
3 221 249 73
3 224 549 73
3 74 458 75
3 75 518 74
3 74 518 221
3 74 549 458
3 75 223 76
3 76 459 75
3 75 458 223
3 459 518 75
3 77 237 76
3 76 456 77
3 223 456 76
3 237 459 76
3 77 248 78
3 78 427 77
3 77 427 237
3 77 456 248
3 78 218 79
3 79 236 78
3 78 248 218
3 236 427 78
3 80 460 79
3 79 511 80
3 218 511 79
3 79 460 236
3 81 233 80
3 80 454 81
3 233 460 80
3 80 511 454
3 81 235 82
3 82 247 81
3 81 247 233
3 81 454 235
3 83 219 82
3 82 447 83
3 219 247 82
3 235 447 82
3 83 228 84
3 84 442 83
3 83 442 219
3 83 447 228
3 85 231 84
3 84 554 85
3 228 554 84
3 231 442 84
3 85 246 86
3 86 440 85
3 85 440 231
3 85 554 246
3 246 565 86
3 86 564 440
3 248 265 218
3 265 266 218
3 266 511 218
3 219 254 247
3 219 392 254
3 219 442 392
3 430 431 220
3 431 534 220
3 534 575 220
3 221 281 249
3 221 282 281
3 221 518 282
3 222 433 432
3 432 434 222
3 434 470 222
3 223 517 456
3 458 559 223
3 223 559 517
3 397 462 224
3 224 545 397
3 224 462 400
3 400 549 224
3 225 465 464
3 225 466 465
3 225 471 466
3 519 560 226
3 226 535 521
3 226 560 535
3 488 489 227
3 227 543 488
3 489 490 227
3 490 555 227
3 447 449 228
3 449 573 228
3 228 573 554
3 229 443 413
3 413 473 229
3 229 445 443
3 388 553 230
3 230 572 388
3 520 572 230
3 440 546 231
3 231 556 442
3 546 556 231
3 232 523 491
3 516 557 232
3 232 557 523
3 247 409 233
3 409 410 233
3 410 460 233
3 249 414 234
3 414 415 234
3 415 463 234
3 235 448 447
3 235 522 448
3 454 522 235
3 426 427 236
3 236 428 426
3 236 460 428
3 237 427 425
3 425 527 237
3 237 527 459
3 468 471 238
3 238 472 468
3 238 515 472
3 250 251 239
3 251 252 239
3 252 408 239
3 508 530 240
3 240 536 508
3 240 530 529
3 394 519 241
3 241 537 394
3 490 537 241
3 241 555 490
3 450 451 242
3 242 473 450
3 451 531 242
3 243 524 399
3 399 576 243
3 408 524 243
3 243 576 441
3 451 516 244
3 244 531 451
3 244 569 531
3 245 530 515
3 529 530 245
3 245 568 529
3 246 251 250
3 250 565 246
3 246 401 251
3 246 554 401
3 254 409 247
3 248 457 265
3 456 457 248
3 281 414 249
3 251 253 252
3 251 401 253
3 253 255 252
3 255 524 252
3 252 524 408
3 253 256 255
3 253 406 256
3 401 406 253
3 392 412 254
3 254 439 409
3 412 439 254
3 256 257 255
3 257 259 255
3 259 524 255
3 256 258 257
3 256 261 258
3 256 406 261
3 258 455 257
3 257 260 259
3 257 455 260
3 261 262 258
3 262 263 258
3 263 455 258
3 260 398 259
3 398 399 259
3 399 524 259
3 260 570 398
3 260 455 412
3 412 570 260
3 261 544 262
3 406 449 261
3 449 544 261
3 262 264 263
3 262 271 264
3 262 544 271
3 264 272 263
3 272 275 263
3 275 455 263
3 271 552 264
3 264 273 272
3 264 552 273
3 265 267 266
3 265 268 267
3 265 457 268
3 267 269 266
3 269 381 266
3 381 511 266
3 268 481 267
3 267 270 269
3 267 481 270
3 457 580 268
3 268 551 481
3 268 580 551
3 270 391 269
3 269 411 381
3 391 411 269
3 270 532 391
3 481 571 270
3 270 571 532
3 411 552 271
3 271 567 411
3 544 567 271
3 273 274 272
3 274 513 272
3 272 513 275
3 273 276 274
3 273 532 276
3 273 552 532
3 276 277 274
3 277 361 274
3 361 513 274
3 275 439 412
3 412 455 275
3 275 513 439
3 276 278 277
3 276 393 278
3 276 532 393
3 278 279 277
3 279 562 277
3 277 562 361
3 278 280 279
3 278 495 280
3 393 495 278
3 280 287 279
3 287 579 279
3 429 562 279
3 279 579 429
3 280 288 287
3 280 289 288
3 280 495 289
3 282 283 281
3 283 446 281
3 281 446 414
3 282 284 283
3 282 382 284
3 282 518 382
3 284 285 283
3 285 286 283
3 286 446 283
3 284 561 285
3 382 548 284
3 548 561 284
3 285 291 286
3 285 363 291
3 285 561 363
3 291 292 286
3 292 480 286
3 286 480 446
3 288 353 287
3 353 368 287
3 368 579 287
3 289 290 288
3 290 501 288
3 288 501 353
3 289 293 290
3 289 337 293
3 289 495 337
3 293 294 290
3 294 500 290
3 500 501 290
3 291 295 292
3 291 438 295
3 363 438 291
3 295 296 292
3 296 301 292
3 301 480 292
3 293 326 294
3 293 484 326
3 337 484 293
3 326 328 294
3 328 377 294
3 377 500 294
3 295 297 296
3 295 405 297
3 295 438 405
3 297 298 296
3 298 437 296
3 296 437 301
3 297 299 298
3 297 499 299
3 405 499 297
3 299 300 298
3 300 503 298
3 298 503 437
3 299 302 300
3 299 310 302
3 299 499 310
3 302 303 300
3 303 304 300
3 304 503 300
3 301 437 435
3 435 479 301
3 479 480 301
3 302 314 303
3 310 578 302
3 302 578 314
3 303 305 304
3 303 547 305
3 314 547 303
3 305 306 304
3 306 507 304
3 304 507 503
3 305 307 306
3 305 313 307
3 305 547 313
3 307 308 306
3 308 309 306
3 309 507 306
3 307 311 308
3 307 474 311
3 313 474 307
3 308 469 309
3 311 312 308
3 312 469 308
3 469 505 309
3 505 509 309
3 309 509 507
3 499 550 310
3 550 566 310
3 566 578 310
3 311 315 312
3 311 316 315
3 311 474 316
3 315 317 312
3 317 318 312
3 318 469 312
3 313 475 474
3 313 538 475
3 313 547 538
3 402 403 314
3 314 578 402
3 403 404 314
3 404 547 314
3 316 322 315
3 315 486 317
3 322 486 315
3 316 323 322
3 316 494 323
3 474 494 316
3 317 319 318
3 317 335 319
3 317 486 335
3 319 320 318
3 320 504 318
3 318 504 469
3 319 321 320
3 319 512 321
3 335 512 319
3 321 324 320
3 324 325 320
3 325 504 320
3 321 327 324
3 321 487 327
3 321 512 487
3 323 338 322
3 338 375 322
3 375 486 322
3 323 339 338
3 323 340 339
3 323 494 340
3 324 452 325
3 327 336 324
3 336 452 324
3 452 453 325
3 453 482 325
3 482 504 325
3 326 329 328
3 326 330 329
3 326 484 330
3 327 364 336
3 327 365 364
3 327 487 365
3 329 376 328
3 376 533 328
3 328 533 377
3 330 331 329
3 331 483 329
3 329 483 376
3 330 332 331
3 330 380 332
3 330 484 380
3 332 333 331
3 333 334 331
3 334 483 331
3 332 478 333
3 380 384 332
3 384 478 332
3 333 369 334
3 333 383 369
3 333 478 383
3 369 370 334
3 370 371 334
3 371 483 334
3 486 502 335
3 502 526 335
3 335 526 512
3 364 366 336
3 366 367 336
3 367 452 336
3 337 485 484
3 337 493 485
3 337 495 493
3 339 496 338
3 338 389 375
3 338 496 389
3 340 341 339
3 341 354 339
3 354 496 339
3 340 342 341
3 340 476 342
3 340 494 476
3 342 343 341
3 343 498 341
3 341 498 354
3 342 344 343
3 342 345 344
3 342 476 345
3 344 349 343
3 349 351 343
3 351 498 343
3 345 346 344
3 346 528 344
3 344 528 349
3 345 347 346
3 345 477 347
3 476 477 345
3 347 348 346
3 348 542 346
3 346 542 528
3 347 350 348
3 347 360 350
3 347 477 360
3 350 357 348
3 357 359 348
3 359 542 348
3 349 352 351
3 349 356 352
3 349 528 356
3 350 358 357
3 350 540 358
3 360 540 350
3 352 355 351
3 355 385 351
3 385 498 351
3 352 362 355
3 356 563 352
3 352 563 362
3 353 378 368
3 353 390 378
3 353 501 390
3 354 497 496
3 354 510 497
3 498 510 354
3 362 508 355
3 355 388 385
3 355 508 388
3 356 467 466
3 466 468 356
3 356 528 467
3 468 563 356
3 358 379 357
3 357 431 359
3 379 431 357
3 358 395 379
3 358 558 395
3 540 558 358
3 431 539 359
3 359 539 465
3 465 542 359
3 360 538 404
3 404 540 360
3 477 538 360
3 361 541 513
3 525 541 361
3 361 562 525
3 472 530 362
3 362 563 472
3 362 530 508
3 363 500 438
3 363 577 500
3 561 577 363
3 365 523 364
3 364 374 366
3 364 523 374
3 487 488 365
3 488 491 365
3 491 523 365
3 366 413 367
3 374 450 366
3 366 450 413
3 413 443 367
3 443 444 367
3 444 452 367
3 378 425 368
3 425 426 368
3 426 579 368
3 369 462 370
3 383 400 369
3 400 462 369
3 370 372 371
3 370 373 372
3 370 462 373
3 372 386 371
3 386 492 371
3 371 492 483
3 373 574 372
3 372 387 386
3 372 574 387
3 373 396 395
3 395 574 373
3 373 397 396
3 373 462 397
3 374 451 450
3 374 557 451
3 523 557 374
3 389 394 375
3 394 502 375
3 375 502 486
3 483 492 376
3 492 550 376
3 376 550 533
3 405 438 377
3 377 533 405
3 438 500 377
3 390 548 378
3 378 527 425
3 378 548 527
3 395 396 379
3 396 534 379
3 379 534 431
3 380 551 384
3 484 485 380
3 485 551 380
3 411 522 381
3 454 511 381
3 381 522 454
3 382 518 459
3 459 527 382
3 527 548 382
3 383 458 400
3 383 559 458
3 478 559 383
3 384 517 478
3 384 580 517
3 551 580 384
3 388 572 385
3 385 510 498
3 385 572 510
3 387 402 386
3 402 566 386
3 386 566 492
3 387 403 402
3 387 558 403
3 387 574 558
3 508 536 388
3 536 553 388
3 389 560 394
3 496 535 389
3 535 560 389
3 501 577 390
3 390 561 548
3 390 577 561
3 391 552 411
3 532 552 391
3 392 570 412
3 442 556 392
3 556 570 392
3 493 495 393
3 393 571 493
3 532 571 393
3 394 537 502
3 394 560 519
3 558 574 395
3 397 407 396
3 407 534 396
3 397 545 407
3 398 546 399
3 398 556 546
3 398 570 556
3 546 576 399
3 458 549 400
3 401 573 406
3 554 573 401
3 402 578 566
3 403 540 404
3 403 558 540
3 538 547 404
3 405 533 499
3 406 573 449
3 407 575 534
3 409 541 410
3 439 541 409
3 428 460 410
3 410 525 428
3 410 541 525
3 411 567 522
3 450 473 413
3 414 416 415
3 414 446 416
3 416 417 415
3 417 418 415
3 418 463 415
3 416 479 417
3 446 480 416
3 416 480 479
3 417 419 418
3 417 420 419
3 417 479 420
3 419 432 418
3 432 433 418
3 433 463 418
3 420 421 419
3 421 506 419
3 419 506 432
3 420 422 421
3 420 435 422
3 420 479 435
3 422 423 421
3 423 424 421
3 424 506 421
3 422 509 423
3 435 436 422
3 436 509 422
3 423 482 424
3 423 505 482
3 423 509 505
3 453 461 424
3 424 482 453
3 461 506 424
3 425 427 426
3 428 429 426
3 429 579 426
3 428 525 429
3 525 562 429
3 430 539 431
3 464 539 430
3 432 506 434
3 434 506 461
3 461 514 434
3 434 514 470
3 435 437 436
3 437 503 436
3 503 507 436
3 507 509 436
3 513 541 439
3 440 564 441
3 441 576 440
3 440 576 546
3 443 514 444
3 445 514 443
3 444 453 452
3 444 461 453
3 444 514 461
3 470 514 445
3 448 449 447
3 448 544 449
3 522 567 448
3 448 567 544
3 451 557 516
3 456 517 457
3 517 580 457
3 465 539 464
3 466 467 465
3 467 542 465
3 466 471 468
3 528 542 467
3 472 563 468
3 504 505 469
3 515 530 472
3 475 494 474
3 475 477 476
3 476 494 475
3 475 538 477
3 517 559 478
3 485 493 481
3 481 551 485
3 493 571 481
3 482 505 504
3 487 489 488
3 487 512 489
3 488 543 491
3 489 526 490
3 512 526 489
3 526 537 490
3 492 566 550
3 497 535 496
3 510 520 497
3 520 521 497
3 521 535 497
3 533 550 499
3 500 577 501
3 502 537 526
3 510 572 520
3 56 581 3
3 3 581 61
3 57 581 56
3 58 581 57
3 59 581 58
3 60 581 59
3 61 581 60
4 384 332 478 584
4 205 215 35 588
4 503 591 300 606
4 218 265 248 585
4 332 584 384 627
4 204 358 210 587
4 300 591 605 606
4 265 585 218 612
4 454 586 81 589
4 332 478 584 603
4 298 503 300 606
4 81 586 233 589
4 205 588 419 593
4 290 501 613 623
4 384 584 478 604
4 264 273 586 589
4 300 605 298 606
4 272 586 273 589
4 290 613 584 623
4 513 586 272 589
4 204 28 210 358
4 290 611 501 623
4 427 600 585 618
4 485 585 493 611
4 428 598 586 612
4 332 603 584 627
4 264 272 273 589
4 274 272 513 586
4 584 613 290 627
4 290 584 611 623
4 233 586 409 589
4 522 586 454 589
4 404 591 201 602
4 205 36 213 593
4 210 587 358 602
4 495 493 585 611
4 457 248 265 604
4 460 428 586 612
4 248 585 265 604
4 591 606 503 626
4 280 585 495 598
4 559 517 478 603
4 585 600 280 611
4 290 611 584 627
4 210 208 587 614
4 584 604 384 627
4 377 616 613 617
4 269 586 391 624
4 585 598 236 612
4 613 616 597 617
4 411 586 522 589
4 331 332 597 603
4 280 585 287 600
4 273 272 274 586
4 429 585 579 598
4 480 292 286 607
4 501 611 600 623
4 280 495 585 611
4 279 579 287 585
4 454 80 81 586
4 77 585 604 618
4 377 597 613 616
4 283 596 282 619
4 218 248 78 585
4 81 80 233 586
4 480 590 292 607
4 495 337 493 611
4 590 601 480 606
4 332 597 603 627
4 294 290 613 627
4 218 585 78 612
4 480 601 590 607
4 278 280 495 598
4 283 596 607 617
4 585 612 265 624
4 283 282 607 619
4 264 273 552 586
4 75 603 596 618
4 331 597 332 627
4 283 607 596 619
4 427 585 77 618
4 288 280 600 611
4 264 586 552 589
4 422 215 34 588
4 551 481 485 585
4 279 579 585 598
4 288 600 501 611
4 495 598 585 624
4 27 204 214 587
4 419 593 588 621
4 223 604 584 618
4 287 585 579 600
4 210 201 208 591
4 280 279 287 585
4 34 588 215 626
4 600 604 585 618
4 358 204 357 587
4 513 541 586 589
4 234 249 592 601
4 269 612 586 624
4 493 485 481 585
4 288 280 287 600
4 402 605 602 609
4 205 419 36 593
4 204 28 358 357
4 591 602 302 605
4 292 480 301 590
4 210 587 602 614
4 298 297 296 590
4 409 586 541 589
4 337 485 493 611
4 410 460 428 586
4 525 586 428 598
4 420 419 421 588
4 298 297 590 605
4 301 590 480 606
4 292 295 291 617
4 584 603 223 618
4 279 585 280 598
4 391 586 532 624
4 436 606 588 626
4 210 201 591 602
4 208 204 210 587
4 36 432 213 593
4 298 590 296 606
4 592 601 249 607
4 397 545 592 610
4 249 73 607 619
4 292 590 295 617
4 331 333 332 603
4 567 411 522 589
4 552 586 411 589
4 393 598 495 624
4 567 271 411 589
4 298 605 590 606
4 236 585 426 598
4 590 616 295 617
4 386 595 566 605
4 77 585 248 604
4 517 384 478 604
4 409 233 410 586
4 249 73 592 607
4 234 601 592 610
4 578 302 602 605
4 551 268 585 604
4 495 585 493 624
4 281 283 282 607
4 81 235 454 589
4 310 605 550 616
4 268 265 585 604
4 205 35 36 419
4 27 357 204 587
4 233 247 81 589
4 427 77 237 618
4 274 513 361 586
4 552 411 271 589
4 429 426 579 585
4 454 522 381 586
4 550 605 595 616
4 402 386 566 605
4 78 585 236 612
4 268 457 265 604
4 234 414 249 601
4 280 289 495 611
4 290 288 501 611
4 525 410 428 586
4 397 592 609 610
4 397 407 545 610
4 522 454 235 589
4 503 606 437 626
4 592 607 73 619
4 436 437 606 626
4 551 485 380 611
4 276 274 277 586
4 330 331 332 627
4 607 617 596 619
4 331 603 597 620
4 414 249 601 607
4 426 585 429 598
4 234 249 72 592
4 377 613 438 617
4 380 384 604 627
4 281 607 282 619
4 204 208 207 587
4 596 603 584 618
4 551 380 604 611
4 314 302 591 602
4 588 606 591 626
4 71 234 592 610
4 377 438 616 617
4 387 386 402 609
4 233 409 247 589
4 480 601 479 606
4 75 223 603 618
4 210 358 540 602
4 532 586 598 624
4 75 596 603 619
4 419 588 420 621
4 411 381 522 586
4 274 361 277 586
4 276 586 277 598
4 583 597 616 617
4 294 613 597 627
4 436 503 437 626
4 579 426 368 600
4 72 71 234 592
4 579 585 426 600
4 499 605 310 616
4 590 592 582 595
4 551 268 481 585
4 604 611 380 627
4 459 75 596 618
4 393 278 495 598
4 462 609 592 615
4 361 277 586 598
4 493 585 481 624
4 314 591 404 602
4 499 310 550 616
4 314 578 302 602
4 292 301 296 590
4 224 615 592 619
4 397 609 407 610
4 480 446 601 607
4 288 353 501 600
4 511 80 454 586
4 304 32 305 591
4 270 269 391 624
4 404 210 540 602
4 511 454 381 586
4 428 236 426 598
4 331 333 603 620
4 208 207 587 614
4 590 595 582 605
4 276 273 274 586
4 435 588 436 606
4 75 603 74 619
4 547 201 404 591
4 361 513 541 586
4 462 397 592 609
4 372 370 595 609
4 236 598 428 612
4 391 269 411 586
4 297 499 590 605
4 376 597 328 616
4 595 609 370 615
4 541 409 410 586
4 416 480 446 601
4 301 296 590 606
4 380 332 384 627
4 248 77 78 585
4 330 597 331 627
4 268 481 585 624
4 379 357 27 587
4 396 609 587 610
4 34 422 588 626
4 438 295 616 617
4 212 305 32 591
4 428 426 429 598
4 73 224 592 619
4 268 585 265 624
4 549 615 224 619
4 387 402 602 609
4 393 495 493 624
4 72 249 73 592
4 214 431 27 587
4 415 601 463 621
4 603 615 400 619
4 459 75 518 596
4 233 80 460 586
4 460 586 80 612
4 288 289 280 611
4 36 419 432 593
4 501 600 353 623
4 480 416 479 601
4 532 586 276 598
4 459 596 382 618
4 279 429 579 598
4 211 208 591 614
4 422 420 421 588
4 28 350 540 358
4 463 601 610 621
4 499 590 605 616
4 214 431 587 622
4 582 605 591 606
4 395 602 587 609
4 358 587 395 602
4 269 381 586 612
4 28 540 210 358
4 292 291 286 617
4 361 586 525 598
4 396 587 534 610
4 463 610 593 621
4 492 616 595 620
4 376 616 492 620
4 71 592 545 610
4 211 208 201 591
4 404 30 29 210
4 462 373 609 615
4 426 585 427 600
4 533 376 328 616
4 298 437 503 606
4 80 586 511 612
4 376 597 616 620
4 300 591 302 605
4 269 381 411 586
4 358 357 379 587
4 540 404 29 210
4 435 436 437 606
4 583 592 590 595
4 304 591 503 626
4 203 614 211 626
4 483 376 492 620
4 284 596 283 617
4 418 463 593 621
4 304 300 503 591
4 298 299 297 605
4 549 603 400 619
4 582 591 588 606
4 511 586 381 612
4 31 305 212 591
4 402 578 602 605
4 369 603 333 620
4 410 233 460 586
4 382 618 596 623
4 72 545 71 592
4 369 615 603 620
4 206 214 207 622
4 561 596 284 617
4 371 492 595 620
4 203 215 205 588
4 561 284 285 617
4 462 373 397 609
4 412 589 625 628
4 588 606 435 621
4 270 391 532 624
4 480 286 446 607
4 297 405 295 590
4 37 213 432 593
4 561 613 596 617
4 260 257 259 599
4 290 293 611 627
4 438 295 405 616
4 260 594 257 599
4 236 78 427 585
4 588 593 205 614
4 582 592 590 601
4 420 588 435 621
4 361 562 277 598
4 479 606 601 621
4 427 78 77 585
4 600 611 584 623
4 484 380 485 611
4 582 595 592 609
4 247 81 589 628
4 412 439 589 628
4 247 82 81 628
4 395 358 379 587
4 400 383 369 603
4 31 201 547 591
4 371 483 492 620
4 276 532 273 586
4 400 603 369 615
4 398 594 260 599
4 301 480 479 606
4 332 333 478 603
4 236 427 426 585
4 379 27 431 587
4 257 594 256 599
4 463 601 234 610
4 370 609 373 615
4 204 207 214 587
4 278 279 280 598
4 201 404 30 547
4 368 287 579 600
4 499 297 590 616
4 459 518 382 596
4 398 556 570 594
4 361 525 562 598
4 214 587 207 622
4 458 603 549 619
4 586 612 598 624
4 597 613 584 627
4 513 439 541 589
4 372 373 370 609
4 396 395 587 609
4 404 540 403 602
4 37 593 433 622
4 214 26 431 622
4 282 283 284 596
4 460 236 428 612
4 333 369 383 603
4 583 613 597 617
4 484 380 611 627
4 75 458 74 603
4 295 590 405 616
4 448 625 589 628
4 405 590 297 616
4 202 207 614 622
4 297 299 499 605
4 398 570 260 594
4 300 299 298 605
4 500 290 501 613
4 203 215 588 626
4 264 552 271 589
4 398 260 259 599
4 590 592 583 607
4 556 594 398 599
4 203 588 209 614
4 567 522 448 589
4 479 435 606 621
4 391 411 552 586
4 37 202 213 593
4 290 294 293 627
4 211 614 591 626
4 304 305 303 591
4 212 31 32 305
4 426 427 425 600
4 275 412 589 625
4 573 594 228 599
4 84 594 442 599
4 407 609 396 610
4 549 458 400 603
4 73 549 224 619
4 547 404 314 591
4 463 415 234 601
4 522 235 448 589
4 209 588 205 614
4 254 589 439 628
4 407 396 534 610
4 70 433 463 593
4 303 305 31 591
4 84 228 594 599
4 203 209 211 614
4 418 415 463 621
4 554 573 84 599
4 391 552 532 586
4 235 448 589 628
4 595 582 605 609
4 549 400 615 619
4 70 593 463 610
4 402 566 578 605
4 263 272 264 589
4 207 587 614 622
4 205 209 203 588
4 416 446 414 601
4 329 597 376 620
4 203 588 614 626
4 284 283 285 617
4 500 294 290 613
4 448 449 625 628
4 403 314 404 602
4 446 414 601 607
4 281 282 221 619
4 372 595 386 609
4 330 329 331 597
4 479 420 435 621
4 314 402 578 602
4 582 588 614 621
4 436 588 422 626
4 84 573 228 599
4 495 289 337 611
4 262 264 271 589
4 439 409 541 589
4 532 598 393 624
4 509 422 34 626
4 275 412 439 589
4 37 69 1 622
4 595 615 371 620
4 458 74 603 619
4 296 295 292 590
4 583 615 603 619
4 582 614 593 621
4 297 295 296 590
4 228 84 554 573
4 513 272 275 589
4 273 532 552 586
4 329 328 376 597
4 406 256 594 599
4 582 602 591 605
4 37 433 69 622
4 534 587 575 610
4 283 607 286 617
4 203 34 215 626
4 442 594 556 599
4 582 601 590 606
4 549 400 224 615
4 202 593 37 622
4 588 591 582 614
4 583 595 590 616
4 72 73 224 592
4 593 614 588 621
4 479 601 416 621
4 592 615 583 619
4 532 276 393 598
4 587 609 582 610
4 527 618 382 623
4 396 395 379 587
4 573 406 594 599
4 583 607 592 619
4 397 396 407 609
4 583 617 607 619
4 255 257 256 599
4 596 613 561 623
4 263 589 264 625
4 262 264 589 625
4 205 213 202 593
4 456 604 223 618
4 592 595 583 615
4 263 275 272 589
4 202 614 593 622
4 418 593 419 621
4 201 31 212 591
4 372 370 371 595
4 595 605 590 616
4 602 605 582 609
4 294 377 597 613
4 596 597 583 613
4 583 616 590 617
4 77 248 456 604
4 590 607 583 617
4 69 37 222 433
4 534 587 431 622
4 582 610 593 614
4 583 597 596 603
4 380 384 551 604
4 575 587 534 622
4 532 393 571 624
4 266 265 612 624
4 412 254 439 628
4 37 432 433 593
4 594 625 449 628
4 596 597 584 603
4 593 610 70 622
4 419 418 432 593
4 590 601 592 607
4 372 386 387 609
4 584 597 596 613
4 593 610 587 614
4 224 462 592 615
4 583 596 617 619
4 224 462 397 592
4 206 26 214 622
4 371 615 334 620
4 436 422 509 626
4 561 284 596 623
4 209 205 593 614
4 574 602 395 609
4 544 589 448 625
4 436 435 422 588
4 592 609 595 615
4 587 602 582 609
4 439 513 275 589
4 70 433 593 622
4 582 593 610 621
4 231 84 442 599
4 405 377 438 616
4 575 610 587 622
4 31 547 303 591
4 37 1 69 222
4 558 395 574 602
4 371 595 370 615
4 302 303 314 591
4 287 353 288 600
4 77 604 456 618
4 258 256 257 594
4 582 587 610 614
4 603 615 583 620
4 584 603 597 627
4 458 75 223 603
4 266 612 269 624
4 426 425 368 600
4 247 409 254 589
4 492 550 595 616
4 558 358 395 602
4 1 202 37 622
4 435 420 422 588
4 582 609 592 610
4 412 625 594 628
4 202 209 593 614
4 448 447 449 628
4 269 266 381 612
4 548 382 284 596
4 492 376 550 616
4 499 405 297 616
4 534 396 379 587
4 378 600 527 623
4 252 253 251 599
4 600 618 527 623
4 577 613 501 623
4 590 605 582 606
4 271 544 262 589
4 314 303 547 591
4 401 599 246 608
4 83 594 447 628
4 262 263 264 625
4 592 601 582 610
4 401 251 599 608
4 231 442 556 599
4 209 205 202 593
4 201 30 31 547
4 283 446 286 607
4 567 448 544 589
4 383 400 458 603
4 382 596 548 623
4 407 534 575 610
4 460 80 79 612
4 433 418 463 593
4 442 84 83 594
4 442 83 219 594
4 583 595 616 620
4 275 589 263 625
4 302 300 303 591
4 438 291 295 617
4 548 596 284 623
4 331 597 329 620
4 254 247 589 628
4 457 456 248 604
4 219 594 83 628
4 252 599 251 608
4 235 447 448 628
4 371 370 334 615
4 257 455 258 594
4 27 28 204 357
4 596 618 584 623
4 527 459 382 618
4 463 234 71 610
4 518 282 596 619
4 544 262 589 625
4 304 303 300 591
4 259 257 255 599
4 422 35 34 215
4 588 582 606 621
4 202 207 209 614
4 587 582 602 614
4 439 254 409 589
4 550 566 492 595
4 585 604 600 611
4 544 448 449 625
4 271 567 544 589
4 501 353 390 623
4 228 447 83 594
4 330 329 597 627
4 545 224 397 592
4 458 223 559 603
4 584 611 604 627
4 583 615 595 620
4 299 310 499 605
4 525 428 429 598
4 401 246 251 608
4 357 379 27 431
4 266 267 265 624
4 447 594 449 628
4 596 613 583 617
4 598 612 585 624
4 84 228 83 594
4 518 221 282 619
4 583 616 597 620
4 462 370 373 615
4 406 253 256 599
4 329 376 483 620
4 551 580 268 604
4 266 265 218 612
4 412 594 392 628
4 437 298 296 606
4 527 600 425 618
4 257 260 455 594
4 258 594 455 625
4 534 379 431 587
4 591 602 582 614
4 540 358 558 602
4 258 261 256 594
4 76 456 223 618
4 546 399 576 608
4 294 597 326 627
4 387 602 574 609
4 571 393 493 624
4 416 415 417 621
4 546 599 399 608
4 525 429 562 598
4 372 371 386 595
4 416 601 415 621
4 517 223 456 604
4 267 266 269 624
4 545 72 224 592
4 334 369 333 620
4 551 384 580 604
4 460 79 236 612
4 534 431 220 622
4 326 597 329 627
4 393 276 278 598
4 582 610 601 621
4 455 594 412 625
4 401 554 246 599
4 261 449 594 625
4 249 414 281 607
4 479 416 417 621
4 300 302 299 605
4 249 221 73 619
4 383 478 333 603
4 289 288 290 611
4 600 604 584 611
4 533 377 405 616
4 77 456 76 618
4 330 326 329 627
4 353 600 378 623
4 591 614 588 626
4 546 440 599 608
4 527 382 548 623
4 432 418 433 593
4 212 211 591 626
4 246 599 85 608
4 558 574 387 602
4 570 412 260 594
4 412 455 260 594
4 328 294 377 597
4 253 255 256 599
4 21 20 217 175
4 440 85 599 608
4 326 294 328 597
4 177 15 16 216
4 372 387 574 609
4 252 524 599 608
4 252 255 253 599
4 212 211 201 591
4 261 406 256 594
4 449 447 228 594
4 239 250 581 608
4 442 219 392 594
4 527 378 425 600
4 287 368 353 600
4 207 202 206 622
4 587 610 593 622
4 303 547 31 305
4 294 500 377 613
4 231 546 440 599
4 511 381 266 612
4 601 606 582 621
4 239 581 408 608
4 85 246 554 599
4 243 581 441 608
4 79 78 236 612
4 520 44 43 216
4 458 549 74 619
4 593 614 587 622
4 580 457 268 604
4 484 485 337 611
4 441 581 564 608
4 234 415 414 601
4 573 406 449 594
4 399 599 524 608
4 583 603 596 619
4 301 479 435 606
4 76 223 75 618
4 283 281 446 607
4 261 594 258 625
4 570 392 412 594
4 597 603 583 620
4 252 524 255 599
4 532 571 270 624
4 231 440 85 599
4 492 386 371 595
4 577 561 613 623
4 219 392 594 628
4 330 332 380 627
4 329 326 328 597
4 584 604 600 618
4 566 310 578 605
4 565 86 581 608
4 565 581 250 608
4 417 419 420 621
4 518 282 382 596
4 79 80 511 612
4 556 398 546 599
4 253 401 251 599
4 382 282 284 596
4 561 548 284 623
4 353 378 390 623
4 417 418 419 621
4 390 577 501 623
4 227 50 49 217
4 402 314 403 602
4 285 283 286 617
4 527 425 237 618
4 573 449 228 594
4 71 545 407 610
4 483 371 334 620
4 507 32 304 626
4 573 401 406 599
4 383 559 478 603
4 243 408 581 608
4 581 86 564 608
4 220 431 26 622
4 492 566 386 595
4 438 613 363 617
4 546 576 440 608
4 235 82 447 628
4 261 544 449 625
4 224 400 462 615
4 334 615 369 620
4 208 209 207 614
4 399 398 259 599
4 577 390 561 623
4 446 281 414 607
4 584 613 596 623
4 524 399 259 599
4 261 449 406 594
4 211 209 208 614
4 268 265 267 624
4 392 570 556 594
4 562 429 279 598
4 416 414 415 601
4 293 294 326 627
4 418 417 415 621
4 459 76 75 618
4 575 534 220 622
4 556 546 231 599
4 301 437 296 606
4 479 417 420 621
4 58 239 581 408
4 438 377 500 613
4 406 401 253 599
4 243 581 60 441
4 276 277 278 598
4 392 556 442 594
4 399 546 398 599
4 581 239 57 250
4 34 33 509 626
4 378 527 548 623
4 408 581 59 243
4 412 392 254 628
4 524 259 255 599
4 396 397 373 609
4 86 581 3 565
4 331 334 333 620
4 554 401 573 599
4 483 331 329 620
4 218 78 79 612
4 206 202 1 622
4 289 290 293 611
4 437 301 435 606
4 501 577 500 613
4 564 581 3 86
4 70 610 575 622
4 231 85 84 599
4 368 425 378 600
4 32 507 33 626
4 368 378 353 600
4 554 84 85 599
4 77 76 237 618
4 277 562 279 598
4 363 577 561 613
4 369 334 370 615
4 484 337 293 611
4 484 611 293 627
4 278 277 279 598
4 70 69 433 622
4 509 507 436 626
4 34 203 33 626
4 518 74 221 619
4 275 455 412 625
4 584 618 600 623
4 70 463 71 610
4 383 458 559 603
4 438 500 363 613
4 423 35 34 422
4 565 581 56 250
4 507 304 503 626
4 403 387 402 602
4 399 243 576 608
4 564 61 581 441
4 291 285 286 617
4 29 404 540 360
4 533 550 376 616
4 533 499 550 616
4 212 203 211 626
4 306 507 32 304
4 517 580 384 604
4 299 302 310 605
4 517 456 457 604
4 396 373 395 609
4 558 387 403 602
4 33 507 509 626
4 337 289 293 611
4 433 37 222 432
4 291 438 363 617
4 61 60 581 441
4 267 269 270 624
4 403 540 558 602
4 60 59 581 243
4 574 395 373 609
4 83 447 82 628
4 511 266 218 612
4 291 363 285 617
4 441 576 243 608
4 440 86 85 608
4 507 503 436 626
4 571 493 481 624
4 252 239 408 608
4 581 59 58 408
4 213 36 37 432
4 580 517 457 604
4 399 524 243 608
4 275 263 455 625
4 268 267 481 624
4 578 310 302 605
4 576 441 440 608
4 533 405 499 616
4 57 58 239 581
4 422 423 35 421
4 574 373 372 609
4 581 57 56 250
4 32 33 212 626
4 219 82 247 628
4 86 246 85 608
4 252 251 239 608
4 484 330 380 627
4 251 250 239 608
4 407 575 71 610
4 29 30 404 360
4 390 548 561 623
4 254 219 247 628
4 250 251 246 608
4 575 70 71 610
4 358 28 350 357
4 334 331 483 620
4 250 246 565 608
4 527 237 459 618
4 484 293 326 627
4 581 3 61 564
4 581 56 3 565
4 369 370 462 615
4 430 1 69 622
4 506 36 419 432
4 408 524 252 608
4 243 524 408 608
4 219 254 392 628
4 511 218 79 612
4 219 83 82 628
4 400 369 462 615
4 440 441 564 608
4 378 548 390 623
4 26 27 214 431
4 26 430 220 622
4 237 76 459 618
4 32 33 507 306
4 261 258 262 625
4 74 73 221 619
4 565 246 86 608
4 544 261 262 625
4 440 564 86 608
4 74 549 73 619
4 217 20 49 175
4 363 500 577 613
4 482 505 104 105
4 113 321 327 114
4 16 44 177 216
4 505 88 104 105
4 4 5 62 157
4 113 110 321 114
4 258 263 262 625
4 321 324 327 114
4 505 482 504 105
4 307 139 32 308
4 484 326 330 627
4 319 318 109 317
4 258 455 263 625
4 32 306 307 308
4 520 177 44 216
4 108 109 318 317
4 488 227 489 190
4 107 109 318 108
4 356 468 466 144
4 327 115 364 132
4 144 143 563 146
4 33 203 212 626
4 104 482 453 424
4 33 34 509 505
4 220 430 69 622
4 109 318 319 107
4 324 321 110 114
4 105 469 88 106
4 469 88 504 105
4 125 352 351 124
4 220 69 70 622
4 105 504 469 106
4 424 453 104 98
4 120 342 341 340
4 306 32 139 308
4 342 122 120 341
4 491 193 488 365
4 318 105 107 106
4 494 474 178 475
4 33 34 505 88
4 509 309 33 505
4 335 109 112 168
4 145 466 102 148
4 318 504 105 106
4 520 15 177 216
4 43 15 520 216
4 430 26 220 431
4 220 70 575 622
4 188 183 95 515
4 352 349 351 124
4 14 42 15 90
4 338 323 117 119
4 62 5 4 531
4 515 188 530 245
4 486 111 168 126
4 32 92 139 307
4 115 327 113 132
4 158 4 5 531
4 105 504 318 107
4 131 325 152 452
4 188 472 183 515
4 110 321 319 112
4 338 323 322 117
4 496 338 119 339
4 139 141 106 308
4 49 227 217 175
4 345 344 128 342
4 560 164 89 162
4 127 338 119 496
4 311 92 307 308
4 312 106 141 308
4 120 118 494 340
4 469 106 312 308
4 88 505 504 105
4 323 494 118 340
4 110 319 109 112
4 189 52 232 491
4 325 320 504 105
4 114 152 324 131
4 124 125 352 143
4 189 22 52 491
4 116 111 486 322
4 114 324 327 336
4 325 324 320 152
4 109 512 335 112
4 114 324 336 452
4 217 227 21 175
4 325 324 152 452
4 141 92 311 308
4 270 481 267 624
4 105 325 320 152
4 338 323 119 339
4 424 36 35 506
4 322 111 486 117
4 498 123 134 351
4 97 28 27 348
4 5 6 63 95
4 424 35 423 421
4 467 145 129 144
4 127 119 338 163
4 142 325 152 131
4 423 34 509 422
4 68 470 222 191
4 496 119 127 339
4 512 197 112 170
4 181 510 520 161
4 475 178 494 137
4 34 509 505 423
4 354 160 127 161
4 344 343 349 124
4 62 4 2 569
4 168 502 486 126
4 131 152 324 452
4 424 35 36 98
4 131 142 325 452
4 366 364 133 374
4 504 318 469 106
4 536 508 388 198
4 32 306 304 305
4 348 27 359 357
4 315 116 486 322
4 336 327 115 364
4 165 99 537 166
4 121 341 498 354
4 270 571 481 624
4 506 461 36 434
4 62 2 4 568
4 319 320 321 110
4 120 494 137 340
4 108 141 315 312
4 306 139 309 308
4 227 21 50 217
4 351 349 343 124
4 6 5 63 96
4 421 424 35 506
4 222 1 68 191
4 413 229 94 443
4 33 32 139 306
4 102 465 464 225
4 340 341 120 339
4 357 27 359 431
4 111 315 486 317
4 336 367 131 452
4 340 120 323 339
4 343 344 128 124
4 348 28 27 357
4 87 29 347 477
4 123 160 121 498
4 505 309 33 88
4 106 318 469 312
4 12 40 13 100
4 116 111 322 117
4 189 91 22 491
4 321 320 324 110
4 364 327 132 365
4 453 142 104 98
4 342 343 122 341
4 139 92 141 308
4 27 359 97 348
4 469 309 139 308
4 486 335 111 317
4 315 116 111 486
4 88 505 469 504
4 103 445 67 470
4 121 122 123 341
4 131 130 367 336
4 150 178 474 475
4 10 67 68 470
4 320 319 318 107
4 321 512 319 112
4 496 127 162 161
4 139 309 33 306
4 7 65 64 238
4 121 341 354 339
4 469 309 505 88
4 122 344 343 342
4 162 226 535 176
4 91 51 22 491
4 316 311 116 178
4 115 336 364 366
4 341 343 123 498
4 13 41 14 172
4 185 342 340 476
4 109 335 319 317
4 125 355 352 136
4 502 486 335 168
4 469 309 88 139
4 123 134 351 125
4 130 367 336 366
4 498 160 121 354
4 68 69 1 222
4 434 36 506 432
4 344 122 128 342
4 37 36 434 432
4 505 104 423 482
4 504 320 318 107
4 349 344 128 129
4 94 229 153 443
4 18 47 19 166
4 482 325 504 105
4 489 512 197 526
4 109 335 512 319
4 461 453 424 98
4 134 385 498 351
4 148 66 8 471
4 341 121 120 339
4 63 6 96 242
4 188 530 472 515
4 120 323 118 340
4 111 335 109 317
4 126 486 111 117
4 143 563 356 144
4 466 465 145 102
4 49 20 555 175
4 466 102 148 225
4 0 2 4 569
4 563 468 144 146
4 106 469 139 308
4 98 36 424 506
4 343 123 122 341
4 367 444 131 452
4 461 444 140 514
4 104 423 482 424
4 29 28 347 350
4 96 531 242 451
4 188 529 245 157
4 238 93 65 471
4 119 323 120 339
4 94 138 413 443
4 338 127 163 496
4 183 530 472 188
4 141 116 311 178
4 122 120 185 342
4 352 351 355 125
4 336 131 114 452
4 176 535 162 161
4 413 151 473 450
4 324 114 131 452
4 327 487 321 113
4 114 327 113 115
4 4 2 0 568
4 98 424 461 506
4 530 362 508 147
4 498 385 134 510
4 497 520 510 161
4 116 316 178 118
4 134 160 498 510
4 443 186 444 514
4 154 128 346 173
4 245 62 5 157
4 22 51 52 491
4 311 307 92 474
4 307 32 31 305
4 112 512 335 168
4 6 63 64 242
4 121 120 122 341
4 174 7 64 238
4 8 9 66 148
4 520 177 181 161
4 54 24 53 516
4 467 129 356 144
4 110 109 319 107
4 88 34 505 104
4 507 33 309 306
4 434 222 37 432
4 137 118 494 120
4 104 34 505 423
4 119 117 338 163
4 91 543 51 491
4 107 105 320 152
4 474 307 92 313
4 104 482 142 453
4 475 150 178 137
4 312 108 318 317
4 112 110 321 113
4 141 311 315 312
4 90 42 15 230
4 139 88 469 106
4 315 111 108 317
4 93 466 144 148
4 111 109 335 168
4 487 170 113 132
4 6 7 64 174
4 343 128 122 124
4 355 385 134 125
4 509 33 309 507
4 350 347 29 360
4 312 141 311 308
4 510 160 498 354
4 315 108 312 317
4 124 349 128 129
4 352 349 124 143
4 497 521 177 161
4 35 34 104 423
4 360 347 29 477
4 242 187 96 451
4 142 482 325 453
4 535 176 521 161
4 138 94 153 443
4 355 351 385 125
4 130 131 114 336
4 65 7 93 238
4 63 5 95 245
4 498 343 123 351
4 97 359 155 200
4 55 25 54 244
4 172 536 388 198
4 307 306 32 305
4 450 366 133 374
4 66 229 445 153
4 26 430 539 431
4 125 351 123 124
4 322 486 375 117
4 227 489 167 490
4 486 111 335 168
4 135 355 134 125
4 132 170 193 365
4 452 142 325 453
4 305 31 307 313
4 344 128 122 343
4 351 134 385 125
4 112 321 487 113
4 502 126 394 375
4 118 117 323 119
4 319 320 110 107
4 140 156 461 514
4 226 535 560 162
4 87 538 30 477
4 126 502 486 375
4 21 543 91 175
4 569 4 0 194
4 476 475 199 477
4 349 128 344 124
4 466 465 102 225
4 163 389 338 496
4 341 123 121 498
4 486 126 375 117
4 163 127 162 496
4 197 512 489 170
4 443 445 186 514
4 64 65 7 473
4 134 160 123 498
4 470 103 445 514
4 121 127 119 339
4 375 338 322 117
4 37 1 222 191
4 92 32 31 307
4 423 104 35 424
4 553 90 14 172
4 336 115 130 366
4 346 149 154 173
4 115 114 327 336
4 354 496 127 339
4 12 39 40 240
4 18 47 166 519
4 151 182 187 450
4 92 139 307 308
4 143 125 352 136
4 315 311 116 316
4 563 468 356 144
4 62 63 5 531
4 355 388 508 135
4 315 116 141 108
4 182 151 413 450
4 487 489 512 170
4 44 16 177 521
4 568 0 4 195
4 150 474 92 313
4 176 45 226 521
4 9 66 67 445
4 40 240 536 100
4 321 487 512 112
4 141 108 106 312
4 179 54 25 244
4 175 167 227 190
4 461 36 98 506
4 135 388 508 198
4 108 111 109 317
4 394 166 241 519
4 112 487 512 170
4 152 324 110 114
4 125 135 355 136
4 323 494 316 118
4 452 444 140 453
4 320 504 105 107
4 148 93 466 471
4 177 520 497 161
4 362 530 472 183
4 343 122 123 124
4 146 174 472 238
4 144 468 466 93
4 96 5 63 531
4 497 535 521 161
4 340 137 185 476
4 88 309 33 139
4 89 166 164 560
4 452 140 142 453
4 65 8 66 471
4 113 327 487 365
4 360 30 538 477
4 569 0 55 194
4 158 244 531 451
4 543 227 488 190
4 142 131 140 452
4 222 37 470 434
4 28 29 347 149
4 343 123 351 124
4 523 171 491 365
4 43 15 42 230
4 146 93 174 238
4 512 197 526 335
4 5 63 62 245
4 38 0 568 195
4 316 322 323 118
4 121 119 120 339
4 512 197 335 168
4 121 160 127 354
4 491 171 193 365
4 529 530 188 245
4 186 156 140 514
4 521 177 520 497
4 28 347 350 348
4 140 444 461 453
4 241 19 47 166
4 345 128 154 342
4 543 21 227 175
4 508 536 240 100
4 167 489 227 190
4 127 121 354 339
4 245 5 95 157
4 132 113 487 365
4 490 167 99 165
4 65 66 8 229
4 44 177 520 521
4 64 174 238 515
4 199 345 476 477
4 16 45 176 521
4 497 496 162 161
4 568 4 62 157
4 120 185 342 340
4 67 10 103 470
4 451 242 187 450
4 232 523 171 491
4 318 107 108 106
4 115 133 130 366
4 29 347 149 87
4 340 494 137 476
4 114 115 130 336
4 95 6 63 515
4 174 64 6 515
4 93 7 174 238
4 467 356 466 144
4 197 526 335 168
4 362 352 355 136
4 24 54 25 179
4 117 126 375 163
4 320 110 107 152
4 45 16 44 521
4 182 367 366 413
4 482 325 105 142
4 434 461 156 514
4 99 537 490 165
4 96 187 242 151
4 66 148 225 471
4 92 31 150 313
4 17 45 46 226
4 474 311 316 178
4 110 320 324 152
4 90 15 177 230
4 162 389 163 496
4 474 316 494 178
4 555 227 49 175
4 461 156 36 434
4 424 104 35 98
4 90 14 42 553
4 2 0 55 569
4 474 150 475 313
4 64 242 473 151
4 21 51 22 91
4 322 315 116 316
4 512 109 319 112
4 90 230 388 553
4 539 27 26 431
4 93 468 466 471
4 563 143 136 146
4 170 112 487 113
4 128 185 154 342
4 45 17 16 176
4 153 229 445 443
4 53 24 23 101
4 242 64 6 151
4 172 553 90 184
4 375 389 338 163
4 178 316 494 118
4 26 27 539 155
4 89 226 162 176
4 494 475 137 476
4 553 14 41 172
4 23 52 53 232
4 38 0 2 568
4 87 475 538 477
4 227 555 490 175
4 177 16 176 521
4 156 140 461 98
4 11 39 12 180
4 529 188 180 157
4 64 63 6 515
4 359 97 542 200
4 132 523 364 365
4 516 159 196 557
4 510 572 181 520
4 528 128 344 129
4 470 68 10 191
4 111 116 315 108
4 344 349 528 129
4 95 188 515 245
4 172 13 536 100
4 496 162 535 497
4 11 38 39 529
4 348 97 149 346
4 187 451 450 374
4 158 159 179 244
4 148 9 66 225
4 50 21 227 543
4 490 167 227 175
4 185 120 137 340
4 348 149 347 346
4 40 12 240 100
4 25 55 0 194
4 105 104 482 142
4 8 93 148 471
4 129 124 349 143
4 177 181 90 230
4 327 113 132 365
4 0 38 11 195
4 6 95 174 515
4 244 158 159 451
4 87 199 475 477
4 488 543 193 491
4 176 177 521 161
4 51 21 543 91
4 183 563 136 146
4 523 364 169 132
4 413 138 367 443
4 375 338 117 163
4 65 7 8 93
4 115 169 364 132
4 488 489 487 170
4 8 65 93 471
4 193 543 91 491
4 346 528 542 173
4 530 362 147 183
4 184 385 134 135
4 128 344 346 173
4 323 322 117 118
4 516 451 159 557
4 47 241 166 519
4 131 138 444 367
4 191 470 37 434
4 434 156 470 514
4 6 96 242 151
4 68 1 430 192
4 137 475 150 199
4 63 96 531 242
4 170 488 193 365
4 96 158 5 531
4 242 473 151 450
4 176 226 535 521
4 519 394 166 560
4 461 36 156 98
4 536 13 40 100
4 526 167 489 490
4 180 11 39 529
4 232 101 23 189
4 89 519 166 560
4 138 444 367 443
4 240 147 100 180
4 187 159 96 451
4 366 133 182 450
4 346 97 149 173
4 7 64 473 151
4 560 89 226 162
4 487 488 170 365
4 364 133 115 366
4 37 36 156 434
4 359 155 27 97
4 169 364 523 374
4 540 350 29 360
4 133 187 182 450
4 230 90 42 553
4 179 159 196 516
4 106 108 318 312
4 65 473 229 94
4 101 53 24 516
4 103 470 156 514
4 147 362 135 136
4 138 182 94 413
4 47 18 46 519
4 132 487 170 365
4 538 150 475 87
4 244 179 54 516
4 413 366 182 450
4 132 193 171 365
4 494 178 118 137
4 155 539 464 465
4 349 352 356 143
4 141 311 92 178
4 146 472 468 238
4 444 186 140 514
4 116 311 315 141
4 225 148 466 471
4 53 101 232 516
4 305 547 31 313
4 101 232 171 189
4 474 92 311 178
4 316 116 322 118
4 17 45 226 176
4 166 241 537 394
4 150 31 30 313
4 91 543 193 488
4 117 322 116 118
4 147 508 240 100
4 120 118 323 119
4 453 140 142 98
4 508 240 530 147
4 181 160 134 510
4 470 10 103 191
4 192 26 430 539
4 103 470 191 156
4 445 67 9 103
4 230 15 177 520
4 466 145 467 144
4 64 7 6 151
4 40 41 13 536
4 95 183 174 515
4 196 101 179 516
4 31 92 307 313
4 144 468 93 146
4 169 133 364 374
4 199 475 150 87
4 451 179 244 516
4 536 388 553 172
4 97 348 542 346
4 151 187 242 450
4 359 27 539 431
4 199 137 475 476
4 126 164 375 163
4 178 474 92 150
4 355 134 385 135
4 126 165 502 394
4 222 470 37 191
4 43 15 230 520
4 394 164 166 560
4 197 512 112 168
4 101 23 53 232
4 68 1 69 430
4 553 388 90 184
4 388 385 184 135
4 535 389 162 496
4 149 347 28 348
4 385 388 355 135
4 68 67 10 464
4 464 192 539 155
4 145 465 155 102
4 133 187 450 374
4 430 1 26 192
4 97 149 28 348
4 238 174 472 515
4 367 130 182 366
4 159 451 374 557
4 453 461 140 98
4 519 166 18 89
4 374 196 159 557
4 63 95 515 245
4 230 572 90 388
4 48 19 47 241
4 348 350 28 357
4 135 184 388 198
4 465 464 155 102
4 179 25 194 244
4 356 129 143 144
4 464 192 155 102
4 159 169 196 374
4 99 241 537 166
4 95 188 245 157
4 166 537 165 394
4 555 490 175 99
4 152 105 325 142
4 169 159 187 374
4 1 10 68 191
4 68 10 1 192
4 230 177 181 520
4 470 191 156 434
4 164 394 375 389
4 135 362 355 136
4 67 10 9 103
4 9 10 67 102
4 23 52 232 189
4 162 389 164 163
4 122 185 128 342
4 134 181 572 184
4 389 375 164 163
4 468 93 146 238
4 89 17 46 226
4 17 46 18 89
4 183 472 563 146
4 563 356 352 143
4 132 171 523 365
4 157 568 4 195
4 30 150 538 87
4 126 164 394 375
4 355 508 362 135
4 138 131 130 367
4 572 181 90 184
4 229 66 8 153
4 430 464 68 192
4 49 20 48 555
4 156 186 103 514
4 473 65 7 94
4 194 569 4 158
4 145 129 173 467
4 136 472 563 183
4 510 181 160 161
4 472 468 563 146
4 9 66 445 153
4 359 97 348 542
4 226 89 17 176
4 356 528 129 467
4 444 140 131 452
4 21 50 51 543
4 131 138 140 444
4 94 473 229 413
4 472 183 174 146
4 404 30 538 360
4 241 555 48 99
4 41 13 536 172
4 489 167 197 170
4 159 179 244 451
4 25 55 194 244
4 189 193 91 491
4 189 232 171 491
4 388 572 90 184
4 62 245 568 157
4 20 555 175 99
4 129 349 356 143
4 174 183 472 515
4 135 508 362 147
4 19 241 99 166
4 180 530 147 188
4 464 67 10 102
4 46 519 89 226
4 466 145 144 148
4 156 191 37 434
4 497 162 535 161
4 165 126 164 394
4 173 528 542 467
4 115 169 133 364
4 502 335 526 168
4 230 181 572 520
4 190 488 193 170
4 67 66 9 225
4 538 150 30 313
4 180 39 240 529
4 159 179 451 516
4 24 54 179 516
4 238 468 93 471
4 143 352 563 136
4 41 42 14 553
4 539 192 26 155
4 241 537 490 99
4 346 344 528 173
4 167 489 190 170
4 55 569 194 244
4 502 168 165 126
4 188 180 530 529
4 528 349 356 129
4 175 490 167 99
4 192 430 464 539
4 200 173 542 467
4 103 186 445 514
4 542 465 200 467
4 147 240 530 180
4 572 181 134 510
4 529 180 11 195
4 389 560 535 162
4 184 172 388 198
4 529 11 38 195
4 240 12 39 180
4 444 138 186 443
4 194 158 179 244
4 136 147 362 183
4 490 526 167 165
4 200 465 155 145
4 385 572 134 510
4 568 529 38 195
4 100 147 508 198
4 48 19 241 99
4 404 538 30 547
4 147 530 183 188
4 560 389 164 162
4 229 8 65 94
4 529 568 157 195
4 197 167 489 526
4 182 138 367 413
4 27 539 155 359
4 12 240 100 180
4 526 197 167 165
4 103 9 445 153
4 445 186 153 443
4 52 23 22 189
4 10 68 464 192
4 538 475 150 313
4 171 523 169 132
4 489 488 190 170
4 344 128 528 173
4 388 553 172 184
4 241 490 555 99
4 164 166 165 394
4 171 523 232 557
4 138 153 186 443
4 148 102 9 225
4 465 466 145 467
4 539 155 359 465
4 133 169 187 374
4 362 472 563 136
4 526 490 537 165
4 137 199 185 476
4 528 173 129 467
4 553 41 536 172
4 542 97 346 173
4 362 472 136 183
4 232 196 101 171
4 7 473 94 151
4 130 133 182 366
4 102 464 67 225
4 537 502 165 394
4 451 187 159 374
4 182 138 130 367
4 519 18 46 89
4 145 173 200 467
4 147 135 508 198
4 508 536 100 198
4 100 536 172 198
4 192 464 10 102
4 232 196 171 557
4 140 138 186 444
4 173 128 528 129
4 8 7 65 94
4 199 154 345 477
4 385 134 572 184
4 102 67 9 225
4 157 180 529 195
4 352 362 563 136
4 488 91 543 190
4 171 196 523 557
4 101 24 179 516
4 66 9 8 153
4 180 240 530 529
4 164 394 389 560
4 197 526 168 165
4 196 101 516 557
4 154 199 87 477
4 569 158 244 531
4 158 194 569 244
4 568 245 529 157
4 153 8 229 94
4 374 523 169 557
4 189 171 193 491
4 516 101 232 557
4 154 185 199 476
4 572 90 181 230
4 502 526 537 165
4 193 91 488 190
4 445 186 103 153
4 345 154 199 476
4 168 526 502 165
4 145 200 465 467
4 560 89 519 226
4 173 542 97 200
4 388 385 572 184
4 374 169 196 557
4 523 196 169 557
4 101 196 232 557
4 169 196 523 171
4 588 35 422 215
4 588 422 35 421
4 603 517 223 559
4 605 386 609 402
4 605 609 386 595
4 604 223 603 517
4 603 223 604 584
4 603 478 604 517
4 604 478 603 584
4 614 210 591 602
4 614 591 210 208
4 419 35 588 205
4 419 588 35 421
4 607 292 617 590
4 607 617 292 286
4 618 427 425 237
4 618 425 427 600
4 404 210 201 30
4 404 201 210 602
4 605 550 566 310
4 605 566 550 595
4 611 551 585 604
4 611 585 551 485
4 328 616 377 533
4 377 616 328 597
4 419 35 506 421
4 419 506 35 36
4 619 75 518 74
4 619 518 75 596
4 28 29 540 350
4 28 540 29 210
4 591 32 626 304
4 591 626 32 212
4 628 81 235 82
4 628 235 81 589
4 619 281 249 221
4 619 249 281 607
4 525 541 586 361
4 525 586 541 410
4 617 561 363 285
4 617 363 561 613
4 1 26 622 430
4 1 622 26 206
4 531 4 569 158
4 531 569 4 62
4 128 345 346 344
4 346 345 128 154
4 496 161 354 127
4 354 161 496 497
4 30 313 547 538
4 547 313 30 31
4 451 158 96 531
4 451 96 158 159
4 161 354 510 497
4 161 510 354 160
4 200 359 465 542
4 200 465 359 155
4 413 151 94 473
4 413 94 151 182
4 477 29 30 87
4 477 30 29 360
4 477 154 347 87
4 477 347 154 345
4 149 347 154 87
4 154 342 476 345
4 476 342 154 185
4 48 99 20 19
4 20 99 48 555
4 543 175 190 91
4 190 175 543 227
4 347 154 346 149
4 347 346 154 345

CELL_TYPES 3162
1
1
1
1
3
3
3
3
3
3
3
3
3
3
3
3
3
3
3
3
3
3
3
3
3
3
3
3
3
3
3
3
3
3
3
3
3
3
3
3
3
3
3
3
3
3
3
3
3
3
3
3
3
3
3
3
3
3
3
3
3
3
3
3
3
3
3
3
3
3
3
3
3
3
3
3
3
3
3
3
3
3
3
3
3
3
3
3
3
3
3
3
3
5
5
5
5
5
5
5
5
5
5
5
5
5
5
5
5
5
5
5
5
5
5
5
5
5
5
5
5
5
5
5
5
5
5
5
5
5
5
5
5
5
5
5
5
5
5
5
5
5
5
5
5
5
5
5
5
5
5
5
5
5
5
5
5
5
5
5
5
5
5
5
5
5
5
5
5
5
5
5
5
5
5
5
5
5
5
5
5
5
5
5
5
5
5
5
5
5
5
5
5
5
5
5
5
5
5
5
5
5
5
5
5
5
5
5
5
5
5
5
5
5
5
5
5
5
5
5
5
5
5
5
5
5
5
5
5
5
5
5
5
5
5
5
5
5
5
5
5
5
5
5
5
5
5
5
5
5
5
5
5
5
5
5
5
5
5
5
5
5
5
5
5
5
5
5
5
5
5
5
5
5
5
5
5
5
5
5
5
5
5
5
5
5
5
5
5
5
5
5
5
5
5
5
5
5
5
5
5
5
5
5
5
5
5
5
5
5
5
5
5
5
5
5
5
5
5
5
5
5
5
5
5
5
5
5
5
5
5
5
5
5
5
5
5
5
5
5
5
5
5
5
5
5
5
5
5
5
5
5
5
5
5
5
5
5
5
5
5
5
5
5
5
5
5
5
5
5
5
5
5
5
5
5
5
5
5
5
5
5
5
5
5
5
5
5
5
5
5
5
5
5
5
5
5
5
5
5
5
5
5
5
5
5
5
5
5
5
5
5
5
5
5
5
5
5
5
5
5
5
5
5
5
5
5
5
5
5
5
5
5
5
5
5
5
5
5
5
5
5
5
5
5
5
5
5
5
5
5
5
5
5
5
5
5
5
5
5
5
5
5
5
5
5
5
5
5
5
5
5
5
5
5
5
5
5
5
5
5
5
5
5
5
5
5
5
5
5
5
5
5
5
5
5
5
5
5
5
5
5
5
5
5
5
5
5
5
5
5
5
5
5
5
5
5
5
5
5
5
5
5
5
5
5
5
5
5
5
5
5
5
5
5
5
5
5
5
5
5
5
5
5
5
5
5
5
5
5
5
5
5
5
5
5
5
5
5
5
5
5
5
5
5
5
5
5
5
5
5
5
5
5
5
5
5
5
5
5
5
5
5
5
5
5
5
5
5
5
5
5
5
5
5
5
5
5
5
5
5
5
5
5
5
5
5
5
5
5
5
5
5
5
5
5
5
5
5
5
5
5
5
5
5
5
5
5
5
5
5
5
5
5
5
5
5
5
5
5
5
5
5
5
5
5
5
5
5
5
5
5
5
5
5
5
5
5
5
5
5
5
5
5
5
5
5
5
5
5
5
5
5
5
5
5
5
5
5
5
5
5
5
5
5
5
5
5
5
5
5
5
5
5
5
5
5
5
5
5
5
5
5
5
5
5
5
5
5
5
5
5
5
5
5
5
5
5
5
5
5
5
5
5
5
5
5
5
5
5
5
5
5
5
5
5
5
5
5
5
5
5
5
5
5
5
5
5
5
5
5
5
5
5
5
5
5
5
5
5
5
5
5
5
5
5
5
5
5
5
5
5
5
5
5
5
5
5
5
5
5
5
5
5
5
5
5
5
5
5
5
5
5
5
5
5
5
5
5
5
5
5
5
5
5
5
5
5
5
5
5
5
5
5
5
5
5
5
5
5
5
5
5
5
5
5
5
5
5
5
5
5
5
5
5
5
5
5
5
5
5
5
5
5
5
5
5
5
5
5
5
5
5
5
5
5
5
5
5
5
5
5
5
5
5
5
5
5
5
5
5
5
5
5
5
5
5
5
5
5
5
5
5
5
5
5
5
5
5
5
5
5
5
5
5
5
5
5
5
5
5
5
5
5
5
5
5
5
5
5
5
5
5
5
5
5
5
5
5
5
5
5
5
5
5
5
5
5
5
5
5
5
5
5
5
5
5
5
5
5
5
5
5
5
5
5
5
5
5
5
5
5
5
5
5
5
5
5
5
5
5
5
5
5
5
5
5
5
5
5
5
5
5
5
5
5
5
5
5
5
5
5
5
5
5
5
5
5
5
5
5
5
5
5
5
5
5
5
5
5
5
5
5
5
5
5
5
5
5
5
5
5
5
5
5
5
5
5
5
5
5
5
5
5
5
5
5
5
5
5
5
5
5
5
5
5
5
5
5
5
5
5
5
5
5
5
5
5
5
5
5
5
5
5
5
5
5
5
5
5
5
5
5
5
5
5
5
5
5
5
5
5
5
5
5
5
5
5
5
5
5
5
5
5
5
5
5
5
5
5
5
5
5
5
5
5
5
5
5
5
5
5
5
5
5
5
5
5
5
5
5
5
5
5
5
5
5
5
5
5
5
5
5
5
5
5
5
5
5
5
5
5
5
5
5
5
5
5
5
5
5
5
5
5
5
5
5
5
5
5
5
5
5
5
5
5
5
5
5
5
5
5
5
5
5
5
5
5
5
5
5
5
5
5
5
5
5
5
5
5
5
5
5
5
5
5
5
5
5
5
5
5
5
5
5
5
5
5
5
5
5
5
5
5
5
5
5
5
5
5
5
5
5
5
5
5
5
5
5
5
5
5
5
5
5
5
5
5
5
5
5
5
5
5
5
5
5
5
5
5
5
5
5
5
5
5
5
5
5
5
5
5
5
10
10
10
10
10
10
10
10
10
10
10
10
10
10
10
10
10
10
10
10
10
10
10
10
10
10
10
10
10
10
10
10
10
10
10
10
10
10
10
10
10
10
10
10
10
10
10
10
10
10
10
10
10
10
10
10
10
10
10
10
10
10
10
10
10
10
10
10
10
10
10
10
10
10
10
10
10
10
10
10
10
10
10
10
10
10
10
10
10
10
10
10
10
10
10
10
10
10
10
10
10
10
10
10
10
10
10
10
10
10
10
10
10
10
10
10
10
10
10
10
10
10
10
10
10
10
10
10
10
10
10
10
10
10
10
10
10
10
10
10
10
10
10
10
10
10
10
10
10
10
10
10
10
10
10
10
10
10
10
10
10
10
10
10
10
10
10
10
10
10
10
10
10
10
10
10
10
10
10
10
10
10
10
10
10
10
10
10
10
10
10
10
10
10
10
10
10
10
10
10
10
10
10
10
10
10
10
10
10
10
10
10
10
10
10
10
10
10
10
10
10
10
10
10
10
10
10
10
10
10
10
10
10
10
10
10
10
10
10
10
10
10
10
10
10
10
10
10
10
10
10
10
10
10
10
10
10
10
10
10
10
10
10
10
10
10
10
10
10
10
10
10
10
10
10
10
10
10
10
10
10
10
10
10
10
10
10
10
10
10
10
10
10
10
10
10
10
10
10
10
10
10
10
10
10
10
10
10
10
10
10
10
10
10
10
10
10
10
10
10
10
10
10
10
10
10
10
10
10
10
10
10
10
10
10
10
10
10
10
10
10
10
10
10
10
10
10
10
10
10
10
10
10
10
10
10
10
10
10
10
10
10
10
10
10
10
10
10
10
10
10
10
10
10
10
10
10
10
10
10
10
10
10
10
10
10
10
10
10
10
10
10
10
10
10
10
10
10
10
10
10
10
10
10
10
10
10
10
10
10
10
10
10
10
10
10
10
10
10
10
10
10
10
10
10
10
10
10
10
10
10
10
10
10
10
10
10
10
10
10
10
10
10
10
10
10
10
10
10
10
10
10
10
10
10
10
10
10
10
10
10
10
10
10
10
10
10
10
10
10
10
10
10
10
10
10
10
10
10
10
10
10
10
10
10
10
10
10
10
10
10
10
10
10
10
10
10
10
10
10
10
10
10
10
10
10
10
10
10
10
10
10
10
10
10
10
10
10
10
10
10
10
10
10
10
10
10
10
10
10
10
10
10
10
10
10
10
10
10
10
10
10
10
10
10
10
10
10
10
10
10
10
10
10
10
10
10
10
10
10
10
10
10
10
10
10
10
10
10
10
10
10
10
10
10
10
10
10
10
10
10
10
10
10
10
10
10
10
10
10
10
10
10
10
10
10
10
10
10
10
10
10
10
10
10
10
10
10
10
10
10
10
10
10
10
10
10
10
10
10
10
10
10
10
10
10
10
10
10
10
10
10
10
10
10
10
10
10
10
10
10
10
10
10
10
10
10
10
10
10
10
10
10
10
10
10
10
10
10
10
10
10
10
10
10
10
10
10
10
10
10
10
10
10
10
10
10
10
10
10
10
10
10
10
10
10
10
10
10
10
10
10
10
10
10
10
10
10
10
10
10
10
10
10
10
10
10
10
10
10
10
10
10
10
10
10
10
10
10
10
10
10
10
10
10
10
10
10
10
10
10
10
10
10
10
10
10
10
10
10
10
10
10
10
10
10
10
10
10
10
10
10
10
10
10
10
10
10
10
10
10
10
10
10
10
10
10
10
10
10
10
10
10
10
10
10
10
10
10
10
10
10
10
10
10
10
10
10
10
10
10
10
10
10
10
10
10
10
10
10
10
10
10
10
10
10
10
10
10
10
10
10
10
10
10
10
10
10
10
10
10
10
10
10
10
10
10
10
10
10
10
10
10
10
10
10
10
10
10
10
10
10
10
10
10
10
10
10
10
10
10
10
10
10
10
10
10
10
10
10
10
10
10
10
10
10
10
10
10
10
10
10
10
10
10
10
10
10
10
10
10
10
10
10
10
10
10
10
10
10
10
10
10
10
10
10
10
10
10
10
10
10
10
10
10
10
10
10
10
10
10
10
10
10
10
10
10
10
10
10
10
10
10
10
10
10
10
10
10
10
10
10
10
10
10
10
10
10
10
10
10
10
10
10
10
10
10
10
10
10
10
10
10
10
10
10
10
10
10
10
10
10
10
10
10
10
10
10
10
10
10
10
10
10
10
10
10
10
10
10
10
10
10
10
10
10
10
10
10
10
10
10
10
10
10
10
10
10
10
10
10
10
10
10
10
10
10
10
10
10
10
10
10
10
10
10
10
10
10
10
10
10
10
10
10
10
10
10
10
10
10
10
10
10
10
10
10
10
10
10
10
10
10
10
10
10
10
10
10
10
10
10
10
10
10
10
10
10
10
10
10
10
10
10
10
10
10
10
10
10
10
10
10
10
10
10
10
10
10
10
10
10
10
10
10
10
10
10
10
10
10
10
10
10
10
10
10
10
10
10
10
10
10
10
10
10
10
10
10
10
10
10
10
10
10
10
10
10
10
10
10
10
10
10
10
10
10
10
10
10
10
10
10
10
10
10
10
10
10
10
10
10
10
10
10
10
10
10
10
10
10
10
10
10
10
10
10
10
10
10
10
10
10
10
10
10
10
10
10
10
10
10
10
10
10
10
10
10
10
10
10
10
10
10
10
10
10
10
10
10
10
10
10
10
10
10
10
10
10
10
10
10
10
10
10
10
10
10
10
10
10
10
10
10
10
10
10
10
10
10
10
10
10
10
10
10
10
10
10
10
10
10
10
10
10
10
10
10
10
10
10
10
10
10
10
10
10
10
10
10
10
10
10
10
10
10
10
10
10
10
10
10
10
10
10
10
10
10
10
10
10
10
10
10
10
10
10
10
10
10
10
10
10
10
10
10
10
10
10
10
10
10
10
10
10
10
10
10
10
10
10
10
10
10
10
10
10
10
10
10
10
10
10
10
10
10
10
10
10
10
10
10
10
10
10
10
10
10
10
10
10
10
10
10
10
10
10
10
10
10
10
10
10
10
10
10
10
10
10
10
10
10
10
10
10
10
10
10
10
10
10
10
10
10
10
10
10
10
10
10
10
10
10
10
10
10
10
10
10
10
10
10
10
10
10
10
10
10
10
10
10
10
10
10
10
10
10
10
10
10
10
10
10
10
10
10
10
10
10
10
10
10
10
10
10
10
10
10
10
10
10
10
10
10
10
10
10
10
10
10
10
10
10
10
10
10
10
10
10
10
10
10
10
10
10
10
10
10
10
10
10
10
10
10
10
10
10
10
10
10
10
10
10
10
10
10
10
10
10
10
10
10
10
10
10
10
10
10
10
10
10
10
10
10
10
10
10
10
10
10
10
10
10
10
10
10
10
10
10
10
10
10
10
10
10
10
10
10
10
10
10
10
10
10
10
10
10
10
10
10
10
10
10
10
10
10
10
10
10
10
10
10
10
10
10
10
10
10
10
10
10
10
10
10
10
10
10
10
10
10
10
10
10
10
10
10
10
10
10
10
10
10
10
10
10
10
10
10
10
10
10
10
10
10
10
10
10
10
10
10
10
10
10
10
10
10
10
10
10
10
10
10
10
10
10
10
10
10
10
10
10
10
10
10
10
10
10
10
10
10
10
10
10
10
10
10
10
10
10
10
10
10
10
10
10
10
10
10
10
10
10
10
10
10
10
10
10
10
10
10
10
10
10
10
10
10
10
10
10
10
10
10
10
10
10
10
10
10
10
10
10
10
10
10
10
10
10
10
10
10
10
10
10
10
10
10
10
10
10
10
10
10
10
10
10
10
10
10
10
10
10
10
10
10
10
10
10
10
10
10
10
10
10
10
10
10
10
10
10
10
10
10
10
10
10
10
10
10
10
10
10
10
10
10
10
10
10
10
10
10
10
10
10
10
10
10
10
10
10
10
10
10
10
10
10
10
10
10
10
10
10
10
10
10
10
10
10
10
10
10
10
10
10
10
10
10
10
10
10
10
10
10
10
10
10
10
10
10
10
10
10
10
10
10
10
10
10
10
10
10
10
10
10
10
10
10
10
10
10
10
10
10
10
10
10
10
10
10
10
10
10
10
10
10
10
10
10
10
10
10
10
10
10
10
10
10
10
10
10
10
10
10
10
10
10
10
10
10
10
10
10
10
10
10
10
10
10
10
10
10
10
10
10
10
10
10
10
10
10
10
10
10
10
10
10
10
10
10
10
10
10
10
10
10
10
10
10
10
10
10
10
10
10
10
10
10
10
10
10
10
10
10
10
10
10
10
10
10
10
10
10
10
10
10
10
10
10
10
10
