# vtk DataFile Version 2.0
whisker_body, Created by Gmsh 4.13.1 
ASCII
DATASET UNSTRUCTURED_GRID
POINTS 586 double
9 0 0
7.111159036209155 0 24
12 0 0
4.916846385784335 0 90
8.730165576601308 0 3.428571428571429
8.460331153202615 0 6.857142857142858
8.190496729803924 0 10.28571428571428
7.920662306405232 0 13.71428571428572
7.650827883006539 0 17.14285714285715
7.380993459607848 0 20.57142857142857
8.221909118783412 3.660629787682195 0
6.022175457229734 6.688303429296539 0
2.781152949374546 8.559508646656376 0
-0.9407561694088541 8.950697058314462 0
-4.499999999999971 7.794228634059964 0
-7.281152949374503 5.290067270632291 0
-8.803328406604242 1.871205217359873 0
-8.803328406604258 -1.871205217359792 0
-7.281152949374553 -5.290067270632221 0
-4.500000000000045 -7.794228634059921 0
-0.9407561694089199 -8.950697058314455 0
2.781152949374503 -8.55950864665639 0
6.022175457229708 -6.688303429296562 0
8.221909118783401 -3.660629787682216 0
6.158444375708398 3.555579518104571 24
3.555579518104588 6.158444375708387 24
2.569934488766212e-14 7.111159036209155 24
-3.555579518104544 6.158444375708413 24
-6.158444375708375 3.55557951810461 24
-7.111159036209155 3.24507557902747e-14 24
-6.158444375708407 -3.555579518104554 24
-3.555579518104597 -6.158444375708382 24
-1.393825471282123e-14 -7.111159036209155 24
3.555579518104568 -6.1584443757084 24
6.158444375708388 -3.555579518104587 24
11.34980690040761 3.896393630456207 0
9.469686112756717 7.370552552276022 0
6.563377897469113 10.04599773915035 0
2.945825845689581 11.63280319127197 0
-0.9909521456679979 11.95901391608004 0
-4.820345095835646 10.98927991986068 0
-8.127378859508902 8.82868692807757 0
-10.55368501447787 5.71136871644487 0
-11.83633564083267 1.975135083368787 0
-11.83633564083267 -1.975135083368821 0
-10.55368501447786 -5.711368716444897 0
-8.12737885950888 -8.828686928077589 0
-4.820345095835619 -10.9892799198607 0
-0.9909521456679715 -11.95901391608004 0
2.945825845689616 -11.63280319127196 0
6.563377897469155 -10.04599773915032 0
9.469686112756747 -7.370552552275983 0
11.34980690040762 -3.896393630456205 0
3.476735421440674 3.476735421440667 90
1.012690292828946e-14 4.916846385784335 90
-3.476735421440661 3.47673542144068 90
-4.916846385784335 1.588676900374471e-14 90
-3.476735421440683 -3.476735421440658 90
-1.400432058674011e-14 -4.916846385784335 90
3.476735421440664 -3.476735421440678 90
11.69203679938193 0 3.91304347826087
11.38407359876386 0 7.826086956521739
11.07611039814578 0 11.73913043478261
10.76814719752771 0 15.65217391304348
10.46018399690964 0 19.56521739130435
10.15222079629157 0 23.47826086956522
9.844257595673493 0 27.39130434782609
9.536294395055421 0 31.30434782608696
9.228331194437349 0 35.21739130434783
8.920367993819276 0 39.1304347826087
8.612404793201204 0 43.04347826086957
8.304441592583132 0 46.95652173913044
7.996478391965059 0 50.8695652173913
7.688515191346986 0 54.78260869565218
7.380551990728914 0 58.69565217391305
7.072588790110841 0 62.60869565217391
6.764625589492769 0 66.52173913043478
6.456662388874697 0 70.43478260869566
6.148699188256625 0 74.34782608695652
5.840735987638553 0 78.26086956521739
5.532772787020479 0 82.17391304347827
5.224809586402407 0 86.08695652173914
7.508475953377471 2.927414933366371 11.95694201564614
7.532569507543209 -2.834315622959631 12.09421940828445
-5.135590898900637 5.275255660434181 20.80968077860095
-5.203643916541257 -5.203643916541223 20.85007130942973
-8.737567715768687 -0.05412444353864733 3.332388340584569
-3.046705615923738 8.219504402238744 2.97331588247072
-2.456977697441745 -8.408920057821796 3.042907093292356
1.904665865702463 7.108309782243678 20.85007130942975
1.904665865702435 -7.108309782243687 20.85007130942974
4.372483677102598 7.573363884007256 3.240497011877471
4.372483677102563 -7.573363884007274 3.240497011877482
6.933912253507807 -2.959521346414614 18.56259820928531
6.929541483689037 2.919756155390422 18.81099460124794
8.019667530832313 -3.097205383303641 5.121088619391627
7.994558706223572 3.165005375235843 5.104477712020853
-1.848135050627172 7.125186538331228 20.82584468087523
0.1411532112092001 7.607434787895031 17.67758105182608
3.350230013493886 6.835818558453053 17.6279393833294
2.006500498136755 7.591855297175313 14.57992102990816
-1.639436912310678 7.685404054733271 14.50642333871852
0.2586079238115011 8.098351816326291 11.40407440469297
-3.34521759975747 7.391745248263264 11.26444486784079
-4.967767980100493 6.108060898571046 14.31747382317592
-6.283181391196053 5.166674608361467 10.99502976814377
-7.224472835275084 3.195553874366198 13.98119019836885
-7.946085839191999 1.88293322006334 10.59529299250845
-7.942564533615976 -0.1295288846551862 13.42257224297693
-8.041183009467957 -1.649857920942486 10.05449746483546
-7.125505599820537 -3.61229483356597 12.84805411569767
-6.577013925825968 -4.997534893828209 9.398848013237313
-4.527805581661451 -6.648928928471379 12.14449125870339
-7.47830322298439 1.677441817086408 16.97388622409252
-7.365557886987422 4.036645885494984 7.634347428050544
-3.71394333177404 -7.441728116874812 8.678182435521469
-1.254148831077862 -8.015931960143867 11.2646986681052
-2.420143697457202 -7.455605646687293 14.75739052221987
1.161180569927915 -7.823648519693629 13.8580229560302
2.233400840913334 -7.878131639695686 10.30991733160727
3.602974059195927 7.259469555741703 11.37966054513836
2.154438974692686 8.064825164565296 8.289081625969571
5.306752282065815 6.430793345840797 8.415714442320045
-5.514988000858926 -6.51580479327009 5.890090589494416
4.382895373033453 -6.684739010945898 12.78922008199666
5.381015823092862 -6.284532717268836 9.231149493384997
3.851830139400072 -6.701318565260617 16.14397640236166
-7.03763764934546 2.185898885975134 20.72008122731591
6.439223735406289 -4.418187916499775 15.13023771376326
3.307911652737692 -7.797012870626975 6.738197046446488
-7.207028761936626 -1.631595738983139 20.4644965319842
-6.31267359492215 -4.252429736273397 17.64417259315923
-5.953930738836716 4.779927162137513 17.34083255734028
5.079648386896514 5.330129612392469 20.80062626839645
-1.931130803877722 -7.103297096345288 20.82393777005766
0.1327776713362526 -7.603642454435002 17.72767559107516
5.073881762025397 -5.335127365409427 20.80515570186312
7.115067361830937 3.173378904449561 15.36601236263429
7.201287796460569 4.195833049536499 8.456230299024035
7.378522393609136 -3.832173703108086 8.712213997712059
5.171137642861005 5.915611186690529 14.52103210045651
-3.164836457016633 6.930865341912791 17.54399744652589
-7.879876840237063 -3.120278553430075 6.668529412223155
-0.2241994773215488 -8.37862555724408 7.857203906530217
-8.414207741232451 0.5034179292919566 7.252016638071399
-4.907648394498484 6.777409472550511 8.034217809401262
-6.351365775778409 5.82263740141966 4.873654374905475
-3.599042898979237 -6.699999559650555 17.71924219156023
-1.510553390642186 8.216227018915779 8.209088927365622
0.4397021522745972 8.578459510803164 5.213089931967468
-7.956619287797634 -3.653978508575927 3.106254052985339
0.8941335376413651 -8.684940612563821 3.419928484667376
6.138856649537836 -5.92993901692337 5.905770518721913
-8.043549109013092 3.465985929680192 3.068244890998676
6.954087837316163 5.332793040612151 3.005679292235368
7.063104385255637 -5.204268170283575 2.879730580434733
-5.881525394774041 -6.53209570972169 2.670821619478657
-5.398111263504987 -5.661481653539058 14.9611715400479
5.908899410170689 5.585049510514643 11.04582587142767
5.678963788102154 5.119425202167888 17.20600586693378
0.9219704979329415 8.771963333374853 2.283536755619441
3.911319772894613 7.568662857231822 6.104436850178238
5.514095772324727 -5.202496934080097 18.03038481220442
6.849406749553984 -2.535616192203175 21.55380596041177
6.849406749552894 2.535616192207227 21.5538059604069
-2.834602551401352 -8.037695897723763 6.06235199723495
7.510392534935712 -2.058735311932664 15.40690071213899
6.133859670925744 5.970811305780263 5.589823054796796
-3.287253034739862 7.867734215195942 6.011863825403013
-7.547799457841289 -1.715737056172022 16.00536079950487
8.442952413288916 2.502574414004445 2.464507252535312
8.442952413289364 -2.5025744140058 2.464507252524976
3.671447799058786 -6.551634951044063 18.92941160435163
-5.91946339989769 6.567952290744264 2.009678259576623
6.29472032653379 -5.107922161547695 11.35375369891806
-8.173396659419151 2.548622183030202 5.57122128987698
-0.684271597300915 3.616696192071368 24
0.9101681398510091 -3.763493785155128 24
3.714365294854709 1.093518161751357 24
-3.488468752304621 -1.24031575483511 24
3.555579518104575 -2.0528147919028 24
1.104932733965547 -0.6059757038676414 24
1.254586852944331 1.722506565712089 24
2.333117407385189 3.876317308259488 24
-0.8152465472183761 -1.862550046572741 24
-2.184595175580834 -3.948590419430844 24
-1.112628809047916 0.6888501437752771 24
-3.685092014779253 2.129875745804098 24
-10.31983202371846 1.149080830487037e-14 0
0.9488176199968067 -10.27550570308071 0
0.9488176199968186 10.27550570308071 0
9.911860172928041 2.106830918111609 0
9.911860172928025 -2.106830918111621 0
5.729978798410789 3.303464067815539 68.43510397139984
8.741685474551129 3.408670616194508 33.25524477789856
7.450507122700001 3.307315589220265 48.89870620597063
8.909842609755152 -3.730164065115425 29.74316113298818
5.392052753219706 -3.274245444183336 72.31963636715948
8.111539840234119 -3.335203565050087 41.03541898028437
7.110547908283585 -3.319035307261666 52.76848133008502
9.730334990682572 3.413353866937671 21.45234953161089
-11.09527489538307 3.809012682760124 3.419408766471423
-6.416186870288138 -9.820705100301478 3.419408766471416
9.947072496248186 -3.752557215174666 17.39014747437579
-2.879762434608167 11.37192468062311 3.419408766471418
-4.81382365848084 1.846353113000349 86.96424464460338
5.037353481095154 3.260803561309366 76.22900163682509
4.677600194425128 -3.245052061620394 80.13796914691699
4.712243512000855 -10.74283313214681 3.41940876647142
8.111539840237693 3.335203565040566 41.03541898028838
6.443921666222226 3.283020386449738 60.58272272395119
5.766172991147497 -3.842010076837418 64.43430905348609
10.35126902884078 3.492521347923045 13.66449059056169
7.945113376504878 8.630693833987415 3.419408766471512
-11.11742417538435 -3.764147735902223 3.336990519483166
10.71886229871806 -3.360370264523445 9.742374045642428
-2.048754949086435 -4.743407442720916 86.8222076368402
3.92781719990075 3.680019680824613 84.08450604467214
10.31700692552853 -5.583284939902463 3.41940876647138
11.08870747912554 3.174964347258091 5.917414120683364
6.088984370403173 3.295834611060499 64.49992465939702
7.77974593057135 3.330406456502844 44.9465869410723
9.094344759081519 3.357516018864259 29.29632407513798
4.633884999170941 3.309966560843256 80.11736903330267
2.245093661184612 5.419463177290105 77.93870027603668
2.717712296215576 5.538016593505474 74.09088194801686
-0.8098319444856804 5.990564774032651 75.66474601467057
3.588099654374508 5.755214038242953 66.29964260711003
-1.303593699018038 5.593824018914728 79.49368047742082
-4.048133232639643 4.340053195922073 77.06396730685614
-3.696274338662894 5.019894069390935 73.26497069853529
-5.794361707271037 2.013044043020544 74.53354271650207
-5.755632535408311 2.872163089765785 70.74221912082993
-5.733241758630754 1.0978925721006 78.30305008361404
-5.803410036621424 -1.702378389466812 75.62800683454881
-5.073127688877797 -2.715871555062469 79.35846463112617
-3.615706916390449 -4.759209267217853 76.53066123453122
-4.682780899807487 -4.163722477924954 72.85508066477318
-1.783892138761581 -5.428261858543454 79.87286857572781
-3.31805926623458 5.629842195924073 69.44094934714275
-5.614539113697008 3.713682811415364 66.94132097228997
-6.636996722953661 0.140017764252074 68.12465334560166
-6.856042066116455 1.053277868181399 64.33816550358365
5.667466398767136 6.08603962135703 46.80645145151239
-6.322330491671726 -2.643368884894632 65.40286586062406
-6.930335128337598 -1.751752747649029 61.6467025927394
-6.953481697430129 1.999286049225837 60.54258282205483
-7.399103471963262 -0.8268306926739371 57.87475197370848
-6.96716456317021 2.870387392235138 56.72959485040374
-7.74228921680669 0.1100787975454431 54.08940227511844
-5.961443896563768 -4.328520618606023 58.86593633895094
-6.883213921817166 3.744487950815425 52.91112727737038
7.165685912445506 6.307930241508942 31.17375742440671
-7.973968490792511 1.04341134841961 50.29185611964696
-7.487796025267666 -2.693587077926614 51.36427824310989
-8.056644991358215 -1.796186511167828 47.59182543821841
-6.329571544979601 -5.178493223366408 48.56266081480184
-7.218676159993999 -4.436115736249612 44.81727399135311
-8.507514381600123 -0.8734772418726644 43.80797829503224
-7.986015423200164 -3.620976468574667 41.0591437307953
-8.850642689484335 0.0590097021812005 40.01387927522222
-8.636617543476383 -2.754718063785599 37.28891998436369
-8.154161065368461 2.862568310590125 42.66708556736896
-8.137668431951012 3.709641084824397 38.83872242758216
-6.646282268718404 -6.054517951739316 38.23849964982919
-7.596352689171249 -5.339524136917986 34.49469983185038
-4.484639697982732 -7.107495644206338 45.6905509901048
-4.734932601394022 -7.90822477994439 35.35687588519605
-5.941258869414635 -7.425407072593531 31.64170511906631
-8.439275586554629 -4.535374592886672 30.73933689909479
-7.012135574726108 -6.851286789782299 27.90816533161243
-9.158783799614795 -3.698702215658549 26.96974764978541
-7.984878539830043 -6.182391520525262 24.16050357797409
-9.749105727563039 -2.905193265742774 23.2171828828304
-9.960688816786853 -0.03748170952977958 25.91100936162205
-10.21785941984042 0.932511449488552 22.10469172646388
-8.858828418301975 -5.437537805554705 20.39979454040648
-9.353320435899056 3.682922303888687 24.74801110925371
-9.302739995929073 4.546668161274776 20.90959837189292
-7.457039862447912 6.890002394896407 23.47075829762827
-7.170767355986928 7.610303362459127 19.61310272987776
-5.058731446056227 -8.66202747937623 25.01818595091924
-4.57159147903593 9.187059192132326 22.08780343507846
-4.943715875186917 8.642423053312825 25.96518639965188
-4.156859667215704 9.714763514100996 18.21122393397727
-10.33502868463668 2.138845656680761 18.37283335203163
-6.870241071365448 8.282012048096465 15.7472296630668
-6.302842571780383 6.058049901990478 41.39446836104982
-6.002925056226058 6.765790622524681 37.54753248421065
5.277936647413196 6.02408947367971 50.70872730477605
-1.551472948612602 9.952236046556431 24.49195744182983
-2.024653774114842 9.554806903182643 28.37343075717672
-2.485498178411398 -9.115620731450564 32.42116548338916
-3.354686076939384 8.192026399040952 39.99532071451782
2.533902060254971 7.780547880445186 48.50261452506081
-5.159406232480831 5.212509806840966 59.28526707989544
-3.743930707686991 10.20745649435511 14.3274560006879
-0.6432983788940441 10.66548688616738 16.71031317140158
-0.2081042991397053 10.989895543062 12.80956088677699
-1.114351919370712 -9.090902948554985 36.09901046840621
-6.558203408833696 8.912685399046415 11.87354486735094
-3.235230735030022 -7.439718098297941 49.39265582078988
-0.8230644907038916 -8.30566328901601 46.42408620665664
-8.03624790606986 4.569789726066497 35.0095567821846
2.102244240392816 7.590342883295966 52.39929136124422
1.380733660312837 -9.29490223279679 33.07558689373292
2.937356214144841 10.40414339193456 15.10971057503306
3.376597888682866 10.59310738617632 11.20377926121825
7.533421544328137 6.355620888826331 27.23847972276099
2.742746578791567 -8.68848090213555 36.70680426658905
-6.536142786179402 5.338458181438356 45.2441020311435
-2.907924968970936 8.682473325105397 36.13017752637714
0.1903509654856148 8.968713459418604 38.49048383436503
2.510077313543604 10.19882176248055 19.01910500399847
-2.926207295720022 6.179925969126201 65.5932102049634
5.822012346503461 8.900386868673102 17.33830097075218
-9.044857158751205 6.189523181911794 13.2155900882669
-0.4390933159683164 -9.669048912228641 29.4909247531098
-1.065415097563607 7.987427278140839 50.08569893256683
0.7974260444711611 -8.019147870940175 50.07898429171878
3.133913269590368 -7.687028345249297 46.99625924780408
-1.799036313212755 -7.614337975402814 53.06135582966612
0.6847599946289882 9.251122835428724 34.60622678676899
3.758308031109467 8.285277938080332 36.87542719441981
5.134925140046871 -7.819689709004568 33.60860535250315
-8.819876303395825 7.000689237609651 9.395669945281314
-10.55493638601578 3.637866760346387 10.6190520595557
5.47933179758757 8.753049825056761 21.26238420629207
-1.51651739277168 7.602888015871388 53.96757645177988
1.66269404209835 7.384731368366733 56.29359908967203
-2.172258296919148 -8.357920218706004 42.74879263823183
-9.332320607032797 2.825208660078054 28.58145973613139
3.351083532892823 8.129333357795334 40.7495408439949
-0.5652356314798231 8.344204940049362 46.20830494203692
-5.344720315258241 8.037330684388971 29.83178877975802
-1.026746072505764 -6.126558748403799 73.54352774513239
-2.544955068609757 -5.973974565529059 69.96708213685332
1.620359336556581 9.755299271192753 26.82337173881194
2.126324661013516 -7.482189867413474 53.63976640326571
-0.4577920744305788 -7.520939554853302 56.73499131949981
3.33899252309153 -6.704117962178556 57.31009929723092
0.8947333088981385 -7.191917335261497 60.38802066280655
0.2523483042043977 11.29587558036254 8.910938356410847
3.805863813588288 10.77368085791803 7.291514095383724
6.679273724942657 9.049854702476271 9.557854153147028
-6.195714935107448 9.534342275438847 7.997273068142753
6.440309774731633 -6.403456136999366 37.07732345864934
4.033252728785276 -7.851533679201157 40.31838567455147
7.463448736818369 -5.628832521778132 33.69568696482924
-5.541750997730773 0.1440472850194978 82.03605056577501
-8.488582413611375 7.794130646652144 6.047090603791252
1.093184429991465 -6.346679845574014 70.64472534333667
-0.2547440688622228 -6.720903062880538 67.01596532772436
3.424726912024078 -5.737338339191524 67.57475187087336
4.463898240825241 -5.658817618810523 60.89400307501981
5.915958105634361 -4.521888126087467 57.86139730708484
6.043123739467471 6.158700598718205 42.84049683205702
4.16205421867199 8.434995145675803 32.96056887926971
6.746990121998396 6.306638279645696 35.1255450350728
8.293805199737157 6.389001843479004 19.44920143984274
8.563412581037666 6.540334325359991 15.56074767188343
4.03295126108876 5.834360957894598 62.35488693332757
1.592255012881173 5.338481827486715 81.68976029742706
-1.90138418156054 5.113818725434224 83.15118799202777
6.526326272652526 -7.050474751611173 30.4008693663542
7.648179267869405 -6.288622810075767 26.66286658348177
4.964969722137939 -8.479427830280597 27.62241968867257
5.997493742413984 -8.154751193071846 23.85282912698129
2.475743131125239 -9.74865991213799 24.67399041759719
3.723067642489196 -9.652994619770963 21.01494393733802
0.005491163523787141 -10.28101084802724 21.84180947140194
1.241439065172773 -10.50035962833296 18.12550859245845
4.927618833513828 -9.430655965652733 17.27500538743105
2.500938825864929 -10.57497303399594 14.40018691419229
-1.315781530555105 -10.72476472712964 15.18166008337282
-0.03963538290484744 -11.09672737923773 11.47626744621983
-3.841405352828597 -10.35136723937107 12.18322617390263
6.077050482377664 -9.092276503060248 13.5171138039551
-5.004016140514061 -9.517006573898563 15.85256478614068
-7.170431731721047 -8.333746493010191 12.783374748623
-2.618739536200412 -11.02434183398954 8.499134136302738
8.441367484414222 -5.725366963606169 22.8733411331256
1.240023239347983 -11.3219151210748 7.75562669059981
-1.044240467482067 -11.56934914587781 4.874357811013776
-8.072839699615699 -7.032081247479523 16.44036231883211
-9.602121550274166 -5.274310804297981 13.27388524283395
-9.013380806046477 -6.711528728532207 9.686081126610434
-10.59979061117258 -3.632453864138636 10.10242098608031
-10.81565859489413 -1.544188324534918 13.65488818216927
-6.080601846724424 -8.517000720516762 19.50596992312481
8.210764720045127 -6.873773322964603 16.41395255854668
8.879575647415447 -6.516329803827946 12.52761311772296
7.128485252779726 -8.680908832755224 9.749509992341578
-9.998677775114146 -3.748835964935794 16.79305457386303
-1.270194882918482 -9.908860900170261 25.54022233302247
4.66222024750712 8.521525489455966 29.05233681695705
5.039819814078843 -3.257890583034147 76.22279256047571
2.284701788703382 -5.401979611953831 77.94929372132331
2.749424520157654 -5.516649869858708 74.15561139185813
4.311926756871684 -3.226424224017219 84.04647073102491
2.001405722289415 -5.1831641544071 81.87686287414482
1.565777410866846 -4.947209821070668 86.54095293882608
1.761511681271383 4.844258672603374 86.97922111559225
5.383054762822435 3.290139095723076 72.31220661238299
3.151105506822417 5.657493773287912 70.19091370410557
-1.089161503678302 10.32106710865509 20.60468003272963
2.071317243915657 9.98336031870684 22.92235325935258
5.153586055033341 8.595482084827626 25.13206314527888
6.779767710152019 3.299538316045936 56.66916478998555
8.430602406298005 3.368557941207163 37.11902368267285
7.457185511834965 -3.285830633651695 48.93151826186603
4.953970478178081 -6.305423227281691 50.58670911565223
7.568483483252416 -3.780416799927454 44.97854289900693
9.430442081192481 3.331511343709381 25.39195052127168
7.92533502257128 6.355553069375312 23.39293024695477
-6.755145222662343 4.535538501849349 49.09005952024193
-2.484391785739472 9.127749791626627 32.27616509700993
-8.106701352488605 1.965391618903417 46.485079735475
10.05889553145263 3.400391129349838 17.5587093896202
8.931476956250057 6.569595277303361 11.59543950816434
10.68870185843614 3.461748840453574 9.716385927065353
9.062282845880056 6.971548017897626 7.196659236638807
-5.691291041215513 7.415269752220456 33.70234968231462
-9.161695116493668 5.444605682085339 17.05922309908008
-5.633967608570631 -6.624780199018508 41.97480748520819
-6.790847812259848 -3.547473534436231 55.12454230161522
-6.285643874441412 -0.8262872617131715 71.92065662534766
-10.68133300376758 2.067479124225668 14.23623703990754
-3.371492434276569 10.65329173517286 10.49458028238087
-0.3094450088874827 6.340582067550262 71.81383470385293
-2.734105458249493 -10.15638914023711 18.83104902527619
3.693930543379738 -10.53196607450827 10.66078397963639
-4.910711256848812 5.846432375617063 55.46039396154502
-9.165598402184031 -1.895426342394969 33.55032983748183
-9.09764195143606 0.9448557218172076 36.25619726151329
0.2827914099528614 -8.866284467861966 39.76034280017677
1.743185767125461 -8.403269940347382 43.42764743721842
-3.747905316338372 7.681434424977076 43.87451002421399
-5.455634231833829 4.430421429588129 63.17543533889476
-4.117261882258843 7.139462728209432 47.75515182080668
-4.458752140802544 6.561620838275465 51.67385253752207
6.789285253937403 -7.897832287196692 20.14060080483026
-4.988842258728491 -5.014920879722884 62.59390565073804
-3.870583893057501 -5.567973772456991 66.31200492193813
-3.473905793960232 -8.222987453947699 39.0502841609458
-4.138760633366188 -6.365278705180657 56.00255024423935
6.248507044611324 8.985159368942682 13.41438924738012
-2.951348887956763 -6.678211209618599 59.70265852607086
-1.610073115426067 -6.82499163340195 63.37428894829112
2.884493276594458 7.982105731695255 44.63304638918535
-6.159550758429547 -9.444810056646228 9.201361931105716
2.581667777312469 -6.469223979573626 63.97150638830367
-3.897124453577608 -8.92865759252042 28.68934423796262
-5.469909224289243 -3.61308157423457 69.17923683130236
5.097649805278996 -6.889136056415369 43.58129693223984
-7.878131254331723 5.385967881536417 31.2159807887641
-9.256757749530637 1.901733027733616 32.3997111014117
1.134543619674066 9.514990058024187 30.71862978622168
-4.363386282466957 3.580934935071484 80.75219679693707
-2.055023593270596 7.155624219237737 57.87842238524734
-2.470711115500422 6.699745011740296 61.7420149666081
0.7467481161991031 11.57453438065453 5.10029417915326
7.115555512683188 3.303274588790306 52.79531057261508
4.888880828004024 5.953345497499487 54.5925664776786
4.484725303805186 5.882379359453256 58.48705636101006
-7.692155954652721 6.151516957280331 27.32612919552176
6.364028721498854 6.265777584242386 38.99671575243787
-9.61465534307664 -0.9525856705529462 29.71054377078168
-0.2373008779886603 8.663747091004092 42.349827032584
1.123133371290871 7.175031648914374 60.19686834319207
0.617795020921865 6.929037560200565 64.08343312558463
0.1370561504285848 6.651284179023803 67.94393793028496
-5.317598700618059 -5.821265531721466 52.29347493442934
-4.757858205836063 -1.995481421015279 86.91836894518278
-4.058099037753007 -3.603704774904394 83.51492568019293
8.45992796957731 -3.261723526659606 37.26818653122908
7.8763721166995 -8.690256644341535 3.449687993079333
8.235357285289259 -7.986443051728444 6.710206185198285
-9.33360505688271 -7.111702968224623 3.376739201376022
4.712559026357229 10.74355243242771 3.409428593027145
-11.73666604211394 0.04718123912198326 3.344770207887467
-11.31581770093242 1.843238772360134 6.798354595906375
-2.028649363574059 4.754739308344587 86.79067298628853
-6.124722709160666 10.01157807970788 3.348901431892478
10.37443806815385 -3.417995766916998 13.68473878818401
5.101966915050013 -10.24089536155564 7.097480376663102
5.200534771230809 -5.705055491362501 54.38681914182557
10.79449085934742 -3.990168942353179 6.246806062227877
-10.17526487436176 -5.299260096614142 6.702569190896988
10.23355556339107 5.767975609077463 3.212942893686832
5.683742804108942 -3.38421152081854 68.42330158503597
9.401135007164278 -3.404165939541974 25.43167025599494
-2.974272476138776 11.06084885512525 6.940606201900162
5.934515921894478 -5.782958855149123 47.18831702083411
-8.107233756750569 -8.137816598484639 6.518211585801843
-10.2808939825345 -1.755328794210172 19.95296862734354
-11.16071163766656 0.3717507865285147 10.5855236361504
-3.568507704364933 -9.613032430170444 22.18495680364569
-11.30676912640062 -1.969057204795725 6.646072802447003
6.59086355102999 -2.90577253705153 60.95185164738211
-10.40398983322412 4.812176973089485 6.823407816147308
-0.8915089710837103 -5.336294660739441 83.73068460773698
3.811570266060402 -8.801269416883539 30.60717374716933
1.897458201055297 -11.60406525459614 3.072678648116426
9.90347123052393 -3.025432897703903 20.8980492020163
-4.954665447721385 -10.38025030848506 6.326418368421582
6.688571503821687 9.347740277549638 6.426464833120199
-4.388683959497208 3.122833922999367 84.03454159170822
-0.7293838804919742 -5.916017167145515 76.73518019912538
-9.284068391862601 7.26750341377217 2.664837240076421
6.306767244489111 -6.184443130773734 40.24000311628432
9.055688651406529 -2.428151711993286 33.34647383835051
4.326193519401213 -2.783957517392799 87.10678197913089
4.326193519407976 2.783957517382265 87.10678197913106
-3.935220592529317 -11.09136958085128 2.937789598440303
11.42395651398019 2.851827827667638 2.864788304020534
-10.67730059282464 -0.6258233144116309 16.57365067674464
3.89894702212274 -5.136628459120255 70.53496118425713
11.33741184728652 -3.138870961002373 2.999894383208478
9.32278953779722 -6.297226406687718 9.52572022655389
-6.366649730443042 -8.012613945229262 22.43825431086796
8.82557225894328 -5.625409812252693 19.49204330576264
-5.320693871616164 -0.03597779065990815 84.86708561803361
0.9681780396898522 11.79082748286103 2.153566807353991
2.303054290082497 -9.549477615321551 27.65801047462421
7.162797524340258 -2.61060732215866 55.60604939064334
0.7192835342764021 5.304800895400633 84.4537845737639
2.853175032637987 -11.21320152402439 5.457300693722028
0.5473750369420712 1.321480237890017 90
-0.7398602367303317 -1.78618061777492 90
2.201188615676791 -0.935382126248411 90
-2.217890441286627 0.8950603523447548 90
-0.3273804434145657 -0.5126550716771199 32.75913725436687
-0.002824944021159403 -0.00401569803831503 41.68340948229602
-0.024100538694249 0.02756537626594469 50.3054546414274
-0.02261507852150801 0.01487262021022762 57.87281162702279
0.01897197879449086 -0.01309141554963755 65.22765620948527
-0.02370143117106771 0.02941888505192758 72.01574544661855
2.721488361166005 2.334893862682803 29.2288142350992
0.005510676383290836 0.04100071512711342 78.2673134416129
2.249559183315995 2.631678565961737 36.96874110356411
-3.508883573305165 0.8008943888754474 37.28250822206833
0.1037882927283628 -3.717361799752877 37.40864181003483
0.7567110887910117 -2.169262268165629 28.45688666765023
-3.21320309228252 2.919076183214028 29.4789483218749
-0.008350547587665957 -0.01076165618106062 83.9792982358716
-2.495512787120493 -2.09434666619976 45.99602176462574
2.787129740249352 1.610494893656971 45.99548691294183
-4.330230101033613 -2.047782794281844 28.98049477383132
-2.070316031059884 2.917889399938901 45.28793923478305
-1.253010332263801 4.495851016849883 33.85233724115891
4.644442012987319 -0.05466330980112311 33.19222229038846
0.9367970403494204 3.102420188531616 54.00818205060052
-2.22028605187565 -2.424431692193244 53.88905237454094
2.639754283215335 -1.553093133484398 54.08596976994388
2.058008281900378 -2.96831063479873 47.20073884533471
-0.5284601708429055 4.451490441954538 40.29101278462608
-3.441753385289615 -2.850683786353475 40.31890407679944
1.874930479304459 -4.663585867138767 32.30576697932717
4.472750669215155 0.4736819900158825 40.4565304691928
-3.323845112732048 -3.996458137186704 33.32225161346938
-4.939015669855133 0.3193655779690487 32.90885288994708
-2.784967047904739 0.2884754121890265 61.56706430288892
2.231776470873967 1.665267940832297 61.54393248509962
0.7360538788095549 -2.713281188887126 61.53934109669183
-0.08585250642282261 -4.325884266435855 42.92388801691399
-3.259242367166535 1.820984818286034 54.56068865368453
5.279434827225877 -1.353007779714503 28.20963510960073
0.0004330453005082292 5.640160193038755 28.16017725162102
-4.057867522150951 1.700736553444464 41.55508569322052
-2.257312607210608 1.521275290377661 68.5767694718444
0.2783668278851743 4.075417115193623 48.7553794577404
-3.939048612937839 0.983451530259053 48.69418550558118
-0.05910862930607053 -2.683799622926054 68.63820248437807
3.520535956016333 4.140608340357613 33.09833639817791
3.992873435333053 1.441904600333624 50.56225439908294
-0.3046392298269222 2.065895918009197 27.25324276616538
-1.772024878422721 -5.374024544165207 29.61945151013177
2.631428709716149 0.5166229908761202 68.81779816998647
3.808165027997934 -2.62090771470594 43.32194642129081
4.206266167996799 -2.210008431198569 36.99202466390044
-2.874859039797248 -3.354790958327112 49.91475374692477
2.844369554407924 3.645714212757131 42.45257605163253
1.038033462396439 -3.872835259998998 51.08547453265565
-1.385733129632014 2.084038738545224 75.14416643078478
-0.8370475338799148 3.641340987928726 59.57585643376672

CELLS 2950 13510
1 0
1 1
1 2
1 3
2 0 4
2 4 5
2 5 6
2 6 7
2 7 8
2 8 9
2 9 1
2 0 10
2 10 11
2 11 12
2 12 13
2 13 14
2 14 15
2 15 16
2 16 17
2 17 18
2 18 19
2 19 20
2 20 21
2 21 22
2 22 23
2 23 0
2 1 24
2 24 25
2 25 26
2 26 27
2 27 28
2 28 29
2 29 30
2 30 31
2 31 32
2 32 33
2 33 34
2 34 1
2 2 35
2 35 36
2 36 37
2 37 38
2 38 39
2 39 40
2 40 41
2 41 42
2 42 43
2 43 44
2 44 45
2 45 46
2 46 47
2 47 48
2 48 49
2 49 50
2 50 51
2 51 52
2 52 2
2 3 53
2 53 54
2 54 55
2 55 56
2 56 57
2 57 58
2 58 59
2 59 3
2 2 60
2 60 61
2 61 62
2 62 63
2 63 64
2 64 65
2 65 66
2 66 67
2 67 68
2 68 69
2 69 70
2 70 71
2 71 72
2 72 73
2 73 74
2 74 75
2 75 76
2 76 77
2 77 78
2 78 79
2 79 80
2 80 81
2 81 3
3 0 170 4
3 4 171 0
3 10 170 0
3 0 171 23
3 1 163 9
3 9 164 1
3 1 164 24
3 34 163 1
3 5 95 4
3 4 96 5
3 95 171 4
3 4 170 96
3 5 138 6
3 6 139 5
3 5 139 95
3 96 138 5
3 6 82 7
3 7 83 6
3 6 138 82
3 83 139 6
3 7 137 8
3 8 166 7
3 82 137 7
3 7 166 83
3 9 93 8
3 8 94 9
3 93 166 8
3 8 137 94
3 9 163 93
3 94 164 9
3 11 154 10
3 154 170 10
3 12 91 11
3 91 154 11
3 13 160 12
3 12 160 91
3 14 87 13
3 87 160 13
3 15 173 14
3 14 173 87
3 16 153 15
3 153 173 15
3 17 86 16
3 86 153 16
3 18 150 17
3 17 150 86
3 19 156 18
3 18 156 150
3 20 88 19
3 88 156 19
3 21 151 20
3 20 151 88
3 22 92 21
3 92 151 21
3 23 155 22
3 22 155 92
3 23 171 155
3 24 133 25
3 24 164 133
3 25 89 26
3 25 133 89
3 26 97 27
3 89 97 26
3 27 84 28
3 27 97 84
3 28 127 29
3 84 127 28
3 29 130 30
3 127 130 29
3 30 85 31
3 30 130 85
3 31 134 32
3 85 134 31
3 32 90 33
3 32 134 90
3 33 136 34
3 90 136 33
3 136 163 34
3 82 140 137
3 138 158 82
3 82 158 140
3 83 166 128
3 128 174 83
3 83 174 139
3 97 141 84
3 84 132 127
3 84 141 132
3 130 131 85
3 131 147 85
3 85 147 134
3 142 144 86
3 86 150 142
3 144 175 86
3 86 175 153
3 146 168 87
3 87 173 146
3 149 160 87
3 87 168 149
3 123 156 88
3 88 165 123
3 151 165 88
3 89 98 97
3 89 99 98
3 89 133 99
3 134 135 90
3 135 172 90
3 90 172 136
3 91 160 149
3 149 161 91
3 91 167 154
3 161 167 91
3 129 151 92
3 92 152 129
3 92 155 152
3 93 162 128
3 128 166 93
3 136 162 93
3 93 163 136
3 94 159 133
3 133 164 94
3 137 159 94
3 139 152 95
3 152 155 95
3 155 171 95
3 96 167 138
3 154 167 96
3 96 170 154
3 98 141 97
3 99 100 98
3 100 101 98
3 101 141 98
3 99 140 100
3 133 159 99
3 99 159 140
3 100 102 101
3 100 120 102
3 100 140 120
3 102 103 101
3 103 104 101
3 104 141 101
3 102 148 103
3 120 121 102
3 121 148 102
3 103 105 104
3 103 145 105
3 103 148 145
3 105 106 104
3 106 132 104
3 132 141 104
3 105 107 106
3 105 114 107
3 105 145 114
3 107 108 106
3 108 113 106
3 113 132 106
3 107 109 108
3 107 144 109
3 114 144 107
3 109 110 108
3 110 169 108
3 108 169 113
3 109 111 110
3 109 142 111
3 109 144 142
3 111 112 110
3 112 157 110
3 157 169 110
3 111 115 112
3 111 123 115
3 111 142 123
3 115 116 112
3 116 117 112
3 117 157 112
3 113 130 127
3 127 132 113
3 113 169 130
3 114 175 144
3 145 146 114
3 146 175 114
3 115 143 116
3 123 165 115
3 115 165 143
3 116 118 117
3 116 119 118
3 116 143 119
3 118 135 117
3 135 147 117
3 147 157 117
3 119 124 118
3 124 126 118
3 126 135 118
3 119 125 124
3 119 129 125
3 119 143 129
3 120 122 121
3 120 158 122
3 140 158 120
3 122 161 121
3 121 149 148
3 121 161 149
3 122 158 138
3 138 167 122
3 122 167 161
3 142 150 123
3 150 156 123
3 125 174 124
3 124 128 126
3 124 174 128
3 129 152 125
3 125 152 139
3 139 174 125
3 128 162 126
3 126 172 135
3 162 172 126
3 143 151 129
3 130 169 131
3 131 157 147
3 131 169 157
3 134 147 135
3 136 172 162
3 140 159 137
3 143 165 151
3 145 168 146
3 148 168 145
3 146 173 153
3 153 175 146
3 149 168 148
3 24 178 1
3 1 180 34
3 178 180 1
3 25 183 24
3 24 183 178
3 26 183 25
3 27 176 26
3 176 183 26
3 28 187 27
3 27 187 176
3 29 187 28
3 30 179 29
3 179 187 29
3 31 185 30
3 30 185 179
3 32 185 31
3 33 177 32
3 177 185 32
3 34 180 33
3 33 180 177
3 182 183 176
3 176 186 182
3 176 187 186
3 180 181 177
3 181 184 177
3 184 185 177
3 178 181 180
3 178 182 181
3 178 183 182
3 179 185 184
3 184 186 179
3 186 187 179
3 182 186 181
3 181 186 184
3 0 191 2
3 2 192 0
3 10 191 0
3 0 192 23
3 2 191 35
3 52 192 2
3 11 36 10
3 36 35 10
3 35 191 10
3 11 12 37
3 37 36 11
3 13 190 12
3 37 12 38
3 12 190 38
3 14 40 13
3 40 39 13
3 39 190 13
3 15 41 14
3 14 41 40
3 16 42 15
3 42 41 15
3 17 188 16
3 43 42 16
3 16 188 43
3 17 18 45
3 45 44 17
3 44 188 17
3 46 18 19
3 45 18 46
3 20 47 19
3 19 47 46
3 21 189 20
3 20 48 47
3 20 189 48
3 22 50 21
3 21 50 49
3 49 189 21
3 23 51 22
3 22 51 50
3 23 52 51
3 23 192 52
3 38 190 39
3 43 188 44
3 48 189 49
3 35 515 2
3 2 518 52
3 2 515 60
3 60 518 2
3 3 513 53
3 59 512 3
3 3 512 81
3 81 513 3
3 36 489 35
3 489 515 35
3 37 213 36
3 213 489 36
3 38 479 37
3 37 479 213
3 39 523 38
3 38 523 479
3 40 204 39
3 204 523 39
3 41 483 40
3 40 483 204
3 42 509 41
3 41 509 483
3 43 201 42
3 201 509 42
3 44 480 43
3 43 480 201
3 45 214 44
3 214 480 44
3 46 478 45
3 45 478 214
3 47 202 46
3 202 478 46
3 48 514 47
3 47 514 202
3 49 503 48
3 48 503 383
3 383 514 48
3 50 208 49
3 208 503 49
3 51 476 50
3 50 476 208
3 52 218 51
3 218 476 51
3 52 518 218
3 53 402 54
3 53 513 402
3 54 482 55
3 402 482 54
3 55 205 56
3 55 482 205
3 56 473 57
3 205 473 56
3 57 216 58
3 57 473 216
3 58 401 59
3 216 401 58
3 401 512 59
3 60 219 61
3 61 487 60
3 60 515 219
3 487 518 60
3 62 215 61
3 61 420 62
3 215 487 61
3 219 420 61
3 62 212 63
3 63 484 62
3 62 420 212
3 62 484 215
3 64 203 63
3 63 418 64
3 203 484 63
3 212 418 63
3 64 200 65
3 65 504 64
3 64 418 200
3 64 504 203
3 65 413 66
3 66 491 65
3 200 413 65
3 491 504 65
3 67 196 66
3 66 222 67
3 196 491 66
3 66 413 222
3 67 194 68
3 68 511 67
3 67 222 194
3 67 511 196
3 68 409 69
3 69 475 68
3 194 409 68
3 475 511 68
3 70 198 69
3 69 209 70
3 198 475 69
3 69 409 209
3 70 221 71
3 71 412 70
3 70 412 198
3 209 221 70
3 71 195 72
3 72 410 71
3 71 221 195
3 410 412 71
3 73 199 72
3 72 462 73
3 195 462 72
3 199 410 72
3 73 408 74
3 74 525 73
3 73 525 199
3 73 462 408
3 74 210 75
3 75 499 74
3 74 408 210
3 74 499 355
3 355 525 74
3 76 211 75
3 75 220 76
3 210 220 75
3 211 499 75
3 76 193 77
3 77 490 76
3 76 220 193
3 76 490 211
3 78 197 77
3 77 403 78
3 193 403 77
3 197 490 77
3 78 206 79
3 79 396 78
3 78 396 197
3 78 403 206
3 80 207 79
3 79 223 80
3 206 223 79
3 207 396 79
3 80 217 81
3 81 399 80
3 80 399 207
3 80 223 217
3 217 513 81
3 81 512 399
3 220 227 193
3 227 404 193
3 193 404 403
3 222 252 194
3 252 358 194
3 358 409 194
3 221 243 195
3 243 289 195
3 289 462 195
3 348 364 196
3 196 511 348
3 364 365 196
3 365 491 196
3 396 398 197
3 398 517 197
3 197 517 490
3 412 454 198
3 454 510 198
3 198 510 475
3 199 411 410
3 199 486 411
3 199 525 486
3 359 414 200
3 200 418 359
3 200 414 413
3 480 481 201
3 481 500 201
3 500 509 201
3 202 494 478
3 202 505 494
3 202 514 505
3 390 484 203
3 203 521 390
3 504 521 203
3 204 492 461
3 461 523 204
3 483 492 204
3 205 522 473
3 482 507 205
3 507 522 205
3 206 224 223
3 206 225 224
3 206 403 225
3 207 397 396
3 207 400 397
3 399 400 207
3 476 485 208
3 485 527 208
3 208 527 503
3 209 356 221
3 209 466 356
3 409 466 209
3 210 361 220
3 210 464 361
3 408 464 210
3 353 451 211
3 211 490 353
3 211 451 354
3 354 499 211
3 360 418 212
3 212 419 360
3 212 420 419
3 421 489 213
3 213 506 421
3 479 506 213
3 478 488 214
3 214 498 480
3 488 498 214
3 215 484 391
3 391 519 215
3 215 519 487
3 216 501 401
3 473 474 216
3 474 501 216
3 223 362 217
3 362 526 217
3 402 513 217
3 217 526 402
3 218 477 476
3 218 487 477
3 218 518 487
3 219 421 420
3 219 489 421
3 219 515 489
3 220 361 227
3 221 356 243
3 222 308 252
3 222 413 308
3 224 362 223
3 225 226 224
3 226 228 224
3 228 362 224
3 225 429 226
3 403 404 225
3 404 429 225
3 226 229 228
3 226 230 229
3 226 429 230
3 361 470 227
3 227 471 404
3 470 471 227
3 229 458 228
3 228 363 362
3 228 458 363
3 230 231 229
3 231 233 229
3 233 458 229
3 230 232 231
3 230 239 232
3 230 429 239
3 232 426 231
3 231 234 233
3 231 426 234
3 239 240 232
3 240 241 232
3 241 426 232
3 234 235 233
3 235 349 233
3 349 458 233
3 234 236 235
3 234 237 236
3 234 426 237
3 236 238 235
3 238 474 235
3 235 474 349
3 237 335 236
3 236 508 238
3 335 508 236
3 237 336 335
3 237 453 336
3 426 453 237
3 397 400 238
3 238 508 397
3 400 501 238
3 238 501 474
3 239 314 240
3 239 471 314
3 429 471 239
3 240 242 241
3 240 438 242
3 314 438 240
3 242 244 241
3 244 453 241
3 241 453 426
3 242 245 244
3 242 246 245
3 242 438 246
3 243 294 289
3 243 449 294
3 356 449 243
3 245 442 244
3 442 443 244
3 443 453 244
3 246 247 245
3 247 250 245
3 250 442 245
3 246 248 247
3 246 295 248
3 246 438 295
3 248 249 247
3 249 425 247
3 247 425 250
3 248 251 249
3 248 432 251
3 295 432 248
3 251 253 249
3 253 254 249
3 254 425 249
3 425 445 250
3 250 447 442
3 445 447 250
3 251 415 253
3 251 440 415
3 432 440 251
3 308 395 252
3 357 358 252
3 252 395 357
3 253 255 254
3 253 417 255
3 415 417 253
3 255 256 254
3 256 472 254
3 254 472 425
3 255 257 256
3 255 258 257
3 255 417 258
3 257 266 256
3 266 301 256
3 301 472 256
3 258 259 257
3 259 424 257
3 257 424 266
3 258 260 259
3 258 262 260
3 258 417 262
3 260 261 259
3 261 264 259
3 264 424 259
3 260 434 261
3 262 263 260
3 263 434 260
3 261 265 264
3 261 433 265
3 261 434 433
3 262 287 263
3 262 310 287
3 262 417 310
3 287 288 263
3 288 303 263
3 303 434 263
3 265 267 264
3 267 444 264
3 264 444 424
3 265 268 267
3 265 269 268
3 265 433 269
3 266 302 301
3 266 330 302
3 266 424 330
3 268 292 267
3 292 299 267
3 299 444 267
3 269 270 268
3 270 452 268
3 268 452 292
3 269 271 270
3 269 467 271
3 433 467 269
3 271 272 270
3 272 281 270
3 281 452 270
3 271 273 272
3 271 274 273
3 271 467 274
3 273 276 272
3 276 520 272
3 272 520 281
3 274 275 273
3 275 495 273
3 273 495 276
3 274 277 275
3 274 331 277
3 274 467 331
3 277 278 275
3 278 285 275
3 285 495 275
3 384 389 276
3 276 393 384
3 389 520 276
3 276 495 393
3 277 279 278
3 277 465 279
3 331 465 277
3 279 280 278
3 280 423 278
3 278 423 285
3 279 282 280
3 279 283 282
3 279 465 283
3 282 284 280
3 284 286 280
3 286 423 280
3 394 452 281
3 281 497 394
3 281 520 497
3 283 290 282
3 282 405 284
3 290 405 282
3 283 291 290
3 283 334 291
3 283 465 334
3 284 296 286
3 284 297 296
3 284 405 297
3 423 427 285
3 427 516 285
3 285 516 495
3 296 300 286
3 300 316 286
3 316 423 286
3 287 293 288
3 287 437 293
3 310 437 287
3 293 311 288
3 288 422 303
3 311 422 288
3 294 304 289
3 304 463 289
3 289 463 462
3 291 337 290
3 337 406 290
3 290 406 405
3 334 416 291
3 291 457 337
3 416 457 291
3 292 305 299
3 292 317 305
3 292 452 317
3 293 312 311
3 293 468 312
3 437 468 293
3 294 318 304
3 294 333 318
3 294 449 333
3 295 459 432
3 438 460 295
3 295 460 459
3 297 298 296
3 298 428 296
3 296 428 300
3 297 306 298
3 297 313 306
3 297 405 313
3 306 307 298
3 307 342 298
3 342 428 298
3 305 309 299
3 309 435 299
3 435 444 299
3 300 325 316
3 300 345 325
3 300 428 345
3 302 319 301
3 319 321 301
3 321 472 301
3 302 320 319
3 302 436 320
3 330 436 302
3 422 455 303
3 303 456 434
3 455 456 303
3 318 328 304
3 328 329 304
3 329 463 304
3 305 324 309
3 317 502 305
3 305 502 324
3 306 446 307
3 313 315 306
3 315 446 306
3 307 343 342
3 307 344 343
3 307 446 344
3 308 407 395
3 308 414 407
3 413 414 308
3 324 346 309
3 346 347 309
3 347 435 309
3 310 417 415
3 415 439 310
3 310 439 437
3 312 322 311
3 322 416 311
3 416 422 311
3 312 323 322
3 312 332 323
3 312 468 332
3 313 327 315
3 313 406 327
3 405 406 313
3 314 460 438
3 314 470 460
3 314 471 470
3 327 359 315
3 359 360 315
3 360 446 315
3 325 326 316
3 326 427 316
3 316 427 423
3 317 452 394
3 394 524 317
3 317 524 502
3 318 440 328
3 333 439 318
3 439 440 318
3 320 411 319
3 319 338 321
3 319 411 338
3 320 493 411
3 436 454 320
3 454 493 320
3 338 339 321
3 339 445 321
3 445 472 321
3 323 357 322
3 357 457 322
3 322 457 416
3 332 466 323
3 323 358 357
3 323 466 358
3 324 348 346
3 324 364 348
3 324 502 364
3 325 500 326
3 345 350 325
3 350 500 325
3 326 496 427
3 481 496 326
3 326 500 481
3 327 414 359
3 406 407 327
3 407 414 327
3 328 459 329
3 328 440 432
3 432 459 328
3 459 469 329
3 329 464 463
3 329 469 464
3 424 444 330
3 435 436 330
3 330 444 435
3 331 456 455
3 455 465 331
3 331 467 456
3 332 449 356
3 356 466 332
3 332 468 449
3 437 439 333
3 333 468 437
3 449 468 333
3 334 422 416
3 334 455 422
3 334 465 455
3 336 351 335
3 351 398 335
3 398 508 335
3 336 352 351
3 336 443 352
3 336 453 443
3 395 407 337
3 337 457 395
3 337 407 406
3 338 340 339
3 338 486 340
3 411 486 338
3 340 341 339
3 341 447 339
3 339 447 445
3 340 354 341
3 340 355 354
3 340 486 355
3 354 451 341
3 341 448 447
3 341 451 448
3 343 461 342
3 342 492 428
3 461 492 342
3 344 506 343
3 343 479 461
3 343 506 479
3 419 421 344
3 344 446 419
3 421 506 344
3 345 483 350
3 428 492 345
3 345 492 483
3 346 510 347
3 348 475 346
3 475 510 346
3 347 436 435
3 347 454 436
3 347 510 454
3 348 511 475
3 349 507 458
3 474 522 349
3 349 522 507
3 483 509 350
3 350 509 500
3 352 353 351
3 353 517 351
3 351 517 398
3 352 451 353
3 443 448 352
3 448 451 352
3 490 517 353
3 355 499 354
3 486 525 355
3 395 457 357
3 358 466 409
3 359 418 360
3 419 446 360
3 464 469 361
3 469 470 361
3 363 526 362
3 458 507 363
3 363 507 482
3 482 526 363
3 364 366 365
3 364 502 366
3 366 367 365
3 367 381 365
3 381 491 365
3 366 368 367
3 366 524 368
3 502 524 366
3 368 369 367
3 369 441 367
3 367 441 381
3 368 370 369
3 368 394 370
3 368 524 394
3 370 371 369
3 371 372 369
3 372 441 369
3 370 430 371
3 394 497 370
3 370 497 430
3 371 373 372
3 371 374 373
3 371 430 374
3 373 377 372
3 377 390 372
3 390 441 372
3 374 375 373
3 375 431 373
3 373 431 377
3 374 376 375
3 374 378 376
3 374 430 378
3 376 380 375
3 380 382 375
3 382 431 375
3 378 379 376
3 379 450 376
3 376 450 380
3 377 391 390
3 377 392 391
3 377 431 392
3 378 384 379
3 378 389 384
3 378 430 389
3 384 385 379
3 385 386 379
3 386 450 379
3 380 383 382
3 380 505 383
3 450 505 380
3 441 521 381
3 381 504 491
3 381 521 504
3 383 527 382
3 382 485 431
3 382 527 485
3 503 527 383
3 505 514 383
3 384 393 385
3 385 387 386
3 385 388 387
3 385 393 388
3 387 488 386
3 386 494 450
3 488 494 386
3 388 496 387
3 387 498 488
3 496 498 387
3 393 516 388
3 427 496 388
3 388 516 427
3 430 497 389
3 497 520 389
3 391 484 390
3 390 521 441
3 392 519 391
3 431 485 392
3 392 485 477
3 477 519 392
3 495 516 393
3 397 398 396
3 397 508 398
3 399 401 400
3 399 512 401
3 401 501 400
3 402 526 482
3 404 471 429
3 462 463 408
3 463 464 408
3 411 493 410
3 410 493 412
3 412 493 454
3 415 440 439
3 420 421 419
3 425 472 445
3 434 456 433
3 456 467 433
3 442 448 443
3 447 448 442
3 494 505 450
3 460 469 459
3 460 470 469
3 479 523 461
3 473 522 474
3 477 485 476
3 487 519 477
3 478 494 488
3 480 498 481
3 481 498 496
3 53 530 3
3 3 530 59
3 54 528 53
3 528 530 53
3 55 531 54
3 54 531 528
3 56 531 55
3 57 531 56
3 58 529 57
3 529 531 57
3 59 530 58
3 58 530 529
3 529 530 528
3 528 531 529
4 78 537 396 539
4 206 537 78 539
4 537 539 206 584
4 447 445 250 553
4 447 250 535 553
4 447 535 339 553
4 499 563 535 564
4 470 536 314 585
4 339 535 340 554
4 184 186 179 576
4 543 558 366 567
4 396 537 398 539
4 460 470 314 585
4 536 562 314 585
4 340 535 339 564
4 247 535 250 553
4 447 339 445 553
4 408 535 464 552
4 236 539 537 584
4 29 544 331 548
4 339 535 447 564
4 261 541 557 560
4 464 535 408 563
4 447 535 250 564
4 366 543 524 558
4 261 557 264 560
4 339 553 535 554
4 508 537 236 539
4 236 537 234 584
4 364 366 558 567
4 28 331 29 544
4 366 33 543 567
4 33 524 366 543
4 508 398 537 539
4 535 552 408 554
4 535 562 250 564
4 541 550 288 556
4 247 250 535 562
4 443 442 536 564
4 443 442 244 536
4 524 558 543 577
4 470 563 536 585
4 417 546 258 569
4 247 535 553 566
4 228 362 363 539
4 458 228 363 539
4 417 549 546 569
4 247 248 562 566
4 288 550 311 556
4 499 535 355 564
4 184 179 548 576
4 499 74 535 563
4 440 571 566 572
4 458 539 363 545
4 244 536 442 562
4 396 78 197 537
4 236 508 335 537
4 187 28 29 544
4 225 537 206 584
4 443 448 442 564
4 363 539 362 545
4 184 548 543 576
4 237 234 236 537
4 403 78 206 537
4 438 314 240 536
4 182 181 178 576
4 403 206 225 537
4 546 549 417 572
4 442 562 536 564
4 74 535 408 554
4 470 471 314 536
4 341 340 339 564
4 247 562 535 566
4 470 227 471 536
4 395 25 308 538
4 248 562 566 585
4 222 538 24 567
4 187 544 29 548
4 422 455 544 561
4 29 331 274 548
4 288 541 303 550
4 264 542 267 560
4 541 560 261 561
4 249 566 254 572
4 471 536 227 578
4 264 557 542 560
4 422 544 550 561
4 246 247 248 562
4 502 366 524 558
4 79 78 396 539
4 240 536 314 570
4 508 398 335 537
4 440 552 566 571
4 79 206 78 539
4 467 274 331 548
4 438 536 240 562
4 395 25 538 568
4 74 408 535 563
4 331 548 544 561
4 323 312 322 550
4 464 552 535 585
4 254 566 553 572
4 438 314 536 562
4 331 467 548 561
4 258 546 557 569
4 536 573 490 578
4 542 565 347 579
4 444 267 264 542
4 240 536 242 562
4 404 537 429 570
4 222 308 24 538
4 24 308 25 538
4 246 248 295 562
4 236 234 539 584
4 323 540 312 550
4 242 536 240 570
4 462 408 552 554
4 248 295 562 585
4 542 579 347 580
4 541 556 288 569
4 314 536 471 570
4 462 73 408 554
4 257 258 546 557
4 249 553 254 566
4 471 570 536 578
4 541 303 550 561
4 396 197 398 537
4 536 570 244 573
4 422 550 303 561
4 404 537 570 578
4 244 536 242 570
4 422 303 455 561
4 464 535 563 585
4 533 541 540 542
4 352 536 443 573
4 74 355 499 535
4 438 240 242 562
4 362 539 223 545
4 443 536 244 573
4 237 236 335 537
4 453 244 570 573
4 355 535 340 564
4 566 571 534 572
4 265 261 264 560
4 312 550 540 556
4 333 549 468 582
4 538 551 222 574
4 425 247 250 553
4 227 536 470 563
4 444 542 264 557
4 340 535 355 554
4 490 536 353 573
4 540 541 532 542
4 194 222 551 574
4 227 536 220 578
4 341 339 447 564
4 464 408 210 563
4 287 288 556 569
4 348 558 551 567
4 417 255 258 546
4 235 539 349 545
4 426 537 453 570
4 413 222 24 567
4 211 536 490 578
4 249 254 253 572
4 234 537 426 584
4 248 566 295 585
4 183 24 25 538
4 242 536 244 562
4 540 551 409 580
4 536 563 562 585
4 422 288 303 550
4 410 575 555 583
4 542 557 541 560
4 468 549 556 582
4 227 220 536 563
4 333 468 449 582
4 349 539 458 545
4 178 538 181 543
4 396 398 397 539
4 366 365 33 567
4 293 288 311 556
4 453 570 537 573
4 211 536 75 563
4 222 551 538 567
4 24 538 178 567
4 559 579 533 580
4 404 429 471 570
4 462 554 552 575
4 261 560 265 561
4 542 558 299 560
4 311 550 312 556
4 443 244 453 573
4 80 539 207 545
4 364 558 348 567
4 540 409 559 580
4 339 338 553 554
4 75 536 76 563
4 413 24 1 567
4 254 572 553 581
4 536 563 211 564
4 71 547 555 575
4 542 533 579 580
4 535 566 562 585
4 465 331 28 544
4 404 225 429 537
4 255 546 417 572
4 404 570 471 578
4 473 529 216 545
4 283 334 544 568
4 241 244 242 570
4 237 453 426 537
4 199 575 410 583
4 404 403 225 537
4 352 536 451 564
4 534 566 552 571
4 451 536 352 573
4 263 541 288 569
4 223 539 80 545
4 31 548 270 577
4 457 550 568 574
4 433 261 265 561
4 409 551 68 580
4 211 353 490 536
4 322 323 550 574
4 339 340 338 554
4 237 426 234 537
4 549 571 547 582
4 328 552 440 571
4 283 544 27 568
4 302 555 546 581
4 74 355 535 554
4 249 253 566 572
4 449 547 571 582
4 299 558 292 560
4 540 550 323 574
4 181 538 178 576
4 542 533 565 579
4 78 537 403 578
4 237 453 537 573
4 177 33 180 543
4 179 187 548 576
4 220 76 536 563
4 402 528 482 545
4 199 554 575 583
4 502 364 366 558
4 508 397 398 539
4 465 27 283 544
4 465 283 334 544
4 184 185 543 548
4 33 180 543 567
4 71 555 410 575
4 252 538 222 574
4 222 67 551 567
4 400 207 539 545
4 533 542 540 580
4 424 546 266 565
4 440 566 251 572
4 424 557 546 565
4 555 581 302 583
4 211 76 75 536
4 74 408 73 554
4 517 351 537 573
4 78 403 77 578
4 353 536 451 573
4 69 559 409 580
4 444 435 542 565
4 74 210 408 563
4 416 550 544 568
4 257 546 424 557
4 334 416 544 568
4 510 347 579 580
4 231 234 426 584
4 293 287 288 556
4 178 543 181 567
4 197 517 537 578
4 444 542 557 565
4 364 365 366 567
4 28 27 465 544
4 318 328 440 571
4 230 429 537 570
4 181 543 538 576
4 544 548 187 576
4 513 528 402 545
4 409 551 540 574
4 220 536 76 578
4 422 544 334 550
4 457 568 395 574
4 517 351 398 537
4 456 331 544 561
4 404 403 537 578
4 69 409 68 580
4 211 451 536 564
4 456 467 331 561
4 71 555 547 579
4 334 544 416 550
4 531 529 473 545
4 287 263 288 569
4 194 252 222 574
4 179 187 29 548
4 353 211 451 536
4 184 181 186 576
4 323 540 332 556
4 31 30 270 548
4 241 453 244 570
4 439 571 440 572
4 540 542 532 580
4 395 568 538 574
4 329 552 464 585
4 456 331 455 544
4 206 539 224 584
4 533 540 559 580
4 424 257 266 546
4 299 305 292 558
4 543 548 544 576
4 197 517 398 537
4 73 554 462 575
4 33 365 34 567
4 261 541 260 557
4 25 183 538 568
4 312 540 323 556
4 533 547 546 555
4 532 538 544 550
4 232 537 230 584
4 322 550 457 574
4 247 553 425 566
4 474 235 349 545
4 517 573 537 578
4 211 76 536 578
4 332 540 466 582
4 324 558 309 580
4 434 541 261 561
4 463 408 464 552
4 257 259 258 557
4 179 186 187 576
4 422 334 416 550
4 540 550 541 556
4 75 563 499 564
4 395 308 252 538
4 462 408 463 552
4 222 252 308 538
4 309 558 542 580
4 429 537 225 584
4 66 222 413 567
4 456 544 455 561
4 196 364 348 567
4 332 556 540 582
4 230 537 232 570
4 534 547 546 549
4 435 347 542 565
4 444 299 267 542
4 267 542 299 560
4 335 237 537 573
4 184 179 185 548
4 404 471 227 578
4 544 550 538 568
4 310 549 417 569
4 221 559 547 582
4 543 544 532 576
4 546 555 302 565
4 274 271 29 548
4 274 467 271 548
4 185 548 31 577
4 194 222 67 551
4 221 70 547 559
4 243 449 547 571
4 440 552 328 566
4 230 537 429 584
4 553 554 338 583
4 426 232 537 570
4 437 468 549 556
4 400 539 238 545
4 66 413 1 567
4 309 299 542 558
4 185 32 177 577
4 323 466 332 540
4 439 440 415 572
4 529 528 530 545
4 529 531 528 545
4 532 544 543 548
4 466 540 409 559
4 312 323 332 556
4 459 566 552 585
4 335 336 237 573
4 409 194 551 574
4 288 263 303 541
4 532 541 540 550
4 225 206 224 584
4 513 530 528 545
4 24 178 1 567
4 357 457 395 574
4 532 542 541 560
4 546 547 533 549
4 211 75 499 564
4 540 541 533 556
4 176 568 544 576
4 398 351 335 537
4 319 555 302 583
4 310 417 262 569
4 258 557 259 569
4 217 362 223 545
4 260 258 259 569
4 233 539 234 584
4 457 550 416 568
4 243 294 449 571
4 322 457 357 574
4 70 547 559 579
4 352 451 448 564
4 71 412 555 579
4 333 437 468 549
4 211 563 75 564
4 283 291 334 568
4 482 528 531 545
4 247 425 249 566
4 324 309 346 580
4 328 552 459 566
4 437 556 549 569
4 538 568 550 574
4 335 537 351 573
4 349 233 458 539
4 422 455 334 544
4 253 251 566 572
4 227 470 361 563
4 243 289 571 575
4 437 287 556 569
4 262 417 258 569
4 529 401 216 545
4 230 239 429 570
4 395 538 252 574
4 289 552 304 571
4 399 80 207 545
4 302 266 301 546
4 260 259 557 569
4 533 555 546 565
4 301 302 546 581
4 243 571 547 575
4 507 458 363 545
4 227 220 193 578
4 211 490 76 578
4 258 255 257 546
4 311 322 312 550
4 546 547 534 555
4 409 540 358 574
4 269 560 548 561
4 466 540 559 582
4 260 557 541 569
4 220 75 76 563
4 28 187 27 544
4 552 571 289 575
4 224 362 228 539
4 328 459 432 566
4 79 207 80 539
4 176 544 187 576
4 183 178 24 538
4 538 543 178 567
4 224 223 362 539
4 33 34 180 567
4 31 394 32 577
4 309 305 299 558
4 532 538 550 574
4 309 542 347 580
4 551 558 543 567
4 321 339 338 553
4 207 79 396 539
4 444 330 435 565
4 547 555 533 579
4 27 544 176 568
4 31 185 30 548
4 185 177 543 577
4 467 269 548 561
4 249 253 251 566
4 538 532 544 576
4 79 80 223 539
4 303 541 434 561
4 401 529 530 545
4 247 245 250 562
4 71 412 410 555
4 540 532 551 580
4 458 229 228 539
4 553 566 534 572
4 70 71 547 579
4 415 440 251 572
4 437 310 287 569
4 400 399 207 545
4 444 557 330 565
4 433 434 261 561
4 501 400 238 545
4 74 525 355 554
4 354 355 340 564
4 473 205 531 545
4 176 27 187 544
4 184 543 181 576
4 437 549 310 569
4 425 250 445 553
4 452 31 270 577
4 266 546 302 565
4 231 232 230 584
4 206 223 224 539
4 467 433 269 561
4 532 543 538 551
4 236 234 235 539
4 533 555 565 579
4 199 410 411 583
4 439 549 571 572
4 233 235 234 539
4 474 501 238 545
4 543 551 532 558
4 261 260 259 557
4 206 79 223 539
4 261 434 260 541
4 507 349 458 545
4 354 499 355 564
4 209 466 409 559
4 541 542 533 557
4 458 233 229 539
4 32 185 31 577
4 532 542 558 580
4 180 178 181 567
4 551 558 348 580
4 395 337 25 568
4 301 546 266 581
4 482 531 205 545
4 334 291 416 568
4 358 409 466 540
4 546 533 557 569
4 410 555 411 583
4 525 74 73 554
4 217 223 80 545
4 442 250 245 562
4 320 565 555 579
4 422 311 288 550
4 309 347 346 580
4 425 553 249 566
4 263 434 303 541
4 538 551 543 567
4 317 524 32 577
4 239 471 429 570
4 543 548 185 577
4 293 311 312 556
4 409 358 194 574
4 292 560 558 577
4 243 547 449 582
4 70 71 221 547
4 432 295 566 585
4 402 482 526 545
4 532 558 551 580
4 349 235 233 539
4 321 553 338 583
4 227 361 220 563
4 224 539 228 584
4 452 394 31 577
4 534 549 546 572
4 465 455 331 544
4 29 271 30 548
4 513 81 530 545
4 270 548 268 577
4 237 336 453 573
4 353 451 352 573
4 432 566 459 585
4 222 413 24 308
4 199 72 410 575
4 424 266 330 565
4 409 194 68 551
4 270 269 268 548
4 207 396 397 539
4 547 549 534 571
4 329 459 552 585
4 260 541 263 569
4 302 555 320 565
4 67 511 551 567
4 526 363 362 545
4 324 348 558 580
4 544 568 538 576
4 268 548 269 560
4 532 550 540 574
4 541 532 560 561
4 358 466 323 540
4 322 416 457 550
4 535 553 552 554
4 185 177 184 543
4 243 547 195 575
4 473 522 205 545
4 437 287 293 556
4 289 463 552 575
4 310 417 549 572
4 180 181 543 567
4 221 209 559 582
4 241 242 240 570
4 552 553 535 566
4 72 199 73 575
4 340 486 338 554
4 425 254 249 553
4 294 243 289 571
4 532 541 550 561
4 553 572 534 581
4 229 228 539 584
4 466 559 209 582
4 552 553 534 554
4 260 434 263 541
4 265 264 267 560
4 462 552 463 575
4 439 415 549 572
4 32 394 317 577
4 329 463 464 552
4 358 540 323 574
4 546 549 533 569
4 245 244 442 562
4 532 540 551 574
4 534 553 552 566
4 30 271 270 548
4 199 554 73 575
4 233 229 539 584
4 310 549 415 572
4 303 456 455 561
4 255 546 572 581
4 354 340 341 564
4 267 299 292 560
4 444 435 299 542
4 444 424 330 557
4 512 530 81 545
4 470 469 361 563
4 530 512 401 545
4 448 447 442 564
4 243 195 289 575
4 548 560 268 577
4 407 395 25 308
4 538 543 532 576
4 28 29 331 277
4 544 548 532 561
4 310 439 415 549
4 470 469 563 585
4 555 575 534 583
4 532 558 542 560
4 333 449 294 571
4 255 256 546 581
4 397 400 207 539
4 532 548 543 577
4 255 572 254 581
4 205 507 482 545
4 426 453 241 570
4 363 526 482 545
4 334 455 465 544
4 197 490 517 578
4 540 556 533 582
4 540 533 559 582
4 322 357 323 574
4 283 27 291 568
4 410 72 71 575
4 328 329 459 552
4 195 547 71 575
4 289 462 463 575
4 309 435 347 542
4 547 533 559 579
4 304 289 463 552
4 532 550 544 561
4 432 459 295 585
4 226 224 228 584
4 439 318 440 571
4 532 551 538 574
4 424 330 557 565
4 533 547 559 582
4 256 257 255 546
4 532 560 548 577
4 292 558 305 577
4 486 554 199 583
4 436 302 320 565
4 221 547 243 582
4 310 415 417 572
4 440 328 432 566
4 324 346 348 580
4 552 566 535 585
4 541 533 556 569
4 29 30 179 548
4 67 196 511 567
4 317 394 32 524
4 533 556 549 582
4 533 549 547 582
4 546 557 533 565
4 363 482 507 545
4 490 573 517 578
4 221 209 70 559
4 410 412 493 555
4 464 563 469 585
4 432 295 248 566
4 499 75 74 563
4 291 27 26 568
4 511 551 348 580
4 404 227 193 578
4 230 232 239 570
4 257 424 259 557
4 233 234 231 584
4 295 438 562 585
4 226 225 224 584
4 533 557 542 565
4 321 445 339 553
4 256 266 546 581
4 329 464 469 585
4 220 76 193 578
4 526 217 402 545
4 513 402 217 545
4 435 436 347 565
4 68 551 511 580
4 320 302 319 555
4 407 25 395 337
4 439 549 333 571
4 239 314 471 570
4 464 361 469 563
4 534 555 547 575
4 534 571 549 572
4 261 259 264 557
4 195 221 71 547
4 397 238 400 539
4 269 270 271 548
4 247 246 245 562
4 270 31 452 281
4 335 351 336 573
4 526 362 217 545
4 195 243 221 547
4 185 179 30 548
4 256 266 257 546
4 238 236 235 539
4 266 302 330 565
4 216 474 473 545
4 309 299 435 542
4 245 242 244 562
4 356 221 243 582
4 247 249 248 566
4 198 579 559 580
4 399 501 401 545
4 238 508 236 539
4 411 486 199 583
4 295 438 246 562
4 501 399 400 545
4 354 211 499 564
4 331 29 274 277
4 255 254 256 581
4 226 429 225 584
4 510 346 347 580
4 532 543 558 577
4 26 27 291 290
4 320 454 565 579
4 181 184 177 543
4 294 289 304 571
4 332 468 556 582
4 271 467 269 548
4 548 560 532 561
4 340 355 486 554
4 532 558 560 577
4 395 252 357 574
4 70 412 71 579
4 291 457 416 568
4 305 558 317 577
4 439 437 333 549
4 255 253 254 572
4 554 534 575 583
4 205 522 507 545
4 69 209 409 559
4 303 434 456 561
4 546 555 534 581
4 436 320 454 565
4 549 556 533 569
4 260 262 258 569
4 25 337 26 568
4 197 77 490 578
4 332 449 468 582
4 541 557 533 569
4 538 568 183 576
4 425 472 254 553
4 472 254 553 581
4 364 196 365 567
4 222 66 67 567
4 27 291 290 283
4 356 466 209 582
4 331 465 28 277
4 262 287 310 569
4 253 415 251 572
4 221 356 209 582
4 467 456 433 561
4 295 460 438 585
4 493 411 410 555
4 437 293 468 556
4 512 81 399 545
4 238 397 508 539
4 412 493 555 579
4 507 522 349 545
4 216 401 501 545
4 512 399 401 545
4 256 301 266 581
4 292 305 317 577
4 198 510 579 580
4 72 73 462 575
4 474 522 473 545
4 268 269 265 560
4 534 571 552 575
4 305 502 317 558
4 338 554 486 583
4 321 581 553 583
4 216 501 474 545
4 309 324 305 558
4 475 68 511 580
4 454 347 565 579
4 321 301 581 583
4 399 81 80 545
4 513 217 81 545
4 439 310 437 549
4 69 68 475 580
4 452 270 268 577
4 181 177 180 543
4 81 217 80 545
4 260 263 262 569
4 324 348 364 558
4 552 554 534 575
4 416 311 422 550
4 194 67 68 551
4 472 553 321 581
4 356 243 449 582
4 452 317 394 577
4 424 444 264 557
4 336 443 453 573
4 426 241 232 570
4 474 349 522 545
4 411 555 320 583
4 404 193 403 578
4 470 460 469 585
4 448 341 447 564
4 31 452 281 394
4 464 210 361 563
4 416 322 311 550
4 229 226 228 584
4 534 581 555 583
4 72 195 71 575
4 490 353 517 573
4 74 75 210 563
4 454 347 436 565
4 547 571 534 575
4 292 268 560 577
4 319 320 555 583
4 440 432 251 566
4 332 468 312 556
4 30 31 270 272
4 239 240 314 570
4 332 466 356 582
4 435 330 436 565
4 457 337 395 568
4 475 511 348 580
4 25 26 183 568
4 439 333 318 571
4 562 563 536 564
4 433 456 434 561
4 287 262 263 569
4 211 354 451 564
4 535 563 562 564
4 198 559 69 580
4 27 176 26 568
4 226 230 429 584
4 186 181 182 576
4 321 319 301 583
4 472 445 321 553
4 400 399 501 401
4 233 231 229 584
4 357 358 323 574
4 26 337 291 568
4 34 365 491 567
4 546 534 572 581
4 438 242 246 562
4 31 270 272 281
4 355 525 486 554
4 268 267 292 560
4 480 17 44 188
4 411 493 320 555
4 528 482 54 402
4 534 554 553 583
4 368 33 32 524
4 328 304 329 552
4 302 436 330 565
4 253 255 417 572
4 304 463 329 552
4 459 329 469 585
4 318 294 304 571
4 67 511 68 551
4 319 411 320 583
4 537 573 570 578
4 425 445 472 553
4 525 73 199 554
4 220 210 75 563
4 28 27 279 465
4 290 291 26 337
4 220 361 210 563
4 43 16 480 188
4 424 264 259 557
4 570 573 536 578
4 293 312 468 556
4 24 25 308 414
4 562 563 535 585
4 242 245 246 562
4 358 252 194 574
4 176 183 568 576
4 101 103 298 102
4 84 97 284 282
4 103 101 298 296
4 34 491 1 567
4 472 321 301 581
4 57 216 473 529
4 77 403 193 578
4 411 338 486 583
4 336 352 443 573
4 465 27 279 283
4 448 451 341 564
4 26 176 183 568
4 324 364 502 558
4 1 178 180 567
4 326 114 107 144
4 475 198 69 580
4 308 25 407 414
4 268 265 267 560
4 491 365 196 567
4 249 251 248 566
4 292 452 268 577
4 97 141 84 284
4 198 70 559 579
4 119 125 124 431
4 307 298 102 100
4 253 417 415 572
4 2 4 0 192
4 0 4 2 191
4 282 284 84 280
4 101 298 297 100
4 209 69 70 559
4 272 270 30 271
4 333 294 318 571
4 332 356 449 582
4 480 86 17 188
4 296 298 103 428
4 525 199 486 554
4 454 510 347 579
4 457 291 337 568
4 110 379 386 111
4 66 1 491 567
4 164 413 65 200
4 431 125 124 392
4 110 386 379 385
4 534 553 581 583
4 26 25 406 337
4 428 298 103 102
4 273 271 29 274
4 171 192 4 518
4 413 65 1 164
4 66 196 67 567
4 77 76 490 578
4 195 462 289 575
4 451 354 341 564
4 472 256 254 581
4 298 307 306 100
4 26 97 405 89
4 29 30 271 273
4 145 103 148 428
4 120 121 344 122
4 326 105 106 107
4 1 180 34 567
4 16 86 480 188
4 44 43 480 188
4 53 513 528 402
4 48 151 503 189
4 348 346 475 580
4 100 306 446 120
4 344 307 121 120
4 96 154 167 489
4 284 297 405 98
4 97 141 405 98
4 114 326 481 144
4 101 297 296 284
4 406 25 407 337
4 284 141 84 280
4 325 105 145 300
4 431 119 375 373
4 119 118 375 373
4 315 99 159 133
4 176 182 183 576
4 159 359 315 133
4 306 297 298 100
4 240 232 241 570
4 529 58 216 401
4 100 102 307 120
4 515 4 170 191
4 133 359 414 164
4 358 357 252 574
4 176 187 186 576
4 405 141 284 98
4 110 112 379 111
4 406 26 405 89
4 531 482 54 528
4 103 145 105 300
4 122 419 344 158
4 251 432 248 566
4 307 306 100 120
4 214 17 44 480
4 100 306 98 99
4 373 118 374 371
4 151 48 20 189
4 473 531 57 529
4 240 239 232 570
4 450 386 379 111
4 112 450 379 111
4 58 529 530 401
4 517 353 351 573
4 479 343 149 161
4 164 359 414 200
4 307 343 344 121
4 121 343 344 122
4 342 428 148 102
4 82 360 137 212
4 63 7 8 137
4 480 16 43 201
4 373 372 126 371
4 141 97 405 284
4 324 502 305 558
4 104 141 296 286
4 29 28 127 277
4 137 63 7 212
4 297 101 141 284
4 510 475 346 580
4 55 482 531 205
4 306 307 446 120
4 114 105 326 107
4 137 8 63 418
4 369 136 33 367
4 491 196 66 567
4 137 140 360 82
4 306 313 98 99
4 122 121 343 161
4 394 31 32 497
4 136 381 34 367
4 381 163 521 136
4 218 95 152 487
4 169 516 495 113
4 69 198 70 559
4 118 135 374 371
4 413 1 24 164
4 163 65 1 491
4 229 231 230 584
4 27 97 282 290
4 495 516 285 113
4 195 72 462 575
4 81 530 3 513
4 296 103 104 300
4 90 136 33 369
4 315 100 306 140
4 326 105 114 325
4 370 430 134 135
4 131 157 384 393
4 111 494 488 142
4 374 375 116 118
4 104 141 101 296
4 524 368 33 366
4 117 430 374 135
4 94 137 159 418
4 205 531 56 473
4 117 374 376 116
4 152 155 95 218
4 296 141 101 284
4 360 159 137 418
4 100 446 306 140
4 94 159 359 418
4 98 101 297 100
4 343 506 122 161
4 374 375 376 116
4 319 321 338 583
4 90 370 134 135
4 128 126 124 377
4 99 315 327 133
4 54 55 482 531
4 115 376 380 116
4 117 147 430 135
4 327 315 359 133
4 418 63 137 212
4 119 129 431 382
4 515 60 4 191
4 285 275 495 127
4 102 298 101 100
4 95 139 152 487
4 126 172 135 371
4 98 313 405 89
4 127 275 29 277
4 164 65 9 200
4 96 4 170 515
4 298 428 342 102
4 497 31 32 134
4 21 50 92 208
4 428 103 148 102
4 98 405 97 89
4 167 154 213 489
4 116 117 374 118
4 327 414 25 133
4 97 27 26 290
4 297 306 313 98
4 159 360 359 418
4 136 34 33 367
4 198 412 70 579
4 475 510 198 580
4 431 377 124 373
4 352 351 353 573
4 387 388 110 109
4 297 306 98 100
4 513 530 53 528
4 33 366 367 365
4 99 100 306 315
4 89 406 25 327
4 367 34 33 365
4 459 460 295 585
4 94 9 64 200
4 101 103 104 296
4 201 481 480 175
4 94 164 9 200
4 193 76 77 578
4 307 342 121 102
4 284 296 141 286
4 124 377 431 392
4 167 421 96 489
4 93 521 163 136
4 488 386 494 111
4 172 126 372 371
4 84 278 28 279
4 428 148 145 345
4 531 57 56 473
4 158 122 419 138
4 60 4 2 192
4 2 4 60 191
4 50 22 21 92
4 405 97 26 290
4 163 504 65 491
4 485 92 152 476
4 343 342 461 121
4 430 374 378 117
4 412 454 493 579
4 370 430 135 371
4 387 110 386 111
4 385 110 386 387
4 97 405 282 290
4 147 430 378 117
4 141 284 286 280
4 367 369 136 441
4 226 229 230 584
4 99 313 89 327
4 1 34 163 491
4 315 306 446 140
4 352 336 351 573
4 290 26 405 406
4 134 520 31 85
4 483 146 168 350
4 377 124 128 391
4 497 520 31 134
4 106 423 132 104
4 369 90 172 371
4 368 32 394 524
4 450 112 115 111
4 414 25 407 327
4 343 506 344 122
4 104 106 423 316
4 106 105 326 316
4 450 494 386 111
4 152 129 92 485
4 114 145 350 325
4 5 4 60 95
4 135 90 370 371
4 32 370 90 368
4 344 421 419 122
4 17 214 86 480
4 431 485 125 392
4 480 86 16 201
4 315 99 100 140
4 89 99 327 133
4 300 104 296 286
4 36 11 10 154
4 64 8 94 418
4 418 94 64 200
4 145 103 345 300
4 60 4 192 518
4 33 90 369 368
4 9 8 64 93
4 127 423 278 132
4 386 488 387 111
4 84 132 278 280
4 279 278 28 277
4 284 141 297 98
4 64 8 9 94
4 82 419 360 212
4 479 343 461 149
4 4 0 192 171
4 4 0 170 191
4 164 133 359 94
4 472 301 256 581
4 112 378 376 117
4 203 64 8 93
4 375 119 431 382
4 140 419 360 82
4 345 483 168 350
4 394 281 31 497
4 378 376 379 112
4 164 24 413 200
4 465 279 28 277
4 376 380 450 115
4 140 158 419 82
4 286 104 423 316
4 292 317 452 577
4 126 124 377 373
4 127 285 278 113
4 367 381 34 365
4 162 93 521 390
4 124 126 118 373
4 414 24 25 133
4 90 33 32 368
4 491 34 163 381
4 319 338 411 583
4 512 59 530 401
4 127 28 278 277
4 478 494 202 156
4 497 32 370 134
4 115 112 376 116
4 172 372 369 371
4 406 407 25 327
4 496 109 498 144
4 313 406 405 89
4 148 168 145 345
4 136 93 521 162
4 359 164 94 200
4 121 342 148 102
4 389 520 497 134
4 112 376 450 115
4 105 104 103 300
4 145 114 105 325
4 130 131 276 393
4 111 387 110 109
4 480 86 201 175
4 388 110 385 387
4 369 90 370 368
4 145 103 428 345
4 278 275 127 277
4 134 389 520 85
4 97 405 284 282
4 11 36 213 154
4 59 58 530 401
4 494 450 123 111
4 201 16 42 153
4 50 21 49 208
4 5 96 138 219
4 375 380 376 116
4 286 132 141 280
4 459 469 460 585
4 388 108 110 109
4 104 423 132 286
4 95 171 4 518
4 285 495 130 127
4 218 152 155 477
4 342 307 298 102
4 149 479 161 91
4 145 345 325 300
4 202 19 46 156
4 118 375 116 119
4 9 1 65 164
4 9 65 1 163
4 53 3 530 513
4 370 394 32 497
4 345 103 428 300
4 478 46 18 156
4 186 182 176 576
4 115 123 450 111
4 23 22 51 155
4 285 423 278 113
4 139 152 487 477
4 297 298 101 296
4 313 99 315 327
4 95 4 60 518
4 30 31 272 520
4 405 297 313 98
4 149 461 342 121
4 10 36 154 489
4 297 141 101 98
4 120 344 446 158
4 273 30 272 276
4 123 494 111 142
4 25 89 327 133
4 308 413 24 414
4 285 130 495 113
4 12 38 190 160
4 16 42 43 201
4 368 369 33 367
4 174 128 124 391
4 8 137 94 418
4 64 9 65 200
4 90 135 172 371
4 102 121 307 120
4 384 389 147 131
4 65 9 504 163
4 63 62 7 212
4 135 374 117 118
4 143 151 527 382
4 290 282 27 283
4 201 86 16 153
4 128 93 162 390
4 523 204 13 160
4 119 375 143 382
4 203 8 63 166
4 127 278 423 113
4 103 296 428 300
4 92 151 21 208
4 275 274 29 277
4 384 389 131 276
4 149 343 461 121
4 366 368 33 367
4 276 495 130 393
4 167 213 421 489
4 300 105 104 316
4 414 413 24 200
4 190 38 523 160
4 374 375 118 373
4 387 109 498 496
4 30 31 520 85
4 278 127 132 84
4 369 370 90 371
4 45 17 44 214
4 13 39 204 523
4 343 307 342 121
4 155 51 23 218
4 149 342 148 121
4 384 389 378 147
4 414 24 133 164
4 16 15 42 153
4 377 128 126 390
4 275 130 495 127
4 63 64 8 203
4 487 152 218 477
4 406 25 26 89
4 85 272 30 276
4 131 389 85 276
4 491 163 504 381
4 4 96 219 515
4 86 214 150 498
4 125 129 152 485
4 92 485 208 476
4 21 49 503 189
4 124 125 174 392
4 306 313 99 315
4 198 454 412 579
4 13 39 40 204
4 515 2 60 191
4 147 389 430 134
4 478 202 46 156
4 523 461 204 160
4 50 22 92 476
4 18 45 46 478
4 60 5 95 487
4 127 278 28 84
4 114 481 175 144
4 481 500 326 114
4 315 360 359 159
4 418 137 360 212
4 143 151 129 527
4 278 84 280 279
4 201 500 153 509
4 164 414 24 200
4 32 370 134 90
4 214 142 150 498
4 19 46 47 202
4 111 488 387 142
4 375 143 116 119
4 376 450 379 112
4 134 147 389 85
4 495 130 169 113
4 30 273 130 276
4 89 313 406 327
4 122 421 419 138
4 11 36 37 213
4 374 376 378 117
4 37 12 11 91
4 461 479 149 160
4 477 152 155 476
4 282 84 27 279
4 307 344 446 120
4 84 282 280 279
4 27 282 279 283
4 86 480 481 175
4 162 172 372 441
4 82 7 62 212
4 130 285 127 113
4 418 359 94 200
4 106 427 326 107
4 446 100 120 140
4 168 87 204 149
4 135 430 374 371
4 479 149 160 91
4 441 372 162 390
4 132 423 278 280
4 85 147 389 131
4 129 92 208 527
4 527 129 143 382
4 126 377 372 373
4 37 38 12 479
4 155 22 51 476
4 143 380 375 116
4 213 37 11 91
4 38 12 479 160
4 286 300 104 316
4 130 85 30 276
4 219 96 421 489
4 274 29 273 275
4 512 530 3 81
4 88 48 20 151
4 156 202 19 88
4 367 136 381 441
4 344 419 446 158
4 130 169 131 393
4 478 123 156 150
4 327 359 414 133
4 96 5 4 219
4 325 326 105 316
4 136 90 172 369
4 158 419 446 140
4 503 49 48 189
4 149 204 461 160
4 7 62 484 83
4 527 151 383 382
4 406 290 26 337
4 379 157 110 385
4 492 168 204 149
4 129 485 431 382
4 219 138 5 420
4 497 430 389 134
4 342 148 492 149
4 480 498 86 481
4 423 127 113 132
4 198 510 454 579
4 523 38 479 160
4 520 272 30 85
4 52 23 51 218
4 153 500 146 509
4 413 1 65 66
4 481 498 86 144
4 528 54 53 402
4 139 95 5 487
4 376 112 117 116
4 156 123 202 88
4 271 30 272 273
4 503 151 21 189
4 92 22 155 476
4 8 64 63 418
4 128 377 391 390
4 170 0 10 191
4 192 0 23 171
4 18 46 19 156
4 92 129 151 527
4 203 8 166 93
4 208 151 21 503
4 36 10 35 489
4 521 381 136 441
4 504 9 64 93
4 97 84 27 282
4 498 86 214 480
4 214 45 17 150
4 153 146 500 175
4 208 21 49 503
4 387 111 142 109
4 87 204 149 160
4 34 163 381 136
4 12 37 479 91
4 109 387 388 496
4 479 461 523 160
4 419 360 446 140
4 208 50 92 476
4 87 13 40 204
4 145 146 114 350
4 192 2 60 518
4 485 152 125 477
4 170 35 10 489
4 60 95 518 487
4 134 430 147 135
4 169 495 516 393
4 521 136 162 441
4 123 202 494 156
4 28 27 84 279
4 477 485 152 476
4 10 35 170 191
4 192 23 52 171
4 388 108 109 496
4 204 87 13 160
4 83 174 139 519
4 105 106 104 316
4 143 375 380 382
4 214 488 478 150
4 519 139 487 477
4 151 383 48 503
4 192 52 2 518
4 121 149 343 161
4 169 130 495 393
4 107 109 496 144
4 369 172 136 441
4 88 383 48 151
4 130 273 29 275
4 514 19 202 88
4 18 45 478 150
4 276 131 384 393
4 154 170 10 489
4 174 83 391 519
4 108 427 106 107
4 157 379 384 385
4 152 139 125 477
4 108 109 496 107
4 163 521 504 381
4 129 119 143 382
4 23 52 171 218
4 379 378 112 157
4 148 428 492 345
4 138 96 421 219
4 62 7 6 83
4 372 126 162 390
4 36 213 154 489
4 520 31 272 281
4 106 326 427 316
4 494 478 123 156
4 147 378 384 157
4 143 115 380 116
4 106 427 423 316
4 208 92 151 527
4 157 112 379 110
4 151 20 21 189
4 128 203 484 166
4 132 84 141 280
4 109 142 498 144
4 343 479 506 161
4 300 325 105 316
4 86 150 142 498
4 215 139 5 487
4 166 128 203 93
4 151 143 383 382
4 22 50 51 476
4 89 98 313 99
4 45 18 17 150
4 155 23 171 218
4 64 203 504 93
4 13 39 523 190
4 215 62 6 83
4 391 83 215 519
4 117 112 378 157
4 5 60 61 487
4 514 383 48 88
4 6 5 138 420
4 133 159 359 94
4 481 496 498 144
4 483 168 492 345
4 212 62 82 420
4 109 142 387 498
4 427 108 496 107
4 62 215 484 83
4 175 481 86 144
4 11 213 91 154
4 153 201 86 175
4 86 16 17 188
4 66 1 65 491
4 509 500 146 350
4 202 47 19 514
4 129 92 485 208
4 20 19 47 88
4 344 120 122 158
4 498 142 86 144
4 372 377 126 390
4 14 13 40 87
4 515 170 35 191
4 168 148 492 345
4 441 162 521 390
4 170 35 489 515
4 214 478 45 150
4 85 520 272 276
4 93 203 521 390
4 83 128 174 391
4 492 204 168 483
4 141 104 132 286
4 32 394 370 368
4 155 218 477 476
4 389 430 378 147
4 219 5 61 420
4 190 523 13 160
4 497 370 430 134
4 82 137 7 212
4 515 35 2 191
4 315 446 360 140
4 7 62 63 484
4 173 14 41 483
4 427 516 108 113
4 163 9 504 93
4 215 5 61 487
4 461 342 492 149
4 91 506 161 167
4 92 155 152 476
4 165 202 123 88
4 142 214 488 498
4 150 17 214 86
4 57 58 216 529
4 83 139 215 519
4 114 500 326 325
4 213 506 91 167
4 15 42 153 509
4 384 147 157 131
4 37 213 479 91
4 523 39 38 190
4 122 506 421 167
4 5 6 139 215
4 93 128 203 390
4 153 500 201 175
4 504 521 163 93
4 168 87 146 483
4 29 30 273 130
4 65 9 64 504
4 484 63 7 166
4 113 427 423 106
4 461 492 204 149
4 162 172 126 372
4 360 315 140 159
4 18 478 156 150
4 392 485 125 477
4 83 128 484 166
4 421 138 219 420
4 369 372 172 441
4 218 155 51 476
4 60 4 5 219
4 489 96 170 515
4 519 125 139 477
4 167 96 421 138
4 506 213 421 167
4 378 379 384 157
4 128 484 203 390
4 484 128 83 391
4 63 484 203 166
4 52 171 218 518
4 52 192 171 518
4 145 345 350 325
4 202 505 514 88
4 153 42 201 509
4 158 446 120 140
4 278 275 285 127
4 514 20 47 88
4 488 214 142 150
4 14 40 41 483
4 138 421 419 420
4 60 4 219 515
4 131 85 130 276
4 12 479 160 91
4 5 6 61 420
4 87 168 204 483
4 128 162 126 390
4 505 202 165 88
4 83 215 484 391
4 15 14 41 173
4 275 29 130 127
4 154 96 170 489
4 169 388 108 110
4 496 326 427 107
4 484 128 391 390
4 484 7 83 166
4 130 495 273 275
4 114 481 500 175
4 146 114 500 175
4 505 202 123 165
4 421 344 506 122
4 6 5 61 215
4 285 427 423 113
4 506 122 161 167
4 62 6 7 82
4 286 423 132 280
4 514 47 19 88
4 208 485 129 527
4 169 108 516 113
4 450 505 123 115
4 492 428 148 342
4 148 168 492 149
4 381 491 34 365
4 87 173 146 483
4 161 479 506 91
4 6 139 215 83
4 6 62 61 420
4 85 389 520 276
4 173 15 153 509
4 505 494 450 123
4 514 48 20 88
4 20 47 48 514
4 62 6 82 420
4 63 8 7 166
4 143 383 165 151
4 142 488 387 498
4 505 450 380 115
4 202 494 505 123
4 61 62 6 215
4 380 383 143 382
4 388 516 108 427
4 519 174 125 392
4 213 506 479 91
4 516 427 285 113
4 212 82 419 420
4 496 388 108 427
4 350 500 114 325
4 273 495 130 276
4 140 315 99 159
4 6 138 82 420
4 56 55 531 205
4 378 147 117 157
4 419 158 138 82
4 154 213 91 167
4 125 519 392 477
4 483 173 146 509
4 171 95 155 218
4 489 219 96 515
4 146 500 114 350
4 380 383 165 143
4 281 520 31 497
4 87 40 14 483
4 108 427 113 106
4 169 516 388 393
4 82 138 419 420
4 380 383 505 165
4 509 146 483 350
4 61 60 5 219
4 108 516 388 169
4 159 140 360 137
4 151 208 527 503
4 519 391 174 392
4 204 40 87 483
4 132 113 423 106
4 173 153 146 509
4 14 173 87 483
4 485 129 527 382
4 483 41 173 509
4 88 165 383 151
4 521 504 203 93
4 172 162 136 441
4 421 122 167 138
4 481 201 500 175
4 190 13 12 160
4 42 15 41 509
4 530 3 59 512
4 115 380 505 165
4 173 41 15 509
4 139 174 125 519
4 487 215 139 519
4 171 95 218 518
4 165 115 380 143
4 505 123 115 165
4 383 151 527 503
4 95 218 518 487
4 250 564 442 447
4 442 564 250 562
4 577 177 524 32
4 577 524 177 543
4 33 524 177 32
4 33 177 524 543
4 564 443 352 536
4 564 352 443 448
4 582 333 571 449
4 582 571 333 549
4 545 235 238 474
4 545 238 235 539
4 578 78 197 77
4 578 197 78 537
4 426 584 232 231
4 232 584 426 537
4 524 558 317 502
4 317 558 524 577
4 178 576 183 182
4 183 576 178 538
4 571 328 304 318
4 571 304 328 552
4 265 561 269 433
4 269 561 265 560
4 585 438 314 460
4 585 314 438 562
4 567 511 348 196
4 567 348 511 551
4 579 320 493 555
4 579 493 320 454
4 583 301 302 319
4 583 302 301 581
4 157 385 393 110
4 393 385 157 384
4 144 326 496 107
4 144 496 326 481
4 119 373 124 118
4 124 373 119 431
4 168 350 145 345
4 145 350 168 146
4 118 371 126 135
4 126 371 118 373
4 169 157 393 110
4 169 393 157 131
4 129 431 125 119
4 125 431 129 485
4 142 494 150 123
4 142 150 494 488
4 478 150 494 123
4 478 494 150 488
4 393 110 388 169
4 393 388 110 385
4 391 124 392 377
4 391 392 124 174
4 88 505 383 165
4 88 383 505 514

CELL_TYPES 2950
1
1
1
1
3
3
3
3
3
3
3
3
3
3
3
3
3
3
3
3
3
3
3
3
3
3
3
3
3
3
3
3
3
3
3
3
3
3
3
3
3
3
3
3
3
3
3
3
3
3
3
3
3
3
3
3
3
3
3
3
3
3
3
3
3
3
3
3
3
3
3
3
3
3
3
3
3
3
3
3
3
3
3
3
3
3
3
3
5
5
5
5
5
5
5
5
5
5
5
5
5
5
5
5
5
5
5
5
5
5
5
5
5
5
5
5
5
5
5
5
5
5
5
5
5
5
5
5
5
5
5
5
5
5
5
5
5
5
5
5
5
5
5
5
5
5
5
5
5
5
5
5
5
5
5
5
5
5
5
5
5
5
5
5
5
5
5
5
5
5
5
5
5
5
5
5
5
5
5
5
5
5
5
5
5
5
5
5
5
5
5
5
5
5
5
5
5
5
5
5
5
5
5
5
5
5
5
5
5
5
5
5
5
5
5
5
5
5
5
5
5
5
5
5
5
5
5
5
5
5
5
5
5
5
5
5
5
5
5
5
5
5
5
5
5
5
5
5
5
5
5
5
5
5
5
5
5
5
5
5
5
5
5
5
5
5
5
5
5
5
5
5
5
5
5
5
5
5
5
5
5
5
5
5
5
5
5
5
5
5
5
5
5
5
5
5
5
5
5
5
5
5
5
5
5
5
5
5
5
5
5
5
5
5
5
5
5
5
5
5
5
5
5
5
5
5
5
5
5
5
5
5
5
5
5
5
5
5
5
5
5
5
5
5
5
5
5
5
5
5
5
5
5
5
5
5
5
5
5
5
5
5
5
5
5
5
5
5
5
5
5
5
5
5
5
5
5
5
5
5
5
5
5
5
5
5
5
5
5
5
5
5
5
5
5
5
5
5
5
5
5
5
5
5
5
5
5
5
5
5
5
5
5
5
5
5
5
5
5
5
5
5
5
5
5
5
5
5
5
5
5
5
5
5
5
5
5
5
5
5
5
5
5
5
5
5
5
5
5
5
5
5
5
5
5
5
5
5
5
5
5
5
5
5
5
5
5
5
5
5
5
5
5
5
5
5
5
5
5
5
5
5
5
5
5
5
5
5
5
5
5
5
5
5
5
5
5
5
5
5
5
5
5
5
5
5
5
5
5
5
5
5
5
5
5
5
5
5
5
5
5
5
5
5
5
5
5
5
5
5
5
5
5
5
5
5
5
5
5
5
5
5
5
5
5
5
5
5
5
5
5
5
5
5
5
5
5
5
5
5
5
5
5
5
5
5
5
5
5
5
5
5
5
5
5
5
5
5
5
5
5
5
5
5
5
5
5
5
5
5
5
5
5
5
5
5
5
5
5
5
5
5
5
5
5
5
5
5
5
5
5
5
5
5
5
5
5
5
5
5
5
5
5
5
5
5
5
5
5
5
5
5
5
5
5
5
5
5
5
5
5
5
5
5
5
5
5
5
5
5
5
5
5
5
5
5
5
5
5
5
5
5
5
5
5
5
5
5
5
5
5
5
5
5
5
5
5
5
5
5
5
5
5
5
5
5
5
5
5
5
5
5
5
5
5
5
5
5
5
5
5
5
5
5
5
5
5
5
5
5
5
5
5
5
5
5
5
5
5
5
5
5
5
5
5
5
5
5
5
5
5
5
5
5
5
5
5
5
5
5
5
5
5
5
5
5
5
5
5
5
5
5
5
5
5
5
5
5
5
5
5
5
5
5
5
5
5
5
5
5
5
5
5
5
5
5
5
5
5
5
5
5
5
5
5
5
5
5
5
5
5
5
5
5
5
5
5
5
5
5
5
5
5
5
5
5
5
5
5
5
5
5
5
5
5
5
5
5
5
5
5
5
5
5
5
5
5
5
5
5
5
5
5
5
5
5
5
5
5
5
5
5
5
5
5
5
5
5
5
5
5
5
5
5
5
5
5
5
5
5
5
5
5
5
5
5
5
5
5
5
5
5
5
5
5
5
5
5
5
5
5
5
5
5
5
5
5
5
5
5
5
5
5
5
5
5
5
5
5
5
5
5
5
5
5
5
5
5
5
5
5
5
5
5
5
5
5
5
5
5
5
5
5
5
5
5
5
5
5
5
5
5
5
5
5
5
5
5
5
5
5
5
5
5
5
5
5
5
5
5
5
5
5
5
5
5
5
5
5
5
5
5
5
5
5
5
5
5
5
5
5
5
5
5
5
5
5
5
5
5
5
5
5
5
5
5
5
5
5
5
5
5
5
5
5
5
5
5
5
5
5
5
5
5
5
5
5
5
5
5
5
5
5
5
5
5
5
5
5
5
5
5
5
5
5
5
5
5
5
5
5
5
5
5
5
5
5
5
5
5
5
5
5
5
5
5
5
5
5
5
5
5
5
5
5
5
5
5
5
5
5
5
5
5
5
5
5
5
5
5
5
5
5
5
5
5
5
5
5
5
5
5
5
5
5
5
5
5
5
5
5
5
5
5
5
5
5
5
5
5
5
5
5
5
5
5
5
5
5
5
5
5
5
5
5
5
5
5
5
5
5
5
5
5
5
5
5
5
5
5
5
5
5
5
5
5
5
5
5
5
5
5
5
5
5
5
5
5
10
10
10
10
10
10
10
10
10
10
10
10
10
10
10
10
10
10
10
10
10
10
10
10
10
10
10
10
10
10
10
10
10
10
10
10
10
10
10
10
10
10
10
10
10
10
10
10
10
10
10
10
10
10
10
10
10
10
10
10
10
10
10
10
10
10
10
10
10
10
10
10
10
10
10
10
10
10
10
10
10
10
10
10
10
10
10
10
10
10
10
10
10
10
10
10
10
10
10
10
10
10
10
10
10
10
10
10
10
10
10
10
10
10
10
10
10
10
10
10
10
10
10
10
10
10
10
10
10
10
10
10
10
10
10
10
10
10
10
10
10
10
10
10
10
10
10
10
10
10
10
10
10
10
10
10
10
10
10
10
10
10
10
10
10
10
10
10
10
10
10
10
10
10
10
10
10
10
10
10
10
10
10
10
10
10
10
10
10
10
10
10
10
10
10
10
10
10
10
10
10
10
10
10
10
10
10
10
10
10
10
10
10
10
10
10
10
10
10
10
10
10
10
10
10
10
10
10
10
10
10
10
10
10
10
10
10
10
10
10
10
10
10
10
10
10
10
10
10
10
10
10
10
10
10
10
10
10
10
10
10
10
10
10
10
10
10
10
10
10
10
10
10
10
10
10
10
10
10
10
10
10
10
10
10
10
10
10
10
10
10
10
10
10
10
10
10
10
10
10
10
10
10
10
10
10
10
10
10
10
10
10
10
10
10
10
10
10
10
10
10
10
10
10
10
10
10
10
10
10
10
10
10
10
10
10
10
10
10
10
10
10
10
10
10
10
10
10
10
10
10
10
10
10
10
10
10
10
10
10
10
10
10
10
10
10
10
10
10
10
10
10
10
10
10
10
10
10
10
10
10
10
10
10
10
10
10
10
10
10
10
10
10
10
10
10
10
10
10
10
10
10
10
10
10
10
10
10
10
10
10
10
10
10
10
10
10
10
10
10
10
10
10
10
10
10
10
10
10
10
10
10
10
10
10
10
10
10
10
10
10
10
10
10
10
10
10
10
10
10
10
10
10
10
10
10
10
10
10
10
10
10
10
10
10
10
10
10
10
10
10
10
10
10
10
10
10
10
10
10
10
10
10
10
10
10
10
10
10
10
10
10
10
10
10
10
10
10
10
10
10
10
10
10
10
10
10
10
10
10
10
10
10
10
10
10
10
10
10
10
10
10
10
10
10
10
10
10
10
10
10
10
10
10
10
10
10
10
10
10
10
10
10
10
10
10
10
10
10
10
10
10
10
10
10
10
10
10
10
10
10
10
10
10
10
10
10
10
10
10
10
10
10
10
10
10
10
10
10
10
10
10
10
10
10
10
10
10
10
10
10
10
10
10
10
10
10
10
10
10
10
10
10
10
10
10
10
10
10
10
10
10
10
10
10
10
10
10
10
10
10
10
10
10
10
10
10
10
10
10
10
10
10
10
10
10
10
10
10
10
10
10
10
10
10
10
10
10
10
10
10
10
10
10
10
10
10
10
10
10
10
10
10
10
10
10
10
10
10
10
10
10
10
10
10
10
10
10
10
10
10
10
10
10
10
10
10
10
10
10
10
10
10
10
10
10
10
10
10
10
10
10
10
10
10
10
10
10
10
10
10
10
10
10
10
10
10
10
10
10
10
10
10
10
10
10
10
10
10
10
10
10
10
10
10
10
10
10
10
10
10
10
10
10
10
10
10
10
10
10
10
10
10
10
10
10
10
10
10
10
10
10
10
10
10
10
10
10
10
10
10
10
10
10
10
10
10
10
10
10
10
10
10
10
10
10
10
10
10
10
10
10
10
10
10
10
10
10
10
10
10
10
10
10
10
10
10
10
10
10
10
10
10
10
10
10
10
10
10
10
10
10
10
10
10
10
10
10
10
10
10
10
10
10
10
10
10
10
10
10
10
10
10
10
10
10
10
10
10
10
10
10
10
10
10
10
10
10
10
10
10
10
10
10
10
10
10
10
10
10
10
10
10
10
10
10
10
10
10
10
10
10
10
10
10
10
10
10
10
10
10
10
10
10
10
10
10
10
10
10
10
10
10
10
10
10
10
10
10
10
10
10
10
10
10
10
10
10
10
10
10
10
10
10
10
10
10
10
10
10
10
10
10
10
10
10
10
10
10
10
10
10
10
10
10
10
10
10
10
10
10
10
10
10
10
10
10
10
10
10
10
10
10
10
10
10
10
10
10
10
10
10
10
10
10
10
10
10
10
10
10
10
10
10
10
10
10
10
10
10
10
10
10
10
10
10
10
10
10
10
10
10
10
10
10
10
10
10
10
10
10
10
10
10
10
10
10
10
10
10
10
10
10
10
10
10
10
10
10
10
10
10
10
10
10
10
10
10
10
10
10
10
10
10
10
10
10
10
10
10
10
10
10
10
10
10
10
10
10
10
10
10
10
10
10
10
10
10
10
10
10
10
10
10
10
10
10
10
10
10
10
10
10
10
10
10
10
10
10
10
10
10
10
10
10
10
10
10
10
10
10
10
10
10
10
10
10
10
10
10
10
10
10
10
10
10
10
10
10
10
10
10
10
10
10
10
10
10
10
10
10
10
10
10
10
10
10
10
10
10
10
10
10
10
10
10
10
10
10
10
10
10
10
10
10
10
10
10
10
10
10
10
10
10
10
10
10
10
10
10
10
10
10
10
10
10
10
10
10
10
10
10
10
10
10
10
10
10
10
10
10
10
10
10
10
10
10
10
10
10
10
10
10
10
10
10
10
10
10
10
10
10
10
10
10
10
10
10
10
10
10
10
10
10
10
10
10
10
10
10
10
10
10
10
10
10
10
10
10
10
10
10
10
10
10
10
10
10
10
10
10
10
10
10
10
10
10
10
10
10
10
10
10
10
10
10
10
10
10
10
10
10
10
10
10
10
10
10
10
10
10
10
10
10
10
10
10
10
10
10
10
10
10
10
10
10
10
10
10
10
10
10
10
10
10
10
10
10
10
10
10
10
10
10
10
10
10
10
10
10
10
10
10
10
10
10
10
10
10
10
10
10
10
10
10
10
10
10
10
10
10
10
10
10
10
10
10
10
10
10
10
10
10
10
10
10
10
10
10
10
10
10
10
10
10
10
10
10
10
10
10
10
10
10
10
10
10
10
10
10
10
10
10
10
10
10
10
10
10
10
10
10
10
10
10
10
10
10
10
10
10
10
10
10
10
10
10
10
10
10
10
10
10
10
10
10
10
10
10
10
10
10
10
10
10
10
10
10
10
10
10
10
10
10
10
10
10
10
10
10
10
10
10
10
10
10
10
10
10
10
10
10
10
10
10
10
10
10
10
10
10
10
10
10
10
10
10
10
10
10
10
10
10
10
10
10
10
10
10
10
10
10
10
10
10
10
10
10
10
10
10
10
10
10
10
10
10
10
10
10
10
10
10
10
10
10
10
10
10
10
10
10
10
10
10
10
10
10
10
10
10
10
10
10
10
10
10
10
10
10
10
10
10
10
10
10
10
10
10
10
10
10
10
10
10
10
10
10
10
10
10
10
10
10
10
10
10
10
10
10
10
10
10
10
10
10
10
10
10
10
10
10
10
10
10
10
10
10
10
10
10
10
10
10
10
10
10
10
10
10
10
10
10
10
10
10
10
10
10
10
10
10
10
10
10
10
10
10
10
10
10
10
10
10
10
10
10
10
10
10
10
10
10
10
10
10
10
10
10
10
10
10
10
10
10
10
10
10
10
10
10
10
10
10
10
10
10
10
10
10
10
10
10
10
10
10
10
10
10
10
10
10
10
10
10
10
10
10
10
10
10
10
10
10
10
10
10
10
10
10
10
10
10
10
10
10
10
10
10
10
10
10
10
10
10
10
10
10
10
10
10
10
10
10
10
10
10
10
10
10
10
10
10
10
10
10
10
10
10
10
10
10
10
10
10
10
10
10
10
10
10
10
10
10
10
10
10
10
10
10
10
10
10
10
10
10
10
10
10
10
10
10
10
10
10
10
10
10
10
10
10
10
10
10
10
10
10
10
10
10
10
10
10
10
10
10
10
10
10
10
10
10
10
10
10
10
10
10
10
10
10
10
10
10
10
10
10
10
10
10
10
10
