# vtk DataFile Version 2.0
whisker_body, Created by Gmsh 4.13.1 
ASCII
DATASET UNSTRUCTURED_GRID
POINTS 613 double
-8.366600265340816 -1.499999999999834 0
8.366600265340814 -1.499999999999832 0
-6.438743961523063 -1.500000000000042 24
6.438743961523063 -1.500000000000042 24
12 0 0
8.366600265340708 1.500000000000135 0
0 8.5 0
-8.366600265340708 1.500000000000135 0
6.490880522276705 0 70
6.438743961523102 1.499999999999961 24
0 6.611159036209155 24
-6.4387439615231 1.499999999999964 24
-6.808334141167511 -5.088868854884438 0
-3.80753297644827 -7.599519236981967 0
3.293187477425454e-14 -8.5 0
3.807532976448329 -7.599519236981937 0
6.80833414116753 -5.088868854884412 0
-5.019960159204491 -1.5 0
-1.673320053068164 -1.5 0
1.673320053068162 -1.5 0
5.019960159204487 -1.5 0
-6.715500942909243 -1.5 20.57153758990523
-6.991719656370785 -1.5 17.14303097496648
-7.267461386683627 -1.5 13.71448610083054
-7.542778364247872 -1.5 10.28590800497862
-7.817715584011556 -1.5 6.857298578533189
-8.09231169720143 -1.5 3.428661600407665
-4.766206057031374 -4.581561264892941 24
-1.753097463865741 -6.374486103541012 24
1.753097463865717 -6.374486103541019 24
4.766206057031365 -4.581561264892951 24
8.092311697201426 -1.5 3.428661600407722
7.817715584011554 -1.5 6.857298578533232
7.542778364247872 -1.5 10.28590800497862
7.267461386683627 -1.5 13.71448610083054
6.991719656370782 -1.5 17.14303097496651
6.715500942909239 -1.5 20.57153758990529
-3.219371980761532 -1.5 24
0 -1.5 24
3.219371980761531 -1.5 24
11.34980690040761 3.896393630456207 0
9.469686112756717 7.370552552276022 0
6.563377897469113 10.04599773915035 0
2.945825845689581 11.63280319127197 0
-0.9909521456679979 11.95901391608004 0
-4.820345095835646 10.98927991986068 0
-8.127378859508902 8.82868692807757 0
-10.55368501447787 5.71136871644487 0
-11.83633564083267 1.975135083368787 0
-11.83633564083267 -1.975135083368821 0
-10.55368501447786 -5.711368716444897 0
-8.12737885950888 -8.828686928077589 0
-4.820345095835619 -10.9892799198607 0
-0.9909521456679715 -11.95901391608004 0
2.945825845689616 -11.63280319127196 0
6.563377897469155 -10.04599773915032 0
9.469686112756747 -7.370552552275983 0
11.34980690040762 -3.896393630456205 0
6.808334141167383 5.088868854884609 0
3.807532976448174 7.599519236982015 0
5.019960159204425 1.5 0
1.673320053068141 1.5 0
-1.673320053068142 1.5 0
-5.019960159204425 1.5 0
-3.807532976448205 7.599519236982 0
-6.808334141167403 5.088868854884582 0
5.460476170550379 3.509234951570297 70
2.69640921655526 5.904312601086342 70
-0.9237486117790363 6.424812717636788 70
-4.250622782769287 4.905480191894958 70
-6.227954253695701 1.828692365693239 70
-6.227954253695695 -1.82869236569326 70
-4.250622782769273 -4.905480191894971 70
-0.9237486117790209 -6.42481271763679 70
2.696409216555272 -5.904312601086336 70
5.460476170550383 -3.509234951570289 70
11.69393780679315 0 3.888888888888888
11.3878756135863 0 7.777777777777777
11.08181342037945 0 11.66666666666667
10.7757512271726 0 15.55555555555555
10.46968903396575 0 19.44444444444444
10.1636268407589 0 23.33333333333333
9.857564647552053 0 27.22222222222222
9.551502454345203 0 31.11111111111111
9.245440261138352 0 35
8.939378067931504 0 38.88888888888889
8.633315874724653 0 42.77777777777777
8.327253681517803 0 46.66666666666666
8.021191488310954 0 50.55555555555556
7.715129295104104 0 54.44444444444444
7.409067101897254 0 58.33333333333333
7.103004908690405 0 62.22222222222221
6.796942715483555 0 66.11111111111111
6.715500942909243 1.5 20.57153758990523
6.991719656370785 1.5 17.14303097496648
7.267461386683627 1.5 13.71448610083054
7.542778364247872 1.5 10.28590800497862
7.817715584011556 1.5 6.857298578533189
8.09231169720143 1.5 3.428661600407665
5.156470440981196 4.137419049762443 24
2.859570637755702 5.960728107348583 24
0 8.230165576601308 3.428571428571429
0 7.960331153202616 6.857142857142858
0 7.690496729803924 10.28571428571428
0 7.420662306405232 13.71428571428572
0 7.150827883006539 17.14285714285715
0 6.880993459607848 20.57142857142857
-8.09231169720143 1.5 3.428661600407665
-7.817715584011556 1.5 6.857298578533189
-7.542778364247872 1.5 10.28590800497862
-7.267461386683627 1.5 13.71448610083054
-6.991719656370785 1.5 17.14303097496648
-6.715500942909239 1.5 20.57153758990529
3.219371980761551 1.5 24
0 1.5 24
-3.219371980761549 1.5 24
-2.859570637755697 5.960728107348586 24
-5.15647044098119 4.137419049762451 24
-5.72555777248018 -4.52588392009642 15.26865087788475
6.55382967735318 -4.289030095426321 8.48106206369884
6.031807541252517 -4.105524156319587 15.29268487531312
-6.57065276545266 -4.262986846950748 8.482625893384158
-1.300164722888432e-14 -6.8472192339461 21.0005707974925
1.894912295721394 -8.012321139715262 3.388163173765705
-5.160075520453844 -6.422013746037202 3.325944045161797
3.387460666720768 -5.957010466917736 20.92966449133719
1.203462000724485 -6.981073360288869 17.99140292873049
-1.450180759167853 -6.940203296567852 17.91454255367116
0.005748883999333643 -7.320432150392119 14.98780191488284
-3.50138816958298 -5.884274987084285 21.0005707974925
5.768906342304335 -4.007200677898388 18.75312659879702
-6.286599951984583 -4.2038168770632 11.91037919953525
-4.287197187707547 -6.406356614888836 10.05655510254515
6.23632253991271 -4.274516063792853 11.93575998011429
4.256489909006712 -6.426362337922137 10.06119160177439
4.72357543148909 -6.446891220226814 6.4527589205907
1.613033650056099 -7.698325084547227 8.062089801915336
-1.73085279735255 -7.876554791932965 5.533704562787276
1.114003261235611 -7.505636859052761 11.58986392326256
-5.813114609237631 -3.93942084737037 18.77718843622836
6.856529899876488 -4.304134193606577 5.13930417884306
3.614152008758143 -6.492479989631324 13.58752389839597
-3.105765521594001 -6.62616183371777 15.01988332667568
5.069677245575014 -6.520554497884876 3.055905247670021
-4.594680045470447 -6.509069915701991 6.767633129924116
-6.882079061762944 -4.263619355092821 5.136252428099118
-1.308108726049987 -7.637028102433643 9.551915145044658
-2.143735249549502 -7.205786806140547 12.47864206202133
-1.91179034174194 -8.083687147120138 2.456357701590358
3.916425645071863 -6.007321329484079 16.88383657411014
-5.610034232843603 -3.856396595478957 21.50317734946711
5.609085792277363 -3.858061783721137 21.50111927306398
7.324452688801098 -3.919987102845218 2.446441628158789
-4.066241490120639 -5.847026476059488 17.50990437743472
-4.371061893183239 -6.101037955271751 12.63943905569352
-7.343103255002596 -3.895795806860582 2.381852304629719
0.1458673700133843 -1.5 2.84493635250641
4.434248634233926 -1.5 11.76152622007014
-4.188303014913081 -1.5 15.74377200966675
3.94861365787491 -1.5 18.64455438339267
-4.710984479881236 -1.5 8.33350070456107
-1.708867749938179 -1.5 21.25992648590235
5.194531158195739 -1.5 5.026534576555719
-4.868023059861692 -1.5 3.521771562163289
4.174352377650951 -1.5 15.19257014106126
1.428224859189797 -1.5 13.24419887492538
1.616416709946439 -1.5 9.818080010692897
-1.465318458910611 -1.5 10.96736297581911
-1.116823556731356 -1.5 7.828182013258299
1.475987779261335 -1.5 16.91647330972819
1.831459513812748 -1.5 6.102335257213012
4.70103622489848 -1.5 8.322694370228909
-4.155714224054044 -1.5 19.12069396375401
1.490043417582974 -1.5 20.83880497207212
-4.479619588619904 -1.5 12.15110255479252
3.18424215260819 -1.5 2.72398903281444
-1.220102745075645 -1.5 14.74879890789281
-4.447639771837217 -1.5 21.79043160791232
-1.162847592455862 -1.5 18.3651390355461
4.245046515740199 -1.5 21.54912125141492
-3.244463842985871 -1.5 5.518576885404519
-0.836559388509059 -1.5 5.193943562653901
5.72662542946181 -1.5 2.457637709316414
-2.414169234237399 -1.5 2.461250712658443
-5.643309466531006 -1.5 5.753581574888134
1.625797902255569 -3.525923865862826 24
-1.059963355922893 -3.976076222972966 24
-10.10146795308671 3.452793606584237e-14 0
-8.326672684688674e-16 -5.551115123125783e-17 0
-6.69328021227258 4.364115159304974e-14 0
6.693280212272627 1.066223022616602e-13 0
3.346640106136304 -5.551115123125783e-17 0
-3.346640106136305 -5.551115123125783e-17 0
-2.404707554487957 -9.761953268230675 0
-2.404707554487961 9.76195326823068 0
8.466875056264714 -3.317303643854778 36.93007096033316
7.821845623372724 3.279344685476489 44.70713471457508
9.120245910289237 3.327061996254799 29.12068223207024
9.438050282588245 -3.346942070676019 25.23539915122393
7.480602335079111 -3.305867378120807 48.55652201355586
-11.73088669374762 -1.940162152660215e-14 3.419408766471569
-2.879762434608169 11.37192468062311 3.419408766471415
6.812365077327485 3.293518903324991 56.32988361258961
-2.879762434608137 -11.37192468062312 3.419408766471416
10.03700683094855 3.489405754362892 17.45498758261763
-5.574956286394031 -3.78668395756391 66.84263711464807
10.40992648181423 -3.337958848351206 13.57027627075233
6.474699525225045 -3.286119309726038 60.21628526319177
8.493391781973815 3.256056274121223 36.89714897511699
-2.669043431082613 6.204494043296981 66.65390636929733
10.73011947691677 3.340138153048984 9.682499500092435
7.94511337650492 -8.630693833987381 3.419408766471505
-9.382025185936769 7.057263868497892 3.303737750555006
-9.257317901175359 -7.205259738421862 3.419408766471709
4.803466868453009 10.70734651965919 3.361547323836406
0.8577132096463104 -6.682361437659472 66.87043825172104
6.165289275614898 3.237167037505388 63.99506470565762
10.0733686959848 6.038330996047115 3.245938804936132
11.04956328535986 -3.342145186211126 5.794663767161262
8.783016539913215 -3.341931786525523 33.07000617794214
9.102545075636485 -3.36149058570941 29.18108665520185
7.611208606427684 -6.286816455844814 27.03997905948282
6.879424192480172 -6.190743779632303 34.88075559725996
7.996199202246782 -6.298655526033382 23.13786019255063
5.281824749839164 -8.542778425125565 24.85662570503997
5.715010904353043 -8.628689103281204 20.96945776769745
2.409586204936747 -9.933761573534991 22.59384420289131
1.920495161629743 -9.728975348874648 26.47062868389184
-1.18705066350801 -10.03173334255851 24.11992415358298
-1.680801449017463 -9.653258574303541 27.97277951559827
-0.6925830340437528 -10.38256099518798 20.25832547381912
-4.190155940420174 -9.400636965553099 21.69965563168639
-3.73710915203073 -9.914209315274325 17.85011526381134
-6.836928219271687 -7.953519307498699 19.20941137450332
-7.163188422986155 -7.242617663427911 23.04145696361544
-9.094766823697393 -5.021698265322373 20.46913564924288
-9.198936850700129 -4.144677891714113 24.27471063609224
-10.1983058705171 -1.432579864348417 21.62045531784573
-9.988918505929044 -0.4896264159887282 25.4008302350095
-9.953976520863005 2.29904561020787 22.66749407374319
-9.370421203342785 3.260279045484106 26.41109473820383
-8.362684729243853 5.738935338405114 23.602045614405
-7.416985122323608 6.481958297194446 27.31514646972684
-8.697482598686259 4.127351002550752 30.1504374406179
-5.604963761738087 8.375388923071117 24.4234219662696
-6.768892353947395 7.853739082201203 20.73426060698601
-10.42163906876213 1.375253179197525 18.90699087890821
-4.352737005181482 8.767586217033022 28.09837293801879
-0.1940645672767377 -10.70827308020493 16.39060464395387
-3.380367475072507 9.739790671049214 21.47699437942988
-4.746185202931127 9.47616445617888 17.81028484621179
-8.948883763619577 -5.846906895348472 16.64944240521958
-1.030811940127664 10.49493445467649 18.48198676062395
0.3999990738681296 10.25188510562783 22.1127917731506
6.524741635784824 -6.121799447744249 38.79213331655823
4.013253670520448 -8.183233931553442 36.66555745460211
3.626380678060273 -8.028800211265423 40.53555529642336
0.5839185476495607 -8.965834366296278 38.31138386247529
0.16592746797796 -8.680863953800111 42.15347471292453
-2.931469100343624 -8.365944143841229 39.83803144901826
-3.303128537434968 -7.902064048410841 43.6502272549517
-5.931799797645593 -6.437300243455574 41.24973491671117
-6.186017647391353 -5.765925596659877 45.02419602434285
-7.949483379014878 -3.416439305225011 42.53358915225726
-7.943272704022186 -2.600661336460589 46.27382627747377
-6.40977109274399 -5.052402148289077 48.77132627770006
-7.873439916110575 -1.751455692707246 49.98755066844598
-6.597768110249835 -4.288812486796822 52.48667108385916
-7.724958955028463 -0.8877994639890856 53.67345763571592
-7.757731322818455 1.869402192543134 51.08160227394211
-8.559578714907422 0.1583766228244368 43.69608156644909
-7.200427618891021 2.70775151231188 54.72906992214008
-9.240323277004277 -3.236715650132309 28.07045807169184
-6.004337603949486 5.141706235407195 52.0317572436125
-5.037971526982362 5.71782777826552 55.64457992072981
-2.445260017261438 10.55295269000095 14.83387776414825
-5.986422579920178 9.104205850611732 14.02706493601312
1.421496310008516 10.6911064579814 15.43557408200571
-6.726889040193566 -3.490113008366289 56.18194062413263
-4.453879298614579 -6.254898150689501 54.90868107888703
-6.524785198445621 3.505484259572304 58.36166308702482
-8.82400695973217 -0.7234803475373855 39.97859471656018
-8.270160497573533 2.916702553300301 41.04842444136457
-3.273520826866245 -10.39564361123653 13.99119638399828
0.2700458071978424 -11.01216895418948 12.50951834863085
-3.0130268932219 7.238072197944637 52.85585052400354
-4.149549264539813 6.984464447278832 49.24758644517435
-5.651055626330085 -7.070981955522493 37.46174369884489
-0.6264714945194176 8.041796925550184 49.98415503201991
-1.85577853528329 8.140475489097142 46.38620327463484
-0.2669679679360508 -8.378313243100825 45.96386312384355
-4.888446811382968 -5.552369200194782 58.47798017814646
0.3532218965599711 11.06953840318764 11.75104740972185
3.981100075486588 10.28527693252936 12.33931559504497
-1.674656003803791 -7.306404421835689 57.23043925661555
-3.992296108751729 6.15707705687405 59.2347835804846
3.359566171586512 -10.29875495291452 14.82981267088496
3.856416544674046 -10.4496486867981 10.94586836000549
-1.251461133985157 -7.689221110434023 53.48808504814667
1.808490967181123 -7.396955957106456 55.71890029343883
0.8718752447927359 -7.229810718077919 59.94542638282474
5.182500280957757 9.414683270802074 15.92290736990793
0.7123522021353557 7.752406627363178 53.55581308732967
3.150223455941388 7.374887070809625 50.57666224378047
-8.811537252471703 2.123887175748672 37.30682631469922
-7.17568509163279 5.405096354127452 38.32667478146795
2.294953036756585 -7.573450259728133 51.92352349153532
0.9967277334963729 -9.240240745540627 34.38498659807885
-5.726572673195713 4.236976128053159 61.96060425997709
-7.142148117748572 0.9119647111903664 60.98805384994781
-9.01725630016662 -1.568090703824457 36.17983278334392
-2.789031365303805 -10.84785054923587 10.15670641624724
-6.107836893703733 -9.260252000739595 11.52264369113248
7.04206774211759 8.436016107266324 12.84657144576828
8.361953471896747 -6.324833879358084 19.25561750379901
6.141003089616699 -6.082498890086144 42.64939093063388
-7.616431773357383 3.725898754516504 44.73936097604273
6.571303131013839 -8.773705036042726 13.19223918566893
4.960562803853538 -5.946789981695672 54.07600070369083
6.173850162223294 9.432579221961729 9.232086574512266
6.967275680860364 -8.848547849561461 9.373182112679208
4.324088995829404 -10.59684331165163 7.050384467628602
-5.32629398109382 -10.09809375600673 7.411603685517881
-8.487113833558158 -7.447670545367519 9.001825314186243
-6.603680995283898 2.079705553531051 64.50403420883336
-8.00396691955042 4.685147587545578 34.63230631587648
-5.437797367437262 7.425253119407957 35.53316948421423
-4.242590290514674 7.84133388241167 39.19232472357455
-1.832329848693629 8.960224869010949 36.26785236312864
-0.5765241697742967 8.837682233109339 39.9423741442335
1.849872620928992 8.899667457739303 36.97644692296723
0.5132927054831183 9.359801770711686 33.36819979117228
3.144012924083054 8.227298092336509 40.56369669567716
4.209002883111371 8.324657092983408 33.94822958179966
2.963286359148862 9.142563640534984 30.35762513792001
6.128278957827192 7.35831524366794 30.79928948703606
5.234329741745697 8.346369408941031 27.29409744357603
1.642611579644337 9.758102940890689 26.74160390974326
4.690319260378703 6.172042667087516 53.97620239545471
1.816719329558488 7.284593019800094 57.07990981219875
5.72914804898042 5.572768150507532 50.92104869587019
5.143087054328494 6.478202243603991 47.37451867007073
-2.829951043004895 6.466735315059812 62.78333083711854
-6.504471784522259 -2.597048311147125 63.4831041329227
1.422008314042538 -9.506309319455882 30.34143835478791
-2.166849368902052 -9.245992881653184 31.80991110156835
-5.031957342435733 -8.279001356309045 29.37339168566592
-5.365257980226898 -7.70178943940549 33.20958050931493
4.429476495266452 -8.324599268520084 32.65877628242423
8.125325701045401 6.98704524894902 16.31057953088996
6.301541693150611 8.356252718862432 19.49178473807643
4.043262182353629 9.293158212820341 23.70175218693822
7.212891193941352 7.065418157808556 24.18209467915849
8.850299723967813 5.392296334569219 20.79215143863551
9.919058884846141 4.581102421970722 13.64835217593424
6.538351839751178 3.157919130098961 60.2143743734327
4.414042537792629 5.585686402006251 62.01585914606407
4.138144047131052 5.387543977737858 66.15651582754822
-6.504940564237036 6.913775306379268 31.85613392084015
-9.325715485402791 1.240524415447229 32.93623428956081
-9.15332283630871 -2.363321732376898 32.35638644475308
-3.070134746753145 8.979865209976122 31.89015949704764
6.134253390665793 -3.277701462516695 64.10246807720824
4.44719752229916 -5.565774223815565 61.95185821582874
6.82538332782253 -3.2519847213036 56.40911025808903
0.4176052334049462 8.562760794165827 43.54495097298076
7.821444899016248 -3.273718557035624 44.73945163011107
3.184088801977888 -7.890276808492747 44.36347686853152
8.142665004172354 3.313992304868755 40.77142338138828
6.547933426142781 6.096020851535626 38.8004980519441
6.155496170381803 6.073937672719762 42.59490973459093
-3.689230240654186 -7.398443506352544 47.42911376049624
6.15802055071512 -8.6944786364728 17.09810324606251
8.921447666163926 2.944408273072196 33.10254168374649
-4.108975473238598 -6.832143239887355 51.17335947585379
-4.619375434080507 -8.857677728035263 25.54138946221508
-7.462857536274309 -6.483881681916386 26.85965193574242
-2.607334092586317 -8.790597126218785 35.96972192612201
-8.203927934533366 1.042116927809323 47.39603252381643
9.247461764425282 3.904838759672106 24.92838964392626
9.75344337363439 -3.367431168270402 21.36683284516031
10.73468677120717 -3.311697602165599 9.734035763886601
-6.500366499448212 -8.612041653459011 15.37572885779522
2.889041135896055 -10.12245141507147 18.72055330083293
2.833146186211836 10.11175380456694 19.04461571856078
-8.74431267117455 -6.657887155782566 12.82727483797651
-10.37237892751235 -4.214491011424522 10.2170579281733
-10.37781901318575 -3.313463817809461 14.05368413716731
-11.09224401634598 -0.5281919354752714 11.37443371929357
-11.37170102718439 -1.215045413448999 7.160842211853261
-11.02983072490431 2.536031033063219 8.670405674103415
-10.52066214416165 3.2872057517311 12.42345793708573
-9.504115593280458 6.021190149488303 9.518108863245052
0.8252769637312293 -11.28606138200553 8.688569525632996
0.7848632333440275 -11.59047350051871 4.866259159953717
-1.952397023604314 9.824102776850573 25.20619658915475
-7.674083670655969 -5.746147455228996 30.66060100535306
-0.7635266782988751 -8.04971929375388 49.73400425251636
-10.31402186915431 -2.417858921476624 17.86956979882953
-1.76526860976431 7.349442795678797 56.43497781274708
-7.865700756874627 -4.254277229452324 38.84935106821453
8.888669159815022 6.889866059547402 9.576988471894648
7.598264685449993 8.659714673215957 6.091321412623381
-7.819073636765159 7.246575549565313 17.01727385410431
-9.179758099299143 4.968726543686459 19.84443918350664
-6.254500785779039 6.039675334628694 41.99880484590953
-6.86874790249245 4.462419513300877 48.3976199776958
-10.79875499509293 0.4451680705998393 15.14672476364212
-2.757296387398454 -6.150354169781544 66.83280849978328
-1.40981398143522 -6.844909175707916 63.67603156902661
-4.51263561196046 -5.344032126485172 63.60133535803456
2.786435695843301 -7.721164766030288 48.17469527574249
-0.4869282342827714 7.264104205531265 59.96812982651458
0.5734210783601776 6.986153691290252 63.40844323786779
4.828132673870972 -8.45227473945911 28.79156980743505
-5.250202460358345 6.568435297274084 45.62972862405349
4.067720770705645 -5.383748686241623 66.73713159224978
-9.69039694022605 0.5232964893039823 29.16688883426026
-9.90014177988796 4.128969747554309 16.17934024860643
-6.808150394030012 -2.628073453248758 59.74729261195825
10.09252368562489 -3.324594675111756 17.45827263483055
8.744830728172122 -6.317778224131924 15.3967152685927
7.233294554197166 -6.258093556905324 30.94288969039014
5.790781333427548 -6.007950123301589 46.44910522655942
5.379797744762369 -5.97820693051614 50.28529846129835
7.164353290877433 -3.258929034060714 52.46720006279107
-3.135912086685135 8.041161770785962 42.80715499874128
-7.491900214314756 0.04688785162112238 57.27897457169704
-10.0072221291596 -5.645734465604736 6.480876363608078
9.084837723470475 -6.368551425055673 11.50272350783508
2.466884230776387 11.03791357504761 8.764498569627772
-1.403601177759911 11.27218108493036 8.141723217441534
1.092117035349939 11.54576331278141 5.11678711138226
-5.227120997012489 10.21083001378087 6.721580927627318
-3.928673905297156 10.44470850495288 10.68413426574669
9.090447959937713 -6.936171812195589 7.185951463137304
8.143344116689928 -3.301198668477189 40.8246041429809
1.802901397462049 8.089641165460373 47.16404942737201
-7.823264141492491 -4.915258215384834 35.07900913337932
-8.697306640392457 6.65384534602121 13.33321807692324
4.611957054041111 -5.8347969202411 57.97325779731037
-6.466113141939438 -9.789586727145592 3.401578715089108
-11.12227758724472 3.756462704870675 3.309852400191942
4.644756120182949 -10.77729677694288 3.359749051448041
-6.57100561731606 9.732884422269489 3.260568785415332
6.809758881506762 6.306345444293048 34.54416770445578
7.403281567692047 3.503943709466165 48.40280601839268
-11.11909868108967 -3.817191398723795 3.099357613423453
10.23150102214261 -5.772003778762268 3.210542373291887
11.0729416002626 3.182971904762964 6.081913120420572
0.5699835773061835 6.707696793888954 66.93793471373338
-5.446952315000612 3.956410219756108 66.9337882386955
-7.313116703378713 8.577565378471792 9.251064076341287
-0.8034223819367812 9.671463274807452 29.16357807964226
-2.895866219490761 -6.627647927778628 60.57445767584074
-6.707380564607688 -0.5057370651379259 67.00718906052731
4.886118269318272 5.591514634946426 58.12356043109436
7.801780303757355 5.99652661993244 27.44507462506
-2.046781421975172 -11.28116262194169 6.793542104063559
-10.1583460049319 5.408252656400713 6.247518612124317
3.474872106418678 7.769276531865849 44.33249101221788
7.982559235111276 8.671370879822698 2.716902208035781
7.103386629932726 3.272409118785554 53.1002676896098
-8.217646824186762 8.064633317833424 6.177514269052953
10.01025931840027 2.503457869424959 21.36477479460787
2.019629597301666 -6.662208873433268 64.01889063358031
6.122035329935732 2.785690997437425 67.01222632414377
4.638032905930259 10.50395766711042 6.577303592493303
-7.925285709536694 -8.365549493725489 6.053668744804655
9.753758506043663 6.060807044244517 6.563631756501612
6.143488771398524 -2.697195314817779 67.2222456573288
6.916106567908233 -9.196662437009357 6.264114192712495
4.697649565725202 7.787232329298109 36.91859840342177
11.43332361483514 -2.819177334261091 2.849171293455402
11.4365020934874 2.807602787303394 2.845090617668934
-4.670060726907787 5.116613254190411 64.45319368022633
-11.38960576986744 1.929988702732916 5.69278009887033
2.39221814077991 6.874907059067922 59.98318768514888
0.963588313764796 11.78835739083141 2.189609350286359
-5.325384635831397 -4.838754907331538 61.04868209413014
0.9858281538080402 -11.80112242815202 2.004692073361632
8.070718363939209 5.110009004266457 31.09947980494178
6.630379872073902 4.170565312688758 8.47531166623577
5.941357433581929 4.229868567608546 15.33319454217639
4.233394640304983 5.332986898647601 21.48628696736261
2.927917591112533 7.550824632525049 5.10001006587796
2.361628082794307 7.183274099476553 11.92441040192084
5.382753062779708 4.51755655739213 18.71296789791164
4.016180283188447 5.962631380203775 16.65698953325561
6.393902709019388 4.033919369845854 11.94307837295487
2.710155710056456 7.342764003070072 8.551926621338602
6.906646767552521 4.235345354013413 5.05901743306339
5.293889676684167 6.36031248770791 2.856425601405245
5.108032168830311 6.132130536369893 6.595589685721539
4.697178112981422 6.098312094838541 10.1955850630807
4.35531313205837 5.994056423049081 13.85888182260291
5.72255328129688 3.659105253432232 21.6971436853621
2.491095547252664 6.562320018217538 18.8149566010676
2.096583930605339 6.456474592712579 21.74854480637776
2.518867682289867 7.917950773622322 2.427529015258139
7.338432857799886 3.902873998881752 2.392069773443847
2.080658944606731 7.011753611110247 15.0702238829037
0.1458673700133843 1.5 2.844936352506388
4.43424863423393 1.5 11.76152622007013
-4.186001394416014 1.5 15.74744506012158
3.949741777481353 1.5 18.64517352589888
-4.710984479881237 1.5 8.333500704561068
-1.708479101135875 1.5 21.25958557542567
5.194531158195745 1.5 5.026534576555693
-4.868023059861679 1.5 3.521771562163293
4.178874181865484 1.5 15.19505182933094
1.434852146350222 1.5 13.2513322224781
1.617521257806521 1.5 9.819268901951681
-1.46248995089598 1.5 10.97309125061014
-1.116168047418899 1.5 7.8293348742666
1.480335601588631 1.5 16.92185205657112
1.831639111483421 1.5 6.102574211525972
4.701091937168152 1.5 8.322756316881858
-4.15450409418496 1.5 19.12058113588276
1.491108223771876 1.5 20.83897312224219
-4.477908952717646 1.5 12.15532264231402
3.184263533283259 1.5 2.724017479756441
-1.210863532008403 1.5 14.77484631782752
-4.447320016102942 1.5 21.79034086024275
-1.080276954537656 1.5 18.45276636346261
4.24504651574021 1.5 21.54912125141491
-3.24435459143379 1.5 5.518769028905902
-0.8364905577120236 1.5 5.194059011547665
5.726625429461823 1.5 2.457637709316377
-2.414161508187966 1.5 2.461264057462477
-5.643309466530997 1.5 5.753581574888153
-6.625598336114201 4.177781949236959 8.477855986990717
-5.941357433581894 4.229868567608595 15.33319454217639
-4.233394640304979 5.332986898647603 21.48628696736261
-2.927917591100177 7.550824632529333 5.100010065883966
-2.920376258464017 6.972287452869329 11.9540939188889
-5.382753062779459 4.517556557392438 18.71296789791154
-4.017749040384571 5.961604246052943 16.65667537688953
-6.353329930395045 4.099210558694706 11.93145612100156
-2.877103318559698 7.280945836751443 8.528578002273035
-6.893104422485813 4.249096770850474 5.114086021281939
-5.307750772385522 6.343975574371981 2.902959092242224
-5.104163604678869 6.132510324277713 6.623334225541384
-4.891658304896502 5.947376579096344 10.15703581343568
-4.443326078887724 5.926020499552363 13.89026916981004
-5.722553281296874 3.659105253432243 21.6971436853621
-2.680336191967704 6.488152149902634 18.80525502745088
-2.10548853353461 6.459484609726048 21.67717111613495
-2.518867682281786 7.91795077362393 2.427529015269806
-7.324452688802869 3.919987102841195 2.446441628163086
-2.255107282195061 6.955353215922123 15.09748816272797
2.036762255503579 -2.465878735148001 70
-2.931242834104605 1.814244488222067 70
2.220444710834426 2.562529799245061 70
-0.6831995369230197 -3.496268133505534 70
-0.02234530465756696 0.03719856234068248 70
-3.39055316097431 -1.091717545806296 70
3.607782420842984 0.02230827107295836 70
-0.5196398350093629 3.614174438789244 70
0.9224721775360588 4.055579518104577 24
-1.649459128116302 3.684026593102566 24
3.039471309258627 3.9134316688039 24
0.07090651710911113 4.440892098500626e-16 33.20445189881593
-0.01310419542226438 -0.00540522142838995 42.4472108471762
0.004421834945063985 0.00675926987555453 50.90016055483754
-0.02452345960510982 0.001321015852007612 58.28511518494219
3.263478836673941 2.716708650486972 29.4762974709531
1.144656090550804 0.005119792134119727 64.14238371336975
2.972608791000684 -2.945605905333323 29.41410491269578
-3.3239525302268 -3.77836351157436 29.20093533501394
-3.044086562183418 3.030254458067351 29.49924950180442
-3.438261926877407 -0.6390347036485093 37.79394496776005
1.804087169845918 -2.997436027473402 37.79310569341621
1.290066300174048 3.218925212221293 37.83917857748414
-1.734670337064289 2.962863609382222 46.97509595500705
-2.343799725721707 -2.307637337786098 46.73656350156276
2.891709826880147 -1.405763724073945 46.66970512111374
-1.238209688895635 2.896587937148807 54.58995416880452
4.88746072982328 -0.2436254724148429 32.93065920444606
-2.478110621925807 -1.869993012334603 54.58158428993015
2.972038804965462 0.6203883747791098 54.60478003258294
-0.9449660591602498 -4.785552956069848 33.6595702771114
4.391170275406517 0.2859691843170024 40.48742542556851
0.04722210056050363 0.05765531319927963 28.13802556851351
1.245300737926839 4.664641985360502 33.31243919131017
1.280369196251399 5.629046831308066 27.63387690909351
2.637318120292844 3.086773838385739 44.99200494281068
-1.569788370703006 -2.502207306135543 61.64051835877832
-5.210003103104927 -0.5883489204792265 32.78166214294493
-2.270380195053344 3.914477473228565 40.78795326880222
-1.920705425754748 -4.100086256821612 41.36992796308597
-2.023687682343293 1.872817959165616 61.72828453311251
-4.829057971142308 -9.103828801926284e-15 27.43403414361478
-2.795264883847212 3.158350424493552 35.1335222197764
1.415378394599375 -3.455911995425364 53.24251326893322
2.396856356325 3.279029336720171 49.32863860598804
-4.169804775156464 1.045376035269855 43.74208479383435
0.3002046897081174 -5.901561517560218 27.95793902054012
2.348459352683889 -3.756098859130091 42.92133452891842
-4.086894130261612 0.1856604248808884 49.72094217918369
4.829057971142308 -1.998401444325282e-14 27.19379006584213
-1.90250403552159 -2.265576307839764 65.74423279013511
3.31562306904876 -4.205917018888186 33.51336468918371
0.7308936257637467 -4.1266813447383 49.10760820550323
3.311993794576755 -0.6398614998826391 60.664849498233
3.963905301118805 -1.118907011712711 51.00658432803243
-2.047774968372746 1.840817814050948 65.98028891452793
-2.438580132402556 3.727611738840833 50.85154545792809
1.599946158193208 2.973288195870271 60.42350574390545
-3.663659640134198 1.057925830233871 57.12711762638303
0.07930024594098062 -3.749188270449187 56.97410047191172
-2.613702142278504 -3.230044461228912 50.92002575340622
4.80197655226128 1.524734105592378 36.61435215438954

CELLS 3190 14546
1 0
1 1
1 2
1 3
1 4
1 5
1 6
1 7
1 8
1 9
1 10
1 11
2 0 12
2 12 13
2 13 14
2 14 15
2 15 16
2 16 1
2 0 17
2 17 18
2 18 19
2 19 20
2 20 1
2 2 21
2 21 22
2 22 23
2 23 24
2 24 25
2 25 26
2 26 0
2 2 27
2 27 28
2 28 29
2 29 30
2 30 3
2 1 31
2 31 32
2 32 33
2 33 34
2 34 35
2 35 36
2 36 3
2 2 37
2 37 38
2 38 39
2 39 3
2 4 40
2 40 41
2 41 42
2 42 43
2 43 44
2 44 45
2 45 46
2 46 47
2 47 48
2 48 49
2 49 50
2 50 51
2 51 52
2 52 53
2 53 54
2 54 55
2 55 56
2 56 57
2 57 4
2 5 58
2 58 59
2 59 6
2 5 60
2 60 61
2 61 62
2 62 63
2 63 7
2 6 64
2 64 65
2 65 7
2 8 66
2 66 67
2 67 68
2 68 69
2 69 70
2 70 71
2 71 72
2 72 73
2 73 74
2 74 75
2 75 8
2 4 76
2 76 77
2 77 78
2 78 79
2 79 80
2 80 81
2 81 82
2 82 83
2 83 84
2 84 85
2 85 86
2 86 87
2 87 88
2 88 89
2 89 90
2 90 91
2 91 92
2 92 8
2 9 93
2 93 94
2 94 95
2 95 96
2 96 97
2 97 98
2 98 5
2 9 99
2 99 100
2 100 10
2 6 101
2 101 102
2 102 103
2 103 104
2 104 105
2 105 106
2 106 10
2 7 107
2 107 108
2 108 109
2 109 110
2 110 111
2 111 112
2 112 11
2 9 113
2 113 114
2 114 115
2 115 11
2 10 116
2 116 117
2 117 11
3 12 155 0
3 0 155 26
3 1 152 16
3 31 152 1
3 21 150 2
3 2 150 27
3 30 151 3
3 3 151 36
3 13 124 12
3 124 155 12
3 14 148 13
3 13 148 124
3 15 123 14
3 123 148 14
3 16 143 15
3 15 143 123
3 16 152 143
3 22 139 21
3 139 150 21
3 23 118 22
3 118 139 22
3 24 131 23
3 23 131 118
3 25 121 24
3 121 131 24
3 26 145 25
3 25 145 121
3 26 155 145
3 27 129 28
3 27 150 129
3 28 122 29
3 28 129 122
3 29 125 30
3 122 125 29
3 125 151 30
3 32 140 31
3 140 152 31
3 33 119 32
3 119 140 32
3 34 133 33
3 33 133 119
3 35 120 34
3 120 133 34
3 36 130 35
3 35 130 120
3 36 151 130
3 131 154 118
3 118 153 139
3 142 153 118
3 118 154 142
3 133 134 119
3 134 135 119
3 135 140 119
3 130 149 120
3 120 141 133
3 120 149 141
3 121 132 131
3 121 144 132
3 121 145 144
3 122 126 125
3 122 127 126
3 122 129 127
3 135 136 123
3 123 143 135
3 136 137 123
3 137 148 123
3 137 144 124
3 124 148 137
3 144 145 124
3 145 155 124
3 126 149 125
3 125 149 130
3 130 151 125
3 127 128 126
3 128 149 126
3 127 142 128
3 129 153 127
3 127 153 142
3 138 141 128
3 128 147 138
3 141 149 128
3 142 147 128
3 129 150 139
3 139 153 129
3 132 154 131
3 144 146 132
3 146 147 132
3 147 154 132
3 133 141 134
3 134 136 135
3 134 138 136
3 134 141 138
3 135 143 140
3 136 146 137
3 138 146 136
3 137 146 144
3 138 147 146
3 143 152 140
3 142 154 147
3 26 17 0
3 20 182 1
3 1 182 31
3 2 177 21
3 37 177 2
3 36 179 3
3 3 179 39
3 17 183 18
3 26 163 17
3 163 183 17
3 18 156 19
3 18 183 156
3 19 175 20
3 156 175 19
3 175 182 20
3 21 172 22
3 21 177 172
3 22 158 23
3 22 172 158
3 23 174 24
3 158 174 23
3 24 160 25
3 24 174 160
3 25 184 26
3 160 184 25
3 26 184 163
3 31 162 32
3 31 182 162
3 32 171 33
3 162 171 32
3 33 157 34
3 33 171 157
3 34 164 35
3 157 164 34
3 35 159 36
3 35 164 159
3 159 179 36
3 38 161 37
3 161 177 37
3 39 173 38
3 38 173 161
3 39 179 173
3 170 175 156
3 156 181 170
3 156 183 181
3 157 165 164
3 157 166 165
3 157 171 166
3 172 178 158
3 158 176 174
3 158 178 176
3 164 169 159
3 169 173 159
3 173 179 159
3 167 168 160
3 160 174 167
3 168 180 160
3 180 184 160
3 172 177 161
3 161 178 172
3 173 178 161
3 170 171 162
3 162 175 170
3 162 182 175
3 180 183 163
3 163 184 180
3 165 169 164
3 166 167 165
3 167 176 165
3 165 176 169
3 166 168 167
3 166 170 168
3 166 171 170
3 174 176 167
3 170 181 168
3 168 181 180
3 169 178 173
3 176 178 169
3 181 183 180
3 37 2 27
3 30 3 39
3 28 186 27
3 27 186 37
3 29 186 28
3 30 185 29
3 185 186 29
3 39 185 30
3 37 186 38
3 38 185 39
3 38 186 185
3 0 187 7
3 7 189 0
3 50 0 12
3 0 189 17
3 49 0 50
3 49 187 0
3 4 1 5
3 57 1 4
3 1 190 5
3 16 1 57
3 20 190 1
3 40 4 5
3 58 40 5
3 5 190 60
3 44 43 6
3 43 59 6
3 6 194 44
3 64 194 6
3 48 47 7
3 7 47 65
3 7 187 48
3 63 189 7
3 51 12 13
3 50 12 51
3 14 193 13
3 13 52 51
3 13 193 52
3 15 54 14
3 14 54 53
3 53 193 14
3 16 55 15
3 15 55 54
3 16 56 55
3 16 57 56
3 17 192 18
3 17 189 63
3 63 192 17
3 18 188 19
3 62 188 18
3 18 192 62
3 19 191 20
3 19 188 61
3 61 191 19
3 60 190 20
3 20 191 60
3 41 40 58
3 42 41 58
3 42 59 43
3 58 59 42
3 44 194 45
3 46 45 64
3 45 194 64
3 47 46 65
3 65 46 64
3 48 187 49
3 52 193 53
3 60 191 61
3 61 188 62
3 62 192 63
3 40 474 4
3 4 473 57
3 76 473 4
3 4 474 76
3 8 466 66
3 75 470 8
3 92 466 8
3 8 470 92
3 41 217 40
3 217 474 40
3 42 461 41
3 41 461 217
3 43 214 42
3 214 461 42
3 44 478 43
3 43 478 214
3 45 201 44
3 201 478 44
3 46 444 45
3 45 444 201
3 47 212 46
3 212 444 46
3 48 442 47
3 47 442 212
3 49 200 48
3 200 442 48
3 50 447 49
3 49 447 200
3 51 213 50
3 213 447 50
3 52 441 51
3 51 441 213
3 53 203 52
3 203 441 52
3 54 480 53
3 53 480 203
3 55 443 54
3 443 480 54
3 56 211 55
3 211 443 55
3 57 448 56
3 56 448 211
3 57 473 448
3 66 357 67
3 66 466 357
3 67 450 68
3 357 450 67
3 68 209 69
3 68 450 209
3 69 451 70
3 209 451 69
3 70 455 71
3 451 455 70
3 71 205 72
3 71 455 205
3 72 408 73
3 205 408 72
3 73 215 74
3 73 408 215
3 74 416 75
3 215 416 74
3 416 470 75
3 77 218 76
3 76 449 77
3 218 473 76
3 76 474 449
3 77 210 78
3 78 381 77
3 77 449 210
3 77 381 218
3 79 206 78
3 78 354 79
3 206 381 78
3 210 354 78
3 79 204 80
3 80 420 79
3 79 354 204
3 79 420 206
3 81 380 80
3 80 464 81
3 204 464 80
3 380 420 80
3 82 198 81
3 81 379 82
3 198 380 81
3 81 464 379
3 82 197 83
3 83 220 82
3 82 379 197
3 82 220 198
3 84 219 83
3 83 373 84
3 197 373 83
3 219 220 83
3 85 195 84
3 84 208 85
3 195 219 84
3 84 373 208
3 85 368 86
3 86 436 85
3 85 436 195
3 208 368 85
3 86 196 87
3 87 366 86
3 86 368 196
3 366 436 86
3 88 199 87
3 87 446 88
3 196 446 87
3 199 366 87
3 89 425 88
3 88 462 89
3 88 425 199
3 446 462 88
3 89 202 90
3 90 364 89
3 89 462 202
3 364 425 89
3 91 207 90
3 90 355 91
3 202 355 90
3 207 364 90
3 91 216 92
3 92 362 91
3 91 362 207
3 91 355 216
3 216 466 92
3 92 470 362
3 195 222 219
3 195 254 222
3 195 436 254
3 196 370 341
3 341 446 196
3 368 370 196
3 197 481 373
3 379 457 197
3 457 481 197
3 220 221 198
3 221 223 198
3 223 380 198
3 199 423 366
3 199 424 423
3 199 425 424
3 200 447 389
3 389 476 200
3 200 476 442
3 431 432 201
3 201 433 431
3 432 478 201
3 201 444 433
3 338 456 202
3 202 462 338
3 202 456 355
3 322 441 203
3 203 458 322
3 394 458 203
3 203 480 394
3 349 353 204
3 204 354 349
3 353 464 204
3 343 410 205
3 205 455 343
3 205 410 408
3 206 429 381
3 420 421 206
3 421 429 206
3 362 363 207
3 363 440 207
3 207 440 364
3 208 369 368
3 208 445 369
3 373 445 208
3 209 413 342
3 342 475 209
3 209 450 413
3 209 475 451
3 210 401 354
3 210 469 401
3 449 469 210
3 211 448 435
3 435 471 211
3 211 471 443
3 442 459 212
3 212 463 444
3 459 463 212
3 428 447 213
3 213 468 428
3 441 468 213
3 402 461 214
3 214 467 402
3 432 467 214
3 214 478 432
3 408 409 215
3 409 465 215
3 215 465 416
3 355 356 216
3 356 357 216
3 357 466 216
3 217 461 402
3 402 469 217
3 217 469 449
3 449 474 217
3 381 435 218
3 435 448 218
3 448 473 218
3 219 422 220
3 222 422 219
3 220 422 221
3 221 224 223
3 221 414 224
3 221 422 414
3 254 255 222
3 255 348 222
3 348 422 222
3 224 225 223
3 225 314 223
3 314 380 223
3 224 226 225
3 224 227 226
3 224 414 227
3 226 383 225
3 225 372 314
3 225 383 372
3 227 228 226
3 228 230 226
3 230 383 226
3 227 229 228
3 227 344 229
3 227 414 344
3 229 375 228
3 228 231 230
3 228 375 231
3 344 345 229
3 345 346 229
3 346 375 229
3 231 232 230
3 232 248 230
3 248 383 230
3 231 233 232
3 231 234 233
3 231 375 234
3 233 382 232
3 232 283 248
3 232 382 283
3 234 235 233
3 235 251 233
3 251 382 233
3 234 236 235
3 234 376 236
3 375 376 234
3 236 237 235
3 237 398 235
3 235 398 251
3 236 238 237
3 236 272 238
3 236 376 272
3 238 239 237
3 239 246 237
3 246 398 237
3 238 240 239
3 238 417 240
3 272 417 238
3 240 241 239
3 241 404 239
3 239 404 246
3 240 242 241
3 240 243 242
3 240 417 243
3 242 244 241
3 244 245 241
3 245 404 241
3 243 358 242
3 242 247 244
3 242 358 247
3 325 358 243
3 243 359 325
3 243 417 359
3 244 249 245
3 247 395 244
3 244 395 249
3 249 250 245
3 250 403 245
3 403 404 245
3 246 407 398
3 404 418 246
3 246 418 407
3 358 361 247
3 361 453 247
3 247 453 395
3 283 284 248
3 284 296 248
3 296 383 248
3 249 252 250
3 249 253 252
3 249 395 253
3 252 275 250
3 275 276 250
3 276 403 250
3 251 385 382
3 251 387 385
3 251 398 387
3 253 384 252
3 252 277 275
3 252 384 277
3 337 351 253
3 253 395 337
3 351 384 253
3 254 256 255
3 254 315 256
3 254 436 315
3 256 257 255
3 257 307 255
3 307 348 255
3 256 258 257
3 256 367 258
3 315 367 256
3 258 259 257
3 259 377 257
3 257 377 307
3 258 260 259
3 258 290 260
3 258 367 290
3 260 261 259
3 261 287 259
3 287 377 259
3 260 262 261
3 260 371 262
3 290 371 260
3 262 263 261
3 263 400 261
3 261 400 287
3 262 264 263
3 262 265 264
3 262 371 265
3 264 270 263
3 270 281 263
3 281 400 263
3 265 266 264
3 266 378 264
3 264 378 270
3 265 267 266
3 265 374 267
3 371 374 265
3 267 268 266
3 268 269 266
3 269 378 266
3 267 278 268
3 267 279 278
3 267 374 279
3 268 271 269
3 268 427 271
3 278 427 268
3 271 273 269
3 273 406 269
3 269 406 378
3 270 282 281
3 270 316 282
3 270 378 316
3 271 274 273
3 271 280 274
3 271 427 280
3 272 396 360
3 360 417 272
3 376 396 272
3 274 285 273
3 285 286 273
3 286 406 273
3 280 295 274
3 274 399 285
3 295 399 274
3 275 434 276
3 277 292 275
3 292 434 275
3 276 439 403
3 434 452 276
3 276 452 439
3 277 293 292
3 277 301 293
3 277 384 301
3 279 291 278
3 291 419 278
3 419 427 278
3 279 294 291
3 279 298 294
3 279 374 298
3 280 308 295
3 280 309 308
3 280 427 309
3 282 304 281
3 304 310 281
3 310 400 281
3 282 305 304
3 282 405 305
3 316 405 282
3 283 311 284
3 283 312 311
3 283 382 312
3 284 297 296
3 284 393 297
3 311 393 284
3 285 288 286
3 285 302 288
3 285 399 302
3 288 289 286
3 289 415 286
3 286 415 406
3 347 377 287
3 287 438 347
3 400 438 287
3 288 437 289
3 302 303 288
3 303 437 288
3 365 426 289
3 289 437 365
3 289 426 415
3 367 411 290
3 290 397 371
3 290 411 397
3 294 454 291
3 291 479 419
3 454 479 291
3 293 430 292
3 430 431 292
3 431 434 292
3 301 313 293
3 313 319 293
3 319 430 293
3 298 299 294
3 299 300 294
3 300 454 294
3 308 342 295
3 342 412 295
3 295 412 399
3 297 317 296
3 317 372 296
3 372 383 296
3 297 320 317
3 297 321 320
3 297 393 321
3 298 306 299
3 298 397 306
3 374 397 298
3 299 440 300
3 306 318 299
3 318 440 299
3 300 440 363
3 363 465 300
3 409 454 300
3 300 465 409
3 301 349 313
3 301 350 349
3 301 384 350
3 302 338 303
3 302 339 338
3 302 399 339
3 338 340 303
3 340 341 303
3 341 437 303
3 305 325 304
3 304 359 310
3 325 359 304
3 305 326 325
3 305 327 326
3 305 405 327
3 306 424 318
3 397 411 306
3 411 424 306
3 307 345 344
3 344 348 307
3 307 377 345
3 309 324 308
3 324 475 308
3 308 475 342
3 309 343 324
3 309 419 343
3 309 427 419
3 359 360 310
3 360 438 310
3 310 438 400
3 312 322 311
3 322 458 311
3 311 458 393
3 312 323 322
3 312 385 323
3 382 385 312
3 313 401 319
3 349 354 313
3 354 401 313
3 372 421 314
3 314 420 380
3 314 421 420
3 366 423 315
3 315 436 366
3 315 423 367
3 378 406 316
3 316 415 405
3 406 415 316
3 320 429 317
3 317 421 372
3 317 429 421
3 318 425 364
3 364 440 318
3 424 425 318
3 401 402 319
3 402 467 319
3 319 467 430
3 321 471 320
3 320 435 429
3 320 471 435
3 393 394 321
3 394 443 321
3 443 471 321
3 323 468 322
3 322 468 441
3 385 386 323
3 386 428 323
3 428 468 323
3 343 455 324
3 324 455 451
3 451 475 324
3 326 358 325
3 327 328 326
3 328 361 326
3 326 361 358
3 327 329 328
3 327 426 329
3 405 426 327
3 329 330 328
3 330 331 328
3 331 361 328
3 329 332 330
3 329 365 332
3 329 426 365
3 330 333 331
3 332 472 330
3 330 472 333
3 333 334 331
3 334 453 331
3 331 453 361
3 365 460 332
3 332 370 369
3 369 472 332
3 332 460 370
3 333 335 334
3 333 445 335
3 333 472 445
3 335 336 334
3 336 337 334
3 337 453 334
3 335 457 336
3 445 481 335
3 335 481 457
3 336 351 337
3 336 352 351
3 336 457 352
3 395 453 337
3 339 456 338
3 338 462 340
3 399 412 339
3 412 477 339
3 339 477 456
3 340 446 341
3 340 462 446
3 370 460 341
3 341 460 437
3 342 413 412
3 343 479 410
3 419 479 343
3 344 414 348
3 345 347 346
3 345 377 347
3 347 396 346
3 346 376 375
3 346 396 376
3 347 438 396
3 414 422 348
3 350 353 349
3 351 352 350
3 350 384 351
3 352 353 350
3 352 379 353
3 352 457 379
3 379 464 353
3 355 456 356
3 356 413 357
3 356 477 413
3 456 477 356
3 413 450 357
3 359 417 360
3 396 438 360
3 362 416 363
3 362 470 416
3 416 465 363
3 437 460 365
3 367 423 411
3 369 370 368
3 445 472 369
3 371 397 374
3 373 481 445
3 429 435 381
3 385 387 386
3 387 388 386
3 388 389 386
3 389 428 386
3 387 407 388
3 398 407 387
3 388 390 389
3 388 391 390
3 388 407 391
3 390 476 389
3 389 447 428
3 391 392 390
3 392 459 390
3 459 476 390
3 391 439 392
3 407 418 391
3 418 439 391
3 439 452 392
3 452 463 392
3 392 463 459
3 393 458 394
3 394 480 443
3 401 469 402
3 403 418 404
3 403 439 418
3 415 426 405
3 408 410 409
3 410 454 409
3 410 479 454
3 423 424 411
3 413 477 412
3 430 432 431
3 430 467 432
3 433 434 431
3 433 452 434
3 444 463 433
3 433 463 452
3 442 476 459
3 58 5 500
3 5 98 500
3 6 59 499
3 101 6 499
3 93 9 496
3 9 99 496
3 100 10 498
3 10 106 498
3 59 58 492
3 492 58 500
3 59 492 499
3 94 93 487
3 487 93 496
3 95 94 483
3 483 94 487
3 96 95 489
3 95 483 489
3 97 96 482
3 482 96 489
3 98 97 491
3 97 482 491
3 98 491 500
3 99 100 484
3 99 484 496
3 484 100 498
3 102 101 485
3 485 101 499
3 103 102 490
3 102 485 490
3 104 103 486
3 486 103 490
3 105 104 501
3 104 486 501
3 106 105 497
3 497 105 501
3 106 497 498
3 482 489 494
3 491 482 493
3 493 482 494
3 483 487 488
3 483 488 495
3 489 483 495
3 484 487 496
3 487 484 497
3 497 484 498
3 490 485 493
3 485 492 493
3 492 485 499
3 486 490 494
3 486 494 495
3 486 495 501
3 488 487 497
3 495 488 501
3 488 497 501
3 494 489 495
3 490 493 494
3 492 491 493
3 491 492 500
3 5 60 528
3 98 5 528
3 107 63 7
3 9 93 525
3 113 9 525
3 112 11 523
3 11 115 523
3 60 61 521
3 60 521 528
3 61 62 502
3 61 502 521
3 62 63 529
3 502 62 529
3 63 107 509
3 63 509 529
3 93 94 505
3 93 505 525
3 94 95 510
3 505 94 510
3 95 96 503
3 95 503 510
3 96 97 517
3 503 96 517
3 97 98 508
3 97 508 517
3 508 98 528
3 107 108 530
3 509 107 530
3 108 109 506
3 108 506 530
3 109 110 520
3 506 109 520
3 110 111 504
3 110 504 520
3 111 112 518
3 504 111 518
3 518 112 523
3 114 113 519
3 519 113 525
3 115 114 507
3 507 114 519
3 115 507 523
3 502 516 521
3 516 502 527
3 527 502 529
3 510 503 511
3 511 503 512
3 512 503 517
3 504 518 524
3 520 504 522
3 522 504 524
3 505 510 515
3 505 515 519
3 505 519 525
3 506 513 514
3 513 506 520
3 506 514 526
3 506 526 530
3 507 518 523
3 518 507 524
3 507 519 524
3 508 516 517
3 516 508 521
3 521 508 528
3 509 526 529
3 526 509 530
3 510 511 515
3 511 512 513
3 511 513 522
3 515 511 522
3 513 512 514
3 514 512 516
3 516 512 517
3 513 520 522
3 514 516 527
3 526 514 527
3 519 515 524
3 515 522 524
3 526 527 529
3 64 6 548
3 6 101 548
3 7 65 549
3 107 7 549
3 106 10 547
3 10 116 547
3 11 112 545
3 117 11 545
3 65 64 541
3 541 64 548
3 65 541 549
3 101 102 534
3 101 534 548
3 102 103 539
3 534 102 539
3 103 104 535
3 103 535 539
3 104 105 550
3 535 104 550
3 105 106 546
3 105 546 550
3 546 106 547
3 108 107 540
3 540 107 549
3 109 108 531
3 531 108 540
3 110 109 538
3 109 531 538
3 111 110 532
3 532 110 538
3 112 111 536
3 111 532 536
3 112 536 545
3 116 117 533
3 116 533 547
3 533 117 545
3 538 531 543
3 531 540 542
3 531 542 543
3 536 532 537
3 537 532 544
3 532 538 544
3 536 533 545
3 533 536 546
3 533 546 547
3 534 539 542
3 541 534 542
3 534 541 548
3 539 535 543
3 543 535 544
3 544 535 550
3 536 537 546
3 537 544 550
3 546 537 550
3 538 543 544
3 542 539 543
3 540 541 542
3 541 540 549
3 66 557 8
3 8 557 75
3 67 553 66
3 553 557 66
3 68 558 67
3 67 558 553
3 69 558 68
3 70 552 69
3 552 558 69
3 71 556 70
3 70 556 552
3 72 556 71
3 73 554 72
3 554 556 72
3 74 554 73
3 75 551 74
3 551 554 74
3 75 557 551
3 551 555 554
3 551 557 555
3 552 556 555
3 555 558 552
3 555 557 553
3 553 558 555
3 555 556 554
3 113 99 9
3 10 100 559
3 116 10 560
3 10 559 560
3 117 115 11
3 100 99 561
3 99 113 561
3 559 100 561
3 113 114 559
3 113 559 561
3 114 115 560
3 559 114 560
3 115 117 560
3 117 116 560
4 377 259 257 572
4 257 572 259 590
4 377 259 572 590
4 571 287 581 590
4 577 608 295 609
4 561 559 113 566
4 99 561 566 585
4 377 572 581 590
4 445 566 481 578
4 571 581 572 590
4 445 566 578 584
4 573 586 332 589
4 99 100 561 585
4 377 581 287 590
4 271 577 579 599
4 559 566 561 585
4 377 287 259 590
4 295 608 591 609
4 291 609 587 610
4 457 566 99 600
4 364 604 580 610
4 263 590 571 596
4 28 27 375 569
4 561 99 566 600
4 419 587 291 609
4 257 377 572 581
4 263 575 262 590
4 365 332 586 589
4 577 580 339 608
4 263 571 281 596
4 365 586 574 589
4 86 582 576 586
4 86 576 87 586
4 271 579 268 599
4 457 99 566 585
4 195 572 578 602
4 291 579 609 610
4 271 577 599 607
4 9 457 99 600
4 271 579 577 609
4 263 575 590 596
4 560 116 570 585
4 30 221 3 600
4 195 578 572 612
4 565 608 577 609
4 338 580 577 595
4 289 426 365 574
4 305 282 571 589
4 30 568 221 600
4 426 365 574 589
4 247 570 116 585
4 264 262 263 575
4 27 376 569 592
4 290 590 575 598
4 587 609 565 610
4 361 584 570 585
4 571 581 438 588
4 395 116 10 585
4 335 481 445 566
4 565 580 577 608
4 290 598 575 603
4 27 346 375 569
4 438 571 287 581
4 347 581 569 588
4 456 339 580 608
4 366 576 86 582
4 573 582 370 586
4 580 604 202 608
4 264 575 263 596
4 414 568 30 597
4 254 436 195 572
4 553 357 567 606
4 551 557 470 567
4 290 260 575 590
4 220 568 578 600
4 263 400 571 590
4 466 557 553 567
4 335 566 445 584
4 561 113 99 600
4 242 117 116 570
4 445 584 578 612
4 580 604 565 610
4 220 221 568 600
4 99 336 100 585
4 254 436 572 598
4 355 202 604 608
4 282 571 589 596
4 436 195 572 582
4 282 281 571 596
4 370 332 573 586
4 373 445 481 578
4 457 336 99 585
4 591 608 565 609
4 561 566 113 600
4 338 577 302 595
4 346 27 376 569
4 365 332 460 586
4 551 567 416 601
4 563 586 573 589
4 281 263 400 571
4 291 579 278 609
4 566 562 570 583
4 220 578 83 600
4 419 291 278 609
4 29 414 30 597
4 436 582 572 598
4 399 577 339 608
4 257 256 572 590
4 202 580 90 604
4 553 450 357 606
4 221 30 414 568
4 560 116 117 570
4 576 582 366 598
4 185 583 38 597
4 195 572 582 612
4 305 589 571 593
4 568 597 348 602
4 197 481 566 578
4 553 558 450 606
4 396 347 569 588
4 587 604 300 610
4 289 574 365 586
4 440 604 364 610
4 257 258 256 590
4 366 87 86 576
4 557 555 553 567
4 114 560 583 585
4 305 282 304 571
4 571 572 562 573
4 86 87 196 586
4 399 339 412 608
4 2 272 27 592
4 117 240 11 592
4 361 453 584 585
4 363 587 567 604
4 415 426 574 589
4 348 568 414 597
4 272 569 376 592
4 553 567 555 606
4 364 90 580 604
4 302 595 577 607
4 419 309 587 609
4 355 202 90 604
4 563 582 573 586
4 551 555 567 601
4 309 591 587 609
4 114 559 560 585
4 570 584 566 585
4 572 590 256 598
4 290 367 598 603
4 566 570 562 584
4 570 583 560 585
4 567 587 465 601
4 257 572 255 581
4 361 570 453 585
4 27 272 376 592
4 339 577 338 580
4 289 437 574 586
4 551 470 416 567
4 553 357 466 567
4 470 557 92 567
4 375 27 376 346
4 563 572 571 573
4 290 411 367 603
4 197 566 457 600
4 185 30 568 597
4 344 597 581 602
4 271 268 579 609
4 438 581 347 588
4 344 348 597 602
4 295 412 591 608
4 185 568 583 597
4 9 197 457 600
4 271 599 269 607
4 289 365 437 586
4 378 264 596 599
4 422 578 568 602
4 577 580 564 595
4 555 557 551 567
4 566 584 334 585
4 371 290 260 575
4 257 255 307 581
4 378 574 406 599
4 271 268 269 599
4 570 584 361 593
4 567 591 413 608
4 242 240 117 592
4 344 348 414 597
4 456 580 202 608
4 575 596 264 599
4 38 583 186 597
4 256 590 258 598
4 565 604 580 608
4 576 598 423 603
4 242 117 570 592
4 287 571 400 590
4 415 589 574 596
4 579 565 609 610
4 466 92 557 567
4 325 588 570 593
4 363 465 567 587
4 219 578 422 602
4 289 415 426 574
4 263 261 400 590
4 406 574 378 596
4 566 568 562 583
4 247 116 395 585
4 185 29 30 597
4 334 566 335 584
4 560 570 115 583
4 574 378 596 599
4 185 38 186 597
4 560 115 114 583
4 255 581 572 602
4 328 573 329 589
4 551 416 215 601
4 573 589 328 593
4 413 591 567 606
4 564 575 574 576
4 86 196 582 586
4 271 269 273 607
4 335 566 334 585
4 28 186 27 569
4 365 329 332 589
4 373 445 578 612
4 327 328 589 593
4 562 572 571 581
4 254 315 436 598
4 185 568 39 583
4 346 229 375 597
4 566 583 570 585
4 416 567 465 601
4 305 571 304 593
4 369 370 573 582
4 414 29 30 224
4 562 568 566 578
4 456 339 338 580
4 560 117 115 570
4 453 334 584 585
4 375 229 28 597
4 329 573 332 589
4 446 595 576 605
4 186 583 569 597
4 562 573 572 612
4 564 579 577 599
4 568 581 597 602
4 573 584 472 612
4 324 601 591 606
4 258 590 290 598
4 562 569 568 581
4 574 586 563 589
4 366 582 436 598
4 564 576 574 595
4 325 243 570 588
4 396 438 347 588
4 197 373 481 578
4 574 575 563 576
4 262 575 260 590
4 242 116 247 570
4 355 456 202 608
4 587 591 343 601
4 363 300 587 604
4 288 574 437 595
4 185 39 38 583
4 357 567 413 608
4 562 572 578 612
4 568 569 562 583
4 327 328 329 589
4 445 472 584 612
4 254 572 256 598
4 446 586 576 595
4 287 400 261 590
4 30 39 185 568
4 551 215 554 601
4 302 288 595 607
4 446 576 87 605
4 307 581 255 602
4 325 570 358 593
4 291 419 479 587
4 270 263 281 596
4 346 569 345 597
4 39 568 30 600
4 216 604 567 608
4 562 581 571 588
4 91 92 216 567
4 304 571 588 593
4 186 569 28 597
4 85 195 582 612
4 87 576 446 586
4 91 362 92 567
4 575 598 576 603
4 195 578 219 602
4 345 569 581 597
4 282 281 304 571
4 566 583 113 600
4 560 10 116 585
4 338 302 303 595
4 27 569 37 592
4 400 287 438 571
4 345 346 347 569
4 316 406 378 596
4 268 599 579 611
4 115 570 117 592
4 290 258 260 590
4 416 465 215 601
4 568 581 569 597
4 247 453 570 585
4 470 92 362 567
4 327 589 305 593
4 569 562 583 588
4 371 290 575 603
4 274 577 295 609
4 577 595 564 607
4 362 567 91 604
4 255 572 254 602
4 255 254 222 602
4 437 574 586 595
4 328 330 573 584
4 243 570 588 592
4 572 573 563 582
4 371 260 262 575
4 362 363 567 604
4 345 569 347 581
4 562 578 572 602
4 564 599 577 607
4 91 567 216 604
4 415 405 589 596
4 267 268 579 611
4 307 344 581 602
4 316 574 406 596
4 574 576 563 586
4 569 583 570 588
4 328 330 329 573
4 302 288 303 595
4 438 287 347 581
4 369 370 332 573
4 221 422 220 568
4 363 300 604 610
4 348 422 414 568
4 328 584 573 593
4 83 373 197 578
4 417 588 360 592
4 563 573 571 589
4 307 348 344 602
4 274 399 295 577
4 570 583 562 588
4 571 573 562 593
4 576 586 574 595
4 267 599 268 611
4 571 590 563 596
4 27 186 37 569
4 358 325 243 570
4 362 416 470 567
4 310 571 438 588
4 289 437 288 574
4 288 574 595 607
4 361 358 570 593
4 115 583 570 592
4 316 415 406 574
4 366 86 436 582
4 363 604 440 610
4 422 568 348 602
4 566 562 578 584
4 576 582 563 586
4 304 571 310 588
4 84 578 195 612
4 369 582 573 612
4 272 417 360 592
4 436 85 195 582
4 264 265 575 599
4 37 114 115 583
4 396 376 272 569
4 261 263 262 590
4 216 92 466 567
4 39 583 568 600
4 565 604 587 610
4 577 579 564 580
4 571 572 563 590
4 446 87 88 605
4 370 460 332 586
4 338 340 462 595
4 343 591 324 601
4 37 569 583 592
4 243 588 417 592
4 264 266 265 599
4 221 414 422 568
4 424 576 423 603
4 115 37 583 592
4 220 219 83 578
4 578 584 562 612
4 195 219 222 602
4 338 462 580 595
4 565 579 577 580
4 580 595 462 605
4 566 578 568 600
4 315 366 436 598
4 339 302 338 577
4 570 583 569 592
4 587 591 565 609
4 440 207 364 604
4 453 334 331 584
4 345 581 344 597
4 415 574 316 596
4 254 256 315 598
4 328 361 584 593
4 264 263 270 596
4 257 256 255 572
4 481 335 457 566
4 379 9 457 99
4 562 581 568 602
4 199 87 576 605
4 114 37 38 583
4 579 580 565 610
4 576 603 424 605
4 295 591 280 609
4 563 582 576 598
4 424 199 423 576
4 574 589 563 596
4 282 270 281 596
4 29 227 414 597
4 199 576 424 605
4 224 30 414 221
4 472 573 330 584
4 365 460 437 586
4 563 589 571 596
4 579 594 580 610
4 579 594 298 611
4 343 587 309 591
4 454 291 587 610
4 304 588 325 593
4 466 357 216 567
4 415 405 426 589
4 364 89 425 580
4 335 445 333 584
4 573 562 584 612
4 279 298 579 610
4 564 580 579 594
4 198 3 30 221
4 562 584 570 593
4 465 587 409 601
4 279 579 298 611
4 310 400 438 571
4 412 342 591 608
4 278 579 268 609
4 216 355 604 608
4 305 405 282 589
4 457 197 481 566
4 2 27 37 592
4 330 332 329 573
4 367 258 290 598
4 298 594 579 610
4 346 376 396 569
4 357 413 356 608
4 563 575 590 598
4 427 278 268 609
4 256 254 255 572
4 555 567 601 606
4 9 197 379 457
4 563 590 575 596
4 346 396 347 569
4 361 453 331 584
4 553 555 558 606
4 369 368 370 582
4 563 576 575 598
4 571 589 573 593
4 257 259 258 590
4 114 38 39 583
4 415 316 405 596
4 267 266 268 599
4 279 579 291 610
4 366 423 576 598
4 82 3 198 600
4 565 587 567 591
4 346 345 229 597
4 363 440 300 610
4 361 247 453 570
4 569 588 570 592
4 295 308 280 591
4 342 591 413 606
4 568 583 566 600
4 240 238 11 592
4 569 583 568 597
4 39 30 3 600
4 39 113 583 600
4 282 589 405 596
4 82 197 9 600
4 202 456 338 580
4 343 419 309 587
4 572 573 582 612
4 298 594 603 611
4 207 90 364 604
4 371 603 575 611
4 195 84 219 578
4 257 307 377 581
4 39 113 114 583
4 562 569 581 588
4 567 587 565 604
4 295 412 342 591
4 199 88 87 605
4 414 227 29 224
4 574 575 564 599
4 363 300 465 587
4 82 220 83 600
4 286 289 288 574
4 565 591 567 608
4 333 445 472 584
4 368 582 369 612
4 334 335 333 584
4 564 595 580 605
4 411 424 423 603
4 89 425 580 605
4 563 575 574 596
4 274 271 577 609
4 298 603 397 611
4 364 90 89 580
4 565 567 604 608
4 472 369 573 612
4 288 286 574 607
4 427 419 278 609
4 574 596 575 599
4 575 576 564 603
4 575 599 265 611
4 453 247 395 585
4 360 438 396 588
4 562 572 581 602
4 551 554 555 601
4 281 400 310 571
4 327 305 326 593
4 82 198 220 600
4 298 594 306 603
4 406 599 574 607
4 325 359 243 588
4 336 335 334 585
4 270 378 264 596
4 397 603 371 611
4 265 371 575 611
4 115 117 11 592
4 264 265 262 575
4 377 347 287 581
4 85 84 195 612
4 328 361 331 584
4 562 568 578 602
4 298 306 397 603
4 83 197 82 600
4 279 278 291 579
4 332 330 472 573
4 264 378 266 599
4 371 397 290 603
4 280 591 309 609
4 567 591 587 601
4 196 87 446 586
4 332 472 369 573
4 304 359 325 588
4 229 227 28 597
4 285 577 274 607
4 424 603 594 605
4 462 340 446 595
4 365 426 329 589
4 243 417 240 592
4 287 261 259 590
4 281 310 304 571
4 279 294 298 610
4 273 285 274 607
4 279 291 294 610
4 9 99 113 600
4 28 229 228 227
4 338 303 340 595
4 304 310 359 588
4 299 318 594 610
4 91 216 355 604
4 572 582 563 598
4 370 582 196 586
4 562 570 588 593
4 576 595 564 605
4 325 305 304 593
4 269 599 406 607
4 28 227 29 597
4 333 472 330 584
4 266 599 267 611
4 308 309 280 591
4 328 326 361 593
4 266 265 599 611
4 265 371 262 575
4 238 2 11 592
4 366 315 423 598
4 563 590 572 598
4 342 475 591 606
4 345 307 344 581
4 366 199 87 576
4 286 406 415 574
4 117 244 242 116
4 366 423 199 576
4 238 272 2 592
4 273 269 406 607
4 302 577 285 607
4 424 594 318 605
4 324 455 601 606
4 327 326 328 593
4 374 397 371 611
4 571 562 588 593
4 406 574 286 607
4 472 445 369 612
4 243 359 417 588
4 454 587 300 610
4 288 437 303 595
4 413 591 342 608
4 240 417 238 592
4 268 278 267 579
4 370 368 196 582
4 274 295 280 609
4 98 97 31 76
4 412 413 342 608
4 324 343 309 591
4 98 31 1 76
4 361 326 358 593
4 282 405 316 596
4 261 262 260 590
4 97 32 31 76
4 271 427 268 609
4 591 601 567 606
4 215 465 409 601
4 306 594 424 603
4 424 318 425 605
4 564 579 599 611
4 573 584 562 593
4 374 279 298 611
4 286 415 289 574
4 343 479 419 587
4 228 29 28 227
4 574 564 595 607
4 409 465 300 587
4 533 547 244 116
4 216 356 355 608
4 90 202 89 580
4 267 579 279 611
4 291 479 454 587
4 102 101 534 201
4 454 294 291 610
4 299 440 318 610
4 109 25 389 108
4 477 412 339 608
4 298 397 374 611
4 237 11 2 112
4 2 21 237 112
4 358 247 361 570
4 339 399 302 577
4 302 285 288 607
4 328 331 330 584
4 266 267 265 611
4 86 196 368 582
4 577 579 565 609
4 455 343 324 601
4 265 374 371 611
4 85 582 368 612
4 25 109 389 24
4 309 419 427 609
4 462 89 580 605
4 188 19 61 502
4 342 413 209 606
4 98 1 5 76
4 373 578 84 612
4 209 413 450 606
4 33 97 96 77
4 10 560 559 585
4 97 33 32 77
4 278 279 267 579
4 305 327 405 589
4 363 207 440 604
4 247 242 244 116
4 10 337 395 585
4 197 82 9 379
4 222 219 422 602
4 77 32 97 76
4 28 27 231 375
4 27 28 231 129
4 555 601 556 606
4 237 2 11 238
4 554 215 408 601
4 72 408 205 601
4 238 417 272 592
4 358 242 247 570
4 373 208 445 612
4 82 9 3 600
4 295 342 308 591
4 205 556 72 601
4 367 256 258 598
4 25 107 476 108
4 96 95 503 157
4 576 564 603 605
4 95 157 510 503
4 157 95 510 34
4 455 552 556 606
4 119 140 32 218
4 521 19 61 191
4 95 35 510 34
4 455 556 601 606
4 348 307 255 602
4 33 95 157 34
4 95 33 157 96
4 157 34 510 164
4 150 2 21 236
4 268 266 269 599
4 510 34 35 164
4 510 35 505 159
4 159 510 35 164
4 564 574 599 607
4 564 575 603 611
4 310 438 360 588
4 547 10 395 116
4 342 209 475 606
4 285 302 399 577
4 72 554 408 601
4 518 177 161 523
4 115 177 11 523
4 507 161 114 115
4 505 35 36 159
4 274 285 399 577
4 358 243 242 570
4 501 301 497 488
4 485 430 102 490
4 208 85 368 612
4 237 11 112 239
4 269 378 406 599
4 380 3 151 223
4 564 599 575 611
4 177 115 161 523
4 535 104 103 292
4 270 316 378 596
4 502 188 19 156
4 357 553 67 450
4 503 517 96 157
4 236 21 150 235
4 546 250 537 536
4 553 558 67 450
4 437 586 341 595
4 424 306 318 594
4 336 99 100 352
4 420 35 34 120
4 122 127 230 129
4 131 23 24 387
4 96 517 33 157
4 97 517 33 96
4 555 556 552 606
4 517 33 32 97
4 345 344 229 597
4 204 483 95 94
4 408 215 409 601
4 250 403 537 536
4 532 538 110 439
4 336 337 100 585
4 72 556 554 601
4 208 368 369 612
4 330 331 333 584
4 83 219 84 578
4 550 105 252 546
4 299 594 298 610
4 11 237 238 239
4 314 225 130 372
4 389 390 109 108
4 312 154 132 131
4 232 127 248 142
4 122 28 231 228
4 231 27 234 375
4 230 231 122 129
4 343 410 587 601
4 267 279 374 611
4 118 22 23 387
4 22 21 112 246
4 161 37 114 115
4 559 561 100 585
4 372 120 130 421
4 417 359 360 588
4 564 594 579 611
4 486 490 293 494
4 459 476 540 108
4 283 232 248 142
4 317 120 141 372
4 208 369 445 612
4 22 118 251 387
4 409 300 454 587
4 523 177 11 112
4 35 95 510 94
4 86 85 436 582
4 423 315 367 598
4 201 102 101 432
4 521 19 191 175
4 331 334 333 584
4 477 339 456 608
4 21 22 398 246
4 244 547 249 116
4 505 35 510 94
4 231 234 27 129
4 33 517 171 157
4 1 4 5 76
4 324 591 475 606
4 189 107 163 509
4 510 157 511 503
4 517 32 33 171
4 372 317 120 421
4 161 507 518 523
4 547 395 249 116
4 157 510 511 164
4 2 21 236 237
4 130 314 372 421
4 409 587 410 601
4 230 127 231 129
4 161 114 173 507
4 151 3 30 223
4 93 35 36 505
4 462 88 89 605
4 420 34 206 120
4 490 430 103 486
4 325 326 305 593
4 36 9 3 81
4 36 35 420 130
4 97 31 508 98
4 3 525 36 179
4 170 508 171 162
4 115 507 161 523
4 329 426 327 589
4 270 282 316 596
4 397 411 290 603
4 209 450 558 606
4 552 455 451 606
4 418 111 532 536
4 389 388 24 109
4 475 324 308 591
4 508 32 31 97
4 517 503 512 157
4 104 535 275 292
4 166 516 517 171
4 474 98 5 76
4 181 526 527 529
4 202 338 462 580
4 580 594 564 605
4 526 181 180 529
4 190 31 1 98
4 538 109 392 531
4 204 93 487 94
4 235 236 21 237
4 3 380 198 223
4 385 118 131 387
4 453 395 337 585
4 542 534 541 444
4 161 37 38 114
4 508 517 516 171
4 451 69 552 606
4 274 280 271 609
4 36 420 380 130
4 32 508 31 162
4 98 500 491 217
4 341 586 446 595
4 517 32 508 97
4 31 1 76 473
4 249 547 244 533
4 432 430 102 485
4 454 300 294 610
4 325 358 326 593
4 13 52 193 148
4 516 166 170 171
4 517 512 516 166
4 502 181 170 527
4 131 118 23 387
4 594 603 564 605
4 260 258 259 590
4 373 84 208 612
4 476 442 459 540
4 36 35 93 80
4 115 11 37 592
4 373 83 84 578
4 482 489 96 210
4 525 3 36 9
4 112 111 22 246
4 511 157 512 503
4 11 37 177 115
4 153 233 232 129
4 532 110 418 439
4 100 337 10 585
4 306 424 411 603
4 403 418 532 536
4 168 180 160 526
4 172 177 161 518
4 130 151 225 314
4 344 414 227 597
4 501 104 277 486
4 36 35 80 420
4 509 183 163 192
4 511 157 164 165
4 508 170 171 516
4 237 21 398 246
4 97 98 449 76
4 170 521 508 162
4 205 455 556 601
4 166 517 157 171
4 162 32 508 171
4 10 100 498 351
4 86 368 85 582
4 554 556 555 601
4 122 231 28 129
4 115 177 161 37
4 114 161 173 38
4 81 36 9 93
4 70 451 552 455
4 198 30 3 223
4 425 199 424 605
4 24 131 387 386
4 114 173 39 38
4 192 509 183 529
4 252 250 550 546
4 564 603 594 611
4 516 168 166 514
4 531 390 459 108
4 229 375 28 228
4 74 554 551 215
4 206 34 33 133
4 127 231 232 230
4 133 120 317 421
4 418 111 536 404
4 355 90 91 604
4 387 22 23 407
4 154 312 385 131
4 137 458 394 393
4 475 308 342 591
4 388 23 24 109
4 231 122 228 230
4 392 391 109 538
4 517 166 157 512
4 36 525 505 179
4 383 125 122 226
4 32 517 508 171
4 521 170 175 162
4 505 93 35 94
4 546 547 249 533
4 187 49 26 200
4 200 187 48 107
4 201 534 102 431
4 420 130 120 421
4 510 515 511 164
4 482 469 97 491
4 170 156 521 175
4 447 26 25 145
4 533 117 244 241
4 154 382 283 142
4 168 516 166 170
4 194 101 6 478
4 156 521 502 170
4 514 516 512 166
4 467 430 485 490
4 113 39 114 519
4 97 482 210 449
4 555 552 558 606
4 127 232 231 129
4 498 484 497 350
4 225 149 130 372
4 122 29 28 228
4 241 545 11 239
4 292 277 104 486
4 459 540 531 108
4 185 186 29 597
4 476 389 25 108
4 532 537 544 403
4 548 101 194 201
4 130 151 125 225
4 483 204 487 94
4 125 151 30 223
4 25 428 447 145
4 505 519 515 159
4 308 324 309 591
4 377 345 347 581
4 241 11 117 240
4 388 23 109 110
4 521 508 516 170
4 367 315 256 598
4 157 511 512 165
4 386 25 24 121
4 516 502 521 170
4 391 110 538 439
4 362 91 207 604
4 294 299 298 610
4 232 127 153 129
4 39 525 3 179
4 133 120 141 317
4 2 37 11 592
4 108 109 25 506
4 251 398 22 387
4 434 535 103 292
4 32 31 76 218
4 198 30 223 221
4 130 420 314 421
4 30 224 225 223
4 525 9 36 93
4 293 430 490 486
4 218 32 119 381
4 528 31 190 98
4 377 307 345 581
4 228 122 29 226
4 119 134 320 429
4 512 165 166 157
4 21 139 235 398
4 132 323 131 121
4 273 406 286 607
4 490 319 293 494
4 249 106 547 546
4 153 118 382 251
4 37 2 11 177
4 149 120 130 372
4 504 172 178 518
4 94 93 35 80
4 534 542 433 444
4 437 460 341 586
4 388 389 390 109
4 310 360 359 588
4 23 407 111 110
4 336 457 99 352
4 382 233 153 251
4 495 313 483 489
4 2 11 177 112
4 177 21 2 112
4 159 36 505 179
4 52 203 193 148
4 410 479 343 587
4 111 407 22 246
4 134 119 133 429
4 551 416 74 215
4 168 181 527 170
4 152 31 140 218
4 387 398 22 407
4 181 183 180 529
4 224 125 30 225
4 139 21 22 398
4 546 249 245 533
4 383 122 125 126
4 260 259 261 590
4 1 5 190 98
4 226 125 29 224
4 233 231 232 129
4 145 468 144 121
4 77 97 449 76
4 127 248 142 128
4 9 379 464 496
4 244 117 533 116
4 312 311 132 147
4 165 511 169 164
4 385 382 154 118
4 407 22 23 111
4 160 109 25 24
4 120 149 141 372
4 217 491 98 449
4 208 84 85 612
4 168 506 167 514
4 168 181 526 527
4 482 97 469 449
4 3 9 525 113
4 222 422 348 602
4 180 168 181 526
4 546 245 250 536
4 348 255 222 602
4 218 119 140 435
4 107 540 476 108
4 474 5 4 76
4 545 11 117 241
4 101 194 201 478
4 19 502 521 61
4 107 25 476 26
4 505 515 510 159
4 515 510 159 164
4 22 21 172 112
4 426 405 327 589
4 76 1 4 473
4 269 266 378 599
4 205 343 455 601
4 518 111 172 112
4 125 30 29 224
4 133 206 34 120
4 298 299 306 594
4 21 237 112 246
4 223 225 151 314
4 536 403 418 404
4 236 272 2 238
4 33 119 381 133
4 383 296 248 126
4 492 461 402 491
4 547 395 10 253
4 31 528 190 182
4 420 80 36 380
4 251 118 385 387
4 139 153 233 251
4 189 163 63 509
4 292 103 430 486
4 362 207 363 604
4 533 244 245 241
4 507 178 161 518
4 519 525 39 179
4 120 133 206 421
4 428 25 386 121
4 533 545 117 241
4 380 3 36 151
4 317 134 133 429
4 351 484 498 350
4 531 540 459 463
4 543 538 544 439
4 130 35 420 120
4 506 168 526 514
4 122 230 383 226
4 225 125 30 223
4 381 206 33 133
4 233 234 129 150
4 247 244 395 116
4 109 390 392 531
4 93 9 464 496
4 534 539 102 431
4 106 249 252 546
4 114 507 519 173
4 210 96 97 77
4 130 125 149 225
4 181 502 170 156
4 173 114 39 519
4 76 77 32 218
4 145 428 468 121
4 467 430 432 485
4 250 245 403 536
4 533 245 545 241
4 398 22 407 246
4 142 248 283 128
4 509 163 63 192
4 151 125 225 223
4 501 277 293 486
4 455 552 70 556
4 29 186 28 597
4 420 380 130 314
4 206 420 120 421
4 244 249 395 116
4 489 95 96 354
4 112 536 111 404
4 540 531 542 463
4 502 516 527 170
4 441 124 137 148
4 25 26 389 476
4 103 102 430 490
4 479 410 454 587
4 9 113 3 600
4 89 88 425 605
4 525 39 3 113
4 233 234 150 235
4 283 154 142 147
4 239 241 545 404
4 160 24 174 109
4 317 320 134 429
4 280 309 427 609
4 134 297 321 320
4 118 153 139 251
4 98 500 217 474
4 409 410 408 601
4 267 374 265 611
4 297 141 138 296
4 169 511 515 164
4 110 391 418 439
4 434 275 535 292
4 224 226 125 225
4 392 538 543 439
4 539 535 103 434
4 505 525 519 179
4 177 518 112 523
4 105 104 275 277
4 9 379 496 99
4 180 509 526 529
4 554 73 408 215
4 246 112 111 404
4 82 3 9 81
4 152 140 143 211
4 493 485 402 492
4 95 35 34 79
4 11 241 239 240
4 531 109 390 108
4 244 245 249 533
4 34 33 95 78
4 96 95 33 78
4 36 525 93 505
4 551 75 470 557
4 519 515 159 173
4 541 542 444 463
4 476 442 540 107
4 225 383 149 372
4 515 159 173 169
4 383 149 125 225
4 172 161 178 518
4 97 98 491 449
4 485 214 402 492
4 204 93 353 487
4 81 3 36 380
4 504 111 172 518
4 22 139 398 251
4 388 24 23 387
4 239 545 112 404
4 410 205 408 601
4 430 319 293 490
4 492 461 491 217
4 95 483 204 354
4 101 6 548 194
4 207 91 90 604
4 147 283 311 284
4 250 537 550 546
4 94 204 93 80
4 23 109 174 24
4 521 156 19 175
4 550 105 104 275
4 142 382 232 153
4 130 380 36 151
4 241 245 545 404
4 3 113 39 600
4 23 388 407 110
4 139 233 150 235
4 118 154 385 131
4 437 341 303 595
4 139 235 398 251
4 81 36 93 80
4 111 22 172 112
4 293 277 292 486
4 156 521 19 502
4 549 442 540 212
4 512 511 513 165
4 111 158 23 110
4 412 477 413 608
4 489 482 401 210
4 167 512 165 166
4 245 536 545 404
4 390 392 391 109
4 138 297 296 284
4 306 411 397 603
4 241 117 242 240
4 113 525 39 519
4 134 141 297 317
4 226 29 228 227
4 383 230 122 126
4 159 505 519 179
4 398 235 21 237
4 97 482 96 210
4 109 391 388 110
4 204 487 349 483
4 250 550 275 252
4 536 546 245 533
4 341 460 370 586
4 150 129 233 139
4 354 95 96 78
4 172 178 158 504
4 550 105 275 252
4 288 285 286 607
4 35 34 79 420
4 441 124 144 137
4 543 535 434 276
4 89 202 462 580
4 109 23 174 110
4 343 205 410 601
4 527 181 529 502
4 283 312 382 154
4 386 131 323 121
4 183 18 62 188
4 527 514 168 516
4 111 418 246 404
4 122 228 230 226
4 454 410 409 587
4 489 313 483 354
4 158 23 22 111
4 141 134 133 317
4 293 501 486 495
4 183 188 529 156
4 499 432 101 485
4 102 201 431 432
4 138 134 141 297
4 149 296 383 126
4 20 60 191 182
4 107 163 26 189
4 301 350 497 488
4 431 534 539 433
4 545 536 245 533
4 150 27 2 236
4 111 158 172 22
4 284 138 297 393
4 356 456 355 608
4 541 534 548 444
4 506 168 167 160
4 151 130 380 314
4 169 515 159 164
4 513 167 506 514
4 283 311 312 147
4 392 538 531 543
4 212 540 541 463
4 514 168 526 527
4 210 482 469 449
4 96 33 77 78
4 229 344 227 597
4 491 469 97 449
4 283 382 232 142
4 542 541 540 463
4 236 150 234 235
4 150 234 27 236
4 375 231 28 228
4 234 27 376 375
4 98 217 449 474
4 516 168 527 170
4 154 283 312 147
4 249 395 547 253
4 502 529 188 156
4 35 95 94 79
4 250 249 245 546
4 139 22 118 251
4 443 143 135 471
4 334 337 336 585
4 459 392 390 531
4 341 196 446 586
4 110 174 158 23
4 92 470 8 557
4 524 504 178 518
4 148 193 14 480
4 429 133 317 421
4 109 160 25 506
4 387 131 385 386
4 99 484 100 352
4 296 128 248 126
4 239 238 11 240
4 386 24 25 389
4 551 75 416 470
4 432 102 101 485
4 105 252 106 384
4 501 293 301 495
4 52 13 441 148
4 442 459 540 212
4 451 209 69 606
4 33 32 77 381
4 204 464 93 80
4 401 494 493 482
4 511 176 513 165
4 137 203 441 148
4 111 407 418 110
4 384 497 105 501
4 509 183 180 163
4 100 10 559 585
4 292 430 293 486
4 106 252 105 546
4 246 237 112 239
4 542 433 444 463
4 526 160 168 506
4 384 498 497 350
4 521 191 528 182
4 140 152 448 211
4 210 489 96 354
4 226 383 125 225
4 234 376 27 236
4 141 296 317 372
4 8 466 92 557
4 440 299 300 610
4 476 26 389 200
4 112 11 545 239
4 385 382 312 154
4 128 138 296 284
4 191 521 175 182
4 100 10 337 351
4 280 427 271 609
4 252 105 275 277
4 183 509 180 529
4 237 236 2 238
4 7 48 187 107
4 49 26 0 187
4 66 466 557 553
4 142 154 382 118
4 188 62 183 529
4 379 496 99 352
4 429 206 133 421
4 418 111 110 532
4 135 134 321 320
4 127 230 248 126
4 491 500 492 217
4 223 151 380 314
4 140 152 218 448
4 491 461 402 217
4 31 32 140 218
4 535 543 544 276
4 394 136 137 393
4 218 152 31 448
4 176 511 169 165
4 283 147 128 284
4 318 306 299 594
4 425 88 199 605
4 146 147 311 284
4 447 428 25 389
4 32 33 119 381
4 223 30 224 221
4 383 248 230 126
4 147 311 132 146
4 277 384 105 501
4 132 154 312 147
4 179 39 519 173
4 528 508 31 98
4 66 466 553 357
4 459 392 531 463
4 382 233 232 153
4 25 428 145 121
4 21 177 172 112
4 476 459 390 108
4 110 111 158 504
4 144 322 441 137
4 109 174 160 506
4 381 119 218 435
4 407 388 391 110
4 320 134 297 317
4 276 537 550 250
4 200 476 26 107
4 180 184 160 526
4 125 149 383 126
4 387 388 24 386
4 109 174 506 520
4 518 177 112 172
4 107 25 184 530
4 94 95 204 79
4 203 193 148 480
4 490 485 467 493
4 80 81 36 380
4 535 550 104 275
4 528 191 60 182
4 515 519 524 173
4 284 146 138 393
4 490 467 319 493
4 524 515 173 169
4 530 25 184 506
4 119 381 133 429
4 492 402 493 491
4 297 136 134 321
4 167 168 514 166
4 147 146 138 284
4 214 432 499 485
4 296 297 141 317
4 167 160 174 506
4 296 149 128 126
4 548 64 45 194
4 496 484 353 487
4 506 174 167 520
4 323 385 131 386
4 206 79 34 420
4 439 532 544 403
4 494 313 486 495
4 528 31 508 162
4 25 107 108 530
4 233 234 231 129
4 341 370 196 586
4 497 384 301 501
4 158 111 172 504
4 167 506 520 513
4 512 167 165 513
4 24 131 386 121
4 541 46 65 212
4 488 301 349 495
4 520 158 176 504
4 498 100 484 351
4 48 49 187 200
4 497 105 106 384
4 45 548 194 201
4 118 385 382 251
4 493 469 482 491
4 520 167 176 174
4 213 51 12 124
4 530 108 25 506
4 383 296 149 372
4 349 483 488 495
4 402 467 214 485
4 500 98 5 474
4 473 31 152 448
4 134 135 119 320
4 167 520 176 513
4 532 537 403 536
4 112 545 536 404
4 227 226 29 224
4 174 109 110 520
4 10 106 547 253
4 311 458 322 146
4 174 158 176 520
4 522 176 520 513
4 512 167 514 166
4 519 159 179 173
4 504 176 178 158
4 336 100 337 351
4 12 213 124 155
4 380 81 3 198
4 103 102 431 430
4 137 322 458 146
4 128 138 141 296
4 31 528 182 162
4 529 181 183 156
4 65 549 541 212
4 277 293 301 501
4 25 26 447 389
4 442 200 48 107
4 403 537 544 276
4 235 139 233 251
4 133 381 206 429
4 494 319 401 493
4 132 311 322 146
4 498 384 351 350
4 143 135 123 443
4 439 544 543 276
4 31 1 473 152
4 183 62 18 192
4 190 60 20 182
4 443 135 321 471
4 356 413 477 608
4 203 52 441 148
4 193 203 53 480
4 249 250 252 546
4 124 213 468 145
4 112 246 239 404
4 548 45 64 444
4 520 110 158 504
4 206 33 34 78
4 129 153 233 139
4 515 522 511 169
4 519 507 524 173
4 418 407 111 246
4 507 524 178 518
4 431 201 534 433
4 173 178 524 169
4 184 526 530 506
4 232 127 230 248
4 23 388 387 407
4 253 10 498 351
4 486 293 313 494
4 468 323 144 121
4 181 529 502 156
4 140 211 435 471
4 174 110 158 520
4 176 520 504 522
4 276 403 537 250
4 323 468 428 121
4 428 386 25 389
4 141 149 128 296
4 391 418 407 110
4 118 382 142 153
4 498 497 106 384
4 125 29 122 226
4 312 311 322 132
4 379 82 9 81
4 59 214 499 492
4 6 44 194 478
4 322 203 441 137
4 176 504 178 522
4 321 123 135 443
4 110 109 391 538
4 522 504 178 524
4 431 539 103 434
4 201 548 534 444
4 176 167 513 165
4 286 285 273 607
4 321 136 123 394
4 334 453 337 585
4 81 82 3 198
4 513 522 176 511
4 155 447 213 145
4 93 464 204 353
4 402 467 485 493
4 138 136 297 393
4 201 194 44 478
4 539 103 102 431
4 242 244 117 241
4 509 107 184 530
4 277 301 384 501
4 464 81 9 93
4 493 469 401 482
4 138 128 147 284
4 284 311 146 393
4 442 7 47 549
4 96 210 354 78
4 526 184 509 180
4 461 402 214 492
4 341 446 340 595
4 292 104 103 486
4 193 53 14 480
4 494 490 319 493
4 553 67 66 357
4 541 549 540 212
4 353 484 496 352
4 79 94 35 80
4 429 320 119 435
4 73 554 74 215
4 536 245 403 404
4 163 63 17 189
4 192 183 62 529
4 143 16 152 211
4 232 127 142 153
4 511 176 169 522
4 444 46 541 212
4 128 248 283 284
4 71 72 205 556
4 478 432 101 499
4 535 539 543 434
4 190 528 60 182
4 296 141 149 372
4 496 353 93 487
4 163 17 63 192
4 353 464 379 496
4 64 541 548 444
4 356 477 456 608
4 294 300 299 610
4 487 353 204 349
4 486 313 293 495
4 99 496 484 352
4 323 312 322 132
4 107 184 163 509
4 106 252 249 253
4 483 487 349 488
4 547 106 249 253
4 311 458 146 393
4 63 107 189 509
4 163 17 26 189
4 455 71 205 556
4 93 464 81 80
4 390 391 388 109
4 468 441 124 144
4 303 341 340 595
4 408 73 554 72
4 386 388 24 389
4 461 492 500 217
4 58 461 492 500
4 45 548 201 444
4 211 448 140 435
4 212 541 444 463
4 31 473 218 448
4 296 248 128 284
4 394 321 136 393
4 351 100 484 352
4 541 64 46 444
4 147 142 283 128
4 144 132 322 146
4 136 137 123 394
4 514 513 167 512
4 482 401 494 489
4 534 542 539 433
4 138 136 134 297
4 323 132 144 121
4 449 210 97 77
4 508 521 528 162
4 213 441 51 124
4 485 499 214 492
4 184 526 509 530
4 558 209 68 450
4 401 489 210 354
4 550 544 537 276
4 351 336 100 352
4 148 123 394 480
4 384 105 252 277
4 392 391 538 439
4 124 441 13 148
4 105 104 277 501
4 12 51 13 124
4 531 542 463 452
4 253 498 106 384
4 79 95 204 354
4 230 127 122 126
4 136 135 134 321
4 182 528 521 162
4 119 381 429 435
4 143 55 16 211
4 452 543 434 276
4 143 443 211 471
4 324 451 455 606
4 129 234 27 150
4 182 521 175 162
4 494 401 313 489
4 188 18 19 156
4 452 392 543 439
4 61 62 188 502
4 543 452 439 276
4 433 201 534 444
4 337 10 395 253
4 494 313 495 489
4 402 469 491 217
4 132 322 323 144
4 441 13 51 124
4 54 15 123 443
4 441 468 322 144
4 322 458 203 137
4 498 106 10 253
4 432 214 467 485
4 1 57 473 152
4 320 135 119 435
4 12 50 213 155
4 180 163 184 509
4 214 432 478 499
4 542 539 433 452
4 43 59 214 499
4 5 40 500 474
4 104 275 277 292
4 47 48 7 442
4 54 15 14 123
4 549 540 442 107
4 484 351 352 350
4 135 136 123 321
4 95 489 483 354
4 77 210 96 78
4 26 187 200 107
4 139 150 21 235
4 474 449 98 76
4 65 64 46 541
4 5 528 190 98
4 80 35 79 420
4 558 68 67 450
4 137 148 123 394
4 439 418 532 403
4 209 68 69 558
4 143 15 55 443
4 443 321 123 394
4 101 548 534 201
4 25 160 184 506
4 144 124 468 145
4 13 51 52 441
4 522 178 176 169
4 313 349 483 354
4 435 135 140 471
4 488 501 301 495
4 483 349 313 495
4 218 77 32 381
4 319 313 293 494
4 487 497 350 488
4 539 542 543 452
4 535 550 275 276
4 190 1 31 182
4 42 461 214 492
4 448 218 140 435
4 434 539 543 452
4 461 42 58 492
4 56 16 55 211
4 81 9 379 464
4 203 148 394 480
4 253 337 10 351
4 64 45 46 444
4 384 253 498 351
4 463 392 531 452
4 191 19 20 175
4 61 60 521 191
4 14 54 123 480
4 489 401 313 354
4 434 103 431 292
4 137 144 322 146
4 549 47 442 212
4 349 487 350 488
4 55 16 15 143
4 188 183 18 156
4 529 188 62 502
4 430 467 319 490
4 155 213 124 145
4 214 59 42 492
4 535 275 434 276
4 6 59 43 499
4 447 26 49 200
4 352 353 484 350
4 389 476 390 108
4 212 459 540 463
4 550 535 544 276
4 478 6 43 499
4 79 95 354 78
4 48 7 442 107
4 55 143 443 211
4 539 434 433 452
4 79 34 95 78
4 538 532 544 439
4 478 101 6 499
4 526 184 160 506
4 58 461 500 217
4 416 75 551 74
4 487 484 353 350
4 175 20 191 182
4 191 60 521 528
4 496 379 353 352
4 65 47 549 212
4 402 401 319 493
4 428 468 213 145
4 148 137 203 394
4 469 491 217 449
4 203 53 52 193
4 402 469 493 491
4 143 123 15 443
4 313 301 293 495
4 301 349 350 488
4 79 204 94 80
4 484 487 497 350
4 17 163 183 192
4 192 63 509 529
4 443 123 54 480
4 321 297 136 393
4 431 103 430 292
4 152 16 57 448
4 478 43 214 499
4 26 25 184 107
4 102 431 430 432
4 531 543 542 452
4 194 44 45 201
4 451 324 475 606
4 42 59 58 492
4 106 252 253 384
4 482 469 401 210
4 434 431 539 433
4 473 76 31 218
4 470 75 8 557
4 381 77 33 78
4 447 428 213 145
4 65 47 7 549
4 213 468 441 124
4 26 447 389 200
4 550 275 276 250
4 99 457 379 352
4 12 0 50 155
4 123 148 14 480
4 12 50 51 213
4 136 138 146 393
4 549 442 7 107
4 401 402 469 493
4 320 321 135 471
4 71 455 70 556
4 349 204 483 354
4 152 57 473 448
4 403 544 439 276
4 447 50 0 155
4 381 33 206 78
4 41 42 58 461
4 135 140 119 435
4 497 384 350 301
4 57 1 16 152
4 467 402 319 493
4 461 58 41 217
4 26 447 155 145
4 137 458 203 394
4 5 40 58 500
4 8 66 466 557
4 543 531 392 452
4 217 500 40 474
4 47 65 46 212
4 56 57 16 448
4 101 201 432 478
4 69 451 552 70
4 163 26 184 107
4 468 323 322 144
4 57 4 1 473
4 40 5 4 474
4 190 20 1 182
4 528 60 5 190
4 353 93 464 496
4 7 63 107 189
4 26 17 0 189
4 353 487 350 349
4 447 213 50 155
4 428 386 323 121
4 301 313 349 495
4 34 79 206 78
4 15 54 55 443
4 209 451 475 606
4 320 135 435 471
4 401 313 319 494
4 127 248 128 126
4 49 0 26 447
4 43 59 42 214
4 50 0 49 447
4 107 26 7 189
4 26 0 7 189
4 187 26 7 107
4 476 200 442 107
4 123 443 394 480
4 26 7 0 187
4 44 6 43 478
4 54 14 53 480
4 542 433 463 452
4 447 0 26 155
4 62 63 192 529
4 18 17 183 192
4 548 6 64 194
4 14 13 193 148
4 608 399 295 412
4 608 295 399 577
4 375 569 597 28
4 597 569 375 346
4 197 578 600 83
4 600 578 197 566
4 585 457 335 566
4 585 335 457 336
4 606 357 413 450
4 606 413 357 567
4 578 422 220 219
4 578 220 422 568
4 603 367 423 411
4 603 423 367 598
4 585 114 566 583
4 585 566 114 559
4 113 566 114 583
4 113 114 566 559
4 592 242 243 570
4 592 243 242 240
4 360 592 569 272
4 569 592 360 588
4 569 396 360 272
4 360 396 569 588
4 608 357 216 356
4 608 216 357 567
4 583 186 37 38
4 583 37 186 569
4 602 254 195 572
4 602 195 254 222
4 600 198 221 3
4 600 221 198 220
4 272 27 236 2
4 272 236 27 376
4 605 446 462 88
4 605 462 446 595
4 274 607 271 273
4 271 607 274 577
4 610 318 364 440
4 605 318 580 594
4 605 580 318 425
4 364 318 580 425
4 131 312 323 132
4 131 323 312 385
4 606 69 558 209
4 606 558 69 552
4 137 393 146 458
4 146 393 137 136
4 363 416 567 465
4 363 567 416 362
4 178 507 173 524
4 173 507 178 161
4 471 143 140 211
4 471 140 143 135
4 448 16 211 152
4 448 211 16 56
4 217 58 40 500
4 217 40 58 41
4 524 169 522 515
4 522 169 524 178
4 318 580 610 364
4 318 610 580 594

CELL_TYPES 3190
1
1
1
1
1
1
1
1
1
1
1
1
3
3
3
3
3
3
3
3
3
3
3
3
3
3
3
3
3
3
3
3
3
3
3
3
3
3
3
3
3
3
3
3
3
3
3
3
3
3
3
3
3
3
3
3
3
3
3
3
3
3
3
3
3
3
3
3
3
3
3
3
3
3
3
3
3
3
3
3
3
3
3
3
3
3
3
3
3
3
3
3
3
3
3
3
3
3
3
3
3
3
3
3
3
3
3
3
3
3
3
3
3
3
3
3
3
3
3
3
3
3
3
3
3
3
3
3
3
3
3
3
3
3
3
3
5
5
5
5
5
5
5
5
5
5
5
5
5
5
5
5
5
5
5
5
5
5
5
5
5
5
5
5
5
5
5
5
5
5
5
5
5
5
5
5
5
5
5
5
5
5
5
5
5
5
5
5
5
5
5
5
5
5
5
5
5
5
5
5
5
5
5
5
5
5
5
5
5
5
5
5
5
5
5
5
5
5
5
5
5
5
5
5
5
5
5
5
5
5
5
5
5
5
5
5
5
5
5
5
5
5
5
5
5
5
5
5
5
5
5
5
5
5
5
5
5
5
5
5
5
5
5
5
5
5
5
5
5
5
5
5
5
5
5
5
5
5
5
5
5
5
5
5
5
5
5
5
5
5
5
5
5
5
5
5
5
5
5
5
5
5
5
5
5
5
5
5
5
5
5
5
5
5
5
5
5
5
5
5
5
5
5
5
5
5
5
5
5
5
5
5
5
5
5
5
5
5
5
5
5
5
5
5
5
5
5
5
5
5
5
5
5
5
5
5
5
5
5
5
5
5
5
5
5
5
5
5
5
5
5
5
5
5
5
5
5
5
5
5
5
5
5
5
5
5
5
5
5
5
5
5
5
5
5
5
5
5
5
5
5
5
5
5
5
5
5
5
5
5
5
5
5
5
5
5
5
5
5
5
5
5
5
5
5
5
5
5
5
5
5
5
5
5
5
5
5
5
5
5
5
5
5
5
5
5
5
5
5
5
5
5
5
5
5
5
5
5
5
5
5
5
5
5
5
5
5
5
5
5
5
5
5
5
5
5
5
5
5
5
5
5
5
5
5
5
5
5
5
5
5
5
5
5
5
5
5
5
5
5
5
5
5
5
5
5
5
5
5
5
5
5
5
5
5
5
5
5
5
5
5
5
5
5
5
5
5
5
5
5
5
5
5
5
5
5
5
5
5
5
5
5
5
5
5
5
5
5
5
5
5
5
5
5
5
5
5
5
5
5
5
5
5
5
5
5
5
5
5
5
5
5
5
5
5
5
5
5
5
5
5
5
5
5
5
5
5
5
5
5
5
5
5
5
5
5
5
5
5
5
5
5
5
5
5
5
5
5
5
5
5
5
5
5
5
5
5
5
5
5
5
5
5
5
5
5
5
5
5
5
5
5
5
5
5
5
5
5
5
5
5
5
5
5
5
5
5
5
5
5
5
5
5
5
5
5
5
5
5
5
5
5
5
5
5
5
5
5
5
5
5
5
5
5
5
5
5
5
5
5
5
5
5
5
5
5
5
5
5
5
5
5
5
5
5
5
5
5
5
5
5
5
5
5
5
5
5
5
5
5
5
5
5
5
5
5
5
5
5
5
5
5
5
5
5
5
5
5
5
5
5
5
5
5
5
5
5
5
5
5
5
5
5
5
5
5
5
5
5
5
5
5
5
5
5
5
5
5
5
5
5
5
5
5
5
5
5
5
5
5
5
5
5
5
5
5
5
5
5
5
5
5
5
5
5
5
5
5
5
5
5
5
5
5
5
5
5
5
5
5
5
5
5
5
5
5
5
5
5
5
5
5
5
5
5
5
5
5
5
5
5
5
5
5
5
5
5
5
5
5
5
5
5
5
5
5
5
5
5
5
5
5
5
5
5
5
5
5
5
5
5
5
5
5
5
5
5
5
5
5
5
5
5
5
5
5
5
5
5
5
5
5
5
5
5
5
5
5
5
5
5
5
5
5
5
5
5
5
5
5
5
5
5
5
5
5
5
5
5
5
5
5
5
5
5
5
5
5
5
5
5
5
5
5
5
5
5
5
5
5
5
5
5
5
5
5
5
5
5
5
5
5
5
5
5
5
5
5
5
5
5
5
5
5
5
5
5
5
5
5
5
5
5
5
5
5
5
5
5
5
5
5
5
5
5
5
5
5
5
5
5
5
5
5
5
5
5
5
5
5
5
5
5
5
5
5
5
5
5
5
5
5
5
5
5
5
5
5
5
5
5
5
5
5
5
5
5
5
5
5
5
5
5
5
5
5
5
5
5
5
5
5
5
5
5
5
5
5
5
5
5
5
5
5
5
5
5
5
5
5
5
5
5
5
5
5
5
5
5
5
5
5
5
5
5
5
5
5
5
5
5
5
5
5
5
5
5
5
5
5
5
5
5
5
5
5
5
5
5
5
5
5
5
5
5
5
5
5
5
5
5
5
5
5
5
5
5
5
5
5
5
5
5
5
5
5
5
5
5
5
5
5
5
5
5
5
5
5
5
5
5
5
5
5
5
5
5
5
5
5
5
5
5
5
5
5
5
5
5
5
5
5
5
5
5
5
5
5
5
5
5
5
5
5
5
5
5
5
5
5
5
5
5
5
5
5
5
5
5
5
5
5
5
5
5
5
5
5
5
5
5
5
5
5
5
5
5
5
5
5
5
5
5
5
5
5
5
5
5
5
5
5
5
5
5
5
5
5
5
5
5
5
5
5
5
5
5
5
5
5
5
5
5
5
5
5
5
5
5
5
5
5
5
5
5
5
5
5
5
5
5
5
5
5
5
5
5
5
5
5
5
5
5
5
5
5
10
10
10
10
10
10
10
10
10
10
10
10
10
10
10
10
10
10
10
10
10
10
10
10
10
10
10
10
10
10
10
10
10
10
10
10
10
10
10
10
10
10
10
10
10
10
10
10
10
10
10
10
10
10
10
10
10
10
10
10
10
10
10
10
10
10
10
10
10
10
10
10
10
10
10
10
10
10
10
10
10
10
10
10
10
10
10
10
10
10
10
10
10
10
10
10
10
10
10
10
10
10
10
10
10
10
10
10
10
10
10
10
10
10
10
10
10
10
10
10
10
10
10
10
10
10
10
10
10
10
10
10
10
10
10
10
10
10
10
10
10
10
10
10
10
10
10
10
10
10
10
10
10
10
10
10
10
10
10
10
10
10
10
10
10
10
10
10
10
10
10
10
10
10
10
10
10
10
10
10
10
10
10
10
10
10
10
10
10
10
10
10
10
10
10
10
10
10
10
10
10
10
10
10
10
10
10
10
10
10
10
10
10
10
10
10
10
10
10
10
10
10
10
10
10
10
10
10
10
10
10
10
10
10
10
10
10
10
10
10
10
10
10
10
10
10
10
10
10
10
10
10
10
10
10
10
10
10
10
10
10
10
10
10
10
10
10
10
10
10
10
10
10
10
10
10
10
10
10
10
10
10
10
10
10
10
10
10
10
10
10
10
10
10
10
10
10
10
10
10
10
10
10
10
10
10
10
10
10
10
10
10
10
10
10
10
10
10
10
10
10
10
10
10
10
10
10
10
10
10
10
10
10
10
10
10
10
10
10
10
10
10
10
10
10
10
10
10
10
10
10
10
10
10
10
10
10
10
10
10
10
10
10
10
10
10
10
10
10
10
10
10
10
10
10
10
10
10
10
10
10
10
10
10
10
10
10
10
10
10
10
10
10
10
10
10
10
10
10
10
10
10
10
10
10
10
10
10
10
10
10
10
10
10
10
10
10
10
10
10
10
10
10
10
10
10
10
10
10
10
10
10
10
10
10
10
10
10
10
10
10
10
10
10
10
10
10
10
10
10
10
10
10
10
10
10
10
10
10
10
10
10
10
10
10
10
10
10
10
10
10
10
10
10
10
10
10
10
10
10
10
10
10
10
10
10
10
10
10
10
10
10
10
10
10
10
10
10
10
10
10
10
10
10
10
10
10
10
10
10
10
10
10
10
10
10
10
10
10
10
10
10
10
10
10
10
10
10
10
10
10
10
10
10
10
10
10
10
10
10
10
10
10
10
10
10
10
10
10
10
10
10
10
10
10
10
10
10
10
10
10
10
10
10
10
10
10
10
10
10
10
10
10
10
10
10
10
10
10
10
10
10
10
10
10
10
10
10
10
10
10
10
10
10
10
10
10
10
10
10
10
10
10
10
10
10
10
10
10
10
10
10
10
10
10
10
10
10
10
10
10
10
10
10
10
10
10
10
10
10
10
10
10
10
10
10
10
10
10
10
10
10
10
10
10
10
10
10
10
10
10
10
10
10
10
10
10
10
10
10
10
10
10
10
10
10
10
10
10
10
10
10
10
10
10
10
10
10
10
10
10
10
10
10
10
10
10
10
10
10
10
10
10
10
10
10
10
10
10
10
10
10
10
10
10
10
10
10
10
10
10
10
10
10
10
10
10
10
10
10
10
10
10
10
10
10
10
10
10
10
10
10
10
10
10
10
10
10
10
10
10
10
10
10
10
10
10
10
10
10
10
10
10
10
10
10
10
10
10
10
10
10
10
10
10
10
10
10
10
10
10
10
10
10
10
10
10
10
10
10
10
10
10
10
10
10
10
10
10
10
10
10
10
10
10
10
10
10
10
10
10
10
10
10
10
10
10
10
10
10
10
10
10
10
10
10
10
10
10
10
10
10
10
10
10
10
10
10
10
10
10
10
10
10
10
10
10
10
10
10
10
10
10
10
10
10
10
10
10
10
10
10
10
10
10
10
10
10
10
10
10
10
10
10
10
10
10
10
10
10
10
10
10
10
10
10
10
10
10
10
10
10
10
10
10
10
10
10
10
10
10
10
10
10
10
10
10
10
10
10
10
10
10
10
10
10
10
10
10
10
10
10
10
10
10
10
10
10
10
10
10
10
10
10
10
10
10
10
10
10
10
10
10
10
10
10
10
10
10
10
10
10
10
10
10
10
10
10
10
10
10
10
10
10
10
10
10
10
10
10
10
10
10
10
10
10
10
10
10
10
10
10
10
10
10
10
10
10
10
10
10
10
10
10
10
10
10
10
10
10
10
10
10
10
10
10
10
10
10
10
10
10
10
10
10
10
10
10
10
10
10
10
10
10
10
10
10
10
10
10
10
10
10
10
10
10
10
10
10
10
10
10
10
10
10
10
10
10
10
10
10
10
10
10
10
10
10
10
10
10
10
10
10
10
10
10
10
10
10
10
10
10
10
10
10
10
10
10
10
10
10
10
10
10
10
10
10
10
10
10
10
10
10
10
10
10
10
10
10
10
10
10
10
10
10
10
10
10
10
10
10
10
10
10
10
10
10
10
10
10
10
10
10
10
10
10
10
10
10
10
10
10
10
10
10
10
10
10
10
10
10
10
10
10
10
10
10
10
10
10
10
10
10
10
10
10
10
10
10
10
10
10
10
10
10
10
10
10
10
10
10
10
10
10
10
10
10
10
10
10
10
10
10
10
10
10
10
10
10
10
10
10
10
10
10
10
10
10
10
10
10
10
10
10
10
10
10
10
10
10
10
10
10
10
10
10
10
10
10
10
10
10
10
10
10
10
10
10
10
10
10
10
10
10
10
10
10
10
10
10
10
10
10
10
10
10
10
10
10
10
10
10
10
10
10
10
10
10
10
10
10
10
10
10
10
10
10
10
10
10
10
10
10
10
10
10
10
10
10
10
10
10
10
10
10
10
10
10
10
10
10
10
10
10
10
10
10
10
10
10
10
10
10
10
10
10
10
10
10
10
10
10
10
10
10
10
10
10
10
10
10
10
10
10
10
10
10
10
10
10
10
10
10
10
10
10
10
10
10
10
10
10
10
10
10
10
10
10
10
10
10
10
10
10
10
10
10
10
10
10
10
10
10
10
10
10
10
10
10
10
10
10
10
10
10
10
10
10
10
10
10
10
10
10
10
10
10
10
10
10
10
10
10
10
10
10
10
10
10
10
10
10
10
10
10
10
10
10
10
10
10
10
10
10
10
10
10
10
10
10
10
10
10
10
10
10
10
10
10
10
10
10
10
10
10
10
10
10
10
10
10
10
10
10
10
10
10
10
10
10
10
10
10
10
10
10
10
10
10
10
10
10
10
10
10
10
10
10
10
10
10
10
10
10
10
10
10
10
10
10
10
10
10
10
10
10
10
10
10
10
10
10
10
10
10
10
10
10
10
10
10
10
10
10
10
10
10
10
10
10
10
10
10
10
10
10
10
10
10
10
10
10
10
10
10
10
10
10
10
10
10
10
10
10
10
10
10
10
10
10
10
10
10
10
10
10
10
10
10
10
10
10
10
10
10
10
10
10
10
10
10
10
10
10
10
10
10
10
10
10
10
10
10
10
10
10
10
10
10
10
10
10
10
10
10
10
10
10
10
10
10
10
10
10
10
10
10
10
10
10
10
10
10
10
10
10
10
10
10
10
10
10
10
10
10
10
10
10
10
10
10
10
10
10
10
10
10
10
10
10
10
10
10
10
10
10
10
10
10
10
10
10
10
10
10
10
10
10
10
10
10
10
10
10
10
10
10
10
10
10
10
10
10
10
10
10
10
10
10
10
10
10
10
10
10
10
10
10
10
10
10
10
10
10
10
10
10
10
10
10
10
10
10
10
10
10
10
10
10
10
10
10
10
10
10
10
10
10
10
10
10
10
10
10
10
10
10
10
10
10
10
10
10
10
10
10
10
10
10
10
10
10
10
10
10
10
10
10
10
10
10
10
10
10
10
10
10
10
10
10
10
10
10
10
10
10
10
10
10
10
10
10
10
10
10
10
10
10
10
10
10
10
10
10
10
10
10
10
10
10
10
10
10
10
10
10
10
10
10
10
10
10
10
10
10
10
10
10
10
10
10
10
10
10
10
10
10
10
10
10
10
10
10
10
10
10
10
10
10
10
10
10
10
10
10
10
10
10
10
10
10
10
10
10
10
10
10
10
10
10
10
10
10
10
10
10
10
10
10
10
10
10
10
10
10
10
10
10
10
10
10
10
10
10
10
10
10
10
10
10
10
10
10
10
10
10
10
10
10
10
10
10
10
10
10
10
10
10
10
10
10
10
10
10
10
10
10
10
10
10
10
10
10
10
10
10
10
10
10
10
10
10
10
10
10
10
10
10
10
10
10
10
10
10
10
10
10
10
10
10
10
10
10
10
10
10
10
10
10
10
10
10
10
10
