# vtk DataFile Version 2.0
whisker_body, Created by Gmsh 4.13.1 
ASCII
DATASET UNSTRUCTURED_GRID
POINTS 655 double
-9.886859966642536 -1.500000000000193 0
9.88685996664254 -1.500000000000187 0
-7.490229548994256 -1.499999999999933 30
7.490229548994257 -1.499999999999932 30
12 0 0
9.886859966642614 1.499999999999935 0
0 10 0
-9.886859966642614 1.499999999999936 0
6.490880522276705 0 70
7.490229548994232 1.499999999999993 30
0 7.638948795261445 30
-7.49022954899423 1.499999999999996 30
-8.748717852015751 -4.8435458030064 0
-6.519202405202561 -7.582875444051627 0
-3.476438231831796 -9.376266699505631 0
3.430248998885766e-14 -10 0
3.476438231831848 -9.376266699505612 0
6.519202405202592 -7.582875444051599 0
8.74871785201576 -4.843545803006382 0
-5.932115979985521 -1.5 0
-1.977371993328505 -1.5 0
1.977371993328511 -1.5 0
5.932115979985525 -1.5 0
-7.790989000869896 -1.5 26.25009524161821
-8.091336173302759 -1.5 22.50015627954841
-8.391315244266307 -1.5 18.75018781495277
-8.690964212695608 -1.5 15.00019428133869
-8.990316241741947 -1.5 11.25017615943213
-9.289399974574136 -1.5 7.500136560587634
-9.588240498625051 -1.5 3.750077686521152
-6.056362762887166 -4.655535284039851 30
-3.375658679969948 -6.852624838189366 30
-9.355014190967458e-16 -7.638948795261445 30
3.375658679969946 -6.852624838189367 30
6.056362762887167 -4.65553528403985 30
9.588240498625051 -1.5 3.750077686521152
9.289399974574136 -1.5 7.500136560587634
8.990316241741946 -1.5 11.25017615943219
8.690964212695604 -1.5 15.00019428133875
8.391315244266307 -1.5 18.75018781495277
8.091336173302759 -1.5 22.50015627954841
7.790989000869896 -1.5 26.25009524161821
-3.745114774497127 -1.5 30
0 -1.5 30
3.745114774497129 -1.5 30
11.34980690040761 3.896393630456207 0
9.469686112756717 7.370552552276022 0
6.563377897469113 10.04599773915035 0
2.945825845689581 11.63280319127197 0
-0.9909521456679979 11.95901391608004 0
-4.820345095835646 10.98927991986068 0
-8.127378859508902 8.82868692807757 0
-10.55368501447787 5.71136871644487 0
-11.83633564083267 1.975135083368787 0
-11.83633564083267 -1.975135083368821 0
-10.55368501447786 -5.711368716444897 0
-8.12737885950888 -8.828686928077589 0
-4.820345095835619 -10.9892799198607 0
-0.9909521456679715 -11.95901391608004 0
2.945825845689616 -11.63280319127196 0
6.563377897469155 -10.04599773915032 0
9.469686112756747 -7.370552552275983 0
11.34980690040762 -3.896393630456205 0
8.748717852015853 4.843545803006216 0
6.519202405202677 7.582875444051527 0
3.47643823183188 9.376266699505599 0
5.932115979985569 1.5 0
1.977371993328523 1.5 0
-1.977371993328521 1.5 0
-5.932115979985568 1.5 0
-3.476438231831882 9.376266699505599 0
-6.519202405202678 7.582875444051524 0
-8.748717852015854 4.843545803006212 0
5.460476170550379 3.509234951570297 70
2.69640921655526 5.904312601086342 70
-0.9237486117790363 6.424812717636788 70
-4.250622782769287 4.905480191894958 70
-6.227954253695701 1.828692365693239 70
-6.227954253695695 -1.82869236569326 70
-4.250622782769273 -4.905480191894971 70
-0.9237486117790209 -6.42481271763679 70
2.696409216555272 -5.904312601086336 70
5.460476170550383 -3.509234951570289 70
11.69393780679315 0 3.888888888888888
11.3878756135863 0 7.777777777777777
11.08181342037945 0 11.66666666666667
10.7757512271726 0 15.55555555555555
10.46968903396575 0 19.44444444444444
10.1636268407589 0 23.33333333333333
9.857564647552053 0 27.22222222222222
9.551502454345203 0 31.11111111111111
9.245440261138352 0 35
8.939378067931504 0 38.88888888888889
8.633315874724653 0 42.77777777777777
8.327253681517803 0 46.66666666666666
8.021191488310954 0 50.55555555555556
7.715129295104104 0 54.44444444444444
7.409067101897254 0 58.33333333333333
7.103004908690405 0 62.22222222222221
6.796942715483555 0 66.11111111111111
7.790989000869896 1.5 26.25009524161821
8.091336173302759 1.5 22.50015627954841
8.391315244266307 1.5 18.75018781495277
8.690964212695608 1.5 15.00019428133869
8.990316241741947 1.5 11.25017615943213
9.289399974574136 1.5 7.500136560587634
9.588240498625051 1.5 3.750077686521152
6.056362762887139 4.655535284039885 30
3.37565867996993 6.852624838189374 30
0 9.70486859940768 3.75
0 9.40973719881536 7.5
0 9.114605798223042 11.25
0 8.819474397630723 15
0 8.524342997038403 18.75
0 8.229211596446085 22.5
0 7.934080195853765 26.25
-9.588240498625051 1.5 3.750077686521152
-9.289399974574136 1.5 7.500136560587634
-8.990316241741946 1.5 11.25017615943219
-8.690964212695604 1.5 15.00019428133875
-8.391315244266307 1.5 18.75018781495277
-8.091336173302759 1.5 22.50015627954841
-7.790989000869896 1.5 26.25009524161821
3.745114774497116 1.5 30
0 1.5 30
-3.745114774497114 1.5 30
-3.375658679969928 6.852624838189375 30
-6.056362762887137 4.655535284039887 30
6.980821258704772 -4.644513312246484 20.52419971286416
-7.721898419652289 -4.574362780774953 13.02252549600301
-7.058703599401841 -4.528412044111477 20.50265076416649
7.728546454493878 -4.560972013122968 13.03641030876257
1.403090748181532 -9.666057351438637 2.955966917162407
-4.888485553233123 -8.448294403755115 3.040786904654899
-1.786049544406537 -7.667442398527395 27.02971516035582
8.393407168979733 -4.584535074334602 5.541798621083216
4.884204535540017 -6.174899182220278 27.02552869359615
-8.592767251680698 -4.178486082272989 5.656009814906102
-7.371110299620087 -4.583785072910939 16.77076107368439
-5.382653235215619 -7.015071105196266 14.71147547203933
-5.773084150751742 -7.078562620942608 11.00037843871561
-2.784603646281607 -8.566907689380759 12.60324271534076
-2.324139651638107 -8.401801688059471 16.29782798504635
0.7529110193718812 -8.85857736624952 14.09733570712364
0.1840335259366464 -9.178464443792581 10.41515851822359
1.116153124909485 -8.532283017568815 17.72543151864323
-1.882530899003445 -8.216435052220461 19.95716165988629
1.513890944449163 -8.179966386287644 21.36069200794259
3.3872776199355 -8.417959914162596 11.76718989381553
3.15957520276682 -8.801084730346734 8.245778669309496
6.225234881107703 -6.844317901331279 9.505111257602515
0.06729339026843026 -9.490595497878289 6.469566577740183
4.498822381223283 -7.207988346121825 19.10079798050968
4.622402911697406 -6.790935505634941 22.68274959127746
1.757960720779967 -7.841424721595348 24.95413895105902
6.849709859911909 -5.337783558212319 16.7223878456603
5.904140912281708 -7.492841812703052 5.851541541251209
-3.050793713391298 -8.781062721009516 8.945995904873834
-6.116646202572226 -7.221548352776415 6.812656853484168
-8.055158744825514 -4.591510308533539 9.251785285137986
-6.545580748136914 -4.751008671065027 24.29350410010678
-4.667852549141981 -6.804820433073067 22.21127385879138
-4.990450515867202 -6.088928440907407 27.02971516035582
-5.009866416621358 -6.928000173594352 18.42886552034826
3.887057256308076 -7.873875828215138 15.4880144184278
-1.376499582989712 -8.032903743346255 23.50663961493181
6.801406113150922 -4.370029644841303 24.3409795774778
-1.872995032076171 -9.581891543768918 3.008385682612682
8.194398740955116 -4.330056573168379 9.299751418453717
4.951356356851649 -8.432065406975529 2.816636893398408
-7.516928796946875 -6.253997496895814 2.815957016737286
7.474930635991375 -6.307832340655112 2.785662420587135
-3.312246296589905 -8.952844635449786 5.769757269058936
1.772126503012484 -7.60767131421704 27.80951116676849
5.778788332090649 -6.866550179262013 13.02861614355803
6.792875897880162 -3.927502303515273 27.3621033905834
-6.699970091745742 -4.088801711986449 27.33015792015544
3.26167819732767 -9.004376581389844 5.375777190110845
-3.69402818858039 -7.14836730291057 24.82248911802106
-9.01308193670633 -3.847873277252704 2.540090421543881
8.856008490480335 -4.174650529284768 2.660195801307462
7.289324211959484 -5.965578300820298 7.379060029943601
5.846342492916161 -1.5 12.72527086624219
4.99375834063021 -1.5 20.3653825980357
-5.985276706905245 -1.5 9.311475652393687
-5.293743877536299 -1.5 16.61574234954144
-4.740289653529191 -1.5 24.12974386727642
0.5672522574295886 -1.5 3.203455450422999
2.019074101181371 -1.5 26.8152643200647
6.333047060043306 -1.5 5.523237486554239
-5.579789305216376 -1.5 4.009851331940046
-5.002134963239831 -1.5 20.36787776150845
-1.919108809199622 -1.5 18.23337331326922
-2.199707665877007 -1.5 14.48204071307608
1.200981011000433 -1.5 16.09758620731177
0.6218139613343361 -1.5 12.43582957099477
-1.776084354596115 -1.5 22.0875859772863
-5.609246068292164 -1.5 12.89859613162912
6.058179257434428 -1.5 9.048025812134426
2.842278913660166 -1.5 6.670165822304989
4.79793212737127 -1.5 16.69377136041267
4.827686266029502 -1.5 24.30531152851072
-2.603872496320906 -1.5 10.8753503924512
-1.721694837498065 -1.5 26.35803869066887
-3.18830533782964 -1.5 6.990920711422531
1.421848572094946 -1.5 19.64597231531832
4.104778269695899 -1.5 3.005973501929351
1.591708279564546 -1.5 23.23938196438722
0.3418933104204971 -1.5 9.145597078764389
4.889434650285811 -1.5 27.1770835884724
-4.88943465028581 -1.5 27.1770835884724
3.132914574792839 -1.5 10.68088392698083
-0.01287580974660862 -1.5 6.30815576908389
-2.835152242981269 -1.5 2.77851216331505
6.976603413728295 -1.5 2.638982252293884
3.086979512991467 -1.5 14.06041441144425
-6.750725995884194 -1.5 6.542103602014853
-1.064410691579912 -4.569474397630723 30
1.947164632340651 -4.166664284104712 30
-3.564918936074305 -4.349614574951898 30
-7.909487973314067 -4.907185768843192e-14 0
-10.25639961849221 -3.507512400705078 0
-10.25639961849225 3.507512400704967 0
-8.487246032801327 6.741619222895044 0
-8.487246032801263 -6.741619222895128 0
7.909487973314082 -7.885165086143733e-14 0
1.776356839400251e-15 0 0
3.954743986657032 0 0
-3.954743986657029 -1.110223024625157e-16 0
8.466875056264714 -3.317303643854778 36.93007096033316
7.821845623372724 3.279344685476489 44.70713471457508
9.120245910289237 3.327061996254799 29.12068223207024
9.438050282588245 -3.346942070676019 25.23539915122393
7.480602335079111 -3.305867378120807 48.55652201355586
-11.73088669374762 -1.940162152660215e-14 3.419408766471569
-2.879762434608169 11.37192468062311 3.419408766471415
6.812365077327485 3.293518903324991 56.32988361258961
-2.879762434608137 -11.37192468062312 3.419408766471416
10.03700683094855 3.489405754362892 17.45498758261763
-5.574956286394031 -3.78668395756391 66.84263711464807
10.40992648181423 -3.337958848351206 13.57027627075233
6.474699525225045 -3.286119309726038 60.21628526319177
8.493391781973815 3.256056274121223 36.89714897511699
-2.669043431082613 6.204494043296981 66.65390636929733
10.73011947691677 3.340138153048984 9.682499500092435
7.94511337650492 -8.630693833987381 3.419408766471505
-9.382025185936769 7.057263868497892 3.303737750555006
-9.257317901175359 -7.205259738421862 3.419408766471709
4.803466868453009 10.70734651965919 3.361547323836406
0.8577132096463104 -6.682361437659472 66.87043825172104
6.165289275614898 3.237167037505388 63.99506470565762
10.0733686959848 6.038330996047115 3.245938804936132
11.04956328535986 -3.342145186211126 5.794663767161262
8.783016539913215 -3.341931786525523 33.07000617794214
9.102545075636485 -3.36149058570941 29.18108665520185
7.611208606427684 -6.286816455844814 27.03997905948282
6.879424192480172 -6.190743779632303 34.88075559725996
7.996199202246782 -6.298655526033382 23.13786019255063
5.281824749839164 -8.542778425125565 24.85662570503997
5.715010904353043 -8.628689103281204 20.96945776769745
2.409586204936747 -9.933761573534991 22.59384420289131
1.920495161629743 -9.728975348874648 26.47062868389184
-1.18705066350801 -10.03173334255851 24.11992415358298
-1.680801449017463 -9.653258574303541 27.97277951559827
-0.6925830340437528 -10.38256099518798 20.25832547381912
-4.190155940420174 -9.400636965553099 21.69965563168639
-3.73710915203073 -9.914209315274325 17.85011526381134
-6.836928219271687 -7.953519307498699 19.20941137450332
-7.163188422986155 -7.242617663427911 23.04145696361544
-9.094766823697393 -5.021698265322373 20.46913564924288
-9.198936850700129 -4.144677891714113 24.27471063609224
-10.1983058705171 -1.432579864348417 21.62045531784573
-9.988918505929044 -0.4896264159887282 25.4008302350095
-9.953976520863005 2.29904561020787 22.66749407374319
-9.370421203342785 3.260279045484106 26.41109473820383
-8.362684729243853 5.738935338405114 23.602045614405
-7.416985122323608 6.481958297194446 27.31514646972684
-8.697482598686259 4.127351002550752 30.1504374406179
-5.604963761738087 8.375388923071117 24.4234219662696
-6.768892353947395 7.853739082201203 20.73426060698601
-10.42163906876213 1.375253179197525 18.90699087890821
-4.352737005181482 8.767586217033022 28.09837293801879
-0.1940645672767377 -10.70827308020493 16.39060464395387
-3.380367475072507 9.739790671049214 21.47699437942988
-4.746185202931127 9.47616445617888 17.81028484621179
-8.948883763619577 -5.846906895348472 16.64944240521958
-1.030811940127664 10.49493445467649 18.48198676062395
0.3999990738681296 10.25188510562783 22.1127917731506
6.524741635784824 -6.121799447744249 38.79213331655823
4.013253670520448 -8.183233931553442 36.66555745460211
3.626380678060273 -8.028800211265423 40.53555529642336
0.5839185476495607 -8.965834366296278 38.31138386247529
0.16592746797796 -8.680863953800111 42.15347471292453
-2.931469100343624 -8.365944143841229 39.83803144901826
-3.303128537434968 -7.902064048410841 43.6502272549517
-5.931799797645593 -6.437300243455574 41.24973491671117
-6.186017647391353 -5.765925596659877 45.02419602434285
-7.949483379014878 -3.416439305225011 42.53358915225726
-7.943272704022186 -2.600661336460589 46.27382627747377
-6.40977109274399 -5.052402148289077 48.77132627770006
-7.873439916110575 -1.751455692707246 49.98755066844598
-6.597768110249835 -4.288812486796822 52.48667108385916
-7.724958955028463 -0.8877994639890856 53.67345763571592
-7.757731322818455 1.869402192543134 51.08160227394211
-8.559578714907422 0.1583766228244368 43.69608156644909
-7.200427618891021 2.70775151231188 54.72906992214008
-9.240323277004277 -3.236715650132309 28.07045807169184
-6.004337603949486 5.141706235407195 52.0317572436125
-5.037971526982362 5.71782777826552 55.64457992072981
-2.445260017261438 10.55295269000095 14.83387776414825
-5.986422579920178 9.104205850611732 14.02706493601312
1.421496310008516 10.6911064579814 15.43557408200571
-6.726889040193566 -3.490113008366289 56.18194062413263
-4.453879298614579 -6.254898150689501 54.90868107888703
-6.524785198445621 3.505484259572304 58.36166308702482
-8.82400695973217 -0.7234803475373855 39.97859471656018
-8.270160497573533 2.916702553300301 41.04842444136457
-3.273520826866245 -10.39564361123653 13.99119638399828
0.2700458071978424 -11.01216895418948 12.50951834863085
-3.0130268932219 7.238072197944637 52.85585052400354
-4.149549264539813 6.984464447278832 49.24758644517435
-5.651055626330085 -7.070981955522493 37.46174369884489
-0.6264714945194176 8.041796925550184 49.98415503201991
-1.85577853528329 8.140475489097142 46.38620327463484
-0.2669679679360508 -8.378313243100825 45.96386312384355
-4.888446811382968 -5.552369200194782 58.47798017814646
0.3532218965599711 11.06953840318764 11.75104740972185
3.981100075486588 10.28527693252936 12.33931559504497
-1.674656003803791 -7.306404421835689 57.23043925661555
-3.992296108751729 6.15707705687405 59.2347835804846
3.359566171586512 -10.29875495291452 14.82981267088496
3.856416544674046 -10.4496486867981 10.94586836000549
-1.251461133985157 -7.689221110434023 53.48808504814667
1.808490967181123 -7.396955957106456 55.71890029343883
0.8718752447927359 -7.229810718077919 59.94542638282474
5.182500280957757 9.414683270802074 15.92290736990793
0.7123522021353557 7.752406627363178 53.55581308732967
3.150223455941388 7.374887070809625 50.57666224378047
-8.811537252471703 2.123887175748672 37.30682631469922
-7.17568509163279 5.405096354127452 38.32667478146795
2.294953036756585 -7.573450259728133 51.92352349153532
0.9967277334963729 -9.240240745540627 34.38498659807885
-5.726572673195713 4.236976128053159 61.96060425997709
-7.142148117748572 0.9119647111903664 60.98805384994781
-9.01725630016662 -1.568090703824457 36.17983278334392
-2.789031365303805 -10.84785054923587 10.15670641624724
-6.107836893703733 -9.260252000739595 11.52264369113248
7.04206774211759 8.436016107266324 12.84657144576828
8.361953471896747 -6.324833879358084 19.25561750379901
6.141003089616699 -6.082498890086144 42.64939093063388
-7.616431773357383 3.725898754516504 44.73936097604273
6.571303131013839 -8.773705036042726 13.19223918566893
4.960562803853538 -5.946789981695672 54.07600070369083
6.173850162223294 9.432579221961729 9.232086574512266
6.967275680860364 -8.848547849561461 9.373182112679208
4.324088995829404 -10.59684331165163 7.050384467628602
-5.32629398109382 -10.09809375600673 7.411603685517881
-8.487113833558158 -7.447670545367519 9.001825314186243
-6.603680995283898 2.079705553531051 64.50403420883336
-8.00396691955042 4.685147587545578 34.63230631587648
-5.437797367437262 7.425253119407957 35.53316948421423
-4.242590290514674 7.84133388241167 39.19232472357455
-1.832329848693629 8.960224869010949 36.26785236312864
-0.5765241697742967 8.837682233109339 39.9423741442335
1.849872620928992 8.899667457739303 36.97644692296723
0.5132927054831183 9.359801770711686 33.36819979117228
3.144012924083054 8.227298092336509 40.56369669567716
4.209002883111371 8.324657092983408 33.94822958179966
2.963286359148862 9.142563640534984 30.35762513792001
6.128278957827192 7.35831524366794 30.79928948703606
5.234329741745697 8.346369408941031 27.29409744357603
1.642611579644337 9.758102940890689 26.74160390974326
4.690319260378703 6.172042667087516 53.97620239545471
1.816719329558488 7.284593019800094 57.07990981219875
5.72914804898042 5.572768150507532 50.92104869587019
5.143087054328494 6.478202243603991 47.37451867007073
-2.829951043004895 6.466735315059812 62.78333083711854
-6.504471784522259 -2.597048311147125 63.4831041329227
1.422008314042538 -9.506309319455882 30.34143835478791
-2.166849368902052 -9.245992881653184 31.80991110156835
-5.031957342435733 -8.279001356309045 29.37339168566592
-5.365257980226898 -7.70178943940549 33.20958050931493
4.429476495266452 -8.324599268520084 32.65877628242423
8.125325701045401 6.98704524894902 16.31057953088996
6.301541693150611 8.356252718862432 19.49178473807643
4.043262182353629 9.293158212820341 23.70175218693822
7.212891193941352 7.065418157808556 24.18209467915849
8.850299723967813 5.392296334569219 20.79215143863551
9.919058884846141 4.581102421970722 13.64835217593424
6.538351839751178 3.157919130098961 60.2143743734327
4.414042537792629 5.585686402006251 62.01585914606407
4.138144047131052 5.387543977737858 66.15651582754822
-6.504940564237036 6.913775306379268 31.85613392084015
-9.325715485402791 1.240524415447229 32.93623428956081
-9.15332283630871 -2.363321732376898 32.35638644475308
-3.070134746753145 8.979865209976122 31.89015949704764
6.134253390665793 -3.277701462516695 64.10246807720824
4.44719752229916 -5.565774223815565 61.95185821582874
6.82538332782253 -3.2519847213036 56.40911025808903
0.4176052334049462 8.562760794165827 43.54495097298076
7.821444899016248 -3.273718557035624 44.73945163011107
3.184088801977888 -7.890276808492747 44.36347686853152
8.142665004172354 3.313992304868755 40.77142338138828
6.547933426142781 6.096020851535626 38.8004980519441
6.155496170381803 6.073937672719762 42.59490973459093
-3.689230240654186 -7.398443506352544 47.42911376049624
6.15802055071512 -8.6944786364728 17.09810324606251
8.921447666163926 2.944408273072196 33.10254168374649
-4.108975473238598 -6.832143239887355 51.17335947585379
-4.619375434080507 -8.857677728035263 25.54138946221508
-7.462857536274309 -6.483881681916386 26.85965193574242
-2.607334092586317 -8.790597126218785 35.96972192612201
-8.203927934533366 1.042116927809323 47.39603252381643
9.247461764425282 3.904838759672106 24.92838964392626
9.75344337363439 -3.367431168270402 21.36683284516031
10.73468677120717 -3.311697602165599 9.734035763886601
-6.500366499448212 -8.612041653459011 15.37572885779522
2.889041135896055 -10.12245141507147 18.72055330083293
2.833146186211836 10.11175380456694 19.04461571856078
-8.74431267117455 -6.657887155782566 12.82727483797651
-10.37237892751235 -4.214491011424522 10.2170579281733
-10.37781901318575 -3.313463817809461 14.05368413716731
-11.09224401634598 -0.5281919354752714 11.37443371929357
-11.37170102718439 -1.215045413448999 7.160842211853261
-11.02983072490431 2.536031033063219 8.670405674103415
-10.52066214416165 3.2872057517311 12.42345793708573
-9.504115593280458 6.021190149488303 9.518108863245052
0.8252769637312293 -11.28606138200553 8.688569525632996
0.7848632333440275 -11.59047350051871 4.866259159953717
-1.952397023604314 9.824102776850573 25.20619658915475
-7.674083670655969 -5.746147455228996 30.66060100535306
-0.7635266782988751 -8.04971929375388 49.73400425251636
-10.31402186915431 -2.417858921476624 17.86956979882953
-1.76526860976431 7.349442795678797 56.43497781274708
-7.865700756874627 -4.254277229452324 38.84935106821453
8.888669159815022 6.889866059547402 9.576988471894648
7.598264685449993 8.659714673215957 6.091321412623381
-7.819073636765159 7.246575549565313 17.01727385410431
-9.179758099299143 4.968726543686459 19.84443918350664
-6.254500785779039 6.039675334628694 41.99880484590953
-6.86874790249245 4.462419513300877 48.3976199776958
-10.79875499509293 0.4451680705998393 15.14672476364212
-2.757296387398454 -6.150354169781544 66.83280849978328
-1.40981398143522 -6.844909175707916 63.67603156902661
-4.51263561196046 -5.344032126485172 63.60133535803456
2.786435695843301 -7.721164766030288 48.17469527574249
-0.4869282342827714 7.264104205531265 59.96812982651458
0.5734210783601776 6.986153691290252 63.40844323786779
4.828132673870972 -8.45227473945911 28.79156980743505
-5.250202460358345 6.568435297274084 45.62972862405349
4.067720770705645 -5.383748686241623 66.73713159224978
-9.69039694022605 0.5232964893039823 29.16688883426026
-9.90014177988796 4.128969747554309 16.17934024860643
-6.808150394030012 -2.628073453248758 59.74729261195825
10.09252368562489 -3.324594675111756 17.45827263483055
8.744830728172122 -6.317778224131924 15.3967152685927
7.233294554197166 -6.258093556905324 30.94288969039014
5.790781333427548 -6.007950123301589 46.44910522655942
5.379797744762369 -5.97820693051614 50.28529846129835
7.164353290877433 -3.258929034060714 52.46720006279107
-3.135912086685135 8.041161770785962 42.80715499874128
-7.491900214314756 0.04688785162112238 57.27897457169704
-10.0072221291596 -5.645734465604736 6.480876363608078
9.084837723470475 -6.368551425055673 11.50272350783508
2.466884230776387 11.03791357504761 8.764498569627772
-1.403601177759911 11.27218108493036 8.141723217441534
1.092117035349939 11.54576331278141 5.11678711138226
-5.227120997012489 10.21083001378087 6.721580927627318
-3.928673905297156 10.44470850495288 10.68413426574669
9.090447959937713 -6.936171812195589 7.185951463137304
8.143344116689928 -3.301198668477189 40.8246041429809
1.802901397462049 8.089641165460373 47.16404942737201
-7.823264141492491 -4.915258215384834 35.07900913337932
-8.697306640392457 6.65384534602121 13.33321807692324
4.611957054041111 -5.8347969202411 57.97325779731037
-6.466113141939438 -9.789586727145592 3.401578715089108
-11.12227758724472 3.756462704870675 3.309852400191942
4.644756120182949 -10.77729677694288 3.359749051448041
-6.57100561731606 9.732884422269489 3.260568785415332
6.809758881506762 6.306345444293048 34.54416770445578
7.403281567692047 3.503943709466165 48.40280601839268
-11.11909868108967 -3.817191398723795 3.099357613423453
10.23150102214261 -5.772003778762268 3.210542373291887
11.0729416002626 3.182971904762964 6.081913120420572
0.5699835773061835 6.707696793888954 66.93793471373338
-5.446952315000612 3.956410219756108 66.9337882386955
-7.313116703378713 8.577565378471792 9.251064076341287
-0.8034223819367812 9.671463274807452 29.16357807964226
-2.895866219490761 -6.627647927778628 60.57445767584074
-6.707380564607688 -0.5057370651379259 67.00718906052731
4.886118269318272 5.591514634946426 58.12356043109436
7.801780303757355 5.99652661993244 27.44507462506
-2.046781421975172 -11.28116262194169 6.793542104063559
-10.1583460049319 5.408252656400713 6.247518612124317
3.474872106418678 7.769276531865849 44.33249101221788
7.982559235111276 8.671370879822698 2.716902208035781
7.103386629932726 3.272409118785554 53.1002676896098
-8.217646824186762 8.064633317833424 6.177514269052953
10.01025931840027 2.503457869424959 21.36477479460787
2.019629597301666 -6.662208873433268 64.01889063358031
6.122035329935732 2.785690997437425 67.01222632414377
4.638032905930259 10.50395766711042 6.577303592493303
-7.925285709536694 -8.365549493725489 6.053668744804655
9.753758506043663 6.060807044244517 6.563631756501612
6.143488771398524 -2.697195314817779 67.2222456573288
6.916106567908233 -9.196662437009357 6.264114192712495
4.697649565725202 7.787232329298109 36.91859840342177
11.43332361483514 -2.819177334261091 2.849171293455402
11.4365020934874 2.807602787303394 2.845090617668934
-4.670060726907787 5.116613254190411 64.45319368022633
-11.38960576986744 1.929988702732916 5.69278009887033
2.39221814077991 6.874907059067922 59.98318768514888
0.963588313764796 11.78835739083141 2.189609350286359
-5.325384635831397 -4.838754907331538 61.04868209413014
0.9858281538080402 -11.80112242815202 2.004692073361632
8.070718363939209 5.110009004266457 31.09947980494178
8.051745683059584 4.591136962006225 9.291809363129794
7.437382861446498 4.474693664165629 16.77574217926859
2.887905700887345 9.107473900761969 5.662203449954019
7.019607762759467 4.022000428931504 24.26627481815688
3.0477295561443 8.440354700673042 13.03970448086909
7.569220907142832 6.160519960780086 3.057618686932529
3.038371686199244 7.81172098077698 20.5610926219757
7.26131808011861 4.194825204939402 20.50910025391386
7.793696473282826 4.452207342452613 13.01449520850115
2.86834027195759 8.191620968896901 16.78124451610072
3.140404257249663 8.719344812040807 9.305542369085201
6.198865354017823 7.150113489797358 6.822100304071115
2.793078664591854 7.589607559278029 24.30393547971059
5.043255801371329 6.055041102563941 26.93429048379041
5.901790924528028 6.972358308383336 10.99316807813019
8.458867414271667 4.401692981712393 5.900980224859148
4.964177224160543 8.422490386301435 2.838896081714473
5.69529314967503 6.759687366541777 14.75059818714865
5.46802780096855 6.563470371656075 18.51619583898703
5.301704642125675 6.314272690030402 22.30086358392034
6.793332655481766 3.92654635486183 27.36315795848414
2.673877455226845 7.378831081887427 27.33916695214084
8.940710631701901 3.999458928291617 2.611288485913275
2.473342893921887 9.472122900787022 2.671912881994636
-5.846342492916161 1.5 12.72527086624219
-4.99375834063021 1.5 20.3653825980357
5.985276706905244 1.5 9.311475652393685
5.293743877536299 1.5 16.61574234954144
4.740289653529189 1.5 24.12974386727642
-0.5672522574295868 1.5 3.203455450423001
-2.019074101181367 1.5 26.81526432006471
-6.333047060043306 1.5 5.523237486554241
5.579789305216384 1.5 4.009851331940046
5.002134963239831 1.5 20.36787776150845
1.919108809199622 1.5 18.23337331326922
2.199707665877007 1.5 14.48204071307608
-1.200981011000433 1.5 16.09758620731177
-0.6218139613343361 1.5 12.43582957099477
1.776084354596112 1.5 22.0875859772863
5.609246068292164 1.5 12.89859613162912
-6.058179257434425 1.5 9.048025812134426
-2.842278913660166 1.5 6.670165822304991
-4.797932127371272 1.5 16.69377136041267
-4.827686266029502 1.5 24.30531152851072
2.603872496320906 1.5 10.8753503924512
1.721694837498061 1.5 26.35803869066887
3.18830533782964 1.5 6.990920711422531
-1.421848572094948 1.5 19.64597231531831
-4.104778269695908 1.5 3.005973501929354
-1.591708279564548 1.5 23.23938196438722
-0.3418933104204971 1.5 9.145597078764389
-4.889434650285803 1.5 27.1770835884724
4.889434650285811 1.5 27.1770835884724
-3.132914574792839 1.5 10.68088392698083
0.01287580974660862 1.5 6.30815576908389
2.835152242981265 1.5 2.778512163315054
-6.976603413728302 1.5 2.638982252293892
-3.086979512991467 1.5 14.06041441144425
6.750725995884192 1.5 6.54210360201485
-8.051745683054746 4.591136962015106 9.291809363127301
-7.437382861446013 4.47469366416644 16.77574217926853
-3.21029204252156 9.005631050337254 5.581582483895348
-7.020758497524429 4.019699019249563 24.26812064930116
-3.203802386829451 8.379068283030358 13.07872561460345
-7.569220907142834 6.160519960780083 3.057618686932527
-3.195876083887063 7.747393164372535 20.57546639453446
-7.264709830749781 4.189006713918427 20.50873099318654
-7.793696473280742 4.452207342456265 13.01449520850113
-3.200092925761818 8.063917369987927 16.82712893244772
-3.207244923636279 8.692913481848622 9.330187864157706
-6.322900586583692 7.040250663640289 6.826030056782612
-3.191297436713574 7.429266221638618 24.32362017427157
-5.078314179272757 6.023952546009908 26.95095833267496
-5.95122058020413 6.932985134657349 10.96646966426246
-8.458867414269971 4.401692981716721 5.900980224852905
-5.073761498938437 8.355904925964898 2.850071656787585
-5.695293149669264 6.759687366546686 14.75059818714815
-5.488877788829701 6.546893719960264 18.50792236468437
-5.438648313203159 6.190396806913802 22.36114078686688
-6.793332836174167 3.926545976552471 27.36315837618891
-2.696479771179424 7.370583601152032 27.33937984812594
-8.912782646819618 4.04451421508335 2.699657302875987
-2.435416229225496 9.491544078944369 2.553778445663498
2.036762255503579 -2.465878735148001 70
-2.931242834104605 1.814244488222067 70
2.220444710834426 2.562529799245061 70
-0.6831995369230197 -3.496268133505534 70
-0.02234530465756696 0.03719856234068248 70
-3.39055316097431 -1.091717545806296 70
3.607782420842984 0.02230827107295836 70
-0.5196398350093629 3.614174438789244 70
1.064410691579905 4.569474397630723 30
-1.947164632340643 4.166664284104711 30
3.564918936074289 4.349614574951915 30
0.0399413553751593 -0.005014598656646996 39.11819880851235
-0.0491096798781685 -0.02378325196820352 47.3957600595962
-0.0108466072436022 -0.005158960200187579 56.14649265345469
0.1138358235571335 -0.007592231021569251 63.07342678231053
2.203484896667463 3.195073806325359 35.20259378681648
-2.213094857841953 -3.304369751593073 35.27425991994121
3.35509098805061 -2.100280464638918 35.37438657106358
-2.921649091212694 1.926990278812264 35.19756126688124
-2.661752006185414 2.206525651459028 43.23342904547743
-0.3302236925566752 -3.436153520529498 43.24571763118984
3.337305924396336 0.4443813406154987 43.29397214850095
1.524305219915617 2.494806054470875 51.75898963927838
-2.836682908654289 -0.7030246226281653 51.78486428858898
1.86755235473566 -2.547921217837988 51.5121344938973
-2.471715498212036 1.852606719325688 59.76100689832188
4.482792855692665 1.286301563395396 38.76522755198634
-4.217497981132206 -1.644746614972593 40.27721573083529
-0.8367573799868113 4.478784083241914 38.43504811535977
0.8876139094597618 -4.423545844521017 38.41568386321723
2.075869546789158 2.32406789094345 59.66372686482253
1.08600733412866 3.942094776320831 45.28246366464143
2.04453463637178 -2.266228269253123 59.57329184949415
-3.083401155791521 -3.11770682120498 46.65337295436404
-2.896060075389166 2.793730910116405 49.15597665761599
-2.213068827916345 -2.390525902515494 59.47652903043546
-2.259276434697561 3.097593838903372 53.68993703865151
2.161839368844977 -3.68326870676133 46.76755360449353
0.68425406149178 2.655448663392768 66.17227285278372
-1.774621210467449 -2.114953144479214 66.18242509690896
4.250052584766089 -0.1335348838399784 48.30227223422948
2.464851177667705 -0.9961125437430455 66.23635037682782
-4.431010588696839 2.451852377627596 39.44878217032877
2.344685759276838 4.022808911819848 41.22065326625703
-1.259908924068182 -3.593646116280762 54.37785113015934
3.952851253846867 -2.951271492217895 40.89029971720782
-1.083816103508181 5.495275686063975 33.90705880471531
1.134346718278403 -5.186874331606801 33.87405109155304
0.2870076467983281 -0.04447915608970354 33.75136497670777
5.465904062848295 1.092451615496207 34.07968236203839
3.617760148167255 -0.02282095654198945 54.23149874726412
-5.440683600979819 -1.09894311083144 33.79799761484515
-3.919242872902266 -0.6923455494103337 55.63658385769114
-1.416043034806272 -4.176911615010769 50.06382785381324
-4.452010092934262 0.5546309867075423 46.3214024597042
-0.4273178131685091 3.752765300720291 57.055302013788

CELLS 3435 15655
1 0
1 1
1 2
1 3
1 4
1 5
1 6
1 7
1 8
1 9
1 10
1 11
2 0 12
2 12 13
2 13 14
2 14 15
2 15 16
2 16 17
2 17 18
2 18 1
2 0 19
2 19 20
2 20 21
2 21 22
2 22 1
2 2 23
2 23 24
2 24 25
2 25 26
2 26 27
2 27 28
2 28 29
2 29 0
2 2 30
2 30 31
2 31 32
2 32 33
2 33 34
2 34 3
2 1 35
2 35 36
2 36 37
2 37 38
2 38 39
2 39 40
2 40 41
2 41 3
2 2 42
2 42 43
2 43 44
2 44 3
2 4 45
2 45 46
2 46 47
2 47 48
2 48 49
2 49 50
2 50 51
2 51 52
2 52 53
2 53 54
2 54 55
2 55 56
2 56 57
2 57 58
2 58 59
2 59 60
2 60 61
2 61 62
2 62 4
2 5 63
2 63 64
2 64 65
2 65 6
2 5 66
2 66 67
2 67 68
2 68 69
2 69 7
2 6 70
2 70 71
2 71 72
2 72 7
2 8 73
2 73 74
2 74 75
2 75 76
2 76 77
2 77 78
2 78 79
2 79 80
2 80 81
2 81 82
2 82 8
2 4 83
2 83 84
2 84 85
2 85 86
2 86 87
2 87 88
2 88 89
2 89 90
2 90 91
2 91 92
2 92 93
2 93 94
2 94 95
2 95 96
2 96 97
2 97 98
2 98 99
2 99 8
2 9 100
2 100 101
2 101 102
2 102 103
2 103 104
2 104 105
2 105 106
2 106 5
2 9 107
2 107 108
2 108 10
2 6 109
2 109 110
2 110 111
2 111 112
2 112 113
2 113 114
2 114 115
2 115 10
2 7 116
2 116 117
2 117 118
2 118 119
2 119 120
2 120 121
2 121 122
2 122 11
2 9 123
2 123 124
2 124 125
2 125 11
2 10 126
2 126 127
2 127 11
3 12 179 0
3 0 179 29
3 1 180 18
3 35 180 1
3 23 176 2
3 2 176 30
3 34 175 3
3 3 175 41
3 13 170 12
3 170 179 12
3 14 133 13
3 133 170 13
3 15 167 14
3 14 167 133
3 16 132 15
3 132 167 15
3 17 169 16
3 16 169 132
3 18 171 17
3 17 171 169
3 18 180 171
3 24 160 23
3 160 176 23
3 25 130 24
3 130 160 24
3 26 138 25
3 25 138 130
3 27 129 26
3 129 138 26
3 28 159 27
3 27 159 129
3 29 137 28
3 137 159 28
3 29 179 137
3 30 162 31
3 30 176 162
3 31 134 32
3 31 162 134
3 32 173 33
3 134 173 32
3 33 136 34
3 33 173 136
3 136 175 34
3 36 135 35
3 135 180 35
3 37 168 36
3 36 168 135
3 38 131 37
3 131 168 37
3 39 155 38
3 38 155 131
3 40 128 39
3 128 155 39
3 41 166 40
3 40 166 128
3 41 175 166
3 128 153 152
3 152 155 128
3 128 166 153
3 129 139 138
3 129 140 139
3 129 159 140
3 138 163 130
3 130 161 160
3 130 163 161
3 150 168 131
3 131 174 150
3 155 174 131
3 151 167 132
3 132 177 151
3 169 177 132
3 158 170 133
3 133 172 158
3 167 172 133
3 134 165 154
3 154 173 134
3 162 178 134
3 134 178 165
3 156 171 135
3 135 181 156
3 168 181 135
3 171 180 135
3 136 154 153
3 153 166 136
3 136 173 154
3 166 175 136
3 158 159 137
3 137 170 158
3 137 179 170
3 139 163 138
3 140 141 139
3 141 142 139
3 142 163 139
3 140 157 141
3 140 158 157
3 140 159 158
3 141 143 142
3 141 144 143
3 141 157 144
3 143 145 142
3 145 146 142
3 146 163 142
3 144 148 143
3 143 164 145
3 148 164 143
3 144 149 148
3 144 151 149
3 144 157 151
3 145 147 146
3 145 152 147
3 145 164 152
3 147 165 146
3 161 163 146
3 146 165 161
3 152 153 147
3 153 154 147
3 154 165 147
3 149 150 148
3 150 174 148
3 148 174 164
3 149 156 150
3 151 177 149
3 149 177 156
3 156 181 150
3 150 181 168
3 157 172 151
3 151 172 167
3 152 164 155
3 164 174 155
3 169 171 156
3 156 177 169
3 158 172 157
3 161 178 160
3 162 176 160
3 160 178 162
3 165 178 161
3 29 19 0
3 22 214 1
3 1 214 35
3 2 210 23
3 42 210 2
3 41 209 3
3 3 209 44
3 19 213 20
3 29 190 19
3 190 213 19
3 20 187 21
3 20 213 187
3 21 206 22
3 187 206 21
3 206 214 22
3 23 186 24
3 23 210 186
3 24 191 25
3 186 191 24
3 25 185 26
3 25 191 185
3 26 197 27
3 185 197 26
3 27 184 28
3 27 197 184
3 28 216 29
3 184 216 28
3 29 216 190
3 35 189 36
3 35 214 189
3 36 198 37
3 189 198 36
3 37 182 38
3 37 198 182
3 38 200 39
3 182 200 38
3 39 183 40
3 39 200 183
3 40 201 41
3 183 201 40
3 201 209 41
3 43 203 42
3 203 210 42
3 44 188 43
3 188 203 43
3 44 209 188
3 198 211 182
3 182 215 200
3 211 215 182
3 200 205 183
3 183 207 201
3 205 207 183
3 197 202 184
3 202 204 184
3 204 216 184
3 191 192 185
3 192 193 185
3 193 197 185
3 186 196 191
3 186 203 196
3 186 210 203
3 199 206 187
3 187 212 199
3 187 213 212
3 201 207 188
3 188 209 201
3 188 207 203
3 189 199 198
3 189 206 199
3 189 214 206
3 204 213 190
3 190 216 204
3 191 196 192
3 192 194 193
3 192 205 194
3 196 205 192
3 194 195 193
3 195 202 193
3 193 202 197
3 194 215 195
3 194 205 200
3 200 215 194
3 195 208 202
3 195 211 208
3 195 215 211
3 203 207 196
3 196 207 205
3 199 211 198
3 208 211 199
3 199 212 208
3 202 208 204
3 208 212 204
3 212 213 204
3 42 2 30
3 34 3 44
3 31 219 30
3 30 219 42
3 32 217 31
3 217 219 31
3 33 218 32
3 32 218 217
3 34 218 33
3 44 218 34
3 42 217 43
3 42 219 217
3 43 218 44
3 217 218 43
3 7 0 54
3 7 220 0
3 12 221 0
3 0 220 19
3 0 221 54
3 4 1 5
3 62 1 4
3 1 225 5
3 18 1 62
3 22 225 1
3 45 4 5
3 5 63 45
3 5 225 66
3 49 48 6
3 6 48 65
3 70 49 6
3 54 53 7
3 53 222 7
3 69 220 7
3 7 222 72
3 13 224 12
3 55 221 12
3 12 224 55
3 13 14 57
3 56 13 57
3 56 224 13
3 14 15 58
3 57 14 58
3 59 15 16
3 58 15 59
3 17 60 16
3 16 60 59
3 18 61 17
3 17 61 60
3 62 61 18
3 19 228 20
3 19 220 69
3 69 228 19
3 20 226 21
3 68 226 20
3 20 228 68
3 21 227 22
3 21 226 67
3 67 227 21
3 66 225 22
3 22 227 66
3 45 63 46
3 47 46 64
3 46 63 64
3 48 47 65
3 65 47 64
3 50 49 70
3 50 71 51
3 70 71 50
3 51 223 52
3 71 223 51
3 52 222 53
3 72 222 52
3 52 223 72
3 54 221 55
3 55 224 56
3 66 227 67
3 67 226 68
3 68 228 69
3 72 223 71
3 45 508 4
3 4 507 62
3 83 507 4
3 4 508 83
3 8 500 73
3 82 504 8
3 99 500 8
3 8 504 99
3 46 251 45
3 251 508 45
3 47 495 46
3 46 495 251
3 48 248 47
3 248 495 47
3 49 512 48
3 48 512 248
3 50 235 49
3 235 512 49
3 51 478 50
3 50 478 235
3 52 246 51
3 246 478 51
3 53 476 52
3 52 476 246
3 54 234 53
3 234 476 53
3 55 481 54
3 54 481 234
3 56 247 55
3 247 481 55
3 57 475 56
3 56 475 247
3 58 237 57
3 237 475 57
3 59 514 58
3 58 514 237
3 60 477 59
3 477 514 59
3 61 245 60
3 245 477 60
3 62 482 61
3 61 482 245
3 62 507 482
3 73 391 74
3 73 500 391
3 74 484 75
3 391 484 74
3 75 243 76
3 75 484 243
3 76 485 77
3 243 485 76
3 77 489 78
3 485 489 77
3 78 239 79
3 78 489 239
3 79 442 80
3 239 442 79
3 80 249 81
3 80 442 249
3 81 450 82
3 249 450 81
3 450 504 82
3 84 252 83
3 83 483 84
3 252 507 83
3 83 508 483
3 84 244 85
3 85 415 84
3 84 483 244
3 84 415 252
3 86 240 85
3 85 388 86
3 240 415 85
3 244 388 85
3 86 238 87
3 87 454 86
3 86 388 238
3 86 454 240
3 88 414 87
3 87 498 88
3 238 498 87
3 414 454 87
3 89 232 88
3 88 413 89
3 232 414 88
3 88 498 413
3 89 231 90
3 90 254 89
3 89 413 231
3 89 254 232
3 91 253 90
3 90 407 91
3 231 407 90
3 253 254 90
3 92 229 91
3 91 242 92
3 229 253 91
3 91 407 242
3 92 402 93
3 93 470 92
3 92 470 229
3 242 402 92
3 93 230 94
3 94 400 93
3 93 402 230
3 400 470 93
3 95 233 94
3 94 480 95
3 230 480 94
3 233 400 94
3 96 459 95
3 95 496 96
3 95 459 233
3 480 496 95
3 96 236 97
3 97 398 96
3 96 496 236
3 398 459 96
3 98 241 97
3 97 389 98
3 236 389 97
3 241 398 97
3 98 250 99
3 99 396 98
3 98 396 241
3 98 389 250
3 250 500 99
3 99 504 396
3 229 256 253
3 229 288 256
3 229 470 288
3 230 404 375
3 375 480 230
3 402 404 230
3 231 515 407
3 413 491 231
3 491 515 231
3 254 255 232
3 255 257 232
3 257 414 232
3 233 457 400
3 233 458 457
3 233 459 458
3 234 481 423
3 423 510 234
3 234 510 476
3 465 466 235
3 235 467 465
3 466 512 235
3 235 478 467
3 372 490 236
3 236 496 372
3 236 490 389
3 356 475 237
3 237 492 356
3 428 492 237
3 237 514 428
3 383 387 238
3 238 388 383
3 387 498 238
3 377 444 239
3 239 489 377
3 239 444 442
3 240 463 415
3 454 455 240
3 455 463 240
3 396 397 241
3 397 474 241
3 241 474 398
3 242 403 402
3 242 479 403
3 407 479 242
3 243 447 376
3 376 509 243
3 243 484 447
3 243 509 485
3 244 435 388
3 244 503 435
3 483 503 244
3 245 482 469
3 469 505 245
3 245 505 477
3 476 493 246
3 246 497 478
3 493 497 246
3 462 481 247
3 247 502 462
3 475 502 247
3 436 495 248
3 248 501 436
3 466 501 248
3 248 512 466
3 442 443 249
3 443 499 249
3 249 499 450
3 389 390 250
3 390 391 250
3 391 500 250
3 251 495 436
3 436 503 251
3 251 503 483
3 483 508 251
3 415 469 252
3 469 482 252
3 482 507 252
3 253 456 254
3 256 456 253
3 254 456 255
3 255 258 257
3 255 448 258
3 255 456 448
3 288 289 256
3 289 382 256
3 382 456 256
3 258 259 257
3 259 348 257
3 348 414 257
3 258 260 259
3 258 261 260
3 258 448 261
3 260 417 259
3 259 406 348
3 259 417 406
3 261 262 260
3 262 264 260
3 264 417 260
3 261 263 262
3 261 378 263
3 261 448 378
3 263 409 262
3 262 265 264
3 262 409 265
3 378 379 263
3 379 380 263
3 380 409 263
3 265 266 264
3 266 282 264
3 282 417 264
3 265 267 266
3 265 268 267
3 265 409 268
3 267 416 266
3 266 317 282
3 266 416 317
3 268 269 267
3 269 285 267
3 285 416 267
3 268 270 269
3 268 410 270
3 409 410 268
3 270 271 269
3 271 432 269
3 269 432 285
3 270 272 271
3 270 306 272
3 270 410 306
3 272 273 271
3 273 280 271
3 280 432 271
3 272 274 273
3 272 451 274
3 306 451 272
3 274 275 273
3 275 438 273
3 273 438 280
3 274 276 275
3 274 277 276
3 274 451 277
3 276 278 275
3 278 279 275
3 279 438 275
3 277 392 276
3 276 281 278
3 276 392 281
3 359 392 277
3 277 393 359
3 277 451 393
3 278 283 279
3 281 429 278
3 278 429 283
3 283 284 279
3 284 437 279
3 437 438 279
3 280 441 432
3 438 452 280
3 280 452 441
3 392 395 281
3 395 487 281
3 281 487 429
3 317 318 282
3 318 330 282
3 330 417 282
3 283 286 284
3 283 287 286
3 283 429 287
3 286 309 284
3 309 310 284
3 310 437 284
3 285 419 416
3 285 421 419
3 285 432 421
3 287 418 286
3 286 311 309
3 286 418 311
3 371 385 287
3 287 429 371
3 385 418 287
3 288 290 289
3 288 349 290
3 288 470 349
3 290 291 289
3 291 341 289
3 341 382 289
3 290 292 291
3 290 401 292
3 349 401 290
3 292 293 291
3 293 411 291
3 291 411 341
3 292 294 293
3 292 324 294
3 292 401 324
3 294 295 293
3 295 321 293
3 321 411 293
3 294 296 295
3 294 405 296
3 324 405 294
3 296 297 295
3 297 434 295
3 295 434 321
3 296 298 297
3 296 299 298
3 296 405 299
3 298 304 297
3 304 315 297
3 315 434 297
3 299 300 298
3 300 412 298
3 298 412 304
3 299 301 300
3 299 408 301
3 405 408 299
3 301 302 300
3 302 303 300
3 303 412 300
3 301 312 302
3 301 313 312
3 301 408 313
3 302 305 303
3 302 461 305
3 312 461 302
3 305 307 303
3 307 440 303
3 303 440 412
3 304 316 315
3 304 350 316
3 304 412 350
3 305 308 307
3 305 314 308
3 305 461 314
3 306 430 394
3 394 451 306
3 410 430 306
3 308 319 307
3 319 320 307
3 320 440 307
3 314 329 308
3 308 433 319
3 329 433 308
3 309 468 310
3 311 326 309
3 326 468 309
3 310 473 437
3 468 486 310
3 310 486 473
3 311 327 326
3 311 335 327
3 311 418 335
3 313 325 312
3 325 453 312
3 453 461 312
3 313 328 325
3 313 332 328
3 313 408 332
3 314 342 329
3 314 343 342
3 314 461 343
3 316 338 315
3 338 344 315
3 344 434 315
3 316 339 338
3 316 439 339
3 350 439 316
3 317 345 318
3 317 346 345
3 317 416 346
3 318 331 330
3 318 427 331
3 345 427 318
3 319 322 320
3 319 336 322
3 319 433 336
3 322 323 320
3 323 449 320
3 320 449 440
3 381 411 321
3 321 472 381
3 434 472 321
3 322 471 323
3 336 337 322
3 337 471 322
3 399 460 323
3 323 471 399
3 323 460 449
3 401 445 324
3 324 431 405
3 324 445 431
3 328 488 325
3 325 513 453
3 488 513 325
3 327 464 326
3 464 465 326
3 465 468 326
3 335 347 327
3 347 353 327
3 353 464 327
3 332 333 328
3 333 334 328
3 334 488 328
3 342 376 329
3 376 446 329
3 329 446 433
3 331 351 330
3 351 406 330
3 406 417 330
3 331 354 351
3 331 355 354
3 331 427 355
3 332 340 333
3 332 431 340
3 408 431 332
3 333 474 334
3 340 352 333
3 352 474 333
3 334 474 397
3 397 499 334
3 443 488 334
3 334 499 443
3 335 383 347
3 335 384 383
3 335 418 384
3 336 372 337
3 336 373 372
3 336 433 373
3 372 374 337
3 374 375 337
3 375 471 337
3 339 359 338
3 338 393 344
3 359 393 338
3 339 360 359
3 339 361 360
3 339 439 361
3 340 458 352
3 431 445 340
3 445 458 340
3 341 379 378
3 378 382 341
3 341 411 379
3 343 358 342
3 358 509 342
3 342 509 376
3 343 377 358
3 343 453 377
3 343 461 453
3 393 394 344
3 394 472 344
3 344 472 434
3 346 356 345
3 356 492 345
3 345 492 427
3 346 357 356
3 346 419 357
3 416 419 346
3 347 435 353
3 383 388 347
3 388 435 347
3 406 455 348
3 348 454 414
3 348 455 454
3 400 457 349
3 349 470 400
3 349 457 401
3 412 440 350
3 350 449 439
3 440 449 350
3 354 463 351
3 351 455 406
3 351 463 455
3 352 459 398
3 398 474 352
3 458 459 352
3 435 436 353
3 436 501 353
3 353 501 464
3 355 505 354
3 354 469 463
3 354 505 469
3 427 428 355
3 428 477 355
3 477 505 355
3 357 502 356
3 356 502 475
3 419 420 357
3 420 462 357
3 462 502 357
3 377 489 358
3 358 489 485
3 485 509 358
3 360 392 359
3 361 362 360
3 362 395 360
3 360 395 392
3 361 363 362
3 361 460 363
3 439 460 361
3 363 364 362
3 364 365 362
3 365 395 362
3 363 366 364
3 363 399 366
3 363 460 399
3 364 367 365
3 366 506 364
3 364 506 367
3 367 368 365
3 368 487 365
3 365 487 395
3 399 494 366
3 366 404 403
3 403 506 366
3 366 494 404
3 367 369 368
3 367 479 369
3 367 506 479
3 369 370 368
3 370 371 368
3 371 487 368
3 369 491 370
3 479 515 369
3 369 515 491
3 370 385 371
3 370 386 385
3 370 491 386
3 429 487 371
3 373 490 372
3 372 496 374
3 433 446 373
3 446 511 373
3 373 511 490
3 374 480 375
3 374 496 480
3 404 494 375
3 375 494 471
3 376 447 446
3 377 513 444
3 453 513 377
3 378 448 382
3 379 381 380
3 379 411 381
3 381 430 380
3 380 410 409
3 380 430 410
3 381 472 430
3 448 456 382
3 384 387 383
3 385 386 384
3 384 418 385
3 386 387 384
3 386 413 387
3 386 491 413
3 413 498 387
3 389 490 390
3 390 447 391
3 390 511 447
3 490 511 390
3 447 484 391
3 393 451 394
3 430 472 394
3 396 450 397
3 396 504 450
3 450 499 397
3 471 494 399
3 401 457 445
3 403 404 402
3 479 506 403
3 405 431 408
3 407 515 479
3 463 469 415
3 419 421 420
3 421 422 420
3 422 423 420
3 423 462 420
3 421 441 422
3 432 441 421
3 422 424 423
3 422 425 424
3 422 441 425
3 424 510 423
3 423 481 462
3 425 426 424
3 426 493 424
3 493 510 424
3 425 473 426
3 441 452 425
3 452 473 425
3 473 486 426
3 486 497 426
3 426 497 493
3 427 492 428
3 428 514 477
3 435 503 436
3 437 452 438
3 437 473 452
3 449 460 439
3 442 444 443
3 444 488 443
3 444 513 488
3 457 458 445
3 447 511 446
3 464 466 465
3 464 501 466
3 467 468 465
3 467 486 468
3 478 497 467
3 467 497 486
3 476 510 493
3 63 5 538
3 5 106 538
3 6 65 539
3 109 6 539
3 100 9 536
3 9 107 536
3 108 10 537
3 10 115 537
3 64 63 521
3 521 63 538
3 65 64 532
3 64 521 532
3 65 532 539
3 101 100 519
3 519 100 536
3 102 101 523
3 101 519 523
3 103 102 517
3 517 102 523
3 104 103 524
3 103 517 524
3 105 104 516
3 516 104 524
3 106 105 531
3 105 516 531
3 106 531 538
3 107 108 529
3 107 529 536
3 529 108 537
3 110 109 518
3 518 109 539
3 111 110 526
3 110 518 526
3 112 111 520
3 520 111 526
3 113 112 525
3 112 520 525
3 114 113 522
3 522 113 525
3 115 114 528
3 114 522 528
3 115 528 537
3 516 524 530
3 527 516 530
3 516 527 531
3 517 523 534
3 524 517 533
3 533 517 534
3 526 518 527
3 527 518 532
3 532 518 539
3 523 519 535
3 519 529 535
3 529 519 536
3 525 520 533
3 520 526 530
3 520 530 533
3 527 521 531
3 521 527 532
3 531 521 538
3 522 525 534
3 528 522 535
3 522 534 535
3 534 523 535
3 530 524 533
3 525 533 534
3 526 527 530
3 529 528 535
3 528 529 537
3 106 5 66
3 69 7 572
3 7 116 572
3 9 100 568
3 123 9 568
3 122 11 567
3 11 125 567
3 66 67 571
3 106 66 548
3 548 66 571
3 67 68 545
3 67 545 571
3 68 69 564
3 545 68 564
3 564 69 572
3 100 101 544
3 100 544 568
3 101 102 549
3 544 101 549
3 102 103 543
3 102 543 549
3 103 104 555
3 543 103 555
3 104 105 542
3 104 542 555
3 105 106 574
3 542 105 574
3 106 548 574
3 116 117 547
3 116 547 572
3 117 118 556
3 547 117 556
3 118 119 540
3 118 540 556
3 119 120 558
3 540 119 558
3 120 121 541
3 120 541 558
3 121 122 559
3 541 121 559
3 559 122 567
3 124 123 561
3 561 123 568
3 125 124 546
3 546 124 561
3 125 546 567
3 556 540 569
3 540 558 573
3 569 540 573
3 558 541 563
3 541 559 565
3 563 541 565
3 555 542 560
3 560 542 562
3 562 542 574
3 549 543 550
3 550 543 551
3 551 543 555
3 544 549 554
3 544 554 561
3 544 561 568
3 557 545 564
3 545 557 570
3 545 570 571
3 559 546 565
3 546 559 567
3 546 561 565
3 547 556 557
3 547 557 564
3 547 564 572
3 562 548 571
3 548 562 574
3 549 550 554
3 550 551 552
3 550 552 563
3 554 550 563
3 552 551 553
3 553 551 560
3 551 555 560
3 552 553 573
3 552 558 563
3 558 552 573
3 553 560 566
3 553 566 569
3 553 569 573
3 561 554 565
3 554 563 565
3 557 556 569
3 566 557 569
3 557 566 570
3 560 562 566
3 566 562 570
3 570 562 571
3 70 6 598
3 6 109 598
3 7 72 597
3 116 7 597
3 115 10 596
3 10 126 596
3 11 122 595
3 127 11 595
3 71 70 591
3 591 70 598
3 72 71 580
3 580 71 591
3 72 580 597
3 109 110 577
3 109 577 598
3 110 111 585
3 577 110 585
3 111 112 579
3 111 579 585
3 112 113 584
3 579 112 584
3 113 114 581
3 113 581 584
3 114 115 587
3 581 114 587
3 587 115 596
3 117 116 590
3 590 116 597
3 118 117 575
3 575 117 590
3 119 118 583
3 118 575 583
3 120 119 576
3 576 119 583
3 121 120 582
3 120 576 582
3 122 121 578
3 578 121 582
3 122 578 595
3 126 127 588
3 126 588 596
3 588 127 595
3 583 575 589
3 575 586 589
3 586 575 590
3 582 576 593
3 576 583 592
3 576 592 593
3 577 585 586
3 577 586 591
3 577 591 598
3 578 582 594
3 588 578 594
3 578 588 595
3 579 584 592
3 585 579 589
3 589 579 592
3 580 586 590
3 586 580 591
3 580 590 597
3 584 581 593
3 581 587 594
3 593 581 594
3 582 593 594
3 583 589 592
3 592 584 593
3 586 585 589
3 587 588 594
3 588 587 596
3 73 605 8
3 8 605 82
3 74 601 73
3 601 605 73
3 75 606 74
3 74 606 601
3 76 606 75
3 77 600 76
3 600 606 76
3 78 604 77
3 77 604 600
3 79 604 78
3 80 602 79
3 602 604 79
3 81 602 80
3 82 599 81
3 599 602 81
3 82 605 599
3 599 603 602
3 599 605 603
3 600 604 603
3 603 606 600
3 603 605 601
3 601 606 603
3 603 604 602
3 123 107 9
3 10 108 607
3 126 10 608
3 10 607 608
3 125 11 127
3 108 107 609
3 107 123 609
3 607 108 609
3 123 124 607
3 123 607 609
3 124 125 608
3 607 124 608
3 125 127 608
3 127 126 608
4 293 615 626 628
4 509 613 376 637
4 474 352 643 649
4 509 376 613 624
4 358 613 509 637
4 293 615 321 626
4 474 643 631 649
4 613 637 358 638
4 322 630 621 633
4 367 108 609 614
4 337 621 322 630
4 337 322 471 630
4 293 626 619 628
4 600 485 637 638
4 31 217 219 615
4 352 623 643 649
4 250 98 613 629
4 631 643 612 649
4 250 613 98 640
4 609 108 607 614
4 250 629 613 637
4 295 619 293 626
4 333 474 352 643
4 509 613 358 624
4 31 219 381 615
4 490 649 629 654
4 295 296 619 626
4 297 632 626 653
4 618 627 460 642
4 443 613 631 634
4 434 626 615 650
4 296 619 626 632
4 460 630 618 642
4 377 624 613 634
4 449 630 323 633
4 381 615 219 650
4 449 618 630 633
4 31 615 379 646
4 613 629 98 631
4 490 372 649 654
4 333 631 474 643
4 609 479 367 614
4 250 637 613 640
4 479 614 609 648
4 447 613 376 624
4 250 390 629 637
4 613 624 447 629
4 460 399 630 642
4 296 626 297 632
4 485 358 509 637
4 31 217 615 646
4 125 127 11 617
4 344 641 626 650
4 509 358 342 624
4 358 637 485 638
4 626 632 619 653
4 621 649 372 654
4 618 626 619 653
4 443 613 499 631
4 613 634 443 638
4 376 613 447 637
4 295 296 294 619
4 506 627 614 642
4 304 297 626 653
4 11 125 617 650
4 295 294 293 619
4 444 443 634 638
4 499 613 638 640
4 358 613 377 624
4 30 381 219 650
4 367 108 614 645
4 236 629 490 649
4 375 621 630 639
4 298 632 297 653
4 323 630 322 633
4 31 381 379 615
4 399 460 363 627
4 97 631 629 649
4 375 374 621 639
4 295 293 321 626
4 399 460 627 642
4 328 634 631 643
4 236 490 372 649
4 293 411 615 628
4 499 613 443 638
4 626 641 617 650
4 474 398 352 649
4 615 626 617 650
4 607 614 108 645
4 460 627 618 641
4 399 627 363 642
4 229 625 616 644
4 337 375 621 630
4 618 619 610 620
4 506 364 614 627
4 610 617 615 626
4 377 613 358 638
4 613 629 447 637
4 107 479 609 648
4 314 635 624 651
4 377 634 613 638
4 446 447 624 629
4 34 256 616 646
4 308 314 635 654
4 624 635 314 654
4 434 321 615 626
4 44 253 3 648
4 322 633 621 635
4 328 631 333 643
4 618 626 304 641
4 474 631 398 649
4 400 636 620 644
4 446 447 376 624
4 304 626 618 653
4 400 349 636 644
4 460 618 439 641
4 611 619 618 620
4 359 11 127 617
4 44 616 253 648
4 11 617 359 650
4 303 622 300 653
4 460 361 627 641
4 403 614 625 642
4 506 614 403 642
4 295 297 296 626
4 293 619 292 628
4 344 338 641 650
4 434 615 472 650
4 460 439 361 641
4 611 630 621 639
4 401 290 619 644
4 616 625 229 648
4 444 634 377 638
4 379 615 411 646
4 316 618 304 641
4 506 364 627 642
4 253 44 34 616
4 621 630 611 633
4 600 489 485 638
4 434 344 626 650
4 622 632 300 653
4 303 633 622 653
4 400 349 457 636
4 92 229 625 648
4 619 636 401 644
4 322 319 633 635
4 304 298 297 653
4 92 625 229 644
4 300 622 299 632
4 349 401 636 644
4 292 619 290 628
4 401 290 292 619
4 509 342 376 624
4 603 600 637 638
4 396 631 397 640
4 293 411 321 615
4 98 629 97 631
4 620 636 400 639
4 236 97 629 649
4 290 628 619 644
4 230 630 620 639
4 337 375 374 621
4 253 34 256 616
4 618 633 449 653
4 358 377 343 624
4 97 398 631 649
4 377 343 624 634
4 92 91 229 648
4 294 619 296 632
4 250 98 99 640
4 308 314 305 635
4 314 305 635 651
4 316 304 626 641
4 323 471 322 630
4 443 631 334 634
4 229 616 288 644
4 34 382 256 646
4 288 616 289 628
4 92 229 470 644
4 390 447 629 637
4 403 614 242 625
4 381 411 379 615
4 610 619 618 626
4 296 297 298 632
4 615 610 626 628
4 324 636 632 652
4 34 616 218 646
4 629 649 612 654
4 242 625 614 648
4 33 382 34 646
4 294 292 293 619
4 304 316 350 618
4 366 627 364 642
4 299 632 622 652
4 461 624 634 651
4 617 641 338 650
4 461 634 453 651
4 506 366 364 642
4 336 319 322 635
4 374 496 621 639
4 336 322 621 635
4 608 127 617 645
4 305 622 303 635
4 3 44 34 253
4 615 616 610 628
4 618 620 610 642
4 610 616 615 647
4 624 651 635 654
4 396 98 241 631
4 288 616 628 644
4 98 389 97 629
4 250 389 98 629
4 499 638 249 640
4 300 301 299 622
4 336 621 372 654
4 219 217 42 615
4 218 34 44 616
4 608 127 125 617
4 610 616 614 625
4 367 614 364 645
4 301 299 622 652
4 324 619 632 636
4 328 334 333 631
4 323 322 320 633
4 459 639 623 649
4 472 434 321 615
4 392 617 127 645
4 360 617 627 641
4 289 288 256 616
4 622 633 303 635
4 375 480 374 639
4 334 631 328 634
4 11 359 393 650
4 411 615 628 646
4 305 302 303 622
4 307 303 633 635
4 496 621 639 649
4 443 499 334 631
4 242 403 479 614
4 324 619 294 632
4 449 323 320 633
4 607 123 609 614
4 610 625 614 627
4 316 304 315 626
4 242 614 479 648
4 405 324 632 652
4 611 620 618 630
4 629 631 612 649
4 340 623 445 652
4 610 614 616 647
4 94 620 400 639
4 337 471 375 630
4 619 626 610 628
4 610 617 626 641
4 620 625 93 644
4 241 98 97 631
4 303 300 412 653
4 253 616 229 648
4 445 623 636 652
4 443 334 488 634
4 599 249 602 640
4 360 361 339 641
4 360 627 361 641
4 123 609 614 648
4 250 500 637 640
4 33 34 218 646
4 612 649 621 654
4 360 339 617 641
4 614 627 364 645
4 489 600 604 638
4 612 622 621 623
4 126 127 608 645
4 472 615 381 650
4 459 95 639 649
4 304 618 350 653
4 305 302 622 651
4 614 627 625 642
4 323 460 399 630
4 305 303 307 635
4 431 636 324 652
4 91 253 229 648
4 446 629 624 654
4 449 633 440 653
4 458 636 623 639
4 400 636 233 639
4 457 349 401 636
4 405 324 294 632
4 305 622 635 651
4 364 367 506 614
4 616 625 610 644
4 336 635 621 654
4 339 338 617 641
4 402 625 620 642
4 350 618 449 653
4 108 367 365 645
4 219 615 42 650
4 488 444 443 634
4 289 628 616 646
4 496 639 95 649
4 618 610 627 642
4 127 392 359 617
4 289 616 256 646
4 93 620 402 625
4 611 630 618 633
4 610 615 617 647
4 509 376 243 637
4 490 373 372 654
4 457 233 400 636
4 621 622 611 623
4 500 601 637 640
4 614 617 610 627
4 506 479 403 614
4 458 233 636 639
4 618 630 620 642
4 620 630 404 642
4 229 256 288 616
4 358 485 489 638
4 249 638 602 640
4 396 99 98 640
4 313 312 325 651
4 322 319 320 633
4 610 617 614 647
4 400 620 93 644
4 411 628 291 646
4 316 626 315 641
4 444 513 377 634
4 360 617 392 645
4 620 636 619 644
4 458 445 623 636
4 301 643 408 652
4 340 458 445 623
4 301 622 643 652
4 400 94 93 620
4 316 439 350 618
4 634 643 325 651
4 631 634 612 643
4 42 615 43 647
4 616 610 628 644
4 125 647 617 650
4 298 300 632 653
4 313 325 643 651
4 43 615 646 647
4 350 449 440 653
4 30 472 381 650
4 42 615 647 650
4 324 401 619 636
4 625 627 610 642
4 401 349 290 644
4 124 614 645 647
4 389 236 97 629
4 431 445 324 636
4 42 647 125 650
4 618 611 633 653
4 253 256 229 616
4 611 632 622 653
4 43 615 217 646
4 218 616 44 647
4 392 127 126 645
4 315 434 344 626
4 439 618 316 641
4 293 291 411 628
4 434 295 321 626
4 405 431 324 652
4 374 480 496 639
4 610 620 619 644
4 401 292 324 619
4 449 439 460 618
4 325 634 328 643
4 340 643 623 652
4 624 629 613 631
4 606 600 243 637
4 43 42 217 615
4 10 607 108 645
4 329 446 376 624
4 377 453 343 634
4 360 627 617 645
4 336 322 337 621
4 332 643 340 652
4 241 97 398 631
4 434 472 344 650
4 218 646 616 647
4 373 336 372 654
4 459 623 352 649
4 124 614 607 645
4 313 643 301 651
4 624 631 613 634
4 314 624 461 651
4 509 243 485 637
4 303 412 633 653
4 312 313 301 651
4 500 605 601 640
4 298 300 299 632
4 243 600 485 637
4 301 643 622 651
4 619 620 611 636
4 392 360 359 617
4 123 614 124 647
4 340 445 431 652
4 612 629 624 631
4 612 623 621 649
4 303 412 440 633
4 391 390 250 637
4 359 617 338 650
4 124 123 607 614
4 446 511 447 629
4 611 622 621 633
4 339 338 359 617
4 612 631 624 634
4 402 620 404 642
4 44 647 616 648
4 400 93 470 644
4 301 408 299 652
4 610 618 627 641
4 445 636 431 652
4 404 620 230 630
4 10 108 365 645
4 363 460 361 627
4 622 623 612 643
4 301 313 408 643
4 291 293 292 628
4 611 622 633 653
4 124 645 617 647
4 302 300 303 622
4 621 622 612 635
4 324 292 294 619
4 449 350 439 618
4 612 643 623 649
4 476 53 52 222
4 610 619 628 644
4 250 99 500 640
4 224 55 56 247
4 513 444 488 634
4 398 459 352 649
4 242 92 625 648
4 342 358 343 624
4 229 288 470 644
4 620 630 611 639
4 440 633 412 653
4 123 614 647 648
4 499 443 249 638
4 411 291 341 646
4 359 360 339 617
4 288 628 290 644
4 623 639 621 649
4 603 638 637 640
4 124 608 617 645
4 290 288 289 628
4 242 91 92 648
4 289 291 628 646
4 621 623 611 639
4 603 604 600 638
4 246 52 51 223
4 307 633 319 635
4 301 300 302 622
4 614 625 616 648
4 123 107 609 648
4 125 124 608 617
4 329 446 624 654
4 124 617 125 647
4 610 626 618 641
4 616 628 615 646
4 107 515 479 648
4 92 93 402 625
4 313 325 328 643
4 44 123 647 648
4 611 623 622 652
4 367 364 365 645
4 450 249 599 640
4 94 230 620 639
4 43 218 44 647
4 506 367 479 614
4 611 622 632 652
4 411 381 321 615
4 302 301 622 651
4 472 321 381 615
4 304 297 315 626
4 320 319 307 633
4 453 634 312 651
4 250 390 389 629
4 624 612 651 654
4 621 635 612 654
4 610 625 620 644
4 43 646 218 647
4 382 289 256 646
4 499 249 450 640
4 489 377 358 638
4 382 34 256 456
4 611 636 620 639
4 312 634 325 651
4 474 333 334 631
4 314 343 461 624
4 364 366 363 627
4 372 621 496 649
4 458 233 457 636
4 314 461 305 651
4 453 325 312 634
4 496 480 95 639
4 3 253 90 648
4 403 625 402 642
4 377 513 453 634
4 616 646 615 647
4 332 333 340 643
4 94 400 233 639
4 617 647 615 650
4 291 292 290 628
4 635 651 612 654
4 289 341 291 646
4 402 93 230 620
4 488 334 328 634
4 407 479 515 648
4 610 627 617 641
4 396 241 397 631
4 379 411 341 646
4 621 633 622 635
4 506 403 366 642
4 375 494 404 630
4 603 637 601 640
4 91 90 253 648
4 433 635 336 654
4 603 600 606 637
4 359 338 393 650
4 620 625 610 642
4 42 124 125 647
4 449 320 440 633
4 233 459 95 639
4 494 404 630 642
4 623 611 636 652
4 390 447 511 629
4 458 352 459 623
4 329 376 342 624
4 402 230 404 620
4 95 459 96 649
4 32 378 33 646
4 375 404 230 630
4 405 294 296 632
4 33 378 382 646
4 42 43 124 647
4 236 372 496 649
4 94 230 93 620
4 399 363 366 642
4 511 629 446 654
4 363 627 366 642
4 298 412 300 653
4 500 391 250 637
4 360 362 361 627
4 398 97 96 649
4 360 362 627 645
4 494 630 399 642
4 372 336 337 621
4 376 447 243 637
4 219 42 30 650
4 617 645 614 647
4 632 636 611 652
4 611 632 619 636
4 389 490 236 629
4 397 334 499 631
4 362 364 627 645
4 442 249 443 638
4 391 447 390 637
4 617 627 614 645
4 458 340 352 623
4 319 336 433 635
4 616 647 614 648
4 637 638 613 640
4 372 337 374 621
4 97 236 96 649
4 302 312 301 651
4 332 340 431 652
4 601 606 74 637
4 324 445 401 636
4 601 391 500 637
4 307 303 440 633
4 623 636 611 639
4 605 603 601 640
4 372 374 496 621
4 123 3 9 648
4 612 634 624 651
4 433 329 308 654
4 405 632 299 652
4 612 643 634 651
4 339 361 439 641
4 44 3 123 648
4 602 249 442 638
4 241 398 474 631
4 332 408 643 652
4 488 328 325 634
4 95 96 496 649
4 297 295 434 626
4 408 405 299 652
4 256 34 253 456
4 341 382 378 646
4 490 629 373 654
4 124 43 44 647
4 291 290 289 628
4 461 453 312 651
4 221 54 55 481
4 32 341 378 646
4 500 99 605 640
4 471 323 399 630
4 400 470 349 644
4 394 472 30 650
4 408 313 332 643
4 76 243 606 600
4 511 373 629 654
4 79 442 239 638
4 612 635 622 651
4 433 308 635 654
4 124 607 608 645
4 44 123 124 647
4 392 126 395 645
4 398 96 459 649
4 381 31 30 219
4 125 11 2 650
4 379 341 32 646
4 443 444 442 638
4 316 315 338 641
4 123 9 107 648
4 606 484 74 637
4 544 101 40 549
4 239 604 79 638
4 307 308 305 635
4 362 364 363 627
4 350 440 412 653
4 403 402 404 642
4 90 9 3 648
4 458 457 445 636
4 391 601 74 637
4 511 373 490 629
4 94 480 230 639
4 79 602 442 638
4 624 629 612 654
4 77 485 600 489
4 186 191 24 121
4 329 342 314 624
4 81 602 599 249
4 239 377 489 638
4 377 239 444 638
4 494 399 366 642
4 308 319 433 635
4 304 350 412 653
4 623 643 622 652
4 365 367 108 368
4 100 101 41 201
4 288 290 349 644
4 599 605 504 640
4 338 344 393 650
4 304 412 298 653
4 11 359 127 277
4 191 185 25 120
4 2 42 125 650
4 315 297 434 626
4 553 552 193 195
4 622 643 612 651
4 101 100 544 201
4 504 605 99 640
4 105 36 37 198
4 218 43 217 646
4 444 239 442 638
4 298 299 296 632
4 194 193 552 195
4 40 41 101 201
4 105 37 104 198
4 27 117 556 28
4 117 27 556 118
4 25 119 185 26
4 329 433 446 654
4 403 242 402 625
4 484 243 447 637
4 243 76 485 600
4 105 104 542 198
4 28 27 184 556
4 79 604 602 638
4 599 450 81 249
4 307 440 320 633
4 41 9 100 568
4 30 2 394 650
4 342 343 314 624
4 445 457 401 636
4 92 402 242 625
4 120 24 191 121
4 122 559 24 121
4 242 479 407 648
4 361 362 363 627
4 599 504 450 640
4 239 489 604 638
4 471 399 494 630
4 25 24 191 120
4 568 3 41 9
4 3 568 41 209
4 2 11 567 122
4 567 210 2 122
4 103 104 37 182
4 191 186 541 121
4 574 35 36 189
4 341 289 382 646
4 391 74 484 637
4 328 333 332 643
4 580 71 72 223
4 116 117 216 547
4 430 381 30 472
4 489 600 77 604
4 601 603 606 637
4 44 43 124 188
4 373 433 336 654
4 30 42 2 650
4 543 102 39 103
4 40 544 549 183
4 549 102 39 543
4 365 108 10 368
4 210 23 2 122
4 222 7 72 597
4 102 39 101 549
4 125 210 2 567
4 125 2 11 567
4 555 104 103 182
4 392 395 360 645
4 24 23 559 122
4 119 25 185 120
4 602 80 442 249
4 305 461 302 651
4 197 27 26 540
4 243 484 606 637
4 599 82 504 605
4 12 0 221 179
4 218 32 33 646
4 123 44 124 188
4 124 546 42 125
4 225 106 548 214
4 29 190 220 572
4 559 541 186 121
4 39 40 101 549
4 11 359 277 393
4 24 23 186 559
4 307 319 308 635
4 299 405 296 632
4 504 99 396 640
4 394 430 30 472
4 197 185 193 573
4 555 543 551 215
4 339 439 316 641
4 185 191 541 120
4 33 34 382 456
4 544 40 201 183
4 191 541 120 121
4 332 431 408 652
4 313 328 332 643
4 192 552 550 194
4 123 568 3 209
4 3 9 568 123
4 325 453 513 634
4 90 91 407 648
4 471 494 375 630
4 90 407 9 648
4 511 446 373 654
4 123 3 44 209
4 2 42 210 125
4 119 27 118 540
4 99 504 8 605
4 119 26 27 540
4 11 393 2 650
4 599 82 450 504
4 484 447 391 637
4 408 431 405 652
4 555 542 104 182
4 288 349 470 644
4 184 27 197 540
4 8 500 99 605
4 603 605 599 640
4 105 37 36 84
4 362 365 364 645
4 73 500 605 601
4 105 104 37 84
4 541 186 196 559
4 73 500 601 391
4 390 490 389 629
4 196 191 186 541
4 554 549 544 183
4 83 105 36 84
4 126 608 10 645
4 339 316 338 641
4 551 560 555 215
4 197 193 202 573
4 602 604 603 638
4 206 214 22 227
4 572 228 69 564
4 549 550 543 200
4 37 38 103 182
4 397 474 334 631
4 203 546 124 561
4 170 12 13 224
4 0 29 19 220
4 5 106 66 225
4 396 450 504 640
4 215 560 555 211
4 573 202 197 569
4 540 119 185 558
4 95 94 233 639
4 27 28 422 117
4 542 562 198 211
4 556 184 204 569
4 543 39 38 103
4 117 422 27 118
4 39 40 549 183
4 390 511 490 629
4 461 312 302 651
4 210 546 559 567
4 209 568 201 188
4 236 496 96 649
4 558 119 185 120
4 225 548 66 214
4 220 190 19 572
4 189 574 562 198
4 204 216 556 547
4 226 67 68 545
4 226 20 21 187
4 561 123 124 188
4 1 35 106 225
4 25 26 441 119
4 555 542 182 211
4 540 197 184 569
4 366 403 404 642
4 562 542 560 211
4 184 202 204 569
4 542 555 560 211
4 197 202 184 569
4 220 7 29 116
4 546 210 125 567
4 118 441 27 119
4 562 548 199 206
4 190 204 564 557
4 558 192 193 552
4 551 550 194 200
4 441 26 27 119
4 19 29 190 220
4 106 548 66 225
4 68 69 228 564
4 22 21 206 227
4 544 40 101 201
4 479 515 107 369
4 192 193 185 558
4 550 551 543 200
4 325 513 488 634
4 395 126 10 645
4 548 189 199 206
4 564 547 190 557
4 601 74 73 391
4 541 558 185 120
4 568 100 41 201
4 24 272 122 121
4 433 373 446 654
4 217 32 218 646
4 80 602 81 249
4 95 480 94 639
4 199 189 562 198
4 547 556 204 557
4 225 1 35 214
4 551 560 215 195
4 193 202 573 553
4 441 27 422 118
4 494 366 404 642
4 78 79 239 604
4 113 114 283 581
4 106 5 1 225
4 12 55 224 247
4 41 568 201 209
4 567 559 210 122
4 100 568 544 201
4 571 548 206 227
4 213 228 190 564
4 29 0 7 220
4 116 220 7 572
4 569 202 204 566
4 208 562 560 211
4 563 192 552 550
4 205 192 550 194
4 559 186 24 121
4 360 395 362 645
4 100 41 101 88
4 489 78 239 604
4 550 549 183 200
4 442 80 602 79
4 197 540 573 569
4 182 215 555 211
4 577 110 109 465
4 213 212 545 557
4 571 570 187 199
4 441 432 25 280
4 222 476 7 597
4 123 568 209 188
4 569 204 556 557
4 562 199 198 211
4 606 243 75 484
4 397 241 474 631
4 394 2 393 650
4 23 24 272 122
4 23 210 559 122
4 66 214 206 227
4 572 19 228 564
4 548 562 571 206
4 190 204 213 564
4 41 40 101 88
4 25 26 432 441
4 206 548 66 227
4 19 190 228 564
4 209 44 123 188
4 546 210 42 125
4 162 178 410 160
4 574 36 35 106
4 1 4 5 83
4 24 120 271 121
4 407 91 242 648
4 282 266 146 142
4 574 36 106 105
4 409 178 410 162
4 122 2 11 451
4 117 29 216 28
4 225 22 1 214
4 607 10 608 645
4 29 117 216 116
4 23 210 186 559
4 120 24 271 25
4 419 139 129 285
4 196 565 541 559
4 220 69 7 572
4 199 571 562 206
4 564 204 213 557
4 129 139 138 285
4 171 135 156 245
4 184 556 540 569
4 198 182 542 211
4 269 130 267 138
4 573 558 193 552
4 551 194 215 200
4 571 226 21 187
4 68 213 226 545
4 31 30 380 381
4 266 146 264 282
4 568 561 201 188
4 546 203 210 559
4 570 571 562 199
4 212 213 204 557
4 561 544 568 201
4 186 210 203 559
4 562 548 189 199
4 204 190 547 557
4 204 569 566 557
4 562 208 199 211
4 35 106 225 214
4 545 564 213 557
4 199 187 571 206
4 146 282 142 145
4 560 553 566 195
4 75 74 606 484
4 116 29 220 572
4 76 243 75 606
4 178 410 268 409
4 122 23 2 451
4 552 192 193 194
4 551 550 552 194
4 476 7 53 222
4 100 9 41 89
4 216 28 184 556
4 267 269 138 285
4 105 574 36 198
4 21 67 226 571
4 213 20 68 226
4 542 574 105 198
4 28 216 117 556
4 562 560 566 208
4 566 202 204 208
4 542 562 574 198
4 216 184 204 556
4 157 492 151 427
4 139 416 163 138
4 157 345 492 427
4 388 238 103 86
4 41 9 3 89
4 468 579 111 326
4 178 268 410 160
4 224 170 12 247
4 522 418 385 384
4 35 574 106 189
4 146 264 282 145
4 543 38 39 200
4 561 203 565 207
4 116 216 29 547
4 154 173 261 258
4 463 168 415 469
4 393 344 394 650
4 558 193 185 573
4 215 543 551 200
4 195 560 215 211
4 569 573 202 553
4 281 126 392 127
4 565 546 203 561
4 203 561 188 207
4 306 394 2 451
4 380 409 410 162
4 139 163 416 142
4 523 101 498 519
4 270 130 268 269
4 139 419 416 285
4 138 432 26 421
4 257 166 258 255
4 25 269 432 138
4 269 25 130 138
4 10 365 395 645
4 39 101 87 102
4 454 414 128 348
4 110 109 465 466
4 560 551 553 195
4 193 202 553 195
4 235 577 109 465
4 450 82 599 81
4 121 120 271 280
4 213 226 545 187
4 571 545 226 187
4 103 104 388 85
4 388 104 244 85
4 454 38 240 455
4 356 492 237 172
4 171 482 135 245
4 422 117 424 118
4 191 196 192 563
4 554 550 549 205
4 465 235 577 467
4 406 351 174 455
4 271 121 280 273
4 268 160 130 270
4 552 193 573 553
4 215 194 551 195
4 379 32 341 378
4 422 28 27 420
4 432 138 285 421
4 72 52 246 223
4 163 266 416 142
4 344 472 394 650
4 100 413 231 89
4 101 39 87 40
4 106 36 35 83
4 201 561 544 207
4 252 36 135 168
4 36 106 105 83
4 128 155 454 348
4 103 37 104 85
4 130 24 25 269
4 85 388 103 86
4 309 579 468 326
4 232 254 175 255
4 355 177 477 428
4 208 560 566 195
4 36 35 83 252
4 356 237 475 172
4 214 66 22 227
4 228 69 19 572
4 135 252 168 469
4 212 570 545 557
4 187 570 212 199
4 7 54 234 53
4 283 286 113 581
4 54 7 234 0
4 423 422 28 117
4 568 123 561 188
4 210 42 203 546
4 147 260 417 259
4 561 201 188 207
4 565 203 546 559
4 264 165 265 262
4 432 26 421 441
4 562 548 574 189
4 216 204 190 547
4 113 286 584 581
4 317 416 266 142
4 563 558 192 541
4 550 183 205 200
4 483 105 83 84
4 269 24 25 271
4 21 571 206 227
4 213 68 228 564
4 504 82 8 605
4 580 246 51 223
4 149 148 331 354
4 378 33 382 448
4 534 387 523 517
4 163 267 130 138
4 262 134 263 261
4 84 36 83 252
4 317 266 282 142
4 582 120 273 438
4 36 574 189 198
4 427 151 157 144
4 264 262 260 147
4 330 282 143 318
4 269 432 138 285
4 380 410 30 162
4 556 216 117 547
4 265 266 146 264
4 448 33 382 456
4 584 112 286 113
4 143 282 317 318
4 286 284 584 581
4 578 588 278 275
4 550 563 192 205
4 194 550 205 200
4 552 558 192 563
4 51 71 580 223
4 126 281 588 127
4 595 122 11 274
4 587 429 283 278
4 257 259 128 348
4 362 395 365 645
4 152 147 417 259
4 129 138 26 421
4 78 489 77 604
4 267 265 266 163
4 157 345 427 144
4 275 582 273 438
4 273 272 122 274
4 121 271 272 273
4 113 283 114 287
4 262 264 165 147
4 413 100 88 89
4 183 549 550 205
4 563 192 191 541
4 173 378 261 448
4 516 524 104 244
4 582 120 121 273
4 106 35 1 83
4 142 282 317 143
4 53 234 116 476
4 502 158 170 137
4 72 246 580 223
4 257 232 166 255
4 134 262 154 261
4 141 142 317 143
4 130 160 24 270
4 173 154 136 258
4 146 165 265 264
4 61 17 60 245
4 317 346 416 139
4 378 263 173 261
4 283 284 286 581
4 109 235 465 466
4 273 120 280 438
4 417 152 259 406
4 128 414 40 166
4 524 435 347 388
4 330 148 331 318
4 317 346 139 141
4 417 282 264 145
4 416 317 139 142
4 35 1 83 507
4 24 130 270 269
4 416 267 266 163
4 226 213 20 187
4 545 226 67 571
4 285 129 419 421
4 160 268 410 270
4 148 331 354 351
4 267 268 265 161
4 13 56 57 475
4 383 238 387 517
4 189 106 35 214
4 8 73 500 605
4 267 268 130 269
4 354 149 156 505
4 121 578 582 273
4 260 417 264 147
4 247 502 170 137
4 268 265 161 409
4 105 244 104 84
4 121 122 578 273
4 117 423 422 424
4 265 266 163 146
4 284 279 437 593
4 379 380 31 263
4 29 116 547 572
4 166 414 232 257
4 589 486 473 310
4 161 265 163 146
4 311 327 335 520
4 454 155 38 455
4 548 106 189 214
4 547 190 29 572
4 271 25 432 280
4 253 3 90 254
4 191 196 563 541
4 183 554 549 205
4 429 283 114 587
4 432 269 25 271
4 284 283 279 581
4 578 275 582 273
4 269 270 24 271
4 587 283 114 581
4 582 275 279 438
4 257 128 414 348
4 554 196 563 205
4 151 177 355 428
4 387 534 383 517
4 255 34 448 456
4 493 426 590 586
4 417 330 282 145
4 492 151 167 172
4 392 126 281 395
4 419 416 346 139
4 367 108 368 369
4 253 34 3 254
4 76 485 600 77
4 454 39 155 128
4 104 37 84 85
4 106 1 5 83
4 272 122 121 273
4 348 259 152 406
4 426 575 590 586
4 426 583 575 589
4 593 279 437 438
4 252 415 168 469
4 384 385 535 386
4 170 158 502 133
4 267 268 161 130
4 166 136 258 255
4 286 283 113 287
4 272 24 271 121
4 16 59 60 477
4 244 516 531 105
4 143 148 330 318
4 424 425 422 118
4 71 50 51 478
4 406 174 155 455
4 462 420 28 423
4 578 275 273 274
4 106 574 548 189
4 216 190 29 547
4 273 122 578 274
4 141 317 345 318
4 518 501 527 532
4 135 181 156 469
4 161 163 267 130
4 102 498 238 523
4 166 128 414 257
4 318 427 345 144
4 118 424 425 575
4 138 129 285 421
4 351 164 330 406
4 254 253 34 456
4 26 25 432 138
4 131 240 38 455
4 271 270 24 272
4 508 5 4 83
4 330 331 148 351
4 83 1 4 507
4 561 554 544 207
4 47 48 65 248
4 151 177 149 355
4 570 545 571 187
4 545 212 213 187
4 137 481 462 423
4 565 203 196 207
4 565 554 561 207
4 12 55 247 179
4 162 380 409 134
4 417 330 164 406
4 422 425 441 118
4 38 39 155 454
4 331 427 318 144
4 424 426 425 575
4 365 10 487 368
4 222 52 476 597
4 469 156 135 245
4 483 244 531 105
4 482 252 135 469
4 232 40 414 166
4 428 355 151 427
4 116 7 53 476
4 26 27 129 421
4 262 260 154 261
4 136 448 258 255
4 39 454 414 128
4 452 576 437 438
4 274 272 122 451
4 381 30 380 430
4 263 409 380 134
4 23 24 160 270
4 149 148 354 150
4 260 154 261 258
4 281 392 276 127
4 234 29 7 116
4 598 49 70 235
4 234 7 53 116
4 177 169 156 477
4 582 593 576 438
4 117 424 575 590
4 134 263 409 262
4 25 271 120 280
4 262 165 134 154
4 154 136 258 153
4 520 111 327 526
4 284 437 592 593
4 317 141 143 318
4 583 118 425 575
4 417 145 147 152
4 326 112 111 520
4 475 57 13 133
4 317 345 346 141
4 593 437 576 438
4 142 317 139 141
4 420 422 28 423
4 516 524 244 388
4 421 129 419 420
4 0 221 179 481
4 355 331 149 427
4 61 62 18 482
4 353 327 464 526
4 114 115 429 587
4 414 88 40 232
4 351 354 148 150
4 592 584 284 593
4 584 112 309 286
4 425 426 583 575
4 280 120 452 438
4 548 571 66 227
4 228 190 19 213
4 60 169 477 245
4 368 108 370 369
4 246 51 478 580
4 311 113 112 525
4 57 14 13 133
4 117 116 510 590
4 580 591 478 497
4 214 548 66 206
4 190 19 572 564
4 58 15 14 167
4 255 254 34 456
4 41 232 89 254
4 259 152 128 348
4 138 139 416 285
4 326 311 112 520
4 117 424 118 575
4 502 475 170 133
4 426 493 497 586
4 354 156 149 150
4 566 570 562 208
4 566 204 212 208
4 452 441 119 280
4 335 311 520 525
4 38 37 103 85
4 103 102 39 86
4 264 146 165 147
4 127 359 392 277
4 492 167 151 428
4 29 7 0 234
4 570 562 208 199
4 566 212 204 557
4 579 309 468 310
4 149 331 355 354
4 486 589 468 310
4 265 161 165 146
4 11 277 595 274
4 31 380 162 134
4 159 419 140 129
4 576 452 120 438
4 164 174 155 406
4 84 37 36 415
4 259 153 258 257
4 28 159 420 462
4 238 102 523 517
4 51 71 478 580
4 284 584 309 286
4 524 516 435 388
4 355 149 151 427
4 387 523 498 519
4 306 176 410 270
4 469 135 482 245
4 528 522 114 385
4 16 59 477 132
4 516 531 503 244
4 258 136 166 153
4 381 380 31 379
4 597 52 476 246
4 32 379 263 378
4 87 88 40 414
4 286 112 309 311
4 279 593 582 438
4 318 141 143 144
4 274 122 11 451
4 2 430 394 306
4 36 252 415 168
4 566 569 202 553
4 195 208 560 211
4 419 139 140 129
4 139 346 419 140
4 525 335 534 533
4 145 417 164 152
4 278 594 578 275
4 163 267 265 161
4 58 14 57 237
4 477 156 177 505
4 181 168 150 469
4 153 166 258 257
4 448 136 34 255
4 497 493 590 586
4 276 588 578 275
4 30 410 380 430
4 59 16 15 132
4 270 306 23 272
4 40 101 88 87
4 155 131 38 455
4 357 346 356 140
4 526 527 353 530
4 153 258 260 259
4 563 196 565 541
4 205 183 554 207
4 173 32 263 378
4 497 580 591 586
4 588 276 278 275
4 56 170 224 247
4 143 142 282 145
4 525 520 335 533
4 244 435 516 388
4 379 31 32 263
4 425 452 441 119
4 110 465 111 464
4 354 355 149 505
4 527 501 518 526
4 311 335 418 525
4 112 286 113 311
4 266 163 146 142
4 531 503 244 483
4 598 6 49 512
4 49 50 70 235
4 63 45 46 251
4 174 164 351 406
4 151 492 157 172
4 563 565 196 554
4 205 554 196 207
4 413 498 101 519
4 134 154 173 261
4 318 345 141 144
4 173 263 134 261
4 278 594 588 578
4 37 415 131 168
4 259 128 153 257
4 238 102 517 103
4 422 27 421 420
4 571 21 67 227
4 228 20 68 213
4 421 27 129 420
4 3 89 90 254
4 476 116 7 597
4 423 28 29 117
4 330 143 282 145
4 327 111 326 526
4 436 527 501 532
4 175 254 34 255
4 238 498 102 87
4 476 510 116 590
4 287 522 418 385
4 118 425 441 119
4 311 112 309 326
4 327 311 326 520
4 247 170 12 179
4 588 281 276 127
4 35 36 135 252
4 598 109 6 512
4 168 181 135 469
4 30 31 380 162
4 152 417 164 406
4 477 169 16 132
4 146 264 145 147
4 112 579 584 309
4 454 87 39 414
4 356 158 357 140
4 50 71 591 478
4 415 240 37 131
4 594 278 279 275
4 158 356 157 140
4 426 425 583 473
4 351 148 174 150
4 392 276 127 277
4 463 174 351 455
4 354 156 181 505
4 577 585 467 586
4 464 111 110 526
4 427 149 151 144
4 100 101 413 88
4 563 550 554 205
4 563 196 192 205
4 427 331 149 144
4 279 283 278 594
4 497 591 478 586
4 370 537 368 371
4 462 28 159 137
4 528 370 529 386
4 244 104 516 105
4 132 477 177 428
4 170 56 475 247
4 152 128 153 259
4 67 66 571 227
4 19 20 228 213
4 279 284 581 593
4 41 40 232 166
4 0 54 221 481
4 406 155 348 455
4 583 425 452 473
4 187 21 571 206
4 213 68 564 545
4 159 27 28 420
4 502 247 462 137
4 452 576 473 437
4 426 583 589 473
4 63 46 64 521
4 34 33 448 456
4 252 84 36 415
4 275 578 276 274
4 158 357 140 159
4 9 231 407 90
4 278 587 429 281
4 418 113 286 311
4 534 522 418 525
4 155 454 348 455
4 17 61 171 245
4 520 311 112 525
4 169 16 60 477
4 134 409 178 262
4 537 370 528 371
4 27 159 129 420
4 393 11 2 451
4 152 155 128 348
4 592 583 576 473
4 145 264 417 147
4 530 435 347 524
4 161 268 160 130
4 164 330 417 145
4 152 153 147 259
4 463 240 131 455
4 274 11 277 451
4 169 156 477 505
4 576 119 452 583
4 510 476 493 590
4 310 437 592 284
4 436 521 503 531
4 387 534 384 383
4 497 478 467 586
4 280 121 120 273
4 120 452 119 280
4 355 156 149 505
4 70 6 49 598
4 148 164 330 351
4 157 346 345 141
4 120 582 576 438
4 393 2 394 451
4 347 383 533 524
4 330 164 143 145
4 244 524 104 388
4 430 30 2 394
4 475 13 56 170
4 157 356 346 140
4 65 48 6 539
4 128 166 153 257
4 64 46 47 495
4 114 283 429 287
4 498 101 102 87
4 237 58 14 167
4 169 60 17 245
4 140 139 346 141
4 326 464 327 526
4 318 148 331 144
4 587 278 594 588
4 272 306 23 451
4 179 55 247 481
4 164 155 152 406
4 86 238 102 87
4 143 148 318 144
4 17 61 18 171
4 232 88 41 89
4 40 39 414 128
4 111 585 579 468
4 370 528 385 386
4 521 436 527 531
4 410 430 176 306
4 238 523 387 517
4 357 419 140 159
4 522 113 114 287
4 473 576 592 437
4 467 235 577 478
4 231 9 89 90
4 150 351 354 463
4 346 345 356 157
4 526 327 520 530
4 62 4 1 507
4 248 466 512 539
4 212 566 570 557
4 208 212 570 199
4 165 134 178 262
4 347 383 524 388
4 23 24 270 272
4 71 70 50 591
4 476 493 597 246
4 368 537 10 371
4 462 28 137 423
4 595 277 276 274
4 48 248 512 539
4 498 413 387 519
4 581 587 283 594
4 331 148 149 144
4 254 41 232 175
4 60 17 16 169
4 105 106 483 83
4 311 418 113 525
4 88 41 40 232
4 380 31 263 134
4 260 147 153 259
4 278 283 587 594
4 578 595 276 274
4 159 357 419 420
4 132 514 477 428
4 384 535 387 386
4 178 161 265 409
4 84 244 104 85
4 101 498 413 88
4 462 159 158 137
4 514 59 15 132
4 178 268 161 409
4 170 13 56 224
4 452 576 583 473
4 501 527 353 526
4 430 2 30 306
4 357 419 346 140
4 140 346 157 141
4 119 425 452 583
4 61 482 171 245
4 452 119 576 120
4 514 477 59 132
4 468 111 465 326
4 248 436 501 532
4 521 495 436 251
4 523 498 238 387
4 345 157 141 144
4 105 483 244 84
4 587 596 429 281
4 72 52 597 246
4 335 534 384 525
4 493 590 597 246
4 596 487 429 281
4 45 5 4 508
4 237 14 57 133
4 119 118 425 583
4 103 39 38 86
4 102 101 498 523
4 234 481 29 423
4 181 156 354 150
4 521 527 436 532
4 435 530 516 524
4 31 32 263 134
4 131 415 240 463
4 524 383 533 517
4 536 413 231 100
4 353 327 526 530
4 348 152 155 406
4 10 108 537 368
4 415 131 168 463
4 347 335 520 533
4 254 3 41 175
4 355 477 177 505
4 103 104 524 388
4 378 173 33 448
4 529 108 107 369
4 111 327 326 520
4 62 1 18 180
4 88 100 41 89
4 176 23 160 270
4 464 465 111 326
4 251 531 538 483
4 129 159 419 420
4 89 9 3 90
4 464 110 465 466
4 107 515 491 369
4 231 413 536 491
4 151 167 132 428
4 72 52 222 597
4 524 517 103 388
4 234 29 116 510
4 265 161 178 165
4 122 272 23 451
4 385 535 522 384
4 326 111 464 526
4 531 503 527 516
4 529 491 370 369
4 283 279 581 594
4 429 487 596 115
4 466 248 501 518
4 370 108 529 369
4 150 168 131 463
4 478 246 580 497
4 10 487 395 365
4 486 426 589 473
4 258 260 154 153
4 436 495 521 532
4 35 1 507 180
4 279 594 275 582
4 475 502 170 247
4 143 148 164 330
4 237 167 492 428
4 437 576 592 593
4 172 237 475 133
4 57 475 237 133
4 393 277 11 451
4 89 3 41 254
4 589 579 468 310
4 245 169 477 505
4 238 102 103 86
4 248 495 436 532
4 310 584 309 284
4 88 101 498 87
4 178 161 268 160
4 554 565 196 207
4 55 12 221 179
4 34 33 136 448
4 481 247 179 137
4 347 335 327 520
4 71 591 478 580
4 116 476 590 597
4 150 174 351 463
4 50 591 235 478
4 246 493 590 497
4 580 246 590 497
4 287 114 522 385
4 107 491 529 369
4 58 15 167 514
4 5 508 106 83
4 497 590 580 586
4 225 66 22 214
4 220 19 69 572
4 29 481 137 423
4 503 527 436 531
4 383 534 335 533
4 103 517 238 388
4 176 160 410 270
4 235 598 49 512
4 260 147 154 153
4 23 176 306 270
4 171 169 17 245
4 537 108 370 368
4 482 18 61 171
4 109 235 466 512
4 40 39 87 414
4 466 464 110 518
4 530 527 435 516
4 538 251 483 508
4 232 175 166 255
4 537 115 10 371
4 354 150 463 469
4 585 586 589 486
4 519 387 523 535
4 45 63 538 251
4 248 48 65 539
4 529 535 528 386
4 428 151 492 427
4 503 521 436 251
4 581 284 584 593
4 535 529 519 386
4 306 2 23 451
4 465 585 110 111
4 592 584 579 310
4 158 502 462 137
4 465 585 111 468
4 501 464 466 518
4 413 387 519 386
4 536 231 9 100
4 246 597 72 580
4 492 167 237 172
4 495 64 46 521
4 64 47 65 532
4 534 535 523 384
4 383 238 517 388
4 415 84 37 85
4 134 32 263 173
4 164 148 174 351
4 476 493 590 597
4 592 584 310 284
4 214 189 548 206
4 572 547 190 564
4 158 357 159 462
4 5 45 63 538
4 468 585 579 589
4 131 174 463 455
4 463 150 168 469
4 162 410 30 176
4 1 62 507 180
4 115 429 487 371
4 245 469 156 505
4 170 475 13 133
4 177 169 477 132
4 176 30 2 306
4 589 583 592 473
4 110 109 466 518
4 512 6 48 539
4 518 464 110 526
4 86 102 39 87
4 516 503 435 244
4 468 465 585 467
4 38 240 86 454
4 514 15 167 132
4 368 10 487 371
4 309 579 584 310
4 248 65 47 532
4 335 384 418 525
4 415 37 36 168
4 502 158 357 356
4 100 231 9 89
4 512 109 6 539
4 418 286 113 287
4 177 151 132 428
4 596 10 487 126
4 520 347 533 530
4 347 533 530 524
4 54 29 0 234
4 518 248 501 532
4 38 37 240 131
4 156 149 177 355
4 371 370 528 385
4 179 221 55 481
4 235 591 577 478
4 9 231 515 407
4 14 237 167 133
4 596 487 10 115
4 518 466 248 539
4 577 585 110 465
4 180 18 62 482
4 418 522 113 525
4 589 586 575 486
4 469 354 181 505
4 109 598 235 512
4 534 418 384 525
4 248 47 495 532
4 585 468 467 486
4 37 240 415 85
4 586 585 467 486
4 2 23 176 306
4 353 347 327 530
4 279 593 594 582
4 131 174 150 463
4 29 234 423 510
4 167 237 58 514
4 519 536 491 529
4 39 86 87 454
4 113 522 418 287
4 156 169 171 245
4 37 38 240 85
4 137 28 29 423
4 577 585 465 467
4 527 435 353 530
4 156 169 245 505
4 519 101 413 100
4 162 409 178 134
4 335 347 383 533
4 135 180 35 252
4 533 383 534 517
4 482 180 18 171
4 251 538 45 508
4 383 534 384 335
4 592 473 437 310
4 418 522 534 384
4 356 345 492 157
4 592 579 589 310
4 281 126 487 395
4 357 158 502 462
4 247 170 179 137
4 534 523 387 384
4 246 590 597 580
4 5 45 538 508
4 423 117 510 424
4 30 410 430 176
4 132 167 514 428
4 545 570 212 187
4 15 58 59 514
4 464 501 353 526
4 510 116 234 476
4 131 155 174 455
4 462 247 481 137
4 115 596 429 587
4 435 347 353 530
4 281 276 278 588
4 503 531 251 483
4 521 495 64 532
4 47 64 495 532
4 514 167 237 428
4 420 159 357 462
4 593 581 279 594
4 126 487 596 281
4 435 527 503 516
4 254 34 3 175
4 521 63 46 251
4 275 594 578 582
4 528 529 370 537
4 9 231 536 107
4 175 41 232 166
4 85 103 38 86
4 515 491 231 107
4 535 387 523 384
4 49 6 48 512
4 176 430 30 306
4 586 426 575 486
4 115 487 10 371
4 481 29 54 234
4 520 327 347 530
4 157 356 158 172
4 126 10 487 395
4 491 536 231 107
4 106 483 531 105
4 586 497 426 486
4 517 524 383 388
4 531 538 483 106
4 535 519 387 386
4 136 33 173 448
4 577 109 598 235
4 180 507 35 252
4 353 435 527 436
4 180 62 507 482
4 136 166 175 255
4 521 503 531 251
4 507 83 35 252
4 492 356 157 172
4 231 9 515 107
4 54 0 29 481
4 468 585 589 486
4 33 32 173 378
4 595 276 588 578
4 473 592 589 310
4 46 495 521 251
4 529 491 519 386
4 38 240 85 86
4 252 135 180 482
4 277 127 11 595
4 385 528 535 386
4 536 413 519 491
4 355 177 156 505
4 150 354 181 469
4 136 175 34 255
4 63 521 538 251
4 508 483 538 106
4 65 248 539 532
4 501 464 518 526
4 491 413 519 386
4 122 595 578 274
4 252 180 507 482
4 86 39 38 454
4 589 575 426 486
4 598 591 577 235
4 529 370 491 386
4 535 522 528 385
4 109 466 518 539
4 570 566 212 208
4 179 29 0 481
4 508 538 5 106
4 160 410 162 176
4 435 527 436 503
4 436 527 353 501
4 535 534 522 384
4 529 108 370 537
4 172 167 237 133
4 277 276 127 595
4 536 519 413 100
4 538 521 531 251
4 469 181 156 505
4 537 528 115 371
4 107 491 536 529
4 482 135 180 171
4 467 497 586 486
4 106 508 483 83
4 248 518 539 532
4 512 466 109 539
4 281 596 126 588
4 127 276 588 595
4 481 179 29 137
4 640 631 98 396
4 640 98 631 613
4 630 449 460 618
4 630 460 449 323
4 631 640 499 397
4 499 640 631 613
4 641 344 315 338
4 641 315 344 626
4 619 653 611 618
4 611 653 619 632
4 646 31 32 379
4 646 32 31 217
4 643 352 340 623
4 643 340 352 333
4 654 314 329 308
4 654 329 314 624
4 639 375 230 630
4 639 230 375 480
4 639 458 459 623
4 639 459 458 233
4 644 92 93 470
4 644 93 92 625
4 634 343 461 453
4 634 461 343 624
4 602 640 603 599
4 603 640 602 638
4 648 515 9 107
4 648 9 515 407
4 195 552 551 553
4 195 551 552 194
4 108 107 367 609
4 108 367 107 369
4 479 367 107 609
4 479 107 367 369
4 124 203 42 546
4 124 42 203 43
4 124 188 203 561
4 203 188 124 43
4 397 450 640 499
4 397 640 450 396
4 198 104 182 37
4 198 182 104 542
4 556 27 540 118
4 556 540 27 184
4 540 26 185 119
4 540 185 26 197
4 185 540 573 197
4 573 540 185 558
4 441 27 421 422
4 441 421 27 26
4 200 182 543 38
4 103 543 182 38
4 103 182 543 555
4 544 207 183 201
4 183 207 544 554
4 196 559 203 565
4 203 559 196 186
4 258 173 448 136
4 258 448 173 261
4 426 590 424 493
4 424 590 426 575
4 138 267 416 163
4 416 267 138 285
4 549 200 39 183
4 39 200 549 543
4 541 185 192 191
4 541 192 185 558
4 566 195 202 208
4 202 195 566 553
4 326 579 112 309
4 326 112 579 111
4 262 147 154 260
4 154 147 262 165
4 70 235 591 598
4 591 235 70 50
4 29 510 117 116
4 117 510 29 423
4 119 280 25 120
4 25 280 119 441
4 590 424 510 117
4 590 510 424 493
4 502 133 172 475
4 172 133 502 158
4 172 356 502 475
4 502 356 172 158
4 178 262 265 165
4 265 262 178 409
4 587 281 588 596
4 588 281 587 278
4 577 478 586 467
4 586 478 577 591
4 385 114 371 287
4 385 371 114 528
4 115 114 371 528
4 182 543 215 200
4 182 215 543 555
4 114 371 429 115
4 114 429 371 287

CELL_TYPES 3435
1
1
1
1
1
1
1
1
1
1
1
1
3
3
3
3
3
3
3
3
3
3
3
3
3
3
3
3
3
3
3
3
3
3
3
3
3
3
3
3
3
3
3
3
3
3
3
3
3
3
3
3
3
3
3
3
3
3
3
3
3
3
3
3
3
3
3
3
3
3
3
3
3
3
3
3
3
3
3
3
3
3
3
3
3
3
3
3
3
3
3
3
3
3
3
3
3
3
3
3
3
3
3
3
3
3
3
3
3
3
3
3
3
3
3
3
3
3
3
3
3
3
3
3
3
3
3
3
3
3
3
3
3
3
3
3
3
3
3
3
3
3
3
3
3
3
5
5
5
5
5
5
5
5
5
5
5
5
5
5
5
5
5
5
5
5
5
5
5
5
5
5
5
5
5
5
5
5
5
5
5
5
5
5
5
5
5
5
5
5
5
5
5
5
5
5
5
5
5
5
5
5
5
5
5
5
5
5
5
5
5
5
5
5
5
5
5
5
5
5
5
5
5
5
5
5
5
5
5
5
5
5
5
5
5
5
5
5
5
5
5
5
5
5
5
5
5
5
5
5
5
5
5
5
5
5
5
5
5
5
5
5
5
5
5
5
5
5
5
5
5
5
5
5
5
5
5
5
5
5
5
5
5
5
5
5
5
5
5
5
5
5
5
5
5
5
5
5
5
5
5
5
5
5
5
5
5
5
5
5
5
5
5
5
5
5
5
5
5
5
5
5
5
5
5
5
5
5
5
5
5
5
5
5
5
5
5
5
5
5
5
5
5
5
5
5
5
5
5
5
5
5
5
5
5
5
5
5
5
5
5
5
5
5
5
5
5
5
5
5
5
5
5
5
5
5
5
5
5
5
5
5
5
5
5
5
5
5
5
5
5
5
5
5
5
5
5
5
5
5
5
5
5
5
5
5
5
5
5
5
5
5
5
5
5
5
5
5
5
5
5
5
5
5
5
5
5
5
5
5
5
5
5
5
5
5
5
5
5
5
5
5
5
5
5
5
5
5
5
5
5
5
5
5
5
5
5
5
5
5
5
5
5
5
5
5
5
5
5
5
5
5
5
5
5
5
5
5
5
5
5
5
5
5
5
5
5
5
5
5
5
5
5
5
5
5
5
5
5
5
5
5
5
5
5
5
5
5
5
5
5
5
5
5
5
5
5
5
5
5
5
5
5
5
5
5
5
5
5
5
5
5
5
5
5
5
5
5
5
5
5
5
5
5
5
5
5
5
5
5
5
5
5
5
5
5
5
5
5
5
5
5
5
5
5
5
5
5
5
5
5
5
5
5
5
5
5
5
5
5
5
5
5
5
5
5
5
5
5
5
5
5
5
5
5
5
5
5
5
5
5
5
5
5
5
5
5
5
5
5
5
5
5
5
5
5
5
5
5
5
5
5
5
5
5
5
5
5
5
5
5
5
5
5
5
5
5
5
5
5
5
5
5
5
5
5
5
5
5
5
5
5
5
5
5
5
5
5
5
5
5
5
5
5
5
5
5
5
5
5
5
5
5
5
5
5
5
5
5
5
5
5
5
5
5
5
5
5
5
5
5
5
5
5
5
5
5
5
5
5
5
5
5
5
5
5
5
5
5
5
5
5
5
5
5
5
5
5
5
5
5
5
5
5
5
5
5
5
5
5
5
5
5
5
5
5
5
5
5
5
5
5
5
5
5
5
5
5
5
5
5
5
5
5
5
5
5
5
5
5
5
5
5
5
5
5
5
5
5
5
5
5
5
5
5
5
5
5
5
5
5
5
5
5
5
5
5
5
5
5
5
5
5
5
5
5
5
5
5
5
5
5
5
5
5
5
5
5
5
5
5
5
5
5
5
5
5
5
5
5
5
5
5
5
5
5
5
5
5
5
5
5
5
5
5
5
5
5
5
5
5
5
5
5
5
5
5
5
5
5
5
5
5
5
5
5
5
5
5
5
5
5
5
5
5
5
5
5
5
5
5
5
5
5
5
5
5
5
5
5
5
5
5
5
5
5
5
5
5
5
5
5
5
5
5
5
5
5
5
5
5
5
5
5
5
5
5
5
5
5
5
5
5
5
5
5
5
5
5
5
5
5
5
5
5
5
5
5
5
5
5
5
5
5
5
5
5
5
5
5
5
5
5
5
5
5
5
5
5
5
5
5
5
5
5
5
5
5
5
5
5
5
5
5
5
5
5
5
5
5
5
5
5
5
5
5
5
5
5
5
5
5
5
5
5
5
5
5
5
5
5
5
5
5
5
5
5
5
5
5
5
5
5
5
5
5
5
5
5
5
5
5
5
5
5
5
5
5
5
5
5
5
5
5
5
5
5
5
5
5
5
5
5
5
5
5
5
5
5
5
5
5
5
5
5
5
5
5
5
5
5
5
5
5
5
5
5
5
5
5
5
5
5
5
5
5
5
5
5
5
5
5
5
5
5
5
5
5
5
5
5
5
5
5
5
5
5
5
5
5
5
5
5
5
5
5
5
5
5
5
5
5
5
5
5
5
5
5
5
5
5
5
5
5
5
5
5
5
5
5
5
5
5
5
5
5
5
5
5
5
5
5
5
5
5
5
5
5
5
5
5
5
5
5
5
5
5
5
5
5
5
5
5
5
5
5
5
5
5
5
5
5
5
5
5
5
5
5
5
5
5
5
5
5
5
5
5
5
5
5
5
5
5
5
5
5
5
5
5
5
5
5
5
5
5
5
5
5
5
5
5
5
5
5
5
5
5
5
5
5
5
5
5
5
5
5
5
5
5
5
5
5
5
5
5
5
5
5
5
5
5
5
5
5
5
5
5
5
5
5
5
5
5
5
5
5
5
5
5
5
5
5
5
5
5
5
5
5
5
5
5
5
5
5
5
5
5
5
5
5
5
5
5
5
5
5
5
5
5
5
5
5
5
5
5
5
5
5
5
5
5
5
5
5
5
5
5
5
5
5
5
5
5
5
5
5
5
5
5
5
5
5
5
5
5
5
5
5
5
5
5
5
5
5
5
5
5
5
5
5
5
5
5
5
5
5
5
5
5
5
5
5
5
5
5
5
5
5
5
5
5
5
5
5
5
5
5
5
5
5
5
5
10
10
10
10
10
10
10
10
10
10
10
10
10
10
10
10
10
10
10
10
10
10
10
10
10
10
10
10
10
10
10
10
10
10
10
10
10
10
10
10
10
10
10
10
10
10
10
10
10
10
10
10
10
10
10
10
10
10
10
10
10
10
10
10
10
10
10
10
10
10
10
10
10
10
10
10
10
10
10
10
10
10
10
10
10
10
10
10
10
10
10
10
10
10
10
10
10
10
10
10
10
10
10
10
10
10
10
10
10
10
10
10
10
10
10
10
10
10
10
10
10
10
10
10
10
10
10
10
10
10
10
10
10
10
10
10
10
10
10
10
10
10
10
10
10
10
10
10
10
10
10
10
10
10
10
10
10
10
10
10
10
10
10
10
10
10
10
10
10
10
10
10
10
10
10
10
10
10
10
10
10
10
10
10
10
10
10
10
10
10
10
10
10
10
10
10
10
10
10
10
10
10
10
10
10
10
10
10
10
10
10
10
10
10
10
10
10
10
10
10
10
10
10
10
10
10
10
10
10
10
10
10
10
10
10
10
10
10
10
10
10
10
10
10
10
10
10
10
10
10
10
10
10
10
10
10
10
10
10
10
10
10
10
10
10
10
10
10
10
10
10
10
10
10
10
10
10
10
10
10
10
10
10
10
10
10
10
10
10
10
10
10
10
10
10
10
10
10
10
10
10
10
10
10
10
10
10
10
10
10
10
10
10
10
10
10
10
10
10
10
10
10
10
10
10
10
10
10
10
10
10
10
10
10
10
10
10
10
10
10
10
10
10
10
10
10
10
10
10
10
10
10
10
10
10
10
10
10
10
10
10
10
10
10
10
10
10
10
10
10
10
10
10
10
10
10
10
10
10
10
10
10
10
10
10
10
10
10
10
10
10
10
10
10
10
10
10
10
10
10
10
10
10
10
10
10
10
10
10
10
10
10
10
10
10
10
10
10
10
10
10
10
10
10
10
10
10
10
10
10
10
10
10
10
10
10
10
10
10
10
10
10
10
10
10
10
10
10
10
10
10
10
10
10
10
10
10
10
10
10
10
10
10
10
10
10
10
10
10
10
10
10
10
10
10
10
10
10
10
10
10
10
10
10
10
10
10
10
10
10
10
10
10
10
10
10
10
10
10
10
10
10
10
10
10
10
10
10
10
10
10
10
10
10
10
10
10
10
10
10
10
10
10
10
10
10
10
10
10
10
10
10
10
10
10
10
10
10
10
10
10
10
10
10
10
10
10
10
10
10
10
10
10
10
10
10
10
10
10
10
10
10
10
10
10
10
10
10
10
10
10
10
10
10
10
10
10
10
10
10
10
10
10
10
10
10
10
10
10
10
10
10
10
10
10
10
10
10
10
10
10
10
10
10
10
10
10
10
10
10
10
10
10
10
10
10
10
10
10
10
10
10
10
10
10
10
10
10
10
10
10
10
10
10
10
10
10
10
10
10
10
10
10
10
10
10
10
10
10
10
10
10
10
10
10
10
10
10
10
10
10
10
10
10
10
10
10
10
10
10
10
10
10
10
10
10
10
10
10
10
10
10
10
10
10
10
10
10
10
10
10
10
10
10
10
10
10
10
10
10
10
10
10
10
10
10
10
10
10
10
10
10
10
10
10
10
10
10
10
10
10
10
10
10
10
10
10
10
10
10
10
10
10
10
10
10
10
10
10
10
10
10
10
10
10
10
10
10
10
10
10
10
10
10
10
10
10
10
10
10
10
10
10
10
10
10
10
10
10
10
10
10
10
10
10
10
10
10
10
10
10
10
10
10
10
10
10
10
10
10
10
10
10
10
10
10
10
10
10
10
10
10
10
10
10
10
10
10
10
10
10
10
10
10
10
10
10
10
10
10
10
10
10
10
10
10
10
10
10
10
10
10
10
10
10
10
10
10
10
10
10
10
10
10
10
10
10
10
10
10
10
10
10
10
10
10
10
10
10
10
10
10
10
10
10
10
10
10
10
10
10
10
10
10
10
10
10
10
10
10
10
10
10
10
10
10
10
10
10
10
10
10
10
10
10
10
10
10
10
10
10
10
10
10
10
10
10
10
10
10
10
10
10
10
10
10
10
10
10
10
10
10
10
10
10
10
10
10
10
10
10
10
10
10
10
10
10
10
10
10
10
10
10
10
10
10
10
10
10
10
10
10
10
10
10
10
10
10
10
10
10
10
10
10
10
10
10
10
10
10
10
10
10
10
10
10
10
10
10
10
10
10
10
10
10
10
10
10
10
10
10
10
10
10
10
10
10
10
10
10
10
10
10
10
10
10
10
10
10
10
10
10
10
10
10
10
10
10
10
10
10
10
10
10
10
10
10
10
10
10
10
10
10
10
10
10
10
10
10
10
10
10
10
10
10
10
10
10
10
10
10
10
10
10
10
10
10
10
10
10
10
10
10
10
10
10
10
10
10
10
10
10
10
10
10
10
10
10
10
10
10
10
10
10
10
10
10
10
10
10
10
10
10
10
10
10
10
10
10
10
10
10
10
10
10
10
10
10
10
10
10
10
10
10
10
10
10
10
10
10
10
10
10
10
10
10
10
10
10
10
10
10
10
10
10
10
10
10
10
10
10
10
10
10
10
10
10
10
10
10
10
10
10
10
10
10
10
10
10
10
10
10
10
10
10
10
10
10
10
10
10
10
10
10
10
10
10
10
10
10
10
10
10
10
10
10
10
10
10
10
10
10
10
10
10
10
10
10
10
10
10
10
10
10
10
10
10
10
10
10
10
10
10
10
10
10
10
10
10
10
10
10
10
10
10
10
10
10
10
10
10
10
10
10
10
10
10
10
10
10
10
10
10
10
10
10
10
10
10
10
10
10
10
10
10
10
10
10
10
10
10
10
10
10
10
10
10
10
10
10
10
10
10
10
10
10
10
10
10
10
10
10
10
10
10
10
10
10
10
10
10
10
10
10
10
10
10
10
10
10
10
10
10
10
10
10
10
10
10
10
10
10
10
10
10
10
10
10
10
10
10
10
10
10
10
10
10
10
10
10
10
10
10
10
10
10
10
10
10
10
10
10
10
10
10
10
10
10
10
10
10
10
10
10
10
10
10
10
10
10
10
10
10
10
10
10
10
10
10
10
10
10
10
10
10
10
10
10
10
10
10
10
10
10
10
10
10
10
10
10
10
10
10
10
10
10
10
10
10
10
10
10
10
10
10
10
10
10
10
10
10
10
10
10
10
10
10
10
10
10
10
10
10
10
10
10
10
10
10
10
10
10
10
10
10
10
10
10
10
10
10
10
10
10
10
10
10
10
10
10
10
10
10
10
10
10
10
10
10
10
10
10
10
10
10
10
10
10
10
10
10
10
10
10
10
10
10
10
10
10
10
10
10
10
10
10
10
10
10
10
10
10
10
10
10
10
10
10
10
10
10
10
10
10
10
10
10
10
10
10
10
10
10
10
10
10
10
10
10
10
10
10
10
10
10
10
10
10
10
10
10
10
10
10
10
10
10
10
10
10
10
10
10
10
10
10
10
10
10
10
10
10
10
10
10
10
10
10
10
10
10
10
10
10
10
10
10
10
10
10
10
10
10
10
10
10
10
10
10
10
10
10
10
10
10
10
10
10
10
10
10
10
10
10
10
10
10
10
10
10
10
10
10
10
10
10
10
10
10
10
10
10
10
10
10
10
10
10
10
10
10
10
10
10
10
10
10
10
10
10
10
10
10
10
10
10
10
10
10
10
10
10
10
10
10
10
10
10
10
10
10
10
10
10
10
10
10
10
10
10
10
10
10
10
10
10
10
10
10
10
10
10
10
10
10
10
10
10
10
10
10
10
10
10
10
10
10
10
10
10
10
10
10
10
10
10
10
10
10
10
10
10
10
10
10
10
10
10
10
10
10
10
10
10
10
10
10
10
10
10
10
10
10
10
10
10
10
10
10
10
10
10
10
10
10
10
10
10
10
10
10
10
10
10
10
10
10
10
10
10
10
10
10
10
10
10
10
10
10
10
10
10
10
10
10
10
10
10
10
10
10
10
10
10
10
10
10
10
10
10
10
10
10
10
10
10
10
10
10
10
10
10
10
10
10
10
10
10
10
10
10
10
10
10
10
10
10
10
10
10
10
10
10
10
10
10
10
10
10
10
10
10
10
10
10
10
10
10
10
10
10
10
10
10
10
10
10
10
10
10
10
10
10
10
10
10
10
10
10
10
10
10
10
10
10
10
10
10
10
10
10
10
10
10
10
10
10
10
10
10
10
10
10
10
10
10
10
10
10
10
10
10
10
10
10
10
10
10
10
10
10
10
10
10
10
10
10
10
10
10
10
10
10
10
10
10
10
10
10
10
10
10
10
10
10
10
10
10
10
10
10
10
10
10
10
10
10
10
10
10
10
10
10
10
10
10
10
10
10
10
10
10
10
10
10
10
10
10
10
10
10
10
10
10
10
10
10
10
10
10
10
10
10
10
10
10
10
10
10
10
10
10
10
10
10
10
10
10
10
10
10
10
10
10
10
10
10
10
10
10
10
10
10
10
10
10
10
10
10
10
10
10
10
10
10
10
10
10
10
10
10
10
10
10
10
10
10
10
10
10
10
10
10
10
10
10
10
10
10
10
10
10
10
10
10
10
10
10
10
10
10
10
10
10
10
10
10
10
10
10
10
10
10
10
10
10
10
10
10
10
10
10
10
10
10
10
10
10
10
10
10
10
10
