# vtk DataFile Version 2.0
whisker_body, Created by Gmsh 4.13.1 
ASCII
DATASET UNSTRUCTURED_GRID
POINTS 526 double
9 0 0
6.481545381612207 0 32
12 0 0
7.27789759052289 0 60
8.720171709068023 0 3.555555555555555
8.440343418136045 0 7.11111111111111
8.16051512720407 0 10.66666666666667
7.880686836272092 0 14.22222222222222
7.600858545340115 0 17.77777777777778
7.321030254408138 0 21.33333333333333
7.041201963476161 0 24.88888888888889
6.761373672544185 0 28.44444444444444
8.221909118783412 3.660629787682195 0
6.022175457229734 6.688303429296539 0
2.781152949374546 8.559508646656376 0
-0.9407561694088541 8.950697058314462 0
-4.499999999999971 7.794228634059964 0
-7.281152949374503 5.290067270632291 0
-8.803328406604242 1.871205217359873 0
-8.803328406604258 -1.871205217359792 0
-7.281152949374553 -5.290067270632221 0
-4.500000000000045 -7.794228634059921 0
-0.9407561694089199 -8.950697058314455 0
2.781152949374503 -8.55950864665639 0
6.022175457229708 -6.688303429296562 0
8.221909118783401 -3.660629787682216 0
5.452622950486892 3.504187993490383 32
2.692531258974739 5.895821058456781 32
-0.9224200827451257 6.415572595244091 32
-4.244509565702272 4.898425163311209 32
-6.218997251820419 1.826062352645334 32
-6.218997251820402 -1.826062352645393 32
-4.244509565702231 -4.898425163311245 32
-0.9224200827450829 -6.415572595244098 32
2.692531258974765 -5.895821058456769 32
5.452622950486899 -3.504187993490372 32
11.34980690040761 3.896393630456207 0
9.469686112756717 7.370552552276022 0
6.563377897469113 10.04599773915035 0
2.945825845689581 11.63280319127197 0
-0.9909521456679979 11.95901391608004 0
-4.820345095835646 10.98927991986068 0
-8.127378859508902 8.82868692807757 0
-10.55368501447787 5.71136871644487 0
-11.83633564083267 1.975135083368787 0
-11.83633564083267 -1.975135083368821 0
-10.55368501447786 -5.711368716444897 0
-8.12737885950888 -8.828686928077589 0
-4.820345095835619 -10.9892799198607 0
-0.9909521456679715 -11.95901391608004 0
2.945825845689616 -11.63280319127196 0
6.563377897469155 -10.04599773915032 0
9.469686112756747 -7.370552552275983 0
11.34980690040762 -3.896393630456205 0
6.302844199534381 3.638948795261439 60
3.638948795261455 6.302844199534372 60
1.337378586081774e-14 7.27789759052289 60
-3.638948795261432 6.302844199534386 60
-6.302844199534364 3.63894879526147 60
-7.27789759052289 4.613978646370539e-14 60
-6.302844199534409 -3.638948795261393 60
-3.63894879526151 -6.302844199534341 60
-6.597764390521311e-14 -7.27789759052289 60
3.638948795261406 -6.302844199534401 60
6.302844199534367 -3.638948795261465 60
11.70486859940768 0 3.75
11.40973719881536 0 7.5
11.11460579822304 0 11.25
10.81947439763072 0 15
10.5243429970384 0 18.75
10.22921159644608 0 22.5
9.934080195853765 0 26.25
9.638948795261445 0 30
9.343817394669125 0 33.75
9.048685994076806 0 37.5
8.753554593484488 0 41.25
8.458423192892168 0 45
8.163291792299848 0 48.75
7.868160391707529 0 52.5
7.573028991115209 0 56.25
6.88320643571199 3.541180271121917 16.00088089719632
7.12848501820336 -3.027043293428562 15.95181191509332
-6.730667114678687 0.3311222878256625 28.73117932532072
-7.971570638901118 3.603013744491903 3.201860109465848
-5.851525308307747 -6.498777238246261 3.240497011877706
0.8101407886409617 8.710331132499778 3.202913124049067
6.429339754127465 -3.227615042282495 22.94716507497055
6.201522238470386 3.681733378648449 22.71772970404256
7.812534299812997 -2.800285047905416 8.904073551740696
-2.702228924761525 6.16478322357526 28.83015923627209
-2.794592755261787 -6.119304561967131 28.87826817299519
7.729406887726919 3.035147966551566 8.843948452558797
0.914097998860836 -8.697061508037798 3.240497011877486
4.308772502310197 5.169500083702347 28.84652890800991
4.155018920780432 -5.301584594745618 28.769407809103
7.074827204806107 5.140162842580918 3.240497011877472
6.7548828292117 -5.552609928206605 3.251056979450823
1.027600466634753 6.653227858109673 28.81618161128594
-0.9728344623567193 6.906271540812797 25.73701594378661
-4.334808629932629 5.474874712513746 25.62611322192445
-2.737596407994244 6.686341200067854 22.55266245828324
-5.673122041030183 4.496011074158733 22.37974419469293
-4.371264357596922 6.065943122446098 19.35317353563216
-6.737085437417646 3.289193919766697 19.09563951697556
-5.768592933664713 5.150643734410443 16.09341623725423
-7.512819015547088 1.937545656219091 15.77294312921652
-7.52299021221942 -0.2763286569243474 18.70272720299355
-7.60508798296319 -1.706894611932146 15.32008301237805
-6.558118843417174 -3.78147642745012 18.16686266139534
-6.05205794113501 -4.984673743654202 14.73208482295876
-4.100924632128822 -6.426525496973166 17.49004035817669
-3.223421346741512 -7.209254458343133 14.01398967754103
-7.450259458593377 -3.081761848880257 11.91229085046904
-2.742365989446804 7.215629882532967 16.27424102981613
-4.39038946660065 6.655543318163666 13.04684393998332
-0.924443326309292 7.918675751683904 13.05621117326763
-0.7426614392072536 -7.651554616439945 16.67674676926895
0.2567413818041994 -7.959294162442571 13.17082091226634
-1.736669552990971 -7.20668648361884 20.16493356772758
-2.280579230976024 -7.846175404056986 10.53478954151806
-6.873678456026711 -2.463468052551419 21.57780989747221
-2.739595134237774 7.745777029263472 9.961828996004003
0.7630336512382708 8.181700620983067 9.94636328405846
-5.848299450589364 5.790489026792247 9.784187061361157
1.795014216233228 -7.265375172528384 19.26473165908561
0.8077407933750432 -7.162991301940356 22.76456065688571
0.8869099638185488 7.665313698505144 16.30901386924257
0.8399788096988456 7.178204548826919 22.52576624154226
1.167287528484099 -8.156707065646813 9.659159468403148
3.572500040386942 -7.202556306257642 12.19955757000959
-4.492780221276569 7.193383595987048 6.592662004231771
-2.685284257089799 -6.616202341278806 23.62883842340249
4.283751622807504 -7.127139018244245 8.698086048521443
-1.293014064112834 -8.370908539552955 6.731966954426437
-4.751669626693587 -6.906418149640508 7.837995197469152
-6.590774259110558 2.355093450620136 25.42623263219686
2.507006430237802 6.514565000229018 25.66267593119623
-5.586753154742854 3.774823011670238 28.68445192500375
-6.898426084527877 -1.260620768230157 25.25150644107206
4.478450453289221 -5.732155397873378 21.92824732164783
4.927416131146879 -5.748453228406663 18.15372344392747
2.55087615311133 -6.522276509808631 25.36970870563403
1.044673783041947 -6.650914657056052 28.81183556813343
-5.739445309537174 -3.607653082721926 28.21902602510562
-0.9521369024121815 7.410771663879069 19.41906237774181
2.637886619910805 6.992587368452515 19.39472798713873
4.347624671228307 6.389389079830587 16.15888155878696
5.286171254752473 5.283203666545313 19.39377285758269
5.656406350466009 5.63373851964721 12.91771109015989
2.664850361927321 7.520784363650391 12.97368484249226
4.034396068229974 7.185745218542302 9.646164136117836
2.358871850437148 8.14211286690897 6.646282387206417
7.449881830786019 -2.956191544927832 12.51594240510417
2.624590047767629 -7.304903734148918 15.72909672247401
6.737429073517251 -3.19749759924843 19.59707591209234
-5.523901162650332 -5.938444252863515 11.30342716942975
-6.914964908706013 4.000840420891213 12.84649564574952
-7.807079149799586 2.669686397343233 9.517941156108755
3.996372876500118 6.025595881332293 22.48479645314269
-8.000730725581839 0.5058227459984219 12.49395571961632
6.413632838928044 -2.554673527259805 26.63604520921018
6.210712052029963 3.016926445221283 26.62339609742347
-4.900518238207338 -5.482089032892664 20.92558976165218
-5.519592390835061 -4.43915573742964 24.35500068048457
-7.067965505363089 4.702690497624769 6.486649188682842
-8.398941841185069 1.407761996595154 6.148488695434018
-8.236624618517855 -0.9099981895845513 9.062810736034452
-8.222405343204567 -2.367685708208279 5.635058507139702
-7.211569768267406 -4.169155197554797 8.513390870125988
6.047382314682415 5.962098393919983 6.45221878573224
-7.164189206591781 1.211119327990746 22.03460415139856
4.093283592165363 -7.731789810891286 3.196124640344374
-2.645169337745484 -8.342476240989058 3.153805297089643
-2.702513075807146 8.317480002412607 3.233525508830986
-5.884918927055562 6.470666499619943 3.220635405036894
4.329250429755625 7.598711190139821 3.234418657778874
2.172308587831215 -8.215605036338843 6.379197552159292
-8.767005615456426 4.000697450169862e-14 2.960474352389665
-1.170614136139604 8.403978043918505 6.542228344145579
5.495646123369525 -5.614980742314324 14.52506307108163
8.057996985218219 2.898183338334889 5.548298689440112
8.057996985218304 -2.898183338334713 5.548298689439853
-0.7328507642409083 -6.924542432467371 25.87981177048694
7.355250473845008 3.210537444944866 12.38329689055122
-8.031010907711572 -3.57563642813889 2.655140730388708
6.053438699439746 -5.448326149046602 10.87367025017546
6.593789777140437 -5.273246292015291 7.076647905089709
6.940563191899902 2.749112476688625 19.50163128676973
-6.863197214544597 -5.128623282145943 5.492321721422231
-3.767562518678878 -5.826436063707598 26.19466304121969
6.260806864263319 5.300312727623578 10.12544444843493
6.158382861747636 -2.596495808293397 29.43554142973112
6.158382861746577 2.596495808295965 29.43554142973084
8.380045737135578 2.650516199553983 2.678203373379566
8.380045737135568 -2.650516199554008 2.678203373379595
4.934264799812745 5.007685379405281 25.02852852245175
4.653832376732772 -7.152223768828078 5.933520921162573
-4.227687533203421 -7.478738243449237 5.197143455203432
5.085604548076444 -4.872691654208176 24.86365356569394
-2.64516765254039 -1.789593593854868 32
3.318858606966839 0.9136124567708817 32
-1.406527254543122 3.079865081969836 32
-0.3290135388333686 -3.542022810112352 32
0.03187430146176153 0.02935408173373101 32
2.941403160111517 -1.99984422059248 32
-3.450387445827474 1.036341788859975 32
1.514639893722369 3.316598740171162 32
-10.31983202371846 1.149080830487037e-14 0
0.9488176199968067 -10.27550570308071 0
0.9488176199968186 10.27550570308071 0
9.911860172928041 2.106830918111609 0
9.911860172928025 -2.106830918111621 0
8.935881143994854 -3.209627415059868 31.83128104831302
8.622259865243404 3.210721483584408 35.56901948640535
9.560740229175035 3.210769427521803 24.32635413700642
9.70479363407347 -3.716355517672122 20.43117751032401
7.572575793799106 -4.09758946533286 43.0725261603211
-11.73088669374763 -1.940162152660217e-14 3.419408766471456
-2.93356341489342 11.36350050067426 3.353765747894174
-7.290541649137687 1.984803379761022 56.46779818220659
7.694330858993568 3.154194830285126 46.81285440877583
-2.550778283412737 -11.45591304092289 3.348636435899146
10.49497893106745 3.195253963268123 13.07967085456085
-1.949325425597162 -7.274981528814155 56.7762135102464
10.30028872730695 -3.761722649871375 13.14206888421812
-1.976212442307552 7.275357946767365 56.68260865122541
7.358006790879124 -3.190129739543207 50.57323636838945
7.525537753436183 9.008657493085222 3.324163033449048
4.712243512000845 -10.74283313214679 3.419408766471714
-9.257317901175377 7.20525973842184 3.419408766471709
-9.257317901175359 -7.205259738421862 3.419408766471709
7.037746588842867 3.184812749282433 54.32125868882564
11.10107250334919 -3.225331996075627 5.589093889147453
4.860641625241934 -5.775290174685608 56.56170290324955
11.10107250334962 3.22533199607392 5.589093889148325
8.302498260544249 3.219399699765722 39.32785339379618
6.767990550768168 6.028531846019131 37.31046639484082
7.1561374373903 6.029827549225469 33.57185725044894
4.459516505363632 8.07916914395812 35.2186546684297
4.03726469586814 7.96948964214527 38.96012839271994
4.877740297785107 8.178981872165188 31.4728916166187
7.520309771481806 6.052851286960895 29.81378956583192
5.277334135415425 8.280104071247269 27.71377373905037
1.923148430858776 9.49895701911773 29.32997136373502
2.464358994756387 9.680334675724991 25.55101784553294
-1.103463566948654 9.80808709383358 27.06466390609456
-0.5956968721073074 10.14822986869925 23.30701150773297
-3.982604614699079 9.229425708488868 24.75122265255619
-4.40212492057993 8.707793630796385 28.49655016365561
-3.553124035786846 9.718833925803832 20.99106814265381
-6.570573797032475 7.854840132300438 22.35463580261689
-6.253481667766271 8.480387363219215 18.59241302623172
-8.665669585966803 5.814376506269245 19.87816128611652
-8.8118071220996 5.018929650410747 23.622263861378
-10.04801131282863 2.447857024148282 21.06837938141427
-9.929237850984048 1.548383401381416 24.78673642794851
-10.18091864893847 -1.242852275936011 22.15327163310771
-9.737143862762657 -2.122814665780092 25.84623298060024
-9.015913597590666 -4.724573926518793 23.14033575231139
-8.222622840338536 -5.497644949143086 26.79498012324179
-9.197202449421399 -3.009072282229524 29.51735401381464
-9.712632359766667 -3.902713115655338 19.4735692795692
-7.659489634273101 -7.029596552183039 20.37696775713825
-3.108460018816291 10.18166752779877 17.20923716048111
-7.332394637012778 -6.204057620828051 30.43247349677862
-8.558227217383159 -3.862089403382325 33.17206625808665
-6.323319077861125 -6.84704837718311 34.04987777709021
-7.802784747782774 -4.688778697823762 36.80744187430816
-5.568695792453771 -8.09431811440656 27.63746084531024
-9.096661336310383 -1.22337936950202 35.84983521480454
-8.605894975505427 -2.241471304483646 39.47805456937944
-6.93250904852404 -5.449707920275151 40.42979322884231
-8.05187039335263 -3.033739004321929 43.14482714337586
-6.011723089674582 -6.057232799697049 44.03841944630597
-10.10124492618864 3.328350766599845 17.33808968193387
-8.663007553761998 0.5998598237039277 42.13693856384484
-8.588516489312555 -6.354532359063732 16.72443320626577
-5.844774745359044 -8.86427249187833 17.56308952470697
2.941860420317556 9.857248191706278 21.76726302345099
1.158669650468643 9.03210376952226 36.77023705870678
0.6933706929698074 8.78474499369918 40.50654184873146
-4.053644662027241 -7.759752545423802 41.23470420985013
-2.844165801744913 -7.982613764245725 44.80003447762223
-5.888564046916641 9.094015674331169 14.81499397023413
-7.382172758807954 -3.834128417944132 46.77821876145224
-6.969582184328739 -8.386510101814606 13.91935175143824
-3.665200507920996 -10.20588281799837 14.6875507943682
-2.350077137213913 -10.29472361075972 18.30259210460662
0.07553110968990209 -10.790865310309 15.36015418386934
-9.378847619607839 -5.690641384593466 13.08433190179717
-2.311248829162325 8.68984928207667 38.22076711079207
-2.639135406717508 10.62160768464617 13.41052532800753
1.435635350978262 -10.41164542148404 18.93024469472615
-0.4992510633867022 -8.686669944972206 41.9177071004563
3.79373459855749 -10.05438836810804 15.92966011599398
-2.757987307179771 8.249994504228161 41.94588238741866
0.2268866609168426 8.514846963692476 44.24466636791801
-3.191779749716208 7.77645302230333 45.66621804219201
-0.3424409564484934 8.224955519104729 47.87594907848778
0.8608134322278648 -8.380456574966457 45.43039258434479
2.495886955657835 -10.73870671259418 12.38932838377752
-3.694056164938622 7.232952242058065 49.27875684583398
-5.535450030340695 9.660184010117954 11.006765210722
-1.526336930167138 -8.052226267239824 48.33933574731471
0.4339958998891368 10.75222231364161 15.74327334070982
0.8872411807343293 11.02633383812585 11.91876990433474
3.899735232150885 10.16226858855371 14.16951202078918
-0.9954818056051791 -10.22920517479757 21.88605669909299
2.76310166827729 -9.8513478558078 22.47080313894162
-4.990185696266556 -9.94101287081771 11.14073637672548
-1.84588623745506 -8.787155483135971 38.38618284966641
1.886655669594991 -8.730264915261001 38.98521729892652
0.5410721387641145 -9.19155967954128 35.48244093734903
4.145568396504175 -8.175410302439332 36.00417561042057
2.950023836117683 -8.967850568601888 32.52022265272029
4.329004523104911 10.31183016319619 10.3726567507444
-8.270089244682614 7.295942834354392 12.34560694739109
-6.049435113366516 5.687507062443022 46.97208990597355
-5.428992488725052 7.03404349020901 39.57374848427829
-5.069747270990484 7.650882504657127 35.85507093009757
0.3716413363293406 -9.991023053004692 25.43867659330661
4.03324073990422 -9.10171135749216 25.98026041611122
5.982174370457127 -9.213810336214477 12.89073336617302
-8.926368026854707 4.161145818476097 27.33596197948327
-6.300501365310152 4.950362650008269 50.66420613310064
7.040122809903528 -8.070831683644185 16.39245551701516
2.198198588283567 -7.8478450458308 48.92025326624263
-0.818829390046811 -9.449261608988049 31.96025675374488
6.127522425289398 -8.146239110412097 22.95357159022817
7.111026085164046 -6.91872385323758 26.41031431670672
-7.549656475177702 5.042850996587743 37.11523124733927
-7.326574321198529 5.841928717013131 33.41059098966979
-7.822159920924947 2.486719779780418 48.18293683301264
1.358780479410735 11.28171290610576 8.090742999016728
6.9743612106411 8.525011746845724 12.52292840378263
6.562798032367787 8.468744823356717 16.34008388346227
3.12887778423924 7.735123082254223 46.45413632038139
2.099714689986831 7.76263522904963 50.2962590626429
5.010368951176321 -7.349413351349717 39.45515938593602
4.238420680522895 -7.258454086765489 45.67476929793043
4.927156738061048 -10.12718793168021 9.374829603413234
7.724279739093391 -8.149610525596739 9.802023923998254
1.18047787897672 -11.24083036530029 8.860729036336826
7.054616888814406 -5.803062735154809 36.40680156443097
-7.699837697730925 1.860065299637516 51.82451670827017
-0.3428510874283264 -7.913562912141503 51.82878249784659
-3.944806773720175 -6.927426028780874 51.18222809141462
7.486268535548584 8.468753366001522 8.852744863905293
3.371503342409563 -7.109057526627939 52.50178789568257
-8.125011275598029 7.883979281285977 8.62308171730044
-10.11000936921544 4.877092686233505 9.848611831787444
-5.113443496053126 10.22772513755488 7.182094268399173
-3.620614168645694 6.929570663550996 53.13192608227502
-5.230911528343735 5.427046204952969 56.70029261565299
-0.2764209289121197 7.800613248103184 53.2960574809453
1.816579166018117 7.315415645173059 56.70029261565298
5.056856414803113 -8.25682881401521 29.44911456719772
-8.930218856799199 2.511631928773117 34.60284784198793
-8.827055701852084 1.696372259440271 38.2637043724431
-7.750443780389103 4.117328639882669 40.96219950033299
6.474313839368746 -9.494828380337871 6.453402192066633
3.462750173233722 10.00262008976749 17.97878608577519
6.106301992634126 8.437765608772397 20.13287634160594
8.637159890356605 6.056929124173484 18.43337847764959
-3.347328415562879 -9.475274014786958 24.78789353244688
5.007461223649528 -9.191722646706621 19.47597515781388
5.699365468849359 8.357993765545501 23.93511693780794
-0.09916712240878499 10.46296064890472 19.52396554701501
7.924862414640606 -6.788065805585174 19.89004660729208
9.385186467205346 -5.092089630097272 16.80270890408975
5.879694935561798 -7.338292386419282 32.99467694286027
3.591089673844734 7.857163136165242 42.70657147691796
1.574023060690266 -9.585579553438988 29.04698050911528
-6.66057327018513 -7.605331416609971 24.01962713802963
8.939159099780769 3.201831944745365 31.82551795508443
7.977279881142592 3.242115591876951 43.06207537169645
7.665094419861371 -3.182708045379109 47.01808378493669
8.316348186140358 -3.169789971389326 39.38979460182681
7.369208621376822 3.164237160371063 50.5728871593084
2.084659053122953 -7.243572840188674 56.70038960242871
8.753290251111043 -6.585876031353457 13.28852259924919
-5.345356727469243 -5.306229458012984 56.77310623084348
-7.315382307578586 -1.816746427087778 56.70019150813178
-6.756053512940534 -3.88099370192657 53.47496043313234
-5.760160975062185 6.378327908988004 43.27313050817536
9.103581900824111 -3.615041720446022 28.01607553126607
9.543862853863963 -3.245777242835507 24.38709715418363
-6.933981761610343 7.131347321409828 26.0900482330313
3.077099808837167 -8.092545564478401 42.46643083408075
-4.655410230908504 -9.218889078357034 21.24897190123682
9.878638670053299 3.190145935112773 20.57172976301183
10.80596429120219 3.182970038162902 9.339095714118459
-9.737677903565029 0.6240718197189725 28.49169108418937
1.522364659214954 9.277103749593383 33.02109659154956
-1.86554288413902 9.09833692790696 34.46398730650069
-8.47531414603425 6.581642965062078 16.12736313122856
10.8023983141443 -3.225268777581443 9.229724530980288
7.864792131608759 6.09146869074313 26.07425478365716
-2.223438877486215 11.01755369025533 9.660915401282498
-9.46269295849685 -0.3017439701300796 32.17842913675231
-4.901866587110449 -6.634383711985187 47.66302087526135
-10.11893052210904 4.135984518513699 13.5757483365071
-11.04570229378027 1.417778117453126 10.97408873916896
-11.1241444567196 2.647147085938113 7.181921082719397
-11.28527931994659 -1.202941436116748 8.269054296552863
-10.8656181941605 -4.046164477190875 5.151995904481852
-8.847695656744817 -7.226128440774727 7.323848781406489
-6.939772849299122 -9.217087832009843 5.875931903523104
-10.82714394051288 0.5278252840059326 14.73917086308426
-3.115497476570217 -8.715448388138109 34.87143422231924
-5.229640263152236 -7.365231261708002 37.69883132096179
5.140043580034561 5.521525034236217 56.622763737726
-10.53955916729599 -0.3407720649125348 18.48667958375673
-10.29366463588529 -3.117544686562745 15.81414988758007
-1.294949615656123 -10.99434955358659 11.81234188937588
-8.389290466434943 -0.321119267333593 45.800353531327
9.251255925413759 3.207691907416395 28.06064660747617
-7.880977765812449 -1.786091514378094 49.79768210871775
6.059667810469477 5.927271619625639 44.76950999848624
5.481403254688127 6.062833914569921 48.62213112262966
6.380574006618952 6.009592391538848 41.10333985809993
8.227613386681865 6.107958874817013 22.27411661432084
5.299283605554569 5.8321892922704 52.34759739794782
7.03759725001755 -3.185082735785535 54.32157302866641
-4.386440564869988 -8.473881615827679 31.23333834518499
-2.153039029136757 -9.526522911724529 28.37560465105431
-7.11937660538018 6.525220326616389 29.76644410247238
-8.930190779802068 3.40979617710592 31.01548930385376
-11.07844094565738 3.830840236728569 3.531291521772172
9.480167587765068 -6.459705938411934 6.711869763525177
1.131937679155929 -11.68135689486795 3.35352546334882
-7.796539518917633 3.355283378519763 44.62582945454445
-6.433942319861685 9.815429035037143 3.351966923415254
4.488214955899196 10.84588135477766 3.330881111054233
0.8062451548362479 11.71199868361771 3.307214945615138
-4.771250776723305 8.174871654646743 32.20543957768486
-1.555418112633602 9.448706246322631 30.80143305507157
5.4448706571658 -6.018579708373646 49.35053740780478
10.21241057880971 3.107581119887502 16.83883671378939
-10.82904069505969 -2.18198203907798 12.11306243704524
9.282210415544268 6.140463112173986 11.06135220984365
8.933168127854586 6.139088784240783 14.74839696370825
-2.897317330173098 -10.95486373229127 8.493764356093445
9.672386059089398 6.067501565908564 7.395621358046155
-7.899979161008796 -7.912886612018402 10.40144731209247
10.2057721168325 -5.8146822200432 3.227485356437227
-6.553293041883128 -4.68613858002691 50.1082177617571
9.914881402607806 6.29262761858319 3.263337848972882
6.055163101500312 -6.126535124299131 43.02436214200029
8.733452378570876 -2.889738086058927 35.58857690392909
7.714595251605263 -5.79890128118807 29.84658859491528
8.033773104559421 -8.594522446817265 2.990223427871836
5.100719733101596 10.26435876927348 6.837623852811777
-6.291010219034097 4.55192957170541 53.80942920959694
-9.890750823364424 5.859543213562728 6.402168421973619
-10.21710604901414 -4.624394297428699 9.975473304131066
3.430126234234681 -10.96580552141809 6.483174171299474
-0.999779040201681 11.45536490015364 6.366945536215883
-6.345277297931435 -9.923592846785066 2.810553407270798
8.116102340362756 -6.168326294787622 22.94632728978354
-3.626286406178197 -6.820466480483968 54.32470733767266
-7.721740298503523 -0.8891513320684606 53.71212352649867
2.617716920624073 7.322551546312288 53.66608476339557
5.841543164577506 -5.29052961688291 52.33430258056747
-0.7472271538335833 -11.49132970280215 6.154905767394699
6.974283203917073 2.738681650490269 57.27029496481619
6.818876782247138 -3.132958185713934 57.12498708662163
10.42125197722616 -2.306573732326239 16.85527288830041
9.520320641007455 -5.85682461970829 10.44949298632567
11.46410595137761 2.734906707860012 2.721475900470036
11.46410595137739 -2.734906707861941 2.721475900467181
-0.3276914827224287 -7.692010784311012 54.64954284913402
-4.35530711485352 -10.68030404344423 5.918646620413151
7.78819945856058 -5.172834946989592 33.67703327991393
-7.815478025073531 8.512649027717144 5.638391453980566
-1.201845431813311 7.922886912290853 50.65297819566974
6.50475915709856 -5.323754050037014 45.67107836584796
6.929792522788655 -5.480450474366254 40.21503961159589
-6.286414415877529 -9.41340704443253 8.646483565153526
-11.19151833672801 -3.853912192044479 2.077470048225951
2.633898073030535 11.25369471867767 5.618506165343842
8.007198785866892 8.272761987146408 6.185353397973196
-3.701498499457172 0.7003160221705068 60
3.851738121937664 -0.931509262873081 60
-1.119158375460275 -3.801457693759516 60
1.269397997940749 3.570264453056938 60
2.100948066511433 -3.638948795261449 60
0.6201842895985421 -1.130840590299121 60
-1.762894954313782 -1.284003716926086 60
-3.967207069091672 -2.387823063885131 60
1.906222097854563 0.8343620008315338 60
4.041174800508617 2.235818364301867 60
-0.7050019238897451 1.138717118726257 60
-2.179815903366991 3.771498029878741 60
-0.004636720181437813 0.006287784836571674 40.77038077117034
0.5246755264409328 0.3350566803778547 52.90059838570973
0.3147839128562016 -2.17920799680858 46.73505673545591
-2.113869164919993 3.442425781562014 37.27592269282847
-0.2474290851844225 3.123242910831854 45.31673596102455
3.855449589080347 1.131891849400396 37.28775524923521
-3.517647264899142 -1.640176743184232 37.19864095474322
1.454011269146004 -3.668836097886846 37.13685978466013
-3.693473461659348 -0.7367761184285815 44.08694281329438
-1.778693991615293 -2.62907540586125 55.5852880714453
3.30301226922518 1.4354598179914 48.33182271535594
3.725917088882857 1.09375775844004 43.57218700774728
-2.972693969244821 0.9898751733238392 49.15363463309481
1.603218958314097 4.192522138536596 39.84307418604888
0.5364084634872222 -4.22144357075083 42.58361930781284
4.044320997241974 -2.064273661267083 40.41592030492662
-2.884546772520964 3.319379335890899 41.69329009311531
3.369322616750334 0.4916521623208275 56.03769920416193
-2.353264180879995 1.944870632165471 55.92156547900326
0.038117594508307 0.1299577934613726 36.11574371807604
1.395730105530687 5.031142344759052 35.81424325675195
-3.168173362968943 -3.728435072658645 40.77173060982449
0.06734843991746459 3.992597064709216 49.5030761848254
2.972223104782133 -2.459295710095669 50.45428011541758
-1.986672814009674 -4.945580962782032 35.55880879706375
-1.502697432605498 -3.125799247773252 50.78193518545774
4.848974417029644 -2.318408465352068 35.69547690259517
-5.291210262859227 1.606253658603009 35.828077340342
-5.054775308986515 0.18881549738346 40.42516838676621
3.642109727146647 -2.755927308901257 44.61243667478231
2.162612232100988 -3.12691074108074 54.45035634172535
4.231679162217327 1.358866224069417 52.3502588283124

CELLS 2679 12235
1 0
1 1
1 2
1 3
2 0 4
2 4 5
2 5 6
2 6 7
2 7 8
2 8 9
2 9 10
2 10 11
2 11 1
2 0 12
2 12 13
2 13 14
2 14 15
2 15 16
2 16 17
2 17 18
2 18 19
2 19 20
2 20 21
2 21 22
2 22 23
2 23 24
2 24 25
2 25 0
2 1 26
2 26 27
2 27 28
2 28 29
2 29 30
2 30 31
2 31 32
2 32 33
2 33 34
2 34 35
2 35 1
2 2 36
2 36 37
2 37 38
2 38 39
2 39 40
2 40 41
2 41 42
2 42 43
2 43 44
2 44 45
2 45 46
2 46 47
2 47 48
2 48 49
2 49 50
2 50 51
2 51 52
2 52 53
2 53 2
2 3 54
2 54 55
2 55 56
2 56 57
2 57 58
2 58 59
2 59 60
2 60 61
2 61 62
2 62 63
2 63 64
2 64 3
2 2 65
2 65 66
2 66 67
2 67 68
2 68 69
2 69 70
2 70 71
2 71 72
2 72 73
2 73 74
2 74 75
2 75 76
2 76 77
2 77 78
2 78 79
2 79 3
3 0 193 4
3 4 194 0
3 12 193 0
3 0 194 25
3 1 191 11
3 11 192 1
3 1 192 26
3 35 191 1
3 4 180 5
3 5 181 4
3 4 193 180
3 181 194 4
3 6 88 5
3 5 91 6
3 88 181 5
3 5 180 91
3 7 152 6
3 6 183 7
3 6 152 88
3 91 183 6
3 7 80 8
3 8 81 7
3 7 183 80
3 81 152 7
3 9 154 8
3 8 187 9
3 80 187 8
3 8 154 81
3 10 86 9
3 9 87 10
3 86 154 9
3 9 187 87
3 11 160 10
3 10 161 11
3 10 160 86
3 87 161 10
3 11 191 160
3 161 192 11
3 13 95 12
3 95 193 12
3 14 175 13
3 13 175 95
3 15 85 14
3 85 175 14
3 16 173 15
3 15 173 85
3 17 174 16
3 16 174 173
3 18 83 17
3 83 174 17
3 19 177 18
3 18 177 83
3 20 184 19
3 19 184 177
3 21 84 20
3 84 184 20
3 22 172 21
3 21 172 84
3 23 92 22
3 92 172 22
3 24 171 23
3 23 171 92
3 25 96 24
3 96 171 24
3 25 194 96
3 26 93 27
3 26 192 93
3 27 97 28
3 93 97 27
3 28 89 29
3 28 97 89
3 29 137 30
3 89 137 29
3 30 82 31
3 30 137 82
3 31 143 32
3 82 143 31
3 32 90 33
3 32 143 90
3 33 142 34
3 90 142 33
3 34 94 35
3 34 142 94
3 94 191 35
3 146 147 80
3 80 148 146
3 147 187 80
3 80 183 148
3 81 154 140
3 140 179 81
3 81 179 152
3 82 137 135
3 135 138 82
3 138 143 82
3 83 165 164
3 164 174 83
3 83 177 165
3 172 197 84
3 84 188 184
3 84 197 188
3 151 175 85
3 85 178 151
3 173 178 85
3 139 154 86
3 86 198 139
3 160 198 86
3 147 158 87
3 87 187 147
3 158 195 87
3 87 195 161
3 152 185 88
3 88 186 181
3 185 186 88
3 97 98 89
3 98 99 89
3 99 137 89
3 90 182 142
3 143 189 90
3 90 189 182
3 91 180 169
3 169 190 91
3 91 190 183
3 133 172 92
3 92 176 133
3 171 176 92
3 93 136 97
3 93 195 136
3 93 192 161
3 161 195 93
3 94 142 141
3 141 198 94
3 160 191 94
3 94 198 160
3 95 175 169
3 169 180 95
3 180 193 95
3 96 196 171
3 181 186 96
3 96 194 181
3 186 196 96
3 97 136 98
3 98 100 99
3 98 127 100
3 98 136 127
3 100 101 99
3 101 135 99
3 135 137 99
3 100 102 101
3 100 144 102
3 127 144 100
3 102 103 101
3 103 170 101
3 101 170 135
3 102 104 103
3 102 113 104
3 102 144 113
3 104 105 103
3 105 106 103
3 106 170 103
3 104 156 105
3 113 114 104
3 114 156 104
3 105 107 106
3 105 159 107
3 156 159 105
3 107 108 106
3 108 120 106
3 120 170 106
3 107 109 108
3 107 112 109
3 107 159 112
3 109 110 108
3 110 162 108
3 108 162 120
3 109 111 110
3 109 155 111
3 112 155 109
3 111 116 110
3 116 118 110
3 118 162 110
3 111 117 116
3 111 119 117
3 111 155 119
3 112 168 155
3 159 166 112
3 166 168 112
3 113 115 114
3 113 126 115
3 113 144 126
3 115 121 114
3 121 123 114
3 123 156 114
3 115 122 121
3 115 149 122
3 126 149 115
3 117 153 116
3 116 124 118
3 116 153 124
3 119 128 117
3 128 129 117
3 129 153 117
3 124 125 118
3 125 131 118
3 131 162 118
3 119 133 128
3 119 134 133
3 119 155 134
3 120 163 138
3 138 170 120
3 162 163 120
3 122 178 121
3 121 130 123
3 121 178 130
3 149 150 122
3 150 151 122
3 151 178 122
3 130 164 123
3 123 157 156
3 123 164 157
3 124 139 125
3 124 140 139
3 124 153 140
3 125 182 131
3 139 141 125
3 141 182 125
3 144 145 126
3 145 146 126
3 146 149 126
3 136 158 127
3 127 145 144
3 127 158 145
3 128 132 129
3 128 176 132
3 133 176 128
3 132 185 129
3 129 179 153
3 129 185 179
3 130 174 164
3 173 174 130
3 130 178 173
3 131 163 162
3 131 189 163
3 182 189 131
3 176 196 132
3 132 186 185
3 132 196 186
3 134 197 133
3 133 197 172
3 155 168 134
3 168 188 134
3 188 197 134
3 135 170 138
3 136 195 158
3 138 163 143
3 140 154 139
3 139 198 141
3 153 179 140
3 142 182 141
3 163 189 143
3 145 147 146
3 145 158 147
3 148 149 146
3 148 150 149
3 148 190 150
3 183 190 148
3 150 169 151
3 150 190 169
3 169 175 151
3 179 185 152
3 157 159 156
3 157 166 159
3 164 165 157
3 165 166 157
3 165 167 166
3 165 177 167
3 167 168 166
3 167 188 168
3 177 184 167
3 184 188 167
3 171 196 176
3 26 200 1
3 1 204 35
3 200 204 1
3 27 206 26
3 26 206 200
3 28 206 27
3 29 201 28
3 201 206 28
3 30 205 29
3 29 205 201
3 31 205 30
3 32 199 31
3 199 205 31
3 33 202 32
3 32 202 199
3 34 202 33
3 35 204 34
3 34 204 202
3 202 203 199
3 203 205 199
3 203 204 200
3 200 206 203
3 201 205 203
3 203 206 201
3 202 204 203
3 0 210 2
3 2 211 0
3 12 210 0
3 0 211 25
3 2 210 36
3 53 211 2
3 37 12 13
3 36 12 37
3 36 210 12
3 14 38 13
3 38 37 13
3 15 209 14
3 39 38 14
3 14 209 39
3 16 41 15
3 15 41 40
3 40 209 15
3 17 42 16
3 42 41 16
3 18 43 17
3 43 42 17
3 19 207 18
3 44 43 18
3 18 207 44
3 19 20 46
3 45 19 46
3 45 207 19
3 47 20 21
3 46 20 47
3 22 48 21
3 21 48 47
3 23 208 22
3 22 49 48
3 22 208 49
3 24 51 23
3 23 51 50
3 50 208 23
3 25 52 24
3 24 52 51
3 25 53 52
3 25 211 53
3 39 209 40
3 44 207 45
3 49 208 50
3 36 469 2
3 2 470 53
3 2 469 65
3 65 470 2
3 3 465 54
3 64 466 3
3 79 465 3
3 3 466 79
3 37 447 36
3 447 469 36
3 38 227 37
3 227 447 37
3 39 433 38
3 38 433 227
3 40 434 39
3 39 434 433
3 41 218 40
3 218 434 40
3 42 432 41
3 41 432 218
3 43 229 42
3 229 432 42
3 44 428 43
3 43 428 229
3 45 217 44
3 217 428 44
3 46 479 45
3 45 479 217
3 47 230 46
3 230 479 46
3 48 458 47
3 47 458 230
3 49 221 48
3 221 458 48
3 50 430 49
3 49 430 221
3 51 228 50
3 228 430 50
3 52 451 51
3 51 451 228
3 53 445 52
3 445 451 52
3 53 470 445
3 54 411 55
3 54 465 411
3 55 355 56
3 55 411 355
3 56 225 57
3 56 355 225
3 57 353 58
3 225 353 57
3 58 219 59
3 58 353 219
3 59 382 60
3 219 382 59
3 60 381 61
3 60 382 381
3 61 223 62
3 61 381 223
3 62 379 63
3 223 379 62
3 63 233 64
3 63 379 233
3 233 466 64
3 66 232 65
3 65 234 66
3 232 470 65
3 65 469 234
3 66 391 67
3 67 396 66
3 66 396 232
3 234 391 66
3 67 222 68
3 68 224 67
3 67 391 222
3 224 396 67
3 68 438 69
3 69 467 68
3 222 438 68
3 68 467 224
3 70 215 69
3 69 390 70
3 215 467 69
3 69 438 390
3 70 214 71
3 71 386 70
3 70 390 214
3 70 386 215
3 72 385 71
3 71 416 72
3 214 416 71
3 385 386 71
3 73 212 72
3 72 374 73
3 212 385 72
3 72 416 374
3 73 213 74
3 74 449 73
3 73 449 212
3 73 374 213
3 74 235 75
3 75 377 74
3 213 235 74
3 377 449 74
3 76 216 75
3 75 375 76
3 216 377 75
3 235 375 75
3 76 220 77
3 77 376 76
3 76 376 216
3 76 375 220
3 78 226 77
3 77 378 78
3 220 378 77
3 226 376 77
3 78 231 79
3 79 423 78
3 78 423 226
3 78 378 231
3 231 465 79
3 79 466 423
3 212 450 385
3 449 473 212
3 212 473 450
3 213 236 235
3 213 237 236
3 213 374 237
3 390 421 214
3 397 416 214
3 214 421 397
3 368 369 215
3 215 459 368
3 369 467 215
3 386 459 215
3 376 476 216
3 216 477 377
3 216 476 448
3 448 477 216
3 217 404 403
3 403 428 217
3 217 405 404
3 217 479 405
3 218 432 351
3 351 457 218
3 218 457 434
3 219 453 344
3 344 461 219
3 353 453 219
3 219 461 382
3 375 418 220
3 220 419 378
3 418 419 220
3 430 464 221
3 221 472 458
3 464 472 221
3 391 440 222
3 222 441 438
3 440 441 222
3 223 471 379
3 381 460 223
3 460 471 223
3 369 380 224
3 224 467 369
3 380 468 224
3 224 468 396
3 352 353 225
3 225 354 352
3 225 355 354
3 226 437 376
3 423 463 226
3 226 463 437
3 433 452 227
3 227 481 447
3 452 481 227
3 228 451 360
3 360 456 228
3 228 456 430
3 428 454 229
3 229 474 432
3 454 474 229
3 230 406 405
3 405 479 230
3 230 407 406
3 230 458 407
3 378 422 231
3 231 422 411
3 411 465 231
3 396 429 232
3 429 445 232
3 445 470 232
3 233 379 348
3 348 463 233
3 233 463 423
3 423 466 233
3 234 443 391
3 234 447 443
3 234 469 447
3 236 420 235
3 235 420 375
3 237 238 236
3 238 239 236
3 239 420 236
3 237 240 238
3 237 241 240
3 237 374 241
3 238 279 239
3 240 393 238
3 238 393 279
3 279 280 239
3 280 371 239
3 371 420 239
3 241 242 240
3 242 243 240
3 243 393 240
3 241 397 242
3 374 416 241
3 241 416 397
3 242 244 243
3 242 366 244
3 242 397 366
3 244 245 243
3 245 436 243
3 243 436 393
3 244 246 245
3 244 278 246
3 244 366 278
3 246 247 245
3 247 248 245
3 248 436 245
3 246 249 247
3 246 367 249
3 278 367 246
3 247 387 248
3 249 250 247
3 250 387 247
3 387 426 248
3 426 435 248
3 435 436 248
3 249 251 250
3 249 263 251
3 249 367 263
3 251 252 250
3 252 253 250
3 253 387 250
3 251 395 252
3 263 283 251
3 283 395 251
3 252 254 253
3 252 274 254
3 252 395 274
3 254 255 253
3 255 323 253
3 323 387 253
3 254 256 255
3 254 412 256
3 274 412 254
3 256 257 255
3 257 392 255
3 255 392 323
3 256 258 257
3 256 261 258
3 256 412 261
3 258 259 257
3 259 260 257
3 260 392 257
3 258 373 259
3 261 262 258
3 262 373 258
3 259 264 260
3 259 268 264
3 259 373 268
3 264 265 260
3 265 399 260
3 260 399 392
3 261 276 262
3 261 413 276
3 412 413 261
3 276 277 262
3 277 389 262
3 262 389 373
3 263 291 283
3 263 304 291
3 263 367 304
3 264 266 265
3 264 424 266
3 268 424 264
3 266 267 265
3 267 269 265
3 269 399 265
3 266 410 267
3 409 410 266
3 266 424 409
3 267 270 269
3 267 271 270
3 267 410 271
3 268 373 364
3 364 425 268
3 268 425 424
3 270 358 269
3 269 358 357
3 357 399 269
3 271 272 270
3 272 275 270
3 275 358 270
3 271 273 272
3 271 281 273
3 271 410 281
3 273 284 272
3 272 415 275
3 284 415 272
3 281 282 273
3 282 400 273
3 273 400 284
3 395 401 274
3 401 408 274
3 408 412 274
3 275 359 358
3 275 431 359
3 415 431 275
3 276 285 277
3 276 289 285
3 276 413 289
3 285 286 277
3 286 287 277
3 287 389 277
3 278 362 361
3 361 367 278
3 278 366 362
3 279 290 280
3 279 394 290
3 393 394 279
3 290 295 280
3 295 296 280
3 296 371 280
3 281 293 282
3 281 310 293
3 281 410 310
3 293 299 282
3 299 303 282
3 303 400 282
3 291 302 283
3 302 316 283
3 316 395 283
3 400 446 284
3 284 417 415
3 284 446 417
3 285 309 286
3 289 444 285
3 285 444 309
3 286 288 287
3 286 414 288
3 309 414 286
3 288 292 287
3 292 307 287
3 307 389 287
3 288 294 292
3 288 300 294
3 288 414 300
3 413 439 289
3 439 455 289
3 289 455 444
3 290 318 295
3 290 319 318
3 290 394 319
3 291 398 302
3 304 305 291
3 305 398 291
3 294 365 292
3 292 308 307
3 292 365 308
3 293 388 299
3 310 311 293
3 311 388 293
3 300 322 294
3 322 325 294
3 325 365 294
3 295 297 296
3 295 384 297
3 318 384 295
3 297 298 296
3 298 336 296
3 336 371 296
3 297 301 298
3 297 317 301
3 297 384 317
3 301 475 298
3 298 337 336
3 298 475 337
3 299 326 303
3 299 339 326
3 299 388 339
3 300 340 322
3 300 342 340
3 300 414 342
3 317 324 301
3 324 352 301
3 352 475 301
3 302 349 316
3 302 351 349
3 302 398 351
3 326 345 303
3 345 346 303
3 346 400 303
3 304 306 305
3 304 361 306
3 304 367 361
3 306 315 305
3 315 333 305
3 333 398 305
3 306 334 315
3 306 335 334
3 306 361 335
3 308 320 307
3 320 364 307
3 364 389 307
3 308 321 320
3 308 328 321
3 308 365 328
3 309 442 414
3 309 478 442
3 444 478 309
3 310 312 311
3 310 409 312
3 310 410 409
3 312 313 311
3 313 338 311
3 338 388 311
3 312 314 313
3 312 327 314
3 312 409 327
3 314 370 313
3 313 343 338
3 313 370 343
3 327 372 314
3 356 370 314
3 314 372 356
3 315 452 333
3 334 347 315
3 347 452 315
3 349 350 316
3 350 401 316
3 316 401 395
3 317 332 324
3 317 431 332
3 384 431 317
3 319 330 318
3 330 359 318
3 359 384 318
3 319 331 330
3 319 435 331
3 394 435 319
3 321 372 320
3 320 425 364
3 372 425 320
3 328 329 321
3 329 356 321
3 356 372 321
3 322 380 325
3 340 341 322
3 341 380 322
3 323 426 387
3 392 427 323
3 323 427 426
3 332 344 324
3 344 453 324
3 324 453 352
3 325 368 365
3 325 369 368
3 325 380 369
3 339 437 326
3 326 348 345
3 326 437 348
3 327 425 372
3 409 424 327
3 424 425 327
3 328 459 329
3 365 368 328
3 368 459 328
3 329 450 356
3 329 386 385
3 385 450 329
3 329 459 386
3 331 357 330
3 357 358 330
3 358 359 330
3 331 427 357
3 426 427 331
3 331 435 426
3 332 417 344
3 415 417 332
3 332 431 415
3 333 457 398
3 452 480 333
3 333 480 457
3 335 441 334
3 334 440 347
3 334 441 440
3 361 362 335
3 362 363 335
3 363 441 335
3 337 419 336
3 336 418 371
3 336 419 418
3 354 462 337
3 337 475 354
3 337 422 419
3 337 462 422
3 343 477 338
3 338 448 388
3 338 477 448
3 388 448 339
3 339 476 437
3 448 476 339
3 340 360 341
3 342 456 340
3 340 456 360
3 360 429 341
3 341 468 380
3 429 468 341
3 414 442 342
3 442 464 342
3 342 464 456
3 370 473 343
3 343 449 377
3 377 477 343
3 343 473 449
3 417 461 344
3 345 460 346
3 348 471 345
3 345 471 460
3 383 446 346
3 346 460 383
3 346 446 400
3 440 443 347
3 443 481 347
3 347 481 452
3 379 471 348
3 437 463 348
3 349 454 350
3 351 474 349
3 349 474 454
3 350 402 401
3 350 403 402
3 350 454 403
3 398 457 351
3 432 474 351
3 352 453 353
3 354 475 352
3 355 462 354
3 411 462 355
3 356 450 370
3 357 427 399
3 359 431 384
3 360 451 429
3 362 421 363
3 366 421 362
3 363 421 390
3 390 438 363
3 438 441 363
3 373 389 364
3 397 421 366
3 450 473 370
3 418 420 371
3 375 420 418
3 437 476 376
3 419 422 378
3 382 383 381
3 383 460 381
3 382 461 383
3 417 446 383
3 383 461 417
3 391 443 440
3 399 427 392
3 393 436 394
3 394 436 435
3 396 468 429
3 402 408 401
3 403 404 402
3 404 439 402
3 402 439 408
3 403 454 428
3 405 455 404
3 404 455 439
3 406 455 405
3 407 478 406
3 444 455 406
3 406 478 444
3 458 472 407
3 472 478 407
3 408 413 412
3 408 439 413
3 422 462 411
3 429 451 445
3 456 464 430
3 434 480 433
3 433 480 452
3 457 480 434
3 442 472 464
3 442 478 472
3 447 481 443
3 54 491 3
3 3 483 64
3 3 491 483
3 55 491 54
3 56 485 55
3 485 491 55
3 57 493 56
3 56 493 485
3 58 493 57
3 59 482 58
3 482 493 58
3 60 489 59
3 59 489 482
3 61 489 60
3 62 484 61
3 484 489 61
3 63 486 62
3 62 486 484
3 64 486 63
3 483 486 64
3 482 489 488
3 488 492 482
3 492 493 482
3 483 487 486
3 483 490 487
3 483 491 490
3 486 487 484
3 487 488 484
3 488 489 484
3 490 491 485
3 485 492 490
3 485 493 492
3 487 492 488
3 490 492 487
4 495 511 355 512
4 355 495 462 511
4 400 496 282 502
4 317 498 431 510
4 284 400 502 519
4 273 400 282 502
4 503 506 461 512
4 498 502 431 510
4 431 498 317 502
4 282 502 496 508
4 496 502 400 519
4 485 355 511 512
4 492 490 487 511
4 462 495 355 512
4 461 506 503 519
4 485 490 492 511
4 499 505 235 507
4 282 502 508 515
4 282 273 502 515
4 317 502 498 506
4 502 506 284 519
4 420 235 505 507
4 446 400 284 519
4 310 508 501 515
4 311 501 310 508
4 462 511 495 525
4 371 505 498 507
4 352 512 506 516
4 462 354 495 512
4 352 453 506 512
4 431 502 317 506
4 462 355 354 512
4 495 506 503 512
4 418 498 371 505
4 354 495 512 516
4 354 512 352 516
4 492 511 487 512
4 400 303 282 496
4 296 507 498 510
4 26 499 236 514
4 496 506 502 519
4 462 495 354 516
4 411 355 462 511
4 296 295 507 510
4 336 498 418 504
4 503 506 495 519
4 418 504 498 505
4 293 311 310 508
4 317 498 301 516
4 296 371 498 507
4 371 418 336 498
4 352 453 324 506
4 310 515 501 518
4 299 282 496 508
4 461 506 344 512
4 303 299 282 496
4 297 317 384 498
4 384 498 317 510
4 290 497 507 510
4 284 400 273 502
4 384 297 498 510
4 354 355 225 512
4 506 512 495 516
4 290 507 295 510
4 420 505 371 507
4 301 317 297 498
4 293 508 310 515
4 296 295 280 507
4 375 420 235 505
4 236 26 213 499
4 411 511 462 525
4 317 506 498 516
4 495 516 462 525
4 485 355 411 511
4 359 521 497 522
4 237 26 236 514
4 420 418 371 505
4 235 499 75 505
4 384 317 431 510
4 487 511 503 512
4 330 497 359 521
4 75 505 499 509
4 359 497 510 522
4 317 301 506 516
4 338 501 311 508
4 290 280 295 507
4 200 499 26 514
4 74 499 73 520
4 74 213 73 499
4 485 511 492 512
4 501 508 338 509
4 453 344 506 512
4 352 506 324 516
4 383 461 503 519
4 494 498 496 505
4 437 339 326 496
4 332 431 317 506
4 359 497 318 510
4 437 339 496 523
4 303 326 299 496
4 303 496 400 519
4 73 213 1 499
4 498 504 336 516
4 73 499 1 520
4 485 225 355 512
4 301 498 297 516
4 496 498 494 502
4 339 299 326 496
4 499 507 236 514
4 330 318 359 497
4 284 502 415 506
4 461 417 506 519
4 371 336 296 498
4 336 418 419 504
4 267 32 500 518
4 299 508 496 523
4 332 502 431 506
4 200 26 206 514
4 394 497 28 514
4 312 501 34 518
4 237 236 238 514
4 437 496 326 517
4 26 237 236 213
4 496 517 437 523
4 290 507 497 514
4 494 505 499 507
4 299 496 339 523
4 394 290 497 514
4 312 313 34 501
4 382 503 461 512
4 388 338 311 508
4 267 32 31 500
4 313 34 501 520
4 326 496 303 519
4 501 509 338 520
4 1 213 26 499
4 494 505 496 523
4 201 28 29 497
4 290 318 497 510
4 500 501 494 515
4 494 499 505 509
4 338 508 388 509
4 494 496 508 523
4 290 279 507 514
4 74 509 499 520
4 352 324 301 516
4 33 312 34 518
4 496 495 504 506
4 267 266 32 518
4 311 312 310 501
4 338 509 477 520
4 448 388 508 509
4 499 513 200 520
4 310 501 312 518
4 297 498 298 516
4 503 511 487 524
4 29 497 319 521
4 422 462 516 525
4 296 280 371 507
4 290 279 280 507
4 1 26 200 499
4 501 508 494 515
4 461 383 417 519
4 319 394 290 497
4 267 31 269 500
4 299 339 508 523
4 201 28 497 514
4 290 295 318 510
4 419 336 504 516
4 301 297 298 516
4 238 27 26 514
4 496 502 494 508
4 448 338 388 509
4 376 517 504 523
4 417 284 415 506
4 271 410 500 515
4 271 410 267 500
4 496 504 495 517
4 382 482 503 512
4 237 238 26 514
4 497 513 201 514
4 236 507 239 514
4 225 485 493 512
4 375 235 75 505
4 382 482 489 503
4 498 505 494 507
4 354 225 352 512
4 494 499 501 513
4 497 500 494 522
4 326 517 496 519
4 26 27 238 237
4 418 220 504 505
4 496 504 498 506
4 76 504 505 523
4 370 34 313 520
4 431 510 502 522
4 76 376 77 504
4 494 501 500 513
4 494 501 499 509
4 77 504 376 517
4 29 201 497 521
4 498 506 504 516
4 76 376 504 523
4 498 507 494 510
4 310 410 515 518
4 204 200 513 520
4 343 338 477 520
4 75 499 74 509
4 293 310 281 515
4 199 513 500 518
4 497 494 500 513
4 500 521 270 522
4 343 501 338 520
4 269 500 31 521
4 501 515 500 518
4 324 506 301 516
4 377 509 74 520
4 270 500 269 521
4 411 462 422 525
4 495 504 506 516
4 331 29 319 521
4 199 500 32 518
4 206 201 513 514
4 484 486 379 503
4 267 500 410 518
4 482 488 489 503
4 483 511 466 524
4 453 344 324 506
4 359 358 521 522
4 200 1 499 520
4 383 446 417 519
4 500 515 410 518
4 216 505 509 523
4 32 266 267 265
4 298 498 336 516
4 78 77 226 525
4 236 420 239 507
4 74 75 235 499
4 498 504 496 505
4 332 415 431 502
4 330 359 358 521
4 32 199 31 500
4 488 503 482 512
4 319 497 330 521
4 495 506 496 519
4 503 511 495 512
4 267 31 32 265
4 420 375 418 505
4 311 313 312 501
4 31 500 199 521
4 267 270 271 500
4 336 298 296 498
4 494 507 499 513
4 484 379 223 503
4 486 503 487 524
4 499 513 507 514
4 494 508 501 509
4 324 317 301 506
4 202 34 501 518
4 498 502 496 506
4 497 494 510 522
4 331 319 330 521
4 494 497 507 513
4 199 202 513 518
4 359 510 431 522
4 496 517 495 519
4 370 313 343 520
4 213 235 236 499
4 297 296 298 498
4 338 343 313 501
4 448 509 508 523
4 491 485 411 511
4 484 487 486 503
4 77 517 226 525
4 352 475 354 516
4 226 77 376 517
4 419 418 220 504
4 507 513 497 514
4 394 279 290 514
4 494 502 498 510
4 415 502 332 506
4 486 483 466 524
4 313 501 343 520
4 461 417 344 506
4 358 270 521 522
4 431 502 275 522
4 272 515 271 522
4 411 231 511 525
4 344 453 219 512
4 352 301 475 516
4 202 501 204 513
4 35 34 370 520
4 204 513 501 520
4 267 269 31 265
4 34 204 501 520
4 273 272 502 515
4 504 517 77 525
4 384 295 297 510
4 358 270 269 521
4 382 461 219 512
4 202 501 513 518
4 388 311 293 508
4 379 503 486 524
4 344 219 461 512
4 267 410 266 518
4 202 33 34 518
4 494 508 509 523
4 376 437 517 523
4 213 74 235 499
4 282 281 273 515
4 216 505 75 509
4 504 517 496 523
4 494 508 502 515
4 494 509 505 523
4 273 272 284 502
4 269 270 267 500
4 422 337 419 516
4 378 419 504 525
4 487 490 483 511
4 311 338 313 501
4 281 310 410 515
4 488 487 484 503
4 330 319 318 497
4 511 423 524 525
4 220 76 504 505
4 31 199 205 521
4 29 205 201 521
4 272 271 270 522
4 76 505 216 523
4 448 477 338 509
4 376 476 437 523
4 345 326 303 519
4 337 422 462 516
4 423 511 79 525
4 383 461 382 503
4 76 77 220 504
4 477 509 377 520
4 497 494 507 510
4 382 219 482 512
4 34 204 202 501
4 272 502 515 522
4 319 290 318 497
4 437 476 339 523
4 496 505 504 523
4 206 203 200 513
4 423 79 78 525
4 239 507 279 514
4 388 448 508 523
4 239 280 279 507
4 205 203 201 513
4 471 519 503 524
4 204 200 203 513
4 238 236 239 514
4 203 206 201 513
4 411 422 231 525
4 500 497 521 522
4 359 431 275 522
4 485 225 56 355
4 517 524 423 525
4 206 26 27 514
4 202 204 203 513
4 491 490 485 511
4 73 449 74 520
4 378 422 419 525
4 517 519 348 524
4 494 500 515 522
4 377 75 74 509
4 388 508 339 523
4 205 199 203 513
4 345 348 519 524
4 370 473 35 520
4 299 293 282 508
4 199 202 203 513
4 419 337 336 516
4 388 299 339 508
4 492 488 482 512
4 493 225 56 485
4 500 513 501 518
4 345 519 471 524
4 418 375 220 505
4 495 511 503 524
4 417 415 332 506
4 499 509 501 520
4 493 485 492 512
4 501 513 499 520
4 497 513 500 521
4 76 75 216 505
4 486 466 233 524
4 415 275 431 502
4 359 384 431 510
4 223 381 484 503
4 489 381 382 503
4 460 503 471 519
4 343 473 370 520
4 30 357 269 521
4 343 477 377 520
4 388 339 448 523
4 494 515 502 522
4 319 29 435 394
4 30 269 31 521
4 393 279 394 514
4 393 394 28 514
4 484 223 61 381
4 273 271 272 515
4 239 420 371 507
4 378 504 77 525
4 353 352 225 512
4 383 503 460 519
4 30 357 399 269
4 504 516 495 525
4 484 381 489 503
4 484 62 223 379
4 223 379 471 503
4 337 462 354 516
4 502 510 494 522
4 272 275 502 522
4 324 332 317 506
4 313 312 34 314
4 483 79 466 511
4 493 482 58 512
4 79 483 3 511
4 399 31 30 269
4 353 453 352 512
4 379 471 503 524
4 298 336 337 516
4 284 272 415 502
4 29 28 435 394
4 79 3 465 511
4 34 35 204 520
4 483 491 3 511
4 493 58 353 512
4 466 511 423 524
4 226 376 437 517
4 29 331 30 521
4 239 371 280 507
4 346 400 446 519
4 345 460 471 519
4 381 383 382 503
4 415 272 275 502
4 381 61 484 489
4 346 303 400 519
4 491 411 465 511
4 482 219 58 512
4 299 388 293 508
4 377 74 449 520
4 465 411 231 511
4 78 378 77 525
4 62 484 486 379
4 465 3 491 511
4 73 1 449 520
4 79 511 231 525
4 393 28 27 514
4 378 220 77 504
4 493 353 225 512
4 411 485 55 355
4 35 449 1 520
4 201 206 28 514
4 409 312 33 518
4 27 238 393 514
4 466 79 423 511
4 384 318 295 510
4 58 219 353 512
4 378 419 220 504
4 384 359 318 510
4 475 337 354 516
4 433 434 209 85
4 484 489 488 503
4 219 482 59 382
4 374 26 1 213
4 220 375 76 505
4 423 226 463 517
4 331 357 30 521
4 434 39 433 209
4 345 471 348 524
4 409 310 312 518
4 209 14 433 85
4 446 383 346 519
4 106 107 108 413
4 79 231 78 525
4 393 238 279 514
4 238 239 279 514
4 271 281 410 515
4 301 298 475 516
4 423 517 463 524
4 39 14 433 209
4 212 1 35 449
4 64 486 483 466
4 1 73 374 213
4 382 482 59 489
4 261 106 108 413
4 331 330 357 521
4 348 437 326 517
4 65 5 4 232
4 409 266 410 518
4 200 204 1 520
4 346 383 460 519
4 177 19 45 207
4 244 158 127 278
4 495 517 504 525
4 50 92 208 430
4 89 248 99 137
4 210 4 0 65
4 4 0 65 211
4 233 379 486 524
4 375 75 76 505
4 99 248 426 137
4 248 426 387 99
4 23 50 92 208
4 136 158 127 244
4 466 483 3 79
4 248 89 426 137
4 44 18 177 207
4 114 283 316 104
4 55 491 485 411
4 252 104 102 103
4 30 205 29 521
4 104 102 251 252
4 287 110 116 286
4 96 186 196 360
4 65 66 5 232
4 208 22 49 430
4 470 4 65 211
4 159 157 401 156
4 106 107 412 105
4 110 276 262 108
4 344 417 332 506
4 103 101 252 254
4 99 426 387 137
4 104 395 156 105
4 234 5 4 65
4 210 469 4 65
4 366 158 244 278
4 316 156 114 104
4 273 281 271 515
4 409 410 310 518
4 449 212 1 73
4 249 263 144 102
4 285 110 111 109
4 391 183 6 222
4 205 30 31 521
4 408 412 107 105
4 216 509 448 523
4 334 146 335 306
4 116 286 111 117
4 272 270 275 522
4 113 115 291 304
4 306 334 146 148
4 381 460 383 503
4 413 261 106 412
4 66 5 6 391
4 307 131 364 320
4 495 511 524 525
4 401 156 395 105
4 149 306 146 148
4 254 103 106 274
4 108 276 107 109
4 286 116 288 117
4 495 503 519 524
4 181 4 5 232
4 395 316 283 104
4 465 231 79 511
4 101 253 252 254
4 110 116 286 111
4 144 263 367 126
4 366 158 136 244
4 292 288 116 153
4 153 288 117 294
4 118 389 110 287
4 409 32 266 518
4 157 401 402 159
4 234 66 5 65
4 32 409 33 518
4 110 277 285 111
4 131 182 364 320
4 153 322 179 294
4 343 377 449 520
4 97 98 245 244
4 257 260 138 82
4 125 131 307 320
4 248 247 98 99
4 208 92 22 430
4 393 27 28 97
4 263 113 144 102
4 182 131 125 320
4 109 107 112 289
4 144 246 100 127
4 277 276 262 110
4 110 285 277 109
4 132 129 340 341
4 291 263 113 304
4 454 428 83 165
4 117 300 153 294
4 344 332 324 506
4 304 115 305 149
4 100 249 246 144
4 334 306 149 148
4 65 0 2 211
4 0 2 210 65
4 76 216 376 523
4 105 103 104 274
4 164 454 83 165
4 495 524 517 525
4 248 98 89 99
4 413 107 109 289
4 108 107 276 413
4 97 240 93 243
4 413 107 276 109
4 393 27 97 243
4 104 251 395 252
4 137 29 426 427
4 255 138 135 392
4 294 179 153 325
4 377 216 75 509
4 129 132 185 341
4 27 240 93 97
4 294 322 179 325
4 98 97 136 244
4 156 316 395 104
4 395 104 103 274
4 300 117 288 294
4 346 460 345 519
4 135 137 387 323
4 110 277 389 162
4 144 113 263 126
4 414 442 119 128
4 240 238 27 237
4 170 101 103 254
4 436 89 245 97
4 263 367 126 304
4 135 387 99 253
4 137 387 99 135
4 345 303 346 519
4 353 225 57 493
4 277 110 287 286
4 391 66 5 234
4 180 5 4 234
4 257 138 259 258
4 263 249 251 102
4 389 277 110 287
4 454 350 157 164
4 120 162 262 108
4 115 113 126 304
4 113 251 283 104
4 254 106 412 274
4 145 367 144 127
4 97 28 393 243
4 116 118 287 292
4 361 145 146 362
4 262 120 108 261
4 331 426 29 427
4 219 453 353 512
4 106 107 413 412
4 233 486 64 466
4 28 206 27 514
4 483 490 491 511
4 99 101 135 253
4 334 335 146 148
4 242 93 240 243
4 300 129 117 153
4 153 292 288 294
4 107 413 112 289
4 35 473 449 520
4 30 29 137 427
4 381 382 60 489
4 495 519 517 524
4 162 262 373 258
4 304 126 115 149
4 118 110 389 162
4 127 145 367 278
4 128 414 442 342
4 322 340 129 341
4 162 110 262 108
4 260 138 143 257
4 448 216 477 509
4 138 163 259 258
4 153 300 129 294
4 359 275 358 522
4 179 129 322 153
4 424 90 33 327
4 426 89 248 435
4 305 306 304 149
4 89 426 29 435
4 146 126 361 306
4 424 33 32 409
4 33 409 327 312
4 260 143 138 82
4 111 286 414 117
4 28 436 393 243
4 395 401 105 274
4 80 438 7 222
4 470 65 2 211
4 262 389 277 162
4 35 473 212 449
4 127 246 98 244
4 335 146 80 363
4 307 292 124 308
4 6 5 66 396
4 257 260 82 392
4 460 223 471 503
4 436 28 97 243
4 210 2 469 65
4 217 177 45 207
4 365 153 140 294
4 97 27 240 243
4 350 156 123 316
4 283 114 291 113
4 373 163 162 258
4 412 256 106 254
4 186 96 429 360
4 308 139 141 328
4 93 242 97 243
4 110 262 277 162
4 104 395 105 274
4 9 214 390 87
4 294 153 140 325
4 146 361 362 335
4 396 5 181 88
4 232 5 181 396
4 15 40 434 209
4 110 277 276 109
4 156 157 350 123
4 321 94 142 356
4 111 414 286 119
4 351 123 302 349
4 111 286 309 119
4 425 90 424 327
4 372 34 314 356
4 323 387 135 253
4 285 276 277 109
4 288 414 286 117
4 120 106 261 256
4 395 104 252 103
4 450 370 35 94
4 82 135 138 392
4 100 247 250 99
4 253 101 170 254
4 120 262 162 258
4 208 49 50 430
4 107 413 439 112
4 372 142 141 320
4 98 245 247 248
4 372 142 34 356
4 114 115 291 113
4 157 350 401 156
4 6 91 183 391
4 294 140 365 325
4 434 40 39 209
4 245 97 244 243
4 258 257 138 256
4 109 276 413 289
4 351 130 123 349
4 217 44 177 207
4 258 138 120 256
4 358 269 357 521
4 322 129 185 341
4 291 121 114 302
4 331 29 30 427
4 106 103 105 274
4 182 141 142 320
4 177 18 44 428
4 6 5 396 88
4 305 115 398 122
4 209 434 15 85
4 120 262 258 261
4 103 252 395 274
4 153 129 322 294
4 142 372 321 356
4 414 309 286 119
4 183 80 7 222
4 93 240 26 241
4 115 121 114 291
4 101 99 387 253
4 364 425 182 189
4 402 166 403 157
4 370 34 35 94
4 292 116 118 124
4 402 350 401 157
4 250 102 101 252
4 145 126 367 361
4 91 6 5 391
4 126 367 144 145
4 164 350 157 123
4 170 106 256 254
4 80 335 363 441
4 249 367 246 144
4 125 307 124 308
4 492 482 493 512
4 256 106 261 412
4 124 153 365 294
4 396 6 88 152
4 275 270 358 522
4 308 124 139 365
4 321 308 141 328
4 237 26 240 241
4 136 97 242 243
4 287 118 307 292
4 183 7 6 222
4 107 439 408 159
4 240 26 27 93
4 268 90 264 424
4 286 285 277 111
4 367 246 144 127
4 6 391 222 67
4 232 66 5 396
4 251 113 102 104
4 373 268 189 259
4 323 82 137 427
4 83 428 177 165
4 413 439 112 289
4 27 26 240 237
4 113 263 251 102
4 340 129 128 300
4 211 470 4 194
4 215 70 9 86
4 142 141 94 321
4 228 92 50 430
4 369 140 179 325
4 99 250 100 101
4 131 389 373 162
4 115 121 398 122
4 118 307 292 124
4 416 71 11 161
4 6 7 152 67
4 119 111 414 117
4 435 28 89 436
4 142 327 425 372
4 214 70 9 390
4 4 193 469 210
4 146 126 306 149
4 421 390 187 363
4 141 372 320 321
4 167 184 405 177
4 439 107 112 159
4 300 322 129 294
4 416 214 71 161
4 291 115 398 305
4 105 412 106 274
4 110 276 108 109
4 94 450 370 356
4 26 374 237 213
4 391 440 183 222
4 126 113 263 304
4 379 348 471 524
4 105 408 412 274
4 404 166 168 167
4 255 257 138 392
4 47 21 20 84
4 167 177 217 165
4 268 90 143 264
4 82 323 392 427
4 118 131 389 307
4 250 249 100 102
4 264 31 260 265
4 119 442 133 128
4 425 364 268 189
4 466 423 233 524
4 256 138 170 255
4 460 381 223 503
4 92 50 23 228
4 157 166 403 165
4 126 304 306 149
4 199 32 202 518
4 180 443 447 95
4 80 146 335 441
4 111 309 285 155
4 136 127 98 244
4 149 315 334 150
4 245 89 98 97
4 260 143 259 257
4 124 292 116 153
4 244 136 242 243
4 123 164 350 349
4 485 56 55 355
4 204 35 1 520
4 102 250 251 252
4 107 413 412 408
4 428 177 18 83
4 145 147 146 362
4 69 390 438 187
4 401 408 159 105
4 391 6 66 67
4 260 143 31 264
4 435 331 29 319
4 277 110 286 111
4 230 47 20 84
4 32 266 424 409
4 255 135 323 392
4 450 191 160 94
4 99 387 250 101
4 120 162 163 258
4 98 89 245 248
4 163 373 189 259
4 370 34 94 356
4 128 442 133 342
4 128 132 129 340
4 101 387 250 253
4 246 247 100 98
4 217 404 167 165
4 180 169 443 95
4 102 101 252 103
4 441 146 335 148
4 130 178 173 351
4 451 96 196 360
4 298 337 475 516
4 479 405 184 177
4 246 245 98 244
4 370 313 34 314
4 365 292 124 294
4 377 477 216 509
4 174 42 17 229
4 334 306 315 149
4 17 43 83 229
4 241 161 93 397
4 463 517 348 524
4 59 58 482 219
4 225 56 57 493
4 17 16 42 174
4 278 158 145 362
4 188 405 168 167
4 427 392 82 399
4 247 387 250 99
4 156 401 159 105
4 118 307 124 125
4 121 115 398 291
4 403 454 157 164
4 146 147 80 363
4 427 82 30 399
4 155 112 168 455
4 365 139 308 328
4 69 9 8 154
4 413 107 439 408
4 89 248 435 436
4 187 147 421 363
4 351 178 173 218
4 152 7 224 67
4 125 139 141 308
4 140 81 369 179
4 351 173 130 432
4 289 112 155 455
4 403 454 350 157
4 147 146 335 363
4 339 476 448 523
4 256 257 138 255
4 140 124 153 365
4 131 364 389 307
4 233 486 63 64
4 117 414 128 300
4 428 18 43 83
4 158 366 421 362
4 135 82 323 392
4 29 28 89 435
4 443 481 447 95
4 98 100 246 127
4 89 29 426 137
4 263 283 291 113
4 174 16 42 432
4 481 443 169 95
4 153 124 292 294
4 27 393 240 243
4 7 6 222 67
4 116 118 110 287
4 405 455 168 167
4 96 52 25 445
4 186 468 88 185
4 97 242 93 136
4 222 438 7 68
4 80 146 441 148
4 62 223 61 484
4 251 395 283 104
4 127 367 246 278
4 154 139 368 459
4 12 37 13 95
4 409 424 33 327
4 123 114 302 316
4 334 149 150 148
4 451 429 96 360
4 263 251 283 113
4 261 108 276 413
4 402 439 166 159
4 233 423 463 524
4 97 245 436 243
4 333 398 178 122
4 438 8 69 187
4 85 433 480 175
4 134 478 442 119
4 145 367 278 361
4 358 357 330 521
4 227 13 37 95
4 249 250 251 102
4 195 158 366 421
4 264 90 32 424
4 241 416 161 397
4 139 154 86 459
4 183 91 440 391
4 428 454 403 165
4 283 291 114 302
4 216 476 376 523
4 361 126 304 306
4 125 124 139 308
4 9 10 214 87
4 138 259 143 257
4 248 89 245 436
4 97 136 244 243
4 335 146 361 306
4 315 305 122 149
4 242 93 195 397
4 288 287 116 286
4 102 100 250 101
4 141 142 372 321
4 144 100 249 102
4 9 69 215 154
4 108 120 106 261
4 256 138 120 170
4 23 51 171 228
4 260 82 392 399
4 421 147 158 362
4 82 260 31 399
4 112 166 439 159
4 436 28 89 97
4 269 399 31 265
4 278 366 158 362
4 229 164 174 474
4 93 242 241 397
4 118 389 131 162
4 283 114 113 104
4 233 486 379 63
4 119 309 111 155
4 405 168 406 188
4 170 103 106 254
4 116 288 117 153
4 135 253 170 255
4 309 442 478 119
4 18 17 43 83
4 174 130 173 432
4 164 83 454 229
4 369 140 325 368
4 14 38 433 175
4 147 146 362 335
4 425 90 182 189
4 221 49 22 430
4 322 185 179 380
4 316 401 156 395
4 256 120 106 170
4 353 57 58 493
4 25 24 52 96
4 369 154 140 368
4 438 7 8 80
4 83 164 174 229
4 304 367 126 361
4 156 350 401 316
4 69 9 390 187
4 379 486 62 63
4 21 47 458 84
4 373 268 364 189
4 151 85 480 175
4 163 131 373 162
4 404 168 455 167
4 155 285 109 289
4 479 19 45 177
4 416 161 192 241
4 254 170 253 255
4 88 181 396 429
4 398 178 121 351
4 183 441 80 222
4 454 350 164 349
4 143 90 32 264
4 59 60 382 489
4 38 14 13 175
4 187 390 438 363
4 173 41 16 432
4 286 309 285 111
4 341 132 186 360
4 27 393 238 240
4 408 402 401 159
4 51 24 23 171
4 416 72 374 192
4 32 264 266 265
4 467 7 224 81
4 231 422 378 525
4 174 17 83 229
4 189 268 143 259
4 131 373 364 189
4 10 71 214 161
4 82 138 257 392
4 168 444 155 455
4 248 387 247 99
4 122 151 315 150
4 151 315 333 122
4 438 80 441 222
4 187 9 390 87
4 83 43 428 229
4 396 66 6 67
4 389 373 364 131
4 181 194 4 232
4 129 340 322 300
4 92 221 22 430
4 288 116 287 292
4 172 133 464 92
4 289 155 444 455
4 325 179 369 380
4 152 81 179 380
4 186 468 185 341
4 264 32 31 265
4 305 315 306 149
4 334 441 335 148
4 137 135 82 323
4 396 181 232 429
4 88 468 396 152
4 195 366 397 421
4 114 123 156 316
4 175 481 452 169
4 308 141 320 321
4 307 118 131 125
4 217 177 44 428
4 137 426 387 323
4 197 134 472 133
4 398 121 178 122
4 464 221 172 92
4 143 32 31 264
4 193 4 0 210
4 4 0 211 194
4 1 374 72 192
4 71 10 11 161
4 20 230 84 184
4 368 139 365 328
4 155 134 444 168
4 335 362 147 363
4 108 276 262 261
4 129 185 179 322
4 470 65 4 232
4 194 470 4 232
4 291 398 121 302
4 171 92 23 228
4 70 215 386 86
4 247 249 246 100
4 268 143 259 264
4 249 263 367 144
4 434 218 15 85
4 348 463 437 517
4 93 192 161 241
4 244 127 246 278
4 159 408 107 105
4 229 454 164 474
4 51 23 50 228
4 72 212 1 191
4 109 112 155 289
4 182 90 425 142
4 401 408 105 274
4 90 425 268 189
4 157 402 166 159
4 161 214 87 397
4 202 32 33 518
4 285 111 155 109
4 70 9 10 214
4 67 7 224 68
4 221 22 48 172
4 71 72 11 385
4 115 291 304 305
4 316 123 350 349
4 146 126 145 361
4 120 163 138 258
4 98 247 100 99
4 30 331 427 357
4 72 212 191 385
4 320 125 141 308
4 247 246 245 98
4 394 28 435 436
4 249 247 250 100
4 101 135 253 170
4 379 233 348 524
4 254 252 103 274
4 31 143 260 82
4 173 351 218 432
4 45 44 217 207
4 179 81 369 380
4 389 262 373 162
4 231 378 78 525
4 432 42 174 229
4 161 195 93 397
4 55 54 491 411
4 16 15 41 173
4 121 123 114 302
4 18 43 44 428
4 217 177 428 165
4 20 46 230 184
4 22 21 48 172
4 192 374 416 241
4 16 174 173 432
4 259 143 163 138
4 491 54 465 411
4 351 457 178 218
4 185 322 341 380
4 114 283 302 316
4 134 442 472 133
4 468 186 88 429
4 233 463 348 524
4 300 414 128 342
4 180 447 443 234
4 179 140 153 325
4 80 187 438 363
4 191 11 72 385
4 14 433 85 175
4 174 130 432 474
4 300 128 340 342
4 385 191 160 450
4 130 174 164 474
4 143 90 268 189
4 127 158 145 278
4 140 139 365 368
4 478 442 472 134
4 480 457 434 85
4 467 224 7 68
4 43 17 42 229
4 250 101 253 252
4 128 119 414 117
4 438 8 7 68
4 440 441 183 222
4 129 117 128 300
4 343 449 473 520
4 30 137 82 427
4 150 347 334 190
4 94 160 450 329
4 15 40 218 434
4 38 39 14 433
4 176 171 196 456
4 307 389 118 287
4 230 458 47 84
4 60 61 381 489
4 81 152 224 380
4 130 121 178 351
4 164 157 403 165
4 154 81 369 140
4 193 180 4 234
4 176 196 132 456
4 440 441 148 183
4 51 24 171 451
4 19 479 184 177
4 458 21 84 172
4 416 11 72 192
4 187 438 8 80
4 391 91 443 234
4 195 366 242 397
4 142 94 34 356
4 37 12 447 95
4 242 366 195 136
4 91 180 443 234
4 197 472 458 172
4 445 181 96 429
4 474 164 130 349
4 133 134 442 119
4 160 71 11 385
4 152 88 468 185
4 4 193 234 469
4 469 234 4 65
4 452 151 175 169
4 230 407 84 188
4 152 224 7 81
4 8 9 69 187
4 227 481 452 175
4 218 173 15 85
4 182 425 364 320
4 288 414 117 300
4 134 406 444 168
4 136 242 366 244
4 20 46 47 230
4 397 214 87 421
4 92 228 456 430
4 292 124 308 365
4 224 369 81 380
4 361 278 145 362
4 315 347 334 150
4 186 181 88 429
4 170 138 135 255
4 458 48 21 172
4 52 53 25 445
4 172 221 22 92
4 302 123 316 349
4 325 322 179 380
4 457 218 434 85
4 455 168 406 405
4 161 416 214 397
4 398 333 305 122
4 132 196 186 360
4 149 122 315 150
4 83 428 454 229
4 87 390 187 421
4 72 11 1 192
4 72 1 11 191
4 237 374 26 241
4 135 323 253 255
4 64 483 3 466
4 256 170 254 255
4 321 141 94 329
4 447 12 36 193
4 323 137 426 427
4 444 285 155 289
4 81 467 8 154
4 109 285 276 289
4 82 31 30 399
4 87 10 214 161
4 447 180 193 234
4 228 196 171 456
4 463 226 437 517
4 305 333 315 122
4 69 70 9 215
4 347 443 440 190
4 150 452 347 169
4 472 197 133 172
4 407 134 197 188
4 122 305 115 149
4 261 258 120 256
4 13 227 175 95
4 362 421 147 363
4 22 48 49 221
4 51 171 228 451
4 158 195 87 421
4 447 227 37 95
4 71 11 72 416
4 164 123 130 349
4 163 189 143 259
4 195 161 87 397
4 132 186 185 341
4 124 140 139 365
4 198 86 386 459
4 224 396 468 152
4 369 467 81 154
4 240 93 242 241
4 259 163 373 258
4 440 441 334 148
4 176 464 133 92
4 440 334 347 190
4 181 186 96 429
4 404 166 167 165
4 86 9 215 154
4 439 402 408 159
4 195 93 242 136
4 193 36 447 469
4 403 404 166 402
4 193 0 12 210
4 48 458 221 172
4 404 217 403 165
4 214 390 87 421
4 436 394 28 393
4 227 38 13 175
4 88 396 468 429
4 139 198 141 328
4 215 86 154 459
4 16 41 42 432
4 456 196 132 360
4 147 87 187 421
4 176 128 133 342
4 168 166 404 455
4 91 440 443 190
4 67 222 7 68
4 368 215 154 459
4 307 125 320 308
4 194 25 53 445
4 181 194 232 445
4 467 369 215 154
4 196 171 96 451
4 173 15 41 218
4 194 53 470 445
4 177 45 479 217
4 160 385 450 329
4 148 150 334 190
4 152 179 185 380
4 443 347 169 190
4 403 454 164 165
4 169 175 227 95
4 309 478 444 155
4 192 26 374 241
4 405 167 177 217
4 196 171 451 360
4 193 180 447 95
4 209 15 14 85
4 356 321 94 329
4 150 151 452 169
4 407 197 84 188
4 429 341 186 360
4 189 131 373 163
4 211 0 25 194
4 357 427 30 399
4 25 194 96 445
4 405 404 455 167
4 140 365 325 368
4 309 444 285 155
4 479 405 177 217
4 139 140 154 368
4 167 405 404 217
4 34 370 314 356
4 472 221 458 172
4 268 425 90 424
4 331 29 426 435
4 198 94 141 329
4 178 457 398 333
4 130 351 432 474
4 473 370 35 450
4 260 259 143 264
4 87 147 158 421
4 374 73 1 72
4 302 398 121 351
4 398 457 178 351
4 445 232 181 429
4 133 464 176 342
4 193 447 12 95
4 399 260 31 265
4 386 198 459 329
4 187 80 147 363
4 341 186 468 429
4 132 340 456 360
4 53 470 211 194
4 194 181 96 445
4 90 33 32 424
4 91 443 169 190
4 73 212 1 72
4 452 315 333 151
4 41 173 218 432
4 46 20 19 184
4 428 403 217 165
4 479 230 46 184
4 198 386 160 329
4 184 405 230 188
4 91 443 440 391
4 184 230 84 188
4 185 468 152 380
4 480 333 457 151
4 134 406 168 188
4 397 87 195 421
4 92 22 23 208
4 211 25 53 194
4 36 37 12 447
4 158 147 145 362
4 234 193 447 469
4 452 433 227 175
4 2 53 470 211
4 374 1 26 192
4 134 444 478 155
4 439 166 112 455
4 37 38 13 227
4 464 221 92 430
4 266 264 32 424
4 166 404 403 165
4 15 40 41 218
4 451 171 228 360
4 212 35 1 191
4 407 230 406 188
4 8 438 69 68
4 177 18 19 207
4 38 227 433 175
4 134 407 406 188
4 190 91 440 183
4 363 438 80 441
4 154 369 215 368
4 84 197 458 172
4 148 441 80 183
4 134 472 407 197
4 452 315 151 150
4 456 176 464 342
4 390 70 9 69
4 86 386 160 198
4 364 182 131 189
4 443 169 180 91
4 169 227 481 95
4 11 416 161 192
4 96 24 52 451
4 406 230 405 188
4 175 227 481 169
4 474 454 164 349
4 168 112 166 455
4 385 160 386 329
4 480 434 433 85
4 96 445 429 451
4 151 333 178 122
4 334 440 148 190
4 230 407 458 84
4 445 96 52 451
4 407 478 472 134
4 193 12 36 210
4 94 198 160 329
4 216 448 476 523
4 178 457 333 151
4 35 191 450 94
4 26 192 93 241
4 171 24 96 451
4 8 7 467 81
4 404 439 166 402
4 456 228 196 360
4 232 194 470 445
4 403 350 402 157
4 469 193 36 210
4 315 452 347 150
4 341 340 132 360
4 406 444 478 134
4 125 141 182 320
4 347 150 169 190
4 414 442 309 119
4 369 467 224 81
4 479 46 19 184
4 469 36 2 210
4 366 158 195 136
4 171 196 228 360
4 190 440 148 183
4 328 368 139 459
4 71 70 10 214
4 458 407 472 197
4 191 212 35 450
4 3 54 465 491
4 442 464 133 342
4 130 351 474 349
4 212 473 35 450
4 7 8 467 68
4 191 160 11 385
4 385 212 191 450
4 447 481 227 95
4 71 11 10 160
4 197 458 407 84
4 341 468 185 380
4 188 184 405 167
4 452 481 347 169
4 24 51 52 451
4 160 386 71 385
4 21 47 48 458
4 468 224 152 380
4 86 215 386 459
4 168 406 444 455
4 407 406 478 134
4 230 479 405 184
4 356 94 450 329
4 229 174 432 474
4 139 198 328 459
4 467 8 69 68
4 386 71 10 160
4 166 439 404 455
4 46 19 45 479
4 198 139 86 459
4 10 386 160 86
4 10 70 71 386
4 198 328 459 329
4 289 439 112 455
4 442 464 472 133
4 452 333 480 151
4 443 347 481 169
4 507 235 236 420
4 507 236 235 499
4 510 296 297 498
4 510 297 296 295
4 514 200 513 206
4 514 513 200 499
4 487 512 488 492
4 488 512 487 503
4 519 417 284 446
4 519 284 417 506
4 521 201 513 205
4 521 513 201 497
4 524 483 487 486
4 524 487 483 511
4 29 394 497 28
4 497 394 29 319
4 521 199 513 500
4 521 513 199 205
4 515 293 282 281
4 515 282 293 508
4 522 271 500 515
4 522 500 271 270
4 525 419 516 422
4 525 516 419 504
4 348 519 326 345
4 326 519 348 517
4 226 525 423 78
4 423 525 226 517
4 351 123 121 302
4 351 121 123 130
4 327 90 142 425
4 327 142 90 33
4 67 152 396 224
4 67 396 152 6
4 34 372 327 142
4 327 372 34 314
4 327 33 34 142
4 320 142 425 372
4 320 425 142 182
4 119 478 155 134
4 119 155 478 309
4 480 175 452 151
4 452 175 480 433
4 69 154 467 215
4 467 154 69 8
4 86 70 10 386
4 86 10 70 9
4 91 234 5 180
4 5 234 91 391
4 151 457 85 178
4 151 85 457 480
4 456 171 92 176
4 456 92 171 228
4 456 92 464 176
4 456 464 92 430
4 172 464 472 221
4 172 472 464 133
4 342 456 128 340
4 342 128 456 176
4 132 128 456 340
4 132 456 128 176
4 218 178 85 457
4 218 85 178 173
4 329 141 328 321
4 329 328 141 198
4 34 327 312 33
4 312 327 34 314

CELL_TYPES 2679
1
1
1
1
3
3
3
3
3
3
3
3
3
3
3
3
3
3
3
3
3
3
3
3
3
3
3
3
3
3
3
3
3
3
3
3
3
3
3
3
3
3
3
3
3
3
3
3
3
3
3
3
3
3
3
3
3
3
3
3
3
3
3
3
3
3
3
3
3
3
3
3
3
3
3
3
3
3
3
3
3
3
3
3
3
3
5
5
5
5
5
5
5
5
5
5
5
5
5
5
5
5
5
5
5
5
5
5
5
5
5
5
5
5
5
5
5
5
5
5
5
5
5
5
5
5
5
5
5
5
5
5
5
5
5
5
5
5
5
5
5
5
5
5
5
5
5
5
5
5
5
5
5
5
5
5
5
5
5
5
5
5
5
5
5
5
5
5
5
5
5
5
5
5
5
5
5
5
5
5
5
5
5
5
5
5
5
5
5
5
5
5
5
5
5
5
5
5
5
5
5
5
5
5
5
5
5
5
5
5
5
5
5
5
5
5
5
5
5
5
5
5
5
5
5
5
5
5
5
5
5
5
5
5
5
5
5
5
5
5
5
5
5
5
5
5
5
5
5
5
5
5
5
5
5
5
5
5
5
5
5
5
5
5
5
5
5
5
5
5
5
5
5
5
5
5
5
5
5
5
5
5
5
5
5
5
5
5
5
5
5
5
5
5
5
5
5
5
5
5
5
5
5
5
5
5
5
5
5
5
5
5
5
5
5
5
5
5
5
5
5
5
5
5
5
5
5
5
5
5
5
5
5
5
5
5
5
5
5
5
5
5
5
5
5
5
5
5
5
5
5
5
5
5
5
5
5
5
5
5
5
5
5
5
5
5
5
5
5
5
5
5
5
5
5
5
5
5
5
5
5
5
5
5
5
5
5
5
5
5
5
5
5
5
5
5
5
5
5
5
5
5
5
5
5
5
5
5
5
5
5
5
5
5
5
5
5
5
5
5
5
5
5
5
5
5
5
5
5
5
5
5
5
5
5
5
5
5
5
5
5
5
5
5
5
5
5
5
5
5
5
5
5
5
5
5
5
5
5
5
5
5
5
5
5
5
5
5
5
5
5
5
5
5
5
5
5
5
5
5
5
5
5
5
5
5
5
5
5
5
5
5
5
5
5
5
5
5
5
5
5
5
5
5
5
5
5
5
5
5
5
5
5
5
5
5
5
5
5
5
5
5
5
5
5
5
5
5
5
5
5
5
5
5
5
5
5
5
5
5
5
5
5
5
5
5
5
5
5
5
5
5
5
5
5
5
5
5
5
5
5
5
5
5
5
5
5
5
5
5
5
5
5
5
5
5
5
5
5
5
5
5
5
5
5
5
5
5
5
5
5
5
5
5
5
5
5
5
5
5
5
5
5
5
5
5
5
5
5
5
5
5
5
5
5
5
5
5
5
5
5
5
5
5
5
5
5
5
5
5
5
5
5
5
5
5
5
5
5
5
5
5
5
5
5
5
5
5
5
5
5
5
5
5
5
5
5
5
5
5
5
5
5
5
5
5
5
5
5
5
5
5
5
5
5
5
5
5
5
5
5
5
5
5
5
5
5
5
5
5
5
5
5
5
5
5
5
5
5
5
5
5
5
5
5
5
5
5
5
5
5
5
5
5
5
5
5
5
5
5
5
5
5
5
5
5
5
5
5
5
5
5
5
5
5
5
5
5
5
5
5
5
5
5
5
5
5
5
5
5
5
5
5
5
5
5
5
5
5
5
5
5
5
5
5
5
5
5
5
5
5
5
5
5
5
5
5
5
5
5
5
5
5
5
5
5
5
5
5
5
5
5
5
5
5
5
5
5
5
5
5
5
5
5
5
5
5
5
5
5
5
5
5
5
5
5
5
5
5
5
5
5
5
5
5
5
5
5
5
5
5
5
5
5
5
5
5
5
5
5
5
5
5
5
5
5
5
5
5
5
5
5
5
5
5
5
5
5
5
5
5
5
5
5
5
5
5
5
5
5
5
5
5
5
5
5
5
5
5
5
5
5
5
5
5
5
5
5
5
5
5
5
5
5
5
5
5
5
5
5
5
5
5
5
5
5
5
5
5
5
5
5
5
5
5
5
5
5
5
5
5
5
5
5
5
5
5
5
5
5
5
5
5
5
5
5
5
5
5
5
5
5
5
5
5
5
5
5
5
5
5
5
5
5
5
5
5
5
5
5
5
5
5
5
5
5
5
5
5
5
5
5
5
5
5
5
5
5
5
5
5
5
5
5
5
5
5
5
5
5
5
5
5
5
5
5
5
5
5
5
5
5
5
5
5
5
5
5
5
5
5
5
5
5
5
5
5
5
5
5
5
5
5
5
5
5
5
5
5
5
5
5
5
5
5
5
5
5
5
5
5
5
5
5
5
5
5
5
5
5
5
5
5
5
5
5
5
5
5
5
5
5
5
5
5
5
5
5
5
5
10
10
10
10
10
10
10
10
10
10
10
10
10
10
10
10
10
10
10
10
10
10
10
10
10
10
10
10
10
10
10
10
10
10
10
10
10
10
10
10
10
10
10
10
10
10
10
10
10
10
10
10
10
10
10
10
10
10
10
10
10
10
10
10
10
10
10
10
10
10
10
10
10
10
10
10
10
10
10
10
10
10
10
10
10
10
10
10
10
10
10
10
10
10
10
10
10
10
10
10
10
10
10
10
10
10
10
10
10
10
10
10
10
10
10
10
10
10
10
10
10
10
10
10
10
10
10
10
10
10
10
10
10
10
10
10
10
10
10
10
10
10
10
10
10
10
10
10
10
10
10
10
10
10
10
10
10
10
10
10
10
10
10
10
10
10
10
10
10
10
10
10
10
10
10
10
10
10
10
10
10
10
10
10
10
10
10
10
10
10
10
10
10
10
10
10
10
10
10
10
10
10
10
10
10
10
10
10
10
10
10
10
10
10
10
10
10
10
10
10
10
10
10
10
10
10
10
10
10
10
10
10
10
10
10
10
10
10
10
10
10
10
10
10
10
10
10
10
10
10
10
10
10
10
10
10
10
10
10
10
10
10
10
10
10
10
10
10
10
10
10
10
10
10
10
10
10
10
10
10
10
10
10
10
10
10
10
10
10
10
10
10
10
10
10
10
10
10
10
10
10
10
10
10
10
10
10
10
10
10
10
10
10
10
10
10
10
10
10
10
10
10
10
10
10
10
10
10
10
10
10
10
10
10
10
10
10
10
10
10
10
10
10
10
10
10
10
10
10
10
10
10
10
10
10
10
10
10
10
10
10
10
10
10
10
10
10
10
10
10
10
10
10
10
10
10
10
10
10
10
10
10
10
10
10
10
10
10
10
10
10
10
10
10
10
10
10
10
10
10
10
10
10
10
10
10
10
10
10
10
10
10
10
10
10
10
10
10
10
10
10
10
10
10
10
10
10
10
10
10
10
10
10
10
10
10
10
10
10
10
10
10
10
10
10
10
10
10
10
10
10
10
10
10
10
10
10
10
10
10
10
10
10
10
10
10
10
10
10
10
10
10
10
10
10
10
10
10
10
10
10
10
10
10
10
10
10
10
10
10
10
10
10
10
10
10
10
10
10
10
10
10
10
10
10
10
10
10
10
10
10
10
10
10
10
10
10
10
10
10
10
10
10
10
10
10
10
10
10
10
10
10
10
10
10
10
10
10
10
10
10
10
10
10
10
10
10
10
10
10
10
10
10
10
10
10
10
10
10
10
10
10
10
10
10
10
10
10
10
10
10
10
10
10
10
10
10
10
10
10
10
10
10
10
10
10
10
10
10
10
10
10
10
10
10
10
10
10
10
10
10
10
10
10
10
10
10
10
10
10
10
10
10
10
10
10
10
10
10
10
10
10
10
10
10
10
10
10
10
10
10
10
10
10
10
10
10
10
10
10
10
10
10
10
10
10
10
10
10
10
10
10
10
10
10
10
10
10
10
10
10
10
10
10
10
10
10
10
10
10
10
10
10
10
10
10
10
10
10
10
10
10
10
10
10
10
10
10
10
10
10
10
10
10
10
10
10
10
10
10
10
10
10
10
10
10
10
10
10
10
10
10
10
10
10
10
10
10
10
10
10
10
10
10
10
10
10
10
10
10
10
10
10
10
10
10
10
10
10
10
10
10
10
10
10
10
10
10
10
10
10
10
10
10
10
10
10
10
10
10
10
10
10
10
10
10
10
10
10
10
10
10
10
10
10
10
10
10
10
10
10
10
10
10
10
10
10
10
10
10
10
10
10
10
10
10
10
10
10
10
10
10
10
10
10
10
10
10
10
10
10
10
10
10
10
10
10
10
10
10
10
10
10
10
10
10
10
10
10
10
10
10
10
10
10
10
10
10
10
10
10
10
10
10
10
10
10
10
10
10
10
10
10
10
10
10
10
10
10
10
10
10
10
10
10
10
10
10
10
10
10
10
10
10
10
10
10
10
10
10
10
10
10
10
10
10
10
10
10
10
10
10
10
10
10
10
10
10
10
10
10
10
10
10
10
10
10
10
10
10
10
10
10
10
10
10
10
10
10
10
10
10
10
10
10
10
10
10
10
10
10
10
10
10
10
10
10
10
10
10
10
10
10
10
10
10
10
10
10
10
10
10
10
10
10
10
10
10
10
10
10
10
10
10
10
10
10
10
10
10
10
10
10
10
10
10
10
10
10
10
10
10
10
10
10
10
10
10
10
10
10
10
10
10
10
10
10
10
10
10
10
10
10
10
10
10
10
10
10
10
10
10
10
10
10
10
10
10
10
10
10
10
10
10
10
10
10
10
10
10
10
10
10
10
10
10
10
10
10
10
10
10
10
10
10
10
10
10
10
10
10
10
10
10
10
10
10
10
10
10
10
10
10
10
10
10
10
10
10
10
10
10
10
10
10
10
10
10
10
10
10
10
10
10
10
10
10
10
10
10
10
10
10
10
10
10
10
10
10
10
10
10
10
10
10
10
10
10
10
10
10
10
10
10
10
10
10
10
10
10
10
10
10
10
10
10
10
10
10
10
10
10
10
10
10
10
10
10
10
10
10
10
10
10
10
10
10
10
10
10
10
10
10
10
10
10
10
10
10
10
10
10
10
10
10
10
10
10
10
10
10
10
10
10
10
10
10
10
10
10
10
10
10
10
10
10
10
10
10
10
10
10
10
10
10
10
10
10
10
10
10
10
10
10
10
10
10
10
10
10
10
10
10
10
10
10
10
10
10
10
10
10
10
10
10
10
10
10
10
10
10
10
10
10
10
10
10
10
10
10
10
10
10
10
10
10
10
10
10
10
10
10
10
10
10
10
10
10
10
10
10
10
10
10
10
10
10
10
10
10
10
10
10
10
10
10
10
10
10
10
10
10
10
10
10
10
10
10
10
10
10
10
10
10
10
10
10
10
10
10
10
10
10
10
10
10
10
10
10
10
10
10
10
10
10
10
10
10
10
10
10
10
10
10
10
10
10
10
10
10
10
10
10
10
10
10
10
10
10
10
10
10
10
10
10
10
10
10
10
10
10
10
10
10
10
10
10
10
10
10
10
10
10
10
10
10
10
10
10
10
10
10
10
10
10
10
10
10
10
10
10
10
10
10
10
10
10
10
10
10
10
10
10
10
10
10
10
10
10
10
10
10
10
10
10
10
10
10
10
10
10
10
10
10
10
10
10
10
10
10
10
10
10
10
10
10
10
10
10
10
10
10
10
10
10
10
10
10
10
10
10
10
10
10
10
10
10
10
10
10
10
10
10
10
10
10
10
10
10
10
10
10
10
10
10
10
10
10
10
10
10
10
10
10
10
10
10
10
10
10
10
10
10
10
10
10
10
10
10
10
10
10
10
10
10
10
10
10
10
10
10
10
10
10
10
10
10
10
10
10
10
10
10
10
10
10
10
10
10
10
10
10
10
10
10
10
10
10
10
10
10
10
10
10
10
10
10
10
10
10
10
10
10
10
10
10
10
10
10
10
10
10
10
10
10
10
10
10
10
10
10
10
10
10
10
10
10
10
10
10
10
10
10
10
10
10
10
10
10
10
10
10
10
10
10
10
10
10
10
10
10
10
10
10
10
10
10
10
10
10
10
10
10
10
10
10
10
10
10
