# vtk DataFile Version 2.0
whisker_body, Created by Gmsh 4.13.1 
ASCII
DATASET UNSTRUCTURED_GRID
POINTS 524 double
9.5 0 0
7.611159036209155 0 24
12 0 0
6.490880522276705 0 70
9.230165576601308 0 3.428571428571429
8.960331153202615 0 6.857142857142858
8.690496729803924 0 10.28571428571428
8.420662306405232 0 13.71428571428572
8.150827883006539 0 17.14285714285715
7.880993459607848 0 20.57142857142857
8.678681847604707 3.863998109220104 0
6.356740760409149 7.059875842035249 0
2.935661446561997 9.03503690480396 0
-0.9930204010427108 9.447958005998597 0
-4.750000000000005 8.227241335952163 0
-7.685661446562003 5.583959896778492 0
-9.292402206971154 1.975161062768714 0
-9.292402206971154 -1.975161062768711 0
-7.685661446561999 -5.583959896778497 0
-4.749999999999989 -8.227241335952172 0
-0.9930204010426985 -9.447958005998597 0
2.935661446562007 -9.035036904803956 0
6.356740760409149 -7.059875842035249 0
8.678681847604709 -3.863998109220101 0
6.591457077600609 3.805579518104584 24
3.805579518104563 6.591457077600622 24
-2.995425334432484e-14 7.611159036209155 24
-3.805579518104614 6.591457077600591 24
-6.591457077600632 3.805579518104545 24
-7.611159036209155 -2.948820426675009e-14 24
-6.591457077600601 -3.805579518104599 24
-3.805579518104564 -6.591457077600621 24
1.21219871770089e-14 -7.611159036209155 24
3.805579518104584 -6.591457077600609 24
6.591457077600618 -3.805579518104569 24
11.34980690040761 3.896393630456207 0
9.469686112756717 7.370552552276022 0
6.563377897469113 10.04599773915035 0
2.945825845689581 11.63280319127197 0
-0.9909521456679979 11.95901391608004 0
-4.820345095835646 10.98927991986068 0
-8.127378859508902 8.82868692807757 0
-10.55368501447787 5.71136871644487 0
-11.83633564083267 1.975135083368787 0
-11.83633564083267 -1.975135083368821 0
-10.55368501447786 -5.711368716444897 0
-8.12737885950888 -8.828686928077589 0
-4.820345095835619 -10.9892799198607 0
-0.9909521456679715 -11.95901391608004 0
2.945825845689616 -11.63280319127196 0
6.563377897469155 -10.04599773915032 0
9.469686112756747 -7.370552552275983 0
11.34980690040762 -3.896393630456205 0
5.460476170550379 3.509234951570297 70
2.69640921655526 5.904312601086342 70
-0.9237486117790363 6.424812717636788 70
-4.250622782769287 4.905480191894958 70
-6.227954253695701 1.828692365693239 70
-6.227954253695695 -1.82869236569326 70
-4.250622782769273 -4.905480191894971 70
-0.9237486117790209 -6.42481271763679 70
2.696409216555272 -5.904312601086336 70
5.460476170550383 -3.509234951570289 70
11.69393780679315 0 3.888888888888888
11.3878756135863 0 7.777777777777777
11.08181342037945 0 11.66666666666667
10.7757512271726 0 15.55555555555555
10.46968903396575 0 19.44444444444444
10.1636268407589 0 23.33333333333333
9.857564647552053 0 27.22222222222222
9.551502454345203 0 31.11111111111111
9.245440261138352 0 35
8.939378067931504 0 38.88888888888889
8.633315874724653 0 42.77777777777777
8.327253681517803 0 46.66666666666666
8.021191488310954 0 50.55555555555556
7.715129295104104 0 54.44444444444444
7.409067101897254 0 58.33333333333333
7.103004908690405 0 62.22222222222221
6.796942715483555 0 66.11111111111111
7.868104638967292 -3.356717787146279 12.01731508598344
8.040437159195365 2.933243791722587 11.95945741709619
-2.03858678182905 -7.608109445424404 20.62859344101679
-5.467713193186055 5.667146206664714 20.65015729638496
-7.608109445424392 -2.038586781829092 20.62859344101679
-2.365212710228557 8.918105336540638 3.476158023138245
-6.176610047658145 -6.859820418148887 3.42052462364845
2.038586781829042 7.608109445424407 20.62859344101678
4.828348301828282 7.862762068394122 3.469864108184032
4.425330479675121 -8.101192582153955 3.416929768977113
-9.242760012898714 -0.1251788120758053 3.257773689212891
5.569522663595344 -5.569522663595326 20.62859344101679
7.466100767322277 2.926904710543961 18.81387187927017
8.610661705717474 -2.938478478907383 5.104719345660777
8.586208485460618 3.008300167352255 5.108423577176895
2.038586781829075 -7.608109445424398 20.62859344101679
1.296342074980815e-14 -8.139478745466677 17.28706160801763
-3.774719870996869 -7.224884312883026 17.13391867784165
-1.910333737541983 -8.188881372680116 13.86558807302942
-5.418422695909308 -6.452653063346748 13.6475495839212
2.00401203221159 -8.161721830385218 13.92407160076718
0.09970709791021441 -8.666415301095343 10.58441025576779
3.851738686420116 -7.766231459258755 10.55982278241272
5.404576319888985 -6.450649977908038 13.78011300036928
2.103536160910583 -8.683900878057891 7.178455449408253
-1.631559939418544 -8.789477425402934 7.120235139016266
-6.747946056541817 -4.612996490164297 16.84824358680064
-7.730142076416992 -3.425787959648223 13.27490725383657
-6.796862112653251 -5.437935126965506 10.10767436377986
-8.489578511130425 -2.06735757641922 9.686296614176253
-8.479391500432543 0.5134342854948181 12.77073043581369
-8.558242661382961 1.974009250757608 9.110970166717623
-7.47482771735412 4.148957522841174 12.08248828115315
-6.961159440283303 5.446651310805205 8.401798408698991
-4.830077822132888 7.126146768804063 11.32363527640673
-7.73256460839254 2.892681574333755 15.8075759211917
-8.032255503478179 -3.994778505377715 6.724030673209593
-3.977200988920454 7.966234260183168 7.574467761960523
-1.354061446802022 8.577259557305071 10.3748417541433
-2.506220637709798 8.00683930388394 14.10500982891465
1.225106374750276 8.377129494917037 13.13519287258818
2.392520183081471 8.427020777776299 9.401698001420188
4.660788416294115 7.176736213904497 11.97731656646623
5.212164182969129 7.153676031388824 8.245224914661652
3.956982755203336 7.272969148569706 15.50510489318411
-6.538702885864883 6.432416396655029 4.164149637084172
4.994843772419231 -7.421020917356368 7.046978610519518
-5.530608155906608 -5.611389538044999 20.59943645510304
0.8257818748125259 -9.184084678020888 3.543318271215998
-0.2640483554374094 8.986859374284156 6.470792067902053
4.064631543315167 -7.040148347068936 17.41686386070749
6.432682892235196 -5.03970722066964 16.87658107171885
-1.863343390483047 7.65756354858584 20.57121077066972
0.1426717391955521 8.137853270942838 17.29182541608533
5.422708943143447 5.717105151457942 20.58674162286158
-7.594629292984767 2.169704723819009 20.34921979365882
-8.594125574991818 2.888676690799052 5.506720677391856
8.340827462518146 2.893357323321621 8.533290788428308
8.343426868673555 -2.862294057548595 8.630784191250365
-3.893256455251501 7.130628099108003 17.48066685084223
-3.584183514239245 -7.901735971618556 10.46198491569862
-8.121536531768998 -0.9055491981480512 16.87555724169395
7.770583962985948 2.885218289642318 15.38802736821537
6.497099525327712 -5.794018049018272 10.0971105547454
-5.256850548297288 -7.231472791921525 7.111867208067785
-2.861058070154593 -8.786805202125088 3.292613431841526
7.33757259398775 -5.633109043975073 3.170102739951267
7.337572593997621 5.63310904396108 3.170102739960076
1.347770314837666 9.134865125792377 3.382953649441765
-8.536144943303913 -3.562413584138414 3.18063026417121
-5.701036575813005 6.10357364955459 14.58708410093911
7.512300906958625 -2.696089239428932 19.29499287349635
6.045345202494318 5.48645503188664 16.97821987672356
6.58483550242442 5.258821129659215 13.63305711068467
-8.938267394088156 -0.7966113326819905 6.687330821277942
2.554244128026133 8.639628220709488 6.235038770236657
7.29972901676433 5.271164873027905 6.30283719586748
6.903430303042313 5.268919134922937 10.36314002600839
7.698319024355825 -3.171061219652517 14.91901559622598
-6.134759407013638 5.304998150813113 17.6567847750249
7.462690618066135 -4.97020038925475 6.781225312175228
-8.507011633266005 3.787565605383445 2.387704817797827
7.298816777911648 2.780547290062636 21.46692195361509
3.908332151356264 7.026097703335661 18.55144678498037
8.958759386895 -2.532232410052635 2.417269693299346
8.956840249234794 2.543691674438939 2.401040386843977
7.306527329399894 -2.663355976408783 21.89517806543695
-1.061614998744693 -4.179582394540773 24
1.286741727123485 4.158814638282074 24
3.635629191669822 -1.366647372750836 24
-4.349951301373932 0.7832926121341375 24
-1.997850389586037 3.235337630045195 24
3.805579518104572 2.197152359200206 24
1.075703006265272 0.8559733705444117 24
-1.54440851575508 -0.8916646723099511 24
-4.160695074631336 -2.447498508403639 24
0.7245319473792993 -2.112990197550681 24
2.282597122668274 -4.277902599459437 24
-10.56436892390191 -7.938094626069869e-15 0
0.9743786863852381 -10.51870300453864 0
0.9743786863852173 10.51870300453864 0
8.466875056264714 -3.317303643854778 36.93007096033316
7.821845623372724 3.279344685476489 44.70713471457508
9.120245910289237 3.327061996254799 29.12068223207024
9.438050282588245 -3.346942070676019 25.23539915122393
7.480602335079111 -3.305867378120807 48.55652201355586
-11.73088669374762 -1.940162152660215e-14 3.419408766471569
-2.879762434608169 11.37192468062311 3.419408766471415
6.812365077327485 3.293518903324991 56.32988361258961
-2.879762434608137 -11.37192468062312 3.419408766471416
10.03700683094855 3.489405754362892 17.45498758261763
-5.574956286394031 -3.78668395756391 66.84263711464807
10.40992648181423 -3.337958848351206 13.57027627075233
6.474699525225045 -3.286119309726038 60.21628526319177
8.493391781973815 3.256056274121223 36.89714897511699
-2.669043431082613 6.204494043296981 66.65390636929733
10.73011947691677 3.340138153048984 9.682499500092435
7.94511337650492 -8.630693833987381 3.419408766471505
-9.382025185936769 7.057263868497892 3.303737750555006
-9.257317901175359 -7.205259738421862 3.419408766471709
4.803466868453009 10.70734651965919 3.361547323836406
0.8577132096463104 -6.682361437659472 66.87043825172104
6.165289275614898 3.237167037505388 63.99506470565762
10.0733686959848 6.038330996047115 3.245938804936132
11.04956328535986 -3.342145186211126 5.794663767161262
8.783016539913215 -3.341931786525523 33.07000617794214
9.102545075636485 -3.36149058570941 29.18108665520185
7.611208606427684 -6.286816455844814 27.03997905948282
6.879424192480172 -6.190743779632303 34.88075559725996
7.996199202246782 -6.298655526033382 23.13786019255063
5.281824749839164 -8.542778425125565 24.85662570503997
5.715010904353043 -8.628689103281204 20.96945776769745
2.409586204936747 -9.933761573534991 22.59384420289131
1.920495161629743 -9.728975348874648 26.47062868389184
-1.18705066350801 -10.03173334255851 24.11992415358298
-1.680801449017463 -9.653258574303541 27.97277951559827
-0.6925830340437528 -10.38256099518798 20.25832547381912
-4.190155940420174 -9.400636965553099 21.69965563168639
-3.73710915203073 -9.914209315274325 17.85011526381134
-6.836928219271687 -7.953519307498699 19.20941137450332
-7.163188422986155 -7.242617663427911 23.04145696361544
-9.094766823697393 -5.021698265322373 20.46913564924288
-9.198936850700129 -4.144677891714113 24.27471063609224
-10.1983058705171 -1.432579864348417 21.62045531784573
-9.988918505929044 -0.4896264159887282 25.4008302350095
-9.953976520863005 2.29904561020787 22.66749407374319
-9.370421203342785 3.260279045484106 26.41109473820383
-8.362684729243853 5.738935338405114 23.602045614405
-7.416985122323608 6.481958297194446 27.31514646972684
-8.697482598686259 4.127351002550752 30.1504374406179
-5.604963761738087 8.375388923071117 24.4234219662696
-6.768892353947395 7.853739082201203 20.73426060698601
-10.42163906876213 1.375253179197525 18.90699087890821
-4.352737005181482 8.767586217033022 28.09837293801879
-0.1940645672767377 -10.70827308020493 16.39060464395387
-3.380367475072507 9.739790671049214 21.47699437942988
-4.746185202931127 9.47616445617888 17.81028484621179
-8.948883763619577 -5.846906895348472 16.64944240521958
-1.030811940127664 10.49493445467649 18.48198676062395
0.3999990738681296 10.25188510562783 22.1127917731506
6.524741635784824 -6.121799447744249 38.79213331655823
4.013253670520448 -8.183233931553442 36.66555745460211
3.626380678060273 -8.028800211265423 40.53555529642336
0.5839185476495607 -8.965834366296278 38.31138386247529
0.16592746797796 -8.680863953800111 42.15347471292453
-2.931469100343624 -8.365944143841229 39.83803144901826
-3.303128537434968 -7.902064048410841 43.6502272549517
-5.931799797645593 -6.437300243455574 41.24973491671117
-6.186017647391353 -5.765925596659877 45.02419602434285
-7.949483379014878 -3.416439305225011 42.53358915225726
-7.943272704022186 -2.600661336460589 46.27382627747377
-6.40977109274399 -5.052402148289077 48.77132627770006
-7.873439916110575 -1.751455692707246 49.98755066844598
-6.597768110249835 -4.288812486796822 52.48667108385916
-7.724958955028463 -0.8877994639890856 53.67345763571592
-7.757731322818455 1.869402192543134 51.08160227394211
-8.559578714907422 0.1583766228244368 43.69608156644909
-7.200427618891021 2.70775151231188 54.72906992214008
-9.240323277004277 -3.236715650132309 28.07045807169184
-6.004337603949486 5.141706235407195 52.0317572436125
-5.037971526982362 5.71782777826552 55.64457992072981
-2.445260017261438 10.55295269000095 14.83387776414825
-5.986422579920178 9.104205850611732 14.02706493601312
1.421496310008516 10.6911064579814 15.43557408200571
-6.726889040193566 -3.490113008366289 56.18194062413263
-4.453879298614579 -6.254898150689501 54.90868107888703
-6.524785198445621 3.505484259572304 58.36166308702482
-8.82400695973217 -0.7234803475373855 39.97859471656018
-8.270160497573533 2.916702553300301 41.04842444136457
-3.273520826866245 -10.39564361123653 13.99119638399828
0.2700458071978424 -11.01216895418948 12.50951834863085
-3.0130268932219 7.238072197944637 52.85585052400354
-4.149549264539813 6.984464447278832 49.24758644517435
-5.651055626330085 -7.070981955522493 37.46174369884489
-0.6264714945194176 8.041796925550184 49.98415503201991
-1.85577853528329 8.140475489097142 46.38620327463484
-0.2669679679360508 -8.378313243100825 45.96386312384355
-4.888446811382968 -5.552369200194782 58.47798017814646
0.3532218965599711 11.06953840318764 11.75104740972185
3.981100075486588 10.28527693252936 12.33931559504497
-1.674656003803791 -7.306404421835689 57.23043925661555
-3.992296108751729 6.15707705687405 59.2347835804846
3.359566171586512 -10.29875495291452 14.82981267088496
3.856416544674046 -10.4496486867981 10.94586836000549
-1.251461133985157 -7.689221110434023 53.48808504814667
1.808490967181123 -7.396955957106456 55.71890029343883
0.8718752447927359 -7.229810718077919 59.94542638282474
5.182500280957757 9.414683270802074 15.92290736990793
0.7123522021353557 7.752406627363178 53.55581308732967
3.150223455941388 7.374887070809625 50.57666224378047
-8.811537252471703 2.123887175748672 37.30682631469922
-7.17568509163279 5.405096354127452 38.32667478146795
2.294953036756585 -7.573450259728133 51.92352349153532
0.9967277334963729 -9.240240745540627 34.38498659807885
-5.726572673195713 4.236976128053159 61.96060425997709
-7.142148117748572 0.9119647111903664 60.98805384994781
-9.01725630016662 -1.568090703824457 36.17983278334392
-2.789031365303805 -10.84785054923587 10.15670641624724
-6.107836893703733 -9.260252000739595 11.52264369113248
7.04206774211759 8.436016107266324 12.84657144576828
8.361953471896747 -6.324833879358084 19.25561750379901
6.141003089616699 -6.082498890086144 42.64939093063388
-7.616431773357383 3.725898754516504 44.73936097604273
6.571303131013839 -8.773705036042726 13.19223918566893
4.960562803853538 -5.946789981695672 54.07600070369083
6.173850162223294 9.432579221961729 9.232086574512266
6.967275680860364 -8.848547849561461 9.373182112679208
4.324088995829404 -10.59684331165163 7.050384467628602
-5.32629398109382 -10.09809375600673 7.411603685517881
-8.487113833558158 -7.447670545367519 9.001825314186243
-6.603680995283898 2.079705553531051 64.50403420883336
-8.00396691955042 4.685147587545578 34.63230631587648
-5.437797367437262 7.425253119407957 35.53316948421423
-4.242590290514674 7.84133388241167 39.19232472357455
-1.832329848693629 8.960224869010949 36.26785236312864
-0.5765241697742967 8.837682233109339 39.9423741442335
1.849872620928992 8.899667457739303 36.97644692296723
0.5132927054831183 9.359801770711686 33.36819979117228
3.144012924083054 8.227298092336509 40.56369669567716
4.209002883111371 8.324657092983408 33.94822958179966
2.963286359148862 9.142563640534984 30.35762513792001
6.128278957827192 7.35831524366794 30.79928948703606
5.234329741745697 8.346369408941031 27.29409744357603
1.642611579644337 9.758102940890689 26.74160390974326
4.690319260378703 6.172042667087516 53.97620239545471
1.816719329558488 7.284593019800094 57.07990981219875
5.72914804898042 5.572768150507532 50.92104869587019
5.143087054328494 6.478202243603991 47.37451867007073
-2.829951043004895 6.466735315059812 62.78333083711854
-6.504471784522259 -2.597048311147125 63.4831041329227
1.422008314042538 -9.506309319455882 30.34143835478791
-2.166849368902052 -9.245992881653184 31.80991110156835
-5.031957342435733 -8.279001356309045 29.37339168566592
-5.365257980226898 -7.70178943940549 33.20958050931493
4.429476495266452 -8.324599268520084 32.65877628242423
8.125325701045401 6.98704524894902 16.31057953088996
6.301541693150611 8.356252718862432 19.49178473807643
4.043262182353629 9.293158212820341 23.70175218693822
7.212891193941352 7.065418157808556 24.18209467915849
8.850299723967813 5.392296334569219 20.79215143863551
9.919058884846141 4.581102421970722 13.64835217593424
6.538351839751178 3.157919130098961 60.2143743734327
4.414042537792629 5.585686402006251 62.01585914606407
4.138144047131052 5.387543977737858 66.15651582754822
-6.504940564237036 6.913775306379268 31.85613392084015
-9.325715485402791 1.240524415447229 32.93623428956081
-9.15332283630871 -2.363321732376898 32.35638644475308
-3.070134746753145 8.979865209976122 31.89015949704764
6.134253390665793 -3.277701462516695 64.10246807720824
4.44719752229916 -5.565774223815565 61.95185821582874
6.82538332782253 -3.2519847213036 56.40911025808903
0.4176052334049462 8.562760794165827 43.54495097298076
7.821444899016248 -3.273718557035624 44.73945163011107
3.184088801977888 -7.890276808492747 44.36347686853152
8.142665004172354 3.313992304868755 40.77142338138828
6.547933426142781 6.096020851535626 38.8004980519441
6.155496170381803 6.073937672719762 42.59490973459093
-3.689230240654186 -7.398443506352544 47.42911376049624
6.15802055071512 -8.6944786364728 17.09810324606251
8.921447666163926 2.944408273072196 33.10254168374649
-4.108975473238598 -6.832143239887355 51.17335947585379
-4.619375434080507 -8.857677728035263 25.54138946221508
-7.462857536274309 -6.483881681916386 26.85965193574242
-2.607334092586317 -8.790597126218785 35.96972192612201
-8.203927934533366 1.042116927809323 47.39603252381643
9.247461764425282 3.904838759672106 24.92838964392626
9.75344337363439 -3.367431168270402 21.36683284516031
10.73468677120717 -3.311697602165599 9.734035763886601
-6.500366499448212 -8.612041653459011 15.37572885779522
2.889041135896055 -10.12245141507147 18.72055330083293
2.833146186211836 10.11175380456694 19.04461571856078
-8.74431267117455 -6.657887155782566 12.82727483797651
-10.37237892751235 -4.214491011424522 10.2170579281733
-10.37781901318575 -3.313463817809461 14.05368413716731
-11.09224401634598 -0.5281919354752714 11.37443371929357
-11.37170102718439 -1.215045413448999 7.160842211853261
-11.02983072490431 2.536031033063219 8.670405674103415
-10.52066214416165 3.2872057517311 12.42345793708573
-9.504115593280458 6.021190149488303 9.518108863245052
0.8252769637312293 -11.28606138200553 8.688569525632996
0.7848632333440275 -11.59047350051871 4.866259159953717
-1.952397023604314 9.824102776850573 25.20619658915475
-7.674083670655969 -5.746147455228996 30.66060100535306
-0.7635266782988751 -8.04971929375388 49.73400425251636
-10.31402186915431 -2.417858921476624 17.86956979882953
-1.76526860976431 7.349442795678797 56.43497781274708
-7.865700756874627 -4.254277229452324 38.84935106821453
8.888669159815022 6.889866059547402 9.576988471894648
7.598264685449993 8.659714673215957 6.091321412623381
-7.819073636765159 7.246575549565313 17.01727385410431
-9.179758099299143 4.968726543686459 19.84443918350664
-6.254500785779039 6.039675334628694 41.99880484590953
-6.86874790249245 4.462419513300877 48.3976199776958
-10.79875499509293 0.4451680705998393 15.14672476364212
-2.757296387398454 -6.150354169781544 66.83280849978328
-1.40981398143522 -6.844909175707916 63.67603156902661
-4.51263561196046 -5.344032126485172 63.60133535803456
2.786435695843301 -7.721164766030288 48.17469527574249
-0.4869282342827714 7.264104205531265 59.96812982651458
0.5734210783601776 6.986153691290252 63.40844323786779
4.828132673870972 -8.45227473945911 28.79156980743505
-5.250202460358345 6.568435297274084 45.62972862405349
4.067720770705645 -5.383748686241623 66.73713159224978
-9.69039694022605 0.5232964893039823 29.16688883426026
-9.90014177988796 4.128969747554309 16.17934024860643
-6.808150394030012 -2.628073453248758 59.74729261195825
10.09252368562489 -3.324594675111756 17.45827263483055
8.744830728172122 -6.317778224131924 15.3967152685927
7.233294554197166 -6.258093556905324 30.94288969039014
5.790781333427548 -6.007950123301589 46.44910522655942
5.379797744762369 -5.97820693051614 50.28529846129835
7.164353290877433 -3.258929034060714 52.46720006279107
-3.135912086685135 8.041161770785962 42.80715499874128
-7.491900214314756 0.04688785162112238 57.27897457169704
-10.0072221291596 -5.645734465604736 6.480876363608078
9.084837723470475 -6.368551425055673 11.50272350783508
2.466884230776387 11.03791357504761 8.764498569627772
-1.403601177759911 11.27218108493036 8.141723217441534
1.092117035349939 11.54576331278141 5.11678711138226
-5.227120997012489 10.21083001378087 6.721580927627318
-3.928673905297156 10.44470850495288 10.68413426574669
9.090447959937713 -6.936171812195589 7.185951463137304
8.143344116689928 -3.301198668477189 40.8246041429809
1.802901397462049 8.089641165460373 47.16404942737201
-7.823264141492491 -4.915258215384834 35.07900913337932
-8.697306640392457 6.65384534602121 13.33321807692324
4.611957054041111 -5.8347969202411 57.97325779731037
-6.466113141939438 -9.789586727145592 3.401578715089108
-11.12227758724472 3.756462704870675 3.309852400191942
4.644756120182949 -10.77729677694288 3.359749051448041
-6.57100561731606 9.732884422269489 3.260568785415332
6.809758881506762 6.306345444293048 34.54416770445578
7.403281567692047 3.503943709466165 48.40280601839268
-11.11909868108967 -3.817191398723795 3.099357613423453
10.23150102214261 -5.772003778762268 3.210542373291887
11.0729416002626 3.182971904762964 6.081913120420572
0.5699835773061835 6.707696793888954 66.93793471373338
-5.446952315000612 3.956410219756108 66.9337882386955
-7.313116703378713 8.577565378471792 9.251064076341287
-0.8034223819367812 9.671463274807452 29.16357807964226
-2.895866219490761 -6.627647927778628 60.57445767584074
-6.707380564607688 -0.5057370651379259 67.00718906052731
4.886118269318272 5.591514634946426 58.12356043109436
7.801780303757355 5.99652661993244 27.44507462506
-2.046781421975172 -11.28116262194169 6.793542104063559
-10.1583460049319 5.408252656400713 6.247518612124317
3.474872106418678 7.769276531865849 44.33249101221788
7.982559235111276 8.671370879822698 2.716902208035781
7.103386629932726 3.272409118785554 53.1002676896098
-8.217646824186762 8.064633317833424 6.177514269052953
10.01025931840027 2.503457869424959 21.36477479460787
2.019629597301666 -6.662208873433268 64.01889063358031
6.122035329935732 2.785690997437425 67.01222632414377
4.638032905930259 10.50395766711042 6.577303592493303
-7.925285709536694 -8.365549493725489 6.053668744804655
9.753758506043663 6.060807044244517 6.563631756501612
6.143488771398524 -2.697195314817779 67.2222456573288
6.916106567908233 -9.196662437009357 6.264114192712495
4.697649565725202 7.787232329298109 36.91859840342177
11.43332361483514 -2.819177334261091 2.849171293455402
11.4365020934874 2.807602787303394 2.845090617668934
-4.670060726907787 5.116613254190411 64.45319368022633
-11.38960576986744 1.929988702732916 5.69278009887033
2.39221814077991 6.874907059067922 59.98318768514888
0.963588313764796 11.78835739083141 2.189609350286359
-5.325384635831397 -4.838754907331538 61.04868209413014
0.9858281538080402 -11.80112242815202 2.004692073361632
8.070718363939209 5.110009004266457 31.09947980494178
2.036762255503579 -2.465878735148001 70
-2.931242834104605 1.814244488222067 70
2.220444710834426 2.562529799245061 70
-0.6831995369230197 -3.496268133505534 70
-0.02234530465756696 0.03719856234068248 70
-3.39055316097431 -1.091717545806296 70
3.607782420842984 0.02230827107295836 70
-0.5196398350093629 3.614174438789244 70
0.1202343586577674 -0.5362633003073416 32.73974008762315
-0.01310419542226438 -0.00540522142838995 42.4472108471762
0.004421834945063985 0.00675926987555453 50.90016055483754
-0.02452345960510982 0.001321015852007612 58.28511518494219
1.144656090550804 0.005119792134119727 64.14238371336975
-1.962559237540363 2.592331210854941 37.40920897124432
3.269276171918708 -0.7392893126583712 37.66326310135034
2.095102374323864 3.646632520289872 29.54158358803594
-1.231678943221246 -4.484247036563379 29.35917308342478
-1.734670337064289 2.962863609382222 46.97509595500705
-2.343799725721707 -2.307637337786098 46.73656350156276
-4.223251435801794 0.1174654169554936 29.44735353781973
-1.833944354245461 -2.992772372536118 37.36131625531157
3.771647857510017 -2.473695004787693 29.27621316461594
2.794160337780851 -1.832772693346168 46.96208113826513
2.133305952709034 3.734097368435523 34.62381343996896
-1.238209688895635 2.896587937148807 54.58995416880452
-2.478110621925807 -1.869993012334603 54.58158428993015
2.972038804965462 0.6203883747791098 54.60478003258294
-2.210489825409243 3.864609566595224 32.11220888853165
-4.502737310995526 -0.2339334350571214 34.32246246047247
-1.569788370703006 -2.502207306135543 61.64051835877832
2.549418026853707 -4.295665538458111 34.34883255659045
4.835892567375117 0.07608690487198398 33.17028124492092
-2.023687682343293 1.872817959165616 61.72828453311251
-4.524652808374924 0.2175179310637931 41.42229980536795
0.2962499854226937 -4.467324158118213 43.77551517527403
2.177175439685088 3.495033981557976 39.83870259872308
0.110682946485068 -0.535133552686792 27.99269954033604
1.415378394599375 -3.455911995425364 53.24251326893322
4.080112073071874 -2.018107314691536 42.45225167373788
2.677293143676379 3.061067754794525 45.02405571485953
4.005224825214814 1.620327442770343 50.51976118245433
-4.086894130261612 0.1856604248808866 49.72094217918369
-1.90250403552159 -2.265576307839764 65.74423279013511
0.5196611999351266 4.154360732340145 51.01108950788537
-2.020875055593748 3.88766152963801 41.66558830018004
3.311993794576755 -0.6398614998826391 60.664849498233
1.638193307353941 -4.266861204752747 39.64561575490449
-1.644682731683099 -5.240346403869054 33.63174384854049
-1.560753536037562 -3.730838806647062 50.47327115978511
-2.047774968372746 1.840817814050948 65.98028891452793
5.426991174071975 1.33276388243948 27.95089921660459
1.599946158193208 2.973288195870271 60.42350574390545
-3.663659640134198 1.057925830233871 57.12711762638303
-3.568897414040614 -3.499800956090186 42.84188089132664
0.07930024594098062 -3.749188270449187 56.97410047191172
-4.696878176086964 0.6994532044795752 45.42652782298391

CELLS 2646 12106
1 0
1 1
1 2
1 3
2 0 4
2 4 5
2 5 6
2 6 7
2 7 8
2 8 9
2 9 1
2 0 10
2 10 11
2 11 12
2 12 13
2 13 14
2 14 15
2 15 16
2 16 17
2 17 18
2 18 19
2 19 20
2 20 21
2 21 22
2 22 23
2 23 0
2 1 24
2 24 25
2 25 26
2 26 27
2 27 28
2 28 29
2 29 30
2 30 31
2 31 32
2 32 33
2 33 34
2 34 1
2 2 35
2 35 36
2 36 37
2 37 38
2 38 39
2 39 40
2 40 41
2 41 42
2 42 43
2 43 44
2 44 45
2 45 46
2 46 47
2 47 48
2 48 49
2 49 50
2 50 51
2 51 52
2 52 2
2 3 53
2 53 54
2 54 55
2 55 56
2 56 57
2 57 58
2 58 59
2 59 60
2 60 61
2 61 62
2 62 3
2 2 63
2 63 64
2 64 65
2 65 66
2 66 67
2 67 68
2 68 69
2 69 70
2 70 71
2 71 72
2 72 73
2 73 74
2 74 75
2 75 76
2 76 77
2 77 78
2 78 79
2 79 3
3 4 164 0
3 0 165 4
3 10 165 0
3 0 164 23
3 9 162 1
3 1 166 9
3 1 162 24
3 34 166 1
3 5 93 4
3 4 94 5
3 93 164 4
3 4 165 94
3 5 137 6
3 6 138 5
3 5 138 93
3 94 137 5
3 7 80 6
3 6 81 7
3 80 138 6
3 6 137 81
3 7 142 8
3 8 158 7
3 7 158 80
3 81 142 7
3 8 92 9
3 9 151 8
3 8 142 92
3 151 158 8
3 92 162 9
3 9 166 151
3 11 147 10
3 147 165 10
3 12 88 11
3 88 147 11
3 13 148 12
3 12 148 88
3 14 85 13
3 85 148 13
3 15 125 14
3 14 125 85
3 16 161 15
3 15 161 125
3 17 90 16
3 90 161 16
3 18 149 17
3 17 149 90
3 19 86 18
3 86 149 18
3 20 145 19
3 19 145 86
3 21 128 20
3 128 145 20
3 22 89 21
3 89 128 21
3 23 146 22
3 22 146 89
3 23 164 146
3 24 134 25
3 24 162 134
3 25 87 26
3 25 134 87
3 26 132 27
3 87 132 26
3 27 83 28
3 27 132 83
3 28 135 29
3 83 135 28
3 29 84 30
3 29 135 84
3 30 127 31
3 84 127 30
3 31 82 32
3 31 127 82
3 32 95 33
3 82 95 32
3 33 91 34
3 33 95 91
3 91 166 34
3 103 143 80
3 80 158 103
3 80 143 138
3 137 157 81
3 81 153 142
3 81 157 153
3 82 96 95
3 82 97 96
3 82 127 97
3 132 139 83
3 83 159 135
3 139 159 83
3 106 127 84
3 84 141 106
3 135 141 84
3 85 125 117
3 117 129 85
3 129 148 85
3 86 144 116
3 116 149 86
3 86 145 144
3 87 133 132
3 87 163 133
3 134 163 87
3 88 155 123
3 123 156 88
3 88 156 147
3 148 155 88
3 89 126 104
3 104 128 89
3 89 146 126
3 90 154 136
3 136 161 90
3 149 154 90
3 95 130 91
3 130 131 91
3 131 151 91
3 151 166 91
3 92 152 134
3 134 162 92
3 142 152 92
3 138 160 93
3 93 160 146
3 146 164 93
3 94 156 137
3 147 156 94
3 94 165 147
3 96 130 95
3 97 98 96
3 98 100 96
3 100 130 96
3 97 99 98
3 97 106 99
3 97 127 106
3 99 140 98
3 98 101 100
3 98 140 101
3 106 107 99
3 107 108 99
3 108 140 99
3 101 102 100
3 102 103 100
3 103 130 100
3 101 104 102
3 101 105 104
3 101 140 105
3 102 143 103
3 104 126 102
3 126 143 102
3 103 131 130
3 103 158 131
3 105 128 104
3 105 145 128
3 140 144 105
3 144 145 105
3 106 141 107
3 107 109 108
3 107 110 109
3 107 141 110
3 109 116 108
3 116 144 108
3 108 144 140
3 110 111 109
3 111 154 109
3 109 154 116
3 110 112 111
3 110 115 112
3 110 141 115
3 112 113 111
3 113 136 111
3 136 154 111
3 112 114 113
3 112 150 114
3 115 150 112
3 114 117 113
3 117 125 113
3 125 136 113
3 114 118 117
3 114 119 118
3 114 150 119
3 115 141 135
3 135 159 115
3 115 159 150
3 116 154 149
3 118 129 117
3 119 120 118
3 120 121 118
3 121 129 118
3 119 133 120
3 119 139 133
3 119 150 139
3 120 122 121
3 120 124 122
3 120 133 124
3 122 123 121
3 123 155 121
3 121 155 129
3 122 157 123
3 124 153 122
3 153 157 122
3 123 157 156
3 133 163 124
3 152 153 124
3 124 163 152
3 125 161 136
3 126 160 143
3 146 160 126
3 129 155 148
3 131 158 151
3 133 139 132
3 152 163 134
3 156 157 137
3 143 160 138
3 150 159 139
3 142 153 152
3 24 172 1
3 1 169 34
3 1 172 169
3 25 172 24
3 26 168 25
3 168 172 25
3 27 171 26
3 26 171 168
3 28 171 27
3 29 170 28
3 170 171 28
3 30 175 29
3 29 175 170
3 31 175 30
3 32 167 31
3 167 175 31
3 33 177 32
3 32 177 167
3 34 177 33
3 169 177 34
3 174 175 167
3 167 176 174
3 167 177 176
3 171 173 168
3 168 173 172
3 172 173 169
3 173 176 169
3 176 177 169
3 170 174 171
3 170 175 174
3 171 174 173
3 174 176 173
3 2 0 35
3 52 0 2
3 35 0 10
3 23 0 52
3 11 36 10
3 36 35 10
3 11 12 37
3 37 36 11
3 13 180 12
3 37 12 38
3 12 180 38
3 14 40 13
3 40 39 13
3 39 180 13
3 15 41 14
3 14 41 40
3 16 42 15
3 42 41 15
3 17 178 16
3 43 42 16
3 16 178 43
3 17 18 45
3 45 44 17
3 44 178 17
3 46 18 19
3 45 18 46
3 20 47 19
3 19 47 46
3 21 179 20
3 20 48 47
3 20 179 48
3 22 50 21
3 21 50 49
3 49 179 21
3 23 51 22
3 22 51 50
3 23 52 51
3 38 180 39
3 43 178 44
3 48 179 49
3 35 460 2
3 2 459 52
3 63 459 2
3 2 460 63
3 3 452 53
3 62 456 3
3 79 452 3
3 3 456 79
3 36 203 35
3 203 460 35
3 37 447 36
3 36 447 203
3 38 200 37
3 200 447 37
3 39 464 38
3 38 464 200
3 40 187 39
3 187 464 39
3 41 430 40
3 40 430 187
3 42 198 41
3 198 430 41
3 43 428 42
3 42 428 198
3 44 186 43
3 186 428 43
3 45 433 44
3 44 433 186
3 46 199 45
3 199 433 45
3 47 427 46
3 46 427 199
3 48 189 47
3 189 427 47
3 49 466 48
3 48 466 189
3 50 429 49
3 429 466 49
3 51 197 50
3 197 429 50
3 52 434 51
3 51 434 197
3 52 459 434
3 53 343 54
3 53 452 343
3 54 436 55
3 343 436 54
3 55 195 56
3 55 436 195
3 56 437 57
3 195 437 56
3 57 441 58
3 437 441 57
3 58 191 59
3 58 441 191
3 59 394 60
3 191 394 59
3 60 201 61
3 60 394 201
3 61 402 62
3 201 402 61
3 402 456 62
3 64 204 63
3 63 435 64
3 204 459 63
3 63 460 435
3 64 196 65
3 65 367 64
3 64 435 196
3 64 367 204
3 66 192 65
3 65 340 66
3 192 367 65
3 196 340 65
3 66 190 67
3 67 406 66
3 66 340 190
3 66 406 192
3 68 366 67
3 67 450 68
3 190 450 67
3 366 406 67
3 69 184 68
3 68 365 69
3 184 366 68
3 68 450 365
3 69 183 70
3 70 206 69
3 69 365 183
3 69 206 184
3 71 205 70
3 70 359 71
3 183 359 70
3 205 206 70
3 72 181 71
3 71 194 72
3 181 205 71
3 71 359 194
3 72 354 73
3 73 422 72
3 72 422 181
3 194 354 72
3 73 182 74
3 74 352 73
3 73 354 182
3 352 422 73
3 75 185 74
3 74 432 75
3 182 432 74
3 185 352 74
3 76 411 75
3 75 448 76
3 75 411 185
3 432 448 75
3 76 188 77
3 77 350 76
3 76 448 188
3 350 411 76
3 78 193 77
3 77 341 78
3 188 341 77
3 193 350 77
3 78 202 79
3 79 348 78
3 78 348 193
3 78 341 202
3 202 452 79
3 79 456 348
3 181 208 205
3 181 240 208
3 181 422 240
3 182 356 327
3 327 432 182
3 354 356 182
3 183 467 359
3 365 443 183
3 443 467 183
3 206 207 184
3 207 209 184
3 209 366 184
3 185 409 352
3 185 410 409
3 185 411 410
3 186 433 375
3 375 462 186
3 186 462 428
3 417 418 187
3 187 419 417
3 418 464 187
3 187 430 419
3 324 442 188
3 188 448 324
3 188 442 341
3 308 427 189
3 189 444 308
3 380 444 189
3 189 466 380
3 335 339 190
3 190 340 335
3 339 450 190
3 329 396 191
3 191 441 329
3 191 396 394
3 192 415 367
3 406 407 192
3 407 415 192
3 348 349 193
3 349 426 193
3 193 426 350
3 194 355 354
3 194 431 355
3 359 431 194
3 195 399 328
3 328 461 195
3 195 436 399
3 195 461 437
3 196 387 340
3 196 455 387
3 435 455 196
3 197 434 421
3 421 457 197
3 197 457 429
3 428 445 198
3 198 449 430
3 445 449 198
3 414 433 199
3 199 454 414
3 427 454 199
3 388 447 200
3 200 453 388
3 418 453 200
3 200 464 418
3 394 395 201
3 395 451 201
3 201 451 402
3 341 342 202
3 342 343 202
3 343 452 202
3 203 447 388
3 388 455 203
3 203 455 435
3 435 460 203
3 367 421 204
3 421 434 204
3 434 459 204
3 205 408 206
3 208 408 205
3 206 408 207
3 207 210 209
3 207 400 210
3 207 408 400
3 240 241 208
3 241 334 208
3 334 408 208
3 210 211 209
3 211 300 209
3 300 366 209
3 210 212 211
3 210 213 212
3 210 400 213
3 212 369 211
3 211 358 300
3 211 369 358
3 213 214 212
3 214 216 212
3 216 369 212
3 213 215 214
3 213 330 215
3 213 400 330
3 215 361 214
3 214 217 216
3 214 361 217
3 330 331 215
3 331 332 215
3 332 361 215
3 217 218 216
3 218 234 216
3 234 369 216
3 217 219 218
3 217 220 219
3 217 361 220
3 219 368 218
3 218 269 234
3 218 368 269
3 220 221 219
3 221 237 219
3 237 368 219
3 220 222 221
3 220 362 222
3 361 362 220
3 222 223 221
3 223 384 221
3 221 384 237
3 222 224 223
3 222 258 224
3 222 362 258
3 224 225 223
3 225 232 223
3 232 384 223
3 224 226 225
3 224 403 226
3 258 403 224
3 226 227 225
3 227 390 225
3 225 390 232
3 226 228 227
3 226 229 228
3 226 403 229
3 228 230 227
3 230 231 227
3 231 390 227
3 229 344 228
3 228 233 230
3 228 344 233
3 311 344 229
3 229 345 311
3 229 403 345
3 230 235 231
3 233 381 230
3 230 381 235
3 235 236 231
3 236 389 231
3 389 390 231
3 232 393 384
3 390 404 232
3 232 404 393
3 344 347 233
3 347 439 233
3 233 439 381
3 269 270 234
3 270 282 234
3 282 369 234
3 235 238 236
3 235 239 238
3 235 381 239
3 238 261 236
3 261 262 236
3 262 389 236
3 237 371 368
3 237 373 371
3 237 384 373
3 239 370 238
3 238 263 261
3 238 370 263
3 323 337 239
3 239 381 323
3 337 370 239
3 240 242 241
3 240 301 242
3 240 422 301
3 242 243 241
3 243 293 241
3 293 334 241
3 242 244 243
3 242 353 244
3 301 353 242
3 244 245 243
3 245 363 243
3 243 363 293
3 244 246 245
3 244 276 246
3 244 353 276
3 246 247 245
3 247 273 245
3 273 363 245
3 246 248 247
3 246 357 248
3 276 357 246
3 248 249 247
3 249 386 247
3 247 386 273
3 248 250 249
3 248 251 250
3 248 357 251
3 250 256 249
3 256 267 249
3 267 386 249
3 251 252 250
3 252 364 250
3 250 364 256
3 251 253 252
3 251 360 253
3 357 360 251
3 253 254 252
3 254 255 252
3 255 364 252
3 253 264 254
3 253 265 264
3 253 360 265
3 254 257 255
3 254 413 257
3 264 413 254
3 257 259 255
3 259 392 255
3 255 392 364
3 256 268 267
3 256 302 268
3 256 364 302
3 257 260 259
3 257 266 260
3 257 413 266
3 258 382 346
3 346 403 258
3 362 382 258
3 260 271 259
3 271 272 259
3 272 392 259
3 266 281 260
3 260 385 271
3 281 385 260
3 261 420 262
3 263 278 261
3 278 420 261
3 262 425 389
3 420 438 262
3 262 438 425
3 263 279 278
3 263 287 279
3 263 370 287
3 265 277 264
3 277 405 264
3 405 413 264
3 265 280 277
3 265 284 280
3 265 360 284
3 266 294 281
3 266 295 294
3 266 413 295
3 268 290 267
3 290 296 267
3 296 386 267
3 268 291 290
3 268 391 291
3 302 391 268
3 269 297 270
3 269 298 297
3 269 368 298
3 270 283 282
3 270 379 283
3 297 379 270
3 271 274 272
3 271 288 274
3 271 385 288
3 274 275 272
3 275 401 272
3 272 401 392
3 333 363 273
3 273 424 333
3 386 424 273
3 274 423 275
3 288 289 274
3 289 423 274
3 351 412 275
3 275 423 351
3 275 412 401
3 353 397 276
3 276 383 357
3 276 397 383
3 280 440 277
3 277 465 405
3 440 465 277
3 279 416 278
3 416 417 278
3 417 420 278
3 287 299 279
3 299 305 279
3 305 416 279
3 284 285 280
3 285 286 280
3 286 440 280
3 294 328 281
3 328 398 281
3 281 398 385
3 283 303 282
3 303 358 282
3 358 369 282
3 283 306 303
3 283 307 306
3 283 379 307
3 284 292 285
3 284 383 292
3 360 383 284
3 285 426 286
3 292 304 285
3 304 426 285
3 286 426 349
3 349 451 286
3 395 440 286
3 286 451 395
3 287 335 299
3 287 336 335
3 287 370 336
3 288 324 289
3 288 325 324
3 288 385 325
3 324 326 289
3 326 327 289
3 327 423 289
3 291 311 290
3 290 345 296
3 311 345 290
3 291 312 311
3 291 313 312
3 291 391 313
3 292 410 304
3 383 397 292
3 397 410 292
3 293 331 330
3 330 334 293
3 293 363 331
3 295 310 294
3 310 461 294
3 294 461 328
3 295 329 310
3 295 405 329
3 295 413 405
3 345 346 296
3 346 424 296
3 296 424 386
3 298 308 297
3 308 444 297
3 297 444 379
3 298 309 308
3 298 371 309
3 368 371 298
3 299 387 305
3 335 340 299
3 340 387 299
3 358 407 300
3 300 406 366
3 300 407 406
3 352 409 301
3 301 422 352
3 301 409 353
3 364 392 302
3 302 401 391
3 392 401 302
3 306 415 303
3 303 407 358
3 303 415 407
3 304 411 350
3 350 426 304
3 410 411 304
3 387 388 305
3 388 453 305
3 305 453 416
3 307 457 306
3 306 421 415
3 306 457 421
3 379 380 307
3 380 429 307
3 429 457 307
3 309 454 308
3 308 454 427
3 371 372 309
3 372 414 309
3 414 454 309
3 329 441 310
3 310 441 437
3 437 461 310
3 312 344 311
3 313 314 312
3 314 347 312
3 312 347 344
3 313 315 314
3 313 412 315
3 391 412 313
3 315 316 314
3 316 317 314
3 317 347 314
3 315 318 316
3 315 351 318
3 315 412 351
3 316 319 317
3 318 458 316
3 316 458 319
3 319 320 317
3 320 439 317
3 317 439 347
3 351 446 318
3 318 356 355
3 355 458 318
3 318 446 356
3 319 321 320
3 319 431 321
3 319 458 431
3 321 322 320
3 322 323 320
3 323 439 320
3 321 443 322
3 431 467 321
3 321 467 443
3 322 337 323
3 322 338 337
3 322 443 338
3 381 439 323
3 325 442 324
3 324 448 326
3 385 398 325
3 398 463 325
3 325 463 442
3 326 432 327
3 326 448 432
3 356 446 327
3 327 446 423
3 328 399 398
3 329 465 396
3 405 465 329
3 330 400 334
3 331 333 332
3 331 363 333
3 333 382 332
3 332 362 361
3 332 382 362
3 333 424 382
3 400 408 334
3 336 339 335
3 337 338 336
3 336 370 337
3 338 339 336
3 338 365 339
3 338 443 365
3 365 450 339
3 341 442 342
3 342 399 343
3 342 463 399
3 442 463 342
3 399 436 343
3 345 403 346
3 382 424 346
3 348 402 349
3 348 456 402
3 402 451 349
3 423 446 351
3 353 409 397
3 355 356 354
3 431 458 355
3 357 383 360
3 359 467 431
3 415 421 367
3 371 373 372
3 373 374 372
3 374 375 372
3 375 414 372
3 373 393 374
3 384 393 373
3 374 376 375
3 374 377 376
3 374 393 377
3 376 462 375
3 375 433 414
3 377 378 376
3 378 445 376
3 445 462 376
3 377 425 378
3 393 404 377
3 404 425 377
3 425 438 378
3 438 449 378
3 378 449 445
3 379 444 380
3 380 466 429
3 387 455 388
3 389 404 390
3 389 425 404
3 401 412 391
3 394 396 395
3 396 440 395
3 396 465 440
3 409 410 397
3 399 463 398
3 416 418 417
3 416 453 418
3 419 420 417
3 419 438 420
3 430 449 419
3 419 449 438
3 428 462 445
3 53 474 3
3 3 474 62
3 54 470 53
3 470 474 53
3 55 475 54
3 54 475 470
3 56 475 55
3 57 469 56
3 469 475 56
3 58 473 57
3 57 473 469
3 59 473 58
3 60 471 59
3 471 473 59
3 61 471 60
3 62 468 61
3 468 471 61
3 62 474 468
3 468 472 471
3 468 474 472
3 469 473 472
3 472 475 469
3 472 474 470
3 470 475 472
3 472 473 471
4 175 362 484 487
4 171 483 233 495
4 228 487 171 495
4 233 483 439 495
4 233 171 439 483
4 492 519 281 520
4 26 439 171 483
4 382 484 362 487
4 175 30 362 487
4 382 484 487 515
4 490 505 411 508
4 410 411 490 505
4 267 386 496 501
4 30 258 362 487
4 382 487 496 515
4 257 492 493 509
4 330 489 484 498
4 171 483 495 504
4 397 505 490 516
4 276 397 502 516
4 281 519 500 520
4 330 334 489 498
4 272 259 509 511
4 228 171 233 495
4 397 410 490 505
4 277 520 497 522
4 267 386 296 496
4 171 495 487 504
4 488 496 386 501
4 490 502 397 516
4 350 513 494 522
4 405 497 277 520
4 492 509 259 511
4 272 509 485 511
4 492 494 325 519
4 257 493 254 509
4 233 228 27 171
4 277 493 520 522
4 26 171 168 483
4 276 502 486 516
4 257 493 492 520
4 400 330 334 489
4 257 259 492 509
4 486 502 490 516
4 330 400 213 484
4 400 484 330 489
4 479 519 492 520
4 233 26 439 171
4 382 362 258 487
4 383 397 276 516
4 397 292 505 516
4 410 411 185 490
4 72 354 482 506
4 411 185 490 508
4 467 491 483 499
4 397 292 410 505
4 354 503 482 506
4 316 315 481 503
4 497 520 479 522
4 31 175 362 484
4 27 26 233 171
4 32 213 177 484
4 479 494 492 519
4 442 325 494 519
4 494 513 188 519
4 470 343 480 517
4 468 474 456 480
4 321 483 467 491
4 474 470 452 480
4 503 506 354 507
4 171 228 28 487
4 494 513 479 522
4 481 491 316 503
4 72 73 354 506
4 341 188 513 519
4 478 505 490 508
4 194 491 482 503
4 500 519 479 520
4 314 316 315 481
4 267 496 290 501
4 494 505 350 522
4 468 480 402 510
4 229 487 228 495
4 277 493 264 520
4 405 277 264 520
4 385 492 325 519
4 188 494 77 513
4 470 436 343 517
4 73 182 354 506
4 476 487 484 515
4 382 496 424 515
4 31 362 332 484
4 470 475 436 517
4 362 382 332 484
4 482 491 194 499
4 411 505 494 508
4 354 194 482 503
4 497 513 286 522
4 330 498 484 515
4 426 513 350 522
4 474 472 470 480
4 346 382 487 496
4 392 272 259 509
4 478 508 485 511
4 314 316 481 491
4 385 325 398 519
4 290 496 481 501
4 487 495 229 496
4 349 497 480 513
4 275 351 485 512
4 354 194 72 482
4 257 255 259 509
4 470 480 472 517
4 171 28 170 487
4 467 499 483 518
4 77 494 350 513
4 357 276 486 516
4 226 29 170 487
4 271 492 259 511
4 405 295 497 520
4 341 188 77 513
4 468 472 480 510
4 476 496 487 515
4 431 491 467 499
4 295 500 497 520
4 357 383 276 516
4 480 497 451 510
4 392 485 272 509
4 320 483 319 491
4 325 492 324 494
4 33 400 207 489
4 468 456 402 480
4 470 343 452 480
4 456 474 79 480
4 443 322 25 483
4 439 320 317 483
4 257 254 493 520
4 321 467 431 491
4 281 398 500 519
4 272 271 259 511
4 181 205 208 499
4 488 501 386 521
4 488 498 243 515
4 472 474 468 480
4 243 498 488 514
4 194 355 491 503
4 439 483 317 495
4 317 483 320 491
4 181 208 498 499
4 181 240 482 498
4 228 226 28 487
4 478 490 485 507
4 257 254 255 509
4 478 507 485 508
4 291 290 481 501
4 267 296 290 496
4 480 500 399 519
4 25 443 483 518
4 488 245 514 521
4 345 487 229 496
4 442 494 188 519
4 479 513 494 519
4 324 494 492 511
4 181 498 482 499
4 483 491 317 495
4 478 486 485 490
4 490 507 478 508
4 493 479 520 522
4 28 226 170 487
4 474 452 79 480
4 478 509 492 511
4 502 514 245 521
4 167 177 176 484
4 247 488 386 521
4 229 226 228 487
4 176 484 177 504
4 349 451 480 497
4 314 491 481 495
4 291 501 481 512
4 74 506 490 507
4 215 213 32 484
4 311 229 495 496
4 181 208 240 498
4 481 496 488 501
4 184 34 206 518
4 74 507 490 508
4 481 482 477 488
4 485 486 477 490
4 182 354 506 507
4 468 402 201 510
4 399 500 480 517
4 476 482 481 488
4 228 28 27 171
4 34 489 206 518
4 317 320 319 491
4 351 507 485 512
4 291 391 268 512
4 291 268 501 512
4 321 319 483 491
4 382 424 333 515
4 490 505 478 516
4 311 495 481 496
4 275 485 351 507
4 315 481 503 512
4 402 480 451 510
4 315 313 481 512
4 359 431 467 499
4 291 268 290 501
4 442 325 324 494
4 175 487 484 504
4 71 482 194 499
4 311 345 229 496
4 386 488 424 496
4 334 408 400 489
4 25 323 168 483
4 245 488 247 521
4 215 330 213 484
4 332 215 361 484
4 173 483 168 504
4 320 321 319 483
4 194 71 72 482
4 275 423 485 507
4 478 493 492 509
4 467 321 443 483
4 481 482 476 491
4 310 510 500 517
4 177 167 32 484
4 167 175 31 484
4 485 508 507 511
4 350 494 411 505
4 168 483 171 504
4 411 75 185 508
4 397 409 353 502
4 253 254 493 509
4 205 70 206 489
4 401 302 512 523
4 244 245 502 514
4 25 24 443 518
4 482 498 240 514
4 275 351 423 507
4 167 484 176 504
4 341 442 188 519
4 329 497 500 510
4 362 31 30 175
4 275 485 401 512
4 408 489 334 498
4 349 286 497 513
4 422 482 240 506
4 423 485 507 511
4 26 323 439 483
4 70 489 205 499
4 343 480 399 519
4 344 229 228 495
4 346 424 382 496
4 314 315 313 481
4 194 491 431 499
4 397 490 409 502
4 468 201 471 510
4 332 361 31 484
4 184 206 69 518
4 32 167 31 484
4 243 498 293 515
4 293 498 330 515
4 253 509 493 516
4 361 215 31 484
4 33 207 34 489
4 401 512 485 523
4 277 405 465 497
4 476 489 483 499
4 311 291 290 481
4 215 32 31 484
4 354 355 194 503
4 467 483 443 518
4 275 401 412 512
4 202 513 480 519
4 226 403 29 487
4 240 422 181 482
4 79 202 78 480
4 181 482 71 499
4 348 79 78 480
4 182 73 74 506
4 72 71 181 482
4 32 33 177 213
4 274 485 423 511
4 26 168 323 483
4 184 1 34 518
4 240 506 482 514
4 290 311 481 496
4 402 451 201 510
4 72 482 422 506
4 424 496 488 515
4 456 79 348 480
4 167 174 484 504
4 397 383 292 516
4 28 29 170 226
4 260 492 281 520
4 348 480 78 513
4 175 167 174 484
4 311 312 481 495
4 409 353 502 506
4 484 489 476 498
4 476 483 489 504
4 348 349 480 513
4 322 443 321 483
4 25 483 172 518
4 401 302 391 512
4 484 489 177 504
4 202 78 480 513
4 344 228 233 495
4 363 488 243 515
4 253 251 509 516
4 76 411 494 508
4 324 492 288 511
4 314 317 491 495
4 273 386 247 488
4 409 502 490 506
4 349 286 513 522
4 293 334 330 498
4 481 488 477 501
4 25 322 323 483
4 351 503 446 507
4 296 386 424 496
4 246 502 245 521
4 260 385 281 492
4 477 482 481 503
4 409 301 353 506
4 291 481 313 512
4 246 244 245 502
4 348 402 456 480
4 74 432 507 508
4 243 488 245 514
4 503 507 351 512
4 275 423 274 485
4 349 513 426 522
4 357 502 246 521
4 485 490 477 507
4 357 486 276 502
4 359 499 467 518
4 173 168 171 504
4 422 72 181 482
4 182 506 74 507
4 314 481 312 495
4 174 175 484 504
4 352 490 74 506
4 359 194 431 499
4 168 172 25 483
4 302 501 512 523
4 251 486 250 509
4 350 411 304 505
4 273 247 245 488
4 194 355 431 491
4 175 170 29 487
4 357 486 502 521
4 363 245 243 488
4 275 412 351 512
4 79 452 202 480
4 184 69 1 518
4 29 403 258 487
4 351 315 503 512
4 479 513 497 522
4 492 493 478 494
4 241 498 243 514
4 329 500 310 510
4 252 251 250 509
4 34 207 206 489
4 177 33 34 489
4 259 260 257 492
4 173 483 504 518
4 479 493 492 494
4 353 301 242 514
4 70 489 499 518
4 321 431 319 491
4 324 508 494 511
4 240 498 241 514
4 320 323 322 483
4 252 253 251 509
4 70 206 489 518
4 325 288 324 492
4 25 172 24 518
4 483 499 489 518
4 477 488 514 521
4 311 312 291 481
4 171 487 170 504
4 356 503 354 507
4 477 488 482 514
4 497 500 479 520
4 426 193 350 513
4 494 505 478 508
4 458 316 491 503
4 446 351 318 503
4 478 485 509 511
4 265 493 284 516
4 424 488 273 515
4 493 494 479 522
4 320 439 323 483
4 281 500 266 520
4 249 386 501 521
4 169 489 34 518
4 382 258 346 487
4 253 493 265 516
4 174 487 175 504
4 482 488 476 498
4 72 422 73 506
4 386 273 424 488
4 483 476 495 504
4 70 499 359 518
4 31 362 361 332
4 493 505 494 522
4 229 403 226 487
4 329 497 295 500
4 277 497 440 522
4 452 343 202 480
4 493 505 284 516
4 477 501 488 521
4 481 476 488 496
4 350 76 411 494
4 507 508 327 511
4 423 507 327 511
4 265 284 493 522
4 478 494 493 505
4 241 293 243 498
4 486 509 251 516
4 351 315 318 503
4 291 313 391 512
4 253 265 360 516
4 451 497 395 510
4 397 410 409 490
4 206 408 205 489
4 314 317 316 491
4 398 328 500 519
4 264 493 254 520
4 202 341 513 519
4 168 173 172 483
4 284 505 493 522
4 347 439 317 495
4 343 399 342 519
4 173 172 483 518
4 413 264 254 520
4 458 491 355 503
4 482 491 481 503
4 423 327 289 511
4 174 170 487 504
4 472 480 510 517
4 274 272 485 511
4 476 484 498 515
4 352 74 73 506
4 470 472 475 517
4 250 509 486 523
4 400 408 207 489
4 224 258 29 403
4 183 359 467 518
4 253 252 254 509
4 265 493 277 522
4 487 495 476 504
4 458 431 355 491
4 479 497 480 500
4 476 483 491 499
4 349 426 286 522
4 281 294 266 500
4 328 500 399 517
4 322 321 320 483
4 363 243 293 515
4 401 485 392 523
4 486 490 478 516
4 344 311 229 495
4 357 276 246 502
4 188 442 324 494
4 357 248 486 521
4 329 405 295 497
4 181 71 205 499
4 477 514 502 521
4 331 330 484 515
4 347 233 439 495
4 76 75 411 508
4 313 291 312 481
4 193 77 350 513
4 250 521 249 523
4 480 497 479 513
4 281 398 328 500
4 481 491 476 495
4 70 359 183 518
4 168 25 26 323
4 349 286 451 497
4 477 486 485 523
4 332 331 484 515
4 485 486 478 509
4 272 275 274 485
4 479 500 480 519
4 477 506 503 507
4 476 491 482 499
4 439 381 26 233
4 357 246 248 521
4 27 26 381 233
4 260 257 492 520
4 243 245 244 514
4 489 504 483 518
4 250 486 521 523
4 302 401 392 523
4 313 312 314 481
4 77 76 350 494
4 479 480 513 519
4 413 405 264 520
4 241 240 208 498
4 250 486 248 521
4 476 481 495 496
4 267 249 386 501
4 316 318 315 503
4 482 503 477 506
4 351 446 423 507
4 468 471 472 510
4 484 487 476 504
4 1 169 34 518
4 392 485 509 523
4 346 487 345 496
4 250 249 256 523
4 352 409 490 506
4 477 485 512 523
4 174 171 170 504
4 301 506 240 514
4 360 265 284 516
4 255 392 259 509
4 174 170 175 487
4 249 501 256 523
4 250 251 248 486
4 259 271 260 492
4 249 521 501 523
4 258 403 346 487
4 173 504 169 518
4 251 357 486 516
4 352 185 74 490
4 477 490 486 502
4 265 264 277 493
4 250 364 509 523
4 410 304 411 505
4 252 250 364 509
4 484 476 489 504
4 266 500 295 520
4 483 476 491 495
4 480 500 497 510
4 276 397 353 502
4 492 494 478 511
4 363 273 245 488
4 324 326 508 511
4 356 354 182 507
4 410 185 409 490
4 207 408 206 489
4 268 267 290 501
4 476 498 489 499
4 476 482 498 499
4 265 280 284 522
4 408 334 208 498
4 265 277 280 522
4 478 493 509 516
4 285 304 505 522
4 202 341 78 513
4 332 333 331 515
4 249 247 386 521
4 319 316 317 491
4 488 496 476 515
4 294 295 266 500
4 251 357 248 486
4 488 498 482 514
4 274 271 272 511
4 461 500 328 517
4 422 240 301 506
4 169 504 489 518
4 167 176 174 504
4 401 272 392 485
4 331 293 330 515
4 34 184 206 207
4 403 345 346 487
4 310 441 510 517
4 424 273 333 515
4 486 477 521 523
4 177 34 169 489
4 440 497 286 522
4 314 347 317 495
4 399 500 328 519
4 254 264 253 493
4 481 501 477 512
4 485 507 477 512
4 331 330 215 484
4 260 281 266 520
4 253 360 251 516
4 398 399 328 519
4 310 329 295 500
4 476 498 488 515
4 352 409 185 490
4 284 505 292 516
4 257 413 254 520
4 476 495 487 496
4 500 510 480 517
4 201 451 395 510
4 392 509 364 523
4 242 301 240 514
4 458 318 316 503
4 494 508 478 511
4 359 71 194 499
4 352 301 409 506
4 229 345 403 487
4 477 482 506 514
4 363 273 488 515
4 401 275 272 485
4 329 465 405 497
4 490 506 477 507
4 395 451 286 497
4 477 512 501 523
4 284 292 383 516
4 202 342 341 519
4 77 188 76 494
4 331 215 332 484
4 501 521 477 523
4 277 465 440 497
4 70 69 206 518
4 246 245 247 521
4 314 312 347 495
4 477 503 481 512
4 277 440 280 522
4 446 503 356 507
4 256 268 302 501
4 285 426 304 522
4 324 448 494 508
4 463 398 325 519
4 401 391 412 512
4 347 344 233 495
4 325 385 288 492
4 182 74 432 507
4 467 443 183 518
4 319 458 316 491
4 251 360 357 516
4 492 493 479 520
4 351 412 315 512
4 329 310 441 510
4 256 501 302 523
4 33 400 210 207
4 226 224 29 403
4 446 318 356 503
4 173 169 172 518
4 295 405 413 520
4 328 399 195 517
4 490 502 477 506
4 399 436 195 517
4 264 265 253 493
4 349 193 426 513
4 472 510 473 517
4 250 248 249 521
4 471 201 394 510
4 274 423 289 511
4 288 492 271 511
4 59 394 191 510
4 242 240 241 514
4 324 289 326 511
4 281 328 294 500
4 191 473 59 510
4 441 469 473 517
4 441 473 510 517
4 254 252 255 509
4 315 412 313 512
4 461 328 195 517
4 271 288 385 492
4 59 471 394 510
4 477 507 503 512
4 260 271 385 492
4 486 477 502 521
4 70 205 71 499
4 311 344 312 495
4 478 509 486 516
4 169 173 176 504
4 392 255 364 509
4 343 470 54 436
4 470 475 54 436
4 410 292 304 505
4 472 473 469 517
4 242 241 243 514
4 290 345 311 496
4 74 75 432 508
4 394 201 395 510
4 486 509 485 523
4 59 473 471 510
4 361 32 31 215
4 327 507 432 508
4 285 505 284 522
4 478 505 493 516
4 448 76 494 508
4 396 497 329 510
4 243 244 242 514
4 355 354 356 503
4 395 286 440 497
4 463 325 442 519
4 310 500 461 517
4 400 213 33 210
4 395 497 396 510
4 195 436 475 517
4 477 506 502 514
4 469 441 437 517
4 174 173 171 504
4 461 310 294 500
4 346 296 424 496
4 319 431 458 491
4 188 324 448 494
4 290 296 345 496
4 363 333 273 515
4 186 44 43 178
4 437 56 469 517
4 260 266 257 520
4 215 361 32 214
4 440 286 280 522
4 324 326 448 508
4 360 383 357 516
4 256 249 267 501
4 29 30 258 224
4 302 392 364 523
4 458 355 318 503
4 441 473 191 510
4 471 473 472 510
4 412 391 313 512
4 469 57 437 441
4 334 293 241 498
4 61 471 468 201
4 77 78 341 513
4 461 294 328 500
4 359 70 71 499
4 276 244 246 502
4 324 288 289 511
4 472 469 475 517
4 327 432 326 508
4 294 310 295 500
4 365 443 24 518
4 348 78 193 513
4 280 285 284 522
4 222 258 30 224
4 352 73 422 506
4 347 312 344 495
4 396 465 329 497
4 284 383 360 516
4 334 241 208 498
4 468 402 61 201
4 346 345 296 496
4 365 183 443 518
4 268 256 267 501
4 329 441 191 510
4 255 252 364 509
4 448 75 76 508
4 284 285 292 505
4 348 193 349 513
4 90 16 17 178
4 43 16 186 178
4 441 469 57 473
4 288 271 274 511
4 465 396 440 497
4 353 244 276 502
4 266 295 413 520
4 395 396 394 510
4 1 365 24 518
4 352 422 301 506
4 471 60 394 201
4 468 62 456 474
4 186 16 90 178
4 396 191 394 510
4 128 20 21 179
4 148 12 13 180
4 77 193 78 513
4 256 364 250 523
4 183 365 69 518
4 69 365 1 518
4 398 463 399 519
4 361 31 32 214
4 318 355 356 503
4 69 70 183 518
4 188 448 76 494
4 396 329 191 510
4 423 446 327 507
4 440 396 395 497
4 342 442 341 519
4 63 5 4 93
4 26 381 439 323
4 79 456 3 474
4 17 44 90 178
4 468 62 402 456
4 186 90 44 178
4 219 217 218 82
4 437 195 56 517
4 452 79 3 474
4 426 285 286 522
4 331 363 293 515
4 30 29 222 224
4 266 413 257 520
4 474 53 452 470
4 304 292 285 505
4 247 248 246 521
4 470 53 452 343
4 231 236 235 139
4 256 302 364 523
4 172 169 1 518
4 247 249 248 521
4 82 218 219 97
4 24 25 443 338
4 34 210 209 207
4 210 34 33 207
4 342 399 463 519
4 166 366 209 300
4 210 33 34 209
4 327 446 356 507
4 288 274 289 511
4 378 112 113 114
4 322 443 25 338
4 369 282 96 130
4 98 218 234 96
4 269 218 234 98
4 209 91 166 300
4 176 173 174 504
4 114 378 112 425
4 16 43 186 428
4 99 269 140 98
4 24 172 1 518
4 54 53 470 343
4 219 217 82 127
4 258 30 362 222
4 182 432 327 507
4 60 471 61 201
4 32 215 214 213
4 186 90 16 428
4 115 404 232 390
4 283 102 100 303
4 191 58 59 473
4 331 333 363 515
4 219 82 97 127
4 342 463 442 519
4 212 216 32 95
4 280 286 285 522
4 83 27 230 227
4 368 269 99 98
4 30 31 362 220
4 100 282 283 303
4 101 98 297 270
4 191 441 58 473
4 93 63 5 204
4 394 60 471 59
4 83 230 231 227
4 237 384 106 373
4 160 93 204 434
4 135 227 83 390
4 212 33 32 213
4 143 138 415 421
4 475 195 55 436
4 327 356 182 507
4 7 81 142 340
4 98 269 297 270
4 216 82 32 95
4 99 97 368 98
4 269 368 97 98
4 230 228 27 233
4 238 236 261 139
4 216 32 214 212
4 282 100 96 130
4 98 97 218 96
4 138 143 160 421
4 81 7 65 340
4 298 269 140 99
4 310 437 441 517
4 448 326 432 508
4 139 261 238 133
4 99 371 368 237
4 448 432 75 508
4 429 307 128 380
4 282 96 234 369
4 300 211 91 358
4 31 217 82 214
4 33 210 211 209
4 4 2 63 459
4 460 4 2 63
4 98 297 140 101
4 475 55 54 436
4 195 55 56 475
4 85 419 430 125
4 94 4 460 63
4 371 99 106 237
4 204 64 5 138
4 445 378 376 111
4 138 160 204 421
4 137 6 5 64
4 211 91 33 209
4 157 387 81 196
4 454 199 414 116
4 213 212 33 210
4 199 454 86 116
4 27 235 132 83
4 82 32 31 214
4 129 417 187 419
4 187 85 129 419
4 31 362 220 361
4 137 5 435 64
4 429 307 104 128
4 101 104 102 283
4 41 430 198 125
4 101 104 283 379
4 39 38 464 180
4 130 282 103 358
4 445 378 111 113
4 234 98 100 270
4 282 103 358 303
4 128 307 104 380
4 222 30 220 221
4 120 263 119 133
4 466 49 48 179
4 393 141 373 110
4 63 64 5 204
4 127 220 30 221
4 105 444 128 380
4 428 90 16 161
4 232 135 115 390
4 227 135 225 390
4 214 82 32 216
4 153 157 299 340
4 430 41 14 125
4 84 384 223 232
4 279 287 263 124
4 300 91 130 358
4 4 0 459 164
4 404 115 150 389
4 198 15 41 125
4 402 62 468 61
4 29 84 222 223
4 132 238 87 133
4 165 4 0 460
4 374 109 375 111
4 300 130 131 358
4 129 85 117 419
4 459 63 4 93
4 5 435 64 63
4 404 150 425 389
4 33 212 95 211
4 118 119 261 420
4 107 374 109 373
4 66 7 142 340
4 106 384 141 373
4 444 145 105 128
4 68 366 184 166
4 223 222 29 224
4 374 109 373 372
4 43 16 42 428
4 100 101 283 270
4 190 92 152 142
4 30 29 84 222
4 102 103 100 303
4 420 261 118 278
4 261 119 263 133
4 128 444 189 380
4 419 85 117 125
4 378 114 438 425
4 4 0 2 459
4 130 131 91 300
4 95 91 33 211
4 134 87 337 336
4 210 212 33 211
4 2 0 4 460
4 114 113 378 438
4 236 231 389 139
4 100 101 102 283
4 269 298 368 99
4 113 111 445 136
4 140 269 297 98
4 119 261 139 133
4 211 130 91 358
4 298 140 144 108
4 227 83 28 135
4 261 119 118 278
4 269 368 218 97
4 104 89 429 128
4 84 221 384 106
4 218 269 97 98
4 6 137 196 64
4 376 374 375 111
4 415 138 367 421
4 437 310 461 517
4 361 217 31 214
4 218 82 216 96
4 119 261 263 120
4 106 107 371 237
4 64 6 5 138
4 371 99 107 106
4 15 14 41 125
4 102 283 307 306
4 141 107 373 110
4 415 80 103 407
4 456 62 3 474
4 87 25 134 337
4 28 27 83 227
4 204 5 93 138
4 223 29 135 225
4 378 377 111 112
4 221 384 106 237
4 137 5 94 435
4 36 11 10 147
4 282 103 100 130
4 120 279 263 124
4 109 107 373 372
4 306 143 102 303
4 27 26 235 381
4 98 234 269 270
4 308 444 145 105
4 104 89 307 429
4 428 16 42 161
4 151 366 166 300
4 196 81 65 340
4 214 217 82 216
4 225 224 29 226
4 21 466 128 179
4 131 406 300 407
4 379 283 101 270
4 57 58 441 473
4 9 67 68 366
4 234 218 216 96
4 18 45 46 199
4 26 27 235 132
4 1 365 450 162
4 227 231 83 390
4 111 376 445 136
4 238 132 87 239
4 278 118 416 121
4 376 378 377 111
4 387 81 196 340
4 154 149 433 90
4 91 151 166 300
4 134 339 92 152
4 366 68 9 166
4 460 435 94 63
4 417 129 117 419
4 130 95 369 211
4 14 85 430 125
4 220 362 30 222
4 219 221 106 237
4 146 160 126 457
4 105 444 380 379
4 81 387 157 340
4 118 129 417 121
4 225 135 223 232
4 133 263 370 124
4 32 33 212 95
4 416 118 417 121
4 263 287 370 124
4 144 309 298 108
4 130 91 95 211
4 3 53 452 474
4 381 235 27 230
4 13 464 148 180
4 204 367 138 421
4 368 219 97 106
4 283 282 100 270
4 160 146 421 457
4 130 369 282 358
4 18 45 199 149
4 219 220 217 127
4 66 142 190 340
4 94 4 165 460
4 234 98 96 100
4 369 130 211 358
4 84 127 30 221
4 121 305 279 122
4 282 234 100 270
4 435 196 137 64
4 221 84 127 106
4 82 216 96 95
4 368 219 106 237
4 50 22 21 89
4 91 34 33 209
4 66 65 7 340
4 80 158 103 407
4 139 231 389 159
4 145 444 189 128
4 100 96 234 282
4 238 132 139 133
4 453 155 88 123
4 375 109 154 111
4 212 32 214 213
4 135 115 141 232
4 466 429 21 128
4 81 137 157 196
4 27 381 230 233
4 433 116 149 154
4 56 57 437 469
4 212 369 216 95
4 376 377 374 111
4 416 417 129 121
4 221 127 219 106
4 131 300 358 407
4 165 0 35 460
4 404 393 115 232
4 0 52 459 164
4 136 445 113 125
4 384 84 141 232
4 305 279 416 121
4 434 204 160 421
4 369 96 216 95
4 99 140 298 108
4 225 29 28 226
4 217 218 82 216
4 95 212 369 211
4 82 218 97 96
4 279 287 124 122
4 200 38 12 148
4 107 109 374 110
4 82 217 31 127
4 141 107 106 373
4 217 220 31 127
4 222 84 30 221
4 17 44 433 90
4 152 335 190 142
4 44 433 90 186
4 102 283 306 303
4 184 1 68 166
4 135 159 115 390
4 216 234 96 369
4 45 18 17 149
4 99 298 371 108
4 278 119 118 120
4 87 370 337 336
4 38 200 464 148
4 373 107 374 110
4 379 101 297 270
4 336 337 134 338
4 377 404 393 115
4 11 37 12 88
4 433 116 154 375
4 237 107 371 373
4 133 120 263 124
4 18 46 19 86
4 112 377 404 425
4 103 358 303 407
4 445 136 198 125
4 115 377 404 112
4 144 86 454 116
4 21 49 50 429
4 28 227 135 225
4 209 211 91 300
4 21 49 429 466
4 135 84 223 232
4 221 222 84 223
4 415 192 80 407
4 269 297 298 140
4 95 369 96 130
4 106 99 368 237
4 164 459 4 93
4 217 31 220 361
4 101 100 98 270
4 50 22 89 197
4 115 404 150 425
4 308 444 189 145
4 393 373 374 110
4 101 297 105 379
4 9 8 92 67
4 19 46 47 427
4 81 6 137 196
4 195 437 461 517
4 303 306 143 415
4 368 219 218 97
4 92 8 190 67
4 282 100 103 303
4 135 141 84 232
4 30 31 220 127
4 450 9 1 162
4 376 154 462 111
4 428 462 90 136
4 223 29 84 135
4 92 450 9 67
4 89 21 50 429
4 297 444 105 379
4 404 115 159 390
4 219 220 127 221
4 187 417 129 418
4 146 89 197 457
4 143 103 102 303
4 190 450 92 67
4 337 25 134 338
4 21 49 466 179
4 144 308 427 145
4 51 22 50 197
4 159 389 404 390
4 157 387 299 340
4 358 103 131 407
4 19 47 20 145
4 90 186 462 428
4 86 18 46 199
4 138 80 143 415
4 339 134 336 152
4 110 374 377 111
4 38 12 37 200
4 371 368 298 99
4 159 231 389 390
4 29 223 224 225
4 111 462 376 136
4 116 433 414 375
4 116 86 199 149
4 115 393 141 232
4 64 204 367 138
4 307 283 104 379
4 209 184 34 207
4 93 459 63 204
4 198 136 161 125
4 373 384 141 393
4 103 303 415 407
4 365 1 24 162
4 93 160 204 138
4 370 163 133 124
4 111 154 462 136
4 283 104 102 307
4 47 48 20 189
4 237 106 107 373
4 110 109 374 111
4 115 393 377 110
4 40 14 85 430
4 34 366 184 209
4 389 262 236 139
4 200 453 418 155
4 122 305 299 157
4 97 219 127 106
4 365 69 1 68
4 137 94 455 435
4 466 20 189 128
4 262 389 150 139
4 438 114 420 262
4 406 366 67 151
4 450 365 1 68
4 261 119 278 120
4 114 438 425 262
4 445 113 125 449
4 93 160 146 434
4 119 118 114 420
4 52 2 0 459
4 0 2 35 460
4 105 140 297 101
4 151 406 366 300
4 125 113 117 449
4 40 13 39 187
4 147 10 36 203
4 161 428 90 136
4 278 263 261 120
4 11 36 447 147
4 124 120 279 122
4 406 8 158 151
4 380 104 105 379
4 99 368 97 106
4 335 339 336 152
4 112 111 378 113
4 50 89 429 197
4 115 150 389 159
4 158 80 192 407
4 161 42 428 198
4 370 87 238 133
4 42 15 41 198
4 187 40 85 430
4 427 19 46 86
4 417 118 416 278
4 6 64 367 138
4 148 200 418 155
4 429 89 21 128
4 141 84 384 106
4 47 19 427 145
4 421 146 197 457
4 263 238 261 133
4 52 0 23 164
4 103 143 80 415
4 0 35 10 165
4 200 12 37 88
4 279 120 121 122
4 427 86 144 145
4 151 131 406 300
4 128 466 20 179
4 89 146 126 457
4 225 28 227 226
4 308 189 427 145
4 406 158 192 407
4 287 279 299 122
4 184 366 34 166
4 236 262 119 139
4 107 99 371 108
4 196 137 455 435
4 371 107 108 372
4 309 371 298 108
4 464 418 187 148
4 307 126 102 306
4 48 20 189 466
4 377 110 111 112
4 125 419 430 449
4 166 366 34 209
4 157 153 81 340
4 447 388 147 203
4 145 144 308 105
4 374 109 372 375
4 116 372 109 375
4 7 65 192 80
4 143 103 303 415
4 144 454 309 116
4 404 115 112 425
4 308 309 298 144
4 384 141 393 232
4 137 455 387 196
4 373 107 371 372
4 65 7 6 80
4 140 308 298 144
4 117 419 125 449
4 416 453 305 121
4 464 85 13 148
4 238 87 370 239
4 380 307 104 379
4 110 377 115 112
4 278 416 279 121
4 40 14 13 85
4 9 67 366 151
4 119 261 236 139
4 46 427 86 199
4 406 67 8 151
4 384 221 84 223
4 308 427 454 144
4 187 13 39 464
4 415 306 143 421
4 88 388 453 123
4 232 225 135 390
4 37 11 447 88
4 450 1 9 68
4 154 90 186 462
4 87 134 163 336
4 336 134 339 338
4 116 414 372 375
4 335 152 153 142
4 159 83 231 390
4 128 104 105 380
4 199 86 18 149
4 22 51 23 146
4 51 52 23 434
4 418 416 129 155
4 150 112 115 425
4 140 297 308 105
4 287 336 163 152
4 152 124 335 153
4 323 322 25 337
4 339 162 24 134
4 13 40 85 187
4 135 29 28 225
4 298 297 308 140
4 150 114 112 425
4 192 66 158 406
4 108 107 109 372
4 262 119 261 236
4 393 374 377 110
4 427 86 454 144
4 6 81 65 196
4 120 278 279 121
4 155 416 129 121
4 92 190 8 142
4 239 87 370 337
4 184 34 1 166
4 116 199 414 149
4 227 28 228 226
4 165 35 10 203
4 189 20 47 145
4 158 66 8 406
4 17 44 45 433
4 231 139 83 159
4 147 165 10 203
4 378 377 112 425
4 142 190 8 66
4 35 36 10 203
4 381 26 235 239
4 309 371 108 372
4 118 278 120 121
4 124 287 163 152
4 83 159 135 390
4 66 190 8 67
4 420 114 119 262
4 104 101 105 379
4 453 416 418 155
4 119 261 420 262
4 94 165 203 460
4 299 335 153 340
4 163 370 287 124
4 406 158 131 151
4 1 9 68 166
4 141 393 115 110
4 433 199 45 149
4 372 108 309 116
4 305 122 123 157
4 156 94 455 137
4 433 45 17 149
4 203 435 94 460
4 150 119 262 139
4 124 299 335 153
4 160 146 434 421
4 419 187 85 430
4 91 131 151 300
4 124 287 299 122
4 25 24 134 338
4 154 90 462 136
4 145 189 20 128
4 131 158 406 407
4 130 103 131 358
4 462 445 376 136
4 117 114 118 420
4 91 166 34 209
4 165 35 203 460
4 146 51 23 434
4 68 69 1 184
4 376 375 154 111
4 132 238 235 239
4 147 94 165 203
4 162 365 450 339
4 335 190 142 340
4 123 88 388 156
4 126 160 143 421
4 138 367 80 415
4 132 235 26 239
4 414 309 454 116
4 67 8 66 406
4 164 23 52 434
4 387 157 137 196
4 404 115 389 159
4 81 7 6 65
4 89 307 429 457
4 134 24 339 338
4 11 36 37 447
4 162 24 365 339
4 418 129 85 148
4 297 444 308 105
4 157 156 387 137
4 187 85 464 148
4 196 65 6 64
4 279 263 278 120
4 26 381 323 239
4 387 299 305 157
4 117 118 129 417
4 200 37 447 88
4 109 108 372 116
4 121 155 453 123
4 67 9 8 151
4 197 434 146 421
4 162 450 9 92
4 26 25 87 337
4 14 40 41 430
4 367 192 65 80
4 192 66 7 158
4 287 335 336 152
4 128 466 429 380
4 287 299 335 124
4 85 187 418 148
4 367 65 6 80
4 66 8 7 158
4 93 164 459 434
4 306 126 143 421
4 17 433 149 90
4 156 455 387 137
4 263 370 238 133
4 453 416 155 121
4 12 200 148 88
4 187 129 85 418
4 187 85 13 464
4 103 158 131 407
4 445 378 113 449
4 80 6 367 138
4 299 124 122 153
4 108 144 309 116
4 22 51 146 197
4 122 121 305 123
4 15 42 161 198
4 147 36 447 203
4 52 459 164 434
4 129 417 416 418
4 189 47 427 145
4 121 453 305 123
4 305 299 279 122
4 200 418 464 148
4 462 375 154 376
4 161 15 198 125
4 142 8 7 66
4 104 126 102 307
4 464 13 39 180
4 420 118 417 278
4 147 388 88 156
4 186 375 154 462
4 435 94 455 203
4 15 42 16 161
4 449 113 117 438
4 86 427 19 145
4 67 450 9 68
4 417 117 420 419
4 142 153 335 340
4 94 147 156 203
4 447 388 88 147
4 450 190 92 339
4 239 26 87 337
4 11 447 88 147
4 414 433 116 149
4 239 323 26 337
4 339 24 365 338
4 89 126 104 307
4 144 140 308 105
4 89 22 146 197
4 370 87 163 336
4 117 114 420 438
4 367 192 80 415
4 25 26 323 337
4 414 372 309 116
4 155 148 200 88
4 166 9 366 151
4 200 447 388 88
4 64 65 6 367
4 48 20 466 179
4 87 132 26 239
4 417 117 118 420
4 114 117 113 438
4 197 89 429 457
4 307 89 126 457
4 125 198 445 449
4 154 116 109 375
4 419 117 420 438
4 146 23 164 434
4 102 126 143 306
4 189 466 128 380
4 462 428 445 136
4 434 146 51 197
4 139 389 150 159
4 150 114 425 262
4 124 335 287 152
4 453 200 388 88
4 80 192 7 158
4 156 455 94 203
4 163 87 370 133
4 200 453 155 88
4 117 419 449 438
4 454 309 308 144
4 204 93 459 434
4 66 7 65 192
4 114 150 119 262
4 339 92 162 134
4 164 93 146 434
4 163 370 336 287
4 433 414 199 149
4 157 299 122 153
4 389 150 425 262
4 337 322 25 338
4 443 365 24 338
4 142 81 153 340
4 454 86 427 199
4 430 198 125 449
4 421 126 160 457
4 388 387 305 123
4 123 387 305 157
4 306 126 421 457
4 388 387 123 156
4 387 388 455 156
4 449 378 113 438
4 134 163 336 152
4 387 123 156 157
4 148 418 129 155
4 453 388 305 123
4 307 126 306 457
4 92 162 450 339
4 519 385 281 398
4 519 281 385 492
4 487 30 29 175
4 487 29 30 258
4 484 489 213 177
4 484 213 489 400
4 33 213 489 177
4 33 489 213 400
4 517 343 399 436
4 517 399 343 480
4 489 499 408 205
4 489 408 499 498
4 208 408 499 205
4 208 499 408 498
4 519 343 202 342
4 519 202 343 480
4 177 504 169 176
4 169 504 177 489
4 512 268 302 391
4 512 302 268 501
4 508 185 74 75
4 508 74 185 490
4 511 326 327 289
4 511 327 326 508
4 514 353 244 242
4 514 244 353 502
4 515 332 382 484
4 515 382 332 333
4 506 353 514 301
4 506 514 353 502
4 522 304 350 426
4 522 350 304 505
4 517 56 475 195
4 517 475 56 469
4 349 402 480 451
4 349 480 402 348
4 235 139 238 132
4 238 139 235 236
4 235 83 139 132
4 139 83 235 231
4 152 190 339 92
4 152 339 190 335
4 94 63 5 4
4 5 63 94 435
4 198 136 428 161
4 198 428 136 445
4 148 38 180 464
4 148 180 38 12
4 83 230 235 231
4 83 235 230 27
4 186 154 433 90
4 186 433 154 375
4 227 27 228 28
4 227 228 27 230
4 203 156 388 147
4 203 388 156 455

CELL_TYPES 2646
1
1
1
1
3
3
3
3
3
3
3
3
3
3
3
3
3
3
3
3
3
3
3
3
3
3
3
3
3
3
3
3
3
3
3
3
3
3
3
3
3
3
3
3
3
3
3
3
3
3
3
3
3
3
3
3
3
3
3
3
3
3
3
3
3
3
3
3
3
3
3
3
3
3
3
3
3
3
3
3
3
3
3
3
3
3
5
5
5
5
5
5
5
5
5
5
5
5
5
5
5
5
5
5
5
5
5
5
5
5
5
5
5
5
5
5
5
5
5
5
5
5
5
5
5
5
5
5
5
5
5
5
5
5
5
5
5
5
5
5
5
5
5
5
5
5
5
5
5
5
5
5
5
5
5
5
5
5
5
5
5
5
5
5
5
5
5
5
5
5
5
5
5
5
5
5
5
5
5
5
5
5
5
5
5
5
5
5
5
5
5
5
5
5
5
5
5
5
5
5
5
5
5
5
5
5
5
5
5
5
5
5
5
5
5
5
5
5
5
5
5
5
5
5
5
5
5
5
5
5
5
5
5
5
5
5
5
5
5
5
5
5
5
5
5
5
5
5
5
5
5
5
5
5
5
5
5
5
5
5
5
5
5
5
5
5
5
5
5
5
5
5
5
5
5
5
5
5
5
5
5
5
5
5
5
5
5
5
5
5
5
5
5
5
5
5
5
5
5
5
5
5
5
5
5
5
5
5
5
5
5
5
5
5
5
5
5
5
5
5
5
5
5
5
5
5
5
5
5
5
5
5
5
5
5
5
5
5
5
5
5
5
5
5
5
5
5
5
5
5
5
5
5
5
5
5
5
5
5
5
5
5
5
5
5
5
5
5
5
5
5
5
5
5
5
5
5
5
5
5
5
5
5
5
5
5
5
5
5
5
5
5
5
5
5
5
5
5
5
5
5
5
5
5
5
5
5
5
5
5
5
5
5
5
5
5
5
5
5
5
5
5
5
5
5
5
5
5
5
5
5
5
5
5
5
5
5
5
5
5
5
5
5
5
5
5
5
5
5
5
5
5
5
5
5
5
5
5
5
5
5
5
5
5
5
5
5
5
5
5
5
5
5
5
5
5
5
5
5
5
5
5
5
5
5
5
5
5
5
5
5
5
5
5
5
5
5
5
5
5
5
5
5
5
5
5
5
5
5
5
5
5
5
5
5
5
5
5
5
5
5
5
5
5
5
5
5
5
5
5
5
5
5
5
5
5
5
5
5
5
5
5
5
5
5
5
5
5
5
5
5
5
5
5
5
5
5
5
5
5
5
5
5
5
5
5
5
5
5
5
5
5
5
5
5
5
5
5
5
5
5
5
5
5
5
5
5
5
5
5
5
5
5
5
5
5
5
5
5
5
5
5
5
5
5
5
5
5
5
5
5
5
5
5
5
5
5
5
5
5
5
5
5
5
5
5
5
5
5
5
5
5
5
5
5
5
5
5
5
5
5
5
5
5
5
5
5
5
5
5
5
5
5
5
5
5
5
5
5
5
5
5
5
5
5
5
5
5
5
5
5
5
5
5
5
5
5
5
5
5
5
5
5
5
5
5
5
5
5
5
5
5
5
5
5
5
5
5
5
5
5
5
5
5
5
5
5
5
5
5
5
5
5
5
5
5
5
5
5
5
5
5
5
5
5
5
5
5
5
5
5
5
5
5
5
5
5
5
5
5
5
5
5
5
5
5
5
5
5
5
5
5
5
5
5
5
5
5
5
5
5
5
5
5
5
5
5
5
5
5
5
5
5
5
5
5
5
5
5
5
5
5
5
5
5
5
5
5
5
5
5
5
5
5
5
5
5
5
5
5
5
5
5
5
5
5
5
5
5
5
5
5
5
5
5
5
5
5
5
5
5
5
5
5
5
5
5
5
5
5
5
5
5
5
5
5
5
5
5
5
5
5
5
5
5
5
5
5
5
5
5
5
5
5
5
5
5
5
5
5
5
5
5
5
5
5
5
5
5
5
5
5
5
5
5
5
5
5
5
5
5
5
5
5
5
5
5
5
5
5
5
5
5
5
5
5
5
5
5
5
5
5
5
5
5
5
5
5
5
5
5
5
5
5
5
5
5
5
5
5
5
5
5
5
5
5
5
5
5
5
5
5
5
5
5
5
5
5
5
5
5
5
5
5
5
5
5
5
5
5
5
5
5
5
5
5
5
5
5
5
5
5
5
5
5
5
5
5
5
5
5
5
5
5
5
5
5
5
5
5
5
5
5
5
5
5
5
5
5
5
5
5
5
5
5
5
5
5
5
5
5
5
5
5
5
5
5
5
5
5
5
5
5
5
5
5
5
5
5
5
5
5
5
5
5
5
5
5
5
5
5
5
5
5
10
10
10
10
10
10
10
10
10
10
10
10
10
10
10
10
10
10
10
10
10
10
10
10
10
10
10
10
10
10
10
10
10
10
10
10
10
10
10
10
10
10
10
10
10
10
10
10
10
10
10
10
10
10
10
10
10
10
10
10
10
10
10
10
10
10
10
10
10
10
10
10
10
10
10
10
10
10
10
10
10
10
10
10
10
10
10
10
10
10
10
10
10
10
10
10
10
10
10
10
10
10
10
10
10
10
10
10
10
10
10
10
10
10
10
10
10
10
10
10
10
10
10
10
10
10
10
10
10
10
10
10
10
10
10
10
10
10
10
10
10
10
10
10
10
10
10
10
10
10
10
10
10
10
10
10
10
10
10
10
10
10
10
10
10
10
10
10
10
10
10
10
10
10
10
10
10
10
10
10
10
10
10
10
10
10
10
10
10
10
10
10
10
10
10
10
10
10
10
10
10
10
10
10
10
10
10
10
10
10
10
10
10
10
10
10
10
10
10
10
10
10
10
10
10
10
10
10
10
10
10
10
10
10
10
10
10
10
10
10
10
10
10
10
10
10
10
10
10
10
10
10
10
10
10
10
10
10
10
10
10
10
10
10
10
10
10
10
10
10
10
10
10
10
10
10
10
10
10
10
10
10
10
10
10
10
10
10
10
10
10
10
10
10
10
10
10
10
10
10
10
10
10
10
10
10
10
10
10
10
10
10
10
10
10
10
10
10
10
10
10
10
10
10
10
10
10
10
10
10
10
10
10
10
10
10
10
10
10
10
10
10
10
10
10
10
10
10
10
10
10
10
10
10
10
10
10
10
10
10
10
10
10
10
10
10
10
10
10
10
10
10
10
10
10
10
10
10
10
10
10
10
10
10
10
10
10
10
10
10
10
10
10
10
10
10
10
10
10
10
10
10
10
10
10
10
10
10
10
10
10
10
10
10
10
10
10
10
10
10
10
10
10
10
10
10
10
10
10
10
10
10
10
10
10
10
10
10
10
10
10
10
10
10
10
10
10
10
10
10
10
10
10
10
10
10
10
10
10
10
10
10
10
10
10
10
10
10
10
10
10
10
10
10
10
10
10
10
10
10
10
10
10
10
10
10
10
10
10
10
10
10
10
10
10
10
10
10
10
10
10
10
10
10
10
10
10
10
10
10
10
10
10
10
10
10
10
10
10
10
10
10
10
10
10
10
10
10
10
10
10
10
10
10
10
10
10
10
10
10
10
10
10
10
10
10
10
10
10
10
10
10
10
10
10
10
10
10
10
10
10
10
10
10
10
10
10
10
10
10
10
10
10
10
10
10
10
10
10
10
10
10
10
10
10
10
10
10
10
10
10
10
10
10
10
10
10
10
10
10
10
10
10
10
10
10
10
10
10
10
10
10
10
10
10
10
10
10
10
10
10
10
10
10
10
10
10
10
10
10
10
10
10
10
10
10
10
10
10
10
10
10
10
10
10
10
10
10
10
10
10
10
10
10
10
10
10
10
10
10
10
10
10
10
10
10
10
10
10
10
10
10
10
10
10
10
10
10
10
10
10
10
10
10
10
10
10
10
10
10
10
10
10
10
10
10
10
10
10
10
10
10
10
10
10
10
10
10
10
10
10
10
10
10
10
10
10
10
10
10
10
10
10
10
10
10
10
10
10
10
10
10
10
10
10
10
10
10
10
10
10
10
10
10
10
10
10
10
10
10
10
10
10
10
10
10
10
10
10
10
10
10
10
10
10
10
10
10
10
10
10
10
10
10
10
10
10
10
10
10
10
10
10
10
10
10
10
10
10
10
10
10
10
10
10
10
10
10
10
10
10
10
10
10
10
10
10
10
10
10
10
10
10
10
10
10
10
10
10
10
10
10
10
10
10
10
10
10
10
10
10
10
10
10
10
10
10
10
10
10
10
10
10
10
10
10
10
10
10
10
10
10
10
10
10
10
10
10
10
10
10
10
10
10
10
10
10
10
10
10
10
10
10
10
10
10
10
10
10
10
10
10
10
10
10
10
10
10
10
10
10
10
10
10
10
10
10
10
10
10
10
10
10
10
10
10
10
10
10
10
10
10
10
10
10
10
10
10
10
10
10
10
10
10
10
10
10
10
10
10
10
10
10
10
10
10
10
10
10
10
10
10
10
10
10
10
10
10
10
10
10
10
10
10
10
10
10
10
10
10
10
10
10
10
10
10
10
10
10
10
10
10
10
10
10
10
10
10
10
10
10
10
10
10
10
10
10
10
10
10
10
10
10
10
10
10
10
10
10
10
10
10
10
10
10
10
10
10
10
10
10
10
10
10
10
10
10
10
10
10
10
10
10
10
10
10
10
10
10
10
10
10
10
10
10
10
10
10
10
10
10
10
10
10
10
10
10
10
10
10
10
10
10
10
10
10
10
10
10
10
10
10
10
10
10
10
10
10
10
10
10
10
10
10
10
10
10
10
10
10
10
10
10
10
10
10
10
10
10
10
10
10
10
10
10
10
10
10
10
10
10
10
10
10
10
10
10
10
10
10
10
10
10
10
10
10
10
10
10
10
10
10
10
10
10
10
10
10
10
10
10
10
10
10
10
10
10
10
10
10
10
10
10
10
10
10
10
10
10
10
10
10
10
10
10
10
10
10
10
10
10
10
10
10
10
10
10
10
10
10
10
10
10
10
10
10
10
10
10
10
10
10
10
10
10
10
10
10
10
10
10
10
10
10
10
10
10
10
10
10
10
10
10
10
10
10
10
10
10
10
10
10
10
10
10
10
10
10
10
10
10
10
10
10
10
10
10
10
10
10
10
10
10
10
10
10
10
10
10
10
10
10
10
10
10
10
10
10
10
10
10
10
10
10
10
10
10
10
10
10
10
10
10
10
10
10
10
10
10
10
10
10
10
10
10
10
10
10
10
10
10
10
10
10
10
10
10
10
10
10
10
10
10
10
10
10
10
10
10
10
10
10
10
10
10
10
10
10
10
10
10
10
10
10
10
10
10
10
10
10
10
10
10
10
10
10
10
10
10
10
10
10
10
10
10
10
10
10
10
10
10
10
10
10
10
10
10
10
10
10
10
10
10
10
10
10
10
10
10
10
10
10
10
10
10
10
10
10
10
10
10
10
10
10
10
10
10
10
10
10
10
10
10
10
10
10
10
10
10
10
10
10
10
10
10
10
10
10
10
10
10
10
10
10
10
10
10
10
10
10
10
10
10
10
10
10
10
10
10
10
10
10
10
10
10
10
10
10
10
10
10
10
10
10
10
10
10
10
10
10
10
10
10
10
10
10
10
10
10
10
10
10
10
10
10
10
10
10
10
10
10
10
10
10
10
10
10
10
10
10
10
10
10
10
10
10
10
10
10
10
10
10
10
10
10
10
10
10
10
10
10
10
10
10
10
10
10
10
10
10
10
10
10
10
10
10
10
10
10
10
10
10
10
10
10
10
10
10
10
10
10
10
10
10
10
10
10
10
10
10
10
10
10
10
10
10
10
10
10
10
10
10
10
10
10
10
10
10
10
10
10
10
10
10
10
10
10
10
10
10
10
10
10
10
10
10
10
10
10
10
10
10
10
10
10
10
10
10
10
10
10
10
10
10
10
10
10
10
10
10
10
10
10
10
10
10
10
10
10
10
10
10
10
10
10
10
10
10
10
10
10
10
