# vtk DataFile Version 2.0
whisker_body, Created by Gmsh 4.13.1 
ASCII
DATASET UNSTRUCTURED_GRID
POINTS 604 double
9.5 0 0
6.509335140664497 0 38
12 0 0
4.916846385784335 0 90
9.200933514066449 0 3.8
8.9018670281329 0 7.600000000000001
8.602800542199349 0 11.4
8.3037340562658 0 15.2
8.004667570332249 0 19
7.705601084398698 0 22.8
7.406534598465148 0 26.6
7.107468112531597 0 30.4
6.808401626598048 0 34.2
8.678681847604707 3.863998109220104 0
6.356740760409149 7.059875842035249 0
2.935661446561997 9.03503690480396 0
-0.9930204010427108 9.447958005998597 0
-4.750000000000005 8.227241335952163 0
-7.685661446562003 5.583959896778492 0
-9.292402206971154 1.975161062768714 0
-9.292402206971154 -1.975161062768711 0
-7.685661446561999 -5.583959896778497 0
-4.749999999999989 -8.227241335952172 0
-0.9930204010426985 -9.447958005998597 0
2.935661446562007 -9.035036904803956 0
6.356740760409149 -7.059875842035249 0
8.678681847604709 -3.863998109220101 0
5.476001183466167 3.519212271541293 38
2.704075542092794 5.921099512433924 38
-0.92637497781025 6.44307949461876 38
-4.262707987711355 4.919427261886439 38
-6.24566133036951 1.833891632517215 38
-6.24566133036953 -1.833891632517144 38
-4.26270798771141 -4.91942726188639 38
-0.9263749778103032 -6.443079494618753 38
2.704075542092765 -5.921099512433937 38
5.476001183466156 -3.51921227154131 38
11.34980690040761 3.896393630456207 0
9.469686112756717 7.370552552276022 0
6.563377897469113 10.04599773915035 0
2.945825845689581 11.63280319127197 0
-0.9909521456679979 11.95901391608004 0
-4.820345095835646 10.98927991986068 0
-8.127378859508902 8.82868692807757 0
-10.55368501447787 5.71136871644487 0
-11.83633564083267 1.975135083368787 0
-11.83633564083267 -1.975135083368821 0
-10.55368501447786 -5.711368716444897 0
-8.12737885950888 -8.828686928077589 0
-4.820345095835619 -10.9892799198607 0
-0.9909521456679715 -11.95901391608004 0
2.945825845689616 -11.63280319127196 0
6.563377897469155 -10.04599773915032 0
9.469686112756747 -7.370552552275983 0
11.34980690040762 -3.896393630456205 0
3.476735421440674 3.476735421440667 90
1.012690292828946e-14 4.916846385784335 90
-3.476735421440661 3.47673542144068 90
-4.916846385784335 1.588676900374471e-14 90
-3.476735421440683 -3.476735421440658 90
-1.400432058674011e-14 -4.916846385784335 90
3.476735421440664 -3.476735421440678 90
11.69203679938193 0 3.91304347826087
11.38407359876386 0 7.826086956521739
11.07611039814578 0 11.73913043478261
10.76814719752771 0 15.65217391304348
10.46018399690964 0 19.56521739130435
10.15222079629157 0 23.47826086956522
9.844257595673493 0 27.39130434782609
9.536294395055421 0 31.30434782608696
9.228331194437349 0 35.21739130434783
8.920367993819276 0 39.1304347826087
8.612404793201204 0 43.04347826086957
8.304441592583132 0 46.95652173913044
7.996478391965059 0 50.8695652173913
7.688515191346986 0 54.78260869565218
7.380551990728914 0 58.69565217391305
7.072588790110841 0 62.60869565217391
6.764625589492769 0 66.52173913043478
6.456662388874697 0 70.43478260869566
6.148699188256625 0 74.34782608695652
5.840735987638553 0 78.26086956521739
5.532772787020479 0 82.17391304347827
5.224809586402407 0 86.08695652173914
7.165963545042688 3.227875825419492 20.84576108313734
7.165963545002758 -3.227875825509662 20.8457610831294
-6.757770258939417 0.1093099772913775 34.8321000958071
-9.227411163044923 -0.2301696720361287 3.42709966559957
-2.756477745673985 8.794897621837356 3.599092337567179
-2.852473723687039 -8.779011419616614 3.420524623648447
6.511062847237091 3.215153160471303 28.44129336621526
6.055467680375261 -3.992464153099542 28.54869618324534
7.811343866351215 3.242887199787446 13.24313553580788
7.810813705321477 -3.242268330504997 13.25237196513353
-2.957804230200128 6.070560587879079 34.90648200529734
-2.815810776758148 -6.146329561034047 34.80695903709694
4.615399436941611 7.994106322007669 3.420524623648447
4.83781578220719 -7.87197781068837 3.307122482826931
4.424287673744923 5.105900160037494 34.8648836836195
4.243141179108031 -5.231744885301158 35.11834124802314
8.473518115761937 -3.186252520817465 5.682547021539391
8.453272702647315 3.24609119628459 5.652926339464768
6.841401847043517 3.219121016611276 24.63834066878137
5.042300439385664 5.849641980880089 22.58026174088114
5.421061794229273 5.911557017824885 18.79407966541476
2.396682114563374 7.519091968405612 20.4338592809288
2.801565326746696 7.694785843842866 16.65878364512395
-0.6314351064600693 8.043717998198664 18.18939091350012
-1.099083446579656 7.694596739690652 21.94747801992491
-3.967234044167157 6.897724027934899 19.6027247710685
-4.340394410899486 6.31585146339002 23.33513475827569
-3.599930914249719 7.425962225389907 15.85048130668007
-6.337573647675175 5.122440793135218 17.1676118926785
-6.073724208256141 5.865263175990504 13.42504912635275
-7.891630098661287 2.720104046136101 14.64691838371761
-7.842038660067843 1.835085171405523 18.37459828629876
-8.207533689824269 -0.9310426204147653 15.75350212878072
-7.755529845837709 -1.836193251865022 19.44133115157788
-6.907245144974849 -4.38850708654575 16.72821718022958
-6.012885030001121 -5.119655803445472 20.36559015334586
-7.184069125481111 -2.721265987717252 23.09738781509904
-5.029806669925094 -5.714664094377556 23.97780014712663
-4.290346981160607 -6.885436002549343 17.62700077184184
-7.669989266616804 -3.597605730198524 13.06443939423562
-1.545184352429115 7.317493518425391 25.68105331978249
-4.676012012972628 5.698919036378999 27.0419212244486
-3.183191560958293 7.93507193871506 12.07418241978065
-6.486517210658734 -3.556105145627852 26.71669940595505
-3.92719543735971 -6.191516278214719 27.54747313320073
-1.727290899342967 -7.35391442388291 24.72570655424724
-0.3917995781091284 -7.266994329193269 28.23892262282337
-7.87004361458791 3.571243421615145 10.89662924136395
1.857223805083817 -7.274283165711066 25.31548853061743
0.6558634539634522 -7.753728029219149 21.83666362215987
-5.589670388363913 -4.416894370244252 30.18816341607905
-7.112722222592738 -1.082226702942338 29.29309377400998
-6.666704661139939 3.575851101845914 24.58445946995744
-1.989517310567519 6.913699758521038 29.29716341657648
1.444989951716833 7.156572415502845 27.94101060970913
-4.676148359855794 5.27743789853183 31.1164923367339
0.9972616892335463 6.955566408941645 31.42632664608597
4.185650843951429 -6.512044831453875 22.34748952049499
3.333227429964905 -7.301652564842472 18.72272484019507
3.424019115951647 -6.391330294917085 28.57975144471907
0.9463684290960002 -6.946506917674352 31.62986621295858
-2.698628639887295 -6.517043317084026 31.08339900587782
6.841401847035502 -3.219121016625301 24.63834066879765
-6.710213305190358 2.810735485411662 28.2699331295152
-7.474078968556046 0.04839405798842326 25.73977669621384
-7.710784815029781 0.8955989771485795 22.07548083673846
7.472946860066612 3.276485951027463 17.0304447544804
7.546924590474208 -3.100481762567241 17.03919424410282
5.148665062893473 -6.49638129300256 15.38399425640435
6.106706934722866 -6.07294972846659 11.27865122330838
2.90185719029196 -7.979188478858452 12.82718778116541
3.537026083253568 -8.037525555744841 9.131123940037632
0.09584390269594527 -8.658388807644261 10.68694404773794
-0.2341486476399843 -8.350159833047099 14.56839948881259
-2.911955453073997 -8.034669447077848 12.12076651734322
-2.903629018790109 -8.34343707151009 8.459133809867158
-6.356456962838839 -5.96508335444608 9.948465959819229
-5.652042500613817 -7.033050033845243 6.064487098376769
-7.741379310022922 -4.474935962525236 7.093869414637776
0.4713026302773968 -9.014453345078474 6.013014524109176
8.122979612096442 3.272684776184847 9.434750809682004
6.168236714401489 6.024201959454532 11.15658609102435
5.775249418414789 5.992349417390671 14.96327279484052
3.240441485314765 7.84570618654748 12.85162680230212
3.585974863204541 8.015754034169262 9.131733192738094
8.121707983614941 -3.262109770688718 9.499888186106041
-6.542767177680529 4.347392820155565 20.89636751801135
-5.763066457057438 -3.538835614991413 34.77864514999985
-8.551617811364984 0.03276458569677565 12.04954073004289
-8.774492427119478 1.083735229909702 8.37129179022806
-7.639759503144557 4.654802111712341 7.037680785874408
-0.5391780537830303 -8.045509419591014 18.25175200571327
-5.695035017219661 3.641794222254926 34.81642103447957
-0.2295160419589692 8.358471210852507 14.46446687914045
-5.807243160193619 6.526192333595335 9.709312336760751
-2.732608786343866 8.419228650710947 8.238890270213592
-2.978053980996074 -7.241222228187524 21.22325265481366
6.072662298340608 -6.573821337890212 6.995614644357711
6.18626486849332 -3.198289302234085 32.22144685693117
5.843556435718703 3.781673686588956 32.2677287231469
4.658622766274363 5.781495012278182 26.36723529486667
4.161494213591575 5.793970915656433 30.06806610585933
1.959831774341767 7.332225331032584 24.27356460346718
6.103824367085856 6.550052408193062 6.947704345551676
-6.797051259940745 1.663188153760476 31.79628372710674
0.2602439723002279 8.661343491877023 10.60647474906805
-8.112055416643756 -4.360867942377557 3.685825605062609
1.16282883038325 9.160939569821457 3.374189158857825
-8.466810090841095 3.695864637841767 3.325143878628492
-6.292370892113896 6.76169303557773 3.347058784363603
0.8024287685260389 8.914275826653549 6.984362703997141
0.9286860897676538 6.678266817238487 35.03698333509327
1.054868303292448 -6.652789078147661 35.12121971370426
7.351200357555205 5.613727255657363 3.182334093282229
7.351200357546162 -5.613727255670259 3.182334093274109
-5.513019471868735 -6.332546536593914 14.02635358654869
4.665940315825403 -5.830163141889109 25.8268541984232
5.776325826079193 -5.561772341718891 18.8219372245732
-5.523574585154674 7.085241826170397 6.557623665771659
3.871020592324884 -5.820291812030905 31.89212198850738
1.095842965857079 -9.210862864919992 2.848456533342631
-6.618964911391703 -2.129001002504952 32.36349587571634
-8.33161473361449 -2.508284785145181 10.15233378876703
6.177348618664236 -2.671463685231831 35.19292644636364
5.98232802311016 3.091869594073032 35.14427720136633
-5.737731569909912 -7.283153503242446 2.89982090425698
-8.889083099374718 -1.439241558388161 6.291554114404918
2.465349906763366 -7.869946982010069 15.92009905173164
3.389501311244971 -8.352405411393972 6.175779843027866
-1.72166621808923 6.74675870005108 32.23608072040539
8.860742209125451 2.767160446477979 2.760093187745131
8.865769642282411 -2.748067192417523 2.771170526131514
-4.548109165612663 -5.204961948165993 32.88257156414683
3.541043514518986 8.288568997573115 6.184259057249276
-8.84410487819326 1.973729114048868 5.569556627533827
-2.943520193200368 -7.767250369585041 15.16749622220993
3.320158827788203 6.086484051398578 32.61476234291484
3.097926746234105 0.8306961747363083 38
-2.876131234616621 -1.918125949959276 38
-1.412557769058212 3.093070066815648 38
2.904741247010656 -2.079758754925546 38
-0.04324217341245105 -0.004887017990507628 38
-0.4166065974078942 -3.547729665302401 38
1.482638091918692 3.300378417025903 38
-3.513395724608577 1.03162606492149 38
-10.56436892390191 -7.938094626069869e-15 0
0.9743786863852381 -10.51870300453864 0
0.9743786863852173 10.51870300453864 0
5.882532692314101 3.034117225990431 68.3731461739694
8.761134217272263 -3.360075863416654 33.2474703355107
7.444073633621672 -3.32330548330359 48.89075786880321
9.097838897250501 3.346925046322303 29.30120027615956
5.392052753219706 -3.274245444183336 72.31963636715948
6.432277693258004 -3.304580803100915 60.58966172204823
8.111539840237866 3.335203565040108 41.03541898028857
7.321300498158378 2.802933603539936 52.86406956696663
9.749158709004757 -3.353034939578846 21.47789884144384
-11.09527489538306 -3.809012682760156 3.419408766471422
-6.232417709117767 9.90547471251949 3.773063807804331
10.07327899865776 3.35569553745293 17.5661269536686
-2.879762434608147 -11.37192468062311 3.419408766471418
-4.77512754426315 1.977922590895146 86.80166499961167
4.975091048256381 3.366780046820462 76.14544023663987
4.677600194425128 -3.245052061620394 80.13796914691699
4.712243512000815 10.74283313214683 3.419408766471414
8.094005876593265 -3.375425796414379 41.04572803190014
6.429300240358695 3.313203567909281 60.57317414329373
10.39529630921983 -3.361133360715474 13.65697322923673
7.94511337650492 -8.630693833987381 3.419408766471494
-11.09527489538305 3.809012682760122 3.419408766471707
10.71886229875082 3.360370264401352 9.742374045709338
-1.977922590895141 -4.775127544263137 86.80166499961184
4.311926756886878 3.226424223996109 84.04647073103105
10.31700692552852 5.583284939902489 3.419408766471418
11.04046708034911 -3.362429988012162 5.830404183151199
6.088984370403173 3.295834611060499 64.49992465939702
7.765166913722355 -3.350321649835772 45.01686388351295
5.642465952373489 -6.105819011158633 46.83824051597185
5.278174308767673 -6.019514490203671 50.75045232654161
5.984442864799706 -6.206250295463599 42.92729601242142
6.396940972651818 -6.231243688739046 39.00495262512634
9.086075975578847 -3.364995447079913 29.36190813501666
7.186650322459056 -6.280757126440494 31.20116892123903
7.525273572533949 -6.357969958979541 27.29833154736032
4.753303731437001 -8.469423647642335 29.07042973767144
3.370202731327975 -8.121163331084361 40.75261983587605
2.559268626934247 -7.764030207104497 48.60170253803337
4.016223647364358 5.846026142383436 62.35344445944653
2.146374649309608 -7.56989215292062 52.49818860167751
5.148646116747108 -8.595185611806073 25.16756014364522
1.779393970086121 -9.725914767381132 26.8437821079296
2.20638639946526 -9.952680519593448 22.94344558344133
-1.390068821346363 -9.972955308761598 24.53103259285466
-1.872603503538257 -9.582011328381846 28.42025569098686
-0.9573519812648098 -10.33140158012547 20.6391592563287
-4.428901807174558 -9.252113486982088 22.14027130742131
-4.037308187311642 -9.760986621122488 18.25896764048095
-7.072090658922515 -7.69539499950797 19.67572930829989
-7.340553197130386 -7.006040679931262 23.54039110572294
-9.241029338370721 -4.656921516054799 20.98915390189487
-9.291098620858964 -3.819946952355009 24.83147041906633
-10.19754074070077 -1.062915472618865 22.20045527092454
-9.951242484739735 -0.1474951522568342 26.01804442834153
-10.36839462975035 -1.969492265274511 18.37582613462738
-10.30910698054933 1.799943501483316 19.50326035495187
-0.4830682840875632 -10.67239912288453 16.7299272841018
-6.761221641708767 -8.366204789781623 15.79708937771687
-10.72766976735487 0.8912042249202652 15.69693226916562
-9.65936334505145 4.561775252415732 16.74203796750495
-8.909796902742343 5.334676014514031 20.52356477260793
-7.367816887665445 7.632038523478229 17.68519616635078
-6.288996548406944 8.174097500732019 21.4295900705818
-4.161623951264341 9.686255251707024 18.52028865294992
-2.856236677172238 9.844657049179704 22.22788748248901
-5.154213004412801 8.592174289334226 25.16401045481412
-1.559816514147325 9.838143130380745 25.9075899464302
-3.913828684642279 8.904822906648826 28.88159722857741
1.004310380419199 10.14748324587118 22.90851048597375
-5.406611160624327 9.389934684724627 14.79974248896065
-1.75042041486365 10.63245958988927 15.55770512992591
-9.301037459005194 -2.901333069899416 28.67726350161914
-1.040442115774982 -7.980330880159757 50.21658143685499
-1.442379091776882 -7.606445646241482 54.10309459440504
-0.1250207309835799 9.669824838389541 29.59741402895972
-2.607231249545587 9.068135906008155 32.5850059258356
-4.367351747458009 -6.618605545547982 51.71841880748401
-4.70077654667081 -6.005424223058169 55.57148776399082
-4.027683922728265 -7.181614857975521 47.85228170525615
-6.669438796628113 -4.640149282390462 49.23906568254564
-6.489367948549477 -5.376786287159096 45.39369221409468
-8.081338417716399 -2.006883735697035 46.6724200134205
-7.94300737481695 -1.15157696780088 50.49380880202751
-8.054702358703601 1.718686788996324 47.82583190746502
-7.50002585831472 2.592533800193574 51.64480216718837
-8.493694435046582 0.8353771937114929 44.03111191360664
-7.22075850868316 4.392874054589224 45.08131982530425
-7.968353879050508 3.611965672567817 41.31080633394408
-5.592737911457911 6.630075550421502 42.26205048630532
-4.501187190262831 7.068422286602464 45.99731044476754
-8.833959364718867 -0.05768113620453646 40.2259677863333
1.258121736599569 9.297866231519297 33.25721756574674
-2.189992843523738 8.325822145870905 43.08636976099512
-6.040938152559184 7.329697393614453 31.78731655706044
-0.8490421273941254 8.275380698317024 46.7738022788136
-3.060869367942002 10.63507428280586 11.85762311919233
0.7609463124311958 10.98625033339212 12.5464660089915
-10.34050733264246 3.693037689722959 12.95788755165876
-11.06488933817399 -0.02580015126101965 11.88132532717288
-1.833796308037469 -7.207077392902876 57.98199635602757
-4.976216360069086 -5.372423077696577 59.42750082491246
-2.23903840304164 -6.771644093497381 61.85110320282616
-5.228928235931552 -4.684523190597766 63.27142629414203
-7.033983278959626 -1.627555646022991 60.73789531935179
-6.838844256449581 -1.099797597414638 64.46223015429378
-5.514698123306108 -3.846127291505378 67.04510353869233
-6.617591895426104 -0.3135019341672901 68.29567692667129
-5.606229527340092 -3.13101449792251 70.88413640827797
-6.308332778112606 0.5000496627842317 72.06805911176232
-5.662546931070779 -2.329424622486347 74.67485516220229
-5.878838802128652 1.359035064303501 75.80672734091895
-6.480239643787923 2.186539581916424 65.57436296636912
-5.64255451299522 -1.456265696968626 78.429730149195
-4.850438870505379 3.939648962044648 73.07583344017783
-3.879895188742619 4.522591329047912 76.76059444293737
-3.147718793807604 -5.720122247718071 69.51555743316192
-3.771445752462835 -4.572199705316596 77.16533423686104
3.821582239824033 -8.259439205860501 36.83903913179961
0.2679893214081451 -8.967497751199701 38.48072550390874
4.436511955651337 5.922315716675839 58.45157949356846
1.102017906817535 7.186699547651751 60.09144063278592
1.649533032620681 7.389860233213573 56.26659057969071
-2.021794919485863 7.177793264903977 57.72299156237126
2.284046954402538 10.48190075000633 16.16399214874544
4.624498775366043 9.945193085031919 13.11521849432062
1.673792328892507 8.389889955062769 43.77004655644158
-0.6712683029582036 11.28189042777951 8.870927150280256
2.982776391438541 7.712265004974961 47.40713759439033
-8.607533230495376 2.783609401870825 37.52851492571786
-9.089558032838569 -0.9055465254168898 36.40894147559724
-8.116450050519648 -3.722596613634824 39.01545696140082
-8.039120896153818 -4.540137914101906 35.16355401588191
0.6159718728400707 6.937720439046129 63.97559377359266
-9.612635556109463 0.873429837889014 29.8311817612569
-1.546100646199615 7.605911966971451 53.85570567852417
3.499257505209797 8.959570473599682 30.25773680772154
4.907215800324921 7.946750337379167 33.80122011421108
-6.58401908058905 8.972635023146545 11.06547994510309
5.563381014274576 -8.703383754838864 21.22477593811434
6.095960941858658 8.778357580046402 16.67829342241662
-1.699524549653678 5.945643417702153 73.90215992770527
-2.915855417239895 5.810712033012674 69.86791535844922
2.613872822132609 8.712434502139727 36.89768002682978
-3.480471329276222 8.191794063300726 39.38268857108017
-3.671068599153126 -7.708908105449651 43.98399602870383
-7.721762373802481 -0.2590723354915183 54.3049568002719
0.7976129589692172 -9.243840943771293 34.5838941828704
4.882056449416177 -5.952194580463466 54.65888120246666
8.240780742026836 7.188631923365593 13.52474644424969
6.701688881387853 8.989256406261985 10.00658478613566
-9.186804807081062 3.604064055477175 27.08368224325795
-3.82817798227404 -4.123704639453275 80.98030365370536
-2.851767024321115 -8.700783147268101 36.13376341463495
-6.650709389849927 3.762527202888187 55.38329894867688
0.6641150648285492 6.392306150336847 70.81533876915351
1.247838994958387 -7.148894065483526 60.26575710256309
0.7569219864385922 -6.909897667406292 64.15068869332038
-10.89226463613051 2.903801160134338 9.241377807770084
-5.485374388763354 -0.7887054638188169 82.05939341382769
-0.6265889873494532 -5.709045092986822 79.49856301260031
-0.5072131363647663 -6.019006224969997 75.72466665339989
-4.778387815024167 -1.955721669853883 86.87076107435766
5.198470080460257 6.733612580334388 44.38532684185948
5.817887028773413 5.825693631825117 47.86101164841617
3.865262949976788 7.019594484830616 50.65425069363864
-11.30653650817556 -1.0489797661577 8.194326352140438
-10.50954326366704 -3.747106871560705 10.7041215291871
-0.3400455911180617 5.888772762774362 77.52585977827815
-2.647313760743013 5.016896417192675 80.39821528758684
6.708266554213979 6.073314761481323 37.49489292721194
7.5080180455257 5.506296748845615 34.17045224470746
1.001188357840137 5.573283448777856 80.52561708171129
-1.014146165170436 5.302225469390298 83.88202871016836
-3.289351348534872 7.388132573989474 49.71563488096906
-4.866863496461677 7.81194264018829 35.52710609559806
-9.157055771842984 1.867949590389992 33.7268966183169
-3.257396011912802 -8.230342779255373 40.00540034941432
0.5148484533925356 8.013523551147541 50.4430563296219
3.587371717316747 5.759884569498388 66.25416783076753
4.081387301658882 3.950118120924277 80.30460595171829
5.039819814078843 -3.257890583034147 76.22279256047571
2.941900710693616 -7.959206829293677 44.65592443121763
3.869532215274223 -3.759728977622457 83.9211656190424
1.977922590895113 -4.775127544263146 86.80166499961187
-0.02694500415173988 -5.421482863079504 83.58713481368336
1.796256520782137 4.845398529324702 86.81346183513952
3.567806541668493 8.043531106236864 40.66878149399027
5.410263255561798 3.22565603620983 72.43968256372399
5.760841837250857 -3.238424972780768 68.50317377002024
3.262752318554094 -5.595684211277288 70.1707726030107
6.055937652046261 -3.340902873666209 64.59379158165197
2.877558300701427 -5.461670414254803 74.03467444558733
-0.6041310616594299 -8.327062293741495 46.39100806840104
-5.05108305114577 6.003022469851341 52.78966981541394
7.584317819646633 3.769648454296886 44.85948385009227
1.703495705499928 -7.367801708684594 56.38798956240662
-2.304875975251265 6.775300204197793 61.54103444854283
-2.601569640531934 6.33766499195384 65.42613888815882
-5.335382801414286 5.06164464750532 59.02850033951773
-2.712518211486937 -6.267324104592144 65.70204922954041
-8.136295463381332 -2.86438345618937 42.87359212854845
6.786107291261455 -3.270088265733165 56.75976317967768
8.440423486721798 -3.330187452802038 37.18296132010922
6.854065902487641 -6.195382058666741 35.08055416589315
4.347588374151233 -8.34197747544443 32.9482263233978
6.802354484989559 3.250466119560555 56.68150668943527
-0.3822046052299544 10.47643017840792 19.27023368848495
9.421507971240715 3.359526792971118 25.3798649656226
7.60196922101851 6.282548912960122 27.16501997056178
7.97999726488355 6.303663133499057 23.26008528831785
5.700617796096138 8.261631438342061 24.93580588479022
5.921170825984071 8.486423836413136 20.99154076554923
10.06601973383966 -3.368964047358125 17.60022003457568
8.676540204910301 -6.394259069213923 15.5248513557001
9.04830512560264 -6.406254941153265 11.60628953426565
6.463082159290792 -8.833153421465905 13.40330152237497
6.801138632432897 -8.957772615337491 9.566547573591063
3.651767118644493 -10.50095756914478 11.2093931792767
4.084253836771135 -10.670417697459 7.301442270574167
0.5520712186318333 -11.28319020959088 8.936423921998244
0.6951726569282821 -11.57654660235241 5.1155128229866
3.220315369023163 -10.31874387967105 15.12578691765245
0.1308801271771022 -10.98862028718742 12.84089451634883
-3.096848178692583 -10.73513537183145 10.50935556732453
6.042605370186045 -8.753314012208318 17.3258338104954
-3.528275529131824 -10.28191580117798 14.3523885020083
-6.355295977589547 -9.06739224404536 11.78091233218501
-5.849861518246992 -9.756354438350881 7.93204732194576
-8.638293966001022 -7.248417920216906 9.192808003037653
-7.861188401203418 -8.49499807809476 5.409659880078284
9.082933198720372 -6.939926329135327 7.2328917841973
10.13693263752809 4.082548729604525 13.61906124761201
7.913003008003731 -6.374381815987107 23.36518546122746
9.39169398552715 -3.436980760701914 25.4017667770846
10.68440983544813 -3.481633344292967 9.690189589694674
-10.48208663910838 -2.823851080155597 14.53850875426139
-4.821304375860175 -8.706912331274326 26.01401238804474
-5.230228658577586 -8.106337999873766 29.89546159888911
-6.80009010730399 -3.866900616242304 53.07802654284345
-6.950200346178208 -2.870359896030866 56.92899238508203
-9.109942113083127 -5.508769135256172 17.20404206349653
-7.598479119546789 -6.258066714412638 27.39719255447565
-7.834090852068319 -5.443071608729307 31.26498350474141
-9.796003533039597 2.719139918265026 23.29827313296809
-8.054122776299522 6.074733801530114 24.29203380861613
-7.069373921862779 6.776624942223044 28.04528987658128
-8.498493393293725 4.399707941858735 30.87812224951436
-7.349551774833513 1.070285507822631 58.10453899683465
-6.836241412419263 2.093370140829076 61.63051753080412
-1.248655500239205 9.059670884365707 36.27221856808522
-6.298036160685535 -6.039759982842152 41.59947060207183
-8.362286983105889 6.998195608998862 13.92287201870734
-6.279379540361345 5.204232107993284 48.84708857790606
-8.916769129360569 -6.383441009581959 13.13593609044053
3.553948224936617 10.67635037680859 9.500005792195388
2.664685576981348 -10.15891911184829 19.02652504229729
-6.645114248422858 6.016431463789335 38.57483632662827
-4.461487028554049 3.13429706479169 83.19512418262121
1.321409775923529 -9.48768245019289 30.75840483916328
-5.303825608664269 2.200213360669558 79.51438818780771
-5.722896030928295 3.151279224438465 69.46286595352004
0.306999731959308 8.831631591878894 40.19015951464475
-0.1956146444732466 -8.658879848122821 42.42488481991021
-6.020783698815059 -6.736123134085569 37.67813986462492
2.07533052671976 5.801548425415736 74.18427035583917
-9.243946248869809 6.31891229353713 10.19945917496771
-7.859953050096352 8.28980736901261 7.323227304750779
-4.413620841303597 10.46106803285044 8.207829268069876
-2.049542204032779 11.40808326640564 5.200287527236692
8.321157320499958 -6.359909703460214 19.39850350672654
-9.242158556495452 -1.860042094099391 32.68705191459082
-3.495479247314695 -5.152945271717242 73.35731618061774
9.751605925088132 3.347213184751577 21.47252828368471
8.369748994075753 6.288984600998824 19.45073291461598
4.427043295890681 -10.85751798272612 3.489446786486235
-9.217471329342844 7.184905734794147 3.977760117292205
2.062914175867 11.35261537071276 5.863633559497195
-5.698028322013657 -7.389577816665881 33.90889377263869
4.851782181251599 6.017623419968718 54.25657749596578
-2.36531573340662 -9.151303827772528 32.37488790598727
7.123485394189939 -3.290985436032312 52.76949953231465
7.945744173616447 8.632410225958976 3.397934789262839
8.992784199502282 7.111972149434871 6.795552874748522
-11.7367362185492 0.02571422374193841 3.344725587674406
6.859237610097548 6.674281726216287 30.86925515033936
3.675936034593867 -5.681746655685199 66.48925819886773
-10.45037720818454 -4.720628574647351 6.770950614592108
4.489138361571896 -5.872306864360652 58.55475770853798
4.040432979726693 -5.824708893099188 62.40159520271804
8.467488803274817 3.228517828256073 37.32953254078796
-7.630563342762712 5.248357062951099 34.79912012437306
2.475514429172888 -5.320756046150079 77.90882579550647
0.3157542061563347 -6.64607553937695 67.93280836021832
-0.1832039782618384 -6.340055958268051 71.88278204320684
2.2615979920661 9.666049008122105 26.33868252108281
10.96889972113991 3.513122029852268 6.127444545292837
10.23355556339068 -5.767975609078225 3.212942893686346
6.31659328434726 9.598981046814137 6.469278923036199
0.520321393056268 6.661450127539925 67.5748978081201
-2.447706552733234 -11.18469695596758 6.996062404500508
-6.873934075615895 -9.537579524245361 3.09336609662167
9.044714396045258 6.566187266729274 10.45928420105067
-10.12725587408353 5.359903896121726 6.8844800627082
-1.960479792422175 4.733016903624036 87.38081672091647
2.743868296643236 10.09657118876374 19.53235490093074
-3.934531908778856 -3.648620072674639 84.29412987467838
-5.157829124097233 4.783353876018647 63.09312443817997
7.619028691446019 2.905898374370166 48.86328929959701
2.294807929385289 -5.122724751483457 81.15149259412607
2.579570605117935 5.270755976376869 77.91268372006499
0.634984800762353 11.77146908553291 2.686307158045032
8.536595102227285 6.478175133275283 16.31028907492415
-11.41622633723772 1.550162936816094 6.086389020836362
3.533521297019118 5.421747150518269 70.24546490212704
6.778774683958076 -9.28300402095201 6.421649157490795
-4.578716458575989 6.054098399626707 56.0271212575303
9.045104396690059 2.500615328406234 33.23433068873477
-9.514174609424737 -6.920414404623029 2.987886449775589
2.027915630100859 7.550526048427958 53.13591685051974
6.413288196025137 5.92265536901018 41.55277384727397
4.150099335250674 -3.044601969925797 87.07399589791389
4.326193519407976 2.783957517382265 87.10678197913106
11.42788698796132 -2.83397060423707 2.871108874984216
11.4373054853514 2.803594414356152 2.847310718600158
-2.901275923877041 11.45687952851018 2.305881435696755
2.011334302894006 5.034627410267253 83.58744374199509
-4.923794527069719 4.586845176790001 66.97113830213934
5.40993105629008 8.17570160120912 27.90863534766816
0.9880940271242172 -11.79054934023407 2.136167560926818
-5.322026511087087 0.1869950021361728 84.80996967419966
6.30171850790095 4.949025346394042 50.66254092078676
3.735498058662815 9.497926189631869 22.79361682869574
-11.42759638281866 -1.842029440142168 5.39881615148848
-5.281267606964325 -10.29392593338905 5.468171473060409
0.5473750369420712 1.321480237890017 90
-0.7398602367303317 -1.78618061777492 90
2.201188615676791 -0.935382126248411 90
-2.217890441286627 0.8950603523447548 90
-0.00293797756580183 -0.000523136439063876 46.33073477296915
0.04403553294194396 -0.03857767665318601 54.97229054344976
0.05849329069465836 -0.00537522703314508 63.04333144748414
0.02411220052082275 -0.01324989974404525 70.70766937858515
0.07248600535792393 -0.0004424219153849052 76.7084345430433
8.659739592076221e-15 -0.2722151800966515 85.06332829590501
-0.08100487770509335 3.710214362505599 42.86289091589205
-3.628752040027671 -0.5370088406296663 42.82319783473567
-2.662741479982492 -1.485966720399179 50.6596407969837
2.844267272360812 -1.080438031437458 50.63149177704411
3.638294679163047 0.3844175674725228 42.94054465833968
-0.2239519529937357 2.977216067707309 50.45317866277728
0.7253424566386907 -3.734018489239755 43.01664109130917
-0.2999636309577243 -2.711255840940389 59.0195032461334
-0.5156608199723696 2.694958817928475 58.99764967430335
-2.305411840931243 0.8390795496058063 66.86584507212237
-0.08332569126045264 -4.167633112803816 48.02679663683284
2.321688095981662 -0.7815930763784211 66.88493641112497
-3.188166844732371 2.921525383947812 45.80903073024011
1.030429969123334 -0.9468862771205018 80.86814058355738
3.801512275612157 -2.152382120648586 46.50018797812979
2.463543344172324 3.550689812436985 46.35503355530944
3.052302390777308 0.1328839491911886 59.74597353794183
-3.702714303462506 -2.413894784214791 46.64025241500399
0.1448826625186721 -3.802923293774396 52.92372157840092
-3.38532010528347 1.929768726227445 53.21542996092357
3.022713235081973 2.356636177416218 53.12029433094523
-2.648035440096716 0.1654851543734537 73.71711983479996
2.757272626054823 -2.92965045787676 56.35117818794436
-3.768900943592099 3.1977038498479 41.5269941447534
-3.366769939048133 -2.262654583002407 54.61082646997328
0.04252734392699953 -2.735604825863328 73.58206256216705
-1.173198618223895 -2.969379030408601 67.37534004032129

CELLS 3049 13923
1 0
1 1
1 2
1 3
2 0 4
2 4 5
2 5 6
2 6 7
2 7 8
2 8 9
2 9 10
2 10 11
2 11 12
2 12 1
2 0 13
2 13 14
2 14 15
2 15 16
2 16 17
2 17 18
2 18 19
2 19 20
2 20 21
2 21 22
2 22 23
2 23 24
2 24 25
2 25 26
2 26 0
2 1 27
2 27 28
2 28 29
2 29 30
2 30 31
2 31 32
2 32 33
2 33 34
2 34 35
2 35 36
2 36 1
2 2 37
2 37 38
2 38 39
2 39 40
2 40 41
2 41 42
2 42 43
2 43 44
2 44 45
2 45 46
2 46 47
2 47 48
2 48 49
2 49 50
2 50 51
2 51 52
2 52 53
2 53 54
2 54 2
2 3 55
2 55 56
2 56 57
2 57 58
2 58 59
2 59 60
2 60 61
2 61 3
2 2 62
2 62 63
2 63 64
2 64 65
2 65 66
2 66 67
2 67 68
2 68 69
2 69 70
2 70 71
2 71 72
2 72 73
2 73 74
2 74 75
2 75 76
2 76 77
2 77 78
2 78 79
2 79 80
2 80 81
2 81 82
2 82 83
2 83 3
3 0 214 4
3 4 215 0
3 13 214 0
3 0 215 26
3 1 207 12
3 12 208 1
3 1 208 27
3 36 207 1
3 5 100 4
3 4 101 5
3 100 215 4
3 4 214 101
3 5 164 6
3 6 169 5
3 5 169 100
3 101 164 5
3 6 92 7
3 7 93 6
3 6 164 92
3 93 169 6
3 7 150 8
3 8 151 7
3 92 150 7
3 7 151 93
3 8 84 9
3 9 85 8
3 8 150 84
3 85 151 8
3 9 102 10
3 10 146 9
3 84 102 9
3 9 146 85
3 10 90 11
3 11 91 10
3 10 102 90
3 91 146 10
3 12 182 11
3 11 183 12
3 90 183 11
3 11 182 91
3 12 207 182
3 183 208 12
3 14 197 13
3 197 214 13
3 15 96 14
3 96 197 14
3 16 191 15
3 15 191 96
3 17 88 16
3 88 191 16
3 18 193 17
3 17 193 88
3 19 192 18
3 192 193 18
3 20 87 19
3 87 192 19
3 21 190 20
3 20 190 87
3 22 209 21
3 21 209 190
3 23 89 22
3 89 209 22
3 24 204 23
3 23 204 89
3 25 97 24
3 97 204 24
3 26 198 25
3 25 198 97
3 26 215 198
3 27 98 28
3 27 208 98
3 28 195 29
3 98 195 28
3 29 94 30
3 29 195 94
3 30 176 31
3 94 176 30
3 31 86 32
3 31 176 86
3 32 171 33
3 86 171 32
3 33 95 34
3 33 171 95
3 34 196 35
3 95 196 34
3 35 99 36
3 35 196 99
3 99 207 36
3 84 103 102
3 84 104 103
3 84 150 104
3 85 146 141
3 141 201 85
3 85 201 151
3 86 205 171
3 176 188 86
3 188 205 86
3 190 210 87
3 87 218 192
3 210 218 87
3 179 194 88
3 88 202 179
3 88 194 191
3 193 202 88
3 159 161 89
3 89 163 159
3 161 209 89
3 89 204 163
3 102 184 90
3 90 185 183
3 184 185 90
3 143 200 91
3 91 203 143
3 91 200 146
3 182 203 91
3 92 166 150
3 164 165 92
3 165 166 92
3 151 152 93
3 152 153 93
3 153 169 93
3 139 176 94
3 94 213 139
3 195 213 94
3 95 145 144
3 144 196 95
3 95 216 145
3 171 216 95
3 187 197 96
3 96 217 187
3 191 217 96
3 97 198 181
3 181 212 97
3 97 212 204
3 98 208 183
3 183 220 98
3 98 220 195
3 99 203 182
3 182 207 99
3 196 203 99
3 169 181 100
3 181 198 100
3 198 215 100
3 101 187 164
3 101 197 187
3 101 214 197
3 103 184 102
3 104 105 103
3 105 186 103
3 103 186 184
3 104 106 105
3 104 166 106
3 150 166 104
3 106 107 105
3 107 108 105
3 108 186 105
3 106 177 107
3 166 167 106
3 167 177 106
3 107 109 108
3 107 111 109
3 107 177 111
3 109 110 108
3 110 124 108
3 124 186 108
3 109 170 110
3 111 112 109
3 112 170 109
3 110 125 124
3 110 136 125
3 110 170 136
3 111 113 112
3 111 126 113
3 111 177 126
3 113 114 112
3 114 115 112
3 115 170 112
3 113 131 114
3 126 178 113
3 113 178 131
3 114 116 115
3 114 172 116
3 131 172 114
3 116 117 115
3 117 149 115
3 149 170 115
3 116 118 117
3 116 123 118
3 116 172 123
3 118 119 117
3 119 120 117
3 120 149 117
3 118 122 119
3 118 199 122
3 123 199 118
3 119 121 120
3 119 180 121
3 122 180 119
3 121 127 120
3 127 148 120
3 148 149 120
3 121 128 127
3 121 129 128
3 121 180 129
3 175 180 122
3 122 219 175
3 199 219 122
3 160 199 123
3 123 206 160
3 172 206 123
3 125 137 124
3 137 138 124
3 138 186 124
3 136 147 125
3 125 139 137
3 125 147 139
3 177 189 126
3 126 179 178
3 126 189 179
3 128 134 127
3 134 135 127
3 135 148 127
3 129 130 128
3 130 145 128
3 128 145 134
3 129 132 130
3 129 133 132
3 129 180 133
3 132 143 130
3 143 144 130
3 144 145 130
3 131 173 172
3 131 174 173
3 131 178 174
3 133 141 132
3 141 200 132
3 132 200 143
3 133 142 141
3 133 175 142
3 133 180 175
3 134 205 135
3 145 216 134
3 134 216 205
3 147 148 135
3 135 188 147
3 135 205 188
3 136 148 147
3 136 149 148
3 136 170 149
3 137 140 138
3 139 213 137
3 137 213 140
3 140 185 138
3 138 185 184
3 184 186 138
3 147 188 139
3 139 188 176
3 140 220 185
3 140 213 195
3 195 220 140
3 142 201 141
3 146 200 141
3 152 201 142
3 142 211 152
3 175 211 142
3 143 203 144
3 144 203 196
3 151 201 152
3 152 154 153
3 152 211 154
3 154 155 153
3 155 181 153
3 153 181 169
3 154 156 155
3 154 157 156
3 154 211 157
3 156 163 155
3 163 212 155
3 155 212 181
3 157 158 156
3 158 159 156
3 159 163 156
3 157 219 158
3 157 211 175
3 175 219 157
3 158 160 159
3 158 199 160
3 158 219 199
3 160 161 159
3 160 162 161
3 160 206 162
3 162 190 161
3 190 209 161
3 162 210 190
3 206 210 162
3 204 212 163
3 164 187 165
3 165 167 166
3 165 168 167
3 165 187 168
3 168 189 167
3 167 189 177
3 187 217 168
3 168 194 189
3 168 217 194
3 205 216 171
3 173 206 172
3 174 218 173
3 173 210 206
3 173 218 210
3 178 202 174
3 174 193 192
3 192 218 174
3 174 202 193
3 179 202 178
3 189 194 179
3 185 220 183
3 194 217 191
3 27 221 1
3 1 224 36
3 221 224 1
3 28 227 27
3 27 227 221
3 29 227 28
3 30 223 29
3 223 227 29
3 31 228 30
3 30 228 223
3 32 228 31
3 33 222 32
3 222 228 32
3 34 226 33
3 33 226 222
3 35 226 34
3 36 224 35
3 224 226 35
3 221 225 224
3 221 227 225
3 222 226 225
3 225 228 222
3 225 227 223
3 223 228 225
3 225 226 224
3 2 0 37
3 54 0 2
3 37 0 13
3 26 0 54
3 14 38 13
3 38 37 13
3 15 39 14
3 39 38 14
3 16 231 15
3 40 39 15
3 15 231 40
3 17 42 16
3 42 41 16
3 41 231 16
3 18 43 17
3 43 42 17
3 19 44 18
3 44 43 18
3 20 229 19
3 45 44 19
3 19 229 45
3 20 21 47
3 46 20 47
3 46 229 20
3 48 21 22
3 47 21 48
3 23 49 22
3 22 49 48
3 24 230 23
3 23 50 49
3 23 230 50
3 25 52 24
3 24 52 51
3 51 230 24
3 26 53 25
3 25 53 52
3 26 54 53
3 40 231 41
3 45 229 46
3 50 230 51
3 37 556 2
3 2 555 54
3 62 555 2
3 2 556 62
3 3 554 55
3 61 553 3
3 3 553 83
3 83 554 3
3 38 257 37
3 257 556 37
3 39 514 38
3 38 514 257
3 40 248 39
3 248 514 39
3 41 543 40
3 40 543 248
3 42 557 41
3 41 557 543
3 43 242 42
3 242 557 42
3 44 508 43
3 43 508 242
3 45 253 44
3 253 508 44
3 46 516 45
3 45 516 253
3 47 241 46
3 241 516 46
3 48 550 47
3 47 550 241
3 49 533 48
3 533 550 48
3 50 244 49
3 244 533 49
3 51 561 50
3 50 561 244
3 52 507 51
3 507 561 51
3 53 252 52
3 252 507 52
3 54 529 53
3 53 529 252
3 54 555 529
3 55 418 56
3 55 554 418
3 56 536 57
3 418 536 56
3 57 245 58
3 57 536 245
3 58 394 59
3 245 394 58
3 59 255 60
3 59 394 255
3 60 416 61
3 255 416 60
3 416 553 61
3 63 258 62
3 62 528 63
3 258 555 62
3 62 556 528
3 63 254 64
3 64 467 63
3 63 528 254
3 63 467 258
3 65 251 64
3 64 464 65
3 251 467 64
3 254 464 64
3 65 243 66
3 66 445 65
3 65 464 243
3 65 445 251
3 67 240 66
3 66 505 67
3 240 445 66
3 243 505 66
3 67 440 68
3 68 466 67
3 67 466 240
3 67 505 440
3 68 235 69
3 69 265 68
3 68 440 235
3 265 466 68
3 70 233 69
3 69 549 70
3 233 265 69
3 235 549 69
3 71 435 70
3 70 522 71
3 70 435 233
3 70 549 522
3 71 238 72
3 72 249 71
3 71 522 238
3 249 435 71
3 73 260 72
3 72 427 73
3 238 427 72
3 72 260 249
3 74 234 73
3 73 540 74
3 234 260 73
3 427 540 73
3 74 239 75
3 75 513 74
3 74 513 234
3 74 540 239
3 76 434 75
3 75 438 76
3 239 438 75
3 434 513 75
3 77 237 76
3 76 250 77
3 237 434 76
3 76 438 250
3 77 259 78
3 78 423 77
3 77 423 237
3 250 259 77
3 78 232 79
3 79 421 78
3 78 259 232
3 421 423 78
3 80 236 79
3 79 420 80
3 232 420 79
3 236 421 79
3 80 246 81
3 81 413 80
3 80 413 236
3 80 420 246
3 82 247 81
3 81 412 82
3 246 412 81
3 247 413 81
3 82 256 83
3 83 415 82
3 82 415 247
3 82 412 256
3 256 554 83
3 83 553 415
3 259 411 232
3 411 546 232
3 232 546 420
3 233 266 265
3 233 436 266
3 435 436 233
3 234 261 260
3 234 262 261
3 234 513 262
3 440 441 235
3 441 517 235
3 517 549 235
3 413 424 236
3 236 422 421
3 236 424 422
3 423 521 237
3 237 520 434
3 237 521 520
3 238 522 402
3 402 552 238
3 238 552 427
3 239 511 438
3 239 563 511
3 540 563 239
3 240 502 445
3 240 466 465
3 465 502 240
3 241 565 516
3 241 550 519
3 519 565 241
3 499 500 242
3 242 508 499
3 500 501 242
3 501 557 242
3 464 544 243
3 243 506 505
3 243 544 506
3 453 532 244
3 244 561 453
3 532 566 244
3 244 566 533
3 245 562 394
3 245 536 490
3 490 562 245
3 246 542 412
3 420 497 246
3 497 542 246
3 247 524 413
3 415 541 247
3 247 541 524
3 509 530 248
3 248 543 509
3 248 530 514
3 260 263 249
3 263 264 249
3 264 435 249
3 250 271 259
3 250 352 271
3 250 438 352
3 445 446 251
3 446 447 251
3 447 467 251
3 252 529 463
3 463 547 252
3 252 547 507
3 253 535 508
3 516 545 253
3 253 545 535
3 254 534 464
3 254 528 515
3 515 534 254
3 394 538 255
3 255 417 416
3 255 538 417
3 412 558 256
3 418 554 256
3 256 558 418
3 514 515 257
3 515 528 257
3 528 556 257
3 258 467 463
3 463 529 258
3 529 555 258
3 271 411 259
3 261 263 260
3 262 270 261
3 261 414 263
3 270 414 261
3 262 272 270
3 262 380 272
3 262 513 380
3 263 269 264
3 263 414 269
3 269 350 264
3 350 436 264
3 264 436 435
3 266 267 265
3 267 466 265
3 266 268 267
3 266 437 268
3 436 437 266
3 268 273 267
3 273 465 267
3 465 466 267
3 268 274 273
3 268 491 274
3 437 491 268
3 269 351 350
3 269 495 351
3 414 495 269
3 272 305 270
3 305 425 270
3 270 425 414
3 352 353 271
3 353 365 271
3 365 411 271
3 272 306 305
3 272 428 306
3 380 428 272
3 274 275 273
3 275 371 273
3 371 465 273
3 274 276 275
3 274 277 276
3 274 491 277
3 276 278 275
3 278 488 275
3 275 488 371
3 277 469 276
3 276 279 278
3 276 469 279
3 277 470 469
3 277 512 470
3 491 512 277
3 279 280 278
3 280 289 278
3 289 488 278
3 279 281 280
3 279 282 281
3 279 469 282
3 281 290 280
3 280 458 289
3 290 458 280
3 282 283 281
3 283 473 281
3 281 473 290
3 282 284 283
3 282 474 284
3 469 474 282
3 284 285 283
3 285 287 283
3 287 473 283
3 284 286 285
3 284 304 286
3 284 474 304
3 286 476 285
3 285 288 287
3 285 476 288
3 304 366 286
3 366 383 286
3 383 476 286
3 288 291 287
3 291 468 287
3 468 473 287
3 288 292 291
3 288 293 292
3 288 476 293
3 289 455 454
3 454 488 289
3 289 458 455
3 290 459 458
3 290 486 459
3 473 486 290
3 292 330 291
3 330 331 291
3 331 468 291
3 293 294 292
3 294 484 292
3 292 484 330
3 293 295 294
3 293 477 295
3 476 477 293
3 295 296 294
3 296 302 294
3 302 484 294
3 295 297 296
3 295 298 297
3 295 477 298
3 297 439 296
3 296 303 302
3 296 439 303
3 298 299 297
3 299 301 297
3 301 439 297
3 298 300 299
3 298 478 300
3 477 478 298
3 300 307 299
3 299 527 301
3 307 527 299
3 300 308 307
3 300 326 308
3 300 478 326
3 301 537 439
3 527 564 301
3 301 564 537
3 303 328 302
3 328 370 302
3 370 484 302
3 303 329 328
3 303 356 329
3 303 439 356
3 304 503 366
3 474 475 304
3 475 503 304
3 306 309 305
3 309 311 305
3 311 425 305
3 306 310 309
3 306 332 310
3 306 428 332
3 308 324 307
3 324 368 307
3 368 527 307
3 308 482 324
3 326 407 308
3 407 482 308
3 310 471 309
3 309 312 311
3 309 471 312
3 332 333 310
3 333 472 310
3 310 472 471
3 312 313 311
3 313 377 311
3 377 425 311
3 312 314 313
3 312 315 314
3 312 471 315
3 314 433 313
3 313 483 377
3 433 483 313
3 315 316 314
3 316 318 314
3 318 433 314
3 315 317 316
3 315 378 317
3 315 471 378
3 317 485 316
3 316 319 318
3 316 485 319
3 378 386 317
3 386 426 317
3 426 485 317
3 319 320 318
3 320 323 318
3 323 433 318
3 319 321 320
3 319 322 321
3 319 485 322
3 321 489 320
3 320 361 323
3 320 489 361
3 322 325 321
3 325 376 321
3 376 489 321
3 322 327 325
3 322 406 327
3 322 485 406
3 361 362 323
3 362 363 323
3 363 433 323
3 324 369 368
3 324 375 369
3 324 482 375
3 327 358 325
3 358 494 325
3 325 494 376
3 326 523 407
3 478 479 326
3 479 523 326
3 327 360 358
3 327 410 360
3 406 410 327
3 329 359 328
3 359 500 328
3 328 500 370
3 356 357 329
3 357 487 329
3 329 487 359
3 330 390 331
3 330 498 390
3 484 498 330
3 390 398 331
3 398 399 331
3 399 468 331
3 332 334 333
3 332 388 334
3 332 428 388
3 334 335 333
3 335 336 333
3 336 472 333
3 334 432 335
3 388 389 334
3 389 432 334
3 335 337 336
3 335 338 337
3 335 432 338
3 337 481 336
3 336 480 472
3 336 481 480
3 338 339 337
3 339 344 337
3 344 481 337
3 338 340 339
3 338 348 340
3 338 432 348
3 340 341 339
3 341 493 339
3 339 493 344
3 340 342 341
3 340 504 342
3 348 504 340
3 342 343 341
3 343 346 341
3 346 493 341
3 342 345 343
3 342 349 345
3 342 504 349
3 345 492 343
3 343 347 346
3 343 492 347
3 344 539 481
3 493 559 344
3 344 559 539
3 349 384 345
3 384 391 345
3 391 492 345
3 347 373 346
3 373 374 346
3 374 493 346
3 347 400 373
3 347 401 400
3 347 492 401
3 432 525 348
3 348 526 504
3 525 526 348
3 349 392 384
3 349 393 392
3 349 504 393
3 351 379 350
3 379 437 350
3 350 437 436
3 351 385 379
3 351 409 385
3 351 495 409
3 352 354 353
3 352 511 354
3 438 511 352
3 354 355 353
3 355 429 353
3 353 429 365
3 354 367 355
3 354 551 367
3 511 551 354
3 367 548 355
3 355 431 429
3 355 548 431
3 356 372 357
3 356 537 372
3 439 537 356
3 372 381 357
3 381 382 357
3 382 487 357
3 360 395 358
3 395 419 358
3 419 494 358
3 487 509 359
3 359 501 500
3 359 509 501
3 360 396 395
3 360 397 396
3 360 410 397
3 361 408 362
3 361 523 408
3 489 523 361
3 362 364 363
3 362 503 364
3 408 503 362
3 364 496 363
3 363 483 433
3 363 496 483
3 364 503 475
3 475 510 364
3 364 510 496
3 365 531 411
3 429 430 365
3 430 531 365
3 366 479 383
3 408 479 366
3 366 503 408
3 367 410 406
3 406 426 367
3 367 551 410
3 426 548 367
3 369 517 368
3 517 560 368
3 368 560 527
3 375 402 369
3 402 403 369
3 403 517 369
3 370 498 484
3 370 499 498
3 370 500 499
3 371 488 457
3 457 502 371
3 371 502 465
3 372 544 381
3 444 506 372
3 372 537 444
3 506 544 372
3 373 387 374
3 373 497 387
3 400 497 373
3 387 531 374
3 374 531 430
3 430 559 374
3 374 559 493
3 375 419 402
3 375 494 419
3 482 494 375
3 376 482 407
3 407 489 376
3 376 494 482
3 377 483 409
3 409 495 377
3 377 495 425
3 378 480 386
3 471 472 378
3 472 480 378
3 385 512 379
3 379 491 437
3 379 512 491
3 380 520 428
3 380 513 434
3 434 520 380
3 381 534 382
3 464 534 381
3 381 544 464
3 382 530 487
3 515 530 382
3 382 534 515
3 383 477 476
3 383 478 477
3 383 479 478
3 384 538 391
3 392 417 384
3 417 538 384
3 409 496 385
3 496 510 385
3 510 512 385
3 386 548 426
3 386 480 431
3 431 548 386
3 497 546 387
3 387 546 531
3 388 521 389
3 428 520 388
3 520 521 388
3 389 525 432
3 389 521 518
3 518 525 389
3 390 545 398
3 498 535 390
3 535 545 390
3 490 492 391
3 391 562 490
3 538 562 391
3 393 524 392
3 392 541 417
3 524 541 392
3 424 524 393
3 393 526 424
3 504 526 393
3 394 562 538
3 396 427 395
3 395 552 419
3 427 552 395
3 397 563 396
3 396 540 427
3 396 563 540
3 410 551 397
3 397 551 511
3 511 563 397
3 398 519 399
3 398 565 519
3 545 565 398
3 461 486 399
3 399 519 461
3 399 486 468
3 401 404 400
3 404 542 400
3 400 542 497
3 401 405 404
3 401 490 405
3 401 492 490
3 402 522 403
3 419 552 402
3 403 549 517
3 522 549 403
3 405 558 404
3 412 542 404
3 404 558 412
3 405 536 418
3 418 558 405
3 490 536 405
3 406 485 426
3 407 523 489
3 408 523 479
3 483 496 409
3 531 546 411
3 413 524 424
3 425 495 414
3 416 417 415
3 415 553 416
3 417 541 415
3 420 546 497
3 422 518 421
3 421 518 423
3 424 526 422
3 422 525 518
3 422 526 525
3 518 521 423
3 429 539 430
3 431 539 429
3 539 559 430
3 480 481 431
3 481 539 431
3 440 442 441
3 440 505 442
3 442 443 441
3 443 560 441
3 441 560 517
3 442 444 443
3 442 506 444
3 505 506 442
3 444 564 443
3 527 560 443
3 443 564 527
3 537 564 444
3 445 502 446
3 446 448 447
3 446 457 448
3 446 502 457
3 448 449 447
3 449 463 447
3 463 467 447
3 448 450 449
3 448 454 450
3 448 457 454
3 450 451 449
3 451 547 449
3 449 547 463
3 450 452 451
3 450 455 452
3 454 455 450
3 452 453 451
3 453 507 451
3 507 547 451
3 452 532 453
3 455 456 452
3 456 532 452
3 453 561 507
3 457 488 454
3 455 458 456
3 458 459 456
3 459 460 456
3 460 532 456
3 459 461 460
3 459 486 461
3 461 462 460
3 462 566 460
3 460 566 532
3 461 519 462
3 519 550 462
3 462 550 533
3 533 566 462
3 468 486 473
3 470 474 469
3 470 475 474
3 470 510 475
3 470 512 510
3 487 530 509
3 499 535 498
3 508 535 499
3 509 543 501
3 543 557 501
3 514 530 515
3 516 565 545
3 55 569 3
3 3 569 61
3 56 567 55
3 567 569 55
3 57 570 56
3 56 570 567
3 58 570 57
3 59 570 58
3 60 568 59
3 568 570 59
3 61 569 60
3 60 569 568
3 568 569 567
3 567 570 568
4 577 578 225 581
4 573 584 336 585
4 33 222 578 583
4 225 581 578 583
4 480 585 584 601
4 531 574 586 588
4 263 581 36 583
4 481 573 336 585
4 33 578 483 583
4 531 546 574 588
4 36 263 249 581
4 367 572 354 585
4 354 572 367 597
4 80 575 574 602
4 354 585 572 597
4 317 579 316 589
4 336 584 480 585
4 480 584 472 601
4 33 226 222 583
4 367 572 585 596
4 420 574 80 575
4 227 552 28 577
4 432 389 334 573
4 552 577 227 581
4 483 578 377 583
4 224 36 581 583
4 33 483 409 583
4 485 317 316 589
4 271 411 365 573
4 531 411 546 588
4 271 259 411 573
4 483 377 409 583
4 389 573 432 603
4 480 596 585 601
4 582 589 579 596
4 367 572 596 597
4 571 578 577 581
4 411 573 259 588
4 521 573 389 588
4 585 596 572 601
4 492 575 401 590
4 365 271 573 585
4 352 593 585 597
4 480 336 472 584
4 75 593 597 599
4 409 34 33 583
4 420 497 574 575
4 574 575 497 598
4 335 432 334 573
4 377 583 578 594
4 552 227 27 581
4 336 573 335 584
4 578 581 571 583
4 334 573 389 584
4 485 589 582 596
4 271 259 573 593
4 518 521 389 588
4 75 593 438 597
4 355 585 548 596
4 389 573 521 584
4 438 593 352 597
4 584 585 572 601
4 316 589 579 594
4 34 226 33 583
4 35 263 36 583
4 401 575 404 590
4 539 573 481 585
4 540 591 580 592
4 539 481 573 586
4 492 345 575 590
4 80 574 236 602
4 225 578 222 583
4 481 336 480 585
4 387 531 546 574
4 401 404 405 590
4 423 521 573 593
4 539 344 481 586
4 430 573 365 586
4 259 573 77 588
4 432 573 335 603
4 389 588 573 603
4 313 377 578 594
4 337 573 481 586
4 367 596 582 597
4 423 573 521 588
4 80 79 236 574
4 28 27 552 227
4 367 585 355 596
4 573 586 335 603
4 339 341 340 574
4 352 585 354 597
4 335 573 334 584
4 420 80 246 575
4 483 313 377 578
4 481 337 336 573
4 344 337 481 586
4 259 77 573 593
4 365 573 429 585
4 423 77 573 588
4 492 391 345 590
4 77 423 573 593
4 531 430 365 586
4 226 225 222 583
4 367 355 548 596
4 339 341 574 586
4 573 585 271 593
4 373 574 497 598
4 387 374 531 574
4 367 354 355 585
4 546 411 232 588
4 429 365 430 573
4 395 577 552 581
4 339 574 340 586
4 429 573 539 585
4 585 593 572 597
4 337 335 336 573
4 558 405 404 590
4 480 386 585 596
4 374 531 574 586
4 521 584 573 593
4 337 335 573 586
4 76 593 75 599
4 582 589 327 592
4 577 581 395 592
4 539 429 430 573
4 354 367 551 597
4 225 577 223 600
4 35 36 224 583
4 75 76 438 593
4 581 583 263 591
4 546 232 574 588
4 225 578 577 600
4 236 574 79 588
4 420 246 497 575
4 75 580 513 599
4 539 573 430 586
4 236 79 421 588
4 75 597 580 599
4 373 497 575 598
4 365 353 271 585
4 227 225 221 581
4 373 346 574 598
4 563 582 397 592
4 340 574 341 598
4 401 400 404 575
4 389 521 388 584
4 423 237 521 593
4 386 548 585 596
4 337 335 586 603
4 260 581 263 591
4 249 263 260 581
4 348 574 340 602
4 413 575 80 602
4 552 419 28 577
4 232 79 574 588
4 377 587 583 594
4 580 592 582 597
4 518 423 521 588
4 227 577 225 581
4 347 401 492 575
4 492 401 490 590
4 373 387 497 574
4 367 582 551 597
4 80 420 79 574
4 493 574 341 586
4 572 597 593 599
4 316 579 315 594
4 582 592 563 597
4 73 581 591 592
4 271 250 259 593
4 318 589 316 594
4 73 591 540 592
4 318 578 589 594
4 401 405 490 590
4 392 575 349 590
4 558 576 405 590
4 389 518 588 603
4 341 574 493 598
4 346 493 574 598
4 33 222 32 578
4 422 602 574 603
4 340 586 574 603
4 269 263 35 583
4 317 315 316 579
4 397 582 563 597
4 577 327 589 592
4 225 224 581 583
4 221 27 227 581
4 340 574 348 603
4 422 526 602 603
4 374 387 373 574
4 521 520 584 593
4 497 387 546 574
4 336 333 472 584
4 422 236 574 602
4 480 386 431 585
4 521 237 520 593
4 332 584 595 601
4 332 584 428 595
4 232 79 420 574
4 425 583 377 587
4 492 490 391 590
4 318 316 314 594
4 400 542 404 575
4 334 389 388 584
4 374 373 346 574
4 542 412 404 575
4 386 548 431 585
4 495 34 409 583
4 373 575 347 598
4 347 400 401 575
4 409 377 495 583
4 413 80 236 602
4 410 582 327 592
4 574 602 348 603
4 259 77 78 588
4 405 576 490 590
4 579 582 571 589
4 348 340 504 602
4 337 586 338 603
4 333 336 335 584
4 580 587 262 595
4 422 574 588 603
4 337 338 335 603
4 483 33 32 578
4 582 596 572 597
4 340 574 598 602
4 406 327 582 589
4 352 271 585 593
4 346 493 374 574
4 384 575 345 590
4 249 1 36 581
4 272 262 587 595
4 247 413 524 575
4 73 427 581 592
4 232 420 546 574
4 492 343 347 575
4 262 587 580 591
4 404 575 412 590
4 225 223 228 600
4 272 262 270 587
4 32 433 483 578
4 380 580 262 595
4 513 580 380 599
4 35 36 263 264
4 428 595 584 599
4 347 373 400 575
4 580 595 380 599
4 410 327 360 592
4 332 595 306 601
4 339 493 341 586
4 325 577 327 589
4 497 546 420 574
4 349 575 384 590
4 333 472 584 601
4 311 587 377 594
4 374 574 493 586
4 225 228 578 600
4 349 345 384 575
4 77 237 423 593
4 270 587 262 591
4 29 577 325 600
4 492 345 343 575
4 524 247 575 590
4 540 580 74 597
4 384 345 391 590
4 34 269 35 583
4 380 513 262 580
4 579 589 571 594
4 583 587 414 591
4 311 579 309 587
4 392 349 384 590
4 411 259 232 588
4 34 495 269 583
4 332 428 306 595
4 352 354 511 597
4 481 480 431 585
4 322 325 327 589
4 223 225 227 577
4 580 591 571 592
4 373 497 400 575
4 352 250 271 593
4 339 586 340 603
4 490 576 391 590
4 221 225 224 581
4 392 524 393 575
4 263 583 414 591
4 311 312 309 579
4 520 584 593 599
4 234 580 74 591
4 31 323 578 600
4 425 377 311 587
4 1 224 36 581
4 365 429 353 585
4 392 393 349 575
4 433 313 483 578
4 327 577 358 592
4 526 348 602 603
4 391 576 538 590
4 579 587 311 594
4 426 485 582 596
4 434 76 75 599
4 261 270 262 591
4 309 587 579 595
4 312 579 311 594
4 552 395 419 577
4 571 582 580 592
4 431 539 481 585
4 75 74 580 597
4 256 576 558 590
4 352 271 353 585
4 347 575 343 598
4 73 540 427 592
4 345 575 349 598
4 524 575 413 602
4 309 305 587 595
4 259 250 77 593
4 325 577 589 600
4 513 75 74 580
4 423 78 77 588
4 400 497 542 575
4 332 306 310 601
4 406 582 485 589
4 28 494 29 577
4 261 263 414 591
4 29 325 376 600
4 316 315 314 594
4 320 578 323 600
4 340 598 504 602
4 343 575 345 598
4 333 335 334 584
4 32 31 323 578
4 318 589 578 600
4 497 246 542 575
4 323 320 318 578
4 427 395 581 592
4 388 521 520 584
4 427 395 552 581
4 325 589 322 600
4 524 575 392 590
4 228 222 225 578
4 404 412 558 590
4 393 575 524 602
4 318 319 589 600
4 246 412 542 575
4 571 579 580 582
4 332 310 584 601
4 247 81 413 575
4 239 540 74 597
4 342 345 349 598
4 396 563 397 592
4 31 320 323 600
4 572 580 579 582
4 325 322 321 600
4 28 29 227 577
4 73 234 74 591
4 426 485 406 582
4 225 226 224 583
4 349 575 393 602
4 349 598 575 602
4 580 597 572 599
4 339 340 338 603
4 352 511 438 597
4 81 80 413 575
4 223 577 29 600
4 238 552 27 581
4 384 391 538 590
4 263 269 35 264
4 363 483 32 433
4 27 221 1 581
4 81 575 247 590
4 320 318 578 600
4 571 589 582 592
4 540 563 396 592
4 520 593 237 599
4 414 583 425 587
4 29 494 325 577
4 378 596 480 601
4 32 228 31 578
4 433 32 323 578
4 526 422 525 603
4 578 583 571 594
4 410 406 327 582
4 72 1 249 581
4 358 577 395 592
4 422 588 518 603
4 35 226 34 583
4 333 332 310 584
4 256 558 412 590
4 571 580 579 587
4 551 582 397 597
4 249 260 72 581
4 333 584 310 601
4 315 378 471 579
4 395 358 419 577
4 311 309 305 587
4 434 75 513 599
4 327 325 358 577
4 262 580 234 591
4 315 378 579 596
4 495 377 425 583
4 272 380 262 595
4 433 313 578 594
4 81 412 575 590
4 72 581 260 591
4 239 563 540 597
4 81 246 80 575
4 255 394 568 576
4 406 322 327 589
4 378 471 579 601
4 315 579 317 596
4 577 578 571 589
4 413 236 424 602
4 255 568 416 576
4 342 598 349 602
4 75 239 74 597
4 554 567 418 576
4 572 595 584 601
4 419 494 28 577
4 422 518 525 603
4 539 430 559 586
4 583 587 571 594
4 424 524 413 602
4 438 250 352 593
4 318 319 316 589
4 246 81 412 575
4 378 579 596 601
4 430 531 374 586
4 504 342 349 602
4 259 78 232 588
4 327 358 360 592
4 228 31 578 600
4 584 595 572 599
4 272 587 305 595
4 223 227 29 577
4 410 397 551 582
4 339 338 586 603
4 315 579 312 594
4 526 348 504 602
4 579 580 572 595
4 73 581 72 591
4 1 221 224 581
4 346 341 493 598
4 431 429 539 585
4 539 559 344 586
4 575 598 574 602
4 354 352 353 585
4 272 270 305 587
4 73 72 260 591
4 414 263 269 583
4 559 430 374 586
4 323 318 433 578
4 572 595 580 599
4 426 582 367 596
4 238 27 1 581
4 571 591 581 592
4 354 551 511 597
4 570 568 394 576
4 222 228 32 578
4 410 551 367 582
4 504 598 342 602
4 388 520 428 599
4 309 595 579 601
4 224 226 35 583
4 256 82 576 590
4 569 567 554 576
4 422 424 236 602
4 417 538 576 590
4 388 428 584 599
4 320 319 318 600
4 571 581 577 592
4 313 311 377 594
4 416 568 569 576
4 36 249 263 264
4 306 595 309 601
4 388 584 520 599
4 261 262 234 591
4 434 593 76 599
4 571 577 589 592
4 351 34 495 269
4 495 425 414 583
4 338 432 335 603
4 552 238 427 581
4 572 582 579 596
4 562 391 490 576
4 471 309 312 579
4 580 582 572 597
4 358 325 494 577
4 262 513 234 580
4 373 347 346 598
4 572 585 584 593
4 389 525 518 603
4 325 321 376 600
4 571 583 581 591
4 480 378 386 596
4 73 427 72 581
4 421 518 422 588
4 405 558 418 576
4 237 593 434 599
4 579 587 580 595
4 270 414 425 587
4 315 312 314 594
4 538 391 562 576
4 571 587 583 591
4 72 238 1 581
4 309 579 471 601
4 306 309 310 601
4 558 256 418 576
4 426 406 367 582
4 536 418 567 576
4 315 471 312 579
4 513 74 234 580
4 342 343 345 598
4 237 76 434 593
4 433 314 313 594
4 358 494 419 577
4 472 378 480 601
4 315 317 378 596
4 554 418 256 576
4 332 388 428 584
4 483 32 33 363
4 417 384 538 590
4 29 376 30 600
4 339 338 337 586
4 245 570 394 576
4 495 414 269 583
4 580 587 571 591
4 396 427 540 592
4 260 263 261 591
4 30 223 29 600
4 578 571 589 594
4 578 589 577 600
4 355 354 353 585
4 524 392 541 590
4 71 72 1 249
4 35 34 351 269
4 340 342 504 598
4 406 410 367 582
4 428 380 595 599
4 82 415 576 590
4 428 380 272 595
4 426 317 485 596
4 83 256 82 576
4 232 78 79 588
4 572 593 584 599
4 584 585 573 593
4 360 396 397 592
4 256 412 82 590
4 438 76 250 593
4 309 306 305 595
4 548 355 431 585
4 406 485 322 589
4 83 569 554 576
4 526 525 348 603
4 426 367 548 596
4 424 393 524 602
4 394 562 245 576
4 571 587 579 594
4 338 340 348 603
4 524 541 247 590
4 374 493 559 586
4 333 310 472 601
4 376 325 29 494
4 568 570 567 576
4 334 388 332 584
4 536 567 570 576
4 79 78 421 588
4 83 82 415 576
4 405 418 536 576
4 334 332 333 584
4 568 567 569 576
4 434 513 380 599
4 490 536 245 576
4 569 553 416 576
4 520 237 434 599
4 504 349 393 602
4 417 541 392 590
4 573 588 586 603
4 360 358 395 592
4 536 570 245 576
4 75 438 239 597
4 554 256 83 576
4 490 405 536 576
4 72 1 238 71
4 422 526 424 602
4 316 319 485 589
4 551 397 511 597
4 72 427 238 581
4 417 392 384 590
4 490 245 562 576
4 347 343 346 598
4 255 538 394 576
4 229 45 46 516
4 323 363 32 433
4 423 518 421 588
4 394 538 562 576
4 586 588 574 603
4 83 553 569 576
4 389 432 525 603
4 415 417 576 590
4 81 82 412 590
4 344 339 337 586
4 30 320 31 600
4 30 376 321 600
4 60 255 568 416
4 255 416 417 576
4 423 421 78 588
4 306 428 272 595
4 77 76 237 593
4 355 429 431 585
4 59 255 394 568
4 579 595 572 601
4 415 541 417 590
4 340 341 342 598
4 250 76 77 593
4 572 596 579 601
4 305 425 311 587
4 355 353 429 585
4 306 272 305 595
4 312 311 313 594
4 255 417 538 576
4 310 309 471 601
4 397 563 511 597
4 231 16 15 191
4 415 417 416 576
4 553 83 415 576
4 321 319 320 600
4 320 30 489 600
4 553 415 416 576
4 493 339 344 586
4 427 396 395 592
4 234 73 260 591
4 320 489 321 600
4 107 109 108 296
4 319 322 485 589
4 305 270 425 587
4 297 107 108 296
4 229 19 45 516
4 493 344 559 586
4 247 541 415 590
4 297 108 109 296
4 81 247 82 590
4 314 312 313 594
4 234 260 261 591
4 229 46 87 516
4 569 60 568 416
4 511 239 438 597
4 111 113 112 294
4 82 247 415 590
4 321 489 30 600
4 55 554 567 418
4 439 107 108 297
4 297 439 107 296
4 113 111 302 294
4 19 20 87 229
4 394 570 59 568
4 279 282 121 119
4 15 40 231 191
4 121 180 279 119
4 495 409 34 351
4 63 4 5 528
4 229 87 19 516
4 245 570 58 394
4 137 326 308 300
4 117 118 119 283
4 288 149 170 293
4 488 371 142 275
4 127 284 286 148
4 102 440 9 505
4 277 130 145 512
4 133 142 371 275
4 7 92 150 464
4 105 106 537 104
4 170 109 294 295
4 428 520 380 599
4 288 149 293 476
4 142 133 488 275
4 27 28 552 402
4 281 282 279 119
4 243 7 150 464
4 505 8 84 243
4 149 115 288 170
4 512 277 130 491
4 569 61 60 416
4 386 378 317 596
4 32 33 363 364
4 109 112 170 294
4 33 32 171 364
4 287 116 118 473
4 362 171 364 86
4 1 36 435 249
4 153 448 450 449
4 137 124 307 138
4 66 8 9 505
4 286 304 127 148
4 84 9 8 505
4 554 569 55 567
4 308 137 213 139
4 149 170 293 476
4 291 287 116 115
4 360 395 396 592
4 113 302 484 294
4 366 148 286 383
4 348 432 338 603
4 471 378 472 601
4 231 40 543 191
4 110 124 297 298
4 9 8 66 240
4 448 450 154 153
4 67 9 440 505
4 127 284 304 286
4 59 58 570 394
4 127 121 282 284
4 137 308 326 139
4 63 62 4 528
4 503 364 171 86
4 5 4 63 258
4 300 137 326 139
4 230 24 23 204
4 285 286 120 148
4 240 67 9 466
4 117 118 283 473
4 363 33 496 364
4 276 129 130 274
4 176 407 326 523
4 503 362 364 86
4 505 66 8 243
4 341 346 343 598
4 287 291 288 115
4 118 119 283 473
4 567 536 56 418
4 20 46 87 229
4 8 7 150 243
4 504 393 526 602
4 516 19 45 253
4 554 3 569 83
4 326 94 407 176
4 114 112 113 484
4 120 284 286 285
4 341 343 342 598
4 228 30 31 600
4 239 511 563 597
4 8 66 240 445
4 127 120 121 284
4 118 116 468 473
4 331 390 330 172
4 112 114 292 484
4 108 124 186 301
4 543 41 40 231
4 223 30 228 600
4 124 307 299 137
4 294 293 170 295
4 274 129 130 132
4 372 537 106 104
4 195 213 482 324
4 116 287 468 473
4 213 308 482 324
4 476 148 136 383
4 293 115 292 112
4 297 108 124 110
4 6 5 63 467
4 386 426 548 596
4 172 390 330 131
4 113 114 330 131
4 351 385 34 379
4 299 307 124 138
4 171 205 503 86
4 478 477 136 383
4 516 87 19 253
4 469 129 279 121
4 282 474 127 284
4 166 167 357 165
4 8 150 84 243
4 84 102 9 505
4 126 111 303 302
4 330 114 113 484
4 30 29 407 376
4 441 102 184 442
4 471 472 310 601
4 330 291 172 114
4 147 148 366 383
4 484 112 113 294
4 102 103 184 442
4 177 126 328 189
4 149 285 120 148
4 520 434 380 599
4 124 108 299 301
4 286 284 120 148
4 465 201 85 502
4 285 117 288 149
4 282 474 121 127
4 293 170 115 112
4 205 135 134 304
4 465 141 201 502
4 136 477 170 476
4 128 469 129 277
4 186 124 299 301
4 101 5 4 528
4 435 71 1 249
4 491 274 130 143
4 147 478 136 383
4 475 205 134 304
4 444 105 537 104
4 330 113 131 484
4 170 115 288 293
4 117 116 287 115
4 120 282 121 284
4 46 241 87 516
4 291 331 330 172
4 180 281 279 119
4 94 30 29 407
4 124 299 297 298
4 276 278 180 133
4 498 113 178 370
4 122 290 281 118
4 180 129 276 133
4 276 129 274 132
4 177 126 111 303
4 176 326 94 139
4 143 274 132 273
4 291 116 468 172
4 371 141 465 502
4 393 424 526 602
4 321 376 30 489
4 141 371 201 502
4 287 116 117 118
4 4 62 63 258
4 286 148 476 383
4 328 126 303 302
4 119 282 120 283
4 477 293 170 476
4 277 276 130 274
4 172 206 331 173
4 323 31 32 362
4 106 167 372 166
4 129 130 128 277
4 386 317 426 596
4 162 399 461 206
4 348 525 432 603
4 61 569 553 416
4 9 67 66 505
4 276 278 279 180
4 113 498 484 370
4 279 280 281 180
4 117 287 285 288
4 115 288 117 149
4 265 10 466 91
4 153 450 155 449
4 139 176 479 188
4 120 121 282 119
4 285 286 149 476
4 7 251 445 151
4 544 166 92 150
4 143 268 274 273
4 468 331 291 172
4 125 478 136 147
4 329 177 328 189
4 275 371 133 141
4 253 87 19 192
4 180 280 281 122
4 184 185 90 441
4 124 300 298 125
4 409 33 34 385
4 9 66 67 240
4 286 285 149 148
4 64 7 6 251
4 477 170 295 110
4 128 469 474 121
4 331 468 399 172
4 362 323 31 361
4 155 154 450 153
4 189 487 329 167
4 301 108 439 105
4 512 130 145 144
4 118 486 290 473
4 171 496 33 364
4 537 372 444 104
4 65 8 7 445
4 407 29 482 376
4 243 65 7 464
4 445 8 7 151
4 65 64 7 464
4 112 109 111 294
4 307 308 140 324
4 180 279 129 121
4 199 486 290 118
4 196 34 385 379
4 299 124 300 298
4 361 323 31 320
4 398 331 206 173
4 561 51 50 230
4 130 129 276 277
4 118 290 281 473
4 371 142 133 141
4 196 351 34 379
4 137 307 299 300
4 149 286 148 476
4 143 132 200 273
4 274 491 268 143
4 121 474 128 127
4 265 69 11 233
4 447 153 448 446
4 399 468 123 172
4 14 39 15 96
4 299 108 297 301
4 296 111 109 294
4 241 47 20 190
4 148 135 147 366
4 178 131 113 498
4 130 145 128 277
4 489 407 30 523
4 251 65 7 445
4 176 86 361 408
4 125 478 477 136
4 7 8 65 243
4 55 3 569 554
4 112 293 170 294
4 419 552 28 402
4 440 9 10 102
4 170 149 136 476
4 172 291 116 114
4 329 356 177 167
4 302 126 113 370
4 498 330 131 484
4 47 21 20 190
4 284 120 282 283
4 11 182 265 233
4 104 506 103 84
4 152 448 153 446
4 109 108 297 110
4 288 117 287 115
4 282 474 469 121
4 475 205 304 503
4 127 474 134 304
4 145 470 128 277
4 466 68 10 265
4 114 330 292 484
4 506 442 103 84
4 10 9 67 466
4 40 15 248 191
4 178 126 179 370
4 99 36 35 264
4 477 110 125 136
4 498 131 113 484
4 89 566 532 159
4 206 399 123 172
4 84 442 102 505
4 141 201 85 465
4 276 129 469 277
4 284 127 120 148
4 468 123 118 473
4 110 477 170 136
4 167 189 487 168
4 130 512 491 144
4 445 240 8 85
4 469 129 276 279
4 138 560 184 527
4 440 102 442 505
4 275 276 274 132
4 125 300 478 139
4 301 299 186 527
4 283 287 117 473
4 268 203 491 437
4 307 308 213 140
4 463 447 153 449
4 303 111 107 296
4 148 136 149 476
4 298 477 110 125
4 295 109 297 110
4 129 276 133 132
4 292 288 115 293
4 118 123 486 473
4 466 9 240 146
4 86 31 176 361
4 295 293 170 477
4 362 32 171 86
4 10 67 9 440
4 286 135 148 366
4 443 184 103 442
4 108 107 439 105
4 303 107 177 356
4 299 307 138 527
4 124 137 300 125
4 326 478 300 139
4 118 281 122 119
4 275 133 276 132
4 184 443 441 442
4 186 299 124 527
4 4 5 100 258
4 278 280 180 175
4 184 186 138 527
4 123 468 486 473
4 273 200 268 267
4 33 496 483 363
4 308 213 140 324
4 465 200 273 267
4 475 134 474 304
4 29 482 94 407
4 375 28 98 402
4 409 496 33 385
4 303 439 107 356
4 185 184 560 441
4 131 172 390 173
4 464 6 92 254
4 177 126 303 328
4 166 357 381 165
4 9 8 240 85
4 176 30 407 523
4 297 108 299 124
4 39 14 514 96
4 299 124 137 300
4 122 281 180 119
4 186 184 443 527
4 308 326 94 407
4 138 186 124 527
4 106 177 356 167
4 211 175 289 488
4 111 296 302 294
4 63 5 6 254
4 478 139 479 147
4 116 291 115 114
4 288 291 292 115
4 479 176 523 188
4 447 153 169 463
4 350 99 35 264
4 454 211 289 488
4 115 291 292 114
4 66 8 65 445
4 251 7 6 93
4 484 292 112 294
4 219 280 289 175
4 196 512 144 379
4 304 135 127 148
4 122 180 280 175
4 461 160 162 206
4 523 479 188 408
4 279 129 276 180
4 350 99 264 436
4 279 282 469 121
4 292 293 112 294
4 137 300 125 139
4 102 103 442 84
4 483 496 33 409
4 567 56 55 418
4 24 52 97 507
4 63 64 6 467
4 248 15 39 96
4 91 268 267 266
4 364 32 171 362
4 153 93 152 446
4 196 95 512 379
4 13 38 197 257
4 138 124 299 527
4 241 210 87 565
4 251 6 467 93
4 560 443 184 527
4 446 201 457 502
4 399 123 486 160
4 20 46 241 87
4 90 440 102 441
4 364 363 32 362
4 18 44 192 508
4 441 440 102 442
4 510 470 145 512
4 65 8 66 243
4 264 36 435 436
4 94 213 482 195
4 560 184 185 138
4 258 63 5 467
4 478 477 298 125
4 118 117 287 473
4 458 459 290 199
4 375 419 28 402
4 470 510 216 475
4 283 119 281 473
4 463 153 181 449
4 137 308 307 300
4 264 99 36 436
4 280 289 458 219
4 116 468 123 118
4 235 440 10 90
4 103 186 564 105
4 510 216 475 364
4 107 177 356 106
4 454 457 211 488
4 544 104 166 150
4 172 331 390 173
4 278 280 279 180
4 153 181 169 463
4 184 90 102 441
4 258 5 100 467
4 143 268 91 266
4 89 161 566 159
4 171 510 496 364
4 500 126 328 370
4 435 207 70 233
4 160 399 123 206
4 297 295 110 298
4 453 212 507 204
4 111 109 107 296
4 296 109 297 295
4 207 70 1 435
4 328 303 177 329
4 281 282 119 283
4 543 40 248 191
4 110 295 477 298
4 301 186 108 105
4 475 216 171 364
4 467 64 6 251
4 216 134 470 475
4 249 36 435 264
4 484 302 113 370
4 361 86 362 408
4 362 31 32 86
4 253 19 44 192
4 111 126 113 302
4 69 12 11 233
4 93 153 447 446
4 561 23 244 204
4 142 133 175 488
4 469 128 470 277
4 52 25 24 97
4 139 478 125 147
4 52 24 51 507
4 469 128 129 121
4 440 10 68 235
4 117 285 120 149
4 295 170 109 110
4 516 87 253 218
4 486 461 399 160
4 302 328 126 370
4 117 285 287 283
4 470 128 474 134
4 357 106 167 372
4 382 167 168 165
4 149 288 285 476
4 253 545 516 218
4 14 38 39 514
4 280 458 290 219
4 5 6 169 467
4 120 117 119 283
4 362 31 86 361
4 4 0 62 555
4 107 439 303 296
4 503 205 135 188
4 277 145 470 512
4 39 40 15 248
4 109 296 294 295
4 205 216 171 475
4 251 445 151 446
4 62 0 4 556
4 292 115 114 112
4 291 330 292 114
4 188 135 503 366
4 182 11 12 233
4 117 120 285 283
4 4 0 555 215
4 206 162 519 210
4 451 212 507 453
4 570 57 536 245
4 4 214 101 556
4 119 118 281 473
4 13 38 14 197
4 266 182 203 436
4 44 253 192 508
4 103 184 443 186
4 278 175 133 488
4 150 92 544 464
4 265 11 10 91
4 11 235 90 183
4 351 35 269 350
4 49 50 23 244
4 218 174 390 173
4 535 545 253 218
4 120 284 285 283
4 132 130 274 143
4 18 44 19 192
4 214 4 0 556
4 44 18 43 508
4 84 150 506 243
4 303 111 296 302
4 126 178 113 370
4 372 167 357 166
4 114 172 330 131
4 134 474 470 475
4 289 157 454 455
4 274 275 132 273
4 474 469 128 470
4 134 128 474 127
4 505 84 506 243
4 304 205 135 503
4 25 53 26 198
4 197 38 514 257
4 20 46 47 241
4 323 32 363 362
4 390 535 174 218
4 535 390 545 218
4 461 519 399 162
4 522 27 1 238
4 35 269 350 264
4 188 176 523 408
4 136 477 476 383
4 557 42 17 242
4 111 107 177 303
4 159 460 459 160
4 123 468 116 172
4 44 45 19 253
4 100 258 467 463
4 189 329 177 167
4 304 135 286 366
4 213 482 308 94
4 280 278 289 175
4 274 130 277 491
4 91 268 143 267
4 331 398 390 173
4 102 10 440 90
4 95 510 496 171
4 182 265 233 266
4 248 39 514 96
4 69 70 12 233
4 359 487 329 189
4 192 535 253 218
4 210 519 206 398
4 376 407 30 489
4 488 133 278 275
4 95 385 512 379
4 466 265 91 267
4 143 268 200 267
4 98 369 375 402
4 462 519 162 190
4 108 439 297 301
4 190 20 241 87
4 326 478 139 479
4 470 510 145 216
4 487 357 329 167
4 38 13 37 257
4 140 220 368 324
4 500 88 202 242
4 366 503 188 408
4 175 278 289 488
4 486 199 123 118
4 174 390 131 498
4 90 235 440 441
4 509 530 487 217
4 135 304 286 148
4 328 126 179 189
4 157 289 458 455
4 192 253 87 218
4 101 164 5 528
4 523 176 361 408
4 154 450 454 455
4 266 233 182 436
4 71 1 70 435
4 385 34 409 351
4 512 145 95 144
4 491 144 268 143
4 474 127 284 304
4 200 268 143 273
4 67 68 10 466
4 96 514 187 197
4 134 135 127 304
4 7 64 65 251
4 133 276 278 275
4 169 100 5 467
4 146 466 10 91
4 371 457 201 502
4 164 534 187 165
4 451 155 163 452
4 454 450 154 448
4 528 62 4 556
4 519 461 462 162
4 298 110 124 125
4 116 468 287 291
4 553 569 3 83
4 95 496 33 171
4 148 147 136 383
4 459 456 460 159
4 1 522 238 71
4 68 69 11 265
4 457 142 211 488
4 62 0 2 555
4 528 4 101 556
4 514 14 38 197
4 195 369 220 324
4 298 300 478 125
4 50 23 244 561
4 135 304 503 366
4 68 11 10 265
4 214 0 37 556
4 2 0 62 556
4 0 54 555 215
4 307 368 138 527
4 141 146 200 465
4 10 68 67 440
4 48 22 21 209
4 550 48 21 209
4 506 104 150 84
4 166 381 544 92
4 280 219 122 175
4 99 350 437 436
4 233 435 207 436
4 205 503 86 188
4 231 543 16 191
4 99 203 182 436
4 206 331 399 172
4 280 290 281 122
4 357 356 329 167
4 210 241 519 565
4 151 201 446 502
4 144 95 512 196
4 52 97 507 252
4 54 0 26 215
4 98 369 220 195
4 350 379 196 437
4 500 179 126 370
4 160 461 399 206
4 85 146 141 465
4 186 443 103 564
4 15 248 191 96
4 146 200 465 267
4 37 13 0 214
4 156 163 155 452
4 350 196 99 437
4 464 64 6 254
4 537 107 356 106
4 167 357 382 168
4 451 450 155 452
4 152 93 151 446
4 529 100 198 463
4 143 203 268 266
4 59 60 255 568
4 243 150 544 464
4 106 537 107 105
4 266 203 437 436
4 137 307 308 213
4 444 506 103 104
4 10 9 466 146
4 188 479 139 147
4 6 164 92 254
4 506 103 442 444
4 532 89 159 163
4 128 470 145 134
4 557 88 16 543
4 178 500 499 370
4 101 515 164 528
4 138 307 137 140
4 454 157 154 455
4 22 49 23 89
4 369 368 220 324
4 188 503 86 408
4 507 24 51 204
4 169 100 467 463
4 202 179 88 500
4 177 303 356 329
4 17 16 42 557
4 147 479 478 383
4 372 357 381 166
4 379 196 351 350
4 36 207 435 436
4 134 470 145 216
4 543 88 16 191
4 357 382 381 165
4 195 28 98 375
4 183 403 549 517
4 570 536 56 567
4 158 458 456 455
4 535 390 174 498
4 84 506 442 505
4 508 18 43 193
4 192 18 508 193
4 376 29 482 494
4 151 7 251 93
4 142 457 371 488
4 290 280 219 122
4 103 105 444 104
4 179 359 328 189
4 519 399 206 398
4 213 137 307 140
4 63 6 64 254
4 175 211 142 488
4 368 560 185 138
4 375 29 28 494
4 6 169 467 93
4 35 351 196 350
4 198 529 463 252
4 138 368 560 527
4 8 445 85 151
4 268 144 203 143
4 131 390 330 498
4 503 362 86 408
4 457 152 201 446
4 195 140 213 324
4 265 182 11 91
4 163 212 155 451
4 203 491 144 268
4 174 131 390 173
4 446 445 151 502
4 507 97 24 204
4 202 500 242 499
4 206 399 331 398
4 219 458 290 199
4 96 14 514 197
4 549 235 183 517
4 329 328 359 189
4 198 53 26 529
4 183 98 369 220
4 53 25 52 252
4 54 2 0 555
4 158 159 459 160
4 537 301 439 105
4 501 88 500 242
4 106 356 357 167
4 175 180 278 133
4 91 203 143 266
4 151 201 152 446
4 140 368 307 324
4 289 157 211 454
4 34 35 351 196
4 0 2 37 556
4 486 290 459 199
4 85 445 240 502
4 561 507 51 204
4 437 268 203 266
4 16 17 88 557
4 92 534 164 165
4 522 1 70 71
4 458 459 199 158
4 561 244 453 204
4 499 498 178 370
4 181 198 100 463
4 407 94 30 176
4 254 63 5 528
4 210 190 241 87
4 10 11 235 90
4 357 356 106 372
4 11 69 68 235
4 444 372 506 104
4 106 372 104 166
4 273 141 200 465
4 49 22 533 89
4 459 199 158 160
4 178 174 131 498
4 517 90 185 441
4 10 11 68 235
4 356 537 106 372
4 100 169 181 463
4 463 181 198 252
4 141 132 275 273
4 454 152 457 448
4 164 6 5 254
4 138 185 368 140
4 25 53 198 252
4 465 85 240 502
4 382 357 167 165
4 458 158 157 455
4 12 70 1 207
4 290 122 199 118
4 52 25 97 252
4 519 399 162 206
4 206 210 398 173
4 244 23 49 89
4 146 240 466 465
4 199 459 486 160
4 460 461 459 160
4 123 486 468 399
4 162 161 462 190
4 356 439 107 537
4 212 97 507 204
4 159 456 532 452
4 169 467 447 463
4 536 56 57 570
4 508 174 192 193
4 92 381 534 165
4 216 510 171 364
4 144 491 130 143
4 479 147 366 383
4 500 178 179 370
4 94 482 308 407
4 527 443 186 564
4 175 289 157 211
4 220 185 368 517
4 17 88 557 242
4 17 42 43 242
4 134 216 205 475
4 258 100 529 463
4 18 17 43 193
4 123 199 486 160
4 181 97 198 252
4 482 29 375 494
4 163 159 532 452
4 93 251 151 446
4 241 550 47 190
4 104 544 506 150
4 58 57 570 245
4 453 451 163 452
4 366 188 479 408
4 267 265 91 266
4 328 179 126 500
4 141 275 371 273
4 254 164 515 528
4 253 535 192 508
4 452 156 456 455
4 465 466 146 267
4 186 301 564 105
4 196 203 99 437
4 254 5 164 528
4 450 156 452 455
4 519 462 550 190
4 161 462 461 162
4 98 369 195 375
4 244 89 453 204
4 201 142 457 371
4 459 456 159 158
4 217 191 248 96
4 487 357 167 168
4 382 187 534 165
4 157 219 289 175
4 138 368 307 140
4 207 36 99 436
4 220 140 195 324
4 163 212 453 204
4 461 460 161 160
4 215 555 4 258
4 385 95 196 379
4 233 207 182 436
4 454 154 152 448
4 218 390 545 173
4 21 47 550 190
4 235 11 549 183
4 99 182 207 436
4 89 244 23 204
4 92 166 381 165
4 192 174 535 218
4 187 515 164 101
4 371 141 273 465
4 448 154 152 153
4 1 36 207 435
4 451 155 450 449
4 498 178 174 499
4 515 534 187 164
4 202 178 500 499
4 530 514 187 96
4 85 240 9 146
4 244 49 533 89
4 152 457 448 446
4 179 88 501 194
4 265 182 91 266
4 252 181 97 547
4 564 103 105 444
4 34 33 95 385
4 43 242 508 193
4 135 188 147 366
4 53 54 26 529
4 510 95 145 216
4 448 153 447 449
4 357 487 382 168
4 144 491 203 437
4 242 43 17 193
4 199 219 458 158
4 509 248 530 217
4 197 214 13 257
4 461 486 459 160
4 458 456 459 158
4 159 161 460 160
4 209 533 22 89
4 501 88 179 500
4 450 156 155 452
4 238 27 552 402
4 97 212 507 547
4 535 174 192 508
4 191 501 88 194
4 91 182 203 266
4 207 12 70 233
4 445 85 151 502
4 104 372 544 166
4 467 251 93 447
4 21 550 209 190
4 530 487 217 168
4 98 403 183 369
4 248 509 191 217
4 515 534 164 254
4 48 49 22 533
4 187 382 168 165
4 189 359 487 194
4 252 97 507 547
4 98 28 27 402
4 92 534 381 464
4 219 289 458 157
4 29 28 195 375
4 163 156 159 452
4 482 29 94 195
4 442 103 443 444
4 89 163 453 204
4 385 95 34 196
4 447 251 93 446
4 91 146 466 267
4 491 144 379 437
4 369 195 375 324
4 214 37 13 257
4 463 181 252 547
4 143 200 91 267
4 92 381 544 464
4 185 560 517 441
4 512 491 144 379
4 565 210 87 545
4 101 197 515 257
4 160 161 461 162
4 86 176 188 408
4 145 95 510 512
4 460 566 161 159
4 235 90 517 441
4 95 496 510 385
4 230 23 561 204
4 203 99 437 436
4 211 154 152 454
4 132 275 133 141
4 62 4 555 258
4 154 156 450 455
4 451 507 212 547
4 487 189 194 168
4 550 533 48 209
4 100 215 4 258
4 154 211 157 454
4 197 514 515 257
4 209 462 161 190
4 565 87 241 516
4 566 460 532 159
4 457 211 152 454
4 241 519 190 210
4 529 198 53 252
4 147 188 479 366
4 522 1 27 208
4 210 87 545 218
4 21 47 48 550
4 449 451 155 547
4 375 195 482 324
4 372 544 506 104
4 95 33 496 385
4 235 90 183 517
4 209 161 566 89
4 515 187 514 197
4 220 368 369 517
4 11 12 549 183
4 218 545 210 173
4 87 516 545 218
4 144 196 379 437
4 522 27 238 402
4 220 368 185 140
4 522 549 70 208
4 532 244 566 89
4 195 482 29 375
4 561 453 507 204
4 153 155 181 449
4 150 544 506 243
4 369 98 403 402
4 146 85 240 465
4 95 510 171 216
4 564 443 103 444
4 16 41 543 231
4 242 508 193 499
4 462 461 460 161
4 156 154 157 455
4 91 200 146 267
4 97 25 198 252
4 257 214 37 556
4 515 187 197 101
4 42 16 41 557
4 141 200 132 273
4 385 510 95 512
4 537 439 107 105
4 487 530 382 168
4 569 3 61 553
4 509 501 543 191
4 456 159 156 452
4 22 48 533 209
4 50 23 561 230
4 242 17 88 193
4 516 565 87 545
4 193 202 242 499
4 535 174 508 499
4 453 163 532 452
4 509 487 359 194
4 174 535 498 499
4 16 41 557 543
4 549 69 11 235
4 398 545 390 173
4 451 212 155 547
4 528 101 515 257
4 215 26 54 529
4 550 462 209 190
4 156 158 456 455
4 509 543 248 191
4 501 88 543 191
4 220 369 183 517
4 191 509 501 194
4 187 534 515 382
4 163 212 451 453
4 190 519 162 210
4 26 215 198 529
4 566 244 533 89
4 161 566 533 209
4 169 467 93 447
4 196 144 203 437
4 183 90 185 517
4 186 301 527 564
4 565 398 210 545
4 217 487 194 168
4 28 419 375 494
4 201 151 85 502
4 460 456 532 159
4 328 359 179 500
4 557 501 88 543
4 545 398 210 173
4 156 157 158 455
4 155 181 449 547
4 359 179 501 194
4 154 156 155 450
4 215 54 555 529
4 241 519 550 190
4 12 207 182 233
4 398 210 519 565
4 212 97 181 547
4 371 201 142 141
4 202 178 179 500
4 514 530 248 96
4 122 219 290 199
4 549 522 403 208
4 187 382 530 168
4 194 509 487 217
4 88 501 557 242
4 181 155 212 547
4 537 564 301 105
4 549 12 70 208
4 242 88 202 193
4 509 359 501 194
4 209 566 533 89
4 369 403 183 517
4 196 99 35 350
4 217 187 530 168
4 158 219 458 157
4 217 530 187 96
4 153 169 93 447
4 359 501 179 500
4 187 515 514 530
4 214 197 101 257
4 211 152 142 457
4 534 381 382 165
4 142 152 201 457
4 368 185 560 517
4 105 537 564 444
4 529 555 215 258
4 178 202 174 499
4 215 100 198 529
4 215 100 529 258
4 217 248 530 96
4 189 179 359 194
4 522 403 208 402
4 372 381 544 166
4 11 12 69 549
4 220 183 185 517
4 184 443 560 441
4 533 462 566 161
4 183 12 549 208
4 515 187 382 530
4 12 70 69 549
4 403 98 208 402
4 194 191 509 217
4 181 463 449 547
4 208 98 27 402
4 161 533 462 209
4 208 27 522 402
4 550 462 533 209
4 158 456 159 156
4 566 462 460 161
4 549 403 183 208
4 98 183 403 208
4 589 317 596 485
4 589 596 317 579
4 588 531 573 586
4 588 573 531 411
4 365 573 531 586
4 365 531 573 411
4 597 540 592 563
4 597 592 540 580
4 588 236 422 421
4 588 422 236 574
4 74 591 540 73
4 540 591 74 580
4 594 318 433 314
4 594 433 318 578
4 592 410 397 360
4 592 397 410 582
4 600 322 319 589
4 600 319 322 321
4 591 270 414 261
4 591 414 270 587
4 139 308 94 213
4 139 94 308 326
4 464 6 7 92
4 464 7 6 64
4 503 171 475 205
4 503 475 171 364
4 70 208 1 522
4 1 208 70 12
4 326 176 479 139
4 326 479 176 523
4 523 30 361 176
4 523 361 30 489
4 31 361 30 176
4 101 556 257 528
4 257 556 101 214
4 51 204 230 561
4 230 204 51 24
4 89 453 532 244
4 532 453 89 163
4 92 254 534 464
4 534 254 92 164
4 499 193 174 508
4 499 174 193 202
4 361 30 320 31
4 361 320 30 489

CELL_TYPES 3049
1
1
1
1
3
3
3
3
3
3
3
3
3
3
3
3
3
3
3
3
3
3
3
3
3
3
3
3
3
3
3
3
3
3
3
3
3
3
3
3
3
3
3
3
3
3
3
3
3
3
3
3
3
3
3
3
3
3
3
3
3
3
3
3
3
3
3
3
3
3
3
3
3
3
3
3
3
3
3
3
3
3
3
3
3
3
3
3
3
3
5
5
5
5
5
5
5
5
5
5
5
5
5
5
5
5
5
5
5
5
5
5
5
5
5
5
5
5
5
5
5
5
5
5
5
5
5
5
5
5
5
5
5
5
5
5
5
5
5
5
5
5
5
5
5
5
5
5
5
5
5
5
5
5
5
5
5
5
5
5
5
5
5
5
5
5
5
5
5
5
5
5
5
5
5
5
5
5
5
5
5
5
5
5
5
5
5
5
5
5
5
5
5
5
5
5
5
5
5
5
5
5
5
5
5
5
5
5
5
5
5
5
5
5
5
5
5
5
5
5
5
5
5
5
5
5
5
5
5
5
5
5
5
5
5
5
5
5
5
5
5
5
5
5
5
5
5
5
5
5
5
5
5
5
5
5
5
5
5
5
5
5
5
5
5
5
5
5
5
5
5
5
5
5
5
5
5
5
5
5
5
5
5
5
5
5
5
5
5
5
5
5
5
5
5
5
5
5
5
5
5
5
5
5
5
5
5
5
5
5
5
5
5
5
5
5
5
5
5
5
5
5
5
5
5
5
5
5
5
5
5
5
5
5
5
5
5
5
5
5
5
5
5
5
5
5
5
5
5
5
5
5
5
5
5
5
5
5
5
5
5
5
5
5
5
5
5
5
5
5
5
5
5
5
5
5
5
5
5
5
5
5
5
5
5
5
5
5
5
5
5
5
5
5
5
5
5
5
5
5
5
5
5
5
5
5
5
5
5
5
5
5
5
5
5
5
5
5
5
5
5
5
5
5
5
5
5
5
5
5
5
5
5
5
5
5
5
5
5
5
5
5
5
5
5
5
5
5
5
5
5
5
5
5
5
5
5
5
5
5
5
5
5
5
5
5
5
5
5
5
5
5
5
5
5
5
5
5
5
5
5
5
5
5
5
5
5
5
5
5
5
5
5
5
5
5
5
5
5
5
5
5
5
5
5
5
5
5
5
5
5
5
5
5
5
5
5
5
5
5
5
5
5
5
5
5
5
5
5
5
5
5
5
5
5
5
5
5
5
5
5
5
5
5
5
5
5
5
5
5
5
5
5
5
5
5
5
5
5
5
5
5
5
5
5
5
5
5
5
5
5
5
5
5
5
5
5
5
5
5
5
5
5
5
5
5
5
5
5
5
5
5
5
5
5
5
5
5
5
5
5
5
5
5
5
5
5
5
5
5
5
5
5
5
5
5
5
5
5
5
5
5
5
5
5
5
5
5
5
5
5
5
5
5
5
5
5
5
5
5
5
5
5
5
5
5
5
5
5
5
5
5
5
5
5
5
5
5
5
5
5
5
5
5
5
5
5
5
5
5
5
5
5
5
5
5
5
5
5
5
5
5
5
5
5
5
5
5
5
5
5
5
5
5
5
5
5
5
5
5
5
5
5
5
5
5
5
5
5
5
5
5
5
5
5
5
5
5
5
5
5
5
5
5
5
5
5
5
5
5
5
5
5
5
5
5
5
5
5
5
5
5
5
5
5
5
5
5
5
5
5
5
5
5
5
5
5
5
5
5
5
5
5
5
5
5
5
5
5
5
5
5
5
5
5
5
5
5
5
5
5
5
5
5
5
5
5
5
5
5
5
5
5
5
5
5
5
5
5
5
5
5
5
5
5
5
5
5
5
5
5
5
5
5
5
5
5
5
5
5
5
5
5
5
5
5
5
5
5
5
5
5
5
5
5
5
5
5
5
5
5
5
5
5
5
5
5
5
5
5
5
5
5
5
5
5
5
5
5
5
5
5
5
5
5
5
5
5
5
5
5
5
5
5
5
5
5
5
5
5
5
5
5
5
5
5
5
5
5
5
5
5
5
5
5
5
5
5
5
5
5
5
5
5
5
5
5
5
5
5
5
5
5
5
5
5
5
5
5
5
5
5
5
5
5
5
5
5
5
5
5
5
5
5
5
5
5
5
5
5
5
5
5
5
5
5
5
5
5
5
5
5
5
5
5
5
5
5
5
5
5
5
5
5
5
5
5
5
5
5
5
5
5
5
5
5
5
5
5
5
5
5
5
5
5
5
5
5
5
5
5
5
5
5
5
5
5
5
5
5
5
5
5
5
5
5
5
5
5
5
5
5
5
5
5
5
5
5
5
5
5
5
5
5
5
5
5
5
5
5
5
5
5
5
5
5
5
5
5
5
5
5
5
5
5
5
5
5
5
5
5
5
5
5
5
5
5
5
5
5
5
5
5
5
5
5
5
5
5
5
5
5
5
5
5
5
5
5
5
5
5
5
5
5
5
5
5
5
5
5
5
5
5
5
5
5
5
5
5
5
5
5
5
5
5
5
5
5
5
5
5
5
5
5
5
5
5
5
5
5
5
5
5
5
5
5
5
5
5
5
5
5
5
5
5
5
5
5
5
5
5
5
5
5
5
5
5
5
5
5
5
5
5
5
5
5
5
5
5
5
5
5
5
5
5
5
5
5
5
5
5
5
5
5
5
5
5
5
5
5
5
5
5
5
5
5
5
5
5
5
5
5
5
5
5
5
5
5
5
5
5
5
5
5
5
5
5
5
5
5
5
5
5
5
5
5
5
5
5
5
5
5
5
5
5
5
5
5
10
10
10
10
10
10
10
10
10
10
10
10
10
10
10
10
10
10
10
10
10
10
10
10
10
10
10
10
10
10
10
10
10
10
10
10
10
10
10
10
10
10
10
10
10
10
10
10
10
10
10
10
10
10
10
10
10
10
10
10
10
10
10
10
10
10
10
10
10
10
10
10
10
10
10
10
10
10
10
10
10
10
10
10
10
10
10
10
10
10
10
10
10
10
10
10
10
10
10
10
10
10
10
10
10
10
10
10
10
10
10
10
10
10
10
10
10
10
10
10
10
10
10
10
10
10
10
10
10
10
10
10
10
10
10
10
10
10
10
10
10
10
10
10
10
10
10
10
10
10
10
10
10
10
10
10
10
10
10
10
10
10
10
10
10
10
10
10
10
10
10
10
10
10
10
10
10
10
10
10
10
10
10
10
10
10
10
10
10
10
10
10
10
10
10
10
10
10
10
10
10
10
10
10
10
10
10
10
10
10
10
10
10
10
10
10
10
10
10
10
10
10
10
10
10
10
10
10
10
10
10
10
10
10
10
10
10
10
10
10
10
10
10
10
10
10
10
10
10
10
10
10
10
10
10
10
10
10
10
10
10
10
10
10
10
10
10
10
10
10
10
10
10
10
10
10
10
10
10
10
10
10
10
10
10
10
10
10
10
10
10
10
10
10
10
10
10
10
10
10
10
10
10
10
10
10
10
10
10
10
10
10
10
10
10
10
10
10
10
10
10
10
10
10
10
10
10
10
10
10
10
10
10
10
10
10
10
10
10
10
10
10
10
10
10
10
10
10
10
10
10
10
10
10
10
10
10
10
10
10
10
10
10
10
10
10
10
10
10
10
10
10
10
10
10
10
10
10
10
10
10
10
10
10
10
10
10
10
10
10
10
10
10
10
10
10
10
10
10
10
10
10
10
10
10
10
10
10
10
10
10
10
10
10
10
10
10
10
10
10
10
10
10
10
10
10
10
10
10
10
10
10
10
10
10
10
10
10
10
10
10
10
10
10
10
10
10
10
10
10
10
10
10
10
10
10
10
10
10
10
10
10
10
10
10
10
10
10
10
10
10
10
10
10
10
10
10
10
10
10
10
10
10
10
10
10
10
10
10
10
10
10
10
10
10
10
10
10
10
10
10
10
10
10
10
10
10
10
10
10
10
10
10
10
10
10
10
10
10
10
10
10
10
10
10
10
10
10
10
10
10
10
10
10
10
10
10
10
10
10
10
10
10
10
10
10
10
10
10
10
10
10
10
10
10
10
10
10
10
10
10
10
10
10
10
10
10
10
10
10
10
10
10
10
10
10
10
10
10
10
10
10
10
10
10
10
10
10
10
10
10
10
10
10
10
10
10
10
10
10
10
10
10
10
10
10
10
10
10
10
10
10
10
10
10
10
10
10
10
10
10
10
10
10
10
10
10
10
10
10
10
10
10
10
10
10
10
10
10
10
10
10
10
10
10
10
10
10
10
10
10
10
10
10
10
10
10
10
10
10
10
10
10
10
10
10
10
10
10
10
10
10
10
10
10
10
10
10
10
10
10
10
10
10
10
10
10
10
10
10
10
10
10
10
10
10
10
10
10
10
10
10
10
10
10
10
10
10
10
10
10
10
10
10
10
10
10
10
10
10
10
10
10
10
10
10
10
10
10
10
10
10
10
10
10
10
10
10
10
10
10
10
10
10
10
10
10
10
10
10
10
10
10
10
10
10
10
10
10
10
10
10
10
10
10
10
10
10
10
10
10
10
10
10
10
10
10
10
10
10
10
10
10
10
10
10
10
10
10
10
10
10
10
10
10
10
10
10
10
10
10
10
10
10
10
10
10
10
10
10
10
10
10
10
10
10
10
10
10
10
10
10
10
10
10
10
10
10
10
10
10
10
10
10
10
10
10
10
10
10
10
10
10
10
10
10
10
10
10
10
10
10
10
10
10
10
10
10
10
10
10
10
10
10
10
10
10
10
10
10
10
10
10
10
10
10
10
10
10
10
10
10
10
10
10
10
10
10
10
10
10
10
10
10
10
10
10
10
10
10
10
10
10
10
10
10
10
10
10
10
10
10
10
10
10
10
10
10
10
10
10
10
10
10
10
10
10
10
10
10
10
10
10
10
10
10
10
10
10
10
10
10
10
10
10
10
10
10
10
10
10
10
10
10
10
10
10
10
10
10
10
10
10
10
10
10
10
10
10
10
10
10
10
10
10
10
10
10
10
10
10
10
10
10
10
10
10
10
10
10
10
10
10
10
10
10
10
10
10
10
10
10
10
10
10
10
10
10
10
10
10
10
10
10
10
10
10
10
10
10
10
10
10
10
10
10
10
10
10
10
10
10
10
10
10
10
10
10
10
10
10
10
10
10
10
10
10
10
10
10
10
10
10
10
10
10
10
10
10
10
10
10
10
10
10
10
10
10
10
10
10
10
10
10
10
10
10
10
10
10
10
10
10
10
10
10
10
10
10
10
10
10
10
10
10
10
10
10
10
10
10
10
10
10
10
10
10
10
10
10
10
10
10
10
10
10
10
10
10
10
10
10
10
10
10
10
10
10
10
10
10
10
10
10
10
10
10
10
10
10
10
10
10
10
10
10
10
10
10
10
10
10
10
10
10
10
10
10
10
10
10
10
10
10
10
10
10
10
10
10
10
10
10
10
10
10
10
10
10
10
10
10
10
10
10
10
10
10
10
10
10
10
10
10
10
10
10
10
10
10
10
10
10
10
10
10
10
10
10
10
10
10
10
10
10
10
10
10
10
10
10
10
10
10
10
10
10
10
10
10
10
10
10
10
10
10
10
10
10
10
10
10
10
10
10
10
10
10
10
10
10
10
10
10
10
10
10
10
10
10
10
10
10
10
10
10
10
10
10
10
10
10
10
10
10
10
10
10
10
10
10
10
10
10
10
10
10
10
10
10
10
10
10
10
10
10
10
10
10
10
10
10
10
10
10
10
10
10
10
10
10
10
10
10
10
10
10
10
10
10
10
10
10
10
10
10
10
10
10
10
10
10
10
10
10
10
10
10
10
10
10
10
10
10
10
10
10
10
10
10
10
10
10
10
10
10
10
10
10
10
10
10
10
10
10
10
10
10
10
10
10
10
10
10
10
10
10
10
10
10
10
10
10
10
10
10
10
10
10
10
10
10
10
10
10
10
10
10
10
10
10
10
10
10
10
10
10
10
10
10
10
10
10
10
10
10
10
10
10
10
10
10
10
10
10
10
10
10
10
10
10
10
10
10
10
10
10
10
10
10
10
10
10
10
10
10
10
10
10
10
10
10
10
10
10
10
10
10
10
10
10
10
10
10
10
10
10
10
10
10
10
10
10
10
10
10
10
10
10
10
10
10
10
10
10
10
10
10
10
10
10
10
10
10
10
10
10
10
10
10
10
10
10
10
10
10
10
10
10
10
10
10
10
10
10
10
10
10
10
10
10
10
10
10
10
10
10
10
10
10
10
10
10
10
10
10
10
10
10
10
10
10
10
10
10
10
10
10
10
10
10
10
10
10
10
10
10
10
10
10
10
10
10
10
10
10
10
10
10
10
10
10
10
10
10
10
10
10
10
10
10
10
10
10
10
10
10
10
10
10
10
10
10
10
10
10
10
10
10
10
10
10
10
10
10
10
10
10
10
10
10
10
10
10
10
10
10
10
10
10
10
10
10
10
10
10
10
10
10
10
10
10
10
10
10
10
10
10
10
10
10
10
10
10
10
10
10
10
10
10
10
10
10
10
10
10
10
10
10
10
10
10
10
10
10
10
10
10
10
10
10
10
10
10
10
10
10
10
10
10
10
10
10
10
10
10
10
10
10
10
10
10
10
10
10
10
10
10
10
10
10
10
10
10
10
10
10
10
10
10
10
10
10
10
10
10
10
10
10
10
10
10
10
10
10
10
10
10
10
10
10
10
10
10
10
10
10
10
10
10
10
10
10
10
10
10
10
10
10
10
10
10
10
10
10
10
10
10
10
10
10
10
10
10
10
10
10
10
10
10
10
10
10
10
10
10
10
10
10
10
10
10
10
10
10
10
10
10
10
10
10
10
10
10
10
10
10
10
10
10
10
10
10
10
10
10
10
10
10
10
10
10
10
10
10
10
10
10
10
10
10
