# vtk DataFile Version 2.0
whisker_body, Created by Gmsh 4.13.1 
ASCII
DATASET UNSTRUCTURED_GRID
POINTS 627 double
-9.380831519646884 -1.49999999999992 0
9.380831519646883 -1.499999999999922 0
-7.3012651561797 -1.499999999999972 26
7.301265156179699 -1.499999999999972 26
12 0 0
9.380831519646888 1.499999999999912 0
0 9.5 0
-9.380831519646886 1.499999999999914 0
6.490880522276705 0 70
7.301265156179748 1.499999999999854 26
0 7.453755622559919 26
-7.301265156179753 1.499999999999844 26
-8.038537166172308 -5.062797668094835 0
-5.405152974387317 -7.812446564519462 0
-1.903633457046841 -9.307318607483676 0
1.903633457046822 -9.307318607483682 0
5.405152974387304 -7.81244656451947 0
8.038537166172301 -5.062797668094844 0
-5.628498911788131 -1.5 0
-1.876166303929377 -1.5 0
1.876166303929375 -1.5 0
5.62849891178813 -1.5 0
-7.59944666851479 -1.5 22.28580251214828
-7.897192202403843 -1.5 18.57157052551642
-8.194549339183904 -1.5 14.85730694785475
-8.491558881300939 -1.5 11.14301499551362
-8.788255946204908 -1.5 7.428699021999336
-9.084671242567831 -1.5 3.7143601497894
-5.894428217060091 -4.562256993503259 26
-3.282721749094444 -6.691951195194562 26
5.707443093196733e-15 -7.453755622559919 26
3.28272174909445 -6.691951195194559 26
5.894428217060097 -4.562256993503253 26
9.084671242567831 -1.5 3.7143601497894
8.788255946204908 -1.5 7.428699021999336
8.491558881300939 -1.5 11.14301499551362
8.194549339183904 -1.5 14.85730694785475
7.897192202403843 -1.5 18.57157052551642
7.59944666851479 -1.5 22.28580251214828
-3.650632578089851 -1.5 26
0 -1.5 26
3.65063257808985 -1.5 26
11.34980690040761 3.896393630456207 0
9.469686112756717 7.370552552276022 0
6.563377897469113 10.04599773915035 0
2.945825845689581 11.63280319127197 0
-0.9909521456679979 11.95901391608004 0
-4.820345095835646 10.98927991986068 0
-8.127378859508902 8.82868692807757 0
-10.55368501447787 5.71136871644487 0
-11.83633564083267 1.975135083368787 0
-11.83633564083267 -1.975135083368821 0
-10.55368501447786 -5.711368716444897 0
-8.12737885950888 -8.828686928077589 0
-4.820345095835619 -10.9892799198607 0
-0.9909521456679715 -11.95901391608004 0
2.945825845689616 -11.63280319127196 0
6.563377897469155 -10.04599773915032 0
9.469686112756747 -7.370552552275983 0
11.34980690040762 -3.896393630456205 0
8.283559167353857 4.651091003296739 0
6.164414002969012 7.228416147400448 0
3.284817087730742 8.914032572307111 0
5.628498911788133 1.5 0
1.876166303929379 1.5 0
-1.876166303929375 1.5 0
-5.62849891178813 1.5 0
-3.284817087730742 8.914032572307111 0
-6.164414002969012 7.22841614740045 0
-8.283559167353854 4.651091003296747 0
5.460476170550379 3.509234951570297 70
2.69640921655526 5.904312601086342 70
-0.9237486117790363 6.424812717636788 70
-4.250622782769287 4.905480191894958 70
-6.227954253695701 1.828692365693239 70
-6.227954253695695 -1.82869236569326 70
-4.250622782769273 -4.905480191894971 70
-0.9237486117790209 -6.42481271763679 70
2.696409216555272 -5.904312601086336 70
5.460476170550383 -3.509234951570289 70
11.69393780679315 0 3.888888888888888
11.3878756135863 0 7.777777777777777
11.08181342037945 0 11.66666666666667
10.7757512271726 0 15.55555555555555
10.46968903396575 0 19.44444444444444
10.1636268407589 0 23.33333333333333
9.857564647552053 0 27.22222222222222
9.551502454345203 0 31.11111111111111
9.245440261138352 0 35
8.939378067931504 0 38.88888888888889
8.633315874724653 0 42.77777777777777
8.327253681517803 0 46.66666666666666
8.021191488310954 0 50.55555555555556
7.715129295104104 0 54.44444444444444
7.409067101897254 0 58.33333333333333
7.103004908690405 0 62.22222222222221
6.796942715483555 0 66.11111111111111
7.59944666851479 1.5 22.28580251214828
7.897192202403843 1.5 18.57157052551642
8.194549339183904 1.5 14.85730694785475
8.491558881300939 1.5 11.14301499551362
8.788255946204908 1.5 7.428699021999336
9.084671242567831 1.5 3.7143601497894
5.894428217060147 4.562256993503188 26
3.282721749094483 6.691951195194543 26
0 9.207679374651416 3.714285714285714
0 8.915358749302834 7.428571428571428
0 8.623038123954251 11.14285714285714
0 8.330717498605669 14.85714285714286
0 8.038396873257085 18.57142857142857
0 7.746076247908502 22.28571428571428
-9.084671242567831 1.5 3.7143601497894
-8.788255946204908 1.5 7.428699021999336
-8.491558881300939 1.5 11.14301499551362
-8.194549339183904 1.5 14.85730694785475
-7.897192202403843 1.5 18.57157052551642
-7.59944666851479 1.5 22.28580251214828
3.650632578089873 1.5 26
-1.77635683940025e-15 1.5 26
-3.650632578089878 1.5 26
-3.282721749094491 6.691951195194539 26
-5.894428217060153 4.562256993503181 26
-6.848673558820397 -4.4951064352937 16.61859332139128
-0.357604276834772 -9.236669087101362 3.258011320692989
7.09823213330309 -4.663736488393644 12.79194028448162
1.777793955201176 -7.471319176550762 23.12631707534347
-7.726672705823508 -4.164172916059103 9.182186511454368
7.462014927125006 -5.337188576704833 4.138779158568022
-4.712236383338039 -6.06282054040386 23.14137139850532
6.508577852574506 -4.477632076242248 20.32930459522433
-6.673630370101443 -6.391446101097907 3.296513936671632
7.139263444236166 -5.22602350420303 8.289256233058055
4.674932547027489 -7.263551187202061 10.95339117280097
4.715858911220619 -6.887009512184837 14.65191614689825
1.844360452282832 -8.280164816164609 12.92108245083615
2.095775293786912 -7.90189838610457 16.83444119235568
-1.318682814689622 -8.237273714423489 14.71177558870811
-1.264760866660813 -8.539702973019638 11.01815026379138
-1.551583567212859 -7.905512648092555 18.3434966232557
4.629845645226385 -7.638893465134083 7.211761358369008
-4.305668434824097 -7.328174945326158 12.71298505463545
-4.261902430874803 -7.687815143663478 9.019805163224069
-1.165884330097536 -8.849033290078511 7.299624799834547
6.86346802358184 -4.462872797433771 16.68521949087038
-6.969054641559737 -4.837590311997598 12.91568459271784
-6.528355351315406 -4.455099604550155 20.28382905141876
4.700030843404219 -6.072052087920985 23.14373615546098
3.759891897411081 -6.956781072763621 20.23058689136764
-4.305702588678147 -6.994687444248505 16.34409979864282
-1.65514242857035 -7.522028093489702 22.84608680573563
-4.291189186459406 -6.682818315501262 19.79706590195592
4.873053688905534 -7.819949599064595 3.633651875538845
-3.853831777756585 -8.221978556010745 5.332022648000936
1.818504814359575 -8.570712987034693 9.383388178170735
-8.038588036225971 -4.153618910813064 5.739592939938861
2.253218005472161 -8.75420092450422 5.850880502560202
1.088823048823087 -7.821362106537831 20.37075590428135
-3.654958986129008 -8.561207820592067 2.429940190099452
4.785196979816186 -6.569772621874118 17.43632208877306
-6.167341613401022 -6.482648836475501 7.017989600758092
-6.621104025534605 -3.84445250969822 23.42650939289779
6.621104025534598 -3.844452509698231 23.4265093928978
-8.311075898571746 -4.134939423409266 2.758876888120758
-6.007620444122686 -6.24606665991781 10.59309219697279
2.583920391493844 -8.927134166609276 2.622992653560951
8.579511029333007 -3.608550138317093 2.445884786287885
8.158499993883551 -3.811744602552222 6.289222777771927
-0.07889282249998786 -1.5 3.10088970455937
-5.127228334941979 -1.5 12.74320843548792
4.829224361086847 -1.5 16.45691991864131
-4.584407112956795 -1.5 20.1893295984139
5.516102347940365 -1.5 9.000340530347721
1.92847983157931 -1.5 22.86090450666656
-5.914247427528825 -1.5 5.455281613786491
5.197742109098648 -1.5 3.699806202789107
-4.840801391669586 -1.5 16.46024471174676
-1.807768460014531 -1.5 14.34849741971262
-2.065702914156423 -1.5 10.63047221421965
1.306663950965847 -1.5 12.23212228159523
0.4574216670280329 -1.5 9.142672914533621
-1.698842729556253 -1.5 18.15907405251726
-5.456940068801933 -1.5 9.052663403375973
4.897078900263704 -1.5 12.79263965852606
4.693372940405524 -1.5 20.35431399585264
-2.226882058449375 -1.5 6.794928668157903
-1.671241794901363 -1.5 22.40285355777994
1.462042512697414 -1.5 15.65039716351772
-3.596471551793563 -1.5 2.99969077514657
1.590505853551912 -1.5 19.31407719916257
4.777429548343493 -1.5 23.24174976422941
-4.777429548343495 -1.5 23.2417497642294
-6.512032997287754 -1.5 2.643026738305771
2.662006751267663 -1.5 2.620115435047115
2.604655564557108 -1.5 6.379443811632732
6.252876528707857 -1.5 6.304104590639376
2.956384486151013 -1.5 9.909443839327075
1.038926110124205 -4.476877811279958 26
-1.876151972952276 -4.009889178439589 26
3.471295014032623 -4.256950896126821 26
4.204497543648224 -9.699641525606356 0
-7.504665215717504 2.081668171172169e-14 0
-10.01360283557782 3.459398700777601 0
-9.952347335282427 -3.562325366977118 0
-8.28225926107741 6.60489069880491 0
7.504665215717479 -8.243157549326965e-15 0
-3.752332607858754 -3.262696235633113e-16 0
8.640724239821758e-16 5.551115123125782e-16 0
3.752332607858753 -1.507101167913691e-15 0
-5.599238761511074 8.990103891911453 0
8.466875056264714 -3.317303643854778 36.93007096033316
7.821845623372724 3.279344685476489 44.70713471457508
9.120245910289237 3.327061996254799 29.12068223207024
9.438050282588245 -3.346942070676019 25.23539915122393
7.480602335079111 -3.305867378120807 48.55652201355586
-11.73088669374762 -1.940162152660215e-14 3.419408766471569
-2.879762434608169 11.37192468062311 3.419408766471415
6.812365077327485 3.293518903324991 56.32988361258961
-2.879762434608137 -11.37192468062312 3.419408766471416
10.03700683094855 3.489405754362892 17.45498758261763
-5.574956286394031 -3.78668395756391 66.84263711464807
10.40992648181423 -3.337958848351206 13.57027627075233
6.474699525225045 -3.286119309726038 60.21628526319177
8.493391781973815 3.256056274121223 36.89714897511699
-2.669043431082613 6.204494043296981 66.65390636929733
10.73011947691677 3.340138153048984 9.682499500092435
7.94511337650492 -8.630693833987381 3.419408766471505
-9.382025185936769 7.057263868497892 3.303737750555006
-9.257317901175359 -7.205259738421862 3.419408766471709
4.803466868453009 10.70734651965919 3.361547323836406
0.8577132096463104 -6.682361437659472 66.87043825172104
6.165289275614898 3.237167037505388 63.99506470565762
10.0733686959848 6.038330996047115 3.245938804936132
11.04956328535986 -3.342145186211126 5.794663767161262
8.783016539913215 -3.341931786525523 33.07000617794214
9.102545075636485 -3.36149058570941 29.18108665520185
7.611208606427684 -6.286816455844814 27.03997905948282
6.879424192480172 -6.190743779632303 34.88075559725996
7.996199202246782 -6.298655526033382 23.13786019255063
5.281824749839164 -8.542778425125565 24.85662570503997
5.715010904353043 -8.628689103281204 20.96945776769745
2.409586204936747 -9.933761573534991 22.59384420289131
1.920495161629743 -9.728975348874648 26.47062868389184
-1.18705066350801 -10.03173334255851 24.11992415358298
-1.680801449017463 -9.653258574303541 27.97277951559827
-0.6925830340437528 -10.38256099518798 20.25832547381912
-4.190155940420174 -9.400636965553099 21.69965563168639
-3.73710915203073 -9.914209315274325 17.85011526381134
-6.836928219271687 -7.953519307498699 19.20941137450332
-7.163188422986155 -7.242617663427911 23.04145696361544
-9.094766823697393 -5.021698265322373 20.46913564924288
-9.198936850700129 -4.144677891714113 24.27471063609224
-10.1983058705171 -1.432579864348417 21.62045531784573
-9.988918505929044 -0.4896264159887282 25.4008302350095
-9.953976520863005 2.29904561020787 22.66749407374319
-9.370421203342785 3.260279045484106 26.41109473820383
-8.362684729243853 5.738935338405114 23.602045614405
-7.416985122323608 6.481958297194446 27.31514646972684
-8.697482598686259 4.127351002550752 30.1504374406179
-5.604963761738087 8.375388923071117 24.4234219662696
-6.768892353947395 7.853739082201203 20.73426060698601
-10.42163906876213 1.375253179197525 18.90699087890821
-4.352737005181482 8.767586217033022 28.09837293801879
-0.1940645672767377 -10.70827308020493 16.39060464395387
-3.380367475072507 9.739790671049214 21.47699437942988
-4.746185202931127 9.47616445617888 17.81028484621179
-8.948883763619577 -5.846906895348472 16.64944240521958
-1.030811940127664 10.49493445467649 18.48198676062395
0.3999990738681296 10.25188510562783 22.1127917731506
6.524741635784824 -6.121799447744249 38.79213331655823
4.013253670520448 -8.183233931553442 36.66555745460211
3.626380678060273 -8.028800211265423 40.53555529642336
0.5839185476495607 -8.965834366296278 38.31138386247529
0.16592746797796 -8.680863953800111 42.15347471292453
-2.931469100343624 -8.365944143841229 39.83803144901826
-3.303128537434968 -7.902064048410841 43.6502272549517
-5.931799797645593 -6.437300243455574 41.24973491671117
-6.186017647391353 -5.765925596659877 45.02419602434285
-7.949483379014878 -3.416439305225011 42.53358915225726
-7.943272704022186 -2.600661336460589 46.27382627747377
-6.40977109274399 -5.052402148289077 48.77132627770006
-7.873439916110575 -1.751455692707246 49.98755066844598
-6.597768110249835 -4.288812486796822 52.48667108385916
-7.724958955028463 -0.8877994639890856 53.67345763571592
-7.757731322818455 1.869402192543134 51.08160227394211
-8.559578714907422 0.1583766228244368 43.69608156644909
-7.200427618891021 2.70775151231188 54.72906992214008
-9.240323277004277 -3.236715650132309 28.07045807169184
-6.004337603949486 5.141706235407195 52.0317572436125
-5.037971526982362 5.71782777826552 55.64457992072981
-2.445260017261438 10.55295269000095 14.83387776414825
-5.986422579920178 9.104205850611732 14.02706493601312
1.421496310008516 10.6911064579814 15.43557408200571
-6.726889040193566 -3.490113008366289 56.18194062413263
-4.453879298614579 -6.254898150689501 54.90868107888703
-6.524785198445621 3.505484259572304 58.36166308702482
-8.82400695973217 -0.7234803475373855 39.97859471656018
-8.270160497573533 2.916702553300301 41.04842444136457
-3.273520826866245 -10.39564361123653 13.99119638399828
0.2700458071978424 -11.01216895418948 12.50951834863085
-3.0130268932219 7.238072197944637 52.85585052400354
-4.149549264539813 6.984464447278832 49.24758644517435
-5.651055626330085 -7.070981955522493 37.46174369884489
-0.6264714945194176 8.041796925550184 49.98415503201991
-1.85577853528329 8.140475489097142 46.38620327463484
-0.2669679679360508 -8.378313243100825 45.96386312384355
-4.888446811382968 -5.552369200194782 58.47798017814646
0.3532218965599711 11.06953840318764 11.75104740972185
3.981100075486588 10.28527693252936 12.33931559504497
-1.674656003803791 -7.306404421835689 57.23043925661555
-3.992296108751729 6.15707705687405 59.2347835804846
3.359566171586512 -10.29875495291452 14.82981267088496
3.856416544674046 -10.4496486867981 10.94586836000549
-1.251461133985157 -7.689221110434023 53.48808504814667
1.808490967181123 -7.396955957106456 55.71890029343883
0.8718752447927359 -7.229810718077919 59.94542638282474
5.182500280957757 9.414683270802074 15.92290736990793
0.7123522021353557 7.752406627363178 53.55581308732967
3.150223455941388 7.374887070809625 50.57666224378047
-8.811537252471703 2.123887175748672 37.30682631469922
-7.17568509163279 5.405096354127452 38.32667478146795
2.294953036756585 -7.573450259728133 51.92352349153532
0.9967277334963729 -9.240240745540627 34.38498659807885
-5.726572673195713 4.236976128053159 61.96060425997709
-7.142148117748572 0.9119647111903664 60.98805384994781
-9.01725630016662 -1.568090703824457 36.17983278334392
-2.789031365303805 -10.84785054923587 10.15670641624724
-6.107836893703733 -9.260252000739595 11.52264369113248
7.04206774211759 8.436016107266324 12.84657144576828
8.361953471896747 -6.324833879358084 19.25561750379901
6.141003089616699 -6.082498890086144 42.64939093063388
-7.616431773357383 3.725898754516504 44.73936097604273
6.571303131013839 -8.773705036042726 13.19223918566893
4.960562803853538 -5.946789981695672 54.07600070369083
6.173850162223294 9.432579221961729 9.232086574512266
6.967275680860364 -8.848547849561461 9.373182112679208
4.324088995829404 -10.59684331165163 7.050384467628602
-5.32629398109382 -10.09809375600673 7.411603685517881
-8.487113833558158 -7.447670545367519 9.001825314186243
-6.603680995283898 2.079705553531051 64.50403420883336
-8.00396691955042 4.685147587545578 34.63230631587648
-5.437797367437262 7.425253119407957 35.53316948421423
-4.242590290514674 7.84133388241167 39.19232472357455
-1.832329848693629 8.960224869010949 36.26785236312864
-0.5765241697742967 8.837682233109339 39.9423741442335
1.849872620928992 8.899667457739303 36.97644692296723
0.5132927054831183 9.359801770711686 33.36819979117228
3.144012924083054 8.227298092336509 40.56369669567716
4.209002883111371 8.324657092983408 33.94822958179966
2.963286359148862 9.142563640534984 30.35762513792001
6.128278957827192 7.35831524366794 30.79928948703606
5.234329741745697 8.346369408941031 27.29409744357603
1.642611579644337 9.758102940890689 26.74160390974326
4.690319260378703 6.172042667087516 53.97620239545471
1.816719329558488 7.284593019800094 57.07990981219875
5.72914804898042 5.572768150507532 50.92104869587019
5.143087054328494 6.478202243603991 47.37451867007073
-2.829951043004895 6.466735315059812 62.78333083711854
-6.504471784522259 -2.597048311147125 63.4831041329227
1.422008314042538 -9.506309319455882 30.34143835478791
-2.166849368902052 -9.245992881653184 31.80991110156835
-5.031957342435733 -8.279001356309045 29.37339168566592
-5.365257980226898 -7.70178943940549 33.20958050931493
4.429476495266452 -8.324599268520084 32.65877628242423
8.125325701045401 6.98704524894902 16.31057953088996
6.301541693150611 8.356252718862432 19.49178473807643
4.043262182353629 9.293158212820341 23.70175218693822
7.212891193941352 7.065418157808556 24.18209467915849
8.850299723967813 5.392296334569219 20.79215143863551
9.919058884846141 4.581102421970722 13.64835217593424
6.538351839751178 3.157919130098961 60.2143743734327
4.414042537792629 5.585686402006251 62.01585914606407
4.138144047131052 5.387543977737858 66.15651582754822
-6.504940564237036 6.913775306379268 31.85613392084015
-9.325715485402791 1.240524415447229 32.93623428956081
-9.15332283630871 -2.363321732376898 32.35638644475308
-3.070134746753145 8.979865209976122 31.89015949704764
6.134253390665793 -3.277701462516695 64.10246807720824
4.44719752229916 -5.565774223815565 61.95185821582874
6.82538332782253 -3.2519847213036 56.40911025808903
0.4176052334049462 8.562760794165827 43.54495097298076
7.821444899016248 -3.273718557035624 44.73945163011107
3.184088801977888 -7.890276808492747 44.36347686853152
8.142665004172354 3.313992304868755 40.77142338138828
6.547933426142781 6.096020851535626 38.8004980519441
6.155496170381803 6.073937672719762 42.59490973459093
-3.689230240654186 -7.398443506352544 47.42911376049624
6.15802055071512 -8.6944786364728 17.09810324606251
8.921447666163926 2.944408273072196 33.10254168374649
-4.108975473238598 -6.832143239887355 51.17335947585379
-4.619375434080507 -8.857677728035263 25.54138946221508
-7.462857536274309 -6.483881681916386 26.85965193574242
-2.607334092586317 -8.790597126218785 35.96972192612201
-8.203927934533366 1.042116927809323 47.39603252381643
9.247461764425282 3.904838759672106 24.92838964392626
9.75344337363439 -3.367431168270402 21.36683284516031
10.73468677120717 -3.311697602165599 9.734035763886601
-6.500366499448212 -8.612041653459011 15.37572885779522
2.889041135896055 -10.12245141507147 18.72055330083293
2.833146186211836 10.11175380456694 19.04461571856078
-8.74431267117455 -6.657887155782566 12.82727483797651
-10.37237892751235 -4.214491011424522 10.2170579281733
-10.37781901318575 -3.313463817809461 14.05368413716731
-11.09224401634598 -0.5281919354752714 11.37443371929357
-11.37170102718439 -1.215045413448999 7.160842211853261
-11.02983072490431 2.536031033063219 8.670405674103415
-10.52066214416165 3.2872057517311 12.42345793708573
-9.504115593280458 6.021190149488303 9.518108863245052
0.8252769637312293 -11.28606138200553 8.688569525632996
0.7848632333440275 -11.59047350051871 4.866259159953717
-1.952397023604314 9.824102776850573 25.20619658915475
-7.674083670655969 -5.746147455228996 30.66060100535306
-0.7635266782988751 -8.04971929375388 49.73400425251636
-10.31402186915431 -2.417858921476624 17.86956979882953
-1.76526860976431 7.349442795678797 56.43497781274708
-7.865700756874627 -4.254277229452324 38.84935106821453
8.888669159815022 6.889866059547402 9.576988471894648
7.598264685449993 8.659714673215957 6.091321412623381
-7.819073636765159 7.246575549565313 17.01727385410431
-9.179758099299143 4.968726543686459 19.84443918350664
-6.254500785779039 6.039675334628694 41.99880484590953
-6.86874790249245 4.462419513300877 48.3976199776958
-10.79875499509293 0.4451680705998393 15.14672476364212
-2.757296387398454 -6.150354169781544 66.83280849978328
-1.40981398143522 -6.844909175707916 63.67603156902661
-4.51263561196046 -5.344032126485172 63.60133535803456
2.786435695843301 -7.721164766030288 48.17469527574249
-0.4869282342827714 7.264104205531265 59.96812982651458
0.5734210783601776 6.986153691290252 63.40844323786779
4.828132673870972 -8.45227473945911 28.79156980743505
-5.250202460358345 6.568435297274084 45.62972862405349
4.067720770705645 -5.383748686241623 66.73713159224978
-9.69039694022605 0.5232964893039823 29.16688883426026
-9.90014177988796 4.128969747554309 16.17934024860643
-6.808150394030012 -2.628073453248758 59.74729261195825
10.09252368562489 -3.324594675111756 17.45827263483055
8.744830728172122 -6.317778224131924 15.3967152685927
7.233294554197166 -6.258093556905324 30.94288969039014
5.790781333427548 -6.007950123301589 46.44910522655942
5.379797744762369 -5.97820693051614 50.28529846129835
7.164353290877433 -3.258929034060714 52.46720006279107
-3.135912086685135 8.041161770785962 42.80715499874128
-7.491900214314756 0.04688785162112238 57.27897457169704
-10.0072221291596 -5.645734465604736 6.480876363608078
9.084837723470475 -6.368551425055673 11.50272350783508
2.466884230776387 11.03791357504761 8.764498569627772
-1.403601177759911 11.27218108493036 8.141723217441534
1.092117035349939 11.54576331278141 5.11678711138226
-5.227120997012489 10.21083001378087 6.721580927627318
-3.928673905297156 10.44470850495288 10.68413426574669
9.090447959937713 -6.936171812195589 7.185951463137304
8.143344116689928 -3.301198668477189 40.8246041429809
1.802901397462049 8.089641165460373 47.16404942737201
-7.823264141492491 -4.915258215384834 35.07900913337932
-8.697306640392457 6.65384534602121 13.33321807692324
4.611957054041111 -5.8347969202411 57.97325779731037
-6.466113141939438 -9.789586727145592 3.401578715089108
-11.12227758724472 3.756462704870675 3.309852400191942
4.644756120182949 -10.77729677694288 3.359749051448041
-6.57100561731606 9.732884422269489 3.260568785415332
6.809758881506762 6.306345444293048 34.54416770445578
7.403281567692047 3.503943709466165 48.40280601839268
-11.11909868108967 -3.817191398723795 3.099357613423453
10.23150102214261 -5.772003778762268 3.210542373291887
11.0729416002626 3.182971904762964 6.081913120420572
0.5699835773061835 6.707696793888954 66.93793471373338
-5.446952315000612 3.956410219756108 66.9337882386955
-7.313116703378713 8.577565378471792 9.251064076341287
-0.8034223819367812 9.671463274807452 29.16357807964226
-2.895866219490761 -6.627647927778628 60.57445767584074
-6.707380564607688 -0.5057370651379259 67.00718906052731
4.886118269318272 5.591514634946426 58.12356043109436
7.801780303757355 5.99652661993244 27.44507462506
-2.046781421975172 -11.28116262194169 6.793542104063559
-10.1583460049319 5.408252656400713 6.247518612124317
3.474872106418678 7.769276531865849 44.33249101221788
7.982559235111276 8.671370879822698 2.716902208035781
7.103386629932726 3.272409118785554 53.1002676896098
-8.217646824186762 8.064633317833424 6.177514269052953
10.01025931840027 2.503457869424959 21.36477479460787
2.019629597301666 -6.662208873433268 64.01889063358031
6.122035329935732 2.785690997437425 67.01222632414377
4.638032905930259 10.50395766711042 6.577303592493303
-7.925285709536694 -8.365549493725489 6.053668744804655
9.753758506043663 6.060807044244517 6.563631756501612
6.143488771398524 -2.697195314817779 67.2222456573288
6.916106567908233 -9.196662437009357 6.264114192712495
4.697649565725202 7.787232329298109 36.91859840342177
11.43332361483514 -2.819177334261091 2.849171293455402
11.4365020934874 2.807602787303394 2.845090617668934
-4.670060726907787 5.116613254190411 64.45319368022633
-11.38960576986744 1.929988702732916 5.69278009887033
2.39221814077991 6.874907059067922 59.98318768514888
0.963588313764796 11.78835739083141 2.189609350286359
-5.325384635831397 -4.838754907331538 61.04868209413014
0.9858281538080402 -11.80112242815202 2.004692073361632
8.070718363939209 5.110009004266457 31.09947980494178
7.55002971120372 4.473895429789942 9.198920891098032
6.848673558820408 4.495106435293684 16.61859332139127
4.854153897244734 5.952791306783164 23.11194672302344
2.740115905293261 8.636104324457177 5.585868536446559
2.988899067333672 7.938180426101183 12.93199374032114
7.162428857075636 5.889139176889022 2.888543694217754
2.900030162389138 8.282334079122974 9.20721453011163
7.240200240550779 4.423863755872889 12.89990884780889
2.96889619815467 7.632907540448032 16.64549887525861
6.528355351315425 4.455099604550134 20.28382905141871
3.109634818676388 7.265861015174791 20.28766422078318
5.756038456636938 6.87881591171877 6.741947151496934
4.689559035764566 8.011336110445866 2.757669906306117
7.921576944288083 4.35487627240951 5.848558833382178
5.513301518056535 6.6578927437584 10.8726208075392
5.352770229065865 6.407810533779614 14.61998393957936
5.111123213082053 6.276251735594931 17.86329097568834
6.621104025534617 3.844452509698198 23.4265093928978
2.457564602639618 7.249857100831144 23.44209560577465
2.304669466746411 9.010149528653502 2.538306342473708
8.467138083778238 3.85571512106252 2.494137350942498
-0.07889282249998253 1.5 3.10088970455937
-5.127228334941975 1.5 12.74320843548792
4.829224361086846 1.5 16.45691991864131
-4.584040809494123 1.5 20.18914931366356
5.516102347940365 1.5 9.000340530347721
1.92896071379689 1.5 22.86013526514082
-5.914247427528821 1.5 5.455281613786493
5.197742109098646 1.5 3.699806202789107
-4.839333149710271 1.5 16.45952208239149
-1.805636293058505 1.5 14.34618602020273
-2.065347552997078 1.5 10.63008698096801
1.306663950965852 1.5 12.23212228159524
0.4574927392599051 1.5 9.142595867883298
-1.696381801440975 1.5 18.15492915544763
-5.45688084194204 1.5 9.052599197834034
4.897288930255217 1.5 12.79198439057251
4.694372717435009 1.5 20.3527147060901
-2.226856774179733 1.5 6.794901258461738
-1.670096350143657 1.5 22.40104139289981
1.46438016001331 1.5 15.645474184924
-3.59646854176146 1.5 2.999687512087503
1.59174330012457 1.5 19.31186910385728
4.777429548343504 1.5 23.24174976422941
-4.777429548343507 1.5 23.24174976422941
-6.512032997287758 1.5 2.643026738305772
2.662006751267663 1.5 2.620115435047115
2.6046676091198 1.5 6.379430754589423
6.252877406591439 1.5 6.304103638959837
2.956443115508229 1.5 9.90929476499764
-7.550029711203321 4.473895429790651 9.198920891097819
-6.84867355882036 4.495106435293757 16.61859332139127
-4.888952099984477 5.932660179691752 23.02945627363536
-3.175402048274757 8.490703036462261 5.526504375938376
-3.168030416812825 7.86671019019526 12.95197876677187
-7.162428857075635 5.889139176889026 2.888543694217748
-3.170942945307853 8.179887605620362 9.237475002107514
-7.240200240550415 4.423863755873476 12.89990884780894
-3.163788201334515 7.552585453314789 16.66452069395678
-6.828907088629692 3.977085323485419 20.29681673243092
-3.109653168752853 7.265855080167515 20.28764181054971
-5.947907157898223 6.714376494395846 6.734606330424417
-4.689559035764057 8.011336110444997 2.757669906318914
-7.918969152039505 4.3742991700698 5.758469247546389
-5.612352294488159 6.57610308564341 10.85821632044862
-5.370758921635837 6.391824013001125 14.62890165173409
-5.266820147679595 6.071932672331003 18.57780167059238
-6.62110402553463 3.844452509698177 23.4265093928978
-2.669352251817429 7.179555325047942 23.38285366287342
-2.591988472638907 8.935373560456302 2.49390621590067
-8.440951263522766 3.898763008424752 2.568561606134023
2.036762255503579 -2.465878735148001 70
-2.931242834104605 1.814244488222067 70
2.220444710834426 2.562529799245061 70
-0.6831995369230197 -3.496268133505534 70
-0.02234530465756696 0.03719856234068248 70
-3.39055316097431 -1.091717545806296 70
3.607782420842984 0.02230827107295836 70
-0.5196398350093629 3.614174438789244 70
1.038926110124215 4.476877811279959 26
-1.876151972952294 4.009889178439593 26
3.471295014032649 4.256950896126785 26
0.1269268280986395 -0.06713231617401912 35.17919808584912
-0.003080153024124233 -0.006794251267799645 44.00441094919225
-0.02549407594680453 0.01338516194334627 51.88270729170054
-0.040134167037567 0.0280654832386098 59.17567859552708
2.173259155029389 3.461646269037238 31.36975149309549
2.917225834667156 -2.836600782087398 31.30487596063347
1.409908216272989 0.3232336207952651 64.58522569558802
-2.55790463369452 2.503613480626655 39.67610908257599
0.001000795918947528 -3.647385303541816 39.80784466234514
2.943744726026269 1.723174175407753 39.62222345639011
-2.648662943271196 -3.157089878218968 31.45719642558734
-3.17134193945666 -1.11017476107373 47.93742926624762
2.204615211311798 -2.560807797904867 47.95643962155411
-0.4962825392286149 3.305476065147236 47.93372965072911
-3.290620660674226 2.37742567294384 31.49040898099685
-3.079253266788539 -0.4757707005170081 55.52407686350131
0.08922320485804745 3.068222859344782 55.52330349147936
-3.883533321311932 -1.703546578524643 37.50502279757078
2.166665021941376 -2.276752780608729 55.53823292046129
3.964655836450738 -1.941567966088471 42.44222099381937
3.697029907541749 -2.987212805865307 36.50808738741278
-3.394683280469257 -2.866840452324627 42.80482866252844
1.687602446487962 4.335128022259429 35.94442059549034
4.830136982470982 0.5572737871181288 33.77864746831013
3.994304546358991 1.027795762779949 45.85790624761157
-1.9727084943636 2.235252012823873 62.70131148415769
0.4971387041344668 -4.38834116640915 44.23279537744328
-3.322476652154662 2.923302778630168 44.01699731673198
1.173605537921599 4.185104509789554 42.9271571215135
-1.65657939190143 -2.147244414492357 62.63483504553105
-0.4689934367748418 -4.69906487282754 35.28513903645693
5.580639993881126 -3.091536145007377e-14 29.58832489878482
-1.124389958378583 -3.862787578981205 50.47598499142826
3.17964076681613 2.202779431388424 49.9510124093014
-3.572939976575405 1.961488432203725 50.76971403389576
-2.333140005402347 0.2304297612400841 66.2627613862159
-0.03503414635053735 2.220446049250313e-16 30.0201340121118
-4.485470502836968 2.277033720931625 35.72552565828987
3.294822148833264 -0.9903988861305355 61.24447724074975
3.696466437274654 -1.460181431668073 51.5225449230194
-0.5232431601915476 4.315490229817563 51.78846298396869
0.2428614725496052 -5.601566718455722 29.86817020678526
-1.358452753578157 -3.853075198197032 54.41764185022323
3.621233763381234 1.417218730429835 57.99355893299479
-5.688979346974313 -0.6954076592134514 29.8332468158792
-5.312764284073547 0.3084577491669011 41.45678628156662
-1.47309430211947 -3.583993079205416 58.51237008893421
-0.07048375599880252 -2.95743427979862 66.11779343874123
-1.822224935682206 5.748029351954119 29.70079047820143

CELLS 3278 14946
1 0
1 1
1 2
1 3
1 4
1 5
1 6
1 7
1 8
1 9
1 10
1 11
2 0 12
2 12 13
2 13 14
2 14 15
2 15 16
2 16 17
2 17 1
2 0 18
2 18 19
2 19 20
2 20 21
2 21 1
2 2 22
2 22 23
2 23 24
2 24 25
2 25 26
2 26 27
2 27 0
2 2 28
2 28 29
2 29 30
2 30 31
2 31 32
2 32 3
2 1 33
2 33 34
2 34 35
2 35 36
2 36 37
2 37 38
2 38 3
2 2 39
2 39 40
2 40 41
2 41 3
2 4 42
2 42 43
2 43 44
2 44 45
2 45 46
2 46 47
2 47 48
2 48 49
2 49 50
2 50 51
2 51 52
2 52 53
2 53 54
2 54 55
2 55 56
2 56 57
2 57 58
2 58 59
2 59 4
2 5 60
2 60 61
2 61 62
2 62 6
2 5 63
2 63 64
2 64 65
2 65 66
2 66 7
2 6 67
2 67 68
2 68 69
2 69 7
2 8 70
2 70 71
2 71 72
2 72 73
2 73 74
2 74 75
2 75 76
2 76 77
2 77 78
2 78 79
2 79 8
2 4 80
2 80 81
2 81 82
2 82 83
2 83 84
2 84 85
2 85 86
2 86 87
2 87 88
2 88 89
2 89 90
2 90 91
2 91 92
2 92 93
2 93 94
2 94 95
2 95 96
2 96 8
2 9 97
2 97 98
2 98 99
2 99 100
2 100 101
2 101 102
2 102 5
2 9 103
2 103 104
2 104 10
2 6 105
2 105 106
2 106 107
2 107 108
2 108 109
2 109 110
2 110 10
2 7 111
2 111 112
2 112 113
2 113 114
2 114 115
2 115 116
2 116 11
2 9 117
2 117 118
2 118 119
2 119 11
2 10 120
2 120 121
2 121 11
3 12 162 0
3 0 162 27
3 1 165 17
3 33 165 1
3 22 160 2
3 2 160 28
3 32 161 3
3 3 161 38
3 13 130 12
3 130 162 12
3 14 157 13
3 13 157 130
3 15 123 14
3 123 157 14
3 16 164 15
3 15 164 123
3 17 127 16
3 127 151 16
3 151 164 16
3 17 165 127
3 23 145 22
3 145 160 22
3 24 122 23
3 122 145 23
3 25 144 24
3 24 144 122
3 26 126 25
3 126 144 25
3 27 154 26
3 26 154 126
3 27 162 154
3 28 128 29
3 28 160 128
3 29 149 30
3 128 149 29
3 30 125 31
3 30 149 125
3 31 146 32
3 125 146 31
3 146 161 32
3 34 166 33
3 33 166 165
3 35 131 34
3 131 166 34
3 36 124 35
3 124 131 35
3 37 143 36
3 36 143 124
3 38 129 37
3 129 143 37
3 38 161 129
3 144 148 122
3 122 150 145
3 148 150 122
3 142 152 123
3 123 155 142
3 152 157 123
3 123 164 155
3 124 132 131
3 124 133 132
3 124 143 133
3 125 147 146
3 125 156 147
3 149 156 125
3 126 163 144
3 154 159 126
3 159 163 126
3 131 139 127
3 127 166 131
3 139 151 127
3 165 166 127
3 145 150 128
3 128 160 145
3 128 150 149
3 129 158 143
3 146 147 129
3 129 161 146
3 147 158 129
3 130 157 152
3 152 159 130
3 130 159 154
3 154 162 130
3 132 139 131
3 133 134 132
3 134 153 132
3 132 153 139
3 133 135 134
3 133 158 135
3 143 158 133
3 135 136 134
3 136 137 134
3 137 153 134
3 135 138 136
3 135 156 138
3 147 156 135
3 135 158 147
3 136 140 137
3 138 148 136
3 136 148 140
3 140 141 137
3 141 142 137
3 142 153 137
3 138 150 148
3 149 150 138
3 138 156 149
3 139 155 151
3 153 155 139
3 140 163 141
3 140 148 144
3 144 163 140
3 141 152 142
3 141 159 152
3 141 163 159
3 142 155 153
3 155 164 151
3 0 191 18
3 27 191 0
3 1 21 33
3 2 190 22
3 39 190 2
3 38 189 3
3 3 189 41
3 18 187 19
3 18 191 187
3 19 167 20
3 19 187 167
3 20 192 21
3 167 192 20
3 21 174 33
3 21 192 174
3 22 170 23
3 22 190 170
3 23 175 24
3 170 175 23
3 24 168 25
3 24 175 168
3 25 181 26
3 168 181 25
3 26 173 27
3 26 181 173
3 173 191 27
3 33 194 34
3 174 194 33
3 34 171 35
3 34 194 171
3 35 182 36
3 171 182 35
3 36 169 37
3 36 182 169
3 37 183 38
3 169 183 37
3 183 189 38
3 40 185 39
3 185 190 39
3 41 172 40
3 172 185 40
3 41 189 172
3 167 187 184
3 184 193 167
3 167 193 192
3 175 176 168
3 176 177 168
3 177 181 168
3 182 186 169
3 169 188 183
3 186 188 169
3 170 180 175
3 170 185 180
3 170 190 185
3 171 195 182
3 171 194 193
3 193 195 171
3 183 188 172
3 172 189 183
3 172 188 185
3 181 184 173
3 184 187 173
3 187 191 173
3 192 193 174
3 193 194 174
3 175 180 176
3 176 178 177
3 176 186 178
3 180 186 176
3 178 179 177
3 179 184 177
3 177 184 181
3 178 195 179
3 178 186 182
3 182 195 178
3 179 193 184
3 179 195 193
3 185 188 180
3 180 188 186
3 39 2 28
3 3 41 32
3 29 197 28
3 28 197 39
3 30 197 29
3 31 196 30
3 196 197 30
3 32 198 31
3 31 198 196
3 41 198 32
3 39 197 40
3 40 196 41
3 40 197 196
3 196 198 41
3 7 0 50
3 7 200 0
3 12 202 0
3 0 200 18
3 50 0 51
3 0 202 51
3 4 1 5
3 59 1 4
3 1 204 5
3 17 1 59
3 21 204 1
3 42 4 5
3 5 60 42
3 5 204 63
3 46 45 6
3 6 45 62
3 67 46 6
3 50 201 7
3 66 200 7
3 7 201 69
3 53 12 13
3 52 12 53
3 52 202 12
3 14 54 13
3 13 54 53
3 15 55 14
3 14 55 54
3 16 199 15
3 15 56 55
3 15 199 56
3 17 58 16
3 16 58 57
3 57 199 16
3 17 59 58
3 18 205 19
3 18 200 66
3 66 205 18
3 19 206 20
3 19 205 65
3 65 206 19
3 20 207 21
3 20 206 64
3 64 207 20
3 63 204 21
3 21 207 63
3 42 60 43
3 44 43 61
3 43 60 61
3 45 44 62
3 62 44 61
3 47 46 67
3 47 208 48
3 67 208 47
3 48 203 49
3 68 203 48
3 48 208 68
3 49 201 50
3 69 201 49
3 49 203 69
3 51 202 52
3 56 199 57
3 63 207 64
3 64 206 65
3 65 205 66
3 68 208 67
3 69 203 68
3 42 488 4
3 4 487 59
3 80 487 4
3 4 488 80
3 8 480 70
3 79 484 8
3 96 480 8
3 8 484 96
3 43 231 42
3 231 488 42
3 44 475 43
3 43 475 231
3 45 228 44
3 228 475 44
3 46 492 45
3 45 492 228
3 47 215 46
3 215 492 46
3 48 458 47
3 47 458 215
3 49 226 48
3 226 458 48
3 50 456 49
3 49 456 226
3 51 214 50
3 214 456 50
3 52 461 51
3 51 461 214
3 53 227 52
3 227 461 52
3 54 455 53
3 53 455 227
3 55 217 54
3 217 455 54
3 56 494 55
3 55 494 217
3 57 457 56
3 457 494 56
3 58 225 57
3 225 457 57
3 59 462 58
3 58 462 225
3 59 487 462
3 70 371 71
3 70 480 371
3 71 464 72
3 371 464 71
3 72 223 73
3 72 464 223
3 73 465 74
3 223 465 73
3 74 469 75
3 465 469 74
3 75 219 76
3 75 469 219
3 76 422 77
3 219 422 76
3 77 229 78
3 77 422 229
3 78 430 79
3 229 430 78
3 430 484 79
3 81 232 80
3 80 463 81
3 232 487 80
3 80 488 463
3 81 224 82
3 82 395 81
3 81 463 224
3 81 395 232
3 83 220 82
3 82 368 83
3 220 395 82
3 224 368 82
3 83 218 84
3 84 434 83
3 83 368 218
3 83 434 220
3 85 394 84
3 84 478 85
3 218 478 84
3 394 434 84
3 86 212 85
3 85 393 86
3 212 394 85
3 85 478 393
3 86 211 87
3 87 234 86
3 86 393 211
3 86 234 212
3 88 233 87
3 87 387 88
3 211 387 87
3 233 234 87
3 89 209 88
3 88 222 89
3 209 233 88
3 88 387 222
3 89 382 90
3 90 450 89
3 89 450 209
3 222 382 89
3 90 210 91
3 91 380 90
3 90 382 210
3 380 450 90
3 92 213 91
3 91 460 92
3 210 460 91
3 213 380 91
3 93 439 92
3 92 476 93
3 92 439 213
3 460 476 92
3 93 216 94
3 94 378 93
3 93 476 216
3 378 439 93
3 95 221 94
3 94 369 95
3 216 369 94
3 221 378 94
3 95 230 96
3 96 376 95
3 95 376 221
3 95 369 230
3 230 480 96
3 96 484 376
3 209 236 233
3 209 268 236
3 209 450 268
3 210 384 355
3 355 460 210
3 382 384 210
3 211 495 387
3 393 471 211
3 471 495 211
3 234 235 212
3 235 237 212
3 237 394 212
3 213 437 380
3 213 438 437
3 213 439 438
3 214 461 403
3 403 490 214
3 214 490 456
3 445 446 215
3 215 447 445
3 446 492 215
3 215 458 447
3 352 470 216
3 216 476 352
3 216 470 369
3 336 455 217
3 217 472 336
3 408 472 217
3 217 494 408
3 363 367 218
3 218 368 363
3 367 478 218
3 357 424 219
3 219 469 357
3 219 424 422
3 220 443 395
3 434 435 220
3 435 443 220
3 376 377 221
3 377 454 221
3 221 454 378
3 222 383 382
3 222 459 383
3 387 459 222
3 223 427 356
3 356 489 223
3 223 464 427
3 223 489 465
3 224 415 368
3 224 483 415
3 463 483 224
3 225 462 449
3 449 485 225
3 225 485 457
3 456 473 226
3 226 477 458
3 473 477 226
3 442 461 227
3 227 482 442
3 455 482 227
3 416 475 228
3 228 481 416
3 446 481 228
3 228 492 446
3 422 423 229
3 423 479 229
3 229 479 430
3 369 370 230
3 370 371 230
3 371 480 230
3 231 475 416
3 416 483 231
3 231 483 463
3 463 488 231
3 395 449 232
3 449 462 232
3 462 487 232
3 233 436 234
3 236 436 233
3 234 436 235
3 235 238 237
3 235 428 238
3 235 436 428
3 268 269 236
3 269 362 236
3 362 436 236
3 238 239 237
3 239 328 237
3 328 394 237
3 238 240 239
3 238 241 240
3 238 428 241
3 240 397 239
3 239 386 328
3 239 397 386
3 241 242 240
3 242 244 240
3 244 397 240
3 241 243 242
3 241 358 243
3 241 428 358
3 243 389 242
3 242 245 244
3 242 389 245
3 358 359 243
3 359 360 243
3 360 389 243
3 245 246 244
3 246 262 244
3 262 397 244
3 245 247 246
3 245 248 247
3 245 389 248
3 247 396 246
3 246 297 262
3 246 396 297
3 248 249 247
3 249 265 247
3 265 396 247
3 248 250 249
3 248 390 250
3 389 390 248
3 250 251 249
3 251 412 249
3 249 412 265
3 250 252 251
3 250 286 252
3 250 390 286
3 252 253 251
3 253 260 251
3 260 412 251
3 252 254 253
3 252 431 254
3 286 431 252
3 254 255 253
3 255 418 253
3 253 418 260
3 254 256 255
3 254 257 256
3 254 431 257
3 256 258 255
3 258 259 255
3 259 418 255
3 257 372 256
3 256 261 258
3 256 372 261
3 339 372 257
3 257 373 339
3 257 431 373
3 258 263 259
3 261 409 258
3 258 409 263
3 263 264 259
3 264 417 259
3 417 418 259
3 260 421 412
3 418 432 260
3 260 432 421
3 372 375 261
3 375 467 261
3 261 467 409
3 297 298 262
3 298 310 262
3 310 397 262
3 263 266 264
3 263 267 266
3 263 409 267
3 266 289 264
3 289 290 264
3 290 417 264
3 265 399 396
3 265 401 399
3 265 412 401
3 267 398 266
3 266 291 289
3 266 398 291
3 351 365 267
3 267 409 351
3 365 398 267
3 268 270 269
3 268 329 270
3 268 450 329
3 270 271 269
3 271 321 269
3 321 362 269
3 270 272 271
3 270 381 272
3 329 381 270
3 272 273 271
3 273 391 271
3 271 391 321
3 272 274 273
3 272 304 274
3 272 381 304
3 274 275 273
3 275 301 273
3 301 391 273
3 274 276 275
3 274 385 276
3 304 385 274
3 276 277 275
3 277 414 275
3 275 414 301
3 276 278 277
3 276 279 278
3 276 385 279
3 278 284 277
3 284 295 277
3 295 414 277
3 279 280 278
3 280 392 278
3 278 392 284
3 279 281 280
3 279 388 281
3 385 388 279
3 281 282 280
3 282 283 280
3 283 392 280
3 281 292 282
3 281 293 292
3 281 388 293
3 282 285 283
3 282 441 285
3 292 441 282
3 285 287 283
3 287 420 283
3 283 420 392
3 284 296 295
3 284 330 296
3 284 392 330
3 285 288 287
3 285 294 288
3 285 441 294
3 286 410 374
3 374 431 286
3 390 410 286
3 288 299 287
3 299 300 287
3 300 420 287
3 294 309 288
3 288 413 299
3 309 413 288
3 289 448 290
3 291 306 289
3 306 448 289
3 290 453 417
3 448 466 290
3 290 466 453
3 291 307 306
3 291 315 307
3 291 398 315
3 293 305 292
3 305 433 292
3 433 441 292
3 293 308 305
3 293 312 308
3 293 388 312
3 294 322 309
3 294 323 322
3 294 441 323
3 296 318 295
3 318 324 295
3 324 414 295
3 296 319 318
3 296 419 319
3 330 419 296
3 297 325 298
3 297 326 325
3 297 396 326
3 298 311 310
3 298 407 311
3 325 407 298
3 299 302 300
3 299 316 302
3 299 413 316
3 302 303 300
3 303 429 300
3 300 429 420
3 361 391 301
3 301 452 361
3 414 452 301
3 302 451 303
3 316 317 302
3 317 451 302
3 379 440 303
3 303 451 379
3 303 440 429
3 381 425 304
3 304 411 385
3 304 425 411
3 308 468 305
3 305 493 433
3 468 493 305
3 307 444 306
3 444 445 306
3 445 448 306
3 315 327 307
3 327 333 307
3 333 444 307
3 312 313 308
3 313 314 308
3 314 468 308
3 322 356 309
3 356 426 309
3 309 426 413
3 311 331 310
3 331 386 310
3 386 397 310
3 311 334 331
3 311 335 334
3 311 407 335
3 312 320 313
3 312 411 320
3 388 411 312
3 313 454 314
3 320 332 313
3 332 454 313
3 314 454 377
3 377 479 314
3 423 468 314
3 314 479 423
3 315 363 327
3 315 364 363
3 315 398 364
3 316 352 317
3 316 353 352
3 316 413 353
3 352 354 317
3 354 355 317
3 355 451 317
3 319 339 318
3 318 373 324
3 339 373 318
3 319 340 339
3 319 341 340
3 319 419 341
3 320 438 332
3 411 425 320
3 425 438 320
3 321 359 358
3 358 362 321
3 321 391 359
3 323 338 322
3 338 489 322
3 322 489 356
3 323 357 338
3 323 433 357
3 323 441 433
3 373 374 324
3 374 452 324
3 324 452 414
3 326 336 325
3 336 472 325
3 325 472 407
3 326 337 336
3 326 399 337
3 396 399 326
3 327 415 333
3 363 368 327
3 368 415 327
3 386 435 328
3 328 434 394
3 328 435 434
3 380 437 329
3 329 450 380
3 329 437 381
3 392 420 330
3 330 429 419
3 420 429 330
3 334 443 331
3 331 435 386
3 331 443 435
3 332 439 378
3 378 454 332
3 438 439 332
3 415 416 333
3 416 481 333
3 333 481 444
3 335 485 334
3 334 449 443
3 334 485 449
3 407 408 335
3 408 457 335
3 457 485 335
3 337 482 336
3 336 482 455
3 399 400 337
3 400 442 337
3 442 482 337
3 357 469 338
3 338 469 465
3 465 489 338
3 340 372 339
3 341 342 340
3 342 375 340
3 340 375 372
3 341 343 342
3 341 440 343
3 419 440 341
3 343 344 342
3 344 345 342
3 345 375 342
3 343 346 344
3 343 379 346
3 343 440 379
3 344 347 345
3 346 486 344
3 344 486 347
3 347 348 345
3 348 467 345
3 345 467 375
3 379 474 346
3 346 384 383
3 383 486 346
3 346 474 384
3 347 349 348
3 347 459 349
3 347 486 459
3 349 350 348
3 350 351 348
3 351 467 348
3 349 471 350
3 459 495 349
3 349 495 471
3 350 365 351
3 350 366 365
3 350 471 366
3 409 467 351
3 353 470 352
3 352 476 354
3 413 426 353
3 426 491 353
3 353 491 470
3 354 460 355
3 354 476 460
3 384 474 355
3 355 474 451
3 356 427 426
3 357 493 424
3 433 493 357
3 358 428 362
3 359 361 360
3 359 391 361
3 361 410 360
3 360 390 389
3 360 410 390
3 361 452 410
3 428 436 362
3 364 367 363
3 365 366 364
3 364 398 365
3 366 367 364
3 366 393 367
3 366 471 393
3 393 478 367
3 369 470 370
3 370 427 371
3 370 491 427
3 470 491 370
3 427 464 371
3 373 431 374
3 410 452 374
3 376 430 377
3 376 484 430
3 430 479 377
3 451 474 379
3 381 437 425
3 383 384 382
3 459 486 383
3 385 411 388
3 387 495 459
3 443 449 395
3 399 401 400
3 401 402 400
3 402 403 400
3 403 442 400
3 401 421 402
3 412 421 401
3 402 404 403
3 402 405 404
3 402 421 405
3 404 490 403
3 403 461 442
3 405 406 404
3 406 473 404
3 473 490 404
3 405 453 406
3 421 432 405
3 432 453 405
3 453 466 406
3 466 477 406
3 406 477 473
3 407 472 408
3 408 494 457
3 415 483 416
3 417 432 418
3 417 453 432
3 429 440 419
3 422 424 423
3 424 468 423
3 424 493 468
3 437 438 425
3 427 491 426
3 444 446 445
3 444 481 446
3 447 448 445
3 447 466 448
3 458 477 447
3 447 477 466
3 456 490 473
3 60 5 516
3 5 102 516
3 6 62 515
3 105 6 515
3 97 9 513
3 9 103 513
3 104 10 514
3 10 110 514
3 61 60 501
3 501 60 516
3 62 61 508
3 61 501 508
3 62 508 515
3 98 97 505
3 505 97 513
3 99 98 497
3 497 98 505
3 100 99 503
3 99 497 503
3 101 100 496
3 496 100 503
3 102 101 509
3 101 496 509
3 102 509 516
3 103 104 498
3 103 498 513
3 498 104 514
3 106 105 499
3 499 105 515
3 107 106 502
3 106 499 502
3 108 107 500
3 500 107 502
3 109 108 504
3 108 500 504
3 110 109 506
3 109 504 506
3 110 506 514
3 496 503 510
3 496 507 509
3 507 496 510
3 503 497 511
3 497 505 512
3 511 497 512
3 505 498 506
3 498 505 513
3 506 498 514
3 502 499 507
3 507 499 508
3 508 499 515
3 500 502 510
3 504 500 511
3 500 510 511
3 501 507 508
3 507 501 509
3 509 501 516
3 502 507 510
3 510 503 511
3 506 504 512
3 504 511 512
3 505 506 512
3 5 63 102
3 66 7 541
3 7 111 541
3 9 97 539
3 117 9 539
3 116 11 540
3 11 119 540
3 63 64 542
3 102 63 524
3 524 63 542
3 64 65 517
3 64 517 542
3 65 66 537
3 517 65 537
3 537 66 541
3 97 98 533
3 97 533 539
3 98 99 519
3 98 519 533
3 99 100 532
3 519 99 532
3 100 101 521
3 100 521 532
3 101 102 544
3 521 101 544
3 102 524 544
3 111 112 523
3 111 523 541
3 112 113 531
3 523 112 531
3 113 114 518
3 113 518 531
3 114 115 525
3 518 114 525
3 115 116 520
3 115 520 525
3 520 116 540
3 118 117 522
3 522 117 539
3 119 118 535
3 118 522 535
3 119 535 540
3 534 517 537
3 517 534 543
3 542 517 543
3 518 525 526
3 518 526 527
3 518 527 531
3 519 532 536
3 533 519 538
3 519 536 538
3 525 520 530
3 530 520 535
3 535 520 540
3 532 521 545
3 543 521 544
3 521 543 545
3 522 533 538
3 533 522 539
3 535 522 538
3 523 531 534
3 523 534 537
3 523 537 541
3 524 542 543
3 524 543 544
3 526 525 530
3 527 526 528
3 528 526 536
3 526 530 536
3 527 528 529
3 527 529 534
3 531 527 534
3 529 528 545
3 532 528 536
3 528 532 545
3 534 529 543
3 543 529 545
3 530 535 538
3 536 530 538
3 67 6 565
3 6 105 565
3 7 69 566
3 111 7 566
3 110 10 564
3 10 120 564
3 11 116 563
3 121 11 563
3 68 67 558
3 558 67 565
3 69 68 551
3 551 68 558
3 69 551 566
3 105 106 549
3 105 549 565
3 106 107 552
3 549 106 552
3 107 108 550
3 107 550 552
3 108 109 554
3 550 108 554
3 109 110 556
3 554 109 556
3 556 110 564
3 112 111 559
3 559 111 566
3 113 112 546
3 546 112 559
3 114 113 553
3 113 546 553
3 115 114 547
3 547 114 553
3 116 115 555
3 115 547 555
3 116 555 563
3 120 121 548
3 120 548 564
3 548 121 563
3 553 546 560
3 557 546 559
3 546 557 560
3 547 553 561
3 555 547 562
3 547 561 562
3 548 555 562
3 555 548 563
3 556 548 562
3 548 556 564
3 549 552 557
3 549 557 558
3 549 558 565
3 552 550 560
3 550 554 561
3 560 550 561
3 557 551 558
3 551 557 559
3 551 559 566
3 557 552 560
3 553 560 561
3 554 556 562
3 561 554 562
3 70 573 8
3 8 573 79
3 71 569 70
3 569 573 70
3 72 574 71
3 71 574 569
3 73 574 72
3 74 568 73
3 568 574 73
3 75 572 74
3 74 572 568
3 76 572 75
3 77 570 76
3 570 572 76
3 78 570 77
3 79 567 78
3 567 570 78
3 79 573 567
3 567 571 570
3 567 573 571
3 568 572 571
3 571 574 568
3 571 573 569
3 569 574 571
3 571 572 570
3 117 103 9
3 10 104 575
3 120 10 576
3 10 575 576
3 121 119 11
3 104 103 577
3 103 117 577
3 575 104 577
3 117 118 575
3 117 575 577
3 118 119 576
3 575 118 576
3 119 121 576
3 121 120 576
4 309 581 294 594
4 281 593 610 612
4 370 581 584 603
4 309 294 581 603
4 581 593 294 594
4 281 610 589 612
4 370 491 581 603
4 309 581 426 603
4 370 584 581 616
4 426 581 491 603
4 426 581 309 594
4 592 600 342 615
4 342 600 592 626
4 281 282 593 612
4 577 103 582 609
4 32 198 436 583
4 476 594 611 617
4 343 585 600 606
4 577 349 104 582
4 294 581 323 593
4 323 581 433 593
4 374 615 595 622
4 198 428 436 583
4 594 617 476 621
4 281 589 280 612
4 491 581 426 594
4 374 595 588 622
4 370 581 491 621
4 323 581 294 603
4 433 593 581 624
4 370 616 581 621
4 569 574 464 584
4 595 615 588 622
4 464 603 584 613
4 596 617 594 621
4 433 581 323 607
4 103 349 577 582
4 594 580 611 617
4 581 607 433 624
4 284 605 589 623
4 281 610 593 620
4 32 198 428 436
4 284 589 278 623
4 284 392 589 605
4 288 309 294 594
4 281 280 282 612
4 374 324 595 615
4 580 610 593 612
4 385 599 589 604
4 589 599 278 623
4 464 584 574 613
4 340 592 342 615
4 342 592 375 626
4 288 294 593 594
4 589 385 604 610
4 495 582 103 609
4 89 597 587 598
4 31 428 198 619
4 89 598 587 601
4 594 596 580 617
4 288 594 593 612
4 581 603 323 607
4 323 433 441 593
4 428 583 198 619
4 342 600 585 615
4 450 597 89 598
4 32 198 583 609
4 374 452 588 595
4 288 593 285 612
4 284 392 278 589
4 491 581 594 621
4 420 589 605 612
4 294 323 441 593
4 420 589 392 605
4 342 343 585 600
4 268 586 270 597
4 385 276 589 599
4 342 343 341 585
4 346 343 600 606
4 577 103 104 349
4 342 340 375 592
4 93 476 617 621
4 341 342 585 615
4 275 586 273 595
4 579 586 585 587
4 90 382 587 602
4 222 89 587 601
4 93 617 596 621
4 90 587 597 602
4 104 575 577 582
4 268 586 597 598
4 587 600 585 606
4 589 605 599 623
4 32 583 234 609
4 103 495 349 582
4 362 598 583 608
4 585 586 578 587
4 304 604 385 610
4 420 605 591 612
4 594 612 288 618
4 590 604 304 610
4 41 583 198 609
4 223 603 464 613
4 374 324 452 595
4 270 586 268 598
4 104 575 582 626
4 577 582 117 609
4 586 595 275 599
4 32 436 234 583
4 425 590 304 610
4 585 586 579 599
4 222 587 600 601
4 104 582 348 626
4 569 464 371 584
4 577 117 103 609
4 32 41 198 609
4 569 571 574 584
4 301 275 273 595
4 592 600 582 626
4 440 585 343 606
4 411 425 304 610
4 352 476 594 611
4 591 605 589 612
4 309 322 294 603
4 607 616 314 624
4 567 584 484 625
4 104 349 348 582
4 362 608 583 619
4 374 373 615 622
4 392 589 420 612
4 89 88 209 601
4 452 588 595 608
4 10 104 348 626
4 90 587 89 597
4 345 582 600 626
4 589 590 579 591
4 580 590 589 591
4 346 600 587 606
4 454 616 596 624
4 495 103 211 609
4 304 590 425 604
4 584 616 376 625
4 567 573 484 584
4 429 591 420 605
4 10 575 104 626
4 370 427 491 603
4 580 593 610 620
4 89 209 598 601
4 427 584 464 603
4 362 236 583 598
4 370 584 427 603
4 479 376 616 625
4 578 586 585 595
4 223 464 574 613
4 270 597 586 604
4 374 373 324 615
4 352 594 476 621
4 230 584 370 616
4 585 595 586 599
4 385 274 599 604
4 589 604 590 610
4 429 300 420 591
4 90 382 89 587
4 360 29 28 588
4 590 610 320 617
4 362 269 598 608
4 343 440 341 585
4 233 583 236 598
4 452 361 588 608
4 413 426 309 594
4 411 304 385 610
4 234 583 233 609
4 479 616 607 625
4 380 437 590 597
4 281 279 589 610
4 341 340 342 615
4 588 615 592 622
4 452 595 301 608
4 268 270 329 597
4 583 598 233 601
4 329 597 270 604
4 270 269 586 598
4 279 385 276 589
4 288 294 285 593
4 275 273 586 599
4 287 288 285 612
4 571 574 584 613
4 437 590 597 604
4 450 89 209 598
4 440 605 585 606
4 426 491 427 603
4 495 601 582 609
4 320 596 332 617
4 578 588 595 615
4 271 270 269 586
4 287 288 612 618
4 438 590 320 617
4 222 587 383 600
4 303 591 605 606
4 454 314 616 624
4 233 234 436 583
4 216 352 476 621
4 271 586 269 608
4 222 600 459 601
4 284 330 392 605
4 90 210 382 602
4 362 321 608 619
4 352 611 594 618
4 580 589 610 612
4 274 586 273 599
4 322 323 294 603
4 586 598 269 608
4 196 198 41 583
4 280 281 279 589
4 452 301 361 608
4 595 599 585 623
4 385 274 276 599
4 586 599 274 604
4 272 586 274 604
4 213 602 590 617
4 330 420 392 605
4 590 591 580 611
4 480 573 569 584
4 451 355 591 606
4 587 602 384 606
4 274 272 273 586
4 459 582 495 601
4 579 599 589 605
4 119 121 11 622
4 380 597 590 602
4 29 197 28 588
4 586 587 579 597
4 303 605 440 606
4 596 616 581 624
4 360 29 588 619
4 381 329 270 604
4 303 451 591 606
4 104 103 350 349
4 276 278 589 599
4 268 597 450 598
4 420 591 300 612
4 198 31 32 428
4 578 600 592 615
4 437 597 329 604
4 288 413 309 594
4 93 216 476 621
4 287 299 288 618
4 221 596 616 621
4 344 346 343 600
4 233 436 236 583
4 355 602 591 606
4 296 615 585 623
4 319 585 296 615
4 213 380 590 602
4 121 257 11 622
4 370 369 616 621
4 92 602 213 617
4 587 597 586 598
4 583 601 233 609
4 437 329 381 604
4 230 370 369 616
4 578 592 588 615
4 579 590 589 604
4 222 88 89 601
4 484 573 96 584
4 578 587 586 598
4 577 575 117 582
4 582 592 578 600
4 585 599 579 623
4 437 213 380 590
4 579 591 590 602
4 221 378 596 621
4 362 583 428 619
4 433 607 493 624
4 362 436 428 583
4 320 590 425 610
4 362 321 269 608
4 385 589 279 610
4 459 600 582 601
4 348 104 350 349
4 285 593 282 612
4 103 495 471 349
4 362 269 236 598
4 275 595 414 599
4 491 426 353 594
4 571 573 567 584
4 383 587 346 600
4 573 571 569 584
4 419 585 440 605
4 341 585 319 615
4 222 89 382 587
4 433 292 593 624
4 28 410 360 588
4 607 616 584 625
4 579 589 599 604
4 362 236 436 583
4 450 90 89 597
4 567 571 584 625
4 222 383 459 600
4 569 371 480 584
4 303 591 429 605
4 377 479 376 616
4 320 438 425 590
4 119 592 121 622
4 414 599 595 623
4 371 464 427 584
4 440 419 341 585
4 585 587 578 600
4 270 586 272 604
4 578 585 600 615
4 197 588 29 619
4 92 611 602 617
4 273 586 271 608
4 277 599 414 623
4 610 617 580 620
4 387 601 495 609
4 278 279 276 589
4 590 602 591 611
4 280 589 392 612
4 357 607 603 613
4 594 611 580 618
4 579 587 585 606
4 92 91 213 602
4 451 474 355 606
4 345 582 347 600
4 425 590 437 604
4 221 596 454 616
4 480 96 573 584
4 296 318 615 623
4 319 296 318 615
4 270 268 269 598
4 593 594 580 612
4 121 592 257 622
4 282 280 283 612
4 95 96 230 584
4 587 598 578 601
4 429 303 300 591
4 387 459 495 601
4 275 274 273 599
4 209 233 598 601
4 342 344 343 600
4 309 426 356 603
4 372 592 121 626
4 283 280 392 612
4 303 440 379 606
4 299 594 288 618
4 596 580 617 620
4 292 281 593 620
4 313 596 320 620
4 491 594 353 621
4 198 583 196 619
4 484 96 376 584
4 579 597 587 602
4 589 591 579 605
4 196 583 40 619
4 221 94 378 621
4 587 578 600 601
4 579 602 587 606
4 196 41 40 583
4 118 582 575 626
4 349 495 459 582
4 424 607 219 625
4 281 388 279 610
4 95 96 584 616
4 303 379 451 606
4 486 383 346 600
4 391 301 273 608
4 376 584 96 616
4 347 582 459 600
4 95 584 230 616
4 118 614 582 626
4 355 591 602 611
4 583 614 40 619
4 117 609 582 614
4 348 582 345 626
4 425 437 381 604
4 433 305 292 624
4 607 613 219 625
4 345 348 347 582
4 93 596 378 621
4 32 234 3 609
4 371 427 370 584
4 438 320 332 617
4 372 257 121 592
4 357 323 603 607
4 209 88 233 601
4 581 616 607 624
4 580 594 593 596
4 451 355 317 591
4 28 410 588 622
4 301 414 275 595
4 292 293 281 620
4 213 91 380 602
4 578 601 583 614
4 377 454 314 616
4 385 304 274 604
4 40 583 41 614
4 39 28 197 588
4 371 370 230 584
4 479 430 376 625
4 295 595 318 623
4 317 591 355 611
4 583 609 41 614
4 378 596 93 617
4 592 615 373 622
4 589 590 580 610
4 288 299 413 594
4 578 588 583 608
4 332 320 313 596
4 319 419 296 585
4 579 597 590 604
4 281 388 610 620
4 424 219 422 625
4 352 317 611 618
4 575 118 117 582
4 593 594 581 596
4 454 596 313 624
4 375 340 372 592
4 567 484 430 625
4 580 612 594 618
4 285 282 283 612
4 197 40 614 619
4 292 620 593 624
4 221 378 454 596
4 282 292 281 593
4 117 582 118 614
4 277 275 414 599
4 302 451 317 591
4 28 588 39 622
4 349 459 347 582
4 294 441 285 593
4 359 588 361 608
4 441 433 292 593
4 121 119 576 626
4 591 611 317 618
4 378 93 439 617
4 578 595 588 608
4 355 474 384 606
4 211 103 9 609
4 391 273 271 608
4 583 588 578 614
4 595 615 318 623
4 588 608 359 619
4 491 353 470 621
4 574 568 223 613
4 341 319 340 615
4 359 360 588 619
4 585 579 605 623
4 422 219 570 625
4 372 121 256 626
4 346 587 384 606
4 296 585 419 623
4 360 243 29 619
4 357 433 323 607
4 379 440 343 606
4 95 376 96 616
4 41 609 117 614
4 381 270 272 604
4 374 452 410 588
4 87 233 601 609
4 302 591 317 618
4 602 611 590 617
4 268 450 209 598
4 348 349 347 582
4 94 93 378 621
4 585 605 419 623
4 222 382 383 587
4 268 329 450 597
4 320 425 411 610
4 321 359 608 619
4 578 582 601 614
4 391 361 301 608
4 576 614 118 626
4 223 427 464 603
4 270 271 272 586
4 303 429 440 605
4 314 468 607 624
4 39 197 40 614
4 576 119 118 614
4 319 341 419 585
4 423 479 314 607
4 352 317 354 611
4 197 614 588 619
4 121 592 119 626
4 219 613 572 625
4 591 602 579 606
4 221 616 94 621
4 372 256 121 257
4 211 495 471 103
4 223 489 603 613
4 486 459 383 600
4 375 592 372 626
4 219 572 570 625
4 284 330 605 623
4 357 603 338 613
4 578 583 598 608
4 380 90 597 602
4 95 230 369 616
4 209 233 236 598
4 580 591 589 612
4 599 605 579 623
4 273 272 271 586
4 39 588 197 614
4 590 597 579 602
4 410 374 588 622
4 579 605 591 606
4 380 329 437 597
4 359 360 361 588
4 413 353 426 594
4 576 118 575 626
4 355 384 602 606
4 579 585 605 606
4 76 570 422 219
4 41 32 3 609
4 117 9 103 609
4 582 578 592 614
4 388 385 279 610
4 346 383 384 587
4 312 320 610 620
4 586 597 579 604
4 454 313 314 624
4 321 362 358 619
4 230 96 480 584
4 32 428 235 436
4 31 198 196 619
4 278 392 280 589
4 486 346 344 600
4 119 39 614 622
4 10 348 467 626
4 295 414 595 623
4 300 612 591 618
4 578 598 583 601
4 283 392 420 612
4 410 452 361 588
4 281 293 388 620
4 380 91 90 602
4 583 608 588 619
4 588 592 578 614
4 330 429 420 605
4 423 314 468 607
4 296 419 605 623
4 219 607 357 613
4 596 620 313 624
4 585 615 595 623
4 372 592 340 615
4 295 324 318 595
4 338 357 323 603
4 295 277 414 623
4 391 359 361 608
4 39 588 614 622
4 578 586 595 608
4 370 491 470 621
4 593 596 581 624
4 357 493 433 607
4 216 470 352 621
4 358 30 31 241
4 213 590 438 617
4 219 76 570 572
4 387 222 459 601
4 580 596 593 620
4 119 614 592 622
4 300 287 612 618
4 296 419 330 605
4 426 427 356 603
4 299 413 594 618
4 350 103 471 349
4 303 302 300 591
4 579 599 586 604
4 300 299 287 618
4 586 578 598 608
4 278 280 279 589
4 352 594 316 618
4 571 613 584 625
4 362 428 358 619
4 87 233 88 601
4 276 277 278 599
4 578 582 600 601
4 358 428 31 619
4 30 358 31 619
4 585 578 595 615
4 234 233 87 609
4 235 234 32 436
4 296 605 330 623
4 581 616 596 621
4 211 387 495 609
4 581 596 594 621
4 303 451 302 591
4 593 620 596 624
4 223 568 465 613
4 438 213 437 590
4 373 592 339 615
4 480 371 230 584
4 357 219 424 607
4 584 603 581 607
4 261 121 120 626
4 379 474 451 606
4 359 243 360 619
4 360 410 361 588
4 271 269 321 608
4 302 300 591 618
4 425 438 437 590
4 305 433 493 624
4 373 257 592 622
4 257 339 373 592
4 92 460 602 611
4 41 117 118 614
4 318 595 324 615
4 118 40 41 614
4 312 313 320 620
4 309 356 322 603
4 383 382 384 587
4 590 611 580 617
4 308 313 620 624
4 584 607 581 616
4 348 104 10 351
4 304 425 381 604
4 92 460 91 602
4 476 611 92 617
4 285 441 282 593
4 87 601 387 609
4 479 607 423 625
4 571 568 574 613
4 352 354 476 611
4 223 465 489 613
4 31 358 241 428
4 590 580 610 617
4 344 345 347 600
4 342 345 344 600
4 356 427 223 603
4 119 40 118 614
4 339 592 372 615
4 295 414 324 595
4 476 92 93 617
4 352 316 317 618
4 391 321 359 608
4 582 614 592 626
4 28 286 410 622
4 379 343 346 606
4 369 94 95 616
4 119 39 40 614
4 467 348 345 626
4 321 358 359 619
4 11 257 431 622
4 197 196 40 619
4 588 614 583 619
4 338 603 489 613
4 493 607 468 624
4 299 316 413 618
4 30 29 243 619
4 121 576 120 626
4 356 223 489 603
4 74 465 568 613
4 316 594 413 618
4 318 324 373 615
4 87 387 211 609
4 339 372 340 615
4 423 424 422 625
4 423 607 424 625
4 414 301 452 595
4 370 470 369 621
4 371 569 71 464
4 377 221 454 616
4 287 420 300 612
4 569 574 71 464
4 360 28 390 410
4 296 295 318 623
4 285 283 287 612
4 369 94 616 621
4 441 292 282 593
4 308 314 313 624
4 257 372 339 592
4 312 320 411 610
4 304 272 274 604
4 347 459 486 600
4 429 419 440 605
4 355 384 210 602
4 591 580 611 618
4 114 168 113 518
4 353 316 352 594
4 275 276 274 599
4 114 175 168 518
4 438 332 439 617
4 567 229 570 625
4 114 23 175 115
4 114 175 518 525
4 525 114 175 115
4 204 33 524 174
4 170 175 23 115
4 175 170 520 115
4 520 525 175 115
4 574 73 223 568
4 580 591 612 618
4 388 411 385 610
4 170 23 22 115
4 115 22 170 116
4 293 308 620 624
4 170 520 115 116
4 493 424 468 607
4 111 27 7 200
4 380 90 450 597
4 324 414 452 595
4 439 213 438 617
4 269 268 236 598
4 175 518 176 168
4 293 305 308 624
4 518 175 176 525
4 256 121 261 626
4 388 312 610 620
4 387 87 88 601
4 528 526 177 178
4 2 286 28 622
4 176 518 177 168
4 525 176 518 526
4 372 256 261 626
4 592 614 588 622
4 113 168 181 518
4 430 229 567 625
4 94 216 93 621
4 526 176 177 178
4 387 88 222 601
4 527 526 177 528
4 317 355 354 611
4 518 176 177 526
4 168 114 113 24
4 177 181 168 518
4 24 175 168 114
4 177 518 526 527
4 24 23 175 114
4 284 296 330 623
4 271 321 391 608
4 78 570 567 229
4 30 197 29 619
4 226 49 48 203
4 219 357 469 613
4 209 236 268 598
4 206 65 19 517
4 37 97 98 533
4 97 37 38 533
4 322 338 323 603
4 518 177 531 527
4 329 380 450 597
4 2 28 39 622
4 275 277 276 599
4 113 181 112 531
4 531 113 181 518
4 465 338 489 613
4 112 173 26 111
4 111 173 26 27
4 388 293 312 620
4 347 486 344 600
4 537 65 19 205
4 50 49 456 201
4 181 177 531 518
4 111 26 112 490
4 111 26 490 27
4 179 184 529 193
4 603 607 584 613
4 348 10 467 351
4 97 38 3 539
4 22 11 540 116
4 11 2 119 622
4 355 602 460 611
4 539 38 3 189
4 3 9 97 539
4 190 22 2 540
4 11 22 540 2
4 302 299 300 618
4 533 37 38 183
4 465 223 73 568
4 26 25 181 112
4 113 181 25 112
4 25 168 181 113
4 457 57 56 199
4 567 430 78 229
4 533 98 37 519
4 9 117 3 609
4 93 92 439 617
4 381 272 304 604
4 168 25 24 113
4 429 330 419 605
4 221 95 94 616
4 439 92 213 617
4 27 0 7 200
4 112 173 111 523
4 180 525 176 175
4 111 191 27 200
4 522 117 118 172
4 181 112 173 26
4 468 424 423 607
4 373 431 257 622
4 519 98 37 99
4 219 469 572 613
4 47 48 208 458
4 474 346 384 606
4 257 121 11 254
4 526 525 176 530
4 188 522 535 172
4 312 411 388 610
4 183 533 37 169
4 454 378 332 596
4 469 357 338 613
4 86 3 234 609
4 74 469 465 613
4 196 30 31 619
4 287 283 420 612
4 537 19 187 205
4 170 180 175 520
4 525 175 180 520
4 313 454 332 596
4 390 29 28 360
4 90 91 210 602
4 3 117 41 609
4 527 529 528 179
4 476 460 92 611
4 118 535 522 172
4 117 539 3 189
4 3 9 539 117
4 532 178 536 528
4 251 22 23 115
4 251 22 115 116
4 30 243 358 619
4 353 413 316 594
4 200 111 191 541
4 535 180 170 520
4 531 173 112 523
4 119 2 39 622
4 570 77 422 229
4 532 36 100 99
4 86 234 87 609
4 112 181 173 531
4 519 36 99 37
4 117 41 118 172
4 41 40 118 172
4 474 379 346 606
4 567 79 484 573
4 19 167 206 517
4 570 229 422 625
4 567 570 571 625
4 476 354 460 611
4 424 493 357 607
4 118 185 40 119
4 114 23 421 24
4 119 190 2 540
4 119 2 11 540
4 543 167 534 517
4 528 177 179 178
4 428 31 32 235
4 118 40 185 172
4 318 373 339 615
4 359 358 243 619
4 117 3 41 189
4 86 211 9 609
4 105 549 106 445
4 457 151 57 199
4 177 528 179 527
4 410 286 374 622
4 538 533 183 169
4 185 39 40 119
4 536 176 530 526
4 109 110 263 556
4 25 26 402 112
4 113 25 402 112
4 204 524 33 102
4 531 177 184 527
4 525 180 176 530
4 519 37 533 169
4 308 313 312 620
4 263 266 110 109
4 584 613 607 625
4 22 540 170 116
4 86 87 211 609
4 402 24 113 114
4 1 4 5 80
4 540 520 170 116
4 540 22 170 190
4 81 34 101 80
4 96 484 8 573
4 177 531 184 181
4 174 192 524 207
4 567 79 430 484
4 536 526 528 178
4 201 456 111 566
4 252 11 22 116
4 116 115 251 260
4 180 530 535 538
4 22 2 11 252
4 204 524 21 174
4 176 526 536 178
4 530 525 180 520
4 519 36 37 169
4 8 480 96 573
4 10 467 120 626
4 173 184 523 531
4 542 524 192 207
4 479 430 377 376
4 521 532 545 195
4 184 173 181 531
4 214 27 7 111
4 97 84 37 98
4 37 38 84 97
4 284 277 295 623
4 316 302 317 618
4 70 480 573 569
4 376 95 221 616
4 535 530 180 520
4 456 111 7 201
4 190 119 2 39
4 528 545 532 195
4 201 111 7 566
4 489 338 322 603
4 187 191 541 205
4 11 431 2 622
4 467 345 375 626
4 70 480 569 371
4 421 412 23 260
4 191 18 66 205
4 537 19 65 517
4 183 189 522 172
4 188 183 522 172
4 189 522 539 183
4 535 185 188 172
4 538 522 535 188
4 5 1 33 204
4 537 187 167 534
4 489 322 356 603
4 185 118 535 119
4 184 529 527 179
4 24 402 421 114
4 184 523 187 173
4 36 532 519 99
4 538 535 180 188
4 535 185 180 188
4 167 543 534 193
4 184 167 534 193
4 119 185 190 540
4 178 532 536 182
4 533 538 519 169
4 339 340 319 615
4 178 536 186 182
4 467 409 10 120
4 355 460 354 611
4 402 24 25 113
4 537 187 541 205
4 530 180 176 186
4 195 521 193 545
4 243 30 358 241
4 535 118 185 172
4 210 460 355 602
4 63 5 102 204
4 410 28 390 286
4 170 185 180 535
4 533 522 538 183
4 69 49 566 203
4 11 257 254 431
4 541 191 66 205
4 212 3 32 234
4 402 404 113 112
4 522 533 539 183
4 293 308 312 620
4 523 187 537 534
4 26 27 403 490
4 195 532 528 178
4 263 266 109 556
4 305 493 468 624
4 490 403 26 112
4 33 1 21 204
4 571 572 568 613
4 35 101 521 100
4 23 251 115 260
4 534 543 529 193
4 529 184 534 193
4 167 537 534 517
4 538 183 188 169
4 522 189 117 172
4 3 86 9 609
4 422 229 423 625
4 174 524 21 207
4 189 522 117 539
4 19 187 167 537
4 195 521 532 171
4 514 110 10 267
4 350 104 348 351
4 26 27 154 403
4 85 38 3 97
4 85 3 9 97
4 38 533 539 97
4 197 30 196 619
4 545 528 529 195
4 176 536 530 186
4 20 64 206 192
4 527 177 184 179
4 550 107 448 306
4 183 38 539 189
4 195 528 529 179
4 559 546 473 112
4 325 141 140 137
4 31 428 238 235
4 397 138 244 156
4 48 68 551 203
4 241 125 31 238
4 125 240 149 156
4 106 105 445 446
4 529 195 193 545
4 532 36 35 100
4 456 7 50 201
4 202 51 52 461
4 101 509 496 224
4 195 529 193 179
4 535 170 540 520
4 170 185 540 190
4 519 186 182 169
4 101 35 521 34
4 37 434 394 129
4 569 71 70 371
4 554 108 266 109
4 286 431 374 622
4 23 24 412 421
4 403 402 26 112
4 146 240 125 239
4 32 212 234 235
4 521 35 532 171
4 27 173 191 111
4 190 39 185 119
4 77 570 78 229
4 21 33 204 174
4 63 524 204 102
4 27 7 0 214
4 549 105 215 445
4 111 214 27 490
4 22 251 252 116
4 390 248 128 389
4 479 423 229 625
4 22 23 145 249
4 35 521 532 100
4 154 27 461 403
4 182 36 519 169
4 75 76 219 572
4 521 195 193 171
4 200 7 111 541
4 147 146 125 239
4 533 38 539 183
4 189 41 117 172
4 135 138 397 156
4 140 297 325 137
4 22 23 249 251
4 537 167 19 517
4 373 374 431 622
4 186 176 536 178
4 138 244 262 397
4 376 221 377 616
4 310 311 134 331
4 29 390 389 360
4 563 255 555 253
4 363 505 512 497
4 532 519 536 182
4 186 519 182 536
4 12 0 202 162
4 81 101 463 80
4 286 2 431 622
4 179 195 528 178
4 469 75 219 572
4 496 503 100 224
4 542 543 517 192
4 113 404 405 546
4 542 206 64 192
4 422 77 570 76
4 544 521 543 194
4 542 517 206 192
4 434 394 129 328
4 434 37 143 129
4 521 34 35 171
4 524 194 33 544
4 471 9 211 103
4 296 284 295 623
4 532 36 519 182
4 115 432 114 260
4 541 173 111 191
4 243 389 29 242
4 149 242 240 125
4 240 244 149 156
4 546 404 473 112
4 10 576 575 626
4 10 120 576 626
4 33 1 5 80
4 173 541 111 523
4 128 28 390 389
4 479 229 430 625
4 521 193 194 171
4 194 524 33 174
4 223 72 574 464
4 135 138 262 397
4 146 238 240 239
4 339 319 318 615
4 527 184 531 534
4 186 519 538 169
4 243 29 30 242
4 101 509 224 463
4 109 266 554 556
4 253 116 251 260
4 253 11 563 254
4 116 251 252 253
4 266 110 109 267
4 226 566 49 203
4 310 134 133 331
4 240 125 238 146
4 262 134 135 310
4 35 101 100 81
4 66 65 537 205
4 19 18 187 205
4 208 48 68 458
4 467 261 120 626
4 158 147 239 328
4 242 240 125 241
4 147 125 240 239
4 522 538 183 188
4 64 65 206 517
4 167 20 19 206
4 184 523 531 534
4 266 264 554 556
4 187 184 167 534
4 240 125 241 238
4 546 405 113 553
4 134 136 262 135
4 105 6 565 492
4 116 11 563 253
4 262 134 310 298
4 143 434 129 328
4 544 543 524 194
4 151 16 57 199
4 468 314 308 624
4 432 421 114 260
4 538 536 519 186
4 448 289 550 306
4 402 403 404 112
4 119 535 185 540
4 402 26 25 400
4 147 158 129 328
4 508 481 499 507
4 488 5 4 80
4 149 242 244 240
4 538 188 186 169
4 6 46 565 492
4 194 543 524 174
4 171 532 195 182
4 48 551 226 203
4 239 147 129 328
4 316 299 302 618
4 34 544 521 101
4 227 482 130 154
4 34 33 101 80
4 192 524 543 174
4 311 132 134 331
4 110 266 263 267
4 167 517 543 192
4 115 547 432 418
4 532 35 36 182
4 375 372 261 626
4 22 160 250 249
4 120 467 409 261
4 574 72 71 464
4 338 465 469 613
4 406 405 546 553
4 141 326 325 140
4 223 72 73 574
4 248 28 390 128
4 130 12 53 227
4 29 28 128 389
4 496 503 224 368
4 80 1 4 487
4 159 130 482 154
4 146 32 238 237
4 178 195 532 182
4 124 220 36 435
4 0 27 191 200
4 36 143 124 435
4 180 538 186 530
4 101 35 34 81
4 496 509 483 224
4 23 249 412 122
4 554 108 289 266
4 255 555 253 418
4 167 206 517 192
4 543 542 524 192
4 404 406 405 546
4 116 252 11 253
4 125 30 242 241
4 523 184 187 534
4 238 32 31 235
4 360 389 29 243
4 12 53 13 130
4 171 35 532 182
4 202 0 27 162
4 544 34 521 194
4 200 66 7 541
4 544 34 33 101
4 237 32 238 235
4 537 541 66 205
4 191 187 18 205
4 297 325 326 140
4 99 98 37 83
4 554 561 417 264
4 249 23 145 122
4 326 399 396 140
4 504 291 315 500
4 563 255 253 254
4 132 133 134 331
4 152 472 123 142
4 393 9 471 103
4 249 250 22 251
4 262 136 134 298
4 105 215 445 446
4 239 129 146 237
4 551 68 69 203
4 369 216 94 621
4 160 248 28 250
4 100 101 224 81
4 34 521 194 171
4 351 514 10 267
4 428 241 31 238
4 412 249 23 251
4 110 409 263 564
4 500 107 307 502
4 456 490 111 559
4 12 52 53 227
4 111 50 214 456
4 544 33 34 194
4 524 21 63 204
4 328 239 158 386
4 250 160 248 249
4 80 81 34 232
4 291 109 108 504
4 536 538 530 186
4 201 49 456 566
4 263 264 266 556
4 17 58 462 225
4 458 549 447 557
4 253 252 11 254
4 50 0 7 214
4 306 291 108 500
4 538 180 186 188
4 430 79 567 78
4 551 68 48 458
4 161 212 32 237
4 307 315 291 500
4 559 490 111 112
4 237 239 129 328
4 468 308 305 624
4 137 153 298 407
4 306 108 107 500
4 547 114 432 553
4 399 396 144 265
4 170 535 540 185
4 553 546 406 560
4 239 397 147 386
4 114 405 432 553
4 191 66 18 200
4 50 51 0 214
4 37 36 99 83
4 224 509 483 463
4 251 250 22 252
4 153 311 298 407
4 210 91 460 602
4 2 22 250 252
4 164 151 457 199
4 214 7 50 111
4 111 7 50 456
4 154 461 442 403
4 473 490 559 112
4 260 115 432 418
4 173 187 191 541
4 249 412 122 265
4 256 121 257 254
4 116 563 555 253
4 551 458 477 557
4 214 403 27 490
4 541 173 187 523
4 51 27 0 214
4 432 114 547 115
4 201 7 69 566
4 145 247 248 249
4 482 130 159 152
4 503 496 415 368
4 133 386 331 435
4 337 399 163 126
4 212 32 237 235
4 558 549 458 557
4 555 255 259 418
4 396 247 122 265
4 251 23 412 260
4 505 512 364 363
4 160 22 145 249
4 490 456 473 559
4 33 5 204 102
4 529 184 527 534
4 393 9 211 471
4 298 325 137 407
4 252 2 11 431
4 36 100 99 82
4 38 37 84 394
4 108 266 109 291
4 191 66 200 541
4 163 399 326 140
4 484 79 8 573
4 38 85 84 97
4 191 18 0 200
4 537 541 187 523
4 57 151 457 225
4 248 245 128 389
4 248 390 28 250
4 307 107 306 502
4 115 555 547 418
4 147 240 397 239
4 369 470 216 621
4 394 212 161 237
4 193 167 543 192
4 498 367 505 364
4 521 545 543 193
4 20 64 192 207
4 110 409 10 267
4 160 145 248 249
4 100 99 82 368
4 26 126 400 442
4 133 158 386 435
4 218 98 505 497
4 546 113 404 112
4 158 133 143 435
4 24 402 401 421
4 397 158 147 386
4 297 246 262 136
4 244 240 397 156
4 455 13 53 130
4 137 297 325 298
4 239 146 238 237
4 551 566 226 203
4 397 310 135 386
4 264 263 259 556
4 445 215 549 447
4 28 29 390 389
4 400 402 26 403
4 75 469 74 572
4 566 473 559 226
4 458 551 558 557
4 524 63 21 207
4 68 558 208 458
4 108 291 504 500
4 473 406 404 546
4 26 126 442 154
4 366 498 365 364
4 363 218 367 497
4 386 310 133 331
4 461 202 27 162
4 434 84 37 394
4 245 138 149 244
4 44 45 62 228
4 566 551 69 203
4 134 153 311 298
4 561 554 417 562
4 193 521 194 543
4 154 442 26 403
4 153 134 137 298
4 416 481 508 507
4 264 417 554 562
4 130 482 455 152
4 307 291 306 500
4 399 396 140 144
4 564 409 263 258
4 8 70 480 573
4 129 146 147 239
4 107 106 445 444
4 456 473 566 226
4 38 37 394 129
4 490 473 404 112
4 442 400 26 403
4 130 53 455 227
4 297 140 136 137
4 138 245 246 244
4 240 397 156 147
4 13 53 54 455
4 456 473 559 566
4 84 85 38 394
4 310 133 135 386
4 231 509 516 463
4 192 64 542 207
4 408 335 155 407
4 48 551 458 226
4 137 325 142 407
4 255 259 548 555
4 238 31 32 146
4 58 17 16 225
4 224 415 496 368
4 310 134 311 298
4 30 243 242 241
4 73 465 568 74
4 405 432 421 114
4 393 86 9 85
4 125 31 30 241
4 153 139 132 311
4 108 289 266 291
4 331 334 132 443
4 153 137 142 407
4 545 529 543 193
4 335 311 153 407
4 123 217 472 152
4 408 155 142 407
4 297 326 396 140
4 211 86 9 393
4 503 415 327 368
4 366 367 498 364
4 102 101 33 80
4 202 27 0 461
4 328 143 434 435
4 517 206 64 542
4 206 167 20 192
4 335 155 457 408
4 254 252 11 431
4 566 49 456 226
4 83 82 99 368
4 432 547 417 418
4 27 461 403 214
4 237 129 394 328
4 306 444 307 502
4 310 135 262 397
4 101 102 463 80
4 136 262 297 298
4 124 131 35 443
4 351 10 409 267
4 107 552 550 448
4 461 27 51 214
4 107 106 444 502
4 401 412 24 421
4 548 563 255 555
4 148 140 396 144
4 543 194 193 174
4 264 554 289 266
4 208 558 47 458
4 258 259 263 548
4 224 503 100 368
4 544 33 524 102
4 263 259 556 548
4 144 396 122 265
4 155 153 142 407
4 16 127 151 225
4 114 113 405 553
4 395 166 232 449
4 543 193 192 174
4 69 49 201 566
4 252 286 2 431
4 9 393 85 97
4 85 3 38 212
4 141 325 142 137
4 137 136 297 298
4 98 84 37 83
4 513 367 505 498
4 160 2 22 250
4 238 125 31 146
4 164 15 16 199
4 311 153 139 335
4 498 506 365 364
4 402 25 24 401
4 212 38 394 161
4 482 227 442 154
4 286 2 28 250
4 363 367 505 497
4 33 544 101 102
4 139 132 311 334
4 506 109 110 267
4 102 33 5 80
4 502 499 481 507
4 46 67 565 215
4 218 98 497 99
4 62 45 6 515
4 46 67 6 565
4 315 512 364 504
4 394 85 38 212
4 245 128 389 149
4 499 228 481 508
4 398 109 291 504
4 124 133 331 435
4 111 456 559 566
4 333 307 444 502
4 153 155 335 407
4 150 247 248 145
4 14 15 123 494
4 457 151 155 335
4 416 481 228 508
4 404 405 402 113
4 83 99 218 368
4 335 139 311 334
4 224 100 82 368
4 446 444 106 499
4 286 28 390 250
4 488 102 5 80
4 97 478 84 98
4 143 36 37 434
4 126 337 399 400
4 395 35 131 443
4 501 483 416 509
4 245 247 248 150
4 212 86 3 234
4 337 163 326 141
4 265 144 399 401
4 60 42 43 231
4 406 405 553 453
4 56 164 457 199
4 104 350 103 366
4 15 14 55 494
4 250 286 2 252
4 512 506 398 504
4 142 472 123 408
4 60 43 61 501
4 127 16 17 225
4 432 547 553 453
4 334 131 132 443
4 255 563 121 254
4 33 1 80 487
4 128 150 248 145
4 336 337 326 141
4 389 245 149 242
4 325 472 336 142
4 406 553 560 453
4 47 67 558 208
4 333 307 502 510
4 306 107 444 502
4 477 458 447 557
4 98 97 478 505
4 215 565 46 492
4 562 259 417 418
4 108 550 554 289
4 502 307 500 510
4 218 505 367 497
4 401 25 144 400
4 129 394 161 237
4 150 247 145 122
4 98 478 218 367
4 67 46 47 215
4 155 142 123 408
4 228 45 62 515
4 145 248 128 160
4 110 263 409 267
4 130 455 13 157
4 124 35 220 443
4 463 516 231 488
4 398 109 266 291
4 42 60 516 231
4 215 105 565 492
4 212 3 38 161
4 141 325 336 142
4 133 124 143 435
4 547 432 417 453
4 248 245 150 128
4 325 472 142 407
4 108 289 291 306
4 107 307 306 500
4 242 245 149 244
4 228 446 515 499
4 29 389 149 242
4 54 13 455 157
4 483 507 509 496
4 104 103 498 366
4 267 351 514 365
4 315 504 500 511
4 138 149 244 156
4 336 217 455 152
4 553 405 432 453
4 68 551 558 458
4 136 137 134 298
4 335 457 151 485
4 0 51 202 461
4 562 417 547 418
4 140 163 399 144
4 399 163 126 144
4 239 147 158 386
4 163 399 337 326
4 12 52 227 162
4 560 466 453 290
4 61 43 44 475
4 290 417 561 264
4 10 409 110 564
4 506 498 505 364
4 142 472 408 407
4 466 560 448 290
4 86 3 9 85
4 258 120 409 261
4 396 247 148 122
4 462 127 17 225
4 132 311 334 331
4 457 155 164 408
4 447 215 549 458
4 161 32 146 237
4 24 23 412 122
4 506 398 365 364
4 336 472 217 152
4 131 124 132 443
4 158 135 133 386
4 389 128 29 149
4 149 30 29 242
4 524 542 63 207
4 21 192 174 207
4 475 416 508 501
4 551 458 226 477
4 133 135 134 310
4 35 395 220 443
4 99 497 218 368
4 552 107 106 445
4 416 507 501 509
4 502 481 333 507
4 54 55 14 217
4 478 84 85 97
4 218 84 98 83
4 51 0 27 461
4 563 11 121 254
4 246 138 244 262
4 297 396 246 148
4 327 315 500 511
4 80 34 33 232
4 83 84 37 434
4 498 513 367 366
4 552 107 445 448
4 100 36 35 82
4 150 245 138 149
4 232 166 462 449
4 121 256 258 255
4 21 20 192 207
4 542 64 63 207
4 549 552 106 445
4 331 132 124 443
4 401 144 399 400
4 503 497 99 368
4 445 107 444 306
4 549 552 445 447
4 5 42 60 516
4 144 24 25 401
4 263 564 258 548
4 224 82 100 81
4 218 84 478 98
4 555 562 547 418
4 82 35 100 81
4 499 444 106 502
4 124 133 132 331
4 326 325 336 141
4 245 246 247 150
4 510 502 333 507
4 138 262 136 135
4 158 143 129 328
4 151 127 139 485
4 448 560 550 290
4 548 258 259 255
4 514 506 110 267
4 327 363 511 503
4 556 564 263 548
4 85 86 3 212
4 507 508 416 501
4 128 248 28 160
4 336 159 337 141
4 158 397 135 386
4 409 564 120 258
4 154 227 442 162
4 61 44 62 508
4 396 297 140 148
4 481 444 446 499
4 148 246 297 136
4 122 144 265 401
4 448 107 445 306
4 228 62 44 508
4 267 514 506 365
4 510 415 327 503
4 558 67 68 208
4 246 138 262 136
4 415 510 496 503
4 101 496 100 224
4 393 478 97 513
4 59 4 1 487
4 291 315 398 504
4 126 25 26 400
4 264 259 417 562
4 475 61 43 501
4 124 331 443 435
4 442 126 159 154
4 505 98 218 367
4 83 37 36 434
4 99 218 98 83
4 503 363 511 497
4 228 475 416 508
4 512 398 364 504
4 564 263 110 556
4 45 228 492 515
4 259 562 548 555
4 227 130 12 162
4 447 549 552 557
4 514 10 104 351
4 122 148 396 144
4 315 307 327 500
4 258 548 121 255
4 446 492 228 515
4 52 12 202 162
4 226 559 551 477
4 402 25 401 400
4 550 289 448 290
4 396 247 246 148
4 42 5 4 488
4 102 516 509 463
4 158 135 397 147
4 492 6 45 515
4 446 228 481 499
4 367 97 478 513
4 255 121 256 254
4 165 166 462 232
4 417 561 547 453
4 442 159 482 154
4 475 416 501 231
4 163 337 159 141
4 478 393 367 513
4 160 28 2 250
4 151 164 16 199
4 482 159 337 336
4 561 553 547 453
4 365 104 498 366
4 161 38 394 129
4 365 350 104 366
4 123 55 14 494
4 478 85 393 97
4 259 562 555 418
4 561 554 290 264
4 156 125 240 147
4 97 9 393 513
4 58 59 17 462
4 129 161 146 237
4 415 510 507 496
4 16 57 58 225
4 144 122 24 401
4 297 140 148 136
4 501 416 483 231
4 57 16 151 225
4 123 14 55 217
4 5 42 516 488
4 364 367 505 363
4 151 139 155 335
4 562 556 259 548
4 259 264 556 562
4 44 61 475 508
4 99 100 503 368
4 510 333 415 507
4 217 54 455 157
4 327 363 503 368
4 106 105 446 499
4 34 35 131 395
4 212 32 3 161
4 477 559 551 557
4 290 554 289 264
4 150 245 246 138
4 25 126 144 400
4 375 261 467 626
4 478 98 505 367
4 505 512 506 364
4 289 550 554 290
4 226 473 559 477
4 144 126 399 400
4 156 397 135 147
4 217 14 54 157
4 131 395 443 449
4 509 501 483 231
4 443 220 124 435
4 466 406 560 453
4 558 549 215 458
4 363 512 315 511
4 215 47 558 458
4 463 224 101 81
4 504 315 512 511
4 134 153 132 311
4 131 166 395 449
4 13 54 14 157
4 242 149 30 125
4 560 550 552 448
4 336 455 482 152
4 461 52 202 162
4 220 83 36 434
4 165 17 59 462
4 130 455 157 152
4 461 227 52 162
4 82 99 36 83
4 267 506 109 398
4 398 267 506 365
4 130 227 154 162
4 507 483 415 496
4 225 151 457 485
4 120 258 548 121
4 35 34 81 395
4 494 457 164 408
4 315 364 398 504
4 335 151 139 485
4 513 393 367 366
4 472 217 123 408
4 559 551 566 226
4 564 10 409 120
4 444 106 445 446
4 102 516 463 488
4 406 546 557 466
4 492 105 6 515
4 481 444 499 502
4 448 445 552 447
4 367 505 97 513
4 351 350 104 365
4 455 482 130 227
4 552 448 447 466
4 267 109 266 398
4 247 150 148 122
4 127 151 225 485
4 561 554 550 290
4 151 155 164 457
4 56 15 164 199
4 350 471 103 366
4 552 447 557 466
4 501 60 43 231
4 333 327 307 510
4 232 81 34 395
4 363 218 497 368
4 514 498 506 365
4 515 446 105 499
4 228 44 475 508
4 131 166 34 395
4 126 159 337 442
4 55 123 217 494
4 152 141 336 142
4 496 483 415 224
4 59 1 17 165
4 398 506 512 364
4 231 516 42 488
4 561 560 553 453
4 363 512 364 315
4 444 481 333 502
4 442 461 154 162
4 557 477 406 466
4 62 228 515 508
4 457 164 56 494
4 105 565 549 215
4 336 472 152 142
4 104 514 351 365
4 482 159 336 152
4 483 509 231 463
4 215 105 492 446
4 557 560 552 466
4 497 503 363 368
4 461 442 227 162
4 514 104 498 365
4 36 82 83 220
4 154 461 27 162
4 159 337 163 126
4 232 34 166 395
4 36 35 220 124
4 1 59 487 165
4 245 150 128 149
4 443 334 131 449
4 501 516 60 231
4 467 10 409 351
4 36 35 82 220
4 327 500 510 511
4 557 546 560 466
4 403 490 404 112
4 15 55 56 494
4 500 307 327 510
4 46 6 45 492
4 217 123 14 157
4 490 111 214 456
4 217 123 157 152
4 449 334 131 485
4 417 547 561 562
4 334 139 131 485
4 138 246 148 136
4 141 163 326 140
4 155 123 164 408
4 511 510 327 503
4 416 415 333 507
4 153 155 139 335
4 563 121 548 255
4 448 552 560 466
4 61 475 508 501
4 101 102 509 463
4 9 393 513 103
4 505 97 478 367
4 561 560 453 290
4 556 264 554 562
4 462 487 165 232
4 398 506 109 504
4 157 455 217 152
4 400 126 337 442
4 507 416 483 509
4 560 561 550 290
4 159 482 337 442
4 127 462 449 225
4 132 139 131 334
4 81 82 35 395
4 462 166 127 449
4 165 166 127 462
4 165 59 487 462
4 127 17 165 462
4 558 549 565 215
4 150 246 247 148
4 415 416 483 507
4 315 327 363 511
4 166 165 33 232
4 453 417 561 290
4 225 449 127 485
4 501 43 475 231
4 415 327 333 510
4 516 102 5 488
4 164 123 15 494
4 546 406 560 466
4 141 336 159 152
4 105 492 446 515
4 494 123 217 408
4 499 515 228 508
4 511 363 512 497
4 516 501 509 231
4 481 416 333 507
4 103 393 513 366
4 103 471 393 366
4 494 164 123 408
4 15 56 164 494
4 33 1 487 165
4 564 120 258 548
4 165 487 33 232
4 334 335 139 485
4 395 82 35 220
4 488 463 102 80
4 498 103 513 366
4 447 477 557 466
4 166 33 34 232
4 246 150 138 148
4 487 80 33 232
4 166 131 127 449
4 626 342 345 375
4 626 345 342 600
4 278 623 277 284
4 277 623 278 599
4 273 595 608 301
4 608 595 273 586
4 602 382 384 210
4 602 384 382 587
4 616 479 314 377
4 616 314 479 607
4 617 620 320 596
4 320 620 617 610
4 625 376 484 430
4 625 484 376 584
4 601 614 609 583
4 609 614 601 582
4 617 378 332 439
4 617 332 378 596
4 624 293 292 620
4 624 292 293 305
4 626 119 614 592
4 626 614 119 576
4 621 353 352 594
4 621 352 353 470
4 121 261 258 256
4 121 258 261 120
4 613 74 572 568
4 613 572 74 469
4 625 572 571 613
4 625 571 572 570
4 114 402 405 113
4 114 405 402 421
4 36 435 434 143
4 434 435 36 220
4 260 418 555 115
4 555 418 260 253
4 555 116 260 115
4 260 116 555 253
4 550 306 108 107
4 108 306 550 289
4 114 260 23 115
4 23 260 114 421
4 401 122 412 265
4 401 412 122 24
4 559 557 473 546
4 559 473 557 477
4 406 473 557 546
4 406 557 473 477
4 158 435 328 386
4 328 435 158 143
4 122 249 247 145
4 122 247 249 265
4 67 215 558 565
4 558 215 67 47
4 131 485 127 449
4 127 485 131 139

CELL_TYPES 3278
1
1
1
1
1
1
1
1
1
1
1
1
3
3
3
3
3
3
3
3
3
3
3
3
3
3
3
3
3
3
3
3
3
3
3
3
3
3
3
3
3
3
3
3
3
3
3
3
3
3
3
3
3
3
3
3
3
3
3
3
3
3
3
3
3
3
3
3
3
3
3
3
3
3
3
3
3
3
3
3
3
3
3
3
3
3
3
3
3
3
3
3
3
3
3
3
3
3
3
3
3
3
3
3
3
3
3
3
3
3
3
3
3
3
3
3
3
3
3
3
3
3
3
3
3
3
3
3
3
3
3
3
3
3
3
3
3
3
3
3
5
5
5
5
5
5
5
5
5
5
5
5
5
5
5
5
5
5
5
5
5
5
5
5
5
5
5
5
5
5
5
5
5
5
5
5
5
5
5
5
5
5
5
5
5
5
5
5
5
5
5
5
5
5
5
5
5
5
5
5
5
5
5
5
5
5
5
5
5
5
5
5
5
5
5
5
5
5
5
5
5
5
5
5
5
5
5
5
5
5
5
5
5
5
5
5
5
5
5
5
5
5
5
5
5
5
5
5
5
5
5
5
5
5
5
5
5
5
5
5
5
5
5
5
5
5
5
5
5
5
5
5
5
5
5
5
5
5
5
5
5
5
5
5
5
5
5
5
5
5
5
5
5
5
5
5
5
5
5
5
5
5
5
5
5
5
5
5
5
5
5
5
5
5
5
5
5
5
5
5
5
5
5
5
5
5
5
5
5
5
5
5
5
5
5
5
5
5
5
5
5
5
5
5
5
5
5
5
5
5
5
5
5
5
5
5
5
5
5
5
5
5
5
5
5
5
5
5
5
5
5
5
5
5
5
5
5
5
5
5
5
5
5
5
5
5
5
5
5
5
5
5
5
5
5
5
5
5
5
5
5
5
5
5
5
5
5
5
5
5
5
5
5
5
5
5
5
5
5
5
5
5
5
5
5
5
5
5
5
5
5
5
5
5
5
5
5
5
5
5
5
5
5
5
5
5
5
5
5
5
5
5
5
5
5
5
5
5
5
5
5
5
5
5
5
5
5
5
5
5
5
5
5
5
5
5
5
5
5
5
5
5
5
5
5
5
5
5
5
5
5
5
5
5
5
5
5
5
5
5
5
5
5
5
5
5
5
5
5
5
5
5
5
5
5
5
5
5
5
5
5
5
5
5
5
5
5
5
5
5
5
5
5
5
5
5
5
5
5
5
5
5
5
5
5
5
5
5
5
5
5
5
5
5
5
5
5
5
5
5
5
5
5
5
5
5
5
5
5
5
5
5
5
5
5
5
5
5
5
5
5
5
5
5
5
5
5
5
5
5
5
5
5
5
5
5
5
5
5
5
5
5
5
5
5
5
5
5
5
5
5
5
5
5
5
5
5
5
5
5
5
5
5
5
5
5
5
5
5
5
5
5
5
5
5
5
5
5
5
5
5
5
5
5
5
5
5
5
5
5
5
5
5
5
5
5
5
5
5
5
5
5
5
5
5
5
5
5
5
5
5
5
5
5
5
5
5
5
5
5
5
5
5
5
5
5
5
5
5
5
5
5
5
5
5
5
5
5
5
5
5
5
5
5
5
5
5
5
5
5
5
5
5
5
5
5
5
5
5
5
5
5
5
5
5
5
5
5
5
5
5
5
5
5
5
5
5
5
5
5
5
5
5
5
5
5
5
5
5
5
5
5
5
5
5
5
5
5
5
5
5
5
5
5
5
5
5
5
5
5
5
5
5
5
5
5
5
5
5
5
5
5
5
5
5
5
5
5
5
5
5
5
5
5
5
5
5
5
5
5
5
5
5
5
5
5
5
5
5
5
5
5
5
5
5
5
5
5
5
5
5
5
5
5
5
5
5
5
5
5
5
5
5
5
5
5
5
5
5
5
5
5
5
5
5
5
5
5
5
5
5
5
5
5
5
5
5
5
5
5
5
5
5
5
5
5
5
5
5
5
5
5
5
5
5
5
5
5
5
5
5
5
5
5
5
5
5
5
5
5
5
5
5
5
5
5
5
5
5
5
5
5
5
5
5
5
5
5
5
5
5
5
5
5
5
5
5
5
5
5
5
5
5
5
5
5
5
5
5
5
5
5
5
5
5
5
5
5
5
5
5
5
5
5
5
5
5
5
5
5
5
5
5
5
5
5
5
5
5
5
5
5
5
5
5
5
5
5
5
5
5
5
5
5
5
5
5
5
5
5
5
5
5
5
5
5
5
5
5
5
5
5
5
5
5
5
5
5
5
5
5
5
5
5
5
5
5
5
5
5
5
5
5
5
5
5
5
5
5
5
5
5
5
5
5
5
5
5
5
5
5
5
5
5
5
5
5
5
5
5
5
5
5
5
5
5
5
5
5
5
5
5
5
5
5
5
5
5
5
5
5
5
5
5
5
5
5
5
5
5
5
5
5
5
5
5
5
5
5
5
5
5
5
5
5
5
5
5
5
5
5
5
5
5
5
5
5
5
5
5
5
5
5
5
5
5
5
5
5
5
5
5
5
5
5
5
5
5
5
5
5
5
5
5
5
5
5
5
5
5
5
5
5
5
5
5
5
5
5
5
5
5
5
5
5
5
5
5
5
5
5
5
5
5
5
5
5
5
5
5
5
5
5
5
5
5
5
5
5
5
5
5
5
5
5
5
5
5
5
5
5
5
5
5
5
5
5
5
5
5
5
5
5
5
5
5
5
5
5
5
5
5
5
5
5
5
5
5
5
5
5
5
5
5
5
5
5
5
5
5
5
5
5
5
5
5
5
5
5
5
5
5
5
5
5
5
5
5
5
5
5
5
5
5
5
5
5
5
5
5
5
5
5
5
5
5
5
5
5
5
5
5
5
5
5
5
5
5
5
5
5
5
5
5
5
5
5
5
5
5
5
5
5
5
5
5
5
5
5
5
5
5
10
10
10
10
10
10
10
10
10
10
10
10
10
10
10
10
10
10
10
10
10
10
10
10
10
10
10
10
10
10
10
10
10
10
10
10
10
10
10
10
10
10
10
10
10
10
10
10
10
10
10
10
10
10
10
10
10
10
10
10
10
10
10
10
10
10
10
10
10
10
10
10
10
10
10
10
10
10
10
10
10
10
10
10
10
10
10
10
10
10
10
10
10
10
10
10
10
10
10
10
10
10
10
10
10
10
10
10
10
10
10
10
10
10
10
10
10
10
10
10
10
10
10
10
10
10
10
10
10
10
10
10
10
10
10
10
10
10
10
10
10
10
10
10
10
10
10
10
10
10
10
10
10
10
10
10
10
10
10
10
10
10
10
10
10
10
10
10
10
10
10
10
10
10
10
10
10
10
10
10
10
10
10
10
10
10
10
10
10
10
10
10
10
10
10
10
10
10
10
10
10
10
10
10
10
10
10
10
10
10
10
10
10
10
10
10
10
10
10
10
10
10
10
10
10
10
10
10
10
10
10
10
10
10
10
10
10
10
10
10
10
10
10
10
10
10
10
10
10
10
10
10
10
10
10
10
10
10
10
10
10
10
10
10
10
10
10
10
10
10
10
10
10
10
10
10
10
10
10
10
10
10
10
10
10
10
10
10
10
10
10
10
10
10
10
10
10
10
10
10
10
10
10
10
10
10
10
10
10
10
10
10
10
10
10
10
10
10
10
10
10
10
10
10
10
10
10
10
10
10
10
10
10
10
10
10
10
10
10
10
10
10
10
10
10
10
10
10
10
10
10
10
10
10
10
10
10
10
10
10
10
10
10
10
10
10
10
10
10
10
10
10
10
10
10
10
10
10
10
10
10
10
10
10
10
10
10
10
10
10
10
10
10
10
10
10
10
10
10
10
10
10
10
10
10
10
10
10
10
10
10
10
10
10
10
10
10
10
10
10
10
10
10
10
10
10
10
10
10
10
10
10
10
10
10
10
10
10
10
10
10
10
10
10
10
10
10
10
10
10
10
10
10
10
10
10
10
10
10
10
10
10
10
10
10
10
10
10
10
10
10
10
10
10
10
10
10
10
10
10
10
10
10
10
10
10
10
10
10
10
10
10
10
10
10
10
10
10
10
10
10
10
10
10
10
10
10
10
10
10
10
10
10
10
10
10
10
10
10
10
10
10
10
10
10
10
10
10
10
10
10
10
10
10
10
10
10
10
10
10
10
10
10
10
10
10
10
10
10
10
10
10
10
10
10
10
10
10
10
10
10
10
10
10
10
10
10
10
10
10
10
10
10
10
10
10
10
10
10
10
10
10
10
10
10
10
10
10
10
10
10
10
10
10
10
10
10
10
10
10
10
10
10
10
10
10
10
10
10
10
10
10
10
10
10
10
10
10
10
10
10
10
10
10
10
10
10
10
10
10
10
10
10
10
10
10
10
10
10
10
10
10
10
10
10
10
10
10
10
10
10
10
10
10
10
10
10
10
10
10
10
10
10
10
10
10
10
10
10
10
10
10
10
10
10
10
10
10
10
10
10
10
10
10
10
10
10
10
10
10
10
10
10
10
10
10
10
10
10
10
10
10
10
10
10
10
10
10
10
10
10
10
10
10
10
10
10
10
10
10
10
10
10
10
10
10
10
10
10
10
10
10
10
10
10
10
10
10
10
10
10
10
10
10
10
10
10
10
10
10
10
10
10
10
10
10
10
10
10
10
10
10
10
10
10
10
10
10
10
10
10
10
10
10
10
10
10
10
10
10
10
10
10
10
10
10
10
10
10
10
10
10
10
10
10
10
10
10
10
10
10
10
10
10
10
10
10
10
10
10
10
10
10
10
10
10
10
10
10
10
10
10
10
10
10
10
10
10
10
10
10
10
10
10
10
10
10
10
10
10
10
10
10
10
10
10
10
10
10
10
10
10
10
10
10
10
10
10
10
10
10
10
10
10
10
10
10
10
10
10
10
10
10
10
10
10
10
10
10
10
10
10
10
10
10
10
10
10
10
10
10
10
10
10
10
10
10
10
10
10
10
10
10
10
10
10
10
10
10
10
10
10
10
10
10
10
10
10
10
10
10
10
10
10
10
10
10
10
10
10
10
10
10
10
10
10
10
10
10
10
10
10
10
10
10
10
10
10
10
10
10
10
10
10
10
10
10
10
10
10
10
10
10
10
10
10
10
10
10
10
10
10
10
10
10
10
10
10
10
10
10
10
10
10
10
10
10
10
10
10
10
10
10
10
10
10
10
10
10
10
10
10
10
10
10
10
10
10
10
10
10
10
10
10
10
10
10
10
10
10
10
10
10
10
10
10
10
10
10
10
10
10
10
10
10
10
10
10
10
10
10
10
10
10
10
10
10
10
10
10
10
10
10
10
10
10
10
10
10
10
10
10
10
10
10
10
10
10
10
10
10
10
10
10
10
10
10
10
10
10
10
10
10
10
10
10
10
10
10
10
10
10
10
10
10
10
10
10
10
10
10
10
10
10
10
10
10
10
10
10
10
10
10
10
10
10
10
10
10
10
10
10
10
10
10
10
10
10
10
10
10
10
10
10
10
10
10
10
10
10
10
10
10
10
10
10
10
10
10
10
10
10
10
10
10
10
10
10
10
10
10
10
10
10
10
10
10
10
10
10
10
10
10
10
10
10
10
10
10
10
10
10
10
10
10
10
10
10
10
10
10
10
10
10
10
10
10
10
10
10
10
10
10
10
10
10
10
10
10
10
10
10
10
10
10
10
10
10
10
10
10
10
10
10
10
10
10
10
10
10
10
10
10
10
10
10
10
10
10
10
10
10
10
10
10
10
10
10
10
10
10
10
10
10
10
10
10
10
10
10
10
10
10
10
10
10
10
10
10
10
10
10
10
10
10
10
10
10
10
10
10
10
10
10
10
10
10
10
10
10
10
10
10
10
10
10
10
10
10
10
10
10
10
10
10
10
10
10
10
10
10
10
10
10
10
10
10
10
10
10
10
10
10
10
10
10
10
10
10
10
10
10
10
10
10
10
10
10
10
10
10
10
10
10
10
10
10
10
10
10
10
10
10
10
10
10
10
10
10
10
10
10
10
10
10
10
10
10
10
10
10
10
10
10
10
10
10
10
10
10
10
10
10
10
10
10
10
10
10
10
10
10
10
10
10
10
10
10
10
10
10
10
10
10
10
10
10
10
10
10
10
10
10
10
10
10
10
10
10
10
10
10
10
10
10
10
10
10
10
10
10
10
10
10
10
10
10
10
10
10
10
10
10
10
10
10
10
10
10
10
10
10
10
10
10
10
10
10
10
10
10
10
10
10
10
10
10
10
10
10
10
10
10
10
10
10
10
10
10
10
10
10
10
10
10
10
10
10
10
10
10
10
10
10
10
10
10
10
10
10
10
10
10
10
10
10
10
10
10
10
10
10
10
10
10
10
10
10
10
10
10
10
10
10
10
10
10
10
10
10
10
10
10
10
10
10
10
10
10
10
10
10
10
10
10
10
10
10
10
10
10
10
10
10
10
10
10
10
10
10
10
10
10
10
10
10
10
10
10
10
10
10
10
10
10
10
10
10
10
10
10
10
10
10
10
10
10
10
10
10
10
10
10
10
10
10
10
10
10
10
10
10
10
10
10
10
10
10
10
10
10
10
10
10
10
10
10
10
10
10
10
10
10
10
10
10
10
10
10
10
10
10
10
10
10
10
10
10
10
10
10
10
10
10
10
10
10
10
10
10
10
10
10
10
10
10
10
10
10
10
10
10
10
10
10
10
10
10
10
10
10
10
10
10
10
10
10
10
10
10
10
10
10
10
10
10
10
10
10
10
10
10
10
10
10
10
10
10
10
10
10
10
10
10
10
10
10
10
10
10
10
10
10
10
10
10
10
10
10
10
10
10
10
10
10
10
10
10
10
10
10
10
10
10
10
10
10
10
10
10
10
10
10
10
10
10
10
10
10
10
10
10
10
10
10
10
10
10
10
10
10
10
10
10
10
10
10
10
10
10
10
10
10
10
10
10
10
10
10
10
10
10
10
10
10
10
10
10
10
10
10
10
10
10
10
10
10
10
10
10
10
10
10
10
10
10
10
10
10
10
10
10
10
10
10
10
10
10
10
10
10
10
10
10
10
10
10
10
10
10
10
10
10
10
10
10
10
10
10
10
10
10
10
10
10
10
10
10
10
10
10
10
10
10
10
10
10
10
10
10
10
10
10
10
10
10
10
10
10
10
10
10
10
10
10
10
10
10
10
10
10
10
10
10
10
10
10
10
10
10
10
10
10
10
10
10
10
10
10
10
10
10
10
10
10
10
10
10
10
10
10
10
10
10
10
10
10
10
10
10
10
10
10
10
10
10
10
10
10
10
10
10
10
10
10
10
10
10
10
10
10
10
10
10
10
10
10
10
10
10
10
10
10
10
10
10
10
10
10
10
10
10
10
10
10
10
10
10
10
10
10
10
10
10
10
10
10
10
10
10
10
10
10
10
10
10
