# vtk DataFile Version 2.0
whisker_body, Created by Gmsh 4.13.1 
ASCII
DATASET UNSTRUCTURED_GRID
POINTS 610 double
9 0 0
6.953755622559919 0 26
12 0 0
4.12982931753815 0 100
8.707679374651416 0 3.714285714285714
8.415358749302834 0 7.428571428571428
8.123038123954251 0 11.14285714285714
7.830717498605669 0 14.85714285714286
7.538396873257085 0 18.57142857142857
7.246076247908502 0 22.28571428571428
8.221909118783412 3.660629787682195 0
6.022175457229734 6.688303429296539 0
2.781152949374546 8.559508646656376 0
-0.9407561694088541 8.950697058314462 0
-4.499999999999971 7.794228634059964 0
-7.281152949374503 5.290067270632291 0
-8.803328406604242 1.871205217359873 0
-8.803328406604258 -1.871205217359792 0
-7.281152949374553 -5.290067270632221 0
-4.500000000000045 -7.794228634059921 0
-0.9407561694089199 -8.950697058314455 0
2.781152949374503 -8.55950864665639 0
6.022175457229708 -6.688303429296562 0
8.221909118783401 -3.660629787682216 0
5.849871483923225 3.759484124167248 26
2.888694482357682 6.325358602156875 26
-0.9896226068165503 6.882976416809904 26
-4.553741510665734 5.255297851913196 26
-6.672079660078546 1.959099351194279 26
-6.672079660078549 -1.959099351194269 26
-4.553741510665748 -5.255297851913185 26
-0.9896226068165628 -6.882976416809902 26
2.888694482357667 -6.325358602156882 26
5.849871483923222 -3.759484124167252 26
11.34980690040761 3.896393630456207 0
9.469686112756717 7.370552552276022 0
6.563377897469113 10.04599773915035 0
2.945825845689581 11.63280319127197 0
-0.9909521456679979 11.95901391608004 0
-4.820345095835646 10.98927991986068 0
-8.127378859508902 8.82868692807757 0
-10.55368501447787 5.71136871644487 0
-11.83633564083267 1.975135083368787 0
-11.83633564083267 -1.975135083368821 0
-10.55368501447786 -5.711368716444897 0
-8.12737885950888 -8.828686928077589 0
-4.820345095835619 -10.9892799198607 0
-0.9909521456679715 -11.95901391608004 0
2.945825845689616 -11.63280319127196 0
6.563377897469155 -10.04599773915032 0
9.469686112756747 -7.370552552275983 0
11.34980690040762 -3.896393630456205 0
2.574906462902252 3.228830577670782 100
-0.9189734768187546 4.026285874214754 100
-3.720847644852559 1.791865786210781 100
-3.720847644852582 -1.791865786210735 100
-0.9189734768187868 -4.026285874214746 100
2.574906462902235 -3.228830577670795 100
11.69730112759762 0 3.846153846153846
11.39460225519524 0 7.692307692307693
11.09190338279286 0 11.53846153846154
10.78920451039049 0 15.38461538461539
10.48650563798811 0 19.23076923076923
10.18380676558573 0 23.07692307692308
9.881107893183348 0 26.92307692307692
9.578409020780969 0 30.76923076923077
9.27571014837859 0 34.61538461538461
8.973011275976212 0 38.46153846153846
8.670312403573833 0 42.30769230769231
8.367613531171454 0 46.15384615384615
8.064914658769075 0 50
7.762215786366696 0 53.84615384615385
7.459516913964317 0 57.69230769230769
7.156818041561938 0 61.53846153846154
6.85411916915956 0 65.38461538461539
6.551420296757181 0 69.23076923076923
6.248721424354802 0 73.07692307692308
5.946022551952423 0 76.92307692307692
5.643323679550044 0 80.76923076923077
5.340624807147665 0 84.61538461538461
5.037925934745286 0 88.46153846153847
4.735227062342908 0 92.30769230769231
4.432528189940529 0 96.15384615384616
7.328482851449294 3.160380866779716 12.94897020996485
7.328482851448284 -3.160380866782122 12.94897020996452
-8.744967354205167 3.99064060528332e-14 3.240497011877475
-6.011902388169196 -4.000153921109945 22.60314106171222
-6.071613250057251 3.90198890426999 22.65083572418659
-2.652230304010815 8.315247817296649 3.456314903182316
-3.019570853502529 -8.234556612683674 2.913132716613997
1.042913600152084 7.139640832170262 22.67536721178158
0.9968348517888621 -7.150455796049679 22.62206209915283
4.372483677102583 7.57336388400723 3.240497011877846
4.451043883041671 -7.546778604957558 3.029141515750308
6.692589930332009 -3.149363412348393 20.37350804459657
6.692589930332105 3.14936341234818 20.37350804459661
8.014560941065039 -3.013757913597178 5.559322505662498
7.957381057220529 3.1691929366619 5.523881879297372
-3.006719997857388 -6.564623923490061 22.61154291220465
-4.882527342493351 -5.671406548233615 19.26798045044035
-7.062571331673666 -2.502069690293379 19.15230552754744
-6.347370344668374 -4.44136857252562 15.92181262863251
-7.717992826849154 -0.8357862446587649 15.71611615745556
-3.42938724530954 -6.945157932996796 15.93735396658993
-5.184790463870093 -6.097961656865904 12.65286178718545
-1.759396735108616 -7.811959582233389 12.60921579748106
0.3244100064813072 -7.748610784735644 15.81415733557383
1.980792413872552 -7.776151125782756 12.3953265505213
-0.01604664771702435 -8.271363160665278 9.258011081356546
3.672140225514942 -7.434590742091475 8.995618036378325
3.707573653334554 -6.839695173946744 15.50227820269546
-7.387412816336796 1.385021308067485 18.85440507594349
-7.268623202245961 2.810070053737933 15.33758917527102
-8.000569303725261 0.7596495020863879 12.24176082037637
-6.789868719871682 4.361918036697383 11.81382125981638
-4.984293525304277 6.044859942233544 14.8057379408704
-4.028486228432318 7.045154102181892 11.2374189346711
-1.616324472521431 7.72094147789308 14.12535474352874
-0.4494680663285023 8.159877421248192 10.51759905521558
-6.120884635145556 5.670127481284915 8.34041872083624
2.295328888346324 7.602859957242578 13.44584424846413
3.122333136037862 7.625883282736767 9.652505940911306
-2.745501907681986 7.091974808813819 17.72694133064187
0.5775330768458604 8.43710145820449 6.901440048161307
-7.220220488595043 -0.1319129465142123 22.59893289916345
1.714545272094786 -8.360698505440569 5.912315496244805
1.923546707212195 -7.258618492579862 18.94284174391564
-3.023960360193062 6.578896604506127 22.35535940788353
7.658255887634803 3.135558562499331 9.208170719410713
6.054977487142396 5.860633772347956 7.284084413041677
7.694424123370688 -3.007204535641436 9.387331547376073
7.036036420316308 3.099735977962089 16.66324602312059
5.118847872037176 5.558632175229116 18.34115183569504
7.07538764428341 -2.993395859443933 16.73982698512835
4.588936248027114 5.577797974913454 22.5803004666612
4.58893624802664 -5.577797974913848 22.58030046666117
-2.915997952261955 7.872393987722397 7.686038378509743
0.502738141336467 7.649914620374272 16.94478714973969
-7.931350896969021 2.470644439798602 8.802216879221131
-8.152188139998644 -1.466182849904849 9.110521664109665
-7.478584999012972 4.184694832029591 5.466630072062375
-7.413669353454931 -3.044136261142651 12.52430436523786
-6.649617711442001 -4.910280287441802 9.325192025082245
-7.753247850825767 -3.560841816879398 5.948422958030808
-5.676552066292416 -6.345836544111624 6.171716795855745
-3.776414753525356 -7.353016843141012 9.325271283071025
-1.702289845948879 -7.297159999032605 19.14716037477449
-5.715446244837389 4.872835642814633 18.92314898183261
5.289745164778639 5.79860634785326 14.62610557327546
5.334884327629859 -6.033657188757338 12.02078445770681
-5.851892439654751 6.499184978914956 3.233525508830994
1.253365881307549 8.651056366408463 3.286094670635959
6.227092699143909 -5.674201962656199 7.311628135522555
5.851506341020652 5.660312204069091 10.91199243465759
6.975252942284165 5.302606176436957 3.024698936196953
6.629902325154374 -5.71012937795842 3.177507889784672
-2.30196712095169 -8.192181227836418 6.232919287847183
-6.100465441088362 -6.309947747708588 2.836820458867223
5.210185233071015 -5.468522643620664 18.38338762491409
0.4682168353091634 -8.752860430949614 2.981197752467628
-8.027450723105066 -3.57405133182708 2.704658172712352
-8.483090997634168 0.4040157269390056 6.445776653282454
3.425078304621232 7.776300124997261 6.388980913139391
-0.03278636599443922 7.435183240416102 19.8819636229905
-8.051218200854768 3.584633294698771 2.374084104586701
2.662438149908997 6.92860249362223 20.04352170733137
6.621791899864796 -2.73230988875457 23.33679587874883
6.621791899861472 2.732309888764112 23.33679587874163
8.363544833664925 2.691609627576391 2.719237310257915
8.36898526711914 -2.671841982951157 2.730077449469597
-5.292453844415293 6.698694846603565 5.88132715819703
6.078756223620725 -4.947096357793866 14.77207082319252
4.302169086704886 -7.356459574656724 6.072319162952143
3.296486225901297 6.973620505372689 16.34643179403851
2.370745563509676 2.831704862871381 26
-2.925367535009498 -1.783840757747867 26
2.378788184369868 -2.745267909079848 26
-3.603304871008972 1.257523113699687 26
0.04285246739959075 0.01802369745515162 26
-0.6407294125373844 3.761814090817698 26
-0.5263994197274469 -3.829119640042088 26
3.911722711488979 -2.790933438322776e-15 26
-10.31983202371846 1.149080830487037e-14 0
0.9488176199968067 -10.27550570308071 0
0.9488176199968186 10.27550570308071 0
9.911860172928041 2.106830918111609 0
9.911860172928025 -2.106830918111621 0
5.873563766464052 -3.232224655892819 67.28977499250952
4.481712651254909 -3.177432529221948 82.66912391067751
8.838320800436971 -3.280666171817381 32.68608574070607
7.554268963987093 3.231101375388721 48.07692307692309
9.181817935895939 3.23003139853843 28.80000905174118
6.869378104247244 -3.287719480846849 55.70900766071961
7.867941861712451 -3.276727156126993 44.17953275857112
9.798498096784749 -3.297515537212519 21.111610245
-11.1657903760237 -3.616930427408046 3.341790608973243
-6.713239270206378 9.645620444208966 3.153262660782645
4.376157437413393 2.818438862274933 86.33582152562722
10.13981473400592 3.228462306601805 17.26299737139007
-2.518136117665676 -11.43307054852751 3.72169009458731
3.752172511923079 -3.141425038482989 90.29533585463945
4.79811431138024 10.69577319231262 3.52355531022866
5.149402534326526 -3.272637249393243 74.94942415788415
8.191770008330739 3.286667241674997 40.32301464221243
4.897601154316932 3.11373742482956 78.73263413517154
5.52986613998835 3.235631427417044 71.06671410552613
6.213887481933059 3.245444915275249 63.39923967603453
6.995739867096134 2.99948778998679 55.75920046506192
10.4335831550334 -3.302239113208106 13.42163899493247
-2.723844371020274 3.415592807225254 96.96476903409871
7.945113376504919 -8.63069383398738 3.419408766471524
-11.09527489538305 3.809012682760117 3.419408766471708
10.77562275141164 3.216246898016816 9.588515283028604
-2.633579180006027 -3.523592931555294 96.57950772588465
9.935226484425232 6.234911832567003 3.436118109269079
11.06555625010633 -3.306234306777092 5.731422828049544
3.374681076347565 3.1132268918116 94.13560339841358
4.812366599042043 -3.224042144942172 78.873476585039
6.195068113102339 -3.26720803300037 63.48246542003737
6.522641944107701 -3.298998453792851 59.59892398279454
7.879344283728515 3.250741259105456 44.17212733116521
0.8839995536723747 4.277270915254395 96.9780051014545
-0.6087510069504397 4.572291850264672 93.86533233342223
-3.967763370978763 2.380981615854184 93.67860409287384
-2.514787536491404 4.16790822991209 90.62301262457657
2.066990261246719 -5.261510892665558 80.64680223727419
-4.80108364624302 0.9237778919459773 90.35193927379757
-4.148411874349152 3.013742045850459 87.3225173675719
-5.124635680411549 -0.5869825869384447 86.93403556407078
-5.122782828649765 1.689962471480975 83.93290014234525
-4.102942731135807 -2.73176048741506 89.84349415526822
-3.450955103805575 -3.897373372224187 86.33062376829567
-2.749581690125994 4.616421910315226 84.20115536910222
-4.250413780804886 3.703850031937411 80.83971605503233
-5.662420831680111 0.1966082333486384 80.48322173876019
-5.375381797001242 2.447836594630518 77.42537557844391
3.812537905289616 -5.706104485838225 65.27704606376504
4.599124468079863 -5.897081752692706 57.45148120297365
5.012582181100913 -5.951347032463563 53.60702820513303
-5.792725851936313 -1.320368238167501 76.98308328728535
-6.097558140013832 1.001434411147309 73.95968687944386
-5.576404695974744 -2.755619968878821 73.44050416384161
-6.434678987631139 -0.5117031387743215 70.45599504599815
1.866011173784356 -7.422114365427838 55.23273440165571
6.206963665807508 6.076425012455441 42.10635631986352
2.34933884033256 -7.599056025841686 51.41015943067822
6.586950354737561 6.115913930651129 38.2653109498273
-5.217995146303775 -3.8796357175828 69.85574072248086
-6.430603242787645 -1.996604071655376 66.91811071418103
-1.198618119634415 -7.74334443339539 52.91417220012781
-0.7184470908275126 -8.103877072224591 49.10107475974507
-1.691303905958023 -7.344041763758416 56.71698902177695
-6.446021055353896 1.810465342034865 67.400772821131
-6.963644857210911 0.3179370843741539 63.900786198686
-4.507274597441638 -6.276993639667925 54.28568353797854
-5.027323647993964 -4.565677342815891 66.18501919658796
-5.718843775429927 3.933382560482593 64.2814297887372
-6.727446136432748 2.603316446623901 60.81718700781244
-4.595354370977821 5.551037143687374 60.90926156774842
-5.791866873345177 4.707256752835089 57.641565194443
-2.738908155885913 6.359465291061377 64.49427232848898
-4.325427677657929 4.376226859456523 74.29186045009789
-2.658321834712739 6.963566203321625 57.7659752018727
-4.459231579748779 6.292405049040063 54.48077603239729
3.693961838868039 8.049660413438618 39.93851530093913
4.134491260051017 8.172261153940788 36.10346813727557
3.247859820302117 7.91464353766347 43.77127814781241
0.2312441233784443 8.73048763463 41.50418785767474
-0.2493164453993333 8.429350036740725 45.32257143935303
-3.264880595604335 7.977005283294758 42.95606823521809
-2.818179978613177 8.46167247646763 39.15246223046774
-5.890878241671989 6.55354165952455 40.50737295485371
-5.55118836513258 7.223775322297431 36.71638336551474
-7.866609030679623 4.394854844822967 37.97872909730926
-7.705897422843736 5.221438767845654 34.20140799407528
-7.965336507755377 3.534647958927964 41.74783105555312
-8.880768722107426 0.8435634506063195 39.12567221414058
-8.628785134572063 -0.1991780394900613 42.80614101704665
-8.347572205608595 -2.912240226352715 40.13902733229308
-6.930532459783058 3.433020925039916 54.20207624276086
-8.919523495493118 -1.961653542592084 36.43265755619994
-7.326578552305422 -5.32754234623931 37.37176758750493
-8.172519359014936 -4.540807592218927 33.68061157766353
-5.659134990378325 -7.357778934610122 34.5305394567448
-6.730664184171713 -6.805052355603788 30.85903225938904
-4.918406425079151 -7.527994897172994 38.21647343156529
-3.551024175726478 -8.822879111542557 31.62985336031595
-4.829175198930227 -8.524880376851666 27.98313843778583
-7.748040324651958 -6.10033189184644 27.17415423917365
-6.027504023170842 -8.087293796721353 24.31480706998799
-8.623199990797044 -5.36011555881048 23.46397513297297
-7.138899111712679 -7.53070618676978 20.62628012382855
-9.42617967014588 -4.50216298320929 19.7433629728719
-10.04935583621382 -1.908130315312705 22.50388541425145
-10.48481300233317 -0.9103402213549732 18.75106999194185
-10.14357178680225 1.858088495557018 21.44363940426504
-10.21907240221264 2.854711752244256 17.65760084213637
-8.899670355618612 5.389974593159367 20.27132187034025
-5.176839681805609 7.857607428709469 32.91341584416823
-8.139800604467236 -6.896618956328485 16.91663548417966
-5.173413195955926 -9.257224414716323 17.72852063029842
-2.565594180261729 -9.69494386394323 25.04813015034415
-8.695273324501105 6.243754239959885 16.45737183541965
-6.520067747753981 8.237306400044123 18.99004591478841
-6.151563004446524 8.885703176354554 15.15485789999356
-3.355221118593188 10.07006290612709 17.60680163802443
-2.881539707633345 10.52987584240837 13.76043137224239
-3.790569381182275 9.589624130126793 21.45302507227902
-0.2765327732168132 10.4229335568711 19.9919262353477
-0.7585753938063373 10.09531832196997 23.83965605760514
-0.8577277315722565 7.655549188918071 54.59285357288078
-10.82074949293265 0.07409197709634419 14.98057533735194
-6.383939222388364 -8.828654416877633 14.04105959115822
-2.903028371148273 -10.44084868695986 14.77829746420948
2.788265065142721 9.858660652264522 22.29468460998806
2.334753359997067 9.664080111774325 26.14799313095878
-7.493001686535445 6.011664166065715 30.4120774591608
3.265155033046601 10.03037456107683 18.44377952416035
-8.462714208879598 7.0295910373792 12.68733040401436
-7.69414771294934 -3.725506011273295 43.8536435114861
-6.017460139625747 5.243890107063108 51.05680514361279
-7.767712421567986 1.932287453273203 50.7683785111529
1.101556762283952 7.348247957813804 58.06284500659867
-4.861568272795789 -5.618944565786616 58.06523160767606
-1.51901687630193 -10.43966876399617 18.42905766219885
0.9357131177275069 -10.74648034857855 15.41084185685252
2.523153380506127 -10.19947868482952 18.97119844497594
-0.3359644054636738 -11.07077264347975 11.74219487829984
3.434506535531813 -10.47989833926506 12.34621390212773
1.975563701868275 -11.13753074260023 8.749676229934552
-4.630002429305735 -3.353222420848561 79.83649146589214
-3.22695078443888 -5.385708674616216 72.69904921396734
-9.120347793851272 2.70128461211324 31.61334566411546
5.609172467529446 8.36319626618519 24.52236471624617
2.800899683272091 -7.765636841217105 47.58078904853826
-0.204326355381253 -8.432480975017448 45.2981775026155
-9.085609357883767 -6.132613982927917 13.19378851952879
-7.511834227551703 -8.289590408352 10.33241970483414
-2.202962497408794 -6.895300020925434 60.4985542339714
3.435669499319663 -5.589876939302518 69.10534083807377
5.725724803185765 -9.707619926220127 9.270507294731765
2.825109400983114 7.758503796297358 47.5611899689677
5.098853539889244 8.329643047295143 28.3814299218997
1.808052141520714 9.468540628774155 29.99144488219785
-4.721381777381734 8.487126858822929 29.07191143231945
3.279833666652764 -7.90260478622696 43.75769258192631
6.956083056205363 6.158439293986045 34.42740991730672
-9.13423143514604 3.576411086229081 27.83384176123986
-6.93700178206935 -3.171584028520655 55.55606218971751
-6.645526311416525 -4.318184756620701 51.77448591293535
-9.843519344604095 -5.451518375537797 9.500615377115023
-8.555261135392488 -7.655235087596595 6.604615880676276
6.759061714443298 -8.668337423812677 12.80731977543796
-9.720958759091037 -0.06513313066210538 28.95519208216994
8.56755222359768 -7.277070969885943 9.644782549891797
-3.661011436712729 -7.475009841388848 46.7157931501187
-7.054854985621883 4.272006383564574 47.68021725313226
-1.141473390652306 5.514291925759736 80.92331789836042
0.5050933306326838 -8.715201717303765 41.55150163634719
3.777757867739801 -8.012275294986789 39.92013696540695
1.236551243152149 -8.957470841189759 37.57962867269742
4.301458955095674 -8.090688316557294 36.04665864030962
6.625052585257434 -6.074652819609921 38.26502083893802
-0.953570453658671 8.105165258958369 48.77827963765056
-7.169432679535329 -0.9531944489997318 60.57657778694946
2.408956305467424 7.32621582252684 54.48291687676665
1.536813300763055 -9.203577916954487 33.91280556707011
4.734981743386286 -8.192964310530382 32.23809372354393
1.899770933032091 -9.450509965227674 29.99213425199284
5.096627825735228 -8.327573104334254 28.41862629833087
-8.228239114518004 -1.372490785607699 46.48029773575507
1.979888415474268 -4.986428075485938 84.304249690604
-5.203240972821671 -10.16867136383249 7.336672090745447
1.689021609192513 -9.811611851096179 25.9723853488332
5.532538163622411 -8.409485807253724 24.57122865525498
7.767463330678484 -6.132270595063618 26.72909564910416
4.166273123667124 -10.77332714018607 5.706841325756034
0.7651535221986568 -6.692218005986077 66.887776502379
-1.714684285248882 -4.682169777183954 89.11793074351316
-5.291129393820539 -4.799829710425084 61.70339381452349
-2.310489625791758 -4.106458645292604 92.60494920429589
1.25490926388507 4.690446686513215 90.78051716507835
-6.896308222585875 -4.543241875089891 47.54234857058265
-0.9811831879436982 5.012003014675975 87.58207086269074
-4.373797870819125 0.05949301263183673 96.89494471490113
2.425769257960733 -5.437810937582964 76.81741565136404
-2.284768145532497 -4.998621277873863 82.64073465630742
4.211177610020674 -5.809809875253531 61.30098965927812
0.8901156941663316 -6.973079531847764 63.154135604984
9.148539001936843 -3.309353382876334 28.85961457651511
-6.395861062135172 -9.811115048162394 3.6626019471354
-1.688011349918193 -11.30163491481239 7.280652497736951
2.974324575994636 -5.503453469465835 72.98741475222673
-1.338037975996733 -5.658754210727359 78.590476748873
2.767451965606174 -3.656060944166346 94.21187059484977
0.8502221189687292 -4.28245174500155 96.99870917382096
4.151595880050725 -3.10881660211555 86.57286023530499
-5.035547155150557 6.50009781665422 47.99884696227014
-1.83676536068367 9.342310700755364 31.4966562390371
-1.277279605192092 9.738680573587951 27.6730411601659
4.571886868603894 3.055732086504722 82.60228935906667
1.62348279022263 5.114871894269904 84.28863516157752
-4.283979796335961 9.047725400409536 25.27664135998259
-7.20261330083579 6.808918192509918 26.53615667995099
-0.1068970590506898 -10.26372324966427 22.05441491729707
5.188173153497538 3.21407996495389 74.92761314965497
2.958422553484909 5.528945006805444 72.79784277826795
3.390221004719081 5.629988057441091 68.970072011301
-0.08830622351713914 6.447849910280511 70.5390727241674
2.908963270465764 5.221705045884485 76.52549387646251
-1.08203430820874 6.052783740704244 74.34732233265241
5.991036744538128 8.464825567743267 20.70566550101269
6.45940881880493 8.496799670085235 16.85718251993224
3.772514147400049 10.17445797735023 14.59518036628739
6.864004748286274 8.566390348005028 12.99666730358788
4.246857057704161 10.31404401589448 10.74740851070374
7.267688187756516 8.615541528500929 9.256393960565296
8.203449161069003 6.070580533651302 22.80359028428789
4.793843998890829 -9.619688031121431 15.90826639152638
7.540679425044661 -7.62355003330588 16.22722625586213
5.86711584685049 3.253465659741669 67.23098553749504
6.551922449441563 3.247470356008771 59.55938315504534
4.26798467539927 5.778807560406723 61.19268051115967
3.829188886643246 5.711735688917967 65.09990749711463
0.7944117886820685 6.710604662270475 66.61274956186038
0.9903658371107854 6.979134766734393 62.90774767392619
7.32023539987649 3.029588158042562 51.81095759453838
7.541270426403965 -3.271842904183838 48.02379992311081
7.198084759945645 -3.29814331961003 51.87037889302751
5.527719161187908 -3.226610736457857 71.14809989104356
8.186451039094585 -3.290738755287423 40.36645087052852
-4.134153683872047 -6.878153840860334 50.50747895616387
-9.372690102238158 -0.9960605645360863 32.71252436816956
8.518135428693823 3.282047879207629 36.48520071658915
7.018696017757249 -6.087471254120785 34.42335212931561
-2.344713523394479 8.915345801872624 35.34208103182198
9.503102071825319 3.227234053945235 24.95328159633656
-3.887741360281091 -9.55527135813171 21.39854969506453
-5.08132322380627 -1.928940850931788 83.41455844757306
5.41390522544453 -6.002118887338323 49.76948719411796
-9.045815621788293 1.761538561813422 35.37742266972374
10.12157530385624 -3.270620973924703 17.32006265605408
10.46065465835948 3.21603932806899 13.41945377908718
0.7636879293064867 9.001587165377034 37.68756335531497
-4.160435640694256 -10.31951630668066 11.09736285013905
10.11188110122532 -4.917704183286351 9.602264608836794
-5.642520936754487 3.068114929614457 70.86602243498113
-3.306917906935155 -8.002077515563995 42.45827593854092
0.7716906965331053 11.00765467427823 12.26566567729993
1.312521528112349 11.26220637280288 8.406038107006125
-2.310264950516846 10.98397422148469 9.856144516492819
-0.9460130799269171 11.48514669453351 6.047624576501078
-5.236628781420055 10.16266590793551 7.210769464696889
-8.355311950115114 7.904598807676805 6.328841003640677
-5.753039639262859 9.503690654253152 11.31681343301676
0.2221375502022995 10.72921411095089 16.11765004482004
-10.09778528524232 -3.652405018627818 16.03482445656742
-10.23151459178637 3.783288937646167 13.86777777868717
-11.07030980407017 1.041389985703033 11.19182875397131
-4.808435465071741 4.621828065835932 67.73031380931104
-6.729014747899494 -5.622784064871571 41.05376263177314
-7.40966407228065 1.035132950659693 57.41147488706399
-8.889443365134229 -3.724159619551729 30.01171004011113
-3.13576137718344 4.980957249303334 77.68796085027978
5.430939506508762 5.98105445735627 49.82269955395099
5.84555979416416 6.004026667471118 46.00062673060513
-10.68405965701854 -2.76843308908664 12.23723588710871
1.22313310206693 9.256288584663618 33.83977772725194
-9.53129435993905 -2.801334459292299 26.24546098779333
-9.978490965758221 0.8731188770113123 25.20126894449653
8.83900499564381 3.287876266123014 32.64602679245239
5.829625646116819 -6.02570203066276 45.94399643180818
-9.042505344759366 4.501191926871984 24.13069880262258
1.362487105949007 -7.225378519361925 59.04931321106267
4.593715279143314 8.266463108482473 32.31068058962718
6.101625196311021 -8.499140978603695 19.53498754127773
8.519795902544343 -3.272859274442114 36.50743138248593
6.22357497449388 -6.059294759959071 42.10738060620009
-2.500755275765139 -8.894813208288125 35.0733337615888
-3.987477995067187 -4.475185714158163 76.31427972733331
7.347764743804756 6.162403976555622 30.62409354700902
9.487240943227986 -3.271172276970405 24.96320768365036
8.14014554473664 -6.142521328586325 22.90073390315331
-11.18934811486874 -1.78405784517934 8.504480862792411
-11.34248684723381 1.533865244059939 7.042659643451112
-10.08090016852759 4.899263756058249 10.05874010459623
7.349778405736445 -6.159221465208288 30.63046536423859
7.845438738298856 8.737716073745814 3.265201290698713
-11.73666604211394 0.04718123912198847 3.344770207887467
-6.880982398563415 7.535966779201058 22.80969873281601
1.234699501508766 11.67032665596749 3.361307139960131
0.7775159941704498 -11.71121839934428 3.341732647624339
-7.761129940325595 -0.3217486286632141 53.77524606569127
7.776058764692979 6.123658279727806 26.71108899225543
4.507113789199277 5.955822947322406 57.57186410963119
8.478231766890701 6.19147422099198 19.08062684096827
-6.017098616886324 5.987943429856538 44.61311537497397
9.841834364371508 3.164951802853413 21.11502088322771
8.874220334098817 6.163259243809498 15.1900732533216
-4.522928016685367 -1.116538227789206 93.27999296042566
0.1899684698455322 -6.427080344406011 70.77499327652333
9.254298998606862 6.130378170700033 11.4278082387475
4.877556397471827 10.34869804224512 7.108528844721677
10.22813237147876 -5.778600291799357 3.206609444451877
11.08750541272171 3.153571137340417 6.006695905809782
9.62147456200027 6.125814461045515 7.546628087160627
2.602763508061666 7.544673050476006 51.0661506109393
-9.450810018537974 -6.98064893410527 3.184786357756781
-1.738245447402566 -9.601645206001198 28.49087637421038
-9.284974228487995 7.226785522004678 2.974105359916647
8.503635231431277 -6.097814998458789 19.51681310357199
-0.5177935407150281 -6.062343411939362 75.16462171574942
-3.146242101865075 7.300705395217425 51.46281539576675
2.881494568876632 -9.834721320227656 22.25925567580902
9.227391890521528 -6.882090690661189 6.210678114063843
2.450529738704667 5.107444261733613 80.49508785546136
-2.425760742850553 -6.534191123688628 63.91305858833477
-5.756135075394901 -6.267930954012785 44.34469226678655
0.675787463642481 -4.726761959406258 91.80453479411077
-3.387540275224223 11.24607670722664 3.237569428901639
-10.16453465215342 5.353199424387492 6.505375098526218
-3.176927501384569 5.538981256944516 71.3404077920088
-8.095133877761961 2.476117653250981 44.91183609210517
-7.940178085511497 -1.139518021964767 50.55126559441243
8.892964170446474 -6.457167706325339 12.83342487444749
-2.587743578199011 -6.044556655072946 68.92878666453429
5.377318262089517 5.624148012889068 53.60532916278943
-1.904238157405352 6.952890691720766 60.87619278178034
4.136490153060944 2.610269484400888 90.32558230896208
-8.224822456980531 7.676206881031294 9.524369828619307
-6.54752520706339 -2.402011469671706 63.85858888365182
-10.34758847279892 -5.027511965251613 6.298716805018322
1.576871404464845 -4.839456285904439 87.80142174536869
4.74088023310448 -10.80811828039617 2.513588040159329
6.903999453853563 -9.182498875813993 6.500406137581299
3.150491641629034 -2.99878010852642 97.2086302191444
-1.901582471330819 -8.715475407784728 39.12860989847725
3.407052942739645 2.703714494624518 97.20891928206666
11.44288147924984 -2.793102482646737 2.810165575525718
11.37548618731505 3.030953188959276 2.892492652108917
-0.1639798221050647 5.855491294854493 78.04421683436269
-0.8183929021767927 -5.16345271735792 86.04760099369275
-0.7178031234106117 -9.475236916979568 31.73518396224038
7.55088640616417 8.692113662169318 6.177130474846702
-6.625216433102091 -3.293836487499938 58.46326531655382
-11.41187659164708 -1.849918167358078 5.580000234912525
-2.17010779515334 6.269626255526614 68.1741925722839
2.225673043544537 4.563577893605502 87.96013190611274
-0.05469789955032378 -4.565507725670101 94.46001779304729
-8.101286283077863 1.470052407807451 47.85686204833237
2.507952300141112 11.26619981471895 5.819816612068124
9.297997225248739 -5.445612661716881 15.56107693728158
-2.923454371309332 7.875471391745818 45.73505006114886
-0.4484470749861242 7.914173458201476 51.75404108188532
0.8942540844399332 -11.47698124075508 6.203583321230307
-6.661338147750939e-15 5.900042359436546e-15 100
-0.01287088888207677 0.005380972529974715 35.20354009311927
0.001697252281452677 0.0002597035718441276 43.73656026791029
0.02702499773484202 -0.0925307108903386 51.59571044530541
0.0006428625151730927 0.003137446080785811 63.13504159692353
-0.002717916095933859 0.0001179522858039128 70.61271687319315
0.05598667214978029 -0.02103357996047972 77.43412798602102
1.587158229576502 -0.7900017055055595 57.47741144956953
3.496645915054911 -2.19314164911604 31.44903970824509
-2.336059077222949 -3.352059624112487 31.35490502000061
2.496432082534889 3.230444339166462 31.49940534140203
0.4460959172348831 3.551497151910472 39.47140884958146
2.800814786329965 -2.211814036043339 39.4639297457869
-3.041174886668461 2.914920790931754 31.57931810127384
-3.494483596557562 -0.3148062839254359 39.47581602758925
0.003245524026145752 0.04810908698782224 82.9119570819403
-0.02561776209041722 0.08903857575638074 88.76686126006
2.50491610666995 -2.437128697389164 47.4959803428815
2.250573821874246 2.674040007174924 47.47589071337309
-3.009938985487611 1.160049167347651 47.69012282022143
-1.223450523581648 -4.159876127721541 37.47160815760996
3.766669873386388 2.809274245873211 36.09919370118536
-4.746310826690967 -0.5573207160872107 34.46174669855363
-2.093527625794562 2.029021129763478 55.59889074462523
4.038426199883411 1.653371658218991 41.89943039810569
-0.3182652272539208 4.731495544811394 34.90869337080932
-0.1307571101749794 0.06779108854410505 94.96497955225448
-0.4538398064174679 -4.238576831531639 42.00686865683622
-2.810749535239681 -3.026524977338088 45.77604411450102
-3.064187014536416 3.191304877993972 42.4398975437817
-0.4317777054788592 -3.579297349821913 54.53057798201962
2.698647849201239 -4.007448520370678 35.41320471639884
2.656020475634228 -0.1069632021338176 66.98920623404963
-5.462086210410255 -0.4814090495751562 30.09283263697498
-3.902743781882178 3.060401984129037 36.7453285629569
0.05062272530997344 -0.01326472223491677 30.25010057923057
-0.03416972742545843 2.949394171088834 59.6053902142769
-2.724889814165659 -0.8227535952081783 59.21674646643247
1.089674791487906 4.217151714961124 43.65302369884184
-2.426326965629784 -0.04047758146198555 66.8727722068444
3.684615361480994 -1.382931830444097 53.49771759011164
5.631820782532725 1.019876830230691 29.83432998955911
3.723660797540756 -2.971259351804361 43.50125920728335
2.235858227598699 2.657109022082708 54.71898237716724
-1.002522365596378 -3.814242711939114 49.63274627884531
1.103798145268268 -5.271120419914418 29.72491637053154
-0.8401858530238617 3.889205627054617 50.21263311519579
5.259330421367102 -0.8309506648729788 34.90490204880653
-0.4468442142924788 5.735036509608697 29.96105935916558
-1.612475976149883 -1.886310988708258 74.15960414800622
-3.79120664966896 1.445846275338939 51.72370947051402
2.271274345434443 0.4676666671118475 74.00558776202031
3.348287544312133 1.374260786445074 61.21117670280604
0.7941038089301227 -3.382566459024778 60.7253281406838
-4.642817121505297 -0.4027105585670625 43.33340260821373

CELLS 3043 13925
1 0
1 1
1 2
1 3
2 0 4
2 4 5
2 5 6
2 6 7
2 7 8
2 8 9
2 9 1
2 0 10
2 10 11
2 11 12
2 12 13
2 13 14
2 14 15
2 15 16
2 16 17
2 17 18
2 18 19
2 19 20
2 20 21
2 21 22
2 22 23
2 23 0
2 1 24
2 24 25
2 25 26
2 26 27
2 27 28
2 28 29
2 29 30
2 30 31
2 31 32
2 32 33
2 33 1
2 2 34
2 34 35
2 35 36
2 36 37
2 37 38
2 38 39
2 39 40
2 40 41
2 41 42
2 42 43
2 43 44
2 44 45
2 45 46
2 46 47
2 47 48
2 48 49
2 49 50
2 50 51
2 51 2
2 3 52
2 52 53
2 53 54
2 54 55
2 55 56
2 56 57
2 57 3
2 2 58
2 58 59
2 59 60
2 60 61
2 61 62
2 62 63
2 63 64
2 64 65
2 65 66
2 66 67
2 67 68
2 68 69
2 69 70
2 70 71
2 71 72
2 72 73
2 73 74
2 74 75
2 75 76
2 76 77
2 77 78
2 78 79
2 79 80
2 80 81
2 81 82
2 82 3
3 0 168 4
3 4 169 0
3 10 168 0
3 0 169 23
3 1 166 9
3 9 167 1
3 1 167 24
3 33 166 1
3 5 96 4
3 4 97 5
3 96 169 4
3 4 168 97
3 5 128 6
3 6 130 5
3 5 130 96
3 97 128 5
3 6 83 7
3 7 84 6
3 6 128 83
3 84 130 6
3 7 131 8
3 8 133 7
3 83 131 7
3 7 133 84
3 9 94 8
3 8 95 9
3 94 133 8
3 8 131 95
3 9 166 94
3 95 167 9
3 11 154 10
3 154 168 10
3 12 92 11
3 92 154 11
3 13 151 12
3 12 151 92
3 14 88 13
3 88 151 13
3 15 150 14
3 14 150 88
3 16 164 15
3 15 164 150
3 17 85 16
3 85 164 16
3 18 160 17
3 17 160 85
3 19 157 18
3 157 160 18
3 20 89 19
3 89 157 19
3 21 159 20
3 20 159 89
3 22 93 21
3 93 159 21
3 23 155 22
3 22 155 93
3 23 169 155
3 24 134 25
3 24 167 134
3 25 90 26
3 25 134 90
3 26 127 27
3 90 127 26
3 27 87 28
3 27 127 87
3 28 124 29
3 87 124 28
3 29 86 30
3 29 124 86
3 30 98 31
3 86 98 30
3 31 91 32
3 31 98 91
3 32 135 33
3 91 135 32
3 135 166 33
3 128 153 83
3 83 148 131
3 83 153 148
3 84 149 130
3 133 171 84
3 84 171 149
3 85 161 140
3 140 164 85
3 85 160 143
3 143 161 85
3 86 99 98
3 86 100 99
3 86 124 100
3 111 124 87
3 87 147 111
3 127 147 87
3 88 136 123
3 123 151 88
3 88 170 136
3 150 170 88
3 89 156 144
3 144 157 89
3 89 159 156
3 90 163 127
3 134 165 90
3 90 165 163
3 98 146 91
3 126 135 91
3 91 146 126
3 129 154 92
3 92 162 129
3 151 162 92
3 125 159 93
3 93 172 125
3 155 172 93
3 94 158 133
3 135 158 94
3 94 166 135
3 131 132 95
3 132 134 95
3 134 167 95
3 130 152 96
3 152 155 96
3 155 169 96
3 97 129 128
3 97 154 129
3 97 168 154
3 99 146 98
3 100 101 99
3 101 103 99
3 103 146 99
3 100 102 101
3 100 111 102
3 100 124 111
3 102 141 101
3 101 104 103
3 101 141 104
3 111 112 102
3 112 113 102
3 113 141 102
3 104 105 103
3 105 106 103
3 106 146 103
3 104 145 105
3 141 142 104
3 142 145 104
3 105 107 106
3 105 108 107
3 105 145 108
3 107 110 106
3 110 126 106
3 126 146 106
3 108 109 107
3 109 149 107
3 107 149 110
3 108 125 109
3 108 156 125
3 145 156 108
3 125 172 109
3 109 152 149
3 109 172 152
3 110 158 126
3 149 171 110
3 110 171 158
3 111 147 112
3 112 114 113
3 112 115 114
3 112 147 115
3 114 138 113
3 138 139 113
3 139 141 113
3 115 116 114
3 116 119 114
3 119 138 114
3 115 117 116
3 115 122 117
3 115 147 122
3 117 118 116
3 118 136 116
3 116 136 119
3 117 120 118
3 117 137 120
3 122 137 117
3 120 121 118
3 121 123 118
3 123 136 118
3 136 170 119
3 119 140 138
3 119 170 140
3 120 153 121
3 137 173 120
3 148 153 120
3 120 173 148
3 121 162 123
3 121 153 129
3 129 162 121
3 122 147 127
3 127 163 122
3 122 163 137
3 123 162 151
3 156 159 125
3 126 158 135
3 129 153 128
3 149 152 130
3 131 148 132
3 132 165 134
3 148 173 132
3 132 173 165
3 158 171 133
3 163 165 137
3 165 173 137
3 138 161 139
3 140 161 138
3 139 142 141
3 139 143 142
3 139 161 143
3 150 164 140
3 140 170 150
3 143 144 142
3 144 145 142
3 143 157 144
3 143 160 157
3 144 156 145
3 152 172 155
3 24 181 1
3 1 181 33
3 25 174 24
3 174 181 24
3 26 179 25
3 25 179 174
3 27 179 26
3 28 177 27
3 177 179 27
3 29 177 28
3 30 175 29
3 175 177 29
3 31 180 30
3 30 180 175
3 32 180 31
3 33 176 32
3 176 180 32
3 33 181 176
3 174 179 178
3 178 181 174
3 175 178 177
3 175 180 178
3 178 180 176
3 176 181 178
3 178 179 177
3 0 185 2
3 2 186 0
3 10 185 0
3 0 186 23
3 2 185 34
3 51 186 2
3 11 35 10
3 35 34 10
3 34 185 10
3 11 12 36
3 36 35 11
3 13 184 12
3 36 12 37
3 12 184 37
3 14 39 13
3 39 38 13
3 38 184 13
3 15 40 14
3 40 39 14
3 16 41 15
3 15 41 40
3 17 182 16
3 42 41 16
3 16 182 42
3 17 18 44
3 43 17 44
3 43 182 17
3 45 18 19
3 44 18 45
3 20 46 19
3 19 46 45
3 21 183 20
3 20 47 46
3 20 183 47
3 22 49 21
3 21 49 48
3 48 183 21
3 23 50 22
3 22 50 49
3 23 51 50
3 23 186 51
3 37 184 38
3 42 182 43
3 47 183 48
3 34 539 2
3 2 538 51
3 58 538 2
3 2 539 58
3 3 537 52
3 57 535 3
3 3 535 82
3 82 537 3
3 35 214 34
3 214 539 34
3 36 487 35
3 35 487 214
3 37 201 36
3 201 487 36
3 38 490 37
3 37 490 201
3 39 519 38
3 38 519 490
3 40 196 39
3 196 519 39
3 41 509 40
3 40 509 196
3 42 211 41
3 211 509 41
3 43 488 42
3 42 488 211
3 44 195 43
3 195 488 43
3 45 507 44
3 44 507 195
3 46 390 45
3 390 507 45
3 47 199 46
3 199 390 46
3 48 491 47
3 47 491 199
3 49 533 48
3 48 533 491
3 50 210 49
3 210 533 49
3 51 503 50
3 50 503 210
3 51 538 503
3 52 221 53
3 52 537 221
3 53 209 54
3 53 221 209
3 54 384 55
3 209 384 54
3 55 213 56
3 55 384 213
3 56 395 57
3 213 395 56
3 395 535 57
3 59 215 58
3 58 504 59
3 215 538 58
3 58 539 504
3 59 212 60
3 60 445 59
3 59 504 212
3 59 445 215
3 61 208 60
3 60 442 61
3 208 445 60
3 212 442 60
3 61 198 62
3 62 441 61
3 61 442 198
3 61 441 208
3 63 194 62
3 62 497 63
3 194 441 62
3 198 497 62
3 63 436 64
3 64 481 63
3 63 481 194
3 63 497 436
3 64 191 65
3 65 389 64
3 64 436 191
3 389 481 64
3 66 189 65
3 65 470 66
3 189 389 65
3 191 470 65
3 66 433 67
3 67 476 66
3 66 476 189
3 66 470 433
3 67 203 68
3 68 430 67
3 67 433 203
3 430 476 67
3 69 193 68
3 68 220 69
3 193 430 68
3 203 220 68
3 69 190 70
3 70 427 69
3 69 220 190
3 69 427 193
3 70 426 71
3 71 428 70
3 190 426 70
3 70 428 427
3 72 192 71
3 71 207 72
3 192 428 71
3 71 426 207
3 73 219 72
3 72 421 73
3 72 219 192
3 207 421 72
3 73 206 74
3 74 218 73
3 73 421 206
3 218 219 73
3 75 187 74
3 74 420 75
3 187 218 74
3 206 420 74
3 75 205 76
3 76 429 75
3 75 429 187
3 75 420 205
3 77 202 76
3 76 405 77
3 202 429 76
3 205 405 76
3 77 204 78
3 78 217 77
3 77 217 202
3 77 405 204
3 79 188 78
3 78 400 79
3 188 217 78
3 204 400 78
3 79 197 80
3 80 396 79
3 79 396 188
3 79 400 197
3 81 200 80
3 80 528 81
3 197 528 80
3 200 396 80
3 81 216 82
3 82 394 81
3 81 394 200
3 81 528 216
3 216 537 82
3 82 535 394
3 187 236 218
3 187 339 236
3 187 429 339
3 188 225 217
3 188 371 225
3 188 396 371
3 189 486 389
3 189 476 434
3 434 486 189
3 220 465 190
3 190 464 426
3 190 465 464
3 436 493 191
3 191 480 470
3 191 493 480
3 219 237 192
3 237 238 192
3 238 428 192
3 427 471 193
3 193 477 430
3 471 477 193
3 194 510 441
3 481 482 194
3 482 510 194
3 195 545 488
3 507 531 195
3 531 545 195
3 196 453 452
3 452 519 196
3 196 509 453
3 400 401 197
3 401 547 197
3 197 547 528
3 442 498 198
3 495 497 198
3 198 498 495
3 372 390 199
3 199 391 372
3 199 554 391
3 491 554 199
3 394 518 200
3 200 532 396
3 518 532 200
3 201 543 487
3 490 550 201
3 502 543 201
3 201 550 502
3 217 385 202
3 385 392 202
3 392 429 202
3 203 244 220
3 203 246 244
3 203 433 246
3 204 515 400
3 405 409 204
3 409 515 204
3 205 406 405
3 205 407 406
3 205 420 407
3 206 423 420
3 421 422 206
3 422 423 206
3 207 494 421
3 426 526 207
3 207 526 494
3 441 551 208
3 208 524 445
3 208 551 524
3 221 222 209
3 222 223 209
3 223 384 209
3 376 533 210
3 210 534 376
3 503 514 210
3 514 534 210
3 211 488 484
3 484 520 211
3 211 520 509
3 212 501 442
3 212 505 501
3 504 505 212
3 213 499 380
3 380 548 213
3 384 499 213
3 213 548 395
3 487 543 214
3 214 505 504
3 504 539 214
3 214 543 505
3 445 514 215
3 215 514 503
3 503 538 215
3 216 222 221
3 221 537 216
3 216 381 222
3 216 528 381
3 225 385 217
3 218 387 219
3 236 387 218
3 219 387 237
3 244 465 220
3 222 224 223
3 222 381 224
3 224 226 223
3 226 499 223
3 223 499 384
3 224 227 226
3 224 383 227
3 381 383 224
3 371 386 225
3 225 393 385
3 386 393 225
3 227 228 226
3 228 230 226
3 230 499 226
3 227 229 228
3 227 232 229
3 227 383 232
3 229 438 228
3 228 231 230
3 228 438 231
3 232 233 229
3 233 234 229
3 234 438 229
3 231 378 230
3 378 380 230
3 380 499 230
3 231 541 378
3 231 438 386
3 386 541 231
3 232 357 233
3 232 401 357
3 383 401 232
3 233 235 234
3 233 463 235
3 357 463 233
3 235 239 234
3 239 330 234
3 330 438 234
3 235 240 239
3 235 261 240
3 235 463 261
3 339 377 236
3 377 388 236
3 236 388 387
3 237 243 238
3 237 473 243
3 387 473 237
3 243 245 238
3 245 439 238
3 238 439 428
3 240 241 239
3 241 479 239
3 239 479 330
3 240 242 241
3 240 446 242
3 261 446 240
3 242 247 241
3 247 331 241
3 331 479 241
3 242 248 247
3 242 252 248
3 242 446 252
3 243 249 245
3 243 251 249
3 243 473 251
3 246 264 244
3 264 266 244
3 266 465 244
3 249 250 245
3 250 334 245
3 334 439 245
3 246 265 264
3 246 346 265
3 246 433 346
3 248 255 247
3 255 525 247
3 247 525 331
3 252 253 248
3 253 530 248
3 248 530 255
3 249 431 250
3 251 254 249
3 254 431 249
3 250 335 334
3 250 355 335
3 250 431 355
3 251 323 254
3 251 338 323
3 251 473 338
3 252 256 253
3 252 459 256
3 446 459 252
3 256 257 253
3 257 364 253
3 364 530 253
3 323 348 254
3 348 349 254
3 349 431 254
3 379 516 255
3 255 530 379
3 516 525 255
3 256 258 257
3 256 260 258
3 256 459 260
3 258 259 257
3 259 461 257
3 257 461 364
3 258 262 259
3 260 527 258
3 258 527 262
3 262 263 259
3 263 279 259
3 279 461 259
3 424 425 260
3 260 546 424
3 425 527 260
3 459 546 260
3 261 463 410
3 410 521 261
3 261 521 446
3 262 310 263
3 262 322 310
3 262 527 322
3 263 320 279
3 310 512 263
3 263 512 320
3 265 443 264
3 264 267 266
3 264 443 267
3 346 474 265
3 265 467 443
3 265 474 467
3 267 268 266
3 268 341 266
3 341 465 266
3 267 269 268
3 267 270 269
3 267 443 270
3 269 552 268
3 268 363 341
3 268 552 363
3 270 271 269
3 271 496 269
3 496 552 269
3 270 272 271
3 270 435 272
3 270 443 435
3 272 273 271
3 273 275 271
3 275 496 271
3 272 274 273
3 272 298 274
3 272 435 298
3 274 440 273
3 273 276 275
3 273 440 276
3 298 316 274
3 316 332 274
3 332 440 274
3 276 277 275
3 277 522 275
3 275 522 496
3 276 278 277
3 276 280 278
3 276 440 280
3 278 319 277
3 319 370 277
3 370 522 277
3 280 281 278
3 281 460 278
3 278 460 319
3 320 321 279
3 321 492 279
3 279 492 461
3 280 282 281
3 280 432 282
3 280 440 432
3 282 283 281
3 283 285 281
3 285 460 281
3 282 284 283
3 282 462 284
3 432 462 282
3 284 286 283
3 283 478 285
3 286 478 283
3 284 287 286
3 284 288 287
3 284 462 288
3 447 460 285
3 285 536 447
3 478 536 285
3 287 508 286
3 286 542 478
3 508 542 286
3 288 289 287
3 289 301 287
3 301 508 287
3 288 290 289
3 288 468 290
3 462 468 288
3 290 291 289
3 291 437 289
3 289 437 301
3 290 292 291
3 290 293 292
3 290 468 293
3 292 299 291
3 299 300 291
3 300 437 291
3 293 294 292
3 294 456 292
3 292 456 299
3 293 295 294
3 293 469 295
3 468 469 293
3 295 296 294
3 296 311 294
3 311 456 294
3 295 297 296
3 295 472 297
3 469 472 295
3 297 302 296
3 302 457 296
3 296 457 311
3 297 303 302
3 297 489 303
3 472 489 297
3 298 344 316
3 298 398 344
3 298 435 398
3 299 312 300
3 299 336 312
3 299 456 336
3 312 313 300
3 313 324 300
3 324 437 300
3 301 404 373
3 373 508 301
3 301 437 404
3 303 304 302
3 304 318 302
3 318 457 302
3 303 305 304
3 303 307 305
3 303 489 307
3 305 306 304
3 306 454 304
3 304 454 318
3 305 455 306
3 307 308 305
3 308 455 305
3 448 450 306
3 306 455 448
3 450 454 306
3 307 309 308
3 307 402 309
3 307 489 402
3 309 314 308
3 314 317 308
3 317 455 308
3 309 315 314
3 309 399 315
3 309 402 399
3 322 365 310
3 365 553 310
3 310 553 512
3 311 466 456
3 457 458 311
3 458 466 311
3 312 444 313
3 336 337 312
3 337 444 312
3 313 325 324
3 313 327 325
3 313 444 327
3 315 333 314
3 314 411 317
3 333 411 314
3 315 342 333
3 315 343 342
3 315 399 343
3 316 347 332
3 344 403 316
3 316 403 347
3 411 412 317
3 412 413 317
3 413 455 317
3 454 529 318
3 318 485 457
3 318 529 485
3 319 382 370
3 319 517 382
3 460 517 319
3 320 356 321
3 320 397 356
3 320 512 397
3 356 549 321
3 321 523 492
3 321 549 523
3 322 494 365
3 322 425 422
3 422 494 322
3 322 527 425
3 338 379 323
3 323 544 348
3 379 544 323
3 325 326 324
3 326 404 324
3 404 437 324
3 325 418 326
3 327 328 325
3 328 418 325
3 326 513 404
3 418 475 326
3 475 513 326
3 327 329 328
3 327 391 329
3 327 444 391
3 329 340 328
3 340 352 328
3 352 418 328
3 329 376 340
3 329 554 376
3 391 554 329
3 330 393 386
3 386 438 330
3 330 479 393
3 331 511 479
3 500 511 331
3 331 525 500
3 347 353 332
3 353 432 332
3 432 440 332
3 342 493 333
3 333 417 411
3 333 493 417
3 335 345 334
3 345 471 334
3 334 471 439
3 335 358 345
3 355 447 335
3 335 447 358
3 336 350 337
3 336 466 350
3 456 466 336
3 350 351 337
3 351 372 337
3 372 444 337
3 338 516 379
3 338 473 388
3 388 516 338
3 339 500 377
3 339 429 392
3 392 500 339
3 340 354 352
3 340 534 354
3 376 534 340
3 363 506 341
3 464 465 341
3 341 506 464
3 343 474 342
3 474 480 342
3 480 493 342
3 343 399 398
3 398 467 343
3 467 474 343
3 398 399 344
3 399 402 344
3 402 403 344
3 358 359 345
3 359 477 345
3 345 477 471
3 433 470 346
3 470 480 346
3 346 480 474
3 347 469 353
3 403 472 347
3 347 472 469
3 348 492 349
3 461 492 348
3 348 544 461
3 382 431 349
3 349 523 382
3 492 523 349
3 350 531 351
3 466 483 350
3 483 531 350
3 351 390 372
3 351 507 390
3 351 531 507
3 354 524 352
3 352 419 418
3 352 524 419
3 353 462 432
3 353 468 462
3 353 469 468
3 354 514 445
3 445 524 354
3 354 534 514
3 355 431 382
3 382 517 355
3 355 517 447
3 397 496 356
3 496 522 356
3 522 549 356
3 401 515 357
3 357 540 463
3 515 540 357
3 358 360 359
3 358 536 360
3 447 536 358
3 360 361 359
3 361 362 359
3 362 477 359
3 360 366 361
3 360 478 366
3 360 536 478
3 361 434 362
3 366 367 361
3 367 434 361
3 362 476 430
3 430 477 362
3 434 476 362
3 397 512 363
3 363 552 397
3 363 553 506
3 512 553 363
3 379 530 364
3 364 544 379
3 461 544 364
3 494 526 365
3 365 526 506
3 506 553 365
3 366 368 367
3 366 542 368
3 478 542 366
3 368 369 367
3 369 486 367
3 367 486 434
3 368 373 369
3 368 508 373
3 368 542 508
3 373 374 369
3 374 375 369
3 375 486 369
3 382 523 370
3 370 549 522
3 523 549 370
3 371 541 386
3 396 532 371
3 532 541 371
3 391 444 372
3 373 513 374
3 404 513 373
3 374 482 375
3 475 482 374
3 374 513 475
3 375 481 389
3 389 486 375
3 375 482 481
3 491 533 376
3 376 554 491
3 377 516 388
3 500 525 377
3 377 525 516
3 378 518 380
3 378 532 518
3 378 541 532
3 518 548 380
3 381 547 383
3 528 547 381
3 383 547 401
3 385 511 392
3 393 511 385
3 388 473 387
3 392 511 500
3 479 511 393
3 394 535 395
3 395 548 394
3 394 548 518
3 397 552 496
3 435 467 398
3 400 515 401
3 402 489 403
3 403 489 472
3 406 409 405
3 407 408 406
3 408 410 406
3 406 410 409
3 407 424 408
3 420 423 407
3 423 424 407
3 408 521 410
3 424 546 408
3 408 546 521
3 410 540 409
3 409 540 515
3 463 540 410
3 411 495 412
3 417 495 411
3 412 414 413
3 412 498 414
3 495 498 412
3 414 415 413
3 415 448 413
3 448 455 413
3 414 416 415
3 414 501 416
3 498 501 414
3 416 502 415
3 415 449 448
3 415 502 449
3 501 505 416
3 416 543 502
3 505 543 416
3 417 493 436
3 436 497 417
3 417 497 495
3 419 475 418
3 419 510 475
3 419 551 510
3 524 551 419
3 421 494 422
3 422 425 423
3 423 425 424
3 464 526 426
3 428 439 427
3 439 471 427
3 443 467 435
3 510 551 441
3 442 501 498
3 446 521 459
3 447 517 460
3 449 450 448
3 449 451 450
3 449 550 451
3 502 550 449
3 451 452 450
3 452 454 450
3 451 519 452
3 490 519 451
3 451 550 490
3 453 529 452
3 452 529 454
3 509 520 453
3 520 529 453
3 457 485 458
3 458 483 466
3 458 484 483
3 458 485 484
3 521 546 459
3 506 526 464
3 475 510 482
3 484 545 483
3 483 545 531
3 485 520 484
3 488 545 484
3 485 529 520
3 52 555 3
3 3 555 57
3 53 555 52
3 54 555 53
3 55 555 54
3 56 555 55
3 57 555 56
4 70 573 572 595
4 573 579 69 597
4 424 560 546 594
4 70 426 573 595
4 572 573 69 597
4 573 595 426 598
4 424 408 546 560
4 424 587 560 594
4 574 593 552 601
4 424 407 560 587
4 478 564 575 586
4 564 586 366 600
4 558 595 573 598
4 424 407 408 560
4 261 561 604 606
4 67 576 567 579
4 478 366 564 586
4 261 604 560 606
4 567 576 67 602
4 283 575 564 577
4 257 258 256 559
4 439 572 245 595
4 253 257 256 559
4 464 573 426 598
4 574 584 552 593
4 366 542 564 600
4 70 69 572 573
4 424 559 587 594
4 281 575 283 577
4 245 595 572 599
4 220 69 573 579
4 572 573 558 595
4 260 424 546 594
4 260 559 424 594
4 377 560 587 594
4 424 559 423 587
4 70 190 69 573
4 339 377 560 587
4 377 587 559 594
4 573 598 464 601
4 478 366 542 564
4 578 585 348 605
4 240 446 261 560
4 556 567 566 569
4 257 559 253 592
4 261 410 561 606
4 281 569 575 577
4 566 567 557 569
4 377 236 559 587
4 261 560 410 606
4 240 560 261 604
4 532 570 541 571
4 349 585 599 605
4 260 256 258 559
4 227 228 570 571
4 203 576 67 579
4 78 204 561 570
4 377 236 388 559
4 79 570 396 571
4 552 268 363 593
4 335 582 572 597
4 264 566 246 579
4 235 240 261 604
4 78 561 217 570
4 523 599 574 605
4 235 261 561 604
4 557 579 573 597
4 396 570 532 571
4 382 583 574 599
4 515 561 204 570
4 234 561 233 570
4 255 559 530 594
4 428 70 572 595
4 78 400 204 570
4 573 593 574 601
4 558 599 585 605
4 190 70 426 573
4 470 576 565 596
4 500 339 377 560
4 566 576 246 579
4 470 576 596 602
4 552 593 363 601
4 283 564 282 577
4 557 573 572 597
4 335 572 582 583
4 388 559 236 608
4 565 576 265 580
4 228 231 570 571
4 348 585 349 605
4 245 585 595 599
4 253 559 530 592
4 515 204 400 570
4 260 559 258 591
4 281 280 569 577
4 244 264 246 579
4 78 217 188 570
4 506 464 598 601
4 227 228 229 570
4 67 567 430 579
4 220 69 190 573
4 330 393 561 570
4 316 28 568 588
4 242 446 240 560
4 238 439 245 595
4 236 218 559 587
4 79 197 570 571
4 474 565 265 580
4 496 552 574 584
4 345 582 335 597
4 231 541 570 571
4 281 283 282 577
4 474 265 565 576
4 30 284 564 588
4 253 559 256 594
4 565 596 576 602
4 348 585 578 592
4 316 347 28 588
4 261 446 521 560
4 547 401 197 571
4 227 570 232 571
4 460 575 569 582
4 517 583 582 609
4 359 575 567 586
4 521 446 459 594
4 79 396 80 571
4 287 508 31 564
4 530 559 253 594
4 478 564 283 575
4 281 569 460 575
4 67 430 68 579
4 521 560 446 594
4 265 576 566 580
4 70 69 427 572
4 377 559 516 594
4 236 559 218 608
4 476 567 67 602
4 200 571 518 581
4 256 559 260 594
4 330 561 234 570
4 428 70 427 572
4 566 584 270 589
4 556 564 563 586
4 377 525 560 594
4 342 24 480 565
4 382 574 523 599
4 558 598 573 601
4 30 462 284 588
4 476 430 67 567
4 227 232 383 571
4 443 265 566 580
4 242 560 240 604
4 572 583 335 599
4 286 508 287 564
4 265 264 566 576
4 425 423 424 559
4 261 521 410 560
4 567 575 359 582
4 566 567 556 576
4 526 464 426 598
4 346 565 470 576
4 33 486 563 600
4 460 582 569 609
4 397 574 552 601
4 27 316 28 568
4 233 234 235 561
4 287 31 30 564
4 334 572 335 599
4 521 546 408 560
4 528 381 571 581
4 31 564 508 600
4 274 332 568 577
4 556 575 564 586
4 278 281 280 569
4 547 383 401 571
4 223 226 571 581
4 363 593 573 601
4 401 570 197 571
4 460 517 582 609
4 407 424 423 587
4 79 80 197 571
4 357 233 561 570
4 567 569 556 575
4 530 559 379 592
4 332 347 316 588
4 443 265 264 566
4 235 261 463 561
4 323 251 585 592
4 566 579 264 593
4 585 592 251 608
4 223 571 224 581
4 383 570 401 571
4 474 565 346 576
4 232 570 383 571
4 423 587 559 607
4 425 424 260 559
4 244 264 579 593
4 282 564 284 588
4 397 496 552 574
4 76 75 429 606
4 371 541 532 570
4 246 566 264 576
4 557 569 567 582
4 205 560 407 587
4 238 245 585 595
4 474 346 265 576
4 523 349 599 605
4 430 579 567 597
4 567 576 566 579
4 332 316 568 588
4 75 560 429 606
4 69 579 68 597
4 392 429 339 560
4 242 247 560 604
4 423 206 587 607
4 465 220 573 579
4 271 270 584 589
4 430 68 579 597
4 270 580 566 589
4 224 571 222 581
4 428 572 439 595
4 516 377 388 559
4 508 564 286 600
4 323 251 592 608
4 242 241 247 604
4 563 586 564 600
4 323 338 251 608
4 462 282 284 588
4 362 567 476 586
4 476 586 567 602
4 205 560 75 606
4 274 440 332 577
4 260 546 459 594
4 515 357 561 570
4 217 561 225 570
4 81 571 200 581
4 371 532 396 570
4 225 561 393 570
4 342 25 24 565
4 223 226 224 571
4 261 410 463 561
4 429 339 560 587
4 203 246 576 579
4 203 433 67 576
4 480 565 24 596
4 286 478 542 564
4 572 573 557 574
4 563 565 556 602
4 276 273 569 589
4 427 572 69 597
4 81 528 571 581
4 276 569 577 589
4 563 564 556 590
4 224 381 222 571
4 557 567 566 579
4 562 421 598 607
4 205 406 407 560
4 33 563 389 596
4 274 577 568 589
4 568 580 298 589
4 330 386 393 570
4 556 564 575 577
4 284 286 287 564
4 559 587 218 607
4 258 257 259 592
4 518 571 380 581
4 280 276 569 577
4 282 577 564 588
4 467 565 474 580
4 467 474 265 580
4 74 218 587 607
4 205 75 76 606
4 558 573 572 574
4 217 225 188 570
4 506 464 526 598
4 492 578 348 605
4 367 586 563 600
4 275 569 273 589
4 281 278 460 569
4 525 500 377 560
4 465 579 573 593
4 234 239 235 561
4 499 571 226 581
4 359 360 575 586
4 473 562 237 585
4 408 407 406 560
4 346 480 470 565
4 521 408 410 560
4 381 222 571 581
4 30 284 287 564
4 331 560 247 604
4 75 560 205 587
4 429 560 75 587
4 425 423 559 607
4 288 284 30 462
4 235 239 240 604
4 275 584 569 589
4 528 216 381 581
4 389 563 189 596
4 242 560 247 594
4 276 273 275 569
4 408 406 410 560
4 410 560 406 606
4 359 567 582 597
4 193 427 69 597
4 33 486 389 563
4 392 429 560 606
4 235 561 239 604
4 233 235 463 561
4 284 282 283 564
4 237 238 585 595
4 421 562 72 607
4 243 237 238 585
4 272 298 580 589
4 494 598 421 607
4 443 566 270 580
4 559 607 218 608
4 565 580 467 603
4 342 25 565 603
4 276 577 440 589
4 467 474 565 603
4 274 568 298 589
4 69 68 193 597
4 572 574 557 583
4 434 563 367 586
4 265 246 264 576
4 367 366 586 600
4 310 598 578 601
4 310 578 263 601
4 380 571 499 581
4 516 559 388 608
4 382 523 349 599
4 568 577 332 588
4 446 560 242 594
4 463 357 233 561
4 476 362 430 567
4 174 565 590 596
4 298 580 568 603
4 218 607 219 608
4 569 575 567 582
4 359 575 360 582
4 398 580 298 603
4 348 254 349 585
4 33 563 176 600
4 258 259 591 592
4 344 316 27 568
4 33 369 486 600
4 558 572 595 599
4 323 585 348 592
4 267 584 566 593
4 237 585 562 595
4 565 576 556 602
4 556 576 567 602
4 272 580 270 589
4 540 515 357 561
4 367 563 486 600
4 174 24 25 565
4 234 330 239 561
4 500 392 339 560
4 250 334 335 599
4 77 78 204 561
4 558 585 578 605
4 359 582 345 597
4 358 359 360 582
4 349 585 254 599
4 470 565 480 596
4 190 426 464 573
4 379 592 559 608
4 272 435 270 580
4 77 217 78 561
4 202 217 77 561
4 473 237 243 585
4 27 344 568 603
4 30 564 175 588
4 342 480 474 565
4 516 559 255 594
4 359 567 362 586
4 407 423 420 587
4 377 339 236 587
4 232 227 229 570
4 72 595 562 598
4 540 463 410 561
4 385 392 604 606
4 440 577 274 589
4 228 231 438 570
4 574 583 572 599
4 558 574 572 599
4 478 286 283 564
4 556 564 577 590
4 223 499 226 581
4 385 202 392 606
4 367 434 486 563
4 220 190 465 573
4 439 334 245 572
4 425 559 260 591
4 365 310 553 601
4 269 584 267 593
4 499 380 230 571
4 334 471 345 597
4 518 394 200 581
4 557 584 574 593
4 334 572 471 597
4 189 596 563 602
4 272 298 435 580
4 285 575 460 582
4 557 574 573 593
4 560 604 392 606
4 420 423 206 587
4 285 281 460 575
4 563 556 565 590
4 433 576 470 602
4 428 427 439 572
4 242 240 241 604
4 245 572 334 599
4 556 569 566 589
4 459 256 260 594
4 174 24 565 596
4 359 477 567 597
4 556 577 568 590
4 557 582 572 583
4 77 202 561 606
4 406 560 205 606
4 278 280 276 569
4 578 591 259 592
4 385 604 561 606
4 179 174 565 590
4 572 582 557 597
4 522 496 574 584
4 494 591 598 607
4 271 275 273 589
4 473 237 562 608
4 202 385 217 561
4 365 598 310 601
4 81 216 528 581
4 433 67 576 602
4 389 486 189 563
4 229 234 233 570
4 189 65 596 602
4 228 438 229 570
4 460 319 517 609
4 29 462 30 588
4 562 585 473 608
4 253 530 364 592
4 522 496 356 574
4 568 577 564 590
4 271 584 275 589
4 177 27 28 568
4 65 389 189 596
4 463 540 357 561
4 247 331 525 560
4 174 590 181 596
4 385 561 202 606
4 473 585 251 608
4 527 260 258 591
4 370 574 382 583
4 540 410 409 561
4 542 286 564 600
4 556 568 565 590
4 516 379 559 608
4 512 310 263 601
4 522 584 574 609
4 565 568 556 580
4 280 440 276 577
4 392 560 500 604
4 398 435 298 580
4 177 568 28 588
4 247 560 525 594
4 180 564 31 600
4 410 409 561 606
4 331 500 560 604
4 244 579 465 593
4 31 180 30 564
4 386 225 393 570
4 470 596 66 602
4 420 205 407 587
4 263 601 578 605
4 189 563 434 602
4 72 562 219 607
4 396 79 188 570
4 298 568 344 603
4 330 234 438 570
4 348 349 492 605
4 556 575 569 577
4 283 281 285 575
4 348 578 461 592
4 558 595 585 599
4 181 176 563 590
4 237 219 192 562
4 278 460 569 609
4 174 179 565 603
4 237 562 192 595
4 284 283 286 564
4 298 316 344 568
4 479 239 330 561
4 181 563 33 596
4 219 72 192 562
4 219 607 562 608
4 499 230 226 571
4 244 246 203 579
4 272 274 298 589
4 564 577 568 588
4 69 220 68 579
4 566 569 557 584
4 563 586 434 602
4 565 563 596 602
4 359 345 477 597
4 179 590 565 603
4 176 33 181 563
4 370 523 382 574
4 559 591 425 607
4 176 563 590 600
4 200 394 81 581
4 219 218 73 607
4 486 434 189 563
4 267 566 264 593
4 175 588 564 590
4 1 33 389 596
4 232 401 383 570
4 536 575 285 582
4 556 567 586 602
4 562 598 591 607
4 474 480 346 565
4 378 541 231 571
4 174 565 25 603
4 564 588 568 590
4 380 378 230 571
4 66 596 65 602
4 274 332 316 568
4 243 238 245 585
4 276 569 275 609
4 323 254 348 585
4 67 68 203 579
4 387 218 219 608
4 33 32 369 600
4 359 477 362 567
4 364 257 253 592
4 72 192 562 595
4 206 74 587 607
4 267 270 443 566
4 236 218 387 608
4 310 322 578 598
4 506 598 365 601
4 223 224 222 581
4 540 409 515 561
4 219 562 237 608
4 380 518 378 571
4 27 28 316 347
4 77 561 204 606
4 339 187 236 587
4 563 181 590 596
4 552 584 269 593
4 426 595 71 598
4 465 244 220 579
4 429 187 339 587
4 433 470 66 602
4 332 577 432 588
4 239 561 479 604
4 470 65 66 596
4 281 282 280 577
4 236 187 218 587
4 409 204 515 561
4 319 583 517 609
4 264 244 266 593
4 359 362 361 586
4 322 262 310 578
4 428 439 238 595
4 288 30 29 462
4 432 577 282 588
4 467 343 474 603
4 27 568 179 603
4 435 443 270 580
4 393 479 330 561
4 433 346 470 576
4 574 599 558 605
4 179 568 590 603
4 342 343 25 603
4 249 254 585 599
4 78 188 79 570
4 492 461 348 578
4 506 365 553 601
4 285 460 447 582
4 556 566 580 589
4 203 246 433 576
4 71 426 70 595
4 568 577 556 589
4 430 362 477 567
4 562 592 585 608
4 189 66 65 602
4 432 332 440 577
4 460 517 447 582
4 179 568 177 590
4 207 421 494 598
4 542 508 286 600
4 430 193 68 597
4 267 443 264 566
4 250 335 355 599
4 549 574 370 609
4 331 500 525 560
4 568 556 580 589
4 277 276 275 609
4 363 573 341 601
4 78 79 400 570
4 569 584 275 609
4 335 583 355 599
4 522 574 549 609
4 356 496 397 574
4 218 74 73 607
4 175 564 180 590
4 568 588 177 590
4 378 532 541 571
4 367 486 369 600
4 32 33 176 600
4 276 440 273 589
4 569 582 557 609
4 229 438 234 570
4 512 601 263 605
4 320 574 601 605
4 249 585 245 599
4 259 578 262 591
4 573 579 557 593
4 73 72 219 607
4 549 523 370 574
4 392 202 429 606
4 569 584 566 589
4 359 358 345 582
4 430 567 477 597
4 322 591 578 598
4 197 400 79 570
4 574 583 370 609
4 177 588 175 590
4 434 362 476 586
4 231 228 230 571
4 176 590 180 600
4 271 272 270 589
4 207 426 71 598
4 180 175 30 564
4 298 274 316 568
4 556 577 569 589
4 536 285 447 582
4 562 578 558 585
4 511 561 385 604
4 217 385 225 561
4 397 552 363 601
4 396 188 371 570
4 262 578 322 591
4 269 271 270 584
4 177 179 27 568
4 393 561 511 604
4 268 552 269 593
4 409 204 561 606
4 237 192 238 595
4 446 242 252 594
4 398 467 580 603
4 471 572 427 597
4 556 566 576 580
4 393 385 511 561
4 258 259 262 591
4 578 585 562 592
4 397 320 574 601
4 180 590 564 600
4 29 30 175 588
4 479 561 393 604
4 360 359 361 586
4 434 586 476 602
4 257 461 259 592
4 565 556 576 580
4 556 586 563 602
4 527 425 260 591
4 378 231 230 571
4 462 432 282 588
4 77 204 405 606
4 541 386 231 570
4 267 264 266 593
4 320 356 574 605
4 298 344 398 603
4 461 578 259 592
4 465 573 341 593
4 567 575 556 586
4 393 225 385 561
4 241 331 247 604
4 349 254 431 599
4 420 206 74 587
4 245 334 250 599
4 387 219 237 608
4 266 244 465 593
4 232 229 233 570
4 193 471 427 597
4 564 590 563 600
4 320 512 263 605
4 532 378 518 571
4 473 243 251 585
4 381 216 222 581
4 511 385 392 604
4 573 574 558 601
4 447 335 582 583
4 197 401 400 570
4 338 473 251 608
4 320 356 397 574
4 1 181 33 596
4 279 578 492 605
4 558 578 562 598
4 557 567 579 597
4 249 431 254 599
4 544 323 348 592
4 332 353 347 588
4 409 405 204 606
4 174 178 181 590
4 252 253 256 594
4 398 467 435 580
4 420 75 205 587
4 278 319 460 609
4 578 598 558 601
4 321 574 356 605
4 515 400 401 570
4 191 480 24 596
4 321 523 549 574
4 269 267 268 593
4 443 467 265 580
4 181 178 176 590
4 459 446 252 594
4 330 438 386 570
4 518 380 548 581
4 357 515 401 570
4 522 549 370 609
4 557 574 584 609
4 396 200 80 571
4 226 228 227 571
4 176 178 180 590
4 266 465 341 593
4 263 310 262 578
4 563 590 565 596
4 522 356 549 574
4 179 178 174 590
4 356 321 549 574
4 357 232 233 570
4 429 75 187 587
4 528 547 197 571
4 230 228 226 571
4 562 585 558 595
4 512 553 310 601
4 320 321 356 605
4 361 367 366 586
4 251 254 323 585
4 566 557 579 593
4 410 406 409 606
4 447 582 517 583
4 242 247 248 594
4 80 528 197 571
4 565 590 568 603
4 310 365 322 598
4 532 518 200 571
4 321 523 574 605
4 28 347 353 588
4 558 562 595 598
4 187 74 218 587
4 492 279 461 578
4 386 438 231 570
4 567 557 582 597
4 447 355 335 583
4 179 177 178 590
4 425 422 423 607
4 81 80 200 571
4 568 580 565 603
4 433 66 67 602
4 582 583 557 609
4 396 532 200 571
4 249 243 245 585
4 175 180 178 590
4 530 379 364 592
4 248 530 253 594
4 471 334 439 572
4 506 526 365 598
4 81 528 80 571
4 209 221 555 581
4 361 434 367 586
4 320 601 512 605
4 72 71 192 595
4 24 342 480 493
4 384 209 555 581
4 395 213 555 581
4 478 283 285 575
4 366 367 368 600
4 555 535 395 581
4 382 349 431 599
4 557 566 584 593
4 27 26 344 603
4 428 71 70 595
4 224 226 227 571
4 459 252 256 594
4 178 177 175 590
4 189 434 476 602
4 248 255 530 594
4 427 471 439 572
4 279 263 578 605
4 558 578 601 605
4 246 265 346 576
4 537 82 555 581
4 537 555 221 581
4 319 370 583 609
4 273 440 274 589
4 541 371 386 570
4 255 247 525 594
4 511 392 500 604
4 190 464 465 573
4 202 76 429 606
4 557 584 569 609
4 516 338 379 608
4 232 357 401 570
4 388 236 387 608
4 494 591 322 598
4 316 403 27 347
4 523 492 349 605
4 355 583 431 599
4 382 431 583 599
4 555 213 384 581
4 494 422 591 607
4 280 282 432 577
4 555 82 535 581
4 552 496 269 584
4 383 224 227 571
4 518 548 394 581
4 470 480 191 596
4 557 583 574 609
4 188 225 371 570
4 240 239 241 604
4 33 369 375 486
4 31 368 32 600
4 255 248 247 594
4 366 368 542 600
4 360 361 366 586
4 447 517 355 583
4 266 341 268 593
4 249 245 250 599
4 335 345 358 582
4 259 263 262 578
4 559 591 562 592
4 464 341 465 573
4 25 343 26 603
4 544 348 461 592
4 434 361 362 586
4 363 341 506 601
4 73 74 206 607
4 443 435 467 580
4 279 320 263 605
4 207 526 426 598
4 422 425 591 607
4 562 591 559 607
4 259 461 279 578
4 275 584 522 609
4 280 432 440 577
4 384 209 54 555
4 559 592 562 608
4 430 477 193 597
4 174 25 179 603
4 555 56 213 395
4 386 371 225 570
4 555 209 53 221
4 246 346 433 576
4 278 277 319 609
4 422 206 423 607
4 494 421 422 607
4 252 248 253 594
4 213 384 55 555
4 343 25 26 315
4 271 273 272 589
4 26 399 343 315
4 355 382 431 583
4 562 607 559 608
4 82 555 3 537
4 528 381 547 571
4 331 511 500 604
4 252 242 248 594
4 73 421 72 607
4 259 279 263 578
4 467 398 343 603
4 288 30 284 287
4 479 393 511 604
4 578 591 562 598
4 31 508 368 600
4 26 343 399 603
4 383 381 224 571
4 547 381 383 571
4 399 344 26 603
4 258 262 527 591
4 536 360 478 575
4 220 203 68 579
4 319 370 382 583
4 535 555 3 82
4 220 244 203 579
4 375 389 33 486
4 397 512 320 601
4 191 24 480 493
4 368 31 32 373
4 405 406 205 606
4 353 332 432 588
4 27 179 26 603
4 367 369 368 600
4 473 387 237 608
4 266 268 267 593
4 66 476 67 602
4 182 43 17 488
4 64 65 191 596
4 522 275 496 584
4 353 462 29 588
4 272 273 274 589
4 344 403 27 316
4 398 344 399 603
4 64 191 1 596
4 562 591 578 592
4 365 494 322 598
4 174 181 24 596
4 29 28 353 588
4 542 368 508 600
4 16 42 182 488
4 537 555 52 221
4 0 4 58 185
4 58 4 0 186
4 345 471 477 597
4 191 24 1 596
4 409 406 405 606
4 353 432 462 588
4 380 213 548 581
4 442 6 83 212
4 285 536 478 575
4 535 57 555 395
4 6 128 83 212
4 76 405 205 606
4 257 364 461 592
4 58 4 186 538
4 189 476 66 602
4 148 501 498 83
4 116 117 306 304
4 447 358 536 582
4 558 601 574 605
4 198 7 131 442
4 254 251 249 585
4 277 275 522 609
4 508 31 368 373
4 319 382 517 583
4 447 335 358 582
4 470 191 65 596
4 533 159 21 183
4 251 243 249 585
4 77 76 202 606
4 62 9 8 194
4 57 56 555 395
4 466 102 141 113
4 271 269 496 584
4 136 119 116 454
4 61 8 7 441
4 420 74 75 587
4 491 533 48 183
4 241 239 479 604
4 322 494 422 591
4 61 7 8 198
4 102 466 311 113
4 363 512 397 601
4 55 56 213 555
4 8 95 497 198
4 271 496 275 584
4 501 498 414 148
4 159 533 491 183
4 7 83 131 442
4 238 192 428 595
4 134 495 417 95
4 411 495 417 134
4 12 37 184 151
4 8 441 194 94
4 539 58 4 185
4 544 379 323 592
4 395 548 213 581
4 163 309 308 307
4 82 81 394 581
4 124 472 295 469
4 441 8 7 133
4 533 21 48 183
4 472 124 28 469
4 277 522 370 609
4 209 384 223 581
4 194 9 8 94
4 384 54 55 555
4 128 6 5 212
4 187 75 74 587
4 7 6 83 442
4 1 33 481 389
4 441 7 208 133
4 380 499 213 581
4 131 8 7 198
4 8 9 62 497
4 198 61 7 442
4 548 395 394 581
4 209 53 54 555
4 368 369 32 600
4 109 107 108 329
4 441 62 8 194
4 481 64 1 389
4 191 1 24 436
4 117 116 115 304
4 490 13 38 184
4 27 26 402 344
4 62 8 497 198
4 305 306 117 304
4 107 109 328 329
4 555 53 52 221
4 399 343 398 603
4 58 0 2 186
4 58 2 0 185
4 526 207 494 598
4 82 216 81 581
4 222 209 223 581
4 468 462 29 353
4 184 490 13 151
4 107 106 105 325
4 104 103 312 105
4 63 9 1 167
4 1 9 63 166
4 103 312 299 101
4 28 27 403 347
4 24 493 417 333
4 193 477 471 597
4 222 221 209 581
4 431 249 250 599
4 495 411 132 134
4 86 29 293 290
4 191 64 1 436
4 134 132 495 95
4 95 8 131 198
4 9 8 95 497
4 504 128 5 212
4 488 17 182 85
4 29 468 293 290
4 319 277 370 609
4 7 6 208 84
4 25 26 179 603
4 5 97 128 504
4 103 299 300 99
4 99 291 86 292
4 182 42 43 488
4 221 222 216 581
4 208 61 7 441
4 84 208 7 133
4 110 418 328 352
4 175 177 29 588
4 103 299 99 101
4 104 336 312 101
4 83 128 501 212
4 553 363 506 601
4 402 26 399 344
4 365 526 494 598
4 436 63 1 167
4 221 216 537 581
4 103 313 312 105
4 294 102 311 296
4 116 118 450 306
4 141 102 466 456
4 63 1 166 481
4 291 289 98 86
4 343 342 25 315
4 8 62 61 198
4 61 62 8 441
4 192 71 428 595
4 294 293 124 295
4 454 116 306 304
4 539 4 168 185
4 355 431 250 599
4 8 441 94 133
4 555 3 57 535
4 52 3 555 537
4 124 293 294 100
4 77 405 76 606
4 336 299 312 101
4 28 29 353 469
4 96 4 5 215
4 442 83 501 212
4 4 186 538 169
4 106 107 110 325
4 425 322 422 591
4 5 4 97 504
4 62 63 9 194
4 314 315 25 333
4 456 102 466 311
4 456 299 101 292
4 415 448 449 121
4 505 214 97 154
4 384 499 223 581
4 425 527 322 591
4 29 177 28 588
4 103 324 313 106
4 213 499 384 581
4 29 288 462 468
4 300 312 299 103
4 485 457 113 114
4 299 291 99 292
4 141 104 336 142
4 312 103 104 101
4 137 413 317 173
4 457 112 318 302
4 454 136 119 452
4 131 83 498 442
4 288 29 30 290
4 488 182 16 85
4 531 350 139 483
4 333 417 24 134
4 318 112 115 302
4 90 314 25 333
4 342 24 25 493
4 455 305 117 137
4 293 100 86 292
4 186 2 58 538
4 449 448 118 121
4 394 395 535 581
4 118 116 117 306
4 24 181 1 596
4 115 114 112 318
4 309 163 127 307
4 379 544 364 592
4 305 117 122 304
4 350 466 141 139
4 114 457 112 318
4 364 544 461 592
4 304 302 115 303
4 5 130 96 215
4 184 37 490 151
4 516 388 338 608
4 132 148 498 131
4 321 320 279 605
4 419 551 133 510
4 290 293 86 292
4 262 322 527 591
4 198 131 498 442
4 86 100 99 292
4 208 6 130 84
4 148 153 501 83
4 455 413 317 137
4 97 129 505 154
4 403 472 28 347
4 28 27 472 403
4 9 63 62 497
4 132 498 495 131
4 456 101 100 292
4 308 305 455 137
4 307 122 127 303
4 142 350 141 139
4 296 297 147 302
4 195 17 43 488
4 90 314 333 134
4 414 412 413 148
4 337 336 104 142
4 127 307 303 489
4 328 109 149 340
4 25 315 314 90
4 145 444 391 108
4 29 293 124 86
4 355 517 382 583
4 162 416 502 121
4 148 498 412 132
4 484 458 139 138
4 114 113 485 138
4 317 412 411 132
4 291 98 99 86
4 133 158 419 510
4 491 48 47 183
4 176 180 32 600
4 15 14 40 150
4 149 107 109 328
4 147 127 303 489
4 95 131 495 198
4 101 141 336 456
4 493 25 342 333
4 543 214 505 154
4 458 485 457 113
4 350 141 336 142
4 107 105 327 325
4 338 388 473 608
4 369 32 33 375
4 295 472 124 87
4 166 194 63 481
4 153 501 414 148
4 86 30 29 290
4 495 412 498 132
4 173 413 412 148
4 194 63 9 166
4 122 308 305 307
4 147 112 296 302
4 411 165 317 132
4 488 16 42 211
4 340 149 328 352
4 29 288 468 290
4 308 317 314 165
4 466 139 458 113
4 122 163 308 307
4 28 124 472 87
4 106 313 105 325
4 321 279 492 605
4 497 95 495 198
4 537 216 82 581
4 102 141 101 456
4 100 124 293 86
4 139 466 141 113
4 353 29 468 469
4 291 289 437 98
4 394 535 82 581
4 167 436 63 497
4 306 450 116 454
4 419 110 171 352
4 1 63 64 481
4 490 88 13 151
4 186 4 0 169
4 412 317 173 132
4 312 444 104 105
4 64 63 1 436
4 47 159 491 183
4 291 437 300 99
4 2 58 539 185
4 126 106 110 326
4 91 31 301 373
4 108 145 444 105
4 4 0 168 185
4 290 86 291 292
4 63 9 167 497
4 529 114 116 318
4 327 108 107 329
4 50 23 155 503
4 458 139 483 484
4 124 294 295 111
4 287 30 31 301
4 305 117 306 455
4 115 116 114 318
4 324 313 300 103
4 340 328 109 329
4 437 291 98 99
4 30 289 288 290
4 287 289 30 301
4 26 309 315 90
4 86 291 289 290
4 119 454 452 529
4 505 501 153 128
4 469 353 28 347
4 139 484 138 161
4 325 106 324 326
4 150 40 15 509
4 180 31 32 600
4 309 127 163 90
4 301 289 30 98
4 458 485 113 138
4 129 543 505 154
4 13 38 519 490
4 102 311 296 112
4 294 124 100 111
4 130 84 149 524
4 531 350 143 139
4 333 25 90 134
4 328 327 107 329
4 173 317 165 132
4 388 387 473 608
4 37 12 201 151
4 195 143 160 545
4 493 24 25 333
4 302 147 115 303
4 59 6 5 130
4 128 97 505 504
4 294 102 100 456
4 98 31 301 91
4 159 47 20 183
4 296 294 102 111
4 444 312 313 105
4 141 336 104 101
4 421 73 206 607
4 450 136 116 454
4 50 23 22 155
4 416 505 501 153
4 117 306 455 448
4 301 30 31 98
4 151 201 550 162
4 448 455 117 120
4 101 100 102 456
4 314 411 333 134
4 524 149 130 354
4 139 143 531 483
4 415 416 414 153
4 115 122 117 304
4 441 94 133 510
4 306 117 118 448
4 158 171 133 419
4 83 498 148 131
4 146 300 437 99
4 145 144 337 142
4 113 139 458 138
4 295 111 297 87
4 162 502 449 121
4 314 163 308 165
4 139 350 466 483
4 306 118 450 448
4 171 551 133 419
4 289 30 86 290
4 146 324 103 106
4 122 147 127 303
4 340 109 149 354
4 466 458 311 113
4 336 337 350 142
4 195 44 17 160
4 32 368 373 369
4 59 5 6 212
4 116 119 114 529
4 115 122 304 303
4 504 505 128 212
4 413 415 414 120
4 411 314 165 134
4 502 449 550 162
4 545 160 195 85
4 523 321 492 605
4 38 37 490 184
4 98 404 437 146
4 131 498 495 198
4 301 404 91 373
4 317 308 163 165
4 466 336 141 456
4 105 103 313 106
4 141 336 466 350
4 545 483 143 161
4 301 404 98 91
4 305 308 122 137
4 308 309 163 90
4 455 317 308 137
4 483 466 139 458
4 241 479 331 604
4 336 299 101 456
4 6 7 60 442
4 472 87 489 403
4 299 291 300 99
4 93 125 159 376
4 441 194 94 510
4 493 436 24 417
4 457 311 113 112
4 417 436 24 167
4 305 122 117 137
4 100 293 294 292
4 156 145 391 108
4 327 391 444 108
4 503 96 155 514
4 130 60 6 208
4 313 327 105 325
4 130 5 59 215
4 533 93 159 376
4 350 142 143 139
4 126 404 324 326
4 502 415 449 121
4 519 88 13 490
4 106 324 313 325
4 314 315 309 90
4 489 27 127 402
4 419 418 110 352
4 122 305 304 303
4 27 489 403 402
4 331 479 511 604
4 125 156 159 554
4 84 551 208 133
4 59 5 4 215
4 484 211 140 161
4 456 100 294 292
4 452 88 170 196
4 412 317 413 173
4 150 14 40 196
4 309 308 314 90
4 472 295 297 87
4 121 162 416 129
4 26 309 399 315
4 303 297 147 489
4 309 127 26 402
4 211 164 140 85
4 7 6 60 208
4 308 163 122 137
4 44 17 43 195
4 24 25 333 134
4 211 16 41 164
4 36 37 12 201
4 11 35 36 487
4 315 25 26 90
4 307 305 122 303
4 19 45 46 390
4 94 135 158 510
4 159 156 199 554
4 472 27 28 87
4 116 454 529 318
4 489 87 27 403
4 153 414 120 148
4 145 104 444 105
4 85 140 211 161
4 83 501 498 442
4 162 502 416 129
4 456 294 102 311
4 421 206 422 607
4 98 289 30 86
4 143 160 545 85
4 4 5 59 504
4 120 448 415 121
4 301 404 437 98
4 403 27 402 344
4 317 163 308 137
4 337 372 144 145
4 111 295 124 87
4 145 337 104 142
4 441 208 551 133
4 20 46 47 199
4 113 311 102 112
4 416 415 121 153
4 505 501 128 212
4 146 98 404 91
4 317 314 165 411
4 120 414 413 148
4 390 19 45 157
4 415 502 416 121
4 11 35 487 154
4 488 195 17 85
4 483 139 143 161
4 108 444 327 105
4 109 108 125 329
4 104 444 337 145
4 24 191 436 493
4 442 60 6 212
4 458 457 311 113
4 296 311 457 112
4 451 88 136 452
4 300 313 312 103
4 50 51 23 503
4 106 126 324 326
4 59 4 58 215
4 452 170 119 453
4 372 199 390 156
4 33 481 389 375
4 87 472 27 403
4 61 60 7 442
4 93 159 21 533
4 89 390 199 156
4 152 109 340 354
4 195 531 507 160
4 16 41 42 211
4 49 22 21 93
4 103 300 324 146
4 184 13 12 151
4 404 324 146 126
4 484 139 483 161
4 118 448 120 121
4 134 417 24 167
4 119 116 454 529
4 490 37 201 151
4 417 436 167 497
4 10 34 214 168
4 454 450 136 452
4 171 419 352 524
4 35 10 34 214
4 89 144 390 156
4 59 58 4 504
4 117 455 137 120
4 159 533 376 491
4 488 16 211 85
4 498 412 414 148
4 444 337 312 104
4 118 136 116 450
4 150 15 164 509
4 201 502 162 92
4 297 111 296 147
4 35 11 10 154
4 137 455 413 120
4 163 122 127 307
4 487 36 11 92
4 133 551 441 510
4 95 495 417 497
4 111 112 296 147
4 162 502 543 92
4 302 115 318 304
4 109 152 149 354
4 337 336 312 104
4 168 0 10 185
4 29 28 124 469
4 513 32 91 373
4 144 372 390 156
4 399 309 26 402
4 36 12 11 92
4 376 340 109 329
4 376 109 125 329
4 144 351 337 142
4 314 90 165 134
4 436 1 24 167
4 485 520 119 138
4 26 127 309 90
4 413 455 448 120
4 7 60 61 208
4 127 309 307 402
4 94 194 9 166
4 214 505 97 504
4 146 437 98 99
4 153 129 505 128
4 504 58 4 539
4 157 507 143 160
4 112 113 457 114
4 448 118 450 449
4 115 112 147 302
4 514 152 155 534
4 413 137 120 173
4 118 450 449 123
4 1 33 166 481
4 169 4 96 215
4 122 115 147 303
4 296 295 111 297
4 127 147 87 489
4 328 107 327 325
4 538 4 169 215
4 155 23 169 503
4 553 512 363 601
4 352 340 149 354
4 44 18 17 160
4 505 416 129 153
4 293 124 295 469
4 12 36 201 92
4 445 96 215 514
4 144 507 351 143
4 391 156 108 125
4 448 117 118 120
4 169 23 51 503
4 28 472 469 347
4 172 155 152 534
4 167 9 95 497
4 164 211 16 85
4 214 35 10 154
4 18 44 507 160
4 0 23 186 169
4 519 39 14 196
4 112 296 102 111
4 458 484 485 138
4 538 58 4 215
4 300 437 324 146
4 127 27 26 402
4 169 51 538 503
4 137 317 163 165
4 351 337 372 144
4 529 452 119 453
4 125 108 391 554
4 143 507 531 160
4 375 374 33 482
4 490 451 88 151
4 289 30 288 287
4 165 137 317 173
4 452 451 88 519
4 160 17 195 85
4 538 186 51 169
4 168 34 214 539
4 376 125 159 491
4 531 351 507 143
4 513 126 135 475
4 483 143 531 545
4 199 20 46 89
4 135 94 482 510
4 195 507 44 160
4 374 33 32 375
4 40 150 196 509
4 146 103 300 99
4 170 452 196 453
4 155 169 96 503
4 23 51 186 169
4 97 168 214 539
4 150 170 88 196
4 167 95 417 497
4 158 126 110 475
4 495 132 131 95
4 14 150 88 196
4 314 308 163 90
4 215 96 503 514
4 372 444 391 145
4 289 301 437 98
4 333 411 417 134
4 157 507 144 143
4 450 118 136 123
4 301 31 287 508
4 524 130 445 354
4 21 49 93 533
4 152 130 149 354
4 350 337 351 142
4 158 133 94 510
4 152 96 445 514
4 484 211 520 140
4 502 201 543 92
4 112 457 296 302
4 404 324 437 146
4 327 108 105 107
4 297 87 147 489
4 126 135 91 513
4 415 413 448 120
4 210 514 155 534
4 85 545 143 161
4 88 452 519 196
4 173 120 413 148
4 451 136 450 452
4 375 33 481 482
4 159 199 47 491
4 15 41 164 509
4 327 391 108 329
4 519 14 88 196
4 170 136 88 452
4 32 31 91 373
4 22 49 50 210
4 127 87 27 489
4 411 412 495 132
4 119 114 485 138
4 390 46 19 89
4 110 149 171 352
4 33 166 481 482
4 543 487 214 154
4 487 543 92 154
4 125 172 109 376
4 369 374 32 375
4 136 170 119 452
4 127 307 489 402
4 186 51 2 538
4 100 102 294 111
4 484 140 138 161
4 491 159 199 554
4 315 342 25 333
4 201 502 550 162
4 199 47 20 159
4 417 134 95 167
4 450 451 449 123
4 49 22 93 210
4 449 123 162 121
4 18 45 19 157
4 32 91 374 513
4 18 44 45 507
4 504 97 214 539
4 123 550 449 162
4 157 45 390 507
4 6 59 60 130
4 152 155 96 514
4 150 170 196 453
4 451 450 136 123
4 132 411 165 134
4 513 374 32 373
4 324 146 126 106
4 155 22 50 210
4 129 92 543 154
4 156 391 199 554
4 84 130 445 524
4 123 88 451 151
4 509 140 150 453
4 108 125 329 554
4 111 297 87 147
4 297 147 302 303
4 504 5 59 212
4 97 505 129 128
4 481 166 194 482
4 508 301 31 373
4 155 172 210 534
4 140 520 484 138
4 485 457 114 318
4 140 119 520 138
4 10 34 168 185
4 164 41 211 509
4 133 84 551 171
4 475 158 135 510
4 41 15 40 509
4 13 38 39 519
4 171 158 110 419
4 157 18 45 507
4 501 153 128 83
4 91 404 146 126
4 294 296 295 111
4 59 130 215 445
4 509 150 196 453
4 391 372 145 156
4 87 297 472 489
4 545 488 484 161
4 60 130 445 208
4 36 487 201 92
4 162 151 201 92
4 12 201 151 92
4 16 15 41 164
4 451 136 88 123
4 520 485 484 138
4 123 449 118 121
4 84 445 208 524
4 123 451 550 151
4 503 169 96 215
4 20 19 46 89
4 539 34 2 185
4 140 164 211 509
4 519 451 88 490
4 90 163 314 165
4 168 214 10 154
4 503 155 50 210
4 543 416 502 129
4 529 119 520 453
4 14 39 40 196
4 451 490 550 151
4 46 390 199 89
4 543 162 92 129
4 210 376 534 93
4 126 158 135 475
4 214 487 35 154
4 164 140 150 509
4 130 59 60 445
4 119 520 485 529
4 166 94 194 482
4 550 123 151 162
4 391 156 125 554
4 340 152 354 534
4 210 376 93 533
4 531 195 143 160
4 135 374 513 475
4 91 135 32 374
4 159 20 21 183
4 376 93 172 534
4 374 135 33 482
4 414 416 501 153
4 17 16 182 85
4 372 390 351 144
4 482 475 135 510
4 152 96 130 445
4 215 130 96 445
4 340 109 152 534
4 539 168 34 185
4 157 390 19 89
4 155 172 93 210
4 144 390 157 89
4 144 351 142 143
4 326 126 404 513
4 109 172 152 534
4 60 59 6 212
4 507 157 18 160
4 162 543 502 129
4 119 485 114 529
4 513 326 126 475
4 372 337 444 145
4 170 150 140 453
4 140 211 520 509
4 92 11 487 154
4 143 195 531 545
4 135 33 32 374
4 503 538 169 215
4 171 84 551 524
4 374 91 135 513
4 49 21 48 533
4 419 171 551 524
4 166 33 135 482
4 210 172 93 534
4 135 374 475 482
4 208 130 445 84
4 533 49 93 210
4 488 545 85 161
4 313 327 444 105
4 329 391 108 554
4 201 487 543 92
4 482 94 194 510
4 373 374 32 369
4 126 91 404 513
4 416 121 129 153
4 148 412 173 132
4 376 125 491 554
4 488 545 195 85
4 352 149 171 524
4 509 520 140 453
4 89 199 20 159
4 156 199 89 159
4 524 352 149 354
4 513 91 404 373
4 550 490 201 151
4 93 22 155 210
4 84 208 551 524
4 214 168 97 154
4 372 391 199 156
4 520 119 140 453
4 94 166 135 482
4 483 545 484 161
4 145 372 144 156
4 93 172 125 376
4 529 485 114 318
4 84 171 149 524
4 354 152 514 534
4 514 155 503 210
4 170 140 119 453
4 514 445 152 354
4 491 125 159 554
4 475 419 158 510
4 505 416 543 129
4 125 376 329 554
4 550 449 451 123
4 130 152 445 354
4 597 334 335 345
4 597 335 334 572
4 586 478 360 575
4 586 360 478 366
4 594 521 546 459
4 594 546 521 560
4 593 363 341 268
4 593 341 363 573
4 584 267 270 269
4 584 270 267 566
4 601 464 341 506
4 601 341 464 573
4 379 255 559 530
4 379 559 255 516
4 603 474 342 343
4 603 342 474 565
4 598 72 421 562
4 598 421 72 207
4 592 258 559 591
4 592 559 258 257
4 360 582 536 358
4 536 582 360 575
4 608 323 379 592
4 608 379 323 338
4 609 276 278 277
4 609 278 276 569
4 516 525 594 255
4 516 594 525 377
4 71 598 72 207
4 72 598 71 595
4 596 64 389 1
4 596 389 64 65
4 292 101 99 299
4 292 99 101 100
4 293 29 469 468
4 469 29 293 124
4 110 328 325 107
4 325 328 110 418
4 415 153 120 121
4 120 153 415 414
4 116 304 318 115
4 318 304 116 454
4 325 110 326 418
4 325 326 110 106
4 326 110 475 418
4 326 475 110 126
4 149 328 110 107
4 149 110 328 352
4 350 143 351 531
4 351 143 350 142
4 475 110 419 418
4 475 419 110 158
4 109 534 376 172
4 376 534 109 340
4 161 488 211 85
4 161 211 488 484
4 144 507 390 351
4 144 390 507 157
4 519 14 13 88
4 519 13 14 39
4 97 539 4 168
4 4 539 97 504

CELL_TYPES 3043
1
1
1
1
3
3
3
3
3
3
3
3
3
3
3
3
3
3
3
3
3
3
3
3
3
3
3
3
3
3
3
3
3
3
3
3
3
3
3
3
3
3
3
3
3
3
3
3
3
3
3
3
3
3
3
3
3
3
3
3
3
3
3
3
3
3
3
3
3
3
3
3
3
3
3
3
3
3
3
3
3
3
3
3
3
3
3
3
3
5
5
5
5
5
5
5
5
5
5
5
5
5
5
5
5
5
5
5
5
5
5
5
5
5
5
5
5
5
5
5
5
5
5
5
5
5
5
5
5
5
5
5
5
5
5
5
5
5
5
5
5
5
5
5
5
5
5
5
5
5
5
5
5
5
5
5
5
5
5
5
5
5
5
5
5
5
5
5
5
5
5
5
5
5
5
5
5
5
5
5
5
5
5
5
5
5
5
5
5
5
5
5
5
5
5
5
5
5
5
5
5
5
5
5
5
5
5
5
5
5
5
5
5
5
5
5
5
5
5
5
5
5
5
5
5
5
5
5
5
5
5
5
5
5
5
5
5
5
5
5
5
5
5
5
5
5
5
5
5
5
5
5
5
5
5
5
5
5
5
5
5
5
5
5
5
5
5
5
5
5
5
5
5
5
5
5
5
5
5
5
5
5
5
5
5
5
5
5
5
5
5
5
5
5
5
5
5
5
5
5
5
5
5
5
5
5
5
5
5
5
5
5
5
5
5
5
5
5
5
5
5
5
5
5
5
5
5
5
5
5
5
5
5
5
5
5
5
5
5
5
5
5
5
5
5
5
5
5
5
5
5
5
5
5
5
5
5
5
5
5
5
5
5
5
5
5
5
5
5
5
5
5
5
5
5
5
5
5
5
5
5
5
5
5
5
5
5
5
5
5
5
5
5
5
5
5
5
5
5
5
5
5
5
5
5
5
5
5
5
5
5
5
5
5
5
5
5
5
5
5
5
5
5
5
5
5
5
5
5
5
5
5
5
5
5
5
5
5
5
5
5
5
5
5
5
5
5
5
5
5
5
5
5
5
5
5
5
5
5
5
5
5
5
5
5
5
5
5
5
5
5
5
5
5
5
5
5
5
5
5
5
5
5
5
5
5
5
5
5
5
5
5
5
5
5
5
5
5
5
5
5
5
5
5
5
5
5
5
5
5
5
5
5
5
5
5
5
5
5
5
5
5
5
5
5
5
5
5
5
5
5
5
5
5
5
5
5
5
5
5
5
5
5
5
5
5
5
5
5
5
5
5
5
5
5
5
5
5
5
5
5
5
5
5
5
5
5
5
5
5
5
5
5
5
5
5
5
5
5
5
5
5
5
5
5
5
5
5
5
5
5
5
5
5
5
5
5
5
5
5
5
5
5
5
5
5
5
5
5
5
5
5
5
5
5
5
5
5
5
5
5
5
5
5
5
5
5
5
5
5
5
5
5
5
5
5
5
5
5
5
5
5
5
5
5
5
5
5
5
5
5
5
5
5
5
5
5
5
5
5
5
5
5
5
5
5
5
5
5
5
5
5
5
5
5
5
5
5
5
5
5
5
5
5
5
5
5
5
5
5
5
5
5
5
5
5
5
5
5
5
5
5
5
5
5
5
5
5
5
5
5
5
5
5
5
5
5
5
5
5
5
5
5
5
5
5
5
5
5
5
5
5
5
5
5
5
5
5
5
5
5
5
5
5
5
5
5
5
5
5
5
5
5
5
5
5
5
5
5
5
5
5
5
5
5
5
5
5
5
5
5
5
5
5
5
5
5
5
5
5
5
5
5
5
5
5
5
5
5
5
5
5
5
5
5
5
5
5
5
5
5
5
5
5
5
5
5
5
5
5
5
5
5
5
5
5
5
5
5
5
5
5
5
5
5
5
5
5
5
5
5
5
5
5
5
5
5
5
5
5
5
5
5
5
5
5
5
5
5
5
5
5
5
5
5
5
5
5
5
5
5
5
5
5
5
5
5
5
5
5
5
5
5
5
5
5
5
5
5
5
5
5
5
5
5
5
5
5
5
5
5
5
5
5
5
5
5
5
5
5
5
5
5
5
5
5
5
5
5
5
5
5
5
5
5
5
5
5
5
5
5
5
5
5
5
5
5
5
5
5
5
5
5
5
5
5
5
5
5
5
5
5
5
5
5
5
5
5
5
5
5
5
5
5
5
5
5
5
5
5
5
5
5
5
5
5
5
5
5
5
5
5
5
5
5
5
5
5
5
5
5
5
5
5
5
5
5
5
5
5
5
5
5
5
5
5
5
5
5
5
5
5
5
5
5
5
5
5
5
5
5
5
5
5
5
5
5
5
5
5
5
5
5
5
5
5
5
5
5
5
5
5
5
5
5
5
5
5
5
5
5
5
5
5
5
5
5
5
5
5
5
5
5
5
5
5
5
5
5
5
5
5
5
5
5
5
5
5
5
5
5
5
5
5
5
5
5
5
5
5
5
5
5
5
5
5
5
5
5
5
5
5
5
5
5
5
5
5
5
5
5
5
5
5
5
5
5
5
5
5
5
5
5
5
5
5
5
5
5
5
5
5
5
5
5
5
5
5
5
5
5
5
5
5
5
5
5
5
5
5
5
5
5
5
5
5
5
5
5
5
5
5
5
5
5
5
5
5
5
5
5
5
5
5
5
5
5
5
5
5
5
5
5
5
5
5
5
5
5
5
5
5
5
5
5
5
5
5
5
5
5
5
5
5
5
5
5
10
10
10
10
10
10
10
10
10
10
10
10
10
10
10
10
10
10
10
10
10
10
10
10
10
10
10
10
10
10
10
10
10
10
10
10
10
10
10
10
10
10
10
10
10
10
10
10
10
10
10
10
10
10
10
10
10
10
10
10
10
10
10
10
10
10
10
10
10
10
10
10
10
10
10
10
10
10
10
10
10
10
10
10
10
10
10
10
10
10
10
10
10
10
10
10
10
10
10
10
10
10
10
10
10
10
10
10
10
10
10
10
10
10
10
10
10
10
10
10
10
10
10
10
10
10
10
10
10
10
10
10
10
10
10
10
10
10
10
10
10
10
10
10
10
10
10
10
10
10
10
10
10
10
10
10
10
10
10
10
10
10
10
10
10
10
10
10
10
10
10
10
10
10
10
10
10
10
10
10
10
10
10
10
10
10
10
10
10
10
10
10
10
10
10
10
10
10
10
10
10
10
10
10
10
10
10
10
10
10
10
10
10
10
10
10
10
10
10
10
10
10
10
10
10
10
10
10
10
10
10
10
10
10
10
10
10
10
10
10
10
10
10
10
10
10
10
10
10
10
10
10
10
10
10
10
10
10
10
10
10
10
10
10
10
10
10
10
10
10
10
10
10
10
10
10
10
10
10
10
10
10
10
10
10
10
10
10
10
10
10
10
10
10
10
10
10
10
10
10
10
10
10
10
10
10
10
10
10
10
10
10
10
10
10
10
10
10
10
10
10
10
10
10
10
10
10
10
10
10
10
10
10
10
10
10
10
10
10
10
10
10
10
10
10
10
10
10
10
10
10
10
10
10
10
10
10
10
10
10
10
10
10
10
10
10
10
10
10
10
10
10
10
10
10
10
10
10
10
10
10
10
10
10
10
10
10
10
10
10
10
10
10
10
10
10
10
10
10
10
10
10
10
10
10
10
10
10
10
10
10
10
10
10
10
10
10
10
10
10
10
10
10
10
10
10
10
10
10
10
10
10
10
10
10
10
10
10
10
10
10
10
10
10
10
10
10
10
10
10
10
10
10
10
10
10
10
10
10
10
10
10
10
10
10
10
10
10
10
10
10
10
10
10
10
10
10
10
10
10
10
10
10
10
10
10
10
10
10
10
10
10
10
10
10
10
10
10
10
10
10
10
10
10
10
10
10
10
10
10
10
10
10
10
10
10
10
10
10
10
10
10
10
10
10
10
10
10
10
10
10
10
10
10
10
10
10
10
10
10
10
10
10
10
10
10
10
10
10
10
10
10
10
10
10
10
10
10
10
10
10
10
10
10
10
10
10
10
10
10
10
10
10
10
10
10
10
10
10
10
10
10
10
10
10
10
10
10
10
10
10
10
10
10
10
10
10
10
10
10
10
10
10
10
10
10
10
10
10
10
10
10
10
10
10
10
10
10
10
10
10
10
10
10
10
10
10
10
10
10
10
10
10
10
10
10
10
10
10
10
10
10
10
10
10
10
10
10
10
10
10
10
10
10
10
10
10
10
10
10
10
10
10
10
10
10
10
10
10
10
10
10
10
10
10
10
10
10
10
10
10
10
10
10
10
10
10
10
10
10
10
10
10
10
10
10
10
10
10
10
10
10
10
10
10
10
10
10
10
10
10
10
10
10
10
10
10
10
10
10
10
10
10
10
10
10
10
10
10
10
10
10
10
10
10
10
10
10
10
10
10
10
10
10
10
10
10
10
10
10
10
10
10
10
10
10
10
10
10
10
10
10
10
10
10
10
10
10
10
10
10
10
10
10
10
10
10
10
10
10
10
10
10
10
10
10
10
10
10
10
10
10
10
10
10
10
10
10
10
10
10
10
10
10
10
10
10
10
10
10
10
10
10
10
10
10
10
10
10
10
10
10
10
10
10
10
10
10
10
10
10
10
10
10
10
10
10
10
10
10
10
10
10
10
10
10
10
10
10
10
10
10
10
10
10
10
10
10
10
10
10
10
10
10
10
10
10
10
10
10
10
10
10
10
10
10
10
10
10
10
10
10
10
10
10
10
10
10
10
10
10
10
10
10
10
10
10
10
10
10
10
10
10
10
10
10
10
10
10
10
10
10
10
10
10
10
10
10
10
10
10
10
10
10
10
10
10
10
10
10
10
10
10
10
10
10
10
10
10
10
10
10
10
10
10
10
10
10
10
10
10
10
10
10
10
10
10
10
10
10
10
10
10
10
10
10
10
10
10
10
10
10
10
10
10
10
10
10
10
10
10
10
10
10
10
10
10
10
10
10
10
10
10
10
10
10
10
10
10
10
10
10
10
10
10
10
10
10
10
10
10
10
10
10
10
10
10
10
10
10
10
10
10
10
10
10
10
10
10
10
10
10
10
10
10
10
10
10
10
10
10
10
10
10
10
10
10
10
10
10
10
10
10
10
10
10
10
10
10
10
10
10
10
10
10
10
10
10
10
10
10
10
10
10
10
10
10
10
10
10
10
10
10
10
10
10
10
10
10
10
10
10
10
10
10
10
10
10
10
10
10
10
10
10
10
10
10
10
10
10
10
10
10
10
10
10
10
10
10
10
10
10
10
10
10
10
10
10
10
10
10
10
10
10
10
10
10
10
10
10
10
10
10
10
10
10
10
10
10
10
10
10
10
10
10
10
10
10
10
10
10
10
10
10
10
10
10
10
10
10
10
10
10
10
10
10
10
10
10
10
10
10
10
10
10
10
10
10
10
10
10
10
10
10
10
10
10
10
10
10
10
10
10
10
10
10
10
10
10
10
10
10
10
10
10
10
10
10
10
10
10
10
10
10
10
10
10
10
10
10
10
10
10
10
10
10
10
10
10
10
10
10
10
10
10
10
10
10
10
10
10
10
10
10
10
10
10
10
10
10
10
10
10
10
10
10
10
10
10
10
10
10
10
10
10
10
10
10
10
10
10
10
10
10
10
10
10
10
10
10
10
10
10
10
10
10
10
10
10
10
10
10
10
10
10
10
10
10
10
10
10
10
10
10
10
10
10
10
10
10
10
10
10
10
10
10
10
10
10
10
10
10
10
10
10
10
10
10
10
10
10
10
10
10
10
10
10
10
10
10
10
10
10
10
10
10
10
10
10
10
10
10
10
10
10
10
10
10
10
10
10
10
10
10
10
10
10
10
10
10
10
10
10
10
10
10
10
10
10
10
10
10
10
10
10
10
10
10
10
10
10
10
10
10
10
10
10
10
10
10
10
10
10
10
10
10
10
10
10
10
10
10
10
10
10
10
10
10
10
10
10
10
10
10
10
10
10
10
10
10
10
10
10
10
10
10
10
10
10
10
10
10
10
10
10
10
10
10
10
10
10
10
10
10
10
10
10
10
10
10
10
10
10
10
10
10
10
10
10
10
10
10
10
10
10
10
10
10
10
10
10
10
10
10
10
10
10
10
10
10
10
10
10
10
10
10
10
10
10
10
10
10
10
10
10
10
10
10
10
10
10
10
10
10
10
10
10
10
10
10
10
10
10
10
10
10
10
10
10
10
10
10
10
10
10
10
10
10
10
10
10
10
10
10
10
10
10
10
10
10
10
10
10
10
10
10
10
10
10
10
10
10
10
10
10
10
10
10
10
10
10
10
10
10
10
10
10
10
10
10
10
10
10
10
10
10
10
10
10
10
10
10
10
10
10
10
10
10
10
10
10
10
10
10
10
10
10
10
10
10
10
10
10
10
10
10
10
10
10
10
10
10
10
10
10
10
10
10
10
10
10
10
10
10
10
10
10
10
10
10
10
10
10
10
10
10
10
10
10
10
10
10
10
10
10
10
10
10
10
10
10
10
10
10
10
10
10
10
10
10
10
10
10
10
10
10
10
10
10
10
10
10
10
10
10
10
10
10
10
10
10
10
10
10
10
10
10
10
10
10
10
10
10
10
10
10
10
10
10
10
10
10
10
10
10
10
10
10
10
10
10
10
10
10
10
10
10
10
10
10
10
10
10
10
10
10
10
10
10
10
10
10
10
10
10
10
10
10
10
10
10
10
10
10
10
10
10
10
10
10
10
10
10
10
10
10
10
10
10
10
10
10
10
10
10
10
10
10
10
10
10
10
10
10
10
10
10
10
10
10
10
10
10
10
10
10
10
10
10
10
10
10
10
10
10
10
10
10
10
10
10
10
10
10
10
10
10
10
10
10
10
10
10
10
10
10
10
10
10
10
10
10
10
10
10
10
