# vtk DataFile Version 2.0
whisker_body, Created by Gmsh 4.13.1 
ASCII
DATASET UNSTRUCTURED_GRID
POINTS 599 double
10 0 0
7.638948795261445 0 30
12 0 0
4.916846385784335 0 90
9.70486859940768 0 3.75
9.40973719881536 0 7.5
9.114605798223042 0 11.25
8.819474397630723 0 15
8.524342997038403 0 18.75
8.229211596446085 0 22.5
7.934080195853765 0 26.25
9.238795325112871 3.826834323650888 0
7.071067811865488 7.071067811865462 0
3.826834323650923 9.238795325112857 0
3.391901413832837e-14 10 0
-3.826834323650852 9.238795325112886 0
-7.071067811865434 7.071067811865516 0
-9.238795325112843 3.826834323650956 0
-10 7.227892037515737e-14 0
-9.238795325112898 -3.826834323650822 0
-7.07106781186552 -7.07106781186543 0
-3.826834323650945 -9.238795325112848 0
-4.624589118372729e-14 -10 0
3.826834323650859 -9.238795325112884 0
7.071067811865461 -7.071067811865489 0
9.238795325112864 -3.826834323650904 0
6.615523714904949 3.819474397630715 30
3.819474397630735 6.615523714904937 30
2.760674858613032e-14 7.638948795261445 30
-3.819474397630689 6.615523714904963 30
-6.615523714904928 3.819474397630751 30
-7.638948795261445 2.807449929567869e-14 30
-6.615523714904957 -3.8194743976307 30
-3.819474397630743 -6.615523714904932 30
-1.497275106693609e-14 -7.638948795261445 30
3.819474397630712 -6.615523714904951 30
6.615523714904942 -3.819474397630726 30
11.34980690040761 3.896393630456207 0
9.469686112756717 7.370552552276022 0
6.563377897469113 10.04599773915035 0
2.945825845689581 11.63280319127197 0
-0.9909521456679979 11.95901391608004 0
-4.820345095835646 10.98927991986068 0
-8.127378859508902 8.82868692807757 0
-10.55368501447787 5.71136871644487 0
-11.83633564083267 1.975135083368787 0
-11.83633564083267 -1.975135083368821 0
-10.55368501447786 -5.711368716444897 0
-8.12737885950888 -8.828686928077589 0
-4.820345095835619 -10.9892799198607 0
-0.9909521456679715 -11.95901391608004 0
2.945825845689616 -11.63280319127196 0
6.563377897469155 -10.04599773915032 0
9.469686112756747 -7.370552552275983 0
11.34980690040762 -3.896393630456205 0
3.476735421440674 3.476735421440667 90
1.012690292828946e-14 4.916846385784335 90
-3.476735421440661 3.47673542144068 90
-4.916846385784335 1.588676900374471e-14 90
-3.476735421440683 -3.476735421440658 90
-1.400432058674011e-14 -4.916846385784335 90
3.476735421440664 -3.476735421440678 90
11.69203679938193 0 3.91304347826087
11.38407359876386 0 7.826086956521739
11.07611039814578 0 11.73913043478261
10.76814719752771 0 15.65217391304348
10.46018399690964 0 19.56521739130435
10.15222079629157 0 23.47826086956522
9.844257595673493 0 27.39130434782609
9.536294395055421 0 31.30434782608696
9.228331194437349 0 35.21739130434783
8.920367993819276 0 39.1304347826087
8.612404793201204 0 43.04347826086957
8.304441592583132 0 46.95652173913044
7.996478391965059 0 50.8695652173913
7.688515191346986 0 54.78260869565218
7.380551990728914 0 58.69565217391305
7.072588790110841 0 62.60869565217391
6.764625589492769 0 66.52173913043478
6.456662388874697 0 70.43478260869566
6.148699188256625 0 74.34782608695652
5.840735987638553 0 78.26086956521739
5.532772787020479 0 82.17391304347827
5.224809586402407 0 86.08695652173914
-1.899033628551202 9.54708675769071 3.378259073889233
-1.777920851137303 -9.595763929857521 3.061149222171216
-9.547086757690717 -1.899033628551166 3.37825907388924
7.906504469150048 3.556635970010957 16.90396238335735
8.063934958087211 -3.200043805068565 16.8271514290166
-5.589858028041284 5.589858028041335 26.61628380781957
-5.589858028041328 -5.589858028041292 26.61628380781956
8.509587366126503 -3.666349762054631 9.328793986557509
8.692927670525396 3.20720381184405 9.33019953913751
2.046030041811526 7.635888069852809 26.61628380781958
1.976612957027382 -7.65989156203943 26.54565766830471
-8.09362934338923 5.407990230489556 3.378259073889239
5.130906899702787 8.284996872093561 3.238547704065461
5.203552153087279 -8.239857503471587 3.235400305954165
7.429288741667103 -3.191237391925962 24.32365837832422
7.429288741840266 3.191237391488459 24.32365837849658
8.739147818591832 4.132649791360044 4.230765359128144
8.739147818589586 -4.132649791364985 4.230765359127122
-2.088130059406824 -7.627678367540632 26.57712216183152
-4.081920855365015 -7.084012112424401 23.1774155137323
-6.927143605287815 -4.354636491236485 23.09750927769817
-5.774914187700637 -6.158892755017735 19.78555871814997
-7.95144862429071 -2.883366146578735 19.59178725549408
-7.184421093924155 -4.933682182112467 16.32317119057717
-8.639791775590725 -1.291095499358383 16.06410918374879
-4.280786930664271 -7.581090328421014 16.43917905155953
-5.988264487726606 -6.684728841206133 13.0279044950206
-2.597880164663524 -8.590246547861117 13.03044879395579
-0.5405741496331664 -8.692744091138062 16.39689766600734
-8.425631982145363 1.003112548297356 19.24818999278535
-8.370123358620297 2.60936173837453 15.66135567246561
-7.204973385445997 4.551183672248885 18.77944981171535
-6.490679594235981 5.957656092013806 15.11570529354663
-4.349842930245946 7.387581798808192 18.13088760273808
-3.296890811576871 8.227151029737254 14.44499497460977
-0.7042518285416729 8.604916537080092 17.36064679976463
0.4697535834027539 8.914009599889457 13.64165284388509
1.311427155667092 -8.882662898856593 12.97367157924986
-9.008463752073451 0.3480830621162584 12.51324663668735
-5.61604512572754 7.156829787687573 11.4703741531653
-4.485265507644167 -8.07467704725345 9.697690571160873
-7.431964151413719 -5.499498997397795 9.587305529507722
-1.869782609165277 8.12969915261886 21.0675490259717
1.946451078918063 8.18132328361561 20.20692791158548
3.172026769196394 -8.127885186209237 16.20139664787001
1.482639870120627 -8.322300595533195 19.65221541966641
4.644489639000158 -7.706308390158195 12.73552240675407
2.953204973401331 -8.764110315049376 9.551256614909214
-6.577788568540582 -6.852356286677892 6.371769137912819
4.656145077068881 -7.081408028775697 19.37666113571921
-7.531575200698903 3.312377951310832 22.51810601786598
-7.646546557141632 2.046018311571434 26.48550193278082
-7.639628645362651 -2.059460844688092 26.52609042218523
6.394595411297803 -6.710266041898417 9.285384492822581
2.962994057502871 -7.646842586596594 22.86068230516649
-5.14718839988512 6.399996492329638 22.70588380225183
-2.030349669886982 7.716452633182115 25.67802949499465
3.032199876190715 8.155755408407147 16.50303707412947
4.048292435034078 8.031155210815045 12.78520414961501
1.660003794140248 9.064511609745471 9.971090232913493
5.206697026421499 7.688218796042841 9.080025625439092
5.661156126447951 6.301665426749506 19.42641095335319
3.802467649719909 7.254574793604901 22.98929808808
3.761459168743544 8.728115068792361 6.300571814565322
-2.144804440179483 8.900334008604794 10.73528117222375
-4.631467709050437 8.173201071753818 7.69693511514775
-7.716140047506942 5.247310483852929 8.496690267499542
-8.053091680896085 4.140101289920203 12.00757444257592
-9.095799228454503 1.919385355606674 8.943809669140492
5.471291430926239 5.713005381221643 26.55166265317539
-8.284139140877096 -3.490735812775785 12.83885127582142
8.320774783947252 3.336299226927424 13.15449320452595
8.349862844573837 -3.239084823335671 13.26389872965409
7.768741565873293 3.143272644058384 20.57714655017026
7.801102083899361 -3.04673889077417 20.64819973263415
-2.391904556844129 -8.094939937497909 19.80989217036351
5.455445708345578 -5.726784382729184 26.56412265480216
-0.6548860313953027 -8.15938677781687 23.05381116581129
-0.8110484506384201 9.404108560538999 7.127954431477703
-0.744219377836933 -9.201852827723984 9.759649390386544
1.188518744388402 -9.402096711567832 6.646370494070773
6.200540334854098 6.215295807551739 15.51010669206417
-9.019518149263025 -2.112608148505398 9.356481658633134
-8.179976536092017 -0.6341353947144289 22.81374004210835
-5.418613878012688 8.037800226214875 3.892048701553852
-8.646300486944806 -3.942664492700957 6.317586787268461
-9.554625530566724 1.875690321483886 3.341787820088954
6.294795327122953 -6.087749668443871 15.79374339446307
6.843539846930369 5.96594358900699 11.70361847123503
-2.68735798203333 -9.091573503534727 6.601730153595128
1.905410871849153 9.579147324773045 2.962910131112802
-5.345084494598327 -8.166523682402088 3.046600780736503
1.735580915764971 -9.594692756146118 3.171423065942084
-8.027807669660008 -5.55834205547175 2.995302771365483
0.6777577446791636 8.1245902385708 23.47076559192612
4.447739914635194 -8.369755006425899 6.630825580057797
-9.490074802307467 -0.2955956208335795 6.420734023073062
6.124995883791371 -5.515550605795221 22.33264488527615
-8.796700646061018 3.637057443163568 6.112506665857622
7.335262681059716 -6.046387659592025 6.27629951691647
7.348378662869886 -2.763307219271405 27.30859996769054
7.348378662904348 2.76330721914956 27.30859996782561
6.895986713288984 -5.849952526163735 12.15932626532647
7.321337238484727 5.738134560849644 8.868273060362826
7.025334344381967 6.469715083338502 5.711115962772868
6.294636082678852 5.308529908388106 22.43593461282028
7.383681082754374 6.416164763264942 2.770996592012654
7.378875383967456 -6.419032857101764 2.793166321101087
9.101667061665914 -2.653589566254912 6.599532694398199
9.101617952927427 2.653166396708883 6.601636606522057
-6.976799225562891 6.512983784780398 5.789536730066039
6.798048617178683 -5.139578896831861 18.77660062709174
9.534662943869909 -2.330738086630436 2.345526350578714
9.537877310647099 2.332927328906364 2.299245582403252
-1.288766448305251 3.680120182428033 30
1.213263937277993 -4.112820652648563 30
4.168980562290004 1.008937391247338 30
-4.011478963544416 -1.038062904968928 30
5.217499056267836 -1.398024658637112 30
2.42144973899361 -1.398024658637109 30
0.6990123293185633 1.210724869496816 30
2.421449738993628 3.81947439763072 30
-0.5496490206646167 -1.353294147159973 30
-2.384483798642703 -3.819474397630713 30
-2.01313998841787 0.814453148152543 30
-4.231222051344099 2.315251423024565 30
3.819474397630717 -3.819474397630725 30
-5.961406522715208 9.031957496229163 0
-5.96140652271524 -9.03195749622914 0
5.751328656082406 -3.262518266187241 68.45789618475105
8.77343330383488 3.327916774912209 33.24707803636798
7.45050675826989 3.307316944776842 48.89870345001709
9.052329963051344 -3.467270154498389 29.30509308100174
5.401223563635125 3.261625328055958 72.30302131965854
6.458624605888414 3.255496014924757 60.57416966424052
8.100693098951005 -3.361080937280646 41.03727894087915
7.070274854204965 -3.402215790328353 52.77822000341555
9.846289494351998 3.033015453519402 21.5644084853351
-11.09527489538307 3.809012682760124 3.419408766471423
-6.715361414580685 -9.614058385510042 3.466806459243234
10.06404844396924 -3.384190111689332 17.56243424032282
-3.214321444012538 11.28592505830874 3.370532379956011
-4.839645379371624 -1.785796695050788 86.92812652543348
5.03735348109609 -3.26080356130795 76.22900163682489
4.677600194425406 3.245052061619983 80.13796914691706
4.712243512000855 -10.74283313214681 3.41940876647142
6.404000402998572 -3.358152401692298 60.5949698772406
8.111539840237693 3.335203565040566 41.03541898028838
10.39648856856573 3.358132504818411 13.65428339069373
7.945113376504878 8.630693833987415 3.419408766471512
-11.10303057026784 -3.79342119457037 3.390367395104159
10.63403412832481 -3.613959590986652 9.766532099265325
-1.977922590895115 4.775127544263149 86.80166499961184
3.749531232284923 -3.861298389851503 84.08649270213076
10.31700692552853 -5.583284939902463 3.41940876647138
11.20274762464348 2.774275494978379 5.830233488282502
6.068907339767169 -3.318332645026073 64.58740323053345
7.77974593057135 3.330406456502844 44.9465869410723
9.097838897271011 3.34692504626865 29.30120027615035
4.625131639837782 -3.321225337541321 80.12449647206616
2.253310248605161 -5.415584515087911 77.94418485591646
2.71772129965684 -5.53801025161316 74.09090388948187
-0.8349045485511318 -5.987830734772293 75.65582555196372
3.550073886570858 -5.770999334907432 66.38351256603079
-1.313344169888686 -5.591658787360246 79.4922456446196
-4.051297475813936 -4.33709127077844 77.06404489806761
-3.696249258669128 -5.019909527910079 73.26500147993241
-5.794294836889274 -2.013220487707396 74.53360954531594
-5.747819871163787 -2.886681265372519 70.74840675841982
-5.733222436362451 -1.09801333094007 78.30300261349198
-5.803495783570755 1.702093829006252 75.62797901996596
-5.032529955406897 2.788119301070884 79.3723945193863
-3.616013320037435 4.758991971485305 76.53050438602797
-4.683088813066651 4.163380527396402 72.85504374141115
-1.71440100677273 5.450248474215083 79.87722583491789
-3.339094293223563 -5.61797261209514 69.43460460950905
-5.614372912076328 -3.713769070527645 66.9424776468672
-6.636912148597127 -0.14117233142647 68.12541702539372
-6.851670774610638 -1.078782944708643 64.3432415859732
5.667466398767786 6.08603962135642 46.80645145151245
-6.323093713156855 2.641222853393283 65.4044323358922
-6.930604387260248 1.749733632302266 61.64966906670647
-6.953035862164163 -1.99989028266966 60.54590517940047
-7.396032773828081 0.8612667869486228 57.86391535652926
-6.970339745774212 -2.862257430245079 56.73157792807644
-7.742814633735759 -0.08001006127580559 54.08741638122287
-6.900069579520711 -3.713275350431168 52.91149202865549
6.87980374990453 6.622646377330033 31.13775592605256
-7.977724930889719 -1.015632618867671 50.28970422923115
-6.738318669556782 -4.561419084029324 49.08351177887332
-8.113081181666248 -1.939790858569379 46.48241119771706
-6.800659070948787 3.530405980224578 55.11413814293375
-8.056472368476371 1.796110309539285 47.59417694987679
-8.507346865324886 0.8735075186763437 43.81005636731661
-8.162267180189909 -2.839743744068517 42.66553440296035
-8.850508963274869 -0.05845966267559983 40.0156247696049
-8.136775387007388 -3.71144342065971 38.83954541480938
-9.100893596221086 -0.9506213169314266 36.20751424432834
-6.306888388204514 -6.053605942910135 41.39650831069567
-6.00247883841335 -6.765964049157382 37.54964688685134
-8.635763600921203 2.757132355814562 37.28993084853203
-9.177006343078959 1.856324802772596 33.5078780335
-7.21802006987397 4.436918868152312 44.81903275773369
-7.611101442039617 5.318266483805248 34.49625208071195
-8.42442050596096 4.564385201121831 30.73039982446377
-9.611453151722825 0.9877202217044266 29.70619998576349
-9.145114205691213 3.734005346075986 26.96190672764869
-9.960691689037159 0.003574622694877442 25.91186076929243
-9.766901784994575 2.855168918520767 23.18024800085002
-10.21885321675081 -0.9264483969848695 22.09909499490508
-9.345753733682294 -3.702577281875382 24.74569071837439
-9.29642489133928 -4.560100717006786 20.90660941005054
-7.445698836998544 -6.902434840658334 23.46921809732968
-7.173903699546942 -7.607898906649108 19.60800018067869
-4.56053112239082 -9.192701630004558 22.08613052993281
-4.159814326028434 -9.713911068099673 18.20640749999396
-10.28889232011655 1.961784293611375 19.38649810718504
-8.853971570653382 5.446428907399032 20.39322915832774
-7.006969204817774 6.857007032147463 27.904285658793
-9.193935484204522 -5.389736701025981 17.06081895145316
-9.631911221548089 4.641686156028642 16.61965628608045
-7.321405638226738 7.691739124893552 17.54567118036522
-1.095650823863463 -10.32075228510505 20.59997917748922
-1.541856318829434 -9.953774246138295 24.49140742774443
-0.6488613771682018 -10.66552320054859 16.7055786010384
5.281371522908565 6.020814486572483 50.71124743067578
-8.308895631166456 7.077456063230962 13.79152546155489
-5.323280120913652 9.451488624154118 14.64408122430048
-4.060685117654968 9.74246457952715 18.36241921391884
-1.651400986657122 10.66184661077507 15.38746280114586
-4.828035437998467 -5.916166012489696 55.44783870839501
2.044100231799705 -9.989420090222804 22.91673232905124
-0.2622069687399801 10.49616452667732 19.06643349961177
-3.307581330254544 -8.20998195172829 40.00918516860625
-2.886948202233147 -8.688899325153017 36.1370670067535
-3.761168923583685 -10.2015867003525 14.32185958022829
-10.31555434078327 3.79022499601498 12.83536703550366
-0.1996082951129452 -10.99022788091842 12.8073409331373
2.229311952694885 10.50522019800013 16.02053514286515
1.606346959771314 -9.758203145444131 26.81601536799904
0.8497119458999512 10.99382214190821 12.36808825691764
-5.68432335681939 -7.421546819109259 33.69292326983074
2.559411286090349 7.771602307181732 48.50975487674034
3.180459013691219 7.865096986687685 44.67740155126965
-4.965681066845247 5.038310745197159 62.58978775044084
2.941244416444523 -10.40310838786985 15.1089339262518
0.2351990654265938 -8.966967495753931 38.49914544446661
-0.2169875400203778 -8.661447860732924 42.38579698433659
2.114933488788691 7.586451962866545 52.40375930254235
-1.025003647152761 7.992539699405144 50.08789114044457
3.56904919281308 9.824829618591245 19.65638922048361
1.132934653356092 10.14825585918768 22.7275944949203
5.273790359995054 8.701055993426786 23.1946835145981
2.506571935823962 9.602864226855102 26.37031707547204
-6.518340940348926 9.035496722091827 10.91058766872572
4.607334846822787 9.969118370164344 12.93113800856929
0.6711168994628151 -9.252072692433027 34.60685889664007
-3.88292448679299 5.560343748174233 66.30191198372451
-1.871227197231675 6.761897099994232 63.32728286324648
0.0220065128604024 6.73221832329738 66.93305547622435
-1.384379533973344 6.048573482691768 73.63274019164869
-6.675281537075684 6.021962132379878 38.24333607464346
-4.736928541493736 7.906908678536833 35.35819171521737
-3.517191530943558 8.20307939445061 39.06764831291228
-1.108160387090304 9.091715443688313 36.09830812759748
3.359063367678635 -10.59965516131776 11.19197503095676
0.2094383924126234 -11.29780030080743 8.897628931690248
6.20650541755443 -9.014183411300701 13.41480552238804
5.868472996227672 -8.868829748409045 17.34881343309996
3.308919754513426 10.77102126563096 9.303183035166233
6.847055141989905 6.202946314146502 35.08211589533592
-2.479922628719176 9.117221423987965 32.42015673723402
5.006289732697706 -8.679958576453327 25.15561115751894
4.585015009429661 -8.562571217308111 29.06064729234986
-2.999162609925648 6.653693617541195 59.73951607625191
3.736808880437977 -8.29529683617017 36.87194936086276
6.543849214633 -9.148683004464804 9.553451001692675
6.768818616085039 8.959262289991408 9.799400323523869
-7.683048078211475 -6.162987586699054 27.32534248693103
-2.010423238951967 -9.557722008385966 28.37454063902783
4.869395229854732 5.967572885668748 54.60950932038541
0.714827870708048 7.218328970051143 60.30825803602251
1.387480857145249 9.294023577906874 33.07400186444131
-1.364823799674682 9.879570146617315 25.75043100208465
-1.483119335253584 7.609755768509544 53.96405717367092
-2.938971707952532 -6.173395112129454 65.5986106619699
-6.328212781119829 5.179799524688726 48.56551025085827
-3.993267965671766 7.401909001140717 45.61048127023685
-0.2698238734397669 11.30845228468699 8.746050780597628
1.954641802973405 11.38840619598595 5.655143417503355
0.2893952818735452 8.866137283444431 39.75950579317555
7.555389553609124 6.327109171504115 27.25790563377245
6.847768668730841 7.882095656762029 19.80599978573111
-5.541762679645312 -0.1441054360207105 82.03588298000484
7.786678264746992 7.693893025432021 13.38454385797529
9.41039617705137 6.069635350109593 10.18990786220428
8.808940705700948 6.021196707085242 16.89725996300462
3.912059945865616 -5.904920860886151 62.47334619707951
4.335126726537793 -5.985316463869765 58.57110182918325
1.00500669596826 -7.187911873707151 60.25496605966829
1.46036036470099 -7.422746563133512 56.35151921815741
1.662836419074731 7.384738028487261 56.29311914561482
8.843885703634772 -6.681268039486156 11.63968544244336
9.154840268098761 -6.842174391495612 7.252791659212082
6.119202413671917 6.083021033504105 42.84134691314983
1.535109642270966 -5.354756746510245 81.69510085017832
-1.953860722473579 -5.098691288636047 83.09552515477752
5.039819681495067 3.257890743426709 76.22279286887505
2.28470135090424 5.401979773432058 77.9492939984825
1.905266028515946 5.878640105164509 73.95417423653693
3.001538667645421 5.75513309054751 70.00072301458556
4.748878644575878 -6.060269626308475 54.64599072357681
1.899993215536742 -7.640852324925484 52.43167275661357
4.320687198963485 3.217221342405531 84.02721451861876
2.106125754117735 5.143858109894458 81.84916693821681
1.60994041535109 4.932870336411617 86.54269886580029
7.501743445254538 -6.387525387332496 27.28342859985657
7.83938493391722 -6.460976401921312 23.39531782807214
1.649924346184633 -4.876687544765762 87.05991884641979
5.405261754120382 -3.238914735667596 72.4077987685083
5.700147967462671 3.358965616027625 68.40743996018745
10.30705967472988 -3.622405608242179 13.65819516018563
4.152526299083042 -8.437607346450541 32.98431008283771
6.759224819050935 -6.293843660812247 35.12277554122036
1.127372687450512 -9.514693994782411 30.73311982320068
6.106496054417921 3.263923034918866 64.49604227893074
3.679897486301208 5.700174116277776 66.26528711331287
8.54267672679147 -6.567577700053421 15.55933595907401
8.223338998073338 -6.472811219622359 19.50137477523838
7.112188280067173 -6.363813810805655 31.21082407652218
-2.463006165551013 -9.134083771520295 32.26953877191204
2.499160966001641 -10.20240890216185 19.00791559940734
-2.729323744544756 9.893576037964124 22.06889116768674
6.730466368809507 -3.397390515558454 56.67823430549775
6.802354484989245 3.250466119561212 56.68150668943525
8.44338852787504 3.335170595974714 37.12466883329389
7.420333811779025 -3.369978243180093 48.9223125446716
5.166322509590684 -6.119272670183901 50.7165670822467
5.664564398288387 -6.090465883290619 46.79040168533272
2.394526226014976 -7.822617740116146 48.52628254809157
-1.201869629994916 -7.96821783400046 50.08342661352798
8.398293021496595 -3.438152929389943 37.16803173530875
9.441193644968545 3.301159746903018 25.3909421730518
6.025236410727509 8.84224082359164 16.51884005761675
8.734404269146358 -3.436125792574682 33.21416646786427
9.371845135166303 -3.483840013826581 25.43234549632193
-6.580464659834553 -5.284856092903043 45.23512834926929
-7.487250695969646 2.694335383535401 51.36757919289973
-7.984614896866332 3.623563030959327 41.06177296430742
-7.978400613790604 6.191237907871814 24.156695635285
3.358221357100699 -8.123840058910821 40.77945274804836
2.946789033558709 -7.95312916380708 44.70679121092139
-6.293348828406503 0.776567104144398 71.9033957280745
5.456106775895041 -8.769786731533596 21.23820702727399
-3.341184171284198 -10.66348781904839 10.48667862142431
-6.537511946683297 -8.927962978080322 11.87263060896169
-3.174989752957706 -11.04136501155969 6.49553583433955
0.6024344238086012 -11.58743989143843 5.043223595873461
-6.877752827920248 -8.27533666660716 15.75151310674105
-9.034567329526478 -6.205589814354682 13.20798880803198
-8.844572500388789 -6.963728784614188 9.440748326599332
-10.56264700976524 -3.608020013174314 10.64946368603702
-0.01215916883969014 9.681479059690673 29.45950473480545
-0.8749338620648566 8.323968805617344 46.125750262742
-5.033141868592157 8.677502832410568 25.01179655777312
-3.794603474160219 8.968933036127339 28.73352084608906
-5.565123574408382 3.470340980517097 69.14086666959113
-4.538070651654097 -6.515386970763651 51.58658903161427
-10.72340020904888 1.043898816316215 15.57665079743321
-10.40908479054571 -1.804499552438815 18.24179880632815
-0.733888794820616 -8.328761670017922 46.23746665084052
-9.26598547848427 -1.860945215104897 32.38797942567883
-8.060609962475661 -4.533229788331619 34.96877980497996
-2.916264091447054 10.6872143673562 11.71565802019801
-5.473677597257538 6.758260332233966 41.9704788183403
-3.014295691984033 5.754219237274372 69.93592736064353
-4.960596349103177 6.161694804615323 51.96363955897985
-2.190128292525683 8.352461506366836 42.75854927479924
2.908701227969379 8.651453751095628 36.50070398648546
-5.180286857848589 -5.19142982765452 59.28822581883404
-0.2650462319878416 -6.344775080308733 71.78613461459763
6.352130191077047 -6.272812409100017 39.04160934918227
3.782271349247635 -10.78708520247764 7.23037364427269
3.780473688778486 8.866632814697072 30.00011540676755
3.174488351863717 -5.640873600558055 70.23003767861653
-5.945796449482661 7.414785078390921 31.71099903142023
6.301637597742067 6.346860353770315 38.83148517564043
6.011299840878484 -6.180103110313817 42.92854791667062
5.59522368141371 10.05450908582003 6.270435428017657
-5.323666182078565 -8.047226451299109 29.87487220574482
-7.884810575439118 -5.382113650119037 31.17352675029438
-9.336732588358059 -2.812037258870294 28.57617107379221
-5.971399679073397 4.302400486734657 58.95794314398658
-4.372019068600009 -3.57122746758982 80.7454648974323
-11.07172528789361 0.08791398587617334 11.79041368616234
-10.89659834702983 2.919134460063229 9.1378784341696
-9.156469504403093 6.45747313551243 10.10831158594543
-7.893015578447773 8.272081146426705 7.196898572529211
-10.50943419742859 -2.746912886298496 14.4534065513364
-4.231121585184012 10.58929431656061 7.581629071077532
-4.958839339463347 -8.634282349074187 25.95936949002287
7.118579986923725 3.295811263023795 52.80033197043024
4.106774528157629 5.787296716107326 62.30658659791344
-5.403989051571502 -4.499762343067054 63.1226771275302
-6.22678828849764 8.235627825321153 21.28730291124878
7.742074844424313 -3.39079429278963 45.08093427185425
-3.753266849568639 -7.679054253310197 43.87179162364546
-4.193995441843336 -7.102694356578426 47.6672403116334
9.707834193799421 -3.448979592611783 21.57124998111466
-6.214951321934 -9.516655295326469 8.052161026671637
-11.31537724033753 -1.000144085035114 8.138430378224909
4.357615711115295 5.968468714328154 58.57617683576657
7.78870685888679 6.516115734713829 23.4431392999954
-4.740541449263215 2.043938581824164 86.87989086518061
-4.06259539768217 3.594617729955063 83.54876179366674
0.08666458464047465 -6.649159878904092 67.98169406400606
7.983739988406651 -8.602990854984787 3.344770207887588
-9.473438909582596 -6.918938755324326 3.417212361117256
-11.73699778457161 0.02749104959222587 3.341350912823137
-6.416616474375022 9.821362658307825 3.409428593027147
-9.24506610509323 7.182379419428336 3.720762272459959
0.5461084021645527 -6.929652642842896 64.15187366962456
-2.497923658025684 -6.684642030003239 61.80158594813183
-1.971994668838013 -4.760816274436128 86.99848928032985
-4.287897139801764 6.253353416079641 56.13285627918917
-2.085972997038461 -7.140981347217122 57.94772467423079
-1.640090237795164 -7.57803258084157 53.95713477685771
-10.48777802716484 -4.584413196737535 7.039561403835725
8.268584951456406 7.93746445392021 6.838490576308564
11.06464513984306 -3.199763105019005 6.124097242999212
10.10267250685396 5.977212415449143 3.323388145676667
3.524197352238066 8.064033367937084 40.6536457938415
-2.887539075885403 -11.40263394254365 3.016893744587233
4.429864367798386 10.90117636151003 2.962135536119852
10.85107631115423 2.902041073257676 9.752779514148312
-10.0823082405852 5.453783588360494 6.825268249717762
4.306341261289861 8.335675419271473 33.26068919277913
10.17983830522417 3.00909750682238 17.59477147795525
-0.7369445365781552 5.351033112571589 83.84137399982812
6.651830791902565 -9.381339293569447 6.349577916469189
-4.352316181007913 -3.172831440088063 84.03822536285237
1.037519539286445 11.74181040635762 2.699312785191247
-11.4164570335549 1.572345015019566 6.045295553618368
1.327286534908556 6.8383343519568 63.96362722171089
-0.7876148426830242 5.9077981270195 76.74460695062356
-8.709368893277789 -7.496809037351698 6.460729162779683
-4.021018848085705 7.099592288853677 48.80178979027576
-1.386214035356467 7.376165624926773 57.11067950771825
5.134462858127221 8.497589762334355 26.32306059243652
-0.008480178490245608 6.443042450567876 70.60776942377765
4.274572284405392 2.866604329905416 87.07836182472789
4.111610429763454 -3.087479082249852 87.14198965197744
11.42395651398019 2.851827827667638 2.864788304020534
11.42505284540273 -2.848531659604395 2.861410277246407
0.814243920343479 8.599691887961496 42.71631150911563
-1.018905890348426 11.50120395358122 5.765455512362056
-5.312269994735659 0.05081533454212984 84.97257860979744
8.795904192469486 5.618874340314238 19.85449599496202
0.9923138320187632 -11.79079756937096 2.128537450766555
0.7532733393722124 -5.305562025717646 84.38483611849047
-11.42776653932258 -1.843389631486222 5.393930362757127
10.0928194427357 5.305459694093763 7.594241389536652
0.5473750369420712 1.321480237890017 90
-0.7398602367303317 -1.78618061777492 90
2.201188615676791 -0.935382126248411 90
-2.217890441286627 0.8950603523447548 90
-0.542623433117444 0.2293391080409606 38.28619553693404
-0.002152323987136384 -0.004225633868562007 46.58042876072984
0.04157705877556372 -0.03906504029963553 54.94705091185526
0.06307113022447502 -0.009856847995700413 63.05092015409974
-0.003812019269605209 -0.001396785745898299 69.92321694754746
3.819474397630724 -0.5751724822283599 35.17152979481428
0.001941256962376681 -0.008384722301275183 76.18716984279145
-0.1179695563405221 -0.2233505899132684 85.07682962330969
1.432976609196828 -3.130179483744634 42.2308716049795
-0.2214378123936103 -4.033692257214257 35.1213492554355
1.501961603990938 3.185879232437874 42.40423593999186
-3.500042155944462 -0.3466914998279824 42.63070106316425
-4.375721101495294 0.5929943261256774 34.86911628765169
-2.661671272538651 -1.781665972651701 50.65124275534989
2.684594475570179 1.521937124981292 50.75623906096931
-0.7297134642866311 4.133770626146565 35.03381107166617
4.180825716217375 0.06400992376819292 39.92046392764234
-2.714789227074744 -0.06481682266987687 59.00647026056731
2.599459597085844 0.7768387248982536 58.9893416425132
-1.863649701781476 2.929015257863843 49.9372276812126
1.794865864177919 -2.985498515113023 49.74493103140929
-2.981376654221689 -3.631591417312845 39.20972426676069
4.209975466653891 -0.2053886230292964 44.57996250769124
-0.5426234331174447 0.2293391080409704 33.69968560698173
-0.4250830263063436 -1.220162754142178 80.60034483417594
-2.30573444496559 -3.694471640403664 45.40187340209694
-2.39180439576454 3.934686525244179 40.17196055486644
2.958713985955729 -3.702109525336312 38.0891260017905
0.7647028833472829 -3.27989938266355 58.00647741657905
3.248546145294024 3.483578154721452 37.09991531963954
3.541507574167098 -4.322536290108046 33.91899363126952
-2.615426424960129 -0.5678543787309853 66.4620182365601
2.201272185521752 -1.614370555974777 66.51018402089485
-4.276876704245002 -0.06848442429850699 46.8331269079115
-2.304009391962116 3.362607070798596 44.78845323674493
1.923112893785479 3.888499201236462 46.67002269560025
0.8289960770222242 2.473240637563335 66.49179663206981
-0.5559605785051076 3.491344015305501 58.46095613216497
-4.960624181706258 0.9140846353339002 38.96105406722314
1.357898547809376 3.802049549499714 53.98839714092227
-3.548554117367328 -2.124407411634147 54.62466536301488
-4.168743470525891 -3.465247763039845 33.79035955917895
0.3378293283900198 -3.940553503716294 53.52573042608867
-2.419730193411405 0.8202390924313718 73.05833549250791
3.846367688205179 -1.043006336269683 53.75310252869514
0.2191547991284288 -2.542291923423225 73.05216057574886
-2.75224055119362 2.957290356293515 54.03832029787088
1.581890157805107 -4.424988413498751 46.01576804014607
4.804108656500547 2.902634949443061 33.46318138514131

CELLS 3031 13875
1 0
1 1
1 2
1 3
2 0 4
2 4 5
2 5 6
2 6 7
2 7 8
2 8 9
2 9 10
2 10 1
2 0 11
2 11 12
2 12 13
2 13 14
2 14 15
2 15 16
2 16 17
2 17 18
2 18 19
2 19 20
2 20 21
2 21 22
2 22 23
2 23 24
2 24 25
2 25 0
2 1 26
2 26 27
2 27 28
2 28 29
2 29 30
2 30 31
2 31 32
2 32 33
2 33 34
2 34 35
2 35 36
2 36 1
2 2 37
2 37 38
2 38 39
2 39 40
2 40 41
2 41 42
2 42 43
2 43 44
2 44 45
2 45 46
2 46 47
2 47 48
2 48 49
2 49 50
2 50 51
2 51 52
2 52 53
2 53 54
2 54 2
2 3 55
2 55 56
2 56 57
2 57 58
2 58 59
2 59 60
2 60 61
2 61 3
2 2 62
2 62 63
2 63 64
2 64 65
2 65 66
2 66 67
2 67 68
2 68 69
2 69 70
2 70 71
2 71 72
2 72 73
2 73 74
2 74 75
2 75 76
2 76 77
2 77 78
2 78 79
2 79 80
2 80 81
2 81 82
2 82 83
2 83 3
3 4 196 0
3 0 197 4
3 11 197 0
3 0 196 25
3 1 184 10
3 10 185 1
3 1 185 26
3 36 184 1
3 5 192 4
3 4 193 5
3 192 196 4
3 4 197 193
3 6 91 5
3 5 92 6
3 91 192 5
3 5 193 92
3 6 155 7
3 7 156 6
3 6 156 91
3 92 155 6
3 7 87 8
3 8 88 7
3 7 155 87
3 88 156 7
3 8 157 9
3 9 158 8
3 87 157 8
3 8 158 88
3 10 98 9
3 9 99 10
3 98 158 9
3 9 157 99
3 10 184 98
3 99 185 10
3 12 190 11
3 11 190 100
3 100 197 11
3 13 96 12
3 96 190 12
3 14 174 13
3 13 174 96
3 15 84 14
3 84 174 14
3 16 168 15
3 15 168 84
3 17 95 16
3 95 168 16
3 18 170 17
3 17 170 95
3 19 86 18
3 86 170 18
3 20 177 19
3 19 177 86
3 21 175 20
3 175 177 20
3 22 85 21
3 85 175 21
3 23 176 22
3 22 176 85
3 24 97 23
3 97 176 23
3 25 191 24
3 24 191 97
3 101 191 25
3 25 196 101
3 26 153 27
3 26 185 153
3 27 93 28
3 27 153 93
3 28 140 29
3 93 140 28
3 29 89 30
3 29 140 89
3 30 135 31
3 89 135 30
3 31 136 32
3 135 136 31
3 32 90 33
3 32 136 90
3 33 102 34
3 90 102 33
3 34 94 35
3 34 102 94
3 35 160 36
3 94 160 35
3 160 184 36
3 149 162 84
3 84 168 149
3 162 174 84
3 164 173 85
3 85 176 164
3 173 175 85
3 86 177 169
3 169 180 86
3 86 180 170
3 145 157 87
3 87 165 145
3 155 165 87
3 88 171 156
3 158 195 88
3 88 195 171
3 134 135 89
3 89 139 134
3 89 140 139
3 90 103 102
3 90 104 103
3 90 136 104
3 137 183 91
3 91 186 137
3 156 186 91
3 183 192 91
3 92 172 155
3 92 187 172
3 92 193 187
3 93 178 140
3 93 153 146
3 146 178 93
3 102 161 94
3 138 160 94
3 94 161 138
3 95 194 168
3 170 182 95
3 182 194 95
3 96 174 147
3 147 188 96
3 188 190 96
3 97 179 176
3 97 183 179
3 97 191 183
3 98 181 158
3 160 181 98
3 98 184 160
3 153 185 99
3 99 189 153
3 157 189 99
3 100 190 188
3 188 193 100
3 193 197 100
3 183 191 101
3 101 192 183
3 101 196 192
3 103 161 102
3 104 105 103
3 105 159 103
3 159 161 103
3 104 106 105
3 104 167 106
3 136 167 104
3 106 107 105
3 107 109 105
3 109 159 105
3 106 108 107
3 106 113 108
3 106 167 113
3 108 154 107
3 107 110 109
3 107 154 110
3 113 114 108
3 114 122 108
3 122 154 108
3 110 111 109
3 111 112 109
3 112 159 109
3 110 124 111
3 110 125 124
3 110 154 125
3 111 121 112
3 111 163 121
3 124 163 111
3 121 128 112
3 128 129 112
3 129 159 112
3 113 115 114
3 113 134 115
3 113 167 134
3 115 116 114
3 116 151 114
3 114 151 122
3 115 117 116
3 115 139 117
3 134 139 115
3 117 118 116
3 118 123 116
3 123 151 116
3 117 119 118
3 117 126 119
3 117 139 126
3 119 120 118
3 120 148 118
3 118 148 123
3 119 141 120
3 126 127 119
3 127 141 119
3 141 142 120
3 142 143 120
3 143 148 120
3 121 130 128
3 121 131 130
3 121 163 131
3 151 152 122
3 152 166 122
3 122 166 154
3 148 149 123
3 149 150 123
3 150 151 123
3 125 132 124
3 132 173 124
3 124 173 163
3 125 169 132
3 154 166 125
3 166 169 125
3 126 178 127
3 139 140 126
3 140 178 126
3 127 145 141
3 127 146 145
3 127 178 146
3 128 133 129
3 130 171 128
3 128 171 133
3 133 138 129
3 138 161 129
3 129 161 159
3 131 137 130
3 137 186 130
3 130 186 171
3 131 179 137
3 163 164 131
3 164 179 131
3 169 177 132
3 132 175 173
3 132 177 175
3 133 181 138
3 171 195 133
3 133 195 181
3 134 167 135
3 135 167 136
3 179 183 137
3 138 181 160
3 141 165 142
3 145 165 141
3 142 144 143
3 142 172 144
3 165 172 142
3 144 147 143
3 147 162 143
3 143 162 148
3 144 188 147
3 172 187 144
3 187 188 144
3 146 189 145
3 145 189 157
3 153 189 146
3 147 174 162
3 148 162 149
3 149 194 150
3 168 194 149
3 150 152 151
3 150 182 152
3 150 194 182
3 152 180 166
3 152 182 180
3 155 172 165
3 171 186 156
3 181 195 158
3 163 173 164
3 176 179 164
3 166 180 169
3 180 182 170
3 187 193 188
3 26 200 1
3 1 202 36
3 200 202 1
3 27 205 26
3 26 205 200
3 28 205 27
3 29 198 28
3 198 205 28
3 30 209 29
3 29 209 198
3 31 209 30
3 32 201 31
3 201 209 31
3 33 207 32
3 32 207 201
3 34 207 33
3 35 199 34
3 199 207 34
3 36 210 35
3 35 210 199
3 202 210 36
3 204 205 198
3 198 208 204
3 198 209 208
3 203 206 199
3 199 210 203
3 206 207 199
3 200 203 202
3 200 204 203
3 200 205 204
3 201 207 206
3 206 208 201
3 208 209 201
3 203 210 202
3 204 206 203
3 204 208 206
3 2 0 37
3 54 0 2
3 37 0 11
3 25 0 54
3 11 12 38
3 38 37 11
3 39 12 13
3 38 12 39
3 14 40 13
3 40 39 13
3 15 41 14
3 14 41 40
3 16 211 15
3 42 41 15
3 15 211 42
3 17 44 16
3 44 43 16
3 43 211 16
3 18 45 17
3 45 44 17
3 19 46 18
3 46 45 18
3 20 47 19
3 47 46 19
3 21 212 20
3 48 47 20
3 20 212 48
3 22 50 21
3 21 50 49
3 49 212 21
3 23 51 22
3 22 51 50
3 24 52 23
3 23 52 51
3 25 53 24
3 24 53 52
3 25 54 53
3 42 211 43
3 48 212 49
3 37 536 2
3 2 537 54
3 2 536 62
3 62 537 2
3 3 534 55
3 61 535 3
3 83 534 3
3 3 535 83
3 38 514 37
3 514 536 37
3 39 233 38
3 233 514 38
3 40 517 39
3 39 517 233
3 41 525 40
3 40 525 517
3 42 225 41
3 225 525 41
3 43 503 42
3 42 503 225
3 44 504 43
3 43 504 503
3 45 222 44
3 222 504 44
3 46 502 45
3 45 502 222
3 47 234 46
3 234 502 46
3 48 501 47
3 47 501 234
3 49 223 48
3 223 501 48
3 50 516 49
3 49 516 223
3 51 542 50
3 50 542 516
3 52 229 51
3 229 542 51
3 53 500 52
3 52 500 229
3 54 238 53
3 238 500 53
3 54 537 238
3 55 399 56
3 55 534 399
3 56 236 57
3 56 399 236
3 57 497 58
3 236 497 57
3 58 226 59
3 58 497 226
3 59 507 60
3 226 507 59
3 60 402 61
3 60 507 402
3 402 535 61
3 62 239 63
3 63 513 62
3 62 536 239
3 513 537 62
3 64 235 63
3 63 518 64
3 235 513 63
3 239 518 63
3 64 232 65
3 65 405 64
3 64 518 232
3 64 405 235
3 66 224 65
3 65 521 66
3 224 405 65
3 232 521 65
3 66 221 67
3 67 492 66
3 66 521 221
3 66 492 224
3 67 426 68
3 68 429 67
3 221 426 67
3 429 492 67
3 69 216 68
3 68 242 69
3 216 429 68
3 68 426 242
3 69 214 70
3 70 428 69
3 69 242 214
3 69 428 216
3 70 419 71
3 71 425 70
3 214 419 70
3 425 428 70
3 72 219 71
3 71 231 72
3 219 425 71
3 71 419 231
3 72 241 73
3 73 489 72
3 72 489 219
3 231 241 72
3 73 215 74
3 74 420 73
3 73 241 215
3 420 489 73
3 75 220 74
3 74 485 75
3 215 485 74
3 220 420 74
3 76 417 75
3 75 418 76
3 75 417 220
3 75 485 418
3 76 218 77
3 77 230 76
3 76 418 218
3 230 417 76
3 78 240 77
3 77 409 78
3 218 409 77
3 77 240 230
3 79 213 78
3 78 404 79
3 213 240 78
3 78 409 404
3 79 217 80
3 80 403 79
3 79 403 213
3 79 404 217
3 81 227 80
3 80 391 81
3 217 391 80
3 227 403 80
3 81 228 82
3 82 243 81
3 81 243 227
3 81 391 228
3 83 237 82
3 82 397 83
3 228 397 82
3 237 243 82
3 83 535 237
3 397 534 83
3 213 247 240
3 213 468 247
3 403 468 213
3 242 271 214
3 271 354 214
3 354 419 214
3 241 263 215
3 263 309 215
3 309 485 215
3 216 413 400
3 400 429 216
3 216 428 413
3 217 393 391
3 217 394 393
3 217 404 394
3 218 486 409
3 418 495 218
3 218 495 486
3 219 465 425
3 219 471 465
3 219 489 471
3 220 417 395
3 395 421 220
3 220 421 420
3 221 496 426
3 221 541 496
3 521 541 221
3 502 526 222
3 222 519 504
3 222 526 519
3 440 493 223
3 223 516 440
3 493 529 223
3 223 529 501
3 224 411 405
3 224 412 411
3 224 492 412
3 225 503 483
3 483 539 225
3 225 539 525
3 497 540 226
3 226 524 507
3 226 540 524
3 243 244 227
3 244 245 227
3 245 403 227
3 391 392 228
3 392 398 228
3 228 398 397
3 229 466 441
3 441 542 229
3 229 523 466
3 500 523 229
3 240 381 230
3 381 382 230
3 382 417 230
3 231 388 241
3 231 470 388
3 419 470 231
3 232 379 378
3 378 380 232
3 232 518 379
3 380 521 232
3 472 512 233
3 233 517 472
3 512 514 233
3 501 511 234
3 234 544 502
3 511 544 234
3 386 387 235
3 235 405 386
3 387 513 235
3 399 522 236
3 236 498 497
3 236 522 498
3 237 389 243
3 237 543 389
3 237 535 402
3 402 543 237
3 387 500 238
3 238 513 387
3 238 537 513
3 239 536 514
3 514 545 239
3 239 545 518
3 247 381 240
3 241 388 263
3 242 375 271
3 242 426 375
3 243 389 244
3 244 246 245
3 244 248 246
3 244 389 248
3 246 464 245
3 245 468 403
3 464 468 245
3 248 249 246
3 249 250 246
3 250 464 246
3 247 505 381
3 468 499 247
3 499 505 247
3 248 477 249
3 389 390 248
3 390 477 248
3 249 251 250
3 249 253 251
3 249 477 253
3 251 252 250
3 252 259 250
3 259 464 250
3 251 436 252
3 253 254 251
3 254 436 251
3 252 260 259
3 252 261 260
3 252 436 261
3 253 255 254
3 253 377 255
3 253 477 377
3 255 256 254
3 256 257 254
3 257 436 254
3 255 258 256
3 255 498 258
3 377 498 255
3 256 344 257
3 258 528 256
3 256 528 344
3 344 459 257
3 257 450 436
3 257 459 450
3 258 398 392
3 392 528 258
3 258 522 398
3 498 522 258
3 260 369 259
3 369 499 259
3 259 499 464
3 261 262 260
3 262 487 260
3 260 487 369
3 261 264 262
3 261 450 264
3 436 450 261
3 264 265 262
3 265 266 262
3 266 487 262
3 263 326 309
3 263 327 326
3 263 388 327
3 264 328 265
3 264 341 328
3 264 450 341
3 265 267 266
3 265 476 267
3 328 476 265
3 267 268 266
3 268 463 266
3 463 487 266
3 267 269 268
3 267 275 269
3 267 476 275
3 269 270 268
3 270 314 268
3 314 463 268
3 269 272 270
3 269 431 272
3 275 431 269
3 272 273 270
3 273 451 270
3 270 451 314
3 271 520 354
3 375 467 271
3 467 520 271
3 272 274 273
3 272 276 274
3 272 431 276
3 274 430 273
3 430 491 273
3 273 491 451
3 276 277 274
3 277 278 274
3 278 430 274
3 275 460 431
3 275 508 460
3 476 508 275
3 276 286 277
3 276 370 286
3 276 431 370
3 277 279 278
3 277 432 279
3 286 432 277
3 279 280 278
3 280 282 278
3 282 430 278
3 279 281 280
3 279 284 281
3 279 432 284
3 281 456 280
3 280 283 282
3 280 456 283
3 284 285 281
3 285 455 281
3 455 456 281
3 283 317 282
3 317 490 282
3 282 490 430
3 283 318 317
3 283 325 318
3 283 456 325
3 284 287 285
3 284 345 287
3 284 432 345
3 287 288 285
3 288 289 285
3 289 455 285
3 370 371 286
3 371 458 286
3 286 458 432
3 287 469 288
3 345 346 287
3 346 469 287
3 288 290 289
3 288 302 290
3 288 469 302
3 290 291 289
3 291 475 289
3 289 475 455
3 290 292 291
3 290 433 292
3 302 433 290
3 292 293 291
3 293 294 291
3 294 475 291
3 292 300 293
3 292 301 300
3 292 433 301
3 293 295 294
3 293 453 295
3 300 453 293
3 295 296 294
3 296 362 294
3 362 475 294
3 295 297 296
3 295 303 297
3 295 453 303
3 297 298 296
3 298 484 296
3 296 484 362
3 297 299 298
3 297 442 299
3 303 442 297
3 299 306 298
3 306 307 298
3 307 484 298
3 299 308 306
3 299 319 308
3 299 442 319
3 301 304 300
3 304 452 300
3 452 453 300
3 301 305 304
3 301 488 305
3 433 488 301
3 302 448 433
3 302 449 448
3 302 469 449
3 303 443 442
3 303 482 443
3 453 482 303
3 305 310 304
3 310 320 304
3 320 452 304
3 305 311 310
3 305 312 311
3 305 488 312
3 306 315 307
3 308 415 306
3 306 415 315
3 315 323 307
3 323 363 307
3 363 484 307
3 319 321 308
3 321 329 308
3 329 415 308
3 326 332 309
3 332 364 309
3 364 485 309
3 311 338 310
3 310 480 320
3 338 480 310
3 312 313 311
3 313 457 311
3 311 457 338
3 312 316 313
3 312 416 316
3 312 488 416
3 316 322 313
3 322 324 313
3 324 457 313
3 451 510 314
3 314 509 463
3 314 510 509
3 315 356 323
3 315 437 356
3 415 437 315
3 316 334 322
3 316 335 334
3 316 416 335
3 318 330 317
3 330 331 317
3 331 490 317
3 325 414 318
3 318 340 330
3 318 414 340
3 319 438 321
3 319 439 438
3 319 442 439
3 320 478 452
3 320 479 478
3 320 480 479
3 321 349 329
3 321 350 349
3 321 438 350
3 322 339 324
3 334 427 322
3 322 427 339
3 356 357 323
3 357 408 323
3 323 408 363
3 339 353 324
3 353 372 324
3 372 457 324
3 325 473 414
3 456 474 325
3 325 474 473
3 327 447 326
3 326 333 332
3 326 447 333
3 388 515 327
3 327 538 447
3 515 538 327
3 341 342 328
3 342 358 328
3 358 476 328
3 349 351 329
3 351 352 329
3 352 415 329
3 330 434 331
3 340 359 330
3 359 434 330
3 434 435 331
3 435 454 331
3 454 490 331
3 333 368 332
3 332 385 364
3 368 385 332
3 333 460 368
3 447 530 333
3 333 530 460
3 335 336 334
3 336 376 334
3 376 427 334
3 335 337 336
3 335 367 337
3 335 416 367
3 337 532 336
3 336 496 376
3 336 532 496
3 367 446 337
3 446 467 337
3 467 532 337
3 457 483 338
3 338 481 480
3 338 483 481
3 339 361 353
3 339 378 361
3 339 427 378
3 340 406 359
3 340 408 406
3 340 414 408
3 341 343 342
3 341 459 343
3 450 459 341
3 343 527 342
3 342 365 358
3 342 527 365
3 394 410 343
3 343 533 394
3 410 527 343
3 459 533 343
3 344 528 393
3 393 533 344
3 344 533 459
3 345 347 346
3 345 458 347
3 432 458 345
3 347 348 346
3 348 355 346
3 355 469 346
3 347 374 348
3 347 461 374
3 458 461 347
3 348 366 355
3 348 462 366
3 374 462 348
3 350 466 349
3 349 360 351
3 349 466 360
3 438 440 350
3 440 441 350
3 441 466 350
3 351 411 352
3 360 386 351
3 386 411 351
3 411 412 352
3 412 437 352
3 352 437 415
3 361 472 353
3 353 373 372
3 353 472 373
3 354 470 419
3 462 470 354
3 354 520 462
3 366 446 355
3 446 449 355
3 449 469 355
3 356 400 357
3 356 401 400
3 356 437 401
3 400 413 357
3 406 408 357
3 357 413 406
3 365 531 358
3 358 508 476
3 358 531 508
3 406 407 359
3 407 465 359
3 359 465 434
3 360 387 386
3 360 523 387
3 466 523 360
3 378 379 361
3 379 512 361
3 361 512 472
3 473 474 362
3 362 484 473
3 474 475 362
3 408 414 363
3 414 473 363
3 473 484 363
3 385 495 364
3 418 485 364
3 364 495 418
3 365 495 385
3 385 531 365
3 486 495 365
3 365 527 486
3 366 467 446
3 462 520 366
3 366 520 467
3 416 448 367
3 367 449 446
3 448 449 367
3 368 531 385
3 460 508 368
3 508 531 368
3 487 506 369
3 369 505 499
3 369 506 505
3 370 530 371
3 431 460 370
3 460 530 370
3 447 461 371
3 371 530 447
3 371 461 458
3 373 539 372
3 372 483 457
3 372 539 483
3 472 517 373
3 517 525 373
3 525 539 373
3 461 538 374
3 374 515 462
3 374 538 515
3 426 496 375
3 375 532 467
3 496 532 375
3 380 427 376
3 376 541 380
3 496 541 376
3 477 524 377
3 377 540 498
3 524 540 377
3 378 427 380
3 379 545 512
3 518 545 379
3 380 541 521
3 381 383 382
3 381 505 383
3 383 384 382
3 384 395 382
3 395 417 382
3 383 509 384
3 505 506 383
3 506 509 383
3 384 396 395
3 384 510 396
3 509 510 384
3 405 411 386
3 387 523 500
3 470 515 388
3 389 543 390
3 390 524 477
3 507 524 390
3 390 543 507
3 391 393 392
3 393 528 392
3 394 533 393
3 404 410 394
3 396 421 395
3 396 423 421
3 396 424 423
3 396 510 424
3 398 399 397
3 399 534 397
3 398 522 399
3 401 429 400
3 401 437 412
3 412 492 401
3 401 492 429
3 507 543 402
3 409 410 404
3 406 413 407
3 413 428 407
3 407 428 425
3 425 465 407
3 409 486 410
3 486 527 410
3 416 488 448
3 421 422 420
3 422 489 420
3 421 423 422
3 423 435 422
3 435 471 422
3 471 489 422
3 424 454 423
3 423 454 435
3 451 491 424
3 424 510 451
3 424 491 454
3 490 491 430
3 448 488 433
3 434 471 435
3 465 471 434
3 439 493 438
3 438 493 440
3 442 443 439
3 443 444 439
3 444 493 439
3 440 516 441
3 516 542 441
3 443 445 444
3 443 482 445
3 445 511 444
3 444 529 493
3 511 529 444
3 445 482 478
3 478 494 445
3 494 511 445
3 447 538 461
3 452 482 453
3 478 482 452
3 454 491 490
3 455 474 456
3 455 475 474
3 462 515 470
3 463 506 487
3 463 509 506
3 464 499 468
3 479 494 478
3 480 519 479
3 479 526 494
3 519 526 479
3 481 519 480
3 483 503 481
3 503 504 481
3 504 519 481
3 494 544 511
3 526 544 494
3 498 540 497
3 501 529 511
3 502 544 526
3 512 545 514
3 55 548 3
3 3 548 61
3 56 546 55
3 546 548 55
3 57 549 56
3 56 549 546
3 58 549 57
3 59 549 58
3 60 547 59
3 547 549 59
3 61 548 60
3 60 548 547
3 547 548 546
3 546 549 547
4 506 505 383 553
4 505 381 383 553
4 506 553 383 578
4 487 553 506 567
4 381 553 230 568
4 383 553 381 578
4 553 568 381 578
4 527 486 553 587
4 381 568 230 578
4 527 553 342 587
4 506 487 369 553
4 506 567 553 578
4 80 556 217 595
4 262 553 487 567
4 506 369 505 553
4 240 77 230 553
4 381 240 230 553
4 505 553 369 582
4 217 556 554 595
4 230 553 77 568
4 80 79 403 595
4 554 556 393 593
4 262 553 265 581
4 265 553 262 567
4 328 553 342 586
4 369 553 487 581
4 342 553 328 587
4 328 553 265 567
4 553 581 369 582
4 264 328 341 581
4 428 1 202 555
4 262 487 553 581
4 328 553 567 587
4 328 342 341 586
4 77 553 409 568
4 562 565 345 588
4 392 556 228 574
4 209 469 287 565
4 345 562 287 565
4 209 287 562 565
4 486 409 553 568
4 409 553 77 582
4 565 576 345 588
4 330 571 558 577
4 345 287 346 565
4 266 262 487 567
4 486 568 553 587
4 346 287 469 565
4 81 228 556 574
4 393 554 217 556
4 330 331 558 571
4 558 571 331 575
4 490 331 571 575
4 463 487 506 567
4 240 553 381 582
4 505 381 553 582
4 527 365 486 587
4 428 555 202 580
4 240 77 553 582
4 280 571 562 588
4 563 570 424 575
4 562 571 280 591
4 264 262 265 581
4 342 553 527 586
4 527 553 486 586
4 73 564 215 572
4 259 554 499 581
4 527 342 365 587
4 486 218 409 568
4 486 553 409 586
4 506 463 567 578
4 218 77 409 568
4 392 258 556 574
4 436 252 261 593
4 499 581 554 582
4 202 555 1 598
4 261 252 581 593
4 553 582 409 586
4 491 563 424 575
4 330 558 434 577
4 215 572 564 585
4 392 228 398 574
4 281 562 280 591
4 330 559 571 577
4 420 570 572 597
4 326 564 332 569
4 374 560 576 579
4 281 280 562 588
4 393 533 554 593
4 374 576 565 579
4 424 575 570 597
4 206 199 203 573
4 369 581 499 582
4 228 397 398 574
4 551 560 558 561
4 558 560 550 561
4 228 82 397 574
4 554 581 450 586
4 330 331 434 558
4 464 468 499 595
4 203 555 573 580
4 520 366 205 565
4 554 581 252 593
4 203 573 559 580
4 468 554 499 595
4 203 210 202 580
4 203 559 199 580
4 231 566 560 579
4 81 556 243 574
4 450 581 554 593
4 469 209 29 565
4 564 569 326 585
4 393 344 533 593
4 404 79 554 582
4 505 369 499 582
4 330 317 331 571
4 203 202 555 580
4 409 77 78 582
4 266 265 262 567
4 205 520 565 598
4 332 569 564 589
4 345 565 346 576
4 490 331 317 571
4 468 499 554 582
4 388 231 241 572
4 397 557 398 574
4 227 244 243 556
4 520 579 565 598
4 388 560 231 572
4 227 243 81 556
4 219 558 471 572
4 428 70 1 555
4 231 560 566 572
4 398 557 522 574
4 219 566 558 572
4 73 74 215 564
4 244 243 556 574
4 71 419 555 566
4 227 556 80 595
4 199 559 203 573
4 213 468 554 582
4 456 281 280 591
4 564 570 551 572
4 259 554 252 595
4 459 554 450 586
4 564 570 74 594
4 341 450 581 586
4 374 515 560 579
4 82 557 397 574
4 522 557 498 574
4 74 570 420 594
4 259 499 369 581
4 469 30 209 287
4 558 566 219 577
4 27 205 520 366
4 269 590 563 596
4 471 558 219 577
4 80 391 217 556
4 393 533 394 554
4 550 562 559 571
4 418 568 589 594
4 251 556 249 595
4 248 244 246 556
4 79 213 554 582
4 282 571 561 575
4 252 554 259 581
4 347 346 565 576
4 347 345 346 576
4 248 246 249 556
4 258 255 556 574
4 269 563 431 596
4 404 582 554 586
4 345 284 287 562
4 282 561 430 575
4 463 567 578 590
4 284 562 345 588
4 392 398 258 574
4 561 576 432 584
4 330 559 318 571
4 1 555 70 598
4 282 278 430 561
4 561 571 278 588
4 280 278 571 588
4 71 419 70 555
4 348 347 565 576
4 559 571 562 591
4 241 572 215 585
4 328 567 476 587
4 81 82 228 574
4 348 374 347 576
4 326 309 332 564
4 244 556 248 574
4 463 578 509 590
4 348 565 374 576
4 200 203 202 555
4 248 556 249 574
4 420 422 570 597
4 425 71 555 566
4 258 398 522 574
4 251 593 556 595
4 253 556 255 574
4 258 522 498 574
4 282 490 571 575
4 555 566 419 579
4 528 344 556 593
4 342 328 358 587
4 471 572 558 597
4 80 227 81 556
4 231 388 470 560
4 431 563 272 583
4 431 569 563 583
4 528 556 256 593
4 554 593 252 595
4 341 459 450 586
4 463 266 487 567
4 34 559 340 580
4 404 79 217 554
4 417 230 568 578
4 318 571 559 591
4 391 81 228 556
4 431 269 272 563
4 206 559 199 573
4 231 560 470 579
4 204 573 200 598
4 267 567 590 596
4 489 572 471 597
4 550 560 558 566
4 249 556 253 574
4 417 578 568 594
4 249 251 253 556
4 259 252 250 595
4 393 394 217 554
4 220 420 570 594
4 418 589 485 594
4 393 217 391 556
4 274 430 561 583
4 254 556 251 593
4 425 566 555 577
4 459 554 533 593
4 278 274 430 561
4 491 451 424 563
4 200 555 202 598
4 346 469 29 565
4 227 80 403 595
4 244 556 227 595
4 36 428 202 580
4 254 253 251 556
4 344 393 556 593
4 250 251 249 595
4 34 199 559 580
4 424 454 575 597
4 558 560 551 572
4 220 74 420 594
4 318 559 414 591
4 280 571 283 591
4 283 571 318 591
4 219 471 489 572
4 404 554 394 586
4 559 562 550 573
4 458 432 576 584
4 333 326 332 569
4 256 258 255 556
4 428 425 555 580
4 200 573 555 598
4 430 575 561 583
4 71 70 425 555
4 563 569 431 596
4 556 593 554 595
4 418 568 495 589
4 286 561 432 584
4 424 570 563 592
4 256 528 258 556
4 30 209 287 562
4 255 253 254 556
4 255 254 256 556
4 447 560 538 585
4 328 265 476 567
4 528 256 344 593
4 471 219 465 577
4 414 559 207 591
4 528 344 393 556
4 450 554 459 593
4 432 576 561 588
4 506 509 463 578
4 456 280 283 591
4 331 558 575 597
4 564 572 551 585
4 550 565 562 588
4 425 577 555 580
4 409 582 78 586
4 404 217 394 554
4 463 509 314 590
4 282 278 561 571
4 30 287 285 562
4 538 560 447 584
4 317 330 318 571
4 505 247 381 582
4 404 78 79 582
4 520 462 565 579
4 245 244 227 595
4 550 576 565 588
4 563 564 552 570
4 326 309 564 585
4 198 209 208 573
4 76 418 75 594
4 459 533 554 586
4 81 243 82 574
4 528 392 258 556
4 476 587 567 596
4 561 571 558 575
4 273 563 491 575
4 374 565 462 579
4 414 207 33 591
4 76 568 418 594
4 381 230 382 578
4 417 382 230 578
4 359 559 330 577
4 246 556 244 595
4 328 476 358 587
4 200 202 1 598
4 568 587 495 589
4 267 269 275 590
4 263 241 215 585
4 391 228 392 556
4 280 279 278 588
4 451 424 563 592
4 249 556 246 595
4 395 578 417 594
4 263 388 241 585
4 34 340 406 580
4 491 424 454 575
4 552 564 563 569
4 417 568 76 594
4 250 252 593 595
4 447 569 584 585
4 36 202 210 580
4 461 560 538 584
4 325 318 414 591
4 495 568 486 587
4 462 366 520 565
4 550 561 560 576
4 551 564 563 570
4 558 561 550 571
4 520 205 27 598
4 374 560 538 576
4 550 558 571 577
4 273 563 575 583
4 509 590 578 592
4 560 550 576 579
4 447 584 560 585
4 458 286 432 584
4 198 29 209 565
4 471 434 558 577
4 201 562 31 591
4 538 560 461 576
4 559 573 555 580
4 209 562 208 573
4 489 471 422 597
4 394 554 533 586
4 205 366 28 565
4 344 459 533 593
4 73 215 241 572
4 205 573 204 598
4 563 564 551 569
4 509 314 590 592
4 240 78 77 582
4 560 561 551 584
4 255 258 498 574
4 277 432 286 561
4 346 29 355 565
4 455 31 562 591
4 364 485 418 589
4 209 565 562 573
4 404 409 78 586
4 80 81 391 556
4 70 555 419 598
4 207 414 34 559
4 414 340 34 559
4 267 590 275 596
4 552 589 568 594
4 277 561 286 583
4 269 270 272 563
4 485 589 564 594
4 555 550 559 577
4 330 359 340 559
4 425 219 566 577
4 256 556 254 593
4 1 69 70 428
4 555 559 550 573
4 318 340 414 559
4 404 78 582 586
4 462 374 348 565
4 395 421 592 594
4 570 592 421 594
4 573 579 555 598
4 206 559 573 591
4 565 576 550 579
4 215 564 309 585
4 551 561 558 575
4 550 571 559 577
4 417 230 76 568
4 551 570 563 575
4 275 590 269 596
4 359 340 559 580
4 205 565 204 573
4 331 575 454 597
4 486 409 410 586
4 447 569 530 584
4 364 418 495 589
4 419 555 579 598
4 562 571 550 588
4 455 562 281 591
4 461 576 560 584
4 562 573 559 591
4 270 563 269 590
4 332 564 309 589
4 558 566 560 572
4 555 573 550 579
4 428 425 70 555
4 205 565 573 598
4 395 592 578 594
4 231 566 72 572
4 551 572 570 597
4 348 347 346 565
4 282 280 278 571
4 471 465 434 577
4 395 382 417 578
4 538 560 327 585
4 461 538 447 584
4 450 264 341 581
4 278 277 274 561
4 528 393 392 556
4 498 557 377 574
4 260 252 259 581
4 463 268 567 590
4 286 583 561 584
4 279 561 278 588
4 326 569 333 585
4 431 276 370 583
4 273 575 430 583
4 198 565 209 573
4 255 498 377 574
4 563 570 552 592
4 431 370 569 583
4 277 274 561 583
4 505 499 247 582
4 491 273 451 563
4 515 470 388 560
4 509 510 314 592
4 69 1 70 598
4 424 570 423 597
4 359 559 577 580
4 527 486 410 586
4 470 560 515 579
4 249 253 477 574
4 219 72 566 572
4 199 34 35 580
4 425 407 577 580
4 495 486 365 587
4 259 369 260 581
4 565 579 573 598
4 237 557 82 574
4 231 419 566 579
4 231 72 241 572
4 282 490 317 571
4 250 593 251 595
4 318 330 340 559
4 30 285 209 562
4 205 27 28 366
4 277 432 561 588
4 260 369 487 581
4 456 455 281 591
4 421 220 420 570
4 263 215 309 585
4 273 430 274 583
4 447 333 569 585
4 374 515 538 560
4 34 406 35 580
4 508 587 476 596
4 209 285 31 562
4 333 569 332 589
4 447 538 327 585
4 374 538 461 576
4 428 407 425 580
4 567 568 553 578
4 569 583 370 584
4 552 570 564 594
4 398 397 522 557
4 277 561 279 588
4 355 366 348 565
4 250 252 251 593
4 455 31 285 562
4 309 564 485 589
4 431 272 276 583
4 555 566 550 577
4 250 249 246 595
4 420 73 489 572
4 547 402 507 557
4 550 560 566 579
4 198 28 355 565
4 331 435 558 597
4 331 490 454 575
4 277 278 279 561
4 29 198 355 565
4 417 76 75 594
4 331 435 434 558
4 199 207 34 559
4 282 430 490 575
4 377 557 524 574
4 364 309 485 589
4 245 246 244 595
4 203 199 210 580
4 75 418 485 594
4 469 30 29 209
4 563 590 451 592
4 206 573 201 591
4 385 495 587 589
4 208 562 201 573
4 425 219 71 566
4 226 547 507 557
4 393 391 392 556
4 414 33 325 591
4 455 285 281 562
4 272 563 273 583
4 206 207 559 591
4 564 569 552 589
4 204 565 198 573
4 558 550 566 577
4 28 366 355 565
4 414 34 33 207
4 220 570 421 594
4 395 220 421 594
4 548 402 547 557
4 230 77 76 568
4 247 240 381 582
4 550 573 565 579
4 552 569 563 596
4 560 576 561 584
4 31 32 201 591
4 570 575 551 597
4 555 550 566 579
4 425 465 219 577
4 257 450 459 593
4 435 471 434 558
4 534 548 546 557
4 377 253 255 574
4 552 592 570 594
4 268 267 567 590
4 522 397 399 557
4 396 570 424 592
4 546 236 399 557
4 374 462 515 579
4 530 447 333 569
4 236 546 549 557
4 237 82 243 574
4 451 510 424 592
4 209 30 31 285
4 543 557 237 574
4 69 70 214 598
4 207 199 206 559
4 31 455 32 591
4 327 560 388 585
4 390 557 543 574
4 198 204 205 565
4 495 218 486 568
4 569 589 368 596
4 359 330 434 577
4 284 285 287 562
4 424 423 454 597
4 355 348 346 565
4 344 257 459 593
4 471 558 435 597
4 227 403 245 595
4 248 249 477 574
4 389 543 237 574
4 219 489 72 572
4 277 279 432 588
4 333 368 569 589
4 318 325 283 591
4 421 420 422 570
4 71 231 419 566
4 524 377 540 557
4 506 383 509 578
4 468 247 499 582
4 383 381 382 578
4 568 578 552 594
4 286 370 583 584
4 266 463 268 567
4 206 208 201 573
4 553 568 567 587
4 79 78 213 582
4 384 578 395 592
4 395 421 396 592
4 69 214 1 598
4 485 564 74 594
4 540 377 498 557
4 546 399 534 557
4 355 469 29 346
4 464 259 250 595
4 423 424 396 570
4 342 358 365 587
4 509 578 384 592
4 549 547 226 557
4 531 589 587 596
4 551 575 563 583
4 354 579 520 598
4 283 317 318 571
4 262 260 487 581
4 421 570 396 592
4 286 370 276 583
4 236 549 497 557
4 552 589 569 596
4 359 406 340 580
4 552 590 567 596
4 524 557 390 574
4 552 587 568 589
4 205 28 198 565
4 201 573 562 591
4 215 74 485 564
4 281 279 280 588
4 209 31 201 562
4 551 558 572 597
4 389 237 243 574
4 327 388 263 585
4 562 565 550 573
4 268 269 267 590
4 509 384 510 592
4 345 576 432 588
4 281 562 284 588
4 462 348 366 565
4 530 569 370 584
4 333 332 368 589
4 459 343 533 586
4 244 389 243 574
4 355 29 28 198
4 404 410 409 586
4 341 342 343 586
4 552 563 590 596
4 209 201 208 562
4 395 384 382 578
4 261 252 260 581
4 82 83 397 557
4 273 491 430 575
4 215 485 309 564
4 558 551 575 597
4 461 458 576 584
4 331 454 435 597
4 377 477 253 574
4 450 261 264 581
4 425 407 465 577
4 561 550 571 588
4 272 273 274 583
4 551 569 564 585
4 284 281 285 562
4 551 572 560 585
4 272 270 273 563
4 218 76 77 568
4 343 459 341 586
4 552 578 567 590
4 567 587 552 596
4 463 314 268 590
4 342 527 343 586
4 231 470 419 579
4 423 421 422 570
4 340 408 34 406
4 423 570 422 597
4 277 286 276 583
4 552 568 567 578
4 256 257 344 593
4 359 577 407 580
4 563 569 551 583
4 555 577 559 580
4 371 447 530 584
4 507 543 390 557
4 265 267 476 567
4 550 561 576 588
4 549 226 497 557
4 267 266 268 567
4 534 83 548 557
4 368 589 531 596
4 497 498 236 557
4 451 563 270 590
4 567 568 552 587
4 535 402 548 557
4 206 201 207 591
4 515 388 327 560
4 389 390 543 574
4 71 219 72 566
4 347 374 461 576
4 270 451 273 563
4 257 436 450 593
4 515 327 538 560
4 205 204 200 598
4 168 15 16 211
4 498 522 236 557
4 244 248 389 574
4 495 418 218 568
4 432 345 458 576
4 477 377 524 574
4 507 390 524 557
4 82 237 83 557
4 551 584 569 585
4 385 364 495 589
4 203 204 206 573
4 543 507 402 557
4 75 485 74 594
4 275 508 476 596
4 231 71 72 566
4 460 569 368 596
4 547 546 548 557
4 447 326 333 585
4 275 269 431 596
4 551 583 569 584
4 358 476 508 587
4 547 549 546 557
4 399 397 534 557
4 413 36 210 580
4 385 587 531 589
4 35 413 210 580
4 428 1 36 202
4 561 575 551 583
4 265 266 267 567
4 522 399 236 557
4 497 226 540 557
4 578 592 552 594
4 428 36 413 580
4 436 251 252 593
4 531 587 508 596
4 468 245 403 595
4 503 43 42 211
4 422 471 435 597
4 520 354 462 579
4 534 397 83 557
4 359 465 407 577
4 423 396 421 570
4 497 540 498 557
4 208 204 198 573
4 35 210 199 580
4 428 413 407 580
4 213 247 468 582
4 49 48 223 212
4 560 584 551 585
4 578 590 552 592
4 524 226 507 557
4 27 271 520 598
4 477 524 390 574
4 214 70 419 598
4 326 263 309 585
4 561 583 551 584
4 364 332 309 589
4 76 218 418 568
4 431 569 460 596
4 543 402 237 557
4 548 83 535 557
4 333 368 460 569
4 456 32 455 591
4 30 287 288 285
4 284 345 432 588
4 456 32 474 455
4 33 474 325 591
4 343 394 533 586
4 212 21 20 175
4 283 280 282 571
4 359 434 465 577
4 371 530 370 584
4 256 254 257 593
4 404 394 410 586
4 461 371 458 584
4 474 32 456 591
4 281 284 279 588
4 365 385 495 587
4 510 396 424 592
4 587 589 552 596
4 277 276 274 583
4 237 402 535 557
4 262 264 261 581
4 314 451 270 590
4 563 552 590 592
4 581 582 553 586
4 564 589 552 594
4 524 540 226 557
4 241 72 73 572
4 370 460 431 569
4 32 474 33 591
4 286 371 370 584
4 325 456 283 591
4 554 582 581 586
4 276 272 274 583
4 458 345 347 576
4 237 535 83 557
4 447 371 461 584
4 368 385 531 589
4 417 220 395 594
4 368 531 508 596
4 458 347 461 576
4 390 248 477 574
4 283 282 317 571
4 408 35 34 406
4 490 491 454 575
4 26 200 1 598
4 73 72 489 572
4 390 389 248 574
4 214 26 1 598
4 396 384 395 592
4 59 507 226 547
4 458 371 286 584
4 462 470 515 579
4 240 213 78 582
4 262 261 260 581
4 358 508 531 587
4 359 407 406 580
4 406 407 413 580
4 35 406 413 580
4 399 522 398 397
4 468 464 245 595
4 509 383 384 578
4 546 236 56 399
4 419 579 354 598
4 447 327 326 585
4 75 74 220 594
4 430 491 490 575
4 383 382 384 578
4 354 520 271 598
4 474 456 325 591
4 343 410 394 586
4 240 247 213 582
4 365 531 385 587
4 60 507 547 402
4 250 246 464 595
4 254 251 436 593
4 279 284 432 588
4 549 236 56 546
4 57 236 549 497
4 26 271 27 598
4 270 269 268 590
4 527 410 343 586
4 287 469 30 288
4 530 333 460 569
4 417 75 220 594
4 548 60 547 402
4 206 204 208 573
4 396 510 384 592
4 226 549 59 547
4 31 288 289 285
4 275 431 460 596
4 423 435 454 597
4 56 57 236 549
4 385 368 332 589
4 55 534 546 399
4 246 245 464 595
4 288 31 30 285
4 534 548 55 546
4 423 422 435 597
4 470 462 354 579
4 33 207 32 591
4 26 27 205 598
4 257 254 436 593
4 530 460 370 569
4 288 30 31 289
4 470 354 419 579
4 497 549 58 226
4 114 320 304 310
4 83 548 3 534
4 320 114 151 310
4 216 1 36 428
4 270 268 314 590
4 34 414 408 340
4 548 61 60 402
4 216 69 1 428
4 326 327 263 585
4 114 116 151 310
4 385 332 364 589
4 365 358 531 587
4 116 114 304 310
4 549 59 58 226
4 201 32 207 591
4 325 33 473 474
4 419 354 214 598
4 61 548 535 402
4 295 106 105 303
4 105 109 442 107
4 460 368 508 596
4 105 442 297 107
4 373 353 372 143
4 295 105 297 303
4 109 442 297 105
4 214 271 26 598
4 113 300 293 292
4 308 321 319 111
4 308 321 111 112
4 329 128 112 415
4 475 31 291 289
4 111 319 308 112
4 548 55 3 534
4 321 163 121 349
4 445 482 154 478
4 152 320 478 122
4 143 373 353 147
4 154 482 443 107
4 105 106 107 303
4 109 299 319 112
4 224 195 88 411
4 482 443 107 303
4 329 112 308 415
4 308 319 299 112
4 320 479 152 478
4 353 339 142 144
4 478 154 445 122
4 102 484 33 90
4 400 36 35 413
4 105 298 299 159
4 298 299 297 105
4 367 446 140 93
4 210 35 36 413
4 475 31 136 291
4 473 362 32 90
4 339 353 361 144
4 349 321 163 350
4 354 271 214 598
4 32 33 473 90
4 306 112 159 129
4 308 321 121 329
4 94 408 323 357
4 102 473 484 363
4 478 482 154 122
4 297 296 298 105
4 473 484 33 102
4 322 334 316 127
4 166 445 154 122
4 473 33 484 90
4 65 405 224 88
4 297 296 105 295
4 34 35 408 357
4 242 214 1 69
4 214 1 26 242
4 546 56 55 399
4 107 106 108 303
4 152 320 122 151
4 411 224 195 412
4 205 200 26 598
4 110 443 444 439
4 444 443 110 125
4 460 508 275 596
4 112 306 308 129
4 121 112 308 329
4 296 362 104 294
4 405 65 7 88
4 127 119 316 141
4 35 357 400 413
4 322 316 119 141
4 444 110 439 125
4 306 299 298 159
4 110 442 439 319
4 112 321 111 121
4 415 437 129 315
4 154 443 482 445
4 298 296 103 105
4 109 319 110 111
4 118 119 313 312
4 131 121 163 349
4 492 66 224 158
4 308 321 112 121
4 123 118 457 311
4 453 108 106 303
4 329 352 128 415
4 445 166 478 122
4 154 108 482 107
4 33 473 102 363
4 32 362 473 474
4 110 442 319 109
4 173 223 132 175
4 90 136 104 294
4 299 306 308 159
4 10 67 9 99
4 299 319 442 109
4 142 143 353 144
4 316 322 127 141
4 113 293 167 292
4 104 362 90 294
4 376 146 334 145
4 10 9 67 98
4 363 102 34 323
4 443 110 442 439
4 94 34 408 357
4 349 121 321 329
4 315 161 307 323
4 493 223 132 173
4 288 30 289 290
4 323 307 102 94
4 140 446 367 449
4 68 10 67 429
4 443 444 445 125
4 482 453 108 452
4 492 67 9 98
4 107 442 297 303
4 299 442 297 109
4 174 373 162 147
4 129 306 308 415
4 325 473 33 414
4 104 105 296 295
4 112 308 306 159
4 114 452 108 113
4 166 152 478 122
4 119 316 313 312
4 136 90 362 294
4 111 109 319 112
4 329 128 352 351
4 137 387 386 360
4 158 224 492 412
4 293 167 294 295
4 108 453 482 303
4 9 66 67 492
4 488 115 117 139
4 35 34 94 357
4 363 484 102 307
4 154 110 443 125
4 295 453 106 303
4 146 336 376 334
4 453 452 300 113
4 67 492 429 98
4 492 9 66 158
4 17 45 18 170
4 296 362 90 104
4 299 109 105 159
4 47 19 46 234
4 429 10 67 98
4 452 453 108 113
4 135 136 31 291
4 445 154 443 125
4 102 363 307 323
4 18 46 19 86
4 416 367 178 335
4 118 313 311 312
4 112 109 299 159
4 168 16 95 504
4 106 293 453 295
4 66 8 224 158
4 139 140 416 448
4 46 18 45 502
4 68 429 216 184
4 443 110 154 107
4 161 102 307 94
4 8 65 224 88
4 102 103 484 90
4 322 324 339 120
4 124 444 439 125
4 482 478 452 122
4 294 104 296 295
4 127 322 334 141
4 109 110 442 107
4 339 322 120 142
4 335 178 146 337
4 453 293 106 113
4 1 68 69 216
4 291 31 135 289
4 310 304 116 305
4 119 118 313 120
4 242 26 214 271
4 128 129 112 415
4 222 170 17 95
4 503 168 16 211
4 103 484 296 298
4 443 442 107 303
4 401 429 98 400
4 65 7 64 405
4 140 29 28 449
4 484 103 307 298
4 475 136 294 291
4 16 43 503 211
4 140 446 28 93
4 469 302 30 288
4 152 494 166 478
4 6 5 63 235
4 473 33 414 363
4 118 457 313 120
4 323 315 161 94
4 123 118 148 457
4 313 324 322 120
4 107 108 482 303
4 114 122 320 151
4 373 372 162 143
4 452 320 304 114
4 93 367 446 337
4 142 339 361 144
4 494 180 169 544
4 319 321 438 111
4 482 108 154 122
4 65 8 7 88
4 45 502 170 222
4 300 452 304 114
4 319 438 439 111
4 124 439 110 125
4 151 479 320 480
4 356 437 181 401
4 312 126 416 488
4 480 320 151 310
4 122 452 108 114
4 67 10 426 99
4 311 457 123 338
4 158 195 224 412
4 118 123 116 311
4 167 104 294 295
4 426 99 496 221
4 62 5 4 513
4 116 311 310 305
4 8 9 66 157
4 483 148 457 338
4 46 234 86 502
4 457 118 148 120
4 473 484 362 90
4 289 455 31 285
4 35 406 357 413
4 112 299 308 159
4 28 446 140 449
4 5 6 91 235
4 162 373 143 147
4 329 349 130 351
4 63 64 6 235
4 83 3 548 535
4 95 44 222 504
4 103 298 105 159
4 90 362 32 136
4 293 453 300 113
4 167 136 135 291
4 16 44 95 504
4 163 321 438 350
4 133 352 437 415
4 437 352 133 412
4 45 17 44 222
4 313 316 119 322
4 415 129 306 315
4 140 416 367 178
4 362 136 294 475
4 452 478 320 122
4 288 302 30 290
4 7 64 405 156
4 296 103 105 104
4 106 108 453 113
4 349 163 131 350
4 31 475 455 289
4 296 362 484 90
4 406 408 35 357
4 141 322 334 427
4 466 349 131 350
4 27 467 271 375
4 12 38 39 233
4 323 161 307 94
4 88 405 224 411
4 289 30 135 290
4 353 339 324 143
4 105 104 106 295
4 502 86 18 170
4 15 168 503 211
4 503 42 15 211
4 167 135 292 291
4 353 472 361 144
4 386 91 235 387
4 103 296 90 104
4 19 234 177 86
4 323 102 34 94
4 112 121 128 329
4 127 334 146 145
4 134 433 292 290
4 351 128 352 171
4 8 66 9 158
4 212 49 21 175
4 120 143 324 142
4 222 17 44 95
4 321 163 111 121
4 17 45 170 222
4 124 110 439 111
4 301 115 305 488
4 44 16 43 504
4 155 378 379 172
4 181 158 492 412
4 98 492 429 401
4 157 66 8 521
4 334 127 141 145
4 169 177 234 86
4 64 7 6 156
4 12 39 13 96
4 123 151 116 310
4 297 299 109 105
4 160 36 35 400
4 373 162 539 174
4 494 152 479 478
4 493 223 173 440
4 475 474 32 455
4 472 517 233 96
4 87 541 145 157
4 467 27 532 375
4 324 313 457 120
4 319 439 110 111
4 39 233 517 96
4 135 31 30 289
4 16 44 17 95
4 145 141 334 427
4 474 32 362 475
4 306 307 161 298
4 136 362 32 475
4 138 181 160 356
4 143 339 324 142
4 323 315 94 356
4 47 19 234 177
4 466 131 349 360
4 467 27 520 366
4 141 120 322 142
4 234 19 46 86
4 426 10 67 68
4 130 131 137 360
4 452 108 482 122
4 146 336 335 337
4 401 181 492 412
4 107 297 105 303
4 416 126 140 139
4 8 7 87 521
4 351 130 128 171
4 47 48 20 501
4 155 379 378 232
4 479 151 150 480
4 36 216 428 413
4 313 457 118 311
4 429 216 184 400
4 304 300 114 115
4 311 123 116 310
4 158 8 224 88
4 62 63 5 513
4 216 36 400 413
4 380 155 378 232
4 52 23 51 229
4 32 31 136 475
4 336 146 335 334
4 352 351 171 411
4 134 89 433 135
4 151 152 479 150
4 161 307 306 315
4 367 178 335 337
4 114 300 452 113
4 145 334 376 427
4 66 8 65 224
4 301 115 488 139
4 32 31 475 455
4 1 68 216 184
4 110 443 442 107
4 119 118 117 312
4 120 324 339 142
4 457 372 148 483
4 18 46 86 502
4 408 323 34 94
4 141 339 322 427
4 320 152 479 151
4 143 324 148 120
4 158 492 9 98
4 351 130 186 360
4 320 452 122 114
4 351 349 130 360
4 102 484 103 307
4 439 493 444 124
4 349 130 121 329
4 502 18 45 170
4 6 92 155 518
4 6 91 235 156
4 104 167 106 295
4 433 301 488 139
4 481 504 503 194
4 125 445 154 166
4 386 186 351 411
4 301 113 300 115
4 234 511 501 169
4 411 171 352 412
4 438 163 124 111
4 135 89 433 290
4 401 437 181 412
4 126 416 140 178
4 103 296 484 90
4 34 363 323 408
4 353 339 143 142
4 414 33 34 363
4 481 480 150 338
4 102 34 33 363
4 171 195 352 412
4 113 114 300 115
4 378 165 155 380
4 177 234 501 169
4 157 9 66 221
4 334 146 335 127
4 124 439 438 111
4 363 34 414 408
4 494 169 511 544
4 19 47 20 177
4 501 20 47 177
4 118 116 117 311
4 483 84 168 225
4 43 16 503 504
4 433 134 135 290
4 53 24 52 500
4 223 20 501 177
4 125 529 444 169
4 99 67 9 221
4 300 113 301 134
4 16 168 503 504
4 444 511 445 125
4 151 123 480 310
4 238 25 53 191
4 511 445 125 166
4 192 4 5 513
4 292 293 167 291
4 94 138 160 356
4 386 351 186 360
4 183 238 387 500
4 184 98 429 400
4 438 440 163 350
4 361 142 144 172
4 305 115 117 488
4 28 355 446 449
4 157 541 189 221
4 136 167 104 294
4 135 292 291 290
4 123 311 338 310
4 480 123 150 338
4 156 405 7 88
4 532 27 153 375
4 106 293 167 113
4 433 139 89 134
4 293 294 167 291
4 52 24 23 97
4 532 153 27 93
4 242 1 68 69
4 139 416 488 448
4 33 32 473 474
4 521 157 66 221
4 155 92 379 518
4 168 483 225 503
4 169 166 180 494
4 54 25 53 238
4 315 437 129 138
4 39 12 233 96
4 357 323 94 356
4 416 316 126 312
4 153 532 146 93
4 139 488 433 448
4 41 42 15 225
4 178 367 93 337
4 526 222 519 182
4 176 229 466 441
4 229 466 179 176
4 185 68 426 242
4 289 135 291 290
4 153 189 146 496
4 387 386 91 137
4 311 116 117 305
4 168 149 503 481
4 339 141 142 427
4 131 130 349 360
4 123 149 150 338
4 298 161 306 159
4 120 322 119 141
4 315 437 138 356
4 20 223 175 177
4 440 516 223 175
4 180 86 169 544
4 117 312 305 488
4 223 20 48 501
4 148 372 457 324
4 169 511 125 166
4 130 128 121 329
4 7 8 65 521
4 304 301 115 305
4 129 308 112 415
4 178 93 146 337
4 123 150 151 480
4 445 166 494 478
4 124 493 444 125
4 148 372 324 143
4 549 58 57 497
4 106 167 293 295
4 159 161 306 129
4 27 26 153 375
4 140 367 416 448
4 133 128 352 415
4 321 163 438 111
4 117 126 312 488
4 312 311 117 305
4 438 493 439 124
4 99 426 67 221
4 30 29 302 469
4 196 2 62 537
4 469 29 302 449
4 334 335 316 127
4 322 119 313 120
4 165 141 145 427
4 137 186 130 360
4 181 160 356 401
4 329 130 128 351
4 223 173 440 175
4 146 336 153 496
4 117 126 488 139
4 101 238 513 387
4 29 469 355 449
4 156 88 171 411
4 472 353 373 147
4 62 0 2 196
4 212 223 49 175
4 448 449 302 89
4 59 60 507 547
4 28 27 467 366
4 222 519 95 504
4 352 128 133 171
4 62 4 5 239
4 165 155 380 87
4 142 141 165 427
4 367 140 449 448
4 222 519 182 95
4 8 87 157 521
4 68 1 10 184
4 68 10 1 185
4 98 160 401 400
4 536 2 62 197
4 339 361 378 142
4 224 195 158 88
4 386 156 186 411
4 446 355 28 366
4 300 304 301 115
4 26 27 271 375
4 21 50 22 85
4 2 0 62 197
4 160 357 356 400
4 119 126 316 312
4 322 339 141 142
4 24 53 25 191
4 176 466 179 164
4 134 113 167 292
4 481 150 149 338
4 234 501 47 177
4 301 300 134 292
4 135 134 167 292
4 88 156 405 411
4 521 7 87 232
4 4 0 62 196
4 541 496 189 221
4 502 180 86 170
4 21 49 516 175
4 1 68 185 242
4 149 483 503 481
4 386 405 156 411
4 129 161 306 315
4 449 140 29 89
4 168 149 84 483
4 157 99 9 221
4 401 160 356 400
4 22 51 23 176
4 292 135 134 290
4 140 367 93 178
4 324 372 353 143
4 138 437 181 356
4 21 49 50 516
4 181 492 158 98
4 11 37 38 514
4 92 6 5 518
4 338 480 123 310
4 62 0 4 197
4 98 181 492 401
4 163 173 438 124
4 156 235 405 386
4 11 38 12 190
4 103 161 102 307
4 171 351 186 411
4 103 161 298 159
4 140 449 448 89
4 128 133 129 415
4 437 129 133 415
4 444 511 125 169
4 316 126 119 127
4 238 183 191 500
4 171 186 156 411
4 115 114 304 116
4 132 493 173 124
4 142 361 378 172
4 30 302 89 290
4 99 189 496 221
4 376 145 427 380
4 357 160 35 400
4 190 11 38 514
4 483 539 84 225
4 376 189 146 145
4 91 235 156 386
4 100 514 545 239
4 134 433 301 292
4 63 5 6 518
4 378 339 142 427
4 324 457 148 120
4 149 148 483 338
4 514 512 188 545
4 521 65 7 232
4 438 173 493 124
4 177 529 132 169
4 196 54 2 537
4 526 180 170 182
4 126 316 416 335
4 238 101 25 191
4 121 131 130 349
4 168 149 483 503
4 40 13 39 517
4 62 5 63 239
4 195 171 411 412
4 187 193 188 545
4 302 433 448 89
4 234 169 86 544
4 132 493 124 125
4 196 4 192 513
4 501 529 177 169
4 511 444 529 169
4 65 8 66 521
4 232 6 155 518
4 166 169 511 494
4 387 183 500 523
4 89 302 433 290
4 457 148 123 338
4 500 183 97 523
4 189 99 157 221
4 63 6 64 518
4 529 501 511 169
4 466 176 441 164
4 136 167 294 291
4 54 2 0 196
4 36 1 216 184
4 148 149 123 338
4 188 100 514 545
4 138 161 315 94
4 300 113 134 292
4 352 195 133 412
4 536 37 2 197
4 232 64 6 518
4 50 21 516 85
4 360 137 387 523
4 164 441 466 350
4 132 529 125 169
4 301 115 139 134
4 429 68 10 184
4 132 223 493 529
4 191 53 238 500
4 135 30 89 290
4 15 168 225 503
4 448 139 140 89
4 179 97 183 523
4 481 149 483 338
4 437 133 181 412
4 232 155 379 518
4 472 188 512 144
4 6 7 64 232
4 67 66 9 221
4 94 160 35 357
4 153 336 532 496
4 181 98 160 401
4 156 186 91 386
4 229 176 542 441
4 117 116 115 305
4 493 132 444 125
4 233 188 472 96
4 162 84 539 174
4 427 145 165 380
4 0 2 37 197
4 539 84 162 483
4 11 190 100 514
4 97 52 24 500
4 355 28 29 449
4 311 117 118 312
4 353 143 147 144
4 519 504 481 194
4 115 301 113 134
4 98 184 160 400
4 94 315 138 356
4 99 189 153 496
4 163 173 440 438
4 14 41 15 84
4 479 526 519 182
4 357 94 160 356
4 166 180 494 152
4 440 441 164 350
4 103 161 307 298
4 142 165 378 427
4 126 119 117 312
4 504 168 503 194
4 7 6 155 232
4 175 223 132 177
4 380 541 145 87
4 352 133 195 171
4 532 336 153 146
4 516 49 223 175
4 539 525 373 174
4 52 97 229 500
4 3 61 548 535
4 91 192 5 235
4 188 472 147 144
4 517 13 39 96
4 7 155 87 232
4 225 42 15 503
4 155 379 92 172
4 116 304 115 305
4 166 511 445 494
4 521 541 157 221
4 380 145 165 87
4 126 316 335 127
4 95 519 182 194
4 170 222 182 95
4 85 173 441 164
4 149 162 84 483
4 513 192 101 387
4 271 242 26 375
4 65 64 7 232
4 481 503 168 194
4 239 4 193 197
4 139 433 301 134
4 173 440 164 350
4 472 512 361 144
4 519 479 150 480
4 165 378 155 172
4 195 181 133 412
4 176 22 51 542
4 68 426 10 185
4 229 179 97 176
4 479 152 494 526
4 171 88 195 411
4 137 386 186 360
4 93 446 467 337
4 504 519 95 194
4 375 426 99 496
4 526 152 180 182
4 229 23 51 176
4 195 158 181 412
4 426 185 242 375
4 351 186 130 171
4 169 234 511 544
4 544 180 86 502
4 437 133 129 138
4 517 472 373 147
4 184 216 36 400
4 101 196 192 513
4 521 87 380 232
4 190 233 12 96
4 185 26 1 242
4 472 353 147 144
4 126 416 488 139
4 379 378 361 172
4 84 41 15 225
4 164 163 173 350
4 372 162 148 483
4 137 183 387 523
4 440 173 163 350
4 361 512 379 187
4 15 168 84 225
4 335 178 126 127
4 157 87 541 521
4 23 52 97 229
4 155 380 87 232
4 532 146 93 337
4 376 496 189 541
4 193 5 4 239
4 440 173 493 438
4 186 91 386 137
4 170 502 180 526
4 131 179 137 360
4 233 512 188 514
4 188 193 100 545
4 193 100 239 197
4 182 479 152 150
4 98 429 10 184
4 427 165 378 380
4 14 13 40 174
4 91 192 387 183
4 101 25 196 238
4 146 532 336 337
4 387 192 101 183
4 21 516 85 175
4 168 149 481 194
4 152 180 494 526
4 441 176 85 164
4 181 133 437 138
4 148 162 372 143
4 179 466 229 523
4 191 183 97 500
4 183 387 91 137
4 29 30 302 89
4 182 519 479 150
4 526 170 502 222
4 225 84 41 525
4 467 28 446 93
4 147 472 188 96
4 99 185 426 375
4 27 28 467 93
4 51 229 176 542
4 239 193 63 518
4 467 532 27 93
4 40 41 14 525
4 178 126 416 335
4 173 440 441 164
4 233 188 512 472
4 137 179 183 523
4 164 466 131 350
4 146 178 335 127
4 375 99 153 496
4 378 165 142 172
4 179 131 466 360
4 38 233 190 514
4 315 129 161 138
4 185 426 10 99
4 544 86 234 502
4 514 100 11 197
4 467 446 28 366
4 183 101 238 191
4 160 184 36 400
4 25 54 0 196
4 189 145 541 157
4 95 168 504 194
4 185 99 153 375
4 537 196 101 513
4 84 14 41 525
4 164 131 163 350
4 222 526 170 182
4 526 479 152 182
4 229 97 23 176
4 387 101 238 183
4 0 37 11 197
4 500 97 229 523
4 233 12 38 190
4 481 149 150 194
4 514 100 536 239
4 466 179 360 523
4 225 539 84 525
4 22 50 51 542
4 5 63 193 518
4 516 85 440 441
4 502 544 180 526
4 449 29 302 89
4 85 173 440 441
4 541 145 376 380
4 50 22 85 542
4 85 516 50 542
4 525 539 84 174
4 193 187 92 545
4 375 153 532 496
4 85 516 542 441
4 191 97 24 500
4 467 520 27 271
4 179 137 360 523
4 448 433 139 89
4 92 5 193 518
4 493 132 529 444
4 480 150 519 481
4 539 162 372 483
4 187 379 361 172
4 174 517 373 147
4 145 376 189 541
4 517 472 147 96
4 24 53 191 500
4 149 148 162 483
4 239 545 193 518
4 379 187 92 172
4 97 179 229 523
4 153 26 185 375
4 174 13 517 96
4 176 85 22 542
4 144 188 512 187
4 147 174 517 96
4 190 233 188 514
4 525 14 40 174
4 132 529 444 125
4 87 380 541 521
4 93 467 532 337
4 544 494 180 526
4 481 150 519 194
4 512 361 144 187
4 150 182 519 194
4 100 536 239 197
4 361 144 187 172
4 517 40 13 174
4 539 372 162 373
4 525 84 14 174
4 242 185 26 375
4 545 193 100 239
4 537 101 238 513
4 187 512 379 545
4 545 92 193 518
4 131 179 466 164
4 40 517 525 174
4 373 525 517 174
4 542 176 85 441
4 100 190 188 514
4 188 512 187 545
4 188 233 190 96
4 100 514 536 197
4 545 379 92 518
4 193 63 5 239
4 196 537 101 238
4 92 187 379 545
4 581 328 265 264
4 581 265 328 553
4 586 328 581 341
4 586 581 328 553
4 217 595 79 80
4 79 595 217 554
4 468 595 213 554
4 468 213 595 403
4 79 213 595 554
4 79 595 213 403
4 261 593 450 436
4 450 593 261 581
4 572 570 73 564
4 572 73 570 420
4 74 73 570 564
4 74 570 73 420
4 499 595 259 464
4 259 595 499 554
4 573 200 203 204
4 573 203 200 555
4 572 388 585 241
4 572 585 388 560
4 596 267 476 275
4 596 476 267 567
4 597 489 420 422
4 597 420 489 572
4 592 314 451 510
4 592 451 314 590
4 235 192 387 91
4 235 387 192 513
4 64 156 235 405
4 235 156 64 6
4 496 146 376 189
4 496 376 146 336
4 85 440 175 516
4 175 440 85 173
4 223 20 212 48
4 223 212 20 175
4 197 37 514 536
4 197 514 37 11
4 196 54 238 25
4 196 238 54 537
4 529 177 223 501
4 223 177 529 132
4 5 513 235 192
4 235 513 5 63
4 62 197 239 536
4 239 197 62 4
4 62 196 513 4
4 62 513 196 537

CELL_TYPES 3031
1
1
1
1
3
3
3
3
3
3
3
3
3
3
3
3
3
3
3
3
3
3
3
3
3
3
3
3
3
3
3
3
3
3
3
3
3
3
3
3
3
3
3
3
3
3
3
3
3
3
3
3
3
3
3
3
3
3
3
3
3
3
3
3
3
3
3
3
3
3
3
3
3
3
3
3
3
3
3
3
3
3
3
3
3
3
3
3
3
3
5
5
5
5
5
5
5
5
5
5
5
5
5
5
5
5
5
5
5
5
5
5
5
5
5
5
5
5
5
5
5
5
5
5
5
5
5
5
5
5
5
5
5
5
5
5
5
5
5
5
5
5
5
5
5
5
5
5
5
5
5
5
5
5
5
5
5
5
5
5
5
5
5
5
5
5
5
5
5
5
5
5
5
5
5
5
5
5
5
5
5
5
5
5
5
5
5
5
5
5
5
5
5
5
5
5
5
5
5
5
5
5
5
5
5
5
5
5
5
5
5
5
5
5
5
5
5
5
5
5
5
5
5
5
5
5
5
5
5
5
5
5
5
5
5
5
5
5
5
5
5
5
5
5
5
5
5
5
5
5
5
5
5
5
5
5
5
5
5
5
5
5
5
5
5
5
5
5
5
5
5
5
5
5
5
5
5
5
5
5
5
5
5
5
5
5
5
5
5
5
5
5
5
5
5
5
5
5
5
5
5
5
5
5
5
5
5
5
5
5
5
5
5
5
5
5
5
5
5
5
5
5
5
5
5
5
5
5
5
5
5
5
5
5
5
5
5
5
5
5
5
5
5
5
5
5
5
5
5
5
5
5
5
5
5
5
5
5
5
5
5
5
5
5
5
5
5
5
5
5
5
5
5
5
5
5
5
5
5
5
5
5
5
5
5
5
5
5
5
5
5
5
5
5
5
5
5
5
5
5
5
5
5
5
5
5
5
5
5
5
5
5
5
5
5
5
5
5
5
5
5
5
5
5
5
5
5
5
5
5
5
5
5
5
5
5
5
5
5
5
5
5
5
5
5
5
5
5
5
5
5
5
5
5
5
5
5
5
5
5
5
5
5
5
5
5
5
5
5
5
5
5
5
5
5
5
5
5
5
5
5
5
5
5
5
5
5
5
5
5
5
5
5
5
5
5
5
5
5
5
5
5
5
5
5
5
5
5
5
5
5
5
5
5
5
5
5
5
5
5
5
5
5
5
5
5
5
5
5
5
5
5
5
5
5
5
5
5
5
5
5
5
5
5
5
5
5
5
5
5
5
5
5
5
5
5
5
5
5
5
5
5
5
5
5
5
5
5
5
5
5
5
5
5
5
5
5
5
5
5
5
5
5
5
5
5
5
5
5
5
5
5
5
5
5
5
5
5
5
5
5
5
5
5
5
5
5
5
5
5
5
5
5
5
5
5
5
5
5
5
5
5
5
5
5
5
5
5
5
5
5
5
5
5
5
5
5
5
5
5
5
5
5
5
5
5
5
5
5
5
5
5
5
5
5
5
5
5
5
5
5
5
5
5
5
5
5
5
5
5
5
5
5
5
5
5
5
5
5
5
5
5
5
5
5
5
5
5
5
5
5
5
5
5
5
5
5
5
5
5
5
5
5
5
5
5
5
5
5
5
5
5
5
5
5
5
5
5
5
5
5
5
5
5
5
5
5
5
5
5
5
5
5
5
5
5
5
5
5
5
5
5
5
5
5
5
5
5
5
5
5
5
5
5
5
5
5
5
5
5
5
5
5
5
5
5
5
5
5
5
5
5
5
5
5
5
5
5
5
5
5
5
5
5
5
5
5
5
5
5
5
5
5
5
5
5
5
5
5
5
5
5
5
5
5
5
5
5
5
5
5
5
5
5
5
5
5
5
5
5
5
5
5
5
5
5
5
5
5
5
5
5
5
5
5
5
5
5
5
5
5
5
5
5
5
5
5
5
5
5
5
5
5
5
5
5
5
5
5
5
5
5
5
5
5
5
5
5
5
5
5
5
5
5
5
5
5
5
5
5
5
5
5
5
5
5
5
5
5
5
5
5
5
5
5
5
5
5
5
5
5
5
5
5
5
5
5
5
5
5
5
5
5
5
5
5
5
5
5
5
5
5
5
5
5
5
5
5
5
5
5
5
5
5
5
5
5
5
5
5
5
5
5
5
5
5
5
5
5
5
5
5
5
5
5
5
5
5
5
5
5
5
5
5
5
5
5
5
5
5
5
5
5
5
5
5
5
5
5
5
5
5
5
5
5
5
5
5
5
5
5
5
5
5
5
5
5
5
5
5
5
5
5
5
5
5
5
5
5
5
5
5
5
5
5
5
5
5
5
5
5
5
5
5
5
5
5
5
5
5
5
5
5
5
5
5
5
5
5
5
5
5
5
5
5
5
5
5
5
5
5
5
5
5
5
5
5
5
5
5
5
5
5
5
5
5
5
5
5
5
5
5
5
5
5
5
5
5
5
5
5
5
5
5
5
5
5
5
5
5
5
5
5
5
5
5
5
5
5
5
5
5
5
5
5
5
5
5
5
5
5
5
5
5
5
5
5
5
5
5
5
5
5
5
5
5
5
5
5
5
5
5
5
5
5
5
5
5
5
5
5
5
5
5
5
5
5
5
5
5
5
5
5
5
5
5
5
5
5
5
5
5
5
5
5
5
5
5
5
5
5
5
5
5
5
5
5
5
5
5
5
5
5
5
5
5
10
10
10
10
10
10
10
10
10
10
10
10
10
10
10
10
10
10
10
10
10
10
10
10
10
10
10
10
10
10
10
10
10
10
10
10
10
10
10
10
10
10
10
10
10
10
10
10
10
10
10
10
10
10
10
10
10
10
10
10
10
10
10
10
10
10
10
10
10
10
10
10
10
10
10
10
10
10
10
10
10
10
10
10
10
10
10
10
10
10
10
10
10
10
10
10
10
10
10
10
10
10
10
10
10
10
10
10
10
10
10
10
10
10
10
10
10
10
10
10
10
10
10
10
10
10
10
10
10
10
10
10
10
10
10
10
10
10
10
10
10
10
10
10
10
10
10
10
10
10
10
10
10
10
10
10
10
10
10
10
10
10
10
10
10
10
10
10
10
10
10
10
10
10
10
10
10
10
10
10
10
10
10
10
10
10
10
10
10
10
10
10
10
10
10
10
10
10
10
10
10
10
10
10
10
10
10
10
10
10
10
10
10
10
10
10
10
10
10
10
10
10
10
10
10
10
10
10
10
10
10
10
10
10
10
10
10
10
10
10
10
10
10
10
10
10
10
10
10
10
10
10
10
10
10
10
10
10
10
10
10
10
10
10
10
10
10
10
10
10
10
10
10
10
10
10
10
10
10
10
10
10
10
10
10
10
10
10
10
10
10
10
10
10
10
10
10
10
10
10
10
10
10
10
10
10
10
10
10
10
10
10
10
10
10
10
10
10
10
10
10
10
10
10
10
10
10
10
10
10
10
10
10
10
10
10
10
10
10
10
10
10
10
10
10
10
10
10
10
10
10
10
10
10
10
10
10
10
10
10
10
10
10
10
10
10
10
10
10
10
10
10
10
10
10
10
10
10
10
10
10
10
10
10
10
10
10
10
10
10
10
10
10
10
10
10
10
10
10
10
10
10
10
10
10
10
10
10
10
10
10
10
10
10
10
10
10
10
10
10
10
10
10
10
10
10
10
10
10
10
10
10
10
10
10
10
10
10
10
10
10
10
10
10
10
10
10
10
10
10
10
10
10
10
10
10
10
10
10
10
10
10
10
10
10
10
10
10
10
10
10
10
10
10
10
10
10
10
10
10
10
10
10
10
10
10
10
10
10
10
10
10
10
10
10
10
10
10
10
10
10
10
10
10
10
10
10
10
10
10
10
10
10
10
10
10
10
10
10
10
10
10
10
10
10
10
10
10
10
10
10
10
10
10
10
10
10
10
10
10
10
10
10
10
10
10
10
10
10
10
10
10
10
10
10
10
10
10
10
10
10
10
10
10
10
10
10
10
10
10
10
10
10
10
10
10
10
10
10
10
10
10
10
10
10
10
10
10
10
10
10
10
10
10
10
10
10
10
10
10
10
10
10
10
10
10
10
10
10
10
10
10
10
10
10
10
10
10
10
10
10
10
10
10
10
10
10
10
10
10
10
10
10
10
10
10
10
10
10
10
10
10
10
10
10
10
10
10
10
10
10
10
10
10
10
10
10
10
10
10
10
10
10
10
10
10
10
10
10
10
10
10
10
10
10
10
10
10
10
10
10
10
10
10
10
10
10
10
10
10
10
10
10
10
10
10
10
10
10
10
10
10
10
10
10
10
10
10
10
10
10
10
10
10
10
10
10
10
10
10
10
10
10
10
10
10
10
10
10
10
10
10
10
10
10
10
10
10
10
10
10
10
10
10
10
10
10
10
10
10
10
10
10
10
10
10
10
10
10
10
10
10
10
10
10
10
10
10
10
10
10
10
10
10
10
10
10
10
10
10
10
10
10
10
10
10
10
10
10
10
10
10
10
10
10
10
10
10
10
10
10
10
10
10
10
10
10
10
10
10
10
10
10
10
10
10
10
10
10
10
10
10
10
10
10
10
10
10
10
10
10
10
10
10
10
10
10
10
10
10
10
10
10
10
10
10
10
10
10
10
10
10
10
10
10
10
10
10
10
10
10
10
10
10
10
10
10
10
10
10
10
10
10
10
10
10
10
10
10
10
10
10
10
10
10
10
10
10
10
10
10
10
10
10
10
10
10
10
10
10
10
10
10
10
10
10
10
10
10
10
10
10
10
10
10
10
10
10
10
10
10
10
10
10
10
10
10
10
10
10
10
10
10
10
10
10
10
10
10
10
10
10
10
10
10
10
10
10
10
10
10
10
10
10
10
10
10
10
10
10
10
10
10
10
10
10
10
10
10
10
10
10
10
10
10
10
10
10
10
10
10
10
10
10
10
10
10
10
10
10
10
10
10
10
10
10
10
10
10
10
10
10
10
10
10
10
10
10
10
10
10
10
10
10
10
10
10
10
10
10
10
10
10
10
10
10
10
10
10
10
10
10
10
10
10
10
10
10
10
10
10
10
10
10
10
10
10
10
10
10
10
10
10
10
10
10
10
10
10
10
10
10
10
10
10
10
10
10
10
10
10
10
10
10
10
10
10
10
10
10
10
10
10
10
10
10
10
10
10
10
10
10
10
10
10
10
10
10
10
10
10
10
10
10
10
10
10
10
10
10
10
10
10
10
10
10
10
10
10
10
10
10
10
10
10
10
10
10
10
10
10
10
10
10
10
10
10
10
10
10
10
10
10
10
10
10
10
10
10
10
10
10
10
10
10
10
10
10
10
10
10
10
10
10
10
10
10
10
10
10
10
10
10
10
10
10
10
10
10
10
10
10
10
10
10
10
10
10
10
10
10
10
10
10
10
10
10
10
10
10
10
10
10
10
10
10
10
10
10
10
10
10
10
10
10
10
10
10
10
10
10
10
10
10
10
10
10
10
10
10
10
10
10
10
10
10
10
10
10
10
10
10
10
10
10
10
10
10
10
10
10
10
10
10
10
10
10
10
10
10
10
10
10
10
10
10
10
10
10
10
10
10
10
10
10
10
10
10
10
10
10
10
10
10
10
10
10
10
10
10
10
10
10
10
10
10
10
10
10
10
10
10
10
10
10
10
10
10
10
10
10
10
10
10
10
10
10
10
10
10
10
10
10
10
10
10
10
10
10
10
10
10
10
10
10
10
10
10
10
10
10
10
10
10
10
10
10
10
10
10
10
10
10
10
10
10
10
10
10
10
10
10
10
10
10
10
10
10
10
10
10
10
10
10
10
10
10
10
10
10
10
10
10
10
10
10
10
10
10
10
10
10
10
10
10
10
10
10
10
10
10
10
10
10
10
10
10
10
10
10
10
10
10
10
10
10
10
10
10
10
10
10
10
10
10
10
10
10
10
10
10
10
10
10
10
10
10
10
10
10
10
10
10
10
10
10
10
10
10
10
10
10
10
10
10
10
10
10
10
10
10
10
10
10
10
10
10
10
10
10
10
10
10
10
10
10
10
10
10
10
10
10
10
10
10
10
10
10
10
10
10
10
10
10
10
10
10
10
10
10
10
10
10
10
10
10
10
10
10
10
10
10
10
10
10
10
10
10
10
10
10
10
10
10
10
10
10
10
10
10
10
10
10
10
10
10
10
10
10
10
10
10
10
10
10
10
10
10
10
10
10
10
10
10
10
10
10
10
10
10
10
10
10
10
10
10
10
10
10
10
10
10
10
10
10
10
10
10
10
10
10
10
10
10
10
10
10
10
10
10
10
10
10
10
10
10
10
10
10
10
10
10
10
10
10
10
10
10
10
10
10
10
10
10
10
10
10
10
10
10
10
10
10
10
10
10
10
10
10
10
10
10
10
10
10
10
10
10
10
10
10
10
10
10
10
10
10
10
10
10
10
10
10
10
10
10
10
10
10
10
10
10
10
10
10
10
10
10
10
10
10
10
10
10
10
10
10
10
10
10
10
10
10
10
10
10
10
10
10
10
10
10
10
10
10
10
10
10
10
10
10
10
10
10
10
10
10
10
10
10
10
10
10
10
10
10
10
10
10
10
10
10
10
10
10
10
10
10
10
10
10
10
10
10
10
10
10
10
10
10
10
10
10
10
10
10
10
10
10
10
10
10
10
10
10
10
10
10
10
10
10
10
10
10
10
10
10
10
10
10
10
10
10
10
10
10
10
10
10
10
10
10
10
10
10
10
10
10
10
10
10
10
10
10
10
10
10
10
10
10
10
10
10
10
10
10
10
10
10
10
10
10
10
10
10
10
10
10
10
10
10
10
10
10
10
10
10
10
10
10
10
10
10
10
10
10
10
10
10
10
10
10
10
10
10
