# vtk DataFile Version 2.0
whisker_body, Created by Gmsh 4.13.1 
ASCII
DATASET UNSTRUCTURED_GRID
POINTS 641 double
-7.858116822750931 -1.499999999999801 0
7.858116822750931 -1.499999999999802 0
-5.108472148796041 -1.499999999999963 34
5.108472148796041 -1.499999999999963 34
12 0 0
7.858116822750891 1.499999999999905 0
0 8 0
-7.85811682275089 1.499999999999909 0
4.916846385784335 0 90
5.108472148795943 1.50000000000013 34
0 5.324141967962971 34
-5.108472148795943 1.500000000000129 34
-6.371849713531152 -4.837306195412172 0
-3.556792827583766 -7.165837339882108 0
-9.797174393178826e-16 -8 0
3.55679282758376 -7.16583733988211 0
6.371849713531151 -4.837306195412173 0
-3.929058411375466 -1.5 0
0 -1.5 0
3.929058411375467 -1.5 0
-5.417614409260859 -1.5 30.22251756216784
-5.725510201819819 -1.5 26.44493296841888
-6.032350284903591 -1.5 22.66726219129824
-6.338288006509819 -1.5 18.88951673984103
-6.643447788020772 -1.5 15.1117094159641
-6.947932152453644 -1.5 11.33384775211331
-7.251826000939804 -1.5 7.555940484965291
-7.55520085663829 -1.5 3.777989585106894
-3.190632754100699 -4.262200174028012 34
-1.483838334002059e-14 -5.324141967962971 34
3.190632754100684 -4.262200174028022 34
7.555200856638287 -1.5 3.777989585106951
7.251826000939802 -1.5 7.555940484965333
6.947932152453641 -1.5 11.33384775211336
6.643447788020772 -1.5 15.1117094159641
6.338288006509815 -1.5 18.88951673984106
6.032350284903589 -1.5 22.66726219129828
5.725510201819819 -1.5 26.44493296841888
5.417614409260858 -1.5 30.22251756216785
-1.70282404959868 -1.5 34
1.70282404959868 -1.5 34
11.34980690040761 3.896393630456207 0
9.469686112756717 7.370552552276022 0
6.563377897469113 10.04599773915035 0
2.945825845689581 11.63280319127197 0
-0.9909521456679979 11.95901391608004 0
-4.820345095835646 10.98927991986068 0
-8.127378859508902 8.82868692807757 0
-10.55368501447787 5.71136871644487 0
-11.83633564083267 1.975135083368787 0
-11.83633564083267 -1.975135083368821 0
-10.55368501447786 -5.711368716444897 0
-8.12737885950888 -8.828686928077589 0
-4.820345095835619 -10.9892799198607 0
-0.9909521456679715 -11.95901391608004 0
2.945825845689616 -11.63280319127196 0
6.563377897469155 -10.04599773915032 0
9.469686112756747 -7.370552552275983 0
11.34980690040762 -3.896393630456205 0
6.371849713531105 4.837306195412233 0
3.556792827583735 7.165837339882123 0
3.929058411375445 1.5 0
0 1.5 0
-3.929058411375445 1.5 0
-3.55679282758373 7.165837339882126 0
-6.371849713531105 4.837306195412234 0
3.476735421440674 3.476735421440667 90
1.012690292828946e-14 4.916846385784335 90
-3.476735421440661 3.47673542144068 90
-4.916846385784335 1.588676900374471e-14 90
-3.476735421440683 -3.476735421440658 90
-1.400432058674011e-14 -4.916846385784335 90
3.476735421440664 -3.476735421440678 90
11.69203679938193 0 3.91304347826087
11.38407359876386 0 7.826086956521739
11.07611039814578 0 11.73913043478261
10.76814719752771 0 15.65217391304348
10.46018399690964 0 19.56521739130435
10.15222079629157 0 23.47826086956522
9.844257595673493 0 27.39130434782609
9.536294395055421 0 31.30434782608696
9.228331194437349 0 35.21739130434783
8.920367993819276 0 39.1304347826087
8.612404793201204 0 43.04347826086957
8.304441592583132 0 46.95652173913044
7.996478391965059 0 50.8695652173913
7.688515191346986 0 54.78260869565218
7.380551990728914 0 58.69565217391305
7.072588790110841 0 62.60869565217391
6.764625589492769 0 66.52173913043478
6.456662388874697 0 70.43478260869566
6.148699188256625 0 74.34782608695652
5.840735987638553 0 78.26086956521739
5.532772787020479 0 82.17391304347827
5.224809586402407 0 86.08695652173914
5.417614409260859 1.5 30.22251756216784
5.725510201819819 1.5 26.44493296841888
6.032350284903591 1.5 22.66726219129824
6.338288006509819 1.5 18.88951673984103
6.643447788020772 1.5 15.1117094159641
6.947932152453644 1.5 11.33384775211331
7.251826000939804 1.5 7.555940484965291
7.55520085663829 1.5 3.777989585106894
3.190632754100627 4.262200174028065 34
0 7.702682440884774 3.777777777777778
0 7.405364881769549 7.555555555555555
0 7.108047322654324 11.33333333333333
0 6.810729763539099 15.11111111111111
0 6.513412204423873 18.88888888888889
0 6.216094645308647 22.66666666666666
0 5.918777086193423 26.44444444444445
0 5.621459527078197 30.22222222222222
-7.55520085663829 1.5 3.777989585106894
-7.251826000939804 1.5 7.555940484965291
-6.947932152453644 1.5 11.33384775211331
-6.643447788020772 1.5 15.1117094159641
-6.338288006509819 1.5 18.88951673984103
-6.032350284903591 1.5 22.66726219129824
-5.725510201819819 1.5 26.44493296841888
-5.417614409260858 1.5 30.22251756216785
1.702824049598647 1.5 34
-1.702824049598648 1.5 34
-3.19063275410062 4.26220017402807 34
5.722039885388564 -4.477075124736364 9.334061103107018
4.997074202157982 -4.420228265835051 16.87994896813089
-1.769799550843757 -7.546262437367306 3.163626769386044
-5.362131490630304 -4.450468957983637 13.10723805307592
-4.626235768254564 -4.38565917956185 20.65212833378486
-3.864163271009514 -4.299844639722383 28.19456200744649
4.248882491973146 -4.34589603401751 24.42369748017328
1.448853259071615 -5.353976192261564 31.17401518055786
4.940323477229446 -5.972559850191803 3.163626769385993
-6.320000735138549 -4.138404545603034 5.662017608537719
-1.561793948766073 -5.320733285575061 31.19100808171397
-0.05616337831609023 -5.782721256018158 28.16973230669404
-1.242474557628 -5.899381680978475 25.04645201400466
3.872754547806455 -4.29379689099297 28.17863128618734
4.625512296705788 -4.387239390931819 20.64498321760239
2.091726831828811 -6.199492802877823 18.51470443697592
2.530578301514108 -6.352877172611742 14.76030748762325
-0.7283473469208237 -6.680378464839161 16.2643710006001
-0.2869468479633531 -7.007825443871659 12.53215848603533
0.8648678002009972 -6.186312340034607 22.28064079003491
-5.728902626359224 -4.474662444579005 9.284243060690162
-3.19105700052217 -6.749977935797268 6.781802460419841
5.384233079003229 -4.413483110899578 13.18962908875767
-5.203677001685782 -4.192781743326386 16.73864994452052
3.129155399211124 -6.404261338004508 11.08177780454652
3.412029036982493 -6.631444562154285 6.88997012822932
-1.362587755648816 -6.277914788455819 20.02390714600536
0.1878797945386707 -7.27929871205883 9.126575746652119
1.769887969217461 -7.546639445177021 3.158706453448454
6.172878643772258 -4.314782940972952 5.954299101758252
-4.894450546383843 -6.039339002236953 2.876353943853278
-3.194392556074775 -6.407334004589732 10.67989110106247
0.003878787950594129 -7.53417684946537 5.91883163503516
1.592542106451476 -5.781251293077124 25.45577445026922
-4.246598908893217 -4.347176097500341 24.43234511102062
-3.117637725567103 -6.144677780125793 14.09961814150463
3.950941581799424 -3.871059600675178 31.36808084981364
-3.959864444093498 -3.861665624035446 31.3704400761279
6.619898239887995 -4.081962991227366 2.830423914629366
-2.75797104437642 -5.597180981809413 22.36573120084415
-6.771682765905342 -3.861267820860927 2.602284824528141
-3.083852307713099 -5.837220806754412 17.76626914114633
-3.763950029200678 -1.5 9.371691226981262
-3.21919085189699 -1.5 16.73633696037034
2.720971679411809 -1.5 24.29863608202935
3.522039877182415 -1.5 12.95950983514762
0 -1.5 31.0506222297449
1.964529205687734 -1.5 3.402664397204082
-3.425247711617228 -1.5 4.110707136490111
-2.720960111556005 -1.5 24.29862244514668
-2.054271082900497 -1.5 28.20567003096174
2.15252551092258 -1.5 28.17849669368879
3.647911729543857 -1.5 9.246276714638809
-0.09729408378042592 -1.5 11.01966906944273
-0.01661800102213284 -1.5 14.7981283479857
3.219328335161544 -1.5 16.73664674308745
-3.448072151062441 -1.5 13.06189712880957
-0.5099796565188974 -1.5 6.875704587793409
-3.051799911498213 -1.5 20.52443915479831
3.05182134864398 -1.5 20.52449305806495
-0.002743180101965947 -1.5 18.58290563567989
4.333777746355036 -1.5 5.82862510918058
-0.0003226398928966034 -1.5 22.31349606111882
0.009994219998475273 -1.5 25.71345839596154
-2.823473894977977 -1.5 31.38674066326622
2.837221637777244 -1.5 31.41370511397793
4.895991915633346 -1.5 2.733284082725651
-0.9297347067511419 -1.5 2.786516404841732
-4.691255553466414 -1.5 6.581521580877913
0 -3.032951985761317 34
5.893587617063135 3.502692055588319e-14 0
-5.893587617063174 5.140332604014475e-14 0
-1.964529205687727 -5.551115123125783e-17 0
1.964529205687728 0 0
-10.05475109066195 1.057002649713154e-13 0
8.765690137960252 4.26004408380471 0
8.765690137960272 -4.260044083804643 0
-2.276010778504034 -9.537923667613388 0
-2.276010778504018 9.537923667613384 0
5.74050136458254 -3.281280663327221 68.45947964960435
8.761134098530187 -3.360076158509917 33.24747040156395
7.44407362868952 -3.323305503185333 48.89075782304554
9.097838897250501 3.346925046322303 29.30120027615956
5.401201232320405 3.261646699543009 72.30312384159375
8.111539840237866 3.335203565040108 41.03541898028857
7.299503382026074 2.882477855600324 52.75589960909073
9.749158709004757 -3.353034939578846 21.47789884144384
-11.09527489538306 -3.809012682760156 3.419408766471422
-6.232418039053819 9.905474497031095 3.773063892724198
10.07327899865776 3.35569553745293 17.5661269536686
-2.879762434608147 -11.37192468062311 3.419408766471418
-4.816250397428224 -1.865076094056755 86.84992088843468
5.03735348109609 -3.26080356130795 76.22900163682489
4.677600194425406 3.245052061619983 80.13796914691706
4.712243512000815 10.74283313214683 3.419408766471414
6.432277693272545 -3.304580803070757 60.589661722059
8.094005879389012 -3.375425781408232 41.04572807250278
6.088984370403172 3.295834611060506 64.49992465939698
10.39529630898153 -3.361133361174588 13.6569732303231
7.94511337650492 -8.630693833987381 3.419408766471494
-11.09527489538305 3.809012682760122 3.419408766471707
10.71886229875082 3.360370264401352 9.742374045709338
-1.977922590895115 4.775127544263149 86.80166499961184
4.311926756886884 -3.226424223996101 84.04647073103104
10.31700692552852 5.583284939902489 3.419408766471418
11.04046708034911 -3.362429988012162 5.830404183151199
6.068907339767169 -3.318332645026073 64.58740323053345
7.765166913722355 -3.350321649835772 45.01686388351295
5.642496121842763 -6.105791936861487 46.83823299615129
5.278178066632268 -6.019514342876318 50.75042225416736
5.984446116956859 -6.20624722375618 42.92729542501441
6.396941106392194 -6.231243485202469 39.00495321240831
9.086075975578847 -3.364995447079913 29.36190813501666
7.186649615285207 -6.280757920663918 31.201169046227
7.525273556854446 -6.35796996548658 27.29833164618329
4.753296571983761 -8.469428856274545 29.07041654610853
3.362164804827326 -8.125038030628437 40.7462364431173
2.545732079149634 -7.768963837603326 48.59585085351793
4.064491274496943 -5.809571495256635 62.38467828494477
5.148646250283272 -8.595185516815537 25.16756030715231
1.779394262336732 -9.725914705999362 26.84378220683693
2.206386675234307 -9.952680438743577 22.94344582801
-1.390068413368076 -9.972955350374269 24.5310327848055
-1.872499844053349 -9.58202949006186 28.4202818264709
-0.9573515857040965 -10.33140159132219 20.63915957841867
-4.428901345470023 -9.252113683399861 22.14027158931001
-4.037307726193106 -9.760986778239101 18.25896803510916
-7.072090215264514 -7.695395368197326 19.67572967348045
-7.340552768976815 -7.006041098682235 23.54039136754905
-9.241029007423492 -4.656922111371745 20.98915425300419
-9.29109833297345 -3.819947603289911 24.83147065715385
-10.19754063277202 -1.062916250870986 22.20045560973645
-9.95124245415712 -0.1474959663127964 26.01804466359422
-10.36839445452307 -1.96949300164009 18.37582657594496
-10.30910709141277 1.7999426678057 19.50326078921773
-0.4830680063923517 -10.67239910565115 16.72992766239485
-6.76122130600567 -8.366205015671161 15.79708982649612
-10.7276697946795 0.8912034077738887 15.69693278276014
-9.659363686120344 4.561774435241463 16.74203848284429
-8.909797338394963 5.334675217926719 20.52356522282104
-7.36781753567969 7.632037840042694 17.68519669523642
-6.288997288094048 8.174096884195629 21.42959054827664
-4.16162483877015 9.68625482327313 18.52028920308913
-2.856237633990282 9.844656729733385 22.227887993111
2.132554990387124 -7.574073590642374 52.49480536536176
-5.154213838197174 8.592173748727427 25.16401089547433
-1.559816856925419 9.83814304009665 25.90759039742437
-3.913829606433021 8.904822466663822 28.88159763386182
1.004309338617151 10.14748330590554 22.90851103062196
-5.406611971524907 9.389934164153415 14.79974307987735
-1.750421387317233 10.63245938082818 15.55770574383598
-9.301121756610291 -2.901233888401383 28.67661625692852
-1.024127419679856 -7.982253173775085 50.21894816839039
-1.443879901398615 -7.606138340503795 54.10337621673951
-0.1250224904008528 9.669824824490105 29.59741391654269
-2.607231979538324 9.068135807545142 32.58500456521433
-4.370175592150473 -6.616813808139688 51.71765045845702
-4.688634487702346 -6.013777582285645 55.58282279699413
-4.028710151703698 -7.181395585583525 47.84833263430264
-6.674259959597244 -4.633901580192187 49.23406871158741
-6.492315128395826 -5.374529812374538 45.38313924730195
-8.084632221467741 -1.997391874585413 46.66079336008498
-7.945612615875955 -1.137102408502237 50.48726592817298
-8.052669190409905 1.733049008094328 47.81285379556579
-7.501643627533325 2.598794410715498 51.59936247189304
-8.493850626196025 0.8468543253162147 44.01476603660686
-7.214174630727786 4.406346505992712 45.06365017668139
-7.964776630598568 3.623675150987853 41.29067229693035
-5.582669925892706 6.640758017434137 42.24062771638785
-4.487699650317379 7.078902590428808 45.97681986430621
-8.835527120288923 -0.04877641908630301 40.20672960723367
1.258113039497285 9.29786793060898 33.25721098969171
-2.175047681889216 8.33166426251584 43.06269955577187
-6.04093147346916 7.329703162725155 31.78731396465364
-0.8311238628365857 8.279033564972558 46.75061469324468
-3.06087029533004 10.6350739634885 11.85762375910709
0.7609453165888622 10.98625034981756 12.54646667510735
-10.34050757944949 3.693036863917812 12.95788812750047
-11.06488929136004 -0.02580096719305322 11.88132589782478
3.821174604692434 -8.259654699541398 36.83872896834559
0.2781609580416772 -8.967091311711178 38.48195348861039
2.284045983287152 10.4819009059066 16.16399284037234
4.624497838800956 9.945193459815172 13.11521919388273
1.690531070981041 8.388620276500397 43.7440503521278
-0.6712692059968068 11.2818903235161 8.870927791228176
3.000995345921229 7.707394357949 47.38108423883359
0.5360830402182546 8.013899152268799 50.42064028882623
-8.606219505325903 2.793445796213469 37.50587297456081
-9.091940300102474 -0.8983308553142849 36.38787175543573
-8.150443280019973 -3.653564563927384 38.98431782061447
-8.039068862346001 -4.545311950225993 35.13178661569397
-9.608746381695388 0.9155198249685483 29.83082530601827
3.499256336366099 8.959570872310428 30.25773749174219
4.907202546853669 7.946758631502941 33.8012189254469
-6.584019824919031 8.972634416772106 11.06548056173142
-1.848945242637298 -7.203742880283678 57.97538734268333
-4.972161869345267 -5.375478562859122 59.4340038945272
-6.86825053869071 -3.062594628492174 56.92214870301156
-6.869398905340874 -2.223474683298005 60.73206772106311
-5.224782589894274 -4.690135882552434 63.26302908326927
-6.796410237221163 -1.311630367278488 64.52441842846341
-6.963190942172202 1.535165830106863 61.87399375104721
-5.427737284004232 -3.962036704852788 67.08907594488754
-6.394269015082482 2.412846213318648 65.63565482103132
-5.154076129217688 4.813357444762727 62.86831311143214
-4.099891085855669 5.374250035291595 66.58608572385749
-5.68248290580389 3.235536944094318 69.38781624368653
-6.056692117209741 4.157758826252419 59.1288291096736
-3.142102088019969 6.563744429729598 60.01069128848769
-4.295916648997987 6.231881187726136 56.29994927096656
-0.7193765524364334 7.473533278389874 57.07530848631848
-3.090534989630832 5.684584950704537 70.26039032003601
-4.824120590248929 3.967758067439324 73.10872777916524
-6.306890361948573 0.4798088883763985 72.10624780788385
-5.870444493346903 1.381103503090712 75.84691306757077
-5.679949935475919 -2.281518092772112 74.699243037424
-5.65475083514795 -1.433579285599795 78.35103162838479
-5.286263675995431 2.233893130663123 79.55494139623761
-3.776697874476435 -4.565033255780757 77.19303480301188
-3.449629298891807 -5.180234118946496 73.39451750040077
-0.1232440508472278 6.709749582658464 67.20462437996987
0.8085362212716013 7.180159134476331 60.6652770567478
5.563381155388109 -8.703383642817334 21.22477617170413
3.086379481394043 6.791403987987529 57.688463433231
-2.636402088758987 -6.300370220869413 65.69444495735736
6.09596000846257 8.778358171677462 16.67829401258086
2.613857189375318 8.712439996033394 36.89767024403368
-3.468506773340017 8.198937744576906 39.35845889117334
-3.668713622960605 -7.710836144392037 43.97473665831902
-1.240961417273571 6.062681410679423 73.84358829278938
-4.095098096382247 -3.866048739350529 80.91679232906084
-1.058562194495957 -5.640816287860443 79.54995979137847
-1.613527117305174 -5.196442879282069 83.33765304514722
0.7984061043729135 -9.243802736110407 34.58351107033198
4.909963547147981 -5.929004610007932 54.66074450396032
8.240780388437374 7.188632263480082 13.52474698906571
6.701688046856431 8.989256956422896 10.00658551959277
-9.185884323321934 3.606598076286364 27.08280657568902
-2.843142488676265 -8.703933714091878 36.12979547059219
-10.89226480394028 2.903800358830811 9.241378370223474
-11.30653649815278 -1.048979377778072 8.194326934825325
-10.50954295256663 -3.747107609496669 10.70412210359406
5.170512952806249 6.757323963660728 44.36292303722971
5.669076151082156 5.974305025157224 47.82688825982419
6.709189073212869 6.072498946315203 37.49315944359804
7.508049415219423 5.506262177912789 34.17039060533578
4.543473537786211 5.546621282499985 61.37162506402861
3.64582215164388 -5.710334629955913 66.39056139115289
3.237999296782435 -5.597083621042493 70.31335793637429
6.137369826446847 4.171553106325613 58.1834898711534
-4.845037356769359 7.825676089831042 35.52518364361209
-9.154447276706643 1.888675657932795 33.70644026552786
-3.268161776651466 -8.224933517252452 40.01886477038911
-0.1569465987350728 -8.663453275712001 42.37678390846447
-0.594658627011358 -8.332133397268574 46.33537841088289
4.681842145680577 -3.240313106090607 80.12796151780339
5.039819681495067 3.257890743426709 76.22279286887505
2.284701350916046 5.401979773426776 77.94929399848589
2.194580470346426 5.108474722082602 81.82898982841604
1.689682490859397 4.901409064438083 86.59938654007998
-1.642375542801956 5.501630824328872 79.52121038091724
1.872689602750014 5.885243107750092 74.00085739605782
3.048539895427383 5.726056957142096 70.04915513482671
2.952811638216449 -7.955596916247864 44.65078418266706
-3.079633421895907 -5.754711759830976 69.54191463987586
4.395155076098528 3.116451303641386 84.01447175584306
1.765358771849156 -4.868977507756309 86.66731426269013
5.407025339138153 -3.236687614586039 72.40311433207026
-2.022572090719326 7.530217097045121 53.40274575561038
5.74124584272374 3.287308356147871 68.41323689253916
6.786107291256878 -3.27008826574276 56.75976317967716
8.440423489235949 -3.330187450135498 37.1829613028284
6.854065355277794 -6.195382669370924 35.0805541206006
4.34765609915835 -8.341944813598761 32.94819663584752
-0.3822056233994792 10.476430095692 19.27023426713034
9.42150796410257 3.359526804318488 25.37986500262666
7.60196922101851 6.282548912960122 27.16501997056178
7.979997337026695 6.303663003539951 23.2600855925807
5.70061736636502 8.261631694296758 24.93580630902117
5.921170483537547 8.486424025750736 20.99154128235338
-8.144649954263159 -2.844476103320384 42.85711675750343
1.756207269170255 -7.354487793552074 56.39945360077123
10.06601973382255 -3.368964047389828 17.60022003465404
8.676540207272545 -6.394259066004135 15.52485135573326
9.048305128668227 -6.406254935261809 11.60628954573093
6.46308217814357 -8.833153407588183 13.40330152323053
6.801138654117796 -8.957772596398055 9.566547598640778
3.65176697704675 -10.50095761447609 11.2093932262028
4.084253884845535 -10.67041767521519 7.301442316173469
0.552071299325367 -11.28319020318566 8.936423953179958
0.695172744193794 -11.57654659674226 5.115512827677525
3.220315469418082 -10.31874385108707 15.12578688432515
0.1308797750421859 -10.98862029522464 12.84089446752088
-3.096847990950378 -10.73513545425275 10.50935522229352
6.042605490900387 -8.753313932388101 17.32583377377633
-3.528275361302766 -10.28191585114138 14.35238859368055
-6.355295890198772 -9.067392289434663 11.78091249723363
-5.849861876780171 -9.756354215762915 7.932047404910554
-8.638293959398936 -7.248417869521442 9.192808481349681
-7.861188704264696 -8.49499775441655 5.4096602832164
9.08293321372456 -6.939926306689092 7.232891805865513
10.13693252419194 4.082548988601254 13.61906135401581
7.913003005542586 -6.374381795139993 23.36518565175265
9.391693955794436 -3.436980807955708 25.40176692551899
10.68440983831506 -3.481633334605299 9.69018959319707
3.667623427496036 8.000617825997612 40.64444474387283
-10.48208639674238 -2.823851816322911 14.5385092946297
-4.82129858108391 -8.706915313388974 26.01401490734948
-5.226239083022155 -8.109519010449228 29.88896459980392
-2.334620902894141 -6.741517934186857 61.82432897246302
-6.802665563697106 -3.862024157200969 53.08018400083202
-7.722367285165023 -0.2503705363415927 54.30092004682945
-7.400046216628886 0.6021138202613794 58.13721853991523
-1.853042126503651 6.736696680053146 63.69740615565448
-6.836678073205633 3.414269270372368 55.37593665597886
-6.613151648188143 -0.3749983469991419 68.31141245823407
-5.620473075927244 -3.11035546533474 70.85350361869563
-9.109941750348467 -5.508769668281898 17.20404250292098
-7.606788719339405 -6.248100379943331 27.39608955516963
-7.848368734613044 -5.422344201597525 31.2658490107698
-9.795986156945341 2.719203275432727 23.29827055472749
-6.298243777775219 -6.041463860588752 41.58258076378885
-8.054123267915674 6.074733086974433 24.29203428874101
-7.068954002263387 6.777060057988355 28.04531552762106
-8.498500907647967 4.399694282970938 30.87811724967254
7.580311732836834 3.777563992074729 44.86024190387938
-8.362287544064095 6.998194868800554 13.92287258870085
3.674037623406623 5.689772357129296 66.41670828089011
0.2615947165619409 8.845603687488074 40.03126692338915
-6.350772721187698 5.119869460068257 48.82314685067171
-5.372607011065818 5.739559856420821 52.58117668919582
-3.276080115835978 7.395797094128918 49.6950705440028
-3.701154173506059 4.673816589763242 76.72255802702612
-3.799821580346403 3.929280809219813 83.02148662783841
-4.734563261373067 2.08986577149518 86.71616051827439
-5.40836210710744 0.3838896440822346 83.58180383873324
1.779364420562236 7.532672696267982 54.12868195819207
3.826863528919582 7.034620413634514 50.72102346526408
-8.916768815726861 -6.383441343448724 13.13593686139819
-0.6213194243269002 -6.007924000320925 75.72941293328198
-1.234553379756992 9.061992285930009 36.26732174301701
3.553947440751215 10.67635058259157 9.500006458362472
2.664685692378721 -10.15891907993423 19.02652506251889
1.321637931911233 -9.487680862436298 30.75802488504408
4.519417120187243 -5.850602902256269 58.53900074176764
-6.63993108189772 6.023065152767335 38.56703515015499
-6.010842641862121 -6.755695728477205 37.57659971650683
-9.243946642731744 6.318911634217558 10.19945977110546
-7.859953462407109 8.289806911413441 7.323227919465192
-4.413621710306367 10.46106761068877 8.207829918052893
-2.049543144259177 11.40808304270288 5.200288212370042
8.321157351624635 -6.359909661867558 19.3985035134382
9.75160593521146 3.347213161875277 21.47252825639078
8.36974874879583 6.288984929124593 19.45073290169447
-9.243300646286917 -1.858727529356232 32.6761195266275
4.427043393959678 -10.85751794253558 3.489446788885277
-9.217471319926023 7.184905737503438 3.977760190497869
2.062913731278302 11.35261541515606 5.863634013852364
-5.634422528122069 -7.448022273443644 33.8092842679449
-2.377971051817365 -9.15177717446244 32.32872641311602
7.122125956370307 -3.292890703204697 52.77502294389735
7.945744174744589 8.632410223959873 3.397934798244218
8.992784199502282 7.111972149434871 6.795552874748522
-11.73673621825996 0.02571422479438976 3.344725591320318
-2.065605485597664 -4.725264458924056 86.94831110865535
6.859228543081919 6.674291042485446 30.86925516803027
-10.45037716716448 -4.720628625333373 6.770950824463661
5.063907212365243 5.798301755088669 54.65858080668045
0.7828146249731821 -6.906934523121077 64.15166975826187
2.785982814333793 -5.496177291853837 74.179420141338
2.387762211360001 -5.3578729803846 77.9417495045395
-0.1534342089567719 -6.335692733260188 71.94824453313308
8.46748881804511 3.228517762827158 37.32953266161067
-7.628848411003484 5.254285031538966 34.77436510540356
1.242480533870564 -7.15505562567333 60.20030533821014
2.261594848547802 9.666049731168975 26.33868267514158
0.3024038628871168 -6.633087265217537 68.10554943365709
2.013665268376235 -5.183992811662745 81.81078746136922
10.96889972113991 3.513122029852268 6.127444545292837
10.23355556339068 -5.767975609078225 3.212942893686346
6.316593276710679 9.598981024664113 6.469279211480744
-2.44770619123781 -11.18469704853987 6.996062237415197
-6.873933111475134 -9.537580209333331 3.093366197521196
9.044713799668651 6.566188026929878 10.45928465855361
-10.12725620402121 5.359903255458917 6.884480165313871
2.743868032052179 10.09657117440593 19.53235595865188
1.093435851917694 6.882035570112666 63.93307128285446
6.537220007552706 2.973677049557176 61.22125735946742
7.611725699359648 2.926485466816484 48.85640089323691
-0.6358705557123284 5.358469414872449 83.9109403440127
0.6349848440151725 11.77146906570323 2.686307380036512
8.536595099680895 6.478175119375727 16.31028920746138
-4.250749379478618 -3.30909946074609 84.02702760128774
-11.41622635491745 1.55016272581782 6.086389158966842
-0.004795144468308471 6.411400027587029 71.00987265372696
6.778774726268892 -9.283003987616819 6.421649182511891
9.045111093514567 2.500590949182723 33.23433121578628
4.315081948340458 2.79951163583439 87.11810989700997
-9.514174564125643 -6.920414469002414 2.987886434062975
6.418572391693136 5.919663462014523 41.52921531762413
4.326193519401218 -2.783957517392793 87.10678197913087
11.42788698796132 -2.83397060423707 2.871108874984216
-0.6782105451854044 5.926486513252602 76.6798294004916
11.4373054853514 2.803594414356152 2.847310718600158
-2.90127591950284 11.45687951123684 2.305881662103326
7.055874321022205 2.893171605391841 55.57699918796771
5.409929079852004 8.175702601964753 27.90863860149983
0.9880940261269713 -11.79054933760022 2.136167595334329
-5.356522206052866 -1.655347805681845 81.23750044072261
6.301190695102874 4.951440083435439 50.64886079841116
3.73549764926056 9.497926336494983 22.79361699605123
-11.4275963698692 -1.842029425362941 5.398816343814301
-5.281267660920584 -10.29392588806064 5.468171672554818
5.58083616302953 5.064179311411108 5.895385304716285
5.362131490594205 4.450468958027335 13.10723805307428
4.499866303651656 4.513687676854983 20.66597320849741
3.476341664315992 6.373818190107736 9.400045321833138
3.355476546809414 5.761984826120425 16.92707717574725
3.160356698543297 5.185771092247823 24.48616703303373
3.86416327092761 4.299844639799299 28.19456200741519
3.713200675209405 6.745843553167677 3.808342939502527
5.884309066735442 4.259803132793423 9.347113992584379
2.709414755878326 6.413984141769541 13.17929796492762
2.652653188355317 4.874189583671679 31.13959676769228
5.487152299409312 3.789296338230943 16.9195359857483
2.693656288461951 6.981463483396568 6.567980741763683
6.320219242875588 4.498653840045991 3.077772971944928
2.205411289152976 5.973034287059927 20.74694881303635
4.399924921583344 3.26893643552662 32.00238182370261
5.099433280315621 3.30274832002403 24.45239459134865
-3.921412071365658 1.5 9.377921255501743
3.163124489663475 1.5 16.73507484181123
-2.720960111556003 1.5 24.29862244514669
-1.77635683940025e-15 1.5 31.05062222974496
3.825320430676405 1.5 9.269910320587456
-3.238226717372537 1.5 16.73786815866707
1.931596494944211 1.5 3.654669206561556
-3.54510203659753 1.5 4.028702922910798
2.720960111556009 1.5 24.29862244514669
2.054271082900506 1.5 28.20567003096175
-2.152524330529118 1.5 28.17849530217017
-3.581444785896537 1.5 12.99514646611684
0.01486205604597313 1.5 10.48116304974238
-1.2941325566721 1.5 6.295550454431671
3.220355426284701 1.5 12.91678601353901
3.042453815438815 1.5 20.52422866438457
-3.054970853390325 1.5 20.52469421719388
-0.07011784750195638 1.5 18.55021446384139
-0.0819078964628126 1.5 14.73604216561965
4.496822578651358 1.5 5.740156046480363
-0.01377248090890859 1.5 22.36248630898962
-0.0114311967895393 1.5 25.71845586733598
2.823473894977986 1.5 31.38674066326623
-2.837221576324024 1.5 31.41370504153319
4.90276576619314 1.5 2.741798022055987
-0.8416798756652764 1.5 2.754387034256215
-4.691255553466416 1.5 6.581521580877919
1.794893800729169 1.5 7.088289815560685
-5.905876929872631 4.71942910429821 5.591744080290969
-5.362131490594183 4.450468958027359 13.10723805307428
-4.446424199877462 4.565086836959432 20.67740442216202
-3.672699685089069 6.246944903204033 9.573001898616571
-3.422315150569905 5.722942262183244 16.92267807626934
-3.160356698543385 5.185771092247771 24.48616703303371
-3.864163270927594 4.299844639799313 28.1945620074152
-3.71320067520969 6.745843553167512 3.808342939502603
-5.884309066733527 4.259803132796241 9.347113992583099
-2.709414755877229 6.413984141769956 13.17929796492819
-2.825803415714829 4.786349415656774 31.02518955030903
-5.487152299408713 3.789296338231896 16.9195359857477
-3.709235508957359 6.497296104421538 6.587791413992796
-6.344192409073243 4.469749405379141 3.04143586837433
-2.205411289111783 5.973034287075018 20.74694881303775
-4.485954998450787 3.138216368989721 32.08714808715749
-5.061585354653977 3.333911659155079 24.63849212516542
0.5473750369420712 1.321480237890017 90
-0.7398602367303317 -1.78618061777492 90
2.201188615676791 -0.935382126248411 90
-2.217890441286627 0.8950603523447548 90
-9.992007221626409e-16 3.032951985761332 34
-6.661338147750939e-16 -1.798561299892754e-14 42.33796473451041
-0.01387179600266109 -0.01206750187827499 50.461130461408
-0.02455726801196523 -0.02028501282615713 58.157778598909
0.05348549752460086 -0.008732632451643241 65.03185989099823
-0.02063234443791551 -0.03317794786136652 72.15656754547453
0.009208657338148463 -0.04526323798769515 78.30095301721316
-1.744992442432876 3.259077352564553 38.80285723031002
-1.744992442432885 -3.259077352564568 38.80285723031002
-0.2190106719194773 -0.1814979894831552 85.07222596149603
3.40564809919727 2.155414432906169 38.94345629114567
-2.676976901695758 2.172522128133924 46.49220745550334
1.298444549415191 -3.12679948419729 46.39714066995446
2.984884263101 -2.591232255465478 38.48178240651345
2.672202670335562 1.924244361816513 46.40699027492366
2.89079286351383 -1.195141731260486 54.31223582410625
-2.206939225992737 2.343383273934752 54.16208060989758
-1.75507385258152 -2.447243064208164 54.22900753200037
-4.793770569025232 7.283063041541027e-14 38.23029790362878
-3.265633239575741 -2.419258027717882 46.96820237300378
4.282280838645029 -1.516230525881872 42.71759868332397
-4.440892098500626e-16 -1.77635683940025e-14 37.2880856259554
-4.349784661268364 1.307512336061722 42.46049219165047
-0.06969117104716993 4.42695389489999 42.75311796664081
0.935547777685943 -4.37112602716665 42.1561186573126
-1.298981508736915 2.708157070662941 61.61989272373749
-2.515236228403379 -1.59180100070736 61.52017569915496
-2.320902599073889 -1.259405663056267 68.62017986092846
-3.549812634309336 -2.918324185947335 42.69915288594213
1.90954442208363 3.297909941237876 52.74407260939117
2.785454238886576 -0.8626160307238541 61.56478496593905
4.056262581956116 -0.7750874969904382 49.41406829575902
0.742301007290977 -4.160289456081326 50.44712113774579
2.508250586863847 -0.358485806179329 68.61897790321454
-4.146281614446112 0.5905471606647552 50.08648277740094
0.1318980388552561 4.06608891523741 49.00030456904376
-0.3610666268998175 2.725328261751536 68.97188797192018
1.686071692866438 1.107696342508258 81.77152000519281
0.6802522336167408 3.687962696418658 56.67349308820301

CELLS 3335 15179
1 0
1 1
1 2
1 3
1 4
1 5
1 6
1 7
1 8
1 9
1 10
1 11
2 0 12
2 12 13
2 13 14
2 14 15
2 15 16
2 16 1
2 0 17
2 17 18
2 18 19
2 19 1
2 2 20
2 20 21
2 21 22
2 22 23
2 23 24
2 24 25
2 25 26
2 26 27
2 27 0
2 2 28
2 28 29
2 29 30
2 30 3
2 1 31
2 31 32
2 32 33
2 33 34
2 34 35
2 35 36
2 36 37
2 37 38
2 38 3
2 2 39
2 39 40
2 40 3
2 4 41
2 41 42
2 42 43
2 43 44
2 44 45
2 45 46
2 46 47
2 47 48
2 48 49
2 49 50
2 50 51
2 51 52
2 52 53
2 53 54
2 54 55
2 55 56
2 56 57
2 57 58
2 58 4
2 5 59
2 59 60
2 60 6
2 5 61
2 61 62
2 62 63
2 63 7
2 6 64
2 64 65
2 65 7
2 8 66
2 66 67
2 67 68
2 68 69
2 69 70
2 70 71
2 71 72
2 72 8
2 4 73
2 73 74
2 74 75
2 75 76
2 76 77
2 77 78
2 78 79
2 79 80
2 80 81
2 81 82
2 82 83
2 83 84
2 84 85
2 85 86
2 86 87
2 87 88
2 88 89
2 89 90
2 90 91
2 91 92
2 92 93
2 93 94
2 94 8
2 9 95
2 95 96
2 96 97
2 97 98
2 98 99
2 99 100
2 100 101
2 101 102
2 102 5
2 9 103
2 103 10
2 6 104
2 104 105
2 105 106
2 106 107
2 107 108
2 108 109
2 109 110
2 110 111
2 111 10
2 7 112
2 112 113
2 113 114
2 114 115
2 115 116
2 116 117
2 117 118
2 118 119
2 119 11
2 9 120
2 120 121
2 121 11
2 10 122
2 122 11
3 12 163 0
3 0 163 27
3 1 161 16
3 31 161 1
3 20 160 2
3 2 160 28
3 30 159 3
3 3 159 38
3 13 153 12
3 153 163 12
3 14 125 13
3 125 153 13
3 15 151 14
3 14 151 125
3 16 131 15
3 131 151 15
3 16 161 131
3 21 128 20
3 128 160 20
3 22 157 21
3 21 157 128
3 23 127 22
3 127 157 22
3 24 146 23
3 23 146 127
3 25 126 24
3 126 146 24
3 26 143 25
3 25 143 126
3 27 132 26
3 132 143 26
3 27 163 132
3 28 133 29
3 28 160 133
3 29 130 30
3 29 133 130
3 130 159 30
3 32 152 31
3 152 161 31
3 33 123 32
3 123 152 32
3 34 145 33
3 33 145 123
3 35 124 34
3 124 145 34
3 36 137 35
3 35 137 124
3 37 129 36
3 129 137 36
3 38 136 37
3 37 136 129
3 38 159 136
3 145 147 123
3 147 148 123
3 148 152 123
3 137 138 124
3 138 139 124
3 139 145 124
3 144 153 125
3 125 155 144
3 151 155 125
3 143 154 126
3 126 158 146
3 154 158 126
3 146 164 127
3 149 162 127
3 127 164 149
3 127 162 157
3 128 134 133
3 133 160 128
3 128 135 134
3 128 157 135
3 136 156 129
3 129 142 137
3 129 156 142
3 133 134 130
3 134 136 130
3 136 159 130
3 148 151 131
3 131 152 148
3 131 161 152
3 132 144 143
3 132 153 144
3 132 163 153
3 135 156 134
3 134 156 136
3 142 156 135
3 135 162 142
3 157 162 135
3 137 142 138
3 138 140 139
3 138 149 140
3 142 149 138
3 140 141 139
3 141 147 139
3 139 147 145
3 140 158 141
3 149 164 140
3 140 164 158
3 141 150 147
3 141 154 150
3 141 158 154
3 142 162 149
3 144 154 143
3 150 154 144
3 144 155 150
3 158 164 146
3 147 150 148
3 150 155 148
3 148 155 151
3 27 17 0
3 19 189 1
3 1 189 31
3 2 187 20
3 39 187 2
3 38 188 3
3 3 188 40
3 17 190 18
3 27 171 17
3 171 190 17
3 18 170 19
3 18 190 170
3 170 189 19
3 20 173 21
3 20 187 173
3 21 172 22
3 21 173 172
3 22 181 23
3 172 181 22
3 23 166 24
3 23 181 166
3 24 179 25
3 166 179 24
3 25 165 26
3 25 179 165
3 26 191 27
3 165 191 26
3 27 191 171
3 31 184 32
3 31 189 184
3 32 175 33
3 32 184 175
3 33 168 34
3 33 175 168
3 34 178 35
3 168 178 34
3 35 182 36
3 178 182 35
3 36 167 37
3 36 182 167
3 37 174 38
3 167 174 37
3 174 188 38
3 40 169 39
3 169 187 39
3 40 188 169
3 165 179 176
3 176 180 165
3 180 191 165
3 177 179 166
3 166 183 177
3 181 183 166
3 167 186 174
3 182 185 167
3 185 186 167
3 175 176 168
3 176 177 168
3 177 178 168
3 169 174 173
3 173 187 169
3 169 188 174
3 180 184 170
3 170 190 180
3 184 189 170
3 180 190 171
3 171 191 180
3 173 186 172
3 172 185 181
3 172 186 185
3 174 186 173
3 175 180 176
3 175 184 180
3 176 179 177
3 177 183 178
3 178 183 182
3 181 185 183
3 183 185 182
3 39 2 28
3 30 3 40
3 29 192 28
3 28 192 39
3 30 192 29
3 40 192 30
3 39 192 40
3 7 194 0
3 0 197 7
3 51 0 12
3 0 194 17
3 50 0 51
3 50 197 0
3 4 1 5
3 58 1 4
3 1 193 5
3 1 199 16
3 19 193 1
3 58 199 1
3 41 4 5
3 5 198 41
3 59 198 5
3 5 193 61
3 45 44 6
3 44 60 6
3 6 201 45
3 64 201 6
3 49 48 7
3 7 48 65
3 7 197 49
3 63 194 7
3 52 12 13
3 51 12 52
3 14 200 13
3 13 53 52
3 13 200 53
3 15 55 14
3 14 55 54
3 54 200 14
3 16 56 15
3 15 56 55
3 16 57 56
3 16 199 57
3 17 195 18
3 17 194 63
3 63 195 17
3 18 196 19
3 18 195 62
3 62 196 18
3 61 193 19
3 19 196 61
3 41 198 42
3 42 59 43
3 42 198 59
3 43 60 44
3 59 60 43
3 45 201 46
3 47 46 64
3 46 201 64
3 48 47 65
3 65 47 64
3 49 197 50
3 53 200 54
3 57 199 58
3 61 196 62
3 62 195 63
3 41 526 4
3 4 524 58
3 73 524 4
3 4 526 73
3 8 520 66
3 72 523 8
3 94 520 8
3 8 523 94
3 42 227 41
3 227 526 41
3 43 484 42
3 42 484 227
3 44 217 43
3 217 484 43
3 45 513 44
3 44 513 217
3 46 527 45
3 45 527 513
3 47 211 46
3 211 527 46
3 48 479 47
3 47 479 211
3 49 223 48
3 223 479 48
3 50 486 49
3 49 486 223
3 51 210 50
3 210 486 50
3 52 521 51
3 51 521 210
3 53 505 52
3 505 521 52
3 54 213 53
3 213 505 53
3 55 530 54
3 54 530 213
3 56 478 55
3 478 530 55
3 57 222 56
3 222 478 56
3 58 502 57
3 57 502 222
3 58 524 502
3 66 382 67
3 66 520 382
3 67 225 68
3 67 382 225
3 68 457 69
3 225 457 68
3 69 214 70
3 69 457 214
3 70 487 71
3 214 487 70
3 71 389 72
3 71 487 389
3 389 523 72
3 74 228 73
3 73 501 74
3 228 524 73
3 73 526 501
3 74 224 75
3 75 427 74
3 74 501 224
3 74 427 228
3 76 221 75
3 75 424 76
3 221 427 75
3 224 424 75
3 76 212 77
3 77 405 76
3 76 424 212
3 76 405 221
3 78 209 77
3 77 475 78
3 209 405 77
3 212 475 77
3 78 398 79
3 79 426 78
3 78 426 209
3 78 475 398
3 79 205 80
3 80 235 79
3 79 398 205
3 235 426 79
3 81 203 80
3 80 519 81
3 203 235 80
3 205 519 80
3 82 394 81
3 81 495 82
3 81 394 203
3 81 519 495
3 82 207 83
3 83 219 82
3 82 495 207
3 219 394 82
3 84 230 83
3 83 448 84
3 207 448 83
3 83 230 219
3 85 204 84
3 84 511 85
3 204 230 84
3 448 511 84
3 85 208 86
3 86 483 85
3 85 483 204
3 85 511 208
3 87 393 86
3 86 528 87
3 208 528 86
3 393 483 86
3 88 218 87
3 87 510 88
3 218 393 87
3 372 510 87
3 87 528 372
3 88 220 89
3 89 229 88
3 88 229 218
3 88 510 220
3 90 202 89
3 89 392 90
3 202 229 89
3 220 392 89
3 90 206 91
3 91 390 90
3 90 390 202
3 90 392 206
3 92 215 91
3 91 379 92
3 206 379 91
3 215 390 91
3 92 216 93
3 93 378 92
3 92 378 215
3 92 379 216
3 94 226 93
3 93 388 94
3 216 388 93
3 226 378 93
3 94 523 226
3 388 520 94
3 202 370 229
3 202 371 370
3 202 390 371
3 203 236 235
3 203 395 236
3 394 395 203
3 204 231 230
3 204 232 231
3 204 483 232
3 398 399 205
3 399 488 205
3 488 519 205
3 206 384 379
3 206 385 384
3 206 392 385
3 207 495 367
3 367 522 207
3 207 522 448
3 490 528 208
3 208 532 490
3 511 532 208
3 209 474 405
3 209 426 425
3 425 474 209
3 210 534 486
3 210 521 489
3 489 534 210
3 471 472 211
3 211 479 471
3 472 473 211
3 473 527 211
3 424 514 212
3 212 476 475
3 212 514 476
3 413 504 213
3 213 530 413
3 504 535 213
3 213 535 505
3 457 458 214
3 458 515 214
3 214 515 487
3 378 493 215
3 215 492 390
3 215 493 492
3 379 380 216
3 380 381 216
3 381 388 216
3 480 503 217
3 217 513 480
3 217 503 484
3 229 241 218
3 241 467 218
3 218 467 393
3 230 233 219
3 233 234 219
3 234 394 219
3 369 450 220
3 220 510 369
3 220 450 392
3 405 406 221
3 406 407 221
3 407 427 221
3 222 502 423
3 423 518 222
3 222 518 478
3 223 507 479
3 486 516 223
3 223 516 507
3 224 506 424
3 224 501 485
3 485 506 224
3 382 512 225
3 456 457 225
3 225 512 456
3 226 500 378
3 389 500 226
3 226 523 389
3 484 485 227
3 485 501 227
3 501 526 227
3 228 427 423
3 423 502 228
3 502 524 228
3 229 370 241
3 231 233 230
3 232 240 231
3 231 386 233
3 240 386 231
3 232 267 240
3 232 357 267
3 232 483 357
3 233 239 234
3 233 386 239
3 239 302 234
3 302 395 234
3 234 395 394
3 236 237 235
3 237 426 235
3 236 238 237
3 236 396 238
3 395 396 236
3 238 242 237
3 242 425 237
3 425 426 237
3 238 243 242
3 238 466 243
3 396 466 238
3 239 303 302
3 239 376 303
3 239 386 376
3 267 275 240
3 275 377 240
3 377 386 240
3 370 491 241
3 241 497 467
3 491 497 241
3 243 244 242
3 244 345 242
3 345 425 242
3 243 245 244
3 243 246 245
3 243 466 246
3 245 247 244
3 247 465 244
3 244 465 345
3 246 430 245
3 245 248 247
3 245 430 248
3 246 431 430
3 246 482 431
3 466 482 246
3 248 249 247
3 249 258 247
3 258 465 247
3 248 250 249
3 248 251 250
3 248 430 251
3 250 259 249
3 249 418 258
3 259 418 249
3 251 252 250
3 252 440 250
3 250 440 259
3 251 253 252
3 251 441 253
3 430 441 251
3 253 254 252
3 254 256 252
3 256 440 252
3 253 255 254
3 253 274 255
3 253 441 274
3 255 443 254
3 254 257 256
3 254 443 257
3 274 314 255
3 314 360 255
3 360 443 255
3 257 260 256
3 260 429 256
3 429 440 256
3 257 261 260
3 257 262 261
3 257 443 262
3 258 415 414
3 414 465 258
3 258 418 415
3 259 419 418
3 259 461 419
3 440 461 259
3 261 300 260
3 300 301 260
3 301 429 260
3 262 263 261
3 263 449 261
3 261 449 300
3 262 264 263
3 262 445 264
3 443 445 262
3 264 265 263
3 265 272 263
3 272 449 263
3 264 266 265
3 264 268 266
3 264 445 268
3 266 397 265
3 265 273 272
3 265 397 273
3 268 269 266
3 269 271 266
3 271 397 266
3 267 276 275
3 267 404 276
3 357 404 267
3 268 270 269
3 268 446 270
3 445 446 268
3 270 277 269
3 269 498 271
3 277 498 269
3 270 278 277
3 270 296 278
3 270 446 296
3 271 508 397
3 498 533 271
3 271 533 508
3 273 298 272
3 298 317 272
3 317 449 272
3 273 299 298
3 273 304 299
3 273 397 304
3 274 477 314
3 441 442 274
3 442 477 274
3 276 279 275
3 279 281 275
3 281 377 275
3 276 280 279
3 276 318 280
3 276 404 318
3 278 294 277
3 294 315 277
3 315 498 277
3 278 463 294
3 296 373 278
3 373 463 278
3 280 433 279
3 279 282 281
3 279 433 282
3 318 319 280
3 319 320 280
3 320 433 280
3 282 283 281
3 283 351 281
3 351 377 281
3 282 284 283
3 282 285 284
3 282 433 285
3 284 403 283
3 283 444 351
3 403 444 283
3 285 286 284
3 286 288 284
3 288 403 284
3 285 287 286
3 285 434 287
3 433 434 285
3 287 452 286
3 286 289 288
3 286 452 289
3 434 437 287
3 437 453 287
3 287 453 452
3 289 290 288
3 290 293 288
3 293 403 288
3 289 291 290
3 289 292 291
3 289 452 292
3 291 468 290
3 290 310 293
3 290 468 310
3 292 295 291
3 295 350 291
3 350 468 291
3 292 297 295
3 292 454 297
3 452 454 292
3 310 311 293
3 311 312 293
3 312 403 293
3 294 316 315
3 294 349 316
3 294 463 349
3 297 306 295
3 306 451 295
3 295 451 350
3 296 496 373
3 446 447 296
3 447 496 296
3 297 308 306
3 297 309 308
3 297 454 309
3 299 307 298
3 307 472 298
3 298 472 317
3 304 305 299
3 305 464 299
3 299 464 307
3 300 362 301
3 300 470 362
3 449 470 300
3 362 363 301
3 363 364 301
3 364 429 301
3 303 356 302
3 356 396 302
3 302 396 395
3 303 361 356
3 303 375 361
3 303 376 375
3 304 348 305
3 304 508 348
3 397 508 304
3 348 358 305
3 358 359 305
3 359 464 305
3 308 365 306
3 365 428 306
3 428 451 306
3 464 480 307
3 307 473 472
3 307 480 473
3 309 460 308
3 308 366 365
3 308 460 366
3 309 454 391
3 391 459 309
3 459 460 309
3 310 374 311
3 310 496 374
3 468 496 310
3 311 313 312
3 311 477 313
3 374 477 311
3 313 469 312
3 312 444 403
3 312 469 444
3 313 477 442
3 442 481 313
3 313 481 469
3 314 447 360
3 374 447 314
3 314 477 374
3 316 488 315
3 488 529 315
3 315 529 498
3 349 367 316
3 367 368 316
3 368 488 316
3 317 470 449
3 317 471 470
3 317 472 471
3 318 432 319
3 404 497 318
3 318 497 432
3 319 321 320
3 319 322 321
3 319 432 322
3 321 435 320
3 320 434 433
3 320 435 434
3 322 323 321
3 323 324 321
3 324 435 321
3 322 325 323
3 322 347 325
3 322 432 347
3 323 326 324
3 325 438 323
3 323 438 326
3 326 327 324
3 327 330 324
3 330 435 324
3 347 387 325
3 387 439 325
3 325 439 438
3 326 328 327
3 326 329 328
3 326 438 329
3 328 436 327
3 327 331 330
3 327 436 331
3 329 334 328
3 334 343 328
3 343 436 328
3 329 335 334
3 329 336 335
3 329 438 336
3 331 332 330
3 332 437 330
3 330 437 435
3 331 333 332
3 331 344 333
3 331 436 344
3 333 391 332
3 391 453 332
3 332 453 437
3 344 346 333
3 346 459 333
3 333 459 391
3 335 352 334
3 334 517 343
3 352 517 334
3 336 337 335
3 337 455 335
3 335 455 352
3 336 338 337
3 336 439 338
3 438 439 336
3 338 339 337
3 339 340 337
3 340 455 337
3 338 341 339
3 338 342 341
3 338 439 342
3 339 531 340
3 341 353 339
3 353 531 339
3 383 455 340
3 340 456 383
3 340 458 456
3 340 531 458
3 342 462 341
3 341 354 353
3 341 462 354
3 342 439 387
3 387 494 342
3 342 494 462
3 385 450 343
3 343 517 385
3 343 509 436
3 450 509 343
3 344 369 346
3 344 509 369
3 436 509 344
3 345 465 417
3 417 474 345
3 345 474 425
3 369 372 346
3 372 490 346
3 346 490 459
3 347 499 387
3 432 491 347
3 491 499 347
3 348 514 358
3 402 476 348
3 348 508 402
3 476 514 348
3 349 428 367
3 349 451 428
3 349 463 451
3 350 463 373
3 373 468 350
3 451 463 350
3 375 376 351
3 351 444 375
3 376 377 351
3 384 517 352
3 352 525 384
3 455 525 352
3 354 355 353
3 355 515 353
3 515 531 353
3 354 500 355
3 462 493 354
3 493 500 354
3 389 487 355
3 355 500 389
3 487 515 355
3 361 482 356
3 356 466 396
3 356 482 466
3 393 467 357
3 357 483 393
3 357 467 404
3 358 506 359
3 424 506 358
3 358 514 424
3 359 503 464
3 485 503 359
3 359 506 485
3 360 445 443
3 360 446 445
3 360 447 446
3 375 469 361
3 469 481 361
3 481 482 361
3 362 516 363
3 470 507 362
3 507 516 362
3 363 489 364
3 363 534 489
3 516 534 363
3 421 461 364
3 364 489 421
3 364 461 429
3 366 448 365
3 365 522 428
3 448 522 365
3 366 511 448
3 460 532 366
3 366 532 511
3 367 495 368
3 428 522 367
3 368 519 488
3 495 519 368
3 369 510 372
3 369 509 450
3 371 499 370
3 370 499 491
3 390 492 371
3 492 494 371
3 494 499 371
3 372 528 490
3 373 496 468
3 374 496 447
3 444 469 375
3 376 386 377
3 378 500 493
3 379 384 380
3 380 383 381
3 380 525 383
3 384 525 380
3 382 388 381
3 381 512 382
3 383 512 381
3 382 520 388
3 383 525 455
3 456 512 383
3 385 517 384
3 392 450 385
3 387 499 494
3 391 454 453
3 398 400 399
3 398 475 400
3 400 401 399
3 401 529 399
3 399 529 488
3 400 402 401
3 400 476 402
3 475 476 400
3 402 533 401
3 498 529 401
3 401 533 498
3 508 533 402
3 467 497 404
3 405 474 406
3 406 408 407
3 406 417 408
3 406 474 417
3 408 409 407
3 409 423 407
3 423 427 407
3 408 410 409
3 408 414 410
3 408 417 414
3 410 411 409
3 411 518 409
3 409 518 423
3 410 412 411
3 410 415 412
3 414 415 410
3 412 413 411
3 413 478 411
3 478 518 411
3 412 504 413
3 415 416 412
3 416 504 412
3 413 530 478
3 417 465 414
3 415 418 416
3 418 419 416
3 419 420 416
3 420 504 416
3 419 421 420
3 419 461 421
3 421 422 420
3 422 535 420
3 420 535 504
3 421 489 422
3 489 521 422
3 422 521 505
3 505 535 422
3 429 461 440
3 431 441 430
3 431 442 441
3 431 481 442
3 431 482 481
3 432 497 491
3 435 437 434
3 453 454 452
3 456 458 457
3 458 531 515
3 459 490 460
3 490 532 460
3 492 493 462
3 462 494 492
3 464 503 480
3 471 507 470
3 479 507 471
3 480 513 473
3 513 527 473
3 484 503 485
3 486 534 516
3 59 5 549
3 5 102 549
3 60 104 6
3 95 9 551
3 9 103 551
3 103 10 546
3 10 111 546
3 60 59 543
3 543 59 549
3 104 60 543
3 96 95 542
3 542 95 551
3 97 96 552
3 96 542 552
3 98 97 538
3 538 97 552
3 99 98 547
3 98 538 547
3 100 99 537
3 537 99 547
3 101 100 544
3 100 537 544
3 102 101 536
3 536 101 544
3 102 536 549
3 103 546 551
3 105 104 548
3 104 543 548
3 106 105 539
3 539 105 548
3 107 106 545
3 106 539 545
3 108 107 540
3 540 107 545
3 109 108 550
3 108 540 550
3 110 109 541
3 541 109 550
3 111 110 542
3 110 541 542
3 111 542 546
3 539 536 544
3 536 539 548
3 543 536 548
3 536 543 549
3 537 539 544
3 539 537 545
3 537 540 545
3 540 537 547
3 538 540 547
3 540 538 550
3 538 541 550
3 541 538 552
3 542 541 552
3 546 542 551
3 5 61 577
3 102 5 577
3 7 112 63
3 9 95 575
3 120 9 575
3 119 11 576
3 11 121 576
3 61 62 559
3 61 559 577
3 62 63 578
3 559 62 578
3 63 112 560
3 63 560 578
3 95 96 562
3 95 562 575
3 96 97 561
3 96 561 562
3 97 98 568
3 561 97 568
3 98 99 554
3 98 554 568
3 99 100 567
3 554 99 567
3 100 101 557
3 100 557 567
3 101 102 572
3 557 101 572
3 572 102 577
3 112 113 579
3 560 112 579
3 113 114 553
3 113 553 579
3 114 115 564
3 553 114 564
3 115 116 558
3 115 558 564
3 116 117 569
3 558 116 569
3 117 118 555
3 117 555 569
3 118 119 563
3 555 118 563
3 563 119 576
3 121 120 556
3 556 120 575
3 121 556 576
3 553 564 565
3 553 565 566
3 553 566 579
3 554 567 571
3 568 554 570
3 570 554 571
3 555 563 574
3 569 555 573
3 573 555 574
3 556 562 563
3 562 556 575
3 556 563 576
3 557 565 567
3 565 557 580
3 557 572 580
3 564 558 571
3 558 569 570
3 558 570 571
3 566 559 578
3 559 566 580
3 559 572 577
3 572 559 580
3 560 566 578
3 566 560 579
3 562 561 574
3 561 568 573
3 561 573 574
3 563 562 574
3 565 564 571
3 566 565 580
3 567 565 571
3 568 570 573
3 570 569 573
3 6 104 64
3 7 65 594
3 112 7 594
3 111 10 591
3 10 122 591
3 11 119 596
3 122 11 596
3 65 64 588
3 64 104 588
3 65 588 594
3 104 105 593
3 588 104 593
3 105 106 584
3 105 584 593
3 106 107 590
3 584 106 590
3 107 108 585
3 107 585 590
3 108 109 595
3 585 108 595
3 109 110 586
3 109 586 595
3 110 111 587
3 586 110 587
3 587 111 591
3 113 112 581
3 581 112 594
3 114 113 589
3 113 581 589
3 115 114 582
3 582 114 589
3 116 115 592
3 115 582 592
3 117 116 583
3 583 116 592
3 118 117 597
3 117 583 597
3 119 118 587
3 587 118 597
3 119 587 596
3 591 122 596
3 581 588 593
3 588 581 594
3 589 581 593
3 584 582 589
3 582 584 590
3 585 582 590
3 582 585 592
3 585 583 592
3 583 585 595
3 586 583 595
3 583 586 597
3 584 589 593
3 586 587 597
3 587 591 596
3 66 600 8
3 8 600 72
3 67 598 66
3 598 600 66
3 68 601 67
3 67 601 598
3 69 601 68
3 70 601 69
3 71 599 70
3 599 601 70
3 72 600 71
3 71 600 599
3 599 600 598
3 598 601 599
3 120 103 9
3 10 103 602
3 122 10 602
3 122 121 11
3 103 120 602
3 120 121 602
3 121 122 602
4 497 467 404 605
4 318 497 404 605
4 341 462 607 608
4 525 455 607 608
4 404 605 467 617
4 320 435 605 619
4 341 607 338 608
4 318 605 404 619
4 435 618 605 619
4 342 341 462 607
4 492 607 462 608
4 492 215 607 608
4 91 607 215 608
4 612 616 522 625
4 330 605 435 618
4 342 338 341 607
4 404 605 617 619
4 29 610 303 615
4 497 605 318 628
4 319 619 320 628
4 455 337 607 608
4 320 605 435 628
4 279 619 621 636
4 525 455 352 607
4 338 607 337 608
4 448 616 612 622
4 434 618 435 619
4 320 434 435 619
4 279 621 619 634
4 497 467 605 632
4 448 522 612 616
4 365 522 616 625
4 492 462 493 608
4 320 619 605 628
4 467 393 617 632
4 372 617 605 640
4 467 617 605 632
4 525 607 384 608
4 279 621 282 636
4 492 493 215 608
4 29 303 302 615
4 605 618 330 640
4 469 28 2 620
4 122 468 11 609
4 469 610 28 620
4 433 619 279 636
4 87 605 372 617
4 433 279 282 636
4 605 628 497 632
4 606 627 220 632
4 619 634 621 636
4 531 608 458 639
4 91 379 607 608
4 491 497 628 632
4 91 215 92 608
4 605 330 627 640
4 458 608 456 639
4 9 3 82 612
4 29 302 30 615
4 82 612 3 615
4 509 220 606 627
4 455 337 335 607
4 325 347 322 628
4 603 616 612 625
4 330 618 332 640
4 531 458 611 639
4 11 609 468 620
4 432 491 497 628
4 525 384 380 608
4 324 435 330 628
4 103 10 602 612
4 612 616 603 622
4 404 617 267 619
4 627 632 605 640
4 491 347 499 606
4 87 372 605 632
4 494 607 371 629
4 351 614 626 630
4 351 621 614 630
4 372 605 632 640
4 370 241 491 632
4 448 365 522 616
4 339 338 337 608
4 494 371 499 629
4 349 451 609 612
4 393 87 617 632
4 491 499 370 606
4 215 91 390 607
4 394 82 3 615
4 528 617 372 640
4 384 607 379 608
4 215 390 492 607
4 339 341 338 608
4 437 330 435 618
4 323 325 628 629
4 619 604 634 636
4 207 448 612 622
4 352 384 525 607
4 267 619 617 634
4 605 617 87 632
4 351 377 614 621
4 355 354 353 608
4 432 497 318 628
4 103 349 10 612
4 10 609 602 612
4 491 628 606 632
4 351 614 377 626
4 370 491 606 632
4 347 606 491 628
4 331 330 332 640
4 369 220 627 632
4 469 2 312 620
4 349 609 10 612
4 491 241 497 632
4 621 634 604 636
4 303 615 610 626
4 324 330 627 628
4 528 87 372 617
4 326 606 323 628
4 9 120 40 612
4 455 335 352 607
4 3 9 82 81
4 370 606 499 635
4 522 207 448 612
4 499 606 347 629
4 331 627 330 640
4 288 613 284 624
4 218 393 467 632
4 11 468 310 620
4 371 629 607 635
4 404 357 267 617
4 453 636 454 637
4 453 618 636 637
4 613 621 284 624
4 361 303 29 610
4 319 318 280 619
4 458 456 611 639
4 321 320 435 628
4 462 492 494 607
4 91 92 379 608
4 371 499 629 635
4 40 612 120 623
4 509 369 220 627
4 326 627 606 628
4 337 338 336 607
4 326 324 627 628
4 469 2 28 313
4 326 323 606 629
4 28 361 29 610
4 353 531 515 611
4 342 462 494 607
4 288 286 284 613
4 469 312 610 620
4 313 469 2 312
4 606 629 499 635
4 326 323 324 628
4 319 280 320 619
4 369 632 627 640
4 458 531 340 608
4 303 239 615 626
4 468 122 11 496
4 323 325 322 628
4 456 458 340 608
4 230 622 614 633
4 29 192 610 615
4 453 452 454 636
4 323 628 606 629
4 276 404 267 619
4 329 607 336 629
4 326 629 606 638
4 335 336 329 607
4 40 3 9 612
4 384 379 380 608
4 404 467 357 617
4 435 434 437 618
4 373 122 463 609
4 328 606 326 627
4 432 347 491 628
4 370 606 229 632
4 328 606 436 638
4 372 632 369 640
4 326 606 328 638
4 281 621 279 634
4 452 454 636 637
4 230 614 231 633
4 89 606 220 632
4 618 619 434 636
4 436 606 328 627
4 303 239 302 615
4 371 494 492 607
4 90 390 91 607
4 500 608 355 639
4 89 229 606 632
4 40 3 612 615
4 220 450 509 606
4 328 436 343 638
4 335 337 336 607
4 329 629 326 638
4 297 625 308 637
4 204 230 231 633
4 436 606 343 638
4 371 492 390 607
4 291 292 289 624
4 434 619 433 636
4 308 625 616 637
4 370 229 241 632
4 9 82 495 612
4 229 89 606 635
4 372 510 369 632
4 387 342 494 629
4 286 284 613 621
4 229 606 370 635
4 103 602 120 612
4 439 338 342 607
4 439 336 338 607
4 284 624 621 630
4 463 122 10 609
4 292 613 289 624
4 612 615 82 622
4 468 609 291 624
4 89 220 606 635
4 532 631 616 633
4 342 607 494 629
4 349 451 463 609
4 327 328 326 627
4 355 500 354 608
4 40 615 612 623
4 329 607 629 638
4 509 606 436 627
4 335 607 329 638
4 349 428 451 612
4 349 463 10 609
4 528 631 617 640
4 394 3 30 615
4 81 82 3 394
4 452 636 613 637
4 329 326 328 638
4 84 622 230 633
4 373 468 122 609
4 288 624 284 630
4 613 614 603 616
4 29 30 192 615
4 354 462 341 608
4 610 620 312 630
4 436 509 343 606
4 403 288 284 630
4 604 614 613 616
4 291 624 609 625
4 365 616 308 625
4 602 612 609 623
4 276 619 267 634
4 11 310 468 496
4 394 30 3 395
4 603 614 613 621
4 354 493 462 608
4 290 468 291 624
4 532 616 631 637
4 353 515 355 611
4 351 281 377 621
4 275 377 281 634
4 403 624 288 630
4 494 499 387 629
4 219 82 615 622
4 319 432 318 628
4 84 616 622 633
4 297 613 292 625
4 121 122 11 609
4 390 607 90 635
4 469 361 28 610
4 9 495 82 81
4 218 87 393 632
4 232 617 633 634
4 383 456 608 639
4 357 267 617 634
4 87 510 372 632
4 327 326 324 627
4 497 241 467 632
4 613 614 604 621
4 297 613 625 637
4 30 395 394 615
4 390 371 607 635
4 365 308 306 625
4 602 120 612 623
4 500 355 611 639
4 403 620 293 624
4 620 624 403 630
4 232 617 483 633
4 326 438 323 629
4 321 319 320 628
4 444 610 312 630
4 297 306 308 625
4 208 617 631 633
4 357 617 232 634
4 452 613 454 637
4 89 220 88 632
4 275 281 279 634
4 233 614 231 622
4 350 373 463 609
4 318 404 276 619
4 614 622 616 633
4 233 615 239 626
4 91 379 206 607
4 610 624 620 630
4 610 620 603 623
4 303 610 375 626
4 233 234 239 615
4 439 607 342 629
4 609 603 620 623
4 291 609 350 625
4 386 614 233 626
4 614 622 233 626
4 341 339 353 608
4 375 626 610 630
4 371 370 499 635
4 215 378 92 608
4 90 91 206 607
4 437 332 330 618
4 312 620 403 630
4 215 493 378 608
4 354 341 353 608
4 208 85 617 633
4 230 231 614 622
4 336 607 439 629
4 394 219 82 615
4 351 626 375 630
4 231 233 386 614
4 603 620 610 624
4 30 302 234 615
4 286 621 613 636
4 84 616 448 622
4 469 312 444 610
4 121 609 11 620
4 391 631 618 637
4 621 624 613 630
4 610 603 624 630
4 233 622 615 626
4 234 395 30 615
4 450 606 220 635
4 522 428 612 625
4 282 279 281 621
4 511 532 616 633
4 603 613 624 630
4 288 289 286 613
4 350 463 451 609
4 433 434 320 619
4 366 616 532 637
4 603 621 613 630
4 467 393 357 617
4 616 633 631 637
4 232 231 240 634
4 312 293 403 620
4 89 392 220 635
4 295 292 291 625
4 352 607 335 638
4 528 86 87 617
4 86 208 85 617
4 289 613 288 624
4 310 468 290 620
4 287 618 434 636
4 392 450 220 635
4 361 375 303 610
4 231 614 240 634
4 233 234 615 622
4 82 207 612 622
4 357 483 232 617
4 324 321 435 628
4 285 433 282 636
4 609 620 603 624
4 329 438 326 629
4 344 369 627 640
4 291 350 295 625
4 302 30 234 395
4 378 608 500 639
4 351 376 375 626
4 208 631 532 633
4 349 103 367 612
4 378 92 608 639
4 350 468 373 609
4 286 284 621 636
4 292 613 297 637
4 84 448 83 622
4 376 303 375 626
4 384 206 379 607
4 343 606 450 638
4 90 607 206 635
4 531 353 339 608
4 89 88 229 632
4 515 531 458 611
4 229 370 202 635
4 369 510 220 632
4 614 621 603 630
4 232 204 231 633
4 2 311 312 620
4 219 615 234 622
4 279 619 276 634
4 29 192 28 610
4 207 83 448 622
4 432 322 347 628
4 39 121 620 623
4 437 434 287 618
4 385 607 384 638
4 292 454 613 637
4 605 618 617 619
4 340 383 456 608
4 233 219 234 622
4 354 500 493 608
4 356 29 303 302
4 509 450 343 606
4 350 609 451 625
4 379 92 216 608
4 376 351 377 626
4 234 394 395 615
4 617 618 605 640
4 352 335 334 638
4 378 493 500 608
4 387 439 342 629
4 340 337 455 608
4 297 292 295 625
4 490 631 528 640
4 604 617 618 619
4 357 232 267 634
4 230 233 231 622
4 206 635 607 638
4 216 608 92 639
4 292 297 454 637
4 631 633 604 637
4 206 607 385 638
4 375 361 469 610
4 500 611 226 639
4 192 610 615 623
4 285 434 433 636
4 312 2 313 311
4 528 208 617 631
4 39 620 610 623
4 291 468 350 609
4 239 234 302 615
4 103 9 367 612
4 522 365 428 625
4 609 620 121 623
4 604 636 618 637
4 82 83 207 622
4 340 339 337 608
4 483 617 85 633
4 606 635 450 638
4 39 121 11 620
4 487 214 599 611
4 483 86 85 617
4 617 631 618 640
4 616 625 613 637
4 385 206 384 607
4 452 292 454 613
4 614 603 626 630
4 204 84 230 633
4 387 499 347 629
4 377 614 386 626
4 309 631 391 637
4 366 532 460 637
4 226 611 94 639
4 379 216 380 608
4 380 608 216 639
4 375 610 444 630
4 604 618 617 631
4 444 375 469 610
4 532 631 460 637
4 520 600 598 611
4 393 87 86 617
4 613 616 603 625
4 616 604 633 637
4 517 385 384 638
4 240 614 377 634
4 455 525 383 608
4 603 612 609 625
4 284 621 283 630
4 283 621 351 630
4 331 332 333 640
4 453 618 287 636
4 28 192 39 610
4 327 436 328 627
4 318 276 280 619
4 603 616 614 622
4 208 532 511 633
4 602 122 121 609
4 528 208 86 617
4 206 385 635 638
4 603 615 610 623
4 192 30 40 615
4 520 94 600 611
4 403 284 283 630
4 531 339 340 608
4 380 383 608 639
4 391 618 631 640
4 103 120 9 612
4 468 373 122 496
4 115 260 24 116
4 260 23 24 116
4 391 333 332 640
4 11 2 39 620
4 283 281 351 621
4 334 335 329 638
4 256 23 24 260
4 511 532 366 616
4 279 276 275 634
4 603 609 612 623
4 450 220 509 369
4 139 140 141 414
4 350 451 295 625
4 114 301 25 115
4 301 24 25 115
4 229 202 89 635
4 30 29 356 302
4 192 615 40 623
4 603 612 615 623
4 93 226 94 639
4 391 332 618 640
4 202 370 371 635
4 456 512 611 639
4 490 528 372 640
4 303 361 29 356
4 241 218 467 632
4 285 621 284 636
4 394 234 219 615
4 391 631 459 640
4 344 627 331 640
4 598 382 520 611
4 525 380 383 608
4 603 615 612 622
4 601 599 214 611
4 603 610 615 626
4 285 282 284 621
4 433 320 280 619
4 285 282 621 636
4 260 24 301 115
4 208 511 85 633
4 454 309 391 637
4 74 32 33 100
4 122 602 10 609
4 98 36 35 77
4 256 23 260 116
4 453 287 452 636
4 275 240 377 634
4 414 141 139 410
4 438 325 323 629
4 378 500 226 639
4 25 363 114 113
4 327 324 330 627
4 414 140 141 415
4 308 616 366 637
4 363 301 25 114
4 28 29 361 482
4 145 124 139 408
4 94 611 388 639
4 258 140 149 138
4 604 621 614 634
4 378 93 92 639
4 225 382 598 611
4 225 598 601 611
4 308 365 366 616
4 392 206 385 635
4 2 20 477 119
4 604 619 618 636
4 149 247 258 138
4 604 616 613 637
4 93 378 226 639
4 164 248 149 127
4 495 367 9 612
4 98 97 36 77
4 344 346 369 640
4 29 30 356 396
4 450 635 392 638
4 23 146 127 252
4 520 388 94 611
4 599 389 487 611
4 391 309 459 631
4 329 336 438 629
4 159 3 30 395
4 417 139 124 408
4 363 25 26 113
4 352 334 517 638
4 437 287 453 618
4 614 616 604 633
4 344 331 333 640
4 160 28 2 313
4 376 377 386 626
4 250 248 164 127
4 452 286 613 636
4 220 510 88 632
4 269 270 268 586
4 523 600 94 611
4 604 631 617 633
4 160 481 28 313
4 603 624 613 625
4 22 23 254 116
4 301 363 362 114
4 139 138 140 414
4 286 289 452 613
4 240 386 377 614
4 84 511 616 633
4 9 38 80 3
4 351 375 444 630
4 147 139 141 410
4 311 11 310 620
4 293 620 290 624
4 505 213 200 125
4 363 362 114 113
4 385 392 635 638
4 9 368 103 367
4 444 312 403 630
4 303 376 239 626
4 346 372 369 640
4 39 610 192 623
4 74 31 32 101
4 126 146 24 440
4 523 94 226 611
4 145 124 408 406
4 382 388 611 639
4 97 78 36 77
4 250 248 249 164
4 300 301 114 115
4 127 22 251 157
4 127 251 22 252
4 121 602 609 623
4 138 258 140 414
4 410 414 141 415
4 349 367 428 612
4 280 279 433 619
4 603 609 624 625
4 414 258 140 415
4 32 74 101 100
4 149 249 248 164
4 618 631 604 637
4 146 23 440 252
4 157 22 251 253
4 253 22 251 252
4 403 293 288 624
4 82 219 83 622
4 240 231 386 614
4 286 285 284 636
4 38 9 80 95
4 617 619 604 634
4 138 247 258 465
4 383 512 456 639
4 365 306 428 625
4 118 20 119 314
4 116 254 22 117
4 604 633 617 634
4 315 529 542 498
4 511 448 84 616
4 389 599 600 611
4 390 202 371 635
4 340 455 383 608
4 29 133 130 466
4 49 486 197 223
4 124 417 408 406
4 486 210 50 197
4 96 78 36 97
4 310 290 293 620
4 133 29 482 466
4 613 621 604 636
4 289 292 452 613
4 500 389 226 611
4 301 300 260 115
4 78 36 37 96
4 95 37 79 38
4 276 279 280 619
4 98 34 76 35
4 382 611 512 639
4 159 203 3 395
4 387 347 325 629
4 302 356 30 396
4 100 34 33 75
4 414 138 258 465
4 509 344 369 627
4 9 3 80 81
4 260 257 256 116
4 33 74 100 75
4 456 225 457 611
4 213 53 505 200
4 269 270 586 110
4 308 366 460 637
4 140 158 418 164
4 118 21 20 314
4 118 22 255 117
4 11 311 2 620
4 248 149 127 162
4 142 244 345 242
4 28 29 482 133
4 40 30 3 615
4 36 35 77 209
4 29 482 466 356
4 603 615 622 626
4 232 483 204 633
4 271 541 109 533
4 30 29 130 396
4 116 257 254 117
4 38 80 79 95
4 126 24 25 429
4 140 418 249 164
4 109 269 266 586
4 442 160 2 313
4 245 247 248 162
4 34 100 99 75
4 301 429 24 260
4 262 583 445 117
4 599 598 600 611
4 477 119 314 374
4 200 13 505 125
4 21 22 255 118
4 323 321 324 628
4 408 147 145 407
4 37 95 79 96
4 77 35 98 76
4 627 628 605 632
4 585 272 449 263
4 243 156 134 238
4 124 34 405 406
4 273 108 397 265
4 225 601 457 611
4 160 2 20 442
4 391 459 333 640
4 603 622 614 626
4 147 123 145 407
4 140 249 258 149
4 382 388 520 611
4 345 129 142 242
4 273 106 590 298
4 155 151 411 413
4 410 139 414 408
4 449 592 585 263
4 115 261 260 116
4 34 98 76 99
4 254 255 22 117
4 585 108 273 265
4 457 601 214 611
4 84 83 230 622
4 583 265 263 264
4 487 515 214 611
4 407 408 147 409
4 511 366 448 616
4 126 25 143 364
4 366 365 448 616
4 504 535 144 125
4 147 123 407 409
4 290 291 289 624
4 429 24 25 301
4 599 601 598 611
4 123 152 32 423
4 79 78 37 96
4 300 261 115 582
4 481 160 442 313
4 117 262 257 443
4 256 24 23 440
4 31 74 73 102
4 430 245 248 162
4 77 98 97 475
4 107 106 590 273
4 271 109 541 498
4 77 78 36 209
4 257 116 262 117
4 31 74 102 101
4 495 82 207 612
4 603 610 626 630
4 141 150 410 415
4 124 405 35 474
4 103 546 10 294
4 32 31 74 228
4 456 512 225 611
4 147 410 411 409
4 203 159 236 395
4 118 255 21 314
4 251 430 162 157
4 155 151 148 411
4 169 39 40 120
4 556 39 120 121
4 307 584 106 298
4 249 247 258 149
4 148 152 123 518
4 97 78 77 475
4 147 139 410 408
4 133 246 431 128
4 447 587 119 360
4 299 106 464 545
4 456 457 458 611
4 245 247 162 142
4 274 20 21 314
4 418 416 154 141
4 154 420 419 143
4 156 136 134 238
4 613 636 604 637
4 315 542 110 498
4 441 21 157 253
4 400 97 538 475
4 261 257 260 116
4 117 445 262 443
4 582 114 300 470
4 529 541 542 498
4 221 34 145 406
4 498 541 271 533
4 411 150 155 412
4 33 32 74 427
4 361 481 28 482
4 297 295 306 625
4 93 94 388 639
4 356 130 29 396
4 235 38 136 236
4 481 28 469 361
4 430 246 135 128
4 80 3 38 203
4 380 381 383 639
4 119 20 477 314
4 138 139 417 414
4 238 156 136 242
4 595 266 264 586
4 162 247 149 142
4 481 469 28 313
4 453 391 332 618
4 606 628 627 632
4 585 108 107 273
4 78 37 36 426
4 251 430 248 162
4 298 273 106 299
4 315 110 277 498
4 2 20 442 477
4 34 33 75 221
4 268 264 266 586
4 382 512 388 639
4 136 38 159 236
4 159 38 203 236
4 420 422 421 143
4 285 287 434 636
4 515 458 214 611
4 466 130 29 356
4 386 233 239 626
4 126 143 461 364
4 357 393 483 617
4 53 13 505 200
4 535 504 213 125
4 465 345 138 142
4 310 11 311 374
4 118 119 587 360
4 583 264 445 586
4 392 90 206 635
4 144 416 504 150
4 422 420 144 143
4 246 430 431 128
4 238 243 156 242
4 23 22 254 252
4 300 261 582 449
4 411 410 150 412
4 87 88 510 632
4 500 355 389 611
4 368 9 495 367
4 154 158 418 141
4 405 34 35 76
4 254 255 117 443
4 255 274 21 314
4 385 450 392 638
4 35 34 405 124
4 431 481 133 160
4 556 39 169 120
4 73 74 31 228
4 522 428 367 612
4 146 23 24 440
4 597 445 583 117
4 270 268 586 587
4 600 523 389 611
4 614 633 604 634
4 266 595 397 109
4 114 362 300 470
4 148 147 411 409
4 345 465 244 142
4 37 235 136 237
4 109 397 266 271
4 134 130 466 238
4 124 137 138 417
4 133 134 246 128
4 409 148 123 518
4 38 37 79 235
4 466 243 134 238
4 93 216 92 639
4 3 80 81 203
4 107 106 273 299
4 20 128 442 274
4 124 145 34 406
4 133 481 28 160
4 587 586 270 110
4 272 582 585 449
4 79 80 38 235
4 149 248 247 162
4 27 210 486 197
4 149 247 138 142
4 486 197 223 112
4 34 221 405 406
4 546 103 316 294
4 149 140 249 164
4 400 541 401 402
4 228 32 152 423
4 143 461 419 126
4 447 446 587 360
4 483 393 86 617
4 327 330 331 627
4 117 255 118 443
4 398 78 96 97
4 336 439 438 629
4 457 214 458 611
4 257 254 117 443
4 35 77 405 76
4 148 150 155 411
4 528 490 208 631
4 442 128 441 274
4 159 130 238 396
4 423 123 152 518
4 26 534 363 516
4 582 592 585 449
4 79 37 78 426
4 114 582 589 470
4 142 156 244 242
4 490 372 346 640
4 243 245 156 244
4 98 538 97 475
4 237 235 136 236
4 311 11 2 374
4 585 583 265 263
4 390 90 202 635
4 75 99 34 76
4 482 481 28 133
4 271 109 108 550
4 268 445 264 586
4 268 266 269 586
4 150 141 416 415
4 296 278 373 122
4 465 138 247 142
4 21 22 253 255
4 137 138 417 345
4 313 2 442 477
4 592 115 261 582
4 276 267 275 634
4 79 398 78 96
4 478 131 148 518
4 141 150 147 410
4 402 400 541 538
4 421 419 420 143
4 255 22 253 254
4 235 203 38 236
4 134 135 246 128
4 417 138 414 465
4 413 411 155 412
4 171 194 27 560
4 523 226 389 611
4 0 50 210 197
4 197 7 49 223
4 464 305 299 545
4 108 397 109 271
4 162 430 245 135
4 362 114 589 470
4 129 156 142 242
4 166 24 23 558
4 412 410 150 415
4 437 453 332 618
4 396 238 159 236
4 143 144 422 132
4 39 120 121 623
4 40 120 39 623
4 416 144 154 150
4 31 5 73 1
4 105 584 106 307
4 595 108 397 109
4 36 209 426 425
4 400 398 97 475
4 124 137 417 474
4 235 38 37 136
4 130 134 136 238
4 487 355 515 611
4 213 200 125 530
4 322 432 319 628
4 157 251 441 253
4 111 110 277 315
4 476 538 98 475
4 203 3 38 159
4 405 209 35 474
4 235 37 426 237
4 592 262 583 263
4 129 36 426 425
4 558 23 181 569
4 127 251 248 162
4 181 166 23 558
4 122 296 278 591
4 203 394 3 395
4 33 221 145 407
4 99 514 547 212
4 482 246 133 466
4 143 422 421 132
4 209 36 137 425
4 431 481 482 133
4 212 77 98 76
4 478 411 151 413
4 504 144 155 125
4 34 35 98 178
4 32 427 123 423
4 314 119 118 360
4 254 256 23 252
4 482 29 361 356
4 406 405 124 474
4 110 111 542 315
4 397 107 108 273
4 124 138 139 417
4 265 583 595 264
4 110 109 269 271
4 129 426 37 237
4 108 107 397 304
4 123 423 409 518
4 141 158 418 140
4 158 419 259 126
4 537 544 506 100
4 272 590 582 317
4 141 418 416 415
4 221 34 33 145
4 541 401 529 399
4 262 116 261 592
4 273 590 585 272
4 359 305 545 537
4 534 26 27 516
4 293 290 288 624
4 153 535 505 125
4 229 218 241 632
4 22 23 127 252
4 23 22 181 569
4 345 129 137 142
4 155 213 504 125
4 381 388 512 639
4 137 35 209 474
4 452 287 286 636
4 5 31 73 102
4 535 213 505 125
4 1 73 31 524
4 261 592 582 449
4 545 106 464 539
4 164 259 250 146
4 477 311 2 374
4 597 583 445 586
4 541 533 402 550
4 166 179 24 558
4 75 33 74 427
4 583 262 116 117
4 182 568 98 178
4 21 22 157 253
4 116 24 115 558
4 116 23 24 558
4 182 98 35 178
4 256 429 24 440
4 270 269 277 110
4 133 246 134 466
4 323 322 321 628
4 383 381 512 639
4 547 537 514 99
4 443 255 118 360
4 148 151 131 478
4 273 397 107 304
4 266 269 109 271
4 412 150 416 415
4 144 420 416 154
4 110 542 541 498
4 128 21 441 274
4 205 79 80 95
4 552 398 97 400
4 212 98 99 76
4 312 311 293 620
4 250 251 248 127
4 31 152 161 228
4 587 296 446 447
4 345 417 137 474
4 440 23 256 252
4 487 389 355 611
4 154 144 420 143
4 419 154 143 126
4 151 148 411 478
4 380 216 381 639
4 587 596 296 447
4 568 554 98 178
4 11 39 576 121
4 120 9 40 188
4 512 382 225 611
4 155 504 213 413
4 20 21 128 274
4 299 304 107 545
4 558 181 570 569
4 158 418 419 154
4 181 558 570 166
4 558 116 23 569
4 535 153 144 125
4 538 476 400 475
4 420 416 504 144
4 282 281 283 621
4 421 461 419 143
4 573 185 183 568
4 242 345 129 425
4 359 545 539 537
4 136 238 242 237
4 533 401 541 402
4 540 476 402 538
4 95 205 79 96
4 98 35 36 182
4 172 181 22 569
4 575 38 9 188
4 244 245 156 142
4 110 109 271 498
4 314 447 119 360
4 244 465 247 142
4 309 460 631 637
4 298 307 584 472
4 597 446 445 360
4 568 185 183 182
4 183 570 568 554
4 135 246 245 243
4 109 110 541 498
4 100 99 75 424
4 199 524 31 161
4 258 418 249 140
4 166 181 183 570
4 221 75 34 76
4 261 592 449 263
4 306 451 428 625
4 282 283 284 621
4 418 416 419 154
4 449 272 582 317
4 102 74 73 501
4 201 46 64 527
4 311 310 293 620
4 482 246 431 133
4 2 39 187 576
4 120 575 9 188
4 306 295 451 625
4 261 257 116 262
4 99 34 98 178
4 446 597 587 360
4 570 183 177 554
4 506 359 544 537
4 262 583 264 445
4 278 10 122 591
4 549 198 42 227
4 102 198 227 526
4 150 416 504 412
4 161 57 199 502
4 309 297 308 637
4 183 570 573 568
4 209 36 35 137
4 249 259 250 164
4 514 348 537 547
4 22 23 116 569
4 125 200 14 530
4 272 298 590 317
4 400 97 552 538
4 277 270 110 111
4 109 266 595 586
4 414 139 417 408
4 107 590 585 273
4 554 183 177 178
4 592 261 262 263
4 167 568 97 182
4 470 300 582 449
4 182 97 167 36
4 470 582 589 317
4 118 587 597 360
4 141 416 154 150
4 74 102 101 501
4 183 177 166 570
4 37 36 426 129
4 538 541 402 550
4 128 430 441 157
4 32 228 427 423
4 155 144 504 150
4 214 70 487 599
4 314 118 255 360
4 256 24 429 260
4 44 60 217 513
4 582 470 449 317
4 187 20 2 576
4 430 251 441 157
4 30 302 396 395
4 425 426 129 237
4 555 22 569 172
4 266 397 595 265
4 394 3 81 203
4 98 36 97 182
4 87 218 88 632
4 123 33 145 407
4 97 568 98 182
4 137 138 345 142
4 99 98 554 178
4 253 441 21 274
4 268 270 446 587
4 22 555 569 117
4 504 155 150 412
4 595 585 583 265
4 269 110 271 498
4 364 25 26 363
4 483 85 204 633
4 116 262 583 592
4 529 401 541 498
4 290 289 288 624
4 169 173 556 562
4 309 454 297 637
4 137 124 35 474
4 501 549 536 227
4 119 563 20 118
4 95 37 38 174
4 540 547 476 538
4 356 466 130 396
4 152 161 502 222
4 309 460 459 631
4 349 103 316 367
4 443 118 597 360
4 122 373 296 496
4 397 108 595 265
4 230 219 233 622
4 364 301 25 363
4 138 417 345 465
4 11 310 496 374
4 130 136 159 238
4 106 105 307 464
4 264 583 595 586
4 270 277 278 111
4 125 155 213 413
4 567 554 177 178
4 265 273 585 272
4 111 546 542 315
4 96 205 398 399
4 222 152 131 518
4 574 186 561 174
4 586 109 269 110
4 172 173 186 574
4 328 334 329 638
4 34 99 168 178
4 205 96 542 399
4 321 322 319 628
4 212 99 514 424
4 441 21 128 157
4 100 74 101 224
4 163 210 521 132
4 238 136 159 236
4 508 271 108 550
4 591 270 278 111
4 115 114 300 582
4 459 631 490 640
4 249 248 247 149
4 584 590 298 317
4 119 11 596 374
4 148 411 478 518
4 20 128 160 442
4 568 167 97 561
4 507 362 113 589
4 40 169 120 188
4 576 39 556 121
4 246 135 134 243
4 300 261 260 115
4 476 98 212 475
4 263 262 583 264
4 485 544 101 224
4 461 259 419 126
4 586 268 446 587
4 596 122 296 496
4 116 22 569 117
4 88 218 229 632
4 110 270 587 111
4 464 307 106 299
4 544 539 359 536
4 22 253 254 252
4 555 22 172 118
4 27 113 516 26
4 304 545 348 540
4 489 143 26 364
4 444 283 351 630
4 167 185 568 182
4 563 555 172 118
4 376 386 239 626
4 156 243 244 242
4 145 139 147 408
4 1 4 5 73
4 100 33 34 168
4 203 38 80 235
4 533 541 109 550
4 118 555 22 117
4 129 136 156 242
4 485 544 536 101
4 25 26 143 364
4 425 137 209 474
4 447 119 596 374
4 400 552 541 538
4 506 537 100 424
4 502 161 152 228
4 169 575 120 188
4 556 187 39 576
4 108 397 271 508
4 90 392 89 635
4 250 164 146 127
4 406 145 221 407
4 217 60 104 513
4 135 162 430 157
4 129 136 242 237
4 522 367 207 612
4 148 131 152 518
4 96 36 167 97
4 3 9 38 188
4 2 11 576 119
4 208 490 532 631
4 529 542 541 399
4 496 596 11 374
4 421 461 143 364
4 108 107 304 540
4 112 223 507 581
4 471 470 589 317
4 590 273 298 272
4 39 11 576 2
4 9 3 40 188
4 116 115 261 592
4 119 447 314 374
4 443 597 445 360
4 73 1 4 524
4 563 21 20 118
4 37 95 96 174
4 172 185 181 573
4 305 304 545 348
4 552 96 398 399
4 507 362 589 470
4 557 33 32 100
4 250 251 127 252
4 552 401 399 400
4 431 481 160 442
4 161 152 131 222
4 164 158 259 146
4 167 96 561 174
4 36 96 167 37
4 113 362 114 589
4 419 416 420 154
4 113 114 25 553
4 167 37 96 174
4 516 363 26 113
4 166 179 558 571
4 418 419 259 158
4 524 31 1 199
4 590 582 585 272
4 586 446 597 587
4 267 232 240 634
4 99 537 514 424
4 147 148 123 409
4 115 25 114 564
4 359 539 544 537
4 115 24 25 564
4 541 552 401 399
4 172 569 573 181
4 595 266 265 264
4 345 137 129 425
4 130 466 238 396
4 402 348 476 540
4 22 21 172 118
4 563 172 21 118
4 125 151 413 530
4 209 35 77 405
4 296 596 587 591
4 596 496 447 374
4 117 118 597 443
4 98 547 476 212
4 307 105 584 472
4 537 348 545 540
4 427 33 123 407
4 209 78 36 426
4 99 100 34 168
4 278 10 111 294
4 419 158 154 126
4 84 85 511 633
4 207 367 495 612
4 146 158 259 126
4 574 186 172 573
4 573 574 186 561
4 331 344 436 627
4 73 4 5 526
4 426 79 37 235
4 575 169 120 556
4 187 556 39 169
4 576 20 2 119
4 152 502 423 222
4 136 129 37 237
4 155 504 413 412
4 589 113 507 581
4 38 575 9 95
4 424 99 75 76
4 402 540 538 550
4 162 127 251 157
4 398 78 97 475
4 74 100 75 224
4 188 575 38 174
4 545 305 359 539
4 274 477 20 314
4 168 567 177 178
4 561 97 96 167
4 128 135 430 157
4 96 95 205 542
4 31 32 152 228
4 305 359 358 537
4 160 128 431 442
4 155 125 151 413
4 540 402 508 550
4 581 507 589 471
4 153 422 535 144
4 591 587 270 111
4 25 26 113 553
4 270 296 446 587
4 596 587 119 447
4 210 27 0 197
4 223 197 7 112
4 101 102 536 501
4 549 42 484 227
4 117 597 445 443
4 569 172 573 555
4 98 77 212 475
4 538 547 476 98
4 464 305 545 539
4 589 584 471 317
4 584 590 106 298
4 135 245 156 243
4 309 308 460 637
4 571 570 177 554
4 301 362 300 114
4 113 516 507 112
4 399 398 552 400
4 348 537 547 540
4 221 33 427 407
4 444 403 283 630
4 344 333 346 640
4 102 198 549 227
4 17 194 171 560
4 246 245 430 135
4 459 490 346 640
4 519 9 80 81
4 112 507 113 581
4 406 124 417 474
4 108 585 595 265
4 501 485 101 224
4 111 277 278 294
4 270 278 296 591
4 222 423 152 518
4 135 245 162 142
4 501 102 549 227
4 100 557 33 168
4 247 245 244 142
4 441 431 128 442
4 153 505 13 125
4 179 25 24 564
4 179 166 177 571
4 101 536 485 501
4 107 106 299 545
4 6 60 44 513
4 137 36 129 425
4 146 259 250 440
4 136 238 237 236
4 545 304 107 540
4 305 304 299 545
4 502 31 161 228
4 359 485 544 536
4 590 584 582 317
4 173 21 20 563
4 562 96 95 174
4 193 31 577 189
4 20 442 477 274
4 102 73 5 526
4 131 478 222 518
4 556 173 187 576
4 463 10 278 294
4 606 629 635 638
4 401 541 498 533
4 502 161 57 222
4 176 165 179 564
4 470 589 507 471
4 106 105 464 539
4 544 506 100 224
4 94 600 8 520
4 33 32 427 123
4 245 135 156 142
4 536 102 549 501
4 96 562 561 174
4 21 173 172 563
4 408 410 147 409
4 547 476 348 540
4 177 571 554 567
4 130 133 134 466
4 90 89 202 635
4 508 108 304 540
4 112 27 194 560
4 311 2 313 477
4 587 270 296 591
4 546 316 315 294
4 26 25 165 553
4 430 441 431 128
4 101 557 32 100
4 213 125 413 530
4 555 172 574 563
4 25 429 301 364
4 516 223 507 112
4 130 159 30 396
4 501 536 485 227
4 509 436 344 627
4 111 546 315 294
4 598 225 67 382
4 9 368 551 103
4 592 583 585 263
4 167 561 186 174
4 112 594 223 581
4 103 368 551 316
4 177 176 179 571
4 287 285 286 636
4 552 541 542 399
4 563 556 173 562
4 169 173 562 174
4 348 514 476 547
4 84 204 85 633
4 95 519 205 551
4 327 331 436 627
4 607 635 629 638
4 104 201 527 513
4 152 502 228 423
4 325 439 387 629
4 134 246 243 466
4 186 185 573 167
4 103 368 316 367
4 61 62 196 559
4 161 199 524 502
4 421 143 489 364
4 230 83 219 622
4 584 589 582 317
4 496 296 596 447
4 359 506 358 537
4 519 80 9 95
4 121 120 602 623
4 39 192 40 623
4 556 169 562 575
4 169 173 187 556
4 60 6 104 513
4 567 100 99 168
4 64 588 201 527
4 304 107 273 299
4 103 551 546 316
4 567 557 100 168
4 348 358 514 537
4 65 588 47 594
4 109 271 533 550
4 186 185 172 573
4 588 104 201 527
4 156 134 135 243
4 596 11 122 496
4 274 21 253 255
4 406 408 145 407
4 173 574 563 562
4 20 576 563 119
4 567 177 176 168
4 398 79 205 96
4 16 57 199 161
4 571 177 176 567
4 581 211 479 471
4 601 70 214 599
4 223 7 48 594
4 546 111 10 294
4 553 114 25 564
4 575 95 38 174
4 564 179 176 571
4 425 129 242 237
4 544 485 506 224
4 599 71 487 389
4 460 532 490 631
4 552 542 96 399
4 539 503 359 536
4 401 552 541 400
4 15 131 151 478
4 407 123 427 423
4 210 51 0 163
4 275 267 240 634
4 561 562 574 174
4 298 106 307 299
4 172 173 574 563
4 573 172 574 555
4 405 221 34 76
4 196 18 19 170
4 508 348 402 540
4 200 213 54 530
4 217 104 60 543
4 438 439 325 629
4 561 186 573 167
4 543 59 484 549
4 56 131 478 222
4 564 558 179 571
4 362 516 507 113
4 431 133 128 160
4 272 585 265 263
4 277 111 315 294
4 304 397 108 508
4 171 17 560 195
4 5 1 31 193
4 165 25 179 564
4 278 10 591 111
4 100 506 424 224
4 26 143 489 132
4 480 464 105 548
4 542 95 205 488
4 131 15 56 478
4 551 205 95 488
4 210 489 521 132
4 521 153 163 132
4 10 463 349 294
4 420 535 422 144
4 601 225 67 598
4 425 345 137 474
4 199 31 1 161
4 423 407 123 409
4 211 581 593 471
4 381 382 512 388
4 25 165 553 564
4 557 32 33 175
4 43 484 217 543
4 459 460 490 631
4 144 153 422 132
4 516 362 363 113
4 420 504 535 144
4 110 269 277 498
4 547 98 99 212
4 502 524 31 228
4 102 5 31 193
4 364 26 489 363
4 31 577 102 193
4 343 334 328 638
4 580 565 176 175
4 55 15 151 478
4 359 485 506 544
4 198 102 5 526
4 151 125 14 530
4 196 19 61 189
4 489 143 421 132
4 102 572 31 101
4 105 307 464 480
4 547 514 476 212
4 27 17 194 171
4 333 459 346 640
4 578 190 196 170
4 575 562 95 174
4 66 520 598 382
4 343 450 385 638
4 478 151 55 530
4 95 542 551 488
4 520 600 66 598
4 161 524 31 502
4 471 584 472 317
4 588 64 47 211
4 205 542 488 399
4 307 473 105 472
4 480 217 503 548
4 161 16 57 222
4 540 508 108 550
4 577 196 61 189
4 194 63 112 560
4 71 599 600 389
4 33 557 175 168
4 48 223 594 479
4 113 27 516 112
4 489 26 27 534
4 495 519 9 368
4 50 49 486 197
4 97 96 398 552
4 593 105 473 472
4 457 601 69 214
4 65 588 64 47
4 548 464 105 539
4 42 59 198 549
4 424 212 99 76
4 68 225 601 457
4 571 176 564 565
4 173 556 563 576
4 578 190 18 196
4 485 359 503 536
4 503 464 480 548
4 503 464 548 539
4 559 578 196 170
4 565 571 176 567
4 67 68 225 601
4 539 548 503 536
4 411 148 409 518
4 565 176 180 580
4 27 210 163 132
4 508 533 271 550
4 601 70 69 214
4 42 43 59 484
4 48 49 7 223
4 51 0 50 210
4 534 489 26 363
4 472 584 298 317
4 296 122 596 591
4 228 74 32 427
4 495 9 519 81
4 577 31 572 189
4 489 421 422 132
4 104 217 513 480
4 551 519 205 488
4 527 46 64 211
4 427 75 33 221
4 593 581 589 471
4 594 581 588 479
4 343 385 517 638
4 472 473 593 211
4 99 100 537 424
4 14 55 151 530
4 580 176 180 175
4 578 18 62 196
4 543 59 60 484
4 201 104 6 513
4 197 486 27 112
4 59 42 484 549
4 227 501 102 526
4 56 16 131 222
4 402 476 400 538
4 151 478 413 530
4 551 368 519 488
4 211 588 581 479
4 505 422 535 153
4 589 584 593 471
4 348 508 304 540
4 12 521 153 163
4 194 17 63 560
4 105 593 584 472
4 16 161 131 222
4 524 1 58 199
4 527 201 45 513
4 537 506 358 424
4 105 473 307 480
4 542 529 315 488
4 100 101 544 224
4 537 358 514 424
4 16 56 57 222
4 176 180 165 565
4 210 521 51 163
4 210 489 27 534
4 523 600 8 94
4 388 216 93 639
4 201 6 45 513
4 600 66 8 520
4 588 593 473 211
4 557 572 101 184
4 594 223 7 112
4 105 104 593 473
4 315 546 542 488
4 559 196 61 577
4 593 588 581 211
4 19 196 170 189
4 55 15 14 151
4 521 52 12 153
4 43 60 59 484
4 198 5 41 526
4 153 521 422 132
4 305 464 359 539
4 548 480 217 543
4 65 48 7 594
4 484 43 60 543
4 58 4 1 524
4 593 472 211 471
4 524 73 31 228
4 464 503 359 539
4 507 581 479 471
4 548 217 503 543
4 489 422 521 132
4 200 54 14 530
4 594 47 65 479
4 196 190 18 170
4 72 71 600 389
4 113 26 191 553
4 334 343 517 638
4 560 112 191 579
4 501 73 102 526
4 193 1 31 189
4 194 63 7 112
4 0 27 17 194
4 9 519 95 551
4 210 0 27 163
4 56 16 15 131
4 577 572 31 102
4 523 72 600 389
4 64 46 47 211
4 41 5 4 526
4 553 191 113 579
4 472 593 584 471
4 560 17 63 195
4 519 9 368 551
4 577 572 559 189
4 565 580 557 175
4 27 26 489 132
4 165 191 26 553
4 521 505 52 153
4 198 41 42 227
4 210 27 489 132
4 19 1 193 189
4 101 32 557 184
4 12 0 51 163
4 64 588 527 211
4 480 104 217 543
4 191 27 26 113
4 80 519 205 95
4 316 551 546 488
4 213 54 53 200
4 402 533 508 550
4 588 473 527 211
4 27 191 171 560
4 559 580 180 170
4 52 53 13 505
4 112 113 191 579
4 27 210 534 486
4 217 60 43 543
4 368 551 316 488
4 196 62 578 559
4 473 105 104 480
4 65 48 594 479
4 424 75 100 224
4 484 503 543 536
4 505 13 52 153
4 48 65 47 479
4 501 101 74 224
4 104 588 473 527
4 316 546 315 488
4 104 6 64 201
4 17 171 190 195
4 580 180 566 559
4 598 67 66 382
4 184 572 31 189
4 15 55 56 478
4 12 52 13 153
4 104 480 548 543
4 64 588 104 201
4 577 61 5 193
4 170 580 180 184
4 12 51 521 163
4 578 560 63 195
4 588 593 104 473
4 223 516 486 112
4 5 102 198 549
4 44 45 6 513
4 484 503 217 543
4 32 557 184 175
4 480 105 104 548
4 503 484 485 536
4 191 165 180 566
4 193 61 19 189
4 227 198 41 526
4 572 557 580 184
4 488 542 529 399
4 184 580 180 175
4 551 542 546 488
4 536 543 484 549
4 580 559 572 184
4 193 577 61 189
4 18 190 578 195
4 566 190 171 578
4 578 62 18 195
4 171 560 566 578
4 388 381 216 639
4 559 580 170 184
4 527 473 104 513
4 197 0 7 112
4 18 17 190 195
4 55 14 54 530
4 57 58 199 502
4 184 559 572 189
4 102 577 5 193
4 565 180 566 580
4 191 27 112 560
4 63 62 578 195
4 197 27 0 112
4 70 71 487 599
4 521 422 505 153
4 503 548 543 536
4 199 58 524 502
4 44 60 43 217
4 513 473 104 480
4 191 27 113 112
4 194 7 0 112
4 12 51 52 521
4 171 180 190 566
4 601 69 68 457
4 0 27 194 112
4 184 170 559 189
4 180 171 191 566
4 184 557 580 175
4 201 45 46 527
4 198 59 5 549
4 8 72 600 523
4 14 13 200 125
4 1 16 199 161
4 620 28 39 610
4 620 39 28 2
4 628 330 605 435
4 628 605 330 627
4 628 619 318 319
4 628 318 619 605
4 355 639 353 611
4 355 353 639 608
4 531 353 639 611
4 531 639 353 608
4 612 451 625 428
4 612 625 451 609
4 628 629 347 606
4 347 629 628 325
4 637 453 391 454
4 637 391 453 618
4 624 292 625 291
4 624 625 292 613
4 621 377 634 281
4 621 634 377 614
4 624 468 620 290
4 624 620 468 609
4 634 231 633 232
4 634 633 231 614
4 384 638 352 517
4 352 638 384 607
4 252 146 250 440
4 252 250 146 127
4 429 126 440 461
4 429 440 126 24
4 122 463 278 373
4 122 278 463 10
4 164 418 259 158
4 164 259 418 249
4 103 294 349 316
4 349 294 103 10
4 364 126 429 461
4 364 429 126 25
4 415 140 418 258
4 415 418 140 141
4 147 411 150 148
4 150 411 147 410
4 159 395 396 236
4 396 395 159 30
4 2 374 119 477
4 119 374 2 11
4 440 126 259 461
4 440 259 126 146
4 581 223 479 594
4 581 479 223 507
4 586 445 446 268
4 586 446 445 597
4 256 116 254 23
4 254 116 256 257
4 564 24 558 115
4 564 558 24 179
4 574 174 173 186
4 173 174 574 562
4 571 166 570 558
4 571 570 166 177
4 305 537 348 545
4 348 537 305 358
4 568 178 183 554
4 183 178 568 182
4 565 165 564 553
4 565 564 165 176
4 183 573 181 185
4 567 178 99 554
4 99 178 567 168
4 573 167 568 561
4 568 167 573 185
4 27 516 486 534
4 27 486 516 112
4 566 165 565 553
4 566 565 165 180
4 227 536 484 549
4 227 484 536 485
4 575 174 169 562
4 169 174 575 188
4 576 173 20 563
4 576 20 173 187
4 479 588 47 211
4 479 47 588 594
4 184 101 31 572
4 184 31 101 32
4 168 176 565 175
4 565 176 168 567
4 565 557 168 175
4 168 557 565 567
4 189 559 196 170
4 189 196 559 577
4 553 191 566 165
4 553 566 191 579
4 170 180 566 190
4 566 180 170 559
4 566 578 170 190
4 170 578 566 559
4 171 578 195 560
4 195 578 171 190
4 191 560 566 171
4 191 566 560 579
4 570 181 573 569
4 570 573 181 183

CELL_TYPES 3335
1
1
1
1
1
1
1
1
1
1
1
1
3
3
3
3
3
3
3
3
3
3
3
3
3
3
3
3
3
3
3
3
3
3
3
3
3
3
3
3
3
3
3
3
3
3
3
3
3
3
3
3
3
3
3
3
3
3
3
3
3
3
3
3
3
3
3
3
3
3
3
3
3
3
3
3
3
3
3
3
3
3
3
3
3
3
3
3
3
3
3
3
3
3
3
3
3
3
3
3
3
3
3
3
3
3
3
3
3
3
3
3
3
3
3
3
3
3
3
3
3
3
3
3
3
3
3
3
3
3
3
3
3
3
3
3
3
3
3
3
3
5
5
5
5
5
5
5
5
5
5
5
5
5
5
5
5
5
5
5
5
5
5
5
5
5
5
5
5
5
5
5
5
5
5
5
5
5
5
5
5
5
5
5
5
5
5
5
5
5
5
5
5
5
5
5
5
5
5
5
5
5
5
5
5
5
5
5
5
5
5
5
5
5
5
5
5
5
5
5
5
5
5
5
5
5
5
5
5
5
5
5
5
5
5
5
5
5
5
5
5
5
5
5
5
5
5
5
5
5
5
5
5
5
5
5
5
5
5
5
5
5
5
5
5
5
5
5
5
5
5
5
5
5
5
5
5
5
5
5
5
5
5
5
5
5
5
5
5
5
5
5
5
5
5
5
5
5
5
5
5
5
5
5
5
5
5
5
5
5
5
5
5
5
5
5
5
5
5
5
5
5
5
5
5
5
5
5
5
5
5
5
5
5
5
5
5
5
5
5
5
5
5
5
5
5
5
5
5
5
5
5
5
5
5
5
5
5
5
5
5
5
5
5
5
5
5
5
5
5
5
5
5
5
5
5
5
5
5
5
5
5
5
5
5
5
5
5
5
5
5
5
5
5
5
5
5
5
5
5
5
5
5
5
5
5
5
5
5
5
5
5
5
5
5
5
5
5
5
5
5
5
5
5
5
5
5
5
5
5
5
5
5
5
5
5
5
5
5
5
5
5
5
5
5
5
5
5
5
5
5
5
5
5
5
5
5
5
5
5
5
5
5
5
5
5
5
5
5
5
5
5
5
5
5
5
5
5
5
5
5
5
5
5
5
5
5
5
5
5
5
5
5
5
5
5
5
5
5
5
5
5
5
5
5
5
5
5
5
5
5
5
5
5
5
5
5
5
5
5
5
5
5
5
5
5
5
5
5
5
5
5
5
5
5
5
5
5
5
5
5
5
5
5
5
5
5
5
5
5
5
5
5
5
5
5
5
5
5
5
5
5
5
5
5
5
5
5
5
5
5
5
5
5
5
5
5
5
5
5
5
5
5
5
5
5
5
5
5
5
5
5
5
5
5
5
5
5
5
5
5
5
5
5
5
5
5
5
5
5
5
5
5
5
5
5
5
5
5
5
5
5
5
5
5
5
5
5
5
5
5
5
5
5
5
5
5
5
5
5
5
5
5
5
5
5
5
5
5
5
5
5
5
5
5
5
5
5
5
5
5
5
5
5
5
5
5
5
5
5
5
5
5
5
5
5
5
5
5
5
5
5
5
5
5
5
5
5
5
5
5
5
5
5
5
5
5
5
5
5
5
5
5
5
5
5
5
5
5
5
5
5
5
5
5
5
5
5
5
5
5
5
5
5
5
5
5
5
5
5
5
5
5
5
5
5
5
5
5
5
5
5
5
5
5
5
5
5
5
5
5
5
5
5
5
5
5
5
5
5
5
5
5
5
5
5
5
5
5
5
5
5
5
5
5
5
5
5
5
5
5
5
5
5
5
5
5
5
5
5
5
5
5
5
5
5
5
5
5
5
5
5
5
5
5
5
5
5
5
5
5
5
5
5
5
5
5
5
5
5
5
5
5
5
5
5
5
5
5
5
5
5
5
5
5
5
5
5
5
5
5
5
5
5
5
5
5
5
5
5
5
5
5
5
5
5
5
5
5
5
5
5
5
5
5
5
5
5
5
5
5
5
5
5
5
5
5
5
5
5
5
5
5
5
5
5
5
5
5
5
5
5
5
5
5
5
5
5
5
5
5
5
5
5
5
5
5
5
5
5
5
5
5
5
5
5
5
5
5
5
5
5
5
5
5
5
5
5
5
5
5
5
5
5
5
5
5
5
5
5
5
5
5
5
5
5
5
5
5
5
5
5
5
5
5
5
5
5
5
5
5
5
5
5
5
5
5
5
5
5
5
5
5
5
5
5
5
5
5
5
5
5
5
5
5
5
5
5
5
5
5
5
5
5
5
5
5
5
5
5
5
5
5
5
5
5
5
5
5
5
5
5
5
5
5
5
5
5
5
5
5
5
5
5
5
5
5
5
5
5
5
5
5
5
5
5
5
5
5
5
5
5
5
5
5
5
5
5
5
5
5
5
5
5
5
5
5
5
5
5
5
5
5
5
5
5
5
5
5
5
5
5
5
5
5
5
5
5
5
5
5
5
5
5
5
5
5
5
5
5
5
5
5
5
5
5
5
5
5
5
5
5
5
5
5
5
5
5
5
5
5
5
5
5
5
5
5
5
5
5
5
5
5
5
5
5
5
5
5
5
5
5
5
5
5
5
5
5
5
5
5
5
5
5
5
5
5
5
5
5
5
5
5
5
5
5
5
5
5
5
5
5
5
5
5
5
5
5
5
5
5
5
5
5
5
5
5
5
5
5
5
5
5
5
5
5
5
5
5
5
5
5
5
5
5
5
5
5
5
5
5
5
5
5
5
5
5
5
5
5
5
5
5
5
5
5
5
5
5
5
5
5
5
5
5
5
5
5
5
5
5
5
5
5
5
5
5
5
5
5
5
5
5
5
5
5
5
5
5
5
5
5
5
5
5
5
5
5
5
5
5
5
5
5
5
5
5
5
5
5
5
5
5
5
5
5
5
5
5
5
5
5
5
5
5
5
5
5
5
5
5
5
5
5
5
5
5
5
5
5
5
5
5
5
5
5
5
5
5
5
5
5
5
5
5
5
5
5
5
5
5
5
5
5
5
5
5
5
5
5
5
5
5
5
5
5
5
5
5
5
5
5
5
10
10
10
10
10
10
10
10
10
10
10
10
10
10
10
10
10
10
10
10
10
10
10
10
10
10
10
10
10
10
10
10
10
10
10
10
10
10
10
10
10
10
10
10
10
10
10
10
10
10
10
10
10
10
10
10
10
10
10
10
10
10
10
10
10
10
10
10
10
10
10
10
10
10
10
10
10
10
10
10
10
10
10
10
10
10
10
10
10
10
10
10
10
10
10
10
10
10
10
10
10
10
10
10
10
10
10
10
10
10
10
10
10
10
10
10
10
10
10
10
10
10
10
10
10
10
10
10
10
10
10
10
10
10
10
10
10
10
10
10
10
10
10
10
10
10
10
10
10
10
10
10
10
10
10
10
10
10
10
10
10
10
10
10
10
10
10
10
10
10
10
10
10
10
10
10
10
10
10
10
10
10
10
10
10
10
10
10
10
10
10
10
10
10
10
10
10
10
10
10
10
10
10
10
10
10
10
10
10
10
10
10
10
10
10
10
10
10
10
10
10
10
10
10
10
10
10
10
10
10
10
10
10
10
10
10
10
10
10
10
10
10
10
10
10
10
10
10
10
10
10
10
10
10
10
10
10
10
10
10
10
10
10
10
10
10
10
10
10
10
10
10
10
10
10
10
10
10
10
10
10
10
10
10
10
10
10
10
10
10
10
10
10
10
10
10
10
10
10
10
10
10
10
10
10
10
10
10
10
10
10
10
10
10
10
10
10
10
10
10
10
10
10
10
10
10
10
10
10
10
10
10
10
10
10
10
10
10
10
10
10
10
10
10
10
10
10
10
10
10
10
10
10
10
10
10
10
10
10
10
10
10
10
10
10
10
10
10
10
10
10
10
10
10
10
10
10
10
10
10
10
10
10
10
10
10
10
10
10
10
10
10
10
10
10
10
10
10
10
10
10
10
10
10
10
10
10
10
10
10
10
10
10
10
10
10
10
10
10
10
10
10
10
10
10
10
10
10
10
10
10
10
10
10
10
10
10
10
10
10
10
10
10
10
10
10
10
10
10
10
10
10
10
10
10
10
10
10
10
10
10
10
10
10
10
10
10
10
10
10
10
10
10
10
10
10
10
10
10
10
10
10
10
10
10
10
10
10
10
10
10
10
10
10
10
10
10
10
10
10
10
10
10
10
10
10
10
10
10
10
10
10
10
10
10
10
10
10
10
10
10
10
10
10
10
10
10
10
10
10
10
10
10
10
10
10
10
10
10
10
10
10
10
10
10
10
10
10
10
10
10
10
10
10
10
10
10
10
10
10
10
10
10
10
10
10
10
10
10
10
10
10
10
10
10
10
10
10
10
10
10
10
10
10
10
10
10
10
10
10
10
10
10
10
10
10
10
10
10
10
10
10
10
10
10
10
10
10
10
10
10
10
10
10
10
10
10
10
10
10
10
10
10
10
10
10
10
10
10
10
10
10
10
10
10
10
10
10
10
10
10
10
10
10
10
10
10
10
10
10
10
10
10
10
10
10
10
10
10
10
10
10
10
10
10
10
10
10
10
10
10
10
10
10
10
10
10
10
10
10
10
10
10
10
10
10
10
10
10
10
10
10
10
10
10
10
10
10
10
10
10
10
10
10
10
10
10
10
10
10
10
10
10
10
10
10
10
10
10
10
10
10
10
10
10
10
10
10
10
10
10
10
10
10
10
10
10
10
10
10
10
10
10
10
10
10
10
10
10
10
10
10
10
10
10
10
10
10
10
10
10
10
10
10
10
10
10
10
10
10
10
10
10
10
10
10
10
10
10
10
10
10
10
10
10
10
10
10
10
10
10
10
10
10
10
10
10
10
10
10
10
10
10
10
10
10
10
10
10
10
10
10
10
10
10
10
10
10
10
10
10
10
10
10
10
10
10
10
10
10
10
10
10
10
10
10
10
10
10
10
10
10
10
10
10
10
10
10
10
10
10
10
10
10
10
10
10
10
10
10
10
10
10
10
10
10
10
10
10
10
10
10
10
10
10
10
10
10
10
10
10
10
10
10
10
10
10
10
10
10
10
10
10
10
10
10
10
10
10
10
10
10
10
10
10
10
10
10
10
10
10
10
10
10
10
10
10
10
10
10
10
10
10
10
10
10
10
10
10
10
10
10
10
10
10
10
10
10
10
10
10
10
10
10
10
10
10
10
10
10
10
10
10
10
10
10
10
10
10
10
10
10
10
10
10
10
10
10
10
10
10
10
10
10
10
10
10
10
10
10
10
10
10
10
10
10
10
10
10
10
10
10
10
10
10
10
10
10
10
10
10
10
10
10
10
10
10
10
10
10
10
10
10
10
10
10
10
10
10
10
10
10
10
10
10
10
10
10
10
10
10
10
10
10
10
10
10
10
10
10
10
10
10
10
10
10
10
10
10
10
10
10
10
10
10
10
10
10
10
10
10
10
10
10
10
10
10
10
10
10
10
10
10
10
10
10
10
10
10
10
10
10
10
10
10
10
10
10
10
10
10
10
10
10
10
10
10
10
10
10
10
10
10
10
10
10
10
10
10
10
10
10
10
10
10
10
10
10
10
10
10
10
10
10
10
10
10
10
10
10
10
10
10
10
10
10
10
10
10
10
10
10
10
10
10
10
10
10
10
10
10
10
10
10
10
10
10
10
10
10
10
10
10
10
10
10
10
10
10
10
10
10
10
10
10
10
10
10
10
10
10
10
10
10
10
10
10
10
10
10
10
10
10
10
10
10
10
10
10
10
10
10
10
10
10
10
10
10
10
10
10
10
10
10
10
10
10
10
10
10
10
10
10
10
10
10
10
10
10
10
10
10
10
10
10
10
10
10
10
10
10
10
10
10
10
10
10
10
10
10
10
10
10
10
10
10
10
10
10
10
10
10
10
10
10
10
10
10
10
10
10
10
10
10
10
10
10
10
10
10
10
10
10
10
10
10
10
10
10
10
10
10
10
10
10
10
10
10
10
10
10
10
10
10
10
10
10
10
10
10
10
10
10
10
10
10
10
10
10
10
10
10
10
10
10
10
10
10
10
10
10
10
10
10
10
10
10
10
10
10
10
10
10
10
10
10
10
10
10
10
10
10
10
10
10
10
10
10
10
10
10
10
10
10
10
10
10
10
10
10
10
10
10
10
10
10
10
10
10
10
10
10
10
10
10
10
10
10
10
10
10
10
10
10
10
10
10
10
10
10
10
10
10
10
10
10
10
10
10
10
10
10
10
10
10
10
10
10
10
10
10
10
10
10
10
10
10
10
10
10
10
10
10
10
10
10
10
10
10
10
10
10
10
10
10
10
10
10
10
10
10
10
10
10
10
10
10
10
10
10
10
10
10
10
10
10
10
10
10
10
10
10
10
10
10
10
10
10
10
10
10
10
10
10
10
10
10
10
10
10
10
10
10
10
10
10
10
10
10
10
10
10
10
10
10
10
10
10
10
10
10
10
10
10
10
10
10
10
10
10
10
10
10
10
10
10
10
10
10
10
10
10
10
10
10
10
10
10
10
10
10
10
10
10
10
10
10
10
10
10
10
10
10
10
10
10
10
10
10
10
10
10
10
10
10
10
10
10
10
10
10
10
10
10
10
10
10
10
10
10
10
10
10
10
10
10
10
10
10
10
10
10
10
10
10
10
10
10
10
10
10
10
10
10
10
10
10
10
10
10
10
10
10
10
10
10
10
10
10
10
10
10
10
10
10
10
10
10
10
10
10
10
10
10
10
10
10
10
10
10
10
10
10
10
10
10
10
10
10
10
10
10
10
10
10
10
10
10
10
10
10
10
10
10
10
10
10
10
10
10
10
10
10
10
10
10
10
10
10
10
10
10
10
10
10
10
10
10
10
10
10
10
10
10
10
10
10
10
10
10
10
10
10
10
10
10
10
10
10
10
10
10
10
10
10
10
10
10
10
10
10
10
10
10
10
10
10
10
10
10
10
10
10
10
10
10
10
10
10
10
10
10
10
10
10
10
10
10
10
10
10
10
10
10
10
10
10
10
10
10
10
10
10
10
10
10
10
10
10
10
10
10
10
10
10
10
10
10
10
10
10
10
10
10
10
10
10
10
10
10
10
10
10
10
10
10
10
10
10
10
10
10
10
10
10
10
10
10
10
10
10
10
10
10
10
10
10
10
10
10
10
10
10
10
10
10
10
10
10
10
10
10
10
10
10
10
10
10
10
10
10
10
10
10
10
10
10
10
10
10
10
10
10
10
10
10
10
10
10
10
10
10
10
10
10
10
10
10
10
10
10
10
10
10
10
10
10
10
10
10
10
10
10
10
10
10
10
10
10
10
10
10
10
10
10
10
10
10
10
10
10
10
10
10
10
10
10
10
10
10
10
10
10
10
10
10
10
10
10
10
10
10
10
10
10
10
10
10
10
10
10
10
10
10
10
10
10
10
10
10
10
10
10
10
10
10
10
10
10
10
10
10
10
10
10
10
10
10
10
10
10
10
10
10
10
10
10
10
10
10
10
10
10
10
10
10
10
10
10
10
10
10
10
10
10
10
10
10
10
10
10
10
