# vtk DataFile Version 2.0
whisker_body, Created by Gmsh 4.13.1 
ASCII
DATASET UNSTRUCTURED_GRID
POINTS 507 double
8.5 0 0
5.509335140664497 0 38
12 0 0
7.27789759052289 0 60
8.200933514066449 0 3.8
7.9018670281329 0 7.600000000000001
7.602800542199349 0 11.4
7.303734056265799 0 15.2
7.004667570332249 0 19
6.705601084398698 0 22.8
6.406534598465148 0 26.6
6.107468112531597 0 30.4
5.808401626598048 0 34.2
7.65823537717056 3.68801178249925 0
5.299663315799225 6.645567600978262 0
1.891427938628656 8.286887253545505 0
-1.89142793862869 8.286887253545498 0
-5.299663315799259 6.645567600978236 0
-7.658235377170581 3.688011782499204 0
-8.5 -5.935518276033327e-14 0
-7.658235377170531 -3.688011782499311 0
-5.299663315799171 -6.645567600978304 0
-1.891427938628608 -8.286887253545515 0
1.891427938628715 -8.28688725354549 0
5.299663315799263 -6.645567600978231 0
7.658235377170568 -3.688011782499232 0
4.22039556978615 3.541332366029788 38
0.9566860073327644 5.425635960469002 38
-2.754667570332252 4.771224189777766 38
-5.177081577118924 1.884303594439208 38
-5.177081577118923 -1.884303594439214 38
-2.754667570332255 -4.771224189777764 38
0.9566860073327692 -5.425635960469001 38
4.220395569786153 -3.541332366029784 38
11.34980690040761 3.896393630456207 0
9.469686112756717 7.370552552276022 0
6.563377897469113 10.04599773915035 0
2.945825845689581 11.63280319127197 0
-0.9909521456679979 11.95901391608004 0
-4.820345095835646 10.98927991986068 0
-8.127378859508902 8.82868692807757 0
-10.55368501447787 5.71136871644487 0
-11.83633564083267 1.975135083368787 0
-11.83633564083267 -1.975135083368821 0
-10.55368501447786 -5.711368716444897 0
-8.12737885950888 -8.828686928077589 0
-4.820345095835619 -10.9892799198607 0
-0.9909521456679715 -11.95901391608004 0
2.945825845689616 -11.63280319127196 0
6.563377897469155 -10.04599773915032 0
9.469686112756747 -7.370552552275983 0
11.34980690040762 -3.896393630456205 0
6.302844199534381 3.638948795261439 60
3.638948795261455 6.302844199534372 60
1.337378586081774e-14 7.27789759052289 60
-3.638948795261432 6.302844199534386 60
-6.302844199534364 3.63894879526147 60
-7.27789759052289 4.613978646370539e-14 60
-6.302844199534409 -3.638948795261393 60
-3.63894879526151 -6.302844199534341 60
-6.597764390521311e-14 -7.27789759052289 60
3.638948795261406 -6.302844199534401 60
6.302844199534367 -3.638948795261465 60
11.70486859940768 0 3.75
11.40973719881536 0 7.5
11.11460579822304 0 11.25
10.81947439763072 0 15
10.5243429970384 0 18.75
10.22921159644608 0 22.5
9.934080195853765 0 26.25
9.638948795261445 0 30
9.343817394669125 0 33.75
9.048685994076806 0 37.5
8.753554593484488 0 41.25
8.458423192892168 0 45
8.163291792299848 0 48.75
7.868160391707529 0 52.5
7.573028991115209 0 56.25
6.065497145703564 -3.204635953419135 20.83785420602795
6.065497145706958 3.204635953412093 20.83785420603161
-8.03554432952007 -1.834060556385795 3.275744402997614
-5.762035391324629 -4.412069668266954e-15 34.7891388782297
-3.379428033851598 7.517972146910663 3.270589217275573
5.391941219994039 3.18498295365833 28.43191829082987
5.39194121999398 -3.184982953658433 28.43191829082986
6.727609899407986 -3.219222192671223 13.23785287252226
6.739353838675357 3.22160556971012 13.09016977641429
0.4783432227581481 -8.226365795259635 3.300292989164432
3.576153658104325 7.425959588484098 3.275744402997973
-1.086658389477928 -5.659686655152304 34.77609912655264
-0.9109160748050757 5.673654350222103 34.98890119684756
7.389181815472853 -3.19159085167121 5.730609575285854
7.379020350887165 3.231437073333061 5.647082552646321
5.731392602220376 -3.194225225183771 24.63228143188909
3.682023197551315 -5.628114941836368 22.54657239210587
4.101200187755516 -5.702532359364101 18.75242054286511
0.8175650956278471 -6.850015424871815 20.34730917313014
1.29664964258145 -7.076495201268277 16.59037483536718
-2.186633795447806 -6.732917594168588 18.05434514057449
-2.67246154562269 -6.237643379477635 21.77801396038334
-1.735487394586087 -7.16637493564803 14.31324327106033
-4.826680451170935 -5.432983456976203 15.66249786559182
-4.488989629293553 -6.08312351199267 11.94230338835031
-6.741143695045292 -3.202394214033014 13.17465047814756
-6.770835460151718 -2.367043404474216 16.86540434239733
-7.368407534440919 0.3383154652465001 14.27961141694156
-6.975345159985745 1.264205496364414 17.92869269827893
-6.244386033623826 3.782703942813374 15.23769370013392
-6.940241468713294 3.059272227663524 11.63130919641533
-4.666358620814091 5.895708158280994 12.46570237185833
-3.539748416516809 6.312316356536994 16.04706957461803
-1.290829635365313 7.350598944652786 13.17533236643096
0.09421852821455183 7.184734921481763 16.70417810366386
-2.266992704250034 6.576621764401992 19.6135635829538
-1.352117347482367 -7.550222131192131 10.54186308791559
-4.154268580635431 -6.664725096026223 8.215333270171664
-2.493944099004052 7.328495152561166 9.641122702571019
1.161588681331272 7.606430728725504 10.23340594147543
-6.724254434404584 -1.470146953703108 20.54478782380468
-6.449510097114013 2.163441222789284 21.56630561962013
-6.569573277820989 -0.5687813093458466 24.21612895971849
-5.784558170520416 3.002256900569262 25.19311810307264
-6.295395514252432 0.3770739098913851 27.86879635078978
-4.928430589794218 3.818100887201699 28.78760636200149
-3.176190930704829 5.617720352316285 26.00392870311055
-5.571747181713516 -3.135588923146877 26.76617445290648
-1.890040912779112 5.877815386170419 29.55186179618928
0.4740380143666766 6.385736165782242 26.64101262850176
1.477093386604709 6.749549808313903 20.21194285670326
3.902246084140111 6.002061979662593 17.03814066197117
-5.600662754319496 -2.343852662467939 30.85915667745142
-3.314935004501389 -5.248271903698445 29.12887630123288
-4.53821489982432 -3.563535409870691 34.68653058668122
-0.2870733300241685 7.965570758845528 6.724860043631288
1.984174292938092 5.815311057089158 29.92955824388286
2.381782685275133 5.263191064216849 34.59862165940439
3.385037550401778 7.170874407568869 7.246527306642845
4.565484912578054 6.147700704815349 10.70450442650276
-3.343978096511317 4.950837090470189 32.09129893335724
3.240074189883114 -5.551886227108162 26.32494604659643
2.832137733153976 -5.437367751279567 30.10430340565509
2.606577942027155 -5.152075681325505 34.63815236300034
5.283592633057723 3.947280339597805 24.20209470113189
7.0550847351737 -3.224208729108483 9.441780127980431
5.295433099754452 -5.885499080784353 7.406255168121699
4.890753560213298 -5.844519172632451 11.170226378494
4.487890991762862 -5.782915839714593 14.99255682136438
5.049491880756412 -3.17280636478341 32.22850398622597
7.055060002245741 3.22424898301439 9.44185335662722
5.883550537308485 4.075306152111066 17.06297881712811
6.391187530613602 -3.215842932260419 17.09437495068886
-3.113427636188054 -5.697391758194628 25.50658242680384
-5.394743513645762 -3.938193236435037 23.13459115553493
2.446975242820828 7.0040189901773 13.73334457186314
-5.154685854149345 -4.699687569994484 19.37038210064056
-6.59694134203899 -4.063287296144311 9.556349446447221
-6.561872129865974 -4.647023837748486 5.835849292087488
-3.608593364174658 -7.348245933187941 3.983486670918678
-7.835012954085928 -1.306627457649362 7.074593197166427
-7.90669762864874 1.831984041531689 4.877165458509747
5.033617864031519 3.21976464082848 32.0793731154827
-0.9324662716385134 6.609333612800178 23.19152753554645
-5.362474987285132 4.525575657629016 18.84449310125154
-4.344315983069025 5.141044016297156 22.48005688489386
-0.1697471025796032 -6.311180645958864 27.78258661174793
6.065950368299909 -5.555936255172279 3.483735568566932
0.309924734872011 -6.594145212584889 24.12368997560478
2.14472275371608 -7.48968340209427 9.012358800178971
1.764517071273172 -7.28260076297874 12.79112479149338
-7.63751935169631 -0.5714686753899353 10.68757943155379
2.638859719815105 6.09149398238291 23.65241129086635
-5.721192998664184 1.869582255801683 31.52512187520571
-0.6939113242860874 -7.940001142502814 6.730915866965512
-5.724215735391132 5.296548991778044 8.910571927362957
0.06897350391131858 8.258675934699838 3.062653391458424
-6.444357049543246 5.139203255467417 3.270042865940277
2.809568327655215 -7.562392641371384 5.496299479684231
-0.6362872065980639 -6.001342586445761 31.32105864293034
6.342106134064173 5.291282947028416 3.055345967319911
-7.588407044517294 1.973754942245841 8.374726601856356
-4.072658347427639 6.871320514460281 6.510788262472317
-6.483358843244083 -5.170306148062657 2.636191726718592
3.298885489911926 5.47780330200368 26.75356558828733
-4.345838928375678 3.719954450490389 35.31661080528711
5.866222915937599 5.313632619865011 7.433099334879819
-6.8716351065165 4.105877973921171 6.291493583697874
4.877099671540654 5.523301940711385 14.37864566186798
3.433245047475019 -7.556046467430584 2.548122596602068
-3.364453321296393 -4.929224110517678 32.17235259068593
4.897971560764659 2.982079018471028 35.14074810140757
5.027532895368914 -2.743311033879738 35.23063014260661
4.079640590111174 5.573892276749391 20.23629927547872
7.779358617306917 -2.823949807488267 2.845470562687005
7.812995698938869 2.74293309937655 2.789085955470347
-0.6682439713267033 5.942100727316861 32.02525507017542
-8.127426374681244 1.843789660251355 2.109943674271435
1.846678043039745 -7.401486830834377e-17 38
-1.91337201466555 -1.43215587042908e-15 38
-0.4783430036663876 2.712817980234497 38
-0.478343003666388 -2.7128179802345 38
-7.909740641739153 6.21840875699997 0
-7.909740641739112 -6.218408757000027 0
4.175073749396644 9.15281394623652 0
4.175073749396687 -9.152813946236499 0
8.935881143994854 -3.209627415059868 31.83128104831302
8.622259865243404 3.210721483584408 35.56901948640535
9.560740229175035 3.210769427521803 24.32635413700642
9.70479363407347 -3.716355517672122 20.43117751032401
7.572575793799106 -4.09758946533286 43.0725261603211
-11.73088669374763 -1.940162152660217e-14 3.419408766471456
-2.93356341489342 11.36350050067426 3.353765747894174
-7.290541649137687 1.984803379761022 56.46779818220659
7.694330858993568 3.154194830285126 46.81285440877583
-2.550778283412737 -11.45591304092289 3.348636435899146
10.49497893106745 3.195253963268123 13.07967085456085
-1.949325425597162 -7.274981528814155 56.7762135102464
10.30028872730695 -3.761722649871375 13.14206888421812
-1.976212442307552 7.275357946767365 56.68260865122541
7.358006790879124 -3.190129739543207 50.57323636838945
7.525537753436183 9.008657493085222 3.324163033449048
4.712243512000845 -10.74283313214679 3.419408766471714
-9.257317901175377 7.20525973842184 3.419408766471709
-9.257317901175359 -7.205259738421862 3.419408766471709
7.037746588842867 3.184812749282433 54.32125868882564
11.10107250334919 -3.225331996075627 5.589093889147453
4.860641625241934 -5.775290174685608 56.56170290324955
11.10107250334962 3.22533199607392 5.589093889148325
8.302498260544249 3.219399699765722 39.32785339379618
6.767990550768168 6.028531846019131 37.31046639484082
7.1561374373903 6.029827549225469 33.57185725044894
4.459516505363632 8.07916914395812 35.2186546684297
4.03726469586814 7.96948964214527 38.96012839271994
4.877740297785107 8.178981872165188 31.4728916166187
7.520309771481806 6.052851286960895 29.81378956583192
5.277334135415425 8.280104071247269 27.71377373905037
1.923148430858776 9.49895701911773 29.32997136373502
2.464358994756387 9.680334675724991 25.55101784553294
-1.103463566948654 9.80808709383358 27.06466390609456
-0.5956968721073074 10.14822986869925 23.30701150773297
-3.982604614699079 9.229425708488868 24.75122265255619
-4.40212492057993 8.707793630796385 28.49655016365561
-3.553124035786846 9.718833925803832 20.99106814265381
-6.570573797032475 7.854840132300438 22.35463580261689
-6.253481667766271 8.480387363219215 18.59241302623172
-8.665669585966803 5.814376506269245 19.87816128611652
-8.8118071220996 5.018929650410747 23.622263861378
-10.04801131282863 2.447857024148282 21.06837938141427
-9.929237850984048 1.548383401381416 24.78673642794851
-10.18091864893847 -1.242852275936011 22.15327163310771
-9.737143862762657 -2.122814665780092 25.84623298060024
-9.015913597590666 -4.724573926518793 23.14033575231139
-8.222622840338536 -5.497644949143086 26.79498012324179
-9.197202449421399 -3.009072282229524 29.51735401381464
-9.712632359766667 -3.902713115655338 19.4735692795692
-7.659489634273101 -7.029596552183039 20.37696775713825
-3.108460018816291 10.18166752779877 17.20923716048111
-7.332394637012778 -6.204057620828051 30.43247349677862
-8.558227217383159 -3.862089403382325 33.17206625808665
-6.323319077861125 -6.84704837718311 34.04987777709021
-7.802784747782774 -4.688778697823762 36.80744187430816
-5.568695792453771 -8.09431811440656 27.63746084531024
-9.096661336310383 -1.22337936950202 35.84983521480454
-8.605894975505427 -2.241471304483646 39.47805456937944
-6.93250904852404 -5.449707920275151 40.42979322884231
-8.05187039335263 -3.033739004321929 43.14482714337586
-6.011723089674582 -6.057232799697049 44.03841944630597
-10.10124492618864 3.328350766599845 17.33808968193387
-8.663007553761998 0.5998598237039277 42.13693856384484
-8.588516489312555 -6.354532359063732 16.72443320626577
-5.844774745359044 -8.86427249187833 17.56308952470697
2.941860420317556 9.857248191706278 21.76726302345099
1.158669650468643 9.03210376952226 36.77023705870678
0.6933706929698074 8.78474499369918 40.50654184873146
-4.053644662027241 -7.759752545423802 41.23470420985013
-2.844165801744913 -7.982613764245725 44.80003447762223
-5.888564046916641 9.094015674331169 14.81499397023413
-7.382172758807954 -3.834128417944132 46.77821876145224
-6.969582184328739 -8.386510101814606 13.91935175143824
-3.665200507920996 -10.20588281799837 14.6875507943682
-2.350077137213913 -10.29472361075972 18.30259210460662
0.07553110968990209 -10.790865310309 15.36015418386934
-9.378847619607839 -5.690641384593466 13.08433190179717
-2.311248829162325 8.68984928207667 38.22076711079207
-2.639135406717508 10.62160768464617 13.41052532800753
1.435635350978262 -10.41164542148404 18.93024469472615
-0.4992510633867022 -8.686669944972206 41.9177071004563
3.79373459855749 -10.05438836810804 15.92966011599398
-2.757987307179771 8.249994504228161 41.94588238741866
0.2268866609168426 8.514846963692476 44.24466636791801
-3.191779749716208 7.77645302230333 45.66621804219201
-0.3424409564484934 8.224955519104729 47.87594907848778
0.8608134322278648 -8.380456574966457 45.43039258434479
2.495886955657835 -10.73870671259418 12.38932838377752
-3.694056164938622 7.232952242058065 49.27875684583398
-5.535450030340695 9.660184010117954 11.006765210722
-1.526336930167138 -8.052226267239824 48.33933574731471
0.4339958998891368 10.75222231364161 15.74327334070982
0.8872411807343293 11.02633383812585 11.91876990433474
3.899735232150885 10.16226858855371 14.16951202078918
-0.9954818056051791 -10.22920517479757 21.88605669909299
2.76310166827729 -9.8513478558078 22.47080313894162
-4.990185696266556 -9.94101287081771 11.14073637672548
-1.84588623745506 -8.787155483135971 38.38618284966641
1.886655669594991 -8.730264915261001 38.98521729892652
0.5410721387641145 -9.19155967954128 35.48244093734903
4.145568396504175 -8.175410302439332 36.00417561042057
2.950023836117683 -8.967850568601888 32.52022265272029
4.329004523104911 10.31183016319619 10.3726567507444
-8.270089244682614 7.295942834354392 12.34560694739109
-6.049435113366516 5.687507062443022 46.97208990597355
-5.428992488725052 7.03404349020901 39.57374848427829
-5.069747270990484 7.650882504657127 35.85507093009757
0.3716413363293406 -9.991023053004692 25.43867659330661
4.03324073990422 -9.10171135749216 25.98026041611122
5.982174370457127 -9.213810336214477 12.89073336617302
-8.926368026854707 4.161145818476097 27.33596197948327
-6.300501365310152 4.950362650008269 50.66420613310064
7.040122809903528 -8.070831683644185 16.39245551701516
2.198198588283567 -7.8478450458308 48.92025326624263
-0.818829390046811 -9.449261608988049 31.96025675374488
6.127522425289398 -8.146239110412097 22.95357159022817
7.111026085164046 -6.91872385323758 26.41031431670672
-7.549656475177702 5.042850996587743 37.11523124733927
-7.326574321198529 5.841928717013131 33.41059098966979
-7.822159920924947 2.486719779780418 48.18293683301264
1.358780479410735 11.28171290610576 8.090742999016728
6.9743612106411 8.525011746845724 12.52292840378263
6.562798032367787 8.468744823356717 16.34008388346227
3.12887778423924 7.735123082254223 46.45413632038139
2.099714689986831 7.76263522904963 50.2962590626429
5.010368951176321 -7.349413351349717 39.45515938593602
4.238420680522895 -7.258454086765489 45.67476929793043
4.927156738061048 -10.12718793168021 9.374829603413234
7.724279739093391 -8.149610525596739 9.802023923998254
1.18047787897672 -11.24083036530029 8.860729036336826
7.054616888814406 -5.803062735154809 36.40680156443097
-7.699837697730925 1.860065299637516 51.82451670827017
-0.3428510874283264 -7.913562912141503 51.82878249784659
-3.944806773720175 -6.927426028780874 51.18222809141462
7.486268535548584 8.468753366001522 8.852744863905293
3.371503342409563 -7.109057526627939 52.50178789568257
-8.125011275598029 7.883979281285977 8.62308171730044
-10.11000936921544 4.877092686233505 9.848611831787444
-5.113443496053126 10.22772513755488 7.182094268399173
-3.620614168645694 6.929570663550996 53.13192608227502
-5.230911528343735 5.427046204952969 56.70029261565299
-0.2764209289121197 7.800613248103184 53.2960574809453
1.816579166018117 7.315415645173059 56.70029261565298
5.056856414803113 -8.25682881401521 29.44911456719772
-8.930218856799199 2.511631928773117 34.60284784198793
-8.827055701852084 1.696372259440271 38.2637043724431
-7.750443780389103 4.117328639882669 40.96219950033299
6.474313839368746 -9.494828380337871 6.453402192066633
3.462750173233722 10.00262008976749 17.97878608577519
6.106301992634126 8.437765608772397 20.13287634160594
8.637159890356605 6.056929124173484 18.43337847764959
-3.347328415562879 -9.475274014786958 24.78789353244688
5.007461223649528 -9.191722646706621 19.47597515781388
5.699365468849359 8.357993765545501 23.93511693780794
-0.09916712240878499 10.46296064890472 19.52396554701501
7.924862414640606 -6.788065805585174 19.89004660729208
9.385186467205346 -5.092089630097272 16.80270890408975
5.879694935561798 -7.338292386419282 32.99467694286027
3.591089673844734 7.857163136165242 42.70657147691796
1.574023060690266 -9.585579553438988 29.04698050911528
-6.66057327018513 -7.605331416609971 24.01962713802963
8.939159099780769 3.201831944745365 31.82551795508443
7.977279881142592 3.242115591876951 43.06207537169645
7.665094419861371 -3.182708045379109 47.01808378493669
8.316348186140358 -3.169789971389326 39.38979460182681
7.369208621376822 3.164237160371063 50.5728871593084
2.084659053122953 -7.243572840188674 56.70038960242871
8.753290251111043 -6.585876031353457 13.28852259924919
-5.345356727469243 -5.306229458012984 56.77310623084348
-7.315382307578586 -1.816746427087778 56.70019150813178
-6.756053512940534 -3.88099370192657 53.47496043313234
-5.760160975062185 6.378327908988004 43.27313050817536
9.103581900824111 -3.615041720446022 28.01607553126607
9.543862853863963 -3.245777242835507 24.38709715418363
-6.933981761610343 7.131347321409828 26.0900482330313
3.077099808837167 -8.092545564478401 42.46643083408075
-4.655410230908504 -9.218889078357034 21.24897190123682
9.878638670053299 3.190145935112773 20.57172976301183
10.80596429120219 3.182970038162902 9.339095714118459
-9.737677903565029 0.6240718197189725 28.49169108418937
1.522364659214954 9.277103749593383 33.02109659154956
-1.86554288413902 9.09833692790696 34.46398730650069
-8.47531414603425 6.581642965062078 16.12736313122856
10.8023983141443 -3.225268777581443 9.229724530980288
7.864792131608759 6.09146869074313 26.07425478365716
-2.223438877486215 11.01755369025533 9.660915401282498
-9.46269295849685 -0.3017439701300796 32.17842913675231
-4.901866587110449 -6.634383711985187 47.66302087526135
-10.11893052210904 4.135984518513699 13.5757483365071
-11.04570229378027 1.417778117453126 10.97408873916896
-11.1241444567196 2.647147085938113 7.181921082719397
-11.28527931994659 -1.202941436116748 8.269054296552863
-10.8656181941605 -4.046164477190875 5.151995904481852
-8.847695656744817 -7.226128440774727 7.323848781406489
-6.939772849299122 -9.217087832009843 5.875931903523104
-10.82714394051288 0.5278252840059326 14.73917086308426
-3.115497476570217 -8.715448388138109 34.87143422231924
-5.229640263152236 -7.365231261708002 37.69883132096179
5.140043580034561 5.521525034236217 56.622763737726
-10.53955916729599 -0.3407720649125348 18.48667958375673
-10.29366463588529 -3.117544686562745 15.81414988758007
-1.294949615656123 -10.99434955358659 11.81234188937588
-8.389290466434943 -0.321119267333593 45.800353531327
9.251255925413759 3.207691907416395 28.06064660747617
-7.880977765812449 -1.786091514378094 49.79768210871775
6.059667810469477 5.927271619625639 44.76950999848624
5.481403254688127 6.062833914569921 48.62213112262966
6.380574006618952 6.009592391538848 41.10333985809993
8.227613386681865 6.107958874817013 22.27411661432084
5.299283605554569 5.8321892922704 52.34759739794782
7.03759725001755 -3.185082735785535 54.32157302866641
-4.386440564869988 -8.473881615827679 31.23333834518499
-2.153039029136757 -9.526522911724529 28.37560465105431
-7.11937660538018 6.525220326616389 29.76644410247238
-8.930190779802068 3.40979617710592 31.01548930385376
-11.07844094565738 3.830840236728569 3.531291521772172
9.480167587765068 -6.459705938411934 6.711869763525177
1.131937679155929 -11.68135689486795 3.35352546334882
-7.796539518917633 3.355283378519763 44.62582945454445
-6.433942319861685 9.815429035037143 3.351966923415254
4.488214955899196 10.84588135477766 3.330881111054233
0.8062451548362479 11.71199868361771 3.307214945615138
-4.771250776723305 8.174871654646743 32.20543957768486
-1.555418112633602 9.448706246322631 30.80143305507157
5.4448706571658 -6.018579708373646 49.35053740780478
10.21241057880971 3.107581119887502 16.83883671378939
-10.82904069505969 -2.18198203907798 12.11306243704524
9.282210415544268 6.140463112173986 11.06135220984365
8.933168127854586 6.139088784240783 14.74839696370825
-2.897317330173098 -10.95486373229127 8.493764356093445
9.672386059089398 6.067501565908564 7.395621358046155
-7.899979161008796 -7.912886612018402 10.40144731209247
10.2057721168325 -5.8146822200432 3.227485356437227
-6.553293041883128 -4.68613858002691 50.1082177617571
9.914881402607806 6.29262761858319 3.263337848972882
6.055163101500312 -6.126535124299131 43.02436214200029
8.733452378570876 -2.889738086058927 35.58857690392909
7.714595251605263 -5.79890128118807 29.84658859491528
8.033773104559421 -8.594522446817265 2.990223427871836
5.100719733101596 10.26435876927348 6.837623852811777
-6.291010219034097 4.55192957170541 53.80942920959694
-9.890750823364424 5.859543213562728 6.402168421973619
-10.21710604901414 -4.624394297428699 9.975473304131066
3.430126234234681 -10.96580552141809 6.483174171299474
-0.999779040201681 11.45536490015364 6.366945536215883
-6.345277297931435 -9.923592846785066 2.810553407270798
8.116102340362756 -6.168326294787622 22.94632728978354
-3.626286406178197 -6.820466480483968 54.32470733767266
-7.721740298503523 -0.8891513320684606 53.71212352649867
2.617716920624073 7.322551546312288 53.66608476339557
5.841543164577506 -5.29052961688291 52.33430258056747
-0.7472271538335833 -11.49132970280215 6.154905767394699
6.974283203917073 2.738681650490269 57.27029496481619
6.818876782247138 -3.132958185713934 57.12498708662163
10.42125197722616 -2.306573732326239 16.85527288830041
9.520320641007455 -5.85682461970829 10.44949298632567
11.46410595137761 2.734906707860012 2.721475900470036
11.46410595137739 -2.734906707861941 2.721475900467181
-0.3276914827224287 -7.692010784311012 54.64954284913402
-4.35530711485352 -10.68030404344423 5.918646620413151
7.78819945856058 -5.172834946989592 33.67703327991393
-7.815478025073531 8.512649027717144 5.638391453980566
-1.201845431813311 7.922886912290853 50.65297819566974
6.50475915709856 -5.323754050037014 45.67107836584796
6.929792522788655 -5.480450474366254 40.21503961159589
-6.286414415877529 -9.41340704443253 8.646483565153526
-11.19151833672801 -3.853912192044479 2.077470048225951
2.633898073030535 11.25369471867767 5.618506165343842
8.007198785866892 8.272761987146408 6.185353397973196
-3.701498499457172 0.7003160221705068 60
3.851738121937664 -0.931509262873081 60
-1.119158375460275 -3.801457693759516 60
1.269397997940749 3.570264453056938 60
2.100948066511433 -3.638948795261449 60
0.6201842895985421 -1.130840590299121 60
-1.762894954313782 -1.284003716926086 60
-3.967207069091672 -2.387823063885131 60
1.906222097854563 0.8343620008315338 60
4.041174800508617 2.235818364301867 60
-0.7050019238897451 1.138717118726257 60
-2.179815903366991 3.771498029878741 60
0.5246755264409328 0.3350566803778547 52.90059838570973
-0.2509501975663486 -0.8318196101710225 45.40022151872344
-0.5849543534458523 3.188476668045539 48.79098336543978
-1.145096056852127 3.732798912739443 43.47457185779803
-1.778693991615293 -2.62907540586125 55.5852880714453
3.26558702603565 -0.8811914671675338 48.92531351505713
3.277436945746891 1.459921268268485 42.61380982266511
-2.89896457003596 -1.294090797729312 49.62703655210422
-3.904963440536498 -0.04748234940814455 42.37565180310057
0.5640726973538357 -4.242189452239366 42.42577781559415
3.369322616750334 0.4916521623208275 56.03769920416193
-2.353264180879995 1.944870632165471 55.92156547900326
-4.020371975639352 1.998130703300904 46.14574352442403
0.1761867098897891 -4.05464812786872 48.28349506028376
3.226125720794209 2.867528526092383 46.72578924446591
3.68252225649847 -2.298250297315771 44.60539761232391
-3.465073579981377 -3.337357574529763 45.7198934357093
2.241620297676647 -3.247732390980954 54.38474482610405
-3.450467376331439 2.162726439986473 51.90033372721602
-3.606547900129765 -3.911952949511172 41.81294681597947
4.231679162217327 1.358866224069417 52.3502588283124

CELLS 2591 11815
1 0
1 1
1 2
1 3
2 0 4
2 4 5
2 5 6
2 6 7
2 7 8
2 8 9
2 9 10
2 10 11
2 11 12
2 12 1
2 0 13
2 13 14
2 14 15
2 15 16
2 16 17
2 17 18
2 18 19
2 19 20
2 20 21
2 21 22
2 22 23
2 23 24
2 24 25
2 25 0
2 1 26
2 26 27
2 27 28
2 28 29
2 29 30
2 30 31
2 31 32
2 32 33
2 33 1
2 2 34
2 34 35
2 35 36
2 36 37
2 37 38
2 38 39
2 39 40
2 40 41
2 41 42
2 42 43
2 43 44
2 44 45
2 45 46
2 46 47
2 47 48
2 48 49
2 49 50
2 50 51
2 51 2
2 3 52
2 52 53
2 53 54
2 54 55
2 55 56
2 56 57
2 57 58
2 58 59
2 59 60
2 60 61
2 61 62
2 62 3
2 2 63
2 63 64
2 64 65
2 65 66
2 66 67
2 67 68
2 68 69
2 69 70
2 70 71
2 71 72
2 72 73
2 73 74
2 74 75
2 75 76
2 76 77
2 77 3
3 4 192 0
3 0 193 4
3 13 193 0
3 0 192 25
3 12 189 1
3 1 190 12
3 1 189 26
3 33 190 1
3 5 91 4
3 4 92 5
3 91 192 4
3 4 193 92
3 6 143 5
3 5 148 6
3 5 143 91
3 92 148 5
3 7 85 6
3 6 86 7
3 85 143 6
3 6 148 86
3 7 149 8
3 8 150 7
3 7 150 85
3 86 149 7
3 9 78 8
3 8 79 9
3 78 150 8
3 8 149 79
3 10 93 9
3 9 142 10
3 9 93 78
3 79 142 9
3 10 83 11
3 11 84 10
3 10 142 83
3 84 93 10
3 12 147 11
3 11 160 12
3 83 160 11
3 11 147 84
3 12 190 147
3 160 189 12
3 14 178 13
3 178 193 13
3 15 88 14
3 88 178 14
3 16 174 15
3 15 174 88
3 17 82 16
3 82 174 16
3 18 175 17
3 17 175 82
3 19 195 18
3 18 195 175
3 20 80 19
3 80 195 19
3 21 181 20
3 20 181 80
3 22 157 21
3 157 181 21
3 23 87 22
3 87 157 22
3 24 187 23
3 23 187 87
3 25 165 24
3 165 187 24
3 25 192 165
3 26 135 27
3 26 189 135
3 27 90 28
3 27 135 90
3 28 183 29
3 90 183 28
3 29 81 30
3 29 183 81
3 30 132 31
3 81 132 30
3 31 89 32
3 31 132 89
3 32 141 33
3 89 141 32
3 141 190 33
3 93 94 78
3 94 95 78
3 95 150 78
3 79 191 142
3 149 191 79
3 156 158 80
3 80 181 156
3 158 159 80
3 159 195 80
3 130 132 81
3 81 171 130
3 81 183 171
3 133 174 82
3 82 180 133
3 175 180 82
3 134 160 83
3 83 182 134
3 142 182 83
3 84 139 93
3 84 140 139
3 84 147 140
3 85 145 143
3 85 146 145
3 85 150 146
3 86 148 137
3 137 186 86
3 86 186 149
3 87 172 157
3 87 176 172
3 87 187 176
3 133 136 88
3 88 174 133
3 136 184 88
3 88 184 178
3 132 188 89
3 89 177 141
3 89 188 177
3 135 194 90
3 138 183 90
3 90 194 138
3 143 144 91
3 144 165 91
3 165 192 91
3 92 184 148
3 178 184 92
3 92 193 178
3 93 139 94
3 94 96 95
3 94 166 96
3 139 166 94
3 96 97 95
3 97 146 95
3 146 150 95
3 96 98 97
3 96 99 98
3 96 166 99
3 98 100 97
3 100 168 97
3 97 168 146
3 99 154 98
3 98 101 100
3 98 154 101
3 151 152 99
3 99 166 151
3 152 154 99
3 101 102 100
3 102 114 100
3 114 168 100
3 101 103 102
3 101 104 103
3 101 154 104
3 103 155 102
3 102 115 114
3 102 155 115
3 104 105 103
3 105 169 103
3 103 169 155
3 104 106 105
3 104 118 106
3 104 154 118
3 106 107 105
3 107 108 105
3 108 169 105
3 106 162 107
3 118 119 106
3 119 162 106
3 107 109 108
3 107 110 109
3 107 162 110
3 109 173 108
3 108 179 169
3 173 179 108
3 110 111 109
3 111 116 109
3 116 173 109
3 110 112 111
3 110 113 112
3 110 162 113
3 112 153 111
3 111 117 116
3 111 153 117
3 113 128 112
3 128 129 112
3 129 153 112
3 113 161 128
3 113 163 161
3 162 163 113
3 115 172 114
3 167 168 114
3 114 172 167
3 155 156 115
3 156 157 115
3 157 172 115
3 117 133 116
3 133 180 116
3 116 180 173
3 117 136 133
3 117 137 136
3 117 153 137
3 118 120 119
3 118 152 120
3 118 154 152
3 120 121 119
3 121 163 119
3 119 163 162
3 120 122 121
3 120 125 122
3 120 152 125
3 122 123 121
3 123 124 121
3 124 163 121
3 122 171 123
3 125 130 122
3 130 171 122
3 123 126 124
3 123 138 126
3 123 171 138
3 126 127 124
3 127 161 124
3 161 163 124
3 125 131 130
3 125 151 131
3 125 152 151
3 126 134 127
3 126 194 134
3 138 194 126
3 134 182 127
3 127 170 161
3 127 182 170
3 128 191 129
3 161 170 128
3 170 191 128
3 149 186 129
3 129 191 149
3 129 186 153
3 131 188 130
3 130 188 132
3 151 164 131
3 164 177 131
3 177 188 131
3 135 160 134
3 134 194 135
3 135 189 160
3 137 184 136
3 148 184 137
3 153 186 137
3 171 183 138
3 140 164 139
3 164 166 139
3 140 147 141
3 141 177 140
3 140 177 164
3 147 190 141
3 170 182 142
3 142 191 170
3 143 145 144
3 145 167 144
3 144 176 165
3 167 176 144
3 146 168 145
3 145 168 167
3 151 166 164
3 155 158 156
3 155 169 158
3 156 181 157
3 158 179 159
3 169 179 158
3 159 185 175
3 175 195 159
3 179 185 159
3 176 187 165
3 172 176 167
3 173 185 179
3 180 185 173
3 175 185 180
3 26 196 1
3 1 196 33
3 27 198 26
3 26 198 196
3 28 198 27
3 29 198 28
3 30 197 29
3 197 198 29
3 31 199 30
3 30 199 197
3 32 199 31
3 33 199 32
3 196 199 33
3 196 198 197
3 197 199 196
3 2 0 34
3 51 0 2
3 34 0 13
3 25 0 51
3 14 35 13
3 35 34 13
3 15 202 14
3 36 35 14
3 14 202 36
3 16 38 15
3 38 37 15
3 37 202 15
3 16 17 39
3 39 38 16
3 18 200 17
3 39 17 40
3 17 200 40
3 18 19 42
3 41 18 42
3 41 200 18
3 19 20 43
3 42 19 43
3 21 201 20
3 43 20 44
3 20 201 44
3 46 21 22
3 45 21 46
3 45 201 21
3 23 47 22
3 22 47 46
3 24 203 23
3 23 48 47
3 23 203 48
3 25 50 24
3 24 50 49
3 49 203 24
3 25 51 50
3 36 202 37
3 40 200 41
3 44 201 45
3 48 203 49
3 34 461 2
3 2 462 51
3 2 461 63
3 63 462 2
3 3 457 52
3 62 458 3
3 77 457 3
3 3 458 77
3 35 439 34
3 439 461 34
3 36 219 35
3 219 439 35
3 37 425 36
3 36 425 219
3 38 426 37
3 37 426 425
3 39 210 38
3 210 426 38
3 40 424 39
3 39 424 210
3 41 221 40
3 221 424 40
3 42 420 41
3 41 420 221
3 43 209 42
3 209 420 42
3 44 471 43
3 43 471 209
3 45 222 44
3 222 471 44
3 46 450 45
3 45 450 222
3 47 213 46
3 213 450 46
3 48 422 47
3 47 422 213
3 49 220 48
3 220 422 48
3 50 443 49
3 49 443 220
3 51 437 50
3 437 443 50
3 51 462 437
3 52 403 53
3 52 457 403
3 53 347 54
3 53 403 347
3 54 217 55
3 54 347 217
3 55 345 56
3 217 345 55
3 56 211 57
3 56 345 211
3 57 374 58
3 211 374 57
3 58 373 59
3 58 374 373
3 59 215 60
3 59 373 215
3 60 371 61
3 215 371 60
3 61 225 62
3 61 371 225
3 225 458 62
3 64 224 63
3 63 226 64
3 224 462 63
3 63 461 226
3 64 383 65
3 65 388 64
3 64 388 224
3 226 383 64
3 65 214 66
3 66 216 65
3 65 383 214
3 216 388 65
3 66 430 67
3 67 459 66
3 214 430 66
3 66 459 216
3 68 207 67
3 67 382 68
3 207 459 67
3 67 430 382
3 68 206 69
3 69 378 68
3 68 382 206
3 68 378 207
3 70 377 69
3 69 408 70
3 206 408 69
3 377 378 69
3 71 204 70
3 70 366 71
3 204 377 70
3 70 408 366
3 71 205 72
3 72 441 71
3 71 441 204
3 71 366 205
3 72 227 73
3 73 369 72
3 205 227 72
3 369 441 72
3 74 208 73
3 73 367 74
3 208 369 73
3 227 367 73
3 74 212 75
3 75 368 74
3 74 368 208
3 74 367 212
3 76 218 75
3 75 370 76
3 212 370 75
3 218 368 75
3 76 223 77
3 77 415 76
3 76 415 218
3 76 370 223
3 223 457 77
3 77 458 415
3 204 442 377
3 441 465 204
3 204 465 442
3 205 228 227
3 205 229 228
3 205 366 229
3 382 413 206
3 389 408 206
3 206 413 389
3 360 361 207
3 207 451 360
3 361 459 207
3 378 451 207
3 368 468 208
3 208 469 369
3 208 468 440
3 440 469 208
3 209 396 395
3 395 420 209
3 209 397 396
3 209 471 397
3 210 424 343
3 343 449 210
3 210 449 426
3 211 445 336
3 336 453 211
3 345 445 211
3 211 453 374
3 367 410 212
3 212 411 370
3 410 411 212
3 422 456 213
3 213 464 450
3 456 464 213
3 383 432 214
3 214 433 430
3 432 433 214
3 215 463 371
3 373 452 215
3 452 463 215
3 361 372 216
3 216 459 361
3 372 460 216
3 216 460 388
3 344 345 217
3 217 346 344
3 217 347 346
3 218 429 368
3 415 455 218
3 218 455 429
3 425 444 219
3 219 473 439
3 444 473 219
3 220 443 352
3 352 448 220
3 220 448 422
3 420 446 221
3 221 466 424
3 446 466 221
3 222 398 397
3 397 471 222
3 222 399 398
3 222 450 399
3 370 414 223
3 223 414 403
3 403 457 223
3 388 421 224
3 421 437 224
3 437 462 224
3 225 371 340
3 340 455 225
3 225 455 415
3 415 458 225
3 226 435 383
3 226 439 435
3 226 461 439
3 228 412 227
3 227 412 367
3 229 230 228
3 230 231 228
3 231 412 228
3 229 232 230
3 229 233 232
3 229 366 233
3 230 271 231
3 232 385 230
3 230 385 271
3 271 272 231
3 272 363 231
3 363 412 231
3 233 234 232
3 234 235 232
3 235 385 232
3 233 389 234
3 366 408 233
3 233 408 389
3 234 236 235
3 234 358 236
3 234 389 358
3 236 237 235
3 237 428 235
3 235 428 385
3 236 238 237
3 236 270 238
3 236 358 270
3 238 239 237
3 239 240 237
3 240 428 237
3 238 241 239
3 238 359 241
3 270 359 238
3 239 379 240
3 241 242 239
3 242 379 239
3 379 418 240
3 418 427 240
3 427 428 240
3 241 243 242
3 241 255 243
3 241 359 255
3 243 244 242
3 244 245 242
3 245 379 242
3 243 387 244
3 255 275 243
3 275 387 243
3 244 246 245
3 244 266 246
3 244 387 266
3 246 247 245
3 247 315 245
3 315 379 245
3 246 248 247
3 246 404 248
3 266 404 246
3 248 249 247
3 249 384 247
3 247 384 315
3 248 250 249
3 248 253 250
3 248 404 253
3 250 251 249
3 251 252 249
3 252 384 249
3 250 365 251
3 253 254 250
3 254 365 250
3 251 256 252
3 251 260 256
3 251 365 260
3 256 257 252
3 257 391 252
3 252 391 384
3 253 268 254
3 253 405 268
3 404 405 253
3 268 269 254
3 269 381 254
3 254 381 365
3 255 283 275
3 255 296 283
3 255 359 296
3 256 258 257
3 256 416 258
3 260 416 256
3 258 259 257
3 259 261 257
3 261 391 257
3 258 402 259
3 401 402 258
3 258 416 401
3 259 262 261
3 259 263 262
3 259 402 263
3 260 365 356
3 356 417 260
3 260 417 416
3 262 350 261
3 261 350 349
3 349 391 261
3 263 264 262
3 264 267 262
3 267 350 262
3 263 265 264
3 263 273 265
3 263 402 273
3 265 276 264
3 264 407 267
3 276 407 264
3 273 274 265
3 274 392 265
3 265 392 276
3 387 393 266
3 393 400 266
3 400 404 266
3 267 351 350
3 267 423 351
3 407 423 267
3 268 277 269
3 268 281 277
3 268 405 281
3 277 278 269
3 278 279 269
3 279 381 269
3 270 354 353
3 353 359 270
3 270 358 354
3 271 282 272
3 271 386 282
3 385 386 271
3 282 287 272
3 287 288 272
3 288 363 272
3 273 285 274
3 273 302 285
3 273 402 302
3 285 291 274
3 291 295 274
3 295 392 274
3 283 294 275
3 294 308 275
3 308 387 275
3 392 438 276
3 276 409 407
3 276 438 409
3 277 301 278
3 281 436 277
3 277 436 301
3 278 280 279
3 278 406 280
3 301 406 278
3 280 284 279
3 284 299 279
3 299 381 279
3 280 286 284
3 280 292 286
3 280 406 292
3 405 431 281
3 431 447 281
3 281 447 436
3 282 310 287
3 282 311 310
3 282 386 311
3 283 390 294
3 296 297 283
3 297 390 283
3 286 357 284
3 284 300 299
3 284 357 300
3 285 380 291
3 302 303 285
3 303 380 285
3 292 314 286
3 314 317 286
3 317 357 286
3 287 289 288
3 287 376 289
3 310 376 287
3 289 290 288
3 290 328 288
3 328 363 288
3 289 293 290
3 289 309 293
3 289 376 309
3 293 467 290
3 290 329 328
3 290 467 329
3 291 318 295
3 291 331 318
3 291 380 331
3 292 332 314
3 292 334 332
3 292 406 334
3 309 316 293
3 316 344 293
3 344 467 293
3 294 341 308
3 294 343 341
3 294 390 343
3 318 337 295
3 337 338 295
3 338 392 295
3 296 298 297
3 296 353 298
3 296 359 353
3 298 307 297
3 307 325 297
3 325 390 297
3 298 326 307
3 298 327 326
3 298 353 327
3 300 312 299
3 312 356 299
3 356 381 299
3 300 313 312
3 300 320 313
3 300 357 320
3 301 434 406
3 301 470 434
3 436 470 301
3 302 304 303
3 302 401 304
3 302 402 401
3 304 305 303
3 305 330 303
3 330 380 303
3 304 306 305
3 304 319 306
3 304 401 319
3 306 362 305
3 305 335 330
3 305 362 335
3 319 364 306
3 348 362 306
3 306 364 348
3 307 444 325
3 326 339 307
3 339 444 307
3 341 342 308
3 342 393 308
3 308 393 387
3 309 324 316
3 309 423 324
3 376 423 309
3 311 322 310
3 322 351 310
3 351 376 310
3 311 323 322
3 311 427 323
3 386 427 311
3 313 364 312
3 312 417 356
3 364 417 312
3 320 321 313
3 321 348 313
3 348 364 313
3 314 372 317
3 332 333 314
3 333 372 314
3 315 418 379
3 384 419 315
3 315 419 418
3 324 336 316
3 336 445 316
3 316 445 344
3 317 360 357
3 317 361 360
3 317 372 361
3 331 429 318
3 318 340 337
3 318 429 340
3 319 417 364
3 401 416 319
3 416 417 319
3 320 451 321
3 357 360 320
3 360 451 320
3 321 442 348
3 321 378 377
3 377 442 321
3 321 451 378
3 323 349 322
3 349 350 322
3 350 351 322
3 323 419 349
3 418 419 323
3 323 427 418
3 324 409 336
3 407 409 324
3 324 423 407
3 325 449 390
3 444 472 325
3 325 472 449
3 327 433 326
3 326 432 339
3 326 433 432
3 353 354 327
3 354 355 327
3 355 433 327
3 329 411 328
3 328 410 363
3 328 411 410
3 346 454 329
3 329 467 346
3 329 414 411
3 329 454 414
3 335 469 330
3 330 440 380
3 330 469 440
3 380 440 331
3 331 468 429
3 440 468 331
3 332 352 333
3 334 448 332
3 332 448 352
3 352 421 333
3 333 460 372
3 421 460 333
3 406 434 334
3 434 456 334
3 334 456 448
3 362 465 335
3 335 441 369
3 369 469 335
3 335 465 441
3 409 453 336
3 337 452 338
3 340 463 337
3 337 463 452
3 375 438 338
3 338 452 375
3 338 438 392
3 432 435 339
3 435 473 339
3 339 473 444
3 371 463 340
3 429 455 340
3 341 446 342
3 343 466 341
3 341 466 446
3 342 394 393
3 342 395 394
3 342 446 395
3 390 449 343
3 424 466 343
3 344 445 345
3 346 467 344
3 347 454 346
3 403 454 347
3 348 442 362
3 349 419 391
3 351 423 376
3 352 443 421
3 354 413 355
3 358 413 354
3 355 413 382
3 382 430 355
3 430 433 355
3 365 381 356
3 389 413 358
3 442 465 362
3 410 412 363
3 367 412 410
3 429 468 368
3 411 414 370
3 374 375 373
3 375 452 373
3 374 453 375
3 409 438 375
3 375 453 409
3 383 435 432
3 391 419 384
3 385 428 386
3 386 428 427
3 388 460 421
3 394 400 393
3 395 396 394
3 396 431 394
3 394 431 400
3 395 446 420
3 397 447 396
3 396 447 431
3 398 447 397
3 399 470 398
3 436 447 398
3 398 470 436
3 450 464 399
3 464 470 399
3 400 405 404
3 400 431 405
3 414 454 403
3 421 443 437
3 448 456 422
3 426 472 425
3 425 472 444
3 449 472 426
3 434 464 456
3 434 470 464
3 439 473 435
3 52 483 3
3 3 475 62
3 3 483 475
3 53 483 52
3 54 477 53
3 477 483 53
3 55 485 54
3 54 485 477
3 56 485 55
3 57 474 56
3 474 485 56
3 58 481 57
3 57 481 474
3 59 481 58
3 60 476 59
3 476 481 59
3 61 478 60
3 60 478 476
3 62 478 61
3 475 478 62
3 474 481 480
3 480 484 474
3 484 485 474
3 475 479 478
3 475 482 479
3 475 483 482
3 478 479 476
3 479 480 476
3 480 481 476
3 482 483 477
3 477 484 482
3 477 485 484
3 479 484 480
3 482 484 479
4 347 486 496 497
4 347 486 454 496
4 197 487 494 495
4 197 487 492 494
4 347 496 477 497
4 196 487 197 495
4 197 487 196 492
4 484 482 479 496
4 454 486 347 497
4 477 482 484 496
4 196 492 487 495
4 363 489 27 492
4 454 496 486 506
4 346 486 454 497
4 346 454 347 497
4 454 486 346 488
4 486 488 454 506
4 337 499 490 503
4 484 496 479 497
4 346 488 486 504
4 347 454 403 496
4 338 493 490 499
4 338 490 337 499
4 27 363 272 489
4 486 497 346 504
4 329 454 488 506
4 490 499 493 503
4 346 347 217 497
4 489 492 487 494
4 351 489 376 494
4 403 496 454 506
4 199 196 197 495
4 347 403 477 496
4 489 492 363 500
4 328 488 290 489
4 453 490 493 504
4 479 496 490 497
4 328 489 363 500
4 26 363 27 492
4 329 414 454 506
4 328 290 288 489
4 329 454 346 488
4 328 288 363 489
4 490 493 486 503
4 477 496 484 497
4 467 488 346 504
4 493 499 486 503
4 198 197 196 492
4 328 488 489 500
4 1 73 492 501
4 492 495 33 501
4 477 217 347 497
4 453 497 490 504
4 363 492 410 500
4 26 412 363 492
4 344 346 497 504
4 291 495 274 499
4 310 28 287 489
4 33 492 196 495
4 453 490 375 493
4 344 467 346 504
4 1 492 33 501
4 310 287 376 489
4 272 363 288 489
4 429 340 491 499
4 351 376 423 494
4 491 499 340 503
4 374 490 453 497
4 1 208 73 501
4 491 503 218 506
4 467 329 346 488
4 208 1 33 501
4 274 499 495 502
4 331 495 291 499
4 289 290 488 489
4 415 218 503 506
4 376 423 494 498
4 455 429 340 491
4 338 452 337 490
4 231 27 26 363
4 490 496 479 503
4 455 491 340 503
4 440 330 380 495
4 33 495 440 501
4 440 469 33 501
4 376 494 489 498
4 474 490 374 497
4 410 363 412 492
4 276 407 493 502
4 217 477 485 497
4 495 499 331 501
4 293 309 289 498
4 328 363 410 500
4 208 33 1 369
4 374 474 481 490
4 344 346 217 497
4 369 1 208 73
4 26 231 363 412
4 198 27 489 492
4 218 491 455 503
4 74 491 75 500
4 289 288 290 489
4 412 227 367 492
4 440 208 469 501
4 293 289 488 498
4 429 331 499 501
4 429 499 491 501
4 486 499 491 503
4 28 198 489 494
4 337 490 463 503
4 74 491 500 501
4 415 218 455 503
4 375 490 338 493
4 31 273 285 505
4 407 498 493 502
4 316 309 293 498
4 403 454 414 506
4 31 285 32 495
4 440 33 330 495
4 289 489 488 498
4 476 478 371 490
4 474 480 481 490
4 293 488 467 504
4 31 285 495 505
4 415 76 218 506
4 316 293 488 498
4 475 496 458 503
4 74 75 212 500
4 28 282 287 272
4 370 75 491 500
4 337 452 463 490
4 409 276 407 493
4 480 490 474 497
4 491 500 488 506
4 32 380 330 495
4 490 496 486 497
4 33 469 208 501
4 1 196 33 492
4 344 293 467 504
4 429 468 331 501
4 478 490 479 503
4 476 371 215 490
4 302 32 31 285
4 487 491 488 493
4 272 288 287 489
4 488 491 486 493
4 337 340 499 503
4 282 28 27 272
4 33 440 330 469
4 370 411 500 506
4 272 27 231 363
4 483 477 403 496
4 476 479 478 490
4 290 328 329 488
4 74 500 492 501
4 290 293 289 488
4 295 291 274 499
4 367 492 212 500
4 370 212 75 500
4 74 368 75 491
4 338 375 452 490
4 486 493 490 504
4 329 488 328 500
4 403 223 496 506
4 31 273 302 285
4 488 316 498 504
4 478 475 458 503
4 211 374 453 497
4 368 468 429 501
4 227 73 367 492
4 493 499 392 502
4 487 495 492 501
4 409 493 407 498
4 370 500 491 506
4 212 367 74 492
4 486 493 491 499
4 264 494 407 502
4 486 491 488 506
4 264 262 494 505
4 74 368 491 501
4 368 429 491 501
4 331 440 380 495
4 371 490 478 503
4 412 26 227 492
4 289 309 376 498
4 76 75 218 491
4 316 488 293 504
4 295 499 274 502
4 479 482 475 496
4 480 479 476 490
4 1 73 227 492
4 289 376 489 498
4 74 212 492 500
4 410 492 367 500
4 392 493 338 499
4 412 367 410 492
4 438 375 338 493
4 32 330 33 495
4 33 208 469 369
4 274 495 285 505
4 28 29 198 494
4 415 496 77 506
4 274 502 495 505
4 453 374 375 490
4 494 498 407 502
4 211 497 453 504
4 474 374 211 497
4 438 338 392 493
4 274 285 273 505
4 198 27 28 489
4 438 493 392 502
4 429 318 340 499
4 440 495 331 501
4 415 77 76 506
4 74 492 73 501
4 491 493 487 499
4 415 503 496 506
4 429 331 318 499
4 487 489 488 500
4 403 414 223 506
4 423 267 351 494
4 76 491 218 506
4 477 217 54 347
4 324 493 498 504
4 303 380 32 495
4 303 285 380 495
4 453 493 336 504
4 483 482 477 496
4 494 495 487 505
4 410 367 212 500
4 370 414 411 506
4 76 75 491 506
4 370 491 75 506
4 26 1 227 492
4 438 276 493 502
4 380 303 32 330
4 303 32 285 495
4 29 197 198 494
4 486 490 497 504
4 198 26 27 492
4 455 218 429 491
4 487 492 489 500
4 411 329 328 500
4 274 291 285 495
4 264 262 267 494
4 484 480 474 497
4 331 380 291 495
4 409 324 493 498
4 264 407 276 502
4 485 217 54 477
4 488 491 487 500
4 495 499 487 502
4 485 477 484 497
4 336 493 324 504
4 291 318 331 499
4 264 263 262 505
4 392 295 274 502
4 487 499 495 501
4 215 373 476 490
4 337 340 318 499
4 481 373 374 490
4 453 409 336 493
4 409 407 324 498
4 491 486 503 506
4 295 392 338 499
4 478 458 225 503
4 221 420 41 200
4 407 267 423 494
4 486 496 490 503
4 494 502 264 505
4 476 215 59 373
4 392 499 295 502
4 324 498 316 504
4 30 494 262 505
4 407 494 423 498
4 345 344 217 497
4 48 187 220 203
4 287 289 376 489
4 344 497 445 504
4 453 375 409 493
4 476 373 481 490
4 33 196 199 495
4 476 60 215 371
4 409 438 276 493
4 215 371 463 490
4 336 409 324 493
4 488 489 487 498
4 491 487 500 501
4 475 77 458 496
4 485 474 56 497
4 77 475 3 496
4 29 351 267 494
4 250 118 154 253
4 74 73 208 501
4 218 368 429 491
4 287 288 289 489
4 345 445 344 497
4 492 500 487 501
4 267 262 30 494
4 438 392 276 502
4 257 258 256 188
4 163 243 113 162
4 113 242 243 163
4 74 367 73 492
4 290 329 467 488
4 118 154 152 250
4 145 168 332 314
4 293 290 467 488
4 445 497 211 504
4 163 242 243 162
4 267 407 264 494
4 487 493 488 498
4 77 3 457 496
4 154 254 250 253
4 221 18 420 200
4 40 424 221 200
4 375 438 409 493
4 495 502 487 505
4 99 254 365 152
4 400 404 104 105
4 475 483 3 496
4 104 405 400 105
4 485 56 345 497
4 371 463 490 503
4 168 332 314 292
4 488 498 493 504
4 104 405 404 400
4 145 168 167 332
4 494 487 502 505
4 134 182 234 233
4 151 164 356 166
4 373 375 374 490
4 161 238 359 113
4 373 59 476 481
4 161 241 238 113
4 18 41 420 200
4 483 403 457 496
4 474 211 56 497
4 249 120 152 250
4 244 106 119 246
4 384 252 122 391
4 401 89 132 402
4 241 359 238 113
4 298 353 296 153
4 285 302 32 303
4 166 164 356 312
4 267 30 29 494
4 100 278 98 101
4 344 316 293 504
4 457 403 223 496
4 259 31 263 402
4 105 404 104 106
4 152 99 254 154
4 244 163 245 119
4 406 301 278 100
4 76 370 75 506
4 269 98 278 101
4 458 496 415 503
4 96 95 284 97
4 221 424 175 200
4 60 476 478 371
4 167 168 114 292
4 381 254 365 99
4 401 132 258 402
4 218 75 368 491
4 457 3 483 496
4 85 361 146 372
4 301 406 114 100
4 336 211 453 504
4 297 111 390 117
4 99 98 299 279
4 96 284 95 357
4 97 95 284 357
4 31 132 89 402
4 85 361 150 146
4 112 296 353 153
4 98 280 100 97
4 106 162 244 119
4 29 267 350 262
4 127 237 126 235
4 248 120 119 247
4 77 496 223 506
4 154 254 152 250
4 106 404 118 246
4 291 380 285 495
4 299 98 99 96
4 241 242 243 113
4 224 4 5 64
4 485 345 217 497
4 111 116 390 117
4 311 138 427 386
4 198 196 26 492
4 292 114 167 334
4 251 260 131 256
4 403 477 53 347
4 168 167 332 292
4 488 493 486 504
4 277 278 100 101
4 428 126 237 235
4 100 102 277 101
4 166 139 164 312
4 387 109 275 107
4 280 279 98 100
4 312 139 164 313
4 102 277 278 100
4 107 393 105 266
4 197 494 30 505
4 126 240 418 427
4 336 445 211 504
4 111 283 255 296
4 110 275 109 107
4 493 498 487 502
4 299 381 99 279
4 239 241 161 163
4 338 337 295 499
4 458 77 415 496
4 221 175 18 200
4 244 106 246 266
4 164 417 356 312
4 246 248 119 247
4 280 98 279 97
4 98 269 381 154
4 146 95 286 317
4 32 33 199 495
4 424 40 17 200
4 300 96 94 357
4 265 264 502 505
4 376 309 423 498
4 56 211 345 497
4 120 152 125 249
4 359 161 113 128
4 370 411 212 500
4 316 324 309 498
4 90 138 311 386
4 317 150 95 360
4 114 102 301 100
4 450 201 222 181
4 249 152 125 250
4 188 257 258 132
4 187 220 203 443
4 30 262 263 505
4 187 48 23 203
4 119 106 118 246
4 5 92 383 226
4 112 111 255 296
4 300 94 166 313
4 491 499 487 501
4 138 126 418 427
4 214 6 148 383
4 476 481 480 490
4 356 417 164 151
4 170 161 238 270
4 151 365 260 251
4 406 114 292 334
4 161 237 239 124
4 360 94 95 320
4 211 474 57 374
4 98 99 381 279
4 296 111 297 153
4 124 161 237 127
4 98 299 279 96
4 105 394 393 108
4 280 406 100 168
4 177 89 304 306
4 142 408 206 389
4 317 146 361 372
4 107 162 387 266
4 306 89 304 141
4 110 387 275 107
4 487 498 494 502
4 245 242 163 244
4 267 29 30 262
4 201 45 450 222
4 146 95 97 286
4 320 94 93 451
4 312 166 139 313
4 95 357 360 320
4 377 204 11 84
4 226 5 4 64
4 123 379 240 124
4 105 400 404 106
4 357 286 95 317
4 258 188 132 401
4 77 223 76 506
4 250 120 118 248
4 265 502 274 505
4 71 11 12 366
4 102 278 301 100
4 471 222 201 181
4 153 297 307 117
4 91 4 5 224
4 162 163 244 119
4 404 248 118 246
4 315 122 123 419
4 236 170 238 270
4 110 111 255 112
4 151 125 365 251
4 393 400 105 266
4 96 95 94 357
4 164 364 312 313
4 489 494 487 498
4 283 111 109 294
4 284 279 98 97
4 109 275 308 387
4 283 111 255 110
4 17 175 424 200
4 224 63 4 64
4 109 111 283 275
4 243 387 110 162
4 251 131 125 256
4 244 387 162 266
4 256 257 188 130
4 116 180 173 294
4 204 11 12 71
4 359 238 161 128
4 405 104 268 103
4 387 308 109 107
4 96 284 98 97
4 307 298 297 153
4 282 310 28 287
4 304 319 177 306
4 95 97 286 357
4 103 431 405 105
4 62 478 475 458
4 353 129 112 153
4 232 134 234 233
4 111 116 109 294
4 374 474 57 481
4 118 152 120 250
4 365 125 151 152
4 170 238 161 236
4 103 277 101 281
4 241 242 113 163
4 364 164 139 313
4 357 95 94 320
4 95 78 94 360
4 101 102 277 103
4 126 418 123 138
4 379 163 121 245
4 366 12 71 205
4 400 394 393 105
4 131 125 260 251
4 244 162 106 266
4 182 134 83 233
4 406 114 168 292
4 106 162 107 266
4 275 283 109 294
4 123 240 418 126
4 94 139 166 313
4 5 92 148 383
4 12 147 204 441
4 239 379 163 124
4 236 127 182 235
4 291 295 318 499
4 102 103 155 281
4 103 101 268 281
4 390 283 111 297
4 418 379 240 123
4 314 146 168 286
4 284 98 279 96
4 116 111 283 294
4 104 101 268 103
4 98 381 99 154
4 360 78 94 451
4 276 265 264 502
4 203 24 187 443
4 127 161 238 236
4 119 118 248 246
4 408 206 10 142
4 89 132 188 401
4 109 111 275 110
4 418 323 171 138
4 127 170 161 236
4 220 187 48 422
4 284 280 279 97
4 365 125 152 251
4 125 251 249 250
4 169 394 400 105
4 277 268 101 281
4 106 107 105 266
4 226 383 5 64
4 129 353 298 153
4 170 128 161 270
4 299 99 356 166
4 391 252 122 130
4 155 436 102 281
4 104 268 154 253
4 103 102 277 281
4 286 97 284 357
4 187 220 443 352
4 111 283 275 110
4 361 150 317 360
4 400 431 169 105
4 92 5 4 226
4 248 120 118 119
4 6 5 148 383
4 201 450 21 181
4 169 394 105 108
4 387 110 162 107
4 381 254 99 154
4 241 239 242 163
4 239 379 242 163
4 143 216 6 85
4 124 237 240 126
4 216 6 388 143
4 121 122 315 247
4 308 393 108 107
4 458 475 3 77
4 171 123 418 138
4 63 226 4 64
4 182 234 236 235
4 261 259 257 132
4 361 459 85 150
4 147 11 12 204
4 113 161 241 163
4 432 433 326 86
4 260 125 151 251
4 5 6 65 383
4 252 251 125 256
4 441 204 12 71
4 126 124 237 127
4 1 190 441 369
4 121 245 119 247
4 199 31 32 495
4 103 268 405 281
4 284 279 299 96
4 337 463 340 503
4 320 360 94 451
4 53 483 477 403
4 361 150 146 317
4 255 275 283 110
4 139 364 313 348
4 279 280 278 100
4 366 11 408 70
4 122 120 249 247
4 225 371 478 503
4 153 298 326 137
4 122 315 384 419
4 186 326 433 86
4 431 169 394 400
4 238 237 127 236
4 358 234 182 389
4 254 381 269 154
4 108 109 308 107
4 238 237 161 127
4 5 91 224 388
4 365 356 99 151
4 8 382 430 149
4 158 396 395 159
4 72 12 1 205
4 85 143 460 145
4 382 9 206 79
4 1 72 205 227
4 70 204 11 377
4 302 89 32 304
4 134 232 160 233
4 173 109 294 308
4 163 379 242 245
4 147 12 190 441
4 97 280 168 286
4 307 298 153 137
4 379 163 124 121
4 100 406 114 168
4 128 238 161 270
4 105 400 106 266
4 280 406 168 292
4 311 28 90 282
4 162 163 242 244
4 222 201 44 471
4 173 342 108 308
4 204 147 11 84
4 263 273 31 505
4 153 298 327 186
4 11 366 408 83
4 31 495 199 505
4 21 45 450 201
4 400 405 431 105
4 269 98 279 278
4 160 12 366 205
4 382 430 149 355
4 203 220 49 443
4 247 249 122 384
4 171 384 122 391
4 170 182 358 236
4 119 120 121 247
4 278 98 279 100
4 95 146 150 317
4 273 265 274 505
4 298 307 326 137
4 263 31 273 402
4 263 30 31 259
4 6 5 388 143
4 230 231 26 228
4 8 382 149 79
4 121 123 379 315
4 132 31 259 402
4 249 252 125 122
4 144 460 143 333
4 156 447 155 158
4 278 277 269 101
4 250 249 120 248
4 137 432 326 86
4 297 298 296 153
4 230 189 229 228
4 243 387 275 110
4 251 125 152 250
4 373 452 375 490
4 425 15 37 202
4 165 176 187 352
4 214 65 6 383
4 94 139 313 320
4 239 238 237 161
4 173 294 343 341
4 496 503 486 506
4 443 165 187 352
4 145 460 85 372
4 197 30 199 505
4 194 428 385 235
4 220 187 176 352
4 106 400 404 266
4 243 255 113 110
4 282 27 90 271
4 337 318 295 499
4 457 223 77 496
4 468 440 331 501
4 111 116 283 390
4 162 242 243 244
4 154 269 268 101
4 124 123 379 121
4 122 315 247 384
4 471 201 20 181
4 314 145 146 372
4 304 32 303 305
4 418 323 419 171
4 327 354 129 355
4 132 188 257 130
4 253 118 104 404
4 196 1 26 492
4 153 327 129 186
4 122 121 120 247
4 357 94 300 320
4 382 149 79 355
4 182 234 358 236
4 186 137 326 86
4 214 148 432 383
4 240 123 124 126
4 388 224 5 64
4 205 26 1 227
4 177 89 319 304
4 278 301 277 102
4 185 173 466 341
4 282 90 311 386
4 139 84 348 321
4 350 267 29 351
4 249 252 122 384
4 284 96 300 357
4 408 142 83 389
4 268 254 154 253
4 151 356 99 166
4 320 93 94 321
4 427 323 138 311
4 393 308 387 107
4 399 450 222 181
4 330 303 32 305
4 294 180 173 343
4 84 140 139 348
4 383 65 5 64
4 299 96 166 300
4 446 342 185 173
4 298 327 129 153
4 7 6 216 85
4 292 168 280 286
4 147 190 362 465
4 151 99 365 152
4 405 104 103 105
4 335 362 190 465
4 313 300 94 320
4 78 95 150 360
4 292 314 168 286
4 116 180 294 343
4 153 111 297 117
4 170 358 191 270
4 28 27 90 282
4 255 359 113 112
4 89 32 31 302
4 435 473 439 92
4 356 381 365 99
4 139 94 93 321
4 396 158 209 159
4 118 104 404 106
4 177 89 306 141
4 232 230 135 229
4 341 173 294 308
4 464 456 213 172
4 417 260 131 151
4 144 143 460 421
4 97 168 146 286
4 79 206 382 413
4 322 351 29 310
4 327 129 353 298
4 296 112 111 153
4 472 174 449 426
4 298 326 327 186
4 188 177 401 416
4 388 5 91 143
4 213 46 450 157
4 364 139 140 348
4 459 85 216 361
4 166 312 300 313
4 311 322 28 310
4 101 268 154 104
4 148 86 6 214
4 268 254 269 154
4 6 5 65 388
4 436 277 102 281
4 147 465 204 441
4 246 119 245 247
4 326 298 153 186
4 487 499 493 502
4 71 12 72 205
4 168 100 280 97
4 125 252 256 130
4 163 161 239 124
4 377 11 10 84
4 160 12 11 366
4 128 359 238 270
4 1 12 72 441
4 330 32 33 305
4 116 283 390 294
4 451 93 320 321
4 171 419 384 391
4 157 464 213 172
4 173 109 116 294
4 353 270 128 354
4 109 173 108 308
4 85 146 145 372
4 240 239 237 124
4 336 324 316 504
4 167 144 145 332
4 122 171 391 130
4 110 113 243 162
4 29 28 322 310
4 189 1 12 205
4 282 27 271 272
4 143 145 144 333
4 145 143 460 333
4 94 139 320 321
4 135 160 232 229
4 345 217 55 485
4 307 153 117 137
4 49 24 203 443
4 78 150 207 360
4 127 126 134 235
4 175 446 420 185
4 356 299 166 312
4 413 79 191 355
4 417 356 260 151
4 393 105 108 107
4 187 23 48 422
4 103 169 431 105
4 99 299 96 166
4 245 163 121 119
4 117 325 307 136
4 251 152 365 250
4 446 342 173 341
4 450 399 157 181
4 144 167 176 332
4 185 173 180 466
4 168 145 146 314
4 131 164 417 151
4 90 138 183 311
4 166 96 94 300
4 231 26 27 135
4 211 445 345 497
4 354 413 191 355
4 303 302 32 304
4 178 439 473 92
4 362 140 147 442
4 154 118 104 253
4 7 6 66 216
4 139 140 164 364
4 225 478 62 458
4 328 410 411 500
4 209 158 80 159
4 475 482 483 496
4 270 358 191 354
4 385 386 90 271
4 65 66 6 216
4 148 92 435 383
4 265 392 274 502
4 388 65 6 216
4 98 269 154 101
4 390 325 297 117
4 26 231 230 135
4 10 408 142 83
4 86 433 430 214
4 419 122 123 171
4 373 374 58 481
4 78 93 94 451
4 381 269 98 279
4 296 111 283 297
4 31 199 30 505
4 446 342 179 185
4 418 379 123 315
4 177 401 416 319
4 258 188 401 416
4 332 144 145 333
4 348 84 442 321
4 459 7 85 150
4 434 172 114 334
4 255 241 243 113
4 441 72 1 369
4 333 144 460 421
4 253 250 118 248
4 132 257 261 81
4 413 191 358 354
4 323 349 171 183
4 366 71 11 70
4 354 191 129 355
4 22 46 213 157
4 12 160 189 205
4 128 112 359 353
4 160 232 229 233
4 70 11 10 377
4 386 282 90 271
4 189 26 1 205
4 383 92 435 226
4 130 391 257 81
4 245 244 119 246
4 156 397 447 158
4 399 222 156 181
4 12 1 190 441
4 182 142 358 389
4 132 259 258 402
4 448 167 172 334
4 317 314 146 372
4 175 18 420 221
4 83 134 160 233
4 260 125 131 151
4 71 204 11 70
4 442 147 204 84
4 301 470 436 102
4 465 147 190 441
4 452 215 463 490
4 239 241 238 161
4 255 113 110 112
4 419 123 418 171
4 427 138 194 386
4 123 121 122 315
4 341 342 173 308
4 256 131 125 130
4 30 263 31 505
4 259 261 30 132
4 86 430 7 214
4 391 261 257 81
4 74 208 368 501
4 156 157 399 181
4 350 30 29 262
4 188 258 256 416
4 25 50 437 165
4 175 420 446 221
4 104 405 253 404
4 152 254 365 250
4 263 264 265 505
4 194 427 386 428
4 169 155 447 158
4 150 361 207 360
4 312 299 166 300
4 185 342 179 173
4 418 323 138 427
4 446 420 185 159
4 9 8 207 78
4 358 142 191 413
4 382 206 9 68
4 466 173 180 341
4 241 255 359 113
4 401 89 302 304
4 6 7 66 214
4 425 37 15 426
4 155 103 169 447
4 388 5 65 64
4 432 86 148 214
4 183 138 323 311
4 213 157 172 87
4 315 123 418 419
4 408 11 10 70
4 237 240 126 428
4 280 406 278 100
4 286 314 146 317
4 243 387 162 244
4 85 216 7 459
4 411 410 212 500
4 229 160 366 205
4 167 114 172 334
4 419 384 122 171
4 442 362 140 348
4 305 304 32 141
4 129 112 128 353
4 6 66 65 214
4 442 140 84 348
4 430 149 433 86
4 12 72 441 71
4 179 342 394 108
4 99 356 381 299
4 460 216 143 85
4 431 169 103 447
4 484 474 485 497
4 143 91 388 421
4 114 406 434 334
4 135 385 232 134
4 332 176 144 352
4 205 228 26 227
4 172 456 213 87
4 172 456 87 176
4 296 359 112 353
4 185 420 175 159
4 315 245 121 247
4 207 8 459 150
4 90 194 138 386
4 176 167 172 448
4 306 319 177 364
4 188 177 89 401
4 246 106 404 266
4 319 417 177 364
4 190 1 33 369
4 137 307 339 136
4 10 69 206 408
4 219 36 14 202
4 252 125 251 249
4 172 456 176 448
4 95 357 317 360
4 466 446 185 341
4 115 434 464 172
4 183 322 28 311
4 173 185 446 341
4 405 268 104 253
4 421 144 165 352
4 343 180 173 341
4 63 4 0 462
4 108 179 342 173
4 31 273 402 302
4 470 301 115 102
4 185 175 446 466
4 417 164 177 364
4 249 125 120 122
4 27 271 272 231
4 461 4 0 63
4 326 153 137 186
4 358 191 142 170
4 342 393 108 308
4 158 80 397 209
4 245 121 379 315
4 20 44 201 471
4 395 396 209 159
4 427 126 240 428
4 107 387 393 266
4 413 382 79 355
4 89 401 319 304
4 158 395 179 159
4 221 446 175 466
4 405 431 103 281
4 136 444 473 88
4 248 118 253 404
4 157 115 464 172
4 447 155 398 156
4 378 9 207 78
4 139 313 320 321
4 232 230 385 135
4 137 432 86 148
4 179 394 169 108
4 144 91 143 421
4 452 373 215 490
4 90 385 271 135
4 344 445 316 504
4 112 359 113 128
4 442 140 147 84
4 189 230 135 228
4 366 408 83 233
4 427 194 126 428
4 188 256 131 416
4 462 63 4 224
4 424 175 82 466
4 255 243 275 110
4 7 6 86 214
4 259 30 31 132
4 175 420 18 195
4 36 219 425 202
4 96 299 284 300
4 430 382 8 67
4 232 160 135 134
4 190 141 362 335
4 9 206 79 142
4 255 359 112 296
4 477 54 53 347
4 115 436 470 102
4 353 128 191 354
4 248 249 120 247
4 190 362 141 147
4 356 365 260 151
4 204 377 442 84
4 206 79 142 413
4 379 239 240 124
4 236 358 170 270
4 134 194 385 235
4 115 301 434 114
4 207 8 9 68
4 177 131 417 416
4 66 7 430 214
4 84 93 377 321
4 145 460 372 333
4 471 397 181 80
4 97 284 280 286
4 50 25 24 165
4 30 197 29 494
4 390 133 116 343
4 292 167 332 334
4 382 8 9 79
4 372 314 145 333
4 127 182 170 236
4 236 237 127 235
4 93 377 10 84
4 189 135 230 229
4 342 393 394 108
4 416 417 177 319
4 326 433 327 186
4 257 132 130 81
4 221 41 40 200
4 222 471 397 181
4 206 9 10 142
4 28 90 183 311
4 57 56 474 211
4 349 419 323 171
4 217 54 55 485
4 127 134 182 235
4 175 185 180 466
4 149 430 7 86
4 220 49 48 203
4 150 207 8 78
4 167 176 332 448
4 314 332 145 333
4 388 91 224 421
4 261 350 30 81
4 30 350 261 262
4 91 192 4 224
4 93 78 378 451
4 172 456 448 334
4 234 182 134 235
4 192 462 4 224
4 0 2 63 462
4 129 353 354 327
4 187 87 23 422
4 28 311 310 282
4 277 268 269 101
4 201 44 45 222
4 426 472 174 88
4 397 447 398 156
4 115 398 436 155
4 140 306 177 364
4 461 0 2 63
4 122 252 125 130
4 102 301 115 114
4 180 82 175 466
4 142 182 358 170
4 349 323 322 183
4 10 11 408 83
4 465 362 147 442
4 276 392 265 502
4 260 417 131 416
4 133 174 472 88
4 225 478 61 62
4 395 446 342 179
4 109 275 294 308
4 432 326 339 137
4 87 213 47 422
4 449 174 133 210
4 230 26 135 228
4 270 128 359 353
4 323 171 138 183
4 90 194 386 385
4 174 15 38 426
4 458 415 225 503
4 138 194 126 427
4 115 464 399 157
4 176 165 144 352
4 216 388 460 143
4 256 260 131 416
4 461 226 4 63
4 399 115 157 156
4 177 89 401 319
4 366 11 160 83
4 7 8 430 149
4 60 215 59 476
4 364 417 164 312
4 82 180 424 466
4 297 325 307 117
4 353 191 129 354
4 69 9 10 206
4 157 213 22 87
4 92 4 193 226
4 394 169 396 179
4 78 378 9 93
4 189 160 229 205
4 371 340 463 503
4 84 139 93 321
4 361 85 216 372
4 349 322 29 183
4 307 444 339 136
4 304 305 306 141
4 304 89 32 141
4 305 32 33 141
4 216 66 7 459
4 325 390 133 117
4 102 115 436 155
4 137 117 307 136
4 257 259 258 132
4 305 33 330 335
4 226 4 193 461
4 140 306 362 141
4 444 307 325 136
4 92 439 435 226
4 88 473 136 184
4 270 191 128 354
4 143 388 460 421
4 193 4 0 461
4 382 9 8 68
4 131 256 188 130
4 228 231 26 412
4 38 16 174 210
4 50 437 165 443
4 443 421 165 352
4 225 478 371 61
4 176 332 448 352
4 176 220 448 422
4 361 207 459 150
4 37 36 425 202
4 390 116 133 117
4 207 67 8 68
4 132 261 30 81
4 208 468 368 501
4 179 395 446 185
4 29 350 322 349
4 428 386 194 385
4 189 229 228 205
4 149 129 191 355
4 345 55 56 485
4 462 4 0 192
4 172 115 434 114
4 82 133 174 210
4 191 129 128 353
4 378 207 9 68
4 371 478 60 61
4 47 22 213 87
4 92 193 439 226
4 324 407 423 498
4 136 133 472 88
4 195 175 420 159
4 87 47 23 422
4 374 57 58 481
4 194 385 135 134
4 406 434 301 114
4 130 171 391 81
4 228 26 189 205
4 206 69 9 68
4 223 414 370 506
4 263 265 273 505
4 191 128 170 270
4 165 91 144 421
4 362 140 141 147
4 137 339 432 184
4 425 472 426 88
4 192 91 437 224
4 349 171 183 81
4 437 91 165 421
4 140 177 306 141
4 252 391 257 130
4 133 174 449 472
4 261 349 350 81
4 141 305 362 335
4 417 164 131 177
4 437 192 25 165
4 202 425 15 88
4 158 397 396 209
4 70 10 69 377
4 399 470 464 115
4 230 271 385 135
4 174 38 210 426
4 398 436 470 115
4 227 1 72 73
4 227 228 26 412
4 10 378 377 93
4 171 349 419 391
4 294 390 116 343
4 8 459 67 207
4 148 435 432 383
4 149 327 433 186
4 390 449 133 343
4 470 434 464 115
4 38 16 15 174
4 397 156 181 80
4 432 433 86 214
4 432 137 184 148
4 327 129 149 355
4 447 396 169 158
4 202 14 219 88
4 83 160 366 233
4 165 24 50 443
4 396 169 158 179
4 389 83 408 233
4 78 207 378 451
4 17 39 40 424
4 229 366 160 233
4 301 434 470 115
4 181 20 471 80
4 157 21 450 181
4 39 17 82 424
4 180 116 133 343
4 48 23 47 422
4 391 171 349 81
4 399 398 470 115
4 219 425 202 88
4 219 473 444 88
4 156 222 397 181
4 301 436 277 102
4 223 370 76 506
4 182 83 142 389
4 444 473 339 136
4 53 52 483 403
4 420 446 395 159
4 385 232 134 235
4 234 134 232 235
4 15 37 38 426
4 180 343 424 466
4 8 7 430 67
4 115 398 155 156
4 225 415 455 503
4 483 52 457 403
4 184 88 473 178
4 67 382 8 68
4 142 79 191 413
4 140 306 364 348
4 221 175 424 466
4 257 256 252 130
4 149 327 355 433
4 88 219 473 178
4 355 430 149 433
4 91 437 224 421
4 333 332 144 352
4 307 339 326 137
4 281 431 103 447
4 204 465 147 442
4 10 69 408 70
4 178 473 184 92
4 103 155 281 447
4 219 14 35 178
4 90 194 385 135
4 324 423 309 498
4 460 216 85 372
4 115 399 398 156
4 79 149 191 355
4 142 358 389 413
4 189 135 26 228
4 362 306 140 348
4 58 59 373 481
4 187 24 165 443
4 80 19 43 209
4 389 206 142 413
4 29 350 349 81
4 66 430 7 67
4 33 305 141 335
4 210 449 174 426
4 183 29 349 81
4 17 16 39 82
4 193 0 34 461
4 35 36 14 219
4 261 391 349 81
4 399 222 398 156
4 93 378 377 321
4 444 325 472 136
4 185 395 446 159
4 271 27 90 135
4 339 435 432 184
4 473 435 184 92
4 226 193 439 461
4 30 263 262 259
4 395 396 158 179
4 183 323 322 311
4 13 35 14 178
4 350 29 30 81
4 34 439 193 461
4 82 343 210 424
4 177 164 140 364
4 437 91 192 165
4 281 155 436 447
4 35 13 439 178
4 396 447 397 158
4 369 72 1 73
4 13 34 439 193
4 62 475 3 458
4 421 333 144 352
4 22 47 23 87
4 184 435 432 148
4 395 342 394 179
4 348 313 139 321
4 17 175 82 424
4 472 325 133 136
4 468 208 440 501
4 160 135 189 229
4 0 34 13 193
4 28 29 322 183
4 207 78 360 451
4 371 225 340 503
4 10 9 378 93
4 378 69 10 377
4 434 456 464 172
4 421 165 437 443
4 396 395 394 179
4 180 343 466 341
4 174 16 82 210
4 434 456 172 334
4 209 80 19 195
4 82 16 39 210
4 225 455 340 503
4 378 93 451 321
4 136 472 444 88
4 8 7 459 150
4 133 325 117 136
4 437 462 192 224
4 397 156 80 158
4 306 305 362 141
4 262 261 30 259
4 464 213 450 157
4 448 332 167 334
4 192 51 462 437
4 10 9 69 378
4 82 180 343 424
4 2 0 51 462
4 351 29 350 322
4 87 456 213 422
4 0 2 34 461
4 80 43 471 209
4 169 431 396 447
4 439 219 35 178
4 396 431 169 394
4 420 395 209 159
4 84 377 442 321
4 186 433 149 86
4 195 209 80 159
4 39 82 210 424
4 136 473 339 184
4 444 425 219 88
4 192 25 51 437
4 378 9 69 68
4 35 13 34 439
4 177 188 131 416
4 193 439 13 178
4 209 19 42 195
4 178 193 439 92
4 50 51 25 437
4 45 46 21 450
4 24 49 50 443
4 398 222 397 156
4 195 420 209 159
4 190 33 141 335
4 469 335 33 369
4 7 8 459 67
4 425 444 472 88
4 445 336 316 504
4 459 66 7 67
4 420 209 42 195
4 185 179 395 159
4 22 46 47 213
4 16 38 39 210
4 18 42 19 195
4 464 450 399 157
4 155 398 436 447
4 327 149 129 186
4 448 220 176 352
4 439 473 219 178
4 335 33 330 469
4 457 3 52 483
4 42 43 19 209
4 136 339 137 184
4 133 449 390 325
4 190 335 465 441
4 435 184 92 148
4 44 20 43 471
4 17 18 175 200
4 471 397 80 209
4 14 219 88 178
4 325 133 449 472
4 187 23 24 203
4 202 15 14 88
4 201 21 20 181
4 435 339 473 184
4 506 329 500 488
4 495 197 505 494
4 495 505 197 199
4 479 497 480 484
4 480 497 479 490
4 489 310 351 376
4 494 198 492 197
4 494 492 198 489
4 272 28 489 287
4 272 489 28 27
4 503 475 479 478
4 503 479 475 496
4 310 489 494 28
4 494 489 310 351
4 494 29 310 28
4 310 29 494 351
4 402 89 302 401
4 402 302 89 31
4 182 233 389 234
4 389 233 182 83
4 231 135 271 230
4 271 135 231 27
4 157 46 21 22
4 157 21 46 450
4 190 369 335 441
4 335 369 190 33
4 420 18 42 41
4 420 42 18 195
4 422 187 176 220
4 422 176 187 87
4 422 176 456 448
4 422 456 176 87
4 194 235 126 428
4 126 235 194 134
4 80 43 20 471
4 80 20 43 19
4 88 426 15 174
4 88 15 426 425
4 343 82 133 180
4 210 133 343 82
4 210 343 133 449
4 192 51 0 462
4 192 0 51 25
4 411 506 329 500
4 411 329 506 414

CELL_TYPES 2591
1
1
1
1
3
3
3
3
3
3
3
3
3
3
3
3
3
3
3
3
3
3
3
3
3
3
3
3
3
3
3
3
3
3
3
3
3
3
3
3
3
3
3
3
3
3
3
3
3
3
3
3
3
3
3
3
3
3
3
3
3
3
3
3
3
3
3
3
3
3
3
3
3
3
3
3
3
3
3
3
3
3
3
3
5
5
5
5
5
5
5
5
5
5
5
5
5
5
5
5
5
5
5
5
5
5
5
5
5
5
5
5
5
5
5
5
5
5
5
5
5
5
5
5
5
5
5
5
5
5
5
5
5
5
5
5
5
5
5
5
5
5
5
5
5
5
5
5
5
5
5
5
5
5
5
5
5
5
5
5
5
5
5
5
5
5
5
5
5
5
5
5
5
5
5
5
5
5
5
5
5
5
5
5
5
5
5
5
5
5
5
5
5
5
5
5
5
5
5
5
5
5
5
5
5
5
5
5
5
5
5
5
5
5
5
5
5
5
5
5
5
5
5
5
5
5
5
5
5
5
5
5
5
5
5
5
5
5
5
5
5
5
5
5
5
5
5
5
5
5
5
5
5
5
5
5
5
5
5
5
5
5
5
5
5
5
5
5
5
5
5
5
5
5
5
5
5
5
5
5
5
5
5
5
5
5
5
5
5
5
5
5
5
5
5
5
5
5
5
5
5
5
5
5
5
5
5
5
5
5
5
5
5
5
5
5
5
5
5
5
5
5
5
5
5
5
5
5
5
5
5
5
5
5
5
5
5
5
5
5
5
5
5
5
5
5
5
5
5
5
5
5
5
5
5
5
5
5
5
5
5
5
5
5
5
5
5
5
5
5
5
5
5
5
5
5
5
5
5
5
5
5
5
5
5
5
5
5
5
5
5
5
5
5
5
5
5
5
5
5
5
5
5
5
5
5
5
5
5
5
5
5
5
5
5
5
5
5
5
5
5
5
5
5
5
5
5
5
5
5
5
5
5
5
5
5
5
5
5
5
5
5
5
5
5
5
5
5
5
5
5
5
5
5
5
5
5
5
5
5
5
5
5
5
5
5
5
5
5
5
5
5
5
5
5
5
5
5
5
5
5
5
5
5
5
5
5
5
5
5
5
5
5
5
5
5
5
5
5
5
5
5
5
5
5
5
5
5
5
5
5
5
5
5
5
5
5
5
5
5
5
5
5
5
5
5
5
5
5
5
5
5
5
5
5
5
5
5
5
5
5
5
5
5
5
5
5
5
5
5
5
5
5
5
5
5
5
5
5
5
5
5
5
5
5
5
5
5
5
5
5
5
5
5
5
5
5
5
5
5
5
5
5
5
5
5
5
5
5
5
5
5
5
5
5
5
5
5
5
5
5
5
5
5
5
5
5
5
5
5
5
5
5
5
5
5
5
5
5
5
5
5
5
5
5
5
5
5
5
5
5
5
5
5
5
5
5
5
5
5
5
5
5
5
5
5
5
5
5
5
5
5
5
5
5
5
5
5
5
5
5
5
5
5
5
5
5
5
5
5
5
5
5
5
5
5
5
5
5
5
5
5
5
5
5
5
5
5
5
5
5
5
5
5
5
5
5
5
5
5
5
5
5
5
5
5
5
5
5
5
5
5
5
5
5
5
5
5
5
5
5
5
5
5
5
5
5
5
5
5
5
5
5
5
5
5
5
5
5
5
5
5
5
5
5
5
5
5
5
5
5
5
5
5
5
5
5
5
5
5
5
5
5
5
5
5
5
5
5
5
5
5
5
5
5
5
5
5
5
5
5
5
5
5
5
5
5
5
5
5
5
5
5
5
5
5
5
5
5
5
5
5
5
5
5
5
5
5
5
5
5
5
5
5
5
5
5
5
5
5
5
5
5
5
5
5
5
5
5
5
5
5
5
5
5
5
5
5
5
5
5
5
5
5
5
5
5
5
5
5
5
5
5
5
5
5
5
5
5
5
5
5
5
5
5
5
5
5
5
5
5
5
5
5
5
5
5
5
5
5
5
5
5
5
5
5
5
5
5
5
5
5
5
5
5
5
5
5
5
5
5
5
5
5
5
5
5
5
5
5
5
5
5
5
5
5
5
5
5
5
5
5
5
5
5
5
5
5
5
5
5
5
5
5
5
5
5
5
5
5
5
5
5
5
5
5
5
5
5
5
5
5
5
5
5
5
5
5
5
5
5
5
5
5
5
5
5
5
5
5
5
5
5
5
5
5
5
5
5
5
5
5
5
5
5
5
5
5
5
5
5
5
5
5
5
5
5
5
5
5
5
5
5
5
5
5
5
5
5
5
5
5
5
5
5
5
5
5
5
5
5
5
5
5
5
5
5
5
5
5
5
5
5
5
5
5
5
5
5
5
5
5
5
5
5
5
5
5
5
5
5
5
10
10
10
10
10
10
10
10
10
10
10
10
10
10
10
10
10
10
10
10
10
10
10
10
10
10
10
10
10
10
10
10
10
10
10
10
10
10
10
10
10
10
10
10
10
10
10
10
10
10
10
10
10
10
10
10
10
10
10
10
10
10
10
10
10
10
10
10
10
10
10
10
10
10
10
10
10
10
10
10
10
10
10
10
10
10
10
10
10
10
10
10
10
10
10
10
10
10
10
10
10
10
10
10
10
10
10
10
10
10
10
10
10
10
10
10
10
10
10
10
10
10
10
10
10
10
10
10
10
10
10
10
10
10
10
10
10
10
10
10
10
10
10
10
10
10
10
10
10
10
10
10
10
10
10
10
10
10
10
10
10
10
10
10
10
10
10
10
10
10
10
10
10
10
10
10
10
10
10
10
10
10
10
10
10
10
10
10
10
10
10
10
10
10
10
10
10
10
10
10
10
10
10
10
10
10
10
10
10
10
10
10
10
10
10
10
10
10
10
10
10
10
10
10
10
10
10
10
10
10
10
10
10
10
10
10
10
10
10
10
10
10
10
10
10
10
10
10
10
10
10
10
10
10
10
10
10
10
10
10
10
10
10
10
10
10
10
10
10
10
10
10
10
10
10
10
10
10
10
10
10
10
10
10
10
10
10
10
10
10
10
10
10
10
10
10
10
10
10
10
10
10
10
10
10
10
10
10
10
10
10
10
10
10
10
10
10
10
10
10
10
10
10
10
10
10
10
10
10
10
10
10
10
10
10
10
10
10
10
10
10
10
10
10
10
10
10
10
10
10
10
10
10
10
10
10
10
10
10
10
10
10
10
10
10
10
10
10
10
10
10
10
10
10
10
10
10
10
10
10
10
10
10
10
10
10
10
10
10
10
10
10
10
10
10
10
10
10
10
10
10
10
10
10
10
10
10
10
10
10
10
10
10
10
10
10
10
10
10
10
10
10
10
10
10
10
10
10
10
10
10
10
10
10
10
10
10
10
10
10
10
10
10
10
10
10
10
10
10
10
10
10
10
10
10
10
10
10
10
10
10
10
10
10
10
10
10
10
10
10
10
10
10
10
10
10
10
10
10
10
10
10
10
10
10
10
10
10
10
10
10
10
10
10
10
10
10
10
10
10
10
10
10
10
10
10
10
10
10
10
10
10
10
10
10
10
10
10
10
10
10
10
10
10
10
10
10
10
10
10
10
10
10
10
10
10
10
10
10
10
10
10
10
10
10
10
10
10
10
10
10
10
10
10
10
10
10
10
10
10
10
10
10
10
10
10
10
10
10
10
10
10
10
10
10
10
10
10
10
10
10
10
10
10
10
10
10
10
10
10
10
10
10
10
10
10
10
10
10
10
10
10
10
10
10
10
10
10
10
10
10
10
10
10
10
10
10
10
10
10
10
10
10
10
10
10
10
10
10
10
10
10
10
10
10
10
10
10
10
10
10
10
10
10
10
10
10
10
10
10
10
10
10
10
10
10
10
10
10
10
10
10
10
10
10
10
10
10
10
10
10
10
10
10
10
10
10
10
10
10
10
10
10
10
10
10
10
10
10
10
10
10
10
10
10
10
10
10
10
10
10
10
10
10
10
10
10
10
10
10
10
10
10
10
10
10
10
10
10
10
10
10
10
10
10
10
10
10
10
10
10
10
10
10
10
10
10
10
10
10
10
10
10
10
10
10
10
10
10
10
10
10
10
10
10
10
10
10
10
10
10
10
10
10
10
10
10
10
10
10
10
10
10
10
10
10
10
10
10
10
10
10
10
10
10
10
10
10
10
10
10
10
10
10
10
10
10
10
10
10
10
10
10
10
10
10
10
10
10
10
10
10
10
10
10
10
10
10
10
10
10
10
10
10
10
10
10
10
10
10
10
10
10
10
10
10
10
10
10
10
10
10
10
10
10
10
10
10
10
10
10
10
10
10
10
10
10
10
10
10
10
10
10
10
10
10
10
10
10
10
10
10
10
10
10
10
10
10
10
10
10
10
10
10
10
10
10
10
10
10
10
10
10
10
10
10
10
10
10
10
10
10
10
10
10
10
10
10
10
10
10
10
10
10
10
10
10
10
10
10
10
10
10
10
10
10
10
10
10
10
10
10
10
10
10
10
10
10
10
10
10
10
10
10
10
10
10
10
10
10
10
10
10
10
10
10
10
10
10
10
10
10
10
10
10
10
10
10
10
10
10
10
10
10
10
10
10
10
10
10
10
10
10
10
10
10
10
10
10
10
10
10
10
10
10
10
10
10
10
10
10
10
10
10
10
10
10
10
10
10
10
10
10
10
10
10
10
10
10
10
10
10
10
10
10
10
10
10
10
10
10
10
10
10
10
10
10
10
10
10
10
10
10
10
10
10
10
10
10
10
10
10
10
10
10
10
10
10
10
10
10
10
10
10
10
10
10
10
10
10
10
10
10
10
10
10
10
10
10
10
10
10
10
10
10
10
10
10
10
10
10
10
10
10
10
10
10
10
10
10
10
10
10
10
10
10
10
10
10
10
10
10
10
10
10
10
10
10
10
10
10
10
10
10
10
10
10
10
10
10
10
10
10
10
10
10
10
10
10
10
10
10
10
10
10
10
10
10
10
10
10
10
10
10
10
10
10
10
10
10
10
10
10
10
10
10
10
10
10
10
10
10
10
10
10
10
10
10
10
10
10
10
10
10
10
10
10
10
10
10
10
10
10
10
10
10
10
10
10
10
10
10
10
10
10
10
10
10
10
10
10
10
10
10
10
10
10
10
10
10
10
10
10
10
10
10
10
10
10
10
10
10
10
10
10
10
10
10
10
10
10
10
10
10
10
10
10
10
10
10
10
10
10
10
10
10
10
10
10
10
10
10
10
10
10
10
10
10
10
10
10
10
10
10
10
10
10
10
10
10
10
10
10
10
10
10
10
10
10
10
10
10
10
10
10
10
10
10
10
10
10
10
10
10
10
10
10
10
10
10
10
10
10
10
10
10
10
10
10
10
10
10
10
10
10
10
10
10
10
10
10
10
10
10
10
10
10
10
10
10
10
10
10
10
10
10
10
10
10
10
10
10
10
10
10
10
10
10
10
10
10
10
10
10
10
10
10
10
10
10
10
10
10
10
10
10
10
10
10
10
10
10
10
10
10
10
10
10
10
10
10
10
10
10
10
10
10
10
10
10
10
10
10
10
10
10
10
10
10
10
10
10
10
10
10
10
10
10
10
10
10
10
10
10
10
10
10
10
10
10
10
10
10
10
10
10
10
10
10
10
10
10
10
10
10
10
10
10
10
10
10
10
10
10
10
10
10
10
10
10
10
10
10
10
10
10
10
10
10
10
10
10
10
10
10
10
10
10
10
10
10
10
10
10
10
10
10
10
10
10
10
10
10
10
10
10
10
10
10
10
10
10
10
10
10
10
10
10
10
10
10
10
10
10
10
10
10
10
10
10
10
10
10
10
10
10
10
10
10
10
10
10
10
10
10
10
10
10
10
