# vtk DataFile Version 2.0
whisker_body, Created by Gmsh 4.13.1 
ASCII
DATASET UNSTRUCTURED_GRID
POINTS 561 double
8 0 0
5.481545381612207 0 32
12 0 0
4.916846385784335 0 90
7.720171709068023 0 3.555555555555555
7.440343418136046 0 7.11111111111111
7.160515127204069 0 10.66666666666667
6.880686836272092 0 14.22222222222222
6.600858545340115 0 17.77777777777778
6.321030254408138 0 21.33333333333333
6.041201963476161 0 24.88888888888889
5.761373672544185 0 28.44444444444444
7.083648205225679 3.717785376350148 0
4.544517973849247 6.583870927149251 0
0.9642934420425858 7.941670992784432 0
-2.836839096340284 7.480129941483319 0
-5.988085985368807 5.304981265926364 0
-7.767534539408415 1.914525314300465 0
-7.767534539408417 -1.914525314300459 0
-5.98808598536881 -5.30498126592636 0
-2.836839096340287 -7.480129941483318 0
0.9642934420425786 -7.941670992784433 0
4.544517973849245 -6.583870927149253 0
7.083648205225677 -3.717785376350153 0
4.19910737928853 3.523469453234799 32
0.9518603663155385 5.398268390299964 32
-2.740772690806107 4.747157552473435 32
-5.150967745604069 1.874798937065161 32
-5.150967745604064 -1.874798937065173 32
-2.740772690806093 -4.747157552473443 32
0.9518603663155552 -5.398268390299961 32
4.199107379288541 -3.523469453234786 32
11.34980690040761 3.896393630456207 0
9.469686112756717 7.370552552276022 0
6.563377897469113 10.04599773915035 0
2.945825845689581 11.63280319127197 0
-0.9909521456679979 11.95901391608004 0
-4.820345095835646 10.98927991986068 0
-8.127378859508902 8.82868692807757 0
-10.55368501447787 5.71136871644487 0
-11.83633564083267 1.975135083368787 0
-11.83633564083267 -1.975135083368821 0
-10.55368501447786 -5.711368716444897 0
-8.12737885950888 -8.828686928077589 0
-4.820345095835619 -10.9892799198607 0
-0.9909521456679715 -11.95901391608004 0
2.945825845689616 -11.63280319127196 0
6.563377897469155 -10.04599773915032 0
9.469686112756747 -7.370552552275983 0
11.34980690040762 -3.896393630456205 0
3.476735421440674 3.476735421440667 90
1.012690292828946e-14 4.916846385784335 90
-3.476735421440661 3.47673542144068 90
-4.916846385784335 1.588676900374471e-14 90
-3.476735421440683 -3.476735421440658 90
-1.400432058674011e-14 -4.916846385784335 90
3.476735421440664 -3.476735421440678 90
11.69203679938193 0 3.91304347826087
11.38407359876386 0 7.826086956521739
11.07611039814578 0 11.73913043478261
10.76814719752771 0 15.65217391304348
10.46018399690964 0 19.56521739130435
10.15222079629157 0 23.47826086956522
9.844257595673493 0 27.39130434782609
9.536294395055421 0 31.30434782608696
9.228331194437349 0 35.21739130434783
8.920367993819276 0 39.1304347826087
8.612404793201204 0 43.04347826086957
8.304441592583132 0 46.95652173913044
7.996478391965059 0 50.8695652173913
7.688515191346986 0 54.78260869565218
7.380551990728914 0 58.69565217391305
7.072588790110841 0 62.60869565217391
6.764625589492769 0 66.52173913043478
6.456662388874697 0 70.43478260869566
6.148699188256625 0 74.34782608695652
5.840735987638553 0 78.26086956521739
5.532772787020479 0 82.17391304347827
5.224809586402407 0 86.08695652173914
-5.732970981357301 -6.935765203420518e-15 28.80533485372332
6.030428324825017 3.02420562207466 15.93040761308422
6.03770642310507 -3.00713244168244 15.94466748472012
-6.852571139457491 3.596506776533592 3.315932606951399
-4.414463876510899 -6.365767441305048 3.219198807619814
5.440574850249621 -2.945852240152567 23.03744676853081
5.37063646038956 3.070974229764382 23.04081639630013
6.651229710478638 -3.019294422213746 8.837795775272632
6.651229710480818 3.019294422208498 8.837795775274978
-1.073236783146452 5.629333439113716 28.83384710425905
-0.9955199635300738 -5.645874270234682 28.80533485372331
-1.189741359088835 7.651135473827526 3.264420150102297
2.744298016455037 -7.236119167886799 3.315932606951395
5.792747467845333 5.13192644030965 3.315932606951399
6.308020586716 3.095163517274944 12.36997976164828
4.193865495427629 5.481403054280342 13.95446584296151
3.835268555893222 5.394229657707246 17.55126412405982
1.123783182508173 6.692766079070518 15.41951849575465
0.6339742395311084 6.470842489978875 19.03612068837427
-2.258920864775612 6.286301969327164 16.77417236400416
-1.77590705633208 6.736247830310564 13.13299483034685
-4.749087603898458 4.960703537975377 14.38990969737564
-5.056791932484515 4.21308309366546 18.01885600694445
-6.514511606258421 1.87649559987617 15.50935014572381
-6.429894369580578 0.9215158745819803 19.11529876198242
-6.475678999989483 -1.72965164952822 16.48382949756369
-6.941706126810367 -0.7644888205545701 12.9136238836598
-5.556474010564091 -4.118021234943122 13.77219733956688
-4.566806472554989 -4.819251990416219 17.2887523207134
-5.292754720051583 3.408830082983641 21.65767066003576
-2.650485012844631 -6.327614573776478 14.48120513329062
-1.303883750058303 -6.458294101142555 17.93351270809386
-3.422763384418046 -5.366903765343755 20.76891546416765
-4.378632831206774 5.657445377715116 10.74998410482809
-6.375185685996918 -3.337890507080359 10.21394381817615
-7.261915901491768 0.1014261862137994 9.36924826618044
-6.212139689616341 -0.0534734171993159 22.71399490705801
-1.20320656790124 7.151223002271327 9.507576780415887
0.1070701694644012 -6.318530180935227 21.35357385887088
0.9766677735018412 -6.745847998909043 15.04182632209053
-0.417705757427443 -7.070722575567733 11.65095574422986
-7.243635249433704 -1.822010438228269 6.743581620008634
3.153955347925085 -6.302047430794059 12.10628407380988
1.850175804209648 -7.07334102765669 8.750592793551487
-1.812210581123647 -7.125953583406946 8.223754815812221
-3.74405725250795 6.44076042386487 6.989385148190831
-2.14439910592837 -5.703645562010715 24.2251321212782
1.445045611294478 -5.883533947538742 24.6704531354495
-4.526107588119996 -3.726317940264216 27.15714043061531
2.918781436255795 -4.973521675480465 28.3763549641818
-5.445149655649396 2.54295375424558 25.2893976947245
-2.984028752157313 5.335374786769423 23.97465170501176
-4.361914436457138 3.714951662224308 28.8494454450112
1.885881796854366 -6.295498521591149 18.14574821329254
5.927581592738485 -3.76882670518685 12.3979072357063
1.601072652569246 6.886735160161147 11.81168914027779
2.274699181777669 6.997447422336022 8.15879705895045
5.089163562249514 2.993918018303745 26.62584060461639
3.043231653104883 5.241747271687952 24.63580864934996
2.69443621227781 5.068674416458273 28.7117650960394
5.687540196030481 3.076058864435213 19.49024158313349
5.855624915792518 -2.711875477756665 19.65511769305841
6.964462508129163 -2.989511089864186 5.349585813142984
4.540375777797799 -5.936929266031426 6.682218143268375
-6.506327794235429 2.750756368277426 11.89402754952265
-3.916961647521414 -5.955368060015341 11.07926392378172
3.360050564466392 5.370669426346674 21.15402086573263
0.2327442094261354 6.220614816735919 22.55392820647881
-2.712057824936525 5.792291867953336 20.38364617983533
4.600400360649425 5.512300855648332 10.42196876780028
-5.180247170179651 -5.330595686174282 7.203800885529184
-6.374283688505629 3.638620041925267 8.390034867362369
-5.849164094915647 -2.656736452005165 20.02182078179674
-5.030055151644859 -3.532093853435063 23.55334894396904
2.597965890634051 7.268082514041654 3.577448572421422
-0.976329797060884 -7.687937293418739 3.180568311977456
-4.552532391681712 6.264659189266323 3.251172310220505
-6.908909520158286 -3.50178050584893 3.231492180199528
-7.724287740920297 0.07813986068060183 3.498234587256963
5.298066621007464 -2.612739130422309 26.59057320760406
5.676896064595568 -5.287002648966134 3.080648873252338
3.430556234679604 -5.283246880444209 21.60920721446606
6.990771721745133 2.888976063002441 5.537405751363134
5.13501138978766 5.420792046478774 6.774755951286006
3.792556963604616 -5.643786406984408 15.25135729313806
-5.94322635791474 -0.674939830373302 25.64838656092102
0.01310938544784385 5.966675834917627 25.83565015067968
-0.60879779438769 7.464001826556277 6.495553890431894
0.672309745200954 -7.51001972345003 5.844182942780931
4.805236273002566 -5.401865048518318 9.785937866085511
-7.340905466668266 1.432972455451328 6.614103750749066
5.074452564430447 -2.576562602006511 29.33721717720597
5.013512465064682 2.679728376788067 29.41818708678442
7.287949707469238 2.750656163405267 2.671385587537245
7.346607110915633 -2.606243578748968 2.602231875921183
-2.661068549509457 -7.084114566731479 5.49634966737978
-4.318537258460609 -3.623683020799652 30.01904379046395
4.624005545377379 -4.705909757157217 17.82044475065362
3.938347577147253 -4.595176514140957 24.75218563384035
-5.998094607119676 4.576459122867461 5.786297970131763
-2.790028482117581 5.185726732054386 26.82743757318113
1.788912324490584 -0.6511108378265309 32
-1.726556615879727 0.6284152159556047 32
-0.4759301831577616 -2.699134195149979 32
1.370386345403052 2.373578776236716 32
-9.830905714707526 3.516901451911481e-15 0
5.716980593624634 -3.328109233970483 68.42103667344134
8.786540723377964 3.299035478523078 33.22083073714131
7.441782597214381 -3.324961142818976 48.90875898041639
9.071504544990017 -3.410508926409113 29.33319558118374
5.401195920060798 3.261651789176342 72.30314819219737
9.749158709010203 3.353034939562597 21.47789884144554
-11.09527489538307 3.809012682760124 3.419408766471423
-6.288710416120559 -9.871373019480705 3.756548685064529
10.07327899864523 -3.355695537491446 17.56612695366508
-2.879762434608167 11.37192468062311 3.419408766471418
-4.769669162408974 -1.939704282505346 87.05021404883644
5.020334099809054 -3.291775537788414 76.19537225846842
4.677600194425406 3.245052061619983 80.13796914691706
4.712243512000855 -10.74283313214681 3.41940876647142
6.422249044229519 -3.323595188621916 60.59219442990961
8.111539840237395 -3.335203565041361 41.03541898028804
6.088984370403172 3.295834611060506 64.49992465939698
6.801256627293292 3.254247543367081 56.67336474816921
7.45256228586219 3.311430526583626 48.85361858863952
8.122824354904379 3.310309223329537 41.0225538875324
10.38257026038666 3.404376777225371 13.64060837953971
7.945113376504878 8.630693833987415 3.419408766471512
-11.09527489538304 -3.809012682760148 3.419408766471706
10.71886229871806 -3.360370264523445 9.742374045642428
-2.126875078195381 4.720087125617858 86.69260512948058
4.311926756886884 -3.226424223996101 84.04647073103104
10.31700692552853 -5.583284939902463 3.41940876647138
11.08398570125286 3.178460198736792 5.962853411529511
6.067417898030437 -3.32934626076332 64.53677325643032
7.765166913722355 -3.350321649835772 45.01686388351295
9.097838897271011 3.34692504626865 29.30120027615035
7.212718061938229 6.254418330840584 31.17108754675774
7.555174322190355 6.327459554841324 27.25714383681504
4.772158905674766 8.462817191169581 29.02612467414263
4.378348164914823 8.327277757517868 32.93244095988123
5.20641705646671 8.566545286911108 25.09991823577932
1.793474247429333 9.727105197807674 26.79658649531448
2.218940038848779 9.953722456356049 22.89590710493802
-1.376873976152494 9.97842242030368 24.48525579935913
-0.962192882033422 10.33480089788298 20.59046323422586
-4.417853434966172 9.26126358979181 22.09589732427041
-4.819488807116537 8.711759242318948 25.97130032496412
-7.343174045429897 7.008498359257679 23.49474056984497
-7.580384058897461 6.285221794538481 27.35463521315781
-9.278161130985012 3.85911961039192 24.79317066280368
-9.274872084886992 2.996146017585407 28.62959906053607
5.654107041277709 -6.092667378382069 46.86034685005247
-9.22400797474268 4.697195839700219 20.95083094950797
-10.19840311237814 1.083718536090996 22.16189080970231
-4.044052579665262 9.762505389202429 18.20836189512272
-10.3714135834185 1.970670871941558 18.33534566177902
-10.31542130751347 -1.780602567427536 19.46624658344652
-9.811317139926986 -2.673312424895755 23.26507190422631
-8.924151056642597 -5.316012539456312 20.48856850344376
-8.069835054246257 -6.058572731132291 24.25598093560065
-6.339939857125023 -8.13758342965787 21.40017688494263
-0.5109828191902969 10.67375005894904 16.69628134320109
-5.180999398498895 -8.578979984093699 25.1321323446721
-7.414517116511509 -7.589836186588544 17.65648866173262
-4.186599610116268 -9.67803535561395 18.49056461814412
-7.764885640587965 5.548680047674805 31.21085673977117
-9.210063597249565 2.096386475564042 32.45622603264506
-7.929550898185188 4.745416906529825 35.055952705492
-9.064481766661022 1.207902335144744 36.28119377301125
-8.020999749134726 3.944534678296337 38.90075047934184
3.986672433902201 -5.864795649633419 62.36839442906614
-8.839603814769898 0.2922474415568761 40.09527384005336
-8.062968171111478 3.095075497457953 42.73598390642721
-8.684556818941441 -2.574813706042601 37.3789689469052
-8.06987087176214 -3.409058654547978 41.16310162450878
-6.812127769889174 -5.853035191328921 38.35667577422729
-6.121627214690808 6.235978091619296 41.44102482605786
-6.362313727735574 5.537988882815146 45.29827377297229
4.42115320829646 -5.932200255248516 58.4677785790124
1.063229809584734 -7.191309493266633 60.10691159455371
0.5797533981290379 -6.939298108464708 63.99512860633919
-2.502912352310925 -6.69840564626374 61.61557852476282
-2.949351480376836 -6.179792449389511 65.46848552075561
-2.068140021467778 -7.162476977803007 57.74863136493738
-5.155569071209178 -5.233041672751006 59.13389710998042
-8.034888464913886 2.217782818761208 46.56384375584553
-6.701668075379166 4.615479647103033 49.0807597723059
-10.73091641323773 -0.8906420881636148 15.65641227459686
-10.47616728528612 2.856452350758237 14.50274093931134
-3.489430832919046 7.799953117050267 43.90114838834448
-4.73466202017384 -5.999907513263318 55.36054700409926
-3.63805753421913 10.24586830948999 14.32506328998879
-0.07584634187876589 10.99270934605937 12.79551663327036
-5.429186787387275 -9.379670723400968 14.76927131662962
-1.776076732603595 -10.63047607350818 15.52923030743142
-0.402824789749403 -10.48011726422527 19.21360991802571
-5.7950361590013 -6.471135435849696 42.09999398425122
-3.708379698179459 -8.106806858508318 39.2020819398749
-7.019005400635616 -2.874898986726529 56.09851707908917
-6.987617113942193 -1.937565381940071 60.33830413946935
-7.415037237830485 0.8219746979027555 57.680361920586
-6.941417408257129 1.772058084203528 61.4467010769615
-5.905863672416424 4.426317144309226 58.69654611564003
2.102600513656777 -10.51850137013239 16.18016851109138
-4.937866623734079 -7.771013966836292 35.48681802221751
-1.303460878481908 -9.054163461186757 36.24435872707764
-3.073104443733361 8.298873016116698 40.02973932126017
0.7346849282068061 -10.99002269088867 12.52130120168719
3.433524597107857 -9.859149246960037 19.82270475343491
-4.991349316218311 5.037570490904566 62.3672303894958
-1.574178476948654 -7.597855352209579 53.88426082467059
3.068845603759223 10.36831669655439 15.08294924099903
-2.920930256439319 6.71304791158003 59.45250133094343
-4.319570466744382 -6.675110036277913 51.44951485299676
0.08028278231863524 -8.858255490245394 39.91502650541633
2.560032366360102 -8.73051021668152 36.87203025662596
1.203464097783706 -9.307124222454522 33.23169280440982
4.49992331177815 -10.0033192012885 13.10198301280269
-11.06788327579758 0.04001408636775264 11.84274687189945
-6.320758319879122 2.688281533400837 65.19952997288841
-3.860920348015334 5.598273504959976 66.06537723334613
-5.539552632468105 3.542401279685316 68.92669171331866
3.485656039961913 10.56037390661003 11.17180796609471
0.02870866806702995 8.663989630419367 42.3874264019113
-0.4121478199090174 8.352226026719666 46.2202334292984
-5.500764215544432 7.556093328256974 33.71870725204709
-7.1176593301113 -6.729767437563017 28.01146144551599
5.576910138064374 8.696086773612659 21.21016661568528
5.23373949720656 -6.056621417757217 50.76552040329324
-10.53607125908896 3.679801345746438 10.6708577518077
-10.34819139550866 -3.679969884578285 12.92165808298687
-2.753561158290581 5.901841857859837 69.72414726427282
-4.590703839841956 4.291657565322817 72.62438946351062
-6.289136113385752 0.9297288501620951 71.69493756378886
-5.767237391369576 1.876245258733616 75.41436460295124
-5.865770010663018 -1.841180493265692 74.35743406437572
-5.808280113606302 -0.6952525509103292 78.14642372978059
-4.90965723314382 3.042959647685182 79.08104078184857
2.29461672921454 -7.844429163513227 48.62477541880045
-4.203113738638539 -4.207363060268375 76.90931121625731
-3.74966925429998 -4.99747762352697 73.0888370261986
3.101214960450843 7.898941327919449 44.65064233450452
-4.597575279223725 6.065872498031988 55.76320328343585
-0.570514664545632 7.533972364631041 56.47218348521451
4.859045803713141 -7.978472702550257 33.77758828194234
3.628806933537294 -8.915590767783961 30.16708919757825
0.978576598951466 -10.15215829397386 22.88117804633834
4.696085194936365 -9.00360713006828 23.44661856939073
0.8628254465646745 7.218228547489828 60.10525002050814
0.17873501530772 6.742862519510422 66.76817083126123
-7.926042597961882 1.31752926449107 50.38262436928902
-8.101377936168232 -1.538344306641539 47.69731157621207
-3.214078057141291 10.70458763838844 10.4610914726328
-1.300253914428785 7.711956922619261 53.10174875554615
1.660304451281496 7.631723049088258 53.23598194098334
0.4599787998973642 8.958502779557428 38.49593858842268
-4.614938244638466 -3.260607595822786 80.67684770623498
-1.564584367423699 -5.540424506323579 79.32353515302555
-2.443092465727368 -4.88675421417502 83.05499648191996
-0.1801877520846415 -9.670862933734892 29.57316524067431
6.317646337807726 8.940327505993306 13.37655650504148
-6.452543030822727 8.987991358964781 11.88887092308393
-6.113059659497285 9.586533164372014 8.008140602183673
-9.626890315259494 -0.7430852339608859 29.78935975344012
-1.250715175092778 6.098663685043872 73.37081901147086
0.09742831377758279 -6.658338508979589 67.86318789614582
6.636745809280073 9.084538752065244 9.522459607224226
3.898599221669998 10.74318869918326 7.259057196426047
3.495110241336743 -10.70277491684443 9.415238168026237
-0.6474244134555609 -11.2852867393833 8.845519781831557
6.682308661728197 -9.006199262554778 9.980800889459633
7.69942295484489 -7.760348593132426 13.57284177336911
6.409890906261167 -8.225580820512047 19.9719013612788
7.724098604439757 -6.537865871899502 23.89332166878073
3.851531703655343 -7.926999263613854 40.49276793841751
-11.34246278846623 1.172309179780046 7.587074022516695
-7.680918085846375 -2.048119026275026 51.46908450619102
1.985044557259852 -8.357184477347014 43.33197874466382
2.736648808516197 7.706892061471502 48.55864928772764
-6.731817661779828 3.998671752118456 52.98662244030141
6.847176502264565 -6.712989691578254 30.63523228569059
7.380990618400129 -5.679824797117669 34.13648099809464
1.525133274968377 -5.361417995871966 81.64852334460002
1.056946033689075 -5.174336973872746 85.37065938514998
8.923337085401277 6.581618599088266 11.5881136538197
9.104548121264594 6.917334101040424 7.188405039158913
4.552607005159974 -3.414583860364724 80.16553049837536
10.64232785307013 3.605537518240488 9.7011247390724
5.039819681495067 3.257890743426709 76.22279286887505
2.284701350908681 5.401979773430071 77.94929399848378
2.171332924380455 5.118310053588687 81.83003303283274
1.6927880078412 4.899722985014376 86.60676533845216
-1.616960954380196 5.513792394803932 79.46465605312217
2.088982514927428 5.821846223673474 73.88296865170989
3.165304976699498 5.649209819579665 70.19481298617519
2.207432399927783 -5.446230185748071 77.80544059485601
2.819616096890738 -5.497828727147635 73.96660705403808
-0.9180309124704817 -5.987918677893823 75.50175054587467
-3.371414436264935 -5.610763679041898 69.30256357238098
-5.669519998563771 -3.652593193540616 66.7806487404452
-5.8296345010856 -2.743999892435117 70.60648177162592
4.394344187844588 3.117651145497576 84.01405595111754
5.740642708309748 3.290731180125158 68.39826684460235
8.651284891827 6.426284629376628 15.54078757877635
5.988111490179403 8.792360041864704 17.30822159473534
5.825198907681954 -7.966228846600639 27.07912175723026
6.43450164161062 3.301059767788826 60.58495610471189
4.213332112725147 5.715734902502742 62.24985143959434
3.589417441854641 5.75894858913291 66.25051621890448
4.531508050791264 5.841903067536959 58.53237429084714
-5.811578340067204 6.92441274485895 37.61013082528729
-5.156384691038935 8.157887962006807 29.84842974839389
-2.265988007115421 9.185588883394828 32.26157505925367
-2.675068477991783 8.753802138437777 36.16926607379033
7.141283277539189 3.255198111960705 52.75362215270549
7.786794660657894 3.315134244023251 44.94040697837053
-9.208613896825124 -1.643253574846165 33.61957436335442
8.462432770897786 3.286313054610388 37.12575414505533
6.465699843151413 6.17396585204747 38.88132134291664
6.718792551872975 -3.41252801882581 56.7236805872236
9.441193644968545 3.301159746903018 25.3909421730518
7.955655885851906 6.316781040709192 23.3990632461895
9.409820883022679 -3.394762154420589 25.3684922613864
9.733170913784917 -3.385492890031855 21.53507310672547
-9.683774166117125 -4.510949262079623 16.73546539902681
10.07971552490397 3.335865867111765 17.56790779317669
9.902061166405591 -4.613008248566998 13.67368823055085
3.482342898804639 8.07056016152127 40.7894083223896
-8.517721059519012 -4.365382408547774 30.860653379882
2.645664784022427 10.165382197336 19.0081669486723
-5.446217363012081 -4.468755583141379 62.96011467382795
-6.878514049508603 -0.999900069940565 64.15604552680978
-6.771452496393723 8.361089803782201 15.7658547163716
-7.078408352137418 7.69212819818211 19.65194532264498
0.4055977805395534 11.29239029740477 8.898510455191525
5.846035893375451 -8.943094565248744 16.71707217971176
0.8902983624521473 9.235123543521814 34.58707399075162
-9.953882264999006 0.170548497589595 25.97982746565868
-9.134738715071293 5.476876430111107 17.14316002250878
-9.214845148647704 -3.537982609491235 27.05533875683151
-6.066491388029696 -7.311333187012439 31.76022167281405
-7.698445552813875 -5.171538378711142 34.63451293517885
-3.895602746618701 7.260806450028532 47.77731049566786
1.49065469453152 -7.427003682753211 56.2234378322384
6.362088153482277 -6.466300222436884 37.21215717380733
-2.881443336510299 -9.839716669793679 22.19852608846849
-1.531869045998625 -9.843813362676453 25.89152075570684
2.34103620279498 -9.631477223001973 26.53179893943757
-3.128302646091925 -10.61477507498294 11.86565971769764
-6.572856502843815 -8.983613424546521 11.03678818384996
-8.378709291504475 -6.977304632205014 13.93279802631181
-10.93747965735017 -2.76303575674997 9.134709859406716
0.8085333001971484 11.57417922157618 5.052170443575964
-0.273102263807074 -6.347777900081732 71.74367831940573
-3.409361332444862 4.936671194291666 76.2430870753338
-3.758982978629631 4.006274367030707 82.67101863713459
-5.425669273295406 1.104062567250756 82.12195419738141
-4.884346316722424 1.791133656565959 86.37165706753538
-2.617332966731014 -9.064657819811517 32.59193481163602
-8.521220610328282 -0.6272626505770537 43.90913163041307
-1.622864537359014 6.838608240599739 63.16849937675617
-7.332496947201227 -4.22710317201744 44.93318073754911
-4.671846875572413 -6.972731534513549 45.82924484467515
-6.319578598579276 -5.17340732020628 48.70184973653127
-9.285962751478156 -6.266624886884903 10.13110822256091
-7.859437290811931 -8.294777392881631 7.2819020741478
-4.439288870013306 -10.45557941733169 8.144931369404606
-2.045871354180456 -11.41184844870803 5.161437812134263
8.287254904044941 6.39185218872595 19.49301030607161
4.802722487674982 -6.021959773429828 54.60356501420336
-6.653395333110464 -0.0212372159790496 67.93462287885342
1.365018140489415 9.486501895744164 30.69558105830964
-1.817054635773764 9.592039867404846 28.42849960915208
-3.941650127292444 -8.895208027176453 28.85063846622405
-8.77947318723265 7.052578392513731 9.385433837787591
-8.566593732858113 7.770464161778859 5.517631828405505
-8.992674143875153 6.255922081194695 13.28220336405191
3.932166836130047 8.206814857764407 36.84537842487174
-1.116377016051102 -7.984754788946921 50.03170518992634
6.866450336826914 6.183648430129733 35.06359158437908
-2.003793339052443 -8.389775657467696 42.87394059639691
2.10915193386366 -11.34493460601431 5.853407941899013
-9.219380892143649 -7.186589388951798 3.945471775375704
3.554230195821187 -5.778548354739627 66.27414292124682
3.175378576313695 -5.649121507710696 70.13314927835086
7.065061737893773 -3.394862509613757 52.87840564643524
7.983739988406651 -8.602990854984787 3.344770207887588
9.052215880680517 -7.04472520501855 6.728824188700371
4.712559026357229 10.74355243242771 3.409428593027145
-11.73666604211394 0.04718123912198326 3.344770207887467
6.096352240736662 6.106354556210483 42.83744930568281
5.408434606372823 -3.260119578712132 72.23445243878388
5.677383474717884 -6.466964099346061 43.13145004322043
-2.564320808240374 -4.497332073433459 86.69393424485727
2.028240017853708 -7.614912685422567 52.34452245592824
5.721162835370483 6.042313999811233 46.74443099467579
8.302528819343239 -3.640693895333567 37.28401253504221
-6.371033453172512 9.862379288833198 3.287924762586403
5.343833604363732 5.961178011889993 50.75162509260196
-7.671561473894053 1.090282420845946 54.01852811096143
-10.44967561791473 4.670806577753361 7.038549936961735
-0.6235127391977241 -8.342084459125529 46.18256099359166
4.832359632524628 6.005369915490685 54.53263767813257
10.96522349726178 -3.525336563371161 6.124500872113662
10.23355556339107 5.767975609077463 3.212942893686832
8.250445480664132 -6.753845190336923 16.99730803999624
6.324569918115909 -9.597854824933426 6.425489376686367
-2.572541180987726 11.1579665335918 6.979709784863774
9.000729455229347 -6.629111601261514 10.43849438639591
-10.16989720549422 -5.290632782731523 6.813679928444092
-0.7159848920081628 8.05040215442504 49.78064217134617
-0.8371683947284265 5.347456152642518 83.70097108264214
-4.468879435384776 6.569717028938419 51.51643156241278
-4.98577389343032 -2.125586085308445 83.60722860335787
0.6546232088404098 -11.77081431275984 2.680966016660206
-11.38007133730396 -1.823652816212765 6.032080151740833
-0.6742749854177792 5.94677254496203 76.42938673721719
8.072443015116438 -5.65305946074388 27.25455613181331
6.702569500371743 9.342675038681527 6.375193617103553
9.037453634538991 -2.5283021573747 33.23372856069496
1.46344284419461 6.805562652687478 64.02489825169494
3.424165679542937 -3.856638420720067 86.94372813304469
-9.314914204065044 7.250088740377167 2.492032199372612
4.315081948340458 2.79951163583439 87.11810989700997
2.529187716215778 7.121470479299682 56.45040304994809
-6.865008326916375 3.247930978055505 55.97637794444783
11.42395651398019 2.851827827667638 2.864788304020534
0.3216214950079429 6.418989028601598 70.81115357262543
6.486053078122627 -6.002231311777282 40.18749964266079
11.42505284540273 -2.848531659604395 2.861410277246407
-3.669370813258529 -7.299067284856925 48.67116767786944
-2.899486013414084 -11.45987722982877 2.274537341872404
-6.268809292168519 -4.695717925345237 52.95336737030953
8.493174932414995 -6.061879656433861 19.89058012419283
3.382587091582081 -7.689887388004681 45.73003734172033
0.9676696180883744 11.79356446532044 2.119435191124682
-5.546138591374803 10.1403049857522 5.617200901187043
0.5473750369420712 1.321480237890017 90
-0.7398602367303317 -1.78618061777492 90
2.201188615676791 -0.935382126248411 90
-2.217890441286627 0.8950603523447548 90
0.02323769437581191 0.05769449835568086 40.93039003866173
-0.03786933183415986 -0.007603918407235177 49.04042973696346
0.0118446947598585 0.004836201836622145 56.76549281795619
-0.009693035012114493 0.0009342784451100705 64.13585766752934
0.01310630922578593 -0.01474103927541327 70.58103068490688
-0.05805991213744566 0.03552026202276615 76.52443611648569
-0.5331600399807468 3.804878127339035 37.00306544880331
-2.14778308367368 -3.281111857719094 37.21320447865876
-3.403298940665936 0.2186712803243676 44.96138103391345
3.38735608104133 0.3617130528135544 45.01369855040571
0.06182547367428004 -0.005374737721697276 82.71159997936731
3.068740313019809 -2.02458384315856 37.02992855680465
0.07539542181739356 -3.523124187858491 44.59279629804005
0.1681668171876823 3.971456434224395 43.95836333357884
-4.170946823097077 0.9506621770519978 38.58587479154617
-1.677568466885663 -2.697367094292185 52.9180148948916
3.103470008740832 0.3506932835027543 52.88233843391709
-2.134495338544241 2.213664397560526 52.91304689045869
2.903338796886351 0.2089039050432975 60.45926532286099
-2.365786455005964 1.666864936786614 60.44463970448844
3.899774869599258 2.167596041592156 39.13581195298325
-0.6921614695201366 -2.64509983311948 60.44724759797408
-3.651690317778638 -2.535746631193336 41.39905707808192
0.9817302742235492 -4.442470874548605 40.2609616645187
1.542381886399758 -3.849634624318147 50.26194688638039
-2.571633548984788 0.9541707544891409 67.36988461559231
-2.50038084014471 4.182183426890307 40.70739307206592
1.022862597201759 -2.557832487151706 67.34862778954938
1.815165382398645 2.069425584647472 67.35707903769479
3.96856070521955 -1.549756958208727 41.23840631614183
-2.120234536413142 3.389411039445017 47.51280299779861
-4.263087999873177 -0.3709568981973446 49.0721725846746
1.39337830487633 3.873363024392549 50.73015026264067
4.104087353362942 -0.792707040284403 48.97738887316535
1.656599868268482 -3.437803346311754 55.21759257033465
-4.198155862640505 3.464960565338189 35.51204057645665
1.279411543640284 3.484249184791581 54.89688189197777
0.9254753086116303 3.32741861440978 62.06677168450102
3.274006459319195 4.369289899078883 35.82490672362663
-3.6896523503648 -1.329256538686227 57.95932974169224

CELLS 2796 12768
1 0
1 1
1 2
1 3
2 0 4
2 4 5
2 5 6
2 6 7
2 7 8
2 8 9
2 9 10
2 10 11
2 11 1
2 0 12
2 12 13
2 13 14
2 14 15
2 15 16
2 16 17
2 17 18
2 18 19
2 19 20
2 20 21
2 21 22
2 22 23
2 23 0
2 1 24
2 24 25
2 25 26
2 26 27
2 27 28
2 28 29
2 29 30
2 30 31
2 31 1
2 2 32
2 32 33
2 33 34
2 34 35
2 35 36
2 36 37
2 37 38
2 38 39
2 39 40
2 40 41
2 41 42
2 42 43
2 43 44
2 44 45
2 45 46
2 46 47
2 47 48
2 48 49
2 49 2
2 3 50
2 50 51
2 51 52
2 52 53
2 53 54
2 54 55
2 55 56
2 56 3
2 2 57
2 57 58
2 58 59
2 59 60
2 60 61
2 61 62
2 62 63
2 63 64
2 64 65
2 65 66
2 66 67
2 67 68
2 68 69
2 69 70
2 70 71
2 71 72
2 72 73
2 73 74
2 74 75
2 75 76
2 76 77
2 77 78
2 78 3
3 0 172 4
3 4 173 0
3 12 172 0
3 0 173 23
3 1 170 11
3 11 171 1
3 1 171 24
3 31 170 1
3 5 141 4
3 4 161 5
3 141 173 4
3 4 172 161
3 6 86 5
3 5 87 6
3 86 141 5
3 5 161 87
3 6 93 7
3 7 133 6
3 6 133 86
3 87 93 6
3 7 80 8
3 8 81 7
3 7 93 80
3 81 133 7
3 8 139 9
3 9 140 8
3 80 139 8
3 8 140 81
3 10 84 9
3 9 85 10
3 84 140 9
3 9 139 85
3 10 136 11
3 11 158 10
3 10 158 84
3 85 136 10
3 136 171 11
3 11 170 158
3 13 92 12
3 92 172 12
3 14 153 13
3 13 153 92
3 15 90 14
3 90 153 14
3 16 155 15
3 15 155 90
3 17 82 16
3 82 155 16
3 18 157 17
3 17 157 82
3 19 156 18
3 156 157 18
3 20 83 19
3 83 156 19
3 21 154 20
3 20 154 83
3 22 91 21
3 91 154 21
3 23 159 22
3 22 159 91
3 23 173 159
3 24 138 25
3 24 171 138
3 25 88 26
3 25 138 88
3 26 131 27
3 88 131 26
3 27 79 28
3 27 131 79
3 28 175 29
3 79 175 28
3 29 89 30
3 29 175 89
3 30 128 31
3 89 128 30
3 128 170 31
3 79 164 127
3 127 175 79
3 79 131 129
3 129 164 79
3 93 94 80
3 94 95 80
3 95 139 80
3 81 163 133
3 140 176 81
3 81 176 163
3 82 178 155
3 157 169 82
3 169 178 82
3 149 156 83
3 83 174 149
3 154 174 83
3 84 160 140
3 158 177 84
3 84 177 160
3 85 137 136
3 85 145 137
3 139 145 85
3 133 168 86
3 86 142 141
3 86 168 142
3 87 148 93
3 87 162 148
3 161 162 87
3 88 179 131
3 138 165 88
3 165 179 88
3 125 126 89
3 89 127 125
3 126 128 89
3 89 175 127
3 90 155 124
3 124 166 90
3 90 166 153
3 91 159 142
3 142 167 91
3 91 167 154
3 153 162 92
3 92 162 161
3 161 172 92
3 93 148 94
3 94 96 95
3 94 134 96
3 94 148 134
3 96 97 95
3 97 145 95
3 95 145 139
3 96 98 97
3 96 99 98
3 96 134 99
3 98 147 97
3 97 146 145
3 97 147 146
3 99 100 98
3 100 101 98
3 101 147 98
3 99 112 100
3 99 116 112
3 99 134 116
3 100 102 101
3 100 143 102
3 112 143 100
3 102 103 101
3 103 108 101
3 108 147 101
3 102 104 103
3 102 105 104
3 102 143 105
3 104 151 103
3 103 115 108
3 103 151 115
3 105 106 104
3 106 107 104
3 107 151 104
3 105 113 106
3 105 114 113
3 105 143 114
3 106 109 107
3 106 144 109
3 113 144 106
3 109 110 107
3 110 111 107
3 111 151 107
3 115 129 108
3 129 130 108
3 130 147 108
3 109 118 110
3 109 119 118
3 109 144 119
3 110 117 111
3 110 132 117
3 118 132 110
3 117 125 111
3 125 152 111
3 111 152 151
3 116 124 112
3 124 150 112
3 112 150 143
3 114 120 113
3 120 149 113
3 113 149 144
3 114 169 120
3 143 150 114
3 150 169 114
3 115 164 129
3 151 152 115
3 152 164 115
3 116 166 124
3 134 135 116
3 135 166 116
3 117 126 125
3 117 160 126
3 132 160 117
3 119 121 118
3 121 163 118
3 118 163 132
3 119 122 121
3 119 123 122
3 119 144 123
3 120 156 149
3 120 157 156
3 120 169 157
3 122 168 121
3 133 163 121
3 121 168 133
3 123 167 122
3 122 167 142
3 142 168 122
3 144 149 123
3 149 174 123
3 123 174 167
3 124 178 150
3 155 178 124
3 127 152 125
3 126 177 128
3 160 177 126
3 127 164 152
3 158 170 128
3 128 177 158
3 129 179 130
3 131 179 129
3 146 147 130
3 130 165 146
3 130 179 165
3 132 176 160
3 163 176 132
3 134 148 135
3 148 162 135
3 135 162 153
3 153 166 135
3 137 138 136
3 138 171 136
3 137 165 138
3 145 146 137
3 146 165 137
3 160 176 140
3 142 159 141
3 159 173 141
3 150 178 169
3 167 174 154
3 24 183 1
3 1 180 31
3 1 183 180
3 25 183 24
3 26 183 25
3 27 181 26
3 181 183 26
3 28 181 27
3 29 182 28
3 28 182 181
3 30 182 29
3 31 182 30
3 180 182 31
3 181 182 180
3 180 183 181
3 2 0 32
3 49 0 2
3 32 0 12
3 23 0 49
3 33 12 13
3 32 12 33
3 14 35 13
3 34 33 13
3 35 34 13
3 14 15 36
3 36 35 14
3 15 16 38
3 36 15 37
3 37 15 38
3 16 17 39
3 38 16 39
3 18 184 17
3 39 17 40
3 17 184 40
3 18 19 42
3 41 18 42
3 41 184 18
3 19 20 43
3 42 19 43
3 45 20 21
3 43 20 44
3 44 20 45
3 22 46 21
3 21 46 45
3 23 48 22
3 22 47 46
3 22 48 47
3 23 49 48
3 40 184 41
3 32 506 2
3 2 509 49
3 2 506 57
3 57 509 2
3 3 503 50
3 56 501 3
3 3 501 78
3 78 503 3
3 33 484 32
3 484 506 32
3 34 206 33
3 206 484 33
3 35 468 34
3 34 468 206
3 36 515 35
3 35 515 468
3 37 194 36
3 194 515 36
3 38 477 37
3 37 477 194
3 39 502 38
3 38 502 477
3 40 191 39
3 191 502 39
3 41 469 40
3 40 469 191
3 42 207 41
3 207 469 41
3 43 462 42
3 42 462 207
3 44 192 43
3 192 462 43
3 45 511 44
3 44 511 192
3 46 494 45
3 494 511 45
3 47 198 46
3 198 494 46
3 48 466 47
3 47 466 198
3 49 211 48
3 211 466 48
3 49 509 211
3 50 371 51
3 50 503 371
3 51 209 52
3 51 371 209
3 52 437 53
3 209 437 52
3 53 195 54
3 53 437 195
3 54 473 55
3 195 473 54
3 55 501 56
3 55 473 363
3 363 501 55
3 57 212 58
3 58 483 57
3 57 506 212
3 483 509 57
3 59 208 58
3 58 367 59
3 208 483 58
3 212 367 58
3 59 205 60
3 60 406 59
3 59 367 205
3 59 406 208
3 61 193 60
3 60 405 61
3 193 406 60
3 205 405 60
3 61 190 62
3 62 403 61
3 61 405 190
3 61 403 193
3 62 400 63
3 63 402 62
3 190 400 62
3 402 403 62
3 64 188 63
3 63 215 64
3 188 402 63
3 63 400 215
3 64 186 65
3 65 499 64
3 64 215 186
3 64 499 188
3 65 397 66
3 66 476 65
3 186 397 65
3 476 499 65
3 67 200 66
3 66 204 67
3 200 476 66
3 66 397 204
3 68 214 67
3 67 395 68
3 67 214 200
3 204 395 67
3 69 187 68
3 68 203 69
3 187 214 68
3 68 395 203
3 69 394 70
3 70 465 69
3 69 465 187
3 203 394 69
3 70 202 71
3 71 399 70
3 70 394 202
3 399 465 70
3 72 199 71
3 71 386 72
3 199 399 71
3 202 386 71
3 72 201 73
3 73 213 72
3 72 213 199
3 72 386 201
3 74 185 73
3 73 382 74
3 185 213 73
3 201 382 73
3 74 189 75
3 75 471 74
3 74 471 185
3 74 382 189
3 76 196 75
3 75 368 76
3 189 368 75
3 196 471 75
3 76 197 77
3 77 366 76
3 76 366 196
3 76 368 197
3 78 210 77
3 77 381 78
3 197 381 77
3 210 366 77
3 78 501 210
3 381 503 78
3 185 463 213
3 185 464 463
3 185 471 464
3 215 216 186
3 216 459 186
3 186 459 397
3 187 231 214
3 187 308 231
3 187 465 308
3 360 497 188
3 188 499 360
3 188 497 402
3 189 373 368
3 189 374 373
3 189 382 374
3 190 401 400
3 190 448 401
3 405 448 190
3 191 469 355
3 355 480 191
3 191 480 455
3 455 502 191
3 192 446 445
3 445 462 192
3 192 447 446
3 192 511 447
3 403 513 193
3 193 485 406
3 193 513 485
3 194 487 432
3 432 515 194
3 477 516 194
3 194 516 487
3 437 493 195
3 195 493 473
3 366 375 196
3 375 376 196
3 376 471 196
3 368 369 197
3 369 370 197
3 370 381 197
3 198 486 461
3 461 494 198
3 466 486 198
3 213 250 199
3 250 258 199
3 258 399 199
3 214 472 200
3 472 508 200
3 200 508 476
3 201 388 382
3 386 387 201
3 387 388 201
3 202 389 386
3 202 482 389
3 394 482 202
3 203 478 394
3 395 475 203
3 475 478 203
3 204 470 395
3 397 398 204
3 398 470 204
3 205 367 364
3 364 383 205
3 383 405 205
3 365 484 206
3 206 498 365
3 468 498 206
3 462 489 207
3 207 495 469
3 489 495 207
3 406 488 208
3 467 483 208
3 208 488 467
3 371 491 209
3 435 437 209
3 209 491 435
3 210 363 362
3 362 366 210
3 210 501 363
3 211 467 466
3 211 483 467
3 211 509 483
3 365 367 212
3 212 484 365
3 212 506 484
3 213 463 250
3 231 472 214
3 215 217 216
3 215 400 217
3 217 218 216
3 218 219 216
3 219 459 216
3 217 220 218
3 217 401 220
3 400 401 217
3 218 451 219
3 220 221 218
3 221 451 218
3 219 451 416
3 416 457 219
3 457 459 219
3 220 222 221
3 220 307 222
3 220 401 307
3 222 223 221
3 223 452 221
3 221 452 451
3 222 224 223
3 222 409 224
3 307 409 222
3 224 225 223
3 225 226 223
3 226 452 223
3 224 234 225
3 224 241 234
3 224 409 241
3 225 227 226
3 225 413 227
3 234 413 225
3 227 228 226
3 228 391 226
3 391 452 226
3 227 229 228
3 227 232 229
3 227 413 232
3 229 230 228
3 230 245 228
3 245 391 228
3 229 417 230
3 232 233 229
3 233 417 229
3 230 246 245
3 230 343 246
3 230 417 343
3 308 318 231
3 318 514 231
3 231 514 472
3 232 235 233
3 232 418 235
3 413 418 232
3 235 236 233
3 236 237 233
3 237 417 233
3 241 271 234
3 271 412 234
3 412 413 234
3 235 267 236
3 235 268 267
3 235 418 268
3 236 238 237
3 236 404 238
3 267 404 236
3 238 239 237
3 239 419 237
3 237 419 417
3 238 240 239
3 238 243 240
3 238 404 243
3 240 242 239
3 242 306 239
3 306 419 239
3 240 425 242
3 243 244 240
3 244 425 240
3 241 272 271
3 241 291 272
3 241 409 291
3 242 453 306
3 425 426 242
3 426 453 242
3 243 273 244
3 243 430 273
3 404 430 243
3 273 274 244
3 274 275 244
3 275 425 244
3 246 247 245
3 247 305 245
3 305 391 245
3 246 248 247
3 246 396 248
3 343 396 246
3 248 249 247
3 249 390 247
3 247 390 305
3 248 251 249
3 248 253 251
3 248 396 253
3 251 252 249
3 252 256 249
3 256 390 249
3 250 259 258
3 250 260 259
3 250 463 260
3 251 439 252
3 253 254 251
3 254 439 251
3 252 257 256
3 252 265 257
3 252 439 265
3 253 255 254
3 253 421 255
3 396 421 253
3 255 276 254
3 276 441 254
3 254 441 439
3 255 277 276
3 255 284 277
3 255 421 284
3 257 269 256
3 269 286 256
3 286 390 256
3 265 266 257
3 266 422 257
3 257 422 269
3 259 423 258
3 258 449 399
3 423 449 258
3 260 261 259
3 261 263 259
3 263 423 259
3 260 262 261
3 260 345 262
3 260 463 345
3 262 410 261
3 261 264 263
3 261 410 264
3 345 378 262
3 378 379 262
3 379 410 262
3 264 270 263
3 270 290 263
3 290 423 263
3 264 278 270
3 264 279 278
3 264 410 279
3 265 330 266
3 265 331 330
3 265 439 331
3 330 359 266
3 359 492 266
3 266 492 422
3 268 298 267
3 298 310 267
3 310 404 267
3 268 309 298
3 268 456 309
3 418 456 268
3 269 303 286
3 269 304 303
3 269 422 304
3 278 512 270
3 270 293 290
3 270 512 293
3 272 332 271
3 332 341 271
3 341 412 271
3 291 302 272
3 302 414 272
3 272 414 332
3 273 428 274
3 273 429 428
3 273 430 429
3 274 283 275
3 274 287 283
3 274 428 287
3 283 288 275
3 288 326 275
3 326 425 275
3 277 460 276
3 276 442 441
3 276 460 442
3 284 285 277
3 285 294 277
3 294 460 277
3 279 280 278
3 280 479 278
3 278 479 356
3 356 512 278
3 279 281 280
3 279 411 281
3 410 411 279
3 281 282 280
3 282 505 280
3 280 505 479
3 281 289 282
3 281 299 289
3 281 411 299
3 289 292 282
3 292 322 282
3 322 505 282
3 287 297 283
3 283 415 288
3 297 415 283
3 284 438 285
3 284 421 420
3 420 438 284
3 285 295 294
3 285 296 295
3 285 438 296
3 303 335 286
3 335 393 286
3 286 393 390
3 287 348 297
3 287 349 348
3 287 428 349
3 288 327 326
3 288 352 327
3 288 415 352
3 289 440 292
3 299 300 289
3 300 440 289
3 293 458 290
3 290 474 423
3 458 474 290
3 291 340 302
3 291 384 340
3 291 409 384
3 292 323 322
3 292 328 323
3 292 440 328
3 443 510 293
3 293 512 443
3 293 510 458
3 295 354 294
3 354 357 294
3 357 460 294
3 296 324 295
3 324 424 295
3 295 424 354
3 296 325 324
3 296 339 325
3 296 438 339
3 348 350 297
3 350 351 297
3 351 415 297
3 309 355 298
3 298 431 310
3 355 431 298
3 299 301 300
3 299 450 301
3 411 450 299
3 301 311 300
3 311 329 300
3 329 440 300
3 301 312 311
3 301 313 312
3 301 450 313
3 340 346 302
3 346 347 302
3 347 414 302
3 304 321 303
3 321 407 303
3 303 407 335
3 304 358 321
3 304 490 358
3 422 490 304
3 390 393 305
3 305 392 391
3 305 393 392
3 408 419 306
3 306 420 408
3 306 453 420
3 384 409 307
3 307 448 384
3 401 448 307
3 308 474 318
3 308 465 449
3 449 474 308
3 309 480 355
3 309 456 454
3 454 480 309
3 310 430 404
3 310 444 430
3 431 444 310
3 312 344 311
3 311 507 329
3 344 507 311
3 313 314 312
3 314 434 312
3 312 434 344
3 313 315 314
3 313 380 315
3 313 450 380
3 315 316 314
3 316 317 314
3 317 434 314
3 315 319 316
3 315 320 319
3 315 380 320
3 316 436 317
3 319 336 316
3 336 436 316
3 372 434 317
3 317 435 372
3 317 436 435
3 318 474 458
3 458 481 318
3 481 514 318
3 320 377 319
3 319 337 336
3 319 377 337
3 320 433 377
3 320 380 378
3 378 433 320
3 358 475 321
3 321 470 407
3 321 475 470
3 323 333 322
3 333 492 322
3 322 492 359
3 359 505 322
3 328 504 323
3 323 334 333
3 323 504 334
3 325 360 324
3 360 361 324
3 361 424 324
3 339 427 325
3 325 385 360
3 325 427 385
3 327 427 326
3 326 426 425
3 326 427 426
3 352 353 327
3 353 385 327
3 385 427 327
3 387 389 328
3 328 500 387
3 389 504 328
3 440 500 328
3 374 388 329
3 329 507 374
3 388 500 329
3 329 500 440
3 331 356 330
3 356 479 330
3 330 479 359
3 331 443 356
3 439 441 331
3 441 443 331
3 332 342 341
3 332 487 342
3 414 487 332
3 334 490 333
3 490 492 333
3 334 478 358
3 358 490 334
3 334 482 478
3 334 504 482
3 335 416 393
3 407 457 335
3 335 457 416
3 337 338 336
3 338 493 336
3 336 493 436
3 337 362 338
3 337 375 362
3 337 377 375
3 362 363 338
3 363 473 338
3 473 493 338
3 426 427 339
3 339 453 426
3 438 453 339
3 340 364 346
3 340 383 364
3 340 384 383
3 342 454 341
3 341 456 412
3 454 456 341
3 342 455 454
3 342 516 455
3 487 516 342
3 343 408 396
3 343 419 408
3 417 419 343
3 344 496 373
3 373 507 344
3 434 496 344
3 345 433 378
3 345 464 433
3 463 464 345
3 346 498 347
3 364 365 346
3 365 498 346
3 347 432 414
3 347 468 432
3 347 498 468
3 349 461 348
3 348 486 350
3 461 486 348
3 428 446 349
3 446 447 349
3 447 461 349
3 350 488 351
3 350 486 467
3 467 488 350
3 406 485 351
3 351 488 406
3 351 485 415
3 352 513 353
3 415 485 352
3 485 513 352
3 353 497 385
3 353 403 402
3 402 497 353
3 353 513 403
3 354 472 357
3 424 508 354
3 354 508 472
3 355 495 431
3 469 495 355
3 443 512 356
3 357 481 460
3 472 514 357
3 357 514 481
3 358 478 475
3 479 505 359
3 360 499 361
3 385 497 360
3 361 476 424
3 361 499 476
3 362 375 366
3 364 367 365
3 368 373 369
3 369 372 370
3 369 496 372
3 373 496 369
3 371 381 370
3 370 491 371
3 372 491 370
3 371 503 381
3 372 496 434
3 435 491 372
3 374 507 373
3 382 388 374
3 375 377 376
3 377 433 376
3 433 464 376
3 464 471 376
3 378 380 379
3 380 450 379
3 379 411 410
3 379 450 411
3 384 448 383
3 383 448 405
3 386 389 387
3 387 500 388
3 482 504 389
3 392 452 391
3 393 416 392
3 416 451 392
3 451 452 392
3 478 482 394
3 470 475 395
3 408 421 396
3 397 459 398
3 398 457 407
3 407 470 398
3 398 459 457
3 449 465 399
3 420 421 408
3 412 418 413
3 412 456 418
3 432 487 414
3 420 453 438
3 422 492 490
3 423 474 449
3 476 508 424
3 429 446 428
3 430 444 429
3 444 445 429
3 445 446 429
3 431 489 444
3 431 495 489
3 468 515 432
3 436 437 435
3 436 493 437
3 442 443 441
3 442 510 443
3 460 481 442
3 481 510 442
3 444 489 445
3 445 489 462
3 447 494 461
3 447 511 494
3 455 480 454
3 477 502 455
3 455 516 477
3 458 510 481
3 467 486 466
3 50 519 3
3 3 519 56
3 51 517 50
3 517 519 50
3 52 520 51
3 51 520 517
3 53 520 52
3 54 520 53
3 55 518 54
3 518 520 54
3 56 519 55
3 55 519 518
3 518 519 517
3 517 520 518
4 510 545 533 552
4 527 528 181 532
4 314 315 313 525
4 399 539 523 555
4 399 71 537 539
4 399 537 523 539
4 312 314 313 525
4 399 523 537 555
4 518 520 517 531
4 180 527 181 532
4 314 525 312 526
4 75 525 471 526
4 533 545 522 552
4 518 517 519 531
4 520 518 195 531
4 314 315 525 526
4 71 202 537 539
4 407 527 541 547
4 407 541 534 547
4 312 525 344 526
4 377 376 433 525
4 471 525 376 526
4 377 376 525 526
4 320 377 525 526
4 320 377 433 525
4 523 537 202 539
4 180 181 528 532
4 181 528 527 535
4 195 518 473 531
4 510 533 442 552
4 320 525 315 526
4 196 75 471 526
4 411 524 410 542
4 411 540 524 542
4 510 536 545 552
4 442 533 529 552
4 475 534 530 553
4 399 71 70 537
4 196 471 376 526
4 521 528 527 532
4 379 262 410 524
4 379 410 411 524
4 73 201 72 524
4 189 525 75 526
4 213 73 72 524
4 213 250 524 539
4 523 540 538 560
4 250 524 260 548
4 443 510 442 552
4 202 537 523 557
4 213 524 250 548
4 262 524 379 548
4 260 524 250 542
4 70 71 202 537
4 434 312 344 526
4 523 539 202 557
4 201 72 524 539
4 379 524 411 546
4 30 528 295 532
4 289 299 540 546
4 527 528 521 535
4 524 546 379 548
4 475 530 203 553
4 201 524 73 549
4 407 335 527 547
4 470 530 534 541
4 530 203 553 554
4 72 213 524 539
4 369 526 197 531
4 250 524 539 542
4 285 295 30 528
4 28 253 528 535
4 410 524 262 542
4 397 1 541 559
4 322 292 540 557
4 213 73 524 548
4 76 197 526 531
4 262 524 260 542
4 181 535 527 556
4 375 362 366 526
4 252 535 529 543
4 344 525 373 526
4 209 517 520 531
4 443 442 529 552
4 251 535 252 543
4 375 337 362 526
4 28 248 253 535
4 189 373 525 526
4 251 252 439 543
4 362 526 337 531
4 366 526 362 531
4 27 248 28 556
4 76 526 366 531
4 252 529 439 543
4 260 524 262 548
4 434 314 312 526
4 289 300 540 558
4 407 534 303 547
4 1 65 397 541
4 546 549 524 558
4 523 557 540 558
4 231 530 472 533
4 524 548 73 549
4 530 533 231 554
4 470 204 530 541
4 316 526 317 531
4 300 549 546 558
4 407 303 335 547
4 289 300 299 546
4 315 320 380 525
4 443 442 441 529
4 395 470 204 530
4 248 535 28 556
4 472 533 530 550
4 510 293 536 552
4 75 74 471 525
4 315 380 313 525
4 182 180 181 528
4 295 532 528 544
4 441 529 442 543
4 214 472 231 530
4 407 470 534 541
4 252 529 535 547
4 503 517 371 531
4 369 372 526 531
4 470 530 475 534
4 463 213 250 548
4 389 557 539 558
4 473 518 363 531
4 529 533 442 543
4 257 547 534 551
4 257 529 547 551
4 76 77 197 531
4 523 539 557 558
4 258 542 539 555
4 214 472 530 550
4 285 30 29 528
4 534 547 529 551
4 369 197 370 531
4 328 292 323 557
4 518 519 501 531
4 181 28 528 535
4 407 541 527 559
4 463 250 260 548
4 530 534 522 553
4 399 258 539 555
4 533 545 231 554
4 1 532 65 541
4 380 525 378 546
4 443 529 441 552
4 532 541 1 559
4 76 366 77 531
4 517 209 371 531
4 252 257 529 547
4 378 546 525 548
4 510 458 481 545
4 28 253 421 528
4 180 528 182 532
4 181 180 183 527
4 189 75 368 526
4 437 520 195 531
4 389 202 539 557
4 250 539 258 542
4 181 28 535 556
4 312 525 313 546
4 464 376 471 525
4 201 539 524 558
4 471 74 185 525
4 534 551 522 553
4 396 253 28 248
4 317 526 372 531
4 510 481 533 545
4 378 379 546 548
4 363 518 501 531
4 522 545 536 552
4 464 433 376 525
4 312 313 301 546
4 269 534 257 547
4 253 528 535 543
4 263 555 536 560
4 475 358 534 553
4 335 407 527 559
4 534 541 521 547
4 30 295 324 532
4 74 185 525 548
4 322 323 292 557
4 75 189 74 525
4 510 443 293 552
4 320 315 319 526
4 471 525 185 548
4 250 199 258 539
4 389 328 557 558
4 336 337 526 531
4 311 344 312 525
4 289 440 300 558
4 336 526 316 531
4 496 434 344 526
4 436 316 317 531
4 74 548 525 549
4 253 255 528 543
4 295 528 285 544
4 479 536 538 560
4 369 370 372 531
4 378 380 320 525
4 433 378 320 525
4 263 536 270 560
4 284 285 29 528
4 67 530 204 550
4 201 524 549 558
4 530 541 204 550
4 300 329 549 558
4 199 399 258 539
4 421 284 29 528
4 522 530 529 534
4 470 475 321 534
4 470 395 475 530
4 263 542 555 560
4 510 536 458 545
4 320 319 377 526
4 65 532 66 541
4 529 530 521 534
4 189 368 373 526
4 527 521 541 547
4 311 525 312 546
4 464 525 471 548
4 510 293 458 536
4 379 380 378 546
4 67 395 204 530
4 186 1 397 559
4 74 185 548 549
4 257 534 269 551
4 527 541 532 559
4 421 253 255 528
4 25 416 393 527
4 180 532 1 559
4 299 411 281 540
4 214 530 231 554
4 433 378 525 548
4 521 530 529 533
4 65 66 397 541
4 311 507 344 525
4 496 344 373 526
4 344 507 373 525
4 313 525 380 546
4 209 520 437 531
4 521 532 527 541
4 311 312 301 546
4 378 262 379 548
4 356 538 536 552
4 529 530 522 533
4 529 533 522 552
4 514 231 533 545
4 521 534 530 541
4 186 24 1 559
4 181 27 28 556
4 74 73 185 549
4 261 262 260 542
4 282 322 292 540
4 464 471 185 548
4 30 324 31 532
4 479 538 505 560
4 335 457 407 559
4 261 410 262 542
4 213 199 250 539
4 433 525 464 548
4 263 542 259 555
4 525 546 311 549
4 507 525 311 549
4 73 548 185 549
4 522 534 529 551
4 259 542 258 555
4 529 521 535 547
4 294 285 528 544
4 252 256 257 547
4 522 530 553 554
4 74 525 189 549
4 539 542 523 555
4 479 278 536 560
4 29 28 421 528
4 277 294 285 528
4 366 76 196 526
4 263 290 536 555
4 203 475 395 530
4 479 536 356 538
4 253 535 254 543
4 366 196 375 526
4 336 316 436 531
4 295 424 324 532
4 78 501 519 531
4 263 259 423 555
4 470 321 407 534
4 375 376 377 526
4 375 196 376 526
4 279 540 542 560
4 263 290 270 536
4 337 319 336 526
4 393 25 392 416
4 300 440 329 558
4 259 250 258 542
4 504 389 328 557
4 475 358 321 534
4 479 538 356 552
4 529 535 521 543
4 76 75 196 526
4 253 254 255 543
4 537 545 465 555
4 26 25 393 527
4 514 533 318 545
4 1 65 186 397
4 253 251 254 535
4 528 543 277 544
4 30 182 528 532
4 231 472 514 533
4 442 533 460 543
4 277 543 460 544
4 512 536 293 552
4 252 535 249 547
4 435 317 372 531
4 358 551 534 553
4 304 534 358 551
4 389 202 386 539
4 449 465 545 555
4 294 528 277 544
4 266 551 538 552
4 421 255 284 528
4 373 507 374 525
4 522 545 533 554
4 330 266 359 552
4 285 29 30 438
4 279 281 411 540
4 31 361 476 532
4 65 476 66 532
4 280 505 282 560
4 441 529 331 552
4 294 295 285 544
4 213 185 73 548
4 266 538 359 552
4 416 527 25 559
4 318 533 481 545
4 399 537 465 555
4 337 375 377 526
4 368 76 197 526
4 522 533 530 554
4 523 555 542 560
4 30 285 296 295
4 398 541 407 559
4 373 374 189 525
4 397 459 186 559
4 252 249 256 547
4 335 527 416 559
4 373 369 496 526
4 503 381 78 531
4 390 393 286 527
4 286 390 527 547
4 382 74 189 549
4 337 377 319 526
4 183 180 1 559
4 368 197 369 526
4 472 544 533 550
4 514 318 231 545
4 251 254 535 543
4 199 71 399 539
4 460 543 533 544
4 285 284 29 438
4 314 434 317 526
4 276 442 460 543
4 319 316 336 526
4 314 316 315 526
4 443 512 293 552
4 390 547 535 556
4 390 535 249 556
4 249 535 390 547
4 257 265 252 529
4 308 449 465 545
4 465 545 537 554
4 203 69 394 554
4 203 395 68 530
4 458 318 481 545
4 68 203 530 554
4 257 265 529 551
4 371 381 503 531
4 277 528 255 543
4 66 541 532 550
4 356 479 278 536
4 31 324 424 532
4 76 368 75 526
4 482 394 202 537
4 523 538 536 560
4 399 70 465 537
4 475 203 478 553
4 510 481 442 533
4 251 439 254 543
4 482 537 202 557
4 536 555 523 560
4 319 315 316 526
4 186 459 24 559
4 424 532 295 544
4 434 372 317 526
4 203 394 478 553
4 201 549 388 558
4 529 534 521 547
4 253 28 421 396
4 189 525 374 549
4 492 538 266 551
4 335 416 457 559
4 441 439 529 543
4 338 362 337 531
4 479 505 280 560
4 496 369 372 526
4 26 25 392 393
4 523 540 539 558
4 289 299 281 540
4 66 67 204 550
4 507 374 525 549
4 496 372 434 526
4 66 532 476 550
4 390 527 547 556
4 493 195 473 531
4 386 539 201 558
4 530 521 541 550
4 259 258 423 555
4 324 361 31 424
4 69 537 394 554
4 335 393 416 527
4 443 441 331 552
4 356 278 512 536
4 504 328 323 557
4 390 393 527 556
4 357 533 472 544
4 66 204 541 550
4 286 527 335 547
4 286 335 303 547
4 457 398 407 559
4 433 345 378 548
4 407 398 470 541
4 314 317 316 526
4 450 313 380 546
4 269 257 256 547
4 338 337 336 531
4 260 250 259 542
4 187 214 231 554
4 72 199 213 539
4 373 368 369 526
4 492 538 551 553
4 474 536 290 555
4 435 436 317 531
4 290 458 536 545
4 393 335 286 527
4 493 437 195 531
4 476 65 499 532
4 389 539 386 558
4 276 460 277 543
4 523 537 536 538
4 277 285 284 528
4 31 424 361 532
4 394 537 482 553
4 529 551 265 552
4 202 71 386 539
4 24 183 1 559
4 450 380 379 546
4 30 182 29 528
4 393 26 527 556
4 536 537 522 538
4 508 532 424 544
4 290 536 474 545
4 308 545 465 554
4 68 530 214 554
4 303 407 321 534
4 501 78 210 531
4 474 545 536 555
4 265 551 266 552
4 252 251 249 535
4 304 321 358 534
4 247 248 27 556
4 276 441 442 543
4 269 534 304 551
4 387 386 201 558
4 357 514 472 533
4 74 382 73 549
4 107 111 151 238
4 491 371 209 531
4 482 553 537 557
4 290 474 458 545
4 252 265 439 529
4 308 231 545 554
4 263 423 290 555
4 492 551 490 553
4 438 30 285 296
4 85 401 139 145
4 439 331 441 529
4 266 492 359 538
4 197 77 381 531
4 476 532 508 550
4 354 424 295 544
4 27 305 247 556
4 257 266 265 551
4 214 530 67 550
4 476 361 31 499
4 308 187 231 554
4 500 549 329 558
4 378 345 262 548
4 280 282 540 560
4 450 379 411 546
4 247 305 27 245
4 508 532 544 550
4 528 532 521 544
4 251 253 248 535
4 1 499 65 532
4 435 491 209 531
4 96 291 95 94
4 182 181 28 528
4 293 290 458 536
4 62 9 10 85
4 294 277 460 544
4 304 358 490 551
4 147 98 224 97
4 435 209 437 531
4 440 500 329 558
4 284 255 277 528
4 260 262 345 548
4 61 8 9 139
4 508 424 354 544
4 372 491 435 531
4 27 247 246 248
4 476 499 31 532
4 256 249 390 547
4 333 322 538 557
4 152 151 111 238
4 111 425 110 117
4 201 386 72 539
4 366 210 77 531
4 200 66 476 550
4 481 318 514 533
4 10 11 63 136
4 507 311 329 549
4 521 533 529 543
4 68 67 214 530
4 102 235 104 103
4 361 424 476 532
4 500 388 549 558
4 96 291 409 95
4 399 465 449 555
4 249 535 248 556
4 85 62 9 190
4 241 224 98 97
4 111 240 152 238
4 119 122 121 287
4 139 401 448 145
4 528 521 535 543
4 276 277 255 543
4 264 542 263 560
4 418 232 103 101
4 422 269 304 551
4 521 527 535 547
4 441 254 439 543
4 182 28 29 528
4 234 98 101 412
4 366 362 210 531
4 530 533 521 550
4 70 202 394 537
4 264 263 270 560
4 522 537 536 545
4 63 11 215 136
4 107 109 273 106
4 400 62 10 85
4 10 9 62 84
4 98 101 147 234
4 491 381 371 531
4 413 108 147 227
4 295 296 30 324
4 95 291 384 94
4 278 270 536 560
4 236 104 235 103
4 395 67 68 530
4 219 416 25 559
4 224 98 147 234
4 61 8 139 405
4 372 370 491 531
4 389 386 387 558
4 422 257 269 551
4 235 104 267 102
4 536 537 523 555
4 476 508 200 550
4 333 323 322 557
4 106 144 430 113
4 433 464 345 548
4 103 102 418 101
4 151 107 238 404
4 106 243 107 404
4 9 61 139 190
4 110 244 425 111
4 265 331 439 529
4 104 105 106 310
4 77 78 381 531
4 303 534 269 547
4 97 222 146 145
4 108 233 115 229
4 474 449 545 555
4 431 105 113 114
4 425 275 110 117
4 109 273 244 107
4 201 388 387 558
4 10 62 402 84
4 473 338 493 531
4 97 409 222 145
4 469 207 184 157
4 110 109 244 107
4 77 210 78 531
4 310 106 104 404
4 536 545 537 555
4 243 244 107 111
4 492 333 538 553
4 473 363 338 531
4 31 499 1 532
4 187 308 465 554
4 358 490 551 553
4 181 527 26 556
4 524 540 539 542
4 284 29 420 421
4 271 99 100 341
4 465 537 69 554
4 187 68 214 554
4 227 108 147 130
4 357 460 533 544
4 107 151 104 404
4 418 232 235 103
4 234 101 147 413
4 213 463 185 548
4 267 236 104 235
4 356 536 512 552
4 98 224 241 234
4 164 152 419 237
4 147 225 413 227
4 101 234 412 413
4 384 409 291 95
4 102 418 235 103
4 85 400 62 190
4 147 224 225 146
4 145 97 409 95
4 370 381 491 531
4 100 102 418 456
4 80 448 383 95
4 444 430 144 113
4 310 105 113 431
4 145 409 307 95
4 448 80 139 95
4 99 272 241 96
4 241 98 99 96
4 539 540 523 542
4 236 115 151 103
4 118 110 274 283
4 382 189 374 549
4 400 10 63 136
4 5 4 57 483
4 109 274 119 118
4 528 521 543 544
4 180 182 31 532
4 482 202 389 557
4 478 394 482 553
4 106 430 243 404
4 190 61 139 405
4 470 398 204 541
4 261 260 259 542
4 219 24 138 216
4 197 381 370 531
4 219 218 25 451
4 237 115 151 236
4 207 18 184 157
4 419 408 175 79
4 138 218 219 216
4 227 147 225 130
4 139 401 85 190
4 228 227 226 130
4 281 280 282 540
4 97 96 409 95
4 331 529 265 552
4 134 340 291 94
4 348 121 122 287
4 215 11 64 171
4 238 107 243 404
4 442 481 460 533
4 267 105 104 310
4 451 138 88 221
4 508 544 472 550
4 537 538 523 557
4 244 243 240 111
4 454 143 112 456
4 98 99 100 271
4 425 275 244 110
4 232 233 103 108
4 103 233 115 108
4 310 106 430 113
4 144 430 273 106
4 233 115 236 103
4 393 305 26 556
4 410 261 264 542
4 215 400 63 136
4 308 474 449 545
4 512 278 270 536
4 511 83 174 154
4 536 538 522 552
4 492 490 333 553
4 299 450 411 546
4 85 137 136 401
4 4 5 141 483
4 99 98 241 271
4 130 147 225 146
4 476 424 508 532
4 100 98 271 412
4 27 26 305 556
4 479 356 330 552
4 145 448 139 95
4 223 225 224 146
4 533 543 521 544
4 148 365 364 87
4 218 25 138 219
4 272 116 414 134
4 145 307 448 95
4 218 138 25 451
4 134 302 340 148
4 100 143 102 456
4 232 233 108 229
4 428 274 119 109
4 273 109 144 106
4 160 117 288 326
4 307 401 220 145
4 479 359 505 538
4 240 239 242 152
4 220 218 138 217
4 109 244 274 110
4 225 223 130 146
4 340 134 148 94
4 87 5 161 212
4 30 31 182 532
4 26 27 305 245
4 138 218 220 221
4 131 27 245 230
4 152 240 239 238
4 228 227 130 129
4 275 274 110 283
4 397 541 398 559
4 450 301 313 546
4 201 73 382 549
4 95 383 80 94
4 332 112 99 341
4 501 210 363 531
4 25 24 138 219
4 226 228 130 179
4 401 137 220 145
4 104 106 107 404
4 151 152 237 238
4 220 138 137 217
4 281 280 540 560
4 539 540 524 558
4 443 356 512 552
4 125 242 453 127
4 99 112 100 341
4 251 248 249 535
4 444 430 429 144
4 118 132 110 283
4 538 551 522 552
4 220 222 307 145
4 403 62 9 84
4 219 457 416 559
4 217 136 137 401
4 310 104 267 404
4 222 146 224 97
4 137 138 220 221
4 125 111 240 152
4 249 248 247 556
4 122 119 349 287
4 95 384 383 94
4 70 69 465 537
4 118 274 119 287
4 417 115 233 229
4 437 436 435 531
4 105 431 298 114
4 291 96 134 94
4 419 152 239 237
4 268 267 105 102
4 216 171 138 217
4 222 220 137 145
4 268 102 143 456
4 100 271 341 412
4 160 140 84 513
4 161 5 4 212
4 88 392 25 451
4 408 419 343 79
4 151 236 104 404
4 359 322 505 538
4 310 430 444 113
4 307 448 401 145
4 102 268 418 456
4 118 121 297 287
4 243 244 273 107
4 261 263 264 542
4 533 544 521 550
4 122 167 142 461
4 232 103 101 108
4 423 474 290 555
4 288 160 326 327
4 304 269 303 534
4 139 448 401 190
4 99 271 332 341
4 364 383 94 93
4 261 259 263 542
4 136 137 138 217
4 121 118 119 287
4 132 275 110 283
4 291 302 340 134
4 237 115 236 233
4 522 538 537 553
4 179 228 130 129
4 330 265 266 552
4 94 383 80 93
4 139 80 448 405
4 239 242 152 127
4 241 272 99 271
4 26 181 183 527
4 136 400 85 401
4 105 268 102 143
4 66 204 397 541
4 188 64 11 170
4 353 160 84 513
4 307 222 409 145
4 125 240 242 152
4 401 85 137 145
4 98 100 101 412
4 242 306 453 127
4 244 110 107 111
4 24 219 25 559
4 363 362 338 531
4 437 493 436 531
4 390 305 393 556
4 96 99 272 134
4 116 112 99 332
4 286 303 269 547
4 492 422 490 551
4 419 175 127 79
4 384 307 409 95
4 151 152 115 237
4 431 310 105 298
4 273 244 274 109
4 26 183 25 527
4 402 62 403 84
4 273 429 430 144
4 426 242 453 125
4 451 88 452 221
4 148 162 365 87
4 272 116 99 332
4 96 409 241 97
4 99 116 272 134
4 246 245 27 230
4 102 418 101 100
4 363 210 362 531
4 164 79 129 417
4 309 150 114 169
4 87 6 5 367
4 165 88 138 221
4 281 540 279 560
4 96 272 291 134
4 535 547 527 556
4 57 4 5 212
4 116 124 112 332
4 453 420 29 175
4 10 63 11 158
4 129 108 115 229
4 94 148 364 93
4 188 11 63 158
4 508 354 472 544
4 212 87 5 367
4 417 129 115 229
4 409 222 224 97
4 112 150 143 454
4 414 302 272 134
4 237 152 239 238
4 384 383 448 95
4 461 142 122 486
4 186 215 171 216
4 138 218 216 217
4 105 298 268 143
4 63 10 402 158
4 143 100 112 456
4 246 27 79 230
4 171 24 186 216
4 177 497 158 385
4 146 165 137 222
4 226 223 452 179
4 87 161 365 212
4 29 28 420 421
4 500 388 329 549
4 384 291 340 94
4 236 151 238 404
4 57 58 5 483
4 27 131 79 230
4 309 143 454 456
4 270 290 293 536
4 341 112 100 456
4 147 101 108 413
4 318 308 231 545
4 82 178 480 169
4 41 207 184 469
4 351 81 163 485
4 241 98 96 97
4 260 345 463 548
4 100 418 101 412
4 357 472 354 544
4 222 165 137 221
4 152 127 164 419
4 142 167 91 461
4 428 273 109 144
4 348 297 121 287
4 292 328 440 558
4 183 25 527 559
4 466 159 91 486
4 179 223 452 165
4 346 365 364 148
4 459 397 398 559
4 384 448 307 95
4 150 309 480 169
4 343 396 28 246
4 532 541 521 550
4 538 553 333 557
4 274 109 110 118
4 104 105 267 102
4 193 61 8 140
4 304 303 321 534
4 479 280 278 560
4 79 164 419 417
4 339 426 89 427
4 342 112 332 341
4 70 394 69 537
4 108 101 232 413
4 522 551 538 553
4 205 6 93 367
4 223 165 146 222
4 546 548 524 549
4 217 137 220 401
4 161 92 365 484
4 163 133 81 351
4 383 80 93 205
4 79 129 417 230
4 497 170 158 128
4 104 236 151 103
4 132 117 275 288
4 498 347 153 162
4 358 475 478 553
4 152 164 115 237
4 115 164 129 417
4 18 41 207 184
4 137 146 222 145
4 9 8 61 140
4 122 348 461 486
4 139 85 9 190
4 80 383 448 405
4 332 124 112 342
4 481 357 460 533
4 119 274 428 287
4 163 118 297 283
4 121 168 351 350
4 139 8 80 405
4 302 346 340 148
4 357 294 460 544
4 400 136 217 401
4 525 548 546 549
4 146 147 224 97
4 306 420 453 175
4 219 24 459 559
4 522 553 537 554
4 29 420 453 438
4 234 271 98 412
4 127 152 239 419
4 124 178 150 454
4 430 106 310 404
4 128 158 497 385
4 348 122 349 287
4 341 454 112 456
4 336 436 493 531
4 364 340 148 94
4 393 392 26 305
4 121 168 133 351
4 242 239 306 127
4 240 425 111 125
4 214 67 200 550
4 487 90 166 516
4 11 1 64 171
4 232 233 235 103
4 214 200 472 550
4 122 142 168 350
4 117 125 425 326
4 489 113 120 431
4 187 465 69 554
4 150 309 143 454
4 223 226 130 179
4 481 514 357 533
4 1 180 31 532
4 171 215 11 136
4 123 428 349 119
4 66 200 67 550
4 63 402 188 158
4 58 5 6 367
4 30 339 89 325
4 310 105 106 113
4 267 268 235 102
4 487 166 124 516
4 537 545 522 554
4 149 444 429 144
4 88 452 392 451
4 30 31 324 325
4 172 161 4 212
4 516 194 155 477
4 128 177 158 385
4 487 194 90 516
4 276 255 254 543
4 288 117 275 326
4 492 266 422 551
4 204 398 397 541
4 258 399 449 555
4 291 409 241 96
4 175 453 306 127
4 68 69 203 554
4 518 55 473 363
4 80 8 60 405
4 311 301 300 546
4 391 452 392 88
4 144 149 444 113
4 422 304 490 551
4 223 165 222 221
4 138 88 25 451
4 349 123 119 122
4 461 91 142 486
4 113 489 444 431
4 179 130 223 165
4 140 81 193 485
4 291 241 272 96
4 136 400 10 85
4 340 364 383 94
4 119 123 428 144
4 137 220 222 221
4 412 100 418 456
4 438 339 30 296
4 419 343 79 417
4 453 89 125 127
4 171 136 138 217
4 135 414 116 134
4 93 7 6 205
4 489 444 149 113
4 164 115 237 417
4 151 237 236 238
4 109 119 428 144
4 118 297 283 287
4 342 124 112 454
4 131 228 129 230
4 532 521 544 550
4 138 137 165 221
4 257 422 266 551
4 143 298 309 114
4 83 192 511 174
4 84 158 177 353
4 158 84 402 353
4 500 387 388 558
4 81 140 176 485
4 1 11 64 170
4 332 272 116 414
4 340 383 384 94
4 125 426 425 326
4 105 298 143 114
4 72 71 199 539
4 79 343 246 230
4 365 346 162 148
4 451 218 138 221
4 113 149 489 120
4 425 240 242 125
4 7 6 406 133
4 89 426 453 125
4 282 292 289 540
4 129 417 230 229
4 178 480 150 454
4 240 425 244 111
4 128 30 89 325
4 351 168 133 488
4 492 333 322 538
4 87 364 148 93
4 302 414 135 134
4 126 89 426 427
4 88 165 452 221
4 191 469 184 157
4 336 493 338 531
4 63 11 64 215
4 163 132 118 283
4 117 160 126 326
4 298 267 105 268
4 227 232 108 229
4 281 279 280 560
4 8 60 193 81
4 405 60 80 205
4 150 112 124 454
4 418 232 101 413
4 163 118 121 297
4 124 116 487 332
4 495 156 207 157
4 447 511 174 154
4 420 28 408 421
4 271 98 241 234
4 286 256 390 547
4 160 117 132 288
4 159 142 91 486
4 140 160 176 513
4 416 25 392 451
4 274 428 273 109
4 297 121 163 351
4 225 224 147 234
4 237 419 164 417
4 84 402 10 158
4 297 415 163 283
4 271 272 99 332
4 537 553 538 557
4 235 233 236 103
4 6 87 93 367
4 273 428 429 144
4 420 29 284 438
4 27 247 245 246
4 275 110 117 132
4 347 432 153 135
4 112 342 454 341
4 132 163 415 283
4 272 302 291 134
4 129 227 108 229
4 5 58 212 367
4 509 57 4 483
4 413 232 108 227
4 504 482 389 557
4 412 341 100 456
4 389 387 328 558
4 147 225 234 413
4 31 30 128 325
4 268 298 309 143
4 5 58 57 212
4 412 418 101 413
4 24 171 138 216
4 441 276 254 543
4 155 90 194 516
4 91 198 466 486
4 192 445 174 149
4 403 9 61 140
4 192 445 446 174
4 130 227 108 129
4 233 237 115 417
4 60 7 8 80
4 5 86 141 483
4 522 551 529 552
4 346 302 135 148
4 150 143 309 114
4 491 370 371 381
4 201 382 388 549
4 10 62 63 402
4 425 275 117 326
4 120 156 495 157
4 386 71 72 539
4 445 444 429 149
4 235 268 418 102
4 224 241 409 97
4 438 453 29 89
4 63 64 11 188
4 174 83 192 149
4 61 9 62 190
4 93 80 7 205
4 294 354 295 544
4 157 495 120 169
4 24 219 459 216
4 127 164 419 79
4 492 322 359 538
4 191 184 17 157
4 134 135 302 148
4 270 293 512 536
4 28 29 420 175
4 402 497 158 353
4 488 351 168 350
4 114 355 309 169
4 186 1 24 171
4 326 160 126 327
4 177 158 497 353
4 157 191 469 169
4 55 518 501 363
4 228 226 391 179
4 296 339 30 325
4 216 215 171 217
4 480 178 82 455
4 245 228 131 230
4 30 339 438 89
4 131 228 391 179
4 129 79 131 230
4 275 274 244 110
4 282 289 281 540
4 22 159 91 466
4 438 29 30 89
4 513 140 193 485
4 507 329 374 549
4 60 8 7 81
4 60 7 80 205
4 274 118 283 287
4 89 453 29 175
4 242 125 152 127
4 104 236 267 404
4 228 227 129 229
4 459 186 24 216
4 4 172 212 506
4 247 390 249 556
4 225 223 226 130
4 86 168 467 488
4 193 403 61 140
4 487 124 332 342
4 10 63 62 400
4 385 126 177 327
4 365 87 212 367
4 206 498 468 153
4 140 403 84 513
4 446 428 123 144
4 91 167 154 494
4 81 193 8 140
4 162 92 365 161
4 324 296 30 325
4 179 452 391 88
4 391 392 26 88
4 93 87 364 367
4 11 188 170 158
4 224 223 146 222
4 135 153 347 162
4 90 155 124 516
4 351 297 121 350
4 90 124 166 516
4 400 85 401 190
4 190 139 448 405
4 513 176 140 485
4 25 26 392 88
4 230 228 129 229
4 80 383 405 205
4 185 463 464 548
4 355 480 309 169
4 211 173 23 159
4 416 219 25 451
4 347 468 498 153
4 127 239 306 419
4 391 226 452 179
4 288 132 415 283
4 301 299 300 546
4 153 432 166 135
4 364 383 93 205
4 175 420 28 408
4 136 215 400 217
4 136 171 215 217
4 385 427 126 327
4 489 149 462 156
4 445 446 174 149
4 352 160 353 513
4 325 427 128 385
4 352 176 160 513
4 60 406 193 81
4 353 84 403 513
4 523 542 540 560
4 149 429 446 144
4 126 128 89 427
4 143 309 268 456
4 297 163 415 351
4 288 275 132 283
4 165 130 223 146
4 119 428 349 287
4 417 343 79 230
4 156 489 149 120
4 133 163 121 351
4 226 227 225 130
4 423 449 474 555
4 330 331 265 552
4 7 6 59 406
4 286 269 256 547
4 351 406 81 485
4 427 126 128 385
4 175 89 453 127
4 198 22 91 466
4 131 26 391 245
4 92 206 365 484
4 192 447 511 174
4 391 131 179 88
4 461 198 91 486
4 15 155 194 477
4 86 5 208 483
4 131 391 228 245
4 87 365 364 367
4 82 480 191 169
4 406 81 133 351
4 177 128 126 385
4 62 9 61 403
4 508 472 200 550
4 288 132 160 352
4 176 132 415 352
4 149 462 445 489
4 208 5 58 483
4 406 60 7 81
4 113 444 310 431
4 332 116 487 414
4 428 446 429 144
4 121 297 348 350
4 174 123 447 167
4 349 167 122 461
4 446 123 149 144
4 469 495 207 157
4 348 349 122 461
4 28 408 343 79
4 6 5 58 208
4 165 223 452 221
4 86 168 142 467
4 288 415 132 352
4 48 211 159 466
4 6 208 406 133
4 132 176 160 352
4 212 161 365 484
4 168 467 488 350
4 179 131 228 129
4 211 141 159 467
4 425 111 125 117
4 92 365 206 162
4 27 26 131 245
4 117 126 125 326
4 408 28 175 79
4 305 391 26 245
4 219 459 457 559
4 426 125 126 326
4 4 0 509 173
4 4 0 57 509
4 57 0 4 506
4 497 170 128 360
4 438 339 453 89
4 517 209 51 371
4 469 184 40 191
4 334 553 482 557
4 157 82 191 169
4 198 47 22 466
4 423 258 449 555
4 302 347 346 135
4 123 349 167 122
4 306 420 175 408
4 498 206 365 162
4 346 364 340 148
4 211 23 48 159
4 446 445 429 149
4 301 450 299 546
4 327 160 177 353
4 84 9 403 140
4 17 40 184 191
4 427 426 126 326
4 467 159 211 466
4 208 6 86 133
4 318 458 474 545
4 212 57 4 506
4 464 463 345 548
4 92 161 172 484
4 113 120 431 114
4 149 445 444 489
4 13 206 153 92
4 173 141 211 483
4 91 154 21 494
4 267 105 310 298
4 205 93 364 367
4 172 4 0 506
4 467 168 142 350
4 305 390 247 556
4 5 6 86 208
4 211 509 173 483
4 131 391 26 88
4 178 480 454 455
4 68 187 69 554
4 349 447 123 167
4 385 177 497 353
4 177 385 327 353
4 161 365 162 87
4 212 172 161 484
4 191 355 469 169
4 211 141 173 159
4 402 497 188 158
4 396 28 408 343
4 155 82 178 455
4 194 37 15 477
4 84 177 160 353
4 149 83 462 156
4 353 327 160 352
4 81 7 406 133
4 150 480 309 454
4 347 302 414 135
4 447 154 167 494
4 334 333 553 557
4 116 166 487 414
4 357 354 294 544
4 468 347 432 153
4 90 194 487 432
4 84 403 402 353
4 18 207 156 157
4 355 431 120 114
4 205 59 6 367
4 195 54 473 518
4 426 453 339 89
4 91 167 494 461
4 142 159 141 467
4 31 324 325 360
4 44 43 192 83
4 178 124 155 455
4 452 179 165 88
4 483 86 141 467
4 499 188 31 170
4 178 150 480 169
4 351 163 415 485
4 16 82 155 502
4 329 388 374 549
4 125 89 426 126
4 520 209 51 517
4 170 188 497 158
4 497 128 385 360
4 349 446 428 123
4 264 270 278 560
4 133 86 208 488
4 120 495 431 355
4 16 39 82 502
4 206 34 13 468
4 38 155 477 502
4 355 309 298 114
4 172 12 92 484
4 459 398 457 559
4 2 0 57 506
4 57 0 2 509
4 176 163 81 485
4 28 408 421 396
4 468 13 206 153
4 520 54 195 518
4 59 6 7 205
4 163 176 132 415
4 27 181 26 556
4 12 33 92 484
4 327 288 160 352
4 174 446 123 149
4 355 191 480 169
4 86 133 168 488
4 331 356 443 552
4 487 166 90 432
4 82 155 502 455
4 325 128 31 360
4 446 447 192 174
4 170 188 31 360
4 65 64 1 186
4 198 91 46 494
4 8 61 60 405
4 208 59 6 406
4 154 511 45 494
4 516 155 124 455
4 60 61 8 193
4 126 427 326 327
4 162 346 135 148
4 15 155 90 194
4 123 447 446 174
4 242 426 425 125
4 124 116 166 487
4 83 511 20 154
4 33 206 92 484
4 142 141 86 467
4 155 15 38 477
4 207 489 462 156
4 355 120 495 169
4 318 474 308 545
4 478 482 334 553
4 19 42 462 156
4 391 26 392 305
4 495 489 120 431
4 19 462 83 156
4 82 191 480 455
4 91 21 46 494
4 503 519 50 517
4 462 43 19 83
4 154 45 21 494
4 50 503 517 371
4 55 518 519 501
4 207 462 42 156
4 494 198 91 461
4 431 355 298 114
4 114 120 355 169
4 484 212 172 506
4 159 22 48 466
4 374 388 382 549
4 42 18 41 207
4 46 22 91 198
4 13 33 206 92
4 43 44 20 83
4 17 16 39 82
4 58 6 59 367
4 406 193 81 485
4 140 193 403 513
4 515 35 468 153
4 414 166 487 432
4 207 42 18 156
4 82 191 17 157
4 155 516 477 455
4 155 38 16 502
4 515 432 90 153
4 194 90 36 515
4 116 166 414 135
4 440 328 500 558
4 59 60 7 406
4 14 35 515 153
4 154 174 447 167
4 467 208 86 488
4 15 37 38 477
4 173 23 49 211
4 468 432 515 153
4 191 82 502 455
4 483 208 86 467
4 462 192 43 83
4 494 167 447 461
4 349 447 446 123
4 155 477 502 455
4 124 487 516 342
4 173 49 509 211
4 39 191 82 502
4 0 49 509 173
4 22 46 47 198
4 468 35 13 153
4 172 0 32 506
4 163 176 415 485
4 33 13 12 92
4 349 447 167 461
4 90 14 36 515
4 51 52 209 520
4 497 188 170 360
4 498 365 346 162
4 34 35 13 468
4 208 406 133 488
4 515 90 14 153
4 191 17 39 82
4 511 45 20 154
4 520 54 53 195
4 16 15 38 155
4 56 55 519 501
4 46 22 21 91
4 22 47 48 466
4 333 334 323 557
4 177 126 160 327
4 35 14 13 153
4 328 387 500 558
4 499 31 1 170
4 183 24 25 559
4 437 520 53 195
4 141 211 483 467
4 90 194 432 515
4 128 325 385 360
4 166 90 432 153
4 342 516 124 455
4 499 31 188 360
4 361 31 499 360
4 3 519 503 78
4 33 34 13 206
4 23 22 48 159
4 52 209 520 437
4 21 20 45 154
4 43 20 19 83
4 15 36 37 194
4 358 334 490 553
4 0 2 32 506
4 49 2 0 509
4 32 12 0 172
4 334 333 490 553
4 142 467 350 486
4 484 172 32 506
4 351 133 406 488
4 172 32 12 484
4 19 42 43 462
4 323 334 504 557
4 49 0 23 173
4 42 19 18 156
4 352 415 176 485
4 36 15 90 194
4 358 478 334 553
4 331 330 356 552
4 58 59 6 208
4 184 40 41 469
4 447 511 154 494
4 513 352 176 485
4 334 482 504 557
4 278 279 264 560
4 278 280 279 560
4 517 51 50 371
4 17 39 40 191
4 59 7 60 205
4 48 49 23 211
4 128 170 31 360
4 14 36 15 90
4 324 31 361 360
4 50 3 519 503
4 184 18 17 157
4 519 3 501 78
4 519 3 56 501
4 65 1 64 499
4 33 12 32 484
4 54 55 473 518
4 20 44 45 511
4 520 53 52 437
4 46 21 45 494
4 39 16 38 502
4 14 35 36 515
4 542 411 279 410
4 542 279 411 540
4 538 540 557 322
4 557 540 538 523
4 300 540 546 289
4 538 560 322 505
4 538 322 560 540
4 282 322 560 505
4 282 560 322 540
4 540 546 411 524
4 411 546 540 299
4 546 558 540 300
4 540 558 546 524
4 503 519 531 78
4 503 531 519 517
4 549 300 311 329
4 549 311 300 546
4 559 180 527 183
4 559 527 180 532
4 558 292 557 540
4 558 557 292 328
4 394 554 553 203
4 553 554 394 537
4 558 289 292 540
4 558 292 289 440
4 359 552 479 330
4 479 552 359 538
4 542 279 264 410
4 542 264 279 560
4 111 243 238 107
4 111 238 243 240
4 106 243 273 107
4 106 273 243 430
4 175 419 306 408
4 306 419 175 127
4 246 79 28 343
4 246 28 79 27
4 122 350 121 348
4 121 350 122 168
4 28 246 248 27
4 248 246 28 396
4 89 325 427 128
4 427 325 89 339
4 135 432 414 347
4 135 414 432 166
4 64 171 186 215
4 186 171 64 1
4 162 347 346 498
4 162 346 347 135
4 170 64 499 188
4 170 499 64 1
4 156 495 489 120
4 489 495 156 207
4 122 486 350 348
4 350 486 122 142
4 159 486 467 142
4 467 486 159 466
4 469 169 495 157
4 495 169 469 355
4 162 206 153 498
4 162 153 206 92
4 192 149 462 445
4 462 149 192 83
4 455 124 454 178
4 455 454 124 342
4 173 483 4 141
4 4 483 173 509
4 83 44 511 192
4 83 511 44 20

CELL_TYPES 2796
1
1
1
1
3
3
3
3
3
3
3
3
3
3
3
3
3
3
3
3
3
3
3
3
3
3
3
3
3
3
3
3
3
3
3
3
3
3
3
3
3
3
3
3
3
3
3
3
3
3
3
3
3
3
3
3
3
3
3
3
3
3
3
3
3
3
3
3
3
3
3
3
3
3
3
3
3
3
3
3
3
3
3
3
3
5
5
5
5
5
5
5
5
5
5
5
5
5
5
5
5
5
5
5
5
5
5
5
5
5
5
5
5
5
5
5
5
5
5
5
5
5
5
5
5
5
5
5
5
5
5
5
5
5
5
5
5
5
5
5
5
5
5
5
5
5
5
5
5
5
5
5
5
5
5
5
5
5
5
5
5
5
5
5
5
5
5
5
5
5
5
5
5
5
5
5
5
5
5
5
5
5
5
5
5
5
5
5
5
5
5
5
5
5
5
5
5
5
5
5
5
5
5
5
5
5
5
5
5
5
5
5
5
5
5
5
5
5
5
5
5
5
5
5
5
5
5
5
5
5
5
5
5
5
5
5
5
5
5
5
5
5
5
5
5
5
5
5
5
5
5
5
5
5
5
5
5
5
5
5
5
5
5
5
5
5
5
5
5
5
5
5
5
5
5
5
5
5
5
5
5
5
5
5
5
5
5
5
5
5
5
5
5
5
5
5
5
5
5
5
5
5
5
5
5
5
5
5
5
5
5
5
5
5
5
5
5
5
5
5
5
5
5
5
5
5
5
5
5
5
5
5
5
5
5
5
5
5
5
5
5
5
5
5
5
5
5
5
5
5
5
5
5
5
5
5
5
5
5
5
5
5
5
5
5
5
5
5
5
5
5
5
5
5
5
5
5
5
5
5
5
5
5
5
5
5
5
5
5
5
5
5
5
5
5
5
5
5
5
5
5
5
5
5
5
5
5
5
5
5
5
5
5
5
5
5
5
5
5
5
5
5
5
5
5
5
5
5
5
5
5
5
5
5
5
5
5
5
5
5
5
5
5
5
5
5
5
5
5
5
5
5
5
5
5
5
5
5
5
5
5
5
5
5
5
5
5
5
5
5
5
5
5
5
5
5
5
5
5
5
5
5
5
5
5
5
5
5
5
5
5
5
5
5
5
5
5
5
5
5
5
5
5
5
5
5
5
5
5
5
5
5
5
5
5
5
5
5
5
5
5
5
5
5
5
5
5
5
5
5
5
5
5
5
5
5
5
5
5
5
5
5
5
5
5
5
5
5
5
5
5
5
5
5
5
5
5
5
5
5
5
5
5
5
5
5
5
5
5
5
5
5
5
5
5
5
5
5
5
5
5
5
5
5
5
5
5
5
5
5
5
5
5
5
5
5
5
5
5
5
5
5
5
5
5
5
5
5
5
5
5
5
5
5
5
5
5
5
5
5
5
5
5
5
5
5
5
5
5
5
5
5
5
5
5
5
5
5
5
5
5
5
5
5
5
5
5
5
5
5
5
5
5
5
5
5
5
5
5
5
5
5
5
5
5
5
5
5
5
5
5
5
5
5
5
5
5
5
5
5
5
5
5
5
5
5
5
5
5
5
5
5
5
5
5
5
5
5
5
5
5
5
5
5
5
5
5
5
5
5
5
5
5
5
5
5
5
5
5
5
5
5
5
5
5
5
5
5
5
5
5
5
5
5
5
5
5
5
5
5
5
5
5
5
5
5
5
5
5
5
5
5
5
5
5
5
5
5
5
5
5
5
5
5
5
5
5
5
5
5
5
5
5
5
5
5
5
5
5
5
5
5
5
5
5
5
5
5
5
5
5
5
5
5
5
5
5
5
5
5
5
5
5
5
5
5
5
5
5
5
5
5
5
5
5
5
5
5
5
5
5
5
5
5
5
5
5
5
5
5
5
5
5
5
5
5
5
5
5
5
5
5
5
5
5
5
5
5
5
5
5
5
5
5
5
5
5
5
5
5
5
5
5
5
5
5
5
5
5
5
5
5
5
5
5
5
5
5
5
5
5
5
5
5
5
5
5
5
5
5
5
5
5
5
5
5
5
5
5
5
5
5
5
5
5
5
5
5
5
5
5
5
5
5
5
5
5
5
5
5
5
5
5
5
5
5
5
5
5
5
5
5
5
5
5
5
5
5
5
5
5
5
5
5
5
5
5
5
5
5
5
5
5
5
5
5
5
5
5
5
5
5
5
5
5
5
5
5
5
5
5
5
5
5
5
5
5
5
5
5
5
5
5
5
5
5
5
5
5
5
5
5
5
5
5
5
5
5
5
5
5
5
5
5
5
5
5
5
5
5
5
5
5
5
5
5
5
5
5
5
5
5
5
5
5
5
5
5
5
5
5
5
5
5
5
5
5
5
5
5
5
5
5
5
5
5
5
5
5
5
5
5
5
5
5
5
5
5
5
5
5
5
5
5
5
5
5
5
5
5
5
5
5
5
5
5
5
5
5
5
5
5
5
5
5
5
5
5
5
5
5
5
5
5
5
5
5
5
5
5
5
5
5
5
5
5
5
5
5
5
5
5
5
5
5
5
5
5
5
5
5
5
5
10
10
10
10
10
10
10
10
10
10
10
10
10
10
10
10
10
10
10
10
10
10
10
10
10
10
10
10
10
10
10
10
10
10
10
10
10
10
10
10
10
10
10
10
10
10
10
10
10
10
10
10
10
10
10
10
10
10
10
10
10
10
10
10
10
10
10
10
10
10
10
10
10
10
10
10
10
10
10
10
10
10
10
10
10
10
10
10
10
10
10
10
10
10
10
10
10
10
10
10
10
10
10
10
10
10
10
10
10
10
10
10
10
10
10
10
10
10
10
10
10
10
10
10
10
10
10
10
10
10
10
10
10
10
10
10
10
10
10
10
10
10
10
10
10
10
10
10
10
10
10
10
10
10
10
10
10
10
10
10
10
10
10
10
10
10
10
10
10
10
10
10
10
10
10
10
10
10
10
10
10
10
10
10
10
10
10
10
10
10
10
10
10
10
10
10
10
10
10
10
10
10
10
10
10
10
10
10
10
10
10
10
10
10
10
10
10
10
10
10
10
10
10
10
10
10
10
10
10
10
10
10
10
10
10
10
10
10
10
10
10
10
10
10
10
10
10
10
10
10
10
10
10
10
10
10
10
10
10
10
10
10
10
10
10
10
10
10
10
10
10
10
10
10
10
10
10
10
10
10
10
10
10
10
10
10
10
10
10
10
10
10
10
10
10
10
10
10
10
10
10
10
10
10
10
10
10
10
10
10
10
10
10
10
10
10
10
10
10
10
10
10
10
10
10
10
10
10
10
10
10
10
10
10
10
10
10
10
10
10
10
10
10
10
10
10
10
10
10
10
10
10
10
10
10
10
10
10
10
10
10
10
10
10
10
10
10
10
10
10
10
10
10
10
10
10
10
10
10
10
10
10
10
10
10
10
10
10
10
10
10
10
10
10
10
10
10
10
10
10
10
10
10
10
10
10
10
10
10
10
10
10
10
10
10
10
10
10
10
10
10
10
10
10
10
10
10
10
10
10
10
10
10
10
10
10
10
10
10
10
10
10
10
10
10
10
10
10
10
10
10
10
10
10
10
10
10
10
10
10
10
10
10
10
10
10
10
10
10
10
10
10
10
10
10
10
10
10
10
10
10
10
10
10
10
10
10
10
10
10
10
10
10
10
10
10
10
10
10
10
10
10
10
10
10
10
10
10
10
10
10
10
10
10
10
10
10
10
10
10
10
10
10
10
10
10
10
10
10
10
10
10
10
10
10
10
10
10
10
10
10
10
10
10
10
10
10
10
10
10
10
10
10
10
10
10
10
10
10
10
10
10
10
10
10
10
10
10
10
10
10
10
10
10
10
10
10
10
10
10
10
10
10
10
10
10
10
10
10
10
10
10
10
10
10
10
10
10
10
10
10
10
10
10
10
10
10
10
10
10
10
10
10
10
10
10
10
10
10
10
10
10
10
10
10
10
10
10
10
10
10
10
10
10
10
10
10
10
10
10
10
10
10
10
10
10
10
10
10
10
10
10
10
10
10
10
10
10
10
10
10
10
10
10
10
10
10
10
10
10
10
10
10
10
10
10
10
10
10
10
10
10
10
10
10
10
10
10
10
10
10
10
10
10
10
10
10
10
10
10
10
10
10
10
10
10
10
10
10
10
10
10
10
10
10
10
10
10
10
10
10
10
10
10
10
10
10
10
10
10
10
10
10
10
10
10
10
10
10
10
10
10
10
10
10
10
10
10
10
10
10
10
10
10
10
10
10
10
10
10
10
10
10
10
10
10
10
10
10
10
10
10
10
10
10
10
10
10
10
10
10
10
10
10
10
10
10
10
10
10
10
10
10
10
10
10
10
10
10
10
10
10
10
10
10
10
10
10
10
10
10
10
10
10
10
10
10
10
10
10
10
10
10
10
10
10
10
10
10
10
10
10
10
10
10
10
10
10
10
10
10
10
10
10
10
10
10
10
10
10
10
10
10
10
10
10
10
10
10
10
10
10
10
10
10
10
10
10
10
10
10
10
10
10
10
10
10
10
10
10
10
10
10
10
10
10
10
10
10
10
10
10
10
10
10
10
10
10
10
10
10
10
10
10
10
10
10
10
10
10
10
10
10
10
10
10
10
10
10
10
10
10
10
10
10
10
10
10
10
10
10
10
10
10
10
10
10
10
10
10
10
10
10
10
10
10
10
10
10
10
10
10
10
10
10
10
10
10
10
10
10
10
10
10
10
10
10
10
10
10
10
10
10
10
10
10
10
10
10
10
10
10
10
10
10
10
10
10
10
10
10
10
10
10
10
10
10
10
10
10
10
10
10
10
10
10
10
10
10
10
10
10
10
10
10
10
10
10
10
10
10
10
10
10
10
10
10
10
10
10
10
10
10
10
10
10
10
10
10
10
10
10
10
10
10
10
10
10
10
10
10
10
10
10
10
10
10
10
10
10
10
10
10
10
10
10
10
10
10
10
10
10
10
10
10
10
10
10
10
10
10
10
10
10
10
10
10
10
10
10
10
10
10
10
10
10
10
10
10
10
10
10
10
10
10
10
10
10
10
10
10
10
10
10
10
10
10
10
10
10
10
10
10
10
10
10
10
10
10
10
10
10
10
10
10
10
10
10
10
10
10
10
10
10
10
10
10
10
10
10
10
10
10
10
10
10
10
10
10
10
10
10
10
10
10
10
10
10
10
10
10
10
10
10
10
10
10
10
10
10
10
10
10
10
10
10
10
10
10
10
10
10
10
10
10
10
10
10
10
10
10
10
10
10
10
10
10
10
10
10
10
10
10
10
10
10
10
10
10
10
10
10
10
10
10
10
10
10
10
10
10
10
10
10
10
10
10
10
10
10
10
10
10
10
10
10
10
10
10
10
10
10
10
10
10
10
10
10
10
10
10
10
10
10
10
10
10
10
10
10
10
10
10
10
10
10
10
10
10
10
10
10
10
10
10
10
10
10
10
10
10
10
10
10
10
10
10
10
10
10
10
10
10
10
10
10
10
10
10
10
10
10
10
10
10
10
10
10
10
10
10
10
10
10
10
10
10
10
10
10
10
10
10
10
10
10
10
10
10
10
10
10
10
10
10
10
10
10
10
10
10
10
10
10
10
10
10
10
10
10
10
10
10
10
10
10
10
10
10
10
10
10
10
10
10
10
10
10
10
10
10
10
10
10
10
10
10
10
10
10
10
10
10
10
10
10
10
10
10
10
10
10
10
10
10
10
10
10
10
10
10
10
10
10
10
10
10
10
10
10
10
10
10
10
10
10
10
10
10
10
10
10
10
10
10
10
10
10
10
10
10
10
10
10
10
10
10
10
10
10
10
10
10
10
10
10
10
10
10
10
10
10
10
10
10
10
10
10
10
10
10
10
10
10
10
10
10
10
10
10
10
10
10
10
10
10
10
10
10
10
10
10
10
10
10
10
10
10
10
10
10
10
10
10
10
10
10
10
10
10
10
10
10
10
10
10
10
10
10
10
10
10
10
10
10
10
10
10
10
10
10
10
10
10
10
10
10
10
10
10
10
10
10
10
10
10
10
10
10
10
10
10
10
10
10
10
10
10
10
10
10
10
10
10
10
10
10
10
10
10
10
10
10
10
10
10
10
10
10
10
10
10
10
10
10
10
10
10
10
10
10
10
10
10
10
10
10
10
10
10
10
10
10
10
10
10
10
10
10
10
10
10
10
10
10
10
10
10
10
10
10
10
10
10
10
10
10
10
10
10
10
10
10
10
10
10
10
10
10
10
10
10
10
10
10
10
10
10
10
10
10
10
10
10
10
10
10
10
10
10
10
10
10
10
10
10
10
10
10
10
10
10
10
