# vtk DataFile Version 2.0
whisker_body, Created by Gmsh 4.13.1 
ASCII
DATASET UNSTRUCTURED_GRID
POINTS 524 double
9 0 0
7.268562449858393 0 22
12 0 0
6.490880522276705 0 70
8.711427074976399 0 3.666666666666667
8.422854149952798 0 7.333333333333334
8.134281224929197 0 11
7.845708299905596 0 14.66666666666667
7.557135374881994 0 18.33333333333333
8.221909118783412 3.660629787682195 0
6.022175457229734 6.688303429296539 0
2.781152949374546 8.559508646656376 0
-0.9407561694088541 8.950697058314462 0
-4.499999999999971 7.794228634059964 0
-7.281152949374503 5.290067270632291 0
-8.803328406604242 1.871205217359873 0
-8.803328406604258 -1.871205217359792 0
-7.281152949374553 -5.290067270632221 0
-4.500000000000045 -7.794228634059921 0
-0.9407561694089199 -8.950697058314455 0
2.781152949374503 -8.55950864665639 0
6.022175457229708 -6.688303429296562 0
8.221909118783401 -3.660629787682216 0
6.294759730571024 3.634281224929196 22
3.634281224929198 6.294759730571023 22
4.450710869310863e-16 7.268562449858393 22
-3.634281224929195 6.294759730571024 22
-6.29475973057102 3.634281224929205 22
-7.268562449858393 2.994115356979321e-14 22
-6.294759730571047 -3.634281224929155 22
-3.63428122492925 -6.294759730570993 22
-5.943723605265534e-14 -7.268562449858393 22
3.634281224929163 -6.294759730571043 22
6.294759730571012 -3.634281224929217 22
11.34980690040761 3.896393630456207 0
9.469686112756717 7.370552552276022 0
6.563377897469113 10.04599773915035 0
2.945825845689581 11.63280319127197 0
-0.9909521456679979 11.95901391608004 0
-4.820345095835646 10.98927991986068 0
-8.127378859508902 8.82868692807757 0
-10.55368501447787 5.71136871644487 0
-11.83633564083267 1.975135083368787 0
-11.83633564083267 -1.975135083368821 0
-10.55368501447786 -5.711368716444897 0
-8.12737885950888 -8.828686928077589 0
-4.820345095835619 -10.9892799198607 0
-0.9909521456679715 -11.95901391608004 0
2.945825845689616 -11.63280319127196 0
6.563377897469155 -10.04599773915032 0
9.469686112756747 -7.370552552275983 0
11.34980690040762 -3.896393630456205 0
5.460476170550379 3.509234951570297 70
2.69640921655526 5.904312601086342 70
-0.9237486117790363 6.424812717636788 70
-4.250622782769287 4.905480191894958 70
-6.227954253695701 1.828692365693239 70
-6.227954253695695 -1.82869236569326 70
-4.250622782769273 -4.905480191894971 70
-0.9237486117790209 -6.42481271763679 70
2.696409216555272 -5.904312601086336 70
5.460476170550383 -3.509234951570289 70
11.69393780679315 0 3.888888888888888
11.3878756135863 0 7.777777777777777
11.08181342037945 0 11.66666666666667
10.7757512271726 0 15.55555555555555
10.46968903396575 0 19.44444444444444
10.1636268407589 0 23.33333333333333
9.857564647552053 0 27.22222222222222
9.551502454345203 0 31.11111111111111
9.245440261138352 0 35
8.939378067931504 0 38.88888888888889
8.633315874724653 0 42.77777777777777
8.327253681517803 0 46.66666666666666
8.021191488310954 0 50.55555555555556
7.715129295104104 0 54.44444444444444
7.409067101897254 0 58.33333333333333
7.103004908690405 0 62.22222222222221
6.796942715483555 0 66.11111111111111
-6.134966647104244 -6.274571598026074 2.853509995841791
-2.702343527703489 8.316958187005222 3.240497011877471
-7.29669647029721 1.827636691544709 18.77846041392395
2.134114594166722 7.211316742194417 18.79915598328123
7.196977123603734 -3.51666482459615 12.57651645152002
-1.946825084417228 -7.265650128494435 18.78034856435783
7.445654126727385 3.592916343010832 9.310939778508635
3.943384841548665 -7.810028797076707 3.187926491349022
-8.744967354205167 3.99064060528332e-14 3.240497011877475
4.052574842931475 7.770511822648053 3.001186418133532
5.179199161932046 -5.458487908517875 18.74708144102227
7.046953059310078 3.116858457992416 16.44849219010139
7.792978117434246 -3.538372053089655 5.607813014103106
7.707278729962499 3.98852219549779 4.089369515319425
1.863812820765336 -7.290873188408601 18.73742645962199
-0.136363877231282 -7.776649698095819 15.52894937050683
-3.764830534199638 -6.806220184666204 15.52592185626133
-2.072904757214323 -7.758773580993051 12.31346687617411
-5.373887504330324 -5.975842431585041 12.23924450757968
-6.669320826830634 -4.002312832609596 15.52611286577856
-7.513503275158935 -2.900179363460579 12.02254989248838
1.677067915096803 -7.859326363453475 12.24540431664676
-0.2687666877833548 -8.281503386780273 9.07396462681627
3.267790114363493 -7.627160890390685 8.923406655597267
-6.725543536956761 -4.86019097296098 8.921602289421484
-8.164309887118943 -1.596772826562401 8.65301829525667
-8.042583409848907 0.796253625623033 11.66551930014318
-8.028284617975153 2.303608820485071 8.230529734235763
-6.872713583539192 4.325914573709328 11.17103213956989
-6.385839679980967 5.459036493238385 7.60857641644063
-4.332796674542162 6.928006389168165 10.52943293552535
-4.96746506051216 6.131742486912641 14.08627480521077
-1.893361980613177 7.725901572738986 13.28409389272474
-0.8160781291752087 8.190023950656123 9.776385903482019
1.753643117546669 7.823417883984821 12.4831921672531
2.750630379511215 7.825996630272698 8.953917995414256
-2.341243521433689 7.347168968598665 16.37599753396297
5.315820529102254 6.081292359246961 11.7261471483117
3.446623633368397 7.001325576908391 15.20039966148873
-7.913776235745796 -3.243207742933762 5.685287854547074
3.464455564446462 -6.967424128528573 15.48601378565746
0.6319359430710515 8.482439969651724 6.277541176639809
-7.252081031639354 -1.995533331608602 18.78454393545838
-7.877969469239972 3.506202508419967 4.790438120172285
5.223691952997881 5.42053268879742 18.70492734248285
-7.767793757680706 -0.4193842153161391 15.51291865303619
1.540719118426278 -8.402977710278686 5.805991309314363
-1.832360176009429 -8.331404196819708 5.965258181546479
5.050001773577852 -6.273339326992787 12.0276518575336
6.375848924319143 -5.341159676867909 8.673031214423927
-5.291818307974636 -5.346375425264822 18.7742072006711
7.381053065246225 3.069260311230391 12.78540858240928
-3.813326522975458 -7.359799760707303 9.033658835285172
-3.377905476671446 7.747234121990429 6.967827556571632
7.184598876373355 -2.78731921577858 16.43756386463253
-5.136208149518934 5.513089775690199 18.61579730536155
-5.851892439654751 6.499184978914956 3.23352550883099
5.921367798351514 5.917178614187986 7.990716511414805
-7.156826293627495 3.051077248261456 15.50088794723317
6.814788025773429 -5.509125077414483 3.010191724944038
1.015255434774922 8.709990293977556 2.935630647648881
0.5921553879123002 7.73758979674621 15.75295629179827
0.3462936161858521 -8.747734942137757 3.118273377381695
-5.394344806735531 -6.572735450755452 6.315881694943534
7.866700830641475 -2.586879623351834 9.13425204205204
5.104074116657168 -6.835321878116655 5.962757297048207
-8.042851896302698 -3.580908375922071 2.490448296028824
-3.435772485331829 -8.063971063562317 2.980930189976666
-1.019657483575379 7.422012624234992 19.16442609947807
3.610831389737708 7.713243382508711 6.14236493418613
-8.50782613381662 0.2132792926120987 6.219699662607939
6.977548772259019 2.687967035861565 19.34660081406254
6.978684855943037 -2.684077463449719 19.35088268594536
5.887686974672573 -5.185313791625536 14.66893538163131
8.38164909040252 -2.643230444553577 2.686656470419795
6.082823956992484 6.094469660305548 4.947150256099052
8.08984171480126 2.579990823350195 6.463858888387706
5.875091828554114 5.200724185844928 14.65930033427874
-8.082245802606501 3.579342412058935 2.041049904209252
8.533304663115203 2.244194609452319 2.242972264382682
6.888179028671821 5.494550656528818 2.399038304352429
-2.828905728149244 2.851771142436426 22
2.729074748503344 -2.86626723422644 22
-2.454088886737166 -2.880763326016434 22
2.35425790709126 2.866267234226437 22
4.196506487047345 -7.771561172376096e-15 22
1.290635193539398 0.03960405928150649 22
-0.3688982266320847 2.1681950183078 22
-1.457528759288755 -0.09477469372876471 22
-4.433100880862604 -0.02062781288478209 22
0.2465085640506181 -2.129581898919146 22
0.08691573763610855 -4.622449061693741 22
-0.1405910079483442 4.624052550995184 22
-10.31983202371846 1.149080830487037e-14 0
0.9488176199968067 -10.27550570308071 0
0.9488176199968186 10.27550570308071 0
9.911860172928041 2.106830918111609 0
9.911860172928025 -2.106830918111621 0
8.466875056264714 -3.317303643854778 36.93007096033316
7.821845623372724 3.279344685476489 44.70713471457508
9.120245910289237 3.327061996254799 29.12068223207024
9.438050282588245 -3.346942070676019 25.23539915122393
7.480602335079111 -3.305867378120807 48.55652201355586
-11.73088669374762 -1.940162152660215e-14 3.419408766471569
-2.879762434608169 11.37192468062311 3.419408766471415
6.812365077327485 3.293518903324991 56.32988361258961
-2.879762434608137 -11.37192468062312 3.419408766471416
10.03700683094855 3.489405754362892 17.45498758261763
-5.574956286394031 -3.78668395756391 66.84263711464807
10.40992648181423 -3.337958848351206 13.57027627075233
6.474699525225045 -3.286119309726038 60.21628526319177
8.493391781973815 3.256056274121223 36.89714897511699
-2.669043431082613 6.204494043296981 66.65390636929733
10.73011947691677 3.340138153048984 9.682499500092435
7.94511337650492 -8.630693833987381 3.419408766471505
-9.382025185936769 7.057263868497892 3.303737750555006
-9.257317901175359 -7.205259738421862 3.419408766471709
4.803466868453009 10.70734651965919 3.361547323836406
0.8577132096463104 -6.682361437659472 66.87043825172104
6.165289275614898 3.237167037505388 63.99506470565762
10.0733686959848 6.038330996047115 3.245938804936132
11.04956328535986 -3.342145186211126 5.794663767161262
8.783016539913215 -3.341931786525523 33.07000617794214
9.102545075636485 -3.36149058570941 29.18108665520185
7.611208606427684 -6.286816455844814 27.03997905948282
6.879424192480172 -6.190743779632303 34.88075559725996
7.996199202246782 -6.298655526033382 23.13786019255063
5.281824749839164 -8.542778425125565 24.85662570503997
5.715010904353043 -8.628689103281204 20.96945776769745
2.409586204936747 -9.933761573534991 22.59384420289131
1.920495161629743 -9.728975348874648 26.47062868389184
-1.18705066350801 -10.03173334255851 24.11992415358298
-1.680801449017463 -9.653258574303541 27.97277951559827
-0.6925830340437528 -10.38256099518798 20.25832547381912
-4.190155940420174 -9.400636965553099 21.69965563168639
-3.73710915203073 -9.914209315274325 17.85011526381134
-6.836928219271687 -7.953519307498699 19.20941137450332
-7.163188422986155 -7.242617663427911 23.04145696361544
-9.094766823697393 -5.021698265322373 20.46913564924288
-9.198936850700129 -4.144677891714113 24.27471063609224
-10.1983058705171 -1.432579864348417 21.62045531784573
-9.988918505929044 -0.4896264159887282 25.4008302350095
-9.953976520863005 2.29904561020787 22.66749407374319
-9.370421203342785 3.260279045484106 26.41109473820383
-8.362684729243853 5.738935338405114 23.602045614405
-7.416985122323608 6.481958297194446 27.31514646972684
-8.697482598686259 4.127351002550752 30.1504374406179
-5.604963761738087 8.375388923071117 24.4234219662696
-6.768892353947395 7.853739082201203 20.73426060698601
-10.42163906876213 1.375253179197525 18.90699087890821
-4.352737005181482 8.767586217033022 28.09837293801879
-0.1940645672767377 -10.70827308020493 16.39060464395387
-3.380367475072507 9.739790671049214 21.47699437942988
-4.746185202931127 9.47616445617888 17.81028484621179
-8.948883763619577 -5.846906895348472 16.64944240521958
-1.030811940127664 10.49493445467649 18.48198676062395
0.3999990738681296 10.25188510562783 22.1127917731506
6.524741635784824 -6.121799447744249 38.79213331655823
4.013253670520448 -8.183233931553442 36.66555745460211
3.626380678060273 -8.028800211265423 40.53555529642336
0.5839185476495607 -8.965834366296278 38.31138386247529
0.16592746797796 -8.680863953800111 42.15347471292453
-2.931469100343624 -8.365944143841229 39.83803144901826
-3.303128537434968 -7.902064048410841 43.6502272549517
-5.931799797645593 -6.437300243455574 41.24973491671117
-6.186017647391353 -5.765925596659877 45.02419602434285
-7.949483379014878 -3.416439305225011 42.53358915225726
-7.943272704022186 -2.600661336460589 46.27382627747377
-6.40977109274399 -5.052402148289077 48.77132627770006
-7.873439916110575 -1.751455692707246 49.98755066844598
-6.597768110249835 -4.288812486796822 52.48667108385916
-7.724958955028463 -0.8877994639890856 53.67345763571592
-7.757731322818455 1.869402192543134 51.08160227394211
-8.559578714907422 0.1583766228244368 43.69608156644909
-7.200427618891021 2.70775151231188 54.72906992214008
-9.240323277004277 -3.236715650132309 28.07045807169184
-6.004337603949486 5.141706235407195 52.0317572436125
-5.037971526982362 5.71782777826552 55.64457992072981
-2.445260017261438 10.55295269000095 14.83387776414825
-5.986422579920178 9.104205850611732 14.02706493601312
1.421496310008516 10.6911064579814 15.43557408200571
-6.726889040193566 -3.490113008366289 56.18194062413263
-4.453879298614579 -6.254898150689501 54.90868107888703
-6.524785198445621 3.505484259572304 58.36166308702482
-8.82400695973217 -0.7234803475373855 39.97859471656018
-8.270160497573533 2.916702553300301 41.04842444136457
-3.273520826866245 -10.39564361123653 13.99119638399828
0.2700458071978424 -11.01216895418948 12.50951834863085
-3.0130268932219 7.238072197944637 52.85585052400354
-4.149549264539813 6.984464447278832 49.24758644517435
-5.651055626330085 -7.070981955522493 37.46174369884489
-0.6264714945194176 8.041796925550184 49.98415503201991
-1.85577853528329 8.140475489097142 46.38620327463484
-0.2669679679360508 -8.378313243100825 45.96386312384355
-4.888446811382968 -5.552369200194782 58.47798017814646
0.3532218965599711 11.06953840318764 11.75104740972185
3.981100075486588 10.28527693252936 12.33931559504497
-1.674656003803791 -7.306404421835689 57.23043925661555
-3.992296108751729 6.15707705687405 59.2347835804846
3.359566171586512 -10.29875495291452 14.82981267088496
3.856416544674046 -10.4496486867981 10.94586836000549
-1.251461133985157 -7.689221110434023 53.48808504814667
1.808490967181123 -7.396955957106456 55.71890029343883
0.8718752447927359 -7.229810718077919 59.94542638282474
5.182500280957757 9.414683270802074 15.92290736990793
0.7123522021353557 7.752406627363178 53.55581308732967
3.150223455941388 7.374887070809625 50.57666224378047
-8.811537252471703 2.123887175748672 37.30682631469922
-7.17568509163279 5.405096354127452 38.32667478146795
2.294953036756585 -7.573450259728133 51.92352349153532
0.9967277334963729 -9.240240745540627 34.38498659807885
-5.726572673195713 4.236976128053159 61.96060425997709
-7.142148117748572 0.9119647111903664 60.98805384994781
-9.01725630016662 -1.568090703824457 36.17983278334392
-2.789031365303805 -10.84785054923587 10.15670641624724
-6.107836893703733 -9.260252000739595 11.52264369113248
7.04206774211759 8.436016107266324 12.84657144576828
8.361953471896747 -6.324833879358084 19.25561750379901
6.141003089616699 -6.082498890086144 42.64939093063388
-7.616431773357383 3.725898754516504 44.73936097604273
6.571303131013839 -8.773705036042726 13.19223918566893
4.960562803853538 -5.946789981695672 54.07600070369083
6.173850162223294 9.432579221961729 9.232086574512266
6.967275680860364 -8.848547849561461 9.373182112679208
4.324088995829404 -10.59684331165163 7.050384467628602
-5.32629398109382 -10.09809375600673 7.411603685517881
-8.487113833558158 -7.447670545367519 9.001825314186243
-6.603680995283898 2.079705553531051 64.50403420883336
-8.00396691955042 4.685147587545578 34.63230631587648
-5.437797367437262 7.425253119407957 35.53316948421423
-4.242590290514674 7.84133388241167 39.19232472357455
-1.832329848693629 8.960224869010949 36.26785236312864
-0.5765241697742967 8.837682233109339 39.9423741442335
1.849872620928992 8.899667457739303 36.97644692296723
0.5132927054831183 9.359801770711686 33.36819979117228
3.144012924083054 8.227298092336509 40.56369669567716
4.209002883111371 8.324657092983408 33.94822958179966
2.963286359148862 9.142563640534984 30.35762513792001
6.128278957827192 7.35831524366794 30.79928948703606
5.234329741745697 8.346369408941031 27.29409744357603
1.642611579644337 9.758102940890689 26.74160390974326
4.690319260378703 6.172042667087516 53.97620239545471
1.816719329558488 7.284593019800094 57.07990981219875
5.72914804898042 5.572768150507532 50.92104869587019
5.143087054328494 6.478202243603991 47.37451867007073
-2.829951043004895 6.466735315059812 62.78333083711854
-6.504471784522259 -2.597048311147125 63.4831041329227
1.422008314042538 -9.506309319455882 30.34143835478791
-2.166849368902052 -9.245992881653184 31.80991110156835
-5.031957342435733 -8.279001356309045 29.37339168566592
-5.365257980226898 -7.70178943940549 33.20958050931493
4.429476495266452 -8.324599268520084 32.65877628242423
8.125325701045401 6.98704524894902 16.31057953088996
6.301541693150611 8.356252718862432 19.49178473807643
4.043262182353629 9.293158212820341 23.70175218693822
7.212891193941352 7.065418157808556 24.18209467915849
8.850299723967813 5.392296334569219 20.79215143863551
9.919058884846141 4.581102421970722 13.64835217593424
6.538351839751178 3.157919130098961 60.2143743734327
4.414042537792629 5.585686402006251 62.01585914606407
4.138144047131052 5.387543977737858 66.15651582754822
-6.504940564237036 6.913775306379268 31.85613392084015
-9.325715485402791 1.240524415447229 32.93623428956081
-9.15332283630871 -2.363321732376898 32.35638644475308
-3.070134746753145 8.979865209976122 31.89015949704764
6.134253390665793 -3.277701462516695 64.10246807720824
4.44719752229916 -5.565774223815565 61.95185821582874
6.82538332782253 -3.2519847213036 56.40911025808903
0.4176052334049462 8.562760794165827 43.54495097298076
7.821444899016248 -3.273718557035624 44.73945163011107
3.184088801977888 -7.890276808492747 44.36347686853152
8.142665004172354 3.313992304868755 40.77142338138828
6.547933426142781 6.096020851535626 38.8004980519441
6.155496170381803 6.073937672719762 42.59490973459093
-3.689230240654186 -7.398443506352544 47.42911376049624
6.15802055071512 -8.6944786364728 17.09810324606251
8.921447666163926 2.944408273072196 33.10254168374649
-4.108975473238598 -6.832143239887355 51.17335947585379
-4.619375434080507 -8.857677728035263 25.54138946221508
-7.462857536274309 -6.483881681916386 26.85965193574242
-2.607334092586317 -8.790597126218785 35.96972192612201
-8.203927934533366 1.042116927809323 47.39603252381643
9.247461764425282 3.904838759672106 24.92838964392626
9.75344337363439 -3.367431168270402 21.36683284516031
10.73468677120717 -3.311697602165599 9.734035763886601
-6.500366499448212 -8.612041653459011 15.37572885779522
2.889041135896055 -10.12245141507147 18.72055330083293
2.833146186211836 10.11175380456694 19.04461571856078
-8.74431267117455 -6.657887155782566 12.82727483797651
-10.37237892751235 -4.214491011424522 10.2170579281733
-10.37781901318575 -3.313463817809461 14.05368413716731
-11.09224401634598 -0.5281919354752714 11.37443371929357
-11.37170102718439 -1.215045413448999 7.160842211853261
-11.02983072490431 2.536031033063219 8.670405674103415
-10.52066214416165 3.2872057517311 12.42345793708573
-9.504115593280458 6.021190149488303 9.518108863245052
0.8252769637312293 -11.28606138200553 8.688569525632996
0.7848632333440275 -11.59047350051871 4.866259159953717
-1.952397023604314 9.824102776850573 25.20619658915475
-7.674083670655969 -5.746147455228996 30.66060100535306
-0.7635266782988751 -8.04971929375388 49.73400425251636
-10.31402186915431 -2.417858921476624 17.86956979882953
-1.76526860976431 7.349442795678797 56.43497781274708
-7.865700756874627 -4.254277229452324 38.84935106821453
8.888669159815022 6.889866059547402 9.576988471894648
7.598264685449993 8.659714673215957 6.091321412623381
-7.819073636765159 7.246575549565313 17.01727385410431
-9.179758099299143 4.968726543686459 19.84443918350664
-6.254500785779039 6.039675334628694 41.99880484590953
-6.86874790249245 4.462419513300877 48.3976199776958
-10.79875499509293 0.4451680705998393 15.14672476364212
-2.757296387398454 -6.150354169781544 66.83280849978328
-1.40981398143522 -6.844909175707916 63.67603156902661
-4.51263561196046 -5.344032126485172 63.60133535803456
2.786435695843301 -7.721164766030288 48.17469527574249
-0.4869282342827714 7.264104205531265 59.96812982651458
0.5734210783601776 6.986153691290252 63.40844323786779
4.828132673870972 -8.45227473945911 28.79156980743505
-5.250202460358345 6.568435297274084 45.62972862405349
4.067720770705645 -5.383748686241623 66.73713159224978
-9.69039694022605 0.5232964893039823 29.16688883426026
-9.90014177988796 4.128969747554309 16.17934024860643
-6.808150394030012 -2.628073453248758 59.74729261195825
10.09252368562489 -3.324594675111756 17.45827263483055
8.744830728172122 -6.317778224131924 15.3967152685927
7.233294554197166 -6.258093556905324 30.94288969039014
5.790781333427548 -6.007950123301589 46.44910522655942
5.379797744762369 -5.97820693051614 50.28529846129835
7.164353290877433 -3.258929034060714 52.46720006279107
-3.135912086685135 8.041161770785962 42.80715499874128
-7.491900214314756 0.04688785162112238 57.27897457169704
-10.0072221291596 -5.645734465604736 6.480876363608078
9.084837723470475 -6.368551425055673 11.50272350783508
2.466884230776387 11.03791357504761 8.764498569627772
-1.403601177759911 11.27218108493036 8.141723217441534
1.092117035349939 11.54576331278141 5.11678711138226
-5.227120997012489 10.21083001378087 6.721580927627318
-3.928673905297156 10.44470850495288 10.68413426574669
9.090447959937713 -6.936171812195589 7.185951463137304
8.143344116689928 -3.301198668477189 40.8246041429809
1.802901397462049 8.089641165460373 47.16404942737201
-7.823264141492491 -4.915258215384834 35.07900913337932
-8.697306640392457 6.65384534602121 13.33321807692324
4.611957054041111 -5.8347969202411 57.97325779731037
-6.466113141939438 -9.789586727145592 3.401578715089108
-11.12227758724472 3.756462704870675 3.309852400191942
4.644756120182949 -10.77729677694288 3.359749051448041
-6.57100561731606 9.732884422269489 3.260568785415332
6.809758881506762 6.306345444293048 34.54416770445578
7.403281567692047 3.503943709466165 48.40280601839268
-11.11909868108967 -3.817191398723795 3.099357613423453
10.23150102214261 -5.772003778762268 3.210542373291887
11.0729416002626 3.182971904762964 6.081913120420572
0.5699835773061835 6.707696793888954 66.93793471373338
-5.446952315000612 3.956410219756108 66.9337882386955
-7.313116703378713 8.577565378471792 9.251064076341287
-0.8034223819367812 9.671463274807452 29.16357807964226
-2.895866219490761 -6.627647927778628 60.57445767584074
-6.707380564607688 -0.5057370651379259 67.00718906052731
4.886118269318272 5.591514634946426 58.12356043109436
7.801780303757355 5.99652661993244 27.44507462506
-2.046781421975172 -11.28116262194169 6.793542104063559
-10.1583460049319 5.408252656400713 6.247518612124317
3.474872106418678 7.769276531865849 44.33249101221788
7.982559235111276 8.671370879822698 2.716902208035781
7.103386629932726 3.272409118785554 53.1002676896098
-8.217646824186762 8.064633317833424 6.177514269052953
10.01025931840027 2.503457869424959 21.36477479460787
2.019629597301666 -6.662208873433268 64.01889063358031
6.122035329935732 2.785690997437425 67.01222632414377
4.638032905930259 10.50395766711042 6.577303592493303
-7.925285709536694 -8.365549493725489 6.053668744804655
9.753758506043663 6.060807044244517 6.563631756501612
6.143488771398524 -2.697195314817779 67.2222456573288
6.916106567908233 -9.196662437009357 6.264114192712495
4.697649565725202 7.787232329298109 36.91859840342177
11.43332361483514 -2.819177334261091 2.849171293455402
11.4365020934874 2.807602787303394 2.845090617668934
-4.670060726907787 5.116613254190411 64.45319368022633
-11.38960576986744 1.929988702732916 5.69278009887033
2.39221814077991 6.874907059067922 59.98318768514888
0.963588313764796 11.78835739083141 2.189609350286359
-5.325384635831397 -4.838754907331538 61.04868209413014
0.9858281538080402 -11.80112242815202 2.004692073361632
8.070718363939209 5.110009004266457 31.09947980494178
2.036762255503579 -2.465878735148001 70
-2.931242834104605 1.814244488222067 70
2.220444710834426 2.562529799245061 70
-0.6831995369230197 -3.496268133505534 70
-0.02234530465756696 0.03719856234068248 70
-3.39055316097431 -1.091717545806296 70
3.607782420842984 0.02230827107295836 70
-0.5196398350093629 3.614174438789244 70
-0.0530360244463508 -0.6495121339169181 30.78304138886396
-0.02587312793312435 -0.01858193980540168 39.8966490785532
-0.02599812842921434 -0.009645773977648098 48.73576419780951
0.002677379110413547 0.004482039328702836 59.00664151852907
-1.32501722621995 3.49562099054631 27.30941694643444
1.255751983553674 3.273825084809022 35.09421521784846
1.364241294523178 0.2623584601383666 64.50572961514463
-2.098232311871705 -1.200773995765747 53.91264948146899
3.106695438223372 -2.04419093083558 35.6431204948955
4.046255566091657 -2.050314559096106 27.32318514754037
-1.197838706131594 3.105051186164174 44.2707638062933
3.320518714879537 -0.08589485098670463 44.31613982622935
-3.548785862132849 0.07786039946634427 35.32178858240093
-1.711463538602771 -2.728811191503449 44.31892730573742
-2.030656862623984 -4.274127823795416 27.24134384311483
3.696324424688616 2.988884267925481 28.96221471533994
-0.05303602444635169 -0.6495121339169113 26.02951763471708
2.868152237407632 -0.5287365783574001 52.91503291322852
0.1968068070563894 3.015793642192234 55.09127239525863
-5.044057236625918 -0.1254914299407228 27.09212795183234
-1.08152721387321 -4.31442128283711 37.57723344450913
-4.457530655197136 0.20804843153658 41.41977168640769
4.384640778350303 1.257378691255313 38.77460381230109
2.111996826912033 -3.899171742535254 41.98337842637195
4.970720481726557 -0.5917342144221847 31.63953191342925
-1.188767222290771 4.35969461747225 38.88710581666742
1.139202478435569 -4.924350856224739 32.43847122436298
-2.675149544081751 3.751667206795314 32.08763884158049
-2.047905581909288 3.169499898124727 51.19502991221712
-1.987352676922463 2.254490725193727 62.70072922547091
-1.712534452004179 -2.138111676284135 62.45595126246489
0.01811157641821159 -3.847074348304792 51.01069914708717
2.160287118485782 -3.47310404832131 46.97350847413171
-4.229319334966291 -0.7840005361307147 47.74319043890174
-4.491986724813585 -2.271980065683233 31.29804238546187
2.222351856610717 3.09367880035216 50.68820352940254
1.869651328243619 -5.464440666298639 25.84420357774277
-2.349626187433425 0.2330355329497138 66.25590151160199
2.304627725890155 3.976198747134641 41.64165163294108
1.222819643569605 -3.060479123486759 56.10578205149958
-3.225917135440781 1.485359122661621 56.86500884313588
4.256521920100852 0.01595732769903186 48.50057204201866
5.732534468452865 1.410818899718175 25.64532591560677
3.54232436484524 0.7171503254990642 56.86620190276314
3.306519310914943 -0.9392509856500101 61.15702309991125
1.189442737752494 5.413893483074457 31.41007771942512
-0.1822980628431741 4.649968869755119 47.85239613563267
-0.195862681701559 -3.023497794093283 65.95588216475491
5.167330901707091 2.026958326207919 34.80823869081699
1.677593026823527 2.603482882817182 61.39420782881339
2.254883749171619 5.627666659480759 25.96178580864096
-2.805334596680981 -2.3460572325837 57.59807472278649

CELLS 2658 12176
1 0
1 1
1 2
1 3
2 0 4
2 4 5
2 5 6
2 6 7
2 7 8
2 8 1
2 0 9
2 9 10
2 10 11
2 11 12
2 12 13
2 13 14
2 14 15
2 15 16
2 16 17
2 17 18
2 18 19
2 19 20
2 20 21
2 21 22
2 22 0
2 1 23
2 23 24
2 24 25
2 25 26
2 26 27
2 27 28
2 28 29
2 29 30
2 30 31
2 31 32
2 32 33
2 33 1
2 2 34
2 34 35
2 35 36
2 36 37
2 37 38
2 38 39
2 39 40
2 40 41
2 41 42
2 42 43
2 43 44
2 44 45
2 45 46
2 46 47
2 47 48
2 48 49
2 49 50
2 50 51
2 51 2
2 3 52
2 52 53
2 53 54
2 54 55
2 55 56
2 56 57
2 57 58
2 58 59
2 59 60
2 60 61
2 61 3
2 2 62
2 62 63
2 63 64
2 64 65
2 65 66
2 66 67
2 67 68
2 68 69
2 69 70
2 70 71
2 71 72
2 72 73
2 73 74
2 74 75
2 75 76
2 76 77
2 77 78
2 78 3
3 4 153 0
3 0 158 4
3 9 158 0
3 0 153 22
3 8 150 1
3 1 151 8
3 1 150 23
3 33 151 1
3 5 91 4
3 4 155 5
3 91 153 4
3 4 158 155
3 5 85 6
3 6 143 5
3 5 155 85
3 5 143 91
3 7 83 6
3 6 130 7
3 83 143 6
3 85 130 6
3 7 90 8
3 8 133 7
3 7 133 83
3 7 130 90
3 90 150 8
3 8 151 133
3 10 159 9
3 9 159 158
3 11 88 10
3 88 159 10
3 12 139 11
3 11 139 88
3 13 80 12
3 80 139 12
3 14 135 13
3 13 135 80
3 15 157 14
3 14 157 135
3 16 87 15
3 87 157 15
3 17 145 16
3 16 145 87
3 18 79 17
3 79 145 17
3 19 146 18
3 18 146 79
3 20 141 19
3 141 146 19
3 21 86 20
3 86 141 20
3 22 138 21
3 21 138 86
3 22 153 138
3 23 123 24
3 23 150 123
3 24 82 25
3 24 123 82
3 25 147 26
3 82 147 25
3 26 134 27
3 26 147 134
3 27 81 28
3 27 134 81
3 28 121 29
3 81 121 28
3 29 129 30
3 121 129 29
3 30 84 31
3 30 129 84
3 31 93 32
3 84 93 31
3 32 89 33
3 32 93 89
3 89 151 33
3 79 142 118
3 118 145 79
3 79 146 142
3 80 132 120
3 120 139 80
3 80 135 132
3 81 124 121
3 81 137 124
3 134 137 81
3 82 123 117
3 117 140 82
3 140 147 82
3 127 128 83
3 83 152 127
3 128 143 83
3 133 152 83
3 84 94 93
3 84 95 94
3 84 129 95
3 116 130 85
3 85 136 116
3 85 155 136
3 125 141 86
3 86 144 125
3 138 144 86
3 87 145 118
3 118 149 87
3 87 149 122
3 122 157 87
3 139 148 88
3 148 154 88
3 154 159 88
3 93 119 89
3 119 152 89
3 133 151 89
3 89 152 133
3 123 150 90
3 90 156 123
3 130 156 90
3 91 143 128
3 128 144 91
3 91 144 138
3 138 153 91
3 154 155 92
3 92 159 154
3 155 158 92
3 158 159 92
3 94 119 93
3 95 96 94
3 96 100 94
3 100 119 94
3 95 97 96
3 95 98 97
3 95 129 98
3 97 131 96
3 96 101 100
3 96 131 101
3 98 99 97
3 99 103 97
3 103 131 97
3 98 124 99
3 121 124 98
3 98 129 121
3 99 104 103
3 99 105 104
3 99 124 105
3 101 102 100
3 102 127 100
3 100 127 119
3 101 125 102
3 101 126 125
3 101 131 126
3 125 144 102
3 102 128 127
3 102 144 128
3 104 118 103
3 118 142 103
3 103 142 131
3 105 106 104
3 106 149 104
3 104 149 118
3 105 107 106
3 105 137 107
3 124 137 105
3 107 108 106
3 108 122 106
3 122 149 106
3 107 109 108
3 107 110 109
3 107 137 110
3 109 132 108
3 108 135 122
3 132 135 108
3 110 111 109
3 111 112 109
3 112 132 109
3 110 115 111
3 110 134 115
3 110 137 134
3 111 113 112
3 111 140 113
3 115 140 111
3 113 114 112
3 114 120 112
3 120 132 112
3 113 116 114
3 113 117 116
3 113 140 117
3 116 136 114
3 114 148 120
3 136 148 114
3 134 147 115
3 115 147 140
3 117 156 116
3 116 156 130
3 123 156 117
3 127 152 119
3 120 148 139
3 135 157 122
3 126 141 125
3 131 142 126
3 126 146 141
3 142 146 126
3 136 154 148
3 136 155 154
3 23 164 1
3 1 164 33
3 24 163 23
3 163 164 23
3 25 171 24
3 24 171 163
3 26 171 25
3 27 160 26
3 160 171 26
3 28 168 27
3 27 168 160
3 29 168 28
3 30 162 29
3 162 168 29
3 31 170 30
3 30 170 162
3 32 170 31
3 33 161 32
3 161 170 32
3 33 164 161
3 160 167 166
3 166 171 160
3 160 168 167
3 164 165 161
3 165 169 161
3 169 170 161
3 167 168 162
3 162 169 167
3 162 170 169
3 163 165 164
3 163 166 165
3 163 171 166
3 166 167 165
3 167 169 165
3 0 175 2
3 2 176 0
3 9 175 0
3 0 176 22
3 2 175 34
3 51 176 2
3 10 35 9
3 35 34 9
3 34 175 9
3 11 36 10
3 36 35 10
3 12 174 11
3 37 36 11
3 11 174 37
3 39 12 13
3 38 12 39
3 38 174 12
3 14 40 13
3 40 39 13
3 15 41 14
3 14 41 40
3 16 172 15
3 42 41 15
3 15 172 42
3 16 17 44
3 44 43 16
3 43 172 16
3 45 17 18
3 44 17 45
3 19 46 18
3 18 46 45
3 20 173 19
3 19 47 46
3 19 173 47
3 21 49 20
3 20 49 48
3 48 173 20
3 22 50 21
3 21 50 49
3 22 51 50
3 22 176 51
3 37 174 38
3 42 172 43
3 47 173 48
3 34 456 2
3 2 455 51
3 62 455 2
3 2 456 62
3 3 448 52
3 61 452 3
3 78 448 3
3 3 452 78
3 35 199 34
3 199 456 34
3 36 443 35
3 35 443 199
3 37 196 36
3 196 443 36
3 38 460 37
3 37 460 196
3 39 183 38
3 183 460 38
3 40 426 39
3 39 426 183
3 41 194 40
3 194 426 40
3 42 424 41
3 41 424 194
3 43 182 42
3 182 424 42
3 44 429 43
3 43 429 182
3 45 195 44
3 195 429 44
3 46 423 45
3 45 423 195
3 47 185 46
3 185 423 46
3 48 462 47
3 47 462 185
3 49 425 48
3 425 462 48
3 50 193 49
3 193 425 49
3 51 430 50
3 50 430 193
3 51 455 430
3 52 339 53
3 52 448 339
3 53 432 54
3 339 432 53
3 54 191 55
3 54 432 191
3 55 433 56
3 191 433 55
3 56 437 57
3 433 437 56
3 57 187 58
3 57 437 187
3 58 390 59
3 187 390 58
3 59 197 60
3 59 390 197
3 60 398 61
3 197 398 60
3 398 452 61
3 63 200 62
3 62 431 63
3 200 455 62
3 62 456 431
3 63 192 64
3 64 363 63
3 63 431 192
3 63 363 200
3 65 188 64
3 64 336 65
3 188 363 64
3 192 336 64
3 65 186 66
3 66 402 65
3 65 336 186
3 65 402 188
3 67 362 66
3 66 446 67
3 186 446 66
3 362 402 66
3 68 180 67
3 67 361 68
3 180 362 67
3 67 446 361
3 68 179 69
3 69 202 68
3 68 361 179
3 68 202 180
3 70 201 69
3 69 355 70
3 179 355 69
3 201 202 69
3 71 177 70
3 70 190 71
3 177 201 70
3 70 355 190
3 71 350 72
3 72 418 71
3 71 418 177
3 190 350 71
3 72 178 73
3 73 348 72
3 72 350 178
3 348 418 72
3 74 181 73
3 73 428 74
3 178 428 73
3 181 348 73
3 75 407 74
3 74 444 75
3 74 407 181
3 428 444 74
3 75 184 76
3 76 346 75
3 75 444 184
3 346 407 75
3 77 189 76
3 76 337 77
3 184 337 76
3 189 346 76
3 77 198 78
3 78 344 77
3 77 344 189
3 77 337 198
3 198 448 78
3 78 452 344
3 177 204 201
3 177 236 204
3 177 418 236
3 178 352 323
3 323 428 178
3 350 352 178
3 179 463 355
3 361 439 179
3 439 463 179
3 202 203 180
3 203 205 180
3 205 362 180
3 181 405 348
3 181 406 405
3 181 407 406
3 182 429 371
3 371 458 182
3 182 458 424
3 413 414 183
3 183 415 413
3 414 460 183
3 183 426 415
3 320 438 184
3 184 444 320
3 184 438 337
3 304 423 185
3 185 440 304
3 376 440 185
3 185 462 376
3 331 335 186
3 186 336 331
3 335 446 186
3 325 392 187
3 187 437 325
3 187 392 390
3 188 411 363
3 402 403 188
3 403 411 188
3 344 345 189
3 345 422 189
3 189 422 346
3 190 351 350
3 190 427 351
3 355 427 190
3 191 395 324
3 324 457 191
3 191 432 395
3 191 457 433
3 192 383 336
3 192 451 383
3 431 451 192
3 193 430 417
3 417 453 193
3 193 453 425
3 424 441 194
3 194 445 426
3 441 445 194
3 410 429 195
3 195 450 410
3 423 450 195
3 384 443 196
3 196 449 384
3 414 449 196
3 196 460 414
3 390 391 197
3 391 447 197
3 197 447 398
3 337 338 198
3 338 339 198
3 339 448 198
3 199 443 384
3 384 451 199
3 199 451 431
3 431 456 199
3 363 417 200
3 417 430 200
3 430 455 200
3 201 404 202
3 204 404 201
3 202 404 203
3 203 206 205
3 203 396 206
3 203 404 396
3 236 237 204
3 237 330 204
3 330 404 204
3 206 207 205
3 207 296 205
3 296 362 205
3 206 208 207
3 206 209 208
3 206 396 209
3 208 365 207
3 207 354 296
3 207 365 354
3 209 210 208
3 210 212 208
3 212 365 208
3 209 211 210
3 209 326 211
3 209 396 326
3 211 357 210
3 210 213 212
3 210 357 213
3 326 327 211
3 327 328 211
3 328 357 211
3 213 214 212
3 214 230 212
3 230 365 212
3 213 215 214
3 213 216 215
3 213 357 216
3 215 364 214
3 214 265 230
3 214 364 265
3 216 217 215
3 217 233 215
3 233 364 215
3 216 218 217
3 216 358 218
3 357 358 216
3 218 219 217
3 219 380 217
3 217 380 233
3 218 220 219
3 218 254 220
3 218 358 254
3 220 221 219
3 221 228 219
3 228 380 219
3 220 222 221
3 220 399 222
3 254 399 220
3 222 223 221
3 223 386 221
3 221 386 228
3 222 224 223
3 222 225 224
3 222 399 225
3 224 226 223
3 226 227 223
3 227 386 223
3 225 340 224
3 224 229 226
3 224 340 229
3 307 340 225
3 225 341 307
3 225 399 341
3 226 231 227
3 229 377 226
3 226 377 231
3 231 232 227
3 232 385 227
3 385 386 227
3 228 389 380
3 386 400 228
3 228 400 389
3 340 343 229
3 343 435 229
3 229 435 377
3 265 266 230
3 266 278 230
3 278 365 230
3 231 234 232
3 231 235 234
3 231 377 235
3 234 257 232
3 257 258 232
3 258 385 232
3 233 367 364
3 233 369 367
3 233 380 369
3 235 366 234
3 234 259 257
3 234 366 259
3 319 333 235
3 235 377 319
3 333 366 235
3 236 238 237
3 236 297 238
3 236 418 297
3 238 239 237
3 239 289 237
3 289 330 237
3 238 240 239
3 238 349 240
3 297 349 238
3 240 241 239
3 241 359 239
3 239 359 289
3 240 242 241
3 240 272 242
3 240 349 272
3 242 243 241
3 243 269 241
3 269 359 241
3 242 244 243
3 242 353 244
3 272 353 242
3 244 245 243
3 245 382 243
3 243 382 269
3 244 246 245
3 244 247 246
3 244 353 247
3 246 252 245
3 252 263 245
3 263 382 245
3 247 248 246
3 248 360 246
3 246 360 252
3 247 249 248
3 247 356 249
3 353 356 247
3 249 250 248
3 250 251 248
3 251 360 248
3 249 260 250
3 249 261 260
3 249 356 261
3 250 253 251
3 250 409 253
3 260 409 250
3 253 255 251
3 255 388 251
3 251 388 360
3 252 264 263
3 252 298 264
3 252 360 298
3 253 256 255
3 253 262 256
3 253 409 262
3 254 378 342
3 342 399 254
3 358 378 254
3 256 267 255
3 267 268 255
3 268 388 255
3 262 277 256
3 256 381 267
3 277 381 256
3 257 416 258
3 259 274 257
3 274 416 257
3 258 421 385
3 416 434 258
3 258 434 421
3 259 275 274
3 259 283 275
3 259 366 283
3 261 273 260
3 273 401 260
3 401 409 260
3 261 276 273
3 261 280 276
3 261 356 280
3 262 290 277
3 262 291 290
3 262 409 291
3 264 286 263
3 286 292 263
3 292 382 263
3 264 287 286
3 264 387 287
3 298 387 264
3 265 293 266
3 265 294 293
3 265 364 294
3 266 279 278
3 266 375 279
3 293 375 266
3 267 270 268
3 267 284 270
3 267 381 284
3 270 271 268
3 271 397 268
3 268 397 388
3 329 359 269
3 269 420 329
3 382 420 269
3 270 419 271
3 284 285 270
3 285 419 270
3 347 408 271
3 271 419 347
3 271 408 397
3 349 393 272
3 272 379 353
3 272 393 379
3 276 436 273
3 273 461 401
3 436 461 273
3 275 412 274
3 412 413 274
3 413 416 274
3 283 295 275
3 295 301 275
3 301 412 275
3 280 281 276
3 281 282 276
3 282 436 276
3 290 324 277
3 324 394 277
3 277 394 381
3 279 299 278
3 299 354 278
3 354 365 278
3 279 302 299
3 279 303 302
3 279 375 303
3 280 288 281
3 280 379 288
3 356 379 280
3 281 422 282
3 288 300 281
3 300 422 281
3 282 422 345
3 345 447 282
3 391 436 282
3 282 447 391
3 283 331 295
3 283 332 331
3 283 366 332
3 284 320 285
3 284 321 320
3 284 381 321
3 320 322 285
3 322 323 285
3 323 419 285
3 287 307 286
3 286 341 292
3 307 341 286
3 287 308 307
3 287 309 308
3 287 387 309
3 288 406 300
3 379 393 288
3 393 406 288
3 289 327 326
3 326 330 289
3 289 359 327
3 291 306 290
3 306 457 290
3 290 457 324
3 291 325 306
3 291 401 325
3 291 409 401
3 341 342 292
3 342 420 292
3 292 420 382
3 294 304 293
3 304 440 293
3 293 440 375
3 294 305 304
3 294 367 305
3 364 367 294
3 295 383 301
3 331 336 295
3 336 383 295
3 354 403 296
3 296 402 362
3 296 403 402
3 348 405 297
3 297 418 348
3 297 405 349
3 360 388 298
3 298 397 387
3 388 397 298
3 302 411 299
3 299 403 354
3 299 411 403
3 300 407 346
3 346 422 300
3 406 407 300
3 383 384 301
3 384 449 301
3 301 449 412
3 303 453 302
3 302 417 411
3 302 453 417
3 375 376 303
3 376 425 303
3 425 453 303
3 305 450 304
3 304 450 423
3 367 368 305
3 368 410 305
3 410 450 305
3 325 437 306
3 306 437 433
3 433 457 306
3 308 340 307
3 309 310 308
3 310 343 308
3 308 343 340
3 309 311 310
3 309 408 311
3 387 408 309
3 311 312 310
3 312 313 310
3 313 343 310
3 311 314 312
3 311 347 314
3 311 408 347
3 312 315 313
3 314 454 312
3 312 454 315
3 315 316 313
3 316 435 313
3 313 435 343
3 347 442 314
3 314 352 351
3 351 454 314
3 314 442 352
3 315 317 316
3 315 427 317
3 315 454 427
3 317 318 316
3 318 319 316
3 319 435 316
3 317 439 318
3 427 463 317
3 317 463 439
3 318 333 319
3 318 334 333
3 318 439 334
3 377 435 319
3 321 438 320
3 320 444 322
3 381 394 321
3 394 459 321
3 321 459 438
3 322 428 323
3 322 444 428
3 352 442 323
3 323 442 419
3 324 395 394
3 325 461 392
3 401 461 325
3 326 396 330
3 327 329 328
3 327 359 329
3 329 378 328
3 328 358 357
3 328 378 358
3 329 420 378
3 396 404 330
3 332 335 331
3 333 334 332
3 332 366 333
3 334 335 332
3 334 361 335
3 334 439 361
3 361 446 335
3 337 438 338
3 338 395 339
3 338 459 395
3 438 459 338
3 395 432 339
3 341 399 342
3 378 420 342
3 344 398 345
3 344 452 398
3 398 447 345
3 419 442 347
3 349 405 393
3 351 352 350
3 427 454 351
3 353 379 356
3 355 463 427
3 411 417 363
3 367 369 368
3 369 370 368
3 370 371 368
3 371 410 368
3 369 389 370
3 380 389 369
3 370 372 371
3 370 373 372
3 370 389 373
3 372 458 371
3 371 429 410
3 373 374 372
3 374 441 372
3 441 458 372
3 373 421 374
3 389 400 373
3 400 421 373
3 421 434 374
3 434 445 374
3 374 445 441
3 375 440 376
3 376 462 425
3 383 451 384
3 385 400 386
3 385 421 400
3 397 408 387
3 390 392 391
3 392 436 391
3 392 461 436
3 405 406 393
3 395 459 394
3 412 414 413
3 412 449 414
3 415 416 413
3 415 434 416
3 426 445 415
3 415 445 434
3 424 458 441
3 52 470 3
3 3 470 61
3 53 466 52
3 466 470 52
3 54 471 53
3 53 471 466
3 55 471 54
3 56 465 55
3 465 471 55
3 57 469 56
3 56 469 465
3 58 469 57
3 59 467 58
3 467 469 58
3 60 467 59
3 61 464 60
3 464 467 60
3 61 470 464
3 464 468 467
3 464 470 468
3 465 469 468
3 468 471 465
3 468 470 466
3 466 471 468
3 468 469 467
4 243 485 492 493
4 236 418 480 495
4 418 494 480 495
4 243 492 382 493
4 382 492 484 493
4 287 493 484 497
4 277 512 394 521
4 482 388 505 518
4 236 480 237 495
4 240 241 485 495
4 238 236 237 495
4 242 240 241 485
4 243 485 241 492
4 250 248 251 479
4 277 501 512 521
4 353 503 485 505
4 277 394 501 521
4 466 471 432 478
4 480 492 237 495
4 298 482 388 505
4 241 492 485 495
4 243 242 241 485
4 248 251 479 505
4 500 505 388 518
4 249 356 247 505
4 492 498 329 506
4 249 503 356 505
4 249 479 503 505
4 238 237 492 495
4 432 501 478 509
4 251 500 479 505
4 394 277 490 512
4 298 493 482 505
4 404 481 396 498
4 27 160 26 476
4 485 503 353 504
4 432 478 471 509
4 475 512 501 521
4 160 476 27 491
4 298 397 388 482
4 263 382 484 493
4 397 388 482 518
4 483 510 482 518
4 287 484 308 497
4 483 494 418 495
4 177 236 418 480
4 381 394 277 490
4 323 510 483 518
4 481 396 498 508
4 404 496 481 498
4 29 358 486 491
4 253 479 251 500
4 224 27 476 491
4 177 480 418 494
4 327 498 486 506
4 287 286 484 493
4 327 486 328 506
4 253 250 251 479
4 480 492 484 498
4 475 502 501 512
4 248 479 249 505
4 420 492 329 506
4 240 492 241 495
4 420 484 492 506
4 480 484 472 498
4 166 160 167 488
4 225 491 499 506
4 475 502 282 516
4 329 492 359 498
4 501 502 291 512
4 323 483 513 518
4 502 512 475 523
4 382 420 484 492
4 204 496 404 498
4 252 493 298 505
4 291 512 502 523
4 484 498 492 506
4 379 353 503 504
4 287 387 493 497
4 476 225 491 499
4 224 27 26 476
4 72 418 483 494
4 481 498 486 508
4 224 222 27 491
4 167 488 160 491
4 29 218 358 491
4 477 454 497 510
4 249 248 250 479
4 282 502 475 523
4 473 492 485 493
4 308 497 484 499
4 379 272 353 504
4 477 494 454 510
4 387 482 493 497
4 272 485 353 504
4 312 477 454 497
4 245 485 243 493
4 204 480 496 498
4 382 269 420 492
4 263 382 292 484
4 226 224 26 476
4 282 511 475 516
4 442 510 323 518
4 381 490 277 512
4 246 485 245 493
4 472 480 477 484
4 466 432 339 478
4 466 468 471 478
4 472 486 481 498
4 477 480 473 484
4 225 499 341 506
4 327 326 211 486
4 225 399 491 506
4 485 493 246 505
4 326 486 498 508
4 224 476 225 491
4 191 501 432 509
4 282 475 511 523
4 406 503 489 513
4 406 504 503 513
4 464 478 452 519
4 397 268 388 518
4 478 516 344 519
4 420 269 329 492
4 327 329 498 506
4 317 487 463 520
4 486 491 358 506
4 485 503 474 505
4 314 312 454 497
4 472 498 484 506
4 358 30 29 486
4 253 479 500 512
4 387 482 298 493
4 287 387 264 493
4 327 326 486 498
4 245 243 382 493
4 307 308 287 484
4 327 328 329 506
4 317 517 487 520
4 225 476 224 499
4 252 246 493 505
4 168 167 160 491
4 348 483 418 495
4 29 486 162 491
4 464 470 452 478
4 394 490 321 521
4 26 377 226 476
4 211 486 326 508
4 459 394 321 521
4 268 500 388 518
4 163 488 514 522
4 395 478 432 501
4 225 341 399 506
4 252 298 360 505
4 377 26 25 476
4 484 341 499 506
4 320 489 490 507
4 247 353 244 505
4 204 201 404 496
4 246 244 245 485
4 323 513 507 518
4 401 291 502 523
4 239 238 237 492
4 474 503 485 504
4 165 163 488 514
4 477 497 310 499
4 484 492 473 493
4 477 472 487 496
4 473 484 480 492
4 314 497 454 510
4 408 482 387 497
4 454 494 351 510
4 326 498 396 508
4 72 483 350 494
4 353 485 244 505
4 483 474 513 518
4 487 514 488 522
4 237 492 480 498
4 298 388 360 505
4 320 490 489 515
4 191 432 471 509
4 480 494 473 495
4 263 484 286 493
4 468 471 478 509
4 269 382 243 492
4 243 245 244 485
4 166 476 160 488
4 254 358 491 506
4 442 482 510 518
4 282 436 502 523
4 454 494 477 520
4 277 501 290 512
4 350 494 483 510
4 240 485 272 495
4 30 210 31 486
4 203 481 33 508
4 30 358 357 486
4 246 245 252 493
4 261 280 479 511
4 287 264 286 493
4 251 388 500 505
4 317 427 517 520
4 166 165 163 488
4 256 253 500 512
4 406 489 407 513
4 490 515 438 521
4 482 493 485 505
4 31 486 210 508
4 348 495 405 504
4 272 495 485 504
4 474 483 482 518
4 327 329 359 498
4 406 300 489 503
4 317 463 427 520
4 485 492 473 495
4 26 171 25 476
4 277 290 262 512
4 297 348 418 495
4 396 404 203 481
4 348 483 495 504
4 348 297 405 495
4 160 488 476 491
4 347 482 408 497
4 484 497 477 499
4 470 466 448 478
4 477 496 487 520
4 477 487 472 517
4 348 72 418 483
4 272 240 242 485
4 71 177 418 494
4 397 298 387 482
4 254 358 218 491
4 474 482 505 518
4 204 404 330 498
4 484 493 473 497
4 206 203 33 508
4 357 210 30 486
4 204 480 201 496
4 474 505 500 518
4 349 495 272 504
4 477 480 472 496
4 177 480 494 520
4 237 289 492 498
4 189 515 511 516
4 307 308 484 499
4 482 483 474 485
4 25 377 476 522
4 255 256 253 500
4 473 483 482 485
4 308 310 497 499
4 479 500 474 505
4 481 486 472 488
4 321 490 438 521
4 261 276 280 511
4 27 222 28 491
4 345 344 516 519
4 474 503 479 505
4 310 477 499 517
4 206 33 32 508
4 179 496 487 514
4 473 492 480 495
4 409 260 250 512
4 261 511 479 523
4 202 481 404 496
4 189 346 511 515
4 459 321 438 521
4 454 351 494 520
4 323 178 483 510
4 211 210 486 508
4 330 404 396 498
4 28 220 218 491
4 347 482 442 518
4 395 478 501 521
4 472 499 491 506
4 422 511 282 516
4 237 480 204 498
4 292 382 420 484
4 261 479 280 503
4 253 251 255 500
4 347 482 497 510
4 30 162 29 486
4 29 28 218 491
4 452 470 78 478
4 239 492 240 495
4 377 229 226 476
4 261 276 511 523
4 260 479 250 512
4 238 492 239 495
4 256 500 490 512
4 180 1 33 514
4 472 476 491 499
4 160 27 168 491
4 280 503 479 511
4 248 249 247 505
4 180 33 481 514
4 68 481 496 514
4 253 250 479 512
4 164 165 161 488
4 165 488 164 514
4 29 30 358 216
4 435 499 476 517
4 33 206 205 203
4 502 516 478 519
4 327 211 328 486
4 427 477 315 517
4 487 496 463 520
4 263 292 286 484
4 378 486 358 506
4 470 468 466 478
4 179 68 496 514
4 211 210 357 486
4 224 476 229 499
4 179 68 69 496
4 359 329 269 492
4 406 300 407 489
4 396 481 203 508
4 310 313 477 517
4 320 444 489 507
4 307 484 341 499
4 486 488 481 508
4 468 470 464 478
4 246 244 485 505
4 307 287 286 484
4 477 484 473 497
4 323 483 178 513
4 473 494 483 495
4 472 481 496 498
4 162 486 488 491
4 33 203 180 481
4 466 339 448 478
4 347 408 311 497
4 349 240 272 495
4 27 224 223 222
4 477 480 496 520
4 202 68 481 496
4 479 490 489 500
4 356 261 280 503
4 464 468 478 519
4 239 237 289 492
4 406 407 181 513
4 320 489 444 515
4 487 517 477 520
4 427 477 517 520
4 479 489 474 500
4 287 309 387 497
4 189 511 422 516
4 482 485 474 505
4 358 378 328 486
4 220 28 222 491
4 300 489 503 511
4 238 239 240 495
4 339 432 395 478
4 29 162 168 491
4 267 490 256 500
4 381 321 394 490
4 419 347 442 518
4 224 225 222 491
4 260 479 512 523
4 243 244 242 485
4 350 483 178 510
4 422 189 346 511
4 487 488 476 522
4 470 448 78 478
4 161 488 169 508
4 486 498 472 506
4 171 25 476 522
4 237 236 204 480
4 483 504 348 513
4 310 499 313 517
4 72 71 418 494
4 355 463 496 520
4 409 512 401 523
4 473 480 477 494
4 330 237 204 498
4 179 463 487 496
4 161 33 481 508
4 378 358 254 506
4 507 513 474 518
4 475 515 490 521
4 442 482 347 510
4 226 229 224 476
4 409 260 512 523
4 435 229 476 499
4 72 178 350 483
4 377 435 476 522
4 30 358 216 357
4 202 69 68 496
4 489 500 490 507
4 181 348 504 513
4 325 502 501 509
4 406 288 300 503
4 317 427 315 517
4 165 164 163 514
4 452 478 398 519
4 236 297 418 495
4 477 497 494 510
4 198 77 78 478
4 344 398 452 478
4 206 32 33 205
4 473 485 482 493
4 353 272 242 485
4 401 512 291 523
4 474 500 489 507
4 203 404 202 481
4 170 169 488 508
4 310 477 312 497
4 177 201 204 480
4 264 387 298 493
4 436 282 276 523
4 398 478 344 519
4 356 379 353 503
4 282 511 276 523
4 344 478 78 516
4 300 503 288 511
4 78 478 77 516
4 452 78 344 478
4 464 452 398 519
4 481 488 487 514
4 31 170 30 486
4 211 326 209 508
4 347 497 311 510
4 318 317 316 487
4 241 240 239 492
4 315 312 313 477
4 472 484 477 499
4 187 392 502 519
4 397 387 408 482
4 502 509 187 519
4 198 77 478 516
4 472 487 481 488
4 277 394 324 501
4 328 486 378 506
4 339 478 395 521
4 359 492 289 498
4 343 499 435 517
4 473 493 482 497
4 472 488 486 491
4 291 401 409 512
4 171 26 160 476
4 340 225 224 499
4 473 494 477 497
4 406 181 504 513
4 179 355 463 496
4 170 486 31 508
4 171 476 166 522
4 164 161 481 488
4 408 387 309 497
4 169 161 165 488
4 177 204 236 480
4 483 485 473 495
4 340 224 229 499
4 171 166 163 522
4 323 442 352 510
4 481 164 488 514
4 379 393 272 504
4 256 267 381 490
4 168 27 28 491
4 310 313 312 477
4 318 487 316 522
4 325 291 501 502
4 474 485 483 504
4 476 472 487 517
4 476 488 472 491
4 225 307 341 499
4 435 343 229 499
4 323 178 428 513
4 256 381 277 512
4 181 348 405 504
4 315 454 312 477
4 292 484 420 506
4 315 427 454 477
4 345 422 282 516
4 346 489 300 511
4 401 502 461 523
4 309 287 308 497
4 475 479 490 511
4 255 251 388 500
4 438 490 320 515
4 260 261 249 479
4 435 517 476 522
4 250 260 249 479
4 164 481 33 514
4 405 495 349 504
4 269 243 241 492
4 344 78 77 516
4 256 490 381 512
4 487 496 481 514
4 472 476 487 488
4 211 209 210 508
4 489 490 479 511
4 315 477 313 517
4 251 360 388 505
4 419 442 323 518
4 1 164 33 514
4 316 487 317 517
4 454 477 427 520
4 284 500 270 507
4 377 435 229 476
4 405 297 349 495
4 353 242 244 485
4 472 491 486 506
4 481 488 161 508
4 482 483 473 510
4 28 29 168 491
4 263 245 382 493
4 161 32 33 508
4 487 517 316 522
4 346 407 300 489
4 73 483 348 513
4 444 489 507 513
4 471 465 191 509
4 477 472 499 517
4 327 359 289 498
4 201 202 404 496
4 314 454 351 510
4 218 220 254 491
4 28 27 221 222
4 284 490 500 507
4 160 166 171 476
4 481 487 472 496
4 475 511 490 515
4 490 511 489 515
4 406 393 503 504
4 467 390 187 519
4 180 481 68 514
4 253 409 250 512
4 180 203 202 481
4 198 516 478 521
4 164 161 33 481
4 439 514 487 522
4 323 352 178 510
4 490 500 479 512
4 476 499 472 517
4 271 482 347 518
4 489 511 346 515
4 288 503 281 511
4 397 482 271 518
4 489 503 474 513
4 494 497 473 510
4 391 447 282 502
4 191 395 432 501
4 342 292 420 506
4 246 247 244 505
4 252 360 246 505
4 328 357 358 486
4 68 180 202 481
4 472 496 480 498
4 312 314 311 497
4 379 503 393 504
4 264 263 286 493
4 191 457 501 509
4 261 479 260 523
4 69 355 179 496
4 461 502 436 523
4 280 281 503 511
4 310 343 313 499
4 326 330 396 498
4 187 509 469 519
4 503 504 474 513
4 325 501 306 509
4 78 448 198 478
4 472 484 499 506
4 198 478 339 521
4 300 288 281 511
4 187 469 467 519
4 474 489 479 503
4 316 517 435 522
4 483 494 473 510
4 325 401 291 502
4 288 406 393 503
4 170 488 486 508
4 221 220 28 222
4 280 281 288 503
4 198 337 77 516
4 181 73 348 513
4 209 326 396 508
4 187 390 392 519
4 270 507 500 518
4 255 267 256 500
4 271 397 408 482
4 444 74 489 513
4 75 489 346 515
4 189 76 346 515
4 475 490 479 512
4 313 499 343 517
4 198 337 516 521
4 467 390 58 187
4 325 187 502 509
4 286 341 307 484
4 334 514 439 522
4 162 30 170 486
4 271 408 347 482
4 72 348 73 483
4 438 515 337 521
4 397 271 268 518
4 328 378 329 506
4 67 1 180 514
4 76 515 189 516
4 377 319 435 522
4 346 75 407 489
4 184 320 444 515
4 286 292 341 484
4 284 490 267 500
4 254 491 399 506
4 320 490 284 507
4 323 428 507 513
4 284 270 285 507
4 205 180 33 203
4 468 509 478 519
4 239 289 359 492
4 357 328 211 486
4 515 516 337 521
4 478 501 475 502
4 184 438 320 515
4 396 203 206 508
4 163 514 23 522
4 225 399 222 491
4 485 495 483 504
4 391 282 436 502
4 306 325 291 501
4 325 187 392 502
4 407 489 74 513
4 342 399 341 506
4 72 350 71 494
4 448 339 198 478
4 23 514 334 522
4 318 439 317 487
4 482 473 497 510
4 187 58 467 469
4 236 238 297 495
4 454 427 351 520
4 438 321 320 490
4 419 271 347 518
4 252 264 298 493
4 394 395 324 501
4 444 322 428 507
4 167 162 169 488
4 170 161 169 508
4 166 167 165 488
4 284 267 270 500
4 475 501 478 521
4 330 289 237 498
4 477 494 480 520
4 310 308 343 499
4 478 502 475 516
4 255 388 268 500
4 351 494 350 510
4 73 178 483 513
4 191 465 433 509
4 394 395 501 521
4 318 439 487 522
4 511 515 475 516
4 272 393 349 504
4 76 337 515 516
4 31 210 209 508
4 444 507 428 513
4 352 350 178 510
4 444 489 75 515
4 267 284 381 490
4 276 281 280 511
4 447 502 391 519
4 254 399 342 506
4 225 340 307 499
4 325 461 401 502
4 216 358 29 218
4 406 181 405 504
4 71 190 70 520
4 319 316 435 522
4 270 285 507 518
4 311 497 314 510
4 309 308 310 497
4 439 179 487 514
4 277 324 290 501
4 75 74 407 489
4 208 31 209 508
4 71 494 190 520
4 24 163 23 522
4 468 465 471 509
4 311 408 309 497
4 479 503 489 511
4 444 74 75 489
4 407 74 181 513
4 463 317 439 487
4 191 433 457 509
4 324 395 191 501
4 310 312 311 497
4 347 311 314 510
4 273 461 436 523
4 67 180 68 514
4 262 291 409 512
4 229 343 340 499
4 323 507 285 518
4 72 73 178 483
4 190 494 351 520
4 251 248 360 505
4 475 478 516 521
4 201 69 202 496
4 475 512 479 523
4 479 511 475 523
4 222 399 220 491
4 355 69 70 496
4 208 32 31 508
4 320 284 285 507
4 69 201 70 496
4 306 501 457 509
4 444 428 74 513
4 198 339 338 521
4 379 288 393 503
4 208 206 32 508
4 273 436 276 523
4 209 206 208 508
4 324 191 457 501
4 56 433 465 509
4 70 355 496 520
4 256 277 262 512
4 476 517 487 522
4 345 189 422 516
4 76 77 337 516
4 25 319 377 522
4 339 466 53 432
4 23 334 24 522
4 179 463 439 487
4 466 471 53 432
4 474 504 483 513
4 464 197 467 519
4 268 270 500 518
4 409 401 260 523
4 261 273 276 523
4 270 267 268 500
4 349 238 240 495
4 208 31 210 209
4 252 245 263 493
4 422 346 300 511
4 378 420 329 506
4 323 428 322 507
4 351 350 352 510
4 419 323 285 518
4 471 55 191 465
4 391 502 392 519
4 398 197 464 519
4 321 284 320 490
4 190 351 427 520
4 276 282 281 511
4 327 289 326 498
4 184 444 75 515
4 361 439 334 514
4 355 427 463 520
4 318 334 439 522
4 339 395 338 521
4 167 169 165 488
4 393 405 349 504
4 315 316 317 517
4 280 379 356 503
4 406 405 393 504
4 73 428 178 513
4 42 15 182 172
4 182 16 43 172
4 474 507 489 513
4 461 392 436 502
4 220 399 254 491
4 391 392 390 519
4 186 150 123 90
4 359 241 239 492
4 76 75 346 515
4 320 322 444 507
4 396 206 209 508
4 359 269 241 492
4 501 502 478 509
4 60 467 464 197
4 475 516 515 521
4 264 252 263 493
4 15 87 182 172
4 182 87 16 172
4 198 338 337 521
4 325 437 187 509
4 290 306 291 501
4 338 438 337 521
4 361 334 23 514
4 307 340 308 499
4 27 223 221 222
4 349 297 238 495
4 464 467 468 519
4 433 306 457 509
4 256 262 253 512
4 285 323 322 507
4 248 247 246 505
4 254 342 378 506
4 289 330 326 498
4 268 267 255 500
4 219 218 28 220
4 309 310 311 497
4 422 281 282 511
4 433 191 55 465
4 350 351 190 494
4 464 398 60 197
4 26 227 231 232
4 365 119 94 93
4 261 260 273 523
4 321 381 284 490
4 500 507 474 518
4 350 190 71 494
4 337 438 184 515
4 278 119 94 365
4 362 1 33 180
4 437 469 187 509
4 273 401 461 523
4 394 459 395 521
4 436 392 391 502
4 76 189 77 516
4 100 127 278 299
4 280 288 379 503
4 318 316 319 522
4 100 127 119 278
4 338 459 438 521
4 439 361 179 514
4 342 420 378 506
4 278 94 230 365
4 442 347 314 510
4 262 409 253 512
4 320 285 322 507
4 343 308 340 499
4 325 306 437 509
4 56 437 433 509
4 365 93 207 354
4 270 419 285 518
4 293 440 131 101
4 195 450 142 118
4 175 0 2 62
4 0 2 62 176
4 84 215 30 129
4 213 215 30 84
4 232 231 26 147
4 96 265 95 97
4 62 4 0 176
4 296 33 207 205
4 84 212 230 93
4 467 59 390 197
4 126 131 440 101
4 127 119 278 299
4 361 1 67 514
4 467 197 390 519
4 215 216 129 217
4 32 365 208 93
4 464 61 452 470
4 93 32 365 207
4 361 23 1 514
4 231 26 25 377
4 478 509 502 519
4 98 364 129 233
4 278 279 100 299
4 213 214 215 84
4 279 100 101 375
4 248 246 360 505
4 313 343 435 517
4 219 28 121 228
4 25 333 319 522
4 357 213 30 210
4 208 365 32 207
4 207 93 89 354
4 175 158 0 62
4 362 67 1 180
4 400 137 385 386
4 140 111 259 113
4 129 216 29 217
4 43 42 182 172
4 217 121 129 233
4 102 100 101 279
4 268 271 270 518
4 337 184 76 515
4 82 25 24 235
4 369 124 370 389
4 127 100 279 299
4 94 84 230 93
4 207 89 33 296
4 265 294 364 95
4 28 29 218 219
4 392 461 325 502
4 214 265 95 94
4 265 214 230 94
4 208 212 31 93
4 26 227 232 134
4 294 265 96 97
4 266 101 100 375
4 129 95 364 98
4 313 435 316 517
4 163 164 23 514
4 331 186 123 90
4 265 294 95 97
4 4 62 455 176
4 364 215 129 233
4 279 101 102 375
4 372 104 149 106
4 95 294 364 97
4 84 31 213 212
4 365 94 230 93
4 78 452 3 470
4 186 150 335 123
4 344 77 189 516
4 100 279 266 375
4 464 61 398 452
4 195 450 79 142
4 450 195 410 118
4 95 215 214 129
4 281 422 300 511
4 462 141 20 173
4 401 273 260 523
4 207 33 32 205
4 24 333 25 522
4 161 170 32 508
4 175 2 456 62
4 448 78 3 470
4 76 184 75 515
4 208 365 212 93
4 104 372 105 106
4 226 227 26 223
4 455 62 2 176
4 296 89 133 403
4 52 448 470 466
4 440 126 101 375
4 26 232 147 134
4 25 377 319 235
4 89 33 32 207
4 265 96 94 266
4 126 440 125 375
4 315 313 316 517
4 216 30 215 129
4 361 1 23 446
4 213 31 30 210
4 68 179 361 514
4 52 448 466 339
4 372 374 373 106
4 367 364 97 98
4 29 30 216 129
4 134 385 137 386
4 94 100 278 266
4 175 456 158 62
4 457 306 290 501
4 84 214 215 129
4 81 121 28 228
4 214 84 95 129
4 400 389 137 228
4 131 305 97 103
4 365 230 212 93
4 361 67 68 514
4 208 31 32 93
4 364 215 214 95
4 210 213 31 212
4 377 231 26 226
4 213 30 31 84
4 351 352 314 510
4 98 129 121 233
4 457 290 324 501
4 369 370 124 105
4 27 26 227 223
4 86 141 20 425
4 181 74 73 513
4 274 259 111 113
4 31 32 170 508
4 123 82 283 117
4 200 63 5 143
4 362 1 66 151
4 468 469 465 509
4 124 380 121 228
4 101 96 293 266
4 89 296 354 403
4 278 230 94 266
4 1 361 67 446
4 125 101 126 375
4 94 230 265 266
4 7 130 90 336
4 137 389 124 228
4 124 99 369 105
4 124 370 389 105
4 372 370 104 105
4 98 367 364 233
4 171 24 25 522
4 364 215 95 129
4 121 380 219 228
4 425 141 20 462
4 84 214 95 94
4 279 102 127 302
4 152 133 89 403
4 96 101 100 266
4 121 217 380 233
4 64 130 7 336
4 24 171 163 522
4 354 152 89 403
4 100 94 96 266
4 63 5 62 200
4 214 84 230 94
4 20 48 462 173
4 369 99 370 105
4 1 8 66 151
4 344 189 345 516
4 155 158 92 431
4 97 364 95 98
4 114 301 275 116
4 116 383 130 85
4 232 385 110 134
4 81 134 137 386
4 107 373 374 106
4 6 5 63 143
4 142 79 195 118
4 137 400 81 386
4 176 455 4 153
4 118 87 371 149
4 466 53 52 339
4 371 87 429 182
4 93 365 119 354
4 305 294 131 97
4 259 257 111 140
4 235 319 25 333
4 59 467 60 197
4 158 92 431 456
4 376 125 440 375
4 383 116 130 336
4 133 402 296 403
4 338 395 459 521
4 49 21 86 193
4 441 458 122 106
4 32 206 207 205
4 57 58 187 469
4 36 10 443 88
4 302 127 279 299
4 217 29 121 219
4 183 132 80 120
4 5 4 62 200
4 119 89 93 354
4 333 334 318 522
4 6 5 192 63
4 228 219 28 221
4 110 115 232 134
4 98 380 124 369
4 24 23 123 332
4 271 419 270 518
4 81 124 121 228
4 233 380 98 369
4 390 197 391 519
4 90 186 8 65
4 214 84 212 230
4 190 427 355 520
4 259 111 257 274
4 447 197 398 519
4 125 141 86 425
4 81 137 124 228
4 187 437 57 469
4 366 82 24 235
4 29 28 121 219
4 59 390 58 467
4 8 7 90 65
4 372 104 371 149
4 373 389 105 137
4 101 125 102 375
4 428 73 74 513
4 63 200 363 143
4 217 129 215 233
4 363 6 63 143
4 27 81 221 386
4 228 28 81 221
4 188 7 6 83
4 142 450 305 103
4 194 441 122 445
4 471 191 54 432
4 81 400 137 228
4 89 32 93 207
4 333 24 334 522
4 131 294 293 96
4 99 97 367 103
4 416 111 112 274
4 212 84 31 93
4 293 101 266 375
4 402 362 66 151
4 304 146 142 126
4 116 156 130 336
4 366 82 140 117
4 98 121 380 233
4 102 127 100 279
4 28 27 81 221
4 275 113 114 116
4 370 104 371 372
4 125 141 425 376
4 182 371 87 149
4 365 278 119 354
4 80 135 415 426
4 113 412 275 114
4 23 164 1 514
4 217 218 29 219
4 332 123 82 283
4 123 335 186 331
4 216 215 30 213
4 81 228 221 386
4 120 80 414 139
4 424 42 41 157
4 135 415 426 445
4 380 124 389 228
4 94 100 119 278
4 96 95 265 94
4 447 391 197 519
4 139 196 148 88
4 140 259 366 117
4 367 99 103 368
4 183 413 132 120
4 423 304 146 142
4 155 154 451 92
4 10 36 11 88
4 303 102 125 375
4 64 6 130 192
4 442 314 352 510
4 49 21 20 86
4 220 28 219 221
4 104 103 368 410
4 138 50 22 430
4 415 135 132 445
4 213 30 216 357
4 158 4 0 62
4 233 98 367 369
4 70 190 355 520
4 363 188 6 83
4 66 8 402 151
4 373 400 389 137
4 458 441 372 106
4 22 21 50 138
4 84 213 214 212
4 293 440 304 131
4 85 130 6 192
4 471 54 53 432
4 191 54 55 471
4 17 44 195 145
4 97 305 367 103
4 429 118 87 371
4 265 293 294 96
4 6 5 85 192
4 306 433 437 509
4 117 113 275 116
4 133 402 151 296
4 402 133 188 403
4 196 414 139 148
4 416 257 111 274
4 146 304 185 126
4 150 8 186 66
4 223 227 27 386
4 429 16 43 182
4 130 7 6 64
4 96 293 131 101
4 176 4 0 153
4 17 44 45 195
4 20 49 86 425
4 193 138 144 417
4 414 196 449 148
4 88 10 443 159
4 83 6 363 143
4 89 133 151 296
4 149 122 458 106
4 194 122 135 445
4 274 412 275 113
4 112 274 113 114
4 20 48 425 462
4 259 275 283 117
4 96 265 293 266
4 380 217 121 219
4 125 440 126 376
4 151 402 362 296
4 98 99 367 369
4 49 86 425 193
4 259 283 366 117
4 132 109 416 415
4 135 40 14 194
4 105 372 373 106
4 31 210 212 208
4 86 21 138 193
4 133 83 188 403
4 121 129 29 217
4 131 440 304 126
4 105 389 124 137
4 274 112 412 114
4 303 279 102 375
4 354 278 119 299
4 413 183 414 120
4 121 380 124 98
4 138 91 144 417
4 275 259 113 117
4 14 13 40 135
4 206 208 32 207
4 143 128 363 411
4 100 279 278 266
4 37 11 196 139
4 200 5 91 143
4 122 458 87 149
4 440 185 304 126
4 102 144 302 453
4 304 185 423 146
4 101 293 440 375
4 103 450 305 410
4 302 303 102 453
4 39 13 80 426
4 66 67 1 362
4 152 354 299 403
4 443 384 196 88
4 259 366 234 140
4 104 103 410 118
4 411 152 299 403
4 193 430 138 417
4 16 429 87 182
4 103 305 367 368
4 259 234 257 140
4 192 85 130 336
4 113 274 412 114
4 96 131 294 97
4 33 362 180 205
4 303 125 86 425
4 299 127 152 411
4 15 41 42 157
4 354 119 152 299
4 118 79 195 145
4 398 61 464 60
4 196 11 36 88
4 91 138 430 417
4 109 111 112 416
4 383 130 85 336
4 186 446 150 66
4 49 20 48 425
4 86 144 125 303
4 107 109 434 421
4 41 14 40 194
4 421 109 434 258
4 123 23 335 332
4 460 37 196 139
4 109 111 416 258
4 4 5 91 200
4 115 257 234 140
4 108 132 135 445
4 425 303 125 376
4 80 183 414 139
4 27 227 134 386
4 265 364 214 95
4 363 128 143 417
4 19 18 46 146
4 107 105 373 106
4 410 368 104 371
4 362 33 296 205
4 138 21 50 193
4 384 443 154 88
4 80 135 132 415
4 65 133 188 402
4 414 183 80 120
4 462 425 141 376
4 128 127 102 302
4 99 367 97 98
4 385 137 110 134
4 221 223 27 386
4 130 64 192 336
4 132 413 183 415
4 0 22 176 153
4 423 18 45 79
4 147 232 115 134
4 82 366 283 117
4 29 216 218 217
4 299 302 127 411
4 199 431 92 456
4 369 380 124 389
4 258 385 110 232
4 135 13 40 426
4 196 36 443 88
4 148 196 384 88
4 305 131 142 103
4 377 25 231 235
4 109 416 415 434
4 109 107 110 421
4 45 46 18 423
4 231 232 234 147
4 116 383 295 336
4 8 133 65 402
4 122 108 135 445
4 36 37 11 196
4 143 128 91 417
4 64 7 6 188
4 301 275 412 114
4 452 61 3 470
4 83 188 7 133
4 118 195 410 145
4 7 64 336 65
4 21 49 50 193
4 24 366 235 333
4 228 81 400 386
4 13 12 39 80
4 294 305 367 97
4 108 122 441 445
4 441 374 372 106
4 50 51 22 430
4 304 305 294 131
4 373 105 107 137
4 296 207 89 354
4 151 362 33 296
4 119 152 89 354
4 421 110 109 258
4 376 303 125 375
4 79 17 45 195
4 176 22 51 153
4 227 26 231 226
4 11 196 139 88
4 81 27 134 386
4 156 116 295 336
4 158 159 92 199
4 437 56 57 469
4 25 24 235 333
4 13 39 40 426
4 144 102 303 453
4 367 364 294 97
4 124 99 98 369
4 128 127 302 411
4 150 186 8 90
4 133 188 7 65
4 102 279 303 302
4 111 112 274 113
4 65 186 8 66
4 132 109 112 416
4 87 15 16 172
4 431 192 155 63
4 137 107 373 421
4 117 275 295 116
4 141 19 20 173
4 132 109 415 434
4 5 155 192 63
4 116 114 301 136
4 455 2 51 176
4 374 441 108 106
4 192 383 85 336
4 411 128 363 417
4 66 8 65 402
4 362 33 1 151
4 159 9 35 199
4 118 410 104 371
4 417 144 193 453
4 448 3 52 470
4 137 373 400 421
4 9 35 10 159
4 82 147 25 235
4 14 41 157 194
4 17 45 18 79
4 192 64 6 63
4 40 135 426 194
4 385 137 400 421
4 16 429 145 87
4 384 154 148 88
4 157 41 424 194
4 195 429 410 145
4 26 27 227 134
4 83 128 143 411
4 384 449 196 148
4 131 304 305 142
4 55 56 433 465
4 51 455 176 153
4 24 366 333 332
4 385 110 137 421
4 153 22 51 430
4 34 35 9 199
4 120 412 112 114
4 185 19 46 146
4 429 118 145 87
4 304 423 450 142
4 460 183 12 139
4 456 34 2 175
4 134 227 385 386
4 153 455 4 200
4 424 441 122 194
4 91 153 4 200
4 441 122 108 106
4 83 133 152 403
4 414 120 139 148
4 440 185 126 376
4 157 424 122 194
4 319 333 318 522
4 109 416 434 258
4 12 38 460 174
4 141 185 19 462
4 104 99 370 368
4 19 141 462 173
4 92 154 451 199
4 185 47 19 462
4 22 153 138 430
4 430 138 50 193
4 115 257 232 234
4 133 7 8 65
4 111 257 416 258
4 110 115 258 232
4 24 82 366 332
4 82 366 332 283
4 86 425 193 453
4 19 46 47 185
4 188 6 64 363
4 174 460 12 139
4 102 144 128 302
4 372 373 370 105
4 44 17 16 145
4 89 151 33 296
4 431 92 451 199
4 24 333 334 332
4 423 46 18 146
4 446 1 23 150
4 295 283 275 117
4 132 108 415 445
4 301 295 275 116
4 455 62 4 200
4 369 99 367 368
4 111 115 257 258
4 232 227 385 134
4 5 155 85 192
4 195 79 17 145
4 45 423 79 195
4 370 104 368 371
4 462 47 19 173
4 12 38 39 183
4 141 126 185 376
4 188 83 411 403
4 111 109 110 258
4 12 38 183 460
4 136 154 451 155
4 135 14 157 194
4 443 10 35 159
4 389 370 373 105
4 370 99 369 368
4 125 144 102 303
4 443 154 88 159
4 450 305 304 142
4 153 51 455 430
4 85 155 451 192
4 127 128 83 411
4 158 34 9 199
4 25 26 231 147
4 259 140 113 117
4 402 8 133 151
4 294 293 304 131
4 275 259 274 113
4 119 127 152 299
4 458 424 441 122
4 10 35 36 443
4 92 159 154 199
4 423 79 450 142
4 143 363 83 411
4 258 115 257 232
4 127 83 152 411
4 460 38 37 174
4 429 410 118 371
4 192 155 451 431
4 412 112 413 120
4 138 144 86 193
4 149 458 372 106
4 63 64 6 363
4 449 412 414 120
4 429 195 44 145
4 460 414 183 139
4 193 144 86 453
4 411 83 152 403
4 415 183 80 426
4 146 185 19 141
4 104 370 99 105
4 183 80 12 139
4 462 48 47 173
4 135 157 122 194
4 80 13 135 426
4 371 182 458 149
4 80 12 39 183
4 115 111 110 258
4 445 108 415 434
4 234 232 115 147
4 199 158 34 456
4 429 44 16 145
4 123 332 331 283
4 183 80 132 415
4 118 410 429 145
4 458 182 87 149
4 159 158 9 199
4 116 301 383 136
4 451 136 155 85
4 374 107 434 421
4 92 451 155 431
4 79 423 146 142
4 183 39 80 426
4 371 458 372 149
4 147 82 366 235
4 159 443 154 199
4 120 414 449 148
4 82 24 123 332
4 154 443 384 199
4 413 132 112 416
4 99 104 103 368
4 141 125 126 376
4 91 430 200 417
4 302 144 128 453
4 413 112 412 274
4 449 384 301 148
4 147 234 231 235
4 44 16 43 429
4 234 147 366 235
4 83 363 188 411
4 148 384 301 136
4 196 414 460 139
4 92 158 199 456
4 449 412 120 148
4 174 12 11 139
4 107 137 110 421
4 15 14 41 157
4 450 79 423 195
4 142 131 304 126
4 185 146 126 141
4 148 301 114 136
4 295 283 117 156
4 158 9 34 175
4 79 423 18 146
4 231 25 147 235
4 446 67 1 66
4 156 331 123 90
4 115 234 147 140
4 257 115 111 140
4 411 302 128 417
4 331 186 90 336
4 416 112 413 274
4 412 449 301 114
4 335 123 332 331
4 374 373 107 421
4 91 128 144 417
4 46 423 185 146
4 150 446 186 335
4 441 374 108 445
4 114 449 301 148
4 413 132 416 415
4 415 108 132 434
4 90 130 156 336
4 109 108 107 434
4 368 103 305 410
4 108 107 374 106
4 384 451 154 199
4 446 23 361 335
4 153 91 430 200
4 417 302 128 453
4 295 331 156 336
4 158 0 9 175
4 159 35 443 199
4 188 64 7 65
4 430 455 153 200
4 85 451 383 192
4 456 158 34 175
4 153 91 138 430
4 90 156 331 336
4 109 132 108 434
4 112 132 413 120
4 383 295 301 116
4 283 295 331 156
4 295 117 116 156
4 383 116 136 85
4 135 426 194 445
4 114 120 412 148
4 412 449 114 148
4 462 141 185 376
4 23 361 335 334
4 414 412 413 120
4 417 128 144 453
4 374 107 108 434
4 371 104 118 149
4 335 150 23 123
4 136 451 383 85
4 384 383 301 136
4 421 385 110 258
4 154 451 384 136
4 383 384 451 136
4 23 446 150 335
4 148 154 384 136
4 445 374 108 434
4 521 512 490 475
4 521 490 512 394
4 505 356 353 503
4 505 353 356 247
4 503 249 261 479
4 503 261 249 356
4 512 290 291 501
4 512 291 290 262
4 522 166 488 476
4 522 488 166 163
4 520 177 496 70
4 520 496 177 480
4 201 496 177 70
4 201 177 496 480
4 519 345 502 516
4 519 502 345 447
4 282 502 345 516
4 282 345 502 447
4 520 71 177 70
4 520 177 71 494
4 488 170 162 169
4 488 162 170 486
4 491 167 162 168
4 491 162 167 488
4 506 292 341 342
4 506 341 292 484
4 223 26 224 27
4 223 224 26 226
4 509 56 469 465
4 509 469 56 437
4 519 469 468 509
4 519 468 469 467
4 345 398 519 447
4 345 519 398 344
4 118 450 103 410
4 118 103 450 142
4 200 143 417 363
4 417 143 200 91
4 332 23 334 24
4 332 334 23 335
4 66 150 1 446
4 66 1 150 8
4 65 90 336 7
4 65 336 90 186
4 87 182 157 15
4 42 182 157 424
4 42 157 182 15
4 37 139 174 11
4 174 139 37 460
4 86 453 303 425
4 303 453 86 144
4 283 156 123 117
4 123 156 283 331
4 147 366 140 234
4 140 366 147 82
4 63 155 62 5
4 63 62 155 431
4 4 62 155 5
4 431 62 158 456
4 182 157 458 87
4 182 458 157 424
4 122 458 157 87
4 122 157 458 424
4 62 155 158 4
4 62 158 155 431

CELL_TYPES 2658
1
1
1
1
3
3
3
3
3
3
3
3
3
3
3
3
3
3
3
3
3
3
3
3
3
3
3
3
3
3
3
3
3
3
3
3
3
3
3
3
3
3
3
3
3
3
3
3
3
3
3
3
3
3
3
3
3
3
3
3
3
3
3
3
3
3
3
3
3
3
3
3
3
3
3
3
3
3
3
3
3
3
3
3
3
5
5
5
5
5
5
5
5
5
5
5
5
5
5
5
5
5
5
5
5
5
5
5
5
5
5
5
5
5
5
5
5
5
5
5
5
5
5
5
5
5
5
5
5
5
5
5
5
5
5
5
5
5
5
5
5
5
5
5
5
5
5
5
5
5
5
5
5
5
5
5
5
5
5
5
5
5
5
5
5
5
5
5
5
5
5
5
5
5
5
5
5
5
5
5
5
5
5
5
5
5
5
5
5
5
5
5
5
5
5
5
5
5
5
5
5
5
5
5
5
5
5
5
5
5
5
5
5
5
5
5
5
5
5
5
5
5
5
5
5
5
5
5
5
5
5
5
5
5
5
5
5
5
5
5
5
5
5
5
5
5
5
5
5
5
5
5
5
5
5
5
5
5
5
5
5
5
5
5
5
5
5
5
5
5
5
5
5
5
5
5
5
5
5
5
5
5
5
5
5
5
5
5
5
5
5
5
5
5
5
5
5
5
5
5
5
5
5
5
5
5
5
5
5
5
5
5
5
5
5
5
5
5
5
5
5
5
5
5
5
5
5
5
5
5
5
5
5
5
5
5
5
5
5
5
5
5
5
5
5
5
5
5
5
5
5
5
5
5
5
5
5
5
5
5
5
5
5
5
5
5
5
5
5
5
5
5
5
5
5
5
5
5
5
5
5
5
5
5
5
5
5
5
5
5
5
5
5
5
5
5
5
5
5
5
5
5
5
5
5
5
5
5
5
5
5
5
5
5
5
5
5
5
5
5
5
5
5
5
5
5
5
5
5
5
5
5
5
5
5
5
5
5
5
5
5
5
5
5
5
5
5
5
5
5
5
5
5
5
5
5
5
5
5
5
5
5
5
5
5
5
5
5
5
5
5
5
5
5
5
5
5
5
5
5
5
5
5
5
5
5
5
5
5
5
5
5
5
5
5
5
5
5
5
5
5
5
5
5
5
5
5
5
5
5
5
5
5
5
5
5
5
5
5
5
5
5
5
5
5
5
5
5
5
5
5
5
5
5
5
5
5
5
5
5
5
5
5
5
5
5
5
5
5
5
5
5
5
5
5
5
5
5
5
5
5
5
5
5
5
5
5
5
5
5
5
5
5
5
5
5
5
5
5
5
5
5
5
5
5
5
5
5
5
5
5
5
5
5
5
5
5
5
5
5
5
5
5
5
5
5
5
5
5
5
5
5
5
5
5
5
5
5
5
5
5
5
5
5
5
5
5
5
5
5
5
5
5
5
5
5
5
5
5
5
5
5
5
5
5
5
5
5
5
5
5
5
5
5
5
5
5
5
5
5
5
5
5
5
5
5
5
5
5
5
5
5
5
5
5
5
5
5
5
5
5
5
5
5
5
5
5
5
5
5
5
5
5
5
5
5
5
5
5
5
5
5
5
5
5
5
5
5
5
5
5
5
5
5
5
5
5
5
5
5
5
5
5
5
5
5
5
5
5
5
5
5
5
5
5
5
5
5
5
5
5
5
5
5
5
5
5
5
5
5
5
5
5
5
5
5
5
5
5
5
5
5
5
5
5
5
5
5
5
5
5
5
5
5
5
5
5
5
5
5
5
5
5
5
5
5
5
5
5
5
5
5
5
5
5
5
5
5
5
5
5
5
5
5
5
5
5
5
5
5
5
5
5
5
5
5
5
5
5
5
5
5
5
5
5
5
5
5
5
5
5
5
5
5
5
5
5
5
5
5
5
5
5
5
5
5
5
5
5
5
5
5
5
5
5
5
5
5
5
5
5
5
5
5
5
5
5
5
5
5
5
5
5
5
5
5
5
5
5
5
5
5
5
5
5
5
5
5
5
5
5
5
5
5
5
5
5
5
5
5
5
5
5
5
5
5
5
5
5
5
5
5
5
5
5
5
5
5
5
5
5
5
5
5
5
5
5
5
5
5
5
5
5
5
5
5
5
5
5
5
5
5
5
5
5
5
5
5
5
5
5
5
5
5
5
5
5
5
5
5
5
5
5
5
5
5
5
5
5
5
5
5
5
5
5
5
5
5
5
5
5
5
5
5
5
5
5
5
5
5
5
5
5
5
5
5
5
5
5
5
5
5
5
5
5
5
5
5
5
5
5
5
5
5
5
5
5
5
5
5
5
5
5
5
5
10
10
10
10
10
10
10
10
10
10
10
10
10
10
10
10
10
10
10
10
10
10
10
10
10
10
10
10
10
10
10
10
10
10
10
10
10
10
10
10
10
10
10
10
10
10
10
10
10
10
10
10
10
10
10
10
10
10
10
10
10
10
10
10
10
10
10
10
10
10
10
10
10
10
10
10
10
10
10
10
10
10
10
10
10
10
10
10
10
10
10
10
10
10
10
10
10
10
10
10
10
10
10
10
10
10
10
10
10
10
10
10
10
10
10
10
10
10
10
10
10
10
10
10
10
10
10
10
10
10
10
10
10
10
10
10
10
10
10
10
10
10
10
10
10
10
10
10
10
10
10
10
10
10
10
10
10
10
10
10
10
10
10
10
10
10
10
10
10
10
10
10
10
10
10
10
10
10
10
10
10
10
10
10
10
10
10
10
10
10
10
10
10
10
10
10
10
10
10
10
10
10
10
10
10
10
10
10
10
10
10
10
10
10
10
10
10
10
10
10
10
10
10
10
10
10
10
10
10
10
10
10
10
10
10
10
10
10
10
10
10
10
10
10
10
10
10
10
10
10
10
10
10
10
10
10
10
10
10
10
10
10
10
10
10
10
10
10
10
10
10
10
10
10
10
10
10
10
10
10
10
10
10
10
10
10
10
10
10
10
10
10
10
10
10
10
10
10
10
10
10
10
10
10
10
10
10
10
10
10
10
10
10
10
10
10
10
10
10
10
10
10
10
10
10
10
10
10
10
10
10
10
10
10
10
10
10
10
10
10
10
10
10
10
10
10
10
10
10
10
10
10
10
10
10
10
10
10
10
10
10
10
10
10
10
10
10
10
10
10
10
10
10
10
10
10
10
10
10
10
10
10
10
10
10
10
10
10
10
10
10
10
10
10
10
10
10
10
10
10
10
10
10
10
10
10
10
10
10
10
10
10
10
10
10
10
10
10
10
10
10
10
10
10
10
10
10
10
10
10
10
10
10
10
10
10
10
10
10
10
10
10
10
10
10
10
10
10
10
10
10
10
10
10
10
10
10
10
10
10
10
10
10
10
10
10
10
10
10
10
10
10
10
10
10
10
10
10
10
10
10
10
10
10
10
10
10
10
10
10
10
10
10
10
10
10
10
10
10
10
10
10
10
10
10
10
10
10
10
10
10
10
10
10
10
10
10
10
10
10
10
10
10
10
10
10
10
10
10
10
10
10
10
10
10
10
10
10
10
10
10
10
10
10
10
10
10
10
10
10
10
10
10
10
10
10
10
10
10
10
10
10
10
10
10
10
10
10
10
10
10
10
10
10
10
10
10
10
10
10
10
10
10
10
10
10
10
10
10
10
10
10
10
10
10
10
10
10
10
10
10
10
10
10
10
10
10
10
10
10
10
10
10
10
10
10
10
10
10
10
10
10
10
10
10
10
10
10
10
10
10
10
10
10
10
10
10
10
10
10
10
10
10
10
10
10
10
10
10
10
10
10
10
10
10
10
10
10
10
10
10
10
10
10
10
10
10
10
10
10
10
10
10
10
10
10
10
10
10
10
10
10
10
10
10
10
10
10
10
10
10
10
10
10
10
10
10
10
10
10
10
10
10
10
10
10
10
10
10
10
10
10
10
10
10
10
10
10
10
10
10
10
10
10
10
10
10
10
10
10
10
10
10
10
10
10
10
10
10
10
10
10
10
10
10
10
10
10
10
10
10
10
10
10
10
10
10
10
10
10
10
10
10
10
10
10
10
10
10
10
10
10
10
10
10
10
10
10
10
10
10
10
10
10
10
10
10
10
10
10
10
10
10
10
10
10
10
10
10
10
10
10
10
10
10
10
10
10
10
10
10
10
10
10
10
10
10
10
10
10
10
10
10
10
10
10
10
10
10
10
10
10
10
10
10
10
10
10
10
10
10
10
10
10
10
10
10
10
10
10
10
10
10
10
10
10
10
10
10
10
10
10
10
10
10
10
10
10
10
10
10
10
10
10
10
10
10
10
10
10
10
10
10
10
10
10
10
10
10
10
10
10
10
10
10
10
10
10
10
10
10
10
10
10
10
10
10
10
10
10
10
10
10
10
10
10
10
10
10
10
10
10
10
10
10
10
10
10
10
10
10
10
10
10
10
10
10
10
10
10
10
10
10
10
10
10
10
10
10
10
10
10
10
10
10
10
10
10
10
10
10
10
10
10
10
10
10
10
10
10
10
10
10
10
10
10
10
10
10
10
10
10
10
10
10
10
10
10
10
10
10
10
10
10
10
10
10
10
10
10
10
10
10
10
10
10
10
10
10
10
10
10
10
10
10
10
10
10
10
10
10
10
10
10
10
10
10
10
10
10
10
10
10
10
10
10
10
10
10
10
10
10
10
10
10
10
10
10
10
10
10
10
10
10
10
10
10
10
10
10
10
10
10
10
10
10
10
10
10
10
10
10
10
10
10
10
10
10
10
10
10
10
10
10
10
10
10
10
10
10
10
10
10
10
10
10
10
10
10
10
10
10
10
10
10
10
10
10
10
10
10
10
10
10
10
10
10
10
10
10
10
10
10
10
10
10
10
10
10
10
10
10
10
10
10
10
10
10
10
10
10
10
10
10
10
10
10
10
10
10
10
10
10
10
10
10
10
10
10
10
10
10
10
10
10
10
10
10
10
10
10
10
10
10
10
10
10
10
10
10
10
10
10
10
10
10
10
10
10
10
10
10
10
10
10
10
10
10
10
10
10
10
10
10
10
10
10
10
10
10
10
10
10
10
10
10
10
10
10
10
10
10
10
10
10
10
10
10
10
10
10
10
10
10
10
10
10
10
10
10
10
10
10
10
10
10
10
10
10
10
10
10
10
10
10
10
10
10
10
10
10
10
10
10
10
10
10
10
10
10
10
10
10
10
10
10
10
10
10
10
10
10
10
10
10
10
10
10
10
10
10
10
10
10
10
10
10
10
10
10
10
10
10
10
10
10
10
10
10
10
10
10
10
10
10
10
10
10
10
10
10
10
10
10
10
10
10
10
10
10
10
10
10
10
10
10
10
10
10
10
10
10
10
10
10
10
10
10
10
10
10
10
10
10
10
10
10
10
10
10
10
10
10
10
10
10
10
10
10
10
10
10
10
10
10
10
10
10
10
10
10
10
10
10
10
10
10
10
10
10
10
10
10
10
10
10
10
10
10
10
10
10
10
10
10
10
10
10
10
10
10
10
10
10
10
10
10
10
10
10
10
10
10
10
10
10
10
10
10
10
10
10
10
10
10
10
10
10
10
10
10
10
10
10
10
10
10
10
10
10
10
10
10
10
10
10
10
10
10
10
10
10
10
10
10
10
10
10
10
10
10
10
10
10
10
10
10
10
10
10
10
10
10
10
10
10
10
10
10
10
10
10
10
10
10
10
10
10
10
10
10
10
10
10
10
10
10
10
10
10
10
10
10
10
10
10
10
10
10
10
10
10
10
10
10
10
10
10
10
10
10
10
10
10
10
10
10
10
10
10
10
10
10
10
10
10
10
10
10
10
10
10
10
10
10
10
10
10
10
10
10
10
10
10
10
10
10
10
10
10
10
10
10
10
10
10
10
10
10
10
10
10
10
10
10
10
10
10
10
10
10
10
10
10
10
10
10
10
10
10
10
10
10
10
10
10
10
10
10
10
10
10
10
10
10
10
10
10
10
10
10
10
10
10
10
10
10
10
10
10
10
10
10
