# vtk DataFile Version 2.0
whisker_body, Created by Gmsh 4.13.1 
ASCII
DATASET UNSTRUCTURED_GRID
POINTS 600 double
-8.366600265340816 -1.499999999999834 0
8.366600265340814 -1.499999999999832 0
-5.301204928330992 -1.499999999999984 38
5.301204928330986 -1.499999999999992 38
12 0 0
8.366600265340708 1.500000000000135 0
0 8.5 0
-8.366600265340708 1.500000000000135 0
7.27789759052289 0 60
5.30120492833096 1.500000000000038 38
0 5.509335140664497 38
-5.301204928330957 1.500000000000045 38
-6.808334141167511 -5.088868854884438 0
-3.80753297644827 -7.599519236981967 0
3.293187477425454e-14 -8.5 0
3.807532976448329 -7.599519236981937 0
6.80833414116753 -5.088868854884412 0
-5.019960159204491 -1.5 0
-1.673320053068164 -1.5 0
1.673320053068162 -1.5 0
5.019960159204487 -1.5 0
-5.611351110346533 -1.5 34.20029332154346
-5.920362505290996 -1.5 30.40049363893729
-6.228408070901919 -1.5 26.60061330781117
-6.535623967750098 -1.5 22.80066818416003
-6.842122103503087 -1.5 19.00066472146173
-7.147994731822947 -1.5 15.20061104804826
-7.453318854752914 -1.5 11.40051318794536
-7.758159386006839 -1.5 7.600374239945424
-8.062570854290518 -1.5 3.800202750852804
-3.323309418423462 -4.394131108828981 38
-2.024778927987952e-14 -5.509335140664497 38
3.323309418423437 -4.394131108828999 38
8.062570854290515 -1.5 3.800202750852861
7.758159386006834 -1.5 7.600374239945467
7.453318854752908 -1.5 11.40051318794545
7.147994731822942 -1.5 15.20061104804832
6.842122103503082 -1.5 19.00066472146179
6.535623967750094 -1.5 22.80066818416006
6.228408070901916 -1.5 26.60061330781122
5.92036250529099 -1.5 30.40049363893736
5.611351110346527 -1.5 34.20029332154351
-1.767068309443666 -1.5 38
1.767068309443658 -1.5 38
11.34980690040761 3.896393630456207 0
9.469686112756717 7.370552552276022 0
6.563377897469113 10.04599773915035 0
2.945825845689581 11.63280319127197 0
-0.9909521456679979 11.95901391608004 0
-4.820345095835646 10.98927991986068 0
-8.127378859508902 8.82868692807757 0
-10.55368501447787 5.71136871644487 0
-11.83633564083267 1.975135083368787 0
-11.83633564083267 -1.975135083368821 0
-10.55368501447786 -5.711368716444897 0
-8.12737885950888 -8.828686928077589 0
-4.820345095835619 -10.9892799198607 0
-0.9909521456679715 -11.95901391608004 0
2.945825845689616 -11.63280319127196 0
6.563377897469155 -10.04599773915032 0
9.469686112756747 -7.370552552275983 0
11.34980690040762 -3.896393630456205 0
6.808334141167383 5.088868854884609 0
3.807532976448174 7.599519236982015 0
5.019960159204425 1.5 0
1.673320053068141 1.5 0
-1.673320053068142 1.5 0
-5.019960159204425 1.5 0
-3.807532976448205 7.599519236982 0
-6.808334141167403 5.088868854884582 0
6.302844199534381 3.638948795261439 60
3.638948795261455 6.302844199534372 60
1.337378586081774e-14 7.27789759052289 60
-3.638948795261432 6.302844199534386 60
-6.302844199534364 3.63894879526147 60
-7.27789759052289 4.613978646370539e-14 60
-6.302844199534409 -3.638948795261393 60
-3.63894879526151 -6.302844199534341 60
-6.597764390521311e-14 -7.27789759052289 60
3.638948795261406 -6.302844199534401 60
6.302844199534367 -3.638948795261465 60
11.70486859940768 0 3.75
11.40973719881536 0 7.5
11.11460579822304 0 11.25
10.81947439763072 0 15
10.5243429970384 0 18.75
10.22921159644608 0 22.5
9.934080195853765 0 26.25
9.638948795261445 0 30
9.343817394669125 0 33.75
9.048685994076806 0 37.5
8.753554593484488 0 41.25
8.458423192892168 0 45
8.163291792299848 0 48.75
7.868160391707529 0 52.5
7.573028991115209 0 56.25
5.611351110346533 1.5 34.20029332154346
5.920362505290996 1.5 30.40049363893729
6.228408070901919 1.5 26.60061330781117
6.535623967750098 1.5 22.80066818416003
6.842122103503087 1.5 19.00066472146173
7.147994731822947 1.5 15.20061104804826
7.453318854752914 1.5 11.40051318794536
7.758159386006839 1.5 7.600374239945424
8.062570854290518 1.5 3.800202750852804
3.323309418423439 4.394131108828998 38
0 8.200933514066449 3.8
0 7.9018670281329 7.600000000000001
0 7.602800542199349 11.4
0 7.303734056265799 15.2
0 7.004667570332249 19
0 6.705601084398698 22.8
0 6.406534598465148 26.6
0 6.107468112531597 30.4
0 5.808401626598048 34.2
-8.062570854290518 1.5 3.800202750852804
-7.758159386006839 1.5 7.600374239945424
-7.45331885475291 1.5 11.40051318794541
-7.147994731822942 1.5 15.20061104804832
-6.842122103503087 1.5 19.00066472146173
-6.535623967750094 1.5 22.80066818416006
-6.228408070901916 1.5 26.60061330781122
-5.92036250529099 1.5 30.40049363893736
-5.611351110346527 1.5 34.20029332154351
1.767068309443654 1.5 38
-1.767068309443651 1.5 38
-3.323309418423423 4.39413110882901 38
6.406596792147996 -4.380154833387709 9.392244660089776
5.586203432588404 -4.483746355857805 16.98723680828477
4.873886781951155 -4.404079142134358 24.53672154951771
-6.333608690163503 -4.470284695772104 9.500520237787542
-5.221964333938485 -4.455444791082235 20.7823495126278
-4.093648287569145 -4.343536232498392 32.16440434119931
4.093648287298719 -4.343536232763844 32.16440434110145
-1.894912295721332 -8.012321139715276 3.388163173765719
4.860201867241041 -6.650483789236802 3.339936439549538
-6.184474215124461 -5.333190609146757 4.238358577768555
-1.656027550799404 -5.498350043596132 35.03960079754562
1.63337995160494 -5.503472184147522 35.05967777046764
-0.1168537735833972 -5.976094752532422 32.05474196558979
-2.314956411751871 -5.81550564058446 28.47049601468295
1.374392817817084 -6.09939321167633 28.55943370523908
-0.634558804587754 -6.478495222937536 25.29172494612554
4.504460281994252 -4.346791438628851 28.46478268258352
-5.627841889828259 -4.430944262868775 16.99058835682913
-2.79040961463664 -6.463009725149661 18.55531800894324
-3.313662336192844 -6.543039688635825 14.81182212996443
-0.02782505412245694 -7.220633212721952 16.25521512185285
-0.4056115961099521 -7.502943846731653 12.52959362759014
0.3170188278946992 -6.917309368304179 20.01773599065372
3.465624281957425 -6.552730928116112 13.8148453389598
2.2903493393991 -7.358425176244818 10.08074208435354
-0.999126826495597 -7.740511649916905 8.834271746112275
2.064947425591125 -7.727443229966014 6.371061996887098
-4.377591997660615 -4.876117147131187 24.74089914798596
5.425583665350905 -4.213820917970541 20.71449393322883
-3.757765393133006 -6.637282910862546 11.08985442514794
-5.977627534119834 -4.457762537813467 13.25527334635673
5.967943429310946 -4.478825399808021 13.19348341793279
-2.463552245384376 -6.290585367212779 22.16242534031864
6.799623900707089 -4.285485464065671 5.877517148654985
1.485947611925294 -8.108589125281965 3.257626632028583
-4.356604204098598 -6.662468256912167 6.855856817142943
2.816912357625719 -6.112697558133351 22.48321733504221
3.029708295480847 -6.424630668316801 17.74841911387925
-4.957673504895785 -3.828864544537321 28.41002480328402
4.711540079214282 -6.366646079830493 7.36447129521357
2.233988053601601 -6.100357564987129 25.45634059822802
-4.241571200973686 -3.841320660629874 35.29185621480136
4.241571200972961 -3.841320660630677 35.29185621480135
7.158888976163127 -4.158490630240951 2.807384681976012
-6.881629673436039 -4.03163287712805 6.662579945153845
-0.6852303039288544 -7.991852471545124 6.084049975211247
-4.475238502124117 -6.974173962021342 2.712176814038275
0.1665226986575958 -6.705921980959559 22.76965581441613
4.753884020747521 -5.954029784564472 11.19356353582643
-7.423314712158218 -3.74801613702765 2.339950695565756
-0.05375628521134601 -1.5 3.329300236544448
4.010122963984497 -1.5 13.029322206336
3.346096429342071 -1.5 20.66008583761854
-4.619696847287172 -1.5 9.313070097274043
-2.905670207245234 -1.5 28.2462752552424
-3.475279590117443 -1.5 16.84610152989453
-1.77635683940025e-15 -1.5 34.93934790759874
5.206119083700781 -1.5 5.45586226397121
2.904530020704735 -1.5 28.24356175771101
-3.713797243447799 -1.5 3.482366469872503
-1.823415295211797 -1.5 7.362623656279041
4.526775543185963 -1.5 9.239745848604469
1.185023696272921 -1.5 10.38588588736078
-0.1020138941920283 -1.5 14.23417510362624
-4.130137551647 -1.5 12.9918741653447
0.02192613758704809 -1.5 18.59193287074485
-3.317790857010666 -1.5 20.67364081105136
3.544374745341267 -1.5 16.78613196463929
3.174073156946537 -1.5 24.45212263922662
2.123218492706497 -1.5 32.14872969119026
-2.173792772138962 -1.5 32.16567011829598
-3.159618774987918 -1.5 24.45483405105398
0.01088783053473108 -1.5 22.48807380726496
0.004033670992145133 -1.5 26.30088801917799
3.346640106136324 -1.5 2.6097814361765
2.064564474812141 -1.5 6.397199888156072
-0.006811542140109594 -1.5 29.56372086439366
2.902384074796478 -1.5 35.30409040899082
-2.902384074796494 -1.5 35.30409040899081
-1.898047978413015 -1.5 10.85752578197696
-5.195527925248825 -1.5 6.311727442844763
5.905503827789117 -1.5 2.409120343819765
-3.958197324777207e-15 -3.115260062517553 38
-10.10146795308671 3.452793606584237e-14 0
-8.326672684688674e-16 -5.551115123125783e-17 0
-6.69328021227258 4.364115159304974e-14 0
6.693280212272627 1.066223022616602e-13 0
3.346640106136304 5.551115123125783e-17 0
-3.346640106136305 -5.551115123125783e-17 0
-2.404707554487957 -9.761953268230675 0
-2.404707554487961 9.76195326823068 0
8.935881143994854 -3.209627415059868 31.83128104831302
8.622259865243404 3.210721483584408 35.56901948640535
9.560740229175035 3.210769427521803 24.32635413700642
9.70479363407347 -3.716355517672122 20.43117751032401
7.572575793799106 -4.09758946533286 43.0725261603211
-11.73088669374763 -1.940162152660217e-14 3.419408766471456
-2.93356341489342 11.36350050067426 3.353765747894174
-7.290541649137687 1.984803379761022 56.46779818220659
7.694330858993568 3.154194830285126 46.81285440877583
-2.550778283412737 -11.45591304092289 3.348636435899146
10.49497893106745 3.195253963268123 13.07967085456085
-1.949325425597162 -7.274981528814155 56.7762135102464
10.30028872730695 -3.761722649871375 13.14206888421812
-1.976212442307552 7.275357946767365 56.68260865122541
7.358006790879124 -3.190129739543207 50.57323636838945
7.525537753436183 9.008657493085222 3.324163033449048
4.712243512000845 -10.74283313214679 3.419408766471714
-9.257317901175377 7.20525973842184 3.419408766471709
-9.257317901175359 -7.205259738421862 3.419408766471709
7.037746588842867 3.184812749282433 54.32125868882564
11.10107250334919 -3.225331996075627 5.589093889147453
4.860641625241934 -5.775290174685608 56.56170290324955
11.10107250334962 3.22533199607392 5.589093889148325
8.302498260544249 3.219399699765722 39.32785339379618
6.767990550768168 6.028531846019131 37.31046639484082
7.1561374373903 6.029827549225469 33.57185725044894
4.459516505363632 8.07916914395812 35.2186546684297
4.03726469586814 7.96948964214527 38.96012839271994
4.877740297785107 8.178981872165188 31.4728916166187
7.520309771481806 6.052851286960895 29.81378956583192
5.277334135415425 8.280104071247269 27.71377373905037
1.923148430858776 9.49895701911773 29.32997136373502
2.464358994756387 9.680334675724991 25.55101784553294
-1.103463566948654 9.80808709383358 27.06466390609456
-0.5956968721073074 10.14822986869925 23.30701150773297
-3.982604614699079 9.229425708488868 24.75122265255619
-4.40212492057993 8.707793630796385 28.49655016365561
-3.553124035786846 9.718833925803832 20.99106814265381
-6.570573797032475 7.854840132300438 22.35463580261689
-6.253481667766271 8.480387363219215 18.59241302623172
-8.665669585966803 5.814376506269245 19.87816128611652
-8.8118071220996 5.018929650410747 23.622263861378
-10.04801131282863 2.447857024148282 21.06837938141427
-9.929237850984048 1.548383401381416 24.78673642794851
-10.18091864893847 -1.242852275936011 22.15327163310771
-9.737143862762657 -2.122814665780092 25.84623298060024
-9.015913597590666 -4.724573926518793 23.14033575231139
-8.222622840338536 -5.497644949143086 26.79498012324179
-9.197202449421399 -3.009072282229524 29.51735401381464
-9.712632359766667 -3.902713115655338 19.4735692795692
-7.659489634273101 -7.029596552183039 20.37696775713825
-3.108460018816291 10.18166752779877 17.20923716048111
-7.332394637012778 -6.204057620828051 30.43247349677862
-8.558227217383159 -3.862089403382325 33.17206625808665
-6.323319077861125 -6.84704837718311 34.04987777709021
-7.802784747782774 -4.688778697823762 36.80744187430816
-5.568695792453771 -8.09431811440656 27.63746084531024
-9.096661336310383 -1.22337936950202 35.84983521480454
-8.605894975505427 -2.241471304483646 39.47805456937944
-6.93250904852404 -5.449707920275151 40.42979322884231
-8.05187039335263 -3.033739004321929 43.14482714337586
-6.011723089674582 -6.057232799697049 44.03841944630597
-10.10124492618864 3.328350766599845 17.33808968193387
-8.663007553761998 0.5998598237039277 42.13693856384484
-8.588516489312555 -6.354532359063732 16.72443320626577
-5.844774745359044 -8.86427249187833 17.56308952470697
2.941860420317556 9.857248191706278 21.76726302345099
1.158669650468643 9.03210376952226 36.77023705870678
0.6933706929698074 8.78474499369918 40.50654184873146
-4.053644662027241 -7.759752545423802 41.23470420985013
-2.844165801744913 -7.982613764245725 44.80003447762223
-5.888564046916641 9.094015674331169 14.81499397023413
-7.382172758807954 -3.834128417944132 46.77821876145224
-6.969582184328739 -8.386510101814606 13.91935175143824
-3.665200507920996 -10.20588281799837 14.6875507943682
-2.350077137213913 -10.29472361075972 18.30259210460662
0.07553110968990209 -10.790865310309 15.36015418386934
-9.378847619607839 -5.690641384593466 13.08433190179717
-2.311248829162325 8.68984928207667 38.22076711079207
-2.639135406717508 10.62160768464617 13.41052532800753
1.435635350978262 -10.41164542148404 18.93024469472615
-0.4992510633867022 -8.686669944972206 41.9177071004563
3.79373459855749 -10.05438836810804 15.92966011599398
-2.757987307179771 8.249994504228161 41.94588238741866
0.2268866609168426 8.514846963692476 44.24466636791801
-3.191779749716208 7.77645302230333 45.66621804219201
-0.3424409564484934 8.224955519104729 47.87594907848778
0.8608134322278648 -8.380456574966457 45.43039258434479
2.495886955657835 -10.73870671259418 12.38932838377752
-3.694056164938622 7.232952242058065 49.27875684583398
-5.535450030340695 9.660184010117954 11.006765210722
-1.526336930167138 -8.052226267239824 48.33933574731471
0.4339958998891368 10.75222231364161 15.74327334070982
0.8872411807343293 11.02633383812585 11.91876990433474
3.899735232150885 10.16226858855371 14.16951202078918
-0.9954818056051791 -10.22920517479757 21.88605669909299
2.76310166827729 -9.8513478558078 22.47080313894162
-4.990185696266556 -9.94101287081771 11.14073637672548
-1.84588623745506 -8.787155483135971 38.38618284966641
1.886655669594991 -8.730264915261001 38.98521729892652
0.5410721387641145 -9.19155967954128 35.48244093734903
4.145568396504175 -8.175410302439332 36.00417561042057
2.950023836117683 -8.967850568601888 32.52022265272029
4.329004523104911 10.31183016319619 10.3726567507444
-8.270089244682614 7.295942834354392 12.34560694739109
-6.049435113366516 5.687507062443022 46.97208990597355
-5.428992488725052 7.03404349020901 39.57374848427829
-5.069747270990484 7.650882504657127 35.85507093009757
0.3716413363293406 -9.991023053004692 25.43867659330661
4.03324073990422 -9.10171135749216 25.98026041611122
5.982174370457127 -9.213810336214477 12.89073336617302
-8.926368026854707 4.161145818476097 27.33596197948327
-6.300501365310152 4.950362650008269 50.66420613310064
7.040122809903528 -8.070831683644185 16.39245551701516
2.198198588283567 -7.8478450458308 48.92025326624263
-0.818829390046811 -9.449261608988049 31.96025675374488
6.127522425289398 -8.146239110412097 22.95357159022817
7.111026085164046 -6.91872385323758 26.41031431670672
-7.549656475177702 5.042850996587743 37.11523124733927
-7.326574321198529 5.841928717013131 33.41059098966979
-7.822159920924947 2.486719779780418 48.18293683301264
1.358780479410735 11.28171290610576 8.090742999016728
6.9743612106411 8.525011746845724 12.52292840378263
6.562798032367787 8.468744823356717 16.34008388346227
3.12887778423924 7.735123082254223 46.45413632038139
2.099714689986831 7.76263522904963 50.2962590626429
5.010368951176321 -7.349413351349717 39.45515938593602
4.238420680522895 -7.258454086765489 45.67476929793043
4.927156738061048 -10.12718793168021 9.374829603413234
7.724279739093391 -8.149610525596739 9.802023923998254
1.18047787897672 -11.24083036530029 8.860729036336826
7.054616888814406 -5.803062735154809 36.40680156443097
-7.699837697730925 1.860065299637516 51.82451670827017
-0.3428510874283264 -7.913562912141503 51.82878249784659
-3.944806773720175 -6.927426028780874 51.18222809141462
7.486268535548584 8.468753366001522 8.852744863905293
3.371503342409563 -7.109057526627939 52.50178789568257
-8.125011275598029 7.883979281285977 8.62308171730044
-10.11000936921544 4.877092686233505 9.848611831787444
-5.113443496053126 10.22772513755488 7.182094268399173
-3.620614168645694 6.929570663550996 53.13192608227502
-5.230911528343735 5.427046204952969 56.70029261565299
-0.2764209289121197 7.800613248103184 53.2960574809453
1.816579166018117 7.315415645173059 56.70029261565298
5.056856414803113 -8.25682881401521 29.44911456719772
-8.930218856799199 2.511631928773117 34.60284784198793
-8.827055701852084 1.696372259440271 38.2637043724431
-7.750443780389103 4.117328639882669 40.96219950033299
6.474313839368746 -9.494828380337871 6.453402192066633
3.462750173233722 10.00262008976749 17.97878608577519
6.106301992634126 8.437765608772397 20.13287634160594
8.637159890356605 6.056929124173484 18.43337847764959
-3.347328415562879 -9.475274014786958 24.78789353244688
5.007461223649528 -9.191722646706621 19.47597515781388
5.699365468849359 8.357993765545501 23.93511693780794
-0.09916712240878499 10.46296064890472 19.52396554701501
7.924862414640606 -6.788065805585174 19.89004660729208
9.385186467205346 -5.092089630097272 16.80270890408975
5.879694935561798 -7.338292386419282 32.99467694286027
3.591089673844734 7.857163136165242 42.70657147691796
1.574023060690266 -9.585579553438988 29.04698050911528
-6.66057327018513 -7.605331416609971 24.01962713802963
8.939159099780769 3.201831944745365 31.82551795508443
7.977279881142592 3.242115591876951 43.06207537169645
7.665094419861371 -3.182708045379109 47.01808378493669
8.316348186140358 -3.169789971389326 39.38979460182681
7.369208621376822 3.164237160371063 50.5728871593084
2.084659053122953 -7.243572840188674 56.70038960242871
8.753290251111043 -6.585876031353457 13.28852259924919
-5.345356727469243 -5.306229458012984 56.77310623084348
-7.315382307578586 -1.816746427087778 56.70019150813178
-6.756053512940534 -3.88099370192657 53.47496043313234
-5.760160975062185 6.378327908988004 43.27313050817536
9.103581900824111 -3.615041720446022 28.01607553126607
9.543862853863963 -3.245777242835507 24.38709715418363
-6.933981761610343 7.131347321409828 26.0900482330313
3.077099808837167 -8.092545564478401 42.46643083408075
-4.655410230908504 -9.218889078357034 21.24897190123682
9.878638670053299 3.190145935112773 20.57172976301183
10.80596429120219 3.182970038162902 9.339095714118459
-9.737677903565029 0.6240718197189725 28.49169108418937
1.522364659214954 9.277103749593383 33.02109659154956
-1.86554288413902 9.09833692790696 34.46398730650069
-8.47531414603425 6.581642965062078 16.12736313122856
10.8023983141443 -3.225268777581443 9.229724530980288
7.864792131608759 6.09146869074313 26.07425478365716
-2.223438877486215 11.01755369025533 9.660915401282498
-9.46269295849685 -0.3017439701300796 32.17842913675231
-4.901866587110449 -6.634383711985187 47.66302087526135
-10.11893052210904 4.135984518513699 13.5757483365071
-11.04570229378027 1.417778117453126 10.97408873916896
-11.1241444567196 2.647147085938113 7.181921082719397
-11.28527931994659 -1.202941436116748 8.269054296552863
-10.8656181941605 -4.046164477190875 5.151995904481852
-8.847695656744817 -7.226128440774727 7.323848781406489
-6.939772849299122 -9.217087832009843 5.875931903523104
-10.82714394051288 0.5278252840059326 14.73917086308426
-3.115497476570217 -8.715448388138109 34.87143422231924
-5.229640263152236 -7.365231261708002 37.69883132096179
5.140043580034561 5.521525034236217 56.622763737726
-10.53955916729599 -0.3407720649125348 18.48667958375673
-10.29366463588529 -3.117544686562745 15.81414988758007
-1.294949615656123 -10.99434955358659 11.81234188937588
-8.389290466434943 -0.321119267333593 45.800353531327
9.251255925413759 3.207691907416395 28.06064660747617
-7.880977765812449 -1.786091514378094 49.79768210871775
6.059667810469477 5.927271619625639 44.76950999848624
5.481403254688127 6.062833914569921 48.62213112262966
6.380574006618952 6.009592391538848 41.10333985809993
8.227613386681865 6.107958874817013 22.27411661432084
5.299283605554569 5.8321892922704 52.34759739794782
7.03759725001755 -3.185082735785535 54.32157302866641
-4.386440564869988 -8.473881615827679 31.23333834518499
-2.153039029136757 -9.526522911724529 28.37560465105431
-7.11937660538018 6.525220326616389 29.76644410247238
-8.930190779802068 3.40979617710592 31.01548930385376
-11.07844094565738 3.830840236728569 3.531291521772172
9.480167587765068 -6.459705938411934 6.711869763525177
1.131937679155929 -11.68135689486795 3.35352546334882
-7.796539518917633 3.355283378519763 44.62582945454445
-6.433942319861685 9.815429035037143 3.351966923415254
4.488214955899196 10.84588135477766 3.330881111054233
0.8062451548362479 11.71199868361771 3.307214945615138
-4.771250776723305 8.174871654646743 32.20543957768486
-1.555418112633602 9.448706246322631 30.80143305507157
5.4448706571658 -6.018579708373646 49.35053740780478
10.21241057880971 3.107581119887502 16.83883671378939
-10.82904069505969 -2.18198203907798 12.11306243704524
9.282210415544268 6.140463112173986 11.06135220984365
8.933168127854586 6.139088784240783 14.74839696370825
-2.897317330173098 -10.95486373229127 8.493764356093445
9.672386059089398 6.067501565908564 7.395621358046155
-7.899979161008796 -7.912886612018402 10.40144731209247
10.2057721168325 -5.8146822200432 3.227485356437227
-6.553293041883128 -4.68613858002691 50.1082177617571
9.914881402607806 6.29262761858319 3.263337848972882
6.055163101500312 -6.126535124299131 43.02436214200029
8.733452378570876 -2.889738086058927 35.58857690392909
7.714595251605263 -5.79890128118807 29.84658859491528
8.033773104559421 -8.594522446817265 2.990223427871836
5.100719733101596 10.26435876927348 6.837623852811777
-6.291010219034097 4.55192957170541 53.80942920959694
-9.890750823364424 5.859543213562728 6.402168421973619
-10.21710604901414 -4.624394297428699 9.975473304131066
3.430126234234681 -10.96580552141809 6.483174171299474
-0.999779040201681 11.45536490015364 6.366945536215883
-6.345277297931435 -9.923592846785066 2.810553407270798
8.116102340362756 -6.168326294787622 22.94632728978354
-3.626286406178197 -6.820466480483968 54.32470733767266
-7.721740298503523 -0.8891513320684606 53.71212352649867
2.617716920624073 7.322551546312288 53.66608476339557
5.841543164577506 -5.29052961688291 52.33430258056747
-0.7472271538335833 -11.49132970280215 6.154905767394699
6.974283203917073 2.738681650490269 57.27029496481619
6.818876782247138 -3.132958185713934 57.12498708662163
10.42125197722616 -2.306573732326239 16.85527288830041
9.520320641007455 -5.85682461970829 10.44949298632567
11.46410595137761 2.734906707860012 2.721475900470036
11.46410595137739 -2.734906707861941 2.721475900467181
-0.3276914827224287 -7.692010784311012 54.64954284913402
-4.35530711485352 -10.68030404344423 5.918646620413151
7.78819945856058 -5.172834946989592 33.67703327991393
-7.815478025073531 8.512649027717144 5.638391453980566
-1.201845431813311 7.922886912290853 50.65297819566974
6.50475915709856 -5.323754050037014 45.67107836584796
6.929792522788655 -5.480450474366254 40.21503961159589
-6.286414415877529 -9.41340704443253 8.646483565153526
-11.19151833672801 -3.853912192044479 2.077470048225951
2.633898073030535 11.25369471867767 5.618506165343842
8.007198785866892 8.272761987146408 6.185353397973196
5.548370657538209 6.026496663936041 3.917997573423576
3.60417769818729 6.866414550619947 9.467989841245352
5.586203432590757 4.483746355854739 16.98723680828585
4.736973651172772 4.545513024535794 24.58516778692026
3.204635953410595 6.065497145707773 20.83785420603135
3.18498295365823 5.391941219994096 28.4319182908299
4.093648287476978 4.343536232589318 32.16440434116176
5.984269269120047 4.456815730893902 13.19479514013135
3.059620922670272 7.443928854231135 5.740794544635217
6.30058107997684 4.530854172897566 9.395746207921501
3.133884304566349 6.767077426026946 13.24599568577197
2.857214146381847 6.562875634272453 17.05346169912162
5.623952704746871 3.931415721283034 20.81477282157034
2.896839794800398 4.964244135562557 34.97201090931956
2.355815834549688 6.12106962720913 24.66576489807474
2.731098775863892 7.805849593266181 2.924510192966841
5.356327360224927 5.872893667616299 7.005497245438394
4.599069671485469 3.324412736648478 35.89778586158231
5.230906825882537 3.450948084059712 28.37686840604038
7.404399301119981 3.75306431352343 2.525458303192205
6.970160233961328 3.937220100367374 6.285753359608143
0.05375628521134246 1.5 3.329300236544436
-4.010122963984504 1.5 13.02932220633598
-3.346096429342069 1.5 20.66008583761852
4.619696847287169 1.5 9.313070097274039
2.905670207245237 1.5 28.2462752552424
3.475279590117439 1.5 16.84610152989453
3.552713678800501e-15 1.5 34.93934790759875
-5.20611908370077 1.5 5.455862263971175
-2.904530020704726 1.5 28.24356175771101
3.713797243447785 1.5 3.482366469872502
1.823415295211794 1.5 7.362623656279029
-4.526775543185963 1.5 9.239745848604436
-1.185023696272928 1.5 10.38588588736076
0.102013894192023 1.5 14.23417510362622
4.130137551647 1.5 12.99187416534469
-0.02192613758705519 1.5 18.59193287074483
3.317790857010653 1.5 20.67364081105137
-3.544374745341273 1.5 16.78613196463927
-3.174073156946534 1.5 24.45212263922662
-2.123218492706492 1.5 32.14872969119027
2.173792772138962 1.5 32.16567011829598
3.159618774987917 1.5 24.45483405105398
-0.01088783053473286 1.5 22.48807380726496
-0.004033670992143357 1.5 26.30088801917799
-3.346640106136283 1.5 2.609781436176487
-2.064564474812133 1.5 6.397199888156052
0.006811542140111371 1.5 29.56372086439366
-2.902384074796464 1.5 35.30409040899081
2.902384074796481 1.5 35.3040904089908
1.898047978413012 1.5 10.85752578197695
5.195527925248821 1.5 6.311727442844759
-5.905503827789079 1.5 2.409120343819759
-5.254292254680689 6.297031019007417 3.796222533374252
-3.749126829387858 6.787531910906089 9.477169251601094
-5.586203432590765 4.483746355854725 16.98723680828588
-4.688607616603233 4.594436275958651 24.59360851307896
-3.41291507546723 5.951843992646911 20.82628884426257
-3.184982953658334 5.391941219994037 28.43191829082987
-4.093648287476969 4.343536232589321 32.16440434116181
-5.964970485249514 4.472876950344033 13.26905670349182
-3.175776556014985 7.402984450103397 5.648968568155505
-6.300581079973364 4.530854172902715 9.395746207919155
-3.120089657082553 6.77340561605999 13.24649372512975
-2.857214146380412 6.562875634273015 17.05346169912234
-5.623952704746029 3.93141572128434 20.8147728215696
-2.896839794800385 4.964244135562561 34.97201090931959
-2.355815834549168 6.121069627209304 24.66576489807505
-2.748099231230066 7.813630746813613 2.759711739349958
-5.326738926756619 5.899174214347494 7.010867519825066
-4.594741363285412 3.322839545372847 35.95406549138124
-5.189068653106548 3.481751221431705 28.60265907105228
-7.289665064300697 3.93221130939319 2.762298403308746
-6.997480165925976 3.847859308494176 6.535321838420402
-3.701498499457172 0.7003160221705068 60
3.851738121937664 -0.931509262873081 60
-1.119158375460275 -3.801457693759516 60
1.269397997940749 3.570264453056938 60
2.100948066511433 -3.638948795261449 60
0.6201842895985421 -1.130840590299121 60
-1.762894954313782 -1.284003716926086 60
-3.967207069091672 -2.387823063885131 60
1.906222097854563 0.8343620008315338 60
4.041174800508617 2.235818364301867 60
-0.7050019238897451 1.138717118726257 60
-2.179815903366991 3.771498029878741 60
1.221245327087672e-15 3.115260062517557 38
1.77635683940025e-15 -8.659739592076221e-15 46.0244986715584
-0.6272626091790297 -0.3375556660914129 53.07228376632394
-1.823007814075321 -3.335398976658907 42.70241240049728
-1.823007814075311 3.335398976658902 42.66465585751715
3.25683813748114 -0.3461162499888047 49.85767425772045
3.534136618887323 2.442490654175344e-15 42.45574066913485
-0.1144530761114912 3.223302682925921 49.72858301483382
2.807371632895816 1.647685588188689 55.50663020924753
-0.4163216368109831 -3.459487254574936 49.38164217642324
-3.561879192355686 0.03808673221244896 49.41501861145038
-2.151454251660667 -2.72439369836723 56.11793376567505
-1.26910179628801 2.552189621013548 56.07087512220868
2.154272508887283 3.713786998325291 44.71232774958787
2.119486748612594 -2.613601373327455 55.5026647675631
2.88122440492501 -3.165730521067303 46.60642369485448
-4.162448875246404 0.01007133478025142 44.46293007303303
2.276228693643048 -3.98868073734746 42.04924410047933
-2.959999020176541 2.830120130816765 52.48068928297952
-2.806599324550169 3.205328030795568 46.63997082281726
-0.2318103551501531 -7.993605777301127e-15 41.30236505228848
-3.12647053516659 -3.274016775171655 46.46696576942959
-0.3701586713596093 -4.096306899594726 53.09474702120779
4.480140067213117 0.8478134587469039 46.24507799255726
2.983371034199838 2.848674273267669 51.90252842257976
-4.127723168724629 -0.1930608984572368 54.27320403453457

CELLS 3167 14387
1 0
1 1
1 2
1 3
1 4
1 5
1 6
1 7
1 8
1 9
1 10
1 11
2 0 12
2 12 13
2 13 14
2 14 15
2 15 16
2 16 1
2 0 17
2 17 18
2 18 19
2 19 20
2 20 1
2 2 21
2 21 22
2 22 23
2 23 24
2 24 25
2 25 26
2 26 27
2 27 28
2 28 29
2 29 0
2 2 30
2 30 31
2 31 32
2 32 3
2 1 33
2 33 34
2 34 35
2 35 36
2 36 37
2 37 38
2 38 39
2 39 40
2 40 41
2 41 3
2 2 42
2 42 43
2 43 3
2 4 44
2 44 45
2 45 46
2 46 47
2 47 48
2 48 49
2 49 50
2 50 51
2 51 52
2 52 53
2 53 54
2 54 55
2 55 56
2 56 57
2 57 58
2 58 59
2 59 60
2 60 61
2 61 4
2 5 62
2 62 63
2 63 6
2 5 64
2 64 65
2 65 66
2 66 67
2 67 7
2 6 68
2 68 69
2 69 7
2 8 70
2 70 71
2 71 72
2 72 73
2 73 74
2 74 75
2 75 76
2 76 77
2 77 78
2 78 79
2 79 80
2 80 8
2 4 81
2 81 82
2 82 83
2 83 84
2 84 85
2 85 86
2 86 87
2 87 88
2 88 89
2 89 90
2 90 91
2 91 92
2 92 93
2 93 94
2 94 95
2 95 8
2 9 96
2 96 97
2 97 98
2 98 99
2 99 100
2 100 101
2 101 102
2 102 103
2 103 104
2 104 5
2 9 105
2 105 10
2 6 106
2 106 107
2 107 108
2 108 109
2 109 110
2 110 111
2 111 112
2 112 113
2 113 114
2 114 10
2 7 115
2 115 116
2 116 117
2 117 118
2 118 119
2 119 120
2 120 121
2 121 122
2 122 123
2 123 11
2 9 124
2 124 125
2 125 11
2 10 126
2 126 11
3 12 176 0
3 0 176 29
3 1 170 16
3 33 170 1
3 21 168 2
3 2 168 30
3 32 169 3
3 3 169 41
3 13 173 12
3 12 173 136
3 136 176 12
3 14 134 13
3 134 173 13
3 15 161 14
3 14 161 134
3 16 135 15
3 135 161 15
3 16 170 135
3 22 132 21
3 132 168 21
3 23 165 22
3 22 165 132
3 24 154 23
3 154 165 23
3 25 131 24
3 131 154 24
3 26 144 25
3 25 144 131
3 27 157 26
3 26 157 144
3 28 130 27
3 130 157 27
3 29 171 28
3 28 171 130
3 29 176 171
3 30 137 31
3 30 168 137
3 31 138 32
3 137 138 31
3 138 169 32
3 34 160 33
3 160 170 33
3 35 127 34
3 127 160 34
3 36 158 35
3 35 158 127
3 37 128 36
3 128 158 36
3 38 155 37
3 37 155 128
3 39 129 38
3 129 155 38
3 40 143 39
3 39 143 129
3 41 133 40
3 133 143 40
3 41 169 133
3 158 175 127
3 127 166 160
3 127 175 166
3 150 158 128
3 128 164 150
3 155 164 128
3 143 167 129
3 129 163 155
3 129 167 163
3 156 157 130
3 130 162 156
3 130 171 162
3 144 145 131
3 145 159 131
3 131 159 154
3 132 139 137
3 137 168 132
3 132 140 139
3 132 165 140
3 138 139 133
3 133 169 138
3 139 141 133
3 141 143 133
3 161 172 134
3 134 172 162
3 162 173 134
3 153 161 135
3 135 166 153
3 160 166 135
3 135 170 160
3 162 171 136
3 136 173 162
3 171 176 136
3 137 139 138
3 140 141 139
3 140 142 141
3 140 154 142
3 140 165 154
3 142 167 141
3 141 167 143
3 154 159 142
3 159 174 142
3 142 174 167
3 144 146 145
3 144 157 146
3 146 147 145
3 147 149 145
3 149 159 145
3 146 148 147
3 146 156 148
3 146 157 156
3 148 150 147
3 147 164 149
3 150 164 147
3 148 151 150
3 148 152 151
3 148 156 152
3 149 174 159
3 149 164 163
3 163 174 149
3 151 175 150
3 150 175 158
3 152 153 151
3 153 166 151
3 166 175 151
3 152 172 153
3 156 162 152
3 162 172 152
3 153 172 161
3 163 164 155
3 167 174 163
3 29 17 0
3 20 208 1
3 1 208 33
3 2 205 21
3 42 205 2
3 41 204 3
3 3 204 43
3 17 186 18
3 29 186 17
3 18 177 19
3 18 186 177
3 19 201 20
3 177 201 19
3 201 208 20
3 21 197 22
3 21 205 197
3 22 181 23
3 22 197 181
3 23 198 24
3 181 198 23
3 24 193 25
3 24 198 193
3 25 182 26
3 25 193 182
3 26 191 27
3 182 191 26
3 27 180 28
3 27 191 180
3 28 207 29
3 180 207 28
3 29 207 186
3 33 184 34
3 33 208 184
3 34 188 35
3 184 188 34
3 35 178 36
3 35 188 178
3 36 194 37
3 178 194 36
3 37 179 38
3 37 194 179
3 38 195 39
3 179 195 38
3 39 185 40
3 39 195 185
3 40 196 41
3 185 196 40
3 196 204 41
3 43 183 42
3 183 205 42
3 43 204 183
3 186 187 177
3 187 202 177
3 177 202 201
3 188 189 178
3 189 190 178
3 190 194 178
3 179 194 192
3 192 199 179
3 179 199 195
3 180 206 187
3 187 207 180
3 191 206 180
3 197 203 181
3 181 200 198
3 181 203 200
3 190 191 182
3 182 192 190
3 182 193 192
3 196 197 183
3 183 204 196
3 197 205 183
3 184 202 188
3 201 202 184
3 184 208 201
3 195 200 185
3 185 203 196
3 200 203 185
3 186 207 187
3 189 202 187
3 187 206 189
3 188 202 189
3 189 206 190
3 190 206 191
3 192 194 190
3 193 199 192
3 198 199 193
3 199 200 195
3 196 203 197
3 198 200 199
3 42 2 30
3 32 3 43
3 31 209 30
3 30 209 42
3 32 209 31
3 43 209 32
3 42 209 43
3 0 210 7
3 7 212 0
3 0 12 54
3 0 212 17
3 53 0 54
3 53 210 0
3 4 1 5
3 4 61 1
3 1 213 5
3 1 61 16
3 20 213 1
3 44 4 5
3 62 44 5
3 5 213 64
3 48 47 6
3 47 63 6
3 6 217 48
3 68 217 6
3 52 51 7
3 7 51 69
3 7 210 52
3 67 212 7
3 12 13 55
3 54 12 55
3 14 216 13
3 55 13 56
3 13 216 56
3 58 14 15
3 57 14 58
3 57 216 14
3 16 59 15
3 15 59 58
3 16 60 59
3 16 61 60
3 17 215 18
3 17 212 67
3 67 215 17
3 18 211 19
3 66 211 18
3 18 215 66
3 19 214 20
3 19 211 65
3 65 214 19
3 64 213 20
3 20 214 64
3 45 44 62
3 46 45 62
3 46 63 47
3 62 63 46
3 48 217 49
3 50 49 68
3 49 217 68
3 51 50 69
3 69 50 68
3 52 210 53
3 56 216 57
3 64 214 65
3 65 211 66
3 66 215 67
3 44 475 4
3 4 476 61
3 4 475 81
3 81 476 4
3 8 471 70
3 80 472 8
3 95 471 8
3 8 472 95
3 45 453 44
3 453 475 44
3 46 233 45
3 233 453 45
3 47 439 46
3 46 439 233
3 48 440 47
3 47 440 439
3 49 224 48
3 224 440 48
3 50 438 49
3 49 438 224
3 51 235 50
3 235 438 50
3 52 434 51
3 51 434 235
3 53 223 52
3 223 434 52
3 54 485 53
3 53 485 223
3 55 236 54
3 236 485 54
3 56 464 55
3 55 464 236
3 57 227 56
3 227 464 56
3 58 436 57
3 57 436 227
3 59 234 58
3 234 436 58
3 60 457 59
3 59 457 234
3 61 451 60
3 451 457 60
3 61 476 451
3 70 417 71
3 70 471 417
3 71 361 72
3 71 417 361
3 72 231 73
3 72 361 231
3 73 359 74
3 231 359 73
3 74 225 75
3 74 359 225
3 75 388 76
3 225 388 75
3 76 387 77
3 76 388 387
3 77 229 78
3 77 387 229
3 78 385 79
3 229 385 78
3 79 239 80
3 79 385 239
3 239 472 80
3 82 238 81
3 81 240 82
3 238 476 81
3 81 475 240
3 82 397 83
3 83 402 82
3 82 402 238
3 240 397 82
3 83 228 84
3 84 230 83
3 83 397 228
3 230 402 83
3 84 444 85
3 85 473 84
3 228 444 84
3 84 473 230
3 86 221 85
3 85 396 86
3 221 473 85
3 85 444 396
3 86 220 87
3 87 392 86
3 86 396 220
3 86 392 221
3 88 391 87
3 87 422 88
3 220 422 87
3 391 392 87
3 89 218 88
3 88 380 89
3 218 391 88
3 88 422 380
3 89 219 90
3 90 455 89
3 89 455 218
3 89 380 219
3 90 241 91
3 91 383 90
3 219 241 90
3 383 455 90
3 92 222 91
3 91 381 92
3 222 383 91
3 241 381 91
3 92 226 93
3 93 382 92
3 92 382 222
3 92 381 226
3 94 232 93
3 93 384 94
3 226 384 93
3 232 382 93
3 94 237 95
3 95 429 94
3 94 429 232
3 94 384 237
3 237 471 95
3 95 472 429
3 218 456 391
3 455 479 218
3 218 479 456
3 219 242 241
3 219 243 242
3 219 380 243
3 396 427 220
3 403 422 220
3 220 427 403
3 374 375 221
3 221 465 374
3 375 473 221
3 392 465 221
3 382 482 222
3 222 483 383
3 222 482 454
3 454 483 222
3 223 410 409
3 409 434 223
3 223 411 410
3 223 485 411
3 224 438 357
3 357 463 224
3 224 463 440
3 225 459 350
3 350 467 225
3 359 459 225
3 225 467 388
3 381 424 226
3 226 425 384
3 424 425 226
3 436 470 227
3 227 478 464
3 470 478 227
3 397 446 228
3 228 447 444
3 446 447 228
3 229 477 385
3 387 466 229
3 466 477 229
3 375 386 230
3 230 473 375
3 386 474 230
3 230 474 402
3 358 359 231
3 231 360 358
3 231 361 360
3 232 443 382
3 429 469 232
3 232 469 443
3 439 458 233
3 233 487 453
3 458 487 233
3 234 457 366
3 366 462 234
3 234 462 436
3 434 460 235
3 235 480 438
3 460 480 235
3 236 412 411
3 411 485 236
3 236 413 412
3 236 464 413
3 384 428 237
3 237 428 417
3 417 471 237
3 402 435 238
3 435 451 238
3 451 476 238
3 239 385 354
3 354 469 239
3 239 469 429
3 429 472 239
3 240 449 397
3 240 453 449
3 240 475 453
3 242 426 241
3 241 426 381
3 243 244 242
3 244 245 242
3 245 426 242
3 243 246 244
3 243 247 246
3 243 380 247
3 244 285 245
3 246 399 244
3 244 399 285
3 285 286 245
3 286 377 245
3 377 426 245
3 247 248 246
3 248 249 246
3 249 399 246
3 247 403 248
3 380 422 247
3 247 422 403
3 248 250 249
3 248 372 250
3 248 403 372
3 250 251 249
3 251 442 249
3 249 442 399
3 250 252 251
3 250 284 252
3 250 372 284
3 252 253 251
3 253 254 251
3 254 442 251
3 252 255 253
3 252 373 255
3 284 373 252
3 253 393 254
3 255 256 253
3 256 393 253
3 393 432 254
3 432 441 254
3 441 442 254
3 255 257 256
3 255 269 257
3 255 373 269
3 257 258 256
3 258 259 256
3 259 393 256
3 257 401 258
3 269 289 257
3 289 401 257
3 258 260 259
3 258 280 260
3 258 401 280
3 260 261 259
3 261 329 259
3 329 393 259
3 260 262 261
3 260 418 262
3 280 418 260
3 262 263 261
3 263 398 261
3 261 398 329
3 262 264 263
3 262 267 264
3 262 418 267
3 264 265 263
3 265 266 263
3 266 398 263
3 264 379 265
3 267 268 264
3 268 379 264
3 265 270 266
3 265 274 270
3 265 379 274
3 270 271 266
3 271 405 266
3 266 405 398
3 267 282 268
3 267 419 282
3 418 419 267
3 282 283 268
3 283 395 268
3 268 395 379
3 269 297 289
3 269 310 297
3 269 373 310
3 270 272 271
3 270 430 272
3 274 430 270
3 272 273 271
3 273 275 271
3 275 405 271
3 272 416 273
3 415 416 272
3 272 430 415
3 273 276 275
3 273 277 276
3 273 416 277
3 274 379 370
3 370 431 274
3 274 431 430
3 276 364 275
3 275 364 363
3 363 405 275
3 277 278 276
3 278 281 276
3 281 364 276
3 277 279 278
3 277 287 279
3 277 416 287
3 279 290 278
3 278 421 281
3 290 421 278
3 287 288 279
3 288 406 279
3 279 406 290
3 401 407 280
3 407 414 280
3 414 418 280
3 281 365 364
3 281 437 365
3 421 437 281
3 282 291 283
3 282 295 291
3 282 419 295
3 291 292 283
3 292 293 283
3 293 395 283
3 284 368 367
3 367 373 284
3 284 372 368
3 285 296 286
3 285 400 296
3 399 400 285
3 296 301 286
3 301 302 286
3 302 377 286
3 287 299 288
3 287 316 299
3 287 416 316
3 299 305 288
3 305 309 288
3 309 406 288
3 297 308 289
3 308 322 289
3 322 401 289
3 406 452 290
3 290 423 421
3 290 452 423
3 291 315 292
3 295 450 291
3 291 450 315
3 292 294 293
3 292 420 294
3 315 420 292
3 294 298 293
3 298 313 293
3 313 395 293
3 294 300 298
3 294 306 300
3 294 420 306
3 419 445 295
3 445 461 295
3 295 461 450
3 296 324 301
3 296 325 324
3 296 400 325
3 297 404 308
3 310 311 297
3 311 404 297
3 300 371 298
3 298 314 313
3 298 371 314
3 299 394 305
3 316 317 299
3 317 394 299
3 306 328 300
3 328 331 300
3 331 371 300
3 301 303 302
3 301 390 303
3 324 390 301
3 303 304 302
3 304 342 302
3 342 377 302
3 303 307 304
3 303 323 307
3 303 390 323
3 307 481 304
3 304 343 342
3 304 481 343
3 305 332 309
3 305 345 332
3 305 394 345
3 306 346 328
3 306 348 346
3 306 420 348
3 323 330 307
3 330 358 307
3 358 481 307
3 308 355 322
3 308 357 355
3 308 404 357
3 332 351 309
3 351 352 309
3 352 406 309
3 310 312 311
3 310 367 312
3 310 373 367
3 312 321 311
3 321 339 311
3 339 404 311
3 312 340 321
3 312 341 340
3 312 367 341
3 314 326 313
3 326 370 313
3 370 395 313
3 314 327 326
3 314 334 327
3 314 371 334
3 315 448 420
3 315 484 448
3 450 484 315
3 316 318 317
3 316 415 318
3 316 416 415
3 318 319 317
3 319 344 317
3 344 394 317
3 318 320 319
3 318 333 320
3 318 415 333
3 320 376 319
3 319 349 344
3 319 376 349
3 333 378 320
3 362 376 320
3 320 378 362
3 321 458 339
3 340 353 321
3 353 458 321
3 355 356 322
3 356 407 322
3 322 407 401
3 323 338 330
3 323 437 338
3 390 437 323
3 325 336 324
3 336 365 324
3 365 390 324
3 325 337 336
3 325 441 337
3 400 441 325
3 327 378 326
3 326 431 370
3 378 431 326
3 334 335 327
3 335 362 327
3 362 378 327
3 328 386 331
3 346 347 328
3 347 386 328
3 329 432 393
3 398 433 329
3 329 433 432
3 338 350 330
3 350 459 330
3 330 459 358
3 331 374 371
3 331 375 374
3 331 386 375
3 345 443 332
3 332 354 351
3 332 443 354
3 333 431 378
3 415 430 333
3 430 431 333
3 334 465 335
3 371 374 334
3 374 465 334
3 335 456 362
3 335 392 391
3 391 456 335
3 335 465 392
3 337 363 336
3 363 364 336
3 364 365 336
3 337 433 363
3 432 433 337
3 337 441 432
3 338 423 350
3 421 423 338
3 338 437 421
3 339 463 404
3 458 486 339
3 339 486 463
3 341 447 340
3 340 446 353
3 340 447 446
3 367 368 341
3 368 369 341
3 369 447 341
3 343 425 342
3 342 424 377
3 342 425 424
3 360 468 343
3 343 481 360
3 343 428 425
3 343 468 428
3 349 483 344
3 344 454 394
3 344 483 454
3 394 454 345
3 345 482 443
3 454 482 345
3 346 366 347
3 348 462 346
3 346 462 366
3 366 435 347
3 347 474 386
3 435 474 347
3 420 448 348
3 448 470 348
3 348 470 462
3 376 479 349
3 349 455 383
3 383 483 349
3 349 479 455
3 423 467 350
3 351 466 352
3 354 477 351
3 351 477 466
3 389 452 352
3 352 466 389
3 352 452 406
3 446 449 353
3 449 487 353
3 353 487 458
3 385 477 354
3 443 469 354
3 355 460 356
3 357 480 355
3 355 480 460
3 356 408 407
3 356 409 408
3 356 460 409
3 404 463 357
3 438 480 357
3 358 459 359
3 360 481 358
3 361 468 360
3 417 468 361
3 362 456 376
3 363 433 405
3 365 437 390
3 366 457 435
3 368 427 369
3 372 427 368
3 369 427 396
3 396 444 369
3 444 447 369
3 379 395 370
3 403 427 372
3 456 479 376
3 424 426 377
3 381 426 424
3 443 482 382
3 425 428 384
3 388 389 387
3 389 466 387
3 388 467 389
3 423 452 389
3 389 467 423
3 397 449 446
3 405 433 398
3 399 442 400
3 400 442 441
3 402 474 435
3 408 414 407
3 409 410 408
3 410 445 408
3 408 445 414
3 409 460 434
3 411 461 410
3 410 461 445
3 412 461 411
3 413 484 412
3 450 461 412
3 412 484 450
3 464 478 413
3 478 484 413
3 414 419 418
3 414 445 419
3 428 468 417
3 435 457 451
3 462 470 436
3 440 486 439
3 439 486 458
3 463 486 440
3 448 478 470
3 448 484 478
3 453 487 449
3 62 5 507
3 5 104 507
3 6 63 503
3 106 6 503
3 96 9 505
3 9 105 505
3 105 10 501
3 10 114 501
3 63 62 488
3 488 62 507
3 63 488 503
3 97 96 494
3 494 96 505
3 98 97 506
3 97 494 506
3 99 98 491
3 491 98 506
3 100 99 500
3 99 491 500
3 101 100 490
3 490 100 500
3 102 101 495
3 101 490 495
3 103 102 497
3 102 495 497
3 104 103 508
3 103 497 508
3 507 104 508
3 105 501 505
3 107 106 496
3 496 106 503
3 108 107 489
3 489 107 496
3 109 108 498
3 108 489 498
3 110 109 499
3 109 498 499
3 111 110 492
3 492 110 499
3 112 111 502
3 111 492 502
3 113 112 493
3 493 112 502
3 114 113 494
3 113 493 494
3 114 494 501
3 488 496 503
3 496 488 504
3 504 488 508
3 488 507 508
3 495 489 497
3 489 495 498
3 489 496 504
3 497 489 504
3 490 492 499
3 492 490 500
3 495 490 498
3 498 490 499
3 491 492 500
3 492 491 502
3 491 493 502
3 493 491 506
3 494 493 506
3 501 494 505
3 497 504 508
3 104 5 64
3 67 7 540
3 7 115 540
3 9 96 537
3 124 9 537
3 123 11 536
3 11 125 536
3 64 65 518
3 104 64 518
3 65 66 509
3 65 509 518
3 66 67 533
3 509 66 533
3 533 67 540
3 96 97 529
3 96 529 537
3 97 98 513
3 97 513 529
3 98 99 530
3 513 98 530
3 99 100 525
3 99 525 530
3 100 101 514
3 100 514 525
3 101 102 523
3 514 101 523
3 102 103 512
3 102 512 523
3 103 104 539
3 512 103 539
3 104 518 539
3 115 116 516
3 115 516 540
3 116 117 520
3 516 116 520
3 117 118 510
3 117 510 520
3 118 119 526
3 510 118 526
3 119 120 511
3 119 511 526
3 120 121 527
3 511 120 527
3 121 122 517
3 121 517 527
3 122 123 528
3 517 122 528
3 528 123 536
3 125 124 515
3 515 124 537
3 125 515 536
3 518 509 519
3 519 509 534
3 509 533 534
3 520 510 521
3 521 510 522
3 522 510 526
3 511 524 526
3 524 511 531
3 511 527 531
3 512 519 538
3 519 512 539
3 523 512 538
3 529 513 535
3 513 530 532
3 513 532 535
3 522 514 523
3 514 522 524
3 514 524 525
3 528 515 529
3 515 528 536
3 529 515 537
3 516 520 534
3 533 516 534
3 516 533 540
3 527 517 532
3 517 528 535
3 532 517 535
3 518 519 539
3 521 519 534
3 519 521 538
3 520 521 534
3 521 522 538
3 522 523 538
3 524 522 526
3 525 524 531
3 530 525 531
3 531 527 532
3 528 529 535
3 530 531 532
3 68 6 556
3 6 106 556
3 7 69 560
3 115 7 560
3 114 10 554
3 10 126 554
3 11 123 558
3 126 11 558
3 69 68 541
3 541 68 556
3 69 541 560
3 106 107 549
3 106 549 556
3 107 108 542
3 107 542 549
3 108 109 551
3 542 108 551
3 109 110 552
3 551 109 552
3 110 111 545
3 110 545 552
3 111 112 555
3 545 111 555
3 112 113 546
3 112 546 555
3 113 114 547
3 546 113 547
3 547 114 554
3 116 115 561
3 115 560 561
3 117 116 550
3 550 116 561
3 118 117 548
3 548 117 550
3 119 118 543
3 543 118 548
3 120 119 553
3 119 543 553
3 121 120 544
3 544 120 553
3 122 121 559
3 121 544 559
3 123 122 547
3 547 122 559
3 123 547 558
3 554 126 558
3 549 541 556
3 541 549 557
3 541 557 561
3 560 541 561
3 542 548 550
3 548 542 551
3 549 542 557
3 542 550 557
3 545 543 552
3 543 545 553
3 543 548 551
3 543 551 552
3 545 544 553
3 544 545 555
3 546 544 555
3 544 546 559
3 546 547 559
3 547 554 558
3 557 550 561
3 70 571 8
3 8 563 80
3 8 571 563
3 71 571 70
3 72 565 71
3 565 571 71
3 73 573 72
3 72 573 565
3 74 573 73
3 75 562 74
3 562 573 74
3 76 569 75
3 75 569 562
3 77 569 76
3 78 564 77
3 564 569 77
3 79 566 78
3 78 566 564
3 80 566 79
3 563 566 80
3 562 569 568
3 568 572 562
3 572 573 562
3 563 567 566
3 563 570 567
3 563 571 570
3 566 567 564
3 567 568 564
3 568 569 564
3 570 571 565
3 565 572 570
3 565 573 572
3 567 572 568
3 570 572 567
3 124 105 9
3 10 105 574
3 126 10 574
3 125 11 126
3 105 124 574
3 124 125 574
3 125 126 574
4 105 574 124 587
4 94 582 579 588
4 574 124 587 594
4 574 105 10 587
4 452 583 584 596
4 377 10 105 587
4 572 570 567 586
4 105 124 580 587
4 429 582 94 588
4 574 587 578 594
4 105 580 426 587
4 574 10 578 587
4 577 305 589 595
4 429 94 579 588
4 286 10 377 587
4 286 578 10 587
4 570 582 567 586
4 278 577 2 590
4 579 583 469 596
4 277 2 278 577
4 580 587 124 594
4 2 11 590 594
4 105 426 377 587
4 579 582 94 598
4 583 589 305 595
4 576 581 579 583
4 42 125 2 594
4 42 2 577 594
4 125 578 11 594
4 586 592 360 598
4 286 302 578 587
4 11 578 365 590
4 426 105 9 580
4 577 589 305 591
4 2 590 577 594
4 578 590 11 594
4 452 584 389 596
4 581 597 425 598
4 286 377 302 587
4 582 567 586 588
4 581 587 425 597
4 576 584 596 599
4 2 125 11 594
4 581 360 592 598
4 585 586 567 588
4 469 588 579 596
4 452 352 583 596
4 389 596 584 599
4 469 579 443 583
4 309 583 305 595
4 579 582 576 588
4 305 577 288 595
4 581 583 576 584
4 281 278 2 590
4 579 581 575 583
4 281 2 11 590
4 468 582 586 598
4 11 365 281 590
4 277 30 2 577
4 302 587 304 593
4 429 95 94 582
4 303 302 304 593
4 426 9 381 580
4 426 580 381 587
4 579 597 581 598
4 303 578 302 593
4 304 587 581 593
4 578 587 302 593
4 354 469 583 596
4 377 10 286 105
4 443 583 579 589
4 567 582 570 588
4 365 11 126 578
4 468 586 360 598
4 563 582 95 588
4 579 576 582 598
4 576 584 583 596
4 425 581 342 587
4 429 579 469 588
4 575 583 581 584
4 576 579 588 596
4 361 468 582 586
4 342 581 304 587
4 437 365 578 590
4 576 592 586 598
4 245 377 286 105
4 576 586 585 588
4 568 585 562 586
4 305 299 577 591
4 309 305 288 595
4 305 583 332 589
4 31 287 299 577
4 95 582 429 588
4 30 287 31 577
4 302 301 286 578
4 9 241 426 381
4 576 582 586 588
4 429 94 232 579
4 452 584 583 595
4 365 126 324 578
4 354 469 443 583
4 384 597 579 598
4 31 577 299 591
4 277 278 279 577
4 278 281 2 276
4 452 389 352 596
4 365 390 437 578
4 305 309 332 583
4 424 426 381 587
4 384 425 597 598
4 237 94 582 598
4 288 305 299 577
4 572 568 562 586
4 124 9 105 580
4 565 361 582 586
4 570 582 563 588
4 581 592 307 593
4 576 586 582 598
4 279 577 278 590
4 429 232 469 579
4 576 583 579 596
4 425 343 342 581
4 567 570 563 588
4 2 30 42 577
4 576 581 592 598
4 279 577 590 595
4 575 577 589 595
4 365 324 390 578
4 3 483 222 591
4 575 581 579 597
4 95 237 94 582
4 126 11 125 578
4 563 95 472 588
4 279 590 278 595
4 580 589 222 597
4 564 385 585 588
4 95 563 471 582
4 10 286 301 578
4 575 587 581 597
4 390 437 578 593
4 3 222 580 591
4 30 277 287 577
4 361 360 468 586
4 342 343 304 581
4 481 581 360 592
4 437 590 578 593
4 585 596 389 599
4 437 281 365 590
4 330 307 592 593
4 562 586 585 599
4 577 575 589 591
4 564 385 229 585
4 32 483 3 591
4 126 10 301 578
4 278 2 277 276
4 382 222 589 597
4 31 299 317 591
4 381 587 580 597
4 443 332 583 589
4 577 575 591 594
4 126 301 324 578
4 562 585 569 599
4 443 332 354 583
4 563 571 471 582
4 345 305 589 591
4 565 582 570 586
4 307 581 481 592
4 222 589 580 591
4 343 581 425 598
4 388 569 585 599
4 307 304 581 593
4 358 360 586 592
4 105 245 377 426
4 343 360 581 598
4 565 570 572 586
4 245 286 10 105
4 360 361 231 586
4 330 592 584 593
4 565 231 361 586
4 279 287 277 577
4 303 301 302 578
4 352 452 583 595
4 305 394 299 591
4 580 591 575 594
4 564 585 567 588
4 361 417 565 582
4 381 424 587 597
4 232 443 579 589
4 388 562 569 599
4 562 225 586 599
4 342 304 302 587
4 354 588 469 596
4 3 222 383 580
4 385 585 588 596
4 232 579 382 589
4 469 232 443 579
4 299 394 317 591
4 579 581 576 598
4 580 589 575 591
4 9 91 381 580
4 317 32 31 591
4 316 31 287 299
4 3 383 91 580
4 324 301 390 578
4 424 377 426 587
4 483 3 222 383
4 575 589 583 595
4 352 406 452 595
4 564 566 385 588
4 241 9 91 381
4 384 579 94 598
4 93 579 384 597
4 581 587 575 593
4 30 31 209 577
4 573 562 359 586
4 209 577 31 591
4 425 587 424 597
4 92 580 222 597
4 225 359 562 586
4 231 565 573 586
4 360 231 358 586
4 384 425 226 597
4 279 278 290 595
4 287 30 31 316
4 278 590 290 595
4 93 382 579 597
4 222 482 589 591
4 382 589 579 597
4 232 93 382 579
4 482 382 222 589
4 3 580 43 591
4 32 3 43 591
4 389 585 466 596
4 303 390 578 593
4 288 299 287 577
4 307 304 481 581
4 584 592 581 593
4 358 481 360 592
4 568 567 564 585
4 343 468 360 598
4 417 582 468 598
4 382 92 222 597
4 576 596 585 599
4 472 95 429 588
4 94 384 93 579
4 481 343 360 581
4 345 394 305 591
4 389 452 423 584
4 226 425 424 597
4 361 468 417 582
4 225 359 586 599
4 562 568 569 585
4 417 237 582 598
4 317 344 32 591
4 452 290 423 595
4 563 570 571 582
4 301 10 126 296
4 231 72 565 361
4 575 578 587 594
4 307 303 304 593
4 222 454 482 591
4 358 307 481 592
4 94 93 232 579
4 124 43 9 580
4 564 567 566 588
4 390 323 437 593
4 225 459 359 599
4 452 423 584 595
4 301 303 390 578
4 389 584 423 599
4 305 332 345 589
4 562 388 225 599
4 288 577 279 595
4 579 583 575 589
4 287 279 288 577
4 584 590 338 593
4 30 209 42 577
4 91 383 222 580
4 359 358 586 592
4 577 591 209 594
4 571 565 417 582
4 351 354 332 583
4 575 587 580 594
4 394 344 317 591
4 354 583 351 596
4 231 72 573 565
4 585 586 576 599
4 237 384 94 598
4 241 105 9 426
4 330 584 338 593
4 125 574 126 578
4 581 584 576 592
4 9 43 3 580
4 437 338 590 593
4 467 389 423 599
4 578 575 587 593
4 95 563 8 471
4 126 324 301 296
4 562 573 359 74
4 381 226 424 597
4 126 574 10 578
4 232 382 443 589
4 43 209 591 594
4 338 584 421 590
4 352 389 466 596
4 566 563 472 588
4 11 2 281 276
4 359 358 231 586
4 91 9 3 580
4 400 114 441 442
4 575 577 590 594
4 575 590 578 594
4 225 562 359 74
4 408 27 28 116
4 116 408 27 117
4 43 591 580 594
4 571 570 565 582
4 564 78 229 385
4 564 229 77 585
4 307 330 323 593
4 575 584 581 593
4 93 384 226 597
4 381 580 92 597
4 406 309 288 595
4 303 323 390 593
4 42 577 209 594
4 575 589 580 597
4 583 584 575 595
4 417 428 237 598
4 304 343 481 581
4 241 242 105 426
4 77 569 564 585
4 125 574 578 594
4 417 468 428 598
4 471 563 8 571
4 515 125 42 124
4 183 515 42 124
4 42 43 183 124
4 290 278 421 590
4 336 365 11 126
4 330 338 323 593
4 43 580 124 594
4 344 483 32 591
4 342 424 425 587
4 217 106 6 440
4 569 387 388 585
4 364 11 281 276
4 33 1 5 81
4 471 237 95 582
4 317 31 32 138
4 575 579 589 597
4 296 301 10 286
4 229 387 77 585
4 388 585 389 599
4 150 294 306 300
4 584 590 575 595
4 584 592 350 599
4 563 566 567 588
4 145 159 395 313
4 350 584 330 592
4 342 302 377 587
4 313 145 159 149
4 351 332 309 583
4 210 7 52 115
4 385 588 354 596
4 575 590 584 593
4 145 283 268 144
4 78 564 566 385
4 222 483 454 591
4 387 569 77 585
4 227 14 57 216
4 26 27 157 295
4 242 105 9 241
4 575 578 590 593
4 577 575 590 595
4 263 23 265 264
4 437 323 338 593
4 359 459 358 592
4 224 106 217 440
4 3 9 90 96
4 109 310 312 311
4 105 285 245 501
4 116 29 410 115
4 410 28 29 116
4 576 592 584 599
4 27 26 445 295
4 71 417 565 361
4 19 65 211 201
4 533 18 66 211
4 23 154 265 264
4 314 298 149 371
4 277 2 30 273
4 573 359 231 586
4 150 294 148 306
4 387 389 388 585
4 319 317 32 138
4 126 336 365 324
4 419 144 25 267
4 222 92 91 580
4 35 103 102 83
4 103 35 34 83
4 146 291 283 144
4 580 587 575 597
4 91 92 381 580
4 117 26 414 27
4 415 132 137 430
4 209 31 32 591
4 253 255 252 555
4 571 417 471 582
4 2 11 123 275
4 1 4 5 81
4 120 25 262 119
4 131 145 268 144
4 358 330 307 592
4 119 262 120 260
4 225 562 75 388
4 223 210 52 115
4 313 395 145 293
4 555 253 393 254
4 566 472 239 588
4 338 423 421 584
4 3 32 349 483
4 310 499 109 312
4 437 338 421 590
4 90 41 3 96
4 445 26 419 295
4 145 313 293 149
4 26 117 414 118
4 38 39 87 99
4 546 251 254 442
4 246 244 399 501
4 255 373 252 111
4 113 441 114 442
4 238 81 33 82
4 108 321 339 311
4 238 33 34 82
4 364 281 11 365
4 555 255 252 111
4 452 406 290 595
4 118 401 407 280
4 111 255 373 110
4 418 262 119 260
4 554 114 441 400
4 102 101 35 84
4 255 269 110 552
4 428 343 425 598
4 291 282 283 144
4 282 144 419 267
4 33 5 1 213
4 146 291 144 157
4 34 103 83 82
4 235 460 561 480
4 288 279 406 595
4 217 6 48 440
4 147 294 150 300
4 499 109 110 310
4 299 316 31 317
4 132 270 165 430
4 283 145 293 146
4 416 137 30 316
4 292 283 293 146
4 454 483 344 591
4 123 21 2 275
4 497 446 102 397
4 310 110 499 367
4 99 39 87 98
4 109 269 110 310
4 80 566 563 472
4 315 292 420 156
4 32 43 209 591
4 562 75 388 569
4 400 296 10 285
4 244 245 285 501
4 296 10 554 400
4 268 395 283 145
4 441 546 254 442
4 499 310 367 312
4 101 36 35 84
4 329 259 121 261
4 127 474 35 158
4 418 262 25 119
4 42 124 125 594
4 43 124 42 594
4 418 25 118 119
4 199 532 198 200
4 203 535 528 196
4 245 10 285 105
4 144 25 26 419
4 123 11 364 275
4 393 555 254 546
4 200 199 532 530
4 38 39 99 195
4 421 278 281 590
4 291 282 144 157
4 99 530 525 195
4 200 199 530 195
4 531 198 532 527
4 259 121 544 329
4 179 38 99 195
4 310 109 297 311
4 350 592 459 599
4 259 120 121 261
4 531 193 198 527
4 525 530 199 195
4 159 395 379 131
4 394 345 454 591
4 418 25 26 118
4 31 30 137 316
4 211 177 19 201
4 211 66 533 509
4 420 151 306 348
4 307 323 303 593
4 397 446 102 228
4 546 441 113 442
4 394 454 344 591
4 147 294 148 150
4 512 35 103 102
4 512 35 34 103
4 180 28 27 116
4 116 27 180 117
4 532 199 198 531
4 443 345 332 589
4 157 27 130 295
4 493 112 249 250
4 99 100 38 179
4 30 287 416 316
4 531 532 199 530
4 37 38 100 179
4 415 168 272 416
4 331 328 158 386
4 125 42 2 536
4 43 9 204 124
4 37 36 101 85
4 99 98 530 195
4 269 373 110 310
4 98 99 39 195
4 268 131 144 267
4 372 491 500 427
4 31 317 318 138
4 179 99 525 195
4 216 227 14 134
4 120 23 121 261
4 268 395 145 131
4 96 41 40 89
4 104 34 33 82
4 103 34 104 82
4 100 38 86 99
4 402 34 160 127
4 472 563 8 95
4 38 100 86 37
4 151 420 152 348
4 238 34 160 402
4 193 198 199 531
4 530 199 531 525
4 370 313 174 326
4 387 466 389 585
4 37 101 100 85
4 144 282 268 267
4 513 530 98 195
4 508 497 103 397
4 33 1 81 476
4 193 531 511 527
4 179 525 199 195
4 513 39 195 98
4 132 139 137 430
4 537 204 9 124
4 536 42 2 205
4 352 351 309 583
4 151 148 420 306
4 156 292 420 148
4 217 556 106 224
4 553 256 257 258
4 104 33 5 81
4 352 351 583 596
4 512 34 35 188
4 555 251 254 546
4 180 116 117 520
4 140 370 274 154
4 227 56 464 216
4 100 99 525 179
4 555 251 253 254
4 417 565 571 71
4 535 517 203 528
4 203 535 196 185
4 96 90 41 89
4 39 40 88 98
4 262 24 25 120
4 572 562 573 586
4 39 513 195 185
4 97 96 40 89
4 313 159 370 174
4 224 217 48 440
4 410 27 28 408
4 5 4 475 81
4 255 269 373 110
4 437 421 281 590
4 105 10 285 501
4 152 148 420 151
4 342 377 424 587
4 239 429 469 588
4 350 338 330 584
4 154 23 24 264
4 120 121 544 259
4 509 211 65 201
4 269 255 257 552
4 415 137 168 416
4 494 246 399 501
4 246 399 113 494
4 408 28 410 116
4 364 363 123 275
4 120 511 25 119
4 137 415 333 318
4 446 340 353 497
4 251 555 112 546
4 513 195 200 530
4 277 30 287 416
4 239 469 354 588
4 149 163 314 371
4 373 110 310 367
4 146 292 291 156
4 586 592 576 599
4 198 517 532 527
4 292 293 147 146
4 327 143 167 362
4 24 23 263 264
4 530 532 200 513
4 198 181 200 532
4 220 99 491 427
4 363 433 123 405
4 356 408 116 117
4 81 104 33 82
4 416 415 137 316
4 316 137 31 318
4 81 1 4 476
4 385 354 477 596
4 466 585 229 596
4 333 431 141 378
4 230 35 474 158
4 26 27 445 414
4 204 9 96 537
4 24 131 264 267
4 375 36 230 158
4 182 25 193 511
4 100 525 514 179
4 219 242 9 241
4 491 98 220 403
4 576 588 585 596
4 155 371 374 334
4 110 373 284 367
4 273 30 277 416
4 96 9 90 219
4 463 549 107 404
4 319 318 317 138
4 108 297 109 311
4 418 26 414 118
4 422 220 98 403
4 252 112 111 250
4 315 291 292 156
4 363 433 337 123
4 192 531 193 199
4 112 252 251 250
4 119 118 418 280
4 373 111 110 284
4 561 541 235 480
4 384 428 425 598
4 457 160 135 366
4 535 203 200 185
4 203 517 535 532
4 326 174 167 314
4 125 2 11 536
4 9 43 204 3
4 431 140 430 333
4 536 2 123 205
4 531 199 192 525
4 158 150 328 331
4 103 102 83 397
4 561 557 541 480
4 220 396 99 427
4 397 83 103 82
4 83 102 35 84
4 249 248 493 250
4 272 132 415 430
4 502 112 493 250
4 123 21 22 197
4 515 183 204 124
4 204 183 43 124
4 515 42 125 536
4 536 515 42 183
4 165 140 132 430
4 109 110 269 552
4 471 417 237 582
4 263 23 24 261
4 242 9 505 219
4 319 376 138 169
4 524 193 531 511
4 525 199 192 179
4 293 145 147 146
4 118 414 418 280
4 529 41 40 96
4 195 513 200 185
4 140 142 370 154
4 555 252 251 112
4 174 142 370 326
4 431 140 333 141
4 219 90 96 89
4 431 370 274 140
4 331 158 128 386
4 96 380 243 219
4 497 508 449 397
4 349 3 483 383
4 319 376 320 138
4 40 529 513 185
4 181 517 122 197
4 251 546 113 442
4 113 399 246 249
4 181 198 517 532
4 385 239 354 588
4 407 414 117 118
4 523 35 512 102
4 517 198 23 527
4 191 180 27 117
4 188 35 512 178
4 510 180 117 520
4 24 198 193 527
4 102 103 497 397
4 523 101 35 102
4 515 204 537 124
4 205 536 42 183
4 397 103 508 240
4 27 26 191 117
4 395 268 379 131
4 554 114 547 441
4 270 22 266 271
4 506 493 248 403
4 373 252 111 284
4 311 312 109 498
4 97 88 40 98
4 118 25 526 119
4 117 116 356 550
4 444 101 447 228
4 557 561 460 480
4 420 448 315 152
4 109 297 269 310
4 117 356 407 548
4 123 433 122 405
4 156 420 315 152
4 96 40 529 97
4 572 573 565 586
4 87 39 88 98
4 128 375 221 374
4 101 37 194 36
4 120 24 23 261
4 9 204 96 3
4 492 372 500 427
4 370 395 379 159
4 144 131 25 267
4 561 560 460 235
4 455 41 3 90
4 39 40 98 513
4 526 26 25 118
4 220 491 403 427
4 548 117 356 550
4 97 380 422 247
4 156 146 292 148
4 500 99 396 427
4 546 112 251 113
4 349 169 3 455
4 259 544 393 329
4 344 317 32 319
4 22 122 123 197
4 133 320 141 362
4 404 463 549 357
4 511 24 193 527
4 121 329 398 122
4 297 108 551 404
4 90 455 41 89
4 37 101 194 100
4 325 126 554 296
4 2 536 123 11
4 433 398 329 122
4 272 271 273 168
4 39 40 513 185
4 131 24 25 267
4 228 101 102 84
4 213 104 64 208
4 212 29 17 540
4 375 128 158 386
4 128 375 331 386
4 223 410 29 115
4 283 282 268 144
4 3 32 169 349
4 123 22 21 405
4 101 35 36 523
4 117 26 191 118
4 396 444 100 369
4 40 529 97 513
4 122 22 181 197
4 166 135 160 366
4 457 435 160 366
4 114 547 441 113
4 290 406 279 595
4 96 97 380 89
4 378 431 141 326
4 487 458 496 504
4 453 508 507 240
4 296 554 325 400
4 99 87 38 86
4 143 129 39 335
4 198 517 23 181
4 403 248 506 247
4 271 270 22 132
4 193 25 24 511
4 493 248 502 250
4 123 433 337 547
4 248 493 491 403
4 121 527 23 120
4 404 108 339 311
4 84 101 36 85
4 560 460 434 561
4 23 517 527 121
4 156 450 291 157
4 111 555 255 545
4 177 211 509 201
4 527 511 24 120
4 492 372 427 368
4 214 65 19 201
4 215 18 66 533
4 151 346 328 306
4 500 396 100 369
4 359 231 73 573
4 499 367 368 341
4 267 264 24 262
4 407 414 408 117
4 488 487 496 504
4 145 395 159 131
4 9 3 90 91
4 451 160 170 457
4 544 559 393 329
4 99 87 220 98
4 35 36 230 84
4 292 147 294 148
4 339 321 108 489
4 2 277 276 273
4 419 25 26 418
4 227 57 14 436
4 242 245 105 426
4 556 106 6 217
4 220 99 98 491
4 37 375 221 128
4 430 140 139 333
4 216 13 464 173
4 511 25 24 120
4 546 254 432 441
4 393 555 546 544
4 30 168 137 416
4 269 551 297 109
4 370 431 142 140
4 552 110 255 545
4 275 21 2 273
4 182 193 524 511
4 514 525 192 179
4 5 33 104 213
4 127 160 402 435
4 239 566 80 472
4 158 230 375 386
4 350 459 225 599
4 381 92 226 597
4 382 482 443 589
4 10 554 126 296
4 159 142 370 174
4 379 154 131 264
4 258 553 259 260
4 25 419 267 418
4 327 167 129 334
4 112 555 252 111
4 213 1 33 208
4 196 41 40 529
4 528 123 122 197
4 23 121 398 122
4 113 246 493 249
4 529 40 196 185
4 528 122 517 197
4 147 292 146 148
4 239 385 566 588
4 269 551 109 552
4 283 145 146 144
4 158 127 474 175
4 2 30 273 168
4 56 13 464 216
4 37 36 473 375
4 431 142 141 326
4 262 263 24 261
4 401 407 548 118
4 387 388 76 569
4 40 41 218 89
4 96 3 204 41
4 123 2 21 205
4 192 524 514 522
4 182 192 190 524
4 123 122 22 405
4 460 557 480 355
4 100 37 85 86
4 110 111 255 545
4 167 378 326 327
4 40 88 97 89
4 522 514 192 194
4 524 190 182 526
4 294 293 147 292
4 549 542 107 404
4 405 123 363 275
4 131 268 379 264
4 317 316 31 318
4 58 15 161 234
4 156 484 450 130
4 105 9 505 242
4 264 131 268 267
4 250 502 111 284
4 493 506 491 403
4 36 375 128 158
4 143 39 391 335
4 418 26 419 414
4 402 160 238 435
4 273 271 21 168
4 494 399 114 501
4 560 561 541 235
4 341 499 367 312
4 531 192 193 524
4 157 130 450 295
4 397 508 449 240
4 542 550 322 355
4 10 285 286 245
4 204 96 529 537
4 553 544 256 259
4 405 21 123 275
4 175 474 158 386
4 532 535 200 513
4 181 203 200 532
4 253 255 555 545
4 250 111 252 284
4 284 492 110 367
4 524 531 192 525
4 491 99 500 427
4 523 512 35 178
4 258 119 260 280
4 191 180 117 510
4 441 547 546 113
4 174 313 149 314
4 415 137 316 318
4 561 434 560 115
4 506 97 422 247
4 135 153 234 366
4 343 428 468 598
4 221 155 128 374
4 252 251 253 555
4 346 175 151 328
4 37 36 85 473
4 221 37 38 86
4 541 50 69 235
4 40 97 98 513
4 123 536 205 197
4 114 554 10 400
4 328 150 151 306
4 126 325 324 296
4 322 308 542 355
4 99 100 396 86
4 368 427 500 369
4 548 356 407 322
4 434 52 7 115
4 371 155 163 334
4 564 569 568 585
4 553 120 259 260
4 552 255 257 545
4 298 164 149 371
4 244 501 243 242
4 398 22 23 122
4 35 34 83 402
4 24 23 198 527
4 535 528 196 529
4 197 203 528 196
4 494 96 380 243
4 555 256 253 545
4 10 114 400 285
4 50 541 438 235
4 139 137 333 318
4 368 490 499 341
4 267 24 25 262
4 93 92 382 597
4 182 26 25 526
4 101 100 514 194
4 157 291 282 295
4 371 164 155 374
4 402 34 83 82
4 100 101 444 85
4 440 6 47 503
4 237 428 384 598
4 102 83 228 84
4 168 30 273 416
4 147 293 298 149
4 412 450 484 130
4 550 356 548 322
4 380 97 88 89
4 298 293 313 149
4 555 253 256 544
4 489 353 340 497
4 36 84 85 473
4 442 400 114 399
4 88 97 422 98
4 233 458 439 496
4 243 501 505 242
4 500 491 372 492
4 243 380 494 247
4 523 35 36 178
4 510 117 191 118
4 250 372 502 284
4 266 22 23 398
4 107 106 486 496
4 159 379 370 154
4 523 36 101 194
4 526 191 26 118
4 273 21 2 168
4 326 313 174 314
4 553 257 256 545
4 502 111 112 250
4 265 154 379 264
4 559 544 121 329
4 522 192 190 194
4 526 524 190 522
4 313 298 149 314
4 450 291 157 295
4 169 41 3 455
4 40 39 88 391
4 363 337 336 558
4 294 147 298 300
4 272 271 168 132
4 255 253 256 545
4 294 420 292 148
4 541 68 50 438
4 114 399 285 244
4 380 97 494 247
4 402 474 35 127
4 204 515 529 183
4 513 535 200 185
4 203 181 517 532
4 362 327 143 335
4 445 419 26 414
4 506 422 98 403
4 3 349 455 383
4 154 159 379 131
4 500 492 427 368
4 474 175 347 386
4 234 153 462 366
4 170 160 451 238
4 333 140 139 141
4 29 212 115 540
4 213 33 104 208
4 88 40 218 89
4 123 122 433 547
4 155 37 221 128
4 422 87 88 98
4 449 446 497 397
4 491 248 372 502
4 248 372 502 250
4 23 517 122 181
4 236 55 12 173
4 160 170 33 238
4 517 23 122 121
4 253 393 256 544
4 87 88 39 391
4 552 257 289 543
4 549 542 404 357
4 314 167 326 327
4 336 126 325 324
4 375 37 36 128
4 155 221 38 465
4 114 113 399 494
4 484 156 162 130
4 119 553 258 260
4 118 543 401 280
4 505 96 243 219
4 230 83 35 84
4 160 451 435 457
4 134 227 14 436
4 266 265 165 270
4 217 49 556 224
4 451 476 33 238
4 266 165 22 270
4 551 289 308 322
4 404 108 107 339
4 368 500 490 369
4 260 262 120 261
4 515 204 529 537
4 183 205 536 197
4 269 257 289 552
4 443 482 345 589
4 219 9 90 241
4 81 240 104 82
4 240 103 104 82
4 165 154 274 265
4 475 104 5 81
4 450 156 130 157
4 249 112 251 250
4 542 551 308 322
4 560 434 460 235
4 102 446 495 228
4 337 363 123 558
4 24 23 527 120
4 496 439 233 488
4 311 109 108 498
4 256 553 259 258
4 201 214 518 208
4 215 540 186 533
4 434 223 52 115
4 398 266 22 405
4 461 130 27 295
4 168 273 272 416
4 557 549 541 480
4 150 151 175 328
4 561 409 434 115
4 139 132 140 430
4 265 165 23 266
4 32 319 169 349
4 254 432 393 546
4 167 141 327 362
4 99 220 87 86
4 427 396 500 369
4 291 146 156 157
4 125 124 574 594
4 43 42 209 594
4 432 337 433 547
4 370 395 159 313
4 291 283 292 146
4 408 356 407 117
4 449 487 453 508
4 150 158 128 331
4 405 22 21 271
4 131 154 24 264
4 214 518 65 201
4 186 18 215 533
4 69 68 50 541
4 135 170 160 457
4 85 396 100 86
4 378 141 320 362
4 549 557 357 480
4 376 320 133 362
4 327 167 143 335
4 451 33 170 238
4 441 325 554 400
4 329 121 559 122
4 420 156 148 152
4 372 248 491 403
4 340 446 495 497
4 350 423 338 584
4 21 275 271 273
4 346 166 175 347
4 460 356 550 355
4 525 192 524 514
4 182 193 192 524
4 181 23 22 122
4 162 478 413 173
4 433 559 432 547
4 141 167 143 362
4 234 161 58 436
4 311 108 321 498
4 162 448 478 172
4 311 321 312 498
4 434 460 409 561
4 91 90 9 241
4 379 274 370 154
4 339 108 107 489
4 162 412 484 130
4 558 337 336 325
4 194 523 36 178
4 526 510 191 118
4 84 444 101 85
4 53 485 210 223
4 472 429 239 588
4 236 464 55 173
4 248 246 493 247
4 163 149 164 371
4 151 153 346 348
4 274 165 265 270
4 543 553 257 258
4 33 34 160 238
4 113 112 251 249
4 559 432 393 329
4 534 177 509 202
4 347 166 127 435
4 133 320 139 141
4 23 263 266 398
4 376 320 138 133
4 129 155 38 465
4 175 328 347 386
4 113 246 494 493
4 485 29 0 210
4 336 126 558 325
4 263 265 23 266
4 551 297 289 269
4 242 505 243 219
4 269 289 551 552
4 21 123 205 197
4 204 96 41 529
4 320 139 318 138
4 365 11 364 336
4 508 453 449 240
4 319 32 344 349
4 96 380 219 89
4 127 402 474 435
4 442 113 251 249
4 565 72 71 361
4 499 110 492 367
4 28 180 207 116
4 539 512 34 103
4 194 514 192 179
4 526 182 524 511
4 257 401 289 543
4 546 432 393 559
4 221 85 37 86
4 106 6 440 503
4 318 137 31 138
4 107 106 463 486
4 356 460 550 561
4 556 68 49 217
4 496 458 339 489
4 116 180 207 520
4 539 34 512 188
4 33 1 476 170
4 135 153 161 234
4 398 22 122 405
4 340 447 341 495
4 168 271 21 132
4 370 142 159 154
4 435 166 160 366
4 504 449 353 497
4 101 514 523 194
4 182 191 26 526
4 318 319 320 138
4 319 376 169 349
4 293 147 145 149
4 262 25 267 418
4 194 190 522 178
4 526 190 510 522
4 444 101 490 447
4 35 34 402 127
4 438 541 549 480
4 519 534 509 202
4 187 177 534 202
4 547 546 432 441
4 36 35 230 158
4 312 499 109 498
4 474 230 158 386
4 318 333 139 320
4 478 464 413 173
4 542 550 548 322
4 175 127 474 347
4 119 258 543 280
4 512 538 188 178
4 510 206 180 520
4 557 460 561 355
4 329 559 433 122
4 462 470 153 436
4 126 11 336 558
4 488 453 487 508
4 446 495 497 102
4 12 236 173 136
4 328 175 158 386
4 409 356 408 116
4 395 283 145 293
4 47 439 440 503
4 300 328 150 331
4 74 225 562 75
4 231 72 73 573
4 325 547 337 441
4 244 285 114 501
4 271 272 270 132
4 210 485 29 223
4 312 341 499 498
4 466 229 477 596
4 372 492 502 284
4 496 339 107 489
4 350 225 467 599
4 550 116 356 561
4 466 387 229 585
4 14 58 161 436
4 558 554 337 325
4 403 506 422 247
4 341 368 490 369
4 161 134 14 436
4 260 120 259 261
4 491 493 248 502
4 270 165 22 132
4 407 414 118 280
4 405 266 22 271
4 58 15 14 161
4 479 133 41 218
4 69 560 541 235
4 248 493 246 249
4 495 489 340 497
4 458 339 486 496
4 544 256 555 545
4 142 431 370 326
4 544 553 120 259
4 240 397 103 82
4 434 7 51 560
4 164 128 155 374
4 549 357 438 480
4 0 53 485 210
4 98 491 506 403
4 35 474 402 230
4 39 38 87 392
4 239 566 79 80
4 170 476 33 451
4 460 550 561 355
4 218 479 133 456
4 27 410 445 408
4 294 147 293 298
4 260 119 418 280
4 129 327 334 335
4 404 297 108 311
4 138 32 319 169
4 1 61 476 170
4 544 393 256 259
4 495 447 101 228
4 496 503 439 488
4 148 151 150 306
4 218 133 40 456
4 349 32 344 483
4 275 405 21 271
4 521 510 206 522
4 129 38 392 465
4 510 190 206 522
4 496 233 458 488
4 120 262 24 261
4 244 114 399 501
4 462 346 153 348
4 175 151 166 346
4 493 246 494 247
4 492 110 111 284
4 494 96 97 380
4 106 549 463 224
4 542 551 108 404
4 490 100 444 369
4 149 159 313 174
4 522 538 523 178
4 190 206 191 510
4 22 21 271 132
4 40 39 391 143
4 133 138 376 169
4 294 420 148 306
4 455 218 41 89
4 276 275 2 273
4 328 346 175 347
4 78 229 77 564
4 459 350 330 592
4 393 253 555 544
4 492 499 367 368
4 375 473 37 221
4 478 227 464 134
4 153 135 166 366
4 115 212 7 540
4 122 433 398 405
4 379 274 154 265
4 358 459 330 592
4 172 134 161 436
4 3 90 91 383
4 559 393 546 544
4 392 39 38 129
4 453 45 44 507
4 173 478 464 134
4 196 204 41 529
4 536 123 528 197
4 138 320 139 133
4 240 507 453 475
4 163 164 155 371
4 7 29 212 115
4 121 329 261 398
4 560 434 7 115
4 172 162 448 152
4 392 38 221 465
4 300 150 164 331
4 456 40 391 143
4 135 161 15 234
4 306 328 150 300
4 499 492 490 368
4 312 340 341 498
4 552 289 551 543
4 378 141 167 326
4 490 499 341 498
4 322 550 356 355
4 23 154 165 265
4 248 493 506 247
4 173 162 478 134
4 462 153 161 436
4 115 116 29 516
4 33 34 104 184
4 164 298 147 300
4 87 422 220 98
4 244 246 494 501
4 557 561 550 355
4 239 566 385 79
4 315 450 291 156
4 559 433 122 547
4 155 129 334 465
4 170 61 476 451
4 480 557 357 355
4 329 559 432 433
4 473 36 230 375
4 548 289 322 401
4 549 106 556 224
4 535 200 203 532
4 224 556 549 438
4 496 458 487 488
4 371 163 314 334
4 90 3 455 383
4 5 104 64 213
4 73 359 573 74
4 166 160 127 435
4 456 376 133 362
4 458 321 339 489
4 134 172 470 436
4 385 566 78 79
4 133 40 41 218
4 136 236 412 171
4 15 16 135 457
4 498 340 341 495
4 491 372 403 427
4 246 244 494 243
4 325 554 547 441
4 28 461 411 171
4 435 347 166 366
4 538 512 523 178
4 180 191 206 510
4 76 388 75 569
4 507 508 104 240
4 539 202 184 188
4 520 207 516 534
4 163 129 167 334
4 506 494 97 247
4 285 296 10 286
4 503 486 106 496
4 492 500 490 368
4 274 140 154 165
4 102 83 397 228
4 129 143 167 335
4 484 448 478 162
4 141 143 133 362
4 58 14 57 436
4 479 41 169 455
4 549 357 224 438
4 130 27 28 461
4 227 57 56 216
4 369 444 490 447
4 367 284 492 368
4 264 263 24 262
4 306 151 346 348
4 561 116 409 115
4 47 48 6 440
4 391 218 40 456
4 486 339 107 496
4 29 7 210 115
4 151 153 166 346
4 538 519 512 188
4 206 187 180 520
4 143 456 133 362
4 183 204 196 529
4 120 553 119 260
4 174 163 167 314
4 172 478 162 134
4 488 453 508 507
4 49 68 556 438
4 539 512 519 188
4 187 207 180 520
4 521 187 519 189
4 440 486 106 503
4 88 97 380 422
4 51 52 7 434
4 337 554 547 325
4 538 522 521 189
4 132 272 270 430
4 34 539 184 188
4 516 116 207 520
4 160 451 238 435
4 508 449 504 497
4 396 100 99 500
4 549 107 106 463
4 114 113 442 399
4 215 67 540 533
4 20 214 201 208
4 223 29 210 115
4 152 420 448 348
4 413 464 236 136
4 99 396 220 86
4 402 238 34 82
4 501 105 505 242
4 327 163 167 334
4 543 257 553 545
4 327 314 163 334
4 401 548 289 543
4 88 218 40 391
4 224 49 556 438
4 462 161 153 234
4 258 401 543 280
4 486 106 463 440
4 371 300 164 331
4 27 445 461 295
4 139 137 318 138
4 226 92 93 597
4 509 533 186 534
4 234 462 161 436
4 431 142 140 141
4 346 153 166 462
4 446 447 495 228
4 116 409 356 561
4 233 63 62 488
4 417 571 70 71
4 449 446 353 497
4 347 127 474 435
4 141 378 327 362
4 374 128 375 331
4 172 470 478 134
4 68 49 50 438
4 551 542 548 322
4 70 471 571 417
4 543 401 548 118
4 169 349 479 455
4 274 431 140 430
4 202 539 519 188
4 187 207 520 534
4 102 495 101 228
4 540 186 17 215
4 64 518 214 208
4 502 492 111 284
4 409 460 356 561
4 258 543 553 119
4 164 298 300 371
4 100 444 396 85
4 41 479 218 455
4 96 505 9 219
4 233 487 458 488
4 504 488 487 508
4 321 340 312 498
4 153 151 152 348
4 542 108 107 404
4 490 500 100 369
4 392 38 87 86
4 166 346 462 366
4 141 142 167 326
4 51 434 560 235
4 392 129 465 335
4 112 113 493 249
4 150 175 158 328
4 357 463 549 224
4 444 101 100 490
4 321 353 340 489
4 444 101 228 84
4 96 494 505 243
4 174 167 142 326
4 519 187 534 202
4 76 77 387 569
4 255 256 257 545
4 467 388 389 599
4 477 354 351 596
4 524 192 190 522
4 167 141 378 327
4 327 129 167 335
4 357 557 542 355
4 187 519 189 202
4 521 187 534 519
4 372 492 284 368
4 410 28 27 461
4 494 506 493 247
4 217 48 49 224
4 29 186 540 516
4 208 104 518 184
4 548 407 117 118
4 470 227 478 134
4 410 29 28 411
4 402 83 35 230
4 127 175 166 347
4 243 494 246 247
4 349 376 169 479
4 411 412 236 171
4 470 227 134 436
4 540 17 67 215
4 214 20 64 208
4 552 257 543 545
4 256 544 553 545
4 449 353 487 504
4 504 487 449 508
4 543 118 119 280
4 136 411 236 171
4 164 147 150 300
4 507 5 44 475
4 556 68 541 438
4 150 128 164 331
4 221 38 37 155
4 22 23 165 266
4 45 62 44 507
4 334 374 155 465
4 63 47 6 503
4 543 257 401 258
4 352 466 351 596
4 439 486 440 503
4 519 538 189 188
4 520 206 187 521
4 458 487 353 504
4 464 413 173 136
4 84 36 230 473
4 509 186 177 534
4 187 177 186 534
4 518 519 509 202
4 80 563 8 472
4 491 372 492 502
4 289 551 548 322
4 173 236 464 136
4 225 388 467 599
4 507 44 453 475
4 170 16 61 451
4 456 133 40 143
4 489 458 353 504
4 448 470 478 172
4 461 450 130 295
4 339 107 463 486
4 233 46 63 439
4 172 470 153 348
4 551 108 297 109
4 547 337 123 558
4 10 114 285 501
4 153 152 172 348
4 46 63 62 233
4 434 409 223 115
4 60 61 16 451
4 149 163 174 314
4 520 510 206 521
4 538 189 188 178
4 16 15 59 457
4 69 51 560 235
4 501 494 244 243
4 136 12 236 176
4 516 207 186 534
4 202 518 539 184
4 462 153 470 348
4 143 391 456 335
4 173 216 13 134
4 461 410 28 411
4 314 163 167 327
4 47 63 439 503
4 113 442 399 249
4 498 108 321 489
4 399 400 114 285
4 322 407 548 401
4 432 337 547 441
4 476 81 33 238
4 210 52 53 223
4 445 410 27 461
4 498 341 490 495
4 315 484 450 156
4 470 172 152 348
4 447 490 341 495
4 186 17 29 540
4 104 518 64 208
4 164 147 298 149
4 97 422 98 506
4 62 45 46 233
4 155 129 163 334
4 104 507 240 475
4 556 541 549 438
4 12 55 13 173
4 548 551 289 543
4 61 1 16 170
4 0 29 17 212
4 448 470 152 348
4 346 166 347 366
4 411 461 412 171
4 376 133 479 456
4 489 496 458 504
4 29 7 212 0
4 439 486 503 496
4 392 221 38 86
4 410 409 408 116
4 69 51 7 560
4 289 297 551 308
4 473 85 37 221
4 558 126 554 325
4 539 518 104 184
4 186 29 207 516
4 519 189 202 188
4 187 520 521 534
4 477 351 466 596
4 413 236 412 136
4 15 58 59 234
4 542 557 550 355
4 446 447 340 495
4 518 509 65 201
4 353 489 504 497
4 490 341 369 447
4 177 19 18 211
4 211 65 66 509
4 411 410 29 223
4 542 308 357 355
4 498 321 340 489
4 413 162 173 136
4 464 13 55 173
4 28 130 461 171
4 462 153 166 366
4 130 162 412 171
4 162 413 412 136
4 540 115 29 516
4 33 104 208 184
4 187 186 207 534
4 518 539 519 202
4 547 554 337 558
4 29 7 0 210
4 457 135 234 366
4 489 340 498 495
4 221 155 374 465
4 559 546 432 547
4 447 101 490 495
4 51 69 50 235
4 224 463 106 440
4 5 4 44 475
4 308 404 542 357
4 104 508 103 240
4 212 17 67 540
4 213 64 20 208
4 392 87 39 391
4 44 62 5 507
4 518 202 201 184
4 516 186 533 534
4 519 538 521 189
4 521 206 187 189
4 169 133 41 479
4 486 439 458 496
4 136 236 411 176
4 61 4 1 476
4 541 438 235 480
4 413 412 484 162
4 16 59 60 457
4 12 54 55 236
4 507 104 5 475
4 505 494 501 243
4 448 470 172 152
4 376 133 169 479
4 55 56 13 464
4 362 143 456 335
4 14 13 216 134
4 465 129 334 335
4 542 549 557 357
4 411 136 176 171
4 12 54 236 176
4 213 20 1 208
4 413 484 478 162
4 321 458 353 489
4 16 170 135 457
4 46 47 63 439
4 8 70 471 571
4 461 130 412 171
4 107 463 404 339
4 136 412 162 171
4 130 412 450 461
4 18 17 186 215
4 518 65 64 214
4 236 485 411 176
4 485 236 54 176
4 453 487 233 488
4 214 19 20 201
4 66 67 215 533
4 411 29 28 171
4 54 0 53 485
4 556 6 68 217
4 485 54 0 176
4 12 0 54 176
4 176 29 411 171
4 518 201 208 184
4 533 540 186 516
4 475 240 104 81
4 67 7 212 540
4 485 0 29 176
4 29 485 411 223
4 411 485 29 176
4 586 568 567 572
4 586 567 568 585
4 592 359 599 586
4 592 599 359 459
4 595 352 309 583
4 595 309 352 406
4 596 229 385 585
4 596 385 229 477
4 591 482 345 454
4 591 345 482 589
4 423 599 350 467
4 350 599 423 584
4 595 423 590 290
4 595 590 423 584
4 421 590 423 290
4 421 423 590 584
4 115 410 409 223
4 115 409 410 116
4 11 276 275 2
4 275 276 11 364
4 165 430 274 140
4 274 430 165 270
4 501 245 242 244
4 501 242 245 105
4 408 27 414 445
4 414 27 408 117
4 295 26 282 157
4 295 282 26 419
4 144 282 26 157
4 144 26 282 419
4 335 39 392 129
4 335 392 39 391
4 168 415 132 137
4 132 415 168 272
4 364 123 558 11
4 558 123 364 363
4 558 336 364 11
4 364 336 558 363
4 261 23 398 263
4 261 398 23 121
4 164 374 331 128
4 331 374 164 371
4 404 551 308 542
4 404 308 551 297
4 137 333 430 139
4 430 333 137 415
4 152 162 484 156
4 484 162 152 448
4 484 315 152 156
4 152 315 484 448
4 207 116 29 28
4 207 29 116 516
4 539 34 104 103
4 539 104 34 184
4 436 172 153 161
4 436 153 172 470
4 141 333 320 139
4 320 333 141 378
4 100 194 179 514
4 179 194 100 37
4 25 526 511 182
4 511 526 25 119
4 529 183 528 196
4 529 528 183 515
4 197 528 183 196
4 529 185 535 513
4 535 185 529 196
4 197 517 203 181
4 197 203 517 528
4 457 15 234 135
4 457 234 15 59
4 507 488 233 62
4 233 488 507 453
4 233 45 507 62
4 507 45 233 453
4 464 134 216 173
4 216 134 464 227
4 206 522 189 521
4 189 522 206 190
4 189 522 178 538
4 189 178 522 190
4 451 16 457 170
4 451 457 16 60
4 488 439 63 503
4 488 63 439 233
4 509 211 18 533
4 18 211 509 177
4 18 186 509 533
4 509 186 18 177
4 509 201 202 177
4 202 201 509 518
4 526 191 190 182
4 526 190 191 510
4 194 523 522 514
4 522 523 194 178
4 528 183 536 197
4 528 536 183 515

CELL_TYPES 3167
1
1
1
1
1
1
1
1
1
1
1
1
3
3
3
3
3
3
3
3
3
3
3
3
3
3
3
3
3
3
3
3
3
3
3
3
3
3
3
3
3
3
3
3
3
3
3
3
3
3
3
3
3
3
3
3
3
3
3
3
3
3
3
3
3
3
3
3
3
3
3
3
3
3
3
3
3
3
3
3
3
3
3
3
3
3
3
3
3
3
3
3
3
3
3
3
3
3
3
3
3
3
3
3
3
3
3
3
3
3
3
3
3
3
3
3
3
3
3
3
3
3
3
3
3
3
3
3
3
3
3
3
3
3
3
3
3
3
3
3
3
3
3
3
3
5
5
5
5
5
5
5
5
5
5
5
5
5
5
5
5
5
5
5
5
5
5
5
5
5
5
5
5
5
5
5
5
5
5
5
5
5
5
5
5
5
5
5
5
5
5
5
5
5
5
5
5
5
5
5
5
5
5
5
5
5
5
5
5
5
5
5
5
5
5
5
5
5
5
5
5
5
5
5
5
5
5
5
5
5
5
5
5
5
5
5
5
5
5
5
5
5
5
5
5
5
5
5
5
5
5
5
5
5
5
5
5
5
5
5
5
5
5
5
5
5
5
5
5
5
5
5
5
5
5
5
5
5
5
5
5
5
5
5
5
5
5
5
5
5
5
5
5
5
5
5
5
5
5
5
5
5
5
5
5
5
5
5
5
5
5
5
5
5
5
5
5
5
5
5
5
5
5
5
5
5
5
5
5
5
5
5
5
5
5
5
5
5
5
5
5
5
5
5
5
5
5
5
5
5
5
5
5
5
5
5
5
5
5
5
5
5
5
5
5
5
5
5
5
5
5
5
5
5
5
5
5
5
5
5
5
5
5
5
5
5
5
5
5
5
5
5
5
5
5
5
5
5
5
5
5
5
5
5
5
5
5
5
5
5
5
5
5
5
5
5
5
5
5
5
5
5
5
5
5
5
5
5
5
5
5
5
5
5
5
5
5
5
5
5
5
5
5
5
5
5
5
5
5
5
5
5
5
5
5
5
5
5
5
5
5
5
5
5
5
5
5
5
5
5
5
5
5
5
5
5
5
5
5
5
5
5
5
5
5
5
5
5
5
5
5
5
5
5
5
5
5
5
5
5
5
5
5
5
5
5
5
5
5
5
5
5
5
5
5
5
5
5
5
5
5
5
5
5
5
5
5
5
5
5
5
5
5
5
5
5
5
5
5
5
5
5
5
5
5
5
5
5
5
5
5
5
5
5
5
5
5
5
5
5
5
5
5
5
5
5
5
5
5
5
5
5
5
5
5
5
5
5
5
5
5
5
5
5
5
5
5
5
5
5
5
5
5
5
5
5
5
5
5
5
5
5
5
5
5
5
5
5
5
5
5
5
5
5
5
5
5
5
5
5
5
5
5
5
5
5
5
5
5
5
5
5
5
5
5
5
5
5
5
5
5
5
5
5
5
5
5
5
5
5
5
5
5
5
5
5
5
5
5
5
5
5
5
5
5
5
5
5
5
5
5
5
5
5
5
5
5
5
5
5
5
5
5
5
5
5
5
5
5
5
5
5
5
5
5
5
5
5
5
5
5
5
5
5
5
5
5
5
5
5
5
5
5
5
5
5
5
5
5
5
5
5
5
5
5
5
5
5
5
5
5
5
5
5
5
5
5
5
5
5
5
5
5
5
5
5
5
5
5
5
5
5
5
5
5
5
5
5
5
5
5
5
5
5
5
5
5
5
5
5
5
5
5
5
5
5
5
5
5
5
5
5
5
5
5
5
5
5
5
5
5
5
5
5
5
5
5
5
5
5
5
5
5
5
5
5
5
5
5
5
5
5
5
5
5
5
5
5
5
5
5
5
5
5
5
5
5
5
5
5
5
5
5
5
5
5
5
5
5
5
5
5
5
5
5
5
5
5
5
5
5
5
5
5
5
5
5
5
5
5
5
5
5
5
5
5
5
5
5
5
5
5
5
5
5
5
5
5
5
5
5
5
5
5
5
5
5
5
5
5
5
5
5
5
5
5
5
5
5
5
5
5
5
5
5
5
5
5
5
5
5
5
5
5
5
5
5
5
5
5
5
5
5
5
5
5
5
5
5
5
5
5
5
5
5
5
5
5
5
5
5
5
5
5
5
5
5
5
5
5
5
5
5
5
5
5
5
5
5
5
5
5
5
5
5
5
5
5
5
5
5
5
5
5
5
5
5
5
5
5
5
5
5
5
5
5
5
5
5
5
5
5
5
5
5
5
5
5
5
5
5
5
5
5
5
5
5
5
5
5
5
5
5
5
5
5
5
5
5
5
5
5
5
5
5
5
5
5
5
5
5
5
5
5
5
5
5
5
5
5
5
5
5
5
5
5
5
5
5
5
5
5
5
5
5
5
5
5
5
5
5
5
5
5
5
5
5
5
5
5
5
5
5
5
5
5
5
5
5
5
5
5
5
5
5
5
5
5
5
5
5
5
5
5
5
5
5
5
5
5
5
5
5
5
5
5
5
5
5
5
5
5
5
5
5
5
5
5
5
5
5
5
5
5
5
5
5
5
5
5
5
5
5
5
5
5
5
5
5
5
5
5
5
5
5
5
5
5
5
5
5
5
5
5
5
5
5
5
5
5
5
5
5
5
5
5
5
5
5
5
5
5
5
5
5
5
5
5
5
5
5
5
5
5
5
5
5
5
5
5
5
5
5
5
5
5
5
5
5
5
5
5
5
5
5
5
5
5
5
5
5
5
5
5
5
5
5
5
5
5
5
5
5
5
5
5
5
5
5
5
5
5
5
5
5
5
5
5
5
5
5
5
5
5
5
5
5
5
5
5
5
5
5
5
5
5
5
5
5
5
5
5
5
5
5
5
5
5
5
5
5
5
5
5
5
5
5
5
5
5
5
5
5
5
5
5
5
5
5
5
5
10
10
10
10
10
10
10
10
10
10
10
10
10
10
10
10
10
10
10
10
10
10
10
10
10
10
10
10
10
10
10
10
10
10
10
10
10
10
10
10
10
10
10
10
10
10
10
10
10
10
10
10
10
10
10
10
10
10
10
10
10
10
10
10
10
10
10
10
10
10
10
10
10
10
10
10
10
10
10
10
10
10
10
10
10
10
10
10
10
10
10
10
10
10
10
10
10
10
10
10
10
10
10
10
10
10
10
10
10
10
10
10
10
10
10
10
10
10
10
10
10
10
10
10
10
10
10
10
10
10
10
10
10
10
10
10
10
10
10
10
10
10
10
10
10
10
10
10
10
10
10
10
10
10
10
10
10
10
10
10
10
10
10
10
10
10
10
10
10
10
10
10
10
10
10
10
10
10
10
10
10
10
10
10
10
10
10
10
10
10
10
10
10
10
10
10
10
10
10
10
10
10
10
10
10
10
10
10
10
10
10
10
10
10
10
10
10
10
10
10
10
10
10
10
10
10
10
10
10
10
10
10
10
10
10
10
10
10
10
10
10
10
10
10
10
10
10
10
10
10
10
10
10
10
10
10
10
10
10
10
10
10
10
10
10
10
10
10
10
10
10
10
10
10
10
10
10
10
10
10
10
10
10
10
10
10
10
10
10
10
10
10
10
10
10
10
10
10
10
10
10
10
10
10
10
10
10
10
10
10
10
10
10
10
10
10
10
10
10
10
10
10
10
10
10
10
10
10
10
10
10
10
10
10
10
10
10
10
10
10
10
10
10
10
10
10
10
10
10
10
10
10
10
10
10
10
10
10
10
10
10
10
10
10
10
10
10
10
10
10
10
10
10
10
10
10
10
10
10
10
10
10
10
10
10
10
10
10
10
10
10
10
10
10
10
10
10
10
10
10
10
10
10
10
10
10
10
10
10
10
10
10
10
10
10
10
10
10
10
10
10
10
10
10
10
10
10
10
10
10
10
10
10
10
10
10
10
10
10
10
10
10
10
10
10
10
10
10
10
10
10
10
10
10
10
10
10
10
10
10
10
10
10
10
10
10
10
10
10
10
10
10
10
10
10
10
10
10
10
10
10
10
10
10
10
10
10
10
10
10
10
10
10
10
10
10
10
10
10
10
10
10
10
10
10
10
10
10
10
10
10
10
10
10
10
10
10
10
10
10
10
10
10
10
10
10
10
10
10
10
10
10
10
10
10
10
10
10
10
10
10
10
10
10
10
10
10
10
10
10
10
10
10
10
10
10
10
10
10
10
10
10
10
10
10
10
10
10
10
10
10
10
10
10
10
10
10
10
10
10
10
10
10
10
10
10
10
10
10
10
10
10
10
10
10
10
10
10
10
10
10
10
10
10
10
10
10
10
10
10
10
10
10
10
10
10
10
10
10
10
10
10
10
10
10
10
10
10
10
10
10
10
10
10
10
10
10
10
10
10
10
10
10
10
10
10
10
10
10
10
10
10
10
10
10
10
10
10
10
10
10
10
10
10
10
10
10
10
10
10
10
10
10
10
10
10
10
10
10
10
10
10
10
10
10
10
10
10
10
10
10
10
10
10
10
10
10
10
10
10
10
10
10
10
10
10
10
10
10
10
10
10
10
10
10
10
10
10
10
10
10
10
10
10
10
10
10
10
10
10
10
10
10
10
10
10
10
10
10
10
10
10
10
10
10
10
10
10
10
10
10
10
10
10
10
10
10
10
10
10
10
10
10
10
10
10
10
10
10
10
10
10
10
10
10
10
10
10
10
10
10
10
10
10
10
10
10
10
10
10
10
10
10
10
10
10
10
10
10
10
10
10
10
10
10
10
10
10
10
10
10
10
10
10
10
10
10
10
10
10
10
10
10
10
10
10
10
10
10
10
10
10
10
10
10
10
10
10
10
10
10
10
10
10
10
10
10
10
10
10
10
10
10
10
10
10
10
10
10
10
10
10
10
10
10
10
10
10
10
10
10
10
10
10
10
10
10
10
10
10
10
10
10
10
10
10
10
10
10
10
10
10
10
10
10
10
10
10
10
10
10
10
10
10
10
10
10
10
10
10
10
10
10
10
10
10
10
10
10
10
10
10
10
10
10
10
10
10
10
10
10
10
10
10
10
10
10
10
10
10
10
10
10
10
10
10
10
10
10
10
10
10
10
10
10
10
10
10
10
10
10
10
10
10
10
10
10
10
10
10
10
10
10
10
10
10
10
10
10
10
10
10
10
10
10
10
10
10
10
10
10
10
10
10
10
10
10
10
10
10
10
10
10
10
10
10
10
10
10
10
10
10
10
10
10
10
10
10
10
10
10
10
10
10
10
10
10
10
10
10
10
10
10
10
10
10
10
10
10
10
10
10
10
10
10
10
10
10
10
10
10
10
10
10
10
10
10
10
10
10
10
10
10
10
10
10
10
10
10
10
10
10
10
10
10
10
10
10
10
10
10
10
10
10
10
10
10
10
10
10
10
10
10
10
10
10
10
10
10
10
10
10
10
10
10
10
10
10
10
10
10
10
10
10
10
10
10
10
10
10
10
10
10
10
10
10
10
10
10
10
10
10
10
10
10
10
10
10
10
10
10
10
10
10
10
10
10
10
10
10
10
10
10
10
10
10
10
10
10
10
10
10
10
10
10
10
10
10
10
10
10
10
10
10
10
10
10
10
10
10
10
10
10
10
10
10
10
10
10
10
10
10
10
10
10
10
10
10
10
10
10
10
10
10
10
10
10
10
10
10
10
10
10
10
10
10
10
10
10
10
10
10
10
10
10
10
10
10
10
10
10
10
10
10
10
10
10
10
10
10
10
10
10
10
10
10
10
10
10
10
10
10
10
10
10
10
10
10
10
10
10
10
10
10
10
10
10
10
10
10
10
10
10
10
10
10
10
10
10
10
10
10
10
10
10
10
10
10
10
10
10
10
10
10
10
10
10
10
10
10
10
10
10
10
10
10
10
10
10
10
10
10
10
10
10
10
10
10
10
10
10
10
10
10
10
10
10
10
10
10
10
10
10
10
10
10
10
10
10
10
10
10
10
10
10
10
10
10
10
10
10
10
10
10
10
10
10
10
10
10
10
10
10
10
10
10
10
10
10
10
10
10
10
10
10
10
10
10
10
10
10
10
10
10
10
10
10
10
10
10
10
10
10
10
10
10
10
10
10
10
10
10
10
10
10
10
10
10
10
10
10
10
10
10
10
10
10
10
10
10
10
10
10
10
10
10
10
10
10
10
10
10
10
10
10
10
10
10
10
10
10
10
10
10
10
10
10
10
10
10
10
10
10
10
10
10
10
10
10
10
10
10
10
10
10
10
10
10
10
10
10
10
10
10
10
10
10
10
10
10
10
10
10
10
10
10
10
10
10
10
10
10
10
10
10
10
10
10
10
10
10
10
10
10
10
10
10
10
10
10
10
10
10
10
10
10
10
10
10
10
10
10
10
10
10
10
10
10
10
10
10
10
10
10
10
10
10
10
10
10
10
10
10
10
10
10
10
10
10
10
10
10
10
10
10
10
10
10
10
10
10
10
10
10
10
10
10
10
10
10
10
10
10
10
10
10
10
10
10
10
10
10
10
10
10
10
10
10
10
10
10
10
10
10
10
10
10
10
10
10
10
10
10
10
10
10
10
10
10
10
10
10
10
10
10
10
10
10
10
10
10
10
10
10
10
10
10
10
10
10
10
10
10
10
10
10
10
10
10
10
10
10
10
10
10
10
10
10
10
10
10
10
10
10
10
10
10
10
10
10
10
10
10
10
10
10
10
10
10
10
10
10
10
10
10
10
10
10
10
10
10
10
10
10
10
10
10
10
10
10
10
10
10
10
10
10
10
10
10
10
10
10
10
10
10
10
10
10
10
10
10
10
10
10
10
10
10
10
10
10
10
10
10
10
10
10
10
10
10
10
10
10
10
10
10
10
10
10
10
10
10
10
10
10
10
10
10
10
10
10
10
10
10
10
10
10
10
10
10
10
10
10
10
10
10
10
10
10
10
10
10
10
10
10
10
10
10
10
10
10
10
10
10
10
10
10
10
10
10
10
10
10
10
10
10
10
10
10
10
10
10
10
10
10
10
10
10
10
10
10
10
10
10
10
10
10
10
10
10
10
10
10
10
10
10
10
10
10
10
10
10
10
10
10
10
10
10
10
10
10
10
10
10
10
10
10
10
10
10
10
10
10
10
10
10
10
10
10
10
10
10
10
10
10
10
10
10
10
10
10
10
10
10
10
10
10
