# vtk DataFile Version 2.0
whisker_body, Created by Gmsh 4.13.1 
ASCII
DATASET UNSTRUCTURED_GRID
POINTS 569 double
8 0 0
5.009335140664497 0 38
12 0 0
4.916846385784335 0 90
7.70093351406645 0 3.8
7.4018670281329 0 7.600000000000001
7.102800542199349 0 11.4
6.803734056265799 0 15.2
6.504667570332249 0 19
6.205601084398698 0 22.8
5.906534598465148 0 26.6
5.607468112531597 0 30.4
5.308401626598048 0 34.2
7.083648205225679 3.717785376350148 0
4.544517973849247 6.583870927149251 0
0.9642934420425858 7.941670992784432 0
-2.836839096340284 7.480129941483319 0
-5.988085985368807 5.304981265926364 0
-7.767534539408415 1.914525314300465 0
-7.767534539408417 -1.914525314300459 0
-5.98808598536881 -5.30498126592636 0
-2.836839096340287 -7.480129941483318 0
0.9642934420425786 -7.941670992784433 0
4.544517973849245 -6.583870927149253 0
7.083648205225677 -3.717785376350153 0
3.54213484719993 3.542134847199937 38
-9.703929267919763e-15 5.009335140664497 38
-3.542134847199946 3.542134847199922 38
-5.009335140664497 -2.385704190482322e-14 38
-3.542134847199917 -3.542134847199951 38
2.132571690803782e-14 -5.009335140664497 38
3.542134847199939 -3.542134847199928 38
11.34980690040761 3.896393630456207 0
9.469686112756717 7.370552552276022 0
6.563377897469113 10.04599773915035 0
2.945825845689581 11.63280319127197 0
-0.9909521456679979 11.95901391608004 0
-4.820345095835646 10.98927991986068 0
-8.127378859508902 8.82868692807757 0
-10.55368501447787 5.71136871644487 0
-11.83633564083267 1.975135083368787 0
-11.83633564083267 -1.975135083368821 0
-10.55368501447786 -5.711368716444897 0
-8.12737885950888 -8.828686928077589 0
-4.820345095835619 -10.9892799198607 0
-0.9909521456679715 -11.95901391608004 0
2.945825845689616 -11.63280319127196 0
6.563377897469155 -10.04599773915032 0
9.469686112756747 -7.370552552275983 0
11.34980690040762 -3.896393630456205 0
3.476735421440674 3.476735421440667 90
1.012690292828946e-14 4.916846385784335 90
-3.476735421440661 3.47673542144068 90
-4.916846385784335 1.588676900374471e-14 90
-3.476735421440683 -3.476735421440658 90
-1.400432058674011e-14 -4.916846385784335 90
3.476735421440664 -3.476735421440678 90
11.69203679938193 0 3.91304347826087
11.38407359876386 0 7.826086956521739
11.07611039814578 0 11.73913043478261
10.76814719752771 0 15.65217391304348
10.46018399690964 0 19.56521739130435
10.15222079629157 0 23.47826086956522
9.844257595673493 0 27.39130434782609
9.536294395055421 0 31.30434782608696
9.228331194437349 0 35.21739130434783
8.920367993819276 0 39.1304347826087
8.612404793201204 0 43.04347826086957
8.304441592583132 0 46.95652173913044
7.996478391965059 0 50.8695652173913
7.688515191346986 0 54.78260869565218
7.380551990728914 0 58.69565217391305
7.072588790110841 0 62.60869565217391
6.764625589492769 0 66.52173913043478
6.456662388874697 0 70.43478260869566
6.148699188256625 0 74.34782608695652
5.840735987638553 0 78.26086956521739
5.532772787020479 0 82.17391304347827
5.224809586402407 0 86.08695652173914
5.503420874364354 -3.188600252575768 20.83296869752327
5.162331776109792 3.177006280391889 24.62966144620843
-7.12211027135424 3.013961559877973 3.385056131525046
-4.396270369182323 -6.369097193168535 3.315932606951398
4.816882969982302 -3.163508121209921 28.42601107844262
6.174766660366473 3.207376403988187 13.23873067095718
6.174766660364952 -3.207376403991298 13.23873067095613
-4.905272559564859 1.842649239518922 35.06978572075336
2.744298016455038 7.236119167886798 3.315932606951398
2.950427404828708 -7.165752622384588 3.184312508308857
-2.015128471113397 -4.864950484886187 34.741502448524
4.466359280872702 3.147660780139805 32.22196130872431
6.834525487789088 3.221798873824591 5.643580730977766
6.834525487727772 -3.221798873964974 5.643580730921918
5.840317716297793 3.199263490883492 17.03681010173701
3.808758775445443 5.661529447080426 14.94940214296218
3.37763645476541 5.583957428512869 18.72862200911718
0.4711712274453381 6.683289581370144 16.51961940608865
0.004543744110831864 6.402179763796023 20.3022105654665
0.9433959042721363 6.933757532999832 12.73616978148188
-2.530772874971057 6.400432237141081 14.19776418288972
-2.079683093857747 6.871040897118415 10.43334827919459
-5.082160038416452 4.920410807021648 11.76835504963885
-5.344852919136817 4.170859150454883 15.50614377706209
-6.769143103478579 1.703437904345786 12.95796324260762
-6.644588615634145 0.7663036888499338 16.66252816540167
-6.599846573720714 -2.009502484515087 13.98964741519552
-5.958903204171075 -2.861531545813194 17.65702069560407
-6.395116480046881 -0.1889425418108798 20.35652156824623
-5.144844426296993 -3.676399144378699 21.30327582873939
-5.994614156446498 -1.173894105023471 24.03414610951288
-4.160323526365639 -4.375706110983376 24.93204446216381
-4.563613710523818 -5.080706652377749 14.87439878999428
-7.111559188231952 -1.043671874001358 10.32081366485
-5.437838381839001 -2.072758513715214 27.70606078679348
-5.677781247958073 1.605023328563662 26.67947683165171
-2.065558821056256 -5.913862848823078 22.05532328736907
-3.006432536835352 -4.905870534509132 28.54069048297337
1.325392211469013 7.168011695567996 9.027544125316133
-1.617638025917712 7.298479355140758 6.663169184938132
-4.688313947089843 -2.936692250524288 31.35727675155504
-3.371014177134573 -5.611260407191843 18.47495373731651
-1.163610124755782 -6.672492376398337 15.58806126994192
-2.48517214984675 -6.602315651923679 12.0131020893932
1.068975633049372 -6.924884858133604 12.61844887735317
-0.1659360999348804 -7.282541854137869 9.09215256532743
2.384998213886253 -6.285810172403918 16.22497580146513
3.502547805824854 -6.341664956056886 9.597980835334017
-4.164303930904821 -6.039737911748536 8.434352003940798
6.495678757994361 3.238727738181895 9.423946098004226
4.168855609995433 5.778997186344566 11.10853098449661
5.468320065575822 3.250899883608287 20.81692724082945
6.05047522021538 -3.993642911072864 9.534092863874564
5.37484080728155 -3.957200602604759 16.84264542803632
4.115622339770147 -3.592706222890172 32.23387814385978
2.600375859454741 -5.029283432671456 29.71002133116947
2.387071357093463 -5.445855682655226 26.09796993014744
5.183783274661562 -3.119362529078503 24.77759107594372
4.801814095897542 3.187436620356948 28.41826622067818
2.491936990985554 5.376267381678284 26.35639424633273
1.914456476220564 4.9047034761137 34.75022132050514
2.013758852908522 -4.8616439340406 34.78697776271371
-2.964441648499082 5.881934554461436 17.95724366692597
-3.374190878017211 5.30977466928482 21.71269218481363
-4.721269416886036 5.656189678528623 8.034251133130812
-6.78414461115208 2.615552922514059 9.264313726891491
-7.484819588463504 -0.07291722107639155 6.54147489834666
-5.685107667622903 2.440298364845573 23.03990595510329
0.2449747830019345 -6.489573463599577 19.13305910399827
1.445229843653097 -6.057591442713997 22.52037359857101
-3.771060957575976 4.661836751353277 25.46153198188768
-4.114025860570956 3.957380469883245 29.11727344377918
-5.516482956629363 -4.484510810278175 11.31717087396279
-5.557387690657664 3.344318345037021 19.23638378530335
-0.4764913446283798 6.086218062102801 24.08026716217943
2.942505808383965 5.487506627688354 22.53265101726134
-0.9954941692791373 5.723854505137434 27.82941065023699
-1.478588485428465 5.31167404585655 31.59233859696498
-1.579397706175975 -7.387464607057222 5.661740959995226
-6.634554328235759 -3.530988815593135 6.154082699020577
4.195089764883833 6.164325653439753 6.907273579455254
2.082239888128968 5.233016064839394 30.08743992697454
-4.847176546604168 -2.007766264820256 34.98594914404213
-4.573854994760223 6.160226059676186 4.160223521594112
-5.573298520417006 0.7113271443400319 30.25971299127328
-0.9328738605516419 7.682907458726285 3.312051023001295
-7.764244659867187 -0.1653871812005697 2.973176598767366
-2.002974207545881 4.835607496940729 35.14505940512466
5.637757914558379 5.328579961777547 3.081850476552642
5.676146799528152 -5.287873806105255 3.080070739476275
4.357290194583556 -6.116630453549703 6.226847409146563
-0.8931355946139443 -5.923394053153239 25.53502946333052
-7.022435835753614 -3.317682238624712 2.96436442482925
3.277110075013843 -5.581412196778262 19.41034112511805
-0.7193260428573043 -7.742899821694603 2.843124794131763
-2.360493340024788 -4.977509102417063 31.65294965883671
4.078363070220346 -5.625575587338643 13.36195145489286
1.469162568821472 -7.349931087338171 6.412479475442726
-4.239327131835536 3.432914512878858 32.33755707675468
-6.471561315448305 3.784533452225921 6.392246101915935
4.451633510969268 2.737371505828945 35.24802377781372
4.451633511024415 -2.737371505738421 35.24802377781933
1.223571110315837 7.423400165148839 6.053709393808918
7.282580384661228 2.740569650686481 2.780423258506266
7.289461886492564 -2.718697767122579 2.796041066962824
-0.4519991185368579 -5.733425461719482 28.57352620552563
0.3623634920424462 -5.434101292145436 32.44949094200404
-6.461232583644088 -3.40045771235265 8.876383046670508
-5.397312943107212 -0.1327983617089437 33.04951935880885
4.033503410278373 -4.711573749051153 22.84240349291279
1.346338053695401 -0.5576714813796325 38
-1.819779719387435 0.7537774403017723 38
-0.9529772108627973 -2.242594260341424 38
0.9118969608201086 2.259610257054777 38
-9.830905714707526 3.516901451911481e-15 0
5.729978798410789 3.303464067815539 68.43510397139984
8.741685474551129 3.408670616194508 33.25524477789856
7.450507122700001 3.307315589220265 48.89870620597063
8.909842609755152 -3.730164065115425 29.74316113298818
5.392052753219706 -3.274245444183336 72.31963636715948
8.111539840234119 -3.335203565050087 41.03541898028437
7.110547908283585 -3.319035307261666 52.76848133008502
9.730334990682572 3.413353866937671 21.45234953161089
-11.09527489538307 3.809012682760124 3.419408766471423
-6.416186870288138 -9.820705100301478 3.419408766471416
9.947072496248186 -3.752557215174666 17.39014747437579
-2.879762434608167 11.37192468062311 3.419408766471418
-4.81382365848084 1.846353113000349 86.96424464460338
5.037353481095154 3.260803561309366 76.22900163682509
4.677600194425128 -3.245052061620394 80.13796914691699
4.712243512000855 -10.74283313214681 3.41940876647142
8.111539840237693 3.335203565040566 41.03541898028838
6.443921666222226 3.283020386449738 60.58272272395119
5.766172991147497 -3.842010076837418 64.43430905348609
10.35126902884078 3.492521347923045 13.66449059056169
7.945113376504878 8.630693833987415 3.419408766471512
-11.11742417538435 -3.764147735902223 3.336990519483166
10.71886229871806 -3.360370264523445 9.742374045642428
-2.048754949086435 -4.743407442720916 86.8222076368402
3.92781719990075 3.680019680824613 84.08450604467214
10.31700692552853 -5.583284939902463 3.41940876647138
11.08870747912554 3.174964347258091 5.917414120683364
6.088984370403173 3.295834611060499 64.49992465939702
7.77974593057135 3.330406456502844 44.9465869410723
9.094344759081519 3.357516018864259 29.29632407513798
4.633884999170941 3.309966560843256 80.11736903330267
2.245093661184612 5.419463177290105 77.93870027603668
2.717712296215576 5.538016593505474 74.09088194801686
-0.8098319444856804 5.990564774032651 75.66474601467057
3.588099654374508 5.755214038242953 66.29964260711003
-1.303593699018038 5.593824018914728 79.49368047742082
-4.048133232639643 4.340053195922073 77.06396730685614
-3.696274338662894 5.019894069390935 73.26497069853529
-5.794361707271037 2.013044043020544 74.53354271650207
-5.755632535408311 2.872163089765785 70.74221912082993
-5.733241758630754 1.0978925721006 78.30305008361404
-5.803410036621424 -1.702378389466812 75.62800683454881
-5.073127688877797 -2.715871555062469 79.35846463112617
-3.615706916390449 -4.759209267217853 76.53066123453122
-4.682780899807487 -4.163722477924954 72.85508066477318
-1.783892138761581 -5.428261858543454 79.87286857572781
-3.31805926623458 5.629842195924073 69.44094934714275
-5.614539113697008 3.713682811415364 66.94132097228997
-6.636996722953661 0.140017764252074 68.12465334560166
-6.856042066116455 1.053277868181399 64.33816550358365
5.667466398767136 6.08603962135703 46.80645145151239
-6.322330491671726 -2.643368884894632 65.40286586062406
-6.930335128337598 -1.751752747649029 61.6467025927394
-6.953481697430129 1.999286049225837 60.54258282205483
-7.399103471963262 -0.8268306926739371 57.87475197370848
-6.96716456317021 2.870387392235138 56.72959485040374
-7.74228921680669 0.1100787975454431 54.08940227511844
-5.961443896563768 -4.328520618606023 58.86593633895094
-6.883213921817166 3.744487950815425 52.91112727737038
7.165685912445506 6.307930241508942 31.17375742440671
-7.973968490792511 1.04341134841961 50.29185611964696
-7.487796025267666 -2.693587077926614 51.36427824310989
-8.056644991358215 -1.796186511167828 47.59182543821841
-6.329571544979601 -5.178493223366408 48.56266081480184
-7.218676159993999 -4.436115736249612 44.81727399135311
-8.507514381600123 -0.8734772418726644 43.80797829503224
-7.986015423200164 -3.620976468574667 41.0591437307953
-8.850642689484335 0.0590097021812005 40.01387927522222
-8.636617543476383 -2.754718063785599 37.28891998436369
-8.154161065368461 2.862568310590125 42.66708556736896
-8.137668431951012 3.709641084824397 38.83872242758216
-6.646282268718404 -6.054517951739316 38.23849964982919
-7.596352689171249 -5.339524136917986 34.49469983185038
-4.484639697982732 -7.107495644206338 45.6905509901048
-4.734932601394022 -7.90822477994439 35.35687588519605
-5.941258869414635 -7.425407072593531 31.64170511906631
-8.439275586554629 -4.535374592886672 30.73933689909479
-7.012135574726108 -6.851286789782299 27.90816533161243
-9.158783799614795 -3.698702215658549 26.96974764978541
-7.984878539830043 -6.182391520525262 24.16050357797409
-9.749105727563039 -2.905193265742774 23.2171828828304
-9.960688816786853 -0.03748170952977958 25.91100936162205
-10.21785941984042 0.932511449488552 22.10469172646388
-8.858828418301975 -5.437537805554705 20.39979454040648
-9.353320435899056 3.682922303888687 24.74801110925371
-9.302739995929073 4.546668161274776 20.90959837189292
-7.457039862447912 6.890002394896407 23.47075829762827
-7.170767355986928 7.610303362459127 19.61310272987776
-5.058731446056227 -8.66202747937623 25.01818595091924
-4.57159147903593 9.187059192132326 22.08780343507846
-4.943715875186917 8.642423053312825 25.96518639965188
-4.156859667215704 9.714763514100996 18.21122393397727
-10.33502868463668 2.138845656680761 18.37283335203163
-6.870241071365448 8.282012048096465 15.7472296630668
-6.302842571780383 6.058049901990478 41.39446836104982
-6.002925056226058 6.765790622524681 37.54753248421065
5.277936647413196 6.02408947367971 50.70872730477605
-1.551472948612602 9.952236046556431 24.49195744182983
-2.024653774114842 9.554806903182643 28.37343075717672
-2.485498178411398 -9.115620731450564 32.42116548338916
-3.354686076939384 8.192026399040952 39.99532071451782
2.533902060254971 7.780547880445186 48.50261452506081
-5.159406232480831 5.212509806840966 59.28526707989544
-3.743930707686991 10.20745649435511 14.3274560006879
-0.6432983788940441 10.66548688616738 16.71031317140158
-0.2081042991397053 10.989895543062 12.80956088677699
-1.114351919370712 -9.090902948554985 36.09901046840621
-6.558203408833696 8.912685399046415 11.87354486735094
-3.235230735030022 -7.439718098297941 49.39265582078988
-0.8230644907038916 -8.30566328901601 46.42408620665664
-8.03624790606986 4.569789726066497 35.0095567821846
2.102244240392816 7.590342883295966 52.39929136124422
1.380733660312837 -9.29490223279679 33.07558689373292
2.937356214144841 10.40414339193456 15.10971057503306
3.376597888682866 10.59310738617632 11.20377926121825
7.533421544328137 6.355620888826331 27.23847972276099
2.742746578791567 -8.68848090213555 36.70680426658905
-6.536142786179402 5.338458181438356 45.2441020311435
-2.907924968970936 8.682473325105397 36.13017752637714
0.1903509654856148 8.968713459418604 38.49048383436503
2.510077313543604 10.19882176248055 19.01910500399847
-2.926207295720022 6.179925969126201 65.5932102049634
5.822012346503461 8.900386868673102 17.33830097075218
-9.044857158751205 6.189523181911794 13.2155900882669
-0.4390933159683164 -9.669048912228641 29.4909247531098
-1.065415097563607 7.987427278140839 50.08569893256683
0.7974260444711611 -8.019147870940175 50.07898429171878
3.133913269590368 -7.687028345249297 46.99625924780408
-1.799036313212755 -7.614337975402814 53.06135582966612
0.6847599946289882 9.251122835428724 34.60622678676899
3.758308031109467 8.285277938080332 36.87542719441981
5.134925140046871 -7.819689709004568 33.60860535250315
-8.819876303395825 7.000689237609651 9.395669945281314
-10.55493638601578 3.637866760346387 10.6190520595557
5.47933179758757 8.753049825056761 21.26238420629207
-1.51651739277168 7.602888015871388 53.96757645177988
1.66269404209835 7.384731368366733 56.29359908967203
-2.172258296919148 -8.357920218706004 42.74879263823183
-9.332320607032797 2.825208660078054 28.58145973613139
3.351083532892823 8.129333357795334 40.7495408439949
-0.5652356314798231 8.344204940049362 46.20830494203692
-5.344720315258241 8.037330684388971 29.83178877975802
-1.026746072505764 -6.126558748403799 73.54352774513239
-2.544955068609757 -5.973974565529059 69.96708213685332
1.620359336556581 9.755299271192753 26.82337173881194
2.126324661013516 -7.482189867413474 53.63976640326571
-0.4577920744305788 -7.520939554853302 56.73499131949981
3.33899252309153 -6.704117962178556 57.31009929723092
0.8947333088981385 -7.191917335261497 60.38802066280655
0.2523483042043977 11.29587558036254 8.910938356410847
3.805863813588288 10.77368085791803 7.291514095383724
6.679273724942657 9.049854702476271 9.557854153147028
-6.195714935107448 9.534342275438847 7.997273068142753
6.440309774731633 -6.403456136999366 37.07732345864934
4.033252728785276 -7.851533679201157 40.31838567455147
7.463448736818369 -5.628832521778132 33.69568696482924
-5.541750997730773 0.1440472850194978 82.03605056577501
-8.488582413611375 7.794130646652144 6.047090603791252
1.093184429991465 -6.346679845574014 70.64472534333667
-0.2547440688622228 -6.720903062880538 67.01596532772436
3.424726912024078 -5.737338339191524 67.57475187087336
4.463898240825241 -5.658817618810523 60.89400307501981
5.915958105634361 -4.521888126087467 57.86139730708484
6.043123739467471 6.158700598718205 42.84049683205702
4.16205421867199 8.434995145675803 32.96056887926971
6.746990121998396 6.306638279645696 35.1255450350728
8.293805199737157 6.389001843479004 19.44920143984274
8.563412581037666 6.540334325359991 15.56074767188343
4.03295126108876 5.834360957894598 62.35488693332757
1.592255012881173 5.338481827486715 81.68976029742706
-1.90138418156054 5.113818725434224 83.15118799202777
6.526326272652526 -7.050474751611173 30.4008693663542
7.648179267869405 -6.288622810075767 26.66286658348177
4.964969722137939 -8.479427830280597 27.62241968867257
5.997493742413984 -8.154751193071846 23.85282912698129
2.475743131125239 -9.74865991213799 24.67399041759719
3.723067642489196 -9.652994619770963 21.01494393733802
0.005491163523787141 -10.28101084802724 21.84180947140194
1.241439065172773 -10.50035962833296 18.12550859245845
4.927618833513828 -9.430655965652733 17.27500538743105
2.500938825864929 -10.57497303399594 14.40018691419229
-1.315781530555105 -10.72476472712964 15.18166008337282
-0.03963538290484744 -11.09672737923773 11.47626744621983
-3.841405352828597 -10.35136723937107 12.18322617390263
6.077050482377664 -9.092276503060248 13.5171138039551
-5.004016140514061 -9.517006573898563 15.85256478614068
-7.170431731721047 -8.333746493010191 12.783374748623
-2.618739536200412 -11.02434183398954 8.499134136302738
8.441367484414222 -5.725366963606169 22.8733411331256
1.240023239347983 -11.3219151210748 7.75562669059981
-1.044240467482067 -11.56934914587781 4.874357811013776
-8.072839699615699 -7.032081247479523 16.44036231883211
-9.602121550274166 -5.274310804297981 13.27388524283395
-9.013380806046477 -6.711528728532207 9.686081126610434
-10.59979061117258 -3.632453864138636 10.10242098608031
-10.81565859489413 -1.544188324534918 13.65488818216927
-6.080601846724424 -8.517000720516762 19.50596992312481
8.210764720045127 -6.873773322964603 16.41395255854668
8.879575647415447 -6.516329803827946 12.52761311772296
7.128485252779726 -8.680908832755224 9.749509992341578
-9.998677775114146 -3.748835964935794 16.79305457386303
-1.270194882918482 -9.908860900170261 25.54022233302247
4.66222024750712 8.521525489455966 29.05233681695705
5.039819814078843 -3.257890583034147 76.22279256047571
2.284701788703382 -5.401979611953831 77.94929372132331
2.749424520157654 -5.516649869858708 74.15561139185813
4.311926756871684 -3.226424224017219 84.04647073102491
2.001405722289415 -5.1831641544071 81.87686287414482
1.565777410866846 -4.947209821070668 86.54095293882608
1.761511681271383 4.844258672603374 86.97922111559225
5.383054762822435 3.290139095723076 72.31220661238299
3.151105506822417 5.657493773287912 70.19091370410557
-1.089161503678302 10.32106710865509 20.60468003272963
2.071317243915657 9.98336031870684 22.92235325935258
5.153586055033341 8.595482084827626 25.13206314527888
6.779767710152019 3.299538316045936 56.66916478998555
8.430602406298005 3.368557941207163 37.11902368267285
7.457185511834965 -3.285830633651695 48.93151826186603
4.953970478178081 -6.305423227281691 50.58670911565223
7.568483483252416 -3.780416799927454 44.97854289900693
9.430442081192481 3.331511343709381 25.39195052127168
7.92533502257128 6.355553069375312 23.39293024695477
-6.755145222662343 4.535538501849349 49.09005952024193
-2.484391785739472 9.127749791626627 32.27616509700993
-8.106701352488605 1.965391618903417 46.485079735475
10.05889553145263 3.400391129349838 17.5587093896202
8.931476956250057 6.569595277303361 11.59543950816434
10.68870185843614 3.461748840453574 9.716385927065353
9.062282845880056 6.971548017897626 7.196659236638807
-5.691291041215513 7.415269752220456 33.70234968231462
-9.161695116493668 5.444605682085339 17.05922309908008
-5.633967608570631 -6.624780199018508 41.97480748520819
-6.790847812259848 -3.547473534436231 55.12454230161522
-6.285643874441412 -0.8262872617131715 71.92065662534766
-10.68133300376758 2.067479124225668 14.23623703990754
-3.371492434276569 10.65329173517286 10.49458028238087
-0.3094450088874827 6.340582067550262 71.81383470385293
-2.734105458249493 -10.15638914023711 18.83104902527619
3.693930543379738 -10.53196607450827 10.66078397963639
-4.910711256848812 5.846432375617063 55.46039396154502
-9.165598402184031 -1.895426342394969 33.55032983748183
-9.09764195143606 0.9448557218172076 36.25619726151329
0.2827914099528614 -8.866284467861966 39.76034280017677
1.743185767125461 -8.403269940347382 43.42764743721842
-3.747905316338372 7.681434424977076 43.87451002421399
-5.455634231833829 4.430421429588129 63.17543533889476
-4.117261882258843 7.139462728209432 47.75515182080668
-4.458752140802544 6.561620838275465 51.67385253752207
6.789285253937403 -7.897832287196692 20.14060080483026
-4.988842258728491 -5.014920879722884 62.59390565073804
-3.870583893057501 -5.567973772456991 66.31200492193813
-3.473905793960232 -8.222987453947699 39.0502841609458
-4.138760633366188 -6.365278705180657 56.00255024423935
6.248507044611324 8.985159368942682 13.41438924738012
-2.951348887956763 -6.678211209618599 59.70265852607086
-1.610073115426067 -6.82499163340195 63.37428894829112
2.884493276594458 7.982105731695255 44.63304638918535
-6.159550758429547 -9.444810056646228 9.201361931105716
2.581667777312469 -6.469223979573626 63.97150638830367
-3.897124453577608 -8.92865759252042 28.68934423796262
-5.469909224289243 -3.61308157423457 69.17923683130236
5.097649805278996 -6.889136056415369 43.58129693223984
-7.878131254331723 5.385967881536417 31.2159807887641
-9.256757749530637 1.901733027733616 32.3997111014117
1.134543619674066 9.514990058024187 30.71862978622168
-4.363386282466957 3.580934935071484 80.75219679693707
-2.055023593270596 7.155624219237737 57.87842238524734
-2.470711115500422 6.699745011740296 61.7420149666081
0.7467481161991031 11.57453438065453 5.10029417915326
7.115555512683188 3.303274588790306 52.79531057261508
4.888880828004024 5.953345497499487 54.5925664776786
4.484725303805186 5.882379359453256 58.48705636101006
-7.692155954652721 6.151516957280331 27.32612919552176
6.364028721498854 6.265777584242386 38.99671575243787
-9.61465534307664 -0.9525856705529462 29.71054377078168
-0.2373008779886603 8.663747091004092 42.349827032584
1.123133371290871 7.175031648914374 60.19686834319207
0.617795020921865 6.929037560200565 64.08343312558463
0.1370561504285848 6.651284179023803 67.94393793028496
-5.317598700618059 -5.821265531721466 52.29347493442934
-4.757858205836063 -1.995481421015279 86.91836894518278
-4.058099037753007 -3.603704774904394 83.51492568019293
8.45992796957731 -3.261723526659606 37.26818653122908
7.8763721166995 -8.690256644341535 3.449687993079333
8.235357285289259 -7.986443051728444 6.710206185198285
-9.33360505688271 -7.111702968224623 3.376739201376022
4.712559026357229 10.74355243242771 3.409428593027145
-11.73666604211394 0.04718123912198326 3.344770207887467
-11.31581770093242 1.843238772360134 6.798354595906375
-2.028649363574059 4.754739308344587 86.79067298628853
-6.124722709160666 10.01157807970788 3.348901431892478
10.37443806815385 -3.417995766916998 13.68473878818401
5.101966915050013 -10.24089536155564 7.097480376663102
5.200534771230809 -5.705055491362501 54.38681914182557
10.79449085934742 -3.990168942353179 6.246806062227877
-10.17526487436176 -5.299260096614142 6.702569190896988
10.23355556339107 5.767975609077463 3.212942893686832
5.683742804108942 -3.38421152081854 68.42330158503597
9.401135007164278 -3.404165939541974 25.43167025599494
-2.974272476138776 11.06084885512525 6.940606201900162
5.934515921894478 -5.782958855149123 47.18831702083411
-8.107233756750569 -8.137816598484639 6.518211585801843
-10.2808939825345 -1.755328794210172 19.95296862734354
-11.16071163766656 0.3717507865285147 10.5855236361504
-3.568507704364933 -9.613032430170444 22.18495680364569
-11.30676912640062 -1.969057204795725 6.646072802447003
6.59086355102999 -2.90577253705153 60.95185164738211
-10.40398983322412 4.812176973089485 6.823407816147308
-0.8915089710837103 -5.336294660739441 83.73068460773698
3.811570266060402 -8.801269416883539 30.60717374716933
1.897458201055297 -11.60406525459614 3.072678648116426
9.90347123052393 -3.025432897703903 20.8980492020163
-4.954665447721385 -10.38025030848506 6.326418368421582
6.688571503821687 9.347740277549638 6.426464833120199
-4.388683959497208 3.122833922999367 84.03454159170822
-0.7293838804919742 -5.916017167145515 76.73518019912538
-9.284068391862601 7.26750341377217 2.664837240076421
6.306767244489111 -6.184443130773734 40.24000311628432
9.055688651406529 -2.428151711993286 33.34647383835051
4.326193519401213 -2.783957517392799 87.10678197913089
4.326193519407976 2.783957517382265 87.10678197913106
-3.935220592529317 -11.09136958085128 2.937789598440303
11.42395651398019 2.851827827667638 2.864788304020534
-10.67730059282464 -0.6258233144116309 16.57365067674464
3.89894702212274 -5.136628459120255 70.53496118425713
11.33741184728652 -3.138870961002373 2.999894383208478
9.32278953779722 -6.297226406687718 9.52572022655389
-6.366649730443042 -8.012613945229262 22.43825431086796
8.82557225894328 -5.625409812252693 19.49204330576264
-5.320693871616164 -0.03597779065990815 84.86708561803361
0.9681780396898522 11.79082748286103 2.153566807353991
2.303054290082497 -9.549477615321551 27.65801047462421
7.162797524340258 -2.61060732215866 55.60604939064334
0.7192835342764021 5.304800895400633 84.4537845737639
2.853175032637987 -11.21320152402439 5.457300693722028
0.5473750369420712 1.321480237890017 90
-0.7398602367303317 -1.78618061777492 90
2.201188615676791 -0.935382126248411 90
-2.217890441286627 0.8950603523447548 90
-0.3403557215216413 -0.1521437743146419 45.88367783667601
-0.009595759785598013 -0.002348301536083675 54.00130754512593
0.02200068527079146 -0.01218226344064233 61.18288864347051
-0.005209989060240616 0.01406180533168494 67.82263603846233
0.009294213846910537 -0.003262580563765383 74.59040273049389
0.01989725550359189 0.001987381402523525 80.26972319642587
-0.3185050421632782 -0.140286071948402 85.27626308456966
1.171799635583285 2.915685682220206 49.83238826066391
3.345743729439523 1.766720064469503 42.83474073167699
-2.578691567401614 -2.045538340657945 50.07675531066536
-1.361530362987145 3.469880257503831 42.57213924736628
-3.668432923603073 -1.792769716330478 42.61991848988556
0.8923533581267366 -3.627273691175857 42.63248809717229
2.473308500983856 -1.979863814620143 49.68180103283152
-1.72213188594687 -2.596344795298156 57.59615685400467
2.448382992230976 1.757880592224316 57.58377042316134
-2.19384217876805 2.029998127024601 57.64070239829887
-2.945577128557755 2.203201811447555 51.43998729298107
-2.070926922960111 -1.99063115411603 64.50211279263749
1.86547812406137 2.159379636267674 64.50184155749675
-3.78449903056586 2.345132991947819 46.78890135487661
-1.230644348519113 2.244600768111836 71.21489318370143
4.095277337339029 1.164716155537807 47.09727878558115
-1.584479512148643 -4.144048769482036 46.53844189371834
-0.5152470048199522 -2.47625254661176 71.20127537490184
-2.296854088778728 2.165580879066659 64.67460150495462
1.375979781080176 4.161029836177208 45.76294838592798
4.003510436659449 0.4516714751094356 52.7742156299736
2.98868375180942 -2.395232589956603 55.66177188072093
1.337611834706197 3.901888534138303 54.09563228406076
2.445594452456876 0.3868251377561862 71.2912860896358
0.150994224255768 -3.942994703408418 52.61272210250381
-3.895539460352789 -1.078553758437107 53.77039188154068
2.067889817620341 -1.974534940606139 64.21233479976794
3.525373894233878 -2.722018390513629 45.72485780511676
-0.3258829367861822 -0.1172033811209973 41.48347403780298

CELLS 2854 13034
1 0
1 1
1 2
1 3
2 0 4
2 4 5
2 5 6
2 6 7
2 7 8
2 8 9
2 9 10
2 10 11
2 11 12
2 12 1
2 0 13
2 13 14
2 14 15
2 15 16
2 16 17
2 17 18
2 18 19
2 19 20
2 20 21
2 21 22
2 22 23
2 23 24
2 24 0
2 1 25
2 25 26
2 26 27
2 27 28
2 28 29
2 29 30
2 30 31
2 31 1
2 2 32
2 32 33
2 33 34
2 34 35
2 35 36
2 36 37
2 37 38
2 38 39
2 39 40
2 40 41
2 41 42
2 42 43
2 43 44
2 44 45
2 45 46
2 46 47
2 47 48
2 48 49
2 49 2
2 3 50
2 50 51
2 51 52
2 52 53
2 53 54
2 54 55
2 55 56
2 56 3
2 2 57
2 57 58
2 58 59
2 59 60
2 60 61
2 61 62
2 62 63
2 63 64
2 64 65
2 65 66
2 66 67
2 67 68
2 68 69
2 69 70
2 70 71
2 71 72
2 72 73
2 73 74
2 74 75
2 75 76
2 76 77
2 77 78
2 78 3
3 0 182 4
3 4 183 0
3 13 182 0
3 0 183 24
3 12 179 1
3 1 180 12
3 1 179 25
3 31 180 1
3 4 91 5
3 5 92 4
3 4 182 91
3 92 183 4
3 5 128 6
3 6 131 5
3 91 128 5
3 5 131 92
3 6 84 7
3 7 85 6
3 6 128 84
3 85 131 6
3 7 93 8
3 8 132 7
3 84 93 7
3 7 132 85
3 9 79 8
3 8 130 9
3 79 132 8
3 93 130 8
3 9 80 10
3 10 136 9
3 9 136 79
3 9 130 80
3 11 83 10
3 10 137 11
3 80 137 10
3 83 136 10
3 11 90 12
3 12 133 11
3 11 133 83
3 11 137 90
3 90 179 12
3 12 180 133
3 14 167 13
3 167 182 13
3 15 87 14
3 87 167 14
3 16 164 15
3 15 164 87
3 17 162 16
3 162 164 16
3 18 81 17
3 81 162 17
3 19 165 18
3 18 165 81
3 20 171 19
3 19 171 165
3 21 82 20
3 82 171 20
3 22 173 21
3 21 173 82
3 23 88 22
3 88 173 22
3 24 168 23
3 23 168 88
3 24 183 168
3 25 139 26
3 25 179 139
3 26 166 27
3 139 166 26
3 27 86 28
3 27 166 86
3 28 161 29
3 86 161 28
3 29 89 30
3 29 161 89
3 30 140 31
3 89 140 30
3 140 180 31
3 79 172 132
3 136 188 79
3 79 188 172
3 130 154 80
3 80 138 137
3 80 154 138
3 81 165 145
3 145 178 81
3 81 178 162
3 82 157 127
3 127 158 82
3 82 173 157
3 158 171 82
3 133 134 83
3 134 135 83
3 135 136 83
3 84 94 93
3 84 129 94
3 128 129 84
3 85 175 131
3 132 175 85
3 86 187 161
3 166 177 86
3 177 187 86
3 159 167 87
3 87 181 159
3 164 181 87
3 168 169 88
3 169 176 88
3 88 176 173
3 89 161 119
3 119 174 89
3 89 185 140
3 174 185 89
3 137 160 90
3 90 160 139
3 139 179 90
3 91 159 128
3 91 167 159
3 91 182 167
3 131 169 92
3 92 169 168
3 168 183 92
3 94 95 93
3 95 130 93
3 94 96 95
3 94 98 96
3 94 129 98
3 96 97 95
3 97 154 95
3 95 154 130
3 96 141 97
3 98 99 96
3 99 141 96
3 141 142 97
3 142 153 97
3 153 154 97
3 98 100 99
3 98 117 100
3 98 129 117
3 100 101 99
3 101 102 99
3 102 141 99
3 100 143 101
3 117 118 100
3 118 143 100
3 101 103 102
3 101 144 103
3 143 144 101
3 103 104 102
3 104 152 102
3 102 152 141
3 103 105 104
3 103 112 105
3 103 144 112
3 105 106 104
3 106 107 104
3 107 152 104
3 105 111 106
3 105 151 111
3 112 151 105
3 106 108 107
3 106 120 108
3 111 120 106
3 108 109 107
3 109 146 107
3 146 152 107
3 108 110 109
3 108 115 110
3 108 120 115
3 110 113 109
3 113 114 109
3 114 146 109
3 110 116 113
3 115 170 110
3 110 170 116
3 111 121 120
3 111 122 121
3 111 151 122
3 144 145 112
3 145 186 112
3 112 186 151
3 113 163 114
3 116 119 113
3 119 163 113
3 114 149 146
3 114 150 149
3 114 163 150
3 120 147 115
3 147 148 115
3 148 170 115
3 116 174 119
3 170 184 116
3 116 184 174
3 117 181 118
3 129 159 117
3 159 181 117
3 118 162 143
3 118 164 162
3 118 181 164
3 161 187 119
3 119 187 163
3 121 147 120
3 122 123 121
3 123 125 121
3 125 147 121
3 122 124 123
3 122 127 124
3 122 151 127
3 124 126 123
3 123 175 125
3 126 175 123
3 124 176 126
3 127 157 124
3 157 176 124
3 132 172 125
3 125 175 132
3 125 172 147
3 126 169 131
3 131 175 126
3 126 176 169
3 151 186 127
3 127 186 158
3 128 159 129
3 133 185 134
3 133 180 140
3 140 185 133
3 134 184 135
3 134 185 184
3 135 188 136
3 135 170 148
3 148 188 135
3 135 184 170
3 138 160 137
3 138 154 153
3 153 155 138
3 155 160 138
3 139 160 156
3 156 166 139
3 141 152 142
3 146 149 142
3 142 152 146
3 149 153 142
3 143 178 144
3 162 178 143
3 144 178 145
3 145 171 158
3 158 186 145
3 165 171 145
3 147 172 148
3 172 188 148
3 150 155 149
3 149 155 153
3 150 156 155
3 150 177 156
3 163 177 150
3 156 160 155
3 156 177 166
3 173 176 157
3 163 187 177
3 184 185 174
3 25 192 1
3 1 189 31
3 1 192 189
3 26 192 25
3 27 192 26
3 28 190 27
3 190 192 27
3 29 191 28
3 28 191 190
3 30 191 29
3 31 191 30
3 189 191 31
3 190 191 189
3 189 192 190
3 2 0 32
3 49 0 2
3 32 0 13
3 24 0 49
3 14 33 13
3 33 32 13
3 14 15 35
3 34 33 14
3 35 34 14
3 15 16 36
3 35 15 36
3 16 17 38
3 36 16 37
3 37 16 38
3 17 18 39
3 38 17 39
3 19 193 18
3 39 18 40
3 18 193 40
3 19 20 42
3 41 19 42
3 41 193 19
3 20 21 43
3 42 20 43
3 45 21 22
3 43 21 44
3 44 21 45
3 23 46 22
3 22 46 45
3 24 48 23
3 23 47 46
3 23 48 47
3 24 49 48
3 40 193 41
3 32 516 2
3 2 519 49
3 2 516 57
3 57 519 2
3 3 514 50
3 56 513 3
3 3 513 78
3 78 514 3
3 33 490 32
3 490 516 32
3 34 214 33
3 214 490 33
3 35 480 34
3 34 480 214
3 36 524 35
3 35 524 480
3 37 205 36
3 205 524 36
3 38 484 37
3 37 484 205
3 39 510 38
3 38 510 484
3 40 202 39
3 202 510 39
3 41 481 40
3 40 481 202
3 42 215 41
3 215 481 41
3 43 479 42
3 42 479 215
3 44 203 43
3 203 479 43
3 45 515 44
3 44 515 203
3 46 504 45
3 45 504 384
3 384 515 45
3 47 209 46
3 209 504 46
3 48 477 47
3 47 477 209
3 49 219 48
3 219 477 48
3 49 519 219
3 50 403 51
3 50 514 403
3 51 483 52
3 403 483 51
3 52 206 53
3 52 483 206
3 53 474 54
3 206 474 53
3 54 217 55
3 54 474 217
3 55 402 56
3 217 402 55
3 402 513 56
3 57 220 58
3 58 488 57
3 57 516 220
3 488 519 57
3 59 216 58
3 58 421 59
3 216 488 58
3 220 421 58
3 59 213 60
3 60 485 59
3 59 421 213
3 59 485 216
3 61 204 60
3 60 419 61
3 204 485 60
3 213 419 60
3 61 201 62
3 62 505 61
3 61 419 201
3 61 505 204
3 62 414 63
3 63 492 62
3 201 414 62
3 492 505 62
3 64 197 63
3 63 223 64
3 197 492 63
3 63 414 223
3 64 195 65
3 65 512 64
3 64 223 195
3 64 512 197
3 65 410 66
3 66 476 65
3 195 410 65
3 476 512 65
3 67 199 66
3 66 210 67
3 199 476 66
3 66 410 210
3 67 222 68
3 68 413 67
3 67 413 199
3 210 222 67
3 68 196 69
3 69 411 68
3 68 222 196
3 411 413 68
3 70 200 69
3 69 463 70
3 196 463 69
3 200 411 69
3 70 409 71
3 71 526 70
3 70 526 200
3 70 463 409
3 71 211 72
3 72 500 71
3 71 409 211
3 71 500 356
3 356 526 71
3 73 212 72
3 72 221 73
3 211 221 72
3 212 500 72
3 73 194 74
3 74 491 73
3 73 221 194
3 73 491 212
3 75 198 74
3 74 404 75
3 194 404 74
3 198 491 74
3 75 207 76
3 76 397 75
3 75 397 198
3 75 404 207
3 77 208 76
3 76 224 77
3 207 224 76
3 208 397 76
3 77 218 78
3 78 400 77
3 77 400 208
3 77 224 218
3 218 514 78
3 78 513 400
3 221 228 194
3 228 405 194
3 194 405 404
3 223 253 195
3 253 359 195
3 359 410 195
3 222 244 196
3 244 290 196
3 290 463 196
3 349 365 197
3 197 512 349
3 365 366 197
3 366 492 197
3 397 399 198
3 399 518 198
3 198 518 491
3 413 455 199
3 455 511 199
3 199 511 476
3 200 412 411
3 200 487 412
3 200 526 487
3 360 415 201
3 201 419 360
3 201 415 414
3 481 482 202
3 482 501 202
3 501 510 202
3 203 495 479
3 203 506 495
3 203 515 506
3 391 485 204
3 204 522 391
3 505 522 204
3 205 493 462
3 462 524 205
3 484 493 205
3 206 523 474
3 483 508 206
3 508 523 206
3 207 225 224
3 207 226 225
3 207 404 226
3 208 398 397
3 208 401 398
3 400 401 208
3 477 486 209
3 486 528 209
3 209 528 504
3 210 357 222
3 210 467 357
3 410 467 210
3 211 362 221
3 211 465 362
3 409 465 211
3 354 452 212
3 212 491 354
3 212 452 355
3 355 500 212
3 361 419 213
3 213 420 361
3 213 421 420
3 422 490 214
3 214 507 422
3 480 507 214
3 479 489 215
3 215 499 481
3 489 499 215
3 216 485 392
3 392 520 216
3 216 520 488
3 217 502 402
3 474 475 217
3 475 502 217
3 224 363 218
3 363 527 218
3 403 514 218
3 218 527 403
3 219 478 477
3 219 488 478
3 219 519 488
3 220 422 421
3 220 490 422
3 220 516 490
3 221 362 228
3 222 357 244
3 223 309 253
3 223 414 309
3 225 363 224
3 226 227 225
3 227 229 225
3 229 363 225
3 226 430 227
3 404 405 226
3 405 430 226
3 227 230 229
3 227 231 230
3 227 430 231
3 362 471 228
3 228 472 405
3 471 472 228
3 230 459 229
3 229 364 363
3 229 459 364
3 231 232 230
3 232 234 230
3 234 459 230
3 231 233 232
3 231 240 233
3 231 430 240
3 233 427 232
3 232 235 234
3 232 427 235
3 240 241 233
3 241 242 233
3 242 427 233
3 235 236 234
3 236 350 234
3 350 459 234
3 235 237 236
3 235 238 237
3 235 427 238
3 237 239 236
3 239 475 236
3 236 475 350
3 238 336 237
3 237 509 239
3 336 509 237
3 238 337 336
3 238 454 337
3 427 454 238
3 398 401 239
3 239 509 398
3 401 502 239
3 239 502 475
3 240 315 241
3 240 472 315
3 430 472 240
3 241 243 242
3 241 439 243
3 315 439 241
3 243 245 242
3 245 454 242
3 242 454 427
3 243 246 245
3 243 247 246
3 243 439 247
3 244 295 290
3 244 450 295
3 357 450 244
3 246 443 245
3 443 444 245
3 444 454 245
3 247 248 246
3 248 251 246
3 251 443 246
3 247 249 248
3 247 296 249
3 247 439 296
3 249 250 248
3 250 426 248
3 248 426 251
3 249 252 250
3 249 433 252
3 296 433 249
3 252 254 250
3 254 255 250
3 255 426 250
3 426 446 251
3 251 448 443
3 446 448 251
3 252 416 254
3 252 441 416
3 433 441 252
3 309 396 253
3 358 359 253
3 253 396 358
3 254 256 255
3 254 418 256
3 416 418 254
3 256 257 255
3 257 473 255
3 255 473 426
3 256 258 257
3 256 259 258
3 256 418 259
3 258 267 257
3 267 302 257
3 302 473 257
3 259 260 258
3 260 425 258
3 258 425 267
3 259 261 260
3 259 263 261
3 259 418 263
3 261 262 260
3 262 265 260
3 265 425 260
3 261 435 262
3 263 264 261
3 264 435 261
3 262 266 265
3 262 434 266
3 262 435 434
3 263 288 264
3 263 311 288
3 263 418 311
3 288 289 264
3 289 304 264
3 304 435 264
3 266 268 265
3 268 445 265
3 265 445 425
3 266 269 268
3 266 270 269
3 266 434 270
3 267 303 302
3 267 331 303
3 267 425 331
3 269 293 268
3 293 300 268
3 300 445 268
3 270 271 269
3 271 453 269
3 269 453 293
3 270 272 271
3 270 468 272
3 434 468 270
3 272 273 271
3 273 282 271
3 282 453 271
3 272 274 273
3 272 275 274
3 272 468 275
3 274 277 273
3 277 521 273
3 273 521 282
3 275 276 274
3 276 496 274
3 274 496 277
3 275 278 276
3 275 332 278
3 275 468 332
3 278 279 276
3 279 286 276
3 286 496 276
3 385 390 277
3 277 394 385
3 390 521 277
3 277 496 394
3 278 280 279
3 278 466 280
3 332 466 278
3 280 281 279
3 281 424 279
3 279 424 286
3 280 283 281
3 280 284 283
3 280 466 284
3 283 285 281
3 285 287 281
3 287 424 281
3 395 453 282
3 282 498 395
3 282 521 498
3 284 291 283
3 283 406 285
3 291 406 283
3 284 292 291
3 284 335 292
3 284 466 335
3 285 297 287
3 285 298 297
3 285 406 298
3 424 428 286
3 428 517 286
3 286 517 496
3 297 301 287
3 301 317 287
3 317 424 287
3 288 294 289
3 288 438 294
3 311 438 288
3 294 312 289
3 289 423 304
3 312 423 289
3 295 305 290
3 305 464 290
3 290 464 463
3 292 338 291
3 338 407 291
3 291 407 406
3 335 417 292
3 292 458 338
3 417 458 292
3 293 306 300
3 293 318 306
3 293 453 318
3 294 313 312
3 294 469 313
3 438 469 294
3 295 319 305
3 295 334 319
3 295 450 334
3 296 460 433
3 439 461 296
3 296 461 460
3 298 299 297
3 299 429 297
3 297 429 301
3 298 307 299
3 298 314 307
3 298 406 314
3 307 308 299
3 308 343 299
3 343 429 299
3 306 310 300
3 310 436 300
3 436 445 300
3 301 326 317
3 301 346 326
3 301 429 346
3 303 320 302
3 320 322 302
3 322 473 302
3 303 321 320
3 303 437 321
3 331 437 303
3 423 456 304
3 304 457 435
3 456 457 304
3 319 329 305
3 329 330 305
3 330 464 305
3 306 325 310
3 318 503 306
3 306 503 325
3 307 447 308
3 314 316 307
3 316 447 307
3 308 344 343
3 308 345 344
3 308 447 345
3 309 408 396
3 309 415 408
3 414 415 309
3 325 347 310
3 347 348 310
3 348 436 310
3 311 418 416
3 416 440 311
3 311 440 438
3 313 323 312
3 323 417 312
3 417 423 312
3 313 324 323
3 313 333 324
3 313 469 333
3 314 328 316
3 314 407 328
3 406 407 314
3 315 461 439
3 315 471 461
3 315 472 471
3 328 360 316
3 360 361 316
3 361 447 316
3 326 327 317
3 327 428 317
3 317 428 424
3 318 453 395
3 395 525 318
3 318 525 503
3 319 441 329
3 334 440 319
3 440 441 319
3 321 412 320
3 320 339 322
3 320 412 339
3 321 494 412
3 437 455 321
3 455 494 321
3 339 340 322
3 340 446 322
3 446 473 322
3 324 358 323
3 358 458 323
3 323 458 417
3 333 467 324
3 324 359 358
3 324 467 359
3 325 349 347
3 325 365 349
3 325 503 365
3 326 501 327
3 346 351 326
3 351 501 326
3 327 497 428
3 482 497 327
3 327 501 482
3 328 415 360
3 407 408 328
3 408 415 328
3 329 460 330
3 329 441 433
3 433 460 329
3 460 470 330
3 330 465 464
3 330 470 465
3 425 445 331
3 436 437 331
3 331 445 436
3 332 457 456
3 456 466 332
3 332 468 457
3 333 450 357
3 357 467 333
3 333 469 450
3 438 440 334
3 334 469 438
3 450 469 334
3 335 423 417
3 335 456 423
3 335 466 456
3 337 352 336
3 352 399 336
3 399 509 336
3 337 353 352
3 337 444 353
3 337 454 444
3 396 408 338
3 338 458 396
3 338 408 407
3 339 341 340
3 339 487 341
3 412 487 339
3 341 342 340
3 342 448 340
3 340 448 446
3 341 355 342
3 341 356 355
3 341 487 356
3 355 452 342
3 342 449 448
3 342 452 449
3 344 462 343
3 343 493 429
3 462 493 343
3 345 507 344
3 344 480 462
3 344 507 480
3 420 422 345
3 345 447 420
3 422 507 345
3 346 484 351
3 429 493 346
3 346 493 484
3 347 511 348
3 349 476 347
3 476 511 347
3 348 437 436
3 348 455 437
3 348 511 455
3 349 512 476
3 350 508 459
3 475 523 350
3 350 523 508
3 484 510 351
3 351 510 501
3 353 354 352
3 354 518 352
3 352 518 399
3 353 452 354
3 444 449 353
3 449 452 353
3 491 518 354
3 356 500 355
3 487 526 356
3 396 458 358
3 359 467 410
3 360 419 361
3 420 447 361
3 465 470 362
3 470 471 362
3 364 527 363
3 459 508 364
3 364 508 483
3 483 527 364
3 365 367 366
3 365 503 367
3 367 368 366
3 368 382 366
3 382 492 366
3 367 369 368
3 367 525 369
3 503 525 367
3 369 370 368
3 370 442 368
3 368 442 382
3 369 371 370
3 369 395 371
3 369 525 395
3 371 372 370
3 372 373 370
3 373 442 370
3 371 431 372
3 395 498 371
3 371 498 431
3 372 374 373
3 372 375 374
3 372 431 375
3 374 378 373
3 378 391 373
3 391 442 373
3 375 376 374
3 376 432 374
3 374 432 378
3 375 377 376
3 375 379 377
3 375 431 379
3 377 381 376
3 381 383 376
3 383 432 376
3 379 380 377
3 380 451 377
3 377 451 381
3 378 392 391
3 378 393 392
3 378 432 393
3 379 385 380
3 379 390 385
3 379 431 390
3 385 386 380
3 386 387 380
3 387 451 380
3 381 384 383
3 381 506 384
3 451 506 381
3 442 522 382
3 382 505 492
3 382 522 505
3 384 528 383
3 383 486 432
3 383 528 486
3 504 528 384
3 506 515 384
3 385 394 386
3 386 388 387
3 386 389 388
3 386 394 389
3 388 489 387
3 387 495 451
3 489 495 387
3 389 497 388
3 388 499 489
3 497 499 388
3 394 517 389
3 428 497 389
3 389 517 428
3 431 498 390
3 498 521 390
3 392 485 391
3 391 522 442
3 393 520 392
3 432 486 393
3 393 486 478
3 478 520 393
3 496 517 394
3 398 399 397
3 398 509 399
3 400 402 401
3 400 513 402
3 402 502 401
3 403 527 483
3 405 472 430
3 463 464 409
3 464 465 409
3 412 494 411
3 411 494 413
3 413 494 455
3 416 441 440
3 421 422 420
3 426 473 446
3 435 457 434
3 457 468 434
3 443 449 444
3 448 449 443
3 495 506 451
3 461 470 460
3 461 471 470
3 480 524 462
3 474 523 475
3 478 486 477
3 488 520 478
3 479 495 489
3 481 499 482
3 482 499 497
3 50 531 3
3 3 531 56
3 51 529 50
3 529 531 50
3 52 532 51
3 51 532 529
3 53 532 52
3 54 532 53
3 55 530 54
3 530 532 54
3 56 531 55
3 55 531 530
3 530 531 529
3 529 532 530
4 500 535 548 561
4 500 355 535 561
4 355 342 535 547
4 535 547 246 549
4 355 547 535 561
4 225 229 537 538
4 247 535 246 549
4 230 537 229 538
4 227 225 229 537
4 246 535 247 558
4 544 553 256 556
4 230 227 229 537
4 542 256 553 556
4 461 535 470 552
4 72 500 535 548
4 470 535 461 549
4 449 535 547 551
4 449 535 342 547
4 246 551 535 558
4 246 547 535 551
4 207 225 537 538
4 449 547 448 551
4 76 537 397 538
4 207 537 76 538
4 443 547 246 551
4 470 548 535 549
4 449 342 448 547
4 248 246 547 549
4 535 552 461 558
4 535 549 247 558
4 234 537 230 538
4 341 547 342 561
4 355 342 547 561
4 234 236 537 538
4 331 29 425 544
4 331 30 29 545
4 25 333 26 541
4 331 29 544 545
4 26 541 333 543
4 234 236 235 537
4 248 247 246 549
4 263 544 543 553
4 427 242 554 557
4 28 543 263 544
4 536 554 242 557
4 72 535 211 548
4 355 500 535 566
4 355 341 342 561
4 258 544 256 556
4 461 549 535 558
4 439 247 549 558
4 342 535 449 566
4 535 551 449 566
4 471 461 470 552
4 443 448 547 551
4 211 548 535 552
4 211 535 72 552
4 355 535 342 566
4 461 439 549 558
4 397 537 398 538
4 237 537 236 538
4 427 454 242 557
4 454 536 242 557
4 208 76 397 538
4 207 224 225 538
4 445 30 29 331
4 211 362 548 552
4 243 246 247 558
4 199 541 545 567
4 296 461 439 549
4 405 472 228 536
4 333 543 541 559
4 72 535 500 566
4 207 76 224 538
4 509 537 237 538
4 405 228 194 536
4 228 194 536 552
4 237 235 236 537
4 228 536 472 552
4 533 553 544 556
4 443 251 246 547
4 425 445 29 331
4 540 553 440 559
4 256 544 259 553
4 440 540 550 553
4 241 242 536 554
4 319 540 440 559
4 440 540 319 550
4 541 189 545 568
4 337 353 444 551
4 259 544 263 553
4 27 263 28 543
4 543 544 190 568
4 296 439 247 549
4 256 542 257 556
4 208 397 398 538
4 533 542 553 556
4 405 472 536 554
4 258 256 257 556
4 491 536 518 563
4 536 557 518 563
4 243 551 246 558
4 234 232 230 537
4 405 536 194 563
4 461 552 471 558
4 189 31 541 545
4 241 233 242 554
4 549 550 433 562
4 249 550 549 565
4 72 71 500 548
4 199 541 31 545
4 470 460 548 549
4 398 537 509 538
4 311 263 543 553
4 263 27 288 543
4 333 541 450 559
4 363 218 527 539
4 234 235 232 537
4 242 536 454 551
4 508 538 364 539
4 232 537 427 554
4 242 241 536 558
4 76 207 75 537
4 470 460 330 548
4 76 75 397 537
4 433 549 249 550
4 232 235 427 537
4 330 548 460 549
4 252 550 249 565
4 449 448 443 551
4 500 356 355 561
4 72 552 535 566
4 252 433 249 550
4 427 554 537 557
4 438 553 543 559
4 254 542 256 553
4 469 26 333 543
4 241 554 536 558
4 226 207 225 537
4 226 225 227 537
4 491 354 518 536
4 28 190 543 544
4 248 246 251 547
4 363 538 218 539
4 259 263 418 553
4 518 536 354 557
4 241 240 554 558
4 238 427 235 537
4 418 256 259 553
4 459 234 230 538
4 500 548 71 561
4 263 288 311 543
4 238 427 537 557
4 459 230 229 538
4 73 536 491 563
4 405 554 536 563
4 194 536 73 563
4 333 357 450 541
4 331 544 267 556
4 472 552 536 558
4 319 550 540 562
4 425 267 331 544
4 397 198 537 563
4 548 549 330 562
4 230 232 231 537
4 73 536 194 552
4 227 230 231 537
4 331 545 544 556
4 329 433 550 562
4 242 536 551 558
4 397 537 75 563
4 397 75 198 563
4 77 538 400 539
4 427 242 233 554
4 353 354 536 557
4 334 319 440 559
4 319 329 550 562
4 1 189 31 541
4 207 537 226 563
4 508 350 538 539
4 465 362 470 548
4 77 218 538 539
4 471 470 362 552
4 460 470 461 549
4 333 25 357 541
4 31 199 1 541
4 508 459 364 538
4 254 550 542 553
4 491 536 73 566
4 353 551 536 566
4 239 509 237 538
4 67 541 199 567
4 227 226 537 554
4 397 198 399 537
4 261 28 263 544
4 259 256 258 544
4 354 353 536 566
4 329 549 433 562
4 330 549 460 562
4 261 263 259 544
4 400 538 401 539
4 404 207 226 563
4 72 211 71 548
4 75 537 207 563
4 198 399 537 563
4 248 549 547 565
4 329 460 549 562
4 232 231 537 554
4 192 25 26 541
4 533 542 540 550
4 227 537 231 554
4 240 315 472 558
4 547 548 535 561
4 502 401 538 539
4 440 319 441 550
4 238 537 237 557
4 354 536 491 566
4 342 341 340 547
4 237 537 336 557
4 536 552 73 566
4 190 27 28 543
4 74 73 491 563
4 321 556 546 567
4 534 550 549 562
4 450 541 357 559
4 502 538 475 539
4 192 541 26 543
4 238 235 237 537
4 399 557 537 563
4 329 460 433 549
4 533 550 540 553
4 242 454 245 551
4 542 550 533 553
4 537 554 226 563
4 321 320 546 556
4 465 211 362 548
4 196 463 290 560
4 452 342 449 566
4 547 564 446 565
4 239 237 236 538
4 508 350 459 538
4 319 329 441 550
4 248 249 549 565
4 443 448 251 547
4 331 436 30 545
4 459 229 364 538
4 255 256 254 542
4 225 363 229 538
4 399 398 397 537
4 534 542 540 546
4 475 538 350 539
4 446 564 473 565
4 403 529 483 539
4 194 73 74 563
4 67 555 541 567
4 540 542 534 550
4 229 363 364 538
4 238 237 336 557
4 302 556 542 564
4 514 529 403 539
4 242 551 243 558
4 288 27 263 264
4 198 557 399 563
4 542 550 254 565
4 241 240 233 554
4 353 352 354 557
4 487 561 546 564
4 540 542 533 546
4 546 556 320 564
4 471 552 472 558
4 321 437 303 556
4 255 542 254 565
4 225 224 363 538
4 290 540 560 562
4 340 547 341 561
4 405 226 554 563
4 25 210 357 541
4 400 77 208 538
4 218 363 224 538
4 242 245 243 551
4 487 200 546 561
4 452 355 342 566
4 319 540 305 562
4 547 561 340 564
4 404 75 207 563
4 290 560 463 562
4 543 544 533 553
4 471 472 315 558
4 26 469 294 543
4 263 27 28 264
4 227 430 226 554
4 439 243 247 558
4 244 290 540 555
4 409 560 548 562
4 295 540 319 559
4 470 330 465 548
4 446 547 340 564
4 399 509 398 537
4 237 509 336 537
4 221 211 72 552
4 77 400 78 539
4 239 398 509 538
4 248 547 426 565
4 250 252 249 565
4 549 550 534 565
4 445 30 331 436
4 218 224 77 538
4 302 320 556 564
4 30 191 29 545
4 295 244 290 540
4 509 399 336 537
4 290 463 464 562
4 399 336 537 557
4 502 400 401 539
4 364 527 483 539
4 70 548 409 560
4 412 487 546 564
4 441 329 433 550
4 400 208 401 538
4 357 210 25 467
4 350 234 459 538
4 199 545 455 567
4 77 78 218 539
4 311 543 438 553
4 474 530 217 539
4 254 256 418 553
4 542 556 546 564
4 440 550 416 553
4 1 199 67 541
4 413 67 199 567
4 438 311 288 543
4 258 267 544 556
4 518 354 352 557
4 31 511 199 545
4 405 226 430 554
4 508 523 350 539
4 295 244 540 559
4 244 541 222 555
4 191 544 29 545
4 514 531 529 539
4 67 68 555 567
4 70 548 560 561
4 319 305 329 562
4 535 548 547 549
4 222 244 357 541
4 333 357 25 467
4 76 208 77 538
4 426 248 251 547
4 196 555 69 560
4 473 446 322 564
4 244 357 541 559
4 400 502 402 539
4 258 267 425 544
4 244 555 540 559
4 541 555 244 559
4 30 436 348 545
4 440 441 416 550
4 232 427 233 554
4 534 547 548 549
4 334 295 319 559
4 527 218 403 539
4 403 483 527 539
4 76 77 224 538
4 412 487 200 546
4 210 1 67 541
4 247 248 249 549
4 260 425 29 544
4 353 449 551 566
4 296 460 461 549
4 200 560 546 561
4 533 541 545 568
4 28 261 263 264
4 193 481 165 202
4 244 196 290 555
4 464 409 548 562
4 475 502 239 538
4 533 545 541 567
4 494 321 546 567
4 362 211 221 552
4 350 236 234 538
4 540 533 553 559
4 364 483 508 539
4 473 302 542 564
4 255 257 256 542
4 355 356 341 561
4 473 564 542 565
4 69 555 546 560
4 198 518 557 563
4 500 71 356 561
4 259 260 261 544
4 437 436 331 545
4 248 250 249 565
4 534 548 547 561
4 67 222 541 555
4 405 404 226 563
4 411 546 69 555
4 533 544 543 568
4 340 341 339 561
4 142 97 406 153
4 405 430 472 554
4 298 97 141 96
4 322 446 340 564
4 141 142 97 406
4 475 350 523 539
4 1 210 25 541
4 198 518 399 557
4 288 294 438 543
4 340 561 339 564
4 475 236 350 538
4 311 418 263 553
4 240 241 315 558
4 514 403 218 539
4 288 27 294 543
4 473 322 302 564
4 406 97 141 298
4 246 243 245 551
4 483 529 532 539
4 258 257 267 556
4 440 311 438 553
4 455 199 511 545
4 532 530 474 539
4 96 99 298 98
4 437 348 436 545
4 284 142 153 149
4 254 416 550 553
4 283 142 406 153
4 141 142 406 283
4 353 452 449 566
4 283 142 153 284
4 314 154 97 95
4 198 491 518 563
4 530 402 217 539
4 150 149 284 155
4 70 71 548 561
4 454 427 238 557
4 481 165 215 193
4 66 210 1 67
4 99 299 298 98
4 514 78 531 539
4 294 27 26 543
4 284 335 150 155
4 342 340 448 547
4 166 289 423 304
4 398 401 208 538
4 333 26 469 313
4 530 531 402 539
4 69 546 200 560
4 67 413 68 567
4 285 141 406 283
4 502 401 239 538
4 28 261 260 544
4 426 547 446 565
4 412 321 320 546
4 412 494 321 546
4 444 245 454 551
4 291 283 406 153
4 475 239 236 538
4 305 540 290 562
4 70 71 409 548
4 471 228 472 552
4 153 291 283 284
4 407 154 97 314
4 298 99 141 285
4 298 141 406 285
4 29 28 260 544
4 73 552 72 566
4 268 265 29 266
4 305 319 295 540
4 469 438 294 543
4 280 152 142 146
4 329 330 460 562
4 196 69 463 560
4 30 348 31 545
4 96 316 95 94
4 25 26 333 324
4 154 314 328 95
4 389 517 105 104
4 534 546 540 560
4 284 153 291 155
4 298 141 99 96
4 281 152 142 280
4 280 279 152 146
4 200 69 411 546
4 533 546 542 556
4 314 96 316 95
4 242 243 241 558
4 514 218 78 539
4 117 299 100 98
4 464 548 465 562
4 316 96 307 94
4 86 166 423 304
4 461 471 315 558
4 343 299 100 117
4 492 382 136 79
4 153 138 154 407
4 353 337 352 557
4 426 446 473 565
4 469 26 294 313
4 227 231 430 554
4 104 105 389 103
4 221 73 194 552
4 165 18 193 202
4 513 78 400 539
4 72 73 221 552
4 89 174 269 266
4 321 303 320 556
4 534 564 547 565
4 287 102 141 281
4 153 284 149 155
4 281 279 152 280
4 206 508 483 539
4 466 149 114 278
4 330 465 548 562
4 305 295 290 540
4 468 113 275 114
4 425 29 265 260
4 96 307 314 316
4 101 99 301 287
4 67 68 222 555
4 323 358 139 458
4 99 298 297 285
4 276 275 109 146
4 78 513 531 539
4 483 532 206 539
4 109 273 110 272
4 102 152 141 281
4 223 414 10 137
4 199 455 413 567
4 106 517 496 104
4 80 414 9 201
4 297 100 99 301
4 546 556 533 567
4 165 481 482 202
4 299 100 99 297
4 551 552 535 558
4 543 553 533 559
4 250 255 254 565
4 398 239 401 538
4 314 407 154 328
4 114 149 146 278
4 257 542 302 556
4 146 149 280 278
4 105 517 106 104
4 149 466 280 278
4 146 275 109 114
4 94 447 361 84
4 386 105 151 112
4 542 546 534 564
4 451 380 122 151
4 423 177 86 304
4 153 138 407 338
4 99 101 102 287
4 98 447 307 94
4 411 546 555 567
4 106 390 120 277
4 437 455 545 567
4 119 269 174 266
4 130 80 9 201
4 298 307 96 98
4 426 251 446 547
4 120 385 390 106
4 149 284 466 150
4 121 125 372 374
4 120 108 106 277
4 423 177 166 86
4 428 104 103 102
4 68 411 69 555
4 412 546 320 564
4 375 377 379 121
4 31 348 511 545
4 110 282 170 116
4 464 409 465 548
4 144 327 103 101
4 377 379 121 122
4 316 93 95 94
4 106 111 385 105
4 108 496 107 106
4 285 99 141 287
4 114 146 275 278
4 522 79 172 442
4 80 10 414 137
4 276 275 146 278
4 97 298 314 96
4 291 292 284 155
4 307 308 447 98
4 536 552 551 558
4 533 540 546 555
4 93 360 316 95
4 298 299 99 297
4 408 154 138 407
4 533 543 541 568
4 335 466 284 150
4 547 549 534 565
4 469 450 334 559
4 541 543 533 559
4 474 206 532 539
4 375 377 121 122
4 244 450 357 559
4 93 316 361 94
4 307 298 299 98
4 101 144 327 326
4 544 545 533 556
4 308 344 345 117
4 284 280 142 149
4 372 375 121 374
4 473 542 255 565
4 437 321 455 567
4 114 468 113 163
4 247 249 296 549
4 533 541 555 567
4 473 302 257 542
4 269 268 89 266
4 19 215 165 193
4 99 100 299 98
4 110 113 109 272
4 122 375 376 123
4 198 74 491 563
4 313 324 26 323
4 40 481 193 202
4 535 552 551 566
4 541 543 192 568
4 402 531 513 539
4 100 101 99 301
4 313 26 312 323
4 260 29 265 262
4 335 284 292 155
4 540 550 534 562
4 100 143 101 301
4 405 194 404 563
4 308 299 117 98
4 441 433 252 550
4 232 233 231 554
4 298 406 97 314
4 388 386 151 112
4 113 110 271 272
4 546 555 540 560
4 513 400 402 539
4 28 29 260 262
4 534 549 548 562
4 283 141 142 281
4 210 67 222 541
4 105 111 385 386
4 380 379 122 111
4 282 453 170 116
4 152 279 107 146
4 142 283 280 284
4 107 279 276 146
4 285 297 99 287
4 166 312 26 323
4 330 464 465 562
4 100 297 429 301
4 246 245 443 551
4 97 406 153 407
4 105 106 517 394
4 473 257 255 542
4 222 357 210 541
4 447 94 129 84
4 546 561 560 564
4 534 561 547 564
4 316 361 360 93
4 496 107 106 104
4 283 285 141 281
4 70 526 71 561
4 456 150 163 332
4 240 472 430 554
4 297 299 100 429
4 68 411 555 567
4 551 552 536 566
4 496 274 108 107
4 361 93 84 213
4 10 62 9 414
4 385 106 105 394
4 412 339 487 564
4 530 529 531 539
4 481 215 41 193
4 110 271 282 116
4 521 115 120 108
4 191 544 545 568
4 138 408 407 338
4 114 275 468 332
4 546 560 534 564
4 415 154 328 130
4 286 279 107 152
4 202 482 165 81
4 94 98 447 129
4 98 308 447 129
4 155 153 291 338
4 343 308 299 117
4 27 26 312 294
4 382 492 505 79
4 115 371 431 147
4 396 137 138 309
4 410 25 1 210
4 106 385 390 277
4 172 147 125 372
4 100 118 429 343
4 408 138 80 309
4 345 308 117 129
4 360 130 93 419
4 84 93 7 213
4 110 273 271 272
4 135 188 136 368
4 228 221 194 552
4 163 114 468 332
4 272 109 273 274
4 560 561 534 564
4 379 121 122 111
4 517 389 428 104
4 93 361 419 213
4 191 190 544 568
4 354 452 353 566
4 406 291 153 407
4 26 333 324 313
4 419 7 93 213
4 377 375 376 122
4 370 172 188 442
4 379 377 380 122
4 414 9 10 80
4 447 420 361 84
4 394 105 385 386
4 210 410 25 467
4 331 267 303 556
4 130 328 360 95
4 109 108 273 274
4 130 415 80 201
4 271 116 113 119
4 408 80 154 415
4 148 188 135 368
4 260 258 425 544
4 122 121 375 123
4 108 120 390 277
4 147 172 370 372
4 376 381 377 124
4 451 380 377 122
4 445 29 265 425
4 305 290 464 562
4 432 124 126 383
4 411 494 546 567
4 108 273 110 109
4 130 154 328 95
4 254 418 416 553
4 431 121 147 372
4 414 80 137 309
4 102 103 428 317
4 545 533 556 567
4 217 475 474 539
4 195 223 11 90
4 276 279 107 286
4 185 134 133 325
4 115 282 395 170
4 217 502 475 539
4 99 297 301 287
4 134 184 318 185
4 254 416 252 550
4 123 125 121 374
4 114 150 466 332
4 124 377 376 122
4 189 541 192 568
4 353 449 444 551
4 120 115 431 147
4 108 496 106 277
4 93 130 8 419
4 358 160 139 458
4 119 113 271 270
4 355 212 500 566
4 474 523 206 539
4 99 102 141 287
4 124 381 377 122
4 155 291 292 338
4 534 560 540 562
4 360 130 419 201
4 533 545 544 568
4 429 299 100 343
4 206 523 508 539
4 62 9 414 201
4 80 154 138 408
4 275 113 109 114
4 274 109 108 107
4 530 532 529 539
4 419 130 8 201
4 79 132 522 172
4 187 119 434 468
4 389 428 104 103
4 143 100 346 301
4 70 409 463 560
4 548 560 534 562
4 117 344 345 159
4 258 260 259 544
4 104 428 424 102
4 174 89 119 266
4 136 135 368 366
4 414 80 415 201
4 373 172 125 372
4 212 491 73 566
4 326 101 143 301
4 121 375 123 374
4 1 192 189 541
4 272 113 109 275
4 468 187 119 163
4 380 111 151 386
4 395 170 369 148
4 1 66 67 199
4 132 522 172 442
4 432 378 123 374
4 496 517 286 104
4 322 320 302 564
4 223 414 137 309
4 29 30 445 89
4 540 555 533 559
4 328 360 415 130
4 217 402 502 539
4 370 172 373 372
4 101 327 103 317
4 429 118 100 346
4 456 163 177 457
4 116 271 269 119
4 456 466 150 332
4 129 420 447 84
4 185 134 325 503
4 518 352 399 557
4 121 379 431 120
4 100 118 343 117
4 370 188 172 148
4 124 176 126 383
4 214 507 87 167
4 163 468 187 457
4 150 114 163 332
4 112 389 105 103
4 401 400 502 402
4 106 496 517 394
4 455 511 348 545
4 191 190 28 544
4 111 385 379 120
4 468 434 187 457
4 135 369 148 368
4 118 143 100 346
4 324 333 25 467
4 105 151 111 386
4 475 523 474 539
4 368 370 188 442
4 370 188 148 368
4 116 110 271 113
4 212 72 500 566
4 90 223 11 137
4 417 312 166 323
4 300 445 30 89
4 326 327 101 317
4 137 90 223 253
4 465 409 211 548
4 498 371 431 115
4 10 9 62 492
4 275 272 113 468
4 453 282 271 116
4 10 11 223 137
4 433 460 296 549
4 451 387 380 151
4 541 533 555 559
4 193 18 40 202
4 115 390 521 120
4 137 80 138 309
4 121 431 375 372
4 309 80 408 415
4 253 137 396 309
4 177 423 335 456
4 282 395 498 115
4 369 371 395 148
4 431 498 115 120
4 286 107 496 104
4 132 522 204 79
4 120 390 521 108
4 197 10 492 83
4 294 26 312 313
4 445 268 29 89
4 274 109 107 276
4 318 134 185 503
4 102 424 152 281
4 268 29 265 445
4 324 139 26 323
4 302 320 303 556
4 185 140 300 306
4 456 177 304 457
4 505 204 522 79
4 119 271 269 270
4 499 165 215 481
4 100 429 346 301
4 448 340 446 547
4 163 456 332 457
4 25 192 1 541
4 270 113 271 272
4 155 292 335 156
4 108 274 496 277
4 115 282 170 110
4 458 160 155 338
4 9 62 61 201
4 153 155 138 338
4 434 119 270 468
4 312 289 27 294
4 379 121 111 120
4 494 412 411 546
4 165 215 171 499
4 177 86 304 457
4 120 111 385 106
4 433 296 249 549
4 276 109 107 146
4 26 27 312 166
4 150 177 335 456
4 412 200 411 546
4 287 101 102 317
4 161 187 434 435
4 424 102 287 281
4 410 195 12 179
4 534 560 548 561
4 160 138 155 338
4 215 19 41 193
4 534 550 542 565
4 335 423 177 156
4 529 483 51 403
4 197 11 10 83
4 120 431 121 147
4 177 150 163 456
4 370 147 371 148
4 25 410 179 359
4 373 132 172 442
4 359 90 358 253
4 287 141 285 281
4 213 6 84 421
4 458 155 292 338
4 195 12 65 410
4 174 184 453 116
4 415 80 154 130
4 140 30 300 310
4 134 318 184 525
4 159 345 117 129
4 195 223 90 253
4 125 147 121 372
4 96 314 97 95
4 154 97 153 407
4 152 142 141 281
4 190 192 543 568
4 434 262 161 435
4 123 376 124 432
4 223 11 64 195
4 144 101 143 326
4 83 134 135 367
4 248 426 250 565
4 156 155 292 458
4 136 492 10 83
4 86 177 187 457
4 359 25 410 467
4 7 60 59 213
4 307 96 98 94
4 339 561 487 564
4 480 344 462 181
4 190 192 27 543
4 71 211 409 548
4 187 177 163 457
4 119 113 270 468
4 512 11 197 133
4 214 507 480 87
4 10 9 492 136
4 87 480 462 181
4 159 87 507 167
4 149 280 142 146
4 148 369 370 368
4 189 191 31 545
4 119 113 468 163
4 466 149 150 114
4 5 4 58 488
4 359 324 25 467
4 108 521 115 110
4 439 461 315 558
4 83 134 367 365
4 186 388 112 499
4 126 131 175 393
4 262 260 28 261
4 505 62 9 492
4 104 286 107 152
4 175 123 126 432
4 454 238 337 557
4 367 368 135 366
4 462 343 118 181
4 129 159 345 128
4 184 395 170 525
4 528 176 88 504
4 268 445 300 89
4 414 10 63 223
4 367 135 83 366
4 93 130 360 95
4 191 545 189 568
4 335 150 155 156
4 4 5 92 488
4 115 498 390 120
4 389 112 497 103
4 282 453 395 170
4 172 147 370 148
4 68 69 196 555
4 174 318 184 185
4 408 396 138 309
4 287 301 101 317
4 126 123 124 432
4 533 555 546 567
4 534 542 564 565
4 174 293 318 185
4 68 413 411 567
4 395 371 498 115
4 341 487 339 561
4 28 29 191 544
4 361 93 94 84
4 122 127 451 151
4 432 126 378 393
4 166 156 417 323
4 257 302 267 556
4 382 136 188 368
4 306 140 300 310
4 63 11 10 197
4 448 446 251 547
4 507 214 422 167
4 57 58 4 488
4 111 380 385 386
4 196 244 222 555
4 139 166 26 323
4 396 160 137 253
4 139 90 358 359
4 170 453 395 184
4 123 375 376 374
4 9 8 130 201
4 332 466 114 278
4 343 344 117 181
4 185 300 293 306
4 416 441 252 550
4 25 139 324 359
4 212 354 491 566
4 422 345 159 128
4 292 417 335 156
4 159 507 422 167
4 272 270 113 468
4 173 88 176 504
4 123 175 378 432
4 323 156 417 458
4 92 183 4 488
4 12 64 11 195
4 385 390 379 120
4 185 133 140 325
4 111 122 380 151
4 212 73 72 566
4 103 112 497 144
4 102 428 424 317
4 436 310 30 348
4 10 11 63 223
4 89 161 119 266
4 191 30 31 545
4 471 362 228 552
4 129 345 420 128
4 10 63 62 414
4 426 473 255 565
4 151 387 386 388
4 174 453 269 116
4 180 140 325 347
4 85 204 7 132
4 135 136 83 366
4 521 282 115 110
4 6 7 59 213
4 124 381 157 383
4 369 135 170 525
4 187 161 86 435
4 304 27 289 264
4 417 312 423 166
4 310 31 30 348
4 1 410 210 66
4 195 11 12 90
4 109 274 275 276
4 138 160 396 338
4 335 177 150 156
4 8 9 61 201
4 325 134 133 365
4 407 291 153 338
4 156 292 417 458
4 186 388 151 112
4 175 125 373 391
4 264 304 86 435
4 145 165 482 81
4 125 132 172 373
4 117 118 343 181
4 370 371 147 372
4 412 320 339 564
4 382 188 79 442
4 293 453 269 174
4 124 127 381 122
4 498 431 390 120
4 492 63 10 197
4 431 375 379 121
4 104 424 152 102
4 512 12 11 133
4 89 30 300 140
4 369 170 135 148
4 415 154 408 328
4 90 160 358 253
4 345 422 420 128
4 54 217 474 530
4 281 142 283 280
4 6 128 84 421
4 304 86 27 264
4 74 404 194 563
4 184 170 453 116
4 378 175 126 432
4 378 126 175 393
4 187 86 457 435
4 457 434 187 435
4 139 25 179 359
4 272 109 274 275
4 147 115 371 148
4 432 376 124 383
4 88 169 209 477
4 407 97 406 314
4 170 395 369 525
4 12 65 64 195
4 27 192 26 543
4 30 445 300 436
4 146 280 279 278
4 103 102 101 317
4 134 318 525 503
4 306 318 185 503
4 419 60 7 213
4 85 6 216 131
4 328 316 360 95
4 423 312 289 166
4 219 92 168 478
4 172 79 188 442
4 423 335 417 156
4 458 396 160 338
4 382 136 368 366
4 455 348 437 545
4 146 279 276 278
4 322 340 339 564
4 138 160 137 396
4 306 185 140 325
4 75 74 198 563
4 145 165 481 482
4 98 117 308 129
4 489 387 495 158
4 134 325 503 365
4 325 306 185 503
4 188 382 368 442
4 169 176 88 528
4 307 314 298 96
4 388 112 499 497
4 444 449 443 551
4 135 184 170 525
4 204 7 485 85
4 70 560 526 561
4 108 273 521 110
4 424 286 104 152
4 392 175 131 393
4 204 8 132 79
4 519 4 183 488
4 332 114 275 278
4 91 167 422 490
4 373 125 132 391
4 1 65 12 410
4 289 288 27 294
4 284 466 280 149
4 493 429 118 343
4 365 367 83 366
4 390 521 498 115
4 479 495 82 158
4 497 327 103 144
4 300 89 140 185
4 526 560 200 561
4 378 175 123 374
4 26 25 139 324
4 178 144 143 326
4 204 505 8 79
4 135 134 184 525
4 79 522 382 442
4 131 216 85 392
4 186 495 387 158
4 61 8 60 204
4 186 489 388 499
4 274 108 273 277
4 86 304 457 435
4 122 376 124 123
4 299 308 307 98
4 422 159 167 91
4 447 361 316 94
4 368 135 369 367
4 118 162 143 346
4 133 11 197 83
4 432 123 376 374
4 60 8 7 204
4 410 12 1 179
4 162 81 178 351
4 71 526 356 561
4 495 479 489 158
4 282 273 271 110
4 143 346 326 301
4 202 165 18 81
4 371 431 147 372
4 423 177 304 456
4 107 496 274 276
4 262 28 161 435
4 264 86 28 435
4 453 271 269 116
4 87 462 164 181
4 7 6 84 213
4 286 428 424 104
4 145 171 499 165
4 316 307 447 94
4 160 90 137 253
4 392 378 175 393
4 537 557 554 563
4 105 517 389 394
4 536 554 557 563
4 112 145 497 144
4 6 216 485 85
4 60 8 61 419
4 169 88 168 477
4 133 180 140 325
4 295 450 244 559
4 7 8 60 419
4 133 512 12 180
4 419 8 61 201
4 150 335 466 456
4 62 63 10 492
4 344 308 343 117
4 221 228 362 552
4 312 27 289 166
4 59 58 5 421
4 384 176 528 504
4 89 300 293 185
4 512 476 12 180
4 156 166 139 323
4 266 161 119 434
4 167 214 422 490
4 399 352 336 557
4 358 160 396 253
4 58 4 5 220
4 482 497 145 144
4 145 186 112 499
4 62 9 61 505
4 125 175 132 391
4 213 59 6 421
4 344 343 462 181
4 388 151 387 186
4 179 195 90 359
4 156 417 423 166
4 311 440 416 553
4 151 387 380 386
4 476 12 65 512
4 253 223 137 309
4 83 136 492 366
4 497 482 327 144
4 332 468 163 457
4 216 5 92 131
4 126 169 131 393
4 118 164 462 181
4 8 7 93 419
4 444 443 245 551
4 266 119 270 434
4 164 524 462 87
4 59 5 58 216
4 493 118 429 346
4 501 178 81 351
4 318 395 184 525
4 314 316 328 95
4 161 29 28 262
4 197 133 83 365
4 175 125 123 374
4 90 139 179 359
4 132 85 204 391
4 373 378 175 391
4 93 361 360 419
4 179 410 195 359
4 414 80 309 415
4 31 30 140 310
4 310 30 300 436
4 162 118 493 346
4 359 195 90 253
4 209 486 88 528
4 140 310 325 347
4 526 70 200 560
4 59 5 6 421
4 408 138 396 338
4 410 1 65 66
4 127 495 387 186
4 63 11 64 223
4 390 431 379 120
4 4 58 57 220
4 212 355 452 566
4 407 408 154 328
4 59 60 7 485
4 231 233 240 554
4 318 395 453 184
4 91 5 220 421
4 158 215 489 499
4 496 106 277 394
4 128 91 422 421
4 525 135 134 367
4 130 360 415 201
4 27 288 289 264
4 108 390 521 277
4 131 92 488 520
4 143 178 326 351
4 372 125 373 374
4 176 124 157 383
4 216 485 85 392
4 70 69 200 560
4 75 404 74 563
4 176 384 173 504
4 220 422 91 421
4 0 4 183 519
4 308 345 447 129
4 169 168 92 478
4 87 14 214 167
4 6 5 59 216
4 215 489 479 171
4 5 91 128 421
4 64 11 63 197
4 262 161 266 434
4 276 107 496 286
4 158 171 215 499
4 50 514 529 403
4 112 145 499 497
4 277 106 385 394
4 116 269 174 119
4 410 1 25 179
4 178 145 482 81
4 387 451 127 151
4 512 197 349 133
4 379 380 385 111
4 349 180 325 347
4 369 370 371 148
4 493 205 162 484
4 4 182 220 516
4 389 105 394 386
4 439 241 243 558
4 387 489 186 158
4 334 450 295 559
4 131 92 520 478
4 86 161 28 435
4 127 506 495 82
4 85 485 204 391
4 381 384 157 383
4 178 482 145 144
4 91 5 4 220
4 88 169 486 209
4 90 160 139 358
4 486 169 88 528
4 423 177 156 166
4 204 8 7 132
4 216 92 5 488
4 530 55 217 402
4 155 156 160 458
4 442 373 132 391
4 145 165 499 481
4 181 344 117 159
4 489 186 158 499
4 519 57 4 488
4 428 389 497 103
4 185 293 318 306
4 182 4 0 516
4 310 140 31 347
4 358 324 139 359
4 64 11 197 512
4 532 483 51 529
4 480 14 214 87
4 59 7 6 485
4 492 197 83 366
4 28 261 264 435
4 301 326 101 317
4 524 164 15 87
4 420 361 84 213
4 4 182 91 220
4 11 64 12 512
4 474 532 54 530
4 124 376 381 383
4 311 416 418 553
4 370 373 172 442
4 92 131 169 478
4 55 530 531 402
4 521 282 498 115
4 488 216 92 131
4 118 164 493 462
4 336 337 238 557
4 270 269 119 266
4 479 495 203 82
4 430 231 240 554
4 65 1 12 476
4 179 195 12 90
4 70 463 69 560
4 178 482 501 81
4 203 495 506 82
4 501 482 178 144
4 219 183 24 168
4 205 164 36 524
4 8 61 9 505
4 520 92 488 478
4 310 306 140 325
4 196 222 68 555
4 188 136 382 79
4 393 169 131 478
4 426 255 250 565
4 169 486 209 477
4 187 119 161 434
4 349 512 133 180
4 462 524 480 87
4 157 127 381 124
4 180 133 349 325
4 348 310 31 347
4 532 52 483 206
4 164 205 493 462
4 505 9 8 79
4 1 12 476 180
4 12 64 65 512
4 133 197 349 365
4 209 23 88 477
4 517 428 286 104
4 303 267 302 556
4 152 424 279 281
4 286 424 279 152
4 134 83 133 365
4 91 422 159 128
4 144 178 501 326
4 329 305 330 562
4 86 28 27 264
4 214 34 14 480
4 411 413 494 567
4 78 531 3 514
4 127 381 506 157
4 209 88 46 504
4 482 202 501 81
4 82 495 127 158
4 4 0 57 519
4 112 388 389 497
4 345 420 447 129
4 354 212 452 566
4 103 327 428 317
4 108 521 273 277
4 81 162 510 351
4 24 48 219 168
4 46 23 88 209
4 132 522 442 391
4 268 300 293 89
4 131 488 216 520
4 206 532 53 474
4 343 118 493 462
4 6 5 216 131
4 162 493 484 346
4 483 51 52 532
4 392 85 175 391
4 57 0 4 516
4 23 168 88 477
4 282 521 273 110
4 7 6 485 85
4 202 18 39 81
4 494 455 321 567
4 186 127 495 158
4 439 315 241 558
4 261 28 262 435
4 85 175 131 392
4 420 129 128 84
4 164 15 36 524
4 209 47 23 477
4 510 501 81 351
4 145 171 158 499
4 88 173 22 504
4 176 169 486 528
4 202 501 81 510
4 451 495 387 127
4 344 507 345 159
4 171 489 479 158
4 346 162 143 351
4 485 60 7 204
4 514 531 50 529
4 169 126 486 393
4 478 168 219 477
4 82 506 515 157
4 365 83 197 366
4 216 59 6 485
4 19 215 171 165
4 54 53 532 474
4 526 200 487 561
4 387 489 388 186
4 66 1 65 476
4 524 35 480 87
4 139 324 358 323
4 349 476 512 180
4 358 396 160 458
4 82 127 506 157
4 140 180 31 347
4 144 501 327 326
4 176 157 384 383
4 15 35 524 87
4 482 501 327 144
4 173 157 384 176
4 219 92 183 168
4 305 464 330 562
4 43 44 21 203
4 503 525 134 367
4 432 486 126 393
4 182 13 167 490
4 392 131 216 520
4 23 46 47 209
4 18 39 40 202
4 171 215 489 158
4 171 479 82 158
4 220 91 422 490
4 178 143 162 351
4 422 345 507 159
4 173 45 22 504
4 479 203 43 82
4 497 327 428 103
4 44 21 203 515
4 17 162 484 510
4 13 33 167 490
4 88 22 46 504
4 42 19 41 215
4 91 182 167 490
4 220 5 58 421
4 131 520 393 478
4 497 145 499 482
4 85 132 175 391
4 205 164 524 462
4 92 219 488 478
4 39 202 81 510
4 480 35 14 87
4 182 91 220 490
4 18 17 39 81
4 128 6 5 421
4 287 102 424 317
4 481 499 145 482
4 36 16 164 205
4 485 85 392 391
4 216 5 58 488
4 528 176 384 383
4 451 381 506 127
4 515 82 157 173
4 215 479 42 171
4 505 522 382 79
4 128 422 420 421
4 8 61 505 204
4 173 384 45 504
4 515 384 45 173
4 293 174 89 185
4 145 158 186 499
4 506 495 451 127
4 513 56 531 402
4 336 352 337 557
4 57 0 2 519
4 33 214 167 490
4 220 57 4 516
4 384 515 506 157
4 20 42 479 171
4 199 31 1 476
4 182 0 32 516
4 136 382 492 366
4 17 39 81 510
4 176 169 126 486
4 56 55 531 402
4 322 339 320 564
4 520 392 131 393
4 16 17 162 484
4 2 0 57 516
4 175 378 392 391
4 367 134 503 365
4 490 220 182 516
4 35 15 14 87
4 525 369 135 367
4 41 40 481 193
4 50 3 531 514
4 46 23 22 88
4 48 219 168 477
4 326 346 143 351
4 346 484 162 351
4 384 515 157 173
4 34 35 14 480
4 183 49 0 519
4 17 81 162 510
4 381 384 506 157
4 205 37 16 484
4 326 178 501 351
4 506 515 203 82
4 478 169 168 477
4 151 127 387 186
4 479 43 20 82
4 215 42 19 171
4 88 209 528 504
4 14 33 214 167
4 1 66 199 476
4 48 24 23 168
4 168 23 48 477
4 14 33 34 214
4 49 0 24 183
4 32 13 0 182
4 413 455 494 567
4 515 45 21 173
4 16 36 37 205
4 349 476 180 347
4 490 182 32 516
4 476 31 1 180
4 15 36 16 164
4 21 43 203 82
4 486 169 478 477
4 20 479 82 171
4 347 476 31 511
4 182 32 13 490
4 16 37 38 484
4 484 38 17 510
4 513 531 3 78
4 486 176 528 383
4 183 92 219 488
4 180 476 31 347
4 183 24 49 219
4 393 486 169 478
4 49 2 0 519
4 17 16 38 484
4 325 133 349 365
4 33 14 13 167
4 529 51 50 403
4 476 199 31 511
4 341 356 487 561
4 0 2 32 516
4 49 183 219 519
4 515 21 203 82
4 23 47 48 477
4 190 189 192 568
4 31 348 347 511
4 519 183 219 488
4 21 44 45 515
4 204 522 132 391
4 510 162 484 351
4 43 21 20 82
4 42 20 19 171
4 20 42 43 479
4 356 526 487 561
4 191 189 190 568
4 217 54 55 530
4 22 21 45 173
4 82 515 21 173
4 48 49 24 219
4 46 22 45 504
4 33 13 32 490
4 532 53 52 206
4 165 18 19 193
4 15 35 36 524
4 531 3 56 513
4 39 17 38 510
4 548 552 470 535
4 470 552 548 362
4 539 363 364 527
4 539 364 363 538
4 454 557 551 536
4 551 337 454 444
4 551 454 337 557
4 557 551 353 337
4 557 353 551 536
4 554 558 472 536
4 472 558 554 240
4 440 559 438 334
4 438 559 440 553
4 559 438 469 543
4 559 469 438 334
4 559 469 333 543
4 559 333 469 450
4 555 290 560 196
4 555 560 290 540
4 556 437 331 545
4 556 331 437 303
4 567 437 556 545
4 567 556 437 321
4 562 463 409 560
4 562 409 463 464
4 565 252 254 250
4 565 254 252 550
4 386 112 389 105
4 389 112 386 388
4 395 148 115 170
4 115 148 395 371
4 139 458 156 323
4 156 458 139 160
4 89 266 29 161
4 29 266 89 268
4 79 492 9 136
4 79 9 492 505
4 29 266 262 161
4 262 266 29 265
4 89 269 293 268
4 89 293 269 174
4 126 383 486 432
4 486 383 126 176
4 181 159 507 344
4 507 159 181 87
4 507 480 181 344
4 181 480 507 87
4 451 122 381 127
4 381 122 451 377
4 174 318 453 184
4 174 453 318 293
4 84 421 420 213
4 420 421 84 128
4 304 27 166 289
4 304 166 27 86
4 373 175 374 125
4 373 374 175 378
4 205 162 16 164
4 16 162 205 484
4 164 493 162 118
4 162 493 164 205

CELL_TYPES 2854
1
1
1
1
3
3
3
3
3
3
3
3
3
3
3
3
3
3
3
3
3
3
3
3
3
3
3
3
3
3
3
3
3
3
3
3
3
3
3
3
3
3
3
3
3
3
3
3
3
3
3
3
3
3
3
3
3
3
3
3
3
3
3
3
3
3
3
3
3
3
3
3
3
3
3
3
3
3
3
3
3
3
3
3
3
5
5
5
5
5
5
5
5
5
5
5
5
5
5
5
5
5
5
5
5
5
5
5
5
5
5
5
5
5
5
5
5
5
5
5
5
5
5
5
5
5
5
5
5
5
5
5
5
5
5
5
5
5
5
5
5
5
5
5
5
5
5
5
5
5
5
5
5
5
5
5
5
5
5
5
5
5
5
5
5
5
5
5
5
5
5
5
5
5
5
5
5
5
5
5
5
5
5
5
5
5
5
5
5
5
5
5
5
5
5
5
5
5
5
5
5
5
5
5
5
5
5
5
5
5
5
5
5
5
5
5
5
5
5
5
5
5
5
5
5
5
5
5
5
5
5
5
5
5
5
5
5
5
5
5
5
5
5
5
5
5
5
5
5
5
5
5
5
5
5
5
5
5
5
5
5
5
5
5
5
5
5
5
5
5
5
5
5
5
5
5
5
5
5
5
5
5
5
5
5
5
5
5
5
5
5
5
5
5
5
5
5
5
5
5
5
5
5
5
5
5
5
5
5
5
5
5
5
5
5
5
5
5
5
5
5
5
5
5
5
5
5
5
5
5
5
5
5
5
5
5
5
5
5
5
5
5
5
5
5
5
5
5
5
5
5
5
5
5
5
5
5
5
5
5
5
5
5
5
5
5
5
5
5
5
5
5
5
5
5
5
5
5
5
5
5
5
5
5
5
5
5
5
5
5
5
5
5
5
5
5
5
5
5
5
5
5
5
5
5
5
5
5
5
5
5
5
5
5
5
5
5
5
5
5
5
5
5
5
5
5
5
5
5
5
5
5
5
5
5
5
5
5
5
5
5
5
5
5
5
5
5
5
5
5
5
5
5
5
5
5
5
5
5
5
5
5
5
5
5
5
5
5
5
5
5
5
5
5
5
5
5
5
5
5
5
5
5
5
5
5
5
5
5
5
5
5
5
5
5
5
5
5
5
5
5
5
5
5
5
5
5
5
5
5
5
5
5
5
5
5
5
5
5
5
5
5
5
5
5
5
5
5
5
5
5
5
5
5
5
5
5
5
5
5
5
5
5
5
5
5
5
5
5
5
5
5
5
5
5
5
5
5
5
5
5
5
5
5
5
5
5
5
5
5
5
5
5
5
5
5
5
5
5
5
5
5
5
5
5
5
5
5
5
5
5
5
5
5
5
5
5
5
5
5
5
5
5
5
5
5
5
5
5
5
5
5
5
5
5
5
5
5
5
5
5
5
5
5
5
5
5
5
5
5
5
5
5
5
5
5
5
5
5
5
5
5
5
5
5
5
5
5
5
5
5
5
5
5
5
5
5
5
5
5
5
5
5
5
5
5
5
5
5
5
5
5
5
5
5
5
5
5
5
5
5
5
5
5
5
5
5
5
5
5
5
5
5
5
5
5
5
5
5
5
5
5
5
5
5
5
5
5
5
5
5
5
5
5
5
5
5
5
5
5
5
5
5
5
5
5
5
5
5
5
5
5
5
5
5
5
5
5
5
5
5
5
5
5
5
5
5
5
5
5
5
5
5
5
5
5
5
5
5
5
5
5
5
5
5
5
5
5
5
5
5
5
5
5
5
5
5
5
5
5
5
5
5
5
5
5
5
5
5
5
5
5
5
5
5
5
5
5
5
5
5
5
5
5
5
5
5
5
5
5
5
5
5
5
5
5
5
5
5
5
5
5
5
5
5
5
5
5
5
5
5
5
5
5
5
5
5
5
5
5
5
5
5
5
5
5
5
5
5
5
5
5
5
5
5
5
5
5
5
5
5
5
5
5
5
5
5
5
5
5
5
5
5
5
5
5
5
5
5
5
5
5
5
5
5
5
5
5
5
5
5
5
5
5
5
5
5
5
5
5
5
5
5
5
5
5
5
5
5
5
5
5
5
5
5
5
5
5
5
5
5
5
5
5
5
5
5
5
5
5
5
5
5
5
5
5
5
5
5
5
5
5
5
5
5
5
5
5
5
5
5
5
5
5
5
5
5
5
5
5
5
5
5
5
5
5
5
5
5
5
5
5
5
5
5
5
5
5
5
5
5
5
5
5
5
5
5
5
5
5
5
5
5
5
5
5
5
5
5
5
5
5
5
5
5
5
5
5
5
5
5
5
5
5
5
5
5
5
5
5
5
5
5
5
5
5
5
5
5
5
5
5
5
5
5
5
5
5
5
5
5
5
5
5
5
5
5
5
5
5
5
5
5
5
5
5
5
5
5
5
5
5
5
5
5
5
5
5
5
5
5
5
5
5
5
5
5
5
5
5
5
5
5
5
5
5
5
5
5
5
5
5
5
5
5
5
5
5
5
5
5
5
5
5
5
5
5
5
5
5
5
5
5
5
5
5
5
5
5
5
5
5
5
5
5
5
5
5
5
5
5
5
5
5
5
5
5
5
5
5
5
5
5
5
5
5
5
10
10
10
10
10
10
10
10
10
10
10
10
10
10
10
10
10
10
10
10
10
10
10
10
10
10
10
10
10
10
10
10
10
10
10
10
10
10
10
10
10
10
10
10
10
10
10
10
10
10
10
10
10
10
10
10
10
10
10
10
10
10
10
10
10
10
10
10
10
10
10
10
10
10
10
10
10
10
10
10
10
10
10
10
10
10
10
10
10
10
10
10
10
10
10
10
10
10
10
10
10
10
10
10
10
10
10
10
10
10
10
10
10
10
10
10
10
10
10
10
10
10
10
10
10
10
10
10
10
10
10
10
10
10
10
10
10
10
10
10
10
10
10
10
10
10
10
10
10
10
10
10
10
10
10
10
10
10
10
10
10
10
10
10
10
10
10
10
10
10
10
10
10
10
10
10
10
10
10
10
10
10
10
10
10
10
10
10
10
10
10
10
10
10
10
10
10
10
10
10
10
10
10
10
10
10
10
10
10
10
10
10
10
10
10
10
10
10
10
10
10
10
10
10
10
10
10
10
10
10
10
10
10
10
10
10
10
10
10
10
10
10
10
10
10
10
10
10
10
10
10
10
10
10
10
10
10
10
10
10
10
10
10
10
10
10
10
10
10
10
10
10
10
10
10
10
10
10
10
10
10
10
10
10
10
10
10
10
10
10
10
10
10
10
10
10
10
10
10
10
10
10
10
10
10
10
10
10
10
10
10
10
10
10
10
10
10
10
10
10
10
10
10
10
10
10
10
10
10
10
10
10
10
10
10
10
10
10
10
10
10
10
10
10
10
10
10
10
10
10
10
10
10
10
10
10
10
10
10
10
10
10
10
10
10
10
10
10
10
10
10
10
10
10
10
10
10
10
10
10
10
10
10
10
10
10
10
10
10
10
10
10
10
10
10
10
10
10
10
10
10
10
10
10
10
10
10
10
10
10
10
10
10
10
10
10
10
10
10
10
10
10
10
10
10
10
10
10
10
10
10
10
10
10
10
10
10
10
10
10
10
10
10
10
10
10
10
10
10
10
10
10
10
10
10
10
10
10
10
10
10
10
10
10
10
10
10
10
10
10
10
10
10
10
10
10
10
10
10
10
10
10
10
10
10
10
10
10
10
10
10
10
10
10
10
10
10
10
10
10
10
10
10
10
10
10
10
10
10
10
10
10
10
10
10
10
10
10
10
10
10
10
10
10
10
10
10
10
10
10
10
10
10
10
10
10
10
10
10
10
10
10
10
10
10
10
10
10
10
10
10
10
10
10
10
10
10
10
10
10
10
10
10
10
10
10
10
10
10
10
10
10
10
10
10
10
10
10
10
10
10
10
10
10
10
10
10
10
10
10
10
10
10
10
10
10
10
10
10
10
10
10
10
10
10
10
10
10
10
10
10
10
10
10
10
10
10
10
10
10
10
10
10
10
10
10
10
10
10
10
10
10
10
10
10
10
10
10
10
10
10
10
10
10
10
10
10
10
10
10
10
10
10
10
10
10
10
10
10
10
10
10
10
10
10
10
10
10
10
10
10
10
10
10
10
10
10
10
10
10
10
10
10
10
10
10
10
10
10
10
10
10
10
10
10
10
10
10
10
10
10
10
10
10
10
10
10
10
10
10
10
10
10
10
10
10
10
10
10
10
10
10
10
10
10
10
10
10
10
10
10
10
10
10
10
10
10
10
10
10
10
10
10
10
10
10
10
10
10
10
10
10
10
10
10
10
10
10
10
10
10
10
10
10
10
10
10
10
10
10
10
10
10
10
10
10
10
10
10
10
10
10
10
10
10
10
10
10
10
10
10
10
10
10
10
10
10
10
10
10
10
10
10
10
10
10
10
10
10
10
10
10
10
10
10
10
10
10
10
10
10
10
10
10
10
10
10
10
10
10
10
10
10
10
10
10
10
10
10
10
10
10
10
10
10
10
10
10
10
10
10
10
10
10
10
10
10
10
10
10
10
10
10
10
10
10
10
10
10
10
10
10
10
10
10
10
10
10
10
10
10
10
10
10
10
10
10
10
10
10
10
10
10
10
10
10
10
10
10
10
10
10
10
10
10
10
10
10
10
10
10
10
10
10
10
10
10
10
10
10
10
10
10
10
10
10
10
10
10
10
10
10
10
10
10
10
10
10
10
10
10
10
10
10
10
10
10
10
10
10
10
10
10
10
10
10
10
10
10
10
10
10
10
10
10
10
10
10
10
10
10
10
10
10
10
10
10
10
10
10
10
10
10
10
10
10
10
10
10
10
10
10
10
10
10
10
10
10
10
10
10
10
10
10
10
10
10
10
10
10
10
10
10
10
10
10
10
10
10
10
10
10
10
10
10
10
10
10
10
10
10
10
10
10
10
10
10
10
10
10
10
10
10
10
10
10
10
10
10
10
10
10
10
10
10
10
10
10
10
10
10
10
10
10
10
10
10
10
10
10
10
10
10
10
10
10
10
10
10
10
10
10
10
10
10
10
10
10
10
10
10
10
10
10
10
10
10
10
10
10
10
10
10
10
10
10
10
10
10
10
10
10
10
10
10
10
10
10
10
10
10
10
10
10
10
10
10
10
10
10
10
10
10
10
10
10
10
10
10
10
10
10
10
10
10
10
10
10
10
10
10
10
10
10
10
10
10
10
10
10
10
10
10
10
10
10
10
10
10
10
10
10
10
10
10
10
10
10
10
10
10
10
10
10
10
10
10
10
10
10
10
10
10
10
10
10
10
10
10
10
10
10
10
10
10
10
10
10
10
10
10
10
10
10
10
10
10
10
10
10
10
10
10
10
10
10
10
10
10
10
10
10
10
10
10
10
10
10
10
10
10
10
10
10
10
10
10
10
10
10
10
10
10
10
10
10
10
10
10
10
10
10
10
10
10
10
10
10
10
10
10
10
10
10
10
10
10
10
10
10
10
10
10
10
10
10
10
10
10
10
10
10
10
10
10
10
10
10
10
10
10
10
10
10
10
10
10
10
10
10
10
10
10
10
10
10
10
10
10
10
10
10
10
10
10
10
10
10
10
10
10
10
10
10
10
10
10
10
10
10
10
10
10
10
10
10
10
10
10
10
10
10
10
10
10
10
10
10
10
10
10
10
10
10
10
10
10
10
10
10
10
10
10
10
10
10
10
10
10
10
10
10
10
10
10
10
10
10
10
10
10
10
10
10
10
10
10
10
10
10
10
10
10
10
10
10
10
10
10
10
10
10
10
10
10
10
10
10
10
10
10
10
10
10
10
10
10
10
10
10
10
10
10
10
10
10
10
10
10
10
10
10
10
10
10
10
10
10
10
10
10
10
10
10
10
10
10
10
10
10
10
10
10
10
10
10
10
10
10
10
10
10
10
10
10
10
10
10
10
10
10
10
10
10
10
10
10
10
10
10
10
10
10
10
10
10
10
10
10
10
10
10
10
10
10
10
10
10
10
10
10
10
10
10
10
10
10
10
10
10
10
10
10
10
10
10
10
10
10
10
10
10
10
10
10
10
10
10
10
10
10
10
10
10
10
10
10
10
10
10
10
10
10
10
10
10
10
10
10
10
10
10
10
10
10
10
10
10
10
10
10
10
10
10
10
10
10
10
10
10
10
10
10
10
10
10
10
10
10
10
10
10
10
10
10
10
10
10
10
10
10
10
10
10
10
10
10
10
10
10
10
10
10
10
10
10
10
10
10
10
10
10
10
10
10
10
10
10
10
10
10
10
10
10
10
10
10
10
10
10
10
10
10
10
10
10
10
10
10
10
10
10
10
10
10
10
10
10
10
10
10
10
10
10
10
10
10
10
10
10
10
10
10
10
10
10
10
10
10
10
10
10
10
10
10
10
10
10
10
10
10
10
10
10
10
10
10
10
10
10
10
10
10
10
10
10
10
