# vtk DataFile Version 2.0
whisker_body, Created by Gmsh 4.13.1 
ASCII
DATASET UNSTRUCTURED_GRID
POINTS 581 double
8.5 0 0
5.824141967962971 0 34
12 0 0
4.916846385784335 0 90
8.202682440884775 0 3.777777777777778
7.905364881769549 0 7.555555555555555
7.608047322654324 0 11.33333333333333
7.310729763539099 0 15.11111111111111
7.013412204423873 0 18.88888888888889
6.716094645308647 0 22.66666666666666
6.418777086193423 0 26.44444444444445
6.121459527078197 0 30.22222222222222
7.65823537717056 3.68801178249925 0
5.299663315799225 6.645567600978262 0
1.891427938628656 8.286887253545505 0
-1.89142793862869 8.286887253545498 0
-5.299663315799259 6.645567600978236 0
-7.658235377170581 3.688011782499204 0
-8.5 -5.935518276033327e-14 0
-7.658235377170531 -3.688011782499311 0
-5.299663315799171 -6.645567600978304 0
-1.891427938628608 -8.286887253545515 0
1.891427938628715 -8.28688725354549 0
5.299663315799263 -6.645567600978231 0
7.658235377170568 -3.688011782499232 0
4.711829829734397 3.423344756026293 34
1.79975884575292 5.53908817045926 34
-1.799758845752895 5.539088170459268 34
-4.711829829734381 3.423344756026313 34
-5.824141967962971 2.657763772795721e-14 34
-4.711829829734406 -3.423344756026279 34
-1.799758845752924 -5.539088170459258 34
1.799758845752893 -5.539088170459268 34
4.71182982973439 -3.423344756026301 34
11.34980690040761 3.896393630456207 0
9.469686112756717 7.370552552276022 0
6.563377897469113 10.04599773915035 0
2.945825845689581 11.63280319127197 0
-0.9909521456679979 11.95901391608004 0
-4.820345095835646 10.98927991986068 0
-8.127378859508902 8.82868692807757 0
-10.55368501447787 5.71136871644487 0
-11.83633564083267 1.975135083368787 0
-11.83633564083267 -1.975135083368821 0
-10.55368501447786 -5.711368716444897 0
-8.12737885950888 -8.828686928077589 0
-4.820345095835619 -10.9892799198607 0
-0.9909521456679715 -11.95901391608004 0
2.945825845689616 -11.63280319127196 0
6.563377897469155 -10.04599773915032 0
9.469686112756747 -7.370552552275983 0
11.34980690040762 -3.896393630456205 0
3.476735421440674 3.476735421440667 90
1.012690292828946e-14 4.916846385784335 90
-3.476735421440661 3.47673542144068 90
-4.916846385784335 1.588676900374471e-14 90
-3.476735421440683 -3.476735421440658 90
-1.400432058674011e-14 -4.916846385784335 90
3.476735421440664 -3.476735421440678 90
11.69203679938193 0 3.91304347826087
11.38407359876386 0 7.826086956521739
11.07611039814578 0 11.73913043478261
10.76814719752771 0 15.65217391304348
10.46018399690964 0 19.56521739130435
10.15222079629157 0 23.47826086956522
9.844257595673493 0 27.39130434782609
9.536294395055421 0 31.30434782608696
9.228331194437349 0 35.21739130434783
8.920367993819276 0 39.1304347826087
8.612404793201204 0 43.04347826086957
8.304441592583132 0 46.95652173913044
7.996478391965059 0 50.8695652173913
7.688515191346986 0 54.78260869565218
7.380551990728914 0 58.69565217391305
7.072588790110841 0 62.60869565217391
6.764625589492769 0 66.52173913043478
6.456662388874697 0 70.43478260869566
6.148699188256625 0 74.34782608695652
5.840735987638553 0 78.26086956521739
5.532772787020479 0 82.17391304347827
5.224809586402407 0 86.08695652173914
6.415063074553694 3.195078219278193 16.94120920251654
6.146689164640367 -3.673056466465608 17.01963186240534
-8.129723580593375 -1.392104257331103 3.201304438006193
-5.769058719331798 1.874480806635114 30.92757178232912
-3.576153658104376 7.42595958848411 3.275744402997524
5.75284141567377 3.178415925437597 24.49144558196926
5.548418509679875 -3.541572242120801 24.3657153337716
-0.04247884739501081 -8.23953950378116 3.30807307561553
7.066931567388019 3.208000323591799 9.390158011229635
-3.654555912440227 -4.840768830548856 30.93479353634641
7.26775131078927 -2.72847155636237 9.363984195262509
1.384054089366487e-14 6.06594731278979 30.92757178232912
3.322606474066069 7.553509287221818 3.151360245207143
3.443123752274208 -4.999702307113759 30.86851660626969
6.390243948795949 -5.204364228161466 3.285862483866463
7.096788222543023 4.052259229299507 4.164817858942857
6.088985607158637 3.182142797299936 20.70660238795385
4.142712154801242 5.685485768971585 18.61857489296129
4.54578520799386 5.744931080734627 14.91871446682769
1.416137786337287 7.060160862337712 16.5080803027831
0.1246277028356009 6.880725999695197 20.56048710380723
-2.22280771358009 6.735401584052346 17.8813386124541
-1.657897226047041 7.189337327889546 14.25609441019565
-4.743661902387823 5.511183634079678 15.60890759851622
-5.114895763587764 4.759663506823435 19.22595501039567
-4.364125549407465 6.171859330002508 11.95741409257687
-6.60294819585234 3.473448678900945 13.20408873609169
-6.467078761498518 4.267309419487542 9.553808641580316
-7.602265709001606 0.9202189284126103 10.7017082494824
-7.372481733141171 0.02134029656171115 14.32608550350428
-7.102484297752715 -2.641559338783806 11.71760659045071
-6.425055234029173 -3.457022230289188 15.29764228136926
-5.003821254526087 -5.598608073925289 12.59391457298168
-3.910313032006322 -6.082378503626447 16.1254782924114
-5.614897539604457 -4.206978721171964 18.8546601219505
-2.718005383253173 -6.401917997736122 19.63101112781055
-1.770483907159386 -7.239177895685867 13.30927751193557
-4.669586062671476 -4.858248666677683 22.38176104959326
-1.132859370448525 7.582239014336159 10.59186752017039
-5.979213033606967 -4.991075819099676 9.039572226880253
-1.444451649463389 -6.523699221434253 23.10371374159568
0.9041800802848801 -6.846126154436122 20.25907313588956
-6.563463886356047 -1.807237060611934 21.50235127350977
-5.964801182285639 -2.655262589023458 25.04253655347835
-6.552738913417766 0.8421744531119689 24.05746500783376
-7.735294861228708 1.809086998513936 7.064292865131578
2.20781003944775 -6.258414405638959 23.67892790504596
0.01867490483575226 -6.413941859069552 26.50553638697797
4.279406602535619 -5.372632832829214 20.72812687183439
3.390850947398745 -6.298072631870244 17.11687424796301
4.852231445148181 -5.591838602085848 13.9314982082305
-0.1282396564423405 -6.061868853135948 30.96215994882401
-6.251985345701618 5.049654524993358 5.888535893251452
3.698104836392162 -5.184693724967453 27.08403739926541
-6.313330079229686 -0.4382340229623232 27.59124902364581
-5.524970479092991 3.223688941665388 26.72526006838669
-3.482435067641607 5.103538744887668 29.49786614402
-1.043214739037523 6.263166296690034 27.32529482673503
2.48379998627054 5.765673242776577 28.23423298213244
1.367832298221189 6.412142080204368 24.69563389277666
-1.991492166650922 6.322499010799042 23.77676525123589
-5.772980969058995 -1.85911247911182 30.94025434243859
-4.788492243368782 4.653860825857741 23.15794076675763
5.426268873751035 3.155890958224769 28.24254040619892
-7.028672739539808 -0.9306845179416623 17.91546717822727
6.769429204847667 3.143418604413814 13.16792124466243
4.987298176663274 5.75458797568754 11.24482360584923
5.545742520192936 5.715827524719194 6.81000849924759
1.828167611255275 7.272976045489022 12.71605054326144
-6.702537435798789 2.560334727454098 16.83687502835428
-6.668011394688772 1.722940456238637 20.49498760213243
-3.996897291914769 6.748475024434541 8.34436858709608
-0.6718771081923458 7.984731554594101 6.188565623233047
-7.620273711132559 -1.907080625421182 8.191860152219808
-3.063655093449999 -7.091860609366218 9.843324649506958
0.5907639527310533 -7.656886982529034 10.42362093487771
-4.606910515622143 -6.550899605075092 6.243641653660227
-0.3066192783065246 -7.170531550030732 16.80923858046402
2.462562850925194 7.409523097823933 8.792380960177475
-7.959321522866135 2.078585515333212 3.478224857601444
-3.59275539448148 -5.372965051266335 25.87637022647611
-7.165931234330236 -3.673954951111476 5.681482949995975
-0.8796007083655741 -7.891872111824847 7.106079190961318
2.805854990460896 -7.401166913279867 7.430827023589719
3.571530990187753 -7.389470340192531 3.718848952274162
3.517057232740474 -6.799689426176634 10.73139602716448
2.231635749264437 -7.067342873268674 13.83310304181003
3.851180908401148 5.54434183765986 22.22755654809353
-3.466859263424773 -7.49977226305693 3.020191156423029
7.501386884977459 -2.881210781431385 5.899723080986964
3.545995888457528 4.903118948834039 31.11743107270933
0.05712897630125643 8.266927679836009 2.95895649197141
-5.056540563301547 -3.732942622462502 28.14198118048089
5.640656387255649 -5.559121789758365 7.374059211045124
6.931490317424766 -2.765087923289645 13.18067573083194
5.548968172239988 -2.929919028420012 28.27145913678374
6.300368965831839 -2.734629399423772 20.73335975754583
-6.288567468253359 5.391252129671456 2.754491896930027
-6.43106277717267 -5.215938423095174 2.790621746598635
-2.742626843143645 6.285584801187424 20.86505715313007
5.377994648695938 -2.755202221321194 31.22322769770949
-2.006831094380054 -5.929969181158311 28.45752916382343
3.957821538801856 5.127159760169412 25.70407392122395
5.426307934082371 2.649034896772584 31.27766815285197
-3.538960677101256 5.389747836818388 26.07616643290794
2.034723859846438 7.77050520503462 5.94031200178337
7.832473285070543 -2.699202614433792 2.737886306252713
7.521588067861671 2.655572074723756 6.650266237224336
1.605888633759191 -6.030329875207353 28.70975465099528
5.947585458931089 -4.729397731576358 11.4514886458005
-8.034355058013125 -0.5367908593187862 5.688985756349096
5.81226681825403 5.915612006135999 2.627838689328843
8.001434770320092 2.274787082905932 2.306044487580079
-3.528307452360559 4.810058932670597 32.20554775663216
0.1880977447303503 2.354726755943889 34
0.1962039992257007 -2.019710735726322 34
-2.60142435345587 1.083263501849447 34
2.921314040345894 0.04785943145965076 34
-2.600876329254993 -1.77012673634576 34
-7.909740641739153 6.21840875699997 0
-7.909740641739112 -6.218408757000027 0
4.175073749396644 9.15281394623652 0
4.175073749396687 -9.152813946236499 0
5.751328656082406 -3.262518266187241 68.45789618475105
8.77343330383488 3.327916774912209 33.24707803636798
7.45050675826989 3.307316944776842 48.89870345001709
9.052329963051344 -3.467270154498389 29.30509308100174
5.401223563635125 3.261625328055958 72.30302131965854
6.458624605888414 3.255496014924757 60.57416966424052
8.100693098951005 -3.361080937280646 41.03727894087915
7.070274854204965 -3.402215790328353 52.77822000341555
9.846289494351998 3.033015453519402 21.5644084853351
-11.09527489538307 3.809012682760124 3.419408766471423
-6.715361414580685 -9.614058385510042 3.466806459243234
10.06404844396924 -3.384190111689332 17.56243424032282
-3.214321444012538 11.28592505830874 3.370532379956011
-4.839645379371624 -1.785796695050788 86.92812652543348
5.03735348109609 -3.26080356130795 76.22900163682489
4.677600194425406 3.245052061619983 80.13796914691706
4.712243512000855 -10.74283313214681 3.41940876647142
6.404000402998572 -3.358152401692298 60.5949698772406
8.111539840237693 3.335203565040566 41.03541898028838
10.39648856856573 3.358132504818411 13.65428339069373
7.945113376504878 8.630693833987415 3.419408766471512
-11.10303057026784 -3.79342119457037 3.390367395104159
10.63403412832481 -3.613959590986652 9.766532099265325
-1.977922590895115 4.775127544263149 86.80166499961184
3.749531232284923 -3.861298389851503 84.08649270213076
10.31700692552853 -5.583284939902463 3.41940876647138
11.20274762464348 2.774275494978379 5.830233488282502
6.068907339767169 -3.318332645026073 64.58740323053345
7.77974593057135 3.330406456502844 44.9465869410723
9.097838897271011 3.34692504626865 29.30120027615035
4.625131639837782 -3.321225337541321 80.12449647206616
2.253310248605161 -5.415584515087911 77.94418485591646
2.71772129965684 -5.53801025161316 74.09090388948187
-0.8349045485511318 -5.987830734772293 75.65582555196372
3.550073886570858 -5.770999334907432 66.38351256603079
-1.313344169888686 -5.591658787360246 79.4922456446196
-4.051297475813936 -4.33709127077844 77.06404489806761
-3.696249258669128 -5.019909527910079 73.26500147993241
-5.794294836889274 -2.013220487707396 74.53360954531594
-5.747819871163787 -2.886681265372519 70.74840675841982
-5.733222436362451 -1.09801333094007 78.30300261349198
-5.803495783570755 1.702093829006252 75.62797901996596
-5.032529955406897 2.788119301070884 79.3723945193863
-3.616013320037435 4.758991971485305 76.53050438602797
-4.683088813066651 4.163380527396402 72.85504374141115
-1.71440100677273 5.450248474215083 79.87722583491789
-3.339094293223563 -5.61797261209514 69.43460460950905
-5.614372912076328 -3.713769070527645 66.9424776468672
-6.636912148597127 -0.14117233142647 68.12541702539372
-6.851670774610638 -1.078782944708643 64.3432415859732
5.667466398767786 6.08603962135642 46.80645145151245
-6.323093713156855 2.641222853393283 65.4044323358922
-6.930604387260248 1.749733632302266 61.64966906670647
-6.953035862164163 -1.99989028266966 60.54590517940047
-7.396032773828081 0.8612667869486228 57.86391535652926
-6.970339745774212 -2.862257430245079 56.73157792807644
-7.742814633735759 -0.08001006127580559 54.08741638122287
-6.900069579520711 -3.713275350431168 52.91149202865549
6.87980374990453 6.622646377330033 31.13775592605256
-7.977724930889719 -1.015632618867671 50.28970422923115
-6.738318669556782 -4.561419084029324 49.08351177887332
-8.113081181666248 -1.939790858569379 46.48241119771706
-6.800659070948787 3.530405980224578 55.11413814293375
-8.056472368476371 1.796110309539285 47.59417694987679
-8.507346865324886 0.8735075186763437 43.81005636731661
-8.162267180189909 -2.839743744068517 42.66553440296035
-8.850508963274869 -0.05845966267559983 40.0156247696049
-8.136775387007388 -3.71144342065971 38.83954541480938
-9.100893596221086 -0.9506213169314266 36.20751424432834
-6.306888388204514 -6.053605942910135 41.39650831069567
-6.00247883841335 -6.765964049157382 37.54964688685134
-8.635763600921203 2.757132355814562 37.28993084853203
-9.177006343078959 1.856324802772596 33.5078780335
-7.21802006987397 4.436918868152312 44.81903275773369
-7.611101442039617 5.318266483805248 34.49625208071195
-8.42442050596096 4.564385201121831 30.73039982446377
-9.611453151722825 0.9877202217044266 29.70619998576349
-9.145114205691213 3.734005346075986 26.96190672764869
-9.960691689037159 0.003574622694877442 25.91186076929243
-9.766901784994575 2.855168918520767 23.18024800085002
-10.21885321675081 -0.9264483969848695 22.09909499490508
-9.345753733682294 -3.702577281875382 24.74569071837439
-9.29642489133928 -4.560100717006786 20.90660941005054
-7.445698836998544 -6.902434840658334 23.46921809732968
-7.173903699546942 -7.607898906649108 19.60800018067869
-4.56053112239082 -9.192701630004558 22.08613052993281
-4.159814326028434 -9.713911068099673 18.20640749999396
-10.28889232011655 1.961784293611375 19.38649810718504
-8.853971570653382 5.446428907399032 20.39322915832774
-7.006969204817774 6.857007032147463 27.904285658793
-9.193935484204522 -5.389736701025981 17.06081895145316
-9.631911221548089 4.641686156028642 16.61965628608045
-7.321405638226738 7.691739124893552 17.54567118036522
-1.095650823863463 -10.32075228510505 20.59997917748922
-1.541856318829434 -9.953774246138295 24.49140742774443
-0.6488613771682018 -10.66552320054859 16.7055786010384
5.281371522908565 6.020814486572483 50.71124743067578
-8.308895631166456 7.077456063230962 13.79152546155489
-5.323280120913652 9.451488624154118 14.64408122430048
-4.060685117654968 9.74246457952715 18.36241921391884
-1.651400986657122 10.66184661077507 15.38746280114586
-4.828035437998467 -5.916166012489696 55.44783870839501
2.044100231799705 -9.989420090222804 22.91673232905124
-0.2622069687399801 10.49616452667732 19.06643349961177
-3.307581330254544 -8.20998195172829 40.00918516860625
-2.886948202233147 -8.688899325153017 36.1370670067535
-3.761168923583685 -10.2015867003525 14.32185958022829
-10.31555434078327 3.79022499601498 12.83536703550366
-0.1996082951129452 -10.99022788091842 12.8073409331373
2.229311952694885 10.50522019800013 16.02053514286515
1.606346959771314 -9.758203145444131 26.81601536799904
0.8497119458999512 10.99382214190821 12.36808825691764
-5.68432335681939 -7.421546819109259 33.69292326983074
2.559411286090349 7.771602307181732 48.50975487674034
3.180459013691219 7.865096986687685 44.67740155126965
-4.965681066845247 5.038310745197159 62.58978775044084
2.941244416444523 -10.40310838786985 15.1089339262518
0.2351990654265938 -8.966967495753931 38.49914544446661
-0.2169875400203778 -8.661447860732924 42.38579698433659
2.114933488788691 7.586451962866545 52.40375930254235
-1.025003647152761 7.992539699405144 50.08789114044457
3.56904919281308 9.824829618591245 19.65638922048361
1.132934653356092 10.14825585918768 22.7275944949203
5.273790359995054 8.701055993426786 23.1946835145981
2.506571935823962 9.602864226855102 26.37031707547204
-6.518340940348926 9.035496722091827 10.91058766872572
4.607334846822787 9.969118370164344 12.93113800856929
0.6711168994628151 -9.252072692433027 34.60685889664007
-3.88292448679299 5.560343748174233 66.30191198372451
-1.871227197231675 6.761897099994232 63.32728286324648
0.0220065128604024 6.73221832329738 66.93305547622435
-1.384379533973344 6.048573482691768 73.63274019164869
-6.675281537075684 6.021962132379878 38.24333607464346
-4.736928541493736 7.906908678536833 35.35819171521737
-3.517191530943558 8.20307939445061 39.06764831291228
-1.108160387090304 9.091715443688313 36.09830812759748
3.359063367678635 -10.59965516131776 11.19197503095676
0.2094383924126234 -11.29780030080743 8.897628931690248
6.20650541755443 -9.014183411300701 13.41480552238804
5.868472996227672 -8.868829748409045 17.34881343309996
3.308919754513426 10.77102126563096 9.303183035166233
6.847055141989905 6.202946314146502 35.08211589533592
-2.479922628719176 9.117221423987965 32.42015673723402
5.006289732697706 -8.679958576453327 25.15561115751894
4.585015009429661 -8.562571217308111 29.06064729234986
-2.999162609925648 6.653693617541195 59.73951607625191
3.736808880437977 -8.29529683617017 36.87194936086276
6.543849214633 -9.148683004464804 9.553451001692675
6.768818616085039 8.959262289991408 9.799400323523869
-7.683048078211475 -6.162987586699054 27.32534248693103
-2.010423238951967 -9.557722008385966 28.37454063902783
4.869395229854732 5.967572885668748 54.60950932038541
0.714827870708048 7.218328970051143 60.30825803602251
1.387480857145249 9.294023577906874 33.07400186444131
-1.364823799674682 9.879570146617315 25.75043100208465
-1.483119335253584 7.609755768509544 53.96405717367092
-2.938971707952532 -6.173395112129454 65.5986106619699
-6.328212781119829 5.179799524688726 48.56551025085827
-3.993267965671766 7.401909001140717 45.61048127023685
-0.2698238734397669 11.30845228468699 8.746050780597628
1.954641802973405 11.38840619598595 5.655143417503355
0.2893952818735452 8.866137283444431 39.75950579317555
7.555389553609124 6.327109171504115 27.25790563377245
6.847768668730841 7.882095656762029 19.80599978573111
-5.541762679645312 -0.1441054360207105 82.03588298000484
7.786678264746992 7.693893025432021 13.38454385797529
9.41039617705137 6.069635350109593 10.18990786220428
8.808940705700948 6.021196707085242 16.89725996300462
3.912059945865616 -5.904920860886151 62.47334619707951
4.335126726537793 -5.985316463869765 58.57110182918325
1.00500669596826 -7.187911873707151 60.25496605966829
1.46036036470099 -7.422746563133512 56.35151921815741
1.662836419074731 7.384738028487261 56.29311914561482
8.843885703634772 -6.681268039486156 11.63968544244336
9.154840268098761 -6.842174391495612 7.252791659212082
6.119202413671917 6.083021033504105 42.84134691314983
1.535109642270966 -5.354756746510245 81.69510085017832
-1.953860722473579 -5.098691288636047 83.09552515477752
5.039819681495067 3.257890743426709 76.22279286887505
2.28470135090424 5.401979773432058 77.9492939984825
1.905266028515946 5.878640105164509 73.95417423653693
3.001538667645421 5.75513309054751 70.00072301458556
4.748878644575878 -6.060269626308475 54.64599072357681
1.899993215536742 -7.640852324925484 52.43167275661357
4.320687198963485 3.217221342405531 84.02721451861876
2.106125754117735 5.143858109894458 81.84916693821681
1.60994041535109 4.932870336411617 86.54269886580029
7.501743445254538 -6.387525387332496 27.28342859985657
7.83938493391722 -6.460976401921312 23.39531782807214
1.649924346184633 -4.876687544765762 87.05991884641979
5.405261754120382 -3.238914735667596 72.4077987685083
5.700147967462671 3.358965616027625 68.40743996018745
10.30705967472988 -3.622405608242179 13.65819516018563
4.152526299083042 -8.437607346450541 32.98431008283771
6.759224819050935 -6.293843660812247 35.12277554122036
1.127372687450512 -9.514693994782411 30.73311982320068
6.106496054417921 3.263923034918866 64.49604227893074
3.679897486301208 5.700174116277776 66.26528711331287
8.54267672679147 -6.567577700053421 15.55933595907401
8.223338998073338 -6.472811219622359 19.50137477523838
7.112188280067173 -6.363813810805655 31.21082407652218
-2.463006165551013 -9.134083771520295 32.26953877191204
2.499160966001641 -10.20240890216185 19.00791559940734
-2.729323744544756 9.893576037964124 22.06889116768674
6.730466368809507 -3.397390515558454 56.67823430549775
6.802354484989245 3.250466119561212 56.68150668943525
8.44338852787504 3.335170595974714 37.12466883329389
7.420333811779025 -3.369978243180093 48.9223125446716
5.166322509590684 -6.119272670183901 50.7165670822467
5.664564398288387 -6.090465883290619 46.79040168533272
2.394526226014976 -7.822617740116146 48.52628254809157
-1.201869629994916 -7.96821783400046 50.08342661352798
8.398293021496595 -3.438152929389943 37.16803173530875
9.441193644968545 3.301159746903018 25.3909421730518
6.025236410727509 8.84224082359164 16.51884005761675
8.734404269146358 -3.436125792574682 33.21416646786427
9.371845135166303 -3.483840013826581 25.43234549632193
-6.580464659834553 -5.284856092903043 45.23512834926929
-7.487250695969646 2.694335383535401 51.36757919289973
-7.984614896866332 3.623563030959327 41.06177296430742
-7.978400613790604 6.191237907871814 24.156695635285
3.358221357100699 -8.123840058910821 40.77945274804836
2.946789033558709 -7.95312916380708 44.70679121092139
-6.293348828406503 0.776567104144398 71.9033957280745
5.456106775895041 -8.769786731533596 21.23820702727399
-3.341184171284198 -10.66348781904839 10.48667862142431
-6.537511946683297 -8.927962978080322 11.87263060896169
-3.174989752957706 -11.04136501155969 6.49553583433955
0.6024344238086012 -11.58743989143843 5.043223595873461
-6.877752827920248 -8.27533666660716 15.75151310674105
-9.034567329526478 -6.205589814354682 13.20798880803198
-8.844572500388789 -6.963728784614188 9.440748326599332
-10.56264700976524 -3.608020013174314 10.64946368603702
-0.01215916883969014 9.681479059690673 29.45950473480545
-0.8749338620648566 8.323968805617344 46.125750262742
-5.033141868592157 8.677502832410568 25.01179655777312
-3.794603474160219 8.968933036127339 28.73352084608906
-5.565123574408382 3.470340980517097 69.14086666959113
-4.538070651654097 -6.515386970763651 51.58658903161427
-10.72340020904888 1.043898816316215 15.57665079743321
-10.40908479054571 -1.804499552438815 18.24179880632815
-0.733888794820616 -8.328761670017922 46.23746665084052
-9.26598547848427 -1.860945215104897 32.38797942567883
-8.060609962475661 -4.533229788331619 34.96877980497996
-2.916264091447054 10.6872143673562 11.71565802019801
-5.473677597257538 6.758260332233966 41.9704788183403
-3.014295691984033 5.754219237274372 69.93592736064353
-4.960596349103177 6.161694804615323 51.96363955897985
-2.190128292525683 8.352461506366836 42.75854927479924
2.908701227969379 8.651453751095628 36.50070398648546
-5.180286857848589 -5.19142982765452 59.28822581883404
-0.2650462319878416 -6.344775080308733 71.78613461459763
6.352130191077047 -6.272812409100017 39.04160934918227
3.782271349247635 -10.78708520247764 7.23037364427269
3.780473688778486 8.866632814697072 30.00011540676755
3.174488351863717 -5.640873600558055 70.23003767861653
-5.945796449482661 7.414785078390921 31.71099903142023
6.301637597742067 6.346860353770315 38.83148517564043
6.011299840878484 -6.180103110313817 42.92854791667062
5.59522368141371 10.05450908582003 6.270435428017657
-5.323666182078565 -8.047226451299109 29.87487220574482
-7.884810575439118 -5.382113650119037 31.17352675029438
-9.336732588358059 -2.812037258870294 28.57617107379221
-5.971399679073397 4.302400486734657 58.95794314398658
-4.372019068600009 -3.57122746758982 80.7454648974323
-11.07172528789361 0.08791398587617334 11.79041368616234
-10.89659834702983 2.919134460063229 9.1378784341696
-9.156469504403093 6.45747313551243 10.10831158594543
-7.893015578447773 8.272081146426705 7.196898572529211
-10.50943419742859 -2.746912886298496 14.4534065513364
-4.231121585184012 10.58929431656061 7.581629071077532
-4.958839339463347 -8.634282349074187 25.95936949002287
7.118579986923725 3.295811263023795 52.80033197043024
4.106774528157629 5.787296716107326 62.30658659791344
-5.403989051571502 -4.499762343067054 63.1226771275302
-6.22678828849764 8.235627825321153 21.28730291124878
7.742074844424313 -3.39079429278963 45.08093427185425
-3.753266849568639 -7.679054253310197 43.87179162364546
-4.193995441843336 -7.102694356578426 47.6672403116334
9.707834193799421 -3.448979592611783 21.57124998111466
-6.214951321934 -9.516655295326469 8.052161026671637
-11.31537724033753 -1.000144085035114 8.138430378224909
4.357615711115295 5.968468714328154 58.57617683576657
7.78870685888679 6.516115734713829 23.4431392999954
-4.740541449263215 2.043938581824164 86.87989086518061
-4.06259539768217 3.594617729955063 83.54876179366674
0.08666458464047465 -6.649159878904092 67.98169406400606
7.983739988406651 -8.602990854984787 3.344770207887588
-9.473438909582596 -6.918938755324326 3.417212361117256
-11.73699778457161 0.02749104959222587 3.341350912823137
-6.416616474375022 9.821362658307825 3.409428593027147
-9.24506610509323 7.182379419428336 3.720762272459959
0.5461084021645527 -6.929652642842896 64.15187366962456
-2.497923658025684 -6.684642030003239 61.80158594813183
-1.971994668838013 -4.760816274436128 86.99848928032985
-4.287897139801764 6.253353416079641 56.13285627918917
-2.085972997038461 -7.140981347217122 57.94772467423079
-1.640090237795164 -7.57803258084157 53.95713477685771
-10.48777802716484 -4.584413196737535 7.039561403835725
8.268584951456406 7.93746445392021 6.838490576308564
11.06464513984306 -3.199763105019005 6.124097242999212
10.10267250685396 5.977212415449143 3.323388145676667
3.524197352238066 8.064033367937084 40.6536457938415
-2.887539075885403 -11.40263394254365 3.016893744587233
4.429864367798386 10.90117636151003 2.962135536119852
10.85107631115423 2.902041073257676 9.752779514148312
-10.0823082405852 5.453783588360494 6.825268249717762
4.306341261289861 8.335675419271473 33.26068919277913
10.17983830522417 3.00909750682238 17.59477147795525
-0.7369445365781552 5.351033112571589 83.84137399982812
6.651830791902565 -9.381339293569447 6.349577916469189
-4.352316181007913 -3.172831440088063 84.03822536285237
1.037519539286445 11.74181040635762 2.699312785191247
-11.4164570335549 1.572345015019566 6.045295553618368
1.327286534908556 6.8383343519568 63.96362722171089
-0.7876148426830242 5.9077981270195 76.74460695062356
-8.709368893277789 -7.496809037351698 6.460729162779683
-4.021018848085705 7.099592288853677 48.80178979027576
-1.386214035356467 7.376165624926773 57.11067950771825
5.134462858127221 8.497589762334355 26.32306059243652
-0.008480178490245608 6.443042450567876 70.60776942377765
4.274572284405392 2.866604329905416 87.07836182472789
4.111610429763454 -3.087479082249852 87.14198965197744
11.42395651398019 2.851827827667638 2.864788304020534
11.42505284540273 -2.848531659604395 2.861410277246407
0.814243920343479 8.599691887961496 42.71631150911563
-1.018905890348426 11.50120395358122 5.765455512362056
-5.312269994735659 0.05081533454212984 84.97257860979744
8.795904192469486 5.618874340314238 19.85449599496202
0.9923138320187632 -11.79079756937096 2.128537450766555
0.7532733393722124 -5.305562025717646 84.38483611849047
-11.42776653932258 -1.843389631486222 5.393930362757127
10.0928194427357 5.305459694093763 7.594241389536652
-1.321480237890019 -0.547375036942063 90
1.786180617774924 0.7398602367303259 90
-0.8950603523447432 2.217890441286633 90
0.9353821262484028 -2.201188615676793 90
-0.0112477550151322 -0.01041340547667557 42.59158168712392
0.03182107342098028 -0.001651210674936898 51.14223269735525
0.03024510834766225 -0.00748744180223504 58.98842441517947
-0.03418326578945674 -0.0527050452347062 65.76501179215477
-0.02010815241379582 -0.02395886503884359 72.07984429641718
0.005450604554285476 -0.04030322602793171 78.26934602608151
-2.596796844232555 -2.076141951140606 46.79076917723765
-0.01003105624708034 0.01433139017245288 84.02465331058076
-2.593457098117629 -3.049947806677884 39.12617213831347
3.447163386581418 -1.8098840263061 38.9633613950316
2.828948549267608 1.54914660553238 46.85111620208063
-3.353501910805168 2.111771012398759 39.19288627344524
1.776999627619522 3.374255263321827 38.94117626455266
-2.92226807866573 -0.5680226892560198 55.06431625070105
2.387385677896538 -1.778121605863491 55.06448262592543
-1.963784903822007 2.859556405284873 46.2048842603886
2.016620232684202 -3.089749231985835 45.7290499207494
0.5690013022963245 2.811682374321361 55.06753142303004
-2.827855415381902 -0.8972565330397888 62.34406476948254
2.721556031661676 1.147369176284887 62.41046878767199
0.8988913344488534 -4.395061628852736 41.5906524495096
4.312214765420416 1.375049505412701 42.56366632573079
-4.385605631597235 -0.553511089673655 43.03469779910247
1.019065672609315 4.226695873832313 43.25687091661744
1.554131719206095 3.919567978827287 50.21422869331825
1.016722660375605 -2.770022899167838 62.10908311291639
0.8066443196593236 -4.137863583832738 50.14195112339058
-3.83459483039948 -1.686338278953183 50.81682688251946
-2.615420201817169 -0.8381210275466069 68.9318378168629
3.979325068198739 -1.097194104241948 49.9820260175706
-1.069353112008729 2.900760586526948 61.8359530119077
-0.3516760172236243 2.656345613601704 68.91088476328353
2.626357216320069 -0.5598143936862514 68.91888753448538
0.3353097869325623 -3.909508976324394 57.99426473626615
-2.256359850572696 3.134593978473236 57.92245531948351
-3.323099550404537 2.554308781005052 50.27841902831621
0.4919874234144177 -5.092995331737813 37.71255450810961
-1.913674406682574 -1.593830128262789 75.17834325797401
-5.534794639232612 -0.8288288768780095 37.81296183430352
-0.8504164603044639 2.277075841440116 75.18417441121608

CELLS 2938 13434
1 0
1 1
1 2
1 3
2 0 4
2 4 5
2 5 6
2 6 7
2 7 8
2 8 9
2 9 10
2 10 11
2 11 1
2 0 12
2 12 13
2 13 14
2 14 15
2 15 16
2 16 17
2 17 18
2 18 19
2 19 20
2 20 21
2 21 22
2 22 23
2 23 24
2 24 0
2 1 25
2 25 26
2 26 27
2 27 28
2 28 29
2 29 30
2 30 31
2 31 32
2 32 33
2 33 1
2 2 34
2 34 35
2 35 36
2 36 37
2 37 38
2 38 39
2 39 40
2 40 41
2 41 42
2 42 43
2 43 44
2 44 45
2 45 46
2 46 47
2 47 48
2 48 49
2 49 50
2 50 51
2 51 2
2 3 52
2 52 53
2 53 54
2 54 55
2 55 56
2 56 57
2 57 58
2 58 3
2 2 59
2 59 60
2 60 61
2 61 62
2 62 63
2 63 64
2 64 65
2 65 66
2 66 67
2 67 68
2 68 69
2 69 70
2 70 71
2 71 72
2 72 73
2 73 74
2 74 75
2 75 76
2 76 77
2 77 78
2 78 79
2 79 80
2 80 3
3 4 187 0
3 0 193 4
3 12 193 0
3 0 187 24
3 1 181 11
3 11 184 1
3 1 184 25
3 33 181 1
3 5 170 4
3 4 188 5
3 96 188 4
3 4 193 96
3 170 187 4
3 5 89 6
3 6 91 5
3 5 188 89
3 91 170 5
3 6 146 7
3 7 175 6
3 89 146 6
3 6 175 91
3 7 81 8
3 8 82 7
3 7 146 81
3 82 175 7
3 8 97 9
3 9 177 8
3 81 97 8
3 8 177 82
3 9 86 10
3 10 87 9
3 9 97 86
3 87 177 9
3 10 144 11
3 11 176 10
3 86 144 10
3 10 176 87
3 144 184 11
3 11 181 176
3 13 192 12
3 12 192 96
3 96 193 12
3 14 93 13
3 93 192 13
3 15 172 14
3 14 172 93
3 16 85 15
3 85 172 15
3 17 178 16
3 16 178 85
3 18 160 17
3 160 178 17
3 19 83 18
3 83 160 18
3 20 179 19
3 19 179 83
3 21 169 20
3 169 179 20
3 22 88 21
3 88 169 21
3 23 165 22
3 22 165 88
3 24 95 23
3 95 165 23
3 24 187 95
3 25 171 26
3 25 184 171
3 26 92 27
3 26 171 92
3 27 194 28
3 92 194 27
3 28 84 29
3 28 194 84
3 29 142 30
3 84 142 29
3 30 90 31
3 30 142 90
3 31 132 32
3 90 132 31
3 32 94 33
3 32 132 94
3 94 181 33
3 81 98 97
3 81 99 98
3 81 146 99
3 129 130 82
3 82 177 129
3 130 131 82
3 131 175 82
3 83 191 160
3 83 179 162
3 162 191 83
3 84 136 135
3 135 142 84
3 84 137 136
3 84 194 137
3 133 152 85
3 85 178 133
3 152 153 85
3 153 172 85
3 97 168 86
3 86 183 144
3 168 183 86
3 127 129 87
3 87 134 127
3 129 177 87
3 87 176 134
3 88 164 163
3 163 169 88
3 88 165 164
3 89 147 146
3 89 148 147
3 89 188 148
3 90 182 132
3 142 173 90
3 173 182 90
3 91 174 170
3 91 190 174
3 175 190 91
3 92 138 137
3 137 194 92
3 92 139 138
3 92 171 139
3 93 186 148
3 148 192 93
3 172 186 93
3 132 189 94
3 134 176 94
3 94 189 134
3 176 181 94
3 95 174 165
3 170 174 95
3 95 187 170
3 148 188 96
3 96 192 148
3 98 168 97
3 99 100 98
3 100 101 98
3 101 168 98
3 99 149 100
3 146 147 99
3 147 149 99
3 100 102 101
3 100 103 102
3 100 149 103
3 102 180 101
3 101 141 140
3 140 168 101
3 101 180 141
3 103 104 102
3 104 105 102
3 105 180 102
3 103 106 104
3 103 119 106
3 103 149 119
3 104 150 105
3 106 107 104
3 107 150 104
3 105 151 143
3 143 180 105
3 150 151 105
3 106 108 107
3 106 152 108
3 119 152 106
3 108 109 107
3 109 110 107
3 110 150 107
3 108 126 109
3 108 133 126
3 108 152 133
3 109 111 110
3 109 154 111
3 126 154 109
3 111 112 110
3 112 145 110
3 145 150 110
3 111 113 112
3 111 120 113
3 111 154 120
3 113 114 112
3 114 115 112
3 115 145 112
3 113 117 114
3 113 155 117
3 120 155 113
3 114 116 115
3 114 158 116
3 117 158 114
3 116 118 115
3 118 123 115
3 123 145 115
3 116 121 118
3 116 122 121
3 116 158 122
3 155 156 117
3 156 167 117
3 117 167 158
3 121 161 118
3 118 124 123
3 118 161 124
3 149 159 119
3 119 153 152
3 119 159 153
3 154 162 120
3 120 157 155
3 120 162 157
3 122 127 121
3 127 128 121
3 128 161 121
3 122 129 127
3 122 130 129
3 122 158 130
3 124 125 123
3 125 151 123
3 123 151 145
3 124 135 125
3 124 173 135
3 161 173 124
3 135 136 125
3 136 143 125
3 143 151 125
3 133 160 126
3 126 191 154
3 160 191 126
3 127 134 128
3 134 189 128
3 128 182 161
3 128 189 182
3 130 167 131
3 158 167 130
3 131 167 166
3 166 190 131
3 131 190 175
3 182 189 132
3 133 178 160
3 135 173 142
3 137 185 136
3 136 185 143
3 138 185 137
3 139 140 138
3 140 141 138
3 141 185 138
3 139 183 140
3 139 171 144
3 144 183 139
3 140 183 168
3 141 180 143
3 143 185 141
3 171 184 144
3 145 151 150
3 148 159 147
3 147 159 149
3 148 186 159
3 159 186 153
3 153 186 172
3 154 191 162
3 155 163 156
3 157 163 155
3 163 164 156
3 164 166 156
3 166 167 156
3 162 179 157
3 157 169 163
3 157 179 169
3 161 182 173
3 165 174 164
3 164 174 166
3 174 190 166
3 25 198 1
3 1 198 33
3 26 195 25
3 195 198 25
3 27 195 26
3 28 197 27
3 27 197 195
3 29 197 28
3 30 199 29
3 29 199 197
3 31 199 30
3 32 196 31
3 196 199 31
3 33 196 32
3 33 198 196
3 195 197 196
3 196 198 195
3 197 199 196
3 2 0 34
3 51 0 2
3 34 0 12
3 24 0 51
3 35 12 13
3 34 12 35
3 14 202 13
3 36 35 13
3 13 202 36
3 15 38 14
3 38 37 14
3 37 202 14
3 16 39 15
3 39 38 15
3 17 200 16
3 40 39 16
3 16 200 40
3 17 18 42
3 41 17 42
3 41 200 17
3 18 19 43
3 42 18 43
3 20 201 19
3 43 19 44
3 19 201 44
3 46 20 21
3 45 20 46
3 45 201 20
3 22 47 21
3 21 47 46
3 23 203 22
3 22 48 47
3 22 203 48
3 24 50 23
3 23 50 49
3 49 203 23
3 24 51 50
3 36 202 37
3 40 200 41
3 44 201 45
3 48 203 49
3 34 527 2
3 2 528 51
3 2 527 59
3 59 528 2
3 3 525 52
3 58 526 3
3 80 525 3
3 3 526 80
3 35 505 34
3 505 527 34
3 36 224 35
3 224 505 35
3 37 508 36
3 36 508 224
3 38 516 37
3 37 516 508
3 39 216 38
3 216 516 38
3 40 494 39
3 39 494 216
3 41 495 40
3 40 495 494
3 42 213 41
3 213 495 41
3 43 493 42
3 42 493 213
3 44 225 43
3 225 493 43
3 45 492 44
3 44 492 225
3 46 214 45
3 214 492 45
3 47 507 46
3 46 507 214
3 48 533 47
3 47 533 507
3 49 220 48
3 220 533 48
3 50 491 49
3 49 491 220
3 51 229 50
3 229 491 50
3 51 528 229
3 52 390 53
3 52 525 390
3 53 227 54
3 53 390 227
3 54 488 55
3 227 488 54
3 55 217 56
3 55 488 217
3 56 498 57
3 217 498 56
3 57 393 58
3 57 498 393
3 393 526 58
3 59 230 60
3 60 504 59
3 59 527 230
3 504 528 59
3 61 226 60
3 60 509 61
3 226 504 60
3 230 509 60
3 61 223 62
3 62 396 61
3 61 509 223
3 61 396 226
3 63 215 62
3 62 512 63
3 215 396 62
3 223 512 62
3 63 212 64
3 64 483 63
3 63 512 212
3 63 483 215
3 64 417 65
3 65 420 64
3 212 417 64
3 420 483 64
3 66 207 65
3 65 233 66
3 207 420 65
3 65 417 233
3 66 205 67
3 67 419 66
3 66 233 205
3 66 419 207
3 67 410 68
3 68 416 67
3 205 410 67
3 416 419 67
3 69 210 68
3 68 222 69
3 210 416 68
3 68 410 222
3 69 232 70
3 70 480 69
3 69 480 210
3 222 232 69
3 70 206 71
3 71 411 70
3 70 232 206
3 411 480 70
3 72 211 71
3 71 476 72
3 206 476 71
3 211 411 71
3 73 408 72
3 72 409 73
3 72 408 211
3 72 476 409
3 73 209 74
3 74 221 73
3 73 409 209
3 221 408 73
3 75 231 74
3 74 400 75
3 209 400 74
3 74 231 221
3 76 204 75
3 75 395 76
3 204 231 75
3 75 400 395
3 76 208 77
3 77 394 76
3 76 394 204
3 76 395 208
3 78 218 77
3 77 382 78
3 208 382 77
3 218 394 77
3 78 219 79
3 79 234 78
3 78 234 218
3 78 382 219
3 80 228 79
3 79 388 80
3 219 388 79
3 228 234 79
3 80 526 228
3 388 525 80
3 204 238 231
3 204 459 238
3 394 459 204
3 233 262 205
3 262 345 205
3 345 410 205
3 232 254 206
3 254 300 206
3 300 476 206
3 207 404 391
3 391 420 207
3 207 419 404
3 208 384 382
3 208 385 384
3 208 395 385
3 209 477 400
3 409 486 209
3 209 486 477
3 210 456 416
3 210 462 456
3 210 480 462
3 211 408 386
3 386 412 211
3 211 412 411
3 212 487 417
3 212 532 487
3 512 532 212
3 493 517 213
3 213 510 495
3 213 517 510
3 431 484 214
3 214 507 431
3 484 520 214
3 214 520 492
3 215 402 396
3 215 403 402
3 215 483 403
3 216 494 474
3 474 530 216
3 216 530 516
3 488 531 217
3 217 515 498
3 217 531 515
3 234 235 218
3 235 236 218
3 236 394 218
3 382 383 219
3 383 389 219
3 219 389 388
3 220 457 432
3 432 533 220
3 220 514 457
3 491 514 220
3 231 372 221
3 372 373 221
3 373 408 221
3 222 379 232
3 222 461 379
3 410 461 222
3 223 370 369
3 369 371 223
3 223 509 370
3 371 512 223
3 463 503 224
3 224 508 463
3 503 505 224
3 492 502 225
3 225 535 493
3 502 535 225
3 377 378 226
3 226 396 377
3 378 504 226
3 390 513 227
3 227 489 488
3 227 513 489
3 228 380 234
3 228 534 380
3 228 526 393
3 393 534 228
3 378 491 229
3 229 504 378
3 229 528 504
3 230 527 505
3 505 536 230
3 230 536 509
3 238 372 231
3 232 379 254
3 233 366 262
3 233 417 366
3 234 380 235
3 235 237 236
3 235 239 237
3 235 380 239
3 237 455 236
3 236 459 394
3 455 459 236
3 239 240 237
3 240 241 237
3 241 455 237
3 238 496 372
3 459 490 238
3 490 496 238
3 239 468 240
3 380 381 239
3 381 468 239
3 240 242 241
3 240 244 242
3 240 468 244
3 242 243 241
3 243 250 241
3 250 455 241
3 242 427 243
3 244 245 242
3 245 427 242
3 243 251 250
3 243 252 251
3 243 427 252
3 244 246 245
3 244 368 246
3 244 468 368
3 246 247 245
3 247 248 245
3 248 427 245
3 246 249 247
3 246 489 249
3 368 489 246
3 247 335 248
3 249 519 247
3 247 519 335
3 335 450 248
3 248 441 427
3 248 450 441
3 249 389 383
3 383 519 249
3 249 513 389
3 489 513 249
3 251 360 250
3 360 490 250
3 250 490 455
3 252 253 251
3 253 478 251
3 251 478 360
3 252 255 253
3 252 441 255
3 427 441 252
3 255 256 253
3 256 257 253
3 257 478 253
3 254 317 300
3 254 318 317
3 254 379 318
3 255 319 256
3 255 332 319
3 255 441 332
3 256 258 257
3 256 467 258
3 319 467 256
3 258 259 257
3 259 454 257
3 454 478 257
3 258 260 259
3 258 266 260
3 258 467 266
3 260 261 259
3 261 305 259
3 305 454 259
3 260 263 261
3 260 422 263
3 266 422 260
3 263 264 261
3 264 442 261
3 261 442 305
3 262 511 345
3 366 458 262
3 458 511 262
3 263 265 264
3 263 267 265
3 263 422 267
3 265 421 264
3 421 482 264
3 264 482 442
3 267 268 265
3 268 269 265
3 269 421 265
3 266 451 422
3 266 499 451
3 467 499 266
3 267 277 268
3 267 361 277
3 267 422 361
3 268 270 269
3 268 423 270
3 277 423 268
3 270 271 269
3 271 273 269
3 273 421 269
3 270 272 271
3 270 275 272
3 270 423 275
3 272 447 271
3 271 274 273
3 271 447 274
3 275 276 272
3 276 446 272
3 446 447 272
3 274 308 273
3 308 481 273
3 273 481 421
3 274 309 308
3 274 316 309
3 274 447 316
3 275 278 276
3 275 336 278
3 275 423 336
3 278 279 276
3 279 280 276
3 280 446 276
3 361 362 277
3 362 449 277
3 277 449 423
3 278 460 279
3 336 337 278
3 337 460 278
3 279 281 280
3 279 293 281
3 279 460 293
3 281 282 280
3 282 466 280
3 280 466 446
3 281 283 282
3 281 424 283
3 293 424 281
3 283 284 282
3 284 285 282
3 285 466 282
3 283 291 284
3 283 292 291
3 283 424 292
3 284 286 285
3 284 444 286
3 291 444 284
3 286 287 285
3 287 353 285
3 353 466 285
3 286 288 287
3 286 294 288
3 286 444 294
3 288 289 287
3 289 475 287
3 287 475 353
3 288 290 289
3 288 433 290
3 294 433 288
3 290 297 289
3 297 298 289
3 298 475 289
3 290 299 297
3 290 310 299
3 290 433 310
3 292 295 291
3 295 443 291
3 443 444 291
3 292 296 295
3 292 479 296
3 424 479 292
3 293 439 424
3 293 440 439
3 293 460 440
3 294 434 433
3 294 473 434
3 444 473 294
3 296 301 295
3 301 311 295
3 311 443 295
3 296 302 301
3 296 303 302
3 296 479 303
3 297 306 298
3 299 406 297
3 297 406 306
3 306 314 298
3 314 354 298
3 354 475 298
3 310 312 299
3 312 320 299
3 320 406 299
3 317 323 300
3 323 355 300
3 355 476 300
3 302 329 301
3 301 471 311
3 329 471 301
3 303 304 302
3 304 448 302
3 302 448 329
3 303 307 304
3 303 407 307
3 303 479 407
3 307 313 304
3 313 315 304
3 315 448 304
3 442 501 305
3 305 500 454
3 305 501 500
3 306 347 314
3 306 428 347
3 406 428 306
3 307 325 313
3 307 326 325
3 307 407 326
3 309 321 308
3 321 322 308
3 322 481 308
3 316 405 309
3 309 331 321
3 309 405 331
3 310 429 312
3 310 430 429
3 310 433 430
3 311 469 443
3 311 470 469
3 311 471 470
3 312 340 320
3 312 341 340
3 312 429 341
3 313 330 315
3 325 418 313
3 313 418 330
3 347 348 314
3 348 399 314
3 314 399 354
3 330 344 315
3 344 363 315
3 363 448 315
3 316 464 405
3 447 465 316
3 316 465 464
3 318 438 317
3 317 324 323
3 317 438 324
3 379 506 318
3 318 529 438
3 506 529 318
3 332 333 319
3 333 349 319
3 349 467 319
3 340 342 320
3 342 343 320
3 343 406 320
3 321 425 322
3 331 350 321
3 350 425 321
3 425 426 322
3 426 445 322
3 445 481 322
3 324 359 323
3 323 376 355
3 359 376 323
3 324 451 359
3 438 521 324
3 324 521 451
3 326 327 325
3 327 367 325
3 367 418 325
3 326 328 327
3 326 358 328
3 326 407 358
3 328 523 327
3 327 487 367
3 327 523 487
3 358 437 328
3 437 458 328
3 458 523 328
3 448 474 329
3 329 472 471
3 329 474 472
3 330 352 344
3 330 369 352
3 330 418 369
3 331 397 350
3 331 399 397
3 331 405 399
3 332 334 333
3 332 450 334
3 441 450 332
3 334 518 333
3 333 356 349
3 333 518 356
3 385 401 334
3 334 524 385
3 401 518 334
3 450 524 334
3 335 519 384
3 384 524 335
3 335 524 450
3 336 338 337
3 336 449 338
3 423 449 336
3 338 339 337
3 339 346 337
3 346 460 337
3 338 365 339
3 338 452 365
3 449 452 338
3 339 357 346
3 339 453 357
3 365 453 339
3 341 457 340
3 340 351 342
3 340 457 351
3 429 431 341
3 431 432 341
3 432 457 341
3 342 402 343
3 351 377 342
3 377 402 342
3 402 403 343
3 403 428 343
3 343 428 406
3 352 463 344
3 344 364 363
3 344 463 364
3 345 461 410
3 453 461 345
3 345 511 453
3 357 437 346
3 437 440 346
3 440 460 346
3 347 391 348
3 347 392 391
3 347 428 392
3 391 404 348
3 397 399 348
3 348 404 397
3 356 522 349
3 349 499 467
3 349 522 499
3 397 398 350
3 398 456 350
3 350 456 425
3 351 378 377
3 351 514 378
3 457 514 351
3 369 370 352
3 370 503 352
3 352 503 463
3 464 465 353
3 353 475 464
3 465 466 353
3 399 405 354
3 405 464 354
3 464 475 354
3 376 486 355
3 409 476 355
3 355 486 409
3 356 486 376
3 376 522 356
3 477 486 356
3 356 518 477
3 357 458 437
3 453 511 357
3 357 511 458
3 407 439 358
3 358 440 437
3 439 440 358
3 359 522 376
3 451 499 359
3 499 522 359
3 478 497 360
3 360 496 490
3 360 497 496
3 361 521 362
3 422 451 361
3 451 521 361
3 438 452 362
3 362 521 438
3 362 452 449
3 364 530 363
3 363 474 448
3 363 530 474
3 463 508 364
3 508 516 364
3 516 530 364
3 452 529 365
3 365 506 453
3 365 529 506
3 417 487 366
3 366 523 458
3 487 523 366
3 371 418 367
3 367 532 371
3 487 532 367
3 468 515 368
3 368 531 489
3 515 531 368
3 369 418 371
3 370 536 503
3 509 536 370
3 371 532 512
3 372 374 373
3 372 496 374
3 374 375 373
3 375 386 373
3 386 408 373
3 374 500 375
3 496 497 374
3 497 500 374
3 375 387 386
3 375 501 387
3 500 501 375
3 396 402 377
3 378 514 491
3 461 506 379
3 380 534 381
3 381 515 468
3 498 515 381
3 381 534 498
3 382 384 383
3 384 519 383
3 385 524 384
3 395 401 385
3 387 412 386
3 387 414 412
3 387 415 414
3 387 501 415
3 389 390 388
3 390 525 388
3 389 513 390
3 392 420 391
3 392 428 403
3 403 483 392
3 392 483 420
3 498 534 393
3 400 401 395
3 397 404 398
3 404 419 398
3 398 419 416
3 416 456 398
3 400 477 401
3 477 518 401
3 407 479 439
3 412 413 411
3 413 480 411
3 412 414 413
3 414 426 413
3 426 462 413
3 462 480 413
3 415 445 414
3 414 445 426
3 442 482 415
3 415 501 442
3 415 482 445
3 481 482 421
3 439 479 424
3 425 462 426
3 456 462 425
3 430 484 429
3 429 484 431
3 433 434 430
3 434 435 430
3 435 484 430
3 431 507 432
3 507 533 432
3 434 436 435
3 434 473 436
3 436 502 435
3 435 520 484
3 502 520 435
3 436 473 469
3 469 485 436
3 485 502 436
3 438 529 452
3 443 473 444
3 469 473 443
3 445 482 481
3 446 465 447
3 446 466 465
3 453 506 461
3 454 497 478
3 454 500 497
3 455 490 459
3 470 485 469
3 471 510 470
3 470 517 485
3 510 517 470
3 472 510 471
3 474 494 472
3 494 495 472
3 495 510 472
3 485 535 502
3 517 535 485
3 489 531 488
3 492 520 502
3 493 535 517
3 503 536 505
3 52 538 3
3 3 540 58
3 538 540 3
3 53 539 52
3 52 539 538
3 54 539 53
3 55 539 54
3 56 537 55
3 537 539 55
3 57 540 56
3 56 540 537
3 58 540 57
3 538 539 537
3 537 540 538
4 77 545 218 546
4 409 73 209 543
4 409 73 543 555
4 554 555 501 567
4 481 547 561 563
4 476 555 558 570
4 73 209 543 560
4 409 209 486 543
4 77 545 546 580
4 409 555 543 558
4 481 561 549 563
4 210 550 462 562
4 558 565 476 570
4 549 550 196 553
4 410 550 68 562
4 338 452 552 564
4 221 543 73 555
4 409 543 486 558
4 480 462 557 562
4 218 546 545 578
4 257 454 554 559
4 501 555 554 574
4 549 196 552 553
4 501 554 567 568
4 543 554 454 559
4 480 210 462 562
4 486 543 209 560
4 410 1 550 553
4 541 550 549 553
4 236 218 545 578
4 258 257 554 559
4 543 555 221 574
4 73 543 221 560
4 541 549 552 553
4 410 68 222 562
4 258 559 554 575
4 410 553 550 562
4 338 365 452 564
4 449 552 556 563
4 338 552 553 564
4 449 556 552 564
4 273 481 549 563
4 481 547 445 561
4 454 554 543 574
4 455 490 569 573
4 476 72 409 555
4 476 555 409 558
4 554 559 543 575
4 486 543 571 575
4 257 454 259 554
4 547 557 445 561
4 455 569 545 573
4 501 305 554 568
4 338 553 365 564
4 1 68 410 550
4 455 459 490 573
4 221 566 543 574
4 401 544 518 560
4 222 553 410 562
4 486 558 543 575
4 486 543 560 571
4 454 543 559 574
4 449 552 452 564
4 72 555 476 570
4 218 77 394 545
4 221 560 543 566
4 218 394 236 545
4 496 360 490 544
4 542 565 558 570
4 381 239 468 546
4 496 490 238 544
4 501 442 305 568
4 381 380 239 546
4 449 556 277 563
4 198 550 1 553
4 518 560 544 571
4 221 73 408 555
4 421 547 481 563
4 468 381 546 548
4 542 558 555 570
4 400 544 401 560
4 486 571 356 575
4 236 235 218 578
4 501 554 305 574
4 410 25 1 553
4 77 218 78 546
4 381 380 546 548
4 77 546 382 580
4 544 560 400 573
4 490 544 360 569
4 195 552 196 553
4 554 558 266 575
4 544 569 490 573
4 449 338 452 552
4 273 421 481 563
4 27 338 552 553
4 496 544 238 566
4 235 546 218 578
4 360 544 496 566
4 255 253 559 569
4 238 544 490 573
4 255 569 544 572
4 542 555 554 567
4 455 545 459 573
4 251 544 360 559
4 373 221 555 574
4 75 400 560 573
4 255 559 544 569
4 196 550 198 553
4 266 558 554 576
4 332 544 255 571
4 339 365 338 553
4 401 572 544 573
4 231 544 238 573
4 387 501 555 567
4 238 544 231 566
4 499 266 558 575
4 501 567 442 568
4 27 339 338 553
4 255 544 332 572
4 197 549 196 552
4 373 221 408 555
4 332 544 571 572
4 258 257 259 554
4 380 234 546 548
4 387 501 375 555
4 544 559 255 571
4 360 544 251 569
4 499 558 266 576
4 267 556 547 563
4 541 552 556 564
4 441 569 255 572
4 455 490 250 569
4 246 368 546 548
4 256 559 258 575
4 547 541 561 563
4 542 567 554 568
4 375 555 501 574
4 476 558 355 565
4 360 559 544 566
4 395 572 401 573
4 468 546 368 548
4 551 557 70 570
4 541 556 552 563
4 332 571 334 572
4 476 409 355 558
4 231 544 560 566
4 25 198 1 553
4 454 305 554 574
4 395 400 75 573
4 241 545 455 569
4 195 197 196 552
4 556 564 317 565
4 70 557 480 570
4 253 255 252 569
4 459 236 394 545
4 459 455 236 545
4 267 547 265 563
4 441 255 332 572
4 77 78 382 546
4 248 545 569 572
4 486 356 558 575
4 551 317 564 565
4 248 545 427 569
4 27 336 28 552
4 253 251 559 569
4 267 265 547 568
4 219 546 79 548
4 77 394 545 573
4 544 559 251 569
4 267 263 265 568
4 486 560 477 571
4 197 199 196 549
4 27 338 337 336
4 338 336 27 552
4 454 559 497 574
4 195 196 198 553
4 481 308 549 561
4 236 545 455 578
4 250 241 455 569
4 551 564 556 565
4 250 490 360 569
4 476 565 206 570
4 547 556 267 576
4 409 72 73 555
4 389 546 219 548
4 547 267 568 576
4 459 545 394 573
4 248 569 441 572
4 79 546 234 548
4 337 28 27 336
4 438 317 556 564
4 445 557 547 567
4 482 442 567 568
4 482 567 547 568
4 482 445 547 567
4 248 427 545 580
4 411 70 480 570
4 339 27 26 553
4 427 578 545 580
4 411 480 557 570
4 451 558 499 576
4 557 561 541 562
4 256 257 258 559
4 427 243 569 578
4 248 427 441 569
4 486 477 356 571
4 335 572 524 580
4 236 237 235 578
4 217 488 537 548
4 196 550 549 577
4 445 481 482 547
4 248 545 572 580
4 547 551 542 557
4 77 76 394 573
4 427 569 545 578
4 412 567 555 570
4 376 558 356 575
4 211 412 555 570
4 550 541 561 562
4 246 489 368 548
4 376 486 356 558
4 273 481 308 549
4 386 555 412 567
4 559 566 497 574
4 248 572 335 580
4 68 1 416 550
4 386 211 412 555
4 454 305 259 554
4 221 373 566 574
4 459 238 490 573
4 242 243 427 578
4 498 217 537 548
4 359 565 558 576
4 415 482 442 567
4 480 69 210 562
4 549 561 541 563
4 438 556 317 565
4 277 556 267 563
4 77 545 208 573
4 322 481 445 561
4 245 578 427 580
4 254 562 551 564
4 251 360 478 559
4 243 241 569 578
4 542 551 547 556
4 269 563 549 579
4 269 549 271 579
4 497 559 360 566
4 241 455 545 578
4 545 569 241 578
4 379 562 254 564
4 541 551 547 557
4 249 546 389 548
4 77 208 76 573
4 239 235 237 578
4 300 206 476 565
4 539 537 488 548
4 273 271 269 549
4 332 333 334 571
4 537 538 540 548
4 482 415 445 567
4 33 456 550 577
4 545 578 546 580
4 540 538 526 548
4 547 541 557 561
4 451 359 499 558
4 80 526 538 548
4 538 537 539 548
4 451 499 266 576
4 199 549 197 579
4 248 245 427 580
4 545 572 208 573
4 273 549 269 563
4 72 476 71 570
4 547 551 541 556
4 256 571 559 575
4 462 550 456 561
4 453 339 26 553
4 239 546 235 578
4 231 238 204 573
4 33 350 456 577
4 546 578 245 580
4 237 236 455 578
4 70 69 480 562
4 456 561 550 577
4 456 425 561 577
4 368 468 244 546
4 524 572 384 580
4 206 565 551 570
4 385 545 384 572
4 384 572 545 580
4 245 546 244 578
4 319 332 255 571
4 538 390 525 548
4 274 31 30 549
4 235 239 380 546
4 380 228 234 548
4 222 461 410 553
4 305 261 554 568
4 359 558 451 576
4 540 498 537 548
4 68 550 210 562
4 549 552 197 579
4 219 79 388 548
4 319 255 559 571
4 387 375 386 555
4 235 380 234 546
4 208 545 385 572
4 538 525 80 548
4 454 500 305 574
4 333 518 334 571
4 72 211 555 570
4 268 277 267 563
4 239 240 468 546
4 274 309 31 549
4 387 555 386 567
4 219 388 389 548
4 547 557 542 567
4 275 28 336 552
4 497 478 360 559
4 445 557 426 561
4 28 552 275 579
4 300 476 355 565
4 335 524 384 580
4 256 258 467 575
4 319 255 256 559
4 468 515 381 548
4 254 232 551 562
4 554 568 260 576
4 231 560 221 566
4 549 550 541 561
4 542 557 551 570
4 78 79 219 546
4 31 549 309 577
4 412 413 567 570
4 73 221 74 560
4 218 235 234 546
4 246 546 245 580
4 208 384 545 580
4 253 252 251 569
4 305 442 261 568
4 540 393 498 548
4 557 567 413 570
4 538 539 390 548
4 254 379 232 562
4 227 539 488 548
4 218 234 78 546
4 500 501 305 574
4 30 274 549 579
4 308 309 549 577
4 268 267 265 563
4 481 322 308 561
4 246 244 245 546
4 240 244 468 546
4 468 368 515 548
4 462 456 425 561
4 421 482 481 547
4 249 389 513 548
4 78 234 79 546
4 231 74 221 560
4 274 308 309 549
4 69 68 210 562
4 28 275 29 579
4 355 409 486 558
4 408 73 72 555
4 462 210 456 550
4 522 376 356 575
4 441 252 255 569
4 250 360 251 569
4 385 208 384 545
4 249 513 489 548
4 365 529 452 564
4 453 365 339 553
4 368 244 246 546
4 195 27 552 553
4 542 567 557 570
4 263 568 267 576
4 497 360 496 566
4 71 476 206 570
4 477 401 518 560
4 254 206 300 565
4 248 450 335 572
4 264 482 547 568
4 319 559 256 571
4 208 572 385 573
4 553 562 379 564
4 232 70 551 562
4 526 393 540 548
4 1 67 68 416
4 322 445 426 561
4 273 269 421 563
4 33 32 350 577
4 254 551 206 565
4 414 557 445 567
4 239 240 546 578
4 264 442 482 568
4 317 551 254 565
4 30 271 274 579
4 438 318 317 564
4 411 480 413 557
4 25 461 26 553
4 447 274 30 271
4 271 30 447 579
4 1 67 410 68
4 534 498 393 548
4 387 386 412 567
4 75 74 231 560
4 541 553 552 564
4 324 565 359 576
4 228 79 234 548
4 240 244 546 578
4 449 362 277 556
4 422 260 568 576
4 264 547 265 568
4 438 324 556 565
4 554 558 542 576
4 382 78 219 546
4 217 531 488 548
4 231 204 75 573
4 350 33 456 398
4 506 553 379 564
4 250 243 241 569
4 410 461 25 553
4 395 385 572 573
4 411 557 413 570
4 355 558 323 565
4 442 501 415 567
4 454 478 497 559
4 381 534 380 548
4 486 209 477 560
4 524 385 384 572
4 323 558 359 565
4 449 336 338 552
4 453 26 461 553
4 265 547 421 563
4 383 219 389 546
4 549 561 308 577
4 208 382 384 580
4 551 556 542 565
4 383 546 519 580
4 379 553 461 562
4 550 561 549 577
4 70 206 551 570
4 412 411 413 570
4 245 242 427 578
4 522 558 376 575
4 28 197 27 552
4 242 241 243 578
4 426 557 462 561
4 248 441 450 572
4 270 563 269 579
4 350 425 456 577
4 33 456 416 550
4 556 565 324 576
4 222 379 461 562
4 321 308 561 577
4 263 264 265 568
4 543 566 559 574
4 318 379 254 564
4 253 251 478 559
4 222 461 553 562
4 31 199 30 549
4 542 556 547 576
4 518 477 560 571
4 72 71 211 570
4 268 423 277 563
4 395 208 385 573
4 227 390 539 548
4 382 546 383 580
4 414 413 557 567
4 322 321 308 561
4 33 416 1 550
4 498 534 381 548
4 541 552 549 563
4 241 237 455 578
4 382 219 383 546
4 395 385 401 572
4 497 500 454 574
4 551 557 541 562
4 238 231 372 566
4 498 515 217 548
4 414 412 413 567
4 266 258 554 575
4 558 565 542 576
4 199 549 31 577
4 267 556 361 576
4 275 423 270 579
4 438 362 452 564
4 275 552 423 579
4 271 549 274 579
4 519 546 249 580
4 206 232 70 551
4 239 237 240 578
4 550 553 541 562
4 521 556 324 576
4 372 221 373 566
4 73 74 209 560
4 543 555 554 558
4 204 238 459 573
4 498 381 515 548
4 414 426 445 557
4 277 361 267 556
4 268 270 423 563
4 68 416 210 550
4 480 462 413 557
4 246 245 247 580
4 232 69 70 562
4 386 373 555 574
4 261 259 305 554
4 26 25 345 461
4 438 317 324 565
4 554 555 543 574
4 383 389 249 546
4 438 556 362 564
4 195 26 27 553
4 499 558 522 575
4 554 555 542 558
4 477 400 401 560
4 386 555 375 574
4 372 231 221 566
4 559 571 543 575
4 519 383 249 546
4 506 529 365 564
4 197 28 29 579
4 506 365 553 564
4 265 264 421 547
4 206 254 232 551
4 270 269 271 579
4 274 271 273 549
4 386 375 373 574
4 543 560 559 566
4 197 552 28 579
4 547 556 541 563
4 376 355 486 558
4 27 197 195 552
4 255 253 256 559
4 559 560 544 566
4 543 559 560 571
4 345 453 26 461
4 544 560 559 571
4 488 489 227 548
4 359 522 499 558
4 228 534 393 548
4 555 567 542 570
4 335 450 524 572
4 521 438 324 556
4 506 461 379 553
4 542 565 556 576
4 518 356 477 571
4 542 547 568 576
4 70 71 206 570
4 269 265 421 563
4 456 33 416 398
4 199 30 549 579
4 449 423 336 552
4 264 482 421 547
4 408 72 211 555
4 33 550 196 577
4 210 416 456 550
4 497 566 374 574
4 374 566 373 574
4 541 556 551 564
4 324 359 451 576
4 28 275 336 278
4 75 400 74 560
4 29 272 30 579
4 390 513 388 548
4 393 526 228 548
4 308 274 273 549
4 275 336 423 552
4 260 554 261 568
4 386 373 408 555
4 513 389 388 548
4 300 355 323 565
4 422 263 267 576
4 228 380 534 548
4 415 414 445 567
4 274 30 31 316
4 338 339 27 337
4 454 257 478 559
4 319 333 332 571
4 374 372 373 566
4 323 355 376 558
4 422 260 263 568
4 413 462 426 557
4 496 238 372 566
4 549 563 552 579
4 547 567 542 568
4 285 124 118 123
4 275 28 29 276
4 199 196 549 577
4 515 368 531 548
4 217 515 531 548
4 118 285 123 286
4 426 462 425 561
4 261 260 259 554
4 32 33 196 577
4 319 349 571 575
4 69 222 68 562
4 258 260 266 554
4 500 375 501 574
4 308 321 309 577
4 259 260 258 554
4 30 272 447 579
4 319 467 349 575
4 118 289 121 161
4 525 390 388 548
4 359 323 376 558
4 541 551 562 564
4 513 390 227 548
4 196 33 198 550
4 488 531 489 548
4 525 388 80 548
4 124 285 284 123
4 324 323 359 565
4 198 33 1 550
4 315 304 103 149
4 285 118 287 286
4 542 568 554 576
4 247 519 249 580
4 266 467 258 575
4 213 41 495 200
4 489 513 227 548
4 309 331 31 577
4 25 195 198 553
4 531 368 489 548
4 106 108 107 301
4 150 443 295 107
4 408 211 386 555
4 356 571 349 575
4 150 110 443 107
4 199 31 196 577
4 321 561 425 577
4 336 337 28 278
4 299 312 158 167
4 414 413 426 557
4 459 394 204 573
4 114 115 112 294
4 321 331 309 577
4 317 254 300 565
4 124 118 287 285
4 118 475 289 161
4 321 322 425 561
4 31 274 316 309
4 506 365 453 553
4 475 121 289 161
4 501 387 415 567
4 551 565 542 570
4 395 76 208 573
4 313 103 304 149
4 154 436 111 109
4 114 290 310 158
4 25 26 195 553
4 543 558 554 575
4 80 388 79 548
4 312 117 158 167
4 422 568 263 576
4 145 115 444 294
4 441 427 252 569
4 145 444 115 286
4 298 475 128 161
4 111 113 434 120
4 356 349 522 575
4 541 562 553 564
4 299 312 117 158
4 354 128 475 161
4 469 111 436 109
4 452 529 438 564
4 32 33 350 398
4 311 295 443 107
4 123 284 124 125
4 115 114 433 294
4 268 269 270 563
4 102 180 307 303
4 315 313 304 149
4 28 275 278 276
4 17 41 213 200
4 436 154 469 109
4 6 89 146 509
4 354 475 128 298
4 496 374 497 566
4 465 30 142 446
4 299 312 167 320
4 407 307 180 303
4 108 106 471 301
4 228 80 79 548
4 526 80 228 548
4 407 180 141 439
4 112 473 145 110
4 139 171 144 262
4 471 107 108 301
4 112 433 114 294
4 444 115 286 294
4 272 29 275 579
4 128 354 182 161
4 180 407 479 439
4 287 353 161 124
4 290 299 310 158
4 330 313 149 99
4 103 102 304 302
4 506 379 318 564
4 511 171 26 357
4 434 435 111 120
4 123 145 115 286
4 94 134 176 404
4 384 382 383 580
4 444 284 145 291
4 295 150 107 104
4 473 444 145 110
4 104 107 295 301
4 284 285 124 125
4 332 450 441 572
4 277 362 361 556
4 31 331 32 577
4 145 444 473 112
4 440 358 138 185
4 36 224 202 192
4 136 424 283 281
4 569 572 545 573
4 110 311 443 107
4 114 310 433 113
4 36 224 508 202
4 297 290 116 158
4 521 362 438 556
4 269 268 265 563
4 108 311 470 109
4 291 145 443 150
4 359 376 522 558
4 171 92 26 357
4 497 374 500 574
4 303 105 180 479
4 391 176 134 404
4 102 304 302 303
4 435 434 113 120
4 453 461 506 553
4 30 465 447 446
4 128 121 298 161
4 32 331 350 577
4 167 158 299 320
4 134 94 348 404
4 334 401 385 572
4 167 131 343 342
4 347 428 129 392
4 544 572 569 573
4 110 469 311 109
4 143 424 292 283
4 30 29 142 446
4 245 244 242 578
4 330 344 352 159
4 130 167 131 343
4 102 103 104 302
4 123 145 284 151
4 260 261 263 568
4 108 107 311 109
4 443 145 444 110
4 116 114 288 115
4 358 440 439 185
4 114 433 288 115
4 115 433 288 294
4 469 154 485 109
4 391 134 348 404
4 289 287 475 118
4 291 284 145 151
4 434 433 113 112
4 124 285 466 282
4 118 115 288 286
4 464 353 173 161
4 155 430 429 117
4 247 245 248 580
4 182 132 354 189
4 202 13 36 192
4 114 288 290 116
4 469 473 111 110
4 313 330 418 99
4 161 118 287 124
4 180 102 105 303
4 145 284 444 123
4 217 488 55 537
4 399 94 132 397
4 295 150 104 296
4 322 426 425 561
4 94 32 132 397
4 310 429 430 117
4 1 67 416 419
4 436 154 485 469
4 149 313 100 99
4 100 103 313 149
4 321 350 331 577
4 444 473 443 110
4 444 145 123 286
4 70 411 71 570
4 411 412 211 570
4 189 132 354 399
4 107 110 311 109
4 320 167 343 342
4 1 11 66 181
4 290 297 299 158
4 399 132 32 397
4 117 114 310 158
4 310 430 433 113
4 117 155 430 113
4 182 354 475 161
4 112 145 444 294
4 315 363 344 159
4 321 425 350 577
4 314 298 128 127
4 125 285 124 282
4 257 256 253 559
4 104 150 105 296
4 150 295 105 296
4 136 424 125 283
4 49 23 203 491
4 112 444 473 294
4 280 279 84 281
4 40 178 495 200
4 125 284 285 282
4 173 182 464 161
4 116 288 289 118
4 406 158 130 320
4 314 189 354 399
4 435 434 111 436
4 104 102 302 303
4 143 292 151 283
4 7 6 61 175
4 76 395 75 573
4 466 135 124 282
4 298 314 306 127
4 399 32 132 331
4 353 173 124 466
4 266 422 451 576
4 138 92 437 440
4 115 145 112 294
4 56 498 217 537
4 182 405 132 90
4 343 130 167 320
4 129 127 347 392
4 11 10 207 176
4 271 447 272 579
4 150 295 292 105
4 347 127 87 392
4 436 111 435 120
4 304 307 102 100
4 275 29 272 276
4 118 287 475 161
4 131 130 343 402
4 446 29 142 84
4 298 121 475 161
4 5 6 60 509
4 61 6 60 226
4 203 23 165 491
4 283 125 136 281
4 419 1 66 181
4 464 405 182 90
4 354 128 189 314
4 113 433 114 112
4 226 6 91 175
4 303 102 105 296
4 440 92 346 137
4 104 102 303 296
4 280 136 135 281
4 310 114 117 113
4 346 437 92 440
4 11 1 66 184
4 295 291 150 292
4 438 529 318 564
4 11 10 65 207
4 298 121 128 127
4 301 295 104 296
4 353 464 475 161
4 313 304 103 100
4 93 202 224 192
4 81 97 8 512
4 84 446 29 276
4 122 121 297 306
4 117 430 310 113
4 311 443 469 110
4 102 104 105 296
4 479 303 105 296
4 99 146 371 81
4 224 508 202 93
4 288 287 118 286
4 518 333 356 571
4 110 111 469 109
4 502 436 120 154
4 158 297 299 406
4 81 532 97 512
4 295 292 105 296
4 84 136 280 281
4 121 298 297 306
4 312 429 117 156
4 435 434 430 113
4 80 526 3 538
4 113 430 435 120
4 439 293 424 185
4 483 9 63 177
4 394 76 204 573
4 293 136 137 279
4 130 343 428 406
4 345 25 410 461
4 108 470 311 471
4 397 32 350 398
4 470 485 126 109
4 127 428 129 347
4 19 44 201 492
4 251 243 250 569
4 215 7 396 175
4 352 330 159 147
4 303 302 104 296
4 361 556 521 576
4 115 288 116 118
4 115 118 123 286
4 297 158 122 406
4 435 502 436 120
4 159 344 315 149
4 126 485 154 109
4 285 353 124 466
4 521 361 362 556
4 90 316 30 465
4 316 274 30 447
4 125 424 143 283
4 399 189 94 348
4 110 443 145 150
4 84 142 446 280
4 199 29 30 579
4 203 220 49 491
4 189 94 132 399
4 428 129 130 406
4 420 9 483 87
4 120 436 111 154
4 379 222 232 562
4 475 121 298 289
4 440 138 92 137
4 510 213 133 160
4 10 420 207 176
4 121 298 306 127
4 330 344 159 149
4 331 399 32 397
4 108 311 107 471
4 133 213 510 495
4 257 253 478 559
4 160 213 133 495
4 466 446 142 280
4 427 243 252 569
4 141 138 358 185
4 289 121 297 116
4 439 141 358 185
4 91 190 174 377
4 139 138 437 328
4 416 33 1 419
4 178 40 16 200
4 496 372 374 566
4 477 209 400 560
4 182 354 128 189
4 194 28 337 278
4 396 7 61 175
4 119 363 315 159
4 6 5 89 509
4 287 353 124 285
4 406 299 158 320
4 84 136 135 280
4 443 444 145 291
4 182 475 464 161
4 446 84 280 276
4 48 220 203 533
4 290 433 288 114
4 405 132 31 331
4 506 318 529 564
4 111 473 434 112
4 117 429 155 156
4 142 135 466 280
4 91 170 226 378
4 142 90 30 465
4 203 220 22 533
4 87 134 347 391
4 483 64 9 420
4 132 354 405 182
4 129 122 130 406
4 261 442 264 568
4 513 389 390 388
4 136 84 279 281
4 420 65 10 207
4 127 134 314 347
4 521 324 451 576
4 128 134 189 314
4 135 125 282 281
4 165 220 203 491
4 28 194 84 279
4 113 155 430 120
4 9 8 63 177
4 151 150 291 292
4 209 74 400 560
4 123 284 444 286
4 117 310 299 158
4 158 116 297 122
4 112 434 433 294
4 405 354 464 182
4 106 103 448 302
4 137 194 460 279
4 156 167 312 340
4 418 100 313 99
4 314 134 189 348
4 177 483 9 87
4 314 128 134 127
4 10 9 64 420
4 307 180 102 101
4 397 399 94 348
4 473 111 436 469
4 170 4 5 504
4 512 97 8 212
4 127 129 87 392
4 1 67 205 410
4 392 87 347 391
4 199 197 29 579
4 60 5 4 504
4 102 103 304 100
4 122 129 428 406
4 61 60 6 509
4 224 463 192 148
4 7 215 82 175
4 135 282 280 281
4 142 173 465 466
4 159 315 119 149
4 180 307 407 101
4 90 173 464 465
4 348 314 134 347
4 223 6 146 509
4 377 174 91 378
4 149 159 330 147
4 126 517 510 160
4 130 131 82 402
4 343 82 130 403
4 133 178 160 495
4 205 66 1 184
4 406 428 122 306
4 132 32 31 331
4 339 26 27 357
4 302 106 104 301
4 472 471 108 329
4 343 130 129 403
4 349 356 333 571
4 329 471 106 301
4 344 330 315 149
4 132 405 399 331
4 207 66 11 181
4 143 136 424 125
4 290 114 116 158
4 136 424 293 185
4 491 378 95 514
4 137 460 293 279
4 492 201 19 179
4 84 137 136 279
4 422 267 361 576
4 306 428 122 127
4 61 62 7 396
4 233 10 11 144
4 287 353 475 161
4 66 207 419 181
4 213 510 517 160
4 10 11 65 233
4 233 417 10 144
4 155 484 430 120
4 97 367 487 532
4 86 417 9 212
4 229 170 95 378
4 325 327 326 168
4 344 463 352 159
4 224 463 93 192
4 471 311 107 301
4 417 9 10 86
4 215 483 177 403
4 65 66 11 207
4 101 325 326 168
4 405 316 31 90
4 334 450 332 572
4 175 131 190 402
4 288 287 289 118
4 112 111 473 110
4 343 130 82 402
4 52 525 538 390
4 111 434 113 112
4 378 174 95 514
4 364 344 363 186
4 60 4 59 504
4 262 144 139 366
4 173 353 464 465
4 453 26 511 345
4 156 312 429 341
4 358 437 138 328
4 485 470 469 109
4 86 10 417 144
4 397 94 33 404
4 222 69 232 562
4 158 167 130 320
4 82 215 396 175
4 116 289 121 118
4 103 448 304 315
4 194 337 460 278
4 9 63 64 483
4 240 242 244 578
4 159 463 352 148
4 124 173 135 466
4 292 151 150 105
4 97 86 9 212
4 414 387 412 567
4 191 502 154 535
4 471 106 108 329
4 439 440 293 185
4 205 25 1 410
4 10 9 420 87
4 470 510 108 126
4 64 9 10 417
4 247 248 335 580
4 194 346 92 137
4 252 243 251 569
4 299 312 310 117
4 440 346 460 137
4 107 104 106 301
4 494 85 474 472
4 292 105 479 143
4 464 316 405 90
4 304 102 307 303
4 97 487 86 212
4 191 162 502 535
4 384 383 519 580
4 405 354 132 399
4 465 316 30 447
4 396 62 7 215
4 180 407 303 479
4 319 349 333 571
4 512 532 97 212
4 76 75 204 573
4 266 499 467 575
4 289 290 288 116
4 377 91 226 378
4 407 358 141 326
4 493 18 42 160
4 297 298 121 289
4 340 167 312 320
4 404 33 397 398
4 194 137 84 279
4 354 475 464 182
4 87 134 127 347
4 82 343 402 403
4 163 155 429 156
4 411 211 71 570
4 62 8 7 215
4 203 22 48 533
4 161 353 173 124
4 121 297 116 122
4 186 344 363 159
4 125 143 151 283
4 464 182 173 90
4 62 63 8 215
4 103 106 104 302
4 487 367 97 168
4 272 275 270 579
4 167 312 117 156
4 170 504 226 378
4 392 177 483 403
4 488 539 55 537
4 396 82 175 402
4 311 295 107 301
4 60 4 5 230
4 131 343 342 402
4 291 443 295 150
4 417 10 65 233
4 194 460 346 137
4 396 215 82 402
4 437 92 138 139
4 126 108 470 109
4 192 463 93 148
4 213 493 42 160
4 125 135 136 281
4 538 539 52 390
4 177 82 215 403
4 241 240 237 578
4 67 1 66 419
4 465 173 353 466
4 64 65 10 420
4 285 284 123 286
4 424 292 479 143
4 82 129 130 403
4 307 304 313 100
4 484 435 430 120
4 152 85 133 472
4 100 313 325 418
4 293 136 279 281
4 22 165 220 203
4 20 45 214 201
4 31 132 405 90
4 434 433 430 113
4 105 292 151 143
4 512 7 81 223
4 263 261 264 568
4 126 510 133 160
4 201 214 20 179
4 469 443 473 110
4 111 434 473 436
4 162 191 83 535
4 173 90 142 465
4 54 227 539 488
4 85 152 474 472
4 429 163 156 341
4 504 60 5 226
4 369 99 146 371
4 143 439 424 185
4 532 97 98 81
4 392 129 177 403
4 511 25 171 262
4 185 440 293 137
4 11 66 233 184
4 84 29 28 276
4 460 346 337 194
4 453 26 339 357
4 154 191 535 485
4 130 122 158 406
4 428 343 129 403
4 7 146 81 223
4 92 27 26 357
4 290 310 433 114
4 342 166 190 351
4 474 530 153 216
4 316 30 31 90
4 87 177 483 392
4 377 190 174 351
4 297 290 289 116
4 112 473 434 294
4 343 129 130 428
4 171 26 25 511
4 60 59 4 230
4 154 191 485 126
4 135 142 84 280
4 525 80 3 538
4 494 133 85 472
4 162 179 225 83
4 100 325 307 101
4 27 346 339 357
4 103 119 315 149
4 8 7 81 512
4 511 458 171 357
4 448 103 119 315
4 226 396 175 377
4 165 95 174 514
4 92 346 27 357
4 526 540 3 538
4 130 343 406 320
4 402 190 175 377
4 156 164 340 341
4 402 131 190 377
4 11 66 65 233
4 214 201 492 179
4 306 122 121 127
4 520 502 120 162
4 165 220 457 432
4 140 141 358 326
4 83 225 162 535
4 201 45 214 492
4 33 32 397 398
4 82 215 8 177
4 334 385 524 572
4 320 340 167 342
4 148 370 352 147
4 92 171 458 357
4 374 373 375 574
4 446 142 465 466
4 464 316 90 465
4 108 510 471 472
4 215 8 7 82
4 150 291 145 151
4 494 178 133 495
4 179 520 157 162
4 7 8 62 512
4 414 415 387 567
4 125 283 282 281
4 154 162 502 191
4 87 420 176 391
4 391 207 176 404
4 539 55 54 488
4 417 86 487 212
4 417 64 9 212
4 8 63 62 512
4 312 429 310 117
4 286 115 288 294
4 129 122 428 127
4 162 502 120 154
4 50 24 95 229
4 399 314 189 348
4 19 44 492 225
4 510 470 108 471
4 363 153 119 474
4 301 104 302 296
4 4 170 187 504
4 463 344 364 186
4 64 10 65 417
4 8 63 512 212
4 176 10 420 87
4 144 183 139 366
4 446 272 29 276
4 213 42 17 160
4 31 309 405 331
4 98 99 371 81
4 418 325 100 98
4 33 32 94 397
4 508 14 37 202
4 378 377 174 351
4 323 317 300 565
4 470 311 469 109
4 164 165 457 432
4 172 38 15 216
4 420 207 176 391
4 435 520 502 120
4 147 148 370 89
4 97 9 8 212
4 138 437 358 440
4 432 457 164 341
4 140 358 138 328
4 340 166 167 342
4 457 340 164 341
4 172 153 530 216
4 313 325 307 100
4 61 6 7 223
4 128 354 298 314
4 176 181 94 404
4 151 291 284 283
4 527 96 193 230
4 495 41 40 200
4 173 142 135 466
4 377 342 190 351
4 87 483 420 392
4 146 371 81 223
4 302 448 106 329
4 5 188 89 509
4 174 95 170 378
4 138 139 140 328
4 157 214 520 179
4 537 56 498 540
4 19 225 179 83
4 188 5 4 230
4 196 31 32 577
4 233 66 205 184
4 304 448 103 302
4 95 165 491 514
4 147 330 149 99
4 225 19 43 83
4 504 170 229 378
4 508 463 364 186
4 124 135 125 282
4 63 8 9 212
4 327 140 326 168
4 170 91 174 378
4 241 242 240 578
4 120 157 520 162
4 424 136 143 185
4 152 106 448 329
4 371 532 98 81
4 325 367 327 168
4 59 2 0 527
4 0 2 59 528
4 125 151 284 283
4 106 302 329 301
4 492 19 225 179
4 402 175 396 377
4 179 225 492 162
4 540 57 498 393
4 105 292 479 296
4 141 358 407 439
4 326 141 407 101
4 146 7 6 223
4 539 53 52 390
4 309 316 31 405
4 67 66 1 205
4 171 139 458 262
4 193 4 527 230
4 350 331 32 397
4 418 98 99 371
4 223 61 6 509
4 18 17 42 160
4 325 101 98 168
4 191 493 517 160
4 92 437 346 357
4 402 342 131 377
4 370 147 89 146
4 510 108 133 472
4 144 184 233 262
4 106 103 119 448
4 133 108 510 126
4 50 24 23 95
4 59 4 0 528
4 463 344 186 159
4 157 484 431 155
4 330 313 315 149
4 181 176 207 404
4 127 306 428 347
4 162 225 502 535
4 101 326 140 168
4 472 108 152 329
4 26 25 511 345
4 312 156 340 341
4 284 123 151 125
4 131 175 82 402
4 314 306 127 347
4 367 325 98 168
4 187 528 4 504
4 134 348 347 391
4 493 83 18 160
4 323 324 317 565
4 152 106 119 448
4 95 229 378 491
4 43 225 83 493
4 122 297 406 306
4 94 397 348 404
4 283 284 125 282
4 495 133 494 472
4 119 153 363 159
4 463 224 503 148
4 220 165 22 533
4 177 87 129 392
4 271 272 270 579
4 424 479 439 143
4 540 3 58 526
4 101 100 325 98
4 105 180 479 143
4 148 352 159 147
4 282 466 135 280
4 517 485 191 126
4 64 63 9 212
4 12 35 192 505
4 56 57 498 540
4 186 363 153 159
4 448 363 119 474
4 96 193 12 505
4 138 440 185 137
4 207 419 181 404
4 516 364 172 93
4 352 503 370 148
4 500 374 375 574
4 44 19 43 225
4 83 18 43 493
4 144 171 184 262
4 95 23 50 491
4 337 346 27 194
4 136 293 424 281
4 450 334 524 572
4 457 164 340 351
4 512 81 371 223
4 535 191 493 517
4 100 307 102 101
4 97 86 487 168
4 159 186 463 148
4 440 460 293 137
4 148 192 224 96
4 229 187 170 504
4 367 97 98 532
4 485 517 470 126
4 225 502 492 162
4 155 431 157 163
4 98 97 367 168
4 535 502 154 485
4 291 151 292 283
4 523 139 183 366
4 530 153 172 364
4 40 178 494 495
4 358 138 141 140
4 262 139 458 366
4 532 98 367 371
4 487 97 532 212
4 528 4 0 187
4 205 233 184 262
4 487 86 183 168
4 463 508 224 93
4 528 59 4 504
4 0 34 193 527
4 172 38 216 516
4 61 7 62 223
4 13 202 93 192
4 364 363 153 186
4 172 364 186 93
4 419 416 33 398
4 166 174 190 351
4 216 530 172 516
4 392 428 129 403
4 176 207 11 181
4 167 156 166 340
4 201 44 45 492
4 484 429 431 155
4 337 27 28 194
4 166 190 131 342
4 474 153 85 216
4 220 49 48 203
4 155 157 484 120
4 539 227 53 390
4 164 166 340 351
4 191 83 493 160
4 326 140 141 101
4 512 62 7 223
4 463 186 93 148
4 17 41 42 213
4 98 100 418 99
4 18 43 19 83
4 148 224 503 96
4 172 530 364 516
4 371 146 369 223
4 349 467 499 575
4 536 96 503 505
4 82 177 129 403
4 84 279 280 276
4 326 140 327 328
4 520 484 157 120
4 134 87 176 391
4 457 220 165 514
4 183 523 327 140
4 429 484 430 155
4 184 233 11 144
4 178 16 40 494
4 95 187 170 229
4 229 95 50 491
4 417 86 144 366
4 484 520 435 120
4 25 511 345 262
4 340 166 342 351
4 106 152 108 329
4 193 34 12 505
4 140 139 183 328
4 95 24 187 229
4 25 205 184 262
4 14 38 15 172
4 96 224 503 505
4 505 193 34 527
4 392 420 87 391
4 85 178 133 494
4 98 418 367 371
4 141 180 407 101
4 89 148 370 536
4 404 419 33 398
4 183 327 487 168
4 147 370 369 146
4 139 523 458 366
4 523 183 139 328
4 23 49 50 491
4 349 499 522 575
4 164 163 432 341
4 505 536 96 230
4 191 83 535 493
4 188 96 536 230
4 165 23 95 491
4 140 327 183 168
4 131 167 166 342
4 492 520 214 179
4 327 523 183 487
4 214 484 431 157
4 528 0 51 187
4 293 136 185 137
4 215 82 402 403
4 146 370 369 223
4 508 463 186 93
4 179 492 520 162
4 202 508 14 93
4 437 92 139 458
4 342 190 131 377
4 134 94 189 348
4 156 164 166 340
4 27 346 92 194
4 519 335 384 580
4 429 431 155 163
4 181 419 33 404
4 157 431 214 169
4 143 141 439 185
4 165 164 88 432
4 191 535 485 517
4 152 119 153 474
4 437 92 458 357
4 339 346 27 337
4 191 517 126 160
4 369 330 147 99
4 96 12 192 505
4 510 470 517 126
4 165 88 22 533
4 508 364 516 93
4 35 13 12 192
4 22 21 47 533
4 172 14 38 516
4 0 24 51 187
4 505 96 193 527
4 358 140 326 328
4 474 152 448 329
4 325 326 307 101
4 364 153 172 186
4 85 152 153 474
4 419 33 1 181
4 148 188 96 536
4 229 528 187 504
4 330 369 418 99
4 153 172 85 216
4 457 165 164 514
4 519 247 335 580
4 502 436 154 485
4 186 364 508 93
4 527 505 96 230
4 326 407 307 101
4 502 520 492 162
4 35 224 192 505
4 463 503 352 148
4 153 530 363 364
4 363 530 153 474
4 18 42 43 493
4 458 139 437 328
4 94 181 33 404
4 96 503 148 536
4 520 484 214 157
4 15 85 172 216
4 366 86 183 487
4 171 139 92 458
4 171 25 184 262
4 81 371 532 512
4 89 188 148 536
4 448 119 152 474
4 429 431 163 341
4 188 536 509 230
4 16 15 39 85
4 45 46 20 214
4 119 363 448 315
4 34 0 2 527
4 2 0 51 528
4 213 517 493 160
4 50 51 24 229
4 367 325 418 98
4 37 36 508 202
4 144 86 183 366
4 169 157 431 163
4 85 474 216 494
4 187 24 51 229
4 508 37 14 516
4 21 22 88 533
4 99 147 369 146
4 233 417 144 366
4 85 15 39 216
4 536 89 188 509
4 34 12 0 193
4 527 4 59 230
4 55 56 217 537
4 503 370 148 536
4 172 14 516 93
4 205 1 25 184
4 16 39 40 494
4 523 327 140 328
4 361 451 422 576
4 165 22 23 203
4 152 133 108 472
4 535 83 225 493
4 15 38 39 216
4 21 20 46 169
4 514 164 457 351
4 183 523 140 328
4 367 487 327 168
4 369 418 99 371
4 21 46 507 169
4 169 431 507 88
4 164 163 88 432
4 187 51 528 229
4 453 511 26 357
4 214 46 20 169
4 491 165 220 514
4 174 164 165 514
4 330 352 369 147
4 516 14 508 93
4 262 233 144 366
4 88 431 507 432
4 431 507 214 169
4 205 25 345 262
4 410 205 25 345
4 169 214 157 179
4 366 183 523 487
4 35 12 34 505
4 39 16 85 494
4 514 174 164 351
4 361 521 451 576
4 417 86 366 487
4 514 378 174 351
4 164 156 163 341
4 88 169 431 163
4 14 37 38 516
4 96 192 224 505
4 21 46 47 507
4 507 46 214 169
4 369 352 370 147
4 3 52 525 538
4 495 510 133 472
4 472 152 474 329
4 431 88 163 432
4 526 58 540 393
4 48 22 47 533
4 166 164 174 351
4 16 178 85 494
4 53 54 227 539
4 169 20 214 179
4 171 458 511 262
4 432 163 431 341
4 39 85 216 494
4 58 57 540 393
4 169 507 21 88
4 533 88 507 432
4 370 89 536 509
4 458 523 139 328
4 16 17 178 200
4 202 14 13 93
4 20 19 201 179
4 401 573 400 395
4 400 573 401 544
4 563 449 423 277
4 563 423 449 552
4 561 562 462 550
4 462 562 561 557
4 580 77 208 382
4 580 208 77 545
4 557 70 562 551
4 557 562 70 480
4 572 401 518 334
4 518 401 572 544
4 518 571 572 334
4 572 571 518 544
4 548 246 249 546
4 548 249 246 489
4 560 573 231 75
4 231 573 560 544
4 254 564 317 318
4 317 564 254 551
4 576 260 266 422
4 576 266 260 554
4 580 246 249 247
4 580 249 246 546
4 564 362 449 556
4 564 449 362 452
4 579 423 563 552
4 579 563 423 270
4 272 30 446 29
4 272 446 30 447
4 575 319 256 571
4 575 256 319 467
4 180 439 143 141
4 143 439 180 479
4 5 226 6 91
4 6 226 5 60
4 28 279 276 278
4 276 279 28 84
4 61 175 226 396
4 226 175 61 6
4 278 194 279 460
4 278 279 194 28
4 200 495 17 178
4 200 17 495 213
4 160 17 495 178
4 160 495 17 213
4 146 509 370 223
4 370 509 146 89
4 63 177 215 483
4 215 177 63 8
4 91 377 175 190
4 175 377 91 226
4 170 226 5 91
4 5 226 170 504
4 4 527 0 193
4 0 527 4 59
4 36 192 35 224
4 35 192 36 13
4 230 5 509 188
4 230 509 5 60
4 165 533 432 88
4 432 533 165 220
4 96 4 230 188
4 96 230 4 193
4 533 21 507 88
4 533 507 21 47

CELL_TYPES 2938
1
1
1
1
3
3
3
3
3
3
3
3
3
3
3
3
3
3
3
3
3
3
3
3
3
3
3
3
3
3
3
3
3
3
3
3
3
3
3
3
3
3
3
3
3
3
3
3
3
3
3
3
3
3
3
3
3
3
3
3
3
3
3
3
3
3
3
3
3
3
3
3
3
3
3
3
3
3
3
3
3
3
3
3
3
3
3
5
5
5
5
5
5
5
5
5
5
5
5
5
5
5
5
5
5
5
5
5
5
5
5
5
5
5
5
5
5
5
5
5
5
5
5
5
5
5
5
5
5
5
5
5
5
5
5
5
5
5
5
5
5
5
5
5
5
5
5
5
5
5
5
5
5
5
5
5
5
5
5
5
5
5
5
5
5
5
5
5
5
5
5
5
5
5
5
5
5
5
5
5
5
5
5
5
5
5
5
5
5
5
5
5
5
5
5
5
5
5
5
5
5
5
5
5
5
5
5
5
5
5
5
5
5
5
5
5
5
5
5
5
5
5
5
5
5
5
5
5
5
5
5
5
5
5
5
5
5
5
5
5
5
5
5
5
5
5
5
5
5
5
5
5
5
5
5
5
5
5
5
5
5
5
5
5
5
5
5
5
5
5
5
5
5
5
5
5
5
5
5
5
5
5
5
5
5
5
5
5
5
5
5
5
5
5
5
5
5
5
5
5
5
5
5
5
5
5
5
5
5
5
5
5
5
5
5
5
5
5
5
5
5
5
5
5
5
5
5
5
5
5
5
5
5
5
5
5
5
5
5
5
5
5
5
5
5
5
5
5
5
5
5
5
5
5
5
5
5
5
5
5
5
5
5
5
5
5
5
5
5
5
5
5
5
5
5
5
5
5
5
5
5
5
5
5
5
5
5
5
5
5
5
5
5
5
5
5
5
5
5
5
5
5
5
5
5
5
5
5
5
5
5
5
5
5
5
5
5
5
5
5
5
5
5
5
5
5
5
5
5
5
5
5
5
5
5
5
5
5
5
5
5
5
5
5
5
5
5
5
5
5
5
5
5
5
5
5
5
5
5
5
5
5
5
5
5
5
5
5
5
5
5
5
5
5
5
5
5
5
5
5
5
5
5
5
5
5
5
5
5
5
5
5
5
5
5
5
5
5
5
5
5
5
5
5
5
5
5
5
5
5
5
5
5
5
5
5
5
5
5
5
5
5
5
5
5
5
5
5
5
5
5
5
5
5
5
5
5
5
5
5
5
5
5
5
5
5
5
5
5
5
5
5
5
5
5
5
5
5
5
5
5
5
5
5
5
5
5
5
5
5
5
5
5
5
5
5
5
5
5
5
5
5
5
5
5
5
5
5
5
5
5
5
5
5
5
5
5
5
5
5
5
5
5
5
5
5
5
5
5
5
5
5
5
5
5
5
5
5
5
5
5
5
5
5
5
5
5
5
5
5
5
5
5
5
5
5
5
5
5
5
5
5
5
5
5
5
5
5
5
5
5
5
5
5
5
5
5
5
5
5
5
5
5
5
5
5
5
5
5
5
5
5
5
5
5
5
5
5
5
5
5
5
5
5
5
5
5
5
5
5
5
5
5
5
5
5
5
5
5
5
5
5
5
5
5
5
5
5
5
5
5
5
5
5
5
5
5
5
5
5
5
5
5
5
5
5
5
5
5
5
5
5
5
5
5
5
5
5
5
5
5
5
5
5
5
5
5
5
5
5
5
5
5
5
5
5
5
5
5
5
5
5
5
5
5
5
5
5
5
5
5
5
5
5
5
5
5
5
5
5
5
5
5
5
5
5
5
5
5
5
5
5
5
5
5
5
5
5
5
5
5
5
5
5
5
5
5
5
5
5
5
5
5
5
5
5
5
5
5
5
5
5
5
5
5
5
5
5
5
5
5
5
5
5
5
5
5
5
5
5
5
5
5
5
5
5
5
5
5
5
5
5
5
5
5
5
5
5
5
5
5
5
5
5
5
5
5
5
5
5
5
5
5
5
5
5
5
5
5
5
5
5
5
5
5
5
5
5
5
5
5
5
5
5
5
5
5
5
5
5
5
5
5
5
5
5
5
5
5
5
5
5
5
5
5
5
5
5
5
5
5
5
5
5
5
5
5
5
5
5
5
5
5
5
5
5
5
5
5
5
5
5
5
5
5
5
5
5
5
5
5
5
5
5
5
5
5
5
5
5
5
5
5
5
5
5
5
5
5
5
5
5
5
5
5
5
5
5
5
5
5
5
5
5
5
5
5
5
5
5
5
5
5
5
5
5
5
5
5
5
5
5
5
5
5
5
5
5
5
5
5
5
5
5
5
5
5
5
5
5
5
5
5
5
5
5
5
5
5
5
5
5
5
5
5
5
5
5
5
5
5
5
5
5
5
5
5
5
5
5
5
5
5
5
5
5
5
5
5
5
5
5
5
5
5
5
5
5
5
5
5
5
5
5
5
5
5
5
5
5
5
5
5
5
5
5
5
5
5
5
5
5
5
5
5
5
5
5
5
5
5
5
5
5
5
5
5
5
5
5
5
5
5
5
5
5
5
5
5
5
5
5
5
5
5
5
5
5
5
5
5
5
5
5
5
5
5
5
5
5
5
5
5
5
5
5
5
5
5
5
5
5
5
5
5
5
5
5
5
5
5
5
5
5
5
10
10
10
10
10
10
10
10
10
10
10
10
10
10
10
10
10
10
10
10
10
10
10
10
10
10
10
10
10
10
10
10
10
10
10
10
10
10
10
10
10
10
10
10
10
10
10
10
10
10
10
10
10
10
10
10
10
10
10
10
10
10
10
10
10
10
10
10
10
10
10
10
10
10
10
10
10
10
10
10
10
10
10
10
10
10
10
10
10
10
10
10
10
10
10
10
10
10
10
10
10
10
10
10
10
10
10
10
10
10
10
10
10
10
10
10
10
10
10
10
10
10
10
10
10
10
10
10
10
10
10
10
10
10
10
10
10
10
10
10
10
10
10
10
10
10
10
10
10
10
10
10
10
10
10
10
10
10
10
10
10
10
10
10
10
10
10
10
10
10
10
10
10
10
10
10
10
10
10
10
10
10
10
10
10
10
10
10
10
10
10
10
10
10
10
10
10
10
10
10
10
10
10
10
10
10
10
10
10
10
10
10
10
10
10
10
10
10
10
10
10
10
10
10
10
10
10
10
10
10
10
10
10
10
10
10
10
10
10
10
10
10
10
10
10
10
10
10
10
10
10
10
10
10
10
10
10
10
10
10
10
10
10
10
10
10
10
10
10
10
10
10
10
10
10
10
10
10
10
10
10
10
10
10
10
10
10
10
10
10
10
10
10
10
10
10
10
10
10
10
10
10
10
10
10
10
10
10
10
10
10
10
10
10
10
10
10
10
10
10
10
10
10
10
10
10
10
10
10
10
10
10
10
10
10
10
10
10
10
10
10
10
10
10
10
10
10
10
10
10
10
10
10
10
10
10
10
10
10
10
10
10
10
10
10
10
10
10
10
10
10
10
10
10
10
10
10
10
10
10
10
10
10
10
10
10
10
10
10
10
10
10
10
10
10
10
10
10
10
10
10
10
10
10
10
10
10
10
10
10
10
10
10
10
10
10
10
10
10
10
10
10
10
10
10
10
10
10
10
10
10
10
10
10
10
10
10
10
10
10
10
10
10
10
10
10
10
10
10
10
10
10
10
10
10
10
10
10
10
10
10
10
10
10
10
10
10
10
10
10
10
10
10
10
10
10
10
10
10
10
10
10
10
10
10
10
10
10
10
10
10
10
10
10
10
10
10
10
10
10
10
10
10
10
10
10
10
10
10
10
10
10
10
10
10
10
10
10
10
10
10
10
10
10
10
10
10
10
10
10
10
10
10
10
10
10
10
10
10
10
10
10
10
10
10
10
10
10
10
10
10
10
10
10
10
10
10
10
10
10
10
10
10
10
10
10
10
10
10
10
10
10
10
10
10
10
10
10
10
10
10
10
10
10
10
10
10
10
10
10
10
10
10
10
10
10
10
10
10
10
10
10
10
10
10
10
10
10
10
10
10
10
10
10
10
10
10
10
10
10
10
10
10
10
10
10
10
10
10
10
10
10
10
10
10
10
10
10
10
10
10
10
10
10
10
10
10
10
10
10
10
10
10
10
10
10
10
10
10
10
10
10
10
10
10
10
10
10
10
10
10
10
10
10
10
10
10
10
10
10
10
10
10
10
10
10
10
10
10
10
10
10
10
10
10
10
10
10
10
10
10
10
10
10
10
10
10
10
10
10
10
10
10
10
10
10
10
10
10
10
10
10
10
10
10
10
10
10
10
10
10
10
10
10
10
10
10
10
10
10
10
10
10
10
10
10
10
10
10
10
10
10
10
10
10
10
10
10
10
10
10
10
10
10
10
10
10
10
10
10
10
10
10
10
10
10
10
10
10
10
10
10
10
10
10
10
10
10
10
10
10
10
10
10
10
10
10
10
10
10
10
10
10
10
10
10
10
10
10
10
10
10
10
10
10
10
10
10
10
10
10
10
10
10
10
10
10
10
10
10
10
10
10
10
10
10
10
10
10
10
10
10
10
10
10
10
10
10
10
10
10
10
10
10
10
10
10
10
10
10
10
10
10
10
10
10
10
10
10
10
10
10
10
10
10
10
10
10
10
10
10
10
10
10
10
10
10
10
10
10
10
10
10
10
10
10
10
10
10
10
10
10
10
10
10
10
10
10
10
10
10
10
10
10
10
10
10
10
10
10
10
10
10
10
10
10
10
10
10
10
10
10
10
10
10
10
10
10
10
10
10
10
10
10
10
10
10
10
10
10
10
10
10
10
10
10
10
10
10
10
10
10
10
10
10
10
10
10
10
10
10
10
10
10
10
10
10
10
10
10
10
10
10
10
10
10
10
10
10
10
10
10
10
10
10
10
10
10
10
10
10
10
10
10
10
10
10
10
10
10
10
10
10
10
10
10
10
10
10
10
10
10
10
10
10
10
10
10
10
10
10
10
10
10
10
10
10
10
10
10
10
10
10
10
10
10
10
10
10
10
10
10
10
10
10
10
10
10
10
10
10
10
10
10
10
10
10
10
10
10
10
10
10
10
10
10
10
10
10
10
10
10
10
10
10
10
10
10
10
10
10
10
10
10
10
10
10
10
10
10
10
10
10
10
10
10
10
10
10
10
10
10
10
10
10
10
10
10
10
10
10
10
10
10
10
10
10
10
10
10
10
10
10
10
10
10
10
10
10
10
10
10
10
10
10
10
10
10
10
10
10
10
10
10
10
10
10
10
10
10
10
10
10
10
10
10
10
10
10
10
10
10
10
10
10
10
10
10
10
10
10
10
10
10
10
10
10
10
10
10
10
10
10
10
10
10
10
10
10
10
10
10
10
10
10
10
10
10
10
10
10
10
10
10
10
10
10
10
10
10
10
10
10
10
10
10
10
10
10
10
10
10
10
10
10
10
10
10
10
10
10
10
10
10
10
10
10
10
10
10
10
10
10
10
10
10
10
10
10
10
10
10
10
10
10
10
10
10
10
10
10
10
10
10
10
10
10
10
10
10
10
10
10
10
10
10
10
10
10
10
10
10
10
10
10
10
10
10
10
10
10
10
10
10
10
10
10
10
10
10
10
10
10
10
10
10
10
10
10
10
10
10
10
10
10
10
10
10
10
10
10
10
10
10
10
10
10
10
10
10
10
10
10
10
10
10
10
10
10
10
10
10
10
10
10
10
10
10
10
10
10
10
10
10
10
10
10
10
10
10
10
10
10
10
10
10
10
10
10
10
10
10
10
10
10
10
10
10
10
10
10
10
10
10
10
10
10
10
10
10
10
10
10
10
10
10
10
10
10
10
10
10
10
10
10
10
10
10
10
10
10
10
10
10
10
10
10
10
10
10
10
10
10
10
10
10
10
10
10
10
10
10
10
10
10
10
10
10
10
10
10
10
10
10
10
10
10
10
10
10
10
10
10
10
10
10
10
10
10
10
10
10
10
10
10
10
10
10
10
10
10
10
10
10
10
10
10
10
10
10
10
10
10
10
10
10
10
10
10
10
10
10
10
10
10
10
10
10
10
10
10
10
10
10
10
10
10
10
10
10
10
10
10
10
10
10
10
10
10
10
10
10
10
10
10
10
10
10
10
10
10
10
10
10
10
10
10
10
10
10
10
10
10
10
10
10
10
10
10
10
10
10
10
10
10
10
10
10
10
10
10
10
10
10
10
10
10
10
10
10
10
10
10
10
10
10
10
10
10
10
10
10
10
10
10
10
10
10
10
10
10
10
10
10
10
10
10
10
10
10
10
10
10
10
10
10
10
10
10
10
10
10
10
10
10
10
10
10
10
10
10
10
10
10
10
10
10
10
10
10
10
10
10
10
10
10
10
10
10
10
10
10
10
10
10
10
10
10
10
10
10
10
10
10
10
10
10
10
10
10
10
10
10
10
10
10
10
10
10
10
10
10
10
10
10
10
10
10
10
10
10
10
10
10
10
10
10
10
10
10
10
10
10
10
10
10
10
10
10
10
10
10
10
10
10
10
10
10
10
10
10
10
10
10
10
10
10
10
10
10
10
10
10
10
10
10
10
10
10
10
10
10
10
10
10
10
10
10
10
10
10
10
10
10
10
10
10
10
10
10
10
10
10
10
10
10
10
10
10
10
10
10
10
