# vtk DataFile Version 2.0
whisker_body, Created by Gmsh 4.13.1 
ASCII
DATASET UNSTRUCTURED_GRID
POINTS 584 double
9 0 0
6.796352208910681 0 28
12 0 0
4.916846385784335 0 90
8.724544026113835 0 3.5
8.449088052227671 0 7
8.173632078341505 0 10.5
7.898176104455341 0 14
7.622720130569176 0 17.5
7.347264156683011 0 21
7.071808182796846 0 24.5
8.221909118783412 3.660629787682195 0
6.022175457229734 6.688303429296539 0
2.781152949374546 8.559508646656376 0
-0.9407561694088541 8.950697058314462 0
-4.499999999999971 7.794228634059964 0
-7.281152949374503 5.290067270632291 0
-8.803328406604242 1.871205217359873 0
-8.803328406604258 -1.871205217359792 0
-7.281152949374553 -5.290067270632221 0
-4.500000000000045 -7.794228634059921 0
-0.9407561694089199 -8.950697058314455 0
2.781152949374503 -8.55950864665639 0
6.022175457229708 -6.688303429296562 0
8.221909118783401 -3.660629787682216 0
5.717455306111113 3.674385413941627 28
2.82330674123003 6.182179420923512 28
-0.9672217654594084 6.727175142954632 28
-4.450664195677907 5.13634028904587 28
-6.521052190659167 1.914753685011307 28
-6.521052190659168 -1.914753685011306 28
-4.450664195677909 -5.13634028904587 28
-0.9672217654594084 -6.727175142954632 28
2.823306741230033 -6.182179420923511 28
5.71745530611111 -3.674385413941632 28
11.34980690040761 3.896393630456207 0
9.469686112756717 7.370552552276022 0
6.563377897469113 10.04599773915035 0
2.945825845689581 11.63280319127197 0
-0.9909521456679979 11.95901391608004 0
-4.820345095835646 10.98927991986068 0
-8.127378859508902 8.82868692807757 0
-10.55368501447787 5.71136871644487 0
-11.83633564083267 1.975135083368787 0
-11.83633564083267 -1.975135083368821 0
-10.55368501447786 -5.711368716444897 0
-8.12737885950888 -8.828686928077589 0
-4.820345095835619 -10.9892799198607 0
-0.9909521456679715 -11.95901391608004 0
2.945825845689616 -11.63280319127196 0
6.563377897469155 -10.04599773915032 0
9.469686112756747 -7.370552552275983 0
11.34980690040762 -3.896393630456205 0
3.476735421440674 3.476735421440667 90
1.012690292828946e-14 4.916846385784335 90
-3.476735421440661 3.47673542144068 90
-4.916846385784335 1.588676900374471e-14 90
-3.476735421440683 -3.476735421440658 90
-1.400432058674011e-14 -4.916846385784335 90
3.476735421440664 -3.476735421440678 90
11.69203679938193 0 3.91304347826087
11.38407359876386 0 7.826086956521739
11.07611039814578 0 11.73913043478261
10.76814719752771 0 15.65217391304348
10.46018399690964 0 19.56521739130435
10.15222079629157 0 23.47826086956522
9.844257595673493 0 27.39130434782609
9.536294395055421 0 31.30434782608696
9.228331194437349 0 35.21739130434783
8.920367993819276 0 39.1304347826087
8.612404793201204 0 43.04347826086957
8.304441592583132 0 46.95652173913044
7.996478391965059 0 50.8695652173913
7.688515191346986 0 54.78260869565218
7.380551990728914 0 58.69565217391305
7.072588790110841 0 62.60869565217391
6.764625589492769 0 66.52173913043478
6.456662388874697 0 70.43478260869566
6.148699188256625 0 74.34782608695652
5.840735987638553 0 78.26086956521739
5.532772787020479 0 82.17391304347827
5.224809586402407 0 86.08695652173914
-8.744967354205167 3.99064060528332e-14 3.240497011877475
-2.702343527703491 8.316958187005222 3.240497011877471
-3.012330037630506 -8.213619813920463 3.194571710398031
7.168643975694971 -2.981946600711404 15.70342400393287
6.976236808333668 3.393019104372032 15.78610614134683
-5.934177782981534 -3.813664492701513 24.72664654045613
-2.795427131295434 6.480953082873573 24.67382784405374
7.687300192151987 -3.168853523554779 8.706048619237766
7.758766473945395 2.989507640523858 8.70650994118126
1.003884701235973 -6.982171462342376 24.72664654045613
4.676144977262283 7.394360797721171 3.190780535174333
4.62895358367275 -7.415148793447738 3.286137825997031
4.619368438485867 5.331035364021193 24.72664654045612
6.572533563284569 -2.9725614102056 22.69986680762388
1.09153659292831 6.972343776421262 24.68475211807599
-0.993822014863002 7.242143204116632 21.47329446728359
-4.494229744025694 5.779908370591792 21.32642792471675
-2.8228920172327 7.02251130087143 18.18709205077568
-5.862076086423948 4.816198633836402 17.95626526976244
-4.469154640819347 6.430103873582462 14.85759517250214
-6.964546429378742 3.63062364442774 14.5604863500424
-7.479393086341951 1.439784345556999 17.57634202947706
-7.889032098895433 0.004550497394775024 14.11616893121567
-7.358831946615438 -2.110110427623813 17.08490855370656
-7.098420801605298 -3.547721267812026 13.52435886138188
-5.415234600860934 -5.489606103407445 16.37745756806169
-4.728260065973469 -6.443205601134452 12.80842857946946
-2.329815054042401 -7.41872523377187 15.55292869683888
-1.334211692618013 -7.947425538371204 11.96110116039278
-5.90419158841526 5.53820729491589 11.49739391662844
-2.761913797408128 7.591149172185334 11.71541209231422
-6.629140343249058 -4.849800660330032 9.989960272083019
0.9015928038210431 7.510485833662536 18.24092700252596
1.275739057161331 -7.746920611012535 14.59612117190069
2.258930817936684 -7.814345707388991 10.99981549900326
-2.993937288908804 -6.867398711032926 19.16539897515627
-0.343258280934873 -8.331300318909697 8.406823767838146
-4.435219097128017 7.061803455196382 8.397799131850688
-0.8522892347388055 8.284922674652167 8.530364066145985
0.951605898432572 8.016545540096464 11.780833901373
-7.094620978756296 4.42493678987525 8.113648602442996
2.802052217795779 7.840767302692107 8.558753344001175
3.734534097152046 7.161928389076613 11.72622697038729
-7.311488130159608 -0.9591708340116543 20.65857324628409
4.306900134427273 -6.676746967929969 13.40079695075123
3.50192585147098 -6.803872118857931 17.12542636408103
3.202863208726457 -7.790277447021141 7.331611045093144
-6.101793647665753 6.070165154730486 4.994762494500073
-7.066831780761885 0.05621523536394937 24.56039024157159
0.9745696033632517 8.515693597070987 5.447417056299932
-5.917461966163835 3.85847236083316 24.59555286233151
2.912024438261127 6.708822776772635 21.42822628454168
4.657988276436039 5.983494335551282 18.00706293164387
5.995332594860081 4.282949993789962 20.73631093446836
-5.853023560271098 -4.454653501847122 20.89669905780723
-3.009869542245 -6.512661059186252 23.19462907355834
-0.9572466693331452 7.762975697117886 14.97080973522338
5.362679889811257 -6.231122928785116 9.8978339920846
6.118034724183092 -5.902671764638423 6.336747845233688
7.107139015714494 -3.706752868651447 12.50672102480365
0.8959471117035198 -8.602600701228349 4.458218493842114
4.47640724325085 -5.45799918227516 24.66409711060486
2.304395233673723 -6.943021337245538 21.40425978545931
-7.78834294428292 2.296284972363379 11.18395567466678
-8.325237594527753 1.086489797560416 7.67664740923406
2.295893071698146 7.486028832990558 14.86394495776716
8.068547128616407 2.947388153423403 5.209211352145237
6.321874160798092 5.630939637600743 6.784799571213707
8.058400031217131 -2.962727053459617 5.263205231864662
-3.969175625495764 -7.249980341432619 9.334183274078926
-5.810470727677282 -6.184087258355442 6.536747086555403
7.48326837510491 2.93793712549002 12.20650662587545
-8.042699667090805 -1.400934379444328 10.62492479689081
-7.958170788498747 -2.835026866942815 7.012955951984402
-7.922054962669439 -3.677233782716359 3.381125507074293
6.789098808639292 -3.162267178930328 19.19341266647666
0.3464450486423246 -7.557218866019974 18.23142510827019
-6.787481423515803 2.811768556225805 21.00548583777283
-7.793861016583601 3.679339721448005 4.845008076407002
-5.775997127952085 -6.583002950834027 3.078161078668377
-0.5407432766606651 -7.278821311100844 21.61478447071381
6.974044505794875 -5.304336856301026 3.023611046272156
6.968460101984137 5.312323365908441 3.018586789552079
5.305485279782801 5.79614298019024 14.51429911673469
6.498545462919641 2.958907999772596 23.62764197222154
-2.788425921757793 -8.022856081692556 6.434199276727518
5.104175946493341 -5.429855128817223 19.66610617162292
5.947721931268322 5.676864807137468 9.88472706254589
7.053300533310545 2.651066953684493 18.61376416006378
0.9211984618445193 8.76461790065779 2.377383429497059
-2.710181005819019 8.066390764030141 6.232280843197232
4.209288311833936 7.403884436733625 6.139839084023647
6.457188819313093 -2.693083048611153 25.4596312263004
-5.906578776740818 6.55992030927291 2.195079817236976
8.414634250499734 -2.570537500728684 2.560206124099389
8.42654049977503 2.540385271450058 2.526700419785779
5.687698679494296 -5.281939498544141 15.73015285038482
-8.079219321078654 3.586925308475814 2.037148218759735
-2.87242248923926 -6.333667509564885 25.98955077666348
6.430348102805901 2.675884181301492 25.85848768560622
-3.069192021336539 1.899625866277265 28
2.132615691616876 -2.581927110044959 28
2.324942550313714 2.683126734766938 28
-0.7153520490722088 -3.660808355745202 28
-0.02339691204406182 0.03894918886039477 28
-3.550118259908175 -1.143095598275568 28
3.777570691836571 0.02335813559706145 28
-0.544094954202776 3.784263528831395 28
-10.31983202371846 1.149080830487037e-14 0
0.9488176199968067 -10.27550570308071 0
0.9488176199968186 10.27550570308071 0
9.911860172928041 2.106830918111609 0
9.911860172928025 -2.106830918111621 0
5.751328656082406 -3.262518266187241 68.45789618475105
8.77343330383488 3.327916774912209 33.24707803636798
7.45050675826989 3.307316944776842 48.89870345001709
9.052329963051344 -3.467270154498389 29.30509308100174
5.401223563635125 3.261625328055958 72.30302131965854
6.458624605888414 3.255496014924757 60.57416966424052
8.100693098951005 -3.361080937280646 41.03727894087915
7.070274854204965 -3.402215790328353 52.77822000341555
9.846289494351998 3.033015453519402 21.5644084853351
-11.09527489538307 3.809012682760124 3.419408766471423
-6.715361414580685 -9.614058385510042 3.466806459243234
10.06404844396924 -3.384190111689332 17.56243424032282
-3.214321444012538 11.28592505830874 3.370532379956011
-4.839645379371624 -1.785796695050788 86.92812652543348
5.03735348109609 -3.26080356130795 76.22900163682489
4.677600194425406 3.245052061619983 80.13796914691706
4.712243512000855 -10.74283313214681 3.41940876647142
6.404000402998572 -3.358152401692298 60.5949698772406
8.111539840237693 3.335203565040566 41.03541898028838
10.39648856856573 3.358132504818411 13.65428339069373
7.945113376504878 8.630693833987415 3.419408766471512
-11.10303057026784 -3.79342119457037 3.390367395104159
10.63403412832481 -3.613959590986652 9.766532099265325
-1.977922590895115 4.775127544263149 86.80166499961184
3.749531232284923 -3.861298389851503 84.08649270213076
10.31700692552853 -5.583284939902463 3.41940876647138
11.20274762464348 2.774275494978379 5.830233488282502
6.068907339767169 -3.318332645026073 64.58740323053345
7.77974593057135 3.330406456502844 44.9465869410723
9.097838897271011 3.34692504626865 29.30120027615035
4.625131639837782 -3.321225337541321 80.12449647206616
2.253310248605161 -5.415584515087911 77.94418485591646
2.71772129965684 -5.53801025161316 74.09090388948187
-0.8349045485511318 -5.987830734772293 75.65582555196372
3.550073886570858 -5.770999334907432 66.38351256603079
-1.313344169888686 -5.591658787360246 79.4922456446196
-4.051297475813936 -4.33709127077844 77.06404489806761
-3.696249258669128 -5.019909527910079 73.26500147993241
-5.794294836889274 -2.013220487707396 74.53360954531594
-5.747819871163787 -2.886681265372519 70.74840675841982
-5.733222436362451 -1.09801333094007 78.30300261349198
-5.803495783570755 1.702093829006252 75.62797901996596
-5.032529955406897 2.788119301070884 79.3723945193863
-3.616013320037435 4.758991971485305 76.53050438602797
-4.683088813066651 4.163380527396402 72.85504374141115
-1.71440100677273 5.450248474215083 79.87722583491789
-3.339094293223563 -5.61797261209514 69.43460460950905
-5.614372912076328 -3.713769070527645 66.9424776468672
-6.636912148597127 -0.14117233142647 68.12541702539372
-6.851670774610638 -1.078782944708643 64.3432415859732
5.667466398767786 6.08603962135642 46.80645145151245
-6.323093713156855 2.641222853393283 65.4044323358922
-6.930604387260248 1.749733632302266 61.64966906670647
-6.953035862164163 -1.99989028266966 60.54590517940047
-7.396032773828081 0.8612667869486228 57.86391535652926
-6.970339745774212 -2.862257430245079 56.73157792807644
-7.742814633735759 -0.08001006127580559 54.08741638122287
-6.900069579520711 -3.713275350431168 52.91149202865549
6.87980374990453 6.622646377330033 31.13775592605256
-7.977724930889719 -1.015632618867671 50.28970422923115
-6.738318669556782 -4.561419084029324 49.08351177887332
-8.113081181666248 -1.939790858569379 46.48241119771706
-6.800659070948787 3.530405980224578 55.11413814293375
-8.056472368476371 1.796110309539285 47.59417694987679
-8.507346865324886 0.8735075186763437 43.81005636731661
-8.162267180189909 -2.839743744068517 42.66553440296035
-8.850508963274869 -0.05845966267559983 40.0156247696049
-8.136775387007388 -3.71144342065971 38.83954541480938
-9.100893596221086 -0.9506213169314266 36.20751424432834
-6.306888388204514 -6.053605942910135 41.39650831069567
-6.00247883841335 -6.765964049157382 37.54964688685134
-8.635763600921203 2.757132355814562 37.28993084853203
-9.177006343078959 1.856324802772596 33.5078780335
-7.21802006987397 4.436918868152312 44.81903275773369
-7.611101442039617 5.318266483805248 34.49625208071195
-8.42442050596096 4.564385201121831 30.73039982446377
-9.611453151722825 0.9877202217044266 29.70619998576349
-9.145114205691213 3.734005346075986 26.96190672764869
-9.960691689037159 0.003574622694877442 25.91186076929243
-9.766901784994575 2.855168918520767 23.18024800085002
-10.21885321675081 -0.9264483969848695 22.09909499490508
-9.345753733682294 -3.702577281875382 24.74569071837439
-9.29642489133928 -4.560100717006786 20.90660941005054
-7.445698836998544 -6.902434840658334 23.46921809732968
-7.173903699546942 -7.607898906649108 19.60800018067869
-4.56053112239082 -9.192701630004558 22.08613052993281
-4.159814326028434 -9.713911068099673 18.20640749999396
-10.28889232011655 1.961784293611375 19.38649810718504
-8.853971570653382 5.446428907399032 20.39322915832774
-7.006969204817774 6.857007032147463 27.904285658793
-9.193935484204522 -5.389736701025981 17.06081895145316
-9.631911221548089 4.641686156028642 16.61965628608045
-7.321405638226738 7.691739124893552 17.54567118036522
-1.095650823863463 -10.32075228510505 20.59997917748922
-1.541856318829434 -9.953774246138295 24.49140742774443
-0.6488613771682018 -10.66552320054859 16.7055786010384
5.281371522908565 6.020814486572483 50.71124743067578
-8.308895631166456 7.077456063230962 13.79152546155489
-5.323280120913652 9.451488624154118 14.64408122430048
-4.060685117654968 9.74246457952715 18.36241921391884
-1.651400986657122 10.66184661077507 15.38746280114586
-4.828035437998467 -5.916166012489696 55.44783870839501
2.044100231799705 -9.989420090222804 22.91673232905124
-0.2622069687399801 10.49616452667732 19.06643349961177
-3.307581330254544 -8.20998195172829 40.00918516860625
-2.886948202233147 -8.688899325153017 36.1370670067535
-3.761168923583685 -10.2015867003525 14.32185958022829
-10.31555434078327 3.79022499601498 12.83536703550366
-0.1996082951129452 -10.99022788091842 12.8073409331373
2.229311952694885 10.50522019800013 16.02053514286515
1.606346959771314 -9.758203145444131 26.81601536799904
0.8497119458999512 10.99382214190821 12.36808825691764
-5.68432335681939 -7.421546819109259 33.69292326983074
2.559411286090349 7.771602307181732 48.50975487674034
3.180459013691219 7.865096986687685 44.67740155126965
-4.965681066845247 5.038310745197159 62.58978775044084
2.941244416444523 -10.40310838786985 15.1089339262518
0.2351990654265938 -8.966967495753931 38.49914544446661
-0.2169875400203778 -8.661447860732924 42.38579698433659
2.114933488788691 7.586451962866545 52.40375930254235
-1.025003647152761 7.992539699405144 50.08789114044457
3.56904919281308 9.824829618591245 19.65638922048361
1.132934653356092 10.14825585918768 22.7275944949203
5.273790359995054 8.701055993426786 23.1946835145981
2.506571935823962 9.602864226855102 26.37031707547204
-6.518340940348926 9.035496722091827 10.91058766872572
4.607334846822787 9.969118370164344 12.93113800856929
0.6711168994628151 -9.252072692433027 34.60685889664007
-3.88292448679299 5.560343748174233 66.30191198372451
-1.871227197231675 6.761897099994232 63.32728286324648
0.0220065128604024 6.73221832329738 66.93305547622435
-1.384379533973344 6.048573482691768 73.63274019164869
-6.675281537075684 6.021962132379878 38.24333607464346
-4.736928541493736 7.906908678536833 35.35819171521737
-3.517191530943558 8.20307939445061 39.06764831291228
-1.108160387090304 9.091715443688313 36.09830812759748
3.359063367678635 -10.59965516131776 11.19197503095676
0.2094383924126234 -11.29780030080743 8.897628931690248
6.20650541755443 -9.014183411300701 13.41480552238804
5.868472996227672 -8.868829748409045 17.34881343309996
3.308919754513426 10.77102126563096 9.303183035166233
6.847055141989905 6.202946314146502 35.08211589533592
-2.479922628719176 9.117221423987965 32.42015673723402
5.006289732697706 -8.679958576453327 25.15561115751894
4.585015009429661 -8.562571217308111 29.06064729234986
-2.999162609925648 6.653693617541195 59.73951607625191
3.736808880437977 -8.29529683617017 36.87194936086276
6.543849214633 -9.148683004464804 9.553451001692675
6.768818616085039 8.959262289991408 9.799400323523869
-7.683048078211475 -6.162987586699054 27.32534248693103
-2.010423238951967 -9.557722008385966 28.37454063902783
4.869395229854732 5.967572885668748 54.60950932038541
0.714827870708048 7.218328970051143 60.30825803602251
1.387480857145249 9.294023577906874 33.07400186444131
-1.364823799674682 9.879570146617315 25.75043100208465
-1.483119335253584 7.609755768509544 53.96405717367092
-2.938971707952532 -6.173395112129454 65.5986106619699
-6.328212781119829 5.179799524688726 48.56551025085827
-3.993267965671766 7.401909001140717 45.61048127023685
-0.2698238734397669 11.30845228468699 8.746050780597628
1.954641802973405 11.38840619598595 5.655143417503355
0.2893952818735452 8.866137283444431 39.75950579317555
7.555389553609124 6.327109171504115 27.25790563377245
6.847768668730841 7.882095656762029 19.80599978573111
-5.541762679645312 -0.1441054360207105 82.03588298000484
7.786678264746992 7.693893025432021 13.38454385797529
9.41039617705137 6.069635350109593 10.18990786220428
8.808940705700948 6.021196707085242 16.89725996300462
3.912059945865616 -5.904920860886151 62.47334619707951
4.335126726537793 -5.985316463869765 58.57110182918325
1.00500669596826 -7.187911873707151 60.25496605966829
1.46036036470099 -7.422746563133512 56.35151921815741
1.662836419074731 7.384738028487261 56.29311914561482
8.843885703634772 -6.681268039486156 11.63968544244336
9.154840268098761 -6.842174391495612 7.252791659212082
6.119202413671917 6.083021033504105 42.84134691314983
1.535109642270966 -5.354756746510245 81.69510085017832
-1.953860722473579 -5.098691288636047 83.09552515477752
5.039819681495067 3.257890743426709 76.22279286887505
2.28470135090424 5.401979773432058 77.9492939984825
1.905266028515946 5.878640105164509 73.95417423653693
3.001538667645421 5.75513309054751 70.00072301458556
4.748878644575878 -6.060269626308475 54.64599072357681
1.899993215536742 -7.640852324925484 52.43167275661357
4.320687198963485 3.217221342405531 84.02721451861876
2.106125754117735 5.143858109894458 81.84916693821681
1.60994041535109 4.932870336411617 86.54269886580029
7.501743445254538 -6.387525387332496 27.28342859985657
7.83938493391722 -6.460976401921312 23.39531782807214
1.649924346184633 -4.876687544765762 87.05991884641979
5.405261754120382 -3.238914735667596 72.4077987685083
5.700147967462671 3.358965616027625 68.40743996018745
10.30705967472988 -3.622405608242179 13.65819516018563
4.152526299083042 -8.437607346450541 32.98431008283771
6.759224819050935 -6.293843660812247 35.12277554122036
1.127372687450512 -9.514693994782411 30.73311982320068
6.106496054417921 3.263923034918866 64.49604227893074
3.679897486301208 5.700174116277776 66.26528711331287
8.54267672679147 -6.567577700053421 15.55933595907401
8.223338998073338 -6.472811219622359 19.50137477523838
7.112188280067173 -6.363813810805655 31.21082407652218
-2.463006165551013 -9.134083771520295 32.26953877191204
2.499160966001641 -10.20240890216185 19.00791559940734
-2.729323744544756 9.893576037964124 22.06889116768674
6.730466368809507 -3.397390515558454 56.67823430549775
6.802354484989245 3.250466119561212 56.68150668943525
8.44338852787504 3.335170595974714 37.12466883329389
7.420333811779025 -3.369978243180093 48.9223125446716
5.166322509590684 -6.119272670183901 50.7165670822467
5.664564398288387 -6.090465883290619 46.79040168533272
2.394526226014976 -7.822617740116146 48.52628254809157
-1.201869629994916 -7.96821783400046 50.08342661352798
8.398293021496595 -3.438152929389943 37.16803173530875
9.441193644968545 3.301159746903018 25.3909421730518
6.025236410727509 8.84224082359164 16.51884005761675
8.734404269146358 -3.436125792574682 33.21416646786427
9.371845135166303 -3.483840013826581 25.43234549632193
-6.580464659834553 -5.284856092903043 45.23512834926929
-7.487250695969646 2.694335383535401 51.36757919289973
-7.984614896866332 3.623563030959327 41.06177296430742
-7.978400613790604 6.191237907871814 24.156695635285
3.358221357100699 -8.123840058910821 40.77945274804836
2.946789033558709 -7.95312916380708 44.70679121092139
-6.293348828406503 0.776567104144398 71.9033957280745
5.456106775895041 -8.769786731533596 21.23820702727399
-3.341184171284198 -10.66348781904839 10.48667862142431
-6.537511946683297 -8.927962978080322 11.87263060896169
-3.174989752957706 -11.04136501155969 6.49553583433955
0.6024344238086012 -11.58743989143843 5.043223595873461
-6.877752827920248 -8.27533666660716 15.75151310674105
-9.034567329526478 -6.205589814354682 13.20798880803198
-8.844572500388789 -6.963728784614188 9.440748326599332
-10.56264700976524 -3.608020013174314 10.64946368603702
-0.01215916883969014 9.681479059690673 29.45950473480545
-0.8749338620648566 8.323968805617344 46.125750262742
-5.033141868592157 8.677502832410568 25.01179655777312
-3.794603474160219 8.968933036127339 28.73352084608906
-5.565123574408382 3.470340980517097 69.14086666959113
-4.538070651654097 -6.515386970763651 51.58658903161427
-10.72340020904888 1.043898816316215 15.57665079743321
-10.40908479054571 -1.804499552438815 18.24179880632815
-0.733888794820616 -8.328761670017922 46.23746665084052
-9.26598547848427 -1.860945215104897 32.38797942567883
-8.060609962475661 -4.533229788331619 34.96877980497996
-2.916264091447054 10.6872143673562 11.71565802019801
-5.473677597257538 6.758260332233966 41.9704788183403
-3.014295691984033 5.754219237274372 69.93592736064353
-4.960596349103177 6.161694804615323 51.96363955897985
-2.190128292525683 8.352461506366836 42.75854927479924
2.908701227969379 8.651453751095628 36.50070398648546
-5.180286857848589 -5.19142982765452 59.28822581883404
-0.2650462319878416 -6.344775080308733 71.78613461459763
6.352130191077047 -6.272812409100017 39.04160934918227
3.782271349247635 -10.78708520247764 7.23037364427269
3.780473688778486 8.866632814697072 30.00011540676755
3.174488351863717 -5.640873600558055 70.23003767861653
-5.945796449482661 7.414785078390921 31.71099903142023
6.301637597742067 6.346860353770315 38.83148517564043
6.011299840878484 -6.180103110313817 42.92854791667062
5.59522368141371 10.05450908582003 6.270435428017657
-5.323666182078565 -8.047226451299109 29.87487220574482
-7.884810575439118 -5.382113650119037 31.17352675029438
-9.336732588358059 -2.812037258870294 28.57617107379221
-5.971399679073397 4.302400486734657 58.95794314398658
-4.372019068600009 -3.57122746758982 80.7454648974323
-11.07172528789361 0.08791398587617334 11.79041368616234
-10.89659834702983 2.919134460063229 9.1378784341696
-9.156469504403093 6.45747313551243 10.10831158594543
-7.893015578447773 8.272081146426705 7.196898572529211
-10.50943419742859 -2.746912886298496 14.4534065513364
-4.231121585184012 10.58929431656061 7.581629071077532
-4.958839339463347 -8.634282349074187 25.95936949002287
7.118579986923725 3.295811263023795 52.80033197043024
4.106774528157629 5.787296716107326 62.30658659791344
-5.403989051571502 -4.499762343067054 63.1226771275302
-6.22678828849764 8.235627825321153 21.28730291124878
7.742074844424313 -3.39079429278963 45.08093427185425
-3.753266849568639 -7.679054253310197 43.87179162364546
-4.193995441843336 -7.102694356578426 47.6672403116334
9.707834193799421 -3.448979592611783 21.57124998111466
-6.214951321934 -9.516655295326469 8.052161026671637
-11.31537724033753 -1.000144085035114 8.138430378224909
4.357615711115295 5.968468714328154 58.57617683576657
7.78870685888679 6.516115734713829 23.4431392999954
-4.740541449263215 2.043938581824164 86.87989086518061
-4.06259539768217 3.594617729955063 83.54876179366674
0.08666458464047465 -6.649159878904092 67.98169406400606
7.983739988406651 -8.602990854984787 3.344770207887588
-9.473438909582596 -6.918938755324326 3.417212361117256
-11.73699778457161 0.02749104959222587 3.341350912823137
-6.416616474375022 9.821362658307825 3.409428593027147
-9.24506610509323 7.182379419428336 3.720762272459959
0.5461084021645527 -6.929652642842896 64.15187366962456
-2.497923658025684 -6.684642030003239 61.80158594813183
-1.971994668838013 -4.760816274436128 86.99848928032985
-4.287897139801764 6.253353416079641 56.13285627918917
-2.085972997038461 -7.140981347217122 57.94772467423079
-1.640090237795164 -7.57803258084157 53.95713477685771
-10.48777802716484 -4.584413196737535 7.039561403835725
8.268584951456406 7.93746445392021 6.838490576308564
11.06464513984306 -3.199763105019005 6.124097242999212
10.10267250685396 5.977212415449143 3.323388145676667
3.524197352238066 8.064033367937084 40.6536457938415
-2.887539075885403 -11.40263394254365 3.016893744587233
4.429864367798386 10.90117636151003 2.962135536119852
10.85107631115423 2.902041073257676 9.752779514148312
-10.0823082405852 5.453783588360494 6.825268249717762
4.306341261289861 8.335675419271473 33.26068919277913
10.17983830522417 3.00909750682238 17.59477147795525
-0.7369445365781552 5.351033112571589 83.84137399982812
6.651830791902565 -9.381339293569447 6.349577916469189
-4.352316181007913 -3.172831440088063 84.03822536285237
1.037519539286445 11.74181040635762 2.699312785191247
-11.4164570335549 1.572345015019566 6.045295553618368
1.327286534908556 6.8383343519568 63.96362722171089
-0.7876148426830242 5.9077981270195 76.74460695062356
-8.709368893277789 -7.496809037351698 6.460729162779683
-4.021018848085705 7.099592288853677 48.80178979027576
-1.386214035356467 7.376165624926773 57.11067950771825
5.134462858127221 8.497589762334355 26.32306059243652
-0.008480178490245608 6.443042450567876 70.60776942377765
4.274572284405392 2.866604329905416 87.07836182472789
4.111610429763454 -3.087479082249852 87.14198965197744
11.42395651398019 2.851827827667638 2.864788304020534
11.42505284540273 -2.848531659604395 2.861410277246407
0.814243920343479 8.599691887961496 42.71631150911563
-1.018905890348426 11.50120395358122 5.765455512362056
-5.312269994735659 0.05081533454212984 84.97257860979744
8.795904192469486 5.618874340314238 19.85449599496202
0.9923138320187632 -11.79079756937096 2.128537450766555
0.7532733393722124 -5.305562025717646 84.38483611849047
-11.42776653932258 -1.843389631486222 5.393930362757127
10.0928194427357 5.305459694093763 7.594241389536652
0.5473750369420712 1.321480237890017 90
-0.7398602367303317 -1.78618061777492 90
2.201188615676791 -0.935382126248411 90
-2.217890441286627 0.8950603523447548 90
-0.01077509980410696 0.006532519202536946 37.05592484318928
-0.009275598043426925 -0.0001078465840388634 46.38606153521127
-0.02921609250268276 -0.02920212654571726 54.09975663438046
0.0630711302244753 -0.009856847995698637 63.05092015409973
-0.003812019269605209 -0.001396785745898299 69.92321694754746
0.001941256962376681 -0.008384722301275183 76.18716984279145
1.194815904381457 3.801837654419774 33.26389445570418
-3.28444066113079 -0.04641059349625309 41.72148412274945
1.6501103604086 -2.807497366756986 41.67096990567332
-3.744041775911608 1.512424854463564 33.38925738901396
1.003158207370919 -3.892732204865964 33.25888953084468
-0.1179695563405221 -0.2233505899132684 85.07682962330969
1.576543761313247 2.851259409742153 41.68356427053077
4.527414771187072 -0.1307383145092313 33.10021072722761
-2.473348786507147 -0.4067168526764813 58.60185013553023
2.407539352155251 0.9083822203044649 58.66718554989917
1.161440258802592 3.078449536935064 50.25762772640851
2.844322438387106 -1.674317268552839 50.19122837381459
-2.948787600710267 -1.432152635024561 50.22998951988041
-3.40356045649287 -3.021600150240845 35.22358243427335
-1.960467430717115 4.325341744444453 36.77165093355852
3.701061112579984 -2.921625948228291 37.0180841978941
3.875129123140165 2.542499691257505 36.84256626971523
-0.4250830263063436 -1.220162754142178 80.60034483417594
4.284796334416759 0.3007432699565014 44.67152844258892
-2.193745682789465 -3.847160456255701 39.51056940896187
-2.491607530235795 -3.395134554557662 44.68037210172342
-4.825925192191852 0.4755967805892172 37.57956489328267
0.9122606834007425 -3.214267275042403 57.77285882341778
-2.615426424960128 -0.5678543787309827 66.4620182365601
-2.075128757525189 3.485263190332412 44.31964959836416
2.201272185521753 -1.614370555974775 66.51018402089485
1.521684852108628 -4.120639494002104 46.32168033977247
4.708015729164423 0.02076081369017539 40.32305865604271
-4.470637281199187 0.231604808296485 45.8345935782712
-0.06504380982106972 -0.01574127939179498 32.16659330025125
2.034190511997613 3.831432424148894 45.91533232766572
0.8289960770222149 2.473240637563339 66.49179663206981
-0.7876295645057645 3.138902899790831 56.88399847195993
-2.420992297387401 5.03707701020285 31.62650212374967
-0.1361191721726389 -3.892916061528533 52.29062396612639
-2.899644003232118 2.658773473828393 48.98543934534038
-2.643527172968412 -5.04886630797678 31.70966943497536
-1.890063099549079 2.901497784245255 60.93946639926039
-3.877682618254625 -1.40845285829203 54.45911461728296
-5.270642234401685 -1.882001089273923 31.83467803425406
3.833562632423027 -1.456324462671988 54.45861142702203
-2.419730193411405 0.8202390924313718 73.05833549250791
0.2191547991284288 -2.542291923423225 73.05216057574886
-1.965013683340647 3.429356826596905 52.93492554814002
0.5011491796685634 -5.29993407469632 36.95583831416656
-4.077004833250455 3.517908080654784 40.07496371511989

CELLS 2939 13455
1 0
1 1
1 2
1 3
2 0 4
2 4 5
2 5 6
2 6 7
2 7 8
2 8 9
2 9 10
2 10 1
2 0 11
2 11 12
2 12 13
2 13 14
2 14 15
2 15 16
2 16 17
2 17 18
2 18 19
2 19 20
2 20 21
2 21 22
2 22 23
2 23 24
2 24 0
2 1 25
2 25 26
2 26 27
2 27 28
2 28 29
2 29 30
2 30 31
2 31 32
2 32 33
2 33 34
2 34 1
2 2 35
2 35 36
2 36 37
2 37 38
2 38 39
2 39 40
2 40 41
2 41 42
2 42 43
2 43 44
2 44 45
2 45 46
2 46 47
2 47 48
2 48 49
2 49 50
2 50 51
2 51 52
2 52 2
2 3 53
2 53 54
2 54 55
2 55 56
2 56 57
2 57 58
2 58 59
2 59 3
2 2 60
2 60 61
2 61 62
2 62 63
2 63 64
2 64 65
2 65 66
2 66 67
2 67 68
2 68 69
2 69 70
2 70 71
2 71 72
2 72 73
2 73 74
2 74 75
2 75 76
2 76 77
2 77 78
2 78 79
2 79 80
2 80 81
2 81 3
3 4 176 0
3 0 177 4
3 11 177 0
3 0 176 24
3 1 174 10
3 10 181 1
3 1 181 25
3 34 174 1
3 4 148 5
3 5 150 4
3 4 177 148
3 150 176 4
3 6 89 5
3 5 90 6
3 89 150 5
3 5 148 90
3 7 141 6
3 6 153 7
3 6 141 89
3 90 153 6
3 8 85 7
3 7 86 8
3 85 141 7
3 7 153 86
3 9 157 8
3 8 170 9
3 8 157 85
3 86 170 8
3 10 95 9
3 9 166 10
3 95 157 9
3 135 166 9
3 9 170 135
3 10 174 95
3 166 181 10
3 12 164 11
3 164 177 11
3 13 92 12
3 92 164 12
3 14 171 13
3 13 171 92
3 15 83 14
3 83 171 14
3 16 175 15
3 15 175 83
3 17 179 16
3 16 179 175
3 18 82 17
3 82 179 17
3 19 156 18
3 18 156 82
3 20 161 19
3 19 161 156
3 21 84 20
3 84 161 20
3 22 142 21
3 21 142 84
3 23 93 22
3 93 142 22
3 24 163 23
3 23 163 93
3 24 176 163
3 25 94 26
3 25 181 94
3 26 96 27
3 94 96 26
3 27 88 28
3 27 96 88
3 28 132 29
3 88 132 28
3 29 130 30
3 29 132 130
3 30 87 31
3 30 130 87
3 31 180 32
3 87 180 31
3 32 91 33
3 32 180 91
3 33 143 34
3 91 143 33
3 143 174 34
3 82 155 146
3 146 160 82
3 82 156 155
3 160 179 82
3 129 172 83
3 83 175 129
3 131 171 83
3 83 172 131
3 142 167 84
3 84 167 161
3 85 178 141
3 157 178 85
3 86 165 134
3 134 170 86
3 153 165 86
3 87 130 125
3 125 136 87
3 136 137 87
3 137 180 87
3 96 97 88
3 97 98 88
3 98 132 88
3 139 140 89
3 89 141 139
3 140 150 89
3 148 149 90
3 149 169 90
3 90 169 153
3 137 162 91
3 91 180 137
3 91 144 143
3 91 162 144
3 92 171 131
3 131 173 92
3 149 164 92
3 92 173 149
3 93 140 128
3 128 142 93
3 93 163 140
3 94 133 96
3 94 135 133
3 94 166 135
3 94 181 166
3 143 168 95
3 95 174 143
3 95 168 157
3 96 133 97
3 97 99 98
3 97 114 99
3 97 133 114
3 99 100 98
3 100 159 98
3 98 159 132
3 99 101 100
3 99 138 101
3 114 138 99
3 101 102 100
3 102 103 100
3 103 159 100
3 101 111 102
3 101 112 111
3 101 138 112
3 102 104 103
3 102 145 104
3 111 145 102
3 104 105 103
3 105 125 103
3 125 159 103
3 104 106 105
3 104 154 106
3 145 154 104
3 106 107 105
3 107 136 105
3 105 136 125
3 106 108 107
3 106 113 108
3 106 154 113
3 108 109 107
3 109 117 107
3 117 136 107
3 108 110 109
3 108 151 110
3 113 151 108
3 110 115 109
3 115 158 109
3 109 158 117
3 110 116 115
3 110 118 116
3 110 151 118
3 112 119 111
3 119 122 111
3 122 145 111
3 112 120 119
3 112 121 120
3 112 138 121
3 113 152 151
3 113 155 152
3 154 155 113
3 133 134 114
3 134 147 114
3 114 147 138
3 116 126 115
3 126 127 115
3 127 158 115
3 118 128 116
3 116 139 126
3 128 139 116
3 117 137 136
3 117 162 137
3 158 162 117
3 118 142 128
3 118 167 142
3 151 167 118
3 120 172 119
3 119 129 122
3 119 172 129
3 121 123 120
3 123 131 120
3 131 172 120
3 121 124 123
3 121 147 124
3 138 147 121
3 129 160 122
3 122 146 145
3 122 160 146
3 124 169 123
3 123 173 131
3 123 169 149
3 149 173 123
3 147 165 124
3 165 169 124
3 130 159 125
3 126 178 127
3 139 141 126
3 141 178 126
3 144 158 127
3 127 168 144
3 127 178 168
3 128 140 139
3 129 179 160
3 175 179 129
3 132 159 130
3 133 135 134
3 135 170 134
3 134 165 147
3 140 163 150
3 144 168 143
3 144 162 158
3 146 154 145
3 146 155 154
3 148 164 149
3 148 177 164
3 163 176 150
3 152 167 151
3 155 156 152
3 156 161 152
3 161 167 152
3 153 169 165
3 168 178 157
3 25 188 1
3 1 188 34
3 26 184 25
3 184 188 25
3 27 189 26
3 26 189 184
3 28 189 27
3 29 182 28
3 182 189 28
3 30 187 29
3 29 187 182
3 31 187 30
3 32 185 31
3 185 187 31
3 33 185 32
3 34 183 33
3 183 185 33
3 34 188 183
3 182 187 186
3 186 189 182
3 183 186 185
3 183 188 186
3 186 188 184
3 184 189 186
3 186 187 185
3 0 193 2
3 2 194 0
3 11 193 0
3 0 194 24
3 2 193 35
3 52 194 2
3 11 12 36
3 36 35 11
3 35 193 11
3 37 12 13
3 36 12 37
3 14 192 13
3 38 37 13
3 13 192 38
3 15 40 14
3 40 39 14
3 39 192 14
3 16 41 15
3 15 41 40
3 17 42 16
3 42 41 16
3 18 190 17
3 43 42 17
3 17 190 43
3 18 19 45
3 44 18 45
3 44 190 18
3 46 19 20
3 45 19 46
3 21 47 20
3 20 47 46
3 22 191 21
3 21 48 47
3 21 191 48
3 23 50 22
3 22 50 49
3 49 191 22
3 24 51 23
3 23 51 50
3 24 52 51
3 24 194 52
3 38 192 39
3 43 190 44
3 48 191 49
3 35 518 2
3 2 519 52
3 2 518 60
3 60 519 2
3 3 516 53
3 59 517 3
3 81 516 3
3 3 517 81
3 36 496 35
3 496 518 35
3 37 215 36
3 215 496 36
3 38 499 37
3 37 499 215
3 39 507 38
3 38 507 499
3 40 207 39
3 207 507 39
3 41 485 40
3 40 485 207
3 42 486 41
3 41 486 485
3 43 204 42
3 204 486 42
3 44 484 43
3 43 484 204
3 45 216 44
3 216 484 44
3 46 483 45
3 45 483 216
3 47 205 46
3 205 483 46
3 48 498 47
3 47 498 205
3 49 524 48
3 48 524 498
3 50 211 49
3 211 524 49
3 51 482 50
3 50 482 211
3 52 220 51
3 220 482 51
3 52 519 220
3 53 381 54
3 53 516 381
3 54 218 55
3 54 381 218
3 55 479 56
3 218 479 55
3 56 208 57
3 56 479 208
3 57 489 58
3 208 489 57
3 58 384 59
3 58 489 384
3 384 517 59
3 60 221 61
3 61 495 60
3 60 518 221
3 495 519 60
3 62 217 61
3 61 500 62
3 217 495 61
3 221 500 61
3 62 214 63
3 63 387 62
3 62 500 214
3 62 387 217
3 64 206 63
3 63 503 64
3 206 387 63
3 214 503 63
3 64 203 65
3 65 474 64
3 64 503 203
3 64 474 206
3 65 408 66
3 66 411 65
3 203 408 65
3 411 474 65
3 67 198 66
3 66 224 67
3 198 411 66
3 66 408 224
3 67 196 68
3 68 410 67
3 67 224 196
3 67 410 198
3 68 401 69
3 69 407 68
3 196 401 68
3 407 410 68
3 70 201 69
3 69 213 70
3 201 407 69
3 69 401 213
3 70 223 71
3 71 471 70
3 70 471 201
3 213 223 70
3 71 197 72
3 72 402 71
3 71 223 197
3 402 471 71
3 73 202 72
3 72 467 73
3 197 467 72
3 202 402 72
3 74 399 73
3 73 400 74
3 73 399 202
3 73 467 400
3 74 200 75
3 75 212 74
3 74 400 200
3 212 399 74
3 76 222 75
3 75 391 76
3 200 391 75
3 75 222 212
3 77 195 76
3 76 386 77
3 195 222 76
3 76 391 386
3 77 199 78
3 78 385 77
3 77 385 195
3 77 386 199
3 79 209 78
3 78 373 79
3 199 373 78
3 209 385 78
3 79 210 80
3 80 225 79
3 79 225 209
3 79 373 210
3 81 219 80
3 80 379 81
3 210 379 80
3 219 225 80
3 81 517 219
3 379 516 81
3 195 229 222
3 195 450 229
3 385 450 195
3 224 253 196
3 253 336 196
3 336 401 196
3 223 245 197
3 245 291 197
3 291 467 197
3 198 395 382
3 382 411 198
3 198 410 395
3 199 375 373
3 199 376 375
3 199 386 376
3 200 468 391
3 400 477 200
3 200 477 468
3 201 447 407
3 201 453 447
3 201 471 453
3 202 399 377
3 377 403 202
3 202 403 402
3 203 478 408
3 203 523 478
3 503 523 203
3 484 508 204
3 204 501 486
3 204 508 501
3 422 475 205
3 205 498 422
3 475 511 205
3 205 511 483
3 206 393 387
3 206 394 393
3 206 474 394
3 207 485 465
3 465 521 207
3 207 521 507
3 479 522 208
3 208 506 489
3 208 522 506
3 225 226 209
3 226 227 209
3 227 385 209
3 373 374 210
3 374 380 210
3 210 380 379
3 211 448 423
3 423 524 211
3 211 505 448
3 482 505 211
3 222 363 212
3 363 364 212
3 364 399 212
3 213 370 223
3 213 452 370
3 401 452 213
3 214 361 360
3 360 362 214
3 214 500 361
3 362 503 214
3 454 494 215
3 215 499 454
3 494 496 215
3 483 493 216
3 216 526 484
3 493 526 216
3 368 369 217
3 217 387 368
3 369 495 217
3 381 504 218
3 218 480 479
3 218 504 480
3 219 371 225
3 219 525 371
3 219 517 384
3 384 525 219
3 369 482 220
3 220 495 369
3 220 519 495
3 221 518 496
3 496 527 221
3 221 527 500
3 229 363 222
3 223 370 245
3 224 357 253
3 224 408 357
3 225 371 226
3 226 228 227
3 226 230 228
3 226 371 230
3 228 446 227
3 227 450 385
3 446 450 227
3 230 231 228
3 231 232 228
3 232 446 228
3 229 487 363
3 450 481 229
3 481 487 229
3 230 459 231
3 371 372 230
3 372 459 230
3 231 233 232
3 231 235 233
3 231 459 235
3 233 234 232
3 234 241 232
3 241 446 232
3 233 418 234
3 235 236 233
3 236 418 233
3 234 242 241
3 234 243 242
3 234 418 243
3 235 237 236
3 235 359 237
3 235 459 359
3 237 238 236
3 238 239 236
3 239 418 236
3 237 240 238
3 237 480 240
3 359 480 237
3 238 326 239
3 240 510 238
3 238 510 326
3 326 441 239
3 239 432 418
3 239 441 432
3 240 380 374
3 374 510 240
3 240 504 380
3 480 504 240
3 242 351 241
3 351 481 241
3 241 481 446
3 243 244 242
3 244 469 242
3 242 469 351
3 243 246 244
3 243 432 246
3 418 432 243
3 246 247 244
3 247 248 244
3 248 469 244
3 245 308 291
3 245 309 308
3 245 370 309
3 246 310 247
3 246 323 310
3 246 432 323
3 247 249 248
3 247 458 249
3 310 458 247
3 249 250 248
3 250 445 248
3 445 469 248
3 249 251 250
3 249 257 251
3 249 458 257
3 251 252 250
3 252 296 250
3 296 445 250
3 251 254 252
3 251 413 254
3 257 413 251
3 254 255 252
3 255 433 252
3 252 433 296
3 253 502 336
3 357 449 253
3 449 502 253
3 254 256 255
3 254 258 256
3 254 413 258
3 256 412 255
3 412 473 255
3 255 473 433
3 258 259 256
3 259 260 256
3 260 412 256
3 257 442 413
3 257 490 442
3 458 490 257
3 258 268 259
3 258 352 268
3 258 413 352
3 259 261 260
3 259 414 261
3 268 414 259
3 261 262 260
3 262 264 260
3 264 412 260
3 261 263 262
3 261 266 263
3 261 414 266
3 263 438 262
3 262 265 264
3 262 438 265
3 266 267 263
3 267 437 263
3 437 438 263
3 265 299 264
3 299 472 264
3 264 472 412
3 265 300 299
3 265 307 300
3 265 438 307
3 266 269 267
3 266 327 269
3 266 414 327
3 269 270 267
3 270 271 267
3 271 437 267
3 352 353 268
3 353 440 268
3 268 440 414
3 269 451 270
3 327 328 269
3 328 451 269
3 270 272 271
3 270 284 272
3 270 451 284
3 272 273 271
3 273 457 271
3 271 457 437
3 272 274 273
3 272 415 274
3 284 415 272
3 274 275 273
3 275 276 273
3 276 457 273
3 274 282 275
3 274 283 282
3 274 415 283
3 275 277 276
3 275 435 277
3 282 435 275
3 277 278 276
3 278 344 276
3 344 457 276
3 277 279 278
3 277 285 279
3 277 435 285
3 279 280 278
3 280 466 278
3 278 466 344
3 279 281 280
3 279 424 281
3 285 424 279
3 281 288 280
3 288 289 280
3 289 466 280
3 281 290 288
3 281 301 290
3 281 424 301
3 283 286 282
3 286 434 282
3 434 435 282
3 283 287 286
3 283 470 287
3 415 470 283
3 284 430 415
3 284 431 430
3 284 451 431
3 285 425 424
3 285 464 425
3 435 464 285
3 287 292 286
3 292 302 286
3 302 434 286
3 287 293 292
3 287 294 293
3 287 470 294
3 288 297 289
3 290 397 288
3 288 397 297
3 297 305 289
3 305 345 289
3 345 466 289
3 301 303 290
3 303 311 290
3 311 397 290
3 308 314 291
3 314 346 291
3 346 467 291
3 293 320 292
3 292 462 302
3 320 462 292
3 294 295 293
3 295 439 293
3 293 439 320
3 294 298 295
3 294 398 298
3 294 470 398
3 298 304 295
3 304 306 295
3 306 439 295
3 433 492 296
3 296 491 445
3 296 492 491
3 297 338 305
3 297 419 338
3 397 419 297
3 298 316 304
3 298 317 316
3 298 398 317
3 300 312 299
3 312 313 299
3 313 472 299
3 307 396 300
3 300 322 312
3 300 396 322
3 301 420 303
3 301 421 420
3 301 424 421
3 302 460 434
3 302 461 460
3 302 462 461
3 303 331 311
3 303 332 331
3 303 420 332
3 304 321 306
3 316 409 304
3 304 409 321
3 338 339 305
3 339 390 305
3 305 390 345
3 321 335 306
3 335 354 306
3 354 439 306
3 307 455 396
3 438 456 307
3 307 456 455
3 309 429 308
3 308 315 314
3 308 429 315
3 370 497 309
3 309 520 429
3 497 520 309
3 323 324 310
3 324 340 310
3 340 458 310
3 331 333 311
3 333 334 311
3 334 397 311
3 312 416 313
3 322 341 312
3 341 416 312
3 416 417 313
3 417 436 313
3 436 472 313
3 315 350 314
3 314 367 346
3 350 367 314
3 315 442 350
3 429 512 315
3 315 512 442
3 317 318 316
3 318 358 316
3 358 409 316
3 317 319 318
3 317 349 319
3 317 398 349
3 319 514 318
3 318 478 358
3 318 514 478
3 349 428 319
3 428 449 319
3 449 514 319
3 439 465 320
3 320 463 462
3 320 465 463
3 321 343 335
3 321 360 343
3 321 409 360
3 322 388 341
3 322 390 388
3 322 396 390
3 323 325 324
3 323 441 325
3 432 441 323
3 325 509 324
3 324 347 340
3 324 509 347
3 376 392 325
3 325 515 376
3 392 509 325
3 441 515 325
3 326 510 375
3 375 515 326
3 326 515 441
3 327 329 328
3 327 440 329
3 414 440 327
3 329 330 328
3 330 337 328
3 337 451 328
3 329 356 330
3 329 443 356
3 440 443 329
3 330 348 337
3 330 444 348
3 356 444 330
3 332 448 331
3 331 342 333
3 331 448 342
3 420 422 332
3 422 423 332
3 423 448 332
3 333 393 334
3 342 368 333
3 368 393 333
3 393 394 334
3 394 419 334
3 334 419 397
3 343 454 335
3 335 355 354
3 335 454 355
3 336 452 401
3 444 452 336
3 336 502 444
3 348 428 337
3 428 431 337
3 431 451 337
3 338 382 339
3 338 383 382
3 338 419 383
3 382 395 339
3 388 390 339
3 339 395 388
3 347 513 340
3 340 490 458
3 340 513 490
3 388 389 341
3 389 447 341
3 341 447 416
3 342 369 368
3 342 505 369
3 448 505 342
3 360 361 343
3 361 494 343
3 343 494 454
3 455 456 344
3 344 466 455
3 456 457 344
3 390 396 345
3 396 455 345
3 455 466 345
3 367 477 346
3 400 467 346
3 346 477 400
3 347 477 367
3 367 513 347
3 468 477 347
3 347 509 468
3 348 449 428
3 444 502 348
3 348 502 449
3 398 430 349
3 349 431 428
3 430 431 349
3 350 513 367
3 442 490 350
3 490 513 350
3 469 488 351
3 351 487 481
3 351 488 487
3 352 512 353
3 413 442 352
3 442 512 352
3 429 443 353
3 353 512 429
3 353 443 440
3 355 521 354
3 354 465 439
3 354 521 465
3 454 499 355
3 499 507 355
3 507 521 355
3 443 520 356
3 356 497 444
3 356 520 497
3 408 478 357
3 357 514 449
3 478 514 357
3 362 409 358
3 358 523 362
3 478 523 358
3 459 506 359
3 359 522 480
3 506 522 359
3 360 409 362
3 361 527 494
3 500 527 361
3 362 523 503
3 363 365 364
3 363 487 365
3 365 366 364
3 366 377 364
3 377 399 364
3 365 491 366
3 487 488 365
3 488 491 365
3 366 378 377
3 366 492 378
3 491 492 366
3 387 393 368
3 369 505 482
3 452 497 370
3 371 525 372
3 372 506 459
3 489 506 372
3 372 525 489
3 373 375 374
3 375 510 374
3 376 515 375
3 386 392 376
3 378 403 377
3 378 405 403
3 378 406 405
3 378 492 406
3 380 381 379
3 381 516 379
3 380 504 381
3 383 411 382
3 383 419 394
3 394 474 383
3 383 474 411
3 489 525 384
3 391 392 386
3 388 395 389
3 395 410 389
3 389 410 407
3 407 447 389
3 391 468 392
3 468 509 392
3 398 470 430
3 403 404 402
3 404 471 402
3 403 405 404
3 405 417 404
3 417 453 404
3 453 471 404
3 406 436 405
3 405 436 417
3 433 473 406
3 406 492 433
3 406 473 436
3 472 473 412
3 430 470 415
3 416 453 417
3 447 453 416
3 421 475 420
3 420 475 422
3 424 425 421
3 425 426 421
3 426 475 421
3 422 498 423
3 498 524 423
3 425 427 426
3 425 464 427
3 427 493 426
3 426 511 475
3 493 511 426
3 427 464 460
3 460 476 427
3 476 493 427
3 429 520 443
3 434 464 435
3 460 464 434
3 436 473 472
3 437 456 438
3 437 457 456
3 444 497 452
3 445 488 469
3 445 491 488
3 446 481 450
3 461 476 460
3 462 501 461
3 461 508 476
3 501 508 461
3 463 501 462
3 465 485 463
3 485 486 463
3 486 501 463
3 476 526 493
3 508 526 476
3 480 522 479
3 483 511 493
3 484 526 508
3 494 527 496
3 53 530 3
3 3 530 59
3 54 528 53
3 528 530 53
3 55 531 54
3 54 531 528
3 56 531 55
3 57 531 56
3 58 529 57
3 529 531 57
3 59 530 58
3 58 530 529
3 529 530 528
3 528 531 529
4 467 346 548 578
4 487 365 488 535
4 534 548 346 578
4 488 535 365 560
4 363 535 212 560
4 346 547 534 578
4 487 363 365 535
4 534 547 346 570
4 535 547 212 560
4 365 535 363 560
4 469 535 488 546
4 356 544 552 554
4 488 546 535 560
4 346 400 547 578
4 346 548 534 570
4 488 469 351 535
4 75 391 200 547
4 75 535 391 547
4 199 78 537 580
4 488 351 487 535
4 75 212 222 535
4 222 212 363 535
4 75 212 535 547
4 548 570 346 581
4 356 497 544 554
4 487 535 351 563
4 199 537 536 580
4 385 78 77 580
4 536 537 375 579
4 395 542 389 545
4 248 247 244 546
4 34 542 395 545
4 351 535 469 561
4 535 561 351 563
4 406 473 550 564
4 253 538 25 545
4 244 469 535 561
4 244 561 535 575
4 25 538 184 545
4 314 548 346 581
4 197 467 548 549
4 374 537 210 555
4 197 72 467 549
4 467 400 346 578
4 473 558 550 564
4 391 535 75 563
4 548 549 467 578
4 406 564 550 572
4 79 210 537 555
4 196 538 253 545
4 199 375 536 537
4 183 542 34 545
4 468 535 509 575
4 356 552 444 554
4 534 570 548 581
4 395 389 410 545
4 356 544 443 583
4 222 535 363 563
4 363 535 487 563
4 246 323 561 575
4 445 469 488 546
4 468 547 535 575
4 197 71 549 556
4 389 545 542 553
4 356 552 544 583
4 222 75 535 563
4 323 569 561 575
4 509 535 468 569
4 356 444 497 554
4 241 536 481 561
4 468 535 391 569
4 374 240 537 555
4 184 25 26 538
4 418 234 243 579
4 481 561 536 563
4 243 234 561 579
4 535 563 391 569
4 561 569 535 575
4 535 569 509 575
4 27 538 348 571
4 453 556 540 564
4 488 445 546 560
4 246 310 323 575
4 374 210 380 555
4 33 395 34 542
4 336 538 196 545
4 560 572 296 576
4 26 348 27 538
4 515 536 375 579
4 72 197 71 549
4 471 556 453 564
4 546 560 296 576
4 351 561 481 563
4 492 296 560 572
4 196 253 25 545
4 379 380 210 555
4 379 210 80 555
4 329 356 443 583
4 536 561 432 569
4 443 544 562 583
4 402 549 556 564
4 446 450 481 580
4 68 553 69 554
4 467 549 72 578
4 346 547 477 570
4 329 552 356 583
4 388 389 395 542
4 536 561 234 579
4 450 536 481 580
4 520 443 356 544
4 262 539 260 557
4 79 537 225 555
4 432 561 536 579
4 540 556 201 565
4 326 515 375 579
4 33 34 183 542
4 402 556 471 564
4 262 260 264 557
4 336 538 545 554
4 313 540 416 582
4 386 77 536 563
4 487 351 481 563
4 69 554 553 565
4 34 395 410 545
4 391 75 76 563
4 313 557 540 582
4 491 492 296 560
4 196 336 253 538
4 388 395 33 542
4 450 481 536 563
4 468 347 547 575
4 379 543 380 555
4 25 253 26 538
4 225 209 226 537
4 225 79 209 537
4 380 543 504 555
4 549 556 533 568
4 226 225 537 555
4 209 537 78 580
4 548 549 533 568
4 195 450 536 563
4 545 553 68 554
4 402 471 404 564
4 241 536 234 580
4 262 539 557 559
4 441 536 432 569
4 323 432 561 569
4 379 80 543 555
4 540 557 313 558
4 473 433 406 550
4 504 543 480 555
4 184 545 538 567
4 541 552 269 559
4 241 481 351 561
4 488 491 445 560
4 312 313 416 582
4 199 78 373 537
4 515 376 375 536
4 197 467 291 548
4 313 540 558 564
4 233 537 231 580
4 444 552 538 554
4 230 226 228 537
4 77 195 536 563
4 27 26 428 348
4 234 536 241 561
4 324 569 323 575
4 230 228 231 537
4 240 237 537 555
4 386 563 536 569
4 447 540 201 553
4 533 540 539 544
4 291 467 346 548
4 539 540 532 544
4 327 269 552 559
4 374 380 240 555
4 410 545 389 553
4 68 407 69 553
4 198 67 1 545
4 201 553 540 565
4 445 546 296 576
4 445 248 469 546
4 29 541 267 577
4 224 25 1 545
4 261 539 262 559
4 198 1 34 545
4 79 80 210 555
4 428 27 348 571
4 312 557 313 582
4 261 260 262 539
4 402 549 71 556
4 226 537 230 555
4 257 570 546 576
4 406 436 473 564
4 367 346 477 570
4 269 552 541 571
4 539 544 532 583
4 1 67 224 545
4 399 212 547 560
4 230 537 231 555
4 270 541 29 571
4 346 400 477 547
4 348 538 330 571
4 240 380 504 555
4 544 552 532 583
4 233 579 537 580
4 235 537 237 555
4 255 550 473 558
4 433 406 550 572
4 240 504 480 555
4 390 542 32 574
4 198 34 410 545
4 510 326 537 579
4 270 267 29 541
4 540 553 416 582
4 263 541 559 577
4 269 328 552 571
4 370 544 213 556
4 79 78 209 537
4 255 550 558 566
4 532 552 544 554
4 538 552 330 571
4 542 545 183 567
4 347 468 509 575
4 453 201 447 540
4 510 537 238 579
4 536 579 234 580
4 323 441 432 569
4 213 556 544 565
4 416 540 447 553
4 77 199 386 536
4 198 410 67 545
4 267 541 263 577
4 373 79 210 537
4 197 548 291 568
4 327 266 269 559
4 271 29 267 577
4 257 458 546 570
4 182 29 541 571
4 188 25 184 545
4 472 313 557 558
4 245 197 291 568
4 231 537 235 555
4 300 322 574 582
4 231 233 235 537
4 550 413 576 581
4 241 234 232 580
4 376 199 375 536
4 324 509 569 575
4 199 373 375 537
4 236 537 233 579
4 441 536 515 579
4 313 417 540 564
4 347 570 547 575
4 443 544 520 562
4 269 541 270 571
4 32 390 33 542
4 209 78 385 580
4 209 226 537 580
4 236 235 233 537
4 326 375 537 579
4 232 233 231 580
4 550 564 549 572
4 257 458 249 546
4 262 557 551 559
4 386 536 376 569
4 315 568 548 573
4 542 574 322 582
4 363 212 364 560
4 238 240 237 537
4 255 412 256 566
4 249 257 546 576
4 390 322 542 574
4 337 348 330 571
4 537 579 536 580
4 263 559 551 577
4 257 570 576 581
4 224 196 25 545
4 238 510 240 537
4 263 541 267 559
4 255 558 412 566
4 477 468 347 547
4 336 545 196 554
4 237 235 236 537
4 237 236 238 537
4 510 238 326 579
4 28 270 29 571
4 510 326 375 537
4 441 432 536 579
4 549 550 533 564
4 390 396 322 574
4 562 568 429 573
4 471 453 404 564
4 188 545 184 567
4 436 558 473 564
4 266 541 269 559
4 391 563 76 569
4 313 558 436 564
4 376 386 199 536
4 399 212 74 547
4 390 388 33 542
4 544 554 452 565
4 229 363 487 563
4 213 544 452 565
4 67 196 224 545
4 386 76 77 563
4 300 574 551 582
4 550 558 533 564
4 209 227 226 580
4 534 549 548 578
4 366 560 377 572
4 451 269 270 571
4 429 568 315 573
4 441 515 536 569
4 79 225 80 555
4 399 560 547 578
4 510 374 240 537
4 405 564 406 572
4 223 370 213 556
4 410 407 545 553
4 310 246 247 575
4 405 549 564 572
4 68 545 407 553
4 502 253 336 538
4 532 538 545 567
4 347 477 547 570
4 228 537 226 580
4 259 414 268 539
4 533 549 548 550
4 550 573 413 581
4 259 539 268 566
4 532 545 542 567
4 373 210 374 537
4 231 537 228 580
4 377 572 560 578
4 182 28 29 571
4 72 71 402 549
4 405 403 549 572
4 532 540 539 557
4 266 267 269 541
4 539 540 533 558
4 232 234 579 580
4 267 541 266 559
4 258 254 566 573
4 444 330 538 552
4 189 538 27 571
4 189 26 27 538
4 313 417 416 540
4 542 545 532 553
4 188 183 34 545
4 453 447 416 540
4 268 539 414 583
4 300 322 396 574
4 548 549 534 550
4 263 262 551 559
4 416 553 447 582
4 223 556 197 568
4 310 324 323 575
4 265 551 262 557
4 213 452 554 565
4 402 404 549 564
4 467 73 400 578
4 245 223 197 568
4 532 544 540 565
4 213 370 452 544
4 260 558 539 566
4 445 250 546 576
4 540 544 533 556
4 376 536 515 569
4 550 566 254 573
4 326 441 515 579
4 75 74 212 547
4 541 567 182 571
4 222 76 75 563
4 438 263 262 551
4 341 416 447 582
4 410 407 68 545
4 544 556 370 568
4 237 240 480 555
4 445 296 250 576
4 399 364 212 560
4 520 562 544 568
4 532 545 538 554
4 386 391 76 569
4 268 562 539 583
4 79 373 78 537
4 452 544 497 554
4 350 314 367 581
4 538 541 532 552
4 532 541 538 567
4 539 562 268 566
4 341 447 553 582
4 238 537 236 579
4 492 560 366 572
4 29 270 271 267
4 29 182 541 577
4 183 545 188 567
4 314 291 346 548
4 401 68 69 554
4 472 313 299 557
4 25 188 1 545
4 438 263 551 577
4 386 76 563 569
4 453 540 417 564
4 254 255 256 550
4 255 256 550 566
4 265 300 551 557
4 300 551 557 582
4 269 267 270 541
4 468 391 392 569
4 533 544 539 562
4 254 550 256 566
4 473 255 433 550
4 330 552 328 571
4 402 71 471 556
4 260 412 558 566
4 388 542 322 582
4 187 574 567 577
4 189 182 567 571
4 405 378 403 572
4 370 556 223 568
4 322 388 390 542
4 189 184 538 567
4 257 251 413 576
4 551 559 541 577
4 257 576 413 581
4 432 246 323 561
4 407 69 553 565
4 491 366 492 560
4 375 374 510 537
4 196 545 68 554
4 201 556 70 565
4 534 572 560 576
4 417 453 416 540
4 480 543 359 555
4 201 471 70 556
4 540 532 553 582
4 242 234 241 561
4 399 547 74 578
4 337 330 328 571
4 540 557 532 582
4 261 414 259 539
4 327 559 552 583
4 74 547 400 578
4 488 365 491 560
4 444 330 348 538
4 546 547 535 560
4 237 480 359 555
4 264 472 557 558
4 264 260 412 558
4 184 26 189 538
4 487 481 229 563
4 260 256 412 566
4 532 559 539 583
4 73 467 72 578
4 260 261 259 539
4 377 403 378 572
4 296 572 433 576
4 437 267 263 577
4 405 549 403 564
4 196 68 401 554
4 26 449 348 538
4 502 336 444 538
4 341 388 322 582
4 509 468 392 569
4 520 356 497 544
4 185 32 33 542
4 231 235 459 555
4 241 351 242 561
4 34 1 188 545
4 428 348 337 571
4 80 219 543 555
4 261 539 559 583
4 410 389 407 553
4 532 538 552 554
4 313 472 436 558
4 255 473 412 558
4 232 579 233 580
4 308 548 315 568
4 533 556 549 564
4 403 549 404 564
4 312 299 313 557
4 260 539 259 566
4 242 351 469 561
4 444 356 330 552
4 32 542 185 574
4 413 254 258 573
4 261 414 539 583
4 313 436 417 564
4 74 400 73 578
4 429 562 520 568
4 433 572 550 576
4 327 269 328 552
4 413 550 254 573
4 504 380 379 543
4 185 567 187 574
4 551 574 542 582
4 350 367 570 581
4 502 348 449 538
4 232 234 233 579
4 532 540 553 565
4 444 452 497 554
4 247 546 458 575
4 546 570 458 575
4 232 231 228 580
4 512 429 315 573
4 529 384 489 543
4 189 567 538 571
4 533 550 548 573
4 444 538 336 554
4 532 553 545 554
4 548 550 534 581
4 34 198 410 395
4 542 551 532 567
4 365 363 364 560
4 307 551 300 574
4 263 267 266 559
4 567 574 551 577
4 403 402 404 549
4 247 249 458 546
4 541 532 551 567
4 359 543 506 555
4 228 226 227 580
4 532 557 539 559
4 75 200 74 547
4 202 549 403 578
4 532 552 559 583
4 257 490 458 570
4 548 573 550 581
4 477 200 468 547
4 429 308 315 568
4 208 529 489 543
4 375 373 374 537
4 520 544 309 568
4 532 554 544 565
4 377 202 403 578
4 497 452 370 544
4 530 384 529 543
4 377 560 364 578
4 433 550 252 576
4 532 551 542 582
4 229 222 363 563
4 377 364 399 578
4 308 291 548 568
4 364 560 399 578
4 183 185 542 567
4 378 366 377 572
4 441 239 432 579
4 328 269 451 571
4 271 267 437 577
4 530 528 516 543
4 407 553 201 565
4 451 270 28 571
4 265 262 264 557
4 359 235 237 555
4 183 185 33 542
4 504 379 381 543
4 540 556 533 564
4 528 218 381 543
4 185 542 567 574
4 308 245 291 568
4 264 472 299 557
4 218 528 531 543
4 268 566 562 573
4 80 225 219 555
4 539 557 540 558
4 438 262 265 551
4 520 497 309 544
4 388 339 33 395
4 189 186 184 567
4 551 567 542 574
4 219 525 543 555
4 265 299 300 557
4 492 433 296 572
4 372 543 525 555
4 307 438 551 577
4 189 182 186 567
4 299 300 557 582
4 239 441 326 579
4 533 558 550 566
4 209 385 227 580
4 71 197 223 556
4 186 188 184 567
4 347 367 477 570
4 230 231 459 555
4 544 539 562 583
4 219 371 525 555
4 497 370 309 544
4 449 428 26 348
4 541 551 532 559
4 534 550 549 572
4 443 520 429 562
4 29 187 182 577
4 506 359 522 543
4 396 390 32 574
4 450 229 481 563
4 309 544 370 568
4 532 551 557 559
4 532 552 541 559
4 534 576 570 581
4 77 76 195 563
4 245 370 223 568
4 534 560 546 576
4 522 359 480 543
4 541 567 551 577
4 516 528 381 543
4 444 348 502 538
4 438 437 263 577
4 307 551 574 577
4 300 307 265 551
4 247 248 249 546
4 533 558 540 564
4 202 72 549 578
4 446 241 232 580
4 70 556 213 565
4 347 509 324 575
4 401 554 69 565
4 261 559 414 583
4 531 529 208 543
4 490 570 257 581
4 252 550 254 576
4 406 405 436 564
4 440 443 562 583
4 541 552 538 571
4 532 553 554 565
4 70 223 213 556
4 401 213 554 565
4 244 242 469 561
4 532 542 553 582
4 405 406 378 572
4 218 531 479 543
4 268 562 352 573
4 506 543 372 555
4 405 403 404 564
4 268 352 566 573
4 248 445 250 546
4 307 456 438 577
4 407 447 201 553
4 296 433 252 576
4 440 329 443 583
4 532 557 551 582
4 186 182 187 567
4 225 371 219 555
4 266 559 327 583
4 540 544 556 565
4 186 183 188 567
4 534 547 546 560
4 404 453 417 564
4 535 547 546 575
4 340 458 570 575
4 251 252 254 576
4 407 201 69 565
4 441 325 515 569
4 226 371 225 555
4 560 572 534 578
4 386 392 391 569
4 323 324 325 569
4 546 570 534 576
4 250 249 546 576
4 307 574 456 577
4 243 234 242 561
4 81 379 80 543
4 196 224 25 253
4 359 459 235 555
4 432 243 246 561
4 330 356 329 552
4 538 567 541 571
4 533 548 568 573
4 252 433 255 550
4 325 441 323 569
4 249 251 257 576
4 534 550 576 581
4 315 548 314 581
4 258 254 256 566
4 248 250 249 546
4 185 186 187 567
4 324 509 325 569
4 429 520 309 568
4 299 312 300 582
4 401 69 213 565
4 546 547 534 570
4 533 568 562 573
4 299 557 312 582
4 260 259 256 566
4 68 67 410 545
4 238 239 326 579
4 352 562 353 573
4 539 558 533 566
4 202 72 402 549
4 340 570 347 575
4 29 271 30 577
4 489 525 372 543
4 531 208 479 543
4 81 530 516 543
4 440 562 268 583
4 183 186 185 567
4 479 480 218 543
4 307 300 396 574
4 517 384 530 543
4 533 556 544 568
4 340 458 490 570
4 372 525 371 555
4 264 412 472 558
4 239 418 432 579
4 428 337 27 571
4 258 566 352 573
4 315 573 548 581
4 480 504 218 543
4 226 230 371 555
4 477 400 200 547
4 261 266 414 559
4 268 352 258 566
4 539 533 562 566
4 459 359 506 555
4 489 372 506 543
4 81 80 219 543
4 377 366 364 560
4 254 252 255 550
4 547 560 534 578
4 263 261 262 559
4 525 489 384 543
4 347 340 513 570
4 67 68 196 545
4 268 353 352 562
4 339 33 390 388
4 472 473 436 558
4 529 528 530 543
4 307 438 265 551
4 529 531 528 543
4 516 381 379 543
4 504 381 218 543
4 347 513 367 570
4 266 414 559 583
4 479 208 522 543
4 403 202 402 549
4 418 233 234 579
4 74 200 400 547
4 401 213 452 554
4 315 314 350 581
4 544 562 533 568
4 456 574 31 577
4 450 227 385 580
4 341 447 389 553
4 314 308 291 548
4 399 74 73 578
4 516 379 81 543
4 479 522 480 543
4 547 570 546 575
4 336 196 401 554
4 32 455 396 574
4 195 229 450 563
4 202 73 72 578
4 506 208 489 543
4 299 265 264 557
4 512 573 315 581
4 345 32 455 396
4 459 506 372 555
4 341 312 416 582
4 329 327 328 552
4 378 492 366 572
4 350 367 513 570
4 533 566 550 573
4 219 525 384 543
4 81 517 530 543
4 512 352 353 573
4 327 552 329 583
4 325 376 515 569
4 0 4 60 193
4 60 4 0 194
4 30 456 31 577
4 512 442 573 581
4 484 18 44 190
4 238 236 239 579
4 386 376 392 569
4 138 101 99 293
4 440 268 414 583
4 413 573 442 581
4 337 431 27 571
4 31 456 455 574
4 384 517 219 543
4 31 574 187 577
4 310 247 458 575
4 314 315 308 548
4 43 17 484 190
4 244 246 243 561
4 444 336 452 554
4 561 563 535 569
4 250 251 249 576
4 307 455 456 574
4 534 572 549 578
4 330 329 328 552
4 506 522 208 543
4 309 370 245 568
4 456 457 437 577
4 433 492 406 572
4 187 29 30 577
4 350 513 490 570
4 100 99 287 470
4 111 101 112 293
4 413 258 352 573
4 407 389 447 553
4 456 30 457 577
4 536 563 561 569
4 396 345 32 390
4 412 473 472 558
4 350 570 490 581
4 451 337 328 571
4 517 81 219 543
4 71 70 471 556
4 533 562 566 573
4 266 327 414 583
4 550 572 534 576
4 263 266 261 559
4 101 102 100 287
4 512 315 442 581
4 491 365 366 560
4 372 230 459 555
4 257 413 442 581
4 99 100 98 470
4 393 206 85 394
4 60 4 194 519
4 518 60 4 193
4 340 490 513 570
4 102 101 292 287
4 114 304 316 134
4 32 31 455 574
4 440 353 268 562
4 443 353 440 562
4 372 371 230 555
4 57 489 208 529
4 451 431 337 571
4 28 431 451 571
4 283 103 286 100
4 60 0 2 194
4 60 2 0 193
4 300 312 322 582
4 206 157 85 394
4 409 316 304 134
4 415 98 430 132
4 428 27 337 431
4 222 195 76 563
4 304 114 147 134
4 290 303 109 115
4 244 243 242 561
4 69 201 70 565
4 429 309 308 568
4 108 301 420 110
4 138 112 439 121
4 324 340 347 575
4 185 187 31 574
4 380 381 504 379
4 450 446 227 580
4 528 218 54 381
4 223 70 71 556
4 110 109 303 115
4 99 294 287 470
4 259 268 258 566
4 31 30 344 456
4 365 364 366 560
4 456 437 438 577
4 409 304 147 134
4 281 290 109 158
4 120 119 112 465
4 430 98 88 132
4 306 138 439 121
4 28 284 430 132
4 69 70 213 565
4 111 101 293 292
4 116 303 110 332
4 102 286 100 287
4 429 353 443 562
4 430 284 415 132
4 27 431 28 571
4 293 112 111 320
4 140 163 150 369
4 99 97 298 398
4 398 298 99 294
4 281 288 290 158
4 286 282 103 283
4 286 102 292 287
4 301 420 421 108
4 339 34 33 395
4 499 454 355 173
4 484 82 18 190
4 333 331 116 342
4 116 139 333 342
4 116 128 331 332
4 122 111 119 462
4 162 288 158 397
4 97 99 98 398
4 150 4 5 495
4 325 392 376 569
4 518 4 177 193
4 30 344 456 457
4 34 339 382 395
4 109 117 281 158
4 222 229 195 563
4 102 145 302 111
4 44 43 484 190
4 302 102 111 292
4 151 108 420 110
4 290 303 301 109
4 436 405 417 564
4 529 58 489 384
4 112 101 138 293
4 430 88 28 132
4 60 5 4 495
4 259 258 256 566
4 451 284 28 270
4 120 354 439 121
4 17 82 484 190
4 232 228 446 580
4 220 150 163 369
4 115 158 290 311
4 4 194 519 176
4 116 139 126 333
4 97 349 88 96
4 30 31 187 577
4 236 233 418 579
4 109 303 301 110
4 288 281 117 158
4 492 378 406 572
4 111 145 302 462
4 500 5 90 221
4 448 331 128 332
4 116 110 118 332
4 216 18 44 484
4 312 341 322 582
4 439 112 120 121
4 98 398 470 430
4 335 321 121 124
4 310 458 340 575
4 415 98 470 430
4 151 426 421 113
4 131 499 355 173
4 531 218 54 528
4 531 55 218 479
4 114 317 97 133
4 439 120 112 465
4 302 434 104 102
4 31 32 455 345
4 252 250 296 576
4 129 172 485 463
4 352 442 413 573
4 108 420 421 151
4 404 417 405 564
4 32 345 289 305
4 311 158 290 397
4 194 2 60 519
4 462 302 111 292
4 398 98 88 430
4 306 439 354 121
4 2 60 518 193
4 138 439 295 306
4 224 1 181 66
4 509 392 325 569
4 129 119 172 463
4 108 424 301 109
4 115 116 126 311
4 108 421 425 113
4 287 283 100 470
4 349 398 97 88
4 97 298 317 114
4 99 101 100 287
4 305 33 32 390
4 189 28 182 571
4 344 30 276 457
4 30 276 457 273
4 320 111 293 292
4 289 288 280 162
4 442 490 257 581
4 114 316 317 133
4 58 529 530 384
4 307 396 455 574
4 283 159 103 100
4 460 464 154 104
4 304 295 138 114
4 104 460 302 145
4 393 333 126 368
4 440 327 329 583
4 377 399 202 578
4 148 164 149 496
4 462 111 119 320
4 427 106 425 113
4 97 349 96 317
4 132 28 284 272
4 154 464 106 104
4 316 317 298 114
4 86 8 63 503
4 32 31 180 345
4 273 30 29 271
4 283 98 100 470
4 315 350 442 581
4 198 34 1 174
4 128 116 118 332
4 276 275 125 277
4 208 531 57 529
4 180 455 466 345
4 7 6 62 387
4 154 460 145 146
4 217 62 6 387
4 27 349 88 431
4 273 457 30 271
4 181 10 408 66
4 180 31 455 345
4 281 301 424 109
4 66 1 10 174
4 298 295 304 114
4 289 32 305 91
4 462 119 122 463
4 302 434 460 104
4 411 66 10 174
4 158 144 162 397
4 302 104 145 102
4 141 178 126 393
4 1 10 181 66
4 218 54 55 531
4 7 8 63 86
4 172 465 485 463
4 393 126 141 368
4 283 98 470 415
4 368 139 89 369
4 434 103 104 102
4 331 303 116 332
4 53 516 528 381
4 28 88 430 431
4 228 227 446 580
4 158 115 127 311
4 311 126 334 333
4 89 5 61 495
4 6 217 387 141
4 464 106 427 154
4 103 434 286 102
4 224 181 408 66
4 90 5 148 221
4 61 6 5 89
4 321 335 343 124
4 276 30 130 273
4 411 10 65 95
4 98 283 159 415
4 7 6 387 141
4 516 530 53 528
4 349 97 398 317
4 274 130 132 272
4 434 302 286 102
4 496 149 148 527
4 335 321 306 121
4 123 355 454 173
4 88 28 27 431
4 354 335 306 121
4 465 172 119 463
4 113 427 106 154
4 304 138 295 306
4 430 88 349 431
4 211 128 448 505
4 279 280 117 136
4 4 0 177 193
4 426 425 421 113
4 239 236 418 579
4 123 354 120 121
4 63 387 206 85
4 524 142 22 191
4 277 136 279 285
4 128 116 331 342
4 324 310 340 575
4 145 460 461 146
4 117 280 288 162
4 461 145 122 462
4 159 103 282 283
4 148 5 4 221
4 127 158 311 397
4 383 95 474 394
4 107 108 425 106
4 279 278 280 136
4 106 108 425 113
4 107 279 136 285
4 29 28 132 272
4 87 276 125 277
4 154 427 464 460
4 163 51 24 220
4 308 309 245 568
4 125 275 276 130
4 479 531 56 208
4 521 207 507 171
4 387 63 7 85
4 369 140 163 482
4 277 105 136 285
4 305 32 345 390
4 8 63 206 85
4 110 303 420 332
4 148 4 177 518
4 108 425 424 107
4 121 306 138 147
4 516 3 530 81
4 123 335 354 121
4 334 419 127 397
4 411 174 383 382
4 115 303 110 116
4 92 499 131 173
4 194 4 0 176
4 401 452 336 554
4 306 304 138 147
4 96 349 27 319
4 150 519 4 495
4 60 4 5 221
4 176 519 4 150
4 252 251 250 576
4 26 27 428 319
4 61 5 500 221
4 142 21 22 191
4 419 144 127 397
4 339 33 34 382
4 33 339 338 382
4 59 58 530 384
4 428 27 349 319
4 66 10 65 411
4 207 521 83 171
4 151 152 426 113
4 460 154 476 146
4 90 6 5 500
4 66 67 1 198
4 111 122 145 462
4 51 24 23 163
4 130 274 273 272
4 425 424 421 108
4 105 464 434 104
4 206 474 64 157
4 73 202 399 578
4 454 494 343 173
4 93 128 211 505
4 369 163 220 482
4 21 142 524 191
4 289 288 162 297
4 301 108 109 110
4 355 335 354 123
4 531 57 56 208
4 455 466 31 180
4 463 462 119 320
4 206 64 8 157
4 475 426 421 151
4 280 137 289 162
4 425 426 427 113
4 415 159 98 132
4 109 424 281 107
4 98 97 398 88
4 421 108 151 113
4 127 126 334 311
4 18 216 82 484
4 281 424 279 107
4 145 461 302 462
4 106 425 107 285
4 430 284 28 431
4 132 284 415 272
4 133 358 318 135
4 280 278 137 136
4 464 425 106 285
4 301 421 424 108
4 297 419 144 338
4 65 9 10 166
4 123 454 343 173
4 106 425 464 427
4 455 31 344 456
4 454 215 494 173
4 448 128 331 342
4 158 290 109 115
4 476 461 460 146
4 36 12 11 164
4 345 180 32 289
4 289 180 32 91
4 13 38 192 171
4 117 280 137 136
4 65 474 411 95
4 435 434 282 103
4 101 111 102 292
4 420 118 110 332
4 451 28 284 431
4 117 281 279 107
4 517 59 530 384
4 519 60 4 495
4 97 99 298 114
4 464 435 105 434
4 116 128 139 342
4 61 5 60 495
4 508 526 82 146
4 175 41 16 486
4 32 185 31 574
4 454 335 355 123
4 95 157 474 394
4 140 89 139 369
4 28 189 27 571
4 526 155 82 146
4 408 65 10 166
4 27 26 96 319
4 442 350 490 581
4 318 94 133 135
4 91 297 144 338
4 101 293 292 287
4 105 107 136 285
4 276 87 278 277
4 121 321 306 147
4 12 36 215 164
4 42 16 41 486
4 466 278 344 87
4 89 61 6 217
4 290 303 115 311
4 63 8 7 85
4 25 26 253 357
4 278 466 137 87
4 414 327 440 583
4 102 286 103 100
4 318 96 317 133
4 178 334 393 394
4 154 460 104 145
4 286 283 100 287
4 89 150 495 369
4 107 425 424 285
4 507 207 14 171
4 217 89 61 495
4 408 166 181 478
4 123 343 335 124
4 280 281 279 117
4 408 10 65 66
4 435 105 277 285
4 95 411 10 174
4 51 52 24 220
4 466 344 31 87
4 415 283 159 274
4 45 18 44 216
4 281 290 301 109
4 390 305 33 339
4 173 215 494 149
4 368 89 217 369
4 181 408 25 224
4 460 434 464 104
4 207 14 39 507
4 125 275 130 274
4 109 108 424 107
4 288 281 280 117
4 137 466 278 280
4 173 92 215 149
4 89 150 5 495
4 317 96 318 319
4 216 45 18 156
4 130 29 132 272
4 139 126 333 368
4 131 83 521 171
4 88 349 27 96
4 419 168 143 383
4 53 3 530 516
4 105 434 103 104
4 163 23 51 482
4 342 128 140 505
4 149 164 494 496
4 181 25 1 224
4 102 302 286 292
4 494 343 173 149
4 113 152 426 155
4 297 162 289 91
4 507 14 39 192
4 22 49 524 191
4 434 435 105 103
4 274 132 415 272
4 131 355 354 123
4 180 137 466 87
4 38 507 192 171
4 118 151 420 110
4 88 349 398 430
4 45 19 18 156
4 217 6 89 141
4 224 67 1 66
4 518 148 4 221
4 36 37 12 215
4 158 288 290 397
4 63 86 503 214
4 11 36 164 496
4 192 507 14 171
4 153 360 86 214
4 303 420 301 110
4 150 89 140 369
4 281 117 109 107
4 383 168 95 394
4 474 9 64 157
4 125 136 87 277
4 508 476 526 146
4 387 206 85 393
4 61 5 6 500
4 33 305 91 338
4 321 304 306 147
4 150 220 495 369
4 345 466 180 289
4 132 415 159 274
4 369 368 139 342
4 126 139 141 368
4 87 344 30 276
4 178 334 333 393
4 282 434 286 103
4 276 87 125 130
4 427 113 155 154
4 494 149 496 527
4 89 141 139 368
4 37 13 12 92
4 215 454 92 173
4 271 29 273 272
4 86 63 7 214
4 130 275 276 273
4 362 523 134 170
4 512 442 352 573
4 180 466 31 87
4 156 216 493 526
4 62 63 7 387
4 130 30 29 273
4 123 131 355 173
4 155 526 476 146
4 204 43 42 179
4 333 126 178 393
4 121 123 335 124
4 94 181 166 478
4 106 105 464 285
4 439 354 120 465
4 288 117 162 158
4 273 29 130 272
4 133 114 316 134
4 96 318 94 133
4 461 302 460 145
4 334 126 178 333
4 86 165 360 153
4 316 358 133 134
4 137 280 117 162
4 358 478 318 135
4 211 142 22 524
4 83 14 207 171
4 428 349 27 431
4 426 475 152 151
4 112 119 111 320
4 335 454 343 123
4 140 128 93 505
4 118 420 151 167
4 198 411 34 174
4 93 128 142 211
4 293 439 112 320
4 94 318 478 135
4 139 128 140 342
4 305 297 91 338
4 528 54 53 381
4 511 426 152 155
4 499 131 171 92
4 174 143 383 382
4 426 511 493 155
4 31 344 466 455
4 131 354 120 123
4 15 14 40 83
4 94 514 318 96
4 454 499 92 173
4 162 137 289 91
4 61 60 5 221
4 24 176 163 220
4 131 355 499 171
4 0 24 194 176
4 9 8 64 157
4 339 305 33 338
4 98 159 283 100
4 139 140 369 342
4 177 35 11 496
4 156 493 511 155
4 143 144 419 338
4 10 9 65 95
4 63 64 8 206
4 176 24 52 220
4 362 86 360 214
4 177 0 11 193
4 321 343 360 124
4 160 501 508 146
4 164 215 494 496
4 147 121 321 124
4 382 198 34 395
4 368 333 139 342
4 13 37 499 92
4 514 318 96 319
4 321 304 147 409
4 136 117 279 107
4 338 419 143 383
4 338 143 33 382
4 508 82 204 160
4 156 511 152 155
4 16 42 179 486
4 130 132 159 274
4 271 270 29 272
4 36 11 35 496
4 130 159 125 274
4 275 130 274 273
4 166 408 65 203
4 466 137 289 280
4 493 511 483 156
4 50 23 93 482
4 62 6 61 217
4 85 141 387 393
4 34 411 198 382
4 95 143 168 383
4 164 215 92 149
4 23 50 51 482
4 342 140 369 505
4 220 163 51 482
4 154 155 427 476
4 215 37 12 92
4 148 496 527 221
4 21 20 47 84
4 311 334 127 397
4 317 96 97 133
4 527 90 148 221
4 166 65 9 203
4 144 158 127 397
4 172 465 207 485
4 485 83 172 129
4 427 154 476 460
4 152 475 205 167
4 24 52 194 176
4 495 217 89 369
4 160 122 501 146
4 175 16 179 486
4 141 387 7 85
4 97 298 398 317
4 316 358 318 133
4 205 47 20 84
4 474 65 9 95
4 126 127 115 311
4 14 39 40 207
4 282 125 435 103
4 50 23 22 93
4 87 136 278 277
4 8 206 157 85
4 194 52 2 519
4 423 118 422 332
4 153 62 6 500
4 152 483 511 156
4 26 449 253 357
4 461 501 122 146
4 523 135 134 170
4 501 461 508 146
4 174 95 411 383
4 204 501 508 160
4 17 42 43 179
4 316 318 317 133
4 514 94 26 96
4 207 83 172 485
4 19 45 46 483
4 482 369 140 505
4 144 168 143 419
4 157 95 168 394
4 289 305 297 91
4 157 206 474 394
4 483 46 19 161
4 93 142 22 211
4 276 30 87 130
4 304 316 298 114
4 496 177 35 518
4 83 14 40 207
4 174 411 34 382
4 90 527 500 221
4 167 118 422 423
4 305 32 33 91
4 334 178 168 394
4 409 147 321 165
4 137 180 289 91
4 107 424 279 285
4 84 161 205 167
4 118 167 142 423
4 420 422 118 332
4 11 35 177 193
4 19 46 20 161
4 114 138 304 147
4 397 419 144 297
4 164 177 11 496
4 42 204 179 486
4 95 474 411 383
4 156 155 82 526
4 496 148 177 518
4 419 168 383 394
4 168 144 127 419
4 9 64 65 474
4 357 408 181 478
4 19 45 483 156
4 501 461 122 462
4 141 89 217 368
4 518 35 2 193
4 464 105 106 104
4 503 170 64 203
4 176 52 519 220
4 172 120 521 465
4 135 133 358 134
4 160 508 82 146
4 362 134 86 170
4 83 40 15 485
4 144 143 91 338
4 39 38 507 192
4 22 49 211 524
4 354 521 120 465
4 164 494 215 149
4 408 166 478 203
4 4 60 518 221
4 122 145 461 146
4 153 90 361 500
4 519 194 52 176
4 355 507 499 171
4 409 358 316 134
4 153 361 360 214
4 422 205 475 167
4 282 159 283 274
4 119 465 463 320
4 523 134 358 362
4 517 530 3 81
4 37 215 499 92
4 124 321 147 165
4 178 127 126 334
4 449 26 514 357
4 498 21 47 84
4 84 205 422 167
4 37 38 13 499
4 482 140 93 505
4 320 462 111 292
4 521 172 83 131
4 96 26 514 319
4 343 360 124 169
4 475 420 422 151
4 181 25 408 357
4 125 435 105 277
4 175 15 41 485
4 419 127 168 334
4 107 105 106 285
4 105 435 464 285
4 93 22 50 211
4 422 498 205 84
4 36 215 164 496
4 435 275 125 282
4 141 85 178 393
4 420 475 421 151
4 8 64 63 503
4 18 216 156 82
4 216 493 483 156
4 349 96 317 319
4 161 152 205 167
4 38 13 499 171
4 129 122 119 463
4 155 156 493 526
4 518 177 35 193
4 62 6 7 153
4 526 82 216 484
4 216 483 45 156
4 20 46 47 205
4 6 90 153 500
4 64 8 170 503
4 120 521 354 131
4 93 163 140 482
4 496 148 518 221
4 422 420 118 167
4 279 278 136 277
4 143 34 33 382
4 82 216 156 526
4 169 361 360 153
4 82 484 508 204
4 165 169 360 153
4 524 49 48 191
4 181 94 357 478
4 135 166 9 203
4 393 141 387 368
4 420 422 151 167
4 521 120 172 131
4 47 205 498 84
4 10 408 166 181
4 149 90 148 527
4 498 48 21 524
4 22 49 50 211
4 15 175 83 485
4 93 23 163 482
4 478 135 523 203
4 466 137 180 289
4 124 123 343 169
4 135 478 166 203
4 125 105 136 277
4 62 153 214 500
4 483 152 161 156
4 524 48 21 191
4 125 275 435 277
4 41 175 485 486
4 30 31 344 87
4 211 50 93 482
4 178 157 168 394
4 15 40 41 485
4 454 499 215 92
4 449 26 428 319
4 149 361 90 527
4 164 148 177 496
4 486 179 175 129
4 160 204 501 486
4 82 17 18 190
4 475 205 511 152
4 170 9 64 203
4 129 501 122 463
4 16 15 41 175
4 342 448 128 505
4 409 358 134 362
4 12 215 92 164
4 13 499 171 92
4 217 387 141 368
4 150 176 519 220
4 465 521 172 207
4 511 483 152 161
4 154 155 476 146
4 168 419 334 394
4 355 354 521 131
4 493 427 155 476
4 485 175 83 129
4 176 150 163 220
4 62 61 6 500
4 507 38 499 171
4 143 338 383 382
4 526 82 484 508
4 135 9 170 203
4 94 26 25 357
4 136 278 137 87
4 179 204 82 160
4 7 62 153 214
4 86 360 165 362
4 358 135 134 523
4 21 47 48 498
4 523 170 503 203
4 91 143 33 338
4 8 86 170 503
4 169 360 124 165
4 87 278 344 276
4 205 20 46 161
4 134 165 409 362
4 56 55 531 479
4 40 83 207 485
4 501 122 160 129
4 95 174 143 383
4 160 179 486 129
4 90 169 361 149
4 360 321 124 165
4 165 409 147 134
4 57 58 489 529
4 214 153 361 500
4 64 8 9 170
4 142 211 423 524
4 462 122 501 463
4 103 282 125 159
4 62 7 63 214
4 129 486 501 463
4 26 94 514 357
4 160 179 204 486
4 143 174 34 382
4 120 172 119 465
4 521 83 172 207
4 165 134 86 362
4 519 150 220 495
4 135 358 478 523
4 485 486 129 463
4 361 169 90 153
4 486 501 160 129
4 253 224 25 357
4 224 408 25 357
4 503 86 362 214
4 157 474 9 95
4 125 105 435 103
4 321 360 409 165
4 151 422 475 167
4 19 483 161 156
4 343 494 361 169
4 205 20 161 84
4 153 86 7 214
4 65 64 9 203
4 17 16 42 179
4 478 166 94 135
4 144 162 297 91
4 93 211 482 505
4 170 362 523 503
4 483 205 46 161
4 475 511 426 152
4 127 178 168 334
4 152 205 511 161
4 530 3 59 517
4 494 361 149 527
4 360 343 361 169
4 170 523 135 203
4 476 508 461 146
4 483 511 205 161
4 175 485 486 129
4 494 361 169 149
4 526 493 155 476
4 192 14 13 171
4 343 494 169 149
4 318 514 94 478
4 25 181 94 357
4 86 362 170 503
4 360 409 165 362
4 361 90 527 500
4 357 94 514 478
4 475 152 151 167
4 449 514 26 319
4 244 546 469 248
4 469 546 244 535
4 575 244 546 535
4 575 546 244 247
4 547 391 468 535
4 547 468 391 200
4 575 244 246 247
4 575 246 244 561
4 580 199 77 536
4 580 77 199 78
4 580 450 195 385
4 195 450 580 536
4 195 77 580 385
4 580 77 195 536
4 581 367 346 314
4 581 346 367 570
4 243 579 432 418
4 432 579 243 561
4 568 549 197 548
4 568 197 549 556
4 481 580 241 446
4 241 580 481 536
4 556 453 201 471
4 556 201 453 540
4 557 260 558 539
4 557 558 260 264
4 560 445 296 491
4 560 296 445 546
4 403 578 572 377
4 572 578 403 549
4 254 576 413 251
4 413 576 254 550
4 582 388 553 341
4 582 553 388 542
4 389 553 388 341
4 389 388 553 542
4 538 449 253 26
4 538 253 449 502
4 577 182 567 187
4 577 567 182 541
4 353 573 429 512
4 429 573 353 562
4 577 457 271 30
4 577 271 457 437
4 85 394 178 393
4 178 394 85 157
4 66 174 198 1
4 198 174 66 411
4 99 470 398 294
4 398 470 99 98
4 99 293 287 294
4 287 293 99 101
4 112 465 320 439
4 320 465 112 119
4 162 397 297 288
4 297 397 162 144
4 311 116 303 115
4 311 303 116 331
4 114 295 99 298
4 114 99 295 138
4 294 99 295 298
4 439 138 293 112
4 293 138 439 295
4 272 28 270 29
4 272 270 28 284
4 116 333 311 331
4 311 333 116 126
4 128 332 423 448
4 423 332 128 118
4 128 142 423 118
4 125 274 282 275
4 282 274 125 159
4 155 426 427 493
4 155 427 426 113
4 82 179 484 204
4 82 484 179 17
4 43 484 179 204
4 43 179 484 17
4 149 123 343 173
4 149 343 123 169
4 84 498 423 422
4 84 167 423 142
4 423 167 84 422
4 355 171 521 507
4 521 171 355 131
4 99 295 293 294
4 99 293 295 138
4 423 128 211 142
4 211 128 423 448
4 84 21 524 498
4 524 21 84 142
4 524 423 84 498
4 84 423 524 142

CELL_TYPES 2939
1
1
1
1
3
3
3
3
3
3
3
3
3
3
3
3
3
3
3
3
3
3
3
3
3
3
3
3
3
3
3
3
3
3
3
3
3
3
3
3
3
3
3
3
3
3
3
3
3
3
3
3
3
3
3
3
3
3
3
3
3
3
3
3
3
3
3
3
3
3
3
3
3
3
3
3
3
3
3
3
3
3
3
3
3
3
3
3
5
5
5
5
5
5
5
5
5
5
5
5
5
5
5
5
5
5
5
5
5
5
5
5
5
5
5
5
5
5
5
5
5
5
5
5
5
5
5
5
5
5
5
5
5
5
5
5
5
5
5
5
5
5
5
5
5
5
5
5
5
5
5
5
5
5
5
5
5
5
5
5
5
5
5
5
5
5
5
5
5
5
5
5
5
5
5
5
5
5
5
5
5
5
5
5
5
5
5
5
5
5
5
5
5
5
5
5
5
5
5
5
5
5
5
5
5
5
5
5
5
5
5
5
5
5
5
5
5
5
5
5
5
5
5
5
5
5
5
5
5
5
5
5
5
5
5
5
5
5
5
5
5
5
5
5
5
5
5
5
5
5
5
5
5
5
5
5
5
5
5
5
5
5
5
5
5
5
5
5
5
5
5
5
5
5
5
5
5
5
5
5
5
5
5
5
5
5
5
5
5
5
5
5
5
5
5
5
5
5
5
5
5
5
5
5
5
5
5
5
5
5
5
5
5
5
5
5
5
5
5
5
5
5
5
5
5
5
5
5
5
5
5
5
5
5
5
5
5
5
5
5
5
5
5
5
5
5
5
5
5
5
5
5
5
5
5
5
5
5
5
5
5
5
5
5
5
5
5
5
5
5
5
5
5
5
5
5
5
5
5
5
5
5
5
5
5
5
5
5
5
5
5
5
5
5
5
5
5
5
5
5
5
5
5
5
5
5
5
5
5
5
5
5
5
5
5
5
5
5
5
5
5
5
5
5
5
5
5
5
5
5
5
5
5
5
5
5
5
5
5
5
5
5
5
5
5
5
5
5
5
5
5
5
5
5
5
5
5
5
5
5
5
5
5
5
5
5
5
5
5
5
5
5
5
5
5
5
5
5
5
5
5
5
5
5
5
5
5
5
5
5
5
5
5
5
5
5
5
5
5
5
5
5
5
5
5
5
5
5
5
5
5
5
5
5
5
5
5
5
5
5
5
5
5
5
5
5
5
5
5
5
5
5
5
5
5
5
5
5
5
5
5
5
5
5
5
5
5
5
5
5
5
5
5
5
5
5
5
5
5
5
5
5
5
5
5
5
5
5
5
5
5
5
5
5
5
5
5
5
5
5
5
5
5
5
5
5
5
5
5
5
5
5
5
5
5
5
5
5
5
5
5
5
5
5
5
5
5
5
5
5
5
5
5
5
5
5
5
5
5
5
5
5
5
5
5
5
5
5
5
5
5
5
5
5
5
5
5
5
5
5
5
5
5
5
5
5
5
5
5
5
5
5
5
5
5
5
5
5
5
5
5
5
5
5
5
5
5
5
5
5
5
5
5
5
5
5
5
5
5
5
5
5
5
5
5
5
5
5
5
5
5
5
5
5
5
5
5
5
5
5
5
5
5
5
5
5
5
5
5
5
5
5
5
5
5
5
5
5
5
5
5
5
5
5
5
5
5
5
5
5
5
5
5
5
5
5
5
5
5
5
5
5
5
5
5
5
5
5
5
5
5
5
5
5
5
5
5
5
5
5
5
5
5
5
5
5
5
5
5
5
5
5
5
5
5
5
5
5
5
5
5
5
5
5
5
5
5
5
5
5
5
5
5
5
5
5
5
5
5
5
5
5
5
5
5
5
5
5
5
5
5
5
5
5
5
5
5
5
5
5
5
5
5
5
5
5
5
5
5
5
5
5
5
5
5
5
5
5
5
5
5
5
5
5
5
5
5
5
5
5
5
5
5
5
5
5
5
5
5
5
5
5
5
5
5
5
5
5
5
5
5
5
5
5
5
5
5
5
5
5
5
5
5
5
5
5
5
5
5
5
5
5
5
5
5
5
5
5
5
5
5
5
5
5
5
5
5
5
5
5
5
5
5
5
5
5
5
5
5
5
5
5
5
5
5
5
5
5
5
5
5
5
5
5
5
5
5
5
5
5
5
5
5
5
5
5
5
5
5
5
5
5
5
5
5
5
5
5
5
5
5
5
5
5
5
5
5
5
5
5
5
5
5
5
5
5
5
5
5
5
5
5
5
5
5
5
5
5
5
5
5
5
5
5
5
5
5
5
5
5
5
5
5
5
5
5
5
5
5
5
5
5
5
5
5
5
5
5
5
5
5
5
5
5
5
5
5
5
5
5
5
5
5
5
5
5
5
5
5
5
5
5
5
5
5
5
5
5
5
5
5
5
5
5
5
5
5
5
5
5
5
5
5
5
5
5
5
5
5
5
5
5
5
5
5
5
5
5
5
5
5
5
5
5
5
5
5
5
5
5
5
5
5
5
5
5
5
5
5
5
5
5
5
5
5
5
5
5
5
5
5
5
5
5
5
5
5
5
5
5
5
5
5
5
5
5
5
5
5
5
5
5
5
5
5
5
5
5
5
5
5
5
5
5
5
5
5
5
10
10
10
10
10
10
10
10
10
10
10
10
10
10
10
10
10
10
10
10
10
10
10
10
10
10
10
10
10
10
10
10
10
10
10
10
10
10
10
10
10
10
10
10
10
10
10
10
10
10
10
10
10
10
10
10
10
10
10
10
10
10
10
10
10
10
10
10
10
10
10
10
10
10
10
10
10
10
10
10
10
10
10
10
10
10
10
10
10
10
10
10
10
10
10
10
10
10
10
10
10
10
10
10
10
10
10
10
10
10
10
10
10
10
10
10
10
10
10
10
10
10
10
10
10
10
10
10
10
10
10
10
10
10
10
10
10
10
10
10
10
10
10
10
10
10
10
10
10
10
10
10
10
10
10
10
10
10
10
10
10
10
10
10
10
10
10
10
10
10
10
10
10
10
10
10
10
10
10
10
10
10
10
10
10
10
10
10
10
10
10
10
10
10
10
10
10
10
10
10
10
10
10
10
10
10
10
10
10
10
10
10
10
10
10
10
10
10
10
10
10
10
10
10
10
10
10
10
10
10
10
10
10
10
10
10
10
10
10
10
10
10
10
10
10
10
10
10
10
10
10
10
10
10
10
10
10
10
10
10
10
10
10
10
10
10
10
10
10
10
10
10
10
10
10
10
10
10
10
10
10
10
10
10
10
10
10
10
10
10
10
10
10
10
10
10
10
10
10
10
10
10
10
10
10
10
10
10
10
10
10
10
10
10
10
10
10
10
10
10
10
10
10
10
10
10
10
10
10
10
10
10
10
10
10
10
10
10
10
10
10
10
10
10
10
10
10
10
10
10
10
10
10
10
10
10
10
10
10
10
10
10
10
10
10
10
10
10
10
10
10
10
10
10
10
10
10
10
10
10
10
10
10
10
10
10
10
10
10
10
10
10
10
10
10
10
10
10
10
10
10
10
10
10
10
10
10
10
10
10
10
10
10
10
10
10
10
10
10
10
10
10
10
10
10
10
10
10
10
10
10
10
10
10
10
10
10
10
10
10
10
10
10
10
10
10
10
10
10
10
10
10
10
10
10
10
10
10
10
10
10
10
10
10
10
10
10
10
10
10
10
10
10
10
10
10
10
10
10
10
10
10
10
10
10
10
10
10
10
10
10
10
10
10
10
10
10
10
10
10
10
10
10
10
10
10
10
10
10
10
10
10
10
10
10
10
10
10
10
10
10
10
10
10
10
10
10
10
10
10
10
10
10
10
10
10
10
10
10
10
10
10
10
10
10
10
10
10
10
10
10
10
10
10
10
10
10
10
10
10
10
10
10
10
10
10
10
10
10
10
10
10
10
10
10
10
10
10
10
10
10
10
10
10
10
10
10
10
10
10
10
10
10
10
10
10
10
10
10
10
10
10
10
10
10
10
10
10
10
10
10
10
10
10
10
10
10
10
10
10
10
10
10
10
10
10
10
10
10
10
10
10
10
10
10
10
10
10
10
10
10
10
10
10
10
10
10
10
10
10
10
10
10
10
10
10
10
10
10
10
10
10
10
10
10
10
10
10
10
10
10
10
10
10
10
10
10
10
10
10
10
10
10
10
10
10
10
10
10
10
10
10
10
10
10
10
10
10
10
10
10
10
10
10
10
10
10
10
10
10
10
10
10
10
10
10
10
10
10
10
10
10
10
10
10
10
10
10
10
10
10
10
10
10
10
10
10
10
10
10
10
10
10
10
10
10
10
10
10
10
10
10
10
10
10
10
10
10
10
10
10
10
10
10
10
10
10
10
10
10
10
10
10
10
10
10
10
10
10
10
10
10
10
10
10
10
10
10
10
10
10
10
10
10
10
10
10
10
10
10
10
10
10
10
10
10
10
10
10
10
10
10
10
10
10
10
10
10
10
10
10
10
10
10
10
10
10
10
10
10
10
10
10
10
10
10
10
10
10
10
10
10
10
10
10
10
10
10
10
10
10
10
10
10
10
10
10
10
10
10
10
10
10
10
10
10
10
10
10
10
10
10
10
10
10
10
10
10
10
10
10
10
10
10
10
10
10
10
10
10
10
10
10
10
10
10
10
10
10
10
10
10
10
10
10
10
10
10
10
10
10
10
10
10
10
10
10
10
10
10
10
10
10
10
10
10
10
10
10
10
10
10
10
10
10
10
10
10
10
10
10
10
10
10
10
10
10
10
10
10
10
10
10
10
10
10
10
10
10
10
10
10
10
10
10
10
10
10
10
10
10
10
10
10
10
10
10
10
10
10
10
10
10
10
10
10
10
10
10
10
10
10
10
10
10
10
10
10
10
10
10
10
10
10
10
10
10
10
10
10
10
10
10
10
10
10
10
10
10
10
10
10
10
10
10
10
10
10
10
10
10
10
10
10
10
10
10
10
10
10
10
10
10
10
10
10
10
10
10
10
10
10
10
10
10
10
10
10
10
10
10
10
10
10
10
10
10
10
10
10
10
10
10
10
10
10
10
10
10
10
10
10
10
10
10
10
10
10
10
10
10
10
10
10
10
10
10
10
10
10
10
10
10
10
10
10
10
10
10
10
10
10
10
10
10
10
10
10
10
10
10
10
10
10
10
10
10
10
10
10
10
10
10
10
10
10
10
10
10
10
10
10
10
10
10
10
10
10
10
10
10
10
10
10
10
10
10
10
10
10
10
10
10
10
10
10
10
10
10
10
10
10
10
10
10
10
10
10
10
10
10
10
10
10
10
10
10
10
10
10
10
10
10
10
10
10
10
10
10
10
10
10
10
10
10
10
10
10
10
10
10
10
10
10
10
10
10
10
10
10
10
10
10
10
10
10
10
10
10
10
10
10
10
10
10
10
10
10
10
10
10
10
10
10
10
10
10
10
10
10
10
10
10
10
10
10
10
10
10
10
10
10
10
10
10
10
10
10
10
10
10
10
10
10
10
10
10
10
10
10
10
10
10
10
10
10
10
10
10
10
10
10
10
10
10
10
10
10
10
10
10
10
10
10
10
10
10
10
10
10
10
10
10
10
10
10
10
10
10
10
10
10
10
10
10
10
10
10
10
10
10
10
10
10
10
10
10
10
10
10
10
10
10
10
10
10
10
10
10
10
10
10
10
10
10
10
10
10
10
10
10
10
10
10
10
10
10
10
10
10
10
10
10
10
10
10
10
10
10
10
10
10
10
10
10
10
10
10
10
10
10
10
10
10
10
10
10
10
10
10
10
10
10
10
10
10
10
10
10
10
10
10
10
10
10
10
10
10
10
10
10
10
10
10
10
10
10
10
10
10
10
10
10
10
10
10
10
10
10
10
10
10
10
10
10
10
10
10
10
10
10
10
10
10
10
10
10
10
10
10
10
10
10
10
10
10
10
10
10
10
10
10
10
10
10
10
10
10
10
10
10
10
10
10
10
10
10
10
10
10
10
10
10
10
10
10
10
10
10
10
10
10
10
10
10
10
10
10
10
10
10
10
10
10
10
10
10
10
10
10
10
10
10
10
10
10
10
10
10
10
10
10
10
10
10
10
10
10
10
10
10
10
10
10
10
10
10
10
10
10
10
10
10
10
10
10
10
10
10
10
10
10
10
10
10
10
10
10
10
10
10
10
10
10
10
10
10
10
10
10
10
10
10
10
10
10
10
10
10
10
10
10
10
10
10
10
10
10
10
10
10
10
10
10
10
10
10
10
10
10
10
10
10
10
10
10
10
10
10
10
10
10
10
10
10
10
10
10
10
10
10
10
10
10
10
10
10
10
10
10
10
10
10
10
10
10
10
10
10
10
10
10
10
10
10
10
10
10
10
10
10
10
10
10
10
10
10
10
10
10
10
10
10
10
10
10
10
10
10
10
10
10
10
10
10
10
10
10
10
10
10
10
10
10
10
10
10
10
10
10
10
10
10
10
10
10
10
10
10
10
10
10
10
10
10
10
10
10
10
10
10
10
10
10
10
10
10
10
10
10
10
10
10
10
10
10
10
10
10
10
10
10
10
10
10
10
10
10
10
10
10
10
10
10
10
10
10
10
10
10
10
10
10
10
10
10
10
10
10
10
10
10
10
10
10
10
10
10
10
10
10
10
10
10
10
10
10
10
10
10
10
