# vtk DataFile Version 2.0
whisker_body, Created by Gmsh 4.13.1 
ASCII
DATASET UNSTRUCTURED_GRID
POINTS 660 double
-8.874119674649524 -1.499999999999705 0
8.874119674649528 -1.499999999999699 0
-6.951156942427596 -1.49999999999996 24
6.951156942427595 -1.499999999999962 24
12 0 0
8.874119674649352 1.500000000000214 0
0 9 0
-8.87411967464935 1.500000000000212 0
5.70386345403052 0 80
6.951156942427539 1.500000000000093 24
0 7.111159036209155 24
-6.951156942427538 1.500000000000095 24
-7.584846902842285 -4.844594664205024 0
-5.092435961360746 -7.420720718329175 0
-1.792242851007811 -8.81974294200298 0
1.792242851007785 -8.819742942002986 0
5.092435961360731 -7.420720718329185 0
7.584846902842282 -4.844594664205029 0
-5.324471804789714 -1.5 0
-1.774823934929904 -1.5 0
1.774823934929906 -1.5 0
5.324471804789717 -1.5 0
-7.226960748155472 -1.5 20.57151705138351
-7.502332797154969 -1.5 17.142998221478
-7.77731877881909 -1.5 13.71444932900837
-8.05195832413159 -1.5 10.28587238811225
-8.326285741525062 -1.5 6.857269743325659
-8.600330765283932 -1.5 3.428645453995856
-5.1747690992404 -4.877534992986296 24
-1.908094363381351 -6.850383838785345 24
1.908094363381313 -6.850383838785357 24
5.174769099240374 -4.877534992986324 24
8.600330765283932 -1.5 3.428645453995856
8.326285741525062 -1.5 6.857269743325659
8.05195832413159 -1.5 10.28587238811225
7.777318778819094 -1.5 13.71444932900832
7.502332797154969 -1.5 17.142998221478
7.226960748155472 -1.5 20.57151705138351
-3.475578471213798 -1.5 24
0 -1.5 24
3.475578471213797 -1.5 24
11.34980690040761 3.896393630456207 0
9.469686112756717 7.370552552276022 0
6.563377897469113 10.04599773915035 0
2.945825845689581 11.63280319127197 0
-0.9909521456679979 11.95901391608004 0
-4.820345095835646 10.98927991986068 0
-8.127378859508902 8.82868692807757 0
-10.55368501447787 5.71136871644487 0
-11.83633564083267 1.975135083368787 0
-11.83633564083267 -1.975135083368821 0
-10.55368501447786 -5.711368716444897 0
-8.12737885950888 -8.828686928077589 0
-4.820345095835619 -10.9892799198607 0
-0.9909521456679715 -11.95901391608004 0
2.945825845689616 -11.63280319127196 0
6.563377897469155 -10.04599773915032 0
9.469686112756747 -7.370552552275983 0
11.34980690040762 -3.896393630456205 0
7.818029843080671 4.458520984889497 0
5.809475019311043 6.873863542433829 0
3.093156003024702 8.451768213868164 0
5.324471804789612 1.5 0
1.774823934929872 1.5 0
-1.774823934929868 1.5 0
-5.324471804789608 1.5 0
-3.093156003024702 8.451768213868164 0
-5.809475019311038 6.873863542433833 0
-7.818029843080673 4.458520984889494 0
4.369412903269498 3.666372755594688 80
0.9904654944534007 5.617208951652248 80
-2.851931727015263 4.939690650908082 80
-5.359878397722907 1.950836196057551 80
-5.359878397722898 -1.950836196057576 80
-2.851931727015253 -4.939690650908087 80
0.9904654944534206 -5.617208951652245 80
4.369412903269518 -3.666372755594664 80
11.70018397400145 0 3.80952380952381
11.40036794800291 0 7.61904761904762
11.10055192200436 0 11.42857142857143
10.80073589600581 0 15.23809523809524
10.50091987000727 0 19.04761904761905
10.20110384400872 0 22.85714285714286
9.901287818010173 0 26.66666666666667
9.601471792011626 0 30.47619047619048
9.301655766013079 0 34.28571428571429
9.001839740014532 0 38.0952380952381
8.702023714015986 0 41.90476190476191
8.402207688017439 0 45.71428571428572
8.102391662018892 0 49.52380952380953
7.802575636020347 0 53.33333333333334
7.502759610021799 0 57.14285714285715
7.202943584023253 0 60.95238095238096
6.903127558024707 0 64.76190476190476
6.603311532026159 0 68.57142857142858
6.303495506027613 0 72.38095238095238
6.003679480029065 0 76.1904761904762
7.226960748155472 1.5 20.57151705138351
7.502332797154969 1.5 17.142998221478
7.77731877881909 1.5 13.71444932900837
8.05195832413159 1.5 10.28587238811225
8.326285741525062 1.5 6.857269743325659
8.600330765283932 1.5 3.428645453995856
5.594630381803994 4.389612024912318 24
3.110735734665644 6.394677945552327 24
0 8.730165576601308 3.428571428571429
0 8.460331153202615 6.857142857142858
0 8.190496729803924 10.28571428571428
0 7.920662306405232 13.71428571428572
0 7.650827883006539 17.14285714285715
0 7.380993459607848 20.57142857142857
-8.600330765283932 1.5 3.428645453995856
-8.326285741525062 1.5 6.857269743325659
-8.05195832413159 1.5 10.28587238811225
-7.777318778819094 1.5 13.71444932900832
-7.502332797154969 1.5 17.142998221478
-7.226960748155472 1.5 20.57151705138351
3.475578471213769 1.5 24
0 1.5 24
-3.475578471213769 1.5 24
-3.110735734665634 6.394677945552331 24
-5.594630381803992 4.389612024912321 24
-6.094776422700579 -4.904133261838926 14.95723838168967
0.1252045933181442 -8.759612171053034 3.043048047852455
6.701535393242448 -3.968666754792246 15.39343637256765
7.199301624124705 -4.172656350833524 8.626013586471629
-6.767160238684197 -4.863550641091424 8.46764843928581
-0.1511911604399638 -7.369525747069781 20.69743571908307
-6.139164078656908 -6.277609928296338 2.788619961339913
5.873055585542876 -6.492145781280667 3.119758966070434
-3.809049285247451 -6.30708485054776 20.73587791394324
-1.700902483676809 -7.431520710876453 17.48774320820123
1.622256241713323 -7.452544843730138 17.44477700042826
-0.4142792807532296 -7.856425429336071 14.39180244854742
2.902608560008042 -7.328304839354002 14.20290583994947
1.159148289098297 -8.031081806674875 11.25385793452627
-2.278757646937705 -7.774696473512955 11.41312208984062
-0.7286948256146627 -8.314435651181656 8.305960283296351
2.911472584244396 -7.83746449892375 8.122151244922794
-4.075937488474857 -7.273208368074466 8.418683495962176
3.52447981803596 -6.500099732513661 20.4044304611305
-5.095322052879888 -6.292085296931853 11.48058017600888
-6.231673415189664 -4.215913162686602 18.75680578003212
-3.520612438012685 -7.025338105566951 14.5089307448213
4.58049731040741 -6.721200775015299 11.00861945577097
6.847792909869402 -4.24696159473207 11.97114771642813
6.218087405255715 -4.235751153462693 18.75805426339305
-2.313904953225919 -8.231724612857873 5.708172819952407
3.26651529355104 -8.130087816029405 3.027117687966616
7.44282491332832 -4.271138395089387 5.320416494656091
5.504121236375256 -6.450224778554817 6.61445614732545
-7.506061144939119 -4.153757688182788 5.352707003084218
4.519429121613673 -6.197797165288577 16.89177357865661
-3.522670095859346 -8.054133056094885 2.658066303286018
-6.980239237295322 -4.041441253658674 11.87024864567062
0.9534103308011961 -8.486786403093955 5.842671001892568
-5.072409197621023 -6.896154183886007 5.581321371075061
-4.657230510010509 -6.069106845483727 17.15225200480435
6.098143942735159 -4.03938979968042 21.41446739933419
-6.161426038591676 -3.919183101168868 21.57168769113873
7.848026387245394 -3.975895439715445 2.570654826768807
-7.872438816592566 -3.929885024019625 2.556193956884277
5.348408511282019 -5.853596624101537 13.60752316139767
3.346580756934906 -7.876579865955057 5.615586358976541
1.77635683940025e-15 -1.5 3.074085229787914
-4.661060097220902 -1.5 12.20122512921726
4.319689851970574 -1.5 15.00094924834362
-1.749172202798002 -1.5 21.03674769763346
5.300074840571789 -1.5 8.507993142542905
-5.850981802789321 -1.5 5.059691912451712
4.912153922378559 -1.5 3.694105805755594
-4.223195943069328 -1.5 18.45821219007281
1.870955712910567 -1.5 20.54585277818606
-0.4155803053423313 -1.5 17.84485135597718
-2.596463422295011 -1.5 15.28118916805012
0.7960646595488878 -1.5 14.78821712986802
-5.434308393261871 -1.5 8.448979329315453
-2.238326879213012 -1.5 9.568078888438169
4.988873913333851 -1.5 11.62665893528843
1.462777925386426 -1.5 9.654713755059442
2.722408389234621 -1.5 5.685717402333476
-0.7989142378766001 -1.5 6.215996023812394
4.576715622155604 -1.5 18.58567418134746
-3.25267093054747 -1.5 3.08268307422524
-0.8083858869760512 -1.5 12.32243909127601
-5.426353823091376 -1.5 15.25119276132364
4.555885615229768 -1.5 21.41546415209275
-4.555855746587053 -1.5 21.41543147037941
2.283563435578117 -1.5 17.18300321344981
2.266851471894157 -1.5 12.5623253519945
-6.334296948943354 -1.5 2.345812590809078
2.532923559755732 -1.5 2.487079175657685
6.0006388669704 -1.5 5.97074680145338
-3.607765021446244 -1.5 6.480089976072231
1.764130539645716 -3.724721346085632 24
-1.147702838468087 -4.217170669440439 24
4.098470638881822 -9.479816147688613 0
-7.099295739719495 7.814668436628774e-14 0
7.099295739719569 1.698500362568311e-13 0
1.27675647831893e-15 -5.551115123125783e-17 0
3.549647869859776 0 0
-3.549647869859773 1.110223024625157e-16 0
-10.35522765774104 6.750155989720952e-14 0
-9.770542543260143 3.411256196175788 0
-9.712246808200572 -3.507774616004609 0
-8.077142184094621 6.468110042961442 0
7.177586718607229 -7.420466418490129 0
7.852647972501897 3.36414767731799 43.92630108794973
9.187129548667874 -3.278832745751793 28.52929266660576
9.193385683973851 3.261669051936942 28.52751348170485
6.315693815576057 3.747663305890569 59.16127213825281
8.202598638317122 -3.339859944179266 39.94217221571743
7.258550611144684 -3.261603942001024 51.3625884277802
6.28168907922707 -3.217624949421028 62.79643657168234
-11.73088669374762 -1.940162152660214e-14 3.419408766471628
-2.858940525183844 11.36240770915753 3.60140782375581
-2.879762434608137 -11.37192468062312 3.419408766471416
10.22019901258657 2.983323608791865 17.19502836745328
10.13994097335968 -3.269426385055376 17.10264947107312
-4.569827600815146 3.834540654387735 76.67576704977424
5.450667959609136 4.023529128818872 66.39184880784762
8.556170864760963 3.26042061946302 36.13223697642573
5.61044116807096 -3.199497478681198 70.40984790038134
7.164186615473385 3.457827649537246 51.39650478584727
10.76679505192452 -3.273589817930735 9.485744271980062
10.44799619065241 4.180353730174583 9.488162967248714
4.49028386723253 10.84287601021214 3.356108953154178
4.760830161067659 -10.72916816123887 3.329074756097133
-9.257317901175377 7.20525973842184 3.419408766471709
-9.257317901175359 -7.205259738421862 3.419408766471709
-4.734710483815427 -3.606922258583172 76.84598676661814
5.174465279589285 3.349832671995456 74.15178871338107
2.887718507997581 -5.220182370260495 76.67342857979924
10.31700692552853 -5.583284939902473 3.41940876647138
10.26742582156673 5.731822287130231 3.062336497911574
8.254335837061502 3.20965508351747 39.9431356077598
6.941724485140153 -3.231594058344178 55.18214279968835
7.55442091123298 -3.325381040516056 47.59827547644049
7.89438733305947 -3.293044791867373 43.78960753009091
8.504276989594718 -3.379151809956674 36.1995655535712
8.85844653003381 -3.292364798754181 32.39460971492055
7.386665744908629 -6.155455027129658 30.30150176148513
6.24169309881289 -6.086106159310878 41.70475403649733
5.114798219822169 -5.916118930507204 53.10444231979357
7.765621487589446 -6.167498833624282 26.46956781329375
5.089167457022627 -8.356562844782834 28.15363034471178
5.521499711592031 -8.438633381984349 24.33851330945605
2.255952704267504 -9.700511213992653 25.92854161198906
7.055894148799437 5.626754329958217 37.80421028529809
1.757136485420454 -9.498188342802447 29.74073339027623
2.726189903559049 -9.891015108647458 22.11084505840078
-0.8184878821981257 -10.10801676771007 23.61955384802136
-0.3118634137517993 -10.43639518176641 19.80829036608681
-3.804568252200562 -9.602357330789919 21.23713341399902
-4.251338551667356 -9.08366850161295 25.04008318954758
-6.830915179052865 -7.606491623761736 22.57247033108098
-7.145433550362012 -6.88948706144586 26.35473177067224
-9.005736568246471 -4.630934062611647 23.80329335864789
-9.08627447496678 -3.753655374035769 27.55862620238734
-9.981339285539837 -1.068059057274556 24.92549779557185
-9.743569274561406 -0.1394979600202941 28.65798311906115
-9.096592676932794 -2.862530128802068 31.30357085058265
-10.12672720579998 -2.048808150229346 21.19518253324174
-10.11283510915453 1.668213659326754 22.24213669433174
-9.416685465687374 0.8211405146445629 32.37007773426669
-9.039688142145977 -1.927214787957137 35.0330206989824
-8.998372391320132 3.532879713417136 29.64288180990508
-6.485338717929331 -8.285488266951907 18.78191401458886
-10.51844847405989 0.7125391355283339 18.51859191437358
-9.517659704410804 4.353871603922512 19.48835085333862
-8.295051910776047 4.373757129529472 33.32193291246487
-6.943368837282562 6.626983124947664 30.51654932871442
-10.19565371758237 3.433036793817391 15.77961081547426
-8.320645564726354 6.707262697597397 16.67816626962047
-10.83403811428202 -0.2607652091993873 14.7750817500779
-7.316692511148797 7.387486485405568 20.3611189594715
-5.412363833523399 9.142616518434862 17.47671559886406
-4.14200816225489 9.471719362356259 21.12050519862427
-1.823452021540325 10.41159149118838 18.16908260163873
-0.4177863893119331 10.27841393952903 21.76698267746939
-5.866440701592366 7.231742501198966 34.15435876191387
-3.825557948607969 8.73818225847789 31.27116748668501
-6.607509531023925 8.684777835743359 13.81689615434375
-7.66395098537704 -5.326953726719163 33.88221229147457
-7.84209443216057 -4.494150906796136 37.62847276473675
-8.896827512940517 -0.9762579164725624 38.75100041290855
-7.972540247948755 -3.593454048429119 41.35921585108301
-8.658680569410015 0.01073793362511862 42.45540417305415
-8.011927774780878 -2.689407110731764 45.09094055314831
-8.313376834212555 0.9505557235520337 46.15473116540116
-7.965522831595041 -1.764046609717346 48.81065797718458
-7.849844893866682 1.903870480172942 49.84104652318626
-7.821600447933371 -0.8348292769311266 52.52711318837452
-7.255689021474994 2.829875083701707 53.5183123283945
-7.573012326685519 0.1339537283690059 56.23515978928911
-6.990298948889743 4.464887778356087 47.0822503307492
-6.414535473085713 -5.189325437084293 47.63836214229779
-5.512943501805979 -7.28526619163485 36.3897682065836
-6.5200286881924 3.705151722404004 57.1873045607578
-7.198635772434076 1.104345286503887 59.93704630298132
-6.898686842330408 -2.582853210806483 58.87619308455191
-6.878055609993906 -1.64698754197339 62.6098591511595
-6.680951244994481 2.062257100212319 63.63271885415471
-5.037851342538322 5.851431068746695 54.36544742477719
-6.744387424440411 -0.6822482437729882 66.34154717463052
-5.495383551614553 -4.128615214698995 65.13863427707172
-6.003669849034806 2.977947800894813 67.3218136524526
1.993536039403195 10.33373335742544 18.75094441189735
0.5933076947511098 10.78888804125383 15.18150738870785
3.491477907889306 9.634827664370631 22.26200339988673
3.20773184368005 -10.06264772362545 18.27718944059449
0.1717979531656355 -10.74098235585322 15.97987973940102
3.698137598447505 -10.21464043177736 14.44091245340418
-3.857605836847972 6.357526040406401 57.98670642180605
-1.634717055726509 7.489923127120005 55.06563142480727
-2.613172919712274 8.880316308823456 34.85542459311016
-0.5756136387943421 9.472708986100805 31.89026657789037
-4.687546263416813 7.714686999530366 37.77360672238763
-10.76364586155213 2.507774051079132 12.0464599352143
0.5953926556781067 -11.02271227298234 12.2134498410262
-11.06471475908397 -1.234957175457875 11.01094801959542
4.310865725015761 9.864035121228332 15.69362222805192
2.982512397088291 10.63402793052567 12.14253309469083
-1.205644896823899 8.891758849772064 38.46010564282693
-4.583097036266159 5.19064000594041 64.49142306236195
-3.317212804378991 5.752409445677421 68.10093736750702
7.091129446368416 6.041541524631016 34.10585073504763
4.725926187820281 -5.850638490420388 56.91201338052852
2.02632581386173 -7.420454927627982 54.73644388294052
1.56055646007691 -7.22677919876315 58.53299522878562
2.485710275822735 -7.594502421954108 50.93985723540808
-1.024763088285787 -7.804728949054108 52.45480511091282
-6.470586567544406 0.4569491664860978 70.05310272632831
-10.19927592343249 -3.913433217286198 13.66814677244821
-2.891242488447024 -10.53929861787892 13.61238106317213
-3.418578270473508 8.04763552622577 41.37606803921453
0.3082274693495712 8.689131631132755 41.99913040753665
-3.00235341525516 7.359542483891481 51.48051582511275
6.433789248700174 8.933487409279108 12.59025593047616
-5.125645864765908 -7.918430108534416 32.62201904671513
-2.323986137563196 -8.945372185416721 35.03956685629386
-2.800337393254084 -8.494959743483964 38.82228125913468
0.7163369603938471 -9.029710642151478 37.38063809316105
3.916008866206802 -10.49408585500747 10.1530729954149
6.833840950915993 -8.613431824706229 12.76825370000327
0.8520086170518875 7.856580713647602 52.06184662246269
-0.2129487552821542 7.382510118037352 58.63175590063087
-1.131971276609789 6.775778626607903 65.18686699777084
0.3138878721346205 6.58105666277226 68.75914465576408
-0.8311595401354492 11.05701947088567 11.58533039505145
0.2272916473346468 -8.756676372984169 41.17285913981785
-0.5487383183939208 -8.15110195559418 48.67045888967493
-10.14068930467603 -4.806359197325695 9.884643589833647
7.216684633987414 -8.638571578469692 9.44894618075665
-1.522844561923876 9.650349214582064 28.33783073418363
2.271966526263578 9.456658878241594 28.89707568703063
-7.914733510123622 5.923231674078305 26.8643331125572
-2.07392438451833 8.203454527428157 44.96027004827168
1.713596896555235 8.240052716994624 45.5346390792506
-3.26293458874715 -8.008222388946807 42.59820398351675
2.939418519328391 -7.751382283849158 47.14001302487563
8.123560547746109 -6.195961667958151 22.65821746728217
-2.250119302393951 -11.00153684010811 9.792857996022089
-8.45042337655698 2.700011148371409 39.75408053708896
-8.390674969795766 -7.142185165808361 12.46716552266424
4.256161495712179 8.139435276869802 35.76721080742623
1.612961057320964 11.20831718163195 8.59217634205679
-2.067108549546353 6.008141227548736 71.74184884733772
-8.07185028687165 -7.935486233411168 8.64902582490588
3.764146217164964 7.80500942380139 42.37171470079416
-1.398366895051208 5.803656351179128 76.6216528846046
-11.23993698699537 1.558214220490131 8.291661473531157
-10.02834528158982 5.145430687092321 9.258468959402382
7.158536234316098 8.019534354381623 15.88566816662869
5.151751967357229 6.611914472407516 45.97102044621416
8.913721244578763 6.423501393091118 12.87044427608741
8.281697111763595 7.622140384418028 9.461321181647879
-2.249205882353474 11.14906951062492 7.958104731412902
1.753018873843492 6.061071276181846 72.30478901311295
2.25751111008492 5.541662143221762 76.44252397572616
5.224264068129956 3.792581087428415 70.44647569570795
2.299482221209035 6.432780233979469 65.67305352358943
6.982908054216741 -6.154043313835363 34.20893227174557
5.358472174005067 7.838432137177104 31.82956649690543
5.455381531311837 8.105333754034852 28.33176544593834
-4.057616516083595 -6.962275556321806 50.08299563748992
-4.414067971957087 -6.385052641842626 53.84541773285764
1.225795746960485 -9.278030172967279 33.56147327149266
1.266928272204988 6.988967084378821 62.22393110766126
4.688369738372356 5.295049720734532 62.61152511180218
-4.720680742728192 -8.509641757818395 28.82615549886384
4.613619849925374 -8.279946419535051 32.03799912094067
-6.214830678753057 7.973441373544241 24.02240136196827
-0.6357752232128144 8.156408260039425 48.52309732127299
6.385734955233902 -8.57071103803295 16.66973541285778
5.971288116365369 -8.498513761042345 20.50046085950656
-7.794073819762683 3.586628403826123 43.45885588037581
5.485352864328401 -5.98695291026471 49.30140353223524
5.676885882321353 8.82016265760819 19.19714828423802
6.660422038478128 7.740171508660845 22.72707262372379
8.359053210601076 6.284558588165103 19.5931601396663
9.206009493044389 4.380529074806783 22.93368956135042
8.89355869761723 3.209675628130263 32.33703642862977
7.477588695828868 3.510608068578286 47.51266727939862
9.496108191789308 -3.299548054157022 24.73880420840919
6.968349721130855 3.173376062742921 55.18423825120583
4.808975436434563 5.803203285604041 56.71028334403021
6.588055593292503 -3.271010554190764 59.01517167686383
3.674920400015405 -8.085638237082978 39.62319545423523
-1.321678290909207 -9.75252719393947 27.42408488681303
-1.852731049040136 -9.359279979574584 31.24585385886261
-4.254006404718901 7.04446221550724 47.91156419440506
10.45827933608276 -3.243596508958598 13.34498167236876
-5.4539224192874 6.54200952809544 44.25282480963546
-9.205526215964497 5.979576443477752 12.99698991653198
-10.20421682834215 -2.967072023074016 17.44775427502216
-1.740021170735655 -7.371595664640457 56.23546425426022
-2.048148663944256 -6.983640103122294 60.00144148094715
1.064147377462677 -7.014304709560869 62.32943666051296
-2.491229813624106 -6.518023887965533 63.81203750000398
0.6171955535897359 -6.766147079919302 66.14547155424982
-5.164351748702 -4.974297182259173 61.36630700363924
-4.845349210710479 -5.683189286852185 57.5802447651873
-8.988795291577313 1.769545913149663 36.06888435685875
5.934824070817915 -3.223654087874168 66.65903919708769
-7.463439537524545 5.18811487039159 36.98109059135232
-6.528162464902876 5.90060091602939 40.66418954393206
-6.183453915998006 -5.897582417519409 43.90026769355845
-5.035577556729462 8.431767010589097 27.68701725942351
-3.350656577487041 -10.08557754514145 17.43805984632047
3.068436603845214 7.539501547298443 49.0461167006348
4.331201524868066 6.56583045149342 52.5311009625609
4.127975582109871 -8.20052297071201 35.82017623430502
0.8707238160897116 9.963575598889976 25.39271722040898
-8.836381343957401 -5.518364065513579 20.10167129743116
-9.593517492088241 2.651590490959923 26.00685575041171
-6.68652434541147 -4.310311643871845 51.3915115799026
-3.203696791966063 10.36779499542449 14.59319677209047
-7.429717211631678 -6.125263677140022 30.12514994742848
-5.63620214215871 4.498390645112666 60.84669131394386
-8.722397068879307 5.235165744090364 23.21595845572247
-2.561792060053389 6.678377999409106 61.58865989180894
-6.078064930407516 5.213016563756689 50.73082458154278
-5.708604011242621 -3.257904803687939 68.95872420935505
-5.789311414168028 -2.424279395670038 72.72517241285752
-3.579054858652639 -5.285323393474606 71.3691714020045
-5.970585136127424 -0.09420995689322052 76.60153614417673
-5.874515646604618 2.04888143575713 73.42200045543038
-3.101609711047647 -5.915250688819246 67.60863815695944
-0.09444488940552685 -6.493705892062674 69.95537403214163
-0.5768366577335649 -6.162793499478695 73.82647323963774
3.058473596511557 -5.524389239708949 72.24089867798909
-10.75001556783993 4.257844006615593 5.558599708861429
-11.22854346385638 -2.308894959125368 6.817237963633214
-3.548475569039251 -7.558635086482588 46.37601661821775
-4.537122236542735 10.17483831381733 10.91980100286221
-5.846931545540181 9.819152745048207 7.266178429526299
5.411198686789901 9.899444571144556 9.124997747009475
6.798800685018046 9.287000687704106 6.230471261111404
-0.1125749887956187 -8.461821498688657 44.94730591693916
5.265630041300644 -3.193465365751714 74.22540097917354
-8.647207003455856 -6.335228065449082 16.26933305970573
9.83075645554719 -3.250599236806467 20.91143596430127
6.554331352205882 -6.185962401372825 37.95962165860938
8.508915443059172 -6.174245613677521 18.89425823343464
-5.893089096781338 -6.589566139429478 40.14781169245325
-6.087767676558835 -8.939362440506221 15.05162975861531
-7.644099688342223 8.185100255487541 10.17169923649452
4.331997533570377 -5.777948035940932 60.71587452157729
3.909484719082602 -5.706447104885039 64.58314015052426
3.447052926912737 -5.647575769464646 68.4046081959344
3.306775649346906 -7.924622688532103 43.36787415149303
5.8747894199546 -6.031624756717244 45.4902894783724
-6.830963700445604 -3.466891416007864 55.14011726281455
-5.605101342154673 -9.613555194572198 11.07683009831708
-2.857630892608605 9.634155415921839 24.78942364997721
2.208275239350179 8.646021355320018 39.08970439561057
7.983739988406651 -8.602990854984787 3.344770207887593
-6.628115820612388 9.669030911060538 3.523223115243133
1.016226291055013 -11.69268318132344 3.344770207887584
2.577458584343551 -11.18172887316552 6.671461535402941
1.350263398680432 11.65284543617226 3.420321107842411
-11.08582684123438 -3.843080224988896 3.391726388713904
8.870825477295408 -6.182934959066029 15.08269959477902
-6.37984932243638 -9.851349068855669 3.34477020788756
-4.64702454998688 -10.48706498766037 6.72738211287827
9.193520006889354 -6.236005983361949 11.32197202389905
-0.9086153033074927 -11.44966041105999 6.535353781422685
11.09987319674662 -3.128692215629423 5.941614034445701
9.122826361639312 -6.92103948893295 6.974958836508009
11.09987319675308 3.128692215598836 5.941614034472197
1.962303814523036 7.378469276408951 55.46323261281708
10.43039419010439 3.340667860890737 13.31211121240182
7.47919258649926 6.031642311535468 30.38969314154361
-5.12975921299878 3.895001019694706 70.63479670911396
7.654874624076596 6.389288493783396 25.78135328251476
-8.521226698350516 7.661079911104133 6.876957047529299
0.9114772327041494 9.152484963790851 35.60584708139019
-10.04234374334578 -5.587477896969896 6.4533626951067
6.622940593803954 5.658600160687462 41.78955732834888
5.59630473872818 5.887375313724726 49.26454786252421
-1.027630762673255 -5.827983661628775 77.2805386533788
4.475336841739814 8.929830929093228 25.55828403065459
9.955290741670126 2.985748230707223 20.41394581435769
9.462748655682224 6.511038932915182 6.525986870641624
3.416476527984488 6.43989049090405 59.84587449428301
8.132364971260229 8.506723369147998 2.940347201548278
6.544853882971231 2.637159340854741 62.81714809091613
5.942920089619063 -9.834312352788992 6.473585512139939
9.581659391898594 2.841009391620978 25.48896768373129
3.697978121224714 10.89617638353585 6.269319594593276
-11.16591997596954 3.833265169558845 2.470355590065799
-3.810684340922273 4.886759864637739 73.73520497153196
5.009662314378178 3.179189516651631 77.08482478945091
5.235205843931424 -2.763747951056557 77.2544942922482
0.747253036118003 -11.25953285122227 9.093807850484421
11.42161303753389 -2.865258955235403 2.85224460448703
11.43396464721201 2.820216538592482 2.83810148489461
-7.772959482060533 -8.544253587525269 5.706423830937331
3.064424264806479 5.833802227325949 68.74457383422646
-3.242892998853706 -5.22220641510263 74.36715722052652
-3.605399407267842e-05 11.51964643995883 6.103470678916632
5.066299030561234 7.267189393117691 39.91194855125679
9.223265886199695 5.549810882748201 15.70171824783453
2.429539974508322 9.084352130410032 32.99010273990132
-0.7904331584863591 6.127167277498466 73.97626497621567
7.143840431597024 4.288066734265348 8.48793658490481
6.524825948781968 4.260742931708436 15.33929546753767
2.581992859260857 8.19636036451422 5.165982962188084
4.634320600770571 5.681214679686612 21.19836552421895
2.749854258333476 7.577505016280864 11.93068512189373
6.755388806333396 5.617658137566788 2.719442449965966
2.76430603040862 7.858943875358719 8.501346502890229
6.874000551048167 4.214135995220401 11.90661463648493
2.768942076206596 7.281962076962496 15.36642444212282
6.409536562453366 3.94411665414411 18.7310231593289
2.435143264864299 7.120244416466893 18.73981296349371
5.455421974286023 6.531276477192488 6.226711214111806
7.514561303153638 4.131002055199457 5.397777641475952
4.419270588623044 7.60765143503871 2.565563779315279
5.220366106657479 6.336321221295594 10.04015444214526
5.029049254740472 6.142340669890833 13.48771390631335
4.794694884119638 5.968686580157672 17.07715366739063
6.278081450819201 3.7292239761127 21.57320922673731
2.344920523031258 6.914122456435754 21.58858967116413
2.183243751297347 8.537800109649362 2.382105022452302
7.998125080799761 3.708734504934531 2.335880365097307
1.77635683940025e-15 1.5 3.074085229787854
4.66106009722089 1.5 12.20122512921726
-4.319689851970573 1.5 15.00094924834363
1.749172202797991 1.5 21.03674769763348
-5.300074840571792 1.5 8.507993142542901
5.850981802789324 1.5 5.059691912451706
-4.912153922378547 1.5 3.694105805755597
4.223195943069323 1.5 18.45821219007281
-1.870955712910559 1.5 20.54585277818608
0.4155803053423277 1.5 17.84485135597721
2.596463422294987 1.5 15.28118916805014
-0.7960646595489074 1.5 14.78821712986805
5.434308393261872 1.5 8.448979329315453
2.23832687921301 1.5 9.568078888438164
-4.988873913333851 1.5 11.62665893528843
-1.462777925386431 1.5 9.654713755059436
-2.722408389234619 1.5 5.68571740233346
0.7989142378766037 1.5 6.215996023812377
-4.5767156221556 1.5 18.58567418134747
3.252670930547467 1.5 3.082683074225225
0.8083858869760441 1.5 12.32243909127602
5.426353823091362 1.5 15.25119276132364
-4.55588561522976 1.5 21.41546415209275
4.555855746587051 1.5 21.41543147037942
-2.283563435578113 1.5 17.18300321344984
-2.266851471894153 1.5 12.56232535199451
6.334296948943313 1.5 2.34581259080907
-2.532923559755742 1.5 2.487079175657676
-6.000638866970405 1.5 5.970746801453383
3.607765021446256 1.5 6.480089976072231
-7.143840431596983 4.288066734265418 8.487936584904817
-6.524825948781898 4.260742931708545 15.33929546753765
-2.933662763158149 8.082482614175328 5.102501603074401
-4.634386934706671 5.680685663208509 21.20304127053078
-2.927414933366274 7.508475953377479 11.9569420156465
-6.755388806333396 5.617658137566789 2.719442449965965
-2.930413900229545 7.796188817581563 8.529185513002036
-6.874000551047812 4.214135995220979 11.90661463648494
-2.923837964881218 7.219669458685213 15.38400477970039
-6.406152716700773 3.949084434294562 18.73453044536849
-2.879746114000977 6.952420978984764 18.73872230063966
-5.604320696512055 6.404216442013845 6.224324246041864
-7.51456130315274 4.131002055201752 5.397777641471913
-4.419270588622521 7.607651435037823 2.565563779328344
-5.278109717931831 6.290211417120332 10.02157386974643
-5.068001734870764 6.108864898781998 13.50117039086525
-4.935988631122489 5.847124521571896 17.12817575134829
-6.278081450819204 3.729223976112695 21.5732092267373
-2.468733998816193 6.873747200334097 21.55439238357463
-2.359103464005213 8.496196820949541 2.317136347145825
-7.974112712766581 3.746582121306063 2.40895004549475
1.861466232561885 -0.6775183007441694 80
-1.796581528936375 0.6539021999652996 80
1.425965863507625 2.469845325454036 80
-0.4952327472266952 -2.808604475826126 80
0.9916838240754161 4.305579518104578 24
-1.784103943452285 3.877389347290826 24
3.297941598344551 4.085521278067585 24
-0.0005011519442839718 0.00114142982755272 33.23520961057798
-0.02891948818436951 0.04772449730726527 41.88378819697191
0.05832652532291638 0.2583959000429807 49.79477813278267
-0.07230631747309424 0.005040095419701629 57.22337130570284
-0.01090449123074499 -0.007140969103282657 64.15387571604764
2.098405427510833 3.709192064965327 29.51496059574493
-0.187151250463339 -0.03399585997179688 70.46755727861924
2.016184395187709 -3.858087810904112 29.6397447438819
-4.147617662838631 6.439293542825908e-15 29.40247816463917
-3.621487160116103 0.7126702953333222 37.55100855752004
3.475329653934693 1.176794684353683 37.56475995161275
0.03651302603648243 -3.497472086371052 37.57863694145568
1.773578420848149 -2.796221550001357 45.89842551031964
-2.242792436723723 2.720317879679261 45.78516911570702
5.213367706820693 3.327249192660279e-14 28.31786165992112
-0.2851475094190854 4.23256653902869 36.03434027850884
-2.363375263210826 4.044869573095832 31.573162999961
-2.418390271757254 -3.956574610705705 31.69259744606527
-3.08270114798872 -2.126060736765287 45.13426299921885
4.423091256322481 -1.946650001856633 33.9324071469242
2.591560175509155 -1.73040221945134 53.49126206214193
-3.153951263427134 0.2031905789326981 53.45617257382709
2.785132835573052 2.154236212315091 45.53185186693981
1.242026034501543 -0.536397104043805 75.1345735653294
3.5805892760546 -2.494277161790384 40.41916161905688
1.072721497563484 4.351434957899714 40.48720833767631
-3.548167191536368 -2.686561044015564 40.61541962276793
4.297106191091664 2.550365542734764 33.3153111752131
2.572302478266822 -1.526934902635694 60.66278331164137
0.1442929264266304 -0.07609427878589003 28.2170211359322
0.4862046502355926 3.299980047324063 53.45627049002317
-0.1306368475564192 2.941397218623583 60.69458394831336
-2.7652770475235 -1.156302166362499 60.71072380950416
-4.958137407364461 -0.9106802492960406 33.65687523516933
-3.88193047155759 2.450437679727184 41.64816832505353
-1.63603802870565 -3.497215923931225 51.49186197792324
0.1142763290968969 -4.496807075740286 42.21156989135687
-3.639018941831103 4.508051120615609 27.65475811371591
1.236676337783911 -4.977973107348721 33.72069880342503
-4.1001642219676 0.130700084991956 48.68200589158527
-1.412090375924316 -5.597485430802474 27.96910856956445
4.019987170053041 -1.344059662067453 49.27197236055651
4.655426913085464 1.481530747950796 41.70300721025597
0.7121042453838564 2.638480826643913 67.3446694108367
-5.020723656108752 -3.693584769027087 27.90365407553499
2.025881617506803 -1.822387900951564 67.36236952133861
-4.011864889337931 -3.506492969195487 36.6513929269846
-1.22045017945779 4.183274424342935 49.51763780417273
-2.159419998928768 -1.852237698025201 67.23812232905021
-2.15149904212057 -3.209632031292122 55.60587027785589
-4.698920743300791 3.353668219364128 34.74636631415466
3.385037833967868 2.582775828753274 50.15172395955786
-2.695056839499212 2.894449340977681 56.37157950100787
3.938075385866573 5.299584452399232 27.12285125334204
-0.1942971274897074 6.139029636272638 27.68022566549337

CELLS 3427 15637
1 0
1 1
1 2
1 3
1 4
1 5
1 6
1 7
1 8
1 9
1 10
1 11
2 0 12
2 12 13
2 13 14
2 14 15
2 15 16
2 16 17
2 17 1
2 0 18
2 18 19
2 19 20
2 20 21
2 21 1
2 2 22
2 22 23
2 23 24
2 24 25
2 25 26
2 26 27
2 27 0
2 2 28
2 28 29
2 29 30
2 30 31
2 31 3
2 1 32
2 32 33
2 33 34
2 34 35
2 35 36
2 36 37
2 37 3
2 2 38
2 38 39
2 39 40
2 40 3
2 4 41
2 41 42
2 42 43
2 43 44
2 44 45
2 45 46
2 46 47
2 47 48
2 48 49
2 49 50
2 50 51
2 51 52
2 52 53
2 53 54
2 54 55
2 55 56
2 56 57
2 57 58
2 58 4
2 5 59
2 59 60
2 60 61
2 61 6
2 5 62
2 62 63
2 63 64
2 64 65
2 65 7
2 6 66
2 66 67
2 67 68
2 68 7
2 8 69
2 69 70
2 70 71
2 71 72
2 72 73
2 73 74
2 74 75
2 75 76
2 76 8
2 4 77
2 77 78
2 78 79
2 79 80
2 80 81
2 81 82
2 82 83
2 83 84
2 84 85
2 85 86
2 86 87
2 87 88
2 88 89
2 89 90
2 90 91
2 91 92
2 92 93
2 93 94
2 94 95
2 95 96
2 96 8
2 9 97
2 97 98
2 98 99
2 99 100
2 100 101
2 101 102
2 102 5
2 9 103
2 103 104
2 104 10
2 6 105
2 105 106
2 106 107
2 107 108
2 108 109
2 109 110
2 110 10
2 7 111
2 111 112
2 112 113
2 113 114
2 114 115
2 115 116
2 116 11
2 9 117
2 117 118
2 118 119
2 119 11
2 10 120
2 120 121
2 121 11
3 12 161 0
3 0 161 27
3 1 160 17
3 32 160 1
3 22 159 2
3 2 159 28
3 31 158 3
3 3 158 37
3 13 128 12
3 128 161 12
3 14 153 13
3 13 153 128
3 15 123 14
3 123 153 14
3 16 148 15
3 15 148 123
3 17 129 16
3 129 148 16
3 17 160 129
3 23 142 22
3 142 159 22
3 24 122 23
3 122 142 23
3 25 154 24
3 24 154 122
3 26 126 25
3 126 154 25
3 27 151 26
3 26 151 126
3 27 161 151
3 28 130 29
3 28 159 130
3 29 127 30
3 29 130 127
3 30 140 31
3 127 140 30
3 140 158 31
3 33 149 32
3 149 160 32
3 34 125 33
3 125 149 33
3 35 145 34
3 34 145 125
3 36 124 35
3 124 145 35
3 37 146 36
3 36 146 124
3 37 158 146
3 141 143 122
3 122 154 141
3 122 157 142
3 143 157 122
3 147 153 123
3 123 155 147
3 148 155 123
3 124 162 145
3 146 152 124
3 152 162 124
3 125 145 144
3 144 150 125
3 125 150 149
3 139 141 126
3 126 156 139
3 141 154 126
3 151 156 126
3 130 131 127
3 131 132 127
3 132 140 127
3 128 156 151
3 151 161 128
3 153 156 128
3 129 163 148
3 149 150 129
3 129 160 149
3 150 163 129
3 130 157 131
3 142 157 130
3 130 159 142
3 131 133 132
3 131 143 133
3 131 157 143
3 133 134 132
3 134 152 132
3 132 152 140
3 133 135 134
3 133 136 135
3 133 143 136
3 135 144 134
3 144 162 134
3 134 162 152
3 136 137 135
3 137 138 135
3 138 144 135
3 136 139 137
3 136 141 139
3 136 143 141
3 137 155 138
3 139 147 137
3 147 155 137
3 138 150 144
3 138 163 150
3 155 163 138
3 139 156 147
3 140 152 146
3 146 158 140
3 145 162 144
3 147 156 153
3 148 163 155
3 0 190 18
3 27 190 0
3 1 21 32
3 2 187 22
3 38 187 2
3 37 186 3
3 3 186 40
3 18 183 19
3 18 190 183
3 19 164 20
3 19 183 164
3 20 191 21
3 164 191 20
3 21 170 32
3 21 191 170
3 22 171 23
3 22 187 171
3 23 185 24
3 171 185 23
3 24 165 25
3 24 185 165
3 25 176 26
3 165 176 25
3 26 169 27
3 26 176 169
3 169 190 27
3 32 192 33
3 170 192 32
3 33 168 34
3 33 192 168
3 34 178 35
3 168 178 34
3 35 166 36
3 35 178 166
3 36 182 37
3 166 182 36
3 182 186 37
3 39 167 38
3 167 187 38
3 40 172 39
3 39 172 167
3 40 186 172
3 164 181 180
3 180 191 164
3 164 183 181
3 174 184 165
3 165 185 174
3 165 177 176
3 165 184 177
3 175 188 166
3 166 189 175
3 178 189 166
3 166 188 182
3 167 173 171
3 171 187 167
3 172 173 167
3 168 179 178
3 168 180 179
3 168 192 180
3 176 193 169
3 183 190 169
3 169 193 183
3 170 191 180
3 180 192 170
3 173 174 171
3 174 185 171
3 172 188 173
3 172 186 182
3 182 188 172
3 173 175 174
3 173 188 175
3 175 184 174
3 175 189 184
3 177 193 176
3 179 181 177
3 177 184 179
3 181 193 177
3 179 189 178
3 180 181 179
3 184 189 179
3 183 193 181
3 38 2 28
3 31 3 40
3 29 195 28
3 28 195 38
3 30 195 29
3 31 194 30
3 194 195 30
3 40 194 31
3 38 195 39
3 39 194 40
3 39 195 194
3 7 197 0
3 0 202 7
3 12 204 0
3 0 197 18
3 50 202 0
3 0 204 50
3 4 1 5
3 58 1 4
3 1 198 5
3 17 1 58
3 21 198 1
3 41 4 5
3 5 59 41
3 5 198 62
3 45 44 6
3 6 44 61
3 66 45 6
3 7 202 49
3 49 203 7
3 65 197 7
3 7 203 68
3 52 12 13
3 51 12 52
3 51 204 12
3 14 53 13
3 13 53 52
3 15 54 14
3 14 54 53
3 16 196 15
3 15 55 54
3 15 196 55
3 17 206 16
3 56 196 16
3 16 206 56
3 17 58 57
3 57 206 17
3 18 201 19
3 18 197 65
3 65 201 18
3 19 199 20
3 64 199 19
3 19 201 64
3 20 200 21
3 20 199 63
3 63 200 20
3 62 198 21
3 21 200 62
3 41 59 42
3 42 60 43
3 59 60 42
3 44 43 61
3 43 60 61
3 46 45 66
3 47 46 67
3 67 46 66
3 47 205 48
3 67 205 47
3 48 203 49
3 68 203 48
3 48 205 68
3 49 202 50
3 50 204 51
3 55 196 56
3 56 206 57
3 62 200 63
3 63 199 64
3 64 201 65
3 68 205 67
3 41 517 4
3 4 516 58
3 77 516 4
3 4 517 77
3 8 513 69
3 76 514 8
3 96 513 8
3 8 514 96
3 42 234 41
3 234 517 41
3 43 506 42
3 42 506 234
3 44 226 43
3 226 506 43
3 45 481 44
3 44 481 226
3 46 215 45
3 215 481 45
3 47 478 46
3 46 478 215
3 48 228 47
3 228 478 47
3 49 511 48
3 48 511 228
3 50 214 49
3 214 511 49
3 51 482 50
3 50 482 214
3 52 229 51
3 229 482 51
3 53 484 52
3 52 484 229
3 54 216 53
3 216 484 53
3 55 479 54
3 54 479 216
3 56 227 55
3 227 479 55
3 57 477 56
3 56 477 227
3 58 233 57
3 233 477 57
3 58 516 233
3 69 379 70
3 69 513 379
3 70 370 71
3 70 379 370
3 71 219 72
3 71 370 219
3 72 446 73
3 219 446 72
3 73 230 74
3 73 446 230
3 74 501 75
3 230 501 74
3 75 232 76
3 75 501 232
3 232 514 76
3 78 488 77
3 77 490 78
3 488 516 77
3 77 517 490
3 79 224 78
3 78 225 79
3 224 488 78
3 78 490 225
3 80 412 79
3 79 492 80
3 79 412 224
3 225 492 79
3 80 217 81
3 81 218 80
3 80 492 217
3 218 412 80
3 82 462 81
3 81 503 82
3 217 503 81
3 81 462 218
3 83 404 82
3 82 509 83
3 82 503 401
3 401 509 82
3 404 462 82
3 84 208 83
3 83 209 84
3 208 404 83
3 83 509 209
3 85 240 84
3 84 402 85
3 84 240 208
3 209 402 84
3 85 221 86
3 86 239 85
3 85 402 221
3 239 240 85
3 87 211 86
3 86 235 87
3 211 239 86
3 221 235 86
3 87 207 88
3 88 238 87
3 87 235 207
3 87 238 211
3 89 237 88
3 88 403 89
3 207 403 88
3 237 238 88
3 90 212 89
3 89 223 90
3 212 237 89
3 89 403 223
3 91 236 90
3 90 405 91
3 90 236 212
3 223 405 90
3 91 210 92
3 92 407 91
3 91 405 210
3 91 407 236
3 93 213 92
3 92 507 93
3 210 507 92
3 213 407 92
3 93 220 94
3 94 424 93
3 93 424 213
3 93 507 220
3 95 222 94
3 94 380 95
3 220 380 94
3 222 424 94
3 95 231 96
3 96 460 95
3 95 460 222
3 95 380 231
3 231 513 96
3 96 514 460
3 235 499 207
3 374 403 207
3 207 499 374
3 240 241 208
3 241 244 208
3 244 404 208
3 209 493 402
3 209 495 493
3 209 509 495
3 210 505 389
3 389 507 210
3 405 406 210
3 406 505 210
3 238 242 211
3 211 463 239
3 242 463 211
3 236 243 212
3 212 397 237
3 243 397 212
3 213 468 407
3 424 469 213
3 213 469 468
3 371 452 214
3 214 453 371
3 452 511 214
3 214 482 453
3 215 456 377
3 377 521 215
3 215 478 456
3 215 521 481
3 479 487 216
3 216 485 484
3 216 487 485
3 400 503 217
3 217 523 400
3 492 523 217
3 218 483 412
3 462 464 218
3 464 483 218
3 370 512 219
3 219 447 446
3 219 512 447
3 220 519 380
3 220 389 381
3 381 519 220
3 220 507 389
3 221 248 235
3 221 326 248
3 221 402 326
3 222 470 424
3 222 460 451
3 451 470 222
3 403 500 223
3 223 431 405
3 223 500 431
3 412 486 224
3 486 489 224
3 224 489 488
3 225 376 375
3 375 492 225
3 225 504 376
3 490 504 225
3 458 506 226
3 226 510 458
3 481 510 226
3 477 508 227
3 227 480 479
3 227 508 480
3 452 496 228
3 228 511 452
3 228 496 478
3 229 498 482
3 484 518 229
3 229 518 498
3 230 446 444
3 444 520 230
3 230 520 501
3 378 379 231
3 231 380 378
3 379 513 231
3 450 451 232
3 232 501 450
3 451 460 232
3 460 514 232
3 233 489 477
3 488 489 233
3 233 516 488
3 234 504 490
3 490 517 234
3 234 506 504
3 248 499 235
3 236 327 243
3 236 407 327
3 237 472 238
3 397 472 237
3 238 472 242
3 239 382 240
3 239 463 382
3 240 382 241
3 241 245 244
3 241 391 245
3 382 391 241
3 408 463 242
3 242 471 408
3 242 472 471
3 327 328 243
3 328 330 243
3 330 397 243
3 245 246 244
3 246 361 244
3 361 404 244
3 245 247 246
3 245 249 247
3 245 391 249
3 247 250 246
3 250 395 246
3 246 395 361
3 249 409 247
3 247 251 250
3 247 409 251
3 326 365 248
3 365 522 248
3 248 522 499
3 249 391 387
3 387 410 249
3 249 410 409
3 251 252 250
3 252 310 250
3 310 395 250
3 251 253 252
3 251 254 253
3 251 409 254
3 253 429 252
3 252 311 310
3 252 429 311
3 254 255 253
3 255 267 253
3 267 429 253
3 254 256 255
3 254 390 256
3 254 409 390
3 256 257 255
3 257 434 255
3 255 434 267
3 256 258 257
3 256 438 258
3 390 438 256
3 258 259 257
3 259 262 257
3 262 434 257
3 258 260 259
3 258 261 260
3 258 438 261
3 260 435 259
3 259 263 262
3 259 435 263
3 261 264 260
3 264 266 260
3 266 435 260
3 261 265 264
3 261 283 265
3 261 438 283
3 263 268 262
3 268 415 262
3 415 434 262
3 263 269 268
3 263 440 269
3 435 440 263
3 265 423 264
3 264 270 266
3 264 423 270
3 283 284 265
3 284 285 265
3 285 423 265
3 270 271 266
3 271 356 266
3 356 435 266
3 267 466 429
3 434 461 267
3 461 466 267
3 269 272 268
3 272 274 268
3 274 415 268
3 269 273 272
3 269 275 273
3 269 440 275
3 270 280 271
3 270 425 280
3 423 425 270
3 280 281 271
3 281 428 271
3 271 428 356
3 273 414 272
3 272 318 274
3 272 414 318
3 275 276 273
3 276 282 273
3 282 414 273
3 318 320 274
3 320 333 274
3 333 415 274
3 275 277 276
3 275 392 277
3 275 440 392
3 277 278 276
3 278 437 276
3 276 437 282
3 277 279 278
3 277 475 279
3 392 475 277
3 279 307 278
3 307 308 278
3 308 437 278
3 279 309 307
3 279 433 309
3 279 475 433
3 280 315 281
3 280 317 315
3 280 425 317
3 315 316 281
3 316 354 281
3 354 428 281
3 282 467 414
3 437 455 282
3 455 467 282
3 283 297 284
3 283 339 297
3 283 438 339
3 284 286 285
3 284 465 286
3 297 465 284
3 286 287 285
3 287 363 285
3 363 423 285
3 286 288 287
3 286 427 288
3 286 465 427
3 288 289 287
3 289 396 287
3 287 396 363
3 288 290 289
3 288 296 290
3 288 427 296
3 290 291 289
3 291 295 289
3 295 396 289
3 290 292 291
3 290 436 292
3 296 436 290
3 292 293 291
3 293 442 291
3 291 442 295
3 292 294 293
3 292 473 294
3 436 473 292
3 294 298 293
3 298 303 293
3 303 442 293
3 294 299 298
3 294 300 299
3 294 473 300
3 295 413 396
3 411 413 295
3 295 442 411
3 385 436 296
3 296 454 385
3 427 454 296
3 339 340 297
3 340 341 297
3 341 465 297
3 299 439 298
3 298 313 303
3 298 439 313
3 300 301 299
3 301 302 299
3 302 439 299
3 300 421 301
3 300 422 421
3 300 473 422
3 301 304 302
3 301 305 304
3 301 421 305
3 304 306 302
3 306 324 302
3 324 439 302
3 313 314 303
3 314 337 303
3 337 442 303
3 305 443 304
3 304 332 306
3 304 443 332
3 305 421 419
3 419 448 305
3 305 448 443
3 306 325 324
3 306 494 325
3 332 494 306
3 307 321 308
3 309 398 307
3 307 398 321
3 321 322 308
3 322 349 308
3 349 437 308
3 309 399 398
3 309 502 399
3 433 502 309
3 311 312 310
3 312 394 310
3 394 395 310
3 311 319 312
3 311 334 319
3 311 429 334
3 319 343 312
3 343 344 312
3 344 394 312
3 313 346 314
3 313 441 346
3 439 441 313
3 314 345 337
3 314 491 345
3 346 491 314
3 315 497 316
3 317 323 315
3 323 497 315
3 316 355 354
3 316 524 355
3 497 524 316
3 317 335 323
3 317 426 335
3 425 426 317
3 318 371 320
3 318 372 371
3 318 414 372
3 334 362 319
3 319 515 343
3 362 515 319
3 320 352 333
3 320 453 352
3 371 453 320
3 321 338 322
3 321 373 338
3 321 398 373
3 338 457 322
3 322 366 349
3 322 457 366
3 335 336 323
3 336 476 323
3 476 497 323
3 325 347 324
3 347 441 324
3 324 441 439
3 325 348 347
3 325 367 348
3 325 494 367
3 326 383 365
3 326 493 383
3 402 493 326
3 327 329 328
3 327 468 329
3 407 468 327
3 329 416 328
3 328 331 330
3 328 416 331
3 329 417 416
3 329 418 417
3 329 468 418
3 331 351 330
3 351 360 330
3 360 397 330
3 331 385 351
3 331 386 385
3 331 416 386
3 443 444 332
3 444 447 332
3 447 494 332
3 352 364 333
3 364 461 333
3 333 461 415
3 334 474 362
3 429 466 334
3 466 474 334
3 335 357 336
3 335 413 357
3 335 426 413
3 357 358 336
3 358 369 336
3 369 476 336
3 345 393 337
3 393 411 337
3 411 442 337
3 373 375 338
3 375 376 338
3 376 457 338
3 339 410 340
3 390 410 339
3 339 438 390
3 340 342 341
3 340 387 342
3 340 410 387
3 342 350 341
3 350 359 341
3 359 465 341
3 342 408 350
3 387 432 342
3 342 432 408
3 343 353 344
3 343 508 353
3 480 508 343
3 343 515 480
3 353 486 344
3 344 483 394
3 344 486 483
3 345 430 393
3 345 431 430
3 345 491 431
3 346 441 388
3 388 505 346
3 346 505 491
3 348 381 347
3 381 388 347
3 388 441 347
3 367 378 348
3 378 519 348
3 348 519 381
3 366 377 349
3 377 455 349
3 349 455 437
3 350 459 359
3 408 471 350
3 350 471 459
3 351 459 360
3 385 454 351
3 454 459 351
3 352 368 364
3 352 498 368
3 453 498 352
3 353 489 486
3 353 508 489
3 355 433 354
3 354 475 428
3 433 475 354
3 383 384 355
3 355 524 383
3 384 502 355
3 355 502 433
3 356 428 392
3 392 440 356
3 356 440 435
3 357 393 358
3 357 411 393
3 357 413 411
3 358 374 369
3 358 430 374
3 393 430 358
3 359 454 427
3 427 465 359
3 359 459 454
3 360 472 397
3 459 471 360
3 471 472 360
3 395 464 361
3 361 462 404
3 361 464 462
3 474 485 362
3 485 487 362
3 487 515 362
3 396 426 363
3 363 425 423
3 363 426 425
3 368 474 364
3 364 466 461
3 364 474 466
3 383 524 365
3 365 497 476
3 476 522 365
3 365 524 497
3 366 521 377
3 457 510 366
3 510 521 366
3 367 525 378
3 494 512 367
3 512 525 367
3 368 485 474
3 368 518 485
3 498 518 368
3 374 499 369
3 369 522 476
3 499 522 369
3 379 525 370
3 370 525 512
3 372 452 371
3 414 467 372
3 372 496 452
3 467 496 372
3 373 523 375
3 398 400 373
3 400 523 373
3 374 500 403
3 430 500 374
3 375 523 492
3 376 458 457
3 376 504 458
3 377 456 455
3 378 525 379
3 380 519 378
3 381 389 388
3 382 432 391
3 382 463 432
3 383 493 384
3 493 495 384
3 495 502 384
3 386 436 385
3 416 422 386
3 422 473 386
3 386 473 436
3 391 432 387
3 389 505 388
3 409 410 390
3 428 475 392
3 394 464 395
3 394 483 464
3 413 426 396
3 399 400 398
3 399 401 400
3 399 495 401
3 399 502 495
3 401 503 400
3 495 509 401
3 405 431 406
3 431 491 406
3 491 505 406
3 432 463 408
3 483 486 412
3 415 461 434
3 417 422 416
3 418 419 417
3 419 421 417
3 421 422 417
3 418 420 419
3 418 469 420
3 468 469 418
3 420 448 419
3 420 449 448
3 420 470 449
3 469 470 420
3 424 470 469
3 431 500 430
3 443 445 444
3 443 448 445
3 445 520 444
3 446 447 444
3 448 449 445
3 449 450 445
3 450 520 445
3 447 512 494
3 449 451 450
3 449 470 451
3 501 520 450
3 482 498 453
3 456 467 455
3 456 496 467
3 478 496 456
3 458 510 457
3 504 506 458
3 489 508 477
3 480 487 479
3 480 515 487
3 481 521 510
3 485 518 484
3 59 5 546
3 5 102 546
3 6 61 545
3 105 6 545
3 97 9 543
3 9 103 543
3 104 10 544
3 10 110 544
3 60 59 531
3 531 59 546
3 61 60 539
3 60 531 539
3 61 539 545
3 98 97 535
3 535 97 543
3 99 98 527
3 527 98 535
3 100 99 533
3 99 527 533
3 101 100 526
3 526 100 533
3 102 101 538
3 101 526 538
3 102 538 546
3 103 104 529
3 103 529 543
3 529 104 544
3 106 105 528
3 528 105 545
3 107 106 532
3 106 528 532
3 108 107 530
3 530 107 532
3 109 108 534
3 108 530 534
3 110 109 536
3 109 534 536
3 110 536 544
3 526 533 540
3 526 537 538
3 537 526 540
3 533 527 541
3 527 535 542
3 541 527 542
3 532 528 537
3 537 528 539
3 539 528 545
3 535 529 542
3 529 535 543
3 529 536 542
3 536 529 544
3 530 532 540
3 534 530 541
3 530 540 541
3 537 531 538
3 531 537 539
3 538 531 546
3 532 537 540
3 540 533 541
3 536 534 542
3 534 541 542
3 5 62 573
3 102 5 573
3 7 111 65
3 9 97 570
3 117 9 570
3 116 11 569
3 11 119 569
3 62 63 566
3 62 566 573
3 63 64 547
3 63 547 566
3 64 65 574
3 547 64 574
3 65 111 553
3 65 553 574
3 97 98 554
3 97 554 570
3 98 99 568
3 554 98 568
3 99 100 548
3 99 548 568
3 100 101 559
3 548 100 559
3 101 102 552
3 101 552 559
3 552 102 573
3 111 112 575
3 553 111 575
3 112 113 551
3 112 551 575
3 113 114 561
3 551 113 561
3 114 115 549
3 114 549 561
3 115 116 565
3 549 115 565
3 565 116 569
3 118 117 550
3 550 117 570
3 119 118 555
3 118 550 555
3 119 555 569
3 547 563 564
3 563 547 574
3 547 564 566
3 557 548 567
3 548 557 568
3 548 559 560
3 548 560 567
3 558 549 571
3 549 558 572
3 561 549 572
3 549 565 571
3 550 554 556
3 554 550 570
3 555 550 556
3 551 561 562
3 551 562 563
3 551 563 575
3 559 552 576
3 566 552 573
3 552 566 576
3 553 563 574
3 563 553 575
3 556 554 557
3 557 554 568
3 555 556 571
3 555 565 569
3 565 555 571
3 556 557 558
3 556 558 571
3 558 557 567
3 558 567 572
3 560 559 576
3 562 560 564
3 560 562 567
3 564 560 576
3 562 561 572
3 563 562 564
3 567 562 572
3 566 564 576
3 66 6 596
3 6 105 596
3 7 68 597
3 111 7 597
3 110 10 595
3 10 120 595
3 11 116 594
3 121 11 594
3 67 66 590
3 590 66 596
3 68 67 582
3 582 67 590
3 68 582 597
3 105 106 579
3 105 579 596
3 106 107 583
3 579 106 583
3 107 108 581
3 107 581 583
3 108 109 585
3 581 108 585
3 109 110 587
3 585 109 587
3 587 110 595
3 112 111 589
3 589 111 597
3 113 112 577
3 577 112 589
3 114 113 584
3 113 577 584
3 115 114 578
3 578 114 584
3 116 115 586
3 115 578 586
3 116 586 594
3 120 121 580
3 120 580 595
3 580 121 594
3 584 577 591
3 588 577 589
3 577 588 591
3 578 584 592
3 586 578 593
3 578 592 593
3 579 583 588
3 579 588 590
3 579 590 596
3 580 586 593
3 586 580 594
3 587 580 593
3 580 587 595
3 583 581 591
3 581 585 592
3 591 581 592
3 582 588 589
3 588 582 590
3 582 589 597
3 588 583 591
3 584 591 592
3 585 587 593
3 592 585 593
3 69 600 8
3 8 598 76
3 8 600 598
3 70 600 69
3 71 600 70
3 72 599 71
3 599 600 71
3 73 599 72
3 74 601 73
3 73 601 599
3 75 601 74
3 76 601 75
3 598 601 76
3 598 600 599
3 599 601 598
3 117 103 9
3 10 104 602
3 120 10 603
3 10 602 603
3 121 119 11
3 104 103 604
3 103 117 604
3 602 104 604
3 117 118 602
3 117 602 604
3 118 119 603
3 602 118 603
3 119 121 603
3 121 120 603
4 617 623 351 640
4 608 625 327 654
4 417 637 633 654
4 417 633 329 654
4 351 623 454 640
4 330 617 640 646
4 620 630 317 639
4 357 358 618 630
4 524 610 620 621
4 317 630 335 639
4 524 620 610 632
4 244 612 241 619
4 512 611 525 628
4 609 633 418 637
4 306 302 324 609
4 244 241 208 619
4 324 609 302 636
4 616 624 463 643
4 351 617 454 623
4 419 609 418 637
4 306 609 324 648
4 614 620 317 639
4 351 330 617 640
4 327 407 625 633
4 463 624 616 629
4 306 302 609 653
4 88 238 617 647
4 447 611 512 628
4 327 625 608 633
4 241 619 612 624
4 435 613 11 642
4 432 616 463 643
4 335 630 357 639
4 327 625 328 654
4 302 636 609 637
4 358 627 618 630
4 633 637 608 654
4 219 447 512 628
4 244 31 612 619
4 357 630 618 639
4 240 619 241 624
4 370 512 525 628
4 420 469 418 609
4 270 613 266 621
4 605 615 614 616
4 418 609 469 633
4 306 609 648 653
4 219 512 370 628
4 507 633 609 636
4 329 327 328 654
4 613 621 270 655
4 406 635 608 636
4 407 91 625 633
4 294 637 654 657
4 323 335 317 630
4 306 304 302 653
4 91 210 608 633
4 420 418 419 609
4 614 615 606 616
4 406 608 210 636
4 304 301 302 637
4 612 619 605 624
4 608 625 91 633
4 608 633 210 636
4 606 615 614 620
4 323 317 620 630
4 617 238 629 647
4 605 619 612 634
4 385 454 623 640
4 605 619 610 632
4 389 507 609 636
4 324 302 439 636
4 605 610 619 634
4 444 611 447 628
4 357 336 358 630
4 605 624 619 632
4 264 613 270 655
4 360 351 330 617
4 418 633 417 637
4 435 266 613 642
4 317 620 614 655
4 330 397 617 646
4 365 620 615 630
4 615 620 606 630
4 330 640 625 646
4 389 636 609 648
4 236 327 407 625
4 606 620 614 630
4 88 617 627 647
4 300 294 637 654
4 304 301 637 653
4 614 615 605 620
4 347 609 324 636
4 432 463 624 643
4 270 264 266 613
4 439 636 302 637
4 494 611 306 648
4 381 636 389 648
4 469 609 420 650
4 264 638 613 655
4 405 625 608 635
4 324 609 347 648
4 494 306 325 648
4 525 512 367 611
4 317 614 425 655
4 91 608 405 625
4 306 648 611 653
4 236 407 91 625
4 289 623 287 639
4 239 615 624 629
4 360 330 397 617
4 266 621 613 642
4 408 463 432 616
4 294 654 626 657
4 524 316 610 621
4 385 351 454 640
4 289 618 623 639
4 237 88 238 617
4 447 219 446 628
4 520 611 444 628
4 239 86 615 629
4 608 636 635 657
4 446 444 447 628
4 435 260 11 613
4 615 620 365 632
4 296 385 623 640
4 459 623 617 641
4 454 617 459 623
4 619 624 84 632
4 208 3 244 619
4 522 365 615 630
4 11 260 2 613
4 271 270 266 621
4 463 616 408 629
4 240 208 241 619
4 210 406 405 608
4 405 608 406 635
4 420 609 419 653
4 239 624 463 629
4 351 459 454 617
4 610 605 620 621
4 618 627 358 652
4 605 610 620 632
4 524 620 316 621
4 230 520 444 628
4 303 626 442 652
4 604 602 117 610
4 271 621 266 642
4 491 635 406 636
4 332 306 494 611
4 237 88 617 646
4 607 623 617 640
4 417 418 329 633
4 299 637 294 657
4 210 405 91 608
4 219 370 599 628
4 358 627 430 652
4 117 604 610 658
4 210 633 507 636
4 472 242 471 629
4 472 471 617 629
4 419 418 417 637
4 454 623 459 641
4 306 611 332 653
4 419 609 637 653
4 494 325 367 648
4 239 211 86 629
4 285 287 631 639
4 93 648 609 650
4 40 612 31 619
4 296 640 623 644
4 230 444 446 628
4 507 220 389 609
4 413 335 357 639
4 385 454 296 623
4 599 446 219 628
4 88 627 617 646
4 325 306 324 648
4 525 611 378 628
4 391 241 612 624
4 285 631 614 639
4 238 472 617 629
4 623 631 287 639
4 335 336 357 630
4 249 612 247 645
4 220 389 609 648
4 245 241 244 612
4 413 357 618 639
4 435 266 260 613
4 524 365 620 632
4 604 602 610 658
4 30 247 612 645
4 469 213 633 650
4 609 636 347 648
4 471 617 629 641
4 608 654 637 657
4 248 522 365 615
4 419 637 305 653
4 31 244 3 619
4 249 643 612 645
4 85 84 624 632
4 330 625 243 646
4 381 347 636 648
4 249 245 247 612
4 494 367 611 648
4 93 609 507 633
4 31 245 244 612
4 451 460 222 628
4 249 410 643 645
4 330 243 397 646
4 610 621 316 659
4 340 643 622 651
4 30 247 245 612
4 420 650 609 653
4 391 624 612 643
4 248 615 365 632
4 469 633 609 650
4 95 611 222 628
4 209 103 9 658
4 305 637 301 653
4 451 222 611 628
4 303 635 626 652
4 391 382 241 624
4 460 95 222 628
4 493 619 610 658
4 389 210 507 636
4 439 637 299 657
4 84 619 240 624
4 636 637 439 657
4 239 615 86 624
4 119 11 613 642
4 261 638 622 649
4 289 396 618 639
4 285 363 287 639
4 607 618 617 623
4 213 93 633 650
4 317 335 426 639
4 367 512 494 611
4 285 614 363 639
4 283 438 261 622
4 283 622 261 638
4 340 616 643 651
4 2 613 260 649
4 438 261 622 649
4 299 300 294 637
4 609 633 93 650
4 85 615 221 632
4 614 630 620 639
4 369 627 358 630
4 476 620 365 630
4 442 626 644 652
4 617 607 640 646
4 610 619 493 632
4 382 432 463 624
4 85 624 615 632
4 606 617 618 623
4 603 642 634 659
4 85 86 615 624
4 209 9 619 658
4 611 648 380 650
4 520 450 611 628
4 31 40 194 612
4 393 358 430 652
4 289 288 287 623
4 402 619 84 632
4 381 347 388 636
4 622 643 410 645
4 238 242 472 629
4 289 623 618 644
4 220 507 93 609
4 402 493 619 632
4 287 623 288 631
4 38 119 11 613
4 623 640 607 644
4 328 625 330 640
4 304 305 301 653
4 11 2 38 613
4 30 245 31 612
4 616 624 615 629
4 85 86 221 615
4 93 220 609 648
4 222 611 95 650
4 599 230 446 628
4 445 444 520 611
4 524 610 383 632
4 194 612 634 645
4 194 30 31 612
4 315 316 620 621
4 430 652 627 656
4 289 287 396 639
4 356 266 435 642
4 291 442 293 626
4 615 616 605 624
4 603 634 118 659
4 340 622 339 651
4 381 388 389 636
4 406 210 505 636
4 85 402 84 632
4 525 379 370 628
4 617 618 607 627
4 341 616 340 651
4 450 445 520 611
4 291 442 626 644
4 265 638 285 651
4 287 288 286 631
4 425 363 614 639
4 341 616 631 641
4 512 447 494 611
4 342 408 432 616
4 296 436 640 644
4 194 634 39 645
4 625 635 405 656
4 606 618 617 627
4 118 610 602 659
4 285 638 614 651
4 522 476 365 630
4 382 624 391 643
4 38 634 613 649
4 340 339 297 651
4 231 378 611 628
4 261 613 638 649
4 425 426 363 639
4 606 630 614 639
4 610 634 621 642
4 194 612 40 634
4 303 442 337 652
4 625 640 328 654
4 118 634 610 659
4 303 293 442 626
4 612 619 40 634
4 613 634 622 645
4 472 237 238 617
4 231 611 95 628
4 408 616 350 641
4 634 645 613 649
4 634 642 610 659
4 342 350 408 616
4 525 367 378 611
4 239 463 211 629
4 605 616 614 651
4 613 645 622 649
4 613 634 119 642
4 612 643 622 645
4 524 497 316 620
4 432 624 382 643
4 332 611 443 653
4 303 337 635 652
4 606 617 629 647
4 602 118 117 610
4 303 626 635 657
4 445 450 449 611
4 603 119 634 642
4 443 611 445 653
4 93 220 648 650
4 408 629 616 641
4 117 619 610 634
4 90 625 405 656
4 340 616 342 643
4 441 347 324 636
4 94 380 648 650
4 117 610 118 634
4 341 342 340 616
4 525 378 379 628
4 600 599 370 628
4 117 610 619 658
4 454 359 623 641
4 341 350 616 641
4 213 469 424 650
4 351 360 459 617
4 295 442 644 652
4 341 631 616 651
4 615 629 86 647
4 450 451 611 628
4 369 627 630 647
4 289 396 295 618
4 359 631 623 641
4 355 610 316 659
4 522 630 615 647
4 316 497 315 620
4 258 2 260 649
4 445 611 449 653
4 194 30 612 645
4 342 616 432 643
4 209 619 493 658
4 342 341 350 616
4 618 627 606 630
4 222 451 611 650
4 325 324 347 648
4 449 611 451 650
4 603 119 118 634
4 85 84 240 624
4 87 86 211 629
4 327 329 468 633
4 605 638 622 651
4 209 402 493 619
4 94 611 380 650
4 422 637 417 654
4 606 616 615 629
4 427 623 359 631
4 378 611 367 648
4 40 31 3 619
4 605 614 638 651
4 328 243 330 625
4 295 644 618 652
4 622 638 613 649
4 222 95 94 650
4 300 473 294 654
4 95 611 94 650
4 450 451 449 611
4 341 631 359 641
4 618 630 606 639
4 299 439 302 637
4 436 626 640 644
4 261 613 264 638
4 387 249 410 643
4 292 626 436 644
4 331 328 330 640
4 213 424 93 650
4 501 520 230 628
4 260 264 261 613
4 324 439 441 636
4 610 642 621 659
4 380 95 231 611
4 220 381 389 648
4 614 631 285 651
4 266 264 260 613
4 332 494 447 611
4 90 646 625 656
4 332 444 443 611
4 260 613 261 649
4 348 378 367 648
4 430 627 500 656
4 339 622 283 651
4 285 287 286 631
4 621 634 613 642
4 445 443 444 611
4 38 119 613 634
4 85 239 86 624
4 87 86 629 647
4 340 410 622 643
4 336 369 358 630
4 507 210 92 633
4 315 621 620 655
4 208 240 84 619
4 316 355 524 610
4 626 654 608 657
4 522 615 248 647
4 298 299 294 657
4 614 616 606 631
4 606 627 617 647
4 613 605 621 638
4 610 605 621 634
4 2 38 613 649
4 91 92 210 633
4 230 599 601 628
4 298 439 299 657
4 380 231 378 611
4 449 611 650 653
4 118 602 603 659
4 468 329 418 633
4 248 365 326 632
4 613 621 605 634
4 403 627 88 646
4 473 436 626 640
4 95 380 94 611
4 194 39 195 645
4 328 640 331 654
4 419 421 305 637
4 613 638 621 655
4 332 447 444 611
4 471 629 408 641
4 317 315 620 655
4 625 640 607 646
4 391 612 249 643
4 296 436 385 640
4 616 605 624 643
4 416 329 328 654
4 605 612 622 634
4 471 242 408 629
4 417 329 416 654
4 289 618 295 644
4 397 237 472 617
4 473 640 626 654
4 473 626 294 654
4 605 622 613 634
4 600 370 379 628
4 454 359 427 623
4 380 611 378 648
4 295 411 442 652
4 614 620 605 655
4 117 103 604 658
4 605 620 615 632
4 621 638 605 655
4 524 383 365 632
4 284 285 631 651
4 295 618 411 652
4 421 419 417 637
4 325 348 367 648
4 618 623 607 644
4 360 471 459 617
4 369 499 627 647
4 313 636 439 657
4 341 465 359 631
4 465 631 341 651
4 315 280 621 655
4 397 237 617 646
4 459 617 471 641
4 248 221 615 632
4 283 622 638 651
4 297 341 340 651
4 430 345 652 656
4 357 411 618 652
4 497 524 365 620
4 425 363 423 614
4 614 605 638 655
4 612 622 634 645
4 357 393 411 652
4 314 491 346 657
4 240 241 382 624
4 454 459 359 641
4 89 403 88 646
4 358 374 430 627
4 621 642 281 659
4 418 469 468 633
4 339 283 297 651
4 265 285 284 651
4 254 256 390 645
4 40 619 117 634
4 449 451 470 650
4 509 9 209 103
4 316 621 281 659
4 288 623 289 644
4 231 379 378 628
4 380 378 519 648
4 501 230 601 628
4 358 369 374 627
4 256 390 645 649
4 473 386 436 640
4 391 241 245 612
4 258 260 261 649
4 104 658 502 659
4 473 386 640 654
4 88 87 238 647
4 620 621 605 655
4 425 614 423 655
4 612 624 605 643
4 254 28 256 645
4 304 306 332 653
4 194 40 39 634
4 403 627 646 656
4 285 423 363 614
4 91 405 90 625
4 292 291 626 644
4 369 630 499 647
4 296 290 436 644
4 256 645 28 649
4 382 463 239 624
4 438 622 390 649
4 607 626 625 635
4 291 293 292 626
4 259 2 11 260
4 422 421 417 637
4 87 629 238 647
4 119 121 11 642
4 402 209 84 619
4 300 637 422 654
4 625 626 607 640
4 283 339 438 622
4 625 626 608 635
4 248 615 235 647
4 340 410 339 622
4 396 413 295 618
4 430 374 500 627
4 317 280 315 655
4 284 285 286 631
4 339 390 438 622
4 391 245 249 612
4 340 387 410 643
4 91 90 236 625
4 396 413 618 639
4 449 650 420 653
4 243 625 212 646
4 303 337 314 635
4 94 648 220 650
4 221 86 235 615
4 626 640 625 654
4 243 212 397 646
4 397 472 360 617
4 505 210 389 636
4 296 623 290 644
4 605 613 622 638
4 612 605 622 643
4 606 631 623 639
4 314 635 491 657
4 608 626 625 654
4 473 436 292 626
4 615 624 605 632
4 327 468 407 633
4 290 296 288 623
4 387 391 249 643
4 606 623 618 639
4 264 423 638 655
4 360 472 471 617
4 626 607 644 652
4 328 327 243 625
4 313 441 439 636
4 323 620 476 630
4 290 623 288 644
4 390 622 410 645
4 235 615 86 647
4 90 89 646 656
4 635 652 345 656
4 614 638 423 655
4 622 645 390 649
4 3 404 208 244
4 416 328 331 654
4 476 497 365 620
4 249 247 409 645
4 520 501 450 628
4 29 28 254 645
4 598 513 96 628
4 291 295 442 644
4 336 335 323 630
4 390 339 410 622
4 317 315 323 620
4 607 627 618 652
4 606 629 617 641
4 315 280 281 621
4 90 405 223 656
4 315 281 316 621
4 212 625 90 646
4 38 118 119 634
4 87 211 238 629
4 222 470 451 650
4 351 331 330 640
4 290 288 289 644
4 293 626 303 657
4 428 120 475 659
4 83 3 208 619
4 428 642 120 659
4 608 637 636 657
4 341 359 350 641
4 103 209 495 658
4 346 636 313 657
4 281 621 271 642
4 248 326 221 632
4 369 499 374 627
4 403 646 89 656
4 118 38 39 634
4 627 652 607 656
4 303 635 314 657
4 93 507 92 633
4 93 94 220 650
4 294 626 293 657
4 524 355 383 610
4 292 436 290 644
4 383 326 365 632
4 104 502 433 659
4 264 270 423 655
4 441 388 347 636
4 354 316 281 659
4 294 293 298 657
4 432 382 391 643
4 448 420 419 653
4 449 420 448 653
4 610 658 602 659
4 499 522 248 647
4 614 631 606 639
4 248 221 235 615
4 476 323 497 620
4 348 519 378 648
4 448 445 449 653
4 617 627 607 646
4 259 258 2 260
4 242 463 408 629
4 11 259 260 435
4 609 636 633 637
4 617 623 606 641
4 340 342 387 643
4 40 117 118 634
4 271 266 356 642
4 616 606 631 641
4 606 615 630 647
4 598 96 514 628
4 91 407 92 633
4 299 302 301 637
4 413 357 411 618
4 327 236 243 625
4 616 629 606 641
4 383 610 493 632
4 402 85 221 632
4 403 500 627 656
4 469 213 468 633
4 90 223 89 656
4 281 280 271 621
4 431 405 635 656
4 633 636 608 637
4 499 248 235 647
4 301 305 421 637
4 607 635 625 656
4 626 635 607 652
4 121 120 428 642
4 118 39 40 634
4 615 606 629 647
4 283 638 265 651
4 465 427 359 631
4 606 630 627 647
4 616 631 614 651
4 300 421 422 637
4 514 232 598 628
4 433 10 104 659
4 426 335 413 639
4 236 90 212 625
4 297 465 341 651
4 220 94 380 648
4 522 499 630 647
4 296 454 427 623
4 9 117 3 619
4 313 346 441 636
4 428 475 354 659
4 295 413 411 618
4 120 428 392 121
4 355 658 610 659
4 470 420 449 650
4 471 408 350 641
4 213 93 92 633
4 3 83 9 619
4 281 271 428 642
4 383 493 610 658
4 294 473 292 626
4 379 513 600 628
4 88 627 207 647
4 600 513 598 628
4 283 265 284 651
4 431 345 430 656
4 502 658 355 659
4 300 422 473 654
4 315 497 323 620
4 451 450 232 628
4 314 346 313 657
4 623 631 606 641
4 245 30 31 246
4 607 640 626 644
4 231 513 379 628
4 501 232 450 628
4 236 212 243 625
4 10 475 120 659
4 3 117 40 619
4 451 232 460 628
4 242 238 211 629
4 87 235 86 647
4 264 423 265 638
4 417 416 422 654
4 284 631 465 651
4 499 207 627 647
4 289 295 291 644
4 363 396 287 639
4 342 432 387 643
4 284 286 465 631
4 431 405 406 635
4 337 345 314 635
4 237 89 88 646
4 304 332 443 653
4 194 195 30 645
4 607 625 646 656
4 265 283 261 638
4 607 646 627 656
4 83 208 84 619
4 345 635 337 652
4 103 209 509 495
4 386 331 640 654
4 313 439 298 657
4 430 345 393 652
4 305 448 419 653
4 294 292 293 626
4 374 403 500 627
4 598 232 601 628
4 410 249 409 645
4 428 356 121 642
4 88 403 207 627
4 102 101 33 77
4 212 90 89 646
4 431 635 345 656
4 288 296 427 623
4 96 95 460 628
4 2 258 28 649
4 409 251 29 247
4 601 232 501 628
4 240 239 85 624
4 211 463 242 629
4 28 645 195 649
4 602 658 104 659
4 336 323 476 630
4 265 261 264 638
4 370 71 219 599
4 386 416 331 654
4 351 385 331 640
4 404 83 3 208
4 121 428 392 356
4 431 223 405 656
4 374 499 207 627
4 96 231 95 628
4 600 598 599 628
4 502 355 433 659
4 390 409 254 645
4 618 644 607 652
4 257 28 2 258
4 28 195 38 649
4 609 650 648 653
4 50 27 0 202
4 402 221 326 632
4 292 290 291 644
4 383 384 493 658
4 251 30 29 247
4 601 599 598 628
4 585 109 108 437
4 465 286 427 631
4 27 0 7 197
4 347 348 325 648
4 469 420 470 650
4 29 195 28 645
4 254 409 29 645
4 96 598 8 513
4 227 148 16 196
4 293 303 298 657
4 50 0 27 204
4 240 382 239 624
4 10 354 475 659
4 438 258 261 649
4 245 247 30 246
4 595 587 277 110
4 209 83 84 619
4 116 22 11 263
4 369 522 499 630
4 608 635 626 657
4 404 3 31 244
4 443 445 448 653
4 27 7 0 202
4 648 650 611 653
4 206 160 129 477
4 402 326 493 632
4 227 16 56 196
4 387 432 391 643
4 256 28 258 649
4 317 425 280 655
4 599 72 219 446
4 204 27 50 482
4 120 642 603 659
4 93 424 94 650
4 396 426 413 639
4 299 301 300 637
4 583 581 107 455
4 1 4 5 77
4 257 256 28 258
4 10 602 104 659
4 559 34 33 101
4 220 380 519 648
4 388 505 389 636
4 98 37 97 182
4 604 104 602 658
4 383 493 326 632
4 459 350 359 641
4 30 195 29 645
4 386 385 436 640
4 22 11 569 116
4 433 354 10 659
4 577 113 372 112
4 437 109 108 308
4 349 107 581 455
4 363 426 396 639
4 459 471 350 641
4 231 96 513 628
4 403 89 223 656
4 246 31 245 244
4 493 495 209 658
4 534 108 322 530
4 390 410 409 645
4 599 370 71 600
4 587 278 277 110
4 446 599 73 230
4 337 442 411 652
4 22 2 11 263
4 271 356 428 642
4 530 321 534 541
4 475 354 10 433
4 98 36 37 182
4 388 441 346 636
4 99 34 35 178
4 514 598 8 96
4 573 566 200 170
4 183 190 553 201
4 152 124 464 483
4 570 37 3 186
4 607 652 635 656
4 102 546 538 490
4 586 578 272 273
4 227 55 148 196
4 514 96 460 628
4 308 108 322 534
4 88 207 87 647
4 109 585 278 437
4 354 355 316 659
4 213 407 468 633
4 434 159 130 142
4 159 130 255 434
4 120 603 10 659
4 424 469 470 650
4 297 284 465 651
4 115 22 565 116
4 198 32 573 170
4 197 111 190 553
4 289 291 290 644
4 460 232 514 628
4 102 32 5 77
4 37 570 3 97
4 213 92 407 633
4 101 538 526 490
4 2 28 38 649
4 106 105 579 521
4 517 102 5 77
4 34 99 100 178
4 254 255 29 130
4 114 414 578 584
4 349 583 107 455
4 397 212 237 646
4 301 421 300 637
4 164 199 19 574
4 547 199 63 191
4 2 22 262 263
4 283 284 297 651
4 374 207 403 627
4 148 55 15 196
4 491 431 406 635
4 11 22 569 2
4 570 3 97 9
4 187 22 2 569
4 101 559 34 100
4 461 415 122 333
4 429 267 130 157
4 598 514 76 232
4 338 321 530 541
4 117 3 570 9
4 308 307 109 534
4 584 414 592 467
4 581 591 592 282
4 104 103 495 658
4 16 56 206 477
4 336 476 369 630
4 11 38 569 119
4 98 97 37 81
4 256 438 390 649
4 381 348 347 648
4 38 11 569 2
4 320 318 114 113
4 2 38 187 569
4 114 25 320 113
4 437 278 109 308
4 152 162 124 483
4 303 314 313 657
4 29 28 255 254
4 578 272 115 586
4 152 124 146 464
4 40 570 3 186
4 98 568 36 182
4 99 98 35 80
4 206 129 16 477
4 585 581 592 282
4 36 37 146 462
4 393 345 337 652
4 143 429 334 133
4 277 279 595 110
4 32 1 5 77
4 253 254 29 130
4 101 34 33 78
4 108 107 322 530
4 255 254 253 130
4 577 372 584 467
4 176 26 113 112
4 434 130 267 142
4 267 255 130 434
4 532 322 107 530
4 118 39 167 550
4 98 35 568 99
4 414 272 114 578
4 118 40 550 117
4 122 415 23 333
4 97 554 98 182
4 554 568 98 182
4 388 346 505 636
4 414 578 592 273
4 157 130 429 131
4 305 304 443 653
4 591 581 455 282
4 33 32 102 77
4 230 599 73 601
4 386 331 385 640
4 38 118 167 119
4 115 268 22 116
4 591 584 592 467
4 28 29 255 130
4 101 102 490 77
4 112 113 176 551
4 559 33 34 168
4 222 94 424 650
4 222 424 470 650
4 279 277 278 110
4 98 37 36 81
4 464 394 152 483
4 272 269 586 273
4 535 527 542 523
4 343 134 135 312
4 113 372 318 584
4 78 33 101 77
4 546 538 490 234
4 480 155 148 479
4 37 36 81 462
4 6 45 596 105
4 129 17 160 206
4 228 597 48 205
4 148 163 155 480
4 158 31 395 361
4 431 430 500 656
4 425 423 270 655
4 113 114 25 561
4 275 587 276 277
4 570 37 186 182
4 167 555 118 550
4 550 39 167 172
4 129 148 16 227
4 127 252 310 250
4 3 462 404 158
4 118 38 167 39
4 570 40 3 117
4 581 585 437 282
4 349 581 108 437
4 108 107 349 322
4 130 253 267 429
4 228 48 47 205
4 40 118 550 39
4 23 24 122 333
4 47 582 228 205
4 68 48 597 205
4 544 10 104 309
4 2 262 259 263
4 159 2 22 262
4 135 362 137 515
4 395 152 146 464
4 591 577 584 467
4 7 49 202 111
4 415 22 434 142
4 111 27 7 197
4 528 510 532 537
4 308 322 321 534
4 415 262 22 268
4 555 167 173 172
4 556 550 555 172
4 102 5 32 198
4 193 177 181 563
4 560 564 576 180
4 143 429 133 131
4 102 546 490 517
4 144 134 135 343
4 133 135 134 319
4 146 218 36 462
4 114 318 414 584
4 462 404 158 361
4 50 51 204 482
4 584 113 372 577
4 250 310 127 140
4 136 362 137 135
4 104 495 502 658
4 121 119 603 642
4 116 594 269 263
4 22 569 565 116
4 570 97 37 182
4 338 321 322 530
4 262 22 434 415
4 152 395 394 464
4 571 171 173 555
4 556 554 172 188
4 395 31 246 361
4 36 35 98 80
4 274 320 318 114
4 282 592 414 467
4 310 132 127 140
4 518 498 126 151
4 118 555 167 119
4 40 39 550 172
4 321 307 308 534
4 309 544 110 307
4 555 173 556 172
4 565 185 115 549
4 166 36 568 182
4 369 476 522 630
4 473 422 386 654
4 589 372 577 496
4 536 109 307 534
4 162 152 394 483
4 527 98 99 217
4 517 5 4 77
4 462 3 37 158
4 531 504 537 538
4 585 587 278 276
4 252 253 127 131
4 2 159 257 262
4 202 27 7 111
4 202 50 27 214
4 227 56 55 196
4 277 392 595 120
4 127 252 132 310
4 134 132 133 311
4 162 134 344 394
4 100 99 548 178
4 198 573 21 170
4 190 65 197 553
4 526 538 504 490
4 36 35 568 98
4 491 314 345 635
4 38 569 167 187
4 310 152 395 394
4 214 453 26 112
4 133 429 334 311
4 34 101 100 78
4 414 272 318 114
4 366 322 107 532
4 534 322 321 530
4 199 164 547 574
4 547 164 199 191
4 272 269 115 586
4 493 384 495 658
4 200 21 573 170
4 553 190 65 201
4 148 227 480 479
4 320 274 24 114
4 412 124 145 483
4 433 104 10 309
4 585 587 109 278
4 25 114 320 24
4 282 414 592 273
4 152 310 312 394
4 218 81 36 462
4 377 583 107 349
4 110 109 278 307
4 381 220 519 648
4 392 475 428 120
4 121 603 120 642
4 412 218 35 124
4 372 414 584 467
4 600 370 70 379
4 135 136 362 319
4 130 253 429 131
4 26 352 498 126
4 337 411 393 652
4 515 135 362 319
4 99 35 34 79
4 32 5 1 198
4 201 553 183 574
4 200 566 191 170
4 10 475 279 595
4 482 204 27 161
4 217 99 527 523
4 253 252 429 131
4 11 440 594 263
4 237 212 89 646
4 154 141 364 126
4 537 528 458 539
4 510 458 532 537
4 227 148 55 479
4 593 587 276 275
4 585 592 593 282
4 600 8 598 513
4 34 224 412 145
4 158 31 140 395
4 487 216 147 123
4 199 64 19 574
4 20 63 199 191
4 532 106 510 528
4 77 1 4 516
4 163 148 129 227
4 126 156 518 151
4 312 133 134 319
4 587 109 278 110
4 259 11 2 263
4 275 587 277 580
4 22 23 115 565
4 440 11 121 435
4 582 47 67 205
4 138 135 137 515
4 594 440 269 263
4 121 356 440 435
4 167 555 550 172
4 127 29 253 251
4 404 31 3 158
4 403 223 500 656
4 502 384 355 658
4 102 573 5 198
4 115 24 274 114
4 158 404 31 361
4 124 218 146 464
4 561 165 177 572
4 189 560 548 178
4 26 25 176 113
4 392 595 120 580
4 352 154 364 126
4 10 475 595 120
4 246 140 31 395
4 603 602 10 659
4 361 395 158 464
4 70 71 370 600
4 276 585 593 282
4 27 482 151 453
4 372 414 318 584
4 464 124 218 483
4 253 130 127 131
4 124 35 412 145
4 76 601 598 232
4 163 148 227 480
4 582 597 228 205
4 100 559 34 178
4 22 23 415 268
4 399 104 103 495
4 116 11 594 263
4 395 146 158 464
4 167 173 171 555
4 550 556 554 172
4 143 334 474 136
4 74 501 230 601
4 530 457 338 540
4 305 443 448 653
4 570 40 117 550
4 133 334 136 319
4 581 108 107 349
4 256 258 438 649
4 511 7 49 203
4 148 15 55 479
4 455 591 282 467
4 138 137 155 515
4 521 106 105 528
4 581 585 108 437
4 540 375 541 533
4 2 257 258 259
4 166 568 554 182
4 565 171 185 549
4 113 26 371 112
4 140 310 152 395
4 549 174 165 572
4 189 548 557 166
4 24 25 114 561
4 152 134 162 394
4 234 490 546 517
4 298 303 313 657
4 35 34 412 145
4 100 99 34 79
4 569 38 167 119
4 547 164 191 180
4 164 547 574 563
4 549 171 174 571
4 188 557 554 166
4 216 54 14 123
4 458 457 510 532
4 105 45 596 215
4 0 27 190 197
4 115 23 185 565
4 206 56 57 477
4 30 250 140 246
4 132 134 312 311
4 352 154 25 333
4 322 349 108 308
4 581 437 455 282
4 536 307 321 534
4 106 521 510 528
4 437 585 278 276
4 199 19 20 164
4 63 64 199 547
4 377 106 579 521
4 349 377 583 455
4 551 113 176 561
4 168 34 559 178
4 528 226 458 539
4 166 554 188 182
4 549 565 171 571
4 322 457 338 530
4 462 146 218 464
4 23 22 171 565
4 113 25 176 561
4 392 277 475 120
4 135 133 136 319
4 307 544 110 536
4 311 133 312 319
4 518 128 229 151
4 535 542 400 523
4 177 176 165 561
4 559 548 560 178
4 23 171 185 565
4 425 270 280 655
4 343 144 134 312
4 174 184 165 572
4 548 557 567 189
4 159 434 257 262
4 568 554 557 166
4 174 185 171 549
4 457 322 532 530
4 533 526 376 225
4 33 559 101 192
4 134 152 312 394
4 128 518 156 151
4 111 7 65 197
4 176 177 551 561
4 168 559 560 178
4 97 570 554 182
4 21 32 198 170
4 197 65 111 553
4 309 110 279 307
4 97 3 37 82
4 276 437 585 282
4 592 578 593 273
4 128 12 52 229
4 114 115 185 549
4 35 36 568 166
4 527 535 98 217
4 141 143 474 136
4 506 504 537 531
4 51 204 482 161
4 126 498 26 151
4 184 177 165 572
4 548 567 560 189
4 282 592 593 273
4 124 412 218 483
4 68 48 203 597
4 279 475 277 595
4 437 349 581 455
4 429 133 131 311
4 250 140 246 395
4 177 193 176 551
4 576 559 560 168
4 155 123 148 479
4 155 487 147 123
4 433 10 279 309
4 437 108 349 308
4 560 189 179 178
4 177 561 572 562
4 564 562 181 179
4 503 97 535 98
4 574 183 164 563
4 191 566 547 180
4 595 475 277 120
4 185 24 115 114
4 111 190 27 197
4 132 252 131 311
4 81 36 98 80
4 251 127 30 250
4 32 573 102 198
4 321 536 534 542
4 536 309 544 398
4 22 23 268 115
4 481 6 44 545
4 219 71 72 599
4 152 146 140 395
4 232 76 601 75
4 588 582 589 228
4 167 555 569 119
4 278 279 110 307
4 218 35 80 412
4 593 587 275 580
4 526 101 490 225
4 97 9 3 82
4 458 510 528 537
4 36 35 218 124
4 269 586 275 594
4 137 139 362 136
4 562 181 177 563
4 564 560 179 180
4 151 26 27 453
4 36 35 80 218
4 109 108 308 534
4 130 29 253 127
4 162 145 483 486
4 334 362 136 319
4 6 45 105 481
4 498 352 26 453
4 484 13 52 128
4 269 268 115 116
4 33 125 149 488
4 489 129 149 477
4 153 216 14 123
4 440 269 275 594
4 564 560 562 179
4 562 177 181 179
4 321 307 536 398
4 573 566 62 200
4 190 183 18 201
4 487 216 123 479
4 508 163 129 227
4 140 31 30 246
4 99 217 492 523
4 107 106 377 366
4 216 14 53 153
4 435 440 11 263
4 123 216 54 479
4 21 32 1 198
4 312 134 133 311
4 282 591 592 467
4 415 434 461 142
4 143 466 429 157
4 540 457 376 537
4 66 45 46 596
4 458 457 532 537
4 422 416 386 654
4 215 579 105 521
4 251 29 254 409
4 322 107 349 366
4 310 252 132 311
4 312 134 135 319
4 23 22 415 142
4 153 156 485 147
4 274 272 115 114
4 73 74 230 601
4 139 362 485 137
4 252 127 253 251
4 352 26 25 126
4 204 0 27 161
4 25 24 165 561
4 147 139 485 137
4 141 466 143 122
4 538 531 504 234
4 533 99 100 492
4 361 404 31 244
4 593 276 282 273
4 541 338 375 540
4 73 72 599 446
4 582 588 478 228
4 580 121 440 594
4 123 54 15 479
4 578 414 272 273
4 232 601 501 75
4 381 519 348 648
4 269 268 116 263
4 433 355 354 659
4 466 334 474 143
4 399 502 104 495
4 312 310 132 311
4 480 138 155 515
4 536 321 398 542
4 502 104 433 309
4 318 114 113 584
4 275 580 440 594
4 106 510 366 532
4 274 272 268 115
4 148 123 15 479
4 30 29 127 251
4 19 18 183 201
4 566 63 62 200
4 269 586 273 275
4 571 565 171 555
4 554 172 188 182
4 503 97 98 81
4 113 371 372 112
4 580 392 275 440
4 27 26 169 111
4 103 104 604 658
4 484 53 13 153
4 453 214 371 112
4 153 485 216 147
4 135 343 312 319
4 575 193 169 553
4 552 576 170 192
4 175 557 556 188
4 571 173 174 558
4 434 159 22 262
4 11 259 435 263
4 555 565 171 569
4 97 401 9 82
4 147 485 487 137
4 587 278 276 277
4 122 154 364 333
4 481 105 6 545
4 548 559 100 178
4 13 52 53 484
4 518 485 156 139
4 544 104 529 309
4 366 457 322 532
4 128 52 484 229
4 78 101 490 77
4 111 214 26 112
4 23 24 274 115
4 160 17 58 233
4 57 58 17 233
4 143 474 466 141
4 26 27 214 111
4 82 3 37 462
4 12 51 52 229
4 510 226 458 528
4 530 532 457 540
4 135 138 343 515
4 364 466 141 122
4 140 146 158 395
4 392 580 121 440
4 527 535 217 523
4 164 547 564 180
4 164 181 547 563
4 429 334 466 143
4 557 556 558 175
4 558 173 174 175
4 49 50 202 214
4 24 25 154 333
4 392 277 595 580
4 560 179 168 178
4 561 177 551 562
4 139 474 362 136
4 491 345 431 635
4 29 254 253 251
4 32 1 77 516
4 146 36 218 124
4 527 373 542 523
4 149 233 489 477
4 307 309 544 536
4 352 25 26 453
4 255 28 256 254
4 481 521 105 528
4 376 540 526 533
4 98 99 217 80
4 25 26 371 113
4 344 134 312 394
4 156 485 484 153
4 536 307 309 398
4 458 506 537 539
4 269 115 586 116
4 101 102 538 490
4 257 2 262 259
4 193 183 169 553
4 552 576 566 170
4 81 97 37 82
4 457 458 376 537
4 566 564 547 180
4 181 164 183 563
4 174 184 572 558
4 175 567 557 189
4 201 183 19 574
4 63 566 191 200
4 273 586 593 275
4 150 129 149 489
4 506 504 458 537
4 267 461 434 142
4 225 100 101 78
4 307 109 278 308
4 251 252 127 250
4 485 216 484 153
4 466 267 429 157
4 414 578 584 592
4 25 165 176 561
4 461 267 157 142
4 361 158 462 464
4 14 53 54 216
4 255 159 434 257
4 570 550 554 172
4 310 152 132 140
4 106 583 107 377
4 101 559 552 192
4 80 81 36 218
4 492 100 533 225
4 35 99 80 79
4 556 173 558 175
4 349 107 377 366
4 506 537 539 531
4 123 155 487 479
4 207 235 87 647
4 362 487 485 137
4 201 19 64 574
4 191 20 63 200
4 162 145 124 483
4 394 344 162 483
4 15 14 54 123
4 156 368 518 139
4 125 145 144 486
4 215 105 45 481
4 272 269 268 115
4 534 321 373 541
4 229 482 151 161
4 482 229 51 161
4 510 521 106 366
4 82 9 3 83
4 216 153 147 123
4 151 482 498 453
4 542 400 529 535
4 250 30 251 247
4 268 23 274 115
4 129 508 227 477
4 498 518 229 151
4 533 376 375 225
4 500 223 431 656
4 47 582 478 228
4 173 174 171 571
4 556 557 554 188
4 540 532 457 537
4 544 529 536 398
4 482 498 229 151
4 12 52 13 128
4 131 252 429 311
4 80 99 217 492
4 55 15 54 479
4 595 279 10 110
4 318 272 274 114
4 589 588 228 496
4 122 364 461 333
4 376 540 537 526
4 429 143 157 131
4 352 320 25 453
4 267 466 461 157
4 53 484 216 153
4 575 112 176 551
4 168 559 33 192
4 573 62 21 200
4 190 18 65 201
4 176 26 112 575
4 138 343 508 353
4 540 376 375 533
4 597 48 511 228
4 129 16 17 206
4 364 154 352 333
4 26 27 453 214
4 600 69 8 513
4 82 3 462 404
4 67 46 47 478
4 224 412 145 486
4 128 484 13 153
4 24 23 185 115
4 481 510 521 528
4 41 59 546 234
4 97 503 401 82
4 311 334 133 319
4 352 25 320 333
4 368 364 141 126
4 368 518 498 126
4 373 400 542 523
4 137 487 155 515
4 189 557 175 166
4 572 549 174 558
4 106 579 583 377
4 45 6 44 481
4 593 276 273 275
4 111 452 214 112
4 203 48 511 597
4 504 526 490 225
4 1 58 516 160
4 98 535 503 217
4 452 371 214 112
4 529 544 309 398
4 224 34 125 145
4 488 125 149 489
4 486 144 125 353
4 483 145 412 486
4 307 110 109 536
4 169 190 111 553
4 312 144 134 344
4 582 67 47 478
4 46 67 590 478
4 546 102 5 517
4 376 375 338 540
4 34 35 412 79
4 5 41 546 517
4 82 37 81 462
4 77 78 33 488
4 588 579 590 478
4 228 588 478 496
4 506 504 531 234
4 58 1 17 160
4 312 343 144 344
4 482 27 50 214
4 97 9 401 543
4 190 27 169 111
4 146 462 158 464
4 589 452 372 496
4 149 160 32 233
4 14 13 53 153
4 12 51 229 161
4 556 173 175 188
4 558 571 173 556
4 24 154 122 333
4 503 97 543 535
4 537 504 376 526
4 415 23 274 268
4 179 181 564 180
4 563 562 181 564
4 229 128 12 161
4 136 143 334 133
4 64 199 547 574
4 164 20 199 191
4 352 364 368 126
4 362 485 474 139
4 43 44 61 226
4 214 202 49 111
4 247 250 30 246
4 279 475 10 433
4 19 183 164 574
4 566 547 63 191
4 531 546 59 234
4 59 41 42 234
4 492 80 99 79
4 541 530 338 540
4 485 518 368 139
4 597 452 589 228
4 496 372 577 467
4 541 375 373 527
4 483 344 162 486
4 5 41 59 546
4 392 121 356 440
4 148 15 16 196
4 131 127 252 132
4 267 255 253 130
4 250 127 30 140
4 275 586 593 580
4 400 503 543 535
4 277 392 275 580
4 596 45 46 215
4 140 250 310 395
4 203 511 7 111
4 506 458 226 539
4 555 173 571 556
4 172 173 556 188
4 174 165 185 549
4 548 568 557 166
4 37 146 462 158
4 401 543 103 399
4 114 272 115 578
4 364 466 474 141
4 371 26 453 112
4 321 338 373 541
4 255 256 28 257
4 215 377 579 521
4 531 59 42 234
4 215 579 377 456
4 77 33 32 488
4 384 502 495 658
4 588 590 582 478
4 107 106 366 532
4 492 99 100 79
4 440 121 11 594
4 541 373 534 542
4 455 583 591 456
4 589 582 597 228
4 400 529 398 542
4 596 46 590 215
4 597 582 68 205
4 22 159 434 142
4 217 535 400 523
4 533 375 541 527
4 492 533 375 225
4 226 61 43 539
4 490 538 504 234
4 101 490 225 78
4 511 49 7 111
4 138 150 144 353
4 150 129 489 477
4 267 130 157 142
4 567 184 562 179
4 193 169 176 575
4 552 559 576 192
4 3 82 83 404
4 474 485 368 139
4 132 131 133 311
4 144 150 125 353
4 573 62 5 198
4 49 48 511 203
4 509 401 9 103
4 25 24 320 333
4 78 100 34 79
4 165 561 549 572
4 548 189 178 166
4 575 169 111 553
4 174 184 558 175
4 558 567 557 175
4 150 138 508 353
4 159 255 28 257
4 65 553 201 574
4 200 191 21 170
4 594 269 586 116
4 553 575 193 563
4 170 576 180 192
4 456 215 579 478
4 480 155 487 515
4 480 487 155 479
4 343 138 144 353
4 226 44 61 545
4 309 104 529 399
4 24 274 320 333
4 61 44 6 545
4 98 217 81 80
4 588 591 456 467
4 41 5 4 517
4 535 400 503 217
4 334 362 474 136
4 466 364 461 122
4 26 176 169 575
4 352 25 154 126
4 67 582 590 478
4 412 35 80 79
4 180 566 576 170
4 193 183 553 563
4 591 455 456 467
4 151 482 27 161
4 101 526 100 225
4 42 60 59 531
4 159 28 2 257
4 581 583 591 455
4 499 235 207 647
4 597 203 7 111
4 399 401 543 400
4 78 225 100 79
4 31 246 361 244
4 190 18 0 197
4 189 567 560 179
4 572 184 177 562
4 51 12 204 161
4 82 509 9 83
4 368 141 139 126
4 526 533 100 225
4 503 97 81 82
4 579 588 456 478
4 488 33 125 224
4 371 372 318 113
4 309 502 104 399
4 518 368 156 126
4 225 492 100 79
4 163 129 150 508
4 34 33 78 224
4 58 4 1 516
4 27 202 214 111
4 503 98 217 81
4 545 481 105 528
4 343 135 515 319
4 43 506 226 539
4 562 560 567 179
4 562 184 177 179
4 504 537 538 526
4 480 343 138 515
4 398 529 536 542
4 458 504 376 537
4 580 275 586 594
4 128 229 151 161
4 457 376 338 540
4 511 203 597 111
4 139 156 368 126
4 45 66 6 596
4 371 320 25 113
4 508 343 138 480
4 160 58 516 233
4 149 233 488 489
4 157 466 461 122
4 511 452 597 228
4 563 181 547 564
4 564 181 164 180
4 183 193 181 563
4 566 576 564 180
4 529 309 399 398
4 551 193 575 563
4 168 180 576 192
4 580 120 392 121
4 32 149 233 488
4 184 567 189 179
4 572 184 562 567
4 162 134 144 344
4 547 181 164 564
4 509 9 401 82
4 579 583 377 456
4 534 373 321 542
4 129 150 508 477
4 154 364 141 122
4 571 174 549 558
4 188 175 557 166
4 588 589 577 496
4 567 558 184 175
4 141 474 368 139
4 506 43 60 539
4 545 61 226 539
4 224 125 488 489
4 546 531 538 234
4 452 589 228 496
4 583 588 591 456
4 543 529 399 400
4 575 176 193 551
4 168 576 559 192
4 60 42 506 531
4 590 66 46 596
4 487 216 485 147
4 103 529 104 399
4 234 546 41 517
4 484 518 128 229
4 156 484 128 153
4 498 26 151 453
4 12 0 204 161
4 373 400 398 542
4 145 125 224 486
4 130 255 28 159
4 517 490 102 77
4 203 7 68 597
4 60 42 43 506
4 27 482 453 214
4 46 590 215 478
4 44 226 481 545
4 527 375 373 523
4 489 486 125 353
4 518 484 128 156
4 366 510 457 532
4 545 226 481 528
4 509 401 103 495
4 452 372 371 112
4 184 572 558 567
4 175 184 567 189
4 595 277 587 580
4 489 508 150 477
4 398 321 373 542
4 139 141 474 136
4 9 401 543 103
4 514 8 598 76
4 578 586 593 273
4 587 585 593 276
4 157 461 142 122
4 496 588 456 467
4 320 371 318 113
4 412 224 34 79
4 215 590 579 478
4 227 508 163 480
4 373 338 375 541
4 135 138 144 343
4 573 21 62 198
4 190 65 18 197
4 487 147 137 155
4 61 60 43 539
4 379 69 600 513
4 552 566 573 170
4 169 183 190 553
4 368 364 474 141
4 125 224 486 489
4 105 596 579 215
4 160 516 32 233
4 362 487 137 515
4 105 215 521 481
4 401 503 543 400
4 103 543 529 399
4 486 344 144 353
4 583 579 588 456
4 531 42 506 234
4 226 510 481 528
4 590 579 596 215
4 521 377 106 366
4 543 529 400 535
4 21 20 191 200
4 201 64 65 574
4 400 529 399 398
4 157 143 466 122
4 138 163 508 480
4 46 67 66 590
4 484 518 485 156
4 33 34 125 224
4 542 541 373 527
4 401 503 97 543
4 149 32 33 488
4 489 125 150 353
4 343 144 344 353
4 600 70 69 379
4 32 1 516 160
4 399 103 401 495
4 526 504 376 225
4 233 516 32 488
4 498 352 368 126
4 224 78 34 79
4 60 506 539 531
4 455 377 583 456
4 511 214 49 111
4 111 589 452 112
4 588 456 478 496
4 528 545 226 539
4 597 589 452 111
4 574 553 183 563
4 180 191 566 170
4 485 156 139 147
4 489 150 508 353
4 452 214 511 111
4 67 68 582 205
4 488 78 33 224
4 163 138 155 480
4 597 452 511 111
4 138 163 150 508
4 74 501 601 75
4 516 77 32 488
4 149 125 150 489
4 633 654 327 329
4 327 654 633 608
4 653 302 637 304
4 653 637 302 609
4 658 9 117 103
4 658 117 9 619
4 639 425 317 614
4 639 317 425 426
4 638 285 423 265
4 638 423 285 614
4 505 491 636 346
4 505 636 491 406
4 121 435 642 356
4 642 435 121 11
4 643 651 605 622
4 605 651 643 616
4 621 270 280 271
4 621 280 270 655
4 652 357 358 618
4 652 358 357 393
4 657 491 636 635
4 657 636 491 346
4 631 288 427 623
4 631 427 288 286
4 645 39 649 634
4 645 649 39 195
4 38 649 39 634
4 38 39 649 195
4 658 383 355 610
4 658 355 383 384
4 659 428 281 354
4 659 281 428 642
4 9 209 83 509
4 9 83 209 619
4 29 247 645 409
4 645 247 29 30
4 32 102 192 33
4 101 102 192 552
4 101 192 102 33
4 312 132 152 134
4 312 152 132 310
4 523 99 375 492
4 523 375 99 527
4 533 375 99 492
4 533 99 375 527
4 563 177 551 193
4 563 551 177 562
4 560 180 168 179
4 168 180 560 576
4 23 333 274 24
4 274 333 23 415
4 26 575 111 112
4 111 575 26 169
4 122 415 142 23
4 122 142 415 461
4 16 477 227 56
4 227 477 16 129
4 263 22 268 116
4 263 268 22 262
4 110 309 10 544
4 10 309 110 279
4 166 178 568 35
4 166 568 178 548
4 99 568 178 35
4 99 178 568 548
4 477 160 149 233
4 477 149 160 129
4 589 372 112 577
4 589 112 372 452
4 453 25 371 320
4 453 371 25 26
4 569 171 22 565
4 569 22 171 187
4 182 570 172 186
4 182 172 570 554
4 477 233 206 160
4 477 206 233 57
4 17 206 233 160
4 17 233 206 57
4 588 467 577 591
4 577 467 588 496
4 549 561 185 114
4 549 185 561 165
4 24 185 561 114
4 24 561 185 165
4 162 486 144 145
4 144 486 162 344
4 570 172 40 550
4 40 172 570 186
4 569 167 171 555
4 569 171 167 187
4 573 102 170 32
4 573 170 102 552
4 192 170 102 32
4 192 102 170 552

CELL_TYPES 3427
1
1
1
1
1
1
1
1
1
1
1
1
3
3
3
3
3
3
3
3
3
3
3
3
3
3
3
3
3
3
3
3
3
3
3
3
3
3
3
3
3
3
3
3
3
3
3
3
3
3
3
3
3
3
3
3
3
3
3
3
3
3
3
3
3
3
3
3
3
3
3
3
3
3
3
3
3
3
3
3
3
3
3
3
3
3
3
3
3
3
3
3
3
3
3
3
3
3
3
3
3
3
3
3
3
3
3
3
3
3
3
3
3
3
3
3
3
3
3
3
3
3
3
3
3
3
3
3
3
3
3
3
3
3
3
3
3
3
3
3
5
5
5
5
5
5
5
5
5
5
5
5
5
5
5
5
5
5
5
5
5
5
5
5
5
5
5
5
5
5
5
5
5
5
5
5
5
5
5
5
5
5
5
5
5
5
5
5
5
5
5
5
5
5
5
5
5
5
5
5
5
5
5
5
5
5
5
5
5
5
5
5
5
5
5
5
5
5
5
5
5
5
5
5
5
5
5
5
5
5
5
5
5
5
5
5
5
5
5
5
5
5
5
5
5
5
5
5
5
5
5
5
5
5
5
5
5
5
5
5
5
5
5
5
5
5
5
5
5
5
5
5
5
5
5
5
5
5
5
5
5
5
5
5
5
5
5
5
5
5
5
5
5
5
5
5
5
5
5
5
5
5
5
5
5
5
5
5
5
5
5
5
5
5
5
5
5
5
5
5
5
5
5
5
5
5
5
5
5
5
5
5
5
5
5
5
5
5
5
5
5
5
5
5
5
5
5
5
5
5
5
5
5
5
5
5
5
5
5
5
5
5
5
5
5
5
5
5
5
5
5
5
5
5
5
5
5
5
5
5
5
5
5
5
5
5
5
5
5
5
5
5
5
5
5
5
5
5
5
5
5
5
5
5
5
5
5
5
5
5
5
5
5
5
5
5
5
5
5
5
5
5
5
5
5
5
5
5
5
5
5
5
5
5
5
5
5
5
5
5
5
5
5
5
5
5
5
5
5
5
5
5
5
5
5
5
5
5
5
5
5
5
5
5
5
5
5
5
5
5
5
5
5
5
5
5
5
5
5
5
5
5
5
5
5
5
5
5
5
5
5
5
5
5
5
5
5
5
5
5
5
5
5
5
5
5
5
5
5
5
5
5
5
5
5
5
5
5
5
5
5
5
5
5
5
5
5
5
5
5
5
5
5
5
5
5
5
5
5
5
5
5
5
5
5
5
5
5
5
5
5
5
5
5
5
5
5
5
5
5
5
5
5
5
5
5
5
5
5
5
5
5
5
5
5
5
5
5
5
5
5
5
5
5
5
5
5
5
5
5
5
5
5
5
5
5
5
5
5
5
5
5
5
5
5
5
5
5
5
5
5
5
5
5
5
5
5
5
5
5
5
5
5
5
5
5
5
5
5
5
5
5
5
5
5
5
5
5
5
5
5
5
5
5
5
5
5
5
5
5
5
5
5
5
5
5
5
5
5
5
5
5
5
5
5
5
5
5
5
5
5
5
5
5
5
5
5
5
5
5
5
5
5
5
5
5
5
5
5
5
5
5
5
5
5
5
5
5
5
5
5
5
5
5
5
5
5
5
5
5
5
5
5
5
5
5
5
5
5
5
5
5
5
5
5
5
5
5
5
5
5
5
5
5
5
5
5
5
5
5
5
5
5
5
5
5
5
5
5
5
5
5
5
5
5
5
5
5
5
5
5
5
5
5
5
5
5
5
5
5
5
5
5
5
5
5
5
5
5
5
5
5
5
5
5
5
5
5
5
5
5
5
5
5
5
5
5
5
5
5
5
5
5
5
5
5
5
5
5
5
5
5
5
5
5
5
5
5
5
5
5
5
5
5
5
5
5
5
5
5
5
5
5
5
5
5
5
5
5
5
5
5
5
5
5
5
5
5
5
5
5
5
5
5
5
5
5
5
5
5
5
5
5
5
5
5
5
5
5
5
5
5
5
5
5
5
5
5
5
5
5
5
5
5
5
5
5
5
5
5
5
5
5
5
5
5
5
5
5
5
5
5
5
5
5
5
5
5
5
5
5
5
5
5
5
5
5
5
5
5
5
5
5
5
5
5
5
5
5
5
5
5
5
5
5
5
5
5
5
5
5
5
5
5
5
5
5
5
5
5
5
5
5
5
5
5
5
5
5
5
5
5
5
5
5
5
5
5
5
5
5
5
5
5
5
5
5
5
5
5
5
5
5
5
5
5
5
5
5
5
5
5
5
5
5
5
5
5
5
5
5
5
5
5
5
5
5
5
5
5
5
5
5
5
5
5
5
5
5
5
5
5
5
5
5
5
5
5
5
5
5
5
5
5
5
5
5
5
5
5
5
5
5
5
5
5
5
5
5
5
5
5
5
5
5
5
5
5
5
5
5
5
5
5
5
5
5
5
5
5
5
5
5
5
5
5
5
5
5
5
5
5
5
5
5
5
5
5
5
5
5
5
5
5
5
5
5
5
5
5
5
5
5
5
5
5
5
5
5
5
5
5
5
5
5
5
5
5
5
5
5
5
5
5
5
5
5
5
5
5
5
5
5
5
5
5
5
5
5
5
5
5
5
5
5
5
5
5
5
5
5
5
5
5
5
5
5
5
5
5
5
5
5
5
5
5
5
5
5
5
5
5
5
5
5
5
5
5
5
5
5
5
5
5
5
5
5
5
5
5
5
5
5
5
5
5
5
5
5
5
5
5
5
5
5
5
5
5
5
5
5
5
5
5
5
5
5
5
5
5
5
5
5
5
5
5
5
5
5
5
5
5
5
5
5
5
5
5
5
5
5
5
5
5
5
5
5
5
5
5
5
5
5
5
5
5
5
5
5
5
5
5
5
5
5
5
5
5
5
5
5
5
5
5
5
5
5
5
5
5
5
5
5
5
5
5
5
5
5
5
5
5
5
5
5
5
5
5
5
5
5
5
5
5
5
5
5
5
5
5
5
5
5
5
5
5
5
5
5
5
5
5
5
5
5
5
5
5
5
5
5
5
5
5
5
5
5
5
5
5
5
5
5
5
5
5
10
10
10
10
10
10
10
10
10
10
10
10
10
10
10
10
10
10
10
10
10
10
10
10
10
10
10
10
10
10
10
10
10
10
10
10
10
10
10
10
10
10
10
10
10
10
10
10
10
10
10
10
10
10
10
10
10
10
10
10
10
10
10
10
10
10
10
10
10
10
10
10
10
10
10
10
10
10
10
10
10
10
10
10
10
10
10
10
10
10
10
10
10
10
10
10
10
10
10
10
10
10
10
10
10
10
10
10
10
10
10
10
10
10
10
10
10
10
10
10
10
10
10
10
10
10
10
10
10
10
10
10
10
10
10
10
10
10
10
10
10
10
10
10
10
10
10
10
10
10
10
10
10
10
10
10
10
10
10
10
10
10
10
10
10
10
10
10
10
10
10
10
10
10
10
10
10
10
10
10
10
10
10
10
10
10
10
10
10
10
10
10
10
10
10
10
10
10
10
10
10
10
10
10
10
10
10
10
10
10
10
10
10
10
10
10
10
10
10
10
10
10
10
10
10
10
10
10
10
10
10
10
10
10
10
10
10
10
10
10
10
10
10
10
10
10
10
10
10
10
10
10
10
10
10
10
10
10
10
10
10
10
10
10
10
10
10
10
10
10
10
10
10
10
10
10
10
10
10
10
10
10
10
10
10
10
10
10
10
10
10
10
10
10
10
10
10
10
10
10
10
10
10
10
10
10
10
10
10
10
10
10
10
10
10
10
10
10
10
10
10
10
10
10
10
10
10
10
10
10
10
10
10
10
10
10
10
10
10
10
10
10
10
10
10
10
10
10
10
10
10
10
10
10
10
10
10
10
10
10
10
10
10
10
10
10
10
10
10
10
10
10
10
10
10
10
10
10
10
10
10
10
10
10
10
10
10
10
10
10
10
10
10
10
10
10
10
10
10
10
10
10
10
10
10
10
10
10
10
10
10
10
10
10
10
10
10
10
10
10
10
10
10
10
10
10
10
10
10
10
10
10
10
10
10
10
10
10
10
10
10
10
10
10
10
10
10
10
10
10
10
10
10
10
10
10
10
10
10
10
10
10
10
10
10
10
10
10
10
10
10
10
10
10
10
10
10
10
10
10
10
10
10
10
10
10
10
10
10
10
10
10
10
10
10
10
10
10
10
10
10
10
10
10
10
10
10
10
10
10
10
10
10
10
10
10
10
10
10
10
10
10
10
10
10
10
10
10
10
10
10
10
10
10
10
10
10
10
10
10
10
10
10
10
10
10
10
10
10
10
10
10
10
10
10
10
10
10
10
10
10
10
10
10
10
10
10
10
10
10
10
10
10
10
10
10
10
10
10
10
10
10
10
10
10
10
10
10
10
10
10
10
10
10
10
10
10
10
10
10
10
10
10
10
10
10
10
10
10
10
10
10
10
10
10
10
10
10
10
10
10
10
10
10
10
10
10
10
10
10
10
10
10
10
10
10
10
10
10
10
10
10
10
10
10
10
10
10
10
10
10
10
10
10
10
10
10
10
10
10
10
10
10
10
10
10
10
10
10
10
10
10
10
10
10
10
10
10
10
10
10
10
10
10
10
10
10
10
10
10
10
10
10
10
10
10
10
10
10
10
10
10
10
10
10
10
10
10
10
10
10
10
10
10
10
10
10
10
10
10
10
10
10
10
10
10
10
10
10
10
10
10
10
10
10
10
10
10
10
10
10
10
10
10
10
10
10
10
10
10
10
10
10
10
10
10
10
10
10
10
10
10
10
10
10
10
10
10
10
10
10
10
10
10
10
10
10
10
10
10
10
10
10
10
10
10
10
10
10
10
10
10
10
10
10
10
10
10
10
10
10
10
10
10
10
10
10
10
10
10
10
10
10
10
10
10
10
10
10
10
10
10
10
10
10
10
10
10
10
10
10
10
10
10
10
10
10
10
10
10
10
10
10
10
10
10
10
10
10
10
10
10
10
10
10
10
10
10
10
10
10
10
10
10
10
10
10
10
10
10
10
10
10
10
10
10
10
10
10
10
10
10
10
10
10
10
10
10
10
10
10
10
10
10
10
10
10
10
10
10
10
10
10
10
10
10
10
10
10
10
10
10
10
10
10
10
10
10
10
10
10
10
10
10
10
10
10
10
10
10
10
10
10
10
10
10
10
10
10
10
10
10
10
10
10
10
10
10
10
10
10
10
10
10
10
10
10
10
10
10
10
10
10
10
10
10
10
10
10
10
10
10
10
10
10
10
10
10
10
10
10
10
10
10
10
10
10
10
10
10
10
10
10
10
10
10
10
10
10
10
10
10
10
10
10
10
10
10
10
10
10
10
10
10
10
10
10
10
10
10
10
10
10
10
10
10
10
10
10
10
10
10
10
10
10
10
10
10
10
10
10
10
10
10
10
10
10
10
10
10
10
10
10
10
10
10
10
10
10
10
10
10
10
10
10
10
10
10
10
10
10
10
10
10
10
10
10
10
10
10
10
10
10
10
10
10
10
10
10
10
10
10
10
10
10
10
10
10
10
10
10
10
10
10
10
10
10
10
10
10
10
10
10
10
10
10
10
10
10
10
10
10
10
10
10
10
10
10
10
10
10
10
10
10
10
10
10
10
10
10
10
10
10
10
10
10
10
10
10
10
10
10
10
10
10
10
10
10
10
10
10
10
10
10
10
10
10
10
10
10
10
10
10
10
10
10
10
10
10
10
10
10
10
10
10
10
10
10
10
10
10
10
10
10
10
10
10
10
10
10
10
10
10
10
10
10
10
10
10
10
10
10
10
10
10
10
10
10
10
10
10
10
10
10
10
10
10
10
10
10
10
10
10
10
10
10
10
10
10
10
10
10
10
10
10
10
10
10
10
10
10
10
10
10
10
10
10
10
10
10
10
10
10
10
10
10
10
10
10
10
10
10
10
10
10
10
10
10
10
10
10
10
10
10
10
10
10
10
10
10
10
10
10
10
10
10
10
10
10
10
10
10
10
10
10
10
10
10
10
10
10
10
10
10
10
10
10
10
10
10
10
10
10
10
10
10
10
10
10
10
10
10
10
10
10
10
10
10
10
10
10
10
10
10
10
10
10
10
10
10
10
10
10
10
10
10
10
10
10
10
10
10
10
10
10
10
10
10
10
10
10
10
10
10
10
10
10
10
10
10
10
10
10
10
10
10
10
10
10
10
10
10
10
10
10
10
10
10
10
10
10
10
10
10
10
10
10
10
10
10
10
10
10
10
10
10
10
10
10
10
10
10
10
10
10
10
10
10
10
10
10
10
10
10
10
10
10
10
10
10
10
10
10
10
10
10
10
10
10
10
10
10
10
10
10
10
10
10
10
10
10
10
10
10
10
10
10
10
10
10
10
10
10
10
10
10
10
10
10
10
10
10
10
10
10
10
10
10
10
10
10
10
10
10
10
10
10
10
10
10
10
10
10
10
10
10
10
10
10
10
10
10
10
10
10
10
10
10
10
10
10
10
10
10
10
10
10
10
10
10
10
10
10
10
10
10
10
10
10
10
10
10
10
10
10
10
10
10
10
10
10
10
10
10
10
10
10
10
10
10
10
10
10
10
10
10
10
10
10
10
10
10
10
10
10
10
10
10
10
10
10
10
10
10
10
10
10
10
10
10
10
10
10
10
10
10
10
10
10
10
10
10
10
10
10
10
10
10
10
10
10
10
10
10
10
10
10
10
10
10
10
10
10
10
10
10
10
10
10
10
10
10
10
10
10
10
10
10
10
10
10
10
10
10
10
10
10
10
10
10
10
10
10
10
10
10
10
10
10
10
10
10
10
10
10
10
10
10
10
10
10
10
10
10
10
10
10
10
10
10
10
10
10
10
10
10
10
10
10
10
10
10
10
10
10
10
10
10
10
10
10
10
10
10
10
10
10
10
10
10
10
10
10
10
10
10
10
10
10
10
10
10
10
10
10
10
10
10
10
10
10
10
10
10
10
10
10
10
10
10
10
10
10
10
10
10
10
10
10
10
10
10
10
10
10
10
10
10
10
10
10
10
10
10
10
10
10
10
10
10
10
10
10
10
10
10
10
10
10
10
10
10
10
10
10
10
10
10
10
10
10
10
10
10
10
10
10
10
10
10
10
10
10
10
10
10
10
10
10
10
10
10
10
10
10
10
10
10
10
10
10
10
10
10
10
10
10
10
10
10
10
10
10
10
10
10
10
10
10
10
10
10
10
10
10
10
10
10
10
10
10
10
10
10
10
10
10
10
10
10
10
10
10
10
10
10
10
10
10
10
10
10
10
10
10
10
10
10
10
10
10
10
10
10
10
10
10
10
10
10
10
10
10
10
10
10
10
10
10
10
10
10
10
10
10
10
10
10
10
10
10
10
10
10
10
10
10
10
10
10
10
10
10
10
10
10
10
10
10
10
10
10
10
10
10
10
10
10
10
10
10
10
10
10
10
10
10
10
10
10
10
10
10
10
10
10
10
10
10
10
10
10
10
10
10
10
10
10
10
10
10
10
10
10
10
10
10
10
10
10
10
10
10
10
10
10
10
10
10
10
10
10
10
10
10
10
10
10
10
10
10
10
10
10
10
10
10
10
10
10
10
10
10
10
10
10
10
10
10
10
10
10
10
10
10
10
10
10
10
10
10
10
10
10
10
10
10
10
10
10
10
10
10
10
10
10
10
10
10
10
10
10
10
10
10
10
10
10
10
10
10
10
10
10
10
10
10
10
10
10
10
10
10
10
10
10
10
10
10
10
10
