# vtk DataFile Version 2.0
whisker_body, Created by Gmsh 4.13.1 
ASCII
DATASET UNSTRUCTURED_GRID
POINTS 495 double
8 0 0
5.481545381612207 0 32
12 0 0
7.27789759052289 0 60
7.720171709068023 0 3.555555555555555
7.440343418136046 0 7.11111111111111
7.160515127204069 0 10.66666666666667
6.880686836272092 0 14.22222222222222
6.600858545340115 0 17.77777777777778
6.321030254408138 0 21.33333333333333
6.041201963476161 0 24.88888888888889
5.761373672544185 0 28.44444444444444
7.083648205225679 3.717785376350148 0
4.544517973849247 6.583870927149251 0
0.9642934420425858 7.941670992784432 0
-2.836839096340284 7.480129941483319 0
-5.988085985368807 5.304981265926364 0
-7.767534539408415 1.914525314300465 0
-7.767534539408417 -1.914525314300459 0
-5.98808598536881 -5.30498126592636 0
-2.836839096340287 -7.480129941483318 0
0.9642934420425786 -7.941670992784433 0
4.544517973849245 -6.583870927149253 0
7.083648205225677 -3.717785376350153 0
4.19910737928853 3.523469453234799 32
0.9518603663155385 5.398268390299964 32
-2.740772690806107 4.747157552473435 32
-5.150967745604069 1.874798937065161 32
-5.150967745604064 -1.874798937065173 32
-2.740772690806093 -4.747157552473443 32
0.9518603663155552 -5.398268390299961 32
4.199107379288541 -3.523469453234786 32
11.34980690040761 3.896393630456207 0
9.469686112756717 7.370552552276022 0
6.563377897469113 10.04599773915035 0
2.945825845689581 11.63280319127197 0
-0.9909521456679979 11.95901391608004 0
-4.820345095835646 10.98927991986068 0
-8.127378859508902 8.82868692807757 0
-10.55368501447787 5.71136871644487 0
-11.83633564083267 1.975135083368787 0
-11.83633564083267 -1.975135083368821 0
-10.55368501447786 -5.711368716444897 0
-8.12737885950888 -8.828686928077589 0
-4.820345095835619 -10.9892799198607 0
-0.9909521456679715 -11.95901391608004 0
2.945825845689616 -11.63280319127196 0
6.563377897469155 -10.04599773915032 0
9.469686112756747 -7.370552552275983 0
11.34980690040762 -3.896393630456205 0
6.302844199534381 3.638948795261439 60
3.638948795261455 6.302844199534372 60
1.337378586081774e-14 7.27789759052289 60
-3.638948795261432 6.302844199534386 60
-6.302844199534364 3.63894879526147 60
-7.27789759052289 4.613978646370539e-14 60
-6.302844199534409 -3.638948795261393 60
-3.63894879526151 -6.302844199534341 60
-6.597764390521311e-14 -7.27789759052289 60
3.638948795261406 -6.302844199534401 60
6.302844199534367 -3.638948795261465 60
11.70486859940768 0 3.75
11.40973719881536 0 7.5
11.11460579822304 0 11.25
10.81947439763072 0 15
10.5243429970384 0 18.75
10.22921159644608 0 22.5
9.934080195853765 0 26.25
9.638948795261445 0 30
9.343817394669125 0 33.75
9.048685994076806 0 37.5
8.753554593484488 0 41.25
8.458423192892168 0 45
8.163291792299848 0 48.75
7.868160391707529 0 52.5
7.573028991115209 0 56.25
-5.732970981357301 -6.935765203420518e-15 28.80533485372332
6.030428324825017 3.02420562207466 15.93040761308422
6.03770642310507 -3.00713244168244 15.94466748472012
-6.852571139457491 3.596506776533592 3.315932606951399
-4.414463876510899 -6.365767441305048 3.219198807619814
5.440574850249621 -2.945852240152567 23.03744676853081
5.37063646038956 3.070974229764382 23.04081639630013
6.651229710478638 -3.019294422213746 8.837795775272632
6.651229710480818 3.019294422208498 8.837795775274978
-1.073236783146452 5.629333439113716 28.83384710425905
-0.9955199635300738 -5.645874270234682 28.80533485372331
-1.189741359088835 7.651135473827526 3.264420150102297
2.744298016455037 -7.236119167886799 3.315932606951395
5.792747467845333 5.13192644030965 3.315932606951399
6.308020586716 3.095163517274944 12.36997976164828
4.193865495427629 5.481403054280342 13.95446584296151
3.835268555893222 5.394229657707246 17.55126412405982
1.123783182508173 6.692766079070518 15.41951849575465
0.6339742395311084 6.470842489978875 19.03612068837427
-2.258920864775612 6.286301969327164 16.77417236400416
-1.77590705633208 6.736247830310564 13.13299483034685
-4.749087603898458 4.960703537975377 14.38990969737564
-5.056791932484515 4.21308309366546 18.01885600694445
-6.514511606258421 1.87649559987617 15.50935014572381
-6.429894369580578 0.9215158745819803 19.11529876198242
-6.475678999989483 -1.72965164952822 16.48382949756369
-6.941706126810367 -0.7644888205545701 12.9136238836598
-5.556474010564091 -4.118021234943122 13.77219733956688
-4.566806472554989 -4.819251990416219 17.2887523207134
-5.292754720051583 3.408830082983641 21.65767066003576
-2.650485012844631 -6.327614573776478 14.48120513329062
-1.303883750058303 -6.458294101142555 17.93351270809386
-3.422763384418046 -5.366903765343755 20.76891546416765
-4.378632831206774 5.657445377715116 10.74998410482809
-6.375185685996918 -3.337890507080359 10.21394381817615
-7.261915901491768 0.1014261862137994 9.36924826618044
-6.212139689616341 -0.0534734171993159 22.71399490705801
-1.20320656790124 7.151223002271327 9.507576780415887
0.1070701694644012 -6.318530180935227 21.35357385887088
0.9766677735018412 -6.745847998909043 15.04182632209053
-0.417705757427443 -7.070722575567733 11.65095574422986
-7.243635249433704 -1.822010438228269 6.743581620008634
3.153955347925085 -6.302047430794059 12.10628407380988
1.850175804209648 -7.07334102765669 8.750592793551487
-1.812210581123647 -7.125953583406946 8.223754815812221
-3.74405725250795 6.44076042386487 6.989385148190831
-2.14439910592837 -5.703645562010715 24.2251321212782
1.445045611294478 -5.883533947538742 24.6704531354495
-4.526107588119996 -3.726317940264216 27.15714043061531
2.918781436255795 -4.973521675480465 28.3763549641818
-5.445149655649396 2.54295375424558 25.2893976947245
-2.984028752157313 5.335374786769423 23.97465170501176
-4.361914436457138 3.714951662224308 28.8494454450112
1.885881796854366 -6.295498521591149 18.14574821329254
5.927581592738485 -3.76882670518685 12.3979072357063
1.601072652569246 6.886735160161147 11.81168914027779
2.274699181777669 6.997447422336022 8.15879705895045
5.089163562249514 2.993918018303745 26.62584060461639
3.043231653104883 5.241747271687952 24.63580864934996
2.69443621227781 5.068674416458273 28.7117650960394
5.687540196030481 3.076058864435213 19.49024158313349
5.855624915792518 -2.711875477756665 19.65511769305841
6.964462508129163 -2.989511089864186 5.349585813142984
4.540375777797799 -5.936929266031426 6.682218143268375
-6.506327794235429 2.750756368277426 11.89402754952265
-3.916961647521414 -5.955368060015341 11.07926392378172
3.360050564466392 5.370669426346674 21.15402086573263
0.2327442094261354 6.220614816735919 22.55392820647881
-2.712057824936525 5.792291867953336 20.38364617983533
4.600400360649425 5.512300855648332 10.42196876780028
-5.180247170179651 -5.330595686174282 7.203800885529184
-6.374283688505629 3.638620041925267 8.390034867362369
-5.849164094915647 -2.656736452005165 20.02182078179674
-5.030055151644859 -3.532093853435063 23.55334894396904
2.597965890634051 7.268082514041654 3.577448572421422
-0.976329797060884 -7.687937293418739 3.180568311977456
-4.552532391681712 6.264659189266323 3.251172310220505
-6.908909520158286 -3.50178050584893 3.231492180199528
-7.724287740920297 0.07813986068060183 3.498234587256963
5.298066621007464 -2.612739130422309 26.59057320760406
5.676896064595568 -5.287002648966134 3.080648873252338
3.430556234679604 -5.283246880444209 21.60920721446606
6.990771721745133 2.888976063002441 5.537405751363134
5.13501138978766 5.420792046478774 6.774755951286006
3.792556963604616 -5.643786406984408 15.25135729313806
-5.94322635791474 -0.674939830373302 25.64838656092102
0.01310938544784385 5.966675834917627 25.83565015067968
-0.60879779438769 7.464001826556277 6.495553890431894
0.672309745200954 -7.51001972345003 5.844182942780931
4.805236273002566 -5.401865048518318 9.785937866085511
-7.340905466668266 1.432972455451328 6.614103750749066
5.074452564430447 -2.576562602006511 29.33721717720597
5.013512465064682 2.679728376788067 29.41818708678442
7.287949707469238 2.750656163405267 2.671385587537245
7.346607110915633 -2.606243578748968 2.602231875921183
-2.661068549509457 -7.084114566731479 5.49634966737978
-4.318537258460609 -3.623683020799652 30.01904379046395
4.624005545377379 -4.705909757157217 17.82044475065362
3.938347577147253 -4.595176514140957 24.75218563384035
-5.998094607119676 4.576459122867461 5.786297970131763
-2.790028482117581 5.185726732054386 26.82743757318113
1.788912324490584 -0.6511108378265309 32
-1.726556615879727 0.6284152159556047 32
-0.4759301831577616 -2.699134195149979 32
1.370386345403052 2.373578776236716 32
-9.830905714707526 3.516901451911481e-15 0
8.935881143994854 -3.209627415059868 31.83128104831302
8.622259865243404 3.210721483584408 35.56901948640535
9.560740229175035 3.210769427521803 24.32635413700642
9.70479363407347 -3.716355517672122 20.43117751032401
7.572575793799106 -4.09758946533286 43.0725261603211
-11.73088669374763 -1.940162152660217e-14 3.419408766471456
-2.93356341489342 11.36350050067426 3.353765747894174
-7.290541649137687 1.984803379761022 56.46779818220659
7.694330858993568 3.154194830285126 46.81285440877583
-2.550778283412737 -11.45591304092289 3.348636435899146
10.49497893106745 3.195253963268123 13.07967085456085
-1.949325425597162 -7.274981528814155 56.7762135102464
10.30028872730695 -3.761722649871375 13.14206888421812
-1.976212442307552 7.275357946767365 56.68260865122541
7.358006790879124 -3.190129739543207 50.57323636838945
7.525537753436183 9.008657493085222 3.324163033449048
4.712243512000845 -10.74283313214679 3.419408766471714
-9.257317901175377 7.20525973842184 3.419408766471709
-9.257317901175359 -7.205259738421862 3.419408766471709
7.037746588842867 3.184812749282433 54.32125868882564
11.10107250334919 -3.225331996075627 5.589093889147453
4.860641625241934 -5.775290174685608 56.56170290324955
11.10107250334962 3.22533199607392 5.589093889148325
8.302498260544249 3.219399699765722 39.32785339379618
6.767990550768168 6.028531846019131 37.31046639484082
7.1561374373903 6.029827549225469 33.57185725044894
4.459516505363632 8.07916914395812 35.2186546684297
4.03726469586814 7.96948964214527 38.96012839271994
4.877740297785107 8.178981872165188 31.4728916166187
7.520309771481806 6.052851286960895 29.81378956583192
5.277334135415425 8.280104071247269 27.71377373905037
1.923148430858776 9.49895701911773 29.32997136373502
2.464358994756387 9.680334675724991 25.55101784553294
-1.103463566948654 9.80808709383358 27.06466390609456
-0.5956968721073074 10.14822986869925 23.30701150773297
-3.982604614699079 9.229425708488868 24.75122265255619
-4.40212492057993 8.707793630796385 28.49655016365561
-3.553124035786846 9.718833925803832 20.99106814265381
-6.570573797032475 7.854840132300438 22.35463580261689
-6.253481667766271 8.480387363219215 18.59241302623172
-8.665669585966803 5.814376506269245 19.87816128611652
-8.8118071220996 5.018929650410747 23.622263861378
-10.04801131282863 2.447857024148282 21.06837938141427
-9.929237850984048 1.548383401381416 24.78673642794851
-10.18091864893847 -1.242852275936011 22.15327163310771
-9.737143862762657 -2.122814665780092 25.84623298060024
-9.015913597590666 -4.724573926518793 23.14033575231139
-8.222622840338536 -5.497644949143086 26.79498012324179
-9.197202449421399 -3.009072282229524 29.51735401381464
-9.712632359766667 -3.902713115655338 19.4735692795692
-7.659489634273101 -7.029596552183039 20.37696775713825
-3.108460018816291 10.18166752779877 17.20923716048111
-7.332394637012778 -6.204057620828051 30.43247349677862
-8.558227217383159 -3.862089403382325 33.17206625808665
-6.323319077861125 -6.84704837718311 34.04987777709021
-7.802784747782774 -4.688778697823762 36.80744187430816
-5.568695792453771 -8.09431811440656 27.63746084531024
-9.096661336310383 -1.22337936950202 35.84983521480454
-8.605894975505427 -2.241471304483646 39.47805456937944
-6.93250904852404 -5.449707920275151 40.42979322884231
-8.05187039335263 -3.033739004321929 43.14482714337586
-6.011723089674582 -6.057232799697049 44.03841944630597
-10.10124492618864 3.328350766599845 17.33808968193387
-8.663007553761998 0.5998598237039277 42.13693856384484
-8.588516489312555 -6.354532359063732 16.72443320626577
-5.844774745359044 -8.86427249187833 17.56308952470697
2.941860420317556 9.857248191706278 21.76726302345099
1.158669650468643 9.03210376952226 36.77023705870678
0.6933706929698074 8.78474499369918 40.50654184873146
-4.053644662027241 -7.759752545423802 41.23470420985013
-2.844165801744913 -7.982613764245725 44.80003447762223
-5.888564046916641 9.094015674331169 14.81499397023413
-7.382172758807954 -3.834128417944132 46.77821876145224
-6.969582184328739 -8.386510101814606 13.91935175143824
-3.665200507920996 -10.20588281799837 14.6875507943682
-2.350077137213913 -10.29472361075972 18.30259210460662
0.07553110968990209 -10.790865310309 15.36015418386934
-9.378847619607839 -5.690641384593466 13.08433190179717
-2.311248829162325 8.68984928207667 38.22076711079207
-2.639135406717508 10.62160768464617 13.41052532800753
1.435635350978262 -10.41164542148404 18.93024469472615
-0.4992510633867022 -8.686669944972206 41.9177071004563
3.79373459855749 -10.05438836810804 15.92966011599398
-2.757987307179771 8.249994504228161 41.94588238741866
0.2268866609168426 8.514846963692476 44.24466636791801
-3.191779749716208 7.77645302230333 45.66621804219201
-0.3424409564484934 8.224955519104729 47.87594907848778
0.8608134322278648 -8.380456574966457 45.43039258434479
2.495886955657835 -10.73870671259418 12.38932838377752
-3.694056164938622 7.232952242058065 49.27875684583398
-5.535450030340695 9.660184010117954 11.006765210722
-1.526336930167138 -8.052226267239824 48.33933574731471
0.4339958998891368 10.75222231364161 15.74327334070982
0.8872411807343293 11.02633383812585 11.91876990433474
3.899735232150885 10.16226858855371 14.16951202078918
-0.9954818056051791 -10.22920517479757 21.88605669909299
2.76310166827729 -9.8513478558078 22.47080313894162
-4.990185696266556 -9.94101287081771 11.14073637672548
-1.84588623745506 -8.787155483135971 38.38618284966641
1.886655669594991 -8.730264915261001 38.98521729892652
0.5410721387641145 -9.19155967954128 35.48244093734903
4.145568396504175 -8.175410302439332 36.00417561042057
2.950023836117683 -8.967850568601888 32.52022265272029
4.329004523104911 10.31183016319619 10.3726567507444
-8.270089244682614 7.295942834354392 12.34560694739109
-6.049435113366516 5.687507062443022 46.97208990597355
-5.428992488725052 7.03404349020901 39.57374848427829
-5.069747270990484 7.650882504657127 35.85507093009757
0.3716413363293406 -9.991023053004692 25.43867659330661
4.03324073990422 -9.10171135749216 25.98026041611122
5.982174370457127 -9.213810336214477 12.89073336617302
-8.926368026854707 4.161145818476097 27.33596197948327
-6.300501365310152 4.950362650008269 50.66420613310064
7.040122809903528 -8.070831683644185 16.39245551701516
2.198198588283567 -7.8478450458308 48.92025326624263
-0.818829390046811 -9.449261608988049 31.96025675374488
6.127522425289398 -8.146239110412097 22.95357159022817
7.111026085164046 -6.91872385323758 26.41031431670672
-7.549656475177702 5.042850996587743 37.11523124733927
-7.326574321198529 5.841928717013131 33.41059098966979
-7.822159920924947 2.486719779780418 48.18293683301264
1.358780479410735 11.28171290610576 8.090742999016728
6.9743612106411 8.525011746845724 12.52292840378263
6.562798032367787 8.468744823356717 16.34008388346227
3.12887778423924 7.735123082254223 46.45413632038139
2.099714689986831 7.76263522904963 50.2962590626429
5.010368951176321 -7.349413351349717 39.45515938593602
4.238420680522895 -7.258454086765489 45.67476929793043
4.927156738061048 -10.12718793168021 9.374829603413234
7.724279739093391 -8.149610525596739 9.802023923998254
1.18047787897672 -11.24083036530029 8.860729036336826
7.054616888814406 -5.803062735154809 36.40680156443097
-7.699837697730925 1.860065299637516 51.82451670827017
-0.3428510874283264 -7.913562912141503 51.82878249784659
-3.944806773720175 -6.927426028780874 51.18222809141462
7.486268535548584 8.468753366001522 8.852744863905293
3.371503342409563 -7.109057526627939 52.50178789568257
-8.125011275598029 7.883979281285977 8.62308171730044
-10.11000936921544 4.877092686233505 9.848611831787444
-5.113443496053126 10.22772513755488 7.182094268399173
-3.620614168645694 6.929570663550996 53.13192608227502
-5.230911528343735 5.427046204952969 56.70029261565299
-0.2764209289121197 7.800613248103184 53.2960574809453
1.816579166018117 7.315415645173059 56.70029261565298
5.056856414803113 -8.25682881401521 29.44911456719772
-8.930218856799199 2.511631928773117 34.60284784198793
-8.827055701852084 1.696372259440271 38.2637043724431
-7.750443780389103 4.117328639882669 40.96219950033299
6.474313839368746 -9.494828380337871 6.453402192066633
3.462750173233722 10.00262008976749 17.97878608577519
6.106301992634126 8.437765608772397 20.13287634160594
8.637159890356605 6.056929124173484 18.43337847764959
-3.347328415562879 -9.475274014786958 24.78789353244688
5.007461223649528 -9.191722646706621 19.47597515781388
5.699365468849359 8.357993765545501 23.93511693780794
-0.09916712240878499 10.46296064890472 19.52396554701501
7.924862414640606 -6.788065805585174 19.89004660729208
9.385186467205346 -5.092089630097272 16.80270890408975
5.879694935561798 -7.338292386419282 32.99467694286027
3.591089673844734 7.857163136165242 42.70657147691796
1.574023060690266 -9.585579553438988 29.04698050911528
-6.66057327018513 -7.605331416609971 24.01962713802963
8.939159099780769 3.201831944745365 31.82551795508443
7.977279881142592 3.242115591876951 43.06207537169645
7.665094419861371 -3.182708045379109 47.01808378493669
8.316348186140358 -3.169789971389326 39.38979460182681
7.369208621376822 3.164237160371063 50.5728871593084
2.084659053122953 -7.243572840188674 56.70038960242871
8.753290251111043 -6.585876031353457 13.28852259924919
-5.345356727469243 -5.306229458012984 56.77310623084348
-7.315382307578586 -1.816746427087778 56.70019150813178
-6.756053512940534 -3.88099370192657 53.47496043313234
-5.760160975062185 6.378327908988004 43.27313050817536
9.103581900824111 -3.615041720446022 28.01607553126607
9.543862853863963 -3.245777242835507 24.38709715418363
-6.933981761610343 7.131347321409828 26.0900482330313
3.077099808837167 -8.092545564478401 42.46643083408075
-4.655410230908504 -9.218889078357034 21.24897190123682
9.878638670053299 3.190145935112773 20.57172976301183
10.80596429120219 3.182970038162902 9.339095714118459
-9.737677903565029 0.6240718197189725 28.49169108418937
1.522364659214954 9.277103749593383 33.02109659154956
-1.86554288413902 9.09833692790696 34.46398730650069
-8.47531414603425 6.581642965062078 16.12736313122856
10.8023983141443 -3.225268777581443 9.229724530980288
7.864792131608759 6.09146869074313 26.07425478365716
-2.223438877486215 11.01755369025533 9.660915401282498
-9.46269295849685 -0.3017439701300796 32.17842913675231
-4.901866587110449 -6.634383711985187 47.66302087526135
-10.11893052210904 4.135984518513699 13.5757483365071
-11.04570229378027 1.417778117453126 10.97408873916896
-11.1241444567196 2.647147085938113 7.181921082719397
-11.28527931994659 -1.202941436116748 8.269054296552863
-10.8656181941605 -4.046164477190875 5.151995904481852
-8.847695656744817 -7.226128440774727 7.323848781406489
-6.939772849299122 -9.217087832009843 5.875931903523104
-10.82714394051288 0.5278252840059326 14.73917086308426
-3.115497476570217 -8.715448388138109 34.87143422231924
-5.229640263152236 -7.365231261708002 37.69883132096179
5.140043580034561 5.521525034236217 56.622763737726
-10.53955916729599 -0.3407720649125348 18.48667958375673
-10.29366463588529 -3.117544686562745 15.81414988758007
-1.294949615656123 -10.99434955358659 11.81234188937588
-8.389290466434943 -0.321119267333593 45.800353531327
9.251255925413759 3.207691907416395 28.06064660747617
-7.880977765812449 -1.786091514378094 49.79768210871775
6.059667810469477 5.927271619625639 44.76950999848624
5.481403254688127 6.062833914569921 48.62213112262966
6.380574006618952 6.009592391538848 41.10333985809993
8.227613386681865 6.107958874817013 22.27411661432084
5.299283605554569 5.8321892922704 52.34759739794782
7.03759725001755 -3.185082735785535 54.32157302866641
-4.386440564869988 -8.473881615827679 31.23333834518499
-2.153039029136757 -9.526522911724529 28.37560465105431
-7.11937660538018 6.525220326616389 29.76644410247238
-8.930190779802068 3.40979617710592 31.01548930385376
-11.07844094565738 3.830840236728569 3.531291521772172
9.480167587765068 -6.459705938411934 6.711869763525177
1.131937679155929 -11.68135689486795 3.35352546334882
-7.796539518917633 3.355283378519763 44.62582945454445
-6.433942319861685 9.815429035037143 3.351966923415254
4.488214955899196 10.84588135477766 3.330881111054233
0.8062451548362479 11.71199868361771 3.307214945615138
-4.771250776723305 8.174871654646743 32.20543957768486
-1.555418112633602 9.448706246322631 30.80143305507157
5.4448706571658 -6.018579708373646 49.35053740780478
10.21241057880971 3.107581119887502 16.83883671378939
-10.82904069505969 -2.18198203907798 12.11306243704524
9.282210415544268 6.140463112173986 11.06135220984365
8.933168127854586 6.139088784240783 14.74839696370825
-2.897317330173098 -10.95486373229127 8.493764356093445
9.672386059089398 6.067501565908564 7.395621358046155
-7.899979161008796 -7.912886612018402 10.40144731209247
10.2057721168325 -5.8146822200432 3.227485356437227
-6.553293041883128 -4.68613858002691 50.1082177617571
9.914881402607806 6.29262761858319 3.263337848972882
6.055163101500312 -6.126535124299131 43.02436214200029
8.733452378570876 -2.889738086058927 35.58857690392909
7.714595251605263 -5.79890128118807 29.84658859491528
8.033773104559421 -8.594522446817265 2.990223427871836
5.100719733101596 10.26435876927348 6.837623852811777
-6.291010219034097 4.55192957170541 53.80942920959694
-9.890750823364424 5.859543213562728 6.402168421973619
-10.21710604901414 -4.624394297428699 9.975473304131066
3.430126234234681 -10.96580552141809 6.483174171299474
-0.999779040201681 11.45536490015364 6.366945536215883
-6.345277297931435 -9.923592846785066 2.810553407270798
8.116102340362756 -6.168326294787622 22.94632728978354
-3.626286406178197 -6.820466480483968 54.32470733767266
-7.721740298503523 -0.8891513320684606 53.71212352649867
2.617716920624073 7.322551546312288 53.66608476339557
5.841543164577506 -5.29052961688291 52.33430258056747
-0.7472271538335833 -11.49132970280215 6.154905767394699
6.974283203917073 2.738681650490269 57.27029496481619
6.818876782247138 -3.132958185713934 57.12498708662163
10.42125197722616 -2.306573732326239 16.85527288830041
9.520320641007455 -5.85682461970829 10.44949298632567
11.46410595137761 2.734906707860012 2.721475900470036
11.46410595137739 -2.734906707861941 2.721475900467181
-0.3276914827224287 -7.692010784311012 54.64954284913402
-4.35530711485352 -10.68030404344423 5.918646620413151
7.78819945856058 -5.172834946989592 33.67703327991393
-7.815478025073531 8.512649027717144 5.638391453980566
-1.201845431813311 7.922886912290853 50.65297819566974
6.50475915709856 -5.323754050037014 45.67107836584796
6.929792522788655 -5.480450474366254 40.21503961159589
-6.286414415877529 -9.41340704443253 8.646483565153526
-11.19151833672801 -3.853912192044479 2.077470048225951
2.633898073030535 11.25369471867767 5.618506165343842
8.007198785866892 8.272761987146408 6.185353397973196
-3.701498499457171 0.7003160221705069 60
3.851738121937664 -0.931509262873081 60
-1.119158375460274 -3.801457693759516 60
1.269397997940749 3.570264453056938 60
2.100948066511433 -3.638948795261449 60
0.620184289598542 -1.130840590299121 60
-1.762894954313782 -1.284003716926086 60
-3.967207069091672 -2.38782306388513 60
1.906222097854563 0.834362000831534 60
4.041174800508617 2.235818364301867 60
-0.7050019238897449 1.138717118726257 60
-2.179815903366991 3.771498029878741 60
-0.005097264542834878 0.006581667100813426 40.76460405704532
0.5246755264409328 0.3350566803778547 52.90059838570973
0.3146554180373307 -2.175319604315892 46.73451254307085
-0.13133635992854 3.20058595861675 45.63609961586737
3.765474517057672 -1.211793585126092 37.03723672360495
-2.827894267966531 -2.581652950530055 36.95107506968368
-0.2867933184503153 3.851130381925272 37.00594734373323
-3.693354285073148 -0.7337108614323116 44.08382679678927
3.432734450410769 1.236819550244021 48.37306766503153
-1.778693991615293 -2.62907540586125 55.5852880714453
3.691868033035349 1.161210710582382 43.58783269808706
-3.033090608432476 0.8706128616732833 49.20609886584671
-4.084410253657504 1.616928339100147 38.86139186352256
0.8957968028699836 -4.509780028646339 40.5534700481125
3.591805460107104 2.816313060297572 39.2816034921959
3.369322616750332 0.4916521623208275 56.03769920416193
-0.3449133299416787 4.550497802028515 41.40070830688654
-2.353264180879994 1.944870632165471 55.92156547900326
1.447974422207063 -4.792294953169981 36.26337096503699
0.2012743803613877 3.778498020034907 50.00825674793123
-3.182515774823359 -3.675946689303143 40.97366643924224
3.231559860413391 -3.051849329490147 43.78112713488767
2.740912560295929 -2.648826896558078 50.4422901105977
0.09324248451134598 -0.006160673842061759 35.67476631915478
-1.682008519831513 -3.137807946728989 50.59611111891946
-5.37984578308778 0.04348493348104032 35.48518788038517
4.842155433018755 2.260930536181988 35.63148439492857
-3.802936676255723 2.968231632323873 42.60341696236268
-0.4831778119051938 -4.967105008551112 44.15522273315395
2.222087202054861 -3.238893726890438 54.54604421222299
4.246542349021148 1.451496535304394 52.19505429726526

CELLS 2496 11388
1 0
1 1
1 2
1 3
2 0 4
2 4 5
2 5 6
2 6 7
2 7 8
2 8 9
2 9 10
2 10 11
2 11 1
2 0 12
2 12 13
2 13 14
2 14 15
2 15 16
2 16 17
2 17 18
2 18 19
2 19 20
2 20 21
2 21 22
2 22 23
2 23 0
2 1 24
2 24 25
2 25 26
2 26 27
2 27 28
2 28 29
2 29 30
2 30 31
2 31 1
2 2 32
2 32 33
2 33 34
2 34 35
2 35 36
2 36 37
2 37 38
2 38 39
2 39 40
2 40 41
2 41 42
2 42 43
2 43 44
2 44 45
2 45 46
2 46 47
2 47 48
2 48 49
2 49 2
2 3 50
2 50 51
2 51 52
2 52 53
2 53 54
2 54 55
2 55 56
2 56 57
2 57 58
2 58 59
2 59 60
2 60 3
2 2 61
2 61 62
2 62 63
2 63 64
2 64 65
2 65 66
2 66 67
2 67 68
2 68 69
2 69 70
2 70 71
2 71 72
2 72 73
2 73 74
2 74 75
2 75 3
3 0 169 4
3 4 170 0
3 12 169 0
3 0 170 23
3 1 167 11
3 11 168 1
3 1 168 24
3 31 167 1
3 5 138 4
3 4 158 5
3 138 170 4
3 4 169 158
3 6 83 5
3 5 84 6
3 83 138 5
3 5 158 84
3 6 90 7
3 7 130 6
3 6 130 83
3 84 90 6
3 7 77 8
3 8 78 7
3 7 90 77
3 78 130 7
3 8 136 9
3 9 137 8
3 77 136 8
3 8 137 78
3 10 81 9
3 9 82 10
3 81 137 9
3 9 136 82
3 10 133 11
3 11 155 10
3 10 155 81
3 82 133 10
3 133 168 11
3 11 167 155
3 13 89 12
3 89 169 12
3 14 150 13
3 13 150 89
3 15 87 14
3 87 150 14
3 16 152 15
3 15 152 87
3 17 79 16
3 79 152 16
3 18 154 17
3 17 154 79
3 19 153 18
3 153 154 18
3 20 80 19
3 80 153 19
3 21 151 20
3 20 151 80
3 22 88 21
3 88 151 21
3 23 156 22
3 22 156 88
3 23 170 156
3 24 135 25
3 24 168 135
3 25 85 26
3 25 135 85
3 26 128 27
3 85 128 26
3 27 76 28
3 27 128 76
3 28 172 29
3 76 172 28
3 29 86 30
3 29 172 86
3 30 125 31
3 86 125 30
3 125 167 31
3 76 161 124
3 124 172 76
3 76 128 126
3 126 161 76
3 90 91 77
3 91 92 77
3 92 136 77
3 78 160 130
3 137 173 78
3 78 173 160
3 79 175 152
3 154 166 79
3 166 175 79
3 146 153 80
3 80 171 146
3 151 171 80
3 81 157 137
3 155 174 81
3 81 174 157
3 82 134 133
3 82 142 134
3 136 142 82
3 130 165 83
3 83 139 138
3 83 165 139
3 84 145 90
3 84 159 145
3 158 159 84
3 85 176 128
3 135 162 85
3 162 176 85
3 122 123 86
3 86 124 122
3 123 125 86
3 86 172 124
3 87 152 121
3 121 163 87
3 87 163 150
3 88 156 139
3 139 164 88
3 88 164 151
3 150 159 89
3 89 159 158
3 158 169 89
3 90 145 91
3 91 93 92
3 91 131 93
3 91 145 131
3 93 94 92
3 94 142 92
3 92 142 136
3 93 95 94
3 93 96 95
3 93 131 96
3 95 144 94
3 94 143 142
3 94 144 143
3 96 97 95
3 97 98 95
3 98 144 95
3 96 109 97
3 96 113 109
3 96 131 113
3 97 99 98
3 97 140 99
3 109 140 97
3 99 100 98
3 100 105 98
3 105 144 98
3 99 101 100
3 99 102 101
3 99 140 102
3 101 148 100
3 100 112 105
3 100 148 112
3 102 103 101
3 103 104 101
3 104 148 101
3 102 110 103
3 102 111 110
3 102 140 111
3 103 106 104
3 103 141 106
3 110 141 103
3 106 107 104
3 107 108 104
3 108 148 104
3 112 126 105
3 126 127 105
3 127 144 105
3 106 115 107
3 106 116 115
3 106 141 116
3 107 114 108
3 107 129 114
3 115 129 107
3 114 122 108
3 122 149 108
3 108 149 148
3 113 121 109
3 121 147 109
3 109 147 140
3 111 117 110
3 117 146 110
3 110 146 141
3 111 166 117
3 140 147 111
3 147 166 111
3 112 161 126
3 148 149 112
3 149 161 112
3 113 163 121
3 131 132 113
3 132 163 113
3 114 123 122
3 114 157 123
3 129 157 114
3 116 118 115
3 118 160 115
3 115 160 129
3 116 119 118
3 116 120 119
3 116 141 120
3 117 153 146
3 117 154 153
3 117 166 154
3 119 165 118
3 130 160 118
3 118 165 130
3 120 164 119
3 119 164 139
3 139 165 119
3 141 146 120
3 146 171 120
3 120 171 164
3 121 175 147
3 152 175 121
3 124 149 122
3 123 174 125
3 157 174 123
3 124 161 149
3 155 167 125
3 125 174 155
3 126 176 127
3 128 176 126
3 143 144 127
3 127 162 143
3 127 176 162
3 129 173 157
3 160 173 129
3 131 145 132
3 145 159 132
3 132 159 150
3 150 163 132
3 134 135 133
3 135 168 133
3 134 162 135
3 142 143 134
3 143 162 134
3 157 173 137
3 139 156 138
3 156 170 138
3 147 175 166
3 164 171 151
3 24 180 1
3 1 177 31
3 1 180 177
3 25 180 24
3 26 180 25
3 27 178 26
3 178 180 26
3 28 178 27
3 29 179 28
3 28 179 178
3 30 179 29
3 31 179 30
3 177 179 31
3 178 179 177
3 177 180 178
3 2 0 32
3 49 0 2
3 32 0 12
3 23 0 49
3 33 12 13
3 32 12 33
3 14 35 13
3 34 33 13
3 35 34 13
3 14 15 36
3 36 35 14
3 15 16 38
3 36 15 37
3 37 15 38
3 16 17 39
3 38 16 39
3 18 181 17
3 39 17 40
3 17 181 40
3 18 19 42
3 41 18 42
3 41 181 18
3 19 20 43
3 42 19 43
3 45 20 21
3 43 20 44
3 44 20 45
3 22 46 21
3 21 46 45
3 23 48 22
3 22 47 46
3 22 48 47
3 23 49 48
3 40 181 41
3 32 439 2
3 2 440 49
3 2 439 61
3 61 440 2
3 3 435 50
3 60 436 3
3 75 435 3
3 3 436 75
3 33 417 32
3 417 439 32
3 34 197 33
3 197 417 33
3 35 403 34
3 34 403 197
3 36 404 35
3 35 404 403
3 37 188 36
3 188 404 36
3 38 402 37
3 37 402 188
3 39 199 38
3 199 402 38
3 40 398 39
3 39 398 199
3 41 187 40
3 187 398 40
3 42 449 41
3 41 449 187
3 43 200 42
3 200 449 42
3 44 428 43
3 43 428 200
3 45 191 44
3 191 428 44
3 46 400 45
3 45 400 191
3 47 198 46
3 198 400 46
3 48 421 47
3 47 421 198
3 49 415 48
3 415 421 48
3 49 440 415
3 50 381 51
3 50 435 381
3 51 325 52
3 51 381 325
3 52 195 53
3 52 325 195
3 53 323 54
3 195 323 53
3 54 189 55
3 54 323 189
3 55 352 56
3 189 352 55
3 56 351 57
3 56 352 351
3 57 193 58
3 57 351 193
3 58 349 59
3 193 349 58
3 59 203 60
3 59 349 203
3 203 436 60
3 62 202 61
3 61 204 62
3 202 440 61
3 61 439 204
3 62 361 63
3 63 366 62
3 62 366 202
3 204 361 62
3 63 192 64
3 64 194 63
3 63 361 192
3 194 366 63
3 64 408 65
3 65 437 64
3 192 408 64
3 64 437 194
3 66 185 65
3 65 360 66
3 185 437 65
3 65 408 360
3 66 184 67
3 67 356 66
3 66 360 184
3 66 356 185
3 68 355 67
3 67 386 68
3 184 386 67
3 355 356 67
3 69 182 68
3 68 344 69
3 182 355 68
3 68 386 344
3 69 183 70
3 70 419 69
3 69 419 182
3 69 344 183
3 70 205 71
3 71 347 70
3 183 205 70
3 347 419 70
3 72 186 71
3 71 345 72
3 186 347 71
3 205 345 71
3 72 190 73
3 73 346 72
3 72 346 186
3 72 345 190
3 74 196 73
3 73 348 74
3 190 348 73
3 196 346 73
3 74 201 75
3 75 393 74
3 74 393 196
3 74 348 201
3 201 435 75
3 75 436 393
3 182 420 355
3 419 443 182
3 182 443 420
3 183 206 205
3 183 207 206
3 183 344 207
3 360 391 184
3 367 386 184
3 184 391 367
3 338 339 185
3 185 429 338
3 339 437 185
3 356 429 185
3 346 446 186
3 186 447 347
3 186 446 418
3 418 447 186
3 187 374 373
3 373 398 187
3 187 375 374
3 187 449 375
3 188 402 321
3 321 427 188
3 188 427 404
3 189 423 314
3 314 431 189
3 323 423 189
3 189 431 352
3 345 388 190
3 190 389 348
3 388 389 190
3 400 434 191
3 191 442 428
3 434 442 191
3 361 410 192
3 192 411 408
3 410 411 192
3 193 441 349
3 351 430 193
3 430 441 193
3 339 350 194
3 194 437 339
3 350 438 194
3 194 438 366
3 322 323 195
3 195 324 322
3 195 325 324
3 196 407 346
3 393 433 196
3 196 433 407
3 403 422 197
3 197 451 417
3 422 451 197
3 198 421 330
3 330 426 198
3 198 426 400
3 398 424 199
3 199 444 402
3 424 444 199
3 200 376 375
3 375 449 200
3 200 377 376
3 200 428 377
3 348 392 201
3 201 392 381
3 381 435 201
3 366 399 202
3 399 415 202
3 415 440 202
3 203 349 318
3 318 433 203
3 203 433 393
3 393 436 203
3 204 413 361
3 204 417 413
3 204 439 417
3 206 390 205
3 205 390 345
3 207 208 206
3 208 209 206
3 209 390 206
3 207 210 208
3 207 211 210
3 207 344 211
3 208 249 209
3 210 363 208
3 208 363 249
3 249 250 209
3 250 341 209
3 341 390 209
3 211 212 210
3 212 213 210
3 213 363 210
3 211 367 212
3 344 386 211
3 211 386 367
3 212 214 213
3 212 336 214
3 212 367 336
3 214 215 213
3 215 406 213
3 213 406 363
3 214 216 215
3 214 248 216
3 214 336 248
3 216 217 215
3 217 218 215
3 218 406 215
3 216 219 217
3 216 337 219
3 248 337 216
3 217 357 218
3 219 220 217
3 220 357 217
3 357 396 218
3 396 405 218
3 405 406 218
3 219 221 220
3 219 233 221
3 219 337 233
3 221 222 220
3 222 223 220
3 223 357 220
3 221 365 222
3 233 253 221
3 253 365 221
3 222 224 223
3 222 244 224
3 222 365 244
3 224 225 223
3 225 293 223
3 293 357 223
3 224 226 225
3 224 382 226
3 244 382 224
3 226 227 225
3 227 362 225
3 225 362 293
3 226 228 227
3 226 231 228
3 226 382 231
3 228 229 227
3 229 230 227
3 230 362 227
3 228 343 229
3 231 232 228
3 232 343 228
3 229 234 230
3 229 238 234
3 229 343 238
3 234 235 230
3 235 369 230
3 230 369 362
3 231 246 232
3 231 383 246
3 382 383 231
3 246 247 232
3 247 359 232
3 232 359 343
3 233 261 253
3 233 274 261
3 233 337 274
3 234 236 235
3 234 394 236
3 238 394 234
3 236 237 235
3 237 239 235
3 239 369 235
3 236 380 237
3 379 380 236
3 236 394 379
3 237 240 239
3 237 241 240
3 237 380 241
3 238 343 334
3 334 395 238
3 238 395 394
3 240 328 239
3 239 328 327
3 327 369 239
3 241 242 240
3 242 245 240
3 245 328 240
3 241 243 242
3 241 251 243
3 241 380 251
3 243 254 242
3 242 385 245
3 254 385 242
3 251 252 243
3 252 370 243
3 243 370 254
3 365 371 244
3 371 378 244
3 378 382 244
3 245 329 328
3 245 401 329
3 385 401 245
3 246 255 247
3 246 259 255
3 246 383 259
3 255 256 247
3 256 257 247
3 257 359 247
3 248 332 331
3 331 337 248
3 248 336 332
3 249 260 250
3 249 364 260
3 363 364 249
3 260 265 250
3 265 266 250
3 266 341 250
3 251 263 252
3 251 280 263
3 251 380 280
3 263 269 252
3 269 273 252
3 273 370 252
3 261 272 253
3 272 286 253
3 286 365 253
3 370 416 254
3 254 387 385
3 254 416 387
3 255 279 256
3 259 414 255
3 255 414 279
3 256 258 257
3 256 384 258
3 279 384 256
3 258 262 257
3 262 277 257
3 277 359 257
3 258 264 262
3 258 270 264
3 258 384 270
3 383 409 259
3 409 425 259
3 259 425 414
3 260 288 265
3 260 289 288
3 260 364 289
3 261 368 272
3 274 275 261
3 275 368 261
3 264 335 262
3 262 278 277
3 262 335 278
3 263 358 269
3 280 281 263
3 281 358 263
3 270 292 264
3 292 295 264
3 295 335 264
3 265 267 266
3 265 354 267
3 288 354 265
3 267 268 266
3 268 306 266
3 306 341 266
3 267 271 268
3 267 287 271
3 267 354 287
3 271 445 268
3 268 307 306
3 268 445 307
3 269 296 273
3 269 309 296
3 269 358 309
3 270 310 292
3 270 312 310
3 270 384 312
3 287 294 271
3 294 322 271
3 322 445 271
3 272 319 286
3 272 321 319
3 272 368 321
3 296 315 273
3 315 316 273
3 316 370 273
3 274 276 275
3 274 331 276
3 274 337 331
3 276 285 275
3 285 303 275
3 303 368 275
3 276 304 285
3 276 305 304
3 276 331 305
3 278 290 277
3 290 334 277
3 334 359 277
3 278 291 290
3 278 298 291
3 278 335 298
3 279 412 384
3 279 448 412
3 414 448 279
3 280 282 281
3 280 379 282
3 280 380 379
3 282 283 281
3 283 308 281
3 308 358 281
3 282 284 283
3 282 297 284
3 282 379 297
3 284 340 283
3 283 313 308
3 283 340 313
3 297 342 284
3 326 340 284
3 284 342 326
3 285 422 303
3 304 317 285
3 317 422 285
3 319 320 286
3 320 371 286
3 286 371 365
3 287 302 294
3 287 401 302
3 354 401 287
3 289 300 288
3 300 329 288
3 329 354 288
3 289 301 300
3 289 405 301
3 364 405 289
3 291 342 290
3 290 395 334
3 342 395 290
3 298 299 291
3 299 326 291
3 326 342 291
3 292 350 295
3 310 311 292
3 311 350 292
3 293 396 357
3 362 397 293
3 293 397 396
3 302 314 294
3 314 423 294
3 294 423 322
3 295 338 335
3 295 339 338
3 295 350 339
3 309 407 296
3 296 318 315
3 296 407 318
3 297 395 342
3 379 394 297
3 394 395 297
3 298 429 299
3 335 338 298
3 338 429 298
3 299 420 326
3 299 356 355
3 355 420 299
3 299 429 356
3 301 327 300
3 327 328 300
3 328 329 300
3 301 397 327
3 396 397 301
3 301 405 396
3 302 387 314
3 385 387 302
3 302 401 385
3 303 427 368
3 422 450 303
3 303 450 427
3 305 411 304
3 304 410 317
3 304 411 410
3 331 332 305
3 332 333 305
3 333 411 305
3 307 389 306
3 306 388 341
3 306 389 388
3 324 432 307
3 307 445 324
3 307 392 389
3 307 432 392
3 313 447 308
3 308 418 358
3 308 447 418
3 358 418 309
3 309 446 407
3 418 446 309
3 310 330 311
3 312 426 310
3 310 426 330
3 330 399 311
3 311 438 350
3 399 438 311
3 384 412 312
3 412 434 312
3 312 434 426
3 340 443 313
3 313 419 347
3 347 447 313
3 313 443 419
3 387 431 314
3 315 430 316
3 318 441 315
3 315 441 430
3 353 416 316
3 316 430 353
3 316 416 370
3 410 413 317
3 413 451 317
3 317 451 422
3 349 441 318
3 407 433 318
3 319 424 320
3 321 444 319
3 319 444 424
3 320 372 371
3 320 373 372
3 320 424 373
3 368 427 321
3 402 444 321
3 322 423 323
3 324 445 322
3 325 432 324
3 381 432 325
3 326 420 340
3 327 397 369
3 329 401 354
3 330 421 399
3 332 391 333
3 336 391 332
3 333 391 360
3 360 408 333
3 408 411 333
3 343 359 334
3 367 391 336
3 420 443 340
3 388 390 341
3 345 390 388
3 407 446 346
3 389 392 348
3 352 353 351
3 353 430 351
3 352 431 353
3 387 416 353
3 353 431 387
3 361 413 410
3 369 397 362
3 363 406 364
3 364 406 405
3 366 438 399
3 372 378 371
3 373 374 372
3 374 409 372
3 372 409 378
3 373 424 398
3 375 425 374
3 374 425 409
3 376 425 375
3 377 448 376
3 414 425 376
3 376 448 414
3 428 442 377
3 442 448 377
3 378 383 382
3 378 409 383
3 392 432 381
3 399 421 415
3 426 434 400
3 404 450 403
3 403 450 422
3 427 450 404
3 412 442 434
3 412 448 442
3 417 451 413
3 50 461 3
3 3 453 60
3 3 461 453
3 51 461 50
3 52 455 51
3 455 461 51
3 53 463 52
3 52 463 455
3 54 463 53
3 55 452 54
3 452 463 54
3 56 459 55
3 55 459 452
3 57 459 56
3 58 454 57
3 454 459 57
3 59 456 58
3 58 456 454
3 60 456 59
3 453 456 60
3 452 459 458
3 458 462 452
3 462 463 452
3 453 457 456
3 453 460 457
3 453 461 460
3 456 457 454
3 457 458 454
3 458 459 454
3 460 461 455
3 455 462 460
3 455 463 462
3 457 462 458
3 460 462 457
4 325 465 479 481
4 325 465 432 479
4 431 473 475 481
4 325 479 455 481
4 71 474 468 485
4 462 460 457 479
4 325 432 465 481
4 455 460 462 479
4 26 470 289 476
4 254 370 471 488
4 300 26 289 476
4 447 468 477 485
4 26 476 300 489
4 347 468 447 485
4 347 71 468 485
4 370 471 466 492
4 466 471 370 488
4 431 475 473 488
4 470 476 26 489
4 432 479 465 494
4 468 474 464 485
4 324 465 432 481
4 322 423 475 481
4 208 470 25 490
4 325 324 432 481
4 27 26 300 489
4 341 474 467 480
4 388 467 341 474
4 462 479 457 481
4 468 474 71 478
4 401 287 475 491
4 208 209 470 478
4 208 478 470 490
4 465 475 473 481
4 471 475 254 488
4 325 432 381 479
4 468 464 477 485
4 243 471 370 492
4 322 481 475 483
4 324 465 481 483
4 306 467 388 472
4 432 465 324 483
4 287 467 475 491
4 322 423 294 475
4 401 475 471 491
4 341 478 474 480
4 388 472 467 474
4 300 26 27 301
4 468 464 474 478
4 306 341 388 467
4 379 29 469 482
4 240 476 471 484
4 289 470 288 476
4 254 370 243 471
4 324 325 195 481
4 301 300 26 289
4 416 370 254 488
4 280 379 469 482
4 390 474 341 478
4 381 479 432 494
4 431 475 314 481
4 308 447 468 477
4 271 287 467 475
4 208 25 24 490
4 245 471 240 476
4 25 208 249 470
4 370 466 273 492
4 473 475 465 488
4 208 206 209 478
4 325 381 455 479
4 206 478 208 490
4 242 240 471 484
4 457 479 473 481
4 280 477 469 484
4 306 388 389 472
4 249 208 209 470
4 469 477 280 482
4 271 287 267 467
4 470 178 487 489
4 472 485 346 486
4 380 280 379 469
4 308 477 468 482
4 390 388 341 474
4 472 474 346 485
4 302 401 287 475
4 242 240 245 471
4 455 479 462 481
4 29 236 379 469
4 464 467 466 474
4 466 485 472 486
4 324 481 322 483
4 288 476 470 480
4 464 468 477 487
4 466 475 471 488
4 309 466 296 486
4 464 477 469 487
4 423 314 475 481
4 465 483 432 494
4 466 467 464 471
4 431 473 353 488
4 322 475 294 483
4 300 289 288 476
4 289 260 288 470
4 341 467 266 480
4 288 470 260 480
4 468 482 477 487
4 250 470 209 480
4 455 195 325 481
4 364 25 249 470
4 267 467 287 491
4 346 485 446 486
4 470 478 209 480
4 302 471 401 475
4 477 482 469 487
4 236 380 379 469
4 446 485 407 486
4 240 469 476 484
4 407 446 309 485
4 271 475 467 483
4 467 472 306 483
4 273 466 370 488
4 471 475 467 491
4 178 470 26 489
4 306 266 341 467
4 296 309 269 492
4 70 468 71 478
4 296 466 309 492
4 280 469 380 484
4 296 273 466 492
4 407 309 296 486
4 209 250 249 470
4 27 300 327 489
4 254 471 385 475
4 475 481 465 483
4 70 468 478 490
4 301 27 300 327
4 352 473 431 481
4 313 308 447 468
4 70 69 419 490
4 271 267 268 467
4 296 269 273 492
4 470 487 476 489
4 389 306 472 483
4 27 178 26 489
4 431 387 475 488
4 70 419 468 490
4 209 478 341 480
4 308 468 313 482
4 379 30 29 482
4 347 447 186 485
4 347 186 71 485
4 240 476 469 489
4 289 364 260 470
4 296 466 273 488
4 313 419 443 468
4 466 471 464 492
4 205 70 71 478
4 466 465 472 475
4 70 478 205 490
4 464 474 466 485
4 72 346 472 474
4 473 479 457 493
4 464 485 466 492
4 237 240 241 469
4 241 469 240 484
4 236 28 237 469
4 388 190 472 474
4 267 480 467 491
4 26 364 289 470
4 452 473 352 481
4 288 476 480 491
4 466 472 465 486
4 252 243 370 492
4 195 455 463 481
4 466 472 467 475
4 379 282 30 482
4 352 452 459 473
4 271 467 268 483
4 324 195 322 481
4 243 484 471 492
4 266 467 267 480
4 72 346 474 485
4 236 29 28 469
4 346 446 407 486
4 466 485 309 492
4 431 353 387 488
4 387 254 385 475
4 196 73 346 486
4 280 282 379 482
4 322 294 271 483
4 240 469 237 489
4 25 363 249 208
4 236 237 380 469
4 418 447 477 485
4 381 432 392 494
4 296 486 466 488
4 25 470 180 490
4 265 480 267 491
4 245 471 476 491
4 363 364 25 249
4 250 260 249 470
4 73 472 346 486
4 260 470 250 480
4 283 313 340 482
4 1 419 69 490
4 237 469 28 489
4 471 484 464 492
4 250 209 341 480
4 25 364 26 470
4 31 443 419 468
4 1 468 419 490
4 467 475 472 483
4 241 380 237 469
4 472 475 465 483
4 271 294 287 475
4 454 456 349 473
4 452 458 459 473
4 347 71 70 468
4 364 249 260 470
4 464 471 467 491
4 389 388 190 472
4 209 390 341 478
4 418 447 308 477
4 389 483 472 494
4 468 177 482 487
4 423 314 294 475
4 294 475 271 483
4 74 73 196 494
4 345 71 474 478
4 380 469 241 484
4 458 473 452 481
4 302 385 401 471
4 468 464 478 487
4 471 476 464 484
4 464 477 485 492
4 381 201 479 494
4 265 266 267 480
4 473 479 465 481
4 268 467 306 483
4 288 260 265 480
4 470 478 464 487
4 467 472 466 474
4 467 471 466 475
4 453 479 436 493
4 454 349 193 473
4 345 474 390 478
4 72 346 73 472
4 370 273 252 492
4 467 474 464 480
4 466 474 472 485
4 313 468 31 482
4 31 313 443 468
4 465 475 466 488
4 390 345 388 474
4 345 205 71 478
4 25 180 24 490
4 267 287 354 491
4 456 473 457 493
4 237 28 236 235
4 392 432 483 494
4 461 455 381 479
4 454 457 456 473
4 251 280 380 484
4 464 484 477 492
4 465 466 486 488
4 393 493 479 494
4 392 483 389 494
4 353 416 387 488
4 464 467 480 491
4 302 385 471 475
4 207 208 24 490
4 313 447 347 468
4 277 107 108 114
4 469 464 476 484
4 281 280 477 482
4 314 423 189 481
4 464 469 476 487
4 478 487 470 490
4 464 476 470 487
4 189 352 431 481
4 464 469 477 484
4 354 265 267 491
4 267 266 268 467
4 314 189 431 481
4 393 486 493 494
4 349 473 456 493
4 456 453 436 493
4 288 480 265 491
4 474 478 464 480
4 306 268 266 467
4 418 308 358 477
4 177 487 468 490
4 305 92 93 91
4 277 107 359 108
4 105 98 220 144
4 473 441 488 493
4 237 28 235 489
4 179 469 29 482
4 98 221 220 144
4 243 242 254 471
4 315 486 296 488
4 470 476 464 480
4 431 387 314 475
4 457 460 453 479
4 458 457 454 473
4 144 95 337 94
4 358 418 477 485
4 243 242 471 484
4 468 487 478 490
4 297 30 379 282
4 276 305 93 91
4 220 98 105 222
4 242 241 240 484
4 275 93 96 131
4 31 468 177 482
4 331 92 93 305
4 106 256 279 116
4 315 486 488 493
4 340 313 31 482
4 84 5 158 361
4 315 296 273 488
4 381 392 201 494
4 328 476 240 489
4 379 29 30 297
4 4 5 202 62
4 98 220 221 222
4 431 352 353 473
4 237 235 239 489
4 95 337 233 144
4 452 352 189 481
4 469 487 178 489
4 322 271 445 483
4 207 206 208 490
4 31 419 1 468
4 95 96 233 274
4 94 95 337 274
4 161 112 149 227
4 277 359 107 257
4 274 93 96 275
4 95 94 93 274
4 180 470 487 490
4 252 484 243 492
4 210 25 24 208
4 104 148 101 231
4 190 72 472 474
4 223 105 112 224
4 464 478 470 480
4 245 240 328 476
4 95 221 97 98
4 106 258 256 116
4 315 488 441 493
4 464 476 471 491
4 305 93 331 276
4 477 484 263 492
4 401 471 245 491
4 112 223 224 225
4 345 390 205 478
4 389 307 306 483
4 227 112 149 228
4 101 246 104 231
4 337 219 144 143
4 315 318 486 493
4 105 127 220 223
4 455 195 52 325
4 252 251 243 484
4 94 337 144 143
4 360 9 184 82
4 91 131 304 145
4 419 347 70 468
4 127 357 220 223
4 469 476 487 489
4 221 97 253 95
4 461 460 455 479
4 202 61 4 62
4 348 389 472 494
4 107 247 359 108
4 263 484 251 492
4 240 237 239 489
4 384 279 256 116
4 337 219 233 144
4 419 313 347 468
4 304 276 131 91
4 96 261 233 274
4 5 4 204 62
4 142 92 94 331
4 96 95 93 274
4 386 10 11 133
4 283 308 313 482
4 127 219 216 143
4 282 283 284 482
4 247 107 257 106
4 116 106 258 115
4 430 473 441 488
4 386 184 10 133
4 252 251 484 492
4 113 96 261 272
4 148 382 226 100
4 5 158 361 204
4 219 127 144 143
4 184 9 10 82
4 258 384 256 116
4 233 337 95 274
4 72 73 190 472
4 107 258 106 115
4 248 142 94 331
4 245 476 329 491
4 279 106 116 141
4 207 24 344 183
4 96 233 253 95
4 360 408 8 136
4 102 103 383 259
4 284 30 340 326
4 24 344 183 490
4 124 161 227 230
4 131 285 304 145
4 462 458 452 481
4 268 306 307 483
4 378 382 101 99
4 308 281 477 482
4 463 195 52 455
4 221 365 97 98
4 107 277 262 114
4 256 247 257 106
4 262 258 107 115
4 315 318 296 486
4 261 96 113 275
4 288 329 476 491
4 61 204 4 62
4 358 309 485 492
4 228 227 112 226
4 331 142 92 332
4 247 107 104 108
4 140 378 102 99
4 463 455 462 481
4 360 8 9 136
4 28 469 178 489
4 391 136 142 332
4 31 30 340 482
4 109 97 96 253
4 180 470 178 487
4 372 378 102 140
4 305 92 77 333
4 24 183 207 490
4 465 479 473 493
4 219 337 216 143
4 128 218 396 405
4 359 247 107 257
4 275 276 93 131
4 145 317 410 84
4 322 445 324 483
4 388 345 190 474
4 70 183 69 490
4 255 106 103 104
4 77 92 305 91
4 276 285 304 131
4 106 255 247 104
4 272 109 96 253
4 262 129 114 278
4 31 443 182 419
4 193 351 454 473
4 459 351 352 473
4 233 96 253 261
4 385 245 401 471
4 222 98 100 244
4 228 112 148 226
4 91 304 411 90
4 217 219 216 127
4 279 384 120 116
4 410 90 84 361
4 281 282 280 482
4 113 261 368 272
4 179 482 177 487
4 10 11 67 386
4 263 281 280 477
4 358 485 477 492
4 148 149 112 228
4 227 229 124 230
4 392 307 389 483
4 405 85 218 406
4 282 284 30 482
4 97 253 365 221
4 288 265 354 491
4 371 378 140 99
4 365 371 97 99
4 328 300 476 489
4 114 129 157 278
4 464 480 476 491
4 158 5 4 204
4 145 304 91 90
4 411 77 305 91
4 99 382 101 100
4 302 387 385 475
4 179 469 482 487
4 260 250 265 480
4 331 248 142 332
4 336 82 142 391
4 410 304 145 90
4 382 231 148 226
4 300 288 329 476
4 107 277 257 262
4 93 274 276 275
4 95 233 221 144
4 129 262 107 115
4 348 392 389 494
4 454 193 57 351
4 357 127 126 223
4 126 127 105 223
4 149 229 227 228
4 371 378 372 140
4 96 261 274 275
4 262 129 278 335
4 108 232 149 148
4 382 148 101 100
4 160 78 295 350
4 82 336 367 391
4 177 468 1 490
4 184 10 67 386
4 278 129 157 335
4 456 436 203 493
4 332 136 92 333
4 136 92 142 332
4 149 343 232 108
4 367 212 133 211
4 410 411 304 90
4 226 112 148 100
4 294 302 287 475
4 126 105 112 223
4 246 255 103 104
4 109 147 140 286
4 90 410 192 361
4 97 371 140 99
4 179 178 469 487
4 323 322 195 481
4 368 261 113 275
4 112 126 223 225
4 231 148 101 382
4 333 77 305 411
4 247 107 106 104
4 77 8 408 136
4 353 473 430 488
4 148 232 149 228
4 320 140 147 286
4 208 24 210 207
4 383 409 102 259
4 110 103 102 259
4 342 30 284 326
4 192 6 90 361
4 96 113 109 272
4 358 269 309 492
4 100 105 222 224
4 332 391 136 333
4 84 90 6 361
4 383 101 103 102
4 140 371 97 286
4 398 181 17 154
4 9 360 136 82
4 275 96 113 131
4 115 270 118 264
4 362 126 161 225
4 94 93 274 331
4 454 351 459 473
4 140 372 320 111
4 196 346 407 486
4 101 103 246 383
4 250 341 266 480
4 204 361 5 62
4 454 58 193 349
4 171 448 442 120
4 98 105 222 100
4 113 275 131 132
4 315 430 441 488
4 270 116 258 115
4 193 349 441 473
4 177 180 487 490
4 134 82 336 367
4 219 221 233 144
4 110 414 103 259
4 212 135 133 211
4 363 25 210 208
4 224 222 100 244
4 277 114 290 278
4 256 279 255 106
4 4 5 138 202
4 100 99 382 244
4 335 264 160 295
4 301 396 27 397
4 79 175 424 166
4 453 75 436 479
4 463 452 54 481
4 75 453 3 479
4 116 384 120 312
4 76 128 293 397
4 360 9 8 65
4 110 102 409 259
4 232 247 104 108
4 395 334 238 122
4 178 180 26 470
4 70 205 183 490
4 205 478 206 490
4 81 157 137 429
4 361 6 5 62
4 160 129 264 335
4 79 424 398 166
4 109 97 253 286
4 245 328 329 476
4 286 371 97 365
4 323 423 322 481
4 134 143 214 248
4 179 29 30 482
4 84 158 413 361
4 378 382 99 244
4 184 10 9 66
4 354 287 401 491
4 108 122 277 114
4 90 411 77 192
4 320 140 111 147
4 75 479 201 494
4 1 183 344 490
4 165 130 118 292
4 116 120 279 141
4 206 390 209 478
4 29 234 236 172
4 414 255 103 259
4 349 441 473 493
4 99 98 365 244
4 135 162 213 214
4 360 184 9 66
4 328 327 300 489
4 25 85 406 213
4 271 268 445 483
4 77 408 7 192
4 202 5 138 366
4 155 420 167 125
4 317 413 410 84
4 243 241 242 484
4 116 119 270 312
4 362 293 126 225
4 295 78 339 350
4 255 246 247 104
4 254 242 385 471
4 26 180 25 470
4 9 8 65 137
4 406 364 25 363
4 327 369 27 489
4 119 116 120 312
4 393 196 433 486
4 82 136 142 391
4 75 3 435 479
4 96 261 272 253
4 143 134 142 248
4 97 96 253 95
4 377 448 442 171
4 342 125 30 326
4 103 141 414 110
4 258 107 257 262
4 116 119 118 270
4 239 328 240 489
4 109 147 286 319
4 344 1 69 183
4 143 94 337 248
4 337 94 274 331
4 160 173 335 295
4 310 118 119 270
4 127 216 162 143
4 348 472 73 494
4 212 133 134 367
4 216 217 127 162
4 72 186 346 485
4 374 117 154 166
4 106 279 255 141
4 100 226 112 224
4 82 142 134 336
4 453 461 3 479
4 115 262 258 264
4 396 27 26 301
4 272 368 113 321
4 279 384 412 120
4 122 277 359 108
4 28 179 178 469
4 463 54 323 481
4 133 184 10 82
4 152 321 188 402
4 220 219 127 144
4 11 68 386 168
4 103 246 104 101
4 27 396 128 397
4 90 77 7 192
4 414 255 141 103
4 286 147 320 319
4 360 8 408 65
4 253 272 109 286
4 129 160 173 335
4 100 98 99 244
4 161 124 76 230
4 338 137 157 429
4 82 360 136 391
4 378 101 102 99
4 395 334 122 290
4 275 113 303 132
4 11 10 67 155
4 149 232 343 228
4 307 392 432 483
4 24 1 344 490
4 29 179 28 469
4 76 293 362 397
4 383 101 102 378
4 418 186 447 485
4 270 292 118 264
4 135 168 133 211
4 351 353 352 473
4 386 68 344 168
4 213 212 135 214
4 134 135 212 214
4 227 161 76 230
4 408 77 136 333
4 398 187 181 154
4 436 479 393 493
4 252 263 251 492
4 74 75 201 494
4 57 454 351 459
4 84 6 5 361
4 449 18 181 154
4 80 442 191 171
4 461 381 435 479
4 452 189 54 481
4 115 129 262 264
4 308 283 281 482
4 385 242 245 471
4 310 165 118 292
4 383 103 246 259
4 295 292 160 350
4 408 77 411 192
4 247 232 359 108
4 366 202 5 62
4 1 69 183 490
4 258 384 116 270
4 30 31 340 326
4 336 142 134 248
4 10 9 356 81
4 358 477 263 492
4 246 101 383 231
4 26 27 396 128
4 133 184 82 367
4 313 340 31 443
4 435 381 201 479
4 118 160 115 264
4 364 25 26 406
4 137 8 437 78
4 118 130 160 292
4 122 277 114 290
4 292 130 160 350
4 270 118 116 115
4 81 155 174 299
4 100 382 226 224
4 108 104 232 148
4 101 383 382 378
4 98 95 221 144
4 98 365 97 99
4 29 379 394 297
4 58 454 456 349
4 182 1 31 419
4 219 217 220 127
4 435 3 461 479
4 135 134 162 214
4 321 121 152 188
4 131 275 285 132
4 238 86 172 394
4 256 255 247 106
4 172 234 238 394
4 17 40 181 398
4 419 182 1 69
4 200 377 80 146
4 128 26 218 405
4 355 11 67 155
4 217 216 215 162
4 136 77 92 333
4 9 185 356 81
4 218 396 357 128
4 161 76 126 362
4 210 24 135 211
4 337 216 143 248
4 231 228 148 226
4 78 160 130 350
4 227 161 112 225
4 361 158 413 204
4 100 112 105 224
4 90 145 410 84
4 360 408 136 333
4 393 486 433 493
4 214 336 134 248
4 233 221 253 95
4 236 28 234 235
4 165 83 311 399
4 142 94 143 248
4 463 323 195 481
4 82 184 360 391
4 93 94 92 331
4 145 159 317 84
4 381 455 51 325
4 160 118 292 264
4 222 365 98 244
4 89 451 159 158
4 91 411 77 90
4 380 241 251 484
4 205 390 206 478
4 408 7 8 77
4 293 126 76 362
4 31 177 179 482
4 230 229 124 234
4 5 6 366 62
4 82 134 133 367
4 25 210 135 213
4 152 321 402 444
4 421 156 88 330
4 87 152 121 188
4 397 76 27 369
4 366 5 138 83
4 99 365 371 244
4 185 9 137 81
4 311 139 165 399
4 391 142 336 332
4 348 389 190 472
4 129 107 262 114
4 303 368 113 275
4 191 80 171 151
4 113 121 109 272
4 373 320 372 111
4 226 227 112 225
4 437 339 137 78
4 74 348 73 494
4 436 75 393 479
4 384 412 120 312
4 177 31 1 468
4 165 83 438 311
4 173 157 335 338
4 86 395 122 290
4 110 409 102 111
4 110 146 376 117
4 363 25 406 213
4 85 162 215 213
4 131 276 93 91
4 122 238 395 86
4 465 479 493 494
4 139 156 399 330
4 54 189 323 481
4 118 119 165 310
4 156 139 88 330
4 185 9 65 137
4 140 102 372 111
4 358 308 281 477
4 197 451 422 159
4 111 373 320 147
4 396 26 128 405
4 187 449 181 154
4 135 133 134 212
4 85 218 26 405
4 236 234 29 394
4 454 459 458 473
4 199 175 152 444
4 26 85 405 406
4 7 194 437 78
4 270 384 116 312
4 440 4 170 202
4 76 227 230 362
4 190 345 72 474
4 236 234 28 172
4 214 143 216 248
4 292 310 165 311
4 189 452 55 352
4 329 401 245 491
4 162 85 135 213
4 183 205 206 490
4 405 289 26 364
4 85 25 135 213
4 236 28 29 172
4 128 357 218 176
4 210 25 363 213
4 355 68 11 167
4 128 218 26 85
4 31 30 125 326
4 429 81 174 299
4 124 149 343 229
4 130 165 438 311
4 128 76 27 397
4 88 198 421 330
4 128 396 357 293
4 343 238 122 124
4 359 232 343 108
4 73 348 190 472
4 123 125 342 291
4 300 329 328 476
4 126 128 357 293
4 425 110 376 117
4 154 79 398 166
4 273 269 252 492
4 159 197 451 89
4 465 473 488 493
4 83 165 139 399
4 305 332 92 333
4 404 450 163 150
4 105 220 127 144
4 250 266 265 480
4 315 441 318 493
4 194 6 366 83
4 76 161 227 362
4 228 148 232 231
4 362 161 227 225
4 133 386 367 211
4 275 303 285 132
4 97 109 140 286
4 343 238 124 229
4 213 162 215 214
4 182 68 355 167
4 133 386 184 367
4 273 370 316 488
4 158 4 169 204
4 367 184 82 391
4 372 102 409 111
4 123 342 290 291
4 124 230 234 172
4 342 395 86 290
4 231 101 383 382
4 448 279 120 141
4 358 281 263 477
4 377 200 376 146
4 219 220 221 144
4 277 262 114 278
4 472 483 465 494
4 440 61 4 202
4 448 412 442 120
4 277 359 334 122
4 373 398 424 166
4 397 362 76 369
4 293 128 396 397
4 336 212 134 367
4 83 194 6 130
4 135 24 168 211
4 386 133 168 211
4 86 123 342 290
4 465 493 486 494
4 159 150 197 89
4 288 354 329 491
4 60 456 453 436
4 115 258 270 264
4 352 452 55 459
4 194 366 438 83
4 317 285 132 145
4 157 335 338 298
4 361 63 6 62
4 153 376 146 117
4 421 399 156 330
4 76 128 126 293
4 143 216 162 214
4 113 121 272 321
4 379 236 29 394
4 120 171 448 146
4 416 316 370 488
4 290 114 123 278
4 105 223 222 224
4 438 194 83 130
4 465 486 472 494
4 122 359 343 108
4 170 4 138 202
4 345 71 72 474
4 255 106 141 103
4 248 94 337 331
4 442 191 428 80
4 289 26 301 405
4 270 119 310 312
4 413 317 159 84
4 451 413 159 158
4 425 409 110 111
4 304 411 305 91
4 358 309 418 485
4 78 194 339 350
4 186 446 346 485
4 210 24 25 135
4 8 7 408 64
4 118 310 292 270
4 187 181 40 398
4 276 304 305 91
4 239 369 327 489
4 272 121 109 319
4 224 226 112 225
4 27 369 28 489
4 229 149 343 228
4 147 111 373 166
4 391 360 136 333
4 207 344 24 211
4 215 217 162 176
4 269 358 263 492
4 416 353 316 488
4 406 85 215 213
4 149 343 122 124
4 343 238 334 122
4 168 24 344 211
4 192 63 6 361
4 68 11 1 168
4 154 187 374 166
4 140 320 371 286
4 291 278 123 298
4 171 377 448 146
4 102 409 383 378
4 394 86 29 297
4 316 353 430 488
4 9 10 356 66
4 122 334 277 290
4 7 408 64 192
4 93 274 331 276
4 282 281 283 482
4 81 137 185 429
4 210 135 212 211
4 163 427 450 404
4 153 375 376 117
4 311 83 438 399
4 81 174 157 429
4 282 297 30 284
4 204 4 169 439
4 247 246 232 104
4 310 139 165 311
4 436 453 3 75
4 173 339 137 338
4 206 207 183 490
4 248 336 142 332
4 86 238 395 394
4 119 139 310 426
4 90 7 6 192
4 1 344 68 168
4 278 157 123 298
4 298 338 157 429
4 439 204 4 61
4 223 220 105 222
4 146 80 200 153
4 279 412 448 120
4 81 356 155 299
4 207 24 210 211
4 350 130 438 311
4 321 427 163 188
4 344 386 168 211
4 175 147 424 166
4 150 197 422 159
4 410 411 90 192
4 307 432 324 483
4 85 128 218 176
4 51 461 455 381
4 102 409 378 372
4 185 65 9 66
4 321 152 121 444
4 30 31 179 482
4 285 317 304 145
4 119 139 165 310
4 217 357 220 127
4 125 155 420 299
4 217 215 218 176
4 332 92 331 305
4 371 378 99 244
4 224 100 382 244
4 86 123 125 342
4 86 122 238 124
4 173 78 339 295
4 366 138 202 399
4 68 1 11 167
4 149 122 343 108
4 103 255 246 259
4 63 7 6 194
4 437 339 185 137
4 415 138 156 399
4 67 68 11 355
4 356 185 9 66
4 291 123 174 298
4 284 297 30 342
4 139 156 138 399
4 327 397 27 369
4 465 488 486 493
4 157 173 137 338
4 356 81 429 299
4 285 276 275 131
4 410 304 317 145
4 172 86 29 394
4 68 182 1 167
4 301 26 396 405
4 11 386 133 168
4 176 128 357 126
4 221 365 98 222
4 424 175 444 319
4 372 320 371 140
4 356 67 10 155
4 162 134 143 214
4 194 78 130 350
4 27 301 397 327
4 152 79 175 199
4 200 376 146 153
4 64 408 8 65
4 335 157 278 298
4 437 8 7 78
4 203 349 456 493
4 199 424 175 444
4 364 26 405 406
4 80 377 442 171
4 298 157 174 429
4 230 124 76 172
4 408 77 333 411
4 334 359 343 122
4 339 437 194 78
4 125 420 31 326
4 173 335 295 338
4 78 7 194 130
4 129 262 264 335
4 217 127 162 176
4 125 342 291 326
4 351 430 353 473
4 171 434 191 151
4 158 417 413 204
4 238 86 124 172
4 157 174 123 298
4 340 31 420 326
4 65 360 9 66
4 97 253 286 365
4 215 218 85 406
4 216 215 162 214
4 28 230 234 235
4 426 88 139 330
4 129 173 157 335
4 4 0 61 440
4 314 387 302 475
4 173 160 78 295
4 29 234 172 394
4 424 175 79 199
4 11 68 67 386
4 158 169 417 204
4 194 7 6 130
4 201 75 435 479
4 85 26 25 406
4 357 217 218 176
4 84 413 410 361
4 366 6 63 62
4 295 339 173 338
4 264 292 160 295
4 4 0 439 61
4 88 426 198 330
4 243 251 241 484
4 407 296 318 486
4 63 64 7 194
4 339 137 78 173
4 362 230 76 369
4 338 185 137 429
4 164 119 120 312
4 366 63 6 194
4 63 6 7 192
4 114 123 122 290
4 368 113 163 303
4 134 212 336 214
4 316 430 315 488
4 184 67 10 66
4 6 5 366 83
4 88 151 21 400
4 229 238 124 234
4 442 434 191 171
4 176 357 127 126
4 175 424 147 319
4 79 398 17 154
4 445 307 324 483
4 218 215 85 176
4 217 357 127 176
4 175 121 444 319
4 197 422 403 150
4 139 119 164 426
4 146 448 120 141
4 164 88 139 426
4 123 86 122 290
4 314 302 294 475
4 167 355 420 155
4 194 64 7 437
4 175 121 152 444
4 339 185 137 338
4 223 126 357 293
4 79 39 398 199
4 180 177 1 490
4 83 138 366 399
4 286 272 109 319
4 238 124 234 172
4 138 170 202 415
4 297 86 30 342
4 395 86 394 297
4 63 7 64 192
4 86 30 29 297
4 399 156 415 421
4 167 420 31 125
4 426 164 88 400
4 234 230 28 172
4 212 135 210 213
4 164 120 434 312
4 16 79 152 199
4 317 132 159 145
4 323 195 53 463
4 415 170 23 156
4 202 170 440 415
4 151 45 21 400
4 198 426 88 400
4 285 422 317 132
4 167 11 355 155
4 151 191 45 400
4 376 200 375 153
4 125 30 86 342
4 121 272 321 319
4 291 174 125 299
4 189 423 323 481
4 404 163 87 150
4 4 0 440 170
4 375 425 376 117
4 120 412 434 312
4 203 456 60 436
4 461 453 460 479
4 67 356 355 155
4 417 89 169 158
4 368 427 163 321
4 28 76 230 369
4 16 39 79 199
4 146 376 414 110
4 285 131 132 145
4 398 424 79 199
4 80 191 20 151
4 351 352 56 459
4 155 10 356 81
4 115 160 129 264
4 316 315 273 488
4 293 223 126 225
4 138 170 415 156
4 373 374 187 166
4 126 112 161 225
4 61 0 2 440
4 152 402 199 444
4 147 109 121 319
4 64 8 7 437
4 198 88 46 400
4 439 0 2 61
4 398 17 39 79
4 164 151 88 400
4 402 38 152 199
4 428 377 442 80
4 151 171 434 164
4 310 139 311 330
4 430 193 441 473
4 4 0 169 439
4 404 35 403 150
4 120 434 171 164
4 139 310 426 330
4 76 28 27 369
4 22 156 88 421
4 139 138 83 399
4 198 22 88 421
4 121 175 147 319
4 150 450 163 132
4 279 414 255 141
4 191 20 428 80
4 141 146 414 110
4 200 377 428 80
4 146 414 448 141
4 326 125 420 299
4 1 24 344 168
4 415 23 48 156
4 374 409 425 111
4 268 307 445 483
4 1 24 180 490
4 328 239 327 489
4 87 163 427 188
4 15 152 188 402
4 8 64 65 437
4 424 320 147 319
4 147 373 424 166
4 110 376 414 425
4 158 413 159 84
4 230 28 369 235
4 204 169 417 439
4 153 449 375 154
4 399 311 139 330
4 409 110 259 425
4 422 450 150 132
4 165 438 83 130
4 395 86 297 342
4 462 452 463 481
4 329 354 401 491
4 326 291 125 299
4 125 174 155 299
4 434 151 164 400
4 182 355 420 167
4 185 356 81 429
4 373 424 320 147
4 450 303 163 132
4 200 428 43 80
4 157 123 114 278
4 155 355 420 299
4 171 80 377 146
4 427 163 87 404
4 198 47 22 421
4 88 21 46 400
4 44 20 428 191
4 163 427 368 303
4 430 351 193 473
4 420 31 182 167
4 269 263 252 492
4 85 215 162 176
4 372 409 374 111
4 152 38 16 199
4 132 422 317 159
4 12 417 89 169
4 28 178 27 489
4 455 52 51 325
4 18 449 153 154
4 426 310 119 312
4 14 35 404 150
4 187 375 449 154
4 197 34 13 403
4 174 291 298 299
4 125 123 174 291
4 230 76 28 172
4 344 69 1 68
4 46 22 88 198
4 151 434 191 400
4 33 12 417 89
4 119 164 426 312
4 415 202 138 399
4 188 37 15 402
4 41 449 181 187
4 426 434 164 400
4 69 182 1 68
4 417 197 33 89
4 152 15 38 402
4 55 54 452 189
4 195 52 53 463
4 349 318 441 493
4 259 110 414 425
4 155 356 355 299
4 279 448 414 141
4 156 48 415 421
4 87 14 36 404
4 17 39 40 398
4 182 443 31 420
4 356 10 67 66
4 117 153 375 154
4 113 163 303 132
4 278 123 290 291
4 83 366 438 399
4 203 456 59 60
4 403 13 197 150
4 436 393 203 493
4 132 150 422 159
4 429 174 298 299
4 200 43 19 80
4 309 446 418 485
4 163 427 303 450
4 58 193 57 454
4 433 486 318 493
4 17 16 39 79
4 22 46 47 198
4 170 49 440 415
4 19 200 80 153
4 19 42 200 153
4 150 13 197 89
4 197 13 33 89
4 32 417 169 439
4 449 200 42 153
4 203 456 349 59
4 404 87 14 150
4 374 373 372 111
4 18 41 449 181
4 15 37 38 402
4 53 54 323 463
4 443 340 31 420
4 34 35 13 403
4 349 456 58 59
4 45 20 191 151
4 0 49 440 170
4 352 55 56 459
4 417 451 197 89
4 444 121 321 319
4 403 450 404 150
4 170 23 49 415
4 203 393 433 493
4 169 0 32 439
4 450 403 422 150
4 182 31 1 167
4 374 373 111 166
4 15 152 87 188
4 12 32 417 169
4 87 36 188 404
4 12 33 13 89
4 201 392 348 494
4 426 164 434 312
4 16 15 38 152
4 46 22 21 88
4 201 348 74 494
4 51 50 461 381
4 111 117 374 166
4 461 50 435 381
4 422 303 450 132
4 422 285 303 132
4 433 196 407 486
4 375 374 425 117
4 351 56 57 459
4 449 42 18 153
4 438 194 130 350
4 433 407 318 486
4 23 22 48 156
4 422 451 317 159
4 376 414 448 146
4 349 203 318 493
4 203 433 318 493
4 20 45 21 151
4 49 2 0 440
4 453 3 60 436
4 2 32 0 439
4 156 22 48 421
4 32 12 0 169
4 413 317 451 159
4 49 0 23 170
4 13 33 34 197
4 42 19 18 153
4 20 43 44 428
4 20 44 45 191
4 188 427 87 404
4 179 177 178 487
4 177 180 178 487
4 186 418 446 485
4 377 376 448 146
4 15 36 37 188
4 36 15 87 188
4 39 16 38 199
4 36 15 14 87
4 46 21 45 400
4 181 40 41 187
4 449 375 200 153
4 14 35 36 404
4 19 42 43 200
4 47 48 22 421
4 48 49 23 415
4 33 12 32 417
4 42 18 41 449
4 435 3 50 461
4 181 18 17 154
4 457 481 458 462
4 458 481 457 473
4 486 309 485 407
4 486 485 309 466
4 486 73 494 196
4 486 494 73 472
4 196 494 393 74
4 393 494 196 486
4 485 71 72 186
4 485 72 71 474
4 488 387 254 416
4 488 254 387 475
4 484 263 280 477
4 484 280 263 251
4 493 453 457 456
4 493 457 453 479
4 494 75 393 74
4 494 393 75 479
4 257 106 258 256
4 258 106 257 107
4 104 231 232 148
4 232 231 104 246
4 284 482 340 30
4 340 482 284 283
4 451 158 417 413
4 417 158 451 89
4 227 124 149 161
4 227 149 124 229
4 65 137 437 185
4 437 137 65 8
4 130 311 292 165
4 292 311 130 350
4 235 489 369 239
4 369 489 235 28
4 188 121 163 321
4 188 163 121 87
4 154 374 375 117
4 154 375 374 187
4 113 321 163 121
4 163 321 113 368
4 111 425 117 110
4 111 117 425 374
4 166 187 398 154
4 166 398 187 373
4 442 120 434 171
4 434 120 442 412
4 150 35 13 14
4 150 13 35 403
4 80 43 20 428
4 80 20 43 19

CELL_TYPES 2496
1
1
1
1
3
3
3
3
3
3
3
3
3
3
3
3
3
3
3
3
3
3
3
3
3
3
3
3
3
3
3
3
3
3
3
3
3
3
3
3
3
3
3
3
3
3
3
3
3
3
3
3
3
3
3
3
3
3
3
3
3
3
3
3
3
3
3
3
3
3
3
3
3
3
3
3
3
3
3
3
3
3
5
5
5
5
5
5
5
5
5
5
5
5
5
5
5
5
5
5
5
5
5
5
5
5
5
5
5
5
5
5
5
5
5
5
5
5
5
5
5
5
5
5
5
5
5
5
5
5
5
5
5
5
5
5
5
5
5
5
5
5
5
5
5
5
5
5
5
5
5
5
5
5
5
5
5
5
5
5
5
5
5
5
5
5
5
5
5
5
5
5
5
5
5
5
5
5
5
5
5
5
5
5
5
5
5
5
5
5
5
5
5
5
5
5
5
5
5
5
5
5
5
5
5
5
5
5
5
5
5
5
5
5
5
5
5
5
5
5
5
5
5
5
5
5
5
5
5
5
5
5
5
5
5
5
5
5
5
5
5
5
5
5
5
5
5
5
5
5
5
5
5
5
5
5
5
5
5
5
5
5
5
5
5
5
5
5
5
5
5
5
5
5
5
5
5
5
5
5
5
5
5
5
5
5
5
5
5
5
5
5
5
5
5
5
5
5
5
5
5
5
5
5
5
5
5
5
5
5
5
5
5
5
5
5
5
5
5
5
5
5
5
5
5
5
5
5
5
5
5
5
5
5
5
5
5
5
5
5
5
5
5
5
5
5
5
5
5
5
5
5
5
5
5
5
5
5
5
5
5
5
5
5
5
5
5
5
5
5
5
5
5
5
5
5
5
5
5
5
5
5
5
5
5
5
5
5
5
5
5
5
5
5
5
5
5
5
5
5
5
5
5
5
5
5
5
5
5
5
5
5
5
5
5
5
5
5
5
5
5
5
5
5
5
5
5
5
5
5
5
5
5
5
5
5
5
5
5
5
5
5
5
5
5
5
5
5
5
5
5
5
5
5
5
5
5
5
5
5
5
5
5
5
5
5
5
5
5
5
5
5
5
5
5
5
5
5
5
5
5
5
5
5
5
5
5
5
5
5
5
5
5
5
5
5
5
5
5
5
5
5
5
5
5
5
5
5
5
5
5
5
5
5
5
5
5
5
5
5
5
5
5
5
5
5
5
5
5
5
5
5
5
5
5
5
5
5
5
5
5
5
5
5
5
5
5
5
5
5
5
5
5
5
5
5
5
5
5
5
5
5
5
5
5
5
5
5
5
5
5
5
5
5
5
5
5
5
5
5
5
5
5
5
5
5
5
5
5
5
5
5
5
5
5
5
5
5
5
5
5
5
5
5
5
5
5
5
5
5
5
5
5
5
5
5
5
5
5
5
5
5
5
5
5
5
5
5
5
5
5
5
5
5
5
5
5
5
5
5
5
5
5
5
5
5
5
5
5
5
5
5
5
5
5
5
5
5
5
5
5
5
5
5
5
5
5
5
5
5
5
5
5
5
5
5
5
5
5
5
5
5
5
5
5
5
5
5
5
5
5
5
5
5
5
5
5
5
5
5
5
5
5
5
5
5
5
5
5
5
5
5
5
5
5
5
5
5
5
5
5
5
5
5
5
5
5
5
5
5
5
5
5
5
5
5
5
5
5
5
5
5
5
5
5
5
5
5
5
5
5
5
5
5
5
5
5
5
5
5
5
5
5
5
5
5
5
5
5
5
5
5
5
5
5
5
5
5
5
5
5
5
5
5
5
5
5
5
5
5
5
5
5
5
5
5
5
5
5
5
5
5
5
5
5
5
5
5
5
5
5
5
5
5
5
5
5
5
5
5
5
5
5
5
5
5
5
5
5
5
5
5
5
5
5
5
5
5
5
5
5
5
5
5
5
5
5
5
5
5
5
5
5
5
5
5
5
5
5
5
5
5
5
5
5
5
5
5
5
5
5
5
5
5
5
5
5
5
5
5
5
5
5
5
5
5
5
5
5
5
5
5
5
5
5
5
5
5
5
5
5
5
5
5
5
5
5
5
5
5
5
5
5
5
5
5
5
5
5
5
5
5
5
5
5
5
5
5
5
5
5
5
5
5
5
5
5
5
5
5
5
5
5
5
5
5
5
5
5
5
5
5
5
5
5
5
5
5
5
5
5
5
5
5
5
5
5
5
5
5
5
5
5
5
5
5
5
5
5
5
5
5
5
5
5
5
5
5
5
5
5
5
5
5
5
5
5
5
5
5
5
5
5
5
5
5
10
10
10
10
10
10
10
10
10
10
10
10
10
10
10
10
10
10
10
10
10
10
10
10
10
10
10
10
10
10
10
10
10
10
10
10
10
10
10
10
10
10
10
10
10
10
10
10
10
10
10
10
10
10
10
10
10
10
10
10
10
10
10
10
10
10
10
10
10
10
10
10
10
10
10
10
10
10
10
10
10
10
10
10
10
10
10
10
10
10
10
10
10
10
10
10
10
10
10
10
10
10
10
10
10
10
10
10
10
10
10
10
10
10
10
10
10
10
10
10
10
10
10
10
10
10
10
10
10
10
10
10
10
10
10
10
10
10
10
10
10
10
10
10
10
10
10
10
10
10
10
10
10
10
10
10
10
10
10
10
10
10
10
10
10
10
10
10
10
10
10
10
10
10
10
10
10
10
10
10
10
10
10
10
10
10
10
10
10
10
10
10
10
10
10
10
10
10
10
10
10
10
10
10
10
10
10
10
10
10
10
10
10
10
10
10
10
10
10
10
10
10
10
10
10
10
10
10
10
10
10
10
10
10
10
10
10
10
10
10
10
10
10
10
10
10
10
10
10
10
10
10
10
10
10
10
10
10
10
10
10
10
10
10
10
10
10
10
10
10
10
10
10
10
10
10
10
10
10
10
10
10
10
10
10
10
10
10
10
10
10
10
10
10
10
10
10
10
10
10
10
10
10
10
10
10
10
10
10
10
10
10
10
10
10
10
10
10
10
10
10
10
10
10
10
10
10
10
10
10
10
10
10
10
10
10
10
10
10
10
10
10
10
10
10
10
10
10
10
10
10
10
10
10
10
10
10
10
10
10
10
10
10
10
10
10
10
10
10
10
10
10
10
10
10
10
10
10
10
10
10
10
10
10
10
10
10
10
10
10
10
10
10
10
10
10
10
10
10
10
10
10
10
10
10
10
10
10
10
10
10
10
10
10
10
10
10
10
10
10
10
10
10
10
10
10
10
10
10
10
10
10
10
10
10
10
10
10
10
10
10
10
10
10
10
10
10
10
10
10
10
10
10
10
10
10
10
10
10
10
10
10
10
10
10
10
10
10
10
10
10
10
10
10
10
10
10
10
10
10
10
10
10
10
10
10
10
10
10
10
10
10
10
10
10
10
10
10
10
10
10
10
10
10
10
10
10
10
10
10
10
10
10
10
10
10
10
10
10
10
10
10
10
10
10
10
10
10
10
10
10
10
10
10
10
10
10
10
10
10
10
10
10
10
10
10
10
10
10
10
10
10
10
10
10
10
10
10
10
10
10
10
10
10
10
10
10
10
10
10
10
10
10
10
10
10
10
10
10
10
10
10
10
10
10
10
10
10
10
10
10
10
10
10
10
10
10
10
10
10
10
10
10
10
10
10
10
10
10
10
10
10
10
10
10
10
10
10
10
10
10
10
10
10
10
10
10
10
10
10
10
10
10
10
10
10
10
10
10
10
10
10
10
10
10
10
10
10
10
10
10
10
10
10
10
10
10
10
10
10
10
10
10
10
10
10
10
10
10
10
10
10
10
10
10
10
10
10
10
10
10
10
10
10
10
10
10
10
10
10
10
10
10
10
10
10
10
10
10
10
10
10
10
10
10
10
10
10
10
10
10
10
10
10
10
10
10
10
10
10
10
10
10
10
10
10
10
10
10
10
10
10
10
10
10
10
10
10
10
10
10
10
10
10
10
10
10
10
10
10
10
10
10
10
10
10
10
10
10
10
10
10
10
10
10
10
10
10
10
10
10
10
10
10
10
10
10
10
10
10
10
10
10
10
10
10
10
10
10
10
10
10
10
10
10
10
10
10
10
10
10
10
10
10
10
10
10
10
10
10
10
10
10
10
10
10
10
10
10
10
10
10
10
10
10
10
10
10
10
10
10
10
10
10
10
10
10
10
10
10
10
10
10
10
10
10
10
10
10
10
10
10
10
10
10
10
10
10
10
10
10
10
10
10
10
10
10
10
10
10
10
10
10
10
10
10
10
10
10
10
10
10
10
10
10
10
10
10
10
10
10
10
10
10
10
10
10
10
10
10
10
10
10
10
10
10
10
10
10
10
10
10
10
10
10
10
10
10
10
10
10
10
10
10
10
10
10
10
10
10
10
10
10
10
10
10
10
10
10
10
10
10
10
10
10
10
10
10
10
10
10
10
10
10
10
10
10
10
10
10
10
10
10
10
10
10
10
10
10
10
10
10
10
10
10
10
10
10
10
10
10
10
10
10
10
10
10
10
10
10
10
10
10
10
10
10
10
10
10
10
10
10
10
10
10
10
10
10
10
10
10
10
10
10
10
10
10
10
10
10
10
10
10
10
10
10
10
10
10
10
10
10
10
10
10
10
10
10
10
10
10
10
10
10
10
10
10
10
10
10
10
10
10
10
10
10
10
10
10
10
10
10
10
10
10
10
10
10
10
10
10
10
10
10
10
10
10
10
10
10
10
10
10
10
10
10
10
10
10
10
10
10
10
10
10
10
10
10
10
10
10
10
10
10
10
10
10
10
10
10
10
10
10
10
10
10
10
10
10
10
10
10
10
10
10
10
10
10
10
10
10
10
10
10
10
10
10
10
10
10
10
10
10
10
10
10
10
10
10
10
10
10
10
10
10
10
10
10
10
10
10
10
10
10
10
10
10
10
10
10
10
10
10
10
10
10
10
10
10
10
10
10
10
10
10
10
10
10
10
10
10
10
10
10
10
10
10
10
10
10
10
10
10
10
10
10
10
10
10
10
10
10
10
10
10
10
10
10
10
10
10
10
10
10
10
10
10
10
10
10
10
10
10
10
10
10
10
10
10
10
10
10
10
10
10
10
10
10
10
10
10
10
10
10
10
10
10
10
10
10
10
10
10
10
10
10
10
10
10
10
10
10
10
10
10
10
10
10
10
10
10
10
10
10
10
10
10
10
10
10
10
10
10
10
10
10
10
10
10
10
10
10
10
10
10
10
10
10
10
10
10
10
10
10
10
10
10
10
10
10
10
10
10
10
10
10
10
10
10
10
10
10
10
10
10
10
10
10
10
10
10
10
10
10
10
10
10
10
10
10
10
10
10
10
10
10
10
10
10
10
10
10
10
10
10
10
10
10
10
10
10
10
10
10
10
10
10
10
10
10
10
10
10
10
10
10
10
10
10
10
10
10
10
10
10
10
10
10
10
10
10
10
10
10
10
10
10
10
10
10
10
10
10
10
10
10
10
10
10
10
10
10
10
10
10
10
10
10
10
10
10
10
10
10
10
10
10
10
10
10
10
10
10
10
10
10
10
10
10
10
10
10
10
10
10
10
10
10
10
10
10
10
10
10
10
10
10
10
10
10
10
10
10
10
10
10
10
10
10
10
10
10
10
10
10
10
10
10
10
10
