# vtk DataFile Version 2.0
whisker_body, Created by Gmsh 4.13.1 
ASCII
DATASET UNSTRUCTURED_GRID
POINTS 690 double
-9.886859966642536 -1.500000000000193 0
9.88685996664254 -1.500000000000187 0
-7.490229548994256 -1.499999999999933 30
7.490229548994257 -1.499999999999932 30
12 0 0
9.886859966642614 1.499999999999935 0
0 10 0
-9.886859966642614 1.499999999999936 0
5.70386345403052 0 80
7.490229548994232 1.499999999999993 30
0 7.638948795261445 30
-7.49022954899423 1.499999999999996 30
-8.748717852015751 -4.8435458030064 0
-6.519202405202561 -7.582875444051627 0
-3.476438231831796 -9.376266699505631 0
3.430248998885766e-14 -10 0
3.476438231831848 -9.376266699505612 0
6.519202405202592 -7.582875444051599 0
8.74871785201576 -4.843545803006382 0
-5.932115979985521 -1.5 0
-1.977371993328505 -1.5 0
1.977371993328511 -1.5 0
5.932115979985525 -1.5 0
-7.790989000869896 -1.5 26.25009524161821
-8.091336173302759 -1.5 22.50015627954841
-8.391315244266307 -1.5 18.75018781495277
-8.690964212695608 -1.5 15.00019428133869
-8.990316241741947 -1.5 11.25017615943213
-9.289399974574136 -1.5 7.500136560587634
-9.588240498625051 -1.5 3.750077686521152
-6.056362762887166 -4.655535284039851 30
-3.375658679969948 -6.852624838189366 30
-9.355014190967458e-16 -7.638948795261445 30
3.375658679969946 -6.852624838189367 30
6.056362762887167 -4.65553528403985 30
9.588240498625051 -1.5 3.750077686521152
9.289399974574136 -1.5 7.500136560587634
8.990316241741946 -1.5 11.25017615943219
8.690964212695604 -1.5 15.00019428133875
8.391315244266307 -1.5 18.75018781495277
8.091336173302759 -1.5 22.50015627954841
7.790989000869896 -1.5 26.25009524161821
-3.745114774497127 -1.5 30
0 -1.5 30
3.745114774497129 -1.5 30
11.34980690040761 3.896393630456207 0
9.469686112756717 7.370552552276022 0
6.563377897469113 10.04599773915035 0
2.945825845689581 11.63280319127197 0
-0.9909521456679979 11.95901391608004 0
-4.820345095835646 10.98927991986068 0
-8.127378859508902 8.82868692807757 0
-10.55368501447787 5.71136871644487 0
-11.83633564083267 1.975135083368787 0
-11.83633564083267 -1.975135083368821 0
-10.55368501447786 -5.711368716444897 0
-8.12737885950888 -8.828686928077589 0
-4.820345095835619 -10.9892799198607 0
-0.9909521456679715 -11.95901391608004 0
2.945825845689616 -11.63280319127196 0
6.563377897469155 -10.04599773915032 0
9.469686112756747 -7.370552552275983 0
11.34980690040762 -3.896393630456205 0
8.748717852015853 4.843545803006216 0
6.519202405202677 7.582875444051527 0
3.47643823183188 9.376266699505599 0
5.932115979985569 1.5 0
1.977371993328523 1.5 0
-1.977371993328521 1.5 0
-5.932115979985568 1.5 0
-3.476438231831882 9.376266699505599 0
-6.519202405202678 7.582875444051524 0
-8.748717852015854 4.843545803006212 0
4.369412903269498 3.666372755594688 80
0.9904654944534007 5.617208951652248 80
-2.851931727015263 4.939690650908082 80
-5.359878397722907 1.950836196057551 80
-5.359878397722898 -1.950836196057576 80
-2.851931727015253 -4.939690650908087 80
0.9904654944534206 -5.617208951652245 80
4.369412903269518 -3.666372755594664 80
11.70018397400145 0 3.80952380952381
11.40036794800291 0 7.61904761904762
11.10055192200436 0 11.42857142857143
10.80073589600581 0 15.23809523809524
10.50091987000727 0 19.04761904761905
10.20110384400872 0 22.85714285714286
9.901287818010173 0 26.66666666666667
9.601471792011626 0 30.47619047619048
9.301655766013079 0 34.28571428571429
9.001839740014532 0 38.0952380952381
8.702023714015986 0 41.90476190476191
8.402207688017439 0 45.71428571428572
8.102391662018892 0 49.52380952380953
7.802575636020347 0 53.33333333333334
7.502759610021799 0 57.14285714285715
7.202943584023253 0 60.95238095238096
6.903127558024707 0 64.76190476190476
6.603311532026159 0 68.57142857142858
6.303495506027613 0 72.38095238095238
6.003679480029065 0 76.1904761904762
7.790989000869896 1.5 26.25009524161821
8.091336173302759 1.5 22.50015627954841
8.391315244266307 1.5 18.75018781495277
8.690964212695608 1.5 15.00019428133869
8.990316241741947 1.5 11.25017615943213
9.289399974574136 1.5 7.500136560587634
9.588240498625051 1.5 3.750077686521152
6.056362762887139 4.655535284039885 30
3.37565867996993 6.852624838189374 30
0 9.70486859940768 3.75
0 9.40973719881536 7.5
0 9.114605798223042 11.25
0 8.819474397630723 15
0 8.524342997038403 18.75
0 8.229211596446085 22.5
0 7.934080195853765 26.25
-9.588240498625051 1.5 3.750077686521152
-9.289399974574136 1.5 7.500136560587634
-8.990316241741946 1.5 11.25017615943219
-8.690964212695604 1.5 15.00019428133875
-8.391315244266307 1.5 18.75018781495277
-8.091336173302759 1.5 22.50015627954841
-7.790989000869896 1.5 26.25009524161821
3.745114774497116 1.5 30
0 1.5 30
-3.745114774497114 1.5 30
-3.375658679969928 6.852624838189375 30
-6.056362762887137 4.655535284039887 30
6.980821258704772 -4.644513312246484 20.52419971286416
-7.721898419652289 -4.574362780774953 13.02252549600301
-7.058703599401841 -4.528412044111477 20.50265076416649
7.728546454493878 -4.560972013122968 13.03641030876257
1.403090748181532 -9.666057351438637 2.955966917162407
-4.888485553233123 -8.448294403755115 3.040786904654899
-1.786049544406537 -7.667442398527395 27.02971516035582
8.393407168979733 -4.584535074334602 5.541798621083216
4.884204535540017 -6.174899182220278 27.02552869359615
-8.592767251680698 -4.178486082272989 5.656009814906102
-7.371110299620087 -4.583785072910939 16.77076107368439
-5.382653235215619 -7.015071105196266 14.71147547203933
-5.773084150751742 -7.078562620942608 11.00037843871561
-2.784603646281607 -8.566907689380759 12.60324271534076
-2.324139651638107 -8.401801688059471 16.29782798504635
0.7529110193718812 -8.85857736624952 14.09733570712364
0.1840335259366464 -9.178464443792581 10.41515851822359
1.116153124909485 -8.532283017568815 17.72543151864323
-1.882530899003445 -8.216435052220461 19.95716165988629
1.513890944449163 -8.179966386287644 21.36069200794259
3.3872776199355 -8.417959914162596 11.76718989381553
3.15957520276682 -8.801084730346734 8.245778669309496
6.225234881107703 -6.844317901331279 9.505111257602515
0.06729339026843026 -9.490595497878289 6.469566577740183
4.498822381223283 -7.207988346121825 19.10079798050968
4.622402911697406 -6.790935505634941 22.68274959127746
1.757960720779967 -7.841424721595348 24.95413895105902
6.849709859911909 -5.337783558212319 16.7223878456603
5.904140912281708 -7.492841812703052 5.851541541251209
-3.050793713391298 -8.781062721009516 8.945995904873834
-6.116646202572226 -7.221548352776415 6.812656853484168
-8.055158744825514 -4.591510308533539 9.251785285137986
-6.545580748136914 -4.751008671065027 24.29350410010678
-4.667852549141981 -6.804820433073067 22.21127385879138
-4.990450515867202 -6.088928440907407 27.02971516035582
-5.009866416621358 -6.928000173594352 18.42886552034826
3.887057256308076 -7.873875828215138 15.4880144184278
-1.376499582989712 -8.032903743346255 23.50663961493181
6.801406113150922 -4.370029644841303 24.3409795774778
-1.872995032076171 -9.581891543768918 3.008385682612682
8.194398740955116 -4.330056573168379 9.299751418453717
4.951356356851649 -8.432065406975529 2.816636893398408
-7.516928796946875 -6.253997496895814 2.815957016737286
7.474930635991375 -6.307832340655112 2.785662420587135
-3.312246296589905 -8.952844635449786 5.769757269058936
1.772126503012484 -7.60767131421704 27.80951116676849
5.778788332090649 -6.866550179262013 13.02861614355803
6.792875897880162 -3.927502303515273 27.3621033905834
-6.699970091745742 -4.088801711986449 27.33015792015544
3.26167819732767 -9.004376581389844 5.375777190110845
-3.69402818858039 -7.14836730291057 24.82248911802106
-9.01308193670633 -3.847873277252704 2.540090421543881
8.856008490480335 -4.174650529284768 2.660195801307462
7.289324211959484 -5.965578300820298 7.379060029943601
5.846342492916161 -1.5 12.72527086624219
4.99375834063021 -1.5 20.3653825980357
-5.985276706905245 -1.5 9.311475652393687
-5.293743877536299 -1.5 16.61574234954144
-4.740289653529191 -1.5 24.12974386727642
0.5672522574295886 -1.5 3.203455450422999
2.019074101181371 -1.5 26.8152643200647
6.333047060043306 -1.5 5.523237486554239
-5.579789305216376 -1.5 4.009851331940046
-5.002134963239831 -1.5 20.36787776150845
-1.919108809199622 -1.5 18.23337331326922
-2.199707665877007 -1.5 14.48204071307608
1.200981011000433 -1.5 16.09758620731177
0.6218139613343361 -1.5 12.43582957099477
-1.776084354596115 -1.5 22.0875859772863
-5.609246068292164 -1.5 12.89859613162912
6.058179257434428 -1.5 9.048025812134426
2.842278913660166 -1.5 6.670165822304989
4.79793212737127 -1.5 16.69377136041267
4.827686266029502 -1.5 24.30531152851072
-2.603872496320906 -1.5 10.8753503924512
-1.721694837498065 -1.5 26.35803869066887
-3.18830533782964 -1.5 6.990920711422531
1.421848572094946 -1.5 19.64597231531832
4.104778269695899 -1.5 3.005973501929351
1.591708279564546 -1.5 23.23938196438722
0.3418933104204971 -1.5 9.145597078764389
4.889434650285811 -1.5 27.1770835884724
-4.88943465028581 -1.5 27.1770835884724
3.132914574792839 -1.5 10.68088392698083
-0.01287580974660862 -1.5 6.30815576908389
-2.835152242981269 -1.5 2.77851216331505
6.976603413728295 -1.5 2.638982252293884
3.086979512991467 -1.5 14.06041441144425
-6.750725995884194 -1.5 6.542103602014853
-1.064410691579912 -4.569474397630723 30
1.947164632340651 -4.166664284104712 30
-3.564918936074305 -4.349614574951898 30
-7.909487973314067 -4.907185768843192e-14 0
-10.25639961849221 -3.507512400705078 0
-10.25639961849225 3.507512400704967 0
-8.487246032801327 6.741619222895044 0
-8.487246032801263 -6.741619222895128 0
7.909487973314082 -7.885165086143733e-14 0
1.776356839400251e-15 0 0
3.954743986657032 0 0
-3.954743986657029 -1.110223024625157e-16 0
7.913893359863064 -3.245913943253347 43.78948121158254
9.193385683973643 -3.261669051937548 28.5275134817048
9.193385683973851 3.261669051936942 28.52751348170485
6.652617504236985 3.141241379777952 58.99554065229922
8.237262867764462 3.251401695295756 39.95162451164516
6.28168907922707 -3.217624949421028 62.79643657168234
-11.73128066296225 0.3658206351548721 3.341947424554161
-2.994492805538506 11.34508140865445 3.38466743266196
-2.879762434608137 -11.37192468062312 3.419408766471416
10.11646334979564 3.345788239617946 17.08501301298051
10.13994097335968 -3.269426385055376 17.10264947107312
-4.859360121525458 3.468038509654455 76.61865730217922
5.986966559112645 3.136159376705845 66.59774666370318
8.557207529299856 -3.25516565974323 36.14368486009381
5.61044116807096 -3.199497478681198 70.40984790038134
7.615447117221959 3.189694300003133 47.56614505689132
6.749975432508553 -3.630407535854907 55.08985028776149
10.33344225458509 -4.368711996773343 9.923708795559914
10.72924455023717 3.394787911756593 9.485175436666081
4.718238164040466 10.73561669153541 3.472744321307459
4.712243512000845 -10.74283313214679 3.419408766471715
-9.296268222620112 7.167457475359555 3.322311395245336
-9.257317901175359 -7.205259738421862 3.419408766471709
-4.722384685810231 -3.625614612545042 76.82610752708068
5.333912793146073 3.081567611235157 74.20311703908095
2.98274313054798 -5.166262648036096 76.67576704977438
10.11001643510303 -5.951236539755725 3.410773106832593
10.31700692552852 5.583284939902489 3.419408766471419
8.224603312786346 -3.26983533697319 40.01490958956582
8.576036544614709 3.204897166193261 36.14516673573713
8.887766519822764 3.228866409415029 32.32321695041099
7.410585290524829 6.122034762716206 30.33875528304161
6.586333022582346 -5.688889739330885 41.89159771829348
6.68820100219974 6.052552926309881 37.86094766485592
7.742597267633418 6.18905023901314 26.52772808920192
5.086946442228831 8.348194446680587 28.25912012127211
5.459654410362814 8.469639526293275 24.43611791152451
2.206695425183308 9.69916484578844 26.08552254940676
2.630155761199849 9.904236186407298 22.26740215358921
-0.8868602167735242 10.08532491749693 23.8337503359025
-1.308389073783467 9.736473727414245 27.64881363393975
-4.290920840617217 9.041619840686549 25.30896525825146
-4.697516866030663 8.497368974083324 29.10516246119266
-3.910546589958584 9.537080062312905 21.50296207870004
-6.892209923722413 7.516466808412511 22.89619038283309
-6.603526958176867 8.159946500521816 19.09483161848573
-8.913668742900441 5.345737635635566 20.40911992605664
-9.012107480335793 4.550419885740737 24.19564292048013
-10.12508596779599 1.878569283156958 21.62745071128618
-9.954917523043539 0.9702675863331377 25.38585495799854
-10.04605238809166 -1.823602752122734 22.74124694003984
-9.535617037955452 -2.723323714724678 26.4685649598273
-8.646924630144529 -5.278934265062245 23.74834092821211
-7.80209654770794 -5.996178660607893 27.44458287005535
-6.08094243643364 -8.014567475753418 24.64526756328501
-4.940947790061752 -8.431406489366868 28.30318533547853
-6.861225853368057 -6.643549676275252 31.12310196193313
-7.139278980816806 -7.49254563352149 20.97441825366862
-10.46268054109761 -0.9387340881937626 18.99947684068381
-3.53411787887224 10.00246004648367 17.68132832697252
-3.94527809739612 -9.498011764479655 21.79347499337701
-5.167652451113747 -9.223293224981894 18.14050279123036
-3.728744358894307 -8.722397581015896 31.94369469276258
-5.826296152080142 -7.200505397057791 34.78385374993156
-8.241921820373058 -4.379961193710156 33.88169862226466
-7.459340443229367 -5.112612881995013 37.56893051286348
-8.958943879100287 -1.710836583444428 36.58325567761882
-8.44271429166106 -2.582119074280889 40.29459713135989
-8.849031509267952 1.070299020100429 39.21740413320644
-8.617229372062209 0.1936188474746703 42.95454122565192
-7.84881715280161 3.779412329407767 41.78606371218864
-7.883275539180045 2.945653307677226 45.54367993095197
-8.295671475889934 -0.7088624289101382 46.68383601748943
-7.848582615437567 2.083565242172936 49.2945248014052
-7.871607973703336 -1.60264549583239 50.40425221447966
-7.732958398291283 1.20048135113565 53.040955023904
-7.323444861593991 -2.508430849609113 54.11409362245259
-7.526587044807004 0.2647435901841135 56.78095773474531
-6.2310632070273 -4.947699452321611 51.37754978153011
-6.434155195721141 4.620049426444385 51.82783209964787
-8.76965083544601 6.117323544611869 16.61403595664122
-5.25742739978446 -5.581487911274762 55.04715136430292
-5.992555912644155 6.049653226694621 44.27828421011857
-1.561069956064583 -10.39704256125759 18.88671514170989
-0.2196935096799385 -10.22650469825057 22.50441361864969
-5.729857203880819 6.695954222181959 40.49604595780226
-6.557061005639726 -5.799465541111054 41.24700145206562
5.953549333319203 -5.94102391375335 45.60589699030385
-2.883730968650453 -10.40760402821665 15.25090116299588
-6.333876196726998 -8.823617680683149 14.46482413698799
0.9175868314644764 -10.7072401421413 15.9274080618532
-3.178392574036632 -7.224004512353291 52.19326008167316
-1.8933003460804 -7.367312572188256 55.8221727361889
-4.16400837815129 -6.093652052127174 58.69650141740431
-3.04871517656711 8.067723467956929 42.88918567789707
-1.781179294387158 9.356255322149064 31.45686923712754
-2.45248862400848 -8.867967134811307 35.56664146154154
-0.01918543956834047 -9.43055347078324 32.64766569311364
-9.000117045228121 1.945347404130748 35.47626223734375
3.491901831095213 -7.86352495119228 43.15057619792356
-0.4359146808708436 -11.02267694552484 12.30858751177867
3.35461939575228 -10.45849732611466 12.91795948692068
4.605305552761977 -9.659922042801862 16.49851360019455
6.324133341199129 6.004780431494609 41.66640664528849
-2.693188489371694 8.506986918286282 39.09545289446297
-5.431478902031383 7.314280848637916 36.71565448169004
-4.434173675192789 -6.870396347519863 48.57511123596912
-0.5386359222491828 -7.303605643537937 59.4213196086008
-2.920316808545599 -6.466000142293761 62.32538206720927
-3.422345419778378 7.589980122376428 46.68414486250546
1.325837025255947 -9.05253624458406 36.22396251895316
3.68798310156968 -8.629740352153272 33.22983062494363
2.416102336556798 -9.356913092786304 29.6840102183764
0.5023755148684362 -7.820782657829989 52.89718397079524
4.708974893598946 8.222658972297435 32.07583169703594
5.839224704256721 8.580166071030574 20.6015606180429
0.005424565164569543 8.442719947920711 45.19950650279145
-0.4105988687255331 8.132980626056048 49.00352798859429
6.72795504025833 -8.630478284144836 13.42971213090384
-5.882086219335932 -4.082875467024121 61.49518239014504
-4.950412380381947 -4.76456605697332 65.17286893493815
-6.781041906457409 -1.503361225358711 64.22108418229843
-6.212007522612815 -2.382011811676975 67.93949543420082
-6.608540785001325 1.311875332815569 66.86647602501787
-3.78859074047539 -5.394541898420271 68.71511850111051
-6.700062864425609 2.142153037362991 63.09674931105766
-5.06174924270449 4.59402802553156 65.61902078559808
-4.769974458208361 5.304048113993391 61.83584927530294
-2.075751250840448 6.627465556320238 64.23076329420803
-2.478789186291978 6.165846677196002 68.03595563186684
-1.657656548521984 7.052380569178874 60.42337735373313
-1.127064595000917 -8.845915084115195 39.16781506803967
-9.074459176632292 3.697607001875685 27.96784400171379
3.031473787612909 10.10535650960644 18.4206466196157
6.214167172131771 8.68701026410689 16.76170864921733
3.435205070646822 10.29347058710379 14.59242139068507
6.588884869589507 8.788146426433146 12.91143272331685
3.835418926776172 10.47328610907618 10.75603128167054
0.3617966827999997 11.02145470757731 12.35816421749776
6.89347186624142 8.928307377681724 9.150592447847609
-6.429671525896054 0.3977892632139073 70.62153146172086
1.358332530254016 6.936142214669609 62.66833918772353
-4.488086265530751 5.92402322708659 58.0399382318063
-1.216354109171996 7.445276631047403 56.61907952953928
5.745224396011083 -9.640289205381146 9.880051805529927
3.864887577786523 8.0046505797274 39.53081411364172
3.013524488439732 -7.715611237606938 47.2259735587086
5.406115962832635 -6.045961418170158 49.42115224640713
0.942746345636029 11.28050814397504 8.642332451671976
-2.769055244049216 10.86279098353403 10.0357510560999
0.787496417341032 -6.996837199919389 63.00988845715089
-0.02018055812655542 -8.448269381746062 45.12871014782433
2.990831440052891 7.70932169014838 47.40504235598615
2.652406906242456 7.513734316312491 51.22947062364623
4.362349881615597 -7.997700073111103 36.7200927818467
5.8219785064814 -7.66322309522175 30.19057226144905
4.704916542255785 -8.711556909502999 26.671823664254
2.57872123714621 -6.801516525583703 60.05008756752957
8.07867237061779 -6.968169676195268 16.91626091994338
5.983485196866583 -8.53793837031537 20.00138779273294
8.509609223370754 -5.967447727299664 20.41310516772688
8.467166579655963 -7.346024957502112 10.0419298332542
7.659657476544917 -8.531528279886873 6.79166746211288
9.271377867456145 -5.766591768376965 13.74269959509314
-0.7595385117225937 -8.116519736358878 48.89371945822921
6.918174463998258 -7.422475686356035 23.54918417043955
8.909560712800658 -4.873113386906452 23.44076988639879
8.800977790831187 6.294188000835304 14.99237469517677
-2.243942831238456 8.94532280510238 35.29177761835788
-5.074083428193226 7.922160884197793 32.93685180218679
2.640833211110905 -8.466995775059509 39.77964823885651
2.46534641931117 -10.16972150249574 19.51316515621503
8.420879580324957 6.299048520869878 18.85421405294034
-0.8646394755394069 7.796505839982922 52.80312460943377
8.105706571229234 6.215646467874909 22.6864746551564
1.850181386716143 -7.326631028254306 56.45833830984077
4.102343598034314 -6.633446638232793 53.37270863770748
1.089848996102508 -9.884536057112332 26.1184064652063
-6.234333962710052 5.354855134728568 48.05032888830674
0.3007627556171227 8.735953853403201 41.40787358077701
3.376350816908443 7.876096915370884 43.59136566317127
1.833453399617936 7.128569485776686 58.9494925812544
2.19221519381282 7.345882581927788 55.06849047108347
5.24001304569749 5.7836447657794 53.31045856046779
3.639666413659991 -9.510729532850602 23.0823957911423
-8.934308244782542 -3.578832297408431 30.18431270307607
1.304405244999818 9.249774176845994 33.78204796236609
7.937387184503961 3.194011313031477 43.76114362604049
8.882697477734318 -3.226248884261449 32.39511024017794
7.008519245952842 -3.745247745127884 51.50511221496831
9.503663357957901 3.283552170839698 24.71463786267745
6.625926378208643 -3.1840791342087 59.06763763196672
0.8829027944350815 6.710377561410948 66.47617820873648
0.431133431678596 6.454428526126086 70.28041212838737
-2.997312400818579 5.600759043947748 71.76016420039501
0.1838073914228461 6.159271749533553 74.17864834713284
6.338459435609988 3.107601956751528 62.77795841995177
9.088375742478499 6.411275622456751 11.1536802201775
9.231201770540588 6.782410114513332 6.925354063184419
-7.773312153997236 4.543482029864095 38.0708976827774
10.44784547031242 3.293041440964305 13.28403161741805
7.631067776880936 -6.255314063448836 27.0994627699125
-7.168282884737469 6.827806794311156 26.68737763767962
5.963642096369647 -3.164950886875121 66.68927878045604
3.691677034972834 -5.493009064323476 68.38123830984426
3.113978555165671 -5.497625655697016 72.19300895411979
-0.02633266120821582 -6.513387885770509 69.7133404889365
-0.5810098435035775 -6.178972277285342 73.61684825812512
5.319749846458178 -3.095012034974712 74.27312088979566
-3.811064397982776 7.06556505070766 50.47091496960262
-4.164155706621239 6.512316215244975 54.25750353688656
-6.596384034129962 3.822482073405385 55.60378894455845
5.693634032963431 3.052618515126128 70.3880980036112
-10.22896550436032 2.758454817968946 17.86014306221474
-10.80074244130824 -0.01531153301384451 15.2378741705202
-10.06503878547823 -3.685960609992116 16.27999681716888
-10.6491465992536 -2.80876907952042 12.53679102466188
-11.0641109924014 0.8719181008416019 11.4557363540112
-11.11270354223656 -2.072281710078286 8.840081486884586
-9.82156984679485 -5.446448646847119 9.77578013640866
-11.32064881380241 1.556846575418544 7.278135763875532
-10.26648149236697 4.45861199444276 10.25582903003893
-9.38846346612636 -4.53380496573262 20.00129821335716
-10.29762823458689 3.548848337906223 14.07858696422299
-0.460235383658856 10.41421297193212 20.02018074904344
-7.819732309249829 -3.425602324579747 43.99965535806349
-5.696900670493325 -6.263610770775125 44.8929661207034
-7.084013939019176 -4.222061794711289 47.68942909318614
-4.697788189754965 -7.647881229482233 38.43012791739862
-2.718238359574902 -8.251176980408554 42.09070355542386
6.78744491564601 -6.429271502004231 33.68337439220053
-0.06004605662557474 10.72385994892513 16.2127607656608
-9.004342372706175 -6.207684178209591 13.50927743264542
-7.513420611165385 -8.25796046044578 10.61640962919094
-1.369060397286748 -9.613157969474122 29.09522473264869
-6.651809962343219 3.067899348441822 59.39894235598222
9.821072329952019 3.281096893946552 20.90598099357321
-9.36943501382282 -0.8701717161322687 32.91216834298179
-9.076641492082407 2.819058991576002 31.71034315666494
-8.104615918409623 -6.899905751838536 17.23035221169818
-6.641046220731655 -3.367077014091788 57.86594497657134
-7.203512125109337 -0.6646308732391273 60.5563972379355
-1.662070711830059 -6.603408752100234 65.9532388369053
1.752382367226666 9.485492271227269 29.91034562645465
-3.157323061909697 10.44190585635027 13.86491195816401
-6.009948753130162 9.325705659630968 11.50527379848959
-5.250083177299315 10.14111430754039 7.375622209881175
-6.335717907702814 8.740878643068092 15.3037640458004
-7.425256819183216 6.087275952800467 30.47545814177369
-7.63028131221509 5.318766265156641 34.29277167502997
-10.55763586080062 -4.615094799613457 6.070097129462571
2.978756127275285 5.159356955797906 76.77708640950702
7.04940219756367 6.090501955695967 34.10316066986687
-5.958054216420107 -0.1052451890827927 76.75839007294908
-5.780372976734945 -2.304957689197631 73.40393597779526
-2.687285818774689 -9.632942673919477 25.40282323704661
-4.211109395455421 -10.25347804994265 11.63189182516557
-1.840376645269258 -11.16670136081143 8.674006047561319
2.012728179357728 -11.08897597571682 9.273520992574589
0.9485457447817838 -11.51638797706085 5.649364507073459
-5.490683101014389 -10.0807021802889 6.619536193627482
-9.707909409386721 0.03246830296225262 29.12308243096657
5.596339051000432 5.857498331276819 49.53906392558852
3.866547902226375 -5.779363651182639 64.12179400331915
4.269271966756834 8.128583465867429 35.81201593650815
-8.648214188902566 6.777984115805781 12.86068358503038
8.032292777286417 8.550945690940361 3.407117329609986
7.544842141138526 -3.345370312515295 47.60696497449707
0.7022698793961919 11.71144705371016 3.39911617162844
-8.31269593119006 -7.876926255523499 6.96378968682377
-11.06366472285659 3.915923134359469 3.351495875172704
-6.529151241275238 9.752766280182454 3.347633604596195
0.7674599032527765 9.010304988669798 37.57313142462013
-5.31997683107099 3.802126998752928 69.38877624336268
-5.179735710733384 3.504551905129117 73.0108377008205
-10.01936709019048 5.596524002261212 6.65239261535927
-8.276419539642349 7.662527922103603 9.162517830756506
5.964749372808124 5.942336182059092 45.49334808991183
7.300514453267034 3.162118161433833 51.3850366125974
4.349777932842245 10.58154350099322 7.106572291166607
6.963136141158261 3.152403177525565 55.35473182185174
7.867106895594184 -8.729613433879312 3.157616564810868
-6.450569289439373 -9.821091579612066 3.175911023579762
4.519590661385685 5.625406317422444 60.78539176033016
11.08065882448961 -3.189415299241905 5.965045374239724
11.09987319675308 3.128692215598836 5.941614034472197
4.894895652288723 5.70239506623734 56.98556313691387
4.951543205236643 -5.651153866776831 57.0058481777624
4.181743243731966 5.520120200017203 64.48116474518233
3.763152947067699 5.443188697413346 68.39276271815594
-1.028912770623078 -5.835254290007242 77.18673141795152
9.943995216555424 -2.883158453922455 20.92034804807133
3.332308441598027 5.366550985591452 72.20970342847276
4.35518770018965 -10.60147140503684 6.846241459962802
9.764127095035445 -5.917127986366482 7.40621908121741
-11.17102799265548 -3.708616614122689 2.915516237776629
-1.368214014989726 11.39585868820341 6.636446558904068
-1.026372295734968 5.820846540961 77.37262334316128
-3.654681273777257 -5.015875896889105 73.61844991774463
6.952299412409076 -5.738972056320784 37.92799126908503
2.741000527487458 -7.543666084229788 50.491840833919
10.54625822188219 -2.937568507507081 13.37031217476109
0.3515131432113561 -8.688220608726155 41.98983185172869
0.9746345422669047 -11.76208972856607 2.510734475215751
-2.976152980702794 -7.835635800163439 45.9735113624431
-7.958434417127364 8.328772364485289 6.101886020616718
7.937063077022101 -5.41455821477414 30.39274782395696
1.466597763299599 -6.634462336854464 66.14049445893875
5.233287610856198 2.768252807570017 77.24930047901637
5.248593974836205 -2.731991800645705 77.29116814885538
-2.702429824911079 5.501825372352645 74.589246829328
-5.428112774614064 -3.463572621225097 70.6591822428832
11.42161303753389 -2.865258955235403 2.85224460448703
11.43396464721201 2.820216538592482 2.83810148489461
6.919074889860954 9.206468571664606 6.141856472646364
-11.40732724006851 -1.765485634071055 5.80497143133166
5.142843697352604 -7.245023608566302 39.58269981809052
-2.363526614569319 -5.94378075092928 71.19963993677224
5.095135256046669 -5.118540731780238 60.70797798326101
-6.153075377091734 0.7079345192994866 73.77645896943076
9.611005849926078 -2.619339105583233 25.90103167099565
1.942178575185269 11.36481392033485 5.977342051259296
8.051745683059584 4.591136962006225 9.291809363129794
7.437382861446498 4.474693664165629 16.77574217926859
2.887905700887345 9.107473900761969 5.662203449954019
7.019607762759467 4.022000428931504 24.26627481815688
3.0477295561443 8.440354700673042 13.03970448086909
7.569220907142832 6.160519960780086 3.057618686932529
3.038371686199244 7.81172098077698 20.5610926219757
7.26131808011861 4.194825204939402 20.50910025391386
7.793696473282826 4.452207342452613 13.01449520850115
2.86834027195759 8.191620968896901 16.78124451610072
3.140404257249663 8.719344812040807 9.305542369085201
6.198865354017823 7.150113489797358 6.822100304071115
2.793078664591854 7.589607559278029 24.30393547971059
5.043255801371329 6.055041102563941 26.93429048379041
5.901790924528028 6.972358308383336 10.99316807813019
8.458867414271667 4.401692981712393 5.900980224859148
4.964177224160543 8.422490386301435 2.838896081714473
5.69529314967503 6.759687366541777 14.75059818714865
5.46802780096855 6.563470371656075 18.51619583898703
5.301704642125675 6.314272690030402 22.30086358392034
6.793332655481766 3.92654635486183 27.36315795848414
2.673877455226845 7.378831081887427 27.33916695214084
8.940710631701901 3.999458928291617 2.611288485913275
2.473342893921887 9.472122900787022 2.671912881994636
-5.846342492916161 1.5 12.72527086624219
-4.99375834063021 1.5 20.3653825980357
5.985276706905244 1.5 9.311475652393685
5.293743877536299 1.5 16.61574234954144
4.740289653529189 1.5 24.12974386727642
-0.5672522574295868 1.5 3.203455450423001
-2.019074101181367 1.5 26.81526432006471
-6.333047060043306 1.5 5.523237486554241
5.579789305216384 1.5 4.009851331940046
5.002134963239831 1.5 20.36787776150845
1.919108809199622 1.5 18.23337331326922
2.199707665877007 1.5 14.48204071307608
-1.200981011000433 1.5 16.09758620731177
-0.6218139613343361 1.5 12.43582957099477
1.776084354596112 1.5 22.0875859772863
5.609246068292164 1.5 12.89859613162912
-6.058179257434425 1.5 9.048025812134426
-2.842278913660166 1.5 6.670165822304991
-4.797932127371272 1.5 16.69377136041267
-4.827686266029502 1.5 24.30531152851072
2.603872496320906 1.5 10.8753503924512
1.721694837498061 1.5 26.35803869066887
3.18830533782964 1.5 6.990920711422531
-1.421848572094948 1.5 19.64597231531831
-4.104778269695908 1.5 3.005973501929354
-1.591708279564548 1.5 23.23938196438722
-0.3418933104204971 1.5 9.145597078764389
-4.889434650285803 1.5 27.1770835884724
4.889434650285811 1.5 27.1770835884724
-3.132914574792839 1.5 10.68088392698083
0.01287580974660862 1.5 6.30815576908389
2.835152242981265 1.5 2.778512163315054
-6.976603413728302 1.5 2.638982252293892
-3.086979512991467 1.5 14.06041441144425
6.750725995884192 1.5 6.54210360201485
-8.051745683054746 4.591136962015106 9.291809363127301
-7.437382861446013 4.47469366416644 16.77574217926853
-3.21029204252156 9.005631050337254 5.581582483895348
-7.020758497524429 4.019699019249563 24.26812064930116
-3.203802386829451 8.379068283030358 13.07872561460345
-7.569220907142834 6.160519960780083 3.057618686932527
-3.195876083887063 7.747393164372535 20.57546639453446
-7.264709830749781 4.189006713918427 20.50873099318654
-7.793696473280742 4.452207342456265 13.01449520850113
-3.200092925761818 8.063917369987927 16.82712893244772
-3.207244923636279 8.692913481848622 9.330187864157706
-6.322900586583692 7.040250663640289 6.826030056782612
-3.191297436713574 7.429266221638618 24.32362017427157
-5.078314179272757 6.023952546009908 26.95095833267496
-5.95122058020413 6.932985134657349 10.96646966426246
-8.458867414269971 4.401692981716721 5.900980224852905
-5.073761498938437 8.355904925964898 2.850071656787585
-5.695293149669264 6.759687366546686 14.75059818714815
-5.488877788829701 6.546893719960264 18.50792236468437
-5.438648313203159 6.190396806913802 22.36114078686688
-6.793332836174167 3.926545976552471 27.36315837618891
-2.696479771179424 7.370583601152032 27.33937984812594
-8.912782646819618 4.04451421508335 2.699657302875987
-2.435416229225496 9.491544078944369 2.553778445663498
1.861466232561885 -0.6775183007441694 80
-1.796581528936375 0.6539021999652996 80
1.425965863507625 2.469845325454036 80
-0.4952327472266952 -2.808604475826126 80
1.064410691579905 4.569474397630723 30
-1.947164632340643 4.166664284104711 30
3.564918936074289 4.349614574951915 30
-0.03079719627768362 -0.02642728053409948 38.9798373932252
0.02110353020039479 0.006065952472051883 47.73646668154882
-0.01612236351252072 0.002538798684357468 55.59093911627198
0.01070317516897834 0.03572550036169986 62.92871740785684
0.01402492938118654 -0.001733722707145446 69.44587862245308
2.730841377820365 2.886965588304171 35.2293239669596
-2.201435300399365 -3.171763351946619 35.12235707804
3.365902727627417 -0.1375909149514261 43.33864631499318
-3.021096426453579 1.48381790298265 43.37048563037497
-2.706900116924026 2.851713867330147 35.22149824134484
3.21220769733061 -2.544549837683426 35.32610224030607
0.8318827254978354 -0.1826868042583922 74.75151890558408
-0.8538985000865447 -3.376604903205886 43.70825902752566
-2.998866459462708 -1.067103456761588 51.64899698296637
1.723026488022967 2.60557718858664 51.67302543249046
0.9783716340431721 3.878537060970941 41.79730841141134
1.993058623985143 -2.407287455931289 51.67205414422265
-2.426935628593803 -1.729801800419436 59.27660071192847
-4.617082437080819 -0.7327864585210953 38.31474544977082
2.868761581402355 0.4070036076837802 59.24757646977908
4.518498924812239 0.7337473828442743 38.89658767257895
0.492641108183544 -4.579970300268473 38.57639953467998
-1.124327107558476 2.671138977861136 59.15876876328424
-0.6643722160148258 4.116168345788864 46.1122739115174
-2.991257399073087 2.831229168520188 49.61496798525993
-3.968258960144183 -1.361154303647893 46.56050303987626
3.376922748554826 2.60145074610598 46.73076964895426
-2.771075379332135 3.604221872861848 39.54069944161439
3.302542591154305 -2.716351787578446 46.84790771277915
2.835121689258282 0.2166251127662426 66.18700669944593
-5.283630173667085 -0.379799661032368 34.09886672427602
-2.758246355696812 -0.4966150953131885 66.18575805299936
-2.977113288890321 2.485154515733572 53.91320398218035
1.503727450615236 -3.308829511017818 57.74683066567473
-1.379722649606686 -3.880752527964 48.85805150905953
0.0320629788082502 0.0699690434446667 33.87418022069728
0.8751921189770994 -5.643281726090492 33.97203251246067
3.815654775656882 -3.01798280677359 40.43431501072049
-0.7171728504338719 3.023033625949493 65.64719877216565
-4.417379368964957 -2.149490980987773 42.1385292949732
-1.043725315739746 -3.709145400519288 54.13108728492512
0.6495135135031015 5.004397444218996 37.94695263122223
5.357861222395702 0.3512783010440202 33.51443704954583
-0.00351882984958829 5.515653769228561 34.06776213316422
-3.894101778273226 -1.041086120619674 55.6022165871421
3.900915029690351 0.556606571372228 54.48813869943442
1.550481016433069 3.606721873308427 56.3357813572001
0.3844368844142656 -2.852402411870314 65.62342523963905

CELLS 3591 16369
1 0
1 1
1 2
1 3
1 4
1 5
1 6
1 7
1 8
1 9
1 10
1 11
2 0 12
2 12 13
2 13 14
2 14 15
2 15 16
2 16 17
2 17 18
2 18 1
2 0 19
2 19 20
2 20 21
2 21 22
2 22 1
2 2 23
2 23 24
2 24 25
2 25 26
2 26 27
2 27 28
2 28 29
2 29 0
2 2 30
2 30 31
2 31 32
2 32 33
2 33 34
2 34 3
2 1 35
2 35 36
2 36 37
2 37 38
2 38 39
2 39 40
2 40 41
2 41 3
2 2 42
2 42 43
2 43 44
2 44 3
2 4 45
2 45 46
2 46 47
2 47 48
2 48 49
2 49 50
2 50 51
2 51 52
2 52 53
2 53 54
2 54 55
2 55 56
2 56 57
2 57 58
2 58 59
2 59 60
2 60 61
2 61 62
2 62 4
2 5 63
2 63 64
2 64 65
2 65 6
2 5 66
2 66 67
2 67 68
2 68 69
2 69 7
2 6 70
2 70 71
2 71 72
2 72 7
2 8 73
2 73 74
2 74 75
2 75 76
2 76 77
2 77 78
2 78 79
2 79 80
2 80 8
2 4 81
2 81 82
2 82 83
2 83 84
2 84 85
2 85 86
2 86 87
2 87 88
2 88 89
2 89 90
2 90 91
2 91 92
2 92 93
2 93 94
2 94 95
2 95 96
2 96 97
2 97 98
2 98 99
2 99 100
2 100 8
2 9 101
2 101 102
2 102 103
2 103 104
2 104 105
2 105 106
2 106 107
2 107 5
2 9 108
2 108 109
2 109 10
2 6 110
2 110 111
2 111 112
2 112 113
2 113 114
2 114 115
2 115 116
2 116 10
2 7 117
2 117 118
2 118 119
2 119 120
2 120 121
2 121 122
2 122 123
2 123 11
2 9 124
2 124 125
2 125 126
2 126 11
2 10 127
2 127 128
2 128 11
3 12 180 0
3 0 180 29
3 1 181 18
3 35 181 1
3 23 177 2
3 2 177 30
3 34 176 3
3 3 176 41
3 13 171 12
3 171 180 12
3 14 134 13
3 134 171 13
3 15 168 14
3 14 168 134
3 16 133 15
3 133 168 15
3 17 170 16
3 16 170 133
3 18 172 17
3 17 172 170
3 18 181 172
3 24 161 23
3 161 177 23
3 25 131 24
3 131 161 24
3 26 139 25
3 25 139 131
3 27 130 26
3 130 139 26
3 28 160 27
3 27 160 130
3 29 138 28
3 138 160 28
3 29 180 138
3 30 163 31
3 30 177 163
3 31 135 32
3 31 163 135
3 32 174 33
3 135 174 32
3 33 137 34
3 33 174 137
3 137 176 34
3 36 136 35
3 136 181 35
3 37 169 36
3 36 169 136
3 38 132 37
3 132 169 37
3 39 156 38
3 38 156 132
3 40 129 39
3 129 156 39
3 41 167 40
3 40 167 129
3 41 176 167
3 129 154 153
3 153 156 129
3 129 167 154
3 130 140 139
3 130 141 140
3 130 160 141
3 139 164 131
3 131 162 161
3 131 164 162
3 151 169 132
3 132 175 151
3 156 175 132
3 152 168 133
3 133 178 152
3 170 178 133
3 159 171 134
3 134 173 159
3 168 173 134
3 135 166 155
3 155 174 135
3 163 179 135
3 135 179 166
3 157 172 136
3 136 182 157
3 169 182 136
3 172 181 136
3 137 155 154
3 154 167 137
3 137 174 155
3 167 176 137
3 159 160 138
3 138 171 159
3 138 180 171
3 140 164 139
3 141 142 140
3 142 143 140
3 143 164 140
3 141 158 142
3 141 159 158
3 141 160 159
3 142 144 143
3 142 145 144
3 142 158 145
3 144 146 143
3 146 147 143
3 147 164 143
3 145 149 144
3 144 165 146
3 149 165 144
3 145 150 149
3 145 152 150
3 145 158 152
3 146 148 147
3 146 153 148
3 146 165 153
3 148 166 147
3 162 164 147
3 147 166 162
3 153 154 148
3 154 155 148
3 155 166 148
3 150 151 149
3 151 175 149
3 149 175 165
3 150 157 151
3 152 178 150
3 150 178 157
3 157 182 151
3 151 182 169
3 158 173 152
3 152 173 168
3 153 165 156
3 165 175 156
3 170 172 157
3 157 178 170
3 159 173 158
3 162 179 161
3 163 177 161
3 161 179 163
3 166 179 162
3 29 19 0
3 22 215 1
3 1 215 35
3 2 211 23
3 42 211 2
3 41 210 3
3 3 210 44
3 19 214 20
3 29 191 19
3 191 214 19
3 20 188 21
3 20 214 188
3 21 207 22
3 188 207 21
3 207 215 22
3 23 187 24
3 23 211 187
3 24 192 25
3 187 192 24
3 25 186 26
3 25 192 186
3 26 198 27
3 186 198 26
3 27 185 28
3 27 198 185
3 28 217 29
3 185 217 28
3 29 217 191
3 35 190 36
3 35 215 190
3 36 199 37
3 190 199 36
3 37 183 38
3 37 199 183
3 38 201 39
3 183 201 38
3 39 184 40
3 39 201 184
3 40 202 41
3 184 202 40
3 202 210 41
3 43 204 42
3 204 211 42
3 44 189 43
3 189 204 43
3 44 210 189
3 199 212 183
3 183 216 201
3 212 216 183
3 201 206 184
3 184 208 202
3 206 208 184
3 198 203 185
3 203 205 185
3 205 217 185
3 192 193 186
3 193 194 186
3 194 198 186
3 187 197 192
3 187 204 197
3 187 211 204
3 200 207 188
3 188 213 200
3 188 214 213
3 202 208 189
3 189 210 202
3 189 208 204
3 190 200 199
3 190 207 200
3 190 215 207
3 205 214 191
3 191 217 205
3 192 197 193
3 193 195 194
3 193 206 195
3 197 206 193
3 195 196 194
3 196 203 194
3 194 203 198
3 195 216 196
3 195 206 201
3 201 216 195
3 196 209 203
3 196 212 209
3 196 216 212
3 204 208 197
3 197 208 206
3 200 212 199
3 209 212 200
3 200 213 209
3 203 209 205
3 209 213 205
3 213 214 205
3 42 2 30
3 34 3 44
3 31 220 30
3 30 220 42
3 32 218 31
3 218 220 31
3 33 219 32
3 32 219 218
3 34 219 33
3 44 219 34
3 42 218 43
3 42 220 218
3 43 219 44
3 218 219 43
3 7 0 54
3 7 221 0
3 12 222 0
3 0 221 19
3 0 222 54
3 4 1 5
3 62 1 4
3 1 226 5
3 18 1 62
3 22 226 1
3 45 4 5
3 5 63 45
3 5 226 66
3 49 48 6
3 6 48 65
3 70 49 6
3 54 53 7
3 53 223 7
3 69 221 7
3 7 223 72
3 13 225 12
3 55 222 12
3 12 225 55
3 13 14 57
3 56 13 57
3 56 225 13
3 14 15 58
3 57 14 58
3 59 15 16
3 58 15 59
3 17 60 16
3 16 60 59
3 18 61 17
3 17 61 60
3 62 61 18
3 19 229 20
3 19 221 69
3 69 229 19
3 20 227 21
3 68 227 20
3 20 229 68
3 21 228 22
3 21 227 67
3 67 228 21
3 66 226 22
3 22 228 66
3 45 63 46
3 47 46 64
3 46 63 64
3 48 47 65
3 65 47 64
3 50 49 70
3 50 71 51
3 70 71 50
3 51 224 52
3 71 224 51
3 52 223 53
3 72 223 52
3 52 224 72
3 54 222 55
3 55 225 56
3 66 228 67
3 67 227 68
3 68 229 69
3 72 224 71
3 45 543 4
3 4 542 62
3 81 542 4
3 4 543 81
3 8 538 73
3 80 539 8
3 100 538 8
3 8 539 100
3 46 257 45
3 257 543 45
3 47 496 46
3 46 496 257
3 48 249 47
3 249 496 47
3 49 498 48
3 48 498 249
3 50 237 49
3 237 498 49
3 51 501 50
3 50 501 237
3 52 251 51
3 251 501 51
3 53 500 52
3 52 500 251
3 54 236 53
3 236 500 53
3 55 525 54
3 54 525 236
3 56 252 55
3 252 525 55
3 57 512 56
3 56 512 252
3 58 238 57
3 238 512 57
3 59 533 58
3 58 533 238
3 60 250 59
3 250 533 59
3 61 511 60
3 60 511 250
3 62 256 61
3 256 511 61
3 62 542 256
3 73 481 74
3 73 538 481
3 74 527 75
3 481 527 74
3 75 241 76
3 75 527 241
3 76 483 77
3 241 483 76
3 77 253 78
3 77 483 253
3 78 520 79
3 253 520 78
3 79 255 80
3 79 520 255
3 255 539 80
3 82 514 81
3 81 515 82
3 514 542 81
3 81 543 515
3 83 247 82
3 82 248 83
3 247 514 82
3 82 515 248
3 83 430 84
3 84 531 83
3 83 531 247
3 248 430 83
3 84 239 85
3 85 240 84
3 84 430 239
3 240 531 84
3 85 466 86
3 86 521 85
3 239 466 85
3 85 521 240
3 86 420 87
3 87 550 86
3 396 521 86
3 86 550 396
3 86 466 420
3 88 231 87
3 87 232 88
3 231 550 87
3 87 420 232
3 88 260 89
3 89 418 88
3 88 418 231
3 232 260 88
3 90 243 89
3 89 259 90
3 243 418 89
3 89 260 259
3 90 234 91
3 91 258 90
3 90 259 234
3 90 258 243
3 92 230 91
3 91 417 92
3 230 258 91
3 234 417 91
3 92 245 93
3 93 497 92
3 92 497 230
3 92 417 245
3 94 419 93
3 93 508 94
3 245 508 93
3 419 497 93
3 95 246 94
3 94 510 95
3 246 419 94
3 508 510 94
3 95 233 96
3 96 421 95
3 95 510 233
3 95 421 246
3 97 235 96
3 96 426 97
3 233 426 96
3 235 421 96
3 97 242 98
3 98 433 97
3 97 433 235
3 97 426 242
3 99 244 98
3 98 442 99
3 242 442 98
3 244 433 98
3 99 254 100
3 100 438 99
3 99 438 244
3 99 442 254
3 254 538 100
3 100 539 438
3 230 262 258
3 230 317 262
3 230 497 317
3 418 536 231
3 231 536 431
3 431 550 231
3 232 261 260
3 232 264 261
3 232 420 264
3 233 513 426
3 510 516 233
3 233 516 513
3 259 263 234
3 263 333 234
3 333 417 234
3 235 548 421
3 433 493 235
3 493 548 235
3 450 500 236
3 236 545 450
3 525 545 236
3 237 501 476
3 476 526 237
3 237 526 498
3 238 489 487
3 487 490 238
3 238 533 489
3 490 512 238
3 397 402 239
3 239 430 397
3 402 466 239
3 240 390 388
3 388 393 240
3 240 521 390
3 393 531 240
3 241 549 483
3 241 540 504
3 504 549 241
3 527 540 241
3 426 518 242
3 242 519 442
3 518 519 242
3 258 529 243
3 243 460 418
3 243 529 460
3 244 434 433
3 244 435 434
3 244 438 435
3 417 507 245
3 245 507 492
3 492 508 245
3 406 419 246
3 246 517 406
3 421 517 246
3 247 393 391
3 391 524 247
3 247 531 393
3 247 524 514
3 248 428 427
3 427 430 248
3 248 515 428
3 249 544 496
3 498 551 249
3 509 544 249
3 249 551 509
3 250 511 392
3 392 523 250
3 250 523 489
3 489 533 250
3 500 505 251
3 251 535 501
3 505 535 251
3 252 499 480
3 480 525 252
3 252 512 499
3 483 484 253
3 484 528 253
3 253 528 520
3 442 522 254
3 254 522 481
3 481 538 254
3 255 437 435
3 435 438 255
3 255 520 437
3 438 539 255
3 392 511 256
3 256 524 392
3 514 524 256
3 256 542 514
3 257 496 428
3 428 515 257
3 515 543 257
3 262 529 258
3 260 482 259
3 259 482 263
3 261 482 260
3 264 265 261
3 265 344 261
3 344 482 261
3 317 329 262
3 329 546 262
3 262 546 529
3 263 375 333
3 263 494 375
3 482 494 263
3 264 266 265
3 264 404 266
3 264 420 404
3 266 267 265
3 267 473 265
3 265 473 344
3 266 268 267
3 266 345 268
3 266 404 345
3 268 269 267
3 269 270 267
3 270 473 267
3 268 454 269
3 345 363 268
3 363 454 268
3 269 271 270
3 269 273 271
3 269 454 273
3 271 272 270
3 272 325 270
3 325 473 270
3 271 432 272
3 273 274 271
3 274 432 271
3 272 399 325
3 272 478 399
3 432 478 272
3 273 275 274
3 273 289 275
3 273 454 289
3 275 276 274
3 276 277 274
3 277 432 274
3 275 310 276
3 289 477 275
3 275 477 310
3 276 278 277
3 276 443 278
3 310 443 276
3 278 279 277
3 279 362 277
3 362 432 277
3 278 280 279
3 278 288 280
3 278 443 288
3 280 281 279
3 281 491 279
3 279 491 362
3 280 282 281
3 280 452 282
3 288 452 280
3 282 283 281
3 283 415 281
3 415 491 281
3 282 284 283
3 282 287 284
3 282 452 287
3 284 285 283
3 285 286 283
3 286 415 283
3 284 485 285
3 287 290 284
3 290 485 284
3 285 292 286
3 285 464 292
3 285 485 464
3 292 293 286
3 293 294 286
3 294 415 286
3 287 291 290
3 287 469 291
3 452 469 287
3 443 444 288
3 444 445 288
3 445 452 288
3 454 461 289
3 461 474 289
3 474 477 289
3 291 313 290
3 313 314 290
3 314 485 290
3 291 318 313
3 291 319 318
3 291 469 319
3 292 326 293
3 292 327 326
3 292 464 327
3 293 295 294
3 293 458 295
3 326 458 293
3 295 296 294
3 296 467 294
3 294 467 415
3 295 297 296
3 295 316 297
3 295 458 316
3 297 298 296
3 298 328 296
3 328 467 296
3 297 299 298
3 297 455 299
3 316 455 297
3 299 300 298
3 300 429 298
3 298 429 328
3 299 301 300
3 299 302 301
3 299 455 302
3 301 312 300
3 312 315 300
3 315 429 300
3 302 303 301
3 303 408 301
3 301 408 312
3 302 304 303
3 302 457 304
3 455 457 302
3 304 305 303
3 305 309 303
3 309 408 303
3 304 306 305
3 304 308 306
3 304 457 308
3 306 307 305
3 307 441 305
3 305 441 309
3 306 470 307
3 308 311 306
3 311 470 306
3 307 465 441
3 307 471 465
3 470 471 307
3 308 321 311
3 308 336 321
3 308 457 336
3 309 439 408
3 309 440 439
3 309 441 440
3 310 453 443
3 310 495 453
3 477 495 310
3 321 322 311
3 322 323 311
3 323 470 311
3 312 324 315
3 312 339 324
3 312 408 339
3 313 401 314
3 318 320 313
3 320 401 313
3 401 414 314
3 314 414 407
3 407 485 314
3 324 334 315
3 334 335 315
3 335 429 315
3 316 456 455
3 316 459 456
3 458 459 316
3 317 376 329
3 317 377 376
3 317 497 377
3 319 486 318
3 318 330 320
3 318 486 330
3 462 463 319
3 319 469 462
3 463 486 319
3 330 331 320
3 331 332 320
3 332 401 320
3 321 343 322
3 336 394 321
3 321 394 343
3 322 337 323
3 322 405 337
3 343 405 322
3 337 338 323
3 338 349 323
3 349 470 323
3 324 409 334
3 339 346 324
3 346 409 324
3 325 399 398
3 398 416 325
3 416 473 325
3 327 340 326
3 340 361 326
3 361 458 326
3 327 341 340
3 327 342 341
3 327 464 342
3 429 479 328
3 328 468 467
3 328 479 468
3 376 381 329
3 381 532 329
3 329 532 400
3 400 546 329
3 330 488 331
3 486 487 330
3 487 488 330
3 331 348 332
3 331 374 348
3 331 488 374
3 348 388 332
3 388 389 332
3 389 401 332
3 375 410 333
3 410 507 333
3 333 507 417
3 334 398 335
3 334 502 398
3 409 502 334
3 398 399 335
3 399 479 335
3 335 479 429
3 336 534 394
3 336 457 456
3 456 534 336
3 337 380 338
3 337 387 380
3 337 405 387
3 338 350 349
3 338 472 350
3 380 472 338
3 339 347 346
3 339 439 347
3 408 439 339
3 341 384 340
3 340 400 361
3 384 400 340
3 342 385 341
3 341 460 384
3 385 460 341
3 342 386 385
3 342 407 386
3 342 464 407
3 394 530 343
3 343 406 405
3 343 530 406
3 344 473 416
3 416 494 344
3 344 494 482
3 345 364 363
3 345 402 364
3 345 404 402
3 347 382 346
3 382 410 346
3 346 410 409
3 347 383 382
3 347 403 383
3 347 439 403
3 374 391 348
3 348 393 388
3 391 393 348
3 350 351 349
3 351 471 349
3 349 471 470
3 350 352 351
3 350 354 352
3 350 472 354
3 352 353 351
3 353 355 351
3 355 471 351
3 352 370 353
3 354 541 352
3 352 541 370
3 353 356 355
3 353 503 356
3 370 503 353
3 354 472 436
3 436 547 354
3 354 547 541
3 356 357 355
3 357 465 355
3 465 471 355
3 356 358 357
3 356 359 358
3 356 503 359
3 358 360 357
3 360 372 357
3 372 465 357
3 359 422 358
3 358 371 360
3 358 422 371
3 359 423 422
3 359 424 423
3 359 503 424
3 371 411 360
3 360 373 372
3 360 411 373
3 400 532 361
3 361 459 458
3 361 532 459
3 362 478 432
3 468 478 362
3 362 491 468
3 364 365 363
3 365 461 363
3 363 461 454
3 364 366 365
3 364 397 366
3 364 402 397
3 366 367 365
3 367 368 365
3 368 461 365
3 366 369 367
3 366 427 369
3 397 427 366
3 367 378 368
3 369 509 367
3 367 509 378
3 378 379 368
3 379 474 368
3 368 474 461
3 427 428 369
3 428 544 369
3 369 544 509
3 370 541 484
3 484 549 370
3 370 504 503
3 370 549 504
3 371 513 411
3 422 518 371
3 371 518 513
3 373 440 372
3 440 441 372
3 441 465 372
3 373 412 403
3 403 440 373
3 411 412 373
3 374 392 391
3 374 523 392
3 488 523 374
3 409 410 375
3 375 502 409
3 494 502 375
3 377 530 376
3 376 394 381
3 376 530 394
3 377 419 406
3 406 530 377
3 377 497 419
3 378 526 379
3 509 551 378
3 378 551 526
3 379 475 474
3 379 476 475
3 379 526 476
3 387 493 380
3 380 537 472
3 493 537 380
3 394 534 381
3 459 532 381
3 381 534 459
3 383 492 382
3 382 507 410
3 492 507 382
3 403 412 383
3 412 413 383
3 413 492 383
3 384 546 400
3 460 529 384
3 529 546 384
3 386 431 385
3 431 536 385
3 385 536 460
3 386 414 395
3 395 431 386
3 407 414 386
3 405 517 387
3 387 548 493
3 517 548 387
3 388 390 389
3 390 395 389
3 395 414 389
3 389 414 401
3 390 396 395
3 390 521 396
3 392 524 391
3 396 431 395
3 396 550 431
3 397 430 427
3 398 502 416
3 478 479 399
3 404 466 402
3 439 440 403
3 420 466 404
3 406 517 405
3 464 485 407
3 411 516 412
3 513 516 411
3 412 516 413
3 413 508 492
3 413 510 508
3 413 516 510
3 467 491 415
3 416 502 494
3 460 536 418
3 421 548 517
3 423 519 422
3 422 519 518
3 424 425 423
3 425 522 423
3 423 522 519
3 424 540 425
3 503 504 424
3 504 540 424
3 481 522 425
3 425 527 481
3 425 540 527
3 513 518 426
3 496 544 428
3 434 493 433
3 435 436 434
3 436 537 434
3 434 537 493
3 435 437 436
3 437 547 436
3 472 537 436
3 520 528 437
3 528 547 437
3 519 522 442
3 443 453 444
3 444 446 445
3 444 447 446
3 444 453 447
3 446 462 445
3 445 469 452
3 462 469 445
3 447 448 446
3 448 449 446
3 449 462 446
3 447 450 448
3 447 451 450
3 447 453 451
3 448 480 449
3 450 545 448
3 448 545 480
3 449 463 462
3 449 499 463
3 480 499 449
3 451 505 450
3 450 505 500
3 453 495 451
3 495 506 451
3 451 506 505
3 456 457 455
3 459 534 456
3 463 490 486
3 463 499 490
3 468 491 467
3 468 479 478
3 475 477 474
3 476 506 475
3 475 495 477
3 475 506 495
3 501 535 476
3 476 535 506
3 480 545 525
3 483 549 484
3 484 541 528
3 486 490 487
3 487 489 488
3 489 523 488
3 499 512 490
3 526 551 498
3 506 535 505
3 541 547 528
3 63 5 574
3 5 107 574
3 6 65 575
3 110 6 575
3 101 9 572
3 9 108 572
3 109 10 573
3 10 116 573
3 64 63 557
3 557 63 574
3 65 64 568
3 64 557 568
3 65 568 575
3 102 101 555
3 555 101 572
3 103 102 559
3 102 555 559
3 104 103 553
3 553 103 559
3 105 104 560
3 104 553 560
3 106 105 552
3 552 105 560
3 107 106 567
3 106 552 567
3 107 567 574
3 108 109 565
3 108 565 572
3 565 109 573
3 111 110 554
3 554 110 575
3 112 111 562
3 111 554 562
3 113 112 556
3 556 112 562
3 114 113 561
3 113 556 561
3 115 114 558
3 558 114 561
3 116 115 564
3 115 558 564
3 116 564 573
3 552 560 566
3 563 552 566
3 552 563 567
3 553 559 570
3 560 553 569
3 569 553 570
3 562 554 563
3 563 554 568
3 568 554 575
3 559 555 571
3 555 565 571
3 565 555 572
3 561 556 569
3 556 562 566
3 556 566 569
3 563 557 567
3 557 563 568
3 567 557 574
3 558 561 570
3 564 558 571
3 558 570 571
3 570 559 571
3 566 560 569
3 561 569 570
3 562 563 566
3 565 564 571
3 564 565 573
3 107 5 66
3 69 7 608
3 7 117 608
3 9 101 604
3 124 9 604
3 123 11 603
3 11 126 603
3 66 67 607
3 107 66 584
3 584 66 607
3 67 68 581
3 67 581 607
3 68 69 600
3 581 68 600
3 600 69 608
3 101 102 580
3 101 580 604
3 102 103 585
3 580 102 585
3 103 104 579
3 103 579 585
3 104 105 591
3 579 104 591
3 105 106 578
3 105 578 591
3 106 107 610
3 578 106 610
3 107 584 610
3 117 118 583
3 117 583 608
3 118 119 592
3 583 118 592
3 119 120 576
3 119 576 592
3 120 121 594
3 576 120 594
3 121 122 577
3 121 577 594
3 122 123 595
3 577 122 595
3 595 123 603
3 125 124 597
3 597 124 604
3 126 125 582
3 582 125 597
3 126 582 603
3 592 576 605
3 576 594 609
3 605 576 609
3 594 577 599
3 577 595 601
3 599 577 601
3 591 578 596
3 596 578 598
3 598 578 610
3 585 579 586
3 586 579 587
3 587 579 591
3 580 585 590
3 580 590 597
3 580 597 604
3 593 581 600
3 581 593 606
3 581 606 607
3 595 582 601
3 582 595 603
3 582 597 601
3 583 592 593
3 583 593 600
3 583 600 608
3 598 584 607
3 584 598 610
3 585 586 590
3 586 587 588
3 586 588 599
3 590 586 599
3 588 587 589
3 589 587 596
3 587 591 596
3 588 589 609
3 588 594 599
3 594 588 609
3 589 596 602
3 589 602 605
3 589 605 609
3 597 590 601
3 590 599 601
3 593 592 605
3 602 593 605
3 593 602 606
3 596 598 602
3 602 598 606
3 606 598 607
3 70 6 634
3 6 110 634
3 7 72 633
3 117 7 633
3 116 10 632
3 10 127 632
3 11 123 631
3 128 11 631
3 71 70 627
3 627 70 634
3 72 71 616
3 616 71 627
3 72 616 633
3 110 111 613
3 110 613 634
3 111 112 621
3 613 111 621
3 112 113 615
3 112 615 621
3 113 114 620
3 615 113 620
3 114 115 617
3 114 617 620
3 115 116 623
3 617 115 623
3 623 116 632
3 118 117 626
3 626 117 633
3 119 118 611
3 611 118 626
3 120 119 619
3 119 611 619
3 121 120 612
3 612 120 619
3 122 121 618
3 121 612 618
3 123 122 614
3 614 122 618
3 123 614 631
3 127 128 624
3 127 624 632
3 624 128 631
3 619 611 625
3 611 622 625
3 622 611 626
3 618 612 629
3 612 619 628
3 612 628 629
3 613 621 622
3 613 622 627
3 613 627 634
3 614 618 630
3 624 614 630
3 614 624 631
3 615 620 628
3 621 615 625
3 625 615 628
3 616 622 626
3 622 616 627
3 616 626 633
3 620 617 629
3 617 623 630
3 629 617 630
3 618 629 630
3 619 625 628
3 628 620 629
3 622 621 625
3 623 624 630
3 624 623 632
3 73 637 8
3 8 635 80
3 8 637 635
3 74 637 73
3 75 637 74
3 76 636 75
3 636 637 75
3 77 636 76
3 78 638 77
3 77 638 636
3 79 638 78
3 80 638 79
3 635 638 80
3 635 637 636
3 636 638 635
3 124 108 9
3 10 109 639
3 127 10 640
3 10 639 640
3 11 128 126
3 109 108 641
3 108 124 641
3 639 109 641
3 124 125 639
3 124 639 641
3 125 126 640
3 639 125 640
3 126 128 640
3 128 127 640
4 424 646 425 653
4 484 646 549 653
4 380 659 645 675
4 235 548 645 661
4 548 387 645 675
4 371 513 645 664
4 548 645 661 675
4 504 424 540 653
4 504 646 424 653
4 350 645 338 659
4 513 661 645 664
4 350 338 349 659
4 549 646 504 653
4 513 426 645 661
4 380 338 645 659
4 424 425 540 653
4 380 645 387 675
4 380 493 645 689
4 380 645 338 689
4 424 423 425 646
4 426 518 513 645
4 338 645 350 689
4 518 371 513 645
4 645 659 355 664
4 99 442 646 653
4 93 658 656 668
4 458 663 660 681
4 30 293 220 648
4 645 673 350 689
4 493 235 548 645
4 528 646 484 653
4 93 658 668 670
4 357 645 355 664
4 458 648 660 663
4 99 646 244 653
4 220 30 648 672
4 235 97 661 671
4 235 661 645 671
4 355 645 357 680
4 425 646 522 653
4 235 97 96 661
4 99 254 442 653
4 351 471 355 659
4 549 484 370 646
4 263 662 333 683
4 380 337 659 675
4 97 426 661 671
4 547 646 528 653
4 351 349 659 673
4 333 649 417 668
4 522 425 423 646
4 380 337 338 659
4 465 355 659 664
4 541 484 528 646
4 97 426 96 661
4 333 662 657 683
4 426 518 645 671
4 344 641 647 685
4 333 657 649 668
4 371 645 518 680
4 549 370 504 646
4 344 641 482 647
4 522 646 442 653
4 218 220 31 648
4 375 263 333 683
4 438 99 244 653
4 645 661 426 671
4 235 645 493 689
4 108 482 641 647
4 541 370 484 646
4 465 355 471 659
4 645 664 357 680
4 656 658 93 687
4 244 646 435 653
4 656 658 643 668
4 408 301 650 666
4 99 442 98 646
4 643 668 658 670
4 235 671 645 689
4 99 98 244 646
4 437 646 547 653
4 108 647 641 684
4 93 656 508 668
4 650 666 301 667
4 507 333 417 668
4 333 417 649 662
4 333 649 657 662
4 355 673 645 680
4 483 484 549 653
4 371 664 645 680
4 541 528 547 646
4 522 442 254 653
4 375 333 657 683
4 654 670 329 679
4 408 650 665 666
4 241 504 540 653
4 344 109 641 685
4 300 650 299 660
4 508 656 93 687
4 507 657 333 668
4 253 484 483 653
4 329 532 654 663
4 441 674 664 686
4 441 664 465 686
4 347 665 656 666
4 31 648 292 678
4 295 458 648 660
4 649 650 643 665
4 503 424 504 646
4 347 656 403 666
4 458 459 663 681
4 647 662 263 683
4 503 504 370 646
4 408 650 312 665
4 299 660 650 681
4 30 294 293 648
4 298 300 299 660
4 350 349 351 673
4 438 244 435 653
4 371 358 664 680
4 645 671 518 680
4 294 648 30 672
4 503 359 424 646
4 650 660 300 669
4 329 670 317 679
4 301 312 408 650
4 328 651 429 660
4 547 437 436 646
4 359 423 424 646
4 649 657 650 665
4 253 483 636 653
4 649 650 642 654
4 549 241 483 653
4 333 234 417 662
4 241 549 504 653
4 423 519 646 680
4 358 357 664 680
4 437 547 528 653
4 437 435 646 653
4 643 650 649 654
4 654 663 459 681
4 128 651 479 672
4 329 663 654 679
4 503 359 646 680
4 360 371 358 664
4 303 301 666 667
4 442 646 519 671
4 98 646 442 671
4 651 660 328 672
4 244 646 98 671
4 403 666 656 674
4 465 357 355 664
4 650 657 324 665
4 356 355 357 680
4 465 664 659 686
4 540 527 241 653
4 376 670 654 676
4 403 674 656 688
4 218 648 31 678
4 660 663 642 681
4 324 657 650 669
4 423 646 359 680
4 642 650 649 657
4 128 126 651 672
4 383 492 656 668
4 636 483 241 653
4 230 317 670 679
4 244 434 646 671
4 230 670 649 679
4 326 292 648 678
4 376 329 654 670
4 383 382 492 668
4 398 335 651 683
4 482 647 108 684
4 436 354 646 689
4 376 654 381 676
4 479 468 128 672
4 519 671 646 680
4 312 650 324 665
4 442 522 519 646
4 370 646 541 673
4 303 655 304 667
4 303 666 655 667
4 294 295 648 672
4 316 458 660 681
4 649 670 654 679
4 503 646 370 673
4 503 646 673 680
4 437 435 436 646
4 372 664 441 674
4 298 300 660 669
4 441 372 465 664
4 354 541 547 646
4 324 650 312 669
4 292 293 326 648
4 398 334 335 683
4 528 484 253 653
4 661 664 513 688
4 371 411 513 664
4 429 660 651 669
4 540 425 527 653
4 335 669 651 683
4 522 423 519 646
4 380 387 337 675
4 295 660 648 672
4 347 403 439 666
4 351 349 471 659
4 334 669 335 683
4 33 460 219 678
4 128 468 11 672
4 329 400 532 663
4 354 541 646 673
4 347 383 403 656
4 354 673 646 689
4 417 91 649 662
4 354 547 436 646
4 376 329 381 654
4 649 665 643 668
4 458 326 648 663
4 244 434 435 646
4 259 263 647 662
4 646 671 434 689
4 411 513 664 688
4 434 436 646 689
4 654 642 663 681
4 355 356 673 680
4 295 316 458 660
4 293 294 295 648
4 527 636 241 653
4 298 429 300 669
4 360 358 357 664
4 220 648 42 672
4 403 373 674 688
4 399 640 127 685
4 298 660 429 669
4 92 93 668 670
4 421 675 661 687
4 494 344 647 685
4 398 683 651 685
4 399 479 128 651
4 642 648 660 677
4 651 660 648 677
4 317 230 262 679
4 370 541 352 673
4 219 33 34 460
4 436 435 434 646
4 659 675 323 682
4 128 11 126 672
4 322 323 675 682
4 417 234 91 662
4 299 650 301 667
4 344 482 494 647
4 640 399 128 651
4 220 42 30 672
4 640 399 127 128
4 373 664 372 674
4 243 662 652 679
4 429 328 479 651
4 34 652 418 684
4 308 667 655 676
4 408 303 301 666
4 439 666 403 674
4 642 660 651 677
4 92 668 649 670
4 93 419 658 670
4 457 667 308 676
4 258 662 243 679
4 410 665 657 668
4 94 508 93 687
4 329 317 262 679
4 299 301 302 667
4 307 441 465 686
4 664 674 373 688
4 399 651 640 685
4 460 652 219 678
4 658 675 246 687
4 665 666 650 667
4 403 656 412 688
4 458 316 459 681
4 643 666 665 667
4 333 263 234 662
4 312 650 300 669
4 657 665 649 668
4 408 312 339 665
4 652 663 384 679
4 90 243 662 684
4 530 658 670 676
4 538 100 635 653
4 44 652 34 684
4 400 663 329 679
4 324 312 315 669
4 95 421 661 687
4 648 663 326 678
4 259 662 647 684
4 649 654 642 679
4 315 312 300 669
4 648 642 660 663
4 508 656 492 668
4 298 328 429 660
4 643 665 650 667
4 494 647 263 683
4 253 636 638 653
4 546 384 663 679
4 652 662 243 684
4 410 657 507 668
4 303 305 655 666
4 410 382 665 668
4 530 670 376 676
4 323 659 682 686
4 641 639 124 647
4 520 528 253 653
4 479 651 328 672
4 246 675 421 687
4 34 219 460 652
4 235 493 671 689
4 259 647 482 684
4 641 647 124 684
4 337 322 323 675
4 410 333 507 657
4 293 295 458 648
4 335 399 398 651
4 647 651 642 683
4 647 642 651 677
4 642 647 652 677
4 296 660 295 672
4 299 650 667 681
4 259 263 482 647
4 33 341 460 678
4 642 652 647 662
4 245 93 508 668
4 399 398 651 685
4 246 658 406 675
4 517 246 406 675
4 532 459 654 663
4 654 663 642 679
4 303 302 301 667
4 235 421 548 661
4 323 682 311 686
4 656 665 643 666
4 260 482 108 684
4 643 665 656 668
4 125 677 647 685
4 346 324 657 665
4 641 639 647 685
4 642 654 650 681
4 440 403 373 674
4 458 361 326 663
4 519 518 671 680
4 643 656 655 658
4 92 649 230 670
4 635 100 539 653
4 655 656 644 658
4 303 305 304 655
4 337 323 659 675
4 34 460 418 652
4 294 296 295 672
4 259 90 662 684
4 92 417 649 668
4 642 652 648 677
4 513 233 661 688
4 655 656 643 666
4 43 677 648 678
4 219 652 677 678
4 384 529 652 679
4 641 109 639 685
4 479 328 468 672
4 503 673 356 680
4 335 429 651 669
4 230 649 91 679
4 324 409 657 669
4 655 666 305 674
4 648 652 642 663
4 384 546 529 679
4 381 329 532 654
4 520 253 638 653
4 219 677 43 678
4 659 661 645 675
4 233 687 661 688
4 481 527 425 653
4 637 636 527 653
4 439 403 440 674
4 648 660 651 672
4 324 334 409 669
4 128 126 640 651
4 244 433 434 671
4 644 656 655 674
4 406 675 658 682
4 513 516 233 688
4 423 422 519 680
4 93 497 419 670
4 344 641 108 482
4 458 459 361 663
4 298 299 297 660
4 458 326 293 648
4 243 652 529 679
4 258 90 243 662
4 339 312 324 665
4 218 42 220 648
4 34 44 219 652
4 481 425 522 653
4 91 649 662 679
4 95 246 421 687
4 297 660 299 681
4 642 662 647 683
4 125 647 639 685
4 292 32 31 678
4 403 383 412 656
4 335 429 479 651
4 235 493 433 671
4 381 654 534 676
4 108 641 124 684
4 335 479 399 651
4 34 418 3 684
4 439 339 347 665
4 354 352 541 673
4 125 651 677 685
4 503 353 356 673
4 340 326 663 678
4 503 370 353 673
4 334 409 669 683
4 92 497 93 670
4 347 439 665 666
4 44 34 3 684
4 30 286 293 294
4 439 339 665 666
4 440 373 372 674
4 481 522 254 653
4 656 666 655 674
4 642 650 660 681
4 376 317 329 670
4 510 687 233 688
4 299 302 455 667
4 258 243 529 679
4 299 667 455 681
4 92 93 245 668
4 242 442 519 671
4 406 405 675 682
4 650 642 660 669
4 642 657 662 683
4 309 305 666 674
4 643 654 649 670
4 651 672 126 677
4 433 671 493 689
4 657 669 409 683
4 300 301 299 650
4 494 482 263 647
4 650 654 643 667
4 308 655 311 682
4 377 530 658 670
4 472 338 350 689
4 519 518 242 671
4 644 675 658 687
4 125 124 647 677
4 371 360 411 664
4 648 672 651 677
4 343 658 530 676
4 394 376 381 676
4 42 672 648 677
4 235 96 421 661
4 303 309 305 666
4 43 648 218 678
4 303 304 302 667
4 548 661 421 675
4 361 340 326 663
4 338 337 323 659
4 30 2 294 672
4 308 306 311 655
4 528 520 437 653
4 418 652 243 684
4 456 667 336 676
4 100 99 438 653
4 510 233 516 688
4 354 350 673 689
4 100 254 99 653
4 125 651 126 677
4 410 346 657 665
4 346 324 409 657
4 306 311 655 686
4 642 657 649 662
4 259 234 263 662
4 539 255 635 653
4 639 125 124 647
4 308 655 321 676
4 456 336 534 676
4 230 91 258 679
4 410 382 346 665
4 658 676 343 682
4 92 417 91 649
4 403 412 373 688
4 664 674 644 686
4 300 312 301 650
4 259 482 260 684
4 494 263 375 683
4 408 665 339 666
4 91 662 258 679
4 497 92 230 670
4 125 640 651 685
4 126 672 42 677
4 311 682 655 686
4 308 321 655 682
4 384 663 652 678
4 92 91 230 649
4 32 218 31 678
4 410 507 382 668
4 323 322 311 682
4 457 308 336 676
4 426 242 518 671
4 245 508 492 668
4 637 538 635 653
4 358 356 357 680
4 513 233 426 661
4 44 677 652 684
4 43 42 648 677
4 655 321 676 682
4 481 637 527 653
4 642 652 662 679
4 325 399 127 685
4 124 647 677 684
4 353 355 356 673
4 259 89 90 684
4 326 327 292 678
4 244 98 433 671
4 645 661 659 664
4 32 292 327 678
4 31 286 292 293
4 519 422 518 680
4 658 675 644 682
4 471 659 470 686
4 642 663 652 679
4 412 656 413 688
4 354 472 350 689
4 659 661 644 664
4 89 243 90 684
4 532 361 459 663
4 471 470 307 686
4 92 245 417 668
4 654 670 643 676
4 418 460 243 652
4 508 413 656 687
4 647 683 494 685
4 297 316 295 660
4 640 126 125 651
4 383 413 412 656
4 656 687 413 688
4 328 660 296 672
4 323 311 470 686
4 384 652 460 678
4 225 55 56 252
4 647 662 652 684
4 323 470 659 686
4 251 52 51 224
4 651 660 642 669
4 503 356 359 680
4 655 666 643 667
4 517 421 246 675
4 296 328 298 660
4 530 376 394 676
4 651 669 642 683
4 433 434 671 689
4 124 677 44 684
4 316 660 297 681
4 435 255 438 653
4 95 661 233 687
4 42 218 43 648
4 538 481 254 653
4 344 416 109 685
4 377 376 530 670
4 656 674 644 688
4 494 416 344 685
4 538 254 100 653
4 321 343 676 682
4 456 667 654 681
4 456 654 459 681
4 642 650 657 669
4 30 42 2 672
4 472 380 338 689
4 242 98 442 671
4 384 460 341 678
4 308 311 321 682
4 456 457 336 667
4 635 255 638 653
4 659 664 644 686
4 439 309 666 674
4 436 472 354 689
4 377 658 419 670
4 644 661 659 675
4 457 336 667 676
4 400 329 546 679
4 655 674 305 686
4 413 687 510 688
4 648 677 652 678
4 538 637 481 653
4 394 381 534 676
4 644 674 664 688
4 413 492 508 656
4 235 433 97 671
4 642 662 649 679
4 394 343 530 676
4 539 100 438 653
4 439 440 309 674
4 429 315 300 669
4 398 399 325 685
4 517 406 405 675
4 384 340 663 678
4 435 437 255 653
4 91 90 258 662
4 410 375 333 657
4 305 306 304 655
4 441 305 674 686
4 306 655 305 686
4 411 664 373 688
4 423 359 422 680
4 649 668 643 670
4 426 233 96 661
4 372 357 465 664
4 413 510 516 688
4 373 411 360 664
4 520 255 437 653
4 419 658 246 687
4 43 125 126 677
4 652 663 648 678
4 638 255 520 653
4 441 307 305 686
4 510 95 233 687
4 643 658 655 676
4 338 323 349 659
4 644 675 659 682
4 324 315 334 669
4 335 315 429 669
4 655 658 644 682
4 260 108 9 684
4 644 682 659 686
4 97 242 426 671
4 643 667 654 676
4 500 53 52 223
4 346 339 324 665
4 370 352 353 673
4 43 126 42 677
4 109 416 10 685
4 652 677 647 684
4 513 411 516 688
4 346 409 410 657
4 398 502 334 683
4 413 383 492 656
4 643 670 658 676
4 651 683 647 685
4 508 510 413 687
4 405 406 343 682
4 647 677 651 685
4 371 518 422 680
4 645 673 671 680
4 529 460 384 652
4 353 351 355 673
4 439 408 339 666
4 400 546 663 679
4 377 419 497 670
4 124 43 44 677
4 671 673 646 680
4 661 675 644 687
4 2 467 294 672
4 638 636 635 653
4 381 532 459 654
4 308 304 306 655
4 671 673 645 689
4 375 657 409 683
4 502 494 683 685
4 438 255 539 653
4 655 667 643 676
4 219 43 218 678
4 644 658 656 687
4 337 405 322 675
4 259 90 234 662
4 125 43 124 677
4 456 455 667 681
4 637 635 636 653
4 316 456 459 681
4 405 322 675 682
4 406 658 343 682
4 372 373 360 664
4 646 673 671 689
4 354 350 352 673
4 127 10 325 685
4 334 315 335 669
4 394 321 343 676
4 54 55 222 525
4 400 546 384 663
4 440 372 441 674
4 532 400 361 663
4 296 297 295 660
4 434 537 436 689
4 467 468 328 672
4 304 457 302 667
4 459 456 534 654
4 336 308 321 676
4 2 126 11 672
4 467 11 468 672
4 409 375 410 657
4 346 382 347 665
4 654 667 650 681
4 125 639 640 685
4 529 243 460 652
4 642 669 657 683
4 400 384 340 663
4 419 246 94 687
4 398 502 683 685
4 497 230 317 670
4 344 108 641 109
4 360 357 372 664
4 100 635 8 538
4 459 534 381 654
4 655 676 658 682
4 124 9 108 684
4 234 90 91 662
4 89 418 243 684
4 502 416 494 685
4 109 10 639 685
4 361 400 340 663
4 507 417 245 668
4 32 341 33 678
4 262 546 329 679
4 127 640 10 685
4 483 636 77 253
4 95 421 96 661
4 406 530 343 658
4 42 126 2 672
4 433 493 434 689
4 457 456 455 667
4 419 406 246 658
4 644 664 661 688
4 471 349 470 659
4 436 537 472 689
4 580 102 40 585
4 661 687 644 688
4 298 297 296 660
4 644 687 656 688
4 95 96 233 661
4 260 89 259 684
4 230 258 262 679
4 530 406 377 658
4 507 492 382 668
4 302 457 455 667
4 339 346 347 665
4 539 635 8 100
4 334 502 409 683
4 24 187 192 122
4 25 24 192 122
4 89 88 3 684
4 323 470 349 659
4 294 467 296 672
4 327 341 32 678
4 309 441 305 674
4 303 408 309 666
4 467 2 11 672
4 89 9 88 684
4 41 101 102 202
4 192 186 25 121
4 644 674 655 686
4 517 548 421 675
4 121 25 192 122
4 371 422 358 680
4 3 88 9 684
4 89 3 418 684
4 186 26 25 121
4 76 241 636 483
4 589 588 194 196
4 580 102 101 202
4 527 75 241 636
4 105 36 37 199
4 412 413 516 688
4 195 194 588 196
4 102 40 41 202
4 36 105 106 199
4 27 28 118 592
4 655 682 644 686
4 502 494 375 683
4 119 27 118 592
4 352 350 351 673
4 106 105 578 199
4 493 537 434 689
4 406 419 377 658
4 28 27 185 592
4 405 343 322 682
4 101 41 3 210
4 122 23 595 123
4 375 409 502 683
4 455 297 299 681
4 9 89 260 684
4 415 30 2 294
4 604 101 9 210
4 3 9 101 210
4 307 306 305 686
4 610 36 35 106
4 577 192 187 122
4 610 35 36 190
4 224 72 71 616
4 117 118 217 583
4 44 3 9 684
4 467 328 296 672
4 326 340 327 678
4 43 125 582 126
4 103 38 579 104
4 325 416 398 685
4 585 40 580 184
4 579 585 39 103
4 342 33 32 341
4 603 23 11 123
4 223 7 72 633
4 585 102 39 103
4 33 341 385 460
4 211 11 126 603
4 9 3 44 210
4 11 211 126 2
4 104 591 105 183
4 253 636 77 638
4 186 26 121 120
4 507 245 492 668
4 219 32 33 678
4 408 439 309 666
4 385 34 33 460
4 198 27 26 576
4 211 23 11 603
4 2 23 11 211
4 473 10 109 416
4 12 0 222 180
4 508 94 510 687
4 124 44 43 189
4 582 42 43 126
4 226 107 584 215
4 29 191 221 608
4 577 187 595 122
4 102 39 40 585
4 398 416 502 685
4 10 416 325 685
4 198 186 194 609
4 591 579 587 216
4 317 376 377 670
4 635 539 80 255
4 412 411 373 688
4 352 351 353 673
4 98 242 97 671
4 448 27 28 118
4 121 192 186 577
4 43 125 124 189
4 118 448 27 119
4 184 40 580 202
4 577 121 192 122
4 399 478 128 479
4 193 588 586 195
4 470 311 306 686
4 9 124 44 684
4 604 9 124 210
4 309 440 441 674
4 336 321 394 676
4 380 537 493 689
4 322 321 311 682
4 380 472 537 689
4 433 98 97 671
4 534 336 394 676
4 358 359 356 680
4 9 44 124 210
4 211 2 42 126
4 384 341 340 678
4 120 27 119 576
4 120 26 27 576
4 32 327 342 341
4 591 578 105 183
4 185 27 198 576
4 246 95 94 687
4 89 9 260 88
4 473 109 344 416
4 317 377 497 670
4 25 24 122 278
4 595 197 187 577
4 2 415 294 467
4 87 41 3 101
4 192 187 197 577
4 590 585 580 184
4 639 10 640 685
4 587 596 591 216
4 198 194 203 609
4 262 258 529 679
4 207 215 22 228
4 600 608 69 229
4 87 3 9 101
4 122 121 25 278
4 585 586 579 201
4 448 118 447 119
4 482 108 344 261
4 171 12 13 225
4 104 105 38 183
4 105 37 38 183
4 0 29 19 221
4 5 107 66 226
4 517 387 548 675
4 327 340 341 678
4 88 89 3 418
4 24 25 288 278
4 216 596 591 212
4 605 198 203 609
4 576 120 186 594
4 447 27 448 119
4 578 598 199 212
4 592 185 205 605
4 579 39 38 103
4 585 39 40 184
4 444 26 27 120
4 211 582 595 603
4 210 604 202 189
4 78 520 253 638
4 322 343 321 682
4 412 516 411 688
4 120 121 186 594
4 226 584 66 215
4 221 191 19 608
4 190 610 598 199
4 592 205 217 583
4 223 117 7 633
4 538 635 8 637
4 67 68 227 581
4 227 20 21 188
4 597 124 125 189
4 204 42 43 582
4 1 35 107 226
4 444 25 26 121
4 121 288 25 278
4 636 527 75 637
4 307 470 306 686
4 591 578 183 212
4 576 198 185 605
4 598 578 596 212
4 185 203 205 605
4 578 591 596 212
4 198 203 185 605
4 262 529 546 679
4 636 77 76 483
4 221 7 29 117
4 211 582 603 126
4 123 122 23 279
4 600 191 205 593
4 598 584 200 207
4 594 193 194 588
4 587 586 195 201
4 19 29 191 221
4 107 584 66 226
4 80 638 635 255
4 600 69 68 229
4 22 21 207 228
4 218 32 219 678
4 40 102 580 202
4 193 194 186 594
4 586 587 579 201
4 387 405 337 675
4 584 190 200 207
4 600 583 191 593
4 594 121 186 577
4 41 101 202 210
4 123 23 11 491
4 200 190 598 199
4 583 592 205 593
4 560 553 104 430
4 226 1 35 215
4 587 596 216 196
4 609 194 203 589
4 77 78 253 638
4 358 422 359 680
4 107 5 1 226
4 455 456 316 681
4 202 101 604 210
4 580 101 604 202
4 607 584 207 228
4 600 214 191 229
4 75 76 241 636
4 29 0 7 221
4 11 23 2 491
4 117 221 7 608
4 605 203 205 602
4 209 598 596 212
4 588 599 193 586
4 195 586 193 206
4 455 316 297 681
4 260 108 482 261
4 105 37 36 83
4 586 585 184 201
4 605 576 198 609
4 183 216 591 212
4 430 553 104 239
4 12 55 225 252
4 106 105 36 83
4 214 213 581 593
4 607 606 188 200
4 478 128 479 468
4 210 124 604 189
4 122 24 23 279
4 605 205 592 593
4 598 200 199 212
4 553 560 397 430
4 80 79 638 255
4 538 8 73 637
4 404 266 555 264
4 247 36 37 83
4 282 23 24 281
4 104 103 38 84
4 603 595 23 123
4 66 215 207 228
4 19 608 600 229
4 584 598 607 207
4 214 191 205 600
4 207 584 66 228
4 191 19 600 229
4 44 124 210 189
4 582 211 42 126
4 107 610 35 106
4 444 288 25 121
4 217 29 28 118
4 121 26 444 120
4 226 22 1 215
4 23 211 595 603
4 39 102 85 103
4 118 217 29 117
4 23 211 187 595
4 397 553 430 239
4 87 9 3 88
4 595 601 197 577
4 221 69 7 608
4 200 607 598 207
4 600 205 214 593
4 116 270 269 623
4 185 592 576 605
4 578 199 183 212
4 79 520 638 255
4 609 594 194 588
4 587 195 216 201
4 227 21 607 188
4 227 68 214 581
4 24 23 282 161
4 72 52 251 224
4 604 597 202 189
4 582 204 211 595
4 606 607 598 200
4 213 214 205 593
4 387 517 405 675
4 597 580 604 202
4 187 211 204 595
4 598 584 190 200
4 583 205 191 593
4 205 605 602 593
4 598 209 200 212
4 226 35 107 215
4 581 600 214 593
4 200 188 607 207
4 196 203 589 209
4 102 39 85 40
4 117 29 221 608
4 280 282 24 281
4 618 614 274 277
4 618 274 276 277
4 588 193 194 195
4 587 586 588 195
4 185 217 28 592
4 271 269 270 623
4 106 610 36 199
4 227 21 67 607
4 214 20 68 227
4 578 610 106 199
4 112 615 113 474
4 118 28 217 592
4 223 500 117 633
4 447 118 451 119
4 4 5 1 81
4 602 203 205 209
4 598 596 602 209
4 578 598 610 199
4 205 217 185 592
4 161 23 282 281
4 444 27 26 446
4 117 545 118 450
4 95 510 94 687
4 130 446 27 449
4 86 396 40 521
4 106 36 35 82
4 35 610 107 190
4 579 38 39 201
4 103 553 559 239
4 117 217 29 583
4 288 280 24 278
4 48 249 498 575
4 39 103 85 84
4 239 103 104 84
4 594 194 186 609
4 216 579 587 201
4 196 596 216 212
4 203 605 609 589
4 461 113 620 474
4 418 34 536 460
4 474 113 112 368
4 225 171 12 252
4 623 271 274 624
4 270 116 632 623
4 564 115 267 268
4 239 85 103 84
4 127 272 478 399
4 553 402 559 239
4 267 115 269 268
4 596 587 589 196
4 194 203 589 196
4 224 251 72 616
4 30 163 285 283
4 102 101 41 86
4 152 238 487 173
4 115 273 617 623
4 278 122 618 277
4 214 227 581 188
4 607 581 227 188
4 466 559 402 239
4 289 461 620 474
4 285 163 284 283
4 63 45 46 257
4 140 291 319 143
4 192 197 193 599
4 585 590 586 206
4 449 27 130 160
4 618 276 278 277
4 559 466 103 239
4 272 270 325 127
4 282 24 131 452
4 268 558 454 363
4 637 527 74 481
4 374 150 157 523
4 588 194 609 589
4 216 195 587 196
4 341 342 33 385
4 291 318 319 143
4 269 273 115 623
4 285 31 286 292
4 291 287 290 164
4 172 136 157 392
4 271 270 632 623
4 202 597 580 208
4 564 115 116 267
4 102 41 40 86
4 446 444 27 447
4 379 615 112 474
4 265 109 344 473
4 490 487 238 173
4 29 118 545 28
4 452 282 24 280
4 462 469 140 139
4 366 397 569 560
4 114 454 115 558
4 118 29 545 117
4 273 454 269 115
4 602 589 203 209
4 364 397 402 553
4 399 478 127 128
4 558 114 454 363
4 130 462 140 139
4 466 102 103 85
4 266 565 555 264
4 612 629 310 276
4 215 66 22 228
4 608 19 69 229
4 271 432 274 624
4 213 606 581 593
4 188 606 213 200
4 474 112 379 368
4 597 604 124 189
4 211 42 204 582
4 269 116 115 267
4 162 290 287 164
4 141 463 159 158
4 146 147 313 148
4 286 30 415 294
4 202 597 208 189
4 204 582 601 595
4 310 629 275 276
4 598 584 610 190
4 205 191 217 583
4 397 364 366 569
4 558 454 115 268
4 290 162 147 164
4 87 232 9 88
4 285 286 30 283
4 599 594 193 577
4 586 184 206 201
4 292 285 31 464
4 21 607 207 228
4 68 214 600 229
4 118 117 450 626
4 454 289 114 617
4 552 560 105 248
4 127 325 272 399
4 430 105 560 248
4 271 632 270 272
4 634 110 6 498
4 514 82 36 247
4 276 443 612 618
4 224 51 251 616
4 36 610 190 199
4 345 558 268 363
4 363 364 345 570
4 87 3 231 88
4 344 109 265 261
4 620 114 289 617
4 446 26 444 445
4 288 444 443 121
4 38 105 104 83
4 105 38 37 83
4 273 454 115 617
4 448 118 450 447
4 592 217 118 583
4 232 420 87 101
4 64 46 47 496
4 620 289 477 275
4 404 466 559 402
4 164 291 469 140
4 271 274 273 623
4 130 446 462 445
4 114 113 620 461
4 586 599 193 206
4 71 51 224 616
4 401 313 314 148
4 599 193 594 588
4 206 195 586 201
4 267 266 564 268
4 86 396 550 40
4 454 273 289 617
4 47 48 65 249
4 325 270 10 127
4 420 466 555 404
4 473 116 270 267
4 269 270 116 267
4 157 136 182 392
4 290 287 284 162
4 500 450 117 626
4 342 33 385 386
4 473 265 573 267
4 397 366 427 560
4 232 420 572 264
4 282 283 177 281
4 401 146 313 148
4 261 232 572 264
4 277 631 432 362
4 140 141 462 130
4 103 466 85 239
4 154 148 153 414
4 184 585 586 206
4 599 193 192 577
4 364 402 345 570
4 454 269 115 268
4 276 612 629 618
4 103 39 38 84
4 130 26 446 445
4 631 478 432 362
4 87 9 232 101
4 365 366 364 569
4 36 169 136 524
4 555 466 559 404
4 559 102 466 555
4 327 292 32 464
4 273 275 289 617
4 113 615 620 474
4 415 2 177 281
4 31 30 163 285
4 453 443 612 310
4 310 443 612 276
4 553 397 402 239
4 129 240 521 390
4 141 462 319 140
4 634 6 49 498
4 620 114 461 289
4 279 122 278 277
4 474 620 289 477
4 474 461 113 368
4 552 428 427 248
4 365 113 461 368
4 2 415 467 491
4 148 314 401 414
4 237 613 526 476
4 397 364 569 553
4 571 266 555 404
4 87 3 41 231
4 570 364 402 553
4 114 461 289 454
4 555 420 404 264
4 275 477 629 310
4 467 11 491 468
4 107 35 1 81
4 282 284 287 161
4 118 505 451 611
4 278 280 122 279
4 26 130 139 445
4 469 287 291 164
4 227 214 20 188
4 581 227 67 607
4 362 491 11 468
4 164 469 131 139
4 108 260 232 261
4 273 269 271 623
4 469 287 164 131
4 291 319 469 140
4 175 165 348 388
4 521 39 240 129
4 260 9 232 88
4 277 279 123 362
4 171 512 159 252
4 190 107 35 215
4 265 266 573 267
4 291 290 147 164
4 139 462 469 445
4 140 164 291 143
4 401 313 146 320
4 130 462 446 449
4 477 628 629 310
4 392 157 172 511
4 342 407 464 174
4 527 74 75 637
4 123 279 491 362
4 25 452 288 445
4 61 17 60 511
4 29 117 583 608
4 104 38 83 84
4 420 466 102 555
4 363 365 364 561
4 239 104 430 84
4 332 165 153 388
4 365 367 366 556
4 415 2 281 491
4 162 287 284 161
4 318 330 144 320
4 461 365 363 561
4 584 107 190 215
4 583 191 29 608
4 147 314 313 148
4 473 573 116 267
4 142 143 318 144
4 477 629 620 275
4 590 585 184 206
4 599 192 197 577
4 285 284 179 485
4 469 287 131 452
4 367 365 368 556
4 469 452 139 445
4 197 599 590 206
4 614 432 274 277
4 114 461 454 363
4 331 144 330 320
4 115 454 114 617
4 366 569 566 560
4 160 28 480 448
4 404 559 571 402
4 392 172 256 511
4 632 10 270 127
4 88 3 231 418
4 284 290 179 485
4 256 136 172 392
4 318 330 142 144
4 415 177 283 281
4 174 342 407 386
4 449 446 27 448
4 272 632 270 127
4 53 54 7 236
4 345 558 363 570
4 54 0 7 236
4 473 325 10 416
4 314 166 290 485
4 389 154 153 414
4 282 131 287 452
4 30 31 286 285
4 570 569 364 553
4 474 615 620 477
4 85 102 40 86
4 31 32 292 464
4 282 131 24 161
4 115 116 269 623
4 628 619 612 310
4 283 286 30 415
4 112 379 368 378
4 365 561 556 569
4 101 87 41 86
4 451 450 118 447
4 462 469 319 140
4 149 374 331 488
4 453 619 495 310
4 389 332 153 388
4 232 9 260 108
4 619 628 495 310
4 476 237 613 501
4 107 610 584 190
4 217 191 29 583
4 450 500 505 626
4 452 25 139 445
4 561 365 364 569
4 107 1 5 81
4 73 538 637 481
4 50 51 71 501
4 279 123 122 277
4 32 327 464 342
4 247 82 36 83
4 404 571 345 402
4 2 23 177 281
4 560 427 397 430
4 274 630 614 618
4 139 25 26 445
4 374 157 150 151
4 487 238 152 489
4 0 222 180 525
4 505 118 626 611
4 24 25 131 452
4 330 331 488 145
4 477 628 495 475
4 368 367 112 378
4 287 162 131 161
4 143 313 318 320
4 81 35 1 542
4 524 182 136 392
4 616 251 626 535
4 430 560 427 248
4 630 623 274 624
4 49 6 48 498
4 443 121 612 618
4 25 131 452 139
4 477 495 628 310
4 10 270 325 473
4 597 590 580 208
4 313 318 291 143
4 606 581 607 188
4 581 213 214 188
4 392 250 157 511
4 204 197 601 208
4 601 590 597 208
4 560 552 427 248
4 379 112 111 378
4 614 122 123 277
4 177 161 282 281
4 331 165 144 320
4 109 344 108 261
4 446 27 26 130
4 634 49 70 237
4 561 363 558 570
4 364 363 561 570
4 161 282 284 283
4 180 55 252 525
4 121 443 288 278
4 290 147 313 291
4 165 156 153 388
4 485 314 166 407
4 512 499 159 252
4 82 106 36 83
4 486 490 463 158
4 573 116 10 473
4 165 332 348 388
4 362 128 478 468
4 464 285 135 485
4 279 281 23 491
4 428 427 369 552
4 282 287 131 161
4 505 450 118 451
4 12 55 252 180
4 164 147 291 143
4 236 545 117 450
4 463 462 130 449
4 157 523 250 392
4 430 104 105 83
4 469 164 140 139
4 129 156 240 390
4 156 240 39 129
4 368 365 113 556
4 531 247 37 83
4 627 613 501 622
4 118 451 119 611
4 614 618 122 277
4 137 386 155 154
4 450 117 236 500
4 160 480 449 448
4 498 6 48 575
4 628 620 615 477
4 449 130 463 160
4 490 159 463 158
4 389 129 154 395
4 555 565 266 571
4 265 109 108 261
4 535 501 476 622
4 571 266 345 268
4 448 446 27 447
4 558 571 345 268
4 116 270 10 473
4 563 369 566 552
4 566 427 366 560
4 331 330 144 145
4 83 430 104 84
4 619 453 612 310
4 474 615 477 475
4 287 162 164 131
4 290 147 314 313
4 366 365 556 569
4 319 141 140 142
4 407 314 155 414
4 544 563 554 568
4 13 57 14 134
4 139 130 462 445
4 584 607 66 228
4 19 191 214 229
4 476 506 625 475
4 553 103 104 239
4 368 112 367 556
4 390 129 156 153
4 215 584 66 207
4 608 191 19 600
4 58 15 14 168
4 543 5 4 81
4 160 27 28 448
4 514 36 136 524
4 362 11 128 468
4 476 506 622 625
4 113 112 368 556
4 1 4 81 542
4 389 153 390 388
4 248 567 428 515
4 147 162 290 166
4 602 606 598 209
4 602 205 213 209
4 612 629 628 310
4 474 379 615 475
4 485 135 464 407
4 606 598 209 200
4 602 213 205 593
4 451 453 619 495
4 283 161 282 177
4 369 563 566 562
4 277 123 631 362
4 554 563 509 562
4 622 621 476 625
4 29 7 236 117
4 165 175 156 388
4 467 11 2 491
4 160 449 27 448
4 144 149 331 145
4 51 71 501 616
4 144 146 143 320
4 33 342 174 386
4 251 51 501 616
4 266 571 564 268
4 564 573 266 267
4 8 635 539 80
4 50 70 49 237
4 330 142 144 145
4 401 153 146 148
4 203 605 589 602
4 596 196 209 212
4 156 240 393 132
4 630 275 629 618
4 313 143 146 320
4 495 619 611 625
4 121 444 443 120
4 558 564 571 268
4 150 178 523 489
4 509 378 551 554
4 501 613 476 622
4 390 129 389 395
4 112 111 621 379
4 348 175 393 391
4 613 111 110 526
4 120 453 443 612
4 515 567 428 257
4 251 505 626 535
4 281 2 23 491
4 444 453 443 120
4 142 330 486 145
4 144 143 318 320
4 407 155 386 414
4 59 16 15 133
4 487 490 486 158
4 631 614 123 277
4 331 374 149 348
4 565 266 571 564
4 367 369 366 566
4 166 135 485 407
4 35 36 136 514
4 273 274 275 630
4 136 256 524 392
4 480 449 499 160
4 170 157 250 511
4 249 47 496 568
4 167 550 176 431
4 171 159 512 134
4 166 135 407 155
4 626 616 535 622
4 601 599 197 577
4 208 590 184 206
4 114 461 363 561
4 130 141 463 160
4 154 386 414 395
4 345 266 571 404
4 122 280 24 279
4 621 615 112 379
4 154 386 155 414
4 276 629 275 618
4 364 561 569 570
4 236 7 53 117
4 7 29 236 0
4 625 621 476 475
4 331 332 165 320
4 197 599 601 590
4 208 197 590 206
4 617 273 275 630
4 104 105 560 430
4 556 367 366 566
4 167 137 154 395
4 428 369 563 552
4 106 248 105 83
4 478 432 272 624
4 365 461 113 561
4 625 495 628 475
4 452 131 469 139
4 607 21 67 228
4 214 68 20 229
4 567 428 552 248
4 261 572 108 264
4 461 114 113 561
4 56 171 225 252
4 61 62 18 256
4 168 238 152 173
4 566 369 427 552
4 414 389 154 395
4 451 453 119 619
4 486 158 142 145
4 477 615 628 475
4 544 496 563 568
4 138 28 480 160
4 178 150 152 489
4 291 147 313 143
4 11 123 491 362
4 111 613 621 526
4 612 120 453 619
4 627 50 71 501
4 138 480 499 160
4 154 137 386 395
4 378 367 112 562
4 46 496 557 257
4 112 367 556 562
4 135 464 407 174
4 16 59 60 250
4 363 558 114 561
4 551 378 111 554
4 563 369 509 562
4 488 331 149 145
4 45 63 574 257
4 620 628 629 477
4 523 178 157 250
4 40 39 85 521
4 41 40 550 167
4 252 171 12 180
4 157 374 523 392
4 586 590 599 206
4 599 197 193 206
4 427 366 369 566
4 561 113 365 556
4 38 240 156 132
4 147 313 143 146
4 614 631 432 277
4 451 453 447 119
4 39 38 240 156
4 393 175 348 388
4 563 496 557 568
4 23 123 279 491
4 545 28 118 450
4 106 35 107 82
4 67 66 607 228
4 20 19 214 229
4 509 249 544 554
4 129 167 154 395
4 390 129 153 389
4 447 453 444 120
4 161 284 163 283
4 619 119 451 611
4 188 21 607 207
4 600 214 68 581
4 554 249 544 568
4 554 378 111 562
4 237 634 49 498
4 154 153 129 389
4 506 451 611 495
4 63 46 64 557
4 432 271 272 624
4 156 390 153 388
4 250 523 178 489
4 420 87 101 86
4 72 52 633 251
4 488 150 152 145
4 17 61 172 511
4 509 378 554 562
4 552 567 248 106
4 560 397 569 553
4 557 63 46 257
4 623 274 273 630
4 374 149 150 488
4 266 265 565 264
4 85 466 102 86
4 378 112 111 562
4 628 619 495 625
4 261 565 265 264
4 569 556 366 566
4 521 40 39 129
4 36 169 524 247
4 53 236 117 500
4 23 161 177 281
4 284 179 163 285
4 115 564 558 268
4 57 13 56 512
4 462 319 463 141
4 127 478 272 128
4 152 168 133 489
4 625 628 615 475
4 401 146 332 320
4 332 153 146 401
4 102 420 101 86
4 611 506 495 625
4 133 168 533 489
4 70 6 49 634
4 232 420 101 572
4 141 486 463 158
4 0 54 222 525
4 120 119 453 619
4 149 165 331 348
4 150 523 488 489
4 566 556 367 562
4 428 557 496 257
4 17 61 18 172
4 132 169 391 151
4 551 498 249 575
4 147 166 314 148
4 451 619 611 495
4 367 509 369 562
4 118 28 448 450
4 14 57 58 238
4 159 463 141 160
4 36 35 82 514
4 146 144 165 320
4 531 37 38 83
4 342 464 32 174
4 401 332 153 389
4 248 105 552 106
4 213 602 606 593
4 209 213 606 200
4 58 15 168 533
4 165 153 146 332
4 285 163 31 135
4 70 50 71 627
4 111 110 551 554
4 16 59 250 133
4 536 34 385 460
4 133 250 178 489
4 453 447 119 120
4 155 314 148 414
4 165 332 331 348
4 60 17 16 170
4 402 559 570 553
4 65 48 6 575
4 45 5 4 543
4 82 35 81 514
4 170 60 17 511
4 496 64 46 557
4 179 290 166 485
4 81 107 35 82
4 480 499 252 138
4 515 248 567 106
4 536 231 3 418
4 466 102 559 103
4 509 367 378 562
4 240 39 85 84
4 166 290 147 314
4 633 500 626 251
4 624 272 478 128
4 175 132 393 391
4 249 65 47 568
4 176 550 231 431
4 171 13 56 225
4 466 420 102 86
4 83 38 531 84
4 128 478 432 631
4 390 156 240 388
4 622 506 611 625
4 563 557 428 567
4 122 618 121 278
4 633 52 500 251
4 374 150 523 488
4 498 110 6 575
4 249 48 65 575
4 501 251 616 535
4 557 496 563 428
4 180 222 55 525
4 395 137 386 431
4 138 499 159 160
4 223 52 500 633
4 63 557 574 257
4 379 111 526 378
4 57 13 512 134
4 385 386 137 431
4 637 74 73 481
4 488 152 150 489
4 505 118 450 626
4 407 314 166 155
4 86 40 85 521
4 135 31 285 464
4 374 348 391 151
4 476 613 621 622
4 251 633 72 616
4 443 121 120 612
4 374 150 149 151
4 533 59 15 133
4 420 555 572 264
4 175 393 156 388
4 123 11 631 362
4 174 407 135 155
4 611 626 505 622
4 318 330 486 142
4 135 285 179 485
4 148 166 314 155
4 428 496 563 544
4 72 52 223 633
4 4 1 62 542
4 144 149 165 331
4 488 149 150 145
4 524 514 36 247
4 9 232 101 572
4 108 232 572 261
4 33 385 386 137
4 116 10 270 632
4 536 3 34 418
4 557 428 567 257
4 379 621 615 475
4 71 627 501 616
4 167 137 395 431
4 111 110 526 551
4 157 170 172 511
4 133 533 250 489
4 47 64 496 568
4 526 621 111 379
4 172 170 17 511
4 500 505 626 251
4 565 109 108 265
4 231 3 41 176
4 542 35 1 181
4 179 290 284 162
4 150 178 157 523
4 60 170 250 511
4 179 163 285 135
4 590 601 197 208
4 55 12 222 180
4 621 379 476 475
4 248 430 105 83
4 526 613 621 476
4 275 629 617 630
4 250 170 16 133
4 165 149 175 348
4 169 182 136 524
4 624 127 272 128
4 565 108 572 264
4 391 175 132 151
4 506 495 625 475
4 226 66 22 215
4 221 19 69 608
4 544 563 509 554
4 379 526 621 476
4 386 174 33 137
4 565 265 266 573
4 109 265 573 473
4 136 181 35 514
4 152 238 168 489
4 178 170 157 250
4 162 179 290 166
4 533 15 168 133
4 631 11 128 362
4 238 58 14 168
4 63 5 45 574
4 141 463 462 130
4 566 367 369 562
4 374 157 151 392
4 393 240 156 388
4 1 18 62 181
4 108 565 261 264
4 574 567 515 257
4 552 427 566 560
4 533 250 59 133
4 122 24 280 278
4 171 56 512 252
4 348 374 175 151
4 40 129 396 167
4 319 318 486 142
4 169 36 37 247
4 15 58 59 533
4 374 175 149 348
4 488 487 330 145
4 463 159 499 160
4 167 396 550 431
4 611 505 451 506
4 61 256 172 511
4 108 565 265 261
4 102 101 420 555
4 464 135 32 174
4 332 146 165 320
4 9 232 572 108
4 170 16 60 250
4 87 41 86 550
4 177 30 2 415
4 86 41 40 550
4 391 348 175 151
4 215 190 584 207
4 608 583 191 600
4 563 369 544 509
4 37 38 132 531
4 573 10 109 473
4 5 543 107 81
4 179 284 163 161
4 28 545 448 450
4 506 611 505 622
4 132 169 247 391
4 64 47 65 568
4 554 551 249 575
4 625 615 621 475
4 237 50 627 501
4 266 565 573 564
4 141 319 486 142
4 14 57 238 134
4 512 13 56 171
4 32 31 135 464
4 177 283 30 415
4 374 149 175 151
4 155 148 154 414
4 181 18 62 256
4 525 29 54 236
4 54 29 0 236
4 251 626 633 616
4 231 3 34 536
4 132 247 37 531
4 554 110 551 575
4 132 247 393 391
4 393 156 132 175
4 386 155 174 137
4 631 128 478 362
4 533 168 238 489
4 181 542 35 514
4 486 330 487 145
4 385 34 536 431
4 110 613 526 237
4 136 256 514 524
4 552 563 428 567
4 449 463 499 160
4 248 106 82 83
4 273 617 623 630
4 167 129 396 395
4 38 39 240 84
4 624 478 432 128
4 496 544 249 568
4 476 506 535 622
4 231 34 3 176
4 247 37 169 132
4 237 526 110 498
4 256 18 61 172
4 133 178 152 489
4 385 33 34 137
4 555 101 420 572
4 134 512 238 173
4 284 179 162 161
4 499 159 463 490
4 158 487 152 145
4 542 1 62 181
4 498 526 110 551
4 5 45 574 543
4 545 480 28 448
4 129 521 40 396
4 110 498 551 575
4 257 515 574 543
4 236 545 29 117
4 158 486 487 145
4 231 536 176 431
4 240 85 39 521
4 574 45 257 543
4 272 271 632 624
4 38 240 531 84
4 535 506 505 622
4 249 509 551 554
4 488 487 152 489
4 78 79 520 638
4 557 496 64 568
4 155 174 407 386
4 110 634 237 498
4 176 41 550 167
4 613 110 634 237
4 252 171 180 138
4 396 550 40 167
4 571 555 559 404
4 581 606 213 188
4 54 0 29 525
4 535 505 626 622
4 487 152 173 158
4 128 432 624 631
4 117 500 626 633
4 627 613 237 501
4 168 238 58 533
4 34 385 137 431
4 163 161 283 177
4 396 167 395 431
4 159 499 512 490
4 169 182 524 391
4 29 525 545 236
4 256 181 18 172
4 14 238 168 134
4 65 249 575 568
4 345 571 558 570
4 488 152 487 145
4 393 247 132 531
4 486 463 319 141
4 141 486 158 142
4 182 524 391 392
4 542 81 35 514
4 631 432 624 614
4 171 512 13 134
4 178 170 250 133
4 238 57 512 134
4 283 30 163 177
4 107 515 567 106
4 181 136 256 514
4 106 107 515 82
4 138 480 28 545
4 173 159 490 158
4 181 62 542 256
4 81 515 107 82
4 490 238 512 173
4 536 34 231 176
4 565 572 555 264
4 256 542 181 514
4 106 515 248 82
4 550 87 41 231
4 515 567 574 107
4 28 29 138 545
4 428 563 369 544
4 180 29 0 525
4 342 32 33 174
4 490 487 173 158
4 137 167 176 431
4 564 116 573 267
4 129 390 396 395
4 567 574 557 257
4 627 613 634 237
4 176 536 34 431
4 606 602 213 209
4 543 574 5 107
4 151 157 182 392
4 151 391 374 392
4 525 480 29 545
4 166 135 179 485
4 137 176 34 431
4 543 515 574 107
4 169 182 391 151
4 632 271 623 624
4 138 29 480 545
4 127 272 632 624
4 525 29 480 138
4 525 180 29 138
4 378 111 526 551
4 182 391 151 392
4 134 238 168 173
4 249 554 575 568
4 521 129 390 396
4 265 565 109 573
4 231 41 550 176
4 107 543 515 81
4 247 169 524 391
4 256 136 181 172
4 659 350 673 349
4 659 673 350 645
4 648 31 293 220
4 648 293 31 292
4 659 673 355 351
4 355 673 659 645
4 493 387 645 548
4 645 387 493 380
4 668 383 665 656
4 668 665 383 382
4 347 665 383 656
4 347 383 665 382
4 667 308 304 457
4 667 304 308 655
4 676 456 654 534
4 676 654 456 667
4 677 219 44 652
4 677 44 219 43
4 687 419 93 94
4 687 93 419 658
4 686 471 465 307
4 686 465 471 659
4 30 31 293 286
4 30 293 31 220
4 196 588 587 589
4 196 587 588 195
4 204 189 582 43
4 125 582 189 43
4 125 189 582 597
4 199 105 183 37
4 199 183 105 578
4 27 592 576 185
4 576 592 27 119
4 122 187 23 24
4 122 23 187 595
4 576 26 186 120
4 576 186 26 198
4 186 576 609 198
4 609 576 186 594
4 201 183 579 38
4 104 579 183 38
4 104 183 579 591
4 580 208 184 202
4 184 208 580 590
4 197 595 204 601
4 204 595 197 187
4 447 120 27 119
4 27 120 447 444
4 117 223 53 500
4 53 223 117 7
4 153 414 401 389
4 401 414 153 148
4 25 444 445 288
4 445 444 25 26
4 186 577 193 594
4 193 577 186 192
4 585 201 39 184
4 39 201 585 579
4 209 589 596 602
4 209 596 589 196
4 319 143 142 140
4 142 143 319 318
4 402 571 570 559
4 402 570 571 345
4 274 624 614 630
4 614 624 274 432
4 24 281 279 280
4 279 281 24 23
4 132 240 531 38
4 132 531 240 393
4 288 24 452 25
4 288 452 24 280
4 622 501 616 535
4 622 616 501 627
4 159 252 138 171
4 138 252 159 499
4 443 618 278 121
4 278 618 443 276
4 237 70 627 50
4 237 627 70 634
4 620 275 617 289
4 617 275 620 629
4 274 618 275 630
4 275 618 274 276
4 138 525 252 480
4 138 252 525 180
4 173 512 159 134
4 173 159 512 490
4 189 582 208 204
4 189 208 582 597
4 601 208 582 204
4 601 582 208 597
4 183 579 216 201
4 183 216 579 591

CELL_TYPES 3591
1
1
1
1
1
1
1
1
1
1
1
1
3
3
3
3
3
3
3
3
3
3
3
3
3
3
3
3
3
3
3
3
3
3
3
3
3
3
3
3
3
3
3
3
3
3
3
3
3
3
3
3
3
3
3
3
3
3
3
3
3
3
3
3
3
3
3
3
3
3
3
3
3
3
3
3
3
3
3
3
3
3
3
3
3
3
3
3
3
3
3
3
3
3
3
3
3
3
3
3
3
3
3
3
3
3
3
3
3
3
3
3
3
3
3
3
3
3
3
3
3
3
3
3
3
3
3
3
3
3
3
3
3
3
3
3
3
3
3
3
3
3
3
3
3
3
3
5
5
5
5
5
5
5
5
5
5
5
5
5
5
5
5
5
5
5
5
5
5
5
5
5
5
5
5
5
5
5
5
5
5
5
5
5
5
5
5
5
5
5
5
5
5
5
5
5
5
5
5
5
5
5
5
5
5
5
5
5
5
5
5
5
5
5
5
5
5
5
5
5
5
5
5
5
5
5
5
5
5
5
5
5
5
5
5
5
5
5
5
5
5
5
5
5
5
5
5
5
5
5
5
5
5
5
5
5
5
5
5
5
5
5
5
5
5
5
5
5
5
5
5
5
5
5
5
5
5
5
5
5
5
5
5
5
5
5
5
5
5
5
5
5
5
5
5
5
5
5
5
5
5
5
5
5
5
5
5
5
5
5
5
5
5
5
5
5
5
5
5
5
5
5
5
5
5
5
5
5
5
5
5
5
5
5
5
5
5
5
5
5
5
5
5
5
5
5
5
5
5
5
5
5
5
5
5
5
5
5
5
5
5
5
5
5
5
5
5
5
5
5
5
5
5
5
5
5
5
5
5
5
5
5
5
5
5
5
5
5
5
5
5
5
5
5
5
5
5
5
5
5
5
5
5
5
5
5
5
5
5
5
5
5
5
5
5
5
5
5
5
5
5
5
5
5
5
5
5
5
5
5
5
5
5
5
5
5
5
5
5
5
5
5
5
5
5
5
5
5
5
5
5
5
5
5
5
5
5
5
5
5
5
5
5
5
5
5
5
5
5
5
5
5
5
5
5
5
5
5
5
5
5
5
5
5
5
5
5
5
5
5
5
5
5
5
5
5
5
5
5
5
5
5
5
5
5
5
5
5
5
5
5
5
5
5
5
5
5
5
5
5
5
5
5
5
5
5
5
5
5
5
5
5
5
5
5
5
5
5
5
5
5
5
5
5
5
5
5
5
5
5
5
5
5
5
5
5
5
5
5
5
5
5
5
5
5
5
5
5
5
5
5
5
5
5
5
5
5
5
5
5
5
5
5
5
5
5
5
5
5
5
5
5
5
5
5
5
5
5
5
5
5
5
5
5
5
5
5
5
5
5
5
5
5
5
5
5
5
5
5
5
5
5
5
5
5
5
5
5
5
5
5
5
5
5
5
5
5
5
5
5
5
5
5
5
5
5
5
5
5
5
5
5
5
5
5
5
5
5
5
5
5
5
5
5
5
5
5
5
5
5
5
5
5
5
5
5
5
5
5
5
5
5
5
5
5
5
5
5
5
5
5
5
5
5
5
5
5
5
5
5
5
5
5
5
5
5
5
5
5
5
5
5
5
5
5
5
5
5
5
5
5
5
5
5
5
5
5
5
5
5
5
5
5
5
5
5
5
5
5
5
5
5
5
5
5
5
5
5
5
5
5
5
5
5
5
5
5
5
5
5
5
5
5
5
5
5
5
5
5
5
5
5
5
5
5
5
5
5
5
5
5
5
5
5
5
5
5
5
5
5
5
5
5
5
5
5
5
5
5
5
5
5
5
5
5
5
5
5
5
5
5
5
5
5
5
5
5
5
5
5
5
5
5
5
5
5
5
5
5
5
5
5
5
5
5
5
5
5
5
5
5
5
5
5
5
5
5
5
5
5
5
5
5
5
5
5
5
5
5
5
5
5
5
5
5
5
5
5
5
5
5
5
5
5
5
5
5
5
5
5
5
5
5
5
5
5
5
5
5
5
5
5
5
5
5
5
5
5
5
5
5
5
5
5
5
5
5
5
5
5
5
5
5
5
5
5
5
5
5
5
5
5
5
5
5
5
5
5
5
5
5
5
5
5
5
5
5
5
5
5
5
5
5
5
5
5
5
5
5
5
5
5
5
5
5
5
5
5
5
5
5
5
5
5
5
5
5
5
5
5
5
5
5
5
5
5
5
5
5
5
5
5
5
5
5
5
5
5
5
5
5
5
5
5
5
5
5
5
5
5
5
5
5
5
5
5
5
5
5
5
5
5
5
5
5
5
5
5
5
5
5
5
5
5
5
5
5
5
5
5
5
5
5
5
5
5
5
5
5
5
5
5
5
5
5
5
5
5
5
5
5
5
5
5
5
5
5
5
5
5
5
5
5
5
5
5
5
5
5
5
5
5
5
5
5
5
5
5
5
5
5
5
5
5
5
5
5
5
5
5
5
5
5
5
5
5
5
5
5
5
5
5
5
5
5
5
5
5
5
5
5
5
5
5
5
5
5
5
5
5
5
5
5
5
5
5
5
5
5
5
5
5
5
5
5
5
5
5
5
5
5
5
5
5
5
5
5
5
5
5
5
5
5
5
5
5
5
5
5
5
5
5
5
5
5
5
5
5
5
5
5
5
5
5
5
5
5
5
5
5
5
5
5
5
5
5
5
5
5
5
5
5
5
5
5
5
5
5
5
5
5
5
5
5
5
5
5
5
5
5
5
5
5
5
5
5
5
5
5
5
5
5
5
5
5
5
5
5
5
5
5
5
5
5
5
5
5
5
5
5
5
5
5
5
5
5
5
5
5
5
5
5
5
5
5
5
5
5
5
5
5
5
5
5
5
5
5
5
5
5
5
5
5
5
5
5
5
5
5
5
5
5
5
5
5
5
5
5
5
5
5
5
5
5
5
5
5
5
5
5
5
5
5
5
5
5
5
5
5
5
5
5
5
5
5
5
5
5
5
5
5
5
5
5
5
5
5
5
5
5
5
5
5
5
5
5
5
5
5
5
5
5
5
5
5
5
5
5
5
5
5
5
5
5
5
5
5
5
5
5
5
5
5
5
5
5
5
5
5
5
5
5
5
5
5
5
5
5
5
5
5
5
5
5
5
5
5
5
5
5
5
5
5
5
5
5
5
5
5
5
5
5
5
5
5
5
5
5
5
5
5
5
5
5
5
5
5
5
5
5
5
5
5
5
5
5
5
10
10
10
10
10
10
10
10
10
10
10
10
10
10
10
10
10
10
10
10
10
10
10
10
10
10
10
10
10
10
10
10
10
10
10
10
10
10
10
10
10
10
10
10
10
10
10
10
10
10
10
10
10
10
10
10
10
10
10
10
10
10
10
10
10
10
10
10
10
10
10
10
10
10
10
10
10
10
10
10
10
10
10
10
10
10
10
10
10
10
10
10
10
10
10
10
10
10
10
10
10
10
10
10
10
10
10
10
10
10
10
10
10
10
10
10
10
10
10
10
10
10
10
10
10
10
10
10
10
10
10
10
10
10
10
10
10
10
10
10
10
10
10
10
10
10
10
10
10
10
10
10
10
10
10
10
10
10
10
10
10
10
10
10
10
10
10
10
10
10
10
10
10
10
10
10
10
10
10
10
10
10
10
10
10
10
10
10
10
10
10
10
10
10
10
10
10
10
10
10
10
10
10
10
10
10
10
10
10
10
10
10
10
10
10
10
10
10
10
10
10
10
10
10
10
10
10
10
10
10
10
10
10
10
10
10
10
10
10
10
10
10
10
10
10
10
10
10
10
10
10
10
10
10
10
10
10
10
10
10
10
10
10
10
10
10
10
10
10
10
10
10
10
10
10
10
10
10
10
10
10
10
10
10
10
10
10
10
10
10
10
10
10
10
10
10
10
10
10
10
10
10
10
10
10
10
10
10
10
10
10
10
10
10
10
10
10
10
10
10
10
10
10
10
10
10
10
10
10
10
10
10
10
10
10
10
10
10
10
10
10
10
10
10
10
10
10
10
10
10
10
10
10
10
10
10
10
10
10
10
10
10
10
10
10
10
10
10
10
10
10
10
10
10
10
10
10
10
10
10
10
10
10
10
10
10
10
10
10
10
10
10
10
10
10
10
10
10
10
10
10
10
10
10
10
10
10
10
10
10
10
10
10
10
10
10
10
10
10
10
10
10
10
10
10
10
10
10
10
10
10
10
10
10
10
10
10
10
10
10
10
10
10
10
10
10
10
10
10
10
10
10
10
10
10
10
10
10
10
10
10
10
10
10
10
10
10
10
10
10
10
10
10
10
10
10
10
10
10
10
10
10
10
10
10
10
10
10
10
10
10
10
10
10
10
10
10
10
10
10
10
10
10
10
10
10
10
10
10
10
10
10
10
10
10
10
10
10
10
10
10
10
10
10
10
10
10
10
10
10
10
10
10
10
10
10
10
10
10
10
10
10
10
10
10
10
10
10
10
10
10
10
10
10
10
10
10
10
10
10
10
10
10
10
10
10
10
10
10
10
10
10
10
10
10
10
10
10
10
10
10
10
10
10
10
10
10
10
10
10
10
10
10
10
10
10
10
10
10
10
10
10
10
10
10
10
10
10
10
10
10
10
10
10
10
10
10
10
10
10
10
10
10
10
10
10
10
10
10
10
10
10
10
10
10
10
10
10
10
10
10
10
10
10
10
10
10
10
10
10
10
10
10
10
10
10
10
10
10
10
10
10
10
10
10
10
10
10
10
10
10
10
10
10
10
10
10
10
10
10
10
10
10
10
10
10
10
10
10
10
10
10
10
10
10
10
10
10
10
10
10
10
10
10
10
10
10
10
10
10
10
10
10
10
10
10
10
10
10
10
10
10
10
10
10
10
10
10
10
10
10
10
10
10
10
10
10
10
10
10
10
10
10
10
10
10
10
10
10
10
10
10
10
10
10
10
10
10
10
10
10
10
10
10
10
10
10
10
10
10
10
10
10
10
10
10
10
10
10
10
10
10
10
10
10
10
10
10
10
10
10
10
10
10
10
10
10
10
10
10
10
10
10
10
10
10
10
10
10
10
10
10
10
10
10
10
10
10
10
10
10
10
10
10
10
10
10
10
10
10
10
10
10
10
10
10
10
10
10
10
10
10
10
10
10
10
10
10
10
10
10
10
10
10
10
10
10
10
10
10
10
10
10
10
10
10
10
10
10
10
10
10
10
10
10
10
10
10
10
10
10
10
10
10
10
10
10
10
10
10
10
10
10
10
10
10
10
10
10
10
10
10
10
10
10
10
10
10
10
10
10
10
10
10
10
10
10
10
10
10
10
10
10
10
10
10
10
10
10
10
10
10
10
10
10
10
10
10
10
10
10
10
10
10
10
10
10
10
10
10
10
10
10
10
10
10
10
10
10
10
10
10
10
10
10
10
10
10
10
10
10
10
10
10
10
10
10
10
10
10
10
10
10
10
10
10
10
10
10
10
10
10
10
10
10
10
10
10
10
10
10
10
10
10
10
10
10
10
10
10
10
10
10
10
10
10
10
10
10
10
10
10
10
10
10
10
10
10
10
10
10
10
10
10
10
10
10
10
10
10
10
10
10
10
10
10
10
10
10
10
10
10
10
10
10
10
10
10
10
10
10
10
10
10
10
10
10
10
10
10
10
10
10
10
10
10
10
10
10
10
10
10
10
10
10
10
10
10
10
10
10
10
10
10
10
10
10
10
10
10
10
10
10
10
10
10
10
10
10
10
10
10
10
10
10
10
10
10
10
10
10
10
10
10
10
10
10
10
10
10
10
10
10
10
10
10
10
10
10
10
10
10
10
10
10
10
10
10
10
10
10
10
10
10
10
10
10
10
10
10
10
10
10
10
10
10
10
10
10
10
10
10
10
10
10
10
10
10
10
10
10
10
10
10
10
10
10
10
10
10
10
10
10
10
10
10
10
10
10
10
10
10
10
10
10
10
10
10
10
10
10
10
10
10
10
10
10
10
10
10
10
10
10
10
10
10
10
10
10
10
10
10
10
10
10
10
10
10
10
10
10
10
10
10
10
10
10
10
10
10
10
10
10
10
10
10
10
10
10
10
10
10
10
10
10
10
10
10
10
10
10
10
10
10
10
10
10
10
10
10
10
10
10
10
10
10
10
10
10
10
10
10
10
10
10
10
10
10
10
10
10
10
10
10
10
10
10
10
10
10
10
10
10
10
10
10
10
10
10
10
10
10
10
10
10
10
10
10
10
10
10
10
10
10
10
10
10
10
10
10
10
10
10
10
10
10
10
10
10
10
10
10
10
10
10
10
10
10
10
10
10
10
10
10
10
10
10
10
10
10
10
10
10
10
10
10
10
10
10
10
10
10
10
10
10
10
10
10
10
10
10
10
10
10
10
10
10
10
10
10
10
10
10
10
10
10
10
10
10
10
10
10
10
10
10
10
10
10
10
10
10
10
10
10
10
10
10
10
10
10
10
10
10
10
10
10
10
10
10
10
10
10
10
10
10
10
10
10
10
10
10
10
10
10
10
10
10
10
10
10
10
10
10
10
10
10
10
10
10
10
10
10
10
10
10
10
10
10
10
10
10
10
10
10
10
10
10
10
10
10
10
10
10
10
10
10
10
10
10
10
10
10
10
10
10
10
10
10
10
10
10
10
10
10
10
10
10
10
10
10
10
10
10
10
10
10
10
10
10
10
10
10
10
10
10
10
10
10
10
10
10
10
10
10
10
10
10
10
10
10
10
10
10
10
10
10
10
10
10
10
10
10
10
10
10
10
10
10
10
10
10
10
10
10
10
10
10
10
10
10
10
10
10
10
10
10
10
10
10
10
10
10
10
10
10
10
10
10
10
10
10
10
10
10
10
10
10
10
10
10
10
10
10
10
10
10
10
10
10
10
10
10
10
10
10
10
10
10
10
10
10
10
10
10
10
10
10
10
10
10
10
10
10
10
10
10
10
10
10
10
10
10
10
10
10
10
10
10
10
10
10
10
10
10
10
10
10
10
10
10
10
10
10
10
10
10
10
10
10
10
10
10
10
10
10
10
10
10
10
10
10
10
10
10
10
10
10
10
10
10
10
10
10
10
10
10
10
10
10
10
10
10
10
10
10
10
10
10
10
10
10
10
10
10
10
10
10
10
10
10
10
10
10
10
10
10
10
10
10
10
10
10
10
10
10
10
10
10
10
10
10
10
10
10
10
10
10
10
10
10
10
10
10
10
10
10
10
10
10
10
10
10
10
10
10
10
10
10
10
10
10
10
10
10
10
10
10
10
10
10
10
10
10
10
10
10
10
10
10
10
10
10
10
10
10
10
10
10
10
10
10
10
10
10
10
10
10
10
10
10
10
10
10
10
10
10
10
10
10
10
10
10
10
10
10
10
10
10
10
10
10
10
10
10
10
10
10
10
10
10
10
10
10
10
10
10
10
10
10
10
10
10
10
10
10
10
10
10
10
10
10
10
10
10
10
10
10
10
10
10
10
10
10
10
10
10
10
10
10
10
10
10
10
10
10
10
10
10
10
10
10
10
10
10
10
10
10
10
10
10
10
10
10
10
10
10
10
10
10
10
10
10
10
10
10
10
10
10
10
10
10
10
10
10
10
10
10
10
10
10
10
10
10
10
10
10
10
10
10
10
10
10
10
10
10
10
10
10
10
10
10
10
10
10
10
10
10
10
10
10
10
10
10
10
10
10
10
10
10
10
10
10
10
10
10
10
10
10
10
10
10
10
10
10
10
10
10
10
10
10
10
10
10
10
10
10
10
10
10
10
10
10
10
10
10
10
10
10
10
10
10
10
10
10
10
10
10
10
10
10
10
10
10
10
10
10
10
10
10
10
10
10
10
10
10
10
10
10
10
10
10
10
10
10
10
10
10
10
10
10
10
10
10
10
10
10
10
10
10
10
10
10
10
10
10
10
10
10
10
10
10
10
10
10
10
10
10
10
10
10
10
10
10
10
10
10
10
10
10
10
10
10
10
10
10
10
10
10
10
10
10
10
10
10
10
10
10
10
10
10
10
10
10
10
10
10
10
10
10
10
10
10
10
10
10
10
10
10
10
10
10
10
10
10
10
10
10
10
10
10
10
10
10
10
10
10
10
10
10
10
10
10
10
10
