# vtk DataFile Version 2.0
whisker_body, Created by Gmsh 4.13.1 
ASCII
DATASET UNSTRUCTURED_GRID
POINTS 571 double
10 0 0
7.481545381612207 0 32
12 0 0
6.490880522276705 0 70
9.720171709068023 0 3.555555555555555
9.440343418136045 0 7.11111111111111
9.16051512720407 0 10.66666666666667
8.880686836272092 0 14.22222222222222
8.600858545340115 0 17.77777777777778
8.321030254408138 0 21.33333333333333
8.041201963476162 0 24.88888888888889
7.761373672544185 0 28.44444444444444
9.238795325112871 3.826834323650888 0
7.071067811865488 7.071067811865462 0
3.826834323650923 9.238795325112857 0
3.391901413832837e-14 10 0
-3.826834323650852 9.238795325112886 0
-7.071067811865434 7.071067811865516 0
-9.238795325112843 3.826834323650956 0
-10 7.227892037515737e-14 0
-9.238795325112898 -3.826834323650822 0
-7.07106781186552 -7.07106781186543 0
-3.826834323650945 -9.238795325112848 0
-4.624589118372729e-14 -10 0
3.826834323650859 -9.238795325112884 0
7.071067811865461 -7.071067811865489 0
9.238795325112864 -3.826834323650904 0
6.479208360042316 3.7407726908061 32
3.740772690806114 6.479208360042308 32
1.0425533261146e-14 7.481545381612207 32
-3.740772690806097 6.479208360042318 32
-6.47920836004231 3.740772690806112 32
-7.481545381612207 7.561172214381805e-15 32
-6.479208360042317 -3.740772690806099 32
-3.740772690806107 -6.479208360042312 32
-8.019284744595159e-15 -7.481545381612207 32
3.740772690806099 -6.479208360042317 32
6.479208360042312 -3.740772690806107 32
11.34980690040761 3.896393630456207 0
9.469686112756717 7.370552552276022 0
6.563377897469113 10.04599773915035 0
2.945825845689581 11.63280319127197 0
-0.9909521456679979 11.95901391608004 0
-4.820345095835646 10.98927991986068 0
-8.127378859508902 8.82868692807757 0
-10.55368501447787 5.71136871644487 0
-11.83633564083267 1.975135083368787 0
-11.83633564083267 -1.975135083368821 0
-10.55368501447786 -5.711368716444897 0
-8.12737885950888 -8.828686928077589 0
-4.820345095835619 -10.9892799198607 0
-0.9909521456679715 -11.95901391608004 0
2.945825845689616 -11.63280319127196 0
6.563377897469155 -10.04599773915032 0
9.469686112756747 -7.370552552275983 0
11.34980690040762 -3.896393630456205 0
5.460476170550379 3.509234951570297 70
2.69640921655526 5.904312601086342 70
-0.9237486117790363 6.424812717636788 70
-4.250622782769287 4.905480191894958 70
-6.227954253695701 1.828692365693239 70
-6.227954253695695 -1.82869236569326 70
-4.250622782769273 -4.905480191894971 70
-0.9237486117790209 -6.42481271763679 70
2.696409216555272 -5.904312601086336 70
5.460476170550383 -3.509234951570289 70
11.69393780679315 0 3.888888888888888
11.3878756135863 0 7.777777777777777
11.08181342037945 0 11.66666666666667
10.7757512271726 0 15.55555555555555
10.46968903396575 0 19.44444444444444
10.1636268407589 0 23.33333333333333
9.857564647552053 0 27.22222222222222
9.551502454345203 0 31.11111111111111
9.245440261138352 0 35
8.939378067931504 0 38.88888888888889
8.633315874724653 0 42.77777777777777
8.327253681517803 0 46.66666666666666
8.021191488310954 0 50.55555555555556
7.715129295104104 0 54.44444444444444
7.409067101897254 0 58.33333333333333
7.103004908690405 0 62.22222222222221
6.796942715483555 0 66.11111111111111
-1.80110263040478 9.574314308701387 3.275004639010424
-1.899033628551287 -9.547086757690693 3.378259073889251
-7.392207125328694 2.323768106176668 28.60361536596533
-9.50580402011458 -2.099577445790243 3.3682468220249
-5.218560433866673 -5.72954087478796 28.59018075653422
7.780213982390118 3.317317949101259 19.59404634849382
8.223165371270079 -2.96403518478291 15.99647776276879
8.124905457652567 3.964685961696697 12.19006922260573
2.003870823096769 -7.47854772360205 28.68600655289148
-1.892075155281171 7.510601366545645 28.64916443295811
8.790782223914427 -3.046122199116933 8.848778796273475
5.407990230489525 8.093629343389251 3.37825907388924
-7.926523192791362 5.661392284106312 3.294786699408232
7.655160232897376 -2.894757337721855 23.0719509380421
5.345657965679248 -8.140038589530551 3.324039211610421
5.474676900505274 5.474676900505262 28.68600655289148
9.085491886356012 3.048589849785781 5.294394430056237
2.078290700693381 7.461034574981743 28.65142189919355
0.04335055241731785 8.000837025011347 25.40028182861903
-3.682272344838191 7.115645181997294 25.26041714699718
-1.816496137055171 8.060921041106164 22.06995701618636
-5.446335835652611 6.235125056035956 21.86928337874034
-3.572729495205149 7.745544694546842 18.68038616019335
-6.616492694521813 5.418716803254348 18.39578876449714
-5.188621817406473 7.107715275822513 15.2464257218585
-7.742030226155221 4.240271119137359 14.90221739713437
-8.349533275312513 1.996018534807805 17.98181734096894
-8.843488444910346 0.6179200694888138 14.42090592940903
-8.431224316320606 -1.832796794992151 17.43121671540156
-8.311410896248143 -3.217634498127178 13.81795017621971
-6.869980887398108 -5.309224469434533 16.74137918375451
-6.264424177050238 -6.420674289510355 13.08231374917101
-4.040932967081085 -7.758538174261172 15.91067398003036
-1.655231970531786 8.626044727444912 15.45813363893559
-3.153392400750099 -8.469696961686566 12.22744163842993
-0.4777738649047187 -8.810412217299543 14.95066501950398
-1.432667633941571 -8.41378816315795 18.61597236761395
0.487995785060193 -9.100154963250024 11.26748172567533
-3.441544281272445 8.370097837754638 12.0707085722591
0.3316672896048132 9.033341726967738 12.20521930902551
2.14633841639953 8.514395478075732 15.49194722943933
-7.098406738406293 -4.430269511055865 20.74317540831281
-8.620893078549232 2.929802124579449 11.37029980919004
-5.583910438256679 -7.385355212246637 9.419108402003717
1.992080785758697 8.014690413411383 22.12722010140551
2.228302179835732 -8.323051727188016 17.58312761882326
1.254521441055527 -8.231293812952947 21.26580246037349
-2.327019930117336 -7.912605793180824 22.26523900210862
3.925582149766849 8.142993994450809 12.20010256025981
2.30112165239647 9.004295418468983 8.974640445413911
5.700304074528483 7.344867612134569 8.928131087438672
5.180899815743272 7.09959210755297 15.38764042010768
4.492702629884398 -7.11921061348347 20.09758380332961
3.998780239607052 -7.093698046363039 23.59359158651526
5.478545908246472 -6.762410172095089 16.47816083067207
-6.668773115829781 4.475155242076866 25.01646960461901
3.875741585310489 7.003720868883711 25.35407388312665
5.540580901107797 6.148636430000443 21.89659972032649
6.808102415906841 4.303446891574289 24.72390985449035
-5.316858768877675 5.636042391621587 28.61235842133381
-7.967843826001721 1.1261434990174 24.8148030349814
-7.607523382993581 -1.799290990361877 27.73246710396644
-6.432918657252839 -4.808762367804269 25.01086223610109
0.2019761458907836 8.52083289958067 18.76418815749074
3.139474916698303 -8.336257274755157 13.87729797339008
4.711256647356007 -7.892688238928591 10.26827025318708
1.551449597822157 -9.265348143311872 7.695607475416383
6.242009833193978 -6.484363847145743 12.69938505364472
5.36324796199711 -5.591190109221809 28.61902112485939
-1.862785778887267 -7.519518102205079 28.62944574364235
0.140322986389018 -8.002113782579782 25.36991964784307
-7.643250935197226 3.225207535810569 21.65318591913083
3.565590740120183 7.749898946374823 18.66808828770366
8.160005703293013 -3.833440402338488 12.50804781459809
8.805667528427813 3.002534993237085 8.849950295145497
8.215308210203601 2.994449217246275 15.95864504850087
7.969768045308146 -2.837236194263858 19.5709257063617
9.105667195179411 -2.959085529304511 5.407610189959282
7.232358926105791 -6.100381313062506 6.841159460938631
-4.633836230390944 -7.084405119471456 19.50026493008348
7.301432898602207 -3.029546948728458 26.619457060662
-7.994136200831618 -4.538102676709395 10.26127402496439
-7.666780742754732 -5.619720880513292 6.279034722661119
-9.210274253071191 -1.988549180000184 7.337851164702552
-9.467322652040185 1.284107902991368 5.666824141952844
-3.956221257498908 -8.663045562269465 6.052510082574228
-1.905155740380384 -9.123773202612936 8.633092066877618
-6.618684805056581 6.197955575735205 11.84707464741352
-5.134431758945876 7.776984815943103 8.652842720718393
-9.095762520721038 -0.8871036118786181 10.941065805757
-1.533936185366866 9.174678537589326 8.868601374891723
1.911797559058134 -9.530981852704704 3.547159090214651
1.968131465983302 9.539385060028264 3.299824393804983
-5.259933346037216 8.202517590161806 3.251055651339665
-7.749751399167095 5.165019450298563 8.726363262293956
-8.327678595199542 0.1434381718494293 21.23316323166761
7.988553322452688 -5.593100428266326 3.152277161449813
7.974566132777152 5.614867372017814 3.138802818624261
-3.99036192627893 -6.907603585105382 25.70031445858663
-8.200958691450673 -5.330866995960475 2.778823140221466
4.820400408307389 -8.143915707421804 6.815676570259878
6.457693315603622 6.335355554956775 12.1158081451567
7.403268616631753 5.886310352842285 6.88456527583533
6.453571712107033 5.621347609794848 18.31583486850214
0.497372945975549 9.492183753310975 6.286959780354354
7.23107532360055 2.991011704584309 27.63276696064972
4.028521910706545 8.600143288645389 6.392261639082768
-4.945990866573763 -6.56102160791553 22.66232188276553
6.063885639587781 -5.297742204425691 24.75004766102976
7.097600103873847 -5.877642771121314 9.969967559941537
-3.389399993185689 8.887208904359243 6.205723842942332
-6.636253295702518 6.837430462032023 5.992308449893292
-5.780593962501645 -7.895310105007484 2.728611596703828
-9.611376487635788 1.911821650932886 2.545377007408853
7.776500154017584 2.699482067601581 22.46817099222724
-9.131668217472461 1.8342922633953 8.715503868415485
6.48213841774209 -5.225805566965195 21.26645834057277
7.182290922146307 -2.734216492278928 29.41319595472756
9.447306195811917 2.602722623828507 2.550473116064876
9.438401002822975 -2.627002674352922 2.577188786087996
-7.873096534387356 -1.896985886753664 24.16202327026819
6.897672334336988 -5.063700554108457 18.33750506485539
-8.635027757277003 4.035566116732385 5.95285291869777
3.830280165386923 -6.914515339584061 26.62549173081453
-0.8326384000758676 -9.488758148802361 6.032650641833412
7.097317180096232 5.275618311993003 14.69719170132164
7.146242982815514 -5.163145930558218 15.04053705207696
7.154918398619858 2.713372321169106 29.83238979824537
7.548055357531336 5.345044295475597 9.543295861995428
-1.086174355484786 -3.989357930634022 32
1.150474305398357 3.90782886106775 32
3.830916320198724 -0.7049911847006216 32
-3.766616370285155 0.6234621151343529 32
-2.159736120014099 3.740772690806105 32
-0.6995297726131326 1.130092038006782 32
-1.742878727993416 -1.444700139713539 32
0.8346009006028343 -1.250467612929801 32
2.299887319360862 -3.941057193454178 32
1.771446888878578 1.315729516710281 32
4.075727324489383 2.456424707320969 32
-4.049532647703997 -2.505096167676935 32
-5.961406522715208 9.031957496229163 0
-5.96140652271524 -9.03195749622914 0
8.471493693702204 3.305083133274469 36.93195504006688
9.12024591028915 -3.327061996255039 29.12068223207022
7.480602335062962 -3.30586737815997 48.55652201354238
9.450417110476149 3.31361308864769 25.22803944531748
7.483216511994405 3.301079207683854 48.5507094457618
-11.73088669374762 -1.940162152660215e-14 3.419408766471568
-2.879762434608137 -11.37192468062312 3.419408766471415
-2.879762434608169 11.37192468062311 3.419408766471416
9.651249461501015 -4.492755666531373 17.20769012470526
-5.6489378831646 3.656791210848561 66.97140270108116
-2.997120918387266 -6.02871756829087 66.92841129514439
10.40992648181597 3.337958848345632 13.57027627075293
6.812365077321208 -3.293518903338332 56.32988361258764
5.929151854752794 4.167627341730284 60.38825145241592
8.141026838319975 -3.315694598105127 40.78254553741689
10.61191769476084 -3.711389704420279 9.62867726228378
7.94511337650488 8.630693833987415 3.419408766471522
-9.257317901175377 7.20525973842184 3.419408766471709
-9.270845421492016 -7.192506362949151 3.383117134659854
4.712243512000845 -10.74283313214679 3.419408766471714
0.9878800136711519 6.667665362755049 66.8289171327261
6.113497538291999 -3.334971641850821 63.98881925906856
10.31700692552853 -5.583284939902463 3.41940876647138
11.08257688853625 3.219591297337824 5.835121916429649
8.795163772731252 3.323644629425852 33.00807421887499
6.480808973725249 -3.277025769982694 60.19925208222763
4.554570568871301 -5.867446128989847 58.09631488999862
4.941039860644231 -5.942154043951461 54.28001418845407
1.767970569848087 -7.391515078492856 55.90712103697911
2.207257558778864 -7.583145931678086 52.12271469896217
-1.261240401955144 -7.674278189450471 53.65540745144916
-0.9141068581720007 -8.053566939106787 49.48713486104209
6.88241637594081 6.189311476696437 34.86466189412359
6.517833041050251 6.134022190773882 38.74975362996217
-1.723151756929313 -7.279927446022886 57.41829074984199
-4.522702981154562 -6.188215201242128 55.08419523026641
-4.809510693223735 -5.589070682500883 58.78473756357472
-6.7456945741487 -3.430040754927255 56.31813807445208
-6.610282489912002 -4.25078093173073 52.61551095747675
4.016161158028218 8.188940376210317 36.58419066635269
2.903284532438069 8.3167788620705 40.54593873255121
0.2672934437608138 9.003090320118771 38.02894278615062
0.9838141449996257 9.24723800871279 34.31406177181407
-2.659654661598384 8.78813617471363 35.80886898070868
-2.149334231472649 9.23516706076791 31.99447526553994
-5.4081190046099 7.651313772730233 33.42175715602637
-5.023911350384259 8.263270331874727 29.59729627382542
-7.725231394709049 -0.8096725577031586 53.77842796800361
-7.900014058423825 -1.58892488447284 50.08506777043035
-7.7181306481281 2.006885745190227 51.14525744062861
-8.188516705157543 1.123900314367933 47.45403680610637
-7.128089246789266 2.874709068293194 54.81538345309588
-6.842587598013696 4.496467827535198 48.43924615499962
-1.637775691819644 9.645076526934865 28.16788861170759
-4.62213294107666 8.836225728150765 25.76677265855849
-1.181352446887705 10.01705365565075 24.31365325546
-4.20032489640857 9.376517793907286 21.92674215794092
-7.167208375055535 7.210282658222702 23.29724528806419
-7.635963616212615 5.760832801613381 30.9356832114447
-6.856649894016224 7.909893008766612 19.46527982739896
-9.104103915411006 4.958044942738788 20.75399479158317
-3.779345061801817 9.879511161199938 18.07176316490967
-7.831791642706293 4.952251148866563 34.73670975485913
-8.968553659025289 5.775763360896358 16.9317081310238
-10.31292809557848 2.325806511059685 18.14525490515376
-9.16483920572151 2.382410999873291 32.15390340860503
-9.054672263602548 1.46696822013877 35.92379534187428
-7.936833199019835 -2.597812742561576 46.36284804481881
-9.290633117374648 -1.308930692728752 33.25994195907138
-10.17589574034631 1.406650571489626 21.94795023915909
-10.38716492258341 -1.425398857515008 19.2561219183084
-9.914524902381761 -2.343036373412693 23.02845748146026
-9.131510236155865 -4.989105277904454 20.25929832545538
-8.304101831092622 -5.768943346451328 23.997940678475
-6.674011870109302 -7.891492137779651 21.15223016572253
-5.532203260891715 -8.383033830780839 24.85422635185421
-7.706929610171176 -7.318180934077095 17.43401746242968
-4.605674584150287 -9.506515151127443 18.25334331873348
-10.7707972116343 -0.4974101530538689 15.47264238721665
-5.836011917484567 -9.152013792271241 14.55599859345487
-2.257947998473739 -10.55701781183452 15.30101382527899
-0.878346755900293 -10.47073154079409 18.96391638445873
1.604147793545638 -10.6250608473173 15.94026617281666
-8.812337325750256 -2.222851479074659 36.99584477991049
-7.963103557220277 -4.813773591274969 34.24294220660332
-7.093137064017677 -5.56213483674903 37.94231925782457
-5.345070030073392 -7.533661123996755 35.10473015027225
-4.143704225818991 -7.932107094278084 38.76378626053467
-1.835894647040839 -8.993701961769728 35.84202811089308
-0.4553441289855891 -8.882970412318057 39.45742501363621
-2.966293424174631 8.36652020779537 39.68403378637682
2.96502328725485 -10.03140840600526 19.56213904901103
1.986934134675649 -8.912305552042548 36.45275402576465
0.609992455612938 -9.39402719949655 32.86064673346014
0.2147751972249579 -11.0297707125847 12.3013647256679
4.008340678719732 -10.22974910944611 12.8711582435018
-6.814217440057472 -2.574593280721406 59.91772222749587
1.928253148720916 9.715346620942649 26.62136210401807
2.394634595201534 9.92415192461762 22.7571952336418
-7.618978604290274 3.715103400562766 44.77048027550408
7.239565500539718 6.247322983978039 30.97207373295741
-2.780166968575617 -8.20612774204343 42.38425842452104
0.4303105079712093 -8.60479022353563 43.00360301749008
4.303920426711406 -8.325152373402355 33.393594606529
3.022891427742705 -9.167430637781466 29.82195738980753
0.5174385379020652 -10.20746913647164 22.60972873912823
4.264997145601619 -9.240172795897504 23.16362039278209
-5.228308861195224 6.583496631170689 45.65339932958697
-4.079101716554797 7.021964306523709 49.29017470226967
-1.687217109322262 8.175067468251264 46.41118351256332
-0.6323226161646553 8.04065939159246 49.99276332239307
-8.679037034614906 -6.630187578227337 13.70020459575308
-6.99221573676925 -8.681177333041271 10.83935481466111
-9.505489158642344 -5.950986460351255 9.978710609255456
2.650018823906354 7.864980478006046 47.02021585898535
-2.837305410193937 7.303729273142699 52.91523040543203
0.9161732433049899 7.729600904478561 53.57307482766504
-1.519476677464958 7.398149158811787 56.50986633807373
-6.452748166367114 -7.008399750833776 31.42784796042974
-9.669809975296113 -0.3848956825691033 29.51057842018925
6.095466720681388 6.143954574826475 42.50675652756513
-0.7323360870600879 -9.671498234542012 29.23462344948527
-7.949196876736432 4.15208465982731 38.52201499588885
6.398482532231396 -8.226810334590757 20.04862146023682
7.394968206755117 -6.941473117981583 23.60221528517052
5.280447094031437 8.531863811312306 24.98377606659241
5.686395927258051 8.634954743557833 21.10339548635324
2.829876453412812 10.12702777689372 18.86891502730871
6.077630505316626 8.739546655991058 17.21616539187735
3.268055991311904 10.31414626732383 14.99954378526486
6.487357506501683 8.822722643560503 13.32774058421357
3.690940482107019 10.49546956514236 11.11090633639364
0.1742508183986551 10.99793733802051 12.71487465721517
8.331774952123824 6.351471356427174 19.35632018633692
0.6315383662588095 11.287438658073 8.829639364912804
-2.971588247246497 10.78105821231549 10.37979677183559
2.722490120701532 -7.72990386152468 48.34296841126049
2.097676828525906 7.206923729608619 57.10171648356285
4.446474249718436 6.33944606545302 54.08566911292251
-0.1556520050761121 7.2709358810708 60.06729010449722
-3.751037918163271 6.294726474992427 59.36834520756597
-2.507855473950425 -6.735576826713322 61.15110470579636
6.841437417405512 8.933589771200218 9.50040847760307
2.764507330264694 -10.92353341458089 9.301923455822877
6.044305279383162 -9.481970608667051 9.598061528667522
7.305244276545839 -8.157759413548774 13.33389575836407
5.935357130699077 -6.897486401329619 36.85233422417031
-2.522142754263904 6.580875423878918 62.92579397531014
7.276267574147153 -5.85520146281955 33.80404567982525
-8.226240114645254 -3.11330665062817 40.71494960349134
-5.488782895857493 4.531703324576164 62.03423645832273
-1.080052354028937 -11.26279446099669 8.710585166861563
-6.277146859285737 6.016076668571566 41.99932148517941
0.3839482538165719 8.568289561304908 43.49476597829391
-2.752460437450242 6.139140446301582 66.98796133765728
0.6650133447138433 -11.53311184660445 5.688965840700975
-6.330545246348777 3.82368857809805 58.503162172458
4.115665695960351 -5.819200691454064 61.91049718584907
3.594370104947841 -5.810185414744269 65.6642461204537
5.471953237410159 -8.244578509782142 26.74378602912701
3.489371156186564 6.33260670177495 60.6044502928886
-1.512256565089714 -8.240444476859626 46.02114475123182
-4.405128992741912 -6.904868393629501 48.40577722236068
-8.176869091467438 -8.004783894989883 7.079852027287547
0.924820800356452 -6.939637010402471 63.51844964824282
7.13913636010506 -3.308103100745677 52.49768577498606
7.813587761153108 -3.307779757021105 44.66355584961679
6.121774907181443 -6.110452387934961 42.57220790231269
5.907951145315378 -5.884840543890974 46.52022379962021
6.140311095721447 3.269076605013464 64.08612727520487
6.841298885178948 3.232568972915844 56.33216075265245
7.017407124748602 3.563467549495631 52.4722634630627
-9.345865743039795 -3.241157756420721 26.78554913150816
7.814626571653105 3.30476739176907 44.66631478360522
5.367716596344404 5.974722944954407 50.42085300366974
5.685200995040897 6.095099144752809 46.56860703342583
7.877100048304648 -4.548588792585755 36.89801591518562
-7.076516466459872 1.246393886639249 61.17475410490005
9.138094265920083 3.277394342999679 29.1220869281224
7.980875189859861 6.305320318129253 23.23827921385679
9.450470213520656 -3.298327479300293 25.29153476265024
9.751304977221144 -3.365227137814658 21.40165436051804
5.260192953120657 -9.32205331997986 16.47039180787609
8.698517260190892 6.370281408192555 15.48018556971757
9.767219809843803 3.33260594746019 21.34491866499995
10.41486847520076 -3.308735152441685 13.6233596905794
10.74352182746011 3.296492046282969 9.68355428795512
9.100397474853505 6.921436280076913 7.198847278016943
9.006510599836902 6.474860166805596 11.53231774075556
-7.416127258240461 6.505353453775052 27.12752681804708
1.488872189696699 9.484035176780182 30.49246686727362
-0.7427046291155232 10.36362638339666 20.45438360669276
-9.96440709242294 0.45349550273394 25.73360462416064
-9.202993548150248 3.270914563176199 28.37316116116878
-0.2817606592024564 10.6901351144066 16.59623901418332
7.824338342077817 -7.259204913048827 16.85911136163815
-8.724396717820538 -3.993143721303376 30.56089223362207
-3.267738164710297 -9.740192671755846 21.9343784619525
-9.194113782058455 4.098087237929809 24.57273254259021
-3.382571485780012 10.34185655163341 14.21846158981917
-6.222446515723226 9.158840143293462 11.78331963874562
-5.857569312434347 9.752964199067449 7.91859017676696
-8.608982716552733 7.266180416247454 9.332441758685482
-5.927440759881403 5.223878372521946 52.08461623513395
-7.423827123814633 -6.427060115651013 27.70734768251414
-6.559012798745213 8.541684833652768 15.63563475656145
3.780646559506234 -8.009873728960002 39.93207490445433
7.642883590484589 6.236551077226529 27.1341783573464
-9.844675318003983 -4.186743370792819 16.54392504828146
-3.544457903579379 -10.50103947899694 11.65037279950616
-4.823737598444846 5.89070334461853 55.73288987405638
4.414800204650652 8.326277433923501 32.72742124607289
5.350633725335427 -5.98829537301162 50.4372539989776
-7.474204309631288 0.2606835142604117 57.4479414203427
-6.589674949615951 -2.333126899286592 63.65154466423573
-5.687382783816202 -3.603818678947403 66.92306798442449
-4.574159308537361 -5.278861246770859 63.72244948743031
-3.113367082026294 -8.936067070420995 32.23699739107025
-8.806546697195735 6.53801215036786 13.11057693455879
-10.41309025751693 4.042845264928036 10.54151653761121
-10.03049321311354 5.564953347793483 6.723986622860926
-11.31309975810649 1.536931075081651 7.40744232202089
-10.3857837809403 3.207822827216949 14.35933689753738
4.077712174280959 5.351275391265328 66.98909353600837
-11.07576609113686 0.4214293236052596 11.64166853325674
10.08891958193964 3.335586933530202 17.45798898571894
-1.944612932837336 -9.795588999769008 25.58082537122802
-10.49295536361153 -3.273583011247152 12.81109454340653
1.924890661368448 -9.75048616762227 26.19166618230199
8.133287781810116 3.329316035732667 40.80815737114661
-5.753866873114555 7.005667228242695 37.28420842524449
6.08435084394316 -7.440160018781159 30.35248876570641
1.144447323527338 -7.210934652365988 59.70407422762271
-8.86433530325305 0.5355358797330997 39.63703515110743
-8.554971916848544 -0.2423868276370608 43.72961089071835
-6.729942736128216 -1.113059952506895e-14 66.96242656611952
4.854427675727335 8.432087124261399 28.84787655227685
-4.9116656117601 -10.26083548083474 7.931001777515426
-6.057021473007123 -6.282043630236564 41.59392206333882
-11.03079753351092 -2.405366750974328 9.021302141968723
7.983739988406643 -8.602990854984792 3.344770207887585
9.020702469255749 -7.07718699114634 6.7903812208682
-6.45884642602813 9.799737685184185 3.344770207887513
-11.10603189100703 -3.79454127321739 3.349678800446281
-6.298682428293954 -9.879157375251012 3.605040337452768
4.71255902635723 10.74355243242771 3.40942859302714
4.171215814951526 10.63892937715831 7.275356617873682
0.9484142644196053 11.56843893469919 4.990352911702749
-4.431302350746276 -8.678478045604628 28.66070847197672
-11.09736854309932 3.80007248834626 3.431087175900573
0.9491641564848814 6.953066281784545 63.30799781891818
0.2301172101580312 -6.733256993624448 66.8703653216923
-4.975188378646945 -6.843653423473741 44.96758099722076
10.23150102214299 5.772003778761523 3.210542373292359
11.0729416002587 -3.18297190478548 6.081913120389219
9.036612850533942 -6.572603434914829 10.49463617507015
-2.900344472857135 8.098632502882424 43.17166416504629
-10.32792586758887 -5.03583441407186 6.477078591774908
-2.512036315015572 11.17549218675179 6.933241481246942
8.801022208677443 -3.29986585746244 33.04484679394677
6.358922635962171 -9.588351070622675 6.285513618929708
-4.271462959950616 -6.677464420864559 51.75509853578963
-6.554496206555353 -4.850491381421462 48.86730674677544
7.938191445243024 -5.864453811348233 27.07078053576403
-6.668616771397271 1.896472232464817 64.38181930096731
3.352939098199753 7.848418669087454 44.0317252978446
4.833515003461828 5.680164292570791 57.70700785714722
-8.154266349189182 3.102031998352762 41.62080334421067
3.641990262835334 -7.69528836829079 44.29878444836829
-7.483544477105469 -4.165527710765356 43.64890341269037
2.607980608809334 7.560588880236439 50.85335864752066
6.387006954447533 -6.175915074643537 39.58514786323099
-7.854389333449126 8.420351997301742 6.163317817837554
4.088508141488703 5.659186926990516 63.76522102593343
8.328300889713667 -6.276438437410318 19.96739688991742
5.586742204812301 -3.74373641948206 67.02369406581842
-11.37234965888883 -1.925069938675847 5.919397642065661
0.9748040532655473 -11.76413542209483 2.484652390870469
6.8327344812474 9.248121358807534 6.372986634115233
-2.018777549479268 -6.656767092421039 64.08820163191579
6.143183668061086 2.698073866079039 67.22130700302222
-4.381940076807644 5.334652482396638 64.75569661395257
11.42947086033016 2.836795110322626 2.842934230731131
11.4242258120163 -2.852565214613362 2.859198906567372
9.13213320456069 -5.916182901825625 14.21770827849017
1.30931528469111 -8.283565747706668 45.91509367024798
8.085627733520701 -5.077350479572523 31.16056475815984
-0.01580566831866877 8.787459603625761 40.8190153870278
0.9638285389723601 11.79536700739349 2.100591061128159
-2.77631579707491 -11.16487182296112 6.291080398588034
-5.484085641416808 -4.634687735104246 61.24114112563521
-4.705702407501152 10.56992059618791 5.462593692060059
3.844370682730291 -10.81443909553856 6.639948113548431
-0.9787040641295339 6.808927291798827 65.06966444721465
-6.669759129899306 -5.057597421084508 46.11739150599423
2.036762255503579 -2.465878735148001 70
-2.931242834104605 1.814244488222067 70
2.220444710834426 2.562529799245061 70
-0.6831995369230197 -3.496268133505534 70
-0.02234530465756696 0.03719856234068248 70
-3.39055316097431 -1.091717545806296 70
3.607782420842984 0.02230827107295836 70
-0.5196398350093629 3.614174438789244 70
0.6062712111646051 0.2869956493210171 40.00845139276942
-0.0006413840092900358 0.02130168291986134 48.16181700273705
0.0444231868063758 -0.01368421118489715 56.5801984837824
-0.1307551414885735 -0.2600913694272355 63.29042450981355
-2.43408082586406 -2.980147226855095 37.07076179350854
-1.011890657348541 -3.246002732095721 43.85421298856707
-2.4953746670846 2.265055337280545 43.9456333598864
3.598931596367106 -0.1661386657445645 44.32005023242914
-2.770601377788469 1.133287860967288 52.3906502723497
-3.273538689044672 2.230517324829071 37.00344817606643
2.14110472043552 -2.073695481978633 52.35102946071599
2.447361373733846 2.848084884472285 36.45024311865568
1.815448054760647 2.799524899872488 51.78864727024602
2.159614125737787 -2.273159600724624 36.38917591107138
-2.299177501325746 1.996935466360696 59.95477209275619
-4.032955748368766 -1.056377997197477 41.02739170572133
-1.910859764694615 -2.414549644347063 59.85359974521535
1.704640743161222 3.738246822491619 42.82699957479742
3.659496436003543 -2.862952243491002 40.7763799933082
2.417829595471667 -1.58522531633855 59.94637406848084
-1.884343328934392 -2.892915512792785 53.89041346948777
-3.677986132759773 -2.044066255988952 47.08006023440304
-1.90755747062133 2.228534072523645 66.03930838394218
-0.4198853724226024 4.76599668904997 39.14231820005561
2.225182020397458 -3.512378854143752 46.80794834416204
1.87136659922756 2.59325967824377 59.39579998338646
2.185562180457496 1.85204091925065 65.95065136093262
4.766276737327098 1.056107626185988 39.53739719768145
0.1118813380224982 4.20871693243975 46.88048038848147
4.261135913899542 0.4553429628577716 48.52196532053154
-0.9240293192666481 -3.798244539023781 49.83038124985968
-0.03411790786511576 -4.738758960536634 40.04469294043721
-0.7290023954899052 3.678546281820034 54.91318963227656
-1.945770882543817 -2.158755345281253 66.37148096286889
1.987834268400856 -2.086673662712867 66.07299769839804
-3.684966279675482 1.84785455979124 48.43602433917732
3.696302426820488 0.7995452460880988 54.85852945142841
-3.756311740940884 1.256157254174933 56.28411015153492
-0.6994284543135658 -0.3687363506712913 35.28300022636963
0.6649328604950218 -3.849715520844939 57.23844288332116
-5.390714651444514 -0.804632056015687 35.4028444068568
0.01675092262769629 -5.561325325168293 35.42100038962283

CELLS 2906 13294
1 0
1 1
1 2
1 3
2 0 4
2 4 5
2 5 6
2 6 7
2 7 8
2 8 9
2 9 10
2 10 11
2 11 1
2 0 12
2 12 13
2 13 14
2 14 15
2 15 16
2 16 17
2 17 18
2 18 19
2 19 20
2 20 21
2 21 22
2 22 23
2 23 24
2 24 25
2 25 26
2 26 0
2 1 27
2 27 28
2 28 29
2 29 30
2 30 31
2 31 32
2 32 33
2 33 34
2 34 35
2 35 36
2 36 37
2 37 1
2 2 38
2 38 39
2 39 40
2 40 41
2 41 42
2 42 43
2 43 44
2 44 45
2 45 46
2 46 47
2 47 48
2 48 49
2 49 50
2 50 51
2 51 52
2 52 53
2 53 54
2 54 55
2 55 2
2 3 56
2 56 57
2 57 58
2 58 59
2 59 60
2 60 61
2 61 62
2 62 63
2 63 64
2 64 65
2 65 3
2 2 66
2 66 67
2 67 68
2 68 69
2 69 70
2 70 71
2 71 72
2 72 73
2 73 74
2 74 75
2 75 76
2 76 77
2 77 78
2 78 79
2 79 80
2 80 81
2 81 82
2 82 3
3 0 201 4
3 4 202 0
3 12 201 0
3 0 202 26
3 1 200 11
3 11 210 1
3 1 210 27
3 37 200 1
3 4 99 5
3 5 160 4
3 4 201 99
3 160 202 4
3 6 93 5
3 5 157 6
3 93 160 5
3 99 157 5
3 6 90 7
3 7 156 6
3 6 157 90
3 6 156 93
3 8 89 7
3 7 158 8
3 89 156 7
3 90 158 7
3 8 88 9
3 9 159 8
3 8 158 88
3 8 159 89
3 10 96 9
3 9 197 10
3 88 197 9
3 96 159 9
3 11 163 10
3 10 188 11
3 10 163 96
3 141 188 10
3 10 197 141
3 11 200 163
3 188 210 11
3 13 180 12
3 180 201 12
3 14 94 13
3 94 180 13
3 15 175 14
3 14 175 94
3 16 83 15
3 83 175 15
3 17 176 16
3 16 176 83
3 18 95 17
3 95 176 17
3 19 196 18
3 18 196 95
3 20 86 19
3 86 196 19
3 21 182 20
3 20 182 86
3 22 195 21
3 21 195 182
3 23 84 22
3 84 195 22
3 24 174 23
3 23 174 84
3 25 97 24
3 97 174 24
3 26 179 25
3 25 179 97
3 26 202 179
3 27 98 28
3 27 210 98
3 28 100 29
3 98 100 28
3 29 92 30
3 29 100 92
3 30 142 31
3 92 142 30
3 31 85 32
3 31 142 85
3 32 144 33
3 85 144 32
3 33 87 34
3 33 144 87
3 34 152 35
3 87 152 34
3 35 91 36
3 35 152 91
3 36 151 37
3 91 151 36
3 151 200 37
3 83 187 175
3 176 193 83
3 83 193 187
3 168 195 84
3 84 207 168
3 174 207 84
3 85 142 138
3 138 143 85
3 143 144 85
3 165 166 86
3 86 182 165
3 166 167 86
3 167 196 86
3 144 145 87
3 145 181 87
3 87 181 152
3 88 186 140
3 140 197 88
3 158 186 88
3 89 209 156
3 159 204 89
3 204 209 89
3 157 211 90
3 90 208 158
3 184 208 90
3 90 211 184
3 91 206 151
3 152 153 91
3 153 206 91
3 100 101 92
3 101 102 92
3 102 142 92
3 156 192 93
3 93 161 160
3 93 192 161
3 175 189 94
3 94 185 180
3 94 189 185
3 95 194 176
3 95 205 194
3 196 205 95
3 96 199 159
3 163 191 96
3 191 199 96
3 97 179 161
3 161 183 97
3 97 183 174
3 98 139 100
3 98 141 139
3 98 188 141
3 98 210 188
3 99 185 157
3 180 185 99
3 99 201 180
3 100 139 101
3 101 103 102
3 101 127 103
3 101 139 127
3 103 104 102
3 104 138 102
3 138 142 102
3 103 105 104
3 103 146 105
3 127 146 103
3 105 106 104
3 106 154 104
3 104 154 138
3 105 107 106
3 105 116 107
3 105 146 116
3 107 108 106
3 108 109 106
3 109 154 106
3 107 170 108
3 116 121 107
3 121 170 107
3 108 110 109
3 108 125 110
3 108 170 125
3 110 111 109
3 111 178 109
3 109 178 154
3 110 112 111
3 110 172 112
3 125 172 110
3 112 113 111
3 113 124 111
3 124 178 111
3 112 114 113
3 112 164 114
3 112 172 164
3 114 115 113
3 115 162 113
3 113 162 124
3 114 117 115
3 114 126 117
3 114 164 126
3 117 118 115
3 118 119 115
3 119 162 115
3 116 122 121
3 116 123 122
3 116 146 123
3 117 120 118
3 117 169 120
3 126 169 117
3 118 128 119
3 120 147 118
3 118 147 128
3 128 129 119
3 129 130 119
3 130 162 119
3 120 148 147
3 120 149 148
3 120 169 149
3 122 173 121
3 121 171 170
3 121 173 171
3 123 131 122
3 131 132 122
3 132 173 122
3 123 134 131
3 123 155 134
3 146 155 123
3 124 190 145
3 145 203 124
3 162 190 124
3 124 203 178
3 170 177 125
3 125 198 172
3 177 198 125
3 164 165 126
3 165 168 126
3 168 169 126
3 139 140 127
3 140 155 127
3 127 155 146
3 128 135 129
3 128 137 135
3 128 147 137
3 129 153 130
3 135 136 129
3 136 153 129
3 153 181 130
3 130 190 162
3 181 190 130
3 131 133 132
3 131 184 133
3 134 184 131
3 133 189 132
3 132 187 173
3 132 189 187
3 184 211 133
3 185 189 133
3 133 211 185
3 155 186 134
3 134 208 184
3 186 208 134
3 135 199 136
3 137 204 135
3 135 204 199
3 136 206 153
3 136 199 191
3 191 206 136
3 147 150 137
3 150 209 137
3 137 209 204
3 138 154 143
3 139 141 140
3 141 197 140
3 140 186 155
3 143 203 144
3 154 178 143
3 178 203 143
3 144 203 145
3 145 190 181
3 148 150 147
3 149 183 148
3 148 192 150
3 183 192 148
3 169 207 149
3 174 183 149
3 149 207 174
3 150 192 156
3 156 209 150
3 151 191 163
3 163 200 151
3 151 206 191
3 152 181 153
3 185 211 157
3 158 208 186
3 199 204 159
3 161 179 160
3 179 202 160
3 161 192 183
3 164 166 165
3 164 172 166
3 165 195 168
3 182 195 165
3 166 198 167
3 172 198 166
3 167 205 196
3 198 205 167
3 168 207 169
3 171 177 170
3 173 193 171
3 171 194 177
3 193 194 171
3 187 193 173
3 187 189 175
3 176 194 193
3 194 205 177
3 177 205 198
3 27 222 1
3 1 214 37
3 1 222 214
3 28 222 27
3 29 213 28
3 213 222 28
3 30 216 29
3 29 216 213
3 31 216 30
3 32 215 31
3 215 216 31
3 33 223 32
3 32 223 215
3 34 223 33
3 35 212 34
3 212 223 34
3 36 220 35
3 35 220 212
3 37 220 36
3 214 220 37
3 212 219 218
3 218 223 212
3 212 220 219
3 216 217 213
3 217 221 213
3 221 222 213
3 219 220 214
3 214 221 219
3 214 222 221
3 215 217 216
3 215 218 217
3 215 223 218
3 218 219 217
3 219 221 217
3 2 0 38
3 55 0 2
3 38 0 12
3 26 0 55
3 39 12 13
3 38 12 39
3 14 40 13
3 40 39 13
3 15 41 14
3 14 41 40
3 16 42 15
3 42 41 15
3 17 224 16
3 43 42 16
3 16 224 43
3 18 45 17
3 45 44 17
3 44 224 17
3 19 46 18
3 46 45 18
3 20 47 19
3 47 46 19
3 21 48 20
3 48 47 20
3 22 225 21
3 49 48 21
3 21 225 49
3 23 51 22
3 22 51 50
3 50 225 22
3 24 52 23
3 23 52 51
3 25 53 24
3 24 53 52
3 26 54 25
3 25 54 53
3 26 55 54
3 43 224 44
3 49 225 50
3 38 508 2
3 2 509 55
3 2 508 66
3 66 509 2
3 3 506 56
3 65 501 3
3 3 501 82
3 82 506 3
3 39 479 38
3 479 508 38
3 40 242 39
3 242 479 39
3 41 471 40
3 40 471 242
3 42 514 41
3 41 514 471
3 43 233 42
3 233 514 42
3 44 468 43
3 43 468 233
3 45 243 44
3 243 468 44
3 46 475 45
3 45 475 243
3 47 231 46
3 231 475 46
3 48 469 47
3 47 469 231
3 49 244 48
3 244 469 48
3 50 470 49
3 49 470 244
3 51 232 50
3 232 470 50
3 52 503 51
3 51 503 232
3 53 245 52
3 245 503 52
3 54 466 53
3 53 466 245
3 55 248 54
3 248 466 54
3 55 509 248
3 56 449 57
3 56 506 449
3 57 246 58
3 57 449 246
3 58 380 59
3 246 380 58
3 59 235 60
3 59 380 235
3 60 461 61
3 235 461 60
3 61 441 62
3 61 461 441
3 62 236 63
3 62 441 236
3 63 477 64
3 236 477 63
3 64 501 65
3 64 477 384
3 384 501 64
3 66 249 67
3 67 480 66
3 66 508 249
3 480 509 66
3 68 241 67
3 67 412 68
3 241 480 67
3 249 412 67
3 68 237 69
3 69 411 68
3 68 412 237
3 68 411 241
3 70 234 69
3 69 451 70
3 234 411 69
3 237 451 69
3 71 407 70
3 70 410 71
3 70 407 234
3 70 451 410
3 71 229 72
3 72 406 71
3 71 410 229
3 406 407 71
3 73 227 72
3 72 404 73
3 227 406 72
3 229 404 72
3 73 250 74
3 74 485 73
3 73 485 227
3 73 404 250
3 74 226 75
3 75 402 74
3 74 250 226
3 402 485 74
3 76 240 75
3 75 455 76
3 226 455 75
3 240 402 75
3 77 392 76
3 76 399 77
3 76 392 240
3 76 455 399
3 78 228 77
3 77 230 78
3 228 392 77
3 77 399 230
3 79 391 78
3 78 397 79
3 78 391 228
3 230 397 78
3 80 238 79
3 79 396 80
3 238 391 79
3 79 397 396
3 80 239 81
3 81 251 80
3 80 251 238
3 80 396 239
3 82 247 81
3 81 395 82
3 239 395 81
3 247 251 81
3 82 501 247
3 395 506 82
3 250 258 226
3 258 259 226
3 259 455 226
3 227 489 406
3 485 512 227
3 227 512 489
3 391 438 228
3 228 394 392
3 228 438 394
3 229 433 404
3 229 410 405
3 405 433 229
3 230 400 397
3 399 401 230
3 230 401 400
3 447 475 231
3 231 502 447
3 469 502 231
3 232 503 381
3 381 515 232
3 232 515 470
3 468 517 233
3 233 484 473
3 473 514 233
3 233 517 484
3 407 500 234
3 234 510 411
3 234 500 421
3 421 510 234
3 380 507 235
3 235 490 461
3 235 507 490
3 441 442 236
3 442 505 236
3 236 505 477
3 237 414 409
3 409 451 237
3 412 414 237
3 251 252 238
3 252 253 238
3 253 391 238
3 239 492 386
3 386 499 239
3 239 499 395
3 396 492 239
3 392 393 240
3 393 497 240
3 240 497 402
3 411 481 241
3 467 480 241
3 241 481 467
3 413 479 242
3 242 504 413
3 471 504 242
3 243 475 446
3 446 498 243
3 243 498 468
3 244 470 389
3 389 483 244
3 244 483 469
3 381 503 245
3 245 518 381
3 466 486 245
3 486 518 245
3 246 519 380
3 449 499 246
3 246 499 476
3 476 519 246
3 247 383 251
3 247 384 383
3 247 501 384
3 248 467 466
3 248 480 467
3 248 509 480
3 249 413 412
3 249 479 413
3 249 508 479
3 250 326 258
3 250 404 326
3 251 383 252
3 252 254 253
3 252 458 254
3 383 458 252
3 254 255 253
3 255 438 253
3 253 438 391
3 254 256 255
3 254 260 256
3 254 458 260
3 256 257 255
3 257 362 255
3 362 438 255
3 256 487 257
3 260 261 256
3 261 487 256
3 257 511 362
3 257 388 387
3 387 511 257
3 257 487 388
3 258 265 259
3 258 437 265
3 326 437 258
3 265 266 259
3 266 346 259
3 346 455 259
3 260 262 261
3 260 367 262
3 260 458 367
3 262 263 261
3 263 264 261
3 264 487 261
3 262 322 263
3 262 516 322
3 367 516 262
3 263 273 264
3 263 439 273
3 322 439 263
3 273 274 264
3 274 488 264
3 264 488 487
3 265 267 266
3 265 268 267
3 265 437 268
3 267 513 266
3 266 491 346
3 379 491 266
3 266 513 379
3 268 269 267
3 269 316 267
3 316 513 267
3 268 270 269
3 268 416 270
3 268 437 416
3 270 271 269
3 271 456 269
3 269 456 316
3 270 272 271
3 270 279 272
3 270 416 279
3 272 284 271
3 284 288 271
3 288 456 271
3 279 280 272
3 280 415 272
3 272 415 284
3 273 275 274
3 273 277 275
3 273 439 277
3 275 276 274
3 276 293 274
3 293 488 274
3 275 278 276
3 277 429 275
3 275 429 278
3 278 325 276
3 276 460 293
3 325 460 276
3 382 436 277
3 277 439 382
3 277 436 429
3 278 333 325
3 278 334 333
3 278 429 334
3 279 281 280
3 279 323 281
3 279 416 323
3 281 282 280
3 282 283 280
3 283 415 280
3 281 417 282
3 323 324 281
3 324 417 281
3 282 285 283
3 282 287 285
3 282 417 287
3 285 286 283
3 286 424 283
3 283 424 415
3 284 291 288
3 284 419 291
3 415 419 284
3 285 289 286
3 287 431 285
3 285 431 289
3 289 290 286
3 290 295 286
3 295 424 286
3 417 420 287
3 420 425 287
3 425 431 287
3 291 292 288
3 292 348 288
3 348 456 288
3 289 448 290
3 431 444 289
3 444 448 289
3 290 296 295
3 290 304 296
3 290 448 304
3 291 294 292
3 291 345 294
3 291 419 345
3 294 309 292
3 309 459 292
3 292 459 348
3 460 495 293
3 293 520 488
3 495 520 293
3 294 310 309
3 294 422 310
3 345 422 294
3 296 297 295
3 297 418 295
3 418 424 295
3 296 298 297
3 296 434 298
3 304 434 296
3 298 299 297
3 299 398 297
3 398 418 297
3 298 300 299
3 298 302 300
3 298 434 302
3 300 301 299
3 301 430 299
3 299 430 398
3 300 423 301
3 302 303 300
3 303 423 300
3 423 452 301
3 301 474 430
3 452 474 301
3 302 305 303
3 302 337 305
3 302 434 337
3 305 306 303
3 306 307 303
3 307 423 303
3 304 453 434
3 448 450 304
3 450 453 304
3 305 435 306
3 337 338 305
3 338 435 305
3 306 308 307
3 306 320 308
3 306 435 320
3 308 317 307
3 317 331 307
3 331 423 307
3 308 408 317
3 320 321 308
3 321 408 308
3 310 311 309
3 311 375 309
3 375 459 309
3 310 312 311
3 310 344 312
3 310 422 344
3 312 313 311
3 313 464 311
3 311 464 375
3 312 314 313
3 312 443 314
3 344 443 312
3 314 315 313
3 315 327 313
3 327 464 313
3 314 318 315
3 314 319 318
3 314 443 319
3 318 432 315
3 315 328 327
3 315 432 328
3 316 456 378
3 378 482 316
3 482 513 316
3 317 332 331
3 317 349 332
3 317 408 349
3 319 329 318
3 329 372 318
3 372 432 318
3 319 330 329
3 319 347 330
3 319 443 347
3 320 369 321
3 320 377 369
3 320 435 377
3 369 370 321
3 370 371 321
3 371 408 321
3 403 439 322
3 322 440 403
3 322 516 440
3 323 351 324
3 323 462 351
3 416 462 323
3 351 352 324
3 352 353 324
3 353 417 324
3 333 378 325
3 378 493 325
3 325 493 460
3 404 433 326
3 433 462 326
3 326 462 437
3 328 387 327
3 387 478 327
3 327 478 464
3 328 511 387
3 432 494 328
3 494 511 328
3 330 457 329
3 329 374 372
3 329 457 374
3 347 454 330
3 330 454 385
3 385 457 330
3 332 454 331
3 331 452 423
3 331 454 452
3 349 350 332
3 350 385 332
3 385 454 332
3 334 335 333
3 335 482 333
3 333 482 378
3 334 336 335
3 334 341 336
3 334 429 341
3 336 340 335
3 340 379 335
3 379 482 335
3 336 496 340
3 341 342 336
3 342 496 336
3 337 339 338
3 337 453 339
3 434 453 337
3 339 389 338
3 389 463 338
3 338 463 435
3 339 483 389
3 453 465 339
3 465 483 339
3 340 491 379
3 400 401 340
3 340 496 400
3 401 491 340
3 341 343 342
3 341 436 343
3 429 436 341
3 343 363 342
3 363 364 342
3 364 496 342
3 343 365 363
3 343 366 365
3 343 436 366
3 422 430 344
3 430 474 344
3 344 474 443
3 345 418 398
3 398 422 345
3 345 419 418
3 346 401 399
3 399 455 346
3 346 491 401
3 443 474 347
3 452 454 347
3 347 474 452
3 378 456 348
3 348 493 378
3 459 493 348
3 349 500 350
3 408 421 349
3 421 500 349
3 350 489 385
3 350 407 406
3 406 489 350
3 350 500 407
3 351 405 352
3 351 433 405
3 351 462 433
3 352 354 353
3 352 359 354
3 352 405 359
3 354 355 353
3 355 420 353
3 353 420 417
3 354 356 355
3 354 409 356
3 359 409 354
3 356 357 355
3 357 358 355
3 358 420 355
3 356 368 357
3 356 414 368
3 409 414 356
3 357 360 358
3 357 472 360
3 368 472 357
3 360 361 358
3 361 425 358
3 358 425 420
3 405 410 359
3 359 451 409
3 410 451 359
3 360 484 361
3 472 473 360
3 473 484 360
3 361 426 425
3 361 427 426
3 361 484 427
3 394 438 362
3 362 494 394
3 362 511 494
3 363 492 364
3 365 386 363
3 386 492 363
3 396 397 364
3 364 492 396
3 397 400 364
3 400 496 364
3 366 373 365
3 373 476 365
3 365 476 386
3 366 376 373
3 366 382 376
3 366 436 382
3 367 458 390
3 390 505 367
3 367 505 442
3 442 516 367
3 368 414 413
3 413 504 368
3 368 504 472
3 369 518 370
3 377 381 369
3 381 518 369
3 370 481 371
3 467 481 370
3 370 486 467
3 370 518 486
3 371 421 408
3 371 510 421
3 481 510 371
3 374 402 372
3 402 497 372
3 372 497 432
3 376 507 373
3 373 519 476
3 507 519 373
3 374 485 402
3 457 512 374
3 374 512 485
3 375 460 459
3 375 495 460
3 464 495 375
3 382 403 376
3 403 490 376
3 490 507 376
3 377 515 381
3 435 463 377
3 463 515 377
3 379 513 482
3 380 519 507
3 382 439 403
3 384 390 383
3 390 458 383
3 384 477 390
3 385 489 457
3 476 499 386
3 388 478 387
3 388 520 478
3 487 488 388
3 488 520 388
3 389 470 463
3 477 505 390
3 392 394 393
3 394 494 393
3 393 494 432
3 432 497 393
3 395 499 449
3 449 506 395
3 398 430 422
3 440 490 403
3 411 510 481
3 413 414 412
3 415 424 419
3 437 462 416
3 419 424 418
3 426 431 425
3 427 428 426
3 428 444 426
3 426 444 431
3 427 498 428
3 484 517 427
3 427 517 498
3 428 445 444
3 428 446 445
3 428 498 446
3 440 442 441
3 441 461 440
3 440 516 442
3 461 490 440
3 445 448 444
3 446 447 445
3 447 450 445
3 445 450 448
3 446 475 447
3 447 465 450
3 447 502 465
3 450 465 453
3 489 512 457
3 460 493 459
3 470 515 463
3 478 495 464
3 465 502 483
3 467 486 466
3 498 517 468
3 483 502 469
3 471 473 472
3 472 504 471
3 471 514 473
3 478 520 495
3 56 527 3
3 3 527 65
3 57 523 56
3 523 527 56
3 58 528 57
3 57 528 523
3 59 528 58
3 60 522 59
3 522 528 59
3 61 526 60
3 60 526 522
3 62 526 61
3 63 524 62
3 524 526 62
3 64 524 63
3 65 521 64
3 521 524 64
3 65 527 521
3 521 525 524
3 521 527 525
3 522 526 525
3 525 528 522
3 525 527 523
3 523 528 525
3 525 526 524
4 476 543 532 551
4 476 373 543 551
4 532 543 476 554
4 548 554 532 555
4 476 551 532 555
4 532 554 476 555
4 213 540 29 552
4 274 537 264 550
4 216 213 29 552
4 216 540 213 552
4 493 538 535 544
4 264 550 537 559
4 336 537 334 564
4 336 541 537 564
4 336 341 334 537
4 341 537 336 541
4 269 216 29 552
4 29 540 268 552
4 264 537 549 559
4 29 268 269 552
4 216 269 538 552
4 81 554 548 555
4 540 542 74 556
4 440 543 532 545
4 336 557 541 564
4 74 540 214 542
4 532 551 490 562
4 341 537 541 561
4 505 532 390 545
4 490 532 440 543
4 81 395 554 555
4 336 334 557 564
4 390 545 532 548
4 401 546 536 557
4 216 538 540 552
4 532 545 505 562
4 493 378 535 538
4 442 505 545 562
4 532 543 490 551
4 373 476 519 551
4 401 557 536 558
4 390 548 532 563
4 378 535 538 552
4 269 268 267 552
4 365 476 373 543
4 476 543 365 554
4 268 540 267 552
4 390 532 505 562
4 499 476 554 555
4 276 550 535 564
4 460 535 276 550
4 334 341 429 537
4 529 535 534 536
4 226 540 74 556
4 536 546 399 556
4 464 533 544 560
4 440 532 490 562
4 383 548 390 563
4 238 539 253 568
4 545 549 263 566
4 460 544 535 550
4 534 535 530 536
4 238 565 539 568
4 529 538 535 552
4 313 533 464 560
4 399 536 401 546
4 537 550 274 564
4 554 561 492 565
4 535 538 529 544
4 274 264 488 550
4 343 365 543 561
4 365 554 543 561
4 37 74 214 542
4 392 393 536 547
4 440 545 532 562
4 490 440 403 543
4 264 488 550 559
4 267 268 265 540
4 548 565 238 568
4 442 545 440 562
4 334 537 429 564
4 401 536 399 558
4 74 226 222 540
4 536 547 393 553
4 263 545 262 549
4 458 545 390 548
4 216 269 30 538
4 311 544 533 569
4 532 562 390 563
4 476 519 551 555
4 492 554 363 561
4 366 343 365 543
4 392 536 393 553
4 464 544 534 560
4 311 309 544 569
4 264 274 273 537
4 311 464 533 544
4 534 494 547 553
4 494 534 547 560
4 228 438 539 558
4 217 213 216 540
4 438 553 539 558
4 222 226 27 540
4 247 81 548 563
4 217 540 216 567
4 399 546 346 556
4 490 543 376 551
4 535 536 529 546
4 288 30 271 538
4 493 459 538 544
4 539 549 254 568
4 228 553 438 558
4 265 268 28 540
4 266 259 546 552
4 276 460 325 535
4 254 539 255 549
4 534 550 387 559
4 311 464 313 533
4 262 549 545 568
4 226 258 27 540
4 482 546 535 552
4 455 399 346 556
4 327 464 534 560
4 343 543 366 561
4 265 267 540 552
4 375 311 309 544
4 395 499 554 555
4 536 546 535 557
4 322 543 545 566
4 276 535 325 564
4 373 507 543 551
4 374 220 36 542
4 534 544 495 550
4 492 561 364 565
4 402 74 542 556
4 262 260 549 568
4 387 534 478 550
4 273 264 537 549
4 495 544 460 550
4 542 547 402 556
4 261 262 260 549
4 388 387 550 559
4 507 376 543 551
4 341 541 342 561
4 530 536 535 557
4 348 493 459 538
4 492 363 364 561
4 493 348 378 538
4 495 534 464 544
4 343 363 365 561
4 311 312 310 533
4 322 545 263 566
4 388 387 478 550
4 495 520 478 550
4 74 1 37 214
4 363 554 365 561
4 493 535 460 544
4 228 438 391 539
4 228 539 391 558
4 82 555 81 563
4 374 36 372 542
4 256 254 255 549
4 247 548 383 563
4 505 390 367 545
4 76 536 399 556
4 373 507 376 543
4 495 478 464 534
4 30 288 31 538
4 432 547 542 560
4 539 553 438 559
4 216 540 538 567
4 261 263 262 549
4 534 387 553 559
4 383 458 390 548
4 495 478 534 550
4 539 78 558 565
4 293 495 460 550
4 228 536 392 553
4 394 392 393 553
4 27 74 226 222
4 378 482 535 552
4 541 557 400 558
4 401 400 557 558
4 432 560 542 570
4 263 549 273 566
4 311 533 310 569
4 482 535 546 557
4 228 77 392 536
4 217 221 213 540
4 455 76 399 556
4 37 402 74 542
4 78 539 391 565
4 393 547 494 553
4 255 539 438 559
4 223 312 34 533
4 273 549 537 566
4 531 539 537 541
4 254 253 539 568
4 461 490 551 562
4 372 542 36 570
4 228 536 553 558
4 531 549 545 566
4 374 37 220 542
4 252 548 238 568
4 366 561 543 566
4 459 538 544 569
4 228 77 536 558
4 342 341 336 541
4 537 541 530 564
4 346 546 259 556
4 402 547 240 556
4 529 552 546 556
4 362 438 553 559
4 325 460 493 535
4 221 540 217 567
4 541 557 530 564
4 529 536 534 547
4 214 540 221 542
4 401 399 230 558
4 541 558 397 565
4 74 27 1 222
4 275 537 274 564
4 392 536 76 547
4 252 238 253 568
4 255 549 539 559
4 372 542 432 547
4 534 547 536 553
4 82 81 247 563
4 78 397 558 565
4 442 516 440 545
4 362 255 438 559
4 372 432 497 547
4 327 313 464 560
4 366 436 561 566
4 530 537 550 559
4 459 544 309 569
4 530 550 537 564
4 432 542 372 570
4 288 271 456 538
4 529 540 552 556
4 253 255 254 539
4 535 544 534 550
4 534 535 529 544
4 221 542 540 567
4 76 547 536 556
4 530 535 534 550
4 482 546 379 557
4 293 460 276 550
4 367 390 458 545
4 36 542 220 570
4 378 538 456 552
4 327 464 478 534
4 79 78 391 565
4 273 274 275 537
4 288 538 292 569
4 30 31 216 538
4 34 533 312 570
4 439 322 263 566
4 545 548 458 568
4 212 533 34 570
4 477 390 505 562
4 226 74 27 250
4 29 30 216 269
4 459 292 538 569
4 531 565 548 568
4 537 539 530 541
4 391 539 78 558
4 312 533 313 570
4 333 557 334 564
4 379 546 482 552
4 494 328 534 560
4 223 34 212 533
4 346 399 401 546
4 221 219 542 567
4 429 537 341 561
4 530 539 537 559
4 551 555 525 562
4 442 505 367 545
4 392 76 240 547
4 238 391 539 565
4 429 436 537 561
4 535 557 333 564
4 273 263 264 549
4 256 549 255 559
4 288 31 538 569
4 37 36 374 220
4 461 440 490 562
4 312 313 314 570
4 36 329 372 570
4 537 539 531 549
4 238 391 253 539
4 456 538 269 552
4 311 375 464 544
4 262 545 260 568
4 264 487 488 559
4 533 529 538 544
4 539 558 541 565
4 28 258 265 540
4 429 436 277 537
4 402 75 74 556
4 539 549 537 559
4 400 541 496 557
4 264 549 487 559
4 531 541 537 561
4 214 221 219 542
4 536 557 530 558
4 436 277 537 566
4 491 546 401 557
4 80 548 554 565
4 254 549 256 568
4 288 292 31 569
4 80 238 548 565
4 348 459 292 538
4 499 476 386 554
4 379 482 513 552
4 364 561 541 565
4 534 536 530 553
4 533 560 313 570
4 482 335 333 535
4 436 537 561 566
4 477 390 562 563
4 309 459 375 544
4 402 37 374 542
4 325 535 333 564
4 429 341 436 561
4 529 535 546 552
4 346 266 259 546
4 525 562 555 563
4 76 240 547 556
4 257 553 387 559
4 318 432 372 570
4 312 311 313 533
4 494 547 432 560
4 539 565 531 568
4 74 1 27 250
4 539 541 531 565
4 533 538 529 567
4 343 366 436 561
4 532 545 543 548
4 239 81 395 554
4 522 526 461 551
4 395 81 82 555
4 533 529 544 560
4 494 534 511 553
4 228 392 394 553
4 333 535 335 557
4 77 399 536 558
4 322 262 263 545
4 386 476 365 554
4 532 548 543 554
4 511 387 257 553
4 221 214 222 540
4 366 365 373 543
4 534 544 529 560
4 529 547 534 560
4 74 402 37 485
4 401 230 400 558
4 212 218 533 567
4 538 540 529 567
4 511 534 387 553
4 482 335 535 557
4 543 545 531 548
4 336 496 541 557
4 545 549 531 568
4 228 391 78 558
4 378 456 316 552
4 81 80 548 554
4 476 246 519 555
4 531 561 554 565
4 376 490 403 543
4 440 516 322 545
4 378 348 456 538
4 318 560 432 570
4 394 393 494 553
4 259 258 226 540
4 325 333 278 564
4 461 551 526 562
4 507 490 376 551
4 543 548 531 554
4 529 540 538 552
4 212 218 223 533
4 259 540 226 556
4 74 37 1 485
4 378 316 482 552
4 366 543 382 566
4 530 550 534 553
4 288 348 292 538
4 366 382 436 566
4 402 374 372 542
4 251 238 252 548
4 522 461 235 551
4 31 215 538 569
4 532 555 551 562
4 539 553 530 558
4 534 553 550 559
4 390 384 383 563
4 75 402 240 556
4 274 550 276 564
4 530 557 541 558
4 214 220 37 542
4 246 551 519 555
4 342 336 496 541
4 529 546 536 556
4 533 544 538 569
4 543 554 531 561
4 531 554 548 565
4 468 44 43 224
4 327 478 387 534
4 530 550 553 559
4 397 78 79 565
4 275 429 537 564
4 525 526 522 551
4 313 560 315 570
4 278 333 334 564
4 396 554 492 565
4 494 328 511 534
4 238 79 391 565
4 277 273 275 537
4 491 401 340 557
4 529 533 542 560
4 535 550 530 564
4 77 230 399 558
4 458 548 252 568
4 340 401 400 557
4 383 252 458 548
4 80 554 396 565
4 555 562 532 563
4 511 257 362 553
4 482 379 335 557
4 333 335 334 557
4 277 273 537 566
4 239 395 499 554
4 77 399 76 536
4 223 33 34 312
4 318 372 329 570
4 382 543 403 566
4 362 553 257 559
4 530 541 539 558
4 527 555 82 563
4 314 313 315 570
4 494 393 432 547
4 340 400 496 557
4 523 525 528 555
4 346 401 491 546
4 400 397 541 558
4 392 77 76 536
4 530 553 539 559
4 438 255 253 539
4 265 258 259 540
4 525 551 528 555
4 215 216 31 538
4 528 551 246 555
4 536 547 529 556
4 265 266 267 552
4 251 80 238 548
4 459 493 460 544
4 382 403 439 566
4 260 256 549 568
4 346 259 455 556
4 176 16 17 224
4 247 251 383 548
4 222 28 213 540
4 523 528 246 555
4 367 260 545 568
4 277 275 429 537
4 384 247 383 563
4 278 334 429 564
4 309 311 310 569
4 541 561 531 565
4 212 219 218 567
4 531 549 539 568
4 438 253 391 539
4 212 220 219 570
4 275 274 276 564
4 526 551 525 562
4 342 541 364 561
4 529 542 540 556
4 325 493 378 535
4 439 263 273 566
4 388 257 387 559
4 226 74 75 556
4 367 545 458 568
4 378 482 333 535
4 293 276 274 550
4 314 34 312 570
4 366 373 376 543
4 379 546 491 557
4 342 364 363 561
4 533 529 542 567
4 400 230 397 558
4 470 50 49 225
4 494 432 328 560
4 367 458 260 568
4 529 542 547 560
4 438 228 394 553
4 521 477 524 563
4 81 239 80 554
4 263 261 264 549
4 497 240 402 547
4 247 81 251 548
4 327 387 328 534
4 388 478 520 550
4 543 561 531 566
4 488 388 550 559
4 212 567 533 570
4 531 545 543 566
4 529 547 542 556
4 327 534 328 560
4 392 240 393 547
4 540 542 529 567
4 520 495 293 550
4 441 440 461 562
4 367 516 442 545
4 275 278 429 564
4 456 269 316 552
4 27 226 250 258
4 254 252 253 568
4 261 260 256 549
4 396 492 364 565
4 511 328 387 534
4 527 506 82 555
4 505 236 477 562
4 488 487 388 559
4 276 325 278 564
4 449 523 246 555
4 31 292 32 569
4 364 541 397 565
4 220 542 219 570
4 525 555 527 563
4 235 59 522 551
4 476 499 246 555
4 365 363 386 554
4 495 464 375 544
4 537 549 531 566
4 477 562 524 563
4 218 567 215 569
4 64 477 521 563
4 459 309 292 569
4 260 254 256 568
4 373 519 507 551
4 530 557 535 564
4 325 378 333 535
4 367 260 262 545
4 528 380 246 551
4 362 257 255 559
4 525 523 527 555
4 522 60 235 461
4 230 78 397 558
4 80 239 396 554
4 530 553 536 558
4 256 487 549 559
4 288 456 348 538
4 495 375 460 544
4 527 523 506 555
4 459 460 375 544
4 316 513 482 552
4 383 251 252 548
4 521 524 525 563
4 441 461 526 562
4 442 440 441 562
4 492 396 239 554
4 235 380 59 551
4 315 560 318 570
4 256 255 257 559
4 327 315 313 560
4 505 442 236 562
4 490 235 461 551
4 499 386 239 554
4 374 372 36 329
4 501 527 82 563
4 525 522 528 551
4 455 259 226 556
4 524 562 525 563
4 525 527 521 563
4 215 567 538 569
4 76 75 240 556
4 364 342 496 541
4 492 386 363 554
4 318 315 432 560
4 523 449 506 555
4 521 64 524 477
4 35 319 329 570
4 28 265 437 268
4 537 531 561 566
4 523 528 57 246
4 35 329 36 570
4 519 246 380 551
4 221 222 213 540
4 269 267 316 552
4 449 523 57 246
4 477 384 390 563
4 542 560 533 570
4 340 379 491 557
4 538 567 533 569
4 34 314 35 570
4 524 477 236 562
4 266 346 491 546
4 362 438 394 553
4 366 376 382 543
4 293 274 488 550
4 31 32 215 569
4 342 363 343 561
4 376 403 382 543
4 441 62 236 562
4 364 397 396 565
4 264 261 487 549
4 497 432 393 547
4 318 329 319 570
4 81 80 251 548
4 461 522 60 526
4 22 21 225 195
4 35 34 443 314
4 441 526 62 562
4 278 275 276 564
4 334 335 336 557
4 262 322 516 545
4 379 266 491 546
4 531 548 545 568
4 277 439 273 566
4 336 340 496 557
4 64 384 477 563
4 294 309 310 569
4 62 524 236 562
4 341 343 436 561
4 256 257 487 559
4 238 80 79 565
4 442 441 236 562
4 221 217 219 567
4 506 395 82 555
4 341 342 343 561
4 521 527 501 563
4 223 218 215 569
4 219 220 214 542
4 449 246 499 555
4 488 388 520 550
4 533 567 542 570
4 437 265 28 258
4 291 32 31 292
4 31 288 291 292
4 501 64 521 563
4 228 78 77 558
4 56 506 523 449
4 235 490 507 551
4 441 461 61 526
4 56 506 527 523
4 487 261 256 549
4 436 382 277 566
4 62 526 524 562
4 364 400 397 541
4 270 30 29 269
4 34 35 212 570
4 497 393 240 547
4 218 217 215 567
4 501 82 247 563
4 501 521 65 527
4 362 394 494 553
4 519 380 507 551
4 314 34 443 312
4 292 309 294 569
4 262 516 367 545
4 315 328 432 560
4 340 335 379 557
4 364 496 400 541
4 487 257 388 559
4 528 380 58 246
4 485 402 37 374
4 511 362 494 553
4 76 455 75 556
4 254 458 252 568
4 513 267 266 552
4 230 77 78 558
4 236 524 63 477
4 36 220 35 570
4 294 310 33 569
4 315 318 314 570
4 327 328 315 560
4 468 176 17 224
4 501 384 64 563
4 455 226 75 556
4 82 501 3 527
4 17 44 468 224
4 524 526 525 562
4 506 449 395 555
4 382 439 277 566
4 254 260 458 568
4 396 397 79 565
4 468 43 176 224
4 293 488 520 550
4 43 16 176 224
4 441 61 62 526
4 211 413 414 412
4 499 395 449 555
4 335 340 336 557
4 318 319 314 570
4 506 82 3 527
4 292 294 32 569
4 380 58 59 528
4 310 344 33 312
4 60 61 461 526
4 63 62 524 236
4 344 34 33 312
4 124 298 297 296
4 17 176 468 243
4 454 331 153 332
4 5 4 66 160
4 122 358 116 123
4 314 319 35 570
4 218 219 217 567
4 308 118 119 128
4 136 153 331 332
4 521 65 64 501
4 358 420 116 123
4 507 380 235 551
4 239 386 492 554
4 280 102 92 272
4 65 3 501 527
4 35 220 212 570
4 44 17 468 243
4 80 396 79 565
4 234 8 69 89
4 524 64 63 477
4 302 337 114 305
4 59 60 235 522
4 523 57 56 449
4 331 129 136 332
4 58 57 528 246
4 122 357 355 131
4 368 357 132 133
4 127 417 281 324
4 119 307 308 128
4 272 102 92 142
4 279 281 101 102
4 102 279 281 280
4 272 280 102 142
4 119 307 118 308
4 29 270 269 268
4 22 50 470 225
4 107 431 285 105
4 173 360 358 122
4 425 107 116 287
4 351 352 127 324
4 445 177 428 170
4 132 472 368 133
4 118 306 117 320
4 358 361 173 122
4 431 108 289 444
4 139 101 323 324
4 361 173 360 358
4 114 302 305 113
4 361 425 121 358
4 105 285 107 106
4 140 351 352 127
4 358 357 355 122
4 316 267 513 552
4 357 472 368 132
4 43 176 233 468
4 307 130 423 331
4 302 114 337 113
4 103 417 281 127
4 16 43 176 233
4 289 448 108 290
4 284 415 142 419
4 102 283 415 280
4 107 425 431 287
4 279 270 92 416
4 96 407 406 350
4 258 27 28 326
4 431 425 107 426
4 107 108 431 444
4 99 5 4 249
4 89 234 8 159
4 425 121 107 426
4 290 109 289 286
4 177 445 125 170
4 331 129 153 136
4 170 428 445 444
4 182 469 483 86
4 306 435 117 320
4 285 431 107 106
4 317 408 135 349
4 465 172 198 450
4 296 297 124 178
4 139 351 462 433
4 30 270 271 269
4 15 42 16 83
4 227 72 11 73
4 404 250 210 73
4 300 423 190 301
4 453 112 172 110
4 109 289 108 290
4 101 139 127 324
4 121 361 358 122
4 424 143 138 419
4 451 186 359 409
4 83 42 16 233
4 358 425 121 122
4 444 431 170 426
4 128 317 408 135
4 359 88 410 405
4 116 121 425 122
4 331 307 130 129
4 115 114 305 113
4 147 118 320 308
4 102 282 283 280
4 109 108 448 290
4 471 472 473 175
4 451 186 409 158
4 358 355 420 123
4 109 106 289 286
4 123 122 355 131
4 408 308 317 128
4 176 17 95 243
4 358 360 357 122
4 301 190 300 299
4 413 414 368 211
4 119 130 307 129
4 118 307 306 308
4 227 73 200 485
4 409 356 134 354
4 351 140 139 127
4 157 99 413 249
4 281 282 102 280
4 249 5 4 66
4 117 169 435 126
4 107 108 289 431
4 417 282 287 105
4 361 121 425 426
4 244 21 48 182
4 337 114 338 339
4 356 355 357 131
4 320 118 306 308
4 304 296 111 290
4 154 290 295 286
4 413 211 157 412
4 418 143 297 295
4 279 92 101 100
4 100 101 279 323
4 353 417 127 324
4 136 454 153 332
4 44 45 17 243
4 360 357 122 132
4 320 321 147 308
4 146 420 417 353
4 33 32 294 569
4 443 35 314 319
4 305 303 306 115
4 469 244 48 182
4 43 16 42 233
4 356 355 134 354
4 66 4 2 509
4 290 109 154 295
4 128 408 137 135
4 283 154 424 286
4 108 448 289 444
4 102 415 283 138
4 11 72 404 73
4 296 124 111 178
4 107 170 431 426
4 332 317 135 349
4 408 147 137 371
4 4 2 508 66
4 287 107 116 105
4 303 119 307 306
4 359 140 88 405
4 113 298 111 434
4 116 420 287 146
4 371 147 137 150
4 109 304 111 290
4 317 308 307 128
4 28 437 258 326
4 416 100 279 323
4 287 285 431 105
4 338 305 435 117
4 417 287 420 146
4 353 127 352 324
4 407 70 234 159
4 427 171 361 426
4 105 116 287 146
4 131 132 357 133
4 450 453 172 110
4 108 448 110 109
4 101 92 279 102
4 123 355 155 354
4 355 353 155 354
4 462 100 416 323
4 116 420 425 287
4 283 282 102 104
4 115 119 306 118
4 127 146 417 353
4 425 420 116 358
4 70 8 234 159
4 338 114 337 305
4 180 185 99 479
4 119 423 303 307
4 170 107 121 426
4 109 111 296 290
4 304 453 450 110
4 305 338 114 117
4 472 357 360 132
4 355 353 420 123
4 110 448 304 290
4 108 107 170 444
4 462 28 437 416
4 422 33 87 144
4 170 428 444 426
4 85 138 143 419
4 355 155 353 123
4 170 445 125 444
4 323 351 139 324
4 417 281 282 103
4 465 164 339 483
4 280 92 279 272
4 171 427 428 426
4 88 197 410 405
4 29 437 416 268
4 106 285 289 286
4 234 69 8 70
4 430 422 144 398
4 483 465 164 166
4 368 356 357 131
4 419 31 284 291
4 130 301 423 452
4 142 85 284 419
4 51 22 50 232
4 51 23 22 84
4 92 270 29 416
4 359 186 352 354
4 83 16 176 233
4 469 483 244 182
4 289 108 107 106
4 422 87 430 144
4 501 247 384 563
4 15 14 41 175
4 103 281 282 102
4 303 119 306 115
4 117 115 306 118
4 201 4 0 508
4 435 305 306 117
4 321 408 147 308
4 91 151 36 457
4 305 302 303 115
4 225 470 22 195
4 179 54 26 248
4 122 173 360 132
4 484 173 361 427
4 34 344 443 312
4 4 0 2 509
4 282 417 103 105
4 47 48 20 469
4 431 170 107 444
4 54 25 53 466
4 361 121 173 122
4 258 250 27 326
4 471 472 175 189
4 232 51 22 84
4 173 171 121 361
4 361 173 171 427
4 2 0 4 508
4 4 0 509 202
4 109 154 106 286
4 250 404 27 326
4 423 303 300 162
4 171 121 361 426
4 358 116 425 122
4 115 305 302 113
4 125 108 170 444
4 352 155 353 354
4 147 408 321 371
4 93 160 480 467
4 415 142 85 138
4 170 121 171 426
4 55 26 54 248
4 144 422 32 345
4 197 88 140 405
4 281 279 101 323
4 164 338 114 339
4 30 270 272 271
4 162 423 303 119
4 412 157 413 249
4 434 112 337 453
4 473 484 83 187
4 210 27 404 326
4 116 121 107 425
4 472 473 175 189
4 415 280 272 142
4 283 285 282 104
4 200 73 1 485
4 448 110 109 290
4 462 98 139 433
4 304 112 453 110
4 32 144 345 85
4 465 172 166 198
4 248 179 54 466
4 424 418 143 419
4 323 101 281 324
4 165 182 483 86
4 424 154 295 286
4 433 141 351 405
4 418 345 85 419
4 138 415 283 424
4 28 462 100 416
4 285 287 282 105
4 95 17 45 243
4 129 307 119 128
4 173 484 193 427
4 283 285 104 286
4 271 272 30 284
4 41 14 40 471
4 356 409 184 414
4 302 300 303 162
4 186 359 409 354
4 160 66 5 480
4 158 409 451 237
4 453 164 337 339
4 142 272 415 284
4 142 415 102 138
4 125 445 448 444
4 105 103 282 104
4 167 231 447 475
4 193 171 173 427
4 434 304 112 453
4 413 185 99 157
4 49 21 48 244
4 102 282 103 104
4 305 114 115 117
4 462 351 139 323
4 483 165 86 166
4 285 289 431 106
4 279 92 100 416
4 437 29 28 268
4 17 45 18 95
4 92 270 279 272
4 424 138 415 419
4 27 404 250 210
4 248 160 179 467
4 330 91 36 457
4 119 307 306 118
4 25 54 26 179
4 244 389 470 195
4 462 437 28 326
4 154 109 290 286
4 227 11 72 163
4 138 85 415 419
4 337 112 164 453
4 98 141 139 433
4 12 39 13 180
4 302 298 113 434
4 422 32 33 144
4 198 447 465 450
4 113 337 302 434
4 108 125 448 444
4 417 103 105 146
4 233 484 83 473
4 352 155 127 353
4 114 337 164 339
4 110 125 448 108
4 356 368 184 131
4 498 243 176 194
4 115 306 305 117
4 249 99 413 479
4 288 284 31 291
4 357 368 131 133
4 270 29 416 268
4 409 356 184 208
4 215 32 223 569
4 88 410 451 359
4 13 39 40 242
4 115 302 162 113
4 112 337 114 113
4 116 420 146 123
4 129 317 307 128
4 470 50 22 232
4 184 368 356 414
4 98 210 404 326
4 114 337 112 164
4 466 161 97 486
4 188 404 229 433
4 295 418 143 424
4 472 360 473 187
4 308 147 118 128
4 147 148 321 120
4 272 92 30 142
4 36 35 91 330
4 135 408 137 349
4 22 232 84 195
4 302 300 162 124
4 28 29 437 416
4 85 142 415 419
4 139 141 351 433
4 129 331 317 332
4 447 446 445 198
4 137 147 408 128
4 454 206 385 332
4 423 119 130 307
4 210 250 1 73
4 131 368 184 133
4 106 289 108 109
4 467 93 160 161
4 304 111 296 434
4 100 92 29 416
4 229 410 197 405
4 153 152 347 91
4 176 468 243 498
4 198 446 445 177
4 47 19 46 231
4 168 470 389 195
4 331 317 307 129
4 154 138 283 424
4 144 345 85 418
4 72 404 229 188
4 101 103 281 127
4 162 423 119 130
4 97 179 161 466
4 141 140 351 405
4 330 347 91 454
4 443 34 35 152
4 133 368 184 211
4 96 199 407 350
4 197 410 229 71
4 419 85 31 291
4 193 83 484 187
4 500 407 199 350
4 452 423 130 331
4 111 124 298 113
4 162 303 302 115
4 298 124 111 296
4 169 463 435 126
4 157 5 249 67
4 7 6 90 237
4 450 448 304 110
4 452 130 181 153
4 140 352 155 127
4 155 352 186 354
4 100 139 101 323
4 475 446 447 205
4 349 199 135 350
4 284 85 31 419
4 195 389 168 165
4 326 98 462 433
4 498 176 517 194
4 117 338 114 126
4 152 347 474 452
4 201 0 38 508
4 326 404 98 433
4 289 107 431 106
4 195 244 389 165
4 145 430 144 398
4 143 144 85 418
4 509 0 55 202
4 181 301 130 452
4 474 301 181 452
4 287 417 105 146
4 135 136 332 349
4 433 229 141 405
4 110 304 111 109
4 165 483 164 166
4 351 140 141 139
4 353 146 420 123
4 345 85 419 291
4 206 330 454 385
4 355 123 134 354
4 124 162 302 113
4 151 37 36 457
4 132 357 122 131
4 52 24 23 174
4 198 445 447 450
4 347 153 91 454
4 377 435 320 120
4 514 15 41 175
4 146 417 103 127
4 129 130 331 153
4 109 110 304 290
4 294 32 422 345
4 91 330 454 206
4 352 351 140 405
4 320 117 118 120
4 170 171 428 426
4 280 415 102 142
4 203 299 398 297
4 203 124 297 178
4 145 430 87 144
4 142 31 30 284
4 302 300 124 298
4 111 298 296 434
4 291 294 32 292
4 134 123 155 354
4 356 355 131 134
4 352 140 359 405
4 506 3 56 527
4 30 272 142 284
4 93 480 241 467
4 465 164 453 339
4 339 164 126 165
4 369 321 148 120
4 176 193 517 194
4 319 347 35 330
4 11 404 210 73
4 157 5 99 249
4 297 398 203 418
4 66 249 5 67
4 36 37 374 457
4 304 111 112 110
4 126 338 114 164
4 118 147 320 120
4 104 102 283 138
4 514 83 15 175
4 298 299 124 297
4 34 344 474 443
4 430 344 87 422
4 104 106 154 286
4 32 33 223 569
4 145 301 430 299
4 428 177 171 170
4 355 358 122 123
4 131 355 123 134
4 105 282 285 104
4 69 411 234 89
4 301 181 430 474
4 468 176 517 498
4 414 184 368 211
4 30 270 92 272
4 23 52 174 503
4 172 465 164 453
4 469 48 20 182
4 285 105 104 106
4 21 20 48 182
4 29 30 270 92
4 431 107 287 105
4 98 462 139 100
4 36 374 329 457
4 100 462 139 323
4 67 5 66 480
4 232 22 470 195
4 127 281 101 324
4 369 148 149 120
4 203 124 299 297
4 72 406 227 163
4 164 112 172 453
4 229 72 10 71
4 474 443 347 152
4 187 175 473 189
4 473 360 484 187
4 101 281 103 102
4 113 112 337 434
4 447 465 166 198
4 174 518 183 149
4 13 40 14 94
4 99 185 413 479
4 152 35 347 91
4 135 129 317 332
4 106 104 285 286
4 412 237 6 68
4 29 28 100 416
4 35 443 347 319
4 46 18 45 475
4 189 94 504 185
4 435 463 338 126
4 177 446 445 428
4 45 475 95 243
4 143 297 203 418
4 11 227 73 200
4 134 186 409 354
4 462 98 28 100
4 435 377 169 120
4 489 512 200 151
4 290 296 178 295
4 178 297 143 295
4 125 450 172 110
4 475 18 45 95
4 102 92 279 280
4 135 137 204 349
4 26 55 0 202
4 55 2 0 509
4 91 35 347 330
4 430 145 299 398
4 512 200 227 489
4 475 447 167 205
4 452 331 153 454
4 31 142 85 284
4 237 6 90 412
4 349 408 137 421
4 153 347 452 454
4 0 2 38 508
4 465 172 164 166
4 186 140 352 155
4 38 12 0 201
4 509 66 4 160
4 127 139 351 324
4 308 408 147 128
4 339 126 389 165
4 445 448 450 125
4 7 90 158 237
4 248 480 160 467
4 471 41 14 175
4 389 126 168 165
4 371 321 147 150
4 12 39 180 479
4 208 409 186 158
4 443 474 34 152
4 98 28 27 326
4 427 517 193 194
4 345 294 32 291
4 244 195 182 165
4 283 104 138 154
4 349 137 204 421
4 160 179 467 161
4 154 283 104 286
4 7 6 237 68
4 117 435 338 126
4 166 86 483 502
4 463 377 169 435
4 180 242 94 185
4 300 423 162 190
4 471 473 514 175
4 296 297 178 295
4 389 338 126 339
4 517 427 498 194
4 347 443 35 152
4 361 173 484 360
4 157 6 5 67
4 135 136 349 350
4 53 25 24 97
4 136 135 199 350
4 24 52 53 245
4 303 162 119 115
4 95 176 243 194
4 409 184 414 208
4 453 172 465 450
4 10 72 229 188
4 25 54 179 466
4 130 452 331 153
4 452 181 152 153
4 111 304 112 434
4 10 229 141 188
4 321 148 147 150
4 411 510 156 481
4 411 241 6 68
4 206 454 136 332
4 470 389 463 168
4 191 96 406 350
4 411 6 241 156
4 117 435 169 120
4 6 5 67 93
4 451 88 186 158
4 473 472 187 189
4 404 188 210 98
4 206 454 153 136
4 156 6 241 93
4 39 12 38 479
4 155 146 127 353
4 179 248 467 466
4 111 112 113 434
4 369 320 321 120
4 241 67 6 68
4 90 414 409 237
4 299 124 300 298
4 151 489 512 457
4 301 423 190 130
4 503 245 174 381
4 109 178 154 295
4 99 4 201 508
4 186 88 451 359
4 136 332 349 350
4 448 450 125 110
4 296 178 109 290
4 194 177 171 428
4 418 85 143 419
4 233 83 42 514
4 187 472 360 132
4 137 408 371 421
4 203 124 145 299
4 72 10 11 188
4 200 1 37 485
4 177 198 446 205
4 134 409 186 208
4 462 28 98 326
4 480 67 5 93
4 242 504 94 185
4 161 467 370 486
4 178 111 296 109
4 97 53 25 466
4 422 344 33 310
4 209 137 371 421
4 398 345 144 418
4 84 51 23 503
4 463 389 338 126
4 41 471 514 175
4 84 232 51 503
4 345 144 422 398
4 19 47 20 86
4 83 176 193 517
4 85 345 32 291
4 83 233 473 514
4 300 190 124 299
4 250 1 27 210
4 171 498 194 428
4 194 446 177 428
4 70 410 9 71
4 457 151 489 385
4 155 146 353 123
4 242 13 39 180
4 83 15 42 514
4 404 188 98 433
4 128 129 317 135
4 356 409 134 208
4 33 422 310 294
4 446 243 498 194
4 295 143 154 424
4 4 99 249 508
4 423 162 190 130
4 143 203 297 178
4 158 208 409 237
4 369 377 320 120
4 502 166 86 167
4 46 231 196 475
4 241 6 67 93
4 164 339 483 165
4 192 370 371 150
4 430 344 474 87
4 200 11 227 163
4 474 181 152 452
4 97 25 179 466
4 411 7 6 156
4 133 413 368 211
4 73 1 11 200
4 152 474 34 87
4 174 84 23 503
4 179 26 202 248
4 298 124 302 113
4 244 470 49 195
4 71 407 406 96
4 69 158 451 237
4 467 161 466 486
4 11 10 72 163
4 452 152 347 153
4 88 186 140 359
4 175 473 83 187
4 192 93 467 161
4 190 181 301 130
4 145 124 190 299
4 208 90 409 237
4 205 95 475 243
4 49 470 225 195
4 71 72 10 406
4 210 1 11 73
4 171 427 498 428
4 475 196 18 95
4 14 471 175 94
4 194 498 446 428
4 489 163 191 151
4 352 140 186 359
4 88 451 8 158
4 85 32 31 291
4 178 109 290 295
4 164 126 338 339
4 180 39 242 479
4 518 183 245 174
4 202 509 4 160
4 86 469 483 502
4 435 117 320 120
4 26 55 202 248
4 137 209 371 150
4 502 465 166 447
4 374 37 512 457
4 481 370 192 467
4 134 155 186 354
4 136 385 206 332
4 475 446 205 243
4 40 242 471 94
4 320 147 321 120
4 329 330 36 457
4 53 97 245 466
4 404 72 11 188
4 157 90 6 412
4 471 14 40 94
4 245 518 174 381
4 161 183 97 486
4 472 504 368 133
4 249 412 157 67
4 481 93 241 467
4 508 249 4 66
4 185 413 211 157
4 131 184 356 134
4 167 231 502 447
4 176 83 233 517
4 129 135 136 332
4 192 93 481 467
4 467 370 192 161
4 447 446 198 205
4 90 414 237 412
4 406 489 191 350
4 463 515 470 168
4 10 229 197 141
4 40 13 242 94
4 411 6 7 68
4 451 410 88 70
4 47 469 86 231
4 182 483 244 165
4 332 136 385 350
4 95 475 196 205
4 469 20 47 86
4 163 489 200 151
4 156 241 411 481
4 87 344 33 422
4 480 5 160 93
4 161 179 467 466
4 371 510 209 421
4 427 193 171 194
4 133 132 472 189
4 381 149 377 369
4 370 183 161 486
4 190 301 145 299
4 74 1 250 73
4 195 21 244 182
4 90 409 414 208
4 500 349 204 421
4 191 151 206 385
4 173 193 484 187
4 138 154 143 424
4 407 71 9 96
4 189 504 133 185
4 509 66 160 480
4 514 473 83 175
4 202 55 509 248
4 33 34 344 87
4 151 191 489 385
4 24 52 245 174
4 299 145 203 398
4 134 184 356 208
4 503 84 232 381
4 49 21 244 195
4 479 180 12 201
4 19 47 86 231
4 197 229 10 71
4 187 360 173 132
4 156 209 510 89
4 88 9 8 70
4 88 8 451 70
4 153 91 454 206
4 71 10 9 96
4 6 157 412 67
4 67 480 241 93
4 151 512 37 457
4 301 430 181 145
4 159 234 407 500
4 483 389 244 165
4 371 370 192 481
4 474 344 34 87
4 472 471 504 189
4 126 463 389 168
4 12 38 479 201
4 422 33 32 294
4 370 192 148 150
4 474 181 430 87
4 94 13 242 180
4 9 410 197 71
4 183 97 245 174
4 73 74 1 485
4 88 410 9 70
4 411 7 156 89
4 517 233 176 468
4 98 188 141 433
4 20 469 182 86
4 149 183 148 369
4 504 242 413 185
4 71 9 70 407
4 166 167 447 198
4 167 502 166 447
4 52 245 174 503
4 96 406 163 191
4 37 200 512 151
4 157 211 90 412
4 18 46 196 475
4 204 199 135 349
4 485 200 227 512
4 414 90 211 412
4 360 173 484 187
4 406 10 71 96
4 450 172 198 125
4 158 451 8 69
4 141 229 197 405
4 27 210 98 326
4 67 412 6 68
4 38 479 201 508
4 472 504 133 189
4 406 72 10 163
4 231 19 46 196
4 407 9 159 96
4 199 96 191 350
4 231 86 19 196
4 149 377 369 120
4 97 24 53 245
4 237 69 7 68
4 450 198 445 125
4 489 200 227 163
4 227 406 489 163
4 52 23 51 503
4 202 160 179 248
4 190 162 300 124
4 518 245 183 486
4 150 371 192 481
4 86 231 167 196
4 231 502 86 167
4 479 99 180 201
4 370 183 192 161
4 504 413 368 133
4 207 232 84 381
4 125 198 445 177
4 140 141 197 405
4 148 370 321 369
4 483 339 389 165
4 515 232 470 168
4 90 208 158 237
4 132 187 472 189
4 69 451 8 70
4 18 46 19 196
4 204 199 349 500
4 149 518 183 369
4 242 504 471 94
4 500 199 349 350
4 466 97 245 486
4 126 169 463 168
4 144 203 398 418
4 148 183 192 370
4 144 203 145 398
4 518 370 183 369
4 385 191 489 350
4 201 479 99 508
4 150 510 371 481
4 203 144 143 418
4 245 97 24 174
4 149 169 377 120
4 150 156 510 481
4 406 489 163 191
4 94 471 175 189
4 10 406 163 96
4 229 141 188 433
4 69 7 158 237
4 205 446 177 194
4 159 199 407 96
4 231 167 196 475
4 41 42 15 514
4 149 174 518 381
4 178 143 154 295
4 225 21 49 195
4 515 232 207 381
4 9 8 70 159
4 159 204 234 500
4 518 149 381 369
4 37 200 485 512
4 191 385 136 350
4 174 207 84 381
4 166 483 465 502
4 149 207 174 381
4 370 148 183 369
4 503 174 84 381
4 407 199 159 500
4 8 7 69 89
4 167 196 475 205
4 93 156 192 481
4 159 199 204 500
4 197 10 9 71
4 181 474 152 87
4 97 183 245 486
4 160 202 509 248
4 197 410 9 88
4 94 504 471 189
4 204 209 234 421
4 413 133 185 211
4 209 204 137 421
4 87 181 430 145
4 93 241 156 481
4 479 249 99 508
4 407 9 70 159
4 7 69 411 68
4 209 510 234 421
4 385 206 191 136
4 8 7 158 69
4 234 89 204 159
4 89 209 234 204
4 188 11 404 210
4 500 204 234 421
4 411 69 7 89
4 301 181 190 145
4 90 414 184 208
4 193 484 517 427
4 133 504 413 185
4 136 199 191 350
4 480 160 509 248
4 498 427 171 194
4 156 510 209 150
4 156 510 411 89
4 84 232 207 515
4 198 167 447 205
4 518 183 370 486
4 502 86 469 231
4 169 377 207 149
4 234 510 209 89
4 149 377 207 381
4 510 234 411 89
4 371 209 510 150
4 515 377 169 463
4 150 192 156 481
4 207 377 515 381
4 90 184 414 211
4 515 84 232 168
4 515 207 84 168
4 169 207 515 168
4 207 377 169 515
4 463 169 515 168
4 512 485 37 374
4 548 555 563 81
4 563 555 548 532
4 540 29 28 213
4 540 28 29 268
4 222 74 214 1
4 222 214 74 540
4 552 259 265 266
4 552 265 259 540
4 547 372 402 497
4 547 402 372 542
4 552 556 259 546
4 259 556 552 540
4 538 271 269 30
4 538 269 271 456
4 543 322 440 403
4 543 440 322 545
4 27 540 28 222
4 28 540 27 258
4 569 33 533 310
4 569 533 33 223
4 312 533 33 310
4 312 33 533 223
4 552 379 266 513
4 552 266 379 546
4 30 288 284 31
4 284 288 30 271
4 566 403 322 543
4 566 322 403 439
4 219 570 567 212
4 567 570 219 542
4 216 567 215 217
4 215 567 216 538
4 569 218 533 223
4 569 533 218 567
4 551 59 528 380
4 551 528 59 522
4 329 35 330 319
4 329 330 35 36
4 457 385 206 151
4 206 385 457 330
4 206 91 457 151
4 457 91 206 330
4 243 205 194 446
4 243 194 205 95
4 479 185 242 180
4 479 242 185 413
4 232 195 168 84
4 168 195 232 470
4 370 150 321 371
4 321 150 370 148
4 83 517 484 233
4 484 517 83 193

CELL_TYPES 2906
1
1
1
1
3
3
3
3
3
3
3
3
3
3
3
3
3
3
3
3
3
3
3
3
3
3
3
3
3
3
3
3
3
3
3
3
3
3
3
3
3
3
3
3
3
3
3
3
3
3
3
3
3
3
3
3
3
3
3
3
3
3
3
3
3
3
3
3
3
3
3
3
3
3
3
3
3
3
3
3
3
3
3
3
3
3
3
3
3
5
5
5
5
5
5
5
5
5
5
5
5
5
5
5
5
5
5
5
5
5
5
5
5
5
5
5
5
5
5
5
5
5
5
5
5
5
5
5
5
5
5
5
5
5
5
5
5
5
5
5
5
5
5
5
5
5
5
5
5
5
5
5
5
5
5
5
5
5
5
5
5
5
5
5
5
5
5
5
5
5
5
5
5
5
5
5
5
5
5
5
5
5
5
5
5
5
5
5
5
5
5
5
5
5
5
5
5
5
5
5
5
5
5
5
5
5
5
5
5
5
5
5
5
5
5
5
5
5
5
5
5
5
5
5
5
5
5
5
5
5
5
5
5
5
5
5
5
5
5
5
5
5
5
5
5
5
5
5
5
5
5
5
5
5
5
5
5
5
5
5
5
5
5
5
5
5
5
5
5
5
5
5
5
5
5
5
5
5
5
5
5
5
5
5
5
5
5
5
5
5
5
5
5
5
5
5
5
5
5
5
5
5
5
5
5
5
5
5
5
5
5
5
5
5
5
5
5
5
5
5
5
5
5
5
5
5
5
5
5
5
5
5
5
5
5
5
5
5
5
5
5
5
5
5
5
5
5
5
5
5
5
5
5
5
5
5
5
5
5
5
5
5
5
5
5
5
5
5
5
5
5
5
5
5
5
5
5
5
5
5
5
5
5
5
5
5
5
5
5
5
5
5
5
5
5
5
5
5
5
5
5
5
5
5
5
5
5
5
5
5
5
5
5
5
5
5
5
5
5
5
5
5
5
5
5
5
5
5
5
5
5
5
5
5
5
5
5
5
5
5
5
5
5
5
5
5
5
5
5
5
5
5
5
5
5
5
5
5
5
5
5
5
5
5
5
5
5
5
5
5
5
5
5
5
5
5
5
5
5
5
5
5
5
5
5
5
5
5
5
5
5
5
5
5
5
5
5
5
5
5
5
5
5
5
5
5
5
5
5
5
5
5
5
5
5
5
5
5
5
5
5
5
5
5
5
5
5
5
5
5
5
5
5
5
5
5
5
5
5
5
5
5
5
5
5
5
5
5
5
5
5
5
5
5
5
5
5
5
5
5
5
5
5
5
5
5
5
5
5
5
5
5
5
5
5
5
5
5
5
5
5
5
5
5
5
5
5
5
5
5
5
5
5
5
5
5
5
5
5
5
5
5
5
5
5
5
5
5
5
5
5
5
5
5
5
5
5
5
5
5
5
5
5
5
5
5
5
5
5
5
5
5
5
5
5
5
5
5
5
5
5
5
5
5
5
5
5
5
5
5
5
5
5
5
5
5
5
5
5
5
5
5
5
5
5
5
5
5
5
5
5
5
5
5
5
5
5
5
5
5
5
5
5
5
5
5
5
5
5
5
5
5
5
5
5
5
5
5
5
5
5
5
5
5
5
5
5
5
5
5
5
5
5
5
5
5
5
5
5
5
5
5
5
5
5
5
5
5
5
5
5
5
5
5
5
5
5
5
5
5
5
5
5
5
5
5
5
5
5
5
5
5
5
5
5
5
5
5
5
5
5
5
5
5
5
5
5
5
5
5
5
5
5
5
5
5
5
5
5
5
5
5
5
5
5
5
5
5
5
5
5
5
5
5
5
5
5
5
5
5
5
5
5
5
5
5
5
5
5
5
5
5
5
5
5
5
5
5
5
5
5
5
5
5
5
5
5
5
5
5
5
5
5
5
5
5
5
5
5
5
5
5
5
5
5
5
5
5
5
5
5
5
5
5
5
5
5
5
5
5
5
5
5
5
5
5
5
5
5
5
5
5
5
5
5
5
5
5
5
5
5
5
5
5
5
5
5
5
5
5
5
5
5
5
5
5
5
5
5
5
5
5
5
5
5
5
5
5
5
5
5
5
5
5
5
5
5
5
5
5
5
5
5
5
5
5
5
5
5
5
5
5
5
5
5
5
5
5
5
5
5
5
5
5
5
5
5
5
5
5
5
5
5
5
5
5
5
5
5
5
5
5
5
5
5
5
5
5
5
5
5
5
5
5
5
5
5
5
5
5
5
5
5
5
5
5
5
5
5
5
5
5
5
5
5
5
5
5
5
5
5
5
5
5
5
5
5
5
5
5
5
5
5
5
5
5
5
5
5
5
5
5
5
5
5
5
5
5
5
5
5
5
5
5
5
5
5
5
5
5
5
5
5
5
5
5
5
5
5
5
5
5
5
5
5
5
5
5
5
5
5
5
5
5
5
5
5
5
5
5
5
5
5
5
5
5
5
5
5
5
5
5
5
5
5
5
5
5
5
5
5
5
5
5
5
5
5
5
5
5
5
5
5
5
5
5
5
5
5
5
5
5
5
5
5
5
5
5
5
5
5
5
5
5
5
5
5
5
5
5
5
5
5
5
5
5
5
5
5
5
5
5
5
10
10
10
10
10
10
10
10
10
10
10
10
10
10
10
10
10
10
10
10
10
10
10
10
10
10
10
10
10
10
10
10
10
10
10
10
10
10
10
10
10
10
10
10
10
10
10
10
10
10
10
10
10
10
10
10
10
10
10
10
10
10
10
10
10
10
10
10
10
10
10
10
10
10
10
10
10
10
10
10
10
10
10
10
10
10
10
10
10
10
10
10
10
10
10
10
10
10
10
10
10
10
10
10
10
10
10
10
10
10
10
10
10
10
10
10
10
10
10
10
10
10
10
10
10
10
10
10
10
10
10
10
10
10
10
10
10
10
10
10
10
10
10
10
10
10
10
10
10
10
10
10
10
10
10
10
10
10
10
10
10
10
10
10
10
10
10
10
10
10
10
10
10
10
10
10
10
10
10
10
10
10
10
10
10
10
10
10
10
10
10
10
10
10
10
10
10
10
10
10
10
10
10
10
10
10
10
10
10
10
10
10
10
10
10
10
10
10
10
10
10
10
10
10
10
10
10
10
10
10
10
10
10
10
10
10
10
10
10
10
10
10
10
10
10
10
10
10
10
10
10
10
10
10
10
10
10
10
10
10
10
10
10
10
10
10
10
10
10
10
10
10
10
10
10
10
10
10
10
10
10
10
10
10
10
10
10
10
10
10
10
10
10
10
10
10
10
10
10
10
10
10
10
10
10
10
10
10
10
10
10
10
10
10
10
10
10
10
10
10
10
10
10
10
10
10
10
10
10
10
10
10
10
10
10
10
10
10
10
10
10
10
10
10
10
10
10
10
10
10
10
10
10
10
10
10
10
10
10
10
10
10
10
10
10
10
10
10
10
10
10
10
10
10
10
10
10
10
10
10
10
10
10
10
10
10
10
10
10
10
10
10
10
10
10
10
10
10
10
10
10
10
10
10
10
10
10
10
10
10
10
10
10
10
10
10
10
10
10
10
10
10
10
10
10
10
10
10
10
10
10
10
10
10
10
10
10
10
10
10
10
10
10
10
10
10
10
10
10
10
10
10
10
10
10
10
10
10
10
10
10
10
10
10
10
10
10
10
10
10
10
10
10
10
10
10
10
10
10
10
10
10
10
10
10
10
10
10
10
10
10
10
10
10
10
10
10
10
10
10
10
10
10
10
10
10
10
10
10
10
10
10
10
10
10
10
10
10
10
10
10
10
10
10
10
10
10
10
10
10
10
10
10
10
10
10
10
10
10
10
10
10
10
10
10
10
10
10
10
10
10
10
10
10
10
10
10
10
10
10
10
10
10
10
10
10
10
10
10
10
10
10
10
10
10
10
10
10
10
10
10
10
10
10
10
10
10
10
10
10
10
10
10
10
10
10
10
10
10
10
10
10
10
10
10
10
10
10
10
10
10
10
10
10
10
10
10
10
10
10
10
10
10
10
10
10
10
10
10
10
10
10
10
10
10
10
10
10
10
10
10
10
10
10
10
10
10
10
10
10
10
10
10
10
10
10
10
10
10
10
10
10
10
10
10
10
10
10
10
10
10
10
10
10
10
10
10
10
10
10
10
10
10
10
10
10
10
10
10
10
10
10
10
10
10
10
10
10
10
10
10
10
10
10
10
10
10
10
10
10
10
10
10
10
10
10
10
10
10
10
10
10
10
10
10
10
10
10
10
10
10
10
10
10
10
10
10
10
10
10
10
10
10
10
10
10
10
10
10
10
10
10
10
10
10
10
10
10
10
10
10
10
10
10
10
10
10
10
10
10
10
10
10
10
10
10
10
10
10
10
10
10
10
10
10
10
10
10
10
10
10
10
10
10
10
10
10
10
10
10
10
10
10
10
10
10
10
10
10
10
10
10
10
10
10
10
10
10
10
10
10
10
10
10
10
10
10
10
10
10
10
10
10
10
10
10
10
10
10
10
10
10
10
10
10
10
10
10
10
10
10
10
10
10
10
10
10
10
10
10
10
10
10
10
10
10
10
10
10
10
10
10
10
10
10
10
10
10
10
10
10
10
10
10
10
10
10
10
10
10
10
10
10
10
10
10
10
10
10
10
10
10
10
10
10
10
10
10
10
10
10
10
10
10
10
10
10
10
10
10
10
10
10
10
10
10
10
10
10
10
10
10
10
10
10
10
10
10
10
10
10
10
10
10
10
10
10
10
10
10
10
10
10
10
10
10
10
10
10
10
10
10
10
10
10
10
10
10
10
10
10
10
10
10
10
10
10
10
10
10
10
10
10
10
10
10
10
10
10
10
10
10
10
10
10
10
10
10
10
10
10
10
10
10
10
10
10
10
10
10
10
10
10
10
10
10
10
10
10
10
10
10
10
10
10
10
10
10
10
10
10
10
10
10
10
10
10
10
10
10
10
10
10
10
10
10
10
10
10
10
10
10
10
10
10
10
10
10
10
10
10
10
10
10
10
10
10
10
10
10
10
10
10
10
10
10
10
10
10
10
10
10
10
10
10
10
10
10
10
10
10
10
10
10
10
10
10
10
10
10
10
10
10
10
10
10
10
10
10
10
10
10
10
10
10
10
10
10
10
10
10
10
10
10
10
10
10
10
10
10
10
10
10
10
10
10
10
10
10
10
10
10
10
10
10
10
10
10
10
10
10
10
10
10
10
10
10
10
10
10
10
10
10
10
10
10
10
10
10
10
10
10
10
10
10
10
10
10
10
10
10
10
10
10
10
10
10
10
10
10
10
10
10
10
10
10
10
10
10
10
10
10
10
10
10
10
10
10
10
10
10
10
10
10
10
10
10
10
10
10
10
10
10
10
10
10
10
10
10
10
10
10
10
10
10
10
10
10
10
10
10
10
10
10
10
10
10
10
10
10
10
10
10
10
10
10
10
10
10
10
10
10
10
10
10
10
10
10
10
10
10
10
10
10
10
10
10
10
10
10
10
10
10
10
10
10
10
10
10
10
10
10
10
10
10
10
10
10
10
10
10
10
10
10
10
10
10
10
10
10
10
10
10
10
10
10
10
10
10
10
10
10
10
10
10
10
10
10
10
10
10
10
10
10
10
10
10
10
10
10
10
10
10
10
10
10
10
10
10
10
10
10
10
10
10
10
10
10
10
10
10
10
10
10
10
10
10
10
10
10
10
10
10
10
10
10
10
10
10
10
10
10
10
10
10
10
10
10
10
10
10
10
10
10
10
10
10
10
10
10
10
10
10
10
10
10
10
10
10
10
10
10
10
10
10
10
10
10
10
10
10
10
10
10
10
10
10
10
10
10
10
10
10
10
10
10
10
10
10
10
10
10
10
10
10
10
10
10
10
10
10
10
10
10
10
10
10
10
10
10
10
10
10
10
10
10
10
10
10
10
10
10
10
10
10
10
10
10
10
10
10
10
10
10
10
10
10
10
10
10
10
10
10
10
10
10
10
10
10
10
10
10
10
10
10
10
10
10
10
10
10
10
10
10
10
10
10
10
10
10
10
10
10
10
10
10
10
10
10
10
10
10
10
10
10
10
10
10
10
10
10
10
10
10
10
10
10
10
10
10
10
10
10
10
10
10
10
10
10
10
10
10
10
10
10
10
10
10
10
10
10
10
10
10
10
10
10
10
10
10
10
10
10
10
10
10
10
10
10
10
10
10
10
10
10
10
10
10
10
10
10
10
10
10
10
10
10
10
10
10
10
10
10
10
10
10
10
10
10
10
10
10
10
10
10
10
10
10
10
10
10
10
10
10
10
10
10
10
10
10
10
10
10
10
10
10
10
10
10
10
10
10
10
10
10
10
10
10
10
10
10
10
10
10
10
10
10
10
10
10
10
10
10
10
10
10
10
10
10
10
10
10
10
10
10
10
10
10
10
10
10
10
10
10
10
10
10
10
10
10
10
10
10
10
10
10
10
10
10
10
10
10
10
10
10
10
10
10
10
10
10
10
10
10
10
10
10
10
10
10
10
10
10
10
10
10
10
10
10
10
10
10
10
10
10
10
10
10
10
10
10
10
10
10
10
10
10
10
10
10
10
10
10
