# vtk DataFile Version 2.0
whisker_body, Created by Gmsh 4.13.1 
ASCII
DATASET UNSTRUCTURED_GRID
POINTS 614 double
-7.858116822750931 -1.499999999999801 0
7.858116822750931 -1.499999999999802 0
-4.944207447977047 -1.500000000000045 36
4.944207447977048 -1.500000000000044 36
12 0 0
7.858116822750891 1.499999999999905 0
0 8 0
-7.85811682275089 1.499999999999909 0
6.490880522276705 0 70
4.9442074479771 1.499999999999957 36
0 5.166738554313734 36
-4.944207447977101 1.499999999999956 36
-6.371849713531152 -4.837306195412172 0
-3.556792827583766 -7.165837339882108 0
-9.797174393178826e-16 -8 0
3.55679282758376 -7.16583733988211 0
6.371849713531151 -4.837306195412173 0
-3.929058411375466 -1.5 0
0 -1.5 0
3.929058411375467 -1.5 0
-5.239554163477719 -1.5 32.40032335232608
-5.533649867739459 -1.5 28.80054263835969
-5.826683801081054 -1.5 25.20067493559471
-6.118808343409778 -1.5 21.60073406310713
-6.41014781118654 -1.5 18.00072963594376
-6.700804704626939 -1.5 14.4006683015923
-6.990863801278046 -1.5 10.80056130370023
-7.280396744884404 -1.5 7.200411465468846
-7.569464065888022 -1.5 3.600221587193985
-3.077749133470852 -4.150017778281366 36
3.956242700916928e-15 -5.166738554313734 36
3.077749133470849 -4.150017778281367 36
7.569464065888015 -1.5 3.600221587194071
7.280396744884397 -1.5 7.200411465468932
6.99086380127804 -1.5 10.80056130370031
6.700804704626933 -1.5 14.40066830159239
6.410147811186537 -1.5 18.00072963594378
6.118808343409775 -1.5 21.60073406310715
5.826683801081054 -1.5 25.20067493559471
5.533649867739459 -1.5 28.80054263835969
5.239554163477719 -1.5 32.40032335232608
-1.648069149325682 -1.5 36
1.648069149325682 -1.5 36
11.34980690040761 3.896393630456207 0
9.469686112756717 7.370552552276022 0
6.563377897469113 10.04599773915035 0
2.945825845689581 11.63280319127197 0
-0.9909521456679979 11.95901391608004 0
-4.820345095835646 10.98927991986068 0
-8.127378859508902 8.82868692807757 0
-10.55368501447787 5.71136871644487 0
-11.83633564083267 1.975135083368787 0
-11.83633564083267 -1.975135083368821 0
-10.55368501447786 -5.711368716444897 0
-8.12737885950888 -8.828686928077589 0
-4.820345095835619 -10.9892799198607 0
-0.9909521456679715 -11.95901391608004 0
2.945825845689616 -11.63280319127196 0
6.563377897469155 -10.04599773915032 0
9.469686112756747 -7.370552552275983 0
11.34980690040762 -3.896393630456205 0
6.371849713531105 4.837306195412233 0
3.556792827583735 7.165837339882123 0
3.929058411375445 1.5 0
0 1.5 0
-3.929058411375445 1.5 0
-3.55679282758373 7.165837339882126 0
-6.371849713531105 4.837306195412234 0
5.460476170550379 3.509234951570297 70
2.69640921655526 5.904312601086342 70
-0.9237486117790363 6.424812717636788 70
-4.250622782769287 4.905480191894958 70
-6.227954253695701 1.828692365693239 70
-6.227954253695695 -1.82869236569326 70
-4.250622782769273 -4.905480191894971 70
-0.9237486117790209 -6.42481271763679 70
2.696409216555272 -5.904312601086336 70
5.460476170550383 -3.509234951570289 70
11.69393780679315 0 3.888888888888888
11.3878756135863 0 7.777777777777777
11.08181342037945 0 11.66666666666667
10.7757512271726 0 15.55555555555555
10.46968903396575 0 19.44444444444444
10.1636268407589 0 23.33333333333333
9.857564647552053 0 27.22222222222222
9.551502454345203 0 31.11111111111111
9.245440261138352 0 35
8.939378067931504 0 38.88888888888889
8.633315874724653 0 42.77777777777777
8.327253681517803 0 46.66666666666666
8.021191488310954 0 50.55555555555556
7.715129295104104 0 54.44444444444444
7.409067101897254 0 58.33333333333333
7.103004908690405 0 62.22222222222221
6.796942715483555 0 66.11111111111111
5.239554163477719 1.5 32.40032335232608
5.533649867739459 1.5 28.80054263835969
5.826683801081054 1.5 25.20067493559471
6.118808343409778 1.5 21.60073406310713
6.41014781118654 1.5 18.00072963594376
6.700804704626939 1.5 14.4006683015923
6.990863801278046 1.5 10.80056130370023
7.280396744884404 1.5 7.200411465468846
7.569464065888022 1.5 3.600221587193985
3.077749133470891 4.150017778281336 36
0 7.716673855431374 3.6
0 7.433347710862747 7.199999999999999
0 7.150021566294121 10.8
0 6.866695421725494 14.4
0 6.583369277156867 18
0 6.30004313258824 21.6
0 6.016716988019614 25.2
0 5.733390843450987 28.8
0 5.450064698882361 32.4
-7.569464065888019 1.5 3.600221587194028
-7.280396744884401 1.5 7.200411465468889
-6.990863801278042 1.5 10.80056130370028
-6.700804704626934 1.5 14.40066830159235
-6.41014781118654 1.5 18.00072963594376
-6.118808343409778 1.5 21.60073406310713
-5.826683801081054 1.5 25.20067493559471
-5.533649867739459 1.5 28.80054263835969
-5.239554163477719 1.5 32.40032335232608
1.6480691493257 1.5 36
-1.6480691493257 1.5 36
-3.077749133470888 4.150017778281338 36
5.85924191410393 -4.35376514346853 8.897836079634768
5.372462445008198 -4.065888182795045 16.04074125500712
-5.513111481613098 -4.342369215434325 12.47908214468364
-1.780366938954858 -7.560084125803987 2.961944895653176
-4.813926347631172 -4.296497427569558 19.66381597489211
3.698222738231204 -4.922912887527773 23.41415741294453
-3.560913976267469 -4.321390052672559 30.50110822427274
4.073775886386781 -3.843914932551535 30.48203659288163
4.495058748835963 -6.315714919499024 3.15088955177004
-6.297689960872889 -4.215806188438297 5.355448668405783
-1.688951463967556 -5.112680912241915 33.23399537442688
-4.09523826286024 -4.228079775732618 26.8580684191185
-1.287505047452963 -5.622632973621738 28.3582148575076
-1.749736742256301 -5.787519705953885 24.82493248662969
1.663967210149097 -5.704624391965147 26.14491917398236
-5.166840420424904 -4.319886431785003 16.07576979459459
-2.889252040599142 -6.258151415845035 14.06688618248753
-3.312250238196075 -6.36454800308332 10.48452448255511
-0.08287408120204187 -7.058713576225152 11.95399667374558
-0.5641085022899981 -7.314346947473099 8.436059413139454
0.1346313054277042 -6.777026518625957 15.52236134107606
3.156881948409894 -6.195037168171125 13.30323175097063
4.74703266780396 -4.363323982019754 19.72376275491646
1.510108818086995 -6.154144398211729 21.13407491004278
-5.894354417221338 -4.305732016259479 8.900659913875279
-2.649583052383086 -6.05898836032438 17.62363921618623
-1.774967300588129 -6.074429178651308 21.23913747880957
3.319285869665726 -6.436137544799122 9.635723641186527
2.094240618583168 -7.214869858124717 6.192131405555791
-3.29561292474268 -6.720716311220149 6.540413029306398
1.558784264438374 -5.165727694202772 33.08962394112645
-4.462674283452203 -4.262288259086043 23.23828750021967
1.214204003872069 -7.668178943695724 3.002294526637753
2.605415644643074 -6.04851809732981 17.96911453042053
5.677939941445774 -4.120832993923515 12.50651805241664
6.432387940356626 -3.984149446055085 5.510541834556515
4.193311197042139 -4.125377435902552 26.90669368412716
-4.768627877673246 -6.135037710910948 2.917848750882098
-0.7087566412158404 -5.523787111236991 30.88787219165295
0.009215882144448786 -6.502504684028671 19.02739909517108
3.904307066495657 -3.686300979219236 33.42260867911774
-3.84662385383561 -3.741526752114523 33.46627086454208
1.662829328301749 -5.464884375251795 29.06843910192193
-0.3735216992488133 -7.550904294862097 5.588987089139525
-6.714310836754267 -3.957909607331573 2.617003387650922
0.6742856395150102 -6.101143897687076 23.65525407451301
6.709502519130674 -3.964817386078942 2.625006195897336
4.591006215213156 -5.867266314801877 6.988709302119529
4.295353274965308 -1.5 8.485726826144209
-3.234781007284687 -1.5 15.9533776733237
-3.004477672487332 -1.5 23.06522709623039
-0.04106971691267614 -1.5 33.40922913799698
-3.806196708668528 -1.5 8.641206624257684
3.166296276573734 -1.5 19.54977452380227
2.633589274001711 -1.5 26.75209440178336
1.975917518886318 -1.5 3.437295195717302
-3.84605427409471 -1.5 4.634691522093462
-0.5725343418984279 -1.5 6.441560980623396
-0.751655161534174 -1.5 10.54570948574631
1.97876557740361 -1.5 30.52054896044174
-0.6872664318851722 -1.5 28.29414535030978
3.208554794588142 -1.5 11.84099170860494
3.356351245626422 -1.5 15.86786285496778
0.1029051747812169 -1.5 17.65709950571767
-3.110943681252882 -1.5 19.56357712368106
2.957571981781587 -1.5 23.15567944985832
0.138496396860738 -1.5 13.97899972251532
-3.738791652535697 -1.5 12.36357509908019
0.01862645049162204 -1.5 21.28631028439807
-0.1693151088930334 -1.5 24.7940290676209
4.525187106626003 -1.5 5.447115960777651
-2.36859605712452 -1.5 31.00667131886641
-3.04427857641721 -1.5 26.03092381762309
2.753905324254283 -1.5 33.66602029015296
-2.854505078333535 -1.5 33.72451062454278
5.086210589543757 -1.5 2.551030070334453
-1.020866662132503 -1.5 2.82085903533188
1.633347696973519 -1.5 8.717131390108701
2.261615870435174 -1.5 6.438880893174366
0 -2.96299491302833 36
5.893587617063135 3.502692055588319e-14 0
-5.893587617063174 5.140332604014475e-14 0
-1.964529205687727 -5.551115123125783e-17 0
1.964529205687728 0 0
-10.05475109066195 1.057002649713154e-13 0
8.765690137960252 4.26004408380471 0
8.765690137960274 -4.260044083804643 0
-2.276010778504034 -9.537923667613388 0
-2.276010778504018 9.537923667613384 0
8.466875056264714 -3.317303643854778 36.93007096033316
7.821845623372724 3.279344685476489 44.70713471457508
9.120245910289237 3.327061996254799 29.12068223207024
9.438050282588245 -3.346942070676019 25.23539915122393
7.480602335079111 -3.305867378120807 48.55652201355586
-11.73088669374762 -1.940162152660215e-14 3.419408766471569
-2.879762434608169 11.37192468062311 3.419408766471415
6.812365077327485 3.293518903324991 56.32988361258961
-2.879762434608137 -11.37192468062312 3.419408766471416
10.03700683094855 3.489405754362892 17.45498758261763
-5.574956286394031 -3.78668395756391 66.84263711464807
10.40992648181423 -3.337958848351206 13.57027627075233
6.474699525225045 -3.286119309726038 60.21628526319177
8.493391781973815 3.256056274121223 36.89714897511699
-2.669043431082613 6.204494043296981 66.65390636929733
10.73011947691677 3.340138153048984 9.682499500092435
7.94511337650492 -8.630693833987381 3.419408766471505
-9.382025185936769 7.057263868497892 3.303737750555006
-9.257317901175359 -7.205259738421862 3.419408766471709
4.803466868453009 10.70734651965919 3.361547323836406
0.8577132096463104 -6.682361437659472 66.87043825172104
6.165289275614898 3.237167037505388 63.99506470565762
10.0733686959848 6.038330996047115 3.245938804936132
11.04956328535986 -3.342145186211126 5.794663767161262
8.783016539913215 -3.341931786525523 33.07000617794214
9.102545075636485 -3.36149058570941 29.18108665520185
7.611208606427684 -6.286816455844814 27.03997905948282
6.879424192480172 -6.190743779632303 34.88075559725996
7.996199202246782 -6.298655526033382 23.13786019255063
5.281824749839164 -8.542778425125565 24.85662570503997
5.715010904353043 -8.628689103281204 20.96945776769745
2.409586204936747 -9.933761573534991 22.59384420289131
1.920495161629743 -9.728975348874648 26.47062868389184
-1.18705066350801 -10.03173334255851 24.11992415358298
-1.680801449017463 -9.653258574303541 27.97277951559827
-0.6925830340437528 -10.38256099518798 20.25832547381912
-4.190155940420174 -9.400636965553099 21.69965563168639
-3.73710915203073 -9.914209315274325 17.85011526381134
-6.836928219271687 -7.953519307498699 19.20941137450332
-7.163188422986155 -7.242617663427911 23.04145696361544
-9.094766823697393 -5.021698265322373 20.46913564924288
-9.198936850700129 -4.144677891714113 24.27471063609224
-10.1983058705171 -1.432579864348417 21.62045531784573
-9.988918505929044 -0.4896264159887282 25.4008302350095
-9.953976520863005 2.29904561020787 22.66749407374319
-9.370421203342785 3.260279045484106 26.41109473820383
-8.362684729243853 5.738935338405114 23.602045614405
-7.416985122323608 6.481958297194446 27.31514646972684
-8.697482598686259 4.127351002550752 30.1504374406179
-5.604963761738087 8.375388923071117 24.4234219662696
-6.768892353947395 7.853739082201203 20.73426060698601
-10.42163906876213 1.375253179197525 18.90699087890821
-4.352737005181482 8.767586217033022 28.09837293801879
-0.1940645672767377 -10.70827308020493 16.39060464395387
-3.380367475072507 9.739790671049214 21.47699437942988
-4.746185202931127 9.47616445617888 17.81028484621179
-8.948883763619577 -5.846906895348472 16.64944240521958
-1.030811940127664 10.49493445467649 18.48198676062395
0.3999990738681296 10.25188510562783 22.1127917731506
6.524741635784824 -6.121799447744249 38.79213331655823
4.013253670520448 -8.183233931553442 36.66555745460211
3.626380678060273 -8.028800211265423 40.53555529642336
0.5839185476495607 -8.965834366296278 38.31138386247529
0.16592746797796 -8.680863953800111 42.15347471292453
-2.931469100343624 -8.365944143841229 39.83803144901826
-3.303128537434968 -7.902064048410841 43.6502272549517
-5.931799797645593 -6.437300243455574 41.24973491671117
-6.186017647391353 -5.765925596659877 45.02419602434285
-7.949483379014878 -3.416439305225011 42.53358915225726
-7.943272704022186 -2.600661336460589 46.27382627747377
-6.40977109274399 -5.052402148289077 48.77132627770006
-7.873439916110575 -1.751455692707246 49.98755066844598
-6.597768110249835 -4.288812486796822 52.48667108385916
-7.724958955028463 -0.8877994639890856 53.67345763571592
-7.757731322818455 1.869402192543134 51.08160227394211
-8.559578714907422 0.1583766228244368 43.69608156644909
-7.200427618891021 2.70775151231188 54.72906992214008
-9.240323277004277 -3.236715650132309 28.07045807169184
-6.004337603949486 5.141706235407195 52.0317572436125
-5.037971526982362 5.71782777826552 55.64457992072981
-2.445260017261438 10.55295269000095 14.83387776414825
-5.986422579920178 9.104205850611732 14.02706493601312
1.421496310008516 10.6911064579814 15.43557408200571
-6.726889040193566 -3.490113008366289 56.18194062413263
-4.453879298614579 -6.254898150689501 54.90868107888703
-6.524785198445621 3.505484259572304 58.36166308702482
-8.82400695973217 -0.7234803475373855 39.97859471656018
-8.270160497573533 2.916702553300301 41.04842444136457
-3.273520826866245 -10.39564361123653 13.99119638399828
0.2700458071978424 -11.01216895418948 12.50951834863085
-3.0130268932219 7.238072197944637 52.85585052400354
-4.149549264539813 6.984464447278832 49.24758644517435
-5.651055626330085 -7.070981955522493 37.46174369884489
-0.6264714945194176 8.041796925550184 49.98415503201991
-1.85577853528329 8.140475489097142 46.38620327463484
-0.2669679679360508 -8.378313243100825 45.96386312384355
-4.888446811382968 -5.552369200194782 58.47798017814646
0.3532218965599711 11.06953840318764 11.75104740972185
3.981100075486588 10.28527693252936 12.33931559504497
-1.674656003803791 -7.306404421835689 57.23043925661555
-3.992296108751729 6.15707705687405 59.2347835804846
3.359566171586512 -10.29875495291452 14.82981267088496
3.856416544674046 -10.4496486867981 10.94586836000549
-1.251461133985157 -7.689221110434023 53.48808504814667
1.808490967181123 -7.396955957106456 55.71890029343883
0.8718752447927359 -7.229810718077919 59.94542638282474
5.182500280957757 9.414683270802074 15.92290736990793
0.7123522021353557 7.752406627363178 53.55581308732967
3.150223455941388 7.374887070809625 50.57666224378047
-8.811537252471703 2.123887175748672 37.30682631469922
-7.17568509163279 5.405096354127452 38.32667478146795
2.294953036756585 -7.573450259728133 51.92352349153532
0.9967277334963729 -9.240240745540627 34.38498659807885
-5.726572673195713 4.236976128053159 61.96060425997709
-7.142148117748572 0.9119647111903664 60.98805384994781
-9.01725630016662 -1.568090703824457 36.17983278334392
-2.789031365303805 -10.84785054923587 10.15670641624724
-6.107836893703733 -9.260252000739595 11.52264369113248
7.04206774211759 8.436016107266324 12.84657144576828
8.361953471896747 -6.324833879358084 19.25561750379901
6.141003089616699 -6.082498890086144 42.64939093063388
-7.616431773357383 3.725898754516504 44.73936097604273
6.571303131013839 -8.773705036042726 13.19223918566893
4.960562803853538 -5.946789981695672 54.07600070369083
6.173850162223294 9.432579221961729 9.232086574512266
6.967275680860364 -8.848547849561461 9.373182112679208
4.324088995829404 -10.59684331165163 7.050384467628602
-5.32629398109382 -10.09809375600673 7.411603685517881
-8.487113833558158 -7.447670545367519 9.001825314186243
-6.603680995283898 2.079705553531051 64.50403420883336
-8.00396691955042 4.685147587545578 34.63230631587648
-5.437797367437262 7.425253119407957 35.53316948421423
-4.242590290514674 7.84133388241167 39.19232472357455
-1.832329848693629 8.960224869010949 36.26785236312864
-0.5765241697742967 8.837682233109339 39.9423741442335
1.849872620928992 8.899667457739303 36.97644692296723
0.5132927054831183 9.359801770711686 33.36819979117228
3.144012924083054 8.227298092336509 40.56369669567716
4.209002883111371 8.324657092983408 33.94822958179966
2.963286359148862 9.142563640534984 30.35762513792001
6.128278957827192 7.35831524366794 30.79928948703606
5.234329741745697 8.346369408941031 27.29409744357603
1.642611579644337 9.758102940890689 26.74160390974326
4.690319260378703 6.172042667087516 53.97620239545471
1.816719329558488 7.284593019800094 57.07990981219875
5.72914804898042 5.572768150507532 50.92104869587019
5.143087054328494 6.478202243603991 47.37451867007073
-2.829951043004895 6.466735315059812 62.78333083711854
-6.504471784522259 -2.597048311147125 63.4831041329227
1.422008314042538 -9.506309319455882 30.34143835478791
-2.166849368902052 -9.245992881653184 31.80991110156835
-5.031957342435733 -8.279001356309045 29.37339168566592
-5.365257980226898 -7.70178943940549 33.20958050931493
4.429476495266452 -8.324599268520084 32.65877628242423
8.125325701045401 6.98704524894902 16.31057953088996
6.301541693150611 8.356252718862432 19.49178473807643
4.043262182353629 9.293158212820341 23.70175218693822
7.212891193941352 7.065418157808556 24.18209467915849
8.850299723967813 5.392296334569219 20.79215143863551
9.919058884846141 4.581102421970722 13.64835217593424
6.538351839751178 3.157919130098961 60.2143743734327
4.414042537792629 5.585686402006251 62.01585914606407
4.138144047131052 5.387543977737858 66.15651582754822
-6.504940564237036 6.913775306379268 31.85613392084015
-9.325715485402791 1.240524415447229 32.93623428956081
-9.15332283630871 -2.363321732376898 32.35638644475308
-3.070134746753145 8.979865209976122 31.89015949704764
6.134253390665793 -3.277701462516695 64.10246807720824
4.44719752229916 -5.565774223815565 61.95185821582874
6.82538332782253 -3.2519847213036 56.40911025808903
0.4176052334049462 8.562760794165827 43.54495097298076
7.821444899016248 -3.273718557035624 44.73945163011107
3.184088801977888 -7.890276808492747 44.36347686853152
8.142665004172354 3.313992304868755 40.77142338138828
6.547933426142781 6.096020851535626 38.8004980519441
6.155496170381803 6.073937672719762 42.59490973459093
-3.689230240654186 -7.398443506352544 47.42911376049624
6.15802055071512 -8.6944786364728 17.09810324606251
8.921447666163926 2.944408273072196 33.10254168374649
-4.108975473238598 -6.832143239887355 51.17335947585379
-4.619375434080507 -8.857677728035263 25.54138946221508
-7.462857536274309 -6.483881681916386 26.85965193574242
-2.607334092586317 -8.790597126218785 35.96972192612201
-8.203927934533366 1.042116927809323 47.39603252381643
9.247461764425282 3.904838759672106 24.92838964392626
9.75344337363439 -3.367431168270402 21.36683284516031
10.73468677120717 -3.311697602165599 9.734035763886601
-6.500366499448212 -8.612041653459011 15.37572885779522
2.889041135896055 -10.12245141507147 18.72055330083293
2.833146186211836 10.11175380456694 19.04461571856078
-8.74431267117455 -6.657887155782566 12.82727483797651
-10.37237892751235 -4.214491011424522 10.2170579281733
-10.37781901318575 -3.313463817809461 14.05368413716731
-11.09224401634598 -0.5281919354752714 11.37443371929357
-11.37170102718439 -1.215045413448999 7.160842211853261
-11.02983072490431 2.536031033063219 8.670405674103415
-10.52066214416165 3.2872057517311 12.42345793708573
-9.504115593280458 6.021190149488303 9.518108863245052
0.8252769637312293 -11.28606138200553 8.688569525632996
0.7848632333440275 -11.59047350051871 4.866259159953717
-1.952397023604314 9.824102776850573 25.20619658915475
-7.674083670655969 -5.746147455228996 30.66060100535306
-0.7635266782988751 -8.04971929375388 49.73400425251636
-10.31402186915431 -2.417858921476624 17.86956979882953
-1.76526860976431 7.349442795678797 56.43497781274708
-7.865700756874627 -4.254277229452324 38.84935106821453
8.888669159815022 6.889866059547402 9.576988471894648
7.598264685449993 8.659714673215957 6.091321412623381
-7.819073636765159 7.246575549565313 17.01727385410431
-9.179758099299143 4.968726543686459 19.84443918350664
-6.254500785779039 6.039675334628694 41.99880484590953
-6.86874790249245 4.462419513300877 48.3976199776958
-10.79875499509293 0.4451680705998393 15.14672476364212
-2.757296387398454 -6.150354169781544 66.83280849978328
-1.40981398143522 -6.844909175707916 63.67603156902661
-4.51263561196046 -5.344032126485172 63.60133535803456
2.786435695843301 -7.721164766030288 48.17469527574249
-0.4869282342827714 7.264104205531265 59.96812982651458
0.5734210783601776 6.986153691290252 63.40844323786779
4.828132673870972 -8.45227473945911 28.79156980743505
-5.250202460358345 6.568435297274084 45.62972862405349
4.067720770705645 -5.383748686241623 66.73713159224978
-9.69039694022605 0.5232964893039823 29.16688883426026
-9.90014177988796 4.128969747554309 16.17934024860643
-6.808150394030012 -2.628073453248758 59.74729261195825
10.09252368562489 -3.324594675111756 17.45827263483055
8.744830728172122 -6.317778224131924 15.3967152685927
7.233294554197166 -6.258093556905324 30.94288969039014
5.790781333427548 -6.007950123301589 46.44910522655942
5.379797744762369 -5.97820693051614 50.28529846129835
7.164353290877433 -3.258929034060714 52.46720006279107
-3.135912086685135 8.041161770785962 42.80715499874128
-7.491900214314756 0.04688785162112238 57.27897457169704
-10.0072221291596 -5.645734465604736 6.480876363608078
9.084837723470475 -6.368551425055673 11.50272350783508
2.466884230776387 11.03791357504761 8.764498569627772
-1.403601177759911 11.27218108493036 8.141723217441534
1.092117035349939 11.54576331278141 5.11678711138226
-5.227120997012489 10.21083001378087 6.721580927627318
-3.928673905297156 10.44470850495288 10.68413426574669
9.090447959937713 -6.936171812195589 7.185951463137304
8.143344116689928 -3.301198668477189 40.8246041429809
1.802901397462049 8.089641165460373 47.16404942737201
-7.823264141492491 -4.915258215384834 35.07900913337932
-8.697306640392457 6.65384534602121 13.33321807692324
4.611957054041111 -5.8347969202411 57.97325779731037
-6.466113141939438 -9.789586727145592 3.401578715089108
-11.12227758724472 3.756462704870675 3.309852400191942
4.644756120182949 -10.77729677694288 3.359749051448041
-6.57100561731606 9.732884422269489 3.260568785415332
6.809758881506762 6.306345444293048 34.54416770445578
7.403281567692047 3.503943709466165 48.40280601839268
-11.11909868108967 -3.817191398723795 3.099357613423453
10.23150102214261 -5.772003778762268 3.210542373291887
11.0729416002626 3.182971904762964 6.081913120420572
0.5699835773061835 6.707696793888954 66.93793471373338
-5.446952315000612 3.956410219756108 66.9337882386955
-7.313116703378713 8.577565378471792 9.251064076341287
-0.8034223819367812 9.671463274807452 29.16357807964226
-2.895866219490761 -6.627647927778628 60.57445767584074
-6.707380564607688 -0.5057370651379259 67.00718906052731
4.886118269318272 5.591514634946426 58.12356043109436
7.801780303757355 5.99652661993244 27.44507462506
-2.046781421975172 -11.28116262194169 6.793542104063559
-10.1583460049319 5.408252656400713 6.247518612124317
3.474872106418678 7.769276531865849 44.33249101221788
7.982559235111276 8.671370879822698 2.716902208035781
7.103386629932726 3.272409118785554 53.1002676896098
-8.217646824186762 8.064633317833424 6.177514269052953
10.01025931840027 2.503457869424959 21.36477479460787
2.019629597301666 -6.662208873433268 64.01889063358031
6.122035329935732 2.785690997437425 67.01222632414377
4.638032905930259 10.50395766711042 6.577303592493303
-7.925285709536694 -8.365549493725489 6.053668744804655
9.753758506043663 6.060807044244517 6.563631756501612
6.143488771398524 -2.697195314817779 67.2222456573288
6.916106567908233 -9.196662437009357 6.264114192712495
4.697649565725202 7.787232329298109 36.91859840342177
11.43332361483514 -2.819177334261091 2.849171293455402
11.4365020934874 2.807602787303394 2.845090617668934
-4.670060726907787 5.116613254190411 64.45319368022633
-11.38960576986744 1.929988702732916 5.69278009887033
2.39221814077991 6.874907059067922 59.98318768514888
0.963588313764796 11.78835739083141 2.189609350286359
-5.325384635831397 -4.838754907331538 61.04868209413014
0.9858281538080402 -11.80112242815202 2.004692073361632
8.070718363939209 5.110009004266457 31.09947980494178
6.194157014788946 4.373867635920369 5.301494970021443
5.520431089154958 4.331180223900605 12.493827630872
4.700343395813155 4.417243884359431 19.69188745108617
3.055072416689104 6.625360569464422 8.947559158461807
3.042213586690608 6.002599592854131 16.14314330899053
4.116310976173398 4.205888721967927 26.87330887738448
3.025567321631938 5.369524432160545 23.33791571562692
3.003473172070613 4.723004726827593 30.53163001365264
3.443354618244709 6.884304368384389 3.844591425838648
5.894354417218518 4.305732016263455 8.900659913874419
2.855022883943295 6.404558407770464 12.55247990263143
5.461221018521901 3.93623568377796 16.11235246603674
3.753996656557209 3.863438030236782 33.2026393788309
2.385147772558214 5.986898215173023 19.76420583493286
5.085700576173644 3.482874972652336 23.32872338389871
6.196332749010451 4.684508044058527 2.950022255799047
3.848139650328239 6.410306705084421 6.649863966259166
1.823364503719842 4.994207192751041 34.09519881042697
1.938075065447443 5.535198021684264 27.13172578892205
1.755946700137627 7.642796181605235 2.008618717930655
-4.295356608142949 1.5 8.485721994062576
3.299070148008987 1.5 15.95817543097904
-3.004423143882295 1.5 23.06522266564578
-0.04106971691267702 1.5 33.40922913799697
3.806196708668529 1.5 8.641206624257684
-3.3755969880704 1.5 15.95717023429849
2.633589276817918 1.5 26.75209440226952
-1.975917518886314 1.5 3.437295195717291
3.84605427409471 1.5 4.63469152209346
0.572534341898427 1.5 6.44156098062339
0.7516551615341722 1.5 10.54570948574631
1.978765577690978 1.5 30.52054896049134
-0.6872664318851793 1.5 28.29414535030978
-3.194441474649643 1.5 11.84610117981566
3.147464391773639 1.5 19.54847962968327
-0.08632559108247229 1.5 17.67716295412772
-3.147493830795828 1.5 19.54843698067264
2.954487863389313 1.5 23.15545920366822
-0.1144045851535083 1.5 14.00265932465539
3.718659013648248 1.5 12.36856633362132
-0.02264728050930387 1.5 21.28687757248211
-0.1766989952216917 1.5 24.79408616958682
-4.525187251234922 1.5 5.447115751139203
-2.368596057124526 1.5 31.0066713188664
-3.045744447961937 1.5 26.03093435189936
2.753905324311759 1.5 33.66602029016288
-2.854505078333538 1.5 33.72451062454278
-5.086210610202166 1.5 2.551030040386089
1.020866662132505 1.5 2.820859035331876
-1.630525699621348 1.5 8.718152317934514
-2.261213224782942 1.5 6.439026019760894
-6.194157014788893 4.373867635920439 5.301494970021493
-5.520431089154928 4.331180223900637 12.49382763087205
-4.700343395813066 4.417243884359522 19.6918874510862
-3.055072416687642 6.625360569465036 8.947559158462512
-3.042213586690543 6.002599592854158 16.1431433089906
-4.116310975956599 4.205888722189341 26.87330887730065
-3.025567321631997 5.369524432160513 23.33791571562691
-3.003473172070654 4.72300472682757 30.53163001365263
-3.728777497700663 6.734842513376244 3.835060992273747
-5.876706956623608 4.320760785750596 8.968644826002715
-2.855022883941643 6.404558407771132 12.55247990263223
-5.461221018520842 3.93623568377954 16.11235246603593
-3.753996656557208 3.863438030236783 33.2026393788309
-2.385147772557595 5.98689821517324 19.76420583493322
-5.085700576173338 3.482874972652832 23.32872338389835
-6.287442238578601 4.564283929344374 2.929199310789917
-4.329769390590315 6.10776005104132 6.521281163535179
-1.983790486779779 4.947862345205731 33.91619082763224
-1.889759256696484 5.567439576918781 26.94453017198787
-2.056516772758018 7.563465517797753 2.057572024713644
2.036762255503579 -2.465878735148001 70
-2.931242834104605 1.814244488222067 70
2.220444710834426 2.562529799245061 70
-0.6831995369230197 -3.496268133505534 70
-0.02234530465756696 0.03719856234068248 70
-3.39055316097431 -1.091717545806296 70
3.607782420842984 0.02230827107295836 70
-0.5196398350093629 3.614174438789244 70
0 2.962994913028323 36
0 9.547918011776346e-15 44.19869040062972
-0.02130048983522492 -0.006498391499596856 52.46281139119922
0.01989753291926855 1.157514367289281e-05 60.34570794914401
-1.678614364088195 -3.194184731806072 40.71830791708101
-1.6786143640882 3.19418473180608 40.718307917081
-1.210071033840668 1.362328124936537 65.16238876953348
3.243536890253115 2.34991174966521 40.65579323318067
-3.19990926432139 -0.1248694243237536 48.32243505503283
1.308172377031753 2.980906497799648 48.33649667092187
3.061792026664009 -2.447962787595636 40.49244564622924
1.930273073604569 -2.561147798567282 48.33374218693113
-2.752161892736502 1.025096741263166 56.41779026364074
2.911009831860241 -0.2900154928277747 56.38927915238305
-4.203023275726706 2.664535259100376e-15 42.61508370198955
-0.7156660313519788 -3.043873162468252 55.83045268675943
-2.139045261875945 -3.831343959978291 45.13589780202559
2.882549458053282 -0.04176417409705367 63.84655342762419
-1.761340192765355 3.943577798891784 45.05673249733538
4.41046410687389 -0.2152893976228333 44.05819052379844
2.220446049250313e-16 9.769962616701378e-15 39.21268349760565
-2.162464407433916 3.444080670161886 50.91236683485865
0.7798399878515923 3.410224750786089 55.1796283938729
-0.8563896739692813 -4.034832376293457 51.24442549588949
1.99544962854167 -3.847632213430125 44.32147192070283
-0.4148486270620975 -2.899979266550737 65.17515730313107
2.984858622230606 3.65107280398922 44.59382253583749
-3.92251450903467 -1.207814781973252 52.20015250198055
3.800180212008077 0.4535341736712969 50.66837211869543
-2.957650484269222 -2.28262288030575 59.3200204031841
-1.097816696940526 3.51030553254242 58.97472589165811
1.060401285858561 -5.475420929093091 39.57638159870076
2.758448115480606 -2.912906897541612 52.61218093838153

CELLS 3232 14700
1 0
1 1
1 2
1 3
1 4
1 5
1 6
1 7
1 8
1 9
1 10
1 11
2 0 12
2 12 13
2 13 14
2 14 15
2 15 16
2 16 1
2 0 17
2 17 18
2 18 19
2 19 1
2 2 20
2 20 21
2 21 22
2 22 23
2 23 24
2 24 25
2 25 26
2 26 27
2 27 28
2 28 0
2 2 29
2 29 30
2 30 31
2 31 3
2 1 32
2 32 33
2 33 34
2 34 35
2 35 36
2 36 37
2 37 38
2 38 39
2 39 40
2 40 3
2 2 41
2 41 42
2 42 3
2 4 43
2 43 44
2 44 45
2 45 46
2 46 47
2 47 48
2 48 49
2 49 50
2 50 51
2 51 52
2 52 53
2 53 54
2 54 55
2 55 56
2 56 57
2 57 58
2 58 59
2 59 60
2 60 4
2 5 61
2 61 62
2 62 6
2 5 63
2 63 64
2 64 65
2 65 7
2 6 66
2 66 67
2 67 7
2 8 68
2 68 69
2 69 70
2 70 71
2 71 72
2 72 73
2 73 74
2 74 75
2 75 76
2 76 77
2 77 8
2 4 78
2 78 79
2 79 80
2 80 81
2 81 82
2 82 83
2 83 84
2 84 85
2 85 86
2 86 87
2 87 88
2 88 89
2 89 90
2 90 91
2 91 92
2 92 93
2 93 94
2 94 8
2 9 95
2 95 96
2 96 97
2 97 98
2 98 99
2 99 100
2 100 101
2 101 102
2 102 103
2 103 5
2 9 104
2 104 10
2 6 105
2 105 106
2 106 107
2 107 108
2 108 109
2 109 110
2 110 111
2 111 112
2 112 113
2 113 10
2 7 114
2 114 115
2 115 116
2 116 117
2 117 118
2 118 119
2 119 120
2 120 121
2 121 122
2 122 11
2 9 123
2 123 124
2 124 11
2 10 125
2 125 11
3 12 170 0
3 0 170 28
3 1 172 16
3 32 172 1
3 20 167 2
3 2 167 29
3 31 166 3
3 3 166 40
3 13 163 12
3 163 170 12
3 14 129 13
3 129 163 13
3 15 158 14
3 14 158 129
3 16 134 15
3 134 158 15
3 16 172 134
3 21 132 20
3 132 167 20
3 22 137 21
3 21 137 132
3 23 157 22
3 22 157 137
3 24 130 23
3 130 157 23
3 25 141 24
3 24 141 130
3 26 128 25
3 128 141 25
3 27 150 26
3 26 150 128
3 28 135 27
3 135 150 27
3 28 170 135
3 29 136 30
3 29 167 136
3 30 156 31
3 136 156 30
3 156 166 31
3 33 161 32
3 161 172 32
3 34 126 33
3 126 161 33
3 35 160 34
3 34 160 126
3 36 127 35
3 127 160 35
3 37 148 36
3 36 148 127
3 38 131 37
3 131 148 37
3 39 162 38
3 38 162 131
3 40 133 39
3 133 162 39
3 40 166 133
3 126 160 153
3 153 173 126
3 126 173 161
3 127 159 147
3 147 160 127
3 148 159 127
3 128 142 141
3 128 143 142
3 128 150 143
3 155 163 129
3 129 169 155
3 158 169 129
3 141 151 130
3 151 152 130
3 152 157 130
3 131 162 140
3 140 171 131
3 131 149 148
3 131 171 149
3 132 164 136
3 136 167 132
3 137 138 132
3 138 164 132
3 133 166 156
3 156 168 133
3 133 168 162
3 154 158 134
3 134 173 154
3 134 172 161
3 161 173 134
3 135 155 150
3 135 163 155
3 135 170 163
3 136 164 156
3 137 139 138
3 137 157 139
3 139 140 138
3 140 168 138
3 138 168 164
3 139 171 140
3 139 157 152
3 152 171 139
3 162 168 140
3 142 151 141
3 143 144 142
3 144 146 142
3 146 151 142
3 143 145 144
3 143 155 145
3 150 155 143
3 145 153 144
3 144 147 146
3 144 153 147
3 145 154 153
3 145 169 154
3 155 169 145
3 147 159 146
3 146 165 151
3 159 165 146
3 153 160 147
3 149 159 148
3 152 165 149
3 149 171 152
3 149 165 159
3 151 165 152
3 154 173 153
3 154 169 158
3 164 168 156
3 28 17 0
3 19 201 1
3 1 201 32
3 2 200 20
3 41 200 2
3 40 199 3
3 3 199 42
3 17 202 18
3 28 182 17
3 182 202 17
3 18 181 19
3 18 202 181
3 181 201 19
3 20 197 21
3 20 200 197
3 21 198 22
3 21 197 186
3 186 198 21
3 22 176 23
3 22 198 176
3 23 190 24
3 176 190 23
3 24 175 25
3 24 190 175
3 25 193 26
3 175 193 25
3 26 178 27
3 26 193 178
3 27 182 28
3 178 182 27
3 32 196 33
3 32 201 196
3 33 174 34
3 33 196 174
3 34 187 35
3 174 187 34
3 35 188 36
3 187 188 35
3 36 179 37
3 36 188 179
3 37 191 38
3 179 191 37
3 38 180 39
3 38 191 180
3 39 185 40
3 180 185 39
3 185 199 40
3 42 177 41
3 177 200 41
3 42 199 177
3 174 203 187
3 196 204 174
3 174 204 203
3 175 190 189
3 189 192 175
3 192 193 175
3 176 194 190
3 176 195 194
3 176 198 195
3 185 197 177
3 177 199 185
3 197 200 177
3 178 183 182
3 178 184 183
3 178 193 184
3 188 189 179
3 189 194 179
3 179 194 191
3 180 186 185
3 180 195 186
3 191 195 180
3 181 202 183
3 183 204 181
3 196 201 181
3 181 204 196
3 183 202 182
3 184 203 183
3 203 204 183
3 184 192 187
3 187 203 184
3 184 193 192
3 186 197 185
3 195 198 186
3 187 192 188
3 188 192 189
3 190 194 189
3 194 195 191
3 41 2 29
3 31 3 42
3 30 205 29
3 29 205 41
3 31 205 30
3 42 205 31
3 41 205 42
3 7 207 0
3 0 210 7
3 0 12 53
3 0 207 17
3 52 0 53
3 52 210 0
3 4 1 5
3 4 60 1
3 1 206 5
3 1 212 16
3 19 206 1
3 60 212 1
3 43 4 5
3 5 211 43
3 61 211 5
3 5 206 63
3 47 46 6
3 6 46 62
3 6 214 47
3 66 214 6
3 51 50 7
3 7 50 67
3 7 210 51
3 65 207 7
3 12 13 54
3 53 12 54
3 14 213 13
3 54 13 55
3 13 213 55
3 15 57 14
3 14 57 56
3 56 213 14
3 16 58 15
3 15 58 57
3 16 59 58
3 16 212 59
3 17 208 18
3 17 207 65
3 65 208 17
3 18 209 19
3 18 208 64
3 64 209 18
3 63 206 19
3 19 209 63
3 43 211 44
3 45 44 61
3 44 211 61
3 46 45 62
3 62 45 61
3 47 214 48
3 49 48 66
3 48 214 66
3 50 49 67
3 67 49 66
3 51 210 52
3 55 213 56
3 59 212 60
3 63 209 64
3 64 208 65
3 43 494 4
3 4 493 60
3 78 493 4
3 4 494 78
3 8 486 68
3 77 490 8
3 94 486 8
3 8 490 94
3 44 237 43
3 237 494 43
3 45 481 44
3 44 481 237
3 46 234 45
3 234 481 45
3 47 498 46
3 46 498 234
3 48 221 47
3 221 498 47
3 49 464 48
3 48 464 221
3 50 232 49
3 232 464 49
3 51 462 50
3 50 462 232
3 52 220 51
3 220 462 51
3 53 467 52
3 52 467 220
3 54 233 53
3 233 467 53
3 55 461 54
3 54 461 233
3 56 223 55
3 223 461 55
3 57 500 56
3 56 500 223
3 58 463 57
3 463 500 57
3 59 231 58
3 231 463 58
3 60 468 59
3 59 468 231
3 60 493 468
3 68 377 69
3 68 486 377
3 69 470 70
3 377 470 69
3 70 229 71
3 70 470 229
3 71 471 72
3 229 471 71
3 72 475 73
3 471 475 72
3 73 225 74
3 73 475 225
3 74 428 75
3 225 428 74
3 75 235 76
3 75 428 235
3 76 436 77
3 235 436 76
3 436 490 77
3 79 238 78
3 78 469 79
3 238 493 78
3 78 494 469
3 79 230 80
3 80 401 79
3 79 469 230
3 79 401 238
3 81 226 80
3 80 374 81
3 226 401 80
3 230 374 80
3 81 224 82
3 82 440 81
3 81 374 224
3 81 440 226
3 83 400 82
3 82 484 83
3 224 484 82
3 400 440 82
3 84 218 83
3 83 399 84
3 218 400 83
3 83 484 399
3 84 217 85
3 85 240 84
3 84 399 217
3 84 240 218
3 86 239 85
3 85 393 86
3 217 393 85
3 239 240 85
3 87 215 86
3 86 228 87
3 215 239 86
3 86 393 228
3 87 388 88
3 88 456 87
3 87 456 215
3 228 388 87
3 88 216 89
3 89 386 88
3 88 388 216
3 386 456 88
3 90 219 89
3 89 466 90
3 216 466 89
3 219 386 89
3 91 445 90
3 90 482 91
3 90 445 219
3 466 482 90
3 91 222 92
3 92 384 91
3 91 482 222
3 384 445 91
3 93 227 92
3 92 375 93
3 222 375 92
3 227 384 92
3 93 236 94
3 94 382 93
3 93 382 227
3 93 375 236
3 236 486 94
3 94 490 382
3 215 242 239
3 215 274 242
3 215 456 274
3 216 390 361
3 361 466 216
3 388 390 216
3 217 501 393
3 399 477 217
3 477 501 217
3 240 241 218
3 241 243 218
3 243 400 218
3 219 443 386
3 219 444 443
3 219 445 444
3 220 467 409
3 409 496 220
3 220 496 462
3 451 452 221
3 221 453 451
3 452 498 221
3 221 464 453
3 358 476 222
3 222 482 358
3 222 476 375
3 342 461 223
3 223 478 342
3 414 478 223
3 223 500 414
3 369 373 224
3 224 374 369
3 373 484 224
3 363 430 225
3 225 475 363
3 225 430 428
3 226 449 401
3 440 441 226
3 441 449 226
3 382 383 227
3 383 460 227
3 227 460 384
3 228 389 388
3 228 465 389
3 393 465 228
3 229 433 362
3 362 495 229
3 229 470 433
3 229 495 471
3 230 421 374
3 230 489 421
3 469 489 230
3 231 468 455
3 455 491 231
3 231 491 463
3 462 479 232
3 232 483 464
3 479 483 232
3 448 467 233
3 233 488 448
3 461 488 233
3 422 481 234
3 234 487 422
3 452 487 234
3 234 498 452
3 428 429 235
3 429 485 235
3 235 485 436
3 375 376 236
3 376 377 236
3 377 486 236
3 237 481 422
3 422 489 237
3 237 489 469
3 469 494 237
3 401 455 238
3 455 468 238
3 468 493 238
3 239 442 240
3 242 442 239
3 240 442 241
3 241 244 243
3 241 434 244
3 241 442 434
3 274 275 242
3 275 368 242
3 368 442 242
3 244 245 243
3 245 334 243
3 334 400 243
3 244 246 245
3 244 247 246
3 244 434 247
3 246 403 245
3 245 392 334
3 245 403 392
3 247 248 246
3 248 250 246
3 250 403 246
3 247 249 248
3 247 364 249
3 247 434 364
3 249 395 248
3 248 251 250
3 248 395 251
3 364 365 249
3 365 366 249
3 366 395 249
3 251 252 250
3 252 268 250
3 268 403 250
3 251 253 252
3 251 254 253
3 251 395 254
3 253 402 252
3 252 303 268
3 252 402 303
3 254 255 253
3 255 271 253
3 271 402 253
3 254 256 255
3 254 396 256
3 395 396 254
3 256 257 255
3 257 418 255
3 255 418 271
3 256 258 257
3 256 292 258
3 256 396 292
3 258 259 257
3 259 266 257
3 266 418 257
3 258 260 259
3 258 437 260
3 292 437 258
3 260 261 259
3 261 424 259
3 259 424 266
3 260 262 261
3 260 263 262
3 260 437 263
3 262 264 261
3 264 265 261
3 265 424 261
3 263 378 262
3 262 267 264
3 262 378 267
3 345 378 263
3 263 379 345
3 263 437 379
3 264 269 265
3 267 415 264
3 264 415 269
3 269 270 265
3 270 423 265
3 423 424 265
3 266 427 418
3 424 438 266
3 266 438 427
3 378 381 267
3 381 473 267
3 267 473 415
3 303 304 268
3 304 316 268
3 316 403 268
3 269 272 270
3 269 273 272
3 269 415 273
3 272 295 270
3 295 296 270
3 296 423 270
3 271 405 402
3 271 407 405
3 271 418 407
3 273 404 272
3 272 297 295
3 272 404 297
3 357 371 273
3 273 415 357
3 371 404 273
3 274 276 275
3 274 335 276
3 274 456 335
3 276 277 275
3 277 327 275
3 327 368 275
3 276 278 277
3 276 387 278
3 335 387 276
3 278 279 277
3 279 397 277
3 277 397 327
3 278 280 279
3 278 310 280
3 278 387 310
3 280 281 279
3 281 307 279
3 307 397 279
3 280 282 281
3 280 391 282
3 310 391 280
3 282 283 281
3 283 420 281
3 281 420 307
3 282 284 283
3 282 285 284
3 282 391 285
3 284 290 283
3 290 301 283
3 301 420 283
3 285 286 284
3 286 398 284
3 284 398 290
3 285 287 286
3 285 394 287
3 391 394 285
3 287 288 286
3 288 289 286
3 289 398 286
3 287 298 288
3 287 299 298
3 287 394 299
3 288 291 289
3 288 447 291
3 298 447 288
3 291 293 289
3 293 426 289
3 289 426 398
3 290 302 301
3 290 336 302
3 290 398 336
3 291 294 293
3 291 300 294
3 291 447 300
3 292 416 380
3 380 437 292
3 396 416 292
3 294 305 293
3 305 306 293
3 306 426 293
3 300 315 294
3 294 419 305
3 315 419 294
3 295 454 296
3 297 312 295
3 312 454 295
3 296 459 423
3 454 472 296
3 296 472 459
3 297 313 312
3 297 321 313
3 297 404 321
3 299 311 298
3 311 439 298
3 439 447 298
3 299 314 311
3 299 318 314
3 299 394 318
3 300 328 315
3 300 329 328
3 300 447 329
3 302 324 301
3 324 330 301
3 330 420 301
3 302 325 324
3 302 425 325
3 336 425 302
3 303 331 304
3 303 332 331
3 303 402 332
3 304 317 316
3 304 413 317
3 331 413 304
3 305 308 306
3 305 322 308
3 305 419 322
3 308 309 306
3 309 435 306
3 306 435 426
3 367 397 307
3 307 458 367
3 420 458 307
3 308 457 309
3 322 323 308
3 323 457 308
3 385 446 309
3 309 457 385
3 309 446 435
3 387 431 310
3 310 417 391
3 310 431 417
3 314 474 311
3 311 499 439
3 474 499 311
3 313 450 312
3 450 451 312
3 451 454 312
3 321 333 313
3 333 339 313
3 339 450 313
3 318 319 314
3 319 320 314
3 320 474 314
3 328 362 315
3 362 432 315
3 315 432 419
3 317 337 316
3 337 392 316
3 392 403 316
3 317 340 337
3 317 341 340
3 317 413 341
3 318 326 319
3 318 417 326
3 394 417 318
3 319 460 320
3 326 338 319
3 338 460 319
3 320 460 383
3 383 485 320
3 429 474 320
3 320 485 429
3 321 369 333
3 321 370 369
3 321 404 370
3 322 358 323
3 322 359 358
3 322 419 359
3 358 360 323
3 360 361 323
3 361 457 323
3 325 345 324
3 324 379 330
3 345 379 324
3 325 346 345
3 325 347 346
3 325 425 347
3 326 444 338
3 417 431 326
3 431 444 326
3 327 365 364
3 364 368 327
3 327 397 365
3 329 344 328
3 344 495 328
3 328 495 362
3 329 363 344
3 329 439 363
3 329 447 439
3 379 380 330
3 380 458 330
3 330 458 420
3 332 342 331
3 342 478 331
3 331 478 413
3 332 343 342
3 332 405 343
3 402 405 332
3 333 421 339
3 369 374 333
3 374 421 333
3 392 441 334
3 334 440 400
3 334 441 440
3 386 443 335
3 335 456 386
3 335 443 387
3 398 426 336
3 336 435 425
3 426 435 336
3 340 449 337
3 337 441 392
3 337 449 441
3 338 445 384
3 384 460 338
3 444 445 338
3 421 422 339
3 422 487 339
3 339 487 450
3 341 491 340
3 340 455 449
3 340 491 455
3 413 414 341
3 414 463 341
3 463 491 341
3 343 488 342
3 342 488 461
3 405 406 343
3 406 448 343
3 448 488 343
3 363 475 344
3 344 475 471
3 471 495 344
3 346 378 345
3 347 348 346
3 348 381 346
3 346 381 378
3 347 349 348
3 347 446 349
3 425 446 347
3 349 350 348
3 350 351 348
3 351 381 348
3 349 352 350
3 349 385 352
3 349 446 385
3 350 353 351
3 352 492 350
3 350 492 353
3 353 354 351
3 354 473 351
3 351 473 381
3 385 480 352
3 352 390 389
3 389 492 352
3 352 480 390
3 353 355 354
3 353 465 355
3 353 492 465
3 355 356 354
3 356 357 354
3 357 473 354
3 355 477 356
3 465 501 355
3 355 501 477
3 356 371 357
3 356 372 371
3 356 477 372
3 415 473 357
3 359 476 358
3 358 482 360
3 419 432 359
3 432 497 359
3 359 497 476
3 360 466 361
3 360 482 466
3 390 480 361
3 361 480 457
3 362 433 432
3 363 499 430
3 439 499 363
3 364 434 368
3 365 367 366
3 365 397 367
3 367 416 366
3 366 396 395
3 366 416 396
3 367 458 416
3 434 442 368
3 370 373 369
3 371 372 370
3 370 404 371
3 372 373 370
3 372 399 373
3 372 477 399
3 399 484 373
3 375 476 376
3 376 433 377
3 376 497 433
3 476 497 376
3 433 470 377
3 379 437 380
3 416 458 380
3 382 436 383
3 382 490 436
3 436 485 383
3 457 480 385
3 387 443 431
3 389 390 388
3 465 492 389
3 391 417 394
3 393 501 465
3 449 455 401
3 405 407 406
3 407 408 406
3 408 409 406
3 409 448 406
3 407 427 408
3 418 427 407
3 408 410 409
3 408 411 410
3 408 427 411
3 410 496 409
3 409 467 448
3 411 412 410
3 412 479 410
3 479 496 410
3 411 459 412
3 427 438 411
3 438 459 411
3 459 472 412
3 472 483 412
3 412 483 479
3 413 478 414
3 414 500 463
3 421 489 422
3 423 438 424
3 423 459 438
3 435 446 425
3 428 430 429
3 430 474 429
3 430 499 474
3 443 444 431
3 433 497 432
3 450 452 451
3 450 487 452
3 453 454 451
3 453 472 454
3 464 483 453
3 453 483 472
3 462 496 479
3 5 103 61
3 6 62 521
3 105 6 521
3 95 9 514
3 9 104 514
3 104 10 519
3 10 113 519
3 62 61 517
3 61 103 517
3 510 62 517
3 62 510 521
3 96 95 509
3 509 95 514
3 97 96 507
3 507 96 509
3 98 97 516
3 97 507 516
3 99 98 504
3 504 98 516
3 100 99 513
3 99 504 513
3 101 100 503
3 503 100 513
3 102 101 511
3 101 503 511
3 103 102 502
3 502 102 511
3 103 502 517
3 514 104 519
3 106 105 510
3 510 105 521
3 107 106 505
3 505 106 518
3 106 510 518
3 108 107 512
3 107 505 512
3 109 108 506
3 506 108 512
3 110 109 515
3 109 506 515
3 111 110 508
3 508 110 515
3 112 111 520
3 111 508 520
3 113 112 509
3 509 112 520
3 113 509 519
3 502 510 517
3 510 502 518
3 502 511 518
3 503 505 511
3 505 503 512
3 503 506 512
3 506 503 513
3 504 506 513
3 506 504 515
3 504 508 515
3 508 504 516
3 511 505 518
3 507 508 516
3 508 507 520
3 507 509 520
3 509 514 519
3 103 5 63
3 65 7 549
3 7 114 549
3 9 95 547
3 123 9 547
3 122 11 548
3 11 124 548
3 63 64 550
3 103 63 530
3 530 63 550
3 64 65 529
3 64 529 550
3 529 65 549
3 95 96 533
3 95 533 547
3 96 97 528
3 96 528 533
3 97 98 539
3 528 97 539
3 98 99 536
3 98 536 539
3 99 100 523
3 99 523 536
3 100 101 541
3 523 100 541
3 101 102 526
3 101 526 541
3 102 103 530
3 526 102 530
3 114 115 544
3 114 544 549
3 115 116 522
3 115 522 544
3 116 117 535
3 522 116 535
3 117 118 527
3 117 527 535
3 118 119 538
3 527 118 538
3 119 120 524
3 119 524 538
3 120 121 546
3 524 120 546
3 121 122 545
3 534 121 545
3 121 534 546
3 545 122 548
3 124 123 525
3 525 123 547
3 124 525 548
3 522 535 551
3 544 522 552
3 522 551 552
3 536 523 537
3 537 523 540
3 540 523 541
3 538 524 542
3 542 524 543
3 543 524 546
3 525 533 545
3 533 525 547
3 525 545 548
3 526 530 531
3 526 531 532
3 526 532 541
3 535 527 540
3 537 527 538
3 527 537 540
3 533 528 534
3 534 528 543
3 528 539 543
3 529 531 550
3 531 529 552
3 544 529 549
3 529 544 552
3 531 530 550
3 532 531 551
3 551 531 552
3 532 535 540
3 535 532 551
3 532 540 541
3 533 534 545
3 534 543 546
3 536 537 542
3 539 536 542
3 537 538 542
3 539 542 543
3 66 6 572
3 6 105 572
3 67 114 7
3 113 10 570
3 10 125 570
3 11 122 565
3 125 11 565
3 67 66 568
3 66 561 568
3 561 66 572
3 114 67 568
3 105 106 561
3 105 561 572
3 106 107 556
3 106 556 569
3 561 106 569
3 107 108 563
3 556 107 563
3 108 109 557
3 108 557 563
3 109 110 566
3 557 109 566
3 110 111 559
3 110 559 566
3 111 112 571
3 559 111 571
3 112 113 560
3 112 560 571
3 560 113 570
3 115 114 553
3 553 114 568
3 116 115 562
3 115 553 562
3 117 116 554
3 554 116 562
3 118 117 564
3 117 554 564
3 119 118 555
3 555 118 564
3 120 119 567
3 119 555 567
3 121 120 558
3 558 120 567
3 122 121 560
3 121 558 560
3 122 560 565
3 125 565 570
3 561 553 568
3 553 561 569
3 562 553 569
3 556 554 562
3 554 556 563
3 557 554 563
3 554 557 564
3 557 555 564
3 555 557 566
3 559 555 566
3 555 559 567
3 556 562 569
3 559 558 567
3 558 559 571
3 560 558 571
3 565 560 570
3 68 579 8
3 8 579 77
3 69 575 68
3 575 579 68
3 70 580 69
3 69 580 575
3 71 580 70
3 72 574 71
3 574 580 71
3 73 578 72
3 72 578 574
3 74 578 73
3 75 576 74
3 576 578 74
3 76 576 75
3 77 573 76
3 573 576 76
3 77 579 573
3 573 577 576
3 573 579 577
3 574 578 577
3 577 580 574
3 577 579 575
3 575 580 577
3 577 578 576
3 123 104 9
3 10 104 581
3 125 10 581
3 125 124 11
3 104 123 581
3 123 124 581
3 124 125 581
4 227 594 584 598
4 227 93 594 598
4 328 329 584 587
4 584 587 329 610
4 328 587 584 611
4 376 375 584 611
4 92 93 375 594
4 420 585 2 595
4 460 584 594 596
4 11 595 2 601
4 124 2 41 601
4 2 595 585 601
4 227 93 92 594
4 433 587 584 598
4 227 460 584 594
4 302 11 586 595
4 323 590 360 603
4 352 586 10 588
4 586 595 11 601
4 320 606 584 610
4 376 476 375 611
4 2 585 41 601
4 584 587 433 611
4 360 603 590 609
4 577 587 575 598
4 460 320 584 596
4 301 420 2 595
4 352 10 104 588
4 584 606 587 610
4 328 584 329 611
4 586 588 352 607
4 11 325 302 586
4 124 586 11 601
4 11 301 2 595
4 336 589 595 599
4 376 584 375 598
4 433 584 376 598
4 349 10 352 586
4 124 11 2 601
4 376 584 433 611
4 420 29 2 585
4 579 577 575 598
4 376 497 476 611
4 363 329 587 610
4 328 362 587 611
4 88 588 87 591
4 385 586 352 607
4 363 587 606 610
4 302 301 11 595
4 584 596 320 610
4 336 589 398 595
4 11 125 325 586
4 329 584 610 611
4 336 426 589 599
4 358 323 360 603
4 323 602 590 603
4 577 598 573 606
4 283 585 420 595
4 383 584 320 606
4 383 227 460 584
4 476 603 594 611
4 581 10 586 588
4 588 591 88 600
4 42 591 123 601
4 285 597 589 604
4 575 587 377 598
4 577 579 573 598
4 581 104 10 588
4 383 598 584 606
4 429 606 320 610
4 9 123 42 591
4 358 603 360 609
4 385 599 586 607
4 575 580 470 587
4 429 320 474 610
4 227 584 383 598
4 329 610 593 611
4 285 391 597 604
4 585 595 283 597
4 417 592 310 597
4 225 587 578 606
4 219 592 89 600
4 336 426 398 589
4 383 460 320 584
4 577 587 598 606
4 281 585 283 597
4 89 600 592 609
4 592 597 417 604
4 219 89 592 609
4 284 595 589 597
4 495 328 362 587
4 328 344 329 587
4 291 602 593 608
4 347 125 10 586
4 425 595 586 599
4 9 42 3 591
4 88 87 456 591
4 398 589 284 595
4 589 599 426 602
4 575 470 377 587
4 123 591 588 601
4 294 593 291 602
4 283 281 420 585
4 466 600 590 607
4 322 602 323 603
4 383 320 485 606
4 325 425 302 586
4 329 593 300 611
4 9 588 123 591
4 336 595 425 599
4 219 443 592 600
4 293 294 291 602
4 349 352 385 586
4 362 433 587 611
4 590 600 466 609
4 579 575 486 598
4 363 587 225 606
4 490 573 579 598
4 417 431 310 592
4 283 420 301 595
4 219 386 443 600
4 443 592 600 605
4 294 593 602 603
4 29 279 30 612
4 306 599 309 602
4 309 599 308 602
4 590 603 583 609
4 302 586 425 595
4 308 599 590 602
4 347 325 125 586
4 328 329 300 611
4 306 309 308 602
4 285 604 589 608
4 281 283 282 597
4 456 87 3 591
4 310 597 592 605
4 592 600 590 609
4 306 426 599 602
4 291 289 602 608
4 590 602 583 603
4 347 10 349 586
4 377 587 433 598
4 291 289 293 602
4 585 597 278 605
4 575 377 486 598
4 430 363 606 610
4 417 597 391 604
4 593 596 298 608
4 294 602 305 603
4 284 589 285 597
4 225 475 578 587
4 88 388 87 588
4 29 585 279 612
4 290 398 284 595
4 344 363 329 587
4 310 592 431 605
4 590 592 582 600
4 573 490 436 598
4 474 430 429 610
4 352 10 350 104
4 41 2 29 585
4 436 573 598 606
4 89 466 600 609
4 430 606 429 610
4 582 590 589 592
4 278 585 605 612
4 460 596 594 613
4 589 590 583 592
4 376 433 497 611
4 308 590 323 602
4 589 597 592 604
4 581 588 586 601
4 594 603 482 609
4 278 585 280 597
4 88 591 456 600
4 104 581 123 588
4 285 394 391 604
4 593 610 584 611
4 9 87 388 588
4 29 307 279 585
4 386 443 600 605
4 11 124 125 586
4 298 596 593 610
4 298 596 299 608
4 3 274 456 591
4 429 485 320 606
4 290 336 398 595
4 225 363 475 587
4 322 308 323 602
4 336 435 426 599
4 391 417 310 597
4 288 593 298 608
4 446 586 385 599
4 377 433 376 598
4 289 589 426 602
4 347 425 325 586
4 302 425 336 595
4 581 123 588 601
4 11 302 324 301
4 31 274 3 591
4 389 352 104 588
4 582 588 586 607
4 446 349 385 586
4 582 595 589 599
4 386 591 335 600
4 394 604 285 608
4 386 456 335 591
4 335 600 591 605
4 386 456 591 600
4 447 298 288 593
4 294 305 419 603
4 578 587 577 606
4 385 352 480 607
4 435 306 426 599
4 384 338 594 613
4 456 3 215 274
4 294 603 419 611
4 582 592 589 597
4 460 319 596 613
4 294 593 603 611
4 589 602 289 608
4 350 349 10 352
4 575 577 580 587
4 582 586 599 607
4 278 597 310 605
4 596 604 299 608
4 375 476 222 594
4 320 596 314 610
4 584 594 593 611
4 281 280 585 597
4 284 285 282 597
4 460 594 338 613
4 475 574 578 587
4 219 592 444 613
4 222 482 594 603
4 219 609 592 613
4 281 279 307 585
4 91 594 609 613
4 470 433 377 587
4 590 600 582 607
4 593 602 583 608
4 490 579 94 598
4 583 603 594 609
4 236 376 375 598
4 358 482 603 609
4 589 595 582 597
4 329 447 593 610
4 280 278 279 585
4 397 30 29 279
4 91 594 482 609
4 386 600 335 605
4 435 336 425 599
4 589 590 582 599
4 425 586 446 599
4 589 592 583 604
4 588 591 582 601
4 276 605 591 612
4 590 599 589 602
4 385 457 599 607
4 460 384 338 594
4 335 591 276 605
4 286 285 589 608
4 590 599 457 607
4 326 592 431 604
4 431 592 417 604
4 428 225 576 606
4 460 338 319 613
4 594 603 593 611
4 456 215 3 87
4 388 588 88 600
4 579 486 94 598
4 104 9 389 588
4 287 394 285 608
4 447 298 593 610
4 436 598 382 606
4 492 352 350 104
4 291 593 288 608
4 284 286 285 589
4 586 588 582 601
4 593 594 584 596
4 445 609 219 613
4 9 388 389 588
4 474 320 314 610
4 300 329 447 593
4 426 289 398 589
4 499 430 474 610
4 299 298 311 596
4 298 311 596 610
4 384 594 91 613
4 274 591 31 612
4 358 360 482 609
4 310 278 280 597
4 225 578 576 606
4 326 444 431 592
4 278 279 585 612
4 495 344 328 587
4 445 219 444 613
4 585 582 591 601
4 219 89 386 600
4 319 604 596 613
4 222 594 476 603
4 318 596 319 604
4 358 322 323 603
4 577 578 574 587
4 592 604 326 613
4 497 359 476 611
4 444 592 326 613
4 583 590 589 602
4 585 205 601 612
4 22 23 258 120
4 31 42 205 612
4 377 376 236 598
4 125 581 10 586
4 583 602 593 603
4 583 594 593 596
4 375 222 92 594
4 347 349 446 586
4 574 475 471 587
4 583 592 590 609
4 492 389 352 104
4 582 591 588 600
4 585 591 582 605
4 281 280 279 585
4 302 325 11 324
4 298 299 287 608
4 430 499 363 610
4 582 595 586 601
4 120 23 258 119
4 315 300 294 611
4 291 447 288 593
4 384 91 445 613
4 300 593 294 611
4 359 603 476 611
4 318 319 326 604
4 326 604 319 613
4 582 585 595 601
4 124 581 125 586
4 363 225 430 606
4 293 305 294 602
4 289 426 293 602
4 460 319 320 596
4 315 328 300 611
4 227 384 460 594
4 205 41 29 585
4 580 574 229 587
4 219 90 89 609
4 281 282 280 597
4 385 480 457 607
4 446 425 347 586
4 93 236 375 598
4 91 609 445 613
4 279 277 30 612
4 431 592 443 605
4 326 431 417 604
4 118 23 119 266
4 360 590 466 609
4 278 605 387 612
4 118 24 23 266
4 584 598 587 606
4 593 594 583 603
4 284 398 286 589
4 228 9 87 388
4 382 227 383 598
4 276 387 605 612
4 286 589 289 608
4 576 578 577 606
4 382 93 227 598
4 284 283 290 595
4 299 596 318 604
4 309 385 457 599
4 23 257 258 119
4 31 591 42 612
4 289 286 398 589
4 347 10 125 348
4 222 358 482 603
4 120 258 22 437
4 389 9 228 388
4 475 363 344 587
4 432 497 433 611
4 227 92 384 594
4 274 276 335 591
4 387 335 276 605
4 257 23 24 266
4 577 574 580 587
4 74 576 428 225
4 305 602 322 603
4 444 219 443 592
4 171 140 139 247
4 386 335 443 605
4 151 252 142 146
4 23 257 119 266
4 91 222 482 594
4 275 274 31 612
4 11 20 2 379
4 229 470 580 587
4 10 347 349 348
4 274 276 591 612
4 388 216 588 600
4 582 600 592 605
4 3 31 215 274
4 291 288 289 608
4 466 216 600 607
4 137 396 22 157
4 387 278 310 605
4 586 595 582 599
4 308 457 323 590
4 252 303 142 146
4 362 229 495 587
4 124 581 586 601
4 573 576 577 606
4 592 597 582 605
4 588 600 216 607
4 408 410 116 115
4 123 9 104 588
4 585 601 591 612
4 329 439 447 610
4 315 362 328 611
4 271 128 405 407
4 119 258 120 259
4 352 588 390 607
4 205 41 585 601
4 435 425 446 599
4 119 257 258 259
4 573 235 576 606
4 139 248 171 247
4 116 27 408 115
4 501 477 507 355
4 276 278 387 612
4 593 596 584 610
4 583 609 594 613
4 582 595 585 597
4 279 397 30 277
4 431 444 443 592
4 589 604 583 608
4 394 417 391 604
4 78 102 33 79
4 382 436 490 598
4 585 582 597 605
4 583 596 593 608
4 251 395 139 157
4 225 74 576 578
4 310 431 387 605
4 286 287 285 608
4 162 240 39 133
4 290 302 336 595
4 447 439 298 610
4 130 254 251 157
4 314 320 319 596
4 157 396 22 256
4 229 574 471 587
4 251 152 130 157
4 274 335 456 591
4 31 3 215 242
4 248 250 152 171
4 249 248 139 247
4 362 433 229 587
4 285 391 282 597
4 432 433 362 611
4 3 42 31 591
4 24 25 141 271
4 470 229 433 587
4 256 22 23 258
4 386 88 456 600
4 436 235 573 606
4 139 152 251 157
4 166 239 3 242
4 224 99 504 513
4 152 165 252 151
4 250 248 246 171
4 591 605 585 612
4 118 427 24 266
4 26 27 408 116
4 368 166 31 242
4 31 215 274 242
4 419 315 294 611
4 256 23 157 255
4 149 152 250 171
4 582 599 590 607
4 435 309 306 599
4 2 29 420 458
4 314 596 311 610
4 430 225 428 606
4 149 250 246 171
4 379 20 2 330
4 275 31 30 612
4 395 366 138 137
4 130 24 141 271
4 290 301 302 595
4 78 33 32 238
4 303 252 268 146
4 322 305 308 602
4 275 30 31 156
4 379 2 11 330
4 89 466 216 600
4 588 582 600 607
4 24 130 255 271
4 299 311 314 596
4 582 591 600 605
4 25 24 418 271
4 38 240 162 241
4 294 300 291 593
4 156 136 164 327
4 148 36 400 334
4 138 139 395 137
4 34 33 102 79
4 152 252 165 250
4 365 164 136 327
4 240 39 38 162
4 243 218 38 241
4 247 171 140 244
4 126 161 33 455
4 507 509 501 355
4 363 439 329 610
4 408 25 26 116
4 305 322 419 603
4 388 88 216 600
4 142 332 402 128
4 361 466 590 607
4 251 253 254 130
4 156 166 31 368
4 108 272 109 297
4 257 256 23 258
4 222 476 358 603
4 427 418 24 266
4 301 290 283 595
4 276 274 275 612
4 255 23 24 257
4 431 443 387 605
4 480 352 390 607
4 307 397 29 279
4 402 253 151 141
4 445 90 219 609
4 583 602 589 608
4 122 20 11 379
4 137 395 396 157
4 109 272 270 566
4 486 377 236 598
4 136 164 365 132
4 115 553 479 562
4 140 168 138 247
4 164 138 366 132
4 33 32 103 78
4 239 3 40 166
4 249 138 168 247
4 162 133 434 442
4 113 112 473 354
4 501 477 96 507
4 251 252 253 151
4 269 272 110 566
4 395 251 254 157
4 394 299 318 604
4 33 78 79 238
4 246 171 247 244
4 101 511 421 230
4 110 272 109 566
4 474 314 311 610
4 121 120 22 437
4 440 400 36 334
4 89 90 466 609
4 141 142 402 128
4 48 572 214 221
4 583 604 596 608
4 272 295 108 109
4 157 23 130 255
4 101 34 102 79
4 165 268 146 403
4 407 26 128 406
4 361 466 360 590
4 9 104 228 465
4 301 330 2 420
4 408 409 410 115
4 119 261 567 424
4 241 162 434 442
4 117 427 24 118
4 454 563 107 312
4 389 9 104 228
4 86 9 3 87
4 99 36 82 98
4 24 25 427 117
4 239 215 3 242
4 51 220 210 462
4 24 25 418 427
4 22 396 137 292
4 368 31 275 242
4 252 165 250 268
4 271 418 25 407
4 151 252 402 142
4 327 164 156 364
4 297 313 321 512
4 312 108 107 512
4 519 509 113 354
4 572 66 48 214
4 434 140 162 244
4 594 596 583 613
4 40 39 240 133
4 366 365 138 164
4 256 157 254 255
4 299 314 318 596
4 240 38 218 241
4 128 25 26 407
4 110 415 269 559
4 300 447 291 593
4 3 31 166 242
4 410 116 115 562
4 139 395 249 138
4 249 138 164 364
4 395 366 249 138
4 166 133 40 442
4 275 30 277 612
4 409 408 27 115
4 153 126 160 340
4 397 136 30 327
4 559 110 415 111
4 146 268 303 304
4 567 264 265 261
4 252 251 152 151
4 260 258 120 437
4 407 128 405 406
4 509 501 96 507
4 392 337 127 441
4 166 40 239 442
4 395 254 396 157
4 323 361 360 590
4 110 111 508 371
4 92 222 91 594
4 9 393 514 465
4 334 400 148 243
4 156 31 275 368
4 86 3 40 239
4 275 30 156 327
4 366 365 164 132
4 564 438 118 424
4 91 90 445 609
4 426 306 293 602
4 562 553 479 483
4 316 146 268 403
4 340 126 160 449
4 418 255 24 257
4 119 567 555 424
4 136 29 367 397
4 377 575 69 470
4 567 262 261 260
4 25 408 117 116
4 384 92 91 594
4 340 160 153 337
4 228 104 389 465
4 251 252 152 250
4 137 139 395 157
4 575 580 69 470
4 119 118 266 424
4 327 365 164 364
4 248 152 251 139
4 24 255 418 271
4 303 144 146 304
4 261 555 567 424
4 390 588 216 607
4 97 96 477 507
4 332 143 150 128
4 364 249 168 247
4 142 402 151 141
4 136 367 29 167
4 257 24 418 266
4 33 401 126 455
4 213 13 461 129
4 157 130 254 255
4 143 303 331 144
4 292 22 396 256
4 11 345 325 125
4 567 265 264 559
4 127 440 36 334
4 463 134 154 491
4 30 29 136 397
4 288 298 287 608
4 40 39 85 240
4 504 373 224 513
4 130 141 253 271
4 144 143 303 142
4 509 519 353 354
4 32 1 78 493
4 138 249 168 364
4 251 395 248 139
4 303 402 252 142
4 86 40 3 95
4 461 223 213 129
4 572 6 214 498
4 29 420 458 307
4 25 408 427 117
4 124 41 42 601
4 42 123 124 601
4 239 40 85 240
4 344 471 475 587
4 221 572 214 498
4 238 33 161 455
4 405 402 332 128
4 150 155 488 135
4 161 173 134 491
4 388 216 390 588
4 538 176 542 524
4 116 410 412 562
4 261 119 259 424
4 496 409 27 115
4 303 144 142 146
4 416 137 396 292
4 104 9 514 465
4 389 390 352 588
4 332 343 405 128
4 461 163 155 129
4 96 477 217 97
4 78 469 102 79
4 337 340 160 449
4 86 3 9 95
4 95 9 393 514
4 265 269 559 566
4 114 50 7 462
4 195 194 543 539
4 200 2 41 548
4 438 427 118 266
4 473 111 112 571
4 114 496 27 115
4 132 137 366 416
4 488 461 163 155
4 457 361 590 607
4 309 446 385 599
4 266 257 119 259
4 583 604 592 613
4 42 124 525 41
4 124 42 525 123
4 368 168 133 434
4 413 145 331 304
4 384 445 338 613
4 200 20 2 548
4 3 215 86 87
4 437 20 122 379
4 503 511 421 101
4 157 254 396 256
4 157 22 23 256
4 402 253 252 151
4 109 110 515 404
4 86 215 3 239
4 167 367 29 458
4 253 151 141 130
4 130 23 24 255
4 272 108 295 297
4 262 264 558 567
4 268 146 316 304
4 23 22 176 120
4 142 143 332 128
4 103 102 33 78
4 342 143 155 150
4 120 524 176 119
4 416 167 20 458
4 104 10 350 519
4 179 539 194 191
4 30 275 277 327
4 331 478 155 145
4 134 173 154 491
4 195 194 539 191
4 580 71 229 574
4 194 543 176 195
4 176 524 538 119
4 220 210 462 114
4 542 543 194 539
4 118 555 564 424
4 438 564 423 424
4 317 316 147 304
4 176 543 542 524
4 119 266 259 424
4 242 166 239 442
4 262 264 567 261
4 396 366 137 416
4 262 558 560 263
4 339 505 511 503
4 365 249 164 364
4 343 332 150 128
4 255 130 253 271
4 218 37 400 243
4 36 148 127 334
4 10 113 570 351
4 314 319 318 596
4 555 567 265 261
4 337 127 147 392
4 511 333 339 503
4 400 37 148 243
4 365 249 138 164
4 576 235 428 606
4 443 335 387 605
4 454 295 563 312
4 596 604 583 613
4 218 38 37 243
4 536 194 542 189
4 270 265 423 555
4 380 20 437 379
4 334 148 127 392
4 98 97 539 191
4 165 250 268 403
4 477 399 217 97
4 539 543 195 528
4 321 297 512 506
4 176 190 23 538
4 176 538 542 190
4 512 297 108 506
4 231 161 134 491
4 179 98 539 191
4 508 515 110 371
4 536 542 194 539
4 120 176 23 119
4 265 555 261 424
4 555 423 564 424
4 341 153 154 413
4 479 412 562 483
4 543 194 176 542
4 156 30 136 327
4 338 326 319 613
4 538 23 176 119
4 55 13 461 213
4 109 270 557 566
4 547 40 3 199
4 341 463 154 491
4 528 539 97 191
4 351 113 473 354
4 414 154 169 413
4 190 24 23 538
4 457 361 323 590
4 557 108 295 109
4 119 538 23 118
4 539 179 194 536
4 224 99 373 504
4 583 592 609 613
4 356 507 477 355
4 365 367 136 132
4 400 37 36 148
4 538 24 23 118
4 107 313 450 312
4 162 434 244 241
4 3 42 547 199
4 548 2 41 124
4 110 109 272 273
4 393 9 228 465
4 528 191 195 539
4 169 478 414 413
4 155 163 488 135
4 205 30 31 612
4 144 331 145 304
4 194 190 176 542
4 402 253 141 271
4 160 127 337 441
4 382 490 94 598
4 25 408 407 427
4 391 310 280 597
4 507 508 520 356
4 179 194 536 189
4 350 492 104 519
4 165 250 403 149
4 114 50 462 568
4 264 558 567 559
4 363 499 439 610
4 408 411 117 116
4 41 525 42 177
4 341 317 153 413
4 515 508 504 370
4 223 55 461 213
4 156 168 133 368
4 111 110 273 371
4 288 286 289 608
4 408 26 25 407
4 518 422 339 511
4 35 226 440 441
4 103 32 1 78
4 133 166 368 442
4 111 473 415 571
4 34 33 79 401
4 212 493 32 172
4 334 245 148 392
4 32 161 172 468
4 317 147 144 304
4 539 536 98 179
4 537 190 542 538
4 164 168 156 364
4 427 408 411 117
4 332 303 143 142
4 434 247 140 244
4 145 154 153 413
4 366 395 396 137
4 210 7 51 462
4 403 316 146 159
4 330 20 2 458
4 36 37 82 98
4 419 603 359 611
4 516 504 508 372
4 120 567 119 259
4 168 156 364 368
4 505 313 107 512
4 478 169 145 413
4 438 427 117 118
4 255 256 23 257
4 172 59 212 468
4 369 224 373 513
4 572 48 66 464
4 72 471 574 475
4 489 511 102 230
4 122 21 20 437
4 521 452 105 510
4 171 246 131 244
4 85 86 40 239
4 112 113 509 354
4 365 136 397 327
4 242 368 166 442
4 542 537 536 189
4 131 162 244 241
4 559 415 264 571
4 132 167 20 416
4 101 34 79 80
4 40 86 85 95
4 168 164 138 364
4 450 313 107 505
4 155 223 461 129
4 139 248 152 171
4 76 576 573 235
4 270 265 555 566
4 221 48 572 464
4 1 4 5 78
4 248 246 171 247
4 133 368 434 442
4 137 366 138 132
4 400 36 82 440
4 272 557 295 109
4 272 270 557 109
4 560 565 378 122
4 348 349 10 350
4 230 101 102 79
4 259 258 120 260
4 98 99 36 179
4 114 479 496 115
4 155 143 331 145
4 98 38 83 97
4 325 125 346 347
4 403 146 165 159
4 171 131 140 244
4 407 418 25 427
4 473 381 112 113
4 99 98 536 179
4 85 39 40 96
4 421 333 339 511
4 248 395 249 139
4 107 313 312 512
4 98 399 484 516
4 452 498 234 521
4 41 177 200 548
4 421 503 101 230
4 265 567 555 559
4 97 98 399 83
4 373 504 369 513
4 191 528 195 180
4 564 117 438 459
4 114 553 479 115
4 111 520 508 371
4 366 365 249 138
4 274 275 31 242
4 509 507 356 355
4 33 238 401 455
4 127 35 440 441
4 144 303 331 304
4 163 233 488 135
4 471 344 495 587
4 119 567 261 259
4 99 536 523 179
4 562 412 116 554
4 148 245 334 243
4 149 246 403 245
4 121 560 558 263
4 339 333 313 512
4 243 131 244 241
4 334 127 440 441
4 463 154 158 414
4 303 331 332 143
4 315 432 362 611
4 545 177 185 525
4 410 412 411 116
4 537 175 190 538
4 246 403 250 149
4 130 253 254 255
4 482 360 466 609
4 272 269 270 566
4 118 119 555 424
4 559 264 558 571
4 265 269 264 559
4 368 364 168 434
4 536 523 179 189
4 162 133 168 434
4 308 305 306 602
4 87 86 9 228
4 94 486 236 598
4 265 270 269 566
4 105 221 451 452
4 9 42 123 547
4 559 555 265 566
4 270 423 557 555
4 82 484 99 98
4 29 2 167 458
4 131 37 38 243
4 303 332 402 142
4 381 560 112 113
4 111 110 415 273
4 78 4 5 494
4 217 501 477 96
4 172 161 134 231
4 309 435 446 599
4 78 1 4 493
4 250 152 251 248
4 229 471 495 587
4 110 269 415 273
4 128 26 150 406
4 484 99 98 373
4 272 269 110 273
4 520 509 356 354
4 471 229 71 574
4 333 339 505 512
4 22 21 121 437
4 167 2 20 458
4 496 479 410 115
4 511 518 422 502
4 508 515 371 370
4 154 145 169 413
4 161 172 468 231
4 149 131 246 245
4 412 411 116 554
4 159 316 147 392
4 573 436 76 235
4 345 11 565 125
4 558 120 121 260
4 297 109 108 506
4 373 98 484 516
4 380 20 21 437
4 158 169 129 414
4 234 452 521 510
4 245 131 246 244
4 476 359 358 603
4 134 154 158 463
4 397 29 367 307
4 224 99 513 100
4 538 527 24 118
4 563 454 472 296
4 365 366 367 132
4 245 148 131 243
4 419 359 432 611
4 220 467 52 210
4 112 560 267 571
4 458 367 29 307
4 162 168 140 434
4 525 548 41 124
4 153 317 340 337
4 519 10 350 351
4 505 339 313 512
4 266 118 438 424
4 559 269 110 566
4 514 519 104 353
4 327 156 275 368
4 472 554 563 296
4 127 334 392 441
4 247 140 168 434
4 10 570 125 348
4 379 380 20 330
4 324 379 11 330
4 148 37 131 243
4 120 121 260 437
4 389 388 390 588
4 94 236 93 598
4 511 422 489 502
4 504 508 372 370
4 510 487 106 518
4 514 393 501 465
4 391 280 282 597
4 277 397 30 327
4 331 478 342 155
4 547 42 525 199
4 133 166 156 368
4 99 82 36 81
4 160 34 226 449
4 105 498 452 521
4 40 547 533 199
4 161 32 238 468
4 129 213 14 500
4 94 93 382 598
4 374 101 503 230
4 223 213 129 500
4 497 432 359 611
4 509 95 501 514
4 523 536 537 189
4 17 549 529 208
4 181 209 63 201
4 523 537 540 189
4 337 147 316 392
4 82 37 36 400
4 21 137 416 292
4 537 190 175 189
4 386 89 88 600
4 100 99 523 188
4 178 26 193 522
4 520 509 507 356
4 488 343 150 135
4 333 321 512 506
4 106 105 451 452
4 95 85 40 96
4 423 564 557 555
4 507 477 516 372
4 21 137 132 416
4 35 101 100 80
4 348 10 570 351
4 439 311 298 610
4 42 547 525 123
4 34 160 126 449
4 126 401 34 449
4 378 565 570 346
4 479 462 568 553
4 105 572 221 498
4 468 172 59 231
4 356 508 520 371
4 475 574 72 578
4 82 484 98 83
4 117 411 438 459
4 6 572 105 498
4 96 95 501 509
4 99 98 373 504
4 102 511 489 502
4 534 198 121 546
4 509 356 354 355
4 110 109 273 404
4 533 547 525 199
4 11 2 20 548
4 104 492 389 465
4 84 39 38 240
4 11 2 548 124
4 175 540 537 189
4 356 507 508 372
4 556 563 454 472
4 97 39 38 84
4 318 326 417 604
4 34 33 401 126
4 34 101 174 187
4 38 218 84 240
4 32 1 493 212
4 380 416 20 458
4 245 159 148 392
4 560 267 473 112
4 226 35 160 441
4 125 346 347 348
4 97 399 217 84
4 482 90 91 609
4 99 36 35 81
4 345 325 125 346
4 415 559 111 571
4 519 350 492 353
4 560 378 262 263
4 264 267 558 571
4 180 533 39 528
4 100 99 35 81
4 97 96 39 84
4 165 152 250 149
4 156 327 364 368
4 523 179 189 188
4 159 403 316 392
4 3 42 9 547
4 112 111 473 357
4 137 21 22 292
4 174 101 526 187
4 393 217 85 95
4 563 556 554 472
4 97 399 98 516
4 513 369 333 506
4 104 514 353 465
4 160 127 147 337
4 217 96 97 84
4 576 75 428 235
4 548 41 177 525
4 149 246 131 171
4 452 487 106 510
4 264 269 415 559
4 12 233 163 170
4 159 147 127 392
4 537 527 175 538
4 143 331 342 155
4 555 557 270 566
4 154 463 341 414
4 233 488 461 163
4 570 113 381 351
4 414 129 158 500
4 95 393 501 514
4 97 98 38 191
4 35 34 101 80
4 247 168 364 434
4 459 423 564 296
4 573 77 490 579
4 122 378 560 263
4 103 1 5 78
4 135 233 448 170
4 512 505 333 503
4 278 277 279 612
4 112 267 473 571
4 169 155 478 145
4 169 478 223 414
4 461 488 342 155
4 479 462 553 114
4 25 24 175 527
4 100 513 224 374
4 333 503 513 506
4 232 568 464 483
4 100 101 374 80
4 106 561 569 453
4 161 231 455 491
4 519 492 104 353
4 97 38 528 191
4 529 202 17 208
4 550 209 63 181
4 98 484 399 83
4 176 546 524 120
4 353 519 350 351
4 98 37 82 83
4 558 267 262 560
4 393 86 9 95
4 149 403 159 245
4 99 484 224 373
4 330 380 20 458
4 422 421 339 511
4 316 147 146 159
4 444 326 338 613
4 267 264 415 571
4 176 546 543 524
4 553 562 569 483
4 462 479 496 114
4 195 176 198 543
4 270 557 295 272
4 342 478 223 155
4 224 82 484 99
4 555 265 423 424
4 163 461 13 129
4 106 487 450 518
4 462 210 7 114
4 306 305 293 602
4 42 525 199 177
4 256 292 22 258
4 355 514 501 465
4 520 111 357 371
4 113 10 519 351
4 167 136 367 132
4 429 430 428 606
4 34 401 226 449
4 228 86 9 393
4 367 365 136 397
4 131 162 140 244
4 95 217 85 96
4 367 167 132 416
4 122 565 378 345
4 102 103 469 78
4 473 381 560 112
4 28 467 220 210
4 505 339 333 503
4 568 462 479 232
4 501 509 514 355
4 100 224 99 81
4 205 42 41 601
4 124 123 581 601
4 409 27 28 496
4 79 230 101 80
4 177 548 545 200
4 516 373 504 372
4 367 167 416 458
4 546 176 22 120
4 159 127 148 392
4 99 35 36 188
4 36 35 440 127
4 450 487 106 452
4 37 98 179 191
4 35 99 100 188
4 342 223 461 155
4 148 131 149 245
4 199 177 525 185
4 209 18 19 181
4 65 64 529 208
4 287 286 288 608
4 161 32 33 238
4 102 33 34 174
4 341 154 173 491
4 353 514 509 355
4 414 341 154 413
4 482 466 90 609
4 189 540 523 192
4 27 116 522 115
4 404 109 297 506
4 523 189 192 188
4 554 562 412 472
4 28 17 207 549
4 206 103 63 201
4 273 109 272 404
4 160 147 153 337
4 393 501 217 95
4 101 102 511 230
4 36 37 98 179
4 315 419 432 611
4 111 415 473 357
4 102 489 230 469
4 553 568 479 232
4 404 109 272 297
4 193 26 25 116
4 457 480 361 607
4 504 370 513 506
4 346 125 570 348
4 180 528 38 191
4 353 492 104 465
4 355 353 514 465
4 84 85 39 240
4 354 353 509 355
4 400 83 37 218
4 220 409 28 496
4 468 161 231 455
4 20 21 132 416
4 564 438 423 459
4 509 519 514 353
4 546 176 543 198
4 473 381 113 351
4 198 176 22 546
4 158 57 15 463
4 49 568 464 232
4 503 333 512 506
4 78 5 103 494
4 393 85 86 95
4 223 129 169 414
4 423 557 564 296
4 562 554 556 472
4 117 564 554 459
4 145 143 331 144
4 212 16 59 172
4 172 212 493 468
4 560 121 122 263
4 175 193 527 540
4 122 121 21 437
4 354 520 112 357
4 81 82 36 440
4 189 175 540 192
4 8 94 490 579
4 509 520 112 354
4 373 484 399 516
4 331 478 145 413
4 38 98 83 37
4 321 333 369 506
4 127 160 35 441
4 573 77 436 490
4 341 173 153 340
4 108 295 297 312
4 357 111 415 273
4 522 193 178 535
4 83 97 38 84
4 117 24 527 118
4 318 417 394 604
4 106 105 452 510
4 97 38 39 528
4 496 27 28 114
4 149 159 148 245
4 541 523 192 188
4 545 177 197 185
4 533 525 545 185
4 24 117 527 25
4 85 39 96 84
4 233 54 12 163
4 455 173 161 491
4 407 408 26 406
4 275 277 276 612
4 463 158 57 500
4 154 169 158 414
4 403 159 245 392
4 416 20 21 380
4 317 153 147 337
4 39 96 97 528
4 444 338 445 613
4 125 565 345 346
4 234 46 62 521
4 451 107 450 312
4 533 39 40 185
4 348 570 381 351
4 172 493 32 468
4 529 549 65 208
4 19 209 181 201
4 234 62 481 510
4 486 94 8 579
4 244 245 131 243
4 543 534 195 528
4 95 40 3 547
4 511 421 333 503
4 540 527 175 537
4 343 488 448 135
4 449 226 160 441
4 134 158 15 463
4 273 357 111 371
4 485 235 436 606
4 101 102 34 174
4 399 97 83 84
4 333 321 313 512
4 126 401 449 455
4 345 122 11 379
4 511 489 421 230
4 516 477 399 372
4 579 68 486 575
4 100 523 541 188
4 410 411 408 116
4 116 27 522 26
4 501 217 95 96
4 570 381 378 346
4 533 180 39 185
4 489 502 237 469
4 153 147 144 317
4 46 234 498 521
4 372 508 371 370
4 11 345 379 324
4 438 117 564 118
4 420 330 2 458
4 96 39 40 533
4 103 211 237 494
4 175 193 25 527
4 238 32 493 468
4 332 331 342 143
4 32 1 212 172
4 114 67 50 568
4 575 68 486 377
4 503 369 333 513
4 224 82 99 81
4 233 461 54 163
4 153 317 341 340
4 95 3 9 547
4 0 52 467 210
4 406 27 150 448
4 101 541 35 100
4 503 421 374 230
4 346 570 381 348
4 533 96 39 528
4 89 216 88 600
4 105 572 561 221
4 359 322 358 603
4 267 378 262 560
4 36 35 81 440
4 421 422 489 511
4 175 193 540 192
4 101 541 526 187
4 449 160 337 441
4 339 505 518 511
4 528 38 39 180
4 569 556 106 453
4 378 122 345 263
4 449 340 126 455
4 540 541 523 192
4 544 522 178 552
4 526 204 196 174
4 361 216 466 607
4 108 563 557 295
4 504 370 369 513
4 505 450 487 518
4 196 102 526 174
4 178 27 522 544
4 83 37 82 400
4 66 67 568 464
4 556 563 107 454
4 340 341 173 491
4 448 27 28 409
4 38 37 83 218
4 502 489 102 469
4 317 147 316 337
4 172 16 59 231
4 549 182 202 529
4 550 530 181 201
4 226 34 35 80
4 28 27 448 135
4 135 163 233 170
4 548 177 545 525
4 359 419 322 603
4 411 438 427 117
4 515 404 371 370
4 467 448 233 170
4 498 105 6 521
4 62 481 510 517
4 345 11 325 324
4 548 20 11 122
4 553 568 232 483
4 350 10 348 351
4 454 107 451 312
4 401 79 34 80
4 33 102 196 174
4 27 115 522 544
4 409 496 410 115
4 357 356 520 371
4 412 411 554 459
4 340 173 126 455
4 150 26 27 406
4 513 370 369 506
4 67 114 50 7
4 528 534 195 180
4 103 32 33 196
4 67 66 49 464
4 234 487 452 510
4 526 102 101 174
4 27 26 178 522
4 564 554 459 296
4 517 211 44 237
4 111 112 520 357
4 117 193 25 116
4 231 134 463 491
4 411 117 554 459
4 237 502 103 469
4 354 356 520 357
4 504 98 373 516
4 120 22 546 121
4 50 462 568 232
4 507 516 508 372
4 496 28 220 114
4 541 35 100 188
4 568 67 49 464
4 548 20 545 200
4 568 553 561 483
4 483 412 562 472
4 238 79 33 401
4 527 193 535 540
4 448 467 135 170
4 158 129 14 500
4 554 564 557 296
4 35 34 226 160
4 66 561 572 464
4 52 51 220 210
4 473 381 267 560
4 66 568 561 464
4 450 339 313 505
4 132 366 367 416
4 117 25 193 527
4 16 172 134 231
4 372 373 504 370
4 232 479 553 483
4 96 40 95 533
4 223 129 414 500
4 121 198 22 546
4 354 112 473 357
4 107 106 451 450
4 464 568 561 483
4 153 154 173 341
4 198 534 121 186
4 121 198 186 21
4 187 541 192 188
4 158 463 414 500
4 468 238 161 455
4 481 45 62 234
4 113 381 560 570
4 560 558 267 571
4 493 78 32 238
4 267 262 264 558
4 69 68 575 377
4 547 95 40 533
4 153 173 126 340
4 428 235 429 606
4 451 556 107 454
4 11 565 122 345
4 534 195 198 543
4 464 561 453 483
4 98 37 38 191
4 75 576 76 235
4 533 40 199 185
4 451 106 556 453
4 58 16 134 231
4 404 515 109 506
4 230 374 101 80
4 510 481 422 517
4 477 507 356 372
4 297 321 404 506
4 96 217 85 84
4 73 74 225 578
4 197 186 21 545
4 21 416 380 292
4 371 356 508 372
4 554 472 459 296
4 81 35 100 80
4 221 572 561 464
4 448 406 27 409
4 517 481 422 237
4 550 18 209 181
4 529 64 202 208
4 374 81 100 80
4 467 448 28 409
4 218 83 38 84
4 213 223 56 500
4 461 13 54 163
4 472 412 554 459
4 267 415 473 571
4 563 295 454 296
4 62 234 521 510
4 549 202 17 529
4 181 63 550 201
4 525 533 199 185
4 159 165 403 149
4 475 73 225 578
4 292 380 21 437
4 428 75 576 74
4 103 211 517 237
4 448 27 150 135
4 563 554 557 296
4 12 53 233 170
4 462 568 553 114
4 58 134 463 231
4 14 57 158 500
4 550 529 202 531
4 50 51 7 462
4 125 570 565 346
4 81 100 224 374
4 370 504 515 506
4 481 62 61 517
4 469 230 102 79
4 198 534 543 546
4 551 183 178 552
4 513 369 224 374
4 203 531 526 204
4 116 411 117 554
4 422 489 502 237
4 210 220 28 114
4 467 28 0 210
4 276 277 278 612
4 528 533 534 180
4 505 106 450 518
4 580 229 70 470
4 122 345 263 379
4 502 517 422 237
4 103 63 5 206
4 448 150 343 135
4 226 81 35 440
4 483 562 569 472
4 370 515 404 506
4 481 422 234 510
4 529 183 202 531
4 361 480 390 607
4 448 488 233 135
4 221 214 47 498
4 544 178 182 552
4 204 530 526 196
4 474 311 499 610
4 14 57 15 158
4 296 423 557 270
4 54 55 13 461
4 517 44 481 237
4 103 237 469 494
4 518 510 422 502
4 498 6 46 521
4 15 58 134 463
4 517 422 510 502
4 5 43 211 494
4 569 561 553 483
4 1 60 493 212
4 373 504 370 369
4 16 58 59 231
4 27 114 115 544
4 321 369 370 506
4 295 563 557 296
4 66 48 49 464
4 361 390 216 607
4 173 161 126 455
4 503 513 100 374
4 206 32 103 201
4 551 531 532 203
4 549 17 65 208
4 209 19 63 201
4 116 117 193 535
4 211 44 61 517
4 531 183 181 204
4 552 183 529 531
4 551 184 183 203
4 103 33 102 196
4 531 551 183 203
4 1 32 103 206
4 211 103 5 494
4 580 70 69 470
4 70 71 229 580
4 100 101 503 374
4 187 35 541 188
4 58 16 15 134
4 27 178 182 544
4 526 530 102 196
4 535 117 193 527
4 485 429 235 606
4 534 186 545 121
4 186 21 545 121
4 561 569 453 483
4 135 467 28 170
4 102 103 502 469
4 422 487 510 518
4 455 340 173 491
4 60 4 1 493
4 43 5 4 494
4 467 28 448 135
4 107 106 450 505
4 321 370 404 506
4 214 6 47 498
4 177 200 545 197
4 221 105 498 452
4 62 46 6 521
4 183 182 178 552
4 530 526 531 204
4 406 150 343 448
4 206 1 32 201
4 467 53 0 170
4 513 503 369 374
4 467 233 53 170
4 35 81 226 80
4 487 234 422 510
4 516 399 373 372
4 409 28 467 220
4 12 54 13 163
4 526 532 203 187
4 436 77 573 76
4 184 178 535 551
4 12 0 53 170
4 487 422 339 518
4 526 532 531 203
4 180 533 534 185
4 184 183 178 551
4 535 178 522 551
4 17 182 202 549
4 530 550 63 201
4 174 526 203 187
4 181 530 531 204
4 529 182 183 552
4 545 186 185 197
4 533 545 534 185
4 450 487 339 505
4 534 186 195 180
4 213 56 14 500
4 439 499 311 610
4 0 28 17 207
4 568 49 67 232
4 44 45 61 481
4 267 381 378 560
4 45 62 61 481
4 226 401 34 80
4 121 263 260 437
4 454 451 556 453
4 20 545 21 122
4 209 64 18 550
4 202 64 18 208
4 481 61 44 517
4 490 77 8 579
4 196 103 32 201
4 545 20 21 197
4 296 557 295 270
4 12 53 54 233
4 103 517 502 237
4 184 551 532 203
4 19 1 206 201
4 453 221 561 464
4 556 107 106 451
4 462 496 220 114
4 198 121 22 21
4 73 475 72 578
4 565 378 345 346
4 551 178 522 552
4 204 526 203 174
4 103 469 78 494
4 540 184 535 532
4 505 487 339 518
4 503 421 333 374
4 486 8 68 579
4 192 184 532 187
4 20 548 545 122
4 534 186 180 185
4 200 197 20 545
4 186 545 185 534
4 17 28 182 549
4 103 530 63 201
4 71 471 574 72
4 103 5 1 206
4 53 0 52 467
4 223 56 55 213
4 195 534 198 186
4 556 454 453 472
4 58 15 57 463
4 214 47 48 221
4 450 106 451 452
4 18 17 202 208
4 209 63 64 550
4 333 369 503 374
4 61 103 211 517
4 103 102 530 196
4 182 28 27 544
4 61 103 5 211
4 532 526 541 187
4 67 50 568 232
4 59 60 212 468
4 184 178 193 535
4 46 47 6 498
4 203 532 184 187
4 532 540 184 192
4 207 65 7 549
4 57 14 56 500
4 551 535 184 532
4 556 569 562 472
4 211 43 44 237
4 237 211 43 494
4 483 569 453 472
4 45 46 62 234
4 50 67 49 232
4 467 0 28 170
4 529 202 64 550
4 202 18 550 181
4 183 202 182 529
4 530 531 550 181
4 114 27 28 544
4 530 103 196 201
4 549 28 182 544
4 212 60 493 468
4 210 0 7 114
4 569 556 453 472
4 114 28 207 549
4 121 21 545 122
4 210 28 0 114
4 552 551 183 531
4 183 531 203 204
4 202 18 64 550
4 529 544 182 552
4 204 181 530 196
4 207 7 0 114
4 549 114 28 544
4 206 63 19 201
4 207 17 65 549
4 0 28 207 114
4 182 549 544 529
4 196 181 530 201
4 114 207 7 549
4 14 13 213 129
4 212 1 16 172
4 572 6 66 214
4 594 598 375 584
4 375 598 594 93
4 611 375 594 476
4 611 594 375 584
4 585 307 420 29
4 585 420 307 281
4 599 308 457 309
4 599 457 308 590
4 283 597 284 282
4 284 597 283 595
4 591 9 87 3
4 591 87 9 588
4 612 29 205 30
4 612 205 29 585
4 606 382 383 598
4 608 394 299 287
4 608 299 394 604
4 612 42 601 591
4 612 601 42 205
4 25 271 128 141
4 25 128 271 407
4 271 128 402 405
4 271 402 128 141
4 512 297 312 108
4 512 312 297 313
4 251 130 151 253
4 151 130 251 152
4 519 354 351 353
4 351 354 519 113
4 247 138 139 249
4 247 139 138 140
4 131 241 38 162
4 38 241 131 243
4 312 563 108 295
4 312 108 563 107
4 558 260 567 120
4 567 260 558 262
4 162 442 240 133
4 240 442 162 241
4 146 252 165 151
4 146 165 252 268
4 562 410 479 115
4 562 479 410 412
4 260 567 259 261
4 260 259 567 120
4 169 223 155 129
4 169 155 223 478
4 22 437 292 21
4 292 437 22 258
4 442 40 240 133
4 442 240 40 239
4 11 330 301 324
4 301 330 11 2
4 304 145 317 413
4 304 317 145 144
4 153 317 145 413
4 153 145 317 144
4 477 97 516 399
4 477 516 97 507
4 304 147 146 316
4 304 146 147 144
4 150 342 488 155
4 150 488 342 343
4 128 343 406 150
4 128 406 343 405
4 27 408 406 26
4 27 406 408 409
4 332 150 342 343
4 342 150 332 143
4 570 378 560 565
4 570 560 378 381
4 105 451 453 106
4 453 451 105 221
4 453 561 105 106
4 105 561 453 221
4 383 436 606 485
4 383 606 436 382
4 542 189 190 537
4 190 189 542 194
4 404 110 371 273
4 404 371 110 515
4 193 116 522 26
4 193 522 116 535
4 187 101 35 34
4 187 35 101 541
4 263 558 260 262
4 263 260 558 121
4 122 437 263 121
4 263 437 122 379
4 99 188 179 523
4 179 188 99 36
4 538 175 24 527
4 538 24 175 190
4 202 531 181 550
4 181 531 202 183
4 193 540 184 535
4 184 540 193 192
4 192 541 532 540
4 532 541 192 187

CELL_TYPES 3232
1
1
1
1
1
1
1
1
1
1
1
1
3
3
3
3
3
3
3
3
3
3
3
3
3
3
3
3
3
3
3
3
3
3
3
3
3
3
3
3
3
3
3
3
3
3
3
3
3
3
3
3
3
3
3
3
3
3
3
3
3
3
3
3
3
3
3
3
3
3
3
3
3
3
3
3
3
3
3
3
3
3
3
3
3
3
3
3
3
3
3
3
3
3
3
3
3
3
3
3
3
3
3
3
3
3
3
3
3
3
3
3
3
3
3
3
3
3
3
3
3
3
3
3
3
3
3
3
3
3
3
3
3
3
3
3
3
3
3
3
3
3
3
3
5
5
5
5
5
5
5
5
5
5
5
5
5
5
5
5
5
5
5
5
5
5
5
5
5
5
5
5
5
5
5
5
5
5
5
5
5
5
5
5
5
5
5
5
5
5
5
5
5
5
5
5
5
5
5
5
5
5
5
5
5
5
5
5
5
5
5
5
5
5
5
5
5
5
5
5
5
5
5
5
5
5
5
5
5
5
5
5
5
5
5
5
5
5
5
5
5
5
5
5
5
5
5
5
5
5
5
5
5
5
5
5
5
5
5
5
5
5
5
5
5
5
5
5
5
5
5
5
5
5
5
5
5
5
5
5
5
5
5
5
5
5
5
5
5
5
5
5
5
5
5
5
5
5
5
5
5
5
5
5
5
5
5
5
5
5
5
5
5
5
5
5
5
5
5
5
5
5
5
5
5
5
5
5
5
5
5
5
5
5
5
5
5
5
5
5
5
5
5
5
5
5
5
5
5
5
5
5
5
5
5
5
5
5
5
5
5
5
5
5
5
5
5
5
5
5
5
5
5
5
5
5
5
5
5
5
5
5
5
5
5
5
5
5
5
5
5
5
5
5
5
5
5
5
5
5
5
5
5
5
5
5
5
5
5
5
5
5
5
5
5
5
5
5
5
5
5
5
5
5
5
5
5
5
5
5
5
5
5
5
5
5
5
5
5
5
5
5
5
5
5
5
5
5
5
5
5
5
5
5
5
5
5
5
5
5
5
5
5
5
5
5
5
5
5
5
5
5
5
5
5
5
5
5
5
5
5
5
5
5
5
5
5
5
5
5
5
5
5
5
5
5
5
5
5
5
5
5
5
5
5
5
5
5
5
5
5
5
5
5
5
5
5
5
5
5
5
5
5
5
5
5
5
5
5
5
5
5
5
5
5
5
5
5
5
5
5
5
5
5
5
5
5
5
5
5
5
5
5
5
5
5
5
5
5
5
5
5
5
5
5
5
5
5
5
5
5
5
5
5
5
5
5
5
5
5
5
5
5
5
5
5
5
5
5
5
5
5
5
5
5
5
5
5
5
5
5
5
5
5
5
5
5
5
5
5
5
5
5
5
5
5
5
5
5
5
5
5
5
5
5
5
5
5
5
5
5
5
5
5
5
5
5
5
5
5
5
5
5
5
5
5
5
5
5
5
5
5
5
5
5
5
5
5
5
5
5
5
5
5
5
5
5
5
5
5
5
5
5
5
5
5
5
5
5
5
5
5
5
5
5
5
5
5
5
5
5
5
5
5
5
5
5
5
5
5
5
5
5
5
5
5
5
5
5
5
5
5
5
5
5
5
5
5
5
5
5
5
5
5
5
5
5
5
5
5
5
5
5
5
5
5
5
5
5
5
5
5
5
5
5
5
5
5
5
5
5
5
5
5
5
5
5
5
5
5
5
5
5
5
5
5
5
5
5
5
5
5
5
5
5
5
5
5
5
5
5
5
5
5
5
5
5
5
5
5
5
5
5
5
5
5
5
5
5
5
5
5
5
5
5
5
5
5
5
5
5
5
5
5
5
5
5
5
5
5
5
5
5
5
5
5
5
5
5
5
5
5
5
5
5
5
5
5
5
5
5
5
5
5
5
5
5
5
5
5
5
5
5
5
5
5
5
5
5
5
5
5
5
5
5
5
5
5
5
5
5
5
5
5
5
5
5
5
5
5
5
5
5
5
5
5
5
5
5
5
5
5
5
5
5
5
5
5
5
5
5
5
5
5
5
5
5
5
5
5
5
5
5
5
5
5
5
5
5
5
5
5
5
5
5
5
5
5
5
5
5
5
5
5
5
5
5
5
5
5
5
5
5
5
5
5
5
5
5
5
5
5
5
5
5
5
5
5
5
5
5
5
5
5
5
5
5
5
5
5
5
5
5
5
5
5
5
5
5
5
5
5
5
5
5
5
5
5
5
5
5
5
5
5
5
5
5
5
5
5
5
5
5
5
5
5
5
5
5
5
5
5
5
5
5
5
5
5
5
5
5
5
5
5
5
5
5
5
5
5
5
5
5
5
5
5
5
5
5
5
5
5
5
5
5
5
5
5
5
5
5
5
5
5
5
5
5
5
5
5
5
5
5
5
5
5
5
5
5
5
5
5
5
5
5
5
5
5
5
5
5
5
5
5
5
5
5
5
5
5
5
5
5
5
5
5
5
5
5
5
5
5
5
5
5
5
5
5
5
5
5
5
5
5
5
5
5
5
5
5
5
5
5
5
5
5
5
5
5
5
5
5
5
5
5
5
5
5
5
5
5
5
5
5
5
5
5
5
5
5
5
5
5
5
5
5
5
5
5
5
5
5
5
5
5
5
5
5
5
5
5
5
5
5
5
5
5
5
5
5
5
5
5
5
5
5
5
5
5
5
5
5
5
5
5
5
5
5
5
5
5
5
5
5
5
5
5
5
5
5
5
5
5
5
5
5
5
5
5
5
5
5
5
5
5
5
5
5
5
5
5
5
5
5
5
5
5
5
5
5
5
5
5
5
5
5
5
5
5
5
5
5
5
5
5
5
5
5
5
5
5
5
5
5
5
5
5
5
5
5
5
5
5
5
5
5
5
5
5
5
5
5
5
5
5
5
5
5
5
5
5
5
5
5
5
5
5
5
5
5
5
5
5
5
10
10
10
10
10
10
10
10
10
10
10
10
10
10
10
10
10
10
10
10
10
10
10
10
10
10
10
10
10
10
10
10
10
10
10
10
10
10
10
10
10
10
10
10
10
10
10
10
10
10
10
10
10
10
10
10
10
10
10
10
10
10
10
10
10
10
10
10
10
10
10
10
10
10
10
10
10
10
10
10
10
10
10
10
10
10
10
10
10
10
10
10
10
10
10
10
10
10
10
10
10
10
10
10
10
10
10
10
10
10
10
10
10
10
10
10
10
10
10
10
10
10
10
10
10
10
10
10
10
10
10
10
10
10
10
10
10
10
10
10
10
10
10
10
10
10
10
10
10
10
10
10
10
10
10
10
10
10
10
10
10
10
10
10
10
10
10
10
10
10
10
10
10
10
10
10
10
10
10
10
10
10
10
10
10
10
10
10
10
10
10
10
10
10
10
10
10
10
10
10
10
10
10
10
10
10
10
10
10
10
10
10
10
10
10
10
10
10
10
10
10
10
10
10
10
10
10
10
10
10
10
10
10
10
10
10
10
10
10
10
10
10
10
10
10
10
10
10
10
10
10
10
10
10
10
10
10
10
10
10
10
10
10
10
10
10
10
10
10
10
10
10
10
10
10
10
10
10
10
10
10
10
10
10
10
10
10
10
10
10
10
10
10
10
10
10
10
10
10
10
10
10
10
10
10
10
10
10
10
10
10
10
10
10
10
10
10
10
10
10
10
10
10
10
10
10
10
10
10
10
10
10
10
10
10
10
10
10
10
10
10
10
10
10
10
10
10
10
10
10
10
10
10
10
10
10
10
10
10
10
10
10
10
10
10
10
10
10
10
10
10
10
10
10
10
10
10
10
10
10
10
10
10
10
10
10
10
10
10
10
10
10
10
10
10
10
10
10
10
10
10
10
10
10
10
10
10
10
10
10
10
10
10
10
10
10
10
10
10
10
10
10
10
10
10
10
10
10
10
10
10
10
10
10
10
10
10
10
10
10
10
10
10
10
10
10
10
10
10
10
10
10
10
10
10
10
10
10
10
10
10
10
10
10
10
10
10
10
10
10
10
10
10
10
10
10
10
10
10
10
10
10
10
10
10
10
10
10
10
10
10
10
10
10
10
10
10
10
10
10
10
10
10
10
10
10
10
10
10
10
10
10
10
10
10
10
10
10
10
10
10
10
10
10
10
10
10
10
10
10
10
10
10
10
10
10
10
10
10
10
10
10
10
10
10
10
10
10
10
10
10
10
10
10
10
10
10
10
10
10
10
10
10
10
10
10
10
10
10
10
10
10
10
10
10
10
10
10
10
10
10
10
10
10
10
10
10
10
10
10
10
10
10
10
10
10
10
10
10
10
10
10
10
10
10
10
10
10
10
10
10
10
10
10
10
10
10
10
10
10
10
10
10
10
10
10
10
10
10
10
10
10
10
10
10
10
10
10
10
10
10
10
10
10
10
10
10
10
10
10
10
10
10
10
10
10
10
10
10
10
10
10
10
10
10
10
10
10
10
10
10
10
10
10
10
10
10
10
10
10
10
10
10
10
10
10
10
10
10
10
10
10
10
10
10
10
10
10
10
10
10
10
10
10
10
10
10
10
10
10
10
10
10
10
10
10
10
10
10
10
10
10
10
10
10
10
10
10
10
10
10
10
10
10
10
10
10
10
10
10
10
10
10
10
10
10
10
10
10
10
10
10
10
10
10
10
10
10
10
10
10
10
10
10
10
10
10
10
10
10
10
10
10
10
10
10
10
10
10
10
10
10
10
10
10
10
10
10
10
10
10
10
10
10
10
10
10
10
10
10
10
10
10
10
10
10
10
10
10
10
10
10
10
10
10
10
10
10
10
10
10
10
10
10
10
10
10
10
10
10
10
10
10
10
10
10
10
10
10
10
10
10
10
10
10
10
10
10
10
10
10
10
10
10
10
10
10
10
10
10
10
10
10
10
10
10
10
10
10
10
10
10
10
10
10
10
10
10
10
10
10
10
10
10
10
10
10
10
10
10
10
10
10
10
10
10
10
10
10
10
10
10
10
10
10
10
10
10
10
10
10
10
10
10
10
10
10
10
10
10
10
10
10
10
10
10
10
10
10
10
10
10
10
10
10
10
10
10
10
10
10
10
10
10
10
10
10
10
10
10
10
10
10
10
10
10
10
10
10
10
10
10
10
10
10
10
10
10
10
10
10
10
10
10
10
10
10
10
10
10
10
10
10
10
10
10
10
10
10
10
10
10
10
10
10
10
10
10
10
10
10
10
10
10
10
10
10
10
10
10
10
10
10
10
10
10
10
10
10
10
10
10
10
10
10
10
10
10
10
10
10
10
10
10
10
10
10
10
10
10
10
10
10
10
10
10
10
10
10
10
10
10
10
10
10
10
10
10
10
10
10
10
10
10
10
10
10
10
10
10
10
10
10
10
10
10
10
10
10
10
10
10
10
10
10
10
10
10
10
10
10
10
10
10
10
10
10
10
10
10
10
10
10
10
10
10
10
10
10
10
10
10
10
10
10
10
10
10
10
10
10
10
10
10
10
10
10
10
10
10
10
10
10
10
10
10
10
10
10
10
10
10
10
10
10
10
10
10
10
10
10
10
10
10
10
10
10
10
10
10
10
10
10
10
10
10
10
10
10
10
10
10
10
10
10
10
10
10
10
10
10
10
10
10
10
10
10
10
10
10
10
10
10
10
10
10
10
10
10
10
10
10
10
10
10
10
10
10
10
10
10
10
10
10
10
10
10
10
10
10
10
10
10
10
10
10
10
10
10
10
10
10
10
10
10
10
10
10
10
10
10
10
10
10
10
10
10
10
10
10
10
10
10
10
10
10
10
10
10
10
10
10
10
10
10
10
10
10
10
10
10
10
10
10
10
10
10
10
10
10
10
10
10
10
10
10
10
10
10
10
10
10
10
10
10
10
10
10
10
10
10
10
10
10
10
10
10
10
10
10
10
10
10
10
10
10
10
10
10
10
10
10
10
10
10
10
10
10
10
10
10
10
10
10
10
10
10
10
10
10
10
10
10
10
10
10
10
10
10
10
10
10
10
10
10
10
10
10
10
10
10
10
10
10
10
10
10
10
10
10
10
10
10
10
10
10
10
10
10
10
10
10
10
10
10
10
10
10
10
10
10
10
10
10
10
10
10
10
10
10
10
10
10
10
10
10
10
10
10
10
10
10
10
10
10
10
10
10
10
10
10
10
10
10
10
10
10
10
10
10
10
10
10
10
10
10
10
10
10
10
10
10
10
10
10
10
10
10
10
10
10
10
10
10
10
10
10
10
10
10
10
10
10
10
10
10
10
10
10
10
10
10
10
10
10
10
10
10
10
10
10
10
10
10
10
10
10
10
10
10
10
10
10
10
10
10
10
10
10
10
10
10
10
10
10
10
10
10
10
10
10
10
10
10
10
10
10
10
10
10
10
10
10
10
10
10
10
10
10
10
10
10
10
10
10
10
10
10
10
10
10
10
10
10
10
10
10
10
10
10
10
10
10
10
10
10
10
10
10
10
10
10
10
10
10
10
10
10
10
10
10
10
10
10
10
10
10
10
10
10
10
10
10
10
10
10
10
10
10
10
10
10
10
10
10
10
10
10
10
10
10
10
10
10
10
10
10
10
10
10
10
10
10
10
10
10
10
10
10
10
10
10
10
10
10
10
10
10
10
10
10
10
10
10
10
10
10
10
10
10
10
10
10
10
10
10
10
10
10
10
10
10
10
10
10
10
10
10
10
10
10
10
10
10
10
10
10
10
10
10
10
10
10
10
10
10
10
10
10
10
10
10
10
10
10
10
10
10
10
10
10
10
10
10
10
10
10
10
10
10
10
10
10
10
10
10
10
10
10
10
10
10
10
10
10
10
10
10
10
10
10
10
10
10
10
10
10
10
10
10
10
10
10
10
10
10
10
10
10
10
10
10
10
10
10
10
10
10
10
10
10
10
10
10
10
10
10
10
10
10
10
10
10
10
10
10
10
10
10
10
10
10
10
10
10
10
10
10
10
10
10
10
10
10
10
10
10
10
10
10
10
10
10
10
10
10
10
10
10
10
10
10
10
10
10
10
10
10
10
10
10
10
10
10
10
10
10
10
10
10
10
10
10
10
10
10
10
10
10
10
10
10
10
10
10
10
10
10
10
10
10
10
10
10
10
10
10
10
10
10
10
10
10
10
10
10
10
10
10
10
10
10
10
10
10
10
10
10
10
10
10
10
10
10
10
10
10
10
10
10
10
10
10
10
10
10
10
10
10
10
10
10
10
10
10
10
10
10
10
10
10
10
10
10
10
10
10
10
10
10
10
10
10
10
10
10
10
10
10
10
10
10
10
10
10
10
10
10
