# vtk DataFile Version 2.0
whisker_body, Created by Gmsh 4.13.1 
ASCII
DATASET UNSTRUCTURED_GRID
POINTS 602 double
8.5 0 0
6.296352208910681 0 28
12 0 0
4.12982931753815 0 100
8.224544026113835 0 3.5
7.949088052227671 0 7
7.673632078341505 0 10.5
7.398176104455341 0 14
7.122720130569176 0 17.5
6.847264156683011 0 21
6.571808182796846 0 24.5
7.65823537717056 3.68801178249925 0
5.299663315799225 6.645567600978262 0
1.891427938628656 8.286887253545505 0
-1.89142793862869 8.286887253545498 0
-5.299663315799259 6.645567600978236 0
-7.658235377170581 3.688011782499204 0
-8.5 -5.935518276033327e-14 0
-7.658235377170531 -3.688011782499311 0
-5.299663315799171 -6.645567600978304 0
-1.891427938628608 -8.286887253545515 0
1.891427938628715 -8.28688725354549 0
5.299663315799263 -6.645567600978231 0
7.658235377170568 -3.688011782499232 0
5.093855939578983 3.700902971636832 28
1.945679835123647 5.988186797173885 28
-1.945679835123634 5.988186797173889 28
-5.093855939578973 3.700902971636845 28
-6.296352208910681 2.593635945443025e-14 28
-5.093855939579003 -3.700902971636805 28
-1.945679835123689 -5.988186797173872 28
1.945679835123586 -5.988186797173905 28
5.093855939578964 -3.700902971636859 28
11.34980690040761 3.896393630456207 0
9.469686112756717 7.370552552276022 0
6.563377897469113 10.04599773915035 0
2.945825845689581 11.63280319127197 0
-0.9909521456679979 11.95901391608004 0
-4.820345095835646 10.98927991986068 0
-8.127378859508902 8.82868692807757 0
-10.55368501447787 5.71136871644487 0
-11.83633564083267 1.975135083368787 0
-11.83633564083267 -1.975135083368821 0
-10.55368501447786 -5.711368716444897 0
-8.12737885950888 -8.828686928077589 0
-4.820345095835619 -10.9892799198607 0
-0.9909521456679715 -11.95901391608004 0
2.945825845689616 -11.63280319127196 0
6.563377897469155 -10.04599773915032 0
9.469686112756747 -7.370552552275983 0
11.34980690040762 -3.896393630456205 0
2.574906462902252 3.228830577670782 100
-0.9189734768187546 4.026285874214754 100
-3.720847644852559 1.791865786210781 100
-3.720847644852582 -1.791865786210735 100
-0.9189734768187868 -4.026285874214746 100
2.574906462902235 -3.228830577670795 100
11.69730112759762 0 3.846153846153846
11.39460225519524 0 7.692307692307693
11.09190338279286 0 11.53846153846154
10.78920451039049 0 15.38461538461539
10.48650563798811 0 19.23076923076923
10.18380676558573 0 23.07692307692308
9.881107893183348 0 26.92307692307692
9.578409020780969 0 30.76923076923077
9.27571014837859 0 34.61538461538461
8.973011275976212 0 38.46153846153846
8.670312403573833 0 42.30769230769231
8.367613531171454 0 46.15384615384615
8.064914658769075 0 50
7.762215786366696 0 53.84615384615385
7.459516913964317 0 57.69230769230769
7.156818041561938 0 61.53846153846154
6.85411916915956 0 65.38461538461539
6.551420296757181 0 69.23076923076923
6.248721424354802 0 73.07692307692308
5.946022551952423 0 76.92307692307692
5.643323679550044 0 80.76923076923077
5.340624807147665 0 84.61538461538461
5.037925934745286 0 88.46153846153847
4.735227062342908 0 92.30769230769231
4.432528189940529 0 96.15384615384616
-7.948691370576882 -2.164469884970381 3.327498387474337
-3.933158943321768 7.253279394986889 3.163228800893182
6.627909903614835 2.973520501327311 15.70021816293448
6.427726489463014 -3.417101812774431 15.50693462057377
-6.236802916310908 2.026460109032263 24.67846520543907
0.2837100677758126 -8.25713160895927 3.024023046329059
-3.798818822854914 -5.346322620463082 24.66883712041222
7.223411310367434 2.982713882681455 8.703727429462607
7.682126255353834e-15 6.557762666519984 24.67846520543907
7.06701784533457 -3.331140428085415 8.732196724940051
3.799536951324122 7.337902729362043 3.008196318124713
3.854556183414577 -5.305341442292264 24.67846520543906
6.025092556439361 2.961932189390826 22.69613311940804
6.444006225574763 -5.138923482688389 3.275744402997496
3.692275850968903 5.426894112813069 24.60116296933303
1.740400904479516 6.592788164899272 21.3637047250931
-1.820322023705646 6.577473639259342 21.28651707426837
0.09075411986770909 7.071304996794825 18.14589173799252
-3.561630619781033 6.119490739819803 18.03654794512804
-1.736029375029132 7.121881542478853 14.86097725892114
-5.073556270872074 5.311887314435583 14.6686648486538
-6.217179221601178 3.434720762699591 17.75234329692621
-7.069095576380165 2.100751037126076 14.29909586263784
-7.13402228712817 -0.2355780022821401 17.30698388842895
-7.224131737360015 -1.675670750892584 13.77447185870998
-6.067513721580827 -3.85067198058651 16.69259223245895
-5.525527434232394 -5.024967108574061 13.10368082376353
-3.365826535111363 -6.418630748685426 15.91333567121968
-2.525651286116267 -7.096917797379151 12.28768630555555
-6.332105174112439 4.268802645503928 10.97006097282016
-4.820501711022047 -6.069549989999439 9.518035169876988
0.1512677190021943 -7.319587754085468 14.97870121800546
1.160239190238988 -7.517531578943455 11.35249800520595
-0.7920700526711976 -6.990923116221825 18.60632181887081
1.785433709037613 7.110504209945503 14.85053529439627
0.1572791664284813 7.580420789229988 11.66363225285011
3.039573028602049 6.944937878333675 11.67733289815345
-6.444596394192557 -2.490772874245614 20.21328101139956
0.9964339760293 7.745830252490099 8.771619556390444
-1.866427740088068 7.600129935559854 8.564589584450978
2.794709929432354 -6.544357199455664 17.58399573284405
-6.237992643862333 -2.083383379702483 24.43778981913277
1.587641459798208 -6.644297274949798 21.20225609257697
4.766768059341105 -5.003593477077683 20.19374050829646
-3.776486642602531 5.363613164225516 24.65333240490251
0.6108446676612765 8.027443212647835 5.709524955998962
0.01014065259917042 -6.556549025371351 24.69378633642921
4.09677500594258 -6.141702427709242 14.19680186360877
4.560973828519625 -6.195247572922073 10.25281238195015
2.127850871299776 -7.593718262353434 7.79894284349663
-6.718948178720789 1.389358272811693 20.82430280841066
5.482082110238991 -5.79424421489784 6.650154589747457
6.633243160318658 -3.5876936669216 12.18122367380169
3.668775421425845 6.045437947947777 18.14980651119494
7.537546555433429 2.938881132861859 5.206771554123195
5.900880014721483 5.391040490177844 6.445500591007443
-1.668311940810791 -7.625416976963811 8.820862876467629
-3.635527580206892 -7.141908029490796 6.175441366037939
-6.505857608153328 -4.619958179806681 6.615349842031926
-7.053297943905756 -3.075324361111461 10.23377326318221
-7.853152227082826 -1.131626509918103 7.188330828395261
-7.939115223283798 1.831647478873561 4.476810966116283
-7.623596423924213 0.6493802937223192 10.784980279663
6.947871788323986 2.927769904474101 12.20372085408003
-3.500177065515038 6.728913161873695 11.62844987809723
6.114811933870493 3.392920526796031 19.14753674723761
-5.007694219253771 4.655785414549436 21.12226936239754
-6.45072424188275 5.126852507275209 3.304492279199725
-6.584663535614257 4.458736120823573 6.959950183174643
-4.182074703746468 -5.565415855256266 19.54747367402704
3.529536171387583 -7.43264781122755 3.454624453548613
6.043590335316016 -2.923740758951066 22.6975889261781
-6.275550678402242 -5.364380102924715 3.102180653262657
6.18722777967794 5.470232552717392 3.066694857110956
7.548450085653402 -2.859048169469693 5.441347907007605
4.661866847285073 5.696184729836155 14.47650834356892
-3.167432795662797 -7.635452971291697 2.968627763275095
-2.239419847646297 -6.408089907970662 21.75145622013354
-4.607680044139613 6.321485206437621 8.608141552946618
6.343735112809154 -2.940573421517628 19.15924561081833
4.50037272196306 5.17245988093008 20.88625788282604
5.330898510728909 5.606201257291657 9.70567173310087
-0.04125346207405765 8.292449044697548 2.635881100698304
4.958183435401735 -5.13820883561981 17.27583565740613
-0.6384242418994213 -7.995511422685698 6.086788949236534
7.838022451143103 -2.690657637614513 2.706524746166295
-4.954949387117595 6.347383783113005 5.68756662696847
5.94789209838108 -2.595838762070045 25.54368161702147
5.873143087125302 2.785739279563015 25.40835037409075
-5.095948554581484 -4.436616724086314 22.15141806256743
3.51242845522826 7.206085204455324 6.143017777834149
-7.644937649110479 1.851870792668602 8.055296782350938
7.903623562510256 2.540030304978305 2.519030874371916
-2.419334256355018 7.67181108178509 5.79092747643757
-1.331779423804535 -2.178993995010682 28
1.455010612230196 1.641784080166213 28
-2.963584009837217 0.7056199728259429 28
2.524600163348029 -1.898183272835441 28
-1.149941412144602 3.200876906519236 28
-7.909740641739153 6.21840875699997 0
-7.909740641739112 -6.218408757000027 0
4.175073749396644 9.15281394623652 0
4.175073749396687 -9.152813946236499 0
5.873563766464052 -3.232224655892819 67.28977499250952
4.481712651254909 -3.177432529221948 82.66912391067751
8.838320800436971 -3.280666171817381 32.68608574070607
7.554268963987093 3.231101375388721 48.07692307692309
9.181817935895939 3.23003139853843 28.80000905174118
6.869378104247244 -3.287719480846849 55.70900766071961
7.867941861712451 -3.276727156126993 44.17953275857112
9.798498096784749 -3.297515537212519 21.111610245
-11.1657903760237 -3.616930427408046 3.341790608973243
-6.713239270206378 9.645620444208966 3.153262660782645
4.376157437413393 2.818438862274933 86.33582152562722
10.13981473400592 3.228462306601805 17.26299737139007
-2.518136117665676 -11.43307054852751 3.72169009458731
3.752172511923079 -3.141425038482989 90.29533585463945
4.79811431138024 10.69577319231262 3.52355531022866
5.149402534326526 -3.272637249393243 74.94942415788415
8.191770008330739 3.286667241674997 40.32301464221243
4.897601154316932 3.11373742482956 78.73263413517154
5.52986613998835 3.235631427417044 71.06671410552613
6.213887481933059 3.245444915275249 63.39923967603453
6.995739867096134 2.99948778998679 55.75920046506192
10.4335831550334 -3.302239113208106 13.42163899493247
-2.723844371020274 3.415592807225254 96.96476903409871
7.945113376504919 -8.63069383398738 3.419408766471524
-11.09527489538305 3.809012682760117 3.419408766471708
10.77562275141164 3.216246898016816 9.588515283028604
-2.633579180006027 -3.523592931555294 96.57950772588465
9.935226484425232 6.234911832567003 3.436118109269079
11.06555625010633 -3.306234306777092 5.731422828049544
3.374681076347565 3.1132268918116 94.13560339841358
4.812366599042043 -3.224042144942172 78.873476585039
6.195068113102339 -3.26720803300037 63.48246542003737
6.522641944107701 -3.298998453792851 59.59892398279454
7.879344283728515 3.250741259105456 44.17212733116521
0.8839995536723747 4.277270915254395 96.9780051014545
-0.6087510069504397 4.572291850264672 93.86533233342223
-3.967763370978763 2.380981615854184 93.67860409287384
-2.514787536491404 4.16790822991209 90.62301262457657
2.066990261246719 -5.261510892665558 80.64680223727419
-4.80108364624302 0.9237778919459773 90.35193927379757
-4.148411874349152 3.013742045850459 87.3225173675719
-5.124635680411549 -0.5869825869384447 86.93403556407078
-5.122782828649765 1.689962471480975 83.93290014234525
-4.102942731135807 -2.73176048741506 89.84349415526822
-3.450955103805575 -3.897373372224187 86.33062376829567
-2.749581690125994 4.616421910315226 84.20115536910222
-4.250413780804886 3.703850031937411 80.83971605503233
-5.662420831680111 0.1966082333486384 80.48322173876019
-5.375381797001242 2.447836594630518 77.42537557844391
3.812537905289616 -5.706104485838225 65.27704606376504
4.599124468079863 -5.897081752692706 57.45148120297365
5.012582181100913 -5.951347032463563 53.60702820513303
-5.792725851936313 -1.320368238167501 76.98308328728535
-6.097558140013832 1.001434411147309 73.95968687944386
-5.576404695974744 -2.755619968878821 73.44050416384161
-6.434678987631139 -0.5117031387743215 70.45599504599815
1.866011173784356 -7.422114365427838 55.23273440165571
6.206963665807508 6.076425012455441 42.10635631986352
2.34933884033256 -7.599056025841686 51.41015943067822
6.586950354737561 6.115913930651129 38.2653109498273
-5.217995146303775 -3.8796357175828 69.85574072248086
-6.430603242787645 -1.996604071655376 66.91811071418103
-1.198618119634415 -7.74334443339539 52.91417220012781
-0.7184470908275126 -8.103877072224591 49.10107475974507
-1.691303905958023 -7.344041763758416 56.71698902177695
-6.446021055353896 1.810465342034865 67.400772821131
-6.963644857210911 0.3179370843741539 63.900786198686
-4.507274597441638 -6.276993639667925 54.28568353797854
-5.027323647993964 -4.565677342815891 66.18501919658796
-5.718843775429927 3.933382560482593 64.2814297887372
-6.727446136432748 2.603316446623901 60.81718700781244
-4.595354370977821 5.551037143687374 60.90926156774842
-5.791866873345177 4.707256752835089 57.641565194443
-2.738908155885913 6.359465291061377 64.49427232848898
-4.325427677657929 4.376226859456523 74.29186045009789
-2.658321834712739 6.963566203321625 57.7659752018727
-4.459231579748779 6.292405049040063 54.48077603239729
3.693961838868039 8.049660413438618 39.93851530093913
4.134491260051017 8.172261153940788 36.10346813727557
3.247859820302117 7.91464353766347 43.77127814781241
0.2312441233784443 8.73048763463 41.50418785767474
-0.2493164453993333 8.429350036740725 45.32257143935303
-3.264880595604335 7.977005283294758 42.95606823521809
-2.818179978613177 8.46167247646763 39.15246223046774
-5.890878241671989 6.55354165952455 40.50737295485371
-5.55118836513258 7.223775322297431 36.71638336551474
-7.866609030679623 4.394854844822967 37.97872909730926
-7.705897422843736 5.221438767845654 34.20140799407528
-7.965336507755377 3.534647958927964 41.74783105555312
-8.880768722107426 0.8435634506063195 39.12567221414058
-8.628785134572063 -0.1991780394900613 42.80614101704665
-8.347572205608595 -2.912240226352715 40.13902733229308
-6.930532459783058 3.433020925039916 54.20207624276086
-8.919523495493118 -1.961653542592084 36.43265755619994
-7.326578552305422 -5.32754234623931 37.37176758750493
-8.172519359014936 -4.540807592218927 33.68061157766353
-5.659134990378325 -7.357778934610122 34.5305394567448
-6.730664184171713 -6.805052355603788 30.85903225938904
-4.918406425079151 -7.527994897172994 38.21647343156529
-3.551024175726478 -8.822879111542557 31.62985336031595
-4.829175198930227 -8.524880376851666 27.98313843778583
-7.748040324651958 -6.10033189184644 27.17415423917365
-6.027504023170842 -8.087293796721353 24.31480706998799
-8.623199990797044 -5.36011555881048 23.46397513297297
-7.138899111712679 -7.53070618676978 20.62628012382855
-9.42617967014588 -4.50216298320929 19.7433629728719
-10.04935583621382 -1.908130315312705 22.50388541425145
-10.48481300233317 -0.9103402213549732 18.75106999194185
-10.14357178680225 1.858088495557018 21.44363940426504
-10.21907240221264 2.854711752244256 17.65760084213637
-8.899670355618612 5.389974593159367 20.27132187034025
-5.176839681805609 7.857607428709469 32.91341584416823
-8.139800604467236 -6.896618956328485 16.91663548417966
-5.173413195955926 -9.257224414716323 17.72852063029842
-2.565594180261729 -9.69494386394323 25.04813015034415
-8.695273324501105 6.243754239959885 16.45737183541965
-6.520067747753981 8.237306400044123 18.99004591478841
-6.151563004446524 8.885703176354554 15.15485789999356
-3.355221118593188 10.07006290612709 17.60680163802443
-2.881539707633345 10.52987584240837 13.76043137224239
-3.790569381182275 9.589624130126793 21.45302507227902
-0.2765327732168132 10.4229335568711 19.9919262353477
-0.7585753938063373 10.09531832196997 23.83965605760514
-0.8577277315722565 7.655549188918071 54.59285357288078
-10.82074949293265 0.07409197709634419 14.98057533735194
-6.383939222388364 -8.828654416877633 14.04105959115822
-2.903028371148273 -10.44084868695986 14.77829746420948
2.788265065142721 9.858660652264522 22.29468460998806
2.334753359997067 9.664080111774325 26.14799313095878
-7.493001686535445 6.011664166065715 30.4120774591608
3.265155033046601 10.03037456107683 18.44377952416035
-8.462714208879598 7.0295910373792 12.68733040401436
-7.69414771294934 -3.725506011273295 43.8536435114861
-6.017460139625747 5.243890107063108 51.05680514361279
-7.767712421567986 1.932287453273203 50.7683785111529
1.101556762283952 7.348247957813804 58.06284500659867
-4.861568272795789 -5.618944565786616 58.06523160767606
-1.51901687630193 -10.43966876399617 18.42905766219885
0.9357131177275069 -10.74648034857855 15.41084185685252
2.523153380506127 -10.19947868482952 18.97119844497594
-0.3359644054636738 -11.07077264347975 11.74219487829984
3.434506535531813 -10.47989833926506 12.34621390212773
1.975563701868275 -11.13753074260023 8.749676229934552
-4.630002429305735 -3.353222420848561 79.83649146589214
-3.22695078443888 -5.385708674616216 72.69904921396734
-9.120347793851272 2.70128461211324 31.61334566411546
5.609172467529446 8.36319626618519 24.52236471624617
2.800899683272091 -7.765636841217105 47.58078904853826
-0.204326355381253 -8.432480975017448 45.2981775026155
-9.085609357883767 -6.132613982927917 13.19378851952879
-7.511834227551703 -8.289590408352 10.33241970483414
-2.202962497408794 -6.895300020925434 60.4985542339714
3.435669499319663 -5.589876939302518 69.10534083807377
5.725724803185765 -9.707619926220127 9.270507294731765
2.825109400983114 7.758503796297358 47.5611899689677
5.098853539889244 8.329643047295143 28.3814299218997
1.808052141520714 9.468540628774155 29.99144488219785
-4.721381777381734 8.487126858822929 29.07191143231945
3.279833666652764 -7.90260478622696 43.75769258192631
6.956083056205363 6.158439293986045 34.42740991730672
-9.13423143514604 3.576411086229081 27.83384176123986
-6.93700178206935 -3.171584028520655 55.55606218971751
-6.645526311416525 -4.318184756620701 51.77448591293535
-9.843519344604095 -5.451518375537797 9.500615377115023
-8.555261135392488 -7.655235087596595 6.604615880676276
6.759061714443298 -8.668337423812677 12.80731977543796
-9.720958759091037 -0.06513313066210538 28.95519208216994
8.56755222359768 -7.277070969885943 9.644782549891797
-3.661011436712729 -7.475009841388848 46.7157931501187
-7.054854985621883 4.272006383564574 47.68021725313226
-1.141473390652306 5.514291925759736 80.92331789836042
0.5050933306326838 -8.715201717303765 41.55150163634719
3.777757867739801 -8.012275294986789 39.92013696540695
1.236551243152149 -8.957470841189759 37.57962867269742
4.301458955095674 -8.090688316557294 36.04665864030962
6.625052585257434 -6.074652819609921 38.26502083893802
-0.953570453658671 8.105165258958369 48.77827963765056
-7.169432679535329 -0.9531944489997318 60.57657778694946
2.408956305467424 7.32621582252684 54.48291687676665
1.536813300763055 -9.203577916954487 33.91280556707011
4.734981743386286 -8.192964310530382 32.23809372354393
1.899770933032091 -9.450509965227674 29.99213425199284
5.096627825735228 -8.327573104334254 28.41862629833087
-8.228239114518004 -1.372490785607699 46.48029773575507
1.979888415474268 -4.986428075485938 84.304249690604
-5.203240972821671 -10.16867136383249 7.336672090745447
1.689021609192513 -9.811611851096179 25.9723853488332
5.532538163622411 -8.409485807253724 24.57122865525498
7.767463330678484 -6.132270595063618 26.72909564910416
4.166273123667124 -10.77332714018607 5.706841325756034
0.7651535221986568 -6.692218005986077 66.887776502379
-1.714684285248882 -4.682169777183954 89.11793074351316
-5.291129393820539 -4.799829710425084 61.70339381452349
-2.310489625791758 -4.106458645292604 92.60494920429589
1.25490926388507 4.690446686513215 90.78051716507835
-6.896308222585875 -4.543241875089891 47.54234857058265
-0.9811831879436982 5.012003014675975 87.58207086269074
-4.373797870819125 0.05949301263183673 96.89494471490113
2.425769257960733 -5.437810937582964 76.81741565136404
-2.284768145532497 -4.998621277873863 82.64073465630742
4.211177610020674 -5.809809875253531 61.30098965927812
0.8901156941663316 -6.973079531847764 63.154135604984
9.148539001936843 -3.309353382876334 28.85961457651511
-6.395861062135172 -9.811115048162394 3.6626019471354
-1.688011349918193 -11.30163491481239 7.280652497736951
2.974324575994636 -5.503453469465835 72.98741475222673
-1.338037975996733 -5.658754210727359 78.590476748873
2.767451965606174 -3.656060944166346 94.21187059484977
0.8502221189687292 -4.28245174500155 96.99870917382096
4.151595880050725 -3.10881660211555 86.57286023530499
-5.035547155150557 6.50009781665422 47.99884696227014
-1.83676536068367 9.342310700755364 31.4966562390371
-1.277279605192092 9.738680573587951 27.6730411601659
4.571886868603894 3.055732086504722 82.60228935906667
1.62348279022263 5.114871894269904 84.28863516157752
-4.283979796335961 9.047725400409536 25.27664135998259
-7.20261330083579 6.808918192509918 26.53615667995099
-0.1068970590506898 -10.26372324966427 22.05441491729707
5.188173153497538 3.21407996495389 74.92761314965497
2.958422553484909 5.528945006805444 72.79784277826795
3.390221004719081 5.629988057441091 68.970072011301
-0.08830622351713914 6.447849910280511 70.5390727241674
2.908963270465764 5.221705045884485 76.52549387646251
-1.08203430820874 6.052783740704244 74.34732233265241
5.991036744538128 8.464825567743267 20.70566550101269
6.45940881880493 8.496799670085235 16.85718251993224
3.772514147400049 10.17445797735023 14.59518036628739
6.864004748286274 8.566390348005028 12.99666730358788
4.246857057704161 10.31404401589448 10.74740851070374
7.267688187756516 8.615541528500929 9.256393960565296
8.203449161069003 6.070580533651302 22.80359028428789
4.793843998890829 -9.619688031121431 15.90826639152638
7.540679425044661 -7.62355003330588 16.22722625586213
5.86711584685049 3.253465659741669 67.23098553749504
6.551922449441563 3.247470356008771 59.55938315504534
4.26798467539927 5.778807560406723 61.19268051115967
3.829188886643246 5.711735688917967 65.09990749711463
0.7944117886820685 6.710604662270475 66.61274956186038
0.9903658371107854 6.979134766734393 62.90774767392619
7.32023539987649 3.029588158042562 51.81095759453838
7.541270426403965 -3.271842904183838 48.02379992311081
7.198084759945645 -3.29814331961003 51.87037889302751
5.527719161187908 -3.226610736457857 71.14809989104356
8.186451039094585 -3.290738755287423 40.36645087052852
-4.134153683872047 -6.878153840860334 50.50747895616387
-9.372690102238158 -0.9960605645360863 32.71252436816956
8.518135428693823 3.282047879207629 36.48520071658915
7.018696017757249 -6.087471254120785 34.42335212931561
-2.344713523394479 8.915345801872624 35.34208103182198
9.503102071825319 3.227234053945235 24.95328159633656
-3.887741360281091 -9.55527135813171 21.39854969506453
-5.08132322380627 -1.928940850931788 83.41455844757306
5.41390522544453 -6.002118887338323 49.76948719411796
-9.045815621788293 1.761538561813422 35.37742266972374
10.12157530385624 -3.270620973924703 17.32006265605408
10.46065465835948 3.21603932806899 13.41945377908718
0.7636879293064867 9.001587165377034 37.68756335531497
-4.160435640694256 -10.31951630668066 11.09736285013905
10.11188110122532 -4.917704183286351 9.602264608836794
-5.642520936754487 3.068114929614457 70.86602243498113
-3.306917906935155 -8.002077515563995 42.45827593854092
0.7716906965331053 11.00765467427823 12.26566567729993
1.312521528112349 11.26220637280288 8.406038107006125
-2.310264950516846 10.98397422148469 9.856144516492819
-0.9460130799269171 11.48514669453351 6.047624576501078
-5.236628781420055 10.16266590793551 7.210769464696889
-8.355311950115114 7.904598807676805 6.328841003640677
-5.753039639262859 9.503690654253152 11.31681343301676
0.2221375502022995 10.72921411095089 16.11765004482004
-10.09778528524232 -3.652405018627818 16.03482445656742
-10.23151459178637 3.783288937646167 13.86777777868717
-11.07030980407017 1.041389985703033 11.19182875397131
-4.808435465071741 4.621828065835932 67.73031380931104
-6.729014747899494 -5.622784064871571 41.05376263177314
-7.40966407228065 1.035132950659693 57.41147488706399
-8.889443365134229 -3.724159619551729 30.01171004011113
-3.13576137718344 4.980957249303334 77.68796085027978
5.430939506508762 5.98105445735627 49.82269955395099
5.84555979416416 6.004026667471118 46.00062673060513
-10.68405965701854 -2.76843308908664 12.23723588710871
1.22313310206693 9.256288584663618 33.83977772725194
-9.53129435993905 -2.801334459292299 26.24546098779333
-9.978490965758221 0.8731188770113123 25.20126894449653
8.83900499564381 3.287876266123014 32.64602679245239
5.829625646116819 -6.02570203066276 45.94399643180818
-9.042505344759366 4.501191926871984 24.13069880262258
1.362487105949007 -7.225378519361925 59.04931321106267
4.593715279143314 8.266463108482473 32.31068058962718
6.101625196311021 -8.499140978603695 19.53498754127773
8.519795902544343 -3.272859274442114 36.50743138248593
6.22357497449388 -6.059294759959071 42.10738060620009
-2.500755275765139 -8.894813208288125 35.0733337615888
-3.987477995067187 -4.475185714158163 76.31427972733331
7.347764743804756 6.162403976555622 30.62409354700902
9.487240943227986 -3.271172276970405 24.96320768365036
8.14014554473664 -6.142521328586325 22.90073390315331
-11.18934811486874 -1.78405784517934 8.504480862792411
-11.34248684723381 1.533865244059939 7.042659643451112
-10.08090016852759 4.899263756058249 10.05874010459623
7.349778405736445 -6.159221465208288 30.63046536423859
7.845438738298856 8.737716073745814 3.265201290698713
-11.73666604211394 0.04718123912198847 3.344770207887467
-6.880982398563415 7.535966779201058 22.80969873281601
1.234699501508766 11.67032665596749 3.361307139960131
0.7775159941704498 -11.71121839934428 3.341732647624339
-7.761129940325595 -0.3217486286632141 53.77524606569127
7.776058764692979 6.123658279727806 26.71108899225543
4.507113789199277 5.955822947322406 57.57186410963119
8.478231766890701 6.19147422099198 19.08062684096827
-6.017098616886324 5.987943429856538 44.61311537497397
9.841834364371508 3.164951802853413 21.11502088322771
8.874220334098817 6.163259243809498 15.1900732533216
-4.522928016685367 -1.116538227789206 93.27999296042566
0.1899684698455322 -6.427080344406011 70.77499327652333
9.254298998606862 6.130378170700033 11.4278082387475
4.877556397471827 10.34869804224512 7.108528844721677
10.22813237147876 -5.778600291799357 3.206609444451877
11.08750541272171 3.153571137340417 6.006695905809782
9.62147456200027 6.125814461045515 7.546628087160627
2.602763508061666 7.544673050476006 51.0661506109393
-9.450810018537974 -6.98064893410527 3.184786357756781
-1.738245447402566 -9.601645206001198 28.49087637421038
-9.284974228487995 7.226785522004678 2.974105359916647
8.503635231431277 -6.097814998458789 19.51681310357199
-0.5177935407150281 -6.062343411939362 75.16462171574942
-3.146242101865075 7.300705395217425 51.46281539576675
2.881494568876632 -9.834721320227656 22.25925567580902
9.227391890521528 -6.882090690661189 6.210678114063843
2.450529738704667 5.107444261733613 80.49508785546136
-2.425760742850553 -6.534191123688628 63.91305858833477
-5.756135075394901 -6.267930954012785 44.34469226678655
0.675787463642481 -4.726761959406258 91.80453479411077
-3.387540275224223 11.24607670722664 3.237569428901639
-10.16453465215342 5.353199424387492 6.505375098526218
-3.176927501384569 5.538981256944516 71.3404077920088
-8.095133877761961 2.476117653250981 44.91183609210517
-7.940178085511497 -1.139518021964767 50.55126559441243
8.892964170446474 -6.457167706325339 12.83342487444749
-2.587743578199011 -6.044556655072946 68.92878666453429
5.377318262089517 5.624148012889068 53.60532916278943
-1.904238157405352 6.952890691720766 60.87619278178034
4.136490153060944 2.610269484400888 90.32558230896208
-8.224822456980531 7.676206881031294 9.524369828619307
-6.54752520706339 -2.402011469671706 63.85858888365182
-10.34758847279892 -5.027511965251613 6.298716805018322
1.576871404464845 -4.839456285904439 87.80142174536869
4.74088023310448 -10.80811828039617 2.513588040159329
6.903999453853563 -9.182498875813993 6.500406137581299
3.150491641629034 -2.99878010852642 97.2086302191444
-1.901582471330819 -8.715475407784728 39.12860989847725
3.407052942739645 2.703714494624518 97.20891928206666
11.44288147924984 -2.793102482646737 2.810165575525718
11.37548618731505 3.030953188959276 2.892492652108917
-0.1639798221050647 5.855491294854493 78.04421683436269
-0.8183929021767927 -5.16345271735792 86.04760099369275
-0.7178031234106117 -9.475236916979568 31.73518396224038
7.55088640616417 8.692113662169318 6.177130474846702
-6.625216433102091 -3.293836487499938 58.46326531655382
-11.41187659164708 -1.849918167358078 5.580000234912525
-2.17010779515334 6.269626255526614 68.1741925722839
2.225673043544537 4.563577893605502 87.96013190611274
-0.05469789955032378 -4.565507725670101 94.46001779304729
-8.101286283077863 1.470052407807451 47.85686204833237
2.507952300141112 11.26619981471895 5.819816612068124
9.297997225248739 -5.445612661716881 15.56107693728158
-2.923454371309332 7.875471391745818 45.73505006114886
-0.4484470749861242 7.914173458201476 51.75404108188532
0.8942540844399332 -11.47698124075508 6.203583321230307
-6.661338147750939e-15 5.900042359436546e-15 100
0.003624684837478576 1.911002266208328e-05 37.23080249654045
0.001757971492221344 0.0001822246562490637 47.13330008975056
0.05432942166840626 -0.008354006745571851 56.04455481200358
0.0006428625151730927 0.003137446080785811 63.13504159692353
0.002956742050770345 0.001431934375685451 69.64394874918312
0.05598667214977926 -0.02103357996047883 77.43412798602102
2.729058310383321 -1.401494040515219 42.18258832596847
-2.994447931513482 -0.9795999566767892 42.02792114497226
-0.160227545125863 3.536073380943694 42.996567642107
3.897467045469373 -0.7414069989984675 33.29187689518892
-2.735560849408666 2.871391425784908 33.32634521494181
-2.983596883039453 -2.651390824663966 33.40774043782154
0.003245524026145752 0.04810908698782224 82.9119570819403
-0.02561776209041722 0.08903857575638074 88.76686126006
2.978119584716908 -0.08609974396226565 51.53464892743794
-1.735023232834805 2.239090316277965 51.55955425277334
2.200761701555078 4.033853108440014 33.8411847577699
3.386256569384368 2.764742272095567 39.75355179844438
-1.273598359249025 -2.770102276016291 52.02788779190107
-4.739310418370806 0.3034434789221099 36.82086348744176
1.223769676863649 -4.341346957155166 35.290280050756
-0.1307571101749794 0.06779108854410505 94.96497955225448
-0.2974982504934338 -4.261837718259898 39.82612955204372
-0.8381779407279897 4.608862118884566 37.36278900404391
4.567872852678452 -1.325867701220772 37.93346177955197
2.970814848521233 -0.3436847387580193 59.61263678517732
-1.918533864929166 -2.329664621687488 59.5788350841014
3.575451395065532 2.112917371585332 45.21653471653645
-0.3958339922896135 -3.853026165901495 44.58021120388949
-1.352295749647629 2.578281682343776 59.57516819096065
-3.629158255871229 2.201222942728634 45.57413127931097
1.743793271827345 -3.669953222227005 48.90738124075497
-1.943524304464881 -0.3164959257778739 73.55158464855076
1.727258239974919 3.676814208050094 48.94870046830543
1.80179970219649 2.151309715666841 66.38941838664581
-2.728664945309885 0.0194444801009146 66.39047033410205
1.993632303217129 -2.039634464146554 66.21502564025194
-3.659547970125619 2.861107100042044 40.14321080313358
2.107109512230481 0.8691732051208048 73.21421870937247
4.165433949770041 -1.908164669635133 46.03930129671158
-3.826662561198437 -0.7293868242856684 49.12024685213091
2.291628941411842 -3.344294115459497 55.22244237996519
-4.119471223455442 -3.224774921045946 38.79773921318764
1.686520295658188 3.210585164612068 53.84384427972223
-0.4892637076687558 -5.411552392195479 31.75666988877661
3.432966068569531 -4.405573767279352 31.62732590002224
-5.729422173500339 0.5498500619761585 31.95195643784937
-3.114355996948496 2.527446326582623 55.41845667093597

CELLS 3011 13771
1 0
1 1
1 2
1 3
2 0 4
2 4 5
2 5 6
2 6 7
2 7 8
2 8 9
2 9 10
2 10 1
2 0 11
2 11 12
2 12 13
2 13 14
2 14 15
2 15 16
2 16 17
2 17 18
2 18 19
2 19 20
2 20 21
2 21 22
2 22 23
2 23 0
2 1 24
2 24 25
2 25 26
2 26 27
2 27 28
2 28 29
2 29 30
2 30 31
2 31 32
2 32 1
2 2 33
2 33 34
2 34 35
2 35 36
2 36 37
2 37 38
2 38 39
2 39 40
2 40 41
2 41 42
2 42 43
2 43 44
2 44 45
2 45 46
2 46 47
2 47 48
2 48 49
2 49 50
2 50 2
2 3 51
2 51 52
2 52 53
2 53 54
2 54 55
2 55 56
2 56 3
2 2 57
2 57 58
2 58 59
2 59 60
2 60 61
2 61 62
2 62 63
2 63 64
2 64 65
2 65 66
2 66 67
2 67 68
2 68 69
2 69 70
2 70 71
2 71 72
2 72 73
2 73 74
2 74 75
2 75 76
2 76 77
2 77 78
2 78 79
2 79 80
2 80 81
2 81 3
3 4 167 0
3 0 174 4
3 11 174 0
3 0 167 23
3 1 169 10
3 10 170 1
3 1 170 24
3 32 169 1
3 4 136 5
3 5 156 4
3 4 174 136
3 156 167 4
3 5 89 6
3 6 91 5
3 5 136 89
3 91 156 5
3 7 134 6
3 6 145 7
3 89 145 6
3 6 134 91
3 7 84 8
3 8 85 7
3 7 145 84
3 85 134 7
3 8 147 9
3 9 161 8
3 84 147 8
3 8 161 85
3 9 94 10
3 10 153 9
3 9 147 94
3 153 161 9
3 94 170 10
3 10 169 153
3 12 155 11
3 155 174 11
3 13 92 12
3 92 155 12
3 14 164 13
3 13 164 92
3 15 83 14
3 83 164 14
3 16 149 15
3 15 149 83
3 17 143 16
3 143 149 16
3 18 82 17
3 82 143 17
3 19 154 18
3 18 154 82
3 20 158 19
3 19 158 154
3 21 87 20
3 87 158 20
3 22 152 21
3 21 152 87
3 23 95 22
3 95 152 22
3 23 167 95
3 24 96 25
3 24 170 96
3 25 90 26
3 25 96 90
3 26 126 27
3 90 126 26
3 27 86 28
3 27 126 86
3 28 123 29
3 86 123 28
3 29 88 30
3 29 123 88
3 30 128 31
3 88 128 30
3 31 93 32
3 31 128 93
3 93 169 32
3 140 142 82
3 82 154 140
3 142 143 82
3 149 168 83
3 83 175 164
3 168 175 83
3 135 147 84
3 84 157 135
3 145 157 84
3 129 134 85
3 85 165 129
3 161 165 85
3 86 132 123
3 126 148 86
3 86 148 132
3 152 166 87
3 87 166 158
3 123 171 88
3 88 159 128
3 88 171 159
3 136 137 89
3 137 163 89
3 89 163 145
3 96 97 90
3 97 98 90
3 98 126 90
3 130 133 91
3 91 134 130
3 133 156 91
3 92 164 127
3 127 172 92
3 92 172 155
3 124 125 93
3 93 128 124
3 125 153 93
3 153 169 93
3 94 162 96
3 96 170 94
3 147 162 94
3 133 152 95
3 95 156 133
3 95 167 156
3 96 162 97
3 97 99 98
3 97 135 99
3 97 162 135
3 99 100 98
3 100 148 98
3 98 148 126
3 99 101 100
3 99 116 101
3 99 135 116
3 101 102 100
3 102 103 100
3 103 148 100
3 101 146 102
3 116 117 101
3 117 146 101
3 102 104 103
3 102 111 104
3 102 146 111
3 104 105 103
3 105 132 103
3 132 148 103
3 104 106 105
3 104 144 106
3 111 144 104
3 106 107 105
3 107 119 105
3 119 132 105
3 106 108 107
3 106 141 108
3 106 144 141
3 108 109 107
3 109 151 107
3 107 151 119
3 108 110 109
3 108 112 110
3 108 141 112
3 110 113 109
3 113 115 109
3 115 151 109
3 112 138 110
3 110 114 113
3 110 138 114
3 111 173 144
3 146 160 111
3 111 160 150
3 150 173 111
3 112 139 138
3 112 140 139
3 112 141 140
3 114 129 113
3 113 122 115
3 113 129 122
3 114 130 129
3 114 131 130
3 114 138 131
3 122 124 115
3 124 159 115
3 115 159 151
3 116 118 117
3 116 157 118
3 135 157 116
3 118 120 117
3 120 121 117
3 121 146 117
3 118 163 120
3 157 163 118
3 123 132 119
3 119 171 123
3 151 171 119
3 120 127 121
3 120 172 127
3 163 172 120
3 127 175 121
3 121 160 146
3 121 175 160
3 122 125 124
3 122 165 125
3 129 165 122
3 128 159 124
3 125 161 153
3 125 165 161
3 164 175 127
3 130 134 129
3 131 133 130
3 131 152 133
3 138 166 131
3 131 166 152
3 135 162 147
3 136 155 137
3 136 174 155
3 155 172 137
3 137 172 163
3 139 166 138
3 140 154 139
3 154 158 139
3 158 166 139
3 141 142 140
3 141 144 142
3 142 173 143
3 144 173 142
3 143 150 149
3 143 173 150
3 145 163 157
3 150 168 149
3 160 168 150
3 159 171 151
3 160 175 168
3 24 177 1
3 1 179 32
3 177 179 1
3 25 177 24
3 26 180 25
3 25 180 177
3 27 180 26
3 28 178 27
3 178 180 27
3 29 178 28
3 30 176 29
3 176 178 29
3 31 176 30
3 32 179 31
3 31 179 176
3 177 178 176
3 176 179 177
3 177 180 178
3 2 0 33
3 50 0 2
3 33 0 11
3 23 0 50
3 11 12 34
3 34 33 11
3 13 183 12
3 34 12 35
3 12 183 35
3 14 37 13
3 37 36 13
3 36 183 13
3 15 38 14
3 38 37 14
3 16 181 15
3 39 38 15
3 15 181 39
3 16 17 41
3 40 16 41
3 40 181 16
3 17 18 42
3 41 17 42
3 19 182 18
3 42 18 43
3 18 182 43
3 45 19 20
3 44 19 45
3 44 182 19
3 21 46 20
3 20 46 45
3 22 184 21
3 21 47 46
3 21 184 47
3 23 49 22
3 22 49 48
3 48 184 22
3 23 50 49
3 35 183 36
3 39 181 40
3 43 182 44
3 47 184 48
3 33 537 2
3 2 536 50
3 57 536 2
3 2 537 57
3 3 535 51
3 56 533 3
3 3 533 81
3 81 535 3
3 34 212 33
3 212 537 33
3 35 485 34
3 34 485 212
3 36 199 35
3 199 485 35
3 37 488 36
3 36 488 199
3 38 517 37
3 37 517 488
3 39 194 38
3 194 517 38
3 40 507 39
3 39 507 194
3 41 209 40
3 209 507 40
3 42 486 41
3 41 486 209
3 43 193 42
3 193 486 42
3 44 505 43
3 43 505 193
3 45 388 44
3 388 505 44
3 46 197 45
3 197 388 45
3 47 489 46
3 46 489 197
3 48 531 47
3 47 531 489
3 49 208 48
3 208 531 48
3 50 501 49
3 49 501 208
3 50 536 501
3 51 219 52
3 51 535 219
3 52 207 53
3 52 219 207
3 53 382 54
3 207 382 53
3 54 211 55
3 54 382 211
3 55 393 56
3 211 393 55
3 393 533 56
3 58 213 57
3 57 502 58
3 213 536 57
3 57 537 502
3 58 210 59
3 59 443 58
3 58 502 210
3 58 443 213
3 60 206 59
3 59 440 60
3 206 443 59
3 210 440 59
3 60 196 61
3 61 439 60
3 60 440 196
3 60 439 206
3 62 192 61
3 61 495 62
3 192 439 61
3 196 495 61
3 62 434 63
3 63 479 62
3 62 479 192
3 62 495 434
3 63 189 64
3 64 387 63
3 63 434 189
3 387 479 63
3 65 187 64
3 64 468 65
3 187 387 64
3 189 468 64
3 65 431 66
3 66 474 65
3 65 474 187
3 65 468 431
3 66 201 67
3 67 428 66
3 66 431 201
3 428 474 66
3 68 191 67
3 67 218 68
3 191 428 67
3 201 218 67
3 68 188 69
3 69 425 68
3 68 218 188
3 68 425 191
3 69 424 70
3 70 426 69
3 188 424 69
3 69 426 425
3 71 190 70
3 70 205 71
3 190 426 70
3 70 424 205
3 72 217 71
3 71 419 72
3 71 217 190
3 205 419 71
3 72 204 73
3 73 216 72
3 72 419 204
3 216 217 72
3 74 185 73
3 73 418 74
3 185 216 73
3 204 418 73
3 74 203 75
3 75 427 74
3 74 427 185
3 74 418 203
3 76 200 75
3 75 403 76
3 200 427 75
3 203 403 75
3 76 202 77
3 77 215 76
3 76 215 200
3 76 403 202
3 78 186 77
3 77 398 78
3 186 215 77
3 202 398 77
3 78 195 79
3 79 394 78
3 78 394 186
3 78 398 195
3 80 198 79
3 79 526 80
3 195 526 79
3 198 394 79
3 80 214 81
3 81 392 80
3 80 392 198
3 80 526 214
3 214 535 81
3 81 533 392
3 185 234 216
3 185 337 234
3 185 427 337
3 186 223 215
3 186 369 223
3 186 394 369
3 187 484 387
3 187 474 432
3 432 484 187
3 218 463 188
3 188 462 424
3 188 463 462
3 434 491 189
3 189 478 468
3 189 491 478
3 217 235 190
3 235 236 190
3 236 426 190
3 425 469 191
3 191 475 428
3 469 475 191
3 192 508 439
3 479 480 192
3 480 508 192
3 193 543 486
3 505 529 193
3 529 543 193
3 194 451 450
3 450 517 194
3 194 507 451
3 398 399 195
3 399 545 195
3 195 545 526
3 440 496 196
3 493 495 196
3 196 496 493
3 370 388 197
3 197 389 370
3 197 552 389
3 489 552 197
3 392 516 198
3 198 530 394
3 516 530 198
3 199 541 485
3 488 548 199
3 500 541 199
3 199 548 500
3 215 383 200
3 383 390 200
3 390 427 200
3 201 242 218
3 201 244 242
3 201 431 244
3 202 513 398
3 403 407 202
3 407 513 202
3 203 404 403
3 203 405 404
3 203 418 405
3 204 421 418
3 419 420 204
3 420 421 204
3 205 492 419
3 424 524 205
3 205 524 492
3 439 549 206
3 206 522 443
3 206 549 522
3 219 220 207
3 220 221 207
3 221 382 207
3 374 531 208
3 208 532 374
3 501 512 208
3 512 532 208
3 209 486 482
3 482 518 209
3 209 518 507
3 210 499 440
3 210 503 499
3 502 503 210
3 211 497 378
3 378 546 211
3 382 497 211
3 211 546 393
3 485 541 212
3 212 503 502
3 502 537 212
3 212 541 503
3 443 512 213
3 213 512 501
3 501 536 213
3 214 220 219
3 219 535 214
3 214 379 220
3 214 526 379
3 223 383 215
3 216 385 217
3 234 385 216
3 217 385 235
3 242 463 218
3 220 222 221
3 220 379 222
3 222 224 221
3 224 497 221
3 221 497 382
3 222 225 224
3 222 381 225
3 379 381 222
3 369 384 223
3 223 391 383
3 384 391 223
3 225 226 224
3 226 228 224
3 228 497 224
3 225 227 226
3 225 230 227
3 225 381 230
3 227 436 226
3 226 229 228
3 226 436 229
3 230 231 227
3 231 232 227
3 232 436 227
3 229 376 228
3 376 378 228
3 378 497 228
3 229 539 376
3 229 436 384
3 384 539 229
3 230 355 231
3 230 399 355
3 381 399 230
3 231 233 232
3 231 461 233
3 355 461 231
3 233 237 232
3 237 328 232
3 328 436 232
3 233 238 237
3 233 259 238
3 233 461 259
3 337 375 234
3 375 386 234
3 234 386 385
3 235 241 236
3 235 471 241
3 385 471 235
3 241 243 236
3 243 437 236
3 236 437 426
3 238 239 237
3 239 477 237
3 237 477 328
3 238 240 239
3 238 444 240
3 259 444 238
3 240 245 239
3 245 329 239
3 329 477 239
3 240 246 245
3 240 250 246
3 240 444 250
3 241 247 243
3 241 249 247
3 241 471 249
3 244 262 242
3 262 264 242
3 264 463 242
3 247 248 243
3 248 332 243
3 332 437 243
3 244 263 262
3 244 344 263
3 244 431 344
3 246 253 245
3 253 523 245
3 245 523 329
3 250 251 246
3 251 528 246
3 246 528 253
3 247 429 248
3 249 252 247
3 252 429 247
3 248 333 332
3 248 353 333
3 248 429 353
3 249 321 252
3 249 336 321
3 249 471 336
3 250 254 251
3 250 457 254
3 444 457 250
3 254 255 251
3 255 362 251
3 362 528 251
3 321 346 252
3 346 347 252
3 347 429 252
3 377 514 253
3 253 528 377
3 514 523 253
3 254 256 255
3 254 258 256
3 254 457 258
3 256 257 255
3 257 459 255
3 255 459 362
3 256 260 257
3 258 525 256
3 256 525 260
3 260 261 257
3 261 277 257
3 277 459 257
3 422 423 258
3 258 544 422
3 423 525 258
3 457 544 258
3 259 461 408
3 408 519 259
3 259 519 444
3 260 308 261
3 260 320 308
3 260 525 320
3 261 318 277
3 308 510 261
3 261 510 318
3 263 441 262
3 262 265 264
3 262 441 265
3 344 472 263
3 263 465 441
3 263 472 465
3 265 266 264
3 266 339 264
3 339 463 264
3 265 267 266
3 265 268 267
3 265 441 268
3 267 550 266
3 266 361 339
3 266 550 361
3 268 269 267
3 269 494 267
3 494 550 267
3 268 270 269
3 268 433 270
3 268 441 433
3 270 271 269
3 271 273 269
3 273 494 269
3 270 272 271
3 270 296 272
3 270 433 296
3 272 438 271
3 271 274 273
3 271 438 274
3 296 314 272
3 314 330 272
3 330 438 272
3 274 275 273
3 275 520 273
3 273 520 494
3 274 276 275
3 274 278 276
3 274 438 278
3 276 317 275
3 317 368 275
3 368 520 275
3 278 279 276
3 279 458 276
3 276 458 317
3 318 319 277
3 319 490 277
3 277 490 459
3 278 280 279
3 278 430 280
3 278 438 430
3 280 281 279
3 281 283 279
3 283 458 279
3 280 282 281
3 280 460 282
3 430 460 280
3 282 284 281
3 281 476 283
3 284 476 281
3 282 285 284
3 282 286 285
3 282 460 286
3 445 458 283
3 283 534 445
3 476 534 283
3 285 506 284
3 284 540 476
3 506 540 284
3 286 287 285
3 287 299 285
3 299 506 285
3 286 288 287
3 286 466 288
3 460 466 286
3 288 289 287
3 289 435 287
3 287 435 299
3 288 290 289
3 288 291 290
3 288 466 291
3 290 297 289
3 297 298 289
3 298 435 289
3 291 292 290
3 292 454 290
3 290 454 297
3 291 293 292
3 291 467 293
3 466 467 291
3 293 294 292
3 294 309 292
3 309 454 292
3 293 295 294
3 293 470 295
3 467 470 293
3 295 300 294
3 300 455 294
3 294 455 309
3 295 301 300
3 295 487 301
3 470 487 295
3 296 342 314
3 296 396 342
3 296 433 396
3 297 310 298
3 297 334 310
3 297 454 334
3 310 311 298
3 311 322 298
3 322 435 298
3 299 402 371
3 371 506 299
3 299 435 402
3 301 302 300
3 302 316 300
3 316 455 300
3 301 303 302
3 301 305 303
3 301 487 305
3 303 304 302
3 304 452 302
3 302 452 316
3 303 453 304
3 305 306 303
3 306 453 303
3 446 448 304
3 304 453 446
3 448 452 304
3 305 307 306
3 305 400 307
3 305 487 400
3 307 312 306
3 312 315 306
3 315 453 306
3 307 313 312
3 307 397 313
3 307 400 397
3 320 363 308
3 363 551 308
3 308 551 510
3 309 464 454
3 455 456 309
3 456 464 309
3 310 442 311
3 334 335 310
3 335 442 310
3 311 323 322
3 311 325 323
3 311 442 325
3 313 331 312
3 312 409 315
3 331 409 312
3 313 340 331
3 313 341 340
3 313 397 341
3 314 345 330
3 342 401 314
3 314 401 345
3 409 410 315
3 410 411 315
3 411 453 315
3 452 527 316
3 316 483 455
3 316 527 483
3 317 380 368
3 317 515 380
3 458 515 317
3 318 354 319
3 318 395 354
3 318 510 395
3 354 547 319
3 319 521 490
3 319 547 521
3 320 492 363
3 320 423 420
3 420 492 320
3 320 525 423
3 336 377 321
3 321 542 346
3 377 542 321
3 323 324 322
3 324 402 322
3 402 435 322
3 323 416 324
3 325 326 323
3 326 416 323
3 324 511 402
3 416 473 324
3 473 511 324
3 325 327 326
3 325 389 327
3 325 442 389
3 327 338 326
3 338 350 326
3 350 416 326
3 327 374 338
3 327 552 374
3 389 552 327
3 328 391 384
3 384 436 328
3 328 477 391
3 329 509 477
3 498 509 329
3 329 523 498
3 345 351 330
3 351 430 330
3 430 438 330
3 340 491 331
3 331 415 409
3 331 491 415
3 333 343 332
3 343 469 332
3 332 469 437
3 333 356 343
3 353 445 333
3 333 445 356
3 334 348 335
3 334 464 348
3 454 464 334
3 348 349 335
3 349 370 335
3 370 442 335
3 336 514 377
3 336 471 386
3 386 514 336
3 337 498 375
3 337 427 390
3 390 498 337
3 338 352 350
3 338 532 352
3 374 532 338
3 361 504 339
3 462 463 339
3 339 504 462
3 341 472 340
3 472 478 340
3 478 491 340
3 341 397 396
3 396 465 341
3 465 472 341
3 396 397 342
3 397 400 342
3 400 401 342
3 356 357 343
3 357 475 343
3 343 475 469
3 431 468 344
3 468 478 344
3 344 478 472
3 345 467 351
3 401 470 345
3 345 470 467
3 346 490 347
3 459 490 346
3 346 542 459
3 380 429 347
3 347 521 380
3 490 521 347
3 348 529 349
3 464 481 348
3 481 529 348
3 349 388 370
3 349 505 388
3 349 529 505
3 352 522 350
3 350 417 416
3 350 522 417
3 351 460 430
3 351 466 460
3 351 467 466
3 352 512 443
3 443 522 352
3 352 532 512
3 353 429 380
3 380 515 353
3 353 515 445
3 395 494 354
3 494 520 354
3 520 547 354
3 399 513 355
3 355 538 461
3 513 538 355
3 356 358 357
3 356 534 358
3 445 534 356
3 358 359 357
3 359 360 357
3 360 475 357
3 358 364 359
3 358 476 364
3 358 534 476
3 359 432 360
3 364 365 359
3 365 432 359
3 360 474 428
3 428 475 360
3 432 474 360
3 395 510 361
3 361 550 395
3 361 551 504
3 510 551 361
3 377 528 362
3 362 542 377
3 459 542 362
3 492 524 363
3 363 524 504
3 504 551 363
3 364 366 365
3 364 540 366
3 476 540 364
3 366 367 365
3 367 484 365
3 365 484 432
3 366 371 367
3 366 506 371
3 366 540 506
3 371 372 367
3 372 373 367
3 373 484 367
3 380 521 368
3 368 547 520
3 521 547 368
3 369 539 384
3 394 530 369
3 530 539 369
3 389 442 370
3 371 511 372
3 402 511 371
3 372 480 373
3 473 480 372
3 372 511 473
3 373 479 387
3 387 484 373
3 373 480 479
3 489 531 374
3 374 552 489
3 375 514 386
3 498 523 375
3 375 523 514
3 376 516 378
3 376 530 516
3 376 539 530
3 516 546 378
3 379 545 381
3 526 545 379
3 381 545 399
3 383 509 390
3 391 509 383
3 386 471 385
3 390 509 498
3 477 509 391
3 392 533 393
3 393 546 392
3 392 546 516
3 395 550 494
3 433 465 396
3 398 513 399
3 400 487 401
3 401 487 470
3 404 407 403
3 405 406 404
3 406 408 404
3 404 408 407
3 405 422 406
3 418 421 405
3 421 422 405
3 406 519 408
3 422 544 406
3 406 544 519
3 408 538 407
3 407 538 513
3 461 538 408
3 409 493 410
3 415 493 409
3 410 412 411
3 410 496 412
3 493 496 410
3 412 413 411
3 413 446 411
3 446 453 411
3 412 414 413
3 412 499 414
3 496 499 412
3 414 500 413
3 413 447 446
3 413 500 447
3 499 503 414
3 414 541 500
3 503 541 414
3 415 491 434
3 434 495 415
3 415 495 493
3 417 473 416
3 417 508 473
3 417 549 508
3 522 549 417
3 419 492 420
3 420 423 421
3 421 423 422
3 462 524 424
3 426 437 425
3 437 469 425
3 441 465 433
3 508 549 439
3 440 499 496
3 444 519 457
3 445 515 458
3 447 448 446
3 447 449 448
3 447 548 449
3 500 548 447
3 449 450 448
3 450 452 448
3 449 517 450
3 488 517 449
3 449 548 488
3 451 527 450
3 450 527 452
3 507 518 451
3 518 527 451
3 455 483 456
3 456 481 464
3 456 482 481
3 456 483 482
3 519 544 457
3 504 524 462
3 473 508 480
3 482 543 481
3 481 543 529
3 483 518 482
3 486 543 482
3 483 527 518
3 51 553 3
3 3 553 56
3 52 553 51
3 53 553 52
3 54 553 53
3 55 553 54
3 56 553 55
4 71 205 70 595
4 431 571 570 578
4 557 580 251 583
4 563 564 177 565
4 70 205 568 595
4 252 249 572 580
4 431 570 563 578
4 26 396 564 570
4 251 557 528 580
4 557 579 385 580
4 386 557 385 580
4 73 557 204 579
4 71 556 205 595
4 468 24 563 570
4 317 380 515 561
4 251 557 254 589
4 317 561 368 594
4 556 572 249 580
4 554 564 563 565
4 179 563 598 599
4 346 252 572 580
4 204 557 73 588
4 556 568 205 595
4 71 579 556 595
4 396 465 433 570
4 73 204 72 579
4 528 557 251 589
4 205 568 556 597
4 249 252 321 580
4 71 205 556 579
4 249 572 556 595
4 431 468 563 570
4 380 515 561 582
4 385 579 557 590
4 396 433 564 570
4 386 385 557 590
4 266 550 562 587
4 556 580 249 595
4 244 570 431 571
4 346 572 556 580
4 550 584 562 587
4 431 344 468 570
4 465 396 341 570
4 357 560 475 578
4 216 73 72 579
4 385 216 579 590
4 321 252 346 580
4 357 475 360 578
4 468 478 24 570
4 177 564 563 570
4 317 380 561 594
4 528 557 377 580
4 509 586 559 592
4 26 564 180 570
4 357 576 560 578
4 563 564 554 570
4 380 582 561 594
4 357 360 574 578
4 73 588 557 590
4 353 585 582 594
4 69 568 188 593
4 390 586 509 592
4 71 70 190 595
4 176 563 177 565
4 509 559 383 592
4 258 557 254 583
4 254 557 258 589
4 563 565 176 598
4 244 344 431 570
4 530 566 539 567
4 357 343 475 560
4 420 557 204 588
4 225 226 566 567
4 390 509 383 592
4 357 574 576 578
4 204 557 420 579
4 251 528 362 580
4 390 383 200 592
4 568 581 188 593
4 202 559 77 566
4 317 368 380 594
4 176 177 564 565
4 557 588 258 589
4 394 78 566 567
4 558 586 390 592
4 572 585 429 594
4 556 572 346 601
4 383 559 200 592
4 368 561 584 594
4 77 559 215 566
4 357 343 560 576
4 394 566 530 567
4 272 270 271 573
4 202 513 559 566
4 232 559 231 566
4 202 77 398 566
4 262 571 265 577
4 179 563 176 598
4 519 586 558 592
4 519 558 406 592
4 361 584 550 587
4 385 579 471 580
4 258 588 544 589
4 420 579 557 583
4 569 584 395 587
4 476 574 565 596
4 226 229 566 567
4 476 576 574 596
4 346 580 556 601
4 265 571 562 577
4 25 26 180 570
4 202 398 513 566
4 186 77 215 566
4 225 226 227 566
4 270 573 564 577
4 353 429 585 594
4 564 570 433 577
4 328 391 559 566
4 272 564 270 573
4 490 572 569 601
4 195 566 78 567
4 390 558 498 586
4 431 468 65 563
4 229 539 566 567
4 573 577 270 591
4 344 478 468 570
4 386 385 471 580
4 431 563 65 578
4 544 588 558 589
4 471 580 579 595
4 563 574 565 598
4 554 561 560 562
4 281 476 565 596
4 545 399 195 567
4 353 429 248 585
4 570 571 263 577
4 390 427 337 558
4 27 26 296 564
4 225 566 230 567
4 296 26 396 564
4 570 571 554 578
4 266 361 550 587
4 218 571 67 581
4 557 589 514 590
4 390 427 558 592
4 263 571 262 577
4 67 571 560 581
4 78 394 79 567
4 271 573 270 591
4 198 567 516 575
4 328 559 232 566
4 263 570 244 571
4 490 346 572 601
4 343 469 475 593
4 225 230 381 567
4 406 558 405 592
4 188 581 568 587
4 471 579 235 595
4 420 204 421 588
4 343 475 560 593
4 264 339 562 581
4 471 385 235 579
4 457 544 558 589
4 232 233 231 559
4 519 457 544 558
4 569 572 490 594
4 526 379 567 575
4 329 558 245 586
4 563 570 554 578
4 554 562 560 571
4 545 381 399 567
4 221 224 567 575
4 266 562 339 587
4 492 205 419 579
4 399 566 195 567
4 432 563 574 578
4 554 565 563 574
4 386 234 385 590
4 361 395 584 587
4 78 79 195 567
4 355 231 559 566
4 264 339 266 562
4 423 258 557 588
4 519 408 586 592
4 346 459 580 601
4 406 558 544 588
4 432 574 360 578
4 427 558 74 590
4 264 562 242 581
4 187 563 32 599
4 221 567 222 575
4 218 201 67 571
4 381 566 399 567
4 396 433 296 564
4 230 566 381 567
4 281 283 476 596
4 276 274 561 596
4 242 562 264 571
4 560 576 343 582
4 353 248 582 585
4 406 405 404 592
4 283 576 476 596
4 74 558 203 588
4 423 557 420 588
4 369 539 530 566
4 176 564 178 565
4 492 579 420 583
4 361 569 395 587
4 519 406 408 592
4 574 598 563 599
4 395 550 361 584
4 562 581 339 587
4 460 280 282 565
4 265 562 268 577
4 561 582 555 594
4 242 562 571 581
4 560 571 67 578
4 27 296 314 564
4 468 24 1 563
4 429 572 248 585
4 519 444 457 558
4 433 570 465 577
4 423 557 258 583
4 357 360 359 574
4 279 280 278 565
4 274 573 561 596
4 561 555 584 594
4 267 268 265 562
4 233 259 461 586
4 203 405 558 592
4 427 74 558 592
4 258 544 457 589
4 560 582 343 593
4 444 558 240 589
4 177 176 179 563
4 222 567 220 575
4 519 544 406 558
4 342 27 26 296
4 267 268 562 591
4 240 558 245 589
4 457 558 444 589
4 420 557 423 583
4 514 377 557 580
4 275 276 274 561
4 240 245 558 586
4 275 368 561 584
4 513 355 559 566
4 223 215 559 566
4 80 567 198 575
4 67 571 201 578
4 268 577 562 591
4 369 530 394 566
4 223 559 391 566
4 561 562 554 591
4 221 224 222 567
4 432 474 563 578
4 318 354 395 569
4 534 574 476 576
4 426 236 568 585
4 514 557 386 580
4 203 558 405 588
4 317 275 368 561
4 498 558 329 586
4 427 337 558 590
4 234 216 385 590
4 275 561 274 591
4 233 461 559 586
4 444 558 519 586
4 498 390 337 558
4 203 558 74 592
4 560 561 555 562
4 80 526 567 575
4 280 565 460 600
4 222 379 220 567
4 509 390 498 586
4 274 561 573 591
4 66 67 201 578
4 426 437 236 585
4 542 346 459 580
4 514 386 557 590
4 514 589 253 590
4 328 384 391 566
4 441 263 262 577
4 516 567 378 575
4 318 354 569 594
4 68 69 188 593
4 471 249 580 595
4 523 253 589 590
4 240 558 444 586
4 445 561 515 582
4 354 584 569 594
4 559 586 408 592
4 432 574 563 599
4 354 395 569 584
4 459 583 580 601
4 223 186 215 566
4 278 565 280 600
4 320 492 583 597
4 258 254 256 583
4 405 558 406 588
4 296 342 27 314
4 426 568 425 585
4 232 237 233 559
4 497 567 224 575
4 329 509 498 586
4 379 220 567 575
4 432 359 360 574
4 423 420 421 588
4 249 247 572 595
4 236 568 585 595
4 283 534 476 576
4 526 214 379 575
4 561 576 445 596
4 176 177 178 564
4 177 563 24 570
4 562 571 554 577
4 263 244 262 571
4 428 475 560 578
4 71 190 579 595
4 353 582 380 594
4 64 65 468 563
4 231 233 461 559
4 465 341 472 570
4 278 573 565 600
4 425 568 69 593
4 67 581 560 593
4 568 425 585 593
4 378 567 497 575
4 562 577 554 591
4 523 589 558 590
4 458 515 445 561
4 64 468 1 563
4 461 355 231 559
4 282 284 30 598
4 202 403 76 559
4 582 585 332 593
4 244 263 344 570
4 428 360 475 578
4 380 353 515 582
4 558 588 74 590
4 318 319 354 594
4 427 74 185 590
4 188 568 424 587
4 498 558 337 590
4 76 200 559 592
4 582 585 555 594
4 445 576 561 582
4 362 580 459 583
4 538 513 355 559
4 270 564 433 577
4 232 328 237 559
4 76 77 202 559
4 270 296 433 564
4 278 280 430 600
4 236 585 243 595
4 428 560 67 578
4 76 215 77 559
4 76 200 215 559
4 320 260 308 601
4 458 561 445 596
4 523 245 329 558
4 282 565 284 598
4 262 242 264 571
4 68 188 581 593
4 67 68 581 593
4 230 225 227 566
4 281 565 279 596
4 538 461 408 559
4 258 422 544 588
4 426 425 437 585
4 281 284 282 565
4 255 362 459 583
4 403 76 559 592
4 472 341 25 570
4 226 229 436 566
4 187 432 474 563
4 221 497 224 575
4 426 69 425 568
4 275 273 520 584
4 255 256 254 583
4 228 497 378 567
4 272 573 438 600
4 516 392 198 575
4 441 262 265 577
4 418 74 203 588
4 431 65 66 578
4 555 581 568 593
4 319 277 490 569
4 492 419 420 579
4 188 69 424 568
4 361 510 395 569
4 249 241 247 595
4 243 585 572 595
4 320 597 583 601
4 177 180 564 570
4 432 360 474 578
4 562 584 555 587
4 320 583 260 601
4 555 584 569 587
4 245 558 523 589
4 320 308 597 601
4 272 564 573 600
4 565 574 554 596
4 187 1 32 563
4 215 200 383 559
4 314 27 564 600
4 80 214 526 575
4 227 232 231 566
4 357 356 343 576
4 555 561 560 582
4 272 314 564 600
4 408 407 559 592
4 226 436 227 566
4 67 560 191 593
4 428 191 67 560
4 252 249 247 572
4 550 267 562 584
4 233 559 237 586
4 336 386 471 580
4 203 404 405 592
4 441 465 263 570
4 318 569 319 594
4 319 569 490 594
4 247 243 572 595
4 538 355 461 559
4 460 282 29 565
4 477 559 509 586
4 444 240 250 589
4 462 587 424 597
4 538 408 407 559
4 343 576 356 582
4 441 465 570 577
4 247 241 243 595
4 426 568 236 595
4 277 490 569 601
4 242 571 218 581
4 259 519 408 586
4 279 281 280 565
4 282 30 29 598
4 264 463 339 581
4 247 243 248 572
4 574 576 554 596
4 384 223 391 566
4 568 581 555 587
4 424 587 568 597
4 560 561 554 576
4 441 570 263 577
4 78 186 394 566
4 328 232 436 566
4 29 460 565 600
4 472 478 344 570
4 296 272 314 564
4 457 254 258 589
4 554 571 570 577
4 524 462 424 597
4 490 572 347 594
4 390 200 427 592
4 64 187 65 563
4 428 475 191 560
4 282 29 565 598
4 243 248 572 585
4 427 75 74 592
4 284 565 281 598
4 71 419 205 579
4 477 237 328 559
4 26 396 342 296
4 188 424 462 587
4 228 224 497 567
4 65 563 474 578
4 385 217 235 579
4 70 205 424 568
4 476 565 574 598
4 74 588 73 590
4 523 558 498 590
4 237 559 477 586
4 275 274 273 591
4 458 317 515 561
4 422 406 544 588
4 198 392 80 575
4 272 271 438 573
4 259 444 519 586
4 230 399 381 566
4 202 407 403 559
4 64 1 187 563
4 376 539 229 567
4 560 562 555 581
4 432 563 187 599
4 178 177 180 564
4 378 376 228 567
4 424 568 205 597
4 187 474 65 563
4 523 329 498 558
4 419 204 420 579
4 191 560 475 593
4 218 242 201 571
4 67 68 218 581
4 490 346 347 572
4 484 187 32 599
4 406 404 408 592
4 217 579 190 595
4 270 272 296 564
4 240 239 245 586
4 178 565 564 600
4 550 494 267 584
4 275 520 368 584
4 276 275 317 561
4 221 222 220 575
4 538 407 513 559
4 498 337 375 590
4 378 516 376 567
4 427 185 337 590
4 555 562 561 584
4 357 574 358 576
4 320 492 420 583
4 407 403 559 592
4 407 202 513 559
4 280 460 430 600
4 319 318 277 569
4 261 510 308 569
4 391 477 328 559
4 67 191 68 593
4 534 358 574 576
4 248 332 333 585
4 27 180 26 564
4 477 391 509 559
4 261 569 308 601
4 1 32 387 187
4 353 380 429 594
4 457 444 250 589
4 77 186 78 566
4 272 330 314 600
4 542 321 346 580
4 281 282 280 565
4 551 510 361 569
4 236 437 243 585
4 418 73 74 588
4 217 71 190 579
4 239 329 245 586
4 235 579 217 595
4 257 255 459 583
4 525 423 258 583
4 568 569 555 572
4 569 597 308 601
4 270 577 268 591
4 395 510 318 569
4 77 78 398 566
4 248 333 582 585
4 264 242 463 581
4 441 433 465 577
4 376 530 539 567
4 423 422 258 588
4 358 357 359 574
4 572 585 568 595
4 551 569 361 587
4 579 580 556 595
4 227 436 232 566
4 534 358 476 574
4 569 572 556 601
4 191 475 469 593
4 308 569 551 597
4 66 428 67 578
4 438 573 278 600
4 240 245 246 589
4 476 281 565 598
4 430 438 278 600
4 523 498 375 590
4 201 244 431 571
4 195 398 78 566
4 177 25 180 570
4 422 405 406 588
4 332 582 333 585
4 510 551 308 569
4 359 574 432 599
4 472 25 340 478
4 418 203 405 588
4 583 597 556 601
4 32 387 187 484
4 229 226 228 567
4 580 583 556 601
4 354 319 547 594
4 385 216 217 579
4 276 317 458 561
4 560 576 554 578
4 419 72 204 579
4 257 583 459 601
4 235 217 190 595
4 554 570 564 577
4 555 581 562 587
4 551 569 587 597
4 564 565 554 573
4 215 383 223 559
4 186 369 394 566
4 554 576 574 578
4 269 270 268 591
4 267 269 268 591
4 177 24 25 570
4 391 383 509 559
4 189 24 1 468
4 179 32 563 599
4 561 554 573 591
4 554 573 565 596
4 561 573 554 596
4 514 386 336 580
4 203 74 75 592
4 376 229 228 567
4 560 571 562 581
4 528 377 362 580
4 525 258 256 583
4 233 237 238 586
4 539 384 229 566
4 362 542 459 580
4 233 238 259 586
4 266 339 361 587
4 276 561 458 596
4 185 74 73 590
4 281 279 283 596
4 336 471 249 580
4 391 223 383 559
4 188 463 581 587
4 269 267 494 591
4 471 241 249 595
4 346 252 347 572
4 264 266 265 562
4 24 177 1 563
4 494 584 273 591
4 230 227 231 566
4 514 375 386 590
4 359 365 574 599
4 530 376 516 567
4 387 64 1 187
4 253 245 523 589
4 379 214 220 575
4 339 581 463 587
4 556 569 568 572
4 564 573 554 577
4 25 24 340 478
4 188 462 463 587
4 476 284 281 598
4 195 399 398 566
4 354 547 584 594
4 490 459 346 601
4 267 265 266 562
4 568 572 555 585
4 555 568 585 593
4 560 554 571 578
4 569 584 555 594
4 314 330 27 600
4 1 64 189 468
4 266 550 267 562
4 468 189 24 478
4 240 444 238 586
4 513 398 399 566
4 190 426 236 595
4 572 555 585 594
4 524 424 205 597
4 441 265 268 577
4 200 75 427 592
4 328 436 384 566
4 516 378 546 575
4 65 474 66 578
4 355 513 399 566
4 364 359 365 574
4 561 554 576 596
4 366 598 365 599
4 68 425 69 593
4 359 432 365 599
4 332 343 333 582
4 318 569 261 601
4 238 444 259 586
4 554 574 563 578
4 198 79 394 567
4 224 226 225 567
4 418 204 73 588
4 364 574 365 599
4 329 477 509 586
4 355 230 231 566
4 195 526 545 567
4 579 580 557 583
4 228 226 224 567
4 353 248 333 582
4 277 569 318 601
4 274 573 271 591
4 504 587 462 597
4 195 79 526 567
4 547 368 584 594
4 530 516 198 567
4 551 587 504 597
4 429 247 248 572
4 561 576 560 582
4 554 577 573 591
4 29 565 178 600
4 437 585 425 593
4 277 318 261 601
4 445 356 576 582
4 384 436 229 566
4 364 365 598 599
4 504 462 524 597
4 364 365 366 598
4 253 246 245 589
4 555 572 569 594
4 80 79 198 567
4 318 510 261 569
4 70 69 426 568
4 198 394 530 567
4 269 271 270 591
4 30 282 285 284
4 526 79 80 567
4 555 569 568 587
4 207 219 553 575
4 561 584 562 591
4 217 216 72 579
4 460 351 430 600
4 283 445 576 596
4 207 553 382 575
4 553 393 211 575
4 1 179 32 563
4 568 569 556 597
4 533 393 553 575
4 555 582 560 593
4 333 343 356 582
4 222 224 225 567
4 76 75 200 592
4 560 581 555 593
4 521 490 347 594
4 540 366 30 598
4 320 420 423 583
4 535 81 553 575
4 535 553 219 575
4 29 28 460 600
4 520 547 368 584
4 408 404 407 592
4 27 330 28 600
4 70 424 69 568
4 539 369 384 566
4 484 432 187 599
4 534 283 445 576
4 460 28 351 600
4 469 437 425 593
4 476 574 364 598
4 364 598 574 599
4 241 236 243 595
4 263 465 472 570
4 556 572 568 595
4 27 28 330 345
4 463 242 218 581
4 27 178 564 600
4 472 344 263 570
4 230 355 399 566
4 272 438 330 600
4 556 580 579 583
4 177 179 1 563
4 308 363 320 597
4 239 237 477 586
4 211 382 553 575
4 521 319 490 594
4 525 320 423 583
4 336 249 321 580
4 565 573 564 600
4 533 553 81 575
4 347 572 429 594
4 270 433 268 577
4 110 112 310 108
4 178 180 27 564
4 375 234 386 590
4 242 262 244 571
4 381 222 225 567
4 261 308 260 601
4 516 546 392 575
4 397 396 26 341
4 274 271 273 591
4 186 223 369 566
4 107 289 151 290
4 239 477 329 586
4 185 73 216 590
4 250 240 246 589
4 250 251 254 589
4 30 540 506 366
4 297 289 151 107
4 520 273 494 584
4 297 289 107 290
4 588 589 557 590
4 290 105 107 454
4 257 256 255 583
4 269 494 273 591
4 445 515 353 582
4 30 176 29 598
4 188 218 68 581
4 423 421 422 588
4 176 565 29 598
4 524 205 492 597
4 445 333 356 582
4 159 435 287 171
4 240 238 239 586
4 457 250 254 589
4 289 287 435 171
4 553 53 207 382
4 274 438 271 573
4 276 279 278 596
4 358 364 476 574
4 292 105 290 454
4 363 492 320 597
4 211 553 55 393
4 384 369 223 566
4 176 178 29 565
4 553 207 52 219
4 106 334 108 107
4 117 446 101 116
4 356 357 358 576
4 112 310 335 110
4 8 9 61 495
4 97 409 331 162
4 382 553 54 211
4 558 589 588 590
4 555 585 582 593
4 81 553 3 535
4 526 379 545 567
4 257 260 583 601
4 107 106 334 454
4 298 435 115 151
4 242 244 201 571
4 474 360 428 578
4 112 335 310 108
4 9 8 147 495
4 381 379 222 567
4 113 326 416 323
4 421 204 418 588
4 312 97 409 331
4 29 178 28 600
4 545 379 381 567
4 246 253 528 589
4 98 90 307 400
4 401 27 26 342
4 446 453 101 116
4 380 347 429 594
4 308 551 363 597
4 113 122 115 324
4 493 410 496 84
4 330 314 27 345
4 395 494 550 584
4 312 313 90 96
4 107 119 105 290
4 462 339 463 587
4 103 100 300 301
4 297 109 108 107
4 283 458 445 596
4 300 100 102 301
4 3 553 81 533
4 284 540 30 598
4 568 587 569 597
4 401 26 126 342
4 238 237 239 586
4 179 598 31 599
4 109 310 297 108
4 403 75 76 592
4 85 161 165 508
4 303 98 100 99
4 303 306 98 99
4 100 102 103 300
4 363 551 504 597
4 326 129 113 416
4 455 102 316 300
4 72 419 71 579
4 246 528 251 589
4 471 235 241 595
4 63 189 434 170
4 316 102 146 302
4 27 26 126 401
4 243 332 248 585
4 109 297 151 107
4 109 297 298 151
4 302 102 100 301
4 335 334 108 141
4 514 336 377 580
4 433 441 268 577
4 400 126 26 342
4 162 331 97 96
4 151 119 107 290
4 90 98 126 400
4 434 62 10 94
4 10 62 479 153
4 323 113 115 324
4 302 300 102 301
4 400 401 126 342
4 304 146 448 117
4 298 435 322 115
4 330 28 351 345
4 108 112 335 141
4 102 104 455 316
4 278 438 274 573
4 206 60 7 439
4 429 252 247 572
4 453 101 304 446
4 479 387 63 169
4 507 194 149 181
4 446 101 304 117
4 397 90 26 400
4 97 312 90 96
4 146 452 316 302
4 146 101 304 302
4 257 260 256 583
4 282 29 30 285
4 367 484 32 599
4 303 101 100 302
4 413 500 414 163
4 102 455 104 300
4 86 132 291 467
4 291 123 86 467
4 115 322 109 113
4 132 293 291 467
4 122 113 323 324
4 472 340 25 341
4 188 463 218 581
4 292 105 119 290
4 60 8 7 439
4 485 35 12 183
4 57 4 5 502
4 57 5 4 213
4 98 307 305 400
4 106 309 104 144
4 338 326 114 327
4 439 7 206 85
4 397 26 25 341
4 61 439 192 161
4 456 464 106 309
4 474 428 66 578
4 305 98 126 487
4 445 353 333 582
4 415 170 491 96
4 500 413 172 163
4 30 366 31 598
4 136 5 4 502
4 535 553 51 219
4 303 98 306 305
4 313 312 331 96
4 10 63 434 170
4 479 62 192 153
4 322 311 109 113
4 309 106 456 144
4 217 72 71 579
4 183 199 13 92
4 439 8 7 85
4 15 149 194 181
4 165 549 85 508
4 481 464 141 144
4 470 126 487 401
4 502 89 5 210
4 9 61 192 161
4 323 115 322 324
4 366 31 598 599
4 540 284 30 506
4 429 347 252 572
4 161 85 439 508
4 540 364 366 598
4 102 111 104 316
4 94 434 62 495
4 378 211 546 575
4 334 297 108 107
4 62 9 10 94
4 334 335 348 141
4 62 10 9 153
4 91 156 5 213
4 111 455 104 316
4 445 356 534 576
4 103 104 294 300
4 28 330 351 600
4 111 104 455 144
4 533 56 553 393
4 212 503 137 136
4 100 98 303 305
4 35 485 199 183
4 89 6 5 210
4 106 464 456 144
4 534 356 358 576
4 44 182 505 154
4 288 171 289 290
4 106 108 334 141
4 16 40 507 181
4 417 129 85 522
4 250 246 251 589
4 101 146 102 302
4 183 12 485 92
4 476 364 540 598
4 148 470 126 487
4 507 149 16 181
4 287 286 88 288
4 334 464 106 141
4 192 62 9 153
4 156 4 5 213
4 499 496 412 157
4 335 442 112 110
4 119 151 289 290
4 334 297 107 454
4 487 126 305 400
4 439 61 8 161
4 312 97 331 96
4 109 298 115 151
4 307 98 306 97
4 185 216 234 590
4 365 484 367 599
4 24 340 491 96
4 118 411 446 116
4 410 493 135 84
4 101 102 100 302
4 149 168 194 451
4 260 320 525 583
4 479 63 10 169
4 500 413 120 172
4 442 335 310 110
4 315 306 99 97
4 62 9 94 495
4 446 117 118 116
4 99 453 315 116
4 182 44 19 154
4 104 309 456 144
4 85 549 417 522
4 153 161 192 508
4 115 435 159 151
4 326 114 130 338
4 397 307 90 400
4 91 156 213 512
4 18 43 182 505
4 407 404 403 592
4 90 126 26 400
4 453 303 101 99
4 490 277 459 601
4 159 402 435 115
4 162 415 331 96
4 305 100 148 301
4 366 365 31 599
4 142 529 348 481
4 485 199 183 92
4 305 126 98 400
4 312 307 306 97
4 363 524 492 597
4 340 313 331 96
4 556 597 569 601
4 452 111 146 316
4 358 359 364 574
4 437 332 243 585
4 109 298 322 115
4 104 455 294 300
4 111 455 483 144
4 147 135 493 84
4 136 4 174 537
4 551 361 504 587
4 300 295 103 301
4 415 170 96 94
4 315 312 97 409
4 56 55 553 393
4 331 409 415 162
4 331 491 340 96
4 466 460 28 351
4 184 531 48 208
4 183 199 36 488
4 331 415 491 96
4 122 113 416 323
4 105 106 454 309
4 157 499 496 145
4 171 151 289 119
4 48 22 184 208
4 117 413 446 118
4 13 199 183 488
4 136 89 5 502
4 55 54 553 211
4 173 456 481 144
4 448 146 121 117
4 118 120 413 163
4 298 322 311 109
4 113 114 129 326
4 430 351 330 600
4 365 432 484 599
4 179 176 31 598
4 140 529 348 142
4 348 141 142 481
4 549 165 417 508
4 413 411 446 118
4 111 102 146 316
4 348 112 335 140
4 119 289 171 290
4 298 310 297 109
4 294 105 309 104
4 61 9 8 161
4 85 549 439 508
4 297 289 298 151
4 121 160 146 452
4 476 540 284 598
4 141 140 348 142
4 287 286 285 88
4 211 393 546 575
4 101 146 304 117
4 6 443 206 134
4 392 81 80 575
4 410 315 411 135
4 114 131 338 327
4 402 322 435 115
4 111 146 160 527
4 98 100 148 305
4 221 207 382 575
4 88 159 287 171
4 334 297 310 108
4 54 53 553 382
4 470 86 126 401
4 303 100 101 99
4 456 455 309 104
4 306 315 312 97
4 88 286 123 288
4 397 25 90 313
4 163 499 412 157
4 401 86 27 345
4 147 415 94 495
4 542 362 377 580
4 130 129 326 350
4 116 411 315 135
4 106 464 334 454
4 175 83 168 450
4 378 497 211 575
4 486 17 41 209
4 116 410 411 135
4 58 6 5 91
4 191 425 68 593
4 323 416 122 324
4 173 481 142 144
4 470 86 401 345
4 446 304 448 117
4 147 493 415 495
4 393 392 546 575
4 363 504 524 597
4 348 335 112 141
4 303 304 101 302
4 207 52 53 553
4 350 130 134 522
4 311 310 109 110
4 330 438 430 600
4 464 481 456 144
4 269 273 271 591
4 160 121 450 452
4 203 75 403 592
4 122 113 129 416
4 105 106 107 454
4 142 82 529 543
4 287 299 435 159
4 203 403 404 592
4 342 401 27 314
4 553 52 51 219
4 405 421 418 588
4 313 90 307 312
4 146 304 452 302
4 506 30 31 128
4 129 134 85 522
4 452 160 146 527
4 141 142 481 144
4 448 121 146 452
4 4 136 502 537
4 299 285 30 88
4 450 83 168 194
4 305 303 100 301
4 456 483 455 144
4 183 36 13 488
4 313 340 25 96
4 39 194 507 181
4 157 496 410 84
4 171 287 88 288
4 81 214 80 575
4 26 25 90 397
4 221 220 207 575
4 126 86 470 148
4 511 93 128 371
4 98 148 126 487
4 96 162 415 94
4 288 119 171 290
4 139 388 349 154
4 7 6 206 134
4 337 185 234 590
4 129 417 350 522
4 104 103 102 300
4 312 90 307 97
4 443 6 91 134
4 453 411 315 116
4 148 98 305 487
4 310 109 110 108
4 193 529 505 82
4 113 115 322 323
4 169 479 387 373
4 162 493 415 147
4 220 219 207 575
4 91 5 58 213
4 257 261 260 601
4 520 354 547 584
4 104 294 105 103
4 411 413 412 118
4 506 31 30 366
4 351 28 466 467
4 191 469 425 593
4 361 339 504 587
4 454 292 105 309
4 10 62 63 479
4 31 365 367 599
4 140 348 112 141
4 114 131 130 338
4 434 170 491 415
4 63 62 10 434
4 488 548 127 92
4 209 486 17 143
4 287 299 159 88
4 57 0 4 537
4 453 306 303 99
4 194 39 15 181
4 28 29 460 466
4 219 220 214 575
4 136 137 212 155
4 148 103 295 301
4 172 413 120 163
4 405 422 421 588
4 349 335 112 140
4 134 129 350 522
4 302 100 303 301
4 174 4 0 537
4 49 23 95 501
4 90 98 307 97
4 375 337 234 590
4 148 305 301 487
4 503 89 136 502
4 94 162 415 147
4 219 214 535 575
4 137 503 89 136
4 505 182 18 154
4 189 434 170 491
4 467 351 28 345
4 387 32 169 373
4 450 121 448 452
4 522 130 134 352
4 171 289 287 288
4 340 24 25 96
4 57 4 0 536
4 126 86 27 401
4 89 503 499 210
4 129 130 134 350
4 157 163 499 145
4 115 402 322 324
4 146 111 452 527
4 464 106 141 144
4 103 148 100 301
4 189 63 1 170
4 104 456 455 144
4 26 396 397 342
4 553 3 56 533
4 132 291 123 86
4 51 3 553 535
4 292 105 294 132
4 113 114 326 323
4 522 350 130 352
4 256 260 525 583
4 152 166 87 552
4 110 311 325 113
4 335 349 348 140
4 145 89 499 210
4 4 156 167 213
4 411 453 446 116
4 172 414 500 163
4 541 212 503 137
4 196 60 84 440
4 119 292 291 132
4 397 25 313 341
4 168 160 450 451
4 124 93 128 511
4 114 130 129 326
4 547 521 368 594
4 304 448 146 452
4 293 291 292 132
4 382 497 221 575
4 154 505 529 82
4 291 119 288 290
4 338 130 326 350
4 211 497 382 575
4 531 87 21 489
4 387 1 63 169
4 235 190 236 595
4 112 370 349 139
4 367 32 31 599
4 349 112 139 140
4 152 531 184 208
4 168 149 150 451
4 501 156 95 512
4 365 366 31 367
4 58 6 91 443
4 293 292 294 132
4 285 286 29 88
4 116 411 410 157
4 209 518 149 507
4 169 479 373 480
4 309 105 106 104
4 373 93 169 480
4 453 315 306 99
4 128 299 30 88
4 377 336 321 580
4 527 111 452 316
4 370 349 335 112
4 402 115 124 324
4 57 4 502 537
4 161 153 125 508
4 184 22 152 208
4 290 107 297 454
4 400 26 397 342
4 168 450 194 451
4 18 43 505 193
4 294 309 455 104
4 114 325 138 327
4 61 62 9 192
4 482 456 481 173
4 505 18 193 82
4 10 479 169 153
4 533 392 393 575
4 289 435 298 151
4 93 32 367 373
4 309 292 105 294
4 167 536 4 213
4 500 447 548 120
4 160 168 150 451
4 303 101 304 453
4 47 21 531 184
4 49 23 22 95
4 293 132 86 467
4 322 311 113 323
4 467 28 86 345
4 85 439 8 161
4 117 120 413 118
4 132 293 470 295
4 82 529 140 142
4 147 493 495 196
4 470 293 86 467
4 172 541 414 137
4 149 16 209 507
4 543 142 82 143
4 409 493 415 162
4 31 506 128 371
4 123 466 28 467
4 348 464 334 141
4 6 89 145 210
4 30 506 299 128
4 90 307 397 313
4 548 488 199 92
4 133 130 338 352
4 536 57 4 213
4 354 494 395 584
4 84 60 7 440
4 123 171 88 288
4 130 91 134 352
4 8 61 60 196
4 60 61 8 439
4 135 315 97 409
4 156 91 133 512
4 295 470 148 487
4 287 285 299 88
4 99 101 453 116
4 192 153 508 480
4 103 294 132 295
4 520 494 354 584
4 368 521 380 594
4 141 348 464 481
4 93 153 169 480
4 335 334 310 108
4 486 543 82 143
4 149 168 83 194
4 163 503 499 89
4 140 139 349 154
4 518 150 149 451
4 454 106 464 309
4 27 28 178 600
4 434 170 415 94
4 91 133 512 352
4 24 340 478 491
4 295 470 132 148
4 319 521 547 594
4 388 45 19 158
4 120 413 446 117
4 31 176 30 598
4 338 131 133 532
4 145 499 496 440
4 154 529 140 82
4 147 94 9 495
4 63 10 1 170
4 157 410 135 84
4 285 29 30 88
4 503 89 502 210
4 284 285 30 506
4 161 192 9 153
4 548 127 92 172
4 42 193 82 486
4 298 311 310 109
4 479 169 153 480
4 307 306 98 305
4 17 16 41 209
4 170 24 189 491
4 299 402 159 128
4 507 518 149 451
4 500 413 447 120
4 352 338 133 532
4 84 8 60 196
4 137 541 212 155
4 380 521 347 594
4 9 62 61 495
4 99 306 98 97
4 120 446 448 117
4 110 109 311 113
4 449 448 121 447
4 325 389 138 327
4 295 103 294 300
4 119 291 292 290
4 505 388 44 154
4 137 172 541 155
4 131 114 138 327
4 212 503 136 502
4 132 105 294 103
4 25 90 313 96
4 29 282 286 285
4 536 4 0 167
4 129 85 165 417
4 449 175 121 450
4 286 466 123 288
4 511 125 372 473
4 416 129 165 417
4 373 387 32 484
4 170 434 10 94
4 535 214 81 575
4 121 448 449 450
4 412 411 118 157
4 440 145 499 210
4 21 47 531 489
4 116 315 99 135
4 128 159 299 88
4 158 388 197 139
4 81 392 533 575
4 388 19 44 154
4 197 46 20 87
4 294 293 132 295
4 32 367 373 484
4 17 16 209 143
4 507 149 194 451
4 241 235 236 595
4 133 95 156 512
4 171 123 119 288
4 257 459 277 601
4 447 446 448 120
4 159 402 115 124
4 16 40 209 507
4 57 2 0 537
4 164 488 127 92
4 84 496 493 196
4 128 506 299 371
4 122 124 115 324
4 158 197 20 87
4 130 133 91 352
4 481 142 529 543
4 119 123 291 288
4 416 326 129 350
4 175 83 450 517
4 518 209 149 143
4 326 114 325 323
4 94 415 434 495
4 300 102 316 302
4 413 446 447 120
4 85 7 206 134
4 324 122 124 473
4 442 370 112 138
4 314 401 27 345
4 443 59 6 206
4 163 172 414 137
4 377 321 542 580
4 113 311 325 323
4 113 325 110 114
4 124 125 511 473
4 482 142 543 143
4 165 122 416 473
4 135 493 410 409
4 460 29 286 466
4 18 505 154 82
4 0 2 57 536
4 28 27 86 345
4 299 402 435 159
4 409 135 493 162
4 541 414 500 172
4 136 174 212 537
4 478 189 24 491
4 120 548 500 172
4 165 122 129 416
4 417 165 416 473
4 131 152 374 552
4 85 549 165 417
4 59 145 440 210
4 439 192 161 508
4 15 14 38 83
4 199 485 541 92
4 36 35 199 183
4 149 150 518 143
4 20 45 197 158
4 482 481 142 173
4 504 339 462 587
4 152 131 166 552
4 44 45 19 388
4 140 505 529 154
4 7 8 60 84
4 1 10 63 169
4 491 170 24 96
4 493 147 84 196
4 95 22 49 208
4 97 99 315 135
4 95 23 167 501
4 213 156 501 512
4 485 541 92 155
4 111 483 455 316
4 119 291 123 132
4 529 349 505 140
4 12 34 35 485
4 483 456 173 144
4 137 503 163 89
4 92 199 548 172
4 82 193 529 543
4 193 18 42 82
4 119 105 292 132
4 505 349 388 154
4 87 46 21 489
4 123 291 466 467
4 388 349 370 139
4 531 152 87 489
4 543 486 482 143
4 310 311 442 110
4 114 113 325 323
4 83 450 517 194
4 371 31 506 366
4 12 34 485 155
4 374 133 131 532
4 402 159 128 124
4 325 138 110 114
4 488 13 199 92
4 130 131 133 338
4 11 33 212 174
4 138 112 442 110
4 503 499 414 163
4 139 158 388 154
4 58 91 213 443
4 173 111 483 144
4 83 14 38 517
4 126 487 401 400
4 95 167 156 501
4 511 372 93 371
4 21 20 46 87
4 443 91 213 512
4 145 59 6 210
4 58 5 6 210
4 449 164 175 517
4 43 18 42 193
4 149 209 16 143
4 387 32 1 169
4 138 442 325 110
4 164 13 488 92
4 88 286 29 123
4 456 482 483 173
4 158 19 388 154
4 82 17 42 486
4 153 93 125 480
4 501 95 49 208
4 414 503 163 137
4 279 276 458 596
4 15 149 83 194
4 38 15 83 194
4 350 338 130 352
4 412 118 163 157
4 86 123 28 467
4 411 412 410 157
4 499 412 414 163
4 439 206 549 85
4 135 116 410 157
4 370 197 388 139
4 83 175 164 517
4 212 34 11 155
4 14 83 164 517
4 197 45 388 158
4 257 277 261 601
4 20 19 45 158
4 86 132 470 148
4 162 135 493 147
4 508 153 125 480
4 92 541 199 172
4 58 5 57 213
4 97 135 409 162
4 93 169 32 373
4 486 82 17 143
4 152 87 21 531
4 325 389 442 138
4 301 295 148 487
4 172 92 541 155
4 506 285 30 299
4 372 125 93 480
4 501 167 156 213
4 174 33 212 537
4 87 197 46 489
4 5 58 502 210
4 286 282 29 460
4 58 57 5 502
4 503 414 541 137
4 174 212 11 155
4 21 152 531 184
4 502 136 212 537
4 511 128 402 371
4 6 58 59 443
4 467 86 470 345
4 133 95 512 208
4 299 402 128 371
4 34 12 11 155
4 7 6 59 206
4 116 118 411 157
4 125 372 473 480
4 470 293 132 86
4 536 0 50 167
4 150 111 483 173
4 175 168 160 450
4 0 33 174 537
4 89 499 163 145
4 500 199 541 172
4 120 448 121 117
4 139 112 370 138
4 95 133 152 208
4 131 338 374 532
4 313 25 340 341
4 451 160 450 527
4 47 21 46 489
4 166 138 389 327
4 160 150 111 527
4 189 1 24 170
4 138 166 131 327
4 145 7 59 440
4 153 192 479 480
4 541 485 212 155
4 133 512 352 532
4 124 128 402 511
4 121 449 447 120
4 335 442 370 112
4 447 548 120 127
4 37 14 164 517
4 549 85 134 522
4 175 164 449 127
4 511 324 124 473
4 349 505 140 154
4 84 147 8 196
4 371 372 31 367
4 374 152 133 532
4 150 160 451 527
4 182 43 44 505
4 452 450 160 527
4 63 64 1 387
4 208 133 152 532
4 496 84 145 440
4 466 29 286 123
4 125 124 122 473
4 447 448 121 120
4 410 412 496 157
4 20 45 46 197
4 93 32 31 367
4 84 496 196 440
4 16 40 41 209
4 212 174 136 155
4 0 23 50 167
4 85 206 549 134
4 199 500 548 172
4 548 120 127 172
4 483 111 150 527
4 417 416 129 350
4 134 206 549 522
4 372 31 93 371
4 31 128 93 371
4 167 23 50 501
4 152 133 131 374
4 507 40 39 181
4 410 315 135 409
4 212 485 34 155
4 15 38 39 194
4 1 64 63 189
4 6 7 59 145
4 22 48 49 208
4 311 325 442 110
4 150 483 518 173
4 28 29 466 123
4 372 93 31 367
4 208 512 133 532
4 482 518 483 173
4 501 536 167 213
4 167 50 536 501
4 179 31 32 599
4 450 449 175 517
4 34 11 33 212
4 283 279 458 596
4 466 291 123 288
4 33 11 0 174
4 473 417 165 508
4 164 37 517 488
4 518 150 173 143
4 164 13 37 488
4 121 449 120 127
4 449 121 175 127
4 38 83 517 194
4 324 416 122 473
4 13 36 37 488
4 370 389 197 139
4 17 42 18 82
4 49 50 23 501
4 60 59 7 440
4 160 121 175 450
4 326 325 114 327
4 92 12 485 155
4 173 482 518 143
4 152 22 95 208
4 33 0 2 537
4 84 157 496 145
4 367 372 93 373
4 152 531 374 489
4 370 442 389 138
4 2 0 50 536
4 543 82 193 486
4 451 518 150 527
4 7 59 60 206
4 161 125 165 508
4 120 449 447 127
4 543 481 142 482
4 13 37 14 164
4 517 449 164 488
4 295 132 103 148
4 518 483 150 527
4 145 84 7 440
4 522 134 443 352
4 512 443 91 352
4 374 338 131 327
4 197 158 139 166
4 91 443 134 352
4 529 348 349 140
4 197 158 166 87
4 139 389 197 166
4 209 482 486 143
4 389 166 327 552
4 95 501 512 208
4 134 443 206 522
4 482 209 518 143
4 14 37 38 517
4 366 371 31 367
4 373 372 93 480
4 152 374 208 532
4 15 16 149 181
4 139 370 389 138
4 324 124 402 511
4 173 142 482 143
4 374 531 152 208
4 17 41 42 486
4 548 447 449 127
4 531 48 47 184
4 327 166 131 552
4 488 449 164 127
4 473 165 125 508
4 122 165 125 473
4 508 125 473 480
4 59 58 6 210
4 152 21 22 184
4 449 488 548 127
4 483 111 527 316
4 19 18 182 154
4 138 389 139 166
4 131 374 327 552
4 183 13 12 92
4 166 389 197 552
4 583 251 254 255
4 583 254 251 557
4 579 590 73 557
4 73 590 579 216
4 583 362 251 255
4 583 251 362 580
4 556 205 492 579
4 492 205 556 597
4 492 583 556 579
4 556 583 492 597
4 571 265 264 262
4 571 264 265 562
4 586 461 408 259
4 586 408 461 559
4 596 278 565 279
4 596 565 278 573
4 343 593 332 469
4 332 593 343 582
4 557 377 589 528
4 557 589 377 514
4 253 589 377 528
4 253 377 589 514
4 596 274 278 276
4 596 278 274 573
4 591 275 584 273
4 591 584 275 561
4 332 593 437 469
4 437 593 332 585
4 70 595 426 190
4 426 595 70 568
4 341 26 570 396
4 341 570 26 25
4 584 267 591 494
4 584 591 267 562
4 201 578 431 66
4 431 578 201 571
4 25 478 570 24
4 570 478 25 472
4 514 523 590 253
4 514 590 523 375
4 171 435 151 159
4 171 151 435 289
4 8 495 196 147
4 196 495 8 61
4 413 163 412 118
4 412 163 413 414
4 152 552 489 374
4 489 552 152 87
4 511 93 125 124
4 511 125 93 372
4 87 552 197 489
4 197 552 87 166

CELL_TYPES 3011
1
1
1
1
3
3
3
3
3
3
3
3
3
3
3
3
3
3
3
3
3
3
3
3
3
3
3
3
3
3
3
3
3
3
3
3
3
3
3
3
3
3
3
3
3
3
3
3
3
3
3
3
3
3
3
3
3
3
3
3
3
3
3
3
3
3
3
3
3
3
3
3
3
3
3
3
3
3
3
3
3
3
3
3
3
3
3
3
5
5
5
5
5
5
5
5
5
5
5
5
5
5
5
5
5
5
5
5
5
5
5
5
5
5
5
5
5
5
5
5
5
5
5
5
5
5
5
5
5
5
5
5
5
5
5
5
5
5
5
5
5
5
5
5
5
5
5
5
5
5
5
5
5
5
5
5
5
5
5
5
5
5
5
5
5
5
5
5
5
5
5
5
5
5
5
5
5
5
5
5
5
5
5
5
5
5
5
5
5
5
5
5
5
5
5
5
5
5
5
5
5
5
5
5
5
5
5
5
5
5
5
5
5
5
5
5
5
5
5
5
5
5
5
5
5
5
5
5
5
5
5
5
5
5
5
5
5
5
5
5
5
5
5
5
5
5
5
5
5
5
5
5
5
5
5
5
5
5
5
5
5
5
5
5
5
5
5
5
5
5
5
5
5
5
5
5
5
5
5
5
5
5
5
5
5
5
5
5
5
5
5
5
5
5
5
5
5
5
5
5
5
5
5
5
5
5
5
5
5
5
5
5
5
5
5
5
5
5
5
5
5
5
5
5
5
5
5
5
5
5
5
5
5
5
5
5
5
5
5
5
5
5
5
5
5
5
5
5
5
5
5
5
5
5
5
5
5
5
5
5
5
5
5
5
5
5
5
5
5
5
5
5
5
5
5
5
5
5
5
5
5
5
5
5
5
5
5
5
5
5
5
5
5
5
5
5
5
5
5
5
5
5
5
5
5
5
5
5
5
5
5
5
5
5
5
5
5
5
5
5
5
5
5
5
5
5
5
5
5
5
5
5
5
5
5
5
5
5
5
5
5
5
5
5
5
5
5
5
5
5
5
5
5
5
5
5
5
5
5
5
5
5
5
5
5
5
5
5
5
5
5
5
5
5
5
5
5
5
5
5
5
5
5
5
5
5
5
5
5
5
5
5
5
5
5
5
5
5
5
5
5
5
5
5
5
5
5
5
5
5
5
5
5
5
5
5
5
5
5
5
5
5
5
5
5
5
5
5
5
5
5
5
5
5
5
5
5
5
5
5
5
5
5
5
5
5
5
5
5
5
5
5
5
5
5
5
5
5
5
5
5
5
5
5
5
5
5
5
5
5
5
5
5
5
5
5
5
5
5
5
5
5
5
5
5
5
5
5
5
5
5
5
5
5
5
5
5
5
5
5
5
5
5
5
5
5
5
5
5
5
5
5
5
5
5
5
5
5
5
5
5
5
5
5
5
5
5
5
5
5
5
5
5
5
5
5
5
5
5
5
5
5
5
5
5
5
5
5
5
5
5
5
5
5
5
5
5
5
5
5
5
5
5
5
5
5
5
5
5
5
5
5
5
5
5
5
5
5
5
5
5
5
5
5
5
5
5
5
5
5
5
5
5
5
5
5
5
5
5
5
5
5
5
5
5
5
5
5
5
5
5
5
5
5
5
5
5
5
5
5
5
5
5
5
5
5
5
5
5
5
5
5
5
5
5
5
5
5
5
5
5
5
5
5
5
5
5
5
5
5
5
5
5
5
5
5
5
5
5
5
5
5
5
5
5
5
5
5
5
5
5
5
5
5
5
5
5
5
5
5
5
5
5
5
5
5
5
5
5
5
5
5
5
5
5
5
5
5
5
5
5
5
5
5
5
5
5
5
5
5
5
5
5
5
5
5
5
5
5
5
5
5
5
5
5
5
5
5
5
5
5
5
5
5
5
5
5
5
5
5
5
5
5
5
5
5
5
5
5
5
5
5
5
5
5
5
5
5
5
5
5
5
5
5
5
5
5
5
5
5
5
5
5
5
5
5
5
5
5
5
5
5
5
5
5
5
5
5
5
5
5
5
5
5
5
5
5
5
5
5
5
5
5
5
5
5
5
5
5
5
5
5
5
5
5
5
5
5
5
5
5
5
5
5
5
5
5
5
5
5
5
5
5
5
5
5
5
5
5
5
5
5
5
5
5
5
5
5
5
5
5
5
5
5
5
5
5
5
5
5
5
5
5
5
5
5
5
5
5
5
5
5
5
5
5
5
5
5
5
5
5
5
5
5
5
5
5
5
5
5
5
5
5
5
5
5
5
5
5
5
5
5
5
5
5
5
5
5
5
5
5
5
5
5
5
5
5
5
5
5
5
5
5
5
5
5
5
5
5
5
5
5
5
5
5
5
5
5
5
5
5
5
5
5
5
5
5
5
5
5
5
5
5
5
5
5
5
5
5
5
5
5
5
5
5
5
5
5
5
5
5
5
5
5
5
5
5
5
5
5
5
5
5
5
5
5
5
5
5
5
5
5
5
5
5
5
5
5
5
5
5
5
5
5
5
5
5
5
5
5
5
5
5
5
5
5
5
5
5
5
5
5
5
5
5
5
5
5
5
5
5
5
5
5
5
5
5
5
5
5
5
5
5
5
5
5
5
5
5
5
5
5
5
5
5
5
5
5
5
5
5
5
5
5
5
5
5
5
5
5
5
5
5
5
5
5
5
5
5
5
5
5
5
5
5
5
5
5
5
5
5
5
10
10
10
10
10
10
10
10
10
10
10
10
10
10
10
10
10
10
10
10
10
10
10
10
10
10
10
10
10
10
10
10
10
10
10
10
10
10
10
10
10
10
10
10
10
10
10
10
10
10
10
10
10
10
10
10
10
10
10
10
10
10
10
10
10
10
10
10
10
10
10
10
10
10
10
10
10
10
10
10
10
10
10
10
10
10
10
10
10
10
10
10
10
10
10
10
10
10
10
10
10
10
10
10
10
10
10
10
10
10
10
10
10
10
10
10
10
10
10
10
10
10
10
10
10
10
10
10
10
10
10
10
10
10
10
10
10
10
10
10
10
10
10
10
10
10
10
10
10
10
10
10
10
10
10
10
10
10
10
10
10
10
10
10
10
10
10
10
10
10
10
10
10
10
10
10
10
10
10
10
10
10
10
10
10
10
10
10
10
10
10
10
10
10
10
10
10
10
10
10
10
10
10
10
10
10
10
10
10
10
10
10
10
10
10
10
10
10
10
10
10
10
10
10
10
10
10
10
10
10
10
10
10
10
10
10
10
10
10
10
10
10
10
10
10
10
10
10
10
10
10
10
10
10
10
10
10
10
10
10
10
10
10
10
10
10
10
10
10
10
10
10
10
10
10
10
10
10
10
10
10
10
10
10
10
10
10
10
10
10
10
10
10
10
10
10
10
10
10
10
10
10
10
10
10
10
10
10
10
10
10
10
10
10
10
10
10
10
10
10
10
10
10
10
10
10
10
10
10
10
10
10
10
10
10
10
10
10
10
10
10
10
10
10
10
10
10
10
10
10
10
10
10
10
10
10
10
10
10
10
10
10
10
10
10
10
10
10
10
10
10
10
10
10
10
10
10
10
10
10
10
10
10
10
10
10
10
10
10
10
10
10
10
10
10
10
10
10
10
10
10
10
10
10
10
10
10
10
10
10
10
10
10
10
10
10
10
10
10
10
10
10
10
10
10
10
10
10
10
10
10
10
10
10
10
10
10
10
10
10
10
10
10
10
10
10
10
10
10
10
10
10
10
10
10
10
10
10
10
10
10
10
10
10
10
10
10
10
10
10
10
10
10
10
10
10
10
10
10
10
10
10
10
10
10
10
10
10
10
10
10
10
10
10
10
10
10
10
10
10
10
10
10
10
10
10
10
10
10
10
10
10
10
10
10
10
10
10
10
10
10
10
10
10
10
10
10
10
10
10
10
10
10
10
10
10
10
10
10
10
10
10
10
10
10
10
10
10
10
10
10
10
10
10
10
10
10
10
10
10
10
10
10
10
10
10
10
10
10
10
10
10
10
10
10
10
10
10
10
10
10
10
10
10
10
10
10
10
10
10
10
10
10
10
10
10
10
10
10
10
10
10
10
10
10
10
10
10
10
10
10
10
10
10
10
10
10
10
10
10
10
10
10
10
10
10
10
10
10
10
10
10
10
10
10
10
10
10
10
10
10
10
10
10
10
10
10
10
10
10
10
10
10
10
10
10
10
10
10
10
10
10
10
10
10
10
10
10
10
10
10
10
10
10
10
10
10
10
10
10
10
10
10
10
10
10
10
10
10
10
10
10
10
10
10
10
10
10
10
10
10
10
10
10
10
10
10
10
10
10
10
10
10
10
10
10
10
10
10
10
10
10
10
10
10
10
10
10
10
10
10
10
10
10
10
10
10
10
10
10
10
10
10
10
10
10
10
10
10
10
10
10
10
10
10
10
10
10
10
10
10
10
10
10
10
10
10
10
10
10
10
10
10
10
10
10
10
10
10
10
10
10
10
10
10
10
10
10
10
10
10
10
10
10
10
10
10
10
10
10
10
10
10
10
10
10
10
10
10
10
10
10
10
10
10
10
10
10
10
10
10
10
10
10
10
10
10
10
10
10
10
10
10
10
10
10
10
10
10
10
10
10
10
10
10
10
10
10
10
10
10
10
10
10
10
10
10
10
10
10
10
10
10
10
10
10
10
10
10
10
10
10
10
10
10
10
10
10
10
10
10
10
10
10
10
10
10
10
10
10
10
10
10
10
10
10
10
10
10
10
10
10
10
10
10
10
10
10
10
10
10
10
10
10
10
10
10
10
10
10
10
10
10
10
10
10
10
10
10
10
10
10
10
10
10
10
10
10
10
10
10
10
10
10
10
10
10
10
10
10
10
10
10
10
10
10
10
10
10
10
10
10
10
10
10
10
10
10
10
10
10
10
10
10
10
10
10
10
10
10
10
10
10
10
10
10
10
10
10
10
10
10
10
10
10
10
10
10
10
10
10
10
10
10
10
10
10
10
10
10
10
10
10
10
10
10
10
10
10
10
10
10
10
10
10
10
10
10
10
10
10
10
10
10
10
10
10
10
10
10
10
10
10
10
10
10
10
10
10
10
10
10
10
10
10
10
10
10
10
10
10
10
10
10
10
10
10
10
10
10
10
10
10
10
10
10
10
10
10
10
10
10
10
10
10
10
10
10
10
10
10
10
10
10
10
10
10
10
10
10
10
10
10
10
10
10
10
10
10
10
10
10
10
10
10
10
10
10
10
10
10
10
10
10
10
10
10
10
10
10
10
10
10
10
10
10
10
10
10
10
10
10
10
10
10
10
10
10
10
10
10
10
10
10
10
10
10
10
10
10
10
10
10
10
10
10
10
10
10
10
10
10
10
10
10
10
10
10
10
10
10
10
10
10
10
10
10
10
10
10
10
10
10
10
10
10
10
10
10
10
10
10
10
10
10
10
10
10
10
10
10
10
10
10
10
10
10
10
10
10
10
10
10
10
10
10
10
10
10
10
10
10
10
10
10
10
10
10
10
10
10
10
10
10
10
10
10
10
10
10
10
10
10
10
10
10
10
10
10
10
10
10
10
10
10
10
10
10
10
10
10
10
10
10
10
10
10
10
10
10
10
10
10
10
10
10
10
10
10
10
10
10
10
10
10
10
10
10
10
10
10
10
10
10
10
10
10
10
10
10
10
10
10
10
10
10
10
10
10
10
10
10
10
10
10
10
10
10
10
10
10
10
10
10
10
10
10
10
10
10
10
10
10
10
10
10
10
10
10
10
10
10
10
10
10
10
10
10
10
10
10
10
10
10
10
10
10
10
10
10
10
10
10
10
10
10
10
10
10
10
10
10
10
10
10
10
10
10
10
10
10
10
10
10
10
10
10
10
10
10
10
10
10
10
10
10
10
10
10
10
10
10
10
10
10
10
10
10
10
10
10
10
10
10
10
10
10
10
10
10
10
10
10
10
10
10
10
10
10
10
10
10
10
10
10
10
10
10
10
10
10
10
10
10
10
10
10
10
10
10
10
10
10
10
10
10
10
10
10
10
10
10
10
10
10
10
10
10
10
10
10
10
10
10
10
10
10
10
10
10
10
10
10
10
10
10
10
10
10
10
10
10
10
10
10
10
10
10
10
10
10
10
10
10
10
10
10
10
10
10
10
10
10
10
10
10
10
10
10
10
10
10
10
10
10
10
10
10
10
10
10
10
10
10
10
10
10
10
10
10
10
10
10
10
10
10
10
10
10
10
10
10
10
10
10
10
10
10
10
10
10
10
10
10
10
10
10
10
10
10
10
10
10
10
10
10
10
10
10
10
10
10
10
10
10
10
10
10
10
10
10
10
10
10
10
10
10
10
10
10
10
10
10
10
10
10
10
10
10
10
10
10
10
10
10
10
10
10
10
10
10
10
10
10
10
10
10
10
10
10
10
10
10
10
10
10
10
10
10
10
10
10
10
10
10
10
10
10
10
10
10
10
10
10
10
10
10
10
10
10
10
10
10
10
10
10
10
10
10
10
10
10
10
10
10
10
10
10
10
10
10
10
10
10
10
10
10
10
10
10
10
10
10
10
10
10
10
10
10
10
10
10
10
10
10
10
10
10
10
10
10
10
10
10
10
10
10
10
10
10
10
10
10
10
10
10
10
10
10
10
10
10
10
10
10
10
10
10
10
10
10
10
10
10
10
10
10
10
10
10
10
10
10
10
10
10
10
10
10
10
10
10
10
10
10
10
10
10
10
10
10
10
10
10
10
10
10
10
10
10
10
10
10
10
10
10
10
10
10
10
10
10
10
10
10
10
10
10
10
10
10
10
10
10
10
10
10
10
10
