# vtk DataFile Version 2.0
whisker_body, Created by Gmsh 4.13.1 
ASCII
DATASET UNSTRUCTURED_GRID
POINTS 666 double
-8.366600265340816 -1.499999999999834 0
8.366600265340814 -1.499999999999832 0
-6.60026042195558 -1.499999999999967 22
6.600260421955578 -1.499999999999968 22
12 0 0
8.366600265340708 1.500000000000135 0
0 8.5 0
-8.366600265340708 1.500000000000135 0
4.12982931753815 0 100
6.600260421955603 1.499999999999917 22
0 6.768562449858393 22
-6.600260421955603 1.499999999999916 22
-6.808334141167511 -5.088868854884438 0
-3.80753297644827 -7.599519236981967 0
3.293187477425454e-14 -8.5 0
3.807532976448329 -7.599519236981937 0
6.80833414116753 -5.088868854884412 0
-5.019960159204491 -1.5 0
-1.673320053068164 -1.5 0
1.673320053068162 -1.5 0
5.019960159204487 -1.5 0
-6.895871950908587 -1.5 18.33343212199416
-7.190914839792784 -1.5 14.66681732254816
-7.485456147913013 -1.5 11.00016317330062
-7.779552949430784 -1.5 7.333472689228401
-8.073253722869884 -1.5 3.666750947754721
-4.894895387580292 -4.674765960160812 22
-1.801902383750698 -6.524307276413841 22
1.801902383750694 -6.524307276413843 22
4.894895387580283 -4.674765960160822 22
8.073253722869882 -1.5 3.666750947754764
7.779552949430782 -1.5 7.333472689228429
7.485456147913013 -1.5 11.00016317330062
7.190914839792781 -1.5 14.66681732254818
6.895871950908587 -1.5 18.33343212199416
-3.300130210977791 -1.5 22
0 -1.5 22
3.300130210977789 -1.5 22
11.34980690040761 3.896393630456207 0
9.469686112756717 7.370552552276022 0
6.563377897469113 10.04599773915035 0
2.945825845689581 11.63280319127197 0
-0.9909521456679979 11.95901391608004 0
-4.820345095835646 10.98927991986068 0
-8.127378859508902 8.82868692807757 0
-10.55368501447787 5.71136871644487 0
-11.83633564083267 1.975135083368787 0
-11.83633564083267 -1.975135083368821 0
-10.55368501447786 -5.711368716444897 0
-8.12737885950888 -8.828686928077589 0
-4.820345095835619 -10.9892799198607 0
-0.9909521456679715 -11.95901391608004 0
2.945825845689616 -11.63280319127196 0
6.563377897469155 -10.04599773915032 0
9.469686112756747 -7.370552552275983 0
11.34980690040762 -3.896393630456205 0
6.808334141167383 5.088868854884609 0
3.807532976448174 7.599519236982015 0
5.019960159204425 1.5 0
1.673320053068141 1.5 0
-1.673320053068142 1.5 0
-5.019960159204425 1.5 0
-3.807532976448205 7.599519236982 0
-6.808334141167403 5.088868854884582 0
2.574906462902252 3.228830577670782 100
-0.9189734768187546 4.026285874214754 100
-3.720847644852559 1.791865786210781 100
-3.720847644852582 -1.791865786210735 100
-0.9189734768187868 -4.026285874214746 100
2.574906462902235 -3.228830577670795 100
11.69730112759762 0 3.846153846153846
11.39460225519524 0 7.692307692307693
11.09190338279286 0 11.53846153846154
10.78920451039049 0 15.38461538461539
10.48650563798811 0 19.23076923076923
10.18380676558573 0 23.07692307692308
9.881107893183348 0 26.92307692307692
9.578409020780969 0 30.76923076923077
9.27571014837859 0 34.61538461538461
8.973011275976212 0 38.46153846153846
8.670312403573833 0 42.30769230769231
8.367613531171454 0 46.15384615384615
8.064914658769075 0 50
7.762215786366696 0 53.84615384615385
7.459516913964317 0 57.69230769230769
7.156818041561938 0 61.53846153846154
6.85411916915956 0 65.38461538461539
6.551420296757181 0 69.23076923076923
6.248721424354802 0 73.07692307692308
5.946022551952423 0 76.92307692307692
5.643323679550044 0 80.76923076923077
5.340624807147665 0 84.61538461538461
5.037925934745286 0 88.46153846153847
4.735227062342908 0 92.30769230769231
4.432528189940529 0 96.15384615384616
6.895871950908587 1.5 18.33343212199416
7.190914839792784 1.5 14.66681732254816
7.485456147913013 1.5 11.00016317330062
7.779552949430784 1.5 7.333472689228401
8.073253722869884 1.5 3.666750947754721
5.29449461611254 4.216842942011047 22
2.938662352447685 6.097351983930376 22
0 8.211427074976399 3.666666666666667
0 7.922854149952798 7.333333333333334
0 7.634281224929197 11
0 7.345708299905596 14.66666666666667
0 7.057135374881994 18.33333333333333
-8.073253722869884 1.5 3.666750947754721
-7.779552949430784 1.5 7.333472689228401
-7.485456147913015 1.5 11.00016317330059
-7.190914839792784 1.5 14.66681732254816
-6.895871950908587 1.5 18.33343212199416
3.300130210977802 1.5 22
0 1.5 22
-3.300130210977802 1.5 22
-2.938662352447676 6.09735198393038 22
-5.294494616112538 4.216842942011048 22
-6.059678557396928 -4.416025156765865 12.73078814127597
6.39650525917418 -4.436244437887104 9.093653011974606
-1.894912295721332 -8.012321139715276 3.388163173765719
-0.01417103459372745 -7.008024332953532 18.9571662359437
5.400658327659595 -4.788360588373014 16.29288976553228
4.857305070572981 -6.665527452573954 3.207228628563615
-6.735643364478839 -4.45318894587422 5.404733126222153
6.077025095800042 -4.382518714944203 12.8022236653613
3.905749531159925 -6.588687882130227 10.68143369769234
4.3432355157343 -6.652488908338524 7.054919578576667
1.216716874228241 -7.720892503891302 8.68882908739139
0.7699015844514703 -7.488836486343469 12.34651831440116
-2.245834944546893 -7.375975714765335 10.03403528932489
-2.927348580321211 -6.827907308286772 13.60864721738027
-6.544584304202615 -4.227712813468448 9.004248296192776
-5.309698432267076 -4.877074182424174 16.39571837171048
3.597666731272536 -6.016387918535226 18.93221832529548
1.845252323335275 -7.009176761318312 15.90815868067256
-3.597797042583328 -6.016605838496801 18.92899209637206
-4.334677204478535 -6.654652363271352 7.091293719424809
1.476284842636374 -7.969766330606618 5.014587035595491
-5.084237515500277 -6.503474689836833 3.113305565221757
6.684115319384362 -4.491817578998382 5.677295950899363
-1.370186784046672 -7.863389493870666 6.583420126281154
-1.919435422242991 -6.923742362790234 16.71023699824044
3.921603480629776 -6.307010465460681 13.63630180504519
5.69332310269577 -4.042105678601514 19.28417692124019
-5.628259696358259 -4.135622561062423 19.25858104122996
7.149423673489729 -4.176351629270743 2.797074719917527
-4.617899472364858 -6.11383326351433 10.64969945616416
-7.243461572344085 -4.038205952682389 2.629423001928765
1.917238335700345 -8.10672308248242 2.155584106319764
0.08610050449564355 -1.5 3.252358761125145
-4.16805518646045 -1.5 12.58232029311663
3.830392639555011 -1.5 16.55700271178853
4.399292878537402 -1.5 9.178994814536169
-1.652152167203164 -1.5 19.28100653055046
-5.223778961582811 -1.5 5.287856165089467
3.771975426021722 -1.5 3.407741788240925
1.477455206753001 -1.5 6.332579806117745
-3.598487144071179 -1.5 16.47669312398
-0.8561972484711653 -1.5 13.89047139298963
-1.279419586246203 -1.5 10.60868793809576
1.924375199448628 -1.5 11.92306956830162
-4.626575400454014 -1.5 8.945033058637543
1.64398403293219 -1.5 19.35835919143575
-1.725126124732623 -1.5 6.72851903111753
-3.346640106136326 -1.5 2.543961499752971
1.495961829569412 -1.5 9.261072693191547
-1.77635683940025e-15 -1.5 16.84413486127571
4.590346818490957 -1.5 12.91400715594098
-4.409380379023258 -1.5 19.61822635530492
4.454127851265827 -1.5 19.64975880504369
5.197326778843236 -1.5 6.18579119552891
1.83074121952539 -1.5 14.53174612576954
-5.880303654345015 -1.5 2.388204412546362
-1.090826748844865 -4.077812366700869 22
1.684205864861001 -3.720556221951826 22
-10.10146795308671 3.452793606584237e-14 0
-8.326672684688674e-16 -5.551115123125783e-17 0
-6.69328021227258 4.364115159304974e-14 0
6.693280212272627 1.066223022616602e-13 0
-3.346640106136305 -1.110223024625157e-16 0
3.346640106136304 5.551115123125783e-17 0
-2.404707554487957 -9.761953268230675 0
-2.404707554487961 9.761953268230679 0
5.883681420410992 3.213748543947562 67.28990840443683
4.481712651254909 -3.177432529221948 82.66912391067751
8.859469299602248 3.255777734886545 32.54357614990941
7.539213853236292 -3.270306209000274 48.05554335083139
9.125951363561482 -3.381487224715981 28.81400353754705
6.967813461011352 3.060389446300833 55.77664239291649
7.655042782553825 3.742231684529929 44.2074682700067
9.79849809678991 3.297515537196783 21.11161024500162
-11.09527489538307 3.809012682760124 3.419408766471425
-6.321123640611514 -9.88451984390937 3.394155304643858
4.376726030725946 2.817894544132044 86.33349174119634
10.03540916690688 -3.541985050372596 17.2532761374745
-3.092753940500492 11.3196219633247 3.37323852387833
3.752172511923079 -3.141425038482989 90.29533585463945
5.12782309320805 -10.5478718400244 3.452736730492063
5.150938985619188 -3.27094646601781 74.94446563161718
8.176650330765103 -3.319557848809724 40.34475574628594
4.86311312677706 3.164125686601179 78.75485642628907
5.515912149700751 -3.836472353513486 67.10255841062164
6.549351529824886 -3.253310064738898 59.55566450511531
10.30782679394296 3.669794963381806 13.44820196145922
-2.723844371020274 3.415592807225254 96.96476903409871
7.945113376504877 8.630693833987415 3.419408766471542
-11.09527489538304 -3.809012682760148 3.419408766471707
10.64571497628379 -3.625511188324211 9.578748179178508
-2.633579180006027 -3.523592931555294 96.57950772588465
10.31700692552853 -5.583284939902463 3.419408766471381
11.06555625010669 3.306234306775616 5.731422828050557
3.374681076347565 3.1132268918116 94.13560339841358
4.812366599042043 -3.224042144942172 78.873476585039
6.213887481933059 3.245444915275248 63.39923967603456
7.854154908482224 -3.29597773825231 44.24681280899749
0.8839995536723747 4.277270915254395 96.9780051014545
-0.6087510069504397 4.572291850264672 93.86533233342223
-3.967763370978763 2.380981615854184 93.67860409287384
-2.514782277294542 4.167909695589317 90.62303120156031
2.066990261246719 -5.261510892665558 80.64680223727419
-4.80108364624302 0.9237778919459773 90.35193927379757
-4.148411874349152 3.013742045850459 87.3225173675719
-5.124635680411549 -0.5869825869384447 86.93403556407078
-5.122782828649765 1.689962471480975 83.93290014234525
-4.102942731135807 -2.73176048741506 89.84349415526822
-3.450955103805575 -3.897373372224187 86.33062376829567
-2.74525964620429 4.619206734186632 84.19882538123187
-4.323373963597374 3.620907277386757 80.81942428518379
-5.663254032746599 0.1873336032435064 80.4766336746259
-5.37961283511469 2.441209115202028 77.4112834124462
3.829378504189165 5.70078908652215 65.2140595431384
3.428112131907595 5.599839637092569 69.04764450439538
0.4887954665235038 6.721468060586366 66.84457821158199
1.121262930929129 6.938250966554016 63.17183930214746
0.04235021281728774 6.438779606489308 70.66023524719105
-2.946657784613637 5.916565989821929 68.48986022909331
-2.753265683547489 5.205468042889199 77.65080134600056
-5.790428627986908 -1.334465356796285 76.9715180640716
-6.101211141251321 0.9881053621990269 73.94113796353074
-5.568038290200307 -2.775568813770978 73.42303853409744
-4.628925851986176 -3.355453354230358 79.83093658536049
-6.435164392552136 -0.5311196167612977 70.42992237761062
-5.247299051160192 -3.842791694981158 69.8341028507366
-6.451079321379672 -1.943402915319672 66.86703132273864
-4.023661084854305 -5.463286858366085 66.26180261067503
-6.127111939367732 -3.421004872982737 63.30914599902164
5.810829952541882 -6.032398455548307 46.04865135579522
5.454019384401307 -5.953232912717757 49.8862644931361
2.801103881044657 -7.749788513652139 47.7693122986806
2.433005193501521 -7.556024708681669 51.6116595053097
-0.6609278683851676 -8.093569449835766 49.29358683715581
-0.2753269105294332 -8.41081252268693 45.54770706127869
-3.566700569080599 -6.118978245032836 62.48146878709191
-5.627547856049 -4.652197573809391 59.69981156434729
-7.150044831844978 -1.216089672784618 60.31985223745507
-7.066182837337092 -2.6133056686836 56.74662677875487
-3.690484198562376 -7.430991664144964 47.05176395346278
-3.335383957306132 -7.923473235190322 43.24083662785011
-7.399115471130187 1.186921468407985 57.25784099797168
-7.760759914406725 -0.3897871682211979 53.7403547646635
-6.203411231724492 -5.791051823728526 44.64481503870915
-5.968630744192239 -6.446617532365205 40.84523745278359
-7.975742133653396 -3.431885792431524 42.14954416661956
-7.918583106006135 -4.235985411151225 38.3676935631822
-8.859183261117758 -0.6821139576620818 39.57469211406194
-9.053601813515593 -1.530853542585216 35.8046358458669
-2.929933348496594 -8.400454304437659 39.43054314031117
-8.89538242283445 1.901538310852793 36.89430637743627
-9.301278199467443 1.267945255295051 33.19746049117638
-9.162634299525637 -2.42835792724728 32.03277877511204
-9.683080772088772 0.2507154243478746 29.39801548132555
-9.213686709586298 -3.276037674758729 28.22333628339262
-9.969415714716979 -0.4891722570896008 25.64862189077443
-9.201123923599489 -4.106722543920334 24.44669030185984
-7.442035754283293 -6.495396537363047 26.96308847224155
-8.440358238297767 2.48963295023361 40.66135722862102
-10.18796692771487 -1.367747165724497 21.86270497060856
-9.138643596255099 -4.913859877108752 20.63521345178837
-9.365895246216128 3.193534714277792 26.7416604544458
-7.599381081223912 5.380449668993744 34.16349760765138
-10.34524815085214 -2.210078917119249 18.05950029086366
-10.37805387353596 1.516967626644868 19.20751171091181
-9.041799227589976 -5.678643366158781 16.80864592345209
-6.937918363677266 -7.855364100539099 19.30672886097415
-6.67603737514129 -8.467931572528045 15.46212484235953
-3.911421407519989 -9.844821331275684 17.87278692427808
-3.517382629580174 -10.31349310248064 14.01756068454772
-10.76850109362724 0.6120061800224149 15.42688085896478
-9.821535065525145 4.249612977003064 16.49920914269991
-0.4201439241643092 -10.70530706117178 16.34591689577858
-0.8218664069541528 -10.37677372167279 20.21214391096741
-6.947750706992412 3.407873913423428 54.14711199203693
0.0006748605605616579 -11.01792054428743 12.47850236886304
-7.774555567333199 1.937969993222948 50.6665577435035
-5.954396402771394 5.32238613754047 50.99758692874594
-4.435599856894202 6.315879071754064 54.41014961848914
-2.738418614381616 7.488177183548607 51.165492003754
-0.8490251220603398 7.662911565633192 54.51212554270815
1.072163257561652 7.896949077128635 51.21362688232403
-0.8705831516622805 8.184474183419091 47.89418433741795
-8.882264488514151 -6.450265780480442 12.99496211849592
3.119543919148665 -10.38259215152733 14.72503030702508
-6.73691817284654 2.589424519668273 60.76841040692662
-10.45134189055626 3.425144627517601 12.72805936539686
-8.585387200419383 6.747962441089255 13.724172757672
-7.659942377404829 7.363312504584077 17.46955863775424
-5.723250973687342 9.216762727121864 14.62278279314283
-4.528917535474088 9.536717562114191 18.32913982793048
-2.147961431323818 10.57093424040302 15.41320351121603
-0.8163342121746745 10.46681932337586 19.07703144406094
-3.27164164261435 9.73247572500048 22.01154040578487
0.5265208057886628 10.19833587254766 22.71973007340366
-1.966949128285707 9.783731487734107 25.67296914467069
1.858332090240627 9.75151939083929 26.33983468570523
1.80289927409472 10.58236801175686 16.07528214198869
-0.4180093385033039 9.687187086225455 29.27253415256328
0.397167364140333 11.01250947794286 12.45628521486782
4.108007991497934 10.17317252897958 13.07102031605702
-2.541961485331467 -6.908323784294661 58.9421982266571
-6.856972773178927 8.782478926673617 10.89858937355366
2.835569149828051 10.89267433880356 9.45721454575941
5.305462538275767 9.278653599147656 16.6657845737702
3.153235722756786 9.113796440071811 29.93750145836182
0.9980666729912593 9.3572930325033 32.90436462118006
5.676913212092688 8.102355302937523 26.76936867095029
-4.322333621277558 8.741062386190336 28.57186412400351
-2.975323957660133 -5.526783870095705 72.72048054554459
6.333981023641296 9.252523938327776 10.00140025851186
-4.029955886549009 -6.907523478749336 50.86101817507515
3.520061540446076 -10.57575101278079 10.84880366805729
0.4081786503786605 -11.31558464633512 8.602809420339312
6.318228320155826 -8.974881535355131 13.01350848550488
5.968370293533413 -8.845496048510515 16.89011634263152
0.1177152900687812 -7.141495859639576 61.72082201360877
2.954666032383777 7.685506815265381 47.85287071102817
1.040502130745235 8.432499064760409 44.5168067354191
-2.769497497109322 8.030719218375236 44.53708545300139
-0.8726755074234588 8.710494764848994 41.24305922708277
2.789376138723679 8.330667519283375 40.84725504475917
6.690175940387735 -9.083270146938228 9.133908576039451
-11.08226267541083 -0.2549562409788886 11.62369933505907
-7.140429499961785 4.140870031285662 47.59434720857402
-7.898598373967748 -1.568975326122678 50.15239134749162
1.175220688577202 -7.340249894612734 58.01990127534501
4.467697762940702 8.232144387747423 33.46368782882574
-2.705854990106569 6.948563492034687 57.72655707073596
2.996450244430662 5.504355379608286 72.84329996013763
5.142303763685587 -5.82527924873282 53.74375775698143
4.657464653016245 6.478106068781885 51.09690907695965
0.8853633889809427 7.409821006335657 57.65405543112098
-0.8500103053265647 11.27217837727938 8.841210351246589
-4.367288606517393 7.592171156123197 41.18502256814706
-3.1142390772733 8.462649371908354 37.89652815783359
0.8117400765011324 11.50663374660943 5.905456729298097
-10.97655456081946 2.642555216221009 9.019296250941823
-1.523017162654835 -7.496901726899389 55.2714783854305
-3.180992203191418 5.48056610410218 71.9574959587713
1.979888415474979 -4.986428075485636 84.30424969060424
-6.523223693716245 1.613544622331941 67.09105495540308
-11.35387093900846 -1.177879191241942 7.435601079623435
2.387532150705115 8.809831078752175 36.49705772699575
5.512315063876623 7.206687265993294 37.18921989783395
6.437707827360286 5.9698968973216 40.91734323626697
-1.714684285248882 -4.682169777183954 89.11793074351316
-2.310489625791758 -4.106458645292604 92.60494920429589
5.904603289294505 5.740452272115647 47.83738941232053
1.254903866020898 4.690446735387388 90.78053429165655
-5.827844216186123 6.890779992484497 37.80378045631255
-5.462178084037877 7.542069798448628 34.15096110110652
-7.12487666334311 6.402281611396702 30.76448319835203
-7.95293092243362 -2.658036675564279 45.9283506628316
-0.981425048882092 5.011990212035081 87.58164002365606
7.930181237457257 4.309784348672948 37.7929410224499
-4.373797870819125 0.05949301263183673 96.89494471490113
2.425769257960733 -5.437810937582964 76.81741565136404
2.82027200399946 -5.587699571852098 72.94506308023425
-0.6805616705766157 6.097069356379583 74.52272551458579
-2.28720780664464 -4.997592158204522 82.6397327241758
8.698937937101338 -6.42202600039442 15.08639540346895
6.159055087524089 -6.114894438187475 42.19668184840133
6.557663234334483 -6.139986763947832 38.32889436246449
3.617059567717795 -8.074059986098748 40.0596794203086
4.018546156607046 -8.219860201464416 36.21801957081868
6.886376630063793 -6.227490249577618 34.50241414923185
4.420770529828784 -8.353721424266936 32.38376489855743
1.034306625644553 -9.265725093709401 34.01101929153393
1.45547118171142 -9.515127178311488 30.16706076394859
-2.081196685996072 -9.2735552285901 31.71188603136296
-1.677915767373357 -9.661823163084161 27.87184663657473
1.896727057262967 -9.745115826842357 26.32746610118726
3.782142525560794 -6.155109641835102 60.68149130237217
2.306423090012901 -6.536899948076213 64.39685623619432
5.681053074920375 -4.124093121341185 63.27499176307369
2.903228322415231 -5.924721112562406 68.6413724542072
-0.7433903141448485 -6.705608572233539 66.74964226454995
9.208503740988455 3.149633466306312 28.81446833588597
6.780077027356868 6.799156489355283 30.4697638193337
7.252997213954806 -6.272680699543041 30.63229387876894
8.783625378920933 -3.424817003138112 32.68422501861781
7.650592383585347 -6.27265560049749 26.76791286492602
-2.500771946410664 -8.856693874414747 35.53947713148041
-5.35262741190478 -7.716130355373749 33.15156592819331
-5.693208369560558 -7.080356596848777 37.03379947176595
-6.415161394420568 -5.087992131749035 48.43712658323304
-1.336082905341356 -5.659187500338486 78.59083090662011
2.767451965606174 -3.656060944166346 94.21187059484977
0.8502221189687292 -4.28245174500155 96.99870917382096
4.151595880050725 -3.10881660211555 86.57286023530499
8.264392316332438 -6.485840875475644 18.98895008989579
5.620047272972965 -8.710689752060219 20.75759249832929
9.700792425928176 -3.564035243356505 21.15859965850635
3.193893957489916 -7.922955680820289 43.93179280276628
4.48357570825921 3.182873906471004 82.60981160837999
2.073997266700022 5.274460263207301 80.4611004648701
1.614789335008934 5.119291401965853 84.26841963380122
8.885326631180364 -6.681369596832303 11.21841295671539
9.183088341081808 -6.84425536044212 6.949332170305094
2.719224994450697 -10.17951885791493 18.59615982359727
2.31636090470478 -9.967054559930236 22.45595182042062
5.230186812348898 3.144617887825967 74.93175104653113
-5.079409767513662 -1.934781934297503 83.41090433262684
6.549329588493538 3.253376719494234 59.5555374068739
4.228530187238267 5.797800543653905 61.29474697374359
7.022602621137501 3.690247845470626 51.67422247450335
6.894540833873587 -3.219816975596809 55.78874224950925
5.40318656408262 -3.444511097273556 71.05645023228898
5.250035497281164 -8.582831088977503 24.63471599935332
4.906025587067425 6.953957164101922 44.33979664187698
8.491107383545247 -3.341365620200739 36.53172843524582
9.52162597561184 3.181370801037347 24.91625971182517
7.378492405234386 7.002798177775069 23.21960473722979
8.151047244181116 6.627936321350682 18.98725753655534
5.7353994460644 8.640337047517233 20.70294677471676
8.701175659518242 6.413918075612795 15.1246722301884
-7.212277764080609 -7.182736279524395 23.14011466560743
9.415227463841349 -3.469064951183789 24.98054804332517
10.01689256168288 3.588744890302247 17.27588477653848
8.918070410106676 6.660053228645773 11.0478974147792
10.36818371707418 -3.50144811121866 13.42458121888111
-9.914539755082966 2.356929882646367 22.98755915515928
-8.314276816222918 5.752983877276264 24.00723511583531
-6.624074934461223 7.929483459274322 21.19096564900297
-5.443682663118769 8.441186758737063 24.84993425181577
2.725043734852866 7.217074904125034 54.45365652499181
0.6032741618312659 -9.00188270871949 37.83812846387183
0.1651112640531982 -8.717512320331226 41.68809462473725
-3.283277592899581 6.0992284869537 64.46117138660077
-1.237229813913123 -10.02985308113895 24.06715203683365
-4.466793796120477 6.920501369243539 47.81544066459566
-5.802550227963496 4.699192418838913 57.60070639649811
-4.524662044177687 5.604719388963201 60.94969105122838
-10.43938153723167 -3.061288040541131 14.24392977675859
-3.135860919017679 -10.74860129866173 10.20691543400458
-2.935034655767462 -11.12491700872894 6.282292443171929
-6.227295700650221 -9.533379415932826 7.788476226684986
-9.032191961322457 -7.200460439721533 5.704249278435574
1.068720916854336 -11.62242739225482 4.174494133606657
-5.876870770459339 6.138203635876206 44.49776450141589
-5.882104340959593 3.705706249411728 64.13991053283945
-9.077406557346261 5.077435568963176 20.31791723891753
-6.964201400287697 0.2882140857324377 63.91014212375671
-9.407055114167946 6.096589418697748 10.03960849707293
-8.113957184229719 8.058352070604066 7.171164219492051
-3.381743364312614 10.5450876152703 11.76503628390704
-8.589432514391156 -0.08420533470621346 43.33012440689711
-6.379064350149348 -4.516188123139376 53.1639301702316
-4.90148940319052 -5.794892315999174 56.03664356540731
-10.41127177942184 -4.072190016448303 10.42766221946672
-7.793611342624282 -5.045758616449176 34.50498708854556
-4.288730062997229 -9.353118064186889 21.73383179504644
-4.663359871001258 -8.830893697219784 25.58303572651017
4.867546262563926 -8.456233625845845 28.49881604988501
-7.621024034309486 -5.804409705313712 30.75247764740185
5.178078911130959 10.25770463290397 6.473028797525121
-4.993328072675555 -8.300778852722209 29.39057579526719
-4.821657449946446 10.29881576765701 7.984187856365548
5.545316124772947 3.200633963616607 71.12041853286362
-6.34809124253926 -9.080379560016411 11.6982202938348
-3.935880582470612 -4.520599496703763 76.31458940344676
7.909821985732281 -6.429996934333597 22.95207473752704
10.65856818094448 3.603453651278091 9.514150629231441
8.138060097913923 -8.450692796680771 3.403959491999705
4.067125445045641 6.261634517498145 57.60276746306236
7.22487210055469 -3.239331756792812 51.868875598896
-11.73666604211394 0.04718123912198326 3.344770207887467
-5.949797687215091 10.08197956254043 3.726958034857568
-8.975822637120352 7.530439445422281 3.604086271596273
2.782706658833048 5.292653280000699 76.49641487974421
3.89718458345827 -10.75638332373881 7.107572426974647
-4.522928016685367 -1.116538227789206 93.27999296042566
-0.1466572697246058 -6.442930970736339 70.58805108428734
-8.940872070613539 -6.845110856428379 9.398565285688838
4.624680480820018 -5.890054643293826 57.32168334791352
2.594424111266456 10.13181602242502 19.58387491242159
10.22813237147914 5.778600291798614 3.206609444452352
8.835642696906355 7.318273120999201 6.698399096669461
11.08750541272907 -3.153571137335155 6.006695905738188
-5.657202652786993 3.062192770992699 70.73793305249328
-8.212731936570984 1.038235552706809 47.29125463173684
7.209528478687568 5.880507304918111 34.26053648306458
-10.19995866484993 5.273184666015051 6.576663225402124
4.300807579337952 10.94480575407276 3.055907837162768
-10.5242277478284 -4.527297058310089 6.903384479773429
-7.594598659751925 6.271511269558304 27.32654310852826
7.956958315830808 5.884249039971928 26.72951731667964
-3.224671097498165 8.922966546968649 31.9208711509201
-0.5155269688868627 -6.062175831912949 75.16918892446202
4.152225397643528 9.232777060478345 23.8432586097298
-2.890292438514769 -11.41350672568135 2.874381086551368
-1.508034142645382 5.429304582363539 80.87692083548143
8.257878026408315 2.993594578312962 40.86640769673178
0.675787463642481 -4.726761959406258 91.80453479411077
-8.927514502659678 3.503167906129621 30.61890570298382
2.053720169803776 -7.398135477348264 54.9174654244827
7.770422046461867 2.678231393665358 48.04183454673129
-7.736843726187784 3.537597894507851 44.37956138562831
-1.512941252080319 7.054711390433706 60.79767599490601
-4.329239788235686 4.287738596895608 75.05307980651777
0.9739532238519787 11.75386743807442 2.615566636583281
4.136490153060944 2.610269484400888 90.32558230896208
-9.309182058552956 -7.245627232442191 2.584327314864315
1.576871404464888 -4.839456285904425 87.8014217453687
6.498132335320712 -9.520370677706087 6.014745764104185
-1.594197738010057 9.103091075145899 35.04840811940173
5.320691086196852 5.632634301123055 54.02283135770026
-11.38249108411593 1.872381276445161 5.902497658346603
-0.7473606418377671 -7.835334115426702 52.46523693745089
-3.001768655560901 -5.837574127703696 69.06919574195754
6.773048162128934 8.639798501114701 12.98353315466329
3.150491641629034 -2.99878010852642 97.2086302191444
3.407052942739645 2.703714494624518 97.20891928206666
-6.807458801772023 5.471046683271016 41.50494514683181
0.1312676688643359 5.844406604986242 78.19550131087449
11.43916655721956 2.810293386194912 2.804058776005244
11.4227987832511 -2.859507460082605 2.855394504863018
-0.8183929021767927 -5.16345271735792 86.04760099369275
-5.137277792671655 4.330565809280175 67.10103004340861
-2.504477388026809 11.22703761269286 6.315109930115369
2.225690910328113 4.563570168337198 87.96012061743762
-0.01991481088992523 8.967684791755028 38.52893689225563
8.778627302485704 2.84058507985318 35.23727203571963
-0.05469789955032378 -4.565507725670101 94.46001779304729
-3.738221658570393 -6.815155133619839 53.70821882825877
-7.796097614462674 4.465675870828753 38.31544812873982
-1.283143961343581 -6.837560528676754 64.07844668488359
1.669099351502275 7.04393161130642 60.49446525361563
2.799326917732967 7.569757691498891 5.453778535595003
5.858475214045916 4.680394970423605 12.72498727873667
4.3494476892406 5.448827400998542 19.41632809550287
6.922723074526559 4.155106644357428 5.413213048019903
5.746088673559237 4.363145647860933 16.32892599974608
3.11841079302198 6.496412135176316 16.44057656304579
3.071531948301155 6.829679801261333 12.8513059625576
4.800921881729642 6.070225654248176 9.665834933857557
5.257615374570054 6.381158667492294 2.946393873183025
6.78513410703656 3.814594210428493 9.098852299131691
2.271895226328641 7.441578065895039 9.14014500826881
6.000184512875329 3.525700607701165 19.57560752044663
2.121768719992956 6.620717975680796 19.66417430361994
2.655283139223618 7.854275372436713 2.655988217468672
7.243461572345412 4.038205952680407 2.629423001926302
5.058585955546411 6.140922965438742 6.910346171394233
4.562033279264513 5.76854936062158 14.55526927050303
-0.0861005044956471 1.5 3.252358761125144
4.16805518646045 1.5 12.58232029311662
-3.830392639555019 1.5 16.55700271178852
-4.399292878537397 1.5 9.178994814536145
1.652152167203164 1.5 19.28100653055045
5.223778961582802 1.5 5.287856165089472
-3.771975426021719 1.5 3.407741788240917
-1.477455206752982 1.5 6.332579806117713
3.598487144071179 1.5 16.47669312397999
0.8561972484711644 1.5 13.89047139298962
1.279419586246209 1.5 10.60868793809575
-1.924375199448626 1.5 11.92306956830161
4.626575400454015 1.5 8.945033058637545
-1.643984032932195 1.5 19.35835919143575
1.725126124732627 1.5 6.72851903111753
3.346640106136283 1.5 2.54396149975299
-1.495961829569405 1.5 9.261072693191519
-7.105427357601002e-15 1.5 16.84413486127569
-4.590346818490957 1.5 12.91400715594095
4.40938037902326 1.5 19.61822635530492
-4.454127851265833 1.5 19.64975880504368
-5.197326778843239 1.5 6.185791195528891
-1.83074121952539 1.5 14.53174612576953
5.880303654344989 1.5 2.388204412546368
-3.122976019076984 7.442327202921029 5.450826118221945
-6.059678557386268 4.416025156781543 12.73078814126811
-4.349447689240596 5.448827400998546 19.41632809550287
-6.916642892270799 4.163208463634285 5.426395710637407
-5.746088673569815 4.363145647847418 16.32892599974289
-3.118410793034388 6.496412135171301 16.440576563035
-3.053797809433921 6.843561652372517 12.78245794422485
-3.064259583864395 7.153785544194731 9.117495245599645
-6.415355809261171 4.402988287509063 9.136467455169621
-5.304318668929474 6.341691461994181 2.953200629955592
-5.136098836384118 6.056225976939269 7.104445868610777
-6.000263775901776 3.514240353645747 19.64842030046183
-2.131290675318938 6.623059767083814 19.59885111911685
-2.655283139214912 7.85427537243892 2.655988217477524
-7.251788985381245 4.020908339055456 2.643746127777968
-4.782748570113366 5.963818786772697 10.86730085070508
-4.596848654305348 5.746696286197035 14.49721434759089
-6.661338147750939e-15 5.900042359436546e-15 100
-1.647203679008185 3.943439620400292 22
1.64919611056643 3.733305207910757 22
0.002050527710899379 -2.220446049250313e-16 31.38399122375627
0.02243132854549401 -0.03415885304634037 40.32257602889869
-0.1022220121614872 0.1905851494957682 48.81604239919223
-0.002583549142096686 -0.007361831333026814 57.05552813826611
-0.04206233405087256 -0.02081344199791157 63.98483887962173
-0.08749168866925761 0.08144216912727487 72.51238708812612
-4.840881234361065 0.5482249947842504 27.40502352886288
3.013028846027797 -2.989314521961542 27.52860694447153
3.029601180587387 3.026881397262524 27.54043636653937
-0.1725088747724914 0.05627953523851303 78.30891156136433
2.662484247076467 -2.668450448632108 35.98653307222313
-3.316668289738925 -1.762669476925034 35.97982340782719
-1.547701031159826 -3.042815432479625 44.73051953466551
-0.934501699315833 3.459505983900833 35.8687280782266
0.09265999190466179 -0.03863515037637955 85.17479340037931
-1.719906523302543 2.811005190613672 44.47234083953106
3.232189964709423 -0.5801517795791771 44.66832009353509
-1.879841509513841 -4.566765623190283 27.07654170603597
-0.7793447577129813 -2.777671590242796 52.87564382413661
-3.336400517664852 4.69159922741837 26.4631909434351
-2.265566260491528 2.020975114702807 52.96495247631455
3.753377124786063 2.059350793644367 34.25329336856872
2.832081367772796 0.7935592680445583 52.91776749893626
0.3233914186944542 -4.937611960625297 31.69917026038766
0.005330376226924493 0 26.18710519621017
-0.02432199889249276 -0.05283267324374297 90.05780947783451
-0.3191894759628071 4.919627698343945 30.69922546297444
-3.94410520860355 -2.802700138181235 31.35225547669437
-0.1307571101749794 0.06779108854410505 94.96497955225448
-4.426820424348406 2.049802470410765 31.94779352029019
-0.1291569047973966 -4.633128349075675 39.39250000862026
4.500018270470479 -1.82405892499708 31.78834411122982
-4.509956708099503 -0.5129696146770211 41.17036087003839
-1.013963467577546 -2.871739923485908 60.49035230693258
1.651216185910281 1.259938369079815 68.24301002631938
4.383190830199571 1.129795452127239 38.86227846296776
2.387750947988081 3.372408331916642 42.39608323588521
4.950195316466665 -6.661338147750939e-15 25.46211943840482
1.648103051657433 -3.810315694272765 49.35407244133792
-2.757039883450628 3.511877750849194 40.14034643908902
-1.561943296329171 -1.694234537897082 68.77038021631076
3.820924834368662 -2.974213758039909 40.25532219989871
1.970671653746279 3.517172871987222 46.78739136885859
-4.002147315514913 -0.08695430231875978 46.83753515823791
1.190485894098236 2.576639577710604 60.53212260015725
-2.017238255451851 3.866030414636497 49.23822141870787
2.70433080763592 -2.725973468874383 55.27415509896669
-2.550062239917517 -3.367564420833956 49.07923184638971
0.5055656981091334 3.838920949513341 55.50748175123584
-2.868785740570616 2.170041887606621 59.20582835435567
1.360319564547837 5.9556876636418 25.5691780429424
4.059409426054252 -0.4120582475110531 48.78785915922747
-1.950760100051291 0.6004719136647527 81.81350995205857
-5.517224294666533 -3.282793438533515 25.66033009915375
-3.560147678203752 -1.054310135390061 55.33037163887656
2.844926509152067 -1.258316149029021 59.91142177323934
2.240560225008384 -4.361843304428454 45.45015216641641
0.003287779162379434 -5.784520184332662 35.60182606742234
1.83669171391257 -0.4492323089535302 81.65258296607898

CELLS 3422 15618
1 0
1 1
1 2
1 3
1 4
1 5
1 6
1 7
1 8
1 9
1 10
1 11
2 0 12
2 12 13
2 13 14
2 14 15
2 15 16
2 16 1
2 0 17
2 17 18
2 18 19
2 19 20
2 20 1
2 2 21
2 21 22
2 22 23
2 23 24
2 24 25
2 25 0
2 2 26
2 26 27
2 27 28
2 28 29
2 29 3
2 1 30
2 30 31
2 31 32
2 32 33
2 33 34
2 34 3
2 2 35
2 35 36
2 36 37
2 37 3
2 4 38
2 38 39
2 39 40
2 40 41
2 41 42
2 42 43
2 43 44
2 44 45
2 45 46
2 46 47
2 47 48
2 48 49
2 49 50
2 50 51
2 51 52
2 52 53
2 53 54
2 54 55
2 55 4
2 5 56
2 56 57
2 57 6
2 5 58
2 58 59
2 59 60
2 60 61
2 61 7
2 6 62
2 62 63
2 63 7
2 8 64
2 64 65
2 65 66
2 66 67
2 67 68
2 68 69
2 69 8
2 4 70
2 70 71
2 71 72
2 72 73
2 73 74
2 74 75
2 75 76
2 76 77
2 77 78
2 78 79
2 79 80
2 80 81
2 81 82
2 82 83
2 83 84
2 84 85
2 85 86
2 86 87
2 87 88
2 88 89
2 89 90
2 90 91
2 91 92
2 92 93
2 93 94
2 94 8
2 9 95
2 95 96
2 96 97
2 97 98
2 98 99
2 99 5
2 9 100
2 100 101
2 101 10
2 6 102
2 102 103
2 103 104
2 104 105
2 105 106
2 106 10
2 7 107
2 107 108
2 108 109
2 109 110
2 110 111
2 111 11
2 9 112
2 112 113
2 113 114
2 114 11
2 10 115
2 115 116
2 116 11
3 12 147 0
3 0 147 25
3 1 145 16
3 30 145 1
3 21 144 2
3 2 144 26
3 29 143 3
3 3 143 34
3 13 138 12
3 138 147 12
3 14 119 13
3 119 138 13
3 15 148 14
3 14 148 119
3 16 122 15
3 122 148 15
3 16 145 122
3 22 132 21
3 132 144 21
3 23 117 22
3 117 132 22
3 24 131 23
3 23 131 117
3 25 123 24
3 123 131 24
3 25 147 123
3 26 135 27
3 26 144 135
3 27 120 28
3 27 135 120
3 28 133 29
3 120 133 28
3 133 143 29
3 31 139 30
3 139 145 30
3 32 118 31
3 118 139 31
3 33 124 32
3 32 124 118
3 34 121 33
3 121 124 33
3 34 143 121
3 130 132 117
3 117 146 130
3 131 146 117
3 124 125 118
3 125 126 118
3 126 139 118
3 136 138 119
3 119 140 136
3 137 140 119
3 119 148 137
3 120 134 133
3 120 141 134
3 135 141 120
3 121 142 124
3 133 134 121
3 121 143 133
3 134 142 121
3 126 137 122
3 122 139 126
3 137 148 122
3 122 145 139
3 123 136 131
3 123 138 136
3 123 147 138
3 124 142 125
3 125 127 126
3 125 128 127
3 125 142 128
3 127 137 126
3 128 129 127
3 129 140 127
3 127 140 137
3 128 130 129
3 128 134 130
3 128 142 134
3 130 146 129
3 136 140 129
3 129 146 136
3 130 141 132
3 134 141 130
3 136 146 131
3 132 141 135
3 135 144 132
3 0 172 17
3 25 172 0
3 1 20 30
3 2 168 21
3 35 168 2
3 34 169 3
3 3 169 37
3 17 164 18
3 17 172 164
3 18 149 19
3 18 164 149
3 19 155 20
3 149 155 19
3 20 155 30
3 21 157 22
3 21 168 157
3 22 150 23
3 22 157 150
3 23 161 24
3 150 161 23
3 24 154 25
3 24 161 154
3 154 172 25
3 30 170 31
3 155 170 30
3 31 152 32
3 31 170 152
3 32 167 33
3 152 167 32
3 33 151 34
3 33 167 151
3 151 169 34
3 36 153 35
3 153 168 35
3 37 162 36
3 36 162 153
3 37 169 162
3 149 156 155
3 149 163 156
3 149 164 163
3 157 158 150
3 158 159 150
3 159 161 150
3 151 166 162
3 162 169 151
3 151 171 166
3 167 171 151
3 156 165 152
3 152 170 156
3 152 165 160
3 160 167 152
3 153 166 157
3 157 168 153
3 162 166 153
3 161 163 154
3 163 164 154
3 164 172 154
3 156 170 155
3 163 165 156
3 157 166 158
3 158 160 159
3 158 171 160
3 166 171 158
3 160 165 159
3 159 163 161
3 159 165 163
3 160 171 167
3 35 2 26
3 29 3 37
3 27 173 26
3 26 173 35
3 28 173 27
3 29 174 28
3 28 174 173
3 37 174 29
3 35 173 36
3 36 174 37
3 173 174 36
3 0 175 7
3 7 177 0
3 48 0 12
3 0 177 17
3 47 0 48
3 47 175 0
3 4 1 5
3 55 1 4
3 1 178 5
3 16 1 55
3 20 178 1
3 38 4 5
3 56 38 5
3 5 178 58
3 42 41 6
3 6 41 57
3 6 182 42
3 62 182 6
3 46 45 7
3 45 63 7
3 7 175 46
3 61 177 7
3 49 12 13
3 48 12 49
3 14 181 13
3 13 50 49
3 13 181 50
3 15 52 14
3 14 52 51
3 51 181 14
3 16 53 15
3 15 53 52
3 16 54 53
3 16 55 54
3 17 179 18
3 17 177 61
3 61 179 17
3 18 176 19
3 60 176 18
3 18 179 60
3 19 180 20
3 19 176 59
3 59 180 19
3 58 178 20
3 20 180 58
3 39 38 56
3 40 39 56
3 41 40 57
3 57 40 56
3 42 182 43
3 44 43 62
3 43 182 62
3 44 63 45
3 62 63 44
3 46 175 47
3 50 181 51
3 58 180 59
3 59 176 60
3 60 179 61
3 38 533 4
3 4 534 55
3 4 533 70
3 70 534 4
3 8 530 64
3 69 529 8
3 8 529 94
3 94 530 8
3 39 494 38
3 494 533 38
3 40 205 39
3 205 494 39
3 41 501 40
3 40 501 205
3 42 518 41
3 41 518 501
3 43 195 42
3 195 518 42
3 44 485 43
3 43 485 195
3 45 486 44
3 44 486 485
3 46 191 45
3 191 486 45
3 47 484 46
3 46 484 191
3 48 206 47
3 206 484 47
3 49 520 48
3 48 520 206
3 50 192 49
3 192 520 49
3 51 508 50
3 50 508 192
3 52 456 51
3 456 508 51
3 53 197 52
3 197 456 52
3 54 481 53
3 53 481 197
3 55 209 54
3 209 481 54
3 55 534 209
3 64 215 65
3 64 530 215
3 65 204 66
3 65 215 204
3 66 373 67
3 204 373 66
3 67 208 68
3 67 373 208
3 68 406 69
3 208 406 68
3 406 529 69
3 70 210 71
3 71 496 70
3 70 533 210
3 496 534 70
3 72 207 71
3 71 480 72
3 207 496 71
3 210 480 71
3 72 203 73
3 73 438 72
3 72 480 203
3 72 438 207
3 74 194 73
3 73 436 74
3 194 438 73
3 203 436 73
3 74 190 75
3 75 410 74
3 74 436 190
3 74 410 194
3 75 429 76
3 76 435 75
3 190 429 75
3 75 435 410
3 77 187 76
3 76 395 77
3 187 435 76
3 76 429 395
3 77 185 78
3 78 398 77
3 77 395 185
3 77 398 187
3 79 428 78
3 78 540 79
3 185 540 78
3 78 428 398
3 80 199 79
3 79 510 80
3 199 428 79
3 372 510 79
3 79 540 372
3 80 189 81
3 81 214 80
3 80 510 189
3 80 214 199
3 82 186 81
3 81 514 82
3 186 214 81
3 189 514 81
3 82 423 83
3 83 483 82
3 82 483 186
3 82 514 423
3 83 188 84
3 84 424 83
3 83 423 188
3 424 483 83
3 85 202 84
3 84 421 85
3 188 421 84
3 202 424 84
3 85 213 86
3 86 392 85
3 85 392 202
3 85 421 213
3 86 183 87
3 87 201 86
3 86 213 183
3 201 392 86
3 88 425 87
3 87 476 88
3 183 476 87
3 87 425 201
3 89 198 88
3 88 419 89
3 198 425 88
3 88 476 419
3 89 200 90
3 90 212 89
3 89 212 198
3 89 419 200
3 91 184 90
3 90 412 91
3 184 212 90
3 200 412 90
3 91 193 92
3 92 407 91
3 91 407 184
3 91 412 193
3 93 196 92
3 92 519 93
3 193 519 92
3 196 407 92
3 93 211 94
3 94 405 93
3 93 405 196
3 93 519 211
3 211 530 94
3 94 529 405
3 213 230 183
3 230 231 183
3 231 476 183
3 184 219 212
3 184 357 219
3 184 407 357
3 395 396 185
3 396 499 185
3 499 540 185
3 186 246 214
3 186 247 246
3 186 483 247
3 187 398 397
3 397 399 187
3 399 435 187
3 188 482 421
3 423 524 188
3 188 524 482
3 362 427 189
3 189 510 362
3 189 427 365
3 365 514 189
3 190 430 429
3 190 431 430
3 190 436 431
3 484 525 191
3 191 500 486
3 191 525 500
3 453 454 192
3 192 508 453
3 454 455 192
3 455 520 192
3 412 414 193
3 414 538 193
3 193 538 519
3 194 408 378
3 378 438 194
3 194 410 408
3 353 518 195
3 195 537 353
3 485 537 195
3 405 511 196
3 196 521 407
3 511 521 196
3 197 488 456
3 481 522 197
3 197 522 488
3 212 374 198
3 374 375 198
3 375 425 198
3 214 379 199
3 379 380 199
3 380 428 199
3 200 413 412
3 200 487 413
3 419 487 200
3 391 392 201
3 201 393 391
3 201 425 393
3 202 392 390
3 390 492 202
3 202 492 424
3 433 436 203
3 203 437 433
3 203 480 437
3 215 216 204
3 216 217 204
3 217 373 204
3 473 495 205
3 205 501 473
3 205 495 494
3 359 484 206
3 206 502 359
3 455 502 206
3 206 520 455
3 415 416 207
3 207 438 415
3 416 496 207
3 208 489 364
3 364 541 208
3 373 489 208
3 208 541 406
3 416 481 209
3 209 496 416
3 209 534 496
3 210 495 480
3 494 495 210
3 210 533 494
3 211 216 215
3 215 530 211
3 211 366 216
3 211 519 366
3 219 374 212
3 213 422 230
3 421 422 213
3 246 379 214
3 216 218 217
3 216 366 218
3 218 220 217
3 220 489 217
3 217 489 373
3 218 221 220
3 218 371 221
3 366 371 218
3 357 377 219
3 219 404 374
3 377 404 219
3 221 222 220
3 222 224 220
3 224 489 220
3 221 223 222
3 221 226 223
3 221 371 226
3 223 420 222
3 222 225 224
3 222 420 225
3 226 227 223
3 227 228 223
3 228 420 223
3 225 363 224
3 363 364 224
3 364 489 224
3 225 535 363
3 225 420 377
3 377 535 225
3 226 509 227
3 371 414 226
3 414 509 226
3 227 229 228
3 227 236 229
3 227 509 236
3 229 237 228
3 237 240 228
3 240 420 228
3 236 517 229
3 229 238 237
3 229 517 238
3 230 232 231
3 230 233 232
3 230 422 233
3 232 234 231
3 234 346 231
3 346 476 231
3 233 446 232
3 232 235 234
3 232 446 235
3 422 545 233
3 233 516 446
3 233 545 516
3 235 356 234
3 234 376 346
3 356 376 234
3 235 497 356
3 446 536 235
3 235 536 497
3 376 517 236
3 236 532 376
3 509 532 236
3 238 239 237
3 239 478 237
3 237 478 240
3 238 241 239
3 238 497 241
3 238 517 497
3 241 242 239
3 242 326 239
3 326 478 239
3 240 404 377
3 377 420 240
3 240 478 404
3 241 243 242
3 241 358 243
3 241 497 358
3 243 244 242
3 244 527 242
3 242 527 326
3 243 245 244
3 243 460 245
3 358 460 243
3 245 252 244
3 252 544 244
3 394 527 244
3 244 544 394
3 245 253 252
3 245 254 253
3 245 460 254
3 247 248 246
3 248 411 246
3 246 411 379
3 247 249 248
3 247 347 249
3 247 483 347
3 249 250 248
3 250 251 248
3 251 411 248
3 249 526 250
3 347 513 249
3 513 526 249
3 250 256 251
3 250 328 256
3 250 526 328
3 256 257 251
3 257 445 251
3 251 445 411
3 253 318 252
3 318 333 252
3 333 544 252
3 254 255 253
3 255 466 253
3 253 466 318
3 254 258 255
3 254 302 258
3 254 460 302
3 258 259 255
3 259 465 255
3 465 466 255
3 256 260 257
3 256 403 260
3 328 403 256
3 260 261 257
3 261 266 257
3 266 445 257
3 258 291 259
3 258 449 291
3 302 449 258
3 291 293 259
3 293 342 259
3 342 465 259
3 260 262 261
3 260 370 262
3 260 403 370
3 262 263 261
3 263 402 261
3 261 402 266
3 262 264 263
3 262 464 264
3 370 464 262
3 264 265 263
3 265 468 263
3 263 468 402
3 264 267 265
3 264 275 267
3 264 464 275
3 267 268 265
3 268 269 265
3 269 468 265
3 266 402 400
3 400 444 266
3 444 445 266
3 267 279 268
3 275 543 267
3 267 543 279
3 268 270 269
3 268 512 270
3 279 512 268
3 270 271 269
3 271 472 269
3 269 472 468
3 270 272 271
3 270 278 272
3 270 512 278
3 272 273 271
3 273 274 271
3 274 472 271
3 272 276 273
3 272 439 276
3 278 439 272
3 273 434 274
3 276 277 273
3 277 434 273
3 434 470 274
3 470 474 274
3 274 474 472
3 464 515 275
3 515 531 275
3 531 543 275
3 276 280 277
3 276 281 280
3 276 439 281
3 280 282 277
3 282 283 277
3 283 434 277
3 278 440 439
3 278 503 440
3 278 512 503
3 367 368 279
3 279 543 367
3 368 369 279
3 369 512 279
3 281 287 280
3 280 451 282
3 287 451 280
3 281 288 287
3 281 459 288
3 439 459 281
3 282 284 283
3 282 300 284
3 282 451 300
3 284 285 283
3 285 469 283
3 283 469 434
3 284 286 285
3 284 477 286
3 300 477 284
3 286 289 285
3 289 290 285
3 290 469 285
3 286 292 289
3 286 452 292
3 286 477 452
3 288 303 287
3 303 340 287
3 340 451 287
3 288 304 303
3 288 305 304
3 288 459 305
3 289 417 290
3 292 301 289
3 301 417 289
3 417 418 290
3 418 447 290
3 447 469 290
3 291 294 293
3 291 295 294
3 291 449 295
3 292 329 301
3 292 330 329
3 292 452 330
3 294 341 293
3 341 498 293
3 293 498 342
3 295 296 294
3 296 448 294
3 294 448 341
3 295 297 296
3 295 345 297
3 295 449 345
3 297 298 296
3 298 299 296
3 299 448 296
3 297 443 298
3 345 349 297
3 349 443 297
3 298 334 299
3 298 348 334
3 298 443 348
3 334 335 299
3 335 336 299
3 336 448 299
3 451 467 300
3 467 491 300
3 300 491 477
3 329 331 301
3 331 332 301
3 332 417 301
3 302 450 449
3 302 458 450
3 302 460 458
3 304 461 303
3 303 354 340
3 303 461 354
3 305 306 304
3 306 319 304
3 319 461 304
3 305 307 306
3 305 441 307
3 305 459 441
3 307 308 306
3 308 463 306
3 306 463 319
3 307 309 308
3 307 310 309
3 307 441 310
3 309 314 308
3 314 316 308
3 316 463 308
3 310 311 309
3 311 493 309
3 309 493 314
3 310 312 311
3 310 442 312
3 441 442 310
3 312 313 311
3 313 507 311
3 311 507 493
3 312 315 313
3 312 325 315
3 312 442 325
3 315 322 313
3 322 324 313
3 324 507 313
3 314 317 316
3 314 321 317
3 314 493 321
3 315 323 322
3 315 505 323
3 325 505 315
3 317 320 316
3 320 350 316
3 350 463 316
3 317 327 320
3 321 528 317
3 317 528 327
3 318 343 333
3 318 355 343
3 318 466 355
3 319 462 461
3 319 475 462
3 463 475 319
3 327 473 320
3 320 353 350
3 320 473 353
3 321 432 431
3 431 433 321
3 321 493 432
3 433 528 321
3 323 344 322
3 322 396 324
3 344 396 322
3 323 360 344
3 323 523 360
3 505 523 323
3 396 504 324
3 324 504 430
3 430 507 324
3 325 503 369
3 369 505 325
3 442 503 325
3 326 506 478
3 490 506 326
3 326 527 490
3 437 495 327
3 327 528 437
3 327 495 473
3 328 465 403
3 328 542 465
3 526 542 328
3 330 488 329
3 329 339 331
3 329 488 339
3 452 453 330
3 453 456 330
3 456 488 330
3 331 378 332
3 339 415 331
3 331 415 378
3 378 408 332
3 408 409 332
3 409 417 332
3 343 390 333
3 390 391 333
3 391 544 333
3 334 427 335
3 348 365 334
3 365 427 334
3 335 337 336
3 335 338 337
3 335 427 338
3 337 351 336
3 351 457 336
3 336 457 448
3 338 539 337
3 337 352 351
3 337 539 352
3 338 361 360
3 360 539 338
3 338 362 361
3 338 427 362
3 339 416 415
3 339 522 416
3 488 522 339
3 354 359 340
3 359 467 340
3 340 467 451
3 448 457 341
3 457 515 341
3 341 515 498
3 370 403 342
3 342 498 370
3 403 465 342
3 355 513 343
3 343 492 390
3 343 513 492
3 360 361 344
3 361 499 344
3 344 499 396
3 345 516 349
3 449 450 345
3 450 516 345
3 376 487 346
3 419 476 346
3 346 487 419
3 347 483 424
3 424 492 347
3 492 513 347
3 348 423 365
3 348 524 423
3 443 524 348
3 349 482 443
3 349 545 482
3 516 545 349
3 353 537 350
3 350 475 463
3 350 537 475
3 352 367 351
3 367 531 351
3 351 531 457
3 352 368 367
3 352 523 368
3 352 539 523
3 473 501 353
3 501 518 353
3 354 525 359
3 461 500 354
3 500 525 354
3 466 542 355
3 355 526 513
3 355 542 526
3 356 517 376
3 497 517 356
3 357 535 377
3 407 521 357
3 521 535 357
3 458 460 358
3 358 536 458
3 497 536 358
3 359 502 467
3 359 525 484
3 523 539 360
3 362 372 361
3 372 499 361
3 362 510 372
3 363 511 364
3 363 521 511
3 363 535 521
3 511 541 364
3 423 514 365
3 366 538 371
3 519 538 366
3 367 543 531
3 368 505 369
3 368 523 505
3 503 512 369
3 370 498 464
3 371 538 414
3 372 540 499
3 374 506 375
3 404 506 374
3 393 425 375
3 375 490 393
3 375 506 490
3 376 532 487
3 415 438 378
3 379 381 380
3 379 411 381
3 381 382 380
3 382 383 380
3 383 428 380
3 381 444 382
3 411 445 381
3 381 445 444
3 382 384 383
3 382 385 384
3 382 444 385
3 384 397 383
3 397 398 383
3 398 428 383
3 385 386 384
3 386 471 384
3 384 471 397
3 385 387 386
3 385 400 387
3 385 444 400
3 387 388 386
3 388 389 386
3 389 471 386
3 387 474 388
3 400 401 387
3 401 474 387
3 388 447 389
3 388 470 447
3 388 474 470
3 418 426 389
3 389 447 418
3 426 471 389
3 390 392 391
3 393 394 391
3 394 544 391
3 393 490 394
3 490 527 394
3 395 504 396
3 429 504 395
3 397 471 399
3 399 471 426
3 426 479 399
3 399 479 435
3 400 402 401
3 402 468 401
3 468 472 401
3 472 474 401
3 478 506 404
3 405 529 406
3 406 541 405
3 405 541 511
3 408 479 409
3 410 479 408
3 409 418 417
3 409 426 418
3 409 479 426
3 435 479 410
3 413 414 412
3 413 509 414
3 487 532 413
3 413 532 509
3 416 522 481
3 421 482 422
3 482 545 422
3 430 504 429
3 431 432 430
3 432 507 430
3 431 436 433
3 493 507 432
3 437 528 433
3 469 470 434
3 480 495 437
3 440 459 439
3 440 442 441
3 441 459 440
3 440 503 442
3 482 524 443
3 450 458 446
3 446 516 450
3 458 536 446
3 447 470 469
3 452 454 453
3 452 477 454
3 453 508 456
3 454 491 455
3 477 491 454
3 491 502 455
3 457 531 515
3 462 500 461
3 475 485 462
3 485 486 462
3 486 500 462
3 498 515 464
3 465 542 466
3 467 502 491
3 475 537 485
3 56 5 560
3 5 99 560
3 6 57 559
3 102 6 559
3 95 9 557
3 9 100 557
3 101 10 558
3 10 106 558
3 57 56 554
3 554 56 560
3 57 554 559
3 96 95 550
3 550 95 557
3 97 96 547
3 547 96 550
3 98 97 555
3 97 547 555
3 99 98 549
3 549 98 555
3 99 549 560
3 100 101 548
3 100 548 557
3 548 101 558
3 103 102 546
3 546 102 559
3 104 103 556
3 103 546 556
3 105 104 552
3 552 104 556
3 106 105 551
3 551 105 552
3 106 551 558
3 554 546 559
3 546 554 561
3 556 546 561
3 547 550 562
3 547 552 553
3 552 547 562
3 547 553 555
3 550 548 551
3 548 550 557
3 551 548 558
3 549 554 560
3 554 549 561
3 549 555 561
3 550 551 562
3 551 552 562
3 553 552 556
3 555 553 561
3 553 556 561
3 5 58 586
3 99 5 586
3 7 107 61
3 9 95 582
3 112 9 582
3 111 11 583
3 11 114 583
3 58 59 578
3 58 578 586
3 59 60 563
3 59 563 578
3 60 61 569
3 563 60 569
3 61 107 569
3 95 96 571
3 95 571 582
3 96 97 564
3 96 564 571
3 97 98 575
3 564 97 575
3 98 99 568
3 98 568 575
3 568 99 586
3 107 108 584
3 569 107 584
3 108 109 566
3 108 566 584
3 109 110 581
3 566 109 581
3 110 111 565
3 110 565 581
3 565 111 583
3 113 112 567
3 567 112 582
3 114 113 576
3 113 567 576
3 114 576 583
3 563 569 570
3 563 570 577
3 563 577 578
3 571 564 572
3 572 564 573
3 573 564 575
3 565 576 580
3 576 565 583
3 565 580 585
3 581 565 585
3 570 566 579
3 566 570 584
3 566 574 579
3 574 566 581
3 567 571 580
3 571 567 582
3 576 567 580
3 575 568 577
3 577 568 578
3 578 568 586
3 570 569 584
3 577 570 579
3 571 572 580
3 572 573 574
3 572 574 585
3 580 572 585
3 574 573 579
3 573 575 577
3 573 577 579
3 574 581 585
3 62 6 600
3 6 102 600
3 7 63 601
3 107 7 601
3 106 10 599
3 10 115 599
3 11 111 598
3 116 11 598
3 63 62 596
3 596 62 600
3 63 596 601
3 102 103 587
3 102 587 600
3 103 104 594
3 587 103 594
3 104 105 593
3 104 593 594
3 105 106 592
3 105 592 593
3 592 106 599
3 108 107 590
3 590 107 601
3 109 108 595
3 108 590 595
3 110 109 588
3 588 109 595
3 111 110 591
3 110 588 591
3 111 591 598
3 115 116 589
3 115 589 599
3 589 116 598
3 587 594 597
3 596 587 597
3 587 596 600
3 591 588 603
3 588 595 602
3 588 602 603
3 589 591 592
3 591 589 598
3 589 592 599
3 595 590 597
3 590 596 597
3 596 590 601
3 592 591 603
3 593 592 603
3 594 593 602
3 602 593 603
3 597 594 602
3 595 597 602
3 64 604 8
3 8 604 69
3 65 604 64
3 66 604 65
3 67 604 66
3 68 604 67
3 69 604 68
3 112 100 9
3 10 101 606
3 115 10 605
3 605 10 606
3 11 116 114
3 101 100 606
3 100 112 606
3 112 113 606
3 113 114 605
3 113 605 606
3 114 116 605
3 116 115 605
4 348 629 298 652
4 539 620 643 646
4 625 640 355 653
4 361 620 642 643
4 355 640 625 661
4 348 298 649 652
4 389 614 28 624
4 348 649 629 652
4 618 620 267 646
4 419 612 89 616
4 198 89 612 616
4 185 628 615 638
4 298 652 629 655
4 229 238 612 616
4 610 640 625 653
4 318 640 355 661
4 237 612 238 616
4 460 640 254 656
4 343 355 640 653
4 478 612 237 616
4 543 267 620 646
4 625 640 610 661
4 389 386 614 624
4 229 237 238 616
4 539 620 338 643
4 239 237 478 612
4 198 612 374 616
4 174 28 614 624
4 395 638 615 644
4 395 77 638 644
4 361 338 620 643
4 466 318 355 661
4 487 612 419 616
4 267 620 618 636
4 610 629 84 653
4 610 653 84 662
4 389 426 28 614
4 245 254 460 640
4 261 637 618 639
4 614 624 386 630
4 318 343 355 640
4 539 360 338 620
4 116 278 11 626
4 234 612 356 641
4 278 613 11 626
4 629 652 627 655
4 187 638 77 644
4 376 612 487 616
4 539 643 337 646
4 267 639 618 646
4 386 471 389 614
4 238 237 239 612
4 342 654 627 661
4 421 651 610 662
4 619 637 261 639
4 344 628 620 633
4 611 641 536 647
4 395 185 615 638
4 88 89 419 612
4 543 620 267 636
4 348 298 629 655
4 402 618 261 637
4 88 198 89 612
4 342 650 627 654
4 29 614 435 644
4 447 28 27 624
4 28 426 29 614
4 361 620 628 642
4 263 261 618 639
4 358 611 536 647
4 460 611 640 656
4 361 338 360 620
4 497 641 612 647
4 229 238 517 612
4 543 279 620 636
4 84 188 610 662
4 293 627 342 650
4 615 628 396 633
4 29 399 435 614
4 78 617 428 642
4 397 614 471 630
4 536 641 235 647
4 84 610 188 629
4 384 397 471 630
4 229 612 517 616
4 28 29 174 614
4 627 654 625 661
4 257 261 619 637
4 78 628 617 642
4 76 187 77 644
4 478 506 612 616
4 447 389 28 624
4 344 396 628 633
4 397 614 630 638
4 536 611 235 641
4 375 612 425 647
4 402 263 261 618
4 11 613 114 626
4 344 620 323 633
4 421 610 188 662
4 425 612 641 647
4 235 234 356 641
4 116 11 114 626
4 374 612 506 616
4 613 631 626 633
4 629 649 609 652
4 614 638 187 644
4 360 620 344 628
4 348 443 298 655
4 269 265 634 636
4 617 628 78 638
4 245 460 611 640
4 78 428 617 638
4 395 77 185 638
4 348 629 649 658
4 396 615 185 628
4 617 618 608 620
4 607 618 617 620
4 460 458 611 656
4 113 605 631 657
4 532 376 487 616
4 517 612 376 616
4 384 617 383 638
4 532 236 376 616
4 188 629 610 655
4 536 358 458 611
4 397 630 384 638
4 618 634 265 636
4 386 471 614 630
4 174 624 614 631
4 627 650 293 652
4 374 198 375 612
4 401 634 618 664
4 230 213 183 641
4 389 471 426 614
4 539 338 337 643
4 543 267 279 636
4 200 419 89 616
4 497 235 641 647
4 440 278 116 626
4 11 278 272 613
4 607 631 613 633
4 393 391 394 647
4 504 615 100 644
4 260 619 261 639
4 384 630 617 638
4 89 198 212 616
4 375 425 393 647
4 239 478 326 612
4 497 536 235 647
4 517 376 236 616
4 426 399 29 614
4 617 620 608 642
4 401 618 402 664
4 360 323 344 620
4 174 173 28 624
4 617 628 620 642
4 487 346 419 612
4 358 460 458 611
4 608 642 620 643
4 235 536 446 611
4 259 342 627 661
4 200 487 419 616
4 389 388 386 624
4 252 611 544 640
4 3 29 435 644
4 84 421 188 662
4 254 656 640 661
4 393 201 611 647
4 254 640 253 661
4 230 611 213 641
4 627 650 609 654
4 114 113 605 631
4 35 173 36 631
4 201 641 611 647
4 543 639 267 646
4 235 446 232 641
4 460 302 458 656
4 358 243 460 611
4 393 611 391 647
4 244 544 252 611
4 212 198 374 616
4 607 620 617 628
4 620 608 643 646
4 348 524 443 655
4 348 423 629 658
4 435 614 187 644
4 2 11 272 613
4 88 425 612 641
4 376 346 487 612
4 483 629 645 653
4 367 543 279 620
4 449 627 295 655
4 391 611 394 647
4 235 611 446 641
4 324 101 100 657
4 271 613 270 634
4 245 611 252 640
4 243 611 358 647
4 446 611 232 641
4 445 637 619 663
4 615 628 607 638
4 367 543 620 646
4 382 383 384 617
4 382 617 384 664
4 262 260 261 639
4 264 618 267 639
4 113 631 606 657
4 401 630 634 664
4 269 268 265 636
4 483 645 347 653
4 435 399 187 614
4 266 402 261 637
4 361 620 360 628
4 615 638 614 644
4 482 421 651 655
4 35 624 631 660
4 617 630 384 664
4 395 76 77 644
4 474 630 624 634
4 468 269 265 634
4 245 244 252 611
4 497 358 536 647
4 419 476 88 612
4 449 627 655 656
4 174 37 36 631
4 476 88 612 641
4 213 611 230 651
4 637 648 619 663
4 337 643 622 646
4 324 100 615 657
4 35 114 2 613
4 611 651 213 662
4 293 259 342 627
4 419 346 476 612
4 348 629 524 655
4 626 631 605 657
4 619 648 623 663
4 267 618 265 636
4 35 631 613 660
4 504 324 100 615
4 394 544 244 611
4 460 254 302 656
4 468 265 618 634
4 241 238 239 612
4 483 645 629 658
4 271 270 269 634
4 243 245 460 611
4 458 446 611 656
4 411 648 637 663
4 326 478 506 612
4 622 639 515 646
4 608 619 637 648
4 261 260 257 619
4 617 618 607 630
4 474 387 630 634
4 402 618 637 664
4 234 376 356 612
4 86 611 213 662
4 270 634 613 636
4 113 606 605 657
4 506 374 375 612
4 250 251 654 663
4 183 213 86 641
4 618 630 617 664
4 606 113 112 631
4 173 27 28 624
4 510 642 80 643
4 449 291 627 661
4 608 623 619 648
4 2 114 11 613
4 114 605 626 631
4 272 2 613 660
4 400 401 402 664
4 515 639 622 650
4 337 335 622 643
4 401 468 402 618
4 401 468 618 634
4 516 651 450 656
4 79 78 428 642
4 411 637 445 663
4 465 654 342 661
4 490 612 375 647
4 474 387 624 630
4 114 626 613 631
4 250 654 645 663
4 613 607 624 631
4 536 458 446 611
4 449 627 656 661
4 243 244 245 611
4 243 244 611 647
4 361 642 362 643
4 174 614 37 631
4 251 619 654 663
4 234 346 612 641
4 614 615 607 638
4 337 335 336 622
4 269 634 270 636
4 35 624 173 631
4 490 375 393 647
4 381 617 382 637
4 115 10 312 657
4 474 401 387 634
4 174 29 37 614
4 257 619 445 637
4 614 624 607 631
4 241 612 239 647
4 449 295 345 655
4 262 370 260 639
4 445 619 251 663
4 80 642 623 643
4 86 213 85 662
4 198 88 425 612
4 458 450 446 656
4 35 114 613 631
4 344 322 396 633
4 504 100 429 644
4 232 611 230 641
4 607 628 615 633
4 381 382 617 648
4 381 380 382 648
4 388 389 447 624
4 395 185 396 615
4 446 651 611 656
4 627 629 609 652
4 613 633 626 636
4 411 381 637 648
4 322 615 396 633
4 337 622 336 646
4 394 611 244 647
4 275 639 543 646
4 386 624 388 630
4 482 188 421 655
4 476 612 346 641
4 381 617 637 648
4 613 624 607 634
4 213 611 86 641
4 380 617 382 648
4 626 631 615 633
4 607 633 613 636
4 606 112 615 631
4 446 450 651 656
4 471 399 426 614
4 619 622 609 623
4 449 655 345 656
4 256 251 619 654
4 263 618 264 639
4 234 346 376 612
4 428 642 617 648
4 256 250 251 654
4 607 624 614 630
4 239 612 326 647
4 343 653 640 662
4 613 631 624 660
4 387 388 624 630
4 115 312 626 657
4 393 201 391 611
4 445 257 251 619
4 625 654 465 661
4 265 267 264 618
4 449 258 291 661
4 609 650 627 652
4 267 265 268 636
4 401 630 387 634
4 387 388 474 624
4 29 37 614 644
4 606 112 100 615
4 543 275 267 639
4 510 80 189 643
4 608 622 619 623
4 375 198 425 612
4 265 264 263 618
4 88 87 425 641
4 470 27 26 624
4 187 614 397 638
4 613 634 271 660
4 343 513 355 653
4 383 617 428 638
4 377 616 659 665
4 254 253 255 661
4 608 620 618 646
4 233 230 232 611
4 293 650 341 652
4 531 515 639 646
4 448 336 299 652
4 448 341 622 652
4 607 615 614 631
4 361 360 344 628
4 625 627 609 654
4 368 633 620 636
4 225 222 224 632
4 336 335 299 622
4 516 446 450 651
4 225 621 222 632
4 499 344 396 628
4 401 387 630 664
4 492 653 343 662
4 89 616 212 665
4 377 404 616 665
4 90 89 212 665
4 80 623 189 643
4 382 637 617 664
4 271 634 472 660
4 402 637 266 664
4 608 618 639 646
4 483 247 347 645
4 448 622 336 652
4 113 114 36 631
4 394 391 544 611
4 241 497 238 612
4 100 615 112 644
4 363 621 225 632
4 411 381 445 637
4 464 639 515 650
4 336 622 299 652
4 397 384 383 638
4 497 612 241 647
4 401 400 387 664
4 514 649 623 658
4 294 627 293 652
4 222 621 221 632
4 514 189 623 649
4 299 622 335 649
4 449 656 258 661
4 448 341 457 622
4 341 650 622 652
4 363 521 535 621
4 249 645 625 653
4 347 645 249 653
4 379 214 648 663
4 187 399 397 614
4 478 404 506 616
4 608 618 617 637
4 257 266 261 637
4 233 230 611 651
4 470 447 27 624
4 608 637 619 639
4 623 642 80 648
4 386 384 471 630
4 615 606 631 657
4 515 622 341 650
4 275 531 515 639
4 413 659 616 665
4 78 398 428 638
4 395 615 504 644
4 391 640 611 662
4 84 629 83 653
4 361 362 338 643
4 609 649 629 658
4 626 633 369 636
4 607 615 631 633
4 363 535 225 621
4 607 630 618 634
4 470 624 26 660
4 429 100 9 644
4 229 517 236 616
4 298 334 348 649
4 363 225 224 632
4 521 621 363 632
4 540 628 78 642
4 513 625 355 653
4 369 626 325 633
4 398 383 428 638
4 487 413 532 616
4 356 376 517 612
4 113 36 37 631
4 457 341 515 622
4 337 336 351 646
4 622 649 299 652
4 618 637 608 639
4 240 377 616 659
4 476 87 88 641
4 615 631 626 657
4 2 35 613 660
4 193 538 621 632
4 299 649 298 652
4 623 648 214 663
4 407 92 621 632
4 86 392 611 662
4 624 630 607 634
4 270 278 512 613
4 254 258 656 661
4 487 200 413 616
4 449 291 295 627
4 219 616 404 665
4 369 503 626 636
4 312 315 626 657
4 264 267 275 639
4 35 36 114 631
4 185 78 628 638
4 234 231 346 641
4 37 112 113 631
4 101 606 100 657
4 345 349 651 655
4 505 523 620 633
4 619 622 608 639
4 326 612 490 647
4 193 621 92 632
4 503 278 440 626
4 519 538 92 632
4 356 517 497 612
4 233 232 446 611
4 368 367 279 620
4 200 413 616 665
4 228 237 229 616
4 544 611 391 640
4 201 86 611 641
4 618 634 630 664
4 270 272 278 613
4 345 655 651 656
4 315 633 626 657
4 606 615 100 657
4 413 414 659 665
4 492 343 390 662
4 233 611 446 651
4 112 615 631 644
4 513 249 625 653
4 399 471 397 614
4 185 77 78 638
4 115 605 10 657
4 272 270 271 613
4 323 620 523 633
4 615 633 322 657
4 193 92 538 632
4 272 613 271 660
4 227 229 236 616
4 391 390 640 662
4 299 334 298 649
4 505 620 368 633
4 294 293 341 652
4 404 374 506 616
4 214 623 80 648
4 240 377 404 616
4 360 523 323 620
4 256 619 260 654
4 618 620 607 636
4 259 465 342 661
4 539 352 620 646
4 428 199 79 648
4 497 241 358 647
4 645 658 186 663
4 37 631 614 644
4 387 386 388 630
4 92 519 193 538
4 478 237 240 616
4 422 213 230 651
4 238 497 517 612
4 343 640 390 662
4 368 620 279 636
4 428 79 642 648
4 371 221 621 632
4 435 187 76 644
4 101 430 324 100
4 253 254 245 640
4 368 505 523 620
4 531 639 275 646
4 444 381 382 637
4 407 621 521 632
4 514 423 365 658
4 295 296 297 627
4 37 112 631 644
4 173 624 35 660
4 263 262 261 639
4 476 346 231 641
4 428 617 380 648
4 388 447 470 624
4 391 611 392 662
4 609 622 619 650
4 345 349 516 651
4 322 324 615 657
4 115 626 605 657
4 625 645 629 653
4 622 639 619 650
4 239 326 242 647
4 444 637 382 664
4 538 371 621 632
4 189 643 623 649
4 312 442 115 626
4 622 643 335 649
4 186 658 623 663
4 424 84 83 653
4 499 396 185 628
4 411 379 648 663
4 220 222 221 632
4 526 625 645 654
4 228 616 229 659
4 512 270 613 636
4 227 229 616 659
4 399 29 435 479
4 369 512 503 636
4 445 251 411 663
4 345 651 516 656
4 81 514 189 623
4 609 623 622 649
4 228 240 237 616
4 607 620 628 633
4 201 86 392 611
4 640 656 610 661
4 241 239 242 647
4 29 3 37 644
4 626 633 615 657
4 411 379 381 648
4 514 365 649 658
4 439 272 11 278
4 526 645 250 654
4 514 623 81 658
4 402 266 400 664
4 377 219 404 665
4 269 270 268 636
4 621 659 414 665
4 619 623 609 663
4 383 380 428 617
4 27 173 26 624
4 499 361 344 628
4 274 271 472 660
4 622 623 608 643
4 524 629 188 655
4 526 513 249 625
4 509 616 413 659
4 250 645 248 663
4 429 395 504 644
4 84 653 424 662
4 250 248 251 663
4 404 478 240 616
4 402 468 263 618
4 370 639 464 650
4 391 201 392 611
4 293 291 259 627
4 407 196 92 632
4 79 540 78 642
4 483 247 645 658
4 618 617 637 664
4 115 442 116 626
4 610 655 627 656
4 84 188 83 629
4 383 382 380 617
4 254 255 258 661
4 472 271 269 634
4 315 325 312 626
4 223 221 222 621
4 513 347 249 653
4 505 633 368 636
4 468 265 263 618
4 623 608 642 648
4 523 360 539 620
4 396 322 324 615
4 617 630 607 638
4 610 656 627 661
4 384 630 385 664
4 361 628 372 642
4 516 233 446 651
4 382 384 385 664
4 325 626 315 633
4 212 374 219 616
4 293 294 291 627
4 377 659 621 665
4 413 412 414 665
4 260 370 403 650
4 199 214 80 648
4 609 627 625 629
4 640 653 610 662
4 274 474 470 624
4 623 645 609 663
4 336 448 457 622
4 609 629 625 645
4 483 629 82 658
4 217 218 216 632
4 614 607 630 638
4 214 379 246 663
4 369 633 505 636
4 227 236 509 616
4 315 322 633 657
4 391 392 390 662
4 366 632 211 635
4 91 621 412 665
4 227 228 229 659
4 544 391 333 640
4 366 216 632 635
4 407 521 196 632
4 26 624 173 660
4 86 85 392 662
4 607 628 617 638
4 623 642 608 643
4 532 413 509 616
4 92 91 407 621
4 83 629 483 653
4 624 634 613 660
4 407 91 184 621
4 504 324 430 100
4 240 616 228 659
4 202 84 424 662
4 116 442 440 626
4 505 369 325 633
4 526 625 249 645
4 625 627 610 629
4 295 627 297 655
4 212 616 219 665
4 391 390 333 640
4 614 631 615 644
4 184 621 91 665
4 618 607 634 636
4 217 632 216 635
4 200 412 413 665
4 470 274 624 660
4 222 420 223 621
4 3 435 75 644
4 186 645 247 658
4 324 507 101 657
4 509 227 616 659
4 232 234 235 641
4 224 222 220 632
4 355 513 526 625
4 404 219 374 616
4 474 472 401 634
4 425 87 201 641
4 26 173 35 660
4 509 413 414 659
4 294 296 295 627
4 236 532 509 616
4 539 337 352 646
4 193 412 91 621
4 256 260 403 654
4 297 298 443 655
4 609 645 623 658
4 255 253 466 661
4 396 504 395 615
4 424 83 483 653
4 464 370 262 639
4 214 186 81 623
4 347 247 249 645
4 76 75 435 644
4 83 82 483 629
4 302 450 458 656
4 257 256 251 619
4 366 211 216 635
4 328 625 526 654
4 114 605 116 626
4 344 323 322 633
4 296 627 294 652
4 434 470 26 660
4 514 365 189 649
4 412 621 414 665
4 399 426 29 479
4 464 275 515 639
4 328 465 542 625
4 193 91 92 621
4 620 633 607 636
4 202 424 653 662
4 241 243 358 647
4 257 445 266 637
4 371 218 221 632
4 257 260 256 619
4 428 380 199 648
4 524 348 423 629
4 9 100 112 644
4 377 621 357 665
4 524 188 482 655
4 222 225 420 621
4 223 621 420 659
4 223 226 221 621
4 77 398 78 638
4 511 364 541 635
4 81 623 186 658
4 189 427 643 649
4 369 505 368 636
4 511 632 364 635
4 368 352 367 620
4 80 81 189 623
4 498 464 515 650
4 337 338 335 643
4 629 645 609 658
4 542 625 465 661
4 498 341 293 650
4 523 539 352 620
4 328 542 526 625
4 483 186 247 658
4 367 620 352 646
4 523 352 368 620
4 23 340 109 108
4 613 634 607 636
4 310 115 10 312
4 457 531 351 646
4 259 627 291 661
4 232 231 234 641
4 343 333 390 640
4 396 324 504 615
4 420 621 377 659
4 77 187 398 638
4 366 519 211 632
4 328 526 250 654
4 510 362 642 643
4 226 414 621 659
4 623 643 622 649
4 610 640 651 656
4 465 625 328 654
4 397 383 398 638
4 545 516 349 651
4 187 397 398 638
4 388 470 474 624
4 511 405 632 635
4 611 651 640 656
4 608 617 642 648
4 211 632 93 635
4 535 377 225 621
4 377 420 225 621
4 623 658 645 663
4 233 422 230 651
4 218 220 221 632
4 115 116 605 626
4 372 361 499 628
4 405 93 632 635
4 75 9 3 644
4 608 637 617 648
4 608 639 622 646
4 470 26 27 469
4 231 232 230 641
4 466 542 465 661
4 217 489 632 635
4 217 220 218 632
4 226 371 221 621
4 193 414 412 621
4 267 268 279 636
4 362 361 372 642
4 204 215 604 635
4 407 184 357 621
4 196 511 405 632
4 622 643 608 646
4 263 264 262 639
4 204 604 373 635
4 80 214 81 623
4 401 472 468 634
4 274 470 434 660
4 93 211 519 632
4 604 406 208 635
4 75 429 9 644
4 429 76 395 644
4 421 213 422 651
4 98 71 31 99
4 335 643 427 649
4 529 406 604 635
4 253 245 252 640
4 101 10 311 558
4 538 371 414 621
4 364 632 489 635
4 231 230 183 641
4 295 297 345 655
4 226 621 223 659
4 535 357 377 621
4 423 82 629 658
4 372 628 540 642
4 217 489 220 632
4 196 405 93 632
4 184 357 621 665
4 610 629 627 655
4 246 248 247 663
4 418 28 447 389
4 472 269 468 634
4 610 627 625 661
4 291 294 295 627
4 507 430 324 101
4 248 645 247 663
4 498 515 341 650
4 540 185 78 628
4 315 313 322 657
4 530 94 604 635
4 530 604 215 635
4 521 363 511 632
4 175 47 25 484
4 218 366 216 632
4 490 393 394 647
4 510 189 362 643
4 542 355 526 625
4 593 105 104 316
4 334 299 335 649
4 201 87 86 641
4 385 630 387 664
4 492 202 653 662
4 302 254 258 656
4 622 650 609 652
4 526 249 250 645
4 589 115 599 441
4 276 11 2 281
4 281 11 21 111
4 312 310 115 442
4 538 414 193 621
4 272 273 2 660
4 75 76 429 644
4 503 440 442 626
4 538 366 371 632
4 337 351 352 646
4 208 373 604 635
4 10 311 312 657
4 529 604 94 635
4 189 365 427 649
4 199 379 214 648
4 625 629 610 653
4 106 592 599 309
4 470 434 26 469
4 531 275 543 646
4 349 482 651 655
4 424 483 347 653
4 435 29 3 479
4 609 649 622 652
4 511 541 405 635
4 385 384 386 630
4 200 90 412 665
4 109 340 354 108
4 226 509 414 659
4 492 202 424 653
4 310 599 115 441
4 105 593 463 316
4 418 426 28 389
4 364 363 224 632
4 527 242 326 647
4 83 423 82 629
4 312 313 315 657
4 610 651 640 662
4 372 499 540 628
4 290 28 27 418
4 120 290 27 135
4 469 27 290 135
4 400 385 387 664
4 489 364 224 632
4 527 326 490 647
4 21 2 11 281
4 226 414 371 621
4 447 27 28 418
4 296 299 298 652
4 258 259 291 661
4 498 293 342 650
4 105 593 308 463
4 71 31 97 98
4 71 31 32 97
4 556 317 104 552
4 272 11 2 276
4 276 272 11 439
4 357 535 521 621
4 592 599 309 307
4 343 492 513 653
4 116 115 441 442
4 343 318 333 640
4 463 593 104 316
4 31 118 139 416
4 27 447 290 418
4 521 511 196 632
4 619 609 650 654
4 128 292 129 127
4 403 650 342 654
4 604 66 204 373
4 563 176 59 149
4 18 176 563 149
4 371 366 218 632
4 208 604 68 406
4 357 521 407 621
4 364 511 363 632
4 127 126 125 488
4 365 348 334 649
4 623 649 609 658
4 266 637 444 664
4 512 268 270 636
4 591 459 598 305
4 651 655 610 656
4 604 204 65 215
4 545 349 482 651
4 303 288 110 588
4 329 127 125 488
4 47 25 0 175
4 294 341 448 652
4 373 604 67 208
4 377 357 219 665
4 489 224 220 632
4 322 313 324 657
4 288 459 598 591
4 588 288 110 591
4 490 394 527 647
4 2 21 276 281
4 387 385 386 630
4 94 604 8 530
4 519 366 538 632
4 463 308 105 316
4 183 86 87 641
4 24 25 525 107
4 588 595 109 461
4 423 514 82 658
4 503 325 369 626
4 24 25 359 525
4 290 285 469 135
4 576 114 36 113
4 109 303 588 461
4 303 288 588 304
4 320 317 104 556
4 309 106 592 308
4 84 85 421 662
4 527 394 244 647
4 505 323 523 633
4 183 476 231 641
4 482 421 422 651
4 120 285 290 135
4 588 288 591 304
4 502 25 24 123
4 426 28 29 409
4 498 370 464 650
4 3 9 74 95
4 287 21 110 111
4 609 645 625 654
4 98 549 555 210
4 325 442 312 626
4 334 335 427 649
4 8 604 94 529
4 111 281 11 598
4 118 32 124 415
4 546 320 103 556
4 488 126 125 339
4 101 311 493 558
4 588 603 602 304
4 107 525 24 108
4 196 93 92 632
4 445 381 444 637
4 266 444 400 664
4 32 72 71 97
4 640 651 611 662
4 125 329 488 339
4 301 128 142 329
4 1 4 5 70
4 316 317 105 552
4 312 311 313 657
4 409 28 133 417
4 95 9 582 169
4 316 317 104 320
4 307 589 599 441
4 113 567 112 162
4 492 390 202 662
4 272 271 273 660
4 79 372 540 642
4 113 37 36 162
4 505 325 315 633
4 281 459 11 598
4 182 102 6 518
4 451 300 117 282
4 292 129 127 330
4 519 92 93 632
4 403 342 465 654
4 113 36 576 162
4 106 105 308 314
4 72 32 33 97
4 411 246 379 663
4 102 182 195 518
4 592 309 308 307
4 32 438 124 415
4 319 602 603 304
4 423 188 524 629
4 22 23 340 109
4 114 36 35 576
4 112 37 113 162
4 71 30 31 99
4 309 599 10 310
4 551 552 321 562
4 600 102 182 195
4 106 105 592 308
4 112 582 9 169
4 104 317 316 552
4 451 117 22 282
4 314 317 105 316
4 10 310 312 311
4 427 335 338 643
4 118 31 207 416
4 71 70 30 99
4 439 11 459 116
4 128 125 142 329
4 289 292 128 301
4 496 31 139 416
4 120 28 418 417
4 241 242 243 647
4 183 87 476 641
4 122 126 137 522
4 99 70 5 533
4 565 583 168 576
4 169 162 582 151
4 599 310 307 441
4 240 420 377 659
4 30 70 5 99
4 28 120 133 417
4 381 379 380 648
4 36 153 576 162
4 567 113 576 162
4 161 24 23 108
4 370 342 403 650
4 598 111 288 591
4 277 26 2 273
4 285 284 283 135
4 288 459 591 305
4 153 35 36 576
4 319 603 306 304
4 28 409 418 417
4 317 314 552 551
4 306 602 603 319
4 552 314 105 551
4 605 606 10 657
4 285 286 284 141
4 110 22 340 109
4 105 317 314 552
4 333 252 544 640
4 51 14 181 508
4 510 362 372 642
4 447 470 27 469
4 127 128 292 329
4 290 27 28 120
4 243 242 244 647
4 530 604 64 215
4 593 602 603 306
4 13 50 181 508
4 129 452 136 140
4 256 328 250 654
4 321 558 551 548
4 508 14 181 119
4 345 516 450 656
4 321 551 550 548
4 329 142 301 331
4 484 175 46 107
4 362 189 427 643
4 252 318 253 640
4 418 290 120 417
4 37 9 112 644
4 308 309 106 314
4 340 359 354 108
4 289 292 286 130
4 429 504 430 100
4 552 317 321 562
4 289 292 130 128
4 266 445 444 637
4 74 34 3 95
4 550 551 321 562
4 323 315 322 633
4 510 79 80 642
4 451 23 117 467
4 96 33 73 95
4 340 303 110 109
4 524 482 443 655
4 97 33 72 96
4 364 208 541 635
4 469 283 26 135
4 316 105 104 552
4 24 25 502 359
4 249 248 250 645
4 529 69 604 406
4 109 595 354 461
4 499 185 540 628
4 162 567 582 151
4 37 9 169 112
4 287 21 22 110
4 110 288 287 111
4 483 82 186 658
4 142 332 331 378
4 440 439 459 116
4 558 321 432 548
4 74 9 3 75
4 26 273 434 660
4 550 321 433 562
4 2 273 26 660
4 32 31 71 207
4 3 410 435 479
4 367 531 543 646
4 276 2 272 273
4 99 98 71 210
4 33 34 73 95
4 97 31 575 98
4 120 28 290 418
4 277 434 26 273
4 32 118 207 415
4 410 3 29 479
4 197 122 137 522
4 103 353 320 546
4 125 142 329 331
4 488 137 126 522
4 21 110 111 565
4 97 547 437 555
4 70 4 5 533
4 441 440 116 442
4 307 592 589 305
4 369 368 279 636
4 5 1 70 30
4 117 132 22 282
4 545 482 422 651
4 350 594 104 463
4 3 9 95 169
4 595 354 500 108
4 114 168 583 576
4 423 83 188 629
4 281 287 288 111
4 11 459 281 439
4 109 354 303 461
4 590 500 525 108
4 280 22 21 282
4 332 142 121 378
4 525 359 24 108
4 340 303 287 110
4 132 283 284 135
4 409 143 29 408
4 143 410 29 479
4 281 276 11 439
4 31 496 207 416
4 22 280 451 282
4 593 592 308 306
4 327 317 556 552
4 287 22 340 110
4 367 351 531 646
4 552 528 317 562
4 449 302 258 656
4 576 153 157 580
4 599 115 10 310
4 264 275 464 639
4 367 352 351 646
4 69 68 604 406
4 437 547 97 203
4 71 70 99 210
4 498 342 370 650
4 403 465 328 654
4 120 141 285 135
4 409 426 28 418
4 95 96 33 151
4 242 527 244 647
4 438 32 207 415
4 31 568 98 99
4 546 102 353 559
4 139 122 481 522
4 26 27 469 135
4 283 26 434 469
4 115 310 441 442
4 479 409 29 408
4 593 592 105 308
4 484 359 25 525
4 106 599 10 309
4 592 591 589 305
4 73 72 33 96
4 168 21 2 583
4 70 1 4 534
4 68 67 604 208
4 587 594 103 537
4 129 292 452 330
4 603 592 306 305
4 21 144 277 282
4 571 96 95 151
4 90 91 412 665
4 252 333 318 640
4 310 10 309 311
4 73 34 74 95
4 277 280 21 282
4 306 593 602 319
4 325 503 442 626
4 191 500 525 590
4 167 96 571 151
4 415 125 118 339
4 558 106 493 551
4 550 431 321 548
4 61 172 107 177
4 30 20 586 178
4 451 117 300 467
4 552 556 327 553
4 331 125 124 415
4 264 464 262 639
4 449 345 450 656
4 122 139 126 522
4 477 300 284 117
4 274 434 273 660
4 292 127 329 330
4 125 118 124 415
4 587 597 475 485
4 71 72 32 207
4 208 406 541 635
4 410 29 3 143
4 314 106 105 551
4 33 34 95 151
4 488 197 137 522
4 427 338 362 643
4 175 7 46 107
4 93 405 94 635
4 323 505 315 633
4 598 589 591 305
4 590 595 500 108
4 121 33 194 378
4 500 354 595 461
4 276 21 2 277
4 247 248 249 645
4 331 124 142 378
4 32 72 33 438
4 567 582 112 162
4 307 306 592 305
4 572 158 574 160
4 217 204 373 635
4 37 3 9 644
4 233 516 545 651
4 67 66 604 373
4 140 129 452 330
4 583 11 2 114
4 161 23 150 566
4 111 11 21 583
4 461 303 588 304
4 136 491 146 131
4 311 493 507 101
4 528 321 317 562
4 6 600 102 182
4 364 489 208 635
4 240 228 420 659
4 581 110 22 565
4 345 297 349 655
4 129 140 127 330
4 123 502 455 131
4 132 300 284 282
4 406 405 541 635
4 550 557 95 436
4 33 96 167 151
4 597 595 602 319
4 580 576 153 567
4 567 153 166 162
4 204 65 66 604
4 455 136 123 131
4 280 21 22 287
4 280 21 276 277
4 100 557 431 190
4 280 276 21 281
4 199 380 379 648
4 29 426 409 479
4 133 143 29 409
4 594 104 103 350
4 132 21 22 282
4 467 117 300 131
4 100 101 432 548
4 467 502 24 131
4 157 150 581 585
4 171 564 571 167
4 354 595 109 108
4 9 37 169 3
4 123 24 502 131
4 23 24 467 359
4 604 65 64 215
4 477 491 300 146
4 416 118 126 339
4 594 593 104 463
4 114 35 168 576
4 581 22 157 565
4 124 438 33 378
4 561 546 473 554
4 133 29 28 409
4 567 571 582 151
4 95 73 96 436
4 597 587 596 485
4 25 502 206 123
4 300 132 117 282
4 299 296 448 652
4 283 434 26 277
4 22 23 109 581
4 597 596 590 462
4 90 212 184 665
4 93 94 211 635
4 574 573 572 160
4 574 158 159 160
4 121 124 33 378
4 217 216 204 635
4 157 581 565 585
4 167 571 171 151
4 82 81 186 658
4 452 453 136 140
4 72 97 96 203
4 84 202 85 662
4 479 143 410 408
4 598 459 11 116
4 592 603 591 305
4 99 5 30 178
4 588 110 303 109
4 248 411 251 663
4 305 603 591 304
4 602 594 597 319
4 104 103 350 556
4 166 580 567 571
4 153 166 157 580
4 116 589 598 441
4 284 300 132 117
4 216 215 204 635
4 448 296 294 652
4 153 168 35 576
4 553 556 327 561
4 571 564 96 167
4 95 74 73 436
4 106 314 493 551
4 117 22 23 451
4 95 34 3 169
4 594 602 463 319
4 195 182 42 518
4 327 317 320 556
4 330 140 137 456
4 513 492 347 653
4 103 102 587 537
4 110 21 22 565
4 300 491 467 131
4 438 194 33 378
4 479 29 143 408
4 212 219 184 665
4 310 309 599 307
4 215 216 211 635
4 518 353 102 559
4 144 283 26 277
4 313 311 507 657
4 415 331 125 339
4 593 594 602 463
4 305 306 603 304
4 182 6 42 518
4 11 2 21 583
4 493 101 558 432
4 111 110 288 591
4 537 594 103 350
4 508 181 13 119
4 390 392 202 662
4 97 32 33 167
4 292 129 130 128
4 481 416 139 522
4 510 372 79 642
4 602 595 588 461
4 215 211 530 635
4 142 125 124 331
4 480 98 555 210
4 564 575 97 152
4 121 194 143 408
4 157 565 576 580
4 24 23 467 131
4 486 590 596 462
4 557 550 431 436
4 192 138 136 119
4 23 117 467 131
4 100 432 431 548
4 589 307 305 441
4 109 110 22 581
4 290 289 120 417
4 573 574 159 160
4 73 72 96 203
4 332 133 409 408
4 495 437 553 555
4 116 598 459 441
4 98 97 71 480
4 25 484 525 107
4 549 560 205 494
4 75 3 74 410
4 82 514 81 658
4 593 306 463 319
4 604 8 69 529
4 431 557 100 548
4 194 410 143 408
4 604 64 8 530
4 567 576 153 162
4 2 26 35 660
4 137 127 140 330
4 153 166 580 567
4 477 454 491 146
4 473 205 561 554
4 550 547 433 96
4 142 332 301 331
4 125 126 118 339
4 133 143 409 408
4 528 433 321 562
4 136 455 491 131
4 99 586 5 178
4 205 554 560 549
4 3 34 74 410
4 124 121 142 378
4 561 495 553 555
4 444 382 385 664
4 314 317 321 551
4 305 591 288 304
4 392 85 202 662
4 157 150 22 581
4 433 550 96 436
4 100 429 9 190
4 373 489 217 635
4 290 447 27 469
4 208 489 373 635
4 475 597 594 319
4 33 72 73 438
4 22 23 451 340
4 463 602 593 319
4 2 276 277 273
4 365 334 427 649
4 119 508 14 456
4 306 308 593 463
4 31 30 71 496
4 146 454 491 136
4 501 546 559 554
4 340 451 22 287
4 184 219 357 665
4 138 455 192 136
4 596 597 485 462
4 30 70 71 496
4 465 255 466 661
4 90 184 91 665
4 95 582 571 151
4 495 561 554 549
4 416 126 139 522
4 279 268 512 636
4 353 501 546 559
4 206 502 25 359
4 206 25 47 484
4 484 25 175 107
4 320 104 350 556
4 166 580 571 171
4 585 157 166 580
4 128 127 125 329
4 51 14 508 456
4 332 121 133 408
4 473 320 546 556
4 502 491 455 131
4 233 545 422 651
4 30 586 99 178
4 107 172 25 177
4 301 292 128 329
4 34 194 410 143
4 306 592 308 307
4 274 273 271 660
4 157 22 21 565
4 528 552 553 547
4 33 73 34 194
4 500 595 590 462
4 529 405 406 635
4 340 23 467 359
4 255 259 258 661
4 469 285 283 135
4 74 34 73 194
4 136 138 455 123
4 546 501 473 554
4 171 571 166 151
4 585 565 157 580
4 564 571 572 171
4 150 157 158 585
4 128 134 289 301
4 136 453 192 119
4 552 321 317 551
4 566 150 159 574
4 160 573 564 152
4 289 286 285 141
4 34 33 194 121
4 191 590 601 486
4 164 60 18 179
4 578 19 59 180
4 43 600 182 195
4 5 1 30 178
4 597 595 319 462
4 1 70 30 534
4 143 34 194 121
4 319 595 461 462
4 547 528 552 562
4 139 118 126 416
4 463 104 350 316
4 107 590 525 108
4 286 289 130 141
4 62 43 600 182
4 589 116 115 441
4 139 145 209 481
4 96 97 33 167
4 127 137 488 330
4 159 161 150 566
4 575 564 573 152
4 321 493 558 432
4 23 22 150 581
4 194 121 378 408
4 105 308 314 316
4 590 191 500 486
4 560 99 5 533
4 453 140 330 456
4 95 96 550 436
4 101 10 606 657
4 463 350 594 475
4 332 409 133 417
4 148 119 14 456
4 320 353 473 546
4 437 97 555 480
4 96 97 547 203
4 277 144 283 282
4 477 284 130 117
4 300 477 146 117
4 558 493 321 551
4 144 26 2 277
4 144 2 21 277
4 320 350 103 556
4 451 280 22 287
4 101 493 507 432
4 597 475 485 462
4 130 284 286 141
4 454 452 136 129
4 99 560 494 533
4 590 525 191 107
4 564 97 96 167
4 144 21 132 282
4 303 288 287 110
4 99 560 549 210
4 118 416 415 339
4 316 104 350 320
4 226 223 227 659
4 547 433 96 203
4 136 453 119 140
4 143 133 121 408
4 592 593 603 306
4 116 459 440 441
4 465 259 255 661
4 475 594 463 319
4 438 33 32 124
4 24 107 154 25
4 455 454 192 136
4 492 424 347 653
4 97 72 71 480
4 31 32 118 207
4 136 146 454 129
4 461 602 595 319
4 161 24 108 584
4 139 209 416 481
4 145 30 139 209
4 578 577 563 156
4 163 164 570 149
4 155 568 156 170
4 584 154 569 570
4 599 592 589 307
4 410 75 3 435
4 101 558 432 548
4 378 331 124 415
4 95 9 74 190
4 530 211 94 635
4 102 600 587 195
4 509 226 227 659
4 339 126 416 522
4 552 327 528 553
4 192 454 453 136
4 449 450 302 656
4 127 137 126 488
4 94 405 529 635
4 97 437 203 480
4 486 596 485 462
4 248 246 411 663
4 603 588 591 304
4 57 501 559 554
4 553 437 528 547
4 537 587 594 475
4 331 329 125 339
4 452 453 140 330
4 168 157 21 565
4 467 451 23 340
4 129 477 452 130
4 556 473 327 561
4 203 433 96 436
4 501 353 518 559
4 432 430 101 100
4 454 452 453 136
4 137 140 119 456
4 166 158 157 585
4 571 580 572 171
4 556 546 473 561
4 568 31 30 99
4 209 30 139 496
4 554 205 495 549
4 135 283 26 144
4 495 437 327 553
4 279 512 369 636
4 520 49 12 138
4 47 0 25 206
4 321 433 431 550
4 534 1 55 145
4 60 164 569 179
4 180 578 19 155
4 25 0 7 177
4 53 16 122 481
4 432 321 431 548
4 132 284 283 282
4 62 43 44 485
4 595 500 461 462
4 324 313 507 657
4 453 119 140 456
4 152 577 575 170
4 566 163 161 584
4 130 146 477 117
4 107 25 7 177
4 123 206 25 147
4 560 5 38 533
4 286 452 477 130
4 354 525 500 108
4 46 47 175 484
4 433 528 547 562
4 191 484 46 107
4 596 62 44 485
4 223 228 227 659
4 359 25 206 484
4 145 139 122 481
4 123 455 206 147
4 139 209 496 416
4 416 207 118 415
4 597 590 595 462
4 560 99 494 210
4 349 297 443 655
4 100 430 429 190
4 205 473 501 554
4 256 403 328 654
4 327 495 553 561
4 494 549 560 210
4 568 575 577 170
4 163 154 161 584
4 74 9 75 190
4 455 491 454 136
4 317 327 528 552
4 378 124 438 415
4 191 7 45 601
4 561 205 495 554
4 50 13 192 508
4 144 132 283 282
4 518 6 41 559
4 350 537 594 475
4 150 566 581 574
4 152 564 160 167
4 137 488 330 456
4 578 563 59 149
4 563 164 18 149
4 223 420 228 659
4 129 146 477 130
4 156 568 577 170
4 163 154 584 570
4 194 74 34 410
4 578 180 586 155
4 569 164 172 179
4 24 161 154 584
4 444 385 400 664
4 3 34 410 143
4 431 430 100 190
4 7 25 175 0
4 24 502 467 359
4 12 49 13 138
4 145 55 534 209
4 572 564 171 160
4 585 158 150 574
4 16 53 54 481
4 537 102 587 195
4 63 45 601 486
4 537 103 102 353
4 206 502 455 123
4 190 95 557 436
4 25 7 175 107
4 475 597 319 462
4 431 550 557 548
4 596 44 63 486
4 152 575 31 170
4 161 108 566 584
4 568 30 31 170
4 121 332 378 408
4 20 30 1 178
4 340 354 303 109
4 203 96 73 436
4 137 148 122 197
4 353 103 102 546
4 63 601 596 486
4 72 32 207 438
4 156 570 563 149
4 120 289 134 417
4 141 130 284 132
4 0 25 172 177
4 156 577 568 155
4 154 163 569 570
4 578 577 156 155
4 163 164 569 570
4 16 15 53 122
4 9 557 100 190
4 52 15 148 197
4 482 349 443 655
4 6 57 41 559
4 132 130 284 117
4 54 55 16 209
4 586 180 20 155
4 569 172 61 179
4 194 33 73 438
4 99 494 210 533
4 152 156 577 170
4 584 566 163 570
4 137 197 488 456
4 488 329 127 330
4 56 205 554 560
4 197 148 52 456
4 550 433 547 562
4 133 134 332 417
4 518 102 6 559
4 43 62 600 485
4 134 142 332 301
4 491 502 467 131
4 98 99 549 210
4 586 30 568 155
4 107 154 172 569
4 12 520 138 147
4 309 106 314 493
4 45 46 7 191
4 549 205 495 494
4 145 16 55 209
4 45 191 601 486
4 508 13 192 119
4 320 473 327 556
4 494 560 38 533
4 20 58 180 586
4 17 61 172 179
4 501 57 40 554
4 547 553 437 555
4 473 205 495 561
4 190 557 431 436
4 431 430 432 100
4 455 520 206 147
4 191 46 7 107
4 205 40 56 554
4 39 40 56 205
4 176 18 19 149
4 59 60 176 563
4 192 13 49 138
4 572 166 158 171
4 158 585 580 572
4 102 195 353 518
4 350 103 353 320
4 493 314 321 551
4 353 501 473 546
4 564 171 160 167
4 150 581 585 574
4 138 192 13 119
4 206 48 0 147
4 137 148 197 456
4 63 62 44 596
4 579 566 159 574
4 160 165 573 152
4 182 42 43 195
4 495 561 549 555
4 30 31 139 496
4 453 508 192 119
4 577 578 568 155
4 163 164 154 569
4 495 437 555 480
4 560 38 56 494
4 507 430 101 432
4 486 500 590 462
4 16 145 122 481
4 206 0 25 147
4 63 45 7 601
4 12 0 48 147
4 485 44 596 486
4 121 134 142 332
4 122 148 15 197
4 475 537 587 485
4 95 557 9 190
4 49 50 13 192
4 520 192 49 138
4 534 30 1 145
4 45 63 44 486
4 40 205 501 554
4 580 166 572 171
4 585 166 158 580
4 327 437 528 553
4 600 62 596 485
4 53 122 197 481
4 40 57 56 554
4 520 455 192 138
4 586 20 30 155
4 107 172 61 569
4 38 39 56 494
4 525 354 359 108
4 301 332 134 417
4 134 133 120 417
4 1 16 55 145
4 494 495 549 210
4 134 121 133 332
4 547 437 433 203
4 30 568 155 170
4 569 107 154 584
4 38 56 5 560
4 550 433 431 436
4 122 15 53 197
4 74 95 190 436
4 195 537 102 353
4 119 453 508 456
4 43 600 195 485
4 135 132 283 144
4 48 0 47 206
4 586 568 30 99
4 172 25 154 107
4 180 58 578 586
4 164 17 172 179
4 301 134 289 417
4 597 594 587 475
4 575 573 577 165
4 159 163 161 579
4 107 7 61 177
4 477 284 286 130
4 120 289 141 134
4 495 327 473 561
4 203 72 97 480
4 566 159 161 579
4 165 575 573 152
4 496 71 31 207
4 569 164 60 563
4 149 19 578 155
4 165 577 575 152
4 566 161 163 579
4 596 601 590 486
4 339 488 126 522
4 577 570 563 156
4 163 570 156 149
4 148 137 119 456
4 580 166 158 572
4 134 128 142 301
4 586 20 58 178
4 172 61 17 177
4 501 41 57 559
4 38 5 4 533
4 209 534 30 496
4 601 191 7 107
4 41 501 518 559
4 564 572 573 160
4 158 159 150 574
4 573 579 577 165
4 579 159 163 165
4 55 4 1 534
4 577 165 156 152
4 570 566 163 579
4 15 52 53 197
4 586 58 5 178
4 601 590 191 107
4 585 158 574 572
4 158 572 171 160
4 596 587 600 485
4 437 433 528 547
4 195 587 537 485
4 41 42 6 518
4 12 48 520 147
4 97 98 555 480
4 210 70 99 533
4 75 9 429 190
4 14 13 181 119
4 122 197 481 522
4 52 15 14 148
4 480 71 98 210
4 195 600 587 485
4 206 520 48 147
4 180 19 20 155
4 569 61 60 179
4 534 30 145 209
4 181 50 51 508
4 6 62 600 182
4 41 57 40 501
4 70 30 534 496
4 159 579 573 165
4 103 537 350 353
4 159 579 574 573
4 573 159 165 160
4 12 48 49 520
4 172 17 0 177
4 191 525 484 107
4 578 59 58 180
4 164 18 17 179
4 586 568 578 155
4 164 172 154 569
4 356 641 497 235
4 497 641 356 612
4 655 421 610 188
4 655 610 421 651
4 655 652 297 298
4 655 297 652 627
4 296 297 652 298
4 296 652 297 627
4 661 318 253 466
4 661 253 318 640
4 658 348 365 649
4 658 365 348 423
4 472 660 624 274
4 624 660 472 634
4 624 474 472 274
4 472 474 624 634
4 647 201 425 393
4 647 425 201 641
4 631 173 174 624
4 631 174 173 36
4 636 503 613 512
4 636 613 503 626
4 278 613 503 512
4 278 503 613 626
4 665 89 200 90
4 665 200 89 616
4 646 457 515 622
4 646 515 457 531
4 646 336 457 622
4 646 457 336 351
4 654 663 609 645
4 609 663 654 619
4 650 260 639 619
4 650 639 260 370
4 663 214 186 246
4 663 186 214 623
4 213 662 421 85
4 421 662 213 651
4 661 542 355 466
4 661 355 542 625
4 654 260 650 619
4 654 650 260 403
4 490 506 612 326
4 490 612 506 375
4 648 79 80 199
4 648 80 79 642
4 247 663 186 246
4 186 663 247 645
4 101 311 657 507
4 101 657 311 10
4 23 359 108 24
4 108 359 23 340
4 135 284 141 285
4 135 141 284 132
4 563 18 60 176
4 563 60 18 164
4 59 149 19 578
4 19 149 59 176
4 439 116 278 11
4 278 116 439 440
4 21 281 287 280
4 287 281 21 111
4 441 598 305 589
4 441 305 598 459
4 281 598 288 459
4 288 598 281 111
4 477 129 454 146
4 454 129 477 452
4 285 120 289 141
4 289 120 285 290
4 555 210 495 480
4 495 210 555 549
4 23 581 566 109
4 566 581 23 150
4 300 131 146 491
4 146 131 300 117
4 558 311 106 10
4 558 106 311 493
4 309 106 311 10
4 309 311 106 493
4 167 97 152 564
4 167 152 97 32
4 304 602 461 319
4 304 461 602 588
4 456 14 52 51
4 456 52 14 148
4 578 149 156 563
4 156 149 578 155
4 563 164 570 569
4 570 164 563 149
4 566 23 108 161
4 566 108 23 109
4 576 157 168 565
4 576 168 157 153
4 567 151 166 571
4 166 151 567 162
4 130 452 292 286
4 130 292 452 129
4 31 568 575 98
4 31 575 568 170
4 24 584 107 108
4 107 584 24 154
4 152 97 31 575
4 152 31 97 32
4 583 21 565 168
4 583 565 21 111
4 169 95 151 582
4 169 151 95 34
4 169 112 162 37
4 169 162 112 582
4 114 168 2 583
4 114 2 168 35
4 455 147 138 520
4 138 147 455 123
4 134 130 289 141
4 289 130 134 128
4 209 16 481 145
4 209 481 16 54
4 56 494 205 560
4 205 494 56 39
4 156 165 579 163
4 579 165 156 577
4 579 570 156 163
4 156 570 579 577

CELL_TYPES 3422
1
1
1
1
1
1
1
1
1
1
1
1
3
3
3
3
3
3
3
3
3
3
3
3
3
3
3
3
3
3
3
3
3
3
3
3
3
3
3
3
3
3
3
3
3
3
3
3
3
3
3
3
3
3
3
3
3
3
3
3
3
3
3
3
3
3
3
3
3
3
3
3
3
3
3
3
3
3
3
3
3
3
3
3
3
3
3
3
3
3
3
3
3
3
3
3
3
3
3
3
3
3
3
3
3
3
3
3
3
3
3
3
3
3
3
3
3
3
3
3
3
3
3
3
3
3
3
3
3
3
3
3
3
3
3
5
5
5
5
5
5
5
5
5
5
5
5
5
5
5
5
5
5
5
5
5
5
5
5
5
5
5
5
5
5
5
5
5
5
5
5
5
5
5
5
5
5
5
5
5
5
5
5
5
5
5
5
5
5
5
5
5
5
5
5
5
5
5
5
5
5
5
5
5
5
5
5
5
5
5
5
5
5
5
5
5
5
5
5
5
5
5
5
5
5
5
5
5
5
5
5
5
5
5
5
5
5
5
5
5
5
5
5
5
5
5
5
5
5
5
5
5
5
5
5
5
5
5
5
5
5
5
5
5
5
5
5
5
5
5
5
5
5
5
5
5
5
5
5
5
5
5
5
5
5
5
5
5
5
5
5
5
5
5
5
5
5
5
5
5
5
5
5
5
5
5
5
5
5
5
5
5
5
5
5
5
5
5
5
5
5
5
5
5
5
5
5
5
5
5
5
5
5
5
5
5
5
5
5
5
5
5
5
5
5
5
5
5
5
5
5
5
5
5
5
5
5
5
5
5
5
5
5
5
5
5
5
5
5
5
5
5
5
5
5
5
5
5
5
5
5
5
5
5
5
5
5
5
5
5
5
5
5
5
5
5
5
5
5
5
5
5
5
5
5
5
5
5
5
5
5
5
5
5
5
5
5
5
5
5
5
5
5
5
5
5
5
5
5
5
5
5
5
5
5
5
5
5
5
5
5
5
5
5
5
5
5
5
5
5
5
5
5
5
5
5
5
5
5
5
5
5
5
5
5
5
5
5
5
5
5
5
5
5
5
5
5
5
5
5
5
5
5
5
5
5
5
5
5
5
5
5
5
5
5
5
5
5
5
5
5
5
5
5
5
5
5
5
5
5
5
5
5
5
5
5
5
5
5
5
5
5
5
5
5
5
5
5
5
5
5
5
5
5
5
5
5
5
5
5
5
5
5
5
5
5
5
5
5
5
5
5
5
5
5
5
5
5
5
5
5
5
5
5
5
5
5
5
5
5
5
5
5
5
5
5
5
5
5
5
5
5
5
5
5
5
5
5
5
5
5
5
5
5
5
5
5
5
5
5
5
5
5
5
5
5
5
5
5
5
5
5
5
5
5
5
5
5
5
5
5
5
5
5
5
5
5
5
5
5
5
5
5
5
5
5
5
5
5
5
5
5
5
5
5
5
5
5
5
5
5
5
5
5
5
5
5
5
5
5
5
5
5
5
5
5
5
5
5
5
5
5
5
5
5
5
5
5
5
5
5
5
5
5
5
5
5
5
5
5
5
5
5
5
5
5
5
5
5
5
5
5
5
5
5
5
5
5
5
5
5
5
5
5
5
5
5
5
5
5
5
5
5
5
5
5
5
5
5
5
5
5
5
5
5
5
5
5
5
5
5
5
5
5
5
5
5
5
5
5
5
5
5
5
5
5
5
5
5
5
5
5
5
5
5
5
5
5
5
5
5
5
5
5
5
5
5
5
5
5
5
5
5
5
5
5
5
5
5
5
5
5
5
5
5
5
5
5
5
5
5
5
5
5
5
5
5
5
5
5
5
5
5
5
5
5
5
5
5
5
5
5
5
5
5
5
5
5
5
5
5
5
5
5
5
5
5
5
5
5
5
5
5
5
5
5
5
5
5
5
5
5
5
5
5
5
5
5
5
5
5
5
5
5
5
5
5
5
5
5
5
5
5
5
5
5
5
5
5
5
5
5
5
5
5
5
5
5
5
5
5
5
5
5
5
5
5
5
5
5
5
5
5
5
5
5
5
5
5
5
5
5
5
5
5
5
5
5
5
5
5
5
5
5
5
5
5
5
5
5
5
5
5
5
5
5
5
5
5
5
5
5
5
5
5
5
5
5
5
5
5
5
5
5
5
5
5
5
5
5
5
5
5
5
5
5
5
5
5
5
5
5
5
5
5
5
5
5
5
5
5
5
5
5
5
5
5
5
5
5
5
5
5
5
5
5
5
5
5
5
5
5
5
5
5
5
5
5
5
5
5
5
5
5
5
5
5
5
5
5
5
5
5
5
5
5
5
5
5
5
5
5
5
5
5
5
5
5
5
5
5
5
5
5
5
5
5
5
5
5
5
5
5
5
5
5
5
5
5
5
5
5
5
5
5
5
5
5
5
5
5
5
5
5
5
5
5
5
5
5
5
5
5
5
5
5
5
5
5
5
5
5
5
5
5
5
5
5
5
5
5
5
5
5
5
5
5
5
5
5
5
5
5
5
5
5
5
5
5
5
5
5
5
5
5
5
5
5
5
5
5
5
5
5
5
5
5
5
5
5
5
5
5
5
5
5
5
5
5
5
5
5
5
5
5
5
5
5
5
5
5
5
5
5
5
5
5
5
5
5
5
5
5
5
5
5
5
5
5
5
5
5
5
5
5
5
5
5
5
5
5
5
5
5
5
5
5
5
5
5
5
5
5
5
5
5
5
5
5
5
5
5
5
5
5
5
5
5
5
5
5
5
5
5
5
5
5
5
5
5
5
5
5
5
5
5
5
5
5
5
5
5
5
5
5
5
5
5
5
5
5
5
5
5
5
5
5
5
5
5
5
5
5
5
5
5
5
5
5
5
5
5
5
5
5
5
5
5
5
5
5
5
5
5
5
5
5
5
5
5
5
5
5
5
5
5
5
5
5
5
5
5
5
5
5
5
5
5
5
5
5
5
5
5
5
5
5
5
5
5
5
5
5
5
5
5
5
5
5
5
5
5
5
5
5
5
5
5
5
5
5
5
5
5
5
10
10
10
10
10
10
10
10
10
10
10
10
10
10
10
10
10
10
10
10
10
10
10
10
10
10
10
10
10
10
10
10
10
10
10
10
10
10
10
10
10
10
10
10
10
10
10
10
10
10
10
10
10
10
10
10
10
10
10
10
10
10
10
10
10
10
10
10
10
10
10
10
10
10
10
10
10
10
10
10
10
10
10
10
10
10
10
10
10
10
10
10
10
10
10
10
10
10
10
10
10
10
10
10
10
10
10
10
10
10
10
10
10
10
10
10
10
10
10
10
10
10
10
10
10
10
10
10
10
10
10
10
10
10
10
10
10
10
10
10
10
10
10
10
10
10
10
10
10
10
10
10
10
10
10
10
10
10
10
10
10
10
10
10
10
10
10
10
10
10
10
10
10
10
10
10
10
10
10
10
10
10
10
10
10
10
10
10
10
10
10
10
10
10
10
10
10
10
10
10
10
10
10
10
10
10
10
10
10
10
10
10
10
10
10
10
10
10
10
10
10
10
10
10
10
10
10
10
10
10
10
10
10
10
10
10
10
10
10
10
10
10
10
10
10
10
10
10
10
10
10
10
10
10
10
10
10
10
10
10
10
10
10
10
10
10
10
10
10
10
10
10
10
10
10
10
10
10
10
10
10
10
10
10
10
10
10
10
10
10
10
10
10
10
10
10
10
10
10
10
10
10
10
10
10
10
10
10
10
10
10
10
10
10
10
10
10
10
10
10
10
10
10
10
10
10
10
10
10
10
10
10
10
10
10
10
10
10
10
10
10
10
10
10
10
10
10
10
10
10
10
10
10
10
10
10
10
10
10
10
10
10
10
10
10
10
10
10
10
10
10
10
10
10
10
10
10
10
10
10
10
10
10
10
10
10
10
10
10
10
10
10
10
10
10
10
10
10
10
10
10
10
10
10
10
10
10
10
10
10
10
10
10
10
10
10
10
10
10
10
10
10
10
10
10
10
10
10
10
10
10
10
10
10
10
10
10
10
10
10
10
10
10
10
10
10
10
10
10
10
10
10
10
10
10
10
10
10
10
10
10
10
10
10
10
10
10
10
10
10
10
10
10
10
10
10
10
10
10
10
10
10
10
10
10
10
10
10
10
10
10
10
10
10
10
10
10
10
10
10
10
10
10
10
10
10
10
10
10
10
10
10
10
10
10
10
10
10
10
10
10
10
10
10
10
10
10
10
10
10
10
10
10
10
10
10
10
10
10
10
10
10
10
10
10
10
10
10
10
10
10
10
10
10
10
10
10
10
10
10
10
10
10
10
10
10
10
10
10
10
10
10
10
10
10
10
10
10
10
10
10
10
10
10
10
10
10
10
10
10
10
10
10
10
10
10
10
10
10
10
10
10
10
10
10
10
10
10
10
10
10
10
10
10
10
10
10
10
10
10
10
10
10
10
10
10
10
10
10
10
10
10
10
10
10
10
10
10
10
10
10
10
10
10
10
10
10
10
10
10
10
10
10
10
10
10
10
10
10
10
10
10
10
10
10
10
10
10
10
10
10
10
10
10
10
10
10
10
10
10
10
10
10
10
10
10
10
10
10
10
10
10
10
10
10
10
10
10
10
10
10
10
10
10
10
10
10
10
10
10
10
10
10
10
10
10
10
10
10
10
10
10
10
10
10
10
10
10
10
10
10
10
10
10
10
10
10
10
10
10
10
10
10
10
10
10
10
10
10
10
10
10
10
10
10
10
10
10
10
10
10
10
10
10
10
10
10
10
10
10
10
10
10
10
10
10
10
10
10
10
10
10
10
10
10
10
10
10
10
10
10
10
10
10
10
10
10
10
10
10
10
10
10
10
10
10
10
10
10
10
10
10
10
10
10
10
10
10
10
10
10
10
10
10
10
10
10
10
10
10
10
10
10
10
10
10
10
10
10
10
10
10
10
10
10
10
10
10
10
10
10
10
10
10
10
10
10
10
10
10
10
10
10
10
10
10
10
10
10
10
10
10
10
10
10
10
10
10
10
10
10
10
10
10
10
10
10
10
10
10
10
10
10
10
10
10
10
10
10
10
10
10
10
10
10
10
10
10
10
10
10
10
10
10
10
10
10
10
10
10
10
10
10
10
10
10
10
10
10
10
10
10
10
10
10
10
10
10
10
10
10
10
10
10
10
10
10
10
10
10
10
10
10
10
10
10
10
10
10
10
10
10
10
10
10
10
10
10
10
10
10
10
10
10
10
10
10
10
10
10
10
10
10
10
10
10
10
10
10
10
10
10
10
10
10
10
10
10
10
10
10
10
10
10
10
10
10
10
10
10
10
10
10
10
10
10
10
10
10
10
10
10
10
10
10
10
10
10
10
10
10
10
10
10
10
10
10
10
10
10
10
10
10
10
10
10
10
10
10
10
10
10
10
10
10
10
10
10
10
10
10
10
10
10
10
10
10
10
10
10
10
10
10
10
10
10
10
10
10
10
10
10
10
10
10
10
10
10
10
10
10
10
10
10
10
10
10
10
10
10
10
10
10
10
10
10
10
10
10
10
10
10
10
10
10
10
10
10
10
10
10
10
10
10
10
10
10
10
10
10
10
10
10
10
10
10
10
10
10
10
10
10
10
10
10
10
10
10
10
10
10
10
10
10
10
10
10
10
10
10
10
10
10
10
10
10
10
10
10
10
10
10
10
10
10
10
10
10
10
10
10
10
10
10
10
10
10
10
10
10
10
10
10
10
10
10
10
10
10
10
10
10
10
10
10
10
10
10
10
10
10
10
10
10
10
10
10
10
10
10
10
10
10
10
10
10
10
10
10
10
10
10
10
10
10
10
10
10
10
10
10
10
10
10
10
10
10
10
10
10
10
10
10
10
10
10
10
10
10
10
10
10
10
10
10
10
10
10
10
10
10
10
10
10
10
10
10
10
10
10
10
10
10
10
10
10
10
10
10
10
10
10
10
10
10
10
10
10
10
10
10
10
10
10
10
10
10
10
10
10
10
10
10
10
10
10
10
10
10
10
10
10
10
10
10
10
10
10
10
10
10
10
10
10
10
10
10
10
10
10
10
10
10
10
10
10
10
10
10
10
10
10
10
10
10
10
10
10
10
10
10
10
10
10
10
10
10
10
10
10
10
10
10
10
10
10
10
10
10
10
10
10
10
10
10
10
10
10
10
10
10
10
10
10
10
10
10
10
10
10
10
10
10
10
10
10
10
10
10
10
10
10
10
10
10
10
10
10
10
10
10
10
10
10
10
10
10
10
10
10
10
10
10
10
10
10
10
10
10
10
10
10
10
10
10
10
10
10
10
10
10
10
10
10
10
10
10
10
10
10
10
10
10
10
10
10
10
10
10
10
10
10
10
10
10
10
10
10
10
10
10
10
10
10
10
10
10
10
10
10
10
10
10
10
10
10
10
10
10
10
10
10
10
10
10
10
10
10
10
10
10
10
10
10
10
10
10
10
10
10
10
10
10
10
10
10
10
10
10
10
10
10
10
10
10
10
10
10
10
10
10
10
10
10
10
10
10
10
10
10
10
10
10
10
10
10
10
10
10
10
10
10
10
10
10
10
10
10
10
10
10
10
10
10
10
10
10
10
10
10
10
10
10
10
10
10
10
10
10
10
10
10
10
10
10
10
10
10
10
10
10
10
10
10
10
10
10
10
10
10
10
10
10
10
10
10
10
10
10
10
10
10
10
10
10
10
10
10
10
10
10
10
10
10
10
10
10
10
10
10
10
10
10
10
10
10
10
10
10
10
10
10
10
10
10
10
10
10
10
10
10
10
10
10
10
10
10
10
10
10
10
10
10
10
10
10
10
10
10
10
10
10
10
10
10
10
10
10
10
10
10
10
10
10
10
10
10
10
10
10
10
10
10
10
10
10
10
10
10
10
10
10
10
10
10
10
10
10
10
10
10
10
10
10
10
10
10
10
10
10
10
10
10
10
10
10
10
10
10
10
10
10
10
10
10
10
10
10
10
10
10
10
10
10
10
10
10
10
10
10
10
10
10
10
10
10
10
10
10
10
10
10
10
10
10
10
10
10
10
10
10
10
10
10
10
10
10
10
10
10
10
10
10
10
10
10
10
10
10
10
10
10
10
10
10
10
10
10
10
10
10
10
10
10
10
10
10
10
10
10
10
10
10
10
10
10
10
10
10
10
10
10
10
10
10
10
10
10
10
10
10
10
10
10
10
10
10
10
10
10
10
10
10
10
10
10
10
10
10
10
10
10
10
10
10
10
10
10
10
10
10
10
10
10
10
10
10
10
10
10
10
10
10
10
10
10
10
10
10
10
10
10
10
10
10
10
10
10
10
10
10
10
10
10
10
10
10
10
10
10
10
10
10
10
10
10
10
10
10
10
10
10
10
10
10
10
10
10
10
10
10
10
10
10
10
10
10
10
10
10
10
10
10
10
10
10
10
10
10
10
10
10
10
10
10
10
10
10
10
10
10
10
10
10
10
10
10
10
10
10
10
10
10
10
10
10
10
10
10
10
10
10
10
10
10
10
10
10
10
10
10
10
10
10
10
10
10
10
10
10
10
10
10
10
10
10
10
10
10
10
10
10
10
10
10
10
10
10
10
10
10
10
10
10
10
10
10
10
10
10
10
10
10
10
10
10
10
10
10
10
10
10
10
10
10
10
10
10
10
10
10
10
10
10
10
10
10
10
10
10
10
10
10
10
10
10
10
10
10
10
10
10
10
10
10
10
10
