# vtk DataFile Version 2.0
whisker_body, Created by Gmsh 4.13.1 
ASCII
DATASET UNSTRUCTURED_GRID
POINTS 595 double
-8.366600265340816 -1.499999999999834 0
8.366600265340814 -1.499999999999832 0
-5.790413210841429 -1.499999999999897 32
5.790413210841429 -1.499999999999898 32
12 0 0
8.366600265340708 1.500000000000135 0
0 8.5 0
-8.366600265340708 1.500000000000135 0
7.27789759052289 0 60
5.79041321084141 1.499999999999933 32
0 5.981545381612207 32
-5.790413210841411 1.499999999999932 32
-6.808334141167511 -5.088868854884438 0
-3.80753297644827 -7.599519236981967 0
3.293187477425454e-14 -8.5 0
3.807532976448329 -7.599519236981937 0
6.80833414116753 -5.088868854884412 0
-5.019960159204491 -1.5 0
-1.673320053068164 -1.5 0
1.673320053068162 -1.5 0
5.019960159204487 -1.5 0
-6.079030380843763 -1.5 28.44463712264927
-6.366866763998971 -1.5 24.88921011528136
-6.654023606065458 -1.5 21.3337278576933
-6.940585261135566 -1.5 17.77819677678181
-7.226622265240696 -1.5 14.22262576304567
-7.512194805097526 -1.5 10.6670160017199
-7.797353807777535 -1.5 7.111372900973578
-8.082143056636143 -1.5 3.555699725273016
-3.661049513450248 -4.730285574080282 32
1.786185029486259e-14 -5.981545381612207 32
3.661049513450262 -4.730285574080272 32
8.082143056636143 -1.5 3.555699725273016
7.797353807777535 -1.5 7.111372900973578
7.512194805097526 -1.5 10.6670160017199
7.226622265240693 -1.5 14.2226257630457
6.940585261135563 -1.5 17.77819677678184
6.654023606065458 -1.5 21.3337278576933
6.366866763998966 -1.5 24.88921011528139
6.079030380843763 -1.5 28.44463712264927
-1.930137736947144 -1.5 32
1.930137736947142 -1.5 32
11.34980690040761 3.896393630456207 0
9.469686112756717 7.370552552276022 0
6.563377897469113 10.04599773915035 0
2.945825845689581 11.63280319127197 0
-0.9909521456679979 11.95901391608004 0
-4.820345095835646 10.98927991986068 0
-8.127378859508902 8.82868692807757 0
-10.55368501447787 5.71136871644487 0
-11.83633564083267 1.975135083368787 0
-11.83633564083267 -1.975135083368821 0
-10.55368501447786 -5.711368716444897 0
-8.12737885950888 -8.828686928077589 0
-4.820345095835619 -10.9892799198607 0
-0.9909521456679715 -11.95901391608004 0
2.945825845689616 -11.63280319127196 0
6.563377897469155 -10.04599773915032 0
9.469686112756747 -7.370552552275983 0
11.34980690040762 -3.896393630456205 0
6.808334141167383 5.088868854884609 0
3.807532976448174 7.599519236982015 0
5.019960159204425 1.5 0
1.673320053068141 1.5 0
-1.673320053068142 1.5 0
-5.019960159204425 1.5 0
-3.807532976448205 7.599519236982 0
-6.808334141167403 5.088868854884582 0
6.302844199534381 3.638948795261439 60
3.638948795261455 6.302844199534372 60
1.337378586081774e-14 7.27789759052289 60
-3.638948795261432 6.302844199534386 60
-6.302844199534364 3.63894879526147 60
-7.27789759052289 4.613978646370539e-14 60
-6.302844199534409 -3.638948795261393 60
-3.63894879526151 -6.302844199534341 60
-6.597764390521311e-14 -7.27789759052289 60
3.638948795261406 -6.302844199534401 60
6.302844199534367 -3.638948795261465 60
11.70486859940768 0 3.75
11.40973719881536 0 7.5
11.11460579822304 0 11.25
10.81947439763072 0 15
10.5243429970384 0 18.75
10.22921159644608 0 22.5
9.934080195853765 0 26.25
9.638948795261445 0 30
9.343817394669125 0 33.75
9.048685994076806 0 37.5
8.753554593484488 0 41.25
8.458423192892168 0 45
8.163291792299848 0 48.75
7.868160391707529 0 52.5
7.573028991115209 0 56.25
6.079030380843763 1.5 28.44463712264927
6.366866763998971 1.5 24.88921011528136
6.654023606065458 1.5 21.3337278576933
6.940585261135566 1.5 17.77819677678181
7.226622265240696 1.5 14.22262576304567
7.512194805097526 1.5 10.6670160017199
7.797353807777535 1.5 7.111372900973578
8.082143056636143 1.5 3.555699725273016
3.661049513450228 4.730285574080298 32
0 8.220171709068023 3.555555555555555
0 7.940343418136046 7.11111111111111
0 7.660515127204069 10.66666666666667
0 7.380686836272092 14.22222222222222
0 7.100858545340115 17.77777777777778
0 6.821030254408138 21.33333333333333
0 6.541201963476161 24.88888888888889
0 6.261373672544185 28.44444444444444
-8.082143056636143 1.5 3.555699725273016
-7.797353807777535 1.5 7.111372900973578
-7.512194805097526 1.5 10.6670160017199
-7.226622265240696 1.5 14.22262576304567
-6.940585261135566 1.5 17.77819677678181
-6.654023606065458 1.5 21.3337278576933
-6.366866763998971 1.5 24.88921011528136
-6.079030380843765 1.5 28.44463712264924
1.930137736947136 1.5 32
-1.930137736947136 1.5 32
-3.661049513450238 4.73028557408029 32
6.567342465073998 -4.224374891951103 8.784177988014575
5.822221871613982 -4.318074755984758 15.89893617747231
5.301299787078097 -4.088200616061358 22.94026169892104
-6.480068915991058 -4.355543104753165 8.794984259803384
-5.822221871615314 -4.318074755982886 15.89893617747288
-5.158842422948987 -4.259786039685403 22.99506618933998
-2.01875575249094 -7.976718463132757 3.453440676863524
-2.01847572191324 -5.905839470859137 28.70015772785978
5.127985630112421 -6.445592086895265 3.34657181269894
-6.147464225719222 -4.345691433726758 12.34573343208734
-4.059735978032073 -6.519976266179346 10.41152176204359
-4.629336385061855 -6.489824277403013 6.712230806581845
-1.385625423205412 -7.731503687236405 8.199479734908241
-0.9400660490741076 -7.496951848400945 11.99896631656291
2.006929193059802 -7.459989757610044 9.844358762102248
2.397050015573645 -7.051671202474927 13.36759994963405
-0.513956202119104 -7.257093053000294 15.56167275963315
1.638933910882593 -7.840445336258798 6.227160697602695
3.435459364319976 -6.305525276324994 16.76366965792365
0.06895012430420473 -7.000258051147149 19.05171374457205
3.128381196845145 -6.128015717290511 20.57948499709362
0.02151688442508384 -6.71830313153496 22.63816738029105
6.247652151866673 -4.193551822334103 12.39411408650104
-5.49611138573598 -4.286675452467979 19.43873700083236
-4.802696019077286 -4.245085640707398 26.55741381351115
1.809712516968951 -5.979301879908027 28.62494224352092
-6.86599739507157 -4.264778487407988 5.30212907603476
4.805598025020211 -4.24242268532827 26.55217929869576
-3.209308022744284 -6.356867154297675 17.52116312013901
-3.641965209075008 -6.440456444083825 13.99108660893267
-2.899156477522406 -6.204582564157781 20.98429635497592
-2.685766921183419 -5.992394302880982 24.56434008600108
5.555450978935721 -4.210474596777888 19.43116742914432
-5.095760982928531 -6.493679348002001 3.121004001373322
6.86168001785486 -4.271210298405632 5.30556061817198
4.636472230238081 -6.481585305085622 6.744713229165786
1.905077186273094 -8.055301686959677 2.826978506501961
2.782618588210358 -5.948075659573848 24.56391747531521
4.638650378374107 -6.114517690480839 10.48362968082751
0.1368475510222973 -6.446587621012347 26.07262449509605
-4.780626165442539 -3.917695045612745 29.46778560823195
4.713271400247856 -4.006219902039936 29.4040791231127
-7.292888418295284 -3.967502910049784 2.512693492125131
7.303838601353476 -3.947071974000443 2.514120910396297
4.625743673930383 -5.773444524658021 14.00244181856108
-0.1135046289917501 -1.5 3.187263402476015
4.294718247648508 -1.5 12.18708876829075
-4.137724614834957 -1.5 18.64734303132148
-1.77635683940025e-15 -1.5 28.65690337400154
-4.433825748442129 -1.5 8.830450754463937
3.426437940758037 -1.5 22.87547909629868
5.249457041571098 -1.5 5.131679463722307
-3.820407439454753 -1.5 3.344795433971275
-2.172963194588799 -1.5 6.186788742336462
-3.079485377204771 -1.5 26.43660558379282
4.674503534858255 -1.5 8.647495656444544
1.479168159049889 -1.5 10.30405669146591
1.089534255242421 -1.5 13.72604393820338
-1.846807018409686 -1.5 11.66322897229428
-2.155607688084543 -1.5 15.3381496698093
0.9826832541101282 -1.5 17.31832543461041
4.025914900012557 -1.5 15.75495043953441
3.749917488659076 -1.5 19.32252975370119
0.7028073838850677 -1.5 20.94868296674996
0.2050653277368397 -1.5 24.69400558715333
-2.930666118144942 -1.5 22.26647982579258
3.167186507474188 -1.5 26.41953856543038
1.747803060394897 -1.5 6.55519578569997
3.346640106136325 -1.5 2.493479939757708
-4.734177449461132 -1.5 12.61099158946834
3.274832823768024 -1.5 29.37074317064308
-3.27325591470141 -1.5 29.36890301349111
-5.000935537666517 -1.5 15.74967857215315
-1.111614451997516 -1.5 8.919866416311949
-5.308260245493758 -1.5 5.965331788080052
5.860684972332491 -1.5 2.372396384500677
-1.302243624083912 -1.5 18.91141503327192
-7.771561172376096e-16 -3.325131280716529 32
-10.10146795308671 3.452793606584237e-14 0
-8.326672684688674e-16 -5.551115123125783e-17 0
-6.69328021227258 4.364115159304974e-14 0
6.693280212272627 1.066223022616602e-13 0
3.346640106136304 5.551115123125783e-17 0
-3.346640106136305 -5.551115123125783e-17 0
-2.404707554487957 -9.761953268230675 0
-2.404707554487961 9.76195326823068 0
8.935881143994854 -3.209627415059868 31.83128104831302
8.622259865243404 3.210721483584408 35.56901948640535
9.560740229175035 3.210769427521803 24.32635413700642
9.70479363407347 -3.716355517672122 20.43117751032401
7.572575793799106 -4.09758946533286 43.0725261603211
-11.73088669374763 -1.940162152660217e-14 3.419408766471456
-2.93356341489342 11.36350050067426 3.353765747894174
-7.290541649137687 1.984803379761022 56.46779818220659
7.694330858993568 3.154194830285126 46.81285440877583
-2.550778283412737 -11.45591304092289 3.348636435899146
10.49497893106745 3.195253963268123 13.07967085456085
-1.949325425597162 -7.274981528814155 56.7762135102464
10.30028872730695 -3.761722649871375 13.14206888421812
-1.976212442307552 7.275357946767365 56.68260865122541
7.358006790879124 -3.190129739543207 50.57323636838945
7.525537753436183 9.008657493085222 3.324163033449048
4.712243512000845 -10.74283313214679 3.419408766471714
-9.257317901175377 7.20525973842184 3.419408766471709
-9.257317901175359 -7.205259738421862 3.419408766471709
7.037746588842867 3.184812749282433 54.32125868882564
11.10107250334919 -3.225331996075627 5.589093889147453
4.860641625241934 -5.775290174685608 56.56170290324955
11.10107250334962 3.22533199607392 5.589093889148325
8.302498260544249 3.219399699765722 39.32785339379618
6.767990550768168 6.028531846019131 37.31046639484082
7.1561374373903 6.029827549225469 33.57185725044894
4.459516505363632 8.07916914395812 35.2186546684297
4.03726469586814 7.96948964214527 38.96012839271994
4.877740297785107 8.178981872165188 31.4728916166187
7.520309771481806 6.052851286960895 29.81378956583192
5.277334135415425 8.280104071247269 27.71377373905037
1.923148430858776 9.49895701911773 29.32997136373502
2.464358994756387 9.680334675724991 25.55101784553294
-1.103463566948654 9.80808709383358 27.06466390609456
-0.5956968721073074 10.14822986869925 23.30701150773297
-3.982604614699079 9.229425708488868 24.75122265255619
-4.40212492057993 8.707793630796385 28.49655016365561
-3.553124035786846 9.718833925803832 20.99106814265381
-6.570573797032475 7.854840132300438 22.35463580261689
-6.253481667766271 8.480387363219215 18.59241302623172
-8.665669585966803 5.814376506269245 19.87816128611652
-8.8118071220996 5.018929650410747 23.622263861378
-10.04801131282863 2.447857024148282 21.06837938141427
-9.929237850984048 1.548383401381416 24.78673642794851
-10.18091864893847 -1.242852275936011 22.15327163310771
-9.737143862762657 -2.122814665780092 25.84623298060024
-9.015913597590666 -4.724573926518793 23.14033575231139
-8.222622840338536 -5.497644949143086 26.79498012324179
-9.197202449421399 -3.009072282229524 29.51735401381464
-9.712632359766667 -3.902713115655338 19.4735692795692
-7.659489634273101 -7.029596552183039 20.37696775713825
-3.108460018816291 10.18166752779877 17.20923716048111
-7.332394637012778 -6.204057620828051 30.43247349677862
-8.558227217383159 -3.862089403382325 33.17206625808665
-6.323319077861125 -6.84704837718311 34.04987777709021
-7.802784747782774 -4.688778697823762 36.80744187430816
-5.568695792453771 -8.09431811440656 27.63746084531024
-9.096661336310383 -1.22337936950202 35.84983521480454
-8.605894975505427 -2.241471304483646 39.47805456937944
-6.93250904852404 -5.449707920275151 40.42979322884231
-8.05187039335263 -3.033739004321929 43.14482714337586
-6.011723089674582 -6.057232799697049 44.03841944630597
-10.10124492618864 3.328350766599845 17.33808968193387
-8.663007553761998 0.5998598237039277 42.13693856384484
-8.588516489312555 -6.354532359063732 16.72443320626577
-5.844774745359044 -8.86427249187833 17.56308952470697
2.941860420317556 9.857248191706278 21.76726302345099
1.158669650468643 9.03210376952226 36.77023705870678
0.6933706929698074 8.78474499369918 40.50654184873146
-4.053644662027241 -7.759752545423802 41.23470420985013
-2.844165801744913 -7.982613764245725 44.80003447762223
-5.888564046916641 9.094015674331169 14.81499397023413
-7.382172758807954 -3.834128417944132 46.77821876145224
-6.969582184328739 -8.386510101814606 13.91935175143824
-3.665200507920996 -10.20588281799837 14.6875507943682
-2.350077137213913 -10.29472361075972 18.30259210460662
0.07553110968990209 -10.790865310309 15.36015418386934
-9.378847619607839 -5.690641384593466 13.08433190179717
-2.311248829162325 8.68984928207667 38.22076711079207
-2.639135406717508 10.62160768464617 13.41052532800753
1.435635350978262 -10.41164542148404 18.93024469472615
-0.4992510633867022 -8.686669944972206 41.9177071004563
3.79373459855749 -10.05438836810804 15.92966011599398
-2.757987307179771 8.249994504228161 41.94588238741866
0.2268866609168426 8.514846963692476 44.24466636791801
-3.191779749716208 7.77645302230333 45.66621804219201
-0.3424409564484934 8.224955519104729 47.87594907848778
0.8608134322278648 -8.380456574966457 45.43039258434479
2.495886955657835 -10.73870671259418 12.38932838377752
-3.694056164938622 7.232952242058065 49.27875684583398
-5.535450030340695 9.660184010117954 11.006765210722
-1.526336930167138 -8.052226267239824 48.33933574731471
0.4339958998891368 10.75222231364161 15.74327334070982
0.8872411807343293 11.02633383812585 11.91876990433474
3.899735232150885 10.16226858855371 14.16951202078918
-0.9954818056051791 -10.22920517479757 21.88605669909299
2.76310166827729 -9.8513478558078 22.47080313894162
-4.990185696266556 -9.94101287081771 11.14073637672548
-1.84588623745506 -8.787155483135971 38.38618284966641
1.886655669594991 -8.730264915261001 38.98521729892652
0.5410721387641145 -9.19155967954128 35.48244093734903
4.145568396504175 -8.175410302439332 36.00417561042057
2.950023836117683 -8.967850568601888 32.52022265272029
4.329004523104911 10.31183016319619 10.3726567507444
-8.270089244682614 7.295942834354392 12.34560694739109
-6.049435113366516 5.687507062443022 46.97208990597355
-5.428992488725052 7.03404349020901 39.57374848427829
-5.069747270990484 7.650882504657127 35.85507093009757
0.3716413363293406 -9.991023053004692 25.43867659330661
4.03324073990422 -9.10171135749216 25.98026041611122
5.982174370457127 -9.213810336214477 12.89073336617302
-8.926368026854707 4.161145818476097 27.33596197948327
-6.300501365310152 4.950362650008269 50.66420613310064
7.040122809903528 -8.070831683644185 16.39245551701516
2.198198588283567 -7.8478450458308 48.92025326624263
-0.818829390046811 -9.449261608988049 31.96025675374488
6.127522425289398 -8.146239110412097 22.95357159022817
7.111026085164046 -6.91872385323758 26.41031431670672
-7.549656475177702 5.042850996587743 37.11523124733927
-7.326574321198529 5.841928717013131 33.41059098966979
-7.822159920924947 2.486719779780418 48.18293683301264
1.358780479410735 11.28171290610576 8.090742999016728
6.9743612106411 8.525011746845724 12.52292840378263
6.562798032367787 8.468744823356717 16.34008388346227
3.12887778423924 7.735123082254223 46.45413632038139
2.099714689986831 7.76263522904963 50.2962590626429
5.010368951176321 -7.349413351349717 39.45515938593602
4.238420680522895 -7.258454086765489 45.67476929793043
4.927156738061048 -10.12718793168021 9.374829603413234
7.724279739093391 -8.149610525596739 9.802023923998254
1.18047787897672 -11.24083036530029 8.860729036336826
7.054616888814406 -5.803062735154809 36.40680156443097
-7.699837697730925 1.860065299637516 51.82451670827017
-0.3428510874283264 -7.913562912141503 51.82878249784659
-3.944806773720175 -6.927426028780874 51.18222809141462
7.486268535548584 8.468753366001522 8.852744863905293
3.371503342409563 -7.109057526627939 52.50178789568257
-8.125011275598029 7.883979281285977 8.62308171730044
-10.11000936921544 4.877092686233505 9.848611831787444
-5.113443496053126 10.22772513755488 7.182094268399173
-3.620614168645694 6.929570663550996 53.13192608227502
-5.230911528343735 5.427046204952969 56.70029261565299
-0.2764209289121197 7.800613248103184 53.2960574809453
1.816579166018117 7.315415645173059 56.70029261565298
5.056856414803113 -8.25682881401521 29.44911456719772
-8.930218856799199 2.511631928773117 34.60284784198793
-8.827055701852084 1.696372259440271 38.2637043724431
-7.750443780389103 4.117328639882669 40.96219950033299
6.474313839368746 -9.494828380337871 6.453402192066633
3.462750173233722 10.00262008976749 17.97878608577519
6.106301992634126 8.437765608772397 20.13287634160594
8.637159890356605 6.056929124173484 18.43337847764959
-3.347328415562879 -9.475274014786958 24.78789353244688
5.007461223649528 -9.191722646706621 19.47597515781388
5.699365468849359 8.357993765545501 23.93511693780794
-0.09916712240878499 10.46296064890472 19.52396554701501
7.924862414640606 -6.788065805585174 19.89004660729208
9.385186467205346 -5.092089630097272 16.80270890408975
5.879694935561798 -7.338292386419282 32.99467694286027
3.591089673844734 7.857163136165242 42.70657147691796
1.574023060690266 -9.585579553438988 29.04698050911528
-6.66057327018513 -7.605331416609971 24.01962713802963
8.939159099780769 3.201831944745365 31.82551795508443
7.977279881142592 3.242115591876951 43.06207537169645
7.665094419861371 -3.182708045379109 47.01808378493669
8.316348186140358 -3.169789971389326 39.38979460182681
7.369208621376822 3.164237160371063 50.5728871593084
2.084659053122953 -7.243572840188674 56.70038960242871
8.753290251111043 -6.585876031353457 13.28852259924919
-5.345356727469243 -5.306229458012984 56.77310623084348
-7.315382307578586 -1.816746427087778 56.70019150813178
-6.756053512940534 -3.88099370192657 53.47496043313234
-5.760160975062185 6.378327908988004 43.27313050817536
9.103581900824111 -3.615041720446022 28.01607553126607
9.543862853863963 -3.245777242835507 24.38709715418363
-6.933981761610343 7.131347321409828 26.0900482330313
3.077099808837167 -8.092545564478401 42.46643083408075
-4.655410230908504 -9.218889078357034 21.24897190123682
9.878638670053299 3.190145935112773 20.57172976301183
10.80596429120219 3.182970038162902 9.339095714118459
-9.737677903565029 0.6240718197189725 28.49169108418937
1.522364659214954 9.277103749593383 33.02109659154956
-1.86554288413902 9.09833692790696 34.46398730650069
-8.47531414603425 6.581642965062078 16.12736313122856
10.8023983141443 -3.225268777581443 9.229724530980288
7.864792131608759 6.09146869074313 26.07425478365716
-2.223438877486215 11.01755369025533 9.660915401282498
-9.46269295849685 -0.3017439701300796 32.17842913675231
-4.901866587110449 -6.634383711985187 47.66302087526135
-10.11893052210904 4.135984518513699 13.5757483365071
-11.04570229378027 1.417778117453126 10.97408873916896
-11.1241444567196 2.647147085938113 7.181921082719397
-11.28527931994659 -1.202941436116748 8.269054296552863
-10.8656181941605 -4.046164477190875 5.151995904481852
-8.847695656744817 -7.226128440774727 7.323848781406489
-6.939772849299122 -9.217087832009843 5.875931903523104
-10.82714394051288 0.5278252840059326 14.73917086308426
-3.115497476570217 -8.715448388138109 34.87143422231924
-5.229640263152236 -7.365231261708002 37.69883132096179
5.140043580034561 5.521525034236217 56.622763737726
-10.53955916729599 -0.3407720649125348 18.48667958375673
-10.29366463588529 -3.117544686562745 15.81414988758007
-1.294949615656123 -10.99434955358659 11.81234188937588
-8.389290466434943 -0.321119267333593 45.800353531327
9.251255925413759 3.207691907416395 28.06064660747617
-7.880977765812449 -1.786091514378094 49.79768210871775
6.059667810469477 5.927271619625639 44.76950999848624
5.481403254688127 6.062833914569921 48.62213112262966
6.380574006618952 6.009592391538848 41.10333985809993
8.227613386681865 6.107958874817013 22.27411661432084
5.299283605554569 5.8321892922704 52.34759739794782
7.03759725001755 -3.185082735785535 54.32157302866641
-4.386440564869988 -8.473881615827679 31.23333834518499
-2.153039029136757 -9.526522911724529 28.37560465105431
-7.11937660538018 6.525220326616389 29.76644410247238
-8.930190779802068 3.40979617710592 31.01548930385376
-11.07844094565738 3.830840236728569 3.531291521772172
9.480167587765068 -6.459705938411934 6.711869763525177
1.131937679155929 -11.68135689486795 3.35352546334882
-7.796539518917633 3.355283378519763 44.62582945454445
-6.433942319861685 9.815429035037143 3.351966923415254
4.488214955899196 10.84588135477766 3.330881111054233
0.8062451548362479 11.71199868361771 3.307214945615138
-4.771250776723305 8.174871654646743 32.20543957768486
-1.555418112633602 9.448706246322631 30.80143305507157
5.4448706571658 -6.018579708373646 49.35053740780478
10.21241057880971 3.107581119887502 16.83883671378939
-10.82904069505969 -2.18198203907798 12.11306243704524
9.282210415544268 6.140463112173986 11.06135220984365
8.933168127854586 6.139088784240783 14.74839696370825
-2.897317330173098 -10.95486373229127 8.493764356093445
9.672386059089398 6.067501565908564 7.395621358046155
-7.899979161008796 -7.912886612018402 10.40144731209247
10.2057721168325 -5.8146822200432 3.227485356437227
-6.553293041883128 -4.68613858002691 50.1082177617571
9.914881402607806 6.29262761858319 3.263337848972882
6.055163101500312 -6.126535124299131 43.02436214200029
8.733452378570876 -2.889738086058927 35.58857690392909
7.714595251605263 -5.79890128118807 29.84658859491528
8.033773104559421 -8.594522446817265 2.990223427871836
5.100719733101596 10.26435876927348 6.837623852811777
-6.291010219034097 4.55192957170541 53.80942920959694
-9.890750823364424 5.859543213562728 6.402168421973619
-10.21710604901414 -4.624394297428699 9.975473304131066
3.430126234234681 -10.96580552141809 6.483174171299474
-0.999779040201681 11.45536490015364 6.366945536215883
-6.345277297931435 -9.923592846785066 2.810553407270798
8.116102340362756 -6.168326294787622 22.94632728978354
-3.626286406178197 -6.820466480483968 54.32470733767266
-7.721740298503523 -0.8891513320684606 53.71212352649867
2.617716920624073 7.322551546312288 53.66608476339557
5.841543164577506 -5.29052961688291 52.33430258056747
-0.7472271538335833 -11.49132970280215 6.154905767394699
6.974283203917073 2.738681650490269 57.27029496481619
6.818876782247138 -3.132958185713934 57.12498708662163
10.42125197722616 -2.306573732326239 16.85527288830041
9.520320641007455 -5.85682461970829 10.44949298632567
11.46410595137761 2.734906707860012 2.721475900470036
11.46410595137739 -2.734906707861941 2.721475900467181
-0.3276914827224287 -7.692010784311012 54.64954284913402
-4.35530711485352 -10.68030404344423 5.918646620413151
7.78819945856058 -5.172834946989592 33.67703327991393
-7.815478025073531 8.512649027717144 5.638391453980566
-1.201845431813311 7.922886912290853 50.65297819566974
6.50475915709856 -5.323754050037014 45.67107836584796
6.929792522788655 -5.480450474366254 40.21503961159589
-6.286414415877529 -9.41340704443253 8.646483565153526
-11.19151833672801 -3.853912192044479 2.077470048225951
2.633898073030535 11.25369471867767 5.618506165343842
8.007198785866892 8.272761987146408 6.185353397973196
6.56336038700768 4.230056370155579 8.787638936515123
5.82222187161562 4.318074755982434 15.89893617747317
2.870089804240754 7.556653472217908 5.294134547854589
5.149050959292395 4.270821229729265 23.00151662606233
2.865673328368197 6.958147463223306 12.38662914707781
3.012273561751249 6.280102135444784 19.50197210726639
2.998121274474534 5.660961266150226 26.60840170342761
6.152851446191352 4.33790063157485 12.34690444835181
3.018132888092649 6.586227367320526 15.94848616584726
2.659566577517102 7.336002256419677 8.853444709088347
6.919011778733342 4.185673278015283 5.253149463480326
5.602423566483728 4.143998664841762 19.45965967465132
5.307448362017463 6.343614124848364 2.90894717737766
2.612454571055809 6.152734017523945 23.06952653866047
5.228777672976387 3.703680087250071 26.58643861524009
5.097939567772436 6.114377467855546 6.850975694445931
4.77910319156591 3.953308786653007 29.1950953916894
4.896761278076972 5.912196324263381 10.46051063785052
2.591089515120405 7.884425700585642 2.550492768718457
7.296152625105757 3.958215015165484 2.532584829172197
1.97799331907489 5.795218101018575 30.1965464651544
4.685672317709245 5.72419282727265 14.00953341360519
0.1135046289917536 1.5 3.187263402476014
-4.290371610908336 1.5 12.19462714077743
-3.715628573274238 1.5 19.31349255544177
4.004388940333044 1.5 15.75269595793631
1.77635683940025e-15 1.5 28.65690337400155
4.43416679707672 1.5 8.830459095931861
2.951653600165538 1.5 22.32789514706165
-5.249457041571088 1.5 5.13167946372231
3.820407439454742 1.5 3.344795433971274
2.173072628724593 1.5 6.186829867682125
-3.143858821355668 1.5 26.41765002805192
-4.673779095401565 1.5 8.648752051858992
-1.477795719446416 1.5 10.30552127209199
-1.240462083213197 1.5 13.75581722882844
1.85056539751709 1.5 12.1723784389457
-4.03053878912165 1.5 15.76072458108107
-0.8761895736218044 1.5 17.30631949575895
-0.6333555395040236 1.5 20.88354659234508
4.347884906632443 1.5 19.22698253287535
-0.008744022218106551 1.5 24.56465143184358
3.110351629415311 1.5 26.37537586878003
-3.420412887736077 1.5 22.90037976344283
-1.747671767736836 1.5 6.555351997278075
-3.346640106136283 1.5 2.493479939757731
5.005587641053015 1.5 12.32903505151589
3.273303053701692 1.5 29.3689580218428
-3.273255914701426 1.5 29.36890301349112
0.9854151612955473 1.5 15.58592160927462
1.135258240018348 1.5 8.994683313355161
5.308306213123388 1.5 5.965336835714093
-5.86068497233247 1.5 2.372396384500683
1.498905671595695 1.5 18.72377275703208
-6.480068915990564 4.355543104753962 8.794984259802943
-5.822221871615588 4.318074755982477 15.89893617747317
-3.032162310702926 7.49368280086665 5.287168898326099
-5.149050959292387 4.270821229729275 23.00151662606233
-3.023341310224946 6.890397256523849 12.39484633562297
-3.012273561750693 6.280102135445024 19.50197210726668
-2.998121274474364 5.660961266150307 26.60840170342773
-6.152851446191337 4.337900631574869 12.34690444835183
-2.977368560781991 7.213783659746595 8.842718877850634
-3.018211030527914 6.586194363750189 15.94845375709523
-6.905771955880867 4.199464472942845 5.30611235066695
-5.602423566481963 4.14399866484431 19.45965967465012
-5.306615219608512 6.342618329205489 2.925444388459643
-2.612454571054763 6.152734017524343 23.06952653866101
-5.228777672975684 3.703680087251143 26.5864386152395
-5.113760875351381 6.101780513799662 6.844850016327236
-4.775167112278754 3.957937393459229 29.19610774624611
-4.865769856103956 5.939186626664706 10.4461799502626
-2.591089515112289 7.884425700587451 2.550492768728814
-7.276489228807242 3.98810446764534 2.570122628919664
-1.957107977233763 5.802141115932264 30.19851487907248
-4.695354686523515 5.714564637341677 14.02611362593938
-3.701498499457171 0.7003160221705069 60
3.851738121937664 -0.931509262873081 60
-1.119158375460274 -3.801457693759516 60
1.269397997940749 3.570264453056938 60
2.100948066511433 -3.638948795261449 60
0.620184289598542 -1.130840590299121 60
-1.762894954313782 -1.284003716926086 60
-3.967207069091672 -2.38782306388513 60
1.906222097854563 0.834362000831534 60
4.041174800508617 2.235818364301867 60
-0.7050019238897449 1.138717118726257 60
-2.179815903366991 3.771498029878741 60
0 3.325131280716532 32
-0.0004533076026338456 -4.662936703425657e-15 40.44359472835207
0.5246755264409328 0.3350566803778547 52.90059838570973
0.3075718575333076 -1.960963385697007 46.70451273670285
-2.236851580232607 2.488537827744584 44.74750760283731
3.874874359233278 1.211993705012664 36.97591080507819
-3.860275473894246 5.10702591327572e-15 36.75017394778016
1.335120625374569 -3.840228254276333 37.07944385627302
-0.5242040357561928 3.948910416255087 37.12737159364519
3.168603341495118 1.62751197447219 44.2425612324944
0.07765819989028111 3.427117269995614 49.02199931840943
-3.280722302011768 -2.073800271932463 43.39061637434639
-1.778693991615293 -2.62907540586125 55.5852880714453
2.188148557681422 -3.491038561089748 42.6876318390094
-2.698408629178063 -3.880136859667747 39.23133311399374
0.5694200814035828 4.366217901156657 41.66758496648308
-3.071565869513724 -1.321068456577592 50.11304718176555
3.648388291375091 -0.5886819294752135 49.60619478438571
3.369322616750332 0.4916521623208275 56.03769920416193
-3.468207740997308 2.868803337057767 40.35678338036065
-2.353264180879994 1.944870632165471 55.92156547900326
0.1587164524698674 -0.114767586038089 35.54437736381215
1.011492826215141 -3.956643505733086 50.53641046741328
4.087281650901309 -0.3820731073780261 40.76723427399242
4.792644512318176 -2.440559051864581 35.72423660530016
2.177185391843722 -3.149196481043457 54.43825419631595
-2.999447063173089 2.55995781861113 51.78879324182084
-2.166094667770305 -3.452452642073457 35.38047651695627
0.6981159447103571 4.888695013114218 45.49416929313168

CELLS 3121 14183
1 0
1 1
1 2
1 3
1 4
1 5
1 6
1 7
1 8
1 9
1 10
1 11
2 0 12
2 12 13
2 13 14
2 14 15
2 15 16
2 16 1
2 0 17
2 17 18
2 18 19
2 19 20
2 20 1
2 2 21
2 21 22
2 22 23
2 23 24
2 24 25
2 25 26
2 26 27
2 27 28
2 28 0
2 2 29
2 29 30
2 30 31
2 31 3
2 1 32
2 32 33
2 33 34
2 34 35
2 35 36
2 36 37
2 37 38
2 38 39
2 39 3
2 2 40
2 40 41
2 41 3
2 4 42
2 42 43
2 43 44
2 44 45
2 45 46
2 46 47
2 47 48
2 48 49
2 49 50
2 50 51
2 51 52
2 52 53
2 53 54
2 54 55
2 55 56
2 56 57
2 57 58
2 58 59
2 59 4
2 5 60
2 60 61
2 61 6
2 5 62
2 62 63
2 63 64
2 64 65
2 65 7
2 6 66
2 66 67
2 67 7
2 8 68
2 68 69
2 69 70
2 70 71
2 71 72
2 72 73
2 73 74
2 74 75
2 75 76
2 76 77
2 77 78
2 78 8
2 4 79
2 79 80
2 80 81
2 81 82
2 82 83
2 83 84
2 84 85
2 85 86
2 86 87
2 87 88
2 88 89
2 89 90
2 90 91
2 91 92
2 92 93
2 93 8
2 9 94
2 94 95
2 95 96
2 96 97
2 97 98
2 98 99
2 99 100
2 100 101
2 101 5
2 9 102
2 102 10
2 6 103
2 103 104
2 104 105
2 105 106
2 106 107
2 107 108
2 108 109
2 109 110
2 110 10
2 7 111
2 111 112
2 112 113
2 113 114
2 114 115
2 115 116
2 116 117
2 117 118
2 118 11
2 9 119
2 119 120
2 120 11
2 10 121
2 121 11
3 12 164 0
3 0 164 28
3 1 165 16
3 32 165 1
3 21 162 2
3 2 162 29
3 31 163 3
3 3 163 39
3 13 155 12
3 155 164 12
3 14 128 13
3 128 155 13
3 15 158 14
3 14 158 128
3 16 130 15
3 130 158 15
3 16 165 130
3 22 146 21
3 146 162 21
3 23 127 22
3 127 146 22
3 24 145 23
3 23 145 127
3 25 126 24
3 126 145 24
3 26 131 25
3 25 131 126
3 27 125 26
3 125 131 26
3 28 148 27
3 27 148 125
3 28 164 148
3 29 129 30
3 29 162 129
3 30 147 31
3 129 147 30
3 147 163 31
3 33 156 32
3 156 165 32
3 34 122 33
3 122 156 33
3 35 144 34
3 34 144 122
3 36 123 35
3 123 144 35
3 37 154 36
3 36 154 123
3 38 124 37
3 124 154 37
3 39 149 38
3 38 149 124
3 39 163 149
3 144 160 122
3 122 157 156
3 122 160 157
3 123 154 140
3 140 166 123
3 123 166 144
3 142 154 124
3 124 159 142
3 149 159 124
3 125 132 131
3 125 133 132
3 125 148 133
3 131 151 126
3 126 150 145
3 126 151 150
3 145 152 127
3 127 153 146
3 152 153 127
3 128 134 133
3 133 155 128
3 128 139 134
3 128 158 139
3 146 153 129
3 129 162 146
3 129 161 147
3 153 161 129
3 130 157 139
3 139 158 130
3 156 157 130
3 130 165 156
3 132 151 131
3 133 134 132
3 134 135 132
3 135 151 132
3 148 155 133
3 134 136 135
3 134 139 136
3 136 137 135
3 137 138 135
3 138 151 135
3 136 160 137
3 139 157 136
3 157 160 136
3 137 140 138
3 137 166 140
3 160 166 137
3 140 141 138
3 141 150 138
3 150 151 138
3 140 142 141
3 140 154 142
3 142 143 141
3 143 152 141
3 141 152 150
3 142 159 143
3 143 153 152
3 143 161 153
3 159 161 143
3 144 166 160
3 150 152 145
3 147 159 149
3 149 163 147
3 147 161 159
3 148 164 155
3 28 17 0
3 20 197 1
3 1 197 32
3 2 193 21
3 40 193 2
3 39 192 3
3 3 192 41
3 17 174 18
3 28 174 17
3 18 167 19
3 18 174 167
3 19 190 20
3 167 190 19
3 190 197 20
3 21 176 22
3 21 193 176
3 22 187 23
3 176 187 22
3 23 169 24
3 23 187 169
3 24 194 25
3 169 194 24
3 25 191 26
3 25 194 191
3 26 171 27
3 26 191 171
3 27 196 28
3 171 196 27
3 28 196 174
3 32 173 33
3 32 197 173
3 33 177 34
3 173 177 33
3 34 168 35
3 34 177 168
3 35 183 36
3 168 183 35
3 36 184 37
3 183 184 36
3 37 172 38
3 37 184 172
3 38 188 39
3 172 188 38
3 188 192 39
3 41 170 40
3 170 193 40
3 41 192 170
3 174 175 167
3 175 189 167
3 189 190 167
3 177 178 168
3 178 179 168
3 179 183 168
3 181 194 169
3 169 198 181
3 187 198 169
3 170 186 176
3 176 193 170
3 170 188 186
3 170 192 188
3 171 195 175
3 175 196 171
3 171 191 180
3 180 195 171
3 184 185 172
3 185 186 172
3 186 188 172
3 173 189 177
3 173 190 189
3 173 197 190
3 174 196 175
3 175 195 189
3 186 187 176
3 177 189 178
3 178 180 179
3 178 195 180
3 189 195 178
3 180 181 179
3 181 182 179
3 182 183 179
3 180 191 181
3 181 198 182
3 191 194 181
3 182 184 183
3 182 185 184
3 182 198 185
3 185 187 186
3 185 198 187
3 40 2 29
3 3 41 31
3 30 199 29
3 29 199 40
3 31 199 30
3 41 199 31
3 40 199 41
3 0 200 7
3 7 202 0
3 0 12 52
3 0 202 17
3 51 0 52
3 51 200 0
3 4 1 5
3 59 1 4
3 1 203 5
3 16 1 59
3 20 203 1
3 42 4 5
3 5 60 42
3 5 203 62
3 46 45 6
3 6 45 61
3 6 207 46
3 66 207 6
3 50 49 7
3 7 49 67
3 7 200 50
3 65 202 7
3 53 12 13
3 52 12 53
3 14 206 13
3 13 54 53
3 13 206 54
3 15 56 14
3 14 56 55
3 55 206 14
3 16 57 15
3 15 57 56
3 16 58 57
3 16 59 58
3 17 205 18
3 17 202 65
3 65 205 17
3 18 201 19
3 64 201 18
3 18 205 64
3 19 204 20
3 19 201 63
3 63 204 19
3 62 203 20
3 20 204 62
3 42 60 43
3 43 60 44
3 45 44 61
3 44 60 61
3 46 207 47
3 48 47 66
3 47 207 66
3 49 48 67
3 67 48 66
3 50 200 51
3 54 206 55
3 62 204 63
3 63 201 64
3 64 205 65
3 42 465 4
3 4 466 59
3 4 465 79
3 79 466 4
3 8 461 68
3 78 462 8
3 93 461 8
3 8 462 93
3 43 443 42
3 443 465 42
3 44 223 43
3 223 443 43
3 45 429 44
3 44 429 223
3 46 430 45
3 45 430 429
3 47 214 46
3 214 430 46
3 48 428 47
3 47 428 214
3 49 225 48
3 225 428 48
3 50 424 49
3 49 424 225
3 51 213 50
3 213 424 50
3 52 475 51
3 51 475 213
3 53 226 52
3 226 475 52
3 54 454 53
3 53 454 226
3 55 217 54
3 217 454 54
3 56 426 55
3 55 426 217
3 57 224 56
3 224 426 56
3 58 447 57
3 57 447 224
3 59 441 58
3 441 447 58
3 59 466 441
3 68 407 69
3 68 461 407
3 69 351 70
3 69 407 351
3 70 221 71
3 70 351 221
3 71 349 72
3 221 349 71
3 72 215 73
3 72 349 215
3 73 378 74
3 215 378 73
3 74 377 75
3 74 378 377
3 75 219 76
3 75 377 219
3 76 375 77
3 219 375 76
3 77 229 78
3 77 375 229
3 229 462 78
3 80 228 79
3 79 230 80
3 228 466 79
3 79 465 230
3 80 387 81
3 81 392 80
3 80 392 228
3 230 387 80
3 81 218 82
3 82 220 81
3 81 387 218
3 220 392 81
3 82 434 83
3 83 463 82
3 218 434 82
3 82 463 220
3 84 211 83
3 83 386 84
3 211 463 83
3 83 434 386
3 84 210 85
3 85 382 84
3 84 386 210
3 84 382 211
3 86 381 85
3 85 412 86
3 210 412 85
3 381 382 85
3 87 208 86
3 86 370 87
3 208 381 86
3 86 412 370
3 87 209 88
3 88 445 87
3 87 445 208
3 87 370 209
3 88 231 89
3 89 373 88
3 209 231 88
3 373 445 88
3 90 212 89
3 89 371 90
3 212 373 89
3 231 371 89
3 90 216 91
3 91 372 90
3 90 372 212
3 90 371 216
3 92 222 91
3 91 374 92
3 216 374 91
3 222 372 91
3 92 227 93
3 93 419 92
3 92 419 222
3 92 374 227
3 227 461 93
3 93 462 419
3 208 446 381
3 445 469 208
3 208 469 446
3 209 232 231
3 209 233 232
3 209 370 233
3 386 417 210
3 393 412 210
3 210 417 393
3 364 365 211
3 211 455 364
3 365 463 211
3 382 455 211
3 372 472 212
3 212 473 373
3 212 472 444
3 444 473 212
3 213 400 399
3 399 424 213
3 213 401 400
3 213 475 401
3 214 428 347
3 347 453 214
3 214 453 430
3 215 449 340
3 340 457 215
3 349 449 215
3 215 457 378
3 371 414 216
3 216 415 374
3 414 415 216
3 426 460 217
3 217 468 454
3 460 468 217
3 387 436 218
3 218 437 434
3 436 437 218
3 219 467 375
3 377 456 219
3 456 467 219
3 365 376 220
3 220 463 365
3 376 464 220
3 220 464 392
3 348 349 221
3 221 350 348
3 221 351 350
3 222 433 372
3 419 459 222
3 222 459 433
3 429 448 223
3 223 477 443
3 448 477 223
3 224 447 356
3 356 452 224
3 224 452 426
3 424 450 225
3 225 470 428
3 450 470 225
3 226 402 401
3 401 475 226
3 226 403 402
3 226 454 403
3 374 418 227
3 227 418 407
3 407 461 227
3 392 425 228
3 425 441 228
3 441 466 228
3 229 375 344
3 344 459 229
3 229 459 419
3 419 462 229
3 230 439 387
3 230 443 439
3 230 465 443
3 232 416 231
3 231 416 371
3 233 234 232
3 234 235 232
3 235 416 232
3 233 236 234
3 233 237 236
3 233 370 237
3 234 275 235
3 236 389 234
3 234 389 275
3 275 276 235
3 276 367 235
3 367 416 235
3 237 238 236
3 238 239 236
3 239 389 236
3 237 393 238
3 370 412 237
3 237 412 393
3 238 240 239
3 238 362 240
3 238 393 362
3 240 241 239
3 241 432 239
3 239 432 389
3 240 242 241
3 240 274 242
3 240 362 274
3 242 243 241
3 243 244 241
3 244 432 241
3 242 245 243
3 242 363 245
3 274 363 242
3 243 383 244
3 245 246 243
3 246 383 243
3 383 422 244
3 422 431 244
3 431 432 244
3 245 247 246
3 245 259 247
3 245 363 259
3 247 248 246
3 248 249 246
3 249 383 246
3 247 391 248
3 259 279 247
3 279 391 247
3 248 250 249
3 248 270 250
3 248 391 270
3 250 251 249
3 251 319 249
3 319 383 249
3 250 252 251
3 250 408 252
3 270 408 250
3 252 253 251
3 253 388 251
3 251 388 319
3 252 254 253
3 252 257 254
3 252 408 257
3 254 255 253
3 255 256 253
3 256 388 253
3 254 369 255
3 257 258 254
3 258 369 254
3 255 260 256
3 255 264 260
3 255 369 264
3 260 261 256
3 261 395 256
3 256 395 388
3 257 272 258
3 257 409 272
3 408 409 257
3 272 273 258
3 273 385 258
3 258 385 369
3 259 287 279
3 259 300 287
3 259 363 300
3 260 262 261
3 260 420 262
3 264 420 260
3 262 263 261
3 263 265 261
3 265 395 261
3 262 406 263
3 405 406 262
3 262 420 405
3 263 266 265
3 263 267 266
3 263 406 267
3 264 369 360
3 360 421 264
3 264 421 420
3 266 354 265
3 265 354 353
3 353 395 265
3 267 268 266
3 268 271 266
3 271 354 266
3 267 269 268
3 267 277 269
3 267 406 277
3 269 280 268
3 268 411 271
3 280 411 268
3 277 278 269
3 278 396 269
3 269 396 280
3 391 397 270
3 397 404 270
3 404 408 270
3 271 355 354
3 271 427 355
3 411 427 271
3 272 281 273
3 272 285 281
3 272 409 285
3 281 282 273
3 282 283 273
3 283 385 273
3 274 358 357
3 357 363 274
3 274 362 358
3 275 286 276
3 275 390 286
3 389 390 275
3 286 291 276
3 291 292 276
3 292 367 276
3 277 289 278
3 277 306 289
3 277 406 306
3 289 295 278
3 295 299 278
3 299 396 278
3 287 298 279
3 298 312 279
3 312 391 279
3 396 442 280
3 280 413 411
3 280 442 413
3 281 305 282
3 285 440 281
3 281 440 305
3 282 284 283
3 282 410 284
3 305 410 282
3 284 288 283
3 288 303 283
3 303 385 283
3 284 290 288
3 284 296 290
3 284 410 296
3 409 435 285
3 435 451 285
3 285 451 440
3 286 314 291
3 286 315 314
3 286 390 315
3 287 394 298
3 300 301 287
3 301 394 287
3 290 361 288
3 288 304 303
3 288 361 304
3 289 384 295
3 306 307 289
3 307 384 289
3 296 318 290
3 318 321 290
3 321 361 290
3 291 293 292
3 291 380 293
3 314 380 291
3 293 294 292
3 294 332 292
3 332 367 292
3 293 297 294
3 293 313 297
3 293 380 313
3 297 471 294
3 294 333 332
3 294 471 333
3 295 322 299
3 295 335 322
3 295 384 335
3 296 336 318
3 296 338 336
3 296 410 338
3 313 320 297
3 320 348 297
3 348 471 297
3 298 345 312
3 298 347 345
3 298 394 347
3 322 341 299
3 341 342 299
3 342 396 299
3 300 302 301
3 300 357 302
3 300 363 357
3 302 311 301
3 311 329 301
3 329 394 301
3 302 330 311
3 302 331 330
3 302 357 331
3 304 316 303
3 316 360 303
3 360 385 303
3 304 317 316
3 304 324 317
3 304 361 324
3 305 438 410
3 305 474 438
3 440 474 305
3 306 308 307
3 306 405 308
3 306 406 405
3 308 309 307
3 309 334 307
3 334 384 307
3 308 310 309
3 308 323 310
3 308 405 323
3 310 366 309
3 309 339 334
3 309 366 339
3 323 368 310
3 352 366 310
3 310 368 352
3 311 448 329
3 330 343 311
3 343 448 311
3 345 346 312
3 346 397 312
3 312 397 391
3 313 328 320
3 313 427 328
3 380 427 313
3 315 326 314
3 326 355 314
3 355 380 314
3 315 327 326
3 315 431 327
3 390 431 315
3 317 368 316
3 316 421 360
3 368 421 316
3 324 325 317
3 325 352 317
3 352 368 317
3 318 376 321
3 336 337 318
3 337 376 318
3 319 422 383
3 388 423 319
3 319 423 422
3 328 340 320
3 340 449 320
3 320 449 348
3 321 364 361
3 321 365 364
3 321 376 365
3 335 433 322
3 322 344 341
3 322 433 344
3 323 421 368
3 405 420 323
3 420 421 323
3 324 455 325
3 361 364 324
3 364 455 324
3 325 446 352
3 325 382 381
3 381 446 325
3 325 455 382
3 327 353 326
3 353 354 326
3 354 355 326
3 327 423 353
3 422 423 327
3 327 431 422
3 328 413 340
3 411 413 328
3 328 427 411
3 329 453 394
3 448 476 329
3 329 476 453
3 331 437 330
3 330 436 343
3 330 437 436
3 357 358 331
3 358 359 331
3 359 437 331
3 333 415 332
3 332 414 367
3 332 415 414
3 350 458 333
3 333 471 350
3 333 418 415
3 333 458 418
3 339 473 334
3 334 444 384
3 334 473 444
3 384 444 335
3 335 472 433
3 444 472 335
3 336 356 337
3 338 452 336
3 336 452 356
3 356 425 337
3 337 464 376
3 425 464 337
3 410 438 338
3 438 460 338
3 338 460 452
3 366 469 339
3 339 445 373
3 373 473 339
3 339 469 445
3 413 457 340
3 341 456 342
3 344 467 341
3 341 467 456
3 379 442 342
3 342 456 379
3 342 442 396
3 436 439 343
3 439 477 343
3 343 477 448
3 375 467 344
3 433 459 344
3 345 450 346
3 347 470 345
3 345 470 450
3 346 398 397
3 346 399 398
3 346 450 399
3 394 453 347
3 428 470 347
3 348 449 349
3 350 471 348
3 351 458 350
3 407 458 351
3 352 446 366
3 353 423 395
3 355 427 380
3 356 447 425
3 358 417 359
3 362 417 358
3 359 417 386
3 386 434 359
3 434 437 359
3 369 385 360
3 393 417 362
3 446 469 366
3 414 416 367
3 371 416 414
3 433 472 372
3 415 418 374
3 378 379 377
3 379 456 377
3 378 457 379
3 413 442 379
3 379 457 413
3 387 439 436
3 395 423 388
3 389 432 390
3 390 432 431
3 392 464 425
3 398 404 397
3 399 400 398
3 400 435 398
3 398 435 404
3 399 450 424
3 401 451 400
3 400 451 435
3 402 451 401
3 403 474 402
3 440 451 402
3 402 474 440
3 454 468 403
3 468 474 403
3 404 409 408
3 404 435 409
3 418 458 407
3 425 447 441
3 452 460 426
3 430 476 429
3 429 476 448
3 453 476 430
3 438 468 460
3 438 474 468
3 443 477 439
3 60 5 497
3 5 101 497
3 6 61 496
3 103 6 496
3 94 9 494
3 9 102 494
3 102 10 498
3 10 110 498
3 61 60 490
3 490 60 497
3 61 490 496
3 95 94 492
3 492 94 494
3 96 95 481
3 481 95 492
3 97 96 489
3 96 481 489
3 98 97 479
3 479 97 489
3 99 98 485
3 98 479 485
3 100 99 478
3 478 99 485
3 101 100 488
3 100 478 488
3 101 488 497
3 494 102 498
3 104 103 480
3 480 103 496
3 105 104 487
3 104 480 487
3 106 105 482
3 482 105 487
3 107 106 486
3 106 482 486
3 108 107 483
3 483 107 486
3 109 108 491
3 108 483 491
3 110 109 484
3 484 109 491
3 110 484 498
3 478 485 495
3 488 478 493
3 493 478 495
3 479 483 486
3 483 479 489
3 485 479 499
3 479 486 499
3 487 480 493
3 480 490 493
3 490 480 496
3 481 483 489
3 483 481 491
3 481 484 491
3 484 481 492
3 486 482 499
3 482 487 495
3 482 495 499
3 484 492 494
3 484 494 498
3 495 485 499
3 487 493 495
3 490 488 493
3 488 490 497
3 62 101 5
3 65 7 530
3 7 111 530
3 9 94 525
3 119 9 525
3 118 11 526
3 11 120 526
3 62 63 508
3 101 62 508
3 63 64 500
3 63 500 508
3 64 65 523
3 500 64 523
3 523 65 530
3 94 95 520
3 94 520 525
3 95 96 506
3 95 506 520
3 96 97 518
3 506 96 518
3 97 98 503
3 97 503 518
3 98 99 524
3 503 98 524
3 99 100 505
3 99 505 524
3 100 101 529
3 505 100 529
3 101 508 529
3 111 112 507
3 111 507 530
3 112 113 511
3 507 112 511
3 113 114 501
3 113 501 511
3 114 115 515
3 501 114 515
3 115 116 502
3 115 502 515
3 116 117 521
3 502 116 521
3 117 118 510
3 117 510 521
3 510 118 526
3 120 119 504
3 504 119 525
3 120 504 526
3 508 500 509
3 509 500 522
3 522 500 523
3 511 501 512
3 512 501 513
3 513 501 515
3 515 502 516
3 516 502 517
3 517 502 521
3 514 503 524
3 503 514 527
3 518 503 531
3 503 527 531
3 510 504 519
3 504 510 526
3 519 504 520
3 520 504 525
3 505 509 528
3 509 505 529
3 505 514 524
3 514 505 528
3 506 517 519
3 517 506 531
3 506 518 531
3 506 519 520
3 507 511 522
3 507 522 523
3 507 523 530
3 508 509 529
3 509 522 528
3 510 519 521
3 511 512 522
3 512 513 514
3 512 514 528
3 522 512 528
3 514 513 527
3 513 515 516
3 513 516 527
3 516 517 531
3 527 516 531
3 519 517 521
3 66 6 550
3 6 103 550
3 7 67 551
3 111 7 551
3 110 10 552
3 10 121 552
3 11 118 548
3 121 11 548
3 67 66 544
3 544 66 550
3 67 544 551
3 103 104 534
3 103 534 550
3 104 105 540
3 534 104 540
3 105 106 536
3 105 536 540
3 106 107 541
3 536 106 541
3 107 108 537
3 107 537 541
3 108 109 545
3 537 108 545
3 109 110 538
3 109 538 545
3 538 110 552
3 112 111 542
3 542 111 551
3 113 112 532
3 532 112 542
3 114 113 539
3 113 532 539
3 115 114 533
3 533 114 539
3 116 115 543
3 115 533 543
3 117 116 535
3 535 116 543
3 118 117 546
3 117 535 546
3 118 546 548
3 121 548 552
3 539 532 549
3 532 542 547
3 532 547 549
3 537 533 541
3 533 537 543
3 533 539 553
3 541 533 553
3 534 540 547
3 544 534 547
3 534 544 550
3 537 535 543
3 535 537 545
3 538 535 545
3 535 538 546
3 540 536 549
3 536 541 553
3 549 536 553
3 546 538 548
3 548 538 552
3 539 549 553
3 547 540 549
3 542 544 547
3 544 542 551
3 68 563 8
3 8 555 78
3 8 563 555
3 69 563 68
3 70 557 69
3 557 563 69
3 71 565 70
3 70 565 557
3 72 565 71
3 73 554 72
3 554 565 72
3 74 561 73
3 73 561 554
3 75 561 74
3 76 556 75
3 556 561 75
3 77 558 76
3 76 558 556
3 78 558 77
3 555 558 78
3 554 561 560
3 560 564 554
3 564 565 554
3 555 559 558
3 555 562 559
3 555 563 562
3 558 559 556
3 559 560 556
3 560 561 556
3 562 563 557
3 557 564 562
3 557 565 564
3 559 564 560
3 562 564 559
3 119 102 9
3 10 102 566
3 121 10 566
3 121 120 11
3 102 119 566
3 119 120 566
3 120 121 566
4 351 568 584 586
4 416 235 571 581
4 121 326 572 574
4 121 315 326 574
4 234 571 235 574
4 234 232 235 571
4 351 568 458 584
4 235 574 571 581
4 289 577 278 579
4 102 571 234 574
4 416 581 571 589
4 289 577 579 580
4 278 577 569 579
4 411 577 570 582
4 295 278 569 579
4 351 584 557 586
4 266 271 577 585
4 564 562 559 584
4 278 289 277 577
4 351 458 568 586
4 227 568 583 584
4 278 396 569 577
4 557 562 564 584
4 232 416 235 571
4 289 277 577 580
4 227 583 92 584
4 227 418 374 583
4 11 121 326 572
4 227 568 418 583
4 415 576 575 583
4 569 577 396 582
4 280 396 577 582
4 396 299 278 569
4 418 568 227 584
4 350 568 458 586
4 572 574 326 585
4 416 575 581 589
4 415 575 216 583
4 351 350 458 586
4 271 570 577 585
4 280 577 411 582
4 102 232 234 571
4 271 570 427 577
4 295 289 278 579
4 570 576 313 592
4 458 568 418 584
4 568 576 418 583
4 564 584 559 586
4 299 295 278 569
4 234 10 102 574
4 299 569 396 582
4 328 570 313 592
4 328 411 570 582
4 416 571 231 589
4 472 569 433 583
4 374 576 415 583
4 374 418 576 583
4 271 427 570 585
4 234 275 10 574
4 351 458 407 584
4 212 372 575 579
4 473 573 579 589
4 350 568 586 592
4 315 326 574 585
4 328 582 570 592
4 327 326 11 121
4 458 568 350 576
4 227 374 92 583
4 473 573 589 590
4 350 576 568 592
4 266 572 354 585
4 374 418 415 576
4 433 472 335 569
4 102 119 571 574
4 11 326 353 572
4 212 579 575 589
4 275 234 235 574
4 569 582 299 588
4 102 233 232 571
4 473 573 334 579
4 120 121 572 574
4 92 584 583 591
4 411 427 570 577
4 271 266 354 585
4 415 575 576 594
4 315 574 314 585
4 418 568 458 576
4 335 569 472 579
4 567 580 577 585
4 350 351 221 586
4 457 586 578 592
4 570 577 569 582
4 315 314 326 585
4 572 580 567 585
4 233 9 209 571
4 289 307 306 580
4 295 299 322 569
4 457 578 582 592
4 351 407 557 584
4 411 271 427 577
4 416 371 575 589
4 2 572 263 593
4 297 313 576 592
4 102 566 119 574
4 231 416 232 571
4 407 458 418 584
4 233 102 9 571
4 419 584 92 591
4 212 472 372 579
4 295 322 335 569
4 233 209 232 571
4 559 584 578 586
4 216 575 91 583
4 570 582 576 592
4 567 570 569 575
4 335 569 322 588
4 307 573 306 580
4 384 307 289 579
4 315 121 390 574
4 557 584 564 586
4 295 569 335 579
4 416 231 371 589
4 297 313 570 576
4 334 573 307 579
4 90 212 372 575
4 569 570 567 577
4 374 415 216 583
4 267 266 577 580
4 286 581 291 585
4 419 92 583 591
4 297 313 293 570
4 416 575 367 581
4 121 327 326 315
4 2 265 263 572
4 433 569 335 588
4 278 269 396 577
4 286 574 581 585
4 327 11 326 353
4 2 263 29 593
4 268 266 271 577
4 433 583 569 588
4 263 262 29 593
4 557 221 351 586
4 306 573 308 593
4 276 574 235 581
4 416 414 367 575
4 407 418 227 584
4 10 390 121 574
4 90 575 372 583
4 571 574 567 581
4 90 91 575 583
4 308 309 30 573
4 322 569 299 588
4 120 121 11 572
4 334 573 473 590
4 433 335 322 588
4 268 267 266 577
4 90 212 575 589
4 234 102 233 232
4 571 581 567 589
4 372 472 433 583
4 566 102 10 574
4 567 575 569 579
4 291 581 570 585
4 30 309 31 573
4 275 235 276 574
4 297 320 313 592
4 405 306 308 593
4 320 328 313 592
4 569 576 570 582
4 87 571 9 590
4 291 570 380 585
4 88 571 87 590
4 384 334 307 579
4 263 572 266 580
4 291 293 570 594
4 119 571 574 587
4 342 299 396 582
4 378 578 457 586
4 209 87 88 571
4 90 91 216 575
4 209 9 87 571
4 569 575 570 576
4 291 570 581 594
4 280 396 269 577
4 575 576 569 583
4 569 577 567 579
4 414 575 415 594
4 263 572 580 593
4 578 584 559 591
4 278 277 269 577
4 328 411 427 570
4 275 10 389 234
4 390 10 275 574
4 308 573 30 593
4 380 291 293 570
4 473 589 373 590
4 314 315 286 574
4 569 576 568 583
4 442 396 280 582
4 342 299 582 588
4 306 580 573 593
4 567 573 579 580
4 286 574 276 581
4 314 286 291 585
4 294 297 293 594
4 88 589 571 590
4 350 586 348 592
4 367 581 575 594
4 90 372 91 583
4 554 578 378 586
4 415 414 216 575
4 567 579 577 580
4 570 576 575 594
4 221 557 565 586
4 413 280 411 582
4 405 308 30 593
4 378 554 561 578
4 2 265 261 263
4 367 575 414 594
4 350 221 348 586
4 286 276 291 581
4 326 354 572 585
4 568 576 569 582
4 419 92 222 583
4 583 584 568 591
4 286 315 390 574
4 380 570 427 585
4 333 418 458 576
4 314 574 286 585
4 471 576 350 592
4 235 416 367 581
4 11 353 265 572
4 457 578 379 582
4 308 30 309 310
4 269 277 267 580
4 120 574 572 587
4 11 265 2 572
4 269 267 577 580
4 9 571 119 590
4 373 589 88 590
4 271 355 427 585
4 269 577 277 580
4 295 384 289 579
4 309 31 573 590
4 567 573 571 589
4 231 571 88 589
4 294 576 297 594
4 119 574 566 587
4 567 571 573 587
4 307 308 306 573
4 3 119 41 590
4 309 30 31 310
4 9 119 3 590
4 555 584 462 591
4 416 371 414 575
4 354 353 326 572
4 406 306 405 593
4 328 427 313 570
4 406 580 306 593
4 556 558 375 578
4 554 560 561 578
4 456 578 467 588
4 267 263 266 580
4 419 222 459 583
4 263 580 406 593
4 3 87 9 590
4 120 566 121 574
4 570 575 567 581
4 333 458 350 576
4 573 580 567 587
4 568 569 583 588
4 572 567 580 587
4 291 292 293 594
4 379 578 456 582
4 558 578 559 591
4 286 275 276 574
4 266 263 265 572
4 567 579 573 589
4 263 406 262 593
4 560 578 554 586
4 291 581 292 594
4 578 584 568 586
4 419 583 459 591
4 328 413 411 582
4 418 333 415 576
4 341 456 467 588
4 339 334 473 590
4 556 375 219 578
4 119 9 102 571
4 570 567 577 585
4 411 268 271 577
4 390 275 286 574
4 121 566 10 574
4 339 573 334 590
4 558 555 462 591
4 271 354 355 585
4 568 582 569 588
4 215 586 457 592
4 563 557 407 584
4 568 582 578 592
4 556 559 558 578
4 374 216 91 583
4 334 339 309 573
4 332 414 415 594
4 568 578 586 592
4 571 589 573 590
4 571 567 574 587
4 467 588 578 591
4 375 578 558 591
4 355 380 427 585
4 572 574 567 587
4 419 93 92 584
4 580 587 573 593
4 567 574 572 585
4 309 573 339 590
4 572 587 580 593
4 215 378 457 586
4 289 306 277 580
4 90 575 371 589
4 26 404 114 113
4 25 26 404 114
4 471 333 350 576
4 209 231 232 571
4 354 265 353 572
4 449 586 215 592
4 307 309 308 573
4 348 471 350 592
4 234 10 389 102
4 40 120 2 572
4 2 120 11 572
4 380 313 427 570
4 405 262 406 593
4 342 379 456 582
4 559 562 555 584
4 560 559 556 578
4 280 268 411 577
4 88 87 445 590
4 92 93 227 584
4 293 313 380 570
4 578 582 568 588
4 567 581 575 589
4 342 456 341 588
4 309 339 31 590
4 209 88 231 571
4 342 396 442 582
4 30 31 199 573
4 457 378 379 578
4 554 378 215 586
4 41 573 31 590
4 265 354 266 572
4 212 473 579 589
4 326 355 354 585
4 389 390 10 275
4 269 267 268 577
4 89 231 88 589
4 340 215 457 592
4 583 588 459 591
4 199 31 41 573
4 340 449 215 592
4 334 309 307 573
4 404 26 435 113
4 120 566 574 587
4 309 366 31 339
4 297 576 471 592
4 25 26 435 404
4 221 70 557 351
4 575 579 567 589
4 99 34 33 80
4 444 473 334 579
4 563 562 557 584
4 384 295 335 579
4 29 405 30 593
4 276 235 367 581
4 570 581 567 585
4 118 117 21 388
4 40 572 2 593
4 79 100 33 80
4 340 457 582 592
4 405 29 262 593
4 41 587 573 590
4 114 404 24 115
4 267 406 263 580
4 24 25 404 114
4 340 582 328 592
4 568 584 578 591
4 89 371 231 589
4 444 334 384 579
4 564 560 554 586
4 33 100 99 80
4 269 268 280 577
4 221 70 565 557
4 558 462 229 591
4 222 372 433 583
4 314 291 380 585
4 565 557 564 586
4 567 581 574 585
4 219 377 556 578
4 90 371 89 589
4 561 377 378 578
4 117 23 252 116
4 459 222 433 583
4 199 30 573 593
4 395 2 11 265
4 414 371 216 575
4 571 573 587 590
4 21 11 118 395
4 435 398 404 113
4 199 573 41 587
4 442 280 413 582
4 116 252 117 251
4 459 583 433 588
4 212 473 444 579
4 11 353 395 265
4 388 21 118 395
4 556 219 75 377
4 570 575 581 594
4 348 297 471 592
4 121 431 315 390
4 568 578 588 591
4 442 379 342 582
4 349 348 221 586
4 79 33 32 228
4 92 374 91 583
4 404 408 24 115
4 339 473 373 590
4 294 332 333 594
4 556 377 561 578
4 556 76 219 375
4 233 370 102 237
4 332 367 414 594
4 219 375 467 578
4 348 586 449 592
4 120 572 40 587
4 373 89 88 589
4 294 333 576 594
4 3 445 87 590
4 555 93 462 584
4 27 125 401 148
4 554 72 565 586
4 8 93 555 584
4 375 467 578 591
4 115 23 408 24
4 23 115 408 116
4 11 21 2 395
4 297 294 471 576
4 576 582 568 592
4 349 449 348 586
4 32 1 5 79
4 228 79 33 80
4 326 314 355 585
4 98 35 34 81
4 331 358 489 359
4 24 25 409 404
4 370 102 9 233
4 216 371 90 575
4 276 292 291 581
4 24 126 145 257
4 98 34 99 81
4 31 339 469 590
4 258 385 273 152
4 212 373 473 589
4 152 258 369 127
4 34 99 81 80
4 461 93 8 584
4 33 101 79 32
4 462 584 419 591
4 212 444 472 579
4 335 472 444 579
4 199 573 587 593
4 340 413 328 582
4 534 540 104 453
4 405 29 30 420
4 22 21 117 388
4 339 366 31 469
4 555 563 8 584
4 243 383 246 545
4 82 35 36 97
4 97 82 35 98
4 90 89 212 589
4 107 259 106 541
4 565 72 349 586
4 420 30 405 323
4 207 103 6 430
4 543 115 116 250
4 445 373 88 590
4 377 379 378 578
4 208 469 3 163
4 35 97 183 36
4 97 35 183 98
4 377 75 556 561
4 563 407 461 584
4 215 72 554 586
4 36 37 83 97
4 222 92 91 583
4 327 548 11 423
4 11 548 327 121
4 461 407 227 584
4 101 33 79 100
4 201 64 167 500
4 201 167 19 500
4 469 208 446 163
4 408 24 409 404
4 145 126 272 257
4 431 121 10 390
4 40 587 572 593
4 408 252 23 116
4 23 117 252 22
4 76 556 558 375
4 103 207 214 430
4 461 8 563 584
4 259 287 106 541
4 217 14 55 206
4 273 150 126 145
4 126 272 273 145
4 151 281 273 126
4 99 100 387 80
4 167 18 64 201
4 19 63 201 500
4 385 258 369 152
4 107 106 259 300
4 152 143 360 303
4 493 480 477 490
4 292 581 367 594
4 99 33 34 177
4 542 532 450 112
4 276 367 292 581
4 342 341 299 588
4 242 109 491 240
4 144 220 35 123
4 256 162 2 260
4 242 109 108 491
4 565 349 221 586
4 568 588 583 591
4 407 557 69 351
4 1 4 5 79
4 401 125 402 148
4 31 3 469 163
4 117 118 319 388
4 117 249 116 251
4 408 252 116 250
4 25 126 409 285
4 79 230 100 80
4 457 413 340 582
4 184 37 518 172
4 99 436 485 218
4 29 2 162 260
4 233 9 370 209
4 222 91 372 583
4 390 10 431 432
4 462 93 419 584
4 370 412 94 494
4 117 252 22 251
4 406 277 306 580
4 10 552 431 432
4 273 150 151 126
4 145 127 23 254
4 254 23 145 257
4 215 349 72 586
4 422 548 327 423
4 96 83 37 97
4 116 115 408 250
4 284 138 288 290
4 109 241 110 240
4 364 361 140 321
4 140 288 138 290
4 21 510 117 118
4 244 422 552 431
4 105 540 536 394
4 556 561 560 578
4 323 129 30 368
4 126 25 131 285
4 29 2 260 261
4 298 540 549 345
4 287 105 536 394
4 536 549 553 298
4 215 554 73 378
4 344 588 467 591
4 386 97 489 359
4 127 152 258 145
4 260 2 256 261
4 491 108 242 274
4 112 113 27 511
4 10 552 121 431
4 122 156 33 425
4 37 38 96 172
4 200 7 50 111
4 446 31 469 163
4 99 100 33 177
4 26 27 113 511
4 410 438 305 135
4 99 478 436 387
4 365 36 35 123
4 113 346 397 539
4 31 366 309 310
4 384 335 444 579
4 532 113 346 112
4 137 284 135 296
4 485 478 436 99
4 240 491 242 274
4 105 329 301 487
4 110 244 552 432
4 388 256 21 395
4 389 236 234 102
4 1 32 466 79
4 361 140 154 364
4 320 340 328 592
4 33 34 392 80
4 364 140 154 321
4 358 489 483 331
4 494 370 412 237
4 550 103 207 214
4 151 282 305 135
4 98 485 437 218
4 106 287 259 300
4 160 144 166 318
4 258 127 145 254
4 30 405 323 308
4 301 302 106 482
4 121 552 422 431
4 518 97 36 183
4 207 6 46 430
4 112 28 213 111
4 387 436 99 218
4 21 22 253 388
4 548 244 422 552
4 107 486 300 357
4 117 521 23 116
4 300 486 106 302
4 365 35 220 123
4 101 32 5 79
4 98 524 35 183
4 144 220 123 376
4 251 117 319 388
4 254 145 258 257
4 40 2 29 593
4 360 385 152 303
4 453 540 104 394
4 462 555 558 78
4 298 549 553 312
4 421 129 323 368
4 540 547 549 345
4 341 467 344 588
4 554 73 378 561
4 486 106 107 300
4 244 110 241 432
4 327 548 422 121
4 272 258 273 145
4 213 200 50 111
4 228 33 156 425
4 355 314 380 585
4 38 96 84 37
4 536 106 105 287
4 457 379 413 582
4 360 143 152 153
4 260 264 162 420
4 120 41 504 119
4 504 40 41 120
4 137 136 160 318
4 250 116 249 251
4 255 22 127 254
4 362 484 492 393
4 255 162 21 256
4 229 375 558 591
4 98 82 35 81
4 552 422 548 121
4 151 132 281 131
4 545 383 246 535
4 223 477 480 490
4 303 141 143 304
4 394 540 536 298
4 421 360 264 153
4 387 81 99 80
4 213 400 27 112
4 115 114 404 270
4 154 123 364 321
4 494 498 236 238
4 243 383 545 538
4 421 360 153 161
4 98 437 434 218
4 287 106 105 301
4 274 362 491 358
4 253 255 21 256
4 154 124 142 324
4 97 503 98 183
4 137 136 318 296
4 28 112 213 27
4 112 399 542 111
4 131 281 126 285
4 318 144 166 376
4 267 277 406 580
4 319 546 117 249
4 256 2 21 395
4 32 5 1 203
4 86 39 9 94
4 536 106 287 541
4 240 241 110 239
4 364 123 365 321
4 532 399 450 112
4 40 504 41 170
4 281 272 273 126
4 31 469 3 590
4 518 36 184 183
4 362 481 491 358
4 489 96 386 417
4 141 303 288 304
4 303 385 152 283
4 364 154 142 324
4 260 262 29 261
4 210 386 96 417
4 453 534 540 347
4 524 35 183 168
4 362 492 481 393
4 257 23 24 408
4 129 421 161 368
4 152 141 303 283
4 161 153 143 316
4 149 147 317 352
4 462 555 8 93
4 279 536 553 298
4 294 333 471 576
4 97 386 434 359
4 480 476 329 487
4 83 82 36 97
4 208 3 39 163
4 226 403 155 148
4 132 440 281 131
4 476 104 103 480
4 346 113 532 539
4 99 98 81 218
4 142 288 140 361
4 127 146 22 255
4 539 532 346 312
4 318 160 144 376
4 114 24 194 115
4 25 24 194 114
4 543 246 247 248
4 41 119 120 587
4 120 40 41 587
4 115 404 408 270
4 264 129 162 420
4 379 442 413 582
4 36 37 97 518
4 336 160 136 318
4 151 305 132 135
4 191 171 26 501
4 288 138 141 140
4 480 329 104 487
4 217 54 454 206
4 252 116 250 251
4 298 553 279 312
4 397 114 113 539
4 69 563 557 407
4 255 127 369 254
4 477 448 480 493
4 466 4 1 79
4 301 329 311 487
4 89 373 212 589
4 41 525 3 192
4 147 30 129 368
4 526 21 11 118
4 193 11 120 526
4 214 207 46 430
4 113 27 400 112
4 27 26 171 511
4 465 5 4 79
4 39 525 9 94
4 9 370 94 494
4 27 125 451 401
4 132 474 440 125
4 34 464 144 122
4 532 539 549 312
4 161 421 360 316
4 26 27 400 113
4 302 486 106 482
4 318 136 336 296
4 525 3 192 39
4 279 536 287 541
4 463 36 35 365
4 21 22 255 253
4 106 300 302 301
4 360 153 161 316
4 284 410 282 135
4 393 238 492 237
4 123 220 365 376
4 161 368 316 317
4 114 194 191 515
4 284 410 135 296
4 264 421 153 129
4 122 33 392 425
4 183 184 531 182
4 264 162 255 260
4 81 35 34 220
4 26 25 191 114
4 193 21 11 526
4 420 129 30 323
4 539 553 312 391
4 153 152 369 127
4 127 369 146 255
4 152 369 385 153
4 409 126 272 285
4 312 397 539 391
4 39 38 95 85
4 486 300 357 302
4 545 245 242 108
4 238 494 492 237
4 112 213 399 111
4 348 320 297 592
4 484 109 110 240
4 129 421 153 161
4 126 151 281 131
4 3 469 445 590
4 39 9 3 86
4 394 536 287 298
4 169 24 23 115
4 547 534 544 470
4 98 99 485 218
4 154 123 365 364
4 102 10 389 498
4 447 425 156 356
4 273 150 282 151
4 410 305 282 135
4 454 217 206 128
4 428 544 534 470
4 545 242 243 109
4 256 255 162 260
4 124 382 38 149
4 389 236 102 498
4 281 272 126 285
4 39 95 94 85
4 377 456 379 578
4 343 311 487 495
4 524 35 34 98
4 532 346 399 112
4 394 105 104 329
4 134 132 305 135
4 264 162 146 255
4 99 524 34 98
4 304 141 143 142
4 290 318 166 321
4 341 322 299 588
4 331 489 479 359
4 138 284 137 290
4 399 424 542 111
4 31 310 147 352
4 93 461 227 584
4 301 106 105 482
4 113 399 346 112
4 161 147 129 368
4 146 162 21 255
4 132 281 305 151
4 123 154 140 321
4 513 501 181 515
4 23 257 252 408
4 304 288 141 142
4 25 409 435 285
4 126 24 25 409
4 193 2 40 120
4 525 41 3 119
4 540 105 104 394
4 464 144 122 160
4 518 506 184 172
4 206 217 14 128
4 140 141 288 142
4 11 193 120 2
4 119 3 525 9
4 244 422 383 538
4 95 38 39 188
4 30 31 310 147
4 236 494 238 237
4 399 450 346 532
4 478 100 439 387
4 538 244 422 548
4 209 9 370 87
4 434 82 97 98
4 327 121 431 315
4 240 110 484 239
4 37 96 97 518
4 242 241 243 109
4 33 228 392 425
4 138 284 135 137
4 448 223 477 480
4 113 400 398 112
4 450 532 542 547
4 368 161 147 317
4 525 3 39 9
4 30 29 129 420
4 376 318 160 337
4 22 21 510 117
4 95 96 38 172
4 21 22 146 255
4 34 464 220 144
4 376 160 144 337
4 94 95 39 188
4 480 448 476 487
4 147 310 30 368
4 39 38 85 381
4 10 110 432 239
4 541 247 279 533
4 453 104 103 476
4 188 170 520 186
4 36 37 518 184
4 303 143 360 316
4 282 138 284 135
4 394 287 105 301
4 11 2 21 193
4 319 118 548 423
4 97 518 503 183
4 392 34 81 80
4 153 360 143 316
4 425 157 156 356
4 447 156 130 356
4 345 532 549 312
4 230 100 101 79
4 540 298 347 345
4 192 170 525 188
4 488 100 439 478
4 41 170 525 192
4 265 395 2 261
4 284 138 283 288
4 502 516 169 515
4 490 443 477 488
4 83 37 36 211
4 142 361 364 324
4 141 152 150 283
4 503 524 98 183
4 394 453 540 347
4 489 481 417 358
4 203 101 62 197
4 202 28 17 530
4 293 292 294 594
4 156 165 441 447
4 492 412 393 237
4 516 181 169 515
4 504 170 176 186
4 156 32 33 228
4 296 137 284 290
4 445 339 373 590
4 452 224 157 356
4 421 161 368 316
4 283 150 138 282
4 130 156 157 356
4 288 140 361 290
4 480 429 223 490
4 282 281 273 151
4 474 132 133 125
4 493 343 487 495
4 476 329 104 480
4 533 543 248 270
4 134 305 438 135
4 316 143 159 304
4 162 2 21 256
4 319 383 546 249
4 166 137 318 290
4 504 519 176 510
4 259 279 287 541
4 36 35 82 463
4 94 86 39 85
4 505 100 99 177
4 365 36 123 154
4 117 319 249 251
4 41 31 3 590
4 405 262 29 420
4 515 114 194 115
4 464 144 160 337
4 521 519 176 186
4 501 191 181 515
4 386 489 417 359
4 96 38 84 95
4 521 23 22 117
4 332 292 367 594
4 492 481 484 362
4 383 545 538 535
4 97 96 386 489
4 347 547 540 345
4 37 382 124 455
4 273 150 283 282
4 110 10 498 239
4 310 323 30 368
4 6 550 103 207
4 386 83 96 97
4 304 288 142 361
4 547 542 450 470
4 412 492 494 237
4 515 194 169 115
4 501 181 191 513
4 176 519 504 186
4 193 504 526 120
4 349 221 71 565
4 520 170 504 186
4 36 365 211 154
4 272 258 145 257
4 345 346 532 312
4 113 398 399 112
4 543 533 115 270
4 140 138 137 290
4 83 37 84 96
4 244 241 110 538
4 489 479 483 331
4 217 55 14 426
4 511 501 171 512
4 482 311 330 495
4 206 13 454 128
4 496 476 103 480
4 302 330 331 499
4 381 39 38 149
4 321 166 123 376
4 510 521 22 117
4 256 21 253 388
4 308 323 30 310
4 245 363 242 108
4 360 385 369 153
4 215 449 349 586
4 398 346 397 113
4 451 125 402 401
4 558 229 462 78
4 144 464 376 337
4 501 114 191 515
4 104 103 534 453
4 34 35 524 168
4 108 107 363 483
4 250 115 408 270
4 208 39 3 86
4 370 86 9 94
4 563 555 562 584
4 484 362 238 393
4 81 98 82 218
4 539 346 397 312
4 436 437 485 218
4 445 208 3 87
4 481 210 96 417
4 329 105 104 487
4 488 439 100 230
4 302 331 486 499
4 454 403 468 155
4 54 13 454 206
4 486 483 479 331
4 377 378 74 561
4 238 498 236 239
4 109 241 243 538
4 501 180 171 512
4 300 363 107 357
4 438 410 134 135
4 165 466 32 441
4 421 129 420 323
4 358 417 489 359
4 252 253 22 251
4 135 410 134 338
4 301 311 302 482
4 385 360 152 153
4 243 245 242 545
4 483 363 108 274
4 228 32 466 441
4 223 448 429 480
4 176 519 521 510
4 86 370 412 94
4 330 302 482 499
4 526 510 21 118
4 381 38 382 149
4 110 244 538 552
4 319 548 422 423
4 161 143 159 316
4 138 141 283 288
4 149 147 159 317
4 417 481 362 358
4 106 287 300 301
4 225 542 544 470
4 61 429 496 490
4 259 247 279 541
4 397 404 114 270
4 150 138 282 151
4 159 304 142 324
4 399 346 398 113
4 11 327 423 353
4 402 440 474 125
4 22 255 253 254
4 224 157 139 452
4 199 587 40 593
4 400 213 399 112
4 155 403 468 133
4 107 363 259 537
4 305 440 281 132
4 459 588 344 591
4 329 394 105 301
4 260 162 29 420
4 36 82 83 463
4 337 157 122 425
4 279 553 541 533
4 521 176 187 186
4 537 246 247 543
4 387 100 439 230
4 153 369 264 146
4 451 131 26 285
4 282 305 281 151
4 450 532 547 345
4 23 24 145 257
4 247 391 279 533
4 546 422 383 319
4 525 94 39 188
4 245 243 246 545
4 100 478 99 387
4 399 424 450 542
4 520 172 188 186
4 456 219 467 578
4 403 226 402 148
4 389 10 432 239
4 81 82 35 220
4 259 363 107 300
4 483 486 357 331
4 160 122 464 337
4 397 114 533 270
4 133 155 403 148
4 41 504 119 525
4 504 193 40 120
4 142 140 154 361
4 192 525 39 188
4 208 3 469 445
4 127 258 369 254
4 443 488 497 230
4 495 343 436 478
4 5 32 101 203
4 86 9 3 87
4 368 147 310 352
4 194 191 25 114
4 520 504 519 186
4 47 550 207 214
4 22 23 254 252
4 163 446 31 352
4 330 302 311 482
4 147 149 163 352
4 483 107 363 357
4 162 129 29 420
4 440 132 125 131
4 103 430 476 496
4 183 531 503 182
4 501 191 180 513
4 553 279 312 391
4 520 525 170 188
4 448 329 476 487
4 249 535 117 116
4 547 544 542 470
4 428 534 347 470
4 465 101 5 79
4 226 53 12 155
4 109 545 242 108
4 499 330 437 485
4 159 316 304 317
4 430 6 45 496
4 248 391 533 270
4 361 154 142 364
4 546 117 118 319
4 166 140 290 321
4 169 198 181 516
4 311 448 343 487
4 120 119 566 587
4 455 382 124 325
4 41 170 504 525
4 40 170 193 504
4 434 82 83 97
4 424 450 542 225
4 236 234 102 233
4 254 253 22 252
4 463 35 220 365
4 469 366 31 446
4 95 94 520 188
4 363 107 108 537
4 194 181 191 515
4 474 438 468 133
4 321 318 166 376
4 487 448 343 493
4 392 464 34 122
4 330 437 331 499
4 491 484 362 240
4 86 208 39 381
4 12 226 155 164
4 279 287 536 298
4 233 102 236 237
4 109 243 545 538
4 551 424 542 225
4 363 242 108 274
4 138 282 151 135
4 564 554 565 586
4 143 152 141 303
4 446 366 31 352
4 470 450 547 345
4 136 135 134 338
4 24 169 194 115
4 95 481 492 393
4 352 317 149 325
4 495 436 330 485
4 96 489 481 417
4 430 103 6 496
4 274 483 363 357
4 382 37 211 455
4 176 193 504 526
4 204 63 19 190
4 205 18 64 523
4 311 343 330 495
4 494 484 498 238
4 492 94 412 494
4 321 123 365 376
4 362 491 240 274
4 257 254 23 252
4 181 180 191 513
4 477 493 490 488
4 149 124 382 325
4 424 50 7 111
4 546 535 117 249
4 437 434 479 98
4 491 481 483 358
4 279 553 536 541
4 369 264 146 255
4 245 259 363 537
4 108 245 363 537
4 238 484 498 239
4 539 553 549 312
4 22 21 176 510
4 10 389 498 239
4 409 257 24 408
4 480 496 429 490
4 358 483 357 331
4 236 102 498 494
4 360 369 264 153
4 375 344 467 591
4 109 242 241 240
4 436 437 330 485
4 546 548 422 319
4 129 153 264 146
4 462 419 229 591
4 157 160 336 337
4 118 319 388 423
4 156 441 425 447
4 389 236 498 239
4 534 547 347 470
4 26 435 451 285
4 481 95 210 393
4 94 95 412 85
4 525 170 504 520
4 331 486 357 302
4 133 402 474 125
4 542 450 399 112
4 550 66 47 207
4 131 125 440 451
4 118 11 548 423
4 316 159 161 317
4 514 513 180 179
4 166 144 123 376
4 515 169 502 115
4 436 330 343 495
4 274 491 483 358
4 316 303 143 304
4 432 110 241 239
4 32 1 466 165
4 51 475 200 213
4 324 124 159 325
4 130 157 139 224
4 453 103 534 214
4 535 546 383 249
4 435 409 25 404
4 83 84 37 211
4 171 191 180 501
4 440 281 131 285
4 224 130 157 356
4 456 377 219 578
4 187 517 186 185
4 370 9 86 87
4 364 211 154 455
4 210 481 393 417
4 391 397 539 533
4 130 139 158 224
4 161 159 147 317
4 220 35 34 144
4 296 318 137 290
4 509 500 508 190
4 125 26 27 451
4 412 86 94 85
4 439 436 478 387
4 139 128 158 426
4 95 38 84 85
4 85 86 39 381
4 230 497 443 465
4 202 111 28 530
4 203 32 101 197
4 431 552 244 432
4 494 236 102 237
4 136 137 135 296
4 160 157 122 337
4 424 213 50 111
4 521 22 176 510
4 557 70 69 351
4 128 217 14 426
4 155 468 454 128
4 86 3 208 87
4 482 487 311 495
4 157 156 122 425
4 142 124 159 324
4 199 29 30 593
4 109 110 241 538
4 551 424 7 111
4 34 33 392 122
4 511 196 507 522
4 529 189 173 177
4 433 322 344 588
4 430 453 103 476
4 485 437 479 98
4 162 129 264 146
4 96 95 506 172
4 482 302 486 499
4 166 137 160 318
4 516 169 198 502
4 304 143 159 142
4 22 23 127 254
4 225 450 542 470
4 395 256 2 261
4 284 283 138 282
4 110 498 484 239
4 459 433 344 588
4 478 436 495 485
4 361 142 304 324
4 34 464 392 220
4 544 48 67 225
4 27 28 401 213
4 101 32 33 173
4 111 112 28 507
4 481 489 483 358
4 246 245 545 537
4 397 114 539 533
4 510 176 504 526
4 488 490 443 497
4 199 41 40 587
4 238 492 484 393
4 133 132 474 134
4 548 538 244 552
4 97 479 489 359
4 484 238 240 239
4 443 223 43 490
4 131 26 125 451
4 182 181 527 179
4 203 1 32 197
4 72 215 554 73
4 500 509 522 189
4 221 70 71 565
4 533 537 247 543
4 84 386 83 96
4 479 97 434 359
4 182 527 183 179
4 121 422 327 431
4 165 156 130 447
4 310 31 366 352
4 511 171 195 512
4 115 533 114 270
4 512 513 180 514
4 146 153 369 127
4 432 390 10 389
4 247 541 537 533
4 533 391 397 270
4 362 481 484 491
4 424 7 49 551
4 94 525 520 188
4 460 128 139 426
4 468 155 133 128
4 176 193 170 504
4 211 37 36 154
4 180 514 179 178
4 317 304 159 324
4 517 519 186 185
4 194 169 181 515
4 45 429 430 496
4 260 29 262 420
4 56 15 158 224
4 477 223 443 490
4 365 211 154 364
4 365 463 36 211
4 549 298 345 312
4 128 468 460 134
4 527 503 183 179
4 475 28 0 200
4 189 529 509 177
4 330 482 495 499
4 412 95 94 492
4 103 550 534 214
4 0 51 475 200
4 83 386 434 97
4 27 171 196 511
4 39 381 163 149
4 137 166 140 290
4 229 558 77 78
4 283 141 303 288
4 230 387 100 80
4 443 43 42 497
4 551 542 424 111
4 67 551 544 225
4 200 475 28 213
4 187 23 22 521
4 539 553 391 533
4 214 550 534 428
4 503 527 514 179
4 158 128 14 426
4 204 508 63 190
4 174 18 205 523
4 450 346 532 345
4 181 513 527 179
4 514 180 512 178
4 95 520 506 172
4 229 419 459 591
4 226 454 53 155
4 550 47 66 428
4 382 38 37 124
4 76 219 75 556
4 452 158 224 426
4 548 546 118 319
4 488 443 439 230
4 147 163 31 352
4 348 449 320 592
4 84 210 386 96
4 238 362 484 240
4 100 101 33 173
4 112 27 28 507
4 544 534 550 428
4 84 210 96 95
4 546 383 538 535
4 401 400 27 213
4 387 99 81 218
4 497 488 101 230
4 511 195 171 522
4 195 511 512 522
4 189 528 178 177
4 425 337 157 356
4 246 537 535 543
4 506 172 186 185
4 429 61 44 490
4 434 82 98 218
4 451 440 131 285
4 84 38 37 382
4 439 436 343 478
4 214 534 347 428
4 164 226 155 148
4 109 484 491 240
4 47 550 214 428
4 244 243 241 538
4 488 439 493 478
4 452 336 136 338
4 527 516 181 182
4 493 439 343 478
4 549 536 540 298
4 147 368 317 352
4 14 56 158 426
4 124 149 159 325
4 229 558 375 77
4 12 53 13 155
4 264 421 129 420
4 136 157 160 336
4 95 210 412 85
4 476 430 429 496
4 500 167 19 190
4 523 167 64 500
4 71 349 565 72
4 455 124 324 325
4 352 149 163 325
4 392 228 33 80
4 163 446 352 325
4 375 558 76 77
4 494 492 484 238
4 353 423 11 395
4 434 97 479 98
4 140 361 290 321
4 10 110 552 432
4 553 279 391 533
4 403 402 133 148
4 186 519 506 185
4 149 382 381 325
4 187 22 176 521
4 474 438 133 134
4 506 531 184 185
4 332 294 292 594
4 1 59 466 165
4 500 19 63 190
4 167 64 18 523
4 497 5 42 465
4 74 378 73 561
4 529 101 100 173
4 196 28 27 507
4 529 505 509 177
4 541 259 247 537
4 518 506 531 184
4 541 107 259 537
4 441 228 156 425
4 448 311 329 487
4 544 66 48 428
4 318 336 160 337
4 136 139 157 336
4 428 48 544 225
4 56 14 55 426
4 499 495 330 485
4 128 133 468 134
4 217 55 54 206
4 122 392 464 425
4 439 477 443 488
4 45 46 6 430
4 400 399 398 112
4 111 28 0 202
4 429 45 61 496
4 537 545 246 535
4 517 198 187 502
4 224 158 56 426
4 393 481 362 417
4 49 50 7 424
4 138 141 150 283
4 519 517 506 185
4 245 246 247 537
4 347 453 534 214
4 101 497 230 465
4 463 83 36 211
4 210 96 95 481
4 111 0 7 202
4 429 476 496 480
4 383 243 244 538
4 190 204 508 197
4 205 530 174 523
4 213 28 200 111
4 531 527 503 182
4 528 505 178 177
4 298 394 540 347
4 392 81 34 220
4 535 383 246 249
4 544 551 542 225
4 505 529 100 177
4 134 410 438 338
4 424 399 213 111
4 454 13 53 155
4 101 62 5 203
4 226 403 454 155
4 336 139 157 452
4 375 229 344 591
4 84 210 95 85
4 495 493 343 478
4 183 503 527 182
4 175 174 507 522
4 181 513 516 527
4 337 336 157 356
4 341 344 322 588
4 189 509 529 173
4 196 175 507 522
4 69 68 563 407
4 44 223 429 490
4 229 459 344 591
4 66 47 48 428
4 563 68 461 407
4 165 59 466 441
4 545 245 108 537
4 528 195 522 189
4 159 317 324 325
4 200 28 0 111
4 497 42 443 465
4 180 195 171 512
4 338 336 136 296
4 107 483 486 357
4 337 122 464 425
4 66 544 550 428
4 165 16 59 441
4 224 139 158 452
4 551 49 424 225
4 32 466 79 228
4 513 181 180 179
4 136 139 336 452
4 200 0 7 111
4 477 439 493 488
4 74 75 377 561
4 104 453 394 329
4 67 49 551 225
4 516 513 181 515
4 487 480 448 493
4 468 217 454 128
4 438 460 468 134
4 133 438 468 134
4 220 82 35 463
4 530 174 17 205
4 204 62 508 197
4 547 532 549 345
4 67 66 48 544
4 61 45 6 496
4 85 38 382 381
4 207 46 47 214
4 130 15 16 447
4 449 340 320 592
4 43 60 42 497
4 530 17 65 205
4 20 62 204 197
4 452 139 158 426
4 197 101 508 173
4 28 174 530 507
4 339 445 469 590
4 505 514 528 178
4 130 158 15 224
4 12 52 226 164
4 359 434 479 437
4 56 15 14 158
4 164 401 226 148
4 506 184 172 185
4 167 19 18 201
4 63 64 201 500
4 195 175 171 522
4 517 516 198 502
4 259 245 247 537
4 382 84 38 85
4 462 8 555 78
4 104 453 329 476
4 125 133 402 148
4 460 217 128 426
4 169 187 198 502
4 507 174 523 522
4 491 483 108 274
4 402 226 401 148
4 155 454 13 128
4 452 157 336 356
4 400 27 26 451
4 211 84 37 382
4 439 343 477 493
4 58 59 16 441
4 199 40 29 593
4 57 16 15 447
4 451 400 27 401
4 202 7 111 530
4 497 101 5 465
4 67 49 7 551
4 187 517 502 521
4 180 501 513 512
4 225 544 428 470
4 452 460 139 426
4 529 508 101 173
4 174 28 196 507
4 136 139 452 338
4 140 166 123 321
4 12 0 52 164
4 200 50 51 213
4 214 453 103 430
4 317 159 149 325
4 488 100 101 230
4 49 67 48 225
4 460 128 134 139
4 531 184 185 182
4 174 17 28 530
4 101 508 62 197
4 464 220 144 376
4 44 61 60 490
4 522 509 528 189
4 470 547 347 345
4 508 500 63 190
4 18 174 167 523
4 516 198 181 182
4 460 217 468 128
4 534 547 540 347
4 190 20 204 197
4 205 65 530 523
4 475 52 0 164
4 522 195 175 189
4 32 101 197 173
4 530 111 28 507
4 15 56 57 224
4 42 60 5 497
4 12 52 53 226
4 59 1 16 165
4 437 479 331 499
4 508 529 509 173
4 175 174 196 507
4 479 331 359 437
4 357 274 483 358
4 475 226 52 164
4 512 528 514 178
4 512 180 195 178
4 28 17 0 202
4 305 474 440 132
4 44 45 61 429
4 479 486 331 499
4 401 226 475 164
4 59 4 1 466
4 202 17 65 530
4 203 62 20 197
4 42 5 4 465
4 514 179 178 168
4 403 474 468 133
4 531 506 517 185
4 16 57 58 447
4 198 516 517 531
4 476 429 448 480
4 514 527 513 179
4 53 54 13 454
4 178 195 528 189
4 130 224 447 356
4 125 402 440 451
4 185 198 531 182
4 203 20 1 197
4 522 512 195 528
4 528 512 195 178
4 517 187 198 185
4 401 28 27 148
4 531 517 198 185
4 435 400 26 451
4 499 437 479 485
4 461 8 68 563
4 14 13 206 128
4 198 516 531 182
4 139 134 460 338
4 403 402 474 133
4 18 17 174 205
4 508 63 62 204
4 16 165 130 447
4 452 139 460 338
4 438 460 134 338
4 448 477 343 493
4 52 0 51 475
4 139 136 134 338
4 465 230 101 79
4 28 401 164 148
4 475 0 28 164
4 550 6 66 207
4 401 475 28 164
4 204 19 20 190
4 64 65 205 523
4 531 516 527 182
4 65 7 202 530
4 28 475 401 213
4 508 190 197 173
4 523 530 174 507
4 580 307 579 289
4 580 579 307 573
4 575 583 579 372
4 575 579 583 569
4 472 579 583 372
4 472 583 579 569
4 585 580 266 572
4 585 266 580 577
4 29 261 263 2
4 263 261 29 262
4 559 586 560 564
4 560 586 559 578
4 594 297 570 576
4 594 570 297 293
4 590 119 587 571
4 590 587 119 41
4 456 582 588 342
4 588 582 456 578
4 591 555 559 558
4 591 559 555 584
4 404 113 397 114
4 397 113 404 398
4 435 113 400 398
4 400 113 435 26
4 273 145 152 150
4 152 145 273 258
4 594 333 415 332
4 594 415 333 576
4 494 370 102 9
4 494 102 370 237
4 273 152 283 150
4 283 152 273 385
4 257 126 409 24
4 257 409 126 272
4 118 395 423 388
4 423 395 118 11
4 270 543 250 115
4 270 250 543 248
4 26 285 25 435
4 25 285 26 131
4 487 301 482 311
4 487 482 301 105
4 250 543 249 116
4 250 249 543 248
4 535 249 543 116
4 22 251 388 117
4 388 251 22 253
4 455 37 154 124
4 455 154 37 211
4 135 338 296 410
4 296 338 135 136
4 441 32 156 228
4 441 156 32 165
4 511 26 501 113
4 511 501 26 171
4 422 546 538 548
4 538 546 422 383
4 393 95 412 492
4 393 412 95 210
4 501 26 114 113
4 501 114 26 191
4 172 96 518 506
4 172 518 96 37
4 186 521 517 187
4 186 517 521 519
4 168 177 524 34
4 99 524 177 34
4 99 177 524 505
4 173 100 177 33
4 173 177 100 529
4 507 27 511 112
4 507 511 27 196
4 521 23 502 187
4 521 502 23 116
4 169 502 23 187
4 95 188 172 38
4 172 188 95 520
4 305 134 474 132
4 474 134 305 438
4 183 518 531 184
4 183 531 518 503
4 248 533 247 543
4 248 247 533 391
4 186 506 520 172
4 186 520 506 519
4 183 524 514 503
4 514 524 183 168
4 514 179 183 503
4 183 179 514 168
4 455 154 324 124
4 455 324 154 364
4 163 381 208 446
4 163 208 381 39
4 189 500 190 167
4 189 190 500 509
4 500 175 189 522
4 500 189 175 167
4 441 16 447 165
4 441 447 16 58
4 447 15 224 130
4 447 224 15 57
4 43 490 44 60
4 44 490 43 223
4 43 497 490 60
4 490 497 43 443
4 171 522 196 511
4 196 522 171 175
4 509 190 173 189
4 173 190 509 508
4 522 174 500 175
4 522 500 174 523
4 167 500 174 175
4 167 174 500 523
4 163 325 381 446
4 381 325 163 149
4 509 177 528 189
4 528 177 509 505
4 176 526 21 193
4 21 526 176 510
4 249 543 246 535
4 249 246 543 248
4 177 524 178 168
4 177 178 524 505
4 514 178 524 168
4 514 524 178 505
4 502 23 115 169
4 502 115 23 116

CELL_TYPES 3121
1
1
1
1
1
1
1
1
1
1
1
1
3
3
3
3
3
3
3
3
3
3
3
3
3
3
3
3
3
3
3
3
3
3
3
3
3
3
3
3
3
3
3
3
3
3
3
3
3
3
3
3
3
3
3
3
3
3
3
3
3
3
3
3
3
3
3
3
3
3
3
3
3
3
3
3
3
3
3
3
3
3
3
3
3
3
3
3
3
3
3
3
3
3
3
3
3
3
3
3
3
3
3
3
3
3
3
3
3
3
3
3
3
3
3
3
3
3
3
3
3
3
3
3
3
3
3
3
3
3
3
3
3
3
3
3
3
3
3
3
5
5
5
5
5
5
5
5
5
5
5
5
5
5
5
5
5
5
5
5
5
5
5
5
5
5
5
5
5
5
5
5
5
5
5
5
5
5
5
5
5
5
5
5
5
5
5
5
5
5
5
5
5
5
5
5
5
5
5
5
5
5
5
5
5
5
5
5
5
5
5
5
5
5
5
5
5
5
5
5
5
5
5
5
5
5
5
5
5
5
5
5
5
5
5
5
5
5
5
5
5
5
5
5
5
5
5
5
5
5
5
5
5
5
5
5
5
5
5
5
5
5
5
5
5
5
5
5
5
5
5
5
5
5
5
5
5
5
5
5
5
5
5
5
5
5
5
5
5
5
5
5
5
5
5
5
5
5
5
5
5
5
5
5
5
5
5
5
5
5
5
5
5
5
5
5
5
5
5
5
5
5
5
5
5
5
5
5
5
5
5
5
5
5
5
5
5
5
5
5
5
5
5
5
5
5
5
5
5
5
5
5
5
5
5
5
5
5
5
5
5
5
5
5
5
5
5
5
5
5
5
5
5
5
5
5
5
5
5
5
5
5
5
5
5
5
5
5
5
5
5
5
5
5
5
5
5
5
5
5
5
5
5
5
5
5
5
5
5
5
5
5
5
5
5
5
5
5
5
5
5
5
5
5
5
5
5
5
5
5
5
5
5
5
5
5
5
5
5
5
5
5
5
5
5
5
5
5
5
5
5
5
5
5
5
5
5
5
5
5
5
5
5
5
5
5
5
5
5
5
5
5
5
5
5
5
5
5
5
5
5
5
5
5
5
5
5
5
5
5
5
5
5
5
5
5
5
5
5
5
5
5
5
5
5
5
5
5
5
5
5
5
5
5
5
5
5
5
5
5
5
5
5
5
5
5
5
5
5
5
5
5
5
5
5
5
5
5
5
5
5
5
5
5
5
5
5
5
5
5
5
5
5
5
5
5
5
5
5
5
5
5
5
5
5
5
5
5
5
5
5
5
5
5
5
5
5
5
5
5
5
5
5
5
5
5
5
5
5
5
5
5
5
5
5
5
5
5
5
5
5
5
5
5
5
5
5
5
5
5
5
5
5
5
5
5
5
5
5
5
5
5
5
5
5
5
5
5
5
5
5
5
5
5
5
5
5
5
5
5
5
5
5
5
5
5
5
5
5
5
5
5
5
5
5
5
5
5
5
5
5
5
5
5
5
5
5
5
5
5
5
5
5
5
5
5
5
5
5
5
5
5
5
5
5
5
5
5
5
5
5
5
5
5
5
5
5
5
5
5
5
5
5
5
5
5
5
5
5
5
5
5
5
5
5
5
5
5
5
5
5
5
5
5
5
5
5
5
5
5
5
5
5
5
5
5
5
5
5
5
5
5
5
5
5
5
5
5
5
5
5
5
5
5
5
5
5
5
5
5
5
5
5
5
5
5
5
5
5
5
5
5
5
5
5
5
5
5
5
5
5
5
5
5
5
5
5
5
5
5
5
5
5
5
5
5
5
5
5
5
5
5
5
5
5
5
5
5
5
5
5
5
5
5
5
5
5
5
5
5
5
5
5
5
5
5
5
5
5
5
5
5
5
5
5
5
5
5
5
5
5
5
5
5
5
5
5
5
5
5
5
5
5
5
5
5
5
5
5
5
5
5
5
5
5
5
5
5
5
5
5
5
5
5
5
5
5
5
5
5
5
5
5
5
5
5
5
5
5
5
5
5
5
5
5
5
5
5
5
5
5
5
5
5
5
5
5
5
5
5
5
5
5
5
5
5
5
5
5
5
5
5
5
5
5
5
5
5
5
5
5
5
5
5
5
5
5
5
5
5
5
5
5
5
5
5
5
5
5
5
5
5
5
5
5
5
5
5
5
5
5
5
5
5
5
5
5
5
5
5
5
5
5
5
5
5
5
5
5
5
5
5
5
5
5
5
5
5
5
5
5
5
5
5
5
5
5
5
5
5
5
5
5
5
5
5
5
5
5
5
5
5
5
5
5
5
5
5
5
5
5
5
5
5
5
5
5
5
5
5
5
5
5
5
5
5
5
5
5
5
5
5
5
5
5
5
5
5
5
5
5
5
5
5
5
5
5
5
5
5
5
5
5
5
5
5
5
5
5
5
5
5
5
5
5
5
5
5
5
5
5
5
5
5
5
5
5
5
5
5
5
5
5
5
5
5
5
5
5
5
5
5
5
5
5
5
5
5
5
5
5
5
5
5
5
5
5
5
5
5
5
5
5
5
5
5
5
5
5
5
5
5
5
5
5
5
5
5
5
5
5
5
5
5
5
5
5
5
5
5
5
5
5
5
5
5
5
5
5
5
5
5
5
5
5
5
5
5
5
5
5
5
5
5
5
5
5
5
5
5
5
5
5
5
5
5
5
5
5
5
5
5
5
5
5
5
5
5
5
5
5
5
5
5
5
5
5
5
5
5
5
5
5
5
5
5
5
5
5
5
5
5
5
5
5
5
5
5
5
5
5
5
5
5
5
5
5
5
5
5
5
5
5
5
5
5
5
5
5
5
5
5
5
5
5
5
5
5
5
5
5
5
5
5
5
5
5
5
5
5
10
10
10
10
10
10
10
10
10
10
10
10
10
10
10
10
10
10
10
10
10
10
10
10
10
10
10
10
10
10
10
10
10
10
10
10
10
10
10
10
10
10
10
10
10
10
10
10
10
10
10
10
10
10
10
10
10
10
10
10
10
10
10
10
10
10
10
10
10
10
10
10
10
10
10
10
10
10
10
10
10
10
10
10
10
10
10
10
10
10
10
10
10
10
10
10
10
10
10
10
10
10
10
10
10
10
10
10
10
10
10
10
10
10
10
10
10
10
10
10
10
10
10
10
10
10
10
10
10
10
10
10
10
10
10
10
10
10
10
10
10
10
10
10
10
10
10
10
10
10
10
10
10
10
10
10
10
10
10
10
10
10
10
10
10
10
10
10
10
10
10
10
10
10
10
10
10
10
10
10
10
10
10
10
10
10
10
10
10
10
10
10
10
10
10
10
10
10
10
10
10
10
10
10
10
10
10
10
10
10
10
10
10
10
10
10
10
10
10
10
10
10
10
10
10
10
10
10
10
10
10
10
10
10
10
10
10
10
10
10
10
10
10
10
10
10
10
10
10
10
10
10
10
10
10
10
10
10
10
10
10
10
10
10
10
10
10
10
10
10
10
10
10
10
10
10
10
10
10
10
10
10
10
10
10
10
10
10
10
10
10
10
10
10
10
10
10
10
10
10
10
10
10
10
10
10
10
10
10
10
10
10
10
10
10
10
10
10
10
10
10
10
10
10
10
10
10
10
10
10
10
10
10
10
10
10
10
10
10
10
10
10
10
10
10
10
10
10
10
10
10
10
10
10
10
10
10
10
10
10
10
10
10
10
10
10
10
10
10
10
10
10
10
10
10
10
10
10
10
10
10
10
10
10
10
10
10
10
10
10
10
10
10
10
10
10
10
10
10
10
10
10
10
10
10
10
10
10
10
10
10
10
10
10
10
10
10
10
10
10
10
10
10
10
10
10
10
10
10
10
10
10
10
10
10
10
10
10
10
10
10
10
10
10
10
10
10
10
10
10
10
10
10
10
10
10
10
10
10
10
10
10
10
10
10
10
10
10
10
10
10
10
10
10
10
10
10
10
10
10
10
10
10
10
10
10
10
10
10
10
10
10
10
10
10
10
10
10
10
10
10
10
10
10
10
10
10
10
10
10
10
10
10
10
10
10
10
10
10
10
10
10
10
10
10
10
10
10
10
10
10
10
10
10
10
10
10
10
10
10
10
10
10
10
10
10
10
10
10
10
10
10
10
10
10
10
10
10
10
10
10
10
10
10
10
10
10
10
10
10
10
10
10
10
10
10
10
10
10
10
10
10
10
10
10
10
10
10
10
10
10
10
10
10
10
10
10
10
10
10
10
10
10
10
10
10
10
10
10
10
10
10
10
10
10
10
10
10
10
10
10
10
10
10
10
10
10
10
10
10
10
10
10
10
10
10
10
10
10
10
10
10
10
10
10
10
10
10
10
10
10
10
10
10
10
10
10
10
10
10
10
10
10
10
10
10
10
10
10
10
10
10
10
10
10
10
10
10
10
10
10
10
10
10
10
10
10
10
10
10
10
10
10
10
10
10
10
10
10
10
10
10
10
10
10
10
10
10
10
10
10
10
10
10
10
10
10
10
10
10
10
10
10
10
10
10
10
10
10
10
10
10
10
10
10
10
10
10
10
10
10
10
10
10
10
10
10
10
10
10
10
10
10
10
10
10
10
10
10
10
10
10
10
10
10
10
10
10
10
10
10
10
10
10
10
10
10
10
10
10
10
10
10
10
10
10
10
10
10
10
10
10
10
10
10
10
10
10
10
10
10
10
10
10
10
10
10
10
10
10
10
10
10
10
10
10
10
10
10
10
10
10
10
10
10
10
10
10
10
10
10
10
10
10
10
10
10
10
10
10
10
10
10
10
10
10
10
10
10
10
10
10
10
10
10
10
10
10
10
10
10
10
10
10
10
10
10
10
10
10
10
10
10
10
10
10
10
10
10
10
10
10
10
10
10
10
10
10
10
10
10
10
10
10
10
10
10
10
10
10
10
10
10
10
10
10
10
10
10
10
10
10
10
10
10
10
10
10
10
10
10
10
10
10
10
10
10
10
10
10
10
10
10
10
10
10
10
10
10
10
10
10
10
10
10
10
10
10
10
10
10
10
10
10
10
10
10
10
10
10
10
10
10
10
10
10
10
10
10
10
10
10
10
10
10
10
10
10
10
10
10
10
10
10
10
10
10
10
10
10
10
10
10
10
10
10
10
10
10
10
10
10
10
10
10
10
10
10
10
10
10
10
10
10
10
10
10
10
10
10
10
10
10
10
10
10
10
10
10
10
10
10
10
10
10
10
10
10
10
10
10
10
10
10
10
10
10
10
10
10
10
10
10
10
10
10
10
10
10
10
10
10
10
10
10
10
10
10
10
10
10
10
10
10
10
10
10
10
10
10
10
10
10
10
10
10
10
10
10
10
10
10
10
10
10
10
10
10
10
10
10
10
10
10
10
10
10
10
10
10
10
10
10
10
10
10
10
10
10
10
10
10
10
10
10
10
10
10
10
10
10
10
10
10
10
10
10
10
10
10
10
10
10
10
10
10
10
10
10
10
10
10
10
10
10
10
10
10
10
10
10
10
10
10
10
10
10
10
10
10
10
10
10
10
10
10
10
10
10
10
10
10
10
10
10
10
10
10
10
10
10
10
10
10
10
10
10
10
10
10
10
10
10
10
10
10
10
10
10
10
10
10
10
10
10
10
10
10
10
10
10
10
10
10
10
10
10
10
10
10
10
10
10
10
10
10
10
10
10
10
10
10
10
10
10
10
10
10
10
10
10
10
10
10
10
10
10
10
10
10
10
10
10
10
10
10
10
10
10
10
10
10
10
10
10
10
10
10
10
10
10
10
10
10
10
10
10
10
10
10
10
10
10
10
10
10
10
10
10
10
10
10
10
10
10
10
10
10
10
10
10
10
10
10
10
10
10
10
10
10
10
10
10
10
10
10
10
10
10
10
10
10
10
10
10
10
10
10
10
10
10
10
10
10
10
10
10
10
10
10
10
10
10
10
10
10
10
10
10
10
10
10
10
10
10
10
10
10
10
10
10
10
10
10
10
10
10
10
10
10
10
10
10
10
10
10
10
10
10
10
10
10
10
10
10
10
10
10
10
10
10
10
10
10
10
10
10
10
10
10
10
10
10
10
10
10
10
10
10
10
10
10
10
10
10
10
10
10
10
10
10
10
10
10
10
10
10
10
10
10
10
10
10
10
10
10
10
10
10
10
10
10
10
10
10
10
10
10
10
10
10
10
10
10
10
10
10
10
10
10
10
10
10
10
10
10
10
10
10
10
10
10
10
10
10
10
10
10
10
10
10
10
10
10
10
10
10
10
10
10
10
10
10
10
10
10
10
10
10
10
10
10
10
10
10
10
10
10
10
10
10
10
10
10
10
10
10
10
10
10
10
10
10
10
10
10
10
10
10
10
10
10
10
10
10
10
10
10
10
10
10
10
10
10
10
10
10
10
10
10
10
10
10
10
10
10
10
10
10
10
10
10
10
10
10
10
10
10
10
10
10
10
10
10
10
10
10
10
10
10
10
10
10
10
10
10
10
10
10
10
10
10
10
10
10
10
10
10
10
10
10
10
10
10
10
10
10
10
10
10
10
10
10
10
10
10
10
10
10
10
10
10
10
10
10
10
10
10
10
10
10
10
10
10
10
10
10
10
10
10
10
10
10
10
10
10
10
10
10
10
10
10
10
10
10
10
10
10
10
10
10
10
10
10
10
10
10
10
10
10
10
10
10
10
10
10
10
10
10
10
10
10
10
10
10
10
10
10
10
10
10
10
10
10
10
10
10
10
10
10
10
10
10
10
10
10
10
10
10
10
10
10
10
10
10
10
10
10
10
10
10
10
10
10
10
10
10
10
10
10
10
10
10
10
10
10
10
10
10
10
10
10
10
10
10
10
10
10
10
10
10
10
10
10
10
10
10
10
10
10
10
10
10
10
10
10
10
10
10
10
10
10
10
10
10
10
10
10
10
10
10
10
10
10
10
10
10
10
10
10
10
10
10
10
10
10
10
10
10
10
10
10
10
10
10
10
10
10
10
10
10
10
10
10
10
10
10
10
10
10
10
10
10
10
10
10
10
10
10
10
10
10
10
10
10
10
10
10
10
10
10
