# vtk DataFile Version 2.0
whisker_body, Created by Gmsh 4.13.1 
ASCII
DATASET UNSTRUCTURED_GRID
POINTS 600 double
8.5 0 0
6.768562449858393 0 22
12 0 0
4.12982931753815 0 100
8.211427074976399 0 3.666666666666667
7.922854149952798 0 7.333333333333334
7.634281224929197 0 11
7.345708299905596 0 14.66666666666667
7.057135374881994 0 18.33333333333333
7.65823537717056 3.68801178249925 0
5.299663315799225 6.645567600978262 0
1.891427938628656 8.286887253545505 0
-1.89142793862869 8.286887253545498 0
-5.299663315799259 6.645567600978236 0
-7.658235377170581 3.688011782499204 0
-8.5 -5.935518276033327e-14 0
-7.658235377170531 -3.688011782499311 0
-5.299663315799171 -6.645567600978304 0
-1.891427938628608 -8.286887253545515 0
1.891427938628715 -8.28688725354549 0
5.299663315799263 -6.645567600978231 0
7.658235377170568 -3.688011782499232 0
5.694077073131846 3.659361135890708 22
2.811762458111997 6.156900966946361 22
-0.9632668703942329 6.699668243579972 22
-4.432465773668766 5.115338190470695 22
-6.494388112110062 1.906924405139482 22
-6.494388112110049 -1.906924405139526 22
-4.432465773668729 -5.115338190470728 22
-0.9632668703941691 -6.699668243579982 22
2.811762458112051 -6.156900966946337 22
5.694077073131861 -3.659361135890684 22
11.34980690040761 3.896393630456207 0
9.469686112756717 7.370552552276022 0
6.563377897469113 10.04599773915035 0
2.945825845689581 11.63280319127197 0
-0.9909521456679979 11.95901391608004 0
-4.820345095835646 10.98927991986068 0
-8.127378859508902 8.82868692807757 0
-10.55368501447787 5.71136871644487 0
-11.83633564083267 1.975135083368787 0
-11.83633564083267 -1.975135083368821 0
-10.55368501447786 -5.711368716444897 0
-8.12737885950888 -8.828686928077589 0
-4.820345095835619 -10.9892799198607 0
-0.9909521456679715 -11.95901391608004 0
2.945825845689616 -11.63280319127196 0
6.563377897469155 -10.04599773915032 0
9.469686112756747 -7.370552552275983 0
11.34980690040762 -3.896393630456205 0
2.574906462902252 3.228830577670782 100
-0.9189734768187546 4.026285874214754 100
-3.720847644852559 1.791865786210781 100
-3.720847644852582 -1.791865786210735 100
-0.9189734768187868 -4.026285874214746 100
2.574906462902235 -3.228830577670795 100
11.69730112759762 0 3.846153846153846
11.39460225519524 0 7.692307692307693
11.09190338279286 0 11.53846153846154
10.78920451039049 0 15.38461538461539
10.48650563798811 0 19.23076923076923
10.18380676558573 0 23.07692307692308
9.881107893183348 0 26.92307692307692
9.578409020780969 0 30.76923076923077
9.27571014837859 0 34.61538461538461
8.973011275976212 0 38.46153846153846
8.670312403573833 0 42.30769230769231
8.367613531171454 0 46.15384615384615
8.064914658769075 0 50
7.762215786366696 0 53.84615384615385
7.459516913964317 0 57.69230769230769
7.156818041561938 0 61.53846153846154
6.85411916915956 0 65.38461538461539
6.551420296757181 0 69.23076923076923
6.248721424354802 0 73.07692307692308
5.946022551952423 0 76.92307692307692
5.643323679550044 0 80.76923076923077
5.340624807147665 0 84.61538461538461
5.037925934745286 0 88.46153846153847
4.735227062342908 0 92.30769230769231
4.432528189940529 0 96.15384615384616
-3.521804166662447 -7.454412265806692 3.246753896618035
-3.576153658104373 7.425959588484114 3.275744402997522
-7.023715782922334 -0.0490355373921271 18.75579462991621
0.9997798942592727 -6.953621902720391 18.74003102983183
0.9431387395605723 6.957808660270747 18.78689298623789
6.998492588710801 -3.385174789825018 9.222064326443544
7.130586399589738 3.118222027995977 9.115669433322354
-8.04314334682101 -1.83918325354228 3.167118262071295
3.341879498550899 7.537498869193763 3.238523581830124
3.034761725762651 -7.670966731496429 3.183474886677738
6.501539262856697 3.106914778911314 16.44491804680712
6.501539262856601 -3.106914778911518 16.44491804680709
7.136628819520011 3.990138023763217 4.112384115873038
7.136628819517473 -3.990138023767761 4.112384115873001
6.814946970975535 3.120897789633866 12.76254780259603
5.093772409483593 5.704987618324185 10.82444283265304
5.694212933712731 5.593608608839221 6.581659481455619
2.500901516727533 7.397296830302596 8.784846350654103
2.149158524939788 7.207093557028744 12.44305839050741
-0.9226090175660516 7.631464986870597 10.32973431788791
-1.321323772275357 7.273840218994837 14.06731629081214
-4.171228660874243 6.321977003625749 11.76505161283086
-4.478288759104272 5.740027491476876 15.49756792261777
-6.519108776618555 3.648507109781748 13.07932578181952
-6.403361746561801 4.389027903308875 9.362477208930787
-7.600545793739978 1.01469662177307 10.5718261445849
-7.735606317007929 1.870876573591658 6.878763830724681
-7.665322075642719 -1.778135243605034 8.019418465451457
-7.053125517887452 -2.735124110336393 11.88176397986635
-5.927854756238858 -5.057482960557039 8.994091682150987
-5.005744770411495 -5.598933752935297 12.57454092350706
-2.823578044394708 -7.194563622330829 9.799033930266992
-1.562944535469621 -7.288412036666059 13.28930121174346
0.7472968723740596 -7.639264783699427 10.47335329520845
-3.519661626137264 -6.316623716213702 16.12382928421305
1.985900851172591 -7.136095072002085 13.88444577132965
-0.5787427423918586 -7.932259845178313 6.945916161876164
4.245690703333742 -6.342503863882984 11.0241404163132
-0.5159401835905666 7.964108801774439 6.59701800331402
-6.219220159716951 5.120180870028924 5.644854896821475
-5.909913388539725 3.798070713259133 18.74003102983182
-6.017945512259907 -3.63144038445 18.69427407450655
-7.084435246883183 -1.679077236623725 15.49273595468539
-3.894953376782368 6.837355607758849 8.018477035700379
6.827919022378339 -3.075479337028403 12.85112217866069
5.317926366064824 -5.907054002279631 7.011487933655721
4.471489383066845 5.425683789782067 18.66785366497142
4.471489383066491 -5.425683789782358 18.66785366497142
-2.901489659553353 6.391970730111895 18.80922658921173
4.823196055145633 5.562205914851447 14.45766686385136
0.0192709281270228 8.245996841117165 3.227130020964964
-0.06556012968174101 -8.245442589507027 3.231146923354089
-6.358833967294584 -5.251991234105812 3.210685340435369
-8.016692516852268 1.939702445584981 3.201732140605991
-4.217301630436006 -6.775584090715014 6.596262132405839
-7.140743555972263 1.377869622615682 15.59731447897369
4.627695682032463 -5.720163295221758 14.51422327461039
-2.897604075381158 -6.344867889558999 19.37438193187808
1.940730413589698 6.996741248584263 15.74412369322597
2.493679148023676 -7.603856143654681 6.323672747391379
-6.490357949773304 5.175887749265522 2.522443326297342
-6.961919413435943 -3.984211916721287 6.081658022368762
-0.7741074752177632 -7.167664833566329 16.39932119206109
6.4370506790676 -2.689697683928891 19.35922989127257
6.437050679064655 2.689697683937244 19.35922989126616
2.704828858033922 7.554591648533121 6.045478814925647
-7.45803157983184 -0.1763833250919232 13.21296589987933
2.878922694088646 -6.588260197623547 16.64754196442418
7.562814516372783 -2.585951621275721 6.445813224547532
7.563296482928264 2.584710261772881 6.44512040119792
5.789007419293942 5.925419040334124 2.745658614099614
5.622541104847087 -6.085673766984047 2.726337080463115
-0.8668654185792535 7.127697541448546 16.7694226272416
-5.934604601416217 -4.25994132570628 15.18077784246934
8.00535363608792 -2.261350003519749 2.304688094386729
8.009400589408658 2.262970615011758 2.249605226554126
-8.042197593856061 -0.495944182863482 5.622813727495612
2.752865140278718 -7.308134391164746 8.774606917647919
2.242935115017004 -2.468221474715715 22
-1.437596492591887 3.294769649013715 22
-2.974477850956697 -1.911580842261416 22
3.710119140573465 0.1863184778059346 22
-0.03507899033940508 0.02858445323399077 22
1.63000271974863 3.337600487745113 22
-0.5584319853716575 -3.720520877456698 22
-3.653312951198125 1.072709469466609 22
-7.909740641739153 6.21840875699997 0
-7.909740641739112 -6.218408757000027 0
4.175073749396644 9.15281394623652 0
4.175073749396687 -9.152813946236499 0
5.873563766464052 -3.232224655892819 67.28977499250952
4.481712651254909 -3.177432529221948 82.66912391067751
8.838320800436971 -3.280666171817381 32.68608574070607
7.554268963987093 3.231101375388721 48.07692307692309
9.181817935895939 3.23003139853843 28.80000905174118
6.869378104247244 -3.287719480846849 55.70900766071961
7.867941861712451 -3.276727156126993 44.17953275857112
9.798498096784749 -3.297515537212519 21.111610245
-11.1657903760237 -3.616930427408046 3.341790608973243
-6.713239270206378 9.645620444208966 3.153262660782645
4.376157437413393 2.818438862274933 86.33582152562722
10.13981473400592 3.228462306601805 17.26299737139007
-2.518136117665676 -11.43307054852751 3.72169009458731
3.752172511923079 -3.141425038482989 90.29533585463945
4.79811431138024 10.69577319231262 3.52355531022866
5.149402534326526 -3.272637249393243 74.94942415788415
8.191770008330739 3.286667241674997 40.32301464221243
4.897601154316932 3.11373742482956 78.73263413517154
5.52986613998835 3.235631427417044 71.06671410552613
6.213887481933059 3.245444915275249 63.39923967603453
6.995739867096134 2.99948778998679 55.75920046506192
10.4335831550334 -3.302239113208106 13.42163899493247
-2.723844371020274 3.415592807225254 96.96476903409871
7.945113376504919 -8.63069383398738 3.419408766471524
-11.09527489538305 3.809012682760117 3.419408766471708
10.77562275141164 3.216246898016816 9.588515283028604
-2.633579180006027 -3.523592931555294 96.57950772588465
9.935226484425232 6.234911832567003 3.436118109269079
11.06555625010633 -3.306234306777092 5.731422828049544
3.374681076347565 3.1132268918116 94.13560339841358
4.812366599042043 -3.224042144942172 78.873476585039
6.195068113102339 -3.26720803300037 63.48246542003737
6.522641944107701 -3.298998453792851 59.59892398279454
7.879344283728515 3.250741259105456 44.17212733116521
0.8839995536723747 4.277270915254395 96.9780051014545
-0.6087510069504397 4.572291850264672 93.86533233342223
-3.967763370978763 2.380981615854184 93.67860409287384
-2.514787536491404 4.16790822991209 90.62301262457657
2.066990261246719 -5.261510892665558 80.64680223727419
-4.80108364624302 0.9237778919459773 90.35193927379757
-4.148411874349152 3.013742045850459 87.3225173675719
-5.124635680411549 -0.5869825869384447 86.93403556407078
-5.122782828649765 1.689962471480975 83.93290014234525
-4.102942731135807 -2.73176048741506 89.84349415526822
-3.450955103805575 -3.897373372224187 86.33062376829567
-2.749581690125994 4.616421910315226 84.20115536910222
-4.250413780804886 3.703850031937411 80.83971605503233
-5.662420831680111 0.1966082333486384 80.48322173876019
-5.375381797001242 2.447836594630518 77.42537557844391
3.812537905289616 -5.706104485838225 65.27704606376504
4.599124468079863 -5.897081752692706 57.45148120297365
5.012582181100913 -5.951347032463563 53.60702820513303
-5.792725851936313 -1.320368238167501 76.98308328728535
-6.097558140013832 1.001434411147309 73.95968687944386
-5.576404695974744 -2.755619968878821 73.44050416384161
-6.434678987631139 -0.5117031387743215 70.45599504599815
1.866011173784356 -7.422114365427838 55.23273440165571
6.206963665807508 6.076425012455441 42.10635631986352
2.34933884033256 -7.599056025841686 51.41015943067822
6.586950354737561 6.115913930651129 38.2653109498273
-5.217995146303775 -3.8796357175828 69.85574072248086
-6.430603242787645 -1.996604071655376 66.91811071418103
-1.198618119634415 -7.74334443339539 52.91417220012781
-0.7184470908275126 -8.103877072224591 49.10107475974507
-1.691303905958023 -7.344041763758416 56.71698902177695
-6.446021055353896 1.810465342034865 67.400772821131
-6.963644857210911 0.3179370843741539 63.900786198686
-4.507274597441638 -6.276993639667925 54.28568353797854
-5.027323647993964 -4.565677342815891 66.18501919658796
-5.718843775429927 3.933382560482593 64.2814297887372
-6.727446136432748 2.603316446623901 60.81718700781244
-4.595354370977821 5.551037143687374 60.90926156774842
-5.791866873345177 4.707256752835089 57.641565194443
-2.738908155885913 6.359465291061377 64.49427232848898
-4.325427677657929 4.376226859456523 74.29186045009789
-2.658321834712739 6.963566203321625 57.7659752018727
-4.459231579748779 6.292405049040063 54.48077603239729
3.693961838868039 8.049660413438618 39.93851530093913
4.134491260051017 8.172261153940788 36.10346813727557
3.247859820302117 7.91464353766347 43.77127814781241
0.2312441233784443 8.73048763463 41.50418785767474
-0.2493164453993333 8.429350036740725 45.32257143935303
-3.264880595604335 7.977005283294758 42.95606823521809
-2.818179978613177 8.46167247646763 39.15246223046774
-5.890878241671989 6.55354165952455 40.50737295485371
-5.55118836513258 7.223775322297431 36.71638336551474
-7.866609030679623 4.394854844822967 37.97872909730926
-7.705897422843736 5.221438767845654 34.20140799407528
-7.965336507755377 3.534647958927964 41.74783105555312
-8.880768722107426 0.8435634506063195 39.12567221414058
-8.628785134572063 -0.1991780394900613 42.80614101704665
-8.347572205608595 -2.912240226352715 40.13902733229308
-6.930532459783058 3.433020925039916 54.20207624276086
-8.919523495493118 -1.961653542592084 36.43265755619994
-7.326578552305422 -5.32754234623931 37.37176758750493
-8.172519359014936 -4.540807592218927 33.68061157766353
-5.659134990378325 -7.357778934610122 34.5305394567448
-6.730664184171713 -6.805052355603788 30.85903225938904
-4.918406425079151 -7.527994897172994 38.21647343156529
-3.551024175726478 -8.822879111542557 31.62985336031595
-4.829175198930227 -8.524880376851666 27.98313843778583
-7.748040324651958 -6.10033189184644 27.17415423917365
-6.027504023170842 -8.087293796721353 24.31480706998799
-8.623199990797044 -5.36011555881048 23.46397513297297
-7.138899111712679 -7.53070618676978 20.62628012382855
-9.42617967014588 -4.50216298320929 19.7433629728719
-10.04935583621382 -1.908130315312705 22.50388541425145
-10.48481300233317 -0.9103402213549732 18.75106999194185
-10.14357178680225 1.858088495557018 21.44363940426504
-10.21907240221264 2.854711752244256 17.65760084213637
-8.899670355618612 5.389974593159367 20.27132187034025
-5.176839681805609 7.857607428709469 32.91341584416823
-8.139800604467236 -6.896618956328485 16.91663548417966
-5.173413195955926 -9.257224414716323 17.72852063029842
-2.565594180261729 -9.69494386394323 25.04813015034415
-8.695273324501105 6.243754239959885 16.45737183541965
-6.520067747753981 8.237306400044123 18.99004591478841
-6.151563004446524 8.885703176354554 15.15485789999356
-3.355221118593188 10.07006290612709 17.60680163802443
-2.881539707633345 10.52987584240837 13.76043137224239
-3.790569381182275 9.589624130126793 21.45302507227902
-0.2765327732168132 10.4229335568711 19.9919262353477
-0.7585753938063373 10.09531832196997 23.83965605760514
-0.8577277315722565 7.655549188918071 54.59285357288078
-10.82074949293265 0.07409197709634419 14.98057533735194
-6.383939222388364 -8.828654416877633 14.04105959115822
-2.903028371148273 -10.44084868695986 14.77829746420948
2.788265065142721 9.858660652264522 22.29468460998806
2.334753359997067 9.664080111774325 26.14799313095878
-7.493001686535445 6.011664166065715 30.4120774591608
3.265155033046601 10.03037456107683 18.44377952416035
-8.462714208879598 7.0295910373792 12.68733040401436
-7.69414771294934 -3.725506011273295 43.8536435114861
-6.017460139625747 5.243890107063108 51.05680514361279
-7.767712421567986 1.932287453273203 50.7683785111529
1.101556762283952 7.348247957813804 58.06284500659867
-4.861568272795789 -5.618944565786616 58.06523160767606
-1.51901687630193 -10.43966876399617 18.42905766219885
0.9357131177275069 -10.74648034857855 15.41084185685252
2.523153380506127 -10.19947868482952 18.97119844497594
-0.3359644054636738 -11.07077264347975 11.74219487829984
3.434506535531813 -10.47989833926506 12.34621390212773
1.975563701868275 -11.13753074260023 8.749676229934552
-4.630002429305735 -3.353222420848561 79.83649146589214
-3.22695078443888 -5.385708674616216 72.69904921396734
-9.120347793851272 2.70128461211324 31.61334566411546
5.609172467529446 8.36319626618519 24.52236471624617
2.800899683272091 -7.765636841217105 47.58078904853826
-0.204326355381253 -8.432480975017448 45.2981775026155
-9.085609357883767 -6.132613982927917 13.19378851952879
-7.511834227551703 -8.289590408352 10.33241970483414
-2.202962497408794 -6.895300020925434 60.4985542339714
3.435669499319663 -5.589876939302518 69.10534083807377
5.725724803185765 -9.707619926220127 9.270507294731765
2.825109400983114 7.758503796297358 47.5611899689677
5.098853539889244 8.329643047295143 28.3814299218997
1.808052141520714 9.468540628774155 29.99144488219785
-4.721381777381734 8.487126858822929 29.07191143231945
3.279833666652764 -7.90260478622696 43.75769258192631
6.956083056205363 6.158439293986045 34.42740991730672
-9.13423143514604 3.576411086229081 27.83384176123986
-6.93700178206935 -3.171584028520655 55.55606218971751
-6.645526311416525 -4.318184756620701 51.77448591293535
-9.843519344604095 -5.451518375537797 9.500615377115023
-8.555261135392488 -7.655235087596595 6.604615880676276
6.759061714443298 -8.668337423812677 12.80731977543796
-9.720958759091037 -0.06513313066210538 28.95519208216994
8.56755222359768 -7.277070969885943 9.644782549891797
-3.661011436712729 -7.475009841388848 46.7157931501187
-7.054854985621883 4.272006383564574 47.68021725313226
-1.141473390652306 5.514291925759736 80.92331789836042
0.5050933306326838 -8.715201717303765 41.55150163634719
3.777757867739801 -8.012275294986789 39.92013696540695
1.236551243152149 -8.957470841189759 37.57962867269742
4.301458955095674 -8.090688316557294 36.04665864030962
6.625052585257434 -6.074652819609921 38.26502083893802
-0.953570453658671 8.105165258958369 48.77827963765056
-7.169432679535329 -0.9531944489997318 60.57657778694946
2.408956305467424 7.32621582252684 54.48291687676665
1.536813300763055 -9.203577916954487 33.91280556707011
4.734981743386286 -8.192964310530382 32.23809372354393
1.899770933032091 -9.450509965227674 29.99213425199284
5.096627825735228 -8.327573104334254 28.41862629833087
-8.228239114518004 -1.372490785607699 46.48029773575507
1.979888415474268 -4.986428075485938 84.304249690604
-5.203240972821671 -10.16867136383249 7.336672090745447
1.689021609192513 -9.811611851096179 25.9723853488332
5.532538163622411 -8.409485807253724 24.57122865525498
7.767463330678484 -6.132270595063618 26.72909564910416
4.166273123667124 -10.77332714018607 5.706841325756034
0.7651535221986568 -6.692218005986077 66.887776502379
-1.714684285248882 -4.682169777183954 89.11793074351316
-5.291129393820539 -4.799829710425084 61.70339381452349
-2.310489625791758 -4.106458645292604 92.60494920429589
1.25490926388507 4.690446686513215 90.78051716507835
-6.896308222585875 -4.543241875089891 47.54234857058265
-0.9811831879436982 5.012003014675975 87.58207086269074
-4.373797870819125 0.05949301263183673 96.89494471490113
2.425769257960733 -5.437810937582964 76.81741565136404
-2.284768145532497 -4.998621277873863 82.64073465630742
4.211177610020674 -5.809809875253531 61.30098965927812
0.8901156941663316 -6.973079531847764 63.154135604984
9.148539001936843 -3.309353382876334 28.85961457651511
-6.395861062135172 -9.811115048162394 3.6626019471354
-1.688011349918193 -11.30163491481239 7.280652497736951
2.974324575994636 -5.503453469465835 72.98741475222673
-1.338037975996733 -5.658754210727359 78.590476748873
2.767451965606174 -3.656060944166346 94.21187059484977
0.8502221189687292 -4.28245174500155 96.99870917382096
4.151595880050725 -3.10881660211555 86.57286023530499
-5.035547155150557 6.50009781665422 47.99884696227014
-1.83676536068367 9.342310700755364 31.4966562390371
-1.277279605192092 9.738680573587951 27.6730411601659
4.571886868603894 3.055732086504722 82.60228935906667
1.62348279022263 5.114871894269904 84.28863516157752
-4.283979796335961 9.047725400409536 25.27664135998259
-7.20261330083579 6.808918192509918 26.53615667995099
-0.1068970590506898 -10.26372324966427 22.05441491729707
5.188173153497538 3.21407996495389 74.92761314965497
2.958422553484909 5.528945006805444 72.79784277826795
3.390221004719081 5.629988057441091 68.970072011301
-0.08830622351713914 6.447849910280511 70.5390727241674
2.908963270465764 5.221705045884485 76.52549387646251
-1.08203430820874 6.052783740704244 74.34732233265241
5.991036744538128 8.464825567743267 20.70566550101269
6.45940881880493 8.496799670085235 16.85718251993224
3.772514147400049 10.17445797735023 14.59518036628739
6.864004748286274 8.566390348005028 12.99666730358788
4.246857057704161 10.31404401589448 10.74740851070374
7.267688187756516 8.615541528500929 9.256393960565296
8.203449161069003 6.070580533651302 22.80359028428789
4.793843998890829 -9.619688031121431 15.90826639152638
7.540679425044661 -7.62355003330588 16.22722625586213
5.86711584685049 3.253465659741669 67.23098553749504
6.551922449441563 3.247470356008771 59.55938315504534
4.26798467539927 5.778807560406723 61.19268051115967
3.829188886643246 5.711735688917967 65.09990749711463
0.7944117886820685 6.710604662270475 66.61274956186038
0.9903658371107854 6.979134766734393 62.90774767392619
7.32023539987649 3.029588158042562 51.81095759453838
7.541270426403965 -3.271842904183838 48.02379992311081
7.198084759945645 -3.29814331961003 51.87037889302751
5.527719161187908 -3.226610736457857 71.14809989104356
8.186451039094585 -3.290738755287423 40.36645087052852
-4.134153683872047 -6.878153840860334 50.50747895616387
-9.372690102238158 -0.9960605645360863 32.71252436816956
8.518135428693823 3.282047879207629 36.48520071658915
7.018696017757249 -6.087471254120785 34.42335212931561
-2.344713523394479 8.915345801872624 35.34208103182198
9.503102071825319 3.227234053945235 24.95328159633656
-3.887741360281091 -9.55527135813171 21.39854969506453
-5.08132322380627 -1.928940850931788 83.41455844757306
5.41390522544453 -6.002118887338323 49.76948719411796
-9.045815621788293 1.761538561813422 35.37742266972374
10.12157530385624 -3.270620973924703 17.32006265605408
10.46065465835948 3.21603932806899 13.41945377908718
0.7636879293064867 9.001587165377034 37.68756335531497
-4.160435640694256 -10.31951630668066 11.09736285013905
10.11188110122532 -4.917704183286351 9.602264608836794
-5.642520936754487 3.068114929614457 70.86602243498113
-3.306917906935155 -8.002077515563995 42.45827593854092
0.7716906965331053 11.00765467427823 12.26566567729993
1.312521528112349 11.26220637280288 8.406038107006125
-2.310264950516846 10.98397422148469 9.856144516492819
-0.9460130799269171 11.48514669453351 6.047624576501078
-5.236628781420055 10.16266590793551 7.210769464696889
-8.355311950115114 7.904598807676805 6.328841003640677
-5.753039639262859 9.503690654253152 11.31681343301676
0.2221375502022995 10.72921411095089 16.11765004482004
-10.09778528524232 -3.652405018627818 16.03482445656742
-10.23151459178637 3.783288937646167 13.86777777868717
-11.07030980407017 1.041389985703033 11.19182875397131
-4.808435465071741 4.621828065835932 67.73031380931104
-6.729014747899494 -5.622784064871571 41.05376263177314
-7.40966407228065 1.035132950659693 57.41147488706399
-8.889443365134229 -3.724159619551729 30.01171004011113
-3.13576137718344 4.980957249303334 77.68796085027978
5.430939506508762 5.98105445735627 49.82269955395099
5.84555979416416 6.004026667471118 46.00062673060513
-10.68405965701854 -2.76843308908664 12.23723588710871
1.22313310206693 9.256288584663618 33.83977772725194
-9.53129435993905 -2.801334459292299 26.24546098779333
-9.978490965758221 0.8731188770113123 25.20126894449653
8.83900499564381 3.287876266123014 32.64602679245239
5.829625646116819 -6.02570203066276 45.94399643180818
-9.042505344759366 4.501191926871984 24.13069880262258
1.362487105949007 -7.225378519361925 59.04931321106267
4.593715279143314 8.266463108482473 32.31068058962718
6.101625196311021 -8.499140978603695 19.53498754127773
8.519795902544343 -3.272859274442114 36.50743138248593
6.22357497449388 -6.059294759959071 42.10738060620009
-2.500755275765139 -8.894813208288125 35.0733337615888
-3.987477995067187 -4.475185714158163 76.31427972733331
7.347764743804756 6.162403976555622 30.62409354700902
9.487240943227986 -3.271172276970405 24.96320768365036
8.14014554473664 -6.142521328586325 22.90073390315331
-11.18934811486874 -1.78405784517934 8.504480862792411
-11.34248684723381 1.533865244059939 7.042659643451112
-10.08090016852759 4.899263756058249 10.05874010459623
7.349778405736445 -6.159221465208288 30.63046536423859
7.845438738298856 8.737716073745814 3.265201290698713
-11.73666604211394 0.04718123912198847 3.344770207887467
-6.880982398563415 7.535966779201058 22.80969873281601
1.234699501508766 11.67032665596749 3.361307139960131
0.7775159941704498 -11.71121839934428 3.341732647624339
-7.761129940325595 -0.3217486286632141 53.77524606569127
7.776058764692979 6.123658279727806 26.71108899225543
4.507113789199277 5.955822947322406 57.57186410963119
8.478231766890701 6.19147422099198 19.08062684096827
-6.017098616886324 5.987943429856538 44.61311537497397
9.841834364371508 3.164951802853413 21.11502088322771
8.874220334098817 6.163259243809498 15.1900732533216
-4.522928016685367 -1.116538227789206 93.27999296042566
0.1899684698455322 -6.427080344406011 70.77499327652333
9.254298998606862 6.130378170700033 11.4278082387475
4.877556397471827 10.34869804224512 7.108528844721677
10.22813237147876 -5.778600291799357 3.206609444451877
11.08750541272171 3.153571137340417 6.006695905809782
9.62147456200027 6.125814461045515 7.546628087160627
2.602763508061666 7.544673050476006 51.0661506109393
-9.450810018537974 -6.98064893410527 3.184786357756781
-1.738245447402566 -9.601645206001198 28.49087637421038
-9.284974228487995 7.226785522004678 2.974105359916647
8.503635231431277 -6.097814998458789 19.51681310357199
-0.5177935407150281 -6.062343411939362 75.16462171574942
-3.146242101865075 7.300705395217425 51.46281539576675
2.881494568876632 -9.834721320227656 22.25925567580902
9.227391890521528 -6.882090690661189 6.210678114063843
2.450529738704667 5.107444261733613 80.49508785546136
-2.425760742850553 -6.534191123688628 63.91305858833477
-5.756135075394901 -6.267930954012785 44.34469226678655
0.675787463642481 -4.726761959406258 91.80453479411077
-3.387540275224223 11.24607670722664 3.237569428901639
-10.16453465215342 5.353199424387492 6.505375098526218
-3.176927501384569 5.538981256944516 71.3404077920088
-8.095133877761961 2.476117653250981 44.91183609210517
-7.940178085511497 -1.139518021964767 50.55126559441243
8.892964170446474 -6.457167706325339 12.83342487444749
-2.587743578199011 -6.044556655072946 68.92878666453429
5.377318262089517 5.624148012889068 53.60532916278943
-1.904238157405352 6.952890691720766 60.87619278178034
4.136490153060944 2.610269484400888 90.32558230896208
-8.224822456980531 7.676206881031294 9.524369828619307
-6.54752520706339 -2.402011469671706 63.85858888365182
-10.34758847279892 -5.027511965251613 6.298716805018322
1.576871404464845 -4.839456285904439 87.80142174536869
4.74088023310448 -10.80811828039617 2.513588040159329
6.903999453853563 -9.182498875813993 6.500406137581299
3.150491641629034 -2.99878010852642 97.2086302191444
-1.901582471330819 -8.715475407784728 39.12860989847725
3.407052942739645 2.703714494624518 97.20891928206666
11.44288147924984 -2.793102482646737 2.810165575525718
11.37548618731505 3.030953188959276 2.892492652108917
-0.1639798221050647 5.855491294854493 78.04421683436269
-0.8183929021767927 -5.16345271735792 86.04760099369275
-0.7178031234106117 -9.475236916979568 31.73518396224038
7.55088640616417 8.692113662169318 6.177130474846702
-6.625216433102091 -3.293836487499938 58.46326531655382
-11.41187659164708 -1.849918167358078 5.580000234912525
-2.17010779515334 6.269626255526614 68.1741925722839
2.225673043544537 4.563577893605502 87.96013190611274
-0.05469789955032378 -4.565507725670101 94.46001779304729
-8.101286283077863 1.470052407807451 47.85686204833237
2.507952300141112 11.26619981471895 5.819816612068124
9.297997225248739 -5.445612661716881 15.56107693728158
-2.923454371309332 7.875471391745818 45.73505006114886
-0.4484470749861242 7.914173458201476 51.75404108188532
0.8942540844399332 -11.47698124075508 6.203583321230307
-6.661338147750939e-15 5.900042359436546e-15 100
-0.01807189844830373 -0.01914706264269992 31.48510572972569
0.01395679959757706 0.004260214451003108 40.29702529796931
0.03528392983782036 0.003041936574875947 48.46378296362034
0.0693095496883549 -0.05098164391134663 56.00023720477558
0.0006428625151730927 0.003137446080785811 63.13504159692353
0.002956742050770345 0.001431934375685451 69.64394874918312
-4.18065203138652 -1.05201441551885 27.59653268321534
0.05598667214977926 -0.02103357996047883 77.43412798602102
-1.479794084637751 3.987766955561295 27.67611999104256
3.631439367514104 -2.206464261417053 27.59161183001737
2.650993924999833 2.603221237157355 35.87448770301208
-3.05787852244964 2.144131203474564 35.83064519882162
1.885633360740843 -2.99032273560249 35.8921278023016
3.720693828490082 3.0643109190233 28.27763938244689
0.003245524026145752 0.04810908698782224 82.9119570819403
-0.02561776209041722 0.08903857575638074 88.76686126006
-2.749236499846844 -1.910345562610414 44.38736241573307
3.387004867443528 -0.4378752398082524 44.37155754602925
-0.7495319594580803 3.258702375364305 44.38291136870563
-3.10084559849372 -2.860392861532101 34.51748518184579
-0.7083363043804984 -4.57078307944895 29.12358980125246
4.870769301279034 -0.3076965400570696 32.3337198702235
-0.1734770348063039 4.807019215054567 32.32916518290641
-4.327730316431533 2.214717538242042 31.16248743171083
-2.045815514605975 2.524996756866521 52.30903204506924
1.489236979101086 -2.828432012504178 52.20541934761579
-0.08123585495471072 4.605971363494379 39.21254522261244
2.090930953253363 -3.979653720224313 41.53867325187913
-0.1307571101749794 0.06779108854410505 94.96497955225448
4.465253374127915 -0.8513286083240872 39.08678597961766
-4.195964066627815 -1.291917031566548 38.76931069312751
2.687459605422842 1.811140872152143 52.02612261043008
2.967602383604703 -0.3345913450229562 59.59822003757373
-0.03611950136655076 -0.01045031534818469 26.42967652939251
-2.356789904350786 1.728549013121514 59.53132771199598
0.9893943594481369 -3.951642700748747 45.93457532037933
-0.9300078436222595 -2.645205606261162 59.57823523725996
3.007431850777801 -4.209515873152279 31.46986679336551
-3.607334763078513 2.529253231808114 41.01954367937116
3.345720749569507 2.787956119328172 41.34220571906934
-5.29020385993811 2.811421703855256 26.03913007084297
-3.822937051752545 1.419910407545673 46.99591959700234
-1.943524304464881 -0.3164959257778739 73.55158464855076
3.263163054492487 2.747364426796149 47.36940436652432
-1.165336457093166 -4.435401255679652 38.6635382424427
-2.93733599873165 -1.923231855013632 53.06605949801212
1.80179970219649 2.151309715666841 66.38941838664581
-2.728664945309885 0.0194444801009146 66.39047033410205
1.993632303217129 -2.039634464146554 66.21502564025194
4.048193187749078 -1.172455063993668 49.23952983684275
-5.537865126700682 -1.702934116590373 31.41917375628574
4.025236838704824 4.152408759115625 32.27429194497507
-3.628737400083584 -4.950702307744394 26.12330932878848
2.107109512230481 0.8691732051208048 73.21421870937247
5.995729267164366 0.6500269339626716 25.93408258036876
1.742783037254816 5.66369533939561 25.87818692022132
-0.4750720364918039 -5.622979768304496 33.05944204777692
-2.518458106111019 -3.47506612672289 48.40245716295934
4.077000650873273 -0.3600156772785688 55.4911095070075
1.869871641574997 -5.646873695857179 26.02910431101703

CELLS 2996 13726
1 0
1 1
1 2
1 3
2 0 4
2 4 5
2 5 6
2 6 7
2 7 8
2 8 1
2 0 9
2 9 10
2 10 11
2 11 12
2 12 13
2 13 14
2 14 15
2 15 16
2 16 17
2 17 18
2 18 19
2 19 20
2 20 21
2 21 0
2 1 22
2 22 23
2 23 24
2 24 25
2 25 26
2 26 27
2 27 28
2 28 29
2 29 30
2 30 31
2 31 1
2 2 32
2 32 33
2 33 34
2 34 35
2 35 36
2 36 37
2 37 38
2 38 39
2 39 40
2 40 41
2 41 42
2 42 43
2 43 44
2 44 45
2 45 46
2 46 47
2 47 48
2 48 49
2 49 2
2 3 50
2 50 51
2 51 52
2 52 53
2 53 54
2 54 55
2 55 3
2 2 56
2 56 57
2 57 58
2 58 59
2 59 60
2 60 61
2 61 62
2 62 63
2 63 64
2 64 65
2 65 66
2 66 67
2 67 68
2 68 69
2 69 70
2 70 71
2 71 72
2 72 73
2 73 74
2 74 75
2 75 76
2 76 77
2 77 78
2 78 79
2 79 80
2 80 3
3 4 155 0
3 0 156 4
3 9 156 0
3 0 155 21
3 1 144 8
3 8 145 1
3 1 145 22
3 31 144 1
3 5 149 4
3 4 150 5
3 149 155 4
3 4 156 150
3 6 86 5
3 5 87 6
3 86 149 5
3 5 150 87
3 6 95 7
3 7 125 6
3 6 125 86
3 87 95 6
3 7 91 8
3 8 92 7
3 7 95 91
3 92 125 7
3 91 145 8
3 8 144 92
3 10 151 9
3 9 151 93
3 93 156 9
3 11 89 10
3 89 151 10
3 12 131 11
3 11 131 89
3 13 82 12
3 82 131 12
3 14 141 13
3 13 141 82
3 15 134 14
3 134 141 14
3 16 88 15
3 88 134 15
3 17 133 16
3 16 133 88
3 18 81 17
3 81 133 17
3 19 132 18
3 18 132 81
3 20 90 19
3 90 132 19
3 21 152 20
3 20 152 90
3 94 152 21
3 21 155 94
3 22 127 23
3 22 145 127
3 23 85 24
3 23 127 85
3 24 129 25
3 85 129 24
3 25 121 26
3 25 129 121
3 26 83 27
3 26 121 83
3 27 122 28
3 83 122 27
3 28 138 29
3 122 138 28
3 29 84 30
3 29 138 84
3 30 128 31
3 84 128 30
3 128 144 31
3 81 132 117
3 117 135 81
3 81 135 133
3 82 124 119
3 119 131 82
3 120 124 82
3 82 141 120
3 121 136 83
3 83 123 122
3 83 136 123
3 84 148 128
3 138 143 84
3 143 148 84
3 127 139 85
3 85 153 129
3 139 153 85
3 86 125 118
3 118 126 86
3 126 149 86
3 87 96 95
3 87 97 96
3 87 150 97
3 133 142 88
3 88 157 134
3 142 157 88
3 89 146 97
3 97 151 89
3 131 146 89
3 126 140 90
3 90 152 126
3 90 140 132
3 95 130 91
3 91 130 127
3 127 145 91
3 92 137 125
3 128 137 92
3 92 144 128
3 97 150 93
3 93 151 97
3 150 156 93
3 94 149 126
3 126 152 94
3 94 155 149
3 96 130 95
3 97 98 96
3 98 99 96
3 99 130 96
3 97 146 98
3 98 100 99
3 98 119 100
3 98 146 119
3 100 101 99
3 101 139 99
3 99 139 130
3 100 102 101
3 100 124 102
3 119 124 100
3 102 103 101
3 103 153 101
3 101 153 139
3 102 104 103
3 102 105 104
3 102 124 105
3 104 136 103
3 121 129 103
3 103 136 121
3 129 153 103
3 105 106 104
3 106 147 104
3 104 147 136
3 105 107 106
3 105 120 107
3 105 124 120
3 107 108 106
3 108 109 106
3 109 147 106
3 107 157 108
3 120 134 107
3 134 157 107
3 108 110 109
3 108 142 110
3 108 157 142
3 110 111 109
3 111 154 109
3 123 147 109
3 109 154 123
3 110 112 111
3 110 135 112
3 110 142 135
3 112 113 111
3 113 115 111
3 115 154 111
3 112 114 113
3 112 117 114
3 112 135 117
3 114 116 113
3 113 143 115
3 116 143 113
3 114 118 116
3 117 158 114
3 114 158 118
3 115 138 122
3 122 154 115
3 115 143 138
3 118 137 116
3 137 148 116
3 116 148 143
3 132 140 117
3 140 158 117
3 125 137 118
3 118 158 126
3 119 146 131
3 120 141 134
3 123 154 122
3 136 147 123
3 126 158 140
3 130 139 127
3 128 148 137
3 135 142 133
3 22 162 1
3 1 162 31
3 23 164 22
3 22 164 162
3 24 164 23
3 25 160 24
3 160 164 24
3 26 166 25
3 25 166 160
3 27 166 26
3 28 161 27
3 161 166 27
3 29 165 28
3 28 165 161
3 30 165 29
3 31 159 30
3 159 165 30
3 31 162 159
3 162 163 159
3 163 165 159
3 163 164 160
3 160 166 163
3 161 165 163
3 163 166 161
3 162 164 163
3 2 0 32
3 49 0 2
3 32 0 9
3 21 0 49
3 10 33 9
3 33 32 9
3 11 169 10
3 34 33 10
3 10 169 34
3 11 12 36
3 36 35 11
3 35 169 11
3 37 12 13
3 36 12 37
3 14 167 13
3 38 37 13
3 13 167 38
3 14 15 40
3 40 39 14
3 39 167 14
3 15 16 41
3 40 15 41
3 17 168 16
3 41 16 42
3 16 168 42
3 44 17 18
3 43 17 44
3 43 168 17
3 19 45 18
3 18 45 44
3 20 170 19
3 19 46 45
3 19 170 46
3 21 48 20
3 20 48 47
3 47 170 20
3 21 49 48
3 34 169 35
3 38 167 39
3 42 168 43
3 46 170 47
3 32 523 2
3 2 522 49
3 56 522 2
3 2 523 56
3 3 521 50
3 55 519 3
3 3 519 80
3 80 521 3
3 33 198 32
3 198 523 32
3 34 471 33
3 33 471 198
3 35 185 34
3 185 471 34
3 36 474 35
3 35 474 185
3 37 503 36
3 36 503 474
3 38 180 37
3 180 503 37
3 39 493 38
3 38 493 180
3 40 195 39
3 195 493 39
3 41 472 40
3 40 472 195
3 42 179 41
3 179 472 41
3 43 491 42
3 42 491 179
3 44 374 43
3 374 491 43
3 45 183 44
3 183 374 44
3 46 475 45
3 45 475 183
3 47 517 46
3 46 517 475
3 48 194 47
3 194 517 47
3 49 487 48
3 48 487 194
3 49 522 487
3 50 205 51
3 50 521 205
3 51 193 52
3 51 205 193
3 52 368 53
3 193 368 52
3 53 197 54
3 53 368 197
3 54 379 55
3 197 379 54
3 379 519 55
3 57 199 56
3 56 488 57
3 199 522 56
3 56 523 488
3 57 196 58
3 58 429 57
3 57 488 196
3 57 429 199
3 59 192 58
3 58 426 59
3 192 429 58
3 196 426 58
3 59 182 60
3 60 425 59
3 59 426 182
3 59 425 192
3 61 178 60
3 60 481 61
3 178 425 60
3 182 481 60
3 61 420 62
3 62 465 61
3 61 465 178
3 61 481 420
3 62 175 63
3 63 373 62
3 62 420 175
3 373 465 62
3 64 173 63
3 63 454 64
3 173 373 63
3 175 454 63
3 64 417 65
3 65 460 64
3 64 460 173
3 64 454 417
3 65 187 66
3 66 414 65
3 65 417 187
3 414 460 65
3 67 177 66
3 66 204 67
3 177 414 66
3 187 204 66
3 67 174 68
3 68 411 67
3 67 204 174
3 67 411 177
3 68 410 69
3 69 412 68
3 174 410 68
3 68 412 411
3 70 176 69
3 69 191 70
3 176 412 69
3 69 410 191
3 71 203 70
3 70 405 71
3 70 203 176
3 191 405 70
3 71 190 72
3 72 202 71
3 71 405 190
3 202 203 71
3 73 171 72
3 72 404 73
3 171 202 72
3 190 404 72
3 73 189 74
3 74 413 73
3 73 413 171
3 73 404 189
3 75 186 74
3 74 389 75
3 186 413 74
3 189 389 74
3 75 188 76
3 76 201 75
3 75 201 186
3 75 389 188
3 77 172 76
3 76 384 77
3 172 201 76
3 188 384 76
3 77 181 78
3 78 380 77
3 77 380 172
3 77 384 181
3 79 184 78
3 78 512 79
3 181 512 78
3 184 380 78
3 79 200 80
3 80 378 79
3 79 378 184
3 79 512 200
3 200 521 80
3 80 519 378
3 171 220 202
3 171 323 220
3 171 413 323
3 172 209 201
3 172 355 209
3 172 380 355
3 173 470 373
3 173 460 418
3 418 470 173
3 204 449 174
3 174 448 410
3 174 449 448
3 420 477 175
3 175 464 454
3 175 477 464
3 203 221 176
3 221 222 176
3 222 412 176
3 411 455 177
3 177 461 414
3 455 461 177
3 178 494 425
3 465 466 178
3 466 494 178
3 179 529 472
3 491 515 179
3 515 529 179
3 180 437 436
3 436 503 180
3 180 493 437
3 384 385 181
3 385 531 181
3 181 531 512
3 426 482 182
3 479 481 182
3 182 482 479
3 356 374 183
3 183 375 356
3 183 538 375
3 475 538 183
3 378 502 184
3 184 516 380
3 502 516 184
3 185 527 471
3 474 534 185
3 486 527 185
3 185 534 486
3 201 369 186
3 369 376 186
3 376 413 186
3 187 228 204
3 187 230 228
3 187 417 230
3 188 499 384
3 389 393 188
3 393 499 188
3 189 390 389
3 189 391 390
3 189 404 391
3 190 407 404
3 405 406 190
3 406 407 190
3 191 478 405
3 410 510 191
3 191 510 478
3 425 535 192
3 192 508 429
3 192 535 508
3 205 206 193
3 206 207 193
3 207 368 193
3 360 517 194
3 194 518 360
3 487 498 194
3 498 518 194
3 195 472 468
3 468 504 195
3 195 504 493
3 196 485 426
3 196 489 485
3 488 489 196
3 197 483 364
3 364 532 197
3 368 483 197
3 197 532 379
3 471 527 198
3 198 489 488
3 488 523 198
3 198 527 489
3 429 498 199
3 199 498 487
3 487 522 199
3 200 206 205
3 205 521 200
3 200 365 206
3 200 512 365
3 209 369 201
3 202 371 203
3 220 371 202
3 203 371 221
3 228 449 204
3 206 208 207
3 206 365 208
3 208 210 207
3 210 483 207
3 207 483 368
3 208 211 210
3 208 367 211
3 365 367 208
3 355 370 209
3 209 377 369
3 370 377 209
3 211 212 210
3 212 214 210
3 214 483 210
3 211 213 212
3 211 216 213
3 211 367 216
3 213 422 212
3 212 215 214
3 212 422 215
3 216 217 213
3 217 218 213
3 218 422 213
3 215 362 214
3 362 364 214
3 364 483 214
3 215 525 362
3 215 422 370
3 370 525 215
3 216 341 217
3 216 385 341
3 367 385 216
3 217 219 218
3 217 447 219
3 341 447 217
3 219 223 218
3 223 314 218
3 314 422 218
3 219 224 223
3 219 245 224
3 219 447 245
3 323 361 220
3 361 372 220
3 220 372 371
3 221 227 222
3 221 457 227
3 371 457 221
3 227 229 222
3 229 423 222
3 222 423 412
3 224 225 223
3 225 463 223
3 223 463 314
3 224 226 225
3 224 430 226
3 245 430 224
3 226 231 225
3 231 315 225
3 315 463 225
3 226 232 231
3 226 236 232
3 226 430 236
3 227 233 229
3 227 235 233
3 227 457 235
3 230 248 228
3 248 250 228
3 250 449 228
3 233 234 229
3 234 318 229
3 318 423 229
3 230 249 248
3 230 330 249
3 230 417 330
3 232 239 231
3 239 509 231
3 231 509 315
3 236 237 232
3 237 514 232
3 232 514 239
3 233 415 234
3 235 238 233
3 238 415 233
3 234 319 318
3 234 339 319
3 234 415 339
3 235 307 238
3 235 322 307
3 235 457 322
3 236 240 237
3 236 443 240
3 430 443 236
3 240 241 237
3 241 348 237
3 348 514 237
3 307 332 238
3 332 333 238
3 333 415 238
3 363 500 239
3 239 514 363
3 500 509 239
3 240 242 241
3 240 244 242
3 240 443 244
3 242 243 241
3 243 445 241
3 241 445 348
3 242 246 243
3 244 511 242
3 242 511 246
3 246 247 243
3 247 263 243
3 263 445 243
3 408 409 244
3 244 530 408
3 409 511 244
3 443 530 244
3 245 447 394
3 394 505 245
3 245 505 430
3 246 294 247
3 246 306 294
3 246 511 306
3 247 304 263
3 294 496 247
3 247 496 304
3 249 427 248
3 248 251 250
3 248 427 251
3 330 458 249
3 249 451 427
3 249 458 451
3 251 252 250
3 252 325 250
3 325 449 250
3 251 253 252
3 251 254 253
3 251 427 254
3 253 536 252
3 252 347 325
3 252 536 347
3 254 255 253
3 255 480 253
3 480 536 253
3 254 256 255
3 254 419 256
3 254 427 419
3 256 257 255
3 257 259 255
3 259 480 255
3 256 258 257
3 256 282 258
3 256 419 282
3 258 424 257
3 257 260 259
3 257 424 260
3 282 300 258
3 300 316 258
3 316 424 258
3 260 261 259
3 261 506 259
3 259 506 480
3 260 262 261
3 260 264 262
3 260 424 264
3 262 303 261
3 303 354 261
3 354 506 261
3 264 265 262
3 265 444 262
3 262 444 303
3 304 305 263
3 305 476 263
3 263 476 445
3 264 266 265
3 264 416 266
3 264 424 416
3 266 267 265
3 267 269 265
3 269 444 265
3 266 268 267
3 266 446 268
3 416 446 266
3 268 270 267
3 267 462 269
3 270 462 267
3 268 271 270
3 268 272 271
3 268 446 272
3 431 444 269
3 269 520 431
3 462 520 269
3 271 492 270
3 270 526 462
3 492 526 270
3 272 273 271
3 273 285 271
3 285 492 271
3 272 274 273
3 272 452 274
3 446 452 272
3 274 275 273
3 275 421 273
3 273 421 285
3 274 276 275
3 274 277 276
3 274 452 277
3 276 283 275
3 283 284 275
3 284 421 275
3 277 278 276
3 278 440 276
3 276 440 283
3 277 279 278
3 277 453 279
3 452 453 277
3 279 280 278
3 280 295 278
3 295 440 278
3 279 281 280
3 279 456 281
3 453 456 279
3 281 286 280
3 286 441 280
3 280 441 295
3 281 287 286
3 281 473 287
3 456 473 281
3 282 328 300
3 282 382 328
3 282 419 382
3 283 296 284
3 283 320 296
3 283 440 320
3 296 297 284
3 297 308 284
3 308 421 284
3 285 388 357
3 357 492 285
3 285 421 388
3 287 288 286
3 288 302 286
3 302 441 286
3 287 289 288
3 287 291 289
3 287 473 291
3 289 290 288
3 290 438 288
3 288 438 302
3 289 439 290
3 291 292 289
3 292 439 289
3 432 434 290
3 290 439 432
3 434 438 290
3 291 293 292
3 291 386 293
3 291 473 386
3 293 298 292
3 298 301 292
3 301 439 292
3 293 299 298
3 293 383 299
3 293 386 383
3 306 349 294
3 349 537 294
3 294 537 496
3 295 450 440
3 441 442 295
3 442 450 295
3 296 428 297
3 320 321 296
3 321 428 296
3 297 309 308
3 297 311 309
3 297 428 311
3 299 317 298
3 298 395 301
3 317 395 298
3 299 326 317
3 299 327 326
3 299 383 327
3 300 331 316
3 328 387 300
3 300 387 331
3 395 396 301
3 396 397 301
3 397 439 301
3 438 513 302
3 302 469 441
3 302 513 469
3 303 366 354
3 303 501 366
3 444 501 303
3 304 340 305
3 304 381 340
3 304 496 381
3 340 533 305
3 305 507 476
3 305 533 507
3 306 478 349
3 306 409 406
3 406 478 306
3 306 511 409
3 322 363 307
3 307 528 332
3 363 528 307
3 309 310 308
3 310 388 308
3 388 421 308
3 309 402 310
3 311 312 309
3 312 402 309
3 310 497 388
3 402 459 310
3 459 497 310
3 311 313 312
3 311 375 313
3 311 428 375
3 313 324 312
3 324 336 312
3 336 402 312
3 313 360 324
3 313 538 360
3 375 538 313
3 314 377 370
3 370 422 314
3 314 463 377
3 315 495 463
3 484 495 315
3 315 509 484
3 331 337 316
3 337 416 316
3 416 424 316
3 326 477 317
3 317 401 395
3 317 477 401
3 319 329 318
3 329 455 318
3 318 455 423
3 319 342 329
3 339 431 319
3 319 431 342
3 320 334 321
3 320 450 334
3 440 450 320
3 334 335 321
3 335 356 321
3 356 428 321
3 322 500 363
3 322 457 372
3 372 500 322
3 323 484 361
3 323 413 376
3 376 484 323
3 324 338 336
3 324 518 338
3 360 518 324
3 347 490 325
3 448 449 325
3 325 490 448
3 327 458 326
3 458 464 326
3 464 477 326
3 327 383 382
3 382 451 327
3 451 458 327
3 382 383 328
3 383 386 328
3 386 387 328
3 342 343 329
3 343 461 329
3 329 461 455
3 417 454 330
3 454 464 330
3 330 464 458
3 331 453 337
3 387 456 331
3 331 456 453
3 332 476 333
3 445 476 332
3 332 528 445
3 366 415 333
3 333 507 366
3 476 507 333
3 334 515 335
3 450 467 334
3 467 515 334
3 335 374 356
3 335 491 374
3 335 515 491
3 338 508 336
3 336 403 402
3 336 508 403
3 337 446 416
3 337 452 446
3 337 453 452
3 338 498 429
3 429 508 338
3 338 518 498
3 339 415 366
3 366 501 339
3 339 501 431
3 381 480 340
3 480 506 340
3 506 533 340
3 385 499 341
3 341 524 447
3 499 524 341
3 342 344 343
3 342 520 344
3 431 520 342
3 344 345 343
3 345 346 343
3 346 461 343
3 344 350 345
3 344 462 350
3 344 520 462
3 345 418 346
3 350 351 345
3 351 418 345
3 346 460 414
3 414 461 346
3 418 460 346
3 381 496 347
3 347 536 381
3 347 537 490
3 496 537 347
3 363 514 348
3 348 528 363
3 445 528 348
3 478 510 349
3 349 510 490
3 490 537 349
3 350 352 351
3 350 526 352
3 462 526 350
3 352 353 351
3 353 470 351
3 351 470 418
3 352 357 353
3 352 492 357
3 352 526 492
3 357 358 353
3 358 359 353
3 359 470 353
3 366 507 354
3 354 533 506
3 507 533 354
3 355 525 370
3 380 516 355
3 516 525 355
3 375 428 356
3 357 497 358
3 388 497 357
3 358 466 359
3 459 466 358
3 358 497 459
3 359 465 373
3 373 470 359
3 359 466 465
3 475 517 360
3 360 538 475
3 361 500 372
3 484 509 361
3 361 509 500
3 362 502 364
3 362 516 502
3 362 525 516
3 502 532 364
3 365 531 367
3 512 531 365
3 367 531 385
3 369 495 376
3 377 495 369
3 372 457 371
3 376 495 484
3 463 495 377
3 378 519 379
3 379 532 378
3 378 532 502
3 381 536 480
3 419 451 382
3 384 499 385
3 386 473 387
3 387 473 456
3 390 393 389
3 391 392 390
3 392 394 390
3 390 394 393
3 391 408 392
3 404 407 391
3 407 408 391
3 392 505 394
3 408 530 392
3 392 530 505
3 394 524 393
3 393 524 499
3 447 524 394
3 395 479 396
3 401 479 395
3 396 398 397
3 396 482 398
3 479 482 396
3 398 399 397
3 399 432 397
3 432 439 397
3 398 400 399
3 398 485 400
3 482 485 398
3 400 486 399
3 399 433 432
3 399 486 433
3 485 489 400
3 400 527 486
3 489 527 400
3 401 477 420
3 420 481 401
3 401 481 479
3 403 459 402
3 403 494 459
3 403 535 494
3 508 535 403
3 405 478 406
3 406 409 407
3 407 409 408
3 448 510 410
3 412 423 411
3 423 455 411
3 427 451 419
3 494 535 425
3 426 485 482
3 430 505 443
3 431 501 444
3 433 434 432
3 433 435 434
3 433 534 435
3 486 534 433
3 435 436 434
3 436 438 434
3 435 503 436
3 474 503 435
3 435 534 474
3 437 513 436
3 436 513 438
3 493 504 437
3 504 513 437
3 441 469 442
3 442 467 450
3 442 468 467
3 442 469 468
3 505 530 443
3 490 510 448
3 459 494 466
3 468 529 467
3 467 529 515
3 469 504 468
3 472 529 468
3 469 513 504
3 50 539 3
3 3 539 55
3 51 539 50
3 52 539 51
3 53 539 52
3 54 539 53
3 55 539 54
4 347 558 542 581
4 294 543 246 564
4 349 543 294 564
4 221 543 227 576
4 514 574 544 576
4 347 542 564 581
4 542 558 347 583
4 235 543 227 565
4 227 543 235 576
4 347 564 542 583
4 227 543 221 565
4 406 572 544 574
4 543 564 349 571
4 349 478 543 571
4 264 424 551 590
4 264 551 559 590
4 246 564 543 574
4 243 263 564 574
4 247 564 246 574
4 72 544 190 572
4 543 572 306 574
4 221 565 543 598
4 202 544 72 572
4 72 544 202 588
4 72 190 71 572
4 543 571 478 598
4 243 564 247 574
4 64 550 561 569
4 306 246 294 543
4 371 544 202 572
4 478 306 543 572
4 294 349 306 543
4 417 550 64 569
4 445 564 263 574
4 190 544 72 586
4 202 544 371 588
4 243 247 246 574
4 543 565 235 585
4 514 348 574 576
4 221 572 543 576
4 221 543 572 598
4 528 543 574 576
4 202 72 71 572
4 372 371 544 588
4 457 221 227 576
4 550 551 540 552
4 550 427 562 566
4 372 544 371 576
4 528 574 543 585
4 264 559 551 570
4 419 551 562 566
4 417 64 550 561
4 237 574 240 587
4 240 574 544 587
4 544 572 371 576
4 246 543 306 574
4 237 514 348 574
4 541 551 550 552
4 559 268 590 596
4 478 572 543 598
4 349 478 306 543
4 244 544 240 574
4 560 590 268 596
4 419 562 427 566
4 306 572 406 574
4 64 561 460 569
4 540 552 551 559
4 495 582 547 593
4 460 561 552 569
4 406 544 409 574
4 243 445 263 574
4 514 544 363 576
4 418 552 460 561
4 72 586 544 588
4 553 562 327 595
4 548 562 328 563
4 235 576 543 585
4 424 563 551 590
4 528 543 576 585
4 240 544 244 587
4 376 582 495 593
4 263 564 445 585
4 495 547 369 593
4 190 544 406 572
4 247 294 246 564
4 564 571 542 583
4 406 544 190 586
4 516 554 525 555
4 63 549 561 594
4 381 347 564 581
4 211 212 554 555
4 235 227 233 565
4 376 495 369 593
4 187 550 417 569
4 282 328 562 563
4 528 445 574 585
4 187 230 417 550
4 419 551 282 562
4 264 551 424 570
4 544 586 244 587
4 376 369 186 593
4 188 547 76 554
4 327 562 553 591
4 373 549 63 594
4 417 64 65 569
4 175 63 561 594
4 175 561 553 594
4 230 550 187 579
4 77 554 380 555
4 545 582 376 593
4 63 549 373 561
4 550 569 187 579
4 256 551 419 566
4 369 547 186 593
4 235 565 233 585
4 76 547 201 554
4 235 307 576 585
4 380 554 516 555
4 256 282 419 551
4 552 570 559 584
4 229 234 565 575
4 499 547 188 554
4 305 581 564 585
4 218 547 217 554
4 282 562 551 563
4 384 188 76 554
4 270 560 268 596
4 268 590 560 592
4 548 327 562 595
4 478 406 306 572
4 505 582 545 593
4 392 505 545 593
4 431 567 556 575
4 244 586 530 587
4 457 227 235 576
4 383 548 386 595
4 212 215 554 555
4 349 510 478 571
4 541 570 552 584
4 261 556 303 570
4 384 499 188 554
4 431 556 567 584
4 453 546 27 580
4 172 76 201 554
4 211 212 213 554
4 314 377 547 554
4 382 548 327 562
4 427 419 451 562
4 551 566 256 578
4 381 558 347 581
4 383 327 382 548
4 77 181 554 555
4 373 561 549 577
4 552 561 418 577
4 376 545 484 582
4 229 318 234 575
4 215 525 554 555
4 264 416 424 590
4 268 267 270 559
4 530 586 545 587
4 261 556 570 578
4 300 548 563 580
4 510 478 571 598
4 444 570 556 584
4 27 453 452 546
4 270 559 267 596
4 531 385 181 555
4 323 376 413 545
4 211 554 216 555
4 270 268 559 596
4 544 587 500 588
4 417 561 550 591
4 251 250 558 566
4 328 548 300 580
4 250 558 579 583
4 376 413 545 593
4 77 380 78 555
4 553 561 175 591
4 386 548 24 595
4 248 566 230 579
4 258 282 551 563
4 326 327 553 591
4 454 175 561 591
4 227 221 222 565
4 272 590 268 592
4 230 566 550 579
4 272 546 590 592
4 502 184 555 568
4 558 566 250 579
4 221 222 565 598
4 343 346 552 567
4 314 547 218 554
4 548 562 553 595
4 325 347 558 583
4 373 470 561 577
4 417 454 561 591
4 262 261 303 570
4 423 575 565 589
4 25 548 386 580
4 514 363 348 576
4 337 563 546 580
4 392 545 391 593
4 427 550 249 566
4 211 216 367 555
4 300 548 328 563
4 177 567 557 569
4 528 332 445 585
4 160 573 548 580
4 327 326 553 595
4 528 576 307 585
4 256 419 254 566
4 349 564 537 571
4 406 190 407 586
4 272 546 446 590
4 548 573 160 595
4 443 530 545 587
4 424 551 260 570
4 371 572 221 576
4 173 418 460 561
4 550 562 551 566
4 217 218 219 547
4 237 241 240 574
4 511 306 409 574
4 505 443 530 545
4 173 373 470 561
4 243 263 247 564
4 365 555 512 568
4 373 549 470 577
4 315 545 231 582
4 164 573 162 594
4 531 367 385 555
4 207 210 555 568
4 347 496 381 564
4 565 575 234 597
4 260 551 257 570
4 385 554 181 555
4 372 220 371 588
4 550 562 249 591
4 250 579 449 583
4 257 551 256 578
4 409 244 544 586
4 77 78 181 555
4 507 581 305 585
4 341 217 547 554
4 272 446 268 590
4 328 548 382 562
4 394 582 505 593
4 260 424 257 551
4 392 545 530 586
4 327 548 383 595
4 552 567 346 569
4 413 545 73 588
4 478 405 572 598
4 244 240 242 574
4 24 386 25 548
4 207 555 208 568
4 418 346 460 552
4 235 238 307 585
4 367 554 385 555
4 216 554 367 555
4 409 544 406 586
4 392 391 390 593
4 257 570 551 578
4 73 545 189 586
4 27 546 452 592
4 343 567 552 584
4 355 525 516 554
4 392 394 505 593
4 383 386 24 595
4 444 556 431 584
4 24 293 383 595
4 552 561 550 569
4 282 328 382 562
4 460 552 346 569
4 337 331 563 580
4 505 430 443 545
4 347 325 490 583
4 64 460 65 569
4 189 391 545 593
4 219 245 447 582
4 430 545 226 587
4 443 244 530 587
4 73 545 413 593
4 177 455 557 567
4 161 573 546 592
4 343 346 345 552
4 177 461 455 567
4 164 594 22 595
4 457 371 221 576
4 546 560 590 592
4 381 536 347 558
4 431 319 567 575
4 424 258 551 563
4 505 530 392 545
4 208 555 206 568
4 256 258 282 551
4 260 570 257 578
4 510 191 478 598
4 383 293 24 386
4 177 557 66 569
4 226 545 231 587
4 443 545 430 587
4 166 573 160 580
4 477 317 22 595
4 470 173 561 577
4 349 294 537 564
4 226 231 545 582
4 573 592 165 599
4 250 325 558 583
4 546 548 540 573
4 414 177 66 569
4 540 548 546 563
4 341 547 499 554
4 548 540 553 562
4 209 201 547 554
4 31 359 465 549
4 79 555 184 568
4 355 516 380 554
4 209 547 377 554
4 26 453 27 580
4 207 210 208 555
4 455 557 575 589
4 189 545 391 586
4 455 411 557 589
4 413 323 545 588
4 484 545 315 582
4 220 202 371 588
4 161 165 573 592
4 306 406 409 574
4 219 447 547 582
4 252 325 347 558
4 430 545 505 582
4 282 300 328 563
4 451 249 562 591
4 323 484 376 545
4 549 553 540 561
4 189 545 73 593
4 500 363 544 576
4 303 556 444 570
4 79 512 555 568
4 31 549 465 594
4 208 365 206 555
4 495 376 484 582
4 372 544 500 588
4 337 546 453 580
4 500 587 239 588
4 314 370 377 554
4 31 359 549 599
4 502 555 364 568
4 164 160 573 595
4 556 557 541 558
4 509 239 587 588
4 490 349 537 571
4 226 545 430 582
4 337 546 563 590
4 540 551 550 562
4 417 454 64 561
4 454 175 63 561
4 394 547 582 593
4 255 257 256 578
4 271 268 560 592
4 328 300 387 580
4 24 25 160 548
4 209 172 201 554
4 560 592 573 599
4 392 391 545 586
4 250 325 252 558
4 542 557 556 558
4 550 552 540 561
4 500 544 372 576
4 452 453 337 546
4 557 567 455 575
4 540 546 560 590
4 218 223 219 547
4 483 555 210 568
4 315 495 484 582
4 261 354 556 581
4 270 271 268 560
4 365 206 555 568
4 409 406 407 586
4 238 235 233 585
4 264 424 260 570
4 540 548 553 573
4 553 561 549 594
4 564 581 542 585
4 540 553 549 573
4 365 512 200 568
4 233 565 234 597
4 431 319 342 567
4 465 549 373 594
4 383 382 328 548
4 476 263 445 585
4 452 274 27 592
4 25 160 548 580
4 217 219 447 547
4 251 248 250 566
4 248 250 566 579
4 540 559 551 563
4 509 587 545 588
4 364 555 483 568
4 343 552 344 584
4 541 557 556 567
4 345 552 577 596
4 177 455 411 557
4 166 546 161 573
4 447 341 217 547
4 418 561 173 577
4 581 585 507 597
4 465 359 373 549
4 528 307 332 585
4 188 389 75 547
4 253 251 558 566
4 545 586 73 588
4 559 570 265 584
4 556 567 557 575
4 413 73 171 588
4 455 575 423 589
4 345 552 418 577
4 431 556 339 575
4 511 244 242 574
4 484 545 323 588
4 550 551 541 566
4 186 547 75 593
4 449 579 204 583
4 262 303 444 570
4 524 499 341 547
4 218 314 223 547
4 541 567 556 584
4 75 76 188 547
4 304 381 564 581
4 62 373 63 594
4 233 229 234 565
4 478 191 405 598
4 304 564 305 581
4 250 252 251 558
4 75 201 76 547
4 75 186 201 547
4 444 501 431 556
4 166 27 546 580
4 264 559 266 590
4 268 266 559 590
4 187 417 65 569
4 231 315 509 545
4 326 458 327 591
4 161 546 27 592
4 216 211 213 554
4 268 266 267 559
4 166 546 573 580
4 244 408 530 586
4 524 447 394 547
4 542 585 581 597
4 233 585 565 597
4 541 556 570 584
4 75 547 389 593
4 212 215 422 554
4 344 343 345 552
4 207 483 210 568
4 159 549 573 599
4 478 405 406 572
4 316 337 331 563
4 483 364 214 555
4 417 550 330 591
4 184 502 378 568
4 404 73 189 586
4 418 345 346 552
4 69 589 412 598
4 261 506 354 581
4 253 566 558 578
4 204 579 557 583
4 446 272 452 546
4 540 553 562 591
4 414 346 461 569
4 452 272 274 592
4 452 546 272 592
4 221 176 222 598
4 346 567 461 569
4 231 545 509 587
4 431 567 342 584
4 66 569 557 579
4 161 166 27 546
4 159 573 165 599
4 541 552 550 569
4 265 559 264 570
4 537 496 347 564
4 431 339 319 575
4 201 186 369 547
4 551 563 559 590
4 79 200 512 568
4 213 218 217 554
4 394 393 547 593
4 212 422 213 554
4 261 570 260 578
4 386 383 328 548
4 464 553 175 591
4 540 559 563 590
4 424 316 258 563
4 219 547 223 582
4 540 561 553 591
4 189 390 391 593
4 160 24 548 595
4 359 470 373 549
4 556 557 542 575
4 565 412 589 598
4 447 524 341 547
4 204 66 557 579
4 463 547 495 582
4 430 226 236 587
4 253 254 566 578
4 524 394 393 547
4 470 549 353 577
4 480 578 558 581
4 549 162 573 594
4 69 571 589 598
4 454 464 175 591
4 162 159 549 573
4 546 540 560 573
4 353 470 359 549
4 245 505 394 582
4 417 330 454 591
4 345 577 350 596
4 22 317 23 595
4 370 209 377 554
4 506 578 480 581
4 221 572 203 598
4 250 228 449 579
4 348 241 237 574
4 344 552 345 596
4 380 77 172 554
4 371 203 221 572
4 549 560 540 573
4 427 249 248 566
4 314 218 422 554
4 381 496 304 564
4 536 252 347 558
4 166 26 27 580
4 443 240 244 587
4 344 584 552 596
4 387 25 386 580
4 257 424 258 551
4 253 251 252 558
4 22 420 477 594
4 264 265 266 559
4 376 186 413 593
4 452 337 446 546
4 230 330 417 550
4 74 73 413 593
4 540 550 561 591
4 303 261 354 556
4 173 460 64 561
4 552 559 540 596
4 463 223 314 547
4 483 214 210 555
4 337 563 316 590
4 327 458 562 591
4 412 565 222 598
4 73 586 72 588
4 509 545 484 588
4 405 190 406 572
4 253 255 254 578
4 223 547 463 582
4 431 501 339 556
4 269 559 265 584
4 354 556 581 597
4 67 204 557 583
4 392 530 408 586
4 551 562 540 563
4 540 563 546 590
4 184 378 79 568
4 173 63 373 561
4 455 318 423 575
4 451 458 249 591
4 187 569 66 579
4 245 430 505 582
4 216 385 367 554
4 188 393 389 547
4 362 525 215 555
4 354 581 507 597
4 364 362 214 555
4 315 484 509 545
4 31 549 159 599
4 230 249 330 550
4 300 563 331 580
4 176 412 222 598
4 352 560 577 599
4 174 410 583 589
4 540 562 550 591
4 162 159 31 549
4 177 411 67 557
4 455 567 329 575
4 549 561 540 577
4 552 540 577 596
4 548 540 562 563
4 392 390 394 593
4 250 449 325 583
4 345 351 350 577
4 565 575 542 589
4 226 225 231 582
4 345 418 351 577
4 67 557 411 589
4 542 564 565 571
4 552 540 561 577
4 559 584 462 596
4 446 546 337 590
4 256 257 258 551
4 528 574 348 576
4 449 228 204 579
4 285 29 592 599
4 207 208 206 568
4 393 499 524 547
4 543 565 564 571
4 162 549 31 594
4 549 540 560 577
4 484 323 361 588
4 413 171 323 588
4 364 502 362 555
4 549 573 553 594
4 571 583 410 589
4 492 592 560 599
4 67 583 557 589
4 381 480 536 558
4 448 571 490 583
4 546 573 560 592
4 174 68 410 589
4 344 345 350 596
4 389 547 393 593
4 393 188 499 547
4 164 162 22 594
4 477 553 326 595
4 455 423 411 589
4 246 306 511 574
4 377 463 314 547
4 549 353 577 599
4 558 578 556 581
4 557 579 558 583
4 463 377 495 547
4 253 558 480 578
4 444 303 501 556
4 443 430 236 587
4 221 203 176 598
4 172 77 76 554
4 553 573 548 595
4 62 63 175 594
4 285 592 492 599
4 419 427 254 566
4 542 575 565 597
4 330 550 249 591
4 353 549 359 599
4 372 371 457 576
4 404 72 73 586
4 480 558 381 581
4 225 315 231 582
4 233 415 585 597
4 556 541 570 578
4 556 558 541 578
4 542 565 564 585
4 548 573 546 580
4 546 563 548 580
4 204 187 66 579
4 264 266 416 590
4 342 567 343 584
4 269 462 559 584
4 329 455 461 567
4 166 163 160 573
4 541 567 552 569
4 77 384 76 554
4 409 408 244 586
4 362 516 525 555
4 67 174 204 583
4 174 583 67 589
4 371 202 203 572
4 213 422 218 554
4 329 567 319 575
4 352 577 353 599
4 565 589 571 598
4 550 541 569 579
4 405 71 190 572
4 67 204 66 557
4 226 231 232 587
4 166 161 163 573
4 462 267 269 559
4 175 553 477 594
4 541 558 557 579
4 509 484 361 588
4 470 418 173 577
4 304 305 340 581
4 564 565 543 585
4 337 453 331 580
4 181 384 77 554
4 541 552 567 584
4 392 408 391 586
4 31 465 1 594
4 477 326 317 595
4 404 189 391 586
4 258 300 282 563
4 215 212 214 555
4 241 242 240 574
4 319 329 342 567
4 161 165 163 573
4 465 373 62 594
4 261 260 259 578
4 550 566 541 579
4 27 274 28 592
4 201 369 209 547
4 163 164 160 573
4 261 262 260 570
4 541 566 551 578
4 380 172 355 554
4 339 575 556 597
4 382 419 282 562
4 451 562 458 591
4 560 573 549 599
4 377 369 495 547
4 31 358 359 599
4 344 462 584 596
4 451 327 458 562
4 557 558 542 583
4 326 553 464 591
4 352 577 560 596
4 69 68 412 589
4 267 265 269 559
4 189 73 74 593
4 362 215 214 555
4 23 298 293 595
4 219 223 224 582
4 525 370 215 554
4 348 528 445 574
4 219 224 245 582
4 261 259 506 578
4 542 558 556 581
4 423 565 412 589
4 560 577 540 596
4 354 366 556 597
4 412 423 222 565
4 70 572 405 598
4 171 73 72 588
4 415 233 234 597
4 29 165 592 599
4 316 331 300 563
4 377 209 369 547
4 267 266 265 559
4 536 480 253 558
4 476 445 332 585
4 541 551 570 578
4 67 66 177 557
4 448 410 571 583
4 361 372 500 588
4 216 213 217 554
4 164 163 162 573
4 174 67 68 589
4 22 477 401 317
4 516 362 502 555
4 354 507 366 597
4 343 461 346 567
4 159 163 165 573
4 231 509 239 587
4 365 200 206 568
4 307 238 332 585
4 253 254 251 566
4 271 272 268 592
4 181 385 384 554
4 299 293 298 595
4 271 270 492 560
4 541 566 558 579
4 342 343 344 584
4 233 227 229 565
4 187 65 66 569
4 492 560 352 599
4 557 567 541 569
4 460 346 414 569
4 305 304 263 564
4 226 430 224 582
4 248 228 250 579
4 499 384 385 554
4 350 351 352 577
4 162 163 159 573
4 186 74 413 593
4 314 422 370 554
4 28 161 27 592
4 502 364 532 568
4 448 174 410 583
4 341 499 385 554
4 175 464 477 553
4 533 507 354 581
4 552 584 559 596
4 260 257 259 578
4 175 477 420 594
4 228 248 230 579
4 350 577 352 596
4 224 430 245 582
4 380 184 78 555
4 210 212 211 555
4 507 305 476 585
4 404 190 72 586
4 327 383 299 595
4 315 463 495 582
4 448 490 325 583
4 462 267 559 596
4 337 316 416 590
4 304 340 381 581
4 293 24 23 595
4 544 574 572 576
4 341 216 217 554
4 363 528 348 576
4 352 560 526 596
4 512 531 181 555
4 214 212 210 555
4 541 557 569 579
4 477 464 326 553
4 490 510 349 571
4 305 507 533 581
4 252 536 253 558
4 23 164 22 595
4 78 512 181 555
4 70 405 191 598
4 516 502 184 555
4 270 526 560 596
4 558 566 541 578
4 506 259 480 578
4 293 299 383 595
4 370 422 215 554
4 232 231 239 587
4 203 202 71 572
4 542 575 557 589
4 285 357 29 599
4 184 79 78 555
4 339 556 501 597
4 1 465 61 594
4 380 516 184 555
4 477 420 22 401
4 300 331 387 580
4 277 452 27 453
4 512 78 79 555
4 456 25 387 580
4 303 354 366 556
4 193 205 539 568
4 255 253 480 578
4 222 423 229 565
4 193 539 368 568
4 387 25 473 386
4 326 464 458 591
4 539 379 197 568
4 233 415 238 585
4 565 585 542 597
4 303 366 501 556
4 519 379 539 568
4 162 31 1 594
4 451 382 327 562
4 322 372 457 576
4 63 64 454 561
4 572 574 543 576
4 507 585 333 597
4 339 234 319 575
4 270 526 492 560
4 208 210 211 555
4 74 186 75 593
4 382 451 419 562
4 293 23 24 298
4 339 234 575 597
4 28 285 29 592
4 30 31 159 599
4 501 556 366 597
4 492 357 285 599
4 496 294 247 564
4 227 222 229 565
4 228 230 187 579
4 549 577 560 599
4 271 560 492 592
4 537 294 496 564
4 258 316 300 563
4 473 456 25 387
4 327 299 326 595
4 521 80 539 568
4 521 539 205 568
4 394 390 393 593
4 525 355 370 554
4 262 265 264 570
4 269 444 431 584
4 273 285 28 592
4 526 352 492 560
4 500 372 322 576
4 273 274 272 592
4 29 357 30 599
4 216 341 385 554
4 352 351 353 577
4 225 223 463 582
4 61 465 62 594
4 197 368 539 568
4 203 572 70 598
4 490 448 510 571
4 492 352 357 599
4 519 539 80 568
4 262 264 260 570
4 420 22 1 594
4 493 141 39 167
4 361 220 372 588
4 367 208 211 555
4 502 532 378 568
4 318 455 329 575
4 520 344 462 584
4 31 30 358 599
4 28 274 273 592
4 172 209 355 554
4 225 463 315 582
4 25 166 160 580
4 453 26 456 580
4 171 72 202 588
4 236 226 232 587
4 236 237 240 587
4 174 449 204 583
4 63 173 64 561
4 586 587 544 588
4 307 322 235 576
4 431 342 520 584
4 204 228 187 579
4 340 305 533 581
4 322 457 235 576
4 176 69 412 598
4 265 262 444 570
4 409 407 408 586
4 460 414 65 569
4 283 275 284 122
4 458 330 249 591
4 65 414 66 569
4 557 583 542 589
4 565 571 543 598
4 203 70 176 598
4 443 236 240 587
4 470 351 418 577
4 226 224 225 582
4 304 247 263 564
4 317 401 23 395
4 52 193 539 368
4 497 30 29 357
4 197 539 54 379
4 370 355 209 554
4 242 243 246 574
4 456 26 25 580
4 462 270 267 596
4 539 193 51 205
4 479 396 482 91
4 400 489 485 87
4 242 246 511 574
4 234 318 319 575
4 182 7 91 426
4 368 539 53 197
4 506 480 340 581
4 6 95 426 196
4 289 290 101 288
4 545 587 586 588
4 251 427 248 566
4 61 420 1 594
4 160 164 24 595
4 359 31 465 466
4 80 539 3 521
4 512 365 531 555
4 67 411 68 589
4 500 322 363 576
4 420 1 22 481
4 28 275 274 276
4 467 450 108 106
4 138 284 275 122
4 367 365 208 555
4 141 14 39 167
4 340 480 381 581
4 407 190 404 586
4 351 470 353 577
4 506 533 354 581
4 531 365 367 555
4 232 239 514 587
4 401 23 22 317
4 109 108 450 106
4 290 100 102 438
4 102 101 290 288
4 43 168 491 133
4 59 8 7 425
4 7 8 59 182
4 83 280 279 121
4 556 575 542 597
4 274 27 28 276
4 528 363 307 576
4 96 400 485 87
4 342 344 520 584
4 401 22 23 395
4 510 448 410 571
4 542 571 565 589
4 3 539 80 519
4 95 6 87 196
4 70 71 405 572
4 542 581 556 597
4 224 223 225 582
4 241 348 445 574
4 269 520 462 584
4 60 1 8 144
4 268 446 266 590
4 95 91 7 426
4 168 43 17 133
4 74 75 389 593
4 28 165 161 592
4 350 352 526 596
4 425 8 7 92
4 279 26 83 121
4 344 350 462 596
4 61 1 178 465
4 8 7 91 182
4 192 425 7 92
4 237 232 514 587
4 396 479 127 91
4 255 259 257 578
4 178 1 31 465
4 395 23 301 127
4 182 59 7 426
4 456 25 26 281
4 497 29 388 357
4 145 1 8 481
4 304 496 247 564
4 366 507 333 597
4 420 61 1 481
4 85 301 23 127
4 520 269 431 584
4 241 445 243 574
4 1 60 178 144
4 169 10 471 151
4 359 358 31 466
4 299 317 326 595
4 130 485 482 95
4 23 301 298 395
4 285 271 492 592
4 60 8 1 481
4 281 279 280 121
4 291 25 24 386
4 115 283 284 122
4 110 320 111 109
4 290 434 100 438
4 89 169 471 151
4 99 397 432 139
4 95 7 6 426
4 339 501 366 597
4 251 254 427 566
4 255 480 259 578
4 29 165 28 592
4 29 285 388 357
4 453 456 331 580
4 298 301 23 85
4 62 420 61 594
4 411 423 412 589
4 130 482 396 91
4 440 154 320 109
4 334 320 110 109
4 542 583 571 589
4 102 101 100 290
4 83 277 27 279
4 397 439 432 139
4 471 34 10 169
4 425 7 59 192
4 70 203 71 572
4 353 359 358 599
4 440 123 154 109
4 450 467 442 106
4 485 482 398 130
4 318 329 319 575
4 57 6 5 86
4 329 343 342 567
4 329 461 343 567
4 521 539 50 205
4 83 27 26 279
4 26 279 281 121
4 489 400 97 87
4 278 277 83 279
4 281 456 25 473
4 277 27 452 274
4 108 450 334 109
4 446 337 416 590
4 138 115 284 122
4 195 504 141 493
4 95 87 485 196
4 320 321 110 111
4 311 375 112 114
4 62 175 420 594
4 364 197 532 568
4 363 322 307 576
4 108 334 450 467
4 426 95 485 196
4 433 432 100 98
4 84 128 30 310
4 519 55 539 379
4 34 471 185 169
4 236 232 237 587
4 192 6 86 125
4 157 88 142 529
4 275 28 122 276
4 471 185 169 89
4 98 432 100 99
4 130 96 485 95
4 8 60 59 182
4 24 292 298 85
4 402 312 116 336
4 482 91 95 426
4 396 127 130 91
4 59 60 8 425
4 448 325 449 583
4 298 23 24 85
4 122 28 27 276
4 96 97 400 87
4 110 321 320 334
4 171 202 220 588
4 401 479 22 395
4 440 320 450 109
4 120 141 504 493
4 159 165 30 599
4 87 6 5 196
4 98 399 432 99
4 508 118 86 338
4 107 468 108 106
4 515 142 88 529
4 16 42 168 491
4 389 393 390 593
4 141 504 195 120
4 399 432 433 98
4 473 25 291 386
4 180 120 82 437
4 493 180 141 167
4 333 585 415 597
4 101 100 290 432
4 397 399 398 99
4 96 485 398 130
4 112 135 321 110
4 55 54 539 379
4 148 84 143 309
4 454 330 464 591
4 425 60 8 144
4 284 308 297 143
4 169 185 35 474
4 117 112 375 114
4 450 123 440 109
4 403 92 128 494
4 242 241 243 574
4 91 482 182 426
4 395 479 22 127
4 113 428 296 111
4 141 39 195 493
4 421 29 308 138
4 60 425 178 144
4 54 53 539 197
4 61 1 60 178
4 29 308 138 84
4 468 467 108 106
4 165 29 30 599
4 396 301 139 127
4 352 353 357 599
4 287 281 25 473
4 402 116 137 336
4 120 195 141 134
4 82 436 180 437
4 13 141 180 167
4 289 101 103 288
4 166 25 26 580
4 102 105 104 302
4 102 290 438 288
4 24 293 291 386
4 121 281 25 287
4 436 82 120 437
4 197 379 532 568
4 88 179 515 529
4 29 388 308 84
4 79 378 80 568
4 147 441 104 106
4 292 129 291 289
4 84 308 143 309
4 207 193 368 568
4 539 53 52 368
4 291 129 25 287
4 157 142 108 529
4 148 84 309 310
4 22 162 1 594
4 99 399 398 96
4 364 483 197 568
4 486 185 527 146
4 440 123 450 295
4 402 148 128 403
4 100 124 102 438
4 379 378 532 568
4 474 169 185 89
4 51 52 193 539
4 429 6 86 192
4 308 388 29 421
4 179 515 491 133
4 284 308 143 138
4 99 398 397 130
4 26 456 279 453
4 107 469 468 106
4 389 189 74 593
4 61 60 1 481
4 411 412 68 589
4 389 390 189 593
4 391 407 404 586
4 539 51 50 205
4 123 147 450 295
4 24 164 23 595
4 271 285 273 592
4 298 292 301 85
4 109 450 147 106
4 98 486 400 97
4 149 57 5 86
4 387 331 456 580
4 169 35 11 474
4 493 38 180 167
4 333 238 415 585
4 292 129 24 291
4 79 80 200 568
4 207 206 193 568
4 104 441 469 106
4 441 147 442 106
4 101 100 432 99
4 323 171 220 588
4 133 16 179 88
4 290 100 434 432
4 25 291 287 473
4 491 168 16 133
4 396 301 397 139
4 174 448 449 583
4 320 283 296 154
4 206 205 193 568
4 101 102 103 288
4 118 86 125 508
4 128 84 148 310
4 116 148 143 309
4 21 48 487 152
4 403 535 92 494
4 124 100 434 438
4 395 22 23 127
4 135 374 335 133
4 292 153 129 289
4 125 192 7 92
4 116 113 311 309
4 180 38 13 167
4 205 206 200 568
4 391 408 407 586
4 311 375 114 313
4 272 271 273 592
4 296 297 428 113
4 361 323 220 588
4 312 118 116 336
4 195 14 39 141
4 24 292 293 298
4 113 112 428 111
4 115 284 297 143
4 309 84 308 310
4 205 200 521 568
4 321 112 110 111
4 468 442 467 106
4 142 515 108 529
4 401 420 22 481
4 107 105 469 106
4 108 334 110 109
4 441 442 147 295
4 335 321 135 110
4 7 6 192 125
4 122 27 83 276
4 479 22 145 481
4 278 123 440 295
4 292 24 129 85
4 309 402 148 310
4 539 3 55 519
4 446 416 266 590
4 50 3 539 521
4 113 296 115 111
4 439 101 290 432
4 442 147 450 106
4 88 15 41 472
4 102 438 302 288
4 281 25 26 121
4 474 11 169 89
4 129 153 292 85
4 150 5 4 488
4 129 121 25 287
4 471 527 151 93
4 105 102 513 302
4 128 137 92 403
4 154 296 320 111
4 114 158 312 313
4 143 113 116 309
4 491 374 43 133
4 399 486 400 98
4 311 113 116 114
4 297 296 115 113
4 456 26 279 281
4 368 483 207 568
4 491 16 179 133
4 154 283 122 440
4 141 120 180 493
4 197 483 368 568
4 357 358 30 599
4 114 116 311 312
4 135 321 356 112
4 278 83 280 279
4 439 301 292 85
4 504 120 107 134
4 22 479 401 481
4 442 468 469 106
4 301 396 395 127
4 148 116 402 309
4 324 312 158 313
4 120 504 195 134
4 143 115 284 138
4 432 100 434 433
4 302 441 104 286
4 183 81 135 117
4 91 482 479 182
4 374 17 43 133
4 321 428 112 111
4 398 396 397 130
4 506 340 533 581
4 16 42 491 179
4 139 397 396 130
4 104 441 136 286
4 519 378 379 568
4 114 375 117 313
4 120 504 105 437
4 459 31 30 466
4 517 46 19 170
4 115 296 283 154
4 310 128 30 459
4 103 153 101 289
4 336 118 137 508
4 121 136 280 286
4 312 116 311 309
4 507 476 333 585
4 139 301 85 127
4 113 311 112 114
4 442 469 441 106
4 146 185 527 89
4 113 143 297 309
4 107 195 504 134
4 320 283 154 440
4 486 433 534 146
4 400 399 98 96
4 471 527 89 151
4 311 375 428 112
4 481 145 479 182
4 450 147 123 109
4 23 298 317 395
4 535 425 192 92
4 95 485 482 426
4 508 336 118 338
4 145 91 479 182
4 105 104 469 106
4 493 120 180 437
4 118 137 116 336
4 527 198 489 93
4 144 92 425 494
4 145 8 91 182
4 128 31 30 459
4 81 356 183 135
4 276 122 283 440
4 302 103 102 288
4 58 6 7 426
4 121 280 281 286
4 292 153 289 439
4 146 131 534 89
4 104 103 302 286
4 145 22 1 481
4 103 104 136 286
4 513 105 504 437
4 103 289 288 287
4 458 464 330 591
4 273 275 28 421
4 487 94 21 152
4 534 119 131 146
4 441 280 136 286
4 100 119 434 433
4 421 284 275 138
4 274 277 27 276
4 399 400 398 96
4 289 103 129 287
4 281 121 286 287
4 157 472 468 134
4 527 471 198 93
4 198 33 9 151
4 108 157 468 107
4 127 139 396 130
4 92 425 8 144
4 105 469 504 107
4 116 312 402 309
4 41 179 88 472
4 92 144 128 494
4 120 105 504 107
4 278 123 295 136
4 85 439 301 139
4 429 58 6 192
4 428 321 296 111
4 400 98 97 96
4 137 535 403 508
4 154 283 115 122
4 127 479 22 145
4 179 16 41 88
4 131 119 435 503
4 88 15 472 134
4 104 103 102 302
4 497 358 30 357
4 10 169 89 151
4 97 527 489 93
4 399 397 432 99
4 151 198 471 93
4 284 296 283 115
4 125 137 118 508
4 28 275 273 274
4 156 150 4 488
4 96 398 99 130
4 486 98 146 97
4 122 123 154 440
4 439 292 153 85
4 87 485 96 95
4 105 469 104 302
4 136 121 103 286
4 7 6 58 192
4 142 334 110 108
4 87 5 150 196
4 521 200 80 568
4 57 5 6 196
4 56 57 4 199
4 92 535 425 494
4 84 388 308 310
4 489 485 87 196
4 472 15 40 134
4 91 130 482 95
4 517 19 46 475
4 334 450 320 109
4 80 378 519 568
4 334 110 335 142
4 178 31 1 144
4 140 132 90 538
4 131 36 12 503
4 56 4 0 155
4 123 278 83 136
4 137 128 148 403
4 286 121 103 287
4 129 291 289 287
4 119 131 82 503
4 58 6 426 196
4 4 57 56 488
4 515 108 529 467
4 56 2 0 523
4 137 535 92 403
4 278 295 280 136
4 59 58 7 426
4 15 41 16 88
4 185 471 527 89
4 468 195 504 107
4 527 146 89 97
4 450 147 442 295
4 459 128 31 494
4 286 103 302 288
4 522 56 0 155
4 140 90 126 518
4 4 156 488 523
4 434 435 119 436
4 488 56 4 523
4 107 157 468 134
4 142 135 335 133
4 70 69 176 598
4 142 515 334 108
4 403 336 137 508
4 126 90 152 518
4 137 125 535 508
4 57 4 5 488
4 356 335 321 135
4 116 114 118 312
4 439 397 301 139
4 108 515 334 467
4 308 297 143 309
4 56 0 2 522
4 491 335 374 133
4 332 238 333 585
4 151 527 89 97
4 476 332 333 585
4 468 195 107 134
4 475 90 132 538
4 421 275 28 138
4 124 82 120 436
4 138 308 143 84
4 366 333 415 597
4 108 157 467 468
4 479 127 91 145
4 308 284 421 138
4 35 34 185 169
4 129 25 24 291
4 270 462 526 596
4 138 275 28 122
4 321 320 296 111
4 122 283 275 276
4 43 44 17 374
4 30 358 459 466
4 114 158 118 312
4 90 152 517 170
4 105 102 124 513
4 82 124 119 436
4 280 83 278 136
4 7 58 59 192
4 425 178 144 494
4 158 118 312 324
4 339 415 234 597
4 297 311 113 309
4 10 33 471 151
4 434 119 124 436
4 141 120 82 180
4 92 125 535 137
4 402 137 148 403
4 97 151 527 93
4 33 34 10 471
4 4 149 155 199
4 94 126 152 498
4 111 320 154 109
4 11 36 12 131
4 9 198 151 93
4 293 292 24 291
4 310 148 128 459
4 469 441 104 302
4 310 30 84 497
4 99 98 399 96
4 482 396 398 130
4 156 9 198 523
4 310 84 388 497
4 112 428 311 113
4 139 99 397 130
4 527 400 486 97
4 198 489 93 488
4 494 31 459 466
4 87 150 489 196
4 86 149 57 429
4 435 119 131 534
4 33 10 9 151
4 534 433 119 146
4 154 115 296 111
4 194 152 90 518
4 141 195 14 134
4 284 297 296 115
4 515 334 335 142
4 100 119 124 434
4 102 438 513 302
4 398 400 485 96
4 120 124 436 437
4 18 45 19 132
4 497 310 30 459
4 132 45 19 475
4 195 468 472 134
4 70 191 69 598
4 402 128 148 459
4 31 178 465 466
4 395 396 479 127
4 129 103 121 287
4 498 86 126 338
4 100 119 433 98
4 48 21 20 152
4 42 16 41 179
4 388 285 29 421
4 529 157 88 472
4 486 399 433 98
4 321 428 356 112
4 358 30 31 466
4 45 18 183 132
4 28 29 421 138
4 131 474 534 89
4 18 44 183 81
4 198 471 33 151
4 310 402 148 459
4 374 44 17 81
4 438 124 102 513
4 90 140 360 518
4 403 128 402 459
4 150 156 93 488
4 433 486 98 146
4 288 286 103 287
4 93 489 150 488
4 356 135 112 117
4 468 504 469 107
4 462 350 526 596
4 360 324 158 313
4 336 324 118 338
4 357 353 358 599
4 39 40 14 195
4 472 157 88 134
4 529 157 472 468
4 15 14 40 134
4 126 118 324 338
4 131 36 503 474
4 125 535 192 92
4 126 149 86 498
4 183 132 117 538
4 135 81 374 133
4 131 11 36 474
4 110 135 335 142
4 199 57 149 429
4 132 81 183 117
4 19 90 517 170
4 195 472 40 134
4 195 40 14 134
4 374 335 356 135
4 192 86 429 125
4 185 486 534 146
4 339 366 415 597
4 324 118 312 336
4 48 487 152 194
4 153 103 129 289
4 488 489 150 196
4 335 321 110 334
4 85 153 439 139
4 128 144 31 494
4 146 527 486 97
4 46 19 45 475
4 356 183 374 81
4 517 90 19 475
4 144 178 31 494
4 124 434 436 438
4 21 155 94 487
4 312 311 114 313
4 13 12 37 82
4 474 435 131 534
4 194 498 126 518
4 136 280 83 121
4 112 375 356 117
4 498 126 152 194
4 118 126 86 338
4 156 93 488 523
4 18 17 44 81
4 356 428 375 112
4 360 158 140 313
4 168 42 43 491
4 336 137 402 403
4 194 90 360 518
4 157 529 467 468
4 360 140 90 538
4 147 441 295 136
4 94 487 199 498
4 18 44 45 183
4 198 9 156 93
4 15 40 41 472
4 37 13 82 180
4 199 149 94 498
4 136 147 441 104
4 9 32 198 523
4 493 504 120 437
4 81 17 374 133
4 183 44 374 81
4 158 114 117 313
4 30 358 497 459
4 434 119 435 433
4 493 39 38 167
4 487 522 94 199
4 108 157 529 467
4 13 37 38 180
4 20 47 48 194
4 475 360 90 538
4 360 517 90 194
4 439 153 101 139
4 94 155 149 199
4 498 152 94 194
4 132 183 45 475
4 297 311 428 113
4 194 126 152 518
4 529 88 179 472
4 12 82 131 503
4 33 9 32 198
4 149 199 429 498
4 81 183 18 132
4 504 469 105 513
4 11 35 36 474
4 324 126 338 518
4 81 374 356 135
4 475 132 183 538
4 429 86 149 498
4 86 429 508 338
4 117 375 183 538
4 94 155 522 487
4 498 94 487 194
4 140 117 132 538
4 82 436 503 180
4 90 132 19 475
4 32 0 2 523
4 126 94 149 498
4 280 295 441 136
4 513 436 124 437
4 137 148 116 402
4 48 49 21 487
4 94 522 155 199
4 488 93 198 523
4 82 12 37 503
4 429 86 498 338
4 155 21 49 487
4 522 0 49 155
4 131 11 474 89
4 98 119 433 146
4 143 297 115 113
4 49 2 0 522
4 49 522 155 487
4 146 534 185 89
4 534 474 185 89
4 438 436 124 513
4 152 20 48 194
4 13 141 82 180
4 117 140 158 313
4 58 57 6 196
4 469 105 513 302
4 150 97 489 93
4 125 429 192 508
4 118 158 126 324
4 150 489 97 87
4 503 435 131 474
4 178 31 494 466
4 86 429 125 508
4 338 126 498 518
4 119 435 433 534
4 459 403 128 494
4 12 36 37 503
4 489 400 527 97
4 152 487 94 194
4 37 82 503 180
4 90 517 360 475
4 517 152 90 194
4 313 117 140 538
4 152 90 20 170
4 0 21 49 155
4 517 47 46 170
4 93 156 198 523
4 125 192 535 508
4 17 16 168 133
4 169 11 10 89
4 140 360 313 538
4 90 19 20 170
4 313 375 117 538
4 295 123 147 136
4 141 13 14 167
4 249 562 427 451
4 427 562 249 550
4 587 574 514 237
4 587 514 574 544
4 570 552 551 541
4 570 551 552 559
4 574 585 564 543
4 564 585 574 445
4 409 574 244 511
4 244 574 409 544
4 575 229 423 565
4 575 423 229 318
4 590 596 540 559
4 540 596 590 560
4 566 230 249 248
4 566 249 230 550
4 594 595 477 22
4 477 595 594 553
4 581 261 578 556
4 581 578 261 506
4 582 447 394 245
4 582 394 447 547
4 595 594 573 164
4 595 573 594 553
4 571 583 347 490
4 347 583 571 564
4 347 537 571 490
4 571 537 347 564
4 544 363 587 514
4 544 587 363 500
4 239 587 363 514
4 239 363 587 500
4 590 316 424 563
4 590 424 316 416
4 69 598 410 571
4 69 410 598 191
4 510 410 598 571
4 510 598 410 191
4 580 328 386 387
4 580 386 328 548
4 585 263 305 476
4 585 305 263 564
4 461 569 177 414
4 177 569 461 567
4 265 584 444 269
4 444 584 265 570
4 578 254 256 255
4 578 256 254 566
4 500 509 588 239
4 500 588 509 361
4 589 410 69 68
4 589 69 410 571
4 298 595 317 299
4 317 595 298 23
4 285 28 421 273
4 285 421 28 29
4 432 139 101 99
4 101 139 432 439
4 481 8 182 60
4 481 182 8 145
4 279 27 453 277
4 279 453 27 26
4 83 277 276 27
4 83 276 277 278
4 133 515 335 142
4 133 335 515 491
4 101 289 439 290
4 439 289 101 153
4 83 276 440 122
4 440 276 83 278
4 440 123 83 122
4 83 123 440 278
4 88 515 133 142
4 88 133 515 179
4 429 6 57 86
4 429 57 6 58
4 119 503 436 435
4 436 503 119 82
4 497 29 84 388
4 497 84 29 30
4 56 155 199 4
4 199 155 56 522
4 437 105 124 513
4 437 124 105 120
4 158 360 518 324
4 518 360 158 140
4 518 126 158 324
4 158 126 518 140
4 9 523 0 32
4 0 523 9 156
4 4 523 0 156
4 0 523 4 56
4 356 117 183 135
4 183 117 356 375
4 194 517 170 47
4 170 517 194 152
4 170 20 194 47
4 194 20 170 152
4 488 5 196 150
4 488 196 5 57
4 149 57 4 5
4 149 4 57 199

CELL_TYPES 2996
1
1
1
1
3
3
3
3
3
3
3
3
3
3
3
3
3
3
3
3
3
3
3
3
3
3
3
3
3
3
3
3
3
3
3
3
3
3
3
3
3
3
3
3
3
3
3
3
3
3
3
3
3
3
3
3
3
3
3
3
3
3
3
3
3
3
3
3
3
3
3
3
3
3
3
3
3
3
3
3
3
3
3
3
3
3
3
5
5
5
5
5
5
5
5
5
5
5
5
5
5
5
5
5
5
5
5
5
5
5
5
5
5
5
5
5
5
5
5
5
5
5
5
5
5
5
5
5
5
5
5
5
5
5
5
5
5
5
5
5
5
5
5
5
5
5
5
5
5
5
5
5
5
5
5
5
5
5
5
5
5
5
5
5
5
5
5
5
5
5
5
5
5
5
5
5
5
5
5
5
5
5
5
5
5
5
5
5
5
5
5
5
5
5
5
5
5
5
5
5
5
5
5
5
5
5
5
5
5
5
5
5
5
5
5
5
5
5
5
5
5
5
5
5
5
5
5
5
5
5
5
5
5
5
5
5
5
5
5
5
5
5
5
5
5
5
5
5
5
5
5
5
5
5
5
5
5
5
5
5
5
5
5
5
5
5
5
5
5
5
5
5
5
5
5
5
5
5
5
5
5
5
5
5
5
5
5
5
5
5
5
5
5
5
5
5
5
5
5
5
5
5
5
5
5
5
5
5
5
5
5
5
5
5
5
5
5
5
5
5
5
5
5
5
5
5
5
5
5
5
5
5
5
5
5
5
5
5
5
5
5
5
5
5
5
5
5
5
5
5
5
5
5
5
5
5
5
5
5
5
5
5
5
5
5
5
5
5
5
5
5
5
5
5
5
5
5
5
5
5
5
5
5
5
5
5
5
5
5
5
5
5
5
5
5
5
5
5
5
5
5
5
5
5
5
5
5
5
5
5
5
5
5
5
5
5
5
5
5
5
5
5
5
5
5
5
5
5
5
5
5
5
5
5
5
5
5
5
5
5
5
5
5
5
5
5
5
5
5
5
5
5
5
5
5
5
5
5
5
5
5
5
5
5
5
5
5
5
5
5
5
5
5
5
5
5
5
5
5
5
5
5
5
5
5
5
5
5
5
5
5
5
5
5
5
5
5
5
5
5
5
5
5
5
5
5
5
5
5
5
5
5
5
5
5
5
5
5
5
5
5
5
5
5
5
5
5
5
5
5
5
5
5
5
5
5
5
5
5
5
5
5
5
5
5
5
5
5
5
5
5
5
5
5
5
5
5
5
5
5
5
5
5
5
5
5
5
5
5
5
5
5
5
5
5
5
5
5
5
5
5
5
5
5
5
5
5
5
5
5
5
5
5
5
5
5
5
5
5
5
5
5
5
5
5
5
5
5
5
5
5
5
5
5
5
5
5
5
5
5
5
5
5
5
5
5
5
5
5
5
5
5
5
5
5
5
5
5
5
5
5
5
5
5
5
5
5
5
5
5
5
5
5
5
5
5
5
5
5
5
5
5
5
5
5
5
5
5
5
5
5
5
5
5
5
5
5
5
5
5
5
5
5
5
5
5
5
5
5
5
5
5
5
5
5
5
5
5
5
5
5
5
5
5
5
5
5
5
5
5
5
5
5
5
5
5
5
5
5
5
5
5
5
5
5
5
5
5
5
5
5
5
5
5
5
5
5
5
5
5
5
5
5
5
5
5
5
5
5
5
5
5
5
5
5
5
5
5
5
5
5
5
5
5
5
5
5
5
5
5
5
5
5
5
5
5
5
5
5
5
5
5
5
5
5
5
5
5
5
5
5
5
5
5
5
5
5
5
5
5
5
5
5
5
5
5
5
5
5
5
5
5
5
5
5
5
5
5
5
5
5
5
5
5
5
5
5
5
5
5
5
5
5
5
5
5
5
5
5
5
5
5
5
5
5
5
5
5
5
5
5
5
5
5
5
5
5
5
5
5
5
5
5
5
5
5
5
5
5
5
5
5
5
5
5
5
5
5
5
5
5
5
5
5
5
5
5
5
5
5
5
5
5
5
5
5
5
5
5
5
5
5
5
5
5
5
5
5
5
5
5
5
5
5
5
5
5
5
5
5
5
5
5
5
5
5
5
5
5
5
5
5
5
5
5
5
5
5
5
5
5
5
5
5
5
5
5
5
5
5
5
5
5
5
5
5
5
5
5
5
5
5
5
5
5
5
5
5
5
5
5
5
5
5
5
5
5
5
5
5
5
5
5
5
5
5
5
5
5
5
5
5
5
5
5
5
5
5
5
5
5
5
5
5
5
5
5
5
5
5
5
5
5
5
5
5
5
5
5
5
5
5
5
5
5
5
5
5
5
5
5
5
5
5
5
5
5
5
5
5
5
5
5
5
5
5
5
5
5
5
5
5
5
5
5
5
5
5
5
5
5
5
5
5
5
5
5
5
5
5
5
5
5
5
5
5
5
5
5
5
5
5
5
5
5
5
5
5
5
5
5
5
5
5
5
5
5
5
5
5
5
5
5
5
5
5
5
5
5
5
5
5
5
5
5
5
5
5
5
5
5
5
5
5
5
5
5
5
5
5
5
5
5
5
5
5
5
5
5
5
5
5
5
5
5
5
5
5
5
5
5
5
5
5
5
5
5
5
5
5
5
5
5
10
10
10
10
10
10
10
10
10
10
10
10
10
10
10
10
10
10
10
10
10
10
10
10
10
10
10
10
10
10
10
10
10
10
10
10
10
10
10
10
10
10
10
10
10
10
10
10
10
10
10
10
10
10
10
10
10
10
10
10
10
10
10
10
10
10
10
10
10
10
10
10
10
10
10
10
10
10
10
10
10
10
10
10
10
10
10
10
10
10
10
10
10
10
10
10
10
10
10
10
10
10
10
10
10
10
10
10
10
10
10
10
10
10
10
10
10
10
10
10
10
10
10
10
10
10
10
10
10
10
10
10
10
10
10
10
10
10
10
10
10
10
10
10
10
10
10
10
10
10
10
10
10
10
10
10
10
10
10
10
10
10
10
10
10
10
10
10
10
10
10
10
10
10
10
10
10
10
10
10
10
10
10
10
10
10
10
10
10
10
10
10
10
10
10
10
10
10
10
10
10
10
10
10
10
10
10
10
10
10
10
10
10
10
10
10
10
10
10
10
10
10
10
10
10
10
10
10
10
10
10
10
10
10
10
10
10
10
10
10
10
10
10
10
10
10
10
10
10
10
10
10
10
10
10
10
10
10
10
10
10
10
10
10
10
10
10
10
10
10
10
10
10
10
10
10
10
10
10
10
10
10
10
10
10
10
10
10
10
10
10
10
10
10
10
10
10
10
10
10
10
10
10
10
10
10
10
10
10
10
10
10
10
10
10
10
10
10
10
10
10
10
10
10
10
10
10
10
10
10
10
10
10
10
10
10
10
10
10
10
10
10
10
10
10
10
10
10
10
10
10
10
10
10
10
10
10
10
10
10
10
10
10
10
10
10
10
10
10
10
10
10
10
10
10
10
10
10
10
10
10
10
10
10
10
10
10
10
10
10
10
10
10
10
10
10
10
10
10
10
10
10
10
10
10
10
10
10
10
10
10
10
10
10
10
10
10
10
10
10
10
10
10
10
10
10
10
10
10
10
10
10
10
10
10
10
10
10
10
10
10
10
10
10
10
10
10
10
10
10
10
10
10
10
10
10
10
10
10
10
10
10
10
10
10
10
10
10
10
10
10
10
10
10
10
10
10
10
10
10
10
10
10
10
10
10
10
10
10
10
10
10
10
10
10
10
10
10
10
10
10
10
10
10
10
10
10
10
10
10
10
10
10
10
10
10
10
10
10
10
10
10
10
10
10
10
10
10
10
10
10
10
10
10
10
10
10
10
10
10
10
10
10
10
10
10
10
10
10
10
10
10
10
10
10
10
10
10
10
10
10
10
10
10
10
10
10
10
10
10
10
10
10
10
10
10
10
10
10
10
10
10
10
10
10
10
10
10
10
10
10
10
10
10
10
10
10
10
10
10
10
10
10
10
10
10
10
10
10
10
10
10
10
10
10
10
10
10
10
10
10
10
10
10
10
10
10
10
10
10
10
10
10
10
10
10
10
10
10
10
10
10
10
10
10
10
10
10
10
10
10
10
10
10
10
10
10
10
10
10
10
10
10
10
10
10
10
10
10
10
10
10
10
10
10
10
10
10
10
10
10
10
10
10
10
10
10
10
10
10
10
10
10
10
10
10
10
10
10
10
10
10
10
10
10
10
10
10
10
10
10
10
10
10
10
10
10
10
10
10
10
10
10
10
10
10
10
10
10
10
10
10
10
10
10
10
10
10
10
10
10
10
10
10
10
10
10
10
10
10
10
10
10
10
10
10
10
10
10
10
10
10
10
10
10
10
10
10
10
10
10
10
10
10
10
10
10
10
10
10
10
10
10
10
10
10
10
10
10
10
10
10
10
10
10
10
10
10
10
10
10
10
10
10
10
10
10
10
10
10
10
10
10
10
10
10
10
10
10
10
10
10
10
10
10
10
10
10
10
10
10
10
10
10
10
10
10
10
10
10
10
10
10
10
10
10
10
10
10
10
10
10
10
10
10
10
10
10
10
10
10
10
10
10
10
10
10
10
10
10
10
10
10
10
10
10
10
10
10
10
10
10
10
10
10
10
10
10
10
10
10
10
10
10
10
10
10
10
10
10
10
10
10
10
10
10
10
10
10
10
10
10
10
10
10
10
10
10
10
10
10
10
10
10
10
10
10
10
10
10
10
10
10
10
10
10
10
10
10
10
10
10
10
10
10
10
10
10
10
10
10
10
10
10
10
10
10
10
10
10
10
10
10
10
10
10
10
10
10
10
10
10
10
10
10
10
10
10
10
10
10
10
10
10
10
10
10
10
10
10
10
10
10
10
10
10
10
10
10
10
10
10
10
10
10
10
10
10
10
10
10
10
10
10
10
10
10
10
10
10
10
10
10
10
10
10
10
10
10
10
10
10
10
10
10
10
10
10
10
10
10
10
10
10
10
10
10
10
10
10
10
10
10
10
10
10
10
10
10
10
10
10
10
10
10
10
10
10
10
10
10
10
10
10
10
10
10
10
10
10
10
10
10
10
10
10
10
10
10
10
10
10
10
10
10
10
10
10
10
10
10
10
10
10
10
10
10
10
10
10
10
10
10
10
10
10
10
10
10
10
10
10
10
10
10
10
10
10
10
10
10
10
10
10
10
10
10
10
10
10
10
10
10
10
10
10
10
10
10
10
10
10
10
10
10
10
10
10
10
10
10
10
10
10
10
10
10
10
10
10
10
10
10
10
10
10
10
10
10
10
10
10
10
10
10
10
10
10
10
10
10
10
10
10
10
10
10
10
10
10
10
10
10
10
10
10
10
10
10
10
10
10
10
10
10
10
10
10
10
10
10
10
10
10
10
10
10
10
10
10
10
10
10
10
10
10
10
10
10
10
10
10
10
10
10
10
10
10
10
10
10
10
10
10
10
10
10
10
10
10
10
10
10
10
10
10
10
10
10
10
10
10
10
10
10
10
10
10
10
10
10
10
10
10
10
10
10
10
10
10
10
10
10
10
10
10
10
10
10
10
10
10
10
10
10
10
10
10
10
10
10
10
10
10
10
10
10
10
10
10
10
10
10
10
10
10
10
10
10
10
10
10
10
10
10
10
10
10
10
10
10
10
10
10
10
10
10
10
10
10
10
10
10
10
10
10
10
10
10
10
10
10
10
10
10
10
10
10
10
10
10
10
10
10
10
10
10
10
10
10
10
10
10
10
10
10
10
10
10
10
10
10
10
10
10
10
10
10
10
10
10
10
10
10
10
10
10
10
10
10
10
10
10
10
10
10
10
10
10
10
10
10
10
10
10
10
10
10
10
10
10
10
10
10
10
10
10
10
10
10
10
10
10
10
10
10
10
10
10
10
10
10
10
10
10
10
10
10
10
10
10
10
10
10
10
10
10
10
10
10
10
10
10
10
10
10
10
10
10
10
10
10
10
10
10
10
10
10
10
10
10
10
10
10
10
10
10
10
10
10
10
10
10
10
10
10
10
10
10
10
10
10
10
10
10
10
10
10
10
10
10
10
10
10
10
10
10
10
10
10
10
10
10
10
10
10
10
10
10
10
10
10
10
10
10
10
10
10
10
10
10
10
10
10
10
10
10
10
10
10
10
10
10
10
10
10
10
10
10
10
10
10
10
10
10
10
10
10
10
10
10
10
10
10
10
10
10
10
10
10
10
10
10
10
10
10
10
10
10
10
10
10
10
10
10
10
10
10
10
10
10
10
10
10
10
10
10
10
10
10
10
10
10
10
10
10
10
10
10
10
10
10
10
10
10
10
10
10
10
10
10
10
10
10
10
10
10
10
10
10
10
10
10
10
10
10
10
10
10
10
10
10
10
10
10
10
10
10
10
10
10
10
10
10
10
10
10
10
10
10
10
10
10
10
10
10
10
10
10
10
10
10
10
10
10
10
10
10
10
10
10
10
10
10
10
10
10
10
10
10
10
10
10
10
10
10
10
10
10
10
10
10
10
10
10
10
10
10
10
10
10
10
10
10
10
10
10
10
10
10
10
10
10
10
10
10
10
10
10
10
10
10
10
10
10
10
10
10
10
10
10
10
10
10
10
10
10
10
10
10
10
10
10
10
10
10
10
10
10
10
10
10
10
10
10
10
10
10
10
10
10
10
10
10
10
10
10
10
10
10
10
10
10
10
10
10
10
10
10
10
10
10
10
10
10
10
10
10
10
10
10
10
10
10
10
10
10
10
10
10
10
10
10
