# vtk DataFile Version 2.0
whisker_body, Created by Gmsh 4.13.1 
ASCII
DATASET UNSTRUCTURED_GRID
POINTS 583 double
8.5 0 0
5.35193172701526 0 40
12 0 0
5.70386345403052 0 80
8.213811975183205 0 3.636363636363637
7.927623950366411 0 7.272727272727273
7.641435925549616 0 10.90909090909091
7.355247900732822 0 14.54545454545455
7.069059875916027 0 18.18181818181818
6.782871851099232 0 21.81818181818182
6.496683826282438 0 25.45454545454545
6.210495801465644 0 29.09090909090909
5.924307776648849 0 32.72727272727273
5.638119751832054 0 36.36363636363637
7.65823537717056 3.68801178249925 0
5.299663315799225 6.645567600978262 0
1.891427938628656 8.286887253545505 0
-1.89142793862869 8.286887253545498 0
-5.299663315799259 6.645567600978236 0
-7.658235377170581 3.688011782499204 0
-8.5 -5.935518276033327e-14 0
-7.658235377170531 -3.688011782499311 0
-5.299663315799171 -6.645567600978304 0
-1.891427938628608 -8.286887253545515 0
1.891427938628715 -8.28688725354549 0
5.299663315799263 -6.645567600978231 0
7.658235377170568 -3.688011782499232 0
4.099817559432193 3.440155402013695 40
0.9293531913940172 5.270623858356646 40
-2.675965863507643 4.63490883491513 40
-5.029170750826226 1.830468456342945 40
-5.029170750826219 -1.830468456342964 40
-2.675965863507616 -4.634908834915147 40
0.9293531913940392 -5.270623858356642 40
4.099817559432201 -3.440155402013686 40
11.34980690040761 3.896393630456207 0
9.469686112756717 7.370552552276022 0
6.563377897469113 10.04599773915035 0
2.945825845689581 11.63280319127197 0
-0.9909521456679979 11.95901391608004 0
-4.820345095835646 10.98927991986068 0
-8.127378859508902 8.82868692807757 0
-10.55368501447787 5.71136871644487 0
-11.83633564083267 1.975135083368787 0
-11.83633564083267 -1.975135083368821 0
-10.55368501447786 -5.711368716444897 0
-8.12737885950888 -8.828686928077589 0
-4.820345095835619 -10.9892799198607 0
-0.9909521456679715 -11.95901391608004 0
2.945825845689616 -11.63280319127196 0
6.563377897469155 -10.04599773915032 0
9.469686112756747 -7.370552552275983 0
11.34980690040762 -3.896393630456205 0
4.369412903269498 3.666372755594688 80
0.9904654944534007 5.617208951652248 80
-2.851931727015263 4.939690650908082 80
-5.359878397722907 1.950836196057551 80
-5.359878397722898 -1.950836196057576 80
-2.851931727015253 -4.939690650908087 80
0.9904654944534206 -5.617208951652245 80
4.369412903269518 -3.666372755594664 80
11.70018397400145 0 3.80952380952381
11.40036794800291 0 7.61904761904762
11.10055192200436 0 11.42857142857143
10.80073589600581 0 15.23809523809524
10.50091987000727 0 19.04761904761905
10.20110384400872 0 22.85714285714286
9.901287818010173 0 26.66666666666667
9.601471792011626 0 30.47619047619048
9.301655766013079 0 34.28571428571429
9.001839740014532 0 38.0952380952381
8.702023714015986 0 41.90476190476191
8.402207688017439 0 45.71428571428572
8.102391662018892 0 49.52380952380953
7.802575636020347 0 53.33333333333334
7.502759610021799 0 57.14285714285715
7.202943584023253 0 60.95238095238096
6.903127558024707 0 64.76190476190476
6.603311532026159 0 68.57142857142858
6.303495506027613 0 72.38095238095238
6.003679480029065 0 76.1904761904762
-8.0355443295201 1.834060556385684 3.275744402997529
5.893224003941713 3.068874105546902 23.57760857533271
5.691235636077772 -3.378020153381375 23.90994860603345
6.826085821029517 -3.112922734743107 12.67593862879667
6.772418328628629 3.249418450000423 12.55861339505204
-5.597412253140874 -9.257516238877843e-15 36.88087417630406
5.128190061518383 -3.263010790516746 30.77078132434026
5.250477009839671 3.050784051381142 30.84479753461916
-3.576153658104285 -7.425959588484147 3.275744402997632
-0.04880778122865036 8.219470769950515 3.562620566480265
3.576153658104386 -7.425959588484109 3.275744402997495
-0.9790555792616402 -5.502999861859909 36.98249202107892
-1.048608452186873 5.493319600162454 36.94319522611848
7.1474421492322 3.973071371082397 4.097969222947263
7.479577428374363 -3.03643396262544 5.432883558252243
6.849343934384437 3.847417888438009 8.183280469607844
4.792948562015518 5.958803405948164 10.83582970841972
4.784785447655191 5.584051086302984 14.56607746403865
1.935659899821348 7.239652699230123 12.78302314446834
1.921884153603261 6.943077296297487 16.46517330295348
-1.25846952524477 7.242735551223439 14.59617728881623
-1.308292316771096 6.939071746986092 18.28006784281851
-4.230758609921497 5.849595092771827 16.27390239784534
-4.249181064643648 5.471792742127943 19.97518867623567
-4.219214805900757 6.210970329356231 12.5979026720856
-6.394573188402928 3.68925788997437 14.19928379819322
-1.360025462766893 6.633062265863123 21.96833058392625
-4.262887166648668 5.089571801446569 23.64660383955213
-6.22087615290117 2.759930038492839 21.52909218555814
-6.100017495517534 2.293671923474391 25.19654501566355
-4.279803943269465 4.692542795787873 27.30415481898254
-6.66528693680733 -0.5929722352741903 22.97775304735086
-6.310901548148343 -1.099966895316073 26.60622790112619
-5.390798044493247 -3.789790569530938 24.27355949501423
-5.978043165091742 -3.392689060445031 20.66448206350306
-4.732964623628998 -4.168212688747447 27.86802901448976
-3.499553897413372 -5.807306085174265 21.85159736719753
-4.308512435489457 -5.595397004624856 18.27160963210704
-1.039099587523407 -6.899846513865353 19.34328136089058
-2.02282280278 -6.965980119371912 15.83528102241797
-5.0729093579893 -5.312075752289807 14.67261049864911
-3.15538701655433 -6.850466474163364 12.16951661601894
-5.830528720483485 -4.9262289010862 11.01619015979552
-6.455376330639589 4.147411902908882 10.50970380206721
1.285796383318493 -7.103053583138994 16.28308912182604
-4.160397702225369 6.596673893185131 8.906548951831846
-5.90733679923522 -1.605392264401324 30.22051432756176
0.7365369478418476 -6.678507970059642 22.62975594748357
-4.011068997720154 -4.495511062036327 31.45031447536109
-1.557320212389724 -6.026083765236067 28.91855051664497
2.000984847110406 7.518574057378759 9.144795895711871
4.544458741911347 5.412051518391721 18.20806519815109
-7.031942191492835 -2.439436713445422 13.4297640628212
-7.486937758348049 -1.924874610736547 9.778452638522111
-6.444114165466815 -4.599572276891606 7.404681280553512
-6.506929881755738 4.591810024166921 6.810876911538811
4.263736576939128 6.984656163321847 4.025240977247043
-0.6423431201454857 -5.91957288437929 32.3459087008797
-3.702365423862961 7.195071433973895 5.187194546026843
2.265301446984169 -5.713344717079543 29.90980382076367
-8.014257385685459 -0.4480609364246795 6.012922905698249
2.690101611606266 -5.217364977146303 33.41662147371821
4.410781270181467 -4.564574890181785 27.35052697575278
1.170867199736134 -6.319872232837761 26.33463848148572
-6.873304777910276 -4.4888933420366 3.693790053708356
1.753517026230726 6.691132634670996 20.11283013100234
1.525137417878578 6.451920176293761 23.76403522636606
-1.456492999626251 6.316341756661845 25.63992440243976
-1.493861744521003 6.013853942042079 29.26725608299767
-4.287576571112811 4.287705148597757 30.95689080994487
-1.361558427892181 5.746565981980197 32.96417011832305
-4.26796907211258 3.892404511761113 34.60708563603427
1.880878774981676 5.473501289134256 34.46364279601479
1.359521057372756 6.195630658805827 27.40679507478013
-6.300630327369434 3.258579173291853 17.87258592337877
-6.981813911693145 -0.04718478436150077 19.28835737231029
6.172466794554632 -3.134122460472925 20.04306179043673
3.881247968878357 -5.584730604166519 21.5881214201147
6.49934218595675 -3.123086143175739 16.38129794003476
4.709033547531612 -5.665278397904586 14.39812441688716
5.143617753010625 -5.675500168736951 10.67942780472165
2.399308391850417 -7.151052309525869 12.16204390464977
2.857794231533607 -7.249072879205345 8.995355787837507
-5.299158493746521 -2.456684838844172 33.786777154855
4.756657825829138 3.294230146056679 34.48469463456549
5.606624807796157 2.998778939012661 27.21393985181068
7.157265679496101 -3.058137507099996 9.107436338225165
-2.207014437692068 -6.119738222317273 25.34196050965358
-1.224586566301609 7.538522687311821 10.96115596460931
-3.797919977565011 -6.839420580502889 8.600037040601823
-4.30191763144776 -3.572480151191967 36.95118197358198
-5.85395450469425 0.9916406386050233 32.56154542690921
-6.527174208180842 -2.937220657918903 17.05678209740979
2.621216631186324 -4.939321808241892 36.95281027746583
-0.9346399217087736 7.87461565364321 7.243959968152835
-7.491680395905411 0.9466495501571505 12.05497475625566
-7.253393785185215 0.4280569592641479 15.67928337843484
-5.99142896169275 1.709963678081896 28.83462447864613
5.007504797015102 -6.214286497878339 6.597624840221141
-7.647371067033605 1.677338286427063 8.523829039465516
4.543440557565622 -5.415056782007402 18.18713469384696
-6.603685355557649 4.944328996676616 3.182288768068351
1.37640739025226 5.906206220581193 30.9463712705345
0.0695554740491592 -8.249209181996854 3.182873603067807
6.52595032109642 3.076783882887796 16.32888050451604
4.755454805340394 6.328473622549948 7.419723092324033
4.888188092784696 -3.096729620473822 34.47769925263945
6.324561295565856 -5.314034145787349 3.040694777877794
-0.2931795124262205 -7.742133738162286 9.559096142866872
-1.767176208280905 -7.820738342635678 6.125550716897338
6.228175961775003 3.014188076278539 20.08580599269623
4.234926004344102 5.310826285466086 21.69451846912087
2.774056284964363 4.804806428614059 37.50728604462601
1.957330004914805 7.778982906719064 6.080510154450042
4.14818200978646 5.014953936848151 25.30772100753656
-8.158097517301266 -1.36624361293623 2.900706862054067
-4.239401932015395 3.557280597566352 37.68474579778778
3.644001894667363 -5.458289213731833 24.6131751201385
1.983784729735029 -6.654900718045132 19.76722299996337
-2.693847410589488 -5.135657400863312 34.31574537437913
1.562987633136369 -7.882517289471963 5.895905767729408
-4.779632437639902 -6.464464620075488 5.850710371427178
3.96056922373865 4.807323431414712 28.85984408166368
4.896929206963359 2.632244917189901 37.36192228091397
4.901022411451583 -2.622832136586518 37.37261895049688
-3.609111897904532 7.494398078622497 2.310568470162527
5.967170455429367 -2.188926724200998 27.24231540966744
7.865086238984262 -2.62394696557949 2.652533135016601
-0.3685208972562764 -7.43321154006772 13.43883018096442
3.631543022238706 4.721549678529693 32.31690510019578
8.011594651364883 2.259680146007176 2.234134244631724
6.019907141347495 5.727601369672521 2.422895134805328
7.657709622457368 2.37198557093426 6.141421233030929
-7.673739917720233 2.392874309579732 5.868142228363496
0.5169885263896039 -5.739560709819417 34.77945619386286
1.690467539930871 -0.7791580467363083 40
-1.522440271764341 1.068185577834727 40
1.312193980416726 2.272452604397315 40
-1.261016742038563 -2.184431385609068 40
-7.909740641739153 6.21840875699997 0
-7.909740641739112 -6.218408757000027 0
4.175073749396644 9.15281394623652 0
4.175073749396687 -9.152813946236499 0
7.913893359863064 -3.245913943253347 43.78948121158254
9.193385683973643 -3.261669051937548 28.5275134817048
9.193385683973851 3.261669051936942 28.52751348170485
6.652617504236985 3.141241379777952 58.99554065229922
8.237262867764462 3.251401695295756 39.95162451164516
6.28168907922707 -3.217624949421028 62.79643657168234
-11.73128066296225 0.3658206351548721 3.341947424554161
-2.994492805538506 11.34508140865445 3.38466743266196
-2.879762434608137 -11.37192468062312 3.419408766471416
10.11646334979564 3.345788239617946 17.08501301298051
10.13994097335968 -3.269426385055376 17.10264947107312
-4.859360121525458 3.468038509654455 76.61865730217922
5.986966559112645 3.136159376705845 66.59774666370318
8.557207529299856 -3.25516565974323 36.14368486009381
5.61044116807096 -3.199497478681198 70.40984790038134
7.615447117221959 3.189694300003133 47.56614505689132
6.749975432508553 -3.630407535854907 55.08985028776149
10.33344225458509 -4.368711996773343 9.923708795559914
10.72924455023717 3.394787911756593 9.485175436666081
4.718238164040466 10.73561669153541 3.472744321307459
4.712243512000845 -10.74283313214679 3.419408766471715
-9.296268222620112 7.167457475359555 3.322311395245336
-9.257317901175359 -7.205259738421862 3.419408766471709
-4.722384685810231 -3.625614612545042 76.82610752708068
5.333912793146073 3.081567611235157 74.20311703908095
2.98274313054798 -5.166262648036096 76.67576704977438
10.11001643510303 -5.951236539755725 3.410773106832593
10.31700692552852 5.583284939902489 3.419408766471419
8.224603312786346 -3.26983533697319 40.01490958956582
8.576036544614709 3.204897166193261 36.14516673573713
8.887766519822764 3.228866409415029 32.32321695041099
7.410585290524829 6.122034762716206 30.33875528304161
6.586333022582346 -5.688889739330885 41.89159771829348
6.68820100219974 6.052552926309881 37.86094766485592
7.742597267633418 6.18905023901314 26.52772808920192
5.086946442228831 8.348194446680587 28.25912012127211
5.459654410362814 8.469639526293275 24.43611791152451
2.206695425183308 9.69916484578844 26.08552254940676
2.630155761199849 9.904236186407298 22.26740215358921
-0.8868602167735242 10.08532491749693 23.8337503359025
-1.308389073783467 9.736473727414245 27.64881363393975
-4.290920840617217 9.041619840686549 25.30896525825146
-4.697516866030663 8.497368974083324 29.10516246119266
-3.910546589958584 9.537080062312905 21.50296207870004
-6.892209923722413 7.516466808412511 22.89619038283309
-6.603526958176867 8.159946500521816 19.09483161848573
-8.913668742900441 5.345737635635566 20.40911992605664
-9.012107480335793 4.550419885740737 24.19564292048013
-10.12508596779599 1.878569283156958 21.62745071128618
-9.954917523043539 0.9702675863331377 25.38585495799854
-10.04605238809166 -1.823602752122734 22.74124694003984
-9.535617037955452 -2.723323714724678 26.4685649598273
-8.646924630144529 -5.278934265062245 23.74834092821211
-7.80209654770794 -5.996178660607893 27.44458287005535
-6.08094243643364 -8.014567475753418 24.64526756328501
-4.940947790061752 -8.431406489366868 28.30318533547853
-6.861225853368057 -6.643549676275252 31.12310196193313
-7.139278980816806 -7.49254563352149 20.97441825366862
-10.46268054109761 -0.9387340881937626 18.99947684068381
-3.53411787887224 10.00246004648367 17.68132832697252
-3.94527809739612 -9.498011764479655 21.79347499337701
-5.167652451113747 -9.223293224981894 18.14050279123036
-3.728744358894307 -8.722397581015896 31.94369469276258
-5.826296152080142 -7.200505397057791 34.78385374993156
-8.241921820373058 -4.379961193710156 33.88169862226466
-7.459340443229367 -5.112612881995013 37.56893051286348
-8.958943879100287 -1.710836583444428 36.58325567761882
-8.44271429166106 -2.582119074280889 40.29459713135989
-8.849031509267952 1.070299020100429 39.21740413320644
-8.617229372062209 0.1936188474746703 42.95454122565192
-7.84881715280161 3.779412329407767 41.78606371218864
-7.883275539180045 2.945653307677226 45.54367993095197
-8.295671475889934 -0.7088624289101382 46.68383601748943
-7.848582615437567 2.083565242172936 49.2945248014052
-7.871607973703336 -1.60264549583239 50.40425221447966
-7.732958398291283 1.20048135113565 53.040955023904
-7.323444861593991 -2.508430849609113 54.11409362245259
-7.526587044807004 0.2647435901841135 56.78095773474531
-6.2310632070273 -4.947699452321611 51.37754978153011
-6.434155195721141 4.620049426444385 51.82783209964787
-8.76965083544601 6.117323544611869 16.61403595664122
-5.25742739978446 -5.581487911274762 55.04715136430292
-5.992555912644155 6.049653226694621 44.27828421011857
-1.561069956064583 -10.39704256125759 18.88671514170989
-0.2196935096799385 -10.22650469825057 22.50441361864969
-5.729857203880819 6.695954222181959 40.49604595780226
-6.557061005639726 -5.799465541111054 41.24700145206562
5.953549333319203 -5.94102391375335 45.60589699030385
-2.883730968650453 -10.40760402821665 15.25090116299588
-6.333876196726998 -8.823617680683149 14.46482413698799
0.9175868314644764 -10.7072401421413 15.9274080618532
-3.178392574036632 -7.224004512353291 52.19326008167316
-1.8933003460804 -7.367312572188256 55.8221727361889
-4.16400837815129 -6.093652052127174 58.69650141740431
-3.04871517656711 8.067723467956929 42.88918567789707
-1.781179294387158 9.356255322149064 31.45686923712754
-2.45248862400848 -8.867967134811307 35.56664146154154
-0.01918543956834047 -9.43055347078324 32.64766569311364
-9.000117045228121 1.945347404130748 35.47626223734375
3.491901831095213 -7.86352495119228 43.15057619792356
-0.4359146808708436 -11.02267694552484 12.30858751177867
3.35461939575228 -10.45849732611466 12.91795948692068
4.605305552761977 -9.659922042801862 16.49851360019455
6.324133341199129 6.004780431494609 41.66640664528849
-2.693188489371694 8.506986918286282 39.09545289446297
-5.431478902031383 7.314280848637916 36.71565448169004
-4.434173675192789 -6.870396347519863 48.57511123596912
-0.5386359222491828 -7.303605643537937 59.4213196086008
-2.920316808545599 -6.466000142293761 62.32538206720927
-3.422345419778378 7.589980122376428 46.68414486250546
1.325837025255947 -9.05253624458406 36.22396251895316
3.68798310156968 -8.629740352153272 33.22983062494363
2.416102336556798 -9.356913092786304 29.6840102183764
0.5023755148684362 -7.820782657829989 52.89718397079524
4.708974893598946 8.222658972297435 32.07583169703594
5.839224704256721 8.580166071030574 20.6015606180429
0.005424565164569543 8.442719947920711 45.19950650279145
-0.4105988687255331 8.132980626056048 49.00352798859429
6.72795504025833 -8.630478284144836 13.42971213090384
-5.882086219335932 -4.082875467024121 61.49518239014504
-4.950412380381947 -4.76456605697332 65.17286893493815
-6.781041906457409 -1.503361225358711 64.22108418229843
-6.212007522612815 -2.382011811676975 67.93949543420082
-6.608540785001325 1.311875332815569 66.86647602501787
-3.78859074047539 -5.394541898420271 68.71511850111051
-6.700062864425609 2.142153037362991 63.09674931105766
-5.06174924270449 4.59402802553156 65.61902078559808
-4.769974458208361 5.304048113993391 61.83584927530294
-2.075751250840448 6.627465556320238 64.23076329420803
-2.478789186291978 6.165846677196002 68.03595563186684
-1.657656548521984 7.052380569178874 60.42337735373313
-1.127064595000917 -8.845915084115195 39.16781506803967
-9.074459176632292 3.697607001875685 27.96784400171379
3.031473787612909 10.10535650960644 18.4206466196157
6.214167172131771 8.68701026410689 16.76170864921733
3.435205070646822 10.29347058710379 14.59242139068507
6.588884869589507 8.788146426433146 12.91143272331685
3.835418926776172 10.47328610907618 10.75603128167054
0.3617966827999997 11.02145470757731 12.35816421749776
6.89347186624142 8.928307377681724 9.150592447847609
-6.429671525896054 0.3977892632139073 70.62153146172086
1.358332530254016 6.936142214669609 62.66833918772353
-4.488086265530751 5.92402322708659 58.0399382318063
-1.216354109171996 7.445276631047403 56.61907952953928
5.745224396011083 -9.640289205381146 9.880051805529927
3.864887577786523 8.0046505797274 39.53081411364172
3.013524488439732 -7.715611237606938 47.2259735587086
5.406115962832635 -6.045961418170158 49.42115224640713
0.942746345636029 11.28050814397504 8.642332451671976
-2.769055244049216 10.86279098353403 10.0357510560999
0.787496417341032 -6.996837199919389 63.00988845715089
-0.02018055812655542 -8.448269381746062 45.12871014782433
2.990831440052891 7.70932169014838 47.40504235598615
2.652406906242456 7.513734316312491 51.22947062364623
4.362349881615597 -7.997700073111103 36.7200927818467
5.8219785064814 -7.66322309522175 30.19057226144905
4.704916542255785 -8.711556909502999 26.671823664254
2.57872123714621 -6.801516525583703 60.05008756752957
8.07867237061779 -6.968169676195268 16.91626091994338
5.983485196866583 -8.53793837031537 20.00138779273294
8.509609223370754 -5.967447727299664 20.41310516772688
8.467166579655963 -7.346024957502112 10.0419298332542
7.659657476544917 -8.531528279886873 6.79166746211288
9.271377867456145 -5.766591768376965 13.74269959509314
-0.7595385117225937 -8.116519736358878 48.89371945822921
6.918174463998258 -7.422475686356035 23.54918417043955
8.909560712800658 -4.873113386906452 23.44076988639879
8.800977790831187 6.294188000835304 14.99237469517677
-2.243942831238456 8.94532280510238 35.29177761835788
-5.074083428193226 7.922160884197793 32.93685180218679
2.640833211110905 -8.466995775059509 39.77964823885651
2.46534641931117 -10.16972150249574 19.51316515621503
8.420879580324957 6.299048520869878 18.85421405294034
-0.8646394755394069 7.796505839982922 52.80312460943377
8.105706571229234 6.215646467874909 22.6864746551564
1.850181386716143 -7.326631028254306 56.45833830984077
4.102343598034314 -6.633446638232793 53.37270863770748
1.089848996102508 -9.884536057112332 26.1184064652063
-6.234333962710052 5.354855134728568 48.05032888830674
0.3007627556171227 8.735953853403201 41.40787358077701
3.376350816908443 7.876096915370884 43.59136566317127
1.833453399617936 7.128569485776686 58.9494925812544
2.19221519381282 7.345882581927788 55.06849047108347
5.24001304569749 5.7836447657794 53.31045856046779
3.639666413659991 -9.510729532850602 23.0823957911423
-8.934308244782542 -3.578832297408431 30.18431270307607
1.304405244999818 9.249774176845994 33.78204796236609
7.937387184503961 3.194011313031477 43.76114362604049
8.882697477734318 -3.226248884261449 32.39511024017794
7.008519245952842 -3.745247745127884 51.50511221496831
9.503663357957901 3.283552170839698 24.71463786267745
6.625926378208643 -3.1840791342087 59.06763763196672
0.8829027944350815 6.710377561410948 66.47617820873648
0.431133431678596 6.454428526126086 70.28041212838737
-2.997312400818579 5.600759043947748 71.76016420039501
0.1838073914228461 6.159271749533553 74.17864834713284
6.338459435609988 3.107601956751528 62.77795841995177
9.088375742478499 6.411275622456751 11.1536802201775
9.231201770540588 6.782410114513332 6.925354063184419
-7.773312153997236 4.543482029864095 38.0708976827774
10.44784547031242 3.293041440964305 13.28403161741805
7.631067776880936 -6.255314063448836 27.0994627699125
-7.168282884737469 6.827806794311156 26.68737763767962
5.963642096369647 -3.164950886875121 66.68927878045604
3.691677034972834 -5.493009064323476 68.38123830984426
3.113978555165671 -5.497625655697016 72.19300895411979
-0.02633266120821582 -6.513387885770509 69.7133404889365
-0.5810098435035775 -6.178972277285342 73.61684825812512
5.319749846458178 -3.095012034974712 74.27312088979566
-3.811064397982776 7.06556505070766 50.47091496960262
-4.164155706621239 6.512316215244975 54.25750353688656
-6.596384034129962 3.822482073405385 55.60378894455845
5.693634032963431 3.052618515126128 70.3880980036112
-10.22896550436032 2.758454817968946 17.86014306221474
-10.80074244130824 -0.01531153301384451 15.2378741705202
-10.06503878547823 -3.685960609992116 16.27999681716888
-10.6491465992536 -2.80876907952042 12.53679102466188
-11.0641109924014 0.8719181008416019 11.4557363540112
-11.11270354223656 -2.072281710078286 8.840081486884586
-9.82156984679485 -5.446448646847119 9.77578013640866
-11.32064881380241 1.556846575418544 7.278135763875532
-10.26648149236697 4.45861199444276 10.25582903003893
-9.38846346612636 -4.53380496573262 20.00129821335716
-10.29762823458689 3.548848337906223 14.07858696422299
-0.460235383658856 10.41421297193212 20.02018074904344
-7.819732309249829 -3.425602324579747 43.99965535806349
-5.696900670493325 -6.263610770775125 44.8929661207034
-7.084013939019176 -4.222061794711289 47.68942909318614
-4.697788189754965 -7.647881229482233 38.43012791739862
-2.718238359574902 -8.251176980408554 42.09070355542386
6.78744491564601 -6.429271502004231 33.68337439220053
-0.06004605662557474 10.72385994892513 16.2127607656608
-9.004342372706175 -6.207684178209591 13.50927743264542
-7.513420611165385 -8.25796046044578 10.61640962919094
-1.369060397286748 -9.613157969474122 29.09522473264869
-6.651809962343219 3.067899348441822 59.39894235598222
9.821072329952019 3.281096893946552 20.90598099357321
-9.36943501382282 -0.8701717161322687 32.91216834298179
-9.076641492082407 2.819058991576002 31.71034315666494
-8.104615918409623 -6.899905751838536 17.23035221169818
-6.641046220731655 -3.367077014091788 57.86594497657134
-7.203512125109337 -0.6646308732391273 60.5563972379355
-1.662070711830059 -6.603408752100234 65.9532388369053
1.752382367226666 9.485492271227269 29.91034562645465
-3.157323061909697 10.44190585635027 13.86491195816401
-6.009948753130162 9.325705659630968 11.50527379848959
-5.250083177299315 10.14111430754039 7.375622209881175
-6.335717907702814 8.740878643068092 15.3037640458004
-7.425256819183216 6.087275952800467 30.47545814177369
-7.63028131221509 5.318766265156641 34.29277167502997
-10.55763586080062 -4.615094799613457 6.070097129462571
2.978756127275285 5.159356955797906 76.77708640950702
7.04940219756367 6.090501955695967 34.10316066986687
-5.958054216420107 -0.1052451890827927 76.75839007294908
-5.780372976734945 -2.304957689197631 73.40393597779526
-2.687285818774689 -9.632942673919477 25.40282323704661
-4.211109395455421 -10.25347804994265 11.63189182516557
-1.840376645269258 -11.16670136081143 8.674006047561319
2.012728179357728 -11.08897597571682 9.273520992574589
0.9485457447817838 -11.51638797706085 5.649364507073459
-5.490683101014389 -10.0807021802889 6.619536193627482
-9.707909409386721 0.03246830296225262 29.12308243096657
5.596339051000432 5.857498331276819 49.53906392558852
3.866547902226375 -5.779363651182639 64.12179400331915
4.269271966756834 8.128583465867429 35.81201593650815
-8.648214188902566 6.777984115805781 12.86068358503038
8.032292777286417 8.550945690940361 3.407117329609986
7.544842141138526 -3.345370312515295 47.60696497449707
0.7022698793961919 11.71144705371016 3.39911617162844
-8.31269593119006 -7.876926255523499 6.96378968682377
-11.06366472285659 3.915923134359469 3.351495875172704
-6.529151241275238 9.752766280182454 3.347633604596195
0.7674599032527765 9.010304988669798 37.57313142462013
-5.31997683107099 3.802126998752928 69.38877624336268
-5.179735710733384 3.504551905129117 73.0108377008205
-10.01936709019048 5.596524002261212 6.65239261535927
-8.276419539642349 7.662527922103603 9.162517830756506
5.964749372808124 5.942336182059092 45.49334808991183
7.300514453267034 3.162118161433833 51.3850366125974
4.349777932842245 10.58154350099322 7.106572291166607
6.963136141158261 3.152403177525565 55.35473182185174
7.867106895594184 -8.729613433879312 3.157616564810868
-6.450569289439373 -9.821091579612066 3.175911023579762
4.519590661385685 5.625406317422444 60.78539176033016
11.08065882448961 -3.189415299241905 5.965045374239724
11.09987319675308 3.128692215598836 5.941614034472197
4.894895652288723 5.70239506623734 56.98556313691387
4.951543205236643 -5.651153866776831 57.0058481777624
4.181743243731966 5.520120200017203 64.48116474518233
3.763152947067699 5.443188697413346 68.39276271815594
-1.028912770623078 -5.835254290007242 77.18673141795152
9.943995216555424 -2.883158453922455 20.92034804807133
3.332308441598027 5.366550985591452 72.20970342847276
4.35518770018965 -10.60147140503684 6.846241459962802
9.764127095035445 -5.917127986366482 7.40621908121741
-11.17102799265548 -3.708616614122689 2.915516237776629
-1.368214014989726 11.39585868820341 6.636446558904068
-1.026372295734968 5.820846540961 77.37262334316128
-3.654681273777257 -5.015875896889105 73.61844991774463
6.952299412409076 -5.738972056320784 37.92799126908503
2.741000527487458 -7.543666084229788 50.491840833919
10.54625822188219 -2.937568507507081 13.37031217476109
0.3515131432113561 -8.688220608726155 41.98983185172869
0.9746345422669047 -11.76208972856607 2.510734475215751
-2.976152980702794 -7.835635800163439 45.9735113624431
-7.958434417127364 8.328772364485289 6.101886020616718
7.937063077022101 -5.41455821477414 30.39274782395696
1.466597763299599 -6.634462336854464 66.14049445893875
5.233287610856198 2.768252807570017 77.24930047901637
5.248593974836205 -2.731991800645705 77.29116814885538
-2.702429824911079 5.501825372352645 74.589246829328
-5.428112774614064 -3.463572621225097 70.6591822428832
11.42161303753389 -2.865258955235403 2.85224460448703
11.43396464721201 2.820216538592482 2.83810148489461
6.919074889860954 9.206468571664606 6.141856472646364
-11.40732724006851 -1.765485634071055 5.80497143133166
5.142843697352604 -7.245023608566302 39.58269981809052
-2.363526614569319 -5.94378075092928 71.19963993677224
5.095135256046669 -5.118540731780238 60.70797798326101
-6.153075377091734 0.7079345192994866 73.77645896943076
9.611005849926078 -2.619339105583233 25.90103167099565
1.942178575185269 11.36481392033485 5.977342051259296
1.861466232561885 -0.6775183007441694 80
-1.796581528936375 0.6539021999652996 80
1.425965863507625 2.469845325454036 80
-0.4952327472266952 -2.808604475826126 80
-0.0280667925472855 0.01109242328580562 48.02223149960933
0.03825526738285134 0.01140651031334894 55.62605714244634
0.01070317516897834 0.03572550036169986 62.92871740785684
0.01402492938118654 -0.001733722707145446 69.44587862245308
0.8318827254978354 -0.1826868042583917 74.75151890558408
-3.761692948848161 0.1600278984394063 44.6072886734633
3.176086865484355 -1.879696378098705 44.66887364397498
-3.249928424103818 -0.6495981261655117 51.96004613059345
1.675797832255077 2.699047381406874 51.80946109292079
1.295841418939938 3.725792102389946 45.1295243240712
-1.306282701145158 -3.792041096523591 44.37226128118108
-2.428139947181738 -1.727160955194217 59.27396401882365
1.133713890044609 -2.973347783999917 51.81442356197405
2.879669168865825 0.4333457493581876 59.28679494642621
-1.123957612894148 2.669613638371907 59.17918225366325
-2.922186837916893 2.918108642775783 49.48442019387407
2.835121689258282 0.2166251127662426 66.18700669944593
-2.758246355696812 -0.4966150953131885 66.18575805299936
1.492775729939865 -3.318447171056505 57.83829827388693
-3.133449893755969 -2.848256382583499 48.34408129234671
-2.064016648658294 2.980609924902064 53.60905312933678
3.889363593900163 -1.503281779032668 48.87870577926665
-0.7171728504338719 3.023033625949493 65.64719877216565
-1.794451581196313 -3.480834463428736 54.60212806686216
1.540965447198224 3.631391664581511 56.37034553318328
3.920783345198573 0.5683072797887925 54.47814210461529
1.72335687035669 -3.347884720788904 61.79085428912896
0.3844368844142656 -2.852402411870314 65.62342523963905
0.6925467259698506 -4.363436187711379 47.94588277817473
3.677633276741524 2.507260412842842 48.28230247546544
-2.692732770693821 3.971871882395743 45.15223325733049
4.290919210772334 1.724110152353608 43.53911083812
-3.648688904757939 1.00307857144796 56.63915606954547

CELLS 2938 13416
1 0
1 1
1 2
1 3
2 0 4
2 4 5
2 5 6
2 6 7
2 7 8
2 8 9
2 9 10
2 10 11
2 11 12
2 12 13
2 13 1
2 0 14
2 14 15
2 15 16
2 16 17
2 17 18
2 18 19
2 19 20
2 20 21
2 21 22
2 22 23
2 23 24
2 24 25
2 25 26
2 26 0
2 1 27
2 27 28
2 28 29
2 29 30
2 30 31
2 31 32
2 32 33
2 33 34
2 34 1
2 2 35
2 35 36
2 36 37
2 37 38
2 38 39
2 39 40
2 40 41
2 41 42
2 42 43
2 43 44
2 44 45
2 45 46
2 46 47
2 47 48
2 48 49
2 49 50
2 50 51
2 51 52
2 52 2
2 3 53
2 53 54
2 54 55
2 55 56
2 56 57
2 57 58
2 58 59
2 59 60
2 60 3
2 2 61
2 61 62
2 62 63
2 63 64
2 64 65
2 65 66
2 66 67
2 67 68
2 68 69
2 69 70
2 70 71
2 71 72
2 72 73
2 73 74
2 74 75
2 75 76
2 76 77
2 77 78
2 78 79
2 79 80
2 80 3
3 4 208 0
3 0 211 4
3 14 211 0
3 0 208 26
3 13 204 1
3 1 205 13
3 1 204 27
3 34 205 1
3 5 95 4
3 4 213 5
3 95 208 4
3 211 213 4
3 5 96 6
3 6 167 5
3 5 167 95
3 5 213 96
3 7 84 6
3 6 85 7
3 84 167 6
3 6 96 85
3 8 159 7
3 7 185 8
3 7 159 84
3 85 185 7
3 9 157 8
3 8 191 9
3 157 159 8
3 185 191 8
3 9 82 10
3 10 83 9
3 9 191 82
3 83 157 9
3 10 166 11
3 11 207 10
3 82 166 10
3 10 207 83
3 12 87 11
3 11 88 12
3 87 207 11
3 11 166 88
3 12 165 13
3 13 187 12
3 12 187 87
3 88 165 12
3 165 204 13
3 13 205 187
3 15 212 14
3 14 212 211
3 16 137 15
3 137 212 15
3 17 90 16
3 90 137 16
3 18 206 17
3 17 206 90
3 19 182 18
3 182 206 18
3 20 81 19
3 81 182 19
3 21 196 20
3 20 196 81
3 22 145 21
3 145 196 21
3 23 89 22
3 89 145 22
3 24 184 23
3 23 184 89
3 25 91 24
3 91 184 24
3 26 188 25
3 25 188 91
3 26 208 188
3 27 193 28
3 27 204 193
3 28 93 29
3 28 193 93
3 29 197 30
3 93 197 29
3 30 86 31
3 30 197 86
3 31 171 32
3 86 171 31
3 32 92 33
3 32 171 92
3 33 174 34
3 92 174 33
3 174 205 34
3 81 196 141
3 141 214 81
3 81 214 182
3 82 195 166
3 191 192 82
3 192 195 82
3 143 198 83
3 83 207 143
3 83 158 157
3 83 198 158
3 159 160 84
3 160 161 84
3 161 167 84
3 96 97 85
3 97 98 85
3 98 185 85
3 152 172 86
3 86 197 152
3 164 171 86
3 86 172 164
3 87 142 140
3 140 143 87
3 87 187 142
3 143 207 87
3 88 210 165
3 166 203 88
3 203 210 88
3 89 202 145
3 184 190 89
3 190 202 89
3 90 194 137
3 139 175 90
3 90 206 139
3 175 194 90
3 91 188 179
3 179 201 91
3 91 201 184
3 171 200 92
3 92 215 174
3 200 215 92
3 151 152 93
3 93 153 151
3 152 197 93
3 93 193 153
3 94 186 96
3 96 213 94
3 137 186 94
3 94 212 137
3 211 212 94
3 94 213 211
3 167 179 95
3 179 188 95
3 188 208 95
3 96 186 97
3 97 99 98
3 97 131 99
3 97 186 131
3 99 100 98
3 100 132 98
3 132 185 98
3 99 101 100
3 99 169 101
3 131 169 99
3 101 102 100
3 102 146 100
3 100 146 132
3 101 103 102
3 101 105 103
3 101 169 105
3 103 104 102
3 104 107 102
3 107 146 102
3 103 155 104
3 105 106 103
3 106 155 103
3 104 108 107
3 104 109 108
3 104 155 109
3 105 124 106
3 105 126 124
3 105 169 126
3 124 176 106
3 106 177 155
3 176 177 106
3 108 148 107
3 107 147 146
3 107 148 147
3 109 110 108
3 110 111 108
3 111 148 108
3 109 112 110
3 109 156 112
3 155 156 109
3 110 178 111
3 112 113 110
3 113 178 110
3 111 149 148
3 111 150 149
3 111 178 150
3 112 114 113
3 112 115 114
3 112 156 115
3 114 116 113
3 116 127 113
3 127 178 113
3 115 117 114
3 114 168 116
3 117 168 114
3 115 118 117
3 115 173 118
3 156 173 115
3 116 129 127
3 116 130 129
3 116 168 130
3 118 119 117
3 119 128 117
3 128 168 117
3 118 120 119
3 118 121 120
3 118 173 121
3 120 125 119
3 125 199 119
3 119 199 128
3 121 122 120
3 122 209 120
3 120 209 125
3 121 123 122
3 121 133 123
3 121 173 133
3 123 170 122
3 170 189 122
3 189 209 122
3 133 134 123
3 134 135 123
3 135 170 123
3 126 136 124
3 136 180 124
3 124 180 176
3 125 162 160
3 160 181 125
3 125 209 162
3 181 199 125
3 126 139 136
3 126 175 139
3 169 175 126
3 129 164 127
3 164 172 127
3 172 178 127
3 144 168 128
3 128 198 144
3 158 198 128
3 128 199 158
3 130 138 129
3 138 200 129
3 129 200 164
3 130 140 138
3 130 144 140
3 130 168 144
3 131 175 169
3 131 194 175
3 186 194 131
3 146 192 132
3 132 191 185
3 132 192 191
3 133 176 134
3 173 177 133
3 133 177 176
3 134 141 135
3 134 180 141
3 176 180 134
3 141 145 135
3 145 202 135
3 135 202 170
3 139 182 136
3 136 214 180
3 182 214 136
3 137 194 186
3 140 142 138
3 142 215 138
3 138 215 200
3 139 206 182
3 140 144 143
3 141 196 145
3 180 214 141
3 142 187 174
3 174 215 142
3 144 198 143
3 147 192 146
3 148 154 147
3 154 195 147
3 147 195 192
3 149 154 148
3 150 151 149
3 151 183 149
3 149 183 154
3 150 152 151
3 150 172 152
3 150 178 172
3 153 183 151
3 153 193 165
3 165 210 153
3 153 210 183
3 183 203 154
3 154 203 195
3 155 177 156
3 156 177 173
3 158 181 157
3 157 181 159
3 158 199 181
3 159 181 160
3 160 162 161
3 162 163 161
3 163 179 161
3 161 179 167
3 162 189 163
3 162 209 189
3 163 201 179
3 189 201 163
3 164 200 171
3 193 204 165
3 195 203 166
3 170 190 189
3 170 202 190
3 187 205 174
3 183 210 203
3 184 201 190
3 190 201 189
3 27 218 1
3 1 216 34
3 1 218 216
3 28 218 27
3 29 218 28
3 30 217 29
3 217 218 29
3 31 217 30
3 32 219 31
3 31 219 217
3 33 219 32
3 34 216 33
3 216 219 33
3 216 218 217
3 217 219 216
3 2 0 35
3 52 0 2
3 35 0 14
3 26 0 52
3 15 36 14
3 36 35 14
3 16 222 15
3 37 36 15
3 15 222 37
3 17 39 16
3 39 38 16
3 38 222 16
3 17 18 40
3 40 39 17
3 19 220 18
3 40 18 41
3 18 220 41
3 19 20 43
3 42 19 43
3 42 220 19
3 20 21 44
3 43 20 44
3 22 221 21
3 44 21 45
3 21 221 45
3 47 22 23
3 46 22 47
3 46 221 22
3 24 48 23
3 23 48 47
3 25 223 24
3 24 49 48
3 24 223 49
3 26 51 25
3 25 51 50
3 50 223 25
3 26 52 51
3 37 222 38
3 41 220 42
3 45 221 46
3 49 223 50
3 35 537 2
3 2 536 52
3 61 536 2
3 2 537 61
3 3 532 53
3 60 533 3
3 80 532 3
3 3 533 80
3 36 251 35
3 251 537 35
3 37 490 36
3 36 490 251
3 38 243 37
3 243 490 37
3 39 492 38
3 38 492 243
3 40 231 39
3 231 492 39
3 41 495 40
3 40 495 231
3 42 245 41
3 245 495 41
3 43 494 42
3 42 494 245
3 44 230 43
3 230 494 43
3 45 519 44
3 44 519 230
3 46 246 45
3 246 519 45
3 47 506 46
3 46 506 246
3 48 232 47
3 232 506 47
3 49 527 48
3 48 527 232
3 50 244 49
3 244 527 49
3 51 505 50
3 50 505 244
3 52 250 51
3 250 505 51
3 52 536 250
3 53 475 54
3 53 532 475
3 54 521 55
3 475 521 54
3 55 235 56
3 55 521 235
3 56 477 57
3 235 477 56
3 57 247 58
3 57 477 247
3 58 514 59
3 247 514 58
3 59 249 60
3 59 514 249
3 249 533 60
3 62 508 61
3 61 509 62
3 508 536 61
3 61 537 509
3 63 241 62
3 62 242 63
3 241 508 62
3 62 509 242
3 63 424 64
3 64 525 63
3 63 525 241
3 242 424 63
3 64 233 65
3 65 234 64
3 64 424 233
3 234 525 64
3 65 460 66
3 66 515 65
3 233 460 65
3 65 515 234
3 66 414 67
3 67 544 66
3 390 515 66
3 66 544 390
3 66 460 414
3 68 225 67
3 67 226 68
3 225 544 67
3 67 414 226
3 68 254 69
3 69 412 68
3 68 412 225
3 226 254 68
3 70 237 69
3 69 253 70
3 237 412 69
3 69 254 253
3 70 228 71
3 71 252 70
3 70 253 228
3 70 252 237
3 72 224 71
3 71 411 72
3 224 252 71
3 228 411 71
3 72 239 73
3 73 491 72
3 72 491 224
3 72 411 239
3 74 413 73
3 73 502 74
3 239 502 73
3 413 491 73
3 75 240 74
3 74 504 75
3 240 413 74
3 502 504 74
3 75 227 76
3 76 415 75
3 75 504 227
3 75 415 240
3 77 229 76
3 76 420 77
3 227 420 76
3 229 415 76
3 77 236 78
3 78 427 77
3 77 427 229
3 77 420 236
3 79 238 78
3 78 436 79
3 236 436 78
3 238 427 78
3 79 248 80
3 80 432 79
3 79 432 238
3 79 436 248
3 248 532 80
3 80 533 432
3 224 256 252
3 224 311 256
3 224 491 311
3 412 530 225
3 225 530 425
3 425 544 225
3 226 255 254
3 226 258 255
3 226 414 258
3 227 507 420
3 504 510 227
3 227 510 507
3 253 257 228
3 257 327 228
3 327 411 228
3 229 542 415
3 427 487 229
3 487 542 229
3 444 494 230
3 230 539 444
3 519 539 230
3 231 495 470
3 470 520 231
3 231 520 492
3 232 483 481
3 481 484 232
3 232 527 483
3 484 506 232
3 391 396 233
3 233 424 391
3 396 460 233
3 234 384 382
3 382 387 234
3 234 515 384
3 387 525 234
3 235 543 477
3 235 534 498
3 498 543 235
3 521 534 235
3 420 512 236
3 236 513 436
3 512 513 236
3 252 523 237
3 237 454 412
3 237 523 454
3 238 428 427
3 238 429 428
3 238 432 429
3 411 501 239
3 239 501 486
3 486 502 239
3 400 413 240
3 240 511 400
3 415 511 240
3 241 387 385
3 385 518 241
3 241 525 387
3 241 518 508
3 242 422 421
3 421 424 242
3 242 509 422
3 243 538 490
3 492 545 243
3 503 538 243
3 243 545 503
3 244 505 386
3 386 517 244
3 244 517 483
3 483 527 244
3 494 499 245
3 245 529 495
3 499 529 245
3 246 493 474
3 474 519 246
3 246 506 493
3 477 478 247
3 478 522 247
3 247 522 514
3 436 516 248
3 248 516 475
3 475 532 248
3 249 431 429
3 429 432 249
3 249 514 431
3 432 533 249
3 386 505 250
3 250 518 386
3 508 518 250
3 250 536 508
3 251 490 422
3 422 509 251
3 509 537 251
3 256 523 252
3 254 476 253
3 253 476 257
3 255 476 254
3 258 259 255
3 259 338 255
3 338 476 255
3 311 323 256
3 323 540 256
3 256 540 523
3 257 369 327
3 257 488 369
3 476 488 257
3 258 260 259
3 258 398 260
3 258 414 398
3 260 261 259
3 261 467 259
3 259 467 338
3 260 262 261
3 260 339 262
3 260 398 339
3 262 263 261
3 263 264 261
3 264 467 261
3 262 448 263
3 339 357 262
3 357 448 262
3 263 265 264
3 263 267 265
3 263 448 267
3 265 266 264
3 266 319 264
3 319 467 264
3 265 426 266
3 267 268 265
3 268 426 265
3 266 393 319
3 266 472 393
3 426 472 266
3 267 269 268
3 267 283 269
3 267 448 283
3 269 270 268
3 270 271 268
3 271 426 268
3 269 304 270
3 283 471 269
3 269 471 304
3 270 272 271
3 270 437 272
3 304 437 270
3 272 273 271
3 273 356 271
3 356 426 271
3 272 274 273
3 272 282 274
3 272 437 282
3 274 275 273
3 275 485 273
3 273 485 356
3 274 276 275
3 274 446 276
3 282 446 274
3 276 277 275
3 277 409 275
3 409 485 275
3 276 278 277
3 276 281 278
3 276 446 281
3 278 279 277
3 279 280 277
3 280 409 277
3 278 479 279
3 281 284 278
3 284 479 278
3 279 286 280
3 279 458 286
3 279 479 458
3 286 287 280
3 287 288 280
3 288 409 280
3 281 285 284
3 281 463 285
3 446 463 281
3 437 438 282
3 438 439 282
3 439 446 282
3 448 455 283
3 455 468 283
3 468 471 283
3 285 307 284
3 307 308 284
3 308 479 284
3 285 312 307
3 285 313 312
3 285 463 313
3 286 320 287
3 286 321 320
3 286 458 321
3 287 289 288
3 287 452 289
3 320 452 287
3 289 290 288
3 290 461 288
3 288 461 409
3 289 291 290
3 289 310 291
3 289 452 310
3 291 292 290
3 292 322 290
3 322 461 290
3 291 293 292
3 291 449 293
3 310 449 291
3 293 294 292
3 294 423 292
3 292 423 322
3 293 295 294
3 293 296 295
3 293 449 296
3 295 306 294
3 306 309 294
3 309 423 294
3 296 297 295
3 297 402 295
3 295 402 306
3 296 298 297
3 296 451 298
3 449 451 296
3 298 299 297
3 299 303 297
3 303 402 297
3 298 300 299
3 298 302 300
3 298 451 302
3 300 301 299
3 301 435 299
3 299 435 303
3 300 464 301
3 302 305 300
3 305 464 300
3 301 459 435
3 301 465 459
3 464 465 301
3 302 315 305
3 302 330 315
3 302 451 330
3 303 433 402
3 303 434 433
3 303 435 434
3 304 447 437
3 304 489 447
3 471 489 304
3 315 316 305
3 316 317 305
3 317 464 305
3 306 318 309
3 306 333 318
3 306 402 333
3 307 395 308
3 312 314 307
3 314 395 307
3 395 408 308
3 308 408 401
3 401 479 308
3 318 328 309
3 328 329 309
3 329 423 309
3 310 450 449
3 310 453 450
3 452 453 310
3 311 370 323
3 311 371 370
3 311 491 371
3 313 480 312
3 312 324 314
3 312 480 324
3 456 457 313
3 313 463 456
3 457 480 313
3 324 325 314
3 325 326 314
3 326 395 314
3 315 337 316
3 330 388 315
3 315 388 337
3 316 331 317
3 316 399 331
3 337 399 316
3 331 332 317
3 332 343 317
3 343 464 317
3 318 403 328
3 333 340 318
3 340 403 318
3 319 393 392
3 392 410 319
3 410 467 319
3 321 334 320
3 334 355 320
3 355 452 320
3 321 335 334
3 321 336 335
3 321 458 336
3 423 473 322
3 322 462 461
3 322 473 462
3 370 375 323
3 375 526 323
3 323 526 394
3 394 540 323
3 324 482 325
3 480 481 324
3 481 482 324
3 325 342 326
3 325 368 342
3 325 482 368
3 342 382 326
3 382 383 326
3 383 395 326
3 369 404 327
3 404 501 327
3 327 501 411
3 328 392 329
3 328 496 392
3 403 496 328
3 392 393 329
3 393 473 329
3 329 473 423
3 330 528 388
3 330 451 450
3 450 528 330
3 331 374 332
3 331 381 374
3 331 399 381
3 332 344 343
3 332 466 344
3 374 466 332
3 333 341 340
3 333 433 341
3 402 433 333
3 335 378 334
3 334 394 355
3 378 394 334
3 336 379 335
3 335 454 378
3 379 454 335
3 336 380 379
3 336 401 380
3 336 458 401
3 388 524 337
3 337 400 399
3 337 524 400
3 338 467 410
3 410 488 338
3 338 488 476
3 339 358 357
3 339 396 358
3 339 398 396
3 341 376 340
3 376 404 340
3 340 404 403
3 341 377 376
3 341 397 377
3 341 433 397
3 368 385 342
3 342 387 382
3 385 387 342
3 344 345 343
3 345 465 343
3 343 465 464
3 344 346 345
3 344 348 346
3 344 466 348
3 346 347 345
3 347 349 345
3 349 465 345
3 346 364 347
3 348 535 346
3 346 535 364
3 347 350 349
3 347 497 350
3 364 497 347
3 348 466 430
3 430 541 348
3 348 541 535
3 350 351 349
3 351 459 349
3 459 465 349
3 350 352 351
3 350 353 352
3 350 497 353
3 352 354 351
3 354 366 351
3 366 459 351
3 353 416 352
3 352 365 354
3 352 416 365
3 353 417 416
3 353 418 417
3 353 497 418
3 365 405 354
3 354 367 366
3 354 405 367
3 394 526 355
3 355 453 452
3 355 526 453
3 356 472 426
3 462 472 356
3 356 485 462
3 358 359 357
3 359 455 357
3 357 455 448
3 358 360 359
3 358 391 360
3 358 396 391
3 360 361 359
3 361 362 359
3 362 455 359
3 360 363 361
3 360 421 363
3 391 421 360
3 361 372 362
3 363 503 361
3 361 503 372
3 372 373 362
3 373 468 362
3 362 468 455
3 421 422 363
3 422 538 363
3 363 538 503
3 364 535 478
3 478 543 364
3 364 498 497
3 364 543 498
3 365 507 405
3 416 512 365
3 365 512 507
3 367 434 366
3 434 435 366
3 435 459 366
3 367 406 397
3 397 434 367
3 405 406 367
3 368 386 385
3 368 517 386
3 482 517 368
3 403 404 369
3 369 496 403
3 488 496 369
3 371 524 370
3 370 388 375
3 370 524 388
3 371 413 400
3 400 524 371
3 371 491 413
3 372 520 373
3 503 545 372
3 372 545 520
3 373 469 468
3 373 470 469
3 373 520 470
3 381 487 374
3 374 531 466
3 487 531 374
3 388 528 375
3 453 526 375
3 375 528 453
3 377 486 376
3 376 501 404
3 486 501 376
3 397 406 377
3 406 407 377
3 407 486 377
3 378 540 394
3 454 523 378
3 523 540 378
3 380 425 379
3 425 530 379
3 379 530 454
3 380 408 389
3 389 425 380
3 401 408 380
3 399 511 381
3 381 542 487
3 511 542 381
3 382 384 383
3 384 389 383
3 389 408 383
3 383 408 395
3 384 390 389
3 384 515 390
3 386 518 385
3 390 425 389
3 390 544 425
3 391 424 421
3 392 496 410
3 472 473 393
3 398 460 396
3 433 434 397
3 414 460 398
3 400 511 399
3 458 479 401
3 405 510 406
3 507 510 405
3 406 510 407
3 407 502 486
3 407 504 502
3 407 510 504
3 461 485 409
3 410 496 488
3 454 530 412
3 415 542 511
3 417 513 416
3 416 513 512
3 418 419 417
3 419 516 417
3 417 516 513
3 418 534 419
3 497 498 418
3 498 534 418
3 475 516 419
3 419 521 475
3 419 534 521
3 507 512 420
3 490 538 422
3 428 487 427
3 429 430 428
3 430 531 428
3 428 531 487
3 429 431 430
3 431 541 430
3 466 531 430
3 514 522 431
3 522 541 431
3 513 516 436
3 437 447 438
3 438 440 439
3 438 441 440
3 438 447 441
3 440 456 439
3 439 463 446
3 456 463 439
3 441 442 440
3 442 443 440
3 443 456 440
3 441 444 442
3 441 445 444
3 441 447 445
3 442 474 443
3 444 539 442
3 442 539 474
3 443 457 456
3 443 493 457
3 474 493 443
3 445 499 444
3 444 499 494
3 447 489 445
3 489 500 445
3 445 500 499
3 450 451 449
3 453 528 450
3 457 484 480
3 457 493 484
3 462 485 461
3 462 473 472
3 469 471 468
3 470 500 469
3 469 489 471
3 469 500 489
3 495 529 470
3 470 529 500
3 474 539 519
3 477 543 478
3 478 535 522
3 480 484 481
3 481 483 482
3 483 517 482
3 493 506 484
3 520 545 492
3 500 529 499
3 535 541 522
3 53 548 3
3 3 546 60
3 3 548 546
3 54 548 53
3 55 548 54
3 56 547 55
3 547 548 55
3 57 547 56
3 58 549 57
3 57 549 547
3 59 549 58
3 60 549 59
3 546 549 60
3 546 548 547
3 547 549 546
4 418 553 419 554
4 478 553 543 554
4 498 418 534 554
4 365 507 552 564
4 507 563 552 564
4 498 553 418 554
4 332 344 552 561
4 332 343 344 561
4 543 553 498 554
4 507 420 552 563
4 418 419 534 554
4 418 417 419 553
4 512 507 420 552
4 332 552 344 577
4 512 365 507 552
4 552 561 349 564
4 79 436 553 554
4 552 567 344 577
4 555 556 217 559
4 522 553 478 554
4 351 552 349 564
4 79 553 238 554
4 229 77 563 566
4 550 556 555 559
4 349 552 351 572
4 229 566 563 576
4 419 553 516 554
4 349 345 465 561
4 79 248 436 554
4 543 478 364 553
4 541 553 522 554
4 345 343 561 567
4 229 77 76 563
4 516 419 417 553
4 77 420 563 566
4 535 478 522 553
4 459 349 561 564
4 420 512 552 566
4 512 365 552 572
4 543 364 498 553
4 516 553 436 554
4 563 566 552 576
4 432 79 238 554
4 77 420 76 563
4 332 561 552 576
4 296 555 297 569
4 555 556 550 560
4 332 576 552 577
4 555 565 297 569
4 535 364 478 553
4 552 563 420 566
4 351 552 564 572
4 459 349 465 561
4 238 553 429 554
4 79 436 78 553
4 79 78 238 553
4 431 553 541 554
4 349 567 552 572
4 477 478 543 554
4 216 217 556 559
4 535 522 541 553
4 516 436 248 554
4 365 564 552 572
4 235 498 534 554
4 247 478 477 554
4 377 558 341 579
4 497 418 498 553
4 497 498 364 553
4 377 341 376 579
4 297 565 557 569
4 297 557 298 569
4 345 344 343 567
4 432 238 429 554
4 552 566 512 572
4 353 418 497 553
4 219 217 555 560
4 296 297 298 569
4 365 352 564 572
4 541 431 430 553
4 216 559 556 581
4 353 417 418 553
4 341 559 376 579
4 247 477 547 554
4 543 235 477 554
4 235 543 498 554
4 513 553 417 572
4 431 541 522 554
4 431 429 553 554
4 351 564 352 572
4 341 558 397 565
4 497 353 553 572
4 219 216 217 560
4 436 553 513 566
4 78 553 436 566
4 238 553 78 566
4 354 365 352 564
4 350 349 351 572
4 534 521 235 554
4 323 556 560 578
4 459 351 349 564
4 318 28 559 580
4 417 553 353 572
4 559 565 341 580
4 547 477 235 554
4 238 428 553 566
4 297 555 295 565
4 430 348 553 577
4 513 566 553 572
4 436 516 513 553
4 364 553 535 567
4 497 553 364 567
4 497 553 567 572
4 431 429 430 553
4 348 535 541 553
4 522 478 247 554
4 365 405 507 564
4 534 419 521 554
4 563 564 507 574
4 516 417 513 553
4 345 343 465 561
4 562 568 240 575
4 348 535 553 567
4 348 567 553 577
4 397 565 558 570
4 348 541 430 553
4 318 559 340 580
4 238 428 429 553
4 553 566 428 577
4 323 560 375 578
4 459 564 561 582
4 428 430 553 577
4 449 31 555 560
4 415 568 563 575
4 349 350 567 572
4 521 547 235 554
4 405 507 564 574
4 323 370 556 578
4 558 550 565 579
4 559 565 550 579
4 30 294 555 580
4 351 354 352 564
4 451 449 555 569
4 341 397 433 565
4 341 377 397 558
4 295 565 555 580
4 364 535 346 567
4 430 429 428 553
4 216 218 559 581
4 571 575 502 579
4 323 556 33 560
4 216 218 217 559
4 297 296 295 555
4 30 306 294 580
4 558 502 575 579
4 217 555 559 580
4 300 464 573 582
4 302 557 315 569
4 295 402 565 580
4 302 315 557 573
4 415 563 75 575
4 557 315 569 573
4 558 575 571 579
4 367 564 366 570
4 331 561 332 576
4 240 562 400 568
4 556 571 72 581
4 532 80 546 554
4 297 295 402 565
4 370 311 323 556
4 562 569 315 573
4 294 295 555 580
4 511 240 400 568
4 333 341 565 580
4 323 375 370 578
4 323 526 375 560
4 74 502 571 575
4 247 547 549 554
4 323 256 34 556
4 415 240 568 575
4 318 29 28 580
4 294 306 295 580
4 514 522 247 554
4 315 569 562 578
4 34 33 323 556
4 571 579 72 581
4 28 27 404 559
4 310 31 449 560
4 451 450 449 569
4 331 316 317 568
4 229 487 566 576
4 465 459 561 582
4 399 568 562 573
4 397 570 558 574
4 397 558 406 574
4 310 449 450 560
4 32 31 310 560
4 316 317 568 573
4 487 566 576 577
4 561 568 317 573
4 340 559 341 580
4 27 327 404 581
4 451 449 296 555
4 564 570 367 574
4 27 404 559 581
4 340 341 333 580
4 300 573 557 582
4 557 558 551 562
4 513 512 566 572
4 561 573 464 582
4 557 569 562 573
4 546 80 533 554
4 366 570 564 582
4 433 565 397 570
4 556 579 571 581
4 323 33 526 560
4 497 567 350 572
4 551 568 562 575
4 507 227 563 574
4 331 317 561 568
4 550 558 557 562
4 297 299 557 565
4 563 574 227 575
4 514 247 549 554
4 296 451 555 569
4 294 293 30 555
4 475 521 419 554
4 548 547 521 554
4 238 427 428 566
4 416 513 417 572
4 297 303 299 565
4 74 502 73 571
4 400 562 399 568
4 415 75 240 575
4 507 510 227 574
4 303 557 299 565
4 475 419 516 554
4 303 299 557 570
4 229 487 427 566
4 29 306 30 580
4 311 256 323 556
4 229 563 415 576
4 348 346 535 567
4 497 347 350 567
4 497 364 347 567
4 374 576 332 577
4 475 516 248 554
4 504 227 574 575
4 399 562 337 573
4 311 571 556 578
4 413 571 562 575
4 300 464 305 573
4 555 550 565 569
4 71 224 72 581
4 551 558 557 570
4 331 568 561 576
4 236 436 513 566
4 295 293 294 555
4 370 311 556 578
4 224 556 72 581
4 413 562 240 575
4 427 566 487 577
4 300 557 299 582
4 397 367 570 574
4 557 570 299 582
4 403 28 404 559
4 550 559 555 580
4 557 565 303 570
4 466 332 344 577
4 513 512 236 566
4 557 558 550 565
4 317 464 561 573
4 365 354 405 564
4 332 331 317 561
4 504 227 510 574
4 229 76 415 563
4 522 514 431 554
4 79 432 80 554
4 299 570 435 582
4 348 344 567 577
4 79 80 248 554
4 30 555 217 580
4 533 249 546 554
4 294 30 29 306
4 434 367 366 570
4 561 563 552 576
4 1 556 224 581
4 397 406 367 574
4 71 1 224 581
4 377 406 397 558
4 403 404 340 559
4 559 579 556 581
4 302 557 300 573
4 217 559 218 580
4 562 571 558 575
4 34 224 1 556
4 72 579 239 581
4 333 341 433 565
4 371 571 311 578
4 558 565 557 570
4 404 327 501 581
4 229 415 542 576
4 420 236 512 566
4 548 532 546 554
4 302 300 305 573
4 556 559 550 579
4 352 350 351 572
4 303 435 299 570
4 297 299 298 557
4 317 305 464 573
4 34 256 224 556
4 413 74 571 575
4 475 548 521 554
4 33 556 216 560
4 552 563 561 564
4 340 376 341 559
4 31 219 555 560
4 347 349 350 567
4 238 78 427 566
4 296 298 451 569
4 513 416 512 572
4 491 72 556 571
4 507 227 420 563
4 73 571 502 579
4 561 563 551 564
4 348 466 344 577
4 301 300 299 582
4 366 435 570 582
4 300 301 464 582
4 561 568 563 576
4 563 568 415 576
4 404 501 559 581
4 377 376 486 579
4 415 240 511 568
4 502 407 558 575
4 31 32 219 560
4 434 366 435 570
4 550 565 559 580
4 33 216 219 560
4 542 415 568 576
4 399 400 337 562
4 491 72 224 556
4 497 350 353 572
4 427 428 566 577
4 293 449 31 555
4 75 563 227 575
4 429 249 432 554
4 407 574 558 575
4 532 475 248 554
4 217 218 29 580
4 465 561 464 582
4 532 248 80 554
4 511 400 399 568
4 558 562 550 571
4 406 558 407 574
4 551 562 558 575
4 466 374 332 577
4 236 78 436 566
4 562 568 551 573
4 27 28 404 369
4 546 249 549 554
4 430 466 348 577
4 551 563 561 568
4 491 556 311 571
4 33 34 216 556
4 309 294 29 306
4 465 464 301 582
4 374 331 332 576
4 29 30 217 580
4 73 72 571 579
4 73 239 72 579
4 550 555 565 580
4 407 504 574 575
4 293 31 30 555
4 532 548 475 554
4 370 371 311 578
4 560 569 528 578
4 486 502 407 558
4 377 407 406 558
4 229 427 77 566
4 413 400 240 562
4 337 562 524 578
4 311 224 256 556
4 80 432 533 554
4 388 337 524 578
4 377 486 558 579
4 429 431 249 554
4 298 557 302 569
4 528 569 330 578
4 407 504 510 574
4 296 449 293 555
4 405 564 367 574
4 416 417 353 572
4 550 560 556 578
4 555 560 550 569
4 367 405 354 564
4 366 351 459 564
4 28 218 27 559
4 514 249 431 554
4 557 565 550 569
4 549 249 514 554
4 552 576 566 577
4 420 227 76 563
4 504 75 227 575
4 332 317 343 561
4 366 564 459 582
4 551 570 564 574
4 550 562 557 569
4 327 27 404 369
4 77 236 420 566
4 502 558 486 579
4 563 568 551 575
4 564 570 551 582
4 364 346 347 567
4 337 562 315 573
4 330 302 315 569
4 433 303 565 570
4 399 316 568 573
4 399 337 316 573
4 556 550 571 579
4 371 491 311 571
4 512 416 365 572
4 552 567 566 572
4 501 239 579 581
4 347 345 349 567
4 566 567 553 572
4 27 228 411 581
4 311 491 224 556
4 502 504 407 575
4 507 405 510 574
4 155 437 156 109
4 549 547 546 554
4 528 560 450 569
4 371 524 562 578
4 566 567 552 577
4 295 296 293 555
4 377 486 407 558
4 433 397 434 570
4 434 397 367 570
4 432 249 533 554
4 224 34 1 252
4 138 321 458 336
4 433 434 303 570
4 458 130 138 336
4 388 528 330 578
4 294 29 30 309
4 453 526 33 560
4 331 399 316 568
4 371 562 571 578
4 110 109 112 272
4 302 298 300 557
4 140 138 130 336
4 366 367 354 564
4 548 546 547 554
4 371 562 413 571
4 553 567 566 577
4 218 27 559 581
4 109 437 156 272
4 173 121 456 133
4 348 344 346 567
4 155 177 437 106
4 557 573 551 582
4 411 72 239 581
4 288 127 129 409
4 357 102 455 100
4 112 110 272 273
4 357 146 102 100
4 302 305 315 573
4 376 559 501 579
4 318 306 29 580
4 428 531 430 577
4 551 573 561 582
4 333 565 402 580
4 274 115 446 156
4 437 155 270 109
4 453 375 526 560
4 456 463 121 173
4 259 203 183 154
4 501 579 559 581
4 557 562 551 573
4 132 98 391 185
4 501 411 239 581
4 101 105 103 471
4 133 456 173 439
4 115 118 463 173
4 299 300 298 557
4 465 301 459 582
4 402 333 433 565
4 550 558 571 579
4 447 437 177 106
4 393 266 319 149
4 274 276 112 275
4 413 240 74 575
4 246 221 45 519
4 272 110 109 271
4 413 74 73 571
4 32 453 33 560
4 146 102 448 357
4 254 226 11 88
4 129 164 127 288
4 439 282 173 177
4 528 375 560 578
4 106 437 155 304
4 102 455 448 357
4 400 413 371 562
4 178 110 113 273
4 330 528 450 569
4 463 281 118 115
4 354 351 366 564
4 10 226 414 166
4 245 495 182 220
4 109 270 437 272
4 132 391 396 185
4 28 29 318 403
4 282 274 446 156
4 266 393 150 149
4 456 463 173 439
4 80 546 3 532
4 391 358 98 132
4 149 319 393 151
4 113 116 409 275
4 253 254 12 165
4 451 298 302 569
4 288 129 280 409
4 37 490 243 222
4 295 306 402 580
4 106 176 447 124
4 99 455 101 100
4 12 254 253 69
4 105 101 468 471
4 134 123 133 443
4 223 25 91 505
4 401 479 458 144
4 224 256 34 252
4 110 272 273 271
4 259 195 154 261
4 551 568 561 573
4 485 178 113 273
4 338 203 183 259
4 276 114 112 275
4 327 411 27 228
4 393 150 149 151
4 524 400 371 562
4 11 226 254 68
4 226 10 11 166
4 217 31 219 555
4 562 569 550 578
4 446 115 463 173
4 121 285 120 118
4 490 37 15 222
4 477 547 57 247
4 358 391 396 132
4 75 415 76 563
4 133 440 438 176
4 283 102 267 104
4 411 327 27 581
4 362 455 101 99
4 13 12 69 187
4 11 12 254 88
4 146 448 107 262
4 447 437 106 304
4 99 359 455 100
4 301 299 435 582
4 148 266 111 149
4 458 130 336 144
4 303 434 435 570
4 191 460 8 233
4 226 67 10 414
4 183 259 154 467
4 560 550 569 578
4 134 133 440 443
4 41 495 245 220
4 266 265 148 111
4 13 12 253 69
4 427 487 428 577
4 103 102 283 104
4 267 107 265 108
4 318 309 29 306
4 1 228 27 581
4 113 116 127 409
4 112 115 274 156
4 318 340 333 580
4 463 281 115 446
4 491 73 72 571
4 68 11 225 412
4 253 12 13 165
4 409 116 277 275
4 472 111 178 356
4 494 42 245 220
4 551 570 557 582
4 489 106 105 471
4 121 463 285 118
4 1 411 228 581
4 447 106 124 489
4 273 178 110 356
4 551 564 563 574
4 438 282 439 177
4 153 151 392 410
4 465 343 464 561
4 106 103 105 471
4 426 108 110 271
4 112 115 276 274
4 551 574 563 575
4 270 104 268 109
4 430 531 466 577
4 67 10 11 226
4 1 224 252 71
4 168 284 117 128
4 147 146 107 262
4 72 411 71 581
4 12 11 254 68
4 266 148 264 149
4 221 506 22 246
4 446 282 156 173
4 558 570 551 574
4 195 259 260 261
4 317 316 305 573
4 269 103 283 104
4 336 130 140 144
4 115 446 156 173
4 256 323 34 540
4 282 156 173 177
4 411 71 1 228
4 269 103 155 304
4 159 84 7 525
4 448 263 107 262
4 191 192 396 132
4 313 285 120 121
4 98 97 360 85
4 246 22 221 145
4 119 284 308 128
4 217 30 31 555
4 398 191 192 396
4 362 359 455 99
4 289 171 164 290
4 265 107 148 108
4 195 147 154 261
4 376 501 486 579
4 18 182 495 220
4 127 113 409 485
4 545 90 243 194
4 147 107 263 262
4 412 11 225 87
4 233 7 185 424
4 245 182 494 220
4 550 556 571 578
4 414 460 9 82
4 138 140 142 335
4 7 8 64 233
4 435 366 459 582
4 269 155 103 104
4 12 11 68 412
4 75 76 227 563
4 147 263 148 261
4 273 485 178 356
4 396 192 339 132
4 409 288 127 461
4 113 112 114 275
4 292 31 30 293
4 439 133 438 177
4 106 103 471 304
4 147 260 192 262
4 279 286 130 129
4 183 338 259 467
4 104 108 268 109
4 109 108 268 271
4 561 564 551 582
4 71 411 1 581
4 411 501 327 581
4 177 133 438 176
4 357 339 146 132
4 104 269 155 270
4 65 8 460 233
4 291 31 293 449
4 265 148 264 266
4 176 445 447 124
4 3 546 80 533
4 153 392 93 410
4 289 164 288 290
4 473 472 150 462
4 278 279 168 116
4 152 197 423 322
4 376 404 501 559
4 8 7 185 233
4 267 269 283 104
4 110 111 426 356
4 21 45 221 519
4 123 456 313 121
4 297 402 303 565
4 147 195 260 261
4 173 133 439 177
4 464 343 317 561
4 113 112 275 273
4 288 164 127 461
4 187 174 142 378
4 174 187 523 378
4 95 188 518 179
4 414 9 10 82
4 267 107 108 104
4 105 126 124 469
4 289 31 171 290
4 105 124 489 469
4 192 339 398 396
4 165 210 153 488
4 488 165 210 476
4 471 489 106 304
4 193 165 488 257
4 490 243 222 137
4 33 34 323 540
4 426 108 111 110
4 275 409 113 485
4 185 191 8 233
4 107 148 263 265
4 114 112 115 276
4 372 362 169 131
4 268 267 108 104
4 468 169 105 469
4 257 165 488 476
4 243 16 38 222
4 404 376 340 559
4 50 25 223 505
4 392 93 151 153
4 361 503 363 131
4 352 365 416 572
4 131 362 169 99
4 519 246 221 145
4 461 290 164 86
4 495 41 18 220
4 558 574 551 575
4 56 235 547 477
4 111 472 426 356
4 237 13 69 187
4 285 313 463 121
4 100 359 358 98
4 107 267 102 104
4 461 290 86 322
4 406 407 510 574
4 360 359 99 98
4 412 12 11 87
4 156 274 112 272
4 286 279 280 129
4 304 155 269 270
4 216 34 1 556
4 55 235 521 547
4 401 458 336 144
4 178 150 472 462
4 115 281 114 276
4 263 264 148 261
4 123 313 122 121
4 150 172 473 462
4 511 542 415 568
4 154 147 148 261
4 308 119 199 395
4 281 278 114 276
4 380 144 198 408
4 496 153 93 410
4 131 361 362 99
4 215 142 334 335
4 233 64 7 424
4 392 329 393 152
4 280 287 129 288
4 528 388 375 578
4 30 423 294 309
4 268 270 109 271
4 284 119 117 128
4 129 287 164 288
4 346 344 345 567
4 451 330 450 569
4 278 279 116 277
4 496 93 392 410
4 260 195 192 398
4 92 200 452 171
4 168 278 284 479
4 487 531 428 577
4 221 46 506 246
4 437 156 282 177
4 154 148 264 261
4 290 289 31 291
4 32 33 219 560
4 460 8 9 191
4 423 473 152 322
4 260 339 192 262
4 111 150 472 178
4 263 267 107 265
4 287 452 200 171
4 100 357 146 132
4 210 203 183 338
4 450 528 453 560
4 452 320 200 92
4 100 358 357 132
4 423 197 86 322
4 515 9 157 83
4 275 112 274 273
4 111 110 178 356
4 210 203 338 255
4 281 285 118 117
4 163 368 325 482
4 423 30 197 309
4 65 8 9 460
4 82 192 195 398
4 401 308 479 128
4 33 355 92 334
4 139 136 126 529
4 82 195 258 398
4 70 228 253 204
4 334 321 215 335
4 448 267 102 107
4 124 445 447 489
4 108 426 268 271
4 355 33 394 334
4 108 265 426 111
4 265 268 267 108
4 97 421 360 85
4 152 393 392 151
4 174 33 92 334
4 101 103 102 283
4 119 120 285 118
4 19 42 494 220
4 108 109 110 271
4 453 528 375 560
4 357 358 339 132
4 99 361 360 97
4 363 361 131 97
4 287 452 320 200
4 100 99 359 98
4 279 458 479 130
4 441 134 442 180
4 82 166 414 258
4 192 146 147 262
4 129 279 280 116
4 8 65 64 233
4 216 556 1 581
4 293 292 31 291
4 88 226 166 255
4 156 282 274 272
4 33 174 394 334
4 468 373 169 469
4 116 168 278 114
4 129 130 279 116
4 154 264 149 467
4 146 192 339 262
4 148 265 108 111
4 271 110 426 356
4 255 166 203 258
4 142 140 87 379
4 177 438 447 176
4 159 7 234 525
4 441 438 440 176
4 414 10 166 82
4 185 396 191 233
4 183 149 319 467
4 127 172 178 485
4 140 336 144 380
4 294 292 30 293
4 91 244 223 505
4 126 105 169 469
4 138 320 321 215
4 482 189 201 483
4 359 361 360 99
4 172 127 461 485
4 446 276 115 274
4 173 446 282 439
4 401 144 380 408
4 259 203 195 258
4 381 568 331 576
4 88 210 476 255
4 285 281 284 117
4 515 8 234 157
4 159 387 84 525
4 239 73 502 579
4 133 438 440 439
4 213 5 4 509
4 325 125 209 314
4 356 178 472 462
4 120 285 307 119
4 278 116 114 277
4 282 438 437 177
4 285 284 307 119
4 455 101 102 283
4 320 321 215 334
4 378 187 523 454
4 144 143 140 380
4 182 19 494 220
4 458 286 321 138
4 338 488 210 476
4 392 329 152 93
4 403 28 328 496
4 140 143 379 380
4 479 168 279 130
4 183 319 151 410
4 87 142 379 454
4 467 319 183 410
4 372 169 175 131
4 166 11 226 88
4 125 119 307 395
4 316 337 315 573
4 195 203 259 154
4 122 313 312 120
4 373 126 169 469
4 222 243 16 137
4 373 169 175 372
4 383 158 199 408
4 378 142 187 454
4 171 452 32 310
4 334 142 215 378
4 24 49 223 527
4 500 124 126 469
4 105 101 169 468
4 247 547 57 549
4 135 474 443 442
4 86 172 461 322
4 155 104 270 109
4 104 268 269 270
4 258 195 260 398
4 285 312 313 120
4 361 362 372 131
4 468 101 169 362
4 359 360 358 98
4 164 200 287 129
4 83 157 384 158
4 447 177 176 106
4 267 102 283 448
4 286 458 130 138
4 172 178 485 462
4 443 134 135 442
4 277 280 116 409
4 495 182 139 529
4 172 461 164 86
4 88 165 254 476
4 489 124 500 469
4 519 474 196 539
4 119 125 199 395
4 440 133 134 176
4 205 187 523 174
4 338 183 153 410
4 281 278 117 114
4 181 199 326 383
4 149 183 154 467
4 519 221 21 145
4 395 326 199 383
4 492 90 243 545
4 384 83 158 389
4 165 254 12 88
4 210 183 153 338
4 530 207 143 87
4 164 287 200 171
4 487 576 374 577
4 402 433 303 565
4 181 159 157 382
4 95 188 250 518
4 460 191 396 233
4 177 437 156 155
4 264 319 149 467
4 162 163 325 482
4 179 91 188 505
4 114 117 281 115
4 166 203 88 255
4 550 571 562 578
4 93 328 28 496
4 101 169 362 99
4 102 101 455 100
4 255 226 166 258
4 451 302 330 569
4 109 156 112 272
4 162 163 368 325
4 292 30 86 423
4 254 88 476 255
4 97 360 99 98
4 82 460 191 398
4 140 142 335 379
4 112 113 110 273
4 64 8 7 234
4 197 152 86 322
4 490 422 538 94
4 502 74 504 575
4 125 162 326 325
4 168 284 278 117
4 144 128 198 408
4 191 9 460 82
4 234 8 7 159
4 200 320 286 138
4 379 336 140 380
4 120 122 313 121
4 485 461 172 462
4 152 392 93 151
4 404 28 403 369
4 120 307 312 314
4 426 265 266 111
4 277 114 276 275
4 533 60 546 249
4 472 266 150 111
4 9 8 65 515
4 346 345 347 567
4 161 84 387 385
4 175 126 169 373
4 141 196 474 539
4 233 185 391 424
4 179 188 518 386
4 259 338 203 255
4 452 171 289 310
4 324 162 325 482
4 143 207 530 425
4 78 236 77 566
4 326 162 160 325
4 314 125 307 395
4 286 287 200 129
4 162 324 189 482
4 103 106 155 304
4 153 193 165 488
4 260 192 195 147
4 9 8 515 157
4 223 49 244 527
4 138 200 320 215
4 307 120 125 314
4 119 308 307 395
4 441 440 134 176
4 318 29 328 403
4 159 234 8 157
4 320 321 286 138
4 203 259 255 258
4 161 387 84 160
4 169 373 362 372
4 406 405 367 574
4 70 253 13 204
4 244 179 91 517
4 22 46 506 221
4 438 447 437 177
4 82 414 460 398
4 102 448 107 146
4 105 124 106 489
4 175 90 545 194
4 358 100 98 132
4 7 85 185 424
4 325 209 324 314
4 153 193 488 496
4 29 28 328 403
4 182 136 139 529
4 531 487 374 577
4 134 441 176 180
4 165 193 204 257
4 24 91 244 223
4 30 197 86 423
4 531 374 466 577
4 258 414 82 398
4 427 78 77 566
4 162 125 209 325
4 333 402 306 580
4 357 359 358 100
4 226 414 166 258
4 245 499 182 529
4 210 165 88 476
4 160 125 162 326
4 500 126 136 529
4 401 128 144 408
4 166 195 203 258
4 252 70 237 205
4 266 472 426 111
4 287 286 280 129
4 234 65 8 515
4 130 286 138 129
4 265 426 268 108
4 352 353 350 572
4 488 210 153 338
4 400 524 337 562
4 101 455 468 283
4 146 339 192 132
4 165 204 253 257
4 82 195 166 258
4 257 253 165 476
4 118 121 463 173
4 269 471 103 304
4 16 90 243 492
4 86 292 423 322
4 394 33 323 540
4 207 225 530 425
4 199 119 308 128
4 226 11 67 68
4 150 393 472 473
4 178 172 150 462
4 87 143 530 379
4 282 156 437 272
4 372 503 131 194
4 339 146 262 357
4 199 395 383 408
4 121 123 456 133
4 374 381 331 576
4 119 307 120 125
4 468 455 101 362
4 1 228 70 204
4 91 184 24 527
4 215 174 92 334
4 90 243 194 137
4 266 150 111 149
4 267 268 269 104
4 234 7 64 525
4 384 234 159 157
4 167 84 161 385
4 113 127 178 485
4 132 396 191 185
4 142 335 379 454
4 70 252 1 205
4 223 244 24 527
4 223 244 50 505
4 371 370 524 578
4 225 67 11 68
4 442 444 441 180
4 243 503 545 194
4 31 171 290 86
4 225 11 67 207
4 307 284 308 119
4 285 307 312 120
4 322 473 172 462
4 171 32 31 310
4 476 210 338 255
4 103 283 471 269
4 333 306 318 580
4 164 288 290 461
4 88 254 226 255
4 131 503 363 186
4 99 131 361 97
4 136 124 445 180
4 159 384 157 382
4 179 91 505 386
4 137 490 538 94
4 147 260 262 261
4 501 239 486 579
4 452 32 355 92
4 272 274 112 273
4 207 225 11 87
4 174 215 142 378
4 325 160 326 342
4 263 148 107 147
4 253 254 165 476
4 470 139 126 529
4 122 457 313 123
4 160 161 387 342
4 442 141 474 539
4 183 338 467 410
4 139 175 90 520
4 243 38 16 492
4 485 113 275 273
4 124 176 445 180
4 245 182 495 529
4 215 174 334 378
4 207 530 225 87
4 199 125 181 326
4 191 192 82 398
4 203 210 88 255
4 456 313 457 123
4 461 127 409 485
4 290 86 292 291
4 75 74 240 575
4 262 263 147 261
4 259 154 467 261
4 467 154 264 261
4 4 211 213 509
4 538 422 186 94
4 260 259 195 258
4 95 4 5 508
4 301 435 459 582
4 276 115 281 446
4 260 192 339 398
4 506 246 202 145
4 518 167 179 385
4 369 327 27 257
4 215 92 320 334
4 373 175 126 470
4 378 334 142 335
4 173 463 446 439
4 262 146 448 357
4 440 456 133 439
4 188 250 518 386
4 136 182 499 529
4 151 149 319 183
4 92 452 32 171
4 193 153 93 496
4 208 536 4 508
4 290 171 164 86
4 369 27 193 257
4 336 401 144 380
4 130 168 279 116
4 254 12 68 69
4 335 336 140 379
4 61 62 4 508
4 27 228 204 257
4 342 161 387 385
4 363 421 97 96
4 185 85 391 424
4 168 279 278 479
4 102 455 283 448
4 460 191 398 396
4 505 91 244 386
4 289 171 31 310
4 116 279 280 277
4 496 488 153 410
4 312 209 120 314
4 64 65 8 234
4 246 493 506 202
4 14 36 212 251
4 159 84 387 160
4 445 124 136 500
4 468 169 373 362
4 393 472 266 150
4 441 447 438 176
4 61 4 0 536
4 326 199 125 395
4 329 328 29 93
4 455 359 357 100
4 4 211 509 537
4 463 281 285 118
4 267 448 263 107
4 201 163 189 482
4 544 207 83 425
4 369 193 28 496
4 64 63 7 424
4 325 326 125 314
4 172 152 473 322
4 286 287 320 200
4 185 391 396 233
4 149 148 264 154
4 279 286 458 130
4 214 444 494 81
4 4 62 61 509
4 128 395 199 408
4 325 368 162 342
4 143 87 140 379
4 271 273 110 356
4 163 162 189 482
4 392 328 329 93
4 234 387 159 525
4 176 441 445 180
4 423 292 30 294
4 276 278 114 277
4 109 270 272 271
4 329 29 328 309
4 91 25 188 505
4 230 20 43 81
4 545 372 175 194
4 361 359 362 99
4 151 153 183 410
4 361 363 360 97
4 92 355 320 334
4 228 27 327 257
4 368 161 162 342
4 197 329 29 93
4 542 568 381 576
4 148 264 263 265
4 95 208 4 508
4 316 315 305 573
4 325 162 160 342
4 368 163 179 517
4 163 201 517 482
4 204 228 253 257
4 441 445 447 176
4 70 13 253 69
4 187 12 412 87
4 468 105 471 469
4 423 197 329 309
4 172 152 150 473
4 368 179 161 385
4 503 372 545 194
4 437 155 304 270
4 62 5 4 508
4 440 134 442 441
4 388 370 375 578
4 246 506 22 145
4 425 198 83 389
4 239 502 486 579
4 136 445 499 180
4 358 396 339 132
4 225 530 412 87
4 395 199 308 128
4 209 312 324 314
4 237 70 13 205
4 356 485 178 462
4 69 12 68 412
4 511 381 542 568
4 266 264 319 149
4 84 241 6 525
4 287 452 171 289
4 179 167 161 385
4 58 514 247 549
4 105 489 471 469
4 379 530 87 454
4 319 392 151 410
4 6 7 84 525
4 188 25 51 505
4 536 4 0 208
4 138 286 200 129
4 355 33 453 526
4 363 131 186 97
4 384 159 234 382
4 186 137 538 94
4 9 66 460 414
4 355 33 32 453
4 473 152 329 423
4 66 9 10 414
4 174 394 334 378
4 536 61 4 508
4 391 358 360 98
4 158 198 408 389
4 7 63 64 525
4 221 45 46 246
4 93 28 193 496
4 62 4 5 509
4 70 13 1 204
4 196 474 145 141
4 355 320 452 92
4 152 197 329 423
4 532 546 3 548
4 243 90 16 137
4 20 19 43 81
4 167 5 62 508
4 499 494 182 214
4 379 143 530 425
4 70 1 13 205
4 406 510 405 574
4 131 175 372 194
4 28 27 193 369
4 161 163 179 368
4 444 230 494 81
4 197 29 329 309
4 425 380 198 389
4 547 521 55 548
4 230 196 20 81
4 152 172 86 322
4 447 106 489 304
4 84 241 387 385
4 449 291 31 310
4 30 29 197 309
4 338 153 488 410
4 134 141 442 180
4 547 57 56 477
4 201 91 179 517
4 509 61 4 537
4 390 544 66 83
4 73 491 413 571
4 319 392 393 151
4 245 42 41 220
4 503 361 372 131
4 160 387 159 382
4 175 90 520 545
4 456 463 313 121
4 143 198 83 425
4 369 488 193 496
4 89 506 202 145
4 60 549 546 249
4 181 157 384 382
4 412 187 87 454
4 128 308 395 408
4 196 20 44 230
4 198 380 408 389
4 209 122 312 120
4 500 470 126 529
4 371 413 491 571
4 204 253 13 165
4 117 118 281 115
4 312 324 480 209
4 457 122 170 123
4 157 390 515 83
4 519 474 145 196
4 369 28 403 496
4 408 383 158 389
4 324 189 209 162
4 170 122 480 189
4 250 188 505 386
4 212 490 137 94
4 499 444 214 180
4 11 10 67 207
4 481 189 482 483
4 92 320 200 215
4 57 58 247 549
4 393 150 152 473
4 352 416 353 572
4 198 143 380 425
4 205 523 34 174
4 158 157 384 181
4 331 381 399 568
4 61 0 2 536
4 18 182 206 495
4 174 523 34 540
4 62 6 5 167
4 61 2 0 537
4 384 158 181 383
4 235 55 56 547
4 461 164 127 172
4 174 34 33 540
4 162 209 324 325
4 122 312 480 209
4 520 90 139 231
4 326 160 181 382
4 355 32 33 92
4 444 499 445 180
4 38 37 243 222
4 143 83 207 425
4 139 206 182 495
4 494 182 214 81
4 422 421 363 96
4 292 86 31 291
4 198 143 144 380
4 1 27 218 581
4 84 167 241 385
4 5 167 95 508
4 214 136 499 180
4 117 278 168 114
4 139 175 520 470
4 328 28 29 93
4 373 520 175 470
4 128 401 308 408
4 36 490 212 251
4 518 167 95 179
4 391 98 85 185
4 91 179 244 386
4 86 290 31 291
4 24 23 48 184
4 184 48 24 527
4 89 22 506 145
4 136 499 445 500
4 184 190 232 483
4 161 162 163 368
4 182 494 499 245
4 384 515 234 157
4 69 70 13 237
4 384 158 383 389
4 526 33 323 394
4 60 59 549 249
4 51 26 25 188
4 3 53 532 548
4 125 160 181 326
4 142 378 335 454
4 199 158 128 408
4 126 136 124 500
4 142 87 187 454
4 244 91 24 527
4 136 499 182 214
4 487 229 542 576
4 368 163 517 482
4 243 503 194 137
4 63 6 7 424
4 36 37 15 490
4 152 329 197 93
4 517 244 179 386
4 143 379 380 425
4 440 134 443 442
4 494 43 19 81
4 85 7 6 424
4 87 530 412 454
4 424 6 85 242
4 524 370 388 578
4 444 442 141 180
4 175 520 373 372
4 228 1 27 204
4 281 278 284 117
4 25 50 51 505
4 363 421 360 97
4 163 201 179 517
4 202 246 493 145
4 187 237 523 454
4 123 170 457 135
4 32 452 355 453
4 20 44 21 196
4 539 196 519 230
4 549 59 514 249
4 125 120 209 314
4 44 519 196 230
4 175 139 126 470
4 519 21 44 196
4 252 34 1 205
4 16 39 17 90
4 66 10 67 414
4 160 326 342 382
4 187 412 237 454
4 97 186 363 96
4 394 174 33 540
4 474 135 145 141
4 503 131 194 186
4 444 445 441 180
4 322 172 461 462
4 7 6 63 525
4 15 36 490 212
4 381 511 399 568
4 90 16 39 492
4 193 488 369 257
4 128 158 198 408
4 83 384 390 389
4 228 71 1 70
4 152 150 393 151
4 231 139 520 470
4 309 29 328 318
4 383 326 181 382
4 71 252 1 70
4 90 39 17 231
4 470 126 373 469
4 291 289 31 310
4 452 32 310 453
4 372 175 520 545
4 187 523 237 205
4 222 16 15 137
4 188 179 505 386
4 190 184 201 483
4 523 34 252 205
4 18 40 41 495
4 86 31 30 292
4 329 393 152 473
4 62 167 508 241
4 424 85 421 242
4 10 544 207 83
4 252 256 34 523
4 508 167 95 518
4 27 204 193 257
4 51 26 188 250
4 494 230 43 81
4 96 6 5 242
4 500 445 124 489
4 392 328 93 496
4 23 22 47 89
4 75 504 74 575
4 494 499 444 214
4 207 544 225 425
4 85 96 421 242
4 481 232 190 483
4 6 96 85 242
4 66 65 9 460
4 387 234 159 382
4 199 181 158 383
4 40 18 206 495
4 198 158 83 389
4 368 179 385 386
4 490 422 94 251
4 170 202 493 135
4 241 6 167 84
4 536 0 52 208
4 218 216 1 581
4 159 181 160 382
4 161 160 162 342
4 241 63 6 525
4 157 384 390 83
4 67 544 225 207
4 443 123 457 135
4 182 494 19 81
4 385 179 518 386
4 421 97 96 85
4 231 90 39 492
4 96 5 213 242
4 474 493 246 145
4 342 368 161 385
4 16 38 39 492
4 314 326 125 395
4 91 201 244 517
4 548 521 54 475
4 292 86 290 322
4 480 484 457 170
4 232 48 23 184
4 313 312 480 122
4 187 237 13 205
4 85 421 391 424
4 443 134 123 135
4 139 470 495 529
4 387 160 342 382
4 174 394 378 540
4 170 493 457 135
4 250 188 51 505
4 201 517 482 483
4 36 14 35 251
4 123 457 456 443
4 470 231 139 495
4 492 520 90 545
4 126 470 500 469
4 424 63 6 242
4 201 244 517 483
4 539 141 196 230
4 503 243 538 137
4 94 213 211 509
4 0 26 52 208
4 19 42 43 494
4 94 422 213 509
4 503 194 137 186
4 184 232 48 527
4 20 43 44 230
4 355 33 526 394
4 542 381 487 576
4 244 50 49 223
4 122 480 457 170
4 230 141 196 81
4 62 5 6 242
4 211 35 14 251
4 493 484 202 170
4 96 213 422 509
4 387 241 84 525
4 190 170 481 189
4 83 390 544 425
4 509 94 422 251
4 188 26 208 250
4 170 480 481 189
4 17 206 90 231
4 487 381 374 576
4 186 422 363 96
4 0 35 211 537
4 36 15 14 212
4 523 256 34 540
4 21 519 145 196
4 544 67 10 207
4 211 94 509 537
4 52 2 0 536
4 35 0 2 537
4 506 47 22 89
4 9 65 66 515
4 141 539 444 230
4 250 536 208 508
4 252 237 523 205
4 89 202 484 190
4 521 54 55 548
4 206 17 40 231
4 481 484 170 190
4 251 211 35 537
4 484 493 457 170
4 242 96 422 509
4 45 21 44 519
4 493 474 135 145
4 23 47 232 89
4 89 232 23 184
4 378 523 174 540
4 208 95 250 508
4 474 246 519 145
4 66 67 10 544
4 206 139 90 231
4 137 538 503 186
4 481 232 484 190
4 22 21 221 145
4 179 368 517 386
4 170 484 202 190
4 383 181 384 382
4 53 532 548 475
4 480 457 313 122
4 206 139 231 495
4 213 96 242 509
4 518 508 167 241
4 474 443 493 135
4 208 26 52 250
4 96 422 421 242
4 539 442 141 444
4 94 212 490 251
4 251 509 94 537
4 46 47 22 506
4 425 83 390 389
4 232 89 190 184
4 481 484 480 170
4 527 184 232 483
4 500 136 499 529
4 506 493 484 202
4 18 17 40 206
4 324 481 480 189
4 443 457 493 135
4 422 186 94 96
4 208 52 536 250
4 95 250 508 518
4 135 202 493 145
4 91 24 25 223
4 49 24 48 527
4 40 206 231 495
4 503 538 363 186
4 538 422 363 186
4 63 62 6 242
4 17 39 40 231
4 231 520 90 492
4 324 481 189 482
4 89 484 232 190
4 51 52 26 250
4 546 3 60 533
4 490 538 243 137
4 35 14 0 211
4 94 211 251 537
4 208 95 188 250
4 384 390 515 157
4 18 19 182 220
4 23 47 48 232
4 232 47 506 89
4 94 213 422 96
4 202 484 506 89
4 548 54 53 475
4 241 167 518 385
4 214 444 141 180
4 484 232 506 89
4 58 59 514 549
4 561 344 567 343
4 561 567 344 552
4 561 567 349 345
4 349 567 561 552
4 217 556 560 216
4 560 556 217 555
4 565 579 341 558
4 341 579 565 559
4 559 403 318 340
4 559 318 403 28
4 560 449 569 555
4 560 569 449 450
4 580 28 218 29
4 580 218 28 559
4 310 560 453 32
4 453 560 310 450
4 578 337 315 388
4 578 315 337 562
4 443 133 456 123
4 443 456 133 440
4 330 578 315 388
4 315 578 330 569
4 101 471 283 468
4 283 471 101 103
4 138 336 335 321
4 335 336 138 140
4 409 129 116 127
4 409 116 129 280
4 360 85 391 98
4 391 85 360 421
4 69 187 412 237
4 412 187 69 12
4 479 144 128 168
4 128 144 479 401
4 335 138 215 142
4 335 215 138 321
4 285 117 119 118
4 119 117 285 284
4 275 116 114 113
4 275 114 116 277
4 442 135 141 134
4 442 141 135 474
4 128 479 284 308
4 128 284 479 168
4 289 164 287 288
4 289 287 164 171
4 130 479 144 458
4 130 144 479 168
4 515 83 66 9
4 66 83 515 390
4 83 66 10 544
4 83 10 66 9
4 15 137 490 222
4 490 137 15 212
4 527 483 201 184
4 201 483 527 244
4 201 91 527 184
4 527 91 201 244
4 444 81 141 230
4 141 81 444 214
4 4 537 0 211
4 0 537 4 61
4 483 189 190 481
4 483 190 189 201
4 480 209 189 122
4 189 209 480 324
4 241 6 62 167
4 241 62 6 63
4 509 5 242 213
4 509 242 5 62
4 211 212 251 14
4 251 212 211 94

CELL_TYPES 2938
1
1
1
1
3
3
3
3
3
3
3
3
3
3
3
3
3
3
3
3
3
3
3
3
3
3
3
3
3
3
3
3
3
3
3
3
3
3
3
3
3
3
3
3
3
3
3
3
3
3
3
3
3
3
3
3
3
3
3
3
3
3
3
3
3
3
3
3
3
3
3
3
3
3
3
3
3
3
3
3
3
3
3
3
3
3
3
5
5
5
5
5
5
5
5
5
5
5
5
5
5
5
5
5
5
5
5
5
5
5
5
5
5
5
5
5
5
5
5
5
5
5
5
5
5
5
5
5
5
5
5
5
5
5
5
5
5
5
5
5
5
5
5
5
5
5
5
5
5
5
5
5
5
5
5
5
5
5
5
5
5
5
5
5
5
5
5
5
5
5
5
5
5
5
5
5
5
5
5
5
5
5
5
5
5
5
5
5
5
5
5
5
5
5
5
5
5
5
5
5
5
5
5
5
5
5
5
5
5
5
5
5
5
5
5
5
5
5
5
5
5
5
5
5
5
5
5
5
5
5
5
5
5
5
5
5
5
5
5
5
5
5
5
5
5
5
5
5
5
5
5
5
5
5
5
5
5
5
5
5
5
5
5
5
5
5
5
5
5
5
5
5
5
5
5
5
5
5
5
5
5
5
5
5
5
5
5
5
5
5
5
5
5
5
5
5
5
5
5
5
5
5
5
5
5
5
5
5
5
5
5
5
5
5
5
5
5
5
5
5
5
5
5
5
5
5
5
5
5
5
5
5
5
5
5
5
5
5
5
5
5
5
5
5
5
5
5
5
5
5
5
5
5
5
5
5
5
5
5
5
5
5
5
5
5
5
5
5
5
5
5
5
5
5
5
5
5
5
5
5
5
5
5
5
5
5
5
5
5
5
5
5
5
5
5
5
5
5
5
5
5
5
5
5
5
5
5
5
5
5
5
5
5
5
5
5
5
5
5
5
5
5
5
5
5
5
5
5
5
5
5
5
5
5
5
5
5
5
5
5
5
5
5
5
5
5
5
5
5
5
5
5
5
5
5
5
5
5
5
5
5
5
5
5
5
5
5
5
5
5
5
5
5
5
5
5
5
5
5
5
5
5
5
5
5
5
5
5
5
5
5
5
5
5
5
5
5
5
5
5
5
5
5
5
5
5
5
5
5
5
5
5
5
5
5
5
5
5
5
5
5
5
5
5
5
5
5
5
5
5
5
5
5
5
5
5
5
5
5
5
5
5
5
5
5
5
5
5
5
5
5
5
5
5
5
5
5
5
5
5
5
5
5
5
5
5
5
5
5
5
5
5
5
5
5
5
5
5
5
5
5
5
5
5
5
5
5
5
5
5
5
5
5
5
5
5
5
5
5
5
5
5
5
5
5
5
5
5
5
5
5
5
5
5
5
5
5
5
5
5
5
5
5
5
5
5
5
5
5
5
5
5
5
5
5
5
5
5
5
5
5
5
5
5
5
5
5
5
5
5
5
5
5
5
5
5
5
5
5
5
5
5
5
5
5
5
5
5
5
5
5
5
5
5
5
5
5
5
5
5
5
5
5
5
5
5
5
5
5
5
5
5
5
5
5
5
5
5
5
5
5
5
5
5
5
5
5
5
5
5
5
5
5
5
5
5
5
5
5
5
5
5
5
5
5
5
5
5
5
5
5
5
5
5
5
5
5
5
5
5
5
5
5
5
5
5
5
5
5
5
5
5
5
5
5
5
5
5
5
5
5
5
5
5
5
5
5
5
5
5
5
5
5
5
5
5
5
5
5
5
5
5
5
5
5
5
5
5
5
5
5
5
5
5
5
5
5
5
5
5
5
5
5
5
5
5
5
5
5
5
5
5
5
5
5
5
5
5
5
5
5
5
5
5
5
5
5
5
5
5
5
5
5
5
5
5
5
5
5
5
5
5
5
5
5
5
5
5
5
5
5
5
5
5
5
5
5
5
5
5
5
5
5
5
5
5
5
5
5
5
5
5
5
5
5
5
5
5
5
5
5
5
5
5
5
5
5
5
5
5
5
5
5
5
5
5
5
5
5
5
5
5
5
5
5
5
5
5
5
5
5
5
5
5
5
5
5
5
5
5
5
5
5
5
5
5
5
5
5
5
5
5
5
5
5
5
5
5
5
5
5
5
5
5
5
5
5
5
5
5
5
5
5
5
5
5
5
5
5
5
5
5
5
5
5
5
5
5
5
5
5
5
5
5
5
5
5
5
5
5
5
5
5
5
5
5
5
5
5
5
5
5
5
5
5
5
5
5
5
5
5
5
5
5
5
5
5
5
5
5
5
5
5
5
5
5
5
5
5
5
5
5
5
5
5
5
5
5
5
5
5
5
5
5
5
5
5
5
5
5
5
5
5
5
5
5
5
5
5
5
5
5
5
5
5
5
5
5
5
5
5
5
5
5
5
5
5
5
5
5
5
5
5
5
5
5
5
5
5
5
5
5
5
5
5
5
5
5
5
5
5
5
5
5
5
5
5
5
5
5
5
5
5
5
5
5
5
5
5
5
5
5
5
5
5
5
5
5
5
5
5
5
5
5
5
5
5
5
5
5
5
5
5
5
5
5
5
5
5
5
5
5
5
5
5
5
5
5
5
5
5
5
5
5
5
5
5
5
5
5
5
5
5
5
5
5
5
5
5
5
5
5
5
5
5
5
5
5
5
5
5
5
5
10
10
10
10
10
10
10
10
10
10
10
10
10
10
10
10
10
10
10
10
10
10
10
10
10
10
10
10
10
10
10
10
10
10
10
10
10
10
10
10
10
10
10
10
10
10
10
10
10
10
10
10
10
10
10
10
10
10
10
10
10
10
10
10
10
10
10
10
10
10
10
10
10
10
10
10
10
10
10
10
10
10
10
10
10
10
10
10
10
10
10
10
10
10
10
10
10
10
10
10
10
10
10
10
10
10
10
10
10
10
10
10
10
10
10
10
10
10
10
10
10
10
10
10
10
10
10
10
10
10
10
10
10
10
10
10
10
10
10
10
10
10
10
10
10
10
10
10
10
10
10
10
10
10
10
10
10
10
10
10
10
10
10
10
10
10
10
10
10
10
10
10
10
10
10
10
10
10
10
10
10
10
10
10
10
10
10
10
10
10
10
10
10
10
10
10
10
10
10
10
10
10
10
10
10
10
10
10
10
10
10
10
10
10
10
10
10
10
10
10
10
10
10
10
10
10
10
10
10
10
10
10
10
10
10
10
10
10
10
10
10
10
10
10
10
10
10
10
10
10
10
10
10
10
10
10
10
10
10
10
10
10
10
10
10
10
10
10
10
10
10
10
10
10
10
10
10
10
10
10
10
10
10
10
10
10
10
10
10
10
10
10
10
10
10
10
10
10
10
10
10
10
10
10
10
10
10
10
10
10
10
10
10
10
10
10
10
10
10
10
10
10
10
10
10
10
10
10
10
10
10
10
10
10
10
10
10
10
10
10
10
10
10
10
10
10
10
10
10
10
10
10
10
10
10
10
10
10
10
10
10
10
10
10
10
10
10
10
10
10
10
10
10
10
10
10
10
10
10
10
10
10
10
10
10
10
10
10
10
10
10
10
10
10
10
10
10
10
10
10
10
10
10
10
10
10
10
10
10
10
10
10
10
10
10
10
10
10
10
10
10
10
10
10
10
10
10
10
10
10
10
10
10
10
10
10
10
10
10
10
10
10
10
10
10
10
10
10
10
10
10
10
10
10
10
10
10
10
10
10
10
10
10
10
10
10
10
10
10
10
10
10
10
10
10
10
10
10
10
10
10
10
10
10
10
10
10
10
10
10
10
10
10
10
10
10
10
10
10
10
10
10
10
10
10
10
10
10
10
10
10
10
10
10
10
10
10
10
10
10
10
10
10
10
10
10
10
10
10
10
10
10
10
10
10
10
10
10
10
10
10
10
10
10
10
10
10
10
10
10
10
10
10
10
10
10
10
10
10
10
10
10
10
10
10
10
10
10
10
10
10
10
10
10
10
10
10
10
10
10
10
10
10
10
10
10
10
10
10
10
10
10
10
10
10
10
10
10
10
10
10
10
10
10
10
10
10
10
10
10
10
10
10
10
10
10
10
10
10
10
10
10
10
10
10
10
10
10
10
10
10
10
10
10
10
10
10
10
10
10
10
10
10
10
10
10
10
10
10
10
10
10
10
10
10
10
10
10
10
10
10
10
10
10
10
10
10
10
10
10
10
10
10
10
10
10
10
10
10
10
10
10
10
10
10
10
10
10
10
10
10
10
10
10
10
10
10
10
10
10
10
10
10
10
10
10
10
10
10
10
10
10
10
10
10
10
10
10
10
10
10
10
10
10
10
10
10
10
10
10
10
10
10
10
10
10
10
10
10
10
10
10
10
10
10
10
10
10
10
10
10
10
10
10
10
10
10
10
10
10
10
10
10
10
10
10
10
10
10
10
10
10
10
10
10
10
10
10
10
10
10
10
10
10
10
10
10
10
10
10
10
10
10
10
10
10
10
10
10
10
10
10
10
10
10
10
10
10
10
10
10
10
10
10
10
10
10
10
10
10
10
10
10
10
10
10
10
10
10
10
10
10
10
10
10
10
10
10
10
10
10
10
10
10
10
10
10
10
10
10
10
10
10
10
10
10
10
10
10
10
10
10
10
10
10
10
10
10
10
10
10
10
10
10
10
10
10
10
10
10
10
10
10
10
10
10
10
10
10
10
10
10
10
10
10
10
10
10
10
10
10
10
10
10
10
10
10
10
10
10
10
10
10
10
10
10
10
10
10
10
10
10
10
10
10
10
10
10
10
10
10
10
10
10
10
10
10
10
10
10
10
10
10
10
10
10
10
10
10
10
10
10
10
10
10
10
10
10
10
10
10
10
10
10
10
10
10
10
10
10
10
10
10
10
10
10
10
10
10
10
10
10
10
10
10
10
10
10
10
10
10
10
10
10
10
10
10
10
10
10
10
10
10
10
10
10
10
10
10
10
10
10
10
10
10
10
10
10
10
10
10
10
10
10
10
10
10
10
10
10
10
10
10
10
10
10
10
10
10
10
10
10
10
10
10
10
10
10
10
10
10
10
10
10
10
10
10
10
10
10
10
10
10
10
10
10
10
10
10
10
10
10
10
10
10
10
10
10
10
10
10
10
10
10
10
10
10
10
10
10
10
10
10
10
10
10
10
10
10
10
10
10
10
10
10
10
10
10
10
10
10
10
10
10
10
10
10
10
10
10
10
10
10
10
10
10
10
10
10
10
10
10
10
10
10
10
10
10
10
10
10
10
10
10
10
10
10
10
10
10
10
10
10
10
10
10
10
10
10
10
10
10
10
10
10
10
10
10
10
10
10
10
10
10
10
10
10
10
10
10
10
10
10
10
10
10
10
10
10
10
10
10
10
10
10
10
10
10
10
10
10
10
10
10
10
10
10
10
10
10
10
10
10
10
10
10
10
10
10
10
10
10
10
10
10
10
10
10
10
10
10
10
10
10
10
10
10
10
10
10
10
10
10
10
10
10
10
10
10
10
10
10
10
10
10
10
10
10
10
10
10
10
10
10
10
10
10
10
10
10
10
10
10
10
10
10
10
10
10
10
10
10
10
10
10
10
10
10
10
10
10
10
10
10
10
10
10
10
10
10
10
10
10
10
10
10
10
10
10
10
10
10
10
10
10
10
10
10
10
10
10
10
10
10
10
10
10
10
10
10
10
10
10
10
10
10
10
10
10
10
10
10
10
10
10
10
10
10
10
10
10
10
10
10
10
10
10
10
10
10
10
10
10
10
10
10
10
10
10
10
10
10
10
10
10
10
10
10
10
10
10
10
10
10
10
10
10
10
10
10
10
10
10
10
10
10
10
10
10
10
10
10
10
10
10
10
10
10
10
10
10
10
10
10
10
10
10
10
10
10
10
10
10
10
10
10
10
10
10
10
10
10
10
10
10
10
10
10
10
10
10
10
10
10
10
10
10
10
10
10
10
10
10
10
10
10
10
10
10
10
10
10
10
10
10
10
10
10
10
10
10
10
10
10
10
10
10
10
10
10
10
10
10
10
10
10
10
10
10
10
10
10
10
10
10
10
10
10
10
10
10
10
10
10
10
10
10
10
10
10
10
10
10
10
10
10
10
10
10
10
10
10
10
10
10
10
10
10
10
10
10
10
10
10
10
10
10
10
10
10
10
10
10
10
10
10
10
10
10
10
10
10
10
10
10
10
10
10
10
10
10
10
10
10
10
10
10
10
10
10
10
10
10
10
10
10
10
10
10
10
10
10
10
10
10
10
10
10
10
10
10
10
10
10
10
10
10
10
10
10
10
10
10
10
10
10
10
10
10
10
10
10
10
10
10
10
10
10
10
10
10
10
10
10
10
10
10
10
10
10
10
10
10
10
10
10
10
10
10
10
10
10
10
10
10
10
10
10
10
10
10
10
10
10
10
10
10
10
10
10
10
10
10
10
10
10
10
10
10
10
10
10
10
10
10
10
10
10
10
10
10
10
10
10
10
10
10
10
10
10
10
10
10
10
10
10
10
10
10
10
10
10
10
10
10
10
10
10
10
10
10
10
10
10
10
10
10
10
10
10
10
10
10
10
10
10
10
10
10
10
10
10
10
10
10
10
10
10
10
10
10
10
10
10
10
10
10
10
10
10
10
10
10
10
10
