# vtk DataFile Version 2.0
whisker_body, Created by Gmsh 4.13.1 
ASCII
DATASET UNSTRUCTURED_GRID
POINTS 624 double
-8.874119674649524 -1.499999999999705 0
8.874119674649528 -1.499999999999699 0
-6.628755791818376 -1.499999999999906 28
6.628755791818378 -1.499999999999903 28
12 0 0
8.874119674649352 1.500000000000214 0
0 9 0
-8.87411967464935 1.500000000000212 0
7.27789759052289 0 60
6.628755791818366 1.499999999999928 28
0 6.796352208910681 28
-6.628755791818367 1.499999999999927 28
-7.584846902842285 -4.844594664205024 0
-5.092435961360746 -7.420720718329175 0
-1.792242851007811 -8.81974294200298 0
1.792242851007785 -8.819742942002986 0
5.092435961360731 -7.420720718329185 0
7.584846902842282 -4.844594664205029 0
-5.324471804789714 -1.5 0
-1.774823934929904 -1.5 0
1.774823934929906 -1.5 0
5.324471804789717 -1.5 0
-6.910885582282804 -1.5 24.50011808444513
-7.192500707380571 -1.5 21.00019383108852
-7.473659269704564 -1.5 17.5002327886836
-7.754410910022886 -1.5 14.00023907327058
-8.034798300302295 -1.5 10.50021578967237
-8.314858142193822 -1.5 7.000167672079073
-8.594622653156597 -1.5 3.500094601365006
-4.917608528178516 -4.691218361060485 28
-1.810517853117737 -6.550757853188212 28
1.810517853117744 -6.550757853188211 28
4.91760852817852 -4.691218361060481 28
8.594622653156597 -1.5 3.500094601365006
8.314858142193824 -1.5 7.00016767207903
8.034798300302299 -1.5 10.50021578967231
7.754410910022891 -1.5 14.00023907327054
7.473659269704568 -1.5 17.50023278868356
7.192500707380574 -1.5 21.00019383108848
6.910885582282804 -1.5 24.50011808444513
-3.314377895909187 -1.5 28
0 -1.5 28
3.314377895909189 -1.5 28
11.34980690040761 3.896393630456207 0
9.469686112756717 7.370552552276022 0
6.563377897469113 10.04599773915035 0
2.945825845689581 11.63280319127197 0
-0.9909521456679979 11.95901391608004 0
-4.820345095835646 10.98927991986068 0
-8.127378859508902 8.82868692807757 0
-10.55368501447787 5.71136871644487 0
-11.83633564083267 1.975135083368787 0
-11.83633564083267 -1.975135083368821 0
-10.55368501447786 -5.711368716444897 0
-8.12737885950888 -8.828686928077589 0
-4.820345095835619 -10.9892799198607 0
-0.9909521456679715 -11.95901391608004 0
2.945825845689616 -11.63280319127196 0
6.563377897469155 -10.04599773915032 0
9.469686112756747 -7.370552552275983 0
11.34980690040762 -3.896393630456205 0
7.818029843080671 4.458520984889497 0
5.809475019311043 6.873863542433829 0
3.093156003024702 8.451768213868164 0
5.324471804789612 1.5 0
1.774823934929872 1.5 0
-1.774823934929868 1.5 0
-5.324471804789608 1.5 0
-3.093156003024702 8.451768213868164 0
-5.809475019311038 6.873863542433833 0
-7.818029843080673 4.458520984889494 0
6.302844199534381 3.638948795261439 60
3.638948795261455 6.302844199534372 60
1.337378586081774e-14 7.27789759052289 60
-3.638948795261432 6.302844199534386 60
-6.302844199534364 3.63894879526147 60
-7.27789759052289 4.613978646370539e-14 60
-6.302844199534409 -3.638948795261393 60
-3.63894879526151 -6.302844199534341 60
-6.597764390521311e-14 -7.27789759052289 60
3.638948795261406 -6.302844199534401 60
6.302844199534367 -3.638948795261465 60
11.70486859940768 0 3.75
11.40973719881536 0 7.5
11.11460579822304 0 11.25
10.81947439763072 0 15
10.5243429970384 0 18.75
10.22921159644608 0 22.5
9.934080195853765 0 26.25
9.638948795261445 0 30
9.343817394669125 0 33.75
9.048685994076806 0 37.5
8.753554593484488 0 41.25
8.458423192892168 0 45
8.163291792299848 0 48.75
7.868160391707529 0 52.5
7.573028991115209 0 56.25
6.910885582282804 1.5 24.50011808444513
7.192500707380571 1.5 21.00019383108852
7.473659269704564 1.5 17.5002327886836
7.754410910022886 1.5 14.00023907327058
8.034798300302295 1.5 10.50021578967237
8.314858142193822 1.5 7.000167672079073
8.594622653156597 1.5 3.500094601365006
5.318854081553416 4.230862158793131 28
2.952623745844936 6.121471748120522 28
0 8.724544026113835 3.5
0 8.449088052227671 7
0 8.173632078341505 10.5
0 7.898176104455341 14
0 7.622720130569176 17.5
0 7.347264156683011 21
0 7.071808182796846 24.5
-8.594622653156597 1.5 3.500094601365006
-8.314858142193824 1.5 7.00016767207903
-8.034798300302299 1.5 10.50021578967231
-7.754410910022891 1.5 14.00023907327054
-7.473659269704568 1.5 17.50023278868356
-7.192500707380574 1.5 21.00019383108848
-6.910885582282804 1.5 24.50011808444513
3.314377895909184 1.5 28
0 1.5 28
-3.314377895909184 1.5 28
-2.952623745844938 6.121471748120521 28
-5.318854081553414 4.230862158793133 28
6.180629314930665 -4.236320145310134 19.14694643312734
6.696334589598581 -4.470505804352861 12.05209808107409
-6.853684124016674 -4.721504385424596 8.607244940416276
-6.460855346943899 -4.312152720228998 15.6577337350499
-1.273726035872935e-14 -8.755741709905614 3.103595842447225
2.264278469836312e-15 -7.040129900202626 24.90251074433257
7.038542438082229 -5.102137169040388 3.897417989526377
-5.814365833773309 -4.275912350742429 22.6505966358311
-6.292644529000639 -6.088155527105005 3.103595842447215
6.732082302496138 -4.999422297362887 7.809065026912664
4.384543764377726 -6.915273489273545 10.31597377350274
4.427509886685411 -6.552414190738031 13.87476462657256
1.648112895845961 -7.870735189988069 12.17966650523512
1.611226415047692 -7.59855168586626 15.66041203242539
-1.328515928282836 -7.798308506202921 13.8413541835764
-1.418169797486183 -7.498227933976018 17.39274066222469
-1.29507249983 -8.082067323680718 10.35338355170703
1.440176544480514 -7.355743633925409 19.1177118019848
4.342128934323739 -7.267069913322844 6.791692655290698
-4.175857930534764 -6.893107376482293 11.95240968877386
-1.434476503797271 -7.183694637368522 21.27633061966598
-4.504728964282222 -6.002136133900284 19.00153577014341
-4.423891004394515 -7.057848411894381 8.516867035107577
-1.85360118819783 -8.284905054551915 6.483614805483555
-3.164658708306208 -6.295788977851041 24.82259756697279
3.489734432598699 -6.120552278966647 24.83397385353442
5.814365833773094 -4.275912350742743 22.65059663583093
-6.587720655322819 -4.613263411103735 12.16741033004548
6.452067280034806 -4.322899533142658 15.67464934644802
4.588058778789013 -7.427977469838978 3.421773542242948
-3.368174195597105 -8.088801921544416 3.023590973436102
-4.070418869171593 -6.632191302132744 15.48044573342515
1.684689826150608 -8.128691858772292 8.876119029345094
4.275295936941836 -6.335290645724192 17.24347199197844
-7.470308771703509 -4.19740721354653 5.479355131242533
4.077730980529144 -6.136776700691496 20.73609998303077
-6.395536335201933 -3.900094740239515 19.17489863566674
1.408070519192148 -7.121456339449059 22.11736984324825
1.630127293442348 -8.398025190282164 5.657144667559895
-5.139941352399621 -6.846135123729029 5.579625161837424
-5.708774550525124 -4.051264908402306 25.40981905365935
5.796007854891526 -3.918649577556688 25.45823480035721
-3.828464809680046 -6.171821411190382 22.07299275445564
-7.844888087526108 -3.977156866517071 2.598978231380578
-5.635969669316554 -5.953273700940966 10.1916022879158
2.432407222166853 -8.459373391564927 2.51409695013009
7.702872272976617 -3.672668867383754 5.925869468718089
8.102483083351812 -3.481157669545655 2.304196016116321
0.08084490486560725 -1.5 2.919519030154765
4.861487999121113 -1.5 12.01356028263488
-4.30785544744707 -1.5 19.56540017156103
-4.720154635513297 -1.5 12.0455295977678
4.083998858129306 -1.5 22.53205023749914
-1.762132658246883 -1.5 25.18247311903806
5.599414460204219 -1.5 5.143378026383193
-5.423588777505417 -1.5 5.007848009044989
4.319069290325249 -1.5 19.01516252529169
1.516746196795335 -1.5 20.76204120880932
1.566111975381077 -1.5 17.0771240316025
4.610794513786761 -1.5 15.52432815786188
1.717642238196142 -1.5 13.54208804804234
1.960313192530604 -1.5 10.03314825666758
-1.446839565042975 -1.5 14.71910239957891
5.167271387718664 -1.5 8.536105144004466
1.893570778701577 -1.5 6.118067394790361
-0.9458746721176805 -1.5 8.041354523304824
-1.219943569641051 -1.5 11.54669297477309
-4.74307189432599 -1.5 8.304508619101526
-4.205123093523969 -1.5 22.86028170640305
1.532833653061624 -1.5 24.75537449134492
-4.491585088040614 -1.5 16.06848864564512
3.473773064202671 -1.5 2.778190668441357
-3.393206486141781 -1.5 2.621754470036035
-1.246590700512883 -1.5 18.58042784300882
-2.088554357753948 -1.5 5.502175341072083
-4.564255004356236 -1.5 25.70857458197725
-1.135153010749635 -1.5 22.28248783008043
4.363803463893735 -1.5 25.48055689543033
6.169512501725004 -1.5 2.488179559319825
-6.169512501724984 -1.5 2.48817955931984
-2.907261192899505 -1.5 9.984521428736809
-1.677063065850169 -3.599562970502608 28
1.092487226372924 -4.065382839656585 28
4.098470638881822 -9.479816147688613 0
-7.099295739719495 7.814668436628774e-14 0
7.099295739719569 1.698500362568311e-13 0
1.27675647831893e-15 -5.551115123125783e-17 0
3.549647869859776 -5.551115123125783e-17 0
-3.549647869859773 1.110223024625157e-16 0
-10.35522765774104 6.750155989720952e-14 0
-9.770542543260143 3.411256196175788 0
-9.712246808200572 -3.507774616004609 0
-8.077142184094621 6.468110042961442 0
7.177586718607229 -7.420466418490129 0
8.935881143994854 -3.209627415059868 31.83128104831302
8.622259865243404 3.210721483584408 35.56901948640535
9.560740229175035 3.210769427521803 24.32635413700642
9.70479363407347 -3.716355517672122 20.43117751032401
7.572575793799106 -4.09758946533286 43.0725261603211
-11.73088669374763 -1.940162152660217e-14 3.419408766471456
-2.93356341489342 11.36350050067426 3.353765747894174
-7.290541649137687 1.984803379761022 56.46779818220659
7.694330858993568 3.154194830285126 46.81285440877583
-2.550778283412737 -11.45591304092289 3.348636435899146
10.49497893106745 3.195253963268123 13.07967085456085
-1.949325425597162 -7.274981528814155 56.7762135102464
10.30028872730695 -3.761722649871375 13.14206888421812
-1.976212442307552 7.275357946767365 56.68260865122541
7.358006790879124 -3.190129739543207 50.57323636838945
7.525537753436183 9.008657493085222 3.324163033449048
4.712243512000845 -10.74283313214679 3.419408766471714
-9.257317901175377 7.20525973842184 3.419408766471709
-9.257317901175359 -7.205259738421862 3.419408766471709
7.037746588842867 3.184812749282433 54.32125868882564
11.10107250334919 -3.225331996075627 5.589093889147453
4.860641625241934 -5.775290174685608 56.56170290324955
11.10107250334962 3.22533199607392 5.589093889148325
8.302498260544249 3.219399699765722 39.32785339379618
6.767990550768168 6.028531846019131 37.31046639484082
7.1561374373903 6.029827549225469 33.57185725044894
4.459516505363632 8.07916914395812 35.2186546684297
4.03726469586814 7.96948964214527 38.96012839271994
4.877740297785107 8.178981872165188 31.4728916166187
7.520309771481806 6.052851286960895 29.81378956583192
5.277334135415425 8.280104071247269 27.71377373905037
1.923148430858776 9.49895701911773 29.32997136373502
2.464358994756387 9.680334675724991 25.55101784553294
-1.103463566948654 9.80808709383358 27.06466390609456
-0.5956968721073074 10.14822986869925 23.30701150773297
-3.982604614699079 9.229425708488868 24.75122265255619
-4.40212492057993 8.707793630796385 28.49655016365561
-3.553124035786846 9.718833925803832 20.99106814265381
-6.570573797032475 7.854840132300438 22.35463580261689
-6.253481667766271 8.480387363219215 18.59241302623172
-8.665669585966803 5.814376506269245 19.87816128611652
-8.8118071220996 5.018929650410747 23.622263861378
-10.04801131282863 2.447857024148282 21.06837938141427
-9.929237850984048 1.548383401381416 24.78673642794851
-10.18091864893847 -1.242852275936011 22.15327163310771
-9.737143862762657 -2.122814665780092 25.84623298060024
-9.015913597590666 -4.724573926518793 23.14033575231139
-8.222622840338536 -5.497644949143086 26.79498012324179
-9.197202449421399 -3.009072282229524 29.51735401381464
-9.712632359766667 -3.902713115655338 19.4735692795692
-7.659489634273101 -7.029596552183039 20.37696775713825
-3.108460018816291 10.18166752779877 17.20923716048111
-7.332394637012778 -6.204057620828051 30.43247349677862
-8.558227217383159 -3.862089403382325 33.17206625808665
-6.323319077861125 -6.84704837718311 34.04987777709021
-7.802784747782774 -4.688778697823762 36.80744187430816
-5.568695792453771 -8.09431811440656 27.63746084531024
-9.096661336310383 -1.22337936950202 35.84983521480454
-8.605894975505427 -2.241471304483646 39.47805456937944
-6.93250904852404 -5.449707920275151 40.42979322884231
-8.05187039335263 -3.033739004321929 43.14482714337586
-6.011723089674582 -6.057232799697049 44.03841944630597
-10.10124492618864 3.328350766599845 17.33808968193387
-8.663007553761998 0.5998598237039277 42.13693856384484
-8.588516489312555 -6.354532359063732 16.72443320626577
-5.844774745359044 -8.86427249187833 17.56308952470697
2.941860420317556 9.857248191706278 21.76726302345099
1.158669650468643 9.03210376952226 36.77023705870678
0.6933706929698074 8.78474499369918 40.50654184873146
-4.053644662027241 -7.759752545423802 41.23470420985013
-2.844165801744913 -7.982613764245725 44.80003447762223
-5.888564046916641 9.094015674331169 14.81499397023413
-7.382172758807954 -3.834128417944132 46.77821876145224
-6.969582184328739 -8.386510101814606 13.91935175143824
-3.665200507920996 -10.20588281799837 14.6875507943682
-2.350077137213913 -10.29472361075972 18.30259210460662
0.07553110968990209 -10.790865310309 15.36015418386934
-9.378847619607839 -5.690641384593466 13.08433190179717
-2.311248829162325 8.68984928207667 38.22076711079207
-2.639135406717508 10.62160768464617 13.41052532800753
1.435635350978262 -10.41164542148404 18.93024469472615
-0.4992510633867022 -8.686669944972206 41.9177071004563
3.79373459855749 -10.05438836810804 15.92966011599398
-2.757987307179771 8.249994504228161 41.94588238741866
0.2268866609168426 8.514846963692476 44.24466636791801
-3.191779749716208 7.77645302230333 45.66621804219201
-0.3424409564484934 8.224955519104729 47.87594907848778
0.8608134322278648 -8.380456574966457 45.43039258434479
2.495886955657835 -10.73870671259418 12.38932838377752
-3.694056164938622 7.232952242058065 49.27875684583398
-5.535450030340695 9.660184010117954 11.006765210722
-1.526336930167138 -8.052226267239824 48.33933574731471
0.4339958998891368 10.75222231364161 15.74327334070982
0.8872411807343293 11.02633383812585 11.91876990433474
3.899735232150885 10.16226858855371 14.16951202078918
-0.9954818056051791 -10.22920517479757 21.88605669909299
2.76310166827729 -9.8513478558078 22.47080313894162
-4.990185696266556 -9.94101287081771 11.14073637672548
-1.84588623745506 -8.787155483135971 38.38618284966641
1.886655669594991 -8.730264915261001 38.98521729892652
0.5410721387641145 -9.19155967954128 35.48244093734903
4.145568396504175 -8.175410302439332 36.00417561042057
2.950023836117683 -8.967850568601888 32.52022265272029
4.329004523104911 10.31183016319619 10.3726567507444
-8.270089244682614 7.295942834354392 12.34560694739109
-6.049435113366516 5.687507062443022 46.97208990597355
-5.428992488725052 7.03404349020901 39.57374848427829
-5.069747270990484 7.650882504657127 35.85507093009757
0.3716413363293406 -9.991023053004692 25.43867659330661
4.03324073990422 -9.10171135749216 25.98026041611122
5.982174370457127 -9.213810336214477 12.89073336617302
-8.926368026854707 4.161145818476097 27.33596197948327
-6.300501365310152 4.950362650008269 50.66420613310064
7.040122809903528 -8.070831683644185 16.39245551701516
2.198198588283567 -7.8478450458308 48.92025326624263
-0.818829390046811 -9.449261608988049 31.96025675374488
6.127522425289398 -8.146239110412097 22.95357159022817
7.111026085164046 -6.91872385323758 26.41031431670672
-7.549656475177702 5.042850996587743 37.11523124733927
-7.326574321198529 5.841928717013131 33.41059098966979
-7.822159920924947 2.486719779780418 48.18293683301264
1.358780479410735 11.28171290610576 8.090742999016728
6.9743612106411 8.525011746845724 12.52292840378263
6.562798032367787 8.468744823356717 16.34008388346227
3.12887778423924 7.735123082254223 46.45413632038139
2.099714689986831 7.76263522904963 50.2962590626429
5.010368951176321 -7.349413351349717 39.45515938593602
4.238420680522895 -7.258454086765489 45.67476929793043
4.927156738061048 -10.12718793168021 9.374829603413234
7.724279739093391 -8.149610525596739 9.802023923998254
1.18047787897672 -11.24083036530029 8.860729036336826
7.054616888814406 -5.803062735154809 36.40680156443097
-7.699837697730925 1.860065299637516 51.82451670827017
-0.3428510874283264 -7.913562912141503 51.82878249784659
-3.944806773720175 -6.927426028780874 51.18222809141462
7.486268535548584 8.468753366001522 8.852744863905293
3.371503342409563 -7.109057526627939 52.50178789568257
-8.125011275598029 7.883979281285977 8.62308171730044
-10.11000936921544 4.877092686233505 9.848611831787444
-5.113443496053126 10.22772513755488 7.182094268399173
-3.620614168645694 6.929570663550996 53.13192608227502
-5.230911528343735 5.427046204952969 56.70029261565299
-0.2764209289121197 7.800613248103184 53.2960574809453
1.816579166018117 7.315415645173059 56.70029261565298
5.056856414803113 -8.25682881401521 29.44911456719772
-8.930218856799199 2.511631928773117 34.60284784198793
-8.827055701852084 1.696372259440271 38.2637043724431
-7.750443780389103 4.117328639882669 40.96219950033299
6.474313839368746 -9.494828380337871 6.453402192066633
3.462750173233722 10.00262008976749 17.97878608577519
6.106301992634126 8.437765608772397 20.13287634160594
8.637159890356605 6.056929124173484 18.43337847764959
-3.347328415562879 -9.475274014786958 24.78789353244688
5.007461223649528 -9.191722646706621 19.47597515781388
5.699365468849359 8.357993765545501 23.93511693780794
-0.09916712240878499 10.46296064890472 19.52396554701501
7.924862414640606 -6.788065805585174 19.89004660729208
9.385186467205346 -5.092089630097272 16.80270890408975
5.879694935561798 -7.338292386419282 32.99467694286027
3.591089673844734 7.857163136165242 42.70657147691796
1.574023060690266 -9.585579553438988 29.04698050911528
-6.66057327018513 -7.605331416609971 24.01962713802963
8.939159099780769 3.201831944745365 31.82551795508443
7.977279881142592 3.242115591876951 43.06207537169645
7.665094419861371 -3.182708045379109 47.01808378493669
8.316348186140358 -3.169789971389326 39.38979460182681
7.369208621376822 3.164237160371063 50.5728871593084
2.084659053122953 -7.243572840188674 56.70038960242871
8.753290251111043 -6.585876031353457 13.28852259924919
-5.345356727469243 -5.306229458012984 56.77310623084348
-7.315382307578586 -1.816746427087778 56.70019150813178
-6.756053512940534 -3.88099370192657 53.47496043313234
-5.760160975062185 6.378327908988004 43.27313050817536
9.103581900824111 -3.615041720446022 28.01607553126607
9.543862853863963 -3.245777242835507 24.38709715418363
-6.933981761610343 7.131347321409828 26.0900482330313
3.077099808837167 -8.092545564478401 42.46643083408075
-4.655410230908504 -9.218889078357034 21.24897190123682
9.878638670053299 3.190145935112773 20.57172976301183
10.80596429120219 3.182970038162902 9.339095714118459
-9.737677903565029 0.6240718197189725 28.49169108418937
1.522364659214954 9.277103749593383 33.02109659154956
-1.86554288413902 9.09833692790696 34.46398730650069
-8.47531414603425 6.581642965062078 16.12736313122856
10.8023983141443 -3.225268777581443 9.229724530980288
7.864792131608759 6.09146869074313 26.07425478365716
-2.223438877486215 11.01755369025533 9.660915401282498
-9.46269295849685 -0.3017439701300796 32.17842913675231
-4.901866587110449 -6.634383711985187 47.66302087526135
-10.11893052210904 4.135984518513699 13.5757483365071
-11.04570229378027 1.417778117453126 10.97408873916896
-11.1241444567196 2.647147085938113 7.181921082719397
-11.28527931994659 -1.202941436116748 8.269054296552863
-10.8656181941605 -4.046164477190875 5.151995904481852
-8.847695656744817 -7.226128440774727 7.323848781406489
-6.939772849299122 -9.217087832009843 5.875931903523104
-10.82714394051288 0.5278252840059326 14.73917086308426
-3.115497476570217 -8.715448388138109 34.87143422231924
-5.229640263152236 -7.365231261708002 37.69883132096179
5.140043580034561 5.521525034236217 56.622763737726
-10.53955916729599 -0.3407720649125348 18.48667958375673
-10.29366463588529 -3.117544686562745 15.81414988758007
-1.294949615656123 -10.99434955358659 11.81234188937588
-8.389290466434943 -0.321119267333593 45.800353531327
9.251255925413759 3.207691907416395 28.06064660747617
-7.880977765812449 -1.786091514378094 49.79768210871775
6.059667810469477 5.927271619625639 44.76950999848624
5.481403254688127 6.062833914569921 48.62213112262966
6.380574006618952 6.009592391538848 41.10333985809993
8.227613386681865 6.107958874817013 22.27411661432084
5.299283605554569 5.8321892922704 52.34759739794782
7.03759725001755 -3.185082735785535 54.32157302866641
-4.386440564869988 -8.473881615827679 31.23333834518499
-2.153039029136757 -9.526522911724529 28.37560465105431
-7.11937660538018 6.525220326616389 29.76644410247238
-8.930190779802068 3.40979617710592 31.01548930385376
-11.07844094565738 3.830840236728569 3.531291521772172
9.480167587765068 -6.459705938411934 6.711869763525177
1.131937679155929 -11.68135689486795 3.35352546334882
-7.796539518917633 3.355283378519763 44.62582945454445
-6.433942319861685 9.815429035037143 3.351966923415254
4.488214955899196 10.84588135477766 3.330881111054233
0.8062451548362479 11.71199868361771 3.307214945615138
-4.771250776723305 8.174871654646743 32.20543957768486
-1.555418112633602 9.448706246322631 30.80143305507157
5.4448706571658 -6.018579708373646 49.35053740780478
10.21241057880971 3.107581119887502 16.83883671378939
-10.82904069505969 -2.18198203907798 12.11306243704524
9.282210415544268 6.140463112173986 11.06135220984365
8.933168127854586 6.139088784240783 14.74839696370825
-2.897317330173098 -10.95486373229127 8.493764356093445
9.672386059089398 6.067501565908564 7.395621358046155
-7.899979161008796 -7.912886612018402 10.40144731209247
10.2057721168325 -5.8146822200432 3.227485356437227
-6.553293041883128 -4.68613858002691 50.1082177617571
9.914881402607806 6.29262761858319 3.263337848972882
6.055163101500312 -6.126535124299131 43.02436214200029
8.733452378570876 -2.889738086058927 35.58857690392909
7.714595251605263 -5.79890128118807 29.84658859491528
8.033773104559421 -8.594522446817265 2.990223427871836
5.100719733101596 10.26435876927348 6.837623852811777
-6.291010219034097 4.55192957170541 53.80942920959694
-9.890750823364424 5.859543213562728 6.402168421973619
-10.21710604901414 -4.624394297428699 9.975473304131066
3.430126234234681 -10.96580552141809 6.483174171299474
-0.999779040201681 11.45536490015364 6.366945536215883
-6.345277297931435 -9.923592846785066 2.810553407270798
8.116102340362756 -6.168326294787622 22.94632728978354
-3.626286406178197 -6.820466480483968 54.32470733767266
-7.721740298503523 -0.8891513320684606 53.71212352649867
2.617716920624073 7.322551546312288 53.66608476339557
5.841543164577506 -5.29052961688291 52.33430258056747
-0.7472271538335833 -11.49132970280215 6.154905767394699
6.974283203917073 2.738681650490269 57.27029496481619
6.818876782247138 -3.132958185713934 57.12498708662163
10.42125197722616 -2.306573732326239 16.85527288830041
9.520320641007455 -5.85682461970829 10.44949298632567
11.46410595137761 2.734906707860012 2.721475900470036
11.46410595137739 -2.734906707861941 2.721475900467181
-0.3276914827224287 -7.692010784311012 54.64954284913402
-4.35530711485352 -10.68030404344423 5.918646620413151
7.78819945856058 -5.172834946989592 33.67703327991393
-7.815478025073531 8.512649027717144 5.638391453980566
-1.201845431813311 7.922886912290853 50.65297819566974
6.50475915709856 -5.323754050037014 45.67107836584796
6.929792522788655 -5.480450474366254 40.21503961159589
-6.286414415877529 -9.41340704443253 8.646483565153526
-11.19151833672801 -3.853912192044479 2.077470048225951
2.633898073030535 11.25369471867767 5.618506165343842
8.007198785866892 8.272761987146408 6.185353397973196
7.124552989611859 4.292900812943576 8.666297118066815
6.535176505306454 4.199684902824409 15.65072278415061
2.579780541998994 8.189057104393951 5.262937924727398
4.369932193528881 5.469276248088756 25.4039783485599
2.816309264845866 7.531617947843023 12.18589364400249
6.755388806333396 5.617658137566788 2.719442449965966
2.82157184729088 6.938002237806996 19.18887756487295
2.730622515199222 7.856151818526215 8.676098410005386
6.885544310564068 4.158877026184493 12.14630831432672
2.631312709783454 7.307022021972591 15.67485806894689
6.139252145362752 4.295079130472545 19.15412422968573
5.8394568522874 4.249034186407853 22.5949187264887
2.917995726208796 6.605478288039891 22.60064180636999
5.424097849009784 6.544436534258723 6.352738353445089
4.417984229931256 7.605437004319588 2.598103628135896
7.476304277752905 4.181682638068599 5.510607090464535
5.196248460986729 6.335855609681328 10.23931822803468
5.045764598885189 6.099438422509584 13.77365959535902
4.829599100740659 5.919128490905719 17.28749898567113
6.003417270702359 3.574386551184058 25.57841835660174
2.17460109234263 6.631471034630021 25.68028027575176
4.621020632258042 5.754973267724844 20.57617605372929
2.169472995497902 8.540730906253787 2.389232598540442
7.996979243509027 3.708975677004701 2.347799218989952
-0.0808449048656108 1.5 2.91951903015476
-4.861487999121113 1.5 12.01356028263488
4.30785544744707 1.5 19.56540017156103
4.720154635513296 1.5 12.0455295977678
-4.083998858129304 1.5 22.53205023749914
1.762132658246884 1.5 25.18247311903806
-5.599414460204223 1.5 5.143378026383189
5.423588777505417 1.5 5.007848009044989
-4.319069290325249 1.5 19.01516252529169
-1.516746196795333 1.5 20.76204120880932
-1.566111975381077 1.5 17.0771240316025
-4.610794513786761 1.5 15.52432815786189
-1.717642238196142 1.5 13.54208804804234
-1.960313192530606 1.5 10.03314825666758
1.446839565042975 1.5 14.71910239957891
-5.167271387718664 1.5 8.536105144004466
-1.893570778701587 1.5 6.118067394790356
0.945874672117661 1.5 8.041354523304829
1.219943569641051 1.5 11.54669297477309
4.743071894325984 1.5 8.304508619101522
4.205123093523969 1.5 22.86028170640305
-1.532833653061619 1.5 24.75537449134491
4.491585088040613 1.5 16.06848864564513
-3.473773064202648 1.5 2.778190668441352
3.393206486141752 1.5 2.621754470036028
1.246590700512883 1.5 18.58042784300882
2.088554357753937 1.5 5.502175341072079
4.564255004356235 1.5 25.70857458197725
1.135153010749637 1.5 22.28248783008043
-4.363803463893737 1.5 25.48055689543032
-6.169512501724991 1.5 2.488179559319807
6.169512501724977 1.5 2.488179559319823
2.907261192899499 1.5 9.98452142873681
-7.124552989611494 4.292900812944219 8.666297118066579
-6.534047370201038 4.201424028893991 15.65084245857893
-2.99274871160853 8.051942115718852 5.207904509288936
-4.369932193528881 5.469276248088756 25.4039783485599
-2.98592370125301 7.464376813345588 12.20501982772072
-6.755388806333396 5.617658137566789 2.719442449965966
-2.977516438905062 6.871419812626524 19.20171081029023
-2.988578298408844 7.759272521393148 8.70475474447527
-6.88548334525472 4.158976849107257 12.1463156139197
-2.98200321320007 7.168622147623618 15.70340380983168
-6.139267781089751 4.295030989081535 19.15431209273942
-5.839522987208749 4.248923999235376 22.59506298077129
-2.91799572627101 6.605478288013966 22.60064180635188
-5.60588807186474 6.390140960348076 6.34571615450146
-4.417984229930813 7.605437004318839 2.598103628146969
-7.478044271758467 4.192770233345199 5.422481953830932
-5.312717475183873 6.238627736976318 10.23824934635705
-5.045764598882423 6.099438422511906 13.77365959535868
-4.866351360516566 5.888624984320306 17.29068396650062
-6.002361866848172 3.562877679910196 25.6646719432176
-2.183962085460434 6.634827958854613 25.60263196836162
-4.64550862438728 5.730303230264971 20.62475695747976
-2.43351786162199 8.472644409901484 2.348134425770168
-7.97293621679957 3.747670855636514 2.416595586001084
-3.701498499457172 0.7003160221705068 60
3.851738121937664 -0.931509262873081 60
-1.119158375460275 -3.801457693759516 60
1.269397997940749 3.570264453056938 60
2.100948066511433 -3.638948795261449 60
0.6201842895985421 -1.130840590299121 60
-1.762894954313782 -1.284003716926086 60
-3.967207069091672 -2.387823063885131 60
1.906222097854563 0.8343620008315338 60
4.041174800508617 2.235818364301867 60
-0.7050019238897451 1.138717118726257 60
-2.179815903366991 3.771498029878741 60
0.9481475602007088 4.14817610445534 28
-1.699376416089873 3.755643522949332 28
3.133500820877061 4.000127502842249 28
0.00072976952928272 1.77635683940025e-15 36.94029006888236
0.5246755264409328 0.3350566803778547 52.90059838570973
-0.5134290884917485 -0.4183195074918791 44.82776747339453
2.007124110907248 3.576703140806864 33.32975981254229
-2.811012302180428 -2.795657404223364 33.24134421608397
3.790438586057538 -1.534052854187964 33.39223019996157
-3.196214546484642 2.504221947213613 33.21682649997062
3.067652624422113 1.627763997723551 41.19813252450687
0.7942120254369844 -3.812377023331949 40.46045179870562
-2.152992931729433 2.977082679141707 40.96606711249209
3.069284219824232 1.180621166922991 48.31229336084382
-3.681791995849199 -1.752999652515961 41.14368380870524
-0.008146716211313354 -3.18469391695742 49.15927186504288
-2.204649359394514 2.27216982311088 48.93247761015221
1.119045206386089 4.465657825854124 37.85121941474556
-1.778693991615293 -2.62907540586125 55.5852880714453
0.8773709537628371 -4.476233752372718 35.68242629834339
4.475809331487467 1.611638586671198 36.63632509831283
-4.630225619184144 -0.2480087048470013 36.67332275457251
1.060549954955612 3.958529988759388 44.68988039039795
3.369322616750334 0.4916521623208275 56.03769920416193
0.04558630217465243 0.07015779312891191 31.98735638726937
-2.353264180879995 1.944870632165471 55.92156547900326
-1.258105514604987 5.504252135040192 31.519321027022
4.193531454689659 -2.604161581940754 37.91589178907711
4.033913536912282 -1.447995530610561 44.57572435477596
5.200495334658688 1.80436525448186 31.71616885816667
-2.989218322902749 4.208124453354854 37.04425544459465
-2.809240985208449 -3.919826970099625 37.63995378614161
-3.728223949261918 -1.574052284154155 47.54327287395717
-3.64194400301263 -0.8914254083671274 51.93842204607028
-0.4764126675299701 -4.569309404705935 44.36652389717579
0.01725787516311617 -5.410673973700549 31.75315806700849
-3.59040386515474 2.867312024802401 44.96159346895538
-5.511857626691077 -0.33534566127868 31.64558267072421
3.452011299449387 -1.910987802580752 51.03247296698375
0.3755413346432297 4.234242987492444 51.41642043227985
3.762287868102732 5.122124618040191 31.02274562759487
2.200477209674522 -3.229115273574752 54.72449408890798

CELLS 3279 14931
1 0
1 1
1 2
1 3
1 4
1 5
1 6
1 7
1 8
1 9
1 10
1 11
2 0 12
2 12 13
2 13 14
2 14 15
2 15 16
2 16 17
2 17 1
2 0 18
2 18 19
2 19 20
2 20 21
2 21 1
2 2 22
2 22 23
2 23 24
2 24 25
2 25 26
2 26 27
2 27 28
2 28 0
2 2 29
2 29 30
2 30 31
2 31 32
2 32 3
2 1 33
2 33 34
2 34 35
2 35 36
2 36 37
2 37 38
2 38 39
2 39 3
2 2 40
2 40 41
2 41 42
2 42 3
2 4 43
2 43 44
2 44 45
2 45 46
2 46 47
2 47 48
2 48 49
2 49 50
2 50 51
2 51 52
2 52 53
2 53 54
2 54 55
2 55 56
2 56 57
2 57 58
2 58 59
2 59 60
2 60 4
2 5 61
2 61 62
2 62 63
2 63 6
2 5 64
2 64 65
2 65 66
2 66 67
2 67 7
2 6 68
2 68 69
2 69 70
2 70 7
2 8 71
2 71 72
2 72 73
2 73 74
2 74 75
2 75 76
2 76 77
2 77 78
2 78 79
2 79 80
2 80 81
2 81 8
2 4 82
2 82 83
2 83 84
2 84 85
2 85 86
2 86 87
2 87 88
2 88 89
2 89 90
2 90 91
2 91 92
2 92 93
2 93 94
2 94 95
2 95 96
2 96 8
2 9 97
2 97 98
2 98 99
2 99 100
2 100 101
2 101 102
2 102 103
2 103 5
2 9 104
2 104 105
2 105 10
2 6 106
2 106 107
2 107 108
2 108 109
2 109 110
2 110 111
2 111 112
2 112 10
2 7 113
2 113 114
2 114 115
2 115 116
2 116 117
2 117 118
2 118 119
2 119 11
2 9 120
2 120 121
2 121 122
2 122 11
2 10 123
2 123 124
2 124 11
3 12 168 0
3 0 168 28
3 1 172 17
3 33 172 1
3 22 165 2
3 2 165 29
3 32 166 3
3 3 166 39
3 13 133 12
3 133 168 12
3 14 155 13
3 13 155 133
3 15 129 14
3 129 155 14
3 16 170 15
3 15 170 129
3 17 131 16
3 131 154 16
3 154 170 16
3 17 172 131
3 23 132 22
3 132 165 22
3 24 161 23
3 23 161 132
3 25 128 24
3 128 161 24
3 26 152 25
3 25 152 128
3 27 127 26
3 127 152 26
3 28 159 27
3 27 159 127
3 28 168 159
3 29 149 30
3 29 165 149
3 30 130 31
3 30 149 130
3 31 150 32
3 130 150 31
3 150 166 32
3 34 171 33
3 171 172 33
3 35 134 34
3 134 171 34
3 36 126 35
3 126 134 35
3 37 153 36
3 36 153 126
3 38 125 37
3 125 153 37
3 39 151 38
3 38 151 125
3 39 166 151
3 151 160 125
3 125 158 153
3 125 160 158
3 126 135 134
3 126 136 135
3 126 153 136
3 127 164 147
3 147 169 127
3 127 169 152
3 159 164 127
3 128 156 146
3 146 161 128
3 152 156 128
3 148 155 129
3 129 163 148
3 129 170 163
3 130 149 145
3 145 162 130
3 130 162 150
3 134 143 131
3 131 171 134
3 143 154 131
3 131 172 171
3 132 161 146
3 146 167 132
3 149 165 132
3 132 167 149
3 155 164 133
3 133 164 159
3 159 168 133
3 135 143 134
3 136 137 135
3 137 157 135
3 135 157 143
3 136 138 137
3 136 158 138
3 153 158 136
3 138 139 137
3 139 141 137
3 141 157 137
3 138 140 139
3 138 142 140
3 138 158 142
3 140 156 139
3 139 144 141
3 139 156 144
3 142 145 140
3 145 146 140
3 146 156 140
3 144 147 141
3 147 148 141
3 148 157 141
3 142 162 145
3 158 160 142
3 160 162 142
3 143 163 154
3 157 163 143
3 144 169 147
3 144 156 152
3 152 169 144
3 145 167 146
3 149 167 145
3 147 164 148
3 148 164 155
3 148 163 157
3 150 160 151
3 151 166 150
3 150 162 160
3 163 170 154
3 0 204 18
3 28 204 0
3 21 203 1
3 1 203 33
3 2 200 22
3 40 200 2
3 39 202 3
3 3 202 42
3 18 197 19
3 18 204 197
3 19 173 20
3 19 197 173
3 20 196 21
3 173 196 20
3 196 203 21
3 22 193 23
3 22 200 193
3 23 175 24
3 23 193 175
3 24 195 25
3 175 195 24
3 25 176 26
3 25 195 176
3 26 192 27
3 176 192 26
3 27 180 28
3 27 192 180
3 180 204 28
3 33 179 34
3 33 203 179
3 34 188 35
3 179 188 34
3 35 174 36
3 35 188 174
3 36 184 37
3 174 184 36
3 37 181 38
3 37 184 181
3 38 177 39
3 38 181 177
3 177 202 39
3 41 178 40
3 178 200 40
3 42 194 41
3 41 194 178
3 42 202 194
3 189 196 173
3 173 199 189
3 197 199 173
3 174 185 184
3 174 186 185
3 174 188 186
3 193 201 175
3 175 198 195
3 175 201 198
3 187 191 176
3 176 195 187
3 191 205 176
3 176 205 192
3 181 182 177
3 182 194 177
3 194 202 177
3 193 200 178
3 178 201 193
3 194 201 178
3 179 189 188
3 179 196 189
3 179 203 196
3 192 199 180
3 180 199 197
3 197 204 180
3 181 183 182
3 181 184 183
3 183 198 182
3 182 201 194
3 198 201 182
3 184 185 183
3 185 187 183
3 187 198 183
3 186 191 185
3 185 191 187
3 188 189 186
3 189 190 186
3 190 191 186
3 195 198 187
3 189 199 190
3 190 205 191
3 190 199 192
3 192 205 190
3 40 2 29
3 32 3 42
3 30 206 29
3 29 206 40
3 31 207 30
3 30 207 206
3 32 207 31
3 42 207 32
3 40 206 41
3 41 207 42
3 206 207 41
3 7 209 0
3 0 214 7
3 12 216 0
3 0 209 18
3 52 214 0
3 0 216 52
3 4 1 5
3 4 60 1
3 1 210 5
3 1 60 17
3 21 210 1
3 43 4 5
3 61 43 5
3 5 210 64
3 47 46 6
3 46 63 6
3 68 47 6
3 7 214 51
3 51 215 7
3 67 209 7
3 7 215 70
3 12 13 54
3 53 12 54
3 53 216 12
3 55 13 14
3 54 13 55
3 15 56 14
3 14 56 55
3 16 208 15
3 15 57 56
3 15 208 57
3 17 218 16
3 58 208 16
3 16 218 58
3 17 60 59
3 59 218 17
3 18 213 19
3 18 209 67
3 67 213 18
3 19 211 20
3 66 211 19
3 19 213 66
3 20 212 21
3 20 211 65
3 65 212 20
3 64 210 21
3 21 212 64
3 44 43 61
3 45 44 62
3 62 44 61
3 45 63 46
3 62 63 45
3 48 47 68
3 49 48 69
3 69 48 68
3 49 217 50
3 69 217 49
3 50 215 51
3 70 215 50
3 50 217 70
3 51 214 52
3 52 216 53
3 57 208 58
3 58 218 59
3 64 212 65
3 65 211 66
3 66 213 67
3 70 217 69
3 43 476 4
3 4 477 60
3 4 476 82
3 82 477 4
3 8 472 71
3 81 473 8
3 96 472 8
3 8 473 96
3 44 454 43
3 454 476 43
3 45 234 44
3 234 454 44
3 46 440 45
3 45 440 234
3 47 441 46
3 46 441 440
3 48 225 47
3 225 441 47
3 49 439 48
3 48 439 225
3 50 236 49
3 236 439 49
3 51 435 50
3 50 435 236
3 52 224 51
3 224 435 51
3 53 486 52
3 52 486 224
3 54 237 53
3 237 486 53
3 55 465 54
3 54 465 237
3 56 228 55
3 228 465 55
3 57 437 56
3 56 437 228
3 58 235 57
3 235 437 57
3 59 458 58
3 58 458 235
3 60 452 59
3 452 458 59
3 60 477 452
3 71 418 72
3 71 472 418
3 72 362 73
3 72 418 362
3 73 232 74
3 73 362 232
3 74 360 75
3 232 360 74
3 75 226 76
3 75 360 226
3 76 389 77
3 226 389 76
3 77 388 78
3 77 389 388
3 78 230 79
3 78 388 230
3 79 386 80
3 230 386 79
3 80 240 81
3 80 386 240
3 240 473 81
3 83 239 82
3 82 241 83
3 239 477 82
3 82 476 241
3 83 398 84
3 84 403 83
3 83 403 239
3 241 398 83
3 84 229 85
3 85 231 84
3 84 398 229
3 231 403 84
3 85 445 86
3 86 474 85
3 229 445 85
3 85 474 231
3 87 222 86
3 86 397 87
3 222 474 86
3 86 445 397
3 87 221 88
3 88 393 87
3 87 397 221
3 87 393 222
3 89 392 88
3 88 423 89
3 221 423 88
3 392 393 88
3 90 219 89
3 89 381 90
3 219 392 89
3 89 423 381
3 90 220 91
3 91 456 90
3 90 456 219
3 90 381 220
3 91 242 92
3 92 384 91
3 220 242 91
3 384 456 91
3 93 223 92
3 92 382 93
3 223 384 92
3 242 382 92
3 93 227 94
3 94 383 93
3 93 383 223
3 93 382 227
3 95 233 94
3 94 385 95
3 227 385 94
3 233 383 94
3 95 238 96
3 96 430 95
3 95 430 233
3 95 385 238
3 238 472 96
3 96 473 430
3 219 457 392
3 456 480 219
3 219 480 457
3 220 243 242
3 220 244 243
3 220 381 244
3 397 428 221
3 404 423 221
3 221 428 404
3 375 376 222
3 222 466 375
3 376 474 222
3 393 466 222
3 383 483 223
3 223 484 384
3 223 483 455
3 455 484 223
3 224 411 410
3 410 435 224
3 224 412 411
3 224 486 412
3 225 439 358
3 358 464 225
3 225 464 441
3 226 460 351
3 351 468 226
3 360 460 226
3 226 468 389
3 382 425 227
3 227 426 385
3 425 426 227
3 437 471 228
3 228 479 465
3 471 479 228
3 398 447 229
3 229 448 445
3 447 448 229
3 230 478 386
3 388 467 230
3 467 478 230
3 376 387 231
3 231 474 376
3 387 475 231
3 231 475 403
3 359 360 232
3 232 361 359
3 232 362 361
3 233 444 383
3 430 470 233
3 233 470 444
3 440 459 234
3 234 488 454
3 459 488 234
3 235 458 367
3 367 463 235
3 235 463 437
3 435 461 236
3 236 481 439
3 461 481 236
3 237 413 412
3 412 486 237
3 237 414 413
3 237 465 414
3 385 429 238
3 238 429 418
3 418 472 238
3 403 436 239
3 436 452 239
3 452 477 239
3 240 386 355
3 355 470 240
3 240 470 430
3 430 473 240
3 241 450 398
3 241 454 450
3 241 476 454
3 243 427 242
3 242 427 382
3 244 245 243
3 245 246 243
3 246 427 243
3 244 247 245
3 244 248 247
3 244 381 248
3 245 286 246
3 247 400 245
3 245 400 286
3 286 287 246
3 287 378 246
3 378 427 246
3 248 249 247
3 249 250 247
3 250 400 247
3 248 404 249
3 381 423 248
3 248 423 404
3 249 251 250
3 249 373 251
3 249 404 373
3 251 252 250
3 252 443 250
3 250 443 400
3 251 253 252
3 251 285 253
3 251 373 285
3 253 254 252
3 254 255 252
3 255 443 252
3 253 256 254
3 253 374 256
3 285 374 253
3 254 394 255
3 256 257 254
3 257 394 254
3 394 433 255
3 433 442 255
3 442 443 255
3 256 258 257
3 256 270 258
3 256 374 270
3 258 259 257
3 259 260 257
3 260 394 257
3 258 402 259
3 270 290 258
3 290 402 258
3 259 261 260
3 259 281 261
3 259 402 281
3 261 262 260
3 262 330 260
3 330 394 260
3 261 263 262
3 261 419 263
3 281 419 261
3 263 264 262
3 264 399 262
3 262 399 330
3 263 265 264
3 263 268 265
3 263 419 268
3 265 266 264
3 266 267 264
3 267 399 264
3 265 380 266
3 268 269 265
3 269 380 265
3 266 271 267
3 266 275 271
3 266 380 275
3 271 272 267
3 272 406 267
3 267 406 399
3 268 283 269
3 268 420 283
3 419 420 268
3 283 284 269
3 284 396 269
3 269 396 380
3 270 298 290
3 270 311 298
3 270 374 311
3 271 273 272
3 271 431 273
3 275 431 271
3 273 274 272
3 274 276 272
3 276 406 272
3 273 417 274
3 416 417 273
3 273 431 416
3 274 277 276
3 274 278 277
3 274 417 278
3 275 380 371
3 371 432 275
3 275 432 431
3 277 365 276
3 276 365 364
3 364 406 276
3 278 279 277
3 279 282 277
3 282 365 277
3 278 280 279
3 278 288 280
3 278 417 288
3 280 291 279
3 279 422 282
3 291 422 279
3 288 289 280
3 289 407 280
3 280 407 291
3 402 408 281
3 408 415 281
3 415 419 281
3 282 366 365
3 282 438 366
3 422 438 282
3 283 292 284
3 283 296 292
3 283 420 296
3 292 293 284
3 293 294 284
3 294 396 284
3 285 369 368
3 368 374 285
3 285 373 369
3 286 297 287
3 286 401 297
3 400 401 286
3 297 302 287
3 302 303 287
3 303 378 287
3 288 300 289
3 288 317 300
3 288 417 317
3 300 306 289
3 306 310 289
3 310 407 289
3 298 309 290
3 309 323 290
3 323 402 290
3 407 453 291
3 291 424 422
3 291 453 424
3 292 316 293
3 296 451 292
3 292 451 316
3 293 295 294
3 293 421 295
3 316 421 293
3 295 299 294
3 299 314 294
3 314 396 294
3 295 301 299
3 295 307 301
3 295 421 307
3 420 446 296
3 446 462 296
3 296 462 451
3 297 325 302
3 297 326 325
3 297 401 326
3 298 405 309
3 311 312 298
3 312 405 298
3 301 372 299
3 299 315 314
3 299 372 315
3 300 395 306
3 317 318 300
3 318 395 300
3 307 329 301
3 329 332 301
3 332 372 301
3 302 304 303
3 302 391 304
3 325 391 302
3 304 305 303
3 305 343 303
3 343 378 303
3 304 308 305
3 304 324 308
3 304 391 324
3 308 482 305
3 305 344 343
3 305 482 344
3 306 333 310
3 306 346 333
3 306 395 346
3 307 347 329
3 307 349 347
3 307 421 349
3 324 331 308
3 331 359 308
3 359 482 308
3 309 356 323
3 309 358 356
3 309 405 358
3 333 352 310
3 352 353 310
3 353 407 310
3 311 313 312
3 311 368 313
3 311 374 368
3 313 322 312
3 322 340 312
3 340 405 312
3 313 341 322
3 313 342 341
3 313 368 342
3 315 327 314
3 327 371 314
3 371 396 314
3 315 328 327
3 315 335 328
3 315 372 335
3 316 449 421
3 316 485 449
3 451 485 316
3 317 319 318
3 317 416 319
3 317 417 416
3 319 320 318
3 320 345 318
3 345 395 318
3 319 321 320
3 319 334 321
3 319 416 334
3 321 377 320
3 320 350 345
3 320 377 350
3 334 379 321
3 363 377 321
3 321 379 363
3 322 459 340
3 341 354 322
3 354 459 322
3 356 357 323
3 357 408 323
3 323 408 402
3 324 339 331
3 324 438 339
3 391 438 324
3 326 337 325
3 337 366 325
3 366 391 325
3 326 338 337
3 326 442 338
3 401 442 326
3 328 379 327
3 327 432 371
3 379 432 327
3 335 336 328
3 336 363 328
3 363 379 328
3 329 387 332
3 347 348 329
3 348 387 329
3 330 433 394
3 399 434 330
3 330 434 433
3 339 351 331
3 351 460 331
3 331 460 359
3 332 375 372
3 332 376 375
3 332 387 376
3 346 444 333
3 333 355 352
3 333 444 355
3 334 432 379
3 416 431 334
3 431 432 334
3 335 466 336
3 372 375 335
3 375 466 335
3 336 457 363
3 336 393 392
3 392 457 336
3 336 466 393
3 338 364 337
3 364 365 337
3 365 366 337
3 338 434 364
3 433 434 338
3 338 442 433
3 339 424 351
3 422 424 339
3 339 438 422
3 340 464 405
3 459 487 340
3 340 487 464
3 342 448 341
3 341 447 354
3 341 448 447
3 368 369 342
3 369 370 342
3 370 448 342
3 344 426 343
3 343 425 378
3 343 426 425
3 361 469 344
3 344 482 361
3 344 429 426
3 344 469 429
3 350 484 345
3 345 455 395
3 345 484 455
3 395 455 346
3 346 483 444
3 455 483 346
3 347 367 348
3 349 463 347
3 347 463 367
3 367 436 348
3 348 475 387
3 436 475 348
3 421 449 349
3 449 471 349
3 349 471 463
3 377 480 350
3 350 456 384
3 384 484 350
3 350 480 456
3 424 468 351
3 352 467 353
3 355 478 352
3 352 478 467
3 390 453 353
3 353 467 390
3 353 453 407
3 447 450 354
3 450 488 354
3 354 488 459
3 386 478 355
3 444 470 355
3 356 461 357
3 358 481 356
3 356 481 461
3 357 409 408
3 357 410 409
3 357 461 410
3 405 464 358
3 439 481 358
3 359 460 360
3 361 482 359
3 362 469 361
3 418 469 362
3 363 457 377
3 364 434 406
3 366 438 391
3 367 458 436
3 369 428 370
3 373 428 369
3 370 428 397
3 397 445 370
3 445 448 370
3 380 396 371
3 404 428 373
3 457 480 377
3 425 427 378
3 382 427 425
3 444 483 383
3 426 429 385
3 389 390 388
3 390 467 388
3 389 468 390
3 424 453 390
3 390 468 424
3 398 450 447
3 406 434 399
3 400 443 401
3 401 443 442
3 403 475 436
3 409 415 408
3 410 411 409
3 411 446 409
3 409 446 415
3 410 461 435
3 412 462 411
3 411 462 446
3 413 462 412
3 414 485 413
3 451 462 413
3 413 485 451
3 465 479 414
3 479 485 414
3 415 420 419
3 415 446 420
3 429 469 418
3 436 458 452
3 463 471 437
3 441 487 440
3 440 487 459
3 464 487 441
3 449 479 471
3 449 485 479
3 454 488 450
3 61 5 512
3 5 103 512
3 6 63 511
3 106 6 511
3 97 9 508
3 9 104 508
3 105 10 509
3 10 112 509
3 62 61 494
3 494 61 512
3 63 62 503
3 62 494 503
3 63 503 511
3 98 97 500
3 500 97 508
3 99 98 499
3 499 98 500
3 100 99 490
3 490 99 499
3 101 100 497
3 100 490 497
3 102 101 489
3 489 101 497
3 103 102 504
3 102 489 504
3 103 504 512
3 104 105 492
3 104 492 508
3 492 105 509
3 107 106 491
3 491 106 511
3 108 107 496
3 107 491 496
3 109 108 493
3 493 108 496
3 110 109 498
3 109 493 498
3 111 110 495
3 495 110 498
3 112 111 501
3 111 495 501
3 112 501 509
3 489 497 505
3 489 502 504
3 502 489 505
3 497 490 506
3 490 499 507
3 506 490 507
3 496 491 502
3 502 491 503
3 503 491 511
3 500 492 501
3 492 500 508
3 501 492 509
3 493 496 505
3 498 493 506
3 493 505 506
3 494 502 503
3 502 494 504
3 504 494 512
3 495 498 507
3 501 495 510
3 495 507 510
3 496 502 505
3 505 497 506
3 498 506 507
3 499 500 510
3 507 499 510
3 500 501 510
3 5 64 544
3 103 5 544
3 67 7 543
3 7 113 543
3 9 97 540
3 120 9 540
3 119 11 542
3 11 122 542
3 64 65 537
3 64 537 544
3 65 66 513
3 65 513 537
3 66 67 536
3 513 66 536
3 536 67 543
3 97 98 533
3 97 533 540
3 98 99 515
3 98 515 533
3 99 100 535
3 515 99 535
3 100 101 516
3 100 516 535
3 101 102 532
3 516 101 532
3 102 103 520
3 102 520 532
3 520 103 544
3 113 114 519
3 113 519 543
3 114 115 528
3 519 114 528
3 115 116 514
3 115 514 528
3 116 117 524
3 514 116 524
3 117 118 521
3 117 521 524
3 118 119 517
3 118 517 521
3 517 119 542
3 121 120 518
3 518 120 540
3 122 121 534
3 121 518 534
3 122 534 542
3 529 513 536
3 513 529 539
3 537 513 539
3 514 524 525
3 514 525 526
3 514 526 528
3 533 515 541
3 515 535 538
3 515 538 541
3 527 516 531
3 516 527 535
3 531 516 545
3 516 532 545
3 521 517 522
3 522 517 534
3 534 517 542
3 533 518 540
3 518 533 541
3 534 518 541
3 519 528 529
3 519 529 536
3 519 536 543
3 532 520 539
3 520 537 539
3 537 520 544
3 521 522 523
3 521 523 524
3 523 522 538
3 522 534 541
3 538 522 541
3 524 523 525
3 525 523 527
3 527 523 538
3 526 525 531
3 525 527 531
3 528 526 529
3 529 526 530
3 530 526 531
3 535 527 538
3 529 530 539
3 530 531 545
3 530 532 539
3 532 530 545
3 68 6 568
3 6 106 568
3 7 70 569
3 113 7 569
3 112 10 566
3 10 123 566
3 11 119 565
3 124 11 565
3 69 68 560
3 560 68 568
3 70 69 551
3 551 69 560
3 70 551 569
3 106 107 548
3 106 548 568
3 107 108 553
3 548 107 553
3 108 109 550
3 108 550 553
3 109 110 555
3 550 109 555
3 110 111 552
3 110 552 555
3 111 112 558
3 552 111 558
3 558 112 566
3 114 113 561
3 561 113 569
3 115 114 546
3 546 114 561
3 116 115 554
3 115 546 554
3 117 116 547
3 547 116 554
3 118 117 556
3 117 547 556
3 119 118 557
3 118 556 557
3 119 557 565
3 123 124 549
3 123 549 566
3 549 124 565
3 554 546 562
3 559 546 561
3 546 559 562
3 547 554 563
3 556 547 564
3 547 563 564
3 548 553 559
3 548 559 560
3 548 560 568
3 549 557 558
3 557 549 565
3 549 558 566
3 553 550 562
3 550 555 563
3 562 550 563
3 559 551 560
3 551 559 561
3 551 561 569
3 555 552 564
3 552 558 567
3 564 552 567
3 559 553 562
3 554 562 563
3 563 555 564
3 557 556 567
3 556 564 567
3 558 557 567
3 71 579 8
3 8 571 81
3 8 579 571
3 72 579 71
3 73 573 72
3 573 579 72
3 74 581 73
3 73 581 573
3 75 581 74
3 76 570 75
3 570 581 75
3 77 577 76
3 76 577 570
3 78 577 77
3 79 572 78
3 572 577 78
3 80 574 79
3 79 574 572
3 81 574 80
3 571 574 81
3 570 577 576
3 576 580 570
3 580 581 570
3 571 575 574
3 571 578 575
3 571 579 578
3 574 575 572
3 575 576 572
3 576 577 572
3 578 579 573
3 573 580 578
3 573 581 580
3 575 580 576
3 578 580 575
3 120 104 9
3 10 105 582
3 123 10 583
3 10 582 583
3 124 122 11
3 105 104 584
3 104 120 584
3 582 105 584
3 120 121 582
3 120 582 584
3 121 122 583
3 582 121 583
3 122 124 583
3 124 123 583
4 605 607 362 621
4 238 586 385 620
4 425 592 382 610
4 238 605 586 620
4 573 362 605 607
4 585 593 592 594
4 401 588 599 608
4 425 604 592 610
4 585 593 594 596
4 377 590 32 617
4 238 385 95 620
4 580 578 575 605
4 95 605 238 620
4 238 429 385 586
4 573 578 580 605
4 592 593 587 594
4 227 425 382 610
4 587 594 593 596
4 586 595 385 620
4 366 594 596 603
4 362 469 605 621
4 401 588 286 599
4 227 604 425 610
4 385 586 429 595
4 287 599 378 604
4 401 608 599 612
4 366 596 365 603
4 429 586 238 605
4 586 607 605 621
4 400 588 401 608
4 599 608 588 612
4 401 400 286 588
4 592 378 599 604
4 287 594 599 604
4 227 595 604 610
4 580 605 575 607
4 366 282 365 596
4 582 120 584 588
4 120 584 588 622
4 429 595 586 621
4 418 362 469 605
4 460 607 598 621
4 280 596 614 616
4 594 603 366 612
4 395 455 593 616
4 455 484 593 610
4 460 598 607 615
4 484 609 593 610
4 377 601 590 617
4 32 590 207 617
4 584 582 588 622
4 280 596 279 614
4 246 427 378 599
4 422 614 596 618
4 427 592 378 599
4 287 303 302 604
4 346 597 610 616
4 359 460 598 621
4 32 219 3 590
4 287 302 594 604
4 377 457 32 590
4 31 363 32 617
4 124 433 591 608
4 377 32 363 617
4 243 427 599 602
4 592 599 427 602
4 359 607 460 621
4 444 346 597 610
4 586 605 429 621
4 469 429 605 621
4 361 362 232 607
4 42 207 32 590
4 245 599 588 602
4 279 596 422 614
4 304 305 598 604
4 442 591 433 608
4 480 457 377 590
4 366 603 365 612
4 444 610 597 620
4 455 610 593 616
4 573 362 418 605
4 422 596 282 618
4 362 607 361 621
4 219 32 457 590
4 588 591 585 612
4 207 590 42 606
4 418 469 429 605
4 350 590 377 601
4 575 605 600 607
4 395 346 455 616
4 280 279 291 614
4 219 3 590 611
4 207 590 606 617
4 593 596 288 616
4 29 589 431 617
4 274 589 272 603
4 597 600 352 623
4 591 588 608 612
4 377 363 321 617
4 304 604 598 618
4 592 599 594 604
4 219 457 480 590
4 444 483 346 610
4 573 605 580 607
4 287 594 297 599
4 206 589 29 617
4 302 604 304 618
4 297 287 302 594
4 124 591 434 619
4 588 585 599 612
4 288 596 593 613
4 359 460 331 598
4 245 243 599 602
4 592 609 92 610
4 426 344 343 621
4 338 433 442 591
4 305 598 604 621
4 271 589 29 619
4 271 272 589 619
4 271 431 29 589
4 333 597 346 616
4 460 331 598 615
4 337 603 591 612
4 42 32 3 590
4 350 377 320 601
4 302 594 604 618
4 288 596 280 616
4 242 592 427 602
4 272 603 589 619
4 427 425 378 592
4 245 286 400 588
4 243 427 246 599
4 244 602 588 611
4 377 321 601 617
4 245 286 588 599
4 364 591 337 603
4 573 232 362 607
4 308 304 305 598
4 90 590 456 602
4 418 429 238 605
4 29 431 30 617
4 590 601 350 609
4 353 600 597 615
4 593 609 592 610
4 378 592 425 604
4 346 610 455 616
4 353 352 597 600
4 124 434 11 619
4 280 614 407 616
4 444 346 333 597
4 582 606 588 608
4 206 29 30 617
4 326 591 608 612
4 242 427 243 602
4 271 273 431 589
4 596 614 587 618
4 416 601 589 613
4 326 591 442 608
4 384 92 609 610
4 31 321 363 617
4 384 609 223 610
4 41 207 42 606
4 302 303 304 604
4 337 366 365 612
4 422 279 282 596
4 416 589 601 617
4 223 609 484 610
4 592 602 92 609
4 401 599 286 612
4 416 431 589 617
4 288 593 317 613
4 121 606 582 608
4 455 223 484 610
4 42 120 606 611
4 274 589 603 613
4 246 378 287 599
4 326 608 401 612
4 274 273 272 589
4 587 614 596 616
4 317 593 318 601
4 277 365 596 603
4 401 286 297 612
4 274 273 589 613
4 588 585 591 606
4 300 317 288 593
4 350 480 377 590
4 120 588 606 611
4 416 431 273 589
4 585 588 590 606
4 318 593 345 601
4 590 602 90 611
4 90 219 590 611
4 607 615 598 621
4 297 599 594 612
4 407 614 597 616
4 286 599 297 612
4 91 90 456 602
4 282 277 365 596
4 416 589 273 613
4 383 610 444 620
4 592 593 585 609
4 456 602 590 609
4 42 606 590 611
4 271 272 273 589
4 333 346 306 616
4 407 597 310 616
4 593 601 317 613
4 287 378 303 604
4 206 41 606 617
4 41 40 206 606
4 40 589 206 606
4 300 593 288 616
4 585 590 588 602
4 32 207 31 617
4 92 602 91 609
4 206 606 589 617
4 345 601 593 609
4 282 366 438 618
4 276 603 272 619
4 219 89 3 611
4 320 377 321 601
4 42 590 3 611
4 122 591 124 619
4 353 467 352 600
4 600 605 575 623
4 595 604 598 621
4 345 455 484 593
4 589 591 585 606
4 92 592 242 602
4 364 338 337 591
4 587 593 592 610
4 274 272 276 603
4 585 596 594 603
4 333 306 310 616
4 250 608 10 622
4 95 385 94 620
4 337 365 603 612
4 271 2 267 619
4 389 607 600 615
4 591 606 583 608
4 586 615 607 621
4 120 588 611 622
4 124 591 583 608
4 220 602 244 611
4 478 352 600 623
4 570 600 389 607
4 586 598 615 621
4 442 326 338 591
4 453 353 614 615
4 364 434 591 619
4 122 40 606 619
4 597 610 595 620
4 232 573 581 607
4 601 606 590 617
4 122 124 11 619
4 271 29 2 619
4 219 32 3 457
4 122 583 591 606
4 121 583 606 608
4 389 570 577 600
4 207 606 41 617
4 591 603 364 619
4 427 382 425 592
4 361 232 359 607
4 105 250 10 622
4 383 483 444 610
4 338 337 591 612
4 384 223 92 610
4 244 611 588 622
4 585 591 589 603
4 91 602 456 609
4 29 589 40 619
4 400 588 608 622
4 345 395 455 593
4 589 585 601 606
4 122 121 583 606
4 94 595 383 620
4 590 601 585 606
4 308 304 598 618
4 326 442 401 608
4 40 29 206 589
4 40 589 606 619
4 434 338 364 591
4 430 605 95 620
4 400 608 250 622
4 122 583 124 591
4 220 90 602 611
4 280 407 289 616
4 271 267 272 619
4 318 345 320 601
4 400 245 588 622
4 385 595 94 620
4 333 310 597 616
4 416 317 601 613
4 325 297 302 594
4 122 606 591 619
4 469 362 361 621
4 585 594 592 599
4 587 597 595 598
4 484 345 593 609
4 244 588 245 622
4 460 351 331 615
4 586 600 597 623
4 383 595 610 620
4 361 607 359 621
4 589 606 601 617
4 345 320 601 609
4 297 594 325 612
4 91 92 242 602
4 391 302 304 618
4 587 610 597 616
4 291 279 422 614
4 593 596 585 613
4 597 600 586 615
4 422 282 438 618
4 391 594 302 618
4 350 601 320 609
4 123 124 583 608
4 277 603 596 613
4 277 596 278 613
4 90 89 219 611
4 227 382 93 610
4 597 614 353 615
4 280 288 278 596
4 308 324 304 618
4 277 274 603 613
4 288 278 596 613
4 325 594 366 612
4 570 576 577 600
4 460 607 226 615
4 274 277 278 613
4 453 353 407 614
4 585 603 594 612
4 429 426 595 621
4 339 614 598 615
4 595 597 586 598
4 289 288 280 616
4 338 591 326 612
4 416 317 319 601
4 592 585 602 609
4 382 592 92 610
4 300 318 317 593
4 478 352 467 600
4 291 407 280 614
4 572 386 600 623
4 456 90 219 590
4 595 597 587 610
4 343 425 426 604
4 592 594 587 604
4 576 600 570 607
4 416 601 319 617
4 384 484 223 609
4 353 467 600 615
4 364 603 276 619
4 600 605 586 607
4 353 597 407 614
4 572 386 230 600
4 385 429 426 595
4 582 105 10 622
4 245 243 246 599
4 456 590 350 609
4 444 597 333 620
4 233 94 383 620
4 355 597 352 623
4 350 456 480 590
4 308 598 324 618
4 587 598 595 604
4 243 244 220 602
4 572 574 386 623
4 382 427 242 592
4 579 573 418 605
4 416 273 417 613
4 585 588 599 602
4 94 383 595 610
4 121 582 583 608
4 407 310 289 616
4 359 331 308 598
4 366 594 391 618
4 594 596 587 618
4 582 608 588 622
4 333 597 355 620
4 359 598 308 621
4 317 318 319 601
4 593 610 587 616
4 571 605 473 623
4 430 96 95 605
4 597 355 620 623
4 587 596 593 616
4 351 598 331 615
4 351 460 226 615
4 588 606 591 608
4 304 303 305 604
4 337 325 366 612
4 585 596 603 613
4 585 599 592 602
4 587 592 604 610
4 582 10 608 622
4 91 220 90 602
4 227 93 94 595
4 597 598 587 614
4 585 591 603 612
4 587 604 595 610
4 122 40 41 606
4 590 585 601 609
4 424 614 339 615
4 41 121 122 606
4 384 92 91 609
4 605 620 430 623
4 319 601 321 617
4 590 602 585 609
4 456 219 480 590
4 590 606 588 611
4 588 602 590 611
4 444 333 355 620
4 364 337 365 603
4 589 601 585 613
4 319 320 321 601
4 94 595 93 610
4 42 120 121 606
4 575 578 571 605
4 576 575 572 600
4 395 593 300 616
4 95 96 238 605
4 41 42 121 606
4 274 417 273 613
4 574 571 473 623
4 382 242 92 592
4 586 598 597 615
4 351 339 598 615
4 339 598 614 618
4 9 120 42 611
4 570 389 226 607
4 351 226 468 615
4 589 585 603 613
4 593 585 601 613
4 594 599 585 612
4 325 391 366 594
4 593 601 585 609
4 381 104 9 611
4 42 3 9 611
4 29 40 2 619
4 338 326 337 612
4 310 407 353 597
4 339 614 422 618
4 395 345 318 593
4 406 364 276 619
4 416 334 431 617
4 300 395 318 593
4 227 93 595 610
4 232 73 573 362
4 233 383 444 620
4 591 606 589 619
4 280 278 279 596
4 382 92 93 610
4 483 455 346 610
4 325 302 391 594
4 579 578 573 605
4 289 300 288 616
4 416 319 334 617
4 400 247 245 622
4 589 603 591 619
4 389 600 390 615
4 598 614 597 615
4 248 611 244 622
4 598 604 587 618
4 395 306 346 616
4 366 391 438 618
4 206 207 41 617
4 586 597 595 620
4 3 89 9 611
4 457 377 32 363
4 381 248 104 611
4 10 250 443 608
4 442 123 443 608
4 233 95 94 620
4 580 576 570 607
4 468 389 390 615
4 287 297 286 599
4 586 605 600 623
4 232 73 581 573
4 359 308 482 621
4 104 381 9 248
4 586 597 620 623
4 345 350 320 609
4 352 355 333 597
4 318 320 319 601
4 401 297 326 612
4 581 573 580 607
4 400 443 250 608
4 220 244 381 611
4 245 246 286 599
4 594 587 604 618
4 230 388 572 600
4 288 417 278 613
4 577 388 389 600
4 416 417 317 613
4 220 381 90 611
4 595 598 586 621
4 351 424 339 615
4 390 600 467 615
4 104 611 248 622
4 279 277 282 596
4 276 272 406 619
4 11 22 2 264
4 597 614 587 616
4 572 230 78 388
4 244 248 381 611
4 339 324 598 618
4 431 334 30 617
4 288 317 417 613
4 360 359 232 607
4 400 250 247 622
4 123 255 442 443
4 429 344 426 621
4 433 123 255 442
4 572 388 577 600
4 572 79 230 386
4 230 386 478 600
4 308 331 324 598
4 104 249 105 622
4 30 379 31 617
4 321 31 379 617
4 385 227 94 595
4 385 426 227 595
4 571 96 473 605
4 9 423 104 248
4 570 75 581 607
4 96 571 8 605
4 277 274 276 603
4 274 278 417 613
4 343 305 303 604
4 334 379 30 617
4 574 473 240 623
4 360 460 359 607
4 306 395 300 616
4 351 339 331 598
4 378 425 343 604
4 386 478 600 623
4 353 390 467 615
4 399 2 11 619
4 264 2 11 399
4 65 20 173 211
4 513 19 66 211
4 384 91 456 609
4 331 339 324 598
4 423 9 381 248
4 352 333 310 597
4 279 278 277 596
4 96 8 472 605
4 103 33 5 82
4 364 406 434 619
4 453 390 353 615
4 571 579 8 605
4 117 23 521 118
4 220 242 243 602
4 581 75 360 607
4 26 409 116 115
4 287 286 246 599
4 339 422 438 618
4 94 93 383 610
4 334 319 321 617
4 364 365 276 603
4 388 390 389 600
4 103 102 33 82
4 220 91 242 602
4 291 453 407 614
4 33 1 5 82
4 388 78 572 577
4 579 418 472 605
4 473 605 430 623
4 226 75 570 607
4 65 173 513 211
4 513 173 19 211
4 244 245 247 622
4 353 352 310 597
4 472 418 238 605
4 121 41 178 518
4 587 614 598 618
4 247 250 105 622
4 210 33 5 103
4 79 572 574 386
4 381 89 90 611
4 399 406 2 619
4 472 8 579 605
4 310 306 289 616
4 52 28 0 214
4 28 0 113 209
4 478 355 352 623
4 214 7 51 113
4 119 193 22 118
4 23 22 193 118
4 39 98 533 97
4 22 263 119 118
4 263 22 23 118
4 10 443 123 608
4 581 360 232 607
4 37 38 99 181
4 418 573 72 362
4 98 99 38 181
4 521 24 23 117
4 215 51 7 113
4 5 1 33 210
4 118 556 117 261
4 406 272 267 619
4 473 96 430 605
4 119 517 193 118
4 514 116 25 524
4 226 360 75 607
4 453 614 424 615
4 214 28 0 113
4 113 0 7 209
4 321 379 334 617
4 524 116 25 117
4 381 9 89 611
4 572 577 576 600
4 378 343 303 604
4 430 95 233 620
4 197 66 19 213
4 537 20 65 212
4 226 570 76 389
4 277 276 365 603
4 26 116 514 115
4 586 620 605 623
4 584 105 582 622
4 113 224 28 114
4 25 446 415 116
4 34 33 102 82
4 31 321 379 363
4 22 11 200 119
4 545 531 186 174
4 191 205 514 526
4 443 400 401 608
4 261 556 117 281
4 409 415 446 116
4 214 0 7 113
4 104 248 249 622
4 184 100 36 174
4 51 215 435 113
4 406 267 2 619
4 100 36 37 184
4 566 123 255 549
4 339 424 422 614
4 473 571 574 81
4 28 113 114 519
4 305 344 482 621
4 555 110 109 311
4 570 76 389 577
4 10 252 123 443
4 117 419 23 118
4 534 121 178 518
4 518 41 178 194
4 1 4 5 82
4 11 2 122 619
4 213 197 66 536
4 212 537 20 196
4 3 9 97 540
4 138 137 136 301
4 100 37 99 184
4 542 200 11 119
4 334 432 30 379
4 122 2 40 619
4 10 105 509 250
4 600 607 586 615
4 316 421 144 139
4 431 432 30 334
4 116 415 25 117
4 105 249 247 622
4 121 42 518 120
4 379 30 31 327
4 144 293 316 139
4 11 22 200 2
4 178 40 41 122
4 116 26 514 25
4 473 571 8 96
4 399 267 2 406
4 83 34 102 82
4 42 121 518 41
4 121 178 41 122
4 113 204 28 209
4 210 544 33 103
4 27 28 224 114
4 307 136 137 301
4 199 173 513 539
4 561 546 461 114
4 141 144 421 139
4 72 579 573 418
4 304 324 391 618
4 197 19 66 513
4 173 20 65 537
4 419 23 24 117
4 191 205 176 514
4 531 545 516 174
4 158 142 138 301
4 443 401 442 608
4 501 111 112 285
4 546 115 357 114
4 33 102 103 179
4 301 158 142 372
4 270 110 555 311
4 255 123 252 443
4 235 154 58 208
4 9 104 120 611
4 130 31 30 327
4 259 556 261 281
4 253 112 111 285
4 27 28 114 519
4 204 113 543 209
4 210 33 544 203
4 100 101 36 174
4 30 29 275 431
4 24 25 415 117
4 509 112 10 251
4 99 98 515 181
4 175 24 23 521
4 185 516 184 174
4 525 514 176 524
4 306 300 289 616
4 388 467 390 600
4 103 102 520 179
4 421 316 293 139
4 114 115 26 528
4 251 509 105 250
4 554 563 323 547
4 514 25 176 524
4 516 100 184 174
4 528 115 26 514
4 484 350 345 609
4 238 96 472 605
4 457 3 219 392
4 42 9 540 120
4 23 161 265 268
4 144 451 292 169
4 432 30 379 327
4 513 173 65 537
4 19 197 173 513
4 223 93 92 610
4 295 421 139 137
4 153 125 158 332
4 17 59 452 218
4 394 123 255 124
4 547 556 402 281
4 531 525 191 185
4 221 397 98 500
4 326 297 325 612
4 100 497 490 229
4 28 27 180 519
4 260 330 119 565
4 542 11 200 122
4 33 1 82 477
4 536 197 66 513
4 537 173 20 196
4 249 248 247 622
4 263 23 419 118
4 119 263 22 262
4 193 200 178 542
4 518 533 540 202
4 9 42 540 3
4 497 448 490 229
4 519 192 180 529
4 384 456 350 609
4 476 103 5 82
4 125 153 376 332
4 525 176 187 524
4 527 516 184 185
4 470 444 355 620
4 27 127 462 159
4 339 438 324 618
4 294 140 145 142
4 191 526 531 186
4 490 499 99 370
4 82 34 33 239
4 421 316 144 141
4 549 394 557 565
4 307 329 136 301
4 124 394 123 549
4 447 497 101 229
4 240 386 574 623
4 251 501 112 285
4 151 166 335 466
4 499 98 397 500
4 529 199 513 539
4 199 173 539 189
4 508 221 500 404
4 430 620 470 623
4 6 47 568 106
4 424 291 422 614
4 259 557 260 261
4 554 546 357 323
4 3 42 540 202
4 101 34 102 83
4 253 566 558 112
4 100 490 445 229
4 569 435 215 113
4 254 566 255 549
4 261 119 260 262
4 337 326 325 612
4 109 108 550 298
4 531 185 186 174
4 526 514 191 525
4 448 445 490 229
4 546 554 562 323
4 200 11 2 122
4 88 3 9 97
4 88 39 3 97
4 97 540 533 202
4 24 128 161 268
4 112 253 251 285
4 9 423 97 508
4 102 33 34 179
4 415 419 24 117
4 532 520 102 179
4 87 38 39 98
4 98 39 87 97
4 373 492 500 404
4 328 32 31 363
4 329 136 137 307
4 330 11 124 434
4 301 142 299 372
4 360 232 74 581
4 249 373 492 509
4 138 307 137 301
4 140 294 299 142
4 2 40 200 122
4 137 421 141 349
4 241 102 103 82
4 315 162 130 150
4 99 535 100 184
4 38 99 86 37
4 130 327 315 328
4 99 38 86 98
4 199 180 192 529
4 110 374 270 552
4 489 447 497 101
4 251 10 509 250
4 375 125 376 332
4 215 50 51 435
4 226 460 360 607
4 375 158 125 332
4 161 128 283 268
4 180 27 192 519
4 42 41 518 194
4 534 178 121 122
4 574 240 473 81
4 235 58 57 208
4 298 108 550 405
4 312 108 340 496
4 579 571 578 605
4 259 402 556 281
4 470 620 355 623
4 114 26 27 528
4 526 191 190 186
4 526 530 531 186
4 236 569 50 217
4 547 408 116 281
4 82 83 34 239
4 421 137 307 349
4 428 499 510 369
4 388 389 77 577
4 402 323 563 547
4 271 275 29 431
4 556 564 402 259
4 97 423 221 508
4 398 447 101 229
4 357 408 115 554
4 28 52 224 214
4 265 161 269 268
4 295 421 137 307
4 117 556 547 281
4 137 139 295 138
4 255 123 433 124
4 495 374 111 285
4 291 424 453 614
4 255 123 394 549
4 500 397 499 428
4 314 299 142 162
4 299 138 142 301
4 299 295 140 138
4 118 117 419 261
4 555 552 270 564
4 556 258 564 259
4 109 108 298 312
4 236 50 49 217
4 548 553 107 464
4 312 313 109 493
4 118 419 263 261
4 97 221 98 500
4 164 133 237 159
4 110 111 374 552
4 195 521 524 117
4 557 257 394 549
4 107 106 487 491
4 151 166 150 335
4 49 551 236 217
4 221 397 500 428
4 137 295 307 138
4 113 561 410 114
4 161 132 23 265
4 328 315 130 150
4 521 195 24 117
4 82 1 4 477
4 247 249 105 250
4 117 547 116 281
4 241 83 102 82
4 569 70 50 217
4 519 114 27 528
4 213 67 18 543
4 544 21 212 64
4 467 230 478 600
4 566 253 252 112
4 51 224 214 113
4 98 533 515 177
4 476 5 4 82
4 111 256 374 552
4 99 445 490 370
4 539 173 537 196
4 536 199 197 513
4 330 119 11 262
4 294 396 145 146
4 101 489 447 398
4 85 36 37 100
4 150 315 162 335
4 11 119 330 565
4 260 557 394 565
4 89 9 381 423
4 176 26 25 514
4 516 101 100 174
4 252 566 123 255
4 566 254 253 558
4 502 491 459 503
4 359 482 361 621
4 185 531 516 174
4 176 191 514 525
4 224 411 27 114
4 106 47 568 225
4 332 136 153 387
4 22 23 265 263
4 199 173 197 513
4 173 513 539 537
4 292 144 169 152
4 264 22 165 265
4 530 526 190 186
4 115 408 116 554
4 356 357 546 323
4 99 85 37 100
4 533 39 97 202
4 391 324 438 618
4 137 135 329 307
4 30 207 206 617
4 37 36 474 153
4 528 26 176 514
4 188 101 516 174
4 294 145 140 146
4 252 10 112 251
4 546 562 356 323
4 256 270 374 552
4 396 167 371 145
4 583 10 123 608
4 247 248 244 622
4 508 500 492 404
4 2 165 266 264
4 509 105 249 251
4 373 500 510 428
4 21 544 212 203
4 204 213 18 543
4 462 127 413 159
4 374 111 110 495
4 528 176 205 514
4 188 516 545 174
4 160 162 315 335
4 558 254 257 549
4 314 299 162 315
4 330 124 433 434
4 539 529 199 189
4 452 131 17 218
4 138 140 299 142
4 251 105 249 250
4 147 413 169 127
4 328 31 32 150
4 509 249 373 251
4 569 215 7 113
4 88 9 423 97
4 580 570 581 607
4 534 193 178 542
4 202 518 533 194
4 258 402 564 259
4 35 36 101 174
4 483 223 455 610
4 495 110 374 368
4 501 510 495 285
4 101 102 34 188
4 313 109 311 312
4 329 135 126 348
4 428 510 373 369
4 419 24 420 415
4 202 533 39 177
4 193 542 517 119
4 285 495 374 368
4 116 409 408 115
4 458 452 59 218
4 516 535 527 184
4 195 187 176 524
4 258 270 552 564
4 484 384 350 609
4 255 394 254 549
4 510 495 285 369
4 535 516 100 184
4 195 176 25 524
4 491 440 459 503
4 412 27 462 159
4 196 520 539 179
4 293 140 295 139
4 390 453 424 615
4 165 2 22 264
4 253 252 254 566
4 135 137 347 307
4 31 207 30 617
4 130 371 145 314
4 500 373 404 428
4 117 116 415 281
4 24 25 420 415
4 179 102 532 188
4 545 186 188 174
4 514 205 528 526
4 348 126 329 387
4 119 330 260 262
4 88 3 39 392
4 312 340 322 496
4 254 394 257 549
4 255 433 394 124
4 327 130 31 328
4 103 512 504 241
4 405 298 108 312
4 342 498 313 506
4 397 99 98 499
4 557 558 257 549
4 399 330 11 262
4 404 221 500 428
4 138 295 307 301
4 380 396 167 371
4 509 501 112 251
4 264 165 266 265
4 430 233 470 620
4 537 520 539 196
4 199 197 180 536
4 375 372 158 332
4 135 126 136 329
4 342 507 490 370
4 376 222 37 125
4 489 102 450 398
4 563 290 402 564
4 467 388 230 600
4 392 3 39 166
4 263 264 22 262
4 34 102 179 188
4 396 269 380 167
4 506 341 448 497
4 149 380 275 165
4 380 275 165 266
4 36 101 100 84
4 519 27 192 528
4 376 474 36 153
4 504 102 450 489
4 368 495 507 369
4 313 498 109 493
4 214 224 28 113
4 441 6 46 511
4 192 519 528 529
4 179 532 189 188
4 104 423 508 404
4 369 428 499 370
4 135 136 137 329
4 311 498 109 313
4 538 535 181 183
4 523 195 198 521
4 376 36 231 153
4 6 47 106 441
4 435 215 50 569
4 290 550 298 555
4 344 429 469 621
4 151 125 222 375
4 269 132 161 265
4 113 28 204 519
4 160 150 162 335
4 30 275 371 432
4 103 544 33 179
4 142 162 315 160
4 532 102 101 188
4 573 73 72 362
4 373 510 500 501
4 558 256 253 111
4 28 180 204 519
4 557 394 257 260
4 551 49 69 217
4 141 157 137 349
4 386 355 478 623
4 520 544 103 179
4 583 582 10 608
4 115 410 357 114
4 261 117 419 281
4 299 142 315 372
4 357 408 409 115
4 439 548 358 481
4 284 396 294 146
4 102 101 83 398
4 534 193 542 517
4 177 202 533 194
4 410 435 561 113
4 52 0 28 486
4 301 136 158 332
4 551 569 236 217
4 423 221 88 97
4 559 562 553 358
4 115 411 409 114
4 347 329 135 307
4 2 266 267 264
4 550 109 298 555
4 108 553 550 405
4 508 423 221 404
4 405 108 107 340
4 397 499 428 370
4 256 257 258 567
4 507 368 369 342
4 309 563 550 290
4 117 415 419 281
4 192 27 26 528
4 115 26 411 114
4 373 501 509 251
4 311 110 498 368
4 10 252 566 123
4 290 309 563 323
4 546 410 461 114
4 160 158 125 375
4 75 226 570 76
4 232 73 74 581
4 101 35 34 83
4 347 137 157 307
4 160 315 142 372
4 113 410 224 114
4 107 106 464 487
4 567 257 258 259
4 285 501 510 369
4 432 30 275 431
4 252 10 251 250
4 175 193 522 517
4 177 533 515 182
4 309 553 562 358
4 447 448 341 497
4 30 275 149 371
4 412 27 28 224
4 171 172 33 239
4 89 219 3 392
4 373 510 501 369
4 332 329 136 387
4 284 283 146 128
4 408 415 116 281
4 12 54 13 133
4 187 191 525 185
4 525 531 527 185
4 449 148 141 349
4 167 149 371 145
4 145 314 142 162
4 33 544 203 179
4 543 113 204 519
4 548 559 358 481
4 468 424 351 615
4 31 379 327 328
4 413 451 169 127
4 561 461 410 114
4 133 12 54 237
4 295 294 140 293
4 441 106 511 491
4 504 512 454 241
4 268 23 24 419
4 299 142 162 315
4 552 256 258 567
4 135 137 157 347
4 505 496 354 502
4 369 499 507 370
4 313 341 342 506
4 154 16 58 208
4 464 548 553 358
4 158 160 372 375
4 270 110 552 555
4 507 510 499 369
4 240 574 80 81
4 249 104 492 404
4 126 136 329 387
4 265 264 22 263
4 341 313 493 506
4 237 413 164 159
4 314 130 371 327
4 566 252 254 255
4 419 268 23 263
4 169 451 292 152
4 35 101 188 174
4 106 47 225 441
4 562 563 309 323
4 567 557 257 259
4 222 38 125 151
4 507 498 368 342
4 172 171 452 239
4 354 322 496 505
4 138 299 295 301
4 490 342 370 448
4 423 104 248 404
4 268 265 23 263
4 543 113 7 209
4 210 1 33 203
4 564 402 563 547
4 408 415 409 116
4 556 567 258 259
4 504 450 102 241
4 398 102 450 241
4 402 564 556 547
4 192 176 205 528
4 532 516 545 188
4 236 561 551 481
4 146 283 269 161
4 178 534 542 122
4 202 42 518 194
4 87 221 98 97
4 553 108 107 405
4 79 230 78 572
4 295 140 294 299
4 158 138 136 301
4 5 544 210 103
4 341 313 322 493
4 249 492 104 105
4 446 25 420 296
4 57 170 235 208
4 473 430 240 623
4 256 374 253 111
4 176 192 26 528
4 516 532 101 188
4 547 402 408 281
4 38 37 86 222
4 212 64 537 544
4 18 197 213 204
4 405 553 550 309
4 508 9 423 104
4 293 316 292 144
4 153 376 37 125
4 405 550 298 309
4 358 562 309 356
4 184 181 535 183
4 521 523 195 524
4 215 70 50 569
4 435 561 569 236
4 373 500 492 501
4 329 136 301 332
4 457 32 3 392
4 371 149 30 130
4 130 371 149 145
4 260 394 330 565
4 311 374 110 368
4 559 562 358 356
4 258 402 290 564
4 342 369 507 370
4 584 104 105 622
4 546 357 115 554
4 464 553 107 405
4 115 409 410 114
4 0 28 204 209
4 562 563 550 309
4 459 234 502 503
4 448 490 342 506
4 294 140 284 146
4 173 20 19 211
4 66 65 513 211
4 222 151 375 466
4 216 28 0 486
4 112 558 253 111
4 461 546 561 559
4 104 249 248 404
4 559 560 551 481
4 530 190 529 189
4 485 316 147 169
4 149 380 167 371
4 465 13 54 133
4 240 430 470 623
4 14 55 228 155
4 316 451 144 169
4 240 574 386 80
4 492 373 501 509
4 131 452 458 218
4 412 462 413 159
4 284 156 294 293
4 342 498 368 313
4 474 36 231 376
4 144 147 316 169
4 550 298 309 290
4 25 128 420 296
4 538 535 515 181
4 195 175 198 521
4 408 116 554 547
4 411 224 410 114
4 156 140 294 293
4 439 49 551 236
4 511 487 441 491
4 383 93 223 610
4 74 360 581 75
4 216 0 28 168
4 328 130 31 150
4 157 141 148 349
4 493 322 341 505
4 167 269 380 132
4 285 373 501 369
4 468 390 424 615
4 270 290 298 555
4 505 447 341 497
4 386 574 79 80
4 539 189 196 179
4 342 490 507 506
4 111 558 256 552
4 284 156 140 294
4 559 551 561 481
4 38 37 222 125
4 99 515 535 181
4 24 175 195 521
4 84 83 101 398
4 513 536 199 529
4 173 539 189 196
4 498 311 368 313
4 393 39 38 151
4 26 27 411 114
4 145 371 396 314
4 563 290 323 402
4 161 283 269 268
4 77 389 76 577
4 105 249 492 509
4 109 108 312 493
4 14 13 55 155
4 546 357 410 114
4 466 166 335 336
4 149 275 29 165
4 311 109 298 312
4 399 11 330 434
4 234 459 440 503
4 106 548 107 464
4 290 563 550 555
4 22 23 132 265
4 500 97 221 508
4 372 301 158 332
4 284 283 269 146
4 376 37 474 153
4 254 256 253 558
4 439 551 560 481
4 236 461 561 481
4 270 374 110 311
4 99 37 85 86
4 38 222 393 151
4 543 67 18 209
4 544 21 64 210
4 163 148 471 349
4 260 257 557 259
4 495 498 110 368
4 152 169 451 127
4 316 147 144 141
4 129 56 15 437
4 569 50 435 236
4 494 454 488 504
4 147 316 449 141
4 98 87 38 86
4 270 256 258 552
4 103 512 241 476
4 374 253 111 285
4 491 487 340 496
4 507 498 495 368
4 507 498 342 506
4 470 233 444 620
4 10 252 443 250
4 405 108 340 312
4 543 213 67 536
4 203 212 21 196
4 557 567 556 259
4 87 221 397 98
4 98 99 397 86
4 163 157 148 349
4 312 322 313 493
4 491 340 107 496
4 52 51 224 214
4 112 253 252 251
4 165 380 266 265
4 154 163 235 463
4 454 61 43 512
4 140 295 139 138
4 414 133 237 164
4 496 459 354 502
4 163 170 235 437
4 523 525 187 524
4 527 184 183 185
4 483 383 223 610
4 520 537 544 196
4 180 197 204 536
4 373 501 251 285
4 139 421 141 137
4 341 448 342 506
4 494 488 502 504
4 100 85 36 84
4 191 176 187 525
4 516 527 531 185
4 447 448 497 229
4 529 190 199 189
4 529 539 530 189
4 370 445 490 448
4 486 216 28 168
4 101 34 35 188
4 46 440 441 511
4 25 446 152 296
4 88 87 39 97
4 322 459 354 496
4 506 505 341 497
4 493 313 498 506
4 561 435 461 236
4 316 485 451 169
4 492 373 249 404
4 165 275 29 266
4 283 146 128 161
4 357 408 554 323
4 170 154 235 208
4 314 396 145 294
4 131 16 17 218
4 559 461 546 356
4 128 292 283 296
4 18 204 543 209
4 210 544 21 203
4 88 9 3 89
4 150 328 315 335
4 185 191 531 186
4 191 526 525 531
4 579 72 71 418
4 441 106 6 511
4 257 256 558 567
4 136 153 158 332
4 190 199 192 529
4 532 530 539 189
4 12 53 54 237
4 518 541 533 194
4 193 178 201 534
4 106 441 487 491
4 36 35 101 84
4 71 472 579 418
4 551 69 49 439
4 534 201 193 517
4 177 533 541 194
4 368 285 495 369
4 153 231 376 387
4 83 101 35 84
4 527 523 187 183
4 307 137 157 349
4 410 357 409 115
4 45 46 63 440
4 151 160 375 466
4 363 328 32 336
4 20 21 212 196
4 66 67 213 536
4 405 464 553 358
4 165 29 2 266
4 295 421 293 139
4 166 150 335 336
4 172 17 60 452
4 394 124 330 565
4 505 354 447 489
4 541 515 533 182
4 175 193 201 522
4 14 56 15 129
4 264 267 2 399
4 126 231 36 153
4 522 193 201 517
4 177 541 533 182
4 136 126 153 387
4 485 449 479 147
4 16 131 154 218
4 501 495 111 285
4 458 154 131 218
4 222 37 474 376
4 314 145 130 162
4 147 479 485 164
4 133 54 465 237
4 396 269 167 146
4 241 512 454 476
4 332 153 376 387
4 26 25 446 152
4 160 151 335 466
4 498 109 110 311
4 413 414 237 164
4 172 477 33 239
4 240 470 355 623
4 77 78 388 577
4 56 14 228 129
4 567 258 564 556
4 47 6 46 441
4 521 175 522 517
4 177 515 181 182
4 19 18 197 213
4 537 65 64 212
4 410 461 357 546
4 57 15 56 437
4 372 160 315 335
4 124 433 394 330
4 260 119 557 565
4 335 375 160 466
4 84 85 36 231
4 256 254 257 558
4 441 464 106 487
4 59 60 17 452
4 465 479 155 164
4 133 465 13 155
4 341 493 505 506
4 290 563 555 564
4 31 379 328 363
4 386 240 355 623
4 47 68 568 225
4 506 448 490 497
4 499 510 500 428
4 392 32 3 166
4 450 354 502 489
4 86 87 38 222
4 459 487 491 496
4 58 154 235 458
4 490 445 99 100
4 146 156 284 128
4 132 167 269 146
4 435 461 410 561
4 440 63 45 503
4 420 268 24 419
4 316 451 292 144
4 148 449 471 349
4 69 48 49 439
4 557 257 558 567
4 108 107 340 496
4 252 10 566 112
4 403 171 239 436
4 125 151 160 375
4 559 561 461 481
4 163 170 154 235
4 149 275 380 371
4 487 340 107 491
4 225 548 358 439
4 275 29 30 149
4 465 55 13 155
4 473 8 571 81
4 463 163 235 437
4 421 449 141 349
4 497 505 447 489
4 544 64 5 210
4 543 7 67 209
4 210 21 1 203
4 293 292 156 144
4 148 228 155 129
4 3 88 89 392
4 101 100 84 229
4 435 224 51 113
4 126 231 153 387
4 440 46 63 511
4 147 485 413 164
4 403 475 35 134
4 499 490 507 370
4 134 475 35 126
4 322 354 341 505
4 440 487 511 491
4 145 396 167 146
4 477 172 452 239
4 479 414 485 164
4 163 154 143 463
4 464 106 548 225
4 190 205 191 526
4 545 531 530 186
4 89 88 9 423
4 204 18 0 209
4 479 465 414 164
4 420 128 283 296
4 14 55 56 228
4 184 535 527 183
4 523 187 195 524
4 495 510 507 369
4 569 561 435 113
4 155 228 14 129
4 151 222 393 466
4 239 34 171 403
4 450 488 454 504
4 235 143 154 463
4 504 454 450 241
4 447 341 354 505
4 489 450 447 398
4 307 157 347 349
4 228 55 465 155
4 228 56 129 437
4 512 103 5 476
4 527 187 525 185
4 125 376 222 375
4 266 275 29 271
4 354 450 447 489
4 150 32 328 336
4 398 83 102 241
4 474 85 37 86
4 397 87 98 86
4 392 39 393 166
4 445 85 99 100
4 143 154 131 367
4 160 372 375 335
4 37 36 85 474
4 86 37 474 222
4 504 450 502 489
4 393 88 39 392
4 445 397 99 86
4 134 126 135 348
4 84 100 85 229
4 502 354 505 489
4 235 170 57 437
4 161 23 24 268
4 436 134 131 367
4 87 88 221 97
4 236 551 439 481
4 62 44 234 494
4 420 25 446 415
4 48 69 560 439
4 143 131 134 367
4 292 156 144 152
4 459 234 488 502
4 458 131 154 367
4 403 34 171 134
4 155 479 228 148
4 156 293 144 139
4 154 143 235 367
4 69 551 560 439
4 486 28 52 224
4 461 357 546 356
4 160 142 158 372
4 465 414 133 237
4 412 411 27 224
4 237 133 12 168
4 411 410 409 114
4 147 449 479 148
4 458 59 58 218
4 126 134 475 348
4 87 39 38 393
4 102 103 504 241
4 12 53 237 168
4 487 441 440 511
4 198 522 523 521
4 538 181 182 183
4 358 464 548 225
4 102 489 101 398
4 62 44 45 234
4 409 26 411 115
4 512 43 454 476
4 527 538 523 183
4 523 198 187 183
4 552 558 256 567
4 151 150 160 335
4 558 566 254 549
4 132 269 380 265
4 61 43 44 454
4 435 410 224 113
4 106 568 548 225
4 561 551 569 236
4 316 449 485 147
4 461 559 481 356
4 485 414 413 164
4 100 101 497 229
4 569 551 70 217
4 292 128 152 296
4 63 46 6 511
4 486 53 216 168
4 316 421 449 141
4 143 135 347 348
4 164 147 479 148
4 127 26 27 462
4 413 147 164 127
4 269 396 284 146
4 562 309 356 323
4 458 436 131 367
4 99 85 445 86
4 201 534 522 517
4 194 541 177 182
4 104 508 492 404
4 35 34 83 403
4 0 52 216 486
4 36 35 84 231
4 380 165 132 265
4 269 132 146 161
4 482 344 361 621
4 53 12 216 168
4 148 147 449 141
4 5 43 512 476
4 149 167 380 132
4 563 562 554 323
4 183 187 527 185
4 187 525 523 527
4 47 68 6 568
4 195 198 187 523
4 535 538 527 183
4 35 34 403 134
4 148 471 228 129
4 60 4 1 477
4 496 322 493 505
4 445 85 100 229
4 156 140 293 139
4 166 393 392 336
4 487 459 340 496
4 450 354 488 502
4 128 25 152 296
4 511 63 440 503
4 486 237 53 168
4 155 133 465 164
4 134 171 403 436
4 503 234 502 494
4 393 166 466 336
4 463 471 163 437
4 186 190 530 189
4 529 526 190 530
4 222 87 38 393
4 479 228 465 155
4 164 479 155 148
4 398 101 84 229
4 538 522 198 182
4 463 235 143 367
4 127 164 413 159
4 171 452 239 436
4 166 392 32 336
4 512 454 61 494
4 5 43 61 512
4 475 126 348 387
4 522 198 175 521
4 181 515 538 182
4 412 413 237 159
4 562 550 553 309
4 68 47 48 225
4 436 348 134 367
4 496 491 459 502
4 309 405 553 358
4 564 552 258 567
4 132 165 22 265
4 234 488 502 494
4 330 124 11 565
4 35 83 84 403
4 231 35 475 126
4 124 394 549 565
4 107 464 405 340
4 170 15 57 437
4 156 292 128 152
4 446 152 296 462
4 152 446 26 462
4 459 322 340 496
4 560 548 225 439
4 170 129 15 437
4 33 1 477 172
4 60 1 17 172
4 344 469 361 621
4 156 284 140 146
4 562 559 546 356
4 462 411 27 412
4 135 329 347 348
4 133 414 465 164
4 1 60 477 172
4 239 83 34 403
4 172 60 477 452
4 156 284 292 293
4 347 143 348 367
4 24 25 128 420
4 44 62 61 494
4 403 35 475 231
4 231 85 36 474
4 488 450 502 504
4 541 538 515 182
4 175 201 198 522
4 166 151 393 466
4 12 0 216 168
4 471 129 163 437
4 134 403 475 436
4 170 57 15 208
4 165 149 380 132
4 43 5 4 476
4 171 33 34 239
4 131 17 172 452
4 48 560 225 439
4 451 292 152 296
4 348 143 134 367
4 560 548 568 225
4 477 82 33 239
4 237 133 168 159
4 463 163 471 349
4 13 54 55 465
4 135 143 134 348
4 151 393 39 166
4 472 8 71 579
4 412 28 27 159
4 458 154 235 367
4 129 148 471 163
4 548 559 553 358
4 7 70 215 569
4 52 53 216 486
4 198 523 538 183
4 454 44 61 494
4 168 412 237 159
4 488 234 454 494
4 63 62 45 503
4 234 45 62 503
4 411 446 26 409
4 479 471 228 148
4 481 559 358 356
4 225 464 106 441
4 392 457 32 336
4 45 234 440 503
4 541 522 538 182
4 522 201 198 182
4 172 171 131 452
4 476 241 103 82
4 39 87 88 393
4 335 150 328 336
4 454 234 44 494
4 491 511 440 503
4 201 541 194 182
4 522 534 201 541
4 340 107 464 487
4 69 68 48 560
4 403 84 35 231
4 182 198 538 183
4 523 522 198 538
4 129 471 228 437
4 411 27 26 462
4 170 163 129 437
4 363 32 457 336
4 494 512 454 504
4 347 157 143 463
4 487 440 459 491
4 36 35 231 126
4 503 62 234 494
4 127 451 152 462
4 28 412 168 159
4 486 412 237 168
4 296 152 451 462
4 463 347 157 349
4 486 412 28 224
4 127 152 26 462
4 157 163 463 349
4 154 170 16 208
4 131 452 436 458
4 201 522 541 182
4 166 32 150 336
4 157 143 135 347
4 348 134 475 436
4 486 28 412 168
4 157 163 143 463
4 127 413 451 462
4 69 70 551 217
4 459 488 354 502
4 171 131 452 436
4 475 231 126 387
4 170 15 16 208
4 411 26 446 462
4 463 143 347 367
4 449 471 479 148
4 131 171 134 436
4 596 366 618 594
4 596 618 366 282
4 604 227 426 595
4 604 426 227 425
4 602 245 244 588
4 602 244 245 243
4 426 604 621 343
4 621 604 426 595
4 591 433 434 338
4 591 434 433 124
4 621 343 305 344
4 621 305 343 604
4 575 607 576 580
4 576 607 575 600
4 608 433 123 124
4 608 123 433 442
4 606 582 120 121
4 606 120 582 588
4 621 308 305 598
4 621 305 308 482
4 623 572 575 600
4 623 575 572 574
4 615 226 389 607
4 615 389 226 468
4 271 2 266 267
4 271 266 2 29
4 622 120 104 611
4 622 104 120 584
4 623 571 575 574
4 623 575 571 605
4 619 399 434 11
4 619 434 399 406
4 11 262 264 399
4 22 262 11 119
4 11 262 22 264
4 116 446 26 25
4 116 26 446 409
4 311 555 298 109
4 311 298 555 270
4 169 485 413 147
4 169 413 485 451
4 547 323 408 402
4 547 408 323 554
4 98 181 177 515
4 177 181 98 38
4 521 118 175 517
4 521 175 118 23
4 193 175 118 517
4 193 118 175 23
4 98 177 39 533
4 39 177 98 38
4 518 541 201 534
4 201 541 518 194
4 201 178 518 534
4 518 178 201 194
4 314 142 294 145
4 294 142 314 299
4 261 557 119 118
4 261 119 557 260
4 496 312 493 322
4 496 493 312 108
4 99 370 397 445
4 397 370 99 499
4 268 128 420 24
4 268 420 128 283
4 261 119 263 118
4 263 119 261 262
4 556 261 557 259
4 557 261 556 118
4 190 205 529 192
4 190 529 205 526
4 528 529 205 192
4 528 205 529 526
4 188 545 189 186
4 188 189 545 532
4 530 189 545 186
4 530 545 189 532
4 539 179 532 189
4 532 179 539 520
4 529 180 536 199
4 529 536 180 519
4 564 270 290 258
4 564 290 270 555
4 117 195 25 524
4 117 25 195 24
4 99 184 181 535
4 181 184 99 37
4 327 30 371 432
4 327 371 30 130
4 315 130 314 327
4 315 314 130 162
4 200 119 193 22
4 193 119 200 542
4 97 202 3 540
4 3 202 97 39
4 42 540 518 120
4 42 518 540 202
4 284 128 292 283
4 292 128 284 156
4 200 122 178 542
4 178 122 200 40
4 481 560 548 559
4 481 548 560 439
4 544 196 212 203
4 212 196 544 537
4 204 536 213 543
4 213 536 204 197
4 68 225 560 568
4 560 225 68 48
4 544 179 196 203
4 196 179 544 520
4 519 204 536 180
4 519 536 204 543
4 218 154 58 458
4 218 58 154 16

CELL_TYPES 3279
1
1
1
1
1
1
1
1
1
1
1
1
3
3
3
3
3
3
3
3
3
3
3
3
3
3
3
3
3
3
3
3
3
3
3
3
3
3
3
3
3
3
3
3
3
3
3
3
3
3
3
3
3
3
3
3
3
3
3
3
3
3
3
3
3
3
3
3
3
3
3
3
3
3
3
3
3
3
3
3
3
3
3
3
3
3
3
3
3
3
3
3
3
3
3
3
3
3
3
3
3
3
3
3
3
3
3
3
3
3
3
3
3
3
3
3
3
3
3
3
3
3
3
3
3
3
3
3
3
3
3
3
3
3
3
3
3
3
3
3
3
3
3
5
5
5
5
5
5
5
5
5
5
5
5
5
5
5
5
5
5
5
5
5
5
5
5
5
5
5
5
5
5
5
5
5
5
5
5
5
5
5
5
5
5
5
5
5
5
5
5
5
5
5
5
5
5
5
5
5
5
5
5
5
5
5
5
5
5
5
5
5
5
5
5
5
5
5
5
5
5
5
5
5
5
5
5
5
5
5
5
5
5
5
5
5
5
5
5
5
5
5
5
5
5
5
5
5
5
5
5
5
5
5
5
5
5
5
5
5
5
5
5
5
5
5
5
5
5
5
5
5
5
5
5
5
5
5
5
5
5
5
5
5
5
5
5
5
5
5
5
5
5
5
5
5
5
5
5
5
5
5
5
5
5
5
5
5
5
5
5
5
5
5
5
5
5
5
5
5
5
5
5
5
5
5
5
5
5
5
5
5
5
5
5
5
5
5
5
5
5
5
5
5
5
5
5
5
5
5
5
5
5
5
5
5
5
5
5
5
5
5
5
5
5
5
5
5
5
5
5
5
5
5
5
5
5
5
5
5
5
5
5
5
5
5
5
5
5
5
5
5
5
5
5
5
5
5
5
5
5
5
5
5
5
5
5
5
5
5
5
5
5
5
5
5
5
5
5
5
5
5
5
5
5
5
5
5
5
5
5
5
5
5
5
5
5
5
5
5
5
5
5
5
5
5
5
5
5
5
5
5
5
5
5
5
5
5
5
5
5
5
5
5
5
5
5
5
5
5
5
5
5
5
5
5
5
5
5
5
5
5
5
5
5
5
5
5
5
5
5
5
5
5
5
5
5
5
5
5
5
5
5
5
5
5
5
5
5
5
5
5
5
5
5
5
5
5
5
5
5
5
5
5
5
5
5
5
5
5
5
5
5
5
5
5
5
5
5
5
5
5
5
5
5
5
5
5
5
5
5
5
5
5
5
5
5
5
5
5
5
5
5
5
5
5
5
5
5
5
5
5
5
5
5
5
5
5
5
5
5
5
5
5
5
5
5
5
5
5
5
5
5
5
5
5
5
5
5
5
5
5
5
5
5
5
5
5
5
5
5
5
5
5
5
5
5
5
5
5
5
5
5
5
5
5
5
5
5
5
5
5
5
5
5
5
5
5
5
5
5
5
5
5
5
5
5
5
5
5
5
5
5
5
5
5
5
5
5
5
5
5
5
5
5
5
5
5
5
5
5
5
5
5
5
5
5
5
5
5
5
5
5
5
5
5
5
5
5
5
5
5
5
5
5
5
5
5
5
5
5
5
5
5
5
5
5
5
5
5
5
5
5
5
5
5
5
5
5
5
5
5
5
5
5
5
5
5
5
5
5
5
5
5
5
5
5
5
5
5
5
5
5
5
5
5
5
5
5
5
5
5
5
5
5
5
5
5
5
5
5
5
5
5
5
5
5
5
5
5
5
5
5
5
5
5
5
5
5
5
5
5
5
5
5
5
5
5
5
5
5
5
5
5
5
5
5
5
5
5
5
5
5
5
5
5
5
5
5
5
5
5
5
5
5
5
5
5
5
5
5
5
5
5
5
5
5
5
5
5
5
5
5
5
5
5
5
5
5
5
5
5
5
5
5
5
5
5
5
5
5
5
5
5
5
5
5
5
5
5
5
5
5
5
5
5
5
5
5
5
5
5
5
5
5
5
5
5
5
5
5
5
5
5
5
5
5
5
5
5
5
5
5
5
5
5
5
5
5
5
5
5
5
5
5
5
5
5
5
5
5
5
5
5
5
5
5
5
5
5
5
5
5
5
5
5
5
5
5
5
5
5
5
5
5
5
5
5
5
5
5
5
5
5
5
5
5
5
5
5
5
5
5
5
5
5
5
5
5
5
5
5
5
5
5
5
5
5
5
5
5
5
5
5
5
5
5
5
5
5
5
5
5
5
5
5
5
5
5
5
5
5
5
5
5
5
5
5
5
5
5
5
5
5
5
5
5
5
5
5
5
5
5
5
5
5
5
5
5
5
5
5
5
5
5
5
5
5
5
5
5
5
5
5
5
5
5
5
5
5
5
5
5
5
5
5
5
5
5
5
5
5
5
5
5
5
5
5
5
5
5
5
5
5
5
5
5
5
5
5
5
5
5
5
5
5
5
5
5
5
5
5
5
5
5
5
5
5
5
5
5
5
5
5
5
5
5
5
5
5
5
5
5
5
5
5
5
5
5
5
5
5
5
5
5
5
5
5
5
5
5
5
5
5
5
5
5
5
5
5
5
5
5
5
5
5
5
5
5
5
5
5
5
5
5
5
5
5
5
5
5
5
5
5
5
5
5
5
5
5
5
5
5
5
5
5
5
5
5
5
5
5
5
5
5
5
5
5
5
5
5
5
5
5
5
5
5
5
5
5
5
5
5
5
5
5
5
5
5
5
5
5
5
5
5
5
5
5
5
5
5
5
5
5
5
5
5
5
5
5
5
5
5
5
5
5
5
5
5
5
5
5
5
5
5
5
5
5
5
5
5
5
5
5
5
5
5
5
5
5
5
5
5
5
5
5
5
5
5
5
5
5
5
5
5
5
5
5
5
5
5
5
5
5
5
5
5
5
5
5
5
5
5
5
5
5
5
5
5
5
5
5
5
5
5
5
5
5
5
5
5
5
5
5
5
5
5
5
5
10
10
10
10
10
10
10
10
10
10
10
10
10
10
10
10
10
10
10
10
10
10
10
10
10
10
10
10
10
10
10
10
10
10
10
10
10
10
10
10
10
10
10
10
10
10
10
10
10
10
10
10
10
10
10
10
10
10
10
10
10
10
10
10
10
10
10
10
10
10
10
10
10
10
10
10
10
10
10
10
10
10
10
10
10
10
10
10
10
10
10
10
10
10
10
10
10
10
10
10
10
10
10
10
10
10
10
10
10
10
10
10
10
10
10
10
10
10
10
10
10
10
10
10
10
10
10
10
10
10
10
10
10
10
10
10
10
10
10
10
10
10
10
10
10
10
10
10
10
10
10
10
10
10
10
10
10
10
10
10
10
10
10
10
10
10
10
10
10
10
10
10
10
10
10
10
10
10
10
10
10
10
10
10
10
10
10
10
10
10
10
10
10
10
10
10
10
10
10
10
10
10
10
10
10
10
10
10
10
10
10
10
10
10
10
10
10
10
10
10
10
10
10
10
10
10
10
10
10
10
10
10
10
10
10
10
10
10
10
10
10
10
10
10
10
10
10
10
10
10
10
10
10
10
10
10
10
10
10
10
10
10
10
10
10
10
10
10
10
10
10
10
10
10
10
10
10
10
10
10
10
10
10
10
10
10
10
10
10
10
10
10
10
10
10
10
10
10
10
10
10
10
10
10
10
10
10
10
10
10
10
10
10
10
10
10
10
10
10
10
10
10
10
10
10
10
10
10
10
10
10
10
10
10
10
10
10
10
10
10
10
10
10
10
10
10
10
10
10
10
10
10
10
10
10
10
10
10
10
10
10
10
10
10
10
10
10
10
10
10
10
10
10
10
10
10
10
10
10
10
10
10
10
10
10
10
10
10
10
10
10
10
10
10
10
10
10
10
10
10
10
10
10
10
10
10
10
10
10
10
10
10
10
10
10
10
10
10
10
10
10
10
10
10
10
10
10
10
10
10
10
10
10
10
10
10
10
10
10
10
10
10
10
10
10
10
10
10
10
10
10
10
10
10
10
10
10
10
10
10
10
10
10
10
10
10
10
10
10
10
10
10
10
10
10
10
10
10
10
10
10
10
10
10
10
10
10
10
10
10
10
10
10
10
10
10
10
10
10
10
10
10
10
10
10
10
10
10
10
10
10
10
10
10
10
10
10
10
10
10
10
10
10
10
10
10
10
10
10
10
10
10
10
10
10
10
10
10
10
10
10
10
10
10
10
10
10
10
10
10
10
10
10
10
10
10
10
10
10
10
10
10
10
10
10
10
10
10
10
10
10
10
10
10
10
10
10
10
10
10
10
10
10
10
10
10
10
10
10
10
10
10
10
10
10
10
10
10
10
10
10
10
10
10
10
10
10
10
10
10
10
10
10
10
10
10
10
10
10
10
10
10
10
10
10
10
10
10
10
10
10
10
10
10
10
10
10
10
10
10
10
10
10
10
10
10
10
10
10
10
10
10
10
10
10
10
10
10
10
10
10
10
10
10
10
10
10
10
10
10
10
10
10
10
10
10
10
10
10
10
10
10
10
10
10
10
10
10
10
10
10
10
10
10
10
10
10
10
10
10
10
10
10
10
10
10
10
10
10
10
10
10
10
10
10
10
10
10
10
10
10
10
10
10
10
10
10
10
10
10
10
10
10
10
10
10
10
10
10
10
10
10
10
10
10
10
10
10
10
10
10
10
10
10
10
10
10
10
10
10
10
10
10
10
10
10
10
10
10
10
10
10
10
10
10
10
10
10
10
10
10
10
10
10
10
10
10
10
10
10
10
10
10
10
10
10
10
10
10
10
10
10
10
10
10
10
10
10
10
10
10
10
10
10
10
10
10
10
10
10
10
10
10
10
10
10
10
10
10
10
10
10
10
10
10
10
10
10
10
10
10
10
10
10
10
10
10
10
10
10
10
10
10
10
10
10
10
10
10
10
10
10
10
10
10
10
10
10
10
10
10
10
10
10
10
10
10
10
10
10
10
10
10
10
10
10
10
10
10
10
10
10
10
10
10
10
10
10
10
10
10
10
10
10
10
10
10
10
10
10
10
10
10
10
10
10
10
10
10
10
10
10
10
10
10
10
10
10
10
10
10
10
10
10
10
10
10
10
10
10
10
10
10
10
10
10
10
10
10
10
10
10
10
10
10
10
10
10
10
10
10
10
10
10
10
10
10
10
10
10
10
10
10
10
10
10
10
10
10
10
10
10
10
10
10
10
10
10
10
10
10
10
10
10
10
10
10
10
10
10
10
10
10
10
10
10
10
10
10
10
10
10
10
10
10
10
10
10
10
10
10
10
10
10
10
10
10
10
10
10
10
10
10
10
10
10
10
10
10
10
10
10
10
10
10
10
10
10
10
10
10
10
10
10
10
10
10
10
10
10
10
10
10
10
10
10
10
10
10
10
10
10
10
10
10
10
10
10
10
10
10
10
10
10
10
10
10
10
10
10
10
10
10
10
10
10
10
10
10
10
10
10
10
10
10
10
10
10
10
10
10
10
10
10
10
10
10
10
10
10
10
10
10
10
10
10
10
10
10
10
10
10
10
10
10
10
10
10
10
10
10
10
10
10
10
10
10
10
10
10
10
10
10
10
10
10
10
10
10
10
10
10
10
10
10
10
10
10
10
10
10
10
10
10
10
10
10
10
10
10
10
10
10
10
10
10
10
10
10
10
10
10
10
10
10
10
10
10
10
10
10
10
10
10
10
10
10
10
10
10
10
10
10
10
10
10
10
10
10
10
10
10
10
10
10
10
10
10
10
10
10
10
10
10
10
10
10
10
10
10
10
10
10
10
10
10
10
10
10
10
10
10
10
10
10
10
10
10
10
10
10
10
10
10
10
10
10
10
10
10
10
10
10
10
10
10
10
10
10
10
10
10
10
10
10
10
10
10
10
10
10
10
10
10
10
10
10
10
10
10
10
10
10
10
10
10
10
10
10
10
10
10
10
10
10
10
10
10
10
10
10
10
10
10
10
10
10
10
10
10
10
10
10
10
10
10
10
10
10
10
10
10
10
10
10
10
10
10
10
10
10
10
10
10
10
10
10
10
10
10
10
10
10
10
10
10
10
10
10
10
10
10
10
10
10
10
10
10
10
10
10
10
10
10
10
10
10
10
10
10
10
10
10
10
10
10
10
10
10
10
10
10
10
10
10
10
10
10
10
10
10
10
10
10
10
10
10
10
10
10
10
10
10
10
10
10
10
10
10
10
10
10
10
10
10
10
10
10
10
10
10
10
10
10
10
10
10
10
10
10
10
10
10
10
10
10
10
10
10
10
10
10
10
10
10
10
10
10
10
10
10
10
10
10
10
10
10
10
10
10
10
10
10
10
10
10
10
10
10
10
10
10
10
10
10
10
10
10
10
10
10
10
10
10
10
10
10
10
10
10
10
10
10
10
10
10
10
10
10
10
10
10
10
10
10
10
10
10
10
10
10
10
10
10
10
10
10
10
10
10
10
10
10
10
10
10
10
10
10
10
10
10
10
10
10
10
10
10
10
10
10
10
10
10
10
10
10
10
10
10
10
10
10
10
10
10
10
10
10
10
10
10
10
10
10
10
10
10
10
10
10
10
10
10
10
10
10
10
10
10
10
10
10
10
10
10
10
10
10
10
10
10
10
10
10
10
10
10
10
10
10
10
10
10
10
10
10
10
10
10
10
10
10
10
10
10
10
10
10
10
10
10
10
10
10
10
10
10
10
10
10
10
10
10
10
10
10
10
10
10
10
10
10
10
10
10
10
10
10
10
10
10
10
10
10
10
10
10
10
10
10
10
10
10
10
10
10
10
10
10
10
10
10
10
10
10
10
10
10
10
10
10
10
10
10
10
10
10
10
10
10
10
10
10
10
10
10
10
10
10
10
10
10
10
10
10
10
10
10
10
10
10
10
10
10
10
10
10
10
10
10
10
10
10
10
10
10
10
10
10
10
10
10
10
10
10
10
10
10
10
10
10
10
10
10
10
10
10
10
10
10
10
10
10
10
10
10
10
10
10
10
10
10
10
10
10
10
10
10
10
10
10
10
10
10
10
10
10
10
10
10
10
10
10
10
10
10
10
10
10
10
10
10
10
10
10
10
10
10
10
10
10
10
10
10
10
10
10
10
10
10
10
10
10
10
10
10
10
10
10
10
10
10
10
10
10
10
10
10
10
10
10
10
10
10
10
10
10
10
10
10
10
10
10
10
10
10
10
10
10
10
10
10
10
10
10
10
10
10
10
10
10
10
10
10
10
10
10
10
10
10
10
10
10
10
10
10
10
10
10
10
10
10
10
10
10
10
10
10
10
10
10
10
10
10
10
10
10
10
10
10
10
10
10
10
10
10
10
10
10
10
10
10
10
10
10
10
10
10
10
10
10
10
10
10
10
10
10
10
10
10
10
10
10
10
10
10
10
10
10
10
10
10
10
10
10
10
10
10
10
