# vtk DataFile Version 2.0
whisker_body, Created by Gmsh 4.13.1 
ASCII
DATASET UNSTRUCTURED_GRID
POINTS 578 double
9 0 0
7.268562449858393 0 22
12 0 0
4.916846385784335 0 90
8.711427074976399 0 3.666666666666667
8.422854149952798 0 7.333333333333334
8.134281224929197 0 11
7.845708299905596 0 14.66666666666667
7.557135374881994 0 18.33333333333333
8.221909118783412 3.660629787682195 0
6.022175457229734 6.688303429296539 0
2.781152949374546 8.559508646656376 0
-0.9407561694088541 8.950697058314462 0
-4.499999999999971 7.794228634059964 0
-7.281152949374503 5.290067270632291 0
-8.803328406604242 1.871205217359873 0
-8.803328406604258 -1.871205217359792 0
-7.281152949374553 -5.290067270632221 0
-4.500000000000045 -7.794228634059921 0
-0.9407561694089199 -8.950697058314455 0
2.781152949374503 -8.55950864665639 0
6.022175457229708 -6.688303429296562 0
8.221909118783401 -3.660629787682216 0
6.294759730571024 3.634281224929196 22
3.634281224929198 6.294759730571023 22
4.450710869310863e-16 7.268562449858393 22
-3.634281224929195 6.294759730571024 22
-6.29475973057102 3.634281224929205 22
-7.268562449858393 2.994115356979321e-14 22
-6.294759730571047 -3.634281224929155 22
-3.63428122492925 -6.294759730570993 22
-5.943723605265534e-14 -7.268562449858393 22
3.634281224929163 -6.294759730571043 22
6.294759730571012 -3.634281224929217 22
11.34980690040761 3.896393630456207 0
9.469686112756717 7.370552552276022 0
6.563377897469113 10.04599773915035 0
2.945825845689581 11.63280319127197 0
-0.9909521456679979 11.95901391608004 0
-4.820345095835646 10.98927991986068 0
-8.127378859508902 8.82868692807757 0
-10.55368501447787 5.71136871644487 0
-11.83633564083267 1.975135083368787 0
-11.83633564083267 -1.975135083368821 0
-10.55368501447786 -5.711368716444897 0
-8.12737885950888 -8.828686928077589 0
-4.820345095835619 -10.9892799198607 0
-0.9909521456679715 -11.95901391608004 0
2.945825845689616 -11.63280319127196 0
6.563377897469155 -10.04599773915032 0
9.469686112756747 -7.370552552275983 0
11.34980690040762 -3.896393630456205 0
3.476735421440674 3.476735421440667 90
1.012690292828946e-14 4.916846385784335 90
-3.476735421440661 3.47673542144068 90
-4.916846385784335 1.588676900374471e-14 90
-3.476735421440683 -3.476735421440658 90
-1.400432058674011e-14 -4.916846385784335 90
3.476735421440664 -3.476735421440678 90
11.69203679938193 0 3.91304347826087
11.38407359876386 0 7.826086956521739
11.07611039814578 0 11.73913043478261
10.76814719752771 0 15.65217391304348
10.46018399690964 0 19.56521739130435
10.15222079629157 0 23.47826086956522
9.844257595673493 0 27.39130434782609
9.536294395055421 0 31.30434782608696
9.228331194437349 0 35.21739130434783
8.920367993819276 0 39.1304347826087
8.612404793201204 0 43.04347826086957
8.304441592583132 0 46.95652173913044
7.996478391965059 0 50.8695652173913
7.688515191346986 0 54.78260869565218
7.380551990728914 0 58.69565217391305
7.072588790110841 0 62.60869565217391
6.764625589492769 0 66.52173913043478
6.456662388874697 0 70.43478260869566
6.148699188256625 0 74.34782608695652
5.840735987638553 0 78.26086956521739
5.532772787020479 0 82.17391304347827
5.224809586402407 0 86.08695652173914
-6.134966647104244 -6.274571598026074 2.853509995841791
-2.702343527703489 8.316958187005222 3.240497011877471
-7.29669647029721 1.827636691544709 18.77846041392395
2.134114594166722 7.211316742194417 18.79915598328123
7.196977123603734 -3.51666482459615 12.57651645152002
-1.946825084417228 -7.265650128494435 18.78034856435783
7.445654126727385 3.592916343010832 9.310939778508635
3.943384841548665 -7.810028797076707 3.187926491349022
-8.744967354205167 3.99064060528332e-14 3.240497011877475
4.052574842931475 7.770511822648053 3.001186418133532
5.179199161932046 -5.458487908517875 18.74708144102227
7.046953059310078 3.116858457992416 16.44849219010139
7.792978117434246 -3.538372053089655 5.607813014103106
7.707278729962499 3.98852219549779 4.089369515319425
1.863812820765336 -7.290873188408601 18.73742645962199
-0.136363877231282 -7.776649698095819 15.52894937050683
-3.764830534199638 -6.806220184666204 15.52592185626133
-2.072904757214323 -7.758773580993051 12.31346687617411
-5.373887504330324 -5.975842431585041 12.23924450757968
-6.669320826830634 -4.002312832609596 15.52611286577856
-7.513503275158935 -2.900179363460579 12.02254989248838
1.677067915096803 -7.859326363453475 12.24540431664676
-0.2687666877833548 -8.281503386780273 9.07396462681627
3.267790114363493 -7.627160890390685 8.923406655597267
-6.725543536956761 -4.86019097296098 8.921602289421484
-8.164309887118943 -1.596772826562401 8.65301829525667
-8.042583409848907 0.796253625623033 11.66551930014318
-8.028284617975153 2.303608820485071 8.230529734235763
-6.872713583539192 4.325914573709328 11.17103213956989
-6.385839679980967 5.459036493238385 7.60857641644063
-4.332796674542162 6.928006389168165 10.52943293552535
-4.96746506051216 6.131742486912641 14.08627480521077
-1.893361980613177 7.725901572738986 13.28409389272474
-0.8160781291752087 8.190023950656123 9.776385903482019
1.753643117546669 7.823417883984821 12.4831921672531
2.750630379511215 7.825996630272698 8.953917995414256
-2.341243521433689 7.347168968598665 16.37599753396297
5.315820529102254 6.081292359246961 11.7261471483117
3.446623633368397 7.001325576908391 15.20039966148873
-7.913776235745796 -3.243207742933762 5.685287854547074
3.464455564446462 -6.967424128528573 15.48601378565746
0.6319359430710515 8.482439969651724 6.277541176639809
-7.252081031639354 -1.995533331608602 18.78454393545838
-7.877969469239972 3.506202508419967 4.790438120172285
5.223691952997881 5.42053268879742 18.70492734248285
-7.767793757680706 -0.4193842153161391 15.51291865303619
1.540719118426278 -8.402977710278686 5.805991309314363
-1.832360176009429 -8.331404196819708 5.965258181546479
5.050001773577852 -6.273339326992787 12.0276518575336
6.375848924319143 -5.341159676867909 8.673031214423927
-5.291818307974636 -5.346375425264822 18.7742072006711
7.381053065246225 3.069260311230391 12.78540858240928
-3.813326522975458 -7.359799760707303 9.033658835285172
-3.377905476671446 7.747234121990429 6.967827556571632
7.184598876373355 -2.78731921577858 16.43756386463253
-5.136208149518934 5.513089775690199 18.61579730536155
-5.851892439654751 6.499184978914956 3.23352550883099
5.921367798351514 5.917178614187986 7.990716511414805
-7.156826293627495 3.051077248261456 15.50088794723317
6.814788025773429 -5.509125077414483 3.010191724944038
1.015255434774922 8.709990293977556 2.935630647648881
0.5921553879123002 7.73758979674621 15.75295629179827
0.3462936161858521 -8.747734942137757 3.118273377381695
-5.394344806735531 -6.572735450755452 6.315881694943534
7.866700830641475 -2.586879623351834 9.13425204205204
5.104074116657168 -6.835321878116655 5.962757297048207
-8.042851896302698 -3.580908375922071 2.490448296028824
-3.435772485331829 -8.063971063562317 2.980930189976666
-1.019657483575379 7.422012624234992 19.16442609947807
3.610831389737708 7.713243382508711 6.14236493418613
-8.50782613381662 0.2132792926120987 6.219699662607939
6.977548772259019 2.687967035861565 19.34660081406254
6.978684855943037 -2.684077463449719 19.35088268594536
5.887686974672573 -5.185313791625536 14.66893538163131
8.38164909040252 -2.643230444553577 2.686656470419795
6.082823956992484 6.094469660305548 4.947150256099052
8.08984171480126 2.579990823350195 6.463858888387706
5.875091828554114 5.200724185844928 14.65930033427874
-8.082245802606501 3.579342412058935 2.041049904209252
8.533304663115203 2.244194609452319 2.242972264382682
6.888179028671821 5.494550656528818 2.399038304352429
-2.828905728149244 2.851771142436426 22
2.729074748503344 -2.86626723422644 22
-2.454088886737166 -2.880763326016434 22
2.35425790709126 2.866267234226437 22
4.196506487047345 -7.771561172376096e-15 22
1.290635193539398 0.03960405928150649 22
-0.3688982266320847 2.1681950183078 22
-1.457528759288755 -0.09477469372876471 22
-4.433100880862604 -0.02062781288478209 22
0.2465085640506181 -2.129581898919146 22
0.08691573763610855 -4.622449061693741 22
-0.1405910079483442 4.624052550995184 22
-10.31983202371846 1.149080830487037e-14 0
0.9488176199968067 -10.27550570308071 0
0.9488176199968186 10.27550570308071 0
9.911860172928041 2.106830918111609 0
9.911860172928025 -2.106830918111621 0
5.74050136458254 -3.281280663327221 68.45947964960435
8.761134098530187 -3.360076158509917 33.24747040156395
7.44407362868952 -3.323305503185333 48.89075782304554
9.097838897250501 3.346925046322303 29.30120027615956
5.401201232320405 3.261646699543009 72.30312384159375
8.111539840237866 3.335203565040108 41.03541898028857
7.299503382026074 2.882477855600324 52.75589960909073
9.749158709004757 -3.353034939578846 21.47789884144384
-11.09527489538306 -3.809012682760156 3.419408766471422
-6.232418039053819 9.905474497031095 3.773063892724198
10.07327899865776 3.35569553745293 17.5661269536686
-2.879762434608147 -11.37192468062311 3.419408766471418
-4.816250397428224 -1.865076094056755 86.84992088843468
5.03735348109609 -3.26080356130795 76.22900163682489
4.677600194425406 3.245052061619983 80.13796914691706
4.712243512000815 10.74283313214683 3.419408766471414
6.432277693272545 -3.304580803070757 60.589661722059
8.094005879389012 -3.375425781408232 41.04572807250278
6.088984370403172 3.295834611060506 64.49992465939698
10.39529630898153 -3.361133361174588 13.6569732303231
7.94511337650492 -8.630693833987381 3.419408766471494
-11.09527489538305 3.809012682760122 3.419408766471707
10.71886229875082 3.360370264401352 9.742374045709338
-1.977922590895115 4.775127544263149 86.80166499961184
4.311926756886884 -3.226424223996101 84.04647073103104
10.31700692552852 5.583284939902489 3.419408766471418
11.04046708034911 -3.362429988012162 5.830404183151199
6.068907339767169 -3.318332645026073 64.58740323053345
7.765166913722355 -3.350321649835772 45.01686388351295
5.642496121842763 -6.105791936861487 46.83823299615129
5.278178066632268 -6.019514342876318 50.75042225416736
5.984446116956859 -6.20624722375618 42.92729542501441
6.396941106392194 -6.231243485202469 39.00495321240831
9.086075975578847 -3.364995447079913 29.36190813501666
7.186649615285207 -6.280757920663918 31.201169046227
7.525273556854446 -6.35796996548658 27.29833164618329
4.753296571983761 -8.469428856274545 29.07041654610853
3.362164804827326 -8.125038030628437 40.7462364431173
2.545732079149634 -7.768963837603326 48.59585085351793
4.064491274496943 -5.809571495256635 62.38467828494477
5.148646250283272 -8.595185516815537 25.16756030715231
1.779394262336732 -9.725914705999362 26.84378220683693
2.206386675234307 -9.952680438743577 22.94344582801
-1.390068413368076 -9.972955350374269 24.5310327848055
-1.872499844053349 -9.58202949006186 28.4202818264709
-0.9573515857040965 -10.33140159132219 20.63915957841867
-4.428901345470023 -9.252113683399861 22.14027158931001
-4.037307726193106 -9.760986778239101 18.25896803510916
-7.072090215264514 -7.695395368197326 19.67572967348045
-7.340552768976815 -7.006041098682235 23.54039136754905
-9.241029007423492 -4.656922111371745 20.98915425300419
-9.29109833297345 -3.819947603289911 24.83147065715385
-10.19754063277202 -1.062916250870986 22.20045560973645
-9.95124245415712 -0.1474959663127964 26.01804466359422
-10.36839445452307 -1.96949300164009 18.37582657594496
-10.30910709141277 1.7999426678057 19.50326078921773
-0.4830680063923517 -10.67239910565115 16.72992766239485
-6.76122130600567 -8.366205015671161 15.79708982649612
-10.7276697946795 0.8912034077738887 15.69693278276014
-9.659363686120344 4.561774435241463 16.74203848284429
-8.909797338394963 5.334675217926719 20.52356522282104
-7.36781753567969 7.632037840042694 17.68519669523642
-6.288997288094048 8.174096884195629 21.42959054827664
-4.16162483877015 9.68625482327313 18.52028920308913
-2.856237633990282 9.844656729733385 22.227887993111
2.132554990387124 -7.574073590642374 52.49480536536176
-5.154213838197174 8.592173748727427 25.16401089547433
-1.559816856925419 9.83814304009665 25.90759039742437
-3.913829606433021 8.904822466663822 28.88159763386182
1.004309338617151 10.14748330590554 22.90851103062196
-5.406611971524907 9.389934164153415 14.79974307987735
-1.750421387317233 10.63245938082818 15.55770574383598
-9.301121756610291 -2.901233888401383 28.67661625692852
-1.024127419679856 -7.982253173775085 50.21894816839039
-1.443879901398615 -7.606138340503795 54.10337621673951
-0.1250224904008528 9.669824824490105 29.59741391654269
-2.607231979538324 9.068135807545142 32.58500456521433
-4.370175592150473 -6.616813808139688 51.71765045845702
-4.688634487702346 -6.013777582285645 55.58282279699413
-4.028710151703698 -7.181395585583525 47.84833263430264
-6.674259959597244 -4.633901580192187 49.23406871158741
-6.492315128395826 -5.374529812374538 45.38313924730195
-8.084632221467741 -1.997391874585413 46.66079336008498
-7.945612615875955 -1.137102408502237 50.48726592817298
-8.052669190409905 1.733049008094328 47.81285379556579
-7.501643627533325 2.598794410715498 51.59936247189304
-8.493850626196025 0.8468543253162147 44.01476603660686
-7.214174630727786 4.406346505992712 45.06365017668139
-7.964776630598568 3.623675150987853 41.29067229693035
-5.582669925892706 6.640758017434137 42.24062771638785
-4.487699650317379 7.078902590428808 45.97681986430621
-8.835527120288923 -0.04877641908630301 40.20672960723367
1.258113039497285 9.29786793060898 33.25721098969171
-2.175047681889216 8.33166426251584 43.06269955577187
-6.04093147346916 7.329703162725155 31.78731396465364
-0.8311238628365857 8.279033564972558 46.75061469324468
-3.06087029533004 10.6350739634885 11.85762375910709
0.7609453165888622 10.98625034981756 12.54646667510735
-10.34050757944949 3.693036863917812 12.95788812750047
-11.06488929136004 -0.02580096719305322 11.88132589782478
3.821174604692434 -8.259654699541398 36.83872896834559
0.2781609580416772 -8.967091311711178 38.48195348861039
2.284045983287152 10.4819009059066 16.16399284037234
4.624497838800956 9.945193459815172 13.11521919388273
1.690531070981041 8.388620276500397 43.7440503521278
-0.6712692059968068 11.2818903235161 8.870927791228176
3.000995345921229 7.707394357949 47.38108423883359
0.5360830402182546 8.013899152268799 50.42064028882623
-8.606219505325903 2.793445796213469 37.50587297456081
-9.091940300102474 -0.8983308553142849 36.38787175543573
-8.150443280019973 -3.653564563927384 38.98431782061447
-8.039068862346001 -4.545311950225993 35.13178661569397
-9.608746381695388 0.9155198249685483 29.83082530601827
3.499256336366099 8.959570872310428 30.25773749174219
4.907202546853669 7.946758631502941 33.8012189254469
-6.584019824919031 8.972634416772106 11.06548056173142
-1.848945242637298 -7.203742880283678 57.97538734268333
-4.972161869345267 -5.375478562859122 59.4340038945272
-6.86825053869071 -3.062594628492174 56.92214870301156
-6.869398905340874 -2.223474683298005 60.73206772106311
-5.224782589894274 -4.690135882552434 63.26302908326927
-6.796410237221163 -1.311630367278488 64.52441842846341
-6.963190942172202 1.535165830106863 61.87399375104721
-5.427737284004232 -3.962036704852788 67.08907594488754
-6.394269015082482 2.412846213318648 65.63565482103132
-5.154076129217688 4.813357444762727 62.86831311143214
-4.099891085855669 5.374250035291595 66.58608572385749
-5.68248290580389 3.235536944094318 69.38781624368653
-6.056692117209741 4.157758826252419 59.1288291096736
-3.142102088019969 6.563744429729598 60.01069128848769
-4.295916648997987 6.231881187726136 56.29994927096656
-0.7193765524364334 7.473533278389874 57.07530848631848
-3.090534989630832 5.684584950704537 70.26039032003601
-4.824120590248929 3.967758067439324 73.10872777916524
-6.306890361948573 0.4798088883763985 72.10624780788385
-5.870444493346903 1.381103503090712 75.84691306757077
-5.679949935475919 -2.281518092772112 74.699243037424
-5.65475083514795 -1.433579285599795 78.35103162838479
-5.286263675995431 2.233893130663123 79.55494139623761
-3.776697874476435 -4.565033255780757 77.19303480301188
-3.449629298891807 -5.180234118946496 73.39451750040077
-0.1232440508472278 6.709749582658464 67.20462437996987
0.8085362212716013 7.180159134476331 60.6652770567478
5.563381155388109 -8.703383642817334 21.22477617170413
3.086379481394043 6.791403987987529 57.688463433231
-2.636402088758987 -6.300370220869413 65.69444495735736
6.09596000846257 8.778358171677462 16.67829401258086
2.613857189375318 8.712439996033394 36.89767024403368
-3.468506773340017 8.198937744576906 39.35845889117334
-3.668713622960605 -7.710836144392037 43.97473665831902
-1.240961417273571 6.062681410679423 73.84358829278938
-4.095098096382247 -3.866048739350529 80.91679232906084
-1.058562194495957 -5.640816287860443 79.54995979137847
-1.613527117305174 -5.196442879282069 83.33765304514722
0.7984061043729135 -9.243802736110407 34.58351107033198
4.909963547147981 -5.929004610007932 54.66074450396032
8.240780388437374 7.188632263480082 13.52474698906571
6.701688046856431 8.989256956422896 10.00658551959277
-9.185884323321934 3.606598076286364 27.08280657568902
-2.843142488676265 -8.703933714091878 36.12979547059219
-10.89226480394028 2.903800358830811 9.241378370223474
-11.30653649815278 -1.048979377778072 8.194326934825325
-10.50954295256663 -3.747107609496669 10.70412210359406
5.170512952806249 6.757323963660728 44.36292303722971
5.669076151082156 5.974305025157224 47.82688825982419
6.709189073212869 6.072498946315203 37.49315944359804
7.508049415219423 5.506262177912789 34.17039060533578
4.543473537786211 5.546621282499985 61.37162506402861
3.64582215164388 -5.710334629955913 66.39056139115289
3.237999296782435 -5.597083621042493 70.31335793637429
6.137369826446847 4.171553106325613 58.1834898711534
-4.845037356769359 7.825676089831042 35.52518364361209
-9.154447276706643 1.888675657932795 33.70644026552786
-3.268161776651466 -8.224933517252452 40.01886477038911
-0.1569465987350728 -8.663453275712001 42.37678390846447
-0.594658627011358 -8.332133397268574 46.33537841088289
4.681842145680577 -3.240313106090607 80.12796151780339
5.039819681495067 3.257890743426709 76.22279286887505
2.284701350916046 5.401979773426776 77.94929399848589
2.194580470346426 5.108474722082602 81.82898982841604
1.689682490859397 4.901409064438083 86.59938654007998
-1.642375542801956 5.501630824328872 79.52121038091724
1.872689602750014 5.885243107750092 74.00085739605782
3.048539895427383 5.726056957142096 70.04915513482671
2.952811638216449 -7.955596916247864 44.65078418266706
-3.079633421895907 -5.754711759830976 69.54191463987586
4.395155076098528 3.116451303641386 84.01447175584306
1.765358771849156 -4.868977507756309 86.66731426269013
5.407025339138153 -3.236687614586039 72.40311433207026
-2.022572090719326 7.530217097045121 53.40274575561038
5.74124584272374 3.287308356147871 68.41323689253916
6.786107291256878 -3.27008826574276 56.75976317967716
8.440423489235949 -3.330187450135498 37.1829613028284
6.854065355277794 -6.195382669370924 35.0805541206006
4.34765609915835 -8.341944813598761 32.94819663584752
-0.3822056233994792 10.476430095692 19.27023426713034
9.42150796410257 3.359526804318488 25.37986500262666
7.60196922101851 6.282548912960122 27.16501997056178
7.979997337026695 6.303663003539951 23.2600855925807
5.70061736636502 8.261631694296758 24.93580630902117
5.921170483537547 8.486424025750736 20.99154128235338
-8.144649954263159 -2.844476103320384 42.85711675750343
1.756207269170255 -7.354487793552074 56.39945360077123
10.06601973382255 -3.368964047389828 17.60022003465404
8.676540207272545 -6.394259066004135 15.52485135573326
9.048305128668227 -6.406254935261809 11.60628954573093
6.46308217814357 -8.833153407588183 13.40330152323053
6.801138654117796 -8.957772596398055 9.566547598640778
3.65176697704675 -10.50095761447609 11.2093932262028
4.084253884845535 -10.67041767521519 7.301442316173469
0.552071299325367 -11.28319020318566 8.936423953179958
0.695172744193794 -11.57654659674226 5.115512827677525
3.220315469418082 -10.31874385108707 15.12578688432515
0.1308797750421859 -10.98862029522464 12.84089446752088
-3.096847990950378 -10.73513545425275 10.50935522229352
6.042605490900387 -8.753313932388101 17.32583377377633
-3.528275361302766 -10.28191585114138 14.35238859368055
-6.355295890198772 -9.067392289434663 11.78091249723363
-5.849861876780171 -9.756354215762915 7.932047404910554
-8.638293959398936 -7.248417869521442 9.192808481349681
-7.861188704264696 -8.49499775441655 5.4096602832164
9.08293321372456 -6.939926306689092 7.232891805865513
10.13693252419194 4.082548988601254 13.61906135401581
7.913003005542586 -6.374381795139993 23.36518565175265
9.391693955794436 -3.436980807955708 25.40176692551899
10.68440983831506 -3.481633334605299 9.69018959319707
3.667623427496036 8.000617825997612 40.64444474387283
-10.48208639674238 -2.823851816322911 14.5385092946297
-4.82129858108391 -8.706915313388974 26.01401490734948
-5.226239083022155 -8.109519010449228 29.88896459980392
-2.334620902894141 -6.741517934186857 61.82432897246302
-6.802665563697106 -3.862024157200969 53.08018400083202
-7.722367285165023 -0.2503705363415927 54.30092004682945
-7.400046216628886 0.6021138202613794 58.13721853991523
-1.853042126503651 6.736696680053146 63.69740615565448
-6.836678073205633 3.414269270372368 55.37593665597886
-6.613151648188143 -0.3749983469991419 68.31141245823407
-5.620473075927244 -3.11035546533474 70.85350361869563
-9.109941750348467 -5.508769668281898 17.20404250292098
-7.606788719339405 -6.248100379943331 27.39608955516963
-7.848368734613044 -5.422344201597525 31.2658490107698
-9.795986156945341 2.719203275432727 23.29827055472749
-6.298243777775219 -6.041463860588752 41.58258076378885
-8.054123267915674 6.074733086974433 24.29203428874101
-7.068954002263387 6.777060057988355 28.04531552762106
-8.498500907647967 4.399694282970938 30.87811724967254
7.580311732836834 3.777563992074729 44.86024190387938
-8.362287544064095 6.998194868800554 13.92287258870085
3.674037623406623 5.689772357129296 66.41670828089011
0.2615947165619409 8.845603687488074 40.03126692338915
-6.350772721187698 5.119869460068257 48.82314685067171
-5.372607011065818 5.739559856420821 52.58117668919582
-3.276080115835978 7.395797094128918 49.6950705440028
-3.701154173506059 4.673816589763242 76.72255802702612
-3.799821580346403 3.929280809219813 83.02148662783841
-4.734563261373067 2.08986577149518 86.71616051827439
-5.40836210710744 0.3838896440822346 83.58180383873324
1.779364420562236 7.532672696267982 54.12868195819207
3.826863528919582 7.034620413634514 50.72102346526408
-8.916768815726861 -6.383441343448724 13.13593686139819
-0.6213194243269002 -6.007924000320925 75.72941293328198
-1.234553379756992 9.061992285930009 36.26732174301701
3.553947440751215 10.67635058259157 9.500006458362472
2.664685692378721 -10.15891907993423 19.02652506251889
1.321637931911233 -9.487680862436298 30.75802488504408
4.519417120187243 -5.850602902256269 58.53900074176764
-6.63993108189772 6.023065152767335 38.56703515015499
-6.010842641862121 -6.755695728477205 37.57659971650683
-9.243946642731744 6.318911634217558 10.19945977110546
-7.859953462407109 8.289806911413441 7.323227919465192
-4.413621710306367 10.46106761068877 8.207829918052893
-2.049543144259177 11.40808304270288 5.200288212370042
8.321157351624635 -6.359909661867558 19.3985035134382
9.75160593521146 3.347213161875277 21.47252825639078
8.36974874879583 6.288984929124593 19.45073290169447
-9.243300646286917 -1.858727529356232 32.6761195266275
4.427043393959678 -10.85751794253558 3.489446788885277
-9.217471319926023 7.184905737503438 3.977760190497869
2.062913731278302 11.35261541515606 5.863634013852364
-5.634422528122069 -7.448022273443644 33.8092842679449
-2.377971051817365 -9.15177717446244 32.32872641311602
7.122125956370307 -3.292890703204697 52.77502294389735
7.945744174744589 8.632410223959873 3.397934798244218
8.992784199502282 7.111972149434871 6.795552874748522
-11.73673621825996 0.02571422479438976 3.344725591320318
-2.065605485597664 -4.725264458924056 86.94831110865535
6.859228543081919 6.674291042485446 30.86925516803027
-10.45037716716448 -4.720628625333373 6.770950824463661
5.063907212365243 5.798301755088669 54.65858080668045
0.7828146249731821 -6.906934523121077 64.15166975826187
2.785982814333793 -5.496177291853837 74.179420141338
2.387762211360001 -5.3578729803846 77.9417495045395
-0.1534342089567719 -6.335692733260188 71.94824453313308
8.46748881804511 3.228517762827158 37.32953266161067
-7.628848411003484 5.254285031538966 34.77436510540356
1.242480533870564 -7.15505562567333 60.20030533821014
2.261594848547802 9.666049731168975 26.33868267514158
0.3024038628871168 -6.633087265217537 68.10554943365709
2.013665268376235 -5.183992811662745 81.81078746136922
10.96889972113991 3.513122029852268 6.127444545292837
10.23355556339068 -5.767975609078225 3.212942893686346
6.316593276710679 9.598981024664113 6.469279211480744
-2.44770619123781 -11.18469704853987 6.996062237415197
-6.873933111475134 -9.537580209333331 3.093366197521196
9.044713799668651 6.566188026929878 10.45928465855361
-10.12725620402121 5.359903255458917 6.884480165313871
2.743868032052179 10.09657117440593 19.53235595865188
1.093435851917694 6.882035570112666 63.93307128285446
6.537220007552706 2.973677049557176 61.22125735946742
7.611725699359648 2.926485466816484 48.85640089323691
-0.6358705557123284 5.358469414872449 83.9109403440127
0.6349848440151725 11.77146906570323 2.686307380036512
8.536595099680895 6.478175119375727 16.31028920746138
-4.250749379478618 -3.30909946074609 84.02702760128774
-11.41622635491745 1.55016272581782 6.086389158966842
-0.004795144468308471 6.411400027587029 71.00987265372696
6.778774726268892 -9.283003987616819 6.421649182511891
9.045111093514567 2.500590949182723 33.23433121578628
4.315081948340458 2.79951163583439 87.11810989700997
-9.514174564125643 -6.920414469002414 2.987886434062975
6.418572391693136 5.919663462014523 41.52921531762413
4.326193519401218 -2.783957517392793 87.10678197913087
11.42788698796132 -2.83397060423707 2.871108874984216
-0.6782105451854044 5.926486513252602 76.6798294004916
11.4373054853514 2.803594414356152 2.847310718600158
-2.90127591950284 11.45687951123684 2.305881662103326
7.055874321022205 2.893171605391841 55.57699918796771
5.409929079852004 8.175702601964753 27.90863860149983
0.9880940261269713 -11.79054933760022 2.136167595334329
-5.356522206052866 -1.655347805681845 81.23750044072261
6.301190695102874 4.951440083435439 50.64886079841116
3.73549764926056 9.497926336494983 22.79361699605123
-11.4275963698692 -1.842029425362941 5.398816343814301
-5.281267660920584 -10.29392588806064 5.468171672554818
-1.321480237890019 -0.547375036942063 90
1.786180617774924 0.7398602367303259 90
-0.8950603523447432 2.217890441286633 90
0.9353821262484028 -2.201188615676793 90
-0.1167533239890273 0.6535628080075001 30.81870930755307
0.004147116323590438 -0.002552125617462479 39.65080560825031
-0.03507511987340273 -0.02071490216310234 47.86856106084032
-0.03411103333450338 -0.01605875885189434 55.63636383332009
0.005887640318150922 0.007350851299223748 62.68991634132487
0.02509193790524922 -0.01954777332882873 70.71580889080457
0.04965368518031976 -0.003803875148380431 76.69057468624518
1.207452483152554 -3.442643455385523 27.30999001611883
3.609549654984265 -1.259694023394587 34.79263294661857
-1.988195627719815 -3.008194231396474 35.00516536796051
-3.881212046860131 2.430979542159701 27.31912188865065
4.050146762778209 1.931101463214183 27.27368676785786
-2.721513288129545 2.563109690001347 35.43746705850486
-0.001777872608937692 -0.09516134457451013 84.80045774081866
-3.861073362117651 -2.695184749418275 28.91976613637716
-2.274768493311679 2.685767034859164 43.78921917841288
0.1226998177575271 -3.474651813860555 43.75268885364066
-0.1167533239890275 0.6535628080075001 26.06699926328767
3.276976179084536 0.823079937360057 43.7772425794225
-0.6618653721915986 -3.201001335907149 51.77824556520297
-0.06512772219237917 3.191289735687382 51.75054230615092
0.1791996224864024 4.92286334586869 28.44285428542037
2.166330012669468 3.639839501824115 34.31022868438167
3.281276578001961 -0.3437690467307324 52.07270528175079
1.46380722860616 -4.576805101706344 32.00387571589938
-5.019189601810219 0.9653699252536589 31.64861337735297
4.754520224565637 -1.688056944387408 30.22852601174838
-2.312475880690816 0.4368393073994964 66.70991745288349
1.552611668353262 -4.357509609936981 38.42084411504847
2.199991262155211 -0.8457351510106856 66.69482153052587
-3.559296075413795 0.2895751296697064 50.86321127476907
-1.139263001302657 -2.787788401461662 59.17875827050419
-4.509260572378578 -0.6839715072992303 38.38617698596096
-4.019890393421991 -1.570940409980434 44.50504971687816
-1.897148022729676 2.235118796633706 59.1663857952734
4.419918489260651 1.260926905799515 38.67135780879659
2.624481597809306 1.348564303546445 59.14368726253723
0.2448440301547036 4.477910833595415 38.45395453139801
-0.459077618069248 -1.509464904691905 80.72600637255741
3.114364044097165 -2.968839358621135 48.50763210137059
0.5627653389758832 4.14998719824057 46.75509715327475
-2.530002991064097 4.838192949426312 31.78759555396799
5.101687497024647 -2.073350365600854 25.89606169245312
-2.373934484420318 -3.981331610226425 40.23627591615283
-5.879080086850547 -0.863207287496363 25.80329817861951
-2.352171531499507 -5.264172758241642 25.90574852294441
-2.878774781569181 -3.162805214480567 48.21589064921606
-3.624822122857577 3.253828380320196 39.77888349891125
-3.780320493769647 -1.491466185465806 54.64322992024413
3.573384475260913 1.932731740012525 48.59471087059068
3.921162890232802 -2.748559071040929 41.563238181782
2.254370890693827 -3.31600950352025 56.30008355242882
-2.641380490190788 0.1522692696531189 73.71377190645892
-2.866339654767017 2.765476139729615 54.68813975211884
1.375235417324381 4.367933443392446 42.51442616489437
0.8590287740013467 3.946743563406247 55.80964006769526
-3.155447080987161 2.859688447628792 47.74766982843536
0.09416239183810493 -2.662861880172296 73.80208260044027
0.8006616411400528 2.796607833475562 67.87311351007206
-1.762217874100858 -5.91916297906195 30.0419157178737
2.516576654656244 -2.473610255648109 60.79120160307642

CELLS 2922 13402
1 0
1 1
1 2
1 3
2 0 4
2 4 5
2 5 6
2 6 7
2 7 8
2 8 1
2 0 9
2 9 10
2 10 11
2 11 12
2 12 13
2 13 14
2 14 15
2 15 16
2 16 17
2 17 18
2 18 19
2 19 20
2 20 21
2 21 22
2 22 0
2 1 23
2 23 24
2 24 25
2 25 26
2 26 27
2 27 28
2 28 29
2 29 30
2 30 31
2 31 32
2 32 33
2 33 1
2 2 34
2 34 35
2 35 36
2 36 37
2 37 38
2 38 39
2 39 40
2 40 41
2 41 42
2 42 43
2 43 44
2 44 45
2 45 46
2 46 47
2 47 48
2 48 49
2 49 50
2 50 51
2 51 2
2 3 52
2 52 53
2 53 54
2 54 55
2 55 56
2 56 57
2 57 58
2 58 3
2 2 59
2 59 60
2 60 61
2 61 62
2 62 63
2 63 64
2 64 65
2 65 66
2 66 67
2 67 68
2 68 69
2 69 70
2 70 71
2 71 72
2 72 73
2 73 74
2 74 75
2 75 76
2 76 77
2 77 78
2 78 79
2 79 80
2 80 3
3 4 155 0
3 0 160 4
3 9 160 0
3 0 155 22
3 8 152 1
3 1 153 8
3 1 152 23
3 33 153 1
3 5 93 4
3 4 157 5
3 93 155 4
3 4 160 157
3 5 87 6
3 6 145 5
3 5 157 87
3 5 145 93
3 7 85 6
3 6 132 7
3 85 145 6
3 87 132 6
3 7 92 8
3 8 135 7
3 7 135 85
3 7 132 92
3 92 152 8
3 8 153 135
3 10 161 9
3 9 161 160
3 11 90 10
3 90 161 10
3 12 141 11
3 11 141 90
3 13 82 12
3 82 141 12
3 14 137 13
3 13 137 82
3 15 159 14
3 14 159 137
3 16 89 15
3 89 159 15
3 17 147 16
3 16 147 89
3 18 81 17
3 81 147 17
3 19 148 18
3 18 148 81
3 20 143 19
3 143 148 19
3 21 88 20
3 88 143 20
3 22 140 21
3 21 140 88
3 22 155 140
3 23 125 24
3 23 152 125
3 24 84 25
3 24 125 84
3 25 149 26
3 84 149 25
3 26 136 27
3 26 149 136
3 27 83 28
3 27 136 83
3 28 123 29
3 83 123 28
3 29 131 30
3 123 131 29
3 30 86 31
3 30 131 86
3 31 95 32
3 86 95 31
3 32 91 33
3 32 95 91
3 91 153 33
3 81 144 120
3 120 147 81
3 81 148 144
3 82 134 122
3 122 141 82
3 82 137 134
3 83 126 123
3 83 139 126
3 136 139 83
3 84 125 119
3 119 142 84
3 142 149 84
3 129 130 85
3 85 154 129
3 130 145 85
3 135 154 85
3 86 96 95
3 86 97 96
3 86 131 97
3 118 132 87
3 87 138 118
3 87 157 138
3 127 143 88
3 88 146 127
3 140 146 88
3 89 147 120
3 120 151 89
3 89 151 124
3 124 159 89
3 141 150 90
3 150 156 90
3 156 161 90
3 95 121 91
3 121 154 91
3 135 153 91
3 91 154 135
3 125 152 92
3 92 158 125
3 132 158 92
3 93 145 130
3 130 146 93
3 93 146 140
3 140 155 93
3 156 157 94
3 94 161 156
3 157 160 94
3 160 161 94
3 96 121 95
3 97 98 96
3 98 102 96
3 102 121 96
3 97 99 98
3 97 100 99
3 97 131 100
3 99 133 98
3 98 103 102
3 98 133 103
3 100 101 99
3 101 105 99
3 105 133 99
3 100 126 101
3 123 126 100
3 100 131 123
3 101 106 105
3 101 107 106
3 101 126 107
3 103 104 102
3 104 129 102
3 102 129 121
3 103 127 104
3 103 128 127
3 103 133 128
3 127 146 104
3 104 130 129
3 104 146 130
3 106 120 105
3 120 144 105
3 105 144 133
3 107 108 106
3 108 151 106
3 106 151 120
3 107 109 108
3 107 139 109
3 126 139 107
3 109 110 108
3 110 124 108
3 124 151 108
3 109 111 110
3 109 112 111
3 109 139 112
3 111 134 110
3 110 137 124
3 134 137 110
3 112 113 111
3 113 114 111
3 114 134 111
3 112 117 113
3 112 136 117
3 112 139 136
3 113 115 114
3 113 142 115
3 117 142 113
3 115 116 114
3 116 122 114
3 122 134 114
3 115 118 116
3 115 119 118
3 115 142 119
3 118 138 116
3 116 150 122
3 138 150 116
3 136 149 117
3 117 149 142
3 119 158 118
3 118 158 132
3 125 158 119
3 129 154 121
3 122 150 141
3 137 159 124
3 128 143 127
3 133 144 128
3 128 148 143
3 144 148 128
3 138 156 150
3 138 157 156
3 23 166 1
3 1 166 33
3 24 165 23
3 165 166 23
3 25 173 24
3 24 173 165
3 26 173 25
3 27 162 26
3 162 173 26
3 28 170 27
3 27 170 162
3 29 170 28
3 30 164 29
3 164 170 29
3 31 172 30
3 30 172 164
3 32 172 31
3 33 163 32
3 163 172 32
3 33 166 163
3 162 169 168
3 168 173 162
3 162 170 169
3 166 167 163
3 167 171 163
3 171 172 163
3 169 170 164
3 164 171 169
3 164 172 171
3 165 167 166
3 165 168 167
3 165 173 168
3 168 169 167
3 169 171 167
3 0 177 2
3 2 178 0
3 9 177 0
3 0 178 22
3 2 177 34
3 51 178 2
3 10 35 9
3 35 34 9
3 34 177 9
3 11 36 10
3 36 35 10
3 12 176 11
3 37 36 11
3 11 176 37
3 39 12 13
3 38 12 39
3 38 176 12
3 14 40 13
3 40 39 13
3 15 41 14
3 14 41 40
3 16 174 15
3 42 41 15
3 15 174 42
3 16 17 44
3 44 43 16
3 43 174 16
3 45 17 18
3 44 17 45
3 19 46 18
3 18 46 45
3 20 175 19
3 19 47 46
3 19 175 47
3 21 49 20
3 20 49 48
3 48 175 20
3 22 50 21
3 21 50 49
3 22 51 50
3 22 178 51
3 37 176 38
3 42 174 43
3 47 175 48
3 34 503 2
3 2 501 51
3 59 501 2
3 2 503 59
3 3 497 52
3 58 500 3
3 80 497 3
3 3 500 80
3 35 204 34
3 204 503 34
3 36 461 35
3 35 461 204
3 37 194 36
3 194 461 36
3 38 490 37
3 37 490 194
3 39 504 38
3 38 504 490
3 40 188 39
3 188 504 39
3 41 456 40
3 40 456 188
3 42 200 41
3 200 456 41
3 43 463 42
3 42 463 200
3 44 187 43
3 187 463 43
3 45 498 44
3 44 498 187
3 46 482 45
3 482 498 45
3 47 190 46
3 190 482 46
3 48 507 47
3 47 507 190
3 49 455 48
3 455 507 48
3 50 199 49
3 199 455 49
3 51 479 50
3 50 479 199
3 51 501 479
3 52 359 53
3 52 497 359
3 53 202 54
3 53 359 202
3 54 434 55
3 202 434 54
3 55 191 56
3 55 434 191
3 56 464 57
3 191 464 56
3 57 366 58
3 57 464 366
3 366 500 58
3 60 205 59
3 59 478 60
3 205 501 59
3 59 503 478
3 60 201 61
3 61 404 60
3 60 478 201
3 60 404 205
3 62 198 61
3 61 401 62
3 198 404 61
3 201 401 61
3 62 189 63
3 63 382 62
3 62 401 189
3 62 382 198
3 64 186 63
3 63 452 64
3 186 382 63
3 189 452 63
3 64 375 65
3 65 403 64
3 64 403 186
3 64 452 375
3 65 182 66
3 66 212 65
3 65 375 182
3 212 403 65
3 67 180 66
3 66 496 67
3 180 212 66
3 182 496 66
3 68 371 67
3 67 472 68
3 67 371 180
3 67 496 472
3 68 184 69
3 69 196 68
3 68 472 184
3 196 371 68
3 70 207 69
3 69 425 70
3 184 425 69
3 69 207 196
3 71 181 70
3 70 488 71
3 181 207 70
3 425 488 70
3 71 185 72
3 72 460 71
3 71 460 181
3 71 488 185
3 73 370 72
3 72 505 73
3 185 505 72
3 370 460 72
3 74 195 73
3 73 487 74
3 195 370 73
3 349 487 73
3 73 505 349
3 74 197 75
3 75 206 74
3 74 206 195
3 74 487 197
3 76 179 75
3 75 369 76
3 179 206 75
3 197 369 75
3 76 183 77
3 77 367 76
3 76 367 179
3 76 369 183
3 78 192 77
3 77 356 78
3 183 356 77
3 192 367 77
3 78 193 79
3 79 355 78
3 78 355 192
3 78 356 193
3 80 203 79
3 79 365 80
3 193 365 79
3 203 355 79
3 80 500 203
3 365 497 80
3 179 347 206
3 179 348 347
3 179 367 348
3 180 213 212
3 180 372 213
3 371 372 180
3 181 208 207
3 181 209 208
3 181 460 209
3 375 376 182
3 376 465 182
3 465 496 182
3 183 361 356
3 183 362 361
3 183 369 362
3 184 472 344
3 344 499 184
3 184 499 425
3 467 505 185
3 185 509 467
3 488 509 185
3 186 451 382
3 186 403 402
3 402 451 186
3 187 511 463
3 187 498 466
3 466 511 187
3 448 449 188
3 188 456 448
3 449 450 188
3 450 504 188
3 401 491 189
3 189 453 452
3 189 491 453
3 390 481 190
3 190 507 390
3 481 512 190
3 190 512 482
3 434 435 191
3 435 492 191
3 191 492 464
3 355 470 192
3 192 469 367
3 192 470 469
3 356 357 193
3 357 358 193
3 358 365 193
3 457 480 194
3 194 490 457
3 194 480 461
3 206 218 195
3 218 444 195
3 195 444 370
3 207 210 196
3 210 211 196
3 211 371 196
3 346 427 197
3 197 487 346
3 197 427 369
3 382 383 198
3 383 384 198
3 384 404 198
3 199 479 400
3 400 495 199
3 199 495 455
3 200 484 456
3 463 493 200
3 200 493 484
3 201 483 401
3 201 478 462
3 462 483 201
3 359 489 202
3 433 434 202
3 202 489 433
3 203 477 355
3 366 477 203
3 203 500 366
3 461 462 204
3 462 478 204
3 478 503 204
3 205 404 400
3 400 479 205
3 479 501 205
3 206 347 218
3 208 210 207
3 209 217 208
3 208 363 210
3 217 363 208
3 209 244 217
3 209 334 244
3 209 460 334
3 210 216 211
3 210 363 216
3 216 279 211
3 279 372 211
3 211 372 371
3 213 214 212
3 214 403 212
3 213 215 214
3 213 373 215
3 372 373 213
3 215 219 214
3 219 402 214
3 402 403 214
3 215 220 219
3 215 443 220
3 373 443 215
3 216 280 279
3 216 353 280
3 216 363 353
3 244 252 217
3 252 354 217
3 354 363 217
3 347 468 218
3 218 474 444
3 468 474 218
3 220 221 219
3 221 322 219
3 322 402 219
3 220 222 221
3 220 223 222
3 220 443 223
3 222 224 221
3 224 442 221
3 221 442 322
3 223 407 222
3 222 225 224
3 222 407 225
3 223 408 407
3 223 459 408
3 443 459 223
3 225 226 224
3 226 235 224
3 235 442 224
3 225 227 226
3 225 228 227
3 225 407 228
3 227 236 226
3 226 395 235
3 236 395 226
3 228 229 227
3 229 417 227
3 227 417 236
3 228 230 229
3 228 418 230
3 407 418 228
3 230 231 229
3 231 233 229
3 233 417 229
3 230 232 231
3 230 251 232
3 230 418 251
3 232 420 231
3 231 234 233
3 231 420 234
3 251 291 232
3 291 337 232
3 337 420 232
3 234 237 233
3 237 406 233
3 406 417 233
3 234 238 237
3 234 239 238
3 234 420 239
3 235 392 391
3 391 442 235
3 235 395 392
3 236 396 395
3 236 438 396
3 417 438 236
3 238 277 237
3 277 278 237
3 278 406 237
3 239 240 238
3 240 426 238
3 238 426 277
3 239 241 240
3 239 422 241
3 420 422 239
3 241 242 240
3 242 249 240
3 249 426 240
3 241 243 242
3 241 245 243
3 241 422 245
3 243 374 242
3 242 250 249
3 242 374 250
3 245 246 243
3 246 248 243
3 248 374 243
3 244 253 252
3 244 381 253
3 334 381 244
3 245 247 246
3 245 423 247
3 422 423 245
3 247 254 246
3 246 475 248
3 254 475 246
3 247 255 254
3 247 273 255
3 247 423 273
3 248 485 374
3 475 510 248
3 248 510 485
3 250 275 249
3 275 294 249
3 294 426 249
3 250 276 275
3 250 281 276
3 250 374 281
3 251 454 291
3 418 419 251
3 419 454 251
3 253 256 252
3 256 258 252
3 258 354 252
3 253 257 256
3 253 295 257
3 253 381 295
3 255 271 254
3 271 292 254
3 292 475 254
3 255 440 271
3 273 350 255
3 350 440 255
3 257 410 256
3 256 259 258
3 256 410 259
3 295 296 257
3 296 297 257
3 297 410 257
3 259 260 258
3 260 328 258
3 328 354 258
3 259 261 260
3 259 262 261
3 259 410 262
3 261 380 260
3 260 421 328
3 380 421 260
3 262 263 261
3 263 265 261
3 265 380 261
3 262 264 263
3 262 411 264
3 410 411 262
3 264 429 263
3 263 266 265
3 263 429 266
3 411 414 264
3 414 430 264
3 264 430 429
3 266 267 265
3 267 270 265
3 270 380 265
3 266 268 267
3 266 269 268
3 266 429 269
3 268 445 267
3 267 287 270
3 267 445 287
3 269 272 268
3 272 327 268
3 327 445 268
3 269 274 272
3 269 431 274
3 429 431 269
3 287 288 270
3 288 289 270
3 289 380 270
3 271 293 292
3 271 326 293
3 271 440 326
3 274 283 272
3 283 428 272
3 272 428 327
3 273 473 350
3 423 424 273
3 424 473 273
3 274 285 283
3 274 286 285
3 274 431 286
3 276 284 275
3 284 449 275
3 275 449 294
3 281 282 276
3 282 441 276
3 276 441 284
3 277 339 278
3 277 447 339
3 426 447 277
3 339 340 278
3 340 341 278
3 341 406 278
3 280 333 279
3 333 373 279
3 279 373 372
3 280 338 333
3 280 352 338
3 280 353 352
3 281 325 282
3 281 485 325
3 374 485 281
3 325 335 282
3 335 336 282
3 336 441 282
3 285 342 283
3 342 405 283
3 405 428 283
3 441 457 284
3 284 450 449
3 284 457 450
3 286 437 285
3 285 343 342
3 285 437 343
3 286 431 368
3 368 436 286
3 436 437 286
3 287 351 288
3 287 473 351
3 445 473 287
3 288 290 289
3 288 454 290
3 351 454 288
3 290 446 289
3 289 421 380
3 289 446 421
3 290 454 419
3 419 458 290
3 290 458 446
3 291 424 337
3 351 424 291
3 291 454 351
3 293 465 292
3 465 506 292
3 292 506 475
3 326 344 293
3 344 345 293
3 345 465 293
3 294 447 426
3 294 448 447
3 294 449 448
3 295 409 296
3 381 474 295
3 295 474 409
3 296 298 297
3 296 299 298
3 296 409 299
3 298 412 297
3 297 411 410
3 297 412 411
3 299 300 298
3 300 301 298
3 301 412 298
3 299 302 300
3 299 324 302
3 299 409 324
3 300 303 301
3 302 415 300
3 300 415 303
3 303 304 301
3 304 307 301
3 307 412 301
3 324 364 302
3 364 416 302
3 302 416 415
3 303 305 304
3 303 306 305
3 303 415 306
3 305 413 304
3 304 308 307
3 304 413 308
3 306 311 305
3 311 320 305
3 320 413 305
3 306 312 311
3 306 313 312
3 306 415 313
3 308 309 307
3 309 414 307
3 307 414 412
3 308 310 309
3 308 321 310
3 308 413 321
3 310 368 309
3 368 430 309
3 309 430 414
3 321 323 310
3 323 436 310
3 310 436 368
3 312 329 311
3 311 494 320
3 329 494 311
3 313 314 312
3 314 432 312
3 312 432 329
3 313 315 314
3 313 416 315
3 415 416 313
3 315 316 314
3 316 317 314
3 317 432 314
3 315 318 316
3 315 319 318
3 315 416 319
3 316 508 317
3 318 330 316
3 330 508 316
3 360 432 317
3 317 433 360
3 317 435 433
3 317 508 435
3 319 439 318
3 318 331 330
3 318 439 331
3 319 416 364
3 364 471 319
3 319 471 439
3 362 427 320
3 320 494 362
3 320 486 413
3 427 486 320
3 321 346 323
3 321 486 346
3 413 486 321
3 322 442 394
3 394 451 322
3 322 451 402
3 346 349 323
3 349 467 323
3 323 467 436
3 324 476 364
3 409 468 324
3 468 476 324
3 325 491 335
3 379 453 325
3 325 485 379
3 453 491 325
3 326 405 344
3 326 428 405
3 326 440 428
3 327 440 350
3 350 445 327
3 428 440 327
3 352 353 328
3 328 421 352
3 353 354 328
3 361 494 329
3 329 502 361
3 432 502 329
3 331 332 330
3 332 492 330
3 492 508 330
3 331 477 332
3 439 470 331
3 470 477 331
3 366 464 332
3 332 477 366
3 464 492 332
3 338 459 333
3 333 443 373
3 333 459 443
3 370 444 334
3 334 460 370
3 334 444 381
3 335 483 336
3 401 483 335
3 335 491 401
3 336 480 441
3 462 480 336
3 336 483 462
3 337 422 420
3 337 423 422
3 337 424 423
3 352 446 338
3 446 458 338
3 458 459 338
3 339 493 340
3 447 484 339
3 484 493 339
3 340 466 341
3 340 511 466
3 493 511 340
3 398 438 341
3 341 466 398
3 341 438 406
3 343 425 342
3 342 499 405
3 425 499 342
3 343 488 425
3 437 509 343
3 343 509 488
3 344 472 345
3 405 499 344
3 345 496 465
3 472 496 345
3 346 487 349
3 346 486 427
3 348 476 347
3 347 476 468
3 367 469 348
3 469 471 348
3 471 476 348
3 349 505 467
3 350 473 445
3 351 473 424
3 421 446 352
3 353 363 354
3 355 477 470
3 356 361 357
3 357 360 358
3 357 502 360
3 361 502 357
3 359 365 358
3 358 489 359
3 360 489 358
3 359 497 365
3 360 502 432
3 433 489 360
3 362 494 361
3 369 427 362
3 364 476 471
3 368 431 430
3 375 377 376
3 375 452 377
3 377 378 376
3 378 506 376
3 376 506 465
3 377 379 378
3 377 453 379
3 452 453 377
3 379 510 378
3 475 506 378
3 378 510 475
3 485 510 379
3 444 474 381
3 382 451 383
3 383 385 384
3 383 394 385
3 383 451 394
3 385 386 384
3 386 400 384
3 400 404 384
3 385 387 386
3 385 391 387
3 385 394 391
3 387 388 386
3 388 495 386
3 386 495 400
3 387 389 388
3 387 392 389
3 391 392 387
3 389 390 388
3 390 455 388
3 455 495 388
3 389 481 390
3 392 393 389
3 393 481 389
3 390 507 455
3 394 442 391
3 392 395 393
3 395 396 393
3 396 397 393
3 397 481 393
3 396 398 397
3 396 438 398
3 398 399 397
3 399 512 397
3 397 512 481
3 398 466 399
3 466 498 399
3 399 498 482
3 482 512 399
3 406 438 417
3 408 418 407
3 408 419 418
3 408 458 419
3 408 459 458
3 409 474 468
3 412 414 411
3 430 431 429
3 433 435 434
3 435 508 492
3 436 467 437
3 467 509 437
3 469 470 439
3 439 471 469
3 441 480 457
3 448 484 447
3 456 484 448
3 457 490 450
3 490 504 450
3 461 480 462
3 463 511 493
3 52 514 3
3 3 516 58
3 514 516 3
3 53 515 52
3 52 515 514
3 54 515 53
3 55 515 54
3 56 513 55
3 513 515 55
3 57 516 56
3 56 516 513
3 58 516 57
3 514 515 513
3 513 516 514
4 245 527 26 538
4 364 544 522 546
4 364 522 476 546
4 521 544 324 546
4 468 521 324 546
4 290 526 419 542
4 419 526 531 542
4 77 523 522 574
4 496 539 528 543
4 506 378 528 538
4 288 526 290 542
4 246 245 26 538
4 378 24 528 538
4 324 521 299 544
4 288 526 542 549
4 290 526 288 549
4 301 300 298 521
4 25 246 26 538
4 301 521 298 551
4 300 299 298 521
4 409 299 324 521
4 290 419 454 542
4 26 527 173 538
4 183 522 77 523
4 409 324 468 521
4 528 539 517 543
4 25 26 173 538
4 521 548 298 551
4 298 521 299 548
4 304 301 521 544
4 193 79 530 555
4 72 553 540 568
4 247 527 245 538
4 378 475 24 538
4 165 528 24 538
4 517 526 525 529
4 253 565 548 568
4 253 257 548 565
4 304 521 413 544
4 26 162 173 527
4 506 475 378 538
4 295 253 257 548
4 31 220 32 524
4 300 521 301 544
4 171 163 167 534
4 295 253 548 568
4 193 79 365 530
4 454 288 290 542
4 304 303 301 544
4 528 538 517 539
4 193 523 78 555
4 419 526 458 531
4 300 299 521 544
4 265 270 549 550
4 265 549 270 564
4 525 526 518 529
4 358 523 193 555
4 458 531 526 576
4 265 550 549 564
4 253 536 565 568
4 520 553 540 572
4 24 475 25 538
4 299 521 409 548
4 522 523 361 569
4 540 553 520 568
4 304 521 301 551
4 413 544 521 575
4 72 505 540 553
4 409 548 521 577
4 468 324 476 546
4 24 25 173 538
4 409 521 468 577
4 517 529 525 539
4 183 361 522 523
4 173 165 24 538
4 521 546 197 575
4 182 496 528 543
4 465 538 528 539
4 472 539 525 552
4 265 270 267 564
4 173 162 168 534
4 540 553 505 572
4 247 245 246 538
4 468 521 546 577
4 197 521 74 546
4 496 525 539 543
4 79 193 78 555
4 416 522 364 544
4 220 219 32 524
4 321 521 551 553
4 364 324 302 544
4 279 525 372 541
4 77 522 367 574
4 304 413 521 551
4 215 214 524 543
4 525 529 518 539
4 412 551 548 565
4 220 524 31 562
4 354 556 533 563
4 279 525 541 545
4 334 209 536 540
4 302 324 299 544
4 265 532 550 564
4 217 556 354 563
4 173 527 162 534
4 348 476 522 546
4 471 476 364 522
4 290 458 419 526
4 173 527 534 538
4 298 548 412 551
4 486 521 321 553
4 288 351 287 549
4 486 521 413 551
4 465 528 496 539
4 244 334 209 536
4 371 525 545 567
4 197 74 521 553
4 164 171 534 562
4 372 525 279 545
4 297 412 548 565
4 419 531 458 576
4 77 76 367 522
4 351 529 287 549
4 486 321 521 551
4 471 348 476 522
4 524 534 171 562
4 298 297 412 548
4 358 193 530 555
4 252 556 217 563
4 371 552 525 567
4 357 193 358 523
4 215 214 219 524
4 74 546 521 577
4 489 530 433 555
4 165 534 528 538
4 164 534 169 561
4 334 540 536 568
4 486 413 321 551
4 468 546 347 577
4 263 547 261 550
4 183 77 356 523
4 271 538 292 539
4 265 267 532 564
4 524 541 215 543
4 524 543 214 559
4 538 539 271 558
4 252 217 354 563
4 164 534 561 562
4 533 556 208 567
4 171 524 163 534
4 306 522 313 544
4 219 32 524 559
4 197 487 74 553
4 367 76 179 522
4 263 547 550 573
4 219 524 214 559
4 413 521 486 575
4 31 32 172 524
4 348 367 179 522
4 252 536 556 563
4 355 79 78 555
4 26 245 422 527
4 372 213 541 543
4 525 517 539 543
4 440 539 529 558
4 72 370 73 568
4 261 550 547 563
4 304 413 305 544
4 165 173 534 538
4 372 541 525 543
4 472 525 67 552
4 207 208 556 567
4 371 545 211 567
4 76 179 522 546
4 360 523 358 555
4 247 423 245 527
4 193 365 358 530
4 364 522 416 574
4 303 300 301 544
4 526 531 517 541
4 355 78 523 555
4 23 376 378 528
4 329 522 361 569
4 333 541 526 545
4 179 348 522 546
4 427 521 197 575
4 72 73 553 568
4 329 361 523 569
4 302 416 364 544
4 416 522 313 569
4 506 378 376 528
4 338 333 526 545
4 292 538 465 539
4 358 530 489 555
4 465 182 496 528
4 24 23 378 528
4 467 537 509 540
4 313 522 306 569
4 375 528 1 559
4 443 215 220 524
4 209 536 540 556
4 192 523 77 574
4 246 25 475 538
4 164 171 169 534
4 271 539 440 558
4 207 556 535 567
4 531 561 534 562
4 354 217 533 556
4 502 523 432 569
4 468 347 218 577
4 364 416 319 574
4 333 459 526 541
4 521 553 74 577
4 537 540 467 572
4 215 524 443 541
4 529 539 440 554
4 208 210 363 567
4 65 375 1 559
4 215 213 214 543
4 180 372 525 543
4 502 329 523 569
4 167 534 163 559
4 66 180 67 525
4 180 213 372 543
4 208 363 533 567
4 215 219 220 524
4 338 333 459 526
4 422 27 26 527
4 334 536 244 568
4 220 443 524 576
4 465 506 528 538
4 531 541 526 576
4 180 525 66 543
4 213 215 541 543
4 265 266 263 573
4 360 489 433 555
4 265 263 550 573
4 529 542 526 549
4 265 550 266 573
4 206 546 74 577
4 364 471 522 574
4 496 525 472 539
4 183 356 361 523
4 486 521 427 575
4 306 313 415 544
4 526 517 531 542
4 468 476 347 546
4 76 546 522 575
4 527 538 247 558
4 509 540 537 566
4 363 533 217 556
4 77 183 76 522
4 306 522 311 569
4 443 541 524 576
4 311 522 329 569
4 416 522 569 574
4 422 245 423 527
4 348 522 471 574
4 65 528 375 559
4 418 29 561 562
4 279 541 333 545
4 329 311 494 522
4 305 544 413 575
4 505 467 540 572
4 185 467 509 540
4 300 302 299 544
4 380 549 270 550
4 524 517 531 541
4 27 527 337 561
4 301 298 412 551
4 266 550 532 573
4 279 372 373 541
4 338 545 526 560
4 423 527 247 558
4 354 217 363 533
4 547 563 550 573
4 486 346 521 553
4 291 542 531 561
4 346 197 521 553
4 459 526 541 576
4 31 524 172 562
4 338 280 333 545
4 424 527 423 558
4 357 358 360 523
4 311 522 306 544
4 348 367 522 574
4 208 533 363 556
4 355 78 192 523
4 70 535 207 556
4 502 432 329 569
4 355 192 470 523
4 470 355 523 555
4 519 533 532 535
4 535 556 533 567
4 345 465 496 539
4 162 26 27 527
4 496 67 472 525
4 265 532 266 550
4 360 358 489 555
4 369 546 76 575
4 331 470 439 523
4 331 439 318 523
4 465 292 506 538
4 496 472 345 539
4 524 541 531 576
4 329 494 361 522
4 525 552 545 567
4 78 77 192 523
4 251 291 531 561
4 375 23 1 528
4 486 321 346 553
4 525 539 518 552
4 32 163 524 559
4 265 380 270 550
4 548 565 520 568
4 446 526 290 549
4 525 526 517 541
4 263 262 261 547
4 524 562 220 576
4 312 306 311 569
4 342 557 535 566
4 440 529 350 558
4 536 520 565 568
4 32 31 221 220
4 524 517 528 534
4 410 547 536 563
4 251 531 291 542
4 532 533 518 535
4 551 565 412 570
4 418 228 29 562
4 254 538 271 558
4 424 542 527 558
4 291 527 542 561
4 329 361 502 523
4 328 354 533 563
4 316 523 318 569
4 526 529 517 542
4 182 66 496 543
4 168 165 173 534
4 327 350 529 564
4 549 550 380 560
4 494 362 361 522
4 280 545 338 560
4 533 550 328 563
4 458 526 459 576
4 416 569 319 574
4 318 523 316 555
4 255 271 440 558
4 327 529 350 554
4 522 544 311 575
4 473 287 351 529
4 529 554 327 564
4 267 266 265 532
4 70 535 556 566
4 532 533 519 550
4 262 261 547 563
4 410 536 256 563
4 328 258 354 563
4 370 72 540 568
4 418 29 230 561
4 192 77 367 574
4 203 530 79 555
4 317 523 360 555
4 65 182 528 543
4 518 526 525 545
4 244 536 209 556
4 420 27 337 561
4 222 220 31 562
4 430 537 547 573
4 470 523 331 555
4 517 524 528 543
4 163 534 524 559
4 334 460 209 540
4 331 523 318 555
4 518 533 532 550
4 446 338 526 560
4 518 539 529 554
4 458 338 459 526
4 375 1 64 65
4 362 522 494 575
4 272 564 554 571
4 65 66 182 543
4 312 311 329 569
4 197 74 75 546
4 24 165 23 528
4 376 23 375 528
4 350 529 440 554
4 422 337 27 527
4 167 166 534 559
4 185 505 467 540
4 536 547 410 565
4 219 402 32 559
4 67 525 371 552
4 430 431 537 573
4 291 337 527 561
4 66 525 496 543
4 518 550 549 560
4 207 210 208 567
4 23 378 376 377
4 409 468 474 577
4 32 163 172 524
4 273 424 423 558
4 164 169 170 561
4 272 532 564 571
4 289 549 380 560
4 437 509 467 537
4 496 66 67 525
4 327 554 272 564
4 291 527 424 542
4 260 328 550 563
4 291 337 424 527
4 526 549 446 560
4 409 474 548 577
4 418 561 531 562
4 295 381 253 568
4 353 533 216 545
4 517 531 527 534
4 519 537 536 540
4 203 79 355 555
4 425 342 535 566
4 421 289 380 560
4 72 73 505 553
4 373 372 213 541
4 223 220 562 576
4 473 529 351 542
4 531 534 524 562
4 370 540 460 568
4 425 343 342 566
4 517 524 531 534
4 253 244 536 568
4 405 554 552 571
4 274 269 272 532
4 520 537 536 547
4 316 523 317 555
4 439 523 470 574
4 536 537 520 540
4 327 350 440 554
4 499 405 552 571
4 219 214 402 559
4 254 292 271 538
4 318 523 439 574
4 500 514 80 530
4 370 72 460 540
4 316 318 315 569
4 526 541 525 545
4 181 556 71 566
4 274 532 272 557
4 361 357 502 523
4 352 280 338 560
4 356 78 193 523
4 269 532 274 557
4 316 314 523 569
4 321 553 551 572
4 192 470 523 574
4 346 487 197 553
4 311 494 522 575
4 499 552 535 571
4 298 296 297 548
4 536 537 519 547
4 318 569 523 574
4 519 533 556 563
4 67 371 68 552
4 410 259 547 563
4 220 221 32 219
4 430 547 537 570
4 296 548 257 565
4 518 552 539 554
4 65 543 528 559
4 446 290 289 549
4 304 305 303 544
4 362 183 361 522
4 433 530 435 555
4 328 550 533 560
4 296 257 297 565
4 78 356 77 523
4 317 360 433 555
4 533 535 519 556
4 296 297 548 565
4 342 535 557 571
4 363 216 533 567
4 308 321 413 551
4 271 292 293 539
4 307 551 412 570
4 253 381 244 568
4 454 351 288 542
4 548 551 520 565
4 517 539 538 558
4 172 524 171 562
4 298 299 296 548
4 410 256 259 563
4 415 416 302 544
4 432 523 314 569
4 333 279 373 541
4 348 347 476 546
4 162 169 168 534
4 1 64 65 559
4 527 534 531 561
4 304 308 413 551
4 32 402 33 559
4 228 418 29 230
4 286 537 431 557
4 216 545 533 567
4 533 545 353 560
4 458 290 446 526
4 514 497 80 530
4 420 28 27 561
4 287 529 445 564
4 517 525 541 543
4 421 550 328 560
4 431 557 537 573
4 206 75 74 546
4 473 542 424 558
4 509 537 437 566
4 423 337 422 527
4 23 166 1 528
4 162 27 170 527
4 445 287 473 529
4 71 556 540 566
4 529 542 473 558
4 408 419 458 576
4 197 546 369 575
4 460 540 334 568
4 327 428 272 554
4 356 193 357 523
4 517 541 524 543
4 421 380 550 560
4 414 307 412 570
4 518 533 550 560
4 445 529 350 564
4 344 345 472 539
4 273 473 424 558
4 260 258 328 563
4 464 191 513 530
4 272 554 428 571
4 287 549 529 564
4 364 319 471 574
4 372 279 211 545
4 208 363 217 556
4 517 527 531 542
4 518 529 526 549
4 539 552 344 554
4 353 363 216 533
4 272 557 532 571
4 317 316 314 523
4 254 271 255 558
4 181 71 70 566
4 181 70 556 566
4 1 528 166 559
4 268 272 532 564
4 528 534 166 559
4 371 211 196 567
4 170 527 27 561
4 163 171 172 524
4 256 536 410 565
4 344 539 472 552
4 191 434 513 530
4 292 465 293 539
4 255 440 350 558
4 421 260 328 550
4 274 272 283 557
4 321 323 553 572
4 327 445 350 564
4 362 183 522 575
4 454 251 291 542
4 376 465 506 528
4 267 268 266 532
4 537 557 437 566
4 181 70 207 556
4 338 458 446 526
4 344 552 405 554
4 317 314 432 523
4 502 357 360 523
4 262 410 259 547
4 164 561 29 562
4 518 545 525 552
4 373 213 215 541
4 68 69 552 567
4 321 551 310 572
4 273 423 247 558
4 270 287 267 564
4 424 337 423 527
4 180 371 67 525
4 432 502 360 523
4 286 437 537 557
4 361 356 357 523
4 436 537 467 572
4 305 413 320 575
4 267 268 532 564
4 272 283 557 571
4 535 552 69 567
4 446 352 338 560
4 531 542 527 561
4 180 372 371 525
4 519 535 532 557
4 499 405 344 552
4 408 531 419 576
4 420 337 232 561
4 280 353 545 560
4 181 540 71 556
4 418 531 408 562
4 499 184 535 552
4 167 163 166 559
4 436 437 467 537
4 317 432 360 523
4 363 210 216 567
4 315 569 318 574
4 270 549 287 564
4 516 514 500 530
4 505 553 349 572
4 411 547 264 570
4 446 549 289 560
4 326 440 271 539
4 318 316 330 555
4 499 535 342 571
4 527 517 538 558
4 244 209 217 556
4 197 75 369 546
4 68 196 69 567
4 265 263 261 550
4 79 203 80 530
4 527 542 517 558
4 252 354 258 563
4 312 313 306 569
4 550 563 519 573
4 182 375 65 528
4 370 195 73 577
4 433 435 317 555
4 517 528 534 538
4 376 375 23 377
4 214 213 212 543
4 350 529 473 558
4 430 431 368 537
4 262 259 261 563
4 514 359 497 530
4 292 475 506 538
4 445 473 350 529
4 517 534 527 538
4 523 569 522 574
4 214 543 212 559
4 520 540 537 572
4 301 412 307 551
4 65 212 543 559
4 164 172 171 562
4 309 310 551 572
4 79 80 365 530
4 517 529 539 558
4 430 429 431 573
4 209 540 460 556
4 519 556 535 566
4 185 540 509 566
4 326 440 539 554
4 319 315 318 574
4 268 327 272 564
4 492 435 530 555
4 223 220 222 562
4 328 533 353 560
4 247 538 254 558
4 411 565 547 570
4 291 232 337 561
4 220 223 443 576
4 305 311 306 544
4 520 565 551 570
4 524 534 528 559
4 516 464 513 530
4 280 279 333 545
4 532 535 518 571
4 520 547 536 565
4 425 342 499 535
4 254 247 246 538
4 299 409 296 548
4 309 551 570 572
4 515 513 434 530
4 418 251 531 561
4 532 557 269 573
4 528 543 524 559
4 537 547 520 570
4 311 544 305 575
4 408 562 531 576
4 460 540 181 556
4 29 228 30 562
4 413 486 320 575
4 207 535 69 567
4 369 75 76 546
4 289 270 380 549
4 414 411 264 570
4 70 425 535 566
4 280 352 353 560
4 179 347 348 546
4 65 212 66 543
4 264 547 430 570
4 536 540 520 568
4 304 301 307 551
4 290 288 289 549
4 375 182 376 528
4 70 69 207 535
4 228 418 407 562
4 321 308 310 551
4 518 545 552 567
4 262 547 259 563
4 519 556 536 563
4 435 508 317 555
4 460 71 181 540
4 526 545 518 560
4 514 515 359 530
4 326 539 344 554
4 274 557 431 573
4 370 460 334 568
4 432 312 329 569
4 269 274 431 573
4 23 165 166 528
4 518 564 532 571
4 192 367 469 574
4 519 532 550 573
4 296 295 257 548
4 333 443 459 541
4 272 269 268 532
4 526 518 549 560
4 319 569 315 574
4 264 547 263 573
4 269 557 274 573
4 285 437 557 566
4 547 519 563 573
4 529 517 542 558
4 286 431 274 557
4 192 469 470 574
4 165 168 167 534
4 348 469 367 574
4 353 328 354 533
4 69 535 184 552
4 280 353 216 545
4 169 171 167 534
4 257 256 410 565
4 64 403 65 559
4 430 537 368 570
4 370 568 444 577
4 376 182 465 528
4 519 550 533 563
4 520 553 548 568
4 475 24 25 510
4 459 541 443 576
4 420 232 28 561
4 74 553 73 577
4 535 552 518 571
4 518 554 564 571
4 519 540 536 556
4 418 408 407 562
4 308 309 310 551
4 362 369 183 575
4 514 513 515 530
4 256 536 252 563
4 548 568 553 577
4 418 419 408 531
4 246 475 254 538
4 474 568 548 577
4 264 263 429 573
4 370 444 195 577
4 508 316 317 555
4 262 410 547 565
4 273 350 473 558
4 1 403 64 559
4 552 554 518 571
4 262 411 410 565
4 195 74 73 577
4 262 547 411 565
4 513 514 516 530
4 255 247 254 558
4 420 27 422 337
4 203 477 530 555
4 547 565 520 570
4 492 508 435 555
4 467 505 349 572
4 32 33 163 559
4 170 27 28 561
4 520 551 548 553
4 548 551 521 553
4 185 72 505 540
4 353 354 363 533
4 268 269 266 532
4 518 535 533 567
4 285 343 437 566
4 464 492 191 530
4 23 24 378 377
4 185 71 540 566
4 373 215 443 541
4 446 289 421 560
4 544 546 521 575
4 25 248 475 510
4 203 355 477 555
4 266 532 269 573
4 499 184 425 535
4 418 230 251 561
4 518 533 545 567
4 342 285 283 557
4 537 540 519 566
4 472 67 68 552
4 532 557 535 571
4 431 286 368 537
4 286 285 437 557
4 468 218 474 577
4 202 515 434 530
4 518 545 533 560
4 309 551 307 570
4 209 460 181 556
4 221 31 222 220
4 473 351 424 542
4 474 444 568 577
4 342 557 283 571
4 26 25 243 246
4 331 318 330 555
4 433 202 434 530
4 358 365 489 530
4 419 418 251 531
4 316 315 314 569
4 292 254 475 538
4 181 207 208 556
4 261 260 550 563
4 328 353 352 560
4 427 197 369 575
4 248 246 25 475
4 416 315 319 569
4 76 75 179 546
4 251 232 291 561
4 293 465 345 539
4 256 252 258 563
4 402 214 403 559
4 497 365 80 530
4 70 488 425 566
4 421 380 260 550
4 492 435 191 530
4 415 302 300 544
4 518 529 549 564
4 261 259 260 563
4 378 24 475 510
4 359 489 365 530
4 203 500 80 530
4 366 203 477 530
4 211 545 216 567
4 223 562 407 576
4 407 562 408 576
4 519 537 557 573
4 223 407 408 576
4 518 552 535 567
4 321 323 346 553
4 321 310 323 572
4 74 195 206 577
4 264 262 263 547
4 381 334 244 568
4 535 557 519 566
4 65 403 212 559
4 434 191 435 530
4 326 344 405 554
4 228 407 30 562
4 30 164 29 562
4 70 425 69 535
4 253 244 252 536
4 433 434 435 530
4 518 554 529 564
4 185 488 71 566
4 368 570 537 572
4 537 519 557 566
4 212 213 180 543
4 286 437 436 537
4 68 69 184 552
4 548 553 521 577
4 243 26 246 245
4 508 330 316 555
4 332 530 477 555
4 368 286 436 537
4 516 366 464 530
4 368 537 436 572
4 519 547 537 573
4 212 180 66 543
4 202 359 515 530
4 433 489 202 530
4 332 492 530 555
4 288 287 270 549
4 256 253 252 536
4 403 214 212 559
4 414 309 307 570
4 349 553 323 572
4 230 28 232 561
4 304 307 308 551
4 207 69 196 567
4 74 487 73 553
4 333 373 443 541
4 403 1 33 559
4 464 332 492 530
4 169 167 168 534
4 262 264 411 547
4 319 318 439 574
4 348 471 469 574
4 184 69 425 535
4 31 30 222 562
4 72 71 460 540
4 414 264 430 570
4 283 272 428 571
4 540 556 519 566
4 71 488 70 566
4 210 211 216 567
4 308 307 309 551
4 497 359 365 530
4 536 547 519 563
4 505 73 349 553
4 474 444 381 568
4 345 344 293 539
4 470 477 355 555
4 402 403 33 559
4 524 531 562 576
4 306 303 305 544
4 516 500 366 530
4 170 29 164 561
4 222 30 407 562
4 303 415 300 544
4 72 185 71 540
4 440 428 327 554
4 28 230 232 231
4 366 477 332 530
4 408 458 459 576
4 287 445 267 564
4 439 470 469 574
4 343 425 488 566
4 28 230 29 561
4 326 271 293 539
4 326 293 344 539
4 532 519 557 573
4 263 266 429 573
4 409 474 295 548
4 500 3 80 514
4 330 508 492 555
4 306 415 303 544
4 206 347 179 546
4 467 349 323 572
4 297 411 412 565
4 464 366 332 530
4 291 351 454 542
4 203 366 500 530
4 16 43 463 174
4 286 274 285 557
4 279 216 211 545
4 320 311 305 575
4 274 283 285 557
4 328 352 421 560
4 223 222 407 562
4 432 314 312 569
4 380 265 261 550
4 551 553 520 572
4 191 434 55 513
4 185 509 488 566
4 42 15 463 174
4 191 56 464 513
4 266 269 429 573
4 206 179 75 546
4 174 463 16 89
4 288 270 289 549
4 291 424 351 542
4 273 255 350 558
4 296 409 295 548
4 375 1 23 452
4 522 546 544 575
4 489 359 202 530
4 352 446 421 560
4 416 313 315 569
4 273 247 255 558
4 452 375 1 64
4 222 407 30 225
4 186 1 33 403
4 1 186 64 403
4 429 269 431 573
4 470 331 477 555
4 499 344 184 552
4 15 463 174 89
4 86 226 30 131
4 123 231 28 234
4 256 258 259 563
4 279 280 216 545
4 520 570 551 572
4 227 30 226 131
4 259 258 260 563
4 275 111 113 249
4 428 554 405 571
4 380 261 260 550
4 207 196 210 567
4 233 231 123 234
4 430 368 309 570
4 537 570 520 572
4 368 436 310 572
4 206 195 218 577
4 96 97 226 86
4 97 226 235 96
4 230 232 251 561
4 225 227 30 226
4 343 509 437 566
4 497 80 3 514
4 208 217 209 556
4 391 95 96 442
4 230 28 29 231
4 268 445 327 564
4 234 28 27 420
4 117 242 249 240
4 326 428 440 554
4 311 320 494 575
4 96 226 235 86
4 97 235 395 96
4 323 349 346 553
4 95 32 31 221
4 474 218 444 577
4 99 133 396 105
4 95 235 96 442
4 235 395 226 97
4 102 129 121 385
4 391 102 121 385
4 332 330 492 555
4 249 275 111 294
4 237 234 233 83
4 86 224 235 95
4 391 96 235 442
4 226 30 225 86
4 102 391 387 385
4 32 95 442 221
4 210 196 211 567
4 267 445 268 564
4 402 322 33 451
4 2 0 59 177
4 59 0 2 178
4 116 276 114 115
4 4 0 59 178
4 104 102 103 387
4 463 43 42 174
4 31 172 30 562
4 30 31 222 225
4 395 97 98 99
4 410 297 257 565
4 344 472 184 552
4 422 26 241 245
4 133 398 396 105
4 107 106 340 108
4 234 27 28 83
4 322 91 33 451
4 91 33 32 322
4 121 95 96 391
4 208 209 181 556
4 231 28 29 123
4 112 117 249 240
4 387 129 102 385
4 507 143 20 175
4 387 102 103 389
4 98 396 395 99
4 30 31 224 86
4 224 222 31 225
4 187 16 43 463
4 349 73 487 553
4 52 497 514 359
4 322 33 32 402
4 442 95 31 221
4 28 123 234 83
4 95 394 322 442
4 91 95 394 322
4 103 104 387 389
4 239 234 27 420
4 340 339 107 108
4 276 114 441 116
4 466 398 144 105
4 434 515 55 513
4 233 126 123 100
4 123 29 231 229
4 238 139 426 240
4 237 233 126 83
4 98 393 103 392
4 499 342 405 571
4 246 25 243 248
4 31 30 224 225
4 1 166 33 559
4 99 396 398 105
4 30 224 225 86
4 442 322 32 221
4 126 233 406 100
4 11 37 176 141
4 442 31 224 221
4 100 233 406 417
4 97 395 396 99
4 229 123 131 417
4 103 128 127 389
4 187 16 463 89
4 95 224 235 442
4 231 232 28 420
4 283 428 405 571
4 111 112 113 249
4 459 443 223 576
4 389 102 103 392
4 31 224 95 442
4 227 30 29 228
4 461 36 10 90
4 170 28 29 561
4 501 4 59 178
4 133 393 481 103
4 339 278 340 107
4 102 98 103 392
4 100 123 233 417
4 236 226 97 131
4 239 83 238 136
4 1 63 152 452
4 163 33 166 559
4 226 236 227 131
4 428 326 405 554
4 444 370 334 568
4 513 56 464 516
4 92 8 62 189
4 135 91 383 451
4 503 2 59 177
4 441 284 114 276
4 395 396 236 97
4 514 515 52 359
4 516 3 500 514
4 390 128 481 389
4 160 94 478 503
4 164 30 172 562
4 358 359 489 365
4 1 63 186 153
4 189 62 92 401
4 390 127 128 389
4 139 112 426 240
4 242 117 136 240
4 389 387 102 392
4 241 27 26 422
4 486 427 320 575
4 116 441 276 115
4 235 96 86 95
4 414 430 309 570
4 104 103 127 389
4 395 98 96 392
4 94 157 160 478
4 407 228 30 225
4 501 59 2 178
4 20 48 507 175
4 515 55 54 434
4 438 398 341 105
4 472 68 184 552
4 29 30 227 131
4 145 5 60 205
4 176 37 490 141
4 88 143 20 455
4 410 411 297 565
4 26 243 242 241
4 104 129 387 386
4 319 439 471 574
4 32 95 322 442
4 62 7 8 92
4 103 481 133 128
4 341 101 438 105
4 62 7 92 401
4 97 396 236 99
4 389 103 393 392
4 238 239 136 240
4 278 106 340 107
4 128 103 481 389
4 447 111 110 294
4 63 8 1 152
4 455 143 20 507
4 342 283 405 571
4 397 398 396 133
4 63 1 8 153
4 512 397 481 128
4 144 466 105 120
4 60 59 5 478
4 231 29 230 229
4 276 250 113 142
4 397 512 144 128
4 83 234 27 239
4 332 331 330 555
4 123 126 233 83
4 95 121 394 442
4 156 94 161 204
4 117 112 136 240
4 145 60 6 404
4 178 501 4 155
4 277 237 107 139
4 388 104 127 389
4 16 187 147 89
4 123 231 233 229
4 133 396 393 98
4 218 195 444 577
4 31 224 86 95
4 406 278 126 107
4 86 97 226 131
4 56 57 464 516
4 243 149 26 242
4 96 102 391 392
4 88 127 455 388
4 54 202 515 434
4 29 227 228 229
4 132 7 61 401
4 10 461 90 161
4 404 145 93 400
4 278 406 101 107
4 438 236 99 100
4 127 88 146 388
4 510 24 25 485
4 9 35 161 204
4 383 382 135 451
4 84 325 379 125
4 101 99 438 105
4 250 374 117 142
4 312 314 313 569
4 24 25 485 84
4 121 95 391 442
4 226 225 224 86
4 381 444 334 568
4 198 6 404 85
4 398 438 99 105
4 385 387 129 386
4 391 394 121 442
4 135 91 154 383
4 219 322 32 402
4 99 236 97 100
4 6 7 61 132
4 237 238 234 83
4 115 116 282 118
4 132 92 7 401
4 242 136 26 241
4 281 374 142 84
4 236 131 100 417
4 133 481 397 128
4 394 154 91 383
4 6 145 404 85
4 131 97 236 100
4 234 123 233 83
4 60 145 205 404
4 275 113 114 276
4 123 131 29 229
4 102 104 129 387
4 439 469 471 574
4 111 112 249 294
4 96 235 395 392
4 6 5 60 145
4 131 227 229 417
4 448 111 449 294
4 95 91 32 322
4 133 144 398 105
4 515 53 52 359
4 49 21 88 199
4 341 278 101 106
4 63 152 452 189
4 198 7 6 85
4 98 133 396 99
4 113 276 142 115
4 383 91 394 451
4 278 406 126 237
4 35 9 34 204
4 314 315 313 569
4 136 26 149 242
4 234 231 28 420
4 382 186 63 153
4 320 362 494 575
4 398 397 144 133
4 131 227 29 229
4 102 96 98 392
4 441 114 284 116
4 241 239 27 422
4 336 282 116 118
4 101 406 126 107
4 400 146 140 199
4 144 399 398 466
4 112 139 136 240
4 187 44 16 147
4 452 1 63 64
4 459 223 408 576
4 5 59 60 205
4 388 387 104 389
4 275 114 111 449
4 323 436 467 572
4 340 493 108 151
4 493 200 124 89
4 395 393 396 98
4 205 145 93 404
4 20 49 88 455
4 278 277 237 107
4 510 25 248 485
4 108 106 340 151
4 397 393 481 133
4 5 4 59 205
4 36 11 10 90
4 250 117 374 242
4 485 84 325 379
4 186 63 1 64
4 139 238 136 240
4 146 140 93 400
4 57 464 516 366
4 391 235 96 392
4 131 236 227 417
4 36 461 194 90
4 63 8 382 153
4 228 227 30 225
4 159 14 41 456
4 118 282 119 158
4 447 109 111 294
4 277 139 109 426
4 150 141 194 90
4 349 487 346 553
4 111 113 114 275
4 135 382 153 451
4 107 237 126 139
4 35 36 10 461
4 323 310 436 572
4 516 3 58 500
4 120 187 511 89
4 152 63 8 189
4 61 7 6 198
4 144 512 482 148
4 22 21 50 140
4 374 250 281 142
4 121 91 95 394
4 140 50 22 479
4 119 281 84 325
4 91 135 153 451
4 148 144 512 128
4 133 397 144 128
4 404 61 6 198
4 44 16 43 187
4 11 36 194 90
4 96 102 121 391
4 140 479 400 199
4 23 377 453 379
4 276 113 114 115
4 455 127 143 390
4 377 375 23 452
4 479 93 140 400
4 124 484 493 108
4 161 94 160 204
4 124 493 89 151
4 49 21 20 88
4 139 238 83 136
4 49 20 48 455
4 40 41 14 456
4 98 97 395 96
4 10 35 461 161
4 49 88 455 199
4 4 0 178 155
4 448 447 110 294
4 136 239 27 241
4 42 41 200 159
4 161 35 461 204
4 111 134 110 448
4 135 198 382 383
4 221 322 32 219
4 134 137 110 448
4 113 250 275 249
4 100 131 123 417
4 8 62 382 135
4 478 4 160 503
4 377 23 24 379
4 37 11 194 141
4 448 110 111 294
4 62 198 382 135
4 335 282 118 158
4 109 447 426 294
4 103 133 393 98
4 455 20 48 507
4 106 278 101 107
4 226 224 235 86
4 276 281 250 142
4 135 85 198 383
4 88 127 143 455
4 111 110 109 447
4 154 394 385 383
4 137 134 188 448
4 134 111 449 448
4 379 23 24 125
4 374 149 117 142
4 332 477 331 555
4 229 233 123 417
4 63 8 62 382
4 25 374 243 248
4 282 441 336 116
4 31 222 224 221
4 426 112 109 294
4 478 94 462 204
4 88 21 140 199
4 83 237 238 139
4 343 488 509 566
4 404 93 205 400
4 237 126 278 107
4 98 395 393 392
4 466 144 399 120
4 106 341 278 340
4 379 453 23 125
4 36 37 11 194
4 33 186 403 402
4 144 81 399 120
4 5 145 93 205
4 466 341 105 106
4 112 111 109 294
4 369 362 427 575
4 275 250 113 276
4 238 234 83 239
4 230 29 228 229
4 103 393 481 389
4 63 62 8 189
4 132 61 6 201
4 394 121 154 385
4 187 120 147 89
4 388 127 455 390
4 484 339 108 447
4 100 438 236 417
4 156 462 157 94
4 340 493 339 108
4 515 202 53 359
4 281 485 84 325
4 7 62 61 401
4 4 5 93 205
4 498 399 81 120
4 139 277 238 426
4 26 243 241 245
4 493 124 108 151
4 390 388 127 389
4 130 93 145 400
4 100 406 438 417
4 109 339 277 447
4 137 40 14 456
4 387 391 102 392
4 19 18 46 148
4 483 118 87 132
4 198 62 7 135
4 490 37 194 141
4 438 236 396 99
4 462 157 94 478
4 383 385 154 384
4 157 4 160 478
4 59 4 478 503
4 396 393 397 133
4 142 276 281 115
4 153 382 186 451
4 200 493 463 89
4 25 374 485 84
4 108 110 484 447
4 282 441 116 115
4 484 110 124 456
4 398 438 396 99
4 190 19 46 148
4 136 27 26 241
4 385 129 154 384
4 140 21 50 199
4 178 0 22 155
4 404 130 145 400
4 159 41 200 456
4 204 478 94 503
4 143 190 19 507
4 107 339 277 109
4 463 511 187 89
4 152 92 453 189
4 47 19 190 507
4 61 6 60 404
4 200 159 124 89
4 161 461 156 204
4 145 130 404 384
4 498 187 120 147
4 191 55 56 513
4 120 81 498 147
4 406 278 101 341
4 121 154 91 394
4 406 438 101 100
4 27 83 239 136
4 41 42 15 159
4 137 124 110 456
4 121 394 391 385
4 242 250 117 249
4 87 157 462 478
4 122 284 114 116
4 104 387 388 386
4 143 128 190 390
4 250 113 117 249
4 11 194 141 90
4 143 455 390 507
4 92 158 491 401
4 60 5 6 201
4 46 47 19 190
4 284 114 134 122
4 226 395 236 97
4 484 493 200 124
4 384 385 129 386
4 402 33 186 451
4 84 119 325 125
4 466 399 498 120
4 377 24 378 379
4 275 114 284 276
4 129 104 130 386
4 142 374 149 84
4 422 239 27 420
4 237 277 238 139
4 112 249 426 240
4 94 156 462 204
4 178 22 51 155
4 239 136 240 241
4 14 159 137 456
4 50 51 22 479
4 136 242 240 241
4 117 149 374 242
4 108 339 109 447
4 386 104 146 495
4 386 388 104 495
4 374 25 149 84
4 118 483 335 132
4 25 374 248 485
4 92 491 453 189
4 39 13 12 504
4 89 511 120 151
4 85 198 7 135
4 139 107 277 109
4 85 135 154 383
4 174 16 15 89
4 38 37 490 176
4 62 8 7 135
4 143 19 20 175
4 199 88 455 495
4 92 491 189 401
4 49 50 21 199
4 130 404 384 400
4 384 129 130 386
4 490 504 12 141
4 40 14 13 137
4 8 92 152 189
4 2 51 501 178
4 322 394 91 451
4 82 12 13 504
4 158 92 132 401
4 149 117 136 242
4 109 107 339 108
4 128 481 190 390
4 401 61 132 201
4 130 145 85 384
4 152 23 1 452
4 398 466 341 105
4 160 34 9 204
4 511 463 493 151
4 503 34 2 177
4 277 109 447 426
4 35 10 9 161
4 456 110 137 448
4 125 491 453 92
4 243 374 149 242
4 112 109 139 426
4 17 45 18 81
4 40 13 39 188
4 126 406 233 237
4 491 125 158 92
4 87 6 5 201
4 19 143 507 175
4 426 249 112 294
4 161 160 9 204
4 453 125 92 152
4 452 152 453 189
4 155 501 4 205
4 93 155 4 205
4 186 33 1 153
4 134 449 188 448
4 141 194 457 150
4 374 281 485 84
4 47 19 507 175
4 512 481 190 128
4 463 511 89 151
4 199 400 146 495
4 134 450 284 122
4 484 339 493 108
4 146 130 104 386
4 148 190 19 143
4 101 126 406 100
4 449 111 275 294
4 51 501 178 155
4 116 480 336 138
4 186 33 153 451
4 146 104 127 388
4 278 339 277 107
4 155 22 51 479
4 24 84 379 125
4 132 87 483 201
4 101 438 99 100
4 6 87 132 201
4 13 40 137 188
4 82 12 504 141
4 461 480 194 90
4 83 126 237 139
4 480 116 150 138
4 461 480 90 156
4 26 25 149 243
4 201 87 462 478
4 148 512 190 128
4 275 284 114 449
4 484 110 456 448
4 115 281 142 119
4 22 155 140 479
4 282 281 276 115
4 44 17 16 147
4 105 341 101 106
4 383 85 198 384
4 511 466 120 340
4 134 111 114 449
4 204 160 34 503
4 479 140 50 199
4 450 82 134 188
4 480 441 457 150
4 84 142 281 119
4 125 325 491 158
4 441 282 276 115
4 374 149 25 243
4 85 145 404 384
4 109 110 108 447
4 490 12 38 176
4 453 377 23 452
4 118 116 336 138
4 449 450 134 188
4 388 146 104 495
4 482 46 18 148
4 101 438 406 341
4 62 7 61 198
4 46 482 190 148
4 146 88 199 495
4 450 490 122 141
4 282 336 335 118
4 401 132 483 201
4 490 457 122 141
4 190 148 128 143
4 441 480 336 116
4 61 60 6 201
4 130 85 129 384
4 144 482 81 148
4 512 482 399 144
4 84 485 24 379
4 124 159 200 456
4 187 466 498 120
4 155 51 501 479
4 18 45 46 482
4 320 427 362 575
4 176 490 12 141
4 507 48 47 175
4 482 18 45 81
4 466 341 106 340
4 8 382 153 135
4 282 281 115 119
4 400 384 130 386
4 205 93 479 400
4 501 59 4 205
4 91 153 33 451
4 152 453 23 452
4 146 88 140 199
4 462 483 87 201
4 124 200 484 456
4 116 457 441 150
4 119 115 282 118
4 132 483 335 401
4 379 325 453 125
4 156 461 462 204
4 512 190 482 148
4 119 325 125 158
4 154 85 383 384
4 81 17 45 498
4 386 146 130 495
4 510 24 485 379
4 120 466 105 106
4 17 44 45 498
4 404 198 85 384
4 121 129 154 385
4 112 117 113 249
4 190 143 390 507
4 284 134 114 449
4 9 34 160 177
4 106 120 466 340
4 124 110 484 108
4 122 82 450 141
4 137 188 456 448
4 156 90 461 161
4 128 143 127 390
4 3 52 497 514
4 188 40 137 456
4 483 118 138 87
4 450 490 457 122
4 85 154 129 384
4 17 44 498 147
4 157 87 201 478
4 441 480 116 150
4 187 498 44 147
4 138 156 462 157
4 157 462 138 87
4 94 160 204 503
4 284 450 134 449
4 146 93 130 400
4 176 12 11 141
4 397 399 398 144
4 504 12 38 490
4 89 493 463 151
4 450 134 82 122
4 137 134 82 188
4 118 336 483 138
4 58 516 500 366
4 130 400 386 495
4 159 124 137 456
4 82 13 137 188
4 158 118 335 132
4 87 5 157 201
4 12 38 39 504
4 90 480 150 156
4 457 194 480 150
4 503 160 34 177
4 510 378 24 379
4 325 491 453 125
4 457 490 194 141
4 250 117 113 142
4 125 453 23 152
4 158 335 491 401
4 493 340 511 151
4 15 14 41 159
4 282 281 119 325
4 116 122 457 150
4 155 93 479 205
4 150 194 480 90
4 202 53 54 515
4 160 0 9 177
4 479 501 155 205
4 457 122 141 150
4 82 450 504 188
4 335 158 132 401
4 155 93 140 479
4 110 484 447 448
4 457 284 450 122
4 81 482 18 148
4 400 130 146 495
4 462 483 138 87
4 516 58 57 366
4 336 483 335 118
4 81 45 482 498
4 498 81 17 147
4 81 399 482 144
4 462 483 336 138
4 325 335 491 158
4 462 336 480 138
4 120 187 466 511
4 512 399 397 144
4 480 461 462 156
4 480 150 156 138
4 156 462 480 138
4 482 399 81 498
4 546 364 324 476
4 546 324 364 544
4 549 351 542 288
4 549 542 351 529
4 544 313 416 522
4 544 416 313 415
4 542 419 251 531
4 542 251 419 454
4 545 371 372 525
4 545 372 371 211
4 76 575 183 369
4 183 575 76 522
4 577 347 206 546
4 577 206 347 218
4 556 252 244 536
4 556 244 252 217
4 550 564 518 549
4 518 564 550 532
4 565 253 256 536
4 565 256 253 257
4 561 169 527 534
4 561 527 169 170
4 162 527 169 534
4 162 169 527 170
4 166 534 165 167
4 165 534 166 528
4 568 73 577 370
4 568 577 73 553
4 567 68 371 552
4 567 371 68 196
4 568 295 474 548
4 568 474 295 381
4 346 427 521 197
4 346 521 427 486
4 573 264 430 429
4 573 430 264 547
4 566 285 342 557
4 566 342 285 343
4 570 411 412 414
4 570 412 411 565
4 572 309 368 570
4 572 368 309 310
4 4 478 5 59
4 5 478 4 157
4 158 282 325 335
4 158 325 282 119
4 340 120 151 106
4 340 151 120 511
4 89 159 463 200
4 89 463 159 15
4 42 463 159 200
4 42 159 463 15
4 495 88 388 146
4 495 388 88 455
4 141 504 450 490
4 141 450 504 82
4 504 13 188 39
4 504 188 13 82
4 457 116 284 122
4 284 116 457 441
4 478 5 201 157
4 478 201 5 60
4 503 4 177 59
4 503 177 4 160
4 0 177 4 59
4 0 4 177 160

CELL_TYPES 2922
1
1
1
1
3
3
3
3
3
3
3
3
3
3
3
3
3
3
3
3
3
3
3
3
3
3
3
3
3
3
3
3
3
3
3
3
3
3
3
3
3
3
3
3
3
3
3
3
3
3
3
3
3
3
3
3
3
3
3
3
3
3
3
3
3
3
3
3
3
3
3
3
3
3
3
3
3
3
3
3
3
3
3
3
3
3
3
5
5
5
5
5
5
5
5
5
5
5
5
5
5
5
5
5
5
5
5
5
5
5
5
5
5
5
5
5
5
5
5
5
5
5
5
5
5
5
5
5
5
5
5
5
5
5
5
5
5
5
5
5
5
5
5
5
5
5
5
5
5
5
5
5
5
5
5
5
5
5
5
5
5
5
5
5
5
5
5
5
5
5
5
5
5
5
5
5
5
5
5
5
5
5
5
5
5
5
5
5
5
5
5
5
5
5
5
5
5
5
5
5
5
5
5
5
5
5
5
5
5
5
5
5
5
5
5
5
5
5
5
5
5
5
5
5
5
5
5
5
5
5
5
5
5
5
5
5
5
5
5
5
5
5
5
5
5
5
5
5
5
5
5
5
5
5
5
5
5
5
5
5
5
5
5
5
5
5
5
5
5
5
5
5
5
5
5
5
5
5
5
5
5
5
5
5
5
5
5
5
5
5
5
5
5
5
5
5
5
5
5
5
5
5
5
5
5
5
5
5
5
5
5
5
5
5
5
5
5
5
5
5
5
5
5
5
5
5
5
5
5
5
5
5
5
5
5
5
5
5
5
5
5
5
5
5
5
5
5
5
5
5
5
5
5
5
5
5
5
5
5
5
5
5
5
5
5
5
5
5
5
5
5
5
5
5
5
5
5
5
5
5
5
5
5
5
5
5
5
5
5
5
5
5
5
5
5
5
5
5
5
5
5
5
5
5
5
5
5
5
5
5
5
5
5
5
5
5
5
5
5
5
5
5
5
5
5
5
5
5
5
5
5
5
5
5
5
5
5
5
5
5
5
5
5
5
5
5
5
5
5
5
5
5
5
5
5
5
5
5
5
5
5
5
5
5
5
5
5
5
5
5
5
5
5
5
5
5
5
5
5
5
5
5
5
5
5
5
5
5
5
5
5
5
5
5
5
5
5
5
5
5
5
5
5
5
5
5
5
5
5
5
5
5
5
5
5
5
5
5
5
5
5
5
5
5
5
5
5
5
5
5
5
5
5
5
5
5
5
5
5
5
5
5
5
5
5
5
5
5
5
5
5
5
5
5
5
5
5
5
5
5
5
5
5
5
5
5
5
5
5
5
5
5
5
5
5
5
5
5
5
5
5
5
5
5
5
5
5
5
5
5
5
5
5
5
5
5
5
5
5
5
5
5
5
5
5
5
5
5
5
5
5
5
5
5
5
5
5
5
5
5
5
5
5
5
5
5
5
5
5
5
5
5
5
5
5
5
5
5
5
5
5
5
5
5
5
5
5
5
5
5
5
5
5
5
5
5
5
5
5
5
5
5
5
5
5
5
5
5
5
5
5
5
5
5
5
5
5
5
5
5
5
5
5
5
5
5
5
5
5
5
5
5
5
5
5
5
5
5
5
5
5
5
5
5
5
5
5
5
5
5
5
5
5
5
5
5
5
5
5
5
5
5
5
5
5
5
5
5
5
5
5
5
5
5
5
5
5
5
5
5
5
5
5
5
5
5
5
5
5
5
5
5
5
5
5
5
5
5
5
5
5
5
5
5
5
5
5
5
5
5
5
5
5
5
5
5
5
5
5
5
5
5
5
5
5
5
5
5
5
5
5
5
5
5
5
5
5
5
5
5
5
5
5
5
5
5
5
5
5
5
5
5
5
5
5
5
5
5
5
5
5
5
5
5
5
5
5
5
5
5
5
5
5
5
5
5
5
5
5
5
5
5
5
5
5
5
5
5
5
5
5
5
5
5
5
5
5
5
5
5
5
5
5
5
5
5
5
5
5
5
5
5
5
5
5
5
5
5
5
5
5
5
5
5
5
5
5
5
5
5
5
5
5
5
5
5
5
5
5
5
5
5
5
5
5
5
5
5
5
5
5
5
5
5
5
5
5
5
5
5
5
5
5
5
5
5
5
5
5
5
5
5
5
5
5
5
5
5
5
5
5
5
5
5
5
5
5
5
5
5
5
5
5
5
5
5
5
5
5
5
5
5
5
5
5
5
5
5
5
5
5
5
5
5
5
5
5
5
5
5
5
5
5
5
5
5
5
5
5
5
5
5
5
5
5
5
5
5
5
5
5
5
5
5
5
5
5
5
5
5
5
5
5
5
5
5
5
5
5
5
5
5
5
5
5
5
5
5
5
5
5
5
5
5
5
5
5
5
5
5
5
5
5
5
5
5
5
5
5
5
5
5
5
5
5
5
5
5
5
5
5
5
5
5
5
5
5
5
5
5
5
5
5
5
5
5
5
5
5
5
5
5
5
5
5
5
5
5
5
5
5
5
5
5
5
5
5
5
5
5
5
5
5
5
5
5
5
5
5
5
5
5
5
5
5
5
5
10
10
10
10
10
10
10
10
10
10
10
10
10
10
10
10
10
10
10
10
10
10
10
10
10
10
10
10
10
10
10
10
10
10
10
10
10
10
10
10
10
10
10
10
10
10
10
10
10
10
10
10
10
10
10
10
10
10
10
10
10
10
10
10
10
10
10
10
10
10
10
10
10
10
10
10
10
10
10
10
10
10
10
10
10
10
10
10
10
10
10
10
10
10
10
10
10
10
10
10
10
10
10
10
10
10
10
10
10
10
10
10
10
10
10
10
10
10
10
10
10
10
10
10
10
10
10
10
10
10
10
10
10
10
10
10
10
10
10
10
10
10
10
10
10
10
10
10
10
10
10
10
10
10
10
10
10
10
10
10
10
10
10
10
10
10
10
10
10
10
10
10
10
10
10
10
10
10
10
10
10
10
10
10
10
10
10
10
10
10
10
10
10
10
10
10
10
10
10
10
10
10
10
10
10
10
10
10
10
10
10
10
10
10
10
10
10
10
10
10
10
10
10
10
10
10
10
10
10
10
10
10
10
10
10
10
10
10
10
10
10
10
10
10
10
10
10
10
10
10
10
10
10
10
10
10
10
10
10
10
10
10
10
10
10
10
10
10
10
10
10
10
10
10
10
10
10
10
10
10
10
10
10
10
10
10
10
10
10
10
10
10
10
10
10
10
10
10
10
10
10
10
10
10
10
10
10
10
10
10
10
10
10
10
10
10
10
10
10
10
10
10
10
10
10
10
10
10
10
10
10
10
10
10
10
10
10
10
10
10
10
10
10
10
10
10
10
10
10
10
10
10
10
10
10
10
10
10
10
10
10
10
10
10
10
10
10
10
10
10
10
10
10
10
10
10
10
10
10
10
10
10
10
10
10
10
10
10
10
10
10
10
10
10
10
10
10
10
10
10
10
10
10
10
10
10
10
10
10
10
10
10
10
10
10
10
10
10
10
10
10
10
10
10
10
10
10
10
10
10
10
10
10
10
10
10
10
10
10
10
10
10
10
10
10
10
10
10
10
10
10
10
10
10
10
10
10
10
10
10
10
10
10
10
10
10
10
10
10
10
10
10
10
10
10
10
10
10
10
10
10
10
10
10
10
10
10
10
10
10
10
10
10
10
10
10
10
10
10
10
10
10
10
10
10
10
10
10
10
10
10
10
10
10
10
10
10
10
10
10
10
10
10
10
10
10
10
10
10
10
10
10
10
10
10
10
10
10
10
10
10
10
10
10
10
10
10
10
10
10
10
10
10
10
10
10
10
10
10
10
10
10
10
10
10
10
10
10
10
10
10
10
10
10
10
10
10
10
10
10
10
10
10
10
10
10
10
10
10
10
10
10
10
10
10
10
10
10
10
10
10
10
10
10
10
10
10
10
10
10
10
10
10
10
10
10
10
10
10
10
10
10
10
10
10
10
10
10
10
10
10
10
10
10
10
10
10
10
10
10
10
10
10
10
10
10
10
10
10
10
10
10
10
10
10
10
10
10
10
10
10
10
10
10
10
10
10
10
10
10
10
10
10
10
10
10
10
10
10
10
10
10
10
10
10
10
10
10
10
10
10
10
10
10
10
10
10
10
10
10
10
10
10
10
10
10
10
10
10
10
10
10
10
10
10
10
10
10
10
10
10
10
10
10
10
10
10
10
10
10
10
10
10
10
10
10
10
10
10
10
10
10
10
10
10
10
10
10
10
10
10
10
10
10
10
10
10
10
10
10
10
10
10
10
10
10
10
10
10
10
10
10
10
10
10
10
10
10
10
10
10
10
10
10
10
10
10
10
10
10
10
10
10
10
10
10
10
10
10
10
10
10
10
10
10
10
10
10
10
10
10
10
10
10
10
10
10
10
10
10
10
10
10
10
10
10
10
10
10
10
10
10
10
10
10
10
10
10
10
10
10
10
10
10
10
10
10
10
10
10
10
10
10
10
10
10
10
10
10
10
10
10
10
10
10
10
10
10
10
10
10
10
10
10
10
10
10
10
10
10
10
10
10
10
10
10
10
10
10
10
10
10
10
10
10
10
10
10
10
10
10
10
10
10
10
10
10
10
10
10
10
10
10
10
10
10
10
10
10
10
10
10
10
10
10
10
10
10
10
10
10
10
10
10
10
10
10
10
10
10
10
10
10
10
10
10
10
10
10
10
10
10
10
10
10
10
10
10
10
10
10
10
10
10
10
10
10
10
10
10
10
10
10
10
10
10
10
10
10
10
10
10
10
10
10
10
10
10
10
10
10
10
10
10
10
10
10
10
10
10
10
10
10
10
10
10
10
10
10
10
10
10
10
10
10
10
10
10
10
10
10
10
10
10
10
10
10
10
10
10
10
10
10
10
10
10
10
10
10
10
10
10
10
10
10
10
10
10
10
10
10
10
10
10
10
10
10
10
10
10
10
10
10
10
10
10
10
10
10
10
10
10
10
10
10
10
10
10
10
10
10
10
10
10
10
10
10
10
10
10
10
10
10
10
10
10
10
10
10
10
10
10
10
10
10
10
10
10
10
10
10
10
10
10
10
10
10
10
10
10
10
10
10
10
10
10
10
10
10
10
10
10
10
10
10
10
10
10
10
10
10
10
10
10
10
10
10
10
10
10
10
10
10
10
10
10
10
10
10
10
10
10
10
10
10
10
10
10
10
10
10
10
10
10
10
10
10
10
10
10
10
10
10
10
10
10
10
10
10
10
10
10
10
10
10
10
10
10
10
10
10
10
10
10
10
10
10
10
10
10
10
10
10
10
10
10
10
10
10
10
10
10
10
10
10
10
10
10
10
10
10
10
10
10
10
10
10
10
10
10
10
10
10
10
10
10
10
10
10
10
10
10
10
10
10
10
10
10
10
10
10
10
10
10
10
10
10
10
10
10
10
10
10
10
10
10
10
10
10
10
10
10
10
10
10
10
10
10
10
10
10
10
10
10
10
10
10
10
10
10
10
10
10
10
10
10
10
10
10
10
10
10
10
10
10
10
10
10
10
10
10
10
10
10
10
10
10
10
10
10
10
10
10
10
10
10
10
10
10
10
10
10
10
10
10
10
10
10
10
10
10
10
10
10
10
10
10
10
10
10
10
10
10
10
10
10
10
10
10
10
10
10
10
10
10
10
10
10
10
10
10
10
10
10
10
10
10
10
10
10
10
10
10
10
10
10
10
10
10
10
10
10
10
10
10
10
10
10
10
10
10
10
10
10
10
10
10
10
10
10
10
10
10
10
10
10
10
10
10
10
10
10
10
10
10
10
10
10
10
10
10
10
10
10
10
10
10
10
10
10
10
10
10
10
10
10
10
10
10
10
10
10
10
10
10
10
10
10
10
10
10
10
10
10
10
10
10
10
10
10
10
10
10
10
10
10
10
10
10
10
10
10
10
10
10
10
10
10
10
10
10
10
10
10
10
10
10
10
10
10
10
10
10
10
10
10
10
10
10
10
10
10
10
10
10
10
10
10
10
10
10
10
10
10
10
10
10
10
10
10
10
10
10
10
10
10
10
10
10
10
10
10
10
10
10
10
10
10
10
10
10
10
10
10
10
10
10
10
10
10
10
10
10
10
10
10
10
10
10
10
10
10
10
10
10
10
10
10
10
10
10
10
10
10
10
10
10
10
10
10
10
10
10
10
10
10
10
10
10
10
10
10
10
10
10
10
10
10
10
10
10
10
10
10
10
10
10
10
10
10
10
10
10
10
10
10
10
10
10
10
10
10
10
10
10
10
10
10
10
10
10
10
10
10
10
10
10
10
10
10
10
10
10
10
10
10
10
10
10
10
10
10
10
10
10
10
10
10
10
10
10
10
10
10
10
10
10
10
10
10
10
10
10
10
10
10
10
10
10
10
10
10
10
10
10
10
10
10
10
10
10
10
10
10
10
10
10
10
10
10
10
10
10
10
10
10
10
10
10
10
10
10
10
10
10
10
10
10
10
10
10
10
10
10
10
10
10
10
10
10
10
10
10
10
10
10
10
10
10
10
10
10
10
10
10
10
10
10
10
10
10
10
10
10
10
10
10
10
10
10
10
10
10
10
10
10
10
10
10
10
10
10
10
10
10
10
10
10
10
10
10
10
10
10
10
