# vtk DataFile Version 2.0
whisker_body, Created by Gmsh 4.13.1 
ASCII
DATASET UNSTRUCTURED_GRID
POINTS 589 double
9 0 0
6.638948795261445 0 30
12 0 0
4.916846385784335 0 90
8.70486859940768 0 3.75
8.40973719881536 0 7.5
8.114605798223042 0 11.25
7.819474397630723 0 15
7.524342997038404 0 18.75
7.229211596446084 0 22.5
6.934080195853765 0 26.25
8.221909118783412 3.660629787682195 0
6.022175457229734 6.688303429296539 0
2.781152949374546 8.559508646656376 0
-0.9407561694088541 8.950697058314462 0
-4.499999999999971 7.794228634059964 0
-7.281152949374503 5.290067270632291 0
-8.803328406604242 1.871205217359873 0
-8.803328406604258 -1.871205217359792 0
-7.281152949374553 -5.290067270632221 0
-4.500000000000045 -7.794228634059921 0
-0.9407561694089199 -8.950697058314455 0
2.781152949374503 -8.55950864665639 0
6.022175457229708 -6.688303429296562 0
8.221909118783401 -3.660629787682216 0
5.585039128299003 3.589286703716005 30
2.757919000102382 6.039000239690148 30
-0.944820924102263 6.571373869099363 30
-4.347586880690084 5.017382726178545 30
-6.370024721239792 1.870408018828328 30
-6.370024721239788 -1.870408018828343 30
-4.347586880690073 -5.017382726178556 30
-0.9448209241022544 -6.571373869099364 30
2.757919000102394 -6.039000239690143 30
5.585039128299002 -3.589286703716007 30
11.34980690040761 3.896393630456207 0
9.469686112756717 7.370552552276022 0
6.563377897469113 10.04599773915035 0
2.945825845689581 11.63280319127197 0
-0.9909521456679979 11.95901391608004 0
-4.820345095835646 10.98927991986068 0
-8.127378859508902 8.82868692807757 0
-10.55368501447787 5.71136871644487 0
-11.83633564083267 1.975135083368787 0
-11.83633564083267 -1.975135083368821 0
-10.55368501447786 -5.711368716444897 0
-8.12737885950888 -8.828686928077589 0
-4.820345095835619 -10.9892799198607 0
-0.9909521456679715 -11.95901391608004 0
2.945825845689616 -11.63280319127196 0
6.563377897469155 -10.04599773915032 0
9.469686112756747 -7.370552552275983 0
11.34980690040762 -3.896393630456205 0
3.476735421440674 3.476735421440667 90
1.012690292828946e-14 4.916846385784335 90
-3.476735421440661 3.47673542144068 90
-4.916846385784335 1.588676900374471e-14 90
-3.476735421440683 -3.476735421440658 90
-1.400432058674011e-14 -4.916846385784335 90
3.476735421440664 -3.476735421440678 90
11.69203679938193 0 3.91304347826087
11.38407359876386 0 7.826086956521739
11.07611039814578 0 11.73913043478261
10.76814719752771 0 15.65217391304348
10.46018399690964 0 19.56521739130435
10.15222079629157 0 23.47826086956522
9.844257595673493 0 27.39130434782609
9.536294395055421 0 31.30434782608696
9.228331194437349 0 35.21739130434783
8.920367993819276 0 39.1304347826087
8.612404793201204 0 43.04347826086957
8.304441592583132 0 46.95652173913044
7.996478391965059 0 50.8695652173913
7.688515191346986 0 54.78260869565218
7.380551990728914 0 58.69565217391305
7.072588790110841 0 62.60869565217391
6.764625589492769 0 66.52173913043478
6.456662388874697 0 70.43478260869566
6.148699188256625 0 74.34782608695652
5.840735987638553 0 78.26086956521739
5.532772787020479 0 82.17391304347827
5.224809586402407 0 86.08695652173914
-2.702343527703489 8.316958187005222 3.240497011877471
-2.702343527703563 -8.316958187005197 3.240497011877479
-6.890600858931639 -8.336269243896079e-15 26.80245735672565
6.984729630470954 -3.183875304902954 16.82091783454344
6.983880566631793 3.188368844860661 16.80703624156921
-8.744967354205167 3.99064060528332e-14 3.240497011877475
-3.110677194867317 6.134420977656617 26.96205903311719
-2.934167430929272 -6.239516703685977 26.74666950382851
7.684307384846857 -3.020227795739038 9.446629494626759
7.62406123195015 3.194134485291664 9.324779632878704
3.812462852252446 7.899649113226229 2.903283140440091
4.126594593474916 -7.714325756934197 3.193175901653638
6.159267832648385 -3.503780325865754 24.31818684659522
6.337225552330141 3.170900156905462 24.31641284834597
7.679191079029241 -4.035670508641962 4.128793655566131
7.679191079042698 4.03567050861313 4.128793655585198
6.661556350024175 3.18006256435102 20.56276437988906
4.859195746288738 5.767579960068852 18.52986018527187
5.243280696559365 5.822818695556017 14.79463237192304
2.226705554577624 7.381105501281457 16.39525934043818
2.871675389877704 7.470335515592955 12.66457482111726
-0.6759463086925284 7.86288367175892 14.07994073465401
-1.21722087019643 7.495245812754698 17.87203481002958
-4.061506164158909 6.63316000285769 15.52913861889711
-3.675747908371178 7.185740139638317 11.80017335052674
-6.289032965978445 4.890374015355916 13.12981197688599
-6.484339589940468 4.112963596965897 16.78813265620624
-7.707942934000361 1.6204760591913 14.27616737550231
-7.568480457186323 0.634924320313997 17.85138090264506
-7.530045438061536 -2.022939892696204 15.28502561863406
-6.949621734989922 -2.856859570187958 18.88252543117425
-5.760129314179168 -5.150602330851385 16.1739584864894
-6.614834940694877 -4.513743499271372 12.60308133688807
-3.900088404662328 -6.922704178842994 13.39585243907646
-2.657941802052871 -7.19350804001835 16.91390401493802
-6.061116551726729 5.605378095685655 9.456601042215528
-0.3942202711320896 -7.884267864676431 14.05157084312122
-6.617492718279111 3.292836167572097 20.43818159504064
-1.715197087197306 -7.987160988571792 10.55568258426863
1.949595599137713 -7.88693779032957 11.12646360274541
0.980119789518673 -7.557601022047743 17.52325099744913
-1.062021071756937 -7.322713681458702 20.33849227835093
2.104170226557815 -7.042598929464962 20.96244419973673
0.7851402816024768 -8.352758298386709 7.756148849856402
4.140730866496969 -7.260919543631925 8.149447506837083
-3.217311439439547 7.712775704645201 8.17118970360861
-5.753569197599623 6.315932918592712 5.798021578872619
0.2182332397963621 8.517178107167963 6.09931482711875
-7.743188164128071 3.381133156592234 6.998544689061571
4.893353734713909 -6.474805684021589 11.23340953048206
0.5935249620903725 -7.092117275411181 23.926934770886
4.428494916969236 -6.157815797133271 17.98092338009068
-3.074903132578658 -7.882051719676515 6.853714650218845
0.1566275772673075 8.217680177176677 9.921351676606511
3.143210830624872 7.670485149486763 9.027523559360173
4.467836125988774 5.706943464765599 22.26367298829855
4.405172459957887 5.343153884822721 26.36609698435332
1.317168772650199 7.001416132819559 23.83382103793974
6.611835641337872 -3.309239238320521 20.4094308727842
7.261866364975974 -3.310141688285442 12.95130026484557
7.328828722924615 3.1344858257759 13.07477167547243
-7.760227954411586 2.52321114566747 10.67155178429046
-8.353334696729318 -0.1386687065243409 8.202038183472887
3.574187336322816 -6.111141988965011 24.40087410189843
-8.006726259923635 -1.056559458534819 11.73879679366292
-5.061595592296892 -6.481413790231884 9.864419296350878
-6.693886604062536 -5.225356374557563 6.455946691213688
-5.720247152827413 3.853520907954425 26.71908350156062
-4.566190683482931 5.496553485220892 23.56007603863706
-5.796742315905808 -3.725340081133049 26.80245735672566
-4.943716613288623 -5.157819872925079 23.57675455538007
-6.84488338828457 -1.997474072039975 23.75576351891419
3.233514842033641 -7.162934407752839 14.49829166629189
1.773163206882125 7.199451926920217 20.14448326827467
-1.664124523668215 7.109716759473673 21.57672016364524
-7.466967461494987 -3.572868596610924 9.177173016287156
-4.404143626469599 6.055080431831692 19.21998111691287
-7.983331799194744 3.530585056272491 3.441069633654248
-4.471367965463433 -5.94135817999158 19.87355294881529
-6.828454798139084 2.022951789062588 23.86471021057531
-7.989426437912241 -3.557121829320882 3.233525508830988
0.9767083480065403 -8.697118572248515 3.153805297089721
-5.866169414097818 -6.515041165405203 2.962418256282584
5.641587220036565 5.829460994993874 11.27874147202497
0.9759644556460412 -6.787981888838923 27.21943198050131
0.7114802245072037 6.826365698469342 27.14880534416131
0.9175671191908721 8.730067983192829 2.81879987992643
-7.328349872209301 -0.3257630156583973 21.14837515193261
4.480091923363428 -5.17030169720445 27.42901640988628
-5.755934183938888 6.642639996691257 2.674559092496501
-8.16450727848216 -2.429619154490029 6.119987056451821
5.535194709854692 -5.548163673985789 14.77575023571483
3.003149442066357 7.974660428163142 6.081295785529997
6.218544497606302 5.750703184314642 6.734301424300662
4.656038809333492 -5.629027395547645 21.53560655949341
6.28716014327497 -2.729418933246491 27.26677904075733
6.272913616482804 2.803171667271067 27.05467619524353
2.476257730588383 -8.17942123501749 5.76812029415905
-6.17148668756425 -3.910357961986062 21.52386618902276
-1.482956500447368 6.920334824322327 24.42840766617937
8.058214495713214 -2.643216143706091 6.598976405220887
6.380928545873518 -5.601306685243198 6.472093740821831
8.058214495718763 2.643216143681282 6.598976405252129
-0.8173825742035721 -8.544642637633936 5.290239625352842
6.458571480628897 5.959723847354369 2.691900933507397
6.455273410337223 -5.972196580504862 2.615129706470063
-8.478016280171502 1.115177410008059 5.704506635521828
8.523494677877821 -2.252526978775072 2.336512438699043
8.527560818145428 2.252964121858252 2.285142624215919
-2.569524552547741 -6.707929421620202 23.08426898539325
2.353873534704741 -2.625129561992514 30
-1.288273067185314 3.006877863585641 30
-2.917518496937861 -1.87497528814877 30
1.677961234264363 3.234299642112187 30
0.01121013605653459 -0.04294495912576878 30
3.642011992814181 0.09437085349898379 30
-0.5314937233500593 -3.696620043138379 30
-3.547036291872717 1.017723390414939 30
-10.31983202371846 1.149080830487037e-14 0
0.9488176199968067 -10.27550570308071 0
0.9488176199968186 10.27550570308071 0
9.911860172928041 2.106830918111609 0
9.911860172928025 -2.106830918111621 0
5.751328656082406 -3.262518266187241 68.45789618475105
8.77343330383488 3.327916774912209 33.24707803636798
7.45050675826989 3.307316944776842 48.89870345001709
9.052329963051344 -3.467270154498389 29.30509308100174
5.401223563635125 3.261625328055958 72.30302131965854
6.458624605888414 3.255496014924757 60.57416966424052
8.100693098951005 -3.361080937280646 41.03727894087915
7.070274854204965 -3.402215790328353 52.77822000341555
9.846289494351998 3.033015453519402 21.5644084853351
-11.09527489538307 3.809012682760124 3.419408766471423
-6.715361414580685 -9.614058385510042 3.466806459243234
10.06404844396924 -3.384190111689332 17.56243424032282
-3.214321444012538 11.28592505830874 3.370532379956011
-4.839645379371624 -1.785796695050788 86.92812652543348
5.03735348109609 -3.26080356130795 76.22900163682489
4.677600194425406 3.245052061619983 80.13796914691706
4.712243512000855 -10.74283313214681 3.41940876647142
6.404000402998572 -3.358152401692298 60.5949698772406
8.111539840237693 3.335203565040566 41.03541898028838
10.39648856856573 3.358132504818411 13.65428339069373
7.945113376504878 8.630693833987415 3.419408766471512
-11.10303057026784 -3.79342119457037 3.390367395104159
10.63403412832481 -3.613959590986652 9.766532099265325
-1.977922590895115 4.775127544263149 86.80166499961184
3.749531232284923 -3.861298389851503 84.08649270213076
10.31700692552853 -5.583284939902463 3.41940876647138
11.20274762464348 2.774275494978379 5.830233488282502
6.068907339767169 -3.318332645026073 64.58740323053345
7.77974593057135 3.330406456502844 44.9465869410723
9.097838897271011 3.34692504626865 29.30120027615035
4.625131639837782 -3.321225337541321 80.12449647206616
2.253310248605161 -5.415584515087911 77.94418485591646
2.71772129965684 -5.53801025161316 74.09090388948187
-0.8349045485511318 -5.987830734772293 75.65582555196372
3.550073886570858 -5.770999334907432 66.38351256603079
-1.313344169888686 -5.591658787360246 79.4922456446196
-4.051297475813936 -4.33709127077844 77.06404489806761
-3.696249258669128 -5.019909527910079 73.26500147993241
-5.794294836889274 -2.013220487707396 74.53360954531594
-5.747819871163787 -2.886681265372519 70.74840675841982
-5.733222436362451 -1.09801333094007 78.30300261349198
-5.803495783570755 1.702093829006252 75.62797901996596
-5.032529955406897 2.788119301070884 79.3723945193863
-3.616013320037435 4.758991971485305 76.53050438602797
-4.683088813066651 4.163380527396402 72.85504374141115
-1.71440100677273 5.450248474215083 79.87722583491789
-3.339094293223563 -5.61797261209514 69.43460460950905
-5.614372912076328 -3.713769070527645 66.9424776468672
-6.636912148597127 -0.14117233142647 68.12541702539372
-6.851670774610638 -1.078782944708643 64.3432415859732
5.667466398767786 6.08603962135642 46.80645145151245
-6.323093713156855 2.641222853393283 65.4044323358922
-6.930604387260248 1.749733632302266 61.64966906670647
-6.953035862164163 -1.99989028266966 60.54590517940047
-7.396032773828081 0.8612667869486228 57.86391535652926
-6.970339745774212 -2.862257430245079 56.73157792807644
-7.742814633735759 -0.08001006127580559 54.08741638122287
-6.900069579520711 -3.713275350431168 52.91149202865549
6.87980374990453 6.622646377330033 31.13775592605256
-7.977724930889719 -1.015632618867671 50.28970422923115
-6.738318669556782 -4.561419084029324 49.08351177887332
-8.113081181666248 -1.939790858569379 46.48241119771706
-6.800659070948787 3.530405980224578 55.11413814293375
-8.056472368476371 1.796110309539285 47.59417694987679
-8.507346865324886 0.8735075186763437 43.81005636731661
-8.162267180189909 -2.839743744068517 42.66553440296035
-8.850508963274869 -0.05845966267559983 40.0156247696049
-8.136775387007388 -3.71144342065971 38.83954541480938
-9.100893596221086 -0.9506213169314266 36.20751424432834
-6.306888388204514 -6.053605942910135 41.39650831069567
-6.00247883841335 -6.765964049157382 37.54964688685134
-8.635763600921203 2.757132355814562 37.28993084853203
-9.177006343078959 1.856324802772596 33.5078780335
-7.21802006987397 4.436918868152312 44.81903275773369
-7.611101442039617 5.318266483805248 34.49625208071195
-8.42442050596096 4.564385201121831 30.73039982446377
-9.611453151722825 0.9877202217044266 29.70619998576349
-9.145114205691213 3.734005346075986 26.96190672764869
-9.960691689037159 0.003574622694877442 25.91186076929243
-9.766901784994575 2.855168918520767 23.18024800085002
-10.21885321675081 -0.9264483969848695 22.09909499490508
-9.345753733682294 -3.702577281875382 24.74569071837439
-9.29642489133928 -4.560100717006786 20.90660941005054
-7.445698836998544 -6.902434840658334 23.46921809732968
-7.173903699546942 -7.607898906649108 19.60800018067869
-4.56053112239082 -9.192701630004558 22.08613052993281
-4.159814326028434 -9.713911068099673 18.20640749999396
-10.28889232011655 1.961784293611375 19.38649810718504
-8.853971570653382 5.446428907399032 20.39322915832774
-7.006969204817774 6.857007032147463 27.904285658793
-9.193935484204522 -5.389736701025981 17.06081895145316
-9.631911221548089 4.641686156028642 16.61965628608045
-7.321405638226738 7.691739124893552 17.54567118036522
-1.095650823863463 -10.32075228510505 20.59997917748922
-1.541856318829434 -9.953774246138295 24.49140742774443
-0.6488613771682018 -10.66552320054859 16.7055786010384
5.281371522908565 6.020814486572483 50.71124743067578
-8.308895631166456 7.077456063230962 13.79152546155489
-5.323280120913652 9.451488624154118 14.64408122430048
-4.060685117654968 9.74246457952715 18.36241921391884
-1.651400986657122 10.66184661077507 15.38746280114586
-4.828035437998467 -5.916166012489696 55.44783870839501
2.044100231799705 -9.989420090222804 22.91673232905124
-0.2622069687399801 10.49616452667732 19.06643349961177
-3.307581330254544 -8.20998195172829 40.00918516860625
-2.886948202233147 -8.688899325153017 36.1370670067535
-3.761168923583685 -10.2015867003525 14.32185958022829
-10.31555434078327 3.79022499601498 12.83536703550366
-0.1996082951129452 -10.99022788091842 12.8073409331373
2.229311952694885 10.50522019800013 16.02053514286515
1.606346959771314 -9.758203145444131 26.81601536799904
0.8497119458999512 10.99382214190821 12.36808825691764
-5.68432335681939 -7.421546819109259 33.69292326983074
2.559411286090349 7.771602307181732 48.50975487674034
3.180459013691219 7.865096986687685 44.67740155126965
-4.965681066845247 5.038310745197159 62.58978775044084
2.941244416444523 -10.40310838786985 15.1089339262518
0.2351990654265938 -8.966967495753931 38.49914544446661
-0.2169875400203778 -8.661447860732924 42.38579698433659
2.114933488788691 7.586451962866545 52.40375930254235
-1.025003647152761 7.992539699405144 50.08789114044457
3.56904919281308 9.824829618591245 19.65638922048361
1.132934653356092 10.14825585918768 22.7275944949203
5.273790359995054 8.701055993426786 23.1946835145981
2.506571935823962 9.602864226855102 26.37031707547204
-6.518340940348926 9.035496722091827 10.91058766872572
4.607334846822787 9.969118370164344 12.93113800856929
0.6711168994628151 -9.252072692433027 34.60685889664007
-3.88292448679299 5.560343748174233 66.30191198372451
-1.871227197231675 6.761897099994232 63.32728286324648
0.0220065128604024 6.73221832329738 66.93305547622435
-1.384379533973344 6.048573482691768 73.63274019164869
-6.675281537075684 6.021962132379878 38.24333607464346
-4.736928541493736 7.906908678536833 35.35819171521737
-3.517191530943558 8.20307939445061 39.06764831291228
-1.108160387090304 9.091715443688313 36.09830812759748
3.359063367678635 -10.59965516131776 11.19197503095676
0.2094383924126234 -11.29780030080743 8.897628931690248
6.20650541755443 -9.014183411300701 13.41480552238804
5.868472996227672 -8.868829748409045 17.34881343309996
3.308919754513426 10.77102126563096 9.303183035166233
6.847055141989905 6.202946314146502 35.08211589533592
-2.479922628719176 9.117221423987965 32.42015673723402
5.006289732697706 -8.679958576453327 25.15561115751894
4.585015009429661 -8.562571217308111 29.06064729234986
-2.999162609925648 6.653693617541195 59.73951607625191
3.736808880437977 -8.29529683617017 36.87194936086276
6.543849214633 -9.148683004464804 9.553451001692675
6.768818616085039 8.959262289991408 9.799400323523869
-7.683048078211475 -6.162987586699054 27.32534248693103
-2.010423238951967 -9.557722008385966 28.37454063902783
4.869395229854732 5.967572885668748 54.60950932038541
0.714827870708048 7.218328970051143 60.30825803602251
1.387480857145249 9.294023577906874 33.07400186444131
-1.364823799674682 9.879570146617315 25.75043100208465
-1.483119335253584 7.609755768509544 53.96405717367092
-2.938971707952532 -6.173395112129454 65.5986106619699
-6.328212781119829 5.179799524688726 48.56551025085827
-3.993267965671766 7.401909001140717 45.61048127023685
-0.2698238734397669 11.30845228468699 8.746050780597628
1.954641802973405 11.38840619598595 5.655143417503355
0.2893952818735452 8.866137283444431 39.75950579317555
7.555389553609124 6.327109171504115 27.25790563377245
6.847768668730841 7.882095656762029 19.80599978573111
-5.541762679645312 -0.1441054360207105 82.03588298000484
7.786678264746992 7.693893025432021 13.38454385797529
9.41039617705137 6.069635350109593 10.18990786220428
8.808940705700948 6.021196707085242 16.89725996300462
3.912059945865616 -5.904920860886151 62.47334619707951
4.335126726537793 -5.985316463869765 58.57110182918325
1.00500669596826 -7.187911873707151 60.25496605966829
1.46036036470099 -7.422746563133512 56.35151921815741
1.662836419074731 7.384738028487261 56.29311914561482
8.843885703634772 -6.681268039486156 11.63968544244336
9.154840268098761 -6.842174391495612 7.252791659212082
6.119202413671917 6.083021033504105 42.84134691314983
1.535109642270966 -5.354756746510245 81.69510085017832
-1.953860722473579 -5.098691288636047 83.09552515477752
5.039819681495067 3.257890743426709 76.22279286887505
2.28470135090424 5.401979773432058 77.9492939984825
1.905266028515946 5.878640105164509 73.95417423653693
3.001538667645421 5.75513309054751 70.00072301458556
4.748878644575878 -6.060269626308475 54.64599072357681
1.899993215536742 -7.640852324925484 52.43167275661357
4.320687198963485 3.217221342405531 84.02721451861876
2.106125754117735 5.143858109894458 81.84916693821681
1.60994041535109 4.932870336411617 86.54269886580029
7.501743445254538 -6.387525387332496 27.28342859985657
7.83938493391722 -6.460976401921312 23.39531782807214
1.649924346184633 -4.876687544765762 87.05991884641979
5.405261754120382 -3.238914735667596 72.4077987685083
5.700147967462671 3.358965616027625 68.40743996018745
10.30705967472988 -3.622405608242179 13.65819516018563
4.152526299083042 -8.437607346450541 32.98431008283771
6.759224819050935 -6.293843660812247 35.12277554122036
1.127372687450512 -9.514693994782411 30.73311982320068
6.106496054417921 3.263923034918866 64.49604227893074
3.679897486301208 5.700174116277776 66.26528711331287
8.54267672679147 -6.567577700053421 15.55933595907401
8.223338998073338 -6.472811219622359 19.50137477523838
7.112188280067173 -6.363813810805655 31.21082407652218
-2.463006165551013 -9.134083771520295 32.26953877191204
2.499160966001641 -10.20240890216185 19.00791559940734
-2.729323744544756 9.893576037964124 22.06889116768674
6.730466368809507 -3.397390515558454 56.67823430549775
6.802354484989245 3.250466119561212 56.68150668943525
8.44338852787504 3.335170595974714 37.12466883329389
7.420333811779025 -3.369978243180093 48.9223125446716
5.166322509590684 -6.119272670183901 50.7165670822467
5.664564398288387 -6.090465883290619 46.79040168533272
2.394526226014976 -7.822617740116146 48.52628254809157
-1.201869629994916 -7.96821783400046 50.08342661352798
8.398293021496595 -3.438152929389943 37.16803173530875
9.441193644968545 3.301159746903018 25.3909421730518
6.025236410727509 8.84224082359164 16.51884005761675
8.734404269146358 -3.436125792574682 33.21416646786427
9.371845135166303 -3.483840013826581 25.43234549632193
-6.580464659834553 -5.284856092903043 45.23512834926929
-7.487250695969646 2.694335383535401 51.36757919289973
-7.984614896866332 3.623563030959327 41.06177296430742
-7.978400613790604 6.191237907871814 24.156695635285
3.358221357100699 -8.123840058910821 40.77945274804836
2.946789033558709 -7.95312916380708 44.70679121092139
-6.293348828406503 0.776567104144398 71.9033957280745
5.456106775895041 -8.769786731533596 21.23820702727399
-3.341184171284198 -10.66348781904839 10.48667862142431
-6.537511946683297 -8.927962978080322 11.87263060896169
-3.174989752957706 -11.04136501155969 6.49553583433955
0.6024344238086012 -11.58743989143843 5.043223595873461
-6.877752827920248 -8.27533666660716 15.75151310674105
-9.034567329526478 -6.205589814354682 13.20798880803198
-8.844572500388789 -6.963728784614188 9.440748326599332
-10.56264700976524 -3.608020013174314 10.64946368603702
-0.01215916883969014 9.681479059690673 29.45950473480545
-0.8749338620648566 8.323968805617344 46.125750262742
-5.033141868592157 8.677502832410568 25.01179655777312
-3.794603474160219 8.968933036127339 28.73352084608906
-5.565123574408382 3.470340980517097 69.14086666959113
-4.538070651654097 -6.515386970763651 51.58658903161427
-10.72340020904888 1.043898816316215 15.57665079743321
-10.40908479054571 -1.804499552438815 18.24179880632815
-0.733888794820616 -8.328761670017922 46.23746665084052
-9.26598547848427 -1.860945215104897 32.38797942567883
-8.060609962475661 -4.533229788331619 34.96877980497996
-2.916264091447054 10.6872143673562 11.71565802019801
-5.473677597257538 6.758260332233966 41.9704788183403
-3.014295691984033 5.754219237274372 69.93592736064353
-4.960596349103177 6.161694804615323 51.96363955897985
-2.190128292525683 8.352461506366836 42.75854927479924
2.908701227969379 8.651453751095628 36.50070398648546
-5.180286857848589 -5.19142982765452 59.28822581883404
-0.2650462319878416 -6.344775080308733 71.78613461459763
6.352130191077047 -6.272812409100017 39.04160934918227
3.782271349247635 -10.78708520247764 7.23037364427269
3.780473688778486 8.866632814697072 30.00011540676755
3.174488351863717 -5.640873600558055 70.23003767861653
-5.945796449482661 7.414785078390921 31.71099903142023
6.301637597742067 6.346860353770315 38.83148517564043
6.011299840878484 -6.180103110313817 42.92854791667062
5.59522368141371 10.05450908582003 6.270435428017657
-5.323666182078565 -8.047226451299109 29.87487220574482
-7.884810575439118 -5.382113650119037 31.17352675029438
-9.336732588358059 -2.812037258870294 28.57617107379221
-5.971399679073397 4.302400486734657 58.95794314398658
-4.372019068600009 -3.57122746758982 80.7454648974323
-11.07172528789361 0.08791398587617334 11.79041368616234
-10.89659834702983 2.919134460063229 9.1378784341696
-9.156469504403093 6.45747313551243 10.10831158594543
-7.893015578447773 8.272081146426705 7.196898572529211
-10.50943419742859 -2.746912886298496 14.4534065513364
-4.231121585184012 10.58929431656061 7.581629071077532
-4.958839339463347 -8.634282349074187 25.95936949002287
7.118579986923725 3.295811263023795 52.80033197043024
4.106774528157629 5.787296716107326 62.30658659791344
-5.403989051571502 -4.499762343067054 63.1226771275302
-6.22678828849764 8.235627825321153 21.28730291124878
7.742074844424313 -3.39079429278963 45.08093427185425
-3.753266849568639 -7.679054253310197 43.87179162364546
-4.193995441843336 -7.102694356578426 47.6672403116334
9.707834193799421 -3.448979592611783 21.57124998111466
-6.214951321934 -9.516655295326469 8.052161026671637
-11.31537724033753 -1.000144085035114 8.138430378224909
4.357615711115295 5.968468714328154 58.57617683576657
7.78870685888679 6.516115734713829 23.4431392999954
-4.740541449263215 2.043938581824164 86.87989086518061
-4.06259539768217 3.594617729955063 83.54876179366674
0.08666458464047465 -6.649159878904092 67.98169406400606
7.983739988406651 -8.602990854984787 3.344770207887588
-9.473438909582596 -6.918938755324326 3.417212361117256
-11.73699778457161 0.02749104959222587 3.341350912823137
-6.416616474375022 9.821362658307825 3.409428593027147
-9.24506610509323 7.182379419428336 3.720762272459959
0.5461084021645527 -6.929652642842896 64.15187366962456
-2.497923658025684 -6.684642030003239 61.80158594813183
-1.971994668838013 -4.760816274436128 86.99848928032985
-4.287897139801764 6.253353416079641 56.13285627918917
-2.085972997038461 -7.140981347217122 57.94772467423079
-1.640090237795164 -7.57803258084157 53.95713477685771
-10.48777802716484 -4.584413196737535 7.039561403835725
8.268584951456406 7.93746445392021 6.838490576308564
11.06464513984306 -3.199763105019005 6.124097242999212
10.10267250685396 5.977212415449143 3.323388145676667
3.524197352238066 8.064033367937084 40.6536457938415
-2.887539075885403 -11.40263394254365 3.016893744587233
4.429864367798386 10.90117636151003 2.962135536119852
10.85107631115423 2.902041073257676 9.752779514148312
-10.0823082405852 5.453783588360494 6.825268249717762
4.306341261289861 8.335675419271473 33.26068919277913
10.17983830522417 3.00909750682238 17.59477147795525
-0.7369445365781552 5.351033112571589 83.84137399982812
6.651830791902565 -9.381339293569447 6.349577916469189
-4.352316181007913 -3.172831440088063 84.03822536285237
1.037519539286445 11.74181040635762 2.699312785191247
-11.4164570335549 1.572345015019566 6.045295553618368
1.327286534908556 6.8383343519568 63.96362722171089
-0.7876148426830242 5.9077981270195 76.74460695062356
-8.709368893277789 -7.496809037351698 6.460729162779683
-4.021018848085705 7.099592288853677 48.80178979027576
-1.386214035356467 7.376165624926773 57.11067950771825
5.134462858127221 8.497589762334355 26.32306059243652
-0.008480178490245608 6.443042450567876 70.60776942377765
4.274572284405392 2.866604329905416 87.07836182472789
4.111610429763454 -3.087479082249852 87.14198965197744
11.42395651398019 2.851827827667638 2.864788304020534
11.42505284540273 -2.848531659604395 2.861410277246407
0.814243920343479 8.599691887961496 42.71631150911563
-1.018905890348426 11.50120395358122 5.765455512362056
-5.312269994735659 0.05081533454212984 84.97257860979744
8.795904192469486 5.618874340314238 19.85449599496202
0.9923138320187632 -11.79079756937096 2.128537450766555
0.7532733393722124 -5.305562025717646 84.38483611849047
-11.42776653932258 -1.843389631486222 5.393930362757127
10.0928194427357 5.305459694093763 7.594241389536652
0.5473750369420712 1.321480237890017 90
-0.7398602367303317 -1.78618061777492 90
2.201188615676791 -0.935382126248411 90
-2.217890441286627 0.8950603523447548 90
0.01103745936289258 -0.01199942294326206 38.91196312643145
0.03373509340105585 -0.006798684334474281 47.18581752103171
0.04157705877556372 -0.03906504029963553 54.94705091185526
0.06307113022447641 -0.009856847995697748 63.05092015409972
-0.003812019269605209 -0.001396785745898299 69.92321694754746
0.001941256962376681 -0.008384722301275183 76.18716984279145
-2.434906791612972 -3.307143375143724 35.25879955597717
-0.1179695563405221 -0.2233505899132684 85.07682962330969
-2.832957943282552 2.805817864998888 35.21910902660692
3.548274248277023 -1.912922309332772 35.25219893329402
-2.560273452345991 -2.494787195964874 42.95684915237652
-0.2634234200209919 3.370257515705541 43.04755001654436
3.055713341331242 -1.671319278373102 43.04161365047999
2.445086693336607 3.271349766827647 35.52614442238811
-2.994987867555583 -1.109756393285138 51.06498006891044
2.670751446341167 1.754034663545429 51.07116124755992
-2.714789227074746 -0.06481682266988287 59.0064702605673
1.497990977588282 -2.962457850492971 51.17380774120414
2.599459597085848 0.7768387248982598 58.98934164251319
-4.579615147146673 -0.3583496895151665 38.16648427812076
1.460656647107742 -4.450466329254948 38.58547124647583
-0.4250830263063436 -1.220162754142178 80.60034483417594
3.601244701822567 2.3039446639347 40.7161298692268
-1.649973992231143 3.267851213754616 50.08105640849216
-3.1376962765539 3.632591690166877 39.61579105337066
0.7647028833472829 -3.27989938266355 58.00647741657905
3.404137184117034 2.433222114443109 45.47725442064772
-4.061251139526683 1.123672188375485 45.39064221690236
0.933107832738253 -4.207394162228647 46.02061398727379
-5.357396771387665 -0.4364896273675074 33.93198444179672
-2.615426424960127 -0.5678543787309809 66.46201823656008
2.201272185521754 -1.614370555974772 66.51018402089485
-0.03216011367728946 -0.08823141301156996 34.16308192399154
1.135955007514478 -5.10274674280711 33.81483264208999
-3.240566116335952 -2.937624283242755 47.18003539403342
0.8289960770222096 2.473240637563341 66.49179663206981
-0.5559605785051107 3.491344015305496 58.46095613216497
4.054857255773875 -1.420830541710167 47.17778831284865
-3.274250357540595 -4.141699584036848 39.22610767548214
4.824270019444201 -1.437252916022992 39.23216001467205
0.7298997953521347 3.98744148529767 54.03229462669267
-2.419730193411405 0.8202390924313718 73.05833549250791
3.863743343463917 -1.463363176562712 54.46124978284293
0.2191547991284288 -2.542291923423225 73.05216057574886
-3.404472213605193 -2.160689588851343 54.95142155232282
0.7875690879890909 4.819998847847713 38.99798165927618
-0.3839867757917946 5.756035941467061 33.92414054032642

CELLS 2982 13650
1 0
1 1
1 2
1 3
2 0 4
2 4 5
2 5 6
2 6 7
2 7 8
2 8 9
2 9 10
2 10 1
2 0 11
2 11 12
2 12 13
2 13 14
2 14 15
2 15 16
2 16 17
2 17 18
2 18 19
2 19 20
2 20 21
2 21 22
2 22 23
2 23 24
2 24 0
2 1 25
2 25 26
2 26 27
2 27 28
2 28 29
2 29 30
2 30 31
2 31 32
2 32 33
2 33 34
2 34 1
2 2 35
2 35 36
2 36 37
2 37 38
2 38 39
2 39 40
2 40 41
2 41 42
2 42 43
2 43 44
2 44 45
2 45 46
2 46 47
2 47 48
2 48 49
2 49 50
2 50 51
2 51 52
2 52 2
2 3 53
2 53 54
2 54 55
2 55 56
2 56 57
2 57 58
2 58 59
2 59 3
2 2 60
2 60 61
2 61 62
2 62 63
2 63 64
2 64 65
2 65 66
2 66 67
2 67 68
2 68 69
2 69 70
2 70 71
2 71 72
2 72 73
2 73 74
2 74 75
2 75 76
2 76 77
2 77 78
2 78 79
2 79 80
2 80 81
2 81 3
3 4 189 0
3 0 190 4
3 11 190 0
3 0 189 24
3 1 177 10
3 10 178 1
3 1 178 25
3 34 177 1
3 5 182 4
3 4 184 5
3 97 184 4
3 4 190 97
3 182 189 4
3 6 90 5
3 5 91 6
3 90 182 5
3 5 184 91
3 7 141 6
3 6 142 7
3 6 141 90
3 91 142 6
3 8 85 7
3 7 86 8
3 85 141 7
3 7 142 86
3 8 98 9
3 9 140 8
3 8 140 85
3 86 98 8
3 10 94 9
3 9 95 10
3 94 140 9
3 9 98 95
3 10 177 94
3 95 178 10
3 12 186 11
3 11 186 97
3 97 190 11
3 13 92 12
3 92 186 12
3 14 168 13
3 13 168 92
3 15 82 14
3 82 168 14
3 16 171 15
3 15 171 82
3 17 159 16
3 159 171 16
3 18 87 17
3 87 159 17
3 19 162 18
3 18 162 87
3 20 164 19
3 19 164 162
3 21 83 20
3 83 164 20
3 22 163 21
3 21 163 83
3 23 93 22
3 93 163 22
3 24 187 23
3 23 187 93
3 96 187 24
3 24 189 96
3 25 138 26
3 25 178 138
3 26 167 27
3 138 167 26
3 27 88 28
3 27 167 88
3 28 149 29
3 88 149 28
3 29 84 30
3 29 149 84
3 30 151 31
3 84 151 30
3 31 89 32
3 31 151 89
3 32 166 33
3 89 166 32
3 33 170 34
3 166 170 33
3 170 177 34
3 82 128 127
3 127 129 82
3 82 171 128
3 129 168 82
3 134 164 83
3 83 185 134
3 163 185 83
3 149 161 84
3 84 153 151
3 84 161 153
3 85 140 133
3 133 173 85
3 85 173 141
3 86 99 98
3 86 100 99
3 86 142 100
3 87 188 159
3 162 172 87
3 172 188 87
3 88 150 149
3 88 181 150
3 167 181 88
3 132 166 89
3 89 191 132
3 151 152 89
3 152 191 89
3 90 141 131
3 131 183 90
3 90 183 182
3 91 165 142
3 91 175 165
3 91 184 175
3 168 174 92
3 174 175 92
3 175 186 92
3 93 179 163
3 93 183 179
3 93 187 183
3 94 176 140
3 94 170 145
3 145 176 94
3 94 177 170
3 98 137 95
3 137 138 95
3 138 178 95
3 182 183 96
3 96 189 182
3 183 187 96
3 175 184 97
3 97 186 175
3 99 137 98
3 100 101 99
3 101 155 99
3 99 155 137
3 100 102 101
3 100 165 102
3 142 165 100
3 102 103 101
3 103 104 101
3 104 155 101
3 102 135 103
3 102 136 135
3 102 165 136
3 103 105 104
3 103 106 105
3 103 135 106
3 105 158 104
3 104 156 155
3 104 158 156
3 106 107 105
3 107 108 105
3 108 158 105
3 106 117 107
3 106 127 117
3 106 135 127
3 107 109 108
3 107 143 109
3 117 143 107
3 109 110 108
3 110 119 108
3 119 158 108
3 109 111 110
3 109 146 111
3 143 146 109
3 111 112 110
3 112 169 110
3 110 169 119
3 111 113 112
3 111 114 113
3 111 146 114
3 113 160 112
3 160 180 112
3 112 180 169
3 114 115 113
3 115 116 113
3 116 160 113
3 114 147 115
3 146 157 114
3 114 157 147
3 115 118 116
3 115 120 118
3 115 147 120
3 118 122 116
3 122 123 116
3 123 160 116
3 127 128 117
3 128 130 117
3 130 143 117
3 120 121 118
3 121 154 118
3 118 154 122
3 150 158 119
3 119 161 150
3 119 169 161
3 120 125 121
3 120 134 125
3 120 147 134
3 125 126 121
3 126 131 121
3 131 154 121
3 122 124 123
3 122 133 124
3 122 154 133
3 124 132 123
3 132 191 123
3 123 191 160
3 124 145 132
3 133 176 124
3 124 176 145
3 125 179 126
3 134 185 125
3 125 185 179
3 126 183 131
3 179 183 126
3 127 135 129
3 128 159 130
3 128 171 159
3 135 136 129
3 136 174 129
3 129 174 168
3 130 144 143
3 130 188 144
3 159 188 130
3 141 173 131
3 131 173 154
3 145 166 132
3 140 176 133
3 154 173 133
3 147 148 134
3 148 164 134
3 165 175 136
3 136 175 174
3 137 139 138
3 137 155 139
3 139 167 138
3 155 156 139
3 156 181 139
3 139 181 167
3 144 146 143
3 144 157 146
3 144 172 157
3 144 188 172
3 145 170 166
3 147 157 148
3 157 172 148
3 162 164 148
3 148 172 162
3 150 161 149
3 156 158 150
3 150 181 156
3 151 153 152
3 153 180 152
3 152 180 160
3 160 191 152
3 161 169 153
3 169 180 153
3 179 185 163
3 25 197 1
3 1 197 34
3 26 195 25
3 195 197 25
3 27 195 26
3 28 193 27
3 193 195 27
3 29 199 28
3 28 199 193
3 30 199 29
3 31 194 30
3 194 199 30
3 32 198 31
3 31 198 194
3 33 198 32
3 34 192 33
3 192 198 33
3 34 197 192
3 192 197 196
3 196 198 192
3 193 196 195
3 193 199 196
3 194 198 196
3 196 199 194
3 196 197 195
3 0 203 2
3 2 204 0
3 11 203 0
3 0 204 24
3 2 203 35
3 52 204 2
3 11 12 36
3 36 35 11
3 35 203 11
3 37 12 13
3 36 12 37
3 14 202 13
3 38 37 13
3 13 202 38
3 15 40 14
3 40 39 14
3 39 202 14
3 16 41 15
3 15 41 40
3 17 42 16
3 42 41 16
3 18 200 17
3 43 42 17
3 17 200 43
3 18 19 45
3 44 18 45
3 44 200 18
3 46 19 20
3 45 19 46
3 21 47 20
3 20 47 46
3 22 201 21
3 21 48 47
3 21 201 48
3 23 50 22
3 22 50 49
3 49 201 22
3 24 51 23
3 23 51 50
3 24 52 51
3 24 204 52
3 38 202 39
3 43 200 44
3 48 201 49
3 35 528 2
3 2 529 52
3 2 528 60
3 60 529 2
3 3 526 53
3 59 527 3
3 81 526 3
3 3 527 81
3 36 506 35
3 506 528 35
3 37 225 36
3 225 506 36
3 38 509 37
3 37 509 225
3 39 517 38
3 38 517 509
3 40 217 39
3 217 517 39
3 41 495 40
3 40 495 217
3 42 496 41
3 41 496 495
3 43 214 42
3 214 496 42
3 44 494 43
3 43 494 214
3 45 226 44
3 226 494 44
3 46 493 45
3 45 493 226
3 47 215 46
3 215 493 46
3 48 508 47
3 47 508 215
3 49 534 48
3 48 534 508
3 50 221 49
3 221 534 49
3 51 492 50
3 50 492 221
3 52 230 51
3 230 492 51
3 52 529 230
3 53 391 54
3 53 526 391
3 54 228 55
3 54 391 228
3 55 489 56
3 228 489 55
3 56 218 57
3 56 489 218
3 57 499 58
3 218 499 57
3 58 394 59
3 58 499 394
3 394 527 59
3 60 231 61
3 61 505 60
3 60 528 231
3 505 529 60
3 62 227 61
3 61 510 62
3 227 505 61
3 231 510 61
3 62 224 63
3 63 397 62
3 62 510 224
3 62 397 227
3 64 216 63
3 63 513 64
3 216 397 63
3 224 513 63
3 64 213 65
3 65 484 64
3 64 513 213
3 64 484 216
3 65 418 66
3 66 421 65
3 213 418 65
3 421 484 65
3 67 208 66
3 66 234 67
3 208 421 66
3 66 418 234
3 67 206 68
3 68 420 67
3 67 234 206
3 67 420 208
3 68 411 69
3 69 417 68
3 206 411 68
3 417 420 68
3 70 211 69
3 69 223 70
3 211 417 69
3 69 411 223
3 70 233 71
3 71 481 70
3 70 481 211
3 223 233 70
3 71 207 72
3 72 412 71
3 71 233 207
3 412 481 71
3 73 212 72
3 72 477 73
3 207 477 72
3 212 412 72
3 74 409 73
3 73 410 74
3 73 409 212
3 73 477 410
3 74 210 75
3 75 222 74
3 74 410 210
3 222 409 74
3 76 232 75
3 75 401 76
3 210 401 75
3 75 232 222
3 77 205 76
3 76 396 77
3 205 232 76
3 76 401 396
3 77 209 78
3 78 395 77
3 77 395 205
3 77 396 209
3 79 219 78
3 78 383 79
3 209 383 78
3 219 395 78
3 79 220 80
3 80 235 79
3 79 235 219
3 79 383 220
3 81 229 80
3 80 389 81
3 220 389 80
3 229 235 80
3 81 527 229
3 389 526 81
3 205 239 232
3 205 460 239
3 395 460 205
3 234 263 206
3 263 346 206
3 346 411 206
3 233 255 207
3 255 301 207
3 301 477 207
3 208 405 392
3 392 421 208
3 208 420 405
3 209 385 383
3 209 386 385
3 209 396 386
3 210 478 401
3 410 487 210
3 210 487 478
3 211 457 417
3 211 463 457
3 211 481 463
3 212 409 387
3 387 413 212
3 212 413 412
3 213 488 418
3 213 533 488
3 513 533 213
3 494 518 214
3 214 511 496
3 214 518 511
3 432 485 215
3 215 508 432
3 485 521 215
3 215 521 493
3 216 403 397
3 216 404 403
3 216 484 404
3 217 495 475
3 475 531 217
3 217 531 517
3 489 532 218
3 218 516 499
3 218 532 516
3 235 236 219
3 236 237 219
3 237 395 219
3 383 384 220
3 384 390 220
3 220 390 389
3 221 458 433
3 433 534 221
3 221 515 458
3 492 515 221
3 232 373 222
3 373 374 222
3 374 409 222
3 223 380 233
3 223 462 380
3 411 462 223
3 224 371 370
3 370 372 224
3 224 510 371
3 372 513 224
3 464 504 225
3 225 509 464
3 504 506 225
3 493 503 226
3 226 536 494
3 503 536 226
3 378 379 227
3 227 397 378
3 379 505 227
3 391 514 228
3 228 490 489
3 228 514 490
3 229 381 235
3 229 535 381
3 229 527 394
3 394 535 229
3 379 492 230
3 230 505 379
3 230 529 505
3 231 528 506
3 506 537 231
3 231 537 510
3 239 373 232
3 233 380 255
3 234 367 263
3 234 418 367
3 235 381 236
3 236 238 237
3 236 240 238
3 236 381 240
3 238 456 237
3 237 460 395
3 456 460 237
3 240 241 238
3 241 242 238
3 242 456 238
3 239 497 373
3 460 491 239
3 491 497 239
3 240 469 241
3 381 382 240
3 382 469 240
3 241 243 242
3 241 245 243
3 241 469 245
3 243 244 242
3 244 251 242
3 251 456 242
3 243 428 244
3 245 246 243
3 246 428 243
3 244 252 251
3 244 253 252
3 244 428 253
3 245 247 246
3 245 369 247
3 245 469 369
3 247 248 246
3 248 249 246
3 249 428 246
3 247 250 248
3 247 490 250
3 369 490 247
3 248 336 249
3 250 520 248
3 248 520 336
3 336 451 249
3 249 442 428
3 249 451 442
3 250 390 384
3 384 520 250
3 250 514 390
3 490 514 250
3 252 361 251
3 361 491 251
3 251 491 456
3 253 254 252
3 254 479 252
3 252 479 361
3 253 256 254
3 253 442 256
3 428 442 253
3 256 257 254
3 257 258 254
3 258 479 254
3 255 318 301
3 255 319 318
3 255 380 319
3 256 320 257
3 256 333 320
3 256 442 333
3 257 259 258
3 257 468 259
3 320 468 257
3 259 260 258
3 260 455 258
3 455 479 258
3 259 261 260
3 259 267 261
3 259 468 267
3 261 262 260
3 262 306 260
3 306 455 260
3 261 264 262
3 261 423 264
3 267 423 261
3 264 265 262
3 265 443 262
3 262 443 306
3 263 512 346
3 367 459 263
3 459 512 263
3 264 266 265
3 264 268 266
3 264 423 268
3 266 422 265
3 422 483 265
3 265 483 443
3 268 269 266
3 269 270 266
3 270 422 266
3 267 452 423
3 267 500 452
3 468 500 267
3 268 278 269
3 268 362 278
3 268 423 362
3 269 271 270
3 269 424 271
3 278 424 269
3 271 272 270
3 272 274 270
3 274 422 270
3 271 273 272
3 271 276 273
3 271 424 276
3 273 448 272
3 272 275 274
3 272 448 275
3 276 277 273
3 277 447 273
3 447 448 273
3 275 309 274
3 309 482 274
3 274 482 422
3 275 310 309
3 275 317 310
3 275 448 317
3 276 279 277
3 276 337 279
3 276 424 337
3 279 280 277
3 280 281 277
3 281 447 277
3 362 363 278
3 363 450 278
3 278 450 424
3 279 461 280
3 337 338 279
3 338 461 279
3 280 282 281
3 280 294 282
3 280 461 294
3 282 283 281
3 283 467 281
3 281 467 447
3 282 284 283
3 282 425 284
3 294 425 282
3 284 285 283
3 285 286 283
3 286 467 283
3 284 292 285
3 284 293 292
3 284 425 293
3 285 287 286
3 285 445 287
3 292 445 285
3 287 288 286
3 288 354 286
3 354 467 286
3 287 289 288
3 287 295 289
3 287 445 295
3 289 290 288
3 290 476 288
3 288 476 354
3 289 291 290
3 289 434 291
3 295 434 289
3 291 298 290
3 298 299 290
3 299 476 290
3 291 300 298
3 291 311 300
3 291 434 311
3 293 296 292
3 296 444 292
3 444 445 292
3 293 297 296
3 293 480 297
3 425 480 293
3 294 440 425
3 294 441 440
3 294 461 441
3 295 435 434
3 295 474 435
3 445 474 295
3 297 302 296
3 302 312 296
3 312 444 296
3 297 303 302
3 297 304 303
3 297 480 304
3 298 307 299
3 300 407 298
3 298 407 307
3 307 315 299
3 315 355 299
3 355 476 299
3 311 313 300
3 313 321 300
3 321 407 300
3 318 324 301
3 324 356 301
3 356 477 301
3 303 330 302
3 302 472 312
3 330 472 302
3 304 305 303
3 305 449 303
3 303 449 330
3 304 308 305
3 304 408 308
3 304 480 408
3 308 314 305
3 314 316 305
3 316 449 305
3 443 502 306
3 306 501 455
3 306 502 501
3 307 348 315
3 307 429 348
3 407 429 307
3 308 326 314
3 308 327 326
3 308 408 327
3 310 322 309
3 322 323 309
3 323 482 309
3 317 406 310
3 310 332 322
3 310 406 332
3 311 430 313
3 311 431 430
3 311 434 431
3 312 470 444
3 312 471 470
3 312 472 471
3 313 341 321
3 313 342 341
3 313 430 342
3 314 331 316
3 326 419 314
3 314 419 331
3 348 349 315
3 349 400 315
3 315 400 355
3 331 345 316
3 345 364 316
3 364 449 316
3 317 465 406
3 448 466 317
3 317 466 465
3 319 439 318
3 318 325 324
3 318 439 325
3 380 507 319
3 319 530 439
3 507 530 319
3 333 334 320
3 334 350 320
3 350 468 320
3 341 343 321
3 343 344 321
3 344 407 321
3 322 426 323
3 332 351 322
3 351 426 322
3 426 427 323
3 427 446 323
3 446 482 323
3 325 360 324
3 324 377 356
3 360 377 324
3 325 452 360
3 439 522 325
3 325 522 452
3 327 328 326
3 328 368 326
3 368 419 326
3 327 329 328
3 327 359 329
3 327 408 359
3 329 524 328
3 328 488 368
3 328 524 488
3 359 438 329
3 438 459 329
3 459 524 329
3 449 475 330
3 330 473 472
3 330 475 473
3 331 353 345
3 331 370 353
3 331 419 370
3 332 398 351
3 332 400 398
3 332 406 400
3 333 335 334
3 333 451 335
3 442 451 333
3 335 519 334
3 334 357 350
3 334 519 357
3 386 402 335
3 335 525 386
3 402 519 335
3 451 525 335
3 336 520 385
3 385 525 336
3 336 525 451
3 337 339 338
3 337 450 339
3 424 450 337
3 339 340 338
3 340 347 338
3 347 461 338
3 339 366 340
3 339 453 366
3 450 453 339
3 340 358 347
3 340 454 358
3 366 454 340
3 342 458 341
3 341 352 343
3 341 458 352
3 430 432 342
3 432 433 342
3 433 458 342
3 343 403 344
3 352 378 343
3 378 403 343
3 403 404 344
3 404 429 344
3 344 429 407
3 353 464 345
3 345 365 364
3 345 464 365
3 346 462 411
3 454 462 346
3 346 512 454
3 358 438 347
3 438 441 347
3 441 461 347
3 348 392 349
3 348 393 392
3 348 429 393
3 392 405 349
3 398 400 349
3 349 405 398
3 357 523 350
3 350 500 468
3 350 523 500
3 398 399 351
3 399 457 351
3 351 457 426
3 352 379 378
3 352 515 379
3 458 515 352
3 370 371 353
3 371 504 353
3 353 504 464
3 465 466 354
3 354 476 465
3 466 467 354
3 400 406 355
3 406 465 355
3 465 476 355
3 377 487 356
3 410 477 356
3 356 487 410
3 357 487 377
3 377 523 357
3 478 487 357
3 357 519 478
3 358 459 438
3 454 512 358
3 358 512 459
3 408 440 359
3 359 441 438
3 440 441 359
3 360 523 377
3 452 500 360
3 500 523 360
3 479 498 361
3 361 497 491
3 361 498 497
3 362 522 363
3 423 452 362
3 452 522 362
3 439 453 363
3 363 522 439
3 363 453 450
3 365 531 364
3 364 475 449
3 364 531 475
3 464 509 365
3 509 517 365
3 517 531 365
3 453 530 366
3 366 507 454
3 366 530 507
3 418 488 367
3 367 524 459
3 488 524 367
3 372 419 368
3 368 533 372
3 488 533 368
3 469 516 369
3 369 532 490
3 516 532 369
3 370 419 372
3 371 537 504
3 510 537 371
3 372 533 513
3 373 375 374
3 373 497 375
3 375 376 374
3 376 387 374
3 387 409 374
3 375 501 376
3 497 498 375
3 498 501 375
3 376 388 387
3 376 502 388
3 501 502 376
3 397 403 378
3 379 515 492
3 462 507 380
3 381 535 382
3 382 516 469
3 499 516 382
3 382 535 499
3 383 385 384
3 385 520 384
3 386 525 385
3 396 402 386
3 388 413 387
3 388 415 413
3 388 416 415
3 388 502 416
3 390 391 389
3 391 526 389
3 390 514 391
3 393 421 392
3 393 429 404
3 404 484 393
3 393 484 421
3 499 535 394
3 401 402 396
3 398 405 399
3 405 420 399
3 399 420 417
3 417 457 399
3 401 478 402
3 478 519 402
3 408 480 440
3 413 414 412
3 414 481 412
3 413 415 414
3 415 427 414
3 427 463 414
3 463 481 414
3 416 446 415
3 415 446 427
3 443 483 416
3 416 502 443
3 416 483 446
3 482 483 422
3 440 480 425
3 426 463 427
3 457 463 426
3 431 485 430
3 430 485 432
3 434 435 431
3 435 436 431
3 436 485 431
3 432 508 433
3 508 534 433
3 435 437 436
3 435 474 437
3 437 503 436
3 436 521 485
3 503 521 436
3 437 474 470
3 470 486 437
3 486 503 437
3 439 530 453
3 444 474 445
3 470 474 444
3 446 483 482
3 447 466 448
3 447 467 466
3 454 507 462
3 455 498 479
3 455 501 498
3 456 491 460
3 471 486 470
3 472 511 471
3 471 518 486
3 511 518 471
3 473 511 472
3 475 495 473
3 495 496 473
3 496 511 473
3 486 536 503
3 518 536 486
3 490 532 489
3 493 521 503
3 494 536 518
3 504 537 506
3 53 540 3
3 3 540 59
3 54 538 53
3 538 540 53
3 55 541 54
3 54 541 538
3 56 541 55
3 57 541 56
3 58 539 57
3 539 541 57
3 59 540 58
3 58 540 539
3 539 540 538
3 538 541 539
4 497 375 498 545
4 498 545 375 567
4 497 373 375 545
4 479 545 498 558
4 375 545 373 567
4 267 544 556 565
4 373 545 222 560
4 545 560 373 567
4 439 565 553 568
4 544 565 267 582
4 519 478 545 578
4 373 560 222 567
4 1 551 206 555
4 519 545 334 578
4 197 551 1 555
4 498 558 545 567
4 498 479 361 545
4 323 562 552 570
4 254 545 479 558
4 209 78 547 585
4 323 426 562 570
4 500 578 544 582
4 498 361 497 545
4 267 556 544 586
4 75 222 232 545
4 232 222 373 545
4 269 270 271 561
4 554 562 426 570
4 269 561 424 569
4 439 318 565 568
4 497 545 361 573
4 1 68 206 551
4 222 545 75 560
4 561 566 424 569
4 209 547 546 585
4 395 78 77 585
4 267 558 544 578
4 546 547 385 583
4 257 545 254 558
4 254 545 257 572
4 320 545 334 577
4 334 545 320 578
4 361 545 479 572
4 320 545 257 558
4 545 572 361 573
4 267 544 500 578
4 256 320 333 572
4 206 551 68 555
4 254 479 545 572
4 320 545 558 578
4 323 427 426 570
4 502 567 559 586
4 500 544 267 582
4 552 562 554 570
4 75 545 401 560
4 320 334 333 577
4 427 554 426 570
4 384 547 220 563
4 25 197 1 555
4 502 376 559 567
4 401 545 478 560
4 68 551 411 555
4 411 555 551 581
4 269 271 424 561
4 544 558 267 586
4 478 560 545 578
4 411 551 68 581
4 258 254 479 558
4 401 545 75 573
4 206 25 1 555
4 553 565 543 568
4 79 220 547 563
4 209 385 546 547
4 552 566 561 569
4 455 479 498 558
4 232 545 373 573
4 519 357 478 578
4 497 373 545 573
4 557 565 318 568
4 232 75 545 573
4 553 565 363 569
4 477 410 557 584
4 477 557 410 582
4 552 562 323 580
4 256 254 257 572
4 334 545 519 577
4 443 556 502 559
4 478 519 545 577
4 559 567 544 586
4 410 582 557 584
4 560 582 410 584
4 210 401 478 560
4 363 553 439 565
4 498 455 558 567
4 519 334 357 578
4 251 546 491 572
4 502 559 556 586
4 556 559 416 576
4 478 545 401 577
4 210 75 401 560
4 477 410 356 582
4 502 556 443 586
4 268 565 556 569
4 376 559 567 584
4 206 68 411 555
4 452 267 565 582
4 376 387 559 584
4 267 556 423 565
4 443 556 416 576
4 384 250 547 563
4 267 261 556 586
4 428 244 253 583
4 491 572 546 573
4 443 416 556 559
4 253 244 572 583
4 545 573 401 577
4 384 220 390 563
4 552 553 542 566
4 553 566 552 569
4 388 502 376 559
4 212 559 72 579
4 423 556 268 565
4 385 525 546 583
4 72 559 557 579
4 361 572 491 573
4 339 566 550 588
4 220 389 390 563
4 452 500 267 582
4 411 564 555 581
4 220 80 389 563
4 376 567 387 584
4 546 572 442 577
4 557 559 72 584
4 456 460 491 585
4 212 72 412 579
4 212 72 559 584
4 267 468 558 578
4 546 572 244 583
4 460 546 491 585
4 427 463 426 554
4 212 412 559 579
4 79 547 235 563
4 442 572 546 583
4 552 542 561 566
4 385 336 525 583
4 443 502 416 559
4 318 301 557 568
4 439 553 319 568
4 543 565 553 569
4 396 77 546 573
4 497 361 491 573
4 448 548 31 571
4 258 257 254 558
4 401 75 76 573
4 559 570 416 576
4 339 550 338 588
4 68 1 420 551
4 318 255 301 568
4 542 553 552 554
4 339 587 566 588
4 460 491 546 573
4 552 553 543 554
4 31 406 32 548
4 310 548 562 575
4 389 549 390 563
4 235 219 236 547
4 450 566 553 569
4 235 79 219 547
4 388 376 387 559
4 31 448 317 548
4 390 549 514 563
4 236 235 547 563
4 439 319 318 568
4 219 547 78 585
4 205 460 546 573
4 268 556 264 569
4 32 548 406 575
4 566 587 550 588
4 279 29 550 571
4 267 500 468 578
4 399 551 34 575
4 251 546 244 585
4 410 560 487 582
4 451 546 442 577
4 333 442 572 577
4 31 317 406 548
4 310 562 548 580
4 80 549 389 563
4 514 549 490 563
4 251 491 361 572
4 267 261 423 556
4 28 279 29 550
4 259 267 558 586
4 544 582 560 584
4 339 340 587 588
4 209 78 383 547
4 448 548 561 580
4 385 525 386 546
4 243 547 241 585
4 264 569 556 576
4 240 236 238 547
4 77 205 546 573
4 244 546 251 572
4 340 339 338 588
4 240 238 241 547
4 463 426 554 562
4 250 247 547 563
4 396 573 546 577
4 356 410 487 582
4 482 552 323 580
4 310 562 322 575
4 323 552 482 570
4 384 390 250 563
4 463 562 554 581
4 270 561 552 580
4 398 399 405 575
4 543 565 557 568
4 324 318 557 565
4 320 558 468 578
4 448 561 272 580
4 450 553 363 569
4 463 457 562 581
4 255 207 301 568
4 79 80 220 563
4 207 557 301 568
4 362 565 268 569
4 512 26 25 555
4 236 547 240 563
4 482 323 309 580
4 240 547 241 563
4 339 338 550 566
4 34 405 399 575
4 310 406 548 575
4 250 390 514 563
4 69 411 68 581
4 243 583 547 585
4 31 466 448 571
4 245 547 247 563
4 423 264 268 556
4 250 514 490 563
4 542 554 552 562
4 334 320 350 578
4 362 423 268 565
4 520 336 547 583
4 264 266 569 576
4 457 551 399 562
4 268 264 266 569
4 79 78 219 547
4 322 562 310 580
4 409 222 560 567
4 455 258 479 558
4 520 547 248 583
4 546 583 244 585
4 544 567 559 584
4 333 451 442 577
4 413 570 559 579
4 77 209 396 546
4 560 578 487 582
4 275 548 448 580
4 455 558 567 586
4 383 79 220 547
4 241 547 245 563
4 241 243 245 547
4 251 244 242 585
4 385 386 209 546
4 507 319 553 564
4 209 383 385 547
4 246 547 243 583
4 451 546 525 583
4 279 277 29 571
4 351 399 551 562
4 31 548 194 571
4 219 78 395 585
4 219 236 547 585
4 246 245 243 547
4 336 385 547 583
4 242 243 241 585
4 450 278 566 569
4 310 406 317 548
4 413 414 570 579
4 501 567 502 586
4 551 555 197 574
4 363 565 522 569
4 424 566 278 569
4 70 568 554 579
4 448 561 548 571
4 396 546 386 577
4 270 266 422 552
4 34 420 1 551
4 276 561 550 566
4 270 266 552 569
4 270 272 561 580
4 415 559 413 570
4 31 30 466 571
4 351 562 551 575
4 248 250 247 547
4 70 564 554 568
4 507 380 319 564
4 272 275 448 580
4 351 551 399 575
4 455 567 501 586
4 547 583 546 585
4 248 520 250 547
4 324 318 301 557
4 320 257 468 558
4 276 279 550 571
4 247 245 246 547
4 247 246 248 547
4 276 550 337 566
4 520 248 336 583
4 498 501 455 567
4 338 279 461 550
4 520 336 385 547
4 451 442 546 583
4 267 423 452 565
4 70 71 568 579
4 463 457 426 562
4 310 322 332 575
4 351 457 399 562
4 422 552 266 576
4 415 413 414 570
4 548 562 551 574
4 34 551 192 575
4 461 279 28 550
4 466 317 31 448
4 401 573 76 577
4 386 396 209 546
4 34 399 420 551
4 522 565 362 569
4 497 239 373 573
4 396 76 77 573
4 219 237 236 585
4 409 567 560 584
4 207 557 568 579
4 324 565 557 582
4 70 233 564 568
4 451 525 546 577
4 548 542 562 574
4 79 235 80 563
4 520 384 250 547
4 457 551 562 581
4 373 222 374 567
4 409 374 222 567
4 32 198 31 548
4 259 261 267 586
4 543 553 552 569
4 482 570 552 576
4 320 468 350 578
4 552 569 266 576
4 238 547 236 585
4 72 557 207 579
4 267 468 259 558
4 383 220 384 547
4 450 363 278 569
4 241 547 238 585
4 551 555 542 581
4 363 439 522 565
4 507 564 553 587
4 242 244 583 585
4 487 560 478 578
4 530 507 319 553
4 416 559 415 570
4 450 278 424 566
4 276 550 561 571
4 323 482 446 570
4 512 25 346 555
4 198 548 32 575
4 551 562 542 574
4 483 443 416 576
4 477 73 410 584
4 551 562 548 575
4 195 193 574 588
4 417 551 457 581
4 386 546 525 577
4 417 399 457 551
4 482 446 570 576
4 336 451 525 583
4 199 28 29 550
4 232 76 75 573
4 68 551 417 581
4 276 277 279 571
4 247 250 490 563
4 363 522 362 569
4 463 554 427 570
4 193 550 574 588
4 413 212 412 559
4 396 401 76 577
4 194 571 548 574
4 79 383 78 547
4 276 279 337 550
4 337 550 338 566
4 552 542 562 580
4 543 557 556 559
4 414 554 463 570
4 248 547 246 583
4 555 564 542 581
4 543 554 553 568
4 396 76 573 577
4 409 222 74 560
4 548 574 551 575
4 553 554 542 564
4 507 553 530 587
4 512 25 26 263
4 199 550 29 571
4 70 554 481 579
4 194 548 198 574
4 501 502 306 586
4 233 70 71 568
4 478 401 402 577
4 556 557 544 559
4 502 388 416 559
4 544 557 556 565
4 26 555 512 588
4 439 318 325 565
4 411 462 555 564
4 501 376 502 567
4 448 273 561 571
4 477 557 72 584
4 551 574 192 575
4 195 197 25 555
4 550 561 548 574
4 30 31 194 571
4 270 552 274 580
4 31 198 194 548
4 554 564 70 581
4 482 483 446 576
4 448 273 272 561
4 270 272 271 561
4 442 256 333 572
4 74 560 410 584
4 520 385 384 547
4 197 34 1 551
4 197 555 195 574
4 490 549 369 563
4 453 363 450 553
4 252 244 251 572
4 270 269 266 569
4 556 557 543 565
4 276 424 561 566
4 553 566 453 587
4 192 551 197 574
4 309 322 310 580
4 247 490 369 563
4 347 338 461 588
4 548 571 550 574
4 542 548 561 574
4 413 559 412 579
4 497 491 239 573
4 450 453 553 566
4 199 571 194 574
4 552 554 543 570
4 339 337 338 566
4 73 477 72 584
4 25 512 346 263
4 548 561 550 571
4 556 565 543 569
4 554 570 414 579
4 28 550 193 588
4 543 570 559 576
4 206 346 25 555
4 478 402 519 577
4 68 420 417 551
4 487 478 357 578
4 481 463 414 554
4 241 245 469 563
4 452 360 500 582
4 251 361 252 572
4 377 487 578 582
4 80 229 549 563
4 339 453 566 587
4 71 70 481 579
4 1 67 68 420
4 542 561 550 574
4 324 325 318 565
4 70 233 223 564
4 197 192 34 551
4 322 562 351 575
4 242 583 243 585
4 332 322 351 575
4 409 560 74 584
4 347 461 28 588
4 481 554 414 579
4 252 361 479 572
4 33 34 192 575
4 310 332 406 575
4 558 560 545 567
4 198 192 574 575
4 270 274 272 580
4 455 501 306 586
4 414 463 427 570
4 199 193 550 574
4 195 25 26 555
4 195 574 555 588
4 74 410 73 584
4 543 559 556 576
4 411 346 206 555
4 453 530 553 587
4 514 390 389 549
4 28 29 279 280
4 72 207 71 579
4 242 244 243 583
4 557 582 544 584
4 242 241 238 585
4 199 193 28 550
4 539 394 499 549
4 387 567 374 584
4 207 568 71 579
4 463 554 211 581
4 548 198 574 575
4 317 448 275 548
4 70 564 223 581
4 548 562 542 580
4 369 549 516 563
4 69 70 223 581
4 455 260 558 586
4 337 279 338 550
4 550 571 199 574
4 265 556 443 576
4 238 236 237 585
4 463 211 457 581
4 550 542 555 587
4 374 567 409 584
4 218 539 499 549
4 385 383 384 547
4 556 569 543 576
4 222 75 74 560
4 540 394 539 549
4 542 555 551 574
4 550 566 542 587
4 239 232 373 573
4 387 374 409 584
4 502 443 306 586
4 439 530 319 553
4 552 561 542 580
4 556 559 544 586
4 1 67 206 68
4 542 550 555 574
4 422 482 552 576
4 269 424 278 569
4 274 552 482 580
4 451 249 442 583
4 211 554 70 581
4 540 538 526 549
4 310 317 275 548
4 69 68 417 581
4 523 578 500 582
4 369 245 247 563
4 339 366 453 587
4 318 319 255 568
4 514 389 391 549
4 554 564 553 568
4 538 228 391 549
4 387 212 413 559
4 420 399 417 551
4 275 310 548 580
4 380 564 233 568
4 544 578 560 582
4 228 538 541 549
4 80 235 229 563
4 264 556 265 576
4 481 70 211 554
4 405 420 34 399
4 264 265 266 576
4 271 276 424 561
4 324 557 301 582
4 535 549 229 563
4 487 210 478 560
4 382 549 535 563
4 387 212 559 584
4 557 565 544 582
4 196 198 192 574
4 276 337 424 566
4 336 249 451 583
4 274 270 422 552
4 423 261 264 556
4 219 395 237 585
4 377 356 487 582
4 240 241 469 563
4 381 535 229 563
4 554 562 542 581
4 498 375 501 567
4 545 560 558 578
4 516 369 532 549
4 375 373 374 567
4 460 239 491 573
4 415 416 388 559
4 258 455 260 558
4 29 279 280 277
4 194 198 196 574
4 77 76 205 573
4 276 561 273 571
4 196 199 194 574
4 548 542 561 580
4 324 301 356 582
4 532 369 490 549
4 196 192 197 574
4 526 538 391 549
4 452 565 360 582
4 443 556 262 586
4 260 259 558 586
4 456 251 242 585
4 334 350 357 578
4 541 539 218 549
4 481 211 463 554
4 351 399 398 575
4 453 530 439 553
4 274 422 482 552
4 195 555 26 588
4 413 412 414 579
4 543 568 557 579
4 254 252 479 572
4 196 197 195 574
4 262 443 265 556
4 453 366 530 587
4 228 541 489 549
4 322 323 426 562
4 557 559 543 579
4 516 549 382 563
4 555 564 462 587
4 233 380 223 564
4 477 207 72 557
4 542 550 561 566
4 199 196 193 574
4 551 542 562 581
4 439 363 453 553
4 261 262 264 556
4 274 482 309 580
4 235 381 229 563
4 71 207 233 568
4 278 363 362 569
4 260 261 259 586
4 195 193 196 574
4 522 439 325 565
4 451 335 525 577
4 236 381 235 563
4 396 402 401 577
4 333 334 335 577
4 387 376 374 567
4 262 556 261 586
4 416 415 446 570
4 253 244 252 572
4 81 389 80 549
4 369 469 245 563
4 442 253 256 572
4 75 210 74 560
4 32 406 332 575
4 544 560 558 567
4 335 451 333 577
4 334 519 335 577
4 559 570 543 579
4 325 565 324 582
4 483 265 443 576
4 422 483 482 576
4 323 446 427 570
4 550 587 555 588
4 347 28 27 588
4 555 574 550 588
4 248 249 336 583
4 558 560 544 578
4 400 32 332 575
4 26 512 358 588
4 257 259 468 558
4 264 262 265 556
4 258 260 259 558
4 499 535 382 549
4 387 413 388 559
4 477 301 207 557
4 541 218 489 549
4 552 570 543 576
4 81 540 526 549
4 411 223 462 564
4 489 490 228 549
4 454 512 555 588
4 542 566 553 587
4 527 394 540 549
4 450 339 453 566
4 381 382 535 563
4 249 428 442 583
4 554 542 564 581
4 276 273 277 571
4 360 523 500 582
4 339 340 366 587
4 210 487 410 560
4 490 514 228 549
4 236 240 381 563
4 469 369 516 563
4 542 564 555 587
4 499 382 516 549
4 81 80 229 549
4 462 346 411 555
4 415 388 413 559
4 535 499 394 549
4 542 553 564 587
4 552 543 569 576
4 447 29 277 571
4 539 538 540 549
4 28 193 27 588
4 350 468 500 578
4 400 32 406 332
4 544 567 558 586
4 539 541 538 549
4 526 391 389 549
4 454 555 462 587
4 560 567 544 584
4 257 258 259 558
4 514 391 228 549
4 489 218 532 549
4 544 559 557 584
4 428 243 244 583
4 460 237 395 585
4 273 276 271 561
4 554 568 543 579
4 526 389 81 549
4 279 461 28 280
4 454 587 340 588
4 489 532 490 549
4 306 443 262 586
4 409 74 73 584
4 205 239 460 573
4 319 380 255 568
4 447 30 29 571
4 325 360 565 582
4 516 218 499 549
4 73 72 212 584
4 507 462 564 587
4 469 516 382 563
4 72 71 412 579
4 455 306 260 586
4 210 410 74 560
4 275 309 310 580
4 229 535 394 549
4 81 527 540 549
4 426 457 351 562
4 543 570 554 579
4 273 271 272 561
4 454 555 587 588
4 18 200 494 87
4 332 398 400 575
4 400 33 32 575
4 507 462 380 564
4 69 211 70 581
4 255 233 207 568
4 362 452 423 565
4 335 386 525 577
4 325 324 360 582
4 400 398 33 575
4 200 44 18 494
4 248 246 249 583
4 396 386 402 577
4 494 200 17 87
4 269 268 266 569
4 357 377 487 578
4 454 512 346 555
4 394 527 229 549
4 281 447 29 277
4 17 43 200 494
4 254 256 253 572
4 572 573 545 577
4 255 380 233 568
4 111 146 474 109
4 516 532 218 549
4 434 291 116 113
4 377 578 523 582
4 454 358 512 588
4 160 116 291 113
4 546 573 572 577
4 444 474 146 109
4 351 398 332 575
4 291 434 289 160
4 206 25 346 263
4 527 81 229 549
4 322 426 351 562
4 444 111 474 109
4 454 346 462 555
4 278 362 268 569
4 291 434 160 113
4 160 434 289 113
4 415 414 427 570
4 382 240 469 563
4 265 422 266 576
4 273 448 447 571
4 122 154 344 321
4 454 462 507 587
4 115 431 434 114
4 424 337 450 566
4 317 465 31 406
4 26 358 27 588
4 382 381 240 563
4 417 457 211 581
4 146 470 444 109
4 57 499 218 539
4 447 29 30 281
4 470 474 146 444
4 60 0 2 204
4 60 2 0 203
4 325 360 452 565
4 454 366 340 587
4 111 113 435 114
4 419 101 102 100
4 232 205 76 573
4 312 296 109 107
4 223 380 462 564
4 350 500 523 578
4 254 253 252 572
4 88 359 441 167
4 435 434 431 114
4 121 125 126 341
4 111 435 113 295
4 501 375 376 567
4 291 298 300 116
4 390 391 514 389
4 407 122 344 321
4 460 456 237 585
4 116 298 300 123
4 121 118 313 321
4 538 228 54 391
4 359 438 441 167
4 466 151 354 467
4 293 480 425 150
4 108 109 296 107
4 204 60 0 189
4 340 338 347 588
4 116 291 298 123
4 474 146 114 437
4 118 121 154 321
4 30 151 466 467
4 507 530 366 587
4 412 481 414 579
4 194 199 30 571
4 27 193 195 588
4 101 102 331 419
4 349 166 170 348
4 275 272 274 580
4 151 476 354 152
4 262 261 260 586
4 61 6 5 227
4 450 337 339 566
4 375 374 376 567
4 341 125 126 458
4 420 34 1 208
4 302 108 105 297
4 151 84 286 467
4 105 107 108 302
4 296 292 110 108
4 99 326 155 137
4 419 102 331 100
4 347 28 461 441
4 408 104 156 304
4 308 104 156 408
4 1 67 420 208
4 154 133 122 344
4 379 378 131 352
4 123 300 116 122
4 155 308 326 101
4 7 6 62 397
4 440 88 294 149
4 335 402 386 577
4 216 64 8 484
4 13 38 202 168
4 408 308 104 304
4 447 277 273 571
4 232 239 205 573
4 147 115 431 120
4 43 44 200 494
4 226 18 494 87
4 111 474 435 295
4 357 523 377 578
4 6 91 142 510
4 288 151 152 286
4 115 430 431 120
4 120 311 313 118
4 31 30 151 466
4 494 17 214 87
4 539 58 499 394
4 192 198 33 575
4 195 26 27 588
4 145 170 166 348
4 88 441 27 167
4 105 104 305 304
4 151 354 31 466
4 437 114 436 157
4 518 214 130 188
4 242 238 456 585
4 415 427 446 570
4 296 292 108 119
4 315 166 349 348
4 269 278 268 569
4 393 94 145 392
4 412 71 481 579
4 312 296 107 302
4 480 293 119 150
4 246 243 428 583
4 292 110 108 119
4 368 326 99 137
4 155 104 308 101
4 441 438 27 167
4 120 115 311 118
4 100 142 372 86
4 288 354 151 286
4 161 285 153 283
4 114 435 474 437
4 27 28 347 441
4 113 115 434 114
4 32 31 465 406
4 226 18 44 494
4 145 348 393 392
4 315 299 355 166
4 421 9 484 94
4 408 156 181 150
4 9 8 64 484
4 341 121 154 343
4 534 163 22 201
4 104 103 314 101
4 27 26 438 358
4 296 110 109 108
4 110 444 296 109
4 541 228 54 538
4 436 435 114 437
4 541 55 228 489
4 425 119 293 150
4 494 17 43 214
4 265 483 422 576
4 8 216 484 140
4 341 121 313 321
4 89 355 299 166
4 440 408 181 150
4 204 2 60 529
4 147 431 430 120
4 2 60 528 203
4 305 308 104 314
4 113 289 112 295
4 147 436 431 114
4 143 312 107 472
4 216 7 397 85
4 519 402 335 577
4 169 285 445 112
4 484 65 9 421
4 436 435 431 114
4 38 517 202 168
4 307 429 124 145
4 84 286 467 283
4 94 170 145 392
4 305 104 103 314
4 69 417 211 581
4 151 84 153 286
4 303 106 107 302
4 63 8 7 216
4 159 130 214 188
4 86 98 8 513
4 470 144 471 143
4 112 169 285 287
4 61 5 60 505
4 60 5 4 505
4 115 434 311 116
4 199 29 30 571
4 143 117 130 472
4 7 6 397 141
4 529 60 204 189
4 288 354 476 152
4 130 471 143 472
4 58 539 540 394
4 10 9 421 94
4 88 440 150 149
4 474 146 111 114
4 216 8 7 85
4 485 215 521 148
4 10 9 65 421
4 296 292 119 293
4 305 105 304 303
4 144 437 146 486
4 513 98 8 213
4 62 6 61 227
4 419 326 101 99
4 408 156 158 304
4 123 298 300 122
4 27 358 347 588
4 314 326 308 101
4 146 144 470 143
4 121 313 120 342
4 508 83 185 163
4 472 107 117 330
4 111 435 474 114
4 533 137 368 98
4 387 409 212 584
4 304 158 408 480
4 157 437 146 144
4 169 285 153 161
4 227 62 6 397
4 149 29 28 280
4 397 63 7 216
4 113 289 160 112
4 109 470 312 143
4 291 290 123 160
4 313 430 311 120
4 285 161 284 283
4 331 314 101 419
4 198 32 33 575
4 418 9 10 95
4 156 408 480 150
4 119 108 296 293
4 112 285 445 287
4 8 7 86 513
4 218 541 57 539
4 191 299 298 123
4 146 470 109 143
4 314 308 104 101
4 108 293 158 297
4 445 111 444 110
4 280 149 29 282
4 145 307 429 348
4 180 153 169 287
4 142 91 371 510
4 6 227 397 141
4 61 5 6 510
4 408 158 156 480
4 344 133 122 407
4 286 152 288 180
4 144 172 536 188
4 102 331 353 136
4 137 99 368 98
4 9 8 484 140
4 324 356 377 582
4 22 49 534 201
4 440 480 408 150
4 28 294 149 280
4 98 99 533 86
4 228 54 55 541
4 425 293 119 284
4 107 296 108 302
4 122 300 118 321
4 118 311 300 116
4 107 105 303 302
4 379 131 183 352
4 53 526 538 391
4 238 237 456 585
4 341 154 121 321
4 107 117 143 472
4 345 331 316 102
4 7 62 63 397
4 430 134 120 342
4 146 144 486 470
4 29 84 281 282
4 291 311 434 116
4 309 275 274 580
4 119 292 169 284
4 135 345 316 102
4 151 89 476 152
4 526 540 53 538
4 153 285 169 287
4 486 437 146 470
4 533 368 99 98
4 292 444 296 110
4 101 326 155 99
4 176 145 348 393
4 206 1 25 234
4 91 6 5 510
4 115 311 430 120
4 311 430 431 115
4 403 85 133 404
4 161 425 119 284
4 288 290 160 152
4 287 112 289 295
4 327 156 308 155
4 449 103 305 303
4 298 291 290 123
4 113 434 435 114
4 348 429 176 393
4 90 5 6 227
4 153 152 151 286
4 286 153 152 180
4 354 288 151 152
4 18 226 162 87
4 249 246 428 583
4 292 169 445 110
4 285 169 292 284
4 330 472 107 302
4 289 288 290 160
4 262 260 306 586
4 355 32 465 406
4 349 170 33 405
4 518 214 511 130
4 105 106 107 303
4 129 365 345 174
4 154 122 118 321
4 360 377 523 582
4 321 341 154 343
4 445 285 169 292
4 166 400 315 349
4 206 67 1 234
4 314 103 316 102
4 294 149 280 282
4 84 29 149 282
4 1 66 208 177
4 172 162 536 87
4 454 340 358 588
4 298 299 191 290
4 117 130 511 473
4 157 144 172 486
4 362 522 452 565
4 26 25 138 367
4 180 112 289 287
4 489 541 56 218
4 458 341 125 342
4 9 10 65 418
4 166 315 145 348
4 105 303 302 297
4 429 124 133 407
4 400 355 32 166
4 25 26 263 367
4 111 474 445 444
4 331 314 102 101
4 89 31 354 465
4 472 312 107 302
4 526 3 540 81
4 116 115 434 113
4 7 8 63 513
4 122 298 300 407
4 133 173 85 403
4 144 157 437 486
4 83 508 21 163
4 302 296 108 297
4 366 454 507 587
4 134 215 485 148
4 347 358 340 588
4 305 103 105 303
4 156 104 308 155
4 61 60 5 231
4 536 162 226 87
4 400 315 355 166
4 60 4 5 231
4 536 486 144 188
4 95 418 9 213
4 348 145 170 392
4 407 124 298 307
4 326 328 327 155
4 145 429 176 348
4 533 98 86 513
4 166 33 400 349
4 59 58 540 394
4 142 370 100 372
4 365 345 364 129
4 488 137 533 98
4 180 288 286 287
4 226 45 18 162
4 531 127 82 129
4 114 147 436 157
4 170 349 392 405
4 105 104 103 305
4 110 111 444 109
4 293 108 296 297
4 89 476 354 151
4 106 303 330 302
4 330 107 106 302
4 63 64 8 216
4 357 350 523 578
4 125 120 134 342
4 176 124 429 145
4 354 476 89 465
4 8 64 513 213
4 476 191 290 152
4 181 359 408 440
4 290 288 476 152
4 170 34 33 405
4 84 153 286 283
4 104 158 156 304
4 353 331 102 165
4 299 298 123 132
4 123 298 122 407
4 181 408 359 327
4 146 114 437 157
4 298 123 124 407
4 471 486 144 470
4 328 139 327 155
4 73 212 409 584
4 112 289 160 180
4 51 24 187 230
4 150 425 119 161
4 341 313 121 342
4 89 354 31 151
4 541 57 56 218
4 224 6 142 510
4 124 123 298 307
4 163 185 508 433
4 102 314 103 101
4 191 299 123 132
4 21 20 47 83
4 289 288 160 180
4 16 42 159 496
4 118 115 311 116
4 45 19 18 162
4 300 313 118 321
4 522 325 452 565
4 98 9 8 213
4 465 89 32 355
4 480 119 158 150
4 121 125 341 342
4 10 1 66 178
4 163 508 21 534
4 133 344 429 407
4 122 124 123 407
4 159 511 130 128
4 130 144 471 188
4 517 217 14 168
4 513 7 86 224
4 214 17 42 159
4 331 345 353 136
4 444 470 312 109
4 531 217 517 168
4 221 163 22 534
4 156 408 181 327
4 438 347 27 358
4 106 103 449 303
4 398 349 33 405
4 153 286 285 287
4 315 132 145 348
4 169 285 161 284
4 111 445 474 295
4 7 397 85 141
4 103 106 105 303
4 166 299 89 132
4 174 345 129 136
4 98 488 95 213
4 328 139 155 137
4 326 368 328 137
4 62 61 6 510
4 214 511 130 159
4 293 119 108 158
4 458 126 341 352
4 314 316 331 102
4 159 214 17 87
4 345 364 129 135
4 117 511 130 472
4 291 300 311 116
4 132 315 307 348
4 111 112 445 295
4 155 326 328 137
4 133 344 403 404
4 130 117 128 473
4 527 59 540 394
4 87 536 172 188
4 432 185 125 342
4 88 181 359 167
4 178 1 66 234
4 215 47 20 83
4 84 283 281 282
4 300 313 311 118
4 289 288 180 287
4 368 488 137 533
4 359 181 88 440
4 360 324 377 582
4 131 126 183 352
4 30 84 467 281
4 123 116 291 160
4 298 299 307 132
4 353 102 136 165
4 344 154 173 343
4 66 421 208 177
4 152 160 288 180
4 9 64 65 484
4 156 308 408 327
4 403 343 173 378
4 313 120 118 121
4 172 503 157 486
4 31 465 317 466
4 431 115 147 114
4 17 16 42 159
4 107 109 312 143
4 161 149 425 282
4 29 280 281 277
4 92 225 464 175
4 158 293 119 480
4 105 304 303 297
4 281 280 29 282
4 84 161 283 282
4 113 435 434 295
4 300 118 116 122
4 284 161 425 282
4 88 441 359 440
4 134 164 215 148
4 135 129 345 136
4 182 4 5 505
4 418 65 9 213
4 480 158 293 297
4 142 7 6 224
4 307 123 298 132
4 60 4 0 189
4 10 65 66 421
4 140 484 9 94
4 161 284 283 282
4 66 1 10 177
4 42 214 159 496
4 17 42 43 214
4 171 41 16 496
4 354 151 286 467
4 511 471 130 472
4 476 191 299 290
4 135 345 102 136
4 312 296 444 109
4 125 121 120 342
4 343 173 344 403
4 379 96 230 492
4 136 464 353 175
4 32 31 89 465
4 130 471 144 143
4 145 132 307 348
4 290 191 298 123
4 64 8 9 213
4 169 112 180 287
4 113 434 289 295
4 101 314 326 419
4 45 18 44 226
4 486 144 172 536
4 7 142 86 224
4 216 8 85 140
4 21 163 534 201
4 67 1 66 208
4 285 286 153 283
4 217 14 39 517
4 124 122 133 407
4 372 99 100 86
4 407 300 122 321
4 62 6 7 224
4 159 511 128 496
4 503 437 157 486
4 283 467 84 281
4 139 328 138 137
4 30 467 447 281
4 154 344 321 343
4 494 536 226 87
4 465 31 354 466
4 494 536 87 188
4 311 431 434 115
4 531 82 127 475
4 158 156 480 150
4 143 471 312 472
4 53 3 540 526
4 475 82 128 495
4 99 372 533 86
4 471 312 470 143
4 22 49 221 534
4 305 104 308 304
4 42 16 41 496
4 506 190 35 528
4 202 517 14 168
4 464 174 92 175
4 100 419 101 99
4 121 131 154 343
4 98 95 9 213
4 225 92 186 175
4 153 84 161 283
4 8 64 63 513
4 117 511 472 473
4 227 6 90 141
4 173 133 344 403
4 517 14 39 202
4 226 503 493 162
4 164 521 215 148
4 474 146 437 470
4 508 21 47 83
4 84 30 29 281
4 368 326 419 99
4 106 117 107 330
4 190 35 11 506
4 531 364 127 129
4 99 100 419 372
4 19 45 493 162
4 397 216 85 403
4 290 291 289 160
4 464 345 365 174
4 429 133 176 404
4 403 216 85 404
4 294 441 88 440
4 393 429 176 404
4 87 159 214 188
4 148 493 503 162
4 134 147 430 120
4 137 488 95 98
4 345 331 102 136
4 112 445 169 110
4 142 372 86 224
4 170 349 348 392
4 171 16 159 496
4 461 28 294 441
4 392 34 170 405
4 134 430 432 342
4 459 26 138 367
4 406 355 32 400
4 307 124 123 132
4 292 445 444 110
4 518 471 144 188
4 330 127 117 473
4 200 18 17 87
4 304 105 158 297
4 161 119 169 284
4 26 459 263 367
4 286 153 180 287
4 120 313 430 342
4 316 103 449 135
4 84 151 30 467
4 51 52 24 230
4 36 37 12 225
4 407 429 124 307
4 461 294 28 280
4 161 84 149 282
4 160 290 191 152
4 166 315 299 132
4 345 464 353 136
4 445 112 111 110
4 418 95 488 213
4 173 141 403 378
4 397 85 141 403
4 400 32 33 166
4 138 524 328 139
4 438 26 459 358
4 176 140 393 404
4 433 125 185 342
4 94 140 484 393
4 66 65 10 418
4 186 11 36 506
4 184 5 4 231
4 162 503 148 172
4 224 142 371 510
4 466 30 467 447
4 131 121 341 343
4 441 28 294 88
4 484 421 94 393
4 97 225 504 506
4 85 140 133 404
4 102 370 331 100
4 372 142 370 224
4 208 420 34 405
4 224 62 6 510
4 128 475 495 473
4 421 66 10 177
4 429 344 133 404
4 533 98 513 213
4 123 290 191 160
4 132 166 315 145
4 538 54 53 391
4 316 305 103 314
4 355 476 89 299
4 191 89 476 299
4 486 536 518 188
4 349 33 400 398
4 91 5 184 510
4 50 23 22 93
4 113 112 111 295
4 50 23 93 492
4 292 119 293 284
4 22 49 50 221
4 163 21 22 201
4 513 63 7 224
4 299 191 89 132
4 47 215 508 83
4 98 533 488 213
4 179 183 126 515
4 149 294 425 282
4 135 316 103 102
4 217 531 82 168
4 172 162 226 536
4 471 518 130 188
4 216 484 140 404
4 139 167 138 329
4 475 531 82 217
4 508 163 433 534
4 445 112 287 295
4 430 485 431 147
4 38 13 509 168
4 166 170 33 349
4 110 292 169 119
4 536 494 518 188
4 104 105 158 304
4 128 511 130 473
4 225 37 12 92
4 528 190 4 231
4 66 418 178 234
4 134 432 215 83
4 51 24 23 187
4 393 140 484 404
4 162 226 503 172
4 136 174 464 175
4 103 106 449 135
4 95 138 488 137
4 36 12 11 186
4 425 150 149 161
4 432 508 215 83
4 185 432 433 342
4 393 421 94 392
4 145 176 94 393
4 509 464 365 174
4 464 225 504 175
4 147 485 436 148
4 121 126 131 341
4 506 504 97 537
4 134 432 185 125
4 226 493 45 162
4 225 97 186 506
4 140 94 176 393
4 215 164 134 83
4 82 14 217 168
4 392 208 34 405
4 140 85 216 404
4 97 190 11 506
4 326 327 308 155
4 173 141 85 403
4 82 128 127 475
4 165 353 371 175
4 93 23 187 492
4 67 66 1 234
4 142 371 370 224
4 25 206 234 263
4 187 24 96 230
4 488 138 328 137
4 14 39 40 217
4 19 45 46 493
4 476 89 465 355
4 505 96 230 379
4 63 62 7 224
4 449 127 364 135
4 421 208 177 392
4 138 524 459 367
4 204 52 2 529
4 108 158 105 297
4 11 35 190 203
4 378 90 227 379
4 26 27 438 167
4 23 50 51 492
4 528 97 190 231
4 438 27 347 441
4 10 66 418 178
4 167 181 359 139
4 147 430 485 134
4 176 124 133 429
4 304 158 480 297
4 508 48 21 534
4 359 438 167 329
4 505 227 182 379
4 139 156 181 327
4 127 364 531 475
4 449 305 103 316
4 140 176 133 404
4 534 48 21 201
4 531 365 129 168
4 528 190 35 203
4 425 480 440 150
4 517 38 509 168
4 99 419 368 372
4 93 22 50 221
4 92 12 225 186
4 12 36 225 186
4 36 11 35 506
4 93 163 22 221
4 82 531 129 168
4 177 94 421 392
4 343 131 173 378
4 492 183 93 515
4 138 524 139 329
4 371 165 91 142
4 355 89 32 166
4 183 96 379 492
4 182 189 4 505
4 230 187 51 492
4 82 475 217 495
4 165 136 353 175
4 327 139 156 155
4 174 168 365 92
4 528 35 2 203
4 327 139 328 329
4 134 432 125 342
4 230 96 187 492
4 139 181 359 327
4 39 38 517 202
4 126 131 341 352
4 441 27 28 88
4 148 436 147 157
4 365 531 517 168
4 177 208 34 392
4 433 458 125 342
4 505 182 96 379
4 190 0 11 203
4 163 221 433 534
4 485 521 436 148
4 227 397 141 378
4 464 504 353 175
4 173 133 154 344
4 503 521 493 148
4 370 102 165 100
4 94 421 10 177
4 175 371 165 91
4 359 167 139 329
4 94 177 170 392
4 527 540 3 81
4 353 504 371 175
4 16 15 41 171
4 15 14 40 82
4 471 518 511 130
4 513 86 372 224
4 37 38 13 509
4 93 187 183 492
4 183 179 93 515
4 471 144 486 518
4 208 34 1 177
4 65 64 9 213
4 214 511 159 496
4 364 127 449 475
4 315 307 299 132
4 419 331 370 100
4 328 524 138 488
4 171 15 41 495
4 165 371 370 142
4 403 141 397 378
4 128 171 159 496
4 28 294 88 149
4 183 187 96 492
4 141 173 131 378
4 189 182 96 505
4 21 47 48 508
4 436 503 437 157
4 368 99 372 533
4 97 506 537 231
4 172 226 503 536
4 330 475 127 473
4 168 509 365 92
4 524 328 139 329
4 327 359 139 329
4 187 23 51 492
4 181 88 440 150
4 37 225 509 92
4 102 331 370 165
4 464 345 174 136
4 364 345 316 135
4 20 46 47 215
4 316 449 364 135
4 352 126 183 515
4 132 307 124 145
4 127 106 449 330
4 221 179 163 433
4 485 436 431 147
4 493 46 19 164
4 90 182 5 227
4 432 215 485 134
4 186 97 11 506
4 476 89 191 152
4 534 49 48 201
4 174 365 509 92
4 459 26 512 358
4 128 117 127 473
4 464 509 225 92
4 458 221 179 515
4 41 171 495 496
4 189 52 529 230
4 24 52 189 230
4 485 147 134 148
4 26 438 459 167
4 475 127 449 330
4 19 46 20 164
4 117 472 330 473
4 496 511 128 473
4 221 50 93 492
4 15 40 41 495
4 90 182 227 379
4 82 14 40 217
4 90 141 131 378
4 37 13 12 92
4 178 25 1 234
4 106 127 449 135
4 179 221 458 433
4 352 458 126 515
4 215 20 164 83
4 365 517 509 168
4 537 184 97 231
4 365 129 168 174
4 129 364 127 135
4 96 529 189 505
4 170 177 34 392
4 82 40 15 495
4 343 341 131 352
4 303 449 106 330
4 438 459 167 329
4 372 533 86 513
4 186 36 225 506
4 331 353 370 165
4 458 179 126 515
4 24 189 96 230
4 202 14 13 168
4 185 432 508 433
4 175 97 504 537
4 503 436 148 157
4 518 144 486 188
4 141 90 227 378
4 178 418 10 95
4 352 183 379 515
4 83 432 508 185
4 496 128 495 473
4 486 172 503 536
4 19 493 164 162
4 24 52 204 189
4 56 55 541 489
4 100 165 370 142
4 93 179 221 515
4 171 128 495 496
4 492 379 183 515
4 418 95 367 488
4 529 204 52 189
4 184 537 510 231
4 57 58 499 539
4 459 512 26 263
4 13 37 509 92
4 82 171 128 495
4 95 138 367 488
4 106 127 117 330
4 4 60 528 231
4 91 175 371 537
4 506 97 528 231
4 125 179 458 433
4 15 171 82 495
4 475 128 127 473
4 492 93 221 515
4 537 91 184 510
4 215 20 46 164
4 95 178 418 367
4 368 488 328 137
4 100 370 419 372
4 506 97 190 528
4 148 164 493 162
4 509 464 174 92
4 0 24 204 189
4 529 96 230 505
4 263 234 25 367
4 217 40 82 495
4 378 343 131 352
4 184 97 175 537
4 364 531 365 129
4 436 521 503 148
4 154 131 173 343
4 13 509 168 92
4 540 3 59 527
4 179 125 185 433
4 367 138 524 488
4 418 178 234 367
4 430 432 485 134
4 184 175 91 537
4 164 493 521 148
4 138 25 178 367
4 178 95 138 367
4 125 179 126 458
4 157 148 503 172
4 183 96 182 379
4 493 215 46 164
4 504 371 175 537
4 234 178 25 367
4 370 353 371 165
4 83 134 432 185
4 93 179 163 221
4 493 521 215 164
4 182 90 183 379
4 179 185 163 433
4 96 189 529 230
4 371 91 537 510
4 572 320 257 256
4 572 257 320 545
4 577 320 572 333
4 577 572 320 545
4 585 209 77 546
4 585 77 209 78
4 585 460 205 395
4 205 460 585 546
4 205 77 585 395
4 585 77 205 546
4 253 583 442 428
4 442 583 253 572
4 582 477 301 356
4 582 301 477 557
4 569 270 561 552
4 569 561 270 269
4 491 585 251 456
4 251 585 491 546
4 575 405 33 34
4 575 33 405 398
4 461 550 588 338
4 588 550 461 28
4 564 319 568 380
4 564 568 319 553
4 571 466 447 30
4 571 447 466 448
4 580 322 323 309
4 580 323 322 562
4 576 446 416 483
4 576 416 446 570
4 223 581 411 69
4 411 581 223 564
4 440 149 425 150
4 425 149 440 294
4 131 379 90 378
4 90 379 131 183
4 97 4 231 184
4 97 231 4 190
4 459 138 329 524
4 175 225 97 186
4 175 97 225 504
4 231 5 510 184
4 231 510 5 61
4 528 4 203 60
4 528 203 4 190
4 0 203 4 60
4 0 4 203 190
4 505 5 227 61
4 505 227 5 182
4 188 494 214 87
4 188 214 494 518
4 60 189 505 4
4 505 189 60 529
4 459 167 138 26
4 138 167 459 329

CELL_TYPES 2982
1
1
1
1
3
3
3
3
3
3
3
3
3
3
3
3
3
3
3
3
3
3
3
3
3
3
3
3
3
3
3
3
3
3
3
3
3
3
3
3
3
3
3
3
3
3
3
3
3
3
3
3
3
3
3
3
3
3
3
3
3
3
3
3
3
3
3
3
3
3
3
3
3
3
3
3
3
3
3
3
3
3
3
3
3
3
3
3
5
5
5
5
5
5
5
5
5
5
5
5
5
5
5
5
5
5
5
5
5
5
5
5
5
5
5
5
5
5
5
5
5
5
5
5
5
5
5
5
5
5
5
5
5
5
5
5
5
5
5
5
5
5
5
5
5
5
5
5
5
5
5
5
5
5
5
5
5
5
5
5
5
5
5
5
5
5
5
5
5
5
5
5
5
5
5
5
5
5
5
5
5
5
5
5
5
5
5
5
5
5
5
5
5
5
5
5
5
5
5
5
5
5
5
5
5
5
5
5
5
5
5
5
5
5
5
5
5
5
5
5
5
5
5
5
5
5
5
5
5
5
5
5
5
5
5
5
5
5
5
5
5
5
5
5
5
5
5
5
5
5
5
5
5
5
5
5
5
5
5
5
5
5
5
5
5
5
5
5
5
5
5
5
5
5
5
5
5
5
5
5
5
5
5
5
5
5
5
5
5
5
5
5
5
5
5
5
5
5
5
5
5
5
5
5
5
5
5
5
5
5
5
5
5
5
5
5
5
5
5
5
5
5
5
5
5
5
5
5
5
5
5
5
5
5
5
5
5
5
5
5
5
5
5
5
5
5
5
5
5
5
5
5
5
5
5
5
5
5
5
5
5
5
5
5
5
5
5
5
5
5
5
5
5
5
5
5
5
5
5
5
5
5
5
5
5
5
5
5
5
5
5
5
5
5
5
5
5
5
5
5
5
5
5
5
5
5
5
5
5
5
5
5
5
5
5
5
5
5
5
5
5
5
5
5
5
5
5
5
5
5
5
5
5
5
5
5
5
5
5
5
5
5
5
5
5
5
5
5
5
5
5
5
5
5
5
5
5
5
5
5
5
5
5
5
5
5
5
5
5
5
5
5
5
5
5
5
5
5
5
5
5
5
5
5
5
5
5
5
5
5
5
5
5
5
5
5
5
5
5
5
5
5
5
5
5
5
5
5
5
5
5
5
5
5
5
5
5
5
5
5
5
5
5
5
5
5
5
5
5
5
5
5
5
5
5
5
5
5
5
5
5
5
5
5
5
5
5
5
5
5
5
5
5
5
5
5
5
5
5
5
5
5
5
5
5
5
5
5
5
5
5
5
5
5
5
5
5
5
5
5
5
5
5
5
5
5
5
5
5
5
5
5
5
5
5
5
5
5
5
5
5
5
5
5
5
5
5
5
5
5
5
5
5
5
5
5
5
5
5
5
5
5
5
5
5
5
5
5
5
5
5
5
5
5
5
5
5
5
5
5
5
5
5
5
5
5
5
5
5
5
5
5
5
5
5
5
5
5
5
5
5
5
5
5
5
5
5
5
5
5
5
5
5
5
5
5
5
5
5
5
5
5
5
5
5
5
5
5
5
5
5
5
5
5
5
5
5
5
5
5
5
5
5
5
5
5
5
5
5
5
5
5
5
5
5
5
5
5
5
5
5
5
5
5
5
5
5
5
5
5
5
5
5
5
5
5
5
5
5
5
5
5
5
5
5
5
5
5
5
5
5
5
5
5
5
5
5
5
5
5
5
5
5
5
5
5
5
5
5
5
5
5
5
5
5
5
5
5
5
5
5
5
5
5
5
5
5
5
5
5
5
5
5
5
5
5
5
5
5
5
5
5
5
5
5
5
5
5
5
5
5
5
5
5
5
5
5
5
5
5
5
5
5
5
5
5
5
5
5
5
5
5
5
5
5
5
5
5
5
5
5
5
5
5
5
5
5
5
5
5
5
5
5
5
5
5
5
5
5
5
5
5
5
5
5
5
5
5
5
5
5
5
5
5
5
5
5
5
5
5
5
5
5
5
5
5
5
5
5
5
5
5
5
5
5
5
5
5
5
5
5
5
5
5
5
5
5
5
5
5
5
5
5
5
5
5
5
5
5
5
5
5
5
5
5
5
5
5
5
5
5
5
5
5
5
5
5
5
5
5
5
5
5
5
5
5
5
5
5
5
5
5
5
5
5
5
5
5
5
5
5
5
5
5
5
5
5
5
5
5
5
5
5
5
5
5
5
5
5
5
5
5
5
5
5
5
5
5
5
5
5
5
5
5
5
5
5
5
5
5
5
5
5
5
5
5
5
5
5
5
5
5
5
5
5
5
5
5
5
5
5
5
5
5
5
5
5
5
5
5
5
5
5
5
5
5
5
5
5
5
5
5
5
5
5
5
5
5
5
5
5
5
5
5
5
5
5
5
5
5
5
5
5
5
5
5
5
5
5
5
5
5
5
5
5
5
5
5
5
5
5
5
5
5
5
5
5
5
5
5
5
5
5
5
5
5
5
5
5
5
5
5
5
5
5
5
5
5
5
5
5
5
5
5
5
5
5
5
5
5
5
5
5
5
5
5
5
5
5
5
5
5
5
5
5
5
5
5
5
5
5
5
5
5
5
5
5
5
5
5
5
5
5
5
5
5
5
5
5
5
5
5
5
5
5
5
5
5
10
10
10
10
10
10
10
10
10
10
10
10
10
10
10
10
10
10
10
10
10
10
10
10
10
10
10
10
10
10
10
10
10
10
10
10
10
10
10
10
10
10
10
10
10
10
10
10
10
10
10
10
10
10
10
10
10
10
10
10
10
10
10
10
10
10
10
10
10
10
10
10
10
10
10
10
10
10
10
10
10
10
10
10
10
10
10
10
10
10
10
10
10
10
10
10
10
10
10
10
10
10
10
10
10
10
10
10
10
10
10
10
10
10
10
10
10
10
10
10
10
10
10
10
10
10
10
10
10
10
10
10
10
10
10
10
10
10
10
10
10
10
10
10
10
10
10
10
10
10
10
10
10
10
10
10
10
10
10
10
10
10
10
10
10
10
10
10
10
10
10
10
10
10
10
10
10
10
10
10
10
10
10
10
10
10
10
10
10
10
10
10
10
10
10
10
10
10
10
10
10
10
10
10
10
10
10
10
10
10
10
10
10
10
10
10
10
10
10
10
10
10
10
10
10
10
10
10
10
10
10
10
10
10
10
10
10
10
10
10
10
10
10
10
10
10
10
10
10
10
10
10
10
10
10
10
10
10
10
10
10
10
10
10
10
10
10
10
10
10
10
10
10
10
10
10
10
10
10
10
10
10
10
10
10
10
10
10
10
10
10
10
10
10
10
10
10
10
10
10
10
10
10
10
10
10
10
10
10
10
10
10
10
10
10
10
10
10
10
10
10
10
10
10
10
10
10
10
10
10
10
10
10
10
10
10
10
10
10
10
10
10
10
10
10
10
10
10
10
10
10
10
10
10
10
10
10
10
10
10
10
10
10
10
10
10
10
10
10
10
10
10
10
10
10
10
10
10
10
10
10
10
10
10
10
10
10
10
10
10
10
10
10
10
10
10
10
10
10
10
10
10
10
10
10
10
10
10
10
10
10
10
10
10
10
10
10
10
10
10
10
10
10
10
10
10
10
10
10
10
10
10
10
10
10
10
10
10
10
10
10
10
10
10
10
10
10
10
10
10
10
10
10
10
10
10
10
10
10
10
10
10
10
10
10
10
10
10
10
10
10
10
10
10
10
10
10
10
10
10
10
10
10
10
10
10
10
10
10
10
10
10
10
10
10
10
10
10
10
10
10
10
10
10
10
10
10
10
10
10
10
10
10
10
10
10
10
10
10
10
10
10
10
10
10
10
10
10
10
10
10
10
10
10
10
10
10
10
10
10
10
10
10
10
10
10
10
10
10
10
10
10
10
10
10
10
10
10
10
10
10
10
10
10
10
10
10
10
10
10
10
10
10
10
10
10
10
10
10
10
10
10
10
10
10
10
10
10
10
10
10
10
10
10
10
10
10
10
10
10
10
10
10
10
10
10
10
10
10
10
10
10
10
10
10
10
10
10
10
10
10
10
10
10
10
10
10
10
10
10
10
10
10
10
10
10
10
10
10
10
10
10
10
10
10
10
10
10
10
10
10
10
10
10
10
10
10
10
10
10
10
10
10
10
10
10
10
10
10
10
10
10
10
10
10
10
10
10
10
10
10
10
10
10
10
10
10
10
10
10
10
10
10
10
10
10
10
10
10
10
10
10
10
10
10
10
10
10
10
10
10
10
10
10
10
10
10
10
10
10
10
10
10
10
10
10
10
10
10
10
10
10
10
10
10
10
10
10
10
10
10
10
10
10
10
10
10
10
10
10
10
10
10
10
10
10
10
10
10
10
10
10
10
10
10
10
10
10
10
10
10
10
10
10
10
10
10
10
10
10
10
10
10
10
10
10
10
10
10
10
10
10
10
10
10
10
10
10
10
10
10
10
10
10
10
10
10
10
10
10
10
10
10
10
10
10
10
10
10
10
10
10
10
10
10
10
10
10
10
10
10
10
10
10
10
10
10
10
10
10
10
10
10
10
10
10
10
10
10
10
10
10
10
10
10
10
10
10
10
10
10
10
10
10
10
10
10
10
10
10
10
10
10
10
10
10
10
10
10
10
10
10
10
10
10
10
10
10
10
10
10
10
10
10
10
10
10
10
10
10
10
10
10
10
10
10
10
10
10
10
10
10
10
10
10
10
10
10
10
10
10
10
10
10
10
10
10
10
10
10
10
10
10
10
10
10
10
10
10
10
10
10
10
10
10
10
10
10
10
10
10
10
10
10
10
10
10
10
10
10
10
10
10
10
10
10
10
10
10
10
10
10
10
10
10
10
10
10
10
10
10
10
10
10
10
10
10
10
10
10
10
10
10
10
10
10
10
10
10
10
10
10
10
10
10
10
10
10
10
10
10
10
10
10
10
10
10
10
10
10
10
10
10
10
10
10
10
10
10
10
10
10
10
10
10
10
10
10
10
10
10
10
10
10
10
10
10
10
10
10
10
10
10
10
10
10
10
10
10
10
10
10
10
10
10
10
10
10
10
10
10
10
10
10
10
10
10
10
10
10
10
10
10
10
10
10
10
10
10
10
10
10
10
10
10
10
10
10
10
10
10
10
10
10
10
10
10
10
10
10
10
10
10
10
10
10
10
10
10
10
10
10
10
10
10
10
10
10
10
10
10
10
10
10
10
10
10
10
10
10
10
10
10
10
10
10
10
10
10
10
10
10
10
10
10
10
10
10
10
10
10
10
10
10
10
10
10
10
10
10
10
10
10
10
10
10
10
10
10
10
10
10
10
10
10
10
10
10
10
10
10
10
10
10
10
10
10
10
10
10
10
10
10
10
10
10
10
10
10
10
10
10
10
10
10
10
10
10
10
10
10
10
10
10
10
10
10
10
10
10
10
10
10
10
10
10
10
10
10
10
10
10
10
10
10
10
10
10
10
10
10
10
10
10
10
10
10
10
10
10
10
10
10
10
10
10
10
10
10
10
10
10
10
10
10
10
10
10
10
10
10
10
10
10
10
10
10
10
10
10
10
10
10
10
10
10
10
10
10
10
10
10
10
10
10
10
10
10
10
10
10
10
10
10
10
10
10
10
10
10
10
10
10
10
10
10
10
10
10
10
10
10
10
10
10
10
10
10
10
10
10
10
10
10
10
10
10
10
10
10
10
10
10
10
10
10
10
10
10
10
10
10
10
10
10
10
10
10
10
10
10
10
10
10
10
10
10
10
10
10
10
10
10
10
10
10
10
10
10
10
10
10
10
10
10
10
10
10
10
10
10
10
10
10
10
10
10
10
10
10
10
10
10
10
10
10
10
10
10
10
10
10
10
10
10
10
10
10
10
10
10
10
10
10
10
10
10
10
10
10
10
10
10
10
10
10
10
10
10
10
10
10
10
10
10
10
10
10
10
10
10
10
10
10
10
10
10
10
10
10
10
10
10
10
10
10
10
10
10
10
10
10
10
10
10
10
10
10
10
10
10
10
10
10
10
10
10
10
10
10
10
10
10
10
10
10
10
10
10
10
10
10
10
10
10
10
10
10
10
10
10
10
10
10
10
10
10
10
10
10
10
10
10
10
10
10
10
10
10
10
10
10
10
10
10
10
10
10
10
10
10
10
10
10
10
10
10
10
10
10
10
10
10
10
10
10
10
10
10
10
10
10
10
10
10
10
10
10
10
10
10
10
10
10
10
10
10
10
10
10
10
10
10
10
10
10
10
10
10
10
10
10
10
10
10
10
10
10
10
10
10
10
10
10
10
10
10
10
10
10
10
10
10
10
10
10
10
10
10
10
10
10
10
10
10
10
10
10
10
10
10
10
10
10
10
10
10
10
10
10
10
10
10
10
10
10
10
10
10
10
10
10
10
10
10
10
10
10
10
10
10
10
10
10
10
10
10
10
10
10
10
10
10
10
10
10
10
10
10
10
10
10
10
10
10
10
10
10
10
10
10
10
10
10
10
10
10
10
10
10
10
10
10
10
10
10
10
10
10
10
10
10
10
10
10
10
10
10
10
10
10
10
10
10
10
10
10
10
10
10
10
10
10
10
10
10
10
10
10
10
10
10
10
10
10
10
10
10
10
10
10
10
10
10
10
10
10
10
10
10
10
10
10
10
10
10
10
10
10
10
10
10
10
10
10
10
10
10
10
10
10
10
10
10
10
10
10
10
10
10
10
10
10
10
10
10
10
10
10
10
10
10
10
10
