# vtk DataFile Version 2.0
whisker_body, Created by Gmsh 4.13.1 
ASCII
DATASET UNSTRUCTURED_GRID
POINTS 625 double
-8.874119674649524 -1.499999999999705 0
8.874119674649528 -1.499999999999699 0
-6.143677370349939 -1.500000000000105 34
6.143677370349938 -1.500000000000105 34
12 0 0
8.874119674649352 1.500000000000214 0
0 9 0
-8.87411967464935 1.500000000000212 0
7.27789759052289 0 60
6.143677370349989 1.5 34
0 6.324141967962971 34
-6.143677370349989 1.500000000000002 34
-7.584846902842285 -4.844594664205024 0
-5.092435961360746 -7.420720718329175 0
-1.792242851007811 -8.81974294200298 0
1.792242851007785 -8.819742942002986 0
5.092435961360731 -7.420720718329185 0
7.584846902842282 -4.844594664205029 0
-5.324471804789714 -1.5 0
-1.774823934929904 -1.5 0
1.774823934929906 -1.5 0
5.324471804789717 -1.5 0
-6.44930514218048 -1.5 30.22240399602018
-6.754194720889839 -1.5 26.44474750178945
-7.05844168001655 -1.5 22.66703906197496
-7.362125724968754 -1.5 18.88928441550867
-7.665313505064645 -1.5 15.11149202495099
-7.968061899323682 -1.5 11.33366317528581
-8.270419075435791 -1.5 7.555802800106704
-8.572426451192664 -1.5 3.777913857166752
-4.531356634784009 -4.411527930247013 34
-1.664074295437553 -6.101280879472323 34
1.66407429543753 -6.10128087947233 34
4.531356634784006 -4.411527930247017 34
8.572426451192664 -1.5 3.777913857166752
8.270419075435791 -1.5 7.555802800106704
7.968061899323682 -1.5 11.33366317528581
7.665313505064649 -1.5 15.11149202495095
7.362125724968754 -1.5 18.88928441550867
7.058441680016553 -1.5 22.66703906197492
6.754194720889839 -1.5 26.44474750178945
6.44930514218048 -1.5 30.22240399602018
-3.071838685174969 -1.5 34
0 -1.5 34
3.071838685174969 -1.5 34
11.34980690040761 3.896393630456207 0
9.469686112756717 7.370552552276022 0
6.563377897469113 10.04599773915035 0
2.945825845689581 11.63280319127197 0
-0.9909521456679979 11.95901391608004 0
-4.820345095835646 10.98927991986068 0
-8.127378859508902 8.82868692807757 0
-10.55368501447787 5.71136871644487 0
-11.83633564083267 1.975135083368787 0
-11.83633564083267 -1.975135083368821 0
-10.55368501447786 -5.711368716444897 0
-8.12737885950888 -8.828686928077589 0
-4.820345095835619 -10.9892799198607 0
-0.9909521456679715 -11.95901391608004 0
2.945825845689616 -11.63280319127196 0
6.563377897469155 -10.04599773915032 0
9.469686112756747 -7.370552552275983 0
11.34980690040762 -3.896393630456205 0
7.818029843080671 4.458520984889497 0
5.809475019311043 6.873863542433829 0
3.093156003024702 8.451768213868164 0
5.324471804789612 1.5 0
1.774823934929872 1.5 0
-1.774823934929868 1.5 0
-5.324471804789608 1.5 0
-3.093156003024702 8.451768213868164 0
-5.809475019311038 6.873863542433833 0
-7.818029843080673 4.458520984889494 0
6.302844199534381 3.638948795261439 60
3.638948795261455 6.302844199534372 60
1.337378586081774e-14 7.27789759052289 60
-3.638948795261432 6.302844199534386 60
-6.302844199534364 3.63894879526147 60
-7.27789759052289 4.613978646370539e-14 60
-6.302844199534409 -3.638948795261393 60
-3.63894879526151 -6.302844199534341 60
-6.597764390521311e-14 -7.27789759052289 60
3.638948795261406 -6.302844199534401 60
6.302844199534367 -3.638948795261465 60
11.70486859940768 0 3.75
11.40973719881536 0 7.5
11.11460579822304 0 11.25
10.81947439763072 0 15
10.5243429970384 0 18.75
10.22921159644608 0 22.5
9.934080195853765 0 26.25
9.638948795261445 0 30
9.343817394669125 0 33.75
9.048685994076806 0 37.5
8.753554593484488 0 41.25
8.458423192892168 0 45
8.163291792299848 0 48.75
7.868160391707529 0 52.5
7.573028991115209 0 56.25
6.44930514218048 1.5 30.22240399602018
6.754194720889839 1.5 26.44474750178945
7.05844168001655 1.5 22.66703906197496
7.362125724968754 1.5 18.88928441550867
7.665313505064645 1.5 15.11149202495099
7.968061899323682 1.5 11.33366317528581
8.270419075435791 1.5 7.555802800106704
8.572426451192664 1.5 3.777913857166752
4.90455263374938 3.992509873968076 34
2.715287496701086 5.711565935994201 34
0 8.702682440884775 3.777777777777778
0 8.405364881769549 7.555555555555555
0 8.108047322654324 11.33333333333333
0 7.810729763539099 15.11111111111111
0 7.513412204423873 18.88888888888889
0 7.216094645308647 22.66666666666666
0 6.918777086193423 26.44444444444445
0 6.621459527078197 30.22222222222222
-8.572426451192664 1.5 3.777913857166752
-8.270419075435791 1.5 7.555802800106704
-7.968061899323682 1.5 11.33366317528581
-7.665313505064649 1.5 15.11149202495095
-7.362125724968754 1.5 18.88928441550867
-7.058441680016553 1.5 22.66703906197492
-6.754194720889839 1.5 26.44474750178945
-6.44930514218048 1.5 30.22240399602018
3.071838685174995 1.5 34
0 1.5 34
-3.071838685174994 1.5 34
-2.715287496701083 5.711565935994202 34
-4.904552633749379 3.992509873968077 34
-1.273726035872934e-14 -8.755741709905609 3.10359584244728
-6.585308332403857 -4.488460295618917 13.09403781399184
-5.851759768773558 -4.485836284415614 20.66895347034794
-0.006795529355530832 -6.549826335941852 31.13236342249137
6.205497531266205 -4.508365062377599 16.89539649266876
5.493602622324576 -4.460409544623357 24.44211678864447
6.788266632256696 -4.708063529445001 9.388112608025462
-7.266309852266724 -4.514358240261876 5.661194274699358
6.292644529000632 -6.088155527105011 3.103595842447224
-5.130506394361925 -4.431565294538551 28.21483366028117
-3.068166351079161 -5.78165058661927 31.18974976561635
-1.784280720025223 -6.5420143022151 28.19539826843517
1.901360712483079 -6.510444537926201 28.17717576088238
-0.03403434575447754 -7.012027467523528 25.25853652673253
-5.494435515159866 -4.459651492209512 24.43997110545356
-2.477144367633613 -6.801348479904948 22.38311790422888
-3.510611218953987 -6.670303646409744 18.57992870660501
-0.01229175925409406 -7.424045002314619 20.02427756317214
-0.6218249641286528 -7.684812772092309 16.3918992929669
3.481079728100839 -6.762258858468141 17.71677209568855
2.291602873820628 -7.543635382083221 14.17978401891258
-1.130981040097618 -7.920418832061681 12.69655436454796
1.854292083491655 -7.962050392758607 10.48104864390108
-1.584475093189875 -8.137389773469245 9.018666708204364
3.247962271545688 -6.541177446374488 21.56029612923239
1.638714054932433 -8.332935703706427 6.44791643102595
3.072129656482754 -5.779562698362929 31.189558214269
5.150493278665347 -4.413200216688722 28.17450008604057
-6.910603330545968 -4.53555955003513 9.32559889775801
-4.850002526672149 -6.892664330196568 7.267826933688473
-4.451047851686999 -6.810004823657741 10.98323922248247
-4.007542561302876 -6.736898295925539 14.75492263893043
6.561699828933371 -4.521163200020884 13.10658645904542
-6.218479704740449 -4.490683614382675 16.8935958309235
-5.685079587581004 -6.621858343583906 3.462526986373321
4.880658841745769 -6.78769107024182 8.128945907326587
5.911507458715259 -4.406168973178974 20.67375643450389
3.424300766238102 -8.060612249674158 3.077265249409402
7.173985946929669 -4.625379217309058 5.897977875473313
-2.193380159789545 -8.265301908510525 5.700233601885769
4.571049511468778 -6.683510593157944 11.4718209844172
3.000847063322146 -6.343939186308631 25.18521546814971
-3.09769012598788 -6.277082586355104 25.41472392625095
-2.890151428056678 -8.299195834073091 2.693221811184662
5.195625637926386 -3.953233758963207 31.40214848064882
4.815618467178543 -6.174741844912469 14.85918612628655
-7.625802503294838 -4.333903527902465 2.905995998964613
-5.194786379136159 -3.954232603744313 31.40294830380433
4.849974038140609 -7.075882886493439 5.355884106584093
7.762782138854512 -4.107309644155758 2.764704285803185
0.73633828077675 -7.183616879948867 22.60107899367125
0.1188231711636067 -1.5 3.384678643483213
-4.549965955603236 -1.5 12.94897354401963
4.475711365685427 -1.5 19.83310686896422
-3.266033260353175 -1.5 28.3791446447973
4.702132448740308 -1.5 9.381959097438752
1.514847201322006 -1.5 31.30715938422505
-3.943861434252765 -1.5 20.51793317010541
-5.567342126689688 -1.5 5.451930149788045
4.04963175377182 -1.5 3.551521903789961
2.305692971096111 -1.5 6.572462656611444
3.178464887900212 -1.5 28.38361512803096
-3.643707132630121 -1.5 24.33085557781784
-0.6343112212738511 -1.5 22.27213807775653
-1.063996435699933 -1.5 18.39242124622443
-0.3112051261293676 -1.5 25.92478467365213
3.111001435631612 -1.5 23.6634975215035
-4.95544566274238 -1.5 9.188296618406305
-1.560835926234134 -1.5 10.94821033213813
-1.190770144456149 -1.5 14.59525569570423
1.972690560012566 -1.5 12.39277127374417
2.290128838188354 -1.5 16.22940814182617
-4.296005533340915 -1.5 16.74256001608556
-1.499886878328857 -1.5 31.35270847718475
-1.820617687070829 -1.5 6.932558099577573
-3.549647869859809 -1.5 2.648088327083819
5.026894452083688 -1.5 13.39175108449447
-0.07676263511783787 -1.5 29.06948246157804
5.364034777198174 -1.5 16.69100850714889
1.193716624482375 -1.5 9.47398677653414
-4.086148267277494 -1.5 31.59085142360044
4.071626657385531 -1.5 31.58263570165524
5.627471717254881 -1.5 6.337259796069905
-6.217515751901614 -1.5 2.517356236994695
1.394195176069296 -1.5 20.1041326185672
-1.161128857093033 -3.770328052645758 34
1.596854206211206 -3.482184757903646 34
4.098470638881822 -9.479816147688613 0
-7.099295739719495 7.814668436628774e-14 0
7.099295739719569 1.698500362568311e-13 0
1.27675647831893e-15 -5.551115123125783e-17 0
3.549647869859776 -5.551115123125783e-17 0
-3.549647869859773 1.110223024625157e-16 0
-10.35522765774104 6.750155989720952e-14 0
-9.770542543260142 3.411256196175788 0
-9.712246808200572 -3.507774616004609 0
-8.077142184094621 6.468110042961442 0
7.177586718607229 -7.420466418490129 0
8.935881143994854 -3.209627415059868 31.83128104831302
8.622259865243404 3.210721483584408 35.56901948640535
9.560740229175035 3.210769427521803 24.32635413700642
9.70479363407347 -3.716355517672122 20.43117751032401
7.572575793799106 -4.09758946533286 43.0725261603211
-11.73088669374763 -1.940162152660217e-14 3.419408766471456
-2.93356341489342 11.36350050067426 3.353765747894174
-7.290541649137687 1.984803379761022 56.46779818220659
7.694330858993568 3.154194830285126 46.81285440877583
-2.550778283412737 -11.45591304092289 3.348636435899146
10.49497893106745 3.195253963268123 13.07967085456085
-1.949325425597162 -7.274981528814155 56.7762135102464
10.30028872730695 -3.761722649871375 13.14206888421812
-1.976212442307552 7.275357946767365 56.68260865122541
7.358006790879124 -3.190129739543207 50.57323636838945
7.525537753436183 9.008657493085222 3.324163033449048
4.712243512000845 -10.74283313214679 3.419408766471714
-9.257317901175377 7.20525973842184 3.419408766471709
-9.257317901175359 -7.205259738421862 3.419408766471709
7.037746588842867 3.184812749282433 54.32125868882564
11.10107250334919 -3.225331996075627 5.589093889147453
4.860641625241934 -5.775290174685608 56.56170290324955
11.10107250334962 3.22533199607392 5.589093889148325
8.302498260544249 3.219399699765722 39.32785339379618
6.767990550768168 6.028531846019131 37.31046639484082
7.1561374373903 6.029827549225469 33.57185725044894
4.459516505363632 8.07916914395812 35.2186546684297
4.03726469586814 7.96948964214527 38.96012839271994
4.877740297785107 8.178981872165188 31.4728916166187
7.520309771481806 6.052851286960895 29.81378956583192
5.277334135415425 8.280104071247269 27.71377373905037
1.923148430858776 9.49895701911773 29.32997136373502
2.464358994756387 9.680334675724991 25.55101784553294
-1.103463566948654 9.80808709383358 27.06466390609456
-0.5956968721073074 10.14822986869925 23.30701150773297
-3.982604614699079 9.229425708488868 24.75122265255619
-4.40212492057993 8.707793630796385 28.49655016365561
-3.553124035786846 9.718833925803832 20.99106814265381
-6.570573797032475 7.854840132300438 22.35463580261689
-6.253481667766271 8.480387363219215 18.59241302623172
-8.665669585966803 5.814376506269245 19.87816128611652
-8.8118071220996 5.018929650410747 23.622263861378
-10.04801131282863 2.447857024148282 21.06837938141427
-9.929237850984048 1.548383401381416 24.78673642794851
-10.18091864893847 -1.242852275936011 22.15327163310771
-9.737143862762657 -2.122814665780092 25.84623298060024
-9.015913597590666 -4.724573926518793 23.14033575231139
-8.222622840338536 -5.497644949143086 26.79498012324179
-9.197202449421399 -3.009072282229524 29.51735401381464
-9.712632359766667 -3.902713115655338 19.4735692795692
-7.659489634273101 -7.029596552183039 20.37696775713825
-3.108460018816291 10.18166752779877 17.20923716048111
-7.332394637012778 -6.204057620828051 30.43247349677862
-8.558227217383159 -3.862089403382325 33.17206625808665
-6.323319077861125 -6.84704837718311 34.04987777709021
-7.802784747782774 -4.688778697823762 36.80744187430816
-5.568695792453771 -8.09431811440656 27.63746084531024
-9.096661336310383 -1.22337936950202 35.84983521480454
-8.605894975505427 -2.241471304483646 39.47805456937944
-6.93250904852404 -5.449707920275151 40.42979322884231
-8.05187039335263 -3.033739004321929 43.14482714337586
-6.011723089674582 -6.057232799697049 44.03841944630597
-10.10124492618864 3.328350766599845 17.33808968193387
-8.663007553761998 0.5998598237039277 42.13693856384484
-8.588516489312555 -6.354532359063732 16.72443320626577
-5.844774745359044 -8.86427249187833 17.56308952470697
2.941860420317556 9.857248191706278 21.76726302345099
1.158669650468643 9.03210376952226 36.77023705870678
0.6933706929698074 8.78474499369918 40.50654184873146
-4.053644662027241 -7.759752545423802 41.23470420985013
-2.844165801744913 -7.982613764245725 44.80003447762223
-5.888564046916641 9.094015674331169 14.81499397023413
-7.382172758807954 -3.834128417944132 46.77821876145224
-6.969582184328739 -8.386510101814606 13.91935175143824
-3.665200507920996 -10.20588281799837 14.6875507943682
-2.350077137213913 -10.29472361075972 18.30259210460662
0.07553110968990209 -10.790865310309 15.36015418386934
-9.378847619607839 -5.690641384593466 13.08433190179717
-2.311248829162325 8.68984928207667 38.22076711079207
-2.639135406717508 10.62160768464617 13.41052532800753
1.435635350978262 -10.41164542148404 18.93024469472615
-0.4992510633867022 -8.686669944972206 41.9177071004563
3.79373459855749 -10.05438836810804 15.92966011599398
-2.757987307179771 8.249994504228161 41.94588238741866
0.2268866609168426 8.514846963692476 44.24466636791801
-3.191779749716208 7.77645302230333 45.66621804219201
-0.3424409564484934 8.224955519104729 47.87594907848778
0.8608134322278648 -8.380456574966457 45.43039258434479
2.495886955657835 -10.73870671259418 12.38932838377752
-3.694056164938622 7.232952242058065 49.27875684583398
-5.535450030340695 9.660184010117954 11.006765210722
-1.526336930167138 -8.052226267239824 48.33933574731471
0.4339958998891368 10.75222231364161 15.74327334070982
0.8872411807343293 11.02633383812585 11.91876990433474
3.899735232150885 10.16226858855371 14.16951202078918
-0.9954818056051791 -10.22920517479757 21.88605669909299
2.76310166827729 -9.8513478558078 22.47080313894162
-4.990185696266556 -9.94101287081771 11.14073637672548
-1.84588623745506 -8.787155483135971 38.38618284966641
1.886655669594991 -8.730264915261001 38.98521729892652
0.5410721387641145 -9.19155967954128 35.48244093734903
4.145568396504175 -8.175410302439332 36.00417561042057
2.950023836117683 -8.967850568601888 32.52022265272029
4.329004523104911 10.31183016319619 10.3726567507444
-8.270089244682614 7.295942834354392 12.34560694739109
-6.049435113366516 5.687507062443022 46.97208990597355
-5.428992488725052 7.03404349020901 39.57374848427829
-5.069747270990484 7.650882504657127 35.85507093009757
0.3716413363293406 -9.991023053004692 25.43867659330661
4.03324073990422 -9.10171135749216 25.98026041611122
5.982174370457127 -9.213810336214477 12.89073336617302
-8.926368026854707 4.161145818476097 27.33596197948327
-6.300501365310152 4.950362650008269 50.66420613310064
7.040122809903528 -8.070831683644185 16.39245551701516
2.198198588283567 -7.8478450458308 48.92025326624263
-0.818829390046811 -9.449261608988049 31.96025675374488
6.127522425289398 -8.146239110412097 22.95357159022817
7.111026085164046 -6.91872385323758 26.41031431670672
-7.549656475177702 5.042850996587743 37.11523124733927
-7.326574321198529 5.841928717013131 33.41059098966979
-7.822159920924947 2.486719779780418 48.18293683301264
1.358780479410735 11.28171290610576 8.090742999016728
6.9743612106411 8.525011746845724 12.52292840378263
6.562798032367787 8.468744823356717 16.34008388346227
3.12887778423924 7.735123082254223 46.45413632038139
2.099714689986831 7.76263522904963 50.2962590626429
5.010368951176321 -7.349413351349717 39.45515938593602
4.238420680522895 -7.258454086765489 45.67476929793043
4.927156738061048 -10.12718793168021 9.374829603413234
7.724279739093391 -8.149610525596739 9.802023923998254
1.18047787897672 -11.24083036530029 8.860729036336826
7.054616888814406 -5.803062735154809 36.40680156443097
-7.699837697730925 1.860065299637516 51.82451670827017
-0.3428510874283264 -7.913562912141503 51.82878249784659
-3.944806773720175 -6.927426028780874 51.18222809141462
7.486268535548584 8.468753366001522 8.852744863905293
3.371503342409563 -7.109057526627939 52.50178789568257
-8.125011275598029 7.883979281285977 8.62308171730044
-10.11000936921544 4.877092686233505 9.848611831787444
-5.113443496053126 10.22772513755488 7.182094268399173
-3.620614168645694 6.929570663550996 53.13192608227502
-5.230911528343735 5.427046204952969 56.70029261565299
-0.2764209289121197 7.800613248103184 53.2960574809453
1.816579166018117 7.315415645173059 56.70029261565298
5.056856414803113 -8.25682881401521 29.44911456719772
-8.930218856799199 2.511631928773117 34.60284784198793
-8.827055701852084 1.696372259440271 38.2637043724431
-7.750443780389103 4.117328639882669 40.96219950033299
6.474313839368746 -9.494828380337871 6.453402192066633
3.462750173233722 10.00262008976749 17.97878608577519
6.106301992634126 8.437765608772397 20.13287634160594
8.637159890356605 6.056929124173484 18.43337847764959
-3.347328415562879 -9.475274014786958 24.78789353244688
5.007461223649528 -9.191722646706621 19.47597515781388
5.699365468849359 8.357993765545501 23.93511693780794
-0.09916712240878499 10.46296064890472 19.52396554701501
7.924862414640606 -6.788065805585174 19.89004660729208
9.385186467205346 -5.092089630097272 16.80270890408975
5.879694935561798 -7.338292386419282 32.99467694286027
3.591089673844734 7.857163136165242 42.70657147691796
1.574023060690266 -9.585579553438988 29.04698050911528
-6.66057327018513 -7.605331416609971 24.01962713802963
8.939159099780769 3.201831944745365 31.82551795508443
7.977279881142592 3.242115591876951 43.06207537169645
7.665094419861371 -3.182708045379109 47.01808378493669
8.316348186140358 -3.169789971389326 39.38979460182681
7.369208621376822 3.164237160371063 50.5728871593084
2.084659053122953 -7.243572840188674 56.70038960242871
8.753290251111043 -6.585876031353457 13.28852259924919
-5.345356727469243 -5.306229458012984 56.77310623084348
-7.315382307578586 -1.816746427087778 56.70019150813178
-6.756053512940534 -3.88099370192657 53.47496043313234
-5.760160975062185 6.378327908988004 43.27313050817536
9.103581900824111 -3.615041720446022 28.01607553126607
9.543862853863963 -3.245777242835507 24.38709715418363
-6.933981761610343 7.131347321409828 26.0900482330313
3.077099808837167 -8.092545564478401 42.46643083408075
-4.655410230908504 -9.218889078357034 21.24897190123682
9.878638670053299 3.190145935112773 20.57172976301183
10.80596429120219 3.182970038162902 9.339095714118459
-9.737677903565029 0.6240718197189725 28.49169108418937
1.522364659214954 9.277103749593383 33.02109659154956
-1.86554288413902 9.09833692790696 34.46398730650069
-8.47531414603425 6.581642965062078 16.12736313122856
10.8023983141443 -3.225268777581443 9.229724530980288
7.864792131608759 6.09146869074313 26.07425478365716
-2.223438877486215 11.01755369025533 9.660915401282498
-9.46269295849685 -0.3017439701300796 32.17842913675231
-4.901866587110449 -6.634383711985187 47.66302087526135
-10.11893052210904 4.135984518513699 13.5757483365071
-11.04570229378027 1.417778117453126 10.97408873916896
-11.1241444567196 2.647147085938113 7.181921082719397
-11.28527931994659 -1.202941436116748 8.269054296552863
-10.8656181941605 -4.046164477190875 5.151995904481852
-8.847695656744817 -7.226128440774727 7.323848781406489
-6.939772849299122 -9.217087832009843 5.875931903523104
-10.82714394051288 0.5278252840059326 14.73917086308426
-3.115497476570217 -8.715448388138109 34.87143422231924
-5.229640263152236 -7.365231261708002 37.69883132096179
5.140043580034561 5.521525034236217 56.622763737726
-10.53955916729599 -0.3407720649125348 18.48667958375673
-10.29366463588529 -3.117544686562745 15.81414988758007
-1.294949615656123 -10.99434955358659 11.81234188937588
-8.389290466434943 -0.321119267333593 45.800353531327
9.251255925413759 3.207691907416395 28.06064660747617
-7.880977765812449 -1.786091514378094 49.79768210871775
6.059667810469477 5.927271619625639 44.76950999848624
5.481403254688127 6.062833914569921 48.62213112262966
6.380574006618952 6.009592391538848 41.10333985809993
8.227613386681865 6.107958874817013 22.27411661432084
5.299283605554569 5.8321892922704 52.34759739794782
7.03759725001755 -3.185082735785535 54.32157302866641
-4.386440564869988 -8.473881615827679 31.23333834518499
-2.153039029136757 -9.526522911724529 28.37560465105431
-7.11937660538018 6.525220326616389 29.76644410247238
-8.930190779802068 3.40979617710592 31.01548930385376
-11.07844094565738 3.830840236728569 3.531291521772172
9.480167587765068 -6.459705938411934 6.711869763525177
1.131937679155929 -11.68135689486795 3.35352546334882
-7.796539518917633 3.355283378519763 44.62582945454445
-6.433942319861685 9.815429035037143 3.351966923415254
4.488214955899196 10.84588135477766 3.330881111054233
0.8062451548362479 11.71199868361771 3.307214945615138
-4.771250776723305 8.174871654646743 32.20543957768486
-1.555418112633602 9.448706246322631 30.80143305507157
5.4448706571658 -6.018579708373646 49.35053740780478
10.21241057880971 3.107581119887502 16.83883671378939
-10.82904069505969 -2.18198203907798 12.11306243704524
9.282210415544268 6.140463112173986 11.06135220984365
8.933168127854586 6.139088784240783 14.74839696370825
-2.897317330173098 -10.95486373229127 8.493764356093445
9.672386059089398 6.067501565908564 7.395621358046155
-7.899979161008796 -7.912886612018402 10.40144731209247
10.2057721168325 -5.8146822200432 3.227485356437227
-6.553293041883128 -4.68613858002691 50.1082177617571
9.914881402607806 6.29262761858319 3.263337848972882
6.055163101500312 -6.126535124299131 43.02436214200029
8.733452378570876 -2.889738086058927 35.58857690392909
7.714595251605263 -5.79890128118807 29.84658859491528
8.033773104559421 -8.594522446817265 2.990223427871836
5.100719733101596 10.26435876927348 6.837623852811777
-6.291010219034097 4.55192957170541 53.80942920959694
-9.890750823364424 5.859543213562728 6.402168421973619
-10.21710604901414 -4.624394297428699 9.975473304131066
3.430126234234681 -10.96580552141809 6.483174171299474
-0.999779040201681 11.45536490015364 6.366945536215883
-6.345277297931435 -9.923592846785066 2.810553407270798
8.116102340362756 -6.168326294787622 22.94632728978354
-3.626286406178197 -6.820466480483968 54.32470733767266
-7.721740298503523 -0.8891513320684606 53.71212352649867
2.617716920624073 7.322551546312288 53.66608476339557
5.841543164577506 -5.29052961688291 52.33430258056747
-0.7472271538335833 -11.49132970280215 6.154905767394699
6.974283203917073 2.738681650490269 57.27029496481619
6.818876782247138 -3.132958185713934 57.12498708662163
10.42125197722616 -2.306573732326239 16.85527288830041
9.520320641007455 -5.85682461970829 10.44949298632567
11.46410595137761 2.734906707860012 2.721475900470036
11.46410595137739 -2.734906707861941 2.721475900467181
-0.3276914827224287 -7.692010784311012 54.64954284913402
-4.35530711485352 -10.68030404344423 5.918646620413151
7.78819945856058 -5.172834946989592 33.67703327991393
-7.815478025073531 8.512649027717144 5.638391453980566
-1.201845431813311 7.922886912290853 50.65297819566974
6.50475915709856 -5.323754050037014 45.67107836584796
6.929792522788655 -5.480450474366254 40.21503961159589
-6.286414415877529 -9.41340704443253 8.646483565153526
-11.19151833672801 -3.853912192044479 2.077470048225951
2.633898073030535 11.25369471867767 5.618506165343842
8.007198785866892 8.272761987146408 6.185353397973196
3.221228631570296 7.928512168112965 5.617437844512302
6.555267698993135 4.528420859258392 13.12148967484375
6.755388806333396 5.617658137566788 2.719442449965966
5.85175976877396 4.485836284415043 20.66895347034831
4.056553643500125 5.087847012175357 31.67582083797753
3.206146271356327 6.963781741874068 16.94504344478809
3.192710054144628 6.310431881011558 24.4959780498831
2.975617118857886 7.71159606724036 9.329232547609596
5.728655825198607 6.167226242933822 7.402971249088624
3.028645316438561 7.367999164922305 13.13586449676969
3.136149453893471 6.01344944098695 28.18097236181926
6.205471825050589 4.508434108880722 16.89514507961966
4.607253625208042 7.485640636243005 2.67010869100921
3.042530627100857 6.711350779104538 20.72635387431179
5.757360133732087 4.1114558855321 24.46335914285846
7.147789739269419 4.097630565991612 9.669149288065622
5.538951709713629 3.904575550326085 28.24779873275822
7.591210239221313 3.953982394725762 5.600490494772716
5.180578176182942 6.257702056166078 11.13231727427257
5.64630868392764 3.186549938799366 31.97601670903203
1.788227110384666 6.228754781567541 32.01498660805476
5.559582571891623 6.586448190821718 4.838781109926446
4.977024814476729 6.05571221954321 14.75797779514834
2.408393134368636 8.470556888785325 2.461356482953272
8.093634985529638 3.496108414056751 2.332288214676743
-0.1188231711636085 1.5 3.384678643483211
4.44031961623246 1.5 13.17901539633477
-3.67465005764582 1.5 20.50649130255018
-3.174917723951797 1.5 28.37944150510495
-4.84751751415876 1.5 9.182883998860271
3.76011782391342 1.5 24.50655573903935
1.510181588874245 1.5 31.30220857225409
5.567342126689675 1.5 5.451930149788049
-4.049631753771802 1.5 3.551521903789959
-1.882892635684177 1.5 7.299246393199735
3.282385632900746 1.5 28.40467504842784
0.3266036286802532 1.5 25.92672490520118
0.5613227889909354 1.5 22.09568242745874
-3.295712960805469 1.5 24.33668778401324
-0.4763769238792488 1.5 18.24771962463969
3.196067300683111 1.5 18.98986364375466
-4.052477392805333 1.5 16.69619691269664
-1.152707236795804 1.5 14.6878301519931
4.861031143904374 1.5 9.163808321595873
1.499086480510179 1.5 10.32205243931247
-4.591730019677636 1.5 12.93910892958107
-1.485478557669918 1.5 31.35195578367495
2.245898635686031 1.5 6.378300712410532
2.10464994157452 1.5 16.16425736355061
3.515521901249588 1.5 2.867580681866398
-1.644074114695366 1.5 11.12135551551701
0.09175491376670308 1.5 29.07300116293261
4.953695217704698 1.5 16.46678256881994
-4.065043495865437 1.5 31.59076025696001
4.091477683896091 1.5 31.58585752334042
-5.599164036643298 1.5 6.391107616274991
6.217515751901576 1.5 2.517356236994704
1.424700684393946 1.5 13.3485910557796
4.470688549589347 1.5 21.6237673955769
-3.22122863157035 7.928512168112945 5.617437844512293
-6.661125746908406 4.370173815097082 13.12875795170888
-6.755388806333396 5.617658137566789 2.719442449965965
-5.85175976877391 4.485836284415108 20.66895347034829
-4.021648599465571 5.121680011931617 31.61389630349797
-3.206146271354342 6.963781741874902 16.94504344478902
-3.192710054143522 6.310431881012073 24.49597804988361
-3.182988919257904 7.628068843154321 9.332428761850268
-5.863850021834065 6.043319388404478 7.362018822100399
-3.230594591101744 7.286539797651256 13.0798155574747
-3.136149453897263 6.013449440985299 28.18097236181559
-6.205471825050568 4.508434108880752 16.89514507961967
-4.601301068454116 7.492917803381141 2.63095044680081
-3.042530627098782 6.711350779105396 20.72635387431275
-5.757360133730426 4.111455885534571 24.46335914285739
-7.158149203328783 4.077157049399256 9.683928284060366
-7.47521570247261 4.163028153963096 5.638200782986343
-5.538951709713943 3.904575550325732 28.24779873275755
-5.16819608404074 6.273968572077025 11.07312904066125
-5.647872770197418 3.181064679506302 31.99293436806702
-2.105768954168605 6.140559559976391 31.87237702163369
-5.515892424412153 6.625472744009637 4.815417752085154
-4.968513214482048 6.049710365979791 14.88555677073237
-2.455688208845948 8.463544147023867 2.381095657687203
-8.07462722424517 3.524508057789001 2.410096071287562
-3.701498499457172 0.7003160221705068 60
3.851738121937664 -0.931509262873081 60
-1.119158375460275 -3.801457693759516 60
1.269397997940749 3.570264453056938 60
2.100948066511433 -3.638948795261449 60
0.6201842895985421 -1.130840590299121 60
-1.762894954313782 -1.284003716926086 60
-3.967207069091672 -2.387823063885131 60
1.906222097854563 0.8343620008315338 60
4.041174800508617 2.235818364301867 60
-0.7050019238897451 1.138717118726257 60
-2.179815903366991 3.771498029878741 60
0.8825735481267006 3.912070983981485 34
-1.561672032958426 3.532025077437782 34
2.893563090938041 3.77903669848594 34
-0.3610326275883738 -8.881784197001252e-16 42.17949177519746
0.5246755264409328 0.3350566803778547 52.90059838570973
2.932794367935891 2.635614456630485 39.09755950104181
-2.004654884127953 -1.398754141995425 47.76136575163378
2.67806507516265 -2.74686048612589 39.01105243472453
-4.07603981892554 -8.215650382226158e-15 38.73421493313465
1.897948180128322 2.350730978168024 46.64191212195174
-1.581660119924029 4.031551909190178 38.71442530214653
2.352889863438401 -2.520049687772425 45.55531067220141
-1.798901763508288 -4.10169350407498 38.63703925946241
-1.778693991615293 -2.62907540586125 55.5852880714453
-2.534742024516143 3.097757984287684 45.07017307291566
-0.09649916010631986 2.220446049250313e-16 37.80107613498011
4.168636342988139 0.7872180861566549 43.04580941915081
0.7345575269342559 4.496510206804389 42.44799909773351
-0.9019453877559473 -4.364965254596378 43.01545156305277
-1.898530167880634 2.887397806974271 49.74762747582937
3.734250461994318 -0.6869754264099583 49.47213345595683
3.369322616750334 0.4916521623208275 56.03769920416193
-2.353264180879995 1.944870632165471 55.92156547900326
-4.308833711927605 -0.8258034623331776 44.01827790395711
0.7187254455656615 -3.869036549408825 50.28261239401118
3.798085578839328 4.836966361340497 36.90751052988924
-3.692297264733545 -0.6321736389031382 51.8178394098021
4.607758027762492 -1.332267629550188e-14 37.05322884991384
-4.08660867592188 2.807480998094126 41.47688260544029
2.241620297676647 -3.247732390980954 54.38474482610405
2.168063412343488 3.534907571356591 50.68714499029873

CELLS 3270 14852
1 0
1 1
1 2
1 3
1 4
1 5
1 6
1 7
1 8
1 9
1 10
1 11
2 0 12
2 12 13
2 13 14
2 14 15
2 15 16
2 16 17
2 17 1
2 0 18
2 18 19
2 19 20
2 20 21
2 21 1
2 2 22
2 22 23
2 23 24
2 24 25
2 25 26
2 26 27
2 27 28
2 28 29
2 29 0
2 2 30
2 30 31
2 31 32
2 32 33
2 33 3
2 1 34
2 34 35
2 35 36
2 36 37
2 37 38
2 38 39
2 39 40
2 40 41
2 41 3
2 2 42
2 42 43
2 43 44
2 44 3
2 4 45
2 45 46
2 46 47
2 47 48
2 48 49
2 49 50
2 50 51
2 51 52
2 52 53
2 53 54
2 54 55
2 55 56
2 56 57
2 57 58
2 58 59
2 59 60
2 60 61
2 61 62
2 62 4
2 5 63
2 63 64
2 64 65
2 65 6
2 5 66
2 66 67
2 67 68
2 68 69
2 69 7
2 6 70
2 70 71
2 71 72
2 72 7
2 8 73
2 73 74
2 74 75
2 75 76
2 76 77
2 77 78
2 78 79
2 79 80
2 80 81
2 81 82
2 82 83
2 83 8
2 4 84
2 84 85
2 85 86
2 86 87
2 87 88
2 88 89
2 89 90
2 90 91
2 91 92
2 92 93
2 93 94
2 94 95
2 95 96
2 96 97
2 97 98
2 98 8
2 9 99
2 99 100
2 100 101
2 101 102
2 102 103
2 103 104
2 104 105
2 105 106
2 106 5
2 9 107
2 107 108
2 108 10
2 6 109
2 109 110
2 110 111
2 111 112
2 112 113
2 113 114
2 114 115
2 115 116
2 116 10
2 7 117
2 117 118
2 118 119
2 119 120
2 120 121
2 121 122
2 122 123
2 123 124
2 124 11
2 9 125
2 125 126
2 126 127
2 127 11
2 10 128
2 128 129
2 129 11
3 12 176 0
3 0 176 29
3 1 179 17
3 34 179 1
3 22 177 2
3 2 177 30
3 33 174 3
3 3 174 41
3 13 164 12
3 164 176 12
3 14 173 13
3 13 173 164
3 15 130 14
3 130 173 14
3 16 167 15
3 15 167 130
3 17 138 16
3 138 167 16
3 17 179 138
3 23 139 22
3 139 177 22
3 24 144 23
3 23 144 139
3 25 132 24
3 132 144 24
3 26 163 25
3 25 163 132
3 27 131 26
3 131 163 26
3 28 158 27
3 27 158 131
3 29 137 28
3 137 158 28
3 29 176 137
3 30 140 31
3 30 177 140
3 31 133 32
3 31 140 133
3 32 156 33
3 133 156 32
3 156 174 33
3 35 168 34
3 168 179 34
3 36 136 35
3 136 168 35
3 37 162 36
3 36 162 136
3 38 134 37
3 134 162 37
3 39 166 38
3 38 166 134
3 40 135 39
3 135 166 39
3 41 157 40
3 40 157 135
3 41 174 157
3 130 167 155
3 155 169 130
3 169 173 130
3 158 160 131
3 160 161 131
3 161 163 131
3 132 145 144
3 132 146 145
3 132 163 146
3 140 141 133
3 141 142 133
3 142 156 133
3 134 166 149
3 149 175 134
3 134 175 162
3 154 166 135
3 135 171 154
3 157 171 135
3 162 170 136
3 165 168 136
3 136 170 165
3 137 159 158
3 137 164 159
3 137 176 164
3 138 178 167
3 168 178 138
3 138 179 168
3 139 141 140
3 140 177 139
3 139 172 141
3 144 172 139
3 141 143 142
3 141 172 143
3 143 171 142
3 142 157 156
3 142 171 157
3 143 172 145
3 145 180 143
3 143 180 171
3 145 172 144
3 146 147 145
3 147 180 145
3 146 148 147
3 146 161 148
3 146 163 161
3 148 149 147
3 149 154 147
3 154 180 147
3 148 150 149
3 148 151 150
3 148 161 151
3 150 175 149
3 149 166 154
3 151 152 150
3 152 170 150
3 170 175 150
3 151 153 152
3 151 160 153
3 151 161 160
3 153 155 152
3 155 165 152
3 165 170 152
3 153 169 155
3 153 160 159
3 159 169 153
3 171 180 154
3 155 178 165
3 167 178 155
3 157 174 156
3 159 160 158
3 164 169 159
3 162 175 170
3 164 173 169
3 165 178 168
3 0 213 18
3 29 213 0
3 1 21 34
3 2 210 22
3 42 210 2
3 41 211 3
3 3 211 44
3 18 205 19
3 18 213 205
3 19 181 20
3 19 205 181
3 20 189 21
3 181 189 20
3 21 189 34
3 22 184 23
3 22 210 184
3 23 192 24
3 184 192 23
3 24 187 25
3 24 192 187
3 25 202 26
3 187 202 25
3 26 182 27
3 26 202 182
3 27 197 28
3 182 197 27
3 28 188 29
3 28 197 188
3 188 213 29
3 34 212 35
3 189 212 34
3 35 185 36
3 35 212 185
3 36 206 37
3 185 206 36
3 37 208 38
3 206 208 37
3 38 183 39
3 38 208 183
3 39 196 40
3 183 196 39
3 40 191 41
3 40 196 191
3 191 211 41
3 43 203 42
3 203 210 42
3 44 186 43
3 186 203 43
3 44 211 186
3 181 190 189
3 181 204 190
3 181 205 204
3 182 198 197
3 182 199 198
3 182 202 199
3 183 214 196
3 183 208 201
3 201 214 183
3 184 195 192
3 184 207 195
3 203 207 184
3 184 210 203
3 190 209 185
3 185 212 190
3 200 206 185
3 185 209 200
3 191 207 186
3 186 211 191
3 186 207 203
3 192 193 187
3 193 194 187
3 194 202 187
3 197 204 188
3 204 205 188
3 205 213 188
3 190 212 189
3 204 209 190
3 191 196 195
3 195 207 191
3 192 195 193
3 193 214 194
3 195 196 193
3 196 214 193
3 194 201 199
3 199 202 194
3 194 214 201
3 198 204 197
3 199 200 198
3 200 209 198
3 198 209 204
3 199 201 200
3 201 206 200
3 201 208 206
3 42 2 30
3 33 3 44
3 31 215 30
3 30 215 42
3 32 215 31
3 33 216 32
3 32 216 215
3 44 216 33
3 42 215 43
3 43 216 44
3 215 216 43
3 7 218 0
3 0 223 7
3 12 225 0
3 0 218 18
3 54 223 0
3 0 225 54
3 4 1 5
3 62 1 4
3 1 219 5
3 17 1 62
3 21 219 1
3 45 4 5
3 5 63 45
3 5 219 66
3 49 48 6
3 6 48 65
3 70 49 6
3 7 223 53
3 53 224 7
3 69 218 7
3 7 224 72
3 12 13 56
3 55 12 56
3 55 225 12
3 13 14 57
3 56 13 57
3 14 15 58
3 57 14 58
3 16 217 15
3 58 15 59
3 15 217 59
3 17 227 16
3 60 217 16
3 16 227 60
3 62 61 17
3 61 227 17
3 18 222 19
3 18 218 69
3 69 222 18
3 19 220 20
3 68 220 19
3 19 222 68
3 20 221 21
3 20 220 67
3 67 221 20
3 66 219 21
3 21 221 66
3 45 63 46
3 47 46 64
3 46 63 64
3 48 47 65
3 65 47 64
3 50 49 70
3 50 71 51
3 70 71 50
3 51 226 52
3 71 226 51
3 52 224 53
3 72 224 52
3 52 226 72
3 53 223 54
3 54 225 55
3 59 217 60
3 60 227 61
3 66 221 67
3 67 220 68
3 68 222 69
3 72 226 71
3 45 485 4
3 4 486 62
3 4 485 84
3 84 486 4
3 8 481 73
3 83 482 8
3 98 481 8
3 8 482 98
3 46 463 45
3 463 485 45
3 47 243 46
3 243 463 46
3 48 449 47
3 47 449 243
3 49 450 48
3 48 450 449
3 50 234 49
3 234 450 49
3 51 448 50
3 50 448 234
3 52 245 51
3 245 448 51
3 53 444 52
3 52 444 245
3 54 233 53
3 233 444 53
3 55 495 54
3 54 495 233
3 56 246 55
3 246 495 55
3 57 474 56
3 56 474 246
3 58 237 57
3 237 474 57
3 59 446 58
3 58 446 237
3 60 244 59
3 244 446 59
3 61 467 60
3 60 467 244
3 62 461 61
3 461 467 61
3 62 486 461
3 73 427 74
3 73 481 427
3 74 371 75
3 74 427 371
3 75 241 76
3 75 371 241
3 76 369 77
3 241 369 76
3 77 235 78
3 77 369 235
3 78 398 79
3 235 398 78
3 79 397 80
3 79 398 397
3 80 239 81
3 80 397 239
3 81 395 82
3 239 395 81
3 82 249 83
3 82 395 249
3 249 482 83
3 85 248 84
3 84 250 85
3 248 486 84
3 84 485 250
3 85 407 86
3 86 412 85
3 85 412 248
3 250 407 85
3 86 238 87
3 87 240 86
3 86 407 238
3 240 412 86
3 87 454 88
3 88 483 87
3 238 454 87
3 87 483 240
3 89 231 88
3 88 406 89
3 231 483 88
3 88 454 406
3 89 230 90
3 90 402 89
3 89 406 230
3 89 402 231
3 91 401 90
3 90 432 91
3 230 432 90
3 401 402 90
3 92 228 91
3 91 390 92
3 228 401 91
3 91 432 390
3 92 229 93
3 93 465 92
3 92 465 228
3 92 390 229
3 93 251 94
3 94 393 93
3 229 251 93
3 393 465 93
3 95 232 94
3 94 391 95
3 232 393 94
3 251 391 94
3 95 236 96
3 96 392 95
3 95 392 232
3 95 391 236
3 97 242 96
3 96 394 97
3 236 394 96
3 242 392 96
3 97 247 98
3 98 439 97
3 97 439 242
3 97 394 247
3 247 481 98
3 98 482 439
3 228 466 401
3 465 489 228
3 228 489 466
3 229 252 251
3 229 253 252
3 229 390 253
3 406 437 230
3 413 432 230
3 230 437 413
3 384 385 231
3 231 475 384
3 385 483 231
3 402 475 231
3 392 492 232
3 232 493 393
3 232 492 464
3 464 493 232
3 233 420 419
3 419 444 233
3 233 421 420
3 233 495 421
3 234 448 367
3 367 473 234
3 234 473 450
3 235 469 360
3 360 477 235
3 369 469 235
3 235 477 398
3 391 434 236
3 236 435 394
3 434 435 236
3 446 480 237
3 237 488 474
3 480 488 237
3 407 456 238
3 238 457 454
3 456 457 238
3 239 487 395
3 397 476 239
3 476 487 239
3 385 396 240
3 240 483 385
3 396 484 240
3 240 484 412
3 368 369 241
3 241 370 368
3 241 371 370
3 242 453 392
3 439 479 242
3 242 479 453
3 449 468 243
3 243 497 463
3 468 497 243
3 244 467 376
3 376 472 244
3 244 472 446
3 444 470 245
3 245 490 448
3 470 490 245
3 246 422 421
3 421 495 246
3 246 423 422
3 246 474 423
3 394 438 247
3 247 438 427
3 427 481 247
3 412 445 248
3 445 461 248
3 461 486 248
3 249 395 364
3 364 479 249
3 249 479 439
3 439 482 249
3 250 459 407
3 250 463 459
3 250 485 463
3 252 436 251
3 251 436 391
3 253 254 252
3 254 255 252
3 255 436 252
3 253 256 254
3 253 257 256
3 253 390 257
3 254 295 255
3 256 409 254
3 254 409 295
3 295 296 255
3 296 387 255
3 387 436 255
3 257 258 256
3 258 259 256
3 259 409 256
3 257 413 258
3 390 432 257
3 257 432 413
3 258 260 259
3 258 382 260
3 258 413 382
3 260 261 259
3 261 452 259
3 259 452 409
3 260 262 261
3 260 294 262
3 260 382 294
3 262 263 261
3 263 264 261
3 264 452 261
3 262 265 263
3 262 383 265
3 294 383 262
3 263 403 264
3 265 266 263
3 266 403 263
3 403 442 264
3 442 451 264
3 451 452 264
3 265 267 266
3 265 279 267
3 265 383 279
3 267 268 266
3 268 269 266
3 269 403 266
3 267 411 268
3 279 299 267
3 299 411 267
3 268 270 269
3 268 290 270
3 268 411 290
3 270 271 269
3 271 339 269
3 339 403 269
3 270 272 271
3 270 428 272
3 290 428 270
3 272 273 271
3 273 408 271
3 271 408 339
3 272 274 273
3 272 277 274
3 272 428 277
3 274 275 273
3 275 276 273
3 276 408 273
3 274 389 275
3 277 278 274
3 278 389 274
3 275 280 276
3 275 284 280
3 275 389 284
3 280 281 276
3 281 415 276
3 276 415 408
3 277 292 278
3 277 429 292
3 428 429 277
3 292 293 278
3 293 405 278
3 278 405 389
3 279 307 299
3 279 320 307
3 279 383 320
3 280 282 281
3 280 440 282
3 284 440 280
3 282 283 281
3 283 285 281
3 285 415 281
3 282 426 283
3 425 426 282
3 282 440 425
3 283 286 285
3 283 287 286
3 283 426 287
3 284 389 380
3 380 441 284
3 284 441 440
3 286 374 285
3 285 374 373
3 373 415 285
3 287 288 286
3 288 291 286
3 291 374 286
3 287 289 288
3 287 297 289
3 287 426 297
3 289 300 288
3 288 431 291
3 300 431 288
3 297 298 289
3 298 416 289
3 289 416 300
3 411 417 290
3 417 424 290
3 424 428 290
3 291 375 374
3 291 447 375
3 431 447 291
3 292 301 293
3 292 305 301
3 292 429 305
3 301 302 293
3 302 303 293
3 303 405 293
3 294 378 377
3 377 383 294
3 294 382 378
3 295 306 296
3 295 410 306
3 409 410 295
3 306 311 296
3 311 312 296
3 312 387 296
3 297 309 298
3 297 326 309
3 297 426 326
3 309 315 298
3 315 319 298
3 319 416 298
3 307 318 299
3 318 332 299
3 332 411 299
3 416 462 300
3 300 433 431
3 300 462 433
3 301 325 302
3 305 460 301
3 301 460 325
3 302 304 303
3 302 430 304
3 325 430 302
3 304 308 303
3 308 323 303
3 323 405 303
3 304 310 308
3 304 316 310
3 304 430 316
3 429 455 305
3 455 471 305
3 305 471 460
3 306 334 311
3 306 335 334
3 306 410 335
3 307 414 318
3 320 321 307
3 321 414 307
3 310 381 308
3 308 324 323
3 308 381 324
3 309 404 315
3 326 327 309
3 327 404 309
3 316 338 310
3 338 341 310
3 341 381 310
3 311 313 312
3 311 400 313
3 334 400 311
3 313 314 312
3 314 352 312
3 352 387 312
3 313 317 314
3 313 333 317
3 313 400 333
3 317 491 314
3 314 353 352
3 314 491 353
3 315 342 319
3 315 355 342
3 315 404 355
3 316 356 338
3 316 358 356
3 316 430 358
3 333 340 317
3 340 368 317
3 368 491 317
3 318 365 332
3 318 367 365
3 318 414 367
3 342 361 319
3 361 362 319
3 362 416 319
3 320 322 321
3 320 377 322
3 320 383 377
3 322 331 321
3 331 349 321
3 349 414 321
3 322 350 331
3 322 351 350
3 322 377 351
3 324 336 323
3 336 380 323
3 380 405 323
3 324 337 336
3 324 344 337
3 324 381 344
3 325 458 430
3 325 494 458
3 460 494 325
3 326 328 327
3 326 425 328
3 326 426 425
3 328 329 327
3 329 354 327
3 354 404 327
3 328 330 329
3 328 343 330
3 328 425 343
3 330 386 329
3 329 359 354
3 329 386 359
3 343 388 330
3 372 386 330
3 330 388 372
3 331 468 349
3 350 363 331
3 363 468 331
3 365 366 332
3 366 417 332
3 332 417 411
3 333 348 340
3 333 447 348
3 400 447 333
3 335 346 334
3 346 375 334
3 375 400 334
3 335 347 346
3 335 451 347
3 410 451 335
3 337 388 336
3 336 441 380
3 388 441 336
3 344 345 337
3 345 372 337
3 372 388 337
3 338 396 341
3 356 357 338
3 357 396 338
3 339 442 403
3 408 443 339
3 339 443 442
3 348 360 340
3 360 469 340
3 340 469 368
3 341 384 381
3 341 385 384
3 341 396 385
3 355 453 342
3 342 364 361
3 342 453 364
3 343 441 388
3 425 440 343
3 440 441 343
3 344 475 345
3 381 384 344
3 384 475 344
3 345 466 372
3 345 402 401
3 401 466 345
3 345 475 402
3 347 373 346
3 373 374 346
3 374 375 346
3 347 443 373
3 442 443 347
3 347 451 442
3 348 433 360
3 431 433 348
3 348 447 431
3 349 473 414
3 468 496 349
3 349 496 473
3 351 457 350
3 350 456 363
3 350 457 456
3 377 378 351
3 378 379 351
3 379 457 351
3 353 435 352
3 352 434 387
3 352 435 434
3 370 478 353
3 353 491 370
3 353 438 435
3 353 478 438
3 359 493 354
3 354 464 404
3 354 493 464
3 404 464 355
3 355 492 453
3 464 492 355
3 356 376 357
3 358 472 356
3 356 472 376
3 376 445 357
3 357 484 396
3 445 484 357
3 430 458 358
3 458 480 358
3 358 480 472
3 386 489 359
3 359 465 393
3 393 493 359
3 359 489 465
3 433 477 360
3 361 476 362
3 364 487 361
3 361 487 476
3 399 462 362
3 362 476 399
3 362 462 416
3 456 459 363
3 459 497 363
3 363 497 468
3 395 487 364
3 453 479 364
3 365 470 366
3 367 490 365
3 365 490 470
3 366 418 417
3 366 419 418
3 366 470 419
3 414 473 367
3 448 490 367
3 368 469 369
3 370 491 368
3 371 478 370
3 427 478 371
3 372 466 386
3 373 443 415
3 375 447 400
3 376 467 445
3 378 437 379
3 382 437 378
3 379 437 406
3 406 454 379
3 454 457 379
3 389 405 380
3 413 437 382
3 466 489 386
3 434 436 387
3 391 436 434
3 453 492 392
3 435 438 394
3 398 399 397
3 399 476 397
3 398 477 399
3 433 462 399
3 399 477 433
3 407 459 456
3 415 443 408
3 409 452 410
3 410 452 451
3 412 484 445
3 418 424 417
3 419 420 418
3 420 455 418
3 418 455 424
3 419 470 444
3 421 471 420
3 420 471 455
3 422 471 421
3 423 494 422
3 460 471 422
3 422 494 460
3 474 488 423
3 488 494 423
3 424 429 428
3 424 455 429
3 438 478 427
3 445 467 461
3 472 480 446
3 450 496 449
3 449 496 468
3 473 496 450
3 458 488 480
3 458 494 488
3 463 497 459
3 63 5 522
3 5 106 522
3 6 65 521
3 109 6 521
3 99 9 517
3 9 107 517
3 108 10 518
3 10 116 518
3 64 63 500
3 500 63 522
3 65 64 510
3 64 500 510
3 65 510 521
3 100 99 514
3 514 99 517
3 101 100 512
3 512 100 514
3 102 101 501
3 501 101 512
3 103 102 509
3 102 501 509
3 104 103 499
3 499 103 509
3 105 104 513
3 104 499 513
3 106 105 515
3 105 513 515
3 106 515 522
3 107 108 502
3 107 502 517
3 502 108 518
3 110 109 498
3 498 109 521
3 111 110 505
3 110 498 505
3 112 111 507
3 111 505 507
3 113 112 503
3 503 112 507
3 114 113 511
3 113 503 511
3 115 114 504
3 504 114 511
3 116 115 508
3 115 504 508
3 116 508 518
3 505 498 506
3 506 498 519
3 498 510 519
3 510 498 521
3 499 509 520
3 513 499 516
3 516 499 520
3 510 500 519
3 500 515 519
3 515 500 522
3 501 503 509
3 503 501 511
3 501 504 511
3 504 501 512
3 502 508 514
3 508 502 518
3 502 514 517
3 503 507 520
3 509 503 520
3 508 504 512
3 505 506 516
3 507 505 516
3 513 506 515
3 506 513 516
3 515 506 519
3 507 516 520
3 508 512 514
3 5 66 554
3 106 5 554
3 7 117 69
3 9 99 552
3 125 9 552
3 124 11 551
3 11 127 551
3 66 67 547
3 66 547 554
3 67 68 523
3 67 523 547
3 68 69 531
3 523 68 531
3 69 117 531
3 99 100 533
3 99 533 552
3 100 101 528
3 100 528 533
3 101 102 556
3 528 101 556
3 102 103 550
3 538 102 550
3 102 538 556
3 103 104 524
3 103 524 550
3 104 105 541
3 524 104 541
3 105 106 530
3 105 530 541
3 530 106 554
3 117 118 553
3 531 117 553
3 118 119 527
3 118 527 553
3 119 120 543
3 527 119 543
3 120 121 539
3 120 539 543
3 121 122 525
3 121 525 539
3 122 123 536
3 525 122 536
3 123 124 526
3 123 526 536
3 526 124 551
3 126 125 529
3 529 125 552
3 127 126 544
3 126 529 544
3 127 544 551
3 523 531 532
3 523 532 545
3 523 545 547
3 524 541 542
3 524 542 555
3 524 546 550
3 546 524 555
3 535 525 536
3 525 535 537
3 525 537 539
3 526 534 536
3 534 526 549
3 526 544 549
3 544 526 551
3 532 527 548
3 527 532 553
3 527 543 548
3 533 528 534
3 534 528 535
3 535 528 556
3 529 533 549
3 533 529 552
3 544 529 549
3 541 530 545
3 545 530 547
3 547 530 554
3 532 531 553
3 532 542 545
3 542 532 548
3 533 534 549
3 534 535 536
3 537 535 538
3 538 535 556
3 537 538 546
3 539 537 540
3 540 537 546
3 546 538 550
3 539 540 543
3 543 540 548
3 540 546 555
3 548 540 555
3 542 541 545
3 542 548 555
3 70 6 580
3 6 109 580
3 7 72 581
3 117 7 581
3 116 10 577
3 10 128 577
3 11 124 576
3 129 11 576
3 71 70 569
3 569 70 580
3 72 71 559
3 559 71 569
3 72 559 581
3 109 110 557
3 109 557 580
3 110 111 564
3 557 110 564
3 111 112 566
3 564 111 566
3 112 113 562
3 112 562 566
3 113 114 570
3 562 113 570
3 114 115 563
3 114 563 570
3 115 116 567
3 563 115 567
3 567 116 577
3 118 117 573
3 573 117 581
3 119 118 572
3 572 118 573
3 120 119 558
3 558 119 572
3 121 120 568
3 120 558 568
3 122 121 560
3 560 121 568
3 123 122 571
3 122 560 571
3 124 123 574
3 123 571 574
3 124 574 576
3 128 129 561
3 128 561 577
3 561 129 576
3 557 564 565
3 557 565 578
3 569 557 578
3 557 569 580
3 568 558 579
3 558 572 575
3 558 575 579
3 559 569 578
3 573 559 578
3 559 573 581
3 562 560 568
3 560 562 570
3 563 560 570
3 560 563 571
3 567 561 574
3 561 567 577
3 574 561 576
3 566 562 579
3 562 568 579
3 563 567 571
3 565 564 575
3 564 566 575
3 565 572 573
3 572 565 575
3 565 573 578
3 575 566 579
3 571 567 574
3 73 591 8
3 8 583 83
3 8 591 583
3 74 591 73
3 75 585 74
3 585 591 74
3 76 593 75
3 75 593 585
3 77 593 76
3 78 582 77
3 582 593 77
3 79 589 78
3 78 589 582
3 80 589 79
3 81 584 80
3 584 589 80
3 82 586 81
3 81 586 584
3 83 586 82
3 583 586 83
3 582 589 588
3 588 592 582
3 592 593 582
3 583 587 586
3 583 590 587
3 583 591 590
3 586 587 584
3 587 588 584
3 588 589 584
3 590 591 585
3 585 592 590
3 585 593 592
3 587 592 588
3 590 592 587
3 125 107 9
3 10 108 594
3 128 10 595
3 10 594 595
3 11 129 127
3 108 107 596
3 107 125 596
3 594 108 596
3 125 126 594
3 125 594 596
3 126 127 595
3 594 126 595
3 127 129 595
3 129 128 595
4 371 598 615 616
4 371 598 478 615
4 404 605 601 612
4 464 601 404 605
4 319 600 605 612
4 319 605 315 612
4 371 615 585 616
4 287 606 602 617
4 287 612 606 617
4 592 590 587 615
4 371 478 598 616
4 585 590 592 615
4 416 319 298 612
4 247 97 615 624
4 319 605 600 618
4 599 604 296 619
4 289 416 612 617
4 32 327 601 606
4 416 600 319 612
4 614 615 97 624
4 370 478 616 624
4 600 612 416 617
4 404 601 327 612
4 478 615 598 624
4 255 599 296 619
4 127 129 602 604
4 601 606 327 612
4 30 602 283 606
4 32 601 216 606
4 129 346 602 604
4 315 605 319 618
4 371 370 478 616
4 42 602 30 606
4 598 616 478 624
4 370 616 613 624
4 289 612 287 617
4 592 615 587 616
4 603 608 314 611
4 296 604 599 611
4 2 30 42 602
4 296 604 295 619
4 232 601 605 610
4 371 478 427 615
4 327 329 32 601
4 2 283 30 602
4 255 296 599 611
4 368 613 370 616
4 232 601 464 605
4 613 616 598 624
4 335 129 128 604
4 287 283 602 606
4 300 416 289 617
4 327 32 328 606
4 31 328 32 606
4 247 394 97 624
4 309 327 606 612
4 33 216 32 601
4 602 606 597 617
4 300 600 416 617
4 404 327 309 612
4 236 603 610 614
4 32 329 33 601
4 370 371 241 616
4 606 612 597 617
4 97 615 614 623
4 127 129 11 602
4 342 605 315 618
4 11 129 346 602
4 348 608 600 617
4 255 296 295 619
4 427 615 478 624
4 297 606 287 612
4 371 427 585 615
4 394 614 97 624
4 295 604 10 619
4 427 438 615 624
4 436 599 610 611
4 10 604 594 619
4 346 602 604 622
4 598 615 614 624
4 289 416 298 612
4 587 615 607 616
4 597 605 601 610
4 601 605 597 612
4 600 608 348 613
4 314 608 603 613
4 599 604 594 609
4 216 606 601 609
4 342 315 319 618
4 436 610 434 611
4 216 44 43 609
4 326 328 31 606
4 289 297 287 612
4 327 328 326 606
4 594 604 599 619
4 585 615 592 616
4 319 315 298 612
4 393 601 232 610
4 127 595 129 604
4 32 216 215 606
4 439 615 97 623
4 346 129 335 604
4 438 247 615 624
4 236 610 95 614
4 319 600 416 618
4 595 128 129 604
4 359 33 601 621
4 585 241 371 616
4 599 94 610 621
4 427 438 247 615
4 439 97 614 623
4 329 359 33 601
4 354 327 404 601
4 287 283 286 602
4 354 329 327 601
4 434 610 603 611
4 215 43 42 609
4 391 599 251 610
4 289 287 288 617
4 603 613 600 614
4 600 613 348 620
4 255 599 387 611
4 464 354 404 601
4 94 599 251 621
4 436 599 391 610
4 127 126 595 609
4 427 478 438 624
4 30 283 426 606
4 436 387 599 611
4 391 436 251 599
4 348 600 431 617
4 317 313 314 608
4 300 431 600 617
4 469 613 616 620
4 255 436 387 599
4 251 599 94 610
4 128 10 306 604
4 216 601 44 609
4 368 469 613 616
4 394 603 236 614
4 127 604 602 609
4 597 601 599 610
4 317 608 314 613
4 462 362 600 620
4 127 595 604 609
4 236 95 96 614
4 598 600 613 614
4 605 610 603 614
4 600 603 597 608
4 215 31 32 606
4 597 603 600 605
4 314 613 603 624
4 404 355 605 612
4 599 610 601 621
4 404 315 355 612
4 229 251 619 621
4 607 618 362 620
4 394 603 614 624
4 44 216 33 601
4 285 283 2 602
4 436 434 387 611
4 462 362 416 600
4 599 619 251 621
4 434 603 352 611
4 300 462 416 600
4 287 426 283 606
4 286 602 291 617
4 398 616 607 620
4 394 435 236 603
4 607 615 587 623
4 315 605 355 612
4 314 603 352 624
4 128 306 335 604
4 602 606 42 609
4 599 601 597 609
4 346 604 334 622
4 359 601 393 621
4 311 611 608 622
4 44 601 33 621
4 346 374 11 602
4 342 355 315 605
4 362 618 600 620
4 416 600 362 618
4 404 355 464 605
4 329 354 359 601
4 613 614 603 624
4 433 600 348 620
4 394 435 603 624
4 597 605 600 612
4 614 615 598 623
4 439 97 242 614
4 346 374 602 622
4 126 43 44 609
4 582 607 398 616
4 127 602 42 609
4 348 447 608 617
4 241 585 593 616
4 433 300 431 600
4 232 493 464 601
4 288 286 291 617
4 398 582 589 607
4 348 433 431 600
4 319 416 362 618
4 215 42 606 609
4 370 241 368 616
4 30 426 31 606
4 346 335 334 604
4 393 493 232 601
4 597 612 600 617
4 286 283 285 602
4 42 127 11 602
4 311 313 608 611
4 601 597 606 612
4 108 10 594 619
4 311 604 611 622
4 236 603 434 610
4 464 493 354 601
4 469 340 613 620
4 309 327 326 606
4 126 44 125 609
4 295 306 10 604
4 392 232 605 610
4 599 597 604 609
4 598 614 613 624
4 108 295 10 619
4 348 608 333 613
4 314 352 353 624
4 346 375 374 622
4 43 126 42 609
4 127 42 126 609
4 306 295 296 604
4 436 391 434 610
4 314 491 613 624
4 476 607 361 618
4 597 601 606 609
4 599 604 597 611
4 439 242 479 614
4 362 607 476 618
4 387 434 352 611
4 491 370 613 624
4 599 609 125 621
4 600 608 597 617
4 453 605 342 618
4 311 312 313 611
4 311 608 400 622
4 96 95 392 614
4 426 326 31 606
4 584 586 395 607
4 128 595 10 604
4 582 588 589 607
4 300 433 462 600
4 359 393 465 621
4 393 232 94 610
4 11 285 2 602
4 583 615 482 623
4 368 491 370 613
4 600 605 603 614
4 597 606 602 609
4 215 42 30 606
4 251 599 436 619
4 291 617 602 622
4 361 476 487 607
4 453 355 342 605
4 600 614 598 618
4 362 476 607 620
4 296 311 604 611
4 588 607 582 616
4 44 125 609 621
4 607 615 598 616
4 586 607 587 623
4 229 251 252 619
4 602 604 597 609
4 584 395 239 607
4 453 614 605 618
4 469 616 235 620
4 44 609 601 621
4 107 596 125 619
4 11 374 285 602
4 591 585 427 615
4 439 614 479 623
4 584 587 586 607
4 394 236 96 614
4 599 597 610 611
4 436 599 255 619
4 333 608 317 613
4 400 311 313 608
4 462 600 433 620
4 603 610 597 611
4 586 583 482 623
4 493 393 359 601
4 255 387 296 611
4 603 605 597 610
4 348 431 447 617
4 595 594 10 604
4 11 2 42 602
4 314 353 491 624
4 125 107 619 621
4 392 605 453 614
4 439 98 97 615
4 425 31 426 326
4 309 606 297 612
4 392 95 232 610
4 317 333 313 608
4 597 604 602 622
4 469 360 340 620
4 251 436 252 619
4 236 434 391 610
4 597 608 603 611
4 306 10 128 410
4 368 469 340 613
4 291 602 374 622
4 603 608 600 613
4 215 30 31 606
4 334 604 311 622
4 395 607 586 623
4 306 296 311 604
4 605 614 600 618
4 3 44 33 621
4 604 597 611 622
4 435 434 236 603
4 399 607 476 620
4 608 617 447 622
4 598 618 607 620
4 587 590 583 615
4 297 309 326 606
4 588 587 584 607
4 97 98 247 615
4 346 334 375 622
4 354 493 359 601
4 360 469 235 620
4 392 492 453 605
4 317 314 491 613
4 247 438 394 624
4 582 398 235 616
4 435 352 603 624
4 492 392 232 605
4 362 476 361 618
4 328 32 327 329
4 348 447 333 608
4 125 619 599 621
4 598 616 613 620
4 597 602 617 622
4 352 434 435 603
4 335 306 334 604
4 479 614 618 623
4 93 251 229 621
4 93 94 251 621
4 291 374 375 622
4 340 348 333 613
4 241 75 585 371
4 391 251 94 610
4 591 590 585 615
4 252 107 229 619
4 601 609 599 621
4 447 617 291 622
4 287 297 426 606
4 360 235 477 620
4 453 492 355 605
4 598 600 618 620
4 285 374 286 602
4 362 399 476 620
4 608 611 597 622
4 479 614 453 618
4 108 594 596 619
4 315 404 309 612
4 592 588 582 616
4 598 613 600 620
4 241 75 593 585
4 592 593 585 616
4 387 352 312 611
4 425 31 30 426
4 93 393 94 621
4 289 288 300 617
4 492 232 464 605
4 462 399 362 620
4 298 297 289 612
4 125 9 107 621
4 239 397 584 607
4 589 397 398 607
4 291 286 374 602
4 586 482 249 623
4 334 306 311 604
4 393 93 465 621
4 254 295 108 619
4 598 615 607 623
4 492 464 355 605
4 334 311 400 622
4 584 239 80 397
4 479 242 453 614
4 97 394 96 614
4 435 353 352 624
4 369 368 241 616
4 400 608 447 622
4 607 618 598 623
4 340 333 317 613
4 242 392 453 614
4 584 397 589 607
4 128 335 306 410
4 368 317 491 613
4 584 81 239 395
4 239 395 487 607
4 44 126 186 43
4 583 98 482 615
4 582 77 593 616
4 8 98 583 615
4 369 469 368 616
4 400 333 447 608
4 9 93 229 621
4 43 42 126 203
4 126 42 127 203
4 481 98 8 615
4 296 312 311 611
4 597 617 608 622
4 529 44 125 126
4 395 487 607 623
4 491 353 370 624
4 583 591 8 615
4 360 433 348 620
4 593 77 369 616
4 297 326 426 606
4 244 167 16 217
4 397 399 398 607
4 598 618 614 623
4 397 80 584 589
4 529 44 126 186
4 186 126 203 43
4 591 427 481 615
4 28 29 233 118
4 582 235 77 616
4 368 340 317 613
4 410 306 10 295
4 127 544 126 203
4 244 16 60 217
4 482 615 439 623
4 481 427 247 615
4 97 96 242 614
4 326 425 31 328
4 81 584 586 395
4 481 8 591 615
4 291 447 431 617
4 313 333 400 608
4 236 391 95 610
4 465 93 3 621
4 593 369 241 616
4 74 427 585 371
4 315 309 298 612
4 482 98 439 615
4 369 77 235 616
4 584 589 588 607
4 232 95 94 610
4 298 309 297 612
4 582 78 235 398
4 126 186 203 529
4 11 374 346 373
4 202 182 26 543
4 203 126 529 544
4 27 26 182 543
4 9 3 93 621
4 361 364 618 623
4 244 59 167 217
4 220 20 67 181
4 118 27 197 119
4 28 27 197 118
4 375 447 291 622
4 252 436 255 619
4 26 25 202 120
4 607 616 598 620
4 83 586 583 482
4 9 3 99 92
4 99 3 41 92
4 582 78 398 589
4 543 26 202 120
4 211 3 41 552
4 119 27 197 543
4 543 119 27 120
4 27 26 543 120
4 425 30 282 426
4 242 96 392 614
4 197 118 119 527
4 296 387 312 611
4 182 197 27 543
4 187 202 25 121
4 527 119 197 543
4 11 124 551 210
4 35 106 105 85
4 362 361 319 618
4 557 564 110 414
4 23 22 184 124
4 187 25 24 122
4 523 220 67 181
4 19 220 523 181
4 17 61 138 227
4 559 581 245 226
4 254 255 295 619
4 167 59 15 217
4 482 583 8 98
4 361 487 364 623
4 121 202 25 120
4 42 551 11 127
4 249 395 586 623
4 220 68 19 523
4 300 288 431 617
4 272 24 25 122
4 108 107 254 619
4 113 114 265 570
4 427 585 591 74
4 539 543 202 120
4 107 252 254 619
4 111 564 566 307
4 111 564 307 414
4 581 72 52 226
4 192 23 184 123
4 283 282 30 426
4 108 254 107 253
4 295 10 409 108
4 541 36 105 104
4 108 107 502 253
4 187 25 122 121
4 254 295 409 108
4 51 559 245 226
4 24 192 187 122
4 552 41 211 533
4 114 265 383 113
4 540 543 199 539
4 541 36 35 105
4 479 618 364 623
4 119 424 27 120
4 125 9 44 552
4 26 27 424 120
4 211 529 552 533
4 568 411 417 290
4 123 23 184 124
4 44 552 529 125
4 429 163 292 131
4 27 26 455 131
4 120 568 417 290
4 5 1 4 84
4 25 26 428 120
4 502 254 108 253
4 127 42 551 203
4 197 182 198 548
4 0 54 495 223
4 397 476 399 607
4 133 140 141 343
4 211 44 3 552
4 245 581 52 226
4 221 67 20 547
4 93 3 9 92
4 351 378 509 379
4 122 25 272 121
4 98 481 247 615
4 552 44 529 211
4 568 417 558 120
4 479 453 364 618
4 561 129 128 451
4 551 42 11 210
4 552 9 3 99
4 552 3 41 99
4 353 478 370 624
4 411 417 558 568
4 543 199 182 548
4 273 23 24 271
4 24 23 192 123
4 22 11 2 210
4 124 11 22 210
4 233 420 28 118
4 121 539 202 120
4 373 11 374 285
4 160 161 302 151
4 254 256 502 108
4 321 322 112 507
4 103 87 37 104
4 26 163 429 131
4 29 233 118 117
4 302 325 160 151
4 292 429 131 305
4 106 530 35 105
4 211 44 529 186
4 388 441 143 336
4 441 143 141 388
4 133 32 31 343
4 548 543 199 540
4 343 32 31 328
4 537 199 540 546
4 361 342 319 618
4 291 431 288 617
4 118 29 188 28
4 544 127 551 203
4 123 24 23 271
4 280 284 139 440
4 580 109 6 450
4 473 557 110 414
4 302 303 148 161
4 101 39 100 528
4 123 192 24 122
4 375 400 447 622
4 40 99 533 41
4 428 272 25 121
4 202 525 121 187
4 470 366 118 572
4 112 320 322 321
4 121 25 428 120
4 581 559 72 226
4 341 175 134 396
4 505 321 111 507
4 140 139 284 440
4 301 292 163 131
4 281 30 2 283
4 253 107 517 229
4 254 107 253 252
4 428 272 121 270
4 307 564 566 318
4 424 27 455 119
4 551 42 210 203
4 103 102 37 88
4 38 37 102 88
4 210 526 551 203
4 175 162 134 396
4 36 37 87 104
4 294 511 113 377
4 163 161 301 131
4 142 141 143 388
4 28 158 471 137
4 146 148 303 161
4 396 170 162 357
4 394 438 435 624
4 184 526 123 124
4 136 162 170 357
4 564 307 414 318
4 529 207 544 549
4 541 35 36 185
4 146 293 278 163
4 337 157 171 372
4 22 11 415 2
4 11 22 415 124
4 121 272 122 270
4 105 36 86 104
4 24 123 122 271
4 405 147 323 303
4 277 25 163 429
4 265 383 262 114
4 369 241 76 593
4 453 342 364 618
4 107 253 252 229
4 36 105 86 35
4 171 142 337 372
4 147 405 146 303
4 373 346 11 129
4 559 51 71 226
4 580 6 49 450
4 526 207 195 549
4 525 202 121 539
4 440 140 282 425
4 203 529 186 207
4 24 144 273 274
4 9 517 107 229
4 101 100 39 90
4 498 449 519 510
4 334 400 375 622
4 572 118 470 573
4 112 279 113 320
4 224 52 53 444
4 235 469 369 616
4 142 171 157 372
4 408 22 23 124
4 125 44 9 621
4 249 586 83 482
4 244 60 59 217
4 118 420 27 119
4 27 28 420 118
4 92 41 99 91
4 265 279 383 113
4 591 583 590 615
4 331 321 505 507
4 99 40 533 100
4 69 213 117 218
4 21 34 219 554
4 544 551 526 203
4 405 278 389 132
4 41 552 99 533
4 203 529 207 544
4 397 398 79 589
4 199 198 182 548
4 104 37 103 206
4 546 537 199 201
4 34 5 219 106
4 294 113 383 377
4 256 254 409 108
4 71 559 569 448
4 124 22 184 210
4 514 508 258 413
4 202 194 199 539
4 85 105 35 86
4 455 418 424 119
4 544 526 207 203
4 245 52 51 226
4 304 148 308 310
4 84 5 106 485
4 525 187 192 122
4 499 457 103 238
4 547 20 221 189
4 144 23 24 273
4 383 114 113 294
4 207 526 544 549
4 565 575 564 365
4 272 273 24 271
4 37 162 385 134
4 199 548 540 555
4 25 26 163 429
4 476 239 487 607
4 9 3 44 552
4 61 138 227 467
4 414 557 564 367
4 528 40 100 533
4 230 406 101 437
4 511 113 114 294
4 390 9 99 92
4 84 250 106 85
4 399 462 433 620
4 102 37 208 103
4 37 102 208 38
4 454 103 509 457
4 250 105 106 85
4 99 390 432 257
4 106 34 5 84
4 323 143 380 336
4 457 454 103 238
4 144 275 273 274
4 42 2 11 210
4 154 324 308 381
4 104 36 37 206
4 145 405 389 132
4 118 418 420 119
4 162 136 484 396
4 338 162 170 175
4 111 307 112 321
4 321 112 111 507
4 349 321 111 505
4 279 383 113 320
4 318 564 575 365
4 554 219 5 106
4 284 141 139 140
4 162 136 396 357
4 228 41 3 92
4 229 93 9 92
4 581 224 7 117
4 424 428 26 120
4 34 5 1 219
4 293 292 278 163
4 154 381 384 344
4 163 292 278 277
4 457 103 509 499
4 339 269 123 271
4 248 35 168 412
4 537 194 193 525
4 26 27 455 424
4 23 123 408 124
4 244 16 167 467
4 84 4 5 485
4 513 456 238 407
4 366 418 118 119
4 581 444 224 117
4 396 136 484 357
4 356 338 170 316
4 150 304 151 316
4 134 385 231 384
4 140 284 141 440
4 149 308 148 310
4 570 114 265 563
4 103 37 87 88
4 38 39 89 102
4 102 39 89 101
4 282 280 177 440
4 277 274 24 272
4 162 240 37 385
4 391 94 95 610
4 592 582 593 616
4 537 194 199 201
4 550 103 102 208
4 577 264 451 452
4 341 134 149 384
4 136 484 36 162
4 99 41 40 91
4 1 5 34 84
4 547 67 20 181
4 165 178 168 376
4 93 465 3 92
4 282 30 281 283
4 100 432 230 413
4 383 113 320 377
4 275 139 23 276
4 124 11 443 415
4 181 545 204 190
4 111 110 414 349
4 54 495 223 233
4 122 525 187 121
4 343 133 32 330
4 448 51 559 245
4 160 325 494 153
4 140 282 177 440
4 3 33 489 465
4 320 112 307 321
4 580 50 569 448
4 385 231 38 134
4 550 208 201 206
4 444 224 52 581
4 244 167 59 446
4 159 160 494 153
4 329 32 33 386
4 514 99 432 257
4 328 343 32 330
4 180 143 323 336
4 556 101 39 183
4 204 523 545 181
4 23 144 275 273
4 244 60 16 467
4 277 24 25 272
4 139 276 280 177
4 106 35 34 85
4 483 38 37 134
4 554 547 221 189
4 1 4 84 486
4 164 423 488 159
4 451 335 128 410
4 110 109 496 498
4 373 347 346 129
4 224 72 52 581
4 138 167 16 467
4 268 568 121 290
4 10 116 452 409
4 412 35 168 136
4 276 139 22 177
4 262 115 114 260
4 194 202 187 525
4 441 380 172 143
4 341 134 385 396
4 421 28 471 137
4 183 550 102 208
4 102 101 556 183
4 149 154 308 381
4 84 106 34 85
4 277 163 292 429
4 175 338 162 396
4 378 509 503 351
4 476 397 239 607
4 424 428 120 290
4 321 111 414 349
4 274 24 132 277
4 417 119 572 558
4 338 150 170 316
4 111 110 349 505
4 148 304 150 310
4 85 407 105 86
4 238 104 513 407
4 253 517 390 229
4 547 523 67 181
4 367 565 564 365
4 419 470 366 118
4 39 102 183 101
4 102 39 183 38
4 256 409 518 108
4 452 410 10 409
4 100 99 40 91
4 585 75 74 371
4 281 280 276 177
4 145 143 323 180
4 156 330 133 388
4 117 0 7 218
4 29 0 117 218
4 151 430 325 153
4 149 381 341 384
4 356 170 152 316
4 537 193 194 214
4 450 6 48 521
4 575 299 332 579
4 120 428 121 290
4 187 192 193 525
4 372 337 157 345
4 523 204 205 181
4 88 38 37 483
4 116 577 10 452
4 417 424 119 120
4 164 488 474 173
4 449 65 47 510
4 162 385 134 396
4 9 44 3 621
4 99 390 92 91
4 558 366 417 332
4 194 202 525 539
4 276 22 23 408
4 420 233 419 118
4 347 346 129 335
4 167 155 130 446
4 100 39 40 528
4 167 15 59 446
4 489 33 359 465
4 466 386 174 372
4 519 449 243 510
4 331 321 349 505
4 25 26 429 428
4 396 338 170 357
4 160 460 301 131
4 304 430 151 316
4 461 17 61 138
4 145 143 380 323
4 414 473 557 367
4 123 536 192 122
4 119 118 366 572
4 234 580 49 450
4 119 366 417 572
4 149 148 150 310
4 227 138 16 467
4 143 441 380 336
4 386 156 174 372
4 240 36 484 162
4 103 524 104 206
4 147 145 405 323
4 405 146 145 147
4 564 318 367 365
4 172 441 143 141
4 198 532 548 209
4 260 114 262 294
4 24 25 132 277
4 223 495 0 233
4 443 408 339 124
4 546 199 540 555
4 325 160 151 153
4 112 307 279 320
4 373 443 11 415
4 235 78 582 77
4 241 75 76 593
4 228 41 92 91
4 390 99 517 257
4 550 546 524 201
4 276 22 281 177
4 117 7 69 218
4 383 262 114 294
4 197 553 527 532
4 461 179 17 138
4 184 526 210 203
4 101 39 89 90
4 181 547 545 189
4 424 418 417 119
4 559 71 51 448
4 547 545 523 181
4 22 23 139 276
4 104 103 87 238
4 410 10 577 452
4 230 100 101 90
4 575 299 318 332
4 321 331 322 507
4 123 339 408 124
4 324 308 147 154
4 517 9 390 229
4 325 302 430 151
4 223 0 7 117
4 511 382 501 378
4 116 115 261 259
4 554 34 219 106
4 117 213 29 218
4 528 533 534 191
4 505 110 349 498
4 192 184 195 536
4 407 104 105 86
4 471 158 422 137
4 31 425 343 328
4 104 87 36 86
4 31 140 133 343
4 428 26 429 424
4 310 338 175 341
4 131 301 292 305
4 572 366 417 558
4 338 175 341 396
4 38 483 385 134
4 519 468 449 498
4 155 167 472 446
4 152 155 165 356
4 118 197 553 527
4 132 146 278 163
4 482 439 249 623
4 267 411 299 579
4 541 209 190 185
4 322 350 351 520
4 249 586 82 83
4 166 134 231 384
4 158 460 131 305
4 325 458 494 153
4 502 256 254 253
4 40 39 100 90
4 361 364 342 618
4 525 193 537 535
4 37 36 87 240
4 11 2 285 415
4 100 432 99 91
4 536 525 192 122
4 406 454 102 379
4 278 405 146 132
4 267 411 579 568
4 412 168 248 445
4 338 170 162 396
4 0 29 213 218
4 16 60 227 467
4 114 115 262 563
4 407 105 459 250
4 201 524 550 206
4 278 132 163 277
4 142 133 141 388
4 209 545 541 190
4 102 89 38 88
4 12 56 13 164
4 40 41 533 191
4 134 231 38 166
4 514 432 100 413
4 284 139 144 275
4 262 261 115 260
4 175 150 338 310
4 395 364 487 623
4 144 389 284 275
4 116 261 567 452
4 566 111 307 112
4 488 164 169 173
4 107 108 596 619
4 81 239 80 584
4 509 102 454 379
4 268 121 270 290
4 187 193 194 525
4 533 528 40 191
4 152 155 356 358
4 452 116 261 259
4 381 149 166 384
4 526 184 207 203
4 337 171 157 345
4 276 275 139 280
4 118 233 419 117
4 196 528 534 191
4 2 285 281 283
4 184 207 195 526
4 526 195 184 536
4 112 279 307 562
4 415 22 2 281
4 385 483 37 134
4 21 34 1 219
4 154 308 147 149
4 112 307 566 562
4 477 399 433 620
4 575 566 299 579
4 573 578 245 490
4 293 278 405 146
4 273 275 23 276
4 285 373 11 415
4 459 513 105 407
4 160 460 131 158
4 494 458 159 153
4 566 575 299 318
4 547 221 66 554
4 581 52 444 245
4 143 171 142 337
4 565 470 572 365
4 293 146 161 163
4 331 350 507 516
4 88 37 87 483
4 411 267 268 568
4 363 331 505 516
4 109 580 234 450
4 136 168 412 445
4 347 129 561 451
4 265 266 267 570
4 429 277 25 428
4 558 572 366 332
4 167 244 472 446
4 503 112 113 320
4 50 71 569 448
4 142 156 133 388
4 205 68 19 222
4 249 586 395 82
4 477 433 360 620
4 144 145 389 132
4 555 546 199 201
4 284 441 141 440
4 381 166 154 384
4 504 382 258 413
4 258 508 512 413
4 130 58 15 446
4 386 329 32 330
4 337 324 171 344
4 438 353 435 624
4 76 369 593 77
4 331 350 322 507
4 35 34 530 106
4 320 113 503 377
4 488 164 159 169
4 382 511 294 378
4 534 526 195 549
4 134 166 149 384
4 508 514 512 413
4 559 578 448 245
4 23 273 276 408
4 578 559 573 245
4 395 586 81 82
4 177 30 282 140
4 443 574 442 576
4 514 517 99 257
4 516 505 363 506
4 578 569 559 448
4 581 444 573 245
4 156 330 388 372
4 29 118 188 117
4 330 343 133 388
4 264 263 261 567
4 523 532 204 545
4 168 461 445 138
4 413 258 514 257
4 150 152 170 316
4 204 205 531 523
4 573 559 581 245
4 111 110 564 414
4 174 156 157 372
4 157 466 174 372
4 56 12 246 164
4 110 109 473 496
4 546 538 537 201
4 79 398 78 589
4 160 301 161 131
4 103 454 102 88
4 89 39 38 231
4 350 322 507 520
4 104 499 103 238
4 546 555 524 201
4 528 101 39 556
4 204 188 197 553
4 89 406 102 101
4 201 555 524 200
4 145 146 405 132
4 501 509 378 379
4 101 89 230 90
4 437 501 382 378
4 188 204 531 553
4 384 166 154 344
4 470 572 573 565
4 339 574 443 124
4 349 468 505 498
4 172 284 139 144
4 138 178 167 467
4 423 246 422 137
4 172 284 380 441
4 460 301 131 305
4 415 276 22 281
4 281 30 282 177
4 282 280 281 177
4 124 408 22 415
4 495 225 29 176
4 118 419 470 573
4 494 458 488 159
4 152 430 153 358
4 152 151 430 316
4 533 41 211 191
4 124 443 11 576
4 88 89 38 231
4 132 278 389 274
4 193 537 535 214
4 386 32 33 156
4 201 538 537 214
4 460 160 159 158
4 129 11 373 576
4 63 45 463 522
4 521 65 449 510
4 87 454 103 88
4 577 451 128 410
4 223 53 54 233
4 567 115 261 116
4 505 468 363 506
4 532 545 542 209
4 530 541 545 212
4 152 150 151 316
4 408 276 22 415
4 167 130 15 446
4 91 100 432 90
4 284 172 389 144
4 414 307 111 321
4 129 373 347 576
4 274 273 24 272
4 316 338 150 310
4 385 162 240 396
4 521 496 109 498
4 158 131 27 471
4 246 423 164 137
4 196 534 195 191
4 530 34 35 212
4 260 261 115 259
4 320 503 112 322
4 14 57 237 173
4 536 195 193 534
4 504 258 512 413
4 331 363 350 516
4 248 84 34 85
4 538 550 208 201
4 339 123 574 124
4 411 332 299 579
4 421 471 422 137
4 488 474 423 164
4 455 429 26 424
4 15 14 58 130
4 525 537 194 539
4 64 46 243 500
4 254 252 255 619
4 323 180 336 324
4 33 329 386 359
4 568 268 411 290
4 470 366 572 365
4 105 515 459 250
4 20 547 181 189
4 138 16 17 227
4 542 548 532 209
4 281 22 2 177
4 190 181 545 189
4 578 557 569 448
4 154 171 324 344
4 418 366 417 119
4 261 264 567 452
4 225 29 0 495
4 240 36 87 86
4 456 457 499 238
4 157 40 401 135
4 525 192 193 536
4 35 541 212 185
4 122 272 24 271
4 243 468 449 519
4 339 574 442 443
4 249 439 479 623
4 237 58 14 130
4 244 167 178 467
4 222 205 68 531
4 198 204 197 532
4 87 104 238 86
4 350 457 351 520
4 427 591 73 74
4 508 256 502 257
4 578 367 448 490
4 272 25 277 428
4 541 542 545 209
4 411 558 332 579
4 388 142 156 372
4 532 204 531 523
4 73 481 591 427
4 549 534 533 191
4 445 165 168 376
4 248 168 179 461
4 501 509 503 378
4 47 48 65 449
4 35 412 85 86
4 412 484 36 136
4 519 243 497 500
4 190 545 541 212
4 338 170 150 175
4 486 1 62 179
4 225 0 29 176
4 117 118 188 553
4 304 430 302 151
4 549 533 529 191
4 103 550 524 206
4 138 461 445 467
4 513 515 459 105
4 316 430 152 358
4 377 294 511 378
4 183 102 38 208
4 253 390 517 257
4 524 201 200 206
4 472 356 155 358
4 316 150 304 310
4 220 19 20 181
4 474 57 13 173
4 379 454 509 457
4 329 328 32 330
4 91 40 100 90
4 503 320 377 322
4 163 132 25 277
4 516 363 456 513
4 260 504 114 294
4 153 151 430 152
4 155 178 165 472
4 205 222 213 531
4 14 13 57 173
4 149 166 154 381
4 496 349 110 498
4 578 565 367 490
4 212 541 190 185
4 48 449 450 521
4 245 578 448 490
4 536 526 195 534
4 258 256 508 257
4 565 578 573 490
4 199 555 201 200
4 172 284 441 141
4 515 522 463 250
4 557 578 367 448
4 538 550 102 183
4 61 62 17 461
4 79 80 397 589
4 538 550 183 208
4 548 542 555 200
4 537 194 201 214
4 528 39 40 196
4 535 536 193 534
4 196 40 528 191
4 147 323 308 324
4 124 443 408 415
4 558 417 119 120
4 48 49 6 450
4 231 39 166 475
4 419 366 418 118
4 332 575 572 365
4 332 417 558 411
4 59 15 58 446
4 173 237 14 130
4 445 357 165 376
4 135 401 157 345
4 248 34 35 85
4 356 155 165 472
4 9 390 229 92
4 250 522 463 485
4 179 17 62 461
4 501 503 511 378
4 103 102 454 509
4 504 382 501 511
4 557 110 109 473
4 357 165 136 445
4 489 174 3 228
4 61 461 138 467
4 412 35 36 86
4 450 109 6 521
4 159 164 423 137
4 553 197 204 532
4 160 494 460 159
4 451 567 264 577
4 269 123 571 339
4 442 347 443 576
4 269 571 123 271
4 331 468 363 505
4 284 389 172 380
4 468 349 496 498
4 302 148 304 151
4 260 115 508 259
4 70 50 569 580
4 341 385 134 384
4 405 389 380 145
4 406 89 102 88
4 178 167 244 472
4 456 350 363 516
4 270 272 122 271
4 570 267 265 562
4 353 438 478 624
4 228 174 41 466
4 350 457 520 499
4 308 148 147 149
4 1 17 62 179
4 423 422 159 137
4 253 502 256 257
4 456 457 350 499
4 32 386 330 156
4 523 205 19 181
4 153 480 155 358
4 323 147 180 324
4 245 470 573 490
4 116 452 409 259
4 84 34 1 486
4 91 41 40 401
4 409 410 10 295
4 302 301 293 161
4 573 444 470 245
4 442 403 574 339
4 577 567 264 452
4 2 30 281 177
4 413 514 432 257
4 71 50 51 448
4 221 66 67 547
4 405 293 146 303
4 488 237 474 173
4 373 443 347 576
4 120 121 568 290
4 574 443 124 576
4 512 230 101 437
4 279 265 267 562
4 451 561 567 577
4 237 58 130 446
4 3 33 174 489
4 553 204 531 532
4 332 572 366 365
4 480 130 155 446
4 583 8 83 482
4 430 458 325 153
4 554 34 530 189
4 507 505 331 516
4 570 266 267 560
4 401 228 41 466
4 422 460 159 158
4 517 502 253 257
4 231 38 483 385
4 299 307 566 318
4 268 560 269 270
4 389 144 132 274
4 450 496 109 521
4 12 55 56 246
4 174 41 3 228
4 136 412 484 445
4 501 101 406 437
4 472 178 165 376
4 417 424 120 290
4 65 64 47 510
4 205 19 68 523
4 193 525 536 535
4 577 451 410 452
4 565 573 470 490
4 106 522 515 250
4 172 284 141 139
4 167 178 155 472
4 380 389 172 145
4 36 35 412 136
4 332 558 575 579
4 516 456 350 499
4 67 68 220 523
4 256 518 409 259
4 148 302 161 151
4 270 122 269 271
4 483 37 240 385
4 395 249 364 623
4 363 516 506 513
4 562 570 267 560
4 474 13 56 164
4 322 503 112 507
4 506 505 468 498
4 509 351 379 457
4 415 2 285 281
4 237 57 474 173
4 14 57 58 237
4 37 36 240 162
4 50 580 234 448
4 560 267 562 568
4 41 401 466 157
4 512 100 230 413
4 557 109 580 234
4 284 139 275 280
4 442 403 264 567
4 532 198 204 209
4 106 522 250 485
4 27 28 158 471
4 442 403 567 574
4 310 149 308 381
4 36 484 412 240
4 466 174 41 157
4 221 21 66 554
4 222 69 18 213
4 268 267 560 568
4 522 463 63 500
4 221 21 554 189
4 213 222 69 531
4 219 5 66 554
4 250 407 105 85
4 457 509 351 520
4 332 318 575 365
4 165 168 136 445
4 249 479 364 623
4 192 195 193 536
4 155 152 153 358
4 167 15 16 217
4 465 228 3 92
4 170 338 356 357
4 179 62 486 461
4 363 459 456 513
4 576 574 442 561
4 367 234 557 448
4 495 55 225 176
4 64 243 510 500
4 502 514 508 257
4 560 122 269 270
4 304 303 148 302
4 269 122 571 271
4 557 578 565 367
4 65 48 6 521
4 112 113 279 562
4 208 183 538 201
4 442 347 576 561
4 142 388 337 372
4 159 458 488 169
4 46 64 63 500
4 270 121 428 290
4 91 228 41 401
4 135 166 39 475
4 459 363 506 513
4 175 149 310 341
4 442 347 561 451
4 142 157 156 372
4 471 158 131 305
4 373 11 443 576
4 274 132 278 277
4 304 148 303 308
4 109 557 473 234
4 148 304 151 150
4 135 402 401 345
4 39 231 402 475
4 246 474 56 164
4 390 99 432 91
4 518 256 508 259
4 10 116 409 518
4 468 331 349 505
4 147 180 324 154
4 144 139 23 275
4 117 188 213 531
4 467 178 244 376
4 557 565 564 367
4 303 147 323 308
4 90 91 40 401
4 504 114 115 260
4 40 402 401 135
4 227 60 61 467
4 212 530 34 189
4 158 159 422 137
4 511 114 504 294
4 248 179 486 461
4 64 46 47 243
4 123 339 271 408
4 39 528 556 196
4 449 48 65 521
4 153 430 458 358
4 18 205 222 213
4 46 63 45 463
4 522 45 463 485
4 382 512 501 437
4 204 205 188 531
4 574 403 567 571
4 501 406 102 379
4 47 243 449 510
4 459 497 463 515
4 145 389 172 144
4 422 460 494 159
4 316 152 356 358
4 502 517 514 257
4 421 29 28 137
4 243 47 64 510
4 519 497 506 515
4 472 480 155 446
4 449 496 521 498
4 324 180 171 154
4 152 165 170 356
4 381 154 324 344
4 495 29 0 233
4 50 71 70 569
4 563 261 263 567
4 461 168 179 138
4 266 570 563 560
4 325 460 301 160
4 49 70 6 580
4 243 497 468 519
4 490 470 565 365
4 21 34 554 189
4 117 213 69 531
4 522 106 5 485
4 122 123 571 271
4 89 230 406 101
4 381 310 149 341
4 166 135 154 344
4 463 46 63 500
4 121 560 268 270
4 508 258 260 259
4 535 556 196 214
4 230 432 100 90
4 234 557 473 367
4 165 170 356 357
4 166 135 344 475
4 350 507 516 520
4 386 174 489 466
4 463 497 243 500
4 541 542 209 185
4 567 577 116 452
4 164 12 246 176
4 511 504 382 294
4 330 133 32 156
4 153 480 169 155
4 165 356 472 376
4 115 116 508 259
4 512 508 258 504
4 563 115 261 567
4 275 144 389 274
4 449 496 450 521
4 148 147 303 308
4 511 503 113 377
4 560 268 568 121
4 575 565 572 365
4 554 530 34 106
4 263 403 266 563
4 169 159 458 153
4 444 470 419 573
4 154 135 171 344
4 461 248 168 445
4 55 12 225 176
4 454 87 103 238
4 460 158 471 305
4 531 117 188 553
4 209 542 200 185
4 99 517 9 390
4 538 556 535 214
4 519 506 468 498
4 102 509 501 379
4 513 459 456 407
4 100 512 514 413
4 571 574 403 339
4 560 266 267 268
4 135 39 402 475
4 506 468 497 519
4 116 409 518 259
4 472 244 178 376
4 171 337 344 345
4 496 109 473 450
4 572 558 575 332
4 547 530 545 189
4 577 128 10 410
4 521 449 498 510
4 3 489 228 465
4 490 565 367 365
4 132 144 24 274
4 407 238 104 86
4 512 382 413 437
4 196 556 183 214
4 550 538 546 201
4 99 432 100 514
4 318 414 564 367
4 260 382 504 294
4 571 403 266 269
4 213 18 0 218
4 515 463 459 250
4 520 516 350 499
4 377 511 503 378
4 380 405 145 323
4 471 420 28 421
4 463 243 46 500
4 458 480 153 358
4 537 538 535 214
4 228 489 174 466
4 104 105 513 407
4 386 330 156 372
4 349 110 473 496
4 258 508 514 257
4 258 508 256 259
4 148 147 146 303
4 579 411 558 568
4 579 562 267 568
4 502 256 518 108
4 240 412 36 86
4 164 474 13 173
4 503 377 378 351
4 459 506 515 513
4 322 351 503 520
4 4 1 62 486
4 29 188 213 117
4 534 535 528 196
4 150 175 149 310
4 201 183 538 214
4 240 87 37 483
4 531 205 68 523
4 412 248 35 85
4 183 39 556 196
4 402 89 39 90
4 130 169 480 155
4 344 135 171 345
4 556 538 102 183
4 484 240 162 396
4 28 27 420 471
4 269 571 403 339
4 520 457 509 499
4 34 35 168 248
4 344 384 166 475
4 20 21 221 189
4 68 69 222 531
4 522 5 45 485
4 512 382 504 413
4 513 456 516 499
4 422 246 421 137
4 401 41 40 157
4 122 560 121 270
4 500 522 463 515
4 149 175 134 341
4 495 246 55 176
4 437 406 501 379
4 501 512 382 504
4 508 116 518 259
4 56 57 13 474
4 402 135 475 345
4 143 380 172 145
4 8 73 481 591
4 266 560 269 268
4 102 454 406 88
4 12 0 225 176
4 413 230 512 437
4 258 382 504 260
4 168 179 34 248
4 562 267 299 579
4 575 566 564 318
4 357 136 484 445
4 231 39 38 166
4 45 5 4 485
4 574 567 442 561
4 0 54 225 495
4 444 233 53 117
4 45 63 5 522
4 556 538 183 214
4 225 54 55 495
4 497 459 506 515
4 170 165 136 357
4 351 503 377 322
4 106 515 105 250
4 483 88 38 231
4 39 40 402 90
4 101 406 102 501
4 518 256 502 508
4 219 66 21 554
4 213 69 18 218
4 12 55 246 176
4 378 437 501 379
4 423 494 488 159
4 420 419 418 118
4 359 386 33 489
4 507 322 503 520
4 563 403 266 571
4 518 409 10 108
4 156 33 386 174
4 279 267 299 562
4 524 555 542 200
4 130 480 237 446
4 455 420 27 471
4 174 33 386 489
4 169 480 237 130
4 573 419 444 117
4 231 89 39 402
4 403 563 567 571
4 7 72 224 581
4 237 488 169 173
4 179 486 34 248
4 71 72 559 226
4 504 115 508 260
4 571 266 563 560
4 486 34 1 179
4 414 110 473 349
4 101 100 230 512
4 101 501 512 437
4 574 571 123 339
4 423 474 246 164
4 171 135 157 345
4 157 466 372 345
4 509 503 351 520
4 234 473 109 450
4 535 556 528 196
4 472 155 480 358
4 468 497 363 506
4 173 169 237 130
4 19 18 205 222
4 573 118 419 117
4 560 571 266 269
4 357 356 165 376
4 458 480 169 153
4 196 193 535 214
4 508 258 504 260
4 106 250 84 485
4 562 299 566 579
4 325 494 460 160
4 401 466 157 345
4 107 517 502 253
4 231 166 384 475
4 423 422 494 159
4 530 547 554 189
4 158 422 460 471
4 40 39 402 135
4 128 561 451 577
4 176 421 246 137
4 444 419 233 117
4 495 421 29 233
4 243 519 510 500
4 475 135 344 345
4 459 363 497 506
4 581 573 444 117
4 496 449 468 498
4 347 129 576 561
4 323 147 145 180
4 495 421 246 176
4 488 480 237 169
4 29 421 176 137
4 90 40 402 401
4 571 560 122 269
4 176 246 164 137
4 495 29 421 176
4 458 480 488 169
4 486 84 34 248
4 188 205 213 531
4 611 314 352 312
4 611 352 314 603
4 609 594 125 126
4 609 125 594 599
4 619 125 594 596
4 619 594 125 599
4 610 393 621 94
4 610 621 393 601
4 617 286 287 288
4 617 287 286 602
4 587 616 588 592
4 588 616 587 607
4 609 215 216 606
4 609 216 215 43
4 609 595 594 126
4 609 594 595 604
4 610 392 614 605
4 610 614 392 95
4 611 313 314 312
4 611 314 313 608
4 398 620 399 477
4 399 620 398 607
4 623 583 587 586
4 623 587 583 615
4 621 107 229 9
4 621 229 107 619
4 620 235 398 616
4 620 398 235 477
4 620 340 348 360
4 620 348 340 613
4 623 361 607 618
4 623 607 361 487
4 451 129 335 347
4 451 335 129 128
4 465 33 621 3
4 465 621 33 359
4 161 303 293 302
4 161 293 303 146
4 343 141 388 441
4 343 388 141 133
4 160 302 301 325
4 160 301 302 161
4 425 140 343 440
4 425 343 140 31
4 197 548 532 527
4 532 548 197 198
4 425 30 140 282
4 425 140 30 31
4 529 207 191 186
4 191 207 529 549
4 117 224 53 444
4 117 53 224 7
4 233 28 421 29
4 233 421 28 420
4 163 301 293 292
4 163 293 301 161
4 429 131 455 26
4 429 455 131 305
4 455 119 420 418
4 420 119 455 27
4 455 131 471 27
4 455 471 131 305
4 35 530 541 105
4 35 541 530 212
4 141 440 343 140
4 343 440 141 441
4 500 497 515 463
4 500 515 497 519
4 0 233 117 223
4 117 233 0 29
4 208 103 206 550
4 208 206 103 37
4 177 440 139 140
4 139 440 177 280
4 543 197 548 182
4 543 548 197 527
4 202 543 199 182
4 202 199 543 539
4 143 388 337 142
4 143 337 388 336
4 526 210 124 184
4 124 210 526 551
4 238 513 499 456
4 238 499 513 104
4 200 548 199 555
4 200 199 548 198
4 118 188 197 28
4 118 197 188 553
4 262 563 265 114
4 265 563 262 263
4 376 467 138 445
4 138 467 376 178
4 138 168 376 445
4 376 168 138 178
4 271 23 408 273
4 271 408 23 123
4 562 307 299 279
4 562 299 307 566
4 537 199 539 540
4 537 539 199 194
4 223 117 53 233
4 53 117 223 7
4 36 541 206 104
4 36 206 541 185
4 524 206 541 104
4 563 265 266 263
4 563 266 265 570
4 529 191 211 186
4 211 191 529 533
4 536 184 123 192
4 536 123 184 526
4 545 204 209 532
4 209 204 545 190
4 261 563 262 115
4 262 563 261 263
4 143 337 324 171
4 324 337 143 336
4 324 180 143 171
4 143 180 324 336
4 562 265 113 279
4 562 113 265 570
4 567 451 442 561
4 442 451 567 264
4 193 534 196 535
4 196 534 193 195
4 580 448 557 234
4 557 448 580 569
4 195 549 191 534
4 191 549 195 207
4 580 50 49 70
4 580 49 50 234
4 212 545 189 190
4 212 189 545 530
4 567 263 403 264
4 567 403 263 563
4 209 548 200 542
4 209 200 548 198
4 206 541 200 524
4 206 200 541 185
4 542 200 541 524
4 542 541 200 185

CELL_TYPES 3270
1
1
1
1
1
1
1
1
1
1
1
1
3
3
3
3
3
3
3
3
3
3
3
3
3
3
3
3
3
3
3
3
3
3
3
3
3
3
3
3
3
3
3
3
3
3
3
3
3
3
3
3
3
3
3
3
3
3
3
3
3
3
3
3
3
3
3
3
3
3
3
3
3
3
3
3
3
3
3
3
3
3
3
3
3
3
3
3
3
3
3
3
3
3
3
3
3
3
3
3
3
3
3
3
3
3
3
3
3
3
3
3
3
3
3
3
3
3
3
3
3
3
3
3
3
3
3
3
3
3
3
3
3
3
3
3
3
3
3
3
3
3
3
3
3
3
3
3
5
5
5
5
5
5
5
5
5
5
5
5
5
5
5
5
5
5
5
5
5
5
5
5
5
5
5
5
5
5
5
5
5
5
5
5
5
5
5
5
5
5
5
5
5
5
5
5
5
5
5
5
5
5
5
5
5
5
5
5
5
5
5
5
5
5
5
5
5
5
5
5
5
5
5
5
5
5
5
5
5
5
5
5
5
5
5
5
5
5
5
5
5
5
5
5
5
5
5
5
5
5
5
5
5
5
5
5
5
5
5
5
5
5
5
5
5
5
5
5
5
5
5
5
5
5
5
5
5
5
5
5
5
5
5
5
5
5
5
5
5
5
5
5
5
5
5
5
5
5
5
5
5
5
5
5
5
5
5
5
5
5
5
5
5
5
5
5
5
5
5
5
5
5
5
5
5
5
5
5
5
5
5
5
5
5
5
5
5
5
5
5
5
5
5
5
5
5
5
5
5
5
5
5
5
5
5
5
5
5
5
5
5
5
5
5
5
5
5
5
5
5
5
5
5
5
5
5
5
5
5
5
5
5
5
5
5
5
5
5
5
5
5
5
5
5
5
5
5
5
5
5
5
5
5
5
5
5
5
5
5
5
5
5
5
5
5
5
5
5
5
5
5
5
5
5
5
5
5
5
5
5
5
5
5
5
5
5
5
5
5
5
5
5
5
5
5
5
5
5
5
5
5
5
5
5
5
5
5
5
5
5
5
5
5
5
5
5
5
5
5
5
5
5
5
5
5
5
5
5
5
5
5
5
5
5
5
5
5
5
5
5
5
5
5
5
5
5
5
5
5
5
5
5
5
5
5
5
5
5
5
5
5
5
5
5
5
5
5
5
5
5
5
5
5
5
5
5
5
5
5
5
5
5
5
5
5
5
5
5
5
5
5
5
5
5
5
5
5
5
5
5
5
5
5
5
5
5
5
5
5
5
5
5
5
5
5
5
5
5
5
5
5
5
5
5
5
5
5
5
5
5
5
5
5
5
5
5
5
5
5
5
5
5
5
5
5
5
5
5
5
5
5
5
5
5
5
5
5
5
5
5
5
5
5
5
5
5
5
5
5
5
5
5
5
5
5
5
5
5
5
5
5
5
5
5
5
5
5
5
5
5
5
5
5
5
5
5
5
5
5
5
5
5
5
5
5
5
5
5
5
5
5
5
5
5
5
5
5
5
5
5
5
5
5
5
5
5
5
5
5
5
5
5
5
5
5
5
5
5
5
5
5
5
5
5
5
5
5
5
5
5
5
5
5
5
5
5
5
5
5
5
5
5
5
5
5
5
5
5
5
5
5
5
5
5
5
5
5
5
5
5
5
5
5
5
5
5
5
5
5
5
5
5
5
5
5
5
5
5
5
5
5
5
5
5
5
5
5
5
5
5
5
5
5
5
5
5
5
5
5
5
5
5
5
5
5
5
5
5
5
5
5
5
5
5
5
5
5
5
5
5
5
5
5
5
5
5
5
5
5
5
5
5
5
5
5
5
5
5
5
5
5
5
5
5
5
5
5
5
5
5
5
5
5
5
5
5
5
5
5
5
5
5
5
5
5
5
5
5
5
5
5
5
5
5
5
5
5
5
5
5
5
5
5
5
5
5
5
5
5
5
5
5
5
5
5
5
5
5
5
5
5
5
5
5
5
5
5
5
5
5
5
5
5
5
5
5
5
5
5
5
5
5
5
5
5
5
5
5
5
5
5
5
5
5
5
5
5
5
5
5
5
5
5
5
5
5
5
5
5
5
5
5
5
5
5
5
5
5
5
5
5
5
5
5
5
5
5
5
5
5
5
5
5
5
5
5
5
5
5
5
5
5
5
5
5
5
5
5
5
5
5
5
5
5
5
5
5
5
5
5
5
5
5
5
5
5
5
5
5
5
5
5
5
5
5
5
5
5
5
5
5
5
5
5
5
5
5
5
5
5
5
5
5
5
5
5
5
5
5
5
5
5
5
5
5
5
5
5
5
5
5
5
5
5
5
5
5
5
5
5
5
5
5
5
5
5
5
5
5
5
5
5
5
5
5
5
5
5
5
5
5
5
5
5
5
5
5
5
5
5
5
5
5
5
5
5
5
5
5
5
5
5
5
5
5
5
5
5
5
5
5
5
5
5
5
5
5
5
5
5
5
5
5
5
5
5
5
5
5
5
5
5
5
5
5
5
5
5
5
5
5
5
5
5
5
5
5
5
5
5
5
5
5
5
5
5
5
5
5
5
5
5
5
5
5
5
5
5
5
5
5
5
5
5
5
5
5
5
5
5
5
5
5
5
5
5
5
5
5
5
5
5
5
5
5
5
5
5
5
5
5
5
5
5
5
5
5
5
5
5
5
5
5
5
5
5
5
5
5
5
5
5
5
5
5
5
5
5
5
5
5
5
5
5
5
5
5
5
5
5
5
5
5
5
5
5
5
5
5
5
5
5
5
5
5
5
5
5
5
5
5
5
5
5
5
5
5
5
5
5
5
5
5
5
5
5
5
5
5
5
5
5
5
5
5
5
5
5
5
5
5
5
5
5
5
5
5
5
5
5
5
5
5
5
5
5
5
5
5
5
5
5
5
5
5
5
5
5
5
5
5
5
5
5
5
5
5
5
5
5
5
5
5
5
5
5
5
5
5
5
5
5
5
5
5
5
5
5
5
5
5
5
5
5
5
5
5
5
5
5
5
5
5
5
5
5
5
5
10
10
10
10
10
10
10
10
10
10
10
10
10
10
10
10
10
10
10
10
10
10
10
10
10
10
10
10
10
10
10
10
10
10
10
10
10
10
10
10
10
10
10
10
10
10
10
10
10
10
10
10
10
10
10
10
10
10
10
10
10
10
10
10
10
10
10
10
10
10
10
10
10
10
10
10
10
10
10
10
10
10
10
10
10
10
10
10
10
10
10
10
10
10
10
10
10
10
10
10
10
10
10
10
10
10
10
10
10
10
10
10
10
10
10
10
10
10
10
10
10
10
10
10
10
10
10
10
10
10
10
10
10
10
10
10
10
10
10
10
10
10
10
10
10
10
10
10
10
10
10
10
10
10
10
10
10
10
10
10
10
10
10
10
10
10
10
10
10
10
10
10
10
10
10
10
10
10
10
10
10
10
10
10
10
10
10
10
10
10
10
10
10
10
10
10
10
10
10
10
10
10
10
10
10
10
10
10
10
10
10
10
10
10
10
10
10
10
10
10
10
10
10
10
10
10
10
10
10
10
10
10
10
10
10
10
10
10
10
10
10
10
10
10
10
10
10
10
10
10
10
10
10
10
10
10
10
10
10
10
10
10
10
10
10
10
10
10
10
10
10
10
10
10
10
10
10
10
10
10
10
10
10
10
10
10
10
10
10
10
10
10
10
10
10
10
10
10
10
10
10
10
10
10
10
10
10
10
10
10
10
10
10
10
10
10
10
10
10
10
10
10
10
10
10
10
10
10
10
10
10
10
10
10
10
10
10
10
10
10
10
10
10
10
10
10
10
10
10
10
10
10
10
10
10
10
10
10
10
10
10
10
10
10
10
10
10
10
10
10
10
10
10
10
10
10
10
10
10
10
10
10
10
10
10
10
10
10
10
10
10
10
10
10
10
10
10
10
10
10
10
10
10
10
10
10
10
10
10
10
10
10
10
10
10
10
10
10
10
10
10
10
10
10
10
10
10
10
10
10
10
10
10
10
10
10
10
10
10
10
10
10
10
10
10
10
10
10
10
10
10
10
10
10
10
10
10
10
10
10
10
10
10
10
10
10
10
10
10
10
10
10
10
10
10
10
10
10
10
10
10
10
10
10
10
10
10
10
10
10
10
10
10
10
10
10
10
10
10
10
10
10
10
10
10
10
10
10
10
10
10
10
10
10
10
10
10
10
10
10
10
10
10
10
10
10
10
10
10
10
10
10
10
10
10
10
10
10
10
10
10
10
10
10
10
10
10
10
10
10
10
10
10
10
10
10
10
10
10
10
10
10
10
10
10
10
10
10
10
10
10
10
10
10
10
10
10
10
10
10
10
10
10
10
10
10
10
10
10
10
10
10
10
10
10
10
10
10
10
10
10
10
10
10
10
10
10
10
10
10
10
10
10
10
10
10
10
10
10
10
10
10
10
10
10
10
10
10
10
10
10
10
10
10
10
10
10
10
10
10
10
10
10
10
10
10
10
10
10
10
10
10
10
10
10
10
10
10
10
10
10
10
10
10
10
10
10
10
10
10
10
10
10
10
10
10
10
10
10
10
10
10
10
10
10
10
10
10
10
10
10
10
10
10
10
10
10
10
10
10
10
10
10
10
10
10
10
10
10
10
10
10
10
10
10
10
10
10
10
10
10
10
10
10
10
10
10
10
10
10
10
10
10
10
10
10
10
10
10
10
10
10
10
10
10
10
10
10
10
10
10
10
10
10
10
10
10
10
10
10
10
10
10
10
10
10
10
10
10
10
10
10
10
10
10
10
10
10
10
10
10
10
10
10
10
10
10
10
10
10
10
10
10
10
10
10
10
10
10
10
10
10
10
10
10
10
10
10
10
10
10
10
10
10
10
10
10
10
10
10
10
10
10
10
10
10
10
10
10
10
10
10
10
10
10
10
10
10
10
10
10
10
10
10
10
10
10
10
10
10
10
10
10
10
10
10
10
10
10
10
10
10
10
10
10
10
10
10
10
10
10
10
10
10
10
10
10
10
10
10
10
10
10
10
10
10
10
10
10
10
10
10
10
10
10
10
10
10
10
10
10
10
10
10
10
10
10
10
10
10
10
10
10
10
10
10
10
10
10
10
10
10
10
10
10
10
10
10
10
10
10
10
10
10
10
10
10
10
10
10
10
10
10
10
10
10
10
10
10
10
10
10
10
10
10
10
10
10
10
10
10
10
10
10
10
10
10
10
10
10
10
10
10
10
10
10
10
10
10
10
10
10
10
10
10
10
10
10
10
10
10
10
10
10
10
10
10
10
10
10
10
10
10
10
10
10
10
10
10
10
10
10
10
10
10
10
10
10
10
10
10
10
10
10
10
10
10
10
10
10
10
10
10
10
10
10
10
10
10
10
10
10
10
10
10
10
10
10
10
10
10
10
10
10
10
10
10
10
10
10
10
10
10
10
10
10
10
10
10
10
10
10
10
10
10
10
10
10
10
10
10
10
10
10
10
10
10
10
10
10
10
10
10
10
10
10
10
10
10
10
10
10
10
10
10
10
10
10
10
10
10
10
10
10
10
10
10
10
10
10
10
10
10
10
10
10
10
10
10
10
10
10
10
10
10
10
10
10
10
10
10
10
10
10
10
10
10
10
10
10
10
10
10
10
10
10
10
10
10
10
10
10
10
10
10
10
10
10
10
10
10
10
10
10
10
10
10
10
10
10
10
10
10
10
10
10
10
10
10
10
10
10
10
10
10
10
10
10
10
10
10
10
10
10
10
10
10
10
10
10
10
10
10
10
10
10
10
10
10
10
10
10
10
10
10
10
10
10
10
10
10
10
10
10
10
10
10
10
10
10
10
10
10
10
10
10
10
10
10
10
10
10
10
10
10
10
10
10
10
10
10
10
10
10
10
10
10
10
10
10
10
10
10
10
10
10
10
10
10
10
10
10
10
10
10
10
10
10
10
10
10
10
10
10
10
10
10
10
10
10
10
10
10
10
10
10
10
10
10
10
10
10
10
10
10
10
10
10
10
10
10
10
10
10
10
10
10
10
10
10
10
10
10
10
10
10
10
10
10
10
10
10
10
10
10
10
10
10
10
10
10
10
10
10
10
10
10
10
10
10
10
10
10
10
10
10
10
10
10
10
10
10
10
10
10
10
10
10
10
10
10
10
10
10
10
10
10
10
10
10
10
10
10
10
10
10
10
10
10
10
10
10
10
10
10
10
10
10
10
10
10
10
10
10
10
10
10
10
10
10
10
10
10
10
10
10
10
10
10
10
10
10
10
10
10
10
10
10
10
10
10
10
10
10
10
10
10
10
10
10
10
10
10
10
10
10
10
10
10
10
10
10
10
10
10
10
10
10
10
10
10
10
10
10
10
10
10
10
10
10
10
10
10
10
10
10
10
10
10
10
10
10
10
10
10
10
10
10
10
10
10
10
10
10
10
10
10
10
10
10
10
10
10
10
10
10
10
10
10
10
10
10
10
10
10
10
10
10
10
10
10
10
10
10
10
10
10
10
10
10
10
10
10
10
10
10
10
10
10
10
10
10
10
10
10
10
10
10
10
10
10
10
10
10
10
10
10
10
10
10
10
10
10
10
10
10
10
10
10
10
10
10
10
10
10
10
10
10
10
10
10
10
10
10
10
10
10
10
10
10
10
10
10
10
10
10
10
10
10
10
10
10
10
10
10
10
10
10
10
10
10
10
10
10
10
10
10
10
10
10
10
10
10
10
10
10
10
10
10
10
10
10
10
10
10
10
10
10
10
10
10
10
10
10
10
10
10
10
10
10
10
10
10
10
10
10
10
10
10
10
10
10
10
10
10
10
10
10
10
10
10
10
10
10
10
10
10
10
10
10
10
10
10
10
10
10
10
10
10
10
10
10
10
10
10
10
10
10
10
10
10
10
10
10
10
10
10
10
10
10
10
10
10
10
10
10
10
10
10
10
10
10
10
10
10
10
10
10
10
10
10
10
10
10
10
10
10
10
10
10
10
10
10
10
10
10
10
10
10
10
10
10
10
10
10
10
10
10
10
10
10
10
10
10
10
10
10
10
10
10
10
10
10
10
10
10
10
10
10
10
10
10
10
10
10
10
10
10
10
10
10
10
10
10
10
10
10
10
10
10
10
10
10
10
10
10
10
10
10
10
10
10
10
10
10
10
10
10
10
10
10
10
10
10
10
10
10
10
10
10
10
10
10
10
10
10
10
10
10
10
10
10
10
10
10
10
10
10
10
10
10
10
10
10
10
10
10
10
10
10
10
10
10
10
10
10
10
10
10
10
10
10
10
10
10
10
10
10
10
10
10
10
10
10
10
10
10
10
10
10
10
10
10
10
10
10
10
10
10
10
10
10
10
10
10
10
10
10
10
10
10
10
10
10
10
10
10
10
10
10
10
10
